<svg id="bold" enable-background="new 0 0 24 24" height="512" viewBox="0 0 24 24" width="512" xmlns="http://www.w3.org/2000/svg"><path d="m12 0c-6.617 0-12 5.383-12 12s5.383 12 12 12 12-5.383 12-12-5.383-12-12-12zm10 12c0 1.422-.303 2.774-.841 4h-7.159c-1.103 0-2 .897-2 2s.897 2 2 2h3.974c-1.669 1.25-3.733 2-5.974 2-4.829 0-8.869-3.441-9.798-8h10.798c1.103 0 2-.897 2-2s-.897-2-2-2h-5c-.552 0-1-.449-1-1s.448-1 1-1h1c1.103 0 2-.897 2-2s-.897-2-2-2h-2.974c1.669-1.25 3.733-2 5.974-2 2.79 0 5.314 1.151 7.129 3h-1.129c-1.103 0-2 .897-2 2s.897 2 2 2h3.539c.299.948.461 1.955.461 3z"/></svg>