<svg id="Layer_1" height="512" viewBox="0 0 512 512" width="512" xmlns="http://www.w3.org/2000/svg" xmlns:xlink="http://www.w3.org/1999/xlink" data-name="Layer 1"><linearGradient id="linear-gradient" gradientUnits="userSpaceOnUse" x1="256" x2="256" y1="480" y2="45.982"><stop offset=".322" stop-color="#a163f5"/><stop offset=".466" stop-color="#b074ee"/><stop offset=".752" stop-color="#d8a1dd"/><stop offset=".898" stop-color="#efbad3"/></linearGradient><linearGradient id="linear-gradient-2" x1="163.695" x2="163.695" xlink:href="#linear-gradient" y1="480" y2="45.982"/><linearGradient id="linear-gradient-3" x1="125.396" x2="125.396" xlink:href="#linear-gradient" y1="480" y2="45.982"/><path d="m308.885 67.952-47.966 47.965a95.525 95.525 0 0 0 -13.829 117.652l-13.521 13.521a95.522 95.522 0 0 0 -117.651 13.829l-10.407 10.407a6 6 0 0 0 0 8.484 6 6 0 0 0 8.484 0l10.405-10.41a83.539 83.539 0 0 1 100.415-13.562l-15.1 15.1a63.664 63.664 0 0 0 -70.94 12.83l-47.967 47.973a63.251 63.251 0 0 0 89.451 89.45l47.966-47.965a63.666 63.666 0 0 0 12.83-70.94l15.1-15.105a83.54 83.54 0 0 1 -13.555 100.419l-47.966 47.965a83.576 83.576 0 0 1 -118.197-118.196l7.861-7.861a6 6 0 1 0 -8.485-8.484l-7.861 7.861a95.575 95.575 0 0 0 135.163 135.163l47.966-47.965a95.525 95.525 0 0 0 13.829-117.652l13.523-13.523a95.475 95.475 0 0 0 117.649-13.827l47.966-47.966a95.575 95.575 0 0 0 -135.163-135.163zm-89.145 296.789-47.966 47.965a51.251 51.251 0 1 1 -72.481-72.48l47.966-47.966a51.62 51.62 0 0 1 53.239-12.1l-32.253 32.253a22.162 22.162 0 0 0 0 31.341 22.162 22.162 0 0 0 31.341 0l32.254-32.254a51.618 51.618 0 0 1 -12.1 53.241zm-28.64-29.47a10.166 10.166 0 0 1 -14.372 0 10.166 10.166 0 0 1 0-14.372l144.172-144.17a10.163 10.163 0 0 1 14.371 14.371zm152.656-167.026a22.162 22.162 0 0 0 -31.342 0l-32.254 32.255a51.618 51.618 0 0 1 12.1-53.24l47.966-47.965a51.251 51.251 0 1 1 72.481 72.48l-47.966 47.965a51.618 51.618 0 0 1 -53.239 12.1l32.253-32.253a22.162 22.162 0 0 0 0-31.341zm91.807 26.386-47.963 47.969a83.537 83.537 0 0 1 -100.415 13.562l15.1-15.1a63.642 63.642 0 0 0 70.943-12.833l47.966-47.966a63.251 63.251 0 1 0 -89.451-89.45l-47.966 47.965a63.666 63.666 0 0 0 -12.83 70.94l-15.1 15.1a83.54 83.54 0 0 1 13.553-100.418l47.966-47.965a83.576 83.576 0 0 1 118.197 118.196z" fill="url(#linear-gradient)"/><path d="m166.02 306.024 3.834-3.834a6 6 0 0 0 -8.484-8.486l-3.835 3.834a6 6 0 0 0 8.485 8.486z" fill="url(#linear-gradient-2)"/><path d="m140.02 315.055-37.733 37.732a6 6 0 1 0 8.484 8.484l37.729-37.732a6 6 0 0 0 -8.484-8.484z" fill="url(#linear-gradient-3)"/></svg>