<svg id="Layer_1" height="512" viewBox="0 0 512 512" width="512" xmlns="http://www.w3.org/2000/svg" xmlns:xlink="http://www.w3.org/1999/xlink" data-name="Layer 1"><linearGradient id="linear-gradient" gradientUnits="userSpaceOnUse" x1="108" x2="108" y1="470" y2="82.862"><stop offset=".322" stop-color="#a163f5"/><stop offset=".466" stop-color="#b074ee"/><stop offset=".752" stop-color="#d8a1dd"/><stop offset=".898" stop-color="#efbad3"/></linearGradient><linearGradient id="linear-gradient-3" x1="256" x2="256" xlink:href="#linear-gradient" y1="470" y2="82.862"/><path d="m108 150.562a6 6 0 0 0 -6 6v4.7a6 6 0 0 0 12 0v-4.7a6 6 0 0 0 -6-6z" fill="url(#linear-gradient)"/><path d="m108 176.728a6 6 0 0 0 -6 6v71.086a6 6 0 1 0 12 0v-71.086a6 6 0 0 0 -6-6z" fill="url(#linear-gradient)"/><path d="m431 373.719v-235.438a46.771 46.771 0 1 0 -52.172-52.281h-245.64a46.761 46.761 0 0 0 -86.547-18.106 6 6 0 0 0 5.127 9.106 5.9 5.9 0 0 0 5.091-2.838 34.774 34.774 0 1 1 .161 35.7 5.993 5.993 0 0 0 -10.237 6.235 46.832 46.832 0 0 0 34.217 22.185v235.437a46.771 46.771 0 1 0 51.5 56.281h247.01a46.774 46.774 0 1 0 51.49-56.281zm-5.776-316.619a34.777 34.777 0 1 1 -34.778 34.777 34.816 34.816 0 0 1 34.778-34.777zm-338.448 397.8a34.777 34.777 0 1 1 34.778-34.777 34.816 34.816 0 0 1 -34.778 34.777zm291.724-36.9h-245a46.843 46.843 0 0 0 -40.5-44.224v-235.554a46.864 46.864 0 0 0 40.147-40.222h245.713a46.859 46.859 0 0 0 40.14 40.224v235.552a46.843 46.843 0 0 0 -40.5 44.224zm46.724 36.9a34.777 34.777 0 1 1 34.776-34.774 34.816 34.816 0 0 1 -34.776 34.774z" fill="url(#linear-gradient-3)"/></svg>