<?xml version="1.0" encoding="utf-8"?>
<!-- Generator: Adobe Illustrator 15.0.0, SVG Export Plug-In . SVG Version: 6.00 Build 0)  -->
<!DOCTYPE svg PUBLIC "-//W3C//DTD SVG 1.1//EN" "http://www.w3.org/Graphics/SVG/1.1/DTD/svg11.dtd">
<svg version="1.1" id="Layer_1" xmlns="http://www.w3.org/2000/svg" xmlns:xlink="http://www.w3.org/1999/xlink" x="0px" y="0px"
	 width="64px" height="64px" viewBox="0 0 64 64" enable-background="new 0 0 64 64" xml:space="preserve">
<path fill="#ED7612" d="M2,32C2,15.436,15.438,2,32,2c16.572,0,30,13.436,30,30c0,16.57-13.428,30-30,30C15.438,62,2,48.57,2,32z"/>
<path fill="#E64C18" d="M45.778,5.354C53.172,10.61,58,19.24,58,29c0,16.019-12.98,29-29,29c-9.759,0-18.39-4.829-23.646-12.224
	C10.347,55.412,20.404,62,32,62c16.571,0,30-13.43,30-30C62,20.402,55.413,10.347,45.778,5.354z"/>
<path fill-rule="evenodd" clip-rule="evenodd" fill="#F59E01" d="M10.218,17.397c0.446,3.134,6.31-2.997,12.248-8.267
	C26.298,5.741,8.878,7.973,10.218,17.397z"/>
<path fill="#FFFFFF" d="M49.365,28L51,22h-6.104l1.635-6H40.43l-1.637,6h-8.137l1.635-6h-6.102l-1.637,6h-6.102l-1.635,6h6.102
	l-2.18,8h-6.104L13,42h6.104l-1.637,6h6.104l1.635-6h8.139l-1.637,6h6.104l1.635-6h6.104l1.635-6h-6.102l2.18-8H49.365z M34.979,36
	h-8.137l2.18-8h8.137L34.979,36z"/>
</svg>
