<?xml version="1.0" encoding="utf-8"?>
<!-- Generator: Adobe Illustrator 15.0.0, SVG Export Plug-In . SVG Version: 6.00 Build 0)  -->
<!DOCTYPE svg PUBLIC "-//W3C//DTD SVG 1.1//EN" "http://www.w3.org/Graphics/SVG/1.1/DTD/svg11.dtd">
<svg version="1.1" id="Layer_1" xmlns="http://www.w3.org/2000/svg" xmlns:xlink="http://www.w3.org/1999/xlink" x="0px" y="0px"
	 width="64px" height="64px" viewBox="0 0 64 64" enable-background="new 0 0 64 64" xml:space="preserve">
<path fill="#006DAE" d="M62,50c0,6.6-5.4,12-12,12H14C7.4,62,2,56.6,2,50V14C2,7.399,7.4,2,14,2h36c6.6,0,12,5.399,12,12V50z"/>
<path fill="#014D87" d="M56.838,4.162C58.197,6.105,59,8.462,59,11v37c0,6.6-4.398,11-11,11H11c-2.537,0-4.895-0.805-6.838-2.162
	C6.336,59.949,9.938,62,14,62h36c6.602,0,12-5.4,12-12V14C62,9.938,59.951,6.336,56.838,4.162z"/>
<path fill-rule="evenodd" clip-rule="evenodd" fill="#0FB4D4" d="M4.975,12.585c0.338,2.703,4.793-2.587,9.303-7.136
	C17.188,2.524,3.957,4.45,4.975,12.585z"/>
<path fill="#FFFFFF" d="M45.479,36.291c0.377,0.161,0.549,0.477,0.523,0.943c-0.027,0.469-0.35,1.223-0.967,2.264
	c-0.617,1.072-1.121,1.725-1.51,1.967c-0.389,0.24-0.744,0.24-1.066,0l-8.574-6.216l1.129,10.508
	c0.078,0.399-0.096,0.708-0.525,0.921C34.061,46.893,33.227,47,31.994,47c-1.236,0-2.066-0.107-2.496-0.322
	c-0.43-0.213-0.604-0.521-0.523-0.921l1.127-10.508l-8.533,6.216c-0.322,0.24-0.686,0.24-1.088,0
	c-0.402-0.242-0.912-0.895-1.529-1.967c-0.617-1.041-0.934-1.795-0.945-2.264c-0.016-0.467,0.168-0.782,0.543-0.943l9.701-4.29
	l-9.701-4.251c-0.375-0.188-0.559-0.516-0.543-0.984c0.012-0.467,0.328-1.223,0.945-2.264c0.617-1.045,1.127-1.686,1.529-1.927
	c0.402-0.239,0.766-0.239,1.088,0l8.533,6.176l-1.127-10.466c-0.08-0.428,0.094-0.748,0.523-0.963S30.758,17,31.994,17
	c1.232,0,2.066,0.107,2.494,0.322c0.43,0.215,0.604,0.535,0.525,0.963l-1.129,10.466l8.574-6.176c0.322-0.239,0.678-0.239,1.066,0
	c0.389,0.241,0.893,0.897,1.51,1.966c0.617,1.017,0.939,1.758,0.967,2.225c0.025,0.469-0.146,0.797-0.523,0.984l-9.701,4.251
	L45.479,36.291z"/>
</svg>
