<?xml version="1.0" encoding="utf-8"?>
<!-- Generator: Adobe Illustrator 15.0.0, SVG Export Plug-In . SVG Version: 6.00 Build 0)  -->
<!DOCTYPE svg PUBLIC "-//W3C//DTD SVG 1.1//EN" "http://www.w3.org/Graphics/SVG/1.1/DTD/svg11.dtd">
<svg version="1.1" id="Layer_1" xmlns="http://www.w3.org/2000/svg" xmlns:xlink="http://www.w3.org/1999/xlink" x="0px" y="0px"
	 width="64px" height="64px" viewBox="0 0 64 64" enable-background="new 0 0 64 64" xml:space="preserve">
<path fill="#ED7612" d="M2,32C2,15.436,15.438,2,32,2c16.572,0,30,13.436,30,30c0,16.57-13.428,30-30,30C15.438,62,2,48.57,2,32z"/>
<path fill="#E64C18" d="M45.777,5.354C53.172,10.609,58,19.24,58,29c0,16.018-12.98,29-29,29c-9.759,0-18.39-4.83-23.646-12.225
	C10.347,55.412,20.404,62,32,62c16.57,0,30-13.43,30-30C62,20.402,55.412,10.346,45.777,5.354z"/>
<path fill-rule="evenodd" clip-rule="evenodd" fill="#F59E01" d="M10.218,17.396c0.446,3.135,6.31-2.996,12.248-8.266
	C26.298,5.74,8.878,7.973,10.218,17.396z"/>
<path fill="#FFFFFF" d="M45.474,36.291c0.377,0.162,0.549,0.477,0.523,0.943c-0.027,0.469-0.35,1.223-0.967,2.264
	c-0.617,1.072-1.121,1.725-1.51,1.967c-0.389,0.24-0.744,0.24-1.066,0L33.88,35.25l1.129,10.508c0.078,0.398-0.096,0.707-0.525,0.92
	C34.056,46.893,33.222,47,31.989,47c-1.236,0-2.066-0.107-2.496-0.322c-0.43-0.213-0.604-0.521-0.523-0.92l1.127-10.508
	l-8.533,6.215c-0.322,0.24-0.686,0.24-1.088,0c-0.402-0.242-0.912-0.895-1.529-1.967c-0.617-1.041-0.934-1.795-0.945-2.264
	c-0.016-0.467,0.168-0.781,0.543-0.943l9.701-4.289l-9.701-4.252c-0.375-0.188-0.559-0.516-0.543-0.984
	c0.012-0.467,0.328-1.223,0.945-2.264c0.617-1.045,1.127-1.686,1.529-1.926s0.766-0.24,1.088,0l8.533,6.176L28.97,18.285
	c-0.08-0.428,0.094-0.748,0.523-0.963S30.753,17,31.989,17c1.232,0,2.066,0.107,2.494,0.322c0.43,0.215,0.604,0.535,0.525,0.963
	L33.88,28.752l8.574-6.176c0.322-0.24,0.678-0.24,1.066,0s0.893,0.896,1.51,1.965c0.617,1.018,0.939,1.758,0.967,2.225
	c0.025,0.469-0.146,0.797-0.523,0.984l-9.701,4.252L45.474,36.291z"/>
</svg>
