<?xml version="1.0" encoding="utf-8"?>
<!-- Generator: Adobe Illustrator 15.0.0, SVG Export Plug-In . SVG Version: 6.00 Build 0)  -->
<!DOCTYPE svg PUBLIC "-//W3C//DTD SVG 1.1//EN" "http://www.w3.org/Graphics/SVG/1.1/DTD/svg11.dtd">
<svg version="1.1" id="Layer_1" xmlns="http://www.w3.org/2000/svg" xmlns:xlink="http://www.w3.org/1999/xlink" x="0px" y="0px"
	 width="64px" height="64px" viewBox="0 0 64 64" enable-background="new 0 0 64 64" xml:space="preserve">
<path fill="#006DAE" d="M62,50c0,6.6-5.4,12-12,12H14C7.4,62,2,56.6,2,50V14C2,7.399,7.4,2,14,2h36c6.6,0,12,5.399,12,12V50z"/>
<path fill="#014D87" d="M56.838,4.162C58.197,6.105,59,8.462,59,11v37c0,6.6-4.398,11-11,11H11c-2.537,0-4.895-0.805-6.838-2.162
	C6.336,59.949,9.938,62,14,62h36c6.602,0,12-5.4,12-12V14C62,9.938,59.951,6.336,56.838,4.162z"/>
<path fill-rule="evenodd" clip-rule="evenodd" fill="#0FB4D4" d="M4.975,12.585c0.338,2.703,4.793-2.587,9.303-7.136
	C17.188,2.524,3.957,4.45,4.975,12.585z"/>
<path fill="#FFFFFF" d="M32,16c2.984,0,5.316,1.082,6.996,3.25C41,21.814,42,26.068,42,32.012c0,5.928-1.008,10.189-3.025,12.783
	C37.309,46.932,34.984,48,32,48c-2.996,0-5.414-1.172-7.248-3.516C22.918,42.139,22,37.961,22,31.947c0-5.9,1.01-10.146,3.025-12.74
	C26.693,17.07,29.018,16,32,16z M32,20.98c-0.715,0-1.352,0.232-1.912,0.695s-0.994,1.293-1.303,2.49
	c-0.404,1.553-0.607,4.168-0.607,7.846c0,3.676,0.182,6.203,0.545,7.578s0.822,2.291,1.377,2.746c0.553,0.457,1.186,0.684,1.9,0.684
	s1.352-0.23,1.912-0.693c0.561-0.465,0.994-1.295,1.303-2.492c0.406-1.539,0.609-4.146,0.609-7.822c0-3.678-0.182-6.203-0.547-7.58
	c-0.363-1.373-0.822-2.293-1.377-2.756C33.348,21.213,32.715,20.98,32,20.98z"/>
</svg>
