<?xml version="1.0" encoding="utf-8"?>
<!-- Generator: Adobe Illustrator 15.0.0, SVG Export Plug-In . SVG Version: 6.00 Build 0)  -->
<!DOCTYPE svg PUBLIC "-//W3C//DTD SVG 1.1//EN" "http://www.w3.org/Graphics/SVG/1.1/DTD/svg11.dtd">
<svg version="1.1" id="Layer_1" xmlns="http://www.w3.org/2000/svg" xmlns:xlink="http://www.w3.org/1999/xlink" x="0px" y="0px"
	 width="64px" height="64px" viewBox="0 0 64 64" enable-background="new 0 0 64 64" xml:space="preserve">
<path fill="#006DAE" d="M62,50c0,6.6-5.4,12-12,12H14C7.4,62,2,56.6,2,50V14C2,7.399,7.4,2,14,2h36c6.6,0,12,5.399,12,12V50z"/>
<path fill="#014D87" d="M56.838,4.162C58.197,6.105,59,8.462,59,11v37c0,6.6-4.398,11-11,11H11c-2.537,0-4.895-0.805-6.838-2.162
	C6.336,59.949,9.938,62,14,62h36c6.602,0,12-5.4,12-12V14C62,9.938,59.951,6.336,56.838,4.162z"/>
<path fill-rule="evenodd" clip-rule="evenodd" fill="#0FB4D4" d="M4.975,12.585c0.338,2.703,4.793-2.587,9.303-7.136
	C17.188,2.524,3.957,4.45,4.975,12.585z"/>
<path fill="#FFFFFF" d="M42,42.326V48H22c0.215-2.146,0.865-4.178,1.949-6.098c1.082-1.922,3.221-4.467,6.416-7.643
	c2.57-2.564,4.148-4.303,4.73-5.217c0.785-1.26,1.178-2.508,1.178-3.738c0-1.363-0.342-2.41-1.025-3.143s-1.627-1.098-2.832-1.098
	c-1.191,0-2.141,0.385-2.844,1.152s-1.109,2.045-1.217,3.826l-5.686-0.609c0.338-3.361,1.4-5.773,3.188-7.238
	C27.645,16.732,29.877,16,32.559,16c2.936,0,5.246,0.848,6.924,2.543S42,22.348,42,24.869c0,1.434-0.24,2.801-0.721,4.098
	c-0.48,1.299-1.242,2.656-2.285,4.076c-0.691,0.941-1.936,2.297-3.736,4.064c-1.799,1.77-2.941,2.943-3.42,3.523
	c-0.48,0.578-0.871,1.145-1.168,1.695H42z"/>
</svg>
