<?xml version="1.0" encoding="utf-8"?>
<!-- Generator: Adobe Illustrator 15.0.0, SVG Export Plug-In . SVG Version: 6.00 Build 0)  -->
<!DOCTYPE svg PUBLIC "-//W3C//DTD SVG 1.1//EN" "http://www.w3.org/Graphics/SVG/1.1/DTD/svg11.dtd">
<svg version="1.1" id="Layer_1" xmlns="http://www.w3.org/2000/svg" xmlns:xlink="http://www.w3.org/1999/xlink" x="0px" y="0px"
	 width="64px" height="64px" viewBox="0 0 64 64" enable-background="new 0 0 64 64" xml:space="preserve">
<path fill="#ED7612" d="M2,32C2,15.436,15.438,2,32,2c16.572,0,30,13.436,30,30c0,16.57-13.428,30-30,30C15.438,62,2,48.57,2,32z"/>
<path fill="#E64C18" d="M45.778,5.354C53.172,10.61,58,19.24,58,29c0,16.019-12.98,29-29,29c-9.759,0-18.39-4.829-23.646-12.224
	C10.347,55.412,20.404,62,32,62c16.571,0,30-13.43,30-30C62,20.402,55.413,10.347,45.778,5.354z"/>
<path fill-rule="evenodd" clip-rule="evenodd" fill="#F59E01" d="M10.218,17.397c0.446,3.134,6.31-2.997,12.248-8.267
	C26.298,5.741,8.878,7.973,10.218,17.397z"/>
<path fill="#FFFFFF" d="M42,42.326V48H22c0.217-2.146,0.865-4.178,1.949-6.098c1.084-1.922,3.221-4.467,6.416-7.643
	c2.572-2.564,4.148-4.303,4.732-5.217c0.783-1.26,1.176-2.508,1.176-3.738c0-1.363-0.342-2.41-1.025-3.143s-1.627-1.098-2.832-1.098
	c-1.191,0-2.139,0.385-2.842,1.152c-0.705,0.768-1.111,2.045-1.219,3.826l-5.686-0.609c0.338-3.361,1.402-5.773,3.188-7.238
	C27.645,16.732,29.879,16,32.559,16c2.936,0,5.246,0.848,6.924,2.543S42,22.348,42,24.869c0,1.434-0.24,2.801-0.721,4.098
	c-0.48,1.299-1.242,2.656-2.283,4.076c-0.691,0.941-1.938,2.297-3.738,4.064c-1.799,1.77-2.939,2.943-3.42,3.523
	c-0.48,0.578-0.871,1.145-1.168,1.695H42z"/>
</svg>
