<?xml version="1.0" encoding="utf-8"?>
<!-- Generator: Adobe Illustrator 15.0.0, SVG Export Plug-In . SVG Version: 6.00 Build 0)  -->
<!DOCTYPE svg PUBLIC "-//W3C//DTD SVG 1.1//EN" "http://www.w3.org/Graphics/SVG/1.1/DTD/svg11.dtd">
<svg version="1.1" id="Layer_1" xmlns="http://www.w3.org/2000/svg" xmlns:xlink="http://www.w3.org/1999/xlink" x="0px" y="0px"
	 width="64px" height="64px" viewBox="0 0 64 64" enable-background="new 0 0 64 64" xml:space="preserve">
<path fill="#ED7612" d="M2,32C2,15.436,15.438,2,32,2c16.572,0,30,13.436,30,30c0,16.57-13.428,30-30,30C15.438,62,2,48.57,2,32z"/>
<path fill="#E64C18" d="M45.778,5.354C53.172,10.61,58,19.24,58,29c0,16.019-12.98,29-29,29c-9.759,0-18.39-4.829-23.646-12.224
	C10.347,55.412,20.404,62,32,62c16.571,0,30-13.43,30-30C62,20.402,55.413,10.347,45.778,5.354z"/>
<path fill-rule="evenodd" clip-rule="evenodd" fill="#F59E01" d="M10.218,17.397c0.446,3.134,6.31-2.997,12.248-8.267
	C26.298,5.741,8.878,7.973,10.218,17.397z"/>
<path fill="#FFFFFF" d="M22,39.15l5.586-0.707c0.178,1.482,0.656,2.617,1.438,3.4c0.779,0.783,1.725,1.176,2.834,1.176
	c1.189,0,2.193-0.471,3.008-1.41c0.814-0.941,1.223-2.209,1.223-3.807c0-1.51-0.391-2.707-1.172-3.59
	c-0.781-0.885-1.73-1.324-2.854-1.324c-0.74,0-1.623,0.148-2.65,0.447l0.637-4.895c1.561,0.043,2.752-0.311,3.574-1.059
	c0.82-0.748,1.232-1.742,1.232-2.982c0-1.055-0.301-1.896-0.904-2.521c-0.602-0.627-1.404-0.941-2.402-0.941
	c-0.986,0-1.828,0.355-2.525,1.068c-0.699,0.713-1.123,1.752-1.273,3.121l-5.318-0.939c0.369-1.896,0.928-3.41,1.674-4.543
	s1.785-2.023,3.121-2.672C28.561,16.324,30.057,16,31.713,16c2.834,0,5.107,0.939,6.816,2.822c1.41,1.539,2.115,3.275,2.115,5.215
	c0,2.75-1.443,4.945-4.332,6.584c1.725,0.385,3.104,1.246,4.139,2.586C41.484,34.547,42,36.164,42,38.061
	c0,2.75-0.965,5.094-2.895,7.031C37.174,47.029,34.771,48,31.898,48c-2.725,0-4.984-0.816-6.777-2.447
	C23.328,43.92,22.289,41.785,22,39.15z"/>
</svg>
