<?xml version="1.0" encoding="utf-8"?>
<!-- Generator: Adobe Illustrator 15.0.0, SVG Export Plug-In . SVG Version: 6.00 Build 0)  -->
<!DOCTYPE svg PUBLIC "-//W3C//DTD SVG 1.1//EN" "http://www.w3.org/Graphics/SVG/1.1/DTD/svg11.dtd">
<svg version="1.1" id="Layer_1" xmlns="http://www.w3.org/2000/svg" xmlns:xlink="http://www.w3.org/1999/xlink" x="0px" y="0px"
	 width="64px" height="64px" viewBox="0 0 64 64" enable-background="new 0 0 64 64" xml:space="preserve">
<path fill="#ED7612" d="M2,32C2,15.436,15.438,2,32,2c16.572,0,30,13.436,30,30c0,16.57-13.428,30-30,30C15.438,62,2,48.57,2,32z"/>
<path fill="#E64C18" d="M45.777,5.354C53.172,10.61,58,19.24,58,29c0,16.019-12.98,29-29,29c-9.76,0-18.391-4.829-23.646-12.224
	C10.346,55.412,20.404,62,32,62c16.57,0,30-13.43,30-30C62,20.402,55.412,10.347,45.777,5.354z"/>
<path fill-rule="evenodd" clip-rule="evenodd" fill="#F59E01" d="M10.217,17.397c0.447,3.134,6.311-2.997,12.248-8.267
	C26.297,5.741,8.877,7.973,10.217,17.397z"/>
<path fill="#FFFFFF" d="M33.662,48v-6.414H20v-5.348L34.48,16h5.375v20.217H44v5.369h-4.145V48H33.662z M33.662,36.217V25.326
	l-7.674,10.891H33.662z"/>
</svg>
