<?xml version="1.0" encoding="utf-8"?>
<!-- Generator: Adobe Illustrator 15.0.0, SVG Export Plug-In . SVG Version: 6.00 Build 0)  -->
<!DOCTYPE svg PUBLIC "-//W3C//DTD SVG 1.1//EN" "http://www.w3.org/Graphics/SVG/1.1/DTD/svg11.dtd">
<svg version="1.1" id="Layer_1" xmlns="http://www.w3.org/2000/svg" xmlns:xlink="http://www.w3.org/1999/xlink" x="0px" y="0px"
	 width="64px" height="64px" viewBox="0 0 64 64" enable-background="new 0 0 64 64" xml:space="preserve">
<path fill="#006DAE" d="M62,50c0,6.6-5.4,12-12,12H14C7.4,62,2,56.6,2,50V14C2,7.399,7.4,2,14,2h36c6.6,0,12,5.399,12,12V50z"/>
<path fill="#014D87" d="M56.838,4.162C58.197,6.105,59,8.462,59,11v37c0,6.6-4.398,11-11,11H11c-2.537,0-4.895-0.805-6.838-2.162
	C6.336,59.949,9.938,62,14,62h36c6.602,0,12-5.4,12-12V14C62,9.938,59.951,6.336,56.838,4.162z"/>
<path fill-rule="evenodd" clip-rule="evenodd" fill="#0FB4D4" d="M4.975,12.585c0.338,2.703,4.793-2.587,9.303-7.136
	C17.188,2.524,3.957,4.45,4.975,12.585z"/>
<path fill="#FFFFFF" d="M22,39.254l5.68-0.631c0.162,1.379,0.643,2.469,1.441,3.273c0.797,0.807,1.717,1.209,2.758,1.209
	c1.189,0,2.197-0.52,3.021-1.557c0.826-1.035,1.238-2.598,1.238-4.688c0-1.957-0.41-3.426-1.229-4.404
	c-0.816-0.979-1.883-1.469-3.193-1.469c-1.637,0-3.104,0.777-4.402,2.328l-4.625-0.719L25.611,16h15.07v5.721h-10.75l-0.893,5.418
	c1.271-0.682,2.568-1.023,3.895-1.023c2.527,0,4.672,0.986,6.43,2.959C41.121,31.045,42,33.605,42,36.754
	c0,2.623-0.709,4.967-2.129,7.025C37.938,46.592,35.252,48,31.818,48c-2.746,0-4.984-0.791-6.715-2.371
	C23.373,44.047,22.338,41.922,22,39.254z"/>
</svg>
