<?xml version="1.0" encoding="utf-8"?>
<!-- Generator: Adobe Illustrator 15.0.0, SVG Export Plug-In . SVG Version: 6.00 Build 0)  -->
<!DOCTYPE svg PUBLIC "-//W3C//DTD SVG 1.1//EN" "http://www.w3.org/Graphics/SVG/1.1/DTD/svg11.dtd">
<svg version="1.1" id="Layer_1" xmlns="http://www.w3.org/2000/svg" xmlns:xlink="http://www.w3.org/1999/xlink" x="0px" y="0px"
	 width="64px" height="64px" viewBox="0 0 64 64" enable-background="new 0 0 64 64" xml:space="preserve">
<path fill="#ED7612" d="M2,32C2,15.436,15.438,2,32,2c16.572,0,30,13.436,30,30c0,16.57-13.428,30-30,30C15.438,62,2,48.57,2,32z"/>
<path fill="#E64C18" d="M45.778,5.354C53.172,10.61,58,19.24,58,29c0,16.019-12.98,29-29,29c-9.759,0-18.39-4.829-23.646-12.224
	C10.347,55.412,20.404,62,32,62c16.571,0,30-13.43,30-30C62,20.402,55.413,10.347,45.778,5.354z"/>
<path fill-rule="evenodd" clip-rule="evenodd" fill="#F59E01" d="M10.218,17.397c0.446,3.134,6.31-2.997,12.248-8.267
	C26.298,5.741,8.878,7.973,10.218,17.397z"/>
<path fill="#FFFFFF" d="M22,39.254l5.68-0.631c0.162,1.379,0.643,2.469,1.439,3.273c0.799,0.807,1.717,1.209,2.76,1.209
	c1.189,0,2.197-0.52,3.021-1.557c0.824-1.035,1.236-2.598,1.236-4.688c0-1.957-0.408-3.426-1.227-4.404s-1.883-1.469-3.193-1.469
	c-1.637,0-3.105,0.777-4.402,2.328l-4.625-0.719L25.611,16h15.07v5.721h-10.75l-0.893,5.418c1.27-0.682,2.568-1.023,3.895-1.023
	c2.527,0,4.672,0.986,6.43,2.959C41.121,31.045,42,33.605,42,36.754c0,2.623-0.711,4.967-2.129,7.025
	C37.936,46.592,35.252,48,31.818,48c-2.746,0-4.984-0.791-6.715-2.371C23.373,44.047,22.338,41.922,22,39.254z"/>
</svg>
