<?xml version="1.0" encoding="utf-8"?>
<!-- Generator: Adobe Illustrator 15.0.0, SVG Export Plug-In . SVG Version: 6.00 Build 0)  -->
<!DOCTYPE svg PUBLIC "-//W3C//DTD SVG 1.1//EN" "http://www.w3.org/Graphics/SVG/1.1/DTD/svg11.dtd">
<svg version="1.1" id="Layer_1" xmlns="http://www.w3.org/2000/svg" xmlns:xlink="http://www.w3.org/1999/xlink" x="0px" y="0px"
	 width="64px" height="64px" viewBox="0 0 64 64" enable-background="new 0 0 64 64" xml:space="preserve">
<path fill="#ED7612" d="M2,32C2,15.436,15.439,2,32,2c16.572,0,30,13.436,30,30c0,16.57-13.428,30-30,30C15.439,62,2,48.57,2,32z"/>
<path fill="#E64C18" d="M45.779,5.354C53.172,10.61,58,19.24,58,29c0,16.019-12.98,29-29,29c-9.758,0-18.389-4.829-23.646-12.224
	C10.348,55.412,20.404,62,32,62c16.572,0,30-13.43,30-30C62,20.402,55.414,10.347,45.779,5.354z"/>
<path fill-rule="evenodd" clip-rule="evenodd" fill="#F59E01" d="M10.219,17.397c0.445,3.134,6.309-2.997,12.248-8.267
	C26.299,5.741,8.879,7.973,10.219,17.397z"/>
<path fill="#FFFFFF" d="M41.449,23.801l-5.557,0.643c-0.137-1.197-0.49-2.082-1.063-2.65c-0.572-0.57-1.314-0.855-2.227-0.855
	c-1.213,0-2.238,0.57-3.074,1.709c-0.838,1.141-1.365,3.514-1.584,7.121c1.43-1.77,3.207-2.654,5.332-2.654
	c2.396,0,4.451,0.957,6.158,2.867C41.146,31.891,42,34.355,42,37.375c0,3.207-0.898,5.779-2.695,7.717
	C37.506,47.029,35.197,48,32.379,48c-3.023,0-5.51-1.23-7.457-3.688S22,37.826,22,32.225c0-5.744,1.016-9.885,3.045-12.42
	C27.074,17.268,29.709,16,32.951,16c2.273,0,4.156,0.666,5.648,1.998C40.09,19.332,41.041,21.268,41.449,23.801z M28.436,36.904
	c0,1.953,0.43,3.459,1.287,4.521s1.838,1.594,2.941,1.594c1.063,0,1.947-0.436,2.656-1.305c0.707-0.869,1.063-2.295,1.063-4.275
	c0-2.039-0.381-3.529-1.145-4.479c-0.764-0.945-1.715-1.42-2.859-1.42c-1.104,0-2.037,0.451-2.799,1.355
	C28.816,33.801,28.436,35.139,28.436,36.904z"/>
</svg>
