<?xml version="1.0" encoding="utf-8"?>
<!-- Generator: Adobe Illustrator 15.0.0, SVG Export Plug-In . SVG Version: 6.00 Build 0)  -->
<!DOCTYPE svg PUBLIC "-//W3C//DTD SVG 1.1//EN" "http://www.w3.org/Graphics/SVG/1.1/DTD/svg11.dtd">
<svg version="1.1" id="Layer_1" xmlns="http://www.w3.org/2000/svg" xmlns:xlink="http://www.w3.org/1999/xlink" x="0px" y="0px"
	 width="64px" height="64px" viewBox="0 0 64 64" enable-background="new 0 0 64 64" xml:space="preserve">
<path fill="#006DAE" d="M62,50c0,6.6-5.4,12-12,12H14C7.4,62,2,56.6,2,50V14C2,7.399,7.4,2,14,2h36c6.6,0,12,5.399,12,12V50z"/>
<path fill="#014D87" d="M56.838,4.162C58.197,6.105,59,8.462,59,11v37c0,6.6-4.398,11-11,11H11c-2.537,0-4.895-0.805-6.838-2.162
	C6.336,59.949,9.938,62,14,62h36c6.602,0,12-5.4,12-12V14C62,9.938,59.951,6.336,56.838,4.162z"/>
<path fill-rule="evenodd" clip-rule="evenodd" fill="#0FB4D4" d="M4.975,12.585c0.338,2.703,4.793-2.587,9.303-7.136
	C17.188,2.524,3.957,4.45,4.975,12.585z"/>
<path fill="#FFFFFF" d="M41.449,23.801l-5.559,0.643c-0.135-1.197-0.49-2.082-1.063-2.65c-0.57-0.57-1.314-0.855-2.225-0.855
	c-1.213,0-2.238,0.57-3.076,1.709c-0.838,1.141-1.365,3.514-1.584,7.121c1.432-1.77,3.209-2.654,5.334-2.654
	c2.396,0,4.449,0.957,6.158,2.867S42,34.355,42,37.375c0,3.207-0.898,5.779-2.697,7.717C37.506,47.029,35.197,48,32.379,48
	c-3.025,0-5.51-1.23-7.457-3.688C22.973,41.855,22,37.826,22,32.225c0-5.744,1.014-9.885,3.043-12.42
	C27.072,17.268,29.709,16,32.949,16c2.275,0,4.158,0.666,5.648,1.998C40.09,19.332,41.039,21.268,41.449,23.801z M28.436,36.904
	c0,1.953,0.428,3.459,1.287,4.521c0.857,1.063,1.838,1.594,2.941,1.594c1.063,0,1.947-0.436,2.656-1.305
	c0.707-0.869,1.063-2.295,1.063-4.275c0-2.039-0.383-3.529-1.145-4.479c-0.764-0.945-1.717-1.42-2.859-1.42
	c-1.105,0-2.037,0.451-2.801,1.355C28.816,33.801,28.436,35.139,28.436,36.904z"/>
</svg>
