<?xml version="1.0" encoding="utf-8"?>
<!-- Generator: Adobe Illustrator 15.0.0, SVG Export Plug-In . SVG Version: 6.00 Build 0)  -->
<!DOCTYPE svg PUBLIC "-//W3C//DTD SVG 1.1//EN" "http://www.w3.org/Graphics/SVG/1.1/DTD/svg11.dtd">
<svg version="1.1" id="Layer_1" xmlns="http://www.w3.org/2000/svg" xmlns:xlink="http://www.w3.org/1999/xlink" x="0px" y="0px"
	 width="64px" height="64px" viewBox="0 0 64 64" enable-background="new 0 0 64 64" xml:space="preserve">
<path fill="#ED7612" d="M2,32C2,15.436,15.439,2,32,2c16.572,0,30,13.436,30,30c0,16.57-13.428,30-30,30C15.439,62,2,48.57,2,32z"/>
<path fill="#E64C18" d="M45.779,5.354C53.172,10.61,58,19.24,58,29c0,16.019-12.98,29-29,29c-9.758,0-18.389-4.829-23.646-12.224
	C10.348,55.412,20.404,62,32,62c16.572,0,30-13.43,30-30C62,20.402,55.414,10.347,45.779,5.354z"/>
<path fill-rule="evenodd" clip-rule="evenodd" fill="#F59E01" d="M10.219,17.397c0.445,3.134,6.309-2.997,12.248-8.267
	C26.299,5.741,8.879,7.973,10.219,17.397z"/>
<path fill="#FFFFFF" d="M27.084,30.547c-1.51-0.654-2.605-1.557-3.289-2.703c-0.686-1.145-1.027-2.402-1.027-3.768
	c0-2.338,0.791-4.268,2.375-5.791S28.979,16,31.895,16c2.891,0,5.137,0.762,6.734,2.285s2.396,3.453,2.396,5.791
	c0,1.451-0.367,2.744-1.102,3.877c-0.732,1.129-1.762,1.996-3.09,2.594c1.688,0.697,2.971,1.717,3.848,3.055
	C41.561,34.941,42,36.484,42,38.236c0,2.893-0.896,5.242-2.686,7.051C37.521,47.096,35.139,48,32.166,48
	c-2.768,0-5.07-0.748-6.91-2.242C23.086,43.99,22,41.57,22,38.492c0-1.693,0.408-3.25,1.223-4.664
	C24.041,32.408,25.326,31.316,27.084,30.547z M27.746,37.918c0,1.652,0.412,2.939,1.236,3.865c0.822,0.924,1.85,1.389,3.08,1.389
	c1.203,0,2.197-0.445,2.986-1.336c0.789-0.889,1.182-2.174,1.182-3.855c0-1.465-0.398-2.646-1.201-3.533
	c-0.803-0.893-1.82-1.338-3.051-1.338c-1.424,0-2.486,0.506-3.184,1.518C28.096,35.639,27.746,36.734,27.746,37.918z M28.285,24.502
	c0,1.197,0.328,2.129,0.986,2.797c0.656,0.67,1.531,1.004,2.623,1.004c1.109,0,1.992-0.338,2.656-1.014s0.996-1.613,0.996-2.809
	c0-1.125-0.328-2.025-0.984-2.703c-0.658-0.676-1.525-1.014-2.605-1.014c-1.119,0-2.012,0.342-2.676,1.025
	S28.285,23.377,28.285,24.502z"/>
</svg>
