<?xml version="1.0" encoding="utf-8"?>
<!-- Generator: Adobe Illustrator 15.0.0, SVG Export Plug-In . SVG Version: 6.00 Build 0)  -->
<!DOCTYPE svg PUBLIC "-//W3C//DTD SVG 1.1//EN" "http://www.w3.org/Graphics/SVG/1.1/DTD/svg11.dtd">
<svg version="1.1" id="Layer_1" xmlns="http://www.w3.org/2000/svg" xmlns:xlink="http://www.w3.org/1999/xlink" x="0px" y="0px"
	 width="64px" height="64px" viewBox="0 0 64 64" enable-background="new 0 0 64 64" xml:space="preserve">
<path fill="#006DAE" d="M62,50c0,6.6-5.4,12-12,12H14C7.4,62,2,56.6,2,50V14C2,7.399,7.4,2,14,2h36c6.6,0,12,5.399,12,12V50z"/>
<path fill="#014D87" d="M56.838,4.162C58.197,6.105,59,8.462,59,11v37c0,6.6-4.398,11-11,11H11c-2.537,0-4.895-0.805-6.838-2.162
	C6.336,59.949,9.938,62,14,62h36c6.602,0,12-5.4,12-12V14C62,9.938,59.951,6.336,56.838,4.162z"/>
<path fill-rule="evenodd" clip-rule="evenodd" fill="#0FB4D4" d="M4.975,12.585c0.338,2.703,4.793-2.587,9.303-7.136
	C17.188,2.524,3.957,4.45,4.975,12.585z"/>
<path fill="#FFFFFF" d="M27.084,30.547c-1.51-0.654-2.605-1.557-3.289-2.703c-0.686-1.145-1.027-2.402-1.027-3.768
	c0-2.338,0.791-4.268,2.375-5.791S28.979,16,31.895,16c2.891,0,5.137,0.762,6.734,2.285s2.396,3.453,2.396,5.791
	c0,1.451-0.367,2.744-1.102,3.877c-0.732,1.129-1.762,1.996-3.09,2.594c1.688,0.697,2.971,1.717,3.848,3.055
	C41.561,34.941,42,36.484,42,38.236c0,2.893-0.896,5.242-2.686,7.051C37.521,47.096,35.139,48,32.166,48
	c-2.768,0-5.07-0.748-6.91-2.242C23.086,43.99,22,41.57,22,38.492c0-1.693,0.408-3.25,1.223-4.664
	C24.041,32.408,25.326,31.316,27.084,30.547z M27.746,37.918c0,1.652,0.412,2.939,1.236,3.865c0.822,0.924,1.85,1.389,3.08,1.389
	c1.203,0,2.197-0.445,2.986-1.336c0.789-0.889,1.182-2.174,1.182-3.855c0-1.465-0.398-2.646-1.201-3.533
	c-0.803-0.893-1.82-1.338-3.051-1.338c-1.424,0-2.486,0.506-3.184,1.518C28.096,35.639,27.746,36.734,27.746,37.918z M28.285,24.502
	c0,1.197,0.328,2.129,0.986,2.797c0.656,0.67,1.531,1.004,2.623,1.004c1.109,0,1.992-0.338,2.656-1.014s0.996-1.613,0.996-2.809
	c0-1.125-0.328-2.025-0.984-2.703c-0.658-0.676-1.525-1.014-2.605-1.014c-1.119,0-2.012,0.342-2.676,1.025
	S28.285,23.377,28.285,24.502z"/>
</svg>
