<?xml version="1.0" encoding="utf-8"?>
<!-- Generator: Adobe Illustrator 15.0.0, SVG Export Plug-In . SVG Version: 6.00 Build 0)  -->
<!DOCTYPE svg PUBLIC "-//W3C//DTD SVG 1.1//EN" "http://www.w3.org/Graphics/SVG/1.1/DTD/svg11.dtd">
<svg version="1.1" id="Layer_1" xmlns="http://www.w3.org/2000/svg" xmlns:xlink="http://www.w3.org/1999/xlink" x="0px" y="0px"
	 width="64px" height="64px" viewBox="0 0 64 64" enable-background="new 0 0 64 64" xml:space="preserve">
<path fill="#ED7612" d="M2,32C2,15.436,15.438,2,32,2c16.572,0,30,13.436,30,30c0,16.57-13.428,30-30,30C15.438,62,2,48.57,2,32z"/>
<path fill="#E64C18" d="M45.779,5.354C53.172,10.61,58,19.24,58,29c0,16.019-12.98,29-29,29c-9.759,0-18.39-4.829-23.646-12.224
	C10.347,55.412,20.404,62,32,62c16.572,0,30-13.43,30-30C62,20.402,55.414,10.347,45.779,5.354z"/>
<path fill-rule="evenodd" clip-rule="evenodd" fill="#F59E01" d="M10.218,17.397c0.446,3.134,6.31-2.997,12.248-8.267
	C26.298,5.741,8.878,7.973,10.218,17.397z"/>
<path fill="#FFFFFF" d="M22.572,40.203l5.555-0.641c0.137,1.182,0.492,2.057,1.064,2.627s1.328,0.854,2.268,0.854
	c1.184,0,2.193-0.568,3.023-1.709c0.83-1.139,1.359-3.502,1.592-7.092c-1.443,1.752-3.246,2.627-5.412,2.627
	c-2.357,0-4.391-0.951-6.098-2.85C22.854,32.117,22,29.643,22,26.596c0-3.178,0.9-5.736,2.707-7.68
	C26.512,16.971,28.809,16,31.602,16c3.035,0,5.527,1.229,7.479,3.684C41.025,22.143,42,26.182,42,31.807
	c0,5.727-1.016,9.855-3.045,12.391C36.926,46.73,34.283,48,31.029,48c-2.342,0-4.236-0.652-5.68-1.955S22.98,42.793,22.572,40.203z
	 M35.566,27.086c0-1.938-0.43-3.439-1.279-4.506c-0.852-1.068-1.836-1.604-2.951-1.604c-1.063,0-1.943,0.439-2.645,1.314
	c-0.703,0.877-1.055,2.311-1.055,4.305c0,2.021,0.383,3.508,1.146,4.453c0.762,0.947,1.715,1.42,2.857,1.42
	c1.105,0,2.033-0.453,2.791-1.365C35.188,30.191,35.566,28.854,35.566,27.086z"/>
</svg>
