<?xml version="1.0" encoding="utf-8"?>
<!-- Generator: Adobe Illustrator 15.0.0, SVG Export Plug-In . SVG Version: 6.00 Build 0)  -->
<!DOCTYPE svg PUBLIC "-//W3C//DTD SVG 1.1//EN" "http://www.w3.org/Graphics/SVG/1.1/DTD/svg11.dtd">
<svg version="1.1" id="Layer_1" xmlns="http://www.w3.org/2000/svg" xmlns:xlink="http://www.w3.org/1999/xlink" x="0px" y="0px"
	 width="64px" height="64px" viewBox="0 0 64 64" enable-background="new 0 0 64 64" xml:space="preserve">
<path fill="#006DAE" d="M62,50c0,6.6-5.4,12-12,12H14C7.4,62,2,56.6,2,50V14C2,7.399,7.4,2,14,2h36c6.6,0,12,5.399,12,12V50z"/>
<path fill="#014D87" d="M56.838,4.162C58.197,6.105,59,8.462,59,11v37c0,6.6-4.398,11-11,11H11c-2.537,0-4.895-0.805-6.838-2.162
	C6.336,59.949,9.938,62,14,62h36c6.602,0,12-5.4,12-12V14C62,9.938,59.951,6.336,56.838,4.162z"/>
<path fill-rule="evenodd" clip-rule="evenodd" fill="#0FB4D4" d="M4.975,12.585c0.338,2.703,4.793-2.587,9.303-7.136
	C17.188,2.524,3.957,4.45,4.975,12.585z"/>
<path fill="#FFFFFF" d="M22.572,40.203l5.555-0.641c0.137,1.182,0.492,2.057,1.064,2.627s1.328,0.854,2.268,0.854
	c1.184,0,2.193-0.568,3.023-1.709c0.83-1.139,1.359-3.502,1.592-7.092c-1.443,1.752-3.246,2.627-5.412,2.627
	c-2.357,0-4.391-0.951-6.098-2.85C22.854,32.117,22,29.643,22,26.596c0-3.178,0.901-5.736,2.707-7.68
	C26.512,16.971,28.809,16,31.602,16c3.035,0,5.527,1.229,7.478,3.684C41.025,22.143,42,26.182,42,31.807
	c0,5.727-1.016,9.855-3.045,12.391C36.926,46.73,34.283,48,31.03,48c-2.342,0-4.236-0.652-5.68-1.955
	C23.906,44.742,22.98,42.793,22.572,40.203z M35.566,27.086c0-1.938-0.43-3.439-1.279-4.506c-0.852-1.068-1.835-1.604-2.951-1.604
	c-1.063,0-1.943,0.439-2.645,1.314c-0.703,0.877-1.055,2.311-1.055,4.305c0,2.021,0.383,3.508,1.146,4.453
	c0.762,0.947,1.715,1.42,2.857,1.42c1.105,0,2.033-0.453,2.791-1.365C35.188,30.191,35.566,28.854,35.566,27.086z"/>
</svg>
