<?xml version="1.0" encoding="utf-8"?>
<!-- Generator: Adobe Illustrator 15.0.0, SVG Export Plug-In . SVG Version: 6.00 Build 0)  -->
<!DOCTYPE svg PUBLIC "-//W3C//DTD SVG 1.1//EN" "http://www.w3.org/Graphics/SVG/1.1/DTD/svg11.dtd">
<svg version="1.1" id="Layer_1" xmlns="http://www.w3.org/2000/svg" xmlns:xlink="http://www.w3.org/1999/xlink" x="0px" y="0px"
	 width="64px" height="64px" viewBox="0 0 64 64" enable-background="new 0 0 64 64" xml:space="preserve">
<path fill="#302C3B" d="M32,2C18.215,2,7,13.216,7,27s11.215,25,25,25s25-11.216,25-25S45.785,2,32,2z M32,47.001
	c-11.029,0-20.002-8.972-20.002-20.001c0-11.027,8.973-19.999,20.002-19.999c11.027,0,19.998,8.972,19.998,19.999
	C51.998,38.029,43.027,47.001,32,47.001z"/>
<path fill="#302C3B" d="M32.26,14H23v26h4.162v-7.676h7.043L38.602,40H43l-5.021-8.985C45.67,27.565,45.67,14,32.26,14z
	 M32.766,28.999h-5.564V17.325h5.564C41.623,17.325,41.623,28.999,32.766,28.999z"/>
</svg>
