<?xml version="1.0" encoding="utf-8"?>
<!-- Generator: Adobe Illustrator 15.0.0, SVG Export Plug-In . SVG Version: 6.00 Build 0)  -->
<!DOCTYPE svg PUBLIC "-//W3C//DTD SVG 1.1//EN" "http://www.w3.org/Graphics/SVG/1.1/DTD/svg11.dtd">
<svg version="1.1" id="Layer_1" xmlns="http://www.w3.org/2000/svg" xmlns:xlink="http://www.w3.org/1999/xlink" x="0px" y="0px"
	 width="64px" height="64px" viewBox="0 0 64 64" enable-background="new 0 0 64 64" xml:space="preserve">
<path fill="#FFFFFF" d="M14,61c-2.756,0-5-2.243-5-5V8c0-2.757,2.244-5,5-5h36c2.758,0,5,2.243,5,5v48c0,2.757-2.242,5-5,5H14z"/>
<path fill="#302C3B" d="M50,4c2.207,0,4,1.795,4,4v48c0,2.206-1.793,4-4,4H14c-2.205,0-4-1.794-4-4V8c0-2.205,1.795-4,4-4H50 M50,2
	H14c-3.299,0-6,2.7-6,6v48c0,3.3,2.701,6,6,6h36c3.301,0,6-2.7,6-6V8C56,4.7,53.301,2,50,2L50,2z"/>
<path fill="#302C3B" d="M18,12.33c0,1.461-1.348,2.67-2.98,2.67C13.348,15,12,13.791,12,12.33v-0.906h1.754v0.906
	c0,0.592,0.578,1.1,1.266,1.111c0.662,0,1.215-0.398,1.229-1.111V6H18V12.33z"/>
<path fill="#302C3B" d="M52,55.33c0,1.461-1.348,2.67-2.98,2.67C47.348,58,46,56.791,46,55.33v-0.906h1.754v0.906
	c0,0.592,0.578,1.1,1.266,1.111c0.662,0,1.215-0.398,1.229-1.111V49H52V55.33z"/>
<path fill="#006DAE" d="M37.873,33.689c-0.049-2.688,8.729-12.409,10.512-4.067c3.77-6.029-5.898-12.337-13.646-4.411L37.873,33.689
	z"/>
<path fill="#E81C27" d="M25.232,33.097c0.5-2.641-6.512-13.715-9.674-5.798c-2.701-6.585,7.891-11.154,14.191-2.023L25.232,33.097z"
	/>
<polygon fill="#4E5E67" points="46.045,46.088 36.598,38.844 27.402,38.844 17.957,46.088 26.559,44.394 26.184,52.326 32,47.426 
	37.818,52.326 37.443,44.394 "/>
<path fill="#302C3B" d="M17.957,46.088l8.602-1.694L32,38.772C32,38.772,25.457,44.146,17.957,46.088L17.957,46.088z"/>
<path fill="#302C3B" d="M32,47.426l5.818,4.9C36.609,44.713,32,38.772,32,38.772s-0.986,6.787-5.816,13.554L32,47.426z"/>
<path fill="#302C3B" d="M46.045,46.088L46.045,46.088C39.574,42.029,32,38.772,32,38.772l5.443,5.621L46.045,46.088z"/>
<path fill="#C21413" d="M25.79,26.16c-4.297-4.076-10.305-2.693-10.231,1.139c2.719-3.24,8.278,0.499,7.98,2.806
	c-1.281,9.911,3,12.313,5.709,13.04C29.248,43.145,29.445,29.628,25.79,26.16z"/>
<path fill="#014D87" d="M37.481,27.627c-3.599,4.193-2.728,15.517-2.728,15.517c2.707-0.729,6.285-3.737,5.19-11.614
	c-0.48-3.457,6.249-5.662,8.44-1.907C49.155,25.584,41.948,22.422,37.481,27.627z"/>
<path fill="#F59E01" d="M34.242,31.322c0,0,0.051-20.457,9.625-14.864c-2.479-8.954-21.099-3.772-18.959,19.651L34.242,31.322z"/>
<path fill="#ED7612" d="M39.022,36.356c0.344-7.194-1.705-8.565-1.705-14.015c0-4.532,2.237-7.498,6.55-5.884
	c-3.494-4.688-13.641,1.606-11.875,14.053L39.022,36.356z"/>
<path fill="#FDCA47" d="M31.992,30.511c-4.559-4.992-7.59,2.484-7.014,7.12c0.576,4.629,4.975,6.225,7.014,6.225
	c2.037,0,6.43-1.596,7.006-6.225C39.574,32.995,36.549,25.519,31.992,30.511z"/>
<path fill="#45332C" d="M28.861,39.406c1.025,2.713,5.254,2.736,6.281,0H28.861z"/>
<path fill="#E6A400" d="M30.504,36.991c0.488,1.323,2.506,1.337,2.996,0H30.504z"/>
<path fill="#F5F5F5" d="M37.922,34.043c-0.771,2.088-3.906,1.781-4.48,0.322C33.877,32.019,37.496,31.816,37.922,34.043z"/>
<path fill="#45332C" d="M34.242,33.82c0,1.842,2.559,1.842,2.559,0C36.801,32.111,34.242,32.111,34.242,33.82z"/>
<path fill="#45332C" d="M37.922,34.028c0-2.241-4.48-2.241-4.48,0.355C34.08,32.254,37.279,32.254,37.922,34.028z"/>
<path fill="#F5F5F5" d="M26.084,34.043c0.77,2.088,3.904,1.781,4.479,0.322C30.127,32.019,26.508,31.816,26.084,34.043z"/>
<path fill="#45332C" d="M29.762,33.82c0,1.842-2.559,1.842-2.559,0C27.203,32.111,29.762,32.111,29.762,33.82z"/>
<path fill="#45332C" d="M26.084,34.028c0-2.241,4.479-2.241,4.479,0.354C29.924,32.254,26.723,32.254,26.084,34.028z"/>
<ellipse fill="#F59E01" cx="43.868" cy="16.35" rx="2.558" ry="2.541"/>
<path fill="#ED7612" d="M45.467,14.366c0.348,0.435,0.559,0.984,0.559,1.584c0,1.403-1.146,2.542-2.557,2.542
	c-0.605,0-1.16-0.211-1.598-0.559c0.467,0.582,1.188,0.957,1.996,0.957c1.414,0,2.559-1.137,2.559-2.541
	C46.426,15.547,46.051,14.832,45.467,14.366z"/>
<path fill-rule="evenodd" clip-rule="evenodd" fill="#FDCA47" d="M41.971,15.249c0.047,0.327,0.662-0.313,1.285-0.864
	C43.658,14.03,41.828,14.264,41.971,15.249z"/>
<ellipse fill="#006DAE" cx="48.443" cy="28.534" rx="2.557" ry="2.541"/>
<path fill="#014D87" d="M50.039,26.551c0.35,0.435,0.561,0.984,0.561,1.585c0,1.402-1.145,2.541-2.557,2.541
	c-0.605,0-1.16-0.21-1.6-0.559c0.469,0.583,1.189,0.957,2,0.957c1.412,0,2.557-1.138,2.557-2.541
	C51,27.731,50.623,27.017,50.039,26.551z"/>
<path fill-rule="evenodd" clip-rule="evenodd" fill="#0FB4D4" d="M46.545,27.434c0.047,0.328,0.662-0.313,1.285-0.863
	C48.232,26.215,46.402,26.448,46.545,27.434z"/>
<ellipse fill="#E81C27" cx="15.558" cy="26.621" rx="2.558" ry="2.541"/>
<path fill="#C21413" d="M17.156,24.639c0.348,0.434,0.559,0.984,0.559,1.584c0,1.402-1.145,2.541-2.557,2.541
	c-0.605,0-1.162-0.21-1.598-0.559c0.467,0.583,1.188,0.957,1.998,0.957c1.412,0,2.557-1.137,2.557-2.541
	C18.115,25.818,17.74,25.104,17.156,24.639z"/>
<path fill-rule="evenodd" clip-rule="evenodd" fill="#F46C60" d="M13.66,25.521c0.047,0.328,0.662-0.313,1.285-0.863
	C15.348,24.303,13.52,24.536,13.66,25.521z"/>
</svg>
