<?xml version="1.0" encoding="utf-8"?>
<!-- Generator: Adobe Illustrator 15.0.0, SVG Export Plug-In . SVG Version: 6.00 Build 0)  -->
<!DOCTYPE svg PUBLIC "-//W3C//DTD SVG 1.1//EN" "http://www.w3.org/Graphics/SVG/1.1/DTD/svg11.dtd">
<svg version="1.1" id="Layer_1" xmlns="http://www.w3.org/2000/svg" xmlns:xlink="http://www.w3.org/1999/xlink" x="0px" y="0px"
	 width="64px" height="64px" viewBox="0 0 64 64" enable-background="new 0 0 64 64" xml:space="preserve">
<path fill="#E81C27" d="M62,50c0,6.601-5.4,12-12,12H14C7.4,62,2,56.601,2,50V14C2,7.399,7.4,2,14,2h36c6.6,0,12,5.399,12,12V50z"/>
<path fill="#C21413" d="M56.838,4.162C58.195,6.105,59,8.462,59,11v37c0,6.601-4.4,11-11,11H11c-2.537,0-4.895-0.804-6.838-2.162
	C6.336,59.95,9.938,62,14,62h36c6.6,0,12-5.399,12-12V14C62,9.938,59.949,6.336,56.838,4.162z"/>
<path fill-rule="evenodd" clip-rule="evenodd" fill="#F46C60" d="M4.975,12.585c0.338,2.703,4.793-2.587,9.303-7.136
	C17.188,2.524,3.957,4.45,4.975,12.585z"/>
<path fill="#FFFFFF" d="M32,48c-8.822,0-16-7.178-16-16c0-8.82,7.178-16,16-16s16,7.18,16,16C48,40.822,40.822,48,32,48z M32,21.053
	c-6.037,0-10.947,4.91-10.947,10.947c0,6.035,4.91,10.947,10.947,10.947c6.035,0,10.947-4.912,10.947-10.947
	C42.947,25.963,38.035,21.053,32,21.053z"/>
</svg>
