<?xml version="1.0" encoding="utf-8"?>
<!-- Generator: Adobe Illustrator 15.0.0, SVG Export Plug-In . SVG Version: 6.00 Build 0)  -->
<!DOCTYPE svg PUBLIC "-//W3C//DTD SVG 1.1//EN" "http://www.w3.org/Graphics/SVG/1.1/DTD/svg11.dtd">
<svg version="1.1" id="Layer_1" xmlns="http://www.w3.org/2000/svg" xmlns:xlink="http://www.w3.org/1999/xlink" x="0px" y="0px"
	 width="64px" height="64px" viewBox="0 0 64 64" enable-background="new 0 0 64 64" xml:space="preserve">
<path fill="#E81C27" d="M62,50c0,6.601-5.4,12-12,12H14C7.4,62,2,56.601,2,50V14C2,7.399,7.4,2,14,2h36c6.6,0,12,5.399,12,12V50z"/>
<path fill="#C21413" d="M56.838,4.162C58.195,6.105,59,8.462,59,11v37c0,6.601-4.4,11-11,11H11c-2.537,0-4.895-0.804-6.838-2.162
	C6.336,59.95,9.938,62,14,62h36c6.6,0,12-5.399,12-12V14C62,9.938,59.949,6.336,56.838,4.162z"/>
<path fill-rule="evenodd" clip-rule="evenodd" fill="#F46C60" d="M4.975,12.585c0.338,2.703,4.793-2.587,9.303-7.136
	C17.188,2.524,3.957,4.45,4.975,12.585z"/>
<g>
	<g>
		<path fill="#FFFFFF" d="M29.139,45H33l-8.807-26h-4.389L11,45h3.861l3.082-9.1h8.111L29.139,45z M19.266,32L22,23.926L24.736,32
			H19.266z"/>
	</g>
</g>
<g>
	<path fill="#FFFFFF" d="M53,26.535C53,22.391,50.768,19,47,19H37v26l9.168-0.018c3.768,0,6.832-3.373,6.832-7.516
		c0-2.154-0.828-4.096-2.15-5.467C52.172,30.629,53,28.688,53,26.535z M46.168,40.883h-5.623v-6.832h5.623
		c1.713,0,3.105,1.531,3.105,3.416C49.273,39.35,47.881,40.883,46.168,40.883z M46.168,29.951h-5.623v-6.834h5.623
		c1.713,0,3.105,1.535,3.105,3.418S47.881,29.951,46.168,29.951z"/>
</g>
</svg>
