<?xml version="1.0" encoding="utf-8"?>
<!-- Generator: Adobe Illustrator 15.0.0, SVG Export Plug-In . SVG Version: 6.00 Build 0)  -->
<!DOCTYPE svg PUBLIC "-//W3C//DTD SVG 1.1//EN" "http://www.w3.org/Graphics/SVG/1.1/DTD/svg11.dtd">
<svg version="1.1" id="Layer_1" xmlns="http://www.w3.org/2000/svg" xmlns:xlink="http://www.w3.org/1999/xlink" x="0px" y="0px"
	 width="64px" height="64px" viewBox="0 0 64 64" enable-background="new 0 0 64 64" xml:space="preserve">
<path fill="#006DAE" d="M62,50c0,6.6-5.4,12-12,12H14C7.4,62,2,56.6,2,50V14C2,7.399,7.4,2,14,2h36c6.6,0,12,5.399,12,12V50z"/>
<path fill="#014D87" d="M56.838,4.162C58.197,6.105,59,8.462,59,11v37c0,6.6-4.398,11-11,11H11c-2.537,0-4.894-0.805-6.838-2.162
	C6.336,59.949,9.938,62,14,62h36c6.602,0,12-5.4,12-12V14C62,9.938,59.951,6.336,56.838,4.162z"/>
<path fill-rule="evenodd" clip-rule="evenodd" fill="#0FB4D4" d="M4.975,12.585c0.339,2.703,4.793-2.587,9.303-7.136
	C17.188,2.524,3.957,4.45,4.975,12.585z"/>
<g>
	<path fill="#FFFFFF" d="M12,32.119c0-1.971,0.315-3.625,0.942-4.961c0.47-0.984,1.108-1.869,1.921-2.652
		c0.811-0.783,1.699-1.363,2.664-1.74C18.813,22.256,20.294,22,21.972,22c3.038,0,5.47,0.883,7.294,2.65
		C31.089,26.42,32,28.877,32,32.025c0,3.123-0.904,5.566-2.715,7.328C27.477,41.119,25.059,42,22.028,42
		c-3.066,0-5.503-0.877-7.313-2.633C12.906,37.613,12,35.197,12,32.119z M16.289,31.986c0,2.189,0.541,3.85,1.618,4.98
		c1.079,1.131,2.447,1.695,4.106,1.695c1.66,0,3.022-0.561,4.088-1.682c1.063-1.123,1.595-2.805,1.595-5.047
		c0-2.217-0.518-3.871-1.554-4.961s-2.412-1.635-4.129-1.635c-1.715,0-3.098,0.551-4.148,1.654
		C16.816,28.098,16.289,29.762,16.289,31.986z"/>
</g>
<g>
	<path fill="#FFFFFF" d="M34,42V22h4.03v8.881L46.172,22h5.42l-7.517,7.789L52,42h-5.215l-5.486-9.387l-3.269,3.342V42H34z"/>
</g>
</svg>
