<?xml version="1.0" encoding="utf-8"?>
<!-- Generator: Adobe Illustrator 15.0.0, SVG Export Plug-In . SVG Version: 6.00 Build 0)  -->
<!DOCTYPE svg PUBLIC "-//W3C//DTD SVG 1.1//EN" "http://www.w3.org/Graphics/SVG/1.1/DTD/svg11.dtd">
<svg version="1.1" id="Layer_1" xmlns="http://www.w3.org/2000/svg" xmlns:xlink="http://www.w3.org/1999/xlink" x="0px" y="0px"
	 width="64px" height="64px" viewBox="0 0 64 64" enable-background="new 0 0 64 64" xml:space="preserve">
<path fill="#006DAE" d="M62,50c0,6.6-5.4,12-12,12H14C7.4,62,2,56.6,2,50V14C2,7.399,7.4,2,14,2h36c6.6,0,12,5.399,12,12V50z"/>
<path fill="#014D87" d="M56.838,4.162C58.197,6.105,59,8.462,59,11v37c0,6.6-4.398,11-11,11H11c-2.537,0-4.894-0.805-6.838-2.162
	C6.336,59.949,9.938,62,14,62h36c6.602,0,12-5.4,12-12V14C62,9.938,59.951,6.336,56.838,4.162z"/>
<path fill-rule="evenodd" clip-rule="evenodd" fill="#0FB4D4" d="M4.975,12.585c0.339,2.703,4.793-2.587,9.303-7.136
	C17.188,2.524,3.957,4.45,4.975,12.585z"/>
<g>
	<g>
		<path fill="#FFFFFF" d="M44,42c-5.512,0-10-4.486-10-10.002C34,26.484,38.488,22,44,22c2.566,0,5.008,0.969,6.871,2.732
			l-2.291,2.42c-1.242-1.174-2.869-1.82-4.58-1.82c-3.676,0-6.666,2.99-6.666,6.666c0,3.678,2.99,6.668,6.666,6.668
			c3.102,0,5.713-2.127,6.455-4.998H44v-3.336h10v1.666C54,37.514,49.516,42,44,42z"/>
	</g>
</g>
<g>
	<polygon fill="#FFFFFF" points="26.667,22 26.667,36.309 12.356,22 10,22 10,42 13.334,42 13.334,27.688 27.644,42 30,42 30,33 
		30,22 	"/>
</g>
</svg>
