<?xml version="1.0" encoding="utf-8"?>
<!-- Generator: Adobe Illustrator 15.0.0, SVG Export Plug-In . SVG Version: 6.00 Build 0)  -->
<!DOCTYPE svg PUBLIC "-//W3C//DTD SVG 1.1//EN" "http://www.w3.org/Graphics/SVG/1.1/DTD/svg11.dtd">
<svg version="1.1" id="Layer_1" xmlns="http://www.w3.org/2000/svg" xmlns:xlink="http://www.w3.org/1999/xlink" x="0px" y="0px"
	 width="64px" height="64px" viewBox="0 0 64 64" enable-background="new 0 0 64 64" xml:space="preserve">
<path fill="#E81C27" d="M62,50c0,6.601-5.4,12-12,12H14C7.4,62,2,56.601,2,50V14C2,7.4,7.4,2,14,2h36c6.6,0,12,5.4,12,12V50z"/>
<path fill="#C21413" d="M56.838,4.162C58.195,6.106,59,8.462,59,11v37c0,6.601-4.4,11-11,11H11c-2.537,0-4.895-0.804-6.838-2.162
	C6.336,59.95,9.938,62,14,62h36c6.6,0,12-5.399,12-12V14C62,9.938,59.949,6.336,56.838,4.162z"/>
<path fill-rule="evenodd" clip-rule="evenodd" fill="#F46C60" d="M4.975,12.585c0.338,2.704,4.793-2.587,9.303-7.135
	C17.188,2.525,3.957,4.45,4.975,12.585z"/>
<g>
	<path fill="#FFFFFF" d="M23,43.086c-2.375,0-4.309-2.047-4.309-4.564V25.479c0-2.518,1.934-4.566,4.309-4.566
		s4.309,2.049,4.309,4.566H31c0-1.145-0.211-2.256-0.629-3.303c-0.404-1.008-0.979-1.916-1.715-2.693
		c-0.734-0.777-1.588-1.389-2.541-1.816C25.127,17.225,24.08,17,23,17s-2.129,0.225-3.115,0.666
		c-0.953,0.428-1.809,1.039-2.543,1.816c-0.732,0.777-1.311,1.686-1.713,2.693C15.211,23.223,15,24.334,15,25.479v13.043
		c0,1.143,0.211,2.254,0.629,3.299c0.402,1.012,0.98,1.918,1.713,2.695c0.734,0.777,1.59,1.389,2.543,1.816
		C20.871,46.775,21.92,47,23,47s2.127-0.225,3.115-0.668c0.953-0.428,1.807-1.039,2.541-1.816c0.736-0.777,1.311-1.684,1.715-2.695
		C30.789,40.775,31,39.664,31,38.521h-3.691C27.309,41.039,25.375,43.086,23,43.086z"/>
</g>
<g>
	<polygon fill="#FFFFFF" points="49,43.086 40.693,43.086 40.693,17 37,17 37,47 49,47 	"/>
</g>
</svg>
