<?xml version="1.0" encoding="utf-8"?>
<!-- Generator: Adobe Illustrator 15.0.0, SVG Export Plug-In . SVG Version: 6.00 Build 0)  -->
<!DOCTYPE svg PUBLIC "-//W3C//DTD SVG 1.1//EN" "http://www.w3.org/Graphics/SVG/1.1/DTD/svg11.dtd">
<svg version="1.1" id="Layer_1" xmlns="http://www.w3.org/2000/svg" xmlns:xlink="http://www.w3.org/1999/xlink" x="0px" y="0px"
	 width="64px" height="64px" viewBox="0 0 64 64" enable-background="new 0 0 64 64" xml:space="preserve">
<path fill="#ED7612" d="M62,50c0,6.6-5.4,12-12,12H14C7.4,62,2,56.6,2,50V14C2,7.399,7.4,2,14,2h36c6.6,0,12,5.399,12,12V50z"/>
<path fill="#E64C18" d="M56.838,4.162C58.197,6.105,59,8.462,59,11v37c0,6.6-4.398,11-11,11H11c-2.537,0-4.894-0.805-6.838-2.162
	C6.336,59.949,9.938,62,14,62h36c6.602,0,12-5.4,12-12V14C62,9.938,59.951,6.336,56.838,4.162z"/>
<path fill-rule="evenodd" clip-rule="evenodd" fill="#F59E01" d="M4.975,12.585c0.339,2.703,4.793-2.587,9.303-7.136
	C17.188,2.524,3.957,4.45,4.975,12.585z"/>
<path fill="#FFFFFF" d="M26.809,20.836h4.875l-7.656,22.406h-4.434L12,20.836h5.013l4.875,17.01L26.809,20.836z"/>
<path fill="#FFFFFF" d="M37.863,36.326c0.144,1.023,0.43,1.787,0.854,2.295c0.777,0.924,2.111,1.383,3.999,1.383
	c1.129,0,2.047-0.121,2.754-0.365c1.337-0.465,2.006-1.332,2.006-2.6c0-0.738-0.328-1.311-0.983-1.717
	c-0.655-0.395-1.695-0.746-3.118-1.049l-2.431-0.531c-2.39-0.527-4.03-1.1-4.926-1.719c-1.513-1.032-2.269-2.65-2.269-4.849
	c0-2.006,0.738-3.672,2.22-5c1.48-1.328,3.655-1.992,6.524-1.992c2.396,0,4.439,0.626,6.13,1.878
	c1.691,1.251,2.578,3.068,2.661,5.449h-4.51c-0.083-1.348-0.688-2.306-1.813-2.873c-0.75-0.374-1.682-0.563-2.795-0.563
	c-1.239,0-2.229,0.244-2.969,0.73c-0.739,0.486-1.108,1.167-1.108,2.037c0,0.801,0.364,1.398,1.094,1.795
	c0.469,0.263,1.463,0.571,2.983,0.926l3.941,0.928c1.726,0.406,3.022,0.947,3.884,1.626C51.33,33.17,52,34.693,52,36.691
	c0,2.047-0.792,3.746-2.379,5.1c-1.586,1.352-3.827,2.027-6.723,2.027c-2.956,0-5.28-0.666-6.975-1.996
	c-1.693-1.334-2.541-3.166-2.541-5.496H37.863z"/>
</svg>
