<?xml version="1.0" encoding="utf-8"?>
<!-- Generator: Adobe Illustrator 15.0.0, SVG Export Plug-In . SVG Version: 6.00 Build 0)  -->
<!DOCTYPE svg PUBLIC "-//W3C//DTD SVG 1.1//EN" "http://www.w3.org/Graphics/SVG/1.1/DTD/svg11.dtd">
<svg version="1.1" id="Layer_1" xmlns="http://www.w3.org/2000/svg" xmlns:xlink="http://www.w3.org/1999/xlink" x="0px" y="0px"
	 width="64px" height="64px" viewBox="0 0 64 64" enable-background="new 0 0 64 64" xml:space="preserve">
<path fill="#006DAE" d="M62,50c0,6.6-5.4,12-12,12H14C7.4,62,2,56.6,2,50V14C2,7.399,7.4,2,14,2h36c6.6,0,12,5.399,12,12V50z"/>
<path fill="#014D87" d="M56.838,4.162C58.197,6.105,59,8.462,59,11v37c0,6.6-4.398,11-11,11H11c-2.537,0-4.894-0.805-6.838-2.162
	C6.336,59.949,9.938,62,14,62h36c6.602,0,12-5.4,12-12V14C62,9.938,59.951,6.336,56.838,4.162z"/>
<path fill-rule="evenodd" clip-rule="evenodd" fill="#0FB4D4" d="M4.975,12.585c0.339,2.703,4.793-2.587,9.303-7.136
	C17.188,2.524,3.957,4.45,4.975,12.585z"/>
<g>
	<g>
		<path fill="#FFFFFF" d="M12,22h4.051v10.65c0,1.689,0.051,2.785,0.151,3.285c0.173,0.805,0.587,1.451,1.238,1.938
			c0.652,0.488,1.544,0.73,2.676,0.73c1.15,0,2.017-0.227,2.601-0.689c0.584-0.461,0.936-1.025,1.055-1.695
			c0.118-0.672,0.178-1.785,0.178-3.34V22H28v10.328c0,2.359-0.109,4.027-0.328,5.002c-0.219,0.977-0.623,1.799-1.211,2.469
			c-0.589,0.672-1.376,1.205-2.361,1.602c-0.985,0.398-2.272,0.6-3.859,0.6c-1.916,0-3.37-0.219-4.359-0.65
			c-0.991-0.436-1.773-1-2.348-1.691c-0.575-0.693-0.954-1.42-1.137-2.18C12.132,36.352,12,34.688,12,32.488V22z"/>
	</g>
	<g>
		<path fill="#FFFFFF" d="M31,42V22h5.922c2.244,0,3.707,0.1,4.389,0.299c1.047,0.301,1.924,0.953,2.629,1.959
			C44.646,25.262,45,26.561,45,28.152c0,1.229-0.203,2.26-0.611,3.096c-0.406,0.838-0.924,1.494-1.553,1.973
			c-0.627,0.477-1.264,0.793-1.912,0.947c-0.881,0.191-2.158,0.287-3.828,0.287h-2.404V42H31z M34.691,25.381v5.678h2.018
			c1.455,0,2.428-0.105,2.918-0.313c0.49-0.211,0.875-0.539,1.152-0.984c0.279-0.445,0.418-0.963,0.418-1.557
			c0-0.727-0.193-1.326-0.586-1.799c-0.391-0.473-0.885-0.77-1.482-0.889c-0.441-0.09-1.326-0.137-2.656-0.137H34.691z"/>
	</g>
	<g>
		<path fill="#FFFFFF" d="M48,42v-4h4v4H48z"/>
	</g>
</g>
<g>
	<rect x="48" y="22" fill="#FFFFFF" width="4" height="12"/>
</g>
</svg>
