<?xml version="1.0" encoding="utf-8"?>
<!-- Generator: Adobe Illustrator 15.0.0, SVG Export Plug-In . SVG Version: 6.00 Build 0)  -->
<!DOCTYPE svg PUBLIC "-//W3C//DTD SVG 1.1//EN" "http://www.w3.org/Graphics/SVG/1.1/DTD/svg11.dtd">
<svg version="1.1" id="Layer_1" xmlns="http://www.w3.org/2000/svg" xmlns:xlink="http://www.w3.org/1999/xlink" x="0px" y="0px"
	 width="64px" height="64px" viewBox="0 0 64 64" enable-background="new 0 0 64 64" xml:space="preserve">
<path fill="#006DAE" d="M62,50c0,6.6-5.4,12-12,12H14C7.4,62,2,56.6,2,50V14C2,7.399,7.4,2,14,2h36c6.6,0,12,5.399,12,12V50z"/>
<path fill="#014D87" d="M56.838,4.162C58.197,6.105,59,8.462,59,11v37c0,6.6-4.398,11-11,11H11c-2.537,0-4.894-0.805-6.838-2.162
	C6.336,59.949,9.938,62,14,62h36c6.602,0,12-5.4,12-12V14C62,9.938,59.951,6.336,56.838,4.162z"/>
<path fill-rule="evenodd" clip-rule="evenodd" fill="#0FB4D4" d="M4.975,12.585c0.339,2.703,4.793-2.587,9.303-7.136
	C17.188,2.524,3.957,4.45,4.975,12.585z"/>
<path fill="#FFFFFF" d="M14.824,28.376c-0.024-1.224-1.074-2.255-2.324-2.255c-1.25,0.023-2.3,1.056-2.3,2.255v7.319
	c0.025,1.416,1.075,2.209,2.3,2.209c1.274-0.024,2.324-1.032,2.324-2.209v-1.799h3.249v1.799C18.073,38.6,15.574,41,12.5,41
	c-3.024,0-5.523-2.4-5.523-5.305v-7.319C6.977,25.4,9.476,23,12.5,23c3.074,0,5.573,2.4,5.573,5.376v1.753h-3.249V28.376z"/>
<path fill="#FFFFFF" d="M31.423,28.376v7.319C31.423,38.6,28.924,41,25.85,41c-3.024,0-5.523-2.4-5.523-5.305v-7.319
	C20.326,25.4,22.825,23,25.85,23C28.924,23,31.423,25.4,31.423,28.376z M28.199,35.695v-7.319c-0.025-1.224-1.1-2.255-2.35-2.255
	c-1.25,0.023-2.3,1.056-2.3,2.255v7.319c0.025,1.416,1.075,2.209,2.3,2.209C27.124,37.88,28.199,36.872,28.199,35.695z"/>
<path fill="#FFFFFF" d="M44.773,28.376v7.319C44.773,38.6,42.274,41,39.2,41c-3.024,0-5.523-2.4-5.523-5.305v-7.319
	C33.677,25.4,36.176,23,39.2,23C42.274,23,44.773,25.4,44.773,28.376z M41.55,35.695v-7.319c-0.025-1.224-1.1-2.255-2.35-2.255
	c-1.25,0.023-2.3,1.056-2.3,2.255v7.319c0.025,1.416,1.075,2.209,2.3,2.209C40.475,37.88,41.55,36.872,41.55,35.695z"/>
<path fill="#FFFFFF" d="M57.023,40.903h-9.497V23.12h3.249v14.664h6.248V40.903z"/>
</svg>
