<?xml version="1.0" encoding="utf-8"?>
<!-- Generator: Adobe Illustrator 15.0.0, SVG Export Plug-In . SVG Version: 6.00 Build 0)  -->
<!DOCTYPE svg PUBLIC "-//W3C//DTD SVG 1.1//EN" "http://www.w3.org/Graphics/SVG/1.1/DTD/svg11.dtd">
<svg version="1.1" id="Layer_1" xmlns="http://www.w3.org/2000/svg" xmlns:xlink="http://www.w3.org/1999/xlink" x="0px" y="0px"
	 width="64px" height="64px" viewBox="0 0 64 64" enable-background="new 0 0 64 64" xml:space="preserve">
<path fill="#006DAE" d="M62,50c0,6.6-5.4,12-12,12H14C7.4,62,2,56.6,2,50V14C2,7.399,7.4,2,14,2h36c6.6,0,12,5.399,12,12V50z"/>
<path fill="#014D87" d="M56.838,4.162C58.197,6.105,59,8.462,59,11v37c0,6.6-4.398,11-11,11H11c-2.537,0-4.895-0.805-6.838-2.162
	C6.336,59.949,9.938,62,14,62h36c6.602,0,12-5.4,12-12V14C62,9.938,59.951,6.336,56.838,4.162z"/>
<path fill-rule="evenodd" clip-rule="evenodd" fill="#0FB4D4" d="M4.975,12.585c0.338,2.703,4.793-2.587,9.303-7.136
	C17.188,2.524,3.957,4.45,4.975,12.585z"/>
<path fill="#FFFFFF" d="M11.2,30.452h6.249v3.097H11.2v7.343H7.977V23.108h9.473v3.12H11.2V30.452z"/>
<path fill="#FFFFFF" d="M23.575,34.437v6.455h-3.249V23.108h5.523c3.099,0,5.599,2.4,5.599,5.352v0.672
	c0,2.064-1.25,3.864-3.074,4.729l3.199,7.031h-3.725l-2.949-6.455H23.575z M23.575,31.34h2.274c1.274-0.023,2.35-1.031,2.35-2.208
	V28.46c-0.025-1.248-1.075-2.231-2.35-2.231h-2.274V31.34z"/>
<path fill="#FFFFFF" d="M37.425,30.452h6.249v3.097h-6.249v4.224h6.249v3.119h-9.473V23.108h9.473v3.12h-6.249V30.452z"/>
<path fill="#FFFFFF" d="M49.774,30.452h6.249v3.097h-6.249v4.224h6.249v3.119h-9.473V23.108h9.473v3.12h-6.249V30.452z"/>
</svg>
