<?xml version="1.0" encoding="utf-8"?>
<!-- Generator: Adobe Illustrator 15.0.0, SVG Export Plug-In . SVG Version: 6.00 Build 0)  -->
<!DOCTYPE svg PUBLIC "-//W3C//DTD SVG 1.1//EN" "http://www.w3.org/Graphics/SVG/1.1/DTD/svg11.dtd">
<svg version="1.1" id="Layer_1" xmlns="http://www.w3.org/2000/svg" xmlns:xlink="http://www.w3.org/1999/xlink" x="0px" y="0px"
	 width="64px" height="64px" viewBox="0 0 64 64" enable-background="new 0 0 64 64" xml:space="preserve">
<path fill="#AA5BEF" d="M62,50c0,6.601-5.4,12-12,12H14C7.4,62,2,56.601,2,50V14C2,7.399,7.4,2,14,2h36c6.6,0,12,5.399,12,12V50z"/>
<path fill="#8D40CF" d="M56.838,4.162C58.197,6.105,59,8.462,59,11v37c0,6.601-4.398,11-10.999,11H11
	c-2.537,0-4.895-0.804-6.838-2.162C6.336,59.95,9.938,62,14,62h36c6.602,0,12-5.399,12-12V14C62,9.938,59.951,6.336,56.838,4.162z"
	/>
<path fill-rule="evenodd" clip-rule="evenodd" fill="#C28FEF" d="M4.975,12.585c0.338,2.703,4.793-2.587,9.303-7.136
	C17.188,2.524,3.957,4.45,4.975,12.585z"/>
<g>
	<g>
		<path fill="#FFFFFF" d="M48.049,20.21c-0.535-1.208-1.297-2.297-2.268-3.233c-0.973-0.935-2.105-1.666-3.365-2.18
			C41.107,14.269,39.721,14,38.295,14h-10.59v36h10.59c1.426,0,2.813-0.269,4.121-0.801c1.26-0.513,2.393-1.247,3.365-2.18
			c0.971-0.935,1.732-2.022,2.268-3.234c0.551-1.255,0.834-2.587,0.834-3.958V24.174C48.883,22.801,48.6,21.467,48.049,20.21z
			 M38.295,45.306h-5.701V18.694h5.701c3.143,0,5.701,2.459,5.701,5.48v15.653C43.996,42.847,41.438,45.306,38.295,45.306z"/>
	</g>
</g>
<g>
	<rect x="17.117" y="14" fill="#FFFFFF" width="4.236" height="36"/>
</g>
</svg>
