<?xml version="1.0" encoding="utf-8"?>
<!-- Generator: Adobe Illustrator 15.0.0, SVG Export Plug-In . SVG Version: 6.00 Build 0)  -->
<!DOCTYPE svg PUBLIC "-//W3C//DTD SVG 1.1//EN" "http://www.w3.org/Graphics/SVG/1.1/DTD/svg11.dtd">
<svg version="1.1" id="Layer_1" xmlns="http://www.w3.org/2000/svg" xmlns:xlink="http://www.w3.org/1999/xlink" x="0px" y="0px"
	 width="64px" height="64px" viewBox="0 0 64 64" enable-background="new 0 0 64 64" xml:space="preserve">
<path fill="#E81C27" d="M62,50c0,6.601-5.4,12-12,12H14C7.4,62,2,56.601,2,50V14C2,7.399,7.4,2,14,2h36c6.6,0,12,5.399,12,12V50z"/>
<path fill="#C21413" d="M56.838,4.162C58.195,6.105,59,8.462,59,11v37c0,6.601-4.4,11-11,11H11c-2.537,0-4.895-0.804-6.838-2.162
	C6.336,59.95,9.938,62,14,62h36c6.6,0,12-5.399,12-12V14C62,9.938,59.949,6.336,56.838,4.162z"/>
<path fill-rule="evenodd" clip-rule="evenodd" fill="#F46C60" d="M4.975,12.585c0.338,2.703,4.793-2.587,9.303-7.136
	C17.188,2.524,3.957,4.45,4.975,12.585z"/>
<g>
	<path fill="#FFFFFF" d="M22.439,34.615c-0.352-0.795-0.852-1.516-1.484-2.141c-0.635-0.627-1.365-1.121-2.176-1.473
		c-0.852-0.369-1.748-0.557-2.664-0.557c-1.91,0-3.934-1.891-3.934-3.674c0-2.012,1.664-3.646,3.711-3.646
		c2.045,0,3.928,1.611,3.928,3.621H23c0-0.914-0.182-1.801-0.543-2.635c-0.348-0.807-0.844-1.531-1.477-2.152
		c-0.631-0.621-1.367-1.109-2.189-1.451C17.941,20.154,16.822,20,15.893,20s-1.834,0.178-2.682,0.533
		c-0.822,0.34-1.561,0.828-2.191,1.447c-0.633,0.623-1.129,1.348-1.477,2.154C9.182,24.971,9,25.857,9,26.771
		c0,1.684,0.805,3.41,2.201,4.736c1.383,1.311,3.174,2.063,4.914,2.063c1.938,0,3.705,1.744,3.705,3.658
		c0,2.01-1.664,3.646-3.711,3.646s-3.928-1.658-3.928-3.668H9c0,0.912,0.182,1.799,0.543,2.635c0.348,0.807,0.844,1.531,1.477,2.152
		c0.631,0.619,1.369,1.107,2.191,1.449C14.059,43.799,15.18,44,16.109,44s1.832-0.18,2.682-0.533
		c0.822-0.34,1.559-0.828,2.189-1.451c0.633-0.621,1.129-1.344,1.477-2.15C22.818,39.029,23,38.143,23,37.229
		C23,36.336,22.813,35.457,22.439,34.615z"/>
</g>
<g>
	<g>
		<path fill="#FFFFFF" d="M38.449,24.143c-0.354-0.809-0.857-1.533-1.5-2.156c-0.641-0.623-1.391-1.111-2.225-1.453
			C33.861,20.18,32.945,20,32,20c-0.943,0-1.861,0.18-2.725,0.533c-0.834,0.342-1.582,0.83-2.225,1.453s-1.148,1.348-1.5,2.156
			C25.186,24.98,25,25.869,25,26.783v10.434c0,0.916,0.186,1.805,0.551,2.641c0.352,0.809,0.857,1.533,1.5,2.156
			c0.643,0.621,1.391,1.111,2.225,1.453C30.139,43.82,31.057,44,32,44c0.945,0,1.861-0.18,2.725-0.533
			c0.834-0.342,1.584-0.832,2.225-1.453c0.643-0.623,1.146-1.348,1.5-2.156C38.814,39.021,39,38.133,39,37.217V26.783
			C39,25.869,38.814,24.98,38.449,24.143z M32,40.869c-2.078,0-3.77-1.637-3.77-3.652V26.783c0-2.014,1.691-3.652,3.77-3.652
			s3.77,1.639,3.77,3.652v10.434C35.77,39.232,34.078,40.869,32,40.869z"/>
	</g>
</g>
<g>
	<path fill="#FFFFFF" d="M54.441,34.615c-0.354-0.795-0.854-1.516-1.484-2.141c-0.635-0.627-1.367-1.121-2.176-1.473
		c-0.855-0.369-1.752-0.559-2.664-0.559c-1.914,0-3.936-1.889-3.936-3.672c0-2.012,1.664-3.646,3.711-3.646s3.928,1.611,3.928,3.621
		H55c0-0.914-0.182-1.801-0.543-2.635c-0.346-0.807-0.842-1.531-1.475-2.152s-1.369-1.109-2.189-1.451
		C49.941,20.154,48.822,20,47.893,20s-1.832,0.178-2.684,0.531c-0.82,0.342-1.559,0.83-2.189,1.451
		c-0.633,0.621-1.131,1.346-1.477,2.152C41.184,24.971,41,25.857,41,26.771c0,1.684,0.803,3.41,2.201,4.736
		c1.385,1.311,3.176,2.063,4.916,2.063c1.938,0,3.703,1.744,3.703,3.658c0,2.01-1.666,3.646-3.713,3.646
		c-2.045,0-3.926-1.658-3.926-3.67H41c0,0.914,0.184,1.801,0.543,2.637c0.346,0.807,0.844,1.529,1.477,2.152
		c0.631,0.619,1.369,1.107,2.189,1.449C46.061,43.797,47.178,44,48.107,44s1.834-0.18,2.686-0.533
		c0.82-0.34,1.557-0.828,2.189-1.449c0.633-0.623,1.129-1.346,1.475-2.152C54.818,39.029,55,38.143,55,37.229
		C55,36.336,54.813,35.457,54.441,34.615z"/>
</g>
</svg>
