<?xml version="1.0" encoding="utf-8"?>
<!-- Generator: Adobe Illustrator 15.0.0, SVG Export Plug-In . SVG Version: 6.00 Build 0)  -->
<!DOCTYPE svg PUBLIC "-//W3C//DTD SVG 1.1//EN" "http://www.w3.org/Graphics/SVG/1.1/DTD/svg11.dtd">
<svg version="1.1" id="Layer_1" xmlns="http://www.w3.org/2000/svg" xmlns:xlink="http://www.w3.org/1999/xlink" x="0px" y="0px"
	 width="64px" height="64px" viewBox="0 0 64 64" enable-background="new 0 0 64 64" xml:space="preserve">
<path fill="#ED7612" d="M2,32C2,15.436,15.438,2,32,2c16.572,0,30,13.436,30,30c0,16.57-13.428,30-30,30C15.438,62,2,48.57,2,32z"/>
<path fill="#E64C18" d="M45.778,5.354C53.172,10.609,58,19.24,58,29c0,16.018-12.98,29-29,29c-9.759,0-18.39-4.83-23.646-12.225
	C10.347,55.412,20.404,62,32,62c16.571,0,30-13.43,30-30C62,20.402,55.413,10.346,45.778,5.354z"/>
<path fill-rule="evenodd" clip-rule="evenodd" fill="#F59E01" d="M10.218,17.396c0.446,3.135,6.31-2.996,12.248-8.266
	C26.298,5.74,8.878,7.973,10.218,17.396z"/>
<path fill="#FFFFFF" d="M36.719,18.121c2.035,0.67,3.684,1.896,4.945,3.682c1.012,1.443,1.699,3.006,2.068,4.686
	c0.367,1.68,0.551,3.281,0.551,4.803c0,3.859-0.773,7.127-2.324,9.803c-2.102,3.609-5.346,5.414-9.732,5.414h-12.51V17.492h12.51
	C34.025,17.518,35.523,17.729,36.719,18.121z M25.603,22.531v18.938h5.6c2.865,0,4.861-1.41,5.992-4.232
	c0.617-1.549,0.928-3.393,0.928-5.531c0-2.953-0.465-5.221-1.391-6.801c-0.928-1.582-2.77-2.373-5.529-2.373H25.603z"/>
</svg>
