<?xml version="1.0" encoding="utf-8"?>
<!-- Generator: Adobe Illustrator 15.0.0, SVG Export Plug-In . SVG Version: 6.00 Build 0)  -->
<!DOCTYPE svg PUBLIC "-//W3C//DTD SVG 1.1//EN" "http://www.w3.org/Graphics/SVG/1.1/DTD/svg11.dtd">
<svg version="1.1" id="Layer_1" xmlns="http://www.w3.org/2000/svg" xmlns:xlink="http://www.w3.org/1999/xlink" x="0px" y="0px"
	 width="64px" height="64px" viewBox="0 0 64 64" enable-background="new 0 0 64 64" xml:space="preserve">
<path fill="#F5F5F5" d="M37.969,2.602H26.032C14.264,4.979,4.989,14.236,2.602,26.001v11.998
	c2.388,11.766,11.662,21.023,23.431,23.4h11.967c11.765-2.387,21.023-11.662,23.4-23.43V26.001
	C59.012,14.236,49.737,4.979,37.969,2.602z"/>
<path fill="#E81C27" d="M38,26V2.602C36.062,2.207,34.055,2,32,2s-4.061,0.207-6,0.602V26H2.602C2.208,27.939,2,29.945,2,32
	c0,2.056,0.208,4.062,0.602,6.001H26v23.398c1.939,0.395,3.945,0.602,6,0.602s4.062-0.207,6-0.602V38.001h23.399
	C61.793,36.062,62,34.056,62,32c0-2.055-0.207-4.061-0.601-6H38z"/>
<polygon fill="#E81C27" points="18,20 14,20 15,14 14,8 18,8 17,14 "/>
<polygon fill="#E81C27" points="10,16 10,12 16,13 22,12 22,16 16,15 "/>
<polygon fill="#E81C27" points="50,20 46,20 47,14 46,8 50,8 49,14 "/>
<polygon fill="#E81C27" points="42,16 42,12 48,13 54,12 54,16 48,15 "/>
<path fill="#E81C27" d="M18,56.001h-4c0,0,1-4.5,1-6s-1-6-1-6h4c0,0-1,4.5-1,6S18,56.001,18,56.001z"/>
<polygon fill="#E81C27" points="10,52.001 10,48.001 16,49.001 22,48.001 22,52.001 16,51.001 "/>
<polygon fill="#E81C27" points="50,56.001 46,56.001 47,50.001 46,44.001 50,44.001 49,50.001 "/>
<polygon fill="#E81C27" points="42,52.001 42,48.001 48,49.001 54,48.001 54,52.001 48,51.001 "/>
<path opacity="0.05" fill="#1A1626" d="M50.737,8.591c4.096,5.13,6.563,11.622,6.563,18.701c0,16.568-13.429,30.004-29.995,30.004
	c-7.101,0-13.609-2.479-18.744-6.594c5.494,6.879,13.942,11.299,23.442,11.299c16.566,0,29.995-13.432,29.995-30.001
	C61.998,22.527,57.595,14.09,50.737,8.591z"/>
<path opacity="0.3" fill-rule="evenodd" clip-rule="evenodd" fill="#FFFFFF" d="M9.734,19.015c0.549,3.865,7.767-3.7,15.08-10.202
	C29.531,4.63,8.083,7.385,9.734,19.015z"/>
</svg>
