<?xml version="1.0" encoding="utf-8"?>
<!-- Generator: Adobe Illustrator 15.0.0, SVG Export Plug-In . SVG Version: 6.00 Build 0)  -->
<!DOCTYPE svg PUBLIC "-//W3C//DTD SVG 1.1//EN" "http://www.w3.org/Graphics/SVG/1.1/DTD/svg11.dtd">
<svg version="1.1" id="Layer_1" xmlns="http://www.w3.org/2000/svg" xmlns:xlink="http://www.w3.org/1999/xlink" x="0px" y="0px"
	 width="64px" height="64px" viewBox="0 0 64 64" enable-background="new 0 0 64 64" xml:space="preserve">
<circle fill="#E81C27" cx="32" cy="32" r="30"/>
<g>
	<path fill="#F5F5F5" d="M30.043,27.793c0.67-1.803,2.391-2.08,3.26-4.424c0.377-1.02-0.314-2.98,0.063-3.998
		c0.857-2.313,3.234-1.9,3.234-1.9c-4.111-1.467-8.66,0.613-10.158,4.643c-1.494,4.023,0.615,8.469,4.715,9.945
		C30.016,30.768,29.455,29.377,30.043,27.793z"/>
</g>
<g>
	<circle fill="#E81C27" cx="30.387" cy="21.307" r="0.938"/>
</g>
<g>
	<path fill="#F5F5F5" d="M26.67,31.779c-1.543-1.184-1.279-2.871-3.285-4.408c-0.871-0.67-2.988-0.625-3.861-1.293
		c-1.977-1.514-0.844-3.602-0.844-3.602c-2.695,3.381-2.082,8.262,1.367,10.9c3.441,2.637,8.41,2.045,11.109-1.318
		C29.547,32.723,28.025,32.816,26.67,31.779z"/>
</g>
<g>
	<path fill="#E81C27" d="M21.188,28.566c0.492,0.162,0.762,0.689,0.6,1.18c-0.16,0.492-0.688,0.762-1.18,0.604
		c-0.492-0.162-0.762-0.689-0.602-1.182C20.168,28.674,20.691,28.406,21.188,28.566z"/>
</g>
<g>
	<path fill="#F5F5F5" d="M29.496,36.15c-1.625,1.076-3.182,0.307-5.291,1.701c-0.918,0.607-1.531,2.596-2.449,3.201
		C19.676,42.426,18,40.725,18,40.725c2.449,3.555,7.373,4.492,11.002,2.096c3.621-2.395,4.582-7.207,2.154-10.762
		C31.301,33.762,30.92,35.209,29.496,36.15z"/>
</g>
<g>
	<path fill="#E81C27" d="M25.117,40.27c0.301-0.42,0.887-0.51,1.311-0.207c0.416,0.303,0.51,0.891,0.205,1.309
		c-0.305,0.42-0.891,0.512-1.309,0.207S24.813,40.688,25.117,40.27z"/>
</g>
<g>
	<path fill="#F5F5F5" d="M34.615,34.869c0.537,1.846-0.686,3.061,0.014,5.457c0.307,1.045,2.045,2.23,2.35,3.273
		c0.691,2.361-1.477,3.4-1.477,3.4c4.205-1.186,6.639-5.484,5.43-9.609c-1.201-4.115-5.578-6.498-9.775-5.332
		C32.854,32.451,34.141,33.25,34.615,34.869z"/>
</g>
<g>
	<path fill="#E81C27" d="M37.684,40.242c-0.305-0.418-0.211-1.004,0.207-1.309c0.416-0.303,1.002-0.211,1.311,0.205
		c0.303,0.422,0.209,1.008-0.209,1.313C38.57,40.756,37.986,40.662,37.684,40.242z"/>
</g>
<g>
	<path fill="#F5F5F5" d="M34.953,29.703c1.955,0.068,2.756,1.588,5.301,1.672c1.107,0.039,2.795-1.217,3.9-1.176
		c2.502,0.086,2.842,2.43,2.842,2.43c0.152-4.289-3.271-7.885-7.645-8.035c-4.365-0.15-8.029,3.191-8.195,7.465
		C32.059,30.598,33.236,29.645,34.953,29.703z"/>
</g>
<g>
	<path fill="#E81C27" d="M41.518,28.523c-0.49,0.16-1.02-0.109-1.178-0.602c-0.162-0.492,0.105-1.021,0.602-1.182
		c0.49-0.16,1.02,0.107,1.182,0.602C42.281,27.834,42.014,28.363,41.518,28.523z"/>
</g>
<path opacity="0.1" fill="#1A1626" d="M50.738,8.592c4.096,5.129,6.563,11.621,6.563,18.701c0,16.568-13.43,30.002-29.996,30.002
	c-7.1,0-13.609-2.477-18.744-6.594C14.055,57.58,22.504,62,32.004,62c16.566,0,29.994-13.432,29.994-30
	C61.998,22.527,57.596,14.09,50.738,8.592z"/>
<path opacity="0.3" fill-rule="evenodd" clip-rule="evenodd" fill="#FFFFFF" d="M9.734,19.016c0.549,3.865,7.768-3.701,15.08-10.203
	C29.531,4.631,8.084,7.385,9.734,19.016z"/>
</svg>
