<?xml version="1.0" encoding="utf-8"?>
<!-- Generator: Adobe Illustrator 15.0.0, SVG Export Plug-In . SVG Version: 6.00 Build 0)  -->
<!DOCTYPE svg PUBLIC "-//W3C//DTD SVG 1.1//EN" "http://www.w3.org/Graphics/SVG/1.1/DTD/svg11.dtd">
<svg version="1.1" id="Layer_1" xmlns="http://www.w3.org/2000/svg" xmlns:xlink="http://www.w3.org/1999/xlink" x="0px" y="0px"
	 width="64px" height="64px" viewBox="0 0 64 64" enable-background="new 0 0 64 64" xml:space="preserve">
<path fill="#F5F5F5" d="M3.161,26.59v0.984H3.74v0.982h0.58v-0.982h0.579V26.59h0.58v-0.984h0.58v-0.982h0.579v-0.984h0.58v-0.982
	h-0.58v-0.984H6.059v-0.984H4.32v0.984h1.159v0.984h-0.58v0.982H4.32v0.984H3.74v-0.984H3.196c-0.239,0.824-0.446,1.662-0.615,2.514
	v0.438H3.161z"/>
<path fill="#F5F5F5" d="M10.117,11.516c-0.1,0.105-0.199,0.213-0.298,0.32h0.298V11.516z"/>
<path fill="#F5F5F5" d="M14.754,7.903h-0.58v0.982h-0.579V9.87h-0.58v0.982h-0.579v0.984h-0.58v-0.984h-0.58v-0.508
	c-0.194,0.186-0.39,0.373-0.579,0.564v0.928h0.579v0.984h0.58v0.982h-0.58v0.984h-0.579v0.982h-0.58v-0.982H9.538v-0.984h-0.58
	v-0.979c-0.195,0.234-0.392,0.467-0.58,0.707v0.271H8.172c-0.126,0.166-0.252,0.33-0.375,0.498v0.486H7.444
	c-0.077,0.109-0.149,0.223-0.226,0.334v0.648H6.779c-0.209,0.324-0.407,0.652-0.604,0.984h0.463v0.984h0.58v0.982h0.579v0.984h0.58
	v0.982H8.61h0.115h0.232v-0.982h0.58v-0.984h0.579v-0.982h0.58v-0.984h0.579V15.77h0.58v-0.982h0.58v0.982h0.579v0.984h0.58v0.984
	h0.579v0.982h0.58v0.984h0.58v-1.967h-0.58v-0.984h0.58v-2.951h-0.58v0.984h-0.58v0.982h-0.579v-0.982h-0.58v-0.984h-0.579v-0.982
	h0.579v-0.984h0.58v-0.984h0.579v0.984h0.58v0.984h0.58V9.87h-0.58V8.885h0.58V7.067c-0.193,0.131-0.39,0.258-0.58,0.391V7.903z
	 M8.958,17.739H8.725H8.61H8.377V15.77H8.61h0.115h0.232V17.739z"/>
<path fill="#F5F5F5" d="M2.581,35.443v-0.984h0.58v-0.984H3.74v-0.982h0.58v-0.395v-0.195v-0.395H3.74v-0.982H3.161v-0.984h-0.58
	v-0.984H2.203C2.074,29.688,2,30.834,2,32c0,1.166,0.073,2.312,0.203,3.443H2.581z"/>
<polygon fill="#F5F5F5" points="14.754,29.542 14.174,29.542 14.174,30.526 13.595,30.526 13.595,31.508 13.015,31.508 
	13.015,31.903 13.015,32.098 13.015,32.493 13.595,32.493 13.595,33.475 14.174,33.475 14.174,34.459 14.754,34.459 14.754,35.443 
	15.334,35.443 15.334,28.557 14.754,28.557 "/>
<path fill="#F5F5F5" d="M9.538,12.139c-0.197,0.223-0.386,0.453-0.576,0.682h0.576V12.139z"/>
<path fill="#F5F5F5" d="M9.819,52.164c0.099,0.107,0.198,0.215,0.298,0.32v-0.32H9.819z"/>
<path fill="#F5F5F5" d="M8.962,51.18c0.19,0.229,0.378,0.459,0.575,0.68v-0.68H8.962z"/>
<path fill="#F5F5F5" d="M14.754,55.115v-0.984h0.58V51.18h-0.58v0.984h-0.58v0.982h-0.579v-0.982h-0.58V51.18h-0.579v-0.982h0.579
	v-0.984h0.58v-0.984h0.579v0.984h0.58v0.984h0.58v-2.951h-0.58v-0.984h0.58v-1.967h-0.58v0.984h-0.58v0.982h-0.579v0.984h-0.58
	v0.982h-0.579v0.984h-0.58v-0.984h-0.58v-0.982h-0.579v-0.984h-0.58v-0.982H9.538v-0.984h-0.58v-0.984H8.725H8.61H8.377v0.984h-0.58
	v0.984H7.218v0.982h-0.58v0.984H6.175c0.197,0.33,0.395,0.66,0.604,0.982h0.439v0.65c0.076,0.111,0.148,0.225,0.226,0.334h0.354
	v0.486c0.123,0.166,0.249,0.332,0.376,0.498h0.204v0.27c0.188,0.24,0.385,0.475,0.58,0.707v-0.977h0.58v-0.984h0.579v-0.984h0.58
	v0.984h0.579v0.984h0.58v0.982h-0.58v0.984h-0.579v0.928c0.189,0.191,0.385,0.379,0.579,0.564v-0.51h0.58v-0.982h0.58v0.982h0.579
	v0.984h0.58v0.984h0.579v0.982h0.58v0.443c0.19,0.135,0.387,0.262,0.58,0.393v-1.818H14.754z M8.958,48.229H8.725H8.61H8.377v-1.967
	H8.61h0.115h0.232V48.229z"/>
<polygon fill="#F5F5F5" points="14.754,37.41 14.174,37.41 14.174,36.426 13.595,36.426 13.595,35.443 13.015,35.443 13.015,36.426 
	12.436,36.426 12.436,37.41 11.856,37.41 11.856,38.393 11.276,38.393 11.276,39.377 10.697,39.377 10.697,40.361 10.117,40.361 
	10.117,41.344 10.697,41.344 10.697,42.328 11.276,42.328 11.276,43.311 13.015,43.311 13.015,42.328 11.856,42.328 11.856,41.344 
	12.436,41.344 12.436,40.361 13.015,40.361 13.015,39.377 13.595,39.377 13.595,40.361 14.174,40.361 14.174,41.344 14.754,41.344 
	14.754,42.328 15.334,42.328 15.334,40.361 14.754,40.361 14.754,39.377 15.334,39.377 15.334,38.393 14.754,38.393 "/>
<polygon fill="#F5F5F5" points="14.754,22.657 14.174,22.657 14.174,23.639 13.595,23.639 13.595,24.624 13.015,24.624 
	13.015,23.639 12.436,23.639 12.436,22.657 11.856,22.657 11.856,21.672 13.015,21.672 13.015,20.688 11.276,20.688 11.276,21.672 
	10.697,21.672 10.697,22.657 10.117,22.657 10.117,23.639 10.697,23.639 10.697,24.624 11.276,24.624 11.276,25.606 11.856,25.606 
	11.856,26.59 12.436,26.59 12.436,27.575 13.015,27.575 13.015,28.557 13.595,28.557 13.595,27.575 14.174,27.575 14.174,26.59 
	14.754,26.59 14.754,25.606 15.334,25.606 15.334,24.624 14.754,24.624 14.754,23.639 15.334,23.639 15.334,21.672 14.754,21.672 
	"/>
<path fill="#F5F5F5" d="M3.74,39.377h0.58v0.984h0.579v0.982h0.58v0.984H4.32v0.982h1.739v-0.982h0.579v-0.984h0.58v-0.982h-0.58
	v-0.984H6.059v-0.984h-0.58V37.41h-0.58v-0.984H4.32v-0.982H3.74v0.982H3.161v0.984h-0.58v0.438
	c0.169,0.852,0.376,1.689,0.615,2.514H3.74V39.377z"/>
<path fill="#F5F5F5" d="M10.117,26.59H9.538v-0.984h-0.58v-0.982H8.725H8.61H8.377v0.982h-0.58v0.984H7.218v0.984h-0.58v0.982H6.059
	v0.984h-0.58v2.361v0.195v2.361h0.58v0.984h0.579v0.982h0.58v0.984h0.579v0.982h0.58v0.984H8.61h0.115h0.232v-0.984h0.58V37.41
	h0.579v-0.984h0.58v-0.982h0.579v-0.984h0.58v-2.361v-0.195v-2.361h-0.58v-0.984h-0.579v-0.982h-0.58V26.59z M6.638,31.903v0.195
	v0.395H6.059v-0.395v-0.195v-0.395h0.579V31.903z M10.697,32.098v-0.195v-0.395h0.579v0.395v0.195v0.395h-0.579V32.098z
	 M8.377,26.59H8.61h0.115h0.232v0.984H8.725H8.61H8.377V26.59z M8.958,37.41H8.725H8.61H8.377v-0.984H8.61h0.115h0.232V37.41z
	 M10.117,30.526H9.538v0.982h-0.58v0.395v0.195v0.395h0.58v0.982h0.579v1.969H9.538v-0.984h-0.58v-0.984H8.725H8.61H8.377v0.984
	h-0.58v0.984H7.218v-1.969h0.579v-0.982h0.58v-0.395v-0.195v-0.395h-0.58v-0.982H7.218v-1.969h0.579v0.984h0.58v0.984H8.61h0.115
	h0.232v-0.984h0.58v-0.984h0.579V30.526z"/>
<path fill="#C8313E" d="M7.218,15.122c-0.147,0.215-0.298,0.43-0.439,0.648h0.439V15.122z"/>
<path fill="#C8313E" d="M7.797,14.788v-0.486c-0.118,0.162-0.238,0.322-0.354,0.486H7.797z"/>
<path fill="#C8313E" d="M8.377,13.803v-0.271c-0.07,0.09-0.136,0.182-0.205,0.271H8.377z"/>
<polygon fill="#C8313E" points="6.059,31.903 6.059,32.098 6.059,32.493 6.638,32.493 6.638,32.098 6.638,31.903 6.638,31.508 
	6.059,31.508 "/>
<rect x="14.754" y="16.754" fill="#C8313E" width="0.58" height="0.984"/>
<polygon fill="#C8313E" points="8.958,12.821 8.958,12.825 8.961,12.821 "/>
<path fill="#C8313E" d="M9.538,13.803v0.984h0.579v0.982h0.58v-0.982h0.579v-0.984h0.58v-0.982h-0.58v-0.984h-0.579v-0.928
	c-0.197,0.197-0.389,0.402-0.58,0.607v0.32H9.819c-0.093,0.102-0.189,0.199-0.281,0.303v0.682H8.961
	c-0.001,0.002-0.003,0.002-0.004,0.004v0.979H9.538z"/>
<rect x="14.754" y="8.885" fill="#C8313E" width="0.58" height="0.984"/>
<polygon fill="#C8313E" points="14.754,11.836 14.174,11.836 14.174,10.852 13.595,10.852 13.595,11.836 13.015,11.836 
	13.015,12.821 12.436,12.821 12.436,13.803 13.015,13.803 13.015,14.788 13.595,14.788 13.595,15.77 14.174,15.77 14.174,14.788 
	14.754,14.788 14.754,13.803 15.334,13.803 15.334,12.821 14.754,12.821 "/>
<path fill="#C8313E" d="M11.856,10.852v0.984h0.58v-0.984h0.579V9.87h0.58V8.885h0.579V7.903h0.58V7.458
	C13.651,8.235,12.6,9.084,11.613,10h0.016c-0.12,0.111-0.234,0.23-0.353,0.344v0.508H11.856z"/>
<polygon fill="#C8313E" points="8.61,15.77 8.377,15.77 8.377,17.739 8.61,17.739 8.725,17.739 8.958,17.739 8.958,15.77 
	8.725,15.77 "/>
<polygon fill="#C8313E" points="9.538,29.542 8.958,29.542 8.958,30.526 8.725,30.526 8.61,30.526 8.377,30.526 8.377,29.542 
	7.797,29.542 7.797,28.557 7.218,28.557 7.218,30.526 7.797,30.526 7.797,31.508 8.377,31.508 8.377,31.903 8.377,32.098 
	8.377,32.493 7.797,32.493 7.797,33.475 7.218,33.475 7.218,35.443 7.797,35.443 7.797,34.459 8.377,34.459 8.377,33.475 
	8.61,33.475 8.725,33.475 8.958,33.475 8.958,34.459 9.538,34.459 9.538,35.443 10.117,35.443 10.117,33.475 9.538,33.475 
	9.538,32.493 8.958,32.493 8.958,32.098 8.958,31.903 8.958,31.508 9.538,31.508 9.538,30.526 10.117,30.526 10.117,28.557 
	9.538,28.557 "/>
<rect x="14.754" y="23.639" fill="#C8313E" width="0.58" height="0.984"/>
<path fill="#C8313E" d="M14.754,18.721h-0.58v-0.982h-0.579v-0.984h-0.58V15.77h-0.579v-0.982h-0.58v0.982h-0.58v0.984h-0.579v0.984
	h-0.58v0.982H9.538v0.984h-0.58v0.982H8.725H8.61H8.377v-0.982h-0.58v-0.984H7.218v-0.982h-0.58v-0.984H6.175
	C5.556,17.797,4.991,18.879,4.5,20h0.004c-0.514,1.174-0.946,2.393-1.309,3.639H3.74v0.984h0.58v-0.984h0.579v-0.982h0.58v-0.984
	H4.32v-0.984h1.739v0.984h0.579v0.984h0.58v0.982h-0.58v0.984H6.059v0.982h-0.58v0.984h-0.58v0.984H4.32v0.982H3.74v-0.982H3.161
	V26.59h-0.58v-0.438c-0.157,0.791-0.284,1.592-0.378,2.404h0.378v0.984h0.58v0.984H3.74v0.982h0.58v0.395v0.195v0.395H3.74v0.982
	H3.161v0.984h-0.58v0.984H2.204c0.093,0.813,0.22,1.613,0.377,2.404V37.41h0.58v-0.984H3.74v-0.982h0.58v0.982h0.579v0.984h0.58
	v0.982h0.58v0.984h0.579v0.984h0.58v0.982h-0.58v0.984H6.059v0.982H4.32v-0.982h1.159v-0.984h-0.58v-0.982H4.32v-0.984H3.74v0.984
	H3.196C3.559,41.607,3.991,42.826,4.504,44H4.5c0.49,1.121,1.056,2.201,1.675,3.246h0.463v-0.984h0.58v-0.982h0.579v-0.984h0.58
	v-0.984H8.61h0.115h0.232v0.984h0.58v0.984h0.579v0.982h0.58v0.984h0.579v0.982h0.58v0.984h0.58v-0.984h0.579v-0.982h0.58v-0.984
	h0.579v-0.982h0.58v-0.984h0.58v-1.967h-0.58v-0.984h-0.58v-0.982h-0.579v-0.984h-0.58v0.984h-0.579v0.982h-0.58v0.984h1.159v0.982
	h-1.739v-0.982h-0.579v-0.984h-0.58v-0.982h0.58v-0.984h0.579v-0.984h0.58V37.41h0.58v-0.984h0.579v-0.982h0.58v0.982h0.579v0.984
	h0.58v0.982h0.58v-2.949h-0.58v-0.984h-0.58v-0.984h-0.579v-0.982h-0.58v-0.395v-0.195v-0.395h0.58v-0.982h0.579v-0.984h0.58v-0.984
	h0.58v-2.951h-0.58v0.984h-0.58v0.984h-0.579v0.982h-0.58v-0.982h-0.579V26.59h-0.58v-0.984h-0.58v-0.982h-0.579v-0.984h-0.58
	v-0.982h0.58v-0.984h0.579v-0.984h1.739v0.984h-1.159v0.984h0.58v0.982h0.579v0.984h0.58v-0.984h0.579v-0.982h0.58v-0.984h0.58
	v-1.967h-0.58V18.721z M10.697,27.575v0.982h0.579v0.984h0.58v2.361v0.195v2.361h-0.58v0.984h-0.579v0.982h-0.58v0.984H9.538v0.982
	h-0.58v0.984H8.725H8.61H8.377v-0.984h-0.58V37.41H7.218v-0.984h-0.58v-0.982H6.059v-0.984h-0.58v-2.361v-0.195v-2.361h0.58v-0.984
	h0.579v-0.982h0.58V26.59h0.579v-0.984h0.58v-0.982H8.61h0.115h0.232v0.982h0.58v0.984h0.579v0.984H10.697z"/>
<polygon fill="#C8313E" points="8.725,27.575 8.958,27.575 8.958,26.59 8.725,26.59 8.61,26.59 8.377,26.59 8.377,27.575 
	8.61,27.575 "/>
<path fill="#C8313E" d="M7.218,48.229H6.779c0.142,0.221,0.292,0.434,0.439,0.65V48.229z"/>
<path fill="#C8313E" d="M7.797,49.213H7.444c0.115,0.164,0.235,0.324,0.354,0.486V49.213z"/>
<path fill="#C8313E" d="M8.377,50.197H8.173c0.068,0.09,0.135,0.182,0.204,0.27V50.197z"/>
<rect x="14.754" y="46.262" fill="#C8313E" width="0.58" height="0.984"/>
<polygon fill="#C8313E" points="14.754,49.213 14.174,49.213 14.174,48.229 13.595,48.229 13.595,49.213 13.015,49.213 
	13.015,50.197 12.436,50.197 12.436,51.18 13.015,51.18 13.015,52.164 13.595,52.164 13.595,53.146 14.174,53.146 14.174,52.164 
	14.754,52.164 14.754,51.18 15.334,51.18 15.334,50.197 14.754,50.197 "/>
<polygon fill="#C8313E" points="8.962,51.18 8.958,51.174 8.958,51.18 "/>
<path fill="#C8313E" d="M9.538,51.18v0.68c0.092,0.104,0.188,0.203,0.281,0.305h0.298v0.32c0.191,0.205,0.383,0.408,0.58,0.607
	v-0.928h0.579V51.18h0.58v-0.982h-0.58v-0.984h-0.579v-0.984h-0.58v0.984H9.538v0.984h-0.58v0.977
	c0.002,0.002,0.003,0.004,0.005,0.006H9.538z"/>
<rect x="14.754" y="54.131" fill="#C8313E" width="0.58" height="0.984"/>
<path fill="#C8313E" d="M11.613,54c0.987,0.916,2.038,1.764,3.142,2.541v-0.443h-0.58v-0.982h-0.579v-0.984h-0.58v-0.984h-0.579
	v-0.982h-0.58v0.982h-0.58v0.51c0.118,0.113,0.232,0.232,0.353,0.344H11.613z"/>
<polygon fill="#C8313E" points="8.61,46.262 8.377,46.262 8.377,48.229 8.61,48.229 8.725,48.229 8.958,48.229 8.958,46.262 
	8.725,46.262 "/>
<rect x="14.754" y="39.377" fill="#C8313E" width="0.58" height="0.984"/>
<polygon fill="#C8313E" points="11.276,32.098 11.276,31.903 11.276,31.508 10.697,31.508 10.697,31.903 10.697,32.098 
	10.697,32.493 11.276,32.493 "/>
<polygon fill="#C8313E" points="8.61,36.426 8.377,36.426 8.377,37.41 8.61,37.41 8.725,37.41 8.958,37.41 8.958,36.426 
	8.725,36.426 "/>
<path fill="#529320" d="M15.334,44v12.932C20.102,60.129,25.83,62,32,62c7.875,0,15.035-3.037,20.388-8h-0.016
	c3.012-2.791,5.459-6.184,7.127-10h-0.004H15.334z"/>
<path fill="#E81C27" d="M59.496,44C61.104,40.324,62,36.268,62,32c0-4.268-0.896-8.324-2.504-12H59.5
	c-1.668-3.816-4.115-7.209-7.127-10h0.016C47.035,5.038,39.875,2,32,2C25.83,2,20.102,3.872,15.334,7.067V44H59.496z"/>
<path opacity="0.1" fill="#1A1626" d="M50.738,8.59c4.096,5.131,6.563,11.623,6.563,18.701c0,16.568-13.43,30.003-29.996,30.003
	c-7.1,0-13.609-2.479-18.744-6.594C14.055,57.58,22.503,62,32.004,62c16.566,0,29.994-13.432,29.994-30
	C61.998,22.528,57.596,14.09,50.738,8.59z"/>
<path opacity="0.3" fill-rule="evenodd" clip-rule="evenodd" fill="#FFFFFF" d="M9.735,19.014c0.549,3.865,7.768-3.699,15.08-10.201
	C29.532,4.629,8.084,7.385,9.735,19.014z"/>
</svg>
