<?xml version="1.0" encoding="utf-8"?>
<!-- Generator: Adobe Illustrator 15.0.0, SVG Export Plug-In . SVG Version: 6.00 Build 0)  -->
<!DOCTYPE svg PUBLIC "-//W3C//DTD SVG 1.1//EN" "http://www.w3.org/Graphics/SVG/1.1/DTD/svg11.dtd">
<svg version="1.1" id="Layer_1" xmlns="http://www.w3.org/2000/svg" xmlns:xlink="http://www.w3.org/1999/xlink" x="0px" y="0px"
	 width="64px" height="64px" viewBox="0 0 64 64" enable-background="new 0 0 64 64" xml:space="preserve">
<path fill="#014D87" d="M22,60.285V46.469L11.687,54.07C14.639,56.789,18.138,58.92,22,60.285z"/>
<path fill="#014D87" d="M42,60.285c3.875-1.369,7.383-3.51,10.34-6.24l-10.338-7.598L42,60.285z"/>
<path fill="#014D87" d="M3.714,42c0.347,0.979,0.739,1.936,1.182,2.865L8.785,42H3.714z"/>
<path fill="#014D87" d="M55.211,42l3.893,2.867c0.443-0.93,0.836-1.889,1.182-2.867H55.211z"/>
<path fill="#F5F5F5" d="M2.602,38c0.277,1.369,0.654,2.703,1.112,4h5.071l-3.89,2.865c0.787,1.656,1.726,3.227,2.791,4.697
	L18.002,42h0.044H22v2.049v0.021l-11.707,8.623c0.451,0.473,0.913,0.934,1.394,1.377L22,46.469v13.816
	c1.295,0.459,2.629,0.834,4,1.113V38H2.602z"/>
<path fill="#F5F5F5" d="M61.398,38H38v23.398c1.369-0.277,2.705-0.654,4-1.113l0.002-13.838l10.338,7.598
	c1.381-1.273,2.641-2.672,3.762-4.184L45.447,42h0.014h6.758l6.063,4.469v0.002c0.289-0.525,0.564-1.061,0.822-1.604L55.211,42
	h5.074C60.744,40.703,61.121,39.369,61.398,38z"/>
<path fill="#E81C27" d="M7.719,49.607c0.779,1.076,1.635,2.096,2.548,3.057c0.009,0.01,0.018,0.02,0.026,0.029L22,44.07v-0.021V42
	h-3.954L7.719,49.607z"/>
<path fill="#E81C27" d="M45.461,42l10.652,7.846c0.371-0.5,0.723-1.014,1.061-1.537c0.053-0.08,0.104-0.16,0.154-0.24
	c0.332-0.523,0.652-1.055,0.953-1.6L52.219,42H45.461z"/>
<path fill="#014D87" d="M42,3.714v13.817L52.313,9.93C49.359,7.211,45.861,5.08,42,3.714z"/>
<path fill="#014D87" d="M22,3.714c-3.875,1.369-7.383,3.51-10.341,6.24l10.339,7.599L22,3.714z"/>
<path fill="#014D87" d="M60.285,22c-0.346-0.979-0.738-1.937-1.182-2.866L55.213,22H60.285z"/>
<path fill="#014D87" d="M8.788,22l-3.893-2.867C4.453,20.063,4.061,21.021,3.714,22H8.788z"/>
<path fill="#F5F5F5" d="M61.398,26c-0.279-1.37-0.654-2.704-1.113-4h-5.072l3.891-2.866c-0.787-1.656-1.725-3.226-2.791-4.697
	L45.996,22h-0.043H42v-2.049V19.93l11.705-8.623c-0.449-0.473-0.912-0.935-1.393-1.377L42,17.531V3.714
	c-1.297-0.458-2.631-0.834-4-1.112V26H61.398z"/>
<path fill="#F5F5F5" d="M2.602,26H26V2.602c-1.371,0.277-2.705,0.654-4,1.112l-0.002,13.839L11.659,9.954
	c-1.38,1.273-2.641,2.673-3.762,4.184l10.654,7.861h-0.014L11.781,22l-6.063-4.47v-0.001c-0.29,0.525-0.564,1.06-0.823,1.604
	L8.788,22H3.714C3.256,23.296,2.879,24.63,2.602,26z"/>
<path fill="#E81C27" d="M56.281,14.393c-0.779-1.076-1.635-2.097-2.549-3.057c-0.01-0.01-0.018-0.02-0.025-0.029L42,19.93v0.021V22
	h3.953L56.281,14.393z"/>
<path fill="#E81C27" d="M18.538,21.999L7.887,14.153c-0.371,0.5-0.723,1.015-1.062,1.538c-0.052,0.079-0.103,0.159-0.153,0.239
	c-0.332,0.523-0.652,1.055-0.953,1.6L11.781,22L18.538,21.999z"/>
<path fill="#E81C27" d="M61.398,26H38V2.602C36.061,2.208,34.055,2,32,2s-4.063,0.208-6,0.602V26H2.602C2.208,27.938,2,29.945,2,32
	s0.207,4.061,0.602,6H26v23.398C27.938,61.791,29.945,62,32,62s4.061-0.209,6-0.602V38h23.398C61.791,36.061,62,34.055,62,32
	S61.791,27.938,61.398,26z"/>
<path opacity="0.1" fill="#1A1626" d="M50.736,8.591c4.098,5.13,6.563,11.622,6.563,18.701c0,16.567-13.428,30.003-29.994,30.003
	c-7.1,0-13.609-2.479-18.744-6.594C14.055,57.58,22.502,62,32.004,62c16.564,0,29.994-13.432,29.994-30
	C61.998,22.527,57.596,14.09,50.736,8.591z"/>
<path opacity="0.3" fill-rule="evenodd" clip-rule="evenodd" fill="#FFFFFF" d="M9.734,19.015c0.549,3.865,7.768-3.7,15.08-10.202
	C29.531,4.63,8.084,7.385,9.734,19.015z"/>
</svg>
