<?xml version="1.0" encoding="utf-8"?>
<!-- Generator: Adobe Illustrator 15.0.0, SVG Export Plug-In . SVG Version: 6.00 Build 0)  -->
<!DOCTYPE svg PUBLIC "-//W3C//DTD SVG 1.1//EN" "http://www.w3.org/Graphics/SVG/1.1/DTD/svg11.dtd">
<svg version="1.1" id="Layer_1" xmlns="http://www.w3.org/2000/svg" xmlns:xlink="http://www.w3.org/1999/xlink" x="0px" y="0px"
	 width="64px" height="64px" viewBox="0 0 64 64" enable-background="new 0 0 64 64" xml:space="preserve">
<path fill="#FFE12C" d="M32,2C21.181,2,11.702,7.728,6.425,16.316v19.061h-4.23C3.872,50.355,16.573,62,32,62
	c10.818,0,20.298-5.729,25.575-14.316V28.623h4.23C60.127,13.646,47.426,2,32,2z"/>
<path fill="#F5F5F5" d="M2.716,25.492l58.568,13.016C61.748,36.412,62,34.236,62,32c0-1.143-0.07-2.268-0.194-3.377L6.425,16.316
	C4.711,19.105,3.444,22.197,2.716,25.492z"/>
<path fill="#302C3B" d="M61.284,38.508L2.716,25.492C2.252,27.589,2,29.763,2,32c0,1.143,0.069,2.268,0.194,3.377l55.381,12.307
	C59.289,44.895,60.555,41.803,61.284,38.508z"/>
<path fill="#E81C27" d="M22.018,33.289c0,5.645,4.446,10.221,9.931,10.221s9.932-4.576,9.932-10.221
	c0-2.147-0.646-4.137-1.745-5.782c0.581,1.234,0.916,2.615,0.916,4.078c0,4.208-2.693,7.766-6.403,8.95l-1.975-4.926v-7.858
	c0.425,0.154,1.037,0.391,1.861,0.746c3.207,1.385,5.689-2.768,5.689-2.768s-2.275,0.318-4.138-1.49
	c-1.211-1.178-2.593-0.645-3.413-0.127v-1.15h1.551c0,0,0.414-4.686-2.327-5.963v3.406h-1.5v2.557h0.62v1.029
	c-0.834-0.469-2.093-0.836-3.206,0.248c-1.862,1.809-4.139,1.49-4.139,1.49s2.483,4.152,5.69,2.768
	c0.697-0.301,1.243-0.516,1.654-0.67v7.682h-0.04l-1.979,4.934c-3.578-1.264-6.153-4.746-6.153-8.858
	c0-1.463,0.335-2.844,0.917-4.078C22.663,29.152,22.018,31.142,22.018,33.289z"/>
<path fill="#E81C27" d="M21.189,40.637V32.65c-3.207-1.703-3.207-4.152-3.207-4.152H15.5c0,4.473,2.482,5.112,2.482,5.112v7.027
	H21.189z"/>
<path fill="#E81C27" d="M46.017,28.498c0,0,0,2.449-3.206,4.152v7.987h3.206v-7.027c0,0,2.483-0.639,2.483-5.112H46.017z"/>
<path fill="#E81C27" d="M31.896,45.211c-3.56-0.018-6.71-1.811-8.656-4.564l-2.981,4.566c0,0,2.689-0.213,5.172,1.172
	c2.469,1.377,3.201,0.016,6.466,0.002c3.265,0.014,3.996,1.375,6.465-0.002c2.483-1.385,5.173-1.172,5.173-1.172l-2.981-4.566
	C38.606,43.4,35.455,45.193,31.896,45.211z"/>
<path opacity="0.1" fill="#1A1626" d="M50.736,8.591c4.097,5.129,6.563,11.621,6.563,18.701c0,16.569-13.429,30.002-29.994,30.002
	c-7.101,0-13.61-2.477-18.745-6.594C14.054,57.58,22.502,62,32.003,62c16.565,0,29.994-13.432,29.994-30
	C61.997,22.527,57.595,14.089,50.736,8.591z"/>
<path opacity="0.3" fill-rule="evenodd" clip-rule="evenodd" fill="#FFFFFF" d="M9.734,19.015c0.549,3.865,7.767-3.701,15.08-10.203
	C29.531,4.63,8.083,7.384,9.734,19.015z"/>
</svg>
