<?xml version="1.0" encoding="utf-8"?>
<!-- Generator: Adobe Illustrator 15.0.0, SVG Export Plug-In . SVG Version: 6.00 Build 0)  -->
<!DOCTYPE svg PUBLIC "-//W3C//DTD SVG 1.1//EN" "http://www.w3.org/Graphics/SVG/1.1/DTD/svg11.dtd">
<svg version="1.1" id="Layer_1" xmlns="http://www.w3.org/2000/svg" xmlns:xlink="http://www.w3.org/1999/xlink" x="0px" y="0px"
	 width="64px" height="64px" viewBox="0 0 64 64" enable-background="new 0 0 64 64" xml:space="preserve">
<path fill="#E81C27" d="M57.025,15.46h-8.484v-0.002L15.459,48.541h0.002v8.484H15.46C20.203,60.166,25.887,62,32,62
	c16.568,0,30-13.432,30-30C62,25.886,60.166,20.203,57.025,15.46z"/>
<path fill="#529320" d="M32,2C15.432,2,2,15.431,2,32c0,6.116,1.834,11.799,4.975,16.542h3.813h4.672l33.082-33.083v-4.672V6.974
	C43.799,3.833,38.115,2,32,2z"/>
<path fill="#FFE12C" d="M6.975,48.541c1.112,1.68,2.385,3.242,3.803,4.662l0.02,0.02c1.42,1.42,2.984,2.691,4.664,3.803
	L57.025,15.46c-2.229-3.367-5.117-6.256-8.484-8.486L6.975,48.541z"/>
<path opacity="0.1" fill="#1A1626" d="M50.738,8.591c4.096,5.129,6.563,11.621,6.563,18.701c0,16.569-13.43,30.002-29.996,30.002
	c-7.1,0-13.609-2.477-18.744-6.594C14.055,57.58,22.503,62,32.004,62c16.566,0,29.994-13.432,29.994-30
	C61.998,22.527,57.596,14.089,50.738,8.591z"/>
<path opacity="0.3" fill-rule="evenodd" clip-rule="evenodd" fill="#FFFFFF" d="M9.734,19.015c0.549,3.865,7.768-3.701,15.08-10.203
	C29.531,4.63,8.084,7.384,9.734,19.015z"/>
</svg>
