<?xml version="1.0" encoding="utf-8"?>
<!-- Generator: Adobe Illustrator 15.0.0, SVG Export Plug-In . SVG Version: 6.00 Build 0)  -->
<!DOCTYPE svg PUBLIC "-//W3C//DTD SVG 1.1//EN" "http://www.w3.org/Graphics/SVG/1.1/DTD/svg11.dtd">
<svg version="1.1" id="Layer_1" xmlns="http://www.w3.org/2000/svg" xmlns:xlink="http://www.w3.org/1999/xlink" x="0px" y="0px"
	 width="64px" height="64px" viewBox="0 0 64 64" enable-background="new 0 0 64 64" xml:space="preserve">
<path fill="#529320" d="M60,42c-5.523,0-10-4.477-10-10H10.787v21.213l-0.002-0.002C16.215,58.641,23.715,62,32,62
	c13.066,0,24.176-8.357,28.291-20.016C60.193,41.988,60.098,42,60,42z"/>
<path fill="#302C3B" d="M60,22c0.098,0,0.193,0.012,0.291,0.014C56.176,10.355,45.066,2,32,2c-8.285,0-15.785,3.357-21.215,8.787
	h0.002V32H50C50,26.477,54.477,22,60,22z"/>
<path fill="#F5F5F5" d="M60.286,22H10.787v20h49.499C61.393,38.871,62,35.508,62,32S61.393,25.129,60.286,22z"/>
<path fill="#E81C27" d="M10.787,10.787C5.357,16.215,2,23.715,2,32c0,8.283,3.357,15.783,8.787,21.213L32,32L10.787,10.787z"/>
<path fill="#E81C27" d="M44,38.857c-3.042-0.646-5.333-3.473-5.333-6.857s2.291-6.211,5.333-6.857C43.57,25.047,43.124,25,42.668,25
	C38.984,25,36,28.137,36,32s2.984,7,6.668,7C43.124,39,43.57,38.953,44,38.857z"/>
<polygon fill="#E81C27" points="44.999,34.123 47.47,36 46.538,32.947 49,31 45.948,31 44.999,28 44.076,31 41,31 43.461,32.947 
	42.53,36 "/>
<path opacity="0.1" fill="#1A1626" d="M50.737,8.59c4.097,5.131,6.563,11.623,6.563,18.701c0,16.568-13.429,30.004-29.995,30.004
	c-7.1,0-13.609-2.479-18.744-6.594C14.055,57.58,22.503,62,32.004,62c16.565,0,29.994-13.432,29.994-30
	C61.998,22.527,57.596,14.09,50.737,8.59z"/>
<path opacity="0.3" fill-rule="evenodd" clip-rule="evenodd" fill="#FFFFFF" d="M9.734,19.014c0.549,3.865,7.768-3.699,15.08-10.201
	C29.531,4.629,8.084,7.385,9.734,19.014z"/>
</svg>
