<?xml version="1.0" encoding="utf-8"?>
<!-- Generator: Adobe Illustrator 15.0.0, SVG Export Plug-In . SVG Version: 6.00 Build 0)  -->
<!DOCTYPE svg PUBLIC "-//W3C//DTD SVG 1.1//EN" "http://www.w3.org/Graphics/SVG/1.1/DTD/svg11.dtd">
<svg version="1.1" id="Layer_1" xmlns="http://www.w3.org/2000/svg" xmlns:xlink="http://www.w3.org/1999/xlink" x="0px" y="0px"
	 width="64px" height="64px" viewBox="0 0 64 64" enable-background="new 0 0 64 64" xml:space="preserve">
<path fill="#ED7612" d="M2,32C2,15.436,15.438,2,32,2c16.572,0,30,13.436,30,30c0,16.57-13.428,30-30,30C15.438,62,2,48.57,2,32z"/>
<path fill="#E64C18" d="M45.778,5.354C53.172,10.611,58,19.24,58,29c0,16.02-12.98,29-29,29c-9.759,0-18.39-4.828-23.646-12.223
	C10.347,55.412,20.404,62,32,62c16.571,0,30-13.43,30-30C62,20.402,55.413,10.348,45.778,5.354z"/>
<path fill-rule="evenodd" clip-rule="evenodd" fill="#F59E01" d="M10.218,17.398c0.446,3.133,6.31-2.998,12.248-8.268
	C26.298,5.742,8.878,7.973,10.218,17.398z"/>
<path fill="#FFFFFF" d="M28.635,35.15v0.668c0.049,2.244,0.279,3.822,0.693,4.734c0.412,0.912,1.297,1.369,2.652,1.369
	c1.344,0,2.23-0.498,2.662-1.496c0.26-0.592,0.389-1.588,0.389-2.992V17.139h6.063v20.195c0,2.469-0.416,4.424-1.25,5.867
	c-1.412,2.441-3.959,3.662-7.643,3.662c-3.682,0-6.152-0.988-7.41-2.963c-1.256-1.975-1.885-4.67-1.885-8.082V35.15H28.635z"/>
</svg>
