<?xml version="1.0" encoding="utf-8"?>
<!-- Generator: Adobe Illustrator 15.0.0, SVG Export Plug-In . SVG Version: 6.00 Build 0)  -->
<!DOCTYPE svg PUBLIC "-//W3C//DTD SVG 1.1//EN" "http://www.w3.org/Graphics/SVG/1.1/DTD/svg11.dtd">
<svg version="1.1" id="Layer_1" xmlns="http://www.w3.org/2000/svg" xmlns:xlink="http://www.w3.org/1999/xlink" x="0px" y="0px"
	 width="64px" height="64px" viewBox="0 0 64 64" enable-background="new 0 0 64 64" xml:space="preserve">
<path fill="#302C3B" d="M2,32c0,11.511,6.486,21.502,16,26.532V5.467C8.486,10.498,2,20.489,2,32z"/>
<path fill="#529320" d="M62,32c0-11.511-6.486-21.502-16-26.533v53.065C55.514,53.502,62,43.511,62,32z"/>
<path fill="#E81C27" d="M32,2c-5.057,0-9.819,1.257-14,3.467v53.065C22.181,60.743,26.943,62,32,62c5.059,0,9.82-1.257,14-3.468
	V5.467C41.82,3.257,37.059,2,32,2z"/>
<path fill="#F5F5F5" d="M35.822,36.972H34.68c0.002,0.514-0.091,0.904-0.434,1.235h2.188C36.079,37.925,35.826,37.431,35.822,36.972
	z"/>
<polygon fill="#F5F5F5" points="35.871,30.834 36.51,30.101 34.52,30.074 33.551,29.354 30.425,29.34 29.52,30.087 27.465,30.087 
	28.09,30.82 "/>
<path fill="#F5F5F5" d="M30.65,29.245L30.65,29.245l2.688-0.003c0.364-0.205,0.477-0.859,0.476-1.225
	c-0.005-1.081-0.716-1.6-1.428-1.627c-0.106-0.006-0.231-0.094-0.259-0.198c-0.07-0.234-0.053-0.384-0.129-0.376
	c-0.068-0.001-0.049,0.137-0.109,0.356c-0.033,0.11-0.148,0.218-0.264,0.224c-0.888,0.047-1.46,0.737-1.438,1.62
	C30.202,28.601,30.266,28.95,30.65,29.245z"/>
<path fill="#F5F5F5" d="M34.475,37.421l-0.453-0.34l0.016-0.566l-0.334-0.219v-0.559l-0.527-0.24l-0.004-0.54l-0.439-0.138
	l0.01-0.539l-0.613-0.209l-0.308-0.209l0.019-0.359l-1.957-0.014v-0.313c-0.014-1.046,1.267-1.883,2.092-1.908
	c0.954-0.029,2.143,0.91,2.143,1.914l0.007,1.006h0.14V33.17c-0.008-0.919-1.05-2.008-2.13-2.01l3.642-0.006l-0.006-0.116h-7.552
	v0.116l3.591,0.006c-0.604-0.006-2.082,0.733-2.054,2.003l0.001,3.592h0.758l0.007,0.658l-1.046,0.008
	c-0.149,0.012-0.247-0.16-0.249-0.448h-1.033c-0.003,0.514-0.272,0.871-0.695,1.29h3.036l-0.006-0.842h0.848l0.166,0.781
	l0.695,0.006l-0.294-0.787h0.651l0.49,0.795h0.988l-0.67-0.795H34.475z M30.527,36.083h0.58l0.146,0.665h-0.727V36.083z
	 M31.937,37.421l-0.562-0.008l-0.121-0.664l0.479-0.001l-0.205-0.653l0.148-0.001v-0.018h0.076v0.019l0.088,0.004l0.371,0.65h-0.479
	L31.937,37.421z M32.594,37.413l-0.39-0.658h0.001l0.561-0.007l0.625,0.665H32.594z"/>
<path fill="#F5F5F5" d="M31.732,36.748L31.732,36.748L31.732,36.748z"/>
<rect x="34.124" y="34.718" fill="#F5F5F5" width="0.134" height="1.025"/>
<path fill="#F5F5F5" d="M28.27,35.776h1.084v-1.264H28.27v0.289l-2.133-3.824l0.072-0.198c0-0.165-0.125-0.298-0.28-0.298
	c-0.153,0-0.279,0.133-0.279,0.298s0.126,0.297,0.279,0.297l0.081-0.014l0.067,0.122c-0.154,0.035-0.385,0.53-0.907,0.937
	l-0.014-0.018l-0.001,0.027v-0.007l-0.039,0.036c-0.322,0.234-0.548,0.859-0.551,1.27c-0.004,0.103-0.003,0.203,0,0.307
	l-0.026-0.025l0.034,0.104c0.006,0.152,0.01,0.303-0.006,0.451c-0.02,0.172-0.188,0.556-0.072,0.653
	c0.305,0.241,0.7,0.79,0.884,0.979c0.145,0.135,0.271-0.611,0.383-1.053l0.018,0.016l-0.012-0.025l0.028-0.111
	c0.115-0.395,0.095-0.855,0.35-1.24v0.001v-0.001l0,0l-0.007-0.018l0.079-0.104c0.194-0.211,0.615-0.42,0.764-0.559l1.288,2.309
	V35.776z"/>
<rect x="28.283" y="27.285" fill="#F5F5F5" width="0.984" height="0.24"/>
<rect x="28.283" y="27.74" fill="#F5F5F5" width="0.984" height="2.006"/>
<path fill="#F5F5F5" d="M28.772,26.203c-0.214,0.011-0.558,0.43-0.549,0.808l1.091,0.007C29.357,26.624,28.988,26.199,28.772,26.203
	z"/>
<rect x="28.23" y="31.376" fill="#F5F5F5" width="1.098" height="1.617"/>
<rect x="28.295" y="33.917" fill="#F5F5F5" width="1.059" height="0.34"/>
<rect x="28.192" y="36.036" fill="#F5F5F5" width="1.187" height="0.705"/>
<polygon fill="#F5F5F5" points="28.338,33.612 29.295,33.612 29.484,33.276 28.167,33.276 "/>
<path fill="#F5F5F5" d="M30.295,31.491h-0.658l-0.01,0.883C29.795,31.993,30.037,31.718,30.295,31.491z"/>
<path fill="#F5F5F5" d="M39.457,33.815l0.034-0.104l-0.027,0.025c0.003-0.104,0.004-0.204,0-0.307
	c-0.002-0.41-0.228-1.035-0.551-1.27l-0.038-0.036l-0.002-0.021l-0.014,0.018c-0.521-0.407-0.752-0.902-0.907-0.937l0.067-0.122
	l0.081,0.014c0.155,0,0.28-0.133,0.28-0.297s-0.125-0.298-0.28-0.298c-0.154,0-0.28,0.133-0.28,0.298l0.072,0.198l-2.131,3.824
	v-0.289h-1.084v1.264h1.084v-0.662l1.287-2.309c0.148,0.139,0.569,0.348,0.764,0.559l0.079,0.104l-0.008,0.018h0.001l-0.001,0.001
	l0.001-0.001c0.254,0.385,0.234,0.846,0.35,1.24l0.027,0.111l-0.012,0.025l0.018-0.016c0.111,0.441,0.238,1.188,0.383,1.053
	c0.184-0.189,0.579-0.738,0.885-0.979c0.115-0.098-0.054-0.481-0.072-0.653C39.447,34.118,39.451,33.968,39.457,33.815z"/>
<rect x="34.764" y="27.285" fill="#F5F5F5" width="0.982" height="0.24"/>
<rect x="34.764" y="27.74" fill="#F5F5F5" width="0.982" height="2.006"/>
<path fill="#F5F5F5" d="M35.807,27.011c0.008-0.377-0.336-0.797-0.549-0.808c-0.215-0.004-0.584,0.421-0.542,0.815L35.807,27.011z"
	/>
<rect x="34.703" y="31.376" fill="#F5F5F5" width="1.097" height="1.617"/>
<rect x="34.677" y="33.917" fill="#F5F5F5" width="1.059" height="0.34"/>
<rect x="34.652" y="36.036" fill="#F5F5F5" width="1.186" height="0.705"/>
<polygon fill="#F5F5F5" points="34.547,33.276 34.736,33.612 35.691,33.612 35.863,33.276 "/>
<path fill="#F5F5F5" d="M34.402,32.374l-0.008-0.883h-0.66C33.994,31.718,34.234,31.993,34.402,32.374z"/>
<path fill="#F5F5F5" d="M42.57,33.241c0.393-0.18,0.913-0.458,1.156-0.769c0.417-0.533,0.234-1.436,0.234-1.436
	s-0.736,0.265-1.266,0.63c-0.025-0.425-0.187-0.918-0.357-1.336c0.334-0.275,0.764-0.678,0.918-1.039
	c0.264-0.623-0.146-1.447-0.146-1.447s-0.644,0.445-1.061,0.934c-0.135-0.404-0.419-0.84-0.693-1.2
	c0.25-0.351,0.561-0.85,0.615-1.239c0.094-0.669-0.52-1.359-0.52-1.359s-0.504,0.594-0.779,1.173
	c-0.29-0.436-0.809-0.861-1.221-1.157c0.154-0.316,0.237-0.647,0.237-0.988c0-2.214-3.442-4.008-7.688-4.008
	c-4.247,0-7.688,1.794-7.688,4.008c0,0.341,0.083,0.672,0.237,0.988c-0.411,0.296-0.931,0.721-1.221,1.157
	c-0.275-0.579-0.779-1.173-0.779-1.173s-0.613,0.69-0.52,1.359c0.055,0.389,0.364,0.888,0.614,1.239
	c-0.273,0.36-0.557,0.795-0.692,1.2c-0.417-0.489-1.06-0.934-1.06-0.934s-0.411,0.824-0.147,1.447
	c0.154,0.361,0.584,0.764,0.918,1.039c-0.171,0.417-0.332,0.911-0.357,1.336c-0.529-0.365-1.266-0.63-1.266-0.63
	s-0.183,0.902,0.234,1.436c0.243,0.311,0.764,0.589,1.156,0.769c-0.056,0.447-0.082,0.965,0.004,1.382
	c-0.605-0.216-1.387-0.282-1.387-0.282s0.059,0.918,0.602,1.326c0.315,0.236,0.891,0.371,1.316,0.443
	c0.063,0.447,0.172,0.955,0.364,1.336c-0.642-0.053-1.414,0.082-1.414,0.082s0.296,0.871,0.927,1.127
	c0.367,0.147,0.958,0.131,1.389,0.091c0.177,0.415,0.415,0.878,0.699,1.194c-0.633,0.115-1.344,0.445-1.344,0.445
	s0.514,0.766,1.188,0.85c0.394,0.049,0.959-0.119,1.365-0.27c0.279,0.356,0.629,0.742,0.986,0.975
	c-0.582,0.273-1.182,0.773-1.182,0.773s0.695,0.608,1.37,0.516c0.152-0.02,0.321-0.08,0.493-0.16L26,44h12l-0.807-0.931
	c0.171,0.08,0.34,0.141,0.492,0.16c0.675,0.093,1.37-0.516,1.37-0.516s-0.599-0.5-1.182-0.773c0.357-0.232,0.708-0.618,0.986-0.975
	c0.405,0.15,0.972,0.318,1.366,0.27c0.674-0.084,1.188-0.85,1.188-0.85s-0.711-0.33-1.344-0.445
	c0.284-0.316,0.522-0.779,0.699-1.194c0.431,0.04,1.021,0.057,1.389-0.091c0.631-0.256,0.928-1.127,0.928-1.127
	s-0.773-0.135-1.415-0.082c0.192-0.381,0.302-0.889,0.364-1.336c0.426-0.072,1.001-0.207,1.316-0.443
	c0.543-0.408,0.602-1.326,0.602-1.326s-0.781,0.066-1.387,0.282C42.652,34.206,42.626,33.688,42.57,33.241z M26.914,40.845
	l-0.035-0.025c-0.288-0.186-0.664-0.326-1.03-0.431c0.133-0.257,0.297-0.61,0.39-0.945h0.879
	C27.059,39.673,26.905,40.313,26.914,40.845z M35.826,40.388c-0.088,0.303-0.055,0.734,0.006,1.111l-0.564-0.65h-6.533l-0.564,0.65
	c0.061-0.377,0.093-0.809,0.006-1.111c-0.138-0.469-0.615-0.797-0.87-0.944h9.39C36.44,39.591,35.963,39.919,35.826,40.388z
	 M37.122,40.819l-0.034,0.025c0.008-0.532-0.145-1.172-0.205-1.401h0.88c0.093,0.335,0.257,0.688,0.39,0.945
	C37.786,40.493,37.41,40.634,37.122,40.819z M41.236,34.358l-0.008,0.041c-0.461-0.474-1.221-0.893-1.221-0.893
	s-0.324,0.863,0.006,1.455c0.208,0.375,0.75,0.766,1.117,1c-0.264,0.273-0.52,0.582-0.676,0.886l-0.018,0.038
	c-0.322-0.577-0.946-1.176-0.946-1.176s-0.538,0.75-0.374,1.406c0.103,0.416,0.523,0.933,0.818,1.255
	c-0.326,0.195-0.654,0.428-0.883,0.681l-0.027,0.031c-0.162-0.639-0.607-1.378-0.607-1.378s-0.715,0.586-0.729,1.263
	c-0.004,0.141,0.025,0.3,0.07,0.465l-1.02-0.886h-9.479l-1.021,0.886c0.045-0.165,0.074-0.324,0.071-0.465
	c-0.014-0.677-0.729-1.263-0.729-1.263s-0.446,0.739-0.608,1.378l-0.027-0.031c-0.229-0.253-0.557-0.485-0.882-0.681
	c0.294-0.322,0.715-0.839,0.818-1.255c0.163-0.656-0.375-1.406-0.375-1.406s-0.624,0.599-0.945,1.176l-0.019-0.038
	c-0.156-0.304-0.411-0.612-0.676-0.886c0.368-0.234,0.909-0.625,1.117-1c0.33-0.592,0.005-1.455,0.005-1.455
	s-0.759,0.419-1.22,0.893l-0.008-0.041c-0.071-0.334-0.237-0.697-0.421-1.029c0.416-0.132,1.041-0.369,1.341-0.68
	c0.472-0.486,0.383-1.403,0.383-1.403s-0.842,0.208-1.411,0.548l0.003-0.042c0.018-0.34-0.048-0.734-0.139-1.101
	c0.437-0.021,1.102-0.091,1.472-0.313c0.584-0.35,0.737-1.257,0.737-1.257s-0.868-0.016-1.507,0.167l0.015-0.041
	c0.105-0.323,0.146-0.721,0.152-1.098c0.428,0.092,1.088,0.196,1.504,0.077c0.654-0.188,1.04-1.026,1.04-1.026
	s-0.834-0.238-1.5-0.226l0.024-0.035c0.525-0.803,0.699-2.306,0.699-2.306s-0.067,0.04-0.175,0.108
	c1.2-1.397,3.891-2.372,7.019-2.372s5.817,0.975,7.018,2.372c-0.106-0.068-0.175-0.108-0.175-0.108s0.174,1.502,0.699,2.306
	l0.025,0.035c-0.666-0.012-1.501,0.226-1.501,0.226s0.386,0.837,1.04,1.026c0.416,0.119,1.076,0.015,1.504-0.077
	c0.008,0.377,0.047,0.775,0.152,1.098l0.015,0.041c-0.639-0.183-1.507-0.167-1.507-0.167s0.153,0.907,0.736,1.257
	c0.371,0.222,1.036,0.291,1.473,0.313c-0.091,0.367-0.156,0.761-0.139,1.101l0.003,0.042c-0.569-0.34-1.411-0.548-1.411-0.548
	s-0.09,0.917,0.383,1.403c0.301,0.311,0.924,0.548,1.341,0.68C41.474,33.661,41.308,34.024,41.236,34.358z"/>
<path opacity="0.1" fill="#1A1626" d="M50.737,8.591c4.097,5.13,6.563,11.622,6.563,18.701c0,16.568-13.429,30.003-29.995,30.003
	c-7.101,0-13.609-2.478-18.744-6.594C14.055,57.58,22.503,62,32.004,62c16.565,0,29.994-13.432,29.994-30
	C61.998,22.527,57.596,14.09,50.737,8.591z"/>
<path opacity="0.3" fill-rule="evenodd" clip-rule="evenodd" fill="#FFFFFF" d="M9.734,19.015c0.549,3.865,7.767-3.7,15.08-10.202
	C29.531,4.63,8.083,7.385,9.734,19.015z"/>
</svg>
