<?xml version="1.0" encoding="utf-8"?>
<!-- Generator: Adobe Illustrator 15.0.0, SVG Export Plug-In . SVG Version: 6.00 Build 0)  -->
<!DOCTYPE svg PUBLIC "-//W3C//DTD SVG 1.1//EN" "http://www.w3.org/Graphics/SVG/1.1/DTD/svg11.dtd">
<svg version="1.1" id="Layer_1" xmlns="http://www.w3.org/2000/svg" xmlns:xlink="http://www.w3.org/1999/xlink" x="0px" y="0px"
	 width="64px" height="64px" viewBox="0 0 64 64" enable-background="new 0 0 64 64" xml:space="preserve">
<path fill="#014D87" d="M62,32H2c0,5.467,1.469,10.586,4.023,15h51.953C60.531,42.586,62,37.467,62,32z"/>
<path fill="#FFE12C" d="M32,2C15.432,2,2,15.432,2,32h60C62,15.432,48.568,2,32,2z"/>
<path fill="#E81C27" d="M32,62c11.101,0,20.789-6.035,25.976-15H6.024C11.211,55.965,20.899,62,32,62z"/>
<path opacity="0.1" fill="#1A1626" d="M50.736,8.591c4.096,5.13,6.563,11.622,6.563,18.701c0,16.568-13.428,30.003-29.994,30.003
	c-7.102,0-13.609-2.478-18.744-6.594C14.055,57.58,22.502,62,32.002,62c16.566,0,29.996-13.432,29.996-30
	C61.998,22.527,57.594,14.09,50.736,8.591z"/>
<path opacity="0.3" fill-rule="evenodd" clip-rule="evenodd" fill="#FFFFFF" d="M9.735,19.015c0.549,3.865,7.766-3.7,15.08-10.202
	C29.532,4.63,8.083,7.385,9.735,19.015z"/>
<path fill="#594640" d="M37.314,17c-1.602,0-3.412,2.67-5.117,2.67c-1.705,0-3.516-2.67-5.115-2.67c-1.594,0-7.67,2.67-7.67,2.67
	c4.264,0,6.643,2.783,10.236,2.783c-1.861,4.842,0.348,3.565,0.348,3.565s6.46-6.348,14.988-6.348C44.984,19.67,38.908,17,37.314,17
	z"/>
<path fill="#BCBCBC" d="M20.051,25.736l-0.949-0.969L17,24.283l1.07,1.824l1.182,0.543c-0.592,0.587-1.316,1.106-2.033,1.105
	c0.375,0.845,1.574,1.479,2.541,0.979c-0.082-0.478,0.205-1.133,0.557-1.723L42.008,42.81l0.691,0.808l1.246,0.288l-0.635-1.082
	l-0.992-0.419L20.592,26.58c0.385-0.57,0.756-0.998,0.756-0.998l-0.785-0.571C20.563,25.011,20.37,25.323,20.051,25.736z"/>
<path fill="#BCBCBC" d="M22.077,22.323l-0.861-0.834l-1.791-0.521l1.02,1.525l1.023,0.509c-0.455,0.431-1.027,0.799-1.627,0.753
	c0.371,0.698,1.418,1.281,2.193,0.943c-0.102-0.387,0.096-0.893,0.35-1.341l20.029,14.59l0.635,0.688l1.063,0.31l-0.605-0.904
	l-0.857-0.397L22.584,23.031c0.285-0.431,0.566-0.748,0.566-0.748l-0.695-0.506C22.456,21.777,22.315,22.014,22.077,22.323z"/>
<path fill="#BCBCBC" d="M43.947,25.736l0.949-0.969L47,24.283l-1.072,1.824l-1.18,0.543c0.59,0.587,1.316,1.106,2.031,1.105
	c-0.375,0.845-1.574,1.479-2.539,0.979c0.082-0.478-0.205-1.133-0.559-1.723L21.993,42.81l-0.693,0.808l-1.246,0.288l0.635-1.082
	l0.992-0.419L43.408,26.58c-0.387-0.57-0.758-0.998-0.758-0.998l0.785-0.571C43.436,25.011,43.629,25.323,43.947,25.736z"/>
<path fill="#BCBCBC" d="M41.924,22.323l0.859-0.834l1.793-0.521l-1.02,1.525l-1.025,0.509c0.455,0.431,1.027,0.799,1.627,0.753
	c-0.371,0.698-1.416,1.281-2.191,0.943c0.1-0.387-0.096-0.893-0.352-1.341l-20.029,14.59l-0.633,0.688l-1.063,0.31l0.604-0.904
	l0.859-0.397l20.06-14.613c-0.283-0.431-0.564-0.748-0.564-0.748l0.695-0.506C41.545,21.777,41.686,22.014,41.924,22.323z"/>
<g>
	<g>
		<path fill="#F59E01" d="M23.649,23.586c0,0,0,6.831,0,9.688c0,5.116,8.912,7.484,10.996-2.02L23.649,23.586z"/>
		<path fill="#014D87" d="M25.584,24.937c0,0-0.016,3.69-0.016,6.548c0,4.523,7.354,7.435,9.076-0.229L25.584,24.937z"/>
		<path fill="#ED1C24" d="M27.565,26.318c0,0,0,2.032,0,4.89c0,3.253,7.08,6.687,7.08,0.047L27.565,26.318z"/>
		<rect x="23.54" y="22.819" fill="#E81C27" width="0.654" height="2.899"/>
		<rect x="23.081" y="22.622" fill="#014D87" width="0.654" height="2.899"/>
	</g>
	<path fill="#529320" d="M25.692,31.337c-1.563-0.49-1.131-4.897,3.031-6.561C28.866,24.72,30.016,32.697,25.692,31.337z"/>
	<g>
		<path fill="#F59E01" d="M22.139,27.454c0,0,0,6.83,0,9.688c0,5.116,8.914,7.484,10.998-2.02L22.139,27.454z"/>
		<path fill="#014D87" d="M24.075,28.804c0,0-0.016,3.69-0.016,6.548c0,4.524,7.354,7.435,9.078-0.229L24.075,28.804z"/>
		<path fill="#ED1C24" d="M26.055,30.185c0,0,0,2.032,0,4.89c0,3.253,7.082,6.687,7.082,0.048L26.055,30.185z"/>
		<rect x="22.03" y="26.688" fill="#E81C27" width="0.654" height="2.899"/>
		<rect x="21.573" y="26.49" fill="#014D87" width="0.654" height="2.899"/>
	</g>
</g>
<g>
	<g>
		<path fill="#F59E01" d="M40.352,23.586c0,0,0,6.831,0,9.688c0,5.116-8.914,7.484-10.998-2.02L40.352,23.586z"/>
		<path fill="#014D87" d="M38.414,24.937c0,0,0.018,3.69,0.018,6.548c0,4.523-7.353,7.435-9.078-0.229L38.414,24.937z"/>
		<path fill="#ED1C24" d="M36.436,26.318c0,0,0,2.032,0,4.89c0,3.253-7.082,6.687-7.082,0.047L36.436,26.318z"/>
		<rect x="39.807" y="22.819" fill="#E81C27" width="0.654" height="2.899"/>
		<rect x="40.264" y="22.622" fill="#014D87" width="0.654" height="2.899"/>
	</g>
	<path fill="#529320" d="M38.309,31.337c1.561-0.49,1.131-4.897-3.033-6.561C35.135,24.72,33.984,32.697,38.309,31.337z"/>
	<g>
		<path fill="#F59E01" d="M41.859,27.454c0,0,0,6.83,0,9.688c0,5.116-8.912,7.483-10.996-2.02L41.859,27.454z"/>
		<path fill="#014D87" d="M39.924,28.804c0,0,0.016,3.69,0.016,6.548c0,4.524-7.351,7.435-9.076-0.229L39.924,28.804z"/>
		<path fill="#E81C27" d="M37.943,30.185c0,0,0,2.032,0,4.89c0,3.253-7.08,6.687-7.08,0.048L37.943,30.185z"/>
		<rect x="41.314" y="26.688" fill="#E81C27" width="0.654" height="2.899"/>
		<rect x="41.773" y="26.49" fill="#014D87" width="0.654" height="2.899"/>
	</g>
</g>
<polygon fill="#F59E01" points="36.123,43.638 27.877,43.638 30.278,37.243 33.721,37.243 "/>
<polygon fill="#014D87" points="34.352,45.091 29.649,45.091 31.018,37.243 32.981,37.243 "/>
<polygon fill="#E81C27" points="33.367,47 30.631,47 31.428,37.243 32.571,37.243 "/>
<path fill="#0FB4D4" d="M32,24.893c-7.057,0-7.057,14.941,0,14.941C39.057,39.834,39.057,24.893,32,24.893z"/>
<path fill="#529320" d="M26.649,32.68c0,3.984,2.389,7.215,5.336,7.215c2.949,0,5.337-3.23,5.337-7.215H26.649"/>
<path fill="#594640" d="M26.977,32.758l10.035,0.153v-1.276l-10.15-0.91L26.977,32.758L26.977,32.758z"/>
<path fill="#F5F5F5" d="M29.721,29.001c-0.305-0.011-2.85,1.821-2.85,1.821c1.43,1.14,3.695,0.359,3.695,0.359
	c1.326,0.129,1.938,1.182,5.181,0.34C33.75,30.464,31.409,30.725,29.721,29.001z"/>
<path fill="#018BC9" d="M28.485,32.549c0.025,0.038,1.717,2.27,1.717,2.27l-2.6,1.499c1.328,4.532,7.498,4.628,8.847,0.007
	c0,0-3.726-0.743-3.843-0.829c-0.121-0.087-3.646-2.854-3.748-2.927c-0.104-0.075,0.766-1.144,0.766-1.144L28.485,32.549z"/>
<path fill="#BCBCBC" d="M32,24.511c-7.418,0-7.418,15.704,0,15.704C39.416,40.215,39.416,24.511,32,24.511z M32,39.451
	c-6.443,0-6.443-14.176,0-14.176C38.441,25.275,38.441,39.451,32,39.451z"/>
<polygon fill="#FFE12C" points="33.158,36.98 33.158,36.227 31.639,36.227 31.639,36.98 29.997,36.98 29.997,37.809 34.4,37.809 
	34.4,36.98 "/>
<path fill="#FFE12C" d="M34.02,27.673c0,2.103-3.001,2.103-3.001,0S34.02,25.57,34.02,27.673z"/>
<path fill="#BCBCBC" d="M26.772,40.761l-0.627,0.155l-0.926-0.557l0.914-0.574l0.596,0.165c-0.057-0.55-0.184-1.115-0.451-1.395
	c0.377-0.313,1.006-0.19,1.227,0.46c-0.164,0.228-0.24,0.696-0.273,1.154l10.035-0.021l0.486-0.169l0.547,0.33l-0.541,0.341
	l-0.49-0.16l-10.056,0.022c-0.016,0.461,0.004,0.838,0.004,0.838l-0.455,0.004C26.76,41.354,26.776,41.109,26.772,40.761z"/>
<rect x="28.424" y="39.298" fill="#F59E01" width="7.152" height="2.121"/>
<path fill="#BCBCBC" d="M33.438,20.524c0,2.103-3.001,2.103-3.001,0S33.438,18.421,33.438,20.524z"/>
<path fill="#F59E01" d="M32.301,20.451c0,0.981-3.703,0.946-3.703-0.035C28.598,19.243,32.301,19.278,32.301,20.451z"/>
<path fill="#F59E01" d="M32.985,25.322c-0.301,0.06-0.771-2.264-0.471-2.323C32.874,22.929,33.344,25.251,32.985,25.322z"/>
<path fill="#F59E01" d="M30.454,25.271c-0.293-0.094,0.488-2.337,0.779-2.243C31.581,23.141,30.801,25.384,30.454,25.271z"/>
<path fill="#E81C27" d="M30.194,19.553c-1.047,0.038-1.307,1.051-1.777,0.344C28.043,19.338,29.848,18.744,30.194,19.553z"/>
<path fill="#BCBCBC" d="M29.147,20.605c0,0.557-0.861,0.516-1.133,0.088C28.542,20.153,29.147,19.94,29.147,20.605z"/>
</svg>
