<?xml version="1.0" encoding="utf-8"?>
<!-- Generator: Adobe Illustrator 15.0.0, SVG Export Plug-In . SVG Version: 6.00 Build 0)  -->
<!DOCTYPE svg PUBLIC "-//W3C//DTD SVG 1.1//EN" "http://www.w3.org/Graphics/SVG/1.1/DTD/svg11.dtd">
<svg version="1.1" id="Layer_1" xmlns="http://www.w3.org/2000/svg" xmlns:xlink="http://www.w3.org/1999/xlink" x="0px" y="0px"
	 width="64px" height="64px" viewBox="0 0 64 64" enable-background="new 0 0 64 64" xml:space="preserve">
<path fill="#E81C27" d="M31.999,2C18.938,2,7.833,10.35,3.714,22h56.572C56.167,10.35,45.06,2,31.999,2z"/>
<path fill="#014D87" d="M31.999,62c13.061,0,24.168-8.35,28.287-20H3.714C7.833,53.65,18.938,62,31.999,62z"/>
<path fill="#F5F5F5" d="M3.714,22c-1.105,3.129-1.713,6.492-1.713,10s0.607,6.871,1.713,10h56.572c1.105-3.129,1.713-6.492,1.713-10
	s-0.607-6.871-1.713-10H3.714z"/>
<path fill="#F5F5F5" d="M42.882,25.166l2.643-5.989l-2.014-3.25l-3.334,1.234l-2.342-2.676l-3.084,1.768L32.001,14l-2.752,2.253
	l-3.084-1.768l-2.342,2.676l-3.334-1.235l-2.014,3.251l2.639,5.99c3.324-1.505,7.01-2.343,10.887-2.343
	c3.873,0,7.559,0.837,10.883,2.341H42.882z"/>
<path fill="#014D87" d="M34.733,16.528l-0.006,0.003l-2.729-2.234l-2.721,2.23l0.512,6.18c0.73-0.061,1.467-0.092,2.209-0.092
	c0.748,0,1.488,0.032,2.221,0.093L34.733,16.528L34.733,16.528z"/>
<g>
	<g>
		<path fill="#E81C27" d="M32.003,50L32.003,50c6.209,0,11.287-5.078,11.287-11.285V25.303H20.716v13.412
			C20.716,44.922,25.796,50,32.003,50L32.003,50z"/>
	</g>
	<g>
		<path fill="#F5F5F5" d="M32.003,49.82L32.003,49.82c6.09,0,11.07-4.982,11.07-11.072V25.52H20.933v13.228
			C20.933,44.838,25.915,49.82,32.003,49.82z"/>
	</g>
	<g>
		<g>
			<path fill="#E81C27" d="M25.604,25.937h-4.26v4.681h4.26V25.937z"/>
		</g>
		<g>
			<path fill="#E81C27" d="M25.604,35.299h4.262v-4.681h-4.262V35.299z"/>
		</g>
		<g>
			<path fill="#E81C27" d="M21.345,38.723c0,0.426,0.027,0.844,0.074,1.258h4.186v-4.682h-4.26V38.723z"/>
		</g>
		<g>
			<path fill="#E81C27" d="M34.126,35.299h-4.26v4.682h4.26V35.299z"/>
		</g>
		<g>
			<path fill="#E81C27" d="M34.126,44.66h4.262v-4.68h-4.262V44.66z"/>
		</g>
		<g>
			<path fill="#E81C27" d="M38.388,47.221c0.943-0.713,1.768-1.578,2.432-2.561h-2.432V47.221z"/>
		</g>
		<g>
			<path fill="#E81C27" d="M25.606,44.66h4.26v-4.68h-4.26V44.66z"/>
		</g>
		<g>
			<path fill="#E81C27" d="M23.169,44.66c0.664,0.982,1.49,1.85,2.438,2.564V44.66H23.169z"/>
		</g>
		<g>
			<path fill="#E81C27" d="M32.737,49.342c0.473-0.033,0.936-0.096,1.389-0.189V44.66h-4.26v4.492
				c0.451,0.094,0.914,0.156,1.385,0.189C31.745,49.371,32.243,49.369,32.737,49.342L32.737,49.342z"/>
		</g>
		<g>
			<path fill="#E81C27" d="M42.569,39.98c0.049-0.414,0.074-0.836,0.074-1.262v-3.42h-4.256v4.682H42.569L42.569,39.98z"/>
		</g>
		<g>
			<path fill="#E81C27" d="M34.126,35.299h4.262v-4.681h-4.262V35.299z"/>
		</g>
		<g>
			<path fill="#E81C27" d="M34.126,25.937h-4.26v4.681h4.26V25.937z"/>
		</g>
		<g>
			<path fill="#E81C27" d="M42.644,30.618v-4.681h-4.256v4.681H42.644z"/>
		</g>
	</g>
</g>
<g>
	<path fill="#014D87" d="M23.896,17.426l-0.004,0.005l-3.307-1.224l-1.85,2.988l0.709,1.611l1.795,4.077
		c1.34-0.593,2.738-1.079,4.184-1.447l-1.525-6.01H23.896z"/>
</g>
<g>
	<path fill="#F5F5F5" d="M23.706,20.38c0.117,0.225,0.186,0.48,0.186,0.75c0,0.891-0.727,1.617-1.615,1.617
		c-0.785,0-1.441-0.564-1.588-1.308c0.279,0.494,0.809,0.828,1.414,0.828c0.895,0,1.625-0.729,1.625-1.625
		C23.728,20.553,23.72,20.466,23.706,20.38L23.706,20.38z"/>
</g>
<g>
	<polygon fill="#FFE12C" points="22.224,18.144 22.22,18.17 22.106,18.75 22.552,19.14 22.573,19.157 22.546,19.166 21.987,19.359 
		21.874,19.939 21.868,19.966 21.847,19.948 21.401,19.56 20.843,19.75 20.817,19.759 20.821,19.733 20.935,19.153 20.489,18.764 
		20.47,18.746 20.495,18.737 21.054,18.545 21.169,17.965 21.173,17.938 21.194,17.956 21.64,18.344 22.198,18.153 	"/>
</g>
<g>
	<g>
		<path fill="#014D87" d="M29.278,16.526l-0.006,0.005l-3.059-1.753l-2.318,2.648l1.527,6.01c1.414-0.36,2.875-0.606,4.367-0.729
			L29.278,16.526L29.278,16.526z"/>
	</g>
	<g>
		<g>
			<path fill="#E81C27" d="M25.044,21.944c1.496-0.381,3.039-0.642,4.619-0.771l-0.129-1.562c-1.668,0.137-3.297,0.412-4.877,0.814
				L25.044,21.944L25.044,21.944z"/>
		</g>
		<g>
			<path fill="#E81C27" d="M24.276,18.924c1.662-0.423,3.375-0.712,5.129-0.857l-0.127-1.533c-1.84,0.152-3.637,0.455-5.381,0.898
				L24.276,18.924z"/>
		</g>
	</g>
</g>
<g>
	<g>
		<path fill="#FFE12C" d="M31.995,19.307c-0.164-0.018-0.516,0.745-0.895,0.192c0,0,0.328,0.436,0.287,0.577
			c0.027,0.013-0.32-0.097-0.32-0.053c-0.012,2.066,1.887,2.05,1.879-0.004c0-0.039-0.34,0.067-0.314,0.056
			c-0.039-0.129,0.295-0.595,0.283-0.577C32.54,20.046,32.255,19.35,31.995,19.307C31.989,19.306,31.995,19.307,31.995,19.307z"/>
	</g>
	<g>
		<g>
			<path fill="#FFE12C" d="M33.239,16.388c-0.162-0.018-0.514,0.745-0.891,0.192c0,0,0.326,0.436,0.285,0.577
				c0.025,0.013-0.32-0.097-0.32-0.053c-0.012,2.066,1.885,2.05,1.879-0.004c-0.002-0.039-0.34,0.067-0.314,0.056
				c-0.039-0.129,0.295-0.595,0.283-0.577C33.784,17.128,33.501,16.432,33.239,16.388C33.235,16.388,33.239,16.388,33.239,16.388z"
				/>
		</g>
		<g>
			<path fill="#FFE12C" d="M30.749,16.388c-0.164-0.018-0.516,0.745-0.893,0.192c0,0,0.326,0.436,0.285,0.577
				c0.027,0.013-0.32-0.097-0.32-0.053c-0.012,2.066,1.887,2.05,1.879-0.004c-0.002-0.039-0.34,0.067-0.314,0.056
				c-0.039-0.129,0.295-0.595,0.283-0.577C31.294,17.128,31.009,16.432,30.749,16.388C30.743,16.388,30.749,16.388,30.749,16.388z"
				/>
		</g>
	</g>
</g>
<g>
	<path fill="#014D87" d="M40.116,17.429l-0.008,0.002l-2.322-2.653l-3.053,1.75l-0.514,6.18c1.494,0.124,2.953,0.37,4.369,0.731
		L40.116,17.429L40.116,17.429z"/>
</g>
<g>
	<path fill="#FFE12C" d="M35.337,17.809c0.107-0.033,0.211-0.023,0.313,0.032c0.182,0.076,0.174,0.002,0.348-0.099
		c0.238-0.139,0.787-0.224,1.438,0.108c0.109,0.055,0.727,0.115,0.727,0.115s-0.5,0.23-1.01-0.027c0.18,0.121,0.32,0.287,0.5,0.402
		c0.074,0.046,0.842,0.198,0.842,0.198s-0.604,0.281-0.965-0.02c-0.314-0.263-0.646-0.594-1.111-0.451
		c0.041,0.009,0.326,0.141,0.334,0.129c-0.063,0.124-0.385,0.245-0.475,0.128c-0.045,0.293,0.957,1.259,2.229,1.031
		c0.539-0.208,0.223,0.159,0.102,0.369c-0.055,0.095-0.518,2.348-1.561,1.81c-0.006,0.04,0.572-0.229,0.625-0.606
		c-0.004-0.006-0.182-0.224-0.18-0.214c-0.379,0.009-0.701,1.214-1.164,0.599c-0.025-0.034,0.602-0.28,0.541-0.773
		c-0.068,0.042-0.355,0.037-0.447,0.001c-0.252,0.099-0.188,1.158-0.824,0.861c0.02,0.037,0.672-0.965,0.299-1.018
		c-0.068,0.173-0.266,0.418-0.268,0.596c0.172,0.178-0.457,0.226-0.43,0.01c0.008-0.056,0.49-0.592,0.357-1.143
		c-0.18-0.135,0.016-1.014,0.117-1.201c-0.6,0.014-0.242-0.198-0.133-0.555C35.421,18.011,35.333,17.961,35.337,17.809
		C35.442,17.784,35.337,17.809,35.337,17.809z"/>
</g>
<g>
	<path fill="#014D87" d="M42.757,24.881l2.51-5.686l-1.852-2.987l-3.299,1.222l-1.527,6.009
		C40.028,23.805,41.419,24.29,42.757,24.881L42.757,24.881z"/>
</g>
<g>
	<path fill="#F5F5F5" d="M39.558,19.622c1.652,0.422,3.254,0.979,4.789,1.658l-0.969,2.194c-1.414-0.625-2.889-1.138-4.41-1.526
		L39.558,19.622z"/>
</g>
<g>
	<path fill="#E81C27" d="M43.534,23.121l0.646-1.466c-1.514-0.67-3.094-1.218-4.723-1.635l-0.383,1.5
		c1.547,0.395,3.045,0.916,4.48,1.55L43.534,23.121z"/>
</g>
<g>
	<path fill="#FFE12C" d="M42.019,17.408l0.006,0.026l0.113,0.585l-0.449,0.391l-0.021,0.019l0.025,0.009l0.564,0.194l0.113,0.585
		l0.006,0.026l0.021-0.018l0.449-0.391l0.564,0.193l0.025,0.009l-0.004-0.027l-0.115-0.584l0.449-0.392l0.021-0.018l-0.025-0.01
		L43.2,17.813l-0.115-0.584l-0.006-0.027l-0.02,0.018l-0.451,0.391l-0.564-0.194L42.019,17.408z"/>
</g>
<path opacity="0.1" fill="#1A1626" d="M50.737,8.591c4.096,5.13,6.563,11.622,6.563,18.701c0,16.569-13.43,30.003-29.996,30.003
	c-7.1,0-13.609-2.477-18.744-6.594C14.054,57.58,22.503,62,32.003,62c16.566,0,29.994-13.432,29.994-30
	C61.997,22.527,57.595,14.09,50.737,8.591z"/>
<path opacity="0.3" fill-rule="evenodd" clip-rule="evenodd" fill="#FFFFFF" d="M9.733,19.015c0.549,3.865,7.768-3.7,15.08-10.202
	C29.53,4.63,8.083,7.385,9.733,19.015z"/>
</svg>
