<?xml version="1.0" encoding="utf-8"?>
<!-- Generator: Adobe Illustrator 15.0.0, SVG Export Plug-In . SVG Version: 6.00 Build 0)  -->
<!DOCTYPE svg PUBLIC "-//W3C//DTD SVG 1.1//EN" "http://www.w3.org/Graphics/SVG/1.1/DTD/svg11.dtd">
<svg version="1.1" id="Layer_1" xmlns="http://www.w3.org/2000/svg" xmlns:xlink="http://www.w3.org/1999/xlink" x="0px" y="0px"
	 width="64px" height="64px" viewBox="0 0 64 64" enable-background="new 0 0 64 64" xml:space="preserve">
<path fill="#F5F5F5" d="M2,32c0,11.51,6.486,21.502,16,26.531V5.467C8.486,10.498,2,20.488,2,32z"/>
<path fill="#FFE12C" d="M62,32c0-11.512-6.486-21.502-16-26.533v53.064C55.514,53.502,62,43.51,62,32z"/>
<path fill="#014D87" d="M32,2c-5.057,0-9.818,1.256-14,3.467v53.064C22.182,60.742,26.943,62,32,62c5.059,0,9.82-1.258,14-3.469
	V5.467C41.82,3.256,37.059,2,32,2z"/>
<path fill="#F5F5F5" d="M23.887,38.805 M36.172,26.629 M44.281,38.068c0.689-0.738,0.6-2.063-0.354-2.482
	c-0.195-0.084-0.537,0.172-0.605,0.35c-0.186,0.48,0.527,0.869,0.123,1.303s-0.496-0.297-0.604-0.533
	c-0.244-0.533-0.643-0.83-1.072-1.201c-0.857-0.738-1.332-1.855-1.324-2.982c0.01-1.426,0.318-3.484-1.482-3.977
	c-0.539-0.154-0.965-0.014-1.482-0.105c-0.785-0.285-0.988,0.398-0.9,1.092c-0.824-0.23-0.875,0.785-1.572,0.58
	c0.184-0.363,0.35-0.766,0.58-1.104c0.223,0.111,0.604-0.096,0.604-0.342c0-0.363,0.461-0.734,0.461-1.131
	c0-0.361-0.088-1.023-0.486-1.189c-0.15-0.705-1.271-0.82-1.846-0.859c-0.373-0.027-0.299,0.166-0.598-0.129
	c-0.195-0.193-0.777-0.229-1.027-0.213c0.15-1.078-1.521-1.076-1.371-0.002c-0.174-0.016-0.701,0.023-0.855,0.094
	c-0.416,0.189-0.25,0.398-0.691,0.244c-0.207,0.018-0.434-0.037-0.574,0.129c-0.334-0.121-1.127,0.225-1.287,0.553
	c-0.113,0.234-0.324,0.299-0.418,0.551c-0.082,0.229-0.008,0.383-0.09,0.594c-0.104,0.285,0.207,1.078,0.439,1.266
	c-0.115,0.346,0.23,0.422,0.49,0.438c0.256,0.018,0.568,0.9,0.672,1.102c-0.346,0-0.412,0.074-0.592-0.209
	c-0.23-0.361-0.602-0.475-0.996-0.371c0.113-0.846-0.207-1.344-1.031-1.045c-0.354,0.129-0.369-0.041-0.727-0.063
	c-0.33-0.021-0.83,0.168-1.098,0.328c-1.564,0.932-0.83,2.947-1.059,4.42c-0.092,0.598-0.322,1.176-0.674,1.67
	c-0.393,0.553-1.004,0.863-1.402,1.402c-0.123,0.166-0.428,1.121-0.59,1.121c-0.68,0-0.27-0.713-0.162-0.99
	c0.359-0.93-0.914-0.92-1.248-0.207c-0.574,1.223,0.512,2.756,1.887,2.305c0.021,0.297-0.039,0.617-0.355,0.742
	c-0.377,0.148-0.209,0.859-0.129,1.121c0.191,0.627,0.619,1.93,1.398,1.93c0.701,0,1.758-0.086,0.945-1.07
	c-0.332-0.404-1.041-0.402-0.768-1.119c0.197-0.516,0.896-0.629,1.139-1.186c0.346-0.791,0.332,0.227,0.217,0.188
	c-0.055,0.236,0.486,0.6,0.615,0.801c0.541,0.838,0.754,0.967,1.736,0.967c0.498,0,0.418-0.543,0.271-0.852
	c-0.205-0.438-1.057-0.572-1.057-1.02c0-0.445,0.424-0.645,0.293-1.152c-0.127-0.488-0.518-0.832-0.939-1.092
	c0.504-0.512,1.199-0.74,1.689-1.25c0.408-0.424,0.551-0.957,0.965-1.371c0,0.783,0,1.564,0,2.348c0,0.779-0.141,1.764,0.193,2.494
	c0.701,1.539,2.951,1.908,4.463,1.908s3.762-0.369,4.463-1.908c0.313-0.686,0.191-1.576,0.191-2.309c0-0.848,0-1.695,0-2.543
	c0.328,0,0.631,0.955,0.787,1.158c0.492,0.648,1.309,0.895,1.879,1.471c-0.605,0.371-1.418,1.258-0.752,1.965
	c0.461,0.52-0.387,0.686-0.637,0.891c-0.244,0.201-0.803,1.26-0.104,1.26c0.678,0.287,1.369-0.193,1.658-0.73
	c0.123-0.229,0.766-0.754,0.766-0.971c0-0.264-0.307-0.432,0.111-0.527c0.17,0.709,2.09,1.695,0.865,2.266
	c-0.348,0.162-0.965,0.891-0.568,1.287c0.199,0.199,0.738,0.096,0.979,0.096c0.922,0,1.076-0.926,1.414-1.627
	c0.141-0.293,0.383-1,0.137-1.316c-0.262-0.338-0.523-0.344-0.504-0.852C43.246,38.658,43.875,38.5,44.281,38.068
	C44.582,37.746,44.281,38.068,44.281,38.068z M44.281,35.742 M24.803,24.494c0.152,0.336,0.434,0.588,0.75,0.771
	c-0.162,0.174-1.143,0.717-0.305,0.906c0.426,0.096,0.889,0.082,1.32,0.039c0.475-0.045,3.793-0.977,3.119-1.818
	c1.531-0.195,3.049-0.195,4.578,0.002c-0.418,1.049,2.453,1.752,3.121,1.816c0.432,0.043,0.895,0.057,1.32-0.039
	c0.838-0.189-0.143-0.732-0.305-0.906c0.203-0.119,1.422-1.318,0.578-1.428c-0.25-0.033-0.514,0.133-0.779,0.113
	c-0.354-0.025-0.717-0.113-1.033-0.27c-0.691-0.34-0.473-1.217-1.25-1.543c-0.914-0.383-2.199-0.357-3.178-0.393
	c-1.119-0.041-2.246,0.01-3.357,0.148c-0.828,0.105-1.873,0.16-2.1,1.146c-0.154,0.67-0.893,0.863-1.529,0.91
	C25.396,23.979,24.295,23.695,24.803,24.494C24.957,24.834,24.803,24.494,24.803,24.494z"/>
<path fill="#4C86C7" d="M27.672,30.441h8.648v7.584c0,2.504-4.324,2.504-4.324,2.504s-4.324,0-4.324-2.504V30.441z"/>
<path fill="#F5F5F5" d="M31.406,32.783l-1.012-1.121c-0.178-0.197-0.463-0.197-0.639,0l-1.012,1.123h2.662V32.783z"/>
<path fill="#F5F5F5" d="M31.406,35.023l-1.012-1.121c-0.178-0.199-0.463-0.199-0.639,0l-1.012,1.121H31.406z"/>
<path fill="#F5F5F5" d="M31.406,37.295l-1.012-1.121c-0.178-0.197-0.463-0.197-0.639,0l-1.012,1.121H31.406z"/>
<path fill="#F5F5F5" d="M33.322,39.549l-1.01-1.119c-0.18-0.201-0.465-0.201-0.641-0.002l-1.012,1.121H33.322z"/>
<path fill="#F5F5F5" d="M35.248,32.783l-1.01-1.121c-0.18-0.197-0.463-0.197-0.641,0l-1.012,1.123h2.662V32.783z"/>
<path fill="#F5F5F5" d="M35.248,35.023l-1.01-1.121c-0.18-0.199-0.463-0.199-0.641,0l-1.012,1.121H35.248z"/>
<path fill="#F5F5F5" d="M35.248,37.295l-1.01-1.121c-0.18-0.197-0.463-0.197-0.641,0l-1.012,1.121H35.248z"/>
<path fill="#BCBCBC" d="M38.852,24.354l0.07-0.184c-0.174,0.076-0.367,0.113-0.57,0.117c-0.408,0.008-1.627-0.186-1.963-0.869
	l-0.025,0.016l0.016-0.105c0-0.463-0.33-0.852-0.766-0.938l-0.01-0.002c-1.168-0.213-2.371-0.326-3.602-0.326h-0.051
	c-1.229,0-2.432,0.113-3.6,0.326l-0.01,0.002c-0.438,0.086-0.768,0.475-0.768,0.938l0.016,0.104l-0.023-0.014
	c-0.336,0.684-1.555,0.877-1.965,0.869c-0.201-0.004-0.395-0.041-0.568-0.117l0.068,0.184c0.172,0.383,0.506,0.676,0.91,0.793
	c-0.131,0.414-0.43,0.559-0.75,0.688c0.352,0.111,2.637,0.297,4.127-1.219l0.041-0.01l-0.01-0.016l0.004-0.002l-0.01-0.006
	l-0.225-0.387l-0.029-0.066c0.912-0.139,1.84-0.227,2.791-0.227h0.051c0.955,0,1.887,0.088,2.801,0.229l-0.037,0.064h-0.002
	l-0.225,0.387l-0.008,0.006l0.004,0.002l-0.01,0.016l0.041,0.01c1.49,1.516,3.773,1.33,4.127,1.219
	c-0.32-0.129-0.619-0.273-0.75-0.688C38.348,25.029,38.68,24.736,38.852,24.354z"/>
<path fill="#C09B5A" d="M26.711,32.898c0.342-0.379,0.357-1.068,0.467-1.545c0.158-0.693,0.438-0.922,1.066-0.922
	c0-0.939-0.932-0.582-1.252-0.086c-0.318,0.492-0.637,0.984-0.955,1.479c-0.014-0.311-0.029-0.623-0.029-0.934
	c0.391-0.357,0.959-0.621,1.066-1.189c0.041-0.236,0.186-0.807-0.039-0.99c-0.139-0.113-0.508,0.072-0.637,0.119
	c-0.375,0.135-0.355-0.078-0.734-0.078c-2.074,0-1.787,2.387-1.777,3.771c0.006,1.15-0.447,2.287-1.279,3.086
	c-0.328,0.316-0.715,0.537-0.973,0.924c-0.213,0.318-0.285,1.164-0.793,1.164c-0.578,0-0.895-0.658-0.666-1.146
	c0.342-0.725-0.223-0.84-0.486-0.145c-0.441,1.164,0.922,2.434,1.953,1.516c-0.057,0.523,0.162,1.066-0.326,1.463
	c-0.416,0.34-0.24,0.887,0.066,1.336c0.168,0.348,0.307,1.215,0.799,1.215c0.254,0.082,0.66,0,0.93,0c0-0.439-0.342-0.85-0.797-0.85
	c-0.332-0.275-0.352-0.852-0.174-1.215c0.064-0.131,1.648-1.572,1.281-1.645c0.244,0.047,0.654,0.074,0.76,0.352
	c0.102,0.271-0.045,0.289-0.084,0.52c0.201,0.1,0.357,0.305,0.482,0.484c0.207,0.295,0.355,0.934,0.801,0.934
	c0.221,0.068,0.561,0,0.795,0c0-0.904-1.508-0.818-1.123-1.814c0.131-0.342,0.457-0.527,0.223-0.949
	c-0.154-0.42-0.684-0.785-1.08-0.938c0.791-0.877,2.162-1.33,2.498-2.535c0.984-0.762,0.967-1.166,0.967-2.309
	c-0.285,0-0.414,0.254-0.428,0.492c-0.021,0.373-0.16,0.609-0.488,0.813C26.727,33.15,26.715,33.025,26.711,32.898z"/>
<path fill="#C09B5A" d="M44.039,35.967c-0.117-0.102-0.236-0.102-0.354,0c-0.201,0.215,0.055,0.406,0.139,0.584
	c0.229,0.488-0.088,1.146-0.666,1.146c-0.396,0-0.443-0.396-0.545-0.678c-0.164-0.451-0.451-0.754-0.803-1.063
	c-1.521-1.102-1.699-2.766-1.689-4.488c0.004-0.639,0.082-1.309-0.279-1.877c-0.221-0.35-0.564-0.617-0.965-0.727
	c-0.174-0.047-0.357-0.113-0.539-0.113c-0.211,0-0.352,0.227-0.535,0.154c-0.195-0.08-0.795-0.41-0.902-0.086
	c-0.105,0.314-0.031,0.846,0.109,1.141c0.197,0.408,0.66,0.635,0.984,0.93c0,0.311-0.018,0.623-0.029,0.934
	c-0.291-0.449-0.58-0.898-0.869-1.346c-0.082-0.125-0.16-0.307-0.268-0.41c-0.338-0.512-1.072-0.199-1.072,0.363
	c0.631,0,0.91,0.227,1.068,0.922c0.127,0.551,0.518,1.389,0.434,1.922c-0.33-0.203-0.469-0.438-0.488-0.813
	c-0.014-0.238-0.143-0.492-0.428-0.492c-0.002,1.143-0.018,1.547,0.965,2.309c0.336,1.205,1.707,1.658,2.498,2.535
	c-0.451,0.176-0.83,0.512-1.074,0.928c-0.184,0.479,0.068,0.572,0.219,0.959c0.383,0.996-1.125,0.91-1.125,1.814
	c0.826,0,1.016,0.018,1.455-0.717c0.127-0.211,0.273-0.424,0.461-0.588c0.285-0.25,0.043-0.096,0.043-0.396
	c0-0.473,0.422-0.516,0.795-0.588c0.063-0.012,0.182,0.58,0.26,0.703c0.229,0.359,0.639,0.426,0.895,0.74
	c0.33,0.406,0.316,1.029-0.039,1.416c-0.348,0.297-0.803,0.176-0.803,0.85c0.27,0,0.674,0.082,0.928,0
	c0.492,0,0.633-0.867,0.803-1.215c0.303-0.449,0.48-0.996,0.064-1.336c-0.492-0.4-0.264-0.938-0.326-1.463
	C43.584,39.016,45.08,37.08,44.039,35.967C43.941,35.865,44.523,36.484,44.039,35.967z"/>
<path fill="#E81C27" d="M32.008,26.775c1.033,0,3.117,0.26,3.879,1.045c-0.801,2.131-2.117,1.256-3.861,1.256
	c-1.752,0-3.066,0.877-3.871-1.256C28.914,27.041,30.979,26.775,32.008,26.775C32.523,26.775,31.494,26.775,32.008,26.775z"/>
<path fill="#C8B100" d="M34.699,29.141c-0.672-0.41-1.613-0.498-2.654-0.502c-1.041,0.004-1.975,0.092-2.646,0.502l0.24,1
	c0.607,0.201,1.459,0.324,2.408,0.326c0.949-0.002,1.801-0.125,2.408-0.326L34.699,29.141z"/>
<path fill="#C8B100" d="M35.6,26.637c-0.205-0.195-0.623-0.326-1.045-0.326c-0.166,0-0.326,0.02-0.475,0.057
	c0.021,0.027-0.297-0.49-1.055-0.49c-0.268,0-0.512,0.072-0.701,0.191l-0.004-0.035c-0.027-0.131-0.145-0.23-0.281-0.23
	s-0.26,0.1-0.287,0.23l-0.004,0.035c-0.189-0.121-0.434-0.191-0.699-0.191c-0.742,0-1.076,0.516-1.055,0.49
	c-0.148-0.037-0.309-0.057-0.477-0.057c-2.49,0-1.215,1.838-1.215,1.838l0.203-0.365c-0.576-0.828-0.076-1.33,1.012-1.33
	c0.137,0,0.27,0.014,0.391,0.039c-0.371,0.607,0.324,1.117,0.324,1.117l0.16-0.289c-0.391-0.273-0.422-1.303,0.656-1.303
	c0.268,0,0.51,0.078,0.682,0.207c-0.006,0.064-0.057,0.861-0.113,1.021l0.422,0.438l0.414-0.438c-0.055-0.16-0.105-0.955-0.111-1.02
	c0.172-0.131,0.414-0.209,0.684-0.209c1.107,0,1.146,1.021,0.654,1.303l0.162,0.289c0,0,0.588-0.514,0.322-1.117
	c0.123-0.025,0.254-0.041,0.391-0.039c1.289,0.02,1.375,1.051,1.012,1.33l0.205,0.365C35.771,28.148,36.33,27.334,35.6,26.637z"/>
<path fill="#005BBF" d="M31.695,25.465c0-0.197,0.154-0.355,0.344-0.355s0.344,0.158,0.344,0.355s-0.154,0.357-0.344,0.357
	S31.695,25.662,31.695,25.465"/>
<polygon fill="#C8B100" points="31.949,24.467 31.949,24.658 31.762,24.658 31.762,24.854 31.949,24.854 31.949,25.121 
	31.949,25.416 31.713,25.416 31.695,25.467 31.723,25.605 31.725,25.607 32.354,25.607 32.355,25.605 32.383,25.467 32.367,25.416 
	32.137,25.416 32.137,25.123 32.137,24.854 32.326,24.854 32.326,24.658 32.137,24.658 32.137,24.467 "/>
<path fill="#E81C27" d="M32.045,30.328c-0.857,0-1.633-0.109-2.223-0.275c0.59-0.168,1.365-0.27,2.223-0.271
	c0.857,0.002,1.637,0.104,2.227,0.271C33.682,30.219,32.902,30.328,32.045,30.328"/>
<path opacity="0.1" fill="#1A1626" d="M50.738,8.591c4.096,5.13,6.563,11.622,6.563,18.701c0,16.569-13.428,30.003-29.994,30.003
	c-7.102,0-13.609-2.477-18.744-6.594C14.057,57.58,22.504,62,32.004,62C48.57,62,62,48.568,62,32
	C62,22.527,57.596,14.09,50.738,8.591z"/>
<path opacity="0.5" fill-rule="evenodd" clip-rule="evenodd" fill="#FFFFFF" d="M9.736,19.015c0.549,3.865,7.766-3.7,15.08-10.202
	C29.533,4.63,8.084,7.385,9.736,19.015z"/>
</svg>
