<?xml version="1.0" encoding="utf-8"?>
<!-- Generator: Adobe Illustrator 15.0.0, SVG Export Plug-In . SVG Version: 6.00 Build 0)  -->
<!DOCTYPE svg PUBLIC "-//W3C//DTD SVG 1.1//EN" "http://www.w3.org/Graphics/SVG/1.1/DTD/svg11.dtd">
<svg version="1.1" id="Layer_1" xmlns="http://www.w3.org/2000/svg" xmlns:xlink="http://www.w3.org/1999/xlink" x="0px" y="0px"
	 width="64px" height="64px" viewBox="0 0 64 64" enable-background="new 0 0 64 64" xml:space="preserve">
<path fill="#ED7612" d="M2,32C2,15.436,15.438,2,32,2c16.572,0,30,13.436,30,30c0,16.57-13.428,30-30,30C15.438,62,2,48.57,2,32z"/>
<path fill="#E64C18" d="M45.778,5.354C53.172,10.61,58,19.24,58,29c0,16.019-12.98,29-29,29c-9.759,0-18.39-4.829-23.646-12.224
	C10.347,55.412,20.404,62,32,62c16.571,0,30-13.43,30-30C62,20.402,55.413,10.347,45.778,5.354z"/>
<path fill-rule="evenodd" clip-rule="evenodd" fill="#F59E01" d="M10.218,17.397c0.446,3.134,6.31-2.997,12.248-8.267
	C26.298,5.741,8.878,7.973,10.218,17.397z"/>
<path fill="#FFFFFF" d="M23.266,20.396c2.338-2.389,5.311-3.584,8.92-3.584c4.83,0,8.361,1.602,10.594,4.805
	c1.234,1.797,1.896,3.602,1.986,5.412h-6.063c-0.387-1.391-0.881-2.439-1.484-3.148c-1.08-1.26-2.682-1.891-4.803-1.891
	c-2.16,0-3.863,0.889-5.111,2.668c-1.246,1.777-1.869,4.295-1.869,7.549s0.658,5.691,1.973,7.313
	c1.316,1.621,2.988,2.432,5.018,2.432c2.078,0,3.664-0.695,4.756-2.086c0.604-0.748,1.104-1.871,1.502-3.367h6.023
	c-0.52,3.164-1.848,5.736-3.982,7.717c-2.137,1.982-4.871,2.973-8.209,2.973c-4.129,0-7.375-1.338-9.736-4.016
	c-2.363-2.689-3.545-6.379-3.545-11.063C19.234,27.043,20.578,23.139,23.266,20.396z"/>
</svg>
