<?xml version="1.0" encoding="utf-8"?>
<!-- Generator: Adobe Illustrator 15.0.0, SVG Export Plug-In . SVG Version: 6.00 Build 0)  -->
<!DOCTYPE svg PUBLIC "-//W3C//DTD SVG 1.1//EN" "http://www.w3.org/Graphics/SVG/1.1/DTD/svg11.dtd">
<svg version="1.1" id="Layer_1" xmlns="http://www.w3.org/2000/svg" xmlns:xlink="http://www.w3.org/1999/xlink" x="0px" y="0px"
	 width="64px" height="64px" viewBox="0 0 64 64" enable-background="new 0 0 64 64" xml:space="preserve">
<path fill="#E81C27" d="M2,32c0,16.568,13.432,30,30,30s30-13.432,30-30H2z"/>
<path fill="#F5F5F5" d="M32,2c16.568,0,30,13.432,30,30H32V2z"/>
<path fill="#014D87" d="M32,2C15.432,2,2,15.432,2,32h30V2z"/>
<polygon fill="#F5F5F5" points="20,21.717 24.944,25 23.077,19.658 28,16.25 21.901,16.25 20,11 18.153,16.25 12,16.25 
	16.923,19.658 15.056,25 "/>
<path opacity="0.1" fill="#1A1626" d="M50.736,8.59c4.096,5.131,6.563,11.623,6.563,18.701c0,16.568-13.428,30.004-29.994,30.004
	c-7.101,0-13.609-2.479-18.744-6.594C14.055,57.58,22.503,62,32.002,62c16.566,0,29.996-13.432,29.996-30
	C61.998,22.527,57.594,14.09,50.736,8.59z"/>
<path opacity="0.3" fill-rule="evenodd" clip-rule="evenodd" fill="#FFFFFF" d="M9.734,19.014c0.549,3.865,7.767-3.699,15.08-10.201
	C29.531,4.629,8.083,7.385,9.734,19.014z"/>
</svg>
