<?xml version="1.0" encoding="utf-8"?>
<!-- Generator: Adobe Illustrator 15.0.0, SVG Export Plug-In . SVG Version: 6.00 Build 0)  -->
<!DOCTYPE svg PUBLIC "-//W3C//DTD SVG 1.1//EN" "http://www.w3.org/Graphics/SVG/1.1/DTD/svg11.dtd">
<svg version="1.1" id="Layer_1" xmlns="http://www.w3.org/2000/svg" xmlns:xlink="http://www.w3.org/1999/xlink" x="0px" y="0px"
	 width="64px" height="64px" viewBox="0 0 64 64" enable-background="new 0 0 64 64" xml:space="preserve">
<path fill="#529320" d="M32,1.999c-5.318,0-10.311,1.391-14.643,3.818l-0.145,52.283c4.365,2.479,9.408,3.9,14.787,3.9
	c14.926,0,27.301-10.902,29.61-25.178v-9.646C59.301,12.901,46.926,1.999,32,1.999z"/>
<path fill="#FFE12C" d="M60.064,29.577L17.357,8.038v0.357h-3.846c-0.348,0.273-0.693,0.549-1.029,0.836v45.537
	c0.336,0.287,0.682,0.563,1.029,0.836h3.701v0.426l43.196-21.547C60.475,33.671,62,32.831,62,31.999
	C62,31.169,60.131,30.39,60.064,29.577z"/>
<path fill="#F5F5F5" d="M13.496,8.396l48.5,23.408c-0.012-1.574-0.143-3.119-0.387-4.627L17.357,5.817
	C16.001,6.577,14.71,7.44,13.496,8.396z"/>
<path fill="#E81C27" d="M12.453,12.024H9.634C4.892,17.329,2,24.323,2,31.999c0,7.678,2.893,14.672,7.635,19.977h2.818
	l19.975-19.977L12.453,12.024z"/>
<path fill="#302C3B" d="M12.482,9.226c-1.014,0.871-1.969,1.803-2.859,2.799l19.975,19.975L9.623,51.976
	c0.891,0.996,1.846,1.928,2.859,2.797l22.774-22.773L12.482,9.226z"/>
<path fill="#F5F5F5" d="M61.609,36.823c0.244-1.508,0.375-3.053,0.387-4.629l-48.5,23.41c1.215,0.955,2.506,1.818,3.861,2.578
	L61.609,36.823z"/>
<path opacity="0.1" fill="#1A1626" d="M50.738,8.591c4.096,5.129,6.563,11.621,6.563,18.701c0,16.568-13.43,30.004-29.997,30.004
	c-7.1,0-13.609-2.479-18.744-6.594c5.494,6.879,13.943,11.299,23.443,11.299c16.567,0,29.995-13.432,29.995-30.002
	C61.998,22.526,57.596,14.089,50.738,8.591z"/>
<path opacity="0.3" fill-rule="evenodd" clip-rule="evenodd" fill="#FFFFFF" d="M9.734,19.015c0.549,3.865,7.768-3.701,15.08-10.203
	C29.531,4.63,8.083,7.384,9.734,19.015z"/>
</svg>
