<?xml version="1.0" encoding="utf-8"?>
<!-- Generator: Adobe Illustrator 15.0.0, SVG Export Plug-In . SVG Version: 6.00 Build 0)  -->
<!DOCTYPE svg PUBLIC "-//W3C//DTD SVG 1.1//EN" "http://www.w3.org/Graphics/SVG/1.1/DTD/svg11.dtd">
<svg version="1.1" id="Layer_1" xmlns="http://www.w3.org/2000/svg" xmlns:xlink="http://www.w3.org/1999/xlink" x="0px" y="0px"
	 width="64px" height="64px" viewBox="0 0 64 64" enable-background="new 0 0 64 64" xml:space="preserve">
<g>
	<path fill="#0FB4D4" d="M62,32c0-13.061-8.35-24.167-20-28.286v56.571C53.65,56.166,62,45.061,62,32z"/>
</g>
<g>
	<path fill="#0FB4D4" d="M2,32c0,13.061,8.35,24.166,20,28.285V3.714C10.35,7.833,2,18.939,2,32z"/>
</g>
<g>
	<path fill="#F5F5F5" d="M42,3.714C38.871,2.607,35.506,2,32,2c-3.508,0-6.873,0.607-10,1.714v56.571C25.127,61.393,28.492,62,32,62
		c3.506,0,6.871-0.607,10-1.715V3.714z"/>
</g>
<path fill="#529320" d="M27.051,25.938c0,0-0.68-0.193-1.223-0.184c0.008-0.011,0.014-0.019,0.02-0.028
	c0.43-0.655,0.57-1.881,0.57-1.881s-1.059,0.622-1.49,1.272c-0.225-0.472-0.635-0.957-0.635-0.957s-0.5,0.563-0.424,1.108
	s0.77,1.36,0.77,1.36s1.031,0.298,1.564,0.146C26.736,26.621,27.051,25.938,27.051,25.938z"/>
<path fill="#529320" d="M26.07,27.505c0,0-0.709-0.013-1.23,0.136c0.004-0.012,0.01-0.021,0.014-0.033
	c0.242-0.742,0.059-1.963,0.059-1.963s-0.859,0.873-1.107,1.613c-0.34-0.399-0.865-0.763-0.865-0.763s-0.334,0.673-0.119,1.181
	c0.217,0.508,1.1,1.116,1.1,1.116s1.072,0.022,1.549-0.262C25.945,28.245,26.07,27.505,26.07,27.505z"/>
<path fill="#529320" d="M25.529,29.27c0,0-0.688,0.17-1.15,0.447c0-0.012,0.004-0.022,0.002-0.034
	c0.041-0.779-0.453-1.912-0.453-1.912s-0.604,1.064-0.65,1.842c-0.432-0.297-1.031-0.513-1.031-0.513s-0.15,0.735,0.191,1.17
	c0.34,0.436,1.352,0.796,1.352,0.796s1.043-0.253,1.428-0.651C25.604,30.018,25.529,29.27,25.529,29.27z"/>
<path fill="#529320" d="M25.469,31.113c0,0-0.619,0.342-0.996,0.729c-0.002-0.013-0.002-0.022-0.006-0.034
	c-0.162-0.765-0.936-1.73-0.936-1.73s-0.307,1.184-0.148,1.946c-0.494-0.176-1.131-0.23-1.131-0.23s0.047,0.749,0.49,1.082
	c0.443,0.332,1.514,0.42,1.514,0.42s0.941-0.513,1.209-0.994C25.734,31.817,25.469,31.113,25.469,31.113z"/>
<path fill="#529320" d="M25.891,32.91c0,0-0.51,0.488-0.771,0.959c-0.006-0.012-0.008-0.021-0.016-0.031
	c-0.357-0.697-1.355-1.431-1.355-1.431s0.014,1.222,0.365,1.919c-0.523-0.043-1.154,0.066-1.154,0.066s0.242,0.711,0.756,0.92
	c0.516,0.207,1.572,0.018,1.572,0.018s0.775-0.738,0.908-1.273C26.33,33.521,25.891,32.91,25.891,32.91z"/>
<path fill="#529320" d="M26.766,34.537c0,0-0.363,0.602-0.496,1.125c-0.006-0.01-0.012-0.018-0.021-0.027
	c-0.527-0.58-1.682-1.033-1.682-1.033s0.33,1.176,0.852,1.76c-0.516,0.094-1.096,0.361-1.096,0.361s0.418,0.625,0.969,0.693
	c0.553,0.068,1.523-0.387,1.523-0.387s0.557-0.912,0.547-1.463C27.35,35.016,26.766,34.537,26.766,34.537z"/>
<path fill="#529320" d="M28.037,35.885c0,0-0.195,0.674-0.188,1.213c-0.008-0.008-0.016-0.014-0.027-0.021
	c-0.66-0.424-1.895-0.564-1.895-0.564s0.627,1.051,1.281,1.48c-0.475,0.223-0.963,0.631-0.963,0.631s0.566,0.496,1.117,0.42
	c0.549-0.076,1.369-0.764,1.369-0.764s0.301-1.025,0.146-1.555S28.037,35.885,28.037,35.885z"/>
<path fill="#529320" d="M29.613,36.857c0,0-0.012,0.703,0.139,1.221c-0.012-0.004-0.021-0.01-0.033-0.012
	c-0.748-0.242-1.977-0.061-1.977-0.061s0.879,0.855,1.623,1.102c-0.4,0.338-0.768,0.855-0.768,0.855s0.678,0.334,1.189,0.121
	c0.512-0.215,1.125-1.092,1.125-1.092s0.023-1.066-0.266-1.537C30.359,36.982,29.613,36.857,29.613,36.857z"/>
<path fill="#529320" d="M36.947,25.938c0,0,0.68-0.193,1.223-0.184c-0.006-0.011-0.014-0.019-0.02-0.028
	c-0.428-0.655-0.57-1.881-0.57-1.881s1.059,0.622,1.49,1.272c0.225-0.472,0.637-0.957,0.637-0.957s0.5,0.563,0.424,1.108
	s-0.771,1.36-0.771,1.36s-1.031,0.298-1.564,0.146C37.262,26.621,36.947,25.938,36.947,25.938z"/>
<path fill="#529320" d="M37.93,27.505c0,0,0.707-0.013,1.229,0.136c-0.004-0.012-0.01-0.021-0.012-0.033
	c-0.244-0.742-0.061-1.963-0.061-1.963s0.861,0.873,1.107,1.613c0.342-0.399,0.865-0.763,0.865-0.763s0.334,0.673,0.119,1.181
	c-0.217,0.508-1.098,1.116-1.098,1.116s-1.074,0.022-1.551-0.262C38.055,28.245,37.93,27.505,37.93,27.505z"/>
<path fill="#529320" d="M38.469,29.27c0,0,0.688,0.17,1.15,0.447c0-0.012-0.002-0.022-0.002-0.034
	c-0.041-0.779,0.453-1.912,0.453-1.912s0.605,1.064,0.65,1.842c0.432-0.297,1.033-0.513,1.033-0.513s0.148,0.735-0.191,1.17
	c-0.342,0.436-1.354,0.796-1.354,0.796s-1.043-0.253-1.428-0.651C38.396,30.018,38.469,29.27,38.469,29.27z"/>
<path fill="#529320" d="M38.529,31.113c0,0,0.619,0.342,0.996,0.729c0.002-0.013,0.002-0.022,0.006-0.034
	c0.164-0.765,0.938-1.73,0.938-1.73s0.305,1.184,0.148,1.946c0.492-0.176,1.131-0.23,1.131-0.23s-0.049,0.749-0.492,1.082
	c-0.443,0.332-1.512,0.42-1.512,0.42s-0.943-0.513-1.211-0.994C38.266,31.817,38.529,31.113,38.529,31.113z"/>
<path fill="#529320" d="M38.107,32.91c0,0,0.51,0.488,0.771,0.959c0.006-0.012,0.01-0.021,0.016-0.031
	c0.357-0.697,1.355-1.431,1.355-1.431s-0.012,1.222-0.363,1.919c0.523-0.043,1.152,0.066,1.152,0.066s-0.242,0.711-0.756,0.92
	c-0.514,0.207-1.572,0.018-1.572,0.018s-0.775-0.738-0.908-1.273S38.107,32.91,38.107,32.91z"/>
<path fill="#529320" d="M37.232,34.537c0,0,0.363,0.602,0.496,1.125c0.008-0.01,0.012-0.018,0.021-0.027
	c0.527-0.58,1.682-1.033,1.682-1.033s-0.33,1.176-0.852,1.76c0.518,0.094,1.096,0.361,1.096,0.361s-0.418,0.625-0.969,0.693
	s-1.523-0.387-1.523-0.387s-0.557-0.912-0.545-1.463C36.648,35.016,37.232,34.537,37.232,34.537z"/>
<path fill="#529320" d="M35.963,35.885c0,0,0.193,0.674,0.186,1.213c0.01-0.008,0.018-0.014,0.027-0.021
	c0.66-0.424,1.895-0.564,1.895-0.564s-0.627,1.051-1.281,1.48c0.475,0.223,0.965,0.631,0.965,0.631s-0.568,0.496-1.117,0.42
	c-0.551-0.076-1.371-0.764-1.371-0.764s-0.301-1.025-0.146-1.555S35.963,35.885,35.963,35.885z"/>
<path fill="#529320" d="M34.385,36.857c0,0,0.012,0.703-0.137,1.221c0.01-0.004,0.02-0.01,0.031-0.012
	c0.75-0.242,1.979-0.061,1.979-0.061s-0.881,0.855-1.625,1.102c0.4,0.338,0.768,0.855,0.768,0.855s-0.678,0.334-1.189,0.121
	c-0.512-0.215-1.123-1.092-1.123-1.092s-0.023-1.066,0.264-1.537C33.639,36.982,34.385,36.857,34.385,36.857z"/>
<polygon fill="#BCBCBC" points="39.996,24.072 25.996,36.994 27.162,38.072 "/>
<polygon fill="#BCBCBC" points="24.004,24.072 38.004,36.994 36.836,38.072 "/>
<path fill="#FFE12C" d="M29.188,32.998h4c0,0,1-0.998,1-4c0-3.008-1-4-1-4h-4c0,0,1,0.992,1,4
	C30.188,32,29.188,32.998,29.188,32.998z"/>
<path fill="#529320" d="M31,20.834c0,0-0.02,0.076-0.018,0.215c-0.01,0.132,0.033,0.339,0.086,0.567
	c0.039,0.112,0.084,0.235,0.131,0.37c0.08,0.125,0.15,0.26,0.227,0.396c0.061,0.143,0.215,0.266,0.322,0.404
	c0.117,0.137,0.219,0.286,0.389,0.411c0.301,0.271,0.625,0.544,1.029,0.796c0.207,0.143,0.418,0.289,0.633,0.438
	c0.229,0.163,0.424,0.281,0.668,0.514c0.494,0.451,0.934,0.907,1.287,1.452c0.18,0.27,0.365,0.542,0.498,0.843
	c0.156,0.291,0.289,0.596,0.396,0.912c0.229,0.625,0.365,1.293,0.398,1.961c0.053,0.668-0.055,1.338-0.217,1.961
	c-0.174,0.622-0.465,1.184-0.813,1.65c-0.148,0.25-0.355,0.441-0.543,0.635c-0.189,0.191-0.373,0.367-0.582,0.496
	c-0.199,0.137-0.391,0.268-0.57,0.391c-0.191,0.105-0.385,0.18-0.559,0.26c-0.342,0.166-0.652,0.271-0.92,0.324
	c-0.525,0.123-0.82,0.17-0.82,0.17s0.236-0.207,0.639-0.525c0.211-0.145,0.432-0.363,0.678-0.605
	c0.264-0.225,0.504-0.523,0.752-0.838c0.141-0.146,0.242-0.328,0.342-0.514s0.24-0.348,0.305-0.561
	c0.184-0.393,0.291-0.828,0.373-1.275c0.068-0.453,0.057-0.928,0.002-1.41c-0.063-0.48-0.164-0.977-0.35-1.449
	c-0.074-0.244-0.172-0.479-0.289-0.707c-0.102-0.235-0.223-0.459-0.354-0.676c-0.254-0.438-0.551-0.861-0.832-1.191
	c-0.379-0.391-0.746-0.77-1.096-1.128c-0.186-0.204-0.385-0.37-0.539-0.585c-0.146-0.221-0.287-0.434-0.422-0.639
	c-0.141-0.191-0.238-0.415-0.316-0.629c-0.072-0.219-0.178-0.395-0.199-0.607c-0.031-0.202-0.064-0.387-0.082-0.556
	c0.008-0.177,0.025-0.337,0.039-0.476c0.045-0.279,0.131-0.484,0.207-0.612C30.947,20.887,31,20.834,31,20.834z"/>
<path fill="#594640" d="M25.406,39.9c-0.324,0.322-0.848,0.322-1.172,0l0,0c-0.322-0.324-0.322-0.848,0-1.172l2.342-2.344
	c0.324-0.322,0.85-0.322,1.174,0l0,0c0.322,0.324,0.322,0.85,0,1.172L25.406,39.9z"/>
<path fill="#594640" d="M38.592,39.9c0.324,0.322,0.848,0.322,1.172,0l0,0c0.324-0.324,0.324-0.848,0-1.172l-2.342-2.344
	c-0.324-0.322-0.848-0.322-1.174,0l0,0c-0.322,0.324-0.322,0.85,0,1.172L38.592,39.9z"/>
<path opacity="0.1" fill="#1A1626" d="M50.736,8.591c4.096,5.13,6.563,11.622,6.563,18.701c0,16.567-13.43,30.003-29.994,30.003
	c-7.102,0-13.611-2.479-18.746-6.594C14.053,57.58,22.502,62,32.002,62c16.566,0,29.994-13.432,29.994-30
	C61.996,22.527,57.594,14.09,50.736,8.591z"/>
<path opacity="0.3" fill-rule="evenodd" clip-rule="evenodd" fill="#FFFFFF" d="M9.734,19.015c0.549,3.865,7.766-3.7,15.08-10.202
	C29.531,4.63,8.082,7.385,9.734,19.015z"/>
</svg>
