<?xml version="1.0" encoding="utf-8"?>
<!-- Generator: Adobe Illustrator 15.0.0, SVG Export Plug-In . SVG Version: 6.00 Build 0)  -->
<!DOCTYPE svg PUBLIC "-//W3C//DTD SVG 1.1//EN" "http://www.w3.org/Graphics/SVG/1.1/DTD/svg11.dtd">
<svg version="1.1" id="Layer_1" xmlns="http://www.w3.org/2000/svg" xmlns:xlink="http://www.w3.org/1999/xlink" x="0px" y="0px"
	 width="64px" height="64px" viewBox="0 0 64 64" enable-background="new 0 0 64 64" xml:space="preserve">
<rect x="12" y="12" fill="#014D87" width="20" height="20"/>
<polygon fill="#F5F5F5" points="18.912,8.14 18.912,14 11.6,14 26,32 32,32 32,24.5 "/>
<path fill="#0FB4D4" d="M32,2v30H2c0,16.568,13.432,30,30,30s30-13.432,30-30S48.568,2,32,2z"/>
<path fill="#F5F5F5" d="M11,18.912H5.01C3.088,22.869,2,27.306,2,32h12V13.912h-3V18.912z"/>
<polygon fill="#E81C27" points="32,27.059 19,11 13,11 30,32 32,32 "/>
<path fill="#F5F5F5" d="M18.912,5.012V11H11v3h21V2C27.305,2,22.867,3.088,18.912,5.012z"/>
<path fill="#E81C27" d="M32,5H18.912C12.857,7.94,7.939,12.857,5,18.912V32h6V11h21V5z"/>
<path fill="#F5F5F5" d="M39.146,26.894V40.04c0,4.301,7.77,6.854,7.77,6.854s7.77-2.553,7.77-6.854V26.894H39.146z"/>
<polygon fill="#E81C27" points="54.686,31.971 54.686,26.894 39.146,26.894 39.146,31.971 45.838,31.971 45.838,37.433 
	39.146,37.433 39.146,39.587 45.838,39.587 45.838,46.483 46.916,46.894 47.992,46.483 47.992,39.587 54.686,39.587 54.686,37.433 
	47.992,37.433 47.992,31.971 "/>
<path fill="#FFE12C" d="M54.174,30.613c0-0.125-0.35-0.142-0.375-0.327c-0.063-0.493-0.238-0.678-0.502-0.749
	c-0.266-0.071-0.441,0.044-0.441,0.044c-0.078,0.115-0.475,0.115-0.695,0.123c-0.221,0.009-0.662-0.527-0.717-0.555
	c0.285,0.004,0.5-0.128,0.822-0.466c0.352-0.37,0.604-0.227,0.604-0.227c-0.17,0.345,0.057,0.315,0.057,0.315
	c0.467-0.238-0.07-1.126-0.211-1.1c-0.619,0.865-0.609-0.107-1.506-0.16c-0.482-0.028-1.551,0.211-1.902,0.353
	c-0.354,0.141-1.475-0.179-2.137-0.097c-1.453,0.182-1.496-0.578-1.496-0.578s-0.947,0.813,0.859,1.625c0,0-0.703-0.691,2.709-0.492
	c0.775-0.132,2.121-0.661,2.48-0.322c0,0,0.041,0.268,0.191,0.339c0,0,0.02,0.302-0.986,0.246c-2.451-0.136-5.947,1.094-6.379,0.24
	c-0.273-0.543,0.742-0.742,0.742-0.742c-0.23-0.282-0.715-0.132-0.715-0.132c0.01-0.344-0.131-0.74-0.131-0.74
	c-0.477,0.053-0.748,0.449-0.748,0.449c-0.018-0.352-0.469-0.554-0.469-0.554c0.168,0.202,0.063,2.018-1.162,1.457
	c0,0-0.68-0.403-0.92-0.388c-0.238,0.015-1.521,0.612-1.17,0.948c0,0,0.99-0.632,1.471-0.118c0.572,0.611,1.541,0.568,1.541,0.568
	c-0.123,0.264-0.473,1.057-0.473,1.057c0.004,0.001,0.006,0.001,0.01,0.002c-0.004,0.007-0.01,0.014-0.012,0.021
	c0,0-0.537,0.187-0.775,0.448c0,0-1.715-1.352-1.838-0.045c-0.029,0.312,1.404,0.75,2.439,0.412c0.59-0.141,0.785-0.382,0.785-0.382
	c0.186-0.036,2.795,0.218,5.557-1.196c0.572-0.819,1.428-0.393,1.428-0.393S48.74,29.53,48.857,30.4
	c0.025,0.189,0.625,0.353,0.469,0.602c-0.002,0.004-0.006,0.008-0.008,0.012c-0.264,0.361-0.975-0.431-1.316-0.526
	c-0.158-0.044-0.658,0.106-0.244,0.612c0.453,0.554,1.307,1.289,2.668-0.119c0.232-0.241-0.273-0.37-0.379-0.52
	c-0.107-0.15,0.025-0.124,0.025-0.124c0.424,0.229,0.459-0.502,0.459-0.502c0.043,0.422,0.414,0.537,0.414,0.537
	c0.229-0.229,0.061-0.696,0.061-0.696c0.547,0.978,0.877,0.822,0.877,0.822c-0.293-0.182-0.146-0.426-0.146-0.426
	c0.266,1.039,1.348,0.132,1.348,0.132c-0.053,0.15,0.002,0.238,0.098,0.335c0.098,0.097,0.211,0.141,0.158,0.317
	S52.785,31,52.785,31s-0.492-0.026-0.449,0.388C52.363,31.484,54.174,31.603,54.174,30.613z"/>
<path fill="#BCBCBC" d="M45.061,44.647L45.061,44.647C45.086,44.655,45.076,44.652,45.061,44.647z"/>
<path fill="#BCBCBC" d="M44.221,43.636c-0.033-0.304-0.406-1.006-0.406-1.006c1.059,0.143,1.457-0.984,1.457-0.984
	c-0.266,0.107-0.934-0.196-0.934-0.196c0.973-0.093,0.934-1.098,0.934-1.098c-0.158,0.675-1.447,0.584-1.447,0.584
	c0.371-0.161,0.582-0.903,0.582-0.903c-0.084,0.266-0.777,0.482-1.221,0.732c-0.443,0.248-0.211,0.965-0.211,0.965
	c-0.125-0.086-0.365-0.467-0.412-0.803c-0.047-0.334-0.18-0.467-0.482-0.506c-0.305-0.038-0.482,0.305-0.482,0.305l-0.451,0.232
	l0.459,0.016c0,0,0.326,0.109,0.326,0.367c0,0.256-0.287,1.283,0.188,1.859c0.318,0.387,1.465,0.615,1.545,0.63l0.438,1.061
	l0.381-0.419l0.766,0.035C44.969,44.461,44.221,43.636,44.221,43.636z"/>
<path fill="#E81C27" d="M53.457,40.19L53.457,40.19L53.457,40.19c0,0-0.313-0.09-0.791-0.277s-1.018,0.524-1.018,0.524l0,0
	c-0.217,0.382,0.383,0.366,0.396,0.299c0.016-0.067,0.205-0.261,0.438-0.403c0.23-0.143,0.475,0.336,0.729,0.336
	C53.463,40.669,53.457,40.203,53.457,40.19L53.457,40.19z"/>
<path fill="#FFE12C" d="M50.027,41.169c0,0,0-0.947,0.852-0.979c0.539-0.021,1.721,0.602,1.838,1.129
	c0.123,0.545-0.256,0.934-0.596,1.098"/>
<path fill="#529320" d="M53.207,33.378l0.93,0.014c-0.236-0.417-1.023-0.44-1.652-0.338c0.395-0.126,0.883-0.263,0.959-0.277
	c-0.195-0.145-1.012-0.65-2.051,0.379h-0.016c-1.039-1.029-1.857-0.523-2.053-0.379c0.078,0.015,0.564,0.151,0.961,0.277
	c-0.629-0.103-1.418-0.079-1.652,0.338l0.93-0.014c-0.389,0.187-0.602,0.205-0.658,0.662c0.023-0.009,0.506-0.137,1-0.268
	c-0.27,0.135-0.51,0.298-0.619,0.465c0.441,0.035,0.828-0.084,1.121-0.225c-0.182,0.233-0.295,0.488-0.277,0.635
	c0.219-0.039,0.443-0.227,0.629-0.424c-0.113,0.432-0.104,0.871,0.02,1.049c0.182-0.139,0.313-0.381,0.408-0.639l-0.014,0.252h0.391
	l-0.016-0.357c0.098,0.297,0.24,0.586,0.443,0.744c0.125-0.178,0.133-0.617,0.021-1.049c0.184,0.197,0.41,0.385,0.629,0.424
	c0.018-0.146-0.098-0.401-0.279-0.635c0.293,0.141,0.682,0.26,1.121,0.225c-0.109-0.167-0.35-0.33-0.617-0.465
	c0.494,0.131,0.977,0.259,1,0.268C53.807,33.583,53.596,33.564,53.207,33.378z"/>
<rect x="51.07" y="34.224" fill="#E81C27" width="0.629" height="2.775"/>
<g>
	<path fill="#529320" d="M49.959,41.162c-0.641-0.003-0.137,1.406-0.426,1.249c-0.406-0.223-0.633,1.061,0.01,1.488
		c1.029,0.686,1.846-0.152,1.725-0.375c-0.207-0.378,0.934-0.568,0.934-0.859C52.201,41.841,50.635,41.165,49.959,41.162z"/>
</g>
<g>
	<path fill="#529320" d="M43.854,34.268c-0.006-0.022-0.014-0.048-0.021-0.072c-0.021-0.221-0.094-0.395-0.24-0.457
		c-0.234-0.276-0.475-0.121-0.678,0.188c-0.135,0.088-0.225,0.174-0.283,0.246c0.023-0.864,0.148-1.666,1.271-0.563
		c0,0,0.027-0.446-0.617-0.938c-0.674-0.515-0.947,0.118-1.021,0.909c-0.086-0.146-0.287-0.376-0.742-0.572
		c-0.809-0.347-0.91,0.359-0.787,1.129c-0.32-0.394-0.719-0.57-1.09-0.023c-0.408,0.598-0.232,0.893-0.232,0.893
		c0.721-1.391,1.123-0.527,1.469,0.127c-0.455-0.363-1.094-0.67-1.205-0.016c-0.084,0.496,0.133,0.639,0.133,0.639
		c0.057-1.58,1.197,0.071,1.529-0.084c0.002-0.002,0.006-0.005,0.008-0.008c0.012-0.008,0.02-0.025,0.023-0.054
		c0.111-0.165,0.145-0.628,0.24-0.972c0.326,0.225,0.662,0.885,0.873,0.828c0.004,0,0.006-0.003,0.01-0.006
		c0.014-0.005,0.025-0.023,0.035-0.053c0.107-0.109,0.209-0.393,0.324-0.672c0.371-0.055,0.377,0.996,0.607,1.014
		c0.004,0.001,0.006,0,0.008-0.002c0.014,0,0.027-0.011,0.045-0.031c0.355-0.178,1.219-1.703,1.217-0.168
		c0,0,0.189-0.19,0.133-0.703c-0.072-0.661-0.602-0.258-1,0.198c0.313-0.755,0.68-1.7,1.244-0.366c0,0,0.158-0.344-0.17-0.908
		C44.58,33.16,44.162,33.634,43.854,34.268z M41.434,34.194c-0.098-0.02-0.189-0.002-0.271,0.064
		c-0.02-0.111-0.033-0.221-0.037-0.32c0.324-0.299,0.537-0.285,0.686-0.117C41.648,33.829,41.525,33.98,41.434,34.194z
		 M41.238,34.64c0.025-0.023,0.049-0.04,0.074-0.053c-0.016,0.069-0.027,0.139-0.039,0.209C41.262,34.744,41.25,34.692,41.238,34.64
		z M42.729,34.269c-0.037,0.082-0.072,0.168-0.104,0.252c0-0.063,0.002-0.128,0.002-0.193
		C42.662,34.307,42.697,34.287,42.729,34.269z M42.254,33.706c-0.004-0.008-0.008-0.016-0.012-0.023
		c0.004,0.002,0.008,0.004,0.012,0.006C42.254,33.694,42.254,33.7,42.254,33.706z M41.734,34.345
		c0.07-0.095,0.162-0.137,0.289-0.085c0.053,0.171,0.096,0.36,0.139,0.538C42.037,34.628,41.887,34.462,41.734,34.345z
		 M42.988,34.427c0.076-0.15,0.156-0.273,0.248-0.331c0.373,0.009,0.266,0.571,0.191,1.04C43.35,34.813,43.201,34.476,42.988,34.427
		z"/>
</g>
<g>
	<path fill="#E81C27" d="M49.604,44.124c-0.035-0.024,0.117-0.102,0.117-0.121c0-0.053-0.09-0.149-0.119-0.135
		c0,0-0.102,0.162-0.119,0.15c-0.621-0.411-1.018,1.277-1.018,1.277S50.271,44.604,49.604,44.124z"/>
</g>
<g>
	<polygon fill="#E81C27" points="41.055,35.366 41.266,36.78 41.592,36.739 41.381,35.325 	"/>
</g>
<g>
	
		<rect x="42.213" y="35.092" transform="matrix(-0.9966 -0.0826 0.0826 -0.9966 81.6518 75.1165)" fill="#E81C27" width="0.331" height="1.556"/>
</g>
<g>
	<polygon fill="#E81C27" points="42.848,36.577 43.086,36.688 43.664,35.502 43.426,35.392 	"/>
</g>
<path opacity="0.1" fill="#1A1626" d="M50.736,8.591c4.098,5.13,6.563,11.622,6.563,18.701c0,16.568-13.428,30.003-29.994,30.003
	c-7.1,0-13.609-2.478-18.744-6.594C14.055,57.58,22.502,62,32.004,62c16.564,0,29.994-13.432,29.994-30
	C61.998,22.527,57.596,14.09,50.736,8.591z"/>
<path opacity="0.3" fill-rule="evenodd" clip-rule="evenodd" fill="#FFFFFF" d="M9.734,19.015c0.549,3.865,7.768-3.7,15.08-10.202
	C29.531,4.63,8.084,7.385,9.734,19.015z"/>
</svg>
