<?xml version="1.0" encoding="utf-8"?>
<!-- Generator: Adobe Illustrator 15.0.0, SVG Export Plug-In . SVG Version: 6.00 Build 0)  -->
<!DOCTYPE svg PUBLIC "-//W3C//DTD SVG 1.1//EN" "http://www.w3.org/Graphics/SVG/1.1/DTD/svg11.dtd">
<svg version="1.1" id="Layer_1" xmlns="http://www.w3.org/2000/svg" xmlns:xlink="http://www.w3.org/1999/xlink" x="0px" y="0px"
	 width="64px" height="64px" viewBox="0 0 64 64" enable-background="new 0 0 64 64" xml:space="preserve">
<path fill="#529320" d="M62,32c0,13.061-8.35,24.166-20,28.285V3.714C53.65,7.833,62,18.939,62,32z"/>
<path fill="#E81C27" d="M2,32C2,18.939,10.35,7.833,22,3.714v56.571C10.35,56.166,2,45.061,2,32z"/>
<path fill="#FFE12C" d="M42,60.285C38.871,61.393,35.508,62,32,62s-6.871-0.607-10-1.715V3.714C25.129,2.607,28.492,2,32,2
	s6.871,0.607,10,1.714V60.285z"/>
<path opacity="0.1" fill="#1A1626" d="M50.738,8.591c4.096,5.13,6.563,11.622,6.563,18.701c0,16.567-13.43,30.003-29.996,30.003
	c-7.1,0-13.609-2.479-18.744-6.594C14.055,57.58,22.504,62,32.004,62c16.566,0,29.994-13.432,29.994-30
	C61.998,22.527,57.596,14.09,50.738,8.591z"/>
<path opacity="0.3" fill-rule="evenodd" clip-rule="evenodd" fill="#FFFFFF" d="M9.734,19.015c0.549,3.865,7.768-3.7,15.08-10.202
	C29.531,4.63,8.084,7.385,9.734,19.015z"/>
</svg>
