<?xml version="1.0" encoding="utf-8"?>
<!-- Generator: Adobe Illustrator 15.0.0, SVG Export Plug-In . SVG Version: 6.00 Build 0)  -->
<!DOCTYPE svg PUBLIC "-//W3C//DTD SVG 1.1//EN" "http://www.w3.org/Graphics/SVG/1.1/DTD/svg11.dtd">
<svg version="1.1" id="Layer_1" xmlns="http://www.w3.org/2000/svg" xmlns:xlink="http://www.w3.org/1999/xlink" x="0px" y="0px"
	 width="64px" height="64px" viewBox="0 0 64 64" enable-background="new 0 0 64 64" xml:space="preserve">
<path fill="#014D87" d="M32,62c5.318,0,10.311-1.391,14.643-3.818L46.787,5.9C42.422,3.422,37.379,2,32,2
	C17.074,2,4.699,12.902,2.391,27.178v9.645C4.699,51.098,17.074,62,32,62z"/>
<path fill="#F5F5F5" d="M62,32c0-7.672-2.891-14.664-7.631-19.969l0.008-0.006c-0.891-0.996-1.846-1.928-2.859-2.797L51.516,9.23
	c-0.336-0.285-0.682-0.561-1.027-0.834h-3.701V7.971L3.592,29.518C3.525,30.33,2,31.17,2,32c0,0.832,1.869,1.609,1.936,2.424
	l42.707,21.537v-0.357h3.846c0.346-0.271,0.689-0.545,1.025-0.832l0.004,0.002c1.014-0.869,1.969-1.803,2.859-2.799l-0.008-0.006
	C59.109,46.664,62,39.674,62,32z"/>
<path fill="#E81C27" d="M50.504,55.604l-48.5-23.408c0.012,1.574,0.143,3.119,0.387,4.627l44.252,21.359
	C47.998,57.422,49.289,56.559,50.504,55.604z"/>
<path fill="#E81C27" d="M2.391,27.178c-0.244,1.508-0.375,3.053-0.387,4.627l48.5-23.408c-1.215-0.955-2.506-1.818-3.861-2.578
	L2.391,27.178z"/>
<polygon fill="#785647" points="44.701,37.877 43.104,37.635 42.955,35.34 43.195,34.41 42.955,33.535 42.885,32.563 40.824,31.936 
	39.154,31.752 37.938,30.77 38.287,27.943 34.252,27.248 36.973,24.975 37.057,23.057 39.305,22.01 43.641,20.178 43.811,20.801 
	47.527,19.152 47.518,19.758 50.662,19.047 54.041,17.846 53.656,21.422 52.623,22.904 51.889,24.566 48.219,26.854 52.967,28.752 
	51.041,31.129 48.9,31.205 50.129,32.137 48.861,32.736 49.813,32.803 49.195,33.469 50.363,33.289 48.852,34.564 49.098,35.83 
	47.938,35.338 48.711,36.609 47.213,36.25 47.451,37.559 46.418,37.256 46.326,38.408 "/>
<path fill="#302C3B" d="M53.895,18.029l-0.361,3.379l-1.012,1.424l-0.748,1.684l-3.83,2.363l4.818,1.926l-1.781,2.201l-2.436,0.088
	l1.344,1.018l-1.512,0.717l1.166,0.082l-0.684,0.736l1.084-0.166l-1.229,1.035l0.215,1.107l-1.301-0.553l0.82,1.348l-1.395-0.334
	l0.238,1.297l-0.988-0.289l-0.09,1.148l-1.475-0.482l-1.52-0.232l-0.141-2.193l0.236-0.889l-0.24-0.939l-0.072-1.037l-2.145-0.65
	l-1.691-0.189l-1.098-0.91l0.355-2.875l-3.887-0.672l2.514-2.1l0.123-1.932l2.182-1.016l4.201-1.775l0.168,0.627l3.674-1.629
	l-0.012,0.568l3.301-0.746L53.895,18.029 M54.186,17.66l-0.373,0.135l-3.207,1.139L47.645,19.6l0.006-0.248l0.006-0.393
	l-0.357,0.158l-3.406,1.512l-0.094-0.346l-0.074-0.277l-0.264,0.111l-4.201,1.775l-2.189,1.02l-0.135,0.063l-0.008,0.148
	l-0.117,1.824l-2.432,2.031l-0.416,0.346l0.533,0.092l3.652,0.631l-0.326,2.639l-0.018,0.137l0.105,0.086l1.1,0.912l0.057,0.047
	l0.074,0.008l1.691,0.189l1.934,0.592l0.061,0.865l0.232,0.92l-0.221,0.826l-0.01,0.039l0.002,0.041l0.141,2.193l0.014,0.201
	l0.199,0.031l1.52,0.232l1.434,0.473l0.301,0.1l0.025-0.318l0.066-0.842l0.693,0.203l0.389,0.113l-0.072-0.398l-0.17-0.92
	l1.021,0.246l0.584,0.141l-0.313-0.514l-0.416-0.684l0.586,0.248l0.434,0.184l-0.09-0.461l-0.188-0.963l1.115-0.941l0.68-0.574
	l-0.879,0.135l-0.373,0.059l0.195-0.211l0.355-0.383l-0.521-0.037l-0.213-0.016l0.648-0.307l0.371-0.176l-0.328-0.25l-0.783-0.594
	l1.732-0.063l0.115-0.004l0.07-0.09l1.783-2.199l0.213-0.264l-0.314-0.127l-4.359-1.742l3.408-2.102l0.066-0.041l0.031-0.07
	l0.748-1.684l0.986-1.381l0.037-0.053l0.008-0.064l0.363-3.379L54.186,17.66L54.186,17.66z"/>
<g>
	<path fill="#FFC221" d="M46.441,42.918c0-0.002,0.004-0.002,0.004-0.004C46.445,42.904,46.445,42.906,46.441,42.918z"/>
</g>
<g>
	<path fill="#302C3B" d="M46.445,42.908c0,0,0,0.002,0,0.006c0,0.002-0.004,0.002-0.004,0.004
		C46.443,42.912,46.443,42.908,46.445,42.908 M46.441,42.918L46.441,42.918L46.441,42.918"/>
</g>
<g>
	<path fill="#FFE12C" d="M41.463,44.369l0.541,0.891l-9.002-4.158l1.471-1.262l0.17,0.34l5.117,0.451l-0.068-0.275l1.145-0.525
		l0.025-0.275l-2.295,0.465l-0.09-1.164l-2.443-0.512l-0.125,0.668l-0.74-0.043l-0.178,0.625l-1.26-0.367l0.273-1.367l-1.906,0.912
		l-3.313-2.752l4.191-0.793l1.313,1.471l0.355-1.27l1.273,0.318l-0.168,0.592l0.676,0.127l-0.172,0.822l2.527,0.59l0.443-0.98
		l2.537,1.574l1.412-1.111l0.262,0.148l0.627-1.168l1.104,0.201l0.326,0.928l-0.537,1.482l0.266,0.42l5.973,1.393l-0.285,0.971
		l-0.588-0.137l0.137,0.809l-12.654-0.865l-0.277,0.443l4.537,0.217L41.76,42.58l2.961-0.369l-0.174,0.736l2.756-0.227l-1.996,0.766
		l2.197,1.023l-2.578-0.047l1.396,1.291l-2.66-1.023l0.045,1.033L41.463,44.369z M48.896,41.271l-4.066-0.938l-0.9,0.504
		l-0.014,0.035L48.896,41.271z"/>
</g>
<g>
	<path fill="#302C3B" d="M32.932,35.363l1.416,1.588l0.385-1.373l1.029,0.258l-0.17,0.6l0.686,0.129l-0.172,0.816l2.746,0.643
		l0.43-0.945l2.488,1.545l1.416-1.113l0.301,0.17l0.643-1.201l0.943,0.172l0.301,0.859l-0.557,1.457l0.299,0.473l5.922,1.416
		l-0.217,0.73l-5.963-1.373l-0.986,0.514l-0.129,0.258l6.436,0.514l0.129,0.771l-12.57-0.857l-0.43,0.688l4.506,0.215l-0.344,0.428
		l3.088-0.385l-0.17,0.729l2.055-0.168l-1.455,0.557l1.932,0.9l-2.316-0.043l1.158,1.072l-2.23-0.859l0.041,0.988l-2.488-1.547
		l0.602,0.986l-8.451-3.902l1.199-1.031l0.131,0.258l5.361,0.473l-0.086-0.344l1.115-0.514l0.049-0.514l-2.322,0.471l-0.086-1.117
		l-2.66-0.557l-0.129,0.686l-0.729-0.043l-0.172,0.602l-1.029-0.301l0.301-1.5l-2.061,0.984l-3.045-2.531L32.932,35.363
		 M33.023,35.092l-0.139,0.025l-3.861,0.729l-0.521,0.1l0.408,0.34l3.045,2.531l0.123,0.102l0.145-0.068l1.609-0.77l-0.203,1.01
		l-0.045,0.225l0.221,0.064l1.029,0.301l0.242,0.07l0.068-0.242l0.117-0.408l0.529,0.031l0.219,0.014l0.041-0.217l0.082-0.436
		l2.227,0.467l0.07,0.93l0.023,0.281l0.275-0.057l1.994-0.402l-0.004,0.035l-0.984,0.453l-0.189,0.086l0.051,0.201v0.004
		l-4.873-0.43l-0.066-0.133l-0.145-0.285L34.27,39.85l-1.201,1.031l-0.295,0.252l0.354,0.164l8.451,3.902l0.746,0.346l-0.428-0.701
		l-0.055-0.092l1.598,0.992l0.402,0.25l-0.021-0.473l-0.025-0.605l1.875,0.721l1.215,0.469l-0.955-0.885l-0.678-0.627l1.66,0.031
		l1.18,0.021l-1.068-0.498l-1.396-0.652l0.902-0.346l1.635-0.625l-1.744,0.143l-1.711,0.141l0.092-0.395l0.063-0.266l5.426,0.371
		l0.316,0.021l-0.053-0.313l-0.078-0.467l0.291,0.066l0.229,0.053l0.066-0.225l0.215-0.73l0.076-0.252l-0.258-0.063l-5.822-1.393
		l-0.178-0.279l0.514-1.34l0.031-0.086l-0.029-0.086l-0.301-0.859l-0.049-0.137l-0.143-0.027l-0.943-0.172l-0.18-0.031l-0.086,0.16
		l-0.521,0.975l-0.078-0.043l-0.146-0.082l-0.131,0.104l-1.279,1.004l-2.34-1.453l-0.242-0.148l-0.117,0.258l-0.344,0.758
		L36.4,37.193l0.121-0.578l0.053-0.25l-0.252-0.047l-0.416-0.078l0.096-0.336l0.072-0.248l-0.252-0.063l-1.029-0.258l-0.236-0.059
		l-0.064,0.234l-0.262,0.932l-1.113-1.246L33.023,35.092L33.023,35.092z M44.313,40.779l0.58-0.303l2.316,0.533L44.313,40.779
		L44.313,40.779z M37.744,41.871l0.125-0.199l6.568,0.447l-2.389,0.299l0.266-0.33l-0.49-0.023L37.744,41.871L37.744,41.871z"/>
</g>
<g>
	<path fill="#FFE12C" d="M32.361,35.131c-0.521-0.26-0.813-0.602-0.863-1.016c-0.1-0.822,0.799-1.604,0.838-1.635l0.162-0.139
		l0.041,0.209c0.09,0.443,1.049,0.543,1.418,0.543c-0.004-0.002,0.133-0.041,0.313-0.041c0.258,0,0.617,0.076,0.865,0.438
		l0.049,0.07l-0.047,0.07c-0.527,0.779-1.252,0.943-1.768,0.943c-0.309,0-0.561-0.059-0.689-0.096
		c-0.031,0.068-0.092,0.227-0.139,0.559l-0.025,0.172L32.361,35.131z"/>
</g>
<g>
	<path fill="#302C3B" d="M32.418,32.574c0.127,0.645,1.543,0.645,1.543,0.645s0.131-0.041,0.309-0.041
		c0.232,0,0.545,0.068,0.764,0.383c-0.49,0.723-1.156,0.889-1.664,0.889c-0.426,0-0.738-0.117-0.738-0.117s-0.129,0.086-0.215,0.688
		c-1.801-0.9,0-2.445,0-2.445H32.418 M32.623,32.324h-0.205c-0.246,0-0.883,0.793-1.016,1.35c-0.107,0.457-0.037,1.1,0.902,1.57
		l0.311,0.154l0.049-0.344c0.029-0.209,0.064-0.344,0.092-0.428c0.148,0.035,0.363,0.072,0.613,0.072
		c0.545,0,1.313-0.174,1.871-0.998l0.096-0.143l-0.098-0.141c-0.219-0.316-0.563-0.49-0.969-0.49c-0.154,0-0.277,0.025-0.342,0.041
		c-0.488-0.006-1.207-0.148-1.266-0.443L32.623,32.324L32.623,32.324z"/>
</g>
<g>
	<polygon fill="#F5F5F5" points="32.336,32.578 32.682,31.994 32.873,31.105 37.336,28.885 38.67,27.301 38.18,28.805 39.961,28.42 
		38.547,29.498 40.453,29.072 38.771,30.229 40.93,30.033 39.291,31.07 40.711,31.203 39.035,32.025 36.748,32.635 35.119,33.658 
		32.828,33.727 	"/>
</g>
<g>
	<path fill="#302C3B" d="M38.355,27.865l-0.363,1.107l1.447-0.313l-1.424,1.084l1.834-0.41l-1.543,1.061l2.119-0.191l-1.252,0.795
		l-0.723,0.119l1.807,0.17l-1.277,0.625l-2.266,0.602l-1.662,1.037L32.91,33.6l-0.436-1.012l0.314-0.529l0.193-0.867l4.408-2.193
		L38.355,27.865 M38.986,26.736l-0.822,0.967l-0.93,1.094l-4.363,2.17l-0.107,0.053l-0.025,0.117l-0.184,0.828l-0.295,0.494
		l-0.064,0.109l0.051,0.117l0.434,1.014l0.066,0.154l0.17-0.004l2.143-0.049l0.068-0.002l0.059-0.035l1.631-1.018l2.229-0.592
		l1.322-0.643l0.797-0.391l-0.883-0.084l-0.613-0.057l0.893-0.566l0.873-0.553l-1.029,0.094l-1.17,0.105l0.756-0.52l1.064-0.732
		l-1.26,0.281l-0.719,0.162l0.514-0.393l0.895-0.68l-1.098,0.236l-1.021,0.221l0.227-0.695L38.986,26.736L38.986,26.736z"/>
</g>
<g>
	<polygon fill="#F5F5F5" points="50.834,31.24 50.141,30.344 50.674,28.816 50.41,28.334 50.611,27.346 54.676,26.639 54.055,27.83 
		55.428,28.875 54.488,30.494 55.244,32.082 	"/>
</g>
<g>
	<path fill="#302C3B" d="M54.447,26.805l-0.553,1.061l1.371,1.043l-0.918,1.58l0.678,1.424l-4.168-0.795l-0.578-0.795l0.529-1.518
		l-0.287-0.531l0.191-0.818L54.447,26.805 M54.904,26.473l-0.5,0.086l-3.734,0.65l-0.162,0.029l-0.037,0.16l-0.193,0.818
		l-0.021,0.092l0.045,0.084l0.236,0.436l-0.494,1.412L50,30.363l0.078,0.107l0.578,0.795l0.057,0.078l0.098,0.02l4.168,0.795
		l0.486,0.092l-0.213-0.445L54.629,30.5l0.852-1.467l0.111-0.191l-0.176-0.133l-1.201-0.916l0.455-0.873L54.904,26.473
		L54.904,26.473z"/>
</g>
<path opacity="0.1" fill="#1A1626" d="M50.736,8.591c4.098,5.13,6.563,11.622,6.563,18.701c0,16.568-13.428,30.003-29.994,30.003
	c-7.1,0-13.609-2.478-18.744-6.594C14.055,57.58,22.502,62,32.004,62c16.564,0,29.994-13.432,29.994-30
	C61.998,22.527,57.596,14.09,50.736,8.591z"/>
<path opacity="0.3" fill-rule="evenodd" clip-rule="evenodd" fill="#FFFFFF" d="M9.734,19.015c0.549,3.865,7.768-3.7,15.08-10.202
	C29.531,4.63,8.084,7.385,9.734,19.015z"/>
</svg>
