<?xml version="1.0" encoding="utf-8"?>
<!-- Generator: Adobe Illustrator 15.0.0, SVG Export Plug-In . SVG Version: 6.00 Build 0)  -->
<!DOCTYPE svg PUBLIC "-//W3C//DTD SVG 1.1//EN" "http://www.w3.org/Graphics/SVG/1.1/DTD/svg11.dtd">
<svg version="1.1" id="Layer_1" xmlns="http://www.w3.org/2000/svg" xmlns:xlink="http://www.w3.org/1999/xlink" x="0px" y="0px"
	 width="64px" height="64px" viewBox="0 0 64 64" enable-background="new 0 0 64 64" xml:space="preserve">
<circle fill="#0FB4D4" cx="32" cy="32" r="30"/>
<polygon fill="#F5F5F5" points="32.777,21.619 35.183,23.445 34.271,20.476 36.667,18.636 33.701,18.628 32.777,15.666 
	31.854,18.628 28.889,18.636 31.283,20.476 30.373,23.445 "/>
<polygon fill="#F5F5F5" points="32.777,42.381 35.183,40.557 34.271,43.523 36.667,45.363 33.701,45.373 32.777,48.334 
	31.854,45.373 28.889,45.363 31.283,43.523 30.373,40.557 "/>
<polygon fill="#F5F5F5" points="21.889,29.937 24.293,28.111 23.383,31.078 25.777,32.917 22.813,32.927 21.889,35.889 
	20.964,32.927 18,32.917 20.394,31.078 19.484,28.111 "/>
<polygon fill="#F5F5F5" points="42.111,29.937 39.706,28.111 40.617,31.078 38.223,32.917 41.188,32.927 42.111,35.889 
	43.035,32.927 46,32.917 43.605,31.078 44.516,28.111 "/>
<path opacity="0.1" fill="#1A1626" d="M50.736,8.591c4.097,5.129,6.563,11.621,6.563,18.701c0,16.569-13.429,30.002-29.994,30.002
	c-7.101,0-13.61-2.477-18.745-6.594C14.054,57.58,22.502,62,32.003,62c16.565,0,29.994-13.432,29.994-30
	C61.997,22.527,57.595,14.089,50.736,8.591z"/>
<path opacity="0.3" fill-rule="evenodd" clip-rule="evenodd" fill="#FFFFFF" d="M9.734,19.015c0.549,3.865,7.767-3.701,15.08-10.203
	C29.531,4.63,8.083,7.384,9.734,19.015z"/>
</svg>
