<?xml version="1.0" encoding="utf-8"?>
<!-- Generator: Adobe Illustrator 15.0.0, SVG Export Plug-In . SVG Version: 6.00 Build 0)  -->
<!DOCTYPE svg PUBLIC "-//W3C//DTD SVG 1.1//EN" "http://www.w3.org/Graphics/SVG/1.1/DTD/svg11.dtd">
<svg version="1.1" id="Layer_1" xmlns="http://www.w3.org/2000/svg" xmlns:xlink="http://www.w3.org/1999/xlink" x="0px" y="0px"
	 width="64px" height="64px" viewBox="0 0 64 64" enable-background="new 0 0 64 64" xml:space="preserve">
<circle fill="#014D87" cx="32" cy="32" r="30"/>
<polygon fill="#FFE12C" points="32.002,11.801 32.719,14.006 35.037,14.006 33.162,15.369 33.877,17.574 32.002,16.211 
	30.125,17.574 30.842,15.369 28.967,14.006 31.285,14.006 "/>
<polygon fill="#FFE12C" points="32,45.777 32.717,47.984 35.037,47.984 33.16,49.348 33.877,51.553 32,50.189 30.125,51.553 
	30.842,49.348 28.967,47.984 31.285,47.984 "/>
<polygon fill="#FFE12C" points="40.42,43.031 41.137,45.238 43.455,45.238 41.58,46.602 42.297,48.807 40.42,47.443 38.545,48.807 
	39.262,46.602 37.385,45.238 39.703,45.238 "/>
<polygon fill="#FFE12C" points="46.221,37.232 46.938,39.439 49.256,39.439 47.379,40.803 48.096,43.008 46.221,41.645 
	44.344,43.008 45.061,40.803 43.186,39.439 45.504,39.439 "/>
<polygon fill="#FFE12C" points="48.965,28.789 49.682,30.994 52,30.994 50.125,32.357 50.84,34.563 48.965,33.199 47.088,34.563 
	47.805,32.357 45.93,30.994 48.248,30.994 "/>
<polygon fill="#FFE12C" points="46.221,20.344 46.938,22.551 49.256,22.551 47.379,23.914 48.096,26.119 46.221,24.756 
	44.344,26.119 45.061,23.914 43.186,22.551 45.504,22.551 "/>
<polygon fill="#FFE12C" points="40.42,14.545 41.137,16.752 43.455,16.752 41.58,18.115 42.297,20.32 40.42,18.957 38.545,20.32 
	39.26,18.115 37.385,16.752 39.703,16.752 "/>
<g>
	<polygon fill="#FFE12C" points="23.58,43.031 22.863,45.238 20.545,45.238 22.42,46.602 21.703,48.807 23.58,47.443 25.456,48.807 
		24.739,46.602 26.615,45.238 24.297,45.238 	"/>
</g>
<g>
	<polygon fill="#FFE12C" points="17.78,37.232 17.063,39.439 14.745,39.439 16.621,40.803 15.904,43.008 17.78,41.645 
		19.656,43.008 18.939,40.803 20.815,39.439 18.497,39.439 	"/>
</g>
<g>
	<polygon fill="#FFE12C" points="15.035,28.789 14.319,30.994 12,30.994 13.876,32.357 13.16,34.563 15.035,33.199 16.912,34.563 
		16.195,32.357 18.07,30.994 15.752,30.994 	"/>
</g>
<g>
	<polygon fill="#FFE12C" points="17.78,20.344 17.063,22.551 14.745,22.551 16.621,23.914 15.904,26.119 17.78,24.756 
		19.656,26.119 18.939,23.914 20.815,22.551 18.497,22.551 	"/>
</g>
<g>
	<polygon fill="#FFE12C" points="23.58,14.545 22.863,16.752 20.545,16.752 22.42,18.115 21.704,20.32 23.58,18.957 25.456,20.32 
		24.74,18.115 26.615,16.752 24.297,16.752 	"/>
</g>
<path opacity="0.1" fill="#1A1626" d="M50.738,8.592c4.096,5.129,6.563,11.621,6.563,18.701c0,16.568-13.428,30.002-29.995,30.002
	c-7.101,0-13.609-2.477-18.744-6.594C14.056,57.58,22.503,62,32.004,62C48.57,62,62,48.568,62,32
	C62,22.527,57.596,14.09,50.738,8.592z"/>
<path opacity="0.3" fill-rule="evenodd" clip-rule="evenodd" fill="#FFFFFF" d="M9.735,19.016c0.549,3.865,7.767-3.701,15.08-10.203
	C29.533,4.631,8.084,7.385,9.735,19.016z"/>
</svg>
