<?xml version="1.0" encoding="utf-8"?>
<!-- Generator: Adobe Illustrator 15.0.0, SVG Export Plug-In . SVG Version: 6.00 Build 0)  -->
<!DOCTYPE svg PUBLIC "-//W3C//DTD SVG 1.1//EN" "http://www.w3.org/Graphics/SVG/1.1/DTD/svg11.dtd">
<svg version="1.1" id="Layer_1" xmlns="http://www.w3.org/2000/svg" xmlns:xlink="http://www.w3.org/1999/xlink" x="0px" y="0px"
	 width="64px" height="64px" viewBox="0 0 64 64" enable-background="new 0 0 64 64" xml:space="preserve">
<path fill="#014D87" d="M52.387,10C47.035,5.037,39.873,2,32,2c-7.875,0-15.035,3.037-20.389,8H52.387z"/>
<path fill="#014D87" d="M11.611,54c5.354,4.963,12.514,8,20.389,8c7.873,0,15.035-3.037,20.387-8H11.611z"/>
<path fill="#E81C27" d="M2,32c0,4.268,0.896,8.324,2.504,12h54.992C61.104,40.324,62,36.268,62,32s-0.896-8.324-2.504-12H4.504
	C2.896,23.676,2,27.732,2,32z"/>
<path fill="#F5F5F5" d="M11.627,54h40.744c3.014-2.791,5.461-6.184,7.129-10h-55C6.168,47.816,8.615,51.209,11.627,54z"/>
<path fill="#F5F5F5" d="M52.371,10H11.627C8.615,12.791,6.168,16.184,4.5,20h55C57.832,16.184,55.385,12.791,52.371,10z"/>
<path opacity="0.1" fill="#1A1626" d="M50.736,8.591c4.098,5.13,6.563,11.622,6.563,18.701c0,16.569-13.428,30.003-29.994,30.003
	c-7.1,0-13.609-2.477-18.744-6.594C14.055,57.58,22.502,62,32.004,62c16.564,0,29.994-13.432,29.994-30
	C61.998,22.527,57.596,14.09,50.736,8.591z"/>
<path opacity="0.3" fill-rule="evenodd" clip-rule="evenodd" fill="#FFFFFF" d="M9.734,19.015c0.549,3.865,7.768-3.7,15.08-10.202
	C29.531,4.63,8.084,7.385,9.734,19.015z"/>
</svg>
