<?xml version="1.0" encoding="utf-8"?>
<!-- Generator: Adobe Illustrator 15.0.0, SVG Export Plug-In . SVG Version: 6.00 Build 0)  -->
<!DOCTYPE svg PUBLIC "-//W3C//DTD SVG 1.1//EN" "http://www.w3.org/Graphics/SVG/1.1/DTD/svg11.dtd">
<svg version="1.1" id="Layer_1" xmlns="http://www.w3.org/2000/svg" xmlns:xlink="http://www.w3.org/1999/xlink" x="0px" y="0px"
	 width="64px" height="64px" viewBox="0 0 64 64" enable-background="new 0 0 64 64" xml:space="preserve">
<path fill="#F5F5F5" d="M61.17,25C58.016,11.81,46.158,2,32,2c-0.336,0-0.666,0.015-1,0.025V25H61.17z"/>
<path fill="#F5F5F5" d="M17,6.023C9.982,10.084,4.766,16.902,2.829,25H17V6.023z"/>
<path fill="#F5F5F5" d="M2.829,39C4.766,47.098,9.982,53.915,17,57.977V39H2.829z"/>
<path fill="#F5F5F5" d="M31,61.975C31.333,61.984,31.664,62,32,62c14.159,0,26.016-9.811,29.17-23H31V61.975z"/>
<path fill="#014D87" d="M61.17,25H31V2.025c-5.09,0.167-9.857,1.601-14,3.998V25H2.829C2.292,27.246,2,29.589,2,32
	c0,2.41,0.292,4.753,0.829,7H17v18.977c4.143,2.396,8.909,3.83,14,3.998V39h30.17c0.537-2.247,0.83-4.59,0.83-7
	C62,29.589,61.707,27.246,61.17,25z"/>
<path opacity="0.05" fill="#1A1626" d="M50.736,8.591c4.098,5.13,6.563,11.622,6.563,18.701c0,16.567-13.428,30.003-29.994,30.003
	c-7.101,0-13.61-2.479-18.745-6.594C14.054,57.58,22.502,62,32.003,62c16.565,0,29.995-13.432,29.995-30
	C61.998,22.527,57.596,14.09,50.736,8.591z"/>
<path opacity="0.3" fill-rule="evenodd" clip-rule="evenodd" fill="#FFFFFF" d="M9.734,19.015c0.549,3.865,7.767-3.7,15.08-10.202
	C29.531,4.63,8.083,7.385,9.734,19.015z"/>
</svg>
