<?xml version="1.0" encoding="utf-8"?>
<!-- Generator: Adobe Illustrator 15.0.0, SVG Export Plug-In . SVG Version: 6.00 Build 0)  -->
<!DOCTYPE svg PUBLIC "-//W3C//DTD SVG 1.1//EN" "http://www.w3.org/Graphics/SVG/1.1/DTD/svg11.dtd">
<svg version="1.1" id="Layer_1" xmlns="http://www.w3.org/2000/svg" xmlns:xlink="http://www.w3.org/1999/xlink" x="0px" y="0px"
	 width="64px" height="64px" viewBox="0 0 64 64" enable-background="new 0 0 64 64" xml:space="preserve">
<path fill="#E81C27" d="M32,61.999c16.568,0,30-13.432,30-29.999H2C2,48.567,15.432,61.999,32,61.999z"/>
<path fill="#F5F5F5" d="M32,2C15.432,2,2,15.432,2,32h60C62,15.432,48.568,2,32,2z"/>
<path fill="#E81C27" d="M24,17c8.283,0,15,6.716,15,15H9C9,23.716,15.717,17,24,17z"/>
<path fill="#F5F5F5" d="M24,46.999c-8.283,0-15-6.717-15-14.999h30C39,40.282,32.283,46.999,24,46.999z"/>
<path opacity="0.1" fill="#1A1626" d="M50.736,8.591c4.098,5.13,6.563,11.622,6.563,18.701c0,16.566-13.428,30.002-29.994,30.002
	c-7.1,0-13.609-2.479-18.744-6.594c5.494,6.879,13.941,11.299,23.443,11.299c16.564,0,29.994-13.432,29.994-29.999
	C61.998,22.527,57.596,14.09,50.736,8.591z"/>
<path opacity="0.9" fill-rule="evenodd" clip-rule="evenodd" fill="#FFFFFF" d="M9.735,19.015c0.549,3.865,7.767-3.7,15.079-10.202
	C29.531,4.63,8.084,7.385,9.735,19.015z"/>
</svg>
