<?xml version="1.0" encoding="utf-8"?>
<!-- Generator: Adobe Illustrator 15.0.0, SVG Export Plug-In . SVG Version: 6.00 Build 0)  -->
<!DOCTYPE svg PUBLIC "-//W3C//DTD SVG 1.1//EN" "http://www.w3.org/Graphics/SVG/1.1/DTD/svg11.dtd">
<svg version="1.1" id="Layer_1" xmlns="http://www.w3.org/2000/svg" xmlns:xlink="http://www.w3.org/1999/xlink" x="0px" y="0px"
	 width="64px" height="64px" viewBox="0 0 64 64" enable-background="new 0 0 64 64" xml:space="preserve">
<path fill="#014D87" d="M32,2v30H2c0,16.567,13.432,30,30,30s30-13.433,30-30C62,15.432,48.568,2,32,2z"/>
<rect x="12" y="12" fill="#014D87" width="21" height="21"/>
<polygon fill="#F5F5F5" points="18.912,8.14 18.912,14 11.6,14 26,32 32,32 32,24.5 "/>
<path fill="#F5F5F5" d="M11,18.912H5.01C3.088,22.869,2,27.305,2,32h12V13.912h-3V18.912z"/>
<polygon fill="#E81C27" points="32,27.059 19,11 13,11 30,32 32,32 "/>
<path fill="#F5F5F5" d="M18.912,5.012V11H11v3h21V2C27.305,2,22.867,3.088,18.912,5.012z"/>
<path fill="#E81C27" d="M32,5H18.912C12.857,7.94,7.939,12.857,5,18.912V32h6V11h21V5z"/>
<path fill="#6A4C2D" d="M44.564,41.694c-0.618,0.586-1.799,1.174-2.642,0.598c-1.054,0.24-0.497,0.52-1.462-0.166
	c-0.732,0.225-0.85,0.234-1.859-0.232c-0.471,0.938-1.127,1.109-1.877,0.465c0.143-0.197,0.281-0.396,0.416-0.598
	c0,0.352-1.627,0.258-1.728,0.281c0.873-2.924,4.552-5.26,6.676-7.322C43.105,36.597,45.771,39.501,44.564,41.694z"/>
<polygon fill="#F5F5F5" points="48.752,42.042 50.286,41.985 49.633,41.663 55.48,41.442 54.653,41.128 53.922,40.136 
	50.294,39.821 49.994,39.28 48.13,39.138 46.965,39.933 47.752,41.948 "/>
<path fill="#656263" d="M48.752,31.109c0.118-0.071,0.488-0.189,0.442-0.729c-0.045-0.54-0.513-0.604-0.774-0.586
	c-0.263,0.019-0.496,0.244-0.496,0.244l-0.865-0.55c0,0,0.433-2.731,0.893-2.902c0.436-0.314,0.514-0.451,0.514-0.523l-0.162-0.252
	l-2.822-0.334l-2.668,0.315c0,0-0.206,0.315-0.18,0.442c0.027,0.125,0.037,0.261,0.514,0.631c0.529,0.407,0.893,2.74,0.893,2.74
	l-0.793,0.324c-0.045-0.045-0.27-0.09-0.389-0.072c-0.116,0.019-0.504,0.216-0.504,0.729c0,0.515,0.388,0.812,0.388,0.812
	s2.551-0.297,2.93,0.404C46.04,30.957,48.465,31.254,48.752,31.109z"/>
<path fill="#302C3B" d="M51.5,28.271c0.211-0.573,0.583-0.558,1.174-0.57c1.234-0.026,1.123,0.409,1.494,1.389
	c0.533,1.405,1.359,2.801,1.455,4.353c0.105,1.674,0.065,3.998-0.717,5.52c-0.556,1.082,0.748,1.375,1.548,1.771l-0.606-0.227
	l0.606,0.51l-0.691-0.326l0.409,0.41l-1.002-0.451l0.438,0.424l-0.748-0.354c0.143,0.154,0.289,0.305,0.438,0.451
	c-0.212-0.104-0.428-0.197-0.648-0.281l0.027,0.24c-0.758-0.635-2.007-0.66-2.311-1.566c-0.35-1.047-1.16-2.465-1.109-3.576
	C51.365,33.643,52.094,30.558,51.5,28.271z"/>
<polygon fill="#006B00" points="43.99,39.741 43.748,40.675 44.08,40.224 44.107,41.224 44.441,40.655 44.447,41.858 44.74,41.282 
	44.708,42.382 44.97,41.892 45.191,42.884 45.461,42.237 45.904,43.028 46.016,42.415 46.643,43.087 46.643,42.407 47.322,43.028 
	47.348,42.558 48.008,42.878 47.989,42.454 48.799,42.708 48.303,42.19 48.767,42.19 47.989,41.714 48.426,41.688 47.655,41.146 
	48.179,41.12 47.388,40.526 47.799,40.44 "/>
<path fill="#F5F5F5" d="M41.916,31.392c0.72-0.014,1.44-0.025,2.161-0.039c0,0,1.429,0,1.583,0.465
	c0.27-0.619,1.504-0.58,1.504-0.58c0.747-0.024,1.494-0.052,2.238-0.077c0.014,1.802,0.026,3.603,0.039,5.403
	c-0.438,2.098-1.955,3.578-3.627,4.207c-1.995-0.645-3.256-2.328-3.667-4.246C42.069,34.813,41.992,33.102,41.916,31.392z"/>
<path fill="#006B00" d="M42.555,31.191l3.286,8.757l2.968-8.946c-0.921,0.06-2.896-0.146-3.141,0.694
	C45.286,30.944,43.209,31.248,42.555,31.191z"/>
<polygon fill="#F59E01" points="43.984,17.825 45.824,16.299 46.068,15.167 45.725,15.429 45.613,14.903 45.521,14.813 
	45.359,15.024 45.188,14.6 44.904,15.035 45.411,16.025 44.916,16.824 44.744,16.269 44.926,15.723 44.602,15.834 44.622,15.217 
	44.197,15.551 44.056,15.489 44.531,16.743 44.208,17.138 43.701,15.823 43.581,16.116 43.357,15.885 43.52,16.581 43.268,16.643 
	43.621,17.026 43.298,17.36 43.873,17.158 43.713,17.603 "/>
<polygon fill="#F59E01" points="42.598,17.825 41.035,16.437 40.879,15.396 41.121,15.645 41.293,15.084 41.49,15.389 
	41.777,14.992 41.957,15.286 41.387,16.188 41.808,16.914 41.953,16.408 41.688,16.013 42.074,16.013 42.098,15.492 42.387,15.766 
	42.628,15.538 42.135,16.841 42.348,17.089 42.736,16.064 42.941,16.271 43.13,16.059 42.992,16.693 43.207,16.749 43.078,17.099 
	43.182,17.402 42.692,17.219 42.83,17.623 "/>
<path fill="#FFC900" d="M48.152,32.624l-0.316-0.362l0.374-0.477l-0.607,0.151l-0.104-0.611l-0.153,0.646l-0.597-0.268l0.423,0.481
	l-1.153,0.81l0.296,0.085l-0.401,0.055l0.129,0.224l-0.304,0.104l0.179,0.126l-0.783,0.024l-0.001,0.001l-0.051-0.6l0.835,0.041
	l-0.407-0.802l-0.26,0.168l-0.259-0.359l-0.697,0.206l0.424-0.481l-0.598,0.269l-0.152-0.646l-0.104,0.61l-0.608-0.151l0.48,0.356
	l-0.423,0.483l0.544-0.23l0.206,0.607l0.075-0.363L44.13,32.7l0.272,0.209h0.057l0.139,2.012l-0.154,0.424l0.117-0.096l0.271,0.654
	l0.088-0.57l0.465-0.229l0.328-0.111l0.191,0.059l0.148,0.559l-0.455,0.654l-0.56,0.273l-0.212,0.271l0.573-0.285l0.017,0.297
	l0.324-0.281l0.017,0.232l0.193-0.107l-0.512,1.318l0.454-0.387l-0.045,0.568l0.199-0.414l0.248-0.225l0.087,0.215l0.046-0.545
	l0.17,0.133l-0.204-0.699l0.272,0.166l-0.228-0.871l0.772-0.424l-0.033-0.4l-0.217,0.135l0.17-0.4l0.09-0.615l-0.021,0.301v-0.508
	l0.258,0.102l-0.191-0.262l0.445-0.181l-0.218-0.013l0.491-0.495l-1.163,0.871l-0.133,1.696l-0.42-1.938l0.25,0.303l0.17-0.788
	l0.421,0.097l-0.193-0.267L47.12,33.2l-0.335-0.194l0.449-0.084l-0.381-0.321l0.51-0.196l0.039,0.597l0.206-0.607L48.152,32.624z
	 M44.951,34.81l0.106-0.656l0.802-0.094L44.951,34.81z"/>
<path fill="#E81C27" d="M38.771,48.819c0.317-0.076,2.037,0.381,2.699,1.09c-0.141-1.266-0.49-2.234-0.49-2.234
	s-1.025-0.293-1.166-0.15C39.608,47.741,38.989,48.392,38.771,48.819z"/>
<path fill="#E81C27" d="M38.248,42.974c-0.121,0.021-0.241,0.102-0.361,0.301c-0.142,0.342-0.241,1.207-0.442,1.408
	c-0.201,0.199-0.382,0.221-0.382,0.4c0,0.182,0.02,0.604,0.563,0.764c0.542,0.02,1.406-0.863,1.406-0.863s0.442-0.482,0.623-1.004
	C38.609,44.341,37.866,43.376,38.248,42.974z"/>
<path fill="#E81C27" d="M53.355,48.618c-0.314-0.074-2.053,0.377-2.711,1.084c0.14-1.258,0.487-2.223,0.487-2.223
	c0.122-0.031,1.005-0.291,1.146-0.148C52.481,47.546,53.141,48.192,53.355,48.618z"/>
<path fill="#E81C27" d="M53.843,42.806c0.119,0.021,0.162,0.178,0.261,0.379c0.138,0.338,0.282,0.834,0.481,1.033
	c0.2,0.199,0.379,0.496,0.379,0.674c0,0.182-0.042,0.424-0.581,0.584c-0.537,0.02-1.318-0.672-1.318-0.672s-0.438-0.479-0.617-0.998
	C53.484,44.165,54.155,43.239,53.843,42.806z"/>
<path fill="#FFE12C" d="M52.335,45.421c0.413-0.439,0.729-0.576,0.729-0.576s-0.478-0.602-0.598-1.02
	c0.957,0.48,2.293-1.078,0.838-1.199c-1.039,0.107-1.882,0.908-2.503,1.875c-3.062-1.486-6.688-1.377-9.564,0.07
	c-0.601-0.975-1.418-1.764-2.447-1.777c-1.466,0.121-0.12,1.688,0.844,1.205c-0.12,0.422-0.603,1.025-0.603,1.025
	s0.284,0.123,0.665,0.506c-0.794,0.605-1.491,1.336-2.051,2.186c0,0,1.085,0.742,1.104,1.084c0.502-0.744,1.138-1.398,1.868-1.947
	c0.363,0.721,0.697,1.709,0.884,3.053c0,0,0.563-1.627,0.904-1.646c0.15-0.01-0.006-1.059-0.459-2.232
	c2.426-1.238,5.477-1.451,8.15-0.16c-0.455,1.107-0.634,2.129-0.502,2.381c0.338,0.02,1.018,1.449,1.018,1.449
	c0.182-1.314,0.507-2.287,0.861-3.002c0.664,0.486,1.291,1.084,1.859,1.805c0.563-0.744,1.146-0.984,1.146-0.984
	C53.845,46.685,53.121,45.989,52.335,45.421z"/>
<path fill="#1E5AA6" d="M48.697,31.19l0.424-0.011l-0.758,0.961l0.909,1.062l-1.79,2.254l1.689,2.031
	c-0.186,0.455-0.401,0.869-0.688,1.244l-0.971-1.072l1.759-2.191l-1.445-1.64L48.697,31.19z"/>
<path fill="#1E5AA6" d="M42.631,31.383l-0.455,0.01l0.848,0.919l-0.898,1.123l1.871,2.033l-1.548,2.07
	c0.186,0.455,0.452,0.961,0.737,1.334l0.921-1.162l-1.891-2.104l1.386-1.757L42.631,31.383z"/>
<path fill="#1E5AA6" d="M44.733,36.841l-0.667,0.889l2.385,2.76c0.422-0.211,0.752-0.455,1.113-0.746l-1.244-1.436l0.506-1.486
	l0.729,0.838l-2.275,2.902c-0.381-0.162-0.802-0.416-1.183-0.729l1.202-1.525L44.733,36.841z"/>
<polygon fill="#1E5AA6" points="43.996,35.456 44.43,36.003 44.146,35.265 "/>
<polygon fill="#1E5AA6" points="47.109,35.938 47.46,35.474 47.327,35.292 "/>
<path fill="#F5F5F5" d="M51.543,29.514c0.193-0.014,1.439,0.032,1.439,0.197c-0.472,0.209-0.834,0.543-1.087,1.003
	c0.302,0.454,0.594,0.915,0.875,1.381c0.078,1.044-1.316,2.018-1.17,3.531c0.104,1.068,0.114,2.17,0.956,2.92
	c1.126,1.004,0.636-2.092,0.693-2.371c0.045-0.229,1.098,1.002,1.073,1.383c-0.069,1.092-0.451,0.51-0.522,0.775
	c-0.301,1.141-0.344,1.85-1.252,1.762C51.135,39.288,49.763,31.325,51.543,29.514z"/>
<path fill="#F5F5F5" d="M47.443,27.629c0,0,1.125,1.216,1.852,1.203c0.133,0.357-0.33,0.688-0.516,0.847
	c-0.37-0.118-0.705,0.022-1.564-1.035C47.269,27.969,47.457,27.655,47.443,27.629z"/>
<path fill="#F5F5F5" d="M48.965,24.798c0.145-0.449,0.437-0.807,0.688-0.847c-0.066-0.343,0.529-1.864,2.262-2.446
	c0.105,0.78-0.741,1.548-0.741,1.548s2.553-0.437,3.067-1.085c-0.053,0.291-0.568,2.103-3.293,2.09
	c1.033,0.979-0.33,1.76-0.912,1.521C51.107,24.759,49.731,24.27,48.965,24.798z"/>
<path fill="#0FB4D4" d="M48.766,29.679c0,0,1.402,0.383,1.561-1.627c-0.304-0.874-0.728-2.752-0.079-3.293
	c-0.595-0.41-1.243,0.013-1.243,0.013c-0.039,0.093-0.568,0.847,0.146,2.168c-1.692-0.449-1.005,1.151-1.005,1.151
	c0.066-0.251,0.965-0.489,1.19,0.794C49.428,29.202,48.727,29.691,48.766,29.679z"/>
<path fill="#0FB4D4" d="M50.34,28.065c0,0,1.481-0.794,1.441-2.658c-1.256,0.026-1.707,1.651-1.707,1.651L50.34,28.065z"/>
<path fill="#F5F5F5" d="M43.701,27.972c0,0-1.098,0.953-1.72,0.647c-0.463,0.278-1.005-0.21-1.005-0.21s0.635,2.34,2.91,0.646
	C43.847,28.541,43.727,28.013,43.701,27.972z"/>
<path fill="#0FB4D4" d="M41.968,28.58c0.093-0.489,0.477-0.728,0.781-0.265c0.409,0.08,0.819-1.6-0.636-1.322
	c0.41-2.195-0.82-3.015-0.82-3.015s-0.436,2.433-0.237,2.882c0.198,0.451-0.29-0.832-1.864-1.19
	c-0.027,1.839,1.759,2.699,1.759,2.699S41.452,28.832,41.968,28.58z"/>
<path fill="#F5F5F5" d="M41.096,24.891c0-0.013-1.045,0-0.424,1.058c-0.463,0.146-1.494-0.528-0.779-1.428
	c-2.342-0.054-3.294-1.177-3.294-2.209c0.688,0.714,2.327,0.424,2.91,0.859c-0.714-0.661-0.569-1.573-0.569-1.573
	s1.997,0.596,2.354,2.367C41.175,24.31,41.122,24.917,41.096,24.891z"/>
<path fill="#785647" d="M42.936,24.333c-0.052,0.175-0.104,0.351-0.154,0.525c1.87,0.036,3.74,0.072,5.61,0.107
	c-0.112-0.578-0.507-1.235-0.739-1.705c0.061-0.441,0.143-1.057,0.25-1.631c0.09-0.48-0.652-0.603-0.472-1.102
	c-0.058,0.158,0.633,0.037,0.622,0.038c-0.254,0.021-0.365-1.018-0.704-1.146c-0.649-0.246-1.007,0.015-1.624-0.018
	c-0.829-0.043-2.012-0.02-1.772-1.164c0.39,0.122,0.871,0.03,1.019-0.409c-0.104-0.075-1.434-0.282-1.641-0.292
	c-0.188-0.008-1.609,0.356-1.719,0.45c0.393,0.515,0.779,0.379,1.158,0.751c0.177,0.172,0.319,1.068,0.137,1.008h0.213
	c-0.103,0.086-0.168,0.196-0.199,0.331c0.123-0.032,0.246-0.041,0.371-0.026c-0.084,0.178-0.185,0.345-0.305,0.502l0.503,0.04
	c-0.074,0.152-0.132,0.312-0.173,0.477c0.117-0.045,0.236-0.08,0.357-0.106C43.992,21.917,43.295,23.44,42.936,24.333z
	 M47.068,23.308 M46.914,21.426c0.836,0,0.401,1.842,0.086,1.888C46.234,23.423,46.341,21.426,46.914,21.426
	C47.152,21.426,46.676,21.426,46.914,21.426z M44.931,22.021c-0.259-1.63,2.007-1.064,1.294,0.096
	c-0.098,0.158-0.584,1.274-0.623,1.274C44.975,23.392,44.797,22.484,44.931,22.021z M43.926,23.039
	c0.39-0.511-0.293-1.747,0.648-1.984c0.003,0.74,0.008,1.739-0.418,2.382c-0.096-0.181-0.245-0.262-0.449-0.242
	C43.814,23.181,43.888,23.129,43.926,23.039z"/>
<path fill="#BCBCBC" d="M42.707,26.424l2.783,1.82l2.506-1.685c0,0,0.522-0.29,0.477-0.497c-0.044-0.206-0.225-0.126-0.315-0.089
	l-2.622,1.829l-2.695-1.704c0,0-0.197-0.062-0.233,0.063C42.57,26.288,42.681,26.359,42.707,26.424z"/>
<polygon fill="#FF7000" points="52.035,39.825 50.964,39.925 51.295,40.233 52.617,40.21 "/>
<polygon fill="#FF7000" points="51.604,28.397 50.275,29.091 50.607,29.397 51.929,29.376 "/>
<polygon fill="#FF7000" points="51.319,40.38 51.906,40.8 53.6,40.538 53.117,40.222 "/>
<g>
	<defs>
		<path id="SVGID_1_" d="M51.01,31.715c-0.155-0.077-0.834-0.17-1.591,0.324l0.031,1.744c0,0,1.111-0.602,1.652-0.463
			C51.07,32.78,51.07,32.086,51.01,31.715z"/>
	</defs>
	<clipPath id="SVGID_2_">
		<use xlink:href="#SVGID_1_"  overflow="visible"/>
	</clipPath>
	<polygon clip-path="url(#SVGID_2_)" fill="#ECF1FF" points="51.057,33.783 51.103,33.755 51.103,33.783 	"/>
	<polygon clip-path="url(#SVGID_2_)" fill="#EDF2FF" points="50.984,33.783 51.103,33.71 51.103,33.755 51.057,33.783 	"/>
	<polygon clip-path="url(#SVGID_2_)" fill="#EEF2FF" points="50.912,33.783 51.103,33.665 51.103,33.71 50.984,33.783 	"/>
	<polygon clip-path="url(#SVGID_2_)" fill="#EFF3FF" points="50.84,33.783 51.103,33.621 51.103,33.665 50.912,33.783 	"/>
	<polygon clip-path="url(#SVGID_2_)" fill="#F1F4FF" points="50.768,33.783 51.103,33.575 51.103,33.621 50.84,33.783 	"/>
	<polygon clip-path="url(#SVGID_2_)" fill="#F2F5FF" points="50.694,33.783 51.103,33.53 51.103,33.575 50.768,33.783 	"/>
	<polygon clip-path="url(#SVGID_2_)" fill="#F3F6FF" points="50.623,33.783 51.103,33.486 51.103,33.53 50.694,33.783 	"/>
	<polygon clip-path="url(#SVGID_2_)" fill="#F4F6FF" points="50.551,33.783 51.103,33.441 51.103,33.486 50.623,33.783 	"/>
	<polygon clip-path="url(#SVGID_2_)" fill="#F5F5F5" points="50.479,33.783 51.103,33.396 51.103,33.441 50.551,33.783 	"/>
	<polygon clip-path="url(#SVGID_2_)" fill="#F5F5F5" points="50.405,33.783 51.103,33.352 51.103,33.396 50.479,33.783 	"/>
	<polygon clip-path="url(#SVGID_2_)" fill="#F5F5F5" points="50.333,33.783 51.103,33.307 51.103,33.352 50.405,33.783 	"/>
	<polygon clip-path="url(#SVGID_2_)" fill="#F5F5F5" points="50.261,33.783 51.103,33.262 51.103,33.307 50.333,33.783 	"/>
	<polygon clip-path="url(#SVGID_2_)" fill="#F5F5F5" points="50.188,33.783 51.103,33.217 51.103,33.262 50.261,33.783 	"/>
	<polygon clip-path="url(#SVGID_2_)" fill="#F5F5F5" points="50.115,33.783 51.103,33.172 51.103,33.217 50.188,33.783 	"/>
	<polygon clip-path="url(#SVGID_2_)" fill="#F5F5F5" points="50.043,33.783 51.103,33.127 51.103,33.172 50.115,33.783 	"/>
	<polygon clip-path="url(#SVGID_2_)" fill="#F5F5F5" points="49.971,33.783 51.103,33.082 51.103,33.127 50.043,33.783 	"/>
	<polygon clip-path="url(#SVGID_2_)" fill="#F5F5F5" points="49.898,33.783 51.103,33.037 51.103,33.082 49.971,33.783 	"/>
	<polygon clip-path="url(#SVGID_2_)" fill="#F5F5F5" points="49.826,33.783 51.103,32.992 51.103,33.037 49.898,33.783 	"/>
	<polygon clip-path="url(#SVGID_2_)" fill="#F5F5F5" points="49.754,33.783 51.103,32.948 51.103,32.992 49.826,33.783 	"/>
	<polygon clip-path="url(#SVGID_2_)" fill="#F5F5F5" points="51.103,32.947 49.754,33.783 49.419,33.783 49.419,31.545 
		51.103,31.545 	"/>
</g>
<path fill="#BCBCBC" d="M40.035,30.017c-0.289,0.775,0.693,2.004,1.025,2.673c0.67-0.848,0.961-0.943,0.967,0.193
	c0.001,0.262,0.074,0.723-0.023,0.971c-0.127,0.323-0.768,0.144-0.541,0.536c0.57,0.984,0.465,1.586,0.17,2.639
	c-0.115,0.408-0.527,2.504-1.055,2.59c0.029-0.004,0.064-1.527,0.02-1.746c-0.051-0.26-0.558-1.02-0.373-1.314
	c-0.214,0.342-1.025,1.457-1.535,1.133c0.223,0.479,0.008,0.73-0.074,1.162c-0.057,0.299-0.075,0.654-0.131,1.014
	c-0.069,0.436-0.688,0.77-0.578,1.42c-2.072-0.73-3.54-2.291-2.839-4.576c0.155-0.506,0.429-0.988,0.869-1.299
	c0.548-0.385,0.589-1.033,0.829-1.668c0.096-0.251,0.292-0.548,0.258-0.822c-0.066-0.551,0.268-0.783,0.34-1.236
	c0.107-0.67,0.168-1.541,0.162-2.222c-0.009-1.112,0.395-1.009,1.263-1.487c0.271-0.149,1.536,0.083,1.813,0.313
	C40.922,28.56,40.239,29.848,40.035,30.017z"/>
<rect x="42.564" y="24.724" fill="#F5F5F5" width="5.945" height="1.179"/>
<path opacity="0.1" fill="#1A1626" d="M50.737,8.591c4.097,5.13,6.563,11.622,6.563,18.701c0,16.568-13.428,30.002-29.994,30.002
	c-7.101,0-13.609-2.477-18.744-6.594c5.494,6.879,13.941,11.299,23.442,11.299c16.565,0,29.995-13.432,29.995-29.999
	C61.999,22.527,57.596,14.09,50.737,8.591z"/>
<path opacity="0.3" fill-rule="evenodd" clip-rule="evenodd" fill="#FFFFFF" d="M9.735,19.015c0.549,3.865,7.767-3.7,15.08-10.202
	C29.532,4.63,8.084,7.385,9.735,19.015z"/>
</svg>
