<?xml version="1.0" encoding="utf-8"?>
<!-- Generator: Adobe Illustrator 15.0.0, SVG Export Plug-In . SVG Version: 6.00 Build 0)  -->
<!DOCTYPE svg PUBLIC "-//W3C//DTD SVG 1.1//EN" "http://www.w3.org/Graphics/SVG/1.1/DTD/svg11.dtd">
<svg version="1.1" id="Layer_1" xmlns="http://www.w3.org/2000/svg" xmlns:xlink="http://www.w3.org/1999/xlink" x="0px" y="0px"
	 width="64px" height="64px" viewBox="0 0 64 64" enable-background="new 0 0 64 64" xml:space="preserve">
<path fill="#FFE12C" d="M2,32c0,5.885,1.701,11.367,4.628,16h50.744C60.299,43.367,62,37.885,62,32s-1.701-11.368-4.628-16H6.628
	C3.701,20.632,2,26.115,2,32z"/>
<path fill="#E81C27" d="M57.372,16C52.057,7.59,42.684,2,32,2S11.943,7.59,6.628,16H57.372z"/>
<path fill="#E81C27" d="M6.628,48C11.943,56.41,21.316,62,32,62s20.057-5.59,25.372-14H6.628z"/>
<rect x="9.242" y="28.711" fill="#C8B100" width="3.2" height="1.763"/>
<rect x="9.198" y="41.895" fill="#C8B100" width="3.285" height="1.652"/>
<path fill="#E81C27" d="M8.941,39.061c-0.325,0.188-0.546,0.381-0.51,0.477c0.018,0.088,0.12,0.154,0.269,0.252
	c0.232,0.161,0.373,0.45,0.263,0.583c0.192-0.155,0.313-0.386,0.313-0.644C9.276,39.459,9.148,39.217,8.941,39.061"/>
<rect x="9.668" y="30.456" fill="#F5F5F5" width="2.334" height="11.435"/>
<path fill="#E81C27" d="M14.387,34.732c-0.511-0.209-1.375-0.365-2.368-0.398c-0.343,0.002-0.725,0.035-1.119,0.101
	c-1.396,0.233-2.459,0.79-2.375,1.244l0.008,0.038l-0.531-1.225c-0.094-0.504,1.086-1.123,2.635-1.381
	c0.486-0.081,0.961-0.112,1.373-0.108c0.99,0,1.852,0.127,2.371,0.319L14.387,34.732"/>
<path fill="#E81C27" d="M9.665,36.168c-0.646-0.047-1.089-0.219-1.141-0.489c-0.039-0.216,0.18-0.454,0.57-0.671
	c0.174,0.019,0.37,0.043,0.573,0.043L9.665,36.168"/>
<path fill="#E81C27" d="M12.007,35.295c0.404,0.061,0.707,0.161,0.859,0.285l0.014,0.024c0.071,0.147-0.283,0.462-0.877,0.813
	L12.007,35.295"/>
<path fill="#E81C27" d="M8.216,38.374c-0.063-0.185,0.568-0.554,1.461-0.882c0.407-0.146,0.744-0.297,1.162-0.481
	c1.238-0.548,2.153-1.177,2.041-1.405l-0.013-0.023l0.169,1.183c0.111,0.21-0.726,0.829-1.866,1.376
	c-0.365,0.174-1.136,0.459-1.5,0.586c-0.65,0.227-1.298,0.652-1.238,0.811L8.216,38.374"/>
<rect x="30.655" y="28.711" fill="#C8B100" width="3.2" height="1.763"/>
<rect x="30.614" y="41.895" fill="#C8B100" width="3.285" height="1.652"/>
<path fill="#E81C27" d="M34.156,39.061c0.325,0.188,0.546,0.381,0.511,0.477c-0.018,0.088-0.121,0.154-0.27,0.252
	c-0.232,0.161-0.373,0.45-0.263,0.583c-0.192-0.155-0.313-0.386-0.313-0.644C33.822,39.459,33.95,39.217,34.156,39.061"/>
<rect x="31.096" y="30.456" fill="#F5F5F5" width="2.334" height="11.435"/>
<path fill="#E81C27" d="M28.711,34.732c0.511-0.209,1.376-0.365,2.37-0.398c0.341,0.002,0.723,0.035,1.117,0.101
	c1.396,0.233,2.459,0.79,2.375,1.244l-0.008,0.038l0.531-1.225c0.094-0.504-1.086-1.123-2.635-1.381
	c-0.486-0.081-0.961-0.112-1.371-0.108c-0.992,0-1.854,0.127-2.373,0.319L28.711,34.732"/>
<path fill="#E81C27" d="M33.433,36.168c0.648-0.047,1.09-0.219,1.141-0.489c0.039-0.216-0.18-0.454-0.57-0.671
	c-0.174,0.019-0.371,0.043-0.573,0.043L33.433,36.168"/>
<path fill="#E81C27" d="M31.092,35.295c-0.405,0.061-0.708,0.161-0.86,0.285l-0.014,0.024c-0.072,0.147,0.283,0.462,0.877,0.813
	L31.092,35.295"/>
<path fill="#E81C27" d="M34.882,38.374c0.063-0.185-0.568-0.554-1.461-0.882c-0.407-0.146-0.744-0.297-1.162-0.481
	c-1.238-0.548-2.153-1.177-2.039-1.405l0.011-0.023l-0.167,1.183c-0.113,0.21,0.725,0.829,1.864,1.376
	c0.365,0.174,1.136,0.459,1.5,0.586c0.651,0.227,1.298,0.652,1.239,0.811L34.882,38.374"/>
<path fill="#E81C27" d="M21.456,22.277c1.916,0,5.779,0.438,7.191,1.768c-1.486,3.602-3.924,2.123-7.159,2.122
	c-3.245-0.001-5.682,1.482-7.175-2.122C15.721,22.727,19.55,22.277,21.456,22.277C22.411,22.277,20.504,22.277,21.456,22.277z"/>
<path fill="#C8B100" d="M26.444,26.277c-1.244-0.695-2.99-0.844-4.92-0.849c-1.928,0.005-3.66,0.153-4.905,0.849l0.446,1.689
	c1.126,0.339,2.703,0.548,4.464,0.55c1.761-0.002,3.337-0.211,4.463-0.55L26.444,26.277z"/>
<path fill="#C8B100" d="M28.116,22.044c-0.381-0.331-1.156-0.553-1.938-0.553c-0.31,0-0.607,0.034-0.881,0.097
	c0.041,0.045-0.551-0.83-1.956-0.83c-0.495,0-0.948,0.122-1.298,0.325l-0.009-0.059c-0.052-0.225-0.269-0.392-0.522-0.392
	c-0.253,0-0.479,0.167-0.531,0.392l-0.008,0.058c-0.35-0.203-0.802-0.324-1.295-0.324c-1.375,0-1.996,0.874-1.956,0.83
	c-0.274-0.063-0.571-0.097-0.882-0.097c-4.617,0-2.253,3.108-2.253,3.108l0.378-0.618c-1.068-1.4-0.141-2.25,1.875-2.25
	c0.254,0,0.498,0.024,0.725,0.068c-0.689,1.026,0.6,1.887,0.6,1.887l0.299-0.489c-0.727-0.461-0.785-2.202,1.215-2.202
	c0.497,0,0.945,0.135,1.263,0.352c-0.01,0.109-0.104,1.455-0.208,1.728l0.779,0.737l0.771-0.737
	c-0.103-0.272-0.196-1.617-0.206-1.726c0.316-0.219,0.766-0.354,1.265-0.354c2.054,0,2.126,1.729,1.214,2.202l0.299,0.489
	c0,0,1.091-0.867,0.6-1.887c0.227-0.044,0.472-0.071,0.725-0.068c2.388,0.035,2.549,1.776,1.875,2.25l0.378,0.618
	C28.432,24.6,29.47,23.221,28.116,22.044z"/>
<path fill="#005BBF" d="M20.879,20.063c0-0.334,0.285-0.604,0.636-0.604c0.352,0,0.637,0.27,0.637,0.604
	c0,0.332-0.285,0.602-0.637,0.602C21.164,20.665,20.879,20.396,20.879,20.063"/>
<polygon fill="#C8B100" points="21.349,18.374 21.349,18.699 21.001,18.699 21.001,19.029 21.349,19.029 21.349,19.481 
	21.349,19.979 20.91,19.979 20.879,20.064 20.929,20.299 20.933,20.303 22.099,20.303 22.103,20.299 22.153,20.064 22.121,19.979 
	21.696,19.979 21.696,19.485 21.696,19.029 22.045,19.029 22.045,18.699 21.696,18.699 21.696,18.374 "/>
<path fill="#E81C27" d="M21.524,28.286c-1.588-0.002-3.024-0.186-4.118-0.468c1.094-0.283,2.53-0.456,4.118-0.459
	c1.59,0.003,3.033,0.176,4.127,0.459C24.558,28.101,23.114,28.284,21.524,28.286"/>
<path fill="#F5F5F5" d="M21.578,45.625c-1.878,0-3.739-0.461-5.305-1.227c-1.154-0.57-1.919-1.723-1.919-3.041v-4.781h14.419v4.781
	c0,1.318-0.765,2.471-1.919,3.041C25.29,45.164,23.457,45.625,21.578,45.625"/>
<rect x="21.547" y="28.568" fill="#F5F5F5" width="7.227" height="7.998"/>
<path fill="#E81C27" d="M21.552,41.352c0,1.889-1.6,3.42-3.595,3.42s-3.612-1.531-3.612-3.42v-4.789h7.207V41.352"/>
<path fill="#C8B100" d="M15.919,44.174c0.226,0.12,0.535,0.319,0.865,0.398l-0.02-8.179h-0.846V44.174z"/>
<path fill="#C8B100" d="M14.333,41.287c0.021,1.009,0.422,1.759,0.824,2.25v-7.104h-0.814L14.333,41.287z"/>
<path fill="#C7B500" d="M17.526,44.752c0.33,0.033,0.577,0.027,0.844,0v-8.358h-0.844V44.752z"/>
<path fill="#C8B100" d="M19.112,44.572c0.332-0.066,0.704-0.271,0.866-0.378v-7.801h-0.845L19.112,44.572z"/>
<rect x="14.346" y="28.568" fill="#E81C27" width="7.204" height="7.998"/>
<path fill="#C8B100" d="M20.763,43.457c0.352-0.313,0.682-1.021,0.803-1.832l0.021-5.231h-0.845L20.763,43.457z"/>
<path fill="#E81C27" d="M28.78,36.563v4.789c0,1.889-1.619,3.42-3.615,3.42c-1.994,0-3.613-1.531-3.613-3.42v-4.789H28.78"/>
<path fill="#E81C27" d="M26.169,29.964c0.256,0.603,0.253,2.077-0.647,1.763c0.17,0.059,0.257,0.813,0.567,1.161
	c0.528,0.598,1.107,0.061,0.965-0.58c-0.245-1.105-0.117-1.814,0.106-2.892c0.019,0.144,0.501,0.118,0.676-0.107
	c-0.134,0.288-0.158,0.688-0.045,0.699c-0.176,0.29-0.726,0.771-0.76,1.094c-0.071,0.695,0.975,2.048-0.205,2.318
	c-0.783,0.18-0.311,0.799,0.017,1.109c-0.009-0.009-0.361,1.275-0.204,1.219c-0.845,0.304-0.566-0.375-0.566-0.375
	c0.36-1.152-0.654-1.271-0.567-1.473c-1-0.053,0.128,0.936-0.821,0.936c-0.159,0-0.573,0.174-0.579,0.173
	c-1.099-0.089-0.451-1.138-0.132-0.987c0.308,0.146,0.586,0.648,0.639-0.051c0,0-0.512-0.809,0.757-0.802
	c-0.468-0.003-0.84-0.446-0.997-0.896c-0.166,0.128-0.55,0.607-1.616,0.691c0,0-0.339-1.073-0.005-0.923
	c0.367,0.164,0.646,0.172,0.982-0.209c-0.24-0.254-1.404-0.719-1.23-1.431c0.048-0.191,0.589-0.479,0.589-0.479
	c-0.086,0.494,0.173,0.968,0.813,1.045c0.827,0.101,0.486-0.198,0.557-0.448c0.064-0.225,0.683,0.082,0.533-0.419
	c-0.021-0.072-0.715-0.233-0.488-0.45c0.557-0.51,1.231-0.2,1.664,0.315"/>
<polyline fill="#E81C27" points="21.606,44.611 21.373,44.078 21.607,43.545 21.839,44.078 21.606,44.611 "/>
<polygon fill="#C8B100" points="16.454,30.284 16.454,30.815 16.687,30.815 16.687,31.18 16.188,31.18 16.188,32.242 16.454,32.242 
	16.454,34.365 15.922,34.365 15.922,35.46 20.003,35.46 20.003,34.365 19.472,34.365 19.472,32.242 19.737,32.242 19.737,31.18 
	19.239,31.18 19.239,30.815 19.472,30.815 19.472,30.284 18.478,30.284 18.478,30.815 18.71,30.815 18.71,31.18 18.212,31.18 
	18.212,30.019 18.478,30.019 18.478,29.488 17.448,29.488 17.448,30.019 17.714,30.019 17.714,31.18 17.216,31.18 17.216,30.815 
	17.448,30.815 17.448,30.284 "/>
<path fill="#C8B100" d="M27.75,42.607v-4.993h-5.168v4.993l2.414,1.111v0.001h0.002h0.334h0.004v-0.001L27.75,42.607z
	 M24.994,37.957l0.002,1.738l-1.74-1.738H24.994z M22.924,38.108l2,1.999l-2,2.002V38.108z M23.061,42.456l1.936-1.935v2.818
	L23.061,42.456z M25.336,43.34v-2.818l1.936,1.935L25.336,43.34z M27.408,42.109l-2-2.002l2-1.999V42.109z M25.336,37.957h1.74
	l-1.74,1.738V37.957z"/>
<path fill="#E81C27" d="M19.235,36.533c0-1.451,1.045-2.627,2.334-2.627s2.334,1.176,2.334,2.627c0,1.449-1.045,2.625-2.334,2.625
	S19.235,37.982,19.235,36.533"/>
<path fill="#005BBF" d="M19.927,36.527c0-1.064,0.736-1.926,1.644-1.926c0.906,0,1.642,0.861,1.642,1.926s-0.735,1.927-1.642,1.927
	C20.663,38.454,19.927,37.592,19.927,36.527"/>
<polyline fill="#C8B100" points="20.794,35.201 20.369,36.299 20.659,36.398 20.524,36.778 21.067,36.778 20.933,36.398 
	21.224,36.299 20.794,35.201 "/>
<polyline fill="#C8B100" points="22.321,35.201 21.896,36.299 22.186,36.398 22.05,36.778 22.595,36.778 22.459,36.398 
	22.75,36.299 22.321,35.201 "/>
<polyline fill="#C8B100" points="21.558,36.515 21.132,37.611 21.422,37.712 21.287,38.092 21.832,38.092 21.696,37.712 
	21.987,37.611 21.557,36.515 "/>
<path opacity="0.1" fill="#1A1626" d="M50.737,8.591c4.097,5.13,6.563,11.622,6.563,18.701c0,16.567-13.429,30.003-29.995,30.003
	c-7.1,0-13.609-2.479-18.744-6.594C14.055,57.58,22.503,62,32.004,62c16.565,0,29.994-13.432,29.994-30
	C61.998,22.527,57.596,14.09,50.737,8.591z"/>
<path opacity="0.3" fill-rule="evenodd" clip-rule="evenodd" fill="#FFFFFF" d="M9.734,19.015c0.549,3.865,7.768-3.7,15.08-10.202
	C29.531,4.63,8.084,7.385,9.734,19.015z"/>
</svg>
