<?xml version="1.0" encoding="utf-8"?>
<!-- Generator: Adobe Illustrator 15.0.0, SVG Export Plug-In . SVG Version: 6.00 Build 0)  -->
<!DOCTYPE svg PUBLIC "-//W3C//DTD SVG 1.1//EN" "http://www.w3.org/Graphics/SVG/1.1/DTD/svg11.dtd">
<svg version="1.1" id="Layer_1" xmlns="http://www.w3.org/2000/svg" xmlns:xlink="http://www.w3.org/1999/xlink" x="0px" y="0px"
	 width="64px" height="64px" viewBox="0 0 64 64" enable-background="new 0 0 64 64" xml:space="preserve">
<path fill="#ED7612" d="M2,32C2,15.436,15.438,2,32,2c16.572,0,30,13.436,30,30c0,16.57-13.428,30-30,30C15.438,62,2,48.57,2,32z"/>
<path fill="#E64C18" d="M45.778,5.354C53.172,10.611,58,19.24,58,29c0,16.02-12.98,29-29,29c-9.759,0-18.39-4.828-23.646-12.223
	C10.347,55.412,20.404,62,32,62c16.571,0,30-13.43,30-30C62,20.402,55.413,10.348,45.778,5.354z"/>
<path fill-rule="evenodd" clip-rule="evenodd" fill="#F59E01" d="M10.218,17.398c0.446,3.133,6.31-2.998,12.248-8.268
	C26.298,5.742,8.878,7.973,10.218,17.398z"/>
<path fill="#FFFFFF" d="M41.643,20.582c0.888,1.234,1.332,2.709,1.332,4.43c0,1.771-0.449,3.195-1.344,4.271
	c-0.502,0.604-1.238,1.154-2.214,1.652c1.481,0.539,2.599,1.393,3.353,2.561c0.753,1.168,1.13,2.584,1.13,4.252
	c0,1.719-0.431,3.26-1.292,4.625c-0.549,0.906-1.232,1.668-2.055,2.283c-0.927,0.709-2.02,1.195-3.279,1.457
	c-1.259,0.264-2.625,0.395-4.1,0.395H20.1V17.492h14.023C37.66,17.543,40.167,18.574,41.643,20.582z M25.887,22.531v6.396h7.053
	c1.26,0,2.283-0.238,3.068-0.717c0.785-0.48,1.179-1.33,1.179-2.551c0-1.352-0.52-2.244-1.558-2.676
	c-0.896-0.303-2.04-0.453-3.43-0.453H25.887z M25.887,33.732v7.736h7.045c1.258,0,2.238-0.172,2.938-0.512
	c1.271-0.631,1.907-1.838,1.907-3.623c0-1.51-0.616-2.545-1.849-3.109c-0.688-0.316-1.654-0.48-2.899-0.492H25.887z"/>
</svg>
