<?xml version="1.0" encoding="utf-8"?>
<!-- Generator: Adobe Illustrator 15.0.0, SVG Export Plug-In . SVG Version: 6.00 Build 0)  -->
<!DOCTYPE svg PUBLIC "-//W3C//DTD SVG 1.1//EN" "http://www.w3.org/Graphics/SVG/1.1/DTD/svg11.dtd">
<svg version="1.1" id="Layer_1" xmlns="http://www.w3.org/2000/svg" xmlns:xlink="http://www.w3.org/1999/xlink" x="0px" y="0px"
	 width="64px" height="64px" viewBox="0 0 64 64" enable-background="new 0 0 64 64" xml:space="preserve">
<path fill="#529320" d="M11.005,32v21.42C16.416,58.725,23.824,62,32,62c16.569,0,30-13.432,30-30H11.005z"/>
<path fill="#0FB4D4" d="M11.005,32H62C62,15.432,48.568,2,32,2c-8.176,0-15.583,3.275-20.995,8.578V32z"/>
<path fill="#F5F5F5" d="M11.005,10.578C5.45,16.023,2,23.607,2,32s3.45,15.977,9.006,21.422L32.427,32L11.005,10.578z"/>
<polygon fill="#E81C27" points="14,35.715 18.323,39 16.693,33.658 21,30.25 15.662,30.25 14,25 12.385,30.25 7,30.25 
	11.308,33.658 9.676,39 "/>
<path opacity="0.1" fill="#1A1626" d="M50.738,8.59c4.096,5.131,6.563,11.623,6.563,18.701c0,16.568-13.43,30.004-29.997,30.004
	c-7.1,0-13.61-2.479-18.745-6.594C14.054,57.58,22.503,62,32.003,62c16.567,0,29.995-13.432,29.995-30
	C61.998,22.527,57.596,14.09,50.738,8.59z"/>
<path opacity="0.3" fill-rule="evenodd" clip-rule="evenodd" fill="#FFFFFF" d="M9.734,19.014c0.549,3.865,7.767-3.699,15.08-10.201
	C29.531,4.629,8.083,7.385,9.734,19.014z"/>
</svg>
