<?xml version="1.0" encoding="utf-8"?>
<!-- Generator: Adobe Illustrator 15.0.0, SVG Export Plug-In . SVG Version: 6.00 Build 0)  -->
<!DOCTYPE svg PUBLIC "-//W3C//DTD SVG 1.1//EN" "http://www.w3.org/Graphics/SVG/1.1/DTD/svg11.dtd">
<svg version="1.1" id="Layer_1" xmlns="http://www.w3.org/2000/svg" xmlns:xlink="http://www.w3.org/1999/xlink" x="0px" y="0px"
	 width="64px" height="64px" viewBox="0 0 64 64" enable-background="new 0 0 64 64" xml:space="preserve">
<path fill="#014D87" d="M62,31.998C62,15.43,48.568,2,32,2S2,15.43,2,31.998C2,36.268,2.897,40.324,4.504,44h54.992
	C61.104,40.324,62,36.268,62,31.998z"/>
<path fill="#014D87" d="M32,62c9.814,0,18.527-4.715,24-12H8C13.474,57.285,22.186,62,32,62z"/>
<path fill="#FFE12C" d="M4.504,44C5.439,46.141,6.613,48.154,8,50h48c1.387-1.846,2.561-3.859,3.496-6H4.504z"/>
<polygon fill="#F5F5F5" points="11.442,15.494 12.681,19.307 16.688,19.307 13.445,21.66 14.684,25.471 11.442,23.115 8.2,25.471 
	9.438,21.66 6.197,19.307 10.204,19.307 "/>
<polygon fill="#F5F5F5" points="22.822,24.459 24.562,29.813 30.191,29.813 25.638,33.123 27.377,38.477 22.822,35.168 
	18.268,38.477 20.007,33.123 15.452,29.813 21.082,29.813 "/>
<path opacity="0.1" fill="#1A1626" d="M50.736,8.592c4.098,5.129,6.563,11.621,6.563,18.701c0,16.568-13.428,30.002-29.993,30.002
	c-7.101,0-13.609-2.477-18.744-6.594C14.056,57.58,22.503,62,32.004,62c16.564,0,29.994-13.432,29.994-30
	C61.998,22.527,57.596,14.09,50.736,8.592z"/>
<path opacity="0.3" fill-rule="evenodd" clip-rule="evenodd" fill="#FFFFFF" d="M9.735,19.016c0.549,3.865,7.767-3.701,15.08-10.203
	C29.531,4.631,8.084,7.385,9.735,19.016z"/>
</svg>
