<?xml version="1.0" encoding="utf-8"?>
<!-- Generator: Adobe Illustrator 15.0.0, SVG Export Plug-In . SVG Version: 6.00 Build 0)  -->
<!DOCTYPE svg PUBLIC "-//W3C//DTD SVG 1.1//EN" "http://www.w3.org/Graphics/SVG/1.1/DTD/svg11.dtd">
<svg version="1.1" id="Layer_1" xmlns="http://www.w3.org/2000/svg" xmlns:xlink="http://www.w3.org/1999/xlink" x="0px" y="0px"
	 width="64px" height="64px" viewBox="0 0 64 64" enable-background="new 0 0 64 64" xml:space="preserve">
<g>
	<path fill="#E81C27" d="M32,62c13.061,0,24.168-8.35,28.287-20H3.715C7.834,53.65,18.939,62,32,62z"/>
</g>
<g>
	<path fill="#529320" d="M32,2C18.939,2,7.834,10.35,3.715,22h56.572C56.168,10.35,45.061,2,32,2z"/>
</g>
<g>
	<path fill="#FFE12C" d="M60.287,42C61.393,38.873,62,35.508,62,32c0-3.507-0.607-6.871-1.713-10H3.715C2.607,25.129,2,28.493,2,32
		c0,3.508,0.607,6.873,1.715,10H60.287z"/>
</g>
<circle fill="#014D87" cx="32" cy="32" r="14"/>
<path fill="#FFE12C" d="M35.791,33.295L35.791,33.295l6.061-4.318l-7.51-0.021v-0.002l0,0L32,22l-2.342,6.953l0,0v0.002l-7.51,0.021
	l6.063,4.318l0,0l0,0l-2.299,6.967L32,35.98l0,0h0.002l6.088,4.281L35.791,33.295L35.791,33.295z M39.311,29.779l-3.791,2.704
	l-0.904-2.716L39.311,29.779z M29.189,32.986l1.074-3.22h3.473l1.074,3.22L32,34.975L29.189,32.986z M32,24.604l1.465,4.35h-2.93
	L32,24.604z M24.689,29.779l4.697-0.012l-0.906,2.716L24.689,29.779z M27.482,38.158l1.438-4.359l2.371,1.678L27.482,38.158z
	 M36.52,38.158l-3.809-2.682l2.369-1.678L36.52,38.158z"/>
<polygon fill="#FFE12C" points="31.584,37.271 31.584,42 32.418,42 32.418,37.271 32,36.979 "/>
<polygon fill="#FFE12C" points="25.906,32.659 22,33.801 22.24,34.578 26.75,33.26 "/>
<polygon fill="#FFE12C" points="29.055,28.144 29.328,27.334 26.221,23.487 25.566,23.987 28.922,28.145 "/>
<polygon fill="#FFE12C" points="35.078,28.145 38.434,23.987 37.779,23.487 34.672,27.334 34.945,28.144 "/>
<polygon fill="#FFE12C" points="38.094,32.659 37.25,33.26 41.762,34.578 42,33.801 "/>
<path opacity="0.1" fill="#1A1626" d="M50.738,8.591c4.096,5.13,6.563,11.622,6.563,18.701c0,16.569-13.43,30.003-29.996,30.003
	c-7.1,0-13.609-2.477-18.744-6.594C14.055,57.58,22.504,62,32.004,62c16.566,0,29.994-13.432,29.994-30
	C61.998,22.527,57.596,14.09,50.738,8.591z"/>
<path opacity="0.3" fill-rule="evenodd" clip-rule="evenodd" fill="#FFFFFF" d="M9.734,19.015c0.549,3.865,7.768-3.7,15.08-10.202
	C29.531,4.63,8.084,7.385,9.734,19.015z"/>
</svg>
