<?xml version="1.0" encoding="utf-8"?>
<!-- Generator: Adobe Illustrator 15.0.0, SVG Export Plug-In . SVG Version: 6.00 Build 0)  -->
<!DOCTYPE svg PUBLIC "-//W3C//DTD SVG 1.1//EN" "http://www.w3.org/Graphics/SVG/1.1/DTD/svg11.dtd">
<svg version="1.1" id="Layer_1" xmlns="http://www.w3.org/2000/svg" xmlns:xlink="http://www.w3.org/1999/xlink" x="0px" y="0px"
	 width="64px" height="64px" viewBox="0 0 64 64" enable-background="new 0 0 64 64" xml:space="preserve">
<path fill="#E81C27" d="M32,2C18.939,2,7.832,10.35,3.713,22h56.572C56.166,10.35,45.061,2,32,2z"/>
<path fill="#302C3B" d="M32,62c13.061,0,24.166-8.35,28.285-20H3.713C7.832,53.65,18.939,62,32,62z"/>
<path fill="#F5F5F5" d="M3.713,22C2.607,25.128,2,28.492,2,32s0.607,6.871,1.713,10h56.572C61.393,38.871,62,35.508,62,32
	s-0.607-6.872-1.715-10H3.713z"/>
<path fill="none" d="M31.998,34.684L31.998,34.684c-0.137-0.104-0.262-0.209-0.381-0.318l-0.744,3.383
	c0.371,0.016,0.75,0.027,1.125,0.045c0.377,0,0.76-0.006,1.133-0.02l-0.75-3.41C32.26,34.473,32.133,34.58,31.998,34.684z"/>
<g>
	<path fill="#F5F5F5" d="M30.578,25.134c0.275-0.22,0.514-0.02,0.68,0.22c0.146,0.21,0.137,0.806-0.074,1.502
		c-0.123,0.408-0.363,0.815-0.555,1.097c0.443-0.019,0.902-0.121,1.371-0.293c0.467,0.171,0.922,0.273,1.363,0.293
		c-0.215-0.426-0.375-1.166-0.348-1.793c0.037-0.881-0.125-1.228-0.256-1.357c-0.164-0.165-0.695-0.311-1.045-0.33
		c-0.197-0.01-0.166,0.149-0.166,0.149c-0.365-0.094-0.732-0.13-0.896-0.02C30.496,24.706,30.465,25.224,30.578,25.134z"/>
</g>
<g>
	<path fill="#F5F5F5" d="M37.293,28.13c-0.193-1.144-1.348-0.822-2.201-0.334c-0.369,0.237-0.762,0.378-1.168,0.438
		c-0.105,0.016-0.213,0.027-0.32,0.032c-0.516,0.022-1.053-0.075-1.604-0.269c-0.549,0.193-1.084,0.29-1.596,0.269
		c-0.055-0.003-0.109-0.007-0.164-0.012c-0.467-0.043-0.914-0.189-1.334-0.458c-0.822-0.47-1.922-0.785-2.176,0.214
		c0.195-0.125,0.439-0.26,0.549-0.26l-0.404,9.633l0.201-0.182l0.416-9.301c0.137,0.137,0.549,0.475,0.623,0.549v0l-0.348,8.123
		l0.277-0.252l0.344-7.658c0.137,0.137,0.41,0.337,0.484,0.412l0,0l-0.27,6.741l0.764-0.693l0.771-2.733
		c-0.705-1.494-0.602-2.815-0.602-2.815c0.066,0.015,0.137,0.021,0.209,0.021c0.49,0,1.6-0.275,2.1-0.592
		c0.074-0.047,0.135-0.094,0.178-0.142c0.039,0.052,0.096,0.102,0.164,0.151c0.479,0.336,1.57,0.583,2.064,0.583
		c0.072,0,0.139-0.007,0.211-0.021c0,0,0.1,1.319-0.604,2.813l0.746,2.646L35.4,35.77l-0.266-6.63l0,0
		c0.072-0.074,0.342-0.27,0.477-0.405l0.336,7.543l0.273,0.254l-0.342-8.005v0c0.074-0.074,0.477-0.405,0.611-0.54l0.41,9.176
		l0.197,0.184l-0.398-9.508C36.816,27.838,37.096,28,37.293,28.13z"/>
</g>
<g>
	<path fill="#F5F5F5" d="M31.121,29.654v3.457v0.316c0.018,0.02,0.033,0.039,0.049,0.059c0.023,0.027,0.049,0.055,0.072,0.082
		c0.139,0.16,0.289,0.314,0.449,0.459c0.098,0.092,0.199,0.18,0.307,0.264c0.105-0.086,0.209-0.174,0.309-0.266
		c0.18-0.164,0.348-0.338,0.504-0.521c0.004-0.006,0.01-0.012,0.014-0.02v-0.105V33.17v-3.522c-0.326-0.104-0.627-0.238-0.811-0.395
		C31.813,29.405,31.477,29.545,31.121,29.654z"/>
</g>
<path fill="#C09300" d="M36.336,37.863c0-0.463-0.461-0.521-0.854-0.391c-0.055,0.018-0.113,0.035-0.176,0.051l-0.615-2.188
	l3.279,3.195l-0.42-10.443c-0.063-1.582-1.373-1.219-2.324-0.648c-0.451,0.304-0.932,0.463-1.436,0.505
	c-0.682-1.241-0.305-2.765-0.801-3.212c-0.232-0.21-0.939-0.475-1.381-0.502c-0.25-0.014-0.209,0.21-0.209,0.21
	c-0.463-0.133-0.896-0.078-1.105,0.078c-0.197,0.146-0.002,1.076,0.141,0.948c0.35-0.312,0.416-0.225,0.625,0.114
	c0.172,0.278-0.215,1.477-0.703,2.375c-0.557-0.021-1.09-0.181-1.584-0.515c-0.953-0.571-2.262-0.934-2.324,0.648l-0.422,10.443
	l3.252-3.094l-0.588,2.086c-0.061-0.018-0.121-0.033-0.176-0.051c-0.391-0.131-0.854-0.072-0.854,0.391
	c-0.57-0.123-0.818,0.777-0.201,0.982c0,0.262,0,0.463,0.402,0.533c0.912,0.262,2.488,0.393,4.135,0.393
	c1.648,0,3.225-0.131,4.148-0.393c0.391-0.07,0.391-0.271,0.391-0.533C37.154,38.641,36.906,37.74,36.336,37.863z M31.242,33.568
	c-0.023-0.027-0.049-0.055-0.072-0.082c-0.016-0.02-0.031-0.039-0.049-0.059v-0.316v-3.457c0.355-0.109,0.691-0.249,0.893-0.402
	c0.184,0.157,0.484,0.291,0.811,0.395v3.522v0.209v0.105c-0.004,0.008-0.01,0.014-0.014,0.02c-0.156,0.184-0.324,0.357-0.504,0.521
	c-0.1,0.092-0.203,0.18-0.309,0.266c-0.107-0.084-0.209-0.172-0.307-0.264C31.531,33.883,31.381,33.729,31.242,33.568z
	 M31.184,26.856c0.211-0.696,0.221-1.292,0.074-1.502c-0.166-0.24-0.404-0.44-0.68-0.22c-0.113,0.09-0.082-0.428,0.074-0.531
	c0.164-0.11,0.531-0.074,0.896,0.02c0,0-0.031-0.159,0.166-0.149c0.35,0.019,0.881,0.165,1.045,0.33
	c0.131,0.129,0.293,0.476,0.256,1.357c-0.027,0.627,0.133,1.367,0.348,1.793c-0.441-0.02-0.896-0.122-1.363-0.293
	c-0.469,0.172-0.928,0.274-1.371,0.293C30.82,27.672,31.061,27.265,31.184,26.856z M28.604,35.814l0.27-6.741l0,0
	c-0.074-0.075-0.348-0.274-0.484-0.412l-0.344,7.658l-0.277,0.252l0.348-8.123v0c-0.074-0.075-0.486-0.412-0.623-0.549l-0.416,9.301
	l-0.201,0.182l0.404-9.633c-0.109,0-0.354,0.135-0.549,0.26c0.254-0.999,1.354-0.684,2.176-0.214
	c0.42,0.269,0.867,0.415,1.334,0.458c0.055,0.005,0.109,0.009,0.164,0.012c0.512,0.021,1.047-0.076,1.596-0.269
	c0.551,0.194,1.088,0.291,1.604,0.269c0.107-0.005,0.215-0.016,0.32-0.032c0.406-0.06,0.799-0.201,1.168-0.438
	c0.854-0.488,2.008-0.809,2.201,0.334c-0.197-0.13-0.477-0.292-0.594-0.292l0.398,9.508L36.9,37.162l-0.41-9.176
	c-0.135,0.134-0.537,0.466-0.611,0.54v0l0.342,8.005l-0.273-0.254l-0.336-7.543c-0.135,0.135-0.404,0.331-0.477,0.405l0,0
	l0.266,6.63l-0.795-0.738l-0.746-2.646c0.703-1.493,0.604-2.813,0.604-2.813c-0.072,0.015-0.139,0.021-0.211,0.021
	c-0.494,0-1.586-0.247-2.064-0.583c-0.068-0.049-0.125-0.099-0.164-0.151c-0.043,0.048-0.104,0.095-0.178,0.142
	c-0.5,0.317-1.609,0.592-2.1,0.592c-0.072,0-0.143-0.007-0.209-0.021c0,0-0.104,1.321,0.602,2.815l-0.771,2.733L28.604,35.814z
	 M31.998,37.793c-0.375-0.018-0.754-0.029-1.125-0.045l0.744-3.383c0.119,0.109,0.244,0.215,0.381,0.318l0,0
	c0.135-0.104,0.262-0.211,0.383-0.32l0.75,3.41C32.758,37.787,32.375,37.793,31.998,37.793z"/>
<path opacity="0.1" fill="#1A1626" d="M50.736,8.591c4.098,5.13,6.563,11.622,6.563,18.701c0,16.569-13.428,30.003-29.994,30.003
	c-7.1,0-13.609-2.477-18.744-6.594C14.055,57.58,22.502,62,32.004,62c16.564,0,29.994-13.432,29.994-30
	C61.998,22.527,57.596,14.09,50.736,8.591z"/>
<path opacity="0.3" fill-rule="evenodd" clip-rule="evenodd" fill="#FFFFFF" d="M9.734,19.015c0.549,3.865,7.768-3.7,15.08-10.202
	C29.531,4.63,8.084,7.385,9.734,19.015z"/>
</svg>
