<?xml version="1.0" encoding="utf-8"?>
<!-- Generator: Adobe Illustrator 15.0.0, SVG Export Plug-In . SVG Version: 6.00 Build 0)  -->
<!DOCTYPE svg PUBLIC "-//W3C//DTD SVG 1.1//EN" "http://www.w3.org/Graphics/SVG/1.1/DTD/svg11.dtd">
<svg version="1.1" id="Layer_1" xmlns="http://www.w3.org/2000/svg" xmlns:xlink="http://www.w3.org/1999/xlink" x="0px" y="0px"
	 width="64px" height="64px" viewBox="0 0 64 64" enable-background="new 0 0 64 64" xml:space="preserve">
<path fill="#E81C27" d="M52.387,10C47.035,5.037,39.873,2,32,2c-7.875,0-15.035,3.037-20.389,8H52.387z"/>
<path fill="#E81C27" d="M11.611,54c5.354,4.963,12.514,8,20.389,8c7.873,0,15.035-3.037,20.387-8H11.611z"/>
<path fill="#014D87" d="M2,32c0,8.695,3.703,16.521,9.611,22h40.775C58.297,48.521,62,40.695,62,32c0-8.694-3.703-16.521-9.613-22
	H11.611C5.703,15.479,2,23.306,2,32z"/>
<circle fill="#F5F5F5" cx="32" cy="32" r="16"/>
<path fill="#785647" d="M32,44.5c-6.893,0-12.5-5.607-12.5-12.5S25.107,19.5,32,19.5S44.5,25.107,44.5,32S38.893,44.5,32,44.5z
	 M32,20.5c-6.342,0-11.5,5.158-11.5,11.5S25.658,43.5,32,43.5S43.5,38.342,43.5,32S38.342,20.5,32,20.5z"/>
<path fill="#529320" d="M31,22v-1.333c0.367,0,0.666-0.3,0.666-0.667S31.367,19.333,31,19.333V18c1.104,0,2,0.897,2,2
	S32.104,22,31,22z"/>
<path fill="#529320" d="M28.545,22.563l-0.332-1.291c0.355-0.092,0.57-0.455,0.48-0.812c-0.092-0.356-0.457-0.571-0.813-0.48
	l-0.332-1.291c1.068-0.274,2.16,0.372,2.436,1.44C30.258,21.196,29.613,22.289,28.545,22.563z"/>
<path fill="#529320" d="M26.307,23.719l-0.643-1.168c0.322-0.178,0.439-0.584,0.262-0.906c-0.176-0.321-0.582-0.439-0.904-0.264
	l-0.643-1.168c0.967-0.531,2.186-0.176,2.717,0.789C27.627,21.969,27.271,23.188,26.307,23.719z"/>
<path fill="#529320" d="M24.426,25.395l-0.912-0.971c0.268-0.253,0.279-0.676,0.029-0.943c-0.252-0.268-0.676-0.281-0.943-0.029
	l-0.912-0.973c0.805-0.754,2.072-0.715,2.826,0.09C25.27,23.371,25.229,24.641,24.426,25.395z"/>
<path fill="#529320" d="M23.021,27.486l-1.127-0.715c0.197-0.311,0.105-0.724-0.205-0.92c-0.311-0.197-0.725-0.104-0.92,0.205
	l-1.127-0.714c0.592-0.931,1.83-1.208,2.762-0.616C23.334,25.316,23.611,26.555,23.021,27.486z"/>
<path fill="#529320" d="M22.18,29.861l-1.268-0.412c0.113-0.35-0.078-0.728-0.428-0.84c-0.35-0.113-0.727,0.078-0.84,0.428
	l-1.27-0.412c0.342-1.049,1.473-1.625,2.521-1.283C21.945,27.682,22.521,28.813,22.18,29.861z"/>
<path fill="#529320" d="M21.957,32.371l-1.33-0.084c0.021-0.367-0.258-0.686-0.625-0.708c-0.365-0.022-0.684,0.257-0.707,0.624
	l-1.33-0.084c0.068-1.102,1.021-1.939,2.121-1.87C21.188,30.317,22.025,31.27,21.957,32.371z"/>
<path fill="#529320" d="M22.365,34.857l-1.311,0.248c-0.068-0.361-0.42-0.6-0.779-0.529c-0.361,0.07-0.6,0.42-0.529,0.779
	l-1.311,0.25c-0.207-1.084,0.506-2.133,1.59-2.338C21.107,33.061,22.158,33.773,22.365,34.857z"/>
<path fill="#529320" d="M23.379,37.162l-1.207,0.568c-0.158-0.332-0.557-0.477-0.889-0.32c-0.332,0.158-0.475,0.557-0.318,0.887
	l-1.207,0.57c-0.469-1-0.039-2.193,0.959-2.662C21.715,35.734,22.908,36.166,23.379,37.162z"/>
<path fill="#529320" d="M24.934,39.145l-1.029,0.85c-0.234-0.283-0.656-0.322-0.938-0.088c-0.283,0.234-0.322,0.656-0.09,0.938
	l-1.027,0.852c-0.703-0.852-0.584-2.113,0.268-2.816C22.967,38.176,24.23,38.295,24.934,39.145z"/>
<path fill="#529320" d="M26.932,40.678l-0.783,1.078c-0.299-0.215-0.717-0.148-0.932,0.148s-0.15,0.715,0.146,0.93l-0.783,1.08
	c-0.893-0.648-1.092-1.9-0.441-2.793C24.785,40.229,26.039,40.029,26.932,40.678z"/>
<path fill="#529320" d="M29.25,41.666l-0.492,1.24c-0.342-0.137-0.73,0.033-0.865,0.373c-0.135,0.342,0.033,0.73,0.373,0.865
	l-0.49,1.24c-1.025-0.406-1.529-1.57-1.123-2.596S28.223,41.26,29.25,41.666z"/>
<path fill="#529320" d="M31.74,42.047l-0.168,1.322c-0.365-0.047-0.701,0.215-0.746,0.578c-0.045,0.365,0.215,0.699,0.578,0.744
	l-0.166,1.324c-1.096-0.139-1.873-1.141-1.734-2.236C29.643,42.686,30.645,41.908,31.74,42.047z"/>
<path fill="#529320" d="M34.246,41.795l0.166,1.322c-0.365,0.047-0.625,0.383-0.578,0.746c0.047,0.365,0.383,0.625,0.744,0.578
	l0.168,1.322c-1.094,0.139-2.096-0.639-2.234-1.734C32.373,42.936,33.15,41.934,34.246,41.795z"/>
<path fill="#529320" d="M36.611,40.93l0.49,1.238c-0.342,0.137-0.51,0.525-0.375,0.867c0.137,0.34,0.525,0.51,0.865,0.373
	l0.492,1.24c-1.027,0.406-2.189-0.098-2.596-1.123S35.586,41.336,36.611,40.93z"/>
<path fill="#529320" d="M38.688,39.502l0.783,1.078c-0.299,0.217-0.363,0.637-0.148,0.932c0.217,0.297,0.635,0.363,0.932,0.148
	l0.783,1.078c-0.893,0.648-2.145,0.449-2.793-0.443C37.596,41.404,37.795,40.15,38.688,39.502z"/>
<path fill="#529320" d="M40.342,37.604l1.027,0.85c-0.234,0.283-0.193,0.705,0.088,0.939c0.285,0.232,0.707,0.193,0.939-0.088
	l1.027,0.848c-0.703,0.852-1.965,0.969-2.816,0.266C39.758,39.717,39.639,38.453,40.342,37.604z"/>
<path fill="#529320" d="M41.473,35.354l1.207,0.566c-0.156,0.334-0.012,0.732,0.318,0.887c0.334,0.156,0.732,0.014,0.889-0.318
	l1.205,0.568c-0.469,0.998-1.662,1.426-2.66,0.957S41.004,36.35,41.473,35.354z"/>
<path fill="#529320" d="M42.01,32.89l1.309,0.25c-0.068,0.361,0.172,0.713,0.531,0.781c0.361,0.066,0.711-0.172,0.779-0.529
	l1.311,0.248c-0.207,1.084-1.256,1.795-2.34,1.59C42.516,35.023,41.803,33.975,42.01,32.89z"/>
<path fill="#529320" d="M41.916,30.374l1.332-0.085c0.021,0.368,0.342,0.648,0.707,0.625c0.367-0.024,0.646-0.342,0.623-0.707
	l1.33-0.084c0.07,1.102-0.77,2.051-1.869,2.121C42.938,32.313,41.986,31.475,41.916,30.374z"/>
<path fill="#529320" d="M41.201,27.959l1.268-0.413c0.113,0.351,0.492,0.542,0.84,0.429c0.35-0.114,0.543-0.492,0.43-0.84
	l1.268-0.412c0.34,1.049-0.236,2.178-1.285,2.52S41.541,29.008,41.201,27.959z"/>
<path fill="#529320" d="M39.906,25.798l1.125-0.716c0.197,0.312,0.613,0.403,0.922,0.207c0.311-0.198,0.402-0.611,0.205-0.92
	l1.125-0.715c0.592,0.932,0.314,2.168-0.617,2.76C41.736,27.006,40.498,26.729,39.906,25.798z"/>
<path fill="#529320" d="M38.115,24.026l0.912-0.973c0.27,0.252,0.693,0.237,0.943-0.029c0.252-0.269,0.238-0.692-0.029-0.942
	l0.912-0.972c0.805,0.755,0.844,2.022,0.09,2.827C40.189,24.74,38.92,24.781,38.115,24.026z"/>
<path fill="#529320" d="M35.941,22.756l0.641-1.169c0.322,0.177,0.73,0.058,0.906-0.263c0.178-0.323,0.059-0.73-0.262-0.905
	l0.641-1.169c0.969,0.531,1.32,1.75,0.789,2.717C38.127,22.932,36.906,23.287,35.941,22.756z"/>
<path fill="#529320" d="M33.518,22.066l0.332-1.292c0.355,0.092,0.721-0.126,0.811-0.479c0.092-0.357-0.125-0.722-0.479-0.813
	l0.33-1.291c1.07,0.273,1.715,1.367,1.439,2.435C35.678,21.693,34.586,22.34,33.518,22.066z"/>
<ellipse fill="#529320" cx="31.756" cy="38.682" rx="7.791" ry="1.617"/>
<path fill="#529320" d="M37.275,24.918c0-0.668-1.078-1.21-2.424-1.227c0.166-0.139,0.26-0.299,0.26-0.471
	c0-0.515-0.846-0.932-1.887-0.932c-0.549,0-1.043,0.115-1.387,0.3c-0.201-0.036-0.416-0.055-0.643-0.055
	c-0.92,0-1.688,0.326-1.852,0.757c-0.135-0.015-0.273-0.022-0.416-0.022c-1.043,0-1.887,0.417-1.887,0.932
	c0,0.376,0.451,0.7,1.102,0.847c-0.467,0.223-0.756,0.535-0.756,0.88c0,0.678,1.113,1.228,2.488,1.228
	c0.662,0,1.264-0.129,1.709-0.337c-0.035,0.083-0.057,0.169-0.057,0.258c0,0.34,0.283,0.648,0.738,0.872
	c-0.086,0.042-0.166,0.09-0.238,0.142c-0.262-0.47-0.945-0.804-1.746-0.804c-1.027,0-1.859,0.549-1.859,1.228
	c0,0.678,0.832,1.228,1.859,1.228c0.537,0,1.021-0.151,1.361-0.392c0.262,0.47,0.943,0.805,1.746,0.805
	c1.027,0,1.859-0.55,1.859-1.229c0-0.263-0.125-0.505-0.338-0.705c0.932-0.177,1.592-0.623,1.592-1.145
	c0-0.402-0.391-0.758-0.994-0.982C36.531,25.942,37.275,25.473,37.275,24.918z M32.584,24.097c0.092,0.017,0.189,0.029,0.289,0.039
	c-0.355,0.213-0.568,0.485-0.568,0.782c0,0.401,0.391,0.758,0.992,0.982c-0.375,0.056-0.713,0.155-0.99,0.285
	c0.035-0.083,0.055-0.169,0.055-0.257c0-0.576-0.805-1.06-1.891-1.191c0.152-0.106,0.262-0.229,0.311-0.362
	c0.135,0.015,0.273,0.023,0.414,0.023C31.746,24.397,32.238,24.281,32.584,24.097z"/>
<path fill="#F59E01" d="M28.627,29.928c0.082-0.418-0.197-0.785-0.15-1.186c0.059-0.991-0.252-0.633-0.818-1.171
	c-0.471-0.443,0.063-0.883,0.025-1.351c-0.07-0.877-0.57-0.483-1.23-0.483c-0.543,0,0.475,1.6-0.189,1.968
	c-0.861,0.48-1.027,0.658-1.305,1.61c-0.051-0.273-0.182-0.199-0.107-0.574c0-0.007-0.602,0.274-0.662,0.319
	c-0.199,0.146,0.119,0.998,0.219,1.172c0.375,0.654,1.395,0.314,1.395-0.482c0.318,0.984,0.121,1.038,1.279,1.07
	c0.449,0.007,1.066-0.002,0.852-0.688c0.238,1.276,0.855,0.527,1.492,0.062C29.332,30.185,28.609,30.046,28.627,29.928
	C28.648,29.82,28.611,30.027,28.627,29.928z"/>
<path fill="#302C3B" d="M26.311,25.851c-0.492-0.42,0.742-0.752,0.855-0.743c0.449,0.038,0.57,0.522,0.553,0.918
	c-0.051,0.76-0.063-0.08-0.236,0.237c0.049-0.186-0.055-0.413,0.021-0.589C27.074,25.852,26.543,25.649,26.311,25.851"/>
<path fill="#BCBCBC" d="M28.211,34.947c0-1.414-0.301-2.895-0.32-4.238c-0.629,0.303-1.857-0.067-1.857-0.067
	s-0.611,2.932-0.619,3.598c-0.016,1.189-0.65,2.797-0.369,3.896c0.135,0.727,1.02,0.043,1.217-0.117
	c0.244-0.199,0.133-0.979,0.143-1.279c0.037-1.229,0.1-2.154,0.484-3.316c0,0.736,0.371,1.316,0.328,2.131
	c-0.041,0.777-0.02,1.551-0.02,2.328c0,0.104,1.059,0.16,1.201,0.023C28.398,36.916,28.211,35.936,28.211,34.947
	C28.211,34.289,28.211,35.666,28.211,34.947z"/>
<path fill="#785647" d="M35.533,29.993c0.018,0.119-0.705,0.257-0.801,0.269c0.639,0.467,1.256,1.215,1.494-0.062
	c-0.215,0.686,0.402,0.695,0.85,0.688c1.16-0.033,0.963-0.087,1.281-1.071c0,0.795,1.02,1.136,1.395,0.482
	c0.1-0.175,0.416-1.026,0.219-1.172c-0.061-0.045-0.664-0.326-0.662-0.319c0.074,0.375-0.057,0.3-0.107,0.574
	c-0.279-0.953-0.443-1.13-1.307-1.61c-0.662-0.369,0.355-1.969-0.188-1.969c-0.662,0-1.162-0.394-1.232,0.484
	c-0.037,0.468,0.496,0.908,0.027,1.351c-0.568,0.538-0.877,0.179-0.818,1.171C35.73,29.209,35.449,29.575,35.533,29.993
	C35.547,30.093,35.512,29.886,35.533,29.993z"/>
<path fill="#302C3B" d="M37.85,25.917c-0.232-0.202-0.766,0.001-1.195-0.176c0.078,0.176-0.025,0.404,0.023,0.589
	c-0.176-0.317-0.186,0.522-0.236-0.237c-0.02-0.396,0.102-0.881,0.551-0.918C37.105,25.165,38.34,25.497,37.85,25.917"/>
<path fill="#BCBCBC" d="M35.947,35.012c0-1.412,0.303-2.894,0.322-4.237c0.627,0.303,1.857-0.067,1.857-0.067
	s0.609,2.933,0.619,3.599c0.014,1.189,0.65,2.797,0.369,3.896c-0.137,0.727-1.021,0.043-1.217-0.117
	c-0.244-0.199-0.135-0.98-0.145-1.279c-0.037-1.229-0.098-2.154-0.482-3.316c0,0.736-0.373,1.316-0.328,2.131
	c0.039,0.775,0.02,1.551,0.02,2.328c0,0.102-1.061,0.16-1.201,0.023C35.762,36.982,35.947,36.002,35.947,35.012
	C35.947,34.355,35.947,35.73,35.947,35.012z"/>
<path fill="#9DD7FF" d="M35.512,30.234v4.154c0,0.826-0.107,4.113-3.41,5.393c-3.311-1.279-3.418-4.566-3.418-5.393v-4.154H35.512"
	/>
<path fill="#BCBCBC" d="M32.102,30.234v3.35l-3.096,2.932c-0.301-0.936-0.322-1.768-0.322-2.127v-4.154H32.102"/>
<path fill="#FFD83C" d="M32.102,30.234v3.35l3.09,2.932c0.299-0.936,0.32-1.768,0.32-2.127v-4.154H32.102"/>
<path opacity="0.15" fill="#1A1626" d="M50.736,8.591c4.098,5.13,6.563,11.622,6.563,18.701c0,16.569-13.428,30.003-29.994,30.003
	c-7.1,0-13.609-2.477-18.744-6.594C14.055,57.58,22.502,62,32.004,62c16.564,0,29.994-13.432,29.994-30
	C61.998,22.527,57.596,14.09,50.736,8.591z"/>
<path opacity="0.3" fill-rule="evenodd" clip-rule="evenodd" fill="#FFFFFF" d="M9.734,19.015c0.549,3.865,7.768-3.7,15.08-10.202
	C29.531,4.63,8.084,7.385,9.734,19.015z"/>
</svg>
