<?xml version="1.0" encoding="utf-8"?>
<!-- Generator: Adobe Illustrator 15.0.0, SVG Export Plug-In . SVG Version: 6.00 Build 0)  -->
<!DOCTYPE svg PUBLIC "-//W3C//DTD SVG 1.1//EN" "http://www.w3.org/Graphics/SVG/1.1/DTD/svg11.dtd">
<svg version="1.1" id="Layer_1" xmlns="http://www.w3.org/2000/svg" xmlns:xlink="http://www.w3.org/1999/xlink" x="0px" y="0px"
	 width="64px" height="64px" viewBox="0 0 64 64" enable-background="new 0 0 64 64" xml:space="preserve">
<path fill="#E81C27" d="M60.286,41.999H3.714c4.119,11.65,15.226,20,28.286,20S56.167,53.649,60.286,41.999z"/>
<path fill="#F5F5F5" d="M60.286,41.999C61.393,38.87,62,35.507,62,32C62,15.432,48.568,2,32,2S2,15.432,2,32
	c0,3.507,0.607,6.87,1.714,9.999H60.286z"/>
<g>
	<path fill="#E81C27" d="M48.524,24.502v-1.074h1.15v-2.494h-1.15v1.374h-1.926v-1.374h-1.39v-8.431h0.522V11.36h0.896V9.173h-1.591
		v1.113h-1.561V9.173h-2.383v1.113h-1.56V9.173h-1.292v2.188h0.501v1.143h0.463v8.431h-0.239v1.374h-2.166v-1.374h-0.679V10.279
		h0.753V8.763h0.92V7h-1.457v0.972h-1.643V7h-1.874v0.972h-1.643V7h-1.874v0.972h-1.643V7h-1.457v1.763h0.92v1.517h0.753v10.654
		h-0.679v1.374h-2.166v-1.374h-0.239v-8.431h0.463V11.36h0.501V9.173h-1.292v1.113h-1.56V9.173h-2.383v1.113h-1.561V9.173h-1.591
		v2.188h0.896v1.143h0.522v8.431h-1.39v1.374h-1.926v-1.374h-1.15v2.494h1.15v1.074h0.934v13.386l-2.069,1.361v1.441h8.768v0.707
		h7.697h2.391h7.697V40.69h8.768v-1.441l-2.069-1.361V24.502H48.524z"/>
</g>
<g>
	<path fill="#302C3B" d="M24.279,37.882v-3.529c0-3.827-4.885-3.773-4.885,0v3.529H24.279z"/>
</g>
<g>
	<path fill="#302C3B" d="M23.412,18.619c0-2.119-3.17-2.09-3.17,0v3.688h3.163L23.412,18.619z"/>
</g>
<g>
	<path fill="#302C3B" d="M35.457,38.585v-4.862c0-4.758-6.914-4.77-6.914,0v4.862H35.457z"/>
</g>
<g>
	<path fill="#302C3B" d="M44.605,37.882v-3.529c0-3.773-4.885-3.827-4.885,0v3.529H44.605z"/>
</g>
<g>
	<path fill="#302C3B" d="M40.595,22.308h3.163v-3.688c0-2.09-3.17-2.119-3.17,0L40.595,22.308z"/>
</g>
<g>
	<rect x="31.657" y="11.487" fill="#302C3B" width="0.686" height="3.646"/>
</g>
<g>
	<rect x="29.686" y="12.205" fill="#302C3B" width="0.694" height="2.666"/>
</g>
<g>
	<path fill="#302C3B" d="M30.104,17.783v4.524h3.793v-4.524C33.896,15.465,30.104,15.465,30.104,17.783z"/>
</g>
<g>
	<rect x="33.62" y="12.205" fill="#302C3B" width="0.694" height="2.666"/>
</g>
<path fill="#FFE12C" d="M28.494,40.655H27.83v1.061h0.664l2.802,1.625v0.973v6.898h-4.128v1.92h1.203v-0.963h1.636v0.963h1.289
	v0.727h-1.289v0.963h-1.636v-0.963h-1.203v1.924h4.128v0.494v0.723h1.192v-0.723V44.313v-0.973l2.801-1.625h0.665v-1.061h-0.665
	l-3.397-1.973L28.494,40.655z M34.431,41.188l-2.539,1.469l-2.538-1.469l2.538-1.48L34.431,41.188z"/>
<path opacity="0.1" fill="#1A1626" d="M50.736,8.591c4.097,5.13,6.563,11.622,6.563,18.701c0,16.566-13.428,30.002-29.994,30.002
	c-7.101,0-13.61-2.479-18.745-6.594c5.494,6.879,13.942,11.299,23.443,11.299c16.565,0,29.995-13.432,29.995-29.999
	C61.998,22.527,57.595,14.09,50.736,8.591z"/>
<path opacity="0.6" fill-rule="evenodd" clip-rule="evenodd" fill="#FFFFFF" d="M9.734,19.015c0.549,3.865,7.767-3.7,15.08-10.202
	C29.531,4.63,8.083,7.385,9.734,19.015z"/>
</svg>
