<?xml version="1.0" encoding="utf-8"?>
<!-- Generator: Adobe Illustrator 15.0.0, SVG Export Plug-In . SVG Version: 6.00 Build 0)  -->
<!DOCTYPE svg PUBLIC "-//W3C//DTD SVG 1.1//EN" "http://www.w3.org/Graphics/SVG/1.1/DTD/svg11.dtd">
<svg version="1.1" id="Layer_1" xmlns="http://www.w3.org/2000/svg" xmlns:xlink="http://www.w3.org/1999/xlink" x="0px" y="0px"
	 width="64px" height="64px" viewBox="0 0 64 64" enable-background="new 0 0 64 64" xml:space="preserve">
<circle fill="#529320" cx="32" cy="32" r="30"/>
<circle fill="#529320" cx="32" cy="32" r="30"/>
<circle fill="#E81C27" cx="26" cy="32" r="14.109"/>
<path opacity="0.1" fill="#1A1626" d="M50.738,8.591c4.096,5.129,6.563,11.621,6.563,18.701c0,16.569-13.43,30.002-29.996,30.002
	c-7.1,0-13.609-2.477-18.744-6.594C14.055,57.58,22.503,62,32.004,62c16.566,0,29.994-13.432,29.994-30
	C61.998,22.527,57.596,14.089,50.738,8.591z"/>
<path opacity="0.3" fill-rule="evenodd" clip-rule="evenodd" fill="#FFFFFF" d="M9.734,19.015c0.549,3.865,7.768-3.701,15.08-10.203
	C29.531,4.63,8.084,7.384,9.734,19.015z"/>
</svg>
