<?xml version="1.0" encoding="utf-8"?>
<!-- Generator: Adobe Illustrator 15.0.0, SVG Export Plug-In . SVG Version: 6.00 Build 0)  -->
<!DOCTYPE svg PUBLIC "-//W3C//DTD SVG 1.1//EN" "http://www.w3.org/Graphics/SVG/1.1/DTD/svg11.dtd">
<svg version="1.1" id="Layer_1" xmlns="http://www.w3.org/2000/svg" xmlns:xlink="http://www.w3.org/1999/xlink" x="0px" y="0px"
	 width="64px" height="64px" viewBox="0 0 64 64" enable-background="new 0 0 64 64" xml:space="preserve">
<path fill="#014D87" d="M32,62c7.332,0,14.045-2.633,19.256-7h-38.51C17.957,59.367,24.67,62,32,62z"/>
<path fill="#014D87" d="M6.629,48h50.744c1.182-1.871,2.164-3.881,2.914-6H3.715C4.465,44.119,5.445,46.129,6.629,48z"/>
<path fill="#014D87" d="M61.852,29H32v-7H20v13h41.852C61.949,34.012,62,33.014,62,32C62,30.988,61.949,29.986,61.852,29z"/>
<path fill="#014D87" d="M14,22H3.715c-0.787,2.225-1.322,4.568-1.564,7C2.053,29.986,2,30.988,2,32c0,1.014,0.053,2.012,0.15,3H14
	V22z"/>
<path fill="#014D87" d="M57.373,16H32v6h28.287C59.537,19.88,58.555,17.871,57.373,16z"/>
<path fill="#014D87" d="M51.256,9C46.045,4.632,39.332,2,32,2c-4.269,0-8.325,0.898-12,2.508V16h12V9H51.256z"/>
<path fill="#014D87" d="M14,8.011C13.574,8.332,13.154,8.658,12.746,9c-2.385,1.998-4.449,4.361-6.117,7H14V8.011z"/>
<path fill="#F5F5F5" d="M12.746,55h38.51c2.383-1.998,4.449-4.361,6.117-7H6.629C8.297,50.639,10.361,53.002,12.746,55z"/>
<path fill="#F5F5F5" d="M61.852,29c-0.242-2.432-0.777-4.775-1.564-7H32v7H61.852z"/>
<path fill="#F5F5F5" d="M51.256,9H32v7h25.373C55.705,13.361,53.639,10.998,51.256,9z"/>
<path fill="#F5F5F5" d="M20,22h12v-6H20V4.507c-2.143,0.938-4.153,2.115-6,3.504V16H6.629c-1.184,1.871-2.164,3.881-2.914,6H14v13
	H2.15c0.242,2.432,0.777,4.773,1.564,7h56.572c0.787-2.227,1.322-4.568,1.564-7H20V22z"/>
<path opacity="0.1" fill="#1A1626" d="M50.737,8.591C54.833,13.72,57.3,20.212,57.3,27.292c0,16.567-13.43,30.002-29.995,30.002
	c-7.101,0-13.61-2.479-18.745-6.594C14.054,57.58,22.503,62,32.003,62c16.566,0,29.994-13.432,29.994-30
	C61.997,22.527,57.595,14.089,50.737,8.591z"/>
<path opacity="0.3" fill-rule="evenodd" clip-rule="evenodd" fill="#FFFFFF" d="M9.734,19.015c0.549,3.865,7.767-3.701,15.08-10.203
	C29.531,4.63,8.083,7.384,9.734,19.015z"/>
</svg>
