<?xml version="1.0" encoding="utf-8"?>
<!-- Generator: Adobe Illustrator 15.0.0, SVG Export Plug-In . SVG Version: 6.00 Build 0)  -->
<!DOCTYPE svg PUBLIC "-//W3C//DTD SVG 1.1//EN" "http://www.w3.org/Graphics/SVG/1.1/DTD/svg11.dtd">
<svg version="1.1" id="Layer_1" xmlns="http://www.w3.org/2000/svg" xmlns:xlink="http://www.w3.org/1999/xlink" x="0px" y="0px"
	 width="64px" height="64px" viewBox="0 0 64 64" enable-background="new 0 0 64 64" xml:space="preserve">
<path fill="#E81C27" d="M56,14L56,14H8c-3.767,5.014-6,11.246-6,18c0,16.568,13.432,30,30,30s30-13.432,30-30
	C62,25.246,59.767,19.014,56,14z"/>
<polygon fill="#0FB4D4" points="20.5,39 43.5,39 50.5,25 13.5,25 "/>
<polygon fill="#0FB4D4" points="20.5,39 43.5,39 50.5,25 13.5,25 "/>
<path fill="#302C3B" d="M50.5,25L56,14C50.527,6.714,41.814,2,32,2S13.473,6.714,8,14l5.5,11H50.5z"/>
<polygon fill="#F5F5F5" points="20.5,39 32,62 43.5,39 "/>
<polygon fill="#FFE12C" points="36.175,22.239 41.245,15.848 34.799,20.855 37.035,13.011 32.999,20.102 32.057,12 31.046,20.092 
	27.07,12.969 29.238,20.83 22.835,15.768 27.851,22.203 19.994,19.973 27.093,24.002 18.98,24.943 19.435,25 44.559,25 
	36.916,24.046 44.05,20.078 "/>
<path opacity="0.15" fill="#1A1626" d="M50.737,8.591c4.096,5.13,6.563,11.622,6.563,18.701c0,16.568-13.429,30.003-29.995,30.003
	c-7.101,0-13.609-2.478-18.744-6.594C14.055,57.58,22.503,62,32.003,62c16.566,0,29.995-13.432,29.995-30
	C61.998,22.527,57.595,14.09,50.737,8.591z"/>
<path opacity="0.3" fill-rule="evenodd" clip-rule="evenodd" fill="#FFFFFF" d="M9.734,19.015c0.549,3.865,7.767-3.7,15.08-10.202
	C29.531,4.63,8.083,7.385,9.734,19.015z"/>
</svg>
