<?xml version="1.0" encoding="utf-8"?>
<!-- Generator: Adobe Illustrator 15.0.0, SVG Export Plug-In . SVG Version: 6.00 Build 0)  -->
<!DOCTYPE svg PUBLIC "-//W3C//DTD SVG 1.1//EN" "http://www.w3.org/Graphics/SVG/1.1/DTD/svg11.dtd">
<svg version="1.1" id="Layer_1" xmlns="http://www.w3.org/2000/svg" xmlns:xlink="http://www.w3.org/1999/xlink" x="0px" y="0px"
	 width="64px" height="64px" viewBox="0 0 64 64" enable-background="new 0 0 64 64" xml:space="preserve">
<path fill="#F5F5F5" d="M10.787,10.788V32H62C62,15.432,48.568,2,32,2c-8.285,0-15.785,3.357-21.214,8.787H10.787z"/>
<path fill="#E81C27" d="M10.787,32v21.212l-0.001-0.002C16.215,58.641,23.715,62,32,62c16.568,0,30-13.432,30-30H10.787z"/>
<path fill="#014D87" d="M10.787,10.788C5.358,16.215,2,23.715,2,32c0,8.283,3.358,15.783,8.787,21.212L32,32L10.787,10.788z"/>
<path opacity="0.1" fill="#1A1626" d="M50.736,8.59c4.097,5.131,6.563,11.623,6.563,18.701c0,16.568-13.428,30.003-29.994,30.003
	c-7.101,0-13.61-2.479-18.745-6.594C14.054,57.58,22.503,62,32.003,62c16.565,0,29.995-13.432,29.995-30
	C61.998,22.528,57.595,14.09,50.736,8.59z"/>
<path opacity="0.5" fill-rule="evenodd" clip-rule="evenodd" fill="#FFFFFF" d="M9.734,19.014c0.549,3.865,7.767-3.699,15.08-10.201
	C29.531,4.629,8.083,7.385,9.734,19.014z"/>
</svg>
