<?xml version="1.0" encoding="utf-8"?>
<!-- Generator: Adobe Illustrator 15.0.0, SVG Export Plug-In . SVG Version: 6.00 Build 0)  -->
<!DOCTYPE svg PUBLIC "-//W3C//DTD SVG 1.1//EN" "http://www.w3.org/Graphics/SVG/1.1/DTD/svg11.dtd">
<svg version="1.1" id="Layer_1" xmlns="http://www.w3.org/2000/svg" xmlns:xlink="http://www.w3.org/1999/xlink" x="0px" y="0px"
	 width="64px" height="64px" viewBox="0 0 64 64" enable-background="new 0 0 64 64" xml:space="preserve">
<path fill="#F5F5F5" d="M10.787,26h50.611c-0.9-4.434-2.777-8.512-5.398-12H10.787V26z"/>
<path fill="#F5F5F5" d="M10.787,38v12H56c2.621-3.488,4.498-7.566,5.398-12H10.787z"/>
<path fill="#014D87" d="M61.398,26H10.787v12h50.611C61.791,36.061,62,34.055,62,32C62,29.946,61.791,27.94,61.398,26z"/>
<path fill="#014D87" d="M10.787,14H56C50.527,6.713,41.814,2,32,2c-8.289,0-15.783,3.371-21.213,8.805V14z"/>
<path fill="#014D87" d="M10.787,50v3.193C16.217,58.629,23.711,62,32,62c9.814,0,18.527-4.715,24-12H10.787z"/>
<path fill="#E81C27" d="M10.787,10.788C5.357,16.215,2,23.715,2,32c0,8.283,3.357,15.783,8.787,21.212L32,32L10.787,10.788z"/>
<polygon fill="#F5F5F5" points="9.984,38 14.001,35.186 18.016,38 16.501,33.422 20.5,30.5 15.545,30.5 14.001,26 12.5,30.5 
	7.5,30.5 11.498,33.422 "/>
<path opacity="0.1" fill="#1A1626" d="M50.736,8.59c4.096,5.131,6.563,11.623,6.563,18.701c0,16.568-13.428,30.003-29.994,30.003
	c-7.101,0-13.609-2.479-18.744-6.594C14.055,57.58,22.503,62,32.002,62c16.566,0,29.996-13.432,29.996-30
	C61.998,22.528,57.594,14.09,50.736,8.59z"/>
<path opacity="0.3" fill-rule="evenodd" clip-rule="evenodd" fill="#FFFFFF" d="M9.734,19.014c0.549,3.865,7.767-3.699,15.08-10.201
	C29.531,4.629,8.083,7.385,9.734,19.014z"/>
</svg>
