<?xml version="1.0" encoding="utf-8"?>
<!-- Generator: Adobe Illustrator 15.0.0, SVG Export Plug-In . SVG Version: 6.00 Build 0)  -->
<!DOCTYPE svg PUBLIC "-//W3C//DTD SVG 1.1//EN" "http://www.w3.org/Graphics/SVG/1.1/DTD/svg11.dtd">
<svg version="1.1" id="Layer_1" xmlns="http://www.w3.org/2000/svg" xmlns:xlink="http://www.w3.org/1999/xlink" x="0px" y="0px"
	 width="64px" height="64px" viewBox="0 0 64 64" enable-background="new 0 0 64 64" xml:space="preserve">
<path fill="#014D87" d="M2,32c0,9.814,4.715,18.527,12,24h36.002C57.287,50.527,62,41.814,62,32S57.287,13.474,50.002,8H14
	C6.715,13.474,2,22.186,2,32z"/>
<path fill="#E81C27" d="M14,8h36.002C44.986,4.233,38.754,2,32,2S19.014,4.233,14,8z"/>
<path fill="#E81C27" d="M32,62c6.754,0,12.986-2.232,18.002-6H14C19.014,59.768,25.246,62,32,62z"/>
<path fill="#E81C27" d="M43.549,32C43.549,42.205,32,50.475,32,50.475S20.453,42.205,20.453,32S32,13.524,32,13.524
	S43.549,21.795,43.549,32z"/>
<path fill="#0FB4D4" d="M42,32c0,8.836-10,16-10,16s-10-7.164-10-16c0-8.837,10-16,10-16S42,23.163,42,32z"/>
<path fill="#0FB4D4" d="M42,32c0,8.836-10,16-10,16s-10-7.164-10-16c0-8.837,10-16,10-16S42,23.163,42,32z"/>
<path fill="#FFE12C" d="M26.629,39.404C28.961,42.783,32,45,32,45s8-5.82,8-13h-0.006C36.238,35.416,31.68,37.982,26.629,39.404z"/>
<path fill="#014D87" d="M24,32c0,2.752,1.18,5.301,2.629,7.404c5.051-1.422,9.609-3.988,13.365-7.404H24z"/>
<polygon fill="#F5F5F5" points="28,30 28,34 32,34 "/>
<path fill="#785647" d="M34.945,39c-3.787-6.752-3.285-13.707-3.262-14l0.83,0.084c-0.006,0.069-0.494,6.938,3.135,13.41L34.945,39z
	"/>
<polygon fill="#529320" points="32,22.224 34.5,20 33.666,23.111 37,24 33.666,24.889 34.5,28 32,25.776 29.5,28 30.336,24.889 
	27,24 30.336,23.111 29.5,20 "/>
<path opacity="0.1" fill="#1A1626" d="M50.738,8.591c4.096,5.13,6.563,11.622,6.563,18.701c0,16.567-13.43,30.003-29.996,30.003
	c-7.1,0-13.609-2.479-18.744-6.594C14.055,57.58,22.504,62,32.004,62c16.566,0,29.994-13.432,29.994-30
	C61.998,22.527,57.596,14.09,50.738,8.591z"/>
<path opacity="0.3" fill-rule="evenodd" clip-rule="evenodd" fill="#FFFFFF" d="M9.734,19.015c0.549,3.865,7.768-3.7,15.08-10.202
	C29.531,4.63,8.084,7.385,9.734,19.015z"/>
</svg>
