<?xml version="1.0" encoding="utf-8"?>
<!-- Generator: Adobe Illustrator 15.0.0, SVG Export Plug-In . SVG Version: 6.00 Build 0)  -->
<!DOCTYPE svg PUBLIC "-//W3C//DTD SVG 1.1//EN" "http://www.w3.org/Graphics/SVG/1.1/DTD/svg11.dtd">
<svg version="1.1" id="Layer_1" xmlns="http://www.w3.org/2000/svg" xmlns:xlink="http://www.w3.org/1999/xlink" x="0px" y="0px"
	 width="64px" height="64px" viewBox="0 0 64 64" enable-background="new 0 0 64 64" xml:space="preserve">
<circle fill="#006DAE" cx="32" cy="32" r="30"/>
<g>
	<polyline fill="#F5F5F5" points="17.617,30.691 17.279,29.336 16.98,29.342 16.529,29.838 16.434,28.49 15.756,27.982 
		15.418,28.152 15.35,28.422 14.699,28.129 14.234,27.475 15.418,26.461 13.389,24.938 12.373,21.215 19.816,26.461 24.385,25.275 
		24.217,24.6 25.063,24.43 25.496,22.924 25.4,22.4 25.701,22.004 25.885,21.027 25.736,20.58 26.375,19.957 26.246,18.508 
		27.77,17.832 29.123,16.479 28.953,15.801 29.947,16.293 30.699,15.77 30.984,14.955 31.365,15.6 35.701,15.785 36.588,16.643 
		40.051,17.334 40.799,18.014 41.305,17.832 41.85,19.533 42.141,19.479 42.531,19.021 45.691,20.107 45.932,20.555 46.719,20.369 
		47.564,21.215 48.512,26.117 47.734,28.83 51.119,29.844 51.299,32.119 50.6,33.848 51.627,34.582 51.119,37.459 49.426,38.811 
		49.764,40.842 48.75,41.52 48.242,41.35 48.242,43.211 47.396,43.211 47.734,43.889 46.043,44.564 46.508,45.639 45.365,46.764 
		45.703,47.102 45.027,46.934 41.824,48.826 41.982,48.287 41.031,48.467 40.822,47.99 40.047,48.639 39.707,48.463 39.215,49.125 
		35.586,48.641 35.139,48.348 34.537,48.625 33.168,47.637 33.816,47.045 34.668,45.191 34.707,44.057 34.029,42.533 33.193,43.275 
		28.518,42.07 27.547,42.223 26.676,42.725 24.385,42.533 24.385,42.871 19.648,41.18 19.648,40.166 18.803,40.166 18.633,37.289 
		17.957,37.459 17.109,35.428 17.279,35.936 15.588,34.074 16.602,34.074 16.275,32.059 17.107,30.744 17.617,30.691 	"/>
</g>
<path opacity="0.1" fill="#1A1626" d="M50.737,8.591c4.097,5.13,6.563,11.622,6.563,18.701c0,16.568-13.428,30.003-29.994,30.003
	c-7.101,0-13.609-2.478-18.744-6.594C14.056,57.58,22.503,62,32.004,62c16.565,0,29.995-13.432,29.995-30
	C61.999,22.527,57.596,14.09,50.737,8.591z"/>
<path opacity="0.3" fill-rule="evenodd" clip-rule="evenodd" fill="#FFFFFF" d="M9.735,19.015c0.549,3.865,7.767-3.7,15.08-10.202
	C29.532,4.63,8.084,7.385,9.735,19.015z"/>
</svg>
