<?xml version="1.0" encoding="utf-8"?>
<!-- Generator: Adobe Illustrator 15.0.0, SVG Export Plug-In . SVG Version: 6.00 Build 0)  -->
<!DOCTYPE svg PUBLIC "-//W3C//DTD SVG 1.1//EN" "http://www.w3.org/Graphics/SVG/1.1/DTD/svg11.dtd">
<svg version="1.1" id="Layer_1" xmlns="http://www.w3.org/2000/svg" xmlns:xlink="http://www.w3.org/1999/xlink" x="0px" y="0px"
	 width="64px" height="64px" viewBox="0 0 64 64" enable-background="new 0 0 64 64" xml:space="preserve">
<path fill="#0FB4D4" d="M11.006,32v21.422C16.416,58.725,23.824,62,32,62c16.568,0,30-13.432,30-30H11.006z"/>
<path fill="#529320" d="M11.006,32H62C62,15.432,48.568,2,32,2c-8.176,0-15.584,3.275-20.994,8.58V32z"/>
<path fill="#E81C27" d="M11.006,10.578C5.451,16.023,2,23.607,2,32s3.451,15.977,9.006,21.422L62,32L11.006,10.578z"/>
<path fill="#FFE12C" d="M16.982,23.412c1.242,0,2.252-1.16,2.252-2.596c0-1.432-1.01,0.809-2.252,0.809
	c-1.244,0-2.256-2.24-2.256-0.809C14.727,22.252,15.738,23.412,16.982,23.412z"/>
<path fill="#FFE12C" d="M26.957,35.51c0.279-0.729,0.482-1.494,0.604-2.289C28.402,32.844,29,31.908,29,30.807
	c0.002-1.043-0.535-0.139-1.307,0.43c-0.021-0.818-0.129-1.619-0.318-2.393c0.545-0.684,0.701-1.707,0.314-2.662
	c-0.367-0.91-0.525-0.031-0.963,0.768c-0.334-0.746-0.748-1.453-1.236-2.104c0.176-0.809-0.07-1.738-0.742-2.422
	c-0.648-0.664-0.514,0.1-0.59,0.957c-0.592-0.543-1.246-1.021-1.957-1.426c-0.168-0.781-0.736-1.498-1.578-1.854
	c-1.293-0.549,0.346,1.26-0.131,2.438c-0.477,1.18-2.889,1.273-1.59,1.822c1.02,0.434,2.123,0.199,2.779-0.494
	c0.504,0.322,0.955,0.703,1.379,1.113c-0.998,0.277-2.293-0.109-1.498,0.705c0.754,0.773,1.818,1.004,2.67,0.672
	c0.324,0.475,0.602,0.979,0.83,1.51c-0.988-0.178-1.949-0.943-1.537,0.082c0.389,0.959,1.217,1.572,2.08,1.654
	c0.113,0.533,0.188,1.078,0.203,1.639c-0.775-0.57-1.316-1.482-1.316-0.436c0,0.988,0.486,1.84,1.195,2.277
	c-0.09,0.523-0.225,1.031-0.4,1.521c-0.439-0.801-0.6-1.689-0.971-0.777c-0.348,0.863-0.252,1.781,0.17,2.455
	c-0.258,0.424-0.551,0.824-0.871,1.197c-0.072-0.846,0.051-1.586-0.592-0.93c-0.613,0.629-0.879,1.463-0.785,2.221
	c-0.377,0.287-0.775,0.545-1.195,0.768c0.248-0.756,0.568-1.318-0.232-0.98c-0.773,0.33-1.316,0.967-1.529,1.674
	c-0.729,0.201-1.492,0.318-2.281,0.318c-0.791,0-1.553-0.117-2.281-0.318c-0.213-0.707-0.756-1.344-1.529-1.674
	c-0.799-0.338-0.48,0.225-0.232,0.98c-0.42-0.223-0.818-0.48-1.195-0.768c0.094-0.758-0.17-1.592-0.783-2.221
	c-0.643-0.656-0.52,0.084-0.594,0.932c-0.32-0.375-0.613-0.773-0.871-1.199c0.424-0.674,0.52-1.592,0.172-2.455
	c-0.371-0.914-0.531-0.023-0.973,0.777c-0.176-0.488-0.311-0.996-0.4-1.521c0.709-0.438,1.195-1.289,1.197-2.277
	c-0.002-1.049-0.543-0.133-1.32,0.436c0.018-0.559,0.088-1.105,0.199-1.639c0.867-0.08,1.697-0.693,2.088-1.654
	c0.416-1.033-0.563-0.25-1.559-0.08c0.23-0.535,0.523-1.033,0.85-1.512c0.854,0.332,1.918,0.1,2.672-0.672
	c0.797-0.818-0.516-0.422-1.518-0.709c0.426-0.412,0.898-0.775,1.406-1.1c0.658,0.686,1.756,0.916,2.771,0.484
	c1.297-0.549-1.115-0.643-1.59-1.822c-0.479-1.178,1.16-2.986-0.133-2.438c-0.842,0.355-1.408,1.072-1.576,1.852
	c-0.713,0.404-1.367,0.879-1.957,1.418c-0.076-0.855,0.055-1.609-0.592-0.947c-0.67,0.684-0.916,1.611-0.742,2.42
	c-0.488,0.65-0.904,1.352-1.24,2.096c-0.432-0.795-0.592-1.664-0.959-0.758c-0.387,0.953-0.23,1.975,0.313,2.656
	c-0.188,0.773-0.297,1.576-0.316,2.396C5.535,30.666,5,29.764,5,30.807c0,1.102,0.598,2.037,1.439,2.414
	c0.121,0.795,0.322,1.561,0.604,2.289c-0.986-0.182-1.938-0.936-1.523,0.082c0.432,1.072,1.41,1.707,2.377,1.658
	c0.404,0.67,0.871,1.291,1.402,1.855c-1.002,0.283-2.309-0.109-1.51,0.705c0.832,0.854,2.035,1.045,2.922,0.551
	c0.605,0.453,1.258,0.844,1.949,1.16c-0.809,0.699-2.266,0.846-1.197,1.297c1.115,0.473,2.328,0.158,2.949-0.686
	c0.129,0.033,0.252,0.072,0.383,0.102c-0.373,0.488-0.605,1.096-0.605,1.766h5.623c0-0.67-0.232-1.277-0.605-1.766
	c0.129-0.029,0.254-0.068,0.381-0.102c0.623,0.844,1.836,1.158,2.949,0.686c1.07-0.451-0.389-0.598-1.195-1.297
	c0.691-0.316,1.342-0.709,1.949-1.16c0.887,0.494,2.088,0.303,2.922-0.551c0.797-0.814-0.51-0.422-1.512-0.705
	c0.531-0.564,1-1.188,1.402-1.855c0.967,0.051,1.945-0.586,2.379-1.658C28.895,34.574,27.943,35.328,26.957,35.51z"/>
<path fill="#FFE12C" d="M16,25.875c0,5.334,0,10.666,0,16c0,1.289,2,1.289,2,0c0-5.334,0-10.666,0-16C18,24.586,16,24.586,16,25.875
	L16,25.875z"/>
<path fill="#FFE12C" d="M20.998,34.002c0,0-2.672-0.07-3.43,0.688c-0.758,0.756-0.758,1.984,0,2.742s1.986,0.758,2.744,0
	S20.998,34.002,20.998,34.002z"/>
<path fill="#FFE12C" d="M13.002,32.002c0,0,2.672-0.07,3.43,0.688c0.758,0.756,0.758,1.984,0,2.742s-1.986,0.758-2.744,0
	S13.002,32.002,13.002,32.002z"/>
<path fill="#FFE12C" d="M13.002,27.002c0,0,2.672-0.07,3.43,0.688c0.758,0.756,0.758,1.984,0,2.742s-1.986,0.758-2.744,0
	S13.002,27.002,13.002,27.002z"/>
<path fill="#FFE12C" d="M20.998,29.002c0,0-2.672-0.07-3.43,0.688c-0.758,0.756-0.758,1.984,0,2.742s1.986,0.758,2.744,0
	S20.998,29.002,20.998,29.002z"/>
<path fill="#FFE12C" d="M19,26.002c0,0-1.336-0.037-1.715,0.342s-0.379,0.994,0,1.373s0.992,0.379,1.371,0S19,26.002,19,26.002z"/>
<path opacity="0.1" fill="#1A1626" d="M50.738,8.59c4.096,5.131,6.563,11.623,6.563,18.701c0,16.568-13.43,30.004-29.996,30.004
	c-7.1,0-13.609-2.479-18.744-6.594C14.055,57.58,22.504,62,32.004,62c16.566,0,29.994-13.432,29.994-30
	C61.998,22.527,57.596,14.09,50.738,8.59z"/>
<path opacity="0.3" fill-rule="evenodd" clip-rule="evenodd" fill="#FFFFFF" d="M9.734,19.014c0.549,3.865,7.768-3.699,15.08-10.201
	C29.531,4.629,8.084,7.385,9.734,19.014z"/>
</svg>
