<?xml version="1.0" encoding="utf-8"?>
<!-- Generator: Adobe Illustrator 15.0.0, SVG Export Plug-In . SVG Version: 6.00 Build 0)  -->
<!DOCTYPE svg PUBLIC "-//W3C//DTD SVG 1.1//EN" "http://www.w3.org/Graphics/SVG/1.1/DTD/svg11.dtd">
<svg version="1.1" id="Layer_1" xmlns="http://www.w3.org/2000/svg" xmlns:xlink="http://www.w3.org/1999/xlink" x="0px" y="0px"
	 width="64px" height="64px" viewBox="0 0 64 64" enable-background="new 0 0 64 64" xml:space="preserve">
<path fill="#F5F5F5" d="M30,61.898C30.664,61.943,31.325,62,32,62c14.514,0,26.617-10.307,29.398-24H30V61.898z"/>
<path fill="#F5F5F5" d="M2.603,38C4.413,46.92,10.187,54.391,18,58.523V38H2.603z"/>
<path fill="#F5F5F5" d="M61.398,26C58.617,12.307,46.514,2,32,2c-0.675,0-1.336,0.057-2,0.101V26H61.398z"/>
<path fill="#F5F5F5" d="M18,5.477C10.187,9.609,4.413,17.08,2.603,26H18V5.477z"/>
<path fill="#014D87" d="M28,28h33.703c-0.09-0.671-0.172-1.344-0.305-2H30V2.101c-0.674,0.045-1.34,0.108-2,0.196V28z"/>
<path fill="#014D87" d="M20,28V4.513c-0.68,0.298-1.348,0.618-2,0.964V26H2.603c-0.134,0.656-0.216,1.329-0.306,2H20z"/>
<path fill="#014D87" d="M28,36v25.703c0.66,0.088,1.326,0.152,2,0.195V38h31.398c0.133-0.656,0.215-1.33,0.305-2H28z"/>
<path fill="#014D87" d="M20,36H2.297c0.09,0.67,0.172,1.344,0.306,2H18v20.523c0.652,0.346,1.32,0.666,2,0.963V36z"/>
<path fill="#E81C27" d="M61.703,28H28V2.297c-2.808,0.375-5.494,1.12-8,2.216V28H2.297C2.122,29.312,2,30.641,2,32
	s0.122,2.688,0.297,4H20v23.486c2.506,1.096,5.192,1.842,8,2.217V36h33.703C61.879,34.688,62,33.359,62,32S61.879,29.312,61.703,28z
	"/>
<path opacity="0.05" fill="#1A1626" d="M50.739,8.592c4.097,5.13,6.563,11.622,6.563,18.701c0,16.568-13.429,30.002-29.995,30.002
	c-7.1,0-13.609-2.477-18.744-6.594C14.057,57.58,22.505,62,32.006,62C48.571,62,62,48.568,62,32.001
	C62,22.528,57.598,14.091,50.739,8.592z"/>
<path opacity="0.5" fill-rule="evenodd" clip-rule="evenodd" fill="#FFFFFF" d="M9.434,18.355c0.549,3.865,7.768-3.7,15.08-10.202
	C29.23,3.971,7.783,6.726,9.434,18.355z"/>
</svg>
