<?xml version="1.0" encoding="utf-8"?>
<!-- Generator: Adobe Illustrator 15.0.0, SVG Export Plug-In . SVG Version: 6.00 Build 0)  -->
<!DOCTYPE svg PUBLIC "-//W3C//DTD SVG 1.1//EN" "http://www.w3.org/Graphics/SVG/1.1/DTD/svg11.dtd">
<svg version="1.1" id="Layer_1" xmlns="http://www.w3.org/2000/svg" xmlns:xlink="http://www.w3.org/1999/xlink" x="0px" y="0px"
	 width="64px" height="64px" viewBox="0 0 64 64" enable-background="new 0 0 64 64" xml:space="preserve">
<g>
	<path fill="#F59E01" d="M32,2C18.939,2,7.833,10.35,3.714,22h56.572C56.167,10.35,45.061,2,32,2z"/>
</g>
<g>
	<path fill="#529320" d="M32,62c13.061,0,24.167-8.35,28.286-20H3.714C7.833,53.65,18.939,62,32,62z"/>
</g>
<g>
	<path fill="#F5F5F5" d="M3.714,22C2.607,25.129,2,28.492,2,32s0.607,6.871,1.714,10h56.572C61.393,38.871,62,35.508,62,32
		s-0.607-6.871-1.714-10H3.714z"/>
</g>
<circle fill="#014D87" cx="32" cy="32" r="8"/>
<circle fill="#F5F5F5" cx="32" cy="32" r="7"/>
<circle fill="#014D87" cx="29.321" cy="25.533" r="0.5"/>
<circle fill="#014D87" cx="27.738" cy="26.447" r="0.5"/>
<circle fill="#014D87" cx="26.446" cy="27.739" r="0.5"/>
<circle fill="#014D87" cx="25.533" cy="29.322" r="0.5"/>
<circle fill="#014D87" cx="25.06" cy="31.087" r="0.5"/>
<circle fill="#014D87" cx="25.061" cy="32.914" r="0.5"/>
<circle fill="#014D87" cx="25.533" cy="34.679" r="0.5"/>
<circle fill="#014D87" cx="26.447" cy="36.262" r="0.5"/>
<circle fill="#014D87" cx="27.739" cy="37.555" r="0.5"/>
<circle fill="#014D87" cx="29.322" cy="38.468" r="0.5"/>
<circle fill="#014D87" cx="31.087" cy="38.94" r="0.5"/>
<path fill="#014D87" d="M32.419,39.006c-0.037-0.273,0.155-0.525,0.43-0.563c0.274-0.033,0.523,0.156,0.562,0.432
	c0.036,0.273-0.156,0.525-0.432,0.561C32.706,39.473,32.454,39.279,32.419,39.006z"/>
<circle fill="#014D87" cx="34.68" cy="38.467" r="0.5"/>
<circle fill="#014D87" cx="36.263" cy="37.553" r="0.5"/>
<circle fill="#014D87" cx="37.555" cy="36.26" r="0.5"/>
<path fill="#014D87" d="M38.276,35.139c-0.257-0.102-0.376-0.395-0.271-0.652c0.107-0.254,0.396-0.373,0.654-0.271
	c0.256,0.107,0.376,0.4,0.271,0.656C38.822,35.125,38.531,35.246,38.276,35.139z"/>
<circle fill="#014D87" cx="38.941" cy="32.912" r="0.5"/>
<path fill="#014D87" d="M39.006,31.58c-0.274,0.04-0.525-0.154-0.562-0.429c-0.035-0.274,0.155-0.522,0.431-0.562
	c0.273-0.037,0.525,0.158,0.562,0.432C39.471,31.295,39.28,31.546,39.006,31.58z"/>
<circle fill="#014D87" cx="38.467" cy="29.32" r="0.5"/>
<circle fill="#014D87" cx="37.553" cy="27.737" r="0.5"/>
<circle fill="#014D87" cx="36.26" cy="26.446" r="0.5"/>
<path fill="#014D87" d="M35.139,25.724c-0.103,0.257-0.396,0.377-0.651,0.271c-0.255-0.107-0.376-0.396-0.271-0.654
	c0.104-0.255,0.4-0.376,0.654-0.271C35.125,25.177,35.247,25.469,35.139,25.724z"/>
<path fill="#014D87" d="M33.407,25.125c-0.032,0.274-0.284,0.466-0.559,0.431c-0.274-0.038-0.466-0.285-0.432-0.562
	c0.035-0.273,0.289-0.467,0.562-0.431C33.253,24.601,33.445,24.852,33.407,25.125z"/>
<path fill="#014D87" d="M31.579,24.996c0.041,0.273-0.152,0.523-0.427,0.56c-0.275,0.035-0.524-0.154-0.563-0.431
	c-0.037-0.273,0.157-0.525,0.431-0.561C31.295,24.529,31.546,24.721,31.579,24.996z"/>
<circle fill="#014D87" cx="32" cy="32" r="1.499"/>
<polygon fill="#014D87" points="32,25 31.75,29.323 32,32 32.25,29.313 "/>
<polygon fill="#014D87" points="30.188,25.239 31.065,29.479 32,32 31.546,29.34 "/>
<polygon fill="#014D87" points="28.5,25.938 30.444,29.806 32,32 30.873,29.548 "/>
<polygon fill="#014D87" points="27.051,27.05 29.93,30.284 32,32 30.276,29.923 "/>
<polygon fill="#014D87" points="25.938,28.5 29.556,30.878 32,32 29.798,30.44 "/>
<polygon fill="#014D87" points="25.239,30.188 29.349,31.549 32,32 29.47,31.063 "/>
<polygon fill="#014D87" points="25.001,32 29.322,32.25 32,32 29.313,31.75 "/>
<polygon fill="#014D87" points="25.239,33.811 29.479,32.935 32,32 29.341,32.455 "/>
<polygon fill="#014D87" points="25.938,35.5 29.807,33.556 32,32 29.549,33.127 "/>
<polygon fill="#014D87" points="27.051,36.949 30.284,34.07 32,32 29.924,33.725 "/>
<polygon fill="#014D87" points="28.5,38.061 30.879,34.443 32,32 30.44,34.203 "/>
<polygon fill="#014D87" points="30.188,38.76 31.55,34.65 32,32 31.063,34.531 "/>
<polygon fill="#014D87" points="31.999,39 32.251,34.678 32,32 31.75,34.688 "/>
<polygon fill="#014D87" points="33.811,38.762 32.936,34.521 32,32 32.454,34.66 "/>
<polygon fill="#014D87" points="35.499,38.063 33.557,34.193 32,32 33.127,34.453 "/>
<polygon fill="#014D87" points="36.949,36.949 34.071,33.715 32,32 33.724,34.078 "/>
<polygon fill="#014D87" points="38.062,35.5 34.444,33.121 32,32 34.202,33.561 "/>
<polygon fill="#014D87" points="38.761,33.813 34.651,32.45 32,32 34.531,32.938 "/>
<polygon fill="#014D87" points="38.999,32 34.678,31.748 32,32 34.688,32.25 "/>
<polygon fill="#014D87" points="38.761,30.189 34.521,31.063 32,32 34.661,31.546 "/>
<polygon fill="#014D87" points="38.062,28.501 34.193,30.443 32,32 34.453,30.873 "/>
<polygon fill="#014D87" points="36.949,27.051 33.716,29.928 32,32 34.078,30.276 "/>
<polygon fill="#014D87" points="35.5,25.939 33.121,29.555 32,32 33.562,29.797 "/>
<polygon fill="#014D87" points="33.813,25.24 32.45,29.348 32,32 32.938,29.468 "/>
<path opacity="0.1" fill="#1A1626" d="M50.737,8.591c4.097,5.13,6.563,11.622,6.563,18.701c0,16.569-13.429,30.003-29.995,30.003
	c-7.1,0-13.609-2.477-18.744-6.594C14.055,57.58,22.503,62,32.004,62c16.565,0,29.994-13.432,29.994-30
	C61.998,22.527,57.596,14.09,50.737,8.591z"/>
<path opacity="0.3" fill-rule="evenodd" clip-rule="evenodd" fill="#FFFFFF" d="M9.734,19.015c0.549,3.865,7.768-3.7,15.08-10.202
	C29.531,4.63,8.084,7.385,9.734,19.015z"/>
</svg>
