<?xml version="1.0" encoding="utf-8"?>
<!-- Generator: Adobe Illustrator 15.0.0, SVG Export Plug-In . SVG Version: 6.00 Build 0)  -->
<!DOCTYPE svg PUBLIC "-//W3C//DTD SVG 1.1//EN" "http://www.w3.org/Graphics/SVG/1.1/DTD/svg11.dtd">
<svg version="1.1" id="Layer_1" xmlns="http://www.w3.org/2000/svg" xmlns:xlink="http://www.w3.org/1999/xlink" x="0px" y="0px"
	 width="64px" height="64px" viewBox="0 0 64 64" enable-background="new 0 0 64 64" xml:space="preserve">
<path fill="#F5F5F5" d="M62,32C62,15.431,48.568,2,32,2v60C48.568,62,62,48.568,62,32z"/>
<path fill="#529320" d="M2,32c0,16.569,13.432,30,30,30V2C15.432,2,2,15.431,2,32z"/>
<polygon fill="#E81C27" points="40.652,39 40.641,33.645 46,32 40.641,30.355 40.652,25 37.352,29.339 32,27.673 35.32,32 
	32,36.326 37.352,34.66 "/>
<path fill="#E81C27" d="M37.25,44c-6.553,0-11.865-5.373-11.865-12c0-6.627,5.313-12,11.865-12c2.51,0,4.834,0.789,6.75,2.133
	C41.281,18.988,37.287,17,32.83,17C24.639,17,18,23.714,18,32c0,8.284,6.639,15,14.83,15c4.457,0,8.451-1.988,11.17-5.135
	C42.084,43.211,39.76,44,37.25,44z"/>
<path opacity="0.05" fill="#1A1626" d="M50.737,8.591C54.834,13.72,57.3,20.212,57.3,27.292c0,16.569-13.429,30.002-29.995,30.002
	c-7.101,0-13.609-2.477-18.744-6.594C14.055,57.58,22.503,62,32.004,62c16.565,0,29.994-13.432,29.994-30
	C61.998,22.527,57.596,14.089,50.737,8.591z"/>
<path opacity="0.3" fill-rule="evenodd" clip-rule="evenodd" fill="#FFFFFF" d="M9.734,19.015c0.549,3.865,7.767-3.701,15.08-10.203
	C29.531,4.63,8.083,7.384,9.734,19.015z"/>
</svg>
