<?xml version="1.0" encoding="utf-8"?>
<!-- Generator: Adobe Illustrator 15.0.0, SVG Export Plug-In . SVG Version: 6.00 Build 0)  -->
<!DOCTYPE svg PUBLIC "-//W3C//DTD SVG 1.1//EN" "http://www.w3.org/Graphics/SVG/1.1/DTD/svg11.dtd">
<svg version="1.1" id="Layer_1" xmlns="http://www.w3.org/2000/svg" xmlns:xlink="http://www.w3.org/1999/xlink" x="0px" y="0px"
	 width="64px" height="64px" viewBox="0 0 64 64" enable-background="new 0 0 64 64" xml:space="preserve">
<path fill="#FFE12C" d="M2,32c0,16.568,13.432,30,30,30c11.744,0,21.906-6.754,26.832-16.584L5.168,18.584
	C3.145,22.621,2,27.176,2,32z"/>
<path fill="#529320" d="M32,2C20.256,2,10.094,8.752,5.168,18.584l53.664,26.832C60.855,41.377,62,36.824,62,32
	C62,15.432,48.568,2,32,2z"/>
<polygon fill="#E81C27" points="32,17.912 35.291,28.037 45.938,28.037 37.324,34.295 40.615,44.422 32,38.164 23.387,44.422 
	26.676,34.295 18.063,28.037 28.709,28.037 "/>
<path opacity="0.1" fill="#1A1626" d="M50.736,8.592c4.098,5.129,6.563,11.621,6.563,18.701c0,16.568-13.428,30.002-29.994,30.002
	c-7.1,0-13.609-2.477-18.744-6.594C14.055,57.58,22.502,62,32.004,62c16.564,0,29.994-13.432,29.994-30
	C61.998,22.527,57.596,14.09,50.736,8.592z"/>
<path opacity="0.3" fill-rule="evenodd" clip-rule="evenodd" fill="#FFFFFF" d="M9.735,19.016c0.549,3.865,7.768-3.701,15.08-10.203
	C29.532,4.631,8.084,7.385,9.735,19.016z"/>
</svg>
