<?xml version="1.0" encoding="utf-8"?>
<!-- Generator: Adobe Illustrator 15.0.0, SVG Export Plug-In . SVG Version: 6.00 Build 0)  -->
<!DOCTYPE svg PUBLIC "-//W3C//DTD SVG 1.1//EN" "http://www.w3.org/Graphics/SVG/1.1/DTD/svg11.dtd">
<svg version="1.1" id="Layer_1" xmlns="http://www.w3.org/2000/svg" xmlns:xlink="http://www.w3.org/1999/xlink" x="0px" y="0px"
	 width="64px" height="64px" viewBox="0 0 64 64" enable-background="new 0 0 64 64" xml:space="preserve">
<g>
	<rect x="11.369" y="11.288" fill="#014D87" width="21.262" height="21.424"/>
</g>
<g>
	<polygon fill="#F5F5F5" points="18.912,8.14 18.912,14 11.6,14 26,32 32,32 32,24.5 	"/>
</g>
<g>
	<path fill="#014D87" d="M32,2v30H2c0,16.568,13.432,30,30,30s30-13.432,30-30S48.568,2,32,2z"/>
</g>
<g>
	<path fill="#F5F5F5" d="M11,18.912H5.011C3.088,22.869,2,27.306,2,32h12V13.912h-3V18.912z"/>
</g>
<g>
	<polygon fill="#E81C27" points="32,27.059 19,11 13,11 30,32 32,32 	"/>
</g>
<g>
	<path fill="#F5F5F5" d="M18.912,5.012V11H11v3h21V2C27.306,2,22.868,3.088,18.912,5.012z"/>
</g>
<g>
	<path fill="#E81C27" d="M32,5H18.912C12.857,7.94,7.94,12.857,5,18.912V32h6V11h21V5z"/>
</g>
<g>
	<g>
		<path fill="#785647" d="M39.033,35.606c0-0.083-0.949-0.324-1.389-0.241c-0.438,0.083-1.245,2.229-1.282,2.271
			c-0.035,0.041,0.771,1.031,0.807,0.989c0.037-0.04,0.549-0.783,1.098-0.866c0.254-0.038,0.531,0.188,0.756,0.443
			c-0.007,0.047-0.793,2.9-1.78,3.147c-0.165,0.041-0.337,0.034-0.513-0.007c-0.054-0.144-0.073-1.644-0.073-1.644
			s-0.184-0.908-0.952-0.784c-0.77,0.123-0.806,0.784-0.806,1.031c0,0.248,1.486,3.322,1.831,3.426
			c0.549,0.165,2.087-0.495,3.039-1.568c0.951-1.073,1.171-4.127,1.171-4.209C40.939,37.595,39.033,35.61,39.033,35.606z"/>
	</g>
	<g>
		<path fill="#785647" d="M55.411,39.946c0-0.247-0.036-0.908-0.806-1.031c-0.769-0.124-0.952,0.784-0.952,0.784
			s-0.02,1.5-0.074,1.646c-0.174,0.039-0.347,0.046-0.511,0.005c-0.988-0.247-1.773-3.101-1.781-3.147
			c0.225-0.255,0.502-0.481,0.757-0.443c0.549,0.083,1.061,0.826,1.098,0.866c0.037,0.042,0.842-0.948,0.806-0.989
			c-0.037-0.041-0.843-2.188-1.282-2.271s-1.388,0.158-1.388,0.241c0,0.004-1.907,1.988-1.907,1.988c0,0.082,0.22,3.136,1.172,4.209
			s2.49,1.733,3.039,1.568C53.926,43.269,55.411,40.194,55.411,39.946z"/>
	</g>
</g>
<g>
	<path fill="#FFE12C" d="M36.579,37.146c-0.439,0.577-0.674,1.024-0.856,1.354c-0.184,0.33-0.075,0.789,0.348,1.445
		c0.456,0.707,4.204,3.468,9.085,3.468c4.882,0,8.63-2.761,9.086-3.468c0.423-0.656,0.527-1.115,0.344-1.445
		c-0.183-0.33-0.414-0.777-0.854-1.354c0,0.866-3.104,3.998-8.576,3.998C39.685,41.145,36.579,38.013,36.579,37.146z"/>
</g>
<g>
	<g>
		<path fill="#0FB4D4" d="M37.437,20.506v13c0,3.866,3.455,7,7.718,7s7.718-3.134,7.718-7v-13H37.437z"/>
	</g>
</g>
<path fill="#F5F5F5" d="M52.872,30.006c0,0-2.895-2-3.859-2c-0.964,0-2.747,2-3.858,2s-2.895-2-3.858-2c-0.965,0-3.859,2-3.859,2v2
	c0,0,2.895-2,3.859-2c0.964,0,2.747,2,3.858,2s2.895-2,3.858-2c0.965,0,3.859,2,3.859,2V30.006z"/>
<path fill="#F5F5F5" d="M52.785,34.506c0,0-2.829-2-3.771-2c-0.965,0-2.749,2-3.86,2s-2.895-2-3.858-2c-0.942,0-3.772,2-3.772,2
	c0.112,0.707,0.34,1.378,0.666,2c0,0,2.33-2,3.107-2c0.964,0,2.747,2,3.857,2c1.111,0,2.895-2,3.858-2c0.776,0,3.106,2,3.106,2
	C52.445,35.884,52.673,35.213,52.785,34.506z"/>
<path fill="#F5F5F5" d="M50.345,38.675c0,0-0.998-2-1.33-2c-0.965,0-2.749,2-3.86,2c-1.11,0-2.894-2-3.857-2
	c-0.334,0-1.335,2-1.335,2c1.372,1.134,3.19,1.831,5.192,1.831S48.974,39.809,50.345,38.675z"/>
<path fill="#F5F5F5" d="M42.949,23.381c0,1.105,0,2-2.205,2c-1.218,0-2.205-2-2.205-2s0.987-2,2.205-2
	C42.949,21.381,42.949,22.275,42.949,23.381z"/>
<path fill="#F5F5F5" d="M49.564,26.381c0,0.553-0.494,1-1.103,1h-6.615c-0.608,0-1.103-0.447-1.103-1v-2c0-0.553,0.494-1,1.103-1
	h6.615c0.608,0,1.103,0.447,1.103,1V26.381z"/>
<path fill="#F5F5F5" d="M41.847,27.981c0,0.221,0.493,0.399,1.103,0.399l0,0c0.608,0,1.103-0.179,1.103-0.399v-1.202
	c0-0.22-0.494-0.398-1.103-0.398l0,0c-0.609,0-1.103,0.179-1.103,0.398V27.981z"/>
<path fill="#F5F5F5" d="M46.257,27.981c0,0.221,0.493,0.399,1.103,0.399l0,0c0.608,0,1.103-0.179,1.103-0.399v-1.202
	c0-0.22-0.494-0.398-1.103-0.398l0,0c-0.609,0-1.103,0.179-1.103,0.398V27.981z"/>
<g>
	<path fill="#785647" d="M51.114,35.92v-0.366l0.203-0.37c0,0-3.207,0.38-3.207,0.411c0-0.03-0.015,0.496-0.018,0.668
		c-0.098,0.079-0.222,0.175-0.367,0.278c0.014-1.168,0.072-6.132,0.072-6.187h-0.259l-0.071,6.359
		c-0.601,0.383-1.463,0.785-2.438,0.769c-0.167-0.003-0.32-0.009-0.467-0.016c0.032-1.21,0.063-7.42,0.063-7.447
		c0-0.03-0.333,0-0.333,0s-0.088,6.146-0.106,7.419c-1.197-0.11-1.66-0.404-1.996-0.657c-0.405-0.305-0.774-0.762-0.774-0.762
		l-0.024-0.008c0.026-1.01,0.026-5.505,0.026-5.505l-0.221-0.03l-0.036,5.46l-1.884-0.618l0.111,0.671l0.773,0.243
		c0,0,0.368,3.14,4.607,3.048c3.564-0.076,4.966-2.262,5.321-2.959l1.149,0.004C51.203,36.233,51.114,35.92,51.114,35.92z"/>
</g>
<g>
	<g>
		<path fill="#E81C27" d="M41.303,30.556c-0.11,0.061-1.954,0.427-1.695,0.396c0.258-0.031,1.732,0.305,1.695,0.213
			C41.265,31.074,41.303,30.616,41.303,30.556z"/>
	</g>
	<g>
		<path fill="#E81C27" d="M44.437,30.099c-0.073,0-1.143,0.335-1.107,0.335c0.038,0,1.217,0.274,1.181,0.213
			S44.474,30.19,44.437,30.099L44.437,30.099z"/>
	</g>
	<g>
		<path fill="#E81C27" d="M47.644,30.403c-0.073,0.03-1.327,0.274-1.105,0.305c0.221,0.03,1.069,0.274,1.069,0.213
			S47.607,30.434,47.644,30.403z"/>
	</g>
</g>
<g>
	<g>
		<path fill="#FFE12C" d="M46.541,32.21c0,0-0.369,0.335-0.259,0.792c0.111,0.458,0.259,0.854,0.295,0.854
			c0.038,0,0.443-0.61,0.886-0.64c0.442-0.031,1.253,0.335,1.253,0.335s-0.11-0.731-0.073-1.067
			c0.037-0.335,0.663-0.914,0.663-0.914L46.541,32.21L46.541,32.21z"/>
	</g>
	<g>
		<path fill="#FFE12C" d="M40.163,32.393c0,0-0.332,0.091-0.221,0.64c0.11,0.549,0.369,0.854,0.404,0.854
			c0.039,0,0.333-0.518,0.775-0.609s1.216,0.274,1.216,0.274s-0.072-0.487,0.037-0.945c0.111-0.457,0.479-0.792,0.479-0.792
			S40.273,32.393,40.163,32.393L40.163,32.393z"/>
	</g>
	<g>
		<path fill="#FFE12C" d="M43.328,31.844c0,0.061-0.367,0.549-0.257,1.006c0.109,0.457,0.33,0.884,0.369,0.884
			c0.035,0,0.589-0.488,1.068-0.579c0.479-0.091,1.179,0.306,1.142,0.306c-0.035,0-0.184-0.458-0.184-0.793
			c0-0.336,0.553-1.372,0.553-1.372L43.328,31.844L43.328,31.844z"/>
	</g>
</g>
<path opacity="0.1" fill="#1A1626" d="M50.737,8.591c4.097,5.13,6.563,11.622,6.563,18.701c0,16.568-13.429,30.003-29.995,30.003
	c-7.1,0-13.609-2.478-18.744-6.594C14.055,57.58,22.503,62,32.004,62c16.565,0,29.994-13.432,29.994-30
	C61.998,22.527,57.596,14.09,50.737,8.591z"/>
<path opacity="0.3" fill-rule="evenodd" clip-rule="evenodd" fill="#FFFFFF" d="M9.734,19.015c0.549,3.865,7.768-3.7,15.08-10.202
	C29.531,4.63,8.084,7.385,9.734,19.015z"/>
</svg>
