<?xml version="1.0" encoding="utf-8"?>
<!-- Generator: Adobe Illustrator 15.0.0, SVG Export Plug-In . SVG Version: 6.00 Build 0)  -->
<!DOCTYPE svg PUBLIC "-//W3C//DTD SVG 1.1//EN" "http://www.w3.org/Graphics/SVG/1.1/DTD/svg11.dtd">
<svg version="1.1" id="Layer_1" xmlns="http://www.w3.org/2000/svg" xmlns:xlink="http://www.w3.org/1999/xlink" x="0px" y="0px"
	 width="64px" height="64px" viewBox="0 0 64 64" enable-background="new 0 0 64 64" xml:space="preserve">
<path fill="#F5F5F5" d="M12.638,54.908l47.964-31.975C57.393,12.8,48.949,5.003,38.447,2.703L2.479,26.681
	C2.17,28.408,2,30.183,2,32C2,41.188,6.134,49.404,12.638,54.908z"/>
<path fill="#014D87" d="M62,32c0-3.16-0.492-6.205-1.398-9.066L12.638,54.908C17.863,59.33,24.618,62,32,62
	C48.568,62,62,48.568,62,32z"/>
<path fill="#FFE12C" d="M2.479,26.681L38.447,2.703C36.369,2.248,34.213,2,32,2C17.248,2,4.992,12.652,2.479,26.681z"/>
<path fill="#302C3B" d="M39.465,29.544l2.76-1.594l-2.76-1.594c-0.723-5.797-5.324-10.398-11.121-11.121l-1.594-2.76l-1.594,2.76
	c-5.798,0.723-10.398,5.324-11.122,11.121l-2.759,1.594l2.759,1.594c0.724,5.797,5.324,10.399,11.122,11.122l1.594,2.76l1.592-2.76
	C34.141,39.943,38.742,35.342,39.465,29.544z M26.75,39.125c-6.162,0-11.176-5.012-11.176-11.174
	c0-6.162,5.014-11.176,11.176-11.176s11.174,5.014,11.174,11.176C37.924,34.113,32.912,39.125,26.75,39.125z"/>
<polygon fill="#E81C27" points="31.166,27.951 33.375,24.125 28.959,24.125 26.75,20.3 24.541,24.125 20.125,24.125 22.333,27.951 
	20.125,31.775 24.541,31.775 26.75,35.6 28.957,31.775 33.375,31.775 "/>
<path opacity="0.1" fill="#1A1626" d="M50.736,8.591c4.098,5.129,6.563,11.621,6.563,18.701c0,16.569-13.428,30.002-29.994,30.002
	c-7.101,0-13.609-2.477-18.744-6.594C14.055,57.58,22.502,62,32.004,62c16.564,0,29.994-13.432,29.994-30
	C61.998,22.527,57.596,14.089,50.736,8.591z"/>
<path opacity="0.3" fill-rule="evenodd" clip-rule="evenodd" fill="#FFFFFF" d="M9.734,19.015c0.549,3.865,7.767-3.701,15.08-10.203
	C29.531,4.63,8.083,7.384,9.734,19.015z"/>
</svg>
