<?xml version="1.0" encoding="utf-8"?>
<!-- Generator: Adobe Illustrator 15.0.0, SVG Export Plug-In . SVG Version: 6.00 Build 0)  -->
<!DOCTYPE svg PUBLIC "-//W3C//DTD SVG 1.1//EN" "http://www.w3.org/Graphics/SVG/1.1/DTD/svg11.dtd">
<svg version="1.1" id="Layer_1" xmlns="http://www.w3.org/2000/svg" xmlns:xlink="http://www.w3.org/1999/xlink" x="0px" y="0px"
	 width="64px" height="64px" viewBox="0 0 64 64" enable-background="new 0 0 64 64" xml:space="preserve">
<g>
	<path fill="#014D87" d="M2,32c0,11.512,6.486,21.502,16,26.533V5.467C8.486,10.498,2,20.489,2,32z"/>
</g>
<g>
	<path fill="#014D87" d="M62,32c0-11.511-6.486-21.502-16-26.533v53.066C55.514,53.502,62,43.512,62,32z"/>
</g>
<g>
	<path fill="#FFE12C" d="M32,2c-5.058,0-9.819,1.257-14,3.467v53.066C22.181,60.744,26.942,62,32,62c5.059,0,9.82-1.256,14-3.467
		V5.467C41.82,3.257,37.059,2,32,2z"/>
</g>
<g>
	<path fill="#302C3B" d="M43.838,20.16l-1.074-1.075c-0.195,0.221-4.625,5.25-5.057,15.122H33.48V23.282h-2.959v10.925h-4.228
		c-0.433-9.873-4.861-14.901-5.058-15.122l-2.15,2.146c0.043,0.049,4.282,4.955,4.282,14.535v1.561h7.153v10.816h2.959V37.326h7.15
		v-1.561c0-9.58,4.242-14.486,4.283-14.535L43.838,20.16z"/>
</g>
<g>
	<polygon fill="#302C3B" points="32,15.856 28.771,25.542 35.23,25.542 	"/>
</g>
<g>
	<polygon fill="#302C3B" points="21.236,19.085 27.695,25.542 23.658,25.542 	"/>
</g>
<g>
	<polygon fill="#302C3B" points="42.76,19.085 36.301,25.542 40.338,25.542 	"/>
</g>
<path opacity="0.1" fill="#1A1626" d="M50.738,8.591c4.096,5.13,6.563,11.622,6.563,18.701c0,16.569-13.43,30.003-29.996,30.003
	c-7.1,0-13.609-2.477-18.744-6.594C14.055,57.58,22.503,62,32.004,62c16.566,0,29.994-13.432,29.994-30
	C61.998,22.527,57.596,14.09,50.738,8.591z"/>
<path opacity="0.3" fill-rule="evenodd" clip-rule="evenodd" fill="#FFFFFF" d="M9.734,19.015c0.549,3.865,7.768-3.7,15.08-10.202
	C29.531,4.63,8.084,7.385,9.734,19.015z"/>
</svg>
