<?xml version="1.0" encoding="utf-8"?>
<!-- Generator: Adobe Illustrator 15.0.0, SVG Export Plug-In . SVG Version: 6.00 Build 0)  -->
<!DOCTYPE svg PUBLIC "-//W3C//DTD SVG 1.1//EN" "http://www.w3.org/Graphics/SVG/1.1/DTD/svg11.dtd">
<svg version="1.1" id="Layer_1" xmlns="http://www.w3.org/2000/svg" xmlns:xlink="http://www.w3.org/1999/xlink" x="0px" y="0px"
	 width="64px" height="64px" viewBox="0 0 64 64" enable-background="new 0 0 64 64" xml:space="preserve">
<path fill="#E81C27" d="M32.001,62C48.568,62,62,48.57,62,32.002H2C2,48.57,15.433,62,32.001,62z"/>
<path fill="#014D87" d="M32.001,2C15.433,2,2,15.432,2,32.002h60C62,15.432,48.568,2,32.001,2z"/>
<path fill="#F5F5F5" d="M20,22v17.352c0.271-0.191,23.74-0.012,24,0.129V22H20z"/>
<path fill="#529320" d="M32.373,37.373c0.004,0,0.01,0,0.014-0.002l0,0C32.381,37.371,32.378,37.373,32.373,37.373z"/>
<path fill="#529320" d="M39.232,37.547l-14.496,0.008L20,39.352v2.65h24V39.48L39.232,37.547z M37.441,40.59
	c0,0-1.944,0.729-5.457,0.729c-3.498,0-5.457-0.729-5.457-0.729v-0.799c0,0,1.498,0.684,5.457,0.684
	c3.975,0,5.457-0.684,5.457-0.684V40.59z"/>
<g>
	<path fill="#E81C27" d="M31.529,35.398c-0.023-0.258-0.049-0.535-0.072-0.811l-1.979-2.199c-0.636,0.105-0.285,0.993-0.123,1.38
		L31.529,35.398z"/>
</g>
<g>
	<path fill="#E81C27" d="M28.68,33.632c-0.635,0.194-0.357,1.042-0.164,1.499l2.601,1.49c0.14-0.07,0.319-0.117,0.522-0.145
		c-0.015-0.135-0.035-0.334-0.061-0.582L28.68,33.632z"/>
</g>
<g>
	<path fill="#E81C27" d="M30.883,36.801l-2.611-1.455c-0.223,0.092-0.31,0.289-0.307,0.545l1.24,1.793l1.6,0.496L30.883,36.801z"/>
</g>
<g>
	<path fill="#E81C27" d="M34.611,33.767c0.161-0.387,0.512-1.272-0.124-1.378l-2.04,2.268c-0.023,0.271-0.05,0.541-0.075,0.791
		L34.611,33.767z"/>
</g>
<g>
	<path fill="#E81C27" d="M35.45,35.131c0.194-0.457,0.47-1.305-0.163-1.499l-2.967,2.315c-0.025,0.223-0.045,0.402-0.06,0.527
		c0.231,0.029,0.429,0.088,0.577,0.17L35.45,35.131z"/>
</g>
<g>
	<path fill="#E81C27" d="M36,35.891c0.004-0.256-0.084-0.453-0.307-0.543l-2.648,1.475l0.078,1.369l1.638-0.508L36,35.891z"/>
</g>
<path fill="#529320" d="M32.335,27.762c0,0,0.005,0.131,0.017,0.35c0.18,0.48,0.422,0.932,0.758,1.191
	c0.234-0.336,0.25-1.164,0.041-1.977c0.346,0.371,0.771,0.725,1.184,0.799c0.031-0.277-0.182-0.758-0.524-1.197
	c0.552,0.266,1.282,0.49,2.112,0.424c-0.205-0.314-0.659-0.623-1.165-0.877c0.932,0.246,1.842,0.488,1.885,0.506
	c-0.108-0.861-0.507-0.896-1.239-1.248l1.752,0.023c-0.444-0.785-1.929-0.828-3.115-0.637c0.746-0.236,1.665-0.494,1.809-0.521
	c-0.336-0.25-1.658-1.064-3.381,0.291c-0.022,0.529-0.246,0.951-0.523,0.951c-0.287,0-0.516-0.443-0.527-0.992
	c-1.699-1.297-2.997-0.496-3.332-0.25c0.146,0.027,1.065,0.285,1.811,0.521c-1.186-0.191-2.671-0.148-3.115,0.637l1.752-0.023
	c-0.731,0.352-1.131,0.387-1.238,1.248c0.043-0.018,0.953-0.26,1.885-0.506c-0.508,0.254-0.961,0.563-1.166,0.877
	c0.83,0.066,1.561-0.158,2.113-0.424c-0.343,0.439-0.557,0.92-0.525,1.197c0.412-0.074,0.838-0.428,1.185-0.799
	c-0.21,0.813-0.194,1.641,0.04,1.977c0.258-0.199,0.462-0.51,0.625-0.861c0.012-0.41,0.02-0.68,0.02-0.68H32.335z"/>
<path fill="#F5F5F5" d="M26.527,39.791v0.799c0,0,1.959,0.729,5.457,0.729c3.513,0,5.457-0.729,5.457-0.729v-0.799
	c0,0-1.482,0.684-5.457,0.684C28.025,40.475,26.527,39.791,26.527,39.791z"/>
<g>
	<path fill="#014D87" d="M29.479,32.389l-2.412-2.68c-0.664,0.592-0.693,1.5-0.678,1.83l2.967,2.229
		C29.193,33.382,28.843,32.494,29.479,32.389z"/>
</g>
<g>
	<path fill="#014D87" d="M28.68,33.632l-3.6-2.812c-0.47,0.6-0.17,2.066-0.082,2.438l3.518,1.872
		C28.322,34.674,28.045,33.826,28.68,33.632z"/>
</g>
<g>
	<path fill="#014D87" d="M23.928,34.295c0.008,0.346-0.107,0.568,0.117,1.197l3.92,0.398c-0.003-0.256,0.084-0.453,0.307-0.545
		l-4.494-2.5C23.507,33.413,23.786,34.172,23.928,34.295z"/>
</g>
<g>
	<path fill="#014D87" d="M37.576,31.539c0.016-0.33-0.014-1.24-0.677-1.83l-2.412,2.68c0.636,0.105,0.285,0.991,0.124,1.378
		L37.576,31.539z"/>
</g>
<g>
	<path fill="#014D87" d="M38.967,33.259c0.088-0.374,0.389-1.839-0.082-2.438l-3.598,2.812c0.633,0.194,0.357,1.042,0.163,1.499
		L38.967,33.259z"/>
</g>
<g>
	<path fill="#014D87" d="M40.189,32.846l-4.496,2.502c0.223,0.09,0.311,0.287,0.307,0.543l3.92-0.398
		c0.225-0.629,0.109-0.852,0.117-1.197C40.18,34.172,40.459,33.413,40.189,32.846z"/>
</g>
<g>
	<path fill="#014D87" d="M31.943,25.84c0.277,0,0.501-0.422,0.523-0.951c0.001-0.027,0.008-0.051,0.008-0.08
		c0-0.568-0.238-1.029-0.531-1.029c-0.295,0-0.531,0.461-0.531,1.029c0,0.014,0.004,0.025,0.004,0.039
		C31.428,25.396,31.656,25.84,31.943,25.84z"/>
</g>
<path fill="#FFE12C" d="M40.348,36.291l-0.139-0.828l-1.744,0.176c-0.245-0.129-0.521-0.209-0.818-0.209
	c-0.426,0-0.811,0.156-1.117,0.406l-2.025,0.207l0.166,0.82l0.605-0.061l-0.515,0.881l-1.638,0.508V37.02h-2.318v1.16l-1.6-0.496
	l-0.465-0.793l-0.051-0.088l0.605,0.061l0.166-0.82l-1.982-0.203c-0.307-0.252-0.695-0.41-1.123-0.41
	c-0.301,0-0.578,0.082-0.826,0.213l-1.772-0.18l-0.139,0.828l1.155,0.115c-0.123,0.244-0.199,0.514-0.199,0.805
	c0,0.984,0.797,1.781,1.781,1.781c0.83,0,1.52-0.568,1.719-1.336l0.26,0.41l2.471,0.742c0,0.211,0.52,0.381,1.158,0.381
	c0.641,0,1.16-0.17,1.16-0.381l2.508-0.742l0.295-0.416c0.197,0.77,0.891,1.342,1.721,1.342c0.984,0,1.781-0.797,1.781-1.781
	c0-0.291-0.078-0.564-0.203-0.807L40.348,36.291z"/>
<path fill="#FFE12C" d="M24.613,30.486l0.047,0.037c-0.069,0.092-0.128,0.182-0.179,0.271L24.906,31l0.159-0.191l6.483,5.141
	l0.088,0.525h0.654l0.059-0.525l6.551-5.141L39.06,31l0.425-0.205c-0.051-0.09-0.109-0.18-0.18-0.271l0.048-0.037l0.317-0.004
	l0.57-0.842l-1.01,0.422l-0.03,0.225l-0.058,0.047c-0.064-0.064-0.136-0.131-0.223-0.199l-0.316,0.318l0.162,0.193l-6.357,4.723
	l0.06-0.689l4.57-5.123l0.191,0.16l0.38-0.271c-0.064-0.08-0.139-0.16-0.225-0.238l0.039-0.045l0.313-0.057l0.41-0.924l-0.918,0.584
	l0.009,0.227l-0.047,0.057c-0.076-0.055-0.158-0.107-0.255-0.16l-0.255,0.367l0.195,0.164l-2.751,2.943l0.531-1.141l-0.276-0.059
	l-1.266,2.284l1.023-2.751l-0.406-0.025l-1.082,3.05l0.701-2.907l-0.354-0.008l-0.461,1.941c-0.025-1.049-0.202-4.986-0.202-4.986
	h-0.866c0,0-0.102,3.625-0.113,4.68l-0.389-1.635l-0.354,0.008l0.701,2.903l-1.082-3.046l-0.405,0.025l1.022,2.751l-1.266-2.284
	l-0.275,0.059l0.531,1.143l-2.75-2.945l0.193-0.164l-0.254-0.367c-0.098,0.053-0.18,0.105-0.254,0.16l-0.049-0.057l0.01-0.227
	l-0.918-0.584l0.41,0.924l0.313,0.057l0.039,0.045c-0.086,0.078-0.158,0.158-0.225,0.238l0.381,0.271l0.191-0.16l4.502,5.123
	l0.06,0.689l-6.29-4.723l0.162-0.193l-0.316-0.318c-0.086,0.068-0.158,0.135-0.222,0.199l-0.058-0.047l-0.031-0.225l-1.01-0.422
	l0.57,0.842L24.613,30.486z"/>
<path fill="#FFE12C" d="M23.637,33.052l0.125-0.214l7.121,3.963l0.552-0.156l-7.565-3.986l0.127-0.217l-0.362-0.268
	c-0.075,0.08-0.134,0.158-0.187,0.232l-0.065-0.039l-0.066-0.217l-1.065-0.264l0.699,0.744l0.314-0.045l0.053,0.031
	c-0.055,0.102-0.097,0.199-0.133,0.295L23.637,33.052z"/>
<path fill="#FFE12C" d="M41.016,32.631l0.699-0.744L40.65,32.15l-0.066,0.217l-0.065,0.039c-0.053-0.074-0.112-0.152-0.187-0.232
	l-0.363,0.268l0.127,0.217l-7.524,3.963l0.474,0.201l2.648-1.475l4.51-2.51l0.127,0.214l0.451-0.14
	c-0.035-0.096-0.078-0.193-0.133-0.295l0.053-0.031L41.016,32.631z"/>
<ellipse fill="#014D87" cx="32" cy="36.975" rx="1.25" ry="0.572"/>
<path opacity="0.1" fill="#1A1626" d="M50.737,8.591c4.097,5.13,6.563,11.622,6.563,18.701c0,16.567-13.429,30.003-29.995,30.003
	c-7.1,0-13.609-2.479-18.744-6.594C14.055,57.58,22.503,62,32.004,62c16.565,0,29.994-13.432,29.994-30
	C61.998,22.527,57.596,14.09,50.737,8.591z"/>
<path opacity="0.3" fill-rule="evenodd" clip-rule="evenodd" fill="#FFFFFF" d="M9.734,19.015c0.549,3.865,7.768-3.7,15.08-10.202
	C29.531,4.63,8.084,7.385,9.734,19.015z"/>
</svg>
