<?xml version="1.0" encoding="utf-8"?>
<!-- Generator: Adobe Illustrator 15.0.0, SVG Export Plug-In . SVG Version: 6.00 Build 0)  -->
<!DOCTYPE svg PUBLIC "-//W3C//DTD SVG 1.1//EN" "http://www.w3.org/Graphics/SVG/1.1/DTD/svg11.dtd">
<svg version="1.1" id="Layer_1" xmlns="http://www.w3.org/2000/svg" xmlns:xlink="http://www.w3.org/1999/xlink" x="0px" y="0px"
	 width="64px" height="64px" viewBox="0 0 64 64" enable-background="new 0 0 64 64" xml:space="preserve">
<path fill="#F5F5F5" d="M55.229,13.014h-4.242V8.772c-11.018-9.029-26.955-9.029-37.974,0h0.002v4.242H8.772
	C-0.255,24.03-0.257,39.972,8.77,50.987h4.244v4.244h-0.002c11.019,9.025,26.958,9.025,37.974-0.002v-4.242h4.244
	C64.256,39.972,64.256,24.032,55.229,13.014z"/>
<path fill="#E81C27" d="M32,27.758L13.014,8.772c-0.769,0.627-1.513,1.299-2.229,2.014c-0.716,0.717-1.388,1.461-2.016,2.229
	L27.758,32L8.77,50.987c0.629,0.768,1.3,1.512,2.016,2.229c0.716,0.715,1.46,1.387,2.229,2.016L32,36.243l18.986,18.988
	c0.768-0.629,1.512-1.301,2.229-2.016c0.717-0.717,1.387-1.461,2.016-2.229L36.244,32L55.23,13.014
	c-0.629-0.768-1.299-1.512-2.016-2.229c-0.717-0.715-1.461-1.387-2.229-2.014L32,27.758z"/>
<path fill="#E81C27" d="M37.109,10.665c1.254,5.082,0.566,11.358-5.102,14.84c-5.67-3.481-6.357-9.758-5.102-14.84
	C28.242,9.45,34.314,8.701,37.109,10.665L37.109,10.665z"/>
<g>
	<path fill="#FFE12C" d="M36.945,13.182c-0.047-0.127-0.078-0.177-0.24-0.12c-0.396,0.138-1.482,0.06-1.828-0.179
		c0.52,0.215,1.184-0.239,1.184-0.615c0-0.418-0.516-0.76-1.555-0.532c-1.041,0.226-2.307,0.13-2.307-0.216
		c0-0.347,0.908-0.395,1.375-0.322c0.465,0.072,0.799,0.12,1.672-0.191c-0.215,0.083-0.908,0.107-1.457-0.048
		c-0.551-0.154-1.902-0.154-1.914,0.573c-0.012,0.729,1.439,0.662,2.691,0.478c0.729-0.107,1.111-0.035,1.111,0.204
		c0,0.227-0.67,0.322-1.184,0.263s-1.047-0.067-1.65,0.132c-1.088,0.361-2.342,0.096-2.67-0.427c0.023-0.053,0.039-0.12,0.041-0.226
		c0-0.003,0-0.005,0-0.009c0.076-0.079,0.15-0.231,0.182-0.343c0.074-0.261-0.027-0.269-0.326-0.149
		c-0.104-0.103-0.275-0.165-0.566-0.165c-0.289,0-0.463,0.063-0.566,0.166c-0.301-0.12-0.402-0.112-0.328,0.148
		c0.031,0.112,0.107,0.269,0.186,0.347c0,0.002,0,0.004,0,0.005c0.002,0.402,0.439,0.994,0.432,1.017
		c-0.57-0.052-1.32-1.13-1.455-1.569c-0.061-0.199-0.293-0.324-0.422-0.277c-0.113,0.042-0.154,0.14-0.059,0.213
		c0.098,0.073,0.223,0.084,0.248,0.271c-0.125-0.152-0.314-0.207-0.404-0.113c-0.057,0.059-0.033,0.191,0.086,0.204
		c0.172,0.018,0.082,0.17,0.213,0.333c-0.168-0.159-0.314-0.165-0.408-0.059c-0.063,0.072,0,0.198,0.135,0.185
		c0.193-0.02,0.811,0.896,2.318,1.734c-0.023,0.116-0.266,0.094-0.453,0.102c-0.354,0.016-0.824-0.038-1.07-0.316
		c-0.219-0.248-0.508-0.446-0.74-0.262c-0.119,0.094-0.006,0.218,0.09,0.184c0.094-0.035,0.203,0.034,0.303,0.078
		c-0.158-0.068-0.334-0.016-0.402,0.047c-0.094,0.083,0.02,0.246,0.135,0.188c0.088-0.044,0.271-0.074,0.393,0.035
		c-0.131-0.025-0.264-0.02-0.328,0.05s-0.016,0.171,0.123,0.163c0.225-0.009,1.83,1.012,3.139-0.166
		c0.191,0.007,1.523-0.043,2.041-0.36c0.342,0.394,0.396,0.35,0.699,0.408c0.311,0.06,0.5,0.06,0.293,0.233
		c-0.072,0.061-0.371,0.031-0.604,0.042c-0.521,0.022-0.76-0.361-0.914-0.162c-0.117,0.15-0.016,0.224,0.201,0.229
		c-0.168,0-0.352,0.009-0.314,0.157c0.068,0.281,0.336-0.053,0.441,0.063c-0.09-0.021-0.229,0.035-0.234,0.118
		c-0.004,0.086,0.199,0.195,0.424,0.017c0.121-0.098,0.273-0.135,0.371-0.135c0.369,0.002,1.193,0.189,1.465-0.113
		c0.105-0.117-0.029-0.215-0.137-0.322c-0.104-0.104-0.129-0.247-0.109-0.484c0.309,0.055,0.705,0.065,1.264-0.036
		c0.664-0.121,0.871,0.102,0.871,0.406c0,0.21-0.121,0.228-0.215,0.234c-0.369,0.021-0.527-0.14-0.674-0.087
		c-0.098,0.033-0.158,0.193-0.016,0.248c-0.117,0.061-0.102,0.171-0.043,0.213c0.061,0.041,0.215,0.003,0.318-0.045
		c-0.135,0.061-0.273,0.169-0.193,0.285c0.047,0.068,0.17,0.127,0.283-0.021s0.326-0.24,0.455-0.253
		C36.895,14.574,37.145,13.738,36.945,13.182z"/>
</g>
<g>
	<polygon fill="#FFE12C" points="29.504,11.29 29.504,11.29 29.504,11.29 	"/>
</g>
<g>
	<path fill="#FFE12C" d="M36.676,17.6c-0.045-0.12-0.072-0.168-0.227-0.113c-0.375,0.13-1.402,0.057-1.73-0.17
		c0.492,0.204,1.119-0.227,1.119-0.581c0-0.396-0.486-0.718-1.469-0.504c-0.982,0.216-2.182,0.124-2.182-0.204
		c0-0.327,0.859-0.371,1.301-0.304c0.439,0.067,0.756,0.111,1.582-0.182c-0.203,0.08-0.859,0.102-1.379-0.045
		c-0.52-0.147-1.797-0.147-1.809,0.542c-0.012,0.69,1.359,0.627,2.543,0.453c0.689-0.103,1.051-0.035,1.051,0.191
		c0,0.215-0.633,0.305-1.119,0.249c-0.484-0.058-0.988-0.064-1.559,0.125c-1.029,0.34-2.215,0.089-2.525-0.405
		c0.023-0.05,0.039-0.112,0.039-0.211c0-0.004,0-0.006,0-0.01c0.072-0.074,0.143-0.22,0.172-0.324
		c0.07-0.246-0.025-0.254-0.309-0.142c-0.098-0.097-0.26-0.157-0.533-0.157c-0.275,0-0.439,0.061-0.537,0.159
		c-0.285-0.114-0.381-0.106-0.311,0.14c0.031,0.105,0.102,0.254,0.176,0.328c0,0.002,0,0.002,0,0.006
		c0.002,0.377,0.416,0.938,0.408,0.96c-0.539-0.051-1.248-1.068-1.375-1.485c-0.057-0.188-0.277-0.306-0.4-0.26
		c-0.105,0.039-0.146,0.131-0.055,0.2s0.209,0.079,0.234,0.255c-0.119-0.144-0.297-0.195-0.383-0.104
		c-0.053,0.054-0.031,0.18,0.082,0.191c0.162,0.017,0.076,0.161,0.201,0.315c-0.16-0.152-0.297-0.158-0.385-0.057
		c-0.061,0.067,0,0.188,0.127,0.175c0.182-0.019,0.766,0.847,2.189,1.641c-0.02,0.109-0.25,0.087-0.428,0.095
		c-0.332,0.017-0.779-0.035-1.012-0.298c-0.205-0.235-0.48-0.423-0.699-0.249c-0.113,0.09-0.006,0.207,0.084,0.174
		s0.193,0.033,0.287,0.075c-0.15-0.066-0.316-0.016-0.381,0.041c-0.088,0.081,0.02,0.234,0.127,0.181
		c0.086-0.044,0.258-0.07,0.371,0.032c-0.121-0.023-0.248-0.02-0.311,0.046c-0.061,0.067-0.014,0.161,0.117,0.155
		c0.213-0.009,1.73,0.956,2.969-0.157c0.182,0.008,1.439-0.041,1.928-0.34c0.324,0.371,0.377,0.331,0.662,0.385
		c0.293,0.057,0.473,0.057,0.275,0.222c-0.066,0.056-0.35,0.03-0.57,0.039c-0.492,0.021-0.717-0.341-0.863-0.153
		c-0.109,0.143-0.014,0.211,0.189,0.217c-0.156,0-0.33,0.009-0.297,0.148c0.064,0.265,0.318-0.05,0.418,0.059
		c-0.086-0.02-0.217,0.032-0.221,0.113c-0.006,0.08,0.188,0.183,0.398,0.015c0.117-0.093,0.26-0.128,0.354-0.128
		c0.346,0.002,1.127,0.179,1.383-0.107c0.102-0.11-0.027-0.202-0.129-0.304c-0.098-0.1-0.123-0.235-0.104-0.457
		c0.291,0.051,0.668,0.061,1.193-0.035c0.629-0.115,0.826,0.096,0.826,0.384c0,0.197-0.117,0.215-0.205,0.221
		c-0.348,0.021-0.498-0.131-0.637-0.082c-0.092,0.032-0.148,0.184-0.014,0.234c-0.111,0.058-0.096,0.162-0.041,0.201
		c0.057,0.039,0.203,0.004,0.301-0.042c-0.127,0.057-0.258,0.161-0.184,0.27c0.045,0.064,0.16,0.12,0.27-0.02
		c0.107-0.141,0.307-0.228,0.43-0.239C36.627,18.916,36.865,18.125,36.676,17.6z"/>
</g>
<g>
	<polygon fill="#FFE12C" points="29.643,15.809 29.643,15.809 29.643,15.809 	"/>
</g>
<g>
	<path fill="#FFE12C" d="M35.432,21.419c-0.031-0.087-0.053-0.122-0.166-0.083c-0.275,0.096-1.027,0.042-1.268-0.124
		c0.359,0.149,0.82-0.167,0.82-0.428c0-0.29-0.357-0.525-1.078-0.368s-1.6,0.091-1.6-0.15c0-0.239,0.629-0.272,0.953-0.224
		c0.324,0.05,0.555,0.083,1.16-0.133c-0.148,0.059-0.631,0.075-1.012-0.033s-1.318-0.108-1.326,0.398
		c-0.008,0.505,0.998,0.461,1.865,0.331c0.506-0.074,0.771-0.023,0.771,0.142c0,0.157-0.465,0.226-0.82,0.183
		c-0.357-0.042-0.727-0.048-1.145,0.092c-0.756,0.25-1.625,0.066-1.852-0.297c0.016-0.036,0.027-0.082,0.027-0.156
		c0-0.002,0-0.004,0-0.006c0.053-0.056,0.105-0.162,0.127-0.238c0.051-0.18-0.02-0.186-0.227-0.104
		c-0.072-0.072-0.191-0.115-0.393-0.115s-0.322,0.043-0.393,0.115c-0.209-0.082-0.279-0.078-0.229,0.104
		c0.023,0.078,0.074,0.186,0.129,0.24c0,0.001,0,0.002,0,0.004c0.002,0.278,0.305,0.689,0.299,0.705
		c-0.395-0.037-0.916-0.783-1.008-1.088c-0.043-0.139-0.205-0.226-0.293-0.192c-0.078,0.028-0.107,0.097-0.041,0.146
		c0.068,0.052,0.154,0.059,0.172,0.188c-0.088-0.104-0.219-0.142-0.281-0.078c-0.037,0.041-0.023,0.134,0.061,0.143
		c0.119,0.012,0.057,0.117,0.148,0.229c-0.117-0.109-0.219-0.114-0.283-0.04c-0.043,0.049,0,0.138,0.094,0.129
		c0.133-0.014,0.563,0.62,1.607,1.203c-0.016,0.08-0.186,0.063-0.316,0.069c-0.242,0.012-0.57-0.026-0.742-0.22
		c-0.15-0.172-0.352-0.309-0.512-0.183c-0.082,0.066-0.004,0.152,0.063,0.129c0.064-0.023,0.141,0.023,0.211,0.054
		c-0.111-0.048-0.232-0.011-0.281,0.032c-0.064,0.059,0.014,0.17,0.094,0.13c0.063-0.029,0.189-0.051,0.271,0.025
		c-0.088-0.018-0.182-0.014-0.227,0.034s-0.01,0.117,0.086,0.113c0.154-0.007,1.27,0.701,2.178-0.114
		c0.133,0.005,1.055-0.031,1.414-0.251c0.238,0.271,0.275,0.243,0.486,0.284c0.215,0.04,0.348,0.04,0.203,0.159
		c-0.051,0.043-0.258,0.023-0.42,0.031c-0.361,0.015-0.527-0.251-0.633-0.112c-0.082,0.104-0.012,0.153,0.139,0.157
		c-0.115,0.002-0.242,0.007-0.219,0.109c0.049,0.195,0.234-0.036,0.307,0.045c-0.063-0.016-0.158,0.022-0.162,0.081
		c-0.004,0.06,0.139,0.135,0.293,0.012c0.086-0.067,0.191-0.095,0.26-0.093c0.254,0,0.826,0.131,1.016-0.08
		c0.072-0.08-0.021-0.15-0.096-0.223c-0.072-0.072-0.09-0.172-0.076-0.336c0.215,0.038,0.49,0.045,0.875-0.025
		c0.461-0.084,0.605,0.07,0.605,0.281c0,0.146-0.084,0.158-0.148,0.162c-0.256,0.017-0.365-0.096-0.467-0.06
		c-0.068,0.023-0.109,0.135-0.012,0.172c-0.082,0.042-0.07,0.119-0.029,0.147s0.148,0.003,0.221-0.03
		c-0.094,0.042-0.189,0.117-0.135,0.196c0.033,0.048,0.117,0.09,0.197-0.014c0.078-0.104,0.227-0.166,0.316-0.176
		C35.398,22.384,35.572,21.804,35.432,21.419z"/>
</g>
<g>
	<polygon fill="#FFE12C" points="30.271,20.106 30.271,20.106 30.271,20.106 	"/>
</g>
<path fill="#FFE12C" d="M32,9.645c2.078,0,4.014,0.55,5.154,1.264c0.225-1.754,1.02-3.506,1.955-4.829
	c-0.977-0.021-1.416,0.499-1.426,1.038c-0.244-0.692-1.201-0.651-1.498-0.275c1.07,0.725,0.246,2.007-0.723,1.743
	c-0.455-0.124-0.693-0.442-0.779-0.902c0.289-0.018,0.51-0.269,0.49-0.558c-0.018-0.291-0.268-0.509-0.557-0.491
	s-0.51,0.268-0.492,0.557c0.014,0.206,0.143,0.383,0.334,0.458c-0.307,0.499-0.854,0.649-1.246,0.539
	c-0.51-0.144-0.725-0.601-0.725-1.008c0-1.06,1.02-1.224,1.324-1.041c-0.02-0.712-1.141-1.282-1.486-0.692
	C32.713,4.754,32.693,3.778,32,3.125c-0.693,0.652-0.713,1.629-0.326,2.321c-0.346-0.59-1.467-0.02-1.488,0.692
	c0.307-0.183,1.326-0.019,1.326,1.041c0,0.407-0.215,0.864-0.725,1.008c-0.393,0.11-0.941-0.04-1.246-0.539
	c0.27-0.105,0.404-0.41,0.299-0.681c-0.105-0.271-0.412-0.404-0.682-0.3c-0.271,0.106-0.404,0.411-0.299,0.682
	c0.074,0.191,0.252,0.321,0.457,0.333c-0.086,0.46-0.326,0.778-0.781,0.902c-0.967,0.264-1.793-1.019-0.723-1.743
	c-0.295-0.376-1.252-0.417-1.498,0.275c-0.01-0.539-0.447-1.06-1.426-1.038c0.938,1.323,1.732,3.075,1.955,4.829
	C27.986,10.195,29.922,9.645,32,9.645L32,9.645z"/>
<path opacity="0.05" fill="#1A1626" d="M50.736,8.59c4.096,5.13,6.563,11.622,6.563,18.701c0,16.569-13.428,30.003-29.994,30.003
	c-7.101,0-13.61-2.478-18.745-6.594C14.054,57.58,22.502,62,32.002,62c16.566,0,29.996-13.432,29.996-30
	C61.998,22.527,57.594,14.089,50.736,8.59z"/>
<path opacity="0.5" fill-rule="evenodd" clip-rule="evenodd" fill="#FFFFFF" d="M9.735,19.014c0.549,3.865,7.766-3.7,15.08-10.202
	C29.531,4.629,8.083,7.384,9.735,19.014z"/>
</svg>
