<?xml version="1.0" encoding="utf-8"?>
<!-- Generator: Adobe Illustrator 15.0.0, SVG Export Plug-In . SVG Version: 6.00 Build 0)  -->
<!DOCTYPE svg PUBLIC "-//W3C//DTD SVG 1.1//EN" "http://www.w3.org/Graphics/SVG/1.1/DTD/svg11.dtd">
<svg version="1.1" id="Layer_1" xmlns="http://www.w3.org/2000/svg" xmlns:xlink="http://www.w3.org/1999/xlink" x="0px" y="0px"
	 width="64px" height="64px" viewBox="0 0 64 64" enable-background="new 0 0 64 64" xml:space="preserve">
<path fill="#FFE12C" d="M17.002,6.023C2.656,14.307-2.26,32.652,6.023,46.998l51.953-29.994C49.693,2.656,31.348-2.26,17.002,6.023z
	"/>
<path fill="#E81C27" d="M46.998,57.977C61.344,49.693,66.26,31.35,57.977,17.004L6.023,46.998
	C14.307,61.344,32.65,66.26,46.998,57.977z"/>
<path fill="#F5F5F5" d="M57.652,18.391c0,0-1.539-0.137-2.316-0.133c-0.805,0.006-1.539,0.496-2.359,0.574
	c0.555-0.252,0.867-0.83,1.434-1.061c0.523-0.215,1.279-0.26,1.391-0.955c-0.521,0.396-1.189,0.256-1.787,0.232
	c-0.602-0.021-0.955,0.506-1.389,0.822c0.182-0.881,0.689-1.5,0.762-2.42c0.063-0.818,1.381-1.424,1.043-2.262
	c-0.094,0.756-1.125,0.928-1.359,1.646c-0.307,0.939-1.08,1.619-1.191,2.6c-0.135,1.182-0.967,0.637-1.768,0.895
	c-0.234,0.074-1.131-1.049-2.418-0.998c-2.047,0.084-2.805,0.068-5.357-2.469c-0.588-0.584-2.744-0.824-3.506-0.305
	c0.754-0.039,1.504,0.199,2.127,0.619c-0.439,0.328-0.977-0.375-1.469-0.086c0.852,0.045,1.084,0.354,0.99,1.078
	c-0.736-0.541-1.852-1.232-2.787-0.762c-0.563,0.281-1.699-0.135-1.975,0.654c0.783-0.381,1.633-0.059,2.373,0.244
	c-0.428,0.145-1.377,0.078-1.697,0.484c0.383-0.115,0.764-0.115,1.146-0.002c-0.125,0.285-0.168,0.582-0.131,0.891
	c-1.07-0.434-2.613-0.994-3.641-0.168c-1.082,0.869,0.611,1.934,0.852,1.309c-0.725,0.305-1.047-0.859-0.025-0.938
	c1.359-0.102,2.705,0.48,3.895,1.07c-0.627,0.172-2.523,0.025-2.781-0.762c-0.096,0.307-0.078,0.682,0.219,0.879
	c-0.916,0.031-1.676,0.861-2.469,0.834c-0.738-0.023-2.057-0.037-2.238,0.92c1.1-0.986,2.627-0.205,3.91-0.412
	c-0.34,0.637-0.496,1.332-0.68,1.953c-0.271,0.916-1.248,1.287-1.707,2.238c0.412-0.412,0.941-0.711,1.518-0.824
	c-0.348,0.656-1.088,1.791-0.707,2.525c0.188-1.107,0.926-0.85,1.672-1.248c-0.227,0.547,0.248,1.385,0.902,1.201
	c-0.33,0.48-0.008,1.242,0.557,1.363c-0.434,0.539-1.385,0.168-1.646,0.738c0.709-0.307,1.326,0.754,2.182,0.453
	c-0.1,0.355-0.029,0.674,0.207,0.957c-0.531-0.129-1.418,0.275-1.703-0.41c-0.313,0.75,1.086,0.598,0.893,1.23
	c-0.27-0.033-0.688-0.781-0.895-0.213c-0.146-0.049-0.262-0.619-0.588-0.74c-0.355-0.131-0.893,0.174-1.076,0.104
	c0.412-0.553-0.727-1.018-1.096-0.641c0.141-0.889-1.551-1.488-1.59-2.162c-0.25,0.484,0.275,0.9,0.205,1.389
	c-0.17-0.191-0.383-0.271-0.637-0.238c-0.613,0.113-0.184-0.105-0.791-0.189c-0.574-0.08-0.273,0.297-0.76-0.014
	c-0.256-0.162-0.658-0.133-0.842,0.131c-0.301-1.023-1.611-0.465-1.932-1.281c-0.131,0.465,0.598,1.008,0.682,1.504
	c-0.592-0.5-1.662,0.098-1.363,0.881c-0.244,0.139-1.621-0.439-1.275,0.697c-0.43-0.354-2.658-0.1-2.686,0.635
	c0.361-0.275,1.16-0.127,1.518,0.08c-0.332,0.232-0.441,0.934-0.188,1.242c-1.133-0.137-0.564,1.436-1.08,1.703
	c-0.746,0.387-1.354,1.395-2.316,1.121c0.479,0.764,1.477,0.027,2.133,0.096c-0.73,0.5-0.133,1.342-0.564,1.811
	c-0.422,0.457-0.898,1.711-1.822,1.418c0.15,0.363,0.617,0.451,0.951,0.51c-0.293,0.182-0.561,0.563-0.963,0.428
	c0.033,0.268,0.162,0.477,0.385,0.629c-0.477-0.045-0.941,0.236-1.414,0.057c0.002,0.246,0.072,0.473,0.209,0.676
	c-0.578-0.199-1.844-0.547-2.205,0.193c0.295-0.023,0.75,0.018,0.867,0.361c-0.432-0.27-0.936-0.109-1.396-0.055
	c-0.697,0.082-1.145-0.322-1.77-0.516c-0.484-0.15-2.844-0.643-2.883,0.176c0.518-0.416,1.58,0.379,2.205,0.332
	c0.885-0.064,1.563,0.609,2.395,0.768c-1.199-0.121-1.898,0.471-2.994,0.6c-0.469,0.055-1.635-0.094-1.707,0.609
	c0.545-0.295,1.129,0.066,1.693-0.082c0.48-0.127,0.977-0.547,1.502-0.297c-0.326,0.393-0.793,0.623-1.287,0.717
	c-0.764,0.141-1.117,0.428-1.781,0.773c-0.543,0.283-1.211,0.168-1.701,0.578c-0.412,0.348-0.801,0.777-1.369,0.848
	c0.703,0.449,1.373-0.271,1.979-0.533c0.781-0.338,1.586-0.18,2.334-0.684c-0.426,1.008-1.777,0.84-2.559,1.383
	c-0.969,0.674-1.666,1.813-2.92,1.99c0.512,0.58,1.559-0.16,2.047-0.418c0.875-0.459,2.021-0.295,2.783-0.951
	c0.764-0.656,1.66-0.83,2.387-1.504c0.213-0.199,2.025-1.414,2.168-1.363c-0.738,0.332-0.818,1.412-1.674,1.572
	c0.711,0.281,2.232-0.934,3.004-1.168c-0.447,0.633-1.668,0.857-1.836,1.625c0.691-0.559,1.688-0.363,2.328-0.916
	c0.602-0.518,1.756-1.299,2.182-1.951c0.408-0.629,0.771-0.939,1.402-1.348c0.318-0.205,0.619-0.506,1.014-0.563
	c0.406-0.057,0.846,0.178,1.236-0.025c0.133,1.754-0.645,0.332-1.236,1.129c-0.092,0.125,0.65,0.342,0.682,0.51
	c0.006,0.029-1.133,0.988-1.217,0.996c0.326,0.396,1.023,0.08,1.27-0.242c-0.059,0.328,0.326,0.555,0.178,0.889
	c0.207,0.021,0.695-1.146,0.887-0.887c-0.547,0.24,0.359,0.523,0.375,0.549c-0.303,0.18,0,0.473,0.234,0.414
	c-0.328,0.111-0.043,0.559-0.15,0.814c-0.217,0.514-0.623,0.359-1.08,0.783c-0.402,0.373-0.465,0.906-0.375,1.422
	c0.066,0.379,0.422,1.713,0.6,0.852c-0.381,1.855,2.049,3.129,3.355,1.764c0.678-0.707,1.533-3.645,0.34-4.176
	c0.236,0.07,0.453,0.029,0.646-0.127c0.09,0.172,0.227,0.285,0.414,0.338c0.725,0.217,0.934,1.115,0.842,1.754
	c0.494-0.643,0.445-2.068-0.057-2.713c-0.168-0.215-0.922-0.533-1.188-0.574c-0.27-0.045-0.48,0.045-0.633,0.27
	c-0.215-0.197-0.467-0.273-0.756-0.229c0.08-0.402-0.439-1.396-0.811-1.615c-0.813-0.479-0.262-1.797-0.119-2.479
	c0.336,0.229,1.162,0.531,1.559,0.701c0.361,0.156,2.6,0.725,1.65,0.277c1.957,0.783,3.225-2.354,1.275-3.15
	c0.816,0.123,0.129-0.732-0.334-0.881c-0.625-0.203-1.797,0.125-2.322,0.475c0.102-0.08,0.332-0.779,0.447-0.922
	c0.27-0.324,0.648-0.568,1.135-0.447c-1.885-2.465-2.551,2.068-3.371,1.705c-0.57-0.254-0.678-2.051-0.354-2.447
	c0.188-0.23-0.031-0.547,0.133-0.76c0.23-0.301,0.635-0.564,0.824-0.873c0.709-1.158,3.555-0.598,4.92-0.004
	c1.695,0.74,3.979,1.041,5.84,1.154c-0.191,0.375,0.063,0.615-0.029,0.9c-0.164-0.104-1.777-0.148-1.861-0.02
	c0.447,0.018,0.811,0.484,1.307,0.533c-0.768,0.053-0.877,1.221-1.535,1.166c0.367,0.35,2.676-1.143,1.674,0.621
	c0.447-0.01,0.641-0.506,0.734-0.855c0.369,0.217,2.791,2.24,3.287,1.416c-0.018,0.451,0.703,0.51,1.002,0.506
	c0.508-0.008,1.441,0.4,1.838,0.279c-1.543,1.051,2.604,4.645,2.613,3.248c0.006-0.922,1.348,0.803,2.551-0.426
	c1.32-1.346,0.232-3.77-1.646-3.689c0.521-0.148,1.604-0.16,1.76,0.689c0.908-1.467-1.457-2.293-2.502-1.902
	c0.602-0.342,0.158-0.623,0.717-0.859c0.393-0.168,0.66-0.646,1.15-0.51c-0.582-0.68-3.039-0.453-2.791,0.736
	c-0.293-0.098-0.533-0.025-0.721,0.219c0.012,0.391-0.18,0.541-0.576,0.451c-0.18,0.418-0.387,0.455-0.621,0.113
	c-0.387-0.211-0.635-0.135-1.016-0.371c-0.279-0.176-0.982-0.236-1.314-0.176c-0.518,0.094-0.674-0.648-1.258-0.439
	c-0.09-0.965,0.652-1.643,1.098-2.408c0.523-0.898,1.033-1.818,1.17-2.867c0.119-0.922-0.238-1.695,0.959-1.848
	c0.947-0.121,1.064,1.045,0.213,1.301c0.426,0.268,0.92-0.105,1.129-0.457c-0.285,0.629-0.326,1.717,0.52,1.928
	c-0.24-0.488,0.424-0.895,0.166-1.369c0.412,0.174,0.789,0.635,0.771,1.104c0.516-0.574-0.24-1.227-0.25-1.828
	c0.91,0.068,1.498-0.244,2.219-0.752c0.754-0.533,0.867-0.459,1.51,0.008c1.113,0.809,3.502,0.615,4.189-0.711
	c0.342-0.662,0.986-0.691,0.398-1.525c-0.4-0.568-0.934-1.119-1.182-1.711c-0.803-1.9-3.336,0.23-3.646,0.777
	c-0.441,0.627-0.145,0.682-0.883,0.617c-1.049-0.088-1.922,0.604-3.029,0.414c-0.967-0.164-1.664-0.727-2.514-1.154
	c-1.115-0.563-1.74-0.633-2.473-1.715c0.645,0.131,1.307,0.242,1.834,0.674c0.436,0.355,0.85,0.969,1.506,0.793
	c-0.715-0.195-1.383-1.258-2.074-1.66c0.709-0.91,2.244-0.637,3.256-0.619c0.891,0.014,1.316,1.021,1.99,1.441
	c-0.395,0.184-0.473,0.789-0.965,0.813c0.441,0.236,0.938,0.076,1.277-0.25c-0.135,0.387,0.01,0.842,0.424,0.984
	c-0.277-0.379,0.189-0.674,0.367-0.936c0.131,0.27,0.545,0.484,0.379,0.848c0.953-0.217,0.326-2.611-0.426-2.814
	c1.268-1.127,1.576,0.945,1.227,1.775c0.498-0.363,0.496-1.029,0.504-1.578c0.98,0.328,5.783-1.1,5.637,0.805
	c0.68-0.807-0.631-1.373-1.234-1.477c-0.467-0.08-0.752-1.523-1.547-0.908c0.828-0.113,0.42,0.984-0.051,1.166
	c0.182-0.664-0.547-1.225-1.158-0.963c1.668,0.484-0.939,1.838-0.715,0.857c0.133-0.576,0.578-0.992,0.467-1.637
	c-0.053-0.301-0.291-0.662-0.264-0.873c0.387,0.125,0.404-0.24,0.113-0.373c0.279,0.105,0.58-0.201,0.895-0.246
	c0.721-0.109,1.314-0.418,1.955-0.734C55.205,18.764,57.652,18.391,57.652,18.391L57.652,18.391L57.652,18.391L57.652,18.391z
	 M46.424,21.697c0.326-0.691,1.947-1.426,1.412-0.176c0.219-0.131,0.512-0.762,0.848-0.627c0.391,0.156,0.553,0.57,0.115,0.818
	c0.393,0,0.766-0.268,1.164-0.154c-0.236,0.246-0.236,0.619-0.545,0.813C48.844,22.732,47.344,21.814,46.424,21.697z M48.195,23.258
	c-0.438-0.193-1.154-0.641-1.479-0.996c0.639,0.166,1.275,0.338,1.898,0.553C48.57,22.85,48.301,23.096,48.195,23.258z"/>
<path opacity="0.1" fill="#1A1626" d="M50.736,8.592c4.098,5.129,6.563,11.621,6.563,18.701c0,16.568-13.428,30.002-29.994,30.002
	c-7.102,0-13.609-2.477-18.744-6.594C14.055,57.58,22.502,62,32.002,62c16.566,0,29.996-13.432,29.996-30
	C61.998,22.527,57.596,14.09,50.736,8.592z"/>
<path opacity="0.3" fill-rule="evenodd" clip-rule="evenodd" fill="#FFFFFF" d="M9.734,19.016c0.549,3.865,7.766-3.701,15.08-10.203
	C29.531,4.631,8.082,7.385,9.734,19.016z"/>
</svg>
