<?xml version="1.0" encoding="utf-8"?>
<!-- Generator: Adobe Illustrator 15.0.0, SVG Export Plug-In . SVG Version: 6.00 Build 0)  -->
<!DOCTYPE svg PUBLIC "-//W3C//DTD SVG 1.1//EN" "http://www.w3.org/Graphics/SVG/1.1/DTD/svg11.dtd">
<svg version="1.1" id="Layer_1" xmlns="http://www.w3.org/2000/svg" xmlns:xlink="http://www.w3.org/1999/xlink" x="0px" y="0px"
	 width="64px" height="64px" viewBox="0 0 64 64" enable-background="new 0 0 64 64" xml:space="preserve">
<path fill="#E81C27" d="M22,60.286V3.714C10.35,7.833,2,18.938,2,31.999C2,45.062,10.35,56.167,22,60.286z"/>
<path fill="#FFE12C" d="M22,31.999h40c0-16.568-13.432-30-30-30c-3.508,0-6.871,0.607-10,1.715V31.999z"/>
<path fill="#529320" d="M22,31.999v28.287c3.129,1.107,6.492,1.715,10,1.715c16.568,0,30-13.432,30-30.002H22z"/>
<polygon fill="#302C3B" points="13,35.716 17.322,39.001 15.693,33.659 20,30.249 14.662,30.249 13,24.999 11.385,30.249 6,30.249 
	10.307,33.659 8.676,39.001 "/>
<path opacity="0.1" fill="#1A1626" d="M50.736,8.591c4.098,5.129,6.563,11.621,6.563,18.701c0,16.568-13.428,30.004-29.994,30.004
	c-7.1,0-13.609-2.479-18.744-6.594c5.494,6.879,13.941,11.299,23.443,11.299c16.564,0,29.994-13.432,29.994-30.002
	C61.998,22.526,57.596,14.089,50.736,8.591z"/>
<path opacity="0.3" fill-rule="evenodd" clip-rule="evenodd" fill="#FFFFFF" d="M9.734,19.015c0.549,3.865,7.768-3.701,15.08-10.203
	C29.531,4.63,8.084,7.384,9.734,19.015z"/>
</svg>
