<?xml version="1.0" encoding="utf-8"?>
<!-- Generator: Adobe Illustrator 15.0.0, SVG Export Plug-In . SVG Version: 6.00 Build 0)  -->
<!DOCTYPE svg PUBLIC "-//W3C//DTD SVG 1.1//EN" "http://www.w3.org/Graphics/SVG/1.1/DTD/svg11.dtd">
<svg version="1.1" id="Layer_1" xmlns="http://www.w3.org/2000/svg" xmlns:xlink="http://www.w3.org/1999/xlink" x="0px" y="0px"
	 width="64px" height="64px" viewBox="0 0 64 64" enable-background="new 0 0 64 64" xml:space="preserve">
<g>
	<path fill="#F5F5F5" d="M52.387,10C47.035,5.037,39.873,2,32,2c-7.875,0-15.035,3.037-20.389,8H52.387z"/>
</g>
<g>
	<path fill="#F5F5F5" d="M11.612,54c5.354,4.961,12.514,8,20.389,8c7.873,0,15.035-3.039,20.386-8H11.612z"/>
</g>
<path fill="#F5F5F5" d="M2,32c0,4.268,0.896,8.324,2.504,12h54.992C61.104,40.324,62,36.268,62,32s-0.896-8.324-2.504-12H4.504
	C2.897,23.676,2,27.732,2,32z"/>
<path fill="#014D87" d="M11.627,54h40.744c3.014-2.793,5.461-6.186,7.129-10h-55C6.168,47.814,8.616,51.207,11.627,54z"/>
<path fill="#014D87" d="M52.371,10H11.627C8.616,12.791,6.168,16.184,4.5,20h55C57.832,16.184,55.385,12.791,52.371,10z"/>
<path fill="#014D87" d="M41,27h-6l-3.001-5l-3,5H23l0,0l0,0l3,5l-3,5h5.998l3,5L35,37h6l-3.002-5L41,27L41,27z M31.999,24.929
	L33.242,27h-2.486L31.999,24.929z M25.637,28.464h2.482l-1.24,2.071L25.637,28.464z M25.637,35.535l1.242-2.071l1.24,2.071H25.637z
	 M31.999,39.07L30.756,37h2.486L31.999,39.07z M34.121,35.535h-4.242L27.756,32l2.123-3.536h4.242L36.24,32L34.121,35.535z
	 M38.363,35.535h-2.484l1.24-2.071L38.363,35.535z M37.119,30.535l-1.24-2.071h2.484L37.119,30.535z"/>
<path opacity="0.1" fill="#1A1626" d="M50.736,8.591c4.098,5.13,6.563,11.622,6.563,18.701c0,16.567-13.428,30.003-29.994,30.003
	c-7.1,0-13.609-2.479-18.744-6.594C14.055,57.58,22.502,62,32.004,62c16.564,0,29.994-13.432,29.994-30
	C61.998,22.527,57.596,14.09,50.736,8.591z"/>
<path opacity="0.3" fill-rule="evenodd" clip-rule="evenodd" fill="#FFFFFF" d="M9.735,19.015c0.549,3.865,7.768-3.7,15.08-10.202
	C29.532,4.63,8.084,7.385,9.735,19.015z"/>
</svg>
