<?xml version="1.0" encoding="utf-8"?>
<!-- Generator: Adobe Illustrator 15.0.0, SVG Export Plug-In . SVG Version: 6.00 Build 0)  -->
<!DOCTYPE svg PUBLIC "-//W3C//DTD SVG 1.1//EN" "http://www.w3.org/Graphics/SVG/1.1/DTD/svg11.dtd">
<svg version="1.1" id="Layer_1" xmlns="http://www.w3.org/2000/svg" xmlns:xlink="http://www.w3.org/1999/xlink" x="0px" y="0px"
	 width="64px" height="64px" viewBox="0 0 64 64" enable-background="new 0 0 64 64" xml:space="preserve">
<path fill="#E81C27" d="M2,32c0,13.061,8.35,24.167,20,28.286V3.714C10.35,7.833,2,18.939,2,32z"/>
<path fill="#529320" d="M32,2c-3.51,0-6.87,0.62-10,1.729V22h38.286C56.167,10.35,45.062,2,32,2z"/>
<path fill="#F5F5F5" d="M60.286,22H22v20h38.286C61.392,38.871,62,35.508,62,32S61.392,25.129,60.286,22z"/>
<path fill="#302C3B" d="M22,42v18.271C25.13,61.38,28.49,62,32,62c13.062,0,24.167-8.35,28.286-20H22z"/>
<path opacity="0.1" fill="#1A1626" d="M50.737,8.591c4.096,5.13,6.563,11.622,6.563,18.701c0,16.568-13.43,30.003-29.995,30.003
	c-7.101,0-13.61-2.478-18.745-6.594C14.054,57.58,22.502,62,32.003,62c16.566,0,29.994-13.432,29.994-30
	C61.997,22.527,57.595,14.09,50.737,8.591z"/>
<path opacity="0.3" fill-rule="evenodd" clip-rule="evenodd" fill="#FFFFFF" d="M9.734,19.015c0.549,3.865,7.767-3.7,15.08-10.202
	C29.531,4.63,8.083,7.385,9.734,19.015z"/>
</svg>
