<?xml version="1.0" encoding="utf-8"?>
<!-- Generator: Adobe Illustrator 15.0.0, SVG Export Plug-In . SVG Version: 6.00 Build 0)  -->
<!DOCTYPE svg PUBLIC "-//W3C//DTD SVG 1.1//EN" "http://www.w3.org/Graphics/SVG/1.1/DTD/svg11.dtd">
<svg version="1.1" id="Layer_1" xmlns="http://www.w3.org/2000/svg" xmlns:xlink="http://www.w3.org/1999/xlink" x="0px" y="0px"
	 width="64px" height="64px" viewBox="0 0 64 64" enable-background="new 0 0 64 64" xml:space="preserve">
<path fill="#F5F5F5" d="M48,6.629C43.369,3.701,37.885,2,32,2S20.632,3.701,16,6.629v50.744C20.632,60.301,26.115,62,32,62
	s11.369-1.699,16-4.627V6.629z"/>
<path fill="#E81C27" d="M48,6.629v50.744C56.41,52.137,62,42.527,62,32S56.41,11.865,48,6.629z"/>
<path fill="#E81C27" d="M16,6.629C7.59,11.865,2,21.473,2,32s5.59,20.137,14,25.373V6.629z"/>
<path fill="#E81C27" d="M42.914,31.555c-0.432-0.188-0.453-0.574-0.408-0.836l1.031-3.628l-3.475,0.722
	c-0.119,0.016-0.451-0.01-0.623-0.69l-0.307-1.235l-2.41,2.764c0,0-1.559,1.691-1.07-0.891l1.047-5.517l-1.936,0.96
	c-0.109,0.043-0.49,0.098-0.996-0.858L32,19l-1.766,3.345c-0.506,0.956-0.887,0.901-0.998,0.858l-1.934-0.96l1.045,5.517
	c0.49,2.582-1.07,0.891-1.07,0.891l-2.409-2.764l-0.307,1.235c-0.172,0.681-0.502,0.706-0.624,0.69l-3.474-0.722l1.03,3.628
	c0.045,0.262,0.024,0.648-0.407,0.836L20,32.031c0,0,3.985,3.182,5.291,4.268c0.255,0.209,0.87,0.824,0.658,1.484l-0.466,1.443
	l5.454-0.828c0.281-0.023,0.879,0.025,0.84,0.908L31.523,45h0.953l-0.254-5.693c-0.037-0.883,0.563-0.932,0.84-0.908l5.455,0.828
	l-0.467-1.443c-0.211-0.66,0.404-1.275,0.658-1.484C40.016,35.213,44,32.031,44,32.031L42.914,31.555z"/>
<path opacity="0.1" fill="#1A1626" d="M50.737,8.591c4.097,5.13,6.563,11.622,6.563,18.701c0,16.569-13.429,30.003-29.995,30.003
	c-7.101,0-13.609-2.477-18.744-6.594C14.055,57.58,22.503,62,32.004,62c16.565,0,29.994-13.432,29.994-30
	C61.998,22.527,57.596,14.09,50.737,8.591z"/>
<path opacity="0.3" fill-rule="evenodd" clip-rule="evenodd" fill="#FFFFFF" d="M9.734,19.015c0.549,3.865,7.767-3.7,15.08-10.202
	C29.531,4.63,8.083,7.385,9.734,19.015z"/>
</svg>
