<?xml version="1.0" encoding="utf-8"?>
<!-- Generator: Adobe Illustrator 15.0.0, SVG Export Plug-In . SVG Version: 6.00 Build 0)  -->
<!DOCTYPE svg PUBLIC "-//W3C//DTD SVG 1.1//EN" "http://www.w3.org/Graphics/SVG/1.1/DTD/svg11.dtd">
<svg version="1.1" id="Layer_1" xmlns="http://www.w3.org/2000/svg" xmlns:xlink="http://www.w3.org/1999/xlink" x="0px" y="0px"
	 width="64px" height="64px" viewBox="0 0 64 64" enable-background="new 0 0 64 64" xml:space="preserve">
<path fill="#F5F5F5" d="M6.627,16C3.701,20.632,2,26.115,2,32h60c0-5.885-1.701-11.368-4.629-16H6.627z"/>
<path fill="#529320" d="M57.371,48C60.299,43.367,62,37.885,62,32H2c0,5.885,1.701,11.367,4.627,16H57.371z"/>
<path fill="#FFE12C" d="M6.627,48C10.564,54.229,16.729,58.902,24,60.912h15.998C47.27,58.902,53.436,54.229,57.371,48H6.627z"/>
<path fill="#014D87" d="M39.998,3.088H24C16.729,5.098,10.564,9.771,6.627,16h50.744C53.436,9.771,47.27,5.098,39.998,3.088z"/>
<path fill="#E81C27" d="M40,3.088C37.451,2.384,34.771,2,32,2s-5.453,0.384-8,1.088v57.824C26.547,61.615,29.229,62,32,62
	s5.451-0.385,8-1.088V3.088z"/>
<polygon fill="#FFE12C" points="18,11.593 19.854,13 19.154,10.711 21,9.291 18.715,9.285 18,7 17.285,9.285 15,9.291 
	16.846,10.711 16.145,13 "/>
<path opacity="0.1" fill="#1A1626" d="M50.736,8.591c4.098,5.13,6.563,11.622,6.563,18.701c0,16.567-13.428,30.003-29.994,30.003
	c-7.1,0-13.609-2.479-18.744-6.594C14.055,57.58,22.502,62,32.004,62c16.564,0,29.994-13.432,29.994-30
	C61.998,22.527,57.596,14.09,50.736,8.591z"/>
<path opacity="0.3" fill-rule="evenodd" clip-rule="evenodd" fill="#FFFFFF" d="M9.734,19.015c0.549,3.865,7.768-3.7,15.08-10.202
	C29.531,4.63,8.084,7.385,9.734,19.015z"/>
</svg>
