<?xml version="1.0" encoding="utf-8"?>
<!-- Generator: Adobe Illustrator 15.0.0, SVG Export Plug-In . SVG Version: 6.00 Build 0)  -->
<!DOCTYPE svg PUBLIC "-//W3C//DTD SVG 1.1//EN" "http://www.w3.org/Graphics/SVG/1.1/DTD/svg11.dtd">
<svg version="1.1" id="Layer_1" xmlns="http://www.w3.org/2000/svg" xmlns:xlink="http://www.w3.org/1999/xlink" x="0px" y="0px"
	 width="64px" height="64px" viewBox="0 0 64 64" enable-background="new 0 0 64 64" xml:space="preserve">
<path fill="#014D87" d="M32,2C18.939,2,7.833,10.35,3.714,22h56.571C56.166,10.35,45.061,2,32,2z"/>
<path fill="#529320" d="M32,62c13.061,0,24.166-8.35,28.285-20H3.714C7.833,53.65,18.939,62,32,62z"/>
<path fill="#E81C27" d="M3.714,22C2.607,25.129,2,28.492,2,32s0.607,6.871,1.714,10h56.571C61.393,38.871,62,35.508,62,32
	s-0.607-6.871-1.715-10H3.714z"/>
<path fill="#F5F5F5" d="M31.607,40.191c-4.515,0-8.173-3.666-8.173-8.191c0-4.523,3.658-8.192,8.173-8.192
	c1.074,0,2.098,0.214,3.039,0.591c-1.604-1.224-3.594-1.958-5.766-1.958c-5.26,0-9.527,4.28-9.527,9.559
	c0,5.279,4.268,9.559,9.527,9.559c2.172,0,4.162-0.732,5.766-1.957C33.705,39.979,32.682,40.191,31.607,40.191z"/>
<polygon fill="#F5F5F5" points="40.424,33.428 38.197,34.854 39.582,32.602 37,32.035 39.574,31.424 38.146,29.196 40.398,30.584 
	40.965,28 41.576,30.573 43.803,29.146 42.416,31.398 45,31.965 42.426,32.576 43.854,34.805 41.6,33.416 41.035,36 "/>
<path opacity="0.1" fill="#1A1626" d="M50.736,8.591c4.098,5.13,6.563,11.622,6.563,18.701c0,16.569-13.428,30.003-29.994,30.003
	c-7.1,0-13.609-2.477-18.744-6.594C14.055,57.58,22.503,62,32.004,62c16.564,0,29.994-13.432,29.994-30
	C61.998,22.527,57.596,14.09,50.736,8.591z"/>
<path opacity="0.3" fill-rule="evenodd" clip-rule="evenodd" fill="#FFFFFF" d="M9.734,19.015c0.549,3.865,7.768-3.7,15.08-10.202
	C29.531,4.63,8.084,7.385,9.734,19.015z"/>
</svg>
