<?xml version="1.0" encoding="utf-8"?>
<!-- Generator: Adobe Illustrator 15.0.0, SVG Export Plug-In . SVG Version: 6.00 Build 0)  -->
<!DOCTYPE svg PUBLIC "-//W3C//DTD SVG 1.1//EN" "http://www.w3.org/Graphics/SVG/1.1/DTD/svg11.dtd">
<svg version="1.1" id="Layer_1" xmlns="http://www.w3.org/2000/svg" xmlns:xlink="http://www.w3.org/1999/xlink" x="0px" y="0px"
	 width="64px" height="64px" viewBox="0 0 64 64" enable-background="new 0 0 64 64" xml:space="preserve">
<path fill="#E81C27" d="M62,32c0,16.568-13.432,30-30,30S2,48.568,2,32S15.432,2,32,2S62,15.432,62,32"/>
<polyline fill="#F5F5F5" points="49.29,22.791 44.159,22.506 43.776,22.246 42.728,23.074 42.859,23.898 42.534,25.17 
	40.254,29.953 40.056,30.982 40.152,32.047 39.667,32.217 34.563,29.51 34.361,29.674 34.586,29.465 32.898,24.277 30.698,20.566 
	28.782,20.408 27.328,21.523 20.644,24.324 19.044,23.766 16.423,21.383 15.624,21.758 18.194,26.207 18.188,26.668 19.454,27.094 
	20.072,26.531 21.314,26.107 26.565,25.395 27.535,24.996 28.372,24.332 28.78,24.645 29.278,30.09 25.535,33.916 23.257,37.578 
	23.999,39.354 25.659,40.129 31.223,44.771 31.466,46.449 30.558,49.873 31.26,50.408 34.023,46.078 34.437,45.871 34.229,44.551 
	33.446,44.262 32.497,43.354 29.457,39.049 28.632,38.346 27.671,37.908 27.759,37.402 32.448,34.395 32.455,34.434 37.72,35.865 
	42.028,36.055 43.211,34.539 43.073,32.711 44.394,25.586 45.736,24.553 49.166,23.666 49.29,22.791 "/>
<polygon fill="#FFE606" points="23.961,37.596 25.724,37.668 26.299,37.355 26.683,36.854 27.15,37.045 27.246,38.484 
	26.635,38.615 26.203,38.184 25.196,38.148 24.297,38.531 23.77,38.291 "/>
<polyline fill="#FFE12C" points="32.913,47.355 31.234,47.693 31.048,48.475 32.709,47.975 32.913,47.355 "/>
<polyline fill="#FFE12C" points="46.457,22.721 45.817,22.848 46.936,24.145 47.707,23.924 46.457,22.721 "/>
<polyline fill="#FFE12C" points="40.861,32.135 39.654,32.924 39.716,33.424 40.343,33.512 40.896,33.861 41.698,35.432 
	42.398,35.26 42.349,34.682 41.859,34.324 41.573,34.086 41.111,33.189 41.276,32.604 40.861,32.135 "/>
<polyline fill="#FFE12C" points="17.438,22.463 17.117,24.166 17.572,24.633 18.045,22.986 17.438,22.463 "/>
<polyline fill="#FFE12C" points="29.829,20.693 29.374,21.053 29.3,22.027 28.804,22.904 28.222,23.088 28.057,23.691 29.378,24.27 
	29.764,23.943 29.494,23.369 29.482,22.715 30.358,21.186 29.829,20.693 "/>
<path fill="#F9DB17" d="M32.448,34.395l-0.114,0.072l0.02,0.084h0.534l-0.433-0.117L32.448,34.395 M29.212,29.707l-0.168,0.564
	l0.04,0.018l0.194-0.199l-0.033-0.371L29.212,29.707 M34.571,28.773L34.402,28.9l0.184,0.564l-0.225,0.209l0.201-0.164l0.149,0.08
	l0.146-0.121L34.571,28.773"/>
<polyline fill="#FFE12C" points="34.402,28.9 32.054,30.668 29.245,29.719 29.278,30.09 29.084,30.289 31.621,31.41 32.334,34.467 
	32.448,34.395 32.455,34.434 32.888,34.551 32.965,34.551 32.581,31.35 34.712,29.59 34.563,29.51 34.361,29.674 34.586,29.465 
	34.402,28.9 "/>
<polygon fill="#F9DD16" points="19.528,25.971 20.021,27.488 21.616,27.488 20.326,28.426 20.819,29.943 19.528,29.006 
	18.238,29.943 18.73,28.426 17.44,27.488 19.035,27.488 "/>
<polygon fill="#F9DD16" points="41.708,20.496 42.2,22.014 43.796,22.014 42.505,22.951 42.998,24.467 41.708,23.529 40.417,24.467 
	40.91,22.951 39.619,22.014 41.215,22.014 "/>
<polygon fill="#F9DD16" points="35.245,41.525 35.737,43.043 37.333,43.043 36.042,43.98 36.535,45.498 35.245,44.561 
	33.954,45.498 34.447,43.98 33.156,43.043 34.752,43.043 "/>
<path opacity="0.1" fill="#1A1626" d="M50.736,8.592c4.097,5.129,6.563,11.621,6.563,18.701c0,16.568-13.428,30.002-29.994,30.002
	c-7.101,0-13.609-2.477-18.744-6.594C14.055,57.58,22.502,62,32.003,62c16.565,0,29.995-13.432,29.995-30
	C61.998,22.527,57.595,14.09,50.736,8.592z"/>
<path opacity="0.3" fill-rule="evenodd" clip-rule="evenodd" fill="#FFFFFF" d="M9.734,19.016c0.549,3.865,7.767-3.701,15.08-10.203
	C29.531,4.631,8.083,7.385,9.734,19.016z"/>
</svg>
