<?xml version="1.0" encoding="utf-8"?>
<!-- Generator: Adobe Illustrator 15.0.0, SVG Export Plug-In . SVG Version: 6.00 Build 0)  -->
<!DOCTYPE svg PUBLIC "-//W3C//DTD SVG 1.1//EN" "http://www.w3.org/Graphics/SVG/1.1/DTD/svg11.dtd">
<svg version="1.1" id="Layer_1" xmlns="http://www.w3.org/2000/svg" xmlns:xlink="http://www.w3.org/1999/xlink" x="0px" y="0px"
	 width="64px" height="64px" viewBox="0 0 64 64" enable-background="new 0 0 64 64" xml:space="preserve">
<path fill="#014D87" d="M32,2v30H2c0,16.568,13.432,30,30,30c16.568,0,30-13.432,30-30S48.568,2,32,2z"/>
<g>
	<rect x="12" y="12" fill="#014D87" width="21" height="21"/>
</g>
<g>
	<polygon fill="#F5F5F5" points="18.913,8.139 18.913,14 11.6,14 26,32 32,32 32,24.5 	"/>
</g>
<g>
	<path fill="#F5F5F5" d="M11,18.912H5.012C3.088,22.869,2,27.305,2,32h12V13.912h-3V18.912z"/>
</g>
<g>
	<polygon fill="#E81C27" points="32,27.059 19,11 13,11 30,32 32,32 	"/>
</g>
<g>
	<path fill="#F5F5F5" d="M18.913,5.012V11H11v3h21V2C27.307,2,22.87,3.088,18.913,5.012z"/>
</g>
<g>
	<path fill="#E81C27" d="M32,5H18.913C12.858,7.939,7.942,12.857,5,18.912V32h6V11h21V5z"/>
</g>
<g>
	<path fill="#D8A322" d="M34.541,33.848l-0.002,0.007L34.541,33.848z"/>
</g>
<g>
	<path fill="#D8A322" d="M34.537,33.86L34.5,33.939L34.537,33.86z"/>
</g>
<g>
	<path fill="#D8A322" d="M34.539,33.854l-0.002,0.006L34.539,33.854z"/>
</g>
<polygon fill="#F5F5F5" points="15.295,35.637 16.401,40.012 20.512,38.148 17.78,41.74 21.8,43.793 17.288,43.898 18.19,48.32 
	15.295,44.857 12.401,48.32 13.303,43.898 8.791,43.793 12.811,41.74 10.079,38.148 14.19,40.012 "/>
<polygon fill="#F5F5F5" points="48.201,18.691 48.672,20.551 50.42,19.759 49.258,21.286 50.967,22.158 49.049,22.203 
	49.432,24.083 48.201,22.61 46.971,24.083 47.355,22.203 45.438,22.158 47.146,21.286 45.984,19.759 47.732,20.551 "/>
<polygon fill="#F5F5F5" points="56.518,26.331 56.988,28.19 58.734,27.399 57.574,28.926 59.283,29.799 57.363,29.843 
	57.748,31.723 56.518,30.25 55.287,31.723 55.672,29.843 53.752,29.799 55.461,28.926 54.301,27.399 56.047,28.19 "/>
<polygon fill="#F5F5F5" points="38.846,28.826 39.316,30.686 41.064,29.894 39.902,31.42 41.611,32.293 39.693,32.337 
	40.076,34.217 38.846,32.745 37.617,34.217 38,32.337 36.082,32.293 37.791,31.42 36.629,29.894 38.377,30.686 "/>
<polygon fill="#F5F5F5" points="48.201,43.639 48.672,45.498 50.42,44.707 49.258,46.232 50.967,47.105 49.049,47.15 49.432,49.029 
	48.201,47.559 46.971,49.029 47.355,47.15 45.438,47.105 47.146,46.232 45.984,44.707 47.732,45.498 "/>
<polygon fill="#F5F5F5" points="51.943,33.992 52.293,35.069 53.426,35.069 52.51,35.735 52.859,36.813 51.943,36.147 
	51.027,36.813 51.377,35.735 50.461,35.069 51.594,35.069 "/>
<path opacity="0.1" fill="#1A1626" d="M50.738,8.591c4.096,5.13,6.563,11.622,6.563,18.701c0,16.568-13.428,30.003-29.995,30.003
	c-7.101,0-13.609-2.478-18.744-6.594C14.056,57.58,22.503,62,32.004,62C48.57,62,62,48.568,62,32
	C62,22.527,57.596,14.09,50.738,8.591z"/>
<path opacity="0.3" fill-rule="evenodd" clip-rule="evenodd" fill="#FFFFFF" d="M9.736,19.015c0.549,3.865,7.767-3.7,15.08-10.202
	C29.533,4.63,8.084,7.385,9.736,19.015z"/>
</svg>
