<?xml version="1.0" encoding="utf-8"?>
<!-- Generator: Adobe Illustrator 15.0.0, SVG Export Plug-In . SVG Version: 6.00 Build 0)  -->
<!DOCTYPE svg PUBLIC "-//W3C//DTD SVG 1.1//EN" "http://www.w3.org/Graphics/SVG/1.1/DTD/svg11.dtd">
<svg version="1.1" id="Layer_1" xmlns="http://www.w3.org/2000/svg" xmlns:xlink="http://www.w3.org/1999/xlink" x="0px" y="0px"
	 width="64px" height="64px" viewBox="0 0 64 64" enable-background="new 0 0 64 64" xml:space="preserve">
<g>
	<path fill="#E81C27" d="M11.191,53.6C16.586,58.797,23.916,62,32,62c8.082,0,15.412-3.203,20.807-8.4H11.191z"/>
</g>
<g>
	<path fill="#E81C27" d="M52.807,10.399C47.412,5.202,40.082,2,32,2s-15.414,3.202-20.807,8.399H52.807z"/>
</g>
<g>
	<path fill="#529320" d="M5.377,45.822L32,32L5.377,18.176C3.225,22.314,2,27.013,2,32C2,36.986,3.225,41.686,5.377,45.822z"/>
</g>
<g>
	<path fill="#529320" d="M62,32c0-4.987-1.225-9.686-3.377-13.824L32,32l26.623,13.822C60.775,41.686,62,36.986,62,32z"/>
</g>
<g>
	<path fill="#FFE12C" d="M58.623,45.822L32,32L5.377,45.822c1.51,2.904,3.48,5.527,5.814,7.777h41.615
		C55.143,51.35,57.111,48.727,58.623,45.822z"/>
</g>
<g>
	<path fill="#FFE12C" d="M5.377,18.176L32,32l26.623-13.824c-1.512-2.902-3.48-5.526-5.816-7.776H11.193
		C8.857,12.649,6.887,15.273,5.377,18.176z"/>
</g>
<circle fill="#E81C27" cx="32" cy="32" r="9"/>
<g>
	<path fill="#CE1126" d="M8.285,34.414c0.773,0.803,1.639,1.475,2.447,1.814c0.014-0.887-0.146-1.904-0.418-2.92
		c-0.684-0.64-1.455-1.188-2.213-1.477C7.992,32.644,8.074,33.545,8.285,34.414z"/>
</g>
<g>
	<path fill="#FFE12C" d="M5.021,26.326c1.307,2.722-3.387,9.215,4.432,10.738c-0.516-0.705-0.928-1.654-1.168-2.65
		c-0.211-0.869-0.293-1.771-0.184-2.582c0.758,0.288,1.529,0.837,2.213,1.477c0.799,0.746,1.477,1.617,1.852,2.369
		C14.211,28.248,6.918,28.7,5.021,26.326z"/>
</g>
<polygon fill="#FFE12C" points="21.959,4.855 22.549,6.672 24.459,6.672 22.914,7.795 23.504,9.61 21.959,8.488 20.414,9.61 
	21.004,7.795 19.459,6.672 21.369,6.672 "/>
<polygon fill="#FFE12C" points="22.959,54.1 23.549,55.914 25.459,55.914 23.914,57.037 24.504,58.854 22.959,57.732 21.414,58.854 
	22.004,57.037 20.459,55.914 22.369,55.914 "/>
<polygon fill="#FFE12C" points="32,23 33.932,29.254 40.188,29.254 35.129,33.117 37.061,39.375 32,35.508 26.939,39.375 
	28.871,33.117 23.813,29.254 30.066,29.254 "/>
<polygon fill="#FFE12C" points="31.959,4.855 32.549,6.672 34.457,6.672 32.914,7.795 33.504,9.61 31.959,8.488 30.412,9.61 
	31.004,7.795 29.457,6.672 31.367,6.672 "/>
<polygon fill="#FFE12C" points="41.959,4.855 42.549,6.672 44.457,6.672 42.914,7.795 43.504,9.61 41.959,8.488 40.412,9.61 
	41.004,7.795 39.457,6.672 41.369,6.672 "/>
<polygon fill="#FFE12C" points="31.959,54.1 32.549,55.916 34.457,55.916 32.914,57.039 33.504,58.854 31.959,57.732 30.412,58.854 
	31.004,57.039 29.457,55.916 31.367,55.916 "/>
<polygon fill="#FFE12C" points="41.959,54.1 42.549,55.916 44.457,55.916 42.914,57.039 43.504,58.854 41.959,57.732 40.412,58.854 
	41.004,57.039 39.457,55.916 41.369,55.916 "/>
<path opacity="0.1" fill="#1A1626" d="M50.736,8.591c4.096,5.13,6.563,11.622,6.563,18.701c0,16.567-13.428,30.003-29.994,30.003
	c-7.102,0-13.609-2.479-18.744-6.594C14.055,57.58,22.502,62,32.002,62c16.566,0,29.996-13.432,29.996-30
	C61.998,22.527,57.594,14.09,50.736,8.591z"/>
<path opacity="0.3" fill-rule="evenodd" clip-rule="evenodd" fill="#FFFFFF" d="M9.734,19.015c0.549,3.865,7.766-3.7,15.08-10.202
	C29.531,4.63,8.082,7.385,9.734,19.015z"/>
</svg>
