<?xml version="1.0" encoding="utf-8"?>
<!-- Generator: Adobe Illustrator 15.0.0, SVG Export Plug-In . SVG Version: 6.00 Build 0)  -->
<!DOCTYPE svg PUBLIC "-//W3C//DTD SVG 1.1//EN" "http://www.w3.org/Graphics/SVG/1.1/DTD/svg11.dtd">
<svg version="1.1" id="Layer_1" xmlns="http://www.w3.org/2000/svg" xmlns:xlink="http://www.w3.org/1999/xlink" x="0px" y="0px"
	 width="64px" height="64px" viewBox="0 0 64 64" enable-background="new 0 0 64 64" xml:space="preserve">
<path fill="#FFE12C" d="M61.721,28c-0.137-1.016-0.314-2.02-0.551-3H2.83c-0.235,0.98-0.414,1.984-0.551,3H61.721z"/>
<path fill="#FFE12C" d="M2.279,36c0.137,1.016,0.315,2.018,0.551,3h58.34c0.236-0.982,0.414-1.984,0.551-3H2.279z"/>
<path fill="#FFE12C" d="M20,4.488c-1.03,0.451-2.033,0.953-3,1.514v51.996c0.967,0.561,1.97,1.063,3,1.512V4.488z"/>
<path fill="#FFE12C" d="M28.001,2.262v59.475c0.986,0.133,1.984,0.23,3,0.264V2C29.985,2.033,28.987,2.131,28.001,2.262z"/>
<path fill="#E81C27" d="M2,32c0,1.357,0.099,2.689,0.273,4h59.453C61.902,34.689,62,33.357,62,32s-0.098-2.691-0.273-4H2.273
	C2.099,29.309,2,30.643,2,32z"/>
<path fill="#E81C27" d="M20,59.496c2.507,1.096,5.191,1.855,8.001,2.23V2.273c-2.81,0.375-5.494,1.135-8.001,2.23V59.496z"/>
<path fill="#014D87" d="M17,25V6.023C9.982,10.084,4.766,16.902,2.83,25H17z"/>
<path fill="#014D87" d="M17,39.023V58C9.982,53.939,4.766,47.121,2.83,39.023H17z"/>
<path fill="#014D87" d="M32.001,2c-0.336,0-0.668,0.014-1,0.025V25H61.17C58.016,11.809,46.157,2,32.001,2z"/>
<path fill="#014D87" d="M31.001,39v22.975c0.332,0.01,0.664,0.025,1,0.025c14.156,0,26.015-9.811,29.169-23H31.001z"/>
<path opacity="0.1" fill="#1A1626" d="M50.737,8.591c4.097,5.13,6.562,11.622,6.562,18.701c0,16.568-13.427,30.003-29.993,30.003
	c-7.102,0-13.61-2.478-18.745-6.594C14.055,57.58,22.502,62,32.003,62c16.566,0,29.995-13.432,29.995-30
	C61.998,22.527,57.596,14.09,50.737,8.591z"/>
<path opacity="0.3" fill-rule="evenodd" clip-rule="evenodd" fill="#FFFFFF" d="M9.734,19.015c0.549,3.865,7.767-3.7,15.08-10.202
	C29.532,4.63,8.083,7.385,9.734,19.015z"/>
</svg>
