<?xml version="1.0" encoding="utf-8"?>
<!-- Generator: Adobe Illustrator 15.0.0, SVG Export Plug-In . SVG Version: 6.00 Build 0)  -->
<!DOCTYPE svg PUBLIC "-//W3C//DTD SVG 1.1//EN" "http://www.w3.org/Graphics/SVG/1.1/DTD/svg11.dtd">
<svg version="1.1" id="Layer_1" xmlns="http://www.w3.org/2000/svg" xmlns:xlink="http://www.w3.org/1999/xlink" x="0px" y="0px"
	 width="64px" height="64px" viewBox="0 0 64 64" enable-background="new 0 0 64 64" xml:space="preserve">
<circle fill="#F5F5F5" cx="32" cy="32" r="30"/>
<path fill="#529320" d="M12.475,36.953c0,0-0.162,1.373,0.404,2.02s1.938,1.373,2.422,1.453s-0.564-1.775-0.564-1.775
	S13.202,36.711,12.475,36.953L12.475,36.953z"/>
<path fill="#529320" d="M12.717,40.426c0,0,0.162,1.291,1.051,1.453s1.695,0.082,1.695,0.082S15.463,40.506,12.717,40.426z"/>
<path fill="#529320" d="M15.625,37.762c0,0,0.887,0.322,0.887,1.131c0,0.805-0.08,1.613-0.08,1.613s-0.646-0.809-0.646-1.211
	S15.625,37.762,15.625,37.762z"/>
<path fill="#529320" d="M15.295,42.621c0,0-0.113,0.799,0.799,0.799C17.008,43.42,16.209,42.393,15.295,42.621z"/>
<path fill="#529320" d="M15.239,43.879c0,0,0.971-0.285,2.113-0.059c1.143,0.229,1.713,1.086,1.713,1.086s-1.199,0.342-2.57,0
	C15.125,44.563,15.239,43.879,15.239,43.879z"/>
<path fill="#529320" d="M15.868,41.023c0,0,1.369-0.4,2.684,2.57C18.551,43.594,16.038,42.965,15.868,41.023z"/>
<path fill="#529320" d="M17.293,40.395c0,0,1.543-0.857,2.799,3.141C20.092,43.535,18.323,42.85,17.293,40.395z"/>
<path fill="#529320" d="M19.35,44.107c0,0,1.543-0.572,3.541,1.768C19.635,45.762,19.35,44.107,19.35,44.107z"/>
<path fill="#529320" d="M20.381,43.018c0,0-0.074,0.902,0.529,0.902S20.987,42.762,20.381,43.018z"/>
<path fill="#529320" d="M19.27,45.357c0,0-0.059,0.787,0.412,0.787C20.155,46.145,19.741,45.133,19.27,45.357z"/>
<path fill="#529320" d="M23.979,47.785c0,0-0.076,0.9,0.529,0.9C25.112,48.686,24.583,47.529,23.979,47.785z"/>
<path fill="#529320" d="M25.407,45.104c0,0-0.076,0.898,0.529,0.898C26.54,46.002,26.01,44.846,25.407,45.104z"/>
<path fill="#529320" d="M21.635,43.535c0,0,2.17-0.57,3.082,2.172C22.092,45.305,21.635,43.535,21.635,43.535z"/>
<path fill="#529320" d="M19.694,46.563c0,0,2.455-0.629,3.598,0.229C24.432,47.646,21.12,47.988,19.694,46.563z"/>
<path fill="#529320" d="M23.977,46.619c0,0,1.654-0.799,3.482,0.971C24.034,48.047,23.977,46.619,23.977,46.619z"/>
<path fill="#529320" d="M26.774,45.533c0,0,1.656-0.514,3.254,2.514C26.43,47.533,26.774,45.533,26.774,45.533z"/>
<path fill="#529320" d="M29.627,48.846c0,0-1.826,1.256-4.109-0.057C25.518,48.789,26.26,47.248,29.627,48.846z"/>
<path fill="#529320" d="M51.523,36.926c0,0,0.162,1.371-0.404,2.018c-0.564,0.646-1.938,1.373-2.422,1.453
	c-0.484,0.082,0.566-1.775,0.566-1.775S50.797,36.682,51.523,36.926z"/>
<path fill="#529320" d="M51.283,40.396c0,0-0.164,1.293-1.051,1.455c-0.889,0.16-1.697,0.08-1.697,0.08S48.535,40.479,51.283,40.396
	L51.283,40.396z"/>
<path fill="#529320" d="M48.375,37.732c0,0-0.889,0.322-0.889,1.131s0.08,1.615,0.08,1.615s0.646-0.807,0.646-1.213
	C48.213,38.863,48.375,37.732,48.375,37.732z"/>
<path fill="#529320" d="M48.703,42.592c0,0,0.115,0.801-0.799,0.801S47.789,42.365,48.703,42.592z"/>
<path fill="#529320" d="M48.76,43.85c0,0-0.971-0.285-2.113-0.059c-1.141,0.229-1.711,1.086-1.711,1.086s1.197,0.342,2.57,0
	C48.875,44.535,48.76,43.85,48.76,43.85L48.76,43.85z"/>
<path fill="#529320" d="M48.133,40.994c0,0-1.371-0.398-2.684,2.57C45.449,43.564,47.961,42.936,48.133,40.994z"/>
<path fill="#529320" d="M46.705,40.367c0,0-1.543-0.857-2.799,3.139C43.906,43.506,45.678,42.82,46.705,40.367z"/>
<path fill="#529320" d="M44.648,44.078c0,0-1.541-0.572-3.539,1.77C44.363,45.734,44.648,44.078,44.648,44.078z"/>
<path fill="#529320" d="M43.617,42.99c0,0,0.076,0.898-0.527,0.898C42.484,43.889,43.014,42.732,43.617,42.99z"/>
<path fill="#529320" d="M44.73,45.328c0,0,0.059,0.787-0.412,0.787C43.846,46.115,44.258,45.104,44.73,45.328z"/>
<path fill="#529320" d="M40.021,47.756c0,0,0.074,0.902-0.529,0.902C38.887,48.658,39.416,47.5,40.021,47.756z"/>
<path fill="#529320" d="M38.594,45.074c0,0,0.076,0.9-0.529,0.9S37.988,44.816,38.594,45.074z"/>
<path fill="#529320" d="M42.365,43.506c0,0-2.17-0.57-3.084,2.17C41.908,45.277,42.365,43.506,42.365,43.506z"/>
<path fill="#529320" d="M44.307,46.533c0,0-2.455-0.629-3.598,0.229C39.566,47.617,42.879,47.961,44.307,46.533z"/>
<path fill="#529320" d="M40.023,46.59c0,0-1.656-0.799-3.482,0.971C39.967,48.018,40.023,46.59,40.023,46.59z"/>
<path fill="#529320" d="M37.227,45.506c0,0-1.658-0.514-3.256,2.512C37.568,47.504,37.227,45.506,37.227,45.506z"/>
<path fill="#529320" d="M34.371,48.816c0,0,1.826,1.258,4.111-0.057C38.482,48.76,37.74,47.217,34.371,48.816z"/>
<path fill="#529320" d="M31.655,49.551c0,0-1.252,1.697-1.252,1.535s-0.889-0.889-0.889-0.889l1.535-1.129l-0.605-0.285l0.322-0.361
	l1.131,0.482"/>
<path fill="#529320" d="M31.999,49.545c0,0,1.25,1.695,1.25,1.535s0.891-0.889,0.891-0.889l-1.535-1.131l0.605-0.281l-0.324-0.363
	L31.756,48.9"/>
<path fill="#529320" d="M31.575,49.633H32.1"/>
<path fill="#F59E01" d="M18.038,29.521c0,0,0.436,1.145,0.926,1.145s1.797,0.107,1.797,0.107s0.654-0.107,0.871-0.707
	c0.219-0.6,0.816-3.104,3.814-1.58c2.996,1.525,3.158-2.613,3.158-2.613l-0.49-0.709l0.109-1.361c0,0,1.635,1.145,2.668,1.088
	c1.035-0.053,1.799,0.328,2.125,0.328c0.328,0,1.361,0.328,1.361,0.328l2.67,0.107c0,0,0.436-0.381,0.871-0.326
	s0.436-0.273,1.252-0.273c0.818,0,1.635-1.035,1.635-1.035s0.219-0.217,1.416,0c0,0,0.816-0.652,2.016-1.035
	c1.197-0.379,1.035-0.871,1.035-0.871s0.871-0.164,1.252-0.107c0.381,0.053,0.6-0.654,0.6-0.654l0.926-0.109l0.381-0.543
	l0.926-0.166c0,0,1.09-0.762,1.254-1.252s1.416-0.107,1.416-0.107s0.545-0.492,0.598-0.764c0.055-0.271,0.545-0.055,0.545-0.055
	l-0.055,0.871l-0.598,0.328v0.543H51.59l-0.055,0.545l-0.762,0.057l-0.111,0.652L50.5,21.623l-0.217,0.109h-0.545l-0.219,0.326
	l-0.545,0.383l-0.381,0.49l-0.764-0.055l-0.49,0.654l-0.326-0.057l-0.49,0.818l-0.381,0.49l-0.219,0.326l-0.381,0.109l-0.109,0.436
	l-0.652,0.164l-0.871,0.217l-0.328,0.381c0,0-0.926,1.854,0.055,2.508c0.98,0.652,1.035,1.359,1.035,1.359l0.49,0.328l0.381,0.654
	l0.164,0.762c0,0-0.164,0.107-0.381,0.055c-0.219-0.055-0.6-0.109-0.6-0.109l-0.436-0.381l-0.816-0.055l-0.438,0.49
	c0,0-0.217,0.326-0.217,0.545s-0.109,0.162-0.383,0c-0.271-0.164-0.707-0.438-0.707-0.438l-0.6-0.162l-0.053-0.273l-0.383,0.219
	c0,0-0.109,0.328-0.326,0.217c-0.219-0.107-0.436-0.107-0.436-0.107h-0.381c0,0-0.873,0.654-0.764,2.777l-0.98,0.164l-0.49,0.436
	l-0.271,0.273h-0.709l-0.381,0.326l-0.709,0.271l-0.326,0.436l-0.871,0.055l-0.381,0.273l-0.164,0.379l-0.599-0.379L32.09,36.82
	l-0.709,0.162c0,0-0.217,0.057-0.436,0.219c-0.217,0.164-0.816,0.273-0.816,0.273s-0.381,0.109-0.381,0.326
	c0,0.219-0.109,0.6-0.109,0.6v0.816c0,0-0.109,0.545-0.545,0.545s-0.326,0-0.545-0.055c-0.217-0.055-0.164-0.545-0.164-0.545v-0.598
	l-0.871-0.818l-0.543-0.219l-0.6,0.057l-0.545,0.326l-0.49,0.326c0,0,0.109,0.381-0.273,0.109c-0.381-0.273-0.654-0.381-0.654-0.381
	l-0.488-0.273l-0.654-0.164l-0.49-0.598l-1.252-0.055l-1.09-1.252l-0.326-0.328l-0.055-0.98l-0.709-0.107v-0.545l-0.273-0.545
	l0.109-0.982l-0.652-0.27l-0.271-0.928L18.038,29.521z"/>
<path opacity="0.05" fill="#1A1626" d="M50.736,8.592c4.096,5.129,6.563,11.621,6.563,18.701c0,16.568-13.43,30.002-29.994,30.002
	c-7.102,0-13.611-2.477-18.746-6.594C14.053,57.58,22.502,62,32.002,62c16.566,0,29.994-13.432,29.994-30
	C61.996,22.527,57.594,14.09,50.736,8.592z"/>
<path opacity="0.9" fill-rule="evenodd" clip-rule="evenodd" fill="#FFFFFF" d="M9.735,19.016c0.549,3.865,7.766-3.701,15.08-10.203
	C29.532,4.631,8.083,7.385,9.735,19.016z"/>
</svg>
