<?xml version="1.0" encoding="utf-8"?>
<!-- Generator: Adobe Illustrator 15.0.0, SVG Export Plug-In . SVG Version: 6.00 Build 0)  -->
<!DOCTYPE svg PUBLIC "-//W3C//DTD SVG 1.1//EN" "http://www.w3.org/Graphics/SVG/1.1/DTD/svg11.dtd">
<svg version="1.1" id="Layer_1" xmlns="http://www.w3.org/2000/svg" xmlns:xlink="http://www.w3.org/1999/xlink" x="0px" y="0px"
	 width="64px" height="64px" viewBox="0 0 64 64" enable-background="new 0 0 64 64" xml:space="preserve">
<path fill="#E81C27" d="M32,2C18.939,2,7.832,10.35,3.713,22h56.572C56.166,10.35,45.061,2,32,2z"/>
<path fill="#529320" d="M32,62c13.061,0,24.166-8.35,28.285-20H3.713C7.832,53.65,18.939,62,32,62z"/>
<path fill="#FFE12C" d="M3.713,22C2.607,25.129,2,28.492,2,32s0.607,6.871,1.713,10h56.572C61.393,38.871,62,35.508,62,32
	s-0.607-6.871-1.715-10H3.713z"/>
<rect x="31.316" y="37.73" fill="#E81C27" width="1.365" height="2.908"/>
<rect x="30.24" y="37.986" fill="#FFE000" width="1.365" height="2.908"/>
<rect x="32.393" y="37.986" fill="#FFE000" width="1.365" height="2.908"/>
<rect x="30.004" y="37.986" fill="#529320" width="0.861" height="3.65"/>
<rect x="33.133" y="37.986" fill="#529320" width="0.861" height="3.65"/>
<path fill="#529320" d="M29.6,23.378c0,0-0.332-0.094-0.594-0.09l0.01-0.013c0.207-0.318,0.275-0.912,0.275-0.912
	s-0.514,0.302-0.723,0.617c-0.109-0.229-0.307-0.464-0.307-0.464s-0.244,0.273-0.207,0.538c0.037,0.264,0.375,0.66,0.375,0.66
	s0.498,0.145,0.758,0.07C29.447,23.709,29.6,23.378,29.6,23.378z"/>
<path fill="#529320" d="M29.123,24.139c0,0-0.344-0.007-0.596,0.064l0.006-0.015c0.117-0.361,0.027-0.953,0.027-0.953
	s-0.416,0.424-0.535,0.782c-0.166-0.193-0.42-0.369-0.42-0.369s-0.162,0.326-0.059,0.572c0.105,0.247,0.533,0.541,0.533,0.541
	s0.52,0.012,0.75-0.126C29.063,24.497,29.123,24.139,29.123,24.139z"/>
<path fill="#529320" d="M28.861,24.994c0,0-0.334,0.082-0.559,0.217l0.002-0.016c0.02-0.379-0.221-0.929-0.221-0.929
	s-0.293,0.517-0.316,0.894c-0.209-0.144-0.5-0.249-0.5-0.249s-0.072,0.356,0.094,0.567c0.166,0.211,0.656,0.386,0.656,0.386
	s0.506-0.123,0.691-0.316C28.896,25.357,28.861,24.994,28.861,24.994z"/>
<path fill="#529320" d="M28.83,25.889c0,0-0.301,0.165-0.482,0.354l-0.004-0.017c-0.076-0.371-0.453-0.838-0.453-0.838
	s-0.146,0.573-0.072,0.943c-0.238-0.085-0.547-0.111-0.547-0.111s0.023,0.363,0.238,0.525c0.213,0.161,0.732,0.204,0.732,0.204
	s0.457-0.249,0.588-0.482C28.959,26.229,28.83,25.889,28.83,25.889z"/>
<path fill="#529320" d="M29.035,26.76c0,0-0.246,0.237-0.373,0.465l-0.008-0.014c-0.174-0.338-0.658-0.694-0.658-0.694
	s0.006,0.592,0.178,0.931c-0.254-0.021-0.561,0.032-0.561,0.032s0.117,0.345,0.367,0.446c0.25,0.101,0.762,0.008,0.762,0.008
	s0.377-0.358,0.441-0.618S29.035,26.76,29.035,26.76z"/>
<path fill="#529320" d="M29.461,27.549c0,0-0.176,0.292-0.24,0.546l-0.012-0.012c-0.256-0.283-0.816-0.501-0.816-0.501
	s0.16,0.571,0.414,0.854c-0.25,0.044-0.531,0.175-0.531,0.175s0.203,0.303,0.471,0.337c0.268,0.033,0.738-0.188,0.738-0.188
	s0.27-0.443,0.264-0.71S29.461,27.549,29.461,27.549z"/>
<path fill="#529320" d="M30.076,28.203c0,0-0.094,0.327-0.09,0.588l-0.014-0.009c-0.32-0.207-0.918-0.275-0.918-0.275
	s0.303,0.51,0.621,0.718c-0.23,0.109-0.467,0.306-0.467,0.306s0.273,0.241,0.541,0.203c0.268-0.036,0.664-0.37,0.664-0.37
	s0.146-0.496,0.07-0.754C30.41,28.354,30.076,28.203,30.076,28.203z"/>
<path fill="#529320" d="M30.842,28.675c0,0-0.006,0.341,0.066,0.591l-0.016-0.004c-0.363-0.117-0.959-0.029-0.959-0.029
	s0.428,0.415,0.787,0.535c-0.193,0.164-0.371,0.415-0.371,0.415s0.328,0.161,0.576,0.058c0.248-0.104,0.545-0.529,0.545-0.529
	s0.012-0.516-0.127-0.746C31.203,28.735,30.842,28.675,30.842,28.675z"/>
<path fill="#529320" d="M34.4,23.378c0,0,0.328-0.094,0.592-0.09l-0.01-0.013c-0.207-0.318-0.275-0.912-0.275-0.912
	s0.512,0.302,0.721,0.617c0.109-0.229,0.309-0.464,0.309-0.464s0.244,0.273,0.205,0.538c-0.035,0.264-0.373,0.66-0.373,0.66
	s-0.5,0.145-0.758,0.07C34.553,23.709,34.4,23.378,34.4,23.378z"/>
<path fill="#529320" d="M34.875,24.139c0,0,0.344-0.007,0.596,0.064l-0.006-0.015c-0.117-0.361-0.029-0.953-0.029-0.953
	s0.418,0.424,0.537,0.782c0.166-0.193,0.42-0.369,0.42-0.369s0.164,0.326,0.059,0.572c-0.105,0.247-0.533,0.541-0.533,0.541
	s-0.52,0.012-0.752-0.126C34.936,24.497,34.875,24.139,34.875,24.139z"/>
<path fill="#529320" d="M35.137,24.994c0,0,0.332,0.082,0.559,0.217l-0.002-0.016c-0.02-0.379,0.221-0.929,0.221-0.929
	s0.293,0.517,0.314,0.894c0.211-0.144,0.502-0.249,0.502-0.249s0.072,0.356-0.094,0.567c-0.164,0.211-0.654,0.386-0.654,0.386
	s-0.508-0.123-0.693-0.316C35.102,25.357,35.137,24.994,35.137,24.994z"/>
<path fill="#529320" d="M35.166,25.889c0,0,0.301,0.165,0.484,0.354l0.002-0.017c0.078-0.371,0.453-0.838,0.453-0.838
	s0.148,0.573,0.072,0.943c0.24-0.085,0.549-0.111,0.549-0.111s-0.023,0.363-0.238,0.525c-0.215,0.161-0.732,0.204-0.732,0.204
	s-0.459-0.249-0.588-0.482C35.037,26.229,35.166,25.889,35.166,25.889z"/>
<path fill="#529320" d="M34.961,26.76c0,0,0.248,0.237,0.375,0.465l0.008-0.014c0.174-0.338,0.658-0.694,0.658-0.694
	s-0.008,0.592-0.178,0.931c0.254-0.021,0.559,0.032,0.559,0.032s-0.117,0.345-0.365,0.446c-0.25,0.101-0.764,0.008-0.764,0.008
	s-0.377-0.358-0.441-0.618S34.961,26.76,34.961,26.76z"/>
<path fill="#529320" d="M34.539,27.549c0,0,0.174,0.292,0.238,0.546l0.012-0.012c0.254-0.283,0.814-0.501,0.814-0.501
	s-0.16,0.571-0.412,0.854c0.25,0.044,0.529,0.175,0.529,0.175s-0.201,0.303-0.469,0.337c-0.268,0.033-0.738-0.188-0.738-0.188
	s-0.27-0.443-0.264-0.71C34.254,27.781,34.539,27.549,34.539,27.549z"/>
<path fill="#529320" d="M33.922,28.203c0,0,0.094,0.327,0.09,0.588l0.014-0.009c0.32-0.207,0.918-0.275,0.918-0.275
	s-0.303,0.51-0.621,0.718c0.23,0.109,0.469,0.306,0.469,0.306s-0.277,0.241-0.543,0.203c-0.266-0.036-0.664-0.37-0.664-0.37
	s-0.146-0.496-0.07-0.754C33.588,28.354,33.922,28.203,33.922,28.203z"/>
<path fill="#529320" d="M33.156,28.675c0,0,0.006,0.341-0.066,0.591l0.014-0.004c0.365-0.117,0.961-0.029,0.961-0.029
	s-0.428,0.415-0.789,0.535c0.195,0.164,0.373,0.415,0.373,0.415s-0.328,0.161-0.576,0.058c-0.248-0.104-0.545-0.529-0.545-0.529
	s-0.012-0.516,0.127-0.746C32.795,28.735,33.156,28.675,33.156,28.675z"/>
<path fill="#594640" d="M35.307,25.647c-1.033,0-2.205,1.182-3.307,1.182c-1.104,0-2.273-1.182-3.309-1.182
	c-1.033,0-4.961,1.182-4.961,1.182c5.514,0,8.27,2.953,8.27,2.953s2.756-2.953,8.27-2.953C40.27,26.829,36.34,25.647,35.307,25.647z
	"/>
<circle fill="#F5F5F5" cx="32" cy="26.336" r="0.689"/>
<path fill="#FFE000" d="M27.223,32.198l0.596,0.493l0.279-0.564l0.053-0.346c-0.041-0.991-0.02-1.965-0.02-1.965l0.176,0.128
	c-0.195-0.164-0.426-0.356-0.67-0.561l-0.395-0.324C27.242,29.059,27.234,31.145,27.223,32.198z"/>
<path fill="#529320" d="M28.15,31.78l0.592-1.471l-0.611-0.494C28.131,29.816,28.109,30.79,28.15,31.78z"/>
<path fill="#D52B1E" d="M27.242,29.059l0.395,0.324c-0.717-0.601-1.557-1.305-1.984-1.666c-0.08-0.067-0.098,1.436-0.088,3.11
	l1.658,1.371C27.234,31.144,27.242,29.059,27.242,29.059z"/>
<path fill="#FFE000" d="M36.777,32.198l-0.598,0.493L35.9,32.127l-0.053-0.346c0.043-0.991,0.02-1.965,0.02-1.965l-0.174,0.128
	c0.193-0.164,0.424-0.356,0.668-0.561l0.396-0.324C36.758,29.059,36.764,31.145,36.777,32.198z"/>
<path fill="#529320" d="M35.848,31.78l-0.592-1.471l0.611-0.494C35.867,29.816,35.889,30.79,35.848,31.78z"/>
<path fill="#D52B1E" d="M36.756,29.059l-0.395,0.324c0.719-0.601,1.559-1.305,1.984-1.666c0.08-0.067,0.098,1.436,0.09,3.11
	l-1.658,1.371C36.764,31.144,36.756,29.059,36.756,29.059z"/>
<path fill="#D52B1E" d="M27.762,38.037c-1.332-0.701-1.551-2.844-1.529-3.137c0.02-0.291,0.031-3.714,0.031-3.714l0.395,0.325
	c-0.717-0.601-1.557-1.306-1.984-1.667c-0.137-0.116-0.039,4.484-0.039,6.527c0,0.957,0.715,4.334,4.906,2.635
	c0,0,2.094-0.629,2.705-1.387c-0.143,0-0.283-0.008-0.422-0.021l-0.203,0.08C29.203,39.039,27.762,38.037,27.762,38.037
	L27.762,38.037z"/>
<path fill="#FFE000" d="M26.232,34.9c-0.021,0.293,0.197,2.436,1.529,3.137c0,0,1.443,1.002,3.859-0.359
	c-0.73,0.252-1.328,0.305-1.717,0.209c-1.17-0.289-2.406-1.418-2.602-2.559c-0.199-1.143-0.15-3.386-0.15-3.386l0.176,0.128
	c-0.193-0.163-0.424-0.355-0.67-0.56l-0.395-0.325C26.264,31.186,26.252,34.609,26.232,34.9z"/>
<path fill="#529320" d="M27.943,33.422c-0.012-0.104-0.021-0.471-0.021-0.872c-0.275-0.231,0.053,0.052-0.59-0.485l-0.18-0.153
	v0.073c-0.006,0.311-0.033,2.293,0.148,3.344c0.197,1.143,1.4,2.27,2.568,2.559c0.391,0.096,1.021,0.043,1.752-0.209l0.148-0.086
	C29.656,37.34,28.199,35.693,27.943,33.422z"/>
<path fill="#D52B1E" d="M36.236,38.115c1.332-0.703,1.551-2.846,1.531-3.137c-0.021-0.293-0.033-3.715-0.033-3.715l-0.395,0.324
	c0.719-0.601,1.559-1.306,1.984-1.667c0.137-0.115,0.039,4.483,0.039,6.526c0,0.957-0.715,4.336-4.906,2.635
	c0,0-2.094-0.627-2.705-1.385c0.143,0,0.283-0.008,0.422-0.023l0.205,0.08C34.795,39.115,36.236,38.115,36.236,38.115z"/>
<path fill="#FFE000" d="M37.768,34.979c0.02,0.291-0.199,2.434-1.531,3.137c0,0-1.441,1-3.859-0.361
	c0.73,0.252,1.328,0.307,1.719,0.209c1.168-0.289,2.404-1.416,2.602-2.559s0.148-3.385,0.148-3.385l-0.176,0.128
	c0.195-0.164,0.426-0.355,0.668-0.56l0.396-0.324C37.734,31.263,37.746,34.686,37.768,34.979z"/>
<path fill="#529320" d="M36.055,33.5c0.012-0.104,0.021-0.473,0.021-0.874c0.275-0.23-0.051,0.052,0.59-0.484l0.18-0.153v0.073
	c0.006,0.31,0.033,2.292-0.148,3.343c-0.197,1.143-1.398,2.271-2.568,2.559c-0.389,0.098-1.02,0.043-1.752-0.209l-0.148-0.086
	C34.342,37.418,35.801,35.77,36.055,33.5z"/>
<ellipse fill="#0FB4D4" cx="31.999" cy="33.277" rx="4.235" ry="4.906"/>
<path fill="#F59E01" d="M35.457,33.434c0,2.266-6.916,2.266-6.916,0c0-2.264,1.549-4.099,3.459-4.099
	C33.908,29.335,35.457,31.17,35.457,33.434z"/>
<ellipse fill="#D52B1E" cx="31.911" cy="31.631" rx="1.667" ry="1.429"/>
<path fill="#529320" d="M31.816,31.284c-1.037,0.023-3.275,2.19-3.275,2.19c0,2.105,1.549,3.813,3.459,3.813
	c1.908,0,3.457-1.707,3.457-3.813C35.457,33.475,32.93,31.26,31.816,31.284z"/>
<rect x="32.332" y="35.023" fill="#F59E01" width="0.852" height="1.443"/>
<rect x="33.578" y="33.428" fill="#F5F5F5" width="0.457" height="2.771"/>
<path opacity="0.1" fill="#1A1626" d="M50.736,8.591c4.096,5.13,6.563,11.622,6.563,18.701c0,16.569-13.43,30.003-29.994,30.003
	c-7.102,0-13.611-2.477-18.746-6.594C14.053,57.58,22.502,62,32.002,62c16.566,0,29.994-13.432,29.994-30
	C61.996,22.527,57.594,14.09,50.736,8.591z"/>
<path opacity="0.3" fill-rule="evenodd" clip-rule="evenodd" fill="#FFFFFF" d="M9.734,19.015c0.549,3.865,7.766-3.7,15.08-10.202
	C29.531,4.63,8.082,7.385,9.734,19.015z"/>
</svg>
