<?xml version="1.0" encoding="utf-8"?>
<!-- Generator: Adobe Illustrator 15.0.0, SVG Export Plug-In . SVG Version: 6.00 Build 0)  -->
<!DOCTYPE svg PUBLIC "-//W3C//DTD SVG 1.1//EN" "http://www.w3.org/Graphics/SVG/1.1/DTD/svg11.dtd">
<svg version="1.1" id="Layer_1" xmlns="http://www.w3.org/2000/svg" xmlns:xlink="http://www.w3.org/1999/xlink" x="0px" y="0px"
	 width="64px" height="64px" viewBox="0 0 64 64" enable-background="new 0 0 64 64" xml:space="preserve">
<path fill="#014D87" d="M32,2v10H12v20H2c0,16.568,13.432,30,30,30s30-13.432,30-30S48.568,2,32,2z"/>
<path fill="#F5F5F5" d="M32,2c-4.694,0-9.132,1.088-13.088,3.012v3.127V11H11v2.912V14v4.912H5.011C3.088,22.869,2,27.305,2,32h12
	V17l12,15h6v-7.5L23.601,14H32V2z"/>
<polygon fill="#E81C27" points="15.429,14 30,32 32,32 32,27.059 21.429,14 "/>
<path fill="#E81C27" d="M32,5H18.912C12.857,7.939,7.94,12.857,5,18.912V32h6V11h21V5z"/>
<polygon fill="#F5F5F5" points="8,35.715 10.226,33 9.542,36.477 13,36.568 9.923,38.189 12.009,41.019 8.855,39.563 8,43 
	7.145,39.563 3.991,41.019 6.077,38.189 3,36.568 6.458,36.477 5.774,33 "/>
<polygon fill="#F5F5F5" points="52,20.172 53.78,18 53.233,20.781 56,20.855 53.538,22.152 55.208,24.415 52.685,23.25 52,26 
	51.315,23.25 48.792,24.415 50.462,22.152 48,20.855 50.767,20.781 50.22,18 "/>
<polygon fill="#F5F5F5" points="52,40.172 53.78,38 53.233,40.781 56,40.855 53.538,42.152 55.208,44.415 52.685,43.25 52,46 
	51.315,43.25 48.792,44.415 50.462,42.152 48,40.855 50.767,40.781 50.22,38 "/>
<polygon fill="#F5F5F5" points="42,26.172 43.78,24 43.233,26.781 46,26.855 43.538,28.152 45.208,30.415 42.685,29.25 42,32 
	41.315,29.25 38.792,30.415 40.462,28.152 38,26.855 40.767,26.781 40.22,24 "/>
<path opacity="0.15" fill="#1A1626" d="M50.737,8.591c4.096,5.13,6.563,11.622,6.563,18.701c0,16.568-13.43,30.003-29.995,30.003
	c-7.101,0-13.61-2.478-18.745-6.594C14.054,57.58,22.502,62,32.003,62c16.566,0,29.994-13.432,29.994-30
	C61.997,22.527,57.595,14.09,50.737,8.591z"/>
<path opacity="0.3" fill-rule="evenodd" clip-rule="evenodd" fill="#FFFFFF" d="M9.734,19.015c0.549,3.865,7.767-3.7,15.08-10.202
	C29.531,4.63,8.083,7.385,9.734,19.015z"/>
</svg>
