<?xml version="1.0" encoding="utf-8"?>
<!-- Generator: Adobe Illustrator 15.0.0, SVG Export Plug-In . SVG Version: 6.00 Build 0)  -->
<!DOCTYPE svg PUBLIC "-//W3C//DTD SVG 1.1//EN" "http://www.w3.org/Graphics/SVG/1.1/DTD/svg11.dtd">
<svg version="1.1" id="Layer_1" xmlns="http://www.w3.org/2000/svg" xmlns:xlink="http://www.w3.org/1999/xlink" x="0px" y="0px"
	 width="64px" height="64px" viewBox="0 0 64 64" enable-background="new 0 0 64 64" xml:space="preserve">
<path fill="#F5F5F5" d="M26.815,6.057h-0.01h-0.012c-3.609,0-4.713-0.965-6.793-1.555c-2.398,1.047-4.631,2.4-6.652,4.008
	c0.807-0.184,1.773-0.309,3.061-0.309h0.012h0.01c5.188,0,5.193,1.998,10.375,2c5.182-0.002,5.188-2,10.377-2h0.012h0.01
	c5.189,0,5.193,1.998,10.375,2c2.006,0,3.236-0.301,4.291-0.668c-1.486-1.316-3.105-2.486-4.834-3.49
	c-4.65-0.135-4.85-1.982-9.842-1.986C32.009,4.061,32.005,6.057,26.815,6.057z"/>
<path fill="#014D87" d="M47.579,10.201h-0.012c-5.188,0-5.191-1.996-10.373-2c-5.186,0.004-5.189,2-10.379,2h-0.01h-0.012
	c-5.188,0-5.17,4.143,0.012,4.145c5.182-0.002,5.188-1.998,10.377-1.998h0.012h0.01c5.189,0,5.193,1.996,10.375,1.998
	c3.91-0.002,4.875-1.137,7.34-1.695c-0.938-1.109-1.955-2.15-3.043-3.113c-1.055,0.365-2.283,0.664-4.287,0.664H47.579z"/>
<path fill="#014D87" d="M37.183,4.057h0.012h0.01c4.996,0,5.199,1.846,9.832,1.986C42.614,3.477,37.481,2,31.999,2
	c-4.264,0-8.803,4.055-5.193,4.057C31.987,6.055,31.993,4.057,37.183,4.057z"/>
<path fill="#F5F5F5" d="M47.579,14.346l-0.012,0.002c-5.188,0-5.191-1.998-10.373-2c-5.186,0.002-5.189,2-10.379,2l-0.01-0.002
	l-0.012,0.002c-5.188,0-5.193-1.998-10.373-2c-4.514,0.002-5.105,1.514-8.607,1.906c-0.975,1.326-1.838,2.736-2.588,4.215
	c0.246,0.014,0.5,0.021,0.771,0.021l0.035,0.002c5.188-0.002,5.188-2,10.377-2h0.012h0.01c5.188,0,5.193,1.996,10.375,2
	c5.182-0.004,5.188-2,10.377-2h0.012h0.01c5.189,0,5.193,1.996,10.375,2c5.088-0.004,5.199-1.922,10.109-1.994
	c-0.82-1.357-1.748-2.641-2.768-3.846c-2.455,0.561-3.422,1.695-7.332,1.695L47.579,14.346z"/>
<path fill="#014D87" d="M47.579,18.492h-0.012c-5.188,0-5.191-1.998-10.373-2c-5.186,0.002-5.189,2-10.379,2h-0.01h-0.012
	c-5.188,0-5.17,4.143,0.012,4.145c5.182-0.002,5.188-2,10.377-2h0.012h0.01c5.189,0,5.193,1.998,10.375,2
	c5.184-0.002,5.189-2,10.381-2h0.006h0.004l0.031,0.002c0.686,0,1.275,0.033,1.801,0.086c-0.598-1.469-1.301-2.883-2.113-4.227
	c-4.898,0.074-5.008,1.994-10.1,1.994H47.579z"/>
<path fill="#F5F5F5" d="M57.966,20.637c-5.186,0.002-5.188,2-10.377,2h-0.01h-0.012c-5.188,0-5.191-1.996-10.373-2
	c-5.186,0.004-5.189,2-10.379,2h-0.01h-0.012c-5.188,0-5.193-1.996-10.373-2c-5.186,0.004-5.189,2-10.383,2H6.032H6.028H5.997
	c-0.977-0.002-1.768-0.064-2.443-0.168C3.136,23.717,2.796,25,2.544,26.314c0.891,0.268,1.955,0.463,3.453,0.467h0.035
	c5.188,0,5.188-2,10.377-2h0.012h0.01c5.188,0,5.193,1.998,10.375,2c5.182-0.002,5.188-2,10.377-2h0.012h0.01
	c5.189,0,5.193,1.998,10.375,2c5.184-0.002,5.189-2,10.381-2h0.006h0.004l0.031,0.002c1.363,0.002,2.361,0.123,3.189,0.305
	c-0.352-1.49-0.813-2.939-1.377-4.336c-0.531-0.07-1.125-0.113-1.813-0.113L57.966,20.637z"/>
<path fill="#014D87" d="M57.966,24.781c-5.186,0.002-5.188,2-10.377,2h-0.01h-0.012c-5.188,0-5.191-1.996-10.373-2
	c-5.186,0.004-5.189,2-10.379,2h-0.01h-0.012c-5.188,0-5.17,4.143,0.012,4.146c5.182-0.004,5.188-2,10.377-2h0.012h0.01
	c5.189,0,5.193,1.996,10.375,2c5.184-0.004,5.189-2,10.381-2h0.006h0.004h0.031c1.762,0.004,2.916,0.205,3.881,0.48
	c-0.123-1.441-0.35-2.854-0.67-4.229c-0.842-0.232-1.848-0.395-3.211-0.396L57.966,24.781z"/>
<path fill="#F5F5F5" d="M57.966,28.928c-5.186,0.002-5.188,2-10.377,2h-0.01h-0.012c-5.188,0-5.191-1.998-10.373-2
	c-5.186,0.002-5.189,2-10.379,2h-0.01h-0.012c-5.188,0-5.193-1.998-10.373-2c-5.186,0.002-5.189,2-10.383,2H6.032H6.028
	l-0.031-0.002c-1.809-0.002-2.977-0.215-3.957-0.5C2.015,30.947,1.999,31.473,1.999,32c0,0.83,0.043,1.652,0.109,2.465
	c0.977,0.338,2.139,0.604,3.889,0.607h0.035c5.188,0,5.188-2,10.377-2h0.012h0.01c5.188,0,5.193,1.998,10.375,2
	c5.182-0.002,5.188-2,10.377-2h0.012h0.01c5.189,0,5.193,1.998,10.375,2c5.184-0.002,5.189-2,10.381-2h0.006h0.004h0.031
	c1.809,0.004,2.979,0.217,3.957,0.502c0.027-0.521,0.043-1.047,0.043-1.574c0-0.83-0.043-1.65-0.109-2.465
	c-0.979-0.338-2.141-0.604-3.891-0.607H57.966z"/>
<path fill="#014D87" d="M57.966,33.072c-5.186,0.002-5.188,2-10.377,2h-0.01h-0.012c-5.188,0-5.191-1.998-10.373-2
	c-5.186,0.002-5.189,2-10.379,2h-0.01h-0.012c-5.188,0-5.193-1.998-10.373-2c-5.186,0.002-5.189,2-10.383,2H6.032H6.028H5.997
	c-1.762-0.004-2.914-0.205-3.879-0.479c0.123,1.441,0.35,2.852,0.67,4.229c0.84,0.23,1.846,0.393,3.209,0.395l0.035,0.002
	c5.188-0.002,5.188-2,10.377-2h0.012h0.01c5.188,0,5.193,1.996,10.375,2c5.182-0.004,5.188-2,10.377-2h0.012h0.01
	c5.189,0,5.193,1.996,10.375,2c5.184-0.004,5.189-2,10.381-2h0.006h0.004h0.031c1.521,0.004,2.588,0.154,3.471,0.371
	c0.24-1.27,0.404-2.568,0.479-3.889c-0.99-0.348-2.164-0.625-3.949-0.629H57.966z"/>
<path fill="#F5F5F5" d="M57.966,37.219c-5.186,0.002-5.188,2-10.377,2h-0.01h-0.012c-5.188,0-5.191-1.998-10.373-2
	c-5.186,0.002-5.189,2-10.379,2h-0.01h-0.012c-5.188,0-5.193-1.998-10.373-2c-5.186,0.002-5.189,2-10.383,2H6.032H6.028
	l-0.031-0.002c-1.361-0.002-2.359-0.123-3.189-0.305c0.354,1.492,0.814,2.939,1.379,4.336c0.531,0.07,1.125,0.113,1.811,0.115h0.035
	c5.188-0.002,5.188-2,10.377-2h0.012h0.01c5.188,0,5.193,1.998,10.375,2c5.182-0.002,5.188-2,10.377-2h0.012h0.01
	c5.189,0,5.193,1.998,10.375,2c5.184-0.002,5.189-2,10.381-2h0.006h0.004l0.031,0.002c0.979,0,1.77,0.064,2.445,0.166
	c0.418-1.248,0.756-2.531,1.01-3.846c-0.891-0.268-1.957-0.463-3.455-0.467H57.966z"/>
<path fill="#014D87" d="M57.966,41.363c-5.186,0.002-5.188,2-10.377,2h-0.01h-0.012c-5.188,0-5.191-1.996-10.373-2
	c-5.186,0.004-5.189,2-10.379,2h-0.01h-0.012c-5.188,0-5.193-1.996-10.373-2c-5.186,0.004-5.189,2-10.383,2H6.032H6.028H5.997
	c-0.684-0.002-1.273-0.033-1.799-0.088c0.596,1.469,1.301,2.883,2.111,4.227c4.898-0.074,5.01-1.994,10.1-1.994h0.012h0.01
	c5.188,0,5.193,1.998,10.375,2c5.182-0.002,5.188-2,10.377-2h0.012h0.01c5.189,0,5.193,1.998,10.375,2c5.184-0.002,5.189-2,10.381-2
	h0.006h0.004l0.031,0.002c0.273,0,0.529,0.006,0.775,0.016c0.641-1.268,1.195-2.586,1.654-3.949
	c-0.676-0.129-1.465-0.211-2.43-0.211L57.966,41.363z"/>
<path fill="#F5F5F5" d="M57.966,45.508c-5.186,0.002-5.188,2-10.377,2h-0.01h-0.012c-5.188,0-5.191-1.996-10.373-2
	c-5.186,0.004-5.189,2-10.379,2h-0.01h-0.012c-5.188,0-5.193-1.996-10.373-2c-5.09,0.004-5.199,1.922-10.109,1.994
	c0.82,1.357,1.748,2.641,2.766,3.846c2.457-0.561,3.424-1.693,7.332-1.693h0.012h0.01c5.188,0,5.193,1.996,10.375,1.998
	c5.182-0.002,5.188-1.998,10.377-1.998h0.012h0.01c5.189,0,5.193,1.996,10.375,1.998c4.514-0.002,5.104-1.514,8.605-1.906
	c0.975-1.326,1.84-2.736,2.59-4.215c-0.246-0.014-0.5-0.021-0.773-0.021L57.966,45.508z"/>
<path fill="#014D87" d="M47.579,51.652l-0.012,0.002c-5.188,0-5.191-1.998-10.373-2c-5.186,0.002-5.189,2-10.379,2l-0.01-0.002
	l-0.012,0.002c-5.188,0-5.193-1.998-10.373-2c-3.91,0.002-4.877,1.137-7.34,1.695c0.938,1.109,1.955,2.15,3.043,3.113
	c1.053-0.365,2.281-0.664,4.285-0.664h0.012h0.01c5.188,0,5.193,1.996,10.375,2c5.182-0.004,5.188-2,10.377-2h0.012h0.01
	c5.189,0,5.193,1.996,10.375,2c1.295-0.002,2.268-0.127,3.078-0.314c2.086-1.658,3.947-3.586,5.527-5.736
	c-3.49,0.395-4.082,1.906-8.596,1.906L47.579,51.652z"/>
<path fill="#F5F5F5" d="M47.579,55.799h-0.012c-5.188,0-5.191-1.998-10.373-2c-5.186,0.002-5.189,2-10.379,2h-0.01h-0.012
	c-5.188,0-5.193-1.998-10.373-2c-2.008,0.002-3.236,0.301-4.293,0.668c1.488,1.316,3.107,2.486,4.836,3.49
	c4.648,0.135,4.848,1.984,9.842,1.986c5.182-0.002,5.188-2,10.377-2h0.012h0.01c3.611,0,4.713,0.967,6.793,1.555
	c2.398-1.047,4.631-2.4,6.654-4.008c-0.809,0.186-1.775,0.309-3.063,0.309H47.579z"/>
<path fill="#014D87" d="M26.815,59.943h-0.01h-0.012c-4.996,0-5.197-1.846-9.83-1.986C21.386,60.523,26.519,62,31.999,62
	c4.264,0,8.318-0.895,11.99-2.498c-2.086-0.588-3.188-1.557-6.795-1.559C32.009,57.947,32.005,59.943,26.815,59.943z"/>
<path fill="#529320" d="M54.437,24.646l3.938,0.053c-0.996-1.764-4.336-1.863-7-1.432c1.676-0.531,3.74-1.111,4.066-1.174
	c-0.826-0.611-4.285-2.754-8.689,1.605l-0.07,0.002c-4.402-4.363-7.865-2.219-8.693-1.607c0.328,0.063,2.393,0.643,4.072,1.174
	c-2.668-0.432-6.01-0.332-7.006,1.432l3.939-0.053c-1.646,0.787-2.545,0.869-2.785,2.805c0.096-0.039,2.141-0.584,4.238-1.135
	c-1.143,0.568-2.16,1.262-2.623,1.971c1.865,0.146,3.508-0.357,4.75-0.953c-0.77,0.988-1.25,2.066-1.18,2.689
	c0.926-0.166,1.883-0.961,2.664-1.795c-0.475,1.826-0.438,3.688,0.088,4.445c0.766-0.592,1.32-1.613,1.725-2.711l-0.053,1.068h1.65
	l-0.066-1.514c0.414,1.256,1.018,2.486,1.883,3.156c0.525-0.758,0.563-2.619,0.092-4.445c0.777,0.834,1.732,1.629,2.66,1.795
	c0.074-0.623-0.41-1.701-1.18-2.689c1.242,0.596,2.885,1.1,4.75,0.953c-0.463-0.709-1.48-1.402-2.619-1.971
	c2.094,0.551,4.139,1.096,4.236,1.135C56.979,25.516,56.083,25.434,54.437,24.646z"/>
<rect x="45.386" y="28.229" fill="#E81C27" width="2.662" height="21.762"/>
<path fill="#FFE12C" d="M40.333,42.119l2.182,2.316l8.143-0.008l2.211-2.309l0.232-3.402l-5.307-1.623l0.463-0.412l-1.658-1.025
	l-1.656,1.025l0.465,0.412l-4.779,1.189L40.333,42.119z M51.841,39.316l-1.34,1.967l-1.334-0.477l-1.586-0.258l0.016-2.947
	L51.841,39.316z M41.358,39.316l4.221-1.686l0.039,2.918l-1.584,0.258L42.7,41.283L41.358,39.316z"/>
<rect x="10.999" y="11" fill="#014D87" width="21" height="21"/>
<polygon fill="#F5F5F5" points="18.911,8.139 18.911,14 11.599,14 25.999,32 31.999,32 31.999,24.5 "/>
<path fill="#F5F5F5" d="M10.999,18.912H5.011C3.087,22.869,1.999,27.305,1.999,32h12V13.912h-3V18.912z"/>
<polygon fill="#E81C27" points="31.999,27.059 18.999,11 12.999,11 29.999,32 31.999,32 "/>
<path fill="#F5F5F5" d="M18.911,5.012V11h-7.912v3h21V2C27.306,2,22.868,3.088,18.911,5.012z"/>
<path fill="#E81C27" d="M31.999,5H18.911C12.856,7.939,7.94,12.857,4.999,18.912V32h6V11h21V5z"/>
<path fill="#D8A322" d="M21.876,5.906l-0.004,0.006L21.876,5.906z"/>
<path fill="#D8A322" d="M21.87,5.918l-0.035,0.08L21.87,5.918z"/>
<path opacity="0.1" fill="#1A1626" d="M50.737,8.591c4.098,5.13,6.563,11.622,6.563,18.701c0,16.568-13.428,30.003-29.994,30.003
	c-7.1,0-13.609-2.478-18.744-6.594C14.056,57.58,22.503,62,32.005,62c16.564,0,29.994-13.432,29.994-30
	C61.999,22.527,57.597,14.09,50.737,8.591z"/>
<path opacity="0.3" fill-rule="evenodd" clip-rule="evenodd" fill="#FFFFFF" d="M9.735,19.015c0.549,3.865,7.768-3.7,15.08-10.202
	C29.532,4.63,8.085,7.385,9.735,19.015z"/>
</svg>
