<?xml version="1.0" encoding="utf-8"?>
<!-- Generator: Adobe Illustrator 15.0.0, SVG Export Plug-In . SVG Version: 6.00 Build 0)  -->
<!DOCTYPE svg PUBLIC "-//W3C//DTD SVG 1.1//EN" "http://www.w3.org/Graphics/SVG/1.1/DTD/svg11.dtd">
<svg version="1.1" id="Layer_1" xmlns="http://www.w3.org/2000/svg" xmlns:xlink="http://www.w3.org/1999/xlink" x="0px" y="0px"
	 width="64px" height="64px" viewBox="0 0 64 64" enable-background="new 0 0 64 64" xml:space="preserve">
<path fill="#E81C27" d="M60,42c-5.523,0-10-4.477-10-10H10.787v21.213l-0.002-0.002C16.215,58.641,23.715,62,32,62
	c13.066,0,24.176-8.357,28.291-20.016C60.193,41.988,60.098,42,60,42z"/>
<path fill="#529320" d="M60,22c0.098,0,0.193,0.012,0.291,0.014C56.176,10.355,45.066,2,32,2c-8.285,0-15.785,3.357-21.215,8.787
	h0.002V32H50C50,26.477,54.477,22,60,22z"/>
<path fill="#F5F5F5" d="M60.287,22h-49.5v20h49.5C61.393,38.871,62,35.508,62,32S61.393,25.129,60.287,22z"/>
<path fill="#006DAE" d="M10.787,10.787C5.357,16.215,2,23.715,2,32c0,8.283,3.357,15.783,8.787,21.213L21,32L10.787,10.787z"/>
<path fill="#FFE12C" d="M33.65,24.102l-0.584,0.027l-0.291,0.523l-0.318-0.5l-0.586,0.023l0.266-0.525l-0.318-0.498l0.611-0.027
	l0.266-0.523l0.318,0.5l0.584-0.023l-0.266,0.525L33.65,24.102z"/>
<path fill="#FFE12C" d="M31.154,24.295l-0.584,0.145l-0.158,0.564l-0.426-0.424l-0.557,0.139l0.158-0.566l-0.396-0.43l0.557-0.141
	l0.16-0.568l0.424,0.424l0.584-0.137l-0.186,0.568L31.154,24.295z"/>
<path fill="#FFE12C" d="M28.738,24.793l-0.529,0.262l-0.027,0.59l-0.506-0.324l-0.529,0.26l0.053-0.588l-0.504-0.326l0.531-0.266
	l0.053-0.59l0.479,0.322l0.529-0.26l-0.025,0.59L28.738,24.793z"/>
<path fill="#FFE12C" d="M34.42,24.102l0.584,0.027l0.266,0.523l0.32-0.5l0.582,0.023l-0.264-0.525l0.318-0.498l-0.584-0.027
	l-0.293-0.523l-0.318,0.5l-0.584-0.023l0.266,0.525L34.42,24.102z"/>
<path fill="#FFE12C" d="M36.916,24.295l0.559,0.145l0.158,0.564l0.426-0.424l0.557,0.139l-0.158-0.566l0.424-0.43l-0.584-0.141
	l-0.158-0.568l-0.426,0.424l-0.557-0.137l0.158,0.568L36.916,24.295z"/>
<path fill="#FFE12C" d="M39.307,24.793l0.529,0.262l0.027,0.59l0.504-0.324l0.531,0.26l-0.025-0.588l0.479-0.326L40.818,24.4
	l-0.025-0.59l-0.504,0.322l-0.531-0.26l0.053,0.59L39.307,24.793z"/>
<path fill="#302C3B" d="M28.898,25.594h10.168v10.652c0,3.584-4.672,0.822-5.07,2.734c-0.689-1.965-5.072,0.877-5.072-2.947
	C28.924,32.316,28.898,25.594,28.898,25.594z"/>
<path fill="#F5F5F5" d="M29.297,26.119h9.371v9.816c0,3.303-4.305,0.76-4.672,2.521c-0.637-1.813-4.676,0.807-4.676-2.717
	C29.32,32.314,29.297,26.119,29.297,26.119z"/>
<path fill="#785647" d="M35.35,29.98l-0.318-0.266c0,0-0.309,0.135-0.729,0.537c0.02-0.227,0.041-0.459,0.064-0.697h-0.479
	l-0.008,0.73c-0.057-0.074-0.344-0.449-0.654-0.543l-0.055,0.424c0.904,0.479,0.479,4.859-0.504,6.85h2.443
	C34.021,33.498,34.156,30.592,35.35,29.98z"/>
<path fill="#529320" d="M35.457,27.75c0.158-0.186,0.158-0.186,0.451-0.186c0.053-0.398,0.715-0.398,0.77,0.105
	c0.529-0.105,0.637,0.213,0.424,0.531c0.504-0.133,0.957,0,0.824,0.584c0.902,0.238,0.557,0.877,0.158,1.01
	c-0.053,0.398-0.424,0.531-0.928,0.371c-0.639,0.451-1.01,0.291-1.301-0.16c-0.719,0.107-0.771-0.053-1.09-0.451
	c-0.557,0.24-0.662,0.24-1.141-0.053c-0.027,0.373-0.16,0.266-0.398,0.24c0.027,0.477-0.16,0.689-0.586,0.529
	c0.32,0.664-0.504,0.957-0.902,0.398c-0.371,0.027-0.398-0.078-0.584-0.213c-0.158,0.531-0.742,0.453-0.85,0.16
	c-0.742-0.105-0.664-0.504-0.051-0.531c0.051-0.424,0.424-0.344,0.662-0.291c0.025-0.266,0.186-0.213,0.318-0.16
	c-0.08-0.186-0.025-0.291,0.213-0.346c-0.346-0.451-0.133-0.609,0.213-0.77c-0.188-0.424,0.133-0.398,0.371-0.424
	c-0.027-0.451,0.105-0.531,0.584-0.586c-0.053-0.158,0.025-0.291,0.293-0.291c-0.16-0.451,0.053-0.555,0.529-0.479
	c0.08-0.654,1.486-0.344,1.381,0.559C35.217,27.352,35.35,27.432,35.457,27.75z"/>
<path fill="#BCBCBC" d="M41.377,33.525c-0.186,1.193-1.514,1.699-1.355,2.469c0.186,0.203,0.598,1.113,0.598,1.113
	c-0.303,0.443-0.518,0.742-1.553,1.17c-1.354,0.531-3.266,0.186-3.266,0.186l0.055,1.301l-3.666-0.027l0.055-1.273
	c0,0-1.912,0.346-3.266-0.186c-0.875-0.355-1.395-0.869-1.695-1.307c0,0,0.676-0.977,0.686-0.977c0.16-0.77-1.193-1.275-1.381-2.469
	c-0.105,1.963-1.061,2.652,0.156,3.316c-0.076,0.322-0.188,0.682-0.342,0.932c0.479,2.441,4.885,2.494,4.885,2.494v0.451
	c0,0.904,5.471,0.904,5.471,0v-0.451c0,0,4.406-0.053,4.857-2.494c-0.248-0.402-0.346-0.93-0.346-0.93
	C42.492,36.152,41.482,35.49,41.377,33.525z"/>
<path opacity="0.1" fill="#1A1626" d="M50.738,8.59c4.096,5.131,6.563,11.623,6.563,18.701c0,16.568-13.43,30.004-29.996,30.004
	c-7.1,0-13.609-2.479-18.744-6.594C14.055,57.58,22.504,62,32.004,62c16.566,0,29.994-13.432,29.994-30
	C61.998,22.527,57.596,14.09,50.738,8.59z"/>
<path opacity="0.3" fill-rule="evenodd" clip-rule="evenodd" fill="#FFFFFF" d="M9.734,19.014c0.549,3.865,7.768-3.699,15.08-10.201
	C29.531,4.629,8.084,7.385,9.734,19.014z"/>
</svg>
