<?xml version="1.0" encoding="utf-8"?>
<!-- Generator: Adobe Illustrator 15.0.0, SVG Export Plug-In . SVG Version: 6.00 Build 0)  -->
<!DOCTYPE svg PUBLIC "-//W3C//DTD SVG 1.1//EN" "http://www.w3.org/Graphics/SVG/1.1/DTD/svg11.dtd">
<svg version="1.1" id="Layer_1" xmlns="http://www.w3.org/2000/svg" xmlns:xlink="http://www.w3.org/1999/xlink" x="0px" y="0px"
	 width="64px" height="64px" viewBox="0 0 64 64" enable-background="new 0 0 64 64" xml:space="preserve">
<rect x="12" y="12" fill="#014D87" width="20" height="20"/>
<polygon fill="#F5F5F5" points="18.912,8.14 18.912,14 11.6,14 26,32 32,32 32,24.5 "/>
<path fill="#E81C27" d="M32,2v30H2c0,16.568,13.432,30,30,30s30-13.432,30-30S48.568,2,32,2z"/>
<path fill="#F5F5F5" d="M11,18.912H5.012C3.088,22.869,2,27.306,2,32h12V13.912h-3V18.912z"/>
<polygon fill="#E81C27" points="32.465,27.642 19,11 13,11 30.465,32.583 32.465,32.583 "/>
<path fill="#F5F5F5" d="M18.912,5.012V11H11v3h21V2C27.307,2,22.869,3.088,18.912,5.012z"/>
<path fill="#E81C27" d="M33,5H18.912C12.857,7.94,7.941,12.857,5,18.912V33h6V11h22V5z"/>
<g>
	<path fill="#302C3B" d="M47,46.987l-6.244-2.386c-1.33-0.519-3.789-1.476-3.789-4.104V21.083h20.068v19.414
		c0,2.626-2.459,3.585-3.779,4.102L47,46.987z"/>
</g>
<g>
	<path fill="#F5F5F5" d="M38.4,22.517v17.98c0,1.525,1.398,2.193,2.867,2.766L47,45.452l5.734-2.189
		c1.469-0.573,2.867-1.24,2.867-2.766v-17.98H38.4z"/>
</g>
<g>
	<path fill="#529320" d="M39.834,38.285v1.397c0,1.335,1.166,1.92,2.389,2.42L47,44.019l4.779-1.916
		c1.223-0.501,2.389-1.085,2.389-2.42v-1.397H39.834z"/>
</g>
<g>
	<path fill="#E81C27" d="M41.822,40.244c-0.422-0.17-0.264-1.528,0.09-1.813c0.271-0.217,1.389-0.117,1.389-0.117l0.465-1.107
		l1.42,0.731l-0.977,1.187c0,0-0.186,0.94-0.455,0.998c-0.127,0.027-0.264-0.357-0.395-0.344c-0.234,0.026-0.322,0.784-0.557,0.762
		c-0.254-0.025-0.178-0.892-0.432-0.928C42.164,39.583,42.016,40.321,41.822,40.244z"/>
</g>
<g>
	<path fill="#E81C27" d="M51.932,40.362c0.422-0.169,0.264-1.527-0.09-1.811c-0.271-0.219-1.389-0.118-1.389-0.118l-0.465-1.107
		l-1.422,0.729l0.979,1.188c0,0,0.188,0.941,0.455,0.999c0.127,0.027,0.264-0.358,0.395-0.345c0.232,0.026,0.322,0.785,0.557,0.763
		c0.254-0.026,0.178-0.893,0.432-0.928C51.59,39.703,51.738,40.44,51.932,40.362z"/>
</g>
<path fill="#E81C27" d="M50.359,32.209c0,0,2.367,0.274,2.918,0.792c0.609,0.572,0.938,2.773,0.314,3.329
	c-0.334,0.298-1.748-0.369-1.748-0.369l-0.025-0.74l-1.869-1.587L50.359,32.209z"/>
<path fill="#E81C27" d="M43.092,31.675c0,0-1.684,0.508-2.088,0.908c-0.643,0.641-1.359,3.065-0.609,3.576
	c0.363,0.25,1.512-0.908,1.512-0.908l1.709-1.147L43.092,31.675z"/>
<path fill="#0FB4D4" d="M43.389,33.003l-1.836-1.464c0,0-0.488-1.572,0.75-1.816c1.186-0.234,4.816-0.388,4.816-0.388
	s4.547,0.14,4.818,0.309c1.098,0.686-0.025,2.212-0.025,2.212l-1.535,1.399l1.143,2.691l-8.389-0.161L43.389,33.003z"/>
<polygon fill="#FFE12C" points="42.816,34.75 43.27,31.675 45.629,30.859 47.311,33.382 47.172,37.436 "/>
<polygon fill="#302C3B" points="45.25,35.771 45.635,33.505 48.668,32.702 50.377,35.853 47.66,37.843 "/>
<path fill="#F5F5F5" d="M42.063,35.303l0.824-0.709c0,0,1.301,0.97,1.816,1.103c0.35,0.092,1.146-0.256,1.443-0.05
	c0.23,0.159,0.09,0.971,0.354,1.063c0.57,0.201,1.43-1.218,2.025-1.306c0.346-0.052,1.025,0.524,1.342,0.381
	c0.438-0.199,0.814-1.739,0.814-1.739l1.23,1.146l-0.65,2.301l-1.713,0.396l-2.73,2.023l-2.486-2.07l-1.596-0.365L42.063,35.303z"/>
<path fill="#E81C27" d="M42.303,29.722c0,0-0.869-0.45-0.734-0.715c0.215-0.416,1.418-0.42,1.852-0.249
	c0.166,0.066,0.453,0.556,0.453,0.556l1.189-0.313l0.109-0.827c0,0-0.557-0.401-0.527-0.599c0.037-0.276,0.943-0.602,0.943-0.602
	s-0.926-0.12-0.943-0.374c-0.014-0.188,0.652-0.373,0.652-0.373s-0.451-0.549-0.324-0.691c0.113-0.125,0.637,0.218,0.637,0.218
	s-0.256-0.586-0.193-0.776c0.055-0.167,0.541-0.453,0.541-0.453s0.018-0.739,0.244-0.82c0.133-0.048,0.84,0.176,0.84,0.176
	s0.465-0.458,0.578-0.469c0.162-0.015,0.314,0.504,0.314,0.504s0.572-0.227,0.633-0.212c0.148,0.034,0.098,0.905,0.098,0.905
	s0.424,0.16,0.459,0.291c0.039,0.159-0.318,0.581-0.318,0.581s0.674-0.04,0.75,0.134c0.074,0.164-0.377,0.612-0.377,0.612
	s0.549,0.376,0.516,0.564c-0.035,0.189-0.686,0.353-0.686,0.353s0.633,0.407,0.592,0.618c-0.029,0.155-0.576,0.262-0.576,0.262
	l0.375,0.735l0.805,0.513c0,0,1.293-0.539,1.742-0.481c0.154,0.02,0.482,0.169,0.543,0.314c0.08,0.196-0.551,0.539-0.551,0.539
	l-0.711,0.777l-2.832-0.877l-3.223,0.148l-2.078,0.891L42.303,29.722z"/>
<path fill="#FFE12C" d="M42.303,29.722c0,0,0.639,1.065,1.084,1.097c0.545,0.04,2.035-0.79,2.035-0.79s-0.029,0.291,0.037,0.35
	c0.545,0.489,2.455,0.554,2.936,0c0.1-0.116-0.088-0.605-0.088-0.605s2.174,0.866,2.924,0.765c0.33-0.045,0.707-0.896,0.707-0.896
	s-0.629,0.35-0.988,0.308c-0.777-0.089-2.219-0.962-2.996-0.887c-0.193,0.018-0.67,0.397-0.67,0.397l-0.836,0.042
	c0,0-0.598-0.323-0.816-0.307c-0.609,0.042-1.635,0.892-2.24,0.972C43,30.22,42.303,29.722,42.303,29.722z"/>
<g>
	<polygon fill="#FFE12C" points="52.508,31.539 51.576,31.539 50.096,33.265 51.008,34.885 51.709,35.366 51.104,37.205 
		50.186,37.683 49.668,37.373 49.006,37.538 49.285,38.007 48.078,38.711 47.164,39.177 47.029,39.813 47.48,40.165 47.896,39.735 
		47.787,39.306 49.07,38.868 49.67,38.075 50.66,38.176 51.354,37.679 52.031,35.512 52.199,35.068 51.396,34.633 50.627,33.265 
		51.73,32.198 52.16,32.463 52.549,32.296 	"/>
</g>
<g>
	<polygon fill="#FFE12C" points="41.391,31.539 42.322,31.539 43.803,33.265 42.891,34.885 42.189,35.366 42.795,37.205 
		43.713,37.683 44.23,37.373 44.893,37.538 44.613,38.007 45.822,38.711 46.736,39.177 46.871,39.813 46.42,40.165 46.002,39.735 
		46.113,39.306 44.828,38.868 44.23,38.075 43.238,38.176 42.547,37.679 41.867,35.512 41.701,35.068 42.504,34.633 43.273,33.265 
		42.168,32.198 41.738,32.463 41.35,32.296 	"/>
</g>
<path opacity="0.1" fill="#1A1626" d="M50.738,8.591c4.096,5.13,6.563,11.622,6.563,18.701c0,16.568-13.43,30.003-29.996,30.003
	c-7.1,0-13.609-2.478-18.744-6.594C14.055,57.58,22.504,62,32.004,62c16.566,0,29.994-13.432,29.994-30
	C61.998,22.527,57.596,14.09,50.738,8.591z"/>
<path opacity="0.3" fill-rule="evenodd" clip-rule="evenodd" fill="#FFFFFF" d="M9.734,19.015c0.549,3.865,7.768-3.7,15.08-10.202
	C29.531,4.63,8.084,7.385,9.734,19.015z"/>
</svg>
