<?xml version="1.0" encoding="utf-8"?>
<!-- Generator: Adobe Illustrator 15.0.0, SVG Export Plug-In . SVG Version: 6.00 Build 0)  -->
<!DOCTYPE svg PUBLIC "-//W3C//DTD SVG 1.1//EN" "http://www.w3.org/Graphics/SVG/1.1/DTD/svg11.dtd">
<svg version="1.1" id="Layer_1" xmlns="http://www.w3.org/2000/svg" xmlns:xlink="http://www.w3.org/1999/xlink" x="0px" y="0px"
	 width="64px" height="64px" viewBox="0 0 64 64" enable-background="new 0 0 64 64" xml:space="preserve">
<path fill="#F5F5F5" d="M61.721,28c-0.137-1.016-0.314-2.019-0.551-3H2.83c-0.235,0.981-0.414,1.984-0.551,3H61.721z"/>
<path fill="#F5F5F5" d="M2.279,36c0.137,1.016,0.315,2.018,0.551,3h58.34c0.236-0.982,0.414-1.984,0.551-3H2.279z"/>
<path fill="#F5F5F5" d="M20,4.489c-1.03,0.45-2.033,0.952-3,1.513v51.997c0.967,0.561,1.97,1.063,3,1.512V4.489z"/>
<path fill="#F5F5F5" d="M28,2.263v59.475c0.986,0.133,1.984,0.23,3,0.264V2C29.984,2.033,28.986,2.131,28,2.263z"/>
<path fill="#E81C27" d="M2,32c0,1.357,0.099,2.689,0.273,4h59.453C61.902,34.689,62,33.357,62,32s-0.098-2.69-0.273-4H2.273
	C2.099,29.31,2,30.643,2,32z"/>
<path fill="#E81C27" d="M20,59.497c2.508,1.096,5.191,1.855,8,2.23V2.273c-2.809,0.375-5.492,1.135-8,2.23V59.497z"/>
<path fill="#014D87" d="M17,25V6.023C9.982,10.084,4.766,16.902,2.83,25H17z"/>
<path fill="#014D87" d="M17,39.023v18.978C9.982,53.94,4.766,47.122,2.83,39.023H17z"/>
<path fill="#014D87" d="M32,2c-0.336,0-0.666,0.015-1,0.025V25h30.17C58.016,11.81,46.158,2,32,2z"/>
<path fill="#014D87" d="M31,39v22.976c0.334,0.01,0.664,0.025,1,0.025c14.158,0,26.016-9.811,29.17-23.001H31z"/>
<path opacity="0.1" fill="#1A1626" d="M50.738,8.591c4.098,5.13,6.563,11.622,6.563,18.701c0,16.568-13.428,30.004-29.994,30.004
	c-7.101,0-13.61-2.479-18.745-6.594c5.494,6.879,13.942,11.299,23.444,11.299C48.57,62.001,62,48.569,62,32
	C62,22.527,57.598,14.09,50.738,8.591z"/>
<path opacity="0.3" fill-rule="evenodd" clip-rule="evenodd" fill="#FFFFFF" d="M9.735,19.015c0.549,3.865,7.768-3.7,15.081-10.202
	C29.533,4.63,8.085,7.385,9.735,19.015z"/>
</svg>
