<?xml version="1.0" encoding="utf-8"?>
<!-- Generator: Adobe Illustrator 15.0.0, SVG Export Plug-In . SVG Version: 6.00 Build 0)  -->
<!DOCTYPE svg PUBLIC "-//W3C//DTD SVG 1.1//EN" "http://www.w3.org/Graphics/SVG/1.1/DTD/svg11.dtd">
<svg version="1.1" id="Layer_1" xmlns="http://www.w3.org/2000/svg" xmlns:xlink="http://www.w3.org/1999/xlink" x="0px" y="0px"
	 width="64px" height="64px" viewBox="0 0 64 64" enable-background="new 0 0 64 64" xml:space="preserve">
<path fill="#A0D8E9" d="M60.913,24L60.913,24C57.411,11.316,45.797,2,32,2S6.589,11.316,3.087,24v16C6.589,52.684,18.203,62,32,62
	c13.796,0,25.41-9.316,28.913-22V24z"/>
<path fill="#F5F5F5" d="M61.577,27.012c-0.172-1.021-0.393-2.027-0.664-3.012H3.087c-0.272,0.984-0.493,1.99-0.665,3.012H61.577z"/>
<path fill="#F5F5F5" d="M2.423,36.988C2.594,38.01,2.815,39.016,3.087,40h57.826c0.271-0.984,0.492-1.99,0.664-3.012H2.423z"/>
<path fill="#302C3B" d="M2,32c0,1.705,0.149,3.373,0.423,5h59.154C61.851,35.373,62,33.705,62,32s-0.149-3.373-0.423-5H2.423
	C2.149,28.627,2,30.295,2,32z"/>
<path opacity="0.1" fill="#1A1626" d="M50.737,8.591c4.096,5.13,6.563,11.622,6.563,18.701c0,16.569-13.43,30.003-29.995,30.003
	c-7.101,0-13.61-2.477-18.745-6.594C14.054,57.58,22.503,62,32.003,62c16.566,0,29.994-13.432,29.994-30
	C61.997,22.527,57.595,14.09,50.737,8.591z"/>
<path opacity="0.3" fill-rule="evenodd" clip-rule="evenodd" fill="#FFFFFF" d="M9.734,19.015c0.549,3.865,7.767-3.7,15.08-10.202
	C29.531,4.63,8.083,7.385,9.734,19.015z"/>
</svg>
