<?xml version="1.0" encoding="utf-8"?>
<!-- Generator: Adobe Illustrator 15.0.0, SVG Export Plug-In . SVG Version: 6.00 Build 0)  -->
<!DOCTYPE svg PUBLIC "-//W3C//DTD SVG 1.1//EN" "http://www.w3.org/Graphics/SVG/1.1/DTD/svg11.dtd">
<svg version="1.1" id="Layer_1" xmlns="http://www.w3.org/2000/svg" xmlns:xlink="http://www.w3.org/1999/xlink" x="0px" y="0px"
	 width="64px" height="64px" viewBox="0 0 64 64" enable-background="new 0 0 64 64" xml:space="preserve">
<rect x="12" y="12" fill="#014D87" width="20.417" height="20.417"/>
<polygon fill="#F5F5F5" points="18.912,8.14 18.912,14 11.6,14 26,32 32,32 32,24.5 "/>
<path fill="#014D87" d="M32,2v30H2c0,16.568,13.432,30,30,30s30-13.432,30-30S48.568,2,32,2z"/>
<path fill="#F5F5F5" d="M11,18.912H5.012C3.088,22.869,2,27.306,2,32h12V13.912h-3V18.912z"/>
<polygon fill="#E81C27" points="32,27.059 19,11 13,11 30,32 32,32 "/>
<path fill="#F5F5F5" d="M18.912,5.012V11H11v3h21V2C27.307,2,22.869,3.088,18.912,5.012z"/>
<path fill="#E81C27" d="M32,5H18.912C12.857,7.94,7.941,12.857,5,18.912V32h6V11h21V5z"/>
<path fill="#F5F5F5" d="M50,33.384c-1.625,0-3-1.384-3-1.384s-1.375,1.384-3,1.384c-1.5,0-4-1.384-4-1.384s0.359,8.775,2,11.768
	C43.75,46.962,47,50,47,50s3.25-3.038,5-6.232C53.643,40.775,54,32,54,32S51.5,33.384,50,33.384z"/>
<path fill="#0FB4D4" d="M42.877,43.286c1.177,2.148,3.104,4.261,4.123,5.306c1.021-1.045,2.947-3.157,4.123-5.305L42.877,43.286z"/>
<path fill="#F59E01" d="M46.971,35.539c-0.92,0.959-0.373,3.619-1.294,2.658c-0.921-0.959-0.921-2.516,0-3.475
	c0.921-0.963,2.412-0.963,3.333,0C49.931,35.682,47.892,34.58,46.971,35.539z"/>
<path fill="#F59E01" d="M44.789,39.965c1.262,0.346,3.216-1.475,2.871-0.168c-0.342,1.303-1.645,2.082-2.91,1.736
	c-1.264-0.344-2.01-1.68-1.666-2.986C43.428,37.242,43.524,39.619,44.789,39.965z"/>
<path fill="#F59E01" d="M49.584,39.707c-0.343-1.303-2.842-2.145-1.577-2.488c1.263-0.346,2.565,0.434,2.909,1.738
	c0.346,1.305-0.401,2.643-1.666,2.986S49.928,41.014,49.584,39.707z"/>
<path opacity="0.15" fill="#1A1626" d="M50.737,8.591c4.097,5.13,6.563,11.622,6.563,18.701c0,16.568-13.429,30.003-29.995,30.003
	c-7.1,0-13.609-2.478-18.744-6.594C14.055,57.58,22.503,62,32.004,62c16.565,0,29.994-13.432,29.994-30
	C61.998,22.527,57.596,14.09,50.737,8.591z"/>
<path opacity="0.3" fill-rule="evenodd" clip-rule="evenodd" fill="#FFFFFF" d="M9.734,19.015c0.549,3.865,7.768-3.7,15.08-10.202
	C29.531,4.63,8.084,7.385,9.734,19.015z"/>
</svg>
