<?xml version="1.0" encoding="utf-8"?>
<!-- Generator: Adobe Illustrator 15.0.0, SVG Export Plug-In . SVG Version: 6.00 Build 0)  -->
<!DOCTYPE svg PUBLIC "-//W3C//DTD SVG 1.1//EN" "http://www.w3.org/Graphics/SVG/1.1/DTD/svg11.dtd">
<svg version="1.1" id="Layer_1" xmlns="http://www.w3.org/2000/svg" xmlns:xlink="http://www.w3.org/1999/xlink" x="0px" y="0px"
	 width="64px" height="64px" viewBox="0 0 64 64" enable-background="new 0 0 64 64" xml:space="preserve">
<path fill="#0FB4D4" d="M10.78,10.781c-8.698,8.698-10.93,21.406-6.712,32.173L42.955,4.068C32.188-0.149,19.479,2.082,10.78,10.781
	z"/>
<path fill="#0FB4D4" d="M53.218,53.214c8.698-8.695,10.929-21.406,6.712-32.172L21.043,59.928
	C31.81,64.145,44.519,61.914,53.218,53.214z"/>
<path fill="#E81C27" d="M53.217,10.781c-1.96-1.963-4.128-3.586-6.43-4.889L5.893,46.786c1.303,2.301,2.926,4.469,4.887,6.428
	c1.961,1.964,4.129,3.587,6.43,4.89l40.894-40.894C56.802,14.909,55.178,12.74,53.217,10.781z"/>
<path fill="#FFE12C" d="M17.21,58.104c0.61,0.346,1.227,0.674,1.855,0.973c0.65,0.311,1.31,0.592,1.977,0.852L59.93,21.042
	c-0.261-0.666-0.541-1.326-0.852-1.977c-0.3-0.629-0.628-1.246-0.974-1.855L17.21,58.104z"/>
<path fill="#FFE12C" d="M44.932,4.919c-0.65-0.311-1.311-0.592-1.977-0.852L4.068,42.954c0.261,0.668,0.542,1.328,0.853,1.979
	c0.299,0.627,0.627,1.244,0.973,1.854L46.787,5.892C46.177,5.546,45.56,5.218,44.932,4.919z"/>
<polygon fill="#FFE12C" points="17.998,19.182 21.707,21.997 20.307,17.418 23.998,14.497 19.424,14.497 17.998,9.996 
	16.613,14.497 11.997,14.497 15.689,17.418 14.289,21.997 "/>
<path opacity="0.1" fill="#1A1626" d="M50.738,8.588c4.097,5.129,6.563,11.622,6.563,18.702c0,16.57-13.43,30.005-29.998,30.005
	c-7.1,0-13.611-2.477-18.746-6.595C14.052,57.58,22.501,62,32.003,62C48.57,62,62,48.567,62,31.998
	C62,22.524,57.597,14.086,50.738,8.588z"/>
<path opacity="0.3" fill-rule="evenodd" clip-rule="evenodd" fill="#FFFFFF" d="M9.731,19.012
	c0.549,3.866,7.768-3.701,15.082-10.204C29.53,4.626,8.081,7.381,9.731,19.012z"/>
</svg>
