<?xml version="1.0" encoding="utf-8"?>
<!-- Generator: Adobe Illustrator 15.0.0, SVG Export Plug-In . SVG Version: 6.00 Build 0)  -->
<!DOCTYPE svg PUBLIC "-//W3C//DTD SVG 1.1//EN" "http://www.w3.org/Graphics/SVG/1.1/DTD/svg11.dtd">
<svg version="1.1" id="Layer_1" xmlns="http://www.w3.org/2000/svg" xmlns:xlink="http://www.w3.org/1999/xlink" x="0px" y="0px"
	 width="64px" height="64px" viewBox="0 0 64 64" enable-background="new 0 0 64 64" xml:space="preserve">
<path fill="#E81C27" d="M38,2.602V26h23.4C59.014,14.246,49.756,4.987,38,2.602z"/>
<path fill="#E81C27" d="M26,61.398V38H2.602C4.988,49.754,14.246,59.012,26,61.398z"/>
<path fill="#014D87" d="M38,38v23.398C49.756,59.012,59.014,49.754,61.4,38H38z"/>
<path fill="#014D87" d="M2.602,26H26V2.602C14.246,4.987,4.988,14.246,2.602,26z"/>
<path fill="#F5F5F5" d="M61.4,26H38V2.602C36.063,2.208,34.055,2,32,2c-2.055,0-4.062,0.208-6,0.602V26H2.602
	C2.208,27.938,2,29.945,2,32s0.208,4.061,0.601,6H26v23.398C27.939,61.793,29.946,62,32,62c2.054,0,4.062-0.207,6-0.602V38h23.4
	c0.393-1.939,0.6-3.945,0.6-6S61.793,27.938,61.4,26z"/>
<path fill="#529320" d="M28.992,29.332c0,0-0.42-0.119-0.754-0.114l0.013-0.017c0.265-0.404,0.351-1.159,0.351-1.159
	s-0.652,0.384-0.918,0.785c-0.139-0.292-0.391-0.59-0.391-0.59s-0.309,0.346-0.262,0.683c0.047,0.336,0.475,0.838,0.475,0.838
	s0.635,0.185,0.965,0.09C28.798,29.753,28.992,29.332,28.992,29.332z"/>
<path fill="#529320" d="M28.386,30.298c0,0-0.436-0.008-0.756,0.083l0.007-0.02c0.149-0.458,0.036-1.21,0.036-1.21
	s-0.529,0.539-0.682,0.994c-0.21-0.245-0.533-0.469-0.533-0.469s-0.206,0.415-0.073,0.727c0.133,0.313,0.677,0.688,0.677,0.688
	s0.661,0.014,0.954-0.161C28.31,30.754,28.386,30.298,28.386,30.298z"/>
<path fill="#529320" d="M28.054,31.385c0,0-0.424,0.104-0.709,0.276l0.001-0.021c0.026-0.481-0.279-1.179-0.279-1.179
	s-0.372,0.656-0.401,1.135c-0.266-0.183-0.636-0.316-0.636-0.316s-0.092,0.454,0.118,0.72c0.21,0.269,0.833,0.491,0.833,0.491
	s0.643-0.157,0.879-0.402C28.099,31.847,28.054,31.385,28.054,31.385z"/>
<path fill="#529320" d="M28.016,32.521c0,0-0.382,0.209-0.613,0.449l-0.005-0.021c-0.099-0.471-0.576-1.066-0.576-1.066
	s-0.188,0.729-0.092,1.198c-0.303-0.109-0.696-0.142-0.696-0.142s0.029,0.46,0.302,0.667c0.272,0.203,0.933,0.258,0.933,0.258
	s0.58-0.316,0.745-0.611C28.18,32.956,28.016,32.521,28.016,32.521z"/>
<path fill="#529320" d="M28.277,33.629c0,0-0.314,0.301-0.475,0.59l-0.011-0.018c-0.22-0.43-0.834-0.883-0.834-0.883
	s0.007,0.752,0.223,1.184c-0.322-0.027-0.71,0.041-0.71,0.041s0.149,0.438,0.466,0.566c0.317,0.127,0.968,0.01,0.968,0.01
	s0.479-0.453,0.562-0.783C28.546,34.006,28.277,33.629,28.277,33.629z"/>
<path fill="#529320" d="M28.816,34.631c0,0-0.224,0.371-0.305,0.693l-0.015-0.016c-0.325-0.359-1.036-0.637-1.036-0.637
	s0.203,0.725,0.525,1.084c-0.318,0.057-0.675,0.223-0.675,0.223s0.257,0.385,0.597,0.428c0.34,0.041,0.938-0.238,0.938-0.238
	s0.343-0.563,0.336-0.902S28.816,34.631,28.816,34.631z"/>
<path fill="#529320" d="M29.599,35.461c0,0-0.119,0.416-0.115,0.748l-0.018-0.012c-0.406-0.264-1.166-0.35-1.166-0.35
	s0.385,0.648,0.789,0.912c-0.293,0.139-0.594,0.389-0.594,0.389s0.35,0.307,0.688,0.26s0.844-0.471,0.844-0.471
	s0.186-0.631,0.09-0.959C30.023,35.652,29.599,35.461,29.599,35.461z"/>
<path fill="#529320" d="M30.571,36.061c0,0-0.007,0.434,0.085,0.752l-0.02-0.006c-0.462-0.148-1.219-0.037-1.219-0.037
	s0.542,0.525,1,0.678c-0.247,0.209-0.473,0.527-0.473,0.527s0.418,0.205,0.734,0.074c0.314-0.133,0.691-0.672,0.691-0.672
	s0.015-0.656-0.162-0.947C31.031,36.139,30.571,36.061,30.571,36.061z"/>
<path fill="#529320" d="M35.092,29.332c0,0,0.418-0.119,0.752-0.114l-0.012-0.017c-0.264-0.404-0.352-1.159-0.352-1.159
	s0.652,0.384,0.918,0.785c0.139-0.292,0.393-0.59,0.393-0.59s0.309,0.346,0.26,0.683c-0.045,0.336-0.475,0.838-0.475,0.838
	s-0.635,0.185-0.963,0.09S35.092,29.332,35.092,29.332z"/>
<path fill="#529320" d="M35.695,30.298c0,0,0.438-0.008,0.758,0.083l-0.008-0.02c-0.15-0.458-0.037-1.21-0.037-1.21
	s0.531,0.539,0.682,0.994c0.211-0.245,0.535-0.469,0.535-0.469s0.205,0.415,0.072,0.727c-0.133,0.313-0.676,0.688-0.676,0.688
	s-0.662,0.014-0.955-0.161C35.771,30.754,35.695,30.298,35.695,30.298z"/>
<path fill="#529320" d="M36.027,31.385c0,0,0.424,0.104,0.711,0.276l-0.002-0.021c-0.025-0.481,0.279-1.179,0.279-1.179
	s0.373,0.656,0.4,1.135c0.266-0.183,0.637-0.316,0.637-0.316s0.092,0.454-0.119,0.72c-0.209,0.269-0.832,0.491-0.832,0.491
	s-0.645-0.157-0.881-0.402C35.984,31.847,36.027,31.385,36.027,31.385z"/>
<path fill="#529320" d="M36.066,32.521c0,0,0.381,0.209,0.613,0.449l0.004-0.021c0.1-0.471,0.576-1.066,0.576-1.066
	s0.188,0.729,0.092,1.198c0.303-0.109,0.697-0.142,0.697-0.142s-0.029,0.46-0.303,0.667c-0.273,0.203-0.934,0.258-0.934,0.258
	s-0.58-0.316-0.744-0.611C35.902,32.956,36.066,32.521,36.066,32.521z"/>
<path fill="#529320" d="M35.805,33.629c0,0,0.314,0.301,0.477,0.59l0.01-0.018c0.221-0.43,0.834-0.883,0.834-0.883
	s-0.008,0.752-0.223,1.184c0.322-0.027,0.709,0.041,0.709,0.041s-0.148,0.438-0.465,0.566c-0.318,0.127-0.969,0.01-0.969,0.01
	s-0.479-0.453-0.561-0.783S35.805,33.629,35.805,33.629z"/>
<path fill="#529320" d="M35.268,34.631c0,0,0.223,0.371,0.305,0.693l0.014-0.016c0.324-0.359,1.035-0.637,1.035-0.637
	s-0.203,0.725-0.523,1.084c0.318,0.057,0.674,0.223,0.674,0.223s-0.256,0.385-0.596,0.428c-0.342,0.041-0.939-0.238-0.939-0.238
	s-0.342-0.563-0.336-0.902S35.268,34.631,35.268,34.631z"/>
<path fill="#529320" d="M34.482,35.461c0,0,0.121,0.416,0.115,0.748l0.018-0.012c0.406-0.264,1.168-0.35,1.168-0.35
	s-0.387,0.648-0.789,0.912c0.291,0.139,0.594,0.389,0.594,0.389s-0.352,0.307-0.689,0.26s-0.844-0.471-0.844-0.471
	s-0.186-0.631-0.09-0.959C34.059,35.652,34.482,35.461,34.482,35.461z"/>
<path fill="#529320" d="M33.512,36.061c0,0,0.008,0.434-0.086,0.752l0.02-0.006c0.463-0.148,1.221-0.037,1.221-0.037
	s-0.543,0.525-1.002,0.678c0.248,0.209,0.473,0.527,0.473,0.527s-0.416,0.205-0.732,0.074c-0.314-0.133-0.692-0.672-0.692-0.672
	s-0.016-0.656,0.162-0.947C33.053,36.139,33.512,36.061,33.512,36.061z"/>
<path fill="#F5F5F5" d="M29.048,29.058c0.008,0.052,0.004,4.389,0.004,4.836c0,0.43,0.006,0.701,0.209,0.975
	c0.168,0.234,0.449,0.428,0.725,0.492c0.195,0.039,0.911,0.023,1.16,0.023c0.553-0.025,0.619,0.098,0.829,0.371
	c0.237-0.385,0.499-0.391,0.987-0.371c0.25,0,0.784,0.02,1.004-0.027c0.266-0.063,0.473-0.189,0.643-0.402
	c0.281-0.32,0.266-0.723,0.266-1.143V29.24c0-0.207-0.025-0.155,0.08-0.262l0.689-0.723l-7.359,0.003L29.048,29.058L29.048,29.058z"
	/>
<polygon fill="#002D62" points="31.347,31.211 31.347,28.256 28.302,28.256 29.058,29.054 29.066,31.211 "/>
<polygon fill="#CE1126" points="32.566,31.211 32.566,28.256 35.668,28.256 34.877,29.104 34.877,31.211 "/>
<path fill="#CE1126" d="M31.347,32.432h-2.303l-0.007,1.861c0.104,0.813,0.705,1.09,1.245,1.088
	c0.364,0.004,0.488-0.002,1.064-0.008V32.432z"/>
<path fill="#002D62" d="M32.566,32.432h2.317l-0.006,1.861c-0.055,0.807-0.707,1.09-1.246,1.088l-1.065-0.008V32.432z"/>
<path fill="#002D62" d="M30.224,25.934c-0.924-0.016-1.857,0.195-2.634,0.676c-0.357,0.221-0.44,0.295-0.244,0.651l-0.451,0.16
	c-0.296,0.112-0.599,0.226-0.851,0.377c-0.154,0.092-0.218,0.161-0.335,0.283l0.74-0.057l-0.108,0.163
	c-0.126,0.182-0.205,0.327-0.315,0.519c0.21-0.142,0.399-0.275,0.641-0.393c0.53-0.267,1.482-0.274,1.873-0.743
	c0.101-0.119,0.039-0.189-0.044-0.383c0.289-0.096,0.397-0.163,0.748-0.243c0.85-0.189,1.436,0.035,1.846-0.065
	c0.128-0.032,0.253-0.103,0.262-0.237l-0.061-0.429l1.379-0.001c0.002,0.242-0.232,0.554,0.196,0.666
	c0.388,0.101,1.169-0.121,1.847,0.067l0.748,0.243l-0.072,0.18l0.027,0.195c0.072,0.083,0.176,0.167,0.287,0.23
	c0.219,0.126,0.506,0.205,0.777,0.271c0.779,0.189,0.852,0.239,1.451,0.64c-0.039-0.117-0.324-0.533-0.42-0.68l0.738,0.058
	c-0.127-0.193-0.516-0.397-0.74-0.485l-0.898-0.328c0.082-0.156,0.15-0.286,0.068-0.416c-0.125-0.189-0.873-0.557-1.063-0.608
	c-0.324-0.088-0.664-0.16-0.982-0.211c-0.32-0.051-0.934-0.095-0.934-0.095c-0.045-0.046,0.084-0.29-0.113-0.46
	c-0.115-0.092-0.283-0.124-0.455-0.142c-0.684-0.065-1.618-0.046-2.309,0c-0.2,0.012-0.342,0.033-0.455,0.142
	C30.229,25.608,30.21,25.688,30.224,25.934z"/>
<path fill="#CE1126" d="M28.98,36.785c-0.372,0.121-0.619,0.207-0.977,0.416c-0.136-0.205-0.321-0.508-0.453-0.682
	c-0.074-0.096-0.177-0.197-0.305-0.262c-0.202-0.094-0.276-0.066-0.404,0.045l-0.09-0.172c-0.181-0.318-0.371-0.465-0.573-0.723
	l-0.181-0.213l-0.065-0.064c0.078,0.256,0.134,0.5,0.185,0.779c-0.111-0.061-0.214-0.123-0.33-0.172
	c-0.087-0.033-0.309-0.082-0.417-0.068l0.131,0.117c0.227,0.201,0.375,0.467,0.466,0.764c0.098,0.324,0.33,0.666,0.573,0.904
	c0.049,0.049,0.189,0.174,0.28,0.207c0.271,0.1,0.259-0.004,0.358-0.053c0.209,0.354,0.343,0.531,0.585,0.801
	c0.26,0.273,0.667,0.348,1.038,0.262c0.165-0.041,0.269-0.086,0.396-0.16c0.482-0.277,0.251-0.494,0.193-0.715
	c0.156-0.049,0.77-0.234,0.99-0.275c0.777-0.143,2.215-0.162,3.137-0.027c0.08,0.012,1.01,0.258,1.1,0.313
	c-0.066,0.152-0.092,0.229-0.082,0.398c0.016,0.156,0.15,0.238,0.27,0.307c0.127,0.074,0.23,0.119,0.396,0.16
	c0.16,0.037,0.332,0.045,0.498,0.02c0.346-0.057,0.527-0.256,0.676-0.436c0.246-0.281,0.322-0.453,0.449-0.65l0.119,0.082
	l0.242-0.029c0.121-0.045,0.195-0.135,0.275-0.213c0.256-0.244,0.471-0.563,0.574-0.91c0.123-0.408,0.293-0.602,0.594-0.865
	c-0.389,0.012-0.523,0.117-0.742,0.24l0.082-0.4c0.025-0.111,0.086-0.273,0.1-0.379c-0.178,0.188-0.334,0.385-0.49,0.559
	c-0.074,0.098-0.156,0.18-0.232,0.285c-0.154,0.24-0.125,0.248-0.186,0.328c-0.545-0.305-0.791,0.436-1.16,0.891
	c-0.686-0.387-1.283-0.508-2.09-0.654c-0.18-0.02-0.342-0.045-0.49-0.061c-1.014-0.119-2.13-0.115-3.139,0.035
	C29.761,36.58,29.439,36.676,28.98,36.785z"/>
<polygon fill="#EAC102" points="31.704,28.085 31.704,28.747 31.037,28.747 31.037,29.306 31.704,29.306 31.704,31.674 
	32.253,31.674 32.253,29.306 32.929,29.306 32.929,28.747 32.253,28.747 32.253,28.085 "/>
<polygon fill="#302C3B" points="29.917,32.186 32.593,30.626 34.057,32.733 31.229,34.551 "/>
<polygon fill="#BCBCBC" points="30.242,31.666 32.499,30.351 33.732,32.127 31.348,33.66 "/>
<path opacity="0.1" fill="#1A1626" d="M50.738,8.591c4.096,5.13,6.563,11.622,6.563,18.701c0,16.567-13.43,30.003-29.996,30.003
	c-7.101,0-13.61-2.479-18.745-6.594C14.055,57.58,22.503,62,32.003,62c16.567,0,29.995-13.432,29.995-30
	C61.998,22.527,57.596,14.09,50.738,8.591z"/>
<path opacity="0.3" fill-rule="evenodd" clip-rule="evenodd" fill="#FFFFFF" d="M9.735,19.015c0.549,3.865,7.767-3.7,15.08-10.202
	C29.532,4.63,8.083,7.385,9.735,19.015z"/>
</svg>
