<?xml version="1.0" encoding="utf-8"?>
<!-- Generator: Adobe Illustrator 15.0.0, SVG Export Plug-In . SVG Version: 6.00 Build 0)  -->
<!DOCTYPE svg PUBLIC "-//W3C//DTD SVG 1.1//EN" "http://www.w3.org/Graphics/SVG/1.1/DTD/svg11.dtd">
<svg version="1.1" id="Layer_1" xmlns="http://www.w3.org/2000/svg" xmlns:xlink="http://www.w3.org/1999/xlink" x="0px" y="0px"
	 width="64px" height="64px" viewBox="0 0 64 64" enable-background="new 0 0 64 64" xml:space="preserve">
<path fill="#302C3B" d="M1.999,32c0,16.569,13.432,30,30.002,30c16.568,0,30-13.432,30-30c0-3.508-0.607-6.871-1.713-10H3.714
	C2.608,25.128,1.999,28.492,1.999,32z"/>
<path fill="#014D87" d="M32.001,2C18.938,2,7.833,10.349,3.714,22h56.574C56.169,10.349,45.063,2,32.001,2z"/>
<path fill="#FFE12C" d="M30.899,5.164c-0.961,1.584-1.076,2.854-0.42,5.043c0.316,1.021,0.664,2.547,0.809,3.373
	c0.195,1.168,0.174,1.279,0.201,1.533c0.244,0,0.795,0.002,1.051,0c0.037-0.404,0.066-0.871,0.152-1.514
	c0.102-0.748,0.398-2.313,0.719-3.398c0.641-2.172,0.6-3.504-0.396-5.014c-0.365-0.559-0.852-1.021-1.07-1.021
	S31.231,4.593,30.899,5.164z M35.62,9.648c-1.361,0.584-2.18,2.201-2.625,4.428c-0.084,0.418-0.104,0.566-0.145,1.037
	c0.295,0.002,0.41,0.004,0.697,0.002c0.063-0.316,0.107-0.484,0.246-0.936c0.549-1.74,2.168-2.439,2.094-0.809
	c-0.023,0.449-0.213,0.701-0.424,0.941c0.26-0.064,0.814-0.322,1.264-0.578C39.229,12.226,38.245,8.529,35.62,9.648L35.62,9.648z
	 M30.06,15.681c1.1,0.006,2.998,0.014,3.908,0.008c0.002-0.234,0.004-0.113,0.008-0.303c-0.672-0.006-3.242,0.004-3.91,0.004
	C30.067,15.511,30.063,15.572,30.06,15.681z M30.384,16.968c-0.396,0.428-1.016,0.746-1.016,0.746s0.549,0.063,1.059,0.025
	s0.793-0.102,1.094-0.248c-0.082,0.609-0.086,1.197-0.086,1.197c0.074,0.783,0.158,0.982,0.328,1.365
	c0.23,0.316,0.363,0.318,0.533-0.018c0.182-0.375,0.303-0.762,0.342-1.352c-0.014-0.441-0.039-0.645-0.143-1.186
	c0.352,0.152,0.576,0.193,1.102,0.24c0.539,0.049,1.035,0.025,1.035,0.025s-0.729-0.367-1.049-0.814
	c-0.316-0.443-0.248-0.367-0.479-0.938c-0.279-0.014-1.697-0.002-2.146-0.002C30.712,16.533,30.687,16.64,30.384,16.968
	L30.384,16.968z M28.384,9.648c1.359,0.584,2.178,2.199,2.625,4.428c0.082,0.418,0.104,0.564,0.145,1.037
	c-0.295,0-0.41,0.002-0.697,0c-0.063-0.316-0.109-0.484-0.246-0.934c-0.551-1.74-2.168-2.439-2.094-0.811
	c0.023,0.451,0.213,0.701,0.424,0.943c-0.26-0.064-0.814-0.324-1.264-0.58C24.772,12.224,25.759,8.529,28.384,9.648L28.384,9.648z"
	/>
<path fill="#FFE12C" d="M13.567,13.58c0.195,1.168,0.174,1.279,0.201,1.533c0.244,0,0.795,0.002,1.051,0
	c0.037-0.404,0.066-0.871,0.152-1.514c0.102-0.748,0.398-2.313,0.719-3.398c0.43-1.457,0.543-2.533,0.277-3.541
	c-1.215,0.77-2.373,1.619-3.459,2.551c0.064,0.313,0.143,0.639,0.25,0.996C13.075,11.228,13.423,12.753,13.567,13.58z"/>
<path fill="#FFE12C" d="M16.247,15.689c0.002-0.234,0.004-0.113,0.008-0.303c-0.672-0.006-3.242,0.004-3.91,0.004
	c0.002,0.121-0.002,0.182-0.006,0.291C13.438,15.687,15.337,15.695,16.247,15.689z"/>
<path fill="#FFE12C" d="M9.556,13.732c0.449,0.256,1.004,0.516,1.264,0.58c-0.211-0.242-0.4-0.492-0.424-0.943
	c-0.074-1.629,1.543-0.93,2.094,0.811c0.137,0.449,0.184,0.617,0.246,0.934c0.287,0.002,0.402,0,0.697,0
	c-0.041-0.473-0.063-0.619-0.145-1.037c-0.352-1.754-0.939-3.119-1.834-3.91c-0.959,0.904-1.855,1.873-2.689,2.896
	C8.976,13.312,9.235,13.541,9.556,13.732z"/>
<path fill="#FFE12C" d="M15.862,16.951c-0.316-0.443-0.248-0.367-0.479-0.938c-0.279-0.014-1.697-0.002-2.146-0.002
	c-0.246,0.521-0.271,0.629-0.574,0.957c-0.396,0.428-1.016,0.746-1.016,0.746s0.549,0.063,1.059,0.025s0.793-0.102,1.094-0.248
	c-0.082,0.609-0.086,1.197-0.086,1.197c0.074,0.783,0.158,0.982,0.328,1.365c0.23,0.316,0.363,0.318,0.533-0.018
	c0.182-0.375,0.303-0.762,0.342-1.352c-0.014-0.441-0.039-0.645-0.143-1.186c0.352,0.152,0.576,0.193,1.102,0.24
	c0.539,0.049,1.035,0.025,1.035,0.025S16.183,17.398,15.862,16.951z"/>
<path fill="#FFE12C" d="M17.899,9.648c-1.361,0.584-2.18,2.201-2.625,4.428c-0.084,0.418-0.104,0.566-0.145,1.037
	c0.295,0.002,0.41,0.004,0.697,0.002c0.063-0.316,0.107-0.484,0.246-0.936c0.549-1.74,2.168-2.439,2.094-0.809
	c-0.023,0.449-0.213,0.701-0.424,0.941c0.26-0.064,0.814-0.322,1.264-0.578C21.509,12.226,20.524,8.529,17.899,9.648z"/>
<path fill="#FFE12C" d="M48.175,15.113c0.287,0.002,0.402,0,0.697,0c-0.041-0.473-0.063-0.619-0.145-1.037
	c-0.447-2.229-1.266-3.844-2.625-4.428c-2.625-1.119-3.611,2.576-1.107,4.084c0.449,0.256,1.004,0.516,1.264,0.58
	c-0.211-0.242-0.4-0.492-0.424-0.943c-0.074-1.629,1.543-0.93,2.094,0.811C48.065,14.628,48.112,14.796,48.175,15.113z"/>
<path fill="#FFE12C" d="M48.198,10.207c0.316,1.021,0.664,2.547,0.809,3.373c0.195,1.168,0.174,1.279,0.201,1.533
	c0.244,0,0.795,0.002,1.051,0c0.037-0.404,0.066-0.871,0.152-1.514c0.102-0.748,0.398-2.313,0.719-3.398
	c0.115-0.387,0.199-0.738,0.268-1.078c-1.078-0.916-2.229-1.75-3.43-2.508C47.671,7.646,47.751,8.71,48.198,10.207z"/>
<path fill="#FFE12C" d="M51.302,16.951c-0.316-0.443-0.248-0.367-0.479-0.938c-0.279-0.014-1.697-0.002-2.146-0.002
	c-0.246,0.521-0.271,0.629-0.574,0.957c-0.396,0.428-1.016,0.746-1.016,0.746s0.549,0.063,1.059,0.025s0.793-0.102,1.094-0.248
	c-0.082,0.609-0.086,1.197-0.086,1.197c0.074,0.783,0.158,0.982,0.328,1.365c0.23,0.316,0.363,0.318,0.533-0.018
	c0.182-0.375,0.303-0.762,0.342-1.352c-0.014-0.441-0.039-0.645-0.143-1.186c0.352,0.152,0.576,0.193,1.102,0.24
	c0.539,0.049,1.035,0.025,1.035,0.025S51.622,17.398,51.302,16.951z"/>
<path fill="#FFE12C" d="M47.778,15.681c1.1,0.006,2.998,0.014,3.908,0.008c0.002-0.234,0.004-0.113,0.008-0.303
	c-0.672-0.006-3.242,0.004-3.91,0.004C47.786,15.511,47.782,15.572,47.778,15.681z"/>
<path fill="#FFE12C" d="M50.714,14.076c-0.084,0.418-0.104,0.566-0.145,1.037c0.295,0.002,0.41,0.004,0.697,0.002
	c0.063-0.316,0.107-0.484,0.246-0.936c0.549-1.74,2.168-2.439,2.094-0.809c-0.023,0.449-0.213,0.701-0.424,0.941
	c0.26-0.064,0.814-0.322,1.264-0.578c0.32-0.193,0.58-0.422,0.791-0.672c-0.834-1.021-1.73-1.992-2.689-2.895
	C51.651,10.957,51.065,12.322,50.714,14.076z"/>
<polygon fill="#529320" points="53.823,50.824 53.638,51.465 37.786,44.621 37.972,43.98 "/>
<polygon fill="#529320" points="54.312,49.146 54.124,49.793 38.007,43.861 38.192,43.215 "/>
<polygon fill="#529320" points="54.739,47.668 54.554,48.313 38.218,43.135 38.405,42.49 "/>
<rect x="46.49" y="35.638" transform="matrix(0.2786 -0.9604 0.9604 0.2786 -8.6709 76.8631)" fill="#529320" width="0.673" height="17.131"/>
<polygon fill="#529320" points="55.626,44.609 55.438,45.254 38.78,41.189 38.968,40.543 "/>
<polygon fill="#529320" points="14.347,28.117 14.747,27.582 27.167,39.58 26.767,40.113 "/>
<polygon fill="#529320" points="12.015,28.708 12.417,28.171 25.405,39.408 25.003,39.947 "/>
<polygon fill="#529320" points="9.62,28.167 10.024,27.628 23.481,38.238 23.079,38.775 "/>
<rect x="15.919" y="26.021" transform="matrix(-0.5981 0.8014 -0.8014 -0.5981 53.6958 42.2494)" fill="#529320" width="0.673" height="17.133"/>
<polygon fill="#529320" points="6.382,29.541 6.784,29.003 20.937,38.684 20.532,39.225 "/>
<polygon fill="#529320" points="6.263,32.337 6.325,31.673 23.173,35.455 23.11,36.119 "/>
<polygon fill="#529320" points="4.862,33.586 4.927,32.917 21.864,35.752 21.802,36.422 "/>
<polygon fill="#529320" points="6.987,35.352 7.05,34.682 24.065,36.734 24.001,37.404 "/>
<rect x="13.111" y="28.373" transform="matrix(-0.0958 0.9954 -0.9954 -0.0958 51.5028 27.0895)" fill="#529320" width="0.673" height="17.129"/>
<polygon fill="#529320" points="7.817,38.676 7.882,38.006 25.007,38.908 24.942,39.578 "/>
<path fill="#FFE12C" d="M33.267,50.629l0.674,0.48c0.967,0.676,1.498,1.611,1.445,2.58l-0.035,0.799l0.316-0.787
	c0.348-0.822,0.299-2.068-0.111-2.988l-0.238-0.541l0.76,0.332c1.086,0.459,1.801,1.266,1.949,2.223l0.131,0.789l0.146-0.836
	c0.17-0.877-0.135-2.086-0.729-2.9l-0.346-0.477l0.811,0.164c1.158,0.223,2.025,0.863,2.369,1.77L40.7,51.98l-0.029-0.85
	c-0.016-0.891-0.564-2.01-1.314-2.684l-0.438-0.395l0.83-0.008c1.178-0.023,2.156,0.422,2.684,1.236l0.439,0.668l-0.207-0.824
	c-0.201-0.869-0.969-1.848-1.844-2.354l-0.508-0.295l0.809-0.178c1.146-0.27,2.197-0.037,2.881,0.648l0.568,0.563L44.2,46.748
	c-0.379-0.811-1.334-1.607-2.293-1.918l-0.559-0.184l0.754-0.342c1.066-0.502,2.143-0.494,2.953,0.035l0.674,0.43l-0.523-0.668
	c-0.537-0.711-1.637-1.293-2.639-1.398l-0.586-0.061l0.666-0.494c0.939-0.713,1.994-0.928,2.896-0.58l0.748,0.281l-0.648-0.545
	c-0.674-0.584-1.871-0.924-2.875-0.818l-0.584,0.061l0.549-0.621c0.771-0.891,1.756-1.322,2.713-1.168l0.789,0.119l-0.746-0.398
	c-0.781-0.432-2.023-0.514-2.982-0.203l-0.559,0.182l0.408-0.721c0.568-1.033,1.443-1.662,2.41-1.709l0.797-0.049l-0.814-0.232
	c-0.854-0.26-2.084-0.082-2.957,0.422l-0.51,0.295l0.25-0.791c0.342-1.129,1.066-1.924,2.004-2.174l0.77-0.213l-0.846-0.059
	c-0.889-0.076-2.057,0.354-2.805,1.029l-0.438,0.393l0.078-0.824c0.102-1.176,0.646-2.106,1.51-2.545l0.707-0.367l-0.838,0.117
	c-0.885,0.111-1.938,0.775-2.529,1.592l-0.348,0.477l-0.092-0.825c-0.146-1.17,0.193-2.193,0.945-2.803l0.617-0.508l-0.795,0.291
	c-0.844,0.291-1.734,1.16-2.146,2.082l-0.238,0.539l-0.262-0.787c-0.387-1.113-0.268-2.186,0.344-2.936l0.498-0.627l-0.719,0.449
	c-0.764,0.461-1.455,1.496-1.664,2.484l-0.123,0.576l-0.42-0.715c-0.609-1.012-0.713-2.082-0.273-2.943l0.357-0.717l-0.609,0.59
	c-0.65,0.609-1.113,1.766-1.113,2.775v0.59l-0.559-0.613c-0.807-0.859-1.131-1.887-0.879-2.822l0.201-0.773l-0.475,0.703
	c-0.51,0.73-0.723,1.959-0.512,2.945l0.121,0.576l-0.674-0.482c-0.967-0.674-1.498-1.611-1.445-2.578l0.035-0.799l-0.316,0.787
	c-0.348,0.82-0.301,2.066,0.109,2.988l0.24,0.539l-0.76-0.332c-1.086-0.457-1.801-1.264-1.949-2.221l-0.133-0.789l-0.146,0.836
	c-0.168,0.877,0.137,2.084,0.73,2.9l0.344,0.477l-0.811-0.166c-1.156-0.223-2.023-0.861-2.369-1.768l-0.293-0.744l0.029,0.848
	c0.018,0.893,0.568,2.01,1.318,2.686l0.436,0.395l-0.828,0.006c-1.18,0.023-2.158-0.42-2.684-1.235l-0.441-0.668l0.205,0.824
	c0.201,0.87,0.973,1.848,1.846,2.352l0.51,0.295l-0.811,0.178c-1.146,0.27-2.197,0.037-2.881-0.648l-0.57-0.561l0.371,0.762
	c0.379,0.809,1.336,1.605,2.295,1.918l0.559,0.182l-0.754,0.344c-1.066,0.5-2.145,0.494-2.953-0.037l-0.674-0.43l0.521,0.668
	c0.537,0.713,1.639,1.295,2.641,1.398l0.586,0.063l-0.668,0.492c-0.939,0.713-1.992,0.93-2.895,0.58l-0.748-0.281l0.648,0.545
	c0.674,0.584,1.871,0.926,2.873,0.82l0.586-0.063l-0.549,0.621c-0.771,0.893-1.758,1.324-2.713,1.17l-0.789-0.119l0.746,0.398
	c0.781,0.432,2.023,0.514,2.982,0.201l0.559-0.182l-0.408,0.723c-0.568,1.031-1.445,1.66-2.41,1.709l-0.799,0.047l0.816,0.234
	c0.854,0.26,2.084,0.082,2.957-0.422l0.51-0.295l-0.25,0.791c-0.342,1.127-1.066,1.924-2.004,2.174l-0.77,0.211l0.846,0.061
	c0.889,0.076,2.055-0.354,2.805-1.029l0.439-0.395l-0.08,0.826c-0.102,1.174-0.646,2.104-1.51,2.543l-0.707,0.367l0.836-0.119
	c0.885-0.109,1.941-0.773,2.533-1.59l0.348-0.475l0.092,0.824c0.146,1.17-0.193,2.191-0.947,2.799l-0.615,0.51l0.795-0.289
	c0.844-0.293,1.734-1.162,2.145-2.084l0.24-0.539l0.262,0.787c0.387,1.115,0.266,2.184-0.344,2.938l-0.5,0.625l0.721-0.449
	c0.764-0.461,1.455-1.498,1.664-2.484l0.123-0.574l0.418,0.713c0.611,1.01,0.715,2.082,0.275,2.945l-0.357,0.715l0.609-0.588
	c0.65-0.611,1.113-1.768,1.113-2.777v-0.59l0.559,0.613c0.807,0.861,1.131,1.887,0.879,2.824l-0.199,0.773l0.473-0.705
	c0.51-0.73,0.721-1.959,0.514-2.945L33.267,50.629"/>
<path opacity="0.3" fill-rule="evenodd" clip-rule="evenodd" fill="#FFFFFF" d="M9.735,19.015
	c0.549,3.865,7.766-3.701,15.082-10.203C29.534,4.63,8.083,7.384,9.735,19.015z"/>
</svg>
