<?xml version="1.0" encoding="utf-8"?>
<!-- Generator: Adobe Illustrator 15.0.0, SVG Export Plug-In . SVG Version: 6.00 Build 0)  -->
<!DOCTYPE svg PUBLIC "-//W3C//DTD SVG 1.1//EN" "http://www.w3.org/Graphics/SVG/1.1/DTD/svg11.dtd">
<svg version="1.1" id="Layer_1" xmlns="http://www.w3.org/2000/svg" xmlns:xlink="http://www.w3.org/1999/xlink" x="0px" y="0px"
	 width="64px" height="64px" viewBox="0 0 64 64" enable-background="new 0 0 64 64" xml:space="preserve">
<path fill="#014D87" d="M2,32c0,16.569,13.432,30,29.999,30c11.744,0,21.907-6.752,26.833-16.584L5.168,18.583
	C3.145,22.623,2,27.175,2,32z"/>
<path fill="#529320" d="M31.999,2C20.254,2,10.094,8.753,5.168,18.583l53.664,26.833C60.855,41.379,62,36.824,62,32
	C62,15.431,48.568,2,31.999,2z"/>
<circle fill="#FFE12C" cx="31.999" cy="32" r="11.217"/>
<path fill="#529320" d="M25.147,26.962c0.768,1.051,1.932,2.818,2.867,2.357c0.729,0.002,1.105,0.053,1.205,0.539
	c1.721,0.293,4.615-0.434,6.414-2.779c0,0,0.15,0.021,0.098-0.871c0.01-0.389,0.533-0.311,0.545-0.184
	c0.072,0.193,0.059,0.336,0.158,0.342c0.221-0.074,0.523-0.57,0.777-0.887c0.068-0.139,0.031-0.285,0.047-0.459
	c0.135-0.33,0.469-0.258,0.539-0.086c0.063,0.111,0.064,0.197,0.127,0.309c0.34,0.225,0.953,0.014,1,0.014
	c0.061-0.275,0.238-0.25,0.238-0.25c0.227-0.051,0.137-0.029,0.287,0.047c-0.133,1.492,0.293,1.559,0.256,2.322
	c0.016,0.855-0.256,1.098-0.256,1.422c0.084,0.398,1.344,0.412,0.9,0.75c-0.387,0.207,0.002,0.596-0.584,0.748
	c-1.705,0.865-2.031,1.607-2.031,1.607l-0.477,0.809c-0.285,0.54-0.646,0.246-0.848,0.51c-0.102,0.328-0.215,1.063-0.014,1.441
	c0.102,0.523-0.012,0.809-0.137,1.332c-0.111,1.094-0.547,1.256-0.596,1.641c-0.201,0.406,0.043,2.332-0.148,2.332
	c-1.268,0.023-2.242-0.242-2.744-0.344c0.49-2.111,0.301-3.961,0.301-4.152c-0.127-1.508-2.262-1.143-2.588-1.342
	c-0.27-0.057-0.439-0.279-0.535-0.373c-0.303-0.033-0.414-0.102-0.715-0.133c-0.15,0.076-0.061,0.152-0.396,0.258
	c-0.852,0.104-1.227-0.742-1.227-0.742c0.041-0.286-1.914,0.057-2.977-0.19c-0.434,0.243-0.624,0.961-0.981,1.047
	c-0.01,0.223-0.588-0.186-0.705-0.402c-0.023-0.637,0.557-0.92,0.557-0.92c0.461-0.322,0.732-0.377,0.953-0.6
	c0.112-0.555,0.055-0.967,0.292-1.383c0.201-0.318,0.496-0.168,0.697-0.313c0.215-0.143,0.307-1.076,0.107-1.33l-0.91-0.826
	C24.368,27.421,24.976,26.904,25.147,26.962z"/>
<path fill="#FFE12C" d="M60.516,26.748c-0.148-0.334-0.617-0.441-0.961-0.668c-0.494-0.123-0.83-0.146-1.168,0.053
	c-0.105,0.059-0.213,0.115-0.32,0.174l-0.525-0.07c-1.154,0.027-1.338-3.789-1.869-5.346l0,0c-0.346-1.027-2.889-3.096-4.777-4.391
	c-0.447-0.256-0.711-0.064-0.623,0.346c0.25,0.352,0.447,0.744,0.697,1.096c0.08,0.242,0.211,0.406,0.291,0.646l0.092,0.457
	c0.602,0.568,0.717,1.078,0.717,1.078c0.367,0.592,0.686,1.018,1.285,1.48c0.658,0.344,0.291,1.605,0.361,2.256
	c0.031,0.412-0.268,0.387-0.529,0.357c-2.184-1.713-4.203-1.561-6.023-1.965c-0.702-0.02-0.69,0.314-0.448,0.48
	c1.349,1.232,2.589,2.047,4.187,2.684c0.271,0.141,0.541,0.279,0.813,0.42c0.314,0.223,0.631,0.447,0.943,0.67
	c0.719,0.391,0.807,0.791,0.809,0.828c0.082,0.83-0.309,1.512-0.418,1.779c-0.166,0.9-3.01,2.852-8.185,3.885
	c-0.098-0.039-0.68,0.104,0.023,0.297c5.345-0.413,9.464-3.186,9.733-3.301c0.797-0.508,3.086-1.188,3.586-1.672
	c0.611-0.098,1.242-0.229,1.246-0.76c0.189-0.148,0.494-0.076,0.68-0.523C60.611,26.916,60.516,26.748,60.516,26.748z"/>
<polygon fill="#F5F5F5" points="12.204,28.195 11.442,27.482 10.67,28.185 10.752,27.144 9.721,26.98 10.586,26.394 10.071,25.486 
	11.069,25.798 11.458,24.828 11.836,25.802 12.836,25.503 12.311,26.406 13.168,27.001 12.135,27.154 "/>
<polygon fill="#F5F5F5" points="14.911,36.846 14.088,36.297 13.286,36.875 13.569,35.943 12.756,35.381 13.752,35.354 
	14.051,34.426 14.385,35.342 15.383,35.334 14.592,35.926 "/>
<polygon fill="#F5F5F5" points="12.356,44.291 11.592,43.576 10.821,44.281 10.903,43.24 9.872,43.076 10.737,42.49 10.223,41.582 
	11.219,41.895 11.61,40.924 11.987,41.898 12.989,41.6 12.461,42.502 13.319,43.098 12.286,43.248 "/>
<polygon fill="#F5F5F5" points="5.5,35.566 4.738,34.854 3.965,35.557 4.049,34.516 3.016,34.352 3.883,33.766 3.367,32.857 
	4.363,33.17 4.754,32.199 5.131,33.176 6.133,32.875 5.605,33.777 6.465,34.373 5.43,34.525 5.5,35.566 "/>
<polygon fill="#F5F5F5" points="18.69,33.281 17.928,32.568 17.157,33.271 17.239,32.23 16.208,32.066 17.073,31.482 16.557,30.572 
	17.555,30.884 17.946,29.916 18.323,30.888 19.323,30.589 18.797,31.492 19.655,32.087 18.622,32.24 "/>
<path opacity="0.1" fill="#1A1626" d="M50.736,8.591c4.098,5.129,6.563,11.621,6.563,18.701c0,16.569-13.429,30.002-29.995,30.002
	c-7.099,0-13.608-2.477-18.743-6.594C14.055,57.58,22.502,62,32.003,62c16.565,0,29.995-13.432,29.995-30
	C61.998,22.527,57.596,14.089,50.736,8.591z"/>
<path opacity="0.3" fill-rule="evenodd" clip-rule="evenodd" fill="#FFFFFF" d="M9.735,19.015
	c0.549,3.865,7.767-3.701,15.079-10.203C29.53,4.63,8.083,7.384,9.735,19.015z"/>
</svg>
