<?xml version="1.0" encoding="utf-8"?>
<!-- Generator: Adobe Illustrator 15.0.0, SVG Export Plug-In . SVG Version: 6.00 Build 0)  -->
<!DOCTYPE svg PUBLIC "-//W3C//DTD SVG 1.1//EN" "http://www.w3.org/Graphics/SVG/1.1/DTD/svg11.dtd">
<svg version="1.1" id="Layer_1" xmlns="http://www.w3.org/2000/svg" xmlns:xlink="http://www.w3.org/1999/xlink" x="0px" y="0px"
	 width="64px" height="64px" viewBox="0 0 64 64" enable-background="new 0 0 64 64" xml:space="preserve">
<path fill="#529320" d="M40.939,3.376H23.059C13.705,6.295,6.311,13.653,3.375,23v18c2.936,9.348,10.33,16.705,19.684,19.625H41
	c9.346-2.936,16.705-10.33,19.623-19.686V23C57.688,13.653,50.293,6.295,40.939,3.376z"/>
<path fill="#FFE12C" d="M23,60.625c1.924,0.604,3.93,1.02,6,1.225V2.15c-2.07,0.205-4.076,0.621-6,1.226V60.625z"/>
<path fill="#302C3B" d="M29,61.85c0.986,0.1,1.986,0.15,3,0.15c1.012,0,2.012-0.051,3-0.15V2.15C34.012,2.053,33.012,2,32,2
	c-1.014,0-2.014,0.053-3,0.15V61.85z"/>
<path fill="#F5F5F5" d="M35,61.85c2.068-0.205,4.076-0.621,6-1.225V3.376c-1.924-0.604-3.932-1.021-6-1.226V61.85z"/>
<path fill="#FFE12C" d="M2.148,29H61.85c-0.205-2.068-0.621-4.076-1.227-6H3.375C2.77,24.924,2.355,26.932,2.148,29z"/>
<path fill="#302C3B" d="M2,32c0,1.014,0.051,2.014,0.148,3H61.85c0.098-0.986,0.15-1.986,0.15-3c0-1.012-0.053-2.013-0.15-3H2.148
	C2.051,29.987,2,30.988,2,32z"/>
<path fill="#F5F5F5" d="M3.375,41h57.248c0.605-1.924,1.021-3.93,1.227-6H2.148C2.355,37.07,2.77,39.076,3.375,41z"/>
<circle fill="#E81C27" cx="32" cy="32" r="15"/>
<polygon fill="#529320" points="32,21.572 33.439,22.666 32.896,20.887 34.334,19.783 32.555,19.777 32,18 31.443,19.777 
	29.666,19.783 31.102,20.887 30.557,22.666 "/>
<polygon fill="#529320" points="26.785,22.969 28.58,23.197 27.219,21.927 27.912,20.254 26.367,21.139 25,19.876 25.408,21.693 
	23.869,22.588 25.666,22.824 26.084,24.639 "/>
<polygon fill="#529320" points="22.967,26.787 24.639,26.085 22.822,25.668 22.584,23.871 21.691,25.41 19.875,25.001 21.135,26.37 
	20.254,27.913 21.926,27.221 23.195,28.583 "/>
<polygon fill="#529320" points="21.57,32.001 22.666,30.559 20.885,31.104 19.781,29.668 19.777,31.447 18,32.001 19.777,32.557 
	19.783,34.334 20.885,32.899 22.666,33.443 "/>
<polygon fill="#529320" points="22.971,37.215 23.195,35.418 21.926,36.781 20.254,36.09 21.139,37.633 19.875,39 21.691,38.594 
	22.588,40.131 22.824,38.334 24.639,37.916 "/>
<polygon fill="#529320" points="26.787,41.031 26.084,39.361 25.666,41.178 23.869,41.416 25.408,42.309 25,44.125 26.369,42.865 
	27.912,43.746 27.219,42.074 28.582,40.805 "/>
<polygon fill="#529320" points="32,42.43 30.559,41.334 31.102,43.115 29.666,44.219 31.447,44.225 32,46 32.557,44.225 
	34.334,44.219 32.898,43.115 33.443,41.334 "/>
<polygon fill="#529320" points="37.213,41.031 35.418,40.805 36.781,42.074 36.088,43.748 37.631,42.863 39,44.125 38.592,42.309 
	40.129,41.414 38.334,41.176 37.916,39.361 "/>
<polygon fill="#529320" points="41.031,37.213 39.361,37.916 41.176,38.334 41.414,40.131 42.309,38.592 44.125,39 42.863,37.631 
	43.746,36.088 42.074,36.781 40.805,35.418 "/>
<polygon fill="#529320" points="42.428,32 41.334,33.441 43.113,32.899 44.219,34.334 44.223,32.555 46,32 44.223,31.445 
	44.217,29.666 43.113,31.103 41.334,30.557 "/>
<polygon fill="#529320" points="41.031,26.785 40.803,28.582 42.074,27.22 43.746,27.912 42.863,26.369 44.125,25 42.309,25.408 
	41.412,23.871 41.176,25.667 39.361,26.084 "/>
<polygon fill="#529320" points="37.213,22.969 37.914,24.639 38.332,22.824 40.129,22.586 38.592,21.692 39,19.875 37.631,21.137 
	36.088,20.254 36.779,21.927 35.418,23.196 "/>
<path fill="#FFE12C" d="M36,38h-6.473C29.527,38,30.465,34.633,36,38z"/>
<path fill="#C28FEF" d="M31.82,26.162c0,0-7.313,8.201,4.18,11.838L31.82,26.162z"/>
<path fill="#529320" d="M31.82,26.162c0,0,4.18,1.014,4.18,11.838C36,38,31.82,35.621,31.82,26.162z"/>
<path fill="#FFE12C" d="M29.527,26.385c0,0-1.438,0.281-1.527,2.198c0,0,1.346-0.726,2.65-0.726
	C31.953,27.857,29.527,26.385,29.527,26.385z"/>
<path fill="#C28FEF" d="M29.527,26.385c0,0,0.877,2.881,4.383,1.637C33.91,28.021,32.359,24.943,29.527,26.385z"/>
<path opacity="0.1" fill="#1A1626" d="M50.736,8.591c4.096,5.13,6.563,11.622,6.563,18.701c0,16.567-13.43,30.003-29.994,30.003
	c-7.102,0-13.611-2.479-18.746-6.594C14.053,57.58,22.502,62,32.002,62c16.566,0,29.994-13.432,29.994-30
	C61.996,22.527,57.594,14.09,50.736,8.591z"/>
<path opacity="0.3" fill-rule="evenodd" clip-rule="evenodd" fill="#FFFFFF" d="M9.734,19.015c0.549,3.865,7.766-3.7,15.08-10.202
	C29.531,4.63,8.082,7.385,9.734,19.015z"/>
</svg>
