<?xml version="1.0" encoding="utf-8"?>
<!-- Generator: Adobe Illustrator 15.0.0, SVG Export Plug-In . SVG Version: 6.00 Build 0)  -->
<!DOCTYPE svg PUBLIC "-//W3C//DTD SVG 1.1//EN" "http://www.w3.org/Graphics/SVG/1.1/DTD/svg11.dtd">
<svg version="1.1" id="Layer_1" xmlns="http://www.w3.org/2000/svg" xmlns:xlink="http://www.w3.org/1999/xlink" x="0px" y="0px"
	 width="64px" height="64px" viewBox="0 0 64 64" enable-background="new 0 0 64 64" xml:space="preserve">
<path fill="#014D87" d="M32,2v30H2c0,16.568,13.432,30,30,30s30-13.432,30-30S48.568,2,32,2z"/>
<g>
	<rect x="12" y="12" fill="#014D87" width="21" height="21"/>
</g>
<g>
	<polygon fill="#F5F5F5" points="18.912,8.139 18.912,14 11.6,14 26,32 32,32 32,24.5 	"/>
</g>
<g>
	<path fill="#F5F5F5" d="M11,18.912H5.012C3.088,22.869,2,27.305,2,32h12V13.912h-3V18.912z"/>
</g>
<g>
	<polygon fill="#E81C27" points="32,27.059 19,11 13,11 30,32 32,32 	"/>
</g>
<g>
	<path fill="#F5F5F5" d="M18.912,5.012V11H11v3h21V2C27.307,2,22.869,3.088,18.912,5.012z"/>
</g>
<g>
	<path fill="#E81C27" d="M32,5H18.912C12.857,7.939,7.941,12.857,5,18.912V32h6V11h21V5z"/>
</g>
<g>
	<path fill="#D8A322" d="M34.541,33.848l-0.002,0.006L34.541,33.848z"/>
</g>
<g>
	<path fill="#D8A322" d="M34.537,33.859l-0.037,0.08L34.537,33.859z"/>
</g>
<g>
	<path fill="#D8A322" d="M34.539,33.854l-0.002,0.006L34.539,33.854z"/>
</g>
<g>
	<polygon fill="#F5F5F5" points="51.969,21.084 51.775,22.918 53.461,23.668 51.656,24.051 51.463,25.885 50.541,24.289 
		48.736,24.672 49.971,23.301 49.049,21.703 50.734,22.453 	"/>
</g>
<g>
	<polygon fill="#F5F5F5" points="56.43,24.324 55.508,25.922 56.74,27.291 54.938,26.908 54.014,28.506 53.822,26.672 
		52.018,26.287 53.703,25.539 53.51,23.705 54.744,25.074 	"/>
</g>
<g>
	<polygon fill="#F5F5F5" points="59.186,29.1 57.693,30.184 58.264,31.938 56.771,30.854 55.279,31.938 55.85,30.184 54.357,29.1 
		56.201,29.1 56.771,27.346 57.342,29.098 	"/>
</g>
<g>
	<polygon fill="#F5F5F5" points="59.762,34.584 57.957,34.967 57.766,36.801 56.844,35.203 55.039,35.588 56.273,34.217 
		55.352,32.619 57.035,33.371 58.27,32 58.078,33.832 	"/>
</g>
<g>
	<polygon fill="#F5F5F5" points="58.057,39.828 56.254,39.443 55.332,41.041 55.141,39.207 53.336,38.824 55.02,38.072 
		54.828,36.238 56.061,37.609 57.746,36.859 56.824,38.457 	"/>
</g>
<g>
	<polygon fill="#F5F5F5" points="54.369,43.926 52.877,42.842 51.385,43.926 51.955,42.172 50.463,41.086 52.307,41.086 
		52.877,39.334 53.445,41.086 55.291,41.086 53.799,42.172 	"/>
</g>
<g>
	<polygon fill="#F5F5F5" points="49.332,46.168 48.408,44.57 46.605,44.955 47.84,43.584 46.916,41.986 48.602,42.736 
		49.836,41.365 49.643,43.201 51.328,43.951 49.523,44.334 	"/>
</g>
<g>
	<polygon fill="#F5F5F5" points="43.816,46.168 43.625,44.334 41.82,43.951 43.506,43.201 43.313,41.365 44.547,42.736 
		46.23,41.986 45.309,43.584 46.543,44.953 44.74,44.57 	"/>
</g>
<g>
	<polygon fill="#F5F5F5" points="38.779,43.926 39.35,42.172 37.857,41.086 39.703,41.088 40.273,39.334 40.842,41.086 
		42.686,41.086 41.195,42.172 41.764,43.926 40.273,42.842 	"/>
</g>
<g>
	<polygon fill="#F5F5F5" points="35.09,39.826 36.324,38.457 35.402,36.859 37.088,37.609 38.32,36.238 38.129,38.074 
		39.814,38.824 38.01,39.207 37.816,41.041 36.895,39.443 	"/>
</g>
<g>
	<polygon fill="#F5F5F5" points="33.387,34.584 35.072,33.832 34.879,31.998 36.113,33.371 37.797,32.619 36.875,34.217 
		38.109,35.588 36.307,35.203 35.383,36.801 35.191,34.967 	"/>
</g>
<g>
	<polygon fill="#F5F5F5" points="33.963,29.098 35.807,29.098 36.377,27.346 36.947,29.1 38.791,29.098 37.299,30.184 
		37.869,31.938 36.377,30.854 34.885,31.938 35.455,30.184 	"/>
</g>
<g>
	<polygon fill="#F5F5F5" points="36.719,24.324 38.404,25.074 39.639,23.705 39.447,25.539 41.131,26.287 39.326,26.672 
		39.135,28.506 38.213,26.908 36.408,27.291 37.643,25.922 	"/>
</g>
<g>
	<polygon fill="#F5F5F5" points="41.182,21.084 42.416,22.453 44.1,21.703 43.178,23.301 44.412,24.672 42.607,24.289 
		41.686,25.885 41.492,24.051 39.689,23.668 41.373,22.918 	"/>
</g>
<g>
	<polygon fill="#F5F5F5" points="46.574,19.938 47.145,21.689 48.988,21.689 47.496,22.775 48.066,24.529 46.574,23.445 
		45.082,24.529 45.652,22.775 44.16,21.689 46.004,21.689 	"/>
</g>
<path opacity="0.1" fill="#1A1626" d="M50.738,8.591c4.096,5.13,6.563,11.622,6.563,18.701c0,16.568-13.428,30.003-29.994,30.003
	c-7.102,0-13.609-2.478-18.744-6.594C14.057,57.58,22.504,62,32.004,62C48.57,62,62,48.568,62,32
	C62,22.527,57.596,14.09,50.738,8.591z"/>
<path opacity="0.3" fill-rule="evenodd" clip-rule="evenodd" fill="#FFFFFF" d="M9.736,19.015c0.549,3.865,7.766-3.7,15.08-10.202
	C29.533,4.63,8.084,7.385,9.736,19.015z"/>
</svg>
