<?xml version="1.0" encoding="utf-8"?>
<!-- Generator: Adobe Illustrator 15.0.0, SVG Export Plug-In . SVG Version: 6.00 Build 0)  -->
<!DOCTYPE svg PUBLIC "-//W3C//DTD SVG 1.1//EN" "http://www.w3.org/Graphics/SVG/1.1/DTD/svg11.dtd">
<svg version="1.1" id="Layer_1" xmlns="http://www.w3.org/2000/svg" xmlns:xlink="http://www.w3.org/1999/xlink" x="0px" y="0px"
	 width="64px" height="64px" viewBox="0 0 64 64" enable-background="new 0 0 64 64" xml:space="preserve">
<path fill="#E81C27" d="M32,2C18.939,2,7.833,10.35,3.714,22h56.573C56.168,10.35,45.061,2,32,2z"/>
<path fill="#302C3B" d="M32,62c13.061,0,24.168-8.35,28.287-20H3.714C7.833,53.65,18.939,62,32,62z"/>
<path fill="#F5F5F5" d="M3.714,22C2.607,25.129,2,28.492,2,32s0.607,6.871,1.714,10h56.573C61.393,38.871,62,35.508,62,32
	s-0.607-6.871-1.713-10H3.714z"/>
<g id="g10">
	<g id="path12">
		<path fill="#529320" d="M44.725,26.572c-0.178-0.094-0.377-0.243-0.445-0.334c-0.098-0.14-0.041-0.145,0.371-0.033
			c0.734,0.199,1.211,0.122,1.682-0.277l0.416-0.351l0.488,0.249c0.27,0.136,0.557,0.23,0.637,0.209
			c0.213-0.057,0.652-0.62,0.637-0.814c-0.016-0.241,0.188-0.181,0.285,0.084c0.195,0.518-0.088,1.112-0.592,1.243
			c-0.246,0.064-0.473,0.041-0.844-0.089c-0.457-0.16-0.535-0.157-0.764,0.019C46.082,26.871,45.365,26.908,44.725,26.572z"/>
	</g>
	<g id="path14">
		<path fill="#529320" d="M46.543,24.908c-0.178-0.228-0.393-1.087-0.322-1.299c0.061-0.182,0.123-0.22,0.289-0.167
			c0.293,0.092,0.359,0.292,0.314,0.973C46.791,24.97,46.711,25.116,46.543,24.908z"/>
	</g>
</g>
<g id="path16">
	<path fill="#529320" d="M25.104,24.29c-0.059,0.417,0.738,1.451,1.098,1.638c-0.244,0.11-0.549,0.061-0.771,0.184
		c-1.256,1.255-5.834,5.718-6.671,6.785c2.477,0.049,5.224-0.035,7.546-0.14c0-1.684,1.594-1.771,2.662-2.383
		c0.549,0.865,1.93,0.799,2.104,2.102c0,1.56,0.002,3.907,0.002,5.603c-7.006,0-14.154,0-21.158,0
		c-0.373,1.645-1.856,2.898-3.924,2.383c0.639-0.668,1.717-0.898,2.102-1.82c0.325-2.023-0.65-3.27-1.28-4.416
		c1.044-0.381,1.201-0.475,2.262-1.189c-0.744,2.262,1.934,2.014,3.923,1.963c0.066-0.768,0.029-1.674-0.562-1.785
		c0.761-0.277,0.888-0.372,2.104-1.402c0,0.935,0,2.111,0,3.047c4.726,0,9.827-0.037,14.651-0.037c0-0.951,0.252-2.483-0.502-2.483
		c-0.721,0-0.033,1.96-0.594,1.96s-7.532,0-11.315,0c0-0.422-0.012-1.303-0.012-1.938c0.481-0.479,0.424-0.438,3.7-3.715
		C20.794,28.318,23.094,26.241,25.104,24.29z"/>
</g>
<g id="path18">
	<path fill="#529320" d="M53.385,24.21c0.791,0.425,1.416,1.014,2.383,1.261c-0.111,0.4-0.469,0.559-0.561,0.981
		c0,2.848,0,5.696,0,8.544c1.08,0.238,1.309-0.373,1.822-0.699c0.139,1.367,1.01,2.707,0.98,3.781c-1.541,0-3.082,0-4.625,0
		C53.385,33.457,53.385,28.833,53.385,24.21z"/>
</g>
<g id="path20">
	<path fill="#529320" d="M47.221,28.786c0,0,1.682-1.419,1.682-1.474c0,2.428,0,5.029,0,7.457l1.211-0.002
		c0-2.841-0.035-5.723-0.035-8.363c0.488-0.492,1.453-1.204,1.693-1.701c0,5.076,0,9.373,0,13.355
		c-3.412,0-9.779,0.004-10.621,0.004c-0.154-2.771-0.182-5.643,3.049-5.027c0-0.471,0-0.751,0-1.129
		c-0.098-0.193-0.275,0.047-0.316-0.205c0.514-0.514,0.688-0.645,2.076-1.858c0,1.465,0.027,4.921,0.027,4.921
		c0.338,0,1,0.002,1.225,0.002C47.211,34.766,47.221,28.977,47.221,28.786z M43.234,34.693c0.227,0.342,1.002,0.336,0.965-0.238
		C44.07,33.98,43.053,34.16,43.234,34.693z"/>
</g>
<g id="circle22">
	<circle fill="#529320" cx="12.489" cy="39.653" r="0.649"/>
</g>
<g id="path24">
	<path fill="#529320" d="M49.693,34.867"/>
</g>
<g id="path26">
	<path fill="#529320" d="M45.971,34.867"/>
</g>
<g id="path28">
	<path fill="#529320" d="M32.504,24.224c0.791,0.425,1.416,1.013,2.383,1.261c-0.111,0.399-0.469,0.559-0.563,0.979
		c0,2.849,0,5.698,0,8.546c1.08,0.238,1.307-0.375,1.822-0.701c0.141,1.369,1.012,2.709,0.98,3.783c-1.539,0-3.082,0-4.623,0
		C32.504,33.469,32.504,28.847,32.504,24.224z"/>
</g>
<path opacity="0.1" fill="#1A1626" d="M50.738,8.591c4.096,5.13,6.563,11.622,6.563,18.701c0,16.567-13.43,30.003-29.996,30.003
	c-7.1,0-13.609-2.479-18.744-6.594C14.055,57.58,22.504,62,32.004,62c16.566,0,29.994-13.432,29.994-30
	C61.998,22.527,57.596,14.09,50.738,8.591z"/>
<path opacity="0.3" fill-rule="evenodd" clip-rule="evenodd" fill="#FFFFFF" d="M9.734,19.015c0.549,3.865,7.768-3.7,15.08-10.202
	C29.531,4.63,8.084,7.385,9.734,19.015z"/>
</svg>
