<?xml version="1.0" encoding="utf-8"?>
<!-- Generator: Adobe Illustrator 15.0.0, SVG Export Plug-In . SVG Version: 6.00 Build 0)  -->
<!DOCTYPE svg PUBLIC "-//W3C//DTD SVG 1.1//EN" "http://www.w3.org/Graphics/SVG/1.1/DTD/svg11.dtd">
<svg version="1.1" id="Layer_1" xmlns="http://www.w3.org/2000/svg" xmlns:xlink="http://www.w3.org/1999/xlink" x="0px" y="0px"
	 width="64px" height="64px" viewBox="0 0 64 64" enable-background="new 0 0 64 64" xml:space="preserve">
<path fill="#014D87" d="M10.788,53.213c11.715,11.715,30.711,11.715,42.426,0L10.788,10.787
	C-0.929,22.502-0.929,41.498,10.788,53.213z"/>
<path fill="#FFE12C" d="M10.788,10.787l42.426,42.426V10.787C41.499-0.93,22.503-0.93,10.788,10.787z"/>
<path fill="#014D87" d="M53.214,10.787v42.426C64.929,41.498,64.929,22.502,53.214,10.787z"/>
<polygon fill="#F5F5F5" points="10.907,20.98 13.323,22.814 12.409,19.832 14.815,17.984 11.837,17.975 10.907,15 9.979,17.975 
	7.001,17.984 9.405,19.832 8.493,22.814 "/>
<polygon fill="#F5F5F5" points="17.745,27.818 20.159,29.65 19.247,26.67 21.651,24.822 18.675,24.813 17.745,21.838 16.815,24.813 
	13.839,24.822 16.243,26.67 15.329,29.65 "/>
<polygon fill="#F5F5F5" points="24.583,34.654 26.997,36.488 26.085,33.508 28.489,31.658 25.511,31.648 24.583,28.674 
	23.653,31.648 20.675,31.658 23.079,33.508 22.167,36.488 "/>
<polygon fill="#F5F5F5" points="31.419,41.492 33.835,43.326 32.921,40.344 35.327,38.496 32.349,38.486 31.419,35.512 
	30.491,38.486 27.513,38.496 29.917,40.344 29.005,43.326 "/>
<polygon fill="#F5F5F5" points="38.257,48.33 40.671,50.162 39.759,47.182 42.163,45.334 39.187,45.324 38.257,42.348 
	37.327,45.324 34.349,45.334 36.755,47.182 35.841,50.162 "/>
<polygon fill="#F5F5F5" points="45.095,55.166 47.509,57 46.597,54.02 49.001,52.17 46.022,52.16 45.095,49.186 44.165,52.16 
	41.187,52.17 43.591,54.02 42.679,57 "/>
<path opacity="0.1" fill="#1A1626" d="M50.737,8.59c4.096,5.131,6.563,11.623,6.563,18.701c0,16.568-13.428,30.004-29.994,30.004
	c-7.102,0-13.609-2.479-18.744-6.594C14.056,57.58,22.503,62,32.003,62c16.566,0,29.996-13.432,29.996-30
	C61.999,22.527,57.595,14.09,50.737,8.59z"/>
<path opacity="0.3" fill-rule="evenodd" clip-rule="evenodd" fill="#FFFFFF" d="M9.735,19.014c0.549,3.865,7.766-3.699,15.08-10.201
	C29.532,4.629,8.083,7.385,9.735,19.014z"/>
</svg>
