<?xml version="1.0" encoding="utf-8"?>
<!-- Generator: Adobe Illustrator 15.0.0, SVG Export Plug-In . SVG Version: 6.00 Build 0)  -->
<!DOCTYPE svg PUBLIC "-//W3C//DTD SVG 1.1//EN" "http://www.w3.org/Graphics/SVG/1.1/DTD/svg11.dtd">
<svg version="1.1" id="Layer_1" xmlns="http://www.w3.org/2000/svg" xmlns:xlink="http://www.w3.org/1999/xlink" x="0px" y="0px"
	 width="64px" height="64px" viewBox="0 0 64 64" enable-background="new 0 0 64 64" xml:space="preserve">
<path fill="#529320" d="M22,60.285V3.713C10.35,7.833,2,18.938,2,32C2,45.061,10.35,56.166,22,60.285z"/>
<path fill="#FFE12C" d="M22,32h40C62,15.432,48.568,2,32,2c-3.508,0-6.871,0.607-10,1.713V32z"/>
<path fill="#E81C27" d="M22,32v28.285C25.129,61.391,28.492,62,32,62c16.568,0,30-13.432,30-30H22z"/>
<path opacity="0.1" fill="#1A1626" d="M50.737,8.59c4.097,5.131,6.563,11.623,6.563,18.701c0,16.568-13.429,30.003-29.995,30.003
	c-7.101,0-13.609-2.479-18.744-6.594C14.055,57.58,22.503,62,32.004,62c16.565,0,29.994-13.432,29.994-30
	C61.998,22.528,57.596,14.09,50.737,8.59z"/>
<path opacity="0.3" fill-rule="evenodd" clip-rule="evenodd" fill="#FFFFFF" d="M9.734,19.014c0.549,3.865,7.767-3.699,15.08-10.201
	C29.531,4.629,8.083,7.385,9.734,19.014z"/>
</svg>
