<?xml version="1.0" encoding="utf-8"?>
<!-- Generator: Adobe Illustrator 15.0.0, SVG Export Plug-In . SVG Version: 6.00 Build 0)  -->
<!DOCTYPE svg PUBLIC "-//W3C//DTD SVG 1.1//EN" "http://www.w3.org/Graphics/SVG/1.1/DTD/svg11.dtd">
<svg version="1.1" id="Layer_1" xmlns="http://www.w3.org/2000/svg" xmlns:xlink="http://www.w3.org/1999/xlink" x="0px" y="0px"
	 width="64px" height="64px" viewBox="0 0 64 64" enable-background="new 0 0 64 64" xml:space="preserve">
<path fill="#529320" d="M61.537,26.767C59.059,12.695,46.783,2,32,2C17.218,2,4.941,12.695,2.464,26.767L32,12L61.537,26.767z"/>
<path fill="#529320" d="M2.464,37.232C4.941,51.305,17.218,62,32,62c14.783,0,27.059-10.695,29.537-24.768L32,52L2.464,37.232z"/>
<path fill="#FFE12C" d="M32,12L2.464,26.767C2.165,28.468,2,30.214,2,32c0,1.786,0.165,3.534,0.464,5.233L32,52l29.537-14.768
	C61.836,35.533,62,33.785,62,32c0-1.785-0.164-3.531-0.463-5.232L32,12z"/>
<path fill="#014D87" d="M25.997,28.435c-3.174,0-6.175,0.688-8.895,1.871C17.04,30.863,17,31.425,17,32c0,8.286,6.716,15,15,15
	c5.604,0,10.482-3.078,13.058-7.633C41.362,32.865,34.213,28.435,25.997,28.435z"/>
<path fill="#014D87" d="M46.787,34.43C46.916,33.637,47,32.83,47,32c0-8.283-6.715-15-15-15c-5.923,0-11.029,3.443-13.468,8.428
	c2.367-0.689,4.867-1.084,7.465-1.084C34.501,24.343,42.044,28.318,46.787,34.43z"/>
<path fill="#F5F5F5" d="M25.997,24.343c-2.598,0-5.098,0.395-7.465,1.084c-0.735,1.504-1.234,3.145-1.43,4.879
	c2.72-1.184,5.721-1.871,8.895-1.871c8.216,0,15.365,4.43,19.061,10.932c0.851-1.504,1.44-3.168,1.729-4.938
	C42.044,28.318,34.501,24.343,25.997,24.343z"/>
<circle fill="#F5F5F5" cx="22" cy="32" r="1"/>
<circle fill="#F5F5F5" cx="26" cy="38" r="1"/>
<circle fill="#F5F5F5" cx="32" cy="38" r="1"/>
<circle fill="#F5F5F5" cx="32" cy="42" r="1"/>
<circle fill="#F5F5F5" cx="40" cy="38" r="1"/>
<circle fill="#F5F5F5" cx="40" cy="42" r="1"/>
<circle fill="#F5F5F5" cx="36" cy="40" r="1"/>
<circle fill="#F5F5F5" cx="22" cy="36" r="1"/>
<path opacity="0.1" fill="#1A1626" d="M50.737,8.591C54.834,13.72,57.3,20.212,57.3,27.292c0,16.569-13.429,30.002-29.995,30.002
	c-7.101,0-13.609-2.477-18.744-6.594C14.055,57.58,22.503,62,32.004,62c16.565,0,29.994-13.432,29.994-30
	C61.998,22.527,57.596,14.089,50.737,8.591z"/>
<path opacity="0.3" fill-rule="evenodd" clip-rule="evenodd" fill="#FFFFFF" d="M9.734,19.015c0.549,3.865,7.767-3.701,15.08-10.203
	C29.531,4.63,8.083,7.384,9.734,19.015z"/>
</svg>
