<?xml version="1.0" encoding="utf-8"?>
<!-- Generator: Adobe Illustrator 15.0.0, SVG Export Plug-In . SVG Version: 6.00 Build 0)  -->
<!DOCTYPE svg PUBLIC "-//W3C//DTD SVG 1.1//EN" "http://www.w3.org/Graphics/SVG/1.1/DTD/svg11.dtd">
<svg version="1.1" id="Layer_1" xmlns="http://www.w3.org/2000/svg" xmlns:xlink="http://www.w3.org/1999/xlink" x="0px" y="0px"
	 width="64px" height="64px" viewBox="0 0 64 64" enable-background="new 0 0 64 64" xml:space="preserve">
<path fill="#F5F5F5" d="M45.227,38.754c1.031-2.031,1.625-4.322,1.625-6.754c0-2.433-0.594-4.723-1.625-6.755l10.971-10.972
	c-1.869-2.549-4.133-4.787-6.699-6.633L38.539,18.6c-2.027-1.015-4.311-1.6-6.734-1.6s-4.705,0.585-6.734,1.6L14.273,7.802
	c-2.549,1.87-4.787,4.133-6.635,6.698l10.746,10.745C17.354,27.277,16.76,29.567,16.76,32c0,2.432,0.594,4.723,1.625,6.754
	L7.639,49.5c1.848,2.564,4.086,4.828,6.635,6.697L25.07,45.4c2.029,1.014,4.311,1.6,6.734,1.6s4.707-0.586,6.734-1.6l10.959,10.959
	c2.566-1.846,4.83-4.084,6.699-6.633L45.227,38.754z"/>
<path fill="#E81C27" d="M31.805,17c2.424,0,4.707,0.585,6.734,1.6L49.498,7.641C44.572,4.095,38.531,2,32,2
	c-6.633,0-12.76,2.156-17.727,5.802L25.07,18.6C27.1,17.585,29.381,17,31.805,17z"/>
<path fill="#529320" d="M46.852,32c0,2.432-0.594,4.723-1.625,6.754l10.971,10.973C59.842,44.76,62,38.633,62,32
	s-2.158-12.76-5.803-17.727L45.227,25.245C46.258,27.277,46.852,29.567,46.852,32z"/>
<path fill="#529320" d="M16.76,32c0-2.433,0.594-4.723,1.625-6.755L7.639,14.5C4.094,19.427,2,25.467,2,32s2.094,12.572,5.639,17.5
	l10.746-10.746C17.354,36.723,16.76,34.432,16.76,32z"/>
<path fill="#E81C27" d="M31.805,47c-2.424,0-4.705-0.586-6.734-1.6L14.273,56.197C19.24,59.844,25.367,62,32,62
	c6.531,0,12.572-2.096,17.498-5.641L38.539,45.4C36.512,46.414,34.229,47,31.805,47z"/>
<path fill="#E81C27" d="M34.805,25.778h-1.998L31.805,24l-1,1.778h-2l0,0l0,0l1.002,1.778l-1.002,1.778h2l1,1.778l1.002-1.778h1.998
	l-1-1.778L34.805,25.778L34.805,25.778z"/>
<path fill="#E81C27" d="M28.805,34.667h-1.998l-1.002-1.778l-1,1.778h-2l0,0l0,0l1.002,1.777l-1.002,1.778h2l1,1.777l1.002-1.777
	h1.998l-1-1.778L28.805,34.667L28.805,34.667z"/>
<path fill="#E81C27" d="M40.805,34.667h-1.998l-1.002-1.778l-1,1.778h-2l0,0l0,0l1.002,1.777l-1.002,1.778h2l1,1.777l1.002-1.777
	h1.998l-1-1.778L40.805,34.667L40.805,34.667z"/>
<path opacity="0.1" fill="#1A1626" d="M50.736,8.591c4.096,5.13,6.563,11.622,6.563,18.701c0,16.567-13.43,30.003-29.994,30.003
	c-7.102,0-13.611-2.479-18.746-6.594C14.053,57.58,22.502,62,32.002,62c16.566,0,29.994-13.432,29.994-30
	C61.996,22.527,57.594,14.09,50.736,8.591z"/>
<path opacity="0.3" fill-rule="evenodd" clip-rule="evenodd" fill="#FFFFFF" d="M9.734,19.015c0.549,3.865,7.766-3.7,15.08-10.202
	C29.531,4.63,8.082,7.385,9.734,19.015z"/>
</svg>
