<?xml version="1.0" encoding="utf-8"?>
<!-- Generator: Adobe Illustrator 15.0.0, SVG Export Plug-In . SVG Version: 6.00 Build 0)  -->
<!DOCTYPE svg PUBLIC "-//W3C//DTD SVG 1.1//EN" "http://www.w3.org/Graphics/SVG/1.1/DTD/svg11.dtd">
<svg version="1.1" id="Layer_1" xmlns="http://www.w3.org/2000/svg" xmlns:xlink="http://www.w3.org/1999/xlink" x="0px" y="0px"
	 width="64px" height="64px" viewBox="0 0 64 64" enable-background="new 0 0 64 64" xml:space="preserve">
<path fill="#ED7612" d="M2,32C2,15.436,15.438,2,32,2c16.572,0,30,13.436,30,30c0,16.57-13.428,30-30,30C15.438,62,2,48.57,2,32z"/>
<path fill="#E64C18" d="M45.777,5.354C53.172,10.61,58,19.24,58,29c0,16.019-12.98,29-29,29c-9.759,0-18.39-4.829-23.646-12.224
	C10.347,55.412,20.404,62,32,62c16.57,0,30-13.43,30-30C62,20.402,55.412,10.347,45.777,5.354z"/>
<path fill-rule="evenodd" clip-rule="evenodd" fill="#F59E01" d="M10.218,17.397c0.446,3.134,6.31-2.997,12.248-8.267
	C26.298,5.741,8.878,7.973,10.218,17.397z"/>
<path fill="#FFFFFF" d="M39.42,26.547c-0.459-1.982-1.582-3.367-3.365-4.154c-0.998-0.434-2.107-0.648-3.328-0.648
	c-2.336,0-4.254,0.881-5.757,2.643c-1.502,1.762-2.254,4.41-2.254,7.945c0,3.564,0.814,6.086,2.441,7.566
	c1.627,1.479,3.478,2.219,5.55,2.219c2.035,0,3.701-0.584,5-1.75c1.301-1.168,2.1-2.697,2.402-4.588h-6.713v-4.844h12.088v15.572
	h-4.018l-0.609-3.623c-1.168,1.373-2.219,2.34-3.15,2.9c-1.6,0.98-3.568,1.471-5.904,1.471c-3.845,0-6.995-1.332-9.448-3.994
	c-2.56-2.676-3.839-6.334-3.839-10.977c0-4.695,1.292-8.459,3.878-11.293c2.585-2.832,6.004-4.248,10.255-4.248
	c3.688,0,6.65,0.934,8.889,2.805c2.236,1.869,3.52,4.203,3.848,6.998H39.42z"/>
</svg>
