<?xml version="1.0" encoding="utf-8"?>
<!-- Generator: Adobe Illustrator 15.0.0, SVG Export Plug-In . SVG Version: 6.00 Build 0)  -->
<!DOCTYPE svg PUBLIC "-//W3C//DTD SVG 1.1//EN" "http://www.w3.org/Graphics/SVG/1.1/DTD/svg11.dtd">
<svg version="1.1" id="Layer_1" xmlns="http://www.w3.org/2000/svg" xmlns:xlink="http://www.w3.org/1999/xlink" x="0px" y="0px"
	 width="64px" height="64px" viewBox="0 0 64 64" enable-background="new 0 0 64 64" xml:space="preserve">
<circle fill="#F5F5F5" cx="32" cy="32.001" r="30"/>
<path fill="#302C3B" d="M47.428,38.173L47.34,38.05c-0.281-0.393-0.387-0.539-0.668-0.539l-0.244,0.002l-0.148,0.184
	c-0.162,0.199-0.119,0.406-0.074,0.623c0.029,0.133,0.07,0.33,0.1,0.578c0.061,0.502-3.176,0.959-4.24,1.109
	c-0.744,0.105-1.465,0.209-2.068,0.328l-0.102,0.027c-0.709,0.152-1.221,0.488-1.439,0.941c-0.141,0.285-0.012,0.506,0.273,0.99
	c0.271,0.463,0.75,1.275,0.844,1.9c-0.09,0.057-0.18,0.111-0.271,0.162c-2.516,1.369-4.504,1.877-7.336,1.877
	c-2.83,0-4.818-0.508-7.334-1.877c-0.092-0.051-0.182-0.105-0.271-0.162c0.094-0.625,0.574-1.439,0.846-1.904
	c0.283-0.48,0.412-0.699,0.273-0.984c-0.219-0.455-0.732-0.789-1.412-0.938l-0.131-0.033c-0.604-0.119-1.324-0.223-2.068-0.328
	c-1.064-0.15-4.301-0.607-4.24-1.109c0.029-0.248,0.07-0.445,0.1-0.578c0.045-0.219,0.088-0.424-0.074-0.623l-0.154-0.186H17.26
	c-0.281,0-0.387,0.146-0.668,0.537l-0.088,0.123c-0.264,0.363-0.352,0.719-0.264,1.055c0.029,0.117,0.129,0.338,0.266,0.629
	c0.15,0.314,0.348,0.73,0.523,1.197c0.244,0.65,0.389,1.232,0.414,1.688c0.041,0.744,0.881,1.006,1.381,1.16
	c0.432,0.135,0.99,0.166,1.486,0.182c-0.016,0.367-0.078,0.75-0.197,1.207c-0.09,0.348-0.018,0.758,0.188,1.068
	c0.219,0.334,0.547,0.541,0.836,0.723l0.105,0.066c3.32,2.129,7.129,3.301,10.723,3.301c3.598,0,7.406-1.172,10.725-3.301
	l0.109-0.068c0.287-0.182,0.613-0.387,0.834-0.719c0.207-0.32,0.275-0.719,0.186-1.07c-0.119-0.457-0.184-0.84-0.199-1.207
	c0.498-0.016,1.057-0.047,1.486-0.182c0.502-0.154,1.34-0.416,1.383-1.16c0.025-0.455,0.168-1.039,0.414-1.688
	c0.176-0.465,0.373-0.879,0.521-1.193c0.139-0.293,0.238-0.516,0.268-0.631C47.779,38.89,47.691,38.534,47.428,38.173z"/>
<path fill="#F5F5F5" d="M47.023,38.466c-0.563-0.781-0.324-0.494-0.223,0.373c0.156,1.305-4.256,1.502-6.707,1.986L40,40.851
	c-0.52,0.113-0.939,0.35-1.096,0.674c-0.07,0.139-0.039,0.324,0.035,0.467l-0.051-0.02c0.453,0.791,1.244,1.342,1.199,2.49
	c-0.182,0.113-0.361,0.232-0.549,0.334c-2.701,1.469-4.768,1.938-7.574,1.938c-2.805,0-4.871-0.469-7.572-1.938
	c-0.188-0.102-0.367-0.221-0.549-0.334c-0.045-1.148,0.746-1.699,1.199-2.49l-0.051,0.02c0.074-0.143,0.105-0.328,0.037-0.467
	c-0.156-0.324-0.578-0.561-1.098-0.674l-0.094-0.025c-2.451-0.484-6.863-0.682-6.707-1.986c0.102-0.867,0.34-1.154-0.223-0.373
	c-0.145,0.199-0.242,0.418-0.184,0.635c0.059,0.232,0.451,0.92,0.771,1.775c0.227,0.6,0.414,1.26,0.445,1.836
	c0.02,0.32,0.391,0.512,1.031,0.711c0.51,0.158,1.299,0.154,1.832,0.17c0.033,0.521-0.012,1.068-0.207,1.822
	c-0.057,0.219-0.002,0.48,0.123,0.668c0.18,0.277,0.504,0.457,0.791,0.641c3.32,2.129,7.051,3.223,10.453,3.223
	c3.404,0,7.135-1.092,10.455-3.223c0.287-0.184,0.611-0.363,0.793-0.639c0.123-0.189,0.178-0.449,0.121-0.67
	c-0.195-0.754-0.24-1.301-0.207-1.822c0.533-0.016,1.322-0.012,1.832-0.17c0.641-0.199,1.012-0.391,1.031-0.711
	c0.031-0.576,0.217-1.236,0.443-1.836c0.324-0.855,0.715-1.543,0.773-1.775C47.266,38.884,47.168,38.665,47.023,38.466z"/>
<path fill="#014D87" d="M40.488,21.782H23.51c-0.047,2.883-0.043,5.77,0,8.654c0.039,2.779,0.176,4.947,1.4,6.645
	c1.473,2.043,3.93,3.516,7.088,4.965c3.16-1.449,5.615-2.922,7.088-4.965c1.225-1.697,1.361-3.865,1.402-6.645
	C40.531,27.552,40.533,24.665,40.488,21.782z"/>
<path fill="#E81C27" d="M40.252,34.044c0.006-0.721,0.154-1.064,0.154-1.785c0.076-1.447,0.105-2.885,0.082-4.328H23.51
	c-0.023,1.443,0.004,2.869,0.08,4.328c0,0.721,0.154,1.064,0.16,1.785H40.252z"/>
<path fill="#FFE12C" d="M21.594,17.274l1.916,4.508c5.199-1.557,11.592-1.551,16.979,0l1.951-4.605l0.553,0.184l0.703-1.611
	L42.4,15.378l-0.303,0.773l-0.627-0.172l0.273-0.771l-1.313-0.297l-0.24,0.781l-0.623-0.121l0.205-0.795l-1.318-0.229l-0.182,0.791
	L37.41,15.21l-0.08,0.4L37,15.565l0.064-0.4l-0.666-0.072l-0.061,0.393l-0.334-0.033l0.053-0.402l-0.662-0.061l-0.057,0.402
	l-0.645-0.045l0.121-1.217l-1.334-0.059l-0.049,0.803l-0.65-0.014l0.021-0.805h-1.344l0.012,0.795l-0.639,0.01l-0.043-0.789
	l-1.34,0.068l0.119,1.199l-0.646,0.049l-0.055-0.404l-0.666,0.061l0.049,0.406l-0.326,0.031l-0.068-0.4l-0.668,0.086l0.066,0.395
	l-0.324,0.043l-0.076-0.398l-0.873,0.123l-0.18-0.785l-1.318,0.23l0.223,0.779l-0.646,0.125l-0.234-0.771L22.51,15.21l0.268,0.742
	l-0.625,0.184l-0.293-0.756l-1.291,0.381l0.703,1.611L21.594,17.274z"/>
<polygon fill="#F5F5F5" points="32.098,30.88 32.938,28.817 32.02,29.429 31.104,28.817 31.943,30.88 29.883,30.04 30.494,30.956 
	29.883,31.872 31.943,31.032 31.104,33.095 32.02,32.483 32.938,33.095 32.098,31.032 34.158,31.872 33.547,30.956 34.158,30.04 "/>
<path fill="#302C3B" d="M23.828,31.913l-0.021-0.486h-0.369l0.002-0.211c0.082-1.922-1.256-3.063-2.549-4.166
	c-0.326-0.277-0.658-0.561-0.975-0.859c0.996,0.654,2.029,1.41,2.434,1.74l-0.094,0.363l0.496,0.289h0.143
	c0.439,0,0.666-0.439,0.744-0.627l0.055-0.135l-0.025-0.143c-0.148-0.842-1.719-2.527-3.102-3.875
	c0.018-0.455-0.096-0.824-0.342-1.098c-0.158-0.178-0.367-0.307-0.611-0.379c0.195-0.221,0.412-0.4,0.559-0.523
	c0.207-0.172,0.371-0.307,0.365-0.648c-0.102-0.621-0.785-0.781-1.49-0.342l-0.203-0.119c-0.396-0.197-0.857-0.059-1.287,0.447
	h-0.125c-0.152,0-0.383,0.047-0.605,0.27c-0.176,0.178-0.313,0.436-0.416,0.721l-0.105,0.021c-0.436,0.084-0.9,0.443-0.902,1.592
	l-0.018,0.014c-0.324-0.486-0.494-0.938-0.6-1.221c-0.109-0.289-0.221-0.588-0.635-0.621c-0.209,0-0.4,0.096-0.527,0.264
	c-0.055,0.076-0.139,0.186-0.164,0.453l-0.137,0.002l-0.137,0.105c-0.23,0.182-0.369,0.436-0.4,0.74l-0.109-0.01l-0.41,0.115
	l-0.08,0.217c-0.129,0.346-0.1,0.711,0.006,1.059l-0.309,0.016l-0.145,0.24c-0.092,0.152-0.18,0.297,0.123,1.021l-0.273,0.104
	c-0.193,0.146-0.301,0.361-0.303,0.605c-0.002,0.232,0.105,0.484,0.268,0.73L11.51,27.64c-0.129,0.174-0.174,0.391-0.131,0.611
	c0.041,0.213,0.176,0.432,0.355,0.639c-0.105,0.178-0.133,0.383-0.076,0.588c0.168,0.615,1.229,1.168,2.156,1.545
	c-0.52,0.607-0.832,1.252-0.758,1.635l0.09,0.338l0.277,0.092l0.193,0.031c0.098,0,0.193-0.021,0.295-0.063
	c-0.023,0.191-0.014,0.365,0.039,0.512c0.082,0.236,0.266,0.402,0.5,0.451l0.107,0.012c0.355,0,0.539-0.283,0.814-0.713l0.01-0.016
	l0.02,0.199c-0.334,0.402-1.055,1.283-1.283,1.646c-0.256,0.307-0.199,0.568-0.141,0.701l0.004,0.012
	c-0.311,0.303-0.648,0.611-0.848,0.738c-0.354,0.242-0.311,0.535-0.273,0.65l0.193,0.377h0.1l0.018,0.045l0.051,0.121l0.105,0.08
	c0.264,0.201,0.682,0.16,1.047-0.004l0.033,0.021l0.117,0.07h0.139c0.191,0,0.416-0.09,0.637-0.215l0.32,0.107l0.201-0.127
	c0.184-0.115,0.865-0.67,1.4-1.109c0.148,0.383,0.264,0.855,0.314,1.154l0.074,0.436l0.039-0.002
	c-0.016,1.311-0.029,1.557-0.025,1.561l-0.049,0.264l0.189,0.186c0.713,0.697,0.996,1.092,1.201,1.379
	c0.117,0.16,0.213,0.293,0.33,0.418l0.424,0.457l0.354-0.512c0.096-0.137,0.203-0.197,0.352-0.197l0.137,0.016h-0.002l0.535,0.199
	l0.127-0.555c0.068-0.291,0.457-0.65,0.635-0.779l1.102-0.795l-1.354-0.109c-0.799-0.064-2.094-0.438-2.436-0.609
	c-0.041-0.117-0.102-0.434,0.023-1.176c0.188-0.18,0.727-0.711,1.363-1.432c0.305,0.078,0.586,0.207,0.854,0.395l0.145,0.07
	c0.189,0.057,0.375,0.055,0.561,0.023l0.166-0.029l0.113-0.123l0.178-0.201c0.135-0.158,0.547-0.641,0.688-0.676l0.584,0.137
	l0.029-0.598C23.91,34.792,23.83,32.03,23.828,31.913z M22.438,34.046c-0.121,0.662-0.307,1.26-0.498,1.346
	c0,0-0.096-0.018-0.279-0.219C21.955,34.78,22.215,34.405,22.438,34.046z"/>
<path fill="#FFE12C" d="M18.945,36.962l-0.785,0.475c-0.021,2.5-0.045,2.588-0.045,2.588c1.096,1.072,1.225,1.467,1.549,1.814
	c0.42-0.609,1.072-0.365,1.072-0.365c0.133-0.576,0.828-1.072,0.828-1.072c-0.971-0.078-2.652-0.576-2.785-0.775
	C18.338,38.966,18.945,36.962,18.945,36.962z"/>
<path fill="#FFE12C" d="M23.055,32.485c0.117,0.813-0.352,5.754-2.275,2.484l-1.82,1.281c0,0,1.352-0.551,2.738,0.42
	c0.131,0.039,0.229,0.027,0.332,0.01c0.27-0.287,0.877-1.131,1.346-1.021c0.035-0.713-0.047-3.564-0.047-3.564
	C23.125,32.087,23.055,32.485,23.055,32.485z"/>
<path fill="#FFE12C" d="M22.906,27.94l-0.074,0.291c0.176,0.109,0.344-0.299,0.344-0.299c-0.178-1.006-3.41-4.037-3.41-4.037
	l-1.422,0.301l-0.125,0.625C19.379,25.241,22.828,27.741,22.906,27.94z"/>
<path fill="#F5F5F5" d="M18.627,25.702c0,0-0.473-1.408,0.398-0.785c0.703-0.109,0.643-0.809,0.643-0.809h0.387
	c0.162-1.418-1.164-1.184-1.311-1.154c0.32-0.885,1.299-1.459,1.299-1.551c-0.109-0.67-1.367,0.426-1.969,1.068
	c0.201-0.664,0.59-1.141,0.547-1.162c-0.4-0.201-0.891,0.541-1.197,1.125c0.02-0.354,0.037-0.625,0.008-0.625
	c-0.51,0-0.811,1.422-0.807,2.084c-0.119-0.533-0.176-0.994-0.225-1.082c-0.623,0.121-0.516,1.346-0.436,1.891
	c-0.189-0.195-0.332-0.328-0.332-0.328c-0.08,0.072-0.059,0.359-0.047,0.584c-1.121-1.129-1.289-2.363-1.418-2.373
	c-0.469-0.039-0.057,1.506,0.125,2.113c-0.566-0.756-0.715-1.459-0.799-1.395c-0.842,0.658,1.018,2.83,1.443,3.232
	c-1.98-1.184-2.049-2.479-2.283-2.393c-0.482,1.305,2.529,3.568-0.377,1.426c-0.477-0.35,0.609,1.703,0.609,1.703
	c0.482,0.449-0.738-0.533-0.996-0.463c-0.545,0.414,1.205,1.791,1.205,1.791c0.164,0.246-0.959-0.551-1.184-0.498
	c-0.365,0.498,1.404,1.58,1.404,1.58c0.764,0.439-1.074-0.533-1.117-0.42c-0.566,0.666,2.516,1.73,2.516,1.73
	c-0.973,0.84-1.291,1.732-1.133,1.787c0.234,0.078,1.08-0.764,1.545-1.016c-0.629,0.773-0.939,1.854-0.57,1.934
	c0.229,0.01,0.848-1.596,1.748-1.857c-0.289,0.627-0.551,1.428-0.357,1.955c0,0-1.199,1.43-1.424,1.814
	c-0.332,0.367,0.314,0.264,0.314,0.264s-0.955,1.008-1.42,1.305c-0.391,0.268,0.744,0.002,0.971-0.137
	c-0.219,0.139-0.795,0.512-0.758,0.602c0.273,0.207,1.064-0.375,1.064-0.375s-0.189,0.266-0.031,0.359
	c0.266,0,0.875-0.484,0.875-0.484s-0.123,0.281,0.016,0.328c0.242-0.152,1.682-1.348,1.82-1.465
	c0.439,0.576,0.654,1.848,0.654,1.848l0.754-0.035c0,0,4.244-3.994,4.156-6.457C23.049,28.813,20.309,27.847,18.627,25.702z
	 M19.271,28.536c0.162,0.354,0.176,0.818,0.143,1.225c-0.213-0.006-0.625-0.01-1.107,0.041c-0.029-0.51-0.08-1.637,0.006-2.33
	C18.807,28.108,19.271,28.536,19.271,28.536z M17.125,32.146c-0.029,0.232-0.041,0.424-0.035,0.574l-0.563,0.529
	C16.717,32.769,16.934,32.243,17.125,32.146z"/>
<path fill="#302C3B" d="M40.127,35.517l0.029,0.598l0.584-0.137c0.141,0.035,0.553,0.518,0.688,0.676l0.178,0.201l0.115,0.123
	l0.166,0.029c0.184,0.031,0.371,0.033,0.561-0.023l0.145-0.07c0.268-0.188,0.549-0.316,0.852-0.395
	c0.637,0.721,1.178,1.252,1.363,1.432c0.125,0.742,0.066,1.059,0.025,1.176c-0.344,0.172-1.637,0.545-2.436,0.609l-1.354,0.107
	l1.102,0.797c0.178,0.127,0.566,0.486,0.633,0.777l0.129,0.557l0.533-0.199l0,0l0.135-0.018c0.148,0,0.258,0.061,0.352,0.197
	l0.354,0.514l0.424-0.457c0.119-0.127,0.215-0.258,0.33-0.42c0.207-0.287,0.49-0.68,1.201-1.377l0.191-0.188l-0.049-0.262
	c0.002-0.004-0.012-0.25-0.025-1.561l0.037,0.002l0.076-0.436c0.051-0.299,0.164-0.771,0.314-1.154
	c0.535,0.439,1.215,0.994,1.4,1.109l0.199,0.127l0.322-0.107c0.219,0.125,0.443,0.215,0.637,0.215h0.137l0.119-0.07l0.031-0.021
	c0.365,0.164,0.783,0.205,1.047,0.004l0.105-0.08l0.053-0.121l0.018-0.045h0.098l0.195-0.377c0.035-0.115,0.08-0.408-0.275-0.65
	c-0.197-0.127-0.535-0.436-0.848-0.738l0.006-0.012c0.059-0.133,0.113-0.395-0.141-0.701c-0.23-0.363-0.951-1.244-1.285-1.646
	l0.02-0.199l0.01,0.016c0.277,0.43,0.461,0.713,0.816,0.713l0.105-0.012c0.236-0.049,0.418-0.215,0.502-0.451
	c0.051-0.146,0.061-0.32,0.039-0.512c0.1,0.041,0.197,0.063,0.295,0.063l0.191-0.031l0.277-0.092l0.092-0.338
	c0.074-0.383-0.238-1.027-0.76-1.635c0.93-0.377,1.99-0.93,2.156-1.545c0.057-0.205,0.029-0.41-0.076-0.588
	c0.18-0.207,0.314-0.426,0.357-0.639c0.043-0.221-0.004-0.438-0.131-0.611l-0.045-0.061c0.164-0.246,0.271-0.498,0.27-0.73
	c-0.002-0.244-0.111-0.459-0.303-0.605l-0.275-0.104c0.303-0.725,0.215-0.869,0.125-1.021l-0.146-0.24l-0.307-0.016
	c0.105-0.348,0.133-0.713,0.004-1.059l-0.08-0.217l-0.41-0.115l-0.109,0.01c-0.031-0.305-0.168-0.559-0.4-0.74l-0.135-0.105
	l-0.139-0.002c-0.025-0.268-0.107-0.377-0.164-0.453c-0.125-0.168-0.318-0.264-0.527-0.264c-0.412,0.033-0.525,0.332-0.633,0.621
	c-0.107,0.283-0.275,0.734-0.602,1.221L48.6,23.745c-0.002-1.148-0.469-1.508-0.904-1.592l-0.105-0.021
	c-0.104-0.285-0.24-0.543-0.416-0.721c-0.221-0.223-0.451-0.27-0.605-0.27h-0.125c-0.428-0.506-0.891-0.645-1.287-0.447
	l-0.201,0.119c-0.707-0.439-1.389-0.279-1.49,0.342c-0.008,0.342,0.156,0.477,0.363,0.648c0.148,0.123,0.363,0.303,0.561,0.523
	c-0.246,0.072-0.453,0.201-0.613,0.379c-0.244,0.273-0.357,0.643-0.34,1.098c-1.385,1.348-2.953,3.033-3.102,3.875l-0.025,0.143
	l0.055,0.135c0.076,0.188,0.303,0.627,0.744,0.627h0.143l0.494-0.289l-0.092-0.363c0.404-0.33,1.436-1.086,2.434-1.74
	c-0.318,0.299-0.648,0.582-0.975,0.859c-1.295,1.104-2.633,2.244-2.549,4.166v0.211h-0.369l-0.02,0.486
	C40.17,32.03,40.092,34.792,40.127,35.517z M42.342,35.173c-0.184,0.201-0.279,0.219-0.279,0.219
	c-0.191-0.086-0.379-0.684-0.5-1.346C41.785,34.405,42.045,34.78,42.342,35.173z"/>
<path fill="#FFE12C" d="M45.057,36.962l0.785,0.475c0.021,2.5,0.043,2.588,0.043,2.588c-1.094,1.072-1.225,1.465-1.547,1.813
	c-0.42-0.607-1.072-0.365-1.072-0.365c-0.133-0.574-0.83-1.072-0.83-1.072c0.973-0.078,2.654-0.574,2.785-0.773
	C45.662,38.966,45.057,36.962,45.057,36.962z"/>
<path fill="#FFE12C" d="M40.947,32.485c-0.117,0.813,0.352,5.754,2.275,2.484l1.82,1.281c0,0-1.352-0.551-2.738,0.42
	c-0.131,0.039-0.229,0.027-0.334,0.01c-0.268-0.287-0.875-1.131-1.344-1.021c-0.035-0.713,0.047-3.564,0.047-3.564
	C40.877,32.087,40.947,32.485,40.947,32.485z"/>
<path fill="#FFE12C" d="M41.096,27.94l0.074,0.291c-0.178,0.109-0.344-0.299-0.344-0.299c0.176-1.006,3.408-4.037,3.408-4.037
	l1.424,0.301l0.125,0.625C44.621,25.241,41.174,27.741,41.096,27.94z"/>
<path fill="#F5F5F5" d="M41.061,31.362c-0.086,2.463,4.158,6.457,4.158,6.457l0.752,0.035c0,0,0.215-1.271,0.656-1.848
	c0.139,0.117,1.576,1.313,1.818,1.465c0.141-0.047,0.016-0.328,0.016-0.328s0.611,0.484,0.877,0.484
	c0.156-0.094-0.031-0.359-0.031-0.359s0.791,0.582,1.063,0.375c0.037-0.09-0.539-0.463-0.758-0.602
	c0.227,0.139,1.361,0.404,0.971,0.137c-0.465-0.297-1.418-1.305-1.418-1.305s0.645,0.104,0.313-0.264
	c-0.225-0.385-1.424-1.814-1.424-1.814c0.193-0.527-0.068-1.328-0.357-1.955c0.9,0.262,1.52,1.867,1.75,1.857
	c0.367-0.08,0.059-1.16-0.57-1.934c0.465,0.252,1.311,1.094,1.543,1.016c0.158-0.055-0.158-0.947-1.133-1.787
	c0,0,3.084-1.064,2.516-1.73c-0.041-0.113-1.879,0.859-1.117,0.42c0,0,1.771-1.082,1.404-1.58c-0.223-0.053-1.346,0.744-1.182,0.498
	c0,0,1.75-1.377,1.205-1.791c-0.26-0.07-1.479,0.912-0.996,0.463c0,0,1.084-2.053,0.607-1.703c-2.906,2.143,0.105-0.121-0.377-1.426
	c-0.232-0.086-0.301,1.209-2.283,2.393c0.426-0.402,2.285-2.574,1.445-3.232c-0.084-0.064-0.234,0.639-0.799,1.395
	c0.18-0.607,0.594-2.152,0.123-2.113c-0.127,0.01-0.297,1.244-1.418,2.373c0.014-0.225,0.033-0.512-0.047-0.584
	c0,0-0.143,0.133-0.332,0.328c0.08-0.545,0.189-1.77-0.434-1.891c-0.049,0.088-0.105,0.549-0.227,1.082
	c0.004-0.662-0.297-2.084-0.807-2.084c-0.027,0-0.012,0.271,0.01,0.625c-0.309-0.584-0.797-1.326-1.197-1.125
	c-0.043,0.021,0.346,0.498,0.545,1.162c-0.602-0.643-1.859-1.738-1.969-1.068c0,0.092,0.98,0.666,1.299,1.551
	c-0.146-0.029-1.471-0.264-1.309,1.154h0.387c0,0-0.063,0.699,0.641,0.809c0.871-0.623,0.398,0.785,0.398,0.785
	C43.693,27.847,40.951,28.813,41.061,31.362z M45.688,27.472c0.086,0.693,0.037,1.82,0.006,2.33
	c-0.48-0.051-0.893-0.047-1.107-0.041c-0.031-0.406-0.02-0.871,0.143-1.225C44.729,28.536,45.193,28.108,45.688,27.472z
	 M47.473,33.249l-0.561-0.529c0.006-0.15-0.006-0.342-0.037-0.574C47.066,32.243,47.283,32.769,47.473,33.249z"/>
<polyline fill="#FFE12C" points="37.578,22.577 36.348,25.749 37.184,26.036 36.793,27.136 38.369,27.136 37.975,26.036 
	38.816,25.749 37.578,22.577 "/>
<polyline fill="#FFE12C" points="26.455,22.577 25.223,25.749 26.059,26.036 25.67,27.136 27.246,27.136 26.85,26.036 
	27.691,25.749 26.455,22.577 "/>
<polyline fill="#FFE12C" points="32.018,22.577 30.785,25.749 31.621,26.036 31.232,27.136 32.809,27.136 32.412,26.036 
	33.254,25.749 32.018,22.577 "/>
<polygon fill="#FFE12C" points="30.871,37.298 26.871,37.298 26.871,34.298 28.109,35.753 28.871,34.298 29.633,35.753 
	30.871,34.298 "/>
<polygon fill="#FFE12C" points="37.16,37.298 33.16,37.298 33.16,34.298 34.398,35.753 35.16,34.298 35.922,35.753 37.16,34.298 "/>
<polygon fill="#FFE12C" points="34.016,40.812 30.016,40.812 30.016,37.812 31.254,39.267 32.016,37.812 32.777,39.267 
	34.016,37.812 "/>
<path opacity="0.05" fill="#1A1626" d="M50.736,8.591c4.098,5.131,6.563,11.623,6.563,18.701c0,16.568-13.428,30.004-29.994,30.004
	c-7.1,0-13.609-2.479-18.744-6.594c5.494,6.879,13.941,11.299,23.443,11.299c16.564,0,29.994-13.432,29.994-30
	C61.998,22.528,57.596,14.091,50.736,8.591z"/>
<path opacity="0.9" fill-rule="evenodd" clip-rule="evenodd" fill="#FFFFFF" d="M9.734,19.015c0.549,3.865,7.768-3.699,15.08-10.201
	C29.531,4.63,8.084,7.386,9.734,19.015z"/>
</svg>
