<?xml version="1.0" encoding="utf-8"?>
<!-- Generator: Adobe Illustrator 15.0.0, SVG Export Plug-In . SVG Version: 6.00 Build 0)  -->
<!DOCTYPE svg PUBLIC "-//W3C//DTD SVG 1.1//EN" "http://www.w3.org/Graphics/SVG/1.1/DTD/svg11.dtd">
<svg version="1.1" id="Layer_1" xmlns="http://www.w3.org/2000/svg" xmlns:xlink="http://www.w3.org/1999/xlink" x="0px" y="0px"
	 width="64px" height="64px" viewBox="0 0 64 64" enable-background="new 0 0 64 64" xml:space="preserve">
<rect x="12" y="12" fill="#014D87" width="20.75" height="20.75"/>
<polygon fill="#F5F5F5" points="18.912,8.14 18.912,14 11.6,14 26,32 32,32 32,24.5 "/>
<path fill="#014D87" d="M32,2v30H2c0,16.568,13.432,30,30,30s30-13.432,30-30S48.568,2,32,2z"/>
<path fill="#F5F5F5" d="M11,18.912H5.012C3.088,22.869,2,27.306,2,32h12V13.912h-3V18.912z"/>
<polygon fill="#E81C27" points="32,27.059 19,11 13,11 30,32 32,32 "/>
<path fill="#F5F5F5" d="M18.912,5.012V11H11v3h21V2C27.307,2,22.869,3.088,18.912,5.012z"/>
<path fill="#E81C27" d="M32,5H18.912C12.857,7.94,7.941,12.857,5,18.912V32h6V11h21V5z"/>
<path fill="#F5F5F5" d="M50.053,27.919c0.572-1.522,1.924-2.422,3.021-2.01c0.303,0.113,0.551,0.313,0.746,0.575
	c-0.053-0.924-0.484-1.689-1.203-1.959c-1.098-0.412-2.451,0.488-3.021,2.01c-0.414,1.104-0.303,2.232,0.211,2.926
	C49.779,28.975,49.855,28.444,50.053,27.919z"/>
<path fill="#F5F5F5" d="M42.227,24.505c-1.098-0.412-2.449,0.488-3.02,2.01c-0.252,0.669-0.289,1.335-0.182,1.919
	c-0.502,0.385-1.186,0.649-1.957,0.699c-0.559,0.036-1.09-0.043-1.547-0.211c0.516,0.691,1.561,1.127,2.738,1.052
	c1.623-0.104,2.877-1.136,2.803-2.307c-0.027-0.421-0.233-0.795-0.548-1.106c0.644-0.648,1.459-0.938,2.171-0.671
	c0.301,0.113,0.551,0.313,0.744,0.575C43.379,25.541,42.947,24.775,42.227,24.505z"/>
<path fill="#F5F5F5" d="M59.721,27.545c-0.951-1.131-2.264-1.364-2.928-0.521c-0.182,0.23-0.297,0.519-0.348,0.838
	c-0.285-0.857-0.234-1.733,0.201-2.285c0.666-0.843,1.977-0.609,2.928,0.521c0.691,0.821,1.002,1.888,0.867,2.734
	C60.291,28.38,60.049,27.935,59.721,27.545z"/>
<path fill="#F5F5F5" d="M36.375,27.14c0.52-1.096,0.236-2.157-0.629-2.368c-0.238-0.058-0.494-0.046-0.752,0.024
	c0.545-0.504,1.221-0.764,1.789-0.626c0.865,0.212,1.148,1.272,0.629,2.368c-0.377,0.796-1.07,1.391-1.754,1.578
	C35.945,27.851,36.195,27.518,36.375,27.14z"/>
<path fill="#302C3B" d="M42.775,31.797c0,0,0.055,5.053,0.131,5.52c0.078,0.468,0.361,3.367,4.537,5.107
	c0,0,3.227-1.369,4.049-3.271c0.82-1.901,0.658-5.478,0.658-5.478v-1.951L42.775,31.797"/>
<path fill="#F5F5F5" d="M43.113,32.172c0,0,0.051,4.694,0.123,5.128c0.072,0.436,0.336,3.129,4.215,4.746
	c0,0,2.998-1.272,3.762-3.039c0.762-1.766,0.611-5.09,0.611-5.09v-1.813L43.113,32.172"/>
<polyline fill="#1B81B6" points="51.873,33.698 50.59,33.304 49.02,34.022 47.43,33.462 46.016,34.022 44.367,33.304 43.121,33.771 
	43.129,35.39 44.375,34.923 46.023,35.642 47.438,35.081 49.027,35.642 50.598,34.923 51.879,35.318 51.873,33.698 "/>
<path fill="#1B81B6" d="M43.979,39.411c0.148-0.047,2.09,0.641,2.09,0.641l1.412-0.562l1.586,0.562c0,0,1.846-0.699,1.979-0.67
	c0.471,0.106-2.74,2.664-3.555,2.664C46.678,42.046,43.559,39.545,43.979,39.411"/>
<path fill="#1B81B6" d="M51.488,38.017c-0.244-0.114-0.996-0.258-0.996-0.258l-1.541,0.719l-1.561-0.562l-1.389,0.562l-1.617-0.719
	c0,0-0.805,0.218-1.045,0.355c-0.109,0.064-0.188-1.24-0.188-1.24l1.227-0.466l1.615,0.719l1.391-0.562l1.561,0.562l1.541-0.719
	l1.256,0.396C51.742,36.804,51.648,38.091,51.488,38.017"/>
<g>
	<defs>
		<path id="SVGID_1_" d="M50.832,39.712l-0.004,0.003l-0.102,0.128l0.102-0.127L50.832,39.712 M47.617,34.175l-4.111,4.388
			c0.162,0.433,0.393,0.849,0.715,1.253l3.416-3.488l3.195,3.385c0.336-0.445,0.563-0.904,0.715-1.388L47.617,34.175"/>
	</defs>
	<clipPath id="SVGID_2_">
		<use xlink:href="#SVGID_1_"  overflow="visible"/>
	</clipPath>
	<polygon clip-path="url(#SVGID_2_)" fill="#288549" points="47.254,34.175 43.506,37.923 43.506,34.175 	"/>
	<polygon clip-path="url(#SVGID_2_)" fill="#288549" points="51.547,39.292 51.023,39.815 43.506,39.815 43.506,37.927 
		47.258,34.175 51.547,34.175 	"/>
	<polygon clip-path="url(#SVGID_2_)" fill="#288549" points="51.023,39.815 51.547,39.292 51.547,39.815 	"/>
	<rect x="50.727" y="39.712" clip-path="url(#SVGID_2_)" fill="#288549" width="0.105" height="0.131"/>
</g>
<polygon fill="#302C3B" points="44.68,28.253 45.32,29.739 49.508,29.739 50.148,28.253 47.414,21.92 "/>
<polygon fill="#7ED16D" points="44.961,28.122 45.537,29.454 49.291,29.454 49.865,28.122 47.414,22.441 "/>
<polygon fill="#93695A" points="44.246,26.923 46.359,29.504 48.877,29.401 49.463,27.633 47.627,27.525 46.438,28.12 "/>
<path fill="#6BAAA7" d="M47.221,29.079l-3.213,0.946l1.516,1.813l-0.012,1.651l1.598-0.247c0,0,0.752-1.464,0.855-1.493
	c0.104-0.028,1.506,0.468,1.506,0.468l0.326-0.813l1.801-0.634l-3.104-0.744l0.111-0.765L47.221,29.079z"/>
<g>
	<defs>
		<path id="SVGID_3_" d="M52.057,29.763c-0.555,0.348-1.187,0.453-1.786,0.364c0.732-0.146,1.362-0.676,1.585-1.442
			c0.234-0.797-0.035-1.621-0.621-2.135c0.098,0.354,0.1,0.739-0.012,1.118c-0.318,1.098-1.539,1.91-2.566,1.408
			c-0.498-0.243-0.58-0.855-0.625-1.228c-0.34,0.68-0.357,1.486-0.048,2.212c-0.062,0.099-0.125,0.196-0.169,0.309
			c-0.375,0.967,0.104,2.056,1.072,2.432c0.703,0.272,1.469,0.094,1.98-0.394c-0.33,0.059-0.678,0.03-1.012-0.1
			c-0.568-0.221-0.962-0.69-1.119-1.234c0.854,0.692,2.079,0.812,3.061,0.195c0.898-0.563,1.34-1.576,1.221-2.563
			C52.807,29.126,52.482,29.495,52.057,29.763z"/>
	</defs>
	<clipPath id="SVGID_4_">
		<use xlink:href="#SVGID_3_"  overflow="visible"/>
	</clipPath>
	<rect x="47.439" y="26.549" clip-path="url(#SVGID_4_)" fill="#288549" width="0.247" height="6.524"/>
	<rect x="47.687" y="26.549" clip-path="url(#SVGID_4_)" fill="#288549" width="5.351" height="6.524"/>
	<rect x="53.037" y="26.549" clip-path="url(#SVGID_4_)" fill="#288549" width="0.1" height="6.524"/>
</g>
<g>
	<defs>
		<path id="SVGID_5_" d="M42.715,25.888c0.541,1.533,0.082,3.092-1.023,3.481c-0.303,0.107-0.623,0.114-0.939,0.038
			c0.633,0.675,1.455,0.984,2.18,0.729c1.105-0.39,1.564-1.948,1.023-3.481c-0.391-1.113-1.203-1.906-2.041-2.107
			C42.248,24.902,42.529,25.359,42.715,25.888z"/>
	</defs>
	<clipPath id="SVGID_6_">
		<use xlink:href="#SVGID_5_"  overflow="visible"/>
	</clipPath>
	<polygon clip-path="url(#SVGID_6_)" fill="#288549" points="40.752,29.532 42.152,30.392 40.752,30.392 	"/>
	<polygon clip-path="url(#SVGID_6_)" fill="#288549" points="42.114,24.547 44.496,26.009 44.496,30.392 42.151,30.392 
		40.752,29.533 40.752,24.547 	"/>
	<polygon clip-path="url(#SVGID_6_)" fill="#288549" points="44.496,26.009 42.113,24.547 44.496,24.547 	"/>
</g>
<g>
	<defs>
		<path id="SVGID_7_" d="M36.203,27.179c-0.283,0.803-0.045,1.621,0.535,1.825c0.16,0.056,0.328,0.06,0.494,0.02
			c-0.332,0.354-0.764,0.516-1.143,0.382c-0.58-0.204-0.82-1.021-0.537-1.825c0.205-0.583,0.631-0.999,1.07-1.104
			C36.447,26.663,36.301,26.901,36.203,27.179z"/>
	</defs>
	<clipPath id="SVGID_8_">
		<use xlink:href="#SVGID_7_"  overflow="visible"/>
	</clipPath>
	<polygon clip-path="url(#SVGID_8_)" fill="#288549" points="36.498,29.54 37.232,29.089 37.232,29.54 	"/>
	<polygon clip-path="url(#SVGID_8_)" fill="#288549" points="35.27,27.244 36.52,26.477 37.232,26.477 37.232,29.09 36.499,29.54 
		35.27,29.54 	"/>
	<polygon clip-path="url(#SVGID_8_)" fill="#288549" points="36.52,26.477 35.27,27.244 35.27,26.477 	"/>
</g>
<g>
	<defs>
		<path id="SVGID_9_" d="M58.15,25.41c-0.836,0.167-1.416,0.79-1.295,1.393c0.031,0.165,0.113,0.312,0.232,0.434
			c-0.473-0.105-0.832-0.393-0.91-0.788c-0.121-0.603,0.459-1.226,1.295-1.393c0.607-0.121,1.18,0.032,1.496,0.356
			C58.719,25.356,58.438,25.353,58.15,25.41z"/>
	</defs>
	<clipPath id="SVGID_10_">
		<use xlink:href="#SVGID_9_"  overflow="visible"/>
	</clipPath>
	<polygon clip-path="url(#SVGID_10_)" fill="#288549" points="56.057,26.756 56.969,27.236 56.057,27.236 	"/>
	<polygon clip-path="url(#SVGID_10_)" fill="#288549" points="58.18,24.935 58.969,25.35 58.969,27.236 56.968,27.236 
		56.057,26.756 56.057,24.935 	"/>
	<polygon clip-path="url(#SVGID_10_)" fill="#288549" points="58.969,25.35 58.18,24.935 58.969,24.935 	"/>
</g>
<g>
	<defs>
		<path id="SVGID_11_" d="M56.039,27.452c-1.299,0.321-2.504-0.351-2.693-1.5c-0.051-0.316-0.02-0.634,0.078-0.937
			c-0.617,0.532-0.961,1.304-0.838,2.057c0.188,1.15,1.395,1.821,2.693,1.501c0.943-0.233,1.676-0.925,1.934-1.726
			C56.887,27.126,56.486,27.341,56.039,27.452z"/>
	</defs>
	<clipPath id="SVGID_12_">
		<use xlink:href="#SVGID_11_"  overflow="visible"/>
	</clipPath>
	<polygon clip-path="url(#SVGID_12_)" fill="#288549" points="53.377,25.015 52.463,26.12 52.463,25.015 	"/>
	<polygon clip-path="url(#SVGID_12_)" fill="#288549" points="57.213,27.109 55.739,28.893 52.463,28.893 52.463,26.119 
		53.375,25.015 57.213,25.015 	"/>
	<polygon clip-path="url(#SVGID_12_)" fill="#288549" points="55.738,28.893 57.213,27.109 57.213,28.893 	"/>
</g>
<path fill="#74948F" d="M36.258,43.275c-1.26-0.505,2.9-2.749,4.736-2.646c1.41,0.079,4.213,2.49,3.195,2.774
	C39.189,44.8,39.363,44.521,36.258,43.275z"/>
<path fill="#E5C9BD" d="M40.691,31.813c0.074-0.415,0.516-1.192,0.84-1.463c0.299-0.252,1.084-0.58,1.471-0.53
	c0.271,0.034,1,0.36,0.898,0.612l-0.277-0.046c-0.293,0.146-0.383,0.923-0.607,1.162c-0.18,0.192-0.771,0.315-0.898,0.545
	c-0.119,0.219,0.111,0.991,0.111,0.991l-1.455,0.132C40.773,33.217,40.631,32.159,40.691,31.813z"/>
<path fill="#C6A397" d="M41.119,36.853c-0.033,0.098,0.707,1.758,0.873,2.453c0.299,1.248-1.602,3.293-1.471,2.286
	c0.174-1.321-0.473-2.556-0.473-2.556L41.119,36.853z"/>
<path fill="#E5C9BD" d="M40.588,37.939c-0.063,0.082,0.133,1.89,0.078,2.603c-0.098,1.279-2.535,2.644-2.102,1.725
	c0.57-1.204,0.334-2.576,0.334-2.576L40.588,37.939z"/>
<path fill="#E5C9BD" d="M41.584,33.296c0.027,0.1,1.572,1.059,2.098,1.541c0.945,0.867,0.518,3.627,0.063,2.719
	c-0.598-1.19-1.822-1.852-1.822-1.852L41.584,33.296z"/>
<path fill="#D66B3C" d="M41.137,32.425c-1.23,0.123-2.861,2.494-3.363,3.624c-0.529,1.195-1.205,4.964-0.451,5.212
	c0.887,0.293,3.936-2.029,4.646-3.258c0.586-1.019,0.9-3.613,0.412-4.682C42.221,32.973,41.518,32.388,41.137,32.425z"/>
<path fill="#74948F" d="M58.682,43.275c1.258-0.505-2.9-2.749-4.734-2.646c-1.412,0.079-4.215,2.49-3.195,2.774
	C55.75,44.8,55.574,44.521,58.682,43.275z"/>
<path fill="#E5C9BD" d="M54.248,31.813c-0.074-0.415-0.516-1.192-0.84-1.463c-0.299-0.252-1.082-0.58-1.471-0.53
	c-0.27,0.034-1,0.36-0.898,0.612l0.277-0.046c0.295,0.146,0.381,0.923,0.605,1.162c0.18,0.192,0.775,0.315,0.9,0.545
	c0.119,0.219-0.113,0.991-0.113,0.991l1.457,0.132C54.166,33.217,54.309,32.159,54.248,31.813z"/>
<path fill="#C6A397" d="M53.82,36.853c0.033,0.098-0.707,1.758-0.875,2.453c-0.297,1.248,1.604,3.293,1.473,2.286
	c-0.172-1.321,0.473-2.556,0.473-2.556L53.82,36.853z"/>
<path fill="#E5C9BD" d="M54.352,37.939c0.063,0.082-0.133,1.89-0.078,2.603c0.1,1.279,2.535,2.644,2.102,1.725
	c-0.57-1.204-0.334-2.576-0.334-2.576L54.352,37.939z"/>
<path fill="#E5C9BD" d="M53.355,33.296c-0.027,0.1-1.57,1.059-2.098,1.541c-0.947,0.867-0.518,3.627-0.063,2.719
	c0.598-1.19,1.822-1.852,1.822-1.852L53.355,33.296z"/>
<path fill="#D66B3C" d="M53.803,32.425c1.229,0.123,2.861,2.494,3.363,3.624c0.529,1.195,1.205,4.964,0.451,5.212
	c-0.887,0.293-3.936-2.029-4.645-3.258c-0.588-1.019-0.902-3.613-0.412-4.682C52.719,32.973,53.422,32.388,53.803,32.425z"/>
<path opacity="0.15" fill="#1A1626" d="M50.738,8.591c4.096,5.13,6.563,11.622,6.563,18.701c0,16.568-13.43,30.003-29.996,30.003
	c-7.1,0-13.609-2.478-18.744-6.594C14.055,57.58,22.504,62,32.004,62c16.566,0,29.994-13.432,29.994-30
	C61.998,22.527,57.596,14.09,50.738,8.591z"/>
<path opacity="0.3" fill-rule="evenodd" clip-rule="evenodd" fill="#FFFFFF" d="M9.734,19.015c0.549,3.865,7.768-3.7,15.08-10.202
	C29.531,4.63,8.084,7.385,9.734,19.015z"/>
</svg>
