<?xml version="1.0" encoding="utf-8"?>
<!-- Generator: Adobe Illustrator 15.0.0, SVG Export Plug-In . SVG Version: 6.00 Build 0)  -->
<!DOCTYPE svg PUBLIC "-//W3C//DTD SVG 1.1//EN" "http://www.w3.org/Graphics/SVG/1.1/DTD/svg11.dtd">
<svg version="1.1" id="Layer_1" xmlns="http://www.w3.org/2000/svg" xmlns:xlink="http://www.w3.org/1999/xlink" x="0px" y="0px"
	 width="64px" height="64px" viewBox="0 0 64 64" enable-background="new 0 0 64 64" xml:space="preserve">
<path fill="#E81C27" d="M32,2C19.319,2,8.502,9.88,4.111,21h55.776C55.498,9.88,44.68,2,32,2z"/>
<path fill="#529320" d="M32,62c12.68,0,23.498-7.879,27.888-19H4.111C8.502,54.121,19.319,62,32,62z"/>
<path fill="#014D87" d="M62,32c0-3.138-0.49-6.158-1.384-9H3.384C2.489,25.842,2,28.862,2,32c0,3.139,0.489,6.158,1.384,9h57.232
	C61.51,38.158,62,35.139,62,32z"/>
<path fill="#F5F5F5" d="M60.285,22c-0.119-0.34-0.266-0.667-0.397-1H4.111c-0.132,0.333-0.277,0.66-0.397,1
	c-0.117,0.33-0.225,0.664-0.33,1h57.232C60.511,22.664,60.402,22.33,60.285,22z"/>
<path fill="#F5F5F5" d="M3.714,42c0.12,0.34,0.266,0.666,0.397,1h55.776c0.132-0.334,0.278-0.66,0.397-1
	c0.117-0.33,0.226-0.664,0.331-1H3.384C3.489,41.336,3.597,41.67,3.714,42z"/>
<path opacity="0.1" fill="#1A1626" d="M50.736,8.591c4.096,5.13,6.563,11.622,6.563,18.701c0,16.567-13.429,30.003-29.994,30.003
	c-7.101,0-13.61-2.479-18.745-6.594C14.054,57.58,22.502,62,32.002,62c16.566,0,29.995-13.432,29.995-30
	C61.997,22.527,57.594,14.09,50.736,8.591z"/>
<path opacity="0.3" fill-rule="evenodd" clip-rule="evenodd" fill="#FFFFFF" d="M9.734,19.015c0.549,3.865,7.767-3.7,15.08-10.202
	C29.531,4.63,8.083,7.385,9.734,19.015z"/>
</svg>
