<?xml version="1.0" encoding="utf-8"?>
<!-- Generator: Adobe Illustrator 15.0.0, SVG Export Plug-In . SVG Version: 6.00 Build 0)  -->
<!DOCTYPE svg PUBLIC "-//W3C//DTD SVG 1.1//EN" "http://www.w3.org/Graphics/SVG/1.1/DTD/svg11.dtd">
<svg version="1.1" id="Layer_1" xmlns="http://www.w3.org/2000/svg" xmlns:xlink="http://www.w3.org/1999/xlink" x="0px" y="0px"
	 width="64px" height="64px" viewBox="0 0 64 64" enable-background="new 0 0 64 64" xml:space="preserve">
<path fill="#302C3B" d="M8,22h52.287C56.168,10.35,45.061,2,32,2C22.183,2,13.472,6.719,8,14.01V22z"/>
<path fill="#F5F5F5" d="M60.287,22H8v20h52.287C61.393,38.871,62,35.508,62,32S61.393,25.129,60.287,22z"/>
<path fill="#529320" d="M8,42v7.99C13.472,57.281,22.183,62,32,62c13.061,0,24.168-8.35,28.287-20H8z"/>
<path fill="#E81C27" d="M8,14c-3.767,5.016-6,11.246-6,18s2.233,12.986,6,18l24-18L8,14z"/>
<polygon fill="#F5F5F5" points="11.044,29.691 12,27 12.957,29.691 15.536,28.465 14.31,31.045 17,32 14.31,32.957 15.535,35.537 
	12.957,34.311 12,37 11.044,34.311 8.465,35.537 9.69,32.957 7,32 9.69,31.045 8.466,28.465 "/>
<path opacity="0.1" fill="#1A1626" d="M50.738,8.59c4.096,5.131,6.563,11.623,6.563,18.701c0,16.568-13.43,30.004-29.995,30.004
	c-7.101,0-13.61-2.479-18.745-6.594C14.055,57.58,22.504,62,32.004,62c16.566,0,29.994-13.432,29.994-30
	C61.998,22.527,57.596,14.09,50.738,8.59z"/>
<path opacity="0.3" fill-rule="evenodd" clip-rule="evenodd" fill="#FFFFFF" d="M9.735,19.014c0.549,3.865,7.767-3.699,15.08-10.201
	C29.532,4.629,8.084,7.385,9.735,19.014z"/>
</svg>
