<?xml version="1.0" encoding="utf-8"?>
<!-- Generator: Adobe Illustrator 15.0.0, SVG Export Plug-In . SVG Version: 6.00 Build 0)  -->
<!DOCTYPE svg PUBLIC "-//W3C//DTD SVG 1.1//EN" "http://www.w3.org/Graphics/SVG/1.1/DTD/svg11.dtd">
<svg version="1.1" id="Layer_1" xmlns="http://www.w3.org/2000/svg" xmlns:xlink="http://www.w3.org/1999/xlink" x="0px" y="0px"
	 width="64px" height="64px" viewBox="0 0 64 64" enable-background="new 0 0 64 64" xml:space="preserve">
<path fill="#006DAE" d="M32,2C18.939,2,7.832,10.35,3.713,22h56.572C56.166,10.35,45.061,2,32,2z"/>
<path fill="#006DAE" d="M32,62c13.061,0,24.166-8.35,28.285-20H3.713C7.832,53.65,18.939,62,32,62z"/>
<path fill="#F5F5F5" d="M3.713,22C2.607,25.129,2,28.492,2,32s0.607,6.871,1.713,10h56.572C61.393,38.871,62,35.508,62,32
	s-0.607-6.871-1.715-10H3.713z"/>
<polygon fill="#0FB4D4" points="32.002,25.339 25.73,35.372 38.271,35.372 "/>
<polygon fill="#014D87" points="28.865,30.355 25.73,35.372 38.271,35.372 35.137,30.355 "/>
<g>
	<defs>
		<path id="SVGID_1_" d="M32.957,31.009c0.008-0.032-0.002-0.051-0.02-0.063c0.035-0.097,0.004-0.229,0-0.311
			c-0.02-0.331-0.232-0.721-0.451-1.077c-0.238-0.401-0.541-0.494-1.016-0.212c-0.211,0.123-0.324,0.236-0.438,0.467
			c-0.045,0.1-0.039,0.216,0.01,0.278c0.01,0.018,0.023,0.023,0.039,0.028l0,0c0.031,0.014,0.152,0.063,0.273-0.06
			c0.051-0.044,0.109-0.058,0.135-0.073c-0.061,0.047-0.104,0.113-0.137,0.14c-0.082,0.063-0.207,0.216-0.27,0.37
			c-0.061,0.149-0.086,0.335-0.074,0.356c0.01,0.02,0.086,0.154,0.313,0.247c0.188,0.072,0.305,0.181,0.416,0.273
			c0.008,0.006,0.01,0.008,0.016,0.015c0.113,0.102,0.1,0.154,0.09,0.395c-0.002,0.1,0.014,0.317,0.117,0.335
			c0.014,0.004,0.025,0,0.037,0c0.014,0.014,0.029,0.021,0.047,0.026c0.121,0.035,0.217-0.063,0.262-0.247
			c0.047-0.169,0.082-0.269,0.146-0.37c0.092-0.057,0.129-0.136,0.297-0.105c0.105,0.018,0.186-0.013,0.221-0.06
			c0.02-0.009,0.031-0.024,0.031-0.06C33.002,31.214,32.924,31.13,32.957,31.009z"/>
	</defs>
	<clipPath id="SVGID_2_">
		<use xlink:href="#SVGID_1_"  overflow="visible"/>
	</clipPath>
	<polygon clip-path="url(#SVGID_2_)" fill="#FF2A2A" points="33.002,30.072 30.988,30.833 30.988,29.063 33.002,29.063 	"/>
	<polygon clip-path="url(#SVGID_2_)" fill="#FF2A2A" points="33.002,30.114 30.988,30.876 30.988,30.834 33.002,30.072 	"/>
	<polygon clip-path="url(#SVGID_2_)" fill="#FF2929" points="33.002,30.157 30.988,30.918 30.988,30.876 33.002,30.114 	"/>
	<polygon clip-path="url(#SVGID_2_)" fill="#FF2828" points="33.002,30.2 30.988,30.961 30.988,30.918 33.002,30.157 	"/>
	<polygon clip-path="url(#SVGID_2_)" fill="#FF2727" points="33.002,30.243 30.988,31.004 30.988,30.961 33.002,30.2 	"/>
	<polygon clip-path="url(#SVGID_2_)" fill="#FF2626" points="33.002,30.285 30.988,31.047 30.988,31.004 33.002,30.243 	"/>
	<polygon clip-path="url(#SVGID_2_)" fill="#FF2525" points="33.002,30.328 30.988,31.089 30.988,31.047 33.002,30.285 	"/>
	<polygon clip-path="url(#SVGID_2_)" fill="#FF2424" points="33.002,30.37 30.988,31.132 30.988,31.089 33.002,30.328 	"/>
	<polygon clip-path="url(#SVGID_2_)" fill="#FF2323" points="33.002,30.413 30.988,31.174 30.988,31.132 33.002,30.37 	"/>
	<polygon clip-path="url(#SVGID_2_)" fill="#FF2222" points="33.002,30.456 30.988,31.218 30.988,31.174 33.002,30.413 	"/>
	<polygon clip-path="url(#SVGID_2_)" fill="#FF2121" points="33.002,30.498 30.988,31.26 30.988,31.218 33.002,30.456 	"/>
	<polygon clip-path="url(#SVGID_2_)" fill="#FF2020" points="33.002,30.541 30.988,31.302 30.988,31.26 33.002,30.498 	"/>
	<polygon clip-path="url(#SVGID_2_)" fill="#FF1F1F" points="33.002,30.584 30.988,31.345 30.988,31.302 33.002,30.541 	"/>
	<polygon clip-path="url(#SVGID_2_)" fill="#FF1E1E" points="33.002,30.627 30.988,31.388 30.988,31.345 33.002,30.584 	"/>
	<polygon clip-path="url(#SVGID_2_)" fill="#FF1D1D" points="33.002,30.669 30.988,31.431 30.988,31.388 33.002,30.627 	"/>
	<polygon clip-path="url(#SVGID_2_)" fill="#FF1C1C" points="33.002,30.712 30.988,31.473 30.988,31.431 33.002,30.669 	"/>
	<polygon clip-path="url(#SVGID_2_)" fill="#FF1B1B" points="33.002,30.754 30.988,31.516 30.988,31.473 33.002,30.712 	"/>
	<polygon clip-path="url(#SVGID_2_)" fill="#FF1A1A" points="33.002,30.798 30.988,31.559 30.988,31.516 33.002,30.754 	"/>
	<polygon clip-path="url(#SVGID_2_)" fill="#FF1919" points="33.002,30.84 30.988,31.601 30.988,31.559 33.002,30.798 	"/>
	<polygon clip-path="url(#SVGID_2_)" fill="#FF1818" points="33.002,30.883 30.988,31.644 30.988,31.601 33.002,30.84 	"/>
	<polygon clip-path="url(#SVGID_2_)" fill="#FF1717" points="33.002,30.925 30.988,31.686 30.988,31.644 33.002,30.883 	"/>
	<polygon clip-path="url(#SVGID_2_)" fill="#FF1616" points="33.002,30.968 30.988,31.729 30.988,31.686 33.002,30.925 	"/>
	<polygon clip-path="url(#SVGID_2_)" fill="#FF1414" points="33.002,31.011 30.988,31.771 30.988,31.729 33.002,30.968 	"/>
	<polygon clip-path="url(#SVGID_2_)" fill="#FF1313" points="33.002,31.054 30.988,31.814 30.988,31.771 33.002,31.011 	"/>
	<polygon clip-path="url(#SVGID_2_)" fill="#FF1212" points="33.002,31.096 30.988,31.856 30.988,31.814 33.002,31.054 	"/>
	<polygon clip-path="url(#SVGID_2_)" fill="#FF1111" points="33.002,31.139 30.988,31.899 30.988,31.856 33.002,31.096 	"/>
	<polygon clip-path="url(#SVGID_2_)" fill="#FF1010" points="33.002,31.181 30.988,31.941 30.988,31.899 33.002,31.139 	"/>
	<polygon clip-path="url(#SVGID_2_)" fill="#FF0F0F" points="33.002,31.224 30.988,31.984 30.988,31.941 33.002,31.181 	"/>
	<polygon clip-path="url(#SVGID_2_)" fill="#FF0E0E" points="33.002,31.267 30.988,32.027 30.988,31.984 33.002,31.224 	"/>
	<polygon clip-path="url(#SVGID_2_)" fill="#FF0D0D" points="33.002,31.309 30.988,32.07 30.988,32.027 33.002,31.267 	"/>
	<polygon clip-path="url(#SVGID_2_)" fill="#FF0C0C" points="33.002,31.352 30.988,32.112 30.988,32.07 33.002,31.309 	"/>
	<polygon clip-path="url(#SVGID_2_)" fill="#FF0B0B" points="33.002,31.395 30.988,32.155 30.988,32.112 33.002,31.352 	"/>
	<polygon clip-path="url(#SVGID_2_)" fill="#FF0A0A" points="33.002,31.437 31.037,32.179 30.988,32.179 30.988,32.155 
		33.002,31.395 	"/>
	<polygon clip-path="url(#SVGID_2_)" fill="#FF0909" points="33.002,31.479 31.152,32.179 31.037,32.179 33.002,31.437 	"/>
	<polygon clip-path="url(#SVGID_2_)" fill="#FF0808" points="33.002,31.522 31.264,32.179 31.152,32.179 33.002,31.479 	"/>
	<polygon clip-path="url(#SVGID_2_)" fill="#FF0707" points="33.002,31.564 31.377,32.179 31.264,32.179 33.002,31.522 	"/>
	<polygon clip-path="url(#SVGID_2_)" fill="#FF0606" points="33.002,31.607 31.49,32.179 31.377,32.179 33.002,31.564 	"/>
	<polygon clip-path="url(#SVGID_2_)" fill="#FF0505" points="33.002,31.65 31.602,32.179 31.49,32.179 33.002,31.607 	"/>
	<polygon clip-path="url(#SVGID_2_)" fill="#FF0404" points="33.002,31.692 31.715,32.179 31.602,32.179 33.002,31.65 	"/>
	<polygon clip-path="url(#SVGID_2_)" fill="#FF0303" points="33.002,31.735 31.828,32.179 31.715,32.179 33.002,31.692 	"/>
	<polygon clip-path="url(#SVGID_2_)" fill="#FF0202" points="33.002,31.777 31.941,32.179 31.828,32.179 33.002,31.735 	"/>
	<polygon clip-path="url(#SVGID_2_)" fill="#FF0101" points="33.002,31.82 32.055,32.179 31.941,32.179 33.002,31.777 	"/>
	<polygon clip-path="url(#SVGID_2_)" fill="#FF0000" points="33.002,31.863 32.168,32.179 32.055,32.179 33.002,31.82 	"/>
	<polygon clip-path="url(#SVGID_2_)" fill="#FF0000" points="32.168,32.179 33.002,31.864 33.002,32.179 	"/>
</g>
<path fill="#529320" d="M37.604,34.397c-1.025-0.127-1.863-1.009-2.131-1.877c0,0-0.057-0.077-0.236-0.077
	c-0.182,0-0.236,0.077-0.236,0.077c-0.107,0.348-0.307,0.698-0.572,1.002c-0.268-0.304-0.467-0.654-0.574-1.002
	c0,0-0.057-0.077-0.238-0.077c-0.18,0-0.236,0.077-0.236,0.077c-0.105,0.348-0.307,0.698-0.572,1.002
	c-0.266-0.304-0.465-0.654-0.572-1.002c0,0-0.057-0.077-0.236-0.077s-0.236,0.077-0.236,0.077c-0.105,0.346-0.305,0.693-0.568,0.996
	c-0.264-0.303-0.461-0.65-0.568-0.996c0,0-0.055-0.077-0.234-0.077c-0.182,0-0.238,0.077-0.238,0.077
	c-0.1,0.325-0.301,0.688-0.57,1.019c-0.271-0.308-0.479-0.664-0.586-1.019c0,0-0.055-0.077-0.236-0.077
	c-0.18,0-0.236,0.077-0.236,0.077c-0.268,0.865-1.25,1.982-2.271,2.115l-0.504,0.736h1.629h1.145h0.002h1.617l0,0h0.781h0.838h0.002
	h0.791h2.92l0,0h1.164h1.619L37.604,34.397z"/>
<path fill="#FFE12C" d="M32,23c-4.971,0-9,4.029-9,9s4.029,9,9,9s9-4.029,9-9S36.971,23,32,23z M32,39.5c-4.143,0-7.5-3.358-7.5-7.5
	s3.357-7.5,7.5-7.5s7.5,3.358,7.5,7.5S36.143,39.5,32,39.5z"/>
<path opacity="0.1" fill="#1A1626" d="M50.736,8.592c4.098,5.129,6.563,11.621,6.563,18.701c0,16.568-13.428,30.002-29.994,30.002
	c-7.1,0-13.609-2.477-18.744-6.594C14.055,57.58,22.502,62,32.004,62c16.564,0,29.994-13.432,29.994-30
	C61.998,22.527,57.596,14.09,50.736,8.592z"/>
<path opacity="0.3" fill-rule="evenodd" clip-rule="evenodd" fill="#FFFFFF" d="M9.734,19.016c0.549,3.865,7.768-3.701,15.08-10.203
	C29.531,4.631,8.084,7.385,9.734,19.016z"/>
</svg>
