<?xml version="1.0" encoding="utf-8"?>
<!-- Generator: Adobe Illustrator 15.0.0, SVG Export Plug-In . SVG Version: 6.00 Build 0)  -->
<!DOCTYPE svg PUBLIC "-//W3C//DTD SVG 1.1//EN" "http://www.w3.org/Graphics/SVG/1.1/DTD/svg11.dtd">
<svg version="1.1" id="Layer_1" xmlns="http://www.w3.org/2000/svg" xmlns:xlink="http://www.w3.org/1999/xlink" x="0px" y="0px"
	 width="64px" height="64px" viewBox="0 0 64 64" enable-background="new 0 0 64 64" xml:space="preserve">
<path fill="#0FB4D4" d="M32,2C19.32,2,8.502,9.88,4.111,21h55.777C55.498,9.88,44.68,2,32,2z"/>
<path fill="#529320" d="M32,62c12.68,0,23.498-7.879,27.889-19H4.111C8.502,54.121,19.32,62,32,62z"/>
<path fill="#F5F5F5" d="M62,32c0-3.138-0.488-6.158-1.383-9H3.385C2.49,25.842,2,28.862,2,32c0,3.139,0.49,6.158,1.385,9h57.232
	C61.512,38.158,62,35.139,62,32z"/>
<path fill="#E81C27" d="M59.889,21c0.133,0.334,0.277,0.66,0.398,1c0.117,0.33,0.225,0.665,0.33,1"/>
<g>
	<path fill="#E81C27" d="M60.287,22c-0.121-0.34-0.266-0.666-0.398-1H4.111c-0.131,0.334-0.277,0.66-0.396,1
		c-0.117,0.33-0.225,0.665-0.33,1h57.232C60.512,22.665,60.404,22.33,60.287,22z"/>
</g>
<g>
	<path fill="#E81C27" d="M3.715,42c0.119,0.34,0.266,0.666,0.396,1h55.777c0.133-0.334,0.277-0.66,0.398-1
		c0.117-0.33,0.225-0.664,0.33-1H3.385C3.49,41.336,3.598,41.67,3.715,42z"/>
</g>
<path fill="#F5F5F5" d="M20.41,17.285c-2.361,0-4.275-1.918-4.275-4.285c0-2.366,1.914-4.285,4.275-4.285
	c0.563,0,1.098,0.111,1.59,0.309C21.162,8.384,20.121,8,18.984,8C16.232,8,14,10.238,14,13s2.232,5,4.984,5
	c1.137,0,2.178-0.384,3.016-1.023C21.508,17.174,20.973,17.285,20.41,17.285z"/>
<polygon fill="#F5F5F5" points="24.732,15.203 25.08,16.271 26.209,16.271 25.295,16.932 25.645,18 24.732,17.34 23.818,18 
	24.168,16.932 23.254,16.271 24.383,16.271 "/>
<polygon fill="#F5F5F5" points="28.992,15.203 29.342,16.271 30.471,16.271 29.557,16.932 29.906,18 28.992,17.34 28.08,18 
	28.428,16.932 27.516,16.271 28.645,16.271 "/>
<polygon fill="#F5F5F5" points="33.254,15.203 33.602,16.271 34.73,16.271 33.818,16.932 34.166,18 33.254,17.34 32.34,18 
	32.689,16.932 31.775,16.271 32.904,16.271 "/>
<polygon fill="#F5F5F5" points="37.514,15.203 37.863,16.271 38.992,16.271 38.08,16.932 38.428,18 37.514,17.34 36.602,18 
	36.951,16.932 36.037,16.271 37.166,16.271 "/>
<polygon fill="#F5F5F5" points="41.775,15.203 42.125,16.271 43.254,16.271 42.34,16.932 42.689,18 41.775,17.34 40.863,18 
	41.211,16.932 40.299,16.271 41.426,16.271 "/>
<polygon fill="#F5F5F5" points="28.992,11.602 29.342,12.67 30.471,12.67 29.557,13.33 29.906,14.398 28.992,13.738 28.08,14.398 
	28.428,13.33 27.516,12.67 28.645,12.67 "/>
<polygon fill="#F5F5F5" points="33.254,11.602 33.602,12.67 34.73,12.67 33.818,13.33 34.166,14.398 33.254,13.738 32.34,14.398 
	32.689,13.33 31.775,12.67 32.904,12.67 "/>
<polygon fill="#F5F5F5" points="37.514,11.602 37.863,12.67 38.992,12.67 38.08,13.33 38.428,14.398 37.514,13.738 36.602,14.398 
	36.951,13.33 36.037,12.67 37.166,12.67 "/>
<polygon fill="#F5F5F5" points="41.775,11.602 42.125,12.67 43.254,12.67 42.34,13.33 42.689,14.398 41.775,13.738 40.863,14.398 
	41.211,13.33 40.299,12.67 41.426,12.67 "/>
<polygon fill="#F5F5F5" points="33.254,8 33.602,9.067 34.73,9.067 33.818,9.729 34.166,10.795 33.254,10.136 32.34,10.795 
	32.689,9.729 31.775,9.067 32.904,9.067 "/>
<polygon fill="#F5F5F5" points="37.514,8 37.863,9.067 38.992,9.067 38.08,9.729 38.428,10.795 37.514,10.136 36.602,10.795 
	36.951,9.729 36.037,9.067 37.166,9.067 "/>
<polygon fill="#F5F5F5" points="41.775,8 42.125,9.067 43.254,9.067 42.34,9.729 42.689,10.795 41.775,10.136 40.863,10.795 
	41.211,9.729 40.299,9.067 41.426,9.067 "/>
<path opacity="0.1" fill="#1A1626" d="M50.738,8.591c4.096,5.13,6.563,11.622,6.563,18.701c0,16.569-13.43,30.003-29.996,30.003
	c-7.1,0-13.609-2.477-18.744-6.594C14.055,57.58,22.504,62,32.004,62c16.566,0,29.994-13.432,29.994-30
	C61.998,22.527,57.596,14.09,50.738,8.591z"/>
<path opacity="0.3" fill-rule="evenodd" clip-rule="evenodd" fill="#FFFFFF" d="M9.734,19.015c0.549,3.865,7.768-3.7,15.08-10.202
	C29.531,4.63,8.084,7.385,9.734,19.015z"/>
</svg>
