<?xml version="1.0" encoding="utf-8"?>
<!-- Generator: Adobe Illustrator 15.0.0, SVG Export Plug-In . SVG Version: 6.00 Build 0)  -->
<!DOCTYPE svg PUBLIC "-//W3C//DTD SVG 1.1//EN" "http://www.w3.org/Graphics/SVG/1.1/DTD/svg11.dtd">
<svg version="1.1" id="Layer_1" xmlns="http://www.w3.org/2000/svg" xmlns:xlink="http://www.w3.org/1999/xlink" x="0px" y="0px"
	 width="64px" height="64px" viewBox="0 0 64 64" enable-background="new 0 0 64 64" xml:space="preserve">
<path fill="#ED7612" d="M2,32C2,15.436,15.438,2,32,2c16.572,0,30,13.436,30,30c0,16.57-13.428,30-30,30C15.438,62,2,48.57,2,32z"/>
<path fill="#E64C18" d="M45.777,5.354C53.172,10.611,58,19.24,58,29c0,16.02-12.98,29-29,29c-9.76,0-18.391-4.828-23.646-12.223
	C10.346,55.412,20.404,62,32,62c16.57,0,30-13.43,30-30C62,20.402,55.412,10.348,45.777,5.354z"/>
<path fill-rule="evenodd" clip-rule="evenodd" fill="#F59E01" d="M10.217,17.398c0.447,3.133,6.311-2.998,12.248-8.268
	C26.297,5.742,8.877,7.973,10.217,17.398z"/>
<path fill="#FFFFFF" d="M20.238,17.492h6.355l11.518,20.23v-20.23h5.65v29.016h-6.063L25.887,25.92v20.588h-5.648V17.492z"/>
</svg>
