<?xml version="1.0" encoding="utf-8"?>
<!-- Generator: Adobe Illustrator 15.0.0, SVG Export Plug-In . SVG Version: 6.00 Build 0)  -->
<!DOCTYPE svg PUBLIC "-//W3C//DTD SVG 1.1//EN" "http://www.w3.org/Graphics/SVG/1.1/DTD/svg11.dtd">
<svg version="1.1" id="Layer_1" xmlns="http://www.w3.org/2000/svg" xmlns:xlink="http://www.w3.org/1999/xlink" x="0px" y="0px"
	 width="64px" height="64px" viewBox="0 0 64 64" enable-background="new 0 0 64 64" xml:space="preserve">
<path fill="#529320" d="M2,32C2,38.131,3.843,43.83,7,48.58V15.419C3.843,20.169,2,25.869,2,32z"/>
<path fill="#529320" d="M32,2c-5.467,0-10.586,1.469-15,4.023v51.954C21.414,60.531,26.533,62,32,62c16.568,0,30-13.432,30-30
	C62,15.431,48.568,2,32,2z"/>
<path fill="#E81C27" d="M7,15.419V48.58c2.56,3.852,5.986,7.074,10,9.396V6.023C12.986,8.347,9.56,11.568,7,15.419z"/>
<path fill="#F5F5F5" d="M37.18,8.845c2.482,2.117,4,5.316,3.847,8.828c-0.264,6.049-5.384,10.74-11.433,10.475
	c-1.363-0.059-2.656-0.365-3.841-0.873c1.914,1.631,4.396,2.615,7.105,2.615c6.055,0,10.964-4.91,10.964-10.965
	C43.822,14.406,41.086,10.523,37.18,8.845z"/>
<polygon fill="#F5F5F5" points="26.721,16.906 27.195,15.445 28.73,15.445 27.488,14.542 27.963,13.082 26.721,13.986 
	25.479,13.082 25.953,14.542 24.711,15.445 26.246,15.445 "/>
<polygon fill="#F5F5F5" points="26.246,9.806 26.721,11.265 27.195,9.806 28.73,9.806 27.488,8.902 27.963,7.443 26.721,8.345 
	25.479,7.443 25.953,8.902 24.711,9.806 "/>
<polygon fill="#F5F5F5" points="31.818,12.695 32.293,14.156 32.768,12.695 34.303,12.695 33.061,11.792 33.535,10.332 
	32.293,11.236 31.051,10.332 31.525,11.792 30.283,12.695 "/>
<polygon fill="#F5F5F5" points="21.916,17.292 22.391,15.832 21.148,16.734 19.906,15.832 20.381,17.292 19.139,18.195 
	20.675,18.195 21.148,19.656 21.623,18.195 23.159,18.195 "/>
<polygon fill="#F5F5F5" points="26.721,22.546 27.195,21.085 28.73,21.085 27.488,20.183 27.963,18.722 26.721,19.625 
	25.479,18.722 25.953,20.183 24.711,21.085 26.246,21.085 "/>
<polygon fill="#FFE12C" points="7,15.419 7,21.378 9.979,18.4 "/>
<polygon fill="#FFE12C" points="17,21.378 17,15.419 14.021,18.4 "/>
<polygon fill="#FFE12C" points="7,29.89 7,35.85 9.979,32.869 "/>
<polygon fill="#FFE12C" points="17,35.85 17,29.89 14.021,32.869 "/>
<polygon fill="#FFE12C" points="7,42.621 7,48.58 9.979,45.602 "/>
<polygon fill="#FFE12C" points="17,48.58 17,42.621 14.021,45.602 "/>
<polygon fill="#529320" points="9.75,42.551 7.5,39.205 9.75,35.859 14.25,35.859 16.5,39.205 14.25,42.551 "/>
<polygon fill="#FFE12C" points="9.75,28.847 7.5,25.501 9.75,22.154 14.25,22.154 16.5,25.501 14.25,28.847 "/>
<polygon fill="#E81C27" points="10.367,27.929 8.734,25.501 10.367,23.072 13.633,23.072 15.266,25.501 13.633,27.929 "/>
<polygon fill="#F5F5F5" points="11.347,26.472 10.692,25.501 11.347,24.529 12.654,24.529 13.308,25.501 12.654,26.472 "/>
<polygon fill="#529320" points="9.25,14.613 8.49,13.482 14.021,8.322 16,11.267 13.75,14.613 "/>
<polygon fill="#E81C27" points="9.867,13.695 9.128,12.595 13.133,8.837 14.766,11.267 13.133,13.695 "/>
<polygon fill="#FFE12C" points="9.034,48.994 8.26,50.115 13.723,55.346 15.74,52.428 13.534,49.053 "/>
<polygon fill="#E81C27" points="9.64,49.92 8.887,51.01 12.842,54.818 14.506,52.412 12.905,49.963 "/>
<polygon fill="#E81C27" points="10.367,41.633 8.734,39.205 10.367,36.777 13.633,36.777 15.266,39.205 13.633,41.633 "/>
<polygon fill="#FFE12C" points="11.293,40.178 10.64,39.205 11.293,38.232 12.601,38.232 13.255,39.205 12.601,40.178 "/>
<polygon fill="#FFE12C" points="10.884,11.914 10.485,11.322 12.05,9.853 12.845,10.941 12.191,11.914 "/>
<polygon fill="#F5F5F5" points="10.44,51.709 10.042,52.301 11.606,53.77 12.401,52.682 11.748,51.709 "/>
<path opacity="0.1" fill="#1A1626" d="M50.737,8.591C54.834,13.72,57.3,20.212,57.3,27.292c0,16.569-13.429,30.002-29.995,30.002
	c-7.101,0-13.609-2.477-18.744-6.594C14.055,57.58,22.503,62,32.004,62c16.565,0,29.994-13.432,29.994-30
	C61.998,22.527,57.596,14.089,50.737,8.591z"/>
<path opacity="0.3" fill-rule="evenodd" clip-rule="evenodd" fill="#FFFFFF" d="M9.734,19.015c0.549,3.865,7.767-3.701,15.08-10.203
	C29.531,4.63,8.083,7.384,9.734,19.015z"/>
</svg>
