<?xml version="1.0" encoding="utf-8"?>
<!-- Generator: Adobe Illustrator 15.0.0, SVG Export Plug-In . SVG Version: 6.00 Build 0)  -->
<!DOCTYPE svg PUBLIC "-//W3C//DTD SVG 1.1//EN" "http://www.w3.org/Graphics/SVG/1.1/DTD/svg11.dtd">
<svg version="1.1" id="Layer_1" xmlns="http://www.w3.org/2000/svg" xmlns:xlink="http://www.w3.org/1999/xlink" x="0px" y="0px"
	 width="64px" height="64px" viewBox="0 0 64 64" enable-background="new 0 0 64 64" xml:space="preserve">
<path fill="#014D87" d="M53.416,53H11.379c0,0,25.988-29.385,42.357-38.18c0,0-11.846,21.52,2.971,34.191
	C60.041,44.176,62,38.318,62,32C62,15.432,48.568,2,32,2S2,15.432,2,32c0,9.814,4.713,18.525,11.998,24H50
	C51.215,55.088,52.354,54.082,53.416,53z"/>
<path fill="#014D87" d="M32,62c4.691,0,9.131-1.08,13.086-3H18.912C22.867,60.92,27.307,62,32,62z"/>
<path fill="#FFE12C" d="M53.736,14.82C37.367,23.615,11.379,53,11.379,53h42.037c1.207-1.232,2.309-2.566,3.291-3.988
	C41.891,36.34,53.736,14.82,53.736,14.82z"/>
<path fill="#FFE12C" d="M13.998,56c1.531,1.148,3.176,2.156,4.914,3h26.174c1.738-0.844,3.383-1.852,4.914-3H13.998z"/>
<polygon fill="#F5F5F5" points="18.494,10.275 19.043,11.963 20.816,11.963 19.381,13.006 19.93,14.695 18.494,13.65 17.059,14.695 
	17.605,13.006 16.17,11.963 17.945,11.963 "/>
<polygon fill="#F5F5F5" points="27.143,18.137 27.625,19.625 29.189,19.625 27.924,20.545 28.408,22.033 27.143,21.113 
	25.877,22.033 26.359,20.545 25.094,19.625 26.658,19.625 "/>
<polygon fill="#F5F5F5" points="8.297,20.502 8.842,22.178 10.604,22.178 9.178,23.215 9.723,24.891 8.297,23.854 6.871,24.891 
	7.416,23.215 5.99,22.178 7.752,22.178 "/>
<polygon fill="#F5F5F5" points="18.455,33.299 19.098,35.279 21.18,35.279 19.496,36.504 20.139,38.484 18.455,37.26 16.77,38.484 
	17.414,36.504 15.729,35.279 17.811,35.279 "/>
<path opacity="0.1" fill="#1A1626" d="M50.736,8.59c4.098,5.131,6.563,11.623,6.563,18.701c0,16.568-13.428,30.004-29.994,30.004
	c-7.1,0-13.609-2.479-18.744-6.594C14.055,57.58,22.502,62,32.004,62c16.564,0,29.994-13.432,29.994-30
	C61.998,22.527,57.596,14.09,50.736,8.59z"/>
<path opacity="0.3" fill-rule="evenodd" clip-rule="evenodd" fill="#FFFFFF" d="M9.734,19.014c0.549,3.865,7.768-3.699,15.08-10.201
	C29.531,4.629,8.084,7.385,9.734,19.014z"/>
</svg>
