<?xml version="1.0" encoding="utf-8"?>
<!-- Generator: Adobe Illustrator 15.0.0, SVG Export Plug-In . SVG Version: 6.00 Build 0)  -->
<!DOCTYPE svg PUBLIC "-//W3C//DTD SVG 1.1//EN" "http://www.w3.org/Graphics/SVG/1.1/DTD/svg11.dtd">
<svg version="1.1" id="Layer_1" xmlns="http://www.w3.org/2000/svg" xmlns:xlink="http://www.w3.org/1999/xlink" x="0px" y="0px"
	 width="64px" height="64px" viewBox="0 0 64 64" enable-background="new 0 0 64 64" xml:space="preserve">
<circle fill="#E81C27" cx="32" cy="32" r="30"/>
<polygon fill="#F5F5F5" points="41.348,39 41.359,33.645 36,32 41.359,30.355 41.348,25 44.648,29.34 50,27.674 46.68,32 50,36.326 
	44.648,34.66 "/>
<path fill="#F5F5F5" d="M33.25,44c-6.552,0-11.865-5.373-11.865-12s5.313-12,11.865-12c2.508,0,4.834,0.791,6.75,2.135
	C37.281,18.988,33.285,17,28.831,17C20.639,17,14,23.717,14,32c0,8.285,6.639,15,14.831,15c4.455,0,8.451-1.988,11.169-5.133
	C38.084,43.211,35.758,44,33.25,44z"/>
<path opacity="0.1" fill="#1A1626" d="M50.736,8.592c4.098,5.129,6.563,11.621,6.563,18.701c0,16.568-13.428,30.002-29.994,30.002
	c-7.1,0-13.61-2.477-18.745-6.594C14.055,57.58,22.502,62,32.004,62c16.564,0,29.994-13.432,29.994-30
	C61.998,22.527,57.596,14.09,50.736,8.592z"/>
<path opacity="0.3" fill-rule="evenodd" clip-rule="evenodd" fill="#FFFFFF" d="M9.734,19.016
	c0.549,3.865,7.768-3.701,15.081-10.203C29.532,4.631,8.084,7.385,9.734,19.016z"/>
</svg>
