<?xml version="1.0" encoding="utf-8"?>
<!-- Generator: Adobe Illustrator 15.0.0, SVG Export Plug-In . SVG Version: 6.00 Build 0)  -->
<!DOCTYPE svg PUBLIC "-//W3C//DTD SVG 1.1//EN" "http://www.w3.org/Graphics/SVG/1.1/DTD/svg11.dtd">
<svg version="1.1" id="Layer_1" xmlns="http://www.w3.org/2000/svg" xmlns:xlink="http://www.w3.org/1999/xlink" x="0px" y="0px"
	 width="64px" height="64px" viewBox="0 0 64 64" enable-background="new 0 0 64 64" xml:space="preserve">
<path fill="#E81C27" d="M32,2C22.807,2,14.583,6.141,9.08,12.652V32h52.09v-7C58.016,11.809,46.158,2,32,2z"/>
<path fill="#529320" d="M9.08,32v19.348C14.583,57.859,22.807,62,32,62c14.156,0,26.016-9.809,29.17-22.998V32H9.08z"/>
<path fill="#302C3B" d="M9.08,12.652c-0.941,1.113-1.797,2.301-2.57,3.545v3.688H4.559C2.918,23.59,2,27.688,2,32
	s0.918,8.408,2.559,12.113H6.51v3.689c0.773,1.244,1.629,2.43,2.57,3.545L28.428,32L9.08,12.652z"/>
<path fill="#302C3B" d="M61.926,34v-4h0.002c-0.115-1.709-0.371-3.381-0.758-5H9.08v14h52.09c0.387-1.619,0.643-3.291,0.758-5
	H61.926z"/>
<path fill="#FFE12C" d="M6.51,16.184c-0.734,1.182-1.387,2.418-1.955,3.701L16.67,32L4.555,44.113
	c0.568,1.285,1.221,2.521,1.955,3.703L20.326,34h41.6C61.971,33.338,62,32.672,62,32c0-0.674-0.029-1.338-0.074-2h-41.6L6.51,16.184
	z"/>
<path fill="#FDCE12" d="M7.322,26.688c-1.125,0-4.599,0.807-4.599,4.432S6.13,35.08,6.802,35.08c0.671,0,3.189-0.605,2.904-3.322
	c0,0.771-0.873,2.398-2.703,2.398c-1.829,0-2.97-1.359-2.97-2.701c0-1.344,1.107-3.139,3.037-3.139s3.34,1.711,3.34,3.441
	c0,1.729-1.359,3.926-3.524,3.926c0,0,0,1.309,0,2.064c1.796,0,5.32-1.375,5.32-5.807S8.446,26.688,7.322,26.688z"/>
<path fill="#FDCE12" d="M7.396,30.855c-0.02-0.008-0.036-0.02-0.056-0.029c0.028-0.025,0.048-0.059,0.08-0.078
	c0.149-0.104,0.375-0.113,0.542-0.182c0.314-0.168,0.519-0.432,0.681-0.863l-0.04-0.078c-0.475-0.084-0.854,0.088-1.1,0.377
	c-0.112,0.164-0.159,0.393-0.275,0.537c-0.04,0.053-0.095,0.092-0.147,0.133c-0.054-0.041-0.108-0.08-0.148-0.133
	c-0.116-0.145-0.163-0.373-0.275-0.537c-0.246-0.289-0.625-0.461-1.1-0.377l-0.039,0.078c0.161,0.432,0.365,0.695,0.679,0.863
	c0.168,0.068,0.394,0.078,0.543,0.182c0.032,0.02,0.053,0.053,0.08,0.078c-0.02,0.01-0.035,0.021-0.055,0.029
	c-0.385,0.143-0.674,0.396-0.912,0.684c-0.207,0.316-0.354,0.678-0.333,1.139l0.071,0.051c0.438-0.135,0.727-0.352,0.979-0.598
	c0.208-0.26,0.386-0.539,0.51-0.887c0.123,0.348,0.301,0.627,0.509,0.887c0.253,0.246,0.543,0.463,0.979,0.598l0.072-0.051
	c0.021-0.461-0.126-0.822-0.333-1.139C8.068,31.252,7.779,30.998,7.396,30.855z"/>
<path opacity="0.1" fill="#1A1626" d="M50.738,8.59c4.096,5.131,6.563,11.623,6.563,18.701c0,16.568-13.43,30.004-29.996,30.004
	c-7.1,0-13.609-2.479-18.744-6.594C14.055,57.58,22.504,62,32.004,62c16.566,0,29.994-13.432,29.994-30
	C61.998,22.527,57.596,14.09,50.738,8.59z"/>
<path opacity="0.3" fill-rule="evenodd" clip-rule="evenodd" fill="#FFFFFF" d="M9.734,19.014c0.549,3.865,7.768-3.699,15.08-10.201
	C29.531,4.629,8.084,7.385,9.734,19.014z"/>
</svg>
