<?xml version="1.0" encoding="utf-8"?>
<!-- Generator: Adobe Illustrator 15.0.0, SVG Export Plug-In . SVG Version: 6.00 Build 0)  -->
<!DOCTYPE svg PUBLIC "-//W3C//DTD SVG 1.1//EN" "http://www.w3.org/Graphics/SVG/1.1/DTD/svg11.dtd">
<svg version="1.1" id="Layer_1" xmlns="http://www.w3.org/2000/svg" xmlns:xlink="http://www.w3.org/1999/xlink" x="0px" y="0px"
	 width="64px" height="64px" viewBox="0 0 64 64" enable-background="new 0 0 64 64" xml:space="preserve">
<path fill="#014D87" d="M11.006,48v5.404C16.416,58.715,23.82,62,32,62c10.684,0,20.057-5.59,25.373-14H11.006z"/>
<path fill="#E81C27" d="M11.006,32v16h46.367C60.299,43.367,62,37.885,62,32H11.006z"/>
<path fill="#F5F5F5" d="M11.006,32H62c0-5.885-1.701-11.369-4.627-16H11.006V32z"/>
<path fill="#FFE12C" d="M11.006,16h46.367C52.057,7.59,42.684,2,32,2c-8.18,0-15.584,3.285-20.994,8.596V16z"/>
<path fill="#529320" d="M11.006,10.579C5.451,16.024,2,23.608,2,32c0,8.392,3.451,15.976,9.006,21.421L32.426,32L11.006,10.579z"/>
<path fill="#F5F5F5" d="M18,41.799c-4.564-0.928-8-4.961-8-9.798c0-4.838,3.436-8.873,8-9.801C17.354,22.071,16.686,22,16,22
	c-5.523,0-10,4.477-10,10c0,5.521,4.477,10,10,10C16.686,42,17.354,41.93,18,41.799z"/>
<polygon fill="#F5F5F5" points="16.764,36 18,35.061 19.236,36 18.77,34.473 20,33.5 18.475,33.5 18,32 17.539,33.5 16,33.5 
	17.23,34.473 "/>
<polygon fill="#F5F5F5" points="16.764,40 18,39.061 19.236,40 18.77,38.473 20,37.5 18.475,37.5 18,36 17.539,37.5 16,37.5 
	17.23,38.473 "/>
<polygon fill="#F5F5F5" points="16.764,28 18,27.061 19.236,28 18.77,26.473 20,25.5 18.475,25.5 18,24 17.539,25.5 16,25.5 
	17.23,26.473 "/>
<polygon fill="#F5F5F5" points="16.764,32 18,31.061 19.236,32 18.77,30.473 20,29.5 18.475,29.5 18,28 17.539,29.5 16,29.5 
	17.23,30.473 "/>
<path opacity="0.1" fill="#1A1626" d="M50.737,8.59c4.097,5.131,6.563,11.623,6.563,18.701c0,16.568-13.429,30.003-29.995,30.003
	c-7.1,0-13.609-2.479-18.744-6.594C14.055,57.58,22.503,62,32.004,62c16.565,0,29.994-13.432,29.994-30
	C61.998,22.528,57.596,14.09,50.737,8.59z"/>
<path opacity="0.3" fill-rule="evenodd" clip-rule="evenodd" fill="#FFFFFF" d="M9.734,19.014c0.549,3.865,7.768-3.699,15.08-10.201
	C29.531,4.629,8.084,7.385,9.734,19.014z"/>
</svg>
