<?xml version="1.0" encoding="utf-8"?>
<!-- Generator: Adobe Illustrator 15.0.0, SVG Export Plug-In . SVG Version: 6.00 Build 0)  -->
<!DOCTYPE svg PUBLIC "-//W3C//DTD SVG 1.1//EN" "http://www.w3.org/Graphics/SVG/1.1/DTD/svg11.dtd">
<svg version="1.1" id="Layer_1" xmlns="http://www.w3.org/2000/svg" xmlns:xlink="http://www.w3.org/1999/xlink" x="0px" y="0px"
	 width="64px" height="64px" viewBox="0 0 64 64" enable-background="new 0 0 64 64" xml:space="preserve">
<path fill="#FFE12C" d="M10.791,41.992h-0.004v11.221l-0.002-0.002C16.215,58.641,23.715,62,32,62c12.303,0,22.863-7.404,27.492-18
	H11.756C11.404,43.342,11.084,42.672,10.791,41.992z"/>
<path fill="#529320" d="M11.756,20h47.736C54.863,9.405,44.303,2,32,2c-8.285,0-15.785,3.357-21.215,8.787h0.002v11.221h0.004
	C11.084,21.327,11.404,20.657,11.756,20z"/>
<path fill="#302C3B" d="M62,32c0-2.777-0.393-5.451-1.1-8H10.787v16H60.9C61.607,37.451,62,34.775,62,32z"/>
<polygon fill="#302C3B" points="10.787,22.008 10.787,22.016 10.791,22.008 "/>
<polygon fill="#302C3B" points="10.787,41.984 10.787,41.992 10.791,41.992 "/>
<path fill="#F5F5F5" d="M10.025,24h0.762v-1.984C10.508,22.667,10.252,23.329,10.025,24z"/>
<path fill="#F5F5F5" d="M10.025,40c0.227,0.672,0.482,1.332,0.762,1.984V40H10.025z"/>
<g>
	<path fill="#F5F5F5" d="M60.289,22.008c-0.24-0.682-0.51-1.35-0.797-2.008H11.756c-0.352,0.656-0.672,1.326-0.965,2.008
		C10.789,22.01,10.787,24,10.787,24H60.9C60.715,23.329,60.52,22.661,60.289,22.008z"/>
</g>
<g>
	<path fill="#F5F5F5" d="M60.289,41.992c0.23-0.652,0.426-1.32,0.611-1.992H10.787v1.984c0.002,0.002,0.002,0.006,0.004,0.008
		c0.293,0.68,0.613,1.35,0.965,2.008h47.736C59.779,43.342,60.049,42.674,60.289,41.992"/>
</g>
<path fill="#E81C27" d="M10.787,10.788C5.357,16.215,2,23.715,2,32c0,8.283,3.357,15.783,8.787,21.212L32,32L10.787,10.788z"/>
<path fill="#FFE12C" d="M20.646,42.018l-6.516-4.77L7.625,42.02l2.523-7.672L3.6,29.635l8.074,0.029l2.459-7.684L16.6,29.67
	l8.068-0.037l-6.549,4.722L20.646,42.018z"/>
<path fill="#F5F5F5" d="M8.477,36.668h4.693c0.377,0.424,1.221,0.598,2.021-0.004c1.473-0.807,4.318,0.004,4.318,0.004l0.561-0.596
	l-1.367-4.482l-0.49-0.523c0,0-1.051-0.633-3.047-0.422s-2.697-0.07-2.697-0.07s-1.752,0.211-2.242,0.455
	c-0.053,0.045-0.559,0.561-0.559,0.561L8.477,36.668z"/>
<path fill="#302C3B" d="M5.428,37.207l1.104,1.295c0.129,0.076,0.246,0.072,0.361,0l1.635-1.963l0.688-0.852
	c0.105-0.127,0.141-0.268,0.131-0.393l1.313-1.168c0.109,0.008,0.172,0.02,0.279,0.027c-0.127-0.033-0.221-0.096-0.119-0.234
	l0.295-0.229l0.229,0.295c0,0-0.328,0.426-0.361,0.426c-0.031,0-0.359,0-0.359,0l-0.688,0.621l0.301,0.266l0.451,1.24l0.557-0.395
	l-0.359-1.275l0.785-0.852l-0.293-0.457l0.195-0.262c0,0,2.717,1.711,3.764,1.252c0.029,0.012,0.064-1.219,0.064-1.219
	s-2.814-0.295-2.879-0.851c-0.066-0.557,0.621-0.621,0.621-0.621l-0.295-0.426l0.066-0.229l0.49,0.621l1.111-0.949l6.543,7.458
	c0.357-0.145,0.436-0.23,0.459-0.588c-0.01-0.008-6.412-7.361-6.412-7.361l0.49-0.523c0.098-0.109,0.131-0.154,0.131-0.326
	l0.752-0.656c0.227,0.08,0.371,0.215,0.492,0.395l2.068-1.754c0.055,0.055,0.221,0.109,0.332,0.047l3.42-3.283l-3.727,2.635
	l-0.131-0.1c0-0.107,0.135-0.135,0-0.326c-0.145-0.174-0.361,0.164-0.393,0.164c-0.033,0-0.541-0.18-0.65-0.406l-0.037,0.602
	l-0.949,0.883l-0.719-0.033l-1.047,1.016l-0.131,0.393l0.162,0.326c0,0-0.555,0.49-0.555,0.459c0-0.033-0.113-0.145-0.119-0.158
	l0.479-0.432l0.066-0.293l-0.16-0.25c-0.049,0.037-0.66,0.674-0.691,0.609c-0.055-0.061-1.768-1.994-1.768-1.994l0.1-0.361
	l-1.113-1.209c-0.404-0.141-1.047-0.166-1.178,0.719c-0.102,0.207-0.949,0.031-0.949,0.031l-0.457,0.1l-2.586,3.664l1.441,1.732
	l2.943-3.729l0.088-1.057l0.617,0.691c0.205,0.025,0.402,0.029,0.59-0.066l1.744,1.947l-0.291,0.285
	c0.1,0.107,0.166,0.178,0.264,0.287c0.098-0.066,0.191-0.145,0.291-0.209c0.033,0.043,0.088,0.125,0.119,0.168
	c-0.146,0.08-0.248,0.188-0.395,0.266c-0.234-0.152-0.459-0.342-0.441-0.645l-0.982,0.818l-0.033,0.164l-2.912,2.419L9.018,33.43
	l-0.064,0.752l1.898-1.57v-0.229l0.195,0.164l1.473-1.178c0,0,0.098,0.129,0.064,0.129s-1.309,1.18-1.309,1.18l-0.033,0.131
	l-0.229,0.195l-0.131-0.097l-1.766,1.57H8.855l-0.982,0.982C7.619,35.48,7.4,35.508,7.186,35.654L5.428,37.207z"/>
<path opacity="0.1" fill="#1A1626" d="M50.738,8.592c4.096,5.129,6.563,11.621,6.563,18.701c0,16.568-13.43,30.001-29.996,30.001
	c-7.1,0-13.609-2.477-18.744-6.594C14.055,57.58,22.504,62,32.004,62c16.566,0,29.994-13.432,29.994-30
	C61.998,22.528,57.596,14.09,50.738,8.592z"/>
<path opacity="0.3" fill-rule="evenodd" clip-rule="evenodd" fill="#FFFFFF" d="M9.734,19.016c0.549,3.865,7.768-3.701,15.08-10.203
	C29.531,4.631,8.084,7.385,9.734,19.016z"/>
</svg>
