<?xml version="1.0" encoding="utf-8"?>
<!-- Generator: Adobe Illustrator 15.0.0, SVG Export Plug-In . SVG Version: 6.00 Build 0)  -->
<!DOCTYPE svg PUBLIC "-//W3C//DTD SVG 1.1//EN" "http://www.w3.org/Graphics/SVG/1.1/DTD/svg11.dtd">
<svg version="1.1" id="Layer_1" xmlns="http://www.w3.org/2000/svg" xmlns:xlink="http://www.w3.org/1999/xlink" x="0px" y="0px"
	 width="64px" height="64px" viewBox="0 0 64 64" enable-background="new 0 0 64 64" xml:space="preserve">
<path fill="#E81C27" d="M32,2v30h30C62,15.432,48.568,2,32,2z"/>
<path fill="#014D87" d="M32,62V32H2C2,48.568,15.432,62,32,62z"/>
<path fill="#F5F5F5" d="M32,62V32h30C62,48.568,48.568,62,32,62z"/>
<path fill="#F5F5F5" d="M32,2v30H2C2,15.432,15.432,2,32,2z"/>
<polygon fill="#014D87" points="17,20.654 20.09,23 18.924,19.186 22,16.75 18.189,16.75 17,13 15.848,16.75 12,16.75 
	15.078,19.186 13.91,23 "/>
<polygon fill="#E81C27" points="47,46.654 50.09,49 48.924,45.186 52,42.75 48.189,42.75 47,39 45.848,42.75 42,42.75 
	45.078,45.186 43.91,49 "/>
<path opacity="0.1" fill="#1A1626" d="M50.738,8.591c4.096,5.13,6.563,11.622,6.563,18.701c0,16.567-13.43,30.003-29.996,30.003
	c-7.1,0-13.609-2.479-18.744-6.594C14.055,57.58,22.504,62,32.004,62c16.566,0,29.994-13.432,29.994-30
	C61.998,22.527,57.596,14.09,50.738,8.591z"/>
<path opacity="0.7" fill-rule="evenodd" clip-rule="evenodd" fill="#FFFFFF" d="M9.734,19.015c0.549,3.865,7.768-3.7,15.08-10.202
	C29.531,4.63,8.084,7.385,9.734,19.015z"/>
</svg>
