<?xml version="1.0" encoding="utf-8"?>
<!-- Generator: Adobe Illustrator 15.0.0, SVG Export Plug-In . SVG Version: 6.00 Build 0)  -->
<!DOCTYPE svg PUBLIC "-//W3C//DTD SVG 1.1//EN" "http://www.w3.org/Graphics/SVG/1.1/DTD/svg11.dtd">
<svg version="1.1" id="Layer_1" xmlns="http://www.w3.org/2000/svg" xmlns:xlink="http://www.w3.org/1999/xlink" x="0px" y="0px"
	 width="64px" height="64px" viewBox="0 0 64 64" enable-background="new 0 0 64 64" xml:space="preserve">
<path fill="#F5F5F5" d="M17,58V6C8.036,11.193,2,20.888,2,32C2,43.111,8.036,52.809,17,58z"/>
<path fill="#529320" d="M32.001,2C26.534,2,21.414,3.468,17,6.023v51.954C21.414,60.531,26.534,62,32.001,62
	C48.569,62,62,48.568,62,32C62,15.431,48.569,2,32.001,2z"/>
<path fill="#F5F5F5" d="M38.001,38.127c-6.074,0-11-4.82-11-10.766c0-2.852,1.139-5.436,2.986-7.361
	c-4.15,2.125-6.986,6.373-6.986,11.275c0,7.03,5.82,12.725,13,12.725s13-5.695,13-12.725c0-0.691-0.072-1.363-0.18-2.023
	C47.906,34.293,43.415,38.127,38.001,38.127z"/>
<polygon fill="#F5F5F5" points="40.001,19.876 42.473,18 41.538,21.052 44.001,22.943 40.95,22.955 40.001,26 39.05,22.955 
	36.001,22.943 38.462,21.052 37.528,18 "/>
<path opacity="0.1" fill="#1A1626" d="M50.737,8.591C54.833,13.72,57.3,20.212,57.3,27.292c0,16.569-13.429,30.002-29.994,30.002
	c-7.102,0-13.61-2.477-18.745-6.594C14.055,57.58,22.503,62,32.003,62c16.566,0,29.995-13.432,29.995-30
	C61.998,22.527,57.595,14.089,50.737,8.591z"/>
<path opacity="0.3" fill-rule="evenodd" clip-rule="evenodd" fill="#FFFFFF" d="M9.734,19.015
	c0.549,3.865,7.767-3.701,15.081-10.203C29.532,4.63,8.083,7.384,9.734,19.015z"/>
</svg>
