<?xml version="1.0" encoding="utf-8"?>
<!-- Generator: Adobe Illustrator 15.0.0, SVG Export Plug-In . SVG Version: 6.00 Build 0)  -->
<!DOCTYPE svg PUBLIC "-//W3C//DTD SVG 1.1//EN" "http://www.w3.org/Graphics/SVG/1.1/DTD/svg11.dtd">
<svg version="1.1" id="Layer_1" xmlns="http://www.w3.org/2000/svg" xmlns:xlink="http://www.w3.org/1999/xlink" x="0px" y="0px"
	 width="64px" height="64px" viewBox="0 0 64 64" enable-background="new 0 0 64 64" xml:space="preserve">
<path fill="#E81C27" d="M53.218,10.781c-8.698-8.7-21.407-10.93-32.175-6.713l38.889,38.888
	C64.147,32.189,61.916,19.481,53.218,10.781z"/>
<path fill="#E81C27" d="M10.781,53.216c8.699,8.7,21.407,10.931,32.175,6.712L4.069,21.042C-0.15,31.808,2.082,44.519,10.781,53.216
	z"/>
<path fill="#302C3B" d="M10.781,10.781c-1.962,1.963-3.578,4.133-4.881,6.436l40.882,40.88c2.303-1.303,4.475-2.918,6.436-4.882
	c1.963-1.961,3.579-4.133,4.882-6.434L17.216,5.9C14.914,7.203,12.742,8.818,10.781,10.781z"/>
<path fill="#F5F5F5" d="M4.92,19.065c-0.311,0.65-0.591,1.311-0.852,1.977l38.887,38.886c0.666-0.26,1.327-0.541,1.977-0.852
	c0.627-0.299,1.24-0.633,1.85-0.979L5.9,17.217C5.555,17.825,5.22,18.438,4.92,19.065z"/>
<path fill="#F5F5F5" d="M21.043,4.068c-0.666,0.262-1.327,0.541-1.978,0.852c-0.627,0.299-1.24,0.635-1.849,0.98L58.1,46.782
	c0.345-0.609,0.68-1.223,0.979-1.85c0.311-0.65,0.591-1.311,0.853-1.977L21.043,4.068z"/>
<path opacity="0.1" fill="#1A1626" d="M50.739,8.588c4.096,5.129,6.563,11.622,6.563,18.702c0,16.57-13.432,30.005-29.999,30.005
	c-7.101,0-13.611-2.477-18.747-6.595C14.052,57.58,22.501,62,32.002,62C48.571,62,62,48.567,62,31.998
	C62,22.524,57.598,14.086,50.739,8.588z"/>
<path opacity="0.3" fill-rule="evenodd" clip-rule="evenodd" fill="#FFFFFF" d="M9.731,19.012
	c0.549,3.866,7.768-3.701,15.082-10.204C29.53,4.626,8.08,7.381,9.731,19.012z"/>
</svg>
