<?xml version="1.0" encoding="utf-8"?>
<!-- Generator: Adobe Illustrator 15.0.0, SVG Export Plug-In . SVG Version: 6.00 Build 0)  -->
<!DOCTYPE svg PUBLIC "-//W3C//DTD SVG 1.1//EN" "http://www.w3.org/Graphics/SVG/1.1/DTD/svg11.dtd">
<svg version="1.1" id="Layer_1" xmlns="http://www.w3.org/2000/svg" xmlns:xlink="http://www.w3.org/1999/xlink" x="0px" y="0px"
	 width="64px" height="64px" viewBox="0 0 64 64" enable-background="new 0 0 64 64" xml:space="preserve">
<path fill="#529320" d="M16.996,6.019C6.343,12.171,0.899,23.865,2.186,35.354l47.626-27.49C40.503,1.004,27.65-0.129,16.996,6.019z
	"/>
<path fill="#014D87" d="M14.189,56.141c9.309,6.855,22.16,7.988,32.813,1.836C57.656,51.834,63.1,40.135,61.814,28.646
	L14.189,56.141z"/>
<path fill="#302C3B" d="M57.986,17c-1.387-2.402-3.067-4.521-4.954-6.377L2.965,39.52c0.662,2.559,1.662,5.078,3.049,7.48
	c1.387,2.402,3.066,4.521,4.953,6.377L61.035,24.48C60.373,21.917,59.373,19.402,57.986,17z"/>
<path fill="#FFE12C" d="M61.502,26.517c-0.127-0.684-0.291-1.362-0.467-2.036L10.967,53.377c0.498,0.488,1.004,0.977,1.533,1.426
	c0.548,0.469,1.113,0.908,1.689,1.338l47.625-27.495C61.734,27.938,61.635,27.225,61.502,26.517z"/>
<path fill="#FFE12C" d="M51.499,9.197c-0.547-0.469-1.111-0.908-1.688-1.333L2.186,35.354c0.08,0.713,0.18,1.421,0.312,2.129
	c0.127,0.684,0.292,1.362,0.468,2.036l50.067-28.896C52.532,10.13,52.028,9.646,51.499,9.197z"/>
<path opacity="0.1" fill="#1A1626" d="M50.737,8.592c4.098,5.132,6.563,11.621,6.563,18.701c0,16.563-13.429,30-29.996,30
	c-7.101,0-13.61-2.48-18.746-6.592c5.495,6.875,13.943,11.289,23.445,11.289C48.569,61.99,62,48.563,62,32
	C62,22.527,57.598,14.095,50.737,8.592z"/>
<path opacity="0.3" fill-rule="evenodd" clip-rule="evenodd" fill="#FFFFFF" d="M9.733,19.017c0.549,3.862,7.768-3.701,15.082-10.2
	C29.532,4.632,8.083,7.391,9.733,19.017z"/>
</svg>
