<?xml version="1.0" encoding="utf-8"?>
<!-- Generator: Adobe Illustrator 15.0.0, SVG Export Plug-In . SVG Version: 6.00 Build 0)  -->
<!DOCTYPE svg PUBLIC "-//W3C//DTD SVG 1.1//EN" "http://www.w3.org/Graphics/SVG/1.1/DTD/svg11.dtd">
<svg version="1.1" id="Layer_1" xmlns="http://www.w3.org/2000/svg" xmlns:xlink="http://www.w3.org/1999/xlink" x="0px" y="0px"
	 width="64px" height="64px" viewBox="0 0 64 64" enable-background="new 0 0 64 64" xml:space="preserve">
<path fill="#E81C27" d="M32,2v30H2c0,16.568,13.432,30,30,30s30-13.432,30-30S48.568,2,32,2z"/>
<path fill="#014D87" d="M32,2C15.432,2,2,15.432,2,32h30V2z"/>
<polygon fill="#F5F5F5" points="19,13.063 20.236,14 19.77,12.477 21,11.529 19.477,11.523 19,10.002 18.521,11.523 17,11.529 
	18.23,12.477 17.762,14 "/>
<polygon fill="#F5F5F5" points="19,27.061 20.236,28 19.77,26.473 21,25.527 19.477,25.523 19,24 18.521,25.523 17,25.527 
	18.23,26.473 17.762,28 "/>
<polygon fill="#F5F5F5" points="14.002,18.063 15.238,19 14.77,17.475 16,16.529 14.475,16.523 14.002,15 13.525,16.523 12,16.529 
	13.23,17.475 12.764,19 "/>
<polygon fill="#F5F5F5" points="23.996,18.063 25.234,19 24.768,17.475 26,16.529 24.475,16.523 23.996,15 23.525,16.523 22,16.529 
	23.23,17.475 22.76,19 "/>
<polygon fill="#F5F5F5" points="22.004,22.531 22.631,23 22.391,22.236 23.018,21.766 22.242,21.762 22.004,21 21.76,21.762 
	20.982,21.766 21.609,22.236 21.371,23 "/>
<path opacity="0.1" fill="#1A1626" d="M50.736,8.592c4.098,5.129,6.563,11.621,6.563,18.701c0,16.568-13.428,30.002-29.994,30.002
	c-7.1,0-13.609-2.477-18.744-6.594C14.055,57.58,22.502,62,32.004,62c16.564,0,29.994-13.432,29.994-30
	C61.998,22.527,57.596,14.09,50.736,8.592z"/>
<path opacity="0.3" fill-rule="evenodd" clip-rule="evenodd" fill="#FFFFFF" d="M9.734,19.016c0.549,3.865,7.768-3.701,15.08-10.203
	C29.531,4.631,8.084,7.385,9.734,19.016z"/>
</svg>
