<?xml version="1.0" encoding="utf-8"?>
<!-- Generator: Adobe Illustrator 15.0.0, SVG Export Plug-In . SVG Version: 6.00 Build 0)  -->
<!DOCTYPE svg PUBLIC "-//W3C//DTD SVG 1.1//EN" "http://www.w3.org/Graphics/SVG/1.1/DTD/svg11.dtd">
<svg version="1.1" id="Layer_1" xmlns="http://www.w3.org/2000/svg" xmlns:xlink="http://www.w3.org/1999/xlink" x="0px" y="0px"
	 width="64px" height="64px" viewBox="0 0 64 64" enable-background="new 0 0 64 64" xml:space="preserve">
<path fill="#ED7612" d="M2,32C2,15.436,15.439,2,32,2c16.572,0,30,13.436,30,30c0,16.57-13.428,30-30,30C15.439,62,2,48.57,2,32z"/>
<path fill="#E64C18" d="M45.779,5.354C53.172,10.609,58,19.24,58,29c0,16.018-12.98,29-29,29c-9.758,0-18.389-4.83-23.646-12.225
	C10.348,55.412,20.404,62,32,62c16.572,0,30-13.43,30-30C62,20.402,55.414,10.346,45.779,5.354z"/>
<path fill-rule="evenodd" clip-rule="evenodd" fill="#F59E01" d="M10.219,17.396c0.445,3.135,6.309-2.996,12.248-8.266
	C26.299,5.74,8.879,7.973,10.219,17.396z"/>
<path fill="#FFFFFF" d="M40.396,33.947c-1.699,1.418-4.125,2.127-7.277,2.127h-6.041v10.434h-6.023V17.492h12.459
	c2.871,0,5.162,0.748,6.869,2.244s2.563,3.813,2.563,6.947C42.945,30.109,42.096,32.531,40.396,33.947z M35.77,23.496
	c-0.768-0.645-1.844-0.965-3.227-0.965h-5.465v8.543h5.465c1.383,0,2.459-0.348,3.227-1.043s1.152-1.799,1.152-3.307
	C36.922,25.215,36.537,24.139,35.77,23.496z"/>
</svg>
