<?xml version="1.0" encoding="utf-8"?>
<!-- Generator: Adobe Illustrator 15.0.0, SVG Export Plug-In . SVG Version: 6.00 Build 0)  -->
<!DOCTYPE svg PUBLIC "-//W3C//DTD SVG 1.1//EN" "http://www.w3.org/Graphics/SVG/1.1/DTD/svg11.dtd">
<svg version="1.1" id="Layer_1" xmlns="http://www.w3.org/2000/svg" xmlns:xlink="http://www.w3.org/1999/xlink" x="0px" y="0px"
	 width="64px" height="64px" viewBox="0 0 64 64" enable-background="new 0 0 64 64" xml:space="preserve">
<path fill="#E81C27" d="M2,32c0,5.885,1.701,11.367,4.627,16h50.744C60.299,43.367,62,37.885,62,32s-1.701-11.368-4.629-16H6.627
	C3.701,20.632,2,26.115,2,32z"/>
<path fill="#014D87" d="M57.371,16C52.057,7.59,42.684,2,32,2S11.943,7.59,6.627,16H57.371z"/>
<path fill="#014D87" d="M6.627,48C11.943,56.41,21.316,62,32,62s20.057-5.59,25.371-14H6.627z"/>
<path fill="#E2E2E2" d="M45.92,35.742h-0.029v-3.067c0.096-0.391,0.414-0.736,0.654-0.805v0V29.17v-0.188
	c-0.342,0-0.52,0.438-0.537,0.487v-1.153v0c-0.139-0.087-0.293-0.077-0.457-0.008v0.294h-0.518v-1.348
	c-0.176,0-0.205,0.636-0.611,0.636c-0.213,0-0.191-0.263-0.07-0.478c0.105-0.191,0.234-0.453,0.059-0.942
	c-0.123,0.375-0.449,0.492-0.389,0.258c0.104-0.403,0.402-0.469,0.18-1.096c-0.08,0.523-0.4,0.5-0.322,0.195
	c0.088-0.342,0.27-0.482,0.045-0.964c-0.125,0.548-0.295,0.517-0.295,0.176c0-0.502,0.018-1.044-0.605-1.244
	c0,0-0.037-0.46-0.262-0.46s-0.262,0.46-0.262,0.46c-0.623,0.2-0.605,0.742-0.605,1.244c0,0.34-0.168,0.372-0.293-0.176
	c-0.227,0.482-0.043,0.623,0.045,0.964c0.076,0.304-0.244,0.328-0.322-0.195c-0.225,0.627,0.074,0.693,0.178,1.096
	c0.061,0.234-0.266,0.116-0.387-0.258c-0.178,0.489-0.047,0.751,0.059,0.942c0.119,0.215,0.141,0.478-0.07,0.478
	c-0.408,0-0.436-0.636-0.613-0.636v2.37h-4.746l0.008-2.144c-0.313,0.13-0.365,0.431-0.365,0.431V28.3h-0.311l0,0
	c0,0-0.213-0.006-0.213-0.376c0-0.37,0.127-0.619,0.393-0.607v-0.75c0,0-0.697,0.096-0.697,0.938v-0.715
	c-0.219,0-0.246,0.283-0.246,1.018h-0.205v-0.831c0.012-0.415,0.396-0.445,0.408-0.748c0,0,0.053-0.455-0.063-0.662
	c-0.158,0.608-0.441,0.496-0.441,0.247c0-0.218,0.16-0.42,0.49-0.95c0.105-0.168,0.041-0.699-0.107-0.888
	c-0.057,0.46-0.123,0.681-0.313,0.681c-0.117,0-0.211-0.078-0.211-0.31c0-0.293,0.191-0.441,0.285-0.708
	c0.109-0.312,0.033-0.63-0.148-0.807c-0.078,0.455-0.055,0.636-0.248,0.636c-0.391-0.129,0-0.719,0.084-0.868
	c0.072-0.283-0.129-0.519-0.129-0.519c-0.125,0.403-0.164,0.437-0.299,0.399c-0.17-0.047-0.146-0.309,0.059-0.521
	c0.131-0.132,0.117-0.331-0.023-0.49c-0.146,0.299-0.383,0.259-0.348,0.077l0.123-0.637h-0.33l0.043-1.269h-0.389
	c-0.041-0.265-0.17-0.633-0.566-0.639c-0.398,0.006-0.525,0.374-0.566,0.639h-0.389l0.041,1.269h-0.328l0.113,0.659
	c-0.02,0.17-0.197,0.187-0.338-0.099c-0.141,0.159-0.154,0.358-0.023,0.49c0.207,0.212,0.229,0.474,0.057,0.521
	c-0.131,0.038-0.172,0.004-0.295-0.399c0,0-0.227,0.346-0.131,0.519c0.084,0.149,0.475,0.738,0.084,0.868
	c-0.193,0-0.17-0.182-0.248-0.636c-0.184,0.177-0.258,0.495-0.148,0.807c0.094,0.267,0.285,0.415,0.285,0.708
	c0,0.231-0.096,0.31-0.211,0.31c-0.189,0-0.256-0.22-0.313-0.681c-0.148,0.189-0.213,0.72-0.109,0.888
	c0.332,0.53,0.492,0.732,0.492,0.95c0,0.25-0.283,0.361-0.439-0.247c-0.115,0.207-0.066,0.662-0.066,0.662
	c0.012,0.302,0.396,0.333,0.41,0.748v0.831H29.66c0-0.723,0-1.018-0.268-1.018v0.657c-0.033-0.787-0.695-0.879-0.695-0.879v0.75
	c0.266-0.012,0.393,0.237,0.393,0.607c0,0.37-0.213,0.376-0.213,0.376l0,0h-0.355v-0.388c0,0-0.078-0.301-0.389-0.431v2.144h-4.621
	v-2.37c-0.18,0-0.205,0.636-0.613,0.636c-0.211,0-0.188-0.263-0.07-0.478c0.105-0.191,0.236-0.453,0.059-0.942
	c-0.121,0.375-0.447,0.492-0.387,0.258c0.104-0.403,0.402-0.469,0.176-1.096c-0.076,0.523-0.398,0.5-0.318,0.195
	c0.086-0.342,0.268-0.482,0.045-0.964c-0.125,0.548-0.297,0.517-0.297,0.176c0-0.502,0.02-1.044-0.605-1.244
	c0,0-0.033-0.46-0.26-0.46c-0.225,0-0.262,0.46-0.262,0.46c-0.623,0.2-0.605,0.742-0.605,1.244c0,0.34-0.17,0.372-0.295-0.176
	c-0.225,0.482-0.041,0.623,0.045,0.964c0.08,0.304-0.244,0.328-0.32-0.195c-0.225,0.627,0.074,0.693,0.178,1.096
	c0.061,0.234-0.266,0.116-0.387-0.258c-0.178,0.489-0.047,0.751,0.059,0.942c0.117,0.215,0.141,0.478-0.07,0.478
	c-0.408,0-0.436-0.636-0.613-0.636v1.348h-0.461v-0.294c-0.184-0.069-0.359-0.079-0.514,0.008v0v1.153
	c-0.016-0.045-0.193-0.487-0.535-0.487v0.188v2.699v0c0.238,0.069,0.557,0.415,0.652,0.805v3.067l0,0
	c-0.096,0.35-0.385,0.664-0.639,0.798h29.086C46.303,36.406,46.014,36.092,45.92,35.742z"/>
<polygon fill="#F5F5F5" points="49.668,42.123 49.668,40.246 48.736,40.246 48.736,38.643 47.813,38.643 47.813,37.435 
	47.258,37.435 47.258,36.499 16.738,36.499 16.738,37.435 16.188,37.435 16.188,38.643 15.262,38.643 15.262,40.246 14.332,40.246 
	14.332,42.123 13.4,42.123 13.4,44 50.6,44 50.6,42.123 "/>
<path fill="#F5F5F5" d="M22.83,36.54c-0.25-0.117-0.611-0.438-0.611-0.76v-3.296l0.34-0.504h0.057v-1.014
	c-0.174,0.07-0.338,0.158-0.469,0.257c-0.029-0.1-0.057-0.197-0.09-0.292c0.119-0.13,0.508-0.559,0.596-0.764v-0.812
	c-0.105,0.016-0.207,0.06-0.305,0.132c0.152-0.207,0.297-0.442,0.305-0.576v-0.811c-0.232,0.033-0.451,0.2-0.623,0.533
	c-0.045-0.209-0.1-0.397-0.164-0.57c0.107-0.105,0.416-0.414,0.439-0.6v-0.52c-0.176,0.021-0.342,0.068-0.473,0.282
	c-0.016-0.069-0.035-0.128-0.057-0.183l0.324-0.412v-0.487c-0.141,0.017-0.221,0.076-0.324,0.241
	c-0.029-0.11-0.072-0.191-0.121-0.255h0.037l0.123-0.274v-0.381c-0.096,0.01-0.146,0.045-0.219,0.143
	c-0.025-0.083-0.064-0.156-0.115-0.222h0.072l0.262-0.228v-0.293c-0.096,0.01-0.146,0.044-0.219,0.141
	c-0.059-0.195-0.191-0.347-0.369-0.44c-0.178,0.093-0.309,0.238-0.367,0.433c-0.072-0.097-0.125-0.124-0.221-0.133v0.293
	l0.262,0.228h0.068c-0.047,0.064-0.086,0.134-0.111,0.215c-0.07-0.099-0.123-0.126-0.219-0.136v0.381l0.123,0.274h0.033
	c-0.049,0.062-0.088,0.138-0.115,0.244c-0.105-0.166-0.184-0.213-0.324-0.23v0.487l0.324,0.413
	c-0.021,0.054-0.043,0.114-0.059,0.183c-0.131-0.214-0.297-0.261-0.471-0.282v0.52c0.045,0.185,0.336,0.492,0.439,0.599
	c-0.064,0.172-0.119,0.36-0.164,0.571c-0.172-0.333-0.391-0.5-0.623-0.533v0.811c0.023,0.138,0.178,0.381,0.328,0.593
	c-0.104-0.084-0.215-0.133-0.328-0.149v0.812c0.102,0.185,0.412,0.551,0.557,0.718c-0.039,0.106-0.072,0.215-0.102,0.329
	c-0.133-0.095-0.289-0.179-0.455-0.247v1.014h0.049l0.34,0.504v3.296c0,0.321-0.361,0.643-0.611,0.76h0.471v7.456h2.307V36.54H22.83
	z"/>
<path fill="#F5F5F5" d="M33.738,28.254v-0.987c-0.383,0.103-0.619,0.398-0.74,0.57c0-0.171-0.061-0.373-0.156-0.574
	c0.055-0.397,0.17-0.632,0.402-0.765h0.15v-0.855c-0.309,0.081-0.508,0.253-0.598,0.488c0-0.135-0.09-0.355-0.23-0.584l0.332-0.479
	h0.371v-0.855c-0.281,0.081-0.465,0.254-0.545,0.489c0-0.14-0.088-0.369-0.221-0.604l0.459-0.421v-0.71
	c-0.229,0.071-0.486,0.1-0.512,0.474c-0.033-0.222-0.078-0.396-0.133-0.543l0.52-0.373v-0.483c-0.201,0.048-0.422,0.068-0.445,0.322
	c-0.023-0.126-0.055-0.23-0.094-0.321l0.291-0.156v-0.524c-0.141,0.044-0.297,0.063-0.313,0.294
	c-0.049-0.331-0.137-0.315-0.273-0.444c-0.141,0.129-0.227,0.113-0.277,0.444c-0.014-0.231-0.172-0.25-0.311-0.294v0.524
	l0.289,0.156c-0.039,0.09-0.07,0.194-0.094,0.321c-0.021-0.254-0.246-0.273-0.445-0.322v0.483l0.521,0.373
	c-0.059,0.146-0.102,0.321-0.137,0.543c-0.023-0.374-0.281-0.403-0.51-0.474v0.71l0.424,0.389c-0.148,0.241-0.244,0.477-0.24,0.636
	c-0.066-0.224-0.262-0.408-0.543-0.489v0.855h0.367l0.334,0.48c-0.143,0.223-0.232,0.436-0.23,0.583
	c-0.072-0.224-0.287-0.408-0.594-0.488v0.855h0.148c0.232,0.133,0.35,0.371,0.404,0.771c-0.098,0.205-0.158,0.405-0.158,0.568
	c-0.125-0.171-0.359-0.467-0.742-0.57v0.987h0.152c0.299,0.385,0.365,0.953,0.375,1.442c-0.074-0.109-0.174-0.208-0.318-0.267v1.015
	h0.984c-0.174,0.298-0.281,0.647-0.26,0.973c-0.113-0.227-0.127-0.363-0.488-0.451v1.014h0.045l0.203,0.316v3.484
	c0,0.321-0.361,0.643-0.611,0.76h0.516v7.456h2.305V36.54h0.543c-0.25-0.117-0.611-0.438-0.611-0.76v-3.484l0.203-0.316h0.047
	v-1.014c-0.354,0.088-0.375,0.225-0.488,0.451c0.021-0.325-0.084-0.675-0.258-0.973h0.982v-1.015
	c-0.127,0.053-0.221,0.133-0.295,0.227c0.016-0.48,0.086-1.028,0.377-1.402H33.738z"/>
<path fill="#F5F5F5" d="M44.422,36.54c-0.25-0.117-0.611-0.438-0.611-0.76v-3.296l0.34-0.504h0.051v-1.014
	c-0.168,0.068-0.324,0.152-0.455,0.247c-0.031-0.114-0.064-0.223-0.104-0.329c0.143-0.167,0.455-0.533,0.559-0.718v-0.812
	c-0.115,0.017-0.227,0.065-0.328,0.149c0.15-0.211,0.305-0.455,0.328-0.593v-0.811c-0.232,0.033-0.453,0.2-0.623,0.533
	c-0.047-0.211-0.102-0.399-0.168-0.571c0.105-0.106,0.396-0.414,0.443-0.599v-0.52c-0.178,0.021-0.342,0.068-0.471,0.282
	c-0.02-0.069-0.039-0.128-0.059-0.183l0.324-0.413v-0.487c-0.143,0.017-0.219,0.064-0.324,0.23c-0.029-0.106-0.07-0.182-0.117-0.244
	h0.035l0.121-0.274v-0.381c-0.096,0.01-0.146,0.038-0.217,0.136c-0.027-0.081-0.066-0.151-0.113-0.215h0.068l0.262-0.228v-0.293
	c-0.096,0.01-0.146,0.037-0.219,0.133c-0.061-0.194-0.191-0.339-0.369-0.433c-0.178,0.093-0.309,0.245-0.369,0.44
	c-0.07-0.097-0.123-0.131-0.219-0.141v0.293l0.262,0.228h0.07c-0.049,0.066-0.088,0.139-0.113,0.222
	c-0.07-0.098-0.123-0.133-0.219-0.143v0.381l0.121,0.274h0.041c-0.051,0.064-0.092,0.146-0.123,0.255
	c-0.105-0.166-0.182-0.224-0.322-0.241v0.487l0.322,0.412c-0.02,0.055-0.039,0.114-0.059,0.183
	c-0.129-0.214-0.297-0.261-0.471-0.282v0.52c0.023,0.186,0.33,0.495,0.441,0.6c-0.066,0.173-0.121,0.359-0.164,0.57
	c-0.174-0.333-0.393-0.5-0.625-0.533v0.811c0.006,0.134,0.154,0.369,0.305,0.576c-0.098-0.073-0.199-0.117-0.305-0.132v0.812
	c0.088,0.205,0.475,0.634,0.598,0.765c-0.033,0.095-0.063,0.192-0.09,0.292c-0.135-0.099-0.299-0.187-0.469-0.257v1.014h0.057
	l0.34,0.504v3.296c0,0.321-0.363,0.643-0.613,0.76h0.453v7.456h2.305V36.54H44.422z"/>
<path opacity="0.1" fill="#1A1626" d="M50.736,8.591c4.098,5.13,6.563,11.622,6.563,18.701c0,16.567-13.428,30.003-29.994,30.003
	c-7.1,0-13.609-2.479-18.744-6.594C14.055,57.58,22.502,62,32.004,62c16.564,0,29.994-13.432,29.994-30
	C61.998,22.527,57.596,14.09,50.736,8.591z"/>
<path opacity="0.3" fill-rule="evenodd" clip-rule="evenodd" fill="#FFFFFF" d="M9.734,19.015c0.549,3.865,7.768-3.7,15.08-10.202
	C29.531,4.63,8.084,7.385,9.734,19.015z"/>
</svg>
