<?xml version="1.0" encoding="utf-8"?>
<!-- Generator: Adobe Illustrator 15.0.0, SVG Export Plug-In . SVG Version: 6.00 Build 0)  -->
<!DOCTYPE svg PUBLIC "-//W3C//DTD SVG 1.1//EN" "http://www.w3.org/Graphics/SVG/1.1/DTD/svg11.dtd">
<svg version="1.1" id="Layer_1" xmlns="http://www.w3.org/2000/svg" xmlns:xlink="http://www.w3.org/1999/xlink" x="0px" y="0px"
	 width="64px" height="64px" viewBox="0 0 64 64" enable-background="new 0 0 64 64" xml:space="preserve">
<path fill="#F5F5F5" d="M61.711,28h-1.424v-5.98C59.262,19.117,57.814,16.416,56,14h-6V8c-5.014-3.766-11.246-6-18-6
	C15.432,2,2,15.431,2,32c0,1.36,0.113,2.69,0.289,4h1.425v5.98C4.738,44.883,6.186,47.586,8,50h6v6c5.014,3.768,11.246,6,18,6
	c6.76,0,12.986-2.25,18-6.023V50h5.994c1.811-2.41,3.268-5.104,4.293-8v-6h1.439C61.902,34.691,62,33.357,62,32
	C62,30.64,61.887,29.31,61.711,28z"/>
<path fill="#014D87" d="M3.714,42h56.573c0.678-1.918,1.164-3.926,1.439-6H2.273C2.55,38.074,3.036,40.082,3.714,42z"/>
<path fill="#014D87" d="M8,50c1.706,2.271,3.728,4.293,6,6h36c2.273-1.707,4.295-3.729,6-6H8z"/>
<path fill="#014D87" d="M32,14h24c-1.705-2.271-3.727-4.293-6-6H32V14z"/>
<path fill="#014D87" d="M32,28h29.727c-0.275-2.074-0.762-4.082-1.439-6H32V28z"/>
<g>
	<path fill="#FCD116" d="M16.686,24.792l0.039-0.094c-0.022,0.039-0.046,0.076-0.067,0.113l-1.353,0.939
		c-0.776,1.875-0.524,2.746-0.437,3.43l-0.695,1.678c2.656-0.869,0.368-2.473,4.115-5.184l-0.912-1.361L16.686,24.792z"/>
	<path fill="#302C3B" d="M14.085,30.939l0.732-1.764c-0.01-0.066-0.02-0.135-0.029-0.207c-0.098-0.65-0.23-1.543,0.471-3.236
		l0.006-0.014l0.012-0.008l1.344-0.934c0.018-0.031,0.037-0.063,0.056-0.094l0.349-0.578l-0.227,0.549l0.592-0.41l0.028,0.043
		l0.938,1.4l-0.039,0.027c-1.963,1.422-2.252,2.516-2.484,3.396c-0.203,0.77-0.364,1.377-1.645,1.795L14.085,30.939z M15.345,25.783
		c-0.684,1.66-0.554,2.533-0.459,3.172c0.012,0.076,0.023,0.148,0.032,0.221l0.001,0.014l-0.004,0.012l-0.653,1.574
		c1.133-0.398,1.276-0.943,1.474-1.689c0.235-0.891,0.527-1.994,2.484-3.422l-0.856-1.279L15.345,25.783z"/>
</g>
<g>
	<path fill="#FCD116" d="M15.882,23.267l-0.828-0.148l0.094-0.039c-0.043,0.012-0.086,0.021-0.127,0.033l-1.621-0.293
		c-1.875,0.777-2.313,1.572-2.734,2.117L8.988,25.63c2.491,1.266,2.008-1.486,6.575-0.754L15.882,23.267z"/>
	<path fill="#302C3B" d="M10.149,26.019c-0.342,0-0.729-0.113-1.184-0.344l-0.098-0.049l0.102-0.041l1.664-0.689
		c0.041-0.055,0.084-0.111,0.127-0.168c0.392-0.529,0.929-1.254,2.62-1.953l0.014-0.006l0.015,0.002l1.609,0.291l0.117-0.031
		l0.636-0.156l-0.541,0.225l0.71,0.129l-0.01,0.049l-0.328,1.656l-0.047-0.008c-0.52-0.084-1.004-0.125-1.44-0.125
		c-1.396,0-2.128,0.426-2.717,0.768C10.983,25.81,10.625,26.019,10.149,26.019z M9.109,25.634c0.397,0.191,0.739,0.283,1.04,0.283
		c0.449,0,0.797-0.201,1.199-0.436c0.598-0.348,1.344-0.781,2.767-0.781c0.429,0,0.901,0.039,1.409,0.119l0.299-1.512l-0.945-0.17
		h0.002l-1.475-0.266c-1.655,0.688-2.181,1.396-2.564,1.914c-0.047,0.063-0.092,0.123-0.136,0.18l-0.009,0.012l-0.012,0.004
		L9.109,25.634z"/>
</g>
<g>
	<path fill="#FCD116" d="M14.173,22.289l1.361-0.912l-0.48-0.691l0.094,0.039c-0.038-0.021-0.076-0.045-0.113-0.066l-0.938-1.354
		c-1.876-0.775-2.746-0.523-3.431-0.436l-1.677-0.695C9.856,20.83,11.46,18.541,14.173,22.289z"/>
	<path fill="#302C3B" d="M14.16,22.357l-0.028-0.039c-1.422-1.963-2.516-2.252-3.396-2.484c-0.77-0.203-1.377-0.365-1.796-1.645
		l-0.033-0.104l1.766,0.73c0.066-0.008,0.135-0.018,0.205-0.029c0.248-0.037,0.529-0.078,0.875-0.078
		c0.695,0,1.468,0.18,2.361,0.551l0.014,0.004l0.009,0.014l0.933,1.344c0.034,0.02,0.068,0.041,0.104,0.061l0.652,0.379
		l-0.633-0.262l0.411,0.592L14.16,22.357z M9.071,18.261c0.398,1.133,0.943,1.277,1.691,1.475c0.889,0.234,1.994,0.527,3.422,2.484
		l1.279-0.857l-0.548-0.789l0,0l-0.853-1.229c-0.877-0.361-1.633-0.537-2.311-0.537c-0.338,0-0.615,0.041-0.86,0.078
		c-0.076,0.012-0.149,0.021-0.221,0.031l-0.013,0.002l-0.013-0.006L9.071,18.261z"/>
</g>
<g>
	<path fill="#FCD116" d="M15.063,19.435l1.607,0.318l0.15-0.828l0.038,0.094c-0.011-0.043-0.021-0.086-0.032-0.129l0.293-1.619
		c-0.777-1.875-1.572-2.313-2.117-2.734l-0.695-1.676C13.044,15.351,15.796,14.867,15.063,19.435z"/>
	<path fill="#302C3B" d="M16.712,19.812l-1.705-0.336l0.008-0.049c0.383-2.393-0.186-3.371-0.644-4.158
		c-0.4-0.688-0.717-1.23-0.107-2.432l0.049-0.096l0.042,0.1l0.689,1.664c0.054,0.041,0.109,0.084,0.168,0.127
		c0.529,0.391,1.253,0.928,1.954,2.619l0.005,0.014l-0.002,0.016l-0.291,1.607c0.011,0.041,0.021,0.08,0.03,0.119l0.141,0.604
		l-0.209-0.508L16.712,19.812z M15.121,19.396l1.511,0.299l0.436-2.418c-0.688-1.656-1.396-2.182-1.915-2.564
		c-0.063-0.047-0.122-0.092-0.181-0.135l-0.016-0.021l-0.652-1.574c-0.519,1.082-0.234,1.57,0.154,2.236
		C14.92,16.013,15.495,17.001,15.121,19.396z"/>
</g>
<g>
	<path fill="#FCD116" d="M21.828,13.033c-2.657,0.869-0.369,2.473-4.116,5.186l0.912,1.361l2.071-1.438
		C22.088,14.781,20.175,14.646,21.828,13.033z"/>
	<path fill="#302C3B" d="M18.61,19.65l-0.967-1.445l0.039-0.027c1.963-1.422,2.252-2.516,2.484-3.395
		c0.203-0.77,0.364-1.379,1.646-1.797l0.203-0.066l-0.152,0.15c-0.81,0.787-0.746,1.213-0.65,1.855
		c0.097,0.65,0.23,1.543-0.472,3.236l-0.006,0.012l-0.012,0.01L18.61,19.65z M17.78,18.23l0.856,1.279l2.019-1.4
		c0.684-1.658,0.554-2.531,0.459-3.17c-0.09-0.607-0.157-1.057,0.526-1.787c-1.044,0.396-1.185,0.932-1.376,1.656
		C20.029,15.697,19.737,16.802,17.78,18.23z"/>
</g>
<g>
	<path fill="#FCD116" d="M20.346,20.705l0.827,0.15l-0.094,0.039c0.043-0.012,0.086-0.021,0.129-0.033l1.62,0.293
		c1.875-0.777,2.313-1.572,2.734-2.117l1.678-0.695c-2.492-1.264-2.008,1.488-6.577,0.756L20.346,20.705z"/>
	<path fill="#302C3B" d="M22.834,21.205l-0.014-0.002l-1.61-0.291c-0.039,0.01-0.078,0.021-0.118,0.031l-0.638,0.158l0.543-0.227
		l-0.711-0.129l0.011-0.051l0.327-1.654l0.047,0.008c0.52,0.084,1.005,0.125,1.44,0.125c1.396,0,2.129-0.426,2.719-0.77
		c0.414-0.24,0.773-0.449,1.248-0.449c0.342,0,0.73,0.111,1.184,0.342l0.098,0.051l-0.102,0.041l-1.664,0.689
		c-0.041,0.053-0.082,0.109-0.125,0.166c-0.391,0.529-0.928,1.254-2.621,1.955L22.834,21.205z M21.205,20.81l0.011,0.002
		l1.606,0.289c1.658-0.689,2.182-1.398,2.566-1.916c0.047-0.063,0.09-0.123,0.135-0.18l0.008-0.01l0.012-0.006l1.576-0.652
		c-0.398-0.189-0.738-0.283-1.041-0.283c-0.447,0-0.795,0.203-1.197,0.438c-0.6,0.348-1.346,0.781-2.77,0.781
		c-0.428,0-0.901-0.039-1.408-0.119l-0.298,1.512L21.205,20.81z"/>
</g>
<g>
	<path fill="#FCD116" d="M21.883,21.712l-1.363,0.912l0.479,0.689l-0.094-0.037c0.039,0.021,0.076,0.045,0.113,0.066l0.94,1.354
		c1.875,0.775,2.746,0.523,3.43,0.436l1.678,0.695C26.197,23.171,24.594,25.46,21.883,21.712z"/>
	<path fill="#302C3B" d="M27.146,25.916l-1.764-0.73c-0.068,0.008-0.137,0.018-0.209,0.029c-0.248,0.037-0.529,0.078-0.873,0.078
		c-0.695,0-1.469-0.18-2.361-0.551l-0.014-0.004l-0.008-0.014l-0.934-1.344l-0.696-0.41l0.574,0.234l-0.413-0.594l1.445-0.967
		l0.027,0.039c1.422,1.963,2.516,2.252,3.396,2.484c0.77,0.203,1.377,0.365,1.795,1.645L27.146,25.916z M25.396,25.082l0.012,0.006
		l1.574,0.65c-0.398-1.131-0.943-1.275-1.689-1.473c-0.891-0.234-1.994-0.527-3.424-2.484l-1.279,0.857l0.546,0.787v-0.002
		l0.854,1.232c0.877,0.361,1.631,0.537,2.311,0.537c0.336,0,0.613-0.041,0.857-0.078c0.078-0.012,0.152-0.021,0.225-0.031
		L25.396,25.082z"/>
</g>
<g>
	<path fill="#FCD116" d="M20.755,24.457l-1.608-0.316l-0.149,0.826l-0.039-0.094c0.012,0.045,0.021,0.086,0.033,0.129l-0.293,1.619
		c0.777,1.877,1.572,2.313,2.117,2.734l0.694,1.678C22.775,28.541,20.022,29.025,20.755,24.457z"/>
	<path fill="#302C3B" d="M21.506,31.152l-0.041-0.1l-0.69-1.666c-0.054-0.041-0.109-0.082-0.168-0.125
		c-0.529-0.393-1.253-0.928-1.954-2.621l-0.005-0.014l0.002-0.014l0.29-1.609c-0.01-0.039-0.02-0.078-0.029-0.119l-0.153-0.625
		l0.222,0.531l0.128-0.709l1.705,0.336l-0.008,0.047c-0.384,2.395,0.186,3.373,0.644,4.158c0.4,0.688,0.717,1.232,0.107,2.432
		L21.506,31.152z M18.751,26.615c0.688,1.656,1.396,2.182,1.915,2.566c0.063,0.045,0.122,0.09,0.181,0.135l0.016,0.02l0.651,1.576
		c0.52-1.084,0.236-1.57-0.152-2.238c-0.464-0.795-1.038-1.783-0.664-4.176l-1.511-0.299l-0.17,0.943l0,0L18.751,26.615z"/>
</g>
<polygon fill="#FCD116" points="21.05,23.263 28,22 21.05,20.736 25.072,14.929 19.264,18.951 18,12 16.736,18.951 10.929,14.929 
	14.95,20.736 8,22 14.95,23.263 10.929,29.072 16.736,25.05 18,32 19.264,25.05 25.072,29.072 "/>
<path fill="#302C3B" d="M18,32.279l-1.299-7.143l-5.97,4.133l0.156-0.227l3.977-5.744L7.721,22l0.271-0.049l6.873-1.25l-4.133-5.969
	l0.227,0.156l5.743,3.977L18,11.72l1.299,7.145l5.971-4.133l-0.156,0.225l-3.978,5.744L28.279,22l-0.27,0.049l-6.874,1.25
	l4.134,5.971l-5.971-4.133L18,32.279z M16.771,24.966l0.015,0.076L18,31.72l1.229-6.754l5.645,3.908l-3.908-5.646l0.077-0.014
	L27.721,22l-6.756-1.229l0.044-0.063l3.864-5.582l-5.645,3.908l-0.015-0.076L18,12.279l-1.229,6.756l-5.645-3.908l3.908,5.645
	l-0.077,0.014L8.279,22l6.756,1.229l-0.044,0.064l-3.864,5.582L16.771,24.966z"/>
<g>
	<circle fill="#FCD116" cx="18" cy="22" r="3.333"/>
	<path fill="#302C3B" d="M18,25.384c-1.866,0-3.384-1.518-3.384-3.385c0-1.865,1.518-3.383,3.384-3.383s3.385,1.518,3.385,3.383
		C21.385,23.867,19.866,25.384,18,25.384z M18,18.716c-1.811,0-3.284,1.473-3.284,3.283s1.474,3.285,3.284,3.285
		S21.284,23.81,21.284,22S19.811,18.716,18,18.716z"/>
</g>
<g>
	<path fill="#302C3B" d="M20.454,20.667c-0.211,0.242-0.333-0.182-1.09-0.182c-0.758,0-0.879,0.453-1,0.363
		c-0.121-0.092,0.636-0.637,0.879-0.666C19.485,20.152,20.183,20.394,20.454,20.667 M19.575,20.939
		c0.213,0.182,0.031,0.576-0.182,0.576c-0.212,0-0.605-0.363-0.424-0.605"/>
</g>
<g>
	<path fill="#302C3B" d="M18.575,21.212c0.031-0.363,0.334-0.424,0.818-0.424c0.485,0,0.697,0.363,0.879,0.455
		c-0.212,0-0.394-0.305-0.879-0.305c-0.484,0-0.484,0-0.818,0.305 M18.667,21.304c0.121-0.184,0.272,0.182,0.605,0.182
		c0.334,0,0.516-0.092,0.728-0.242c0.212-0.152-0.303,0.363-0.636,0.363C19.03,21.607,18.575,21.425,18.667,21.304"/>
</g>
<g>
	<path fill="#302C3B" d="M19.697,21.486c0.394-0.213,0.151-0.516,0-0.576C19.757,20.97,20,21.273,19.697,21.486 M18,23.304
		c0.182,0,0.243-0.061,0.485-0.061s0.818,0.332,1.15,0.211c-0.696,0.273-0.424,0.092-1.636,0.092h-0.151 M19.757,23.728
		c-0.121-0.213-0.09-0.152-0.332-0.484C19.667,23.425,19.728,23.515,19.757,23.728 M18,24.031c0.757,0,0.636-0.152,1.636-0.576
		c-0.727,0.092-0.879,0.334-1.636,0.334h-0.151 M18,22.91c0.212,0,0.272-0.152,0.515-0.152s0.576,0.092,0.729,0.213
		c0.029,0.029-0.092-0.242-0.334-0.273c-0.242-0.029-0.152-0.424-0.424-0.484c0,0.121,0.09,0.09,0.121,0.273
		c0,0.15-0.273,0.15-0.334,0c0.061,0.242-0.121,0.242-0.272,0.242"/>
</g>
<g id="right_1_">
	<g>
		<path fill="#302C3B" d="M15.546,20.667c0.211,0.242,0.333-0.182,1.09-0.182c0.758,0,0.879,0.453,1,0.363
			c0.121-0.092-0.636-0.637-0.879-0.666C16.515,20.152,15.817,20.394,15.546,20.667 M16.425,20.939
			c-0.213,0.182-0.031,0.576,0.182,0.576c0.212,0,0.605-0.363,0.424-0.605"/>
	</g>
	<g>
		<path fill="#302C3B" d="M17.425,21.212c-0.031-0.363-0.334-0.424-0.818-0.424c-0.485,0-0.697,0.363-0.879,0.455
			c0.212,0,0.394-0.305,0.879-0.305c0.484,0,0.484,0,0.818,0.305 M17.333,21.304c-0.121-0.184-0.271,0.182-0.605,0.182
			S16.212,21.394,16,21.244c-0.212-0.152,0.304,0.363,0.636,0.363C16.97,21.607,17.425,21.425,17.333,21.304"/>
	</g>
	<g>
		<path fill="#302C3B" d="M16.304,21.486c-0.395-0.213-0.152-0.516,0-0.576C16.243,20.97,16,21.273,16.304,21.486 M18,23.304
			c-0.182,0-0.243-0.061-0.485-0.061s-0.817,0.332-1.15,0.211c0.697,0.273,0.424,0.092,1.636,0.092h0.151 M16.243,23.728
			c0.121-0.213,0.09-0.152,0.332-0.484C16.333,23.425,16.272,23.515,16.243,23.728 M18,24.031c-0.757,0-0.636-0.152-1.636-0.576
			c0.727,0.092,0.879,0.334,1.636,0.334h0.151 M18,22.91c-0.212,0-0.272-0.152-0.515-0.152s-0.576,0.092-0.729,0.213
			c-0.029,0.029,0.092-0.242,0.334-0.273c0.242-0.029,0.152-0.424,0.424-0.484c0,0.121-0.09,0.09-0.121,0.273
			c0,0.15,0.273,0.15,0.334,0c-0.061,0.242,0.121,0.242,0.272,0.242"/>
	</g>
</g>
<g>
	<path fill="#302C3B" d="M18,24.302c-0.151,0-0.546,0.092,0,0.092S18.151,24.302,18,24.302"/>
</g>
<path opacity="0.1" fill="#1A1626" d="M50.738,8.591c4.096,5.129,6.563,11.621,6.563,18.701c0,16.569-13.43,30.002-29.996,30.002
	c-7.101,0-13.609-2.477-18.744-6.594C14.055,57.58,22.504,62,32.004,62c16.566,0,29.994-13.432,29.994-30
	C61.998,22.527,57.596,14.089,50.738,8.591z"/>
<path opacity="0.7" fill-rule="evenodd" clip-rule="evenodd" fill="#FFFFFF" d="M9.734,19.015c0.549,3.865,7.767-3.701,15.08-10.203
	C29.531,4.63,8.083,7.384,9.734,19.015z"/>
</svg>
