<?xml version="1.0" encoding="utf-8"?>
<!-- Generator: Adobe Illustrator 15.0.0, SVG Export Plug-In . SVG Version: 6.00 Build 0)  -->
<!DOCTYPE svg PUBLIC "-//W3C//DTD SVG 1.1//EN" "http://www.w3.org/Graphics/SVG/1.1/DTD/svg11.dtd">
<svg version="1.1" id="Layer_1" xmlns="http://www.w3.org/2000/svg" xmlns:xlink="http://www.w3.org/1999/xlink" x="0px" y="0px"
	 width="64px" height="64px" viewBox="0 0 64 64" enable-background="new 0 0 64 64" xml:space="preserve">
<path fill="#014D87" d="M32,2C18.938,2,7.832,10.35,3.713,22h56.572C56.166,10.35,45.061,2,32,2z"/>
<path fill="#014D87" d="M32,62c13.061,0,24.166-8.35,28.285-20H3.713C7.832,53.65,18.938,62,32,62z"/>
<path fill="#F5F5F5" d="M3.713,22C2.607,25.129,2,28.492,2,32s0.607,6.871,1.713,10h56.572C61.391,38.871,62,35.508,62,32
	s-0.609-6.871-1.715-10H3.713z"/>
<path fill="#014D87" d="M35.545,27.933l-1.189,1.191C34.758,29.635,35,30.276,35,30.977c0,1.656-1.344,3-3,3c-1.658,0-3-1.344-3-3
	c0-0.7,0.242-1.343,0.645-1.853l-1.191-1.191c-0.662,0.798-1.061,1.822-1.061,2.94c0,2.544,2.063,4.607,4.607,4.607
	c2.543,0,4.605-2.063,4.605-4.607C36.605,29.755,36.207,28.73,35.545,27.933z"/>
<path fill="#014D87" d="M34.037,25.392l-0.684,0.685c0.23,0.293,0.369,0.662,0.369,1.064c0,0.951-0.771,1.724-1.723,1.724
	c-0.953,0-1.725-0.772-1.725-1.724c0-0.402,0.139-0.771,0.371-1.064l-0.684-0.685c-0.381,0.458-0.609,1.047-0.609,1.689
	c0,1.461,1.184,2.646,2.646,2.646c1.461,0,2.646-1.186,2.646-2.646C34.646,26.438,34.418,25.85,34.037,25.392z"/>
<g>
	<path fill="#529320" d="M28.359,29.511c0,0-0.5-0.143-0.9-0.136c0.006-0.008,0.01-0.013,0.016-0.021
		c0.314-0.482,0.418-1.384,0.418-1.384s-0.777,0.458-1.096,0.937c-0.166-0.348-0.467-0.704-0.467-0.704s-0.369,0.413-0.313,0.815
		c0.057,0.401,0.566,1.001,0.566,1.001s0.76,0.22,1.152,0.106C28.127,30.014,28.359,29.511,28.359,29.511z"/>
</g>
<g>
	<path fill="#529320" d="M27.637,30.664c0,0-0.521-0.01-0.904,0.1c0.002-0.009,0.008-0.016,0.01-0.024
		c0.178-0.546,0.043-1.444,0.043-1.444s-0.633,0.643-0.814,1.187c-0.25-0.293-0.637-0.56-0.637-0.56s-0.246,0.494-0.088,0.867
		c0.16,0.374,0.809,0.821,0.809,0.821s0.789,0.017,1.141-0.192C27.545,31.208,27.637,30.664,27.637,30.664z"/>
</g>
<g>
	<path fill="#529320" d="M27.24,31.962c0,0-0.506,0.125-0.848,0.329c0-0.009,0.002-0.016,0.002-0.024
		c0.031-0.574-0.334-1.407-0.334-1.407s-0.443,0.783-0.479,1.355c-0.316-0.219-0.758-0.378-0.758-0.378s-0.111,0.542,0.141,0.86
		c0.25,0.32,0.994,0.586,0.994,0.586s0.768-0.187,1.051-0.479C27.293,32.513,27.24,31.962,27.24,31.962z"/>
</g>
<g>
	<path fill="#529320" d="M27.195,33.318c0,0-0.455,0.251-0.732,0.537c-0.002-0.01-0.002-0.018-0.006-0.025
		c-0.119-0.563-0.688-1.273-0.688-1.273s-0.225,0.87-0.109,1.432c-0.363-0.129-0.832-0.17-0.832-0.17s0.035,0.551,0.361,0.797
		c0.324,0.244,1.113,0.309,1.113,0.309s0.693-0.377,0.889-0.73C27.391,33.836,27.195,33.318,27.195,33.318z"/>
</g>
<g>
	<path fill="#529320" d="M27.506,34.641c0,0-0.375,0.359-0.568,0.705c-0.004-0.008-0.006-0.014-0.012-0.021
		c-0.262-0.514-0.996-1.053-0.996-1.053s0.008,0.898,0.268,1.412c-0.385-0.033-0.85,0.049-0.85,0.049s0.18,0.523,0.557,0.676
		c0.379,0.152,1.156,0.014,1.156,0.014s0.572-0.543,0.67-0.938S27.506,34.641,27.506,34.641z"/>
</g>
<g>
	<path fill="#529320" d="M28.148,35.838c0,0-0.266,0.443-0.363,0.828c-0.006-0.008-0.01-0.014-0.018-0.02
		c-0.387-0.428-1.236-0.76-1.236-0.76s0.242,0.865,0.627,1.293c-0.381,0.068-0.807,0.268-0.807,0.268s0.307,0.459,0.713,0.51
		c0.406,0.049,1.121-0.285,1.121-0.285s0.408-0.67,0.4-1.076S28.148,35.838,28.148,35.838z"/>
</g>
<g>
	<path fill="#529320" d="M29.084,36.83c0,0-0.143,0.496-0.137,0.891c-0.008-0.004-0.014-0.01-0.021-0.014
		c-0.484-0.313-1.393-0.416-1.393-0.416s0.461,0.773,0.941,1.088c-0.348,0.164-0.709,0.465-0.709,0.465s0.418,0.365,0.822,0.309
		c0.404-0.055,1.008-0.561,1.008-0.561s0.223-0.754,0.107-1.145C29.59,37.059,29.084,36.83,29.084,36.83z"/>
</g>
<g>
	<path fill="#529320" d="M30.244,37.545c0,0-0.008,0.518,0.102,0.898c-0.008-0.004-0.016-0.008-0.023-0.01
		c-0.551-0.176-1.455-0.043-1.455-0.043s0.646,0.629,1.195,0.811c-0.297,0.248-0.566,0.629-0.566,0.629s0.5,0.246,0.877,0.088
		c0.375-0.158,0.826-0.803,0.826-0.803s0.018-0.783-0.195-1.131C30.793,37.637,30.244,37.545,30.244,37.545z"/>
</g>
<g>
	<path fill="#529320" d="M35.641,29.511c0,0,0.5-0.143,0.898-0.136c-0.004-0.008-0.01-0.013-0.014-0.021
		c-0.316-0.482-0.42-1.384-0.42-1.384s0.779,0.458,1.096,0.937c0.166-0.348,0.469-0.704,0.469-0.704s0.367,0.413,0.311,0.815
		c-0.055,0.401-0.566,1.001-0.566,1.001s-0.758,0.22-1.15,0.106C35.871,30.014,35.641,29.511,35.641,29.511z"/>
</g>
<g>
	<path fill="#529320" d="M36.361,30.664c0,0,0.521-0.01,0.904,0.1c-0.002-0.009-0.006-0.016-0.008-0.024
		c-0.18-0.546-0.045-1.444-0.045-1.444s0.633,0.643,0.814,1.187c0.252-0.293,0.637-0.56,0.637-0.56s0.246,0.494,0.088,0.867
		c-0.158,0.374-0.809,0.821-0.809,0.821s-0.789,0.017-1.139-0.192C36.453,31.208,36.361,30.664,36.361,30.664z"/>
</g>
<g>
	<path fill="#529320" d="M36.76,31.962c0,0,0.504,0.125,0.846,0.329c0-0.009-0.002-0.016-0.002-0.024
		c-0.029-0.574,0.334-1.407,0.334-1.407s0.445,0.783,0.479,1.355c0.318-0.219,0.76-0.378,0.76-0.378s0.109,0.542-0.141,0.86
		c-0.252,0.32-0.996,0.586-0.996,0.586s-0.768-0.187-1.051-0.479C36.705,32.513,36.76,31.962,36.76,31.962z"/>
</g>
<g>
	<path fill="#529320" d="M36.805,33.318c0,0,0.455,0.251,0.732,0.537c0.002-0.01,0.002-0.018,0.004-0.025
		c0.119-0.563,0.689-1.273,0.689-1.273s0.225,0.87,0.109,1.432c0.361-0.129,0.832-0.17,0.832-0.17s-0.035,0.551-0.361,0.797
		c-0.326,0.244-1.113,0.309-1.113,0.309s-0.693-0.377-0.891-0.73C36.609,33.836,36.805,33.318,36.805,33.318z"/>
</g>
<g>
	<path fill="#529320" d="M36.494,34.641c0,0,0.375,0.359,0.566,0.705c0.004-0.008,0.008-0.014,0.012-0.021
		c0.264-0.514,0.998-1.053,0.998-1.053s-0.01,0.898-0.268,1.412c0.385-0.033,0.848,0.049,0.848,0.049s-0.178,0.523-0.557,0.676
		s-1.156,0.014-1.156,0.014s-0.57-0.543-0.668-0.938C36.17,35.09,36.494,34.641,36.494,34.641z"/>
</g>
<g>
	<path fill="#529320" d="M35.85,35.838c0,0,0.268,0.443,0.365,0.828c0.006-0.008,0.008-0.014,0.016-0.02
		c0.389-0.428,1.236-0.76,1.236-0.76s-0.242,0.865-0.625,1.293c0.379,0.068,0.805,0.268,0.805,0.268s-0.307,0.459-0.711,0.51
		c-0.406,0.049-1.121-0.285-1.121-0.285s-0.41-0.67-0.402-1.076S35.85,35.838,35.85,35.838z"/>
</g>
<g>
	<path fill="#529320" d="M34.914,36.83c0,0,0.145,0.496,0.139,0.891c0.006-0.004,0.012-0.01,0.02-0.014
		c0.486-0.313,1.395-0.416,1.395-0.416s-0.461,0.773-0.943,1.088c0.35,0.164,0.709,0.465,0.709,0.465s-0.418,0.365-0.822,0.309
		c-0.404-0.055-1.008-0.561-1.008-0.561s-0.221-0.754-0.107-1.145C34.408,37.059,34.914,36.83,34.914,36.83z"/>
</g>
<g>
	<path fill="#529320" d="M33.754,37.545c0,0,0.01,0.518-0.1,0.898c0.008-0.004,0.014-0.008,0.023-0.01
		c0.551-0.176,1.455-0.043,1.455-0.043s-0.648,0.629-1.195,0.811c0.295,0.248,0.564,0.629,0.564,0.629s-0.498,0.246-0.875,0.088
		s-0.826-0.803-0.826-0.803s-0.018-0.783,0.193-1.131S33.754,37.545,33.754,37.545z"/>
</g>
<g>
	<g>
		<path fill="#FFE12C" d="M38,35.965H26l6-10L38,35.965z M27.834,34.906h8.33L32,27.963L27.834,34.906z"/>
	</g>
</g>
<g>
	<polygon fill="#302C3B" points="32.5,30.154 32,30.965 32,30.965 31.5,30.154 31.5,27.775 32,26.965 32,26.965 32.5,27.775 
		32.5,30.154 	"/>
</g>
<g>
	<circle fill="#E81C27" cx="32" cy="30.965" r="2"/>
</g>
<g>
	<path fill="#FFC7CE" d="M32,29.465c-0.828,0-1.5,0.672-1.5,1.5h3C33.5,30.137,32.828,29.465,32,29.465z"/>
</g>
<g>
	<path fill="#FFCC00" d="M41.717,32.423c0-5.366-4.352-9.717-9.717-9.717c-5.367,0-9.717,4.351-9.717,9.717
		c0,3.833,2.225,7.14,5.451,8.72l0.684-1.201c-2.809-1.342-4.754-4.199-4.754-7.519c0-4.604,3.732-8.335,8.336-8.335
		s8.334,3.731,8.334,8.335c0,3.368-2,6.263-4.875,7.577l0.492,1.295C39.346,39.779,41.717,36.381,41.717,32.423z"/>
</g>
<path opacity="0.1" fill="#1A1626" d="M50.736,8.591c4.098,5.13,6.563,11.622,6.563,18.701c0,16.569-13.428,30.003-29.994,30.003
	c-7.1,0-13.609-2.477-18.744-6.594C14.055,57.58,22.502,62,32.004,62c16.564,0,29.994-13.432,29.994-30
	C61.998,22.527,57.596,14.09,50.736,8.591z"/>
<path opacity="0.3" fill-rule="evenodd" clip-rule="evenodd" fill="#FFFFFF" d="M9.734,19.015c0.549,3.865,7.768-3.7,15.08-10.202
	C29.531,4.63,8.084,7.385,9.734,19.015z"/>
</svg>
