<?xml version="1.0" encoding="utf-8"?>
<!-- Generator: Adobe Illustrator 15.0.0, SVG Export Plug-In . SVG Version: 6.00 Build 0)  -->
<!DOCTYPE svg PUBLIC "-//W3C//DTD SVG 1.1//EN" "http://www.w3.org/Graphics/SVG/1.1/DTD/svg11.dtd">
<svg version="1.1" id="Layer_1" xmlns="http://www.w3.org/2000/svg" xmlns:xlink="http://www.w3.org/1999/xlink" x="0px" y="0px"
	 width="64px" height="64px" viewBox="0 0 64 64" enable-background="new 0 0 64 64" xml:space="preserve">
<path fill="#E81C27" d="M44.461,56.459L20,32h24L18.707,6.705h-2.828V6.699C7.535,12.027,2,21.365,2,32c0,16.568,13.432,30,30,30
	c4.447,0,8.664-0.977,12.461-2.713V56.459z"/>
<path fill="#F5F5F5" d="M32,2c-4.447,0-8.664,0.979-12.459,2.715v4.85l21.01,21.01h-21.01v3.166l23.553,23.553h5.016
	C56.457,51.967,62,42.635,62,32C62,15.432,48.568,2,32,2z"/>
<path fill="#014D87" d="M19.541,4.711c-1.271,0.582-2.494,1.248-3.662,1.994L39.172,30h-24l29.289,29.287
	c1.271-0.58,2.494-1.248,3.662-1.994L24.828,34h24L19.541,4.711z"/>
<path fill="#F5F5F5" d="M19.553,21.801C19.83,21.258,20,20.65,20,20c0-2.209-1.791-4-4-4s-4,1.791-4,4
	c0,0.65,0.172,1.258,0.447,1.801C10.502,21.043,9,20,9,20s1.5,6,7.002,6C21.625,26,23,20,23,20S21.498,21.045,19.553,21.801z"/>
<polygon fill="#F5F5F5" points="16,39.563 17.609,38 18.219,40.158 20.393,39.607 19.842,41.781 22,42.391 20.436,44 22,45.607 
	19.842,46.217 20.393,48.393 18.219,47.842 17.609,50 16,48.436 14.393,50 13.781,47.842 11.607,48.393 12.158,46.217 10,45.607 
	11.564,44 10,42.391 12.158,41.781 11.607,39.607 13.781,40.158 14.393,38 "/>
<path opacity="0.05" fill="#1A1626" d="M50.738,8.592c4.096,5.129,6.563,11.621,6.563,18.701c0,16.568-13.43,30.002-29.996,30.002
	c-7.1,0-13.609-2.477-18.744-6.594C14.055,57.58,22.504,62,32.004,62c16.566,0,29.994-13.432,29.994-30
	C61.998,22.527,57.596,14.09,50.738,8.592z"/>
<path opacity="0.3" fill-rule="evenodd" clip-rule="evenodd" fill="#FFFFFF" d="M9.734,19.016c0.549,3.865,7.768-3.701,15.08-10.203
	C29.531,4.631,8.084,7.385,9.734,19.016z"/>
</svg>
