<?xml version="1.0" encoding="utf-8"?>
<!-- Generator: Adobe Illustrator 15.0.0, SVG Export Plug-In . SVG Version: 6.00 Build 0)  -->
<!DOCTYPE svg PUBLIC "-//W3C//DTD SVG 1.1//EN" "http://www.w3.org/Graphics/SVG/1.1/DTD/svg11.dtd">
<svg version="1.1" id="Layer_1" xmlns="http://www.w3.org/2000/svg" xmlns:xlink="http://www.w3.org/1999/xlink" x="0px" y="0px"
	 width="64px" height="64px" viewBox="0 0 64 64" enable-background="new 0 0 64 64" xml:space="preserve">
<path fill="#E81C27" d="M33,32L11.299,53.701C16.683,58.838,23.97,62,32,62c16.568,0,30-13.432,30-30H33z"/>
<path fill="#014D87" d="M62,32C62,15.432,48.568,2,32,2c-8.03,0-15.317,3.16-20.701,8.299L33,32H62z"/>
<path fill="#F5F5F5" d="M11.299,10.299C5.573,15.762,2,23.461,2,32s3.573,16.238,9.299,21.701L33,32L11.299,10.299z"/>
<polygon fill="#FFE12C" points="12.992,13.609 12.23,15.027 13.326,16.104 11.778,15.885 11.038,17.313 10.842,15.76 9.289,15.564 
	10.717,14.824 10.498,13.275 11.575,14.371 "/>
<polygon fill="#FFE12C" points="13.231,48 12.13,49.172 12.909,50.496 11.47,49.883 10.386,51.07 10.599,49.521 9.149,48.93 
	10.72,48.584 10.909,47.031 11.666,48.369 "/>
<polygon fill="#FFE12C" points="30.499,32 28.959,32.465 28.972,34 28.032,32.75 26.499,33.236 27.459,32 26.499,30.764 
	28.032,31.25 28.972,30 28.959,31.537 "/>
<path fill="#FFE12C" d="M23.69,30.48l-0.596-0.434l-6.548,1.426l0.06-0.049l6.133-1.635l-0.711-0.518l-5.233,1.994l4.316-3.605
	l-0.086-0.883l-4.459,4.576l-0.072,0.025l4.489-5.045l-0.072-0.74l-0.73,0.059l-4.113,5.367l0.014-0.078l3.665-5.258l-0.873,0.07
	l-2.747,4.943l1.024-5.58l-0.625-0.621l-0.52,6.416l-0.037,0.068l0.246-6.795l-0.524-0.521l-0.524,0.52l0.246,6.797l-0.037-0.068
	l-0.521-6.416l-0.624,0.621l1.024,5.58l-2.748-4.943l-0.871-0.068l3.663,5.256l0.014,0.076L11.2,25.652l-0.731-0.059l-0.072,0.74
	l4.489,5.045l-0.07-0.025l-4.461-4.576l-0.086,0.883l4.317,3.605l-5.233-1.994l-0.711,0.518l6.133,1.635l0.059,0.049l-6.548-1.426
	L7.69,30.48l0.414,0.615l6.633,0.932l-0.073,0.027l-6.313-0.594l0.494,0.732l5.589-0.057l-5.271,1.891l-0.217,0.859l5.733-2.75
	l0.076-0.002l-5.918,3.182l-0.184,0.721l0.707,0.201l5.672-3.615l-0.039,0.068l-5.211,3.664l0.841,0.24l4.247-3.691l-2.842,4.889
	l0.378,0.799l2.648-5.848l0.061-0.053l-2.521,6.301l0.316,0.672l0.667-0.309l2.06-6.469l0.011,0.078l-1.671,6.209l0.795-0.367
	l0.917-5.598l0.918,5.598l0.795,0.365l-1.672-6.207l0.012-0.078l2.06,6.469l0.667,0.309l0.317-0.67l-2.521-6.303l0.061,0.053
	l2.648,5.848l0.378-0.799l-2.842-4.887l4.247,3.689l0.84-0.24l-5.21-3.664l-0.04-0.068l5.672,3.615l0.708-0.201l-0.184-0.721
	l-5.919-3.182l0.077,0.002l5.733,2.75l-0.217-0.859l-5.271-1.891l5.588,0.055l0.493-0.73l-6.312,0.596l-0.074-0.027l6.634-0.934
	L23.69,30.48z M14.868,32.074l-0.051-0.006l0.046-0.021l0.045,0.006L14.868,32.074z M14.958,31.5l-0.036-0.037l0.049,0.012
	l0.031,0.035L14.958,31.5z M15.162,32.574l-0.043,0.029l0.021-0.049l0.039-0.023L15.162,32.574z M15.392,31.119l-0.005-0.053
	l0.03,0.043l0.001,0.043L15.392,31.119z M15.689,32.814l-0.013-0.051l0.013-0.043l0.014,0.041L15.689,32.814z M15.989,31.121
	l-0.026,0.033v-0.045l0.031-0.043L15.989,31.121z M16.217,32.574l-0.016-0.043l0.038,0.023l0.021,0.049L16.217,32.574z M16.423,31.5
	l-0.045,0.012l0.03-0.035l0.052-0.014L16.423,31.5z M16.512,32.074l-0.04-0.021l0.045-0.006l0.047,0.023L16.512,32.074z"/>
<circle fill="#FFE12C" cx="15.69" cy="32" r="4.5"/>
<path opacity="0.1" fill="#1A1626" d="M50.736,8.59c4.097,5.131,6.563,11.623,6.563,18.701c0,16.568-13.429,30.004-29.994,30.004
	c-7.101,0-13.61-2.479-18.745-6.594C14.054,57.58,22.502,62,32.003,62c16.565,0,29.994-13.432,29.994-30
	C61.997,22.527,57.595,14.09,50.736,8.59z"/>
<path opacity="0.3" fill-rule="evenodd" clip-rule="evenodd" fill="#FFFFFF" d="M9.734,19.014c0.549,3.865,7.767-3.699,15.08-10.201
	C29.531,4.629,8.083,7.385,9.734,19.014z"/>
</svg>
