<?xml version="1.0" encoding="utf-8"?>
<!-- Generator: Adobe Illustrator 15.0.0, SVG Export Plug-In . SVG Version: 6.00 Build 0)  -->
<!DOCTYPE svg PUBLIC "-//W3C//DTD SVG 1.1//EN" "http://www.w3.org/Graphics/SVG/1.1/DTD/svg11.dtd">
<svg version="1.1" id="Layer_1" xmlns="http://www.w3.org/2000/svg" xmlns:xlink="http://www.w3.org/1999/xlink" x="0px" y="0px"
	 width="64px" height="64px" viewBox="0 0 64 64" enable-background="new 0 0 64 64" xml:space="preserve">
<path fill="#529320" d="M60.9,40c0.703-2.551,1.1-5.229,1.1-8c0-2.775-0.4-5.451-1.107-8H31.74L14.824,7.416
	c-4.031,2.822-7.326,6.609-9.57,11.027L19,32L5.253,45.557c2.244,4.418,5.547,8.195,9.578,11.016L31.74,40H60.9z"/>
<path fill="#302C3B" d="M3.55,22.488C2.55,25.479,2,28.674,2,32c0,3.324,0.551,6.52,1.551,9.51L13.191,32L3.55,22.488z"/>
<path fill="#014D87" d="M18.333,58.686C22.435,60.791,27.072,62,32,62c12.329,0,22.899-7.449,27.512-18.082H33.398L18.333,58.686z"
	/>
<path fill="#E81C27" d="M59.516,20.08C54.904,9.445,44.33,2,32,2c-4.928,0-9.574,1.195-13.676,3.303L33.398,20.08H59.516z"/>
<path fill="#F5F5F5" d="M60.52,22.688c-0.291-0.891-0.635-1.756-1.004-2.607H33.398L18.324,5.303
	c-0.672,0.344-1.332,0.707-1.973,1.1c-0.521,0.32-1.027,0.664-1.527,1.014L31.74,24h29.153C60.771,23.561,60.66,23.117,60.52,22.688
	z"/>
<path fill="#FFE12C" d="M5.253,18.443c-0.113,0.223-0.24,0.439-0.348,0.666c-0.52,1.092-0.969,2.221-1.355,3.379L13.191,32
	L3.55,41.51c0.387,1.158,0.836,2.289,1.355,3.379c0.109,0.227,0.234,0.443,0.348,0.668L19,32L5.253,18.443z"/>
<path fill="#F5F5F5" d="M31.74,40L14.832,56.572c0.348,0.244,0.691,0.494,1.049,0.723c0.791,0.504,1.615,0.959,2.453,1.391
	l15.065-14.768h26.113c0.439-1.012,0.844-2.041,1.172-3.105C60.766,40.545,60.826,40.27,60.9,40H31.74z"/>
<path opacity="0.1" fill="#1A1626" d="M50.738,8.59c4.096,5.131,6.563,11.623,6.563,18.701c0,16.568-13.43,30.004-29.997,30.004
	c-7.1,0-13.609-2.479-18.744-6.594C14.054,57.58,22.503,62,32.003,62c16.567,0,29.995-13.432,29.995-30
	C61.998,22.527,57.596,14.09,50.738,8.59z"/>
<path opacity="0.3" fill-rule="evenodd" clip-rule="evenodd" fill="#FFFFFF" d="M9.734,19.014c0.549,3.865,7.768-3.699,15.08-10.201
	C29.531,4.629,8.083,7.385,9.734,19.014z"/>
</svg>
