<?xml version="1.0" encoding="utf-8"?>
<!-- Generator: Adobe Illustrator 15.0.0, SVG Export Plug-In . SVG Version: 6.00 Build 0)  -->
<!DOCTYPE svg PUBLIC "-//W3C//DTD SVG 1.1//EN" "http://www.w3.org/Graphics/SVG/1.1/DTD/svg11.dtd">
<svg version="1.1" id="Layer_1" xmlns="http://www.w3.org/2000/svg" xmlns:xlink="http://www.w3.org/1999/xlink" x="0px" y="0px"
	 width="64px" height="64px" viewBox="0 0 64 64" enable-background="new 0 0 64 64" xml:space="preserve">
<path fill="#302C3B" d="M32,2C23.117,2,15.139,5.864,9.646,12h44.709C48.861,5.864,40.885,2,32,2z"/>
<path fill="#FFE12C" d="M54.355,12H9.646c-2.584,2.886-4.615,6.273-5.932,10h56.572C58.969,18.273,56.939,14.886,54.355,12z"/>
<path fill="#E81C27" d="M60.287,22H3.715C2.607,25.129,2,28.492,2,32h60C62,28.492,61.393,25.129,60.287,22z"/>
<path fill="#302C3B" d="M62,32H2c0,3.508,0.607,6.871,1.715,10h56.572C61.393,38.871,62,35.508,62,32z"/>
<path fill="#FFE12C" d="M60.287,42H3.715c1.316,3.727,3.348,7.113,5.932,10h44.709C56.939,49.113,58.969,45.727,60.287,42z"/>
<path fill="#E81C27" d="M54.355,52H9.646C15.139,58.135,23.117,62,32,62C40.885,62,48.861,58.135,54.355,52z"/>
<circle fill="#F5F5F5" cx="32" cy="32" r="10"/>
<circle fill="#302C3B" cx="31" cy="26" r="2"/>
<polygon fill="#302C3B" points="31.5,35 32,41 32.5,41 32.5,35 "/>
<polygon fill="#302C3B" points="31,40.5 31,41 33,41 33,40 "/>
<path fill="#302C3B" d="M34.93,37.246c-1.064-1.672-2.131-3.342-3.195-5.013c-0.348-0.543-1.215-0.04-0.865,0.507
	c0.904,1.418,1.809,2.84,2.715,4.26c-1.367,0-2.217,0-3.584,0v0.5c1.672,0,2.826,0.5,4.496,0.5C34.865,38,35.137,37.57,34.93,37.246
	z"/>
<path fill="#302C3B" d="M33.928,32.098C32.793,31.68,30.568,31.217,32,27h-1.822c0,0-4.377,8.727,3.75,8.727
	c1.799,0,2.58,1.455,2.58,3.273C36.508,39,38.674,33.844,33.928,32.098z"/>
<polygon fill="#302C3B" points="29.5,36.5 30,38.5 30.5,38.5 30.5,36.5 "/>
<polygon fill="#302C3B" points="31,25 27,27 31,27 "/>
<path fill="#E81C27" d="M35,32.617v3.326c0,0,1.594,0.65,0.938,3.057L37,39.531C37,39.531,38.844,34.734,35,32.617z"/>
<path fill="#BCBCBC" d="M31.5,32c0,0,0,2.584,2.543,2.584C34.043,34.584,35,32,31.5,32z"/>
<ellipse fill="#BCBCBC" cx="30.36" cy="31.74" rx="0.86" ry="1.552"/>
<path opacity="0.1" fill="#1A1626" d="M50.736,8.591c4.098,5.13,6.563,11.622,6.563,18.701c0,16.567-13.428,30.003-29.994,30.003
	c-7.1,0-13.609-2.479-18.744-6.594C14.055,57.58,22.502,62,32.004,62c16.564,0,29.994-13.432,29.994-30
	C61.998,22.527,57.596,14.09,50.736,8.591z"/>
<path opacity="0.3" fill-rule="evenodd" clip-rule="evenodd" fill="#FFFFFF" d="M9.734,19.015c0.549,3.865,7.768-3.7,15.08-10.202
	C29.531,4.63,8.084,7.385,9.734,19.015z"/>
</svg>
