<?xml version="1.0" encoding="utf-8"?>
<!-- Generator: Adobe Illustrator 15.0.0, SVG Export Plug-In . SVG Version: 6.00 Build 0)  -->
<!DOCTYPE svg PUBLIC "-//W3C//DTD SVG 1.1//EN" "http://www.w3.org/Graphics/SVG/1.1/DTD/svg11.dtd">
<svg version="1.1" id="Layer_1" xmlns="http://www.w3.org/2000/svg" xmlns:xlink="http://www.w3.org/1999/xlink" x="0px" y="0px"
	 width="64px" height="64px" viewBox="0 0 64 64" enable-background="new 0 0 64 64" xml:space="preserve">
<path fill="#014D87" d="M16.997,6.02C6.343,12.169,0.899,23.864,2.186,35.353L49.812,7.863C40.502,1.005,27.651-0.129,16.997,6.02z
	 M25.548,17.445l-3.183-0.912l0.908,3.183l-2.299-2.379l-0.805,3.21l-0.804-3.21l-2.303,2.379l0.909-3.183l-3.182,0.91l2.378-2.302
	l-3.212-0.801l3.212-0.806l-2.379-2.302l3.183,0.91L17.062,8.96l2.302,2.379l0.804-3.212l0.805,3.212l2.302-2.379l-0.91,3.183
	l3.181-0.91l-2.377,2.3l3.211,0.802l-3.211,0.805L25.548,17.445z"/>
<path fill="#529320" d="M14.188,56.137c9.31,6.859,22.162,7.992,32.815,1.843c10.652-6.149,16.099-17.844,14.812-29.333
	L14.188,56.137z"/>
<path fill="#E81C27" d="M57.986,17c-1.388-2.402-3.067-4.524-4.952-6.377l-50.069,28.9c0.663,2.56,1.661,5.077,3.049,7.477
	c1.387,2.402,3.065,4.524,4.952,6.378l50.069-28.899C60.373,21.917,59.373,19.402,57.986,17z"/>
<path fill="#F5F5F5" d="M61.502,26.516c-0.127-0.682-0.291-1.361-0.467-2.039L10.966,53.377c0.499,0.492,1.005,0.975,1.533,1.426
	c0.548,0.469,1.112,0.91,1.688,1.334l47.627-27.49C61.734,27.936,61.635,27.225,61.502,26.516z"/>
<path fill="#F5F5F5" d="M51.501,9.197c-0.547-0.468-1.113-0.91-1.689-1.333L2.186,35.353c0.08,0.711,0.18,1.422,0.312,2.131
	c0.127,0.684,0.292,1.361,0.468,2.039l50.069-28.9C52.534,10.13,52.03,9.648,51.501,9.197z"/>
<polygon fill="#FFE12C" points="23.169,13.534 25.546,11.234 22.365,12.144 23.274,8.96 20.972,11.339 20.167,8.127 19.364,11.339 
	17.062,8.96 17.971,12.142 14.788,11.232 17.167,13.534 13.955,14.34 17.167,15.141 14.789,17.443 17.971,16.534 17.062,19.717 
	19.365,17.338 20.168,20.548 20.973,17.338 23.272,19.717 22.365,16.534 25.548,17.445 23.169,15.141 26.38,14.336 "/>
<path opacity="0.1" fill="#1A1626" d="M50.739,8.596c4.096,5.128,6.563,11.619,6.563,18.698c0,16.566-13.43,29.997-29.998,29.997
	c-7.099,0-13.609-2.476-18.745-6.592c5.495,6.877,13.944,11.297,23.444,11.297C48.571,61.995,62,48.565,62,32
	C62,22.528,57.597,14.093,50.739,8.596z"/>
<path opacity="0.3" fill-rule="evenodd" clip-rule="evenodd" fill="#FFFFFF" d="M9.733,19.018
	c0.549,3.864,7.768-3.701,15.081-10.202C29.531,4.635,8.083,7.389,9.733,19.018z"/>
</svg>
