<?xml version="1.0" encoding="utf-8"?>
<!-- Generator: Adobe Illustrator 15.0.0, SVG Export Plug-In . SVG Version: 6.00 Build 0)  -->
<!DOCTYPE svg PUBLIC "-//W3C//DTD SVG 1.1//EN" "http://www.w3.org/Graphics/SVG/1.1/DTD/svg11.dtd">
<svg version="1.1" id="Layer_1" xmlns="http://www.w3.org/2000/svg" xmlns:xlink="http://www.w3.org/1999/xlink" x="0px" y="0px"
	 width="64px" height="64px" viewBox="0 0 64 64" enable-background="new 0 0 64 64" xml:space="preserve">
<path fill="#014D87" d="M32,2v30H2c0,16.568,13.432,30,30,30s30-13.432,30-30S48.568,2,32,2z"/>
<g>
	<rect x="12" y="12" fill="#014D87" width="21" height="21"/>
</g>
<g>
	<polygon fill="#F5F5F5" points="18.912,8.139 18.912,14 11.6,14 26,32 32,32 32,24.5 	"/>
</g>
<g>
	<path fill="#F5F5F5" d="M11,18.912H5.012C3.088,22.869,2,27.305,2,32h12V13.912h-3V18.912z"/>
</g>
<g>
	<polygon fill="#E81C27" points="32,27.059 19,11 13,11 30,32 32,32 	"/>
</g>
<g>
	<path fill="#F5F5F5" d="M18.912,5.012V11H11v3h21V2C27.307,2,22.869,3.088,18.912,5.012z"/>
</g>
<g>
	<path fill="#E81C27" d="M32,5H18.912C12.857,7.939,7.941,12.857,5,18.912V32h6V11h21V5z"/>
</g>
<g>
	<path fill="#D8A322" d="M34.541,33.848l-0.002,0.008L34.541,33.848z"/>
</g>
<g>
	<path fill="#D8A322" d="M34.537,33.861L34.5,33.939L34.537,33.861z"/>
</g>
<g>
	<path fill="#D8A322" d="M34.539,33.855l-0.002,0.006L34.539,33.855z"/>
</g>
<path fill="#F5F5F5" d="M57.979,26.492v9.268c0,7.611-2.99,14.576-11.857,18.811c-8.867-4.234-11.855-11.199-11.855-18.811v-9.268
	h23.711H57.979z"/>
<path fill="#FFE12C" d="M57.18,27.438v8.645c0,7.098-2.789,13.596-11.059,17.543C37.85,49.678,35.063,43.18,35.063,36.082v-8.645
	H57.18L57.18,27.438z"/>
<g>
	<path fill="#FF9E3D" d="M40.973,31.225c-0.48-0.359-0.408,0.021-0.615-0.58c-0.154-0.443-0.553-0.457-0.885-0.682
		c-0.176-0.117-1.172-1.549-1.465-1.387c-0.26,0.141-0.373,0.969-0.441,1.146c-0.24,0.637,0.139,0.482,0.244,0.889
		c-0.35,0,0.061,0.414,0.201,0.441c-0.121,0.115-0.107,0.219,0.039,0.307c-0.598,0-1.098,0.596-1.48,0.92
		c0.318,0.039,0.428-0.158,0.715-0.176c0.281-0.018,0.473,0.264,0.779,0.203c-0.238,0.162-0.502,0.414-0.535,0.721
		c-0.066,0.639-0.76,0.631-0.959,1.174c0.371,0.916,1.344,0.99,2.053,1.539c0.564,0.438,1.023,0.766,1.395,1.406
		c0.41,0.709,1.295,1.748,1.98,0.563c0.426-0.732,0.223-2.168,0.172-2.961C42.105,33.711,42.02,31.818,40.973,31.225
		C40.813,31.105,40.973,31.225,40.973,31.225z"/>
</g>
<g>
	<path fill="#FF927F" d="M41.652,29.09c-0.795,0.854-0.691,1.367-0.723,2.459c-0.031,1.102-0.883,1.221-1.164,2.129
		c-0.318,1.029,1.025,1.576,1.25,2.527c0.105,0.449,0.113,0.967,0.391,1.359c0.24,0.338,1.068,0.182,1.367-0.025
		c0.332-0.23,0.139-0.664,0.275-0.98c0.154-0.354,0.656-0.318,0.883-0.625c0.514-0.686,0.467-1.969,0.082-2.693
		c-0.227-0.422,0.082-0.898-0.361-1.215c-0.361-0.26-0.178-0.682-0.559-0.986C42.426,30.504,42.662,29.484,41.652,29.09
		C41.279,29.49,41.652,29.09,41.652,29.09z"/>
</g>
<g>
	<path fill="#FF9EE1" d="M41.799,37.803c0.895-0.227,0.814-1.695,0.68-2.309c-0.133-0.613-0.475-1.492-0.213-2.188
		c0.373-0.986-0.455-1.922-0.24-2.295c0.213-0.373,0.186-0.574,0.16-0.693s-0.227-0.213-0.24,0.039
		c-0.014,0.254-0.08,0.348-0.24,0.508s-0.121,0.506,0,0.895c0.119,0.387,0.373,0.973-0.027,1.746
		c-0.398,0.775-0.234,1.119-0.078,1.482C41.838,35.549,42.412,37.496,41.799,37.803L41.799,37.803z"/>
</g>
<g>
	<path fill="#FF9E3D" d="M37.797,29.438c0.1,0,0.293-0.039,0.293,0.094"/>
</g>
<g>
	<path fill="#FF9E3D" d="M37.598,30.078c0.119-0.086,0.332,0.014,0.547-0.113"/>
</g>
<g>
	<path fill="#FF9E3D" d="M37.811,30.611c0.158,0,0.373-0.006,0.572-0.166"/>
</g>
<g>
	<path fill="#FF9E3D" d="M38.012,31.053c0.146,0,0.418-0.094,0.486-0.287"/>
</g>
<g>
	<path fill="#FF9E3D" d="M38.051,31.359c0.287-0.014,0.668,0.094,0.719-0.008"/>
</g>
<g>
	<path fill="#FF9E3D" d="M38.064,32.307c0.199-0.188,0.674-0.314,0.779-0.508"/>
</g>
<g>
	<path fill="#FF9E3D" d="M38.57,29.332c0.332,0.105,0.195,0.313,0.361,0.439c0.293,0.227,0.025,0.48,0.266,0.547
		s0.236,0.107,0.174,0.373c-0.074,0.314,0.227,0.328,0.121,0.533"/>
</g>
<g>
	<path fill="#FF9E3D" d="M40.398,31.025c-0.133,0-0.527,0.014-0.695,0.367"/>
</g>
<g>
	<path fill="#FF9E3D" d="M37.551,34.875c0.152,0.025,0.23-0.061,0.271-0.148c0.047-0.092,0.068-0.16,0.207-0.166
		c0.141-0.006,0.354-0.047,0.4-0.152c0.047-0.107,0.215-0.008,0.354-0.287c0.141-0.281,0.234-0.615,0.607-0.734"/>
</g>
<g>
	<g>
		<path fill="#529320" d="M48.133,40.703c0.15,0.221-0.006,0.457,0.25,0.551c0.301,0.111,0.039,0.508,0.393,0.646
			c0.314,0.123,0.004,0.5,0.342,0.67c0.303,0.152-0.051,0.506,0.354,0.709c0.404,0.201-0.074,0.658,0.229,0.834
			c0.303,0.178-0.102,0.633,0.254,0.811c0.354,0.176-0.152,0.531,0.176,0.783c0.328,0.254-0.076,0.633,0.252,0.861
			c0.33,0.227-0.201,0.529,0.129,0.859c0.252,0.252-0.094,0.5,0.1,0.885c0.127,0.252-0.127,1.264-0.836,1.162
			c-0.252,0.432-1.238,0.811-1.592,0.686c-0.355,0.252-1.492,0.605-2.074,0.051c-0.58,0.555-1.721,0.201-2.074-0.051
			c-0.354,0.125-1.34-0.254-1.592-0.686c-0.709,0.102-0.963-0.91-0.836-1.162c0.191-0.385-0.152-0.633,0.102-0.885
			c0.328-0.33-0.203-0.633,0.127-0.859c0.328-0.229-0.076-0.607,0.252-0.861c0.328-0.252-0.178-0.607,0.176-0.783
			c0.355-0.178-0.049-0.633,0.254-0.811c0.305-0.176-0.176-0.633,0.229-0.834c0.404-0.203,0.051-0.557,0.354-0.709
			c0.34-0.17,0.027-0.547,0.342-0.67c0.354-0.139,0.092-0.535,0.391-0.646c0.262-0.096,0.096-0.338,0.26-0.561
			C44.842,40.99,47.174,41.201,48.133,40.703L48.133,40.703z"/>
	</g>
</g>
<g>
	<path fill="#E81C27" d="M48.156,40.539c-0.041-0.049-0.098-0.068-0.162-0.074c-0.055-2.43-0.496-3.307-1.887-3.307
		s-1.832,0.877-1.887,3.307c-0.064,0.006-0.123,0.025-0.162,0.074c-0.18,0.227-0.15,0.402,0.367,0.605
		c0.436,0.17,1.088,0.275,1.682,0.275s1.246-0.105,1.682-0.275C48.309,40.941,48.336,40.766,48.156,40.539z"/>
</g>
<path fill="#B95A1E" d="M54.641,33.377l0.029-0.707l2.24-0.227l-2.23-0.152l0.006-0.252l-0.066-0.646l2.186-0.414l-2.266,0.084
	l-0.303-0.574l1.617-1.262l-1.879,0.967l-0.836-0.416l-0.76-1.221l0.135-0.424l-0.768,1.752l0.023,0.563l-0.164,0.578l-0.141-0.58
	l0.023-0.561l-0.766-1.752l0.135,0.424l-0.76,1.221l-0.836,0.416l-1.879-0.967L49,30.488l-0.303,0.574l-2.266-0.084l2.186,0.414
	l-0.064,0.646l0.004,0.252l-2.23,0.152l2.242,0.227l0.027,0.707l-2.012,0.818l2.025-0.492l0.197,4.264l-0.51,2.828l0.766-2.561
	l-0.121-4.527h0.02l1.098,0.281l0.154,0.477l0.098,0.604l0.156,0.531l0.027,0.063l-0.027,0.014l0.109,0.631l0.146,0.582l0.004,0.008
	l0.098,0.531l0.197,0.164l-0.924,0.928l-0.135,0.734l0.561-0.217l0.125,0.668l0.338-0.146l0.24,0.303l0.391-0.787l0.391,0.787
	l0.242-0.303l0.338,0.146l0.125-0.666l0.561,0.215l-0.135-0.734l-0.924-0.928l0.197-0.164l0.098-0.533l0.004-0.006l0.146-0.582
	l0.107-0.631l-0.025-0.014l0.025-0.063l0.158-0.529l0.098-0.605l0.154-0.477l1.098-0.281h0.02l-0.121,4.527l0.766,2.561
	l-0.512-2.828l0.199-4.264l2.025,0.492L54.641,33.377L54.641,33.377z M51.127,30.924l-0.699-0.752l0.732,0.539L51.127,30.924
	L51.127,30.924z M50.9,31.223l-0.104,0.064L49.6,30.404l0.553-0.23L50.9,31.223L50.9,31.223z M50.879,28.605l0.355,1.279
	l-0.008,0.209l-0.863-0.34L50.879,28.605L50.879,28.605z M49.318,30.707l1.156,0.887l-0.123,0.172l-1.066-0.518l-0.201-0.068
	L49.318,30.707L49.318,30.707z M48.936,32.039l0.059-0.51l1.238,0.609l-0.02,0.305l-0.094,0.283l-0.842-0.283l-0.35-0.086
	L48.936,32.039L48.936,32.039z M48.934,33.385l-0.008-0.641l1.16,0.357v0.016l-0.037,0.467l-0.994-0.197L48.934,33.385
	L48.934,33.385z M52.439,31.287l-0.104-0.064l0.75-1.049l0.551,0.23L52.439,31.287L52.439,31.287z M52.109,30.924l-0.033-0.213
	l0.732-0.539L52.109,30.924L52.109,30.924z M52.885,31.766L52.885,31.766l-0.123-0.172l1.156-0.885l0.234,0.471l-0.201,0.068
	L52.885,31.766L52.885,31.766z M52.357,28.605l0.516,1.148l-0.863,0.34l-0.008-0.209L52.357,28.605L52.357,28.605z M53.004,32.139
	l1.238-0.609l0.059,0.51l0.008,0.318l-0.35,0.086l-0.842,0.283l-0.094-0.283L53.004,32.139L53.004,32.139z M54.18,33.387
	l-0.992,0.197l-0.037-0.467V33.1l1.16-0.355l-0.008,0.641L54.18,33.387L54.18,33.387z"/>
<path opacity="0.1" fill="#1A1626" d="M50.736,8.591c4.096,5.13,6.563,11.622,6.563,18.701c0,16.568-13.428,30.003-29.994,30.003
	c-7.102,0-13.609-2.478-18.744-6.594C14.055,57.58,22.502,62,32.002,62c16.566,0,29.996-13.432,29.996-30
	C61.998,22.527,57.594,14.09,50.736,8.591z"/>
<path opacity="0.3" fill-rule="evenodd" clip-rule="evenodd" fill="#FFFFFF" d="M9.734,19.015c0.549,3.865,7.766-3.7,15.08-10.202
	C29.531,4.63,8.082,7.385,9.734,19.015z"/>
</svg>
