<?xml version="1.0" encoding="utf-8"?>
<!-- Generator: Adobe Illustrator 15.0.0, SVG Export Plug-In . SVG Version: 6.00 Build 0)  -->
<!DOCTYPE svg PUBLIC "-//W3C//DTD SVG 1.1//EN" "http://www.w3.org/Graphics/SVG/1.1/DTD/svg11.dtd">
<svg version="1.1" id="Layer_1" xmlns="http://www.w3.org/2000/svg" xmlns:xlink="http://www.w3.org/1999/xlink" x="0px" y="0px"
	 width="64px" height="64px" viewBox="0 0 64 64" enable-background="new 0 0 64 64" xml:space="preserve">
<path fill="#E81C27" d="M38,2.602V32H2c0,16.57,13.432,30,30,30c16.566,0,30-13.43,30-30C62,17.484,51.691,5.381,38,2.602z"/>
<path fill="#F5F5F5" d="M38,2.602c-0.33-0.067-0.666-0.123-1-0.179V31H25.332V2.753c-4.316,0.979-8.277,2.889-11.666,5.509V31H2.025
	C2.014,31.333,2,31.664,2,32h36V2.602z"/>
<path fill="#014D87" d="M2.025,31h11.641V8.262C6.818,13.558,2.328,21.746,2.025,31z"/>
<path fill="#E81C27" d="M25.332,31H37V2.423C35.373,2.149,33.703,2,32,2c-2.293,0-4.521,0.266-6.668,0.753V31z"/>
<polygon fill="#FFFFFF" points="48,36 54,30 42,30 "/>
<polygon fill="#FFFFFF" points="50,38 56,44 56,32 "/>
<polygon fill="#FFFFFF" points="48,40 42,46 54,46 "/>
<polygon fill="#FFFFFF" points="46,38 40,32 40,44 "/>
<path opacity="0.1" fill="#1A1626" d="M50.737,8.592c4.096,5.129,6.563,11.621,6.563,18.701c0,16.568-13.428,30.002-29.994,30.002
	c-7.101,0-13.609-2.477-18.744-6.594C14.056,57.58,22.503,62,32.003,62c16.566,0,29.996-13.432,29.996-30
	C61.999,22.527,57.595,14.09,50.737,8.592z"/>
<path opacity="0.5" fill-rule="evenodd" clip-rule="evenodd" fill="#FFFFFF" d="M9.735,19.016c0.549,3.865,7.767-3.701,15.08-10.203
	C29.532,4.631,8.084,7.385,9.735,19.016z"/>
</svg>
