<?xml version="1.0" encoding="utf-8"?>
<!-- Generator: Adobe Illustrator 15.0.0, SVG Export Plug-In . SVG Version: 6.00 Build 0)  -->
<!DOCTYPE svg PUBLIC "-//W3C//DTD SVG 1.1//EN" "http://www.w3.org/Graphics/SVG/1.1/DTD/svg11.dtd">
<svg version="1.1" id="Layer_1" xmlns="http://www.w3.org/2000/svg" xmlns:xlink="http://www.w3.org/1999/xlink" x="0px" y="0px"
	 width="64px" height="64px" viewBox="0 0 64 64" enable-background="new 0 0 64 64" xml:space="preserve">
<path fill="#F5F5F5" d="M62,32C62,15.431,48.568,2,32,2v60C48.568,62,62,48.568,62,32z"/>
<path fill="#FFE12C" d="M2,32c0,16.569,13.432,30,30,30V2C15.432,2,2,15.431,2,32z"/>
<g>
	<g>
		<g>
			<path fill="#F5F5F5" d="M49,21.328c0,2.943,0,3.807-3,3.807s-3-0.863-3-3.807C43,18.386,44.343,16,46,16
				C47.656,16,49,18.386,49,21.328z"/>
		</g>
	</g>
	<g>
		<g>
			<polygon fill="#FFE12C" points="47.5,17.791 46,16.583 44.5,17.791 43,16.583 43.539,19 48.461,19 49,16.583 			"/>
		</g>
	</g>
	<g>
		<g>
			<polygon fill="#FFE12C" points="47.5,20.609 46,19.218 44.5,20.609 43,19.218 43,22 49,22 49,19.218 			"/>
		</g>
	</g>
	<g>
		<g>
			<polygon fill="#FFE12C" points="47.5,23.5 46,22 44.5,23.5 43,22 43,25 49,25 49,22 			"/>
		</g>
	</g>
	<g>
		<g>
			<ellipse fill="#FFE12C" cx="46" cy="15.125" rx="0.5" ry="1.459"/>
		</g>
	</g>
	<g>
		<g>
			<ellipse fill="#F5F5F5" cx="46" cy="25" rx="3" ry="0.682"/>
		</g>
	</g>
</g>
<g>
	<g>
		<g>
			<path fill="#E6EBEF" d="M41.925,32.599c-1.404,0-2.462-2.064-2.616-2.773c-0.209-0.963,0.281-2.012,0.801-3.123
				c0.255-0.547,0.729-1.563,0.659-1.861c-0.121-0.352-1.224-1.463-2.31-2.32l1.238-1.57c0.815,0.643,2.741,2.264,3.017,3.43
				c0.231,0.975-0.266,2.041-0.793,3.168c-0.271,0.58-0.724,1.549-0.657,1.854c0.056,0.258,0.419,0.848,0.687,1.113
				c0.511-0.545,1.294-2.92,1.674-5.26l1.975,0.32c-0.402,2.479-1.386,6.682-3.449,7.006C42.073,32.593,41.999,32.599,41.925,32.599
				z"/>
		</g>
	</g>
	<g>
		<g>
			<path fill="#E6EBEF" d="M50.075,32.599c-0.074,0-0.149-0.006-0.225-0.018c-2.063-0.324-3.047-4.527-3.449-7.006l1.975-0.32
				c0.375,2.305,1.141,4.643,1.689,5.244c0.266-0.273,0.616-0.846,0.671-1.098c0.066-0.305-0.387-1.273-0.657-1.854
				c-0.527-1.127-1.024-2.193-0.793-3.168c0.275-1.166,2.201-2.787,3.017-3.43l1.238,1.57c-1.105,0.873-2.187,1.963-2.313,2.334
				c-0.066,0.285,0.407,1.301,0.662,1.848c0.52,1.111,1.01,2.16,0.801,3.123C52.537,30.535,51.479,32.599,50.075,32.599z"/>
		</g>
	</g>
</g>
<g>
	<path fill="#FFE12C" d="M41.525,36.572c-1.407-0.9-3.242-0.707-4.451,0.607c-1.432,1.559-1.432,4.09,0,5.648
		c1.434,1.561,3.757,1.561,5.192,0c1.208-1.313,1.385-3.311,0.557-4.844l9.582-10.163l1.297,1.412L55,27.824L52.405,25
		L41.525,36.572z"/>
</g>
<g>
	<path fill="#F5F5F5" d="M40.256,39.414c0.324-0.324,0.324-0.848,0-1.172s-0.848-0.324-1.173,0c-0.321,0.324-0.321,0.848,0,1.172
		c-0.321-0.324-0.847-0.324-1.17,0c-0.324,0.322-0.324,0.848,0,1.172c0.323,0.322,0.849,0.322,1.17,0
		c-0.321,0.322-0.321,0.846,0,1.17c0.325,0.324,0.849,0.324,1.173,0s0.324-0.848,0-1.17c0.324,0.322,0.848,0.322,1.172,0
		c0.323-0.324,0.323-0.85,0-1.172C41.104,39.09,40.58,39.09,40.256,39.414z"/>
</g>
<g>
	<path fill="#BCBCBC" d="M50.475,36.572c1.407-0.9,3.242-0.707,4.451,0.607c1.432,1.559,1.432,4.09,0,5.648
		c-1.434,1.561-3.757,1.561-5.192,0c-1.208-1.313-1.385-3.311-0.557-4.844l-9.582-10.163l-1.297,1.412L37,27.824L39.595,25
		L50.475,36.572z"/>
</g>
<g>
	<path fill="#F5F5F5" d="M51.744,39.418c-0.324-0.322-0.324-0.848,0-1.17c0.324-0.324,0.848-0.324,1.173,0
		c0.321,0.322,0.321,0.848,0,1.17c0.321-0.322,0.847-0.322,1.17,0c0.324,0.324,0.324,0.848,0,1.172c-0.323,0.324-0.849,0.324-1.17,0
		c0.321,0.324,0.321,0.848,0,1.172c-0.325,0.324-0.849,0.324-1.173,0s-0.324-0.848,0-1.172c-0.324,0.324-0.848,0.324-1.172,0
		c-0.323-0.324-0.323-0.848,0-1.172C50.896,39.096,51.42,39.096,51.744,39.418z"/>
</g>
<g>
	<g>
		<path fill="#E81C27" d="M50.413,39.758c-2.919,0.43-5.907,0.428-8.826,0c-0.59-0.086-0.841,0.564-0.249,0.652
			c3.088,0.451,6.236,0.453,9.324,0C51.254,40.322,51.003,39.672,50.413,39.758L50.413,39.758z"/>
	</g>
</g>
<g>
	<g>
		<g>
			<path fill="#E81C27" d="M50.301,39.229c-1.784-1.326-3.376-2.92-4.704-4.705c-0.269-0.359-0.75-0.146-0.481,0.215
				c1.406,1.887,3.083,3.566,4.971,4.971C50.449,39.979,50.661,39.498,50.301,39.229L50.301,39.229z"/>
		</g>
	</g>
	<g>
		<g>
			<path fill="#E81C27" d="M46.403,34.523c-1.326,1.785-2.92,3.377-4.705,4.705c-0.359,0.268-0.146,0.75,0.215,0.48
				c1.887-1.406,3.566-3.082,4.971-4.971C47.153,34.375,46.673,34.164,46.403,34.523L46.403,34.523z"/>
		</g>
	</g>
</g>
<g>
	<rect x="45.5" y="31" fill="#E81C27" width="1" height="13"/>
</g>
<g>
	<g>
		
			<rect x="44.5" y="32.569" transform="matrix(-0.7071 0.7071 -0.7071 -0.7071 101.036 26.6432)" fill="#E81C27" width="1" height="3.356"/>
	</g>
	<g>
		
			<rect x="46.5" y="32.569" transform="matrix(0.7069 0.7074 -0.7074 0.7069 38.0022 -23.2064)" fill="#E81C27" width="1" height="3.356"/>
	</g>
</g>
<g>
	<path fill="#E81C27" d="M45.54,42.713c-0.552,0-1,0.447-1,1v3h2v-3C46.54,43.16,46.092,42.713,45.54,42.713z"/>
</g>
<g>
	<path fill="#E81C27" d="M46.54,41.777c-0.552,0-1,0.447-1,1v3h2v-3C47.54,42.225,47.092,41.777,46.54,41.777z"/>
</g>
<g>
	<g>
		<g>
			<circle fill="#BCBCBC" cx="42.554" cy="37.115" r="1.21"/>
		</g>
		<g>
			<circle fill="#BCBCBC" cx="36.785" cy="42.884" r="1.211"/>
		</g>
	</g>
	<g>
		<g>
			<circle fill="#BCBCBC" cx="36.786" cy="37.115" r="1.21"/>
		</g>
		<g>
			<circle fill="#BCBCBC" cx="42.554" cy="42.884" r="1.211"/>
		</g>
	</g>
</g>
<g>
	<g>
		<g>
			<circle fill="#FFE12C" cx="55.213" cy="37.121" r="1.21"/>
		</g>
		<g>
			<circle fill="#FFE12C" cx="49.444" cy="42.89" r="1.211"/>
		</g>
	</g>
	<g>
		<g>
			<circle fill="#FFE12C" cx="49.445" cy="37.121" r="1.21"/>
		</g>
		<g>
			<circle fill="#FFE12C" cx="55.213" cy="42.89" r="1.211"/>
		</g>
	</g>
</g>
<g>
	<rect x="38.141" y="20.929" fill="#FFE12C" width="1.969" height="2.182"/>
</g>
<g>
	<rect x="51.891" y="20.929" fill="#FFE12C" width="1.969" height="2.182"/>
</g>
<g>
	<g>
		
			<rect x="43.85" y="26.442" transform="matrix(0.9649 0.2626 -0.2626 0.9649 8.7922 -10.6273)" fill="#FFE12C" width="0.617" height="2.281"/>
	</g>
	<g>
		
			<rect x="43.45" y="26.989" transform="matrix(0.9642 0.2652 -0.2652 0.9642 8.8223 -10.7553)" fill="#FFE12C" width="1.576" height="0.606"/>
	</g>
</g>
<g>
	<g>
		
			<rect x="47.533" y="26.442" transform="matrix(-0.9649 0.2626 -0.2626 -0.9649 101.2475 41.6348)" fill="#FFE12C" width="0.617" height="2.281"/>
	</g>
	<g>
		
			<rect x="46.974" y="26.989" transform="matrix(-0.9642 0.2652 -0.2652 -0.9642 101.0512 40.9386)" fill="#FFE12C" width="1.576" height="0.606"/>
	</g>
</g>
<g>
	<polygon fill="#F5F5F5" points="52.503,28.099 50.782,29.556 49.653,26.521 51.423,25.605 	"/>
</g>
<g>
	<polygon fill="#F5F5F5" points="39.497,28.099 41.218,29.556 42.347,26.521 40.577,25.605 	"/>
</g>
<g>
	<polygon fill="#FFE12C" points="41.501,26.455 40.936,26.291 40.801,26.808 40.363,26.681 40.211,27.263 40.649,27.39 
		40.363,28.49 40.928,28.654 41.214,27.554 41.652,27.681 41.805,27.099 41.366,26.972 	"/>
</g>
<g>
	<polygon fill="#FFE12C" points="51.789,27.263 51.637,26.681 51.199,26.808 51.064,26.291 50.499,26.455 50.634,26.972 
		50.195,27.099 50.348,27.681 50.786,27.554 51.072,28.654 51.637,28.49 51.351,27.39 	"/>
</g>
<path opacity="0.05" fill="#1A1626" d="M50.738,8.591c4.097,5.129,6.563,11.621,6.563,18.701c0,16.569-13.429,30.002-29.995,30.002
	c-7.1,0-13.609-2.477-18.744-6.594C14.056,57.58,22.504,62,32.005,62c16.565,0,29.994-13.432,29.994-30
	C61.999,22.527,57.597,14.089,50.738,8.591z"/>
<path opacity="0.3" fill-rule="evenodd" clip-rule="evenodd" fill="#FFFFFF" d="M9.735,19.015c0.549,3.865,7.768-3.701,15.08-10.203
	C29.532,4.63,8.085,7.384,9.735,19.015z"/>
</svg>
