<?xml version="1.0" encoding="utf-8"?>
<!-- Generator: Adobe Illustrator 15.0.0, SVG Export Plug-In . SVG Version: 6.00 Build 0)  -->
<!DOCTYPE svg PUBLIC "-//W3C//DTD SVG 1.1//EN" "http://www.w3.org/Graphics/SVG/1.1/DTD/svg11.dtd">
<svg version="1.1" id="Layer_1" xmlns="http://www.w3.org/2000/svg" xmlns:xlink="http://www.w3.org/1999/xlink" x="0px" y="0px"
	 width="64px" height="64px" viewBox="0 0 64 64" enable-background="new 0 0 64 64" xml:space="preserve">
<path fill="#302C3B" d="M32,62c9.814,0,18.527-4.713,24-11.998L7.998,14C4.232,19.014,2,25.246,2,32C2,48.57,15.432,62,32,62z"/>
<path fill="#E81C27" d="M62,32C62,15.432,48.568,2,32,2C22.186,2,13.473,6.715,7.998,14L56,50.002C59.768,44.988,62,38.756,62,32z"
	/>
<path fill="#FFE12C" d="M53.027,29.711c-0.213-2.785-1.141-3.184-1.281-3.607c-0.145-0.43,0.229,0.113,0.543,0.229
	s-0.057-0.602-0.143-0.916s0.943,0.658,1.201,0.744s-0.602-2.346-0.857-2.518c-0.258-0.172,0.256,0.057,0.428,0.113
	c0.172,0.059-1.572-2.66-1.945-2.66c-0.371,0,0.314-0.143,0.516-0.143c0.199,0-2.004-1.775-2.375-1.775
	c-0.373,0,0.801-0.457,0.916-0.486c0.199,0.029-2.547-1.459-5.008,0.029c-0.143-0.115,1.158-1.016,1.201-1.402
	c0.016-0.1-0.428-0.314-0.457-0.43c-0.029-0.113,0.686-0.457,0.715-0.715c-0.172-0.229-0.486-0.143-0.658-0.199
	c-0.043-0.215,0.602-0.744,0.545-0.973c-0.043-0.129-0.516-0.172-0.631-0.086c-0.113,0.086,0.301-0.602,0.229-0.803
	c-0.057-0.084-0.285-0.027-0.514,0.029c-0.145-0.029,0.744-1.26,0.572-1.43c-0.172-0.172-2.576,1.258-3.463,2.861
	c-0.887,1.602-0.199,2.889-0.314,3.432c-0.115,0.545-0.258,1.088-0.629,1.088c-0.373,0-1.23-0.572-1.518-0.857
	c-0.285-0.287-0.344-0.486-0.744-0.602s-1.316,0.229-1.658,0.258c-0.344,0.029-1.689-0.258-1.775-0.172s1.316,0.602,1.631,0.773
	c0.316,0.17,0.344,0.4,0.572,0.543c0.23,0.143,2.375,0.771,1.689,1.66c-0.484,0.625-1.631-0.631-3.006-0.658
	c-1.373-0.029-2.346,1.314-2.746,1.773c-0.4,0.457-1.688,2.861-1.66,3.119c0.029,0.258,0.803-0.717,1.088-0.887
	c0.029,0.342-0.314,0.742-0.229,0.857s1.002-0.688,1.316-0.715c0.086,0.229-0.172,0.457-0.086,0.801
	c0.113,0.115,0.629-0.572,0.973-0.715c0.057,0.258-0.314,0.744-0.115,1.059c0.145,0.027,1.002-0.973,1.289-1.088
	c0.285-0.115-0.145,0.945,0,1.031c0.256-0.172,1.059-1.088,1.314-1.203c0.258-0.113-0.027,1.174,0.086,1.174
	c0.316-0.229,1.117-1.316,1.203-1.488s-0.086,1.66,0.801,2.633s2.232,2.088,2.375,2.088c0.172-0.314-0.057-0.973,0.086-0.943
	c0.4,0.43,1.145,1.059,1.316,1.059s-0.115-0.688,0.113-0.688c0.459,0.43,1.775,2.117,4.35,2.891
	c-0.172-0.486-0.543-0.916-0.572-1.145c0.172,0.029,0.773,0.314,0.887,0.285c0.115-0.027-1.258-1.717-1.172-1.945
	c0.314-0.027,0.457,0.172,0.572,0.029c-0.145-0.229-1.346-1.574-1.346-1.889s0.371,0.057,0.486,0s-0.457-1.26-0.344-1.402
	c0.115-0.143,1.373,0.773,1.689,0.773c0.121,0,0.162-0.168,0.174-0.379c0.852,0.697,2.521,2.027,3.664,3.721
	c-0.01,0.363-0.064,0.738-0.176,1.121c-0.859,2.09-2.576,3.205-5.094,2.289c0.143,0.229,1.488,1.346,2.947,0.943
	c1.23-0.336,2.682-1.203,2.99-3.178c0.326,0.715,0.529,1.473,0.529,2.264c0,3.775-3.377,3.662-4.35,3.547
	c1.088,0.916,5.207,0.744,5.207-3.547C54.377,32.053,53.813,30.822,53.027,29.711z M48.66,25.561
	c0.002-0.123,0.014-0.215,0.053-0.23c0.143-0.057,1.201,0.602,1.43,0.602s0.201-0.486,0.287-0.43
	c0.061,0.041,1.377,1.352,1.779,3.174C50.896,27.172,49.35,26.008,48.66,25.561z"/>
<polygon fill="#F5F5F5" points="19.371,41.24 18.992,40.008 18.609,41.24 17.395,41.24 18.379,41.984 18.014,43.156 18.979,42.439 
	19.971,43.189 19.598,41.979 20.59,41.24 "/>
<polygon fill="#F5F5F5" points="14.408,26.602 13.68,28.943 15.609,27.51 17.594,29.012 16.848,26.588 18.832,25.111 16.395,25.111 
	15.637,22.648 14.871,25.111 12.441,25.111 "/>
<polygon fill="#F5F5F5" points="8.877,34.721 8.121,32.258 7.355,34.721 4.924,34.721 6.893,36.209 6.164,38.553 8.092,37.119 
	10.076,38.621 9.332,36.197 11.316,34.721 "/>
<polygon fill="#F5F5F5" points="24.328,35.514 26.313,34.037 23.875,34.037 23.117,31.574 22.352,34.037 19.922,34.037 
	21.889,35.525 21.16,37.869 23.09,36.436 25.074,37.938 "/>
<polygon fill="#F5F5F5" points="16.395,47.703 15.637,45.24 14.871,47.703 12.441,47.703 14.408,49.191 13.68,51.535 15.609,50.102 
	17.594,51.604 16.848,49.18 18.832,47.703 "/>
<path opacity="0.1" fill="#1A1626" d="M50.736,8.592c4.096,5.129,6.563,11.621,6.563,18.701c0,16.568-13.43,30.002-29.994,30.002
	c-7.102,0-13.611-2.477-18.746-6.594C14.053,57.58,22.502,62,32.002,62c16.566,0,29.994-13.432,29.994-30
	C61.996,22.527,57.594,14.09,50.736,8.592z"/>
<path opacity="0.3" fill-rule="evenodd" clip-rule="evenodd" fill="#FFFFFF" d="M9.734,19.016c0.549,3.865,7.766-3.701,15.08-10.203
	C29.531,4.631,8.082,7.385,9.734,19.016z"/>
</svg>
