<?xml version="1.0" encoding="utf-8"?>
<!-- Generator: Adobe Illustrator 15.0.0, SVG Export Plug-In . SVG Version: 6.00 Build 0)  -->
<!DOCTYPE svg PUBLIC "-//W3C//DTD SVG 1.1//EN" "http://www.w3.org/Graphics/SVG/1.1/DTD/svg11.dtd">
<svg version="1.1" id="Layer_1" xmlns="http://www.w3.org/2000/svg" xmlns:xlink="http://www.w3.org/1999/xlink" x="0px" y="0px"
	 width="64px" height="64px" viewBox="0 0 64 64" enable-background="new 0 0 64 64" xml:space="preserve">
<path fill="#E81C27" d="M32,2c-5.266,0-10.213,1.361-14.516,3.746l0,0v52.51l0,0C21.787,60.639,26.734,62,32,62
	c16.568,0,30-13.432,30-30S48.568,2,32,2z"/>
<path fill="#A82C6D" d="M32,2c-5.266,0-10.213,1.361-14.516,3.746l0,0v52.51l0,0C21.787,60.639,26.734,62,32,62
	c16.568,0,30-13.432,30-30S48.568,2,32,2z"/>
<path fill="#F5F5F5" d="M2,32c0,11.303,6.252,21.141,15.484,26.256L28,56l-10-3l10-3l-10-3l10-3l-10-3l10-3l-10-3l10-3l-10-3l10-3
	l-10-3l10-3l-10-3l10-3l-10-3l10-3L17.484,5.746C8.252,10.861,2,20.699,2,32z"/>
<path opacity="0.1" fill="#1A1626" d="M50.738,8.592c4.096,5.129,6.563,11.621,6.563,18.701c0,16.568-13.43,30.002-29.996,30.002
	c-7.1,0-13.609-2.477-18.744-6.594C14.055,57.58,22.504,62,32.004,62c16.566,0,29.994-13.432,29.994-30
	C61.998,22.527,57.596,14.09,50.738,8.592z"/>
<path opacity="0.8" fill-rule="evenodd" clip-rule="evenodd" fill="#FFFFFF" d="M9.734,19.016c0.549,3.865,7.768-3.701,15.08-10.203
	C29.531,4.631,8.084,7.385,9.734,19.016z"/>
</svg>
