<?xml version="1.0" encoding="utf-8"?>
<!-- Generator: Adobe Illustrator 15.0.0, SVG Export Plug-In . SVG Version: 6.00 Build 0)  -->
<!DOCTYPE svg PUBLIC "-//W3C//DTD SVG 1.1//EN" "http://www.w3.org/Graphics/SVG/1.1/DTD/svg11.dtd">
<svg version="1.1" id="Layer_1" xmlns="http://www.w3.org/2000/svg" xmlns:xlink="http://www.w3.org/1999/xlink" x="0px" y="0px"
	 width="64px" height="64px" viewBox="0 0 64 64" enable-background="new 0 0 64 64" xml:space="preserve">
<path fill="#529320" d="M32,62c13.061,0,24.166-8.35,28.285-20H3.714C7.833,53.65,18.939,62,32,62z"/>
<path fill="#014D87" d="M32,2C18.939,2,7.833,10.35,3.714,22h56.571C56.166,10.35,45.061,2,32,2z"/>
<path fill="#E81C27" d="M60.285,42C61.393,38.871,62,35.508,62,32s-0.607-6.871-1.715-10H3.714C2.607,25.129,2,28.492,2,32
	s0.607,6.871,1.714,10H60.285z"/>
<circle fill="#FFE12C" cx="24" cy="32.001" r="17.7"/>
<path fill="#302C3B" d="M24,14c-9.926,0-18,8.074-18,18c0,9.928,8.074,18,18,18c9.928,0,18-8.072,18-18C42,22.074,33.928,14,24,14z
	 M6.602,32c0-9.474,7.61-17.203,17.039-17.396v3.857c-1.084,0.481-1.947,0.912-2.119,1.867c-0.022,0.126-0.052,1.445-0.083,1.77
	c0,0,0.185,0.023,0.626-0.334c0.192-0.157,0.781-0.258,1.576-0.746v2.013c-1.154,0.176-2.039,1.167-2.039,2.368
	c0,1.204,0.885,2.2,2.039,2.371v0.503c-0.912-0.049-1.715-0.332-2.4-1.733c-0.383-0.779-1.382-1.979-1.382-1.979
	s0.472,1.347,0.542,2.699c0.104,1.985,1.856,2.197,3.24,2.217v0.363h-2.642v0.721h2.642v0.362c-1.154,0.108-2.039,0.738-2.039,1.498
	c0,0.761,0.885,1.391,2.039,1.5v0.359h-2.642V35h2.642v0.369c-2.037,0.084-3.023,0.906-3.135,2.074
	c-0.234,2.541-0.705,4.518-0.705,4.518s0.754-0.932,1.638-3.117c0.41-1.004,1.304-1.641,2.202-1.775v0.262
	c-0.924,0.246-1.621,1.42-1.621,2.83c0,1.414,0.697,2.586,1.621,2.832v0.824c-1.189,0.031-2.354,0.293-2.962,0.77
	c-0.823,0.65-2.831,2.643-3.558,3.393C10.938,45.307,6.602,39.15,6.602,32z M30.568,48.113c-0.713-0.762-2.527-2.67-3.566-3.527
	c-0.553-0.453-1.563-0.703-2.645-0.76v-0.834c0.924-0.246,1.625-1.418,1.625-2.832c0-1.41-0.701-2.584-1.625-2.83v-0.262
	c0.9,0.135,1.799,0.771,2.205,1.775c0.883,2.186,1.639,3.117,1.639,3.117s-0.471-1.977-0.707-4.518
	c-0.107-1.168-1.096-1.99-3.137-2.074V35H27v-0.721h-2.643V33.92c1.158-0.109,2.045-0.739,2.045-1.5c0-0.76-0.887-1.39-2.045-1.498
	V30.56H27v-0.721h-2.643v-0.363c1.387-0.02,3.141-0.231,3.242-2.217c0.07-1.353,0.543-2.699,0.543-2.699s-1,1.2-1.383,1.979
	c-0.686,1.401-1.488,1.685-2.402,1.733V27.77c1.158-0.171,2.045-1.167,2.045-2.371c0-1.201-0.887-2.192-2.045-2.368V20.5
	c0.703-0.581,1.5-1.479,2.293-2.909c0.439-0.785,0.23-1.134,0.23-1.134l0,0c0,0,0.023,0.052-0.303,0.333
	c-0.711,0.616-1.488,1.019-2.221,1.353v-3.539C33.789,14.797,41.4,22.526,41.4,32C41.4,39.271,36.916,45.514,30.568,48.113z"/>
<path opacity="0.1" fill="#1A1626" d="M50.736,8.592c4.098,5.129,6.563,11.621,6.563,18.701c0,16.568-13.428,30.002-29.994,30.002
	c-7.1,0-13.609-2.477-18.744-6.594C14.055,57.58,22.502,62,32.004,62c16.564,0,29.994-13.432,29.994-30
	C61.998,22.527,57.596,14.09,50.736,8.592z"/>
<path opacity="0.3" fill-rule="evenodd" clip-rule="evenodd" fill="#FFFFFF" d="M9.734,19.016c0.549,3.865,7.768-3.701,15.08-10.203
	C29.531,4.631,8.084,7.385,9.734,19.016z"/>
</svg>
