<?xml version="1.0" encoding="utf-8"?>
<!-- Generator: Adobe Illustrator 15.0.0, SVG Export Plug-In . SVG Version: 6.00 Build 0)  -->
<!DOCTYPE svg PUBLIC "-//W3C//DTD SVG 1.1//EN" "http://www.w3.org/Graphics/SVG/1.1/DTD/svg11.dtd">
<svg version="1.1" id="Layer_1" xmlns="http://www.w3.org/2000/svg" xmlns:xlink="http://www.w3.org/1999/xlink" x="0px" y="0px"
	 width="64px" height="64px" viewBox="0 0 64 64" enable-background="new 0 0 64 64" xml:space="preserve">
<path fill="#E81C27" d="M2,32c0,3.885,0.746,7.592,2.092,11H59.91C61.254,39.592,62,35.885,62,32s-0.746-7.593-2.09-11H4.092
	C2.746,24.407,2,28.115,2,32z"/>
<path fill="#F5F5F5" d="M7.285,49h49.43c1.281-1.859,2.355-3.871,3.195-6H4.092C4.932,45.129,6.004,47.141,7.285,49z"/>
<path fill="#F5F5F5" d="M4.092,21H59.91c-0.84-2.13-1.914-4.141-3.195-6H7.285C6.004,16.859,4.932,18.87,4.092,21z"/>
<polygon fill="#FFE12C" points="32,37.307 38.182,42 35.844,34.367 42,29.638 34.377,29.615 32,22 29.621,29.615 22,29.638 
	28.154,34.367 25.82,42 "/>
<path fill="#529320" d="M56.707,15C51.299,7.15,42.254,2,32,2S12.703,7.15,7.295,15H56.707z"/>
<path fill="#529320" d="M7.295,49C12.703,56.85,21.746,62,32,62s19.299-5.15,24.707-13H7.295z"/>
<path opacity="0.1" fill="#1A1626" d="M50.738,8.59c4.096,5.131,6.563,11.623,6.563,18.701c0,16.568-13.43,30.004-29.996,30.004
	c-7.1,0-13.609-2.479-18.744-6.594C14.055,57.58,22.504,62,32.004,62c16.566,0,29.994-13.432,29.994-30
	C61.998,22.527,57.596,14.09,50.738,8.59z"/>
<path opacity="0.3" fill-rule="evenodd" clip-rule="evenodd" fill="#FFFFFF" d="M9.734,19.014c0.549,3.865,7.768-3.699,15.08-10.201
	C29.531,4.629,8.084,7.385,9.734,19.014z"/>
</svg>
