<?xml version="1.0" encoding="utf-8"?>
<!-- Generator: Adobe Illustrator 15.0.0, SVG Export Plug-In . SVG Version: 6.00 Build 0)  -->
<!DOCTYPE svg PUBLIC "-//W3C//DTD SVG 1.1//EN" "http://www.w3.org/Graphics/SVG/1.1/DTD/svg11.dtd">
<svg version="1.1" id="Layer_1" xmlns="http://www.w3.org/2000/svg" xmlns:xlink="http://www.w3.org/1999/xlink" x="0px" y="0px"
	 width="64px" height="64px" viewBox="0 0 64 64" enable-background="new 0 0 64 64" xml:space="preserve">
<circle fill="#018BC9" cx="32" cy="31.999" r="30"/>
<path opacity="0.1" fill="#1A1626" d="M50.736,8.586c4.098,5.131,6.563,11.626,6.563,18.704c0,16.568-13.428,30.004-29.994,30.004
	c-7.1,0-13.609-2.479-18.744-6.594c5.494,6.879,13.943,11.299,23.443,11.299c16.564,0,29.994-13.432,29.994-30
	C61.998,22.526,57.596,14.086,50.736,8.586z"/>
<path opacity="0.3" fill-rule="evenodd" clip-rule="evenodd" fill="#FFFFFF" d="M9.734,19.013c0.549,3.865,7.768-3.702,15.08-10.204
	C29.531,4.629,8.084,7.381,9.734,19.013z"/>
<path fill="#FFFFFF" d="M17.893,26.553c0.326-0.661,0.529-1.407,0.619-2.136c-0.121,0.311-0.309,0.599-0.568,0.844
	c-1.086,1.031-2.371,2.048-2.617,3.511c-0.035,0.207-0.055,0.423-0.115,0.625l-0.064-0.047l0.135-1.813
	c0.129-1.767-0.801-3.733,0.223-5.29l-0.082,0.034c-0.93,1.187-1.549,2.485-1.549,4.078c0,1.967,1.131,3.34,1.273,5.186
	C15.436,29.619,17.053,28.25,17.893,26.553z"/>
<path fill="#FFFFFF" d="M16.068,36.351l0.1,0.08c-0.107-0.736-0.162-1.527,0.047-2.23c0.316-1.124,0.715-2.216,0.924-3.381
	c0.162-0.904,0.35-1.92,0.242-2.798c-0.119,0.474-0.244,0.939-0.504,1.342c-0.986,1.527-2,3.318-1.309,5.255l-0.064,0.034
	c-0.277-0.642-0.34-1.37-0.52-2.056c-0.479-1.82-1.877-3.34-1.467-5.443c-0.217,0.455-0.305,0.971-0.42,1.47
	c-0.242,1.285,0,2.652,0.35,3.833C13.885,33.937,15.334,34.995,16.068,36.351z"/>
<path fill="#FFFFFF" d="M15.695,26.911c0.328-0.668,0.861-1.305,1.488-1.779c1.4-1.059,2.936-2.426,2.957-4.225
	c-0.465,1.294-1.875,1.83-2.814,2.714c-0.496,0.47-0.877,1.032-1.098,1.617l-0.033-0.026c0.115-0.519,0.334-0.987,0.484-1.489
	c0.408-1.37,0.336-3.009,1.67-3.927c-0.688,0.176-1.264,0.621-1.779,1.19c-1.076,1.196-0.982,2.958-0.84,4.529
	C15.777,26.002,15.75,26.414,15.695,26.911z"/>
<path fill="#FFFFFF" d="M17.326,23.01c0.748-0.702,1.615-1.22,2.248-2.055c0.76-1.006,1.422-2.125,2.41-2.992
	c-1.346,0.523-2.793,1.063-3.67,2.445C17.805,21.216,17.73,22.174,17.326,23.01z"/>
<path fill="#FFFFFF" d="M22.74,43.838c-1.557-1.253-1.791-3.135-2.484-4.786c-0.43-1.025-1.133-1.947-1.881-2.842
	c0.824,1.644,0.469,3.765,1.535,5.314c0.334,0.485,0.803,0.951,1.232,1.342l-0.02,0.021c-0.391-0.183-0.742-0.455-1.098-0.75
	c-1.869-1.553-4.678-1.751-5.797-4.283c0.305,1.859,1.781,3.505,3.371,4.548C19.117,43.394,21.057,43.284,22.74,43.838z"/>
<path fill="#FFFFFF" d="M15.729,38.623c1.053,0.83,2.309,1.479,3.268,2.208c-0.189-0.478-0.496-0.92-0.621-1.423
	c-0.564-2.278-0.248-4.912-1.225-7.018c0.182,1.198-0.293,2.255-0.402,3.395c-0.09,0.937,0.072,1.846,0.436,2.633
	c0.107,0.233,0.305,0.444,0.359,0.682c-0.352-0.315-0.602-0.721-0.842-1.111c-1.133-1.835-3.508-3.025-3.67-5.257
	c-0.08,0.993,0.006,2.045,0.336,2.926C13.826,36.881,14.711,37.822,15.729,38.623z"/>
<path fill="#FFFFFF" d="M26.752,44.841c0.281-0.069,0.625-0.048,0.887-0.144c-1.09-0.222-2.143-0.552-2.988-1.324
	c-1.215-1.11-2.291-2.292-3.588-3.154c1.018,1.367,1.307,3.355,3.164,4.054c0.328,0.123,0.705,0.145,0.99,0.325
	c-0.357,0.056-0.672-0.056-1.004-0.128c-2.395-0.509-5.316,0.147-7.109-1.894c0.68,1.335,2.08,2.387,3.428,2.831
	C22.617,46.096,24.791,45.328,26.752,44.841z"/>
<path fill="#FFFFFF" d="M47.32,23.723c0.15,0.502,0.369,0.971,0.486,1.489l-0.035,0.026c-0.221-0.585-0.602-1.147-1.098-1.617
	c-0.939-0.884-2.35-1.42-2.813-2.714c0.02,1.799,1.555,3.166,2.955,4.225c0.629,0.475,1.162,1.111,1.488,1.779
	c-0.055-0.497-0.08-0.909-0.035-1.396c0.145-1.571,0.238-3.333-0.84-4.529c-0.514-0.569-1.092-1.015-1.779-1.19
	C46.986,20.714,46.912,22.353,47.32,23.723z"/>
<path fill="#FFFFFF" d="M49.016,32.597c-0.18,0.686-0.242,1.414-0.518,2.056l-0.064-0.034c0.691-1.937-0.324-3.728-1.309-5.255
	c-0.26-0.402-0.385-0.868-0.504-1.342c-0.107,0.878,0.078,1.894,0.242,2.798c0.207,1.165,0.605,2.257,0.922,3.381
	c0.209,0.703,0.154,1.494,0.047,2.23l0.102-0.08c0.732-1.355,2.182-2.414,2.621-3.895c0.348-1.181,0.59-2.548,0.348-3.833
	c-0.113-0.499-0.201-1.015-0.418-1.47C50.893,29.257,49.494,30.776,49.016,32.597z"/>
<path fill="#FFFFFF" d="M48.721,27.537l0.135,1.813l-0.066,0.047c-0.061-0.202-0.078-0.418-0.113-0.625
	c-0.248-1.463-1.531-2.479-2.619-3.511c-0.258-0.245-0.445-0.533-0.566-0.844c0.09,0.729,0.293,1.475,0.619,2.136
	c0.838,1.697,2.455,3.066,2.746,4.992c0.141-1.846,1.273-3.219,1.273-5.186c0-1.593-0.619-2.892-1.551-4.078l-0.08-0.034
	C49.52,23.804,48.59,25.771,48.721,27.537z"/>
<path fill="#FFFFFF" d="M46.674,23.01c-0.402-0.836-0.479-1.794-0.988-2.602c-0.877-1.383-2.322-1.922-3.67-2.445
	c0.99,0.867,1.65,1.986,2.41,2.992C45.059,21.79,45.928,22.308,46.674,23.01z"/>
<path fill="#FFFFFF" d="M39.787,44.47c-0.332,0.072-0.645,0.184-1.002,0.128c0.283-0.181,0.66-0.202,0.99-0.325
	c1.855-0.698,2.146-2.687,3.162-4.054c-1.297,0.862-2.373,2.044-3.586,3.154c-0.846,0.772-1.896,1.103-2.99,1.324
	c0.264,0.096,0.605,0.074,0.889,0.144c1.961,0.487,4.135,1.255,6.221,0.566c1.346-0.444,2.746-1.496,3.428-2.831
	C45.104,44.617,42.182,43.961,39.787,44.47z"/>
<path fill="#FFFFFF" d="M47.301,37.988c-0.242,0.391-0.49,0.796-0.842,1.111c0.055-0.237,0.25-0.448,0.357-0.682
	c0.363-0.787,0.529-1.696,0.436-2.633c-0.109-1.14-0.584-2.196-0.402-3.395c-0.975,2.105-0.66,4.739-1.225,7.018
	c-0.123,0.503-0.432,0.945-0.621,1.423c0.959-0.729,2.215-1.378,3.27-2.208c1.018-0.801,1.9-1.742,2.359-2.966
	c0.332-0.881,0.418-1.933,0.336-2.926C50.809,34.963,48.434,36.153,47.301,37.988z"/>
<path fill="#FFFFFF" d="M39.063,46.202c-1.613-0.67-3.254-1.558-5.092-1.558c-0.668,0-1.326,0.114-1.971,0.308
	c-0.643-0.193-1.303-0.308-1.971-0.308c-1.838,0-3.479,0.888-5.09,1.558c-1.457,0.605-3.393,0.484-4.684-0.407
	c0.639,0.804,1.496,1.298,2.377,1.633c1.643,0.655,3.557,0.153,4.951-0.741c1.006-0.643,1.869-1.554,3.066-1.554
	c0.217,0,0.438,0.027,0.656,0.075c-1.688,0.672-3.223,1.852-4.42,2.995c0.219,0.251,0.502,0.485,0.77,0.7
	c1.332-1.373,2.84-2.861,4.344-3.476c1.504,0.614,3.012,2.103,4.344,3.476c0.268-0.215,0.553-0.449,0.771-0.7
	c-1.197-1.144-2.734-2.323-4.42-2.995c0.219-0.048,0.438-0.075,0.656-0.075c1.195,0,2.059,0.911,3.064,1.554
	c1.396,0.895,3.311,1.396,4.953,0.741c0.881-0.335,1.738-0.829,2.375-1.633C42.453,46.687,40.52,46.808,39.063,46.202z"/>
<path fill="#FFFFFF" d="M43.975,42.137c-0.355,0.295-0.707,0.567-1.098,0.75l-0.018-0.021c0.43-0.391,0.896-0.856,1.23-1.342
	c1.066-1.55,0.713-3.671,1.535-5.314c-0.748,0.895-1.449,1.816-1.881,2.842c-0.691,1.651-0.928,3.533-2.482,4.786
	c1.684-0.554,3.623-0.444,5.139-1.437c1.592-1.043,3.068-2.688,3.371-4.548C48.654,40.386,45.844,40.584,43.975,42.137z"/>
<path fill="#FFFFFF" d="M45.43,30.09c0-1.756-0.336-3.457-0.975-5.037c-0.668-1.648-1.662-3.165-2.959-4.461
	c-1.301-1.3-2.822-2.299-4.479-2.967l-0.001,0.002c-1.575-0.635-3.269-0.969-5.017-0.969c-2.162,0-4.199,0.516-6.01,1.426
	l0.148,0.283c1.75-0.877,3.688-1.357,5.699-1.381v2.423c-1.641,0.025-3.191,0.423-4.574,1.108c-0.998,0.496-1.908,1.14-2.699,1.909
	l-1.717-1.717c0.984-0.959,2.092-1.745,3.289-2.343l-0.146-0.283c-2.615,1.314-4.744,3.455-6.041,6.081l0.098,0.054l-0.1-0.054
	c-0.881,1.789-1.379,3.8-1.379,5.926c0,1.3,0.186,2.571,0.539,3.785l0.318-0.08c-0.334-1.138-0.518-2.326-0.531-3.543h2.422
	c0.016,1.015,0.172,2.005,0.459,2.952c0.488,1.609,1.354,3.087,2.557,4.325l-1.713,1.712c-1.516-1.553-2.598-3.416-3.193-5.444
	l-0.318,0.079c0.627,2.137,1.777,4.095,3.396,5.711c1.094,1.096,2.346,1.979,3.703,2.628l0.162-0.285
	c-1.285-0.612-2.473-1.437-3.521-2.46l1.713-1.712c0.891,0.864,1.904,1.553,3.002,2.055l0.16-0.283
	c-1.072-0.486-2.064-1.158-2.934-2l1.551-1.551c0.729,0.699,1.563,1.247,2.467,1.631l0.158-0.283
	c-0.877-0.368-1.689-0.897-2.395-1.575l1.713-1.713c0.549,0.52,1.189,0.91,1.885,1.159c0.531,0.189,1.092,0.297,1.67,0.313v2.423
	c-1.002-0.021-1.973-0.227-2.871-0.606l-0.16,0.284c0.947,0.403,1.973,0.625,3.031,0.646v2.192
	c-1.443-0.022-2.836-0.338-4.115-0.919l-0.158,0.284c1.326,0.605,2.775,0.937,4.273,0.959v2.422
	c-1.922-0.023-3.781-0.46-5.469-1.265l-0.16,0.285c1.785,0.855,3.754,1.307,5.791,1.307c2.139,0,4.197-0.499,6.053-1.437
	c1.258-0.638,2.42-1.472,3.445-2.497c1.078-1.078,1.947-2.307,2.594-3.639l-0.002-0.003C44.965,34.146,45.43,32.152,45.43,30.09z
	 M44.154,25.182c0.604,1.491,0.928,3.094,0.949,4.746h-2.422c-0.02-1.318-0.279-2.599-0.754-3.79
	c-0.51-1.283-1.271-2.467-2.26-3.486l1.711-1.713C42.59,22.18,43.523,23.618,44.154,25.182z M37.418,29.928
	c-0.016-0.593-0.129-1.169-0.328-1.71c-0.248-0.681-0.635-1.307-1.143-1.848l1.711-1.711c0.73,0.76,1.289,1.644,1.658,2.601
	c0.326,0.842,0.506,1.741,0.525,2.668H37.418z M39.84,30.251c-0.021,1.068-0.26,2.086-0.67,3.011
	c-0.373,0.838-0.885,1.602-1.514,2.257l-1.709-1.711c0.473-0.505,0.84-1.083,1.09-1.712c0.232-0.581,0.361-1.203,0.381-1.845H39.84z
	 M36.791,28.346c0.184,0.501,0.287,1.034,0.305,1.582h-2.197c-0.037-0.663-0.293-1.281-0.734-1.773l1.553-1.555
	C36.197,27.109,36.559,27.702,36.791,28.346z M37.096,30.251c-0.021,0.594-0.141,1.162-0.346,1.688
	c-0.24,0.611-0.594,1.167-1.035,1.639l-1.551-1.554c0.441-0.492,0.697-1.111,0.734-1.773H37.096z M35.488,33.809
	c-0.371,0.35-0.795,0.642-1.258,0.867c-0.629,0.308-1.328,0.489-2.068,0.513v-2.197c0.66-0.036,1.279-0.292,1.773-0.734
	L35.488,33.809z M34.379,34.967c0.484-0.237,0.938-0.548,1.34-0.928l1.709,1.71c-0.57,0.549-1.225,1.01-1.939,1.366
	c-1.006,0.502-2.133,0.794-3.326,0.819v-2.423C32.943,35.489,33.695,35.301,34.379,34.967z M35.639,37.405
	c0.734-0.364,1.414-0.841,2.02-1.425l1.549,1.547c-0.754,0.731-1.619,1.347-2.566,1.823c-1.352,0.68-2.871,1.074-4.479,1.1v-2.192
	C33.389,38.234,34.568,37.94,35.639,37.405z M37.887,35.748c0.664-0.69,1.191-1.478,1.572-2.33c0.439-0.986,0.684-2.056,0.705-3.167
	h2.193c-0.023,1.506-0.371,2.934-0.973,4.219c-0.492,1.05-1.152,2.004-1.949,2.826L37.887,35.748z M40.164,29.928
	c-0.02-0.971-0.209-1.914-0.551-2.795c-0.385-0.995-0.967-1.913-1.727-2.702l1.551-1.552c0.961,0.991,1.697,2.14,2.191,3.387
	c0.459,1.153,0.709,2.389,0.729,3.662H40.164z M32.162,19.732c1.299,0.02,2.561,0.279,3.734,0.754l0.115-0.3
	c-1.209-0.491-2.51-0.759-3.85-0.777v-2.423c1.646,0.02,3.248,0.346,4.736,0.945l0.001-0.002c1.565,0.629,3.009,1.565,4.251,2.779
	l-1.713,1.714c-1.002-0.973-2.164-1.726-3.426-2.236l-0.115,0.301c1.219,0.495,2.342,1.224,3.313,2.165l-1.551,1.552
	c-0.754-0.725-1.623-1.289-2.564-1.674c-0.922-0.377-1.912-0.584-2.932-0.604V19.732z M32.162,22.25
	c0.979,0.019,1.93,0.22,2.813,0.581c0.902,0.369,1.732,0.908,2.455,1.602l-1.713,1.712c-0.482-0.453-1.031-0.81-1.627-1.058
	c-0.605-0.254-1.256-0.395-1.928-0.414V22.25z M32.162,24.996c0.631,0.02,1.242,0.153,1.809,0.393
	c0.555,0.231,1.068,0.563,1.518,0.985l-1.555,1.554c-0.492-0.441-1.111-0.698-1.771-0.734V24.996z M27.41,20.8
	c1.363-0.674,2.867-1.043,4.428-1.067v2.192c-1.221,0.025-2.375,0.318-3.406,0.822c-0.773,0.376-1.477,0.87-2.09,1.458l-1.553-1.553
	C25.574,21.891,26.457,21.272,27.41,20.8z M27.289,28.131c0.232-0.56,0.566-1.077,0.99-1.53l1.555,1.555
	c-0.426,0.478-0.697,1.094-0.734,1.773h-2.197C26.922,29.302,27.055,28.695,27.289,28.131z M26.58,29.929h-2.424
	c0.021-1.089,0.268-2.142,0.709-3.106c0.363-0.789,0.857-1.519,1.475-2.162l1.713,1.714c-0.438,0.466-0.793,1.008-1.047,1.604
	C26.75,28.58,26.6,29.238,26.58,29.929z M28.51,26.373c0.4-0.378,0.854-0.682,1.342-0.909c0.617-0.287,1.289-0.448,1.986-0.47v2.198
	c-0.34,0.019-0.666,0.096-0.965,0.223c-0.299,0.126-0.57,0.299-0.809,0.511L28.51,26.373z M29.703,25.18
	c-0.525,0.246-1.004,0.573-1.42,0.965l-1.715-1.712c0.602-0.578,1.279-1.049,2.008-1.403v0.001c1.008-0.488,2.113-0.758,3.262-0.782
	v2.423C31.076,24.693,30.354,24.875,29.703,25.18z M26.113,24.434c-0.627,0.651-1.145,1.407-1.527,2.237
	c-0.463,0.994-0.729,2.096-0.752,3.258h-2.193c0.023-1.514,0.371-2.976,1.006-4.307c0.48-0.999,1.121-1.925,1.914-2.741
	L26.113,24.434z M18.895,29.929c0.023-1.978,0.486-3.884,1.335-5.61h0.001c0.604-1.231,1.404-2.371,2.389-3.379l1.717,1.716
	c-0.799,0.823-1.467,1.772-1.969,2.816l0.002,0.001c-0.652,1.354-1.029,2.861-1.053,4.456H18.895z M26.34,35.521
	c-0.834-0.867-1.441-1.895-1.805-3.012l-0.313,0.079c0.373,1.173,1.014,2.252,1.889,3.162l-1.551,1.552
	c-1.16-1.197-1.998-2.624-2.471-4.176c-0.281-0.922-0.436-1.887-0.449-2.874h2.193c0.016,0.804,0.148,1.589,0.387,2.336l0.314-0.08
	c-0.232-0.721-0.361-1.479-0.379-2.256h2.424c0.016,0.576,0.123,1.136,0.311,1.663c0.248,0.697,0.641,1.341,1.162,1.893
	L26.34,35.521z M28.279,33.58c-0.479-0.51-0.84-1.103-1.072-1.744c-0.184-0.501-0.287-1.036-0.305-1.583H29.1
	c0.037,0.661,0.293,1.281,0.734,1.773L28.279,33.58z M31.838,35.189c-0.52-0.016-1.027-0.111-1.51-0.277
	c-0.668-0.233-1.287-0.604-1.818-1.101l1.555-1.555c0.492,0.442,1.113,0.698,1.773,0.734V35.189z M30.172,31.919
	c-0.486-0.489-0.756-1.138-0.756-1.828s0.27-1.339,0.756-1.828c0.248-0.246,0.535-0.436,0.85-0.563
	c0.305-0.126,0.635-0.191,0.979-0.191c0.689,0,1.338,0.269,1.826,0.755c0.488,0.489,0.756,1.138,0.756,1.828
	c0,1.425-1.158,2.584-2.582,2.584C31.309,32.675,30.66,32.406,30.172,31.919z M37.9,41.79c-1.73,0.875-3.676,1.381-5.738,1.406
	v-2.422c1.635-0.023,3.209-0.416,4.629-1.132c0.963-0.482,1.855-1.113,2.648-1.882l1.707,1.707
	C40.195,40.398,39.1,41.183,37.9,41.79z M41.375,39.236l-1.709-1.709c0.836-0.862,1.514-1.84,2.01-2.898
	c0.637-1.354,0.982-2.841,1.006-4.378h2.42c-0.023,1.981-0.49,3.86-1.305,5.537C43.178,37.066,42.357,38.23,41.375,39.236z"/>
<path fill="#FFFFFF" d="M28.734,30.659c0.082-0.482,1.053-1.091,0.936-0.207c0.703-0.063,0.873-0.789,1.084-1.277
	c-0.092,0.002-0.182,0.011-0.271,0.026c0.088-0.106,1.986-2.129,0.613-2.119c-0.471,0.004-0.908,0.661-1.309,0.854
	c-0.584,0.28-1.145-0.188-1.717-0.286c-1.09-0.188-2.162,0.186-2.361,1.405c-0.129,0.809-1.174,1.577-1.174,2.457
	c-0.49-0.623-1.883-0.006-1.568,1.531c0.084,0.417-1.967,0.805-2.443,0.407c-0.078-0.064-0.057-0.312,0.137-0.386
	c-1.15-0.256-1.16,1.781-0.313,2.035c-0.127-1.72,2.541,1.013,2.893,1.329c0.66,0.593,1.373,0.436,2.08,0.904
	c0.33,0.219,1.998-0.079,1.639-0.583c-0.326-0.458,0.361-0.636-0.25-1.002c-0.684-0.406-0.578-0.729-0.799-1.464
	c-0.256-0.843-0.582-1.893-0.727-2.732c-0.1-0.57,0.328-0.99,0.711-1.327c0.174-0.26-0.164-0.882-0.004-1.021
	c0.678-0.583,0.393,1.922,0.596,1.987c0.049,0.018,0.576-0.121,0.799-0.067c0.404,0.097,1.309,0.646,1.471,0.613
	c0.086,0.056,0.074,0.597,0.088,0.725c0.607-0.059,0.553-1.352,0.973-1.54C29.648,30.235,29.193,30.418,28.734,30.659z"/>
<path fill="#FFFFFF" d="M30.496,31.884c0.725,0.179,1.887-1.077,0.854-1.458C30.996,29.57,29.896,31.735,30.496,31.884z"/>
<path fill="#FFFFFF" d="M37.699,23.767c-0.072-0.167-0.758-1.594-1.459-1.263C35.521,22.842,39.182,27.271,37.699,23.767z"/>
<path fill="#FFFFFF" d="M41.551,24.733c0.17-0.703,0.046-0.195,0.001-0.005c0.266-1.131-2.051-1.355-1.708-2.62
	c-0.137,0.072-1.955-1.816-2.789-1.803c-1.004,0.016,0.26,2.732,0.701,2.561c0.678-0.265,0.605,0.733,0.723,1.055
	c0.066,0.183,1.223,0.922,1.441,1.073c0.318,0.22,0.955,1.167,1.318,1.101C42.406,25.881,41.406,25.327,41.551,24.733z"/>
<path fill="#FFFFFF" d="M39.609,27.929c-0.141,0.143-0.727,0.704-0.916,0.56c-0.125-0.098,0.395-0.526-0.238-0.546
	c-0.518-0.017-0.379,0.829-0.793,0.056c-0.539-1.004-0.838-0.878-1.711-0.059c0.125-0.117-0.42-0.654,0.182-0.841
	c-0.379-0.108-1.689,0.574-1.764-0.11c-0.561,0.252,0.127,0.92-0.561,0.859c-0.701-0.061-0.813-0.422-0.455-0.954
	c-0.381,0.189-1.279,1.062-1.721,0.797c0.021,0.386,1.607,1.108,1.016,1.401c0.168-0.05,0.33-0.105,0.492-0.17
	c0.365,0.321-0.098,0.937-0.422,1.037c0.834-0.146,1.318,1.316,0.395,1.589c-0.6,0.175-1.4,1.375-0.287,1.395
	c-0.035-0.286-0.01-0.565,0.08-0.838c0.184-0.061,0.234,0.722,0.127,0.845c-0.182,0.175-0.383,0.182-0.602,0.021
	c-0.059,0.408-0.34,0.726-0.758,0.77c0.148,0.186,0.139,0.349-0.033,0.492c-1.572,0.524,1.418,0.062,1.619,0.291
	c-0.131-0.155-0.23-0.327-0.299-0.516c0.48-0.146,0.723,0.596,1.191,0.599c-0.867-0.663,0.48-2.872,1.49-1.716
	c-0.471-0.003-1.635,0.868-1.422,1.413c-0.023-0.06,1.398-0.366,0.309,0.443c-1.078,0.8-1.475-0.366-2.373,0.083
	c-0.805,0.402-1.592,0.958-2.271,1.55c0.877,1.204,1.545,1.272,2.996,1.398c0.945,0.082,0.844,1.118,1.322,1.727
	c0.789,1,2.008,0.702,2.922,0.042c1.012-0.729,0.268-0.389,0.336-1.249c0.031-0.362,0.359-0.638,0.355-0.995
	c0-0.428-0.42-0.569-0.402-1.072c0.018-0.55,0.17-1.145,0.084-1.692c-0.809,0.895-1.631,0.569-2.627,0.219
	c0.191-0.188,1.33,0.165,1.633,0.117c0.529-0.087,1.279-1.475,0.547-1.726c-0.059,0.309-0.648,0.536-0.908,0.578
	c0.203-0.56,1.318-1.039,1.779-1.342c0.688-0.455,1.262-0.57,0.707-1.032c-0.49-0.405-0.113-1.58-0.006-2.085
	c0.025-0.11,0.781-0.151,0.951-0.463c0.023-0.041,1.049-1.723-0.123-3.06C39.342,25.618,39.844,27.69,39.609,27.929z"/>
</svg>
