<?xml version="1.0" encoding="utf-8"?>
<!-- Generator: Adobe Illustrator 15.0.0, SVG Export Plug-In . SVG Version: 6.00 Build 0)  -->
<!DOCTYPE svg PUBLIC "-//W3C//DTD SVG 1.1//EN" "http://www.w3.org/Graphics/SVG/1.1/DTD/svg11.dtd">
<svg version="1.1" id="Layer_1" xmlns="http://www.w3.org/2000/svg" xmlns:xlink="http://www.w3.org/1999/xlink" x="0px" y="0px"
	 width="64px" height="64px" viewBox="0 0 64 64" enable-background="new 0 0 64 64" xml:space="preserve">
<path fill="#F5F5F5" d="M42.328,3.826c-1.355-0.497-2.756-0.898-4.195-1.197L17.838,12.775h-6.121v-1.046L31.15,2.013
	c-1.111,0.031-2.205,0.123-3.281,0.271L11.717,10.36V9.897c-0.342,0.314-0.678,0.636-1.004,0.965
	c-0.5,0.504-0.982,1.024-1.445,1.562v0.53v0.889c0.529,0.386,0.996,0.853,1.381,1.382h2.293h10.951h18.436v-2.449H28.791
	l13.537-6.769V3.826z"/>
<path fill="#F5F5F5" d="M21.154,22.571h-8.213h-2.293c-0.385,0.529-0.852,0.996-1.381,1.382v0.001v2.257v11.055h2.449v-9.83
	l19.66,9.83h10.951l-24.49-12.245h8.215l16.275,8.138v-1.369l-13.537-6.769h13.537v-2.449H23.893H21.154z"/>
<path fill="#E81C27" d="M8.473,13.352c0.006,0.003,0.014,0.007,0.02,0.01c0.271,0.143,0.529,0.303,0.775,0.481v-0.889v-0.53
	c-0.256,0.296-0.506,0.599-0.748,0.904L8.473,13.352z"/>
<polygon fill="#E81C27" points="17.838,25.021 42.328,37.266 42.328,33.158 26.053,25.021 "/>
<path fill="#E81C27" d="M38.133,2.629C36.152,2.217,34.102,2,32,2c-0.285,0-0.568,0.005-0.85,0.013l-19.434,9.717v1.046h6.121
	L38.133,2.629z"/>
<path fill="#E81C27" d="M23.893,15.225H12.941h-2.293c0.201,0.276,0.381,0.57,0.535,0.879c0.422,0.841,0.66,1.789,0.66,2.795
	c0,1.005-0.238,1.953-0.66,2.794c-0.154,0.309-0.334,0.603-0.535,0.879h2.293h8.213h2.738h18.436v-3.673v-3.674H23.893z
	 M29.182,22.226l-2.16-1.569l-2.158,1.569l0.824-2.539l-1.086-0.788l-1.072-0.78h2.668l0.824-2.538l0.826,2.538h2.668l-1.074,0.78
	l-1.084,0.788L29.182,22.226z"/>
<polygon fill="#E81C27" points="9.268,23.954 9.268,23.953 9.268,23.953 "/>
<path fill="#E81C27" d="M6.877,25.016c-0.414,0.086-0.844,0.132-1.283,0.132s-0.869-0.046-1.283-0.132
	c-0.482-0.101-0.943-0.258-1.379-0.463c-0.109,0.431-0.211,0.865-0.301,1.303C2.217,27.839,2,29.894,2,32
	c0,1.797,0.158,3.556,0.461,5.266h3.133h3.674V26.211v-2.257l-0.002-0.001C8.564,24.464,7.756,24.832,6.877,25.016z M7.752,34.47
	l-2.158-1.568l-2.16,1.568l0.826-2.538L2.1,30.362h2.67l0.824-2.538l0.824,2.538h2.67l-2.16,1.569L7.752,34.47z"/>
<polygon fill="#014D87" points="28.791,12.775 42.328,12.775 42.328,6.007 "/>
<path fill="#014D87" d="M11.717,9.897v0.463l16.152-8.076C21.684,3.137,16.1,5.873,11.717,9.897z"/>
<polygon fill="#014D87" points="11.717,37.266 31.377,37.266 11.717,27.436 "/>
<polygon fill="#014D87" points="42.328,31.789 42.328,25.021 28.791,25.021 "/>
<polygon fill="#014D87" points="11.535,16.967 11.535,16.968 11.537,16.967 "/>
<path fill="#014D87" d="M11.535,16.968l-2.656,1.931l-1.016,0.737l0.154,0.475l1.25,3.843l0,0c0.529-0.386,0.996-0.853,1.381-1.382
	c0.201-0.276,0.381-0.57,0.535-0.879c0.422-0.841,0.66-1.789,0.66-2.794C11.844,18.224,11.734,17.576,11.535,16.968z"/>
<path fill="#014D87" d="M10.648,15.225c-0.385-0.529-0.852-0.996-1.381-1.382c-0.246-0.179-0.504-0.339-0.775-0.481
	c-0.654,0.823-1.266,1.682-1.832,2.572l0.336,1.033h2.459h2.08c-0.098-0.298-0.213-0.587-0.352-0.863
	C11.029,15.795,10.85,15.501,10.648,15.225z"/>
<path fill="#014D87" d="M3.418,22.866c-0.152,0.474-0.293,0.953-0.42,1.437c-0.021,0.083-0.045,0.166-0.066,0.25
	c0.436,0.205,0.896,0.362,1.379,0.463c0.414,0.086,0.844,0.132,1.283,0.132s0.869-0.046,1.283-0.132
	c0.879-0.184,1.688-0.552,2.389-1.063l-3.672-2.668L3.418,22.866z"/>
<path fill="#FFE12C" d="M44.4,4.676c-0.678-0.308-1.369-0.592-2.072-0.85v2.181v6.769v2.449v3.674v3.673v2.449v6.769v1.369v4.107
	H31.377h-19.66H9.268H5.594H2.461c0.566,3.198,1.639,6.222,3.133,8.984c0.613,1.133,1.297,2.221,2.045,3.26
	C13.086,57.074,21.967,62,32,62c16.568,0,30-13.432,30-30C62,19.854,54.781,9.395,44.4,4.676z"/>
<path fill="#FFE12C" d="M9.266,23.953l0.002,0.001v-0.001l-1.25-3.843l-0.154-0.475l1.016-0.737l2.658-1.932H9.455H6.996
	L6.66,15.934c-0.215,0.34-0.424,0.685-0.627,1.033c-0.15,0.259-0.297,0.52-0.439,0.783c-0.162,0.301-0.318,0.605-0.471,0.912
	c-0.039,0.079-0.08,0.157-0.117,0.236c-0.063,0.127-0.123,0.257-0.184,0.385c-0.168,0.359-0.332,0.722-0.486,1.089
	c-0.342,0.813-0.648,1.646-0.918,2.494l2.176-1.581L9.266,23.953z"/>
<polygon fill="#FFE12C" points="25.688,19.687 24.863,22.226 27.021,20.656 29.182,22.226 28.357,19.687 29.441,18.898 
	30.516,18.118 27.848,18.118 27.021,15.58 26.197,18.118 23.529,18.118 24.602,18.898 "/>
<polygon fill="#FFE12C" points="3.434,34.47 5.594,32.901 7.752,34.47 6.928,31.932 9.088,30.362 6.418,30.362 5.594,27.824 
	4.77,30.362 2.1,30.362 4.26,31.932 "/>
<path opacity="0.05" fill="#1A1626" d="M50.736,8.591c4.096,5.13,6.563,11.622,6.563,18.701c0,16.568-13.43,30.003-29.994,30.003
	c-7.102,0-13.611-2.478-18.746-6.594C14.053,57.58,22.502,62,32.002,62c16.566,0,29.994-13.432,29.994-30
	C61.996,22.527,57.594,14.09,50.736,8.591z"/>
<path opacity="0.3" fill-rule="evenodd" clip-rule="evenodd" fill="#FFFFFF" d="M9.734,19.015c0.549,3.865,7.766-3.7,15.08-10.202
	C29.531,4.63,8.082,7.385,9.734,19.015z"/>
</svg>
