<?xml version="1.0" encoding="utf-8"?>
<!-- Generator: Adobe Illustrator 15.0.0, SVG Export Plug-In . SVG Version: 6.00 Build 0)  -->
<!DOCTYPE svg PUBLIC "-//W3C//DTD SVG 1.1//EN" "http://www.w3.org/Graphics/SVG/1.1/DTD/svg11.dtd">
<svg version="1.1" id="Layer_1" xmlns="http://www.w3.org/2000/svg" xmlns:xlink="http://www.w3.org/1999/xlink" x="0px" y="0px"
	 width="64px" height="64px" viewBox="0 0 64 64" enable-background="new 0 0 64 64" xml:space="preserve">
<path fill="#ED7612" d="M2,32C2,15.436,15.438,2,32,2c16.572,0,30,13.436,30,30c0,16.57-13.428,30-30,30C15.438,62,2,48.57,2,32z"/>
<path fill="#E64C18" d="M45.778,5.354C53.172,10.61,58,19.24,58,29c0,16.019-12.98,29-29,29c-9.759,0-18.39-4.829-23.646-12.224
	C10.347,55.412,20.404,62,32,62c16.571,0,30-13.43,30-30C62,20.402,55.413,10.347,45.778,5.354z"/>
<path fill-rule="evenodd" clip-rule="evenodd" fill="#F59E01" d="M10.218,17.397c0.446,3.134,6.31-2.997,12.248-8.267
	C26.298,5.741,8.878,7.973,10.218,17.397z"/>
<path fill="#FFFFFF" d="M25.76,37.6c0.188,1.326,0.557,2.316,1.105,2.973c1.006,1.195,2.727,1.791,5.166,1.791
	c1.461,0,2.646-0.156,3.557-0.473c1.73-0.604,2.594-1.725,2.594-3.365c0-0.957-0.424-1.699-1.27-2.225
	c-0.848-0.512-2.191-0.965-4.029-1.357l-3.141-0.689c-3.088-0.684-5.209-1.424-6.363-2.225c-1.957-1.338-2.934-3.432-2.934-6.279
	c0-2.6,0.957-4.758,2.869-6.477s4.723-2.578,8.43-2.578c3.096,0,5.734,0.809,7.922,2.43c2.184,1.621,3.33,3.975,3.438,7.059h-5.828
	c-0.107-1.746-0.887-2.986-2.34-3.721c-0.969-0.486-2.174-0.729-3.613-0.729c-1.602,0-2.879,0.314-3.834,0.945
	c-0.955,0.629-1.434,1.508-1.434,2.637c0,1.037,0.471,1.811,1.414,2.322c0.604,0.342,1.889,0.742,3.855,1.201l5.092,1.201
	c2.23,0.525,3.904,1.227,5.018,2.105c1.729,1.365,2.594,3.342,2.594,5.926c0,2.65-1.023,4.854-3.074,6.605
	c-2.049,1.752-4.943,2.627-8.684,2.627c-3.82,0-6.826-0.863-9.014-2.588c-2.189-1.727-3.283-4.098-3.283-7.117H25.76z"/>
</svg>
