<?xml version="1.0" encoding="utf-8"?>
<!-- Generator: Adobe Illustrator 15.0.0, SVG Export Plug-In . SVG Version: 6.00 Build 0)  -->
<!DOCTYPE svg PUBLIC "-//W3C//DTD SVG 1.1//EN" "http://www.w3.org/Graphics/SVG/1.1/DTD/svg11.dtd">
<svg version="1.1" id="Layer_1" xmlns="http://www.w3.org/2000/svg" xmlns:xlink="http://www.w3.org/1999/xlink" x="0px" y="0px"
	 width="64px" height="64px" viewBox="0 0 64 64" enable-background="new 0 0 64 64" xml:space="preserve">
<path fill="#529320" d="M2,32c0,11.512,6.486,21.502,16,26.533V5.468C8.486,10.498,2,20.489,2,32z"/>
<path fill="#529320" d="M62,32c0-11.511-6.486-21.502-16-26.532v53.065C55.514,53.502,62,43.512,62,32z"/>
<path fill="#F5F5F5" d="M32,2c-5.057,0-9.818,1.257-14,3.468v53.065C22.182,60.744,26.943,62,32,62c5.059,0,9.82-1.256,14-3.467
	V5.468C41.82,3.257,37.059,2,32,2z"/>
<path fill="#529320" d="M32.316,13.061c-0.076,0.826-0.154,1.653-0.23,2.48c-0.279,0.042-0.559,0.084-0.84,0.126
	c0,0,0.584,0.327,0.686,0.656l-0.014,0.129l-0.031,0.03c-0.168,0.131-0.668,0.069-0.668,0.069s0.662,0.559,0.713,0.761l0.002,0.014
	v0.014l-0.004,0.011l-0.023,0.03c-0.154,0.144-0.889,0.185-0.889,0.185s0.814,0.58,0.865,0.909c0.045,0.297,0.006,0.472,0,0.502
	c-0.057-0.049-1.369-1.15-2.217-0.829L29.59,18.21l-0.004,0.033c0.059,0.184,1.258,0.371,2.092,1.093
	c-0.021,0.181-2.379-0.574-2.467-0.101c0.074,0.133,2.539,0.487,2.721,0.81c-0.908,0.033-2.783-0.199-2.721,0.099
	c-0.189,0.346,1.771,0.15,2.594,0.432c0.242,0.272,0.219,0.502-0.201,0.53c-0.793-0.377-2.568-0.657-2.572-0.176v0.003l0.002,0.002
	l0.004,0.006l0.014,0.009c0.201,0.1,1.854,0.051,2.475,0.461c-0.881,0.2-3.873-0.404-3.893-0.11
	c0.086,0.139,0.559,0.742,1.375,0.717c0.813-0.024,2.697,0.33,2.824,0.583l0.004,0.021c-0.057,0.177-2.482-0.537-3.414-0.098
	c-0.969,0.455,2.771,0.179,3.383,0.735s-1.221-0.053-1.221-0.053s-2.545-0.353-2.926-0.175c-0.383,0.177-0.814,0.582-0.814,0.582
	s0.254,0.505,0.508,0.403l0.08-0.013h0.004l0.002,0.003l0.004,0.002l0.002,0.003l0.002,0.003l0.004,0.01l-0.174,0.298
	c0,0,3.563,0.858,4.352,1.617c0.791,0.759-4.529-1.189-4.529-1.189s-2.139,0.784,0.127,0.835c-0.252,0.367,0.105,0.593,0.127,0.607
	c0,0,3.768,0.785,4.15,1.392c0.381,0.607-2.57-0.583-3.232-0.911c-0.639-0.317-2.416,0.168-2.518,0.315l-0.002,0.006v0.003v0.006
	v0.003v0.003l0.002,0.002v0.003l0.006,0.008l0.004,0.003c0.113,0.125,0.906,0.297,0.93,0.511v0.003l-0.008,0.035
	c-0.1,0.193-1.047,0.275-1.086,0.456l-0.002,0.012c0,0.202,4.76,1.188,6.031,2.252c1.273,1.063-3.738-1.267-3.738-1.267
	s0.279,0.38,0,0.48c-0.281,0.102-1.275-1.416-2.904-0.48c-0.297,0.386,1.422,0.691,1.859,0.733
	c-0.148,0.382-0.279,0.508,0.332,0.888l0.119,0.08l0.002,0.003l0.002,0.002v0.003v0.003h-0.002h-0.002
	c-0.096-0.016-1.193-0.575-1.307-0.599h-0.006h-0.004l0.127,0.658c-0.563-0.455-1.244-0.593-1.883-0.126
	c-0.002,0.027-0.006,0.464,0.635,0.733c-0.361,0.734,0.408,0.507,1.629,1.189c-1.814-0.473-1.959,0.404-0.662,0.608
	c1.299,0.201,4.861,0.328,5.701,1.416c0.178,0.23,0.227,0.346,0.191,0.383c-0.141,0.125-1.43-0.801-1.617-0.836h-0.002l-0.002,0.004
	l-0.01,0.014c-0.045,0.1-0.088,0.537-0.088,0.537c-0.543-0.313-1.041-0.592-1.689-0.725c-0.053,0.102-0.041,0.244-0.092,0.346
	c-0.59-0.422-1.104-0.719-1.959-0.76c-0.033,0.135-0.068,0.271-0.102,0.406c0,0-0.713-0.887-2.113,0
	c-0.781,0.557,2.953,0.201,3.563,0.859c0.611,0.658,0.127,0.758,0.127,0.758c-0.508-0.186-1.016-0.369-1.523-0.555
	c0,0-1.811-0.33-2.318,0.074c-0.51,0.404,7.432,1.393,7.66,2.48c0.154,0.59-1.865-0.619-3.613-1.137
	c-0.068,0.193-0.137,0.385-0.205,0.578c-0.041-0.039-0.717-0.693-1.475-0.807l-0.002,0.002v0.006l0.154,0.676
	c0,0-1.959-0.912-2.949-0.432c-0.994,0.48,3.459,0.734,3.867,1.189l0.061,0.111l-0.006,0.012c-0.1,0.145-1.426-0.385-1.559-0.123
	c-0.152,0.305-2.314-0.555-2.289-0.15s0.307,0.631,0.307,0.631s4.504,0.43,4.656,0.961c0.154,0.533-2.494-0.301-2.494-0.301
	s-0.256,0.377-0.053,0.555l0.018,0.016v0.004h-0.004c-0.092-0.031-1.525-0.965-1.387-0.248c-0.561-0.221-2.01-0.91-1.807-0.379
	c0.201,0.523,3.98,1.27,4.092,1.291c-0.1,0.008-1.699,0.141-1.625,0.559c-2.141-1.299-2.137-0.52-2.088-0.459v0.002
	c-0.121-0.02-2.756-0.672-0.66,0.457c1.125,0.604,1.398,0.84,1.402,0.93v0.01l-0.002,0.008l-0.002,0.002l-0.004,0.006l-0.002,0.002
	l-0.004,0.004l-0.002,0.002l-0.002,0.004l-0.18,0.016h-0.006l-0.002,0.004l0.002,0.002l0.186,0.568l-0.004,0.006v0.002h-0.002v0.002
	h-0.004h-0.002c-0.092-0.021-1.48-0.76-1.955-0.809c-0.484-0.051-2.775,0.631-0.332,1.693c2.443,1.064,3.943-0.252,5.291-0.102
	c1.35,0.152,1.988,0.381,1.859,0.811c-0.127,0.43-1.379-1.41-2.695,0.182c-1.496-0.295-2.514-0.465-1.74,0.629
	c-2.445-0.908-3.938,0.277-0.859,0.758c3.027,0.088,4.887-0.732,4.887-0.732s0.512,0.938,1.248,0.279
	c0.703-0.627,0.76,0.172,0.785,0.248l0.002,0.002v0.004h0.004l0.711-0.307h0.178v6.074c0.824,0.008,1.645,0.016,2.467,0.023
	c0,0-0.787-5.287-0.355-5.994c0.418-0.688,0.814-0.613,0.84-0.607c0,0,1.604,0.479,1.781,0.402l0.008-0.002l0.006-0.002l0.012-0.008
	l0.002-0.004c0.131-0.119-0.002-0.586,0.813-0.514c0.252-0.092,0.154-0.49,0.316-0.588l0.012-0.006l0.023-0.008l0.033-0.006
	c0.254-0.025,5.166,1.365,6.234,0.049c-0.281-0.732-1.25-0.049-1.504-0.023c-0.229,0-1.197-0.455-1.756,0
	c-0.51-0.379-2.824-0.633-2.824-0.633c-0.305-0.303,5.523,0.152,5.854-0.076c0.688-0.684-1.271-0.605-1.576-0.379
	c-0.543-0.33-1.227-0.305-1.643-0.076c-0.199-0.475-2.09-0.27-3.143-0.404c-0.336-0.197-0.281-0.309-0.053-0.432
	c2.197,0.094,4.383,0.379,6.592,0.279c0.596-0.773-0.752-1.064-1.578-0.404c-0.484-0.795-1.477-0.027-2.137-0.104
	c-0.662-0.074-0.357-0.883,0.482-0.758c0.84,0.127,2.342-0.051,2.621-0.432c0.281-0.379-0.166-0.764-1.553-0.402
	c-0.469-0.457-1.498-0.002-1.982,0.15c-0.643-0.357-2.141-0.049-2.65,0.076c-0.498-0.307,2.623-0.811,2.623-0.811
	c1.203-0.02,1.883-0.227,2.264-0.328c1.82-0.971-0.025-1.074-0.98-0.369c-0.592-0.459-1.156,0.041-1.689,0.217
	c-0.502,0.168-1.428,0.287-1.541,0.24l-0.006-0.002l-0.004-0.004l-0.002-0.002v-0.004v-0.002l0.002-0.006
	c0.076-0.115,1.447-0.953,1.447-0.953s1.783-0.129,2.139-0.178c0.217-0.031,0.979-0.391,0.979-0.523
	c-0.008-0.082-0.324-0.074-1.285,0.168c-0.865,0.076-1.373,0.027-1.703,0.053c-0.533-0.055-0.758-0.111-0.803-0.16l-0.006-0.008
	l0.006-0.027l0.01-0.008c0.129-0.104,0.971-0.18,0.971-0.18s2.57-0.234,2.74-0.367l0.004-0.004l0.002-0.004l0.002-0.004
	c0.055-1.045-2.18-0.563-2.238-0.555c0.006-0.734-2.016-0.01-2.111,0h-0.002l-0.133-0.154l0.006-0.057
	c0.051-0.152,0.355-0.27,0.355-0.27c0.561-0.135,1.396-0.176,1.615-0.354c0,0,1.58-0.014,1.768-0.432
	c-0.387-1.064-3.344,0.188-3.738,0.379l-0.152-0.053c-0.131-0.188,0.512-0.811,0.533-0.832l0.002-0.002
	c0.098-0.027,2.459-0.148,3.586-1.669c0.08-0.938-1.348,0.532-1.348,0.532c-0.107-1.22-1.553,0.076-2.393,0.178
	s-0.865-0.379-0.279-0.455c0.586-0.077,1.246-0.027,1.578-0.913c0.33-0.886,1.324,0.052,1.502-0.277
	c0.174-0.319-0.324-0.591-0.355-0.607c0,0,0.736-0.761-0.459-0.735c-1.184,0.024-2.715-0.148-2.746-0.151
	c0.074-0.028,1.281-0.48,2.414-0.456c1.172,0.025,0.535-0.835-0.586-0.835c-1.119,0-1.703-0.38-1.703-0.38
	c0.635-0.235,1.271-0.472,1.908-0.708c-0.043-0.178-0.084-0.354-0.127-0.53c0,0,1.119-0.886-0.459-0.684s-1.756,0.228-1.756,0.228
	l-3.18,0.481h-0.004c-0.029-0.006-0.336-0.101-0.395-0.218l-0.006-0.014l-0.002-0.016v-0.021c0.014-0.061,0.109-0.128,0.354-0.188
	c0.814-0.203,3.691-0.784,4.123-0.632l0.123-0.006c0.162-0.146-0.379-1.077-1.701-1.208c-1.527-0.152-2.467,0.379-2.467,0.379
	s-0.994-0.355-0.078-0.659s2.367,0.102,2.367,0.102s1.629-0.481,0.279-0.685c-1.35-0.202-1.773,0.183-2.393,0.204
	c-0.246-0.307,2.117-0.379,2.266-0.633c-0.25-0.455-1.713,0-2.57,0c-0.363-0.153-0.387-0.403,0.025-0.557
	c0.875-0.034,1.695,0.017,2.57-0.017c-0.027-0.465,0-1.015-0.025-1.478c-1.109-0.201-2.408,0.146-3.031,0.118
	c0.166-0.507,2.561-0.637,2.826-0.774c0.551-0.685-2.295-0.011-2.365,0c-0.504-0.074-0.473-0.392-0.154-0.583
	c0.738-0.084,2.395,0.107,2.268-0.39c-0.096-0.467-1.146-0.217-1.578-0.115c-0.434,0.101-1.07,0.023-1.07,0.023
	c-0.277-0.37,2.494-0.219,2.471-0.505c-0.037-0.328-1.758-0.102-2.344-0.076c-0.449-0.309,2.117-0.515,2.238-0.555l0.002-0.003
	c0.096-0.842-1.781,0-2.137,0l-0.143-0.041l-0.021-0.022c-0.121-0.142-0.014-0.467-0.014-0.467l0.711-0.371l0.002-0.002v-0.003
	v-0.003l-0.002-0.002l-0.01-0.009l-0.6-0.218h-0.002l-0.004-0.003l-0.002-0.003l-0.002-0.002l0.008-0.574
	c0,0,0.529-0.395,0.564-0.552v-0.005v-0.006v-0.006v-0.006v-0.003l-0.004-0.006v-0.003l-0.002-0.002l-0.004-0.003l-0.002-0.005
	l-0.004-0.003l-0.008-0.005l-0.006-0.003c-0.133-0.064-0.688,0.126-0.688,0.126c0-0.169,0-0.337,0-0.506c0,0,0.484-0.052,0.535-0.28
	v-0.038l-0.002-0.017l-0.014-0.03l-0.006-0.006c-0.111-0.142-0.564-0.161-0.564-0.161C32.484,14.831,32.4,13.946,32.316,13.061z
	 M31.863,21.733v0.35c0,0-0.57-0.029-0.678-0.118l-0.002-0.003L31.18,21.96l-0.002-0.003l-0.002-0.003l-0.004-0.006v-0.003
	l-0.002-0.002V21.94v-0.006v-0.003V21.93l0.002-0.009l0.004-0.002l0.004-0.009l0.004-0.003l0.004-0.006l0.016-0.011
	c0.191-0.134,0.574-0.13,0.648-0.151h0.002l0.004-0.003h0.002L31.863,21.733z M32.672,22.199c0.02,0,1.137,0.009,1.234,0.153
	l0.004,0.006l0.002,0.008v0.005v0.009l-0.002,0.008c-0.086,0.181-1.215,0.289-1.215,0.289L32.672,22.199L32.672,22.199z
	 M32.609,22.888h0.002h0.002l0.586,0.11l0.002,0.003v0.002l0.004,0.003v0.003v0.002v0.003v0.003v0.003l-0.004,0.003v0.003
	l-0.002,0.006l-0.002,0.002v0.003c-0.096,0.117-0.523,0.148-0.545,0.148H32.65v-0.003l-0.002-0.003L32.609,22.888z M29.203,23.805
	c0.363-0.019,1.088,0.066,2.447,0.439l0.016,0.438l-0.002,0.002v0.003l-0.004,0.003c-0.02-0.011-2.471-0.711-2.695-0.7h-0.02
	l-0.016-0.003l-0.02-0.009l-0.008-0.003l-0.004-0.002l-0.02-0.019l-0.002-0.003l-0.004-0.006v-0.003l-0.002-0.006v-0.003v-0.005
	v-0.006l0.002-0.011l0.018-0.024C28.928,23.852,29.021,23.814,29.203,23.805z M30.473,24.841c0.391-0.014,1.328,0.209,1.379,0.198
	l-0.006,0.496l-0.002,0.003l-0.004,0.003l-0.002,0.003l-0.006,0.003H31.83h-0.006H31.82c-0.078-0.021-1.459-0.457-1.514-0.635
	v-0.011l0.008-0.019l0.004-0.003l0.002-0.003L30.473,24.841z M34.318,25.803c0.373-0.008,0.637,0.024,0.539,0.137
	c-0.268,0.307-2.107,0.56-2.107,0.56l-0.033-0.56C32.756,25.934,33.691,25.813,34.318,25.803z M29.049,27.549
	c0.313-0.017,1.041,0.154,2.664,0.838l0.012,0.403c0,0-2.748-0.829-2.846-0.967C28.832,27.756,28.744,27.564,29.049,27.549z
	 M34.434,28.15l0.164,0.024l0.002,0.003l0.004,0.008l0.002,0.009l-0.025,0.044c-0.256,0.286-1.629,0.571-1.629,0.571v-0.37h0.002
	C33.016,28.437,34.025,28.171,34.434,28.15z M28.406,28.2c0.412-0.022,1.338,0.194,3.414,1.173l0.012,0.379H31.83
	c-0.123-0.04-3.738-1.302-3.738-1.302C28.088,28.437,28.035,28.22,28.406,28.2z M35.287,29.779c0.105-0.005,0.174,0.005,0.191,0.027
	l0.002,0.011l-0.027,0.042c-0.326,0.293-2.416,0.65-2.492,0.656h-0.002h-0.002l-0.004-0.003l-0.002-0.006v-0.003l-0.002-0.005
	l0.031-0.341v-0.003h0.004l0.002,0.003h0.004C33.123,30.155,34.725,29.803,35.287,29.779z M29.145,30.699
	c0.621-0.031,2.508,0.827,2.6,0.854h0.002l-0.02,0.397v0.006h-0.002c-0.051-0.026-2.633-1.094-2.748-1.008
	C28.904,30.781,28.979,30.708,29.145,30.699z M34.703,30.925c0.129-0.006,0.223,0,0.254,0.017l0.008,0.008v0.003v0.003v0.005
	l-0.002,0.003l-0.01,0.009c-0.191,0.169-1.971,0.52-1.971,0.52l-0.01-0.36C33.023,31.12,34.172,30.947,34.703,30.925z
	 M34.559,32.059c0.125-0.004,0.215,0.003,0.234,0.025l0.004,0.003v0.006l0.002,0.002l-0.002,0.003v0.006l-0.004,0.002l-0.006,0.009
	l-0.008,0.008c-0.191,0.165-1.701,0.48-1.701,0.48l-0.041-0.371C33.078,32.233,34.088,32.074,34.559,32.059z M28.189,32.149
	c0.363-0.022,1.266,0.127,3.494,0.933l0.074,0.434c0,0-3.709-1.191-3.814-1.229v-0.003v-0.014l0.02-0.044
	C27.988,32.194,28.049,32.158,28.189,32.149z M33.076,33.092c0.043,0.01,0.666,0.029,0.781,0.127l0.002,0.002l0.004,0.004
	l0.002,0.002l0.004,0.006l0.002,0.002l0.002,0.01v0.002v0.004v0.004v0.004l-0.002,0.004v0.004l-0.002,0.004
	c-0.098,0.15-0.746,0.205-0.746,0.205S33.09,33.184,33.076,33.092z M34.58,33.938c0.146-0.004,0.25,0.014,0.271,0.055l-0.08,0.127
	c-0.533,0.436-1.693,0.52-1.693,0.52V34.16h0.002C33.146,34.152,34.1,33.949,34.58,33.938z M36.059,34.383
	c0.184-0.006,0.264,0.023,0.287,0.066l0.006,0.014l0.002,0.025l-0.109,0.16c-0.182,0.17-3.068,1.08-3.068,1.08l-0.012-0.656
	C34.852,34.564,35.678,34.396,36.059,34.383z M34.191,36.092c0.184-0.008,0.326,0.004,0.371,0.047l0.008,0.012l0.002,0.008v0.008
	v0.014l-0.014,0.027c-0.248,0.24-1.447,0.277-1.447,0.277v-0.299C33.336,36.178,33.838,36.105,34.191,36.092L34.191,36.092z
	 M35.393,36.584l0.098,0.023v0.006l-0.057,0.061c-0.479,0.338-2.281,0.688-2.281,0.688l0.033-0.295
	C33.236,37.066,34.963,36.594,35.393,36.584z M36.404,36.959c0.211-0.002,0.373,0.029,0.467,0.096h0.002v0.004v0.002v0.006
	c-0.008,0.066-0.143,0.375-0.619,0.508c-0.592-0.051-3.104,0.686-3.154,0.699h-0.002v-0.006l0.033-0.303
	C33.996,37.449,35.57,36.967,36.404,36.959z M29.971,38.41h0.016c1.088,0.117,1.494,0.521,1.609,0.684
	c-0.219,0.377-1.936-0.471-1.756-0.65L29.971,38.41z M36.199,38.48l0.111,0.025l0.029,0.029l0.02,0.066
	c-0.113,0.176-0.701,0.098-0.738,0.094C35.652,38.686,35.99,38.488,36.199,38.48z M33.871,39.656l0.186,0.027l0.014,0.012
	l0.006,0.006l0.004,0.008l0.004,0.008l-0.014,0.082C33.898,40.117,33.152,40,33.152,40v-0.223h0.002
	C33.197,39.781,33.609,39.668,33.871,39.656z M29.473,40.494c0.23-0.012,0.432,0.139,0.641,0.258
	c0.469-0.094,1.432,0.074,1.432,0.074v0.424l-0.002,0.002h-0.004c-0.088,0.016-1.215-0.033-1.467-0.191
	c-0.205,0-0.787-0.305-0.83-0.463l-0.004-0.004v-0.008V40.58v-0.006v-0.002l0.004-0.006v-0.004L29.473,40.494z M34.404,40.703
	c0.176-0.01,0.252,0.045,0.113,0.238c-0.385,0.541-1.375,0.318-1.375,0.318L33.1,40.926C33.451,40.939,34.09,40.721,34.404,40.703z
	 M30.697,41.799c0.4-0.018,0.836,0.141,0.836,0.141c0.012,0.02,0.217,0.422,0.033,0.557l-0.021,0.014
	c-0.223,0.117-1.293-0.09-1.355-0.518C30.314,41.859,30.502,41.809,30.697,41.799z M26.563,42.008
	c0.367-0.021,0.775,0.203,0.822,0.225h0.004l-0.014,0.406c0,0-0.727-0.201-0.957-0.605L26.563,42.008z M33.547,42.063
	c0.41-0.002,0.904,0.094,0.977,0.23l-0.018,0.092c-0.203,0.242-1.354,0.021-1.354,0.021v-0.297
	C33.256,42.08,33.396,42.064,33.547,42.063z"/>
<path opacity="0.1" fill="#1A1626" d="M50.736,8.591c4.096,5.13,6.563,11.622,6.563,18.701c0,16.569-13.428,30.003-29.994,30.003
	c-7.102,0-13.609-2.477-18.744-6.594C14.055,57.58,22.502,62,32.002,62c16.566,0,29.996-13.432,29.996-30
	C61.998,22.527,57.594,14.09,50.736,8.591z"/>
<path opacity="0.3" fill-rule="evenodd" clip-rule="evenodd" fill="#FFFFFF" d="M9.734,19.015c0.549,3.865,7.766-3.7,15.08-10.202
	C29.531,4.63,8.082,7.385,9.734,19.015z"/>
</svg>
