<?xml version="1.0" encoding="utf-8"?>
<!-- Generator: Adobe Illustrator 15.0.0, SVG Export Plug-In . SVG Version: 6.00 Build 0)  -->
<!DOCTYPE svg PUBLIC "-//W3C//DTD SVG 1.1//EN" "http://www.w3.org/Graphics/SVG/1.1/DTD/svg11.dtd">
<svg version="1.1" id="Layer_1" xmlns="http://www.w3.org/2000/svg" xmlns:xlink="http://www.w3.org/1999/xlink" x="0px" y="0px"
	 width="64px" height="64px" viewBox="0 0 64 64" enable-background="new 0 0 64 64" xml:space="preserve">
<path fill="#E81C27" d="M32,2C18.939,2,7.833,10.35,3.714,22h56.571C56.166,10.35,45.061,2,32,2z"/>
<path fill="#F5F5F5" d="M32,62c13.061,0,24.166-8.35,28.285-20H3.714C7.833,53.65,18.939,62,32,62z"/>
<path fill="#014D87" d="M3.714,22C2.607,25.129,2,28.492,2,32s0.607,6.871,1.714,10h56.571C61.393,38.871,62,35.508,62,32
	s-0.607-6.871-1.715-10H3.714z"/>
<path fill="#E81C27" d="M15.474,21.719v16.172C15.474,43.475,20.188,48,26,48s10.525-4.525,10.525-10.109V21.719H15.474z"/>
<g>
	<path fill="#F5F5F5" d="M29.754,46.344l-0.17-0.867l-0.744-1.527l0.266-0.152l-0.234-0.859l-0.66-1.053l-0.008-0.029l0.176-0.139
		l-0.18-0.861l-0.502-1.041l0.777-1.539l0.504,1.645l0.428-0.561h0.002l0.643,0.881l0.166-0.623l0.584,0.344l-0.131-1.166
		l-0.002-0.004l0.021,0.027l1.412,0.439l-0.994-1.342l0.146,0.008l-0.77-1.648l0.199-0.588l0.475,1.008l0.207-0.387l0.799,2.246
		l0.029-0.053l0.426,0.783l0.193-0.406l0.811,1.578l0.291-0.865l1.164,0.93c0,0-0.143-2.961-0.082-3.945
		c0.158-2.582,1.133-7.852,0.436-10.344c-0.328-1.177-2.707-4.069-2.707-4.069S32.584,25.674,32,26.721
		c-0.24,0.432-2.035,1.508-2.035,1.508l-0.729-0.229l0,0l0.289-0.082l-1.281-1.319l0.473-2.636l1.27-1.85l-1.969,0.111l-1.514,0.428
		l0.398,0.645L26,26.368l-0.904-3.072l0.4-0.645l-1.514-0.428l-1.97-0.111l1.271,1.85l0.473,2.636l-1.281,1.319l0.289,0.082
		l-0.729,0.229c0,0-1.794-1.076-2.034-1.508c-0.584-1.047-0.726-4.558-0.726-4.558s-2.378,2.893-2.707,4.069
		c-0.697,2.492,0.275,7.76,0.434,10.344c0.061,0.984-0.08,3.945-0.08,3.945l1.163-0.93l0.291,0.865l0.811-1.578l0.194,0.406
		l0.426-0.783l0.029,0.053l0.798-2.246l0.208,0.387l0.474-1.008l0.199,0.588l-0.769,1.648l0.146-0.008l-0.993,1.342l1.411-0.439
		l0.021-0.027l-0.002,0.004l-0.13,1.166l0.583-0.344l0.166,0.623l0.644-0.881l0,0l0.428,0.561l0.504-1.645l0.777,1.539l-0.5,1.041
		l-0.18,0.861l0.176,0.139l-0.008,0.029l-0.662,1.053l-0.234,0.859l0.268,0.152l-0.744,1.527l-0.171,0.867H29.754L29.754,46.344z"/>
</g>
<g>
	<g>
		<g>
			<polygon fill="#FFE12C" points="20.051,41.695 20.222,41.318 21.13,40.939 21.683,40.719 21.661,40.691 22.148,40.66 
				22.228,40.586 21.568,40.309 21.456,40.227 21.041,40.387 20.601,40.664 21.416,39.729 22.092,38.123 22.092,38.121 
				20.981,38.834 19.966,40.59 19.601,40.785 18.599,40.76 18.098,40.709 17.548,41.014 17.626,41.076 18.038,41.074 18.372,41.266 
				19.348,41.184 18.348,41.51 18.073,41.859 18.135,42.49 18.223,42.471 18.298,42.238 18.755,42.162 19.699,41.445 19.037,42.479 
				18.939,43.004 19.249,43.686 19.353,43.584 19.417,43.121 19.419,43.123 19.777,42.693 20.051,41.695 			"/>
		</g>
		<g>
			<polygon fill="#FFE12C" points="31.949,41.695 31.779,41.318 30.869,40.939 30.318,40.719 30.338,40.691 29.852,40.66 
				29.773,40.586 30.432,40.309 30.543,40.227 30.959,40.387 31.4,40.664 30.584,39.729 29.908,38.123 29.908,38.121 31.02,38.834 
				32.035,40.59 32.4,40.785 33.402,40.76 33.902,40.709 34.451,41.014 34.373,41.076 33.963,41.074 33.627,41.266 32.652,41.184 
				33.652,41.51 33.926,41.859 33.865,42.49 33.777,42.471 33.703,42.238 33.246,42.162 32.301,41.445 32.963,42.479 33.061,43.004 
				32.75,43.686 32.646,43.584 32.582,43.121 32.582,43.123 32.223,42.693 31.949,41.695 			"/>
		</g>
	</g>
	<g>
		<path fill="#FFE12C" d="M21.45,22.204c-0.991,0.107-0.944,0.756-0.018,1.674c0.178,0.176,0.238,0.17,0.276-0.014
			c0.066-0.318,0.419-0.507,0.604-0.264c0.126,0.166,0.097,0.26,0.517,0.201c0.141,0.117,0.273,0.227,0.381,0.321
			c-0.002-0.001-0.004-0.002-0.004-0.003c-0.139-0.026-0.486,0.082-1.092,0.232c-0.45,0.111-0.846-0.085-1.178-0.48
			c0.11,0.55,1.299,0.816,1.224,0.813c0.117,0.229,0.139,0.256,0.202,0.275c0.385,0.076,0.791-0.166,1.18-0.094
			c0.854,0.158-0.57-2.305-0.543-2.402C23.07,22.216,21.673,21.771,21.45,22.204z"/>
	</g>
	<g>
		<path fill="#FFE12C" d="M29.637,24.96c0.063-0.02,0.084-0.047,0.201-0.275c-0.074,0.004,1.113-0.263,1.225-0.813
			c-0.332,0.396-0.729,0.592-1.178,0.48c-0.607-0.15-0.953-0.259-1.092-0.232c-0.002,0.001-0.004,0.002-0.004,0.003
			c0.107-0.095,0.24-0.204,0.379-0.321c0.42,0.059,0.393-0.035,0.518-0.201c0.186-0.243,0.539-0.055,0.605,0.264
			c0.037,0.184,0.098,0.189,0.275,0.014c0.928-0.918,0.975-1.566-0.018-1.674c-0.223-0.433-1.619,0.012-1.549,0.26
			c0.027,0.098-1.396,2.561-0.545,2.402C28.844,24.794,29.25,25.036,29.637,24.96z"/>
	</g>
</g>
<g>
	<g>
		<path fill="#E81C27" d="M21.566,28.617v7.285c0,2.189,1.984,3.965,4.434,3.965c2.447,0,4.434-1.775,4.434-3.965v-7.285H21.566z"/>
	</g>
	<g>
		<rect x="24.773" y="27.311" fill="#F5F5F5" width="2.5" height="15"/>
	</g>
	<g>
		<rect x="19.125" y="32.311" fill="#F5F5F5" width="13.75" height="2.5"/>
	</g>
	<g>
		<polygon fill="#F5F5F5" points="24,30.436 23.023,31.412 23.297,30.436 23.023,29.459 24,30.436 		"/>
	</g>
	<g>
		<polygon fill="#F5F5F5" points="24,36.686 23.023,37.662 23.297,36.686 23.023,35.709 24,36.686 		"/>
	</g>
	<g>
		<polygon fill="#F5F5F5" points="28.049,30.436 29.023,31.412 28.752,30.436 29.023,29.459 28.049,30.436 		"/>
	</g>
	<g>
		<polygon fill="#F5F5F5" points="28.049,36.686 29.023,37.662 28.752,36.686 29.023,35.709 28.049,36.686 		"/>
	</g>
</g>
<polygon fill="#014D87" points="27,11.733 25.012,11.745 25,13.733 26.988,13.722 27,11.733 "/>
<polygon fill="#FFE12C" points="25.115,10.364 25.301,10.547 25.486,10.369 25.814,10.369 25.814,11.625 24.996,11.643 
	24.975,11.854 24.986,12 26,11.98 27.014,12 27.023,11.854 27.004,11.643 27.004,11.643 26.186,11.625 26.186,10.369 26.514,10.369 
	26.699,10.547 26.885,10.364 27.068,10.176 26.885,9.988 26.699,9.806 26.514,9.992 26.186,9.992 26.186,9.607 26.367,9.42 
	26.186,9.231 26,9.045 25.814,9.231 25.633,9.42 25.814,9.607 25.814,9.992 25.486,9.992 25.301,9.806 25.115,9.988 24.93,10.176 
	25.115,10.364 "/>
<path fill="#FFE12C" d="M32.463,14.441c-1.289-0.725-2.131-0.854-2.438-0.374c-0.025,0.045-0.039,0.097-0.055,0.147
	c-1.627-0.824-2.762-0.949-3.971-0.401c-1.209-0.548-2.346-0.421-3.973,0.401c-0.015-0.05-0.027-0.103-0.055-0.146
	c-0.305-0.482-1.149-0.352-2.438,0.375c-1.273,0.726-2.515,1.733-2.232,2.148c0.089,0.675,0.498,1.323,1.229,1.978
	c0.786,0.413,2.393,0.518,4.116,0.434c2.232-0.112,4.479-0.112,6.711,0c1.723,0.083,3.324-0.022,4.109-0.434
	c0.73-0.654,1.139-1.303,1.229-1.979C34.98,16.177,33.74,15.169,32.463,14.441z"/>
<path fill="#E81C27" d="M27.416,17.24c0.779-0.726,1.334-1.436,1.664-2.146c-0.691-0.212-1.389-0.288-2.033-0.209
	C27.17,15.67,27.293,16.455,27.416,17.24z"/>
<path fill="#E81C27" d="M24.586,17.241c0.123-0.785,0.246-1.57,0.369-2.355c-0.645-0.079-1.342-0.003-2.035,0.209
	C23.25,15.805,23.807,16.516,24.586,17.241z"/>
<path fill="#E81C27" d="M32.586,15.758c-0.115-0.132-0.316-0.269-0.561-0.386c-0.281-0.134-0.572-0.208-0.816-0.227
	c-0.066,0.809-0.432,1.601-1.098,2.401c0.301-0.039,0.574-0.09,0.785-0.166c0.762-0.448,1.33-0.884,1.709-1.32
	C32.711,15.996,32.699,15.888,32.586,15.758z"/>
<path fill="#E81C27" d="M20.793,15.146c-0.245,0.019-0.536,0.093-0.816,0.227c-0.503,0.242-0.799,0.556-0.582,0.689
	c0.017,0.013,0.032,0.025,0.048,0.036c0.376,0.425,0.93,0.846,1.662,1.283c0.211,0.076,0.485,0.127,0.787,0.166
	C21.226,16.746,20.859,15.954,20.793,15.146z"/>
<rect x="18.581" y="18.485" fill="#FFE12C" width="14.837" height="2.043"/>
<polygon fill="#014D87" points="18.606,18.901 18.238,19.559 18.709,20.111 19.416,19.414 18.606,18.901 "/>
<polygon fill="#014D87" points="33.395,18.901 32.584,19.414 33.291,20.111 33.762,19.559 33.395,18.901 "/>
<polygon fill="#014D87" points="26,18.449 25.238,19.058 26,19.665 26.762,19.058 26,18.449 "/>
<g>
	<polygon fill="#E81C27" points="22.265,19.797 22.992,19.134 22.202,18.583 21.473,19.244 22.265,19.797 	"/>
</g>
<g>
	<polygon fill="#E81C27" points="29.736,19.797 30.527,19.244 29.799,18.583 29.797,18.583 29.006,19.134 29.736,19.797 	"/>
</g>
<path opacity="0.1" fill="#1A1626" d="M50.736,8.59c4.097,5.131,6.563,11.623,6.563,18.701c0,16.568-13.428,30.004-29.994,30.004
	c-7.101,0-13.609-2.479-18.744-6.594C14.055,57.58,22.502,62,32.003,62c16.565,0,29.995-13.432,29.995-30
	C61.998,22.527,57.595,14.09,50.736,8.59z"/>
<path opacity="0.3" fill-rule="evenodd" clip-rule="evenodd" fill="#FFFFFF" d="M9.734,19.014c0.549,3.865,7.767-3.699,15.08-10.201
	C29.531,4.629,8.083,7.385,9.734,19.014z"/>
</svg>
