<?xml version="1.0" encoding="utf-8"?>
<!-- Generator: Adobe Illustrator 15.0.0, SVG Export Plug-In . SVG Version: 6.00 Build 0)  -->
<!DOCTYPE svg PUBLIC "-//W3C//DTD SVG 1.1//EN" "http://www.w3.org/Graphics/SVG/1.1/DTD/svg11.dtd">
<svg version="1.1" id="Layer_1" xmlns="http://www.w3.org/2000/svg" xmlns:xlink="http://www.w3.org/1999/xlink" x="0px" y="0px"
	 width="64px" height="64px" viewBox="0 0 64 64" enable-background="new 0 0 64 64" xml:space="preserve">
<circle fill="#F5F5F5" cx="32" cy="32" r="30"/>
<path fill="#E81C27" d="M17.771,21.168v-4.063h1.326l0.865,3.092l0.855-3.092h1.33v4.063h-0.84v-3.277l-0.883,3.277h-0.918
	l-0.896-3.277v3.277H17.771 M24.682,17.918l-0.604,1.73h1.209L24.682,17.918 M24.16,17.105h1.035l1.57,4.063h-0.939l-0.297-0.836
	h-1.688l-0.287,0.836h-0.943L24.16,17.105 M29.162,21.168h-0.896v-1.514l-1.582-2.549h1.098l0.932,1.752l0.859-1.752h1.023
	l-1.434,2.549V21.168 M31.711,19.141c0,0.447,0.107,0.795,0.32,1.043c0.213,0.246,0.51,0.369,0.893,0.369
	c0.387,0,0.688-0.123,0.902-0.369c0.215-0.248,0.322-0.596,0.322-1.043s-0.107-0.793-0.322-1.039
	c-0.215-0.248-0.516-0.373-0.902-0.373c-0.383,0-0.68,0.123-0.893,0.369S31.711,18.691,31.711,19.141 M30.797,19.141
	c0-0.656,0.191-1.178,0.574-1.561c0.385-0.387,0.902-0.58,1.553-0.58s1.168,0.193,1.553,0.58c0.387,0.385,0.58,0.906,0.58,1.561
	s-0.193,1.176-0.58,1.563c-0.385,0.385-0.902,0.578-1.553,0.578s-1.168-0.193-1.553-0.578
	C30.988,20.316,30.797,19.795,30.797,19.141 M36.668,21.168V17.83h-1.293v-0.725h3.473v0.725h-1.283v3.338H36.668 M40.264,21.168
	V17.83h-1.291v-0.725h3.471v0.725H41.16v3.338H40.264 M42.959,21.168v-4.063h3.162v0.705h-2.277v0.867h2.082v0.695h-2.082v1.045
	h2.383v0.75H42.959"/>
<path fill="#302C3B" d="M22.73,44.748c-1.258,0.428-3.07,1.301-3.795,1.791c-0.232,0.172-0.213,0.361,0.15,1.086
	c0.256,0.471,0.512,0.873,0.555,0.873c0.063,0,0.766-0.318,1.555-0.723c0.789-0.383,1.795-0.891,2.258-0.98
	c0.354-0.068,0.68-0.135,0.879-0.219c0.08,0.197,0.031,0.088,0.178,0.395c0.211,0.441,0.08,0.432,0.443,0.553
	c0.385,0.127,1.336-0.389,1.336-0.389c1.107-0.383,1.727-0.424,5.711-0.424s4.604,0.041,5.709,0.445c0,0,0.893,0.305,1.008,0.342
	c0.113,0.035,0.174,0.064,0.297,0.035c0.107-0.027,0.221-0.193,0.271-0.295c0,0,0.246-0.59,0.309-0.797
	c0.213,0.104,0.6,0.236,0.975,0.354c0.445,0.148,1.447,0.598,2.236,0.98c0.787,0.404,1.49,0.723,1.557,0.723
	c0.041,0,0.297-0.402,0.553-0.873c0.512-1,0.553-0.914-1.301-1.875c-2.473-1.279-4.943-1.852-5.178-1.234
	c-0.043,0.117-0.078,0.186-0.137,0.338c-0.25-0.059-0.898-0.211-1.547-0.318c-2.004-0.361-7.5-0.361-9.504,0
	c-0.65,0.107-1.092,0.285-1.457,0.389c-0.209-0.416-0.164-0.252-0.207-0.369C25.412,44.127,24.285,44.195,22.73,44.748z"/>
<path fill="#DFDFDF" d="M24.754,44.443c-0.916,0.027-2.633,0.615-4.369,1.498c-1.49,0.746-1.533,0.789-1.129,1.576
	c0.172,0.363,0.363,0.686,0.385,0.727l0.004,0.004c0.08,0.02,0.742-0.273,1.506-0.666c0.811-0.404,1.836-0.85,2.283-0.977
	c0.33-0.119,0.57-0.129,0.865-0.191c-0.053-0.314,0.014-0.045-0.195-0.643c0.24-0.605,0.707-1.131,1.16-1.244
	C25.148,44.465,24.977,44.436,24.754,44.443z"/>
<path fill="#DFDFDF" d="M31.756,44.457c-1.768,0.018-3.506,0.105-4.297,0.227c-1.355,0.225-2.086,0.654-2.586,0.916
	c-0.186,0.137-0.346,0.17-0.547,0.291c0.16,0.359,0.152,0.574,0.287,0.889c0.143,0.33,0.072,0.541,0.461,0.551
	s1.234-0.408,1.234-0.408c1.088-0.383,1.729-0.426,5.691-0.426c3.984,0,4.787,0.125,5.709,0.447c0.668,0.23,0.941,0.412,1.213,0.363
	c0.137-0.025,0.209-0.223,0.305-0.463c0.133-0.328,0.291-0.766,0.369-1.314c-0.209-0.029-0.117,0.076-0.402-0.053
	c-0.617-0.275-0.736-0.295-1.143-0.467c-0.482-0.205-0.936-0.205-1.645-0.336c-0.83-0.129-2.678-0.178-4.48-0.217H31.756z"/>
<path fill="#DFDFDF" d="M39.16,44.461c-0.121,0.002-0.225,0.014-0.309,0.039c0.186,0.117,0.402,0.313,0.523,0.375
	c0.447,0.234,0.445,0.453,0.402,0.854c-0.02,0.186-0.037,0.258-0.109,0.512c0.166,0.076,0.58,0.246,0.922,0.365
	c0.424,0.127,1.447,0.572,2.256,0.977c0.752,0.387,1.408,0.676,1.504,0.666l0.006-0.004h0.006c0.02-0.041,0.211-0.363,0.383-0.727
	c0.277-0.531,0.299-0.721,0.086-0.893c-0.469-0.383-2.367-1.258-3.73-1.727C40.227,44.605,39.586,44.457,39.16,44.461z"/>
<path fill="#DFDFDF" d="M38.623,44.635l-0.039,0.049c-0.066,0.082-0.074,0.164-0.094,0.262c0.143,0.049,0.619,0.346,0.863,0.336
	l0.117-0.012l0.008-0.004l0.002-0.002l0.006-0.006l0.004-0.002l0.002-0.006v-0.002v-0.004v-0.002v-0.004l-0.002-0.01l-0.004-0.004
	l-0.006-0.01c-0.033-0.045-0.137-0.115-0.342-0.23C38.994,44.904,38.762,44.746,38.623,44.635z"/>
<path fill="#DFDFDF" d="M25.393,44.641c-0.141,0.105-0.377,0.252-0.531,0.355c-0.273,0.188-0.314,0.332-0.432,0.59l-0.006,0.016
	v0.004h0.002h0.004c0.039-0.018,0.246-0.205,0.742-0.373c0.426-0.158,0.197-0.08,0.463-0.189c-0.176-0.27-0.197-0.287-0.219-0.354
	L25.393,44.641z"/>
<path fill="#014D87" d="M26.049,24.775c-0.473,0.246-0.719,0.609-0.758,1.102c-0.039,0.531,0.078,0.908,0.383,1.193
	c0.137,0.135,0.254,0.266,0.254,0.297c0,0.027-0.105,0.156-0.234,0.279c-0.305,0.285-0.479,0.66-0.479,1.049
	c0,0.402,0.121,0.682,0.453,1.045l0.271,0.297l-0.299,0.332c-0.596,0.66-0.576,1.418,0.045,2.047l0.266,0.277h6.105h6.098
	l0.299-0.316c0.576-0.615,0.576-1.283,0.006-1.99l-0.291-0.355l0.271-0.324c0.598-0.713,0.584-1.367-0.031-2.055
	c-0.279-0.305-0.287-0.363-0.066-0.504c0.357-0.24,0.578-1.051,0.416-1.543c-0.24-0.738-1.271-1.232-1.9-0.908
	c-0.115,0.059-0.348,0.221-0.523,0.357c-0.176,0.143-0.338,0.252-0.369,0.252c-0.027,0-0.182-0.115-0.344-0.26
	c-0.629-0.537-1.367-0.498-1.996,0.111l-0.24,0.232L33.068,25.1c-0.643-0.604-1.445-0.578-2.102,0.059l-0.238,0.232l-0.26-0.232
	c-0.383-0.35-0.635-0.453-1.074-0.461c-0.422-0.006-0.818,0.17-1.129,0.506l-0.156,0.162l-0.336-0.285
	C27.152,24.549,26.652,24.457,26.049,24.775z"/>
<path fill="#E81C27" d="M25.734,33.074c-0.635,0.707-0.629,1.426,0.014,2.139l0.24,0.266l-0.273,0.299
	c-0.148,0.162-0.311,0.395-0.363,0.512c-0.205,0.498-0.051,1.166,0.357,1.549c0.246,0.24,0.254,0.336,0.02,0.621
	c-0.104,0.123-0.227,0.299-0.271,0.391c-0.486,0.92,0.24,2.072,1.314,2.072c0.428,0,0.752-0.135,1.043-0.447
	c0.234-0.246,0.357-0.252,0.564-0.033c0.305,0.338,0.707,0.545,1.043,0.545c0.396,0,0.641-0.123,1.043-0.504l0.305-0.299
	l0.279,0.305c0.602,0.648,1.211,0.666,2.021,0.051l0.332-0.246l0.283,0.26c0.357,0.311,0.623,0.434,0.973,0.434
	s0.609-0.135,1.018-0.537l0.336-0.324l0.26,0.232c0.5,0.449,0.771,0.592,1.135,0.592c0.375,0,0.641-0.125,1.018-0.461
	c0.35-0.316,0.537-0.688,0.492-0.992c-0.045-0.33-0.344-0.934-0.564-1.141l-0.188-0.182l0.291-0.33
	c0.635-0.744,0.643-1.322,0.014-2.061l-0.26-0.311l0.273-0.33c0.607-0.721,0.602-1.387-0.014-2.041l-0.33-0.346l-6.064,0.008
	l-6.066,0.006L25.734,33.074z"/>
<path fill="#302C3B" d="M24.393,32.234c0,0,0.004,6.063,0.016,8.379c-0.02,0.342,0.18,0.426,0.475,0.652
	c0.477,0.369,0.982,0.756,3.703,0.545c2.5,0.018,3.023,0.209,3.285,1.205l0.141,0.561l0.121-0.561
	c0.193-0.961,0.787-1.188,3.197-1.205c3.105,0.047,3.363-0.148,3.809-0.527c0,0,0.324-0.25,0.408-0.49
	c0.094-0.27,0.049-0.49,0.049-0.49v-8.068V23.74h-7.602h-7.602V32.234z M39.422,32.303l0.033,6.996c0,0.943,0.066,1.232-0.033,1.41
	c-0.1,0.18-0.305,0.42-0.305,0.42c-0.471,0.471-0.871,0.568-3.023,0.539c-1.391,0.004-2.141,0.043-3.236,0.215
	c-0.172,0.154-0.645,0.141-0.863,1.039c-0.285-0.898-0.488-0.857-0.488-0.857c-1.164-0.49-1.684-0.393-3.549-0.412
	c-1.205,0.176-2.498-0.051-2.988-0.541c0,0-0.072,0.02-0.4-0.369c0.002-1.703,0-8.439,0-8.439v-8.387h7.426h7.428V32.303z"/>
<path fill="#F5F5F5" d="M30.928,29.352c0.84,0.541,2.115,0.365,2.762-0.35c0.262-0.297,0.424-0.762,0.49-0.996
	c0.064-0.234,0.078-0.268,0.117-0.5c0.1,0.225,0.156,0.344,0.205,0.691c0.07,0.514-0.043,0.943-0.166,1.258
	c-0.611,1.609-2.568,2.098-3.793,0.945c-0.594-0.543-1.066-1.607-0.807-2.295c0.092-0.242,0.111-0.383,0.23-0.639
	c0.023,0.176,0.035,0.416,0.156,0.783C30.281,28.756,30.561,29.123,30.928,29.352z"/>
<path fill="#FFE12C" d="M29.045,35.66c-0.012,0.377,0.006,0.551,0.064,0.83c-0.189-0.184-0.381-0.311-0.645-0.465
	c-0.336-0.195-0.76-0.381-0.904-0.143c-0.139,0.229,0.26,0.543,0.57,0.719c0.34,0.191,0.537,0.217,0.758,0.305
	c-0.188,0.1-0.443,0.166-0.727,0.348c-0.277,0.178-0.693,0.547-0.535,0.783c0.16,0.238,0.623-0.029,0.885-0.205
	c0.219-0.146,0.506-0.375,0.619-0.494c-0.023,0.17-0.09,0.506-0.084,0.828c0.006,0.393,0.061,0.83,0.352,0.828
	c0.297,0,0.359-0.516,0.355-0.865c-0.004-0.363-0.047-0.621-0.082-0.801c0.129,0.131,0.322,0.32,0.58,0.521
	c0.211,0.166,0.729,0.414,0.885,0.178c0.156-0.242-0.088-0.48-0.541-0.768c-0.316-0.201-0.541-0.27-0.746-0.355
	c0.207-0.086,0.436-0.107,0.77-0.309c0.494-0.303,0.703-0.504,0.553-0.762c-0.146-0.252-0.445-0.115-0.898,0.174
	c-0.242,0.154-0.469,0.357-0.621,0.504c0.033-0.23,0.072-0.57,0.068-0.822c-0.004-0.377-0.086-0.863-0.342-0.863
	C29.123,34.824,29.057,35.246,29.045,35.66z"/>
<path fill="#F5F5F5" d="M29.779,36.908c0,0.219-0.18,0.398-0.398,0.398s-0.398-0.18-0.398-0.398c0-0.221,0.18-0.398,0.398-0.398
	S29.779,36.688,29.779,36.908"/>
<path fill="#FFE12C" d="M34.258,35.66c-0.012,0.377,0.006,0.551,0.066,0.83c-0.191-0.184-0.383-0.311-0.646-0.465
	c-0.336-0.195-0.76-0.381-0.902-0.143c-0.141,0.229,0.258,0.543,0.568,0.719c0.342,0.191,0.537,0.217,0.76,0.305
	c-0.189,0.1-0.443,0.166-0.729,0.348c-0.277,0.178-0.693,0.547-0.535,0.783c0.16,0.238,0.625-0.029,0.887-0.205
	c0.217-0.146,0.506-0.375,0.617-0.494c-0.021,0.17-0.09,0.506-0.084,0.828c0.006,0.393,0.059,0.83,0.352,0.828
	c0.297,0,0.361-0.516,0.355-0.865c-0.004-0.363-0.045-0.621-0.082-0.801c0.129,0.131,0.322,0.32,0.58,0.521
	c0.211,0.166,0.729,0.414,0.885,0.178c0.158-0.242-0.088-0.48-0.541-0.768c-0.316-0.201-0.541-0.27-0.746-0.355
	c0.209-0.086,0.436-0.107,0.77-0.309c0.494-0.303,0.705-0.504,0.553-0.762c-0.146-0.252-0.445-0.115-0.896,0.174
	c-0.242,0.154-0.471,0.357-0.623,0.504c0.033-0.23,0.072-0.57,0.068-0.822c-0.004-0.377-0.086-0.863-0.342-0.863
	C34.336,34.824,34.27,35.246,34.258,35.66z"/>
<path fill="#F5F5F5" d="M34.992,36.908c0,0.219-0.178,0.398-0.398,0.398c-0.219,0-0.398-0.18-0.398-0.398
	c0-0.221,0.18-0.398,0.398-0.398C34.814,36.51,34.992,36.688,34.992,36.908"/>
<path fill="#302C3B" d="M23.383,34.744c-0.447-1.809-1.4-3.215-2.688-4.01c0.652,0.025,1.111-0.01,1.111-0.01l1.451-0.123
	l-1.219-0.795c-0.359-0.234-1.396-1.063-1.436-1.77c-0.01-0.16,0.02-0.406,0.379-0.703l0.889-0.738l-0.994-0.125l0.395-0.951
	l-1.094,0.273l-0.107-0.996l0.406-0.262l-0.861-0.777l-0.793-0.07L17.9,24.049l-0.273-0.822l-0.482,0.752l-0.557-0.764l-0.309,1.232
	l-0.76-0.434l-0.189,0.965l-1.031-0.768l0.086,1.609l-1.549-0.258l0.355,1.199l-1.303-0.096l1.016,1.926l-1.186,0.736l1.697,1.67
	l0.041,0.455l-3.469-0.844l2.059,2.098l-0.563,2.055l2.373,0.189l-0.896,1.857l2.918-0.734l0.721,1.895
	c-0.129-0.035-0.262-0.053-0.398-0.053c-1.615,0-3.035,2.451-3.035,3.934c0,1.406,2.359,3.83,4.775,3.83
	c1.008,0,1.918-0.4,2.707-1.189C23.156,41.982,24.229,38.158,23.383,34.744z M18.023,36.383c0.623,0.576,1.838,1.965,1.889,4.078
	c0.02,0.721-0.424,1.65-1.127,2.371c-0.471,0.482-0.898,0.703-1.121,0.703h-0.002c-1.912-0.363-2.904-1.211-2.793-2.387
	c0.084-0.898,0.746-1.508,0.945-1.508c0.361,0,0.387,0.09,0.428,0.471c0.025,0.215,0.061,0.543,0.381,0.688l0.18,0.063h0.107
	c0.354,0,0.68-0.258,0.852-0.674c0.193-0.467,0.193-1.176-0.391-1.758c-0.188-0.188-0.395-0.326-0.617-0.412L18.023,36.383z"/>
<path fill="#DFDFDF" d="M18.941,24.287l-1.305,0.508l-0.109-0.328l-0.313,0.486l-0.355-0.488l-0.207,0.834l-0.73-0.416l-0.207,1.063
	l-0.813-0.605l0.063,1.168l-1.375-0.23l0.332,1.125l-1.125-0.082l0.813,1.541l-1.041,0.646l1.375,1.354l0.119,1.334L11.619,31.6
	l1.033,1.053l-0.48,1.75l2.5,0.199l-0.75,1.551l2.313-0.582l0.625,1.645l1.131-1.455c0,0,2.391,1.639,2.469,4.779
	c0.043,1.752-1.938,3.75-2.844,3.578c-5.043-0.957-2.922-4.887-1.754-4.887c1.16,0,0.807,1.109,1.014,1.203
	c0.357,0.162,0.926-0.824,0.189-1.561c-1.367-1.367-3.352,1.406-3.352,3.066c0,1.381,3.773,5.143,6.629,2.287
	c4.326-4.326,3.518-12.076-0.863-13.432c-4.357-1.348-3.268-3.246-3.268-3.246c0.451,3.193,5.602,2.768,5.602,2.768
	s-2.838-1.84-1.104-3.277l-0.5-0.063l0.266-0.641l-0.688,0.172l-0.094-0.875l-0.531,0.547l-0.754-0.17l-0.188-0.498l1.48-0.953
	l-0.25-0.227L18.941,24.287z"/>
<path fill="#302C3B" d="M43.35,44.49c0.789,0.789,1.701,1.189,2.709,1.189c2.414,0,4.773-2.424,4.773-3.83
	c0-1.482-1.418-3.934-3.035-3.934c-0.135,0-0.27,0.018-0.398,0.053l0.721-1.895l2.92,0.734l-0.898-1.857l2.373-0.189l-0.563-2.055
	l2.059-2.098l-3.467,0.844l0.041-0.455l1.697-1.67l-1.186-0.736l1.016-1.926l-1.305,0.096l0.355-1.199l-1.549,0.258l0.086-1.609
	l-1.031,0.768l-0.188-0.965l-0.762,0.434l-0.307-1.232l-0.557,0.764l-0.482-0.752L46.1,24.049l-0.924-0.361l-0.793,0.07
	l-0.859,0.777l0.406,0.262l-0.107,0.996l-1.094-0.273l0.395,0.951l-0.996,0.125l0.891,0.738c0.359,0.297,0.389,0.543,0.379,0.703
	c-0.041,0.707-1.076,1.535-1.436,1.77l-1.221,0.795l1.451,0.123c0,0,0.461,0.035,1.111,0.01c-1.285,0.795-2.24,2.201-2.688,4.01
	C39.77,38.158,40.844,41.982,43.35,44.49z M47.246,38.018c-0.223,0.086-0.432,0.225-0.619,0.412
	c-0.582,0.582-0.584,1.291-0.391,1.758c0.174,0.416,0.498,0.674,0.852,0.674h0.107l0.182-0.063c0.318-0.145,0.355-0.473,0.379-0.688
	c0.043-0.381,0.066-0.471,0.428-0.471c0.201,0,0.861,0.609,0.947,1.508c0.109,1.176-0.883,2.023-2.795,2.387h-0.002
	c-0.221,0-0.65-0.221-1.121-0.703c-0.703-0.721-1.145-1.65-1.127-2.371c0.053-2.113,1.268-3.502,1.891-4.078L47.246,38.018z"/>
<path fill="#DFDFDF" d="M45.059,24.287l-0.51,0.045l-0.252,0.227l1.48,0.953l-0.186,0.498l-0.754,0.17l-0.531-0.547l-0.094,0.875
	l-0.688-0.172l0.266,0.641l-0.5,0.063c1.734,1.438-1.104,3.277-1.104,3.277s5.15,0.426,5.602-2.768c0,0,1.09,1.898-3.268,3.246
	c-4.383,1.355-5.189,9.105-0.863,13.432c2.855,2.855,6.629-0.906,6.629-2.287c0-1.66-1.984-4.434-3.352-3.066
	c-0.736,0.736-0.17,1.723,0.189,1.561c0.205-0.094-0.146-1.203,1.014-1.203c1.168,0,3.289,3.93-1.754,4.887
	c-0.906,0.172-2.889-1.826-2.844-3.578c0.078-3.141,2.469-4.779,2.469-4.779l1.129,1.455l0.625-1.645l2.313,0.582l-0.75-1.551
	l2.5-0.199l-0.479-1.75l1.033-1.053l-2.443,0.596l0.119-1.334l1.375-1.354l-1.043-0.646l0.813-1.541l-1.125,0.082l0.334-1.125
	l-1.375,0.23l0.063-1.168l-0.813,0.605l-0.209-1.063l-0.729,0.416l-0.209-0.834l-0.355,0.488l-0.313-0.486l-0.109,0.328
	L45.059,24.287z"/>
<path opacity="0.05" fill="#1A1626" d="M50.736,8.592c4.096,5.129,6.563,11.621,6.563,18.701c0,16.568-13.428,30.002-29.994,30.002
	c-7.102,0-13.609-2.477-18.744-6.594C14.055,57.58,22.502,62,32.002,62c16.566,0,29.996-13.432,29.996-30
	C61.998,22.527,57.594,14.09,50.736,8.592z"/>
<path opacity="0.9" fill-rule="evenodd" clip-rule="evenodd" fill="#FFFFFF" d="M9.734,19.016c0.549,3.865,7.766-3.701,15.08-10.203
	C29.531,4.631,8.082,7.385,9.734,19.016z"/>
</svg>
