<?xml version="1.0" encoding="utf-8"?>
<!-- Generator: Adobe Illustrator 15.0.0, SVG Export Plug-In . SVG Version: 6.00 Build 0)  -->
<!DOCTYPE svg PUBLIC "-//W3C//DTD SVG 1.1//EN" "http://www.w3.org/Graphics/SVG/1.1/DTD/svg11.dtd">
<svg version="1.1" id="Layer_1" xmlns="http://www.w3.org/2000/svg" xmlns:xlink="http://www.w3.org/1999/xlink" x="0px" y="0px"
	 width="64px" height="64px" viewBox="0 0 64 64" enable-background="new 0 0 64 64" xml:space="preserve">
<circle fill="#E81C27" cx="32" cy="32" r="30"/>
<path fill="#FFE12C" d="M49.73,34.299c-1.338-1.148-3.609-0.936-5.219-0.834c1.764-0.938,4.563-2.656,6.488-1.113
	c-1.402-1.926-4.482-1.297-6.412-0.863c1.592-1.195,4.092-3.34,6.233-2.113c-1.679-1.678-4.649-0.592-6.476,0.158
	c1.389-1.43,3.521-3.949,5.834-3.07c-1.928-1.396-4.669,0.148-6.367,1.162c1.141-1.629,2.863-4.445,5.277-3.938
	c-2.14-1.084-4.565,0.891-6.105,2.141c0.881-1.793,2.125-4.824,4.595-4.713c-2.265-0.719-4.407,1.574-5.698,3.082
	c0.58-1.896,1.348-5.115,3.804-5.385c-2.344-0.363-4.114,2.246-5.147,3.936c0.281-1.969,0.53-5.258,2.916-5.914
	c-2.367,0.006-3.718,2.861-4.467,4.691c-0.033-2-0.299-5.273,1.953-6.297c-2.337,0.383-3.223,3.404-3.678,5.332
	c-0.346-1.967-1.122-5.17,0.945-6.523c-2.254,0.74-2.645,3.869-2.8,5.842c-0.646-1.889-1.919-4.932-0.087-6.592
	c-2.109,1.078-2.009,4.238-1.852,6.207c-0.934-1.76-2.664-4.568-1.117-6.494c-1.919,1.391-1.316,4.504-0.855,6.42
	c-1.199-1.596-3.348-4.094-2.121-6.242c-1.672,1.684-0.598,4.646,0.159,6.475c-1.433-1.391-3.946-3.516-3.071-5.832
	c-1.391,1.918,0.137,4.689,1.171,6.371C26,19.047,23.187,17.33,23.688,14.91c-1.068,2.107,0.86,4.615,2.152,6.107
	c-1.792-0.869-4.842-2.131-4.723-4.596c-0.731,2.25,1.578,4.422,3.082,5.695c-1.896-0.578-5.12-1.346-5.385-3.803
	c-0.365,2.338,2.245,4.121,3.935,5.145c-1.966-0.273-5.263-0.529-5.914-2.912c0.001,2.369,2.866,3.713,4.691,4.465
	c-1.993,0.031-5.281,0.305-6.296-1.951c0.375,2.342,3.411,3.215,5.333,3.676c-1.97,0.348-5.168,1.123-6.525-0.943
	c0.738,2.26,3.87,2.637,5.842,2.799c-1.894,0.646-4.926,1.918-6.591,0.088c1.081,2.115,4.235,2,6.207,1.85
	c-1.767,0.932-4.564,2.666-6.496,1.117c1.391,1.91,4.504,1.332,6.42,0.855c-1.59,1.201-4.098,3.35-6.242,2.121
	c1.679,1.68,4.648,0.594,6.475-0.158c-1.388,1.432-3.521,3.949-5.833,3.07c1.921,1.393,4.684-0.137,6.371-1.17
	c-1.149,1.639-2.856,4.441-5.281,3.947c2.113,1.068,4.609-0.863,6.108-2.152c-0.875,1.787-2.13,4.85-4.598,4.723
	c2.255,0.73,4.416-1.578,5.697-3.082c-0.581,1.896-1.346,5.119-3.803,5.385c2.337,0.375,4.121-2.254,5.145-3.936
	c-0.277,1.959-0.528,5.271-2.914,5.914c2.367-0.004,3.717-2.863,4.466-4.691c0.033,1.992,0.301,5.285-1.953,6.297
	c2.338-0.369,3.22-3.412,3.677-5.33c0.343,1.967,1.124,5.168-0.943,6.521c2.255-0.727,2.643-3.877,2.798-5.842
	c0.646,1.889,1.92,4.932,0.088,6.592c2.11-1.076,2.007-4.238,1.85-6.207c0.936,1.764,2.664,4.566,1.118,6.496
	c1.917-1.389,1.32-4.504,0.856-6.42c1.199,1.596,3.347,4.094,2.12,6.242c1.67-1.682,0.603-4.648-0.159-6.477
	c1.434,1.391,3.945,3.52,3.071,5.834c1.392-1.918-0.136-4.688-1.169-6.371c1.633,1.146,4.447,2.861,3.944,5.281
	c1.079-2.127-0.882-4.58-2.143-6.105c1.789,0.875,4.833,2.129,4.714,4.594c0.732-2.254-1.582-4.414-3.082-5.697
	c1.9,0.58,5.113,1.348,5.385,3.803c0.371-2.369-2.261-4.066-3.925-5.145c1.966,0.287,5.251,0.527,5.903,2.914
	c-0.004-2.379-2.862-3.689-4.682-4.467c1.996-0.031,5.27-0.299,6.287,1.953c-0.377-2.357-3.406-3.184-5.322-3.68
	c1.968-0.34,5.16-1.121,6.514,0.947c-0.732-2.25-3.873-2.652-5.842-2.799c1.891-0.654,4.93-1.914,6.592-0.088
	C50.494,34.896,50.121,34.561,49.73,34.299C49.494,34.096,49.981,34.467,49.73,34.299z M32,44c-4.473,0-8.665-2.57-10.697-6.555
	c-2.059-4.039-1.621-9.039,1.105-12.658c2.716-3.607,7.338-5.406,11.778-4.588c4.36,0.803,8.012,4.07,9.298,8.313
	C45.787,36.102,39.927,44,32,44C25.371,44,38.628,44,32,44z"/>
<g>
	<path fill="#FFE12C" d="M24.844,25.023C23.086,26.824,22,29.283,22,32c0,2.023,0.605,3.902,1.639,5.477
		c0.836-3.682,2.471-7.066,4.736-9.936C27.307,26.566,26.115,25.729,24.844,25.023z"/>
</g>
<g>
	<path fill="#FFE12C" d="M31.279,24.432c-0.822-0.678-1.703-1.285-2.611-1.852c-0.416,0.148-0.82,0.318-1.209,0.518
		c1.047,0.635,2.041,1.35,2.965,2.143C30.703,24.965,30.988,24.695,31.279,24.432z"/>
</g>
<g>
	<path fill="#FFE12C" d="M29.763,25.926c-1.006-0.859-2.098-1.617-3.251-2.281c-0.33,0.217-0.645,0.451-0.945,0.705
		c1.221,0.703,2.369,1.52,3.406,2.461C29.229,26.51,29.492,26.215,29.763,25.926z"/>
</g>
<g>
	<path fill="#FFE12C" d="M29.068,28.184c-2.316,2.955-3.947,6.465-4.682,10.291c0.464,0.545,0.986,1.033,1.555,1.469
		c0.381-3.988,1.815-7.674,4.031-10.766C29.682,28.838,29.384,28.502,29.068,28.184z"/>
</g>
<g>
	<path fill="#FFE12C" d="M34.029,29.178c2.216,3.092,3.649,6.777,4.03,10.764c0.568-0.434,1.091-0.924,1.554-1.467
		c-0.734-3.826-2.365-7.336-4.682-10.291C34.617,28.502,34.32,28.838,34.029,29.178z"/>
</g>
<g>
	<path fill="#FFE12C" d="M31.178,29.162c0.283,0.359,0.565,0.723,0.824,1.102c0.258-0.379,0.539-0.74,0.822-1.1
		c-0.266-0.346-0.537-0.684-0.823-1.014C31.715,28.479,31.443,28.818,31.178,29.162z"/>
</g>
<g>
	<path fill="#FFE12C" d="M34.131,22.232C33.443,22.084,32.732,22,32,22s-1.443,0.084-2.131,0.232
		c0.735,0.492,1.453,1.01,2.131,1.576C32.678,23.242,33.396,22.725,34.131,22.232z"/>
</g>
<g>
	<path fill="#FFE12C" d="M31.449,31.16c-0.27-0.416-0.559-0.818-0.86-1.211c-2.128,3.051-3.478,6.68-3.755,10.602
		c0.577,0.35,1.191,0.641,1.838,0.869c-0.002-0.102-0.011-0.203-0.011-0.307C28.661,37.471,29.691,34.072,31.449,31.16z"/>
</g>
<g>
	<path fill="#FFE12C" d="M32.001,26.734c0.282-0.295,0.572-0.582,0.87-0.861c-0.283-0.279-0.574-0.553-0.871-0.816
		c-0.297,0.264-0.588,0.535-0.871,0.814C31.428,26.15,31.718,26.439,32.001,26.734z"/>
</g>
<g>
	<path fill="#FFE12C" d="M33.454,28.41c0.286-0.326,0.569-0.656,0.876-0.965c-0.256-0.301-0.52-0.596-0.79-0.885
		c-0.306,0.285-0.604,0.576-0.892,0.879C32.926,27.754,33.194,28.078,33.454,28.41z"/>
</g>
<g>
	<path fill="#FFE12C" d="M30.461,26.561c-0.271,0.289-0.534,0.582-0.79,0.885c0.308,0.307,0.591,0.637,0.878,0.965
		c0.259-0.332,0.527-0.656,0.805-0.971C31.064,27.137,30.766,26.846,30.461,26.561z"/>
</g>
<g>
	<path fill="#FFE12C" d="M32.001,32.066c-1.519,2.676-2.396,5.758-2.396,9.047c0,0.199,0.013,0.395,0.02,0.59
		C30.387,41.891,31.18,42,32,42s1.614-0.109,2.378-0.297c0.007-0.197,0.02-0.393,0.02-0.59
		C34.397,37.824,33.52,34.742,32.001,32.066z"/>
</g>
<g>
	<path fill="#FFE12C" d="M32.553,31.16c1.758,2.912,2.789,6.311,2.789,9.953c0,0.104-0.01,0.203-0.011,0.307
		c0.646-0.229,1.26-0.521,1.837-0.871c-0.278-3.922-1.629-7.549-3.756-10.6C33.111,30.342,32.822,30.744,32.553,31.16z"/>
</g>
<g>
	<path fill="#FFE12C" d="M33.576,25.242c0.924-0.795,1.918-1.508,2.965-2.145c-0.389-0.199-0.793-0.369-1.209-0.518
		c-0.908,0.566-1.789,1.174-2.611,1.852C33.012,24.695,33.297,24.965,33.576,25.242z"/>
</g>
<g>
	<path fill="#FFE12C" d="M40.361,37.477C41.395,35.902,42,34.023,42,32c0-2.715-1.086-5.176-2.843-6.977
		c-1.272,0.705-2.464,1.543-3.532,2.518C37.892,30.412,39.525,33.795,40.361,37.477z"/>
</g>
<g>
	<path fill="#FFE12C" d="M35.028,26.811c1.037-0.941,2.186-1.758,3.406-2.461c-0.3-0.252-0.616-0.486-0.945-0.703
		c-1.153,0.662-2.245,1.42-3.251,2.279C34.508,26.215,34.771,26.51,35.028,26.811z"/>
</g>
<path opacity="0.1" fill="#1A1626" d="M50.736,8.592c4.097,5.129,6.563,11.621,6.563,18.701c0,16.568-13.428,30.002-29.994,30.002
	c-7.101,0-13.61-2.477-18.745-6.594C14.054,57.58,22.502,62,32.003,62c16.565,0,29.995-13.432,29.995-30
	C61.998,22.527,57.595,14.09,50.736,8.592z"/>
<path opacity="0.3" fill-rule="evenodd" clip-rule="evenodd" fill="#FFFFFF" d="M9.734,19.016c0.549,3.865,7.767-3.701,15.08-10.203
	C29.531,4.631,8.083,7.385,9.734,19.016z"/>
</svg>
