<?xml version="1.0" encoding="utf-8"?>
<!-- Generator: Adobe Illustrator 15.0.0, SVG Export Plug-In . SVG Version: 6.00 Build 0)  -->
<!DOCTYPE svg PUBLIC "-//W3C//DTD SVG 1.1//EN" "http://www.w3.org/Graphics/SVG/1.1/DTD/svg11.dtd">
<svg version="1.1" id="Layer_1" xmlns="http://www.w3.org/2000/svg" xmlns:xlink="http://www.w3.org/1999/xlink" x="0px" y="0px"
	 width="64px" height="64px" viewBox="0 0 64 64" enable-background="new 0 0 64 64" xml:space="preserve">
<path fill="#529320" d="M32,2c-6.159,0-11.882,1.857-16.646,5.041h33.291C43.882,3.857,38.159,2,32,2z"/>
<path fill="#529320" d="M32,62c6.159,0,11.882-1.859,16.646-5.041H15.354C20.118,60.141,25.841,62,32,62z"/>
<path fill="#E81C27" d="M7.048,47.041h50.904c1.777-3.061,3.029-6.461,3.633-10.082H3.415C4.019,40.58,5.271,43.98,7.048,47.041z"/>
<path fill="#302C3B" d="M3,32c0,1.719,0.152,3.4,0.431,5.041h58.139C61.848,35.4,62,33.719,62,32s-0.152-3.402-0.431-5.041H3.431
	C3.152,28.598,3,30.281,3,32z"/>
<path fill="#E81C27" d="M3.415,27.041h58.17c-0.604-3.623-1.855-7.023-3.633-10.082H7.048C5.271,20.018,4.019,23.418,3.415,27.041z"
	/>
<path fill="#FFE12C" d="M12.304,17.041h45.697c-2.338-4.055-5.592-7.51-9.485-10.082H15.484c-1.117,0.738-2.175,1.557-3.181,2.434
	V17.041z"/>
<path fill="#FFE12C" d="M12.304,46.959v7.648c1.006,0.877,2.063,1.695,3.181,2.434h33.031c3.894-2.572,7.147-6.029,9.485-10.082
	H12.304z"/>
<path fill="#F5F5F5" d="M12.631,12.203H9.478C4.828,17.486,2,24.41,2,32c0,7.746,2.944,14.801,7.765,20.123h2.539L32.427,32
	L12.631,12.203z"/>
<path fill="#302C3B" d="M12.304,9.381c-1.006,0.879-1.953,1.82-2.835,2.822L29.265,32L9.469,51.795
	c0.882,1.004,1.829,1.945,2.835,2.822L34.922,32L12.304,9.381z"/>
<polygon fill="#E81C27" points="17.46,33.93 22.839,29.414 16.495,28.348 13.214,21.693 9.93,28.348 3.589,29.414 8.968,33.93 
	7.569,40.633 13.214,37.406 18.855,40.633 "/>
<g id="path40">
	<path fill="#FFE12C" d="M11.341,30.111c0.69,1.502,0.861,1.602,2.586,2.191c1.726,0.592,6.6,1.154,7.079,1.209
		c-0.313-0.313-5.803-4.381-6.931-5.193c-1.126-0.814-1.442-1.182-1.442-1.182s-1.015-1.83-1.367-2.365
		c-0.351-0.537-0.996-1.295-1.847-1.295s-1.367,0.5-1.613,1.387c-0.138,0.037-0.864,0.48-0.838,0.938
		c0.207-0.025,1.527-0.395,1.981,1.094c0.457,1.492,0.482,3.934,0.013,5.139c-0.467,1.207-1.195,2.119-1.195,3.178
		c0,0.148,0.099,0.443,0.345,0.443C8.2,36.125,8.89,39.463,8.89,39.463h9.831l1.562-6.035"/>
</g>
<g id="path44">
	<path fill="#FFE12C" d="M11.341,30.111c0.69,1.502,0.861,1.602,2.586,2.191c1.726,0.592,6.6,1.154,7.079,1.209
		c-0.313-0.313-5.803-4.381-6.931-5.193c-1.126-0.814-1.442-1.182-1.442-1.182s-1.015-1.83-1.367-2.365
		c-0.351-0.537-0.996-1.295-1.847-1.295s-1.367,0.5-1.613,1.387c-0.138,0.037-0.864,0.48-0.838,0.938
		c0.207-0.025,1.527-0.395,1.981,1.094c0.457,1.492,0.482,3.934,0.013,5.139c-0.467,1.207-1.195,2.119-1.195,3.178
		c0,0.148,0.099,0.443,0.345,0.443C8.2,36.125,8.89,39.463,8.89,39.463h9.831l1.562-6.035"/>
	<path fill="#302C3B" d="M18.721,39.563H8.89c-0.048,0-0.088-0.033-0.098-0.08c-0.007-0.031-0.636-3.074-0.765-3.738
		c-0.254-0.057-0.36-0.361-0.36-0.533c0-0.725,0.33-1.385,0.681-2.082c0.18-0.359,0.365-0.729,0.521-1.133
		c0.451-1.156,0.444-3.574-0.015-5.072c-0.394-1.289-1.453-1.098-1.8-1.037c-0.031,0.006-0.057,0.01-0.074,0.014
		c-0.026,0-0.055-0.006-0.076-0.023c-0.021-0.018-0.034-0.043-0.035-0.07c-0.028-0.494,0.629-0.914,0.854-1.018
		c0.274-0.938,0.845-1.412,1.696-1.412c0.872,0,1.531,0.729,1.931,1.34c0.35,0.531,1.326,2.291,1.37,2.371l0,0
		c0.003,0,0.336,0.369,1.414,1.148c1.072,0.773,6.623,4.885,6.942,5.203c0.03,0.031,0.038,0.076,0.02,0.115
		s-0.059,0.057-0.102,0.057c-0.095-0.012-0.32-0.037-0.637-0.076l-1.54,5.953C18.806,39.531,18.767,39.563,18.721,39.563z
		 M8.971,39.363h9.673l1.514-5.854c-1.595-0.197-4.906-0.648-6.263-1.113c-1.725-0.59-1.938-0.705-2.645-2.244
		c-0.023-0.051-0.001-0.109,0.049-0.133c0.051-0.023,0.109,0,0.133,0.049c0.679,1.477,0.824,1.557,2.527,2.139
		c1.505,0.518,5.471,1.016,6.724,1.166c-1.132-0.895-5.539-4.162-6.666-4.975c-1.123-0.813-1.446-1.182-1.46-1.197
		c-0.021-0.035-1.028-1.85-1.375-2.375c-0.305-0.467-0.938-1.25-1.763-1.25c-0.775,0-1.271,0.43-1.517,1.313
		c-0.01,0.035-0.036,0.061-0.07,0.07c-0.109,0.029-0.662,0.369-0.753,0.721c1.024-0.16,1.678,0.238,1.966,1.186
		c0.47,1.533,0.475,4.014,0.01,5.203c-0.159,0.412-0.347,0.787-0.528,1.148c-0.354,0.707-0.66,1.316-0.66,1.994
		c0,0.1,0.071,0.344,0.245,0.344c0.048,0,0.089,0.033,0.099,0.08C8.29,36.059,8.866,38.852,8.971,39.363z"/>
</g>
<g id="path46">
	<path fill="#FFE12C" d="M8.111,35.654c0,0,2.096-0.121,2.661-0.121c0.568,0,5.845,0.006,8.786,0.688"/>
	<path fill="#302C3B" d="M19.559,36.32c-0.008,0-0.015,0-0.022-0.002c-2.813-0.652-7.794-0.686-8.764-0.686
		c-0.556,0-2.635,0.119-2.655,0.121c-0.057,0.004-0.103-0.039-0.105-0.094c-0.003-0.057,0.039-0.104,0.094-0.105
		c0.086-0.006,2.105-0.121,2.667-0.121c0.974,0,5.975,0.033,8.809,0.689c0.054,0.012,0.088,0.066,0.075,0.119
		C19.646,36.289,19.604,36.32,19.559,36.32z"/>
</g>
<g id="path48">
	<path fill="#FFE12C" d="M8.854,35.613c0,0-0.21-0.254-0.075-0.758c0.135-0.506,1.613-1.813,1.613-3.66"/>
	<path fill="#302C3B" d="M8.853,35.713c-0.028,0-0.057-0.012-0.076-0.037c-0.01-0.012-0.241-0.299-0.095-0.846
		c0.044-0.166,0.197-0.381,0.408-0.678c0.479-0.67,1.202-1.684,1.202-2.957c0-0.057,0.044-0.1,0.1-0.1s0.1,0.043,0.1,0.1
		c0,1.338-0.745,2.383-1.238,3.074c-0.185,0.258-0.343,0.48-0.378,0.611c-0.118,0.441,0.049,0.66,0.057,0.67
		c0.033,0.043,0.027,0.105-0.016,0.139C8.897,35.705,8.875,35.713,8.853,35.713z"/>
</g>
<g id="path50">
	<path fill="#FFE12C" d="M10.119,35.533c0,0-0.171-0.824,1.715-1.527c0.529-0.162,2.044-1.012,2.093-1.703"/>
	<path fill="#302C3B" d="M10.118,35.633c-0.046,0-0.087-0.033-0.097-0.08c-0.008-0.037-0.166-0.916,1.777-1.641
		c0.568-0.174,1.985-1.006,2.028-1.617c0.004-0.053,0.048-0.092,0.1-0.092c0.002,0,0.005,0,0.007,0
		c0.056,0.004,0.097,0.051,0.093,0.105c-0.054,0.758-1.628,1.629-2.163,1.793c-1.758,0.654-1.647,1.404-1.646,1.412
		c0.009,0.055-0.026,0.105-0.08,0.117C10.132,35.631,10.125,35.633,10.118,35.633z"/>
</g>
<g id="path52">
	<path fill="#FFE12C" d="M11.634,34.084c0,0,4.623,0.02,8.283,0.76"/>
	<path fill="#302C3B" d="M19.917,34.943c-0.007,0-0.013,0-0.02-0.002c-3.609-0.73-8.218-0.758-8.264-0.758
		c-0.056,0-0.101-0.045-0.1-0.1c0-0.057,0.045-0.1,0.1-0.1l0,0c0.047,0,4.675,0.027,8.303,0.762c0.055,0.01,0.09,0.063,0.078,0.117
		C20.006,34.91,19.964,34.943,19.917,34.943z"/>
</g>
<g id="path54">
	<path fill="#FFE12C" d="M12.791,33.531c0,0,1.59,0.055,1.847-0.02c0.26-0.074,0.719-0.266,0.9-0.809"/>
	<path fill="#302C3B" d="M13.851,33.65c-0.468,0-0.97-0.016-1.063-0.02c-0.055-0.002-0.098-0.049-0.096-0.104s0.046-0.096,0.1-0.096
		c0.001,0,0.002,0,0.004,0c0.632,0.021,1.639,0.035,1.815-0.016c0.295-0.086,0.678-0.283,0.833-0.744
		c0.017-0.053,0.078-0.084,0.126-0.064c0.053,0.018,0.081,0.074,0.063,0.127c-0.145,0.432-0.479,0.732-0.968,0.873
		C14.55,33.641,14.211,33.65,13.851,33.65z"/>
</g>
<g id="path56">
	<path fill="#FFE12C" d="M13.732,33.551c0,0,0.851-0.443,1.017-1.016"/>
	<path fill="#302C3B" d="M13.732,33.65c-0.036,0-0.07-0.02-0.089-0.055c-0.025-0.049-0.006-0.109,0.043-0.135
		c0.008-0.004,0.814-0.43,0.967-0.955c0.016-0.051,0.065-0.084,0.124-0.066c0.053,0.014,0.083,0.07,0.067,0.123
		c-0.176,0.605-1.03,1.057-1.066,1.076C13.764,33.646,13.748,33.65,13.732,33.65z"/>
</g>
<g id="path58">
	<path fill="#FFE12C" d="M11.167,39.463c0,0-0.363-2.52-0.436-3.93l0.949,0.904l1.002-0.875l0.863,0.92l0.999-0.848l0.86,0.969
		l0.988-0.84l0.786,0.916l0.986-0.713l1.172,1.113"/>
	<path fill="#302C3B" d="M11.167,39.563c-0.049,0-0.092-0.035-0.099-0.086c-0.004-0.025-0.365-2.541-0.437-3.939
		c-0.002-0.041,0.021-0.078,0.058-0.096c0.04-0.016,0.082-0.01,0.111,0.02l0.883,0.84l0.934-0.814
		c0.038-0.035,0.101-0.033,0.139,0.008l0.798,0.85l0.927-0.785c0.04-0.035,0.102-0.031,0.14,0.01l0.795,0.895l0.914-0.775
		c0.042-0.035,0.104-0.029,0.141,0.01l0.726,0.848l0.912-0.66c0.039-0.027,0.093-0.023,0.128,0.01l1.172,1.113
		c0.04,0.037,0.041,0.102,0.003,0.141s-0.101,0.043-0.142,0.004l-1.111-1.057l-0.919,0.664c-0.041,0.031-0.101,0.023-0.135-0.016
		l-0.721-0.84L15.47,36.68c-0.041,0.033-0.103,0.031-0.14-0.01l-0.795-0.896l-0.925,0.785c-0.041,0.033-0.102,0.029-0.138-0.008
		l-0.797-0.85l-0.93,0.811c-0.038,0.035-0.097,0.033-0.135-0.002l-0.765-0.729c0.097,1.418,0.416,3.643,0.419,3.666
		c0.008,0.055-0.029,0.105-0.084,0.113C11.177,39.563,11.172,39.563,11.167,39.563z"/>
</g>
<g id="path60">
	<path fill="#FFE12C" d="M19.131,37.875c-3.521-0.506-8.229-0.471-8.229-0.471"/>
	<path fill="#302C3B" d="M19.131,37.975c-0.005,0-0.01,0-0.015-0.002c-3.473-0.498-8.167-0.469-8.213-0.469h-0.001
		c-0.055,0-0.1-0.045-0.1-0.1c-0.001-0.055,0.044-0.1,0.099-0.1c0.042-0.004,4.756-0.031,8.244,0.471
		c0.055,0.008,0.092,0.059,0.084,0.113C19.223,37.939,19.18,37.975,19.131,37.975z"/>
</g>
<g id="path62">
	<path fill="#FFE12C" d="M9.266,28.695c0,0,2.864-1.367,3.367-1.559"/>
	<path fill="#302C3B" d="M9.266,28.795c-0.037,0-0.073-0.021-0.09-0.057c-0.024-0.051-0.003-0.109,0.047-0.133
		c0.117-0.057,2.874-1.371,3.375-1.563c0.051-0.018,0.108,0.006,0.129,0.059c0.02,0.051-0.007,0.109-0.059,0.129
		c-0.493,0.188-3.331,1.541-3.359,1.555C9.295,28.791,9.28,28.795,9.266,28.795z"/>
</g>
<g id="polyline66">
	<polyline fill="#FFE12C" points="10.81,36.531 11.771,37.406 12.641,36.537 13.521,37.445 14.47,36.604 15.344,37.523 
		16.329,36.711 17.136,37.65 18.116,36.9 19.149,37.811 	"/>
	<path fill="#302C3B" d="M19.149,37.91c-0.023,0-0.047-0.008-0.066-0.025l-0.972-0.855l-0.915,0.699
		c-0.042,0.033-0.103,0.025-0.137-0.014l-0.742-0.865l-0.91,0.75c-0.041,0.033-0.101,0.031-0.136-0.008l-0.808-0.85l-0.877,0.777
		c-0.042,0.035-0.103,0.033-0.139-0.006L12.64,36.68l-0.798,0.797c-0.039,0.037-0.099,0.039-0.138,0.004l-0.962-0.875
		c-0.041-0.037-0.044-0.102-0.007-0.143s0.101-0.043,0.142-0.006l0.892,0.811l0.802-0.801c0.019-0.02,0.044-0.029,0.07-0.029h0.001
		c0.026,0,0.052,0.01,0.071,0.029l0.813,0.84l0.878-0.779c0.041-0.035,0.102-0.033,0.139,0.006l0.81,0.854l0.914-0.754
		c0.043-0.033,0.104-0.027,0.14,0.012l0.745,0.869l0.905-0.693c0.036-0.029,0.089-0.027,0.127,0.004l1.033,0.91
		c0.041,0.037,0.045,0.1,0.009,0.143C19.205,37.898,19.177,37.91,19.149,37.91z"/>
</g>
<g id="circle68">
	<circle fill="#FFE12C" cx="13.541" cy="34.867" r="0.383"/>
	<path fill="#302C3B" d="M13.541,35.35c-0.267,0-0.483-0.217-0.483-0.482c0-0.268,0.217-0.482,0.483-0.482
		c0.266,0,0.48,0.215,0.48,0.482C14.021,35.133,13.807,35.35,13.541,35.35z M13.541,34.584c-0.156,0-0.284,0.127-0.284,0.283
		c0,0.158,0.125,0.283,0.284,0.283c0.155,0,0.281-0.127,0.281-0.283S13.696,34.584,13.541,34.584z"/>
</g>
<g id="circle70">
	<circle fill="#FFE12C" cx="15.151" cy="34.976" r="0.382"/>
	<path fill="#302C3B" d="M15.151,35.457c-0.266,0-0.48-0.217-0.48-0.482s0.215-0.48,0.48-0.48s0.481,0.215,0.481,0.48
		S15.417,35.457,15.151,35.457z M15.151,34.693c-0.155,0-0.281,0.125-0.281,0.281s0.126,0.283,0.281,0.283s0.282-0.127,0.282-0.283
		S15.307,34.693,15.151,34.693z"/>
</g>
<g id="circle72">
	<circle fill="#FFE12C" cx="9.151" cy="24.659" r="0.296"/>
	<path fill="#302C3B" d="M9.151,25.055c-0.218,0-0.395-0.178-0.395-0.396s0.177-0.395,0.395-0.395c0.217,0,0.393,0.176,0.393,0.395
		S9.368,25.055,9.151,25.055z M9.151,24.463c-0.107,0-0.195,0.088-0.195,0.195s0.088,0.197,0.195,0.197
		c0.108,0,0.193-0.088,0.193-0.197S9.26,24.463,9.151,24.463z"/>
</g>
<path opacity="0.1" fill="#1A1626" d="M50.737,8.59c4.097,5.131,6.563,11.623,6.563,18.701c0,16.568-13.429,30.004-29.995,30.004
	c-7.1,0-13.609-2.479-18.744-6.594C14.055,57.58,22.503,62,32.004,62c16.565,0,29.994-13.432,29.994-30
	C61.998,22.527,57.596,14.09,50.737,8.59z"/>
<path opacity="0.3" fill-rule="evenodd" clip-rule="evenodd" fill="#FFFFFF" d="M9.734,19.014c0.549,3.865,7.768-3.699,15.08-10.201
	C29.531,4.629,8.084,7.385,9.734,19.014z"/>
</svg>
