<?xml version="1.0" encoding="utf-8"?>
<!-- Generator: Adobe Illustrator 15.0.0, SVG Export Plug-In . SVG Version: 6.00 Build 0)  -->
<!DOCTYPE svg PUBLIC "-//W3C//DTD SVG 1.1//EN" "http://www.w3.org/Graphics/SVG/1.1/DTD/svg11.dtd">
<svg version="1.1" id="Layer_1" xmlns="http://www.w3.org/2000/svg" xmlns:xlink="http://www.w3.org/1999/xlink" x="0px" y="0px"
	 width="64px" height="64px" viewBox="0 0 64 64" enable-background="new 0 0 64 64" xml:space="preserve">
<path fill="#E81C27" d="M32,2C21.316,2,11.943,7.59,6.628,16h50.745C52.058,7.59,42.685,2,32,2z"/>
<path fill="#014D87" d="M6.628,16C3.701,20.632,2,26.115,2,32h60c0-5.885-1.7-11.368-4.627-16H6.628z"/>
<path fill="#529320" d="M6.628,48C11.943,56.41,21.316,62,32,62c10.685,0,20.058-5.59,25.373-14H6.628z"/>
<path fill="#FFE12C" d="M57.373,48C60.3,43.367,62,37.885,62,32H2c0,5.885,1.701,11.367,4.628,16H57.373z"/>
<path opacity="0.1" fill="#1A1626" d="M50.737,8.592c4.097,5.129,6.563,11.621,6.563,18.701c0,16.568-13.429,30.002-29.995,30.002
	c-7.101,0-13.609-2.477-18.744-6.594C14.055,57.58,22.503,62,32.004,62c16.565,0,29.994-13.432,29.994-30
	C61.998,22.527,57.596,14.09,50.737,8.592z"/>
<path opacity="0.3" fill-rule="evenodd" clip-rule="evenodd" fill="#FFFFFF" d="M9.734,19.016c0.549,3.865,7.767-3.701,15.08-10.203
	C29.531,4.631,8.083,7.385,9.734,19.016z"/>
</svg>
