<?xml version="1.0" encoding="utf-8"?>
<!-- Generator: Adobe Illustrator 15.0.0, SVG Export Plug-In . SVG Version: 6.00 Build 0)  -->
<!DOCTYPE svg PUBLIC "-//W3C//DTD SVG 1.1//EN" "http://www.w3.org/Graphics/SVG/1.1/DTD/svg11.dtd">
<svg version="1.1" id="Layer_1" xmlns="http://www.w3.org/2000/svg" xmlns:xlink="http://www.w3.org/1999/xlink" x="0px" y="0px"
	 width="64px" height="64px" viewBox="0 0 64 64" enable-background="new 0 0 64 64" xml:space="preserve">
<path fill="#014D87" d="M32,2v10H12v20H2c0,16.568,13.432,30,30,30s30-13.432,30-30S48.568,2,32,2z"/>
<path fill="#F5F5F5" d="M32,2c-4.693,0-9.131,1.088-13.088,3.012v3.127V11H11v2.912V14v4.912H5.011C3.088,22.869,2,27.305,2,32h12
	V17l12,15h6v-7.5L23.602,14H32V2z"/>
<polygon fill="#E81C27" points="15.429,14 30,32 32,32 32,27.059 21.429,14 "/>
<path fill="#E81C27" d="M32,5H18.912C12.857,7.939,7.94,12.857,5,18.912V32h6V11h21V5z"/>
<g id="path52_1_">
	<path fill="#0FB4D4" d="M57.91,29.221c-0.02,7.375-1.184,15.322-10.732,19.107c-9.547-3.785-10.711-11.732-10.732-19.107H57.91z"/>
</g>
<g id="path56_1_">
	<path fill="#014D87" d="M47.178,48.328c4.328-1.715,6.934-4.287,8.492-7.271c-0.234,0.006-0.723-0.006-0.934-0.021
		c-0.236-0.016-9.154-0.91-10.211-1.299c-0.92-0.336-4.426,0.287-6.063,0.871C39.988,43.783,42.635,46.527,47.178,48.328z"/>
</g>
<g id="path60_1_">
	<path fill="#E81C27" d="M40.504,43.756c0.146-0.047,2.584,0.387,2.973-0.25c0.363-0.598-1.152-1.875-1.098-2.572
		c0.016-0.205,0.248-0.619,0.438-0.703c0.428-0.193,1.732,0.293,1.791-0.553c0.105-1.506-1.199-2.705-1.592-4.055
		c-0.25-0.857-0.301-1.719-0.377-2.604c-0.033-0.393-0.076-0.609-0.512-0.738c-0.533-0.156-0.479-0.6-0.664-1.09
		c-0.246,0.039-0.705,0.383-0.705,0.646c0,0.896-0.82,0.947-1.184,1.561c-0.342-0.416-0.498-1.139-0.846-1.49
		c-0.375-0.381-0.482-0.447-0.389-1.01c-0.582-0.48-0.615,0.289-1.02,0.48c-0.121,0.154-0.482,0.537-0.777,0.994
		C36.813,36.457,37.732,40.512,40.504,43.756C40.65,43.709,40.504,43.756,40.504,43.756z"/>
</g>
<g id="path64">
	<path fill="#FFE12C" d="M57.91,29.221c0.008-2.779-0.146-5.477-0.074-7.842c-3.568-1.598-8.266-1.926-10.658-1.926
		c-2.395,0-7.088,0.328-10.656,1.926c0.07,2.365-0.082,5.063-0.076,7.842H57.91z"/>
</g>
<g id="path340">
	<path fill="#302C3B" d="M49.598,39.9c-1.361,0.025-2.748,0.025-3.688-0.115c-0.938-0.143-1.234-0.275-1.879-0.658
		c-0.961-0.576-1.197-0.717-2.559-1.514c-0.207-0.123-0.434,0.027-0.141,0.223c1.375,0.902,1.895,1.238,2.549,1.666
		c0.68,0.447,2.723,1.689,2.723,1.689h8.133l1.338-2.664c0.012-0.152-0.059-0.387-0.105-0.48c-1.479,0.059-2.93,0.104-3.967,0.129
		c-0.119,0.094-0.246,0.34-0.27,0.494c-0.633,0.104-1.01,0.15-1.174,0.186C50.395,38.893,49.762,39.689,49.598,39.9z"/>
</g>
<g id="path924">
	<path fill="#E81C27" d="M44.721,21.281c-0.359,0.01-1.135,0.018-1.299,0.109c-0.162,0.092-0.234,0.133,0.051,0.184
		c0.287,0.051,0.77,0.186,1.035,0.35c0.264,0.164,0.488,0.453,0.414,0.865c-0.219,1.238,0.43,2.43,1.367,2.881
		c0.09,0.043,0.111,0.076,0.094,0.244c-0.021,0.168-0.082,0.449-0.135,0.52c-0.051,0.072-0.076,0.189,0.088,0.133
		c-0.113,0.211-0.363,0.629-0.438,0.736c-0.752-0.092-1.365,0.01-1.42,0.795c-0.006,0.078,0.02,0.199,0.137,0.008
		c0.119-0.195,0.25-0.379,0.572-0.432c-0.189,0.293-0.252,0.553-0.221,0.721c0.031,0.17,0.078,0.271,0.16,0.057
		s0.23-0.416,0.391-0.535c0.063-0.047,0.104-0.057,0.057,0.076c-0.045,0.133,0.021,0.418,0.113,0.516s0.139,0.057,0.113-0.104
		c-0.025-0.156,0.012-0.488,0.207-0.592c0.281-0.146,0.521-0.072,0.633,0.123c0.113,0.193,0.211,0.01,0.088-0.209
		s-0.252-0.373-0.453-0.389c0.176-0.316,0.387-0.699,0.432-0.775c0.047-0.078,0.119-0.113,0.178-0.066
		c0.061,0.045,0.102,0.041,0.164-0.086c0.061-0.129,0.17-0.508,0.322-0.66c0.074-0.02,0.197-0.049,0.244-0.09
		c0.199,0.289,0.377,0.611,0.424,0.682c0.045,0.072,0.096,0.104,0.051,0.25c-0.047,0.15-0.203,0.619-0.229,0.721
		c-0.557,0.021-0.813,0.031-0.992,0.342c-0.076,0.137,0.047,0.189,0.18,0.117c0.133-0.07,0.322-0.131,0.418-0.117
		c0.098,0.016,0.143,0.066,0.047,0.113c-0.342,0.168-0.555,0.383-0.541,0.678c0.004,0.107,0.051,0.162,0.133,0.016
		c0.117-0.203,0.33-0.406,0.592-0.463c-0.016,0.25,0.041,0.617,0.191,0.693c0.154,0.076,0.164-0.002,0.109-0.148
		c-0.094-0.236,0.004-0.471,0.117-0.598c0.24-0.266,0.787,0.104,0.887,0.195c0.104,0.092,0.195,0.129,0.139-0.107
		c-0.076-0.318-0.525-0.5-0.908-0.551c0.107-0.518,0.393-1.559,0.547-1.916c0.223,0.123,0.4-0.199,0.773-0.061
		c0.633,0.234,1.582,0.826,1.746,0.959s0.223,0.102,0.305,0.031c0.082-0.072,0.227,0,0.34,0.02c0.109,0.021,0.211,0.051,0.068-0.234
		c-0.141-0.285-0.49-0.785-1.068-1.174c0.346,0.031,0.814,0.031,0.814-0.061s-0.541-0.268-0.766-0.287
		c0.215-0.051,0.543-0.174,0.693-0.346c0.09-0.104-0.018-0.129-0.336-0.133c-0.979-0.021-1.469-0.014-1.979-0.307
		c-0.818-0.471-1.283-0.965-1.684-1.176c-0.215-0.111-0.346-0.371-0.428-0.596c-0.266-0.715-0.252-1.037-0.875-1.271
		S45.047,20.984,44.721,21.281z"/>
</g>
<path opacity="0.1" fill="#1A1626" d="M50.738,8.591c4.096,5.13,6.563,11.622,6.563,18.701c0,16.568-13.43,30.003-29.996,30.003
	c-7.1,0-13.609-2.478-18.744-6.594C14.055,57.58,22.504,62,32.004,62c16.566,0,29.994-13.432,29.994-30
	C61.998,22.527,57.596,14.09,50.738,8.591z"/>
<path opacity="0.3" fill-rule="evenodd" clip-rule="evenodd" fill="#FFFFFF" d="M9.734,19.015c0.549,3.865,7.768-3.7,15.08-10.202
	C29.531,4.63,8.084,7.385,9.734,19.015z"/>
</svg>
