<?xml version="1.0" encoding="utf-8"?>
<!-- Generator: Adobe Illustrator 15.0.0, SVG Export Plug-In . SVG Version: 6.00 Build 0)  -->
<!DOCTYPE svg PUBLIC "-//W3C//DTD SVG 1.1//EN" "http://www.w3.org/Graphics/SVG/1.1/DTD/svg11.dtd">
<svg version="1.1" id="Layer_1" xmlns="http://www.w3.org/2000/svg" xmlns:xlink="http://www.w3.org/1999/xlink" x="0px" y="0px"
	 width="64px" height="64px" viewBox="0 0 64 64" enable-background="new 0 0 64 64" xml:space="preserve">
<circle fill="#529320" cx="32" cy="32" r="30"/>
<g>
	<g>
		<path fill-rule="evenodd" clip-rule="evenodd" fill="#F5F5F5" d="M31.673,26.652c-0.124-0.854,0.38-1.752,1.345-1.611
			c0.693,0.1,1.494,0.795,1.076,1.545c-0.62,1.113-2.215,1.143-3.238,1.66c0.11,0.58,3.044-0.119,3.496-0.109
			c0.467,0.012,1.018,0.242,0.686,0.803c-0.341,0.572-1.312,0.611-1.89,0.691c-0.593,0.082-1.553,0.102-1.946,0.641
			c-0.563,0.77,0.553,0.914,0.984,1.148c0.969,0.529-0.568,0.975-1.023,0.887c-1.501-0.295-1.774-1.137-2.725-2.117
			c-0.895,1.154-3.68,3.864-4.334,1.082c-1.033,0.354-2.027,0.861-3.123,0.998c0.467-0.744,1.533-1.027,2.266-1.418
			c0.955-0.51,1.036-1.395,1.564-2.234c0.157,0.346,0.006,0.709,0.092,1.063c0.828-0.406,1.805-1.203,1.385-2.217
			c-0.047-0.113-1.215-2.471-0.206-2.051c0.893,0.373,0.643,1.26,0.784,1.984c0.253,1.293-0.313,2.02-1.271,2.758
			c-0.421,0.324-1.459,1.467-0.172,1.455c0.9-0.01,1.725-0.963,2.203-1.633c0.586-0.82,0.377-1.604,0.033-2.488
			c-0.252-0.652-1.004-2.25-0.076-2.707c0.713,1.115,1.036,2.438,1.251,3.727c0.185,1.104,0.431,2.17,1.632,2.535
			c-0.146-0.811,0.412-1.363,1.09-1.688c-0.473-0.445-3.316,0.15-2.235-1.416C29.684,27.41,31.731,27.054,31.673,26.652z"/>
	</g>
	<g>
		<path fill-rule="evenodd" clip-rule="evenodd" fill="#F5F5F5" d="M16.404,30.4c0.452,1.361,2.217,0.938,3.178,0.475
			c1.602-0.771,1.584-1.982,1.584-3.563c-0.572,0.291-0.465,1.43-0.742,1.936c-0.419,0.766-1.71,1.516-2.589,1.385
			c-1.28-0.191-1.932-2.398-0.89-3.213c0.25,0.746-0.285,2.16,0.888,2.293c0.865,0.1,2.671-0.961,2.409-1.996
			c-1.152,0.35-1.908,0.021-1.545-1.336c0.326-1.221,1.539-0.342,1.969,0.301c1.902-1.076-1.524-5.268,0.463-6.393
			c0.408,0.701,0.976,1.615,0.475,2.316c-0.574,0.803,0.029,2.541,0.092,3.443c1.009-0.861,0.24,0.695,1.008,0.793
			c0.545,0.068,0.709-1.246,1.02-1.213c0.065,0.256,0.123,1.217,0.594,1.059c0.561-0.186-0.104-0.986,0.527-1.197
			c0.187,0.455,0.146,1.98-0.645,1.865c-0.637-0.094-0.537-0.502-1.187-0.096c-0.553,0.346-0.764-0.049-1.218-0.254
			c-0.141,1.209,0.268,2.537-0.434,3.637c-0.591,0.928-1.757,1.357-2.789,1.555c-2.623,0.506-3.348-2.082-2.369-4.168
			C16.567,28.632,16.176,29.708,16.404,30.4C16.723,31.359,16.166,29.681,16.404,30.4z"/>
	</g>
	<g>
		<path fill-rule="evenodd" clip-rule="evenodd" fill="#F5F5F5" d="M40.754,30.912c0.544,1.309,1.536-1.398,1.807-1.805
			c0.809-1.219,1.969,1.926,2.501-0.086c0.334-1.26-0.08-2.605-0.181-3.869c-0.073-0.93-0.402-1.656-0.962-2.391
			c-0.577-0.76-1.212-1.475-0.853-2.488c0.975,0.379,0.984,1.195,1.5,1.955c0.142-0.598-0.329-1.355,0.054-1.922
			c0.453-0.672,0.88,1.186,0.925,1.387c0.118,0.535-0.411,0.699-0.094,1.455c0.248,0.592,0.604,1.195,1.016,1.689
			c-0.081-0.553-1.016-4.664,0.035-4.748c0.305-0.025,0.572,1.166,0.62,1.359c0.157,0.633-0.181,1.135-0.218,1.771
			c-0.07,1.195,0.14,2.553,0.864,3.531c0.358,0.484,1.901,2.293,1.112,2.885c-0.559-0.713-1.007-1.504-1.533-2.238
			c0,0.758,0.186,1.652-0.244,2.336c-0.392-0.174-0.168-1.473-0.164-1.805c0.012-1.109-0.712-2.049-1.318-2.904
			c-0.169,1.463,0.95,4.311-0.356,5.434c-0.942,0.811-2.054-0.963-2.416-0.322c-0.281,0.494-0.981,2.299-1.752,2.129
			c-0.97-0.213-1.727-2.99-0.608-3.332C40.53,29.591,40.493,30.291,40.754,30.912C41.23,32.058,40.491,30.287,40.754,30.912z"/>
	</g>
	<g>
		<path fill-rule="evenodd" clip-rule="evenodd" fill="#F5F5F5" d="M19.414,24.134c0.697,0.098-0.027-2.271,0.024-2.662
			c0.056-0.41,0.419-0.629,0.628-0.182c0.271,0.58,0.312,1.297,0.365,1.926c0.047,0.533,0.074,1.082-0.318,1.508
			c-0.596,0.646-1.395,0.256-1.67-0.469c-1.37,1.238,0.438,3.258-0.773,4.52c-0.189-1.051,0.047-2.293-0.396-3.289
			c-0.239-0.537-1.146-0.32-1.212-1.244c-0.029-0.428,0.27-1.465-0.074-1.799c-0.18,0.439-0.389,3.469-1.436,2.639
			c-0.77-0.609-0.604-2.594-0.297-3.406c0.619,0.336-0.123,2.48,0.653,2.588c0.388,0.053,0.474-1.623,0.637-1.926
			c0.251-0.461,1.302-1.883,1.101-0.506c-0.093,0.633-0.576,2.459,0.564,2.428c-0.068-1.01-0.221-1.982-0.363-2.98
			c-0.077-0.533,0.151-1.521,0.619-0.645c0.343,0.643,0.088,0.898,0.041,1.52c-0.053,0.688,0.188,1.352,0.254,2.029
			c0.565-0.539-0.18-2.387,0.324-3.197C19.24,21.49,17.884,23.919,19.414,24.134z"/>
	</g>
	<g>
		<path fill-rule="evenodd" clip-rule="evenodd" fill="#F5F5F5" d="M32.35,24.3c-0.535,0.68-1.368,0.064-1.791-0.406
			c-0.492,0.643-1.49,1.58-2.293,0.805c-0.635-0.613,0.146-1.664-0.439-2.238c-0.261,0.531-0.785,2.875-1.704,1.795
			c-0.511-0.6-1.162-2.736-0.147-3.166c-0.094,0.793-0.266,1.744,0.229,2.449c0.524,0.744,1.015-1.137,1.179-1.467
			c0.338-0.682,1.301-1.898,1.105-0.377c-0.078,0.602-0.299,1.973,0.311,2.387c0.371,0.252,0.92-0.199,1.135-0.471
			c0.434-0.547,0.242-1.283,0.105-1.9c-0.111-0.5-0.264-1.105,0.043-1.57c0.42-0.639,0.668,0.818,0.689,1.08
			c0.021,0.26,0.35,3.432,1.133,2.381c0.663-0.893-1.201-2.863,0.055-3.404c0.453-0.195,1.422,1.834,0.434,1.174
			C32.592,22.22,33.018,23.453,32.35,24.3z"/>
	</g>
	<g>
		<path fill-rule="evenodd" clip-rule="evenodd" fill="#F5F5F5" d="M36.076,25.464c0.098,1.311,1.24,4.912-0.314,5.725
			c-0.213-0.408,0.042-1.041,0.1-1.461c0.116-0.85-0.109-1.801-0.215-2.645c-0.236-1.904-0.382-3.338-1.714-4.809
			c-0.35-0.387-0.806-0.734-0.866-1.281c-0.023-0.215-0.105-1.119,0.342-0.863c0.252,0.145,1.96,1.584,1.055,1.633
			c0.105,0.154,0.481,0.996,0.705,0.953c-0.031-0.512-0.556-1.965,0.007-2.318c0.535-0.336,1.104,1.643,0.948,2.016
			c-0.198,0.473-0.193,0.836-0.02,1.451c0.225,0.795,0.663,1.5,1.085,2.201c0.591,0.984,1.837,2.412,1.456,3.656
			c-0.621-0.316-0.992-1.732-1.262-2.313c-0.221-0.475-0.44-0.955-0.715-1.402c-0.073-0.119-0.659-0.889-0.575-0.355
			C36.093,25.646,36.089,25.46,36.076,25.464C36.161,26.607,36.098,25.458,36.076,25.464z"/>
	</g>
	<g>
		<path fill-rule="evenodd" clip-rule="evenodd" fill="#F5F5F5" d="M49.952,27.4c0.061,2.139-0.563,4.836-3.212,4.836
			c-0.04-0.58,1.291-1.174,1.663-1.48c0.955-0.787,0.887-2.268,0.815-3.371c-0.097-1.486-0.22-3.012-0.473-4.479
			c-0.146-0.854-0.584-2.158,0.219-2.826c0.45,0.383,1.229,1.451,0.865,1.889C49.396,22.49,49.941,27.037,49.952,27.4z"/>
	</g>
	<g>
		<path fill-rule="evenodd" clip-rule="evenodd" fill="#F5F5F5" d="M37.16,31.939c2.648-1.494,1.809-4.691,1.566-7.195
			c-0.066-0.689-0.142-1.377-0.201-2.066c-0.045-0.52-0.354-1.201-0.171-1.701c0.491-1.348,0.902-0.051,1.05,0.658
			c0.11,0.533-0.257,0.553-0.229,0.982c0.055,0.818,0.075,1.633,0.161,2.449c0.135,1.271,0.338,2.559,0.223,3.842
			c-0.175,1.945-1.187,3.984-3.464,3.592C36.21,32.193,36.905,32.082,37.16,31.939C37.609,31.685,36.869,32.103,37.16,31.939z"/>
	</g>
	<g>
		<path fill-rule="evenodd" clip-rule="evenodd" fill="#F5F5F5" d="M41.378,26.888c0.147,1.035,0.493,2.768-0.049,3.719
			c-0.364,0.641-0.444-0.35-0.456-0.549c-0.051-0.816-0.061-1.635-0.122-2.451c-0.16-2.158-0.881-4.352-0.872-6.516
			c0.011-2.715,2.314,1.545,0.994,1.314C40.991,23.902,41.169,25.402,41.378,26.888C41.414,27.142,41.169,25.4,41.378,26.888z"/>
	</g>
	<g>
		<path fill-rule="evenodd" clip-rule="evenodd" fill="#F5F5F5" d="M25.104,21.757c0.188,0.547-2.334,1.754-2.641,1.805
			c-0.064-0.465,1.142-1.17,1.438-1.41c0.318-0.26,0.497-0.297,0.355-0.664c-0.167-0.432-0.081-1.096,0.426-1.258
			C25.701,19.906,24.969,21.367,25.104,21.757z"/>
	</g>
	<g>
		<path fill-rule="evenodd" clip-rule="evenodd" fill="#F5F5F5" d="M14.77,30.736c0.043,0.764,0.26,0.406,0.709,0.219
			c0.213,0.436-0.328,1.482-0.841,0.996c-0.714-0.678-0.094-2.27,0.239-2.979C15.116,29.421,14.74,30.244,14.77,30.736
			C14.82,31.634,14.734,30.132,14.77,30.736z"/>
	</g>
	<g>
		<path fill-rule="evenodd" clip-rule="evenodd" fill="#F5F5F5" d="M43.014,24.517c0.09-0.377-0.166-0.822,0.094-1.168
			c0.368-0.48,0.823,0.094,0.623,0.301c-0.229,0.234-0.479-0.197-0.458,0.396c0.011,0.342,0.189,0.916-0.136,1.178
			c-0.233-0.121-1.118-1.404-0.957-1.629C42.456,23.21,42.915,24.38,43.014,24.517z"/>
	</g>
	<g>
		<path fill-rule="evenodd" clip-rule="evenodd" fill="#F5F5F5" d="M16.891,26.226c-0.198,0.375-2.543,1.719-2.57,1.432
			C14.283,27.277,17.217,25.613,16.891,26.226z"/>
	</g>
	<g>
		<path fill-rule="evenodd" clip-rule="evenodd" fill="#F5F5F5" d="M33.903,31.326c-0.311,0.865,0.951,0.1,1.259,0.033
			c-0.437,0.689-1.847,1.342-1.645-0.039c-0.136,0.027-0.271,0.053-0.406,0.08C33.043,31.224,34.245,30.371,33.903,31.326z"/>
	</g>
	<g>
		<path fill-rule="evenodd" clip-rule="evenodd" fill="#F5F5F5" d="M44.82,30.988c0.256-0.018,0.828,0.855,0.492,1.08
			c-0.226,0.15-1.099,0.313-0.588-0.143C45.303,31.412,44.755,30.992,44.82,30.988z"/>
	</g>
	<g>
		<path fill-rule="evenodd" clip-rule="evenodd" fill="#F5F5F5" d="M30.732,25.925c0.088-0.229,0.139-0.463,0.152-0.707
			c0.965,0.791-1.584,2.148-1.123,0.199c0.18,0.195,0.152,0.494,0.389,0.65c0.05-0.23,0.1-0.461,0.15-0.691
			C30.534,25.501,30.488,25.818,30.732,25.925z"/>
	</g>
	<g>
		<path fill-rule="evenodd" clip-rule="evenodd" fill="#F5F5F5" d="M42.434,27.195c-0.272-0.414,1.478-1.527,1.779-1.729
			C44.422,25.785,42.952,26.927,42.434,27.195z"/>
	</g>
	<g>
		<path fill-rule="evenodd" clip-rule="evenodd" fill="#F5F5F5" d="M47.965,23.152c-0.153-0.605-0.765-1.803-0.248-2.27
			C48.186,21.228,48.403,22.664,47.965,23.152z"/>
	</g>
	<g>
		<path fill-rule="evenodd" clip-rule="evenodd" fill="#F5F5F5" d="M37.083,21.214c-0.111-0.203-0.407-0.412-0.364-0.678
			c0.058-0.361,0.35-0.332,0.492-0.105c0.275,0.441,0.476,1.473-0.027,1.836C37.161,21.916,37.264,21.544,37.083,21.214
			C36.924,20.925,37.262,21.541,37.083,21.214z"/>
	</g>
	<g>
		<path fill-rule="evenodd" clip-rule="evenodd" fill="#F5F5F5" d="M24.869,23.855c0.047,0.572-0.996,1.213-1.117,0.416
			c-0.053-0.332,0.35-1.361,0.65-1.113C24.032,24.091,23.995,24.361,24.869,23.855z"/>
	</g>
	<g>
		<path fill-rule="evenodd" clip-rule="evenodd" fill="#F5F5F5" d="M37.393,22.835c0.439,0.984,0.157,0.141,0.564-0.07
			c0.696,1.348-1.507,0.959-1.004,0.225c0.077,0.131,0.153,0.264,0.23,0.395C37.254,23.201,37.323,23.019,37.393,22.835z"/>
	</g>
	<g>
		<path fill-rule="evenodd" clip-rule="evenodd" fill="#F5F5F5" d="M43.785,27.375c-0.455-0.396,0.111-0.85,0.423-0.406
			c0.234,0.334,0.244,1.113-0.187,1.314C44.021,27.966,44.062,27.607,43.785,27.375C43.601,27.214,44.102,27.64,43.785,27.375z"/>
	</g>
	<g>
		<path fill-rule="evenodd" clip-rule="evenodd" fill="#F5F5F5" d="M23.324,29.572c0.032-0.242-0.127-1.697,0.188-1.518
			C23.941,28.3,23.785,29.41,23.324,29.572z"/>
	</g>
	<g>
		<path fill-rule="evenodd" clip-rule="evenodd" fill="#F5F5F5" d="M19.086,20.216c0.059,0.26,0.204,0.721,0.424,0.201
			c0.781,0.865-1.991,0.619-1.031-0.277C18.516,20.248,18.705,20.781,19.086,20.216z"/>
	</g>
	<g>
		<path fill-rule="evenodd" clip-rule="evenodd" fill="#F5F5F5" d="M29.309,22.375c-0.039-0.443-0.558-2.113-0.15-2.063
			C29.783,20.39,29.725,21.861,29.309,22.375z"/>
	</g>
	<g>
		<path fill-rule="evenodd" clip-rule="evenodd" fill="#F5F5F5" d="M15.318,21.46c-0.313-0.09,0.193-0.633,0.035-0.953
			c-0.223,0.096-0.408-0.176-0.182-0.363C15.91,19.531,15.628,21.548,15.318,21.46z"/>
	</g>
</g>
<g>
	<path fill-rule="evenodd" clip-rule="evenodd" fill="#F5F5F5" d="M41.199,41.828l-0.437-1.244l-0.437,1.244H18.534
		c0,0,0.179,1.764,2.376,1.764h19.353v1.443h5.271v-3.207H41.199z M44.616,44.184h-3.565v-0.986h3.565V44.184z"/>
</g>
<path opacity="0.1" fill="#1A1626" d="M50.737,8.591C54.834,13.72,57.3,20.212,57.3,27.292c0,16.569-13.429,30.002-29.995,30.002
	c-7.1,0-13.609-2.477-18.744-6.594C14.055,57.58,22.503,62,32.004,62c16.565,0,29.994-13.432,29.994-30
	C61.998,22.527,57.596,14.089,50.737,8.591z"/>
<path opacity="0.3" fill-rule="evenodd" clip-rule="evenodd" fill="#FFFFFF" d="M9.734,19.015c0.549,3.865,7.768-3.701,15.08-10.203
	C29.531,4.63,8.084,7.384,9.734,19.015z"/>
</svg>
