<?xml version="1.0" encoding="utf-8"?>
<!-- Generator: Adobe Illustrator 15.0.0, SVG Export Plug-In . SVG Version: 6.00 Build 0)  -->
<!DOCTYPE svg PUBLIC "-//W3C//DTD SVG 1.1//EN" "http://www.w3.org/Graphics/SVG/1.1/DTD/svg11.dtd">
<svg version="1.1" id="Layer_1" xmlns="http://www.w3.org/2000/svg" xmlns:xlink="http://www.w3.org/1999/xlink" x="0px" y="0px"
	 width="64px" height="64px" viewBox="0 0 64 64" enable-background="new 0 0 64 64" xml:space="preserve">
<path fill="#014D87" d="M37.968,2.602H26.032C14.263,4.979,4.989,14.236,2.601,26v11.998c2.389,11.766,11.662,21.023,23.432,23.4
	h11.967c11.766-2.387,21.023-11.662,23.4-23.43V26C59.013,14.236,49.737,4.979,37.968,2.602z"/>
<path fill="#F5F5F5" d="M37.999,26V2.602C36.062,2.207,34.054,2,31.999,2s-4.061,0.207-6,0.602V26H2.601
	c-0.393,1.939-0.602,3.945-0.602,6s0.209,4.061,0.602,6h23.398v23.398c1.939,0.395,3.945,0.602,6,0.602s4.063-0.207,6-0.602V38h23.4
	c0.395-1.939,0.602-3.945,0.602-6s-0.207-4.061-0.602-6H37.999z"/>
<path fill="#F5F5F5" d="M15.636,9.762c-0.396,0.211-0.713,0.518-0.713,0.67c0,0.174,0.232,0.174-0.064,0.287
	c-0.281,0.115-1.043,0.268-1.572,0.25c-0.184,0-0.613-0.135-0.73-0.135c-0.131,0.02,0.564,0.346,0.299,0.268
	c-0.363-0.115-0.58-0.152-0.299,0.059c0.217,0.152,0.697,0.152,1.375,0.057c0.266-0.037,0.961-0.211,1.209-0.248
	c0.164-0.02,0.164,0.152,0.264,0.152c0.895,0.059,2.484,0.02,3.18-0.096c0.578-0.096,0.793-0.057,0.959,0.172
	c0.332,0.441-0.016,0.822-0.959,1.053c-1.16,0.287-1.639,0.535-2.086,1.09c-1.076,1.34,0.182,2.852,2.531,3.063
	c1.375,0.133,2.268,0.439,2.053,0.688c-0.082,0.096-0.992,0.248-2.035,0.344c-2.268,0.211-3.277,0.574-4.139,1.531
	c-0.48,0.535-0.646,0.861-0.646,1.301c0,0.613,0,0.613-0.877,0.613c-0.463,0-1.109-0.078-1.406-0.191
	c-0.463-0.135-0.529-0.135-0.365,0.096c0.332,0.459,1.275,0.861,2.053,0.861c0.596,0,0.928,0.133,1.457,0.574
	c1.061,0.896,2.268,1.242,4.271,1.223c2.631-0.02,4.137-0.822,4.137-2.182c0-1.014-0.992-1.605-3.061-1.816
	c-1.043-0.115-3.096,0.076-3.99,0.383c-0.166,0.057,0.018-0.076,0.414-0.307c0.48-0.268,1.273-0.459,2.352-0.574
	c2.383-0.229,3.459-0.842,3.459-1.99c0-1.109-1.061-1.74-3.328-1.988c-2.234-0.23-2.4-0.689-0.512-1.359
	c1.34-0.459,2.018-1.146,2.018-2.084c0-1.436-0.678-1.914-2.945-2.047C16.563,9.4,16.231,9.438,15.636,9.762z M16.827,10.164
	c-0.049,0.096-0.182,0.191-0.264,0.191c-0.1,0-0.117-0.096-0.066-0.191c0.049-0.115,0.182-0.191,0.264-0.191
	C16.86,9.973,16.878,10.049,16.827,10.164z M21.61,20.879c0.314,0.133,0.432,0.268,0.332,0.381
	c-0.281,0.326-2.104,0.613-3.211,0.518c-1.225-0.133-2.549-0.594-2.152-0.785C17.688,20.496,20.601,20.438,21.61,20.879z"/>
<path fill="#F5F5F5" d="M44.573,9.762c-0.396,0.211-0.711,0.518-0.711,0.67c0,0.174,0.232,0.174-0.066,0.287
	c-0.281,0.115-1.043,0.268-1.572,0.25c-0.184,0-0.613-0.135-0.729-0.135c-0.133,0.02,0.563,0.346,0.299,0.268
	c-0.365-0.115-0.58-0.152-0.299,0.059c0.215,0.152,0.695,0.152,1.373,0.057c0.266-0.037,0.961-0.211,1.209-0.248
	c0.166-0.02,0.166,0.152,0.266,0.152c0.893,0.059,2.482,0.02,3.178-0.096c0.578-0.096,0.795-0.057,0.959,0.172
	c0.332,0.441-0.016,0.822-0.959,1.053c-1.158,0.287-1.639,0.535-2.086,1.09c-1.076,1.34,0.182,2.852,2.533,3.063
	c1.373,0.133,2.268,0.439,2.051,0.688c-0.082,0.096-0.992,0.248-2.035,0.344c-2.268,0.211-3.277,0.574-4.139,1.531
	C43.366,19.5,43.2,19.826,43.2,20.266c0,0.613,0,0.613-0.877,0.613c-0.465,0-1.109-0.078-1.408-0.191
	c-0.463-0.135-0.529-0.135-0.363,0.096c0.332,0.459,1.275,0.861,2.053,0.861c0.596,0,0.926,0.133,1.457,0.574
	c1.059,0.896,2.268,1.242,4.27,1.223c2.631-0.02,4.139-0.822,4.139-2.182c0-1.014-0.994-1.605-3.063-1.816
	c-1.043-0.115-3.096,0.076-3.988,0.383c-0.166,0.057,0.016-0.076,0.412-0.307c0.48-0.268,1.275-0.459,2.352-0.574
	c2.383-0.229,3.459-0.842,3.459-1.99c0-1.109-1.059-1.74-3.326-1.988c-2.234-0.23-2.4-0.689-0.514-1.359
	c1.34-0.459,2.02-1.146,2.02-2.084c0-1.436-0.68-1.914-2.947-2.047C45.501,9.4,45.169,9.438,44.573,9.762z M45.767,10.164
	c-0.051,0.096-0.184,0.191-0.266,0.191c-0.1,0-0.115-0.096-0.066-0.191c0.051-0.115,0.182-0.191,0.266-0.191
	C45.8,9.973,45.815,10.049,45.767,10.164z M50.55,20.879c0.314,0.133,0.43,0.268,0.33,0.381c-0.281,0.326-2.102,0.613-3.211,0.518
	c-1.225-0.133-2.549-0.594-2.152-0.785C46.626,20.496,49.54,20.438,50.55,20.879z"/>
<path fill="#F5F5F5" d="M15.636,40.262c-0.396,0.211-0.713,0.518-0.713,0.67c0,0.174,0.232,0.174-0.064,0.287
	c-0.281,0.115-1.043,0.268-1.572,0.25c-0.184,0-0.613-0.135-0.73-0.135c-0.131,0.02,0.564,0.346,0.299,0.268
	c-0.363-0.115-0.58-0.152-0.299,0.059c0.217,0.152,0.697,0.152,1.375,0.057c0.266-0.037,0.961-0.211,1.209-0.248
	c0.164-0.02,0.164,0.152,0.264,0.152c0.895,0.059,2.484,0.02,3.18-0.096c0.578-0.096,0.793-0.057,0.959,0.172
	c0.332,0.441-0.016,0.822-0.959,1.053c-1.16,0.287-1.639,0.535-2.086,1.09c-1.076,1.34,0.182,2.852,2.531,3.063
	c1.375,0.133,2.268,0.439,2.053,0.688c-0.082,0.096-0.992,0.248-2.035,0.344c-2.268,0.211-3.277,0.574-4.139,1.531
	c-0.48,0.535-0.646,0.861-0.646,1.301c0,0.613,0,0.613-0.877,0.613c-0.463,0-1.109-0.078-1.406-0.191
	c-0.463-0.135-0.529-0.135-0.365,0.096c0.332,0.459,1.275,0.861,2.053,0.861c0.596,0,0.928,0.133,1.457,0.574
	c1.061,0.896,2.268,1.242,4.271,1.223c2.631-0.02,4.137-0.822,4.137-2.182c0-1.014-0.992-1.605-3.061-1.816
	c-1.043-0.115-3.096,0.076-3.99,0.383c-0.166,0.057,0.018-0.076,0.414-0.307c0.48-0.268,1.273-0.459,2.352-0.574
	c2.383-0.229,3.459-0.842,3.459-1.99c0-1.109-1.061-1.74-3.328-1.988c-2.234-0.23-2.4-0.689-0.512-1.359
	c1.34-0.459,2.018-1.146,2.018-2.084c0-1.436-0.678-1.914-2.945-2.047C16.563,39.9,16.231,39.938,15.636,40.262z M16.827,40.664
	c-0.049,0.096-0.182,0.191-0.264,0.191c-0.1,0-0.117-0.096-0.066-0.191c0.049-0.115,0.182-0.191,0.264-0.191
	C16.86,40.473,16.878,40.549,16.827,40.664z M21.61,51.379c0.314,0.133,0.432,0.268,0.332,0.381
	c-0.281,0.326-2.104,0.613-3.211,0.518c-1.225-0.133-2.549-0.594-2.152-0.785C17.688,50.996,20.601,50.938,21.61,51.379z"/>
<path fill="#F5F5F5" d="M44.573,40.262c-0.396,0.211-0.711,0.518-0.711,0.67c0,0.174,0.232,0.174-0.066,0.287
	c-0.281,0.115-1.043,0.268-1.572,0.25c-0.184,0-0.613-0.135-0.729-0.135c-0.133,0.02,0.563,0.346,0.299,0.268
	c-0.365-0.115-0.58-0.152-0.299,0.059c0.215,0.152,0.695,0.152,1.373,0.057c0.266-0.037,0.961-0.211,1.209-0.248
	c0.166-0.02,0.166,0.152,0.266,0.152c0.893,0.059,2.482,0.02,3.178-0.096c0.578-0.096,0.795-0.057,0.959,0.172
	c0.332,0.441-0.016,0.822-0.959,1.053c-1.158,0.287-1.639,0.535-2.086,1.09c-1.076,1.34,0.182,2.852,2.533,3.063
	c1.373,0.133,2.268,0.439,2.051,0.688c-0.082,0.096-0.992,0.248-2.035,0.344c-2.268,0.211-3.277,0.574-4.139,1.531
	C43.366,50,43.2,50.326,43.2,50.766c0,0.613,0,0.613-0.877,0.613c-0.465,0-1.109-0.078-1.408-0.191
	c-0.463-0.135-0.529-0.135-0.363,0.096c0.332,0.459,1.275,0.861,2.053,0.861c0.596,0,0.926,0.133,1.457,0.574
	c1.059,0.896,2.268,1.242,4.27,1.223c2.631-0.02,4.139-0.822,4.139-2.182c0-1.014-0.994-1.605-3.063-1.816
	c-1.043-0.115-3.096,0.076-3.988,0.383c-0.166,0.057,0.016-0.076,0.412-0.307c0.48-0.268,1.275-0.459,2.352-0.574
	c2.383-0.229,3.459-0.842,3.459-1.99c0-1.109-1.059-1.74-3.326-1.988c-2.234-0.23-2.4-0.689-0.514-1.359
	c1.34-0.459,2.02-1.146,2.02-2.084c0-1.436-0.68-1.914-2.947-2.047C45.501,39.9,45.169,39.938,44.573,40.262z M45.767,40.664
	c-0.051,0.096-0.184,0.191-0.266,0.191c-0.1,0-0.115-0.096-0.066-0.191c0.051-0.115,0.182-0.191,0.266-0.191
	C45.8,40.473,45.815,40.549,45.767,40.664z M50.55,51.379c0.314,0.133,0.43,0.268,0.33,0.381c-0.281,0.326-2.102,0.613-3.211,0.518
	c-1.225-0.133-2.549-0.594-2.152-0.785C46.626,50.996,49.54,50.938,50.55,51.379z"/>
<path opacity="0.1" fill="#1A1626" d="M50.737,8.591c4.098,5.13,6.563,11.622,6.563,18.701c0,16.567-13.428,30.003-29.994,30.003
	c-7.1,0-13.609-2.479-18.744-6.594C14.056,57.58,22.503,62,32.005,62c16.564,0,29.994-13.432,29.994-30
	C61.999,22.527,57.597,14.09,50.737,8.591z"/>
<path opacity="0.3" fill-rule="evenodd" clip-rule="evenodd" fill="#FFFFFF" d="M9.735,19.015c0.549,3.865,7.768-3.7,15.08-10.202
	C29.532,4.63,8.085,7.385,9.735,19.015z"/>
</svg>
