<?xml version="1.0" encoding="utf-8"?>
<!-- Generator: Adobe Illustrator 15.0.0, SVG Export Plug-In . SVG Version: 6.00 Build 0)  -->
<!DOCTYPE svg PUBLIC "-//W3C//DTD SVG 1.1//EN" "http://www.w3.org/Graphics/SVG/1.1/DTD/svg11.dtd">
<svg version="1.1" id="Layer_1" xmlns="http://www.w3.org/2000/svg" xmlns:xlink="http://www.w3.org/1999/xlink" x="0px" y="0px"
	 width="64px" height="64px" viewBox="0 0 64 64" enable-background="new 0 0 64 64" xml:space="preserve">
<path fill="#014D87" d="M39.113,2.855v24.744H2.325C2.114,29.037,2,30.503,2,32C2,48.568,15.432,62,32,62c16.569,0,30-13.432,30-30
	C62,17.882,52.246,6.048,39.113,2.855z"/>
<path fill="#F5F5F5" d="M39.113,2.855c-0.215-0.053-0.43-0.102-0.645-0.148v24.248H25.583V2.693
	C20.75,3.748,16.354,5.964,12.7,9.039v17.916H2.432c-0.037,0.215-0.076,0.43-0.107,0.645h36.789V2.855z"/>
<path fill="#014D87" d="M2.432,26.955H12.7V9.039C7.381,13.515,3.643,19.804,2.432,26.955z"/>
<path fill="#E81C27" d="M25.583,2.693v24.262h12.885V2.707C36.385,2.248,34.223,2,32,2C29.796,2,27.652,2.244,25.583,2.693z"/>
<path fill="#F5F5F5" d="M42.838,43.75V39.1h1.943l1.441-2.297h-3.385V35.33h4.313l1.516-2.415H34.299l1.518,2.415h4.313v8.42
	l-3.238-5.064l-4.358,6.949h2.12l0.428-0.766h3.615l2.789,5.006l2.787-5.006h3.613l0.428,0.766h2.121l-4.357-6.949L42.838,43.75z
	 M36.002,43.221l0.889-1.59l0.885,1.59H36.002z M45.189,43.221l0.887-1.59l0.889,1.59H45.189z"/>
<polygon fill="#F5F5F5" points="42.039,53.232 41.484,51.523 40.928,53.232 39.131,53.232 40.586,54.287 40.029,55.996 
	41.484,54.941 42.938,55.996 42.381,54.287 43.836,53.232 "/>
<polygon fill="#F5F5F5" points="36.74,49.229 36.184,47.52 35.629,49.229 33.832,49.229 35.285,50.283 34.73,51.992 36.184,50.938 
	37.639,51.992 37.082,50.283 38.535,49.229 "/>
<polygon fill="#F5F5F5" points="47.338,49.229 46.783,47.52 46.229,49.229 44.432,49.229 45.885,50.283 45.33,51.992 46.783,50.938 
	48.236,51.992 47.682,50.283 49.135,49.229 "/>
<polygon fill="#F5F5F5" points="31.708,39.043 33.162,40.098 32.607,38.389 34.061,37.334 32.263,37.334 31.708,35.625 
	31.154,37.334 29.357,37.334 30.81,38.389 30.255,40.098 "/>
<polygon fill="#F5F5F5" points="52.156,38.389 53.609,37.334 51.813,37.334 51.258,35.625 50.703,37.334 48.906,37.334 
	50.359,38.389 49.805,40.098 51.258,39.043 52.711,40.098 "/>
<path opacity="0.1" fill="#1A1626" d="M50.738,8.591c4.096,5.129,6.563,11.621,6.563,18.701c0,16.569-13.428,30.002-29.995,30.002
	c-7.101,0-13.609-2.477-18.744-6.594C14.056,57.58,22.503,62,32.003,62C48.57,62,62,48.568,62,32
	C62,22.527,57.596,14.089,50.738,8.591z"/>
<path opacity="0.5" fill-rule="evenodd" clip-rule="evenodd" fill="#FFFFFF" d="M9.736,19.015c0.549,3.865,7.767-3.701,15.08-10.203
	C29.533,4.63,8.084,7.384,9.736,19.015z"/>
</svg>
