<?xml version="1.0" encoding="utf-8"?>
<!-- Generator: Adobe Illustrator 15.0.0, SVG Export Plug-In . SVG Version: 6.00 Build 0)  -->
<!DOCTYPE svg PUBLIC "-//W3C//DTD SVG 1.1//EN" "http://www.w3.org/Graphics/SVG/1.1/DTD/svg11.dtd">
<svg version="1.1" id="Layer_1" xmlns="http://www.w3.org/2000/svg" xmlns:xlink="http://www.w3.org/1999/xlink" x="0px" y="0px"
	 width="64px" height="64px" viewBox="0 0 64 64" enable-background="new 0 0 64 64" xml:space="preserve">
<path fill="#006DAE" d="M34.154,2.086L32,32.07l24.257-17.715C51.198,7.414,43.236,2.73,34.154,2.086z"/>
<path fill="#006DAE" d="M56.943,48.669c2.92-4.36,4.728-9.527,5.016-15.098L32,32.07L56.943,48.669z"/>
<path fill="#006DAE" d="M7.057,48.669L32,32.07L2.041,33.571C2.329,39.142,4.137,44.309,7.057,48.669z"/>
<path fill="#006DAE" d="M7.743,14.355L32,32.07L29.846,2.086C20.764,2.73,12.802,7.414,7.743,14.355z"/>
<path fill="#006DAE" d="M2.037,30.521L32,32.07L6.067,16.925C3.719,20.956,2.277,25.58,2.037,30.521z"/>
<path fill="#006DAE" d="M61.963,30.521c-0.24-4.941-1.682-9.565-4.03-13.597L32,32.07L61.963,30.521z"/>
<path fill="#FFE12C" d="M6.067,16.925L32,32.07L7.743,14.355C7.142,15.181,6.583,16.038,6.067,16.925z"/>
<path fill="#FFE12C" d="M2,32c0,0.527,0.015,1.051,0.041,1.571L32,32.07L2.037,30.521C2.014,31.012,2,31.504,2,32z"/>
<path fill="#E81C27" d="M56.943,48.669L32,32.07L7.057,48.669C12.438,56.707,21.601,62,32,62S51.562,56.707,56.943,48.669z"/>
<path fill="#FFE12C" d="M57.933,16.925c-0.516-0.887-1.074-1.744-1.676-2.569L32,32.07L57.933,16.925z"/>
<path fill="#FFE12C" d="M32,2h-2.16l0.006,0.086C30.559,2.035,31.274,2,32,2z"/>
<path fill="#FFE12C" d="M34.16,2H32c0.726,0,1.441,0.035,2.154,0.086L34.16,2z"/>
<path fill="#FFE12C" d="M32,32.07l2.154-29.984C33.441,2.035,32.726,2,32,2s-1.441,0.035-2.154,0.086L32,32.07z"/>
<path fill="#FFE12C" d="M61.959,33.571C61.985,33.051,62,32.527,62,32c0-0.496-0.014-0.988-0.037-1.479L32,32.07L61.959,33.571z"/>
<path opacity="0.1" fill="#1A1626" d="M50.736,8.592c4.097,5.129,6.563,11.621,6.563,18.701c0,16.568-13.428,30.002-29.994,30.002
	c-7.101,0-13.609-2.477-18.744-6.594C14.055,57.58,22.502,62,32.003,62c16.565,0,29.995-13.432,29.995-30
	C61.998,22.527,57.595,14.09,50.736,8.592z"/>
<path opacity="0.3" fill-rule="evenodd" clip-rule="evenodd" fill="#FFFFFF" d="M9.734,19.016c0.549,3.865,7.767-3.701,15.08-10.203
	C29.531,4.631,8.083,7.385,9.734,19.016z"/>
</svg>
