<?xml version="1.0" encoding="utf-8"?>
<!-- Generator: Adobe Illustrator 15.0.0, SVG Export Plug-In . SVG Version: 6.00 Build 0)  -->
<!DOCTYPE svg PUBLIC "-//W3C//DTD SVG 1.1//EN" "http://www.w3.org/Graphics/SVG/1.1/DTD/svg11.dtd">
<svg version="1.1" id="Layer_1" xmlns="http://www.w3.org/2000/svg" xmlns:xlink="http://www.w3.org/1999/xlink" x="0px" y="0px"
	 width="64px" height="64px" viewBox="0 0 64 64" enable-background="new 0 0 64 64" xml:space="preserve">
<g>
	<g>
		<g>
			<g>
				<rect x="12" y="12" fill="#014D87" width="21" height="21"/>
			</g>
			<g>
				<path fill="#399CB0" d="M32,2v30H2c0,16.568,13.432,30,30,30s30-13.432,30-30S48.568,2,32,2z"/>
			</g>
			<g>
				<path fill="#F5F5F5" d="M32,2c-4.693,0-9.131,1.088-13.088,3.012V8.14V11H11v2.912V14v4.912H5.012C3.088,22.869,2,27.306,2,32
					h12V17l12,15h6v-7.5L23.602,14H32V2z"/>
			</g>
			<g>
				<polygon fill="#E81C27" points="15.43,14 30,32 32,32 32,27.059 21.43,14 				"/>
			</g>
			<g>
				<path fill="#E81C27" d="M32,5H18.912C12.857,7.94,7.941,12.857,5,18.912V32h6V11h21V5z"/>
			</g>
		</g>
	</g>
</g>
<polygon fill="#FFE12C" points="28.916,50.15 28.252,48.104 27.586,50.15 25.434,50.15 27.176,51.416 26.51,53.463 28.252,52.197 
	29.992,53.463 29.328,51.415 31.068,50.15 "/>
<polygon fill="#FFE12C" points="37.768,48.559 38.434,46.512 36.691,47.777 34.951,46.512 35.615,48.559 33.875,49.824 
	36.027,49.824 36.691,51.871 37.357,49.824 39.51,49.824 "/>
<polygon fill="#FFE12C" points="38.434,39.296 36.691,40.562 34.951,39.296 35.615,41.343 33.875,42.608 36.027,42.608 
	36.691,44.655 37.357,42.608 39.51,42.608 37.768,41.343 "/>
<polygon fill="#FFE12C" points="45.221,46.734 45.887,44.688 44.145,45.953 42.404,44.688 43.068,46.734 41.328,48 43.48,48 
	44.145,50.048 44.811,48 46.963,48 "/>
<polygon fill="#FFE12C" points="43.48,32.301 44.145,34.348 44.811,32.301 46.963,32.3 45.221,31.035 45.887,28.988 44.145,30.254 
	42.404,28.988 43.068,31.035 41.328,32.301 "/>
<polygon fill="#FFE12C" points="49.686,41.222 49.02,39.176 48.355,41.222 46.203,41.222 47.943,42.487 47.279,44.534 49.02,43.269 
	50.762,44.534 50.096,42.487 51.838,41.222 "/>
<polygon fill="#FFE12C" points="49.744,30.16 50.408,32.205 51.074,30.16 53.227,30.16 51.484,28.895 52.15,26.848 50.408,28.113 
	48.668,26.848 49.332,28.895 47.592,30.16 "/>
<polygon fill="#FFE12C" points="55.979,37.17 55.314,35.123 54.648,37.17 52.496,37.17 54.236,38.436 53.572,40.482 55.313,39.217 
	57.055,40.482 56.389,38.435 58.131,37.17 "/>
<polygon fill="#FFE12C" points="54.236,24.59 53.572,26.637 55.313,25.371 57.055,26.637 56.389,24.59 58.131,23.324 55.979,23.324 
	55.314,21.277 54.648,23.324 52.496,23.324 "/>
<path opacity="0.1" fill="#1A1626" d="M50.736,8.591c4.098,5.13,6.563,11.622,6.563,18.701c0,16.568-13.428,30.003-29.994,30.003
	c-7.1,0-13.609-2.478-18.744-6.594C14.055,57.58,22.502,62,32.004,62c16.564,0,29.994-13.432,29.994-30
	C61.998,22.527,57.596,14.09,50.736,8.591z"/>
<path opacity="0.3" fill-rule="evenodd" clip-rule="evenodd" fill="#FFFFFF" d="M9.734,19.015c0.549,3.865,7.768-3.7,15.08-10.202
	C29.531,4.63,8.084,7.385,9.734,19.015z"/>
</svg>
