<?xml version="1.0" encoding="utf-8"?>
<!-- Generator: Adobe Illustrator 15.0.0, SVG Export Plug-In . SVG Version: 6.00 Build 0)  -->
<!DOCTYPE svg PUBLIC "-//W3C//DTD SVG 1.1//EN" "http://www.w3.org/Graphics/SVG/1.1/DTD/svg11.dtd">
<svg version="1.1" id="Layer_1" xmlns="http://www.w3.org/2000/svg" xmlns:xlink="http://www.w3.org/1999/xlink" x="0px" y="0px"
	 width="64px" height="64px" viewBox="0 0 64 64" enable-background="new 0 0 64 64" xml:space="preserve">
<path fill="#529320" d="M2,32c0,9.814,4.715,18.527,12,24h36.002C57.287,50.527,62,41.814,62,32S57.287,13.475,50.002,8H14
	C6.715,13.475,2,22.186,2,32z"/>
<path fill="#E81C27" d="M14,8h36.002C44.986,4.234,38.754,2,32,2S19.014,4.234,14,8z"/>
<path fill="#E81C27" d="M32,62c6.754,0,12.986-2.232,18.002-6H14C19.014,59.768,25.246,62,32,62z"/>
<path fill="#F5F5F5" d="M43,49.641C34.631,47.971,28.334,40.707,28.334,32S34.631,16.029,43,14.361
	C41.816,14.125,40.588,14,39.334,14C29.207,14,21,22.061,21,32c0,9.941,8.207,18,18.334,18C40.588,50,41.816,49.875,43,49.641z"/>
<path opacity="0.1" fill="#1A1626" d="M50.738,8.592c4.096,5.129,6.563,11.621,6.563,18.701c0,16.568-13.43,30.002-29.996,30.002
	c-7.1,0-13.609-2.477-18.744-6.594C14.055,57.58,22.504,62,32.004,62c16.566,0,29.994-13.432,29.994-30
	C61.998,22.527,57.596,14.09,50.738,8.592z"/>
<path opacity="0.3" fill-rule="evenodd" clip-rule="evenodd" fill="#FFFFFF" d="M9.734,19.016c0.549,3.865,7.768-3.701,15.08-10.203
	C29.531,4.631,8.084,7.385,9.734,19.016z"/>
</svg>
