<?xml version="1.0" encoding="utf-8"?>
<!-- Generator: Adobe Illustrator 15.0.0, SVG Export Plug-In . SVG Version: 6.00 Build 0)  -->
<!DOCTYPE svg PUBLIC "-//W3C//DTD SVG 1.1//EN" "http://www.w3.org/Graphics/SVG/1.1/DTD/svg11.dtd">
<svg version="1.1" id="Layer_1" xmlns="http://www.w3.org/2000/svg" xmlns:xlink="http://www.w3.org/1999/xlink" x="0px" y="0px"
	 width="64px" height="64px" viewBox="0 0 64 64" enable-background="new 0 0 64 64" xml:space="preserve">
<path fill="#302C3B" d="M32,2C19.32,2,8.502,9.879,4.111,21h55.777C55.498,9.879,44.68,2,32,2z"/>
<path fill="#529320" d="M32,62c12.68,0,23.498-7.881,27.889-19H4.111C8.502,54.119,19.32,62,32,62z"/>
<path fill="#E81C27" d="M62,32c0-3.139-0.49-6.158-1.383-9H3.383C2.49,25.842,2,28.862,2,32c0,3.136,0.49,6.158,1.383,9h57.234
	C61.51,38.158,62,35.137,62,32z"/>
<g>
	<path fill="#F5F5F5" d="M60.285,22c-0.119-0.34-0.266-0.668-0.396-1H4.111c-0.131,0.332-0.277,0.66-0.398,1
		c-0.115,0.33-0.225,0.664-0.33,1h57.234C60.512,22.665,60.402,22.331,60.285,22z"/>
</g>
<g>
	<path fill="#F5F5F5" d="M3.713,42c0.121,0.34,0.268,0.666,0.398,1h55.777c0.131-0.334,0.277-0.66,0.396-1
		c0.117-0.33,0.227-0.664,0.332-1H3.383C3.488,41.336,3.598,41.67,3.713,42z"/>
</g>
<g>
	<path fill="#014D87" d="M10.787,10.788C5.357,16.215,2,23.715,2,32c0,8.283,3.357,15.783,8.787,21.212L32,32L10.787,10.788z"/>
</g>
<g>
	<polygon fill="#FFE12C" points="16.781,31.008 19.975,26.803 14.779,28.389 11.467,24.198 11.467,29.393 6.357,31.008 
		11.467,32.579 11.467,37.814 14.779,33.625 19.975,35.209 	"/>
</g>
<path opacity="0.1" fill="#1A1626" d="M50.736,8.59c4.098,5.131,6.563,11.623,6.563,18.701c0,16.568-13.428,30.003-29.994,30.003
	c-7.101,0-13.609-2.479-18.744-6.594C14.055,57.58,22.502,62,32.004,62c16.564,0,29.994-13.432,29.994-30
	C61.998,22.528,57.596,14.09,50.736,8.59z"/>
<path opacity="0.3" fill-rule="evenodd" clip-rule="evenodd" fill="#FFFFFF" d="M9.734,19.014c0.549,3.865,7.767-3.699,15.08-10.201
	C29.531,4.629,8.083,7.385,9.734,19.014z"/>
</svg>
