<?xml version="1.0" encoding="utf-8"?>
<!-- Generator: Adobe Illustrator 15.0.0, SVG Export Plug-In . SVG Version: 6.00 Build 0)  -->
<!DOCTYPE svg PUBLIC "-//W3C//DTD SVG 1.1//EN" "http://www.w3.org/Graphics/SVG/1.1/DTD/svg11.dtd">
<svg version="1.1" id="Layer_1" xmlns="http://www.w3.org/2000/svg" xmlns:xlink="http://www.w3.org/1999/xlink" x="0px" y="0px"
	 width="64px" height="64px" viewBox="0 0 64 64" enable-background="new 0 0 64 64" xml:space="preserve">
<path fill="#014D87" d="M32,62c13.061,0,24.166-8.35,28.285-20H3.714C7.833,53.65,18.939,62,32,62z"/>
<path fill="#E81C27" d="M32,2C18.939,2,7.833,10.35,3.714,22h56.571C56.166,10.35,45.061,2,32,2z"/>
<path fill="#F5F5F5" d="M60.285,42C61.393,38.871,62,35.508,62,32s-0.607-6.871-1.715-10H3.714C2.607,25.129,2,28.492,2,32
	s0.607,6.871,1.714,10H60.285z"/>
<path fill="#302C3B" d="M32,41c-4.963,0-9-4.037-9-9s4.037-9,9-9s9,4.037,9,9S36.963,41,32,41z M32,23.291
	c-4.803,0-8.709,3.906-8.709,8.709s3.906,8.709,8.709,8.709s8.709-3.906,8.709-8.709S36.803,23.291,32,23.291z"/>
<path fill="#E81C27" d="M32,24.408c-4.191,0-7.592,3.4-7.592,7.592c0,4.189,3.4,7.592,7.592,7.592c4.189,0,7.592-3.402,7.592-7.592
	C39.592,27.809,36.189,24.408,32,24.408z M32,37.693c-3.145,0-5.695-2.551-5.695-5.693c0-3.144,2.551-5.694,5.695-5.694
	c3.143,0,5.693,2.551,5.693,5.694C37.693,35.143,35.143,37.693,32,37.693z"/>
<path fill="#FFE12C" d="M26,32c0-3.313,2.688-6,6-6s6,2.688,6,6h1.313c0-4.037-3.275-7.313-7.313-7.313S24.686,27.963,24.686,32H26z
	"/>
<path fill="#014D87" d="M34.867,31.651c0,1.579-1.281,2.858-2.859,2.858s-2.859-1.279-2.859-2.858s1.281-2.858,2.859-2.858
	S34.867,30.072,34.867,31.651z"/>
<path fill="#FFE12C" d="M33.553,33.619l-1.551-1.072l-1.551,1.072l0.582-1.715l-1.357-1.072h1.744l0.582-1.715l0.582,1.715h1.744
	l-1.357,1.072L33.553,33.619L33.553,33.619z"/>
<path fill="#529320" d="M29.412,29.485c0,0-0.357-0.102-0.641-0.097c0.004-0.006,0.008-0.009,0.012-0.015
	c0.223-0.343,0.297-0.983,0.297-0.983s-0.553,0.325-0.779,0.666c-0.117-0.248-0.332-0.501-0.332-0.501s-0.262,0.294-0.223,0.579
	c0.041,0.286,0.404,0.712,0.404,0.712s0.537,0.156,0.818,0.076C29.246,29.842,29.412,29.485,29.412,29.485z"/>
<path fill="#529320" d="M28.898,30.305c0,0-0.371-0.007-0.645,0.071c0.004-0.006,0.006-0.012,0.008-0.018
	c0.127-0.388,0.031-1.026,0.031-1.026s-0.449,0.456-0.58,0.844c-0.178-0.209-0.451-0.399-0.451-0.399s-0.176,0.353-0.063,0.618
	c0.111,0.265,0.574,0.584,0.574,0.584s0.561,0.011,0.811-0.138C28.832,30.692,28.898,30.305,28.898,30.305z"/>
<path fill="#529320" d="M28.615,31.229c0,0-0.357,0.088-0.602,0.233c0-0.007,0.002-0.012,0.002-0.018c0.02-0.408-0.238-1-0.238-1
	s-0.316,0.557-0.34,0.963c-0.227-0.156-0.539-0.269-0.539-0.269s-0.078,0.385,0.1,0.613c0.178,0.227,0.707,0.415,0.707,0.415
	s0.545-0.132,0.746-0.341C28.654,31.619,28.615,31.229,28.615,31.229z"/>
<path fill="#529320" d="M28.584,32.192c0,0-0.324,0.179-0.521,0.381c0-0.007,0-0.012-0.002-0.018c-0.086-0.4-0.49-0.905-0.49-0.905
	s-0.16,0.619-0.078,1.018c-0.258-0.092-0.592-0.121-0.592-0.121s0.025,0.392,0.258,0.566c0.23,0.174,0.791,0.221,0.791,0.221
	s0.492-0.269,0.633-0.521C28.723,32.561,28.584,32.192,28.584,32.192z"/>
<path fill="#529320" d="M28.805,33.132c0,0-0.266,0.255-0.404,0.501c-0.002-0.006-0.004-0.01-0.008-0.016
	c-0.186-0.364-0.709-0.748-0.709-0.748s0.008,0.639,0.191,1.004c-0.273-0.023-0.604,0.035-0.604,0.035s0.127,0.371,0.396,0.479
	c0.268,0.109,0.82,0.01,0.82,0.01s0.406-0.387,0.477-0.666S28.805,33.132,28.805,33.132z"/>
<path fill="#529320" d="M29.262,33.982c0,0-0.189,0.314-0.258,0.588c-0.004-0.004-0.006-0.008-0.012-0.014
	c-0.277-0.305-0.881-0.541-0.881-0.541s0.174,0.617,0.445,0.92c-0.27,0.049-0.572,0.189-0.572,0.189s0.219,0.328,0.508,0.363
	c0.287,0.035,0.795-0.201,0.795-0.201s0.291-0.479,0.287-0.768C29.566,34.232,29.262,33.982,29.262,33.982z"/>
<path fill="#529320" d="M29.926,34.688c0,0-0.1,0.354-0.096,0.635c-0.006-0.004-0.01-0.008-0.016-0.012
	c-0.344-0.223-0.99-0.295-0.99-0.295s0.328,0.549,0.67,0.773c-0.248,0.117-0.504,0.33-0.504,0.33s0.297,0.26,0.584,0.221
	c0.287-0.041,0.717-0.4,0.717-0.4s0.158-0.535,0.076-0.813C30.287,34.85,29.926,34.688,29.926,34.688z"/>
<path fill="#529320" d="M30.752,35.197c0,0-0.006,0.367,0.072,0.637c-0.006-0.002-0.01-0.004-0.018-0.006
	c-0.391-0.125-1.033-0.031-1.033-0.031s0.459,0.447,0.848,0.576c-0.209,0.176-0.4,0.447-0.4,0.447s0.354,0.174,0.621,0.063
	s0.59-0.57,0.59-0.57s0.012-0.557-0.139-0.805C31.143,35.262,30.752,35.197,30.752,35.197z"/>
<path fill="#529320" d="M34.588,29.485c0,0,0.355-0.102,0.641-0.097c-0.004-0.006-0.01-0.009-0.012-0.015
	c-0.225-0.343-0.297-0.983-0.297-0.983s0.551,0.325,0.779,0.666c0.117-0.248,0.332-0.501,0.332-0.501s0.26,0.294,0.221,0.579
	c-0.039,0.286-0.402,0.712-0.402,0.712s-0.539,0.156-0.818,0.076C34.752,29.842,34.588,29.485,34.588,29.485z"/>
<path fill="#529320" d="M35.1,30.305c0,0,0.371-0.007,0.645,0.071c-0.002-0.006-0.006-0.012-0.006-0.018
	c-0.129-0.388-0.033-1.026-0.033-1.026s0.451,0.456,0.58,0.844c0.178-0.209,0.453-0.399,0.453-0.399s0.174,0.353,0.063,0.618
	c-0.113,0.265-0.576,0.584-0.576,0.584s-0.561,0.011-0.809-0.138C35.166,30.692,35.1,30.305,35.1,30.305z"/>
<path fill="#529320" d="M35.383,31.229c0,0,0.359,0.088,0.602,0.233c0-0.007,0-0.012,0-0.018c-0.021-0.408,0.236-1,0.236-1
	s0.316,0.557,0.34,0.963c0.227-0.156,0.541-0.269,0.541-0.269s0.078,0.385-0.1,0.613c-0.178,0.227-0.709,0.415-0.709,0.415
	s-0.545-0.132-0.746-0.341C35.346,31.619,35.383,31.229,35.383,31.229z"/>
<path fill="#529320" d="M35.416,32.192c0,0,0.322,0.179,0.52,0.381c0.002-0.007,0.002-0.012,0.004-0.018
	c0.084-0.4,0.488-0.905,0.488-0.905s0.162,0.619,0.078,1.018c0.26-0.092,0.592-0.121,0.592-0.121s-0.023,0.392-0.256,0.566
	c-0.232,0.174-0.791,0.221-0.791,0.221s-0.494-0.269-0.633-0.521C35.277,32.561,35.416,32.192,35.416,32.192z"/>
<path fill="#529320" d="M35.195,33.132c0,0,0.266,0.255,0.402,0.501c0.004-0.006,0.006-0.01,0.008-0.016
	c0.188-0.364,0.711-0.748,0.711-0.748s-0.008,0.639-0.191,1.004c0.273-0.023,0.602,0.035,0.602,0.035s-0.125,0.371-0.395,0.479
	c-0.268,0.109-0.822,0.01-0.822,0.01s-0.404-0.387-0.475-0.666S35.195,33.132,35.195,33.132z"/>
<path fill="#529320" d="M34.736,33.982c0,0,0.189,0.314,0.26,0.588c0.004-0.004,0.006-0.008,0.012-0.014
	c0.275-0.305,0.879-0.541,0.879-0.541s-0.172,0.617-0.445,0.92c0.271,0.049,0.574,0.189,0.574,0.189s-0.219,0.328-0.508,0.363
	s-0.797-0.201-0.797-0.201s-0.291-0.479-0.285-0.768C34.432,34.232,34.736,33.982,34.736,33.982z"/>
<path fill="#529320" d="M34.072,34.688c0,0,0.102,0.354,0.098,0.635c0.004-0.004,0.01-0.008,0.014-0.012
	c0.346-0.223,0.992-0.295,0.992-0.295s-0.328,0.549-0.672,0.773c0.25,0.117,0.504,0.33,0.504,0.33s-0.295,0.26-0.584,0.221
	c-0.287-0.041-0.715-0.4-0.715-0.4s-0.158-0.535-0.078-0.813C33.713,34.85,34.072,34.688,34.072,34.688z"/>
<path fill="#529320" d="M33.248,35.197c0,0,0.006,0.367-0.072,0.637c0.006-0.002,0.01-0.004,0.018-0.006
	c0.391-0.125,1.033-0.031,1.033-0.031s-0.461,0.447-0.85,0.576c0.209,0.176,0.402,0.447,0.402,0.447s-0.355,0.174-0.623,0.063
	s-0.588-0.57-0.588-0.57s-0.012-0.557,0.139-0.805C32.857,35.262,33.248,35.197,33.248,35.197z"/>
<path opacity="0.1" fill="#1A1626" d="M50.736,8.591c4.098,5.13,6.563,11.622,6.563,18.701c0,16.567-13.428,30.003-29.994,30.003
	c-7.1,0-13.609-2.479-18.744-6.594C14.055,57.58,22.502,62,32.004,62c16.564,0,29.994-13.432,29.994-30
	C61.998,22.527,57.596,14.09,50.736,8.591z"/>
<path opacity="0.3" fill-rule="evenodd" clip-rule="evenodd" fill="#FFFFFF" d="M9.734,19.015c0.549,3.865,7.768-3.7,15.08-10.202
	C29.531,4.63,8.084,7.385,9.734,19.015z"/>
</svg>
