<?xml version="1.0" encoding="utf-8"?>
<!-- Generator: Adobe Illustrator 15.0.0, SVG Export Plug-In . SVG Version: 6.00 Build 0)  -->
<!DOCTYPE svg PUBLIC "-//W3C//DTD SVG 1.1//EN" "http://www.w3.org/Graphics/SVG/1.1/DTD/svg11.dtd">
<svg version="1.1" id="Layer_1" xmlns="http://www.w3.org/2000/svg" xmlns:xlink="http://www.w3.org/1999/xlink" x="0px" y="0px"
	 width="64px" height="64px" viewBox="0 0 64 64" enable-background="new 0 0 64 64" xml:space="preserve">
<path fill="#E81C27" d="M62,32c0-13.061-8.35-24.167-20-28.286v56.573C53.65,56.168,62,45.061,62,32z"/>
<path fill="#529320" d="M2,32c0,13.061,8.35,24.168,20,28.287V3.714C10.35,7.833,2,18.939,2,32z"/>
<path fill="#FFE12C" d="M42,3.714C38.871,2.607,35.506,2,32,2c-3.508,0-6.873,0.607-10,1.714v56.573C25.127,61.393,28.492,62,32,62
	c3.506,0,6.871-0.607,10-1.713V3.714z"/>
<polygon fill="#529320" points="32,36.246 37.252,40 35.266,33.895 40.5,30.11 34.021,30.092 32,24 29.977,30.092 23.5,30.11 
	28.73,33.895 26.746,40 "/>
<path opacity="0.1" fill="#1A1626" d="M50.736,8.59c4.096,5.131,6.563,11.623,6.563,18.701c0,16.568-13.43,30.004-29.994,30.004
	c-7.102,0-13.611-2.479-18.746-6.594C14.053,57.58,22.502,62,32.002,62c16.566,0,29.994-13.432,29.994-30
	C61.996,22.527,57.594,14.09,50.736,8.59z"/>
<path opacity="0.3" fill-rule="evenodd" clip-rule="evenodd" fill="#FFFFFF" d="M9.734,19.014c0.549,3.865,7.766-3.699,15.08-10.201
	C29.531,4.629,8.082,7.385,9.734,19.014z"/>
</svg>
