<?xml version="1.0" encoding="utf-8"?>
<!-- Generator: Adobe Illustrator 15.0.0, SVG Export Plug-In . SVG Version: 6.00 Build 0)  -->
<!DOCTYPE svg PUBLIC "-//W3C//DTD SVG 1.1//EN" "http://www.w3.org/Graphics/SVG/1.1/DTD/svg11.dtd">
<svg version="1.1" id="Layer_1" xmlns="http://www.w3.org/2000/svg" xmlns:xlink="http://www.w3.org/1999/xlink" x="0px" y="0px"
	 width="64px" height="64px" viewBox="0 0 64 64" enable-background="new 0 0 64 64" xml:space="preserve">
<path fill="#E81C27" d="M10.787,10.787V32H62C62,15.432,48.568,2,32,2c-8.285,0-15.785,3.359-21.215,8.789L10.787,10.787z"/>
<path fill="#014D87" d="M10.787,32v21.213l-0.002-0.002C16.215,58.641,23.715,62,32,62c16.568,0,30-13.432,30-30H10.787z"/>
<path fill="#F5F5F5" d="M10.787,10.787C5.357,16.217,2,23.717,2,32c0,8.285,3.357,15.783,8.787,21.213L32,32L10.787,10.787z"/>
<path fill="#FFFF00" d="M18.463,25.533l0.01-0.377c0,0-0.201-0.32,0.033-0.666c0,0-0.498-0.262-0.383-0.674
	c0,0-0.449-0.113-0.416-0.609c0,0-0.484-0.033-0.535-0.445c0,0-0.484,0.08-0.697-0.322c0,0-0.473,0.092-0.607-0.24
	c0,0-0.459,0.16-0.732-0.23c0,0-0.484,0.197-0.689-0.172c-0.201,0.367-0.686,0.172-0.686,0.172c-0.27,0.389-0.732,0.227-0.732,0.227
	c-0.129,0.334-0.602,0.24-0.602,0.24c-0.211,0.4-0.697,0.322-0.697,0.322c-0.047,0.412-0.531,0.445-0.531,0.445
	c0.039,0.496-0.41,0.607-0.41,0.607c0.119,0.412-0.377,0.674-0.377,0.674c0.238,0.348,0.041,0.664,0.041,0.664l-0.012,0.348
	L18.463,25.533"/>
<path fill="#FFE12C" d="M18.463,25.533l0.01-0.377c0,0-0.201-0.32,0.033-0.666c0,0-0.498-0.262-0.383-0.674
	c0,0-0.449-0.113-0.416-0.609c0,0-0.484-0.033-0.535-0.445c0,0-0.484,0.08-0.697-0.322c0,0-0.473,0.092-0.607-0.24
	c0,0-0.459,0.16-0.732-0.23c0,0-0.484,0.197-0.689-0.172c-0.201,0.367-0.686,0.172-0.686,0.172c-0.27,0.389-0.732,0.227-0.732,0.227
	c-0.129,0.334-0.602,0.24-0.602,0.24c-0.211,0.4-0.697,0.322-0.697,0.322c-0.047,0.412-0.531,0.445-0.531,0.445
	c0.039,0.496-0.41,0.607-0.41,0.607c0.119,0.412-0.377,0.674-0.377,0.674c0.238,0.348,0.041,0.664,0.041,0.664l-0.012,0.348
	L18.463,25.533L18.463,25.533L18.463,25.533z"/>
<path fill="#E81C27" d="M18.275,25.064c-1.26-0.127-2.713-0.426-3.832,0.205c-0.752-0.443-1.797-0.414-2.688-0.328
	c-0.484,0.086-1.053,0.086-1.559,0.168l-0.08,0.012c-0.916,0.061-1.746-0.211-2.545-0.566c0.254,1.436,0.535,2.908,0.674,4.41
	c0.301,2.227-1.055,4.096-0.498,6.295c0.33,1.055,1.49,1.67,2.553,1.791c1.029,0.061,2.094,0.23,3.047,0.436
	c0.18,0.039,0.395,0.121,0.52,0.176c0.262,0.111,0.455,0.271,0.623,0.443c0.574-0.598,1.416-0.764,2.246-0.852
	c1.5-0.176,3.346-0.08,4.262-1.438V35.74c0.498-0.75,0.432-1.896,0.217-2.746c-0.014-0.295-0.094-0.557-0.137-0.84
	c-0.916-2.416-0.131-5.133,0.262-7.568c-0.48,0.262-1.018,0.387-1.553,0.518c-0.426,0.059-0.902,0.031-1.334,0.008L18.275,25.064
	 M20.158,31.998L20.158,31.998"/>
<path fill="#014D87" d="M20.158,31.998c-0.006,0.158,0.08,0.283,0.111,0.43c0.174,1.059,0.344,2.457-0.744,3.111
	c-1.203,0.766-2.779,0.438-4.172,0.842c-0.279,0.078-0.662,0.334-0.857,0.516c-0.125-0.084-0.252-0.211-0.414-0.285
	c-1.145-0.609-2.633-0.404-3.926-0.734c-0.65-0.205-1.326-0.711-1.492-1.375c-0.422-1.744,0.592-3.23,0.471-4.961
	c-0.078-1.32-0.299-2.588-0.604-3.826c1.01,0.471,2.18,0.549,3.316,0.324c0.842-0.119,1.82-0.119,2.609,0.234
	c0.434-0.188,0.943-0.27,1.412-0.322c0.891,0.088,1.848,0.248,2.764,0.242c0.613-0.033,1.17-0.209,1.703-0.445
	C20.02,27.795,19.412,29.939,20.158,31.998"/>
<g>
	<path fill="#F5F5F5" d="M19.244,34.936l-0.682-0.002l-0.01-2.068h0.143l-0.004-0.434H18.34l-0.01-1.951h0.236l-2.941-1.898
		l-0.006-0.988h0.283l-1.471-1.053l-1.463,1.053h0.283l0.006,0.986l-2.928,1.898h0.234l0.01,1.943h-0.355v0.438l0.17,0.006
		l0.006,2.061H9.762l0.004,0.6l9.479,0.012V34.936L19.244,34.936z"/>
</g>
<path fill="#F5F5F5" d="M18.371,26.371c0.277-0.006,0.35,1.141,0.35,1.709c0.238,0.064,0.764,0.398,0.998,0.697l-2.674-0.004
	c0.23-0.295,0.754-0.629,0.988-0.695C18.033,27.51,18.092,26.363,18.371,26.371"/>
<path fill="#FFE12C" d="M24.328,32.629L24.328,32.629l-0.467,0.033c-0.049-0.451-0.154-1.008-0.369-1.639v0.002l0,0l-1.369,0.434
	l0.434,2.221l0.381,0.061c-0.203,1.682-1.096,4.432-5.166,4.613l0.025,0.234c-0.762,0.324-2.148,0.543-3.293,0.539l0,0
	c-1.145,0-2.57-0.221-3.336-0.543l0.023-0.24c-4.068-0.184-4.986-2.932-5.207-4.613l0.383-0.059l0.414-2.225L5.408,31.01v-0.002
	c-0.209,0.629-0.309,1.186-0.354,1.639l-0.469-0.035c-0.229,1.848,0.139,6.387,4.842,7.176l-0.004,0.484
	c1.326,0.73,4.414,0.889,5.088,0.885c0.67,0.004,3.721-0.152,5.041-0.881l-0.008-0.48C24.242,39.014,24.572,34.477,24.328,32.629z"
	/>
<path fill="#594640" d="M9.578,23.867c0.105-0.252,1.072-0.939,4.246-0.639c0,0,0.537,0.328,0.852,0.285
	c0.18-0.023-0.105,0.012-0.34-0.182c-0.238-0.195-0.289-0.596,0.256-0.586c0.543,0.016,2.58,0.131,2.617,0.314
	s-1.076,0.26-1.49,0.25c-0.414-0.012-0.365,0.199,0.047,0.184c1.293-0.047,2.703-0.502,4.191,0.551
	c0.18,0.129-0.449,0.15-0.934-0.057c0,0-1.313,0.068-1.881-0.023c0,0-0.438,0.354-1.006,0.318c0.074,0.186-0.211,0.873-1.998,0.355
	c-0.295,0.092-1.373,0.271-1.256-0.049c-0.281,0-0.779,0.09-0.854-0.07c-0.07-0.158,0.875-0.398,1.041-0.57c0,0-2,0.02-2.379-0.119
	c0,0-1.182,0.266-1.113,0.035"/>
<polyline fill="#529320" points="10.221,26.67 10.373,26.51 12.352,26.689 12.012,27.217 12.193,27.742 12.074,27.961 
	11.615,27.805 11.746,28.006 11.453,28.02 11.379,28.225 11.148,28.014 11.225,28.219 10.922,28.904 10.748,28.992 10.697,28.525 
	10.363,28.982 10.043,28.543 10.172,27.953 9.904,27.721 9.293,27.779 9.479,27.059 8.82,26.354 10.219,26.67 "/>
<path opacity="0.1" fill="#1A1626" d="M50.736,8.59c4.097,5.131,6.563,11.623,6.563,18.701c0,16.568-13.428,30.004-29.994,30.004
	c-7.101,0-13.609-2.479-18.744-6.594C14.055,57.58,22.502,62,32.003,62c16.565,0,29.995-13.432,29.995-30
	C61.998,22.527,57.595,14.09,50.736,8.59z"/>
<path opacity="0.3" fill-rule="evenodd" clip-rule="evenodd" fill="#FFFFFF" d="M9.734,19.014c0.549,3.865,7.767-3.699,15.08-10.201
	C29.531,4.629,8.083,7.385,9.734,19.014z"/>
</svg>
