<?xml version="1.0" encoding="utf-8"?>
<!-- Generator: Adobe Illustrator 15.0.0, SVG Export Plug-In . SVG Version: 6.00 Build 0)  -->
<!DOCTYPE svg PUBLIC "-//W3C//DTD SVG 1.1//EN" "http://www.w3.org/Graphics/SVG/1.1/DTD/svg11.dtd">
<svg version="1.1" id="Layer_1" xmlns="http://www.w3.org/2000/svg" xmlns:xlink="http://www.w3.org/1999/xlink" x="0px" y="0px"
	 width="64px" height="64px" viewBox="0 0 64 64" enable-background="new 0 0 64 64" xml:space="preserve">
<g>
	<g>
		<g>
			<g>
				<rect x="12" y="12" fill="#014D87" width="21" height="21"/>
			</g>
			<g>
				<polygon fill="#F5F5F5" points="18.913,8.14 18.913,14 11.6,14 26,32 32,32 32,24.5 				"/>
			</g>
			<g>
				<path fill="#014D87" d="M32,2v30H2c0,16.568,13.432,30,30,30s30-13.432,30-30S48.568,2,32,2z"/>
			</g>
			<g>
				<path fill="#F5F5F5" d="M11,18.912H5.01C3.088,22.869,2,27.306,2,32h12V13.912h-3V18.912z"/>
			</g>
			<g>
				<polygon fill="#E81C27" points="32,27.059 19.001,11 13,11 30,32 32,32 				"/>
			</g>
			<g>
				<path fill="#F5F5F5" d="M18.913,5.012V11H11v3h21V2C27.305,2,22.867,3.088,18.913,5.012z"/>
			</g>
			<g>
				<path fill="#E81C27" d="M32,5H18.913C12.857,7.94,7.939,12.857,5,18.912V32h6V11h21V5z"/>
			</g>
		</g>
	</g>
</g>
<path fill="#F5F5F5" d="M36.586,21.776h19.977l-0.023,14.215c0.166,5.714-3.395,9.26-9.949,10.858
	c-4.652-1.155-10.02-3.546-10.027-10.696L36.586,21.776L36.586,21.776z"/>
<path fill="#0FB4D4" d="M37.027,22.204h19.092l-0.021,13.622c0.158,5.476-3.246,8.873-9.508,10.405
	c-4.447-1.107-9.576-3.397-9.584-10.25l0.023-13.777H37.027z"/>
<g>
	<path fill="#E81C27" d="M37.16,37.466c0.859,5.821,5.301,7.589,9.428,8.696c4.664-1.212,8.689-3.496,9.383-8.723L37.16,37.466z"/>
</g>
<g>
	<polygon fill="#785647" points="55.971,37.439 55.971,37.439 55.973,37.439 	"/>
</g>
<polygon fill="#302C3B" points="45.832,24.742 45.807,23.025 47.164,23.038 47.176,24.742 50.889,24.742 50.902,26.072 
	47.176,26.086 47.146,41.781 45.822,41.789 45.807,26.072 42.105,26.086 42.105,24.729 "/>
<path fill="#F59E01" d="M44.689,33.862c-0.926,0.378-0.756,1.962-1.977,2.45c-1.135,0.454-1.625,2.509-0.111,1.903
	c0.055,0.338,3.539,4.955,3.941,4.731C48.953,41.582,47.477,34.139,44.689,33.862C44.637,33.884,46.406,34.032,44.689,33.862z
	 M46.225,41.613c-0.727-0.754-3.889-4.162-3.959-4.066c0.133,0.082,2.561-2.283,2.773-2.943
	C46.736,35.58,47.564,40.143,46.225,41.613C46.225,41.613,47.4,40.321,46.225,41.613z"/>
<g>
	<path fill="#529320" d="M50.635,37.176c0.113-1.188-0.066-2.287-0.357-2.825c-0.293-0.538-0.338-1.211-0.785-1.996
		c0.332,0.056,0.516-0.628,0.594-1.458c0.045-0.47,0.012-0.829,0.111-1.67c0.102-0.841-0.201-1.145-0.408-1.317
		c-0.207-0.174-0.342-0.23-0.443-0.241c-0.297-0.102-1.02-0.012-1.166,0.033s-0.344,0.057-0.49,0.034
		c-0.145-0.022-0.268,0.101-0.502,0.303l0,0v9.878c0.076,0.882-0.162,2.759-0.656,4.127c-0.197,0.547-0.111,0.762,0.158,0.941
		c1.174,0.784,1.973,0,2.824-0.65c0.279-0.212,0.426-0.224,0.764,0.135c0.336,0.358,0.717,0.471,0.873,0.358
		C50.209,41.033,50.523,38.365,50.635,37.176z"/>
</g>
<g>
	<g>
		<path fill="#F5F5F5" d="M47.58,27.13c0.859,0.472-0.008,0.654,0.453,1.547c0.395-0.558,1.615-0.463,1.043-1.269
			c-0.406-0.572,0.975-2.16-0.572-2.182C47.979,25.219,46.98,26.796,47.58,27.13C47.631,27.157,47.398,27.028,47.58,27.13z"/>
	</g>
	<g>
		<path fill="#F5F5F5" d="M44.613,29.417c0.898-0.105,1.457,0.268,1.201-0.965c-1.691,0,0.697-2.881,0.477-3.353
			C45.725,23.885,43.334,29.565,44.613,29.417C44.996,29.372,44.445,29.437,44.613,29.417z"/>
	</g>
	<g>
		<path fill="#F5F5F5" d="M49.895,29.518c-0.033-0.174-2.795,2.054-3.285,2.422c0.26-0.195-3.385,2.425-2.146,2.557
			c0.521,0.069,0.891-0.702,1.17-1.141C46.877,31.393,49.895,33.205,49.895,29.518C49.895,29.125,49.895,30.112,49.895,29.518z"/>
	</g>
	<g>
		<path fill="#F5F5F5" d="M50.461,42.827c-0.121-0.459-0.502-0.775-0.947-0.493c0.141,0.508-0.533,1.669-0.246,1.89
			C49.785,44.614,50.557,43.186,50.461,42.827C50.426,42.691,50.5,42.974,50.461,42.827z"/>
	</g>
	<g>
		<path fill="#F5F5F5" d="M46.324,43.299c0.156,0.156,0.51,0.162,0.756-0.102c-0.088-0.039-0.285-0.129-0.375-0.201
			C46.582,43.119,46.441,43.26,46.324,43.299z"/>
	</g>
</g>
<g>
	<path fill="#870F00" d="M47.91,25.47c0.211-1.365,2.639,0.648,2.215,1.469C49.4,28.34,48.242,25.012,47.91,25.47
		C47.973,25.072,47.967,25.392,47.91,25.47z"/>
</g>
<path opacity="0.1" fill="#1A1626" d="M50.736,8.592c4.098,5.129,6.563,11.621,6.563,18.701c0,16.568-13.428,30.002-29.994,30.002
	c-7.099,0-13.609-2.477-18.744-6.594C14.055,57.58,22.502,62,32.004,62c16.564,0,29.994-13.432,29.994-30
	C61.998,22.527,57.596,14.09,50.736,8.592z"/>
<path opacity="0.3" fill-rule="evenodd" clip-rule="evenodd" fill="#FFFFFF" d="M9.734,19.016c0.549,3.865,7.769-3.701,15.08-10.203
	C29.531,4.631,8.084,7.385,9.734,19.016z"/>
</svg>
