<?xml version="1.0" encoding="utf-8"?>
<!-- Generator: Adobe Illustrator 15.0.0, SVG Export Plug-In . SVG Version: 6.00 Build 0)  -->
<!DOCTYPE svg PUBLIC "-//W3C//DTD SVG 1.1//EN" "http://www.w3.org/Graphics/SVG/1.1/DTD/svg11.dtd">
<svg version="1.1" id="Layer_1" xmlns="http://www.w3.org/2000/svg" xmlns:xlink="http://www.w3.org/1999/xlink" x="0px" y="0px"
	 width="64px" height="64px" viewBox="0 0 64 64" enable-background="new 0 0 64 64" xml:space="preserve">
<circle fill="#F5F5F5" cx="32" cy="32" r="30"/>
<path fill="#FFE12C" d="M28.707,24.584c-0.232,0.461-0.574,0.705-0.574,0.705s7.891,0.715,7.607-0.006
	c-0.281-0.719-0.939-1.223-0.939-1.223s0.639-0.072,0.799-0.279c-1.016-0.49-1.596-1.516-1.596-1.516
	c0.287,0.086,0.734-0.01,0.734-0.01c-1.117-1.564-0.598-1.953-1.008-2.99s-1.111-1.244-1.285-1.34s-1.336-0.191-1.773,0.029
	s-0.465,0.543-0.516,0.543c-0.049,0-0.404-0.059-0.541,0.311c-0.02,0.055-0.033,0.102-0.039,0.146
	c-0.176,0.002-0.371,0.016-0.59,0.043c-1.072,0.129-0.922,1.467-0.922,1.467c0.084-0.061,0.285-0.475,0.662-0.414
	c0.373,0.059,0.512-0.035,0.748-0.029c0.748,0.018,0.82,0.676,0.818,0.936c-0.037,0.02-0.084,0.063-0.148,0.156
	c-0.26,0.375-0.303,0.635-0.303,0.635C29.596,22.914,28.912,23,28.912,23c0.35,0.191,0.52,0.135,0.555,0.117
	c-0.355,0.18-0.855,0.818-0.855,0.818c-0.342,0.52-0.602,0.432-0.602,0.432C28.359,24.713,28.707,24.584,28.707,24.584z"/>
<path fill="#FFE12C" d="M57.057,16.998c-0.418-0.771-1.703,0.135-3.227,0.555c0,0-3.559,1.121-5.689,1.557
	c-0.221,0.021-0.436,0.08-0.436,0.08c-0.008,0.004-0.016,0.006-0.023,0.006l0,0l0,0c-5.797,1.477-7.379,2.416-7.379,2.416
	c-1.094,0.662-0.826,2.262-0.109,2.795c0.293,0.217,0.273,0.594,0.061,0.799c-0.256,0.242-0.58,0.02-0.58,0.02
	c-0.963-0.477-1.504-0.07-1.504-0.07s-0.889,4.313,0.24,4.92l-0.199,1.4c0,0,0.848,0.691,1.559,0c0,0,0.287,0.346,0.861,0.244
	c0.574-0.1,0.67-0.402,0.725-0.574c0,0,0.498,0.289,0.916,0.061c0.42-0.229,0.42-0.576,0.42-0.576s0.729,0.145,1.104-0.35
	c0.373-0.494,0.145-0.984-0.055-1.041c0,0,0.789,0.205,1.002-0.471c0.182-0.576-0.229-0.873-0.229-0.873s1.662-0.01,2.344-0.529
	c0,0,0.564-0.355,0.227-0.729c0,0,1.496-0.24,1.869-0.834c0,0,0.164-0.164,0.109-0.451c0,0-0.008-0.166-0.174-0.174
	c0,0,1.705-0.264,2.197-0.826c0,0,0.238-0.26,0.119-0.604c0,0-0.025-0.094-0.066-0.152c0,0,1.553-0.328,2.318-1.02
	c0,0,0.441-0.395,0.213-0.922c0,0,2.594-0.709,1.992-1.854c0,0,1.213-0.393,0.83-1.488C56.492,18.313,57.494,17.805,57.057,16.998z"
	/>
<path fill="#FFE12C" d="M19.258,28.768c0.215,0.676,1.002,0.471,1.002,0.471c-0.201,0.057-0.428,0.547-0.055,1.041
	c0.375,0.494,1.104,0.35,1.104,0.35s0,0.348,0.42,0.576c0.418,0.229,0.916-0.061,0.916-0.061c0.055,0.172,0.15,0.475,0.725,0.574
	c0.574,0.102,0.861-0.244,0.861-0.244c0.711,0.691,1.559,0,1.559,0l-0.199-1.4c1.129-0.607,0.24-4.92,0.24-4.92
	s-0.541-0.406-1.504,0.07c0,0-0.324,0.223-0.58-0.02c-0.213-0.205-0.232-0.582,0.061-0.799c0.717-0.533,0.984-2.133-0.109-2.795
	c0,0-1.582-0.939-7.379-2.416l0,0l0,0c-0.008,0-0.016-0.002-0.023-0.006c0,0-0.215-0.059-0.436-0.08
	c-2.133-0.436-5.689-1.557-5.689-1.557c-1.523-0.42-2.809-1.326-3.229-0.555c-0.438,0.807,0.566,1.314,0.566,1.314
	c-0.383,1.096,0.828,1.488,0.828,1.488c-0.602,1.145,1.992,1.854,1.992,1.854c-0.229,0.527,0.215,0.922,0.215,0.922
	c0.766,0.691,2.318,1.02,2.318,1.02c-0.041,0.059-0.066,0.152-0.066,0.152c-0.119,0.344,0.117,0.604,0.117,0.604
	c0.492,0.563,2.197,0.826,2.197,0.826c-0.164,0.008-0.174,0.174-0.174,0.174c-0.053,0.287,0.111,0.451,0.111,0.451
	c0.373,0.594,1.867,0.834,1.867,0.834c-0.338,0.373,0.229,0.729,0.229,0.729c0.682,0.52,2.342,0.529,2.342,0.529
	S19.076,28.191,19.258,28.768z"/>
<path fill="#FFE12C" d="M26.145,37.408c0,0,0.156-0.586,1.113-1.104c0,0,1.084-0.41,1.057-0.943
	c-0.027-0.535-2.414-3.402-2.414-3.402s-0.176,0.938-1.559,2.117c0,0-1.068,0.941-1.041,2.025c0.027,1.105-0.191,1.23-0.611,1.605
	c0,0,0.105,0.006,0.26-0.008c-0.256,0.352-0.773,0.943-1.361,0.957c0,0-1.443-0.176-1.852,0.201
	c-0.283,0.264-0.574,0.48-0.693,1.152c-0.117,0.672,0.229,0.816,0.311,0.844c0,0,0.064,0.48,0.537,0.355c0,0,0.027,0.5,0.867,0.26
	c0.838-0.24,1.186-0.164,1.35-0.998c0.164-0.836,0.314-0.822,0.465-0.922c0.199-0.135,0.576-0.262,0.855-0.422
	c0.225-0.129,1.004-0.527,1.406-0.643c0.014,0.09,0.031,0.186,0.063,0.277c0,0,0.064-0.24,0.4-0.346
	C25.297,38.416,25.908,38.291,26.145,37.408z"/>
<path fill="#FFE12C" d="M44.264,38.857c-0.408-0.377-1.85-0.201-1.85-0.201c-0.59-0.014-1.107-0.605-1.363-0.957
	c0.154,0.014,0.26,0.008,0.26,0.008c-0.42-0.375-0.639-0.5-0.609-1.605c0.025-1.084-1.041-2.025-1.041-2.025
	c-1.385-1.18-1.559-2.117-1.559-2.117s-2.387,2.867-2.416,3.402c-0.025,0.533,1.059,0.943,1.059,0.943
	c0.957,0.518,1.111,1.104,1.111,1.104c0.238,0.883,0.848,1.008,0.848,1.008c0.338,0.105,0.402,0.346,0.402,0.346
	c0.029-0.092,0.049-0.188,0.061-0.277c0.404,0.115,1.184,0.514,1.406,0.643c0.279,0.16,0.656,0.287,0.857,0.422
	c0.148,0.1,0.301,0.086,0.465,0.922c0.164,0.834,0.51,0.758,1.348,0.998c0.84,0.24,0.867-0.26,0.867-0.26
	c0.475,0.125,0.537-0.355,0.537-0.355c0.082-0.027,0.43-0.172,0.311-0.844S44.549,39.121,44.264,38.857z"/>
<path fill="#FFE12C" d="M36.092,36.842c0.014-0.211-0.109-0.525-0.52-0.992c-1.002-1.133-2.596,1.26-3.049,2
	c-0.141-0.178-0.322-0.283-0.523-0.283c-0.199,0-0.381,0.105-0.521,0.283c-0.455-0.74-2.047-3.133-3.049-2
	c-0.412,0.467-0.535,0.781-0.521,0.992c-3.934,3.617-2.021,3.936-2.021,3.936l0,0l0,0l0,0c0,0.932,0.83,0.711,0.83,0.711
	c-0.092,0.988,0.674,0.854,0.674,0.854c-0.008,1.115,0.813,0.922,0.813,0.922c0.145,1.191,1.047,0.711,1.049,0.711l0,0l0,0l0,0
	c-0.047,1.018,0.564,1.074,0.564,1.074c0.713,0.074,1.006-0.66,1.086-0.92c0.006,0.174,0.014,0.34,0.025,0.5
	c0.063,0.797,0.49,1.447,1.072,1.447c0.584,0,1.012-0.65,1.074-1.447c0.012-0.16,0.02-0.326,0.023-0.5
	c0.08,0.26,0.375,0.994,1.088,0.92c0,0,0.609-0.057,0.564-1.074c0,0,0.902,0.48,1.049-0.711l0,0l0,0c0,0,0.82,0.193,0.811-0.922l0,0
	l0,0c0,0,0.766,0.135,0.674-0.854c0,0,0.83,0.221,0.83-0.711l0,0l0,0l0,0C38.113,40.777,40.027,40.461,36.092,36.842z"/>
<polygon fill="#014D87" points="47.287,33.863 48.088,34.291 44.133,38.922 44.563,39.404 48.533,34.713 49.029,35.514 
	50.908,31.471 "/>
<polygon fill="#014D87" points="47.572,32.225 48.225,32.885 49.193,28.502 46.176,31.691 47.047,31.92 44.25,37.25 45.119,33.508 
	45.912,33.969 45.77,29.469 43.639,33.371 44.537,33.355 43.25,38.826 43.795,39.217 43.854,38.963 44.018,39.057 "/>
<path fill="#014D87" d="M43.383,42.301l-0.373-0.637l0.129-0.523c-0.002-0.002-0.004-0.002-0.006-0.006l0.338-0.428
	c0.008-0.109-0.033-0.203-0.09-0.281l0.002-0.002c-0.078-0.125-0.186-0.195-0.287-0.238l0,0l0,0
	c-0.141-0.061-0.268-0.059-0.268-0.059l-0.506,0.98l-0.988-0.002l-0.416,0.789l-0.264-0.066l-2.848,3.334l1.48,0.111l0.26,1.539
	l1.004-1.176l-0.254,1.07l1.357-0.633l0.916,1.229l1.031-4.348l-0.369-0.367L43.383,42.301z"/>
<path fill="#529320" d="M20.918,39.061c0,0-0.049-0.324,0.566-0.563s0.664-1.121,0.541-1.713c0,0-0.322,0.563-0.711,0.75
	c0,0-0.637,0.33-0.666,0.963c0,0-0.004,0.23-0.053,0.41c-0.025,0.1-0.307-0.789,0.227-1.453c0.549-0.684,0.703-1.238,0.266-2.318
	c0,0-0.041,0.654-0.471,1.027c-0.432,0.377-0.486,0.404-0.479,1.299c0,0,0.006,0.309-0.158,0.41c0,0-0.334-0.49-0.424-0.814
	c-0.088-0.324-0.129-0.461,0.254-0.836c0,0,1.227-0.791,0.342-2.527c0,0-0.027,0.598-0.451,0.951
	c-0.426,0.354-0.391,0.59-0.41,1.203c-0.021,0.611-0.063,0.568-0.109,0.654c0,0-0.781-1.434-0.178-2.195
	c0.602-0.764,0.936-0.922,0.271-2.34c0,0,0.031,0.727-0.5,1.086c-0.531,0.361-0.408,1.203-0.408,1.203s0.033,0.316-0.076,0.547
	c0,0-0.75-1.465-0.033-2.254c0.609-0.668,0.65-1.137,0.32-2.088c0,0-0.039,0.439-0.375,0.678c-0.334,0.236-0.602,0.475-0.541,1.389
	c0,0,0.029,0.641-0.053,0.822c0,0-0.314-0.584-0.404-0.965c-0.088-0.383-0.123-0.605,0.109-0.986
	c0.232-0.383,1.156-1.477,0.055-3.055c0,0-0.033,0.512-0.314,0.973s-0.15,1.01-0.09,1.426c0.063,0.418-0.143,0.82-0.143,0.82
	s-0.479-0.877-0.377-1.885c0.104-1.01-0.307-1.836-1.236-2.434c0,0-0.678,1.568,0.246,2.367c0,0,0.785,0.779,0.984,1.721
	c0,0-0.594-0.057-1.135-1.107s-1.662-0.887-1.736-0.893c0,0,0.184,1.625,1.906,2.088c0,0,1.102,0.188,1.307,0.994
	c0,0,0.184,0.553,0.26,0.848c0,0-0.35-0.137-0.67-0.611c-0.322-0.475-0.281-0.533-1.367-0.643c0,0-0.438-0.049-0.67-0.359
	c0,0,0.457,1.723,1.633,1.709c0,0,1.074-0.117,1.676,1.295c0,0-0.115-0.072-0.273-0.182c-0.158-0.107-0.555-0.309-1.34-0.215
	s-1.006-0.035-1.203-0.102c0,0,0.793,1.455,1.914,1.023s1.662,1.145,1.676,1.174c0,0-0.152-0.115-0.35-0.309
	c-0.197-0.195-0.609-0.436-1.387-0.189c0,0-0.561,0.217-1.129,0.043c0,0,0.547,1.059,1.824,0.879
	c1.279-0.18,1.602,0.945,1.602,0.945s-0.172-0.102-0.289-0.195c-0.115-0.094-0.547-0.34-1.469-0.064
	c-0.922,0.273-1.258-0.045-1.258-0.045s0.514,0.936,1.496,1.045c0,0,0.547-0.008,0.779-0.094c0.234-0.086,0.85-0.223,1.271,0.389
	c0,0-0.115,0.021-0.293-0.059c0,0-0.656-0.236-1.156,0.18c0,0-0.443,0.455-1.072,0.369c0,0,0.813,0.791,2.105,0.121
	c0,0,0.438-0.316,0.76-0.07C20.172,39.543,20.918,39.061,20.918,39.061z"/>
<path fill="#529320" d="M20.775,41.049c0,0-0.021-0.584,0.719-0.627l2.174,3.023c0,0-0.082,0.195-1.066,0.174
	c0,0-0.105-0.002-0.16,0.115C22.357,43.91,20.775,41.049,20.775,41.049z"/>
<path fill="#F5F5F5" d="M31.93,38.379c0,0,6.584-2.918,6.6-9.666H25.33C25.346,35.461,31.93,38.379,31.93,38.379z"/>
<path fill="#E81C27" d="M26.346,28.713v4.313c0,0,0.504,0.998,1.014,1.627v-5.939H26.346L26.346,28.713z"/>
<path fill="#E81C27" d="M28.375,28.713v7.107c0,0,0.637,0.623,1.016,0.922v-8.029H28.375z"/>
<path fill="#E81C27" d="M30.406,28.713v8.785c0,0,0.725,0.469,1.016,0.621v-9.406H30.406z"/>
<path fill="#E81C27" d="M37.514,28.713v4.313c0,0-0.504,0.998-1.014,1.627v-5.939H37.514z"/>
<path fill="#E81C27" d="M35.484,28.713v7.107c0,0-0.635,0.623-1.016,0.922v-8.029H35.484z"/>
<path fill="#E81C27" d="M33.453,28.713v8.785c0,0-0.725,0.469-1.016,0.621v-9.406H33.453z"/>
<path fill="#014D87" d="M38.529,23.809c0,0-3.23,1.689-6.6-0.139c-3.369,1.828-6.6,0.139-6.6,0.139v4.904h13.199V23.809
	L38.529,23.809z"/>
<path fill="#014D87" d="M8.432,36.389c0.318-0.131,0.549-0.256,0.549-0.598c0-0.082-0.045-0.262-0.137-0.541l-2.148-6.564
	c-0.127-0.389-0.223-0.621-0.268-0.707c-0.096-0.186-0.287-0.26-0.541-0.367H6.15h2.201h0.266c-0.297,0.141-0.568,0.252-0.564,0.566
	c0,0.119,0.033,0.289,0.104,0.508l1.646,5.152l1.643-5.152c0.07-0.219,0.105-0.389,0.105-0.508
	c-0.004-0.322-0.285-0.439-0.563-0.566h0.262h2.121h0.264c-0.242,0.098-0.439,0.174-0.541,0.367
	c-0.043,0.086-0.141,0.318-0.268,0.707l-2.148,6.564c-0.09,0.279-0.123,0.463-0.137,0.547c0,0-0.098,0.416,0.551,0.592H8.432
	L8.432,36.389z"/>
<path fill="#014D87" d="M54.207,35.713v-7.432c0-0.129-0.021-0.229-0.064-0.297s-0.227-0.266-0.49-0.373h0.264h1.934h0.264
	c-0.264,0.088-0.449,0.301-0.49,0.371c-0.043,0.07-0.064,0.17-0.064,0.299v7.432c0,0.135,0.021,0.234,0.066,0.307
	c0.043,0.07,0.225,0.242,0.488,0.369H55.85h-1.934h-0.264c0.264-0.119,0.447-0.305,0.49-0.373S54.207,35.848,54.207,35.713z"/>
<path opacity="0.05" fill="#1A1626" d="M50.736,8.592c4.096,5.129,6.563,11.621,6.563,18.701c0,16.568-13.428,30.002-29.994,30.002
	c-7.102,0-13.609-2.477-18.744-6.594C14.055,57.58,22.502,62,32.002,62c16.566,0,29.996-13.432,29.996-30
	C61.998,22.527,57.594,14.09,50.736,8.592z"/>
<path opacity="0.7" fill-rule="evenodd" clip-rule="evenodd" fill="#FFFFFF" d="M9.734,19.016c0.549,3.865,7.766-3.701,15.08-10.203
	C29.531,4.631,8.082,7.385,9.734,19.016z"/>
</svg>
