<?xml version="1.0" encoding="utf-8"?>
<!-- Generator: Adobe Illustrator 15.0.0, SVG Export Plug-In . SVG Version: 6.00 Build 0)  -->
<!DOCTYPE svg PUBLIC "-//W3C//DTD SVG 1.1//EN" "http://www.w3.org/Graphics/SVG/1.1/DTD/svg11.dtd">
<svg version="1.1" id="Layer_1" xmlns="http://www.w3.org/2000/svg" xmlns:xlink="http://www.w3.org/1999/xlink" x="0px" y="0px"
	 width="64px" height="64px" viewBox="0 0 64 64" enable-background="new 0 0 64 64" xml:space="preserve">
<path fill="#ED7612" d="M2,32C2,15.436,15.438,2,32,2c16.572,0,30,13.436,30,30c0,16.57-13.428,30-30,30C15.438,62,2,48.57,2,32z"/>
<path fill="#E64C18" d="M45.778,5.354C53.172,10.609,58,19.24,58,29c0,16.018-12.98,29-29,29c-9.759,0-18.39-4.83-23.646-12.225
	C10.347,55.412,20.404,62,32,62c16.571,0,30-13.43,30-30C62,20.402,55.413,10.346,45.778,5.354z"/>
<path fill-rule="evenodd" clip-rule="evenodd" fill="#F59E01" d="M10.218,17.396c0.446,3.135,6.31-2.996,12.248-8.266
	C26.298,5.74,8.878,7.973,10.218,17.396z"/>
<path fill="#FFFFFF" d="M37.312,17.492h8.725v29.016h-5.65V26.881c0-0.564,0.008-1.355,0.02-2.371
	c0.014-1.018,0.02-1.803,0.02-2.354l-5.498,24.352h-5.893l-5.459-24.352c0,0.551,0.006,1.336,0.02,2.354
	c0.014,1.016,0.02,1.807,0.02,2.371v19.627h-5.65V17.492h8.824l5.281,22.814L37.312,17.492z"/>
</svg>
