<?xml version="1.0" encoding="utf-8"?>
<!-- Generator: Adobe Illustrator 15.0.0, SVG Export Plug-In . SVG Version: 6.00 Build 0)  -->
<!DOCTYPE svg PUBLIC "-//W3C//DTD SVG 1.1//EN" "http://www.w3.org/Graphics/SVG/1.1/DTD/svg11.dtd">
<svg version="1.1" id="Layer_1" xmlns="http://www.w3.org/2000/svg" xmlns:xlink="http://www.w3.org/1999/xlink" x="0px" y="0px"
	 width="64px" height="64px" viewBox="0 0 64 64" enable-background="new 0 0 64 64" xml:space="preserve">
<path fill="#ED7612" d="M2,32C2,15.436,15.438,2,32,2c16.573,0,30,13.436,30,30c0,16.57-13.428,30-30,30C15.438,62,2,48.57,2,32z"/>
<path fill="#E64C18" d="M45.779,5.354C53.172,10.61,58,19.24,58,29c0,16.019-12.98,29-29,29c-9.759,0-18.39-4.829-23.646-12.224
	C10.347,55.412,20.404,62,32,62c16.573,0,30-13.43,30-30C62,20.402,55.414,10.347,45.779,5.354z"/>
<path fill-rule="evenodd" clip-rule="evenodd" fill="#F59E01" d="M10.218,17.397c0.446,3.134,6.31-2.997,12.248-8.267
	C26.298,5.741,8.878,7.973,10.218,17.397z"/>
<path fill="#FFFFFF" d="M38.637,18.24c1.068,0.459,1.975,1.135,2.717,2.027c0.613,0.734,1.1,1.549,1.459,2.441
	c0.357,0.893,0.537,1.908,0.537,3.051c0,1.379-0.348,2.732-1.043,4.064s-1.844,2.273-3.445,2.826
	c1.338,0.537,2.287,1.303,2.844,2.293c0.559,0.99,0.838,2.504,0.838,4.537v1.949c0,1.324,0.053,2.225,0.16,2.697
	c0.16,0.748,0.533,1.299,1.119,1.652v0.729h-6.693c-0.184-0.643-0.314-1.16-0.393-1.555c-0.158-0.814-0.244-1.646-0.256-2.5
	l-0.041-2.697c-0.023-1.85-0.344-3.084-0.959-3.701c-0.613-0.615-1.766-0.924-3.454-0.924h-5.922v11.377h-5.926V17.492h13.88
	C36.043,17.531,37.568,17.781,38.637,18.24z M26.104,22.531v7.795h6.526c1.295,0,2.268-0.156,2.917-0.473
	c1.146-0.551,1.721-1.639,1.721-3.268c0-1.758-0.555-2.939-1.664-3.543c-0.623-0.342-1.559-0.512-2.805-0.512H26.104z"/>
</svg>
