<?xml version="1.0" encoding="utf-8"?>
<!-- Generator: Adobe Illustrator 15.0.0, SVG Export Plug-In . SVG Version: 6.00 Build 0)  -->
<!DOCTYPE svg PUBLIC "-//W3C//DTD SVG 1.1//EN" "http://www.w3.org/Graphics/SVG/1.1/DTD/svg11.dtd">
<svg version="1.1" id="Layer_1" xmlns="http://www.w3.org/2000/svg" xmlns:xlink="http://www.w3.org/1999/xlink" x="0px" y="0px"
	 width="64px" height="64px" viewBox="0 0 64 64" enable-background="new 0 0 64 64" xml:space="preserve">
<path fill="#302C3B" d="M32,2C19.701,2,9.141,9.407,4.51,20h54.982C54.861,9.407,44.301,2,32,2z"/>
<path fill="#529320" d="M32,62c12.301,0,22.861-7.408,27.492-18H4.51C9.141,54.592,19.701,62,32,62z"/>
<path fill="#E81C27" d="M62,32c0-2.772-0.385-5.452-1.09-8H3.092C2.385,26.548,2,29.228,2,32s0.385,5.452,1.092,8H60.91
	C61.615,37.452,62,34.772,62,32z"/>
<g>
	<path fill="#F5F5F5" d="M3.715,42c0.24,0.678,0.508,1.344,0.795,2h54.982c0.285-0.656,0.555-1.322,0.795-2
		c0.232-0.656,0.436-1.324,0.623-2H3.092C3.277,40.676,3.482,41.344,3.715,42z"/>
</g>
<g>
	<path fill="#F5F5F5" d="M60.287,22c-0.24-0.679-0.51-1.345-0.795-2H4.51c-0.287,0.655-0.555,1.321-0.795,2
		c-0.232,0.656-0.438,1.324-0.623,2H60.91C60.723,23.324,60.52,22.656,60.287,22z"/>
</g>
<g>
	<g id="spearshape">
		<path fill="#F5F5F5" d="M20.207,52.283l0.715,0.412l19.277-33.389c1.127-0.302,1.746-1.374,2.365-2.446
			c0.412-0.715,2.064-3.574,2.779-7.289c-2.861,2.478-4.51,5.336-4.924,6.051c-0.619,1.072-1.238,2.145-0.936,3.271L20.207,52.283z"
			/>
	</g>
</g>
<g>
	<g id="spearshape_2_">
		<path fill="#F5F5F5" d="M43.795,52.283l-0.715,0.412L23.803,19.307c-1.127-0.302-1.746-1.374-2.365-2.446
			c-0.414-0.715-2.064-3.574-2.779-7.289c2.859,2.478,4.51,5.336,4.922,6.051c0.619,1.072,1.238,2.145,0.938,3.271L43.795,52.283z"
			/>
	</g>
</g>
<path fill="#E81C27" d="M40,32c0,11.045-8,20-8,20s-8-8.955-8-20c0-11.047,8-20,8-20S40,20.953,40,32z"/>
<path fill="#302C3B" d="M26.133,40C27.852,38.348,29,35.387,29,32c0-3.389-1.148-6.348-2.867-8C25.418,26.344,25,29.072,25,32
	C25,34.926,25.418,37.656,26.133,40z"/>
<path fill="#302C3B" d="M37.867,24C36.15,25.652,35,28.611,35,32c0,3.387,1.15,6.348,2.867,8C38.582,37.656,39,34.926,39,32
	C39,29.072,38.582,26.344,37.867,24z"/>
<path fill="#F5F5F5" d="M32,29.587c0.889,0,1.611,1.08,1.611,2.412c0,1.333-0.723,2.414-1.611,2.414
	c-0.887,0-1.609-1.081-1.609-2.414C30.391,30.667,31.113,29.587,32,29.587z"/>
<path fill="#F5F5F5" d="M31.434,12.747c-0.576,1.741-0.961,4.858-0.961,8.428c0,3.568,0.385,6.688,0.961,8.428
	c0.238-2.469,0.379-5.346,0.379-8.428C31.813,18.091,31.672,15.216,31.434,12.747z"/>
<path fill="#F5F5F5" d="M32.568,12.747c0.574,1.741,0.959,4.858,0.959,8.428c0,3.568-0.385,6.688-0.959,8.428
	c-0.24-2.469-0.379-5.346-0.379-8.428C32.189,18.091,32.328,15.216,32.568,12.747z"/>
<path fill="#F5F5F5" d="M31.434,34.413c-0.576,1.741-0.961,4.858-0.961,8.427s0.385,6.688,0.961,8.428
	c0.238-2.469,0.379-5.346,0.379-8.428C31.813,39.756,31.672,36.882,31.434,34.413z"/>
<path fill="#F5F5F5" d="M32.568,34.413c0.574,1.741,0.959,4.858,0.959,8.427s-0.385,6.688-0.959,8.428
	c-0.24-2.469-0.379-5.346-0.379-8.428C32.189,39.756,32.328,36.882,32.568,34.413z"/>
<path opacity="0.1" fill="#1A1626" d="M50.738,8.591c4.096,5.13,6.563,11.622,6.563,18.701c0,16.567-13.43,30.003-29.996,30.003
	c-7.1,0-13.609-2.479-18.744-6.594C14.055,57.58,22.504,62,32.004,62c16.566,0,29.994-13.432,29.994-30
	C61.998,22.527,57.596,14.09,50.738,8.591z"/>
<path opacity="0.3" fill-rule="evenodd" clip-rule="evenodd" fill="#FFFFFF" d="M9.734,19.015c0.549,3.865,7.768-3.7,15.08-10.202
	C29.531,4.63,8.084,7.385,9.734,19.015z"/>
</svg>
