<?xml version="1.0" encoding="utf-8"?>
<!-- Generator: Adobe Illustrator 15.0.0, SVG Export Plug-In . SVG Version: 6.00 Build 0)  -->
<!DOCTYPE svg PUBLIC "-//W3C//DTD SVG 1.1//EN" "http://www.w3.org/Graphics/SVG/1.1/DTD/svg11.dtd">
<svg version="1.1" id="Layer_1" xmlns="http://www.w3.org/2000/svg" xmlns:xlink="http://www.w3.org/1999/xlink" x="0px" y="0px"
	 width="64px" height="64px" viewBox="0 0 64 64" enable-background="new 0 0 64 64" xml:space="preserve">
<path fill="#529320" d="M60.448,22.503l-8.194-2.197l0,0L11.745,43.693h0.002l-2.196,8.193l0,0
	c3.767,4.261,8.782,7.502,14.686,9.084c16.001,4.286,32.449-5.208,36.735-21.208C62.556,33.858,62.255,27.895,60.448,22.503z"/>
<path fill="#014D87" d="M39.763,3.03C23.762-1.258,7.315,8.237,3.027,24.237c-1.582,5.905-1.282,11.868,0.524,17.262l3.681,0.985
	l4.512,1.209l40.509-23.387l1.209-4.513l0.986-3.681C50.683,7.853,45.668,4.611,39.763,3.03z"/>
<path fill="#FFE12C" d="M3.551,41.497c0.641,1.909,1.463,3.749,2.466,5.486l0.015,0.023c1.004,1.738,2.184,3.372,3.519,4.88
	l50.897-29.383c-1.281-3.829-3.323-7.367-5.999-10.39L3.551,41.497z"/>
<polygon fill="#F5F5F5" points="19.002,20.529 21.001,21.876 20.245,19.684 22.236,18.325 19.771,18.317 19.002,16.128 
	18.234,18.317 15.769,18.325 17.759,19.684 17.003,21.876 "/>
<polygon fill="#F5F5F5" points="13.612,14.779 15.611,16.128 14.856,13.935 16.846,12.576 14.382,12.568 13.612,10.379 
	12.844,12.568 10.379,12.576 12.369,13.935 11.615,16.128 "/>
<polygon fill="#F5F5F5" points="24.393,14.779 26.39,16.128 25.636,13.935 27.626,12.576 25.162,12.568 24.393,10.379 
	23.623,12.568 21.158,12.576 23.148,13.935 22.393,16.128 "/>
<polygon fill="#F5F5F5" points="13.612,26.278 15.611,27.625 14.856,25.432 16.846,24.073 14.382,24.065 13.612,21.876 
	12.844,24.065 10.379,24.073 12.369,25.432 11.615,27.625 "/>
<polygon fill="#F5F5F5" points="24.393,26.278 26.39,27.625 25.636,25.432 27.626,24.073 25.162,24.065 24.393,21.876 
	23.623,24.065 21.158,24.073 23.148,25.432 22.393,27.625 "/>
<path opacity="0.1" fill="#1A1626" d="M50.733,8.595c4.095,5.129,6.562,11.62,6.562,18.696c0,16.564-13.426,29.997-29.989,29.997
	c-7.1,0-13.608-2.479-18.742-6.593c5.493,6.878,13.939,11.296,23.438,11.296c16.563,0,29.991-13.428,29.991-29.992
	C61.993,22.529,57.59,14.093,50.733,8.595z"/>
<path opacity="0.3" fill-rule="evenodd" clip-rule="evenodd" fill="#FFFFFF" d="M9.738,19.016
	c0.549,3.864,7.765-3.699,15.078-10.199C29.532,4.635,8.087,7.39,9.738,19.016z"/>
</svg>
