<?xml version="1.0" encoding="utf-8"?>
<!-- Generator: Adobe Illustrator 15.0.0, SVG Export Plug-In . SVG Version: 6.00 Build 0)  -->
<!DOCTYPE svg PUBLIC "-//W3C//DTD SVG 1.1//EN" "http://www.w3.org/Graphics/SVG/1.1/DTD/svg11.dtd">
<svg version="1.1" id="Layer_1" xmlns="http://www.w3.org/2000/svg" xmlns:xlink="http://www.w3.org/1999/xlink" x="0px" y="0px"
	 width="64px" height="64px" viewBox="0 0 64 64" enable-background="new 0 0 64 64" xml:space="preserve">
<path fill="#F5F5F5" d="M2,32c0,5.885,1.701,11.367,4.627,16h50.744C60.299,43.367,62,37.885,62,32s-1.701-11.368-4.629-16H6.627
	C3.701,20.632,2,26.115,2,32z"/>
<path fill="#E81C27" d="M57.371,16C52.057,7.59,42.684,2,32,2S11.943,7.59,6.627,16H57.371z"/>
<path fill="#529320" d="M6.627,48C11.943,56.41,21.316,62,32,62s20.057-5.59,25.371-14H6.627z"/>
<path fill="#FFE12C" d="M38.277,36.408c-0.566,0.514-1.295,0.828-2.07,0.896c-1.914,0.164-3.605-1.197-3.777-3.041v-2.649
	c0.02-0.609,0.547-1.088,1.18-1.069c0.395,0.012,0.756,0.218,0.955,0.547c0.469-1.363-0.299-2.838-1.715-3.289
	c-1.416-0.453-2.945,0.286-3.414,1.651c-0.184,0.532-0.184,1.106,0,1.638c0.318-0.524,1.018-0.704,1.564-0.398
	c0.342,0.192,0.557,0.539,0.568,0.921v2.649c-0.172,1.844-1.863,3.205-3.777,3.041c-0.773-0.068-1.502-0.383-2.07-0.896
	c-0.738,1.789-2.842,2.662-4.699,1.949c-0.273-0.105-0.531-0.242-0.771-0.406c0.336,3.215,5.336,2.557,5.709-0.568
	c1.57,2.658,5.023,1.896,6.035-1.355h0.01c1.012,3.252,4.467,4.014,6.037,1.355c0.373,3.125,5.373,3.783,5.707,0.568
	c-0.238,0.164-0.498,0.301-0.771,0.406C41.121,39.07,39.018,38.197,38.277,36.408z M30.049,29.94
	c0.119-0.842,0.809-1.505,1.684-1.621c1.076-0.142,2.07,0.584,2.219,1.621c-0.771-0.151-1.557,0.188-1.951,0.844
	C31.605,30.129,30.82,29.789,30.049,29.94z"/>
<path fill="#FFE12C" d="M28.23,39.971c-0.002,0-0.354-0.203-1.09-0.111c-0.105-0.457-0.521-0.852-0.82-1.049
	c-0.283,0.303-0.486,0.861-0.387,1.264c-0.525,0.094-1.016,0.426-1.016,0.426C26.137,41.672,27.531,41.424,28.23,39.971z"/>
<polygon fill="#FFE12C" points="28.23,39.971 28.23,39.971 28.23,39.971 "/>
<path fill="#FFE12C" d="M33.688,39.807c0,0-0.313-0.258-1.055-0.281c-0.025-0.469-0.371-0.922-0.631-1.162
	c-0.332,0.252-0.627,0.771-0.598,1.186c-0.533,0.008-1.074,0.26-1.074,0.26C31.336,41.156,32.754,41.129,33.688,39.807z"/>
<path fill="#FFE12C" d="M37.682,38.811c-0.371,0.199-0.748,0.666-0.789,1.076c-0.527-0.074-1.104,0.09-1.104,0.09
	c0.764,1.488,2.168,1.684,3.313,0.523c0,0-0.266-0.301-0.992-0.443C38.162,39.592,37.898,39.09,37.682,38.811z"/>
<path fill="#FFE12C" d="M22.871,42.42L23.359,44c5.652-1.621,11.629-1.621,17.281,0l0.486-1.58
	C35.156,40.707,28.844,40.707,22.871,42.42z"/>
<polygon fill="#FFE12C" points="31.168,22.467 30.654,23.99 32,23.049 33.346,23.99 32.832,22.467 34.178,21.523 32.514,21.523 
	32,20 31.486,21.523 29.822,21.523 "/>
<polygon fill="#FFE12C" points="24.756,24.122 24.242,25.646 25.588,24.704 26.934,25.646 26.42,24.122 27.766,23.18 26.102,23.18 
	25.588,21.655 25.074,23.18 23.41,23.18 "/>
<polygon fill="#FFE12C" points="20.063,28.645 19.549,30.169 20.895,29.227 22.24,30.169 21.727,28.645 23.072,27.701 
	21.408,27.701 20.895,26.177 20.381,27.701 18.717,27.701 "/>
<polygon fill="#FFE12C" points="19.178,35.404 20.523,36.346 20.01,34.822 21.355,33.879 19.691,33.879 19.178,32.354 
	18.664,33.879 17,33.879 18.346,34.822 17.832,36.346 "/>
<polygon fill="#FFE12C" points="37.578,24.122 37.064,25.646 38.41,24.704 39.756,25.646 39.242,24.122 40.588,23.18 38.926,23.18 
	38.41,21.655 37.896,23.18 36.232,23.18 "/>
<polygon fill="#FFE12C" points="42.271,28.645 41.758,30.169 43.104,29.227 44.449,30.169 43.936,28.645 45.281,27.701 
	43.617,27.701 43.104,26.177 42.59,27.701 40.926,27.701 "/>
<polygon fill="#FFE12C" points="45.654,34.822 47,33.879 45.336,33.879 44.822,32.354 44.309,33.879 42.645,33.879 43.99,34.822 
	43.477,36.346 44.822,35.404 46.168,36.346 "/>
<path opacity="0.1" fill="#1A1626" d="M50.736,8.59c4.098,5.131,6.563,11.623,6.563,18.701c0,16.568-13.428,30.004-29.994,30.004
	c-7.1,0-13.609-2.479-18.744-6.594C14.055,57.58,22.502,62,32.004,62c16.564,0,29.994-13.432,29.994-30
	C61.998,22.527,57.596,14.09,50.736,8.59z"/>
<path opacity="0.3" fill-rule="evenodd" clip-rule="evenodd" fill="#FFFFFF" d="M9.734,19.014c0.549,3.865,7.768-3.699,15.08-10.201
	C29.531,4.629,8.084,7.385,9.734,19.014z"/>
</svg>
