<?xml version="1.0" encoding="utf-8"?>
<!-- Generator: Adobe Illustrator 15.0.0, SVG Export Plug-In . SVG Version: 6.00 Build 0)  -->
<!DOCTYPE svg PUBLIC "-//W3C//DTD SVG 1.1//EN" "http://www.w3.org/Graphics/SVG/1.1/DTD/svg11.dtd">
<svg version="1.1" id="Layer_1" xmlns="http://www.w3.org/2000/svg" xmlns:xlink="http://www.w3.org/1999/xlink" x="0px" y="0px"
	 width="64px" height="64px" viewBox="0 0 64 64" enable-background="new 0 0 64 64" xml:space="preserve">
<path fill="#302C3B" d="M32,62c13.061,0,24.166-8.35,28.285-20H3.713C7.832,53.65,18.939,62,32,62z"/>
<path fill="#E81C27" d="M32,2C18.939,2,7.832,10.35,3.713,22h56.572C56.166,10.35,45.061,2,32,2z"/>
<path fill="#F5F5F5" d="M60.285,42C61.393,38.871,62,35.508,62,32s-0.607-6.871-1.715-10H3.713C2.607,25.129,2,28.492,2,32
	s0.607,6.871,1.713,10H60.285z"/>
<polygon fill="#529320" points="21,35.186 25.326,38 23.691,33.422 28,30.5 22.664,30.5 21,26 19.385,30.5 14,30.5 18.309,33.422 
	16.674,38 "/>
<polygon fill="#529320" points="43,35.186 47.326,38 45.691,33.422 50,30.5 44.664,30.5 43,26 41.385,30.5 36,30.5 40.309,33.422 
	38.674,38 "/>
<path opacity="0.1" fill="#1A1626" d="M50.736,8.59c4.098,5.131,6.563,11.623,6.563,18.701c0,16.568-13.428,30.004-29.994,30.004
	c-7.1,0-13.609-2.479-18.744-6.594C14.055,57.58,22.502,62,32.004,62c16.564,0,29.994-13.432,29.994-30
	C61.998,22.527,57.596,14.09,50.736,8.59z"/>
<path opacity="0.3" fill-rule="evenodd" clip-rule="evenodd" fill="#FFFFFF" d="M9.734,19.014c0.549,3.865,7.768-3.699,15.08-10.201
	C29.531,4.629,8.084,7.385,9.734,19.014z"/>
</svg>
