<?xml version="1.0" encoding="utf-8"?>
<!-- Generator: Adobe Illustrator 15.0.0, SVG Export Plug-In . SVG Version: 6.00 Build 0)  -->
<!DOCTYPE svg PUBLIC "-//W3C//DTD SVG 1.1//EN" "http://www.w3.org/Graphics/SVG/1.1/DTD/svg11.dtd">
<svg version="1.1" id="Layer_1" xmlns="http://www.w3.org/2000/svg" xmlns:xlink="http://www.w3.org/1999/xlink" x="0px" y="0px"
	 width="64px" height="64px" viewBox="0 0 64 64" enable-background="new 0 0 64 64" xml:space="preserve">
<path fill="#529320" d="M42,32h10h10C62,15.431,48.569,2,32,2S2,15.431,2,32C2,48.57,15.431,62,32,62V32H42z"/>
<path fill="#F59E01" d="M52,54.355C58.136,48.863,62,40.885,62,32H52V54.355z"/>
<path fill="#302C3B" d="M42,32v28.288c3.727-1.318,7.114-3.348,10-5.932V32H42z"/>
<path fill="#E81C27" d="M42,32H32v30c3.508,0,6.871-0.607,10-1.713V32z"/>
<path fill="#F59E01" d="M57.524,22.273c1.291-0.74,1.493-1.395,1.475-1.422c0.017-0.119-0.867,0.514-2.486,1.232
	c1.982-0.963,1.981-1.77,1.894-1.787c-0.31-0.037-1.503,0.828-3.067,1.51c1.432-0.672,2.148-1.514,2.049-1.625
	c-0.304,0.254-3.431,1.479-3.431,1.479l-0.033-0.012c0.371-0.23,0.655-0.689,0.352-0.656c-0.511,0.352-2.397,0.732-2.989,0.832
	c-0.372,0.115-1.542,0.506-1.763,0.48c-2.037-0.139-2.547,0.139-2.547,0.139c0.007,0,0.042,0.047,0.094,0.113
	c-0.024-0.016-0.048-0.029-0.067-0.041c-0.014-0.008-0.023-0.018-0.036-0.027c-0.044-0.055-0.06-0.105-0.069-0.137
	c-0.293-0.635,0.096-0.842,0.323-0.871c0.186-0.02,0.241,0.006,0.375-0.055c-0.099-0.035-0.199-0.07-0.3-0.105
	c0.237,0.049,0.535,0.045,0.446,0.357c0.232-0.08,0.729-0.621-0.562-0.742c-0.419-0.443-2.146-0.695-2.577,1.23
	c0.034,0.027,0.053,0.051,0.162,0.125c-0.544-0.242-2.015-0.43-2.544-0.508c-1.431-0.379-2.917-1.291-3.06-1.178
	c-0.19,0.076,0.865,0.979,0.809,0.998c-0.914-0.49-1.75-0.838-2.528-1.152c-0.548-0.188-1.096-0.625-1.156-0.541
	c-0.201,0.381,0.877,1.344,1.078,1.457c0.201,0.109,1.779,0.781,1.756,0.789c-2.377-0.99-2.775-1.17-2.896-1.285
	c-0.209-0.041-0.72-0.674-0.861-0.633c-0.078,0.068,0.078,1.068,1.212,1.518c0.035,0.023,0.16,0.072,0.316,0.133
	c-0.316-0.121-0.551-0.211-0.579-0.221c-0.496-0.178-1.104-0.803-1.216-0.732c-0.108,0.064,0.279,0.74,0.78,0.951
	c0.165,0.066,0.623,0.273,1.166,0.488c-0.492-0.18-1.056-0.387-1.432-0.531c-0.368-0.186-0.541-0.42-0.598-0.369
	c-0.083,0.049,0.134,1.047,2.74,1.611c0.008,0.002,0.028,0.002,0.053,0c-0.048,0.006-0.087,0.012-0.101,0.01
	c-0.072-0.01-0.529,0.049-0.537,0.07c-0.026,0.068,0.166,0.426,1.511,0.352c0.172-0.01,1.105-0.311,1.027-0.246
	c-0.039,0.031-1.271,0.398-1.364,0.406c-0.082,0.012-0.515,0.053-0.531,0.094c-0.019,0.059,0.321,0.313,1.043,0.354
	c0.641,0.031,1.856-0.359,1.832-0.334c-0.024,0.027-1.172,0.387-1.203,0.408c-0.041,0.021-0.461,0.043-0.476,0.072
	c-0.035,0.074,0.605,0.623,2.5,0.037c-0.19,0.236-1.108,0.396-1.107,0.439c-0.004,0.029,0.203,0.215,0.523,0.279
	c0.16,0.033,0.38,0.025,0.581-0.004c0.36-0.066,0.74-0.197,1.224-0.605c0.057,0.127-1.206,0.715-1.146,0.771
	c0.273,0.232,1.184-0.031,1.243-0.063c0.061-0.029,1.753-0.904,1.746-1.006c0.027,0.129-2.183,1.23-2.158,1.275
	c0.142,0.207,0.896-0.012,0.933-0.031c0.035-0.018,0.963-0.477,0.988-0.49s-1.089,0.598-0.99,0.691
	c-0.041,0.342,1.275-0.107,1.731-0.293c-0.246,0.119-0.711,0.367-0.712,0.508c0.3,0.463,1.258,0.316,1.405,0.215
	c0.074-0.051-0.087,0.344-0.035,0.309c0.019-0.008,0.209-0.215,0.282-0.363c-0.024,0.129-0.129,0.334-0.189,0.568
	c-0.062,0.234-0.08,0.5-0.164,0.779c-0.017,0.105,0.428-0.15,0.499-0.775c-0.037,0.445-0.176,0.973-0.125,1.01
	c0.037,0.025,0.096-0.01,0.157-0.066l-0.02,0.055c-0.005,0.076-0.09,0.537-0.603,0.537c-0.627,0-0.645,0.512-0.645,0.512
	s-0.052,0.037-0.017,0.285c0.104-0.168,0.154-0.221,0.154-0.221c0.07,0.01,0.357,0.09,0.813-0.238
	c-0.414,0.396-0.167,0.545-0.167,0.545s-0.099,0.311,0.219,0.373c-0.098-0.125-0.041-0.236-0.041-0.236s0.443-0.043,0.415-0.537
	c0.018,0.447,0.281,0.559,0.281,0.559s0,0.248,0.289,0.27c-0.156-0.127-0.121-0.322-0.121-0.322s0.373-0.248,0.057-0.672
	c0.056-0.029,0.106-0.074,0.153-0.123c-0.004,0.047-0.01,0.092,0.002,0.15c0,0.264,0.007,0.332,0.202,0.48
	c-0.052-0.174-0.034-0.295-0.034-0.295s0.259,0.143,0.512-0.248c-0.173,0.385-0.052,0.523-0.011,0.531
	c0.039,0.07-0.07,0.381,0.275,0.377c-0.132-0.117-0.069-0.287-0.069-0.287s0.362-0.051,0.235-0.652
	c0.133-0.121,0.186-0.006,0.186-0.006s0.04,0.359,0.355,0.285c0.145,0.074-0.022,0.268-0.022,0.268s0.231,0.008,0.3-0.174
	c0.068-0.18,0.148-0.5-0.229-0.633c-0.048-0.127,0.148-0.137,0.148-0.137s0.242,0.074,0.312,0.184
	c0.068,0.111,0.046-0.289-0.253-0.332c-0.368-0.012-0.392-0.08-0.392-0.096c0-0.006-0.009-0.129-0.021-0.293
	c0.292,0.207,0.608,0.246,0.617,0.232c0.004-0.057-0.629-0.838-0.468-0.939c0.161,0.031,0.424,0.387,0.638,0.27
	c-0.064-0.137-0.256-0.059-0.473-0.414c-0.038-0.07-0.069-0.148-0.101-0.23l0,0c0.013,0.014,0.468,0.48,0.907,0.455
	c0.166-0.127-0.344-0.404-0.344-0.469c0.179,0.152,0.936,0.746,1.418,0.531c0.193-0.252-0.344-0.215-0.936-0.896
	c0.412,0.252,1.445,0.809,1.928,0.594c0.134-0.131-0.355-0.441-0.834-0.779c0.188,0.1,0.33,0.172,0.394,0.197
	c0.454,0.191,0.964-0.074,0.978-0.113c-0.007-0.059-0.201-0.1-0.494-0.168c0.573,0.064,1.019-0.041,1.072-0.121
	c-0.021-0.076-0.104-0.102-0.661-0.24c1.234,0.156,2.162-0.492,2.162-0.492s0.292-0.092-0.207-0.086
	c3.439-0.402,4.042-1.875,3.98-1.885c-0.146-0.018-0.672,0.361-1.511,0.732c1.468-0.674,2.231-1.617,2.186-1.68
	C58.722,21.736,58.192,21.966,57.524,22.273z M38.081,23.039c0.261-0.055,0.574-0.127,0.548-0.111
	C38.622,22.933,38.335,22.992,38.081,23.039z M37.045,21.947c0.712,0.264,1.957,0.686,1.94,0.729
	C38.982,22.685,37.836,22.25,37.045,21.947z M48.696,24.912c-0.129-0.137-0.224-0.254-0.207-0.313
	c0.043,0.08,0.129,0.184,0.235,0.291L48.696,24.912z M55.234,23.994c-1.002,0.26-2.238,0.369-3.673,0.029
	C52.987,24.324,54.216,24.246,55.234,23.994z M55.788,23.041c-0.223,0.086-0.422,0.152-0.576,0.186
	C55.415,23.166,55.605,23.103,55.788,23.041z M46.167,26.427c0.005-0.08,0.007-0.162-0.002-0.252
	C46.174,26.25,46.172,26.337,46.167,26.427z M47.793,27.88c-0.021,0.023-0.42-0.035-0.66,0.098
	c-0.054-0.021-0.253-0.104-0.358-0.178c-0.058-0.109-0.005-0.715-0.005-0.717c0.095,0.129,0.202,0.25,0.301,0.293
	c-0.021-0.264,0.003-0.252-0.082-0.512c0.049-0.344,0.056-0.82,0.067-1.357c0.517,0.904,0.722,1.289,0.578,1.984
	c0.063,0.023,0.137-0.064,0.206-0.18l0.028,0.469C47.868,27.781,47.827,27.843,47.793,27.88z M48.134,25.236
	c0.02,0.018,0.039,0.037,0.06,0.053l-0.011,0.008C48.168,25.277,48.149,25.257,48.134,25.236z M55.509,23.917
	c0.06-0.018,0.119-0.035,0.178-0.055C55.628,23.882,55.568,23.9,55.509,23.917z"/>
<path fill="#302C3B" d="M47.262,29.511l-0.397-0.027c-0.25-0.018-0.366-0.182-0.396-0.32c-0.049-0.033-0.114-0.094-0.171-0.188
	c-0.086,0.107-0.199,0.168-0.298,0.195c0.004,0.018,0.013,0.035,0.028,0.057l0.205,0.264l-0.328-0.064
	c-0.161-0.031-0.241-0.117-0.28-0.182c-0.058-0.098-0.059-0.203-0.05-0.273c-0.029-0.039-0.054-0.09-0.061-0.152
	c-0.004-0.033-0.002-0.068,0.005-0.105c-0.144,0.047-0.304,0.057-0.401,0.045c-0.023,0.031-0.057,0.08-0.101,0.152l-0.182,0.295
	l-0.049-0.344c-0.022-0.158-0.017-0.273,0.019-0.344c0.024-0.225,0.207-0.596,0.767-0.596c0.271,0,0.389-0.154,0.439-0.275
	l-0.045-0.021c-0.071-0.051-0.078-0.125-0.05-0.313c-0.088,0.08-0.173,0.123-0.234,0.123h-0.058l-0.091-0.094l0.006-0.074
	c0.049-0.168,0.074-0.316,0.1-0.459c0.02-0.115,0.039-0.227,0.066-0.332c0.004-0.016,0.009-0.031,0.013-0.047h-0.052l-0.041-0.051
	c-0.039-0.051-0.031-0.105-0.005-0.201c-0.128,0.029-0.287,0.047-0.441,0.047c-0.437,0-0.763-0.135-0.92-0.379l-0.021-0.031v-0.037
	c0-0.021,0-0.051,0.022-0.094c-0.263,0.074-0.525,0.131-0.71,0.131c-0.133,0-0.225-0.029-0.28-0.094
	c-0.02-0.021-0.041-0.055-0.049-0.1l-0.011-0.01l0.003-0.078c-0.147,0.037-0.352,0.074-0.522,0.074
	c-0.191,0-0.315-0.047-0.382-0.143l-0.033-0.049l0.01-0.035c-0.109,0.016-0.221,0.027-0.324,0.027c-0.211,0-0.362-0.041-0.461-0.127
	L41.45,25.24l0.006-0.072c0-0.004,0.001-0.008,0.002-0.012c-0.216,0.027-0.414,0.023-0.56-0.008
	c-0.262-0.053-0.645-0.246-0.622-0.416c-0.001-0.018,0.001-0.031,0.006-0.043c-0.102,0.008-0.2,0.012-0.295,0.012
	c-0.688,0-1.006-0.217-1.078-0.332c-0.029-0.047-0.031-0.088-0.025-0.117c-0.012,0-0.023-0.002-0.035-0.002
	c-0.661-0.037-1.044-0.252-1.131-0.379l-0.035-0.051l0.01-0.086c0.021-0.053,0.053-0.084,0.147-0.109
	c-0.5-0.061-0.685-0.213-0.753-0.313c-0.044-0.064-0.057-0.135-0.034-0.191c0.009-0.025,0.033-0.047,0.066-0.064
	c-2.026-0.564-2.223-1.385-2.239-1.484c-0.021-0.129,0.034-0.184,0.069-0.205l0.03-0.018l0.053-0.008
	c0.027,0,0.053,0.006,0.078,0.018c-0.094-0.145-0.15-0.277-0.156-0.361c-0.008-0.105,0.053-0.154,0.079-0.17l0.029-0.018
	l0.056-0.006c0.078,0,0.167,0.051,0.309,0.15c-0.103-0.178-0.165-0.354-0.192-0.508c-0.036-0.203,0.009-0.27,0.046-0.303
	l0.065-0.031l0.032-0.002c0.122,0,0.26,0.121,0.492,0.336c0.117,0.107,0.313,0.289,0.379,0.303l0.036,0.006l0.026,0.025
	c0.045,0.043,0.163,0.109,0.458,0.242c-0.368-0.365-0.757-0.863-0.594-1.172l0.035-0.066l0.101-0.012
	c0.087,0,0.192,0.059,0.421,0.191c0.216,0.123,0.483,0.277,0.751,0.369c0.597,0.24,1.223,0.5,1.891,0.824
	c-0.285-0.295-0.38-0.436-0.356-0.553c0.01-0.047,0.039-0.088,0.083-0.109c0.125-0.074,0.338,0.02,0.971,0.313
	c0.589,0.271,1.395,0.645,2.183,0.854l0.227,0.031c0.532,0.076,1.44,0.207,2.019,0.373c0.349-1.414,1.345-1.57,1.763-1.57
	c0.382,0,0.766,0.127,0.975,0.318c0.587,0.063,0.888,0.219,0.919,0.479c0.028,0.23-0.202,0.443-0.372,0.504l-0.228,0.078l0.066-0.23
	c0.012-0.043,0.015-0.078,0.007-0.096c-0.103,0.041-0.174,0.045-0.255,0.047c-0.038,0.002-0.083,0.002-0.141,0.008
	c-0.093,0.014-0.218,0.066-0.277,0.174c-0.065,0.119-0.047,0.299,0.054,0.52c0.168-0.059,0.586-0.156,1.467-0.156
	c0.319,0,0.674,0.014,1.056,0.039c0,0,0,0,0.001,0c0.218,0,1.062-0.268,1.467-0.396l0.249-0.078
	c0.779-0.133,2.501-0.502,2.955-0.816l0.064-0.021l0.036-0.002c0.108,0,0.189,0.055,0.216,0.145
	c0.027,0.096-0.018,0.215-0.097,0.332c1.207-0.48,2.699-1.102,2.884-1.256l0.092-0.076l0.081,0.088
	c0.021,0.023,0.054,0.074,0.037,0.156c-0.022,0.109-0.138,0.277-0.337,0.477c0.021-0.014,0.043-0.025,0.064-0.037
	c0.634-0.354,0.947-0.523,1.141-0.523l0.035,0.002c0.036,0.008,0.12,0.035,0.136,0.16c0.021,0.166-0.074,0.451-0.408,0.801
	c0.116-0.064,0.22-0.121,0.31-0.172c0.355-0.197,0.451-0.248,0.527-0.248h0.057l0.087,0.09l-0.004,0.043
	c0.002,0.025-0.003,0.047-0.005,0.057c-0.034,0.152-0.206,0.461-0.612,0.826c0.16-0.045,0.233-0.031,0.287,0.027l0.038,0.041v0.045
	c0.004,0.02,0.005,0.043-0.003,0.07c-0.026,0.102-0.272,0.416-0.717,0.785l0.049,0.008l0.001,0.119
	c-0.006,0.227-0.727,1.496-3.697,1.943c-0.012,0.045-0.052,0.092-0.149,0.127c-0.103,0.068-0.667,0.422-1.472,0.508
	c0.017,0.023,0.027,0.049,0.035,0.078l0.016,0.055l-0.031,0.047c-0.073,0.111-0.328,0.164-0.563,0.186
	c0.002,0.006,0.003,0.014,0.004,0.021l0.004,0.027l-0.01,0.027c-0.044,0.127-0.431,0.266-0.739,0.266
	c0.146,0.123,0.223,0.223,0.23,0.32c0.005,0.061-0.016,0.115-0.06,0.158l-0.036,0.025c-0.233,0.104-0.598,0.053-0.955-0.072
	c0.038,0.037,0.063,0.078,0.073,0.127c0.014,0.068-0.007,0.137-0.062,0.209l-0.049,0.039c-0.273,0.123-0.668,0.012-0.983-0.16
	c-0.014,0.031-0.036,0.059-0.065,0.082l-0.031,0.023l-0.078,0.004c-0.07,0-0.141-0.01-0.209-0.027
	c0.008,0.012,0.015,0.023,0.021,0.037l0.05,0.107l-0.104,0.055c-0.162,0.092-0.359-0.006-0.513-0.117
	c0.081,0.143,0.198,0.314,0.256,0.398c0.129,0.189,0.156,0.229,0.152,0.289l-0.02,0.059l-0.037,0.057l-0.044,0.002
	c0.132,0.105,0.188,0.268,0.181,0.367l-0.008,0.117l-0.128,0.021c-0.036,0-0.087-0.014-0.127-0.078
	c-0.005-0.008-0.012-0.016-0.021-0.023c0.014,0.02,0.025,0.041,0.035,0.063c0.066,0.143,0.06,0.314-0.021,0.525
	c-0.071,0.188-0.268,0.254-0.414,0.254h-0.269l0.171-0.205c0.013-0.016,0.025-0.035,0.035-0.053c-0.146,0-0.245-0.074-0.307-0.164
	c-0.003,0.139-0.036,0.256-0.101,0.35c-0.056,0.078-0.124,0.123-0.178,0.148c0.001,0.029,0.009,0.068,0.043,0.098l0.24,0.213
	l-0.321,0.006c-0.385,0-0.39-0.311-0.392-0.412c0-0.006,0-0.012,0-0.018c-0.02-0.018-0.036-0.041-0.05-0.068
	c-0.021-0.043-0.038-0.098-0.04-0.174c-0.062,0.025-0.118,0.035-0.167,0.037c0.005,0.031,0.012,0.068,0.024,0.107l0.109,0.367
	l-0.305-0.23c-0.029-0.021-0.055-0.043-0.077-0.063c-0.04,0.088-0.098,0.15-0.14,0.189c0.002,0.043,0.016,0.111,0.077,0.162
	L47.262,29.511z M46.428,28.523c0.02,0.359,0.199,0.447,0.207,0.451l0.001,0.002l0.003-0.014l0.044-0.031
	c0,0,0.105-0.072,0.125-0.195c0.015-0.088-0.019-0.188-0.099-0.295l-0.088-0.117l0.129-0.068c0.047-0.025,0.092-0.07,0.122-0.102
	l0.103-0.107c-0.092-0.039-0.199-0.092-0.272-0.143l-0.038-0.045c-0.019-0.035-0.072-0.137-0.02-0.781l0.027-0.334l0.198,0.266
	c0.018,0.023,0.033,0.045,0.049,0.064c-0.009-0.041-0.023-0.092-0.05-0.17l-0.009-0.027l0.004-0.029
	c0.045-0.311,0.054-0.734,0.063-1.225l0.013-0.57l0.224,0.393c0.432,0.756,0.651,1.168,0.64,1.684L47.94,26.9l0.055,0.914
	l-0.022,0.035c0,0-0.048,0.072-0.088,0.115c-0.041,0.047-0.099,0.047-0.165,0.047h-0.076c-0.146,0-0.329,0.01-0.45,0.076
	l-0.052,0.027L47.1,28.099l-0.013,0.152c-0.005,0.053-0.008,0.08,0,0.117c0,0.014,0,0.027,0,0.041l0.105,0.059l0,0
	c0,0,0.023,0.01,0.058,0.01c0.098,0,0.197-0.076,0.289-0.217l0.219,0.119c-0.096,0.211-0.085,0.326-0.069,0.365l0.025,0.006
	l0.028,0.049c0.006,0.012,0.011,0.023,0.015,0.037l0.064-0.01c0,0,0.059-0.012,0.103-0.078c0.059-0.088,0.068-0.236,0.028-0.426
	l-0.015-0.07l0.053-0.049c0.153-0.141,0.336-0.07,0.383,0.035l0.011,0.039c0.003,0.02,0.028,0.221,0.203,0.176l0.045-0.01
	l0.04,0.021c0.057,0.029,0.097,0.074,0.115,0.129c0.044-0.127,0.05-0.229,0.017-0.299c-0.028-0.061-0.088-0.107-0.182-0.139
	l-0.056-0.02l-0.021-0.055c-0.025-0.066-0.02-0.135,0.017-0.189c0.01-0.016,0.021-0.029,0.034-0.039
	c-0.139-0.027-0.243-0.082-0.243-0.197c-0.001-0.01-0.009-0.129-0.021-0.283l-0.021-0.266l0.218,0.154
	c0.096,0.068,0.193,0.115,0.278,0.146c-0.26-0.383-0.378-0.596-0.348-0.74c0.01-0.049,0.038-0.092,0.08-0.117l0.041-0.025
	l0.049,0.008c0.004,0.002,0.009,0.002,0.014,0.004c-0.034-0.068-0.062-0.139-0.09-0.211l-0.208-0.547l0.414,0.414
	c0.132,0.133,0.396,0.344,0.652,0.402c-0.045-0.041-0.1-0.084-0.131-0.109c-0.111-0.088-0.172-0.137-0.172-0.219V26l0.206,0.176
	c0.065,0.055,0.655,0.547,1.104,0.547c0.045,0,0.086-0.006,0.125-0.016c-0.023-0.023-0.087-0.061-0.139-0.092
	c-0.191-0.111-0.479-0.279-0.783-0.629l-0.529-0.609l0.689,0.422c0.493,0.301,1.172,0.623,1.601,0.623
	c0.049,0,0.093-0.004,0.132-0.012c-0.096-0.115-0.4-0.326-0.611-0.473l-0.165-0.115l0.13-0.213c0.184,0.096,0.322,0.166,0.384,0.191
	c0.192,0.082,0.457,0.063,0.631,0.008c-0.059-0.014-0.123-0.029-0.186-0.043l-0.038-0.008l0.042-0.246
	c0.323,0.033,0.597,0.014,0.762-0.018c-0.108-0.029-0.253-0.064-0.395-0.1l0.046-0.246c0.123,0.016,0.248,0.023,0.373,0.023
	c0.729,0,1.311-0.27,1.564-0.41l-0.013-0.189c2.45-0.287,3.393-1.105,3.72-1.518c-0.057,0.029-0.119,0.064-0.18,0.098
	c-0.25,0.137-0.592,0.322-1.005,0.506l-0.103-0.229c1.066-0.49,1.751-1.129,2.007-1.43c-0.252,0.09-0.671,0.281-0.902,0.387
	l-0.114-0.221c0.768-0.441,1.127-0.84,1.289-1.08c-0.054,0.029-0.112,0.061-0.172,0.094c-0.411,0.229-1.1,0.611-2.016,1.018
	l-0.105-0.227c1.437-0.697,1.798-1.309,1.847-1.537c-0.179,0.055-0.535,0.254-0.938,0.479c-0.539,0.301-1.209,0.674-1.979,1.01
	l-0.103-0.229c0.883-0.414,1.466-0.881,1.761-1.186c-0.883,0.42-2.784,1.168-3.044,1.27l-0.044,0.018l-0.321-0.115l0.22-0.137
	c0.19-0.119,0.329-0.283,0.389-0.387c-0.635,0.346-2.353,0.691-2.939,0.791l-0.23,0.074c-0.652,0.207-1.308,0.41-1.53,0.41
	l-0.036-0.002c-0.37-0.025-0.72-0.039-1.033-0.039c-0.707,0-1.098,0.066-1.288,0.115l0.414,0.539l-0.65-0.414
	c-0.027-0.016-0.041-0.025-0.055-0.037l-0.025-0.025h-0.387l0.299-0.162c-0.003-0.008-0.005-0.014-0.006-0.02
	c-0.133-0.283-0.148-0.535-0.041-0.73c0.132-0.238,0.391-0.289,0.467-0.301c0.029-0.002,0.056-0.004,0.079-0.006l0.038-0.15
	c0.032,0.006,0.065,0.012,0.099,0.018c0.139,0.023,0.295,0.049,0.388,0.152l0.081,0.029c0.014-0.025,0.021-0.053,0.019-0.076
	c-0.011-0.09-0.211-0.213-0.738-0.264l-0.047-0.004l-0.032-0.033c-0.125-0.133-0.438-0.275-0.828-0.275
	c-0.357,0-1.21,0.137-1.519,1.373c0.021,0.018,0.048,0.037,0.093,0.068l-0.121,0.217c-0.459-0.205-1.637-0.373-2.27-0.463
	l-0.242-0.035c-0.822-0.217-1.64-0.594-2.237-0.871c-0.228-0.105-0.46-0.213-0.612-0.271c0.122,0.148,0.338,0.361,0.46,0.482
	c0.267,0.264,0.301,0.297,0.281,0.383l-0.016,0.066l-0.119,0.043l-0.048-0.025c-0.908-0.486-1.741-0.832-2.517-1.145
	c-0.283-0.098-0.574-0.266-0.787-0.387c-0.077-0.045-0.168-0.098-0.231-0.129c0.031,0.305,0.813,1.072,1.049,1.205
	c0.097,0.053,0.569,0.26,0.987,0.443c0.391,0.17,0.599,0.262,0.71,0.32c0.015,0.006,0.03,0.012,0.045,0.02l-0.002,0.004
	c0.082,0.049,0.081,0.072,0.079,0.117l-0.008,0.178l-0.165-0.068c-2.371-0.986-2.762-1.164-2.909-1.287
	c-0.118-0.041-0.258-0.164-0.463-0.354c-0.063-0.059-0.146-0.135-0.215-0.191c0.064,0.291,0.353,0.891,1.136,1.199
	c0.039,0.023,0.104,0.053,0.315,0.133l-0.09,0.234c-0.001-0.002-0.003-0.002-0.004-0.002l-0.308-0.117
	c-0.147-0.057-0.246-0.094-0.264-0.1c-0.28-0.102-0.581-0.326-0.823-0.506c-0.055-0.041-0.115-0.086-0.171-0.125
	c0.116,0.197,0.356,0.492,0.648,0.615c0.054,0.021,0.144,0.061,0.26,0.111c0.224,0.096,0.545,0.234,0.903,0.377L37,22.492
	c-0.493-0.18-1.057-0.387-1.434-0.531c-0.126-0.063-0.229-0.131-0.312-0.189c0.229,0.309,0.851,0.83,2.524,1.191
	c0.003,0,0.007,0,0.01-0.002l0.035,0.248c-0.057,0.008-0.104,0.012-0.12,0.012c-0.072,0-0.201,0.014-0.309,0.027
	c0.149,0.082,0.508,0.184,1.277,0.145c0.069-0.004,0.354-0.084,0.56-0.141c0.299-0.084,0.416-0.115,0.471-0.115h0.088l0.068,0.168
	l-0.073,0.063c-0.094,0.078-1.425,0.434-1.435,0.436L38.28,23.81c-0.039,0.006-0.113,0.014-0.188,0.023
	c0.147,0.068,0.397,0.146,0.77,0.166c0.462,0.027,1.292-0.199,1.631-0.289c0.147-0.041,0.167-0.045,0.193-0.045h0.082l0.066,0.152
	l-0.058,0.061c-0.03,0.033-0.033,0.035-0.739,0.266c-0.206,0.068-0.463,0.152-0.498,0.166c-0.031,0.018-0.072,0.023-0.22,0.039
	c0.139,0.053,0.355,0.102,0.668,0.102c0.423,0,0.923-0.088,1.483-0.262l0.393-0.121l-0.258,0.32
	c-0.143,0.176-0.526,0.291-0.939,0.402c-0.005,0.002-0.01,0.002-0.015,0.004c0.075,0.041,0.177,0.086,0.297,0.109
	c0.133,0.027,0.334,0.025,0.539-0.004c0.314-0.059,0.677-0.17,1.16-0.578l0.128-0.107l0.067,0.152
	c0.075,0.168-0.137,0.297-0.758,0.645c-0.081,0.047-0.172,0.098-0.247,0.141c0.035,0.004,0.076,0.008,0.124,0.008
	c0.337,0,0.762-0.125,0.809-0.145c0.246-0.123,1.58-0.828,1.696-0.957l0.064,0.059l0.162-0.023c0.029,0.139-0.02,0.201-1.499,1
	c-0.17,0.092-0.353,0.191-0.489,0.266c0.238-0.002,0.55-0.092,0.59-0.107c0.02-0.012,0.559-0.277,0.83-0.412l0.209-0.09h0.477
	l-0.415,0.234c-0.001,0-0.002,0.002-0.003,0.002l0,0c-0.274,0.148-0.778,0.451-0.912,0.574c0.016,0.004,0.038,0.006,0.07,0.006
	c0.357,0,1.149-0.275,1.478-0.408l0.102,0.229c-0.361,0.174-0.556,0.311-0.62,0.379c0.165,0.182,0.483,0.211,0.669,0.211
	c0.276,0,0.483-0.061,0.519-0.084l0.031-0.021l0.113-0.006l0.043,0.053c0,0,0,0.002,0.001,0.002
	c0.006-0.012,0.013-0.023,0.018-0.033l0.405-0.828l-0.17,0.906c-0.013,0.064-0.039,0.137-0.07,0.221l0.221-0.023
	c0.005,0.043,0.007,0.09,0.007,0.139c0,0.045-0.001,0.09-0.004,0.133l0,0v0.002l-0.25-0.016c0.002-0.041,0.004-0.08,0.004-0.119
	c0-0.018,0-0.035-0.001-0.053c-0.033,0.088-0.07,0.188-0.098,0.293c-0.026,0.1-0.044,0.203-0.063,0.313
	c-0.009,0.049-0.018,0.1-0.027,0.15c0.077-0.115,0.154-0.281,0.18-0.504l0.249,0.025c-0.018,0.207-0.057,0.434-0.088,0.615
	c-0.01,0.053-0.02,0.113-0.028,0.166l0.311-0.289l-0.184,0.521c-0.021,0.193-0.182,0.635-0.726,0.635
	c-0.376,0-0.479,0.211-0.509,0.326l0.02,0.002c0.202,0.035,0.449-0.021,0.722-0.217l0.159,0.193
	c-0.187,0.178-0.203,0.275-0.201,0.311c0.002,0.023,0.014,0.035,0.018,0.037l0.084,0.051l-0.025,0.07l0.038-0.004
	c0.052-0.006,0.314-0.053,0.303-0.391L46.428,28.523z M46.881,27.72c0.059,0.035,0.146,0.078,0.248,0.121
	c0.161-0.07,0.357-0.08,0.515-0.08h0.076c0.003,0,0.006,0,0.009,0c0.004-0.006,0.009-0.012,0.013-0.016l-0.009-0.141
	c-0.024,0.01-0.05,0.016-0.077,0.016l-0.065-0.012l-0.101-0.039l0.022-0.104c0.11-0.537,0.013-0.854-0.342-1.5
	c-0.009,0.342-0.021,0.643-0.054,0.887c0.058,0.182,0.063,0.236,0.069,0.367c0.002,0.037,0.005,0.084,0.01,0.146l0.016,0.207
	l-0.19-0.084c-0.047-0.02-0.095-0.051-0.145-0.096C46.87,27.552,46.873,27.667,46.881,27.72z M48.683,25.08l-0.077-0.082
	c-0.18-0.189-0.271-0.314-0.236-0.432l0.085-0.297l0.146,0.271c0.023,0.045,0.08,0.127,0.214,0.262l0.1,0.102L48.683,25.08z
	 M53.353,24.361c-0.601,0-1.213-0.072-1.82-0.217l0.056-0.244c1.248,0.266,2.475,0.254,3.616-0.027l0.062,0.242
	C54.636,24.279,53.992,24.361,53.353,24.361z M55.238,23.349l-0.063-0.242c0.202-0.061,0.391-0.123,0.572-0.184l0.085,0.234
	C55.574,23.257,55.385,23.318,55.238,23.349z M38.104,23.162l-0.048-0.246l0.262-0.055c0.224-0.049,0.278-0.061,0.31-0.061h0.095
	l0.055,0.182l-0.081,0.051C38.682,23.044,38.661,23.058,38.104,23.162z M38.984,22.8c-0.036,0-0.084-0.012-1.984-0.736l0.088-0.234
	c0.214,0.08,0.476,0.172,0.737,0.266c1.233,0.439,1.239,0.453,1.273,0.525l0.021,0.047L39.072,22.8h-0.086
	C38.985,22.8,38.984,22.8,38.984,22.8z"/>
<path fill="#F59E01" d="M46.17,27.521l0.004-0.01C46.175,27.494,46.173,27.49,46.17,27.521z"/>
<polygon fill="#302C3B" points="45.972,28.351 46.056,27.396 46.228,27.373 46.302,27.451 46.29,27.558 "/>
<path opacity="0.1" fill="#1A1626" d="M50.738,8.591c4.097,5.129,6.563,11.621,6.563,18.701c0,16.569-13.429,30.002-29.995,30.002
	c-7.1,0-13.609-2.477-18.744-6.594C14.056,57.58,22.504,62,32.005,62c16.565,0,29.994-13.432,29.994-30
	C61.999,22.527,57.597,14.089,50.738,8.591z"/>
<path opacity="0.3" fill-rule="evenodd" clip-rule="evenodd" fill="#FFFFFF" d="M9.735,19.015c0.549,3.865,7.768-3.701,15.08-10.203
	C29.532,4.63,8.085,7.384,9.735,19.015z"/>
</svg>
