<?xml version="1.0" encoding="utf-8"?>
<!-- Generator: Adobe Illustrator 15.0.0, SVG Export Plug-In . SVG Version: 6.00 Build 0)  -->
<!DOCTYPE svg PUBLIC "-//W3C//DTD SVG 1.1//EN" "http://www.w3.org/Graphics/SVG/1.1/DTD/svg11.dtd">
<svg version="1.1" id="Layer_1" xmlns="http://www.w3.org/2000/svg" xmlns:xlink="http://www.w3.org/1999/xlink" x="0px" y="0px"
	 width="64px" height="64px" viewBox="0 0 64 64" enable-background="new 0 0 64 64" xml:space="preserve">
<circle fill="#529320" cx="32" cy="32" r="30"/>
<path fill="#FFE12C" d="M47.68,28.8C46.195,36.104,39.74,41.6,32,41.6S17.805,36.104,16.32,28.8C16.111,29.833,16,30.904,16,32
	c0,8.838,7.164,16,16,16s16-7.162,16-16C48,30.904,47.889,29.833,47.68,28.8z"/>
<polygon fill="#FFE12C" points="26.561,32 32,28.248 37.439,32 35.385,25.894 40.801,22 34.092,22 32,16 29.97,22 23.199,22 
	28.615,25.894 "/>
<path opacity="0.1" fill="#1A1626" d="M50.737,8.591C54.833,13.72,57.3,20.212,57.3,27.292c0,16.569-13.43,30.002-29.995,30.002
	c-7.101,0-13.61-2.477-18.745-6.594C14.054,57.58,22.503,62,32.003,62c16.566,0,29.994-13.432,29.994-30
	C61.997,22.527,57.595,14.089,50.737,8.591z"/>
<path opacity="0.3" fill-rule="evenodd" clip-rule="evenodd" fill="#FFFFFF" d="M9.734,19.015c0.549,3.865,7.767-3.701,15.08-10.203
	C29.531,4.63,8.083,7.384,9.734,19.015z"/>
</svg>
