<?xml version="1.0" encoding="utf-8"?>
<!-- Generator: Adobe Illustrator 15.0.0, SVG Export Plug-In . SVG Version: 6.00 Build 0)  -->
<!DOCTYPE svg PUBLIC "-//W3C//DTD SVG 1.1//EN" "http://www.w3.org/Graphics/SVG/1.1/DTD/svg11.dtd">
<svg version="1.1" id="Layer_1" xmlns="http://www.w3.org/2000/svg" xmlns:xlink="http://www.w3.org/1999/xlink" x="0px" y="0px"
	 width="64px" height="64px" viewBox="0 0 64 64" enable-background="new 0 0 64 64" xml:space="preserve">
<path fill="#F5F5F5" d="M32,2C18.938,2,7.833,10.35,3.714,22h56.571C56.166,10.35,45.061,2,32,2z"/>
<path fill="#E81C27" d="M32,62c13.061,0,24.166-8.35,28.285-20H3.714C7.833,53.65,18.938,62,32,62z"/>
<path fill="#014D87" d="M3.714,22C2.607,25.129,2,28.492,2,32s0.607,6.871,1.714,10h56.571C61.391,38.871,62,35.508,62,32
	s-0.609-6.871-1.715-10H3.714z"/>
<path fill="#F5F5F5" d="M33.887,19H14.112H14c0,0,0,3.125,0,13.827C14,42,23.592,44.758,24,45c0.406-0.242,10-3,10-12.173
	C34,22.125,34,19,34,19H33.887z"/>
<path fill="#E81C27" d="M16,21v11.91c0,5.605,4.258,8.568,8,10.09c3.742-1.521,8-4.484,8-10.09V21H16z"/>
<rect x="23" y="23" fill="#F5F5F5" width="2" height="14"/>
<rect x="19" y="29" fill="#F5F5F5" width="10" height="2"/>
<rect x="21" y="25" fill="#F5F5F5" width="6" height="2"/>
<path fill="#014D87" d="M23.998,35c-1.313,0-2.465,0.641-3.194,1.617C20.3,36.234,19.68,36,18.999,36
	c-0.842,0-1.601,0.35-2.146,0.908C18.281,40.012,21.273,41.893,24,43l0,0c2.727-1.107,5.719-2.988,7.146-6.092
	C30.602,36.35,29.842,36,28.998,36c-0.68,0-1.299,0.234-1.803,0.617C26.465,35.641,25.311,35,23.998,35z"/>
<path opacity="0.1" fill="#1A1626" d="M50.736,8.59c4.096,5.131,6.563,11.623,6.563,18.701c0,16.568-13.43,30.004-29.994,30.004
	c-7.101,0-13.61-2.479-18.745-6.594C14.054,57.58,22.502,62,32.002,62c16.566,0,29.994-13.432,29.994-30
	C61.996,22.527,57.594,14.09,50.736,8.59z"/>
<path opacity="0.9" fill-rule="evenodd" clip-rule="evenodd" fill="#FFFFFF" d="M9.734,19.014c0.549,3.865,7.767-3.699,15.08-10.201
	C29.531,4.629,8.083,7.385,9.734,19.014z"/>
</svg>
