<?xml version="1.0" encoding="utf-8"?>
<!-- Generator: Adobe Illustrator 15.0.0, SVG Export Plug-In . SVG Version: 6.00 Build 0)  -->
<!DOCTYPE svg PUBLIC "-//W3C//DTD SVG 1.1//EN" "http://www.w3.org/Graphics/SVG/1.1/DTD/svg11.dtd">
<svg version="1.1" id="Layer_1" xmlns="http://www.w3.org/2000/svg" xmlns:xlink="http://www.w3.org/1999/xlink" x="0px" y="0px"
	 width="64px" height="64px" viewBox="0 0 64 64" enable-background="new 0 0 64 64" xml:space="preserve">
<path fill="#014D87" d="M32,2v30H2c0,16.568,13.432,30,30,30s30-13.432,30-30S48.568,2,32,2z"/>
<rect x="12" y="12" fill="#014D87" width="21" height="21"/>
<polygon fill="#F5F5F5" points="18.912,8.14 18.912,14 11.6,14 26,32 32,32 32,24.5 "/>
<path fill="#F5F5F5" d="M11,18.912H5.012C3.088,22.869,2,27.306,2,32h12V13.912h-3V18.912z"/>
<polygon fill="#E81C27" points="32,27.059 19,11 13,11 30,32 32,32 "/>
<path fill="#F5F5F5" d="M18.912,5.012V11H11v3h21V2C27.307,2,22.869,3.088,18.912,5.012z"/>
<path fill="#E81C27" d="M32,5H18.912C12.857,7.94,7.941,12.857,5,18.912V32h6V11h21V5z"/>
<path fill="#D8A322" d="M34.541,33.849l-0.002,0.006L34.541,33.849z"/>
<path fill="#D8A322" d="M34.537,33.86L34.5,33.94L34.537,33.86z"/>
<path fill="#D8A322" d="M34.539,33.854l-0.002,0.006L34.539,33.854z"/>
<path fill="#FFE12C" d="M38.457,26.745c0.059-0.523-0.053-1.061-0.436-1.398c-0.738-0.65-1.461-0.436-2,0.088
	c-0.807-0.434-1.234,1.108-2.148,0.85c0.152,0.5,0.393,0.717,0.85,0.545c-0.48,0.435,0,0.957-0.566,1.479
	c1.023,0.327,1.568-0.239,1.523-1.221c0.395,0.349,1.002,0.327,1.328-0.065c-0.545-0.176-0.547-0.646-0.326-1.09
	C37.008,25.28,38.543,25.308,38.457,26.745z"/>
<path fill="#529320" d="M40.818,34.321c-1.154,0.609-3.266,0.349-3.461-1.154c-0.197-1.504,1.262-2.18,1.654-2.373
	c0.611-0.307,1.09,0.238,0.893,0.871c0.676-0.238,0.828-1.023,0.5-1.479c0.895,0.064,1.721-0.611,2.07-1.569
	c-0.314,0.299-1.168,0.097-1.871,0.052c0.219-0.237,0.215-0.703,0.15-0.945c-0.738,0.76-1.809,0.412-3.221,2.611
	c0.217-0.762,0.631-2.286,0.871-3.289c0.023-0.1,0.041-0.199,0.055-0.301c0.084-1.438-1.447-1.465-1.775-0.81
	c0.359,0.403,0.17,0.875,0.041,1.59c-0.15,0.849-0.479,2.81-0.762,3.462c-0.086-1.023-0.762-1.09-0.893-1.59
	c-0.195,0.131-0.305,0.479-0.262,0.718c-0.24-0.263-1.068,0.065-1.373-0.327c-0.326,0.652,0.197,1.307,0.742,1.59
	c-0.316,0.021-0.393,0.402-0.742,0.402c0.469,0.545,0.949,0.764,1.504,0.808s0.969,0.251,1.307,0.924
	C36.791,34.604,38.865,35.312,40.818,34.321z"/>
<path fill="#FFE12C" d="M43.693,32.991c-0.65,1.807-2.438,3.092-3.244,3.289c-1.371,0.332-4.17,1.691-4.918,2.391
	c-0.117-0.025-0.229-0.068-0.309-0.125c-0.369-0.263-0.676-1.111-0.021-1.83c2.049-1.918,4.248-1.09,5.621-2.396
	c-1.156,0.609-3.266,0.348-3.463-1.156c1.242,0.328,3.486,0.349,5.27-1.568C42.867,31.859,43.563,32.687,43.693,32.991z"/>
<path fill="#529320" d="M43.029,32.153c-0.369,0.555-1.211,1.316-2.014,1.623c0.172-0.195,0.229-0.445,0.238-0.652
	c-1.023,0.393-3.072,0.349-3.9,0.045c1.242,0.327,3.486,0.348,5.27-1.568C42.801,31.794,42.953,31.967,43.029,32.153z"/>
<path fill="#529320" d="M35.201,36.716c-1.666,1.557-0.566,2.916,0.086,3.223c-0.172,1.09,0.85,0.959,0.828,1.873
	c0.414-0.238,0.523-0.872,0.459-1.373c0.523,0.566,1.852-0.064,2.135,0.98c0.174-1.156-0.719-2.308-1.83-2.201
	c0.459-0.412,0.197-1.089-0.236-1.262c-0.088,0.85-1.045,0.85-1.418,0.59C34.854,38.283,34.547,37.435,35.201,36.716z"/>
<path fill="#FFE12C" d="M50.945,36.739c2.68,2.244,2.854,4.027,2.439,5.074c-0.219-0.979-1.328-2.504-2.482-2.896L50.945,36.739z"/>
<path fill="#529320" d="M50.945,36.739c1.828,1.262,3.18,2.482,3.572,4.441c0.395,1.959,1.135,2.482,2.049,1.959
	c-0.217,1.131-1.352,1.262-2.309,0.393c0.088,1.307-0.434,2.875-1.785,3.441c-0.086-0.783,0.432-1.404,0.283-2.049
	c-0.064-0.282-0.086-0.938,0.283-1.24c-0.719,0.237-1.852-0.219-1.959-1.287c0.826,0.393,1.893,0.459,2.307-0.589
	C53.799,40.767,53.625,38.98,50.945,36.739z"/>
<path fill="#FFE12C" d="M52.803,46.981c0.133-0.166,0.16-0.428-0.039-0.551c-0.168-0.104-0.395-0.148-0.484,0.213
	c-0.084,0.355-0.867,0.414-0.691,1.141c-0.225,0.037-0.441,0.163-0.559,0.354c-0.195,0.322-0.977,0.705-1.283,0.756
	c0.092,0.135,0.354,0.293,0.564,0.227c-0.105,0.52,0.227,0.689,0.402,0.587c-0.01,0.231,0.246,0.509,0.447,0.358
	c0.135,0.347,0.502,0.441,0.676,0.174c0.162,0.23,0.58,0.145,0.777,0.055c-0.316-0.023-0.303-0.9-0.242-1.262
	c0.07-0.433,0.049-0.697-0.023-0.869C52.854,47.925,52.564,47.272,52.803,46.981z"/>
<path fill="#529320" d="M46.156,35.474h4.965c0,0,0,1.307,0,5.879c0,5.01-2.787,7.973-5.619,9.538
	c-2.832-1.567-5.621-4.53-5.621-9.538c0-4.572,0-5.879,0-5.879h3.486c0.006,0.304,0.033,0.762,0.393,1.221
	C44.582,36.612,45.512,35.997,46.156,35.474z"/>
<path fill="#006EC7" d="M51.121,35.474c0,0,0,1.307,0,5.879c0,1.512-0.254,2.84-0.686,3.994l-4.932-9.048l-4.932,9.048
	c-0.432-1.157-0.686-2.482-0.686-3.994c0-4.572,0-5.879,0-5.879H51.121z"/>
<path fill="#FFE12C" d="M50.584,44.915c-0.086,0.268-0.246,0.699-0.365,0.966l-4.715-8.763l-4.713,8.763
	c-0.123-0.267-0.281-0.698-0.367-0.966l5.082-9.424L50.584,44.915z"/>
<path fill="#F7E017" d="M48.439,46.452c-0.283,0.721-1.24,0.696-1.504,1.131c0.16,0.082,0.311,0.187,0.438,0.277
	c-0.326,0.328-1.092,0.875-1.525,1.006v-4.629c0.506-0.032,1.293-0.105,1.625-0.105c0.111,0,0.203-0.166,0.203-0.369
	c0-0.205-0.09-0.369-0.203-0.369c-0.355,0-1.24-0.085-1.736-0.113c0-0.158,0-0.738,0-0.924c0-0.218-0.043-0.535-0.238-0.535
	c-0.117,0-0.18,0.115-0.211,0.254c-0.096-0.045-0.205-0.07-0.32-0.07c-0.385,0-0.699,0.285-0.699,0.639
	c0,0.354,0.313,0.64,0.699,0.64c0.105,0,0.205-0.022,0.293-0.06v0.058c-0.494,0.028-1.373,0.112-1.73,0.112
	c-0.109,0-0.201,0.164-0.201,0.369c0,0.203,0.088,0.369,0.201,0.369c0.332,0,1.115,0.072,1.621,0.105v4.629
	c-0.238-0.696-1.178-0.458-1.613-1.154c0.17-0.043,0.352-0.055,0.523-0.021c-0.326-1.11-1.221-1.197-1.393-1.523
	c0,0.457-0.197,1.523,0.109,1.982c0.068-0.082,0.17-0.168,0.297-0.241c0.369,0.806,2.035,0.81,2.428,2.138
	c0.314-0.49,1.447-1.057,2.24-1.908c0.131,0.066,0.373,0.188,0.48,0.231C48.484,47.845,48.527,47.106,48.439,46.452z M44.967,43.053
	c-0.248,0-0.447-0.184-0.447-0.409c0-0.225,0.201-0.408,0.447-0.408c0.115,0,0.217,0.039,0.295,0.102l-0.002,0.02
	c0,0.113,0,0.373,0,0.594C45.182,43.015,45.08,43.053,44.967,43.053z"/>
<rect x="44.5" y="39.263" fill="#F5F5F5" width="1.871" height="2.096"/>
<path fill="#FFE12C" d="M39.518,37.233c-0.838,0.71-1.637,1.747-1.834,2.685c-0.553,2.638-1.285,3.224-2.416,2.658
	c0,1.417,1.24,1.524,1.785,0.696c0,1.328,0.482,2.48,1.568,3.463c0.459,0.413,0.545,0.131,0.328-0.328
	c-0.217-0.458-0.217-1.938-0.652-2.786c0.697,0.501,1.721,0.218,1.635-1.155c-0.893,0.524-1.781,0.503-1.873-0.74
	C37.945,40.267,38.514,38.147,39.518,37.233z"/>
<path fill="#529320" d="M39.518,37.233c-1.035,0.877-1.572,3.033-1.461,4.492c0.031,0.405,0.143,0.68,0.316,0.848
	c0.076-0.828,0.652-2.967,2.121-3.92c1.242-0.807,3.18-2.614,3.9-4.684c-0.133-0.369-0.35-0.631-0.764-0.893
	C42.916,35.03,41.008,35.968,39.518,37.233z"/>
<path fill="#FFE12C" d="M40.295,48.217c-0.098-0.177-0.289-0.298-0.486-0.339c0.182-0.646-0.516-0.727-0.58-1.047
	c-0.064-0.326-0.271-0.293-0.424-0.207c-0.18,0.105-0.168,0.338-0.055,0.49c0.201,0.27-0.082,0.844,0.367,1.074
	c-0.072,0.152-0.1,0.387-0.051,0.777c0.039,0.325,0.021,1.111-0.262,1.121c0.174,0.086,0.545,0.181,0.697-0.021
	c0.146,0.246,0.479,0.176,0.609-0.131c0.174,0.143,0.414-0.097,0.414-0.303c0.152,0.096,0.459-0.045,0.379-0.512
	c0.188,0.066,0.426-0.064,0.512-0.186C41.145,48.88,40.457,48.511,40.295,48.217z"/>
<path fill="#96877D" d="M48.963,34.335c0.279,0.311,0.369,0.727,0.219,1.136h-0.414c0.172-0.523,0.064-1.021-0.676-1.087
	c-1.107-0.097-2.396,2.049-4.334,2.307c-0.566-0.675-0.537-1.961,0.184-2.57c-0.373-1.072-1.156-2.25-1.701-2.758
	c-0.355-0.059-0.768-0.087-1.031-0.071c0.283-0.61,1.09-1.251,1.744-1.514c0.105-0.154,0.221-0.304,0.324-0.437
	c0.066-0.839,4.053-0.446,4.9,0.075C48.18,30.356,48.551,33.485,48.963,34.335z"/>
<path fill="#529320" d="M53.256,26.546c0.566-1.48,2.049-1.328,2.549-0.697c1.459-0.827,1.654,1.045,2.896,0.676
	c-0.021,0.349-0.436,0.676-0.895,0.652c0.48,0.436-0.195,1.09,0.828,1.48c-0.871,0.434-2.09-0.021-2.416-1.221
	c-0.283,0.565-1.307,0.565-1.721,0.109c0.893-0.238,0.826-1.066,0.326-1.393C54.32,25.823,53.43,25.956,53.256,26.546z"/>
<path fill="#529320" d="M48.838,29.806c0.406,1.311,1.246,2.53,2.152,3.361c1.045,0.958,2.625,0.717,3.508-0.197
	c0.02,1.822-1.869,1.965-2.918,1.394c-0.465-0.252-0.838-0.12-0.393,0.282c0.676,0.611,2.152,1.064,3.896,1.438
	c3.049,0.652,1.961,3.072,1.068,3.049c0.258-0.005,0.467-0.271,0.098-0.604c-2.646-2.381-8.025-1.443-7.939-6.757
	c-0.564,1.393-2.895,0.849-1.807-0.807c0.35,0.283,1.461,0.179,1.133-1.099L48.838,29.806z"/>
<path fill="#FFE12C" d="M51.576,34.363c1.264,0.827,2.693,0.827,4.008-0.696c0.414-0.479,1.066-0.894,1.523-0.938
	c0.459-0.045,0.436-0.48,0.785-0.566c-0.219-0.064-0.305-0.327-0.633-0.293c0.818-0.283,0.576-0.938,0.98-1.252
	c-0.328,0.121-0.838-0.369-1.307,0.252c0.119-0.283-0.045-0.621-0.164-0.752c0.045,0.327-0.641,0.393-0.771,1.221
	c-0.074,0.463-0.328,0.434-0.369-0.283c-0.031-0.526-0.283-1.982-0.586-2.721c-0.305-0.742-0.375-1.758,0.039-1.91
	c-0.064-0.104-0.15-0.198-0.258-0.268c-0.504-0.329-1.393-0.195-1.568,0.394c-0.564,1.479,1.023,2.331,0.893,3.942
	c-0.238-1.197-2.178-1.504-2.154-2.68c-0.631,0.283-0.545,0.807-0.305,1.221c-0.393-0.611-1.285,0.393-2.047-0.436
	c-0.088,1.09,0.871,1.504,1.654,1.545c-0.393,0.697,0.131,1.286,0.652,1.48c0.021-1.221,2.521-0.721,2.549,1.372
	C54.518,34.776,52.602,34.929,51.576,34.363z"/>
<path fill="#FFE12C" d="M55.084,36.083c3.049,0.652,1.961,3.072,1.068,3.049c-0.568-0.013-1.109-0.49-1.145-0.903
	c-0.652,0.349-0.479,1.034,0.021,1.308c-1.373-0.163-1.949,0.74-1.982,1.73c0.252-0.459,1.014-0.49,1.297-0.393
	c0.281,0.097,1.014,0.152,1.307-0.176c-0.242,0.207,0.152,0.686-0.188,1.055c1.145-0.044,1.645-1.109,1.449-1.578
	C58.395,38.829,58.111,36.628,55.084,36.083z"/>
<polygon fill="#96877D" points="48.818,28.985 43.342,28.985 42.549,26.017 49.889,24.096 "/>
<rect x="43.029" y="28.657" fill="#FFE12C" width="5.871" height="1.342"/>
<path opacity="0.1" fill="#1A1626" d="M50.736,8.591c4.098,5.13,6.563,11.622,6.563,18.701c0,16.568-13.428,30.003-29.994,30.003
	c-7.102,0-13.609-2.478-18.744-6.594C14.055,57.58,22.502,62,32.002,62c16.566,0,29.996-13.432,29.996-30
	C61.998,22.527,57.596,14.09,50.736,8.591z"/>
<path opacity="0.3" fill-rule="evenodd" clip-rule="evenodd" fill="#FFFFFF" d="M9.734,19.015c0.549,3.865,7.766-3.7,15.08-10.202
	C29.531,4.63,8.082,7.385,9.734,19.015z"/>
</svg>
