<?xml version="1.0" encoding="utf-8"?>
<!-- Generator: Adobe Illustrator 15.0.0, SVG Export Plug-In . SVG Version: 6.00 Build 0)  -->
<!DOCTYPE svg PUBLIC "-//W3C//DTD SVG 1.1//EN" "http://www.w3.org/Graphics/SVG/1.1/DTD/svg11.dtd">
<svg version="1.1" id="Layer_1" xmlns="http://www.w3.org/2000/svg" xmlns:xlink="http://www.w3.org/1999/xlink" x="0px" y="0px"
	 width="64px" height="64px" viewBox="0 0 64 64" enable-background="new 0 0 64 64" xml:space="preserve">
<path fill="#FFE12C" d="M32,62c5.885,0,11.369-1.701,16-4.627V6.628C43.369,3.701,37.885,2,32,2c-5.883,0-11.367,1.701-16,4.628
	v50.745C20.633,60.299,26.117,62,32,62z"/>
<g>
	<path fill="#014D87" d="M16,6.628C7.59,11.943,2,21.316,2,32s5.59,20.057,14,25.373V6.628z"/>
</g>
<g>
	<path fill="#529320" d="M48,57.373C56.41,52.057,62,42.684,62,32S56.41,11.943,48,6.628V57.373z"/>
</g>
<polygon fill="#529320" points="24.773,17.92 18.75,28.271 24.773,38.623 30.797,28.271 "/>
<polygon fill="#529320" points="39.229,17.92 33.205,28.271 39.229,38.623 45.25,28.271 "/>
<polygon fill="#529320" points="25.979,41.729 32,52.08 38.023,41.729 32,31.377 "/>
<path opacity="0.1" fill="#1A1626" d="M50.738,8.591c4.096,5.13,6.563,11.622,6.563,18.701c0,16.569-13.43,30.003-29.996,30.003
	c-7.1,0-13.609-2.477-18.744-6.594C14.055,57.58,22.504,62,32.004,62c16.566,0,29.994-13.432,29.994-30
	C61.998,22.527,57.596,14.09,50.738,8.591z"/>
<path opacity="0.3" fill-rule="evenodd" clip-rule="evenodd" fill="#FFFFFF" d="M9.734,19.015c0.549,3.865,7.768-3.7,15.08-10.202
	C29.531,4.63,8.084,7.385,9.734,19.015z"/>
</svg>
