<?xml version="1.0" encoding="utf-8"?>
<!-- Generator: Adobe Illustrator 15.0.0, SVG Export Plug-In . SVG Version: 6.00 Build 0)  -->
<!DOCTYPE svg PUBLIC "-//W3C//DTD SVG 1.1//EN" "http://www.w3.org/Graphics/SVG/1.1/DTD/svg11.dtd">
<svg version="1.1" id="Layer_1" xmlns="http://www.w3.org/2000/svg" xmlns:xlink="http://www.w3.org/1999/xlink" x="0px" y="0px"
	 width="64px" height="64px" viewBox="0 0 64 64" enable-background="new 0 0 64 64" xml:space="preserve">
<circle fill="#E81C27" cx="32" cy="32" r="30"/>
<path fill="#529320" d="M23.348,44l3.305-9.93L18,27.938h10.693L32,18l3.309,9.938H46l-8.65,6.133L40.654,44L32,37.863L23.348,44z
	 M33.846,36.557l2.684,1.902l-1.025-3.078L33.846,36.557z M28.496,35.381l-1.023,3.078l2.684-1.902L28.496,35.381z M29.201,33.264
	L32,35.248l2.801-1.984l-1.068-3.209H30.27L29.201,33.264z M24.676,30.055l2.68,1.9l0.633-1.9H24.676z M36.645,31.955l2.682-1.9
	h-3.314L36.645,31.955z M30.975,27.938h2.053L32,24.852L30.975,27.938z"/>
<path opacity="0.1" fill="#1A1626" d="M50.738,8.592c4.096,5.129,6.563,11.621,6.563,18.701c0,16.568-13.43,30.002-29.996,30.002
	c-7.1,0-13.609-2.477-18.744-6.594C14.055,57.58,22.504,62,32.004,62c16.566,0,29.994-13.432,29.994-30
	C61.998,22.527,57.596,14.09,50.738,8.592z"/>
<path opacity="0.3" fill-rule="evenodd" clip-rule="evenodd" fill="#FFFFFF" d="M9.734,19.016c0.549,3.865,7.768-3.701,15.08-10.203
	C29.531,4.631,8.084,7.385,9.734,19.016z"/>
</svg>
