<?xml version="1.0" encoding="utf-8"?>
<!-- Generator: Adobe Illustrator 15.0.0, SVG Export Plug-In . SVG Version: 6.00 Build 0)  -->
<!DOCTYPE svg PUBLIC "-//W3C//DTD SVG 1.1//EN" "http://www.w3.org/Graphics/SVG/1.1/DTD/svg11.dtd">
<svg version="1.1" id="Layer_1" xmlns="http://www.w3.org/2000/svg" xmlns:xlink="http://www.w3.org/1999/xlink" x="0px" y="0px"
	 width="64px" height="64px" viewBox="0 0 64 64" enable-background="new 0 0 64 64" xml:space="preserve">
<path fill="#FFE12C" d="M32,62c16.568,0,30-13.432,30-30H2C2,48.568,15.432,62,32,62z"/>
<path fill="#014D87" d="M32,2C15.432,2,2,15.432,2,32h60C62,15.432,48.568,2,32,2z"/>
<path opacity="0.1" fill="#1A1626" d="M50.738,8.592c4.096,5.129,6.563,11.621,6.563,18.701c0,16.568-13.43,30.002-29.996,30.002
	c-7.101,0-13.609-2.477-18.744-6.594C14.055,57.58,22.503,62,32.003,62c16.567,0,29.995-13.432,29.995-30
	C61.998,22.527,57.596,14.09,50.738,8.592z"/>
<path opacity="0.3" fill-rule="evenodd" clip-rule="evenodd" fill="#FFFFFF" d="M9.735,19.016c0.549,3.865,7.767-3.701,15.08-10.203
	C29.532,4.631,8.083,7.385,9.735,19.016z"/>
</svg>
