<?xml version="1.0" encoding="utf-8"?>
<!-- Generator: Adobe Illustrator 15.0.0, SVG Export Plug-In . SVG Version: 6.00 Build 0)  -->
<!DOCTYPE svg PUBLIC "-//W3C//DTD SVG 1.1//EN" "http://www.w3.org/Graphics/SVG/1.1/DTD/svg11.dtd">
<svg version="1.1" id="Layer_1" xmlns="http://www.w3.org/2000/svg" xmlns:xlink="http://www.w3.org/1999/xlink" x="0px" y="0px"
	 width="64px" height="64px" viewBox="0 0 64 64" enable-background="new 0 0 64 64" xml:space="preserve">
<circle fill="#529320" cx="32" cy="32" r="30"/>
<path fill="#F5F5F5" d="M37.45,30.382c-0.742,0.209-1.398,0.533-1.978,0.918c0.099-0.59,0.153-1.213,0.153-1.861
	c0-3.561-3.582-7.439-3.582-7.439s-3.583,3.879-3.583,7.439c0,0.674,0.058,1.322,0.164,1.934c-0.603-0.416-1.289-0.77-2.075-0.99
	C22.683,29.289,18,31.707,18,31.707s3.202,4.999,7.068,6.088c3.273,0.924,5.764-1.57,6.716-1.932
	c0.104-0.039,0.337-0.033,0.439,0.008c0.958,0.383,3.446,2.844,6.708,1.924C42.798,36.705,46,31.707,46,31.707
	S41.317,29.289,37.45,30.382z"/>
<path fill="#F5F5F5" d="M24.744,48c2.151,1.271,4.623,2,7.256,2s5.104-0.729,7.255-2H24.744z"/>
<path fill="#F5F5F5" d="M20.301,44c0.545,0.723,1.149,1.387,1.801,2h19.796c0.651-0.613,1.257-1.277,1.801-2H20.301z"/>
<polygon fill="#FFE12C" points="32,18.123 34.474,20 33.538,16.947 36,15.054 32.952,15.044 32,12 31.047,15.044 28,15.054 
	30.461,16.947 29.529,20 "/>
<polygon fill="#FFE12C" points="24.652,19.339 26.501,19.572 25.099,18.265 25.811,16.544 24.224,17.455 22.815,16.158 
	23.234,18.025 21.653,18.945 23.499,19.189 23.931,21.056 "/>
<polygon fill="#FFE12C" points="19.34,24.652 21.057,23.929 19.19,23.5 18.945,21.654 18.026,23.234 16.158,22.816 17.455,24.224 
	16.546,25.81 18.266,25.099 19.573,26.5 "/>
<polygon fill="#FFE12C" points="44.66,24.652 44.428,26.5 45.732,25.099 47.455,25.81 46.546,24.222 47.842,22.814 45.973,23.234 
	45.055,21.652 44.81,23.498 42.943,23.929 "/>
<polygon fill="#FFE12C" points="39.348,19.339 40.07,21.056 40.5,19.191 42.348,18.945 40.766,18.025 41.184,16.158 39.776,17.455 
	38.189,16.544 38.9,18.265 37.5,19.572 "/>
<path fill="#F5F5F5" d="M46.317,40H35.566c-2.399,0-2.559-1.676-2.566-2h-2c0,0.205-0.072,2-2.566,2H17.683
	c0.306,0.689,0.637,1.363,1.016,2h9.735c1.765,0,2.88-0.641,3.566-1.436C32.687,41.359,33.802,42,35.566,42h9.735
	C45.681,41.363,46.012,40.689,46.317,40z"/>
<path opacity="0.1" fill="#1A1626" d="M50.736,8.591c4.097,5.129,6.563,11.621,6.563,18.701c0,16.569-13.428,30.002-29.994,30.002
	c-7.101,0-13.61-2.477-18.745-6.594C14.054,57.58,22.502,62,32.003,62c16.565,0,29.995-13.432,29.995-30
	C61.998,22.527,57.595,14.089,50.736,8.591z"/>
<path opacity="0.3" fill-rule="evenodd" clip-rule="evenodd" fill="#FFFFFF" d="M9.734,19.015c0.549,3.865,7.767-3.701,15.08-10.203
	C29.531,4.63,8.083,7.384,9.734,19.015z"/>
</svg>
