<?xml version="1.0" encoding="utf-8"?>
<!-- Generator: Adobe Illustrator 15.0.0, SVG Export Plug-In . SVG Version: 6.00 Build 0)  -->
<!DOCTYPE svg PUBLIC "-//W3C//DTD SVG 1.1//EN" "http://www.w3.org/Graphics/SVG/1.1/DTD/svg11.dtd">
<svg version="1.1" id="Layer_1" xmlns="http://www.w3.org/2000/svg" xmlns:xlink="http://www.w3.org/1999/xlink" x="0px" y="0px"
	 width="64px" height="64px" viewBox="0 0 64 64" enable-background="new 0 0 64 64" xml:space="preserve">
<circle fill="#F5F5F5" cx="32" cy="31.999" r="30"/>
<path fill="#E81C27" d="M23.418,33.714c2.844,1.896,6.686,1.129,8.582-1.715c1.895-2.844,5.736-3.611,8.58-1.717
	c2.666,1.777,3.508,5.266,2.041,8.037c3.35-5.625,1.752-12.945-3.758-16.617c-5.686-3.793-13.369-2.256-17.162,3.432
	c-0.117,0.178-0.215,0.363-0.322,0.545C19.91,28.45,20.752,31.937,23.418,33.714z"/>
<path fill="#003478" d="M42.297,38.864c0.119-0.178,0.227-0.361,0.324-0.545C42.514,38.501,42.416,38.687,42.297,38.864z"/>
<path fill="#014D87" d="M40.58,30.282c-2.844-1.895-6.686-1.127-8.58,1.717c-1.896,2.844-5.738,3.611-8.582,1.715
	c-2.666-1.777-3.508-5.264-2.039-8.035c-3.352,5.623-1.754,12.943,3.756,16.617c5.688,3.791,13.371,2.256,17.162-3.432
	c0.119-0.178,0.217-0.363,0.324-0.545C44.088,35.548,43.246,32.06,40.58,30.282z"/>
<polygon fill="#302C3B" points="7.805,23.306 14.67,13.009 13.979,12.548 13.289,12.087 6.424,22.386 7.115,22.845 "/>
<polygon fill="#302C3B" points="9.689,24.562 10.379,25.022 17.242,14.724 16.553,14.265 15.861,13.804 8.998,24.103 "/>
<polygon fill="#302C3B" points="18.438,15.521 11.572,25.817 12.262,26.278 12.953,26.737 19.818,16.44 19.127,15.981 "/>
<polygon fill="#302C3B" points="48.533,42.522 49.223,42.983 52.426,38.181 51.736,37.72 51.045,37.259 47.844,42.063 "/>
<polygon fill="#302C3B" points="56.193,40.692 52.992,45.495 53.682,45.956 54.373,46.415 57.574,41.612 56.885,41.151 "/>
<polygon fill="#302C3B" points="51.797,44.7 55,39.896 54.309,39.437 53.619,38.976 50.418,43.778 51.107,44.239 "/>
<polygon fill="#302C3B" points="48.074,43.214 47.383,42.753 44.182,47.556 44.871,48.017 45.563,48.478 48.764,43.673 "/>
<polygon fill="#302C3B" points="50.648,44.929 49.957,44.47 46.756,49.272 47.445,49.733 48.137,50.192 51.338,45.39 "/>
<polygon fill="#302C3B" points="52.531,46.185 49.33,50.989 50.02,51.45 50.709,51.909 53.912,47.106 53.221,46.646 "/>
<polygon fill="#302C3B" points="7.115,41.151 6.424,41.612 13.289,51.909 13.979,51.45 14.67,50.989 7.805,40.692 "/>
<polygon fill="#302C3B" points="13.35,44.929 12.66,45.39 15.861,50.192 16.553,49.733 17.242,49.272 14.041,44.47 "/>
<polygon fill="#302C3B" points="12.262,37.72 11.572,38.181 18.438,48.478 19.127,48.017 19.818,47.556 12.953,37.259 "/>
<polygon fill="#302C3B" points="8.998,39.896 12.201,44.7 12.891,44.239 13.582,43.778 10.379,38.976 9.689,39.437 "/>
<polygon fill="#302C3B" points="53.221,17.353 53.912,16.892 50.709,12.087 50.02,12.548 49.33,13.009 52.533,17.812 "/>
<polygon fill="#302C3B" points="48.074,20.784 48.764,20.325 45.563,15.521 44.871,15.981 44.182,16.44 47.383,21.245 "/>
<polygon fill="#302C3B" points="52.992,18.503 56.193,23.306 56.885,22.845 57.574,22.386 54.373,17.583 53.682,18.042 "/>
<polygon fill="#302C3B" points="54.309,24.562 55,24.103 48.137,13.804 47.445,14.265 46.756,14.724 53.619,25.022 "/>
<polygon fill="#302C3B" points="51.736,26.278 52.426,25.817 49.223,21.015 48.533,21.474 47.844,21.935 51.045,26.737 "/>
<path opacity="0.05" fill="#1A1626" d="M50.736,8.589c4.098,5.131,6.563,11.623,6.563,18.701c0,16.568-13.428,30.004-29.994,30.004
	c-7.1,0-13.609-2.479-18.744-6.594c5.494,6.879,13.941,11.299,23.443,11.299c16.564,0,29.994-13.432,29.994-30
	C61.998,22.526,57.596,14.089,50.736,8.589z"/>
<path opacity="0.9" fill-rule="evenodd" clip-rule="evenodd" fill="#FFFFFF" d="M9.734,19.013c0.549,3.865,7.768-3.699,15.08-10.201
	C29.531,4.628,8.084,7.384,9.734,19.013z"/>
</svg>
