<?xml version="1.0" encoding="utf-8"?>
<!-- Generator: Adobe Illustrator 15.0.0, SVG Export Plug-In . SVG Version: 6.00 Build 0)  -->
<!DOCTYPE svg PUBLIC "-//W3C//DTD SVG 1.1//EN" "http://www.w3.org/Graphics/SVG/1.1/DTD/svg11.dtd">
<svg version="1.1" id="Layer_1" xmlns="http://www.w3.org/2000/svg" xmlns:xlink="http://www.w3.org/1999/xlink" x="0px" y="0px"
	 width="64px" height="64px" viewBox="0 0 64 64" enable-background="new 0 0 64 64" xml:space="preserve">
<path fill="#E81C27" d="M62,32c0-5.422-1.438-10.51-3.955-14.898L14.687,54.373l-0.691,1.625c0.13,0.098,0.262,0.193,0.394,0.289
	l46.609-16.572C61.65,37.254,62,34.668,62,32z"/>
<path fill="#FFE12C" d="M58.045,17.101C53.632,9.404,45.904,3.851,36.809,2.384L13.995,55.998L58.045,17.101z"/>
<path fill="#014D87" d="M32,2c-8.191,0-15.615,3.285-21.029,8.607C5.435,16.05,2,23.623,2,32c0,9.526,4.441,18.014,11.364,23.51
	c0.124,0.098,0.248,0.193,0.373,0.291c0.086,0.064,0.171,0.133,0.258,0.197l0.691-1.625L36.809,2.384C35.243,2.132,33.638,2,32,2z"
	/>
<path fill="#F5F5F5" d="M14.389,56.287c0.056,0.039,0.11,0.082,0.166,0.121l40.252-4.92c2.877-3.363,5.021-7.369,6.191-11.773
	L14.389,56.287z"/>
<path fill="#529320" d="M32,62c9.129,0,17.305-4.078,22.807-10.512l-40.252,4.92C19.471,59.928,25.494,62,32,62z"/>
<path opacity="0.1" fill="#1A1626" d="M50.737,8.589C54.834,13.72,57.3,20.212,57.3,27.291c0,16.569-13.429,30.004-29.995,30.004
	c-7.101,0-13.609-2.479-18.744-6.594C14.055,57.58,22.503,62,32.004,62c16.565,0,29.994-13.432,29.994-30
	C61.998,22.527,57.596,14.089,50.737,8.589z"/>
<path opacity="0.3" fill-rule="evenodd" clip-rule="evenodd" fill="#FFFFFF" d="M9.734,19.013c0.549,3.865,7.767-3.699,15.08-10.201
	C29.531,4.628,8.083,7.384,9.734,19.013z"/>
</svg>
