<?xml version="1.0" encoding="utf-8"?>
<!-- Generator: Adobe Illustrator 15.0.0, SVG Export Plug-In . SVG Version: 6.00 Build 0)  -->
<!DOCTYPE svg PUBLIC "-//W3C//DTD SVG 1.1//EN" "http://www.w3.org/Graphics/SVG/1.1/DTD/svg11.dtd">
<svg version="1.1" id="Layer_1" xmlns="http://www.w3.org/2000/svg" xmlns:xlink="http://www.w3.org/1999/xlink" x="0px" y="0px"
	 width="64px" height="64px" viewBox="0 0 64 64" enable-background="new 0 0 64 64" xml:space="preserve">
<rect x="12" y="12" fill="#014D87" width="21" height="21"/>
<polygon fill="#F5F5F5" points="18.912,8.14 18.912,14 11.6,14 26,32 32,32 32,24.5 "/>
<path fill="#014D87" d="M32,2v30H2c0,16.568,13.432,30,30,30s30-13.432,30-30S48.568,2,32,2z"/>
<path fill="#F5F5F5" d="M11,18.912H5.012C3.088,22.869,2,27.306,2,32h12V13.912h-3V18.912z"/>
<polygon fill="#E81C27" points="32,27.059 19,11 13,11 30,32 32,32 "/>
<path fill="#F5F5F5" d="M18.912,5.012V11H11v3h21V2C27.307,2,22.869,3.088,18.912,5.012z"/>
<path fill="#E81C27" d="M32,5H18.912C12.857,7.94,7.941,12.857,5,18.912V32h6V11h21V5z"/>
<path fill="#D8A322" d="M34.541,33.849l-0.002,0.006L34.541,33.849z"/>
<path fill="#D8A322" d="M34.537,33.86L34.5,33.94L34.537,33.86z"/>
<path fill="#BFE5E8" d="M48.262,24.028l-3.689,1.248l0.057-3.805l0.779-1.258L48.262,24.028z M41.484,24.53l2.852-2.851
	l-0.037,3.572L41.484,24.53z"/>
<path fill="#C7E8EB" d="M46.367,26.004l-0.01-0.001L46.367,26.004z"/>
<path fill="#C7E8EB" d="M48.145,25.946l-0.055,0.016L48.145,25.946z"/>
<path fill="#C7E8EB" d="M48.24,25.919l-0.002,0.006L48.24,25.919z"/>
<path fill="#C7E8EB" d="M48.246,25.903l0.033-0.078L48.246,25.903z"/>
<path fill="#C7E8EB" d="M48.24,25.919l0.006-0.016L48.24,25.919z"/>
<path fill="#C7E8EB" d="M42.574,25.239c0.037,0.648,0.215,0.686,0.215,0.686h5.449c0,0,0.156-0.469,0.207-0.709
	C46.855,25.642,44.75,25.919,42.574,25.239z"/>
<path fill="#0FB4D4" d="M48.971,26.218c0.043-0.168,0.086-0.338,0.127-0.507c0.066-0.265-0.121-0.397-0.148-0.671
	c-0.014-0.164,0.01-0.326,0.047-0.485c-0.205-0.063-0.422-0.089-0.637-0.085c-0.195,0.004-0.447-0.053-0.502,0.184
	c0.283-0.029,0.596-0.049,0.869,0.049c-0.602,0.505-1.695,0.543-2.434,0.597c-0.637,0.046-1.316,0.075-1.934,0.015
	c-0.346-0.034-0.75-0.092-1.111-0.165c-0.246-0.05-0.488-0.114-0.723-0.202c-0.037-0.287,0.021-0.307-0.295-0.307
	c-0.029,0.32-0.154,1.509,0.404,1.322c-0.119-0.239-0.119-0.561-0.146-0.82c1.16,0.429,3.434,0.762,6.055-0.037
	c-0.045,0.282-0.119,0.554-0.221,0.82C48.559,25.935,48.803,26.046,48.971,26.218z"/>
<path fill="#BC7E22" d="M44.592,20.86c0,0,0-0.098-0.098-0.098c-0.092,0-0.098,0.098-0.098,0.098l-0.064,4.416h0.205L44.592,20.86z"
	/>
<polygon fill="#F5F5F5" points="49.646,39.565 49.646,39.565 49.646,39.565 "/>
<polygon fill="#F5F5F5" points="41.756,39.56 41.754,39.56 41.756,39.559 "/>
<polygon fill="#1799F8" points="41.754,41.446 41.752,41.446 41.754,41.446 "/>
<polygon fill="#1799F8" points="49.645,41.452 49.645,41.452 49.645,41.452 "/>
<path fill="#0FB4D4" d="M39.219,27.459c0.824-0.413,1.684-0.224,2.008,0.536c0.246,0.981-0.313,1.751-1.049,2.465l0.09,0.123
	c0.4-0.502,0.926-0.881,1.785-0.904c-0.111,0.268-0.447,1.507-0.547,1.741c0.145,0,0.289,0.011,0.436,0.011
	c0.121,0.057,0.199,0.156,0.244,0.313c-0.4,0.057-0.803,0.022-1.205-0.1c-0.602-0.279-1.148-0.369-1.494,0.156
	c-0.246-0.38-0.313-0.748-0.189-1.117c0.178-0.457,0.355-0.914,0.547-1.383C40.223,28.106,39.844,27.56,39.219,27.459z
	 M39.186,30.995c-0.068,0.447,0.049,0.883,0.094,1.328c-0.469-0.1-1.021-0.1-1.367,0.067c-0.021-0.401,0.168-0.591,0.381-0.759
	c-0.814-0.168-1.439,0.056-1.697,0.948c0.102-0.502,0.189-1.015,0.156-1.517C37.434,30.527,38.258,30.561,39.186,30.995z"/>
<path fill="#9EC1FF" d="M35.438,28.786c0.145,0.313,0.4,0.635,0.893,0.947c0.234,0.224,0.479,0.313,0.713,0.269
	c0.727-0.245,1.105-0.614,1.463-0.981c0.223-0.279,0.379-0.559,0.523-0.826c0.012-0.066,0.178-0.066,0.078,0.101
	c-0.211,0.212-0.287,0.491-0.375,0.827c-0.135,0.334-0.205,0.623-0.004,0.936c0.045-0.234,0.26-0.378,0.461-0.467
	c0.234-0.156,0.369-0.425,0.447-0.715c0.021-0.391,0.018-0.704,0.273-0.826c-0.111-0.357-0.346-0.547-0.703-0.569
	c-0.289-0.368-0.691-0.491-1.16-0.435c-0.502,0-0.971,0.278-1.494,0.066c0.066,0.368,0.436,0.781,1.607,0.881
	c-0.426,0.391-0.916,0.77-1.82,1.071C35.906,29.109,35.648,28.976,35.438,28.786z"/>
<path fill="#9EC1FF" d="M39.191,31.069c0.111,1.037,1.809,1.704,2.701,0.924c-1.473,0.133-1.361-0.246-2.131-0.414
	c0.189-0.189,0.502-0.256,1.238,0.102c0.346,0.088,0.703,0.122,1.049,0.122l0.137-0.103c-0.012-0.156-0.109-0.172-0.188-0.262
	l0.352-0.049c0.324,0.535,0.648,1.061,0.971,1.584c-0.635,0.814-1.281,1.351-1.918,1.451c-0.012-0.514,0.178-0.881,0.436-1.205
	C39.996,33.923,38.789,32.296,39.191,31.069z"/>
<path fill="#9EC1FF" d="M36.906,31.98c0.078,0.479,0.512,0.837,1.148,0.814c-0.324,0.848-1.539,0.491-1.439-0.19
	C36.672,32.36,36.76,32.147,36.906,31.98z"/>
<path fill="#0FB4D4" d="M50.566,28.144c0.252-1.047,1.109-1.141,1.967-0.858c0.326-0.146,0.629-0.304,1.215-0.157
	c0.418,0.137,0.826,0.125,1.246,0.031c-0.314,0.545-0.838,0.838-1.686,0.764c0.564,0.535,1.172,0.922,1.895,0.891
	c0.115,0.346-0.094,0.639-0.449,0.889c-0.607,0-1.174-0.334-1.686-0.951c0.094,0.355,0.104,0.711,0.031,1.066
	c-0.324-0.271-0.67-0.533-0.848-0.805c-0.209-0.23-0.221-0.618-0.178-0.963C52,27.128,50.818,27.452,50.566,28.144z"/>
<path fill="#0FB4D4" d="M46.768,30.024c0.43-0.271,0.744-0.564,0.943-0.869l0.021,0.012l0.094,0.02l0.156,0.043l0.115,0.031
	c0.199,0.063,0.408,0.156,0.598,0.251c0.104,0.22,0.219,0.429,0.459,0.618c0.283,0.365,0.586,0.722,1.371,0.596
	c-0.197,0.074-0.377,0.157-0.523,0.283l-0.209-0.063l0.115,0.188l-0.01,0.094c0.795,0.325,1.58,0.598,2.26,0.147
	c0.053,0.722-0.178,1.183-0.732,1.351c-1.119,0.219-2.072-0.523-2.533-1.518c0.096,0.512,0.012,1.035-0.188,1.559
	c-0.408-0.366-0.701-0.9-0.66-1.863c-0.115,0.503-0.313,0.9-0.512,1.288c-0.355-0.785-0.377-1.507-0.063-2.146
	C47.24,30.149,47.01,30.118,46.768,30.024z"/>
<path fill="#9EC1FF" d="M49.006,29.815c0.346,0.21,0.723-0.01,1.172,0.127c-0.25-0.189-0.355-0.377-0.355-0.555
	c0.377-0.137,0.764,0,1.172,0.313c-0.355-0.544-0.555-1.067-0.43-1.55c0.314-0.512,0.713-0.816,1.258-0.564
	c-0.221,0.303-0.23,0.774-0.096,1.225c0.105,0.639,0.439,1.162,0.617,1.832c0.389-0.23,0.797-0.408,1.215-0.523
	c0.252-0.063,0.502,0.021,0.754,0.178c0.314,0.418,0.439,0.848,0.178,1.298c-0.24-0.492-0.68-0.544-1.215-0.397
	c0.273,0.167,0.408,0.408,0.262,0.773c-0.408-0.198-0.785-0.209-1.141-0.094c0,0-0.402-0.822-0.973-0.879
	c-0.283,0.021-0.576,0.199-0.859,0.324c-0.293,0.063-0.523,0.031-0.689-0.084c0.072-0.293,0.408-0.377,0.639-0.502
	C49.717,30.8,49.184,30.485,49.006,29.815z M54.711,28.058c0.25,0.178,0.459,0.387,0.533,0.68c0.072,0.346-0.074,0.65-0.451,0.912
	c0.262-0.043,0.523-0.21,0.785-0.545c0.168-0.199,0.336-0.387,0.492-0.586C55.998,27.817,55.129,27.659,54.711,28.058z"/>
<path fill="#D8A322" d="M41.074,38.374l-0.031-0.055L41.074,38.374z"/>
<path fill="#D8A322" d="M41.043,38.319l0.031,0.055L41.043,38.319z"/>
<path fill="#D8A322" d="M57.771,34.475l0.004,0.007L57.771,34.475z"/>
<path fill="#D8A322" d="M50.424,38.355l0.033-0.055L50.424,38.355z"/>
<path fill="#D8A322" d="M50.457,38.301l-0.033,0.055L50.457,38.301z"/>
<path fill="#D8A322" d="M57.777,34.487l0.037,0.078L57.777,34.487z"/>
<path fill="#D8A322" d="M45.145,26.948c0-0.541,0.049-0.979,0.109-0.979c-0.863-0.816-1.768,0-1.768,0l0.365,2.088
	c0,0-0.75-1.282-0.365-2.088c0,0-2.068-0.549-2.521,0.996c-0.143,0.486,0.863,1.813,0.863,1.813c1.596-0.92,3.426-0.85,3.426-0.85
	v-0.002C45.193,27.927,45.145,27.489,45.145,26.948z"/>
<path fill="#D8A322" d="M49.543,26.966c-0.453-1.545-2.521-0.996-2.521-0.996c0.383,0.806-0.365,2.088-0.365,2.088l0.365-2.088
	c0,0-0.904-0.816-1.768,0c0.061,0,0.109,0.438,0.109,0.979s-0.049,0.979-0.109,0.979v0.002c0,0,1.83-0.07,3.424,0.85
	C48.678,28.778,49.686,27.452,49.543,26.966z"/>
<g>
	<path fill="#F5F5F5" d="M45.709,49.956c0.998,0.014,1.979-0.229,2.869-0.669c0.447-0.221,0.865-0.483,1.266-0.778
		c0.109-0.08,0.441-0.435,0.559-0.438c0.139-0.005,0.484,0.285,0.645,0.339c0.656,0.219,1.531,0.128,1.709-0.669
		c0.074-0.34-0.137-0.746-0.041-1.08c0.035-0.122,0.15-0.179,0.193-0.283c0.07-0.175,0.105-0.073,0.004-0.273l-0.137-0.174
		c-0.41-0.416-1.049-0.404-1.561-0.213c-0.094,0.035-0.26,0.17-0.355,0.174c-0.146,0.005-0.375-0.198-0.537-0.26
		c-0.326-0.121-0.639-0.187-0.984-0.127c-0.646,0.113-1.027,0.596-1.529,0.953c-0.373,0.266-1.061,0.457-0.68,1.055
		c0.287,0.451,1.078-0.01,1.52-0.102c-1.814,1.298-4.066,1.199-5.891,0c0.195,0.041,0.387,0.079,0.578,0.127
		c0.182,0.046,0.449,0.256,0.619,0.213c0.553-0.139,0.521-0.818,0.08-1.039c-0.502-0.252-0.848-0.68-1.328-0.963
		c-0.73-0.432-1.24-0.208-1.955,0.061c-0.219,0.082-0.174,0.086-0.377-0.016c-0.146-0.074-0.305-0.121-0.465-0.156
		c-0.279-0.063-0.557-0.072-0.832,0.02c-0.213,0.072-0.518,0.252-0.598,0.477c-0.086,0.24,0.049,0.198,0.152,0.396
		c0.074,0.143,0.063,0.244,0.061,0.404c-0.014,0.75-0.055,1.477,0.893,1.582c0.381,0.043,0.85-0.07,1.17-0.283
		c0.287-0.191,0.295-0.122,0.553,0.08c0.207,0.162,0.42,0.316,0.637,0.463C43.063,49.521,44.357,49.978,45.709,49.956z"/>
</g>
<g>
	<g>
		<g>
			<path fill="#007DD4" d="M40.74,34.675l9.941-0.02v5.869c-0.033,4.076-1.496,5.483-5.023,6.439
				c-3.592-0.997-4.893-2.449-4.918-6.457V34.675z"/>
		</g>
		<g>
			<path fill="#1799F8" d="M41.002,34.948l9.455-0.018v5.58c-0.031,3.877-1.422,5.215-4.777,6.125
				c-3.416-0.949-4.652-2.329-4.678-6.141V34.948z"/>
		</g>
		<g>
			<path fill="#F5F5F5" d="M50.441,40.536c-0.031,3.877-1.422,5.215-4.777,6.125c-3.416-0.949-4.652-2.33-4.678-6.141L50.441,40.536
				z"/>
		</g>
		<g>
			<g>
				<polygon fill="#F5F5F5" points="47.502,40.528 45.697,37.083 43.805,40.516 				"/>
			</g>
			<g>
				<polyline fill="#1799F8" points="43.805,40.516 45.697,43.97 47.502,40.528 				"/>
			</g>
		</g>
		<g>
			<g>
				<path fill="#F5F5F5" d="M49.291,38.621c-0.096-0.134-0.49-0.516-0.957-0.55c0,0,0.008-0.069-0.229-0.137
					c-0.4-0.113-0.219-0.433-0.125-0.645c0.1-0.222,0.064-0.545-0.396-0.813c-0.459-0.268-0.869-0.196-1.334-0.576
					c-0.072,0.32,0.668,0.587,0.607,0.666c-0.133,0.178,0.631,0.933,0.037,0.651c-0.111-0.053-0.465-0.145-0.75-0.022
					c0.533,0.12,0.814,0.918,1.701,1.057c0.018,0.132,0.1,0.252,0.213,0.263c0,0,0.414,0.107,0.605,0.588
					c0.1-0.299-0.225-0.617-0.271-0.685c0,0,0.418-0.078,0.51,0.164c0.23,0.611,0.889,1.249,1.242,1.318
					C49.748,39.62,49.533,38.956,49.291,38.621z"/>
			</g>
			<g>
				<path fill="#F5F5F5" d="M42.111,38.615c0.096-0.134,0.49-0.516,0.957-0.55c0,0-0.01-0.069,0.229-0.137
					c0.398-0.113,0.217-0.433,0.123-0.645c-0.098-0.222-0.064-0.545,0.396-0.813s0.869-0.196,1.334-0.576
					c0.072,0.32-0.668,0.587-0.607,0.666c0.135,0.178-0.629,0.933-0.035,0.651c0.109-0.053,0.465-0.145,0.75-0.022
					c-0.533,0.12-0.814,0.918-1.703,1.057c-0.018,0.132-0.1,0.252-0.211,0.263c0,0-0.416,0.107-0.607,0.588
					c-0.1-0.299,0.227-0.617,0.271-0.685c0,0-0.416-0.078-0.508,0.164c-0.232,0.611-0.891,1.249-1.242,1.318
					C41.654,39.614,41.867,38.95,42.111,38.615z"/>
			</g>
		</g>
		<g>
			<g>
				<path fill="#1799F8" d="M42.111,42.569c0.096,0.134,0.49,0.516,0.957,0.55c0,0-0.01,0.069,0.229,0.137
					c0.398,0.113,0.217,0.433,0.123,0.645c-0.098,0.222-0.064,0.545,0.396,0.813s0.869,0.196,1.334,0.576
					c0.072-0.32-0.668-0.587-0.607-0.666c0.135-0.178-0.629-0.933-0.035-0.651c0.109,0.053,0.465,0.145,0.75,0.022
					c-0.533-0.12-0.814-0.918-1.703-1.057c-0.018-0.132-0.1-0.252-0.211-0.263c0,0-0.416-0.107-0.607-0.588
					c-0.1,0.299,0.227,0.617,0.271,0.685c0,0-0.416,0.078-0.508-0.164c-0.232-0.611-0.891-1.249-1.242-1.318
					C41.654,41.57,41.867,42.234,42.111,42.569z"/>
			</g>
			<g>
				<path fill="#1799F8" d="M49.291,42.575c-0.096,0.134-0.49,0.516-0.957,0.55c0,0,0.008,0.069-0.229,0.137
					c-0.4,0.113-0.219,0.433-0.125,0.645c0.1,0.222,0.064,0.545-0.396,0.813c-0.459,0.268-0.869,0.196-1.334,0.576
					c-0.072-0.32,0.668-0.587,0.607-0.666c-0.133-0.178,0.631-0.933,0.037-0.651c-0.111,0.053-0.465,0.145-0.75,0.022
					c0.533-0.12,0.814-0.918,1.701-1.057c0.018-0.132,0.1-0.252,0.213-0.263c0,0,0.414-0.107,0.605-0.588
					c0.1,0.299-0.225,0.617-0.271,0.685c0,0,0.418,0.078,0.51-0.164c0.23-0.611,0.889-1.249,1.242-1.318
					C49.748,41.576,49.533,42.24,49.291,42.575z"/>
			</g>
		</g>
	</g>
	<g>
		<g>
			<path fill="#D8A322" d="M50.449,39.51c-0.367-0.405,0.797-2.212,0.969-1.954c0.307,0.342,0.666,0.973,0.947,1.34
				c0.396,0.518-1.008-0.984-1.309-0.492c-0.074,0.119-1.416,2.875,0.074,3.553c-0.736-1.945,0.18-3.898,1.488-1.942
				c0.408,0.611-0.277,0.175-0.508,0.01c-1.049-0.751-1.023,1.813-0.107,2.681c-0.766-3.013,0.391-2.148,1.477-1.141
				c0.553,0.516-1.281,2.658-1.33,2.571c-0.152-0.345-0.643-0.986-0.98-0.952c-0.459,0.047-0.988,1.084-0.826,1.672
				c0.32,0.736,1.516,0.739,2.084,0.552c4.32-1.431,4.791-7.923,3.615-10.093c-0.152-0.28,0.869-1.105,1.082-0.844
				c2.346,2.871,0.139,9.258-0.154,9.68c3.215-4.639,2.643-10.861-0.996-10.633c-0.729,0.044-2.057,0.426-2.988,2.344
				c0,0,0.1-1.533-0.885-1.291c-0.768,0.189-2.207,0.88-1.809,1.636c0.059-0.17,1.404-1.085,1.785-1.155
				c0.316,0.004,0.332,1.664,0.146,1.206c-0.121-0.296-0.475-0.788-0.816-0.546c-0.314,0.248-1.941,1.369-1.086,2.24
				c-0.076-0.811,0.877-1.605,1.164-1.776c0.252-0.151,1.057,1.538,1.012,1.837c-0.146,0.047-1.006-1.313-1.359-1.127
				C50.898,37.009,49.82,38.817,50.449,39.51z"/>
		</g>
		<g>
			<g>
				<path fill="#D8A322" d="M40.971,39.51c0.367-0.405-0.797-2.212-0.969-1.954c-0.307,0.343-0.666,0.973-0.947,1.34
					c-0.396,0.519,1.008-0.984,1.311-0.492c0.072,0.119,1.414,2.875-0.076,3.553c0.736-1.945-0.18-3.897-1.488-1.942
					c-0.408,0.611,0.277,0.176,0.508,0.01c1.049-0.75,1.023,1.813,0.109,2.681c0.764-3.013-0.393-2.148-1.477-1.14
					c-0.553,0.515,1.279,2.657,1.33,2.57c0.152-0.345,0.641-0.986,0.98-0.952c0.457,0.047,0.988,1.084,0.824,1.673
					c-0.32,0.735-1.516,0.738-2.084,0.551c-4.32-1.43-4.789-7.923-3.615-10.092c0.152-0.281-0.869-1.105-1.082-0.844
					c-2.346,2.87-0.139,9.257,0.156,9.68c-3.217-4.64-2.645-10.861,0.994-10.634c0.73,0.044,2.057,0.426,2.988,2.345
					c0,0-0.1-1.534,0.887-1.291c0.766,0.188,2.205,0.879,1.807,1.635c-0.059-0.17-1.402-1.085-1.785-1.154
					c-0.316,0.004-0.332,1.663-0.145,1.205c0.119-0.296,0.473-0.788,0.814-0.545c0.314,0.248,1.941,1.368,1.088,2.24
					c0.074-0.812-0.877-1.605-1.166-1.777c-0.252-0.15-1.057,1.538-1.012,1.838c0.146,0.047,1.006-1.313,1.359-1.128
					C40.521,37.01,41.6,38.818,40.971,39.51z"/>
			</g>
		</g>
	</g>
</g>
<path fill="#8CA8C2" d="M47.818,33.632c0.244,0.271,0.324,0.638,0.191,0.994h-0.363c0.152-0.457,0.059-0.893-0.59-0.95
	c-0.969-0.085-2.096,1.79-3.789,2.019c-0.496-0.59-0.469-1.715,0.158-2.248c-0.324-0.937-1.01-1.967-1.484-2.412
	c-0.313-0.051-0.672-0.076-0.902-0.063c0.246-0.533,0.953-1.095,1.523-1.324c0.092-0.135,0.191-0.265,0.285-0.381
	c0.057-0.732,3.543-0.391,4.285,0.066C47.133,30.152,47.457,32.89,47.818,33.632z"/>
<path fill="#D8A322" d="M42.48,29.737c1.781-0.774,3.889-0.774,5.67,0c0.143-0.239,0.285-0.479,0.43-0.719
	c-2.051-0.891-4.479-0.891-6.529,0C42.193,29.259,42.336,29.498,42.48,29.737z"/>
<path opacity="0.1" fill="#1A1626" d="M50.736,8.591c4.098,5.13,6.563,11.622,6.563,18.701c0,16.568-13.428,30.003-29.994,30.003
	c-7.1,0-13.609-2.478-18.744-6.594C14.055,57.58,22.502,62,32.004,62c16.564,0,29.994-13.432,29.994-30
	C61.998,22.527,57.596,14.09,50.736,8.591z"/>
<path opacity="0.3" fill-rule="evenodd" clip-rule="evenodd" fill="#FFFFFF" d="M9.734,19.015c0.549,3.865,7.768-3.7,15.08-10.202
	C29.531,4.63,8.084,7.385,9.734,19.015z"/>
</svg>
