<?xml version="1.0" encoding="utf-8"?>
<!-- Generator: Adobe Illustrator 15.0.0, SVG Export Plug-In . SVG Version: 6.00 Build 0)  -->
<!DOCTYPE svg PUBLIC "-//W3C//DTD SVG 1.1//EN" "http://www.w3.org/Graphics/SVG/1.1/DTD/svg11.dtd">
<svg version="1.1" id="Layer_1" xmlns="http://www.w3.org/2000/svg" xmlns:xlink="http://www.w3.org/1999/xlink" x="0px" y="0px"
	 width="64px" height="64px" viewBox="0 0 64 64" enable-background="new 0 0 64 64" xml:space="preserve">
<path fill="#E81C27" d="M17.629,39.004c6.852,0,6.852-1.988,13.701-1.988s6.85,1.988,13.697,1.988s6.848-1.988,13.693-1.988
	c1.105,0,2.025,0.055,2.828,0.143C61.84,35.48,62,33.76,62,32C62,15.431,48.568,2,32,2S2,15.431,2,32
	c0,1.725,0.152,3.413,0.432,5.055c0.465-0.021,0.953-0.039,1.498-0.039C10.779,37.016,10.779,39.004,17.629,39.004z"/>
<polygon fill="#FFE12C" points="44.299,33 48,31.326 44.031,30.457 47.301,28.054 43.236,28.025 45.932,25 41.951,25.81 
	43.955,22.292 40.23,23.91 41.455,20.054 38.15,22.406 38.543,18.382 35.801,21.367 35.344,17.349 33.285,20.835 32,17 
	30.715,20.835 28.654,17.349 28.199,21.367 25.455,18.382 25.85,22.408 22.543,20.056 23.77,23.91 20.043,22.294 22.049,25.81 
	18.066,25 20.764,28.025 16.699,28.056 19.969,30.457 16,31.328 19.699,33 16,34.672 19.969,35.543 16.699,37.943 20.764,37.977 
	18.066,41 24.297,39.732 22.764,37.092 22.109,35.092 21.889,33.002 22.109,30.912 22.762,28.912 23.818,27.091 25.232,25.529 
	26.943,24.292 28.873,23.437 30.943,23 33.051,23 35.115,23.433 37.049,24.289 38.758,25.521 40.174,27.082 41.234,28.904 
	41.889,30.902 42.111,32.992 41.893,35.084 41.24,37.084 39.705,39.732 45.934,40.998 43.236,37.975 47.301,37.943 44.031,35.543 
	48,34.672 "/>
<circle fill="#FFE12C" cx="32" cy="33" r="12"/>
<path fill="#F59E01" d="M32,43c-5.514,0-10-4.486-10-10c0-5.514,4.486-10,10-10s10,4.486,10,10C42,38.514,37.514,43,32,43z M32,25
	c-4.412,0-8,3.588-8,8c0,4.411,3.588,8,8,8c4.41,0,8-3.59,8-8C40,28.587,36.41,25,32,25z"/>
<path fill="#FFE12C" d="M43.1,9.287c-1.537,1.051-1.393,1.438-7.273,1.438c-2.117,0-3.242,0.344-3.826,0.783
	c-0.586-0.439-1.711-0.783-3.826-0.783c-5.881,0-5.736-0.387-7.273-1.438c-2.041-1.398-0.682,2.758,4.797,2.758
	c2.303,0,4.141,0.43,5.299,0.799C27.607,13.005,25,13.908,25,13.908S28.133,15,32,15c3.865,0,7-1.092,7-1.092
	s-2.607-0.902-5.996-1.064c1.156-0.369,2.996-0.799,5.299-0.799C43.781,12.044,45.141,7.888,43.1,9.287z"/>
<path fill="#014D87" d="M31.303,48.994c-6.848,0-6.848,1.99-13.693,1.99c-5.404,0-6.557-1.234-10.162-1.756
	c1.316,1.875,2.842,3.594,4.543,5.119c1.387,0.361,3.004,0.656,5.639,0.656c6.852,0,6.852-1.988,13.701-1.988
	s6.85,1.988,13.697,1.988c3.895,0,5.578-0.641,7.563-1.195c1.516-1.434,2.885-3.02,4.076-4.74C51.783,49.42,51.088,50.984,45,50.984
	C38.15,50.984,38.15,48.994,31.303,48.994z"/>
<path fill="#014D87" d="M31.303,56.994c-6.406,0-6.848,1.734-12.482,1.959C22.799,60.902,27.271,62,32,62
	c4.705,0,9.158-1.086,13.121-3.018c-0.041,0.002-0.078,0.002-0.121,0.002C38.15,58.984,38.15,56.994,31.303,56.994z"/>
<path fill="#014D87" d="M58.703,40.994c-6.852,0-6.852,1.99-13.703,1.99c-6.85,0-6.85-1.99-13.697-1.99s-6.848,1.99-13.693,1.99
	c-6.85,0-6.85-1.99-13.699-1.99c-0.186,0-0.361,0.004-0.535,0.008c0.438,1.393,0.975,2.742,1.602,4.041
	c5.795,0.195,6.182,1.961,12.652,1.961c6.852,0,6.852-1.988,13.701-1.988s6.85,1.988,13.697,1.988s6.848-1.988,13.693-1.988
	c0.111,0,0.207,0.006,0.313,0.006c0.615-1.273,1.139-2.598,1.57-3.963C60.033,41.02,59.41,40.994,58.703,40.994z"/>
<path fill="#F5F5F5" d="M17.609,42.984c6.846,0,6.846-1.99,13.693-1.99s6.848,1.99,13.697,1.99c6.852,0,6.852-1.99,13.703-1.99
	c0.707,0,1.33,0.025,1.9,0.064c0.402-1.266,0.715-2.568,0.945-3.9c-0.803-0.088-1.723-0.143-2.828-0.143
	c-6.846,0-6.846,1.988-13.693,1.988s-6.848-1.988-13.697-1.988s-6.85,1.988-13.701,1.988c-6.85,0-6.85-1.988-13.699-1.988
	c-0.545,0-1.033,0.018-1.498,0.039c0.229,1.348,0.541,2.666,0.943,3.947c0.174-0.004,0.35-0.008,0.535-0.008
	C10.76,40.994,10.76,42.984,17.609,42.984z"/>
<path fill="#F5F5F5" d="M45.027,47.004c-6.848,0-6.848-1.988-13.697-1.988s-6.85,1.988-13.701,1.988
	c-6.471,0-6.857-1.766-12.652-1.961c0.709,1.467,1.541,2.863,2.471,4.186c3.605,0.521,4.758,1.756,10.162,1.756
	c6.846,0,6.846-1.99,13.693-1.99s6.848,1.99,13.697,1.99c6.088,0,6.783-1.564,11.666-1.916c0.889-1.281,1.684-2.631,2.367-4.047
	c-0.105,0-0.201-0.006-0.313-0.006C51.875,45.016,51.875,47.004,45.027,47.004z"/>
<path fill="#F5F5F5" d="M31.33,53.016c-6.85,0-6.85,1.988-13.701,1.988c-2.635,0-4.252-0.295-5.639-0.656
	c2.045,1.832,4.34,3.387,6.83,4.605c5.635-0.225,6.076-1.959,12.482-1.959c6.848,0,6.848,1.99,13.697,1.99
	c0.043,0,0.08,0,0.121-0.002c2.754-1.34,5.266-3.094,7.469-5.174c-1.984,0.555-3.668,1.195-7.563,1.195
	C38.18,55.004,38.18,53.016,31.33,53.016z"/>
<path opacity="0.1" fill="#1A1626" d="M50.736,8.591c4.096,5.129,6.563,11.621,6.563,18.701c0,16.569-13.428,30.002-29.994,30.002
	c-7.102,0-13.609-2.477-18.744-6.594C14.055,57.58,22.502,62,32.002,62c16.566,0,29.996-13.432,29.996-30
	C61.998,22.527,57.594,14.089,50.736,8.591z"/>
<path opacity="0.3" fill-rule="evenodd" clip-rule="evenodd" fill="#FFFFFF" d="M9.734,19.015c0.549,3.865,7.766-3.701,15.08-10.203
	C29.531,4.63,8.082,7.384,9.734,19.015z"/>
</svg>
