<?xml version="1.0" encoding="utf-8"?>
<!-- Generator: Adobe Illustrator 15.0.0, SVG Export Plug-In . SVG Version: 6.00 Build 0)  -->
<!DOCTYPE svg PUBLIC "-//W3C//DTD SVG 1.1//EN" "http://www.w3.org/Graphics/SVG/1.1/DTD/svg11.dtd">
<svg version="1.1" id="Layer_1" xmlns="http://www.w3.org/2000/svg" xmlns:xlink="http://www.w3.org/1999/xlink" x="0px" y="0px"
	 width="64px" height="64px" viewBox="0 0 64 64" enable-background="new 0 0 64 64" xml:space="preserve">
<path fill="#E81C27" d="M32,2c-7.643,0-14.613,2.861-19.91,7.566l0,0v44.865C17.389,59.137,24.357,62,32,62
	c16.568,0,30-13.432,30-30C62,15.432,48.568,2,32,2z"/>
<path fill="#FFE12C" d="M12.09,9.567c-1.33,1.182-2.547,2.486-3.648,3.883v37.099c1.102,1.398,2.318,2.701,3.648,3.883L42,32
	L12.09,9.567z"/>
<path fill="#302C3B" d="M8.441,13.44C4.412,18.547,2,24.991,2,32c0,7.009,2.412,13.453,6.441,18.56L27,32L8.441,13.44z"/>
<polygon fill="#F5F5F5" points="10.338,33.898 12.717,39 13.666,33.664 19,33.277 14.248,30.34 15.166,25 11.279,28.514 
	6.516,25.604 8.865,30.713 5,34.258 "/>
<path opacity="0.1" fill="#1A1626" d="M50.738,8.59c4.096,5.131,6.563,11.623,6.563,18.701c0,16.568-13.43,30.003-29.996,30.003
	c-7.1,0-13.609-2.479-18.744-6.594C14.055,57.58,22.504,62,32.004,62c16.566,0,29.994-13.432,29.994-30
	C61.998,22.528,57.596,14.09,50.738,8.59z"/>
<path opacity="0.3" fill-rule="evenodd" clip-rule="evenodd" fill="#FFFFFF" d="M9.734,19.014c0.549,3.865,7.768-3.699,15.08-10.201
	C29.531,4.629,8.084,7.385,9.734,19.014z"/>
</svg>
