<?xml version="1.0" encoding="utf-8"?>
<!-- Generator: Adobe Illustrator 15.0.0, SVG Export Plug-In . SVG Version: 6.00 Build 0)  -->
<!DOCTYPE svg PUBLIC "-//W3C//DTD SVG 1.1//EN" "http://www.w3.org/Graphics/SVG/1.1/DTD/svg11.dtd">
<svg version="1.1" id="Layer_1" xmlns="http://www.w3.org/2000/svg" xmlns:xlink="http://www.w3.org/1999/xlink" x="0px" y="0px"
	 width="64px" height="64px" viewBox="0 0 64 64" enable-background="new 0 0 64 64" xml:space="preserve">
<path fill="#F5F5F5" d="M25.788,9.308h-0.004h-0.016L18.89,9.314l-3.51,0.004l-0.002-2.193V7.027
	c-0.785,0.523-1.543,1.084-2.273,1.678c-1.717,1.393-3.271,2.973-4.643,4.707l2.764-0.002l0.002,2.129l0.008,6.041H3.862
	c-1.203,3.246-1.863,6.756-1.863,10.422c0,3.512,0.609,6.881,1.719,10.012h22.045V21.58H15.392l-0.006-5.975l-0.002-2.199
	l3.525-0.004l6.859-0.006h0.016h0.008L25.788,9.308z"/>
<path fill="#0091C8" d="M31.999,2c-2.131,0-4.209,0.227-6.215,0.648v58.706c2.006,0.422,4.084,0.648,6.215,0.648
	c16.57,0,30.002-13.432,30.002-30C62.001,15.431,48.569,2,31.999,2z"/>
<path fill="#FFE12C" d="M61.468,32.351c0.033-0.158,0.258-0.676,0.512-1.205c-0.01-0.311-0.018-0.619-0.035-0.928
	c-0.205,0.363-0.391,0.717-0.439,0.873c-0.229,0.648-0.357,0.203-0.434-1.551c-0.063-1.375,0.01-2.76,0.199-4.107
	c-0.742-3.322-2.031-6.436-3.773-9.24c-0.412,0.135-0.727,0.23-0.736,0.209c-0.018-0.008,0.164-0.273,0.445-0.664
	c-0.086-0.129-0.166-0.262-0.252-0.391c-0.598,0.752-1.203,1.469-1.314,1.512c-0.152,0.063-0.902,0.33-1.652,0.611l-1.387,0.494
	l1.055-0.99c0.586-0.535,1.693-1.564,2.455-2.289l0.23-0.213c-0.082-0.113-0.162-0.232-0.246-0.346l-1.459,1.371
	c-1.629,1.527-3.154,2.875-3.385,3.016c-0.229,0.139-0.457,0.342-0.52,0.457c-0.141,0.254,0.023,0.713,0.291,0.814
	c0.166,0.063,0.063,0.279-0.51,1.068c-0.826,1.145-1.461,2.365-1.957,3.727l-0.357,0.953l-0.203-0.699
	c-0.332-1.119-0.584-2.748-0.584-3.816c0-0.979,0-0.979,0.66-1.92c0.801-1.145,2.684-3.104,3.729-3.891
	c0.42-0.318,1.131-0.752,1.59-0.967c1.016-0.471,1.271-0.688,1.271-1.043c0-0.42-0.305-0.623-0.789-0.521
	c-0.279,0.051-1.412-0.127-3.346-0.521c-1.604-0.318-2.939-0.598-2.951-0.598c0-0.014,0.127-0.561,0.305-1.221
	c0.205-0.775,0.42-1.322,0.623-1.539c0.383-0.408,0.395-0.877,0.014-1.234c-0.637-0.598-1.59-0.076-1.449,0.789l0.063,0.432
	l-0.84,0.09c-0.457,0.051-1.551,0.279-2.416,0.521c-1.756,0.482-3.129,0.559-4.033,0.242c-0.281-0.102-0.523-0.191-0.535-0.191
	c-0.025,0-0.037,0.139-0.037,0.318c0,0.547,0.342,1.029,0.902,1.309l0.535,0.268l-0.357,0.09c-0.191,0.051-0.764,0.051-1.285,0.012
	c-0.521-0.037-0.941-0.037-0.941,0c0,0.268,0.623,0.98,1.031,1.184c0.891,0.457,2.748,0.293,4.809-0.434
	c1.031-0.355,2.367-0.457,2.277-0.178c-0.051,0.152-1.844,1.502-4.922,3.701c-1.555,1.107-1.795,1.412-1.555,1.945
	c0.129,0.293,0.09,0.408-0.291,1.043c-0.828,1.4-1.604,3.803-1.604,5.023c0,0.611-0.039,0.662-0.879,1.553
	c-1.717,1.807-5.074,6.016-5.801,7.273l-0.229,0.396l-0.24-0.307c-0.484-0.609-1.502-0.268-1.502,0.51c0,0.533,0.33,0.84,0.928,0.84
	c0.332,0,0.994,0.252,2.139,0.838l1.666,0.828L33.632,36c-0.611,0.662-0.738,1.184-0.42,1.629c0.152,0.203,0.344,0.242,1.057,0.242
	c0.764,0,1.018,0.063,1.895,0.494c0.865,0.434,1.197,0.701,2.469,2.023c3.752,3.92,4.807,4.875,6.939,6.215
	c0.607,0.275,1.102,0.455,1.334,0.516c0.199-0.111,0.605-0.418,0.979-0.832c1.746-2.014,3.121-1.506,6.32,0.348
	c1.57,0.93,2.166,1.107,2.387,1.125l0.045-0.17c0.402-1.783,0.957-2.426,2.395-2.559c0.83-1.721,1.5-3.535,1.994-5.42
	c-0.758,0.033-1.676,0.045-2.254,0.014l-1.297-0.076l0.076-0.395c0.113-0.609,0.508-1.322,1.082-1.934
	c0.277-0.305,0.533-0.559,0.559-0.559c0.037,0,0.445,0.23,0.916,0.521c0.41,0.252,0.859,0.551,1.287,0.848
	c0.23-1.127,0.389-2.279,0.488-3.449C61.597,33.543,61.409,32.597,61.468,32.351z M46.837,14.291
	c0.279-1.17,0.611-2.303,0.674-2.303c0.053,0,1.082,0.203,2.316,0.459c2.672,0.547,2.723,0.559,2.227,0.699
	c-0.205,0.063-1.488,0.42-2.838,0.801l-2.467,0.688L46.837,14.291z M36.112,35.199l-0.406-0.037
	c-0.535-0.064-4.326-1.807-4.326-1.998c0-0.483,3.625-5.151,5.662-7.301l0.762-0.801l0.039,0.42
	c0.025,0.242,0.127,0.789,0.215,1.221l0.18,0.775l-1.057,3.867L36.112,35.199z M40.069,37.17c-0.115,0-0.789-0.342-1.502-0.762
	c-0.699-0.42-1.449-0.814-1.666-0.891l-0.381-0.139l0.953-3.487c0.521-1.92,0.992-3.498,1.031-3.498
	c0.051,0,0.203,0.305,0.355,0.676c0.229,0.533,0.279,0.914,0.279,1.971v1.297h0.42h0.408l0.023,1.12
	c0.014,0.609,0.141,1.564,0.281,2.111C40.526,36.65,40.478,37.17,40.069,37.17z M41.71,27.886l-0.355,1.209l-0.865,0.037
	c-0.484,0.025-0.93-0.012-1.006-0.088c-0.178-0.18,0.014-1.096,0.33-1.566c0.332-0.496,1.248-0.992,1.834-0.992
	c0.229,0,0.42,0.039,0.42,0.09C42.067,26.638,41.901,27.224,41.71,27.886z M44.089,29.158h-1.158l0.078-0.355
	c0.051-0.191,0.178-0.65,0.279-1.018l0.191-0.662l0.445,0.344c0.254,0.189,0.648,0.598,0.891,0.902
	c0.242,0.318,0.432,0.623,0.432,0.676C45.247,29.107,44.726,29.158,44.089,29.158z M44.382,15.283
	c-0.533,0.139-1.373,0.381-1.857,0.521c-0.482,0.127-0.84,0.215-0.814,0.178c0.104-0.09,4.225-3.104,4.262-3.104l-0.025,0.152
	c-0.025,0.09-0.166,0.572-0.318,1.068l-0.254,0.916L44.382,15.283z M49.241,37.068c-1.057-0.75-2.162-2.225-2.773-3.688
	c-0.381-0.905-0.406-1.043-0.139-1.043c0.164,0,0.189-0.268,0.189-1.59v-1.59h-0.381c-0.33,0-0.395-0.063-0.535-0.547
	c-0.102-0.318-0.164-1.223-0.164-2.252c0-1.881,0.178-2.67,0.99-4.488c0.434-0.967,0.574-0.93,0.586,0.139
	c0.014,0.738,0.33,2.201,0.713,3.332c0.254,0.752,0.293,1.018,0.191,1.451c-0.064,0.279-0.178,1.145-0.256,1.895
	c-0.24,2.43,0.154,4.745,1.197,6.893c0.318,0.625,0.598,1.285,0.648,1.451l0.088,0.305L49.241,37.068z M52.474,34.525
	c-0.039,0.09-0.307,0.902-0.611,1.818c-0.293,0.904-0.586,1.705-0.637,1.756c-0.051,0.064-0.318,0-0.598-0.141
	c-0.42-0.215-0.521-0.344-0.66-0.902c-0.152-0.623-0.152-0.674,0.164-1.221c0.408-0.688,1.006-1.158,1.68-1.324
	C52.499,34.348,52.536,34.348,52.474,34.525z M56.022,39.41c-0.369-0.039-1.246-0.205-1.947-0.344l-1.297-0.268l0.305-0.979
	c0.166-0.535,0.459-1.463,0.65-2.088c0.33-1.105,0.381-1.17,0.891-1.029c0.227,0.064,0.316,0.256,0.496,1.121
	c0.15,0.66,0.469,1.5,0.902,2.352l0.66,1.311L56.022,39.41z M58.171,37.068c-0.33,0.369-0.686,0.93-0.799,1.248
	c-0.117,0.316-0.242,0.621-0.293,0.674c-0.23,0.254-1.654-3.053-1.654-3.828c0-0.268,0.471-0.115,2.01,0.609l1.322,0.637
	L58.171,37.068z"/>
<path fill="#302C3B" d="M56.636,47.59l-0.045,0.17c-0.221-0.018-0.816-0.195-2.387-1.125c-3.199-1.854-4.574-2.361-6.32-0.348
	c-0.373,0.414-0.779,0.721-0.979,0.832c-0.232-0.061-0.727-0.24-1.334-0.516c-0.23-0.104-0.475-0.219-0.73-0.35
	c-1.92-0.994-3.314-1.297-4.387-0.953c-0.658,0.209-1.162,0.648-1.492,1.287c-0.234,0.432-0.428,0.67-0.576,0.709
	c-0.525,0.139-2.182-0.908-2.807-1.301c-2.275-1.438-3.734-1.467-5.783-0.121c-0.447,0.297-0.801,0.525-0.969,0.549
	c-0.143,0.02-0.467-0.088-0.934-0.25c-0.529-0.191-0.873-0.396-0.996-0.494c-0.188-0.357-0.602-0.553-1.01-0.451l-0.119,0.057
	l-0.006,0.004v0.996v0.76l0.006,0.004c0.348,0.293,0.846,0.566,1.525,0.813c1.6,0.557,1.992,0.502,3.488-0.49
	c1.352-0.891,2.059-0.986,3.842,0.139c1.949,1.229,3.135,1.801,4.215,1.52c0.863-0.227,1.361-0.967,1.707-1.604
	c0.15-0.293,0.32-0.379,0.453-0.42c0.324-0.102,1.145-0.133,3.021,0.84c0.217,0.109,2.137,1.082,2.947,1.082
	c0.494,0,1.053-0.361,1.496-0.73c0.367-0.305,0.658-0.613,0.762-0.727c0.789-0.91,0.953-1.1,4.074,0.709
	c1.295,0.768,2.26,1.234,3.053,1.332c0.303-0.42,0.594-0.848,0.873-1.281l0.164-0.256c0.404-0.641,0.785-1.295,1.141-1.967
	l0.086-0.168c0.139-0.268,0.281-0.535,0.414-0.809C57.593,45.164,57.038,45.807,56.636,47.59z"/>
<polygon fill="#302C3B" points="25.542,33.957 25.763,34.186 25.769,34.191 25.769,33.723 25.763,33.727 "/>
<polygon fill="#302C3B" points="23.095,33.957 24.396,34.303 24.726,33.957 24.396,33.611 "/>
<polygon fill="#302C3B" points="24.788,33.283 25.134,33.615 25.481,33.283 25.134,31.984 "/>
<polygon fill="#302C3B" points="25.769,37.203 25.769,35.48 25.763,35.469 25.233,34.275 24.995,34.275 23.737,37.203 
	24.538,37.203 24.995,37.877 25.233,37.877 25.665,37.203 25.763,37.203 "/>
<polygon fill="#302C3B" points="17.454,33.957 17.786,34.303 19.085,33.957 17.786,33.611 "/>
<polygon fill="#302C3B" points="15.007,33.957 16.308,34.303 16.638,33.957 16.308,33.611 "/>
<polygon fill="#302C3B" points="16.7,33.283 17.046,33.615 17.394,33.283 17.046,31.984 "/>
<polygon fill="#302C3B" points="16.907,34.275 15.649,37.203 16.45,37.203 16.907,37.877 17.146,37.877 17.577,37.203 
	18.444,37.203 17.146,34.275 "/>
<polygon fill="#302C3B" points="9.362,33.957 9.692,34.303 10.993,33.957 9.692,33.611 "/>
<polygon fill="#302C3B" points="8.546,33.957 8.214,33.611 6.915,33.957 8.214,34.303 "/>
<polygon fill="#302C3B" points="8.606,33.283 8.954,33.615 9.3,33.283 8.954,31.984 "/>
<polygon fill="#302C3B" points="8.815,34.275 7.556,37.203 8.356,37.203 8.815,37.877 9.054,37.877 9.483,37.203 10.353,37.203 
	9.054,34.275 "/>
<polygon fill="#302C3B" points="24.995,23.689 25.233,23.689 25.665,23.013 25.763,23.013 25.769,23.013 25.769,21.58 25.763,21.58 
	24.353,21.58 23.737,23.013 24.538,23.013 "/>
<polygon fill="#302C3B" points="16.907,23.689 17.146,23.689 17.577,23.013 18.444,23.013 17.808,21.58 16.265,21.58 15.649,23.013 
	16.45,23.013 "/>
<polygon fill="#302C3B" points="8.815,23.689 9.054,23.689 9.483,23.013 10.353,23.013 9.716,21.58 8.173,21.58 7.556,23.013 
	8.356,23.013 "/>
<polygon fill="#302C3B" points="6.946,26.984 5.647,26.636 5.315,26.984 5.647,27.33 "/>
<polygon fill="#302C3B" points="4.499,26.984 4.169,26.636 2.868,26.984 4.169,27.33 "/>
<polygon fill="#302C3B" points="5.253,26.312 4.907,25.011 4.562,26.312 4.907,26.642 "/>
<polygon fill="#302C3B" points="4.769,27.302 3.509,30.23 4.31,30.23 4.769,30.906 5.007,30.906 5.437,30.23 6.306,30.23 
	5.007,27.302 "/>
<polygon fill="#302C3B" points="15.04,26.984 13.739,26.636 13.407,26.984 13.739,27.33 "/>
<polygon fill="#302C3B" points="12.591,26.984 12.261,26.636 10.96,26.984 12.261,27.33 "/>
<polygon fill="#302C3B" points="13.347,26.312 13.001,25.011 12.653,26.312 13.001,26.642 "/>
<polygon fill="#302C3B" points="12.862,27.302 11.603,30.23 12.403,30.23 12.862,30.906 13.101,30.906 13.53,30.23 14.397,30.23 
	13.101,27.302 "/>
<polygon fill="#302C3B" points="23.132,26.984 21.833,26.636 21.501,26.984 21.833,27.33 "/>
<polygon fill="#302C3B" points="20.685,26.984 20.354,26.636 19.054,26.984 20.354,27.33 "/>
<polygon fill="#302C3B" points="21.44,26.312 21.093,25.011 20.747,26.312 21.093,26.642 "/>
<polygon fill="#302C3B" points="20.954,27.302 19.696,30.23 20.497,30.23 20.954,30.906 21.192,30.906 21.624,30.23 22.491,30.23 
	21.192,27.302 "/>
<polygon fill="#302C3B" points="13.407,41.488 13.739,41.834 15.04,41.488 13.739,41.143 "/>
<polygon fill="#302C3B" points="10.96,41.488 12.261,41.834 12.591,41.488 12.261,41.143 "/>
<polygon fill="#302C3B" points="12.653,40.816 13.001,41.146 13.347,40.816 13.001,39.516 "/>
<polygon fill="#302C3B" points="21.501,41.488 21.833,41.834 23.132,41.488 21.833,41.143 "/>
<polygon fill="#302C3B" points="19.054,41.488 20.354,41.834 20.685,41.488 20.354,41.143 "/>
<polygon fill="#302C3B" points="20.747,40.816 21.093,41.146 21.44,40.816 21.093,39.516 "/>
<polygon fill="#E81C27" points="22.724,21.566 15.386,15.605 15.392,21.58 16.265,21.58 17.808,21.58 24.353,21.58 25.763,21.58 
	25.769,21.58 24.356,21.574 "/>
<polygon fill="#E81C27" points="18.89,9.314 25.769,9.308 25.784,9.308 25.784,3.714 25.769,3.726 "/>
<polygon fill="#E81C27" points="18.909,13.402 25.769,18.955 25.776,18.962 25.784,20.427 25.784,13.396 25.769,13.396 "/>
<polygon fill="#E81C27" points="3.896,21.496 3.862,21.58 8.173,21.58 9.716,21.58 11.235,21.58 11.228,15.539 "/>
<polygon fill="#E81C27" points="25.78,2.65 25.784,3.109 25.784,2.65 "/>
<polygon fill="#529320" points="25.784,20.427 25.776,18.962 25.769,18.955 18.909,13.402 15.384,13.406 15.386,15.605 
	22.724,21.566 24.356,21.574 25.769,21.58 25.784,21.58 25.788,21.58 25.788,21.335 "/>
<path fill="#529320" d="M25.784,3.109L25.78,2.65l-0.012,0.002c-3.543,0.75-6.852,2.125-9.811,4.004
	c-0.195,0.123-0.391,0.244-0.58,0.371v0.098l0.002,2.193l3.51-0.004l6.879-5.588l0.016-0.012l0.004-0.006L25.784,3.109z"/>
<path fill="#529320" d="M8.462,13.412c-1.914,2.422-3.467,5.141-4.566,8.084l7.332-5.957l-0.002-2.129L8.462,13.412z"/>
<path fill="#F5F5F5" d="M53.3,48.18c-3.121-1.809-3.285-1.619-4.074-0.709c-0.104,0.113-0.395,0.422-0.762,0.727
	c-0.443,0.369-1.002,0.73-1.496,0.73c-0.811,0-2.73-0.973-2.947-1.082c-1.877-0.973-2.697-0.941-3.021-0.84
	c-0.133,0.041-0.303,0.127-0.453,0.42c-0.346,0.637-0.844,1.377-1.707,1.604c-1.08,0.281-2.266-0.291-4.215-1.52
	c-1.783-1.125-2.49-1.029-3.842-0.139c-1.496,0.992-1.889,1.047-3.488,0.49c-0.68-0.246-1.178-0.52-1.525-0.813l-0.006-0.004v0.547
	l0.006,0.004c0.322,0.396,0.918,0.76,1.801,1.078c1.602,0.559,1.992,0.504,3.488-0.49c1.352-0.889,2.059-0.986,3.844,0.141
	c1.947,1.229,3.135,1.801,4.213,1.52c0.865-0.227,1.363-0.967,1.707-1.604c0.15-0.293,0.322-0.379,0.453-0.422
	c0.324-0.104,1.145-0.131,3.023,0.84c0.215,0.111,2.135,1.084,2.945,1.084c0.707,0,1.547-0.734,1.988-1.176
	c0.123-0.121,0.221-0.227,0.27-0.281c0.789-0.91,0.953-1.1,4.074,0.709c0.92,0.543,1.666,0.928,2.313,1.152
	c0.158-0.209,0.313-0.422,0.465-0.635C55.56,49.414,54.595,48.947,53.3,48.18z"/>
<path fill="#F5F5F5" d="M32.669,51.691c0.848-0.111,1.412,0.029,2.541,0.668c2.164,1.25,3.074,1.334,4.518,0.443
	c1.725-1.027,2.416-1.223,3.764-0.943c1.035,0.193,1.129,0.193,0.723-0.168c-0.879-0.805-2.604-0.805-4.143,0
	c-1.756,0.891-2.604,0.918-4.578,0.029c-1.789-0.807-2.447-0.863-3.326-0.279C31.603,51.803,31.665,51.83,32.669,51.691z"/>
<path fill="#F5F5F5" d="M49.892,52.498c-1.443-0.334-1.57-0.111-0.314,0.557c1.027,0.537,1.955,0.596,3.641,0.156
	c0.424-0.424,0.83-0.865,1.229-1.314C52.396,52.566,50.978,52.762,49.892,52.498z"/>
<path fill="#F5F5F5" d="M47.444,55.889c-1.475,1.195-2.416,1.225-3.953,0.141c-1.412-1-2.352-1.029-4.234-0.141
	c-1.066,0.502-1.287,0.695-0.879,0.834c0.283,0.111,0.941-0.027,1.475-0.25c1.381-0.639,2.07-0.557,3.828,0.527
	c0.877,0.529,1.725,0.975,1.85,0.975s0.814-0.389,1.537-0.834c1.416-0.914,2.105-1.256,2.984-1.18
	c0.256-0.193,0.508-0.393,0.758-0.596C49.183,54.74,48.735,54.844,47.444,55.889z"/>
<path fill="#F5F5F5" d="M41.61,59.252c-1.193-0.916-2.416-0.916-4.236,0c-1.662,0.834-2.227,0.75-4.297-0.723
	c-1.725-1.193-1.787-1.223-2.76-0.807c-0.377,0.168-0.848,0.529-1.035,0.834c-0.377,0.5-0.346,0.529,0.219,0.279
	c0.783-0.389,2.133-0.389,2.385,0c0.125,0.166,0.783,0.666,1.475,1.111c1.631,1.029,2.979,1.057,4.641,0.084
	c1.256-0.723,2.104-0.779,3.922-0.25C42.362,59.918,42.3,59.752,41.61,59.252z"/>
<path fill="#E81C27" d="M20.589,59.467c-0.289-0.102-0.166-0.387,0.033-0.447c0.299-0.094,0.621,0.193,1.377,0.154
	c0.186-0.01,0.439-0.041,0.439-0.42c0-0.549-0.426-0.945-1.779-0.727c-1.141,0.178-1.951,0.162-2.58,0.064
	c-0.02,0.197-0.016,0.355,0.012,0.49c0.758,0.396,1.531,0.766,2.324,1.098C20.417,59.604,20.464,59.523,20.589,59.467z"/>
<path fill="#E81C27" d="M3.718,42.014c0.652,1.842,1.479,3.6,2.461,5.256c0.506,0.482,3.203,3.521,2.547,3.656
	c1.658,2.037,3.58,3.848,5.711,5.391c0.232-0.043,7.293,3.604,7.053,3.787c1.379,0.518,2.807,0.934,4.273,1.244V47.592v-0.547v-0.76
	v-0.996v-3.275H3.718z"/>
<path fill="#FFE12C" d="M23.499,48.555c-0.092-0.229-0.156-0.316-0.488-0.215c-0.809,0.25-3.025,0.107-3.73-0.32
	c1.059,0.385,2.412-0.43,2.412-1.105c0-0.75-1.049-1.365-3.17-0.957c-2.125,0.406-4.711,0.234-4.711-0.385
	c0-0.623,1.855-0.709,2.807-0.578c0.951,0.127,1.633,0.215,3.416-0.344c-0.439,0.148-1.855,0.191-2.977-0.088
	c-1.121-0.277-3.881-0.277-3.904,1.031c-0.025,1.307,2.936,1.188,5.49,0.855c1.488-0.191,2.268-0.063,2.268,0.367
	c0,0.408-1.363,0.58-2.414,0.471c-1.051-0.105-2.135-0.119-3.367,0.238c-2.223,0.646-4.779,0.17-5.449-0.768
	c0.047-0.096,0.08-0.215,0.08-0.404V46.34c0.158-0.145,0.309-0.418,0.375-0.619c0.148-0.467-0.057-0.48-0.664-0.266
	c-0.215-0.184-0.564-0.295-1.158-0.295s-0.947,0.111-1.156,0.295c-0.615-0.215-0.82-0.201-0.67,0.266
	c0.064,0.203,0.221,0.486,0.379,0.621v0.012c0.004,0.723,0.896,1.785,0.879,1.826c-0.498-0.041-1.061-0.428-1.566-0.91
	c0.455,0.77,0.945,1.514,1.465,2.236c0.113,0.158,0.225,0.32,0.342,0.477c0.238,0.32,0.488,0.633,0.74,0.943
	c0.656-0.135,1.326-0.41,1.961-0.912c0.389,0.01,3.105-0.076,4.16-0.646c0.701,0.707,0.814,0.627,1.428,0.732
	c0.637,0.107,1.023,0.107,0.602,0.42c-0.146,0.109-0.758,0.057-1.234,0.074c-1.063,0.039-1.551-0.648-1.863-0.291
	c-0.238,0.271-0.033,0.402,0.41,0.41c-0.342,0-0.717,0.018-0.643,0.283c0.141,0.506,0.688-0.094,0.898,0.109
	c-0.18-0.035-0.467,0.064-0.477,0.215c-0.01,0.154,0.406,0.352,0.865,0.029c0.25-0.178,0.559-0.244,0.76-0.244
	c0.748,0.006,2.436,0.342,2.988-0.199c0.217-0.211-0.059-0.387-0.281-0.578c-0.209-0.189-0.262-0.447-0.221-0.871
	c0.629,0.098,1.439,0.115,2.58-0.064c1.354-0.217,1.779,0.18,1.779,0.727c0,0.379-0.254,0.412-0.439,0.422
	c-0.756,0.039-1.078-0.25-1.377-0.156c-0.199,0.061-0.322,0.348-0.033,0.447c-0.236,0.107-0.207,0.305-0.086,0.379
	c0.123,0.076,0.436,0.008,0.65-0.078c-0.275,0.109-0.557,0.303-0.398,0.51c0.1,0.125,0.35,0.229,0.582-0.037s0.666-0.434,0.93-0.455
	C23.399,51.055,23.907,49.553,23.499,48.555z"/>
<path fill="#FFE12C" d="M23.499,57.188c-0.092-0.229-0.156-0.316-0.488-0.215c-0.809,0.25-3.025,0.107-3.73-0.32
	c1.059,0.385,2.412-0.43,2.412-1.104c0-0.752-1.049-1.365-3.17-0.959c-2.125,0.408-4.711,0.236-4.711-0.385s1.855-0.709,2.807-0.576
	c0.951,0.127,1.633,0.215,3.416-0.348c-0.439,0.15-1.855,0.195-2.977-0.084c-1.121-0.277-3.881-0.277-3.904,1.029
	c-0.025,1.307,2.936,1.189,5.49,0.857c1.488-0.193,2.268-0.063,2.268,0.367c0,0.406-1.363,0.578-2.414,0.471
	c-1.051-0.105-2.135-0.121-3.367,0.238c-0.227,0.066-0.461,0.113-0.693,0.156c1.16,0.838,2.379,1.596,3.654,2.266
	c-0.027-0.135-0.031-0.293-0.012-0.49c0.629,0.098,1.439,0.113,2.58-0.064c1.354-0.219,1.779,0.178,1.779,0.727
	c0,0.379-0.254,0.41-0.439,0.42c-0.756,0.039-1.078-0.248-1.377-0.154c-0.199,0.061-0.322,0.346-0.033,0.447
	c-0.125,0.057-0.172,0.137-0.174,0.213c0.145,0.061,0.293,0.115,0.438,0.174l0.074,0.029c0.188,0.074,0.375,0.15,0.563,0.221
	c0.24-0.184,0.563-0.301,0.777-0.318C23.399,59.688,23.907,58.188,23.499,57.188z"/>
<path opacity="0.1" fill="#1A1626" d="M50.735,8.591c4.098,5.129,6.563,11.621,6.563,18.701c0,16.569-13.428,30.002-29.994,30.002
	c-7.1,0-13.609-2.477-18.744-6.594C14.054,57.58,22.501,62,32.003,62c16.564,0,29.994-13.432,29.994-30
	C61.997,22.527,57.595,14.089,50.735,8.591z"/>
<path opacity="0.3" fill-rule="evenodd" clip-rule="evenodd" fill="#FFFFFF" d="M9.733,19.015c0.549,3.865,7.768-3.701,15.08-10.203
	C29.53,4.63,8.083,7.384,9.733,19.015z"/>
</svg>
