<?xml version="1.0" encoding="utf-8"?>
<!-- Generator: Adobe Illustrator 15.0.0, SVG Export Plug-In . SVG Version: 6.00 Build 0)  -->
<!DOCTYPE svg PUBLIC "-//W3C//DTD SVG 1.1//EN" "http://www.w3.org/Graphics/SVG/1.1/DTD/svg11.dtd">
<svg version="1.1" id="Layer_1" xmlns="http://www.w3.org/2000/svg" xmlns:xlink="http://www.w3.org/1999/xlink" x="0px" y="0px"
	 width="64px" height="64px" viewBox="0 0 64 64" enable-background="new 0 0 64 64" xml:space="preserve">
<path fill="#E81C27" d="M56,14H32v6h27.496C58.561,17.859,57.387,15.846,56,14z"/>
<path fill="#F5F5F5" d="M61.398,38C61.793,36.063,62,34.055,62,32H2c0,2.055,0.207,4.063,0.602,6H61.398z"/>
<path fill="#E81C27" d="M32,2v6h18C44.986,4.234,38.754,2,32,2z"/>
<path fill="#F5F5F5" d="M32,14h24c-1.707-2.271-3.729-4.293-6-6H32V14z"/>
<path fill="#F5F5F5" d="M59.496,20H32v6h29.398C60.975,23.912,60.33,21.906,59.496,20z"/>
<path fill="#E81C27" d="M32,26v6h30c0-2.055-0.207-4.061-0.602-6H32z"/>
<path fill="#E81C27" d="M4.504,44h54.992c0.834-1.904,1.479-3.912,1.902-6H2.602C3.026,40.088,3.67,42.096,4.504,44z"/>
<path fill="#F5F5F5" d="M8,50h48c1.387-1.846,2.561-3.857,3.496-6H4.504C5.44,46.143,6.614,48.154,8,50z"/>
<path fill="#E81C27" d="M8,50c1.705,2.273,3.729,4.295,6,6h36c2.271-1.705,4.293-3.727,6-6H8z"/>
<path fill="#F5F5F5" d="M14,56c5.014,3.768,11.246,6,18,6c6.753,0,12.986-2.232,18-6H14z"/>
<path fill="#014D87" d="M32,2C15.432,2,2,15.432,2,32h30V2z"/>
<path fill="#FFE12C" d="M19.885,25.602c-3.025,0-5.477-2.508-5.477-5.6c0-3.094,2.451-5.602,5.477-5.602
	c1.158,0,2.23,0.369,3.115,0.996C21.745,13.928,19.901,13,17.844,13C14.065,13,11,16.135,11,20.002C11,23.867,14.065,27,17.844,27
	c2.057,0,3.9-0.926,5.156-2.395C22.116,25.234,21.043,25.602,19.885,25.602z"/>
<polygon fill="#FFE12C" points="26,18.816 26.668,17 26.5,18.934 27.872,17.596 26.903,19.264 28.704,18.666 27.125,19.738 29,20 
	27.125,20.264 28.704,21.336 26.903,20.738 27.872,22.406 26.5,21.066 26.668,23 26,21.184 25.333,23 25.5,21.066 24.129,22.406 
	25.098,20.738 23.297,21.336 24.875,20.264 23,20 24.875,19.738 23.297,18.666 25.098,19.264 24.129,17.596 25.5,18.934 25.333,17 
	"/>
<path opacity="0.1" fill="#1A1626" d="M50.736,8.592c4.096,5.129,6.563,11.621,6.563,18.701c0,16.568-13.428,30.002-29.994,30.002
	c-7.102,0-13.609-2.477-18.744-6.594C14.055,57.58,22.502,62,32.002,62c16.566,0,29.996-13.432,29.996-30
	C61.998,22.527,57.594,14.09,50.736,8.592z"/>
<path opacity="0.3" fill-rule="evenodd" clip-rule="evenodd" fill="#FFFFFF" d="M9.735,19.016c0.549,3.865,7.766-3.701,15.08-10.203
	C29.532,4.631,8.083,7.385,9.735,19.016z"/>
</svg>
