<?xml version="1.0" encoding="utf-8"?>
<!-- Generator: Adobe Illustrator 15.0.0, SVG Export Plug-In . SVG Version: 6.00 Build 0)  -->
<!DOCTYPE svg PUBLIC "-//W3C//DTD SVG 1.1//EN" "http://www.w3.org/Graphics/SVG/1.1/DTD/svg11.dtd">
<svg version="1.1" id="Layer_1" xmlns="http://www.w3.org/2000/svg" xmlns:xlink="http://www.w3.org/1999/xlink" x="0px" y="0px"
	 width="64px" height="64px" viewBox="0 0 64 64" enable-background="new 0 0 64 64" xml:space="preserve">
<path fill="#014D87" d="M39.768,3.03C23.764-1.258,7.315,8.237,3.027,24.237C1.71,29.148,1.698,34.1,2.769,38.731L46.413,5.695
	C44.354,4.568,42.134,3.662,39.768,3.03z"/>
<path fill="#014D87" d="M11.611,53.995c3.466,3.219,7.741,5.665,12.628,6.976c16.003,4.286,32.453-5.208,36.741-21.208
	c0.617-2.304,0.939-4.614,1.007-6.896L11.611,53.995z"/>
<path fill="#F59E01" d="M58.024,17.079C55.32,12.365,51.34,8.388,46.413,5.695L2.769,38.731c0.677,2.926,1.783,5.722,3.275,8.297
	L58.024,17.079z"/>
<path fill="#F5F5F5" d="M58.024,17.079L6.044,47.028c1.491,2.576,3.367,4.927,5.567,6.967l50.375-21.129
	C62.153,27.244,60.729,21.796,58.024,17.079z"/>
<polygon fill="#F5F5F5" points="19.639,18.135 26.309,17.733 19.639,17.333 23.313,15.935 19.431,16.558 22.619,14.257 
	19.03,15.864 21.513,12.816 18.463,15.298 20.072,11.711 17.769,14.896 18.395,11.018 16.995,14.689 16.594,8.021 16.193,14.689 
	14.794,11.018 15.419,14.896 13.116,11.711 14.725,15.298 11.675,12.816 14.158,15.864 10.57,14.257 13.757,16.558 9.875,15.935 
	13.549,17.333 6.879,17.733 13.549,18.135 9.875,19.533 13.757,18.909 10.57,21.21 14.158,19.604 11.675,22.652 14.725,20.17 
	13.116,23.757 15.419,20.57 14.794,24.45 16.193,20.777 16.594,27.447 16.995,20.777 18.395,24.45 17.769,20.57 20.072,23.757 
	18.463,20.17 21.513,22.652 19.03,19.604 22.619,21.21 19.431,18.909 23.313,19.533 "/>
<path opacity="0.1" fill="#1A1626" d="M50.736,8.597c4.096,5.127,6.563,11.618,6.563,18.696c0,16.564-13.43,29.995-29.994,29.995
	c-7.101,0-13.609-2.477-18.744-6.593c5.494,6.878,13.942,11.296,23.441,11.296c16.565,0,29.992-13.428,29.992-29.992
	C61.995,22.529,57.594,14.093,50.736,8.597z"/>
<path opacity="0.3" fill-rule="evenodd" clip-rule="evenodd" fill="#FFFFFF" d="M9.735,19.018c0.549,3.864,7.767-3.701,15.08-10.201
	C29.531,4.637,8.084,7.39,9.735,19.018z"/>
</svg>
