<?xml version="1.0" encoding="utf-8"?>
<!-- Generator: Adobe Illustrator 15.0.0, SVG Export Plug-In . SVG Version: 6.00 Build 0)  -->
<!DOCTYPE svg PUBLIC "-//W3C//DTD SVG 1.1//EN" "http://www.w3.org/Graphics/SVG/1.1/DTD/svg11.dtd">
<svg version="1.1" id="Layer_1" xmlns="http://www.w3.org/2000/svg" xmlns:xlink="http://www.w3.org/1999/xlink" x="0px" y="0px"
	 width="64px" height="64px" viewBox="0 0 64 64" enable-background="new 0 0 64 64" xml:space="preserve">
<circle fill="#018BC9" cx="32" cy="32" r="30"/>
<polygon fill="#F5F5F5" points="32,39.219 41.889,46.26 38.149,34.813 48,27.716 35.806,27.681 32,16.259 28.193,27.681 16,27.716 
	25.846,34.813 22.111,46.26 "/>
<path opacity="0.1" fill="#1A1626" d="M50.736,8.589c4.097,5.131,6.563,11.623,6.563,18.701c0,16.569-13.428,30.004-29.994,30.004
	c-7.101,0-13.61-2.479-18.745-6.594C14.054,57.58,22.502,62,32.003,62c16.565,0,29.995-13.432,29.995-30
	C61.998,22.527,57.595,14.089,50.736,8.589z"/>
<path opacity="0.3" fill-rule="evenodd" clip-rule="evenodd" fill="#FFFFFF" d="M9.734,19.013c0.549,3.865,7.767-3.699,15.08-10.201
	C29.531,4.628,8.083,7.384,9.734,19.013z"/>
</svg>
