<?xml version="1.0" encoding="utf-8"?>
<!-- Generator: Adobe Illustrator 15.0.0, SVG Export Plug-In . SVG Version: 6.00 Build 0)  -->
<!DOCTYPE svg PUBLIC "-//W3C//DTD SVG 1.1//EN" "http://www.w3.org/Graphics/SVG/1.1/DTD/svg11.dtd">
<svg version="1.1" id="Layer_1" xmlns="http://www.w3.org/2000/svg" xmlns:xlink="http://www.w3.org/1999/xlink" x="0px" y="0px"
	 width="64px" height="64px" viewBox="0 0 64 64" enable-background="new 0 0 64 64" xml:space="preserve">
<path fill="#014D87" d="M32,2C16.789,2,4.23,13.324,2.273,28h59.453C59.77,13.324,47.211,2,32,2z"/>
<path fill="#014D87" d="M32,62c15.211,0,27.77-11.324,29.727-26H2.273C4.23,50.676,16.789,62,32,62z"/>
<path fill="#FFE12C" d="M61.727,28H2.273C2.1,29.31,2,30.643,2,32s0.1,2.69,0.273,4h59.453C61.902,34.69,62,33.357,62,32
	S61.902,29.31,61.727,28z"/>
<polygon fill="#F5F5F5" points="16,41.177 17.193,39 17.463,41.467 19.398,39.912 18.703,42.296 21.086,41.602 19.533,43.537 
	22,43.807 19.822,45 22,46.192 19.533,46.462 21.086,48.398 18.703,47.702 19.398,50.086 17.463,48.532 17.193,51 16,48.823 
	14.807,51 14.537,48.532 12.602,50.086 13.299,47.702 10.916,48.398 12.469,46.462 10,46.192 12.178,45 10,43.807 12.469,43.537 
	10.916,41.602 13.299,42.296 12.602,39.912 14.537,41.467 14.807,39 "/>
<path opacity="0.1" fill="#1A1626" d="M50.738,8.592c4.096,5.129,6.563,11.621,6.563,18.701c0,16.568-13.43,30.002-29.996,30.002
	c-7.1,0-13.609-2.477-18.744-6.594C14.055,57.58,22.504,62,32.004,62c16.566,0,29.994-13.432,29.994-30
	C61.998,22.527,57.596,14.09,50.738,8.592z"/>
<path opacity="0.3" fill-rule="evenodd" clip-rule="evenodd" fill="#FFFFFF" d="M9.734,19.016c0.549,3.865,7.768-3.701,15.08-10.203
	C29.531,4.631,8.084,7.385,9.734,19.016z"/>
</svg>
