<?xml version="1.0" encoding="utf-8"?>
<!-- Generator: Adobe Illustrator 15.0.0, SVG Export Plug-In . SVG Version: 6.00 Build 0)  -->
<!DOCTYPE svg PUBLIC "-//W3C//DTD SVG 1.1//EN" "http://www.w3.org/Graphics/SVG/1.1/DTD/svg11.dtd">
<svg version="1.1" id="Layer_1" xmlns="http://www.w3.org/2000/svg" xmlns:xlink="http://www.w3.org/1999/xlink" x="0px" y="0px"
	 width="64px" height="64px" viewBox="0 0 64 64" enable-background="new 0 0 64 64" xml:space="preserve">
<path fill="#E81C27" d="M61.17,39V25l0,0C58.016,11.809,46.158,2,32,2C17.843,2,5.984,11.809,2.83,25v14
	C5.984,52.189,17.843,62,32,62C46.158,62,58.016,52.189,61.17,39L61.17,39z"/>
<path fill="#C21413" d="M61.17,39V25l0,0C58.016,11.809,46.158,2,32,2C17.843,2,5.984,11.809,2.83,25v14
	C5.984,52.189,17.843,62,32,62C46.158,62,58.016,52.189,61.17,39L61.17,39z"/>
<path fill="#F5F5F5" d="M2,32c0,2.41,0.293,4.752,0.83,7h58.34c0.537-2.248,0.83-4.59,0.83-7c0-2.412-0.293-4.754-0.83-7H2.83
	C2.293,27.246,2,29.588,2,32z"/>
<path opacity="0.1" fill="#1A1626" d="M50.736,8.591c4.098,5.13,6.563,11.622,6.563,18.701c0,16.568-13.428,30.003-29.994,30.003
	c-7.101,0-13.61-2.478-18.745-6.594C14.054,57.58,22.502,62,32.004,62c16.564,0,29.994-13.432,29.994-30
	C61.998,22.527,57.596,14.09,50.736,8.591z"/>
<path opacity="0.3" fill-rule="evenodd" clip-rule="evenodd" fill="#FFFFFF" d="M9.734,19.015c0.549,3.865,7.767-3.7,15.08-10.202
	C29.531,4.63,8.083,7.385,9.734,19.015z"/>
</svg>
