<?xml version="1.0" encoding="utf-8"?>
<!-- Generator: Adobe Illustrator 15.0.0, SVG Export Plug-In . SVG Version: 6.00 Build 0)  -->
<!DOCTYPE svg PUBLIC "-//W3C//DTD SVG 1.1//EN" "http://www.w3.org/Graphics/SVG/1.1/DTD/svg11.dtd">
<svg version="1.1" id="Layer_1" xmlns="http://www.w3.org/2000/svg" xmlns:xlink="http://www.w3.org/1999/xlink" x="0px" y="0px"
	 width="64px" height="64px" viewBox="0 0 64 64" enable-background="new 0 0 64 64" xml:space="preserve">
<path fill="#F5F5F5" d="M2,32c0,5.885,1.701,11.367,4.627,16h50.744C60.299,43.367,62,37.885,62,32s-1.701-11.369-4.629-16H6.627
	C3.701,20.631,2,26.115,2,32z"/>
<g>
	<path fill="#014D87" d="M57.371,16C52.057,7.59,42.684,2,32,2C21.317,2,11.943,7.59,6.627,16H57.371z"/>
</g>
<g>
	<path fill="#529320" d="M6.627,48C11.943,56.41,21.317,62,32,62c10.684,0,20.057-5.59,25.371-14H6.627z"/>
</g>
<path fill="#302C3B" d="M35.135,30.756c0.871-1.127,1.41-2.727,1.41-4.533C36.545,22.732,34.549,20,32,20s-4.547,2.732-4.547,6.223
	c0,1.807,0.539,3.406,1.41,4.533L22,38.738c0,0,0,5.262,10,5.262c10,0,10-5.262,10-5.262L35.135,30.756z M34.727,26.223
	c0,1.201-0.311,2.311-0.807,3.121l-1.467-1.705V26l1.365-0.666l-1.365-0.668v-2.811C33.725,22.221,34.727,24.064,34.727,26.223z
	 M29.271,26.223c0-2.158,1.004-4.002,2.273-4.367v2.811l-1.363,0.668L31.545,26v1.639l-1.465,1.705
	C29.584,28.533,29.271,27.424,29.271,26.223z"/>
<path opacity="0.1" fill="#1A1626" d="M50.736,8.591c4.098,5.13,6.563,11.622,6.563,18.701c0,16.568-13.428,30.003-29.994,30.003
	c-7.099,0-13.609-2.478-18.744-6.594C14.055,57.58,22.502,62,32.004,62c16.564,0,29.994-13.432,29.994-30
	C61.998,22.527,57.596,14.09,50.736,8.591z"/>
<path opacity="0.3" fill-rule="evenodd" clip-rule="evenodd" fill="#FFFFFF" d="M9.734,19.015c0.549,3.865,7.768-3.7,15.08-10.202
	C29.531,4.63,8.084,7.385,9.734,19.015z"/>
</svg>
