<?xml version="1.0" encoding="utf-8"?>
<!-- Generator: Adobe Illustrator 15.0.0, SVG Export Plug-In . SVG Version: 6.00 Build 0)  -->
<!DOCTYPE svg PUBLIC "-//W3C//DTD SVG 1.1//EN" "http://www.w3.org/Graphics/SVG/1.1/DTD/svg11.dtd">
<svg version="1.1" id="Layer_1" xmlns="http://www.w3.org/2000/svg" xmlns:xlink="http://www.w3.org/1999/xlink" x="0px" y="0px"
	 width="64px" height="64px" viewBox="0 0 64 64" enable-background="new 0 0 64 64" xml:space="preserve">
<path fill="#ED7612" d="M2,32C2,15.436,15.439,2,32,2c16.572,0,30,13.436,30,30c0,16.57-13.428,30-30,30C15.439,62,2,48.57,2,32z"/>
<path fill="#E64C18" d="M45.779,5.354C53.172,10.611,58,19.24,58,29c0,16.02-12.98,29-29,29c-9.758,0-18.389-4.828-23.646-12.223
	C10.348,55.412,20.404,62,32,62c16.572,0,30-13.43,30-30C62,20.402,55.414,10.348,45.779,5.354z"/>
<path fill-rule="evenodd" clip-rule="evenodd" fill="#F59E01" d="M10.219,17.398c0.445,3.133,6.309-2.998,12.248-8.268
	C26.299,5.742,8.879,7.973,10.219,17.398z"/>
<path fill="#FFFFFF" d="M41.518,43.971c-2.191,2.258-5.361,3.385-9.508,3.385s-7.316-1.127-9.508-3.385
	c-2.939-2.77-4.41-6.76-4.41-11.969c0-5.314,1.471-9.305,4.41-11.969c2.191-2.258,5.361-3.387,9.508-3.387s7.316,1.129,9.508,3.387
	c2.928,2.664,4.391,6.654,4.391,11.969C45.908,37.211,44.445,41.201,41.518,43.971z M37.729,39.561
	c1.41-1.771,2.115-4.291,2.115-7.559c0-3.254-0.705-5.771-2.115-7.549c-1.41-1.779-3.316-2.668-5.719-2.668
	s-4.318,0.887-5.748,2.658s-2.146,4.291-2.146,7.559s0.717,5.787,2.146,7.559s3.346,2.658,5.748,2.658S36.318,41.332,37.729,39.561z
	"/>
</svg>
