<?xml version="1.0" encoding="utf-8"?>
<!-- Generator: Adobe Illustrator 15.0.0, SVG Export Plug-In . SVG Version: 6.00 Build 0)  -->
<!DOCTYPE svg PUBLIC "-//W3C//DTD SVG 1.1//EN" "http://www.w3.org/Graphics/SVG/1.1/DTD/svg11.dtd">
<svg version="1.1" id="Layer_1" xmlns="http://www.w3.org/2000/svg" xmlns:xlink="http://www.w3.org/1999/xlink" x="0px" y="0px"
	 width="64px" height="64px" viewBox="0 0 64 64" enable-background="new 0 0 64 64" xml:space="preserve">
<g>
	<path fill="#014D87" d="M32,2v10H12v20H2c0,16.568,13.432,30,30,30s30-13.432,30-30S48.568,2,32,2z"/>
</g>
<g>
	<path fill="#F5F5F5" d="M14,8C6.714,13.473,2,22.186,2,32h12V8z"/>
</g>
<g>
	<path fill="#F5F5F5" d="M8,14h24V2C22.186,2,13.473,6.714,8,14z"/>
</g>
<g>
	<path fill="#F5F5F5" d="M9.831,11.789L26,32h6v-7.5L17.15,5.938C14.412,7.5,11.941,9.476,9.831,11.789z"/>
</g>
<g>
	<path fill="#E81C27" d="M32,5H18.912C12.857,7.94,7.94,12.857,5,18.912V32h6V11h21V5z"/>
</g>
<g>
	<polygon fill="#E81C27" points="32,27.059 19,11 13,11 30,32 32,32 	"/>
</g>
<g>
	<g>
		<path fill="#F5F5F5" d="M37.134,32l1.01-2.926l-2.721-1.914h3.393l0.976-2.816l1.004,2.816h3.378l-2.72,1.914L42.462,32
			l-2.664-1.796L37.134,32z"/>
	</g>
</g>
<g>
	<g>
		<polygon fill="#E81C27" points="39.798,29.521 41.393,30.596 40.789,28.849 42.375,27.733 40.41,27.733 39.798,26.017 
			39.203,27.733 37.221,27.733 38.808,28.849 38.205,30.596 		"/>
	</g>
</g>
<g>
	<g>
		<path fill="#F5F5F5" d="M54.634,32l1.01-2.926l-2.721-1.914h3.393l0.976-2.816l1.004,2.816h3.378l-2.72,1.914L59.962,32
			l-2.664-1.796L54.634,32z"/>
	</g>
</g>
<g>
	<g>
		<polygon fill="#E81C27" points="57.298,29.521 58.893,30.596 58.289,28.849 59.875,27.733 57.91,27.733 57.298,26.017 
			56.703,27.733 54.721,27.733 56.308,28.849 55.705,30.596 		"/>
	</g>
</g>
<g>
	<g>
		<path fill="#F5F5F5" d="M45.884,21.656l1.01-2.926l-2.721-1.914h3.393L48.541,14l1.004,2.816h3.378l-2.72,1.914l1.009,2.926
			l-2.664-1.796L45.884,21.656z"/>
	</g>
</g>
<g>
	<g>
		<polygon fill="#E81C27" points="48.548,19.178 50.143,20.252 49.539,18.505 51.125,17.389 49.16,17.389 48.548,15.673 
			47.953,17.389 45.971,17.389 47.558,18.505 46.955,20.252 		"/>
	</g>
</g>
<g>
	<g>
		<path fill="#F5F5F5" d="M45.047,48.656l1.326-3.846l-3.575-2.516h4.459l1.281-3.701l1.319,3.701h4.44l-3.573,2.516l1.324,3.846
			l-3.501-2.36L45.047,48.656z"/>
	</g>
</g>
<g>
	<g>
		<polygon fill="#E81C27" points="48.548,45.398 50.643,46.811 49.852,44.515 51.936,43.048 49.352,43.048 48.548,40.793 
			47.766,43.048 45.16,43.048 47.246,44.515 46.454,46.811 		"/>
	</g>
</g>
<rect x="12.563" y="11" fill="#F5F5F5" width="12.188" height="3"/>
<path opacity="0.15" fill="#1A1626" d="M50.737,8.591c4.096,5.13,6.563,11.622,6.563,18.701c0,16.568-13.43,30.003-29.995,30.003
	c-7.101,0-13.61-2.478-18.745-6.594C14.054,57.58,22.503,62,32.003,62c16.566,0,29.994-13.432,29.994-30
	C61.997,22.527,57.595,14.09,50.737,8.591z"/>
<path opacity="0.3" fill-rule="evenodd" clip-rule="evenodd" fill="#FFFFFF" d="M9.734,19.015c0.549,3.865,7.767-3.7,15.08-10.202
	C29.531,4.63,8.083,7.385,9.734,19.015z"/>
</svg>
