<?xml version="1.0" encoding="utf-8"?>
<!-- Generator: Adobe Illustrator 15.0.0, SVG Export Plug-In . SVG Version: 6.00 Build 0)  -->
<!DOCTYPE svg PUBLIC "-//W3C//DTD SVG 1.1//EN" "http://www.w3.org/Graphics/SVG/1.1/DTD/svg11.dtd">
<svg version="1.1" id="Layer_1" xmlns="http://www.w3.org/2000/svg" xmlns:xlink="http://www.w3.org/1999/xlink" x="0px" y="0px"
	 width="64px" height="64px" viewBox="0 0 64 64" enable-background="new 0 0 64 64" xml:space="preserve">
<path fill="#014D87" d="M32,2C21.745,2,12.695,7.149,7.285,15h49.431C51.305,7.149,42.255,2,32,2z"/>
<path fill="#014D87" d="M32,62c10.255,0,19.305-5.15,24.716-13H7.285C12.695,56.85,21.745,62,32,62z"/>
<path fill="#E81C27" d="M59.044,19H4.956C3.062,22.934,2,27.343,2,32s1.062,9.066,2.956,13h54.088C60.938,41.066,62,36.657,62,32
	S60.938,22.934,59.044,19z"/>
<path fill="#F5F5F5" d="M4.956,45c0.673,1.398,1.456,2.732,2.329,4h49.431c0.873-1.268,1.655-2.602,2.328-4H4.956z"/>
<path fill="#F5F5F5" d="M59.044,19c-0.673-1.398-1.455-2.732-2.328-4H7.285c-0.873,1.268-1.656,2.602-2.329,4H59.044z"/>
<circle fill="#F5F5F5" cx="18" cy="32" r="11"/>
<polygon fill="#E81C27" points="18,35.911 22.945,39.666 21.073,33.561 26,29.776 19.9,29.758 18,23.666 16.098,29.758 10,29.776 
	14.924,33.561 13.055,39.666 "/>
<path opacity="0.1" fill="#1A1626" d="M50.737,8.591c4.096,5.13,6.563,11.622,6.563,18.701c0,16.567-13.43,30.003-29.995,30.003
	c-7.101,0-13.61-2.479-18.745-6.594C14.054,57.58,22.503,62,32.003,62c16.566,0,29.994-13.432,29.994-30
	C61.997,22.527,57.595,14.09,50.737,8.591z"/>
<path opacity="0.3" fill-rule="evenodd" clip-rule="evenodd" fill="#FFFFFF" d="M9.734,19.015c0.549,3.865,7.767-3.7,15.08-10.202
	C29.531,4.63,8.083,7.385,9.734,19.015z"/>
</svg>
