<?xml version="1.0" encoding="utf-8"?>
<!-- Generator: Adobe Illustrator 15.0.0, SVG Export Plug-In . SVG Version: 6.00 Build 0)  -->
<!DOCTYPE svg PUBLIC "-//W3C//DTD SVG 1.1//EN" "http://www.w3.org/Graphics/SVG/1.1/DTD/svg11.dtd">
<svg version="1.1" id="Layer_1" xmlns="http://www.w3.org/2000/svg" xmlns:xlink="http://www.w3.org/1999/xlink" x="0px" y="0px"
	 width="64px" height="64px" viewBox="0 0 64 64" enable-background="new 0 0 64 64" xml:space="preserve">
<path fill="#FFE12C" d="M32,2C18.939,2,7.834,10.35,3.715,22h56.572C56.168,10.35,45.061,2,32,2z"/>
<path fill="#E81C27" d="M32,62c13.061,0,24.168-8.35,28.287-20H3.715C7.834,53.65,18.939,62,32,62z"/>
<path fill="#014D87" d="M3.715,22C2.607,25.129,2,28.492,2,32s0.607,6.871,1.715,10h56.572C61.393,38.871,62,35.508,62,32
	s-0.607-6.871-1.713-10H3.715z"/>
<polygon fill="#F5F5F5" points="34.559,27.146 35.6,28.196 35.4,26.738 36.748,26.086 35.275,25.83 35.066,24.375 34.355,25.674 
	32.877,25.431 33.91,26.487 33.205,27.791 "/>
<polygon fill="#F5F5F5" points="29.166,27.175 30.539,27.807 29.793,26.511 30.793,25.443 29.326,25.703 28.57,24.411 28.41,25.869 
	26.943,26.141 28.311,26.779 28.158,28.238 "/>
<polygon fill="#F5F5F5" points="24.168,29.027 25.686,29.154 24.492,28.193 25.012,26.855 23.748,27.596 22.549,26.643 
	22.959,28.061 21.701,28.811 23.223,28.945 23.641,30.363 "/>
<polygon fill="#F5F5F5" points="20.234,32.45 21.699,32.055 20.215,31.56 20.186,30.133 19.293,31.253 17.813,30.768 18.742,31.954 
	17.861,33.082 19.324,32.693 20.264,33.879 "/>
<polygon fill="#F5F5F5" points="17.902,36.982 19.111,36.117 17.543,36.156 16.961,34.832 16.564,36.18 15,36.227 16.322,37.023 
	15.938,38.375 17.148,37.518 18.479,38.309 "/>
<polygon fill="#F5F5F5" points="46.123,36.824 45.588,38.158 46.893,37.35 48.129,38.195 47.705,36.848 49,36.037 47.436,36.008 
	46.998,34.662 46.461,35.994 44.891,35.975 "/>
<polygon fill="#F5F5F5" points="43.648,32.317 43.666,33.748 44.566,32.551 46.043,32.924 45.131,31.807 46.02,30.609 
	44.555,31.112 43.629,30.002 43.641,31.429 42.176,31.939 "/>
<polygon fill="#F5F5F5" points="39.611,28.939 40.178,30.271 40.553,28.848 42.07,28.696 40.789,27.959 41.158,26.541 39.99,27.505 
	38.703,26.779 39.262,28.111 38.098,29.086 "/>
<path opacity="0.1" fill="#1A1626" d="M50.738,8.591c4.096,5.13,6.563,11.622,6.563,18.701c0,16.569-13.43,30.003-29.996,30.003
	c-7.1,0-13.609-2.477-18.744-6.594C14.055,57.58,22.504,62,32.004,62c16.566,0,29.994-13.432,29.994-30
	C61.998,22.527,57.596,14.09,50.738,8.591z"/>
<path opacity="0.3" fill-rule="evenodd" clip-rule="evenodd" fill="#FFFFFF" d="M9.734,19.015c0.549,3.865,7.768-3.7,15.08-10.202
	C29.531,4.63,8.084,7.385,9.734,19.015z"/>
</svg>
