<?xml version="1.0" encoding="utf-8"?>
<!-- Generator: Adobe Illustrator 15.0.0, SVG Export Plug-In . SVG Version: 6.00 Build 0)  -->
<!DOCTYPE svg PUBLIC "-//W3C//DTD SVG 1.1//EN" "http://www.w3.org/Graphics/SVG/1.1/DTD/svg11.dtd">
<svg version="1.1" id="Layer_1" xmlns="http://www.w3.org/2000/svg" xmlns:xlink="http://www.w3.org/1999/xlink" x="0px" y="0px"
	 width="64px" height="64px" viewBox="0 0 64 64" enable-background="new 0 0 64 64" xml:space="preserve">
<path fill="#E81C27" d="M60,42c-5.522,0-10-4.477-10-10H10.787v21.213l-0.001-0.002C16.215,58.641,23.715,62,32,62
	c13.066,0,24.177-8.357,28.291-20.016C60.193,41.988,60.099,42,60,42z"/>
<path fill="#529320" d="M60,22c0.099,0,0.193,0.012,0.291,0.014C56.177,10.355,45.066,2,32,2c-8.285,0-15.785,3.357-21.214,8.787
	h0.001V32H50C50,26.477,54.478,22,60,22z"/>
<path fill="#F5F5F5" d="M60.286,22H10.787v20h49.499C61.392,38.871,62,35.508,62,32S61.392,25.129,60.286,22z"/>
<path fill="#302C3B" d="M10.787,10.787C5.358,16.215,2,23.715,2,32c0,8.283,3.358,15.783,8.787,21.213L22,42V22L10.787,10.787z"/>
<path opacity="0.1" fill="#1A1626" d="M50.737,8.59c4.096,5.131,6.563,11.623,6.563,18.701c0,16.568-13.43,30.004-29.994,30.004
	c-7.101,0-13.611-2.479-18.746-6.594C14.054,57.58,22.503,62,32.003,62c16.566,0,29.994-13.432,29.994-30
	C61.997,22.527,57.595,14.09,50.737,8.59z"/>
<path opacity="0.3" fill-rule="evenodd" clip-rule="evenodd" fill="#FFFFFF" d="M9.735,19.014
	c0.549,3.865,7.767-3.699,15.081-10.201C29.532,4.629,8.083,7.385,9.735,19.014z"/>
</svg>
