<?xml version="1.0" encoding="utf-8"?>
<!-- Generator: Adobe Illustrator 15.0.0, SVG Export Plug-In . SVG Version: 6.00 Build 0)  -->
<!DOCTYPE svg PUBLIC "-//W3C//DTD SVG 1.1//EN" "http://www.w3.org/Graphics/SVG/1.1/DTD/svg11.dtd">
<svg version="1.1" id="Layer_1" xmlns="http://www.w3.org/2000/svg" xmlns:xlink="http://www.w3.org/1999/xlink" x="0px" y="0px"
	 width="64px" height="64px" viewBox="0 0 64 64" enable-background="new 0 0 64 64" xml:space="preserve">
<path fill="#302C3B" d="M2,32c0,5.885,1.701,11.369,4.628,16h50.745C60.299,43.369,62,37.885,62,32s-1.701-11.367-4.627-16H6.628
	C3.701,20.633,2,26.115,2,32z"/>
<path fill="#E81C27" d="M57.373,16C52.057,7.59,42.684,2,32,2S11.943,7.59,6.628,16H57.373z"/>
<path fill="#529320" d="M6.628,48C11.943,56.41,21.316,62,32,62s20.057-5.59,25.373-14H6.628z"/>
<polygon fill="#F5F5F5" points="38.232,36.666 38.24,33.096 34.668,32 38.24,30.904 38.232,27.334 40.434,30.227 44,29.115 
	41.787,32 44,34.885 40.434,33.773 "/>
<path fill="#F5F5F5" d="M32.834,40c-4.369,0-7.91-3.582-7.91-8s3.541-8,7.91-8c1.672,0,3.223,0.527,4.5,1.422
	C35.521,23.326,32.857,22,29.887,22C24.426,22,20,26.477,20,32s4.426,10,9.887,10c2.971,0,5.635-1.324,7.447-3.422
	C36.057,39.475,34.506,40,32.834,40z"/>
<path opacity="0.1" fill="#1A1626" d="M50.738,8.591c4.096,5.13,6.563,11.622,6.563,18.701c0,16.568-13.43,30.003-29.996,30.003
	c-7.1,0-13.609-2.478-18.744-6.594C14.055,57.58,22.504,62,32.004,62c16.566,0,29.994-13.432,29.994-30
	C61.998,22.527,57.596,14.09,50.738,8.591z"/>
<path opacity="0.3" fill-rule="evenodd" clip-rule="evenodd" fill="#FFFFFF" d="M9.734,19.015c0.549,3.865,7.768-3.7,15.08-10.202
	C29.531,4.63,8.084,7.385,9.734,19.015z"/>
</svg>
