<?xml version="1.0" encoding="utf-8"?>
<!-- Generator: Adobe Illustrator 15.0.0, SVG Export Plug-In . SVG Version: 6.00 Build 0)  -->
<!DOCTYPE svg PUBLIC "-//W3C//DTD SVG 1.1//EN" "http://www.w3.org/Graphics/SVG/1.1/DTD/svg11.dtd">
<svg version="1.1" id="Layer_1" xmlns="http://www.w3.org/2000/svg" xmlns:xlink="http://www.w3.org/1999/xlink" x="0px" y="0px"
	 width="64px" height="64px" viewBox="0 0 64 64" enable-background="new 0 0 64 64" xml:space="preserve">
<path fill="#FFE12C" d="M29.238,8H50c-5.014-3.766-11.246-6-18-6S19.014,4.234,13.999,8h11.589v48H13.999
	c5.015,3.768,11.247,6,18.001,6s12.986-2.232,18-6H29.238V8z"/>
<path fill="#E81C27" d="M62,32c0-9.814-4.713-18.525-12-24H29.238v48H50C57.287,50.527,62,41.814,62,32z"/>
<path fill="#F59E01" d="M25.588,8H13.999c-0.14,0.105-0.273,0.217-0.411,0.324v47.354c0.138,0.107,0.271,0.219,0.411,0.322h11.589V8
	z"/>
<path fill="#529320" d="M2,32c0,9.627,4.539,18.188,11.588,23.678V8.324C6.539,13.812,2,22.375,2,32z"/>
<path fill="#FFE12C" d="M34.414,49.588c-1.055,0.791-3.219,0.734-4.135,1.658c-1.1,1.09,0.086,2.529,0.074,2.654l-0.059,0.76
	c0,0,0.74,0.01,1.053,0.059c0.469,0.072,0.654,0.455,1.527,0.398c2.197-0.143,2.109-2.123,2.232-3.816
	c0.111-0.645,0.367-1.484,0.512-2.129c0.125-0.551,0.15-1.43,0.152-1.432C35.768,47.746,35.125,49.053,34.414,49.588z"/>
<path fill="#FFE12C" d="M35.107,12.699c-0.123-1.691-0.035-3.672-2.232-3.816c-0.873-0.057-1.059,0.326-1.527,0.398
	c-0.313,0.049-1.053,0.059-1.053,0.059l0.059,0.76c0.012,0.125-1.174,1.564-0.074,2.654c0.916,0.924,3.08,0.867,4.135,1.658
	c0.711,0.535,1.354,1.844,1.357,1.848c-0.002-0.004-0.027-0.881-0.152-1.432C35.475,14.183,35.219,13.343,35.107,12.699z"/>
<path fill="#FFE12C" d="M61.809,28.656c-0.768-0.039-1.504-0.074-2.178-0.094c0.275,0.24-0.758-3.48-0.213-3.996
	c0.684-0.646,0.215-4.211-0.377-4.973c0.01-0.117,0.045-0.268,0.076-0.412c-0.33-0.695-0.68-1.377-1.061-2.041
	c-1.109-0.365-2.047-1.127-2.434,0.525c-0.404-0.523-1.516-1.6-2.201-1.27c-0.084,0.412-0.207,0.814-0.371,1.203
	c-0.467,0.203-2.338-0.82-3.273-0.637c0.008,1.979-1.17,1.209-2.582,1.883c-2.57,1.229-1.305-1.088-3.031-1.088
	c-3.223,0,1.32,4.863,2.057,5.377c0.115-0.191-0.271-0.643-0.021-0.822c-0.004,0.002,1.096,0.869,1.096,0.639
	c0.053-0.291,0.141-0.568,0.264-0.834c0.324,0.51,2.645,3.162,2.09,3.688c-0.146,0.139-2.279-0.051-2.332-0.135
	c0.113-0.207,0.223-0.742,0.176-0.791c-0.686-0.738-2.023-0.793-2.674-0.582c-0.646,0.209-1.701,1.037-1.781,2.047
	c0.406-0.094,1.838-0.453,2.006-0.297c0.092,0.088-0.385,0.76-0.43,0.908c0.584,0.006,1.848,0.311,2.084,0.291
	c0.125-0.248,0.254-0.494,0.385-0.74c0.27,0.424,0.547,0.844,0.834,1.256c0.297,0.217,0.939-1.762,1.473-0.398
	c0.178,0.459-4.893,5.262-5.178,7.065c-0.158,1.014,0.012,2.02,0.408,2.938c-0.914-1.002-3.338-3.707-3.857-3.432
	c-1.49,0.793-0.154,5.365,0.518,6.346c0.783,1.139,5.525,3.805,5.525,0.205c0-0.217-0.156-0.543-0.408-0.928
	c1.119,0.742,2.471,1.266,3.061,1.957c0.703,0.822,1.293,3.039,1.168,4.168c-0.324,2.934-4.803,0.23-4.803,3.424
	c0-0.4,4.391,0.15,4.715-0.092c0.721-0.537,2.859,1.182,2.471-1.193c-0.396-2.412,2.51-1.266,2.51-3.211
	c0-1.041-3.133,0.232-1.371-2.471c0.682-1.045,0.176-2.367,0.984-1.334c1.256,1.605,3.42,0.469,5.748-0.697
	C61.602,37.527,62,34.813,62,32C62,30.869,61.932,29.755,61.809,28.656z"/>
<path fill="#FFE12C" d="M39.98,41.82c-0.186,0.672-1.182-3.139-0.969-3.342c0.371,0.074,0.746,0.104,1.123,0.082
	c0.279-0.221-0.682-0.748-1.648-0.973c0.834-0.039,1.484-0.258,1.484-0.535c0-0.232-0.449-0.428-1.082-0.51
	c0.576-0.088,0.982-0.273,0.982-0.492c0-0.246-0.512-0.445-1.207-0.518c0.744-0.061,1.307-0.268,1.307-0.523
	c0-0.199-0.342-0.363-0.832-0.461c0.596-0.098,1.014-0.314,1.014-0.566c0-0.213-0.316-0.395-0.768-0.506
	c0.467-0.063,0.891-0.17,1.195-0.307c1.723-1.829-0.512-2.958-0.512-1.104c0,0.773-2.242,0.455-2.557,0.295
	c-0.447-0.229-0.182-0.428-0.029-0.689c0.436,0.182,2.174,0.455,2.287-2.104c0.051-1.135,0.107-16.334,1.463-16.264
	c-5.918-0.311-3.289,14.594-3.754,17.883c-0.432-0.74-2.076,0.129-1.592,1.188c0.279,0.613,0.949,0.932,1.713,1.071
	c-0.525,0.107-0.896,0.303-0.896,0.537c0,0.227,0.35,0.416,0.846,0.525c-0.602,0.086-1.025,0.277-1.025,0.502
	c0,0.244,0.512,0.445,1.209,0.518c-0.746,0.059-1.311,0.266-1.311,0.523c0,0.23,0.451,0.428,1.086,0.51
	c-0.578,0.088-0.984,0.273-0.984,0.492c0,0.195,0.34,0.359,0.822,0.457c-0.352,0.068-0.592,0.258-0.592,0.637
	c0.426,0.182,0.834,0.395,1.229,0.633c0.041,0.818-0.375,2.533-0.725,3.33c-0.141-0.254-0.354-0.428-0.639-0.518
	c-1.264,0.082,0.982,1.635,0.99,1.479c-0.025,0.506-0.496,0.398-0.672,0.709c-0.008-0.008,1.568,0.992,1.561,1.156
	c0.246-0.16,1.523-1.105,1.57-1.154c-0.211-0.207-0.676-0.416-0.725-0.736c-0.025-0.182,1.268-0.48,1.398-0.875
	C40.908,41.676,40.115,41.33,39.98,41.82z"/>
<path opacity="0.15" fill="#1A1626" d="M50.738,8.589c4.096,5.131,6.563,11.623,6.563,18.701c0,16.569-13.43,30.004-29.996,30.004
	c-7.1,0-13.609-2.479-18.744-6.594C14.055,57.58,22.504,62,32.004,62c16.566,0,29.994-13.432,29.994-30
	C61.998,22.527,57.596,14.089,50.738,8.589z"/>
<path opacity="0.3" fill-rule="evenodd" clip-rule="evenodd" fill="#FFFFFF" d="M9.734,19.013c0.549,3.865,7.768-3.699,15.08-10.201
	C29.531,4.628,8.084,7.384,9.734,19.013z"/>
</svg>
