<?xml version="1.0" encoding="utf-8"?>
<!-- Generator: Adobe Illustrator 15.0.0, SVG Export Plug-In . SVG Version: 6.00 Build 0)  -->
<!DOCTYPE svg PUBLIC "-//W3C//DTD SVG 1.1//EN" "http://www.w3.org/Graphics/SVG/1.1/DTD/svg11.dtd">
<svg version="1.1" id="Layer_1" xmlns="http://www.w3.org/2000/svg" xmlns:xlink="http://www.w3.org/1999/xlink" x="0px" y="0px"
	 width="64px" height="64px" viewBox="0 0 64 64" enable-background="new 0 0 64 64" xml:space="preserve">
<path fill="#E81C27" d="M32,62c16.568,0,30-13.432,30-30H2C2,48.568,15.432,62,32,62z"/>
<path fill="#014D87" d="M32,2C15.432,2,2,15.432,2,32h60C62,15.432,48.568,2,32,2z"/>
<g>
	<g>
		<g>
			<path fill="#FFE12C" d="M28.689,20.896c0-2.846-0.653-5.154-5.186-5.154c-1.228,0-1.98,0.273-2.828,0.477
				c-0.17-0.291-3.193-0.281-3.363,0.021c-0.812-0.178-1.55-0.416-2.723-0.416c-5.3,0-5.146,2.289-5.146,5.113
				C9.443,21.383,9,22.223,9,22.223L10.94,29H27.06L29,22.223C29,22.223,28.689,21.357,28.689,20.896z"/>
		</g>
		<g>
			<ellipse fill="#302C3B" cx="19" cy="29" rx="8" ry="1"/>
		</g>
	</g>
	<g>
		<g>
			<path fill="#302C3B" d="M25.66,25h-1.068c0-1.322-0.674-2.4-1.505-2.4c-0.832,0-1.511,1.078-1.511,2.4h-1.069
				c0-1.322-0.677-2.4-1.507-2.4c-0.833,0-1.507,1.078-1.507,2.4h-1.069c0-1.322-0.679-2.4-1.512-2.4c-0.83,0-1.505,1.078-1.505,2.4
				h-1.068c0-4-3.339-2.818-3.339-2.818C9.49,21.42,10.14,21,10.83,21c0.83,0,1.57,0.613,2.041,1.564
				C13.343,21.613,14.082,21,14.912,21c0.831,0,1.573,0.615,2.044,1.564C17.43,21.615,18.168,21,19,21
				c0.83,0,1.57,0.615,2.041,1.564C21.515,21.615,22.257,21,23.087,21c0.831,0,1.569,0.613,2.041,1.564
				C25.6,21.613,26.34,21,27.17,21c0.69,0,1.34,0.42,1.83,1.182C29,22.182,25.66,21,25.66,25z"/>
		</g>
	</g>
</g>
<g>
	<g>
		<ellipse fill="#FFE12C" cx="16.839" cy="15.877" rx="0.527" ry="0.533"/>
	</g>
	<g>
		<ellipse fill="#FFE12C" cx="15.638" cy="15.57" rx="0.526" ry="0.533"/>
	</g>
	<g>
		<ellipse fill="#FFE12C" cx="14.431" cy="15.367" rx="0.526" ry="0.533"/>
	</g>
	<g>
		<ellipse fill="#FFE12C" cx="13.225" cy="15.247" rx="0.527" ry="0.534"/>
	</g>
	<g>
		<ellipse fill="#FFE12C" cx="12.041" cy="15.314" rx="0.527" ry="0.533"/>
	</g>
	<g>
		<ellipse fill="#FFE12C" cx="10.914" cy="15.706" rx="0.527" ry="0.534"/>
	</g>
	<g>
		<ellipse fill="#FFE12C" cx="9.963" cy="16.413" rx="0.528" ry="0.534"/>
	</g>
	<g>
		<ellipse fill="#FFE12C" cx="9.289" cy="17.4" rx="0.527" ry="0.533"/>
	</g>
	<g>
		<ellipse fill="#FFE12C" cx="8.965" cy="18.561" rx="0.527" ry="0.533"/>
	</g>
	<g>
		<ellipse fill="#FFE12C" cx="8.977" cy="19.764" rx="0.527" ry="0.533"/>
	</g>
	<g>
		<ellipse fill="#FFE12C" cx="9.204" cy="20.942" rx="0.526" ry="0.534"/>
	</g>
	<g>
		<ellipse fill="#FFE12C" cx="21.161" cy="15.877" rx="0.527" ry="0.533"/>
	</g>
	<g>
		<ellipse fill="#FFE12C" cx="22.362" cy="15.57" rx="0.527" ry="0.533"/>
	</g>
	<g>
		<ellipse fill="#FFE12C" cx="23.569" cy="15.367" rx="0.527" ry="0.533"/>
	</g>
	<g>
		<ellipse fill="#FFE12C" cx="24.775" cy="15.247" rx="0.527" ry="0.534"/>
	</g>
	<g>
		<ellipse fill="#FFE12C" cx="25.958" cy="15.314" rx="0.527" ry="0.533"/>
	</g>
	<g>
		<ellipse fill="#FFE12C" cx="27.086" cy="15.706" rx="0.528" ry="0.534"/>
	</g>
	<g>
		<ellipse fill="#FFE12C" cx="28.037" cy="16.413" rx="0.525" ry="0.534"/>
	</g>
	<g>
		<ellipse fill="#FFE12C" cx="28.71" cy="17.4" rx="0.527" ry="0.533"/>
	</g>
	<g>
		<ellipse fill="#FFE12C" cx="29.035" cy="18.561" rx="0.527" ry="0.533"/>
	</g>
	<g>
		<ellipse fill="#FFE12C" cx="29.023" cy="19.764" rx="0.527" ry="0.533"/>
	</g>
	<g>
		<ellipse fill="#FFE12C" cx="28.796" cy="20.943" rx="0.527" ry="0.533"/>
	</g>
</g>
<path fill="#FFE12C" d="M18.342,11.221c0.063,0.256,0.268,0.453,0.527,0.504l-0.766,1.432l0.282,0.529
	c-0.556,0.199-0.984,0.66-1.14,1.236c-0.04,0.15-0.064,0.309-0.064,0.473c0,1.004,0.814,1.818,1.818,1.818s1.818-0.814,1.818-1.818
	c0-0.164-0.024-0.322-0.064-0.473c-0.155-0.576-0.585-1.037-1.14-1.236l0.282-0.529l-0.767-1.432
	c0.26-0.051,0.466-0.248,0.528-0.504l1.124,0.715l1.414-0.896l-1.414-0.896l-1.135,0.723c-0.074-0.246-0.28-0.432-0.537-0.475
	l0.786-1.469L19,7.244l-0.896,1.678l0.786,1.469c-0.257,0.043-0.463,0.229-0.537,0.475l-1.135-0.723l-1.414,0.896l1.414,0.896
	L18.342,11.221z"/>
<path fill="#302C3B" d="M15.464,20.725c-0.486,0.486-1.08,0.797-1.704,0.943c0.949,0.236,1.991-0.006,2.734-0.748
	c1.125-1.125,1.125-2.949,0-4.074c-0.133-0.133-0.275-0.246-0.425-0.348C16.809,17.85,16.608,19.58,15.464,20.725z"/>
<path fill="#302C3B" d="M22.536,20.725c0.486,0.486,1.08,0.797,1.704,0.943c-0.949,0.236-1.991-0.006-2.733-0.748
	c-1.125-1.125-1.125-2.949,0-4.074c0.132-0.133,0.275-0.246,0.424-0.348C21.191,17.85,21.392,19.58,22.536,20.725z"/>
<g>
	<g>
		
			<ellipse transform="matrix(0.9918 -0.1281 0.1281 0.9918 -3.1455 2.132)" fill="#302C3B" cx="15.008" cy="25.528" rx="0.358" ry="1.645"/>
	</g>
	<g>
		
			<ellipse transform="matrix(0.9607 -0.2776 0.2776 0.9607 -6.7056 4.1297)" fill="#302C3B" cx="11.231" cy="25.746" rx="0.359" ry="1.646"/>
	</g>
</g>
<g>
	<g>
		
			<ellipse transform="matrix(-0.9918 -0.1281 0.1281 -0.9918 42.526 53.7908)" fill="#302C3B" cx="22.992" cy="25.528" rx="0.358" ry="1.645"/>
	</g>
	<g>
		
			<ellipse transform="matrix(-0.9607 -0.2776 0.2776 -0.9607 45.3381 57.9111)" fill="#302C3B" cx="26.769" cy="25.746" rx="0.359" ry="1.646"/>
	</g>
</g>
<ellipse fill="#302C3B" cx="19" cy="25.43" rx="0.375" ry="1.719"/>
<circle fill="#302C3B" cx="19" cy="20.018" r="1.143"/>
<circle fill="#302C3B" cx="19" cy="18.027" r="1"/>
<circle fill="#302C3B" cx="19" cy="16.41" r="0.75"/>
<path opacity="0.1" fill="#1A1626" d="M50.737,8.592c4.097,5.129,6.563,11.621,6.563,18.701c0,16.568-13.429,30.002-29.995,30.002
	c-7.1,0-13.609-2.477-18.744-6.594C14.055,57.58,22.503,62,32.004,62c16.565,0,29.994-13.432,29.994-30
	C61.998,22.527,57.596,14.09,50.737,8.592z"/>
<path opacity="0.3" fill-rule="evenodd" clip-rule="evenodd" fill="#FFFFFF" d="M9.734,19.016c0.549,3.865,7.768-3.701,15.08-10.203
	C29.531,4.631,8.084,7.385,9.734,19.016z"/>
</svg>
