<?xml version="1.0" encoding="utf-8"?>
<!-- Generator: Adobe Illustrator 15.0.0, SVG Export Plug-In . SVG Version: 6.00 Build 0)  -->
<!DOCTYPE svg PUBLIC "-//W3C//DTD SVG 1.1//EN" "http://www.w3.org/Graphics/SVG/1.1/DTD/svg11.dtd">
<svg version="1.1" id="Layer_1" xmlns="http://www.w3.org/2000/svg" xmlns:xlink="http://www.w3.org/1999/xlink" x="0px" y="0px"
	 width="64px" height="64px" viewBox="0 0 64 64" enable-background="new 0 0 64 64" xml:space="preserve">
<path fill="#0FB4D4" d="M32,2C15.432,2,2,15.432,2,32h60C62,15.432,48.568,2,32,2z"/>
<path fill="#529320" d="M58,47H6c5.192,8.965,14.889,15,26,15S52.808,55.965,58,47z"/>
<path fill="#FFE12C" d="M57.977,47C60.531,42.586,62,37.467,62,32H2c0,5.467,1.469,10.586,4.023,15H57.977z"/>
<polygon fill="#FFE12C" points="46.221,19.466 54.886,18.958 46.221,18.452 54.46,15.721 45.959,17.474 53.21,12.703 45.452,16.598 
	51.223,10.112 44.736,15.882 48.63,8.124 43.859,15.375 45.613,6.874 42.882,15.112 42.375,6.448 41.868,15.112 39.137,6.874 
	40.891,15.375 36.12,8.124 40.013,15.882 33.528,10.112 39.298,16.598 31.54,12.703 38.791,17.474 30.291,15.721 38.529,18.452 
	29.864,18.958 38.529,19.466 30.291,22.196 38.791,20.444 31.54,25.214 39.298,21.32 33.528,27.806 40.013,22.036 36.12,29.794 
	40.891,22.543 39.137,31.044 41.868,22.805 42.375,31.47 42.882,22.805 45.613,31.044 43.859,22.543 48.63,29.794 44.736,22.036 
	51.223,27.806 45.452,21.32 53.21,25.214 45.959,20.444 54.46,22.196 "/>
<circle fill="#FFE12C" cx="42.375" cy="18.958" r="3.696"/>
<path fill="#0FB4D4" d="M42.375,23.037c-2.249,0-4.077-1.83-4.077-4.079c0-2.248,1.828-4.078,4.077-4.078s4.077,1.83,4.077,4.078
	C46.452,21.207,44.624,23.037,42.375,23.037z M42.375,15.645c-1.827,0-3.314,1.486-3.314,3.313c0,1.828,1.487,3.315,3.314,3.315
	s3.314-1.487,3.314-3.315C45.689,17.131,44.202,15.645,42.375,15.645z"/>
<path opacity="0.1" fill="#1A1626" d="M50.737,8.591c4.097,5.13,6.563,11.622,6.563,18.701c0,16.567-13.429,30.003-29.995,30.003
	c-7.1,0-13.609-2.479-18.744-6.594C14.055,57.58,22.503,62,32.004,62c16.565,0,29.994-13.432,29.994-30
	C61.998,22.527,57.596,14.09,50.737,8.591z"/>
<path opacity="0.3" fill-rule="evenodd" clip-rule="evenodd" fill="#FFFFFF" d="M9.734,19.015c0.549,3.865,7.768-3.7,15.08-10.202
	C29.531,4.63,8.084,7.385,9.734,19.015z"/>
</svg>
