<?xml version="1.0" encoding="utf-8"?>
<!-- Generator: Adobe Illustrator 15.0.0, SVG Export Plug-In . SVG Version: 6.00 Build 0)  -->
<!DOCTYPE svg PUBLIC "-//W3C//DTD SVG 1.1//EN" "http://www.w3.org/Graphics/SVG/1.1/DTD/svg11.dtd">
<svg version="1.1" id="Layer_1" xmlns="http://www.w3.org/2000/svg" xmlns:xlink="http://www.w3.org/1999/xlink" x="0px" y="0px"
	 width="64px" height="64px" viewBox="0 0 64 64" enable-background="new 0 0 64 64" xml:space="preserve">
<circle fill="#006DAE" cx="32" cy="32" r="30"/>
<path fill="#8C8A8C" d="M37.446,47.896l-1.128-8.348l-1.283-11.54c0,0-0.051-0.758-0.102-1.514
	c-0.052-0.756-0.283-0.986-0.525-1.191l-0.143,0.027c1.697-0.709,1.475-2.9,1.475-2.9s0.525-0.641,0.437-1.691
	c-0.09-1.053-1.923-1.168-1.923-1.168c-0.014,0.027-3.949-0.051-5.244,0.014s-1.475,1.09-1.475,1.09s0.103,1.295,0.462,3.129
	c0.358,1.832,1.243,1.615,1.243,1.615s0.262,0.016,0.68,0.031c-0.313,0.002-0.559,0.006-0.692,0.02
	c-0.653,0.244-0.808,1.873-0.808,1.873L27.1,39.549l-1.359,9.654c0,0,0.205,0.961,1.461,1.359c0.18,0.73,1.193,1.078,1.642,1.141
	c0.449,0.064,1.448-0.32,2.026-0.371c0.576-0.053,1.525,0.346,1.795,0.359c0.295,0.012,3.281-0.322,3.833-1.475
	c0.757-0.078,1.026-1.025,1.026-1.025L37.446,47.896z"/>
<path fill="#F5F5F5" d="M51.296,31.296c0.015,0.016,1.825-1.768-0.42-3.563c0.97-1.826-0.203-2.275-0.203-2.275
	s0.564-1.477-0.971-1.549c0.754-1.174-0.971-2.479-0.971-2.479s0.275-1.795-2.448-1.984c0.652-2.984-2.346-2.303-2.346-2.303
	s0.549-2.492-3.26-2.145c-0.841-2.086-2.637-1.174-2.637-1.174s-1.115-1.535-2.42-0.68c-0.984-1.217-2.262-0.254-2.62-0.113
	c-0.987-0.24-2.515-1.424-3.231-0.191c-0.565-0.232-1.695,0.508-1.695,0.508s-1.781-1.203-2.984,1.145
	c-2.361-0.928-2.896,0.998-2.896,0.998s-1.738-0.318-2.231,1.275c-2.55-0.174-2.593,1.607-2.593,1.607s-1.623,0.059-1.768,2.305
	c-2.318,0.926-1.463,3.143-1.463,3.143s-1.623,0.652-1.333,3.375c-1.796,1.275-0.029,3.072-0.029,3.072s-1.376,0.941-0.101,2.825
	c-1.71,1.318,0.506,2.463,0.506,2.463s-0.999,1.115,0.609,2.086c-0.869,2.217,0.811,2.246,1.057,2.332
	c-0.063,0.387,0.092,0.773,0.508,0.941c0,0-0.145,1.855,1.752,1.682c-0.304,0.768,0.508,1.129,0.521,1.143
	c0.016,0.016-0.043,1.564,1.797,1.189c0.449,1.506,1.318,1.172,1.361,1.172c0.044,0-0.564,1.813,2.188,1.885
	c1.174,1.26,2.753,1.26,2.753,1.26s1.058-4.883,0.812-5.605c-0.246-0.725-2.115-0.232-2.115-0.232s-0.29-1.551-2.304-1.506
	c0.435-0.869-0.666-0.914-0.666-0.914s1.115-1.303-1.245-1.564c0.332-1.549-0.349-1.375-1.117-1.723
	c-0.014-0.564,0.363-1.521-0.84-1.912c1.059-1.393-0.623-2.145-0.623-2.145s0.885-2.102-0.332-2.42
	c1.26-1.303,0.332-2.463,0.332-2.463s0.869-1.027,0.537-1.867c0.941-0.479,0.84-1.971,0.84-1.971s1.043-0.262,1.304-1.797
	c1.999-0.348,1.825-1.652,1.825-1.652s1.666-0.027,1.999-1.506c1.448,0.406,2.347-1.188,2.347-1.188s1.058,0.521,2.246-0.682
	c0.666,1.029,2.68-0.303,2.68-0.303s0.854,0.998,2.391,0.043c0.768,1.23,2.057,0.594,2.057,0.594s0.391,0.826,1.289,0.361
	c0.464,1.754,2.781,1.131,2.796,1.131s0.145,1.158,1.318,0.971c0.218,1.549,1.999,1.188,1.999,1.188s0.232,1.869,1.391,2.072
	c-0.508,1.68,0.898,2.043,0.898,2.043s-0.42,1.23,0.869,2.316c-1.217,0.695,0.145,3.115,0.158,3.145
	c0.016,0.027-1.07,1.158-0.26,2.709c-1.332,0.449-1.072,2.404-1.072,2.404s-1.275,1.043-1.332,2.303
	c-2.102,0.406-1.941,2.26-1.941,2.26s-1.638,0.131-2.072,1.811c-1.448-0.303-2.955,1.289-2.955,1.289l0.565,4.305
	c0.058,0.027,3.011,0.623,3.622-1.377c2.52,0.666,2.709-1.826,2.709-1.826s1.982-0.109,2.057-1.465
	c1.897-0.928,1.391-1.809,1.391-1.809s1.912-0.246,1.941-2.273c1.506-0.494,1.158-2.217,1.158-2.217s1.348-0.682,1.015-3.348
	C52.498,32.746,51.281,31.283,51.296,31.296z"/>
<polygon fill="#F5F5F5" points="31.846,36.158 38.538,41.021 35.982,33.15 42.675,28.287 34.402,28.287 31.845,20.417 
	29.289,28.287 21.016,28.287 27.708,33.15 25.152,41.02 "/>
<path fill="#FFE12C" d="M37.273,46.842c0,0,8.59-2.428,11.184-12.971c-1.506,10.822-10.904,14.252-10.904,14.252l-0.279-1.283
	V46.842z"/>
<path fill="#FFE12C" d="M26.014,46.613c0,0-8.512-2.471-11.081-13.203c1.492,11.016,10.806,14.508,10.806,14.508l0.276-1.307
	L26.014,46.613z"/>
<polygon fill="#E81C27" points="48.79,29.759 48.125,29.841 47.896,30.722 48.334,31.521 49,31.437 49.227,30.556 "/>
<polygon fill="#E81C27" points="48.857,29.691 49.084,28.808 48.647,28.011 47.982,28.095 47.754,28.976 48.191,29.773 "/>
<polygon fill="#E81C27" points="48.58,27.839 48.73,26.943 48.225,26.187 47.568,26.328 47.42,27.226 47.925,27.982 "/>
<polygon fill="#E81C27" points="48.168,25.898 48.084,24.994 47.402,24.392 46.803,24.695 46.889,25.601 47.569,26.203 "/>
<polygon fill="#E81C27" points="47.477,24.333 47.393,23.429 46.71,22.828 46.111,23.13 46.197,24.037 46.879,24.638 "/>
<polygon fill="#E81C27" points="46.408,21.855 45.68,21.314 45.109,21.667 45.27,22.562 46,23.105 46.57,22.751 "/>
<polygon fill="#E81C27" points="45.316,20.339 44.537,19.871 44.004,20.277 44.25,21.154 45.029,21.623 45.563,21.214 "/>
<polygon fill="#E81C27" points="44.013,18.927 43.174,18.576 42.705,19.054 43.076,19.886 43.914,20.236 44.383,19.757 "/>
<polygon fill="#E81C27" points="42.545,17.625 41.677,17.353 41.254,17.875 41.699,18.667 42.568,18.939 42.99,18.417 "/>
<polygon fill="#E81C27" points="40.989,16.587 40.089,16.462 39.758,17.046 40.329,17.755 41.23,17.878 41.561,17.294 "/>
<polygon fill="#E81C27" points="39.248,15.666 38.34,15.625 38.064,16.236 38.697,16.888 39.605,16.931 39.883,16.318 "/>
<polygon fill="#E81C27" points="37.541,14.978 36.633,14.998 36.398,15.626 37.074,16.236 37.982,16.216 38.217,15.587 "/>
<polygon fill="#E81C27" points="35.807,14.435 34.902,14.523 34.717,15.167 35.437,15.722 36.342,15.634 36.527,14.99 "/>
<polygon fill="#E81C27" points="33.018,14.335 32.933,15.001 33.729,15.439 34.609,15.212 34.693,14.546 33.896,14.109 "/>
<polygon fill="#E81C27" points="31.154,14.304 31.127,14.974 31.959,15.343 32.816,15.041 32.844,14.371 32.012,14.003 "/>
<polygon fill="#E81C27" points="29.428,14.365 29.4,15.035 30.231,15.404 31.09,15.103 31.117,14.433 30.285,14.064 "/>
<polygon fill="#E81C27" points="28.262,14.304 27.512,14.818 27.661,15.472 28.561,15.611 29.31,15.095 29.16,14.441 "/>
<polygon fill="#E81C27" points="26.42,14.765 25.715,15.339 25.918,15.98 26.825,16.042 27.529,15.468 27.327,14.83 "/>
<polygon fill="#E81C27" points="24.74,15.484 24.109,16.14 24.387,16.75 25.295,16.705 25.926,16.05 25.648,15.439 "/>
<polygon fill="#E81C27" points="23.064,16.343 22.492,17.05 22.82,17.634 23.722,17.511 24.295,16.806 23.966,16.22 "/>
<polygon fill="#E81C27" points="21.479,17.417 20.986,18.183 21.377,18.728 22.26,18.509 22.752,17.744 22.361,17.199 "/>
<polygon fill="#E81C27" points="20.012,18.531 19.586,19.333 20.021,19.843 20.882,19.55 21.309,18.748 20.873,18.236 "/>
<polygon fill="#E81C27" points="18.718,19.882 18.35,20.714 18.82,21.193 19.658,20.837 20.025,20.005 19.555,19.529 "/>
<polygon fill="#E81C27" points="17.603,21.386 17.307,22.246 17.814,22.683 18.619,22.259 18.916,21.4 18.408,20.962 "/>
<polygon fill="#E81C27" points="16.584,22.925 16.38,23.812 16.933,24.193 17.688,23.687 17.891,22.8 17.338,22.419 "/>
<polygon fill="#E81C27" points="15.734,24.671 15.686,25.58 16.296,25.861 16.953,25.23 17,24.324 16.391,24.042 "/>
<polygon fill="#E81C27" points="15.658,25.81 15.062,26.496 15.096,27.406 15.729,27.628 16.326,26.943 16.291,26.035 "/>
<polygon fill="#E81C27" points="15.803,27.736 15.148,27.587 14.633,28.337 14.772,29.236 15.13,29.318 14.889,29.3 14.478,29.951 
	14.733,30.65 15.401,30.699 15.813,30.05 15.557,29.349 15.456,29.343 15.941,28.636 "/>
<polygon fill="#FFE12C" points="47.835,27.511 48.495,27.302 47.986,26.572 "/>
<polygon fill="#FFE12C" points="48.16,29.322 48.834,29.164 48.381,28.396 "/>
<polygon fill="#FFE12C" points="47.393,25.861 47.977,25.49 47.299,24.912 "/>
<polygon fill="#FFE12C" points="46.586,24.212 47.172,23.843 46.493,23.265 46.586,24.212 "/>
<polygon fill="#FFE12C" points="44.654,21.195 45.172,20.736 44.41,20.275 "/>
<polygon fill="#FFE12C" points="43.391,19.878 43.892,19.402 43.113,18.968 "/>
<polygon fill="#FFE12C" points="40.737,17.64 41.066,17.031 40.192,16.859 "/>
<polygon fill="#FFE12C" points="42.117,18.675 42.547,18.132 41.717,17.812 "/>
<polygon fill="#FFE12C" points="39.161,16.769 39.426,16.13 38.538,16.05 "/>
<polygon fill="#FFE12C" points="37.55,16.066 37.721,15.396 36.831,15.443 "/>
<polygon fill="#FFE12C" points="35.814,15.529 35.928,14.845 35.045,14.968 "/>
<polygon fill="#FFE12C" points="28.771,15.326 28.596,14.658 27.84,15.128 "/>
<polygon fill="#FFE12C" points="30.51,15.097 30.427,14.41 29.614,14.775 "/>
<polygon fill="#FFE12C" points="23.795,17.199 23.409,16.623 22.851,17.318 "/>
<polygon fill="#FFE12C" points="25.371,16.394 25.057,15.775 24.418,16.396 "/>
<polygon fill="#FFE12C" points="20.863,19.24 20.366,18.757 19.965,19.552 "/>
<polygon fill="#FFE12C" points="22.262,18.095 21.805,17.576 21.342,18.337 "/>
<polygon fill="#FFE12C" points="19.621,20.464 19.082,20.029 18.754,20.857 "/>
<polygon fill="#FFE12C" points="18.507,21.91 17.931,21.525 17.68,22.38 "/>
<polygon fill="#FFE12C" points="17.575,23.386 16.947,23.095 16.83,23.978 "/>
<polygon fill="#FFE12C" points="16.757,24.964 16.096,24.757 16.095,25.648 16.757,24.964 "/>
<polygon fill="#FFE12C" points="16.102,26.585 15.417,26.484 15.557,27.365 "/>
<polygon fill="#FFE12C" points="15.664,28.39 14.975,28.335 15.172,29.205 "/>
<polygon fill="#FFE12C" points="15.485,29.892 14.796,29.943 15.084,30.595 "/>
<polygon fill="#FFE12C" points="45.867,22.744 46.393,22.292 45.638,21.82 "/>
<polygon fill="#FFE12C" points="48.357,31.156 49.031,30.998 48.58,30.23 "/>
<polygon fill="#FFE12C" points="36.549,18.189 37.93,16.771 36.838,16.132 "/>
<polygon fill="#FFE12C" points="27.027,18.527 27.543,16.615 26.277,16.589 "/>
<polygon fill="#FFE12C" points="25.141,19.095 25.658,17.183 24.392,17.158 "/>
<polygon fill="#FFE12C" points="23.049,19.74 23.564,17.83 22.299,17.804 "/>
<polygon fill="#FFE12C" points="21.576,21.212 22.093,19.3 20.826,19.275 "/>
<polygon fill="#FFE12C" points="20.025,22.634 20.543,20.722 19.277,20.697 "/>
<polygon fill="#FFE12C" points="23.59,14.357 22.577,16.058 23.789,16.425 "/>
<polygon fill="#FFE12C" points="26.689,13.402 25.678,15.103 26.89,15.468 "/>
<polygon fill="#FFE12C" points="15.138,21.769 16.145,23.474 17.047,22.587 "/>
<polygon fill="#FFE12C" points="13.59,25.732 14.313,27.574 15.346,26.841 "/>
<polygon fill="#FFE12C" points="17.16,30.158 15.838,28.683 15.128,29.732 "/>
<polygon fill="#FFE12C" points="16.42,28.244 16.973,26.343 15.708,26.292 "/>
<polygon fill="#FFE12C" points="38.744,19.146 40.127,17.726 39.033,17.087 "/>
<polygon fill="#FFE12C" points="41.994,20.767 42.382,18.824 41.117,18.884 "/>
<polygon fill="#FFE12C" points="50.861,29.972 49.537,28.5 48.828,29.548 "/>
<polygon fill="#FFE12C" points="46.525,30.658 47.273,28.826 48.295,29.572 "/>
<polygon fill="#FFE12C" points="45.828,18.113 43.848,18.121 44.156,19.347 "/>
<polygon fill="#FFE12C" points="43.297,15.996 41.316,16.001 41.625,17.23 "/>
<polygon fill="#FFE12C" points="39.521,13.976 38.488,15.666 39.695,16.044 "/>
<polygon fill="#FFE12C" points="37.064,13.384 37.058,15.365 38.287,15.064 "/>
<polygon fill="#FFE12C" points="30.091,17.634 30.744,15.765 29.484,15.648 "/>
<polygon fill="#FFE12C" points="44.552,23.425 44.939,21.484 43.675,21.542 44.552,23.425 "/>
<path fill="#529320" d="M18.633,20.529c0.979,0.979-1.01,3.629,0.058,5.156C18.635,24.972,19.624,20.529,18.633,20.529z"/>
<path fill="#529320" d="M18.32,20.775c-1.54,1.436-1.081,4.299-1.199,6.227C17.156,26.412,18.818,21.273,18.32,20.775z"/>
<path fill="#529320" d="M45.984,21.312c-0.932,0-0.018,4.84-0.271,5.623C47.17,25.275,44.936,22.361,45.984,21.312z"/>
<path fill="#529320" d="M47.244,24.083c-1.627,2.002,1.277,3.641,1.158,5.594C48.529,27.601,46.859,26.142,47.244,24.083z"/>
<path fill="#529320" d="M32.9,14.734c-0.535-0.43-1.265-0.488-1.862,0.307c1.847-0.43,2.378,1.615,1.268,2.801
	c1.534-0.447,1.563-1.766,1.015-2.629c1.133,0.309,1.531,1.324,1.373,2.613C36.578,16.804,34.383,13.841,32.9,14.734z"/>
<path fill="#529320" d="M48.866,31.949l-0.001-0.018l0.001,0.016l-0.001-0.016c-0.269,1.692-1.901,5.94-0.83,7.415
	c-0.346-0.963,0.619-2.895,0.949-3.877c-0.03,0.6,0.042,1.178,0.43,1.711C48.746,35.32,50.504,33.92,48.866,31.949z M48.866,31.949
	l0.001,0.02L48.866,31.949z M48.867,31.951c0.322,0.623,0.346,1.264,0.291,1.899C49.091,33.248,48.916,32.679,48.867,31.951z"/>
<path fill="#529320" d="M14.293,32.306c-0.005,0.07-0.008,0.123-0.011,0.156L14.293,32.306z"/>
<path fill="#529320" d="M15.31,39.514c1.204-1.652-0.715-5.395-1.013-7.274C14.133,34.818,15.55,37.023,15.31,39.514z"/>
<path fill="#529320" d="M14.282,32.462"/>
<path fill="#529320" d="M14.438,38.797c1.248-1.717-0.971-4.324-0.143-6.538l-0.002,0.047l0.002-0.047l0.002-0.004h-0.002
	l0.002-0.016l-0.002,0.016C12.128,34.869,15.289,36.43,14.438,38.797z"/>
<path opacity="0.1" fill="#1A1626" d="M50.736,8.591c4.097,5.129,6.563,11.621,6.563,18.701c0,16.569-13.428,30.002-29.994,30.002
	c-7.101,0-13.609-2.477-18.744-6.594C14.055,57.58,22.502,62,32.003,62c16.565,0,29.995-13.432,29.995-30
	C61.998,22.527,57.595,14.089,50.736,8.591z"/>
<path opacity="0.3" fill-rule="evenodd" clip-rule="evenodd" fill="#FFFFFF" d="M9.734,19.015c0.549,3.865,7.767-3.701,15.08-10.203
	C29.531,4.63,8.083,7.384,9.734,19.015z"/>
</svg>
