<?xml version="1.0" encoding="utf-8"?>
<!-- Generator: Adobe Illustrator 15.0.0, SVG Export Plug-In . SVG Version: 6.00 Build 0)  -->
<!DOCTYPE svg PUBLIC "-//W3C//DTD SVG 1.1//EN" "http://www.w3.org/Graphics/SVG/1.1/DTD/svg11.dtd">
<svg version="1.1" id="Layer_1" xmlns="http://www.w3.org/2000/svg" xmlns:xlink="http://www.w3.org/1999/xlink" x="0px" y="0px"
	 width="64px" height="64px" viewBox="0 0 64 64" enable-background="new 0 0 64 64" xml:space="preserve">
<path fill="#529320" d="M17,58V6C8.036,11.193,2,20.888,2,32C2,43.111,8.036,52.809,17,58z"/>
<path fill="#E81C27" d="M32,2C26.533,2,21.414,3.47,17,6.023v51.954C21.414,60.531,26.533,62,32,62c16.568,0,30-13.432,30-30
	C62,15.431,48.568,2,32,2z"/>
<path fill="#FFE12C" d="M17,20c-6.627,0-12,5.373-12,12c0,6.627,5.373,12,12,12s12-5.373,12-12C29,25.373,23.627,20,17,20z M17,42.5
	c-5.798,0-10.5-4.701-10.5-10.5c0-5.799,4.702-10.5,10.5-10.5c5.797,0,10.5,4.701,10.5,10.5C27.5,37.799,22.797,42.5,17,42.5z"/>
<path fill="#FFE12C" d="M21.104,43.682c-0.194,0.195-0.513,0.195-0.707,0L6.674,25.619c-0.194-0.193-0.194-0.512,0-0.707
	l0.354-0.354c0.194-0.193,0.513-0.193,0.707,0l13.724,18.063c0.194,0.195,0.194,0.514,0,0.707L21.104,43.682z"/>
<path fill="#FFE12C" d="M17.25,19.5c0.275,0,0.5,0.225,0.5,0.5v24c0,0.275-0.225,0.5-0.5,0.5h-0.5c-0.274,0-0.5-0.225-0.5-0.5V20
	c0-0.275,0.226-0.5,0.5-0.5H17.25z"/>
<path fill="#FFE12C" d="M28.947,33.346L17,31.238v1.523l11.688,2.061c0.27,0.049,0.531-0.135,0.578-0.406l0.088-0.492
	C29.4,33.654,29.219,33.393,28.947,33.346z"/>
<path fill="#FFE12C" d="M17,31.085l-9.399-6.582c-0.226-0.158-0.539-0.104-0.696,0.121l-0.287,0.41
	c-0.157,0.225-0.103,0.539,0.123,0.697L17,32.916V31.085z"/>
<path fill="#FFE12C" d="M16.581,30.001l-9.373,9.395c-0.194,0.195-0.194,0.514,0,0.707l0.354,0.354c0.194,0.195,0.513,0.195,0.707,0
	l8.313-8.333V30.001z"/>
<path fill="#FFE12C" d="M17,25.55L4.476,31.39c-0.249,0.115-0.358,0.414-0.242,0.664l0.211,0.453
	c0.117,0.248,0.416,0.357,0.665,0.242L17,27.205V25.55z"/>
<path fill="#FFE12C" d="M28.076,27.179l-11.948-2.107v1.523l11.687,2.061c0.271,0.049,0.531-0.135,0.58-0.404l0.086-0.494
	C28.529,27.488,28.346,27.226,28.076,27.179z"/>
<path fill="#FFE12C" d="M16.882,38.875c-0.249,0.115-0.357,0.414-0.241,0.664l0.211,0.453c0.116,0.248,0.415,0.357,0.664,0.242
	l9.969-4.648l0.539-1.906L16.882,38.875z"/>
<polygon fill="#FFE12C" points="16.907,35.492 5.702,31.414 5.702,33.008 16.907,37.086 "/>
<path fill="#FFE12C" d="M9.125,38.754v1.504l14.809,0.988c0.561-0.418,1.084-0.885,1.561-1.395L9.125,38.754z"/>
<path fill="#F5F5F5" d="M12,27v7c0,2.762,2.238,5,5,5s5-2.238,5-5v-7H12z"/>
<path fill="#E81C27" d="M17,41c-3.859,0-7-3.139-7-7v-9h14v9C24,37.861,20.86,41,17,41z M14,29v5c0,1.654,1.346,3,3,3s3-1.346,3-3
	v-5H14z"/>
<path fill="#014D87" d="M16.138,29.363v1.654c0,0.252,0.207,0.459,0.46,0.459h0.806c0.252,0,0.459-0.207,0.459-0.459v-1.654H16.138z
	"/>
<path fill="#014D87" d="M16.138,31.863v1.655c0,0.252,0.207,0.459,0.46,0.459h0.806c0.252,0,0.459-0.207,0.459-0.459v-1.655H16.138z
	"/>
<path fill="#014D87" d="M14.125,31.863v1.655c0,0.252,0.207,0.459,0.46,0.459h0.806c0.253,0,0.46-0.207,0.46-0.459v-1.655H14.125z"
	/>
<path fill="#014D87" d="M18.15,31.863v1.655c0,0.252,0.207,0.459,0.46,0.459h0.805c0.253,0,0.46-0.207,0.46-0.459v-1.655H18.15z"/>
<path fill="#014D87" d="M16.138,34.305v1.654c0,0.254,0.207,0.461,0.46,0.461h0.806c0.252,0,0.459-0.207,0.459-0.461v-1.654H16.138z
	"/>
<circle fill="#F5F5F5" cx="17" cy="32.916" r="0.249"/>
<circle fill="#F5F5F5" cx="16.594" cy="33.416" r="0.249"/>
<circle fill="#F5F5F5" cx="17.414" cy="33.416" r="0.249"/>
<circle fill="#F5F5F5" cx="16.594" cy="32.421" r="0.249"/>
<circle fill="#F5F5F5" cx="17.414" cy="32.421" r="0.249"/>
<circle fill="#F5F5F5" cx="16.993" cy="30.408" r="0.249"/>
<circle fill="#F5F5F5" cx="16.586" cy="30.91" r="0.249"/>
<circle fill="#F5F5F5" cx="17.406" cy="30.91" r="0.249"/>
<circle fill="#F5F5F5" cx="16.586" cy="29.916" r="0.249"/>
<circle fill="#F5F5F5" cx="17.406" cy="29.916" r="0.249"/>
<circle fill="#F5F5F5" cx="19.009" cy="32.916" r="0.249"/>
<circle fill="#F5F5F5" cx="18.603" cy="33.416" r="0.249"/>
<circle fill="#F5F5F5" cx="19.422" cy="33.416" r="0.249"/>
<circle fill="#F5F5F5" cx="18.603" cy="32.421" r="0.249"/>
<circle fill="#F5F5F5" cx="19.422" cy="32.421" r="0.249"/>
<circle fill="#F5F5F5" cx="14.984" cy="32.912" r="0.249"/>
<circle fill="#F5F5F5" cx="14.578" cy="33.412" r="0.249"/>
<circle fill="#F5F5F5" cx="15.398" cy="33.412" r="0.249"/>
<circle fill="#F5F5F5" cx="14.578" cy="32.417" r="0.249"/>
<circle fill="#F5F5F5" cx="15.398" cy="32.417" r="0.249"/>
<circle fill="#F5F5F5" cx="16.997" cy="35.359" r="0.249"/>
<circle fill="#F5F5F5" cx="16.59" cy="35.859" r="0.249"/>
<circle fill="#F5F5F5" cx="17.41" cy="35.859" r="0.249"/>
<circle fill="#F5F5F5" cx="16.59" cy="34.865" r="0.249"/>
<circle fill="#F5F5F5" cx="17.41" cy="34.865" r="0.249"/>
<polygon fill="#FFE12C" points="16,28 18,28 17.75,27 17.75,26 17.987,26 17.987,25.55 17.737,25.55 17.737,25.775 17.578,25.775 
	17.578,25.55 17.328,25.55 17.328,25.775 17.117,25.775 17.117,25.55 16.867,25.55 16.867,25.775 16.672,25.775 16.672,25.55 
	16.422,25.55 16.422,25.775 16.25,25.775 16.25,25.55 16,25.55 16,26 16.125,26 16.25,26 16.25,27 "/>
<g>
	<path fill="#302C3B" d="M17.295,28h-0.1v-0.436c0-0.107-0.088-0.193-0.195-0.193s-0.194,0.086-0.194,0.193V28h-0.1v-0.436
		c0-0.162,0.132-0.293,0.294-0.293c0.163,0,0.295,0.131,0.295,0.293V28z"/>
</g>
<g>
	<path fill="#302C3B" d="M16.967,26.917h-0.589v-0.484c0-0.162,0.132-0.295,0.294-0.295c0.163,0,0.295,0.133,0.295,0.295V26.917z
		 M16.478,26.818h0.39v-0.385c0-0.107-0.088-0.195-0.195-0.195s-0.194,0.088-0.194,0.195V26.818z"/>
</g>
<g>
	<path fill="#302C3B" d="M17.622,26.917h-0.589v-0.484c0-0.162,0.132-0.295,0.295-0.295c0.162,0,0.294,0.133,0.294,0.295V26.917z
		 M17.133,26.818h0.39v-0.385c0-0.107-0.087-0.195-0.194-0.195s-0.195,0.088-0.195,0.195V26.818z"/>
</g>
<polygon fill="#FFE12C" points="11,28 13,28 12.75,27 12.75,26 12.987,26 12.987,25.55 12.737,25.55 12.737,25.775 12.578,25.775 
	12.578,25.55 12.328,25.55 12.328,25.775 12.117,25.775 12.117,25.55 11.867,25.55 11.867,25.775 11.672,25.775 11.672,25.55 
	11.422,25.55 11.422,25.775 11.25,25.775 11.25,25.55 11,25.55 11,26 11.125,26 11.25,26 11.25,27 "/>
<g>
	<path fill="#302C3B" d="M12.295,28h-0.1v-0.436c0-0.107-0.088-0.193-0.195-0.193s-0.194,0.086-0.194,0.193V28h-0.1v-0.436
		c0-0.162,0.132-0.293,0.294-0.293c0.163,0,0.295,0.131,0.295,0.293V28z"/>
</g>
<g>
	<path fill="#302C3B" d="M11.967,26.917h-0.589v-0.484c0-0.162,0.132-0.295,0.294-0.295c0.163,0,0.295,0.133,0.295,0.295V26.917z
		 M11.478,26.818h0.39v-0.385c0-0.107-0.088-0.195-0.195-0.195s-0.194,0.088-0.194,0.195V26.818z"/>
</g>
<g>
	<path fill="#302C3B" d="M12.622,26.917h-0.589v-0.484c0-0.162,0.132-0.295,0.295-0.295c0.162,0,0.294,0.133,0.294,0.295V26.917z
		 M12.133,26.818h0.39v-0.385c0-0.107-0.087-0.195-0.194-0.195s-0.195,0.088-0.195,0.195V26.818z"/>
</g>
<polygon fill="#FFE12C" points="11.033,33.896 13.033,33.896 12.783,32.896 12.783,31.896 13.021,31.896 13.021,31.445 
	12.771,31.445 12.771,31.671 12.611,31.671 12.611,31.445 12.361,31.445 12.361,31.671 12.15,31.671 12.15,31.445 11.9,31.445 
	11.9,31.671 11.705,31.671 11.705,31.445 11.455,31.445 11.455,31.671 11.283,31.671 11.283,31.445 11.033,31.445 11.033,31.896 
	11.158,31.896 11.283,31.896 11.283,32.896 "/>
<g>
	<path fill="#302C3B" d="M12.328,33.896h-0.1v-0.436c0-0.107-0.088-0.195-0.195-0.195s-0.194,0.088-0.194,0.195v0.436h-0.1v-0.436
		c0-0.162,0.132-0.295,0.294-0.295c0.163,0,0.295,0.133,0.295,0.295V33.896z"/>
</g>
<g>
	<path fill="#302C3B" d="M12,32.814h-0.589V32.33c0-0.164,0.132-0.295,0.294-0.295c0.163,0,0.295,0.131,0.295,0.295V32.814z
		 M11.511,32.714h0.39V32.33c0-0.107-0.088-0.195-0.195-0.195s-0.194,0.088-0.194,0.195V32.714z"/>
</g>
<g>
	<path fill="#302C3B" d="M12.655,32.814h-0.589V32.33c0-0.164,0.132-0.295,0.295-0.295c0.162,0,0.294,0.131,0.294,0.295V32.814z
		 M12.166,32.714h0.39V32.33c0-0.107-0.087-0.195-0.194-0.195s-0.195,0.088-0.195,0.195V32.714z"/>
</g>
<polygon fill="#FFE12C" points="21,34.021 23,34.021 22.75,33.021 22.75,32.021 22.986,32.021 22.986,31.57 22.736,31.57 
	22.736,31.796 22.578,31.796 22.578,31.57 22.328,31.57 22.328,31.796 22.117,31.796 22.117,31.57 21.867,31.57 21.867,31.796 
	21.672,31.796 21.672,31.57 21.422,31.57 21.422,31.796 21.25,31.796 21.25,31.57 21,31.57 21,32.021 21.125,32.021 21.25,32.021 
	21.25,33.021 "/>
<g>
	<path fill="#302C3B" d="M22.295,34.021h-0.1v-0.436c0-0.107-0.088-0.195-0.195-0.195s-0.194,0.088-0.194,0.195v0.436h-0.1v-0.436
		c0-0.162,0.132-0.295,0.294-0.295c0.163,0,0.295,0.133,0.295,0.295V34.021z"/>
</g>
<g>
	<path fill="#302C3B" d="M21.967,32.939h-0.589v-0.484c0-0.164,0.132-0.295,0.294-0.295c0.163,0,0.295,0.131,0.295,0.295V32.939z
		 M21.478,32.839h0.39v-0.385c0-0.107-0.088-0.195-0.195-0.195s-0.194,0.088-0.194,0.195V32.839z"/>
</g>
<g>
	<path fill="#302C3B" d="M22.621,32.939h-0.588v-0.484c0-0.164,0.132-0.295,0.295-0.295c0.162,0,0.293,0.131,0.293,0.295V32.939z
		 M22.133,32.839h0.389v-0.385c0-0.107-0.086-0.195-0.193-0.195s-0.195,0.088-0.195,0.195V32.839z"/>
</g>
<polygon fill="#FFE12C" points="21,28 23,28 22.75,27 22.75,26 22.986,26 22.986,25.55 22.736,25.55 22.736,25.775 22.578,25.775 
	22.578,25.55 22.328,25.55 22.328,25.775 22.117,25.775 22.117,25.55 21.867,25.55 21.867,25.775 21.672,25.775 21.672,25.55 
	21.422,25.55 21.422,25.775 21.25,25.775 21.25,25.55 21,25.55 21,26 21.125,26 21.25,26 21.25,27 "/>
<g>
	<path fill="#302C3B" d="M22.295,28h-0.1v-0.436c0-0.107-0.088-0.193-0.195-0.193s-0.194,0.086-0.194,0.193V28h-0.1v-0.436
		c0-0.162,0.132-0.293,0.294-0.293c0.163,0,0.295,0.131,0.295,0.293V28z"/>
</g>
<g>
	<path fill="#302C3B" d="M21.967,26.917h-0.589v-0.484c0-0.162,0.132-0.295,0.294-0.295c0.163,0,0.295,0.133,0.295,0.295V26.917z
		 M21.478,26.818h0.39v-0.385c0-0.107-0.088-0.195-0.195-0.195s-0.194,0.088-0.194,0.195V26.818z"/>
</g>
<g>
	<path fill="#302C3B" d="M22.621,26.917h-0.588v-0.484c0-0.162,0.132-0.295,0.295-0.295c0.162,0,0.293,0.133,0.293,0.295V26.917z
		 M22.133,26.818h0.389v-0.385c0-0.107-0.086-0.195-0.193-0.195s-0.195,0.088-0.195,0.195V26.818z"/>
</g>
<polygon fill="#FFE12C" points="14.214,39.555 15.628,38.139 14.744,37.609 14.037,36.902 14.205,36.734 13.887,36.416 
	13.71,36.594 13.869,36.752 13.757,36.865 13.598,36.705 13.421,36.883 13.58,37.041 13.431,37.191 13.271,37.031 13.095,37.209 
	13.254,37.367 13.116,37.506 12.957,37.346 12.78,37.523 12.939,37.682 12.817,37.803 12.658,37.645 12.481,37.82 12.8,38.139 
	12.889,38.051 12.977,37.963 13.684,38.67 "/>
<g>
	<path fill="#302C3B" d="M15.13,38.639l-0.071,0.07L14.751,38.4c-0.075-0.074-0.199-0.074-0.275,0c-0.075,0.076-0.075,0.201,0,0.277
		l0.308,0.307l-0.07,0.07l-0.308-0.307c-0.115-0.115-0.115-0.303,0-0.418c0.115-0.113,0.302-0.113,0.417,0L15.13,38.639z"/>
</g>
<g>
	<path fill="#302C3B" d="M14.133,38.105l-0.417,0.416l-0.343-0.342c-0.115-0.115-0.115-0.303,0-0.418
		c0.115-0.113,0.302-0.113,0.416,0L14.133,38.105z M13.716,38.381l0.275-0.275l-0.272-0.271c-0.075-0.076-0.199-0.076-0.275,0
		c-0.076,0.074-0.076,0.199,0,0.275L13.716,38.381z"/>
</g>
<g>
	<path fill="#302C3B" d="M14.596,37.643l-0.416,0.416l-0.343-0.344c-0.115-0.115-0.115-0.301,0-0.416s0.302-0.115,0.416,0
		L14.596,37.643z M14.18,37.918l0.275-0.275l-0.272-0.273c-0.076-0.076-0.199-0.076-0.275,0s-0.076,0.199,0,0.275L14.18,37.918z"/>
</g>
<polygon fill="#FFE12C" points="19.771,39.555 18.356,38.139 19.24,37.609 19.947,36.902 19.779,36.734 20.098,36.416 
	20.274,36.594 20.115,36.752 20.229,36.865 20.388,36.705 20.564,36.883 20.405,37.041 20.554,37.191 20.713,37.031 20.89,37.209 
	20.73,37.367 20.869,37.506 21.028,37.346 21.205,37.523 21.046,37.682 21.167,37.803 21.326,37.645 21.503,37.82 21.185,38.139 
	21.097,38.051 21.008,37.963 20.301,38.67 "/>
<g>
	<path fill="#302C3B" d="M18.855,38.639l0.07,0.07l0.308-0.309c0.076-0.074,0.199-0.074,0.275,0c0.076,0.076,0.076,0.201,0,0.277
		l-0.308,0.307l0.07,0.07l0.308-0.307c0.115-0.115,0.115-0.303,0-0.418c-0.114-0.113-0.301-0.113-0.416,0L18.855,38.639z"/>
</g>
<g>
	<path fill="#302C3B" d="M20.195,37.762c0.115-0.113,0.302-0.113,0.416,0c0.115,0.115,0.115,0.303,0,0.418l-0.343,0.342
		l-0.416-0.416L20.195,37.762z M20.541,38.109c0.076-0.076,0.076-0.201,0-0.275c-0.075-0.076-0.199-0.076-0.275,0l-0.272,0.271
		l0.275,0.275L20.541,38.109z"/>
</g>
<g>
	<path fill="#302C3B" d="M19.731,37.299c0.115-0.115,0.302-0.115,0.417,0c0.114,0.115,0.114,0.301,0,0.416l-0.343,0.344
		l-0.417-0.416L19.731,37.299z M20.077,37.645c0.076-0.076,0.076-0.199,0-0.275c-0.075-0.076-0.199-0.076-0.275,0l-0.272,0.273
		l0.276,0.275L20.077,37.645z"/>
</g>
<path opacity="0.1" fill="#1A1626" d="M50.736,8.591c4.096,5.129,6.563,11.621,6.563,18.701c0,16.569-13.428,30.002-29.994,30.002
	c-7.101,0-13.609-2.477-18.744-6.594C14.055,57.58,22.502,62,32.002,62c16.566,0,29.996-13.432,29.996-30
	C61.998,22.527,57.594,14.089,50.736,8.591z"/>
<path opacity="0.3" fill-rule="evenodd" clip-rule="evenodd" fill="#FFFFFF" d="M9.734,19.015c0.549,3.865,7.767-3.701,15.08-10.203
	C29.531,4.63,8.083,7.384,9.734,19.015z"/>
</svg>
