<?xml version="1.0" encoding="utf-8"?>
<!-- Generator: Adobe Illustrator 15.0.0, SVG Export Plug-In . SVG Version: 6.00 Build 0)  -->
<!DOCTYPE svg PUBLIC "-//W3C//DTD SVG 1.1//EN" "http://www.w3.org/Graphics/SVG/1.1/DTD/svg11.dtd">
<svg version="1.1" id="Layer_1" xmlns="http://www.w3.org/2000/svg" xmlns:xlink="http://www.w3.org/1999/xlink" x="0px" y="0px"
	 width="64px" height="64px" viewBox="0 0 64 64" enable-background="new 0 0 64 64" xml:space="preserve">
<circle fill="#0FB4D4" cx="32" cy="32" r="30"/>
<path fill="none" stroke="#FFE62E" stroke-width="2" stroke-miterlimit="10" d="M26.621,45.119"/>
<path fill="#FFE12C" d="M56.698,33.139c-0.666-0.408-1.466,0.148-1.507,0.77c-0.322,4.879-8.852,6.158-13.004,6.229
	c-4.127,0.068-12.899-1.439-13.226-6.229c-0.044-0.65-0.825-1.141-1.507-0.77c-2.072,1.131-2.797,3.211-2.308,5.252
	c0.916,3.824,5.603,6.496,9.607,7.67c-0.269,0.701-0.438,1.408-0.485,2.082c-0.06,0.844,1.098,1.086,1.709,0.629
	c2.26-1.688,5.881-2.367,8.871-2.408c1.29-0.018,1.292-1.797,0-1.779c-2.688,0.037-5.574,0.496-8.033,1.613
	c0.947-2.064,3-4.154,5.26-4.281c0.006-0.002,0.01-0.004,0.016-0.004c0.03,0,0.064,0.002,0.096,0.004
	c4.789,0.08,12.48-1.592,14.508-6.055c0.316,0.764,0.286,1.672,0.043,2.471c-0.988,3.25-4.529,4.521-7.758,5.395
	c-1.232,0.332-0.707,2.051,0.532,1.715c4.243-1.146,7.511-2.766,9.157-6.637C59.523,36.797,58.676,34.355,56.698,33.139z
	 M35.579,44.42c-3.253-0.9-5.826-2.516-7.776-5.08c-0.842-1.107-1.096-2.568-0.414-3.668c1.459,3.541,6.398,5.252,10.834,5.906
	C37.16,42.338,36.256,43.334,35.579,44.42z"/>
<g>
	<circle fill="#FFE12C" cx="42.001" cy="27" r="7.686"/>
</g>
<g id="r4">
	<g id="r">
		<path fill="#FFE12C" d="M42.001,18.268c0.456-0.006,0.628-0.293,0.628-0.635c0-0.457-0.628-2.633-0.628-2.633
			s-0.63,2.176-0.63,2.633C41.371,17.975,41.543,18.268,42.001,18.268z"/>
	</g>
	<g transform="rotate(90)">
		<g id="r_1_">
			<path fill="#FFE12C" d="M50.733,27c0.006,0.457,0.291,0.627,0.634,0.627C51.824,27.627,54,27,54,27s-2.176-0.629-2.633-0.629
				C51.024,26.371,50.733,26.543,50.733,27z"/>
		</g>
	</g>
	<g transform="rotate(180)">
		<g id="r_2_">
			<path fill="#FFE12C" d="M42.001,35.734c-0.458,0.006-0.63,0.289-0.63,0.631c0,0.457,0.63,2.635,0.63,2.635
				s0.628-2.178,0.628-2.635C42.629,36.023,42.457,35.734,42.001,35.734z"/>
		</g>
	</g>
	<g transform="rotate(270)">
		<g id="r_3_">
			<path fill="#FFE12C" d="M33.268,27c-0.006-0.457-0.291-0.629-0.635-0.629C32.177,26.371,30,27,30,27s2.177,0.627,2.633,0.627
				C32.977,27.627,33.268,27.457,33.268,27z"/>
		</g>
	</g>
</g>
<g id="r_4_">
	<path fill="#FFE12C" d="M45.343,18.932c0.425,0.166,0.692-0.029,0.822-0.346c0.176-0.424,0.428-2.672,0.428-2.672
		s-1.414,1.768-1.589,2.189C44.873,18.42,44.92,18.756,45.343,18.932z"/>
</g>
<g id="r_5_">
	<path fill="#FFE12C" d="M50.068,30.34c-0.17,0.426,0.028,0.695,0.346,0.824c0.422,0.174,2.673,0.426,2.673,0.426
		s-1.77-1.41-2.192-1.586C50.578,29.873,50.243,29.92,50.068,30.34z"/>
</g>
<g id="r_6_">
	<path fill="#FFE12C" d="M38.658,35.068c-0.424-0.168-0.691,0.029-0.822,0.346c-0.175,0.422-0.428,2.674-0.428,2.674
		s1.414-1.771,1.588-2.193C39.128,35.578,39.081,35.242,38.658,35.068z"/>
</g>
<g id="r_7_">
	<path fill="#FFE12C" d="M33.932,23.658c0.17-0.426-0.027-0.691-0.344-0.824c-0.424-0.174-2.674-0.426-2.674-0.426
		s1.771,1.414,2.191,1.586C33.422,24.125,33.758,24.078,33.932,23.658z"/>
</g>
<g id="r_8_">
	<path fill="#FFE12C" d="M48.175,20.824c0.327,0.318,0.651,0.24,0.894-0.004c0.322-0.322,1.418-2.307,1.418-2.307
		s-1.984,1.094-2.307,1.416C47.938,20.172,47.854,20.502,48.175,20.824z"/>
</g>
<g id="r_9_">
	<path fill="#FFE12C" d="M48.175,33.176c-0.317,0.328-0.237,0.648,0.005,0.893c0.322,0.322,2.307,1.416,2.307,1.416
		s-1.096-1.98-1.418-2.307C48.826,32.938,48.498,32.854,48.175,33.176z"/>
</g>
<g id="r_10_">
	<path fill="#FFE12C" d="M35.826,33.176c-0.328-0.32-0.65-0.238-0.893,0.002c-0.324,0.326-1.418,2.307-1.418,2.307
		s1.982-1.094,2.306-1.416C36.064,33.824,36.149,33.498,35.826,33.176z"/>
</g>
<g id="r_11_">
	<path fill="#FFE12C" d="M35.826,20.824c0.318-0.326,0.238-0.652-0.005-0.895c-0.323-0.322-2.306-1.416-2.306-1.416
		s1.094,1.984,1.418,2.307C35.176,21.064,35.502,21.148,35.826,20.824z"/>
</g>
<g id="r_12_">
	<path fill="#FFE12C" d="M50.068,23.658c0.181,0.418,0.51,0.467,0.826,0.336c0.423-0.172,2.192-1.586,2.192-1.586
		s-2.251,0.252-2.673,0.426C50.097,22.967,49.893,23.236,50.068,23.658z"/>
</g>
<g id="r_13_">
	<path fill="#FFE12C" d="M45.343,35.068c-0.421,0.18-0.47,0.51-0.339,0.826c0.175,0.422,1.589,2.193,1.589,2.193
		s-0.252-2.252-0.428-2.674C46.035,35.098,45.764,34.895,45.343,35.068z"/>
</g>
<g id="r_14_">
	<path fill="#FFE12C" d="M33.932,30.34c-0.18-0.418-0.51-0.467-0.826-0.336c-0.421,0.176-2.191,1.586-2.191,1.586
		s2.25-0.252,2.674-0.426C33.904,31.035,34.107,30.762,33.932,30.34z"/>
</g>
<g id="r_15_">
	<path fill="#FFE12C" d="M38.658,18.932c0.42-0.182,0.47-0.512,0.338-0.828c-0.174-0.422-1.588-2.189-1.588-2.189
		s0.253,2.248,0.428,2.672C37.967,18.902,38.236,19.104,38.658,18.932z"/>
</g>
<g id="r_16_">
	<path fill="#FFE12C" d="M43.705,18.434c0.449,0.082,0.672-0.164,0.738-0.5c0.09-0.447-0.102-2.705-0.102-2.705
		s-1.041,2.014-1.131,2.463C43.145,18.023,43.256,18.344,43.705,18.434z"/>
</g>
<g id="r_17_">
	<path fill="#FFE12C" d="M50.564,28.705c-0.083,0.447,0.164,0.672,0.5,0.736c0.449,0.092,2.705-0.102,2.705-0.102
		s-2.012-1.039-2.459-1.131C50.973,28.145,50.654,28.256,50.564,28.705z"/>
</g>
<g id="r_18_">
	<path fill="#FFE12C" d="M40.297,35.564c-0.449-0.082-0.673,0.164-0.74,0.5c-0.09,0.447,0.103,2.705,0.103,2.705
		s1.04-2.012,1.13-2.459C40.856,35.975,40.745,35.654,40.297,35.564z"/>
</g>
<g id="r_19_">
	<path fill="#FFE12C" d="M33.436,25.297c0.084-0.451-0.162-0.674-0.499-0.74c-0.448-0.088-2.705,0.102-2.705,0.102
		s2.011,1.039,2.459,1.131C33.027,25.855,33.346,25.744,33.436,25.297z"/>
</g>
<g id="r_20_">
	<path fill="#FFE12C" d="M46.852,19.736c0.383,0.25,0.686,0.109,0.875-0.178c0.254-0.379,0.939-2.539,0.939-2.539
		s-1.729,1.461-1.984,1.842C46.492,19.145,46.473,19.484,46.852,19.736z"/>
</g>
<g id="r_21_">
	<path fill="#FFE12C" d="M49.262,31.852c-0.25,0.383-0.107,0.686,0.178,0.875c0.381,0.256,2.538,0.941,2.538,0.941
		s-1.46-1.732-1.84-1.986C49.852,31.49,49.516,31.471,49.262,31.852z"/>
</g>
<g id="r_22_">
	<path fill="#FFE12C" d="M37.148,34.262c-0.383-0.25-0.685-0.105-0.875,0.178c-0.253,0.381-0.939,2.539-0.939,2.539
		s1.731-1.461,1.984-1.842C37.509,34.854,37.527,34.516,37.148,34.262z"/>
</g>
<g id="r_23_">
	<path fill="#FFE12C" d="M34.74,22.146c0.248-0.383,0.106-0.682-0.18-0.875c-0.379-0.252-2.537-0.939-2.537-0.939
		s1.461,1.732,1.84,1.984C34.148,22.508,34.484,22.527,34.74,22.146z"/>
</g>
<g id="r_24_">
	<path fill="#FFE12C" d="M49.262,22.146c0.258,0.379,0.59,0.361,0.876,0.17c0.38-0.252,1.84-1.984,1.84-1.984
		s-2.157,0.688-2.538,0.939C49.154,21.465,49.008,21.77,49.262,22.146z"/>
</g>
<g id="r_25_">
	<path fill="#FFE12C" d="M46.852,34.262c-0.376,0.258-0.359,0.592-0.17,0.875c0.255,0.381,1.984,1.842,1.984,1.842
		s-0.686-2.158-0.939-2.539C47.537,34.156,47.232,34.006,46.852,34.262z"/>
</g>
<g id="r_26_">
	<path fill="#FFE12C" d="M34.74,31.852c-0.26-0.379-0.592-0.361-0.877-0.17c-0.379,0.254-1.84,1.986-1.84,1.986
		s2.158-0.686,2.537-0.941C34.847,32.537,34.992,32.232,34.74,31.852z"/>
</g>
<g id="r_27_">
	<path fill="#FFE12C" d="M37.148,19.736c0.377-0.258,0.36-0.592,0.17-0.875c-0.253-0.381-1.984-1.842-1.984-1.842
		s0.687,2.16,0.939,2.539C36.464,19.846,36.768,19.992,37.148,19.736z"/>
</g>
<g id="r_28_">
	<path fill="#FFE12C" d="M50.564,25.297c0.096,0.445,0.408,0.559,0.746,0.492c0.447-0.092,2.459-1.131,2.459-1.131
		s-2.256-0.189-2.705-0.102C50.729,24.623,50.476,24.85,50.564,25.297z"/>
</g>
<g id="r_29_">
	<path fill="#FFE12C" d="M43.705,35.564c-0.448,0.096-0.561,0.41-0.494,0.746c0.09,0.447,1.131,2.459,1.131,2.459
		s0.191-2.258,0.102-2.705C44.377,35.729,44.152,35.477,43.705,35.564z"/>
</g>
<g id="r_30_">
	<path fill="#FFE12C" d="M33.436,28.705c-0.096-0.449-0.408-0.561-0.745-0.496c-0.448,0.092-2.459,1.131-2.459,1.131
		s2.257,0.193,2.705,0.102C33.273,29.377,33.525,29.152,33.436,28.705z"/>
</g>
<g id="r_31_">
	<path fill="#FFE12C" d="M40.297,18.434c0.447-0.096,0.56-0.41,0.492-0.742c-0.09-0.449-1.13-2.463-1.13-2.463
		s-0.192,2.258-0.103,2.705C39.624,18.27,39.848,18.521,40.297,18.434z"/>
</g>
<path fill="#FFE12C" d="M16.505,51.635h-1.112v3.697h-2.243c1.063,0.859,2.182,1.65,3.355,2.359V51.635z"/>
<path fill="#FFE12C" d="M15.393,8.668v3.699h1.112V6.309c-1.174,0.711-2.293,1.5-3.355,2.359H15.393z"/>
<path fill="#FFE12C" d="M12.945,8.83c-0.298,0.244-0.586,0.498-0.874,0.754l3.006,6.484h-2.521v-3.701h-1.111v3.701H8.923
	l2.91-6.277c-0.817,0.742-1.588,1.533-2.319,2.361L7.22,17.096l3.91,8.432H8.608v-3.703H7.495v9.814h1.113v-4.053h2.615L9.722,32
	l1.502,4.414H8.608v-4.051H7.495v9.809h1.113v-3.699h2.521l-3.91,8.432l2.294,4.943c0.731,0.828,1.502,1.621,2.319,2.363
	l-2.91-6.279h2.521v3.703h1.111v-3.703h2.521l-3.006,6.486c0.288,0.254,0.576,0.51,0.874,0.754l3.835-8.268l-3.91-8.432h2.522v3.699
	h1.112v-9.809h-1.112v4.051h-2.616L14.279,32l-1.503-4.414h2.616v4.053h1.112v-9.814h-1.112v3.703H12.87l3.91-8.432L12.945,8.83z
	 M15.077,45.875h-2.521v-3.703h-1.111v3.703H8.923L12,39.238L15.077,45.875z M12,35.246l-0.791-2.33h1.583L12,35.246z
	 M12.792,31.084h-1.583L12,28.756L12.792,31.084z M12,24.762l-3.077-6.637h2.521v3.699h1.111v-3.699h2.521L12,24.762z"/>
<path opacity="0.1" fill="#1A1626" d="M50.737,8.592c4.097,5.129,6.563,11.621,6.563,18.701c0,16.568-13.429,30.002-29.995,30.002
	c-7.101,0-13.609-2.477-18.744-6.594C14.055,57.58,22.503,62,32.004,62c16.565,0,29.994-13.432,29.994-30
	C61.998,22.527,57.596,14.09,50.737,8.592z"/>
<path opacity="0.3" fill-rule="evenodd" clip-rule="evenodd" fill="#FFFFFF" d="M9.734,19.016c0.549,3.865,7.767-3.701,15.08-10.203
	C29.531,4.631,8.083,7.385,9.734,19.016z"/>
</svg>
