<?xml version="1.0" encoding="utf-8"?>
<!-- Generator: Adobe Illustrator 15.0.0, SVG Export Plug-In . SVG Version: 6.00 Build 0)  -->
<!DOCTYPE svg PUBLIC "-//W3C//DTD SVG 1.1//EN" "http://www.w3.org/Graphics/SVG/1.1/DTD/svg11.dtd">
<svg version="1.1" id="Layer_1" xmlns="http://www.w3.org/2000/svg" xmlns:xlink="http://www.w3.org/1999/xlink" x="0px" y="0px"
	 width="64px" height="64px" viewBox="0 0 64 64" enable-background="new 0 0 64 64" xml:space="preserve">
<path fill="#E81C27" d="M62,32c0-13.061-8.35-24.166-20-28.285v56.572C53.65,56.168,62,45.063,62,32z"/>
<path fill="#529320" d="M2,32c0,13.063,8.35,24.168,20,28.287V3.715C10.35,7.834,2,18.939,2,32z"/>
<path fill="#F5F5F5" d="M42,3.715C38.872,2.608,35.507,2,32,2s-6.872,0.608-10,1.715v56.572C25.128,61.393,28.493,62,32,62
	s6.872-0.607,10-1.713V3.715z"/>
<path fill="#529320" d="M40.744,31.656c-0.065-0.265-0.156,0.069-0.168,0.207c-0.039-0.265-0.128-0.526-0.271-0.753v0
	c-0.288,0.296-0.369,0.68-0.397,1.079c-0.067-0.296-0.196-0.59-0.491-0.706h-0.002c0.168,0.277,0.107,0.477,0.076,0.786
	c-0.046,0.449,0.309,0.69,0.318,1.131c0.02,0.431-0.176,0.71-0.492,0.976c0.021-0.102,0.014-0.204,0.043-0.307
	c-1.011,0.352-0.811,0.938-0.77,1.764c0.043,0.875-0.488,0.714-1.098,1.177c0.098-0.222,0.102-0.468-0.02-0.678l-0.002,0.001
	c-0.044,0.557-0.768,0.644-0.922,1.143c-0.076,0.25-0.037,0.555-0.26,0.744c-0.188,0.121-0.48,0.287-0.531,0.525
	c-0.22-0.11-0.442-0.104-0.677-0.061c0.107-0.059,0.198-0.137,0.269-0.237c-1.02-0.458-1.314,0.555-2.17,0.722
	c-0.275-0.02-0.984-0.399-1.017,0.02c0.853-0.006,1.309,0.787,2.045,0.813c0.624,0.021,1.105-0.547,1.729-0.549l0.002-0.002
	c-0.058-0.041-0.404-0.191-0.657-0.189c0.473-0.269,0.786-0.914,1.366-0.918c1.049-0.008,1.48-0.234,1.822-1.188
	c-0.106-0.008-0.207,0.014-0.305,0.061c0-0.441,0.447-0.866,0.783-1.111c1.029-0.191,0.857-1.045,1.48-1.67
	c-0.246,0.012-0.42,0.133-0.594,0.312c0.037-0.599-0.143-1.159,0.434-1.575C41.042,32.61,40.931,32.429,40.744,31.656
	C40.731,31.602,40.771,31.763,40.744,31.656z M35.837,38.816l0.002-0.01L35.837,38.816z M38.401,36.656l-0.004,0.002L38.401,36.656z
	"/>
<path fill="#529320" d="M23.256,31.656c-0.187,0.773-0.298,0.955,0.474,1.514c0.576,0.416,0.396,0.977,0.434,1.575
	c-0.174-0.179-0.348-0.3-0.594-0.312c0.623,0.625,0.451,1.479,1.48,1.67c0.336,0.245,0.784,0.67,0.783,1.111
	c-0.096-0.047-0.197-0.068-0.305-0.061c0.342,0.953,0.773,1.18,1.822,1.188c0.58,0.004,0.894,0.649,1.367,0.918
	c-0.254-0.002-0.601,0.148-0.656,0.189v0.002c0.625,0.002,1.105,0.57,1.729,0.549c0.736-0.025,1.192-0.818,2.046-0.813
	c-0.033-0.419-0.742-0.039-1.018-0.02c-0.855-0.167-1.15-1.18-2.17-0.722c0.072,0.101,0.161,0.179,0.27,0.237
	c-0.235-0.044-0.458-0.05-0.677,0.061c-0.052-0.238-0.345-0.404-0.532-0.525c-0.223-0.189-0.184-0.494-0.26-0.744
	c-0.154-0.499-0.878-0.586-0.922-1.143v-0.001c-0.123,0.21-0.119,0.456-0.021,0.678c-0.608-0.463-1.141-0.302-1.098-1.177
	c0.041-0.826,0.241-1.412-0.77-1.764c0.029,0.103,0.021,0.205,0.043,0.307c-0.316-0.266-0.512-0.545-0.492-0.976
	c0.01-0.44,0.364-0.682,0.318-1.131c-0.031-0.31-0.093-0.509,0.076-0.786h-0.002c-0.295,0.116-0.424,0.41-0.491,0.706
	c-0.028-0.399-0.109-0.783-0.397-1.079v0c-0.143,0.227-0.231,0.488-0.271,0.753C23.412,31.725,23.321,31.391,23.256,31.656
	C23.229,31.763,23.269,31.602,23.256,31.656z M28.161,38.807l0.002,0.01L28.161,38.807z M25.603,36.658l-0.002-0.002L25.603,36.658z
	"/>
<path fill="#014D87" d="M34.656,37.648c-0.167-0.049-0.295-0.15-0.382-0.303c0.043-0.208,0.763-0.36,0.949-0.387
	c0.004-0.08,0.01-0.161,0.014-0.242c-1.33,0.415-5.223,0.651-6.006-0.688c-0.438,0.559-1.082,0.15-1.842-0.304
	c0.146,0.187,0.533,1.204,0.469,1.079c0.199,0.081,1.51,0.359,1.527,0.68c-0.07,0.144-0.181,0.23-0.334,0.262
	C31.217,38.55,32.487,38.764,34.656,37.648z"/>
<path fill="#E81C27" d="M33.373,37.712c0.085-0.105,0.142-0.241,0.142-0.378c0-0.039-0.072-0.265-0.065-0.271
	c0.218-0.239,0.036-0.729-0.315-0.561c-0.16,0.078-0.087,0.109-0.273,0.033c-0.062-0.025-0.127-0.066-0.194-0.069
	c-0.245-0.013-0.489-0.025-0.734-0.037c-0.208-0.011-0.491,0.007-0.724,0.019c-0.147,0.006-0.297-0.021-0.447-0.006
	c-0.16,0.017-0.224-0.056-0.357-0.103c-0.183-0.064-0.332,0.077-0.375,0.248c-0.045,0.172,0.131,0.214,0.131,0.343
	c-0.001,0.102-0.139,0.221-0.134,0.359c0.005,0.154,0.089,0.3,0.194,0.406c-0.41,0.338,0.049,0.832,0.375,0.469
	c0.086,0.227,0.446,0.211,0.652,0.219c0.356,0.014,0.716,0.016,1.074,0.016c0.204,0,0.63,0.056,0.746-0.164
	C33.442,38.543,33.773,37.897,33.373,37.712z"/>
<path fill="#014D87" d="M36.641,35.14c-0.841-1.042-1.243,0.495-2.139,0.446c0.218-1.152-1.575-0.824-2.12-0.48
	c0.125-0.139,0.199-0.323,0.318-0.466c-0.381,0.049-0.873,0.174-1.211-0.06c-0.615-0.426-1.434-0.626-1.874,0.12
	c-0.438-0.553-1.491-1.219-2.113-0.558c-0.007-0.623-0.567-1.485-1.282-1.391c-0.78,0.103-0.473,1.11-0.078,1.451
	c0.313,0.271,0.727,0.396,1.137,0.38c-0.027,0.169,0.076,0.316,0.197,0.423c0.465,0.411,1.506,0.548,2,0.123
	c0.041,1.025,1.963,1.007,2.49,0.474c-0.203,0.479-0.379,1.505,0.324,1.463c0.572-0.034,0.439-0.585,0.927-0.849
	c0.431-0.232,0.872-0.253,1.295-0.083C35.121,36.377,37.315,36.305,36.641,35.14C36.641,35.14,36.715,35.268,36.641,35.14z"/>
<path fill="#6C4119" d="M29.038,25.411L29.038,25.411L29.038,25.411z"/>
<path fill="#529320" d="M28.358,32.634c-0.072-0.22-0.303-0.366-0.342-0.404c-0.357,0.111-0.445-0.192-0.516-0.482
	c-0.111-0.455-0.82-0.662-0.82-1.1c-0.001-0.434,0.404-0.788,0.07-1.211c-0.279-0.354-0.756-0.584-0.814-0.369
	c-0.055,0.203,0.426,0.233,0.426,0.728c0.002,0.641-0.588,1.073,0.088,1.638c0.517,0.431,0.502,1.573,1.265,1.573
	C28.015,33.005,28.275,32.908,28.358,32.634z"/>
<path fill="#717732" d="M27.986,32.288L27.986,32.288L27.986,32.288z"/>
<path fill="#529320" d="M29.854,32.103c-0.247-0.448,0.006-0.962-0.447-1.346c-0.477-0.404-1.522,0.388-1.586-0.617
	c-0.014-0.218,1.148-1.405,1.256-1.528c0.305-0.35,0.25-1.138-0.09-1.331c-0.413-0.235-0.542,0.046-0.813,0.368
	c0.135,0.077,0.458,0.267,0.455,0.431c-0.297,0.654-1.161,0.767-1.42,1.46c-0.197,0.529-0.106,1.314,0.39,1.649
	c0.267,0.181,0.522,0.189,0.813,0.163c0.904-0.079,0.374,0.078,0.508,0.325C29.067,31.949,29.445,32.647,29.854,32.103z"/>
<path fill="#529320" d="M26.881,27.208c0.024,0.588,0.597,0.466,1.046,0.437c-0.035-0.188,0.029-0.41,0.111-0.613
	c-0.154,0.057-0.451,0.114-0.604,0.034c-0.334-0.236,0.685-0.588,0.58-0.632c-0.027-0.011-1.014,0.522-0.582-0.065
	c0.128-0.173,0.292-0.447,0.386-0.635c0.112-0.227-0.302,0.028-0.272,0.025c-0.135,0.015-0.194-0.025-0.32,0.078
	C26.634,26.298,26.802,26.562,26.881,27.208C26.881,27.208,26.854,26.997,26.881,27.208z"/>
<path fill="#785647" d="M37.516,27.178c-0.499-0.654-2.376-2.96-5.119-3.177c-0.306-0.024-1.093,0.262-1.35,0.425
	c-0.894,0.57,1.006,1.061,1.114,1.531c0.037,0.164,0.064,0.335,0.089,0.509c-0.264-0.522-0.646-0.835-0.66-0.951
	c-0.468,0.223-1.321-0.132-1.396-0.595l0,0l0,0c-0.055,0.187-0.122,0.321-0.262,0.463c-0.02-0.3-0.079-0.295-0.179-0.488
	c0.025,0.294,0.007,0.693-0.306,0.803c0.149-0.161,0.039-0.438-0.092-0.556c0.037,0.264-0.031,0.541-0.211,0.742
	c0.053-0.208-0.076-0.333-0.107-0.472l0,0c-0.073,0.756-1.184,1.116-0.143,1.395c0.409,0.11,0.613-0.035,0.975,0.169
	c0.092,0.052,0.254,0.251,0.301,0.243c-0.037,0.146-0.377,0.509-0.107,0.551c-0.054,0.085-0.43,0.747-0.436,0.746
	c0.283,0.04,0.051,0.214-0.057,0.427c-0.277,0.547,0.043,1.04,0.125,1.604c-0.029-0.192,0.334,0.121,0.346,0.389
	c0.021,0.437,0.416,0.552,0.518,0.901c-0.513-0.452-0.597,0.008-0.029,0.283c-0.465,0.038-0.609,0.327-0.146,0.543
	c-1.213,0.026-0.236,0.541-0.018,0.607c0.757,0.231,1.363-0.443,1.359-0.549c0,0,1.632,1.58,1.716,1.56
	c0.068-0.016,0.886-0.441,1.075-0.218c0.218,0.259,0.439-0.007,0.598,0.112c0.215,0.162,0.99,0.027,1.226-0.1
	c0.066-0.035,1.091-0.242,0.933-0.392c0.011,0.01,0.026,0.024,0-0.001c-0.012-0.01-0.008-0.007-0.002,0
	c-0.478-0.446-1.058-0.817-1.58-1.205c-0.479-0.356-0.956-0.715-1.432-1.074c-0.248-0.187-0.239-0.557-0.321-0.894
	c0.892,0.892,1.831,1.394,1.706-0.331c0.582,0.45,1.777,3.255,1.908,3.255c0.266,0,0.048-3.032,0.032-3.293
	c0.438,0.375,0.365,3.692,0.451,3.69C38.461,33.813,39.208,29.401,37.516,27.178z M29.718,26.83"/>
<path fill="#FFE12C" d="M30.31,32.325c-0.141-0.005-0.581-0.665-0.618-0.801c0.321,1.168-0.917,0.521-0.632-0.013
	c-0.443-0.058-1.413,0.541-0.979,1.054c-0.199,0.449,1.381,0.144,1.542-0.054C30.031,33.381,31.028,32.352,30.31,32.325
	C30.159,32.319,30.511,32.333,30.31,32.325z"/>
<path fill="#FFE12C" d="M34.97,35.303c0.479-0.718-1.58-0.899-1.363-1.736c-0.264,0.205-0.667,0.945-1.117,0.701
	c-0.238-0.13-1.049,0.362-0.564,0.709h0.005c0.026-0.414,0.2-0.124,0.478-0.17c-0.111,0.275-0.385,0.599,0.098,0.763
	c-0.189-0.533,0.582-0.235,0.445-0.595c-0.174-0.191,0.705-0.18,0.756-0.178c0.26,0.01,1.255,0.275,0.887,0.568
	C34.708,35.418,34.892,35.425,34.97,35.303C34.973,35.299,34.946,35.34,34.97,35.303z"/>
<path fill="#FFE12C" d="M28.286,26.696c-0.119,0.25-0.545,0.487-0.46,0.82c0.034,0.21,0.501,0.694,0.741,0.428
	c-0.6-0.42,0.077-0.707,0.371-0.702c0.116,0.002,0.125,0.19,0.139,0.21c0.095,0.138,0.885-0.176,0.849-0.409
	C29.861,26.63,28.562,26.593,28.286,26.696z M28.284,26.701L28.284,26.701L28.284,26.701z"/>
<path opacity="0.1" fill="#1A1626" d="M50.737,8.591c4.096,5.13,6.563,11.622,6.563,18.701c0,16.569-13.43,30.003-29.995,30.003
	c-7.101,0-13.61-2.477-18.745-6.594C14.054,57.58,22.503,62,32.003,62c16.566,0,29.994-13.432,29.994-30
	C61.997,22.527,57.595,14.09,50.737,8.591z"/>
<path opacity="0.3" fill-rule="evenodd" clip-rule="evenodd" fill="#FFFFFF" d="M9.734,19.015c0.549,3.865,7.767-3.7,15.08-10.202
	C29.531,4.63,8.083,7.385,9.734,19.015z"/>
</svg>
