<?xml version="1.0" encoding="utf-8"?>
<!-- Generator: Adobe Illustrator 15.0.0, SVG Export Plug-In . SVG Version: 6.00 Build 0)  -->
<!DOCTYPE svg PUBLIC "-//W3C//DTD SVG 1.1//EN" "http://www.w3.org/Graphics/SVG/1.1/DTD/svg11.dtd">
<svg version="1.1" id="Layer_1" xmlns="http://www.w3.org/2000/svg" xmlns:xlink="http://www.w3.org/1999/xlink" x="0px" y="0px"
	 width="64px" height="64px" viewBox="0 0 64 64" enable-background="new 0 0 64 64" xml:space="preserve">
<path fill="#ED7612" d="M2,32C2,15.436,15.438,2,32,2c16.572,0,30,13.436,30,30c0,16.57-13.428,30-30,30C15.438,62,2,48.57,2,32z"/>
<path fill="#E64C18" d="M45.778,5.354C53.172,10.61,58,19.24,58,29c0,16.019-12.98,29-29,29c-9.759,0-18.39-4.829-23.646-12.224
	C10.347,55.412,20.404,62,32,62c16.571,0,30-13.43,30-30C62,20.402,55.413,10.347,45.778,5.354z"/>
<path fill-rule="evenodd" clip-rule="evenodd" fill="#F59E01" d="M10.218,17.397c0.446,3.134,6.31-2.997,12.248-8.267
	C26.298,5.741,8.878,7.973,10.218,17.397z"/>
<path fill="#FFFFFF" d="M44.898,37.418c-0.512,1.664-1.264,3.045-2.258,4.146l3.332,3.137L42.811,48l-3.484-3.307
	c-1.064,0.645-1.982,1.1-2.758,1.363c-1.301,0.436-2.857,0.652-4.67,0.652c-3.783,0-6.91-1.129-9.379-3.387
	c-2.994-2.715-4.492-6.705-4.492-11.967c0-5.303,1.535-9.313,4.605-12.029C25.141,17.109,28.258,16,31.984,16
	c3.754,0,6.902,1.174,9.449,3.523c2.939,2.717,4.408,6.516,4.408,11.398C45.842,33.506,45.527,35.672,44.898,37.418z M33.896,41.314
	c0.355-0.092,0.809-0.256,1.359-0.492l-2.938-2.795l3.115-3.252l2.949,2.777c0.459-0.945,0.781-1.771,0.963-2.48
	c0.289-1.063,0.434-2.303,0.434-3.719c0-3.254-0.666-5.771-1.998-7.549s-3.277-2.666-5.836-2.666c-2.402,0-4.318,0.852-5.748,2.559
	c-1.432,1.705-2.146,4.258-2.146,7.658c0,3.975,1.023,6.824,3.072,8.543c1.326,1.115,2.914,1.672,4.766,1.672
	C32.584,41.57,33.254,41.486,33.896,41.314z"/>
</svg>
