<?xml version="1.0" encoding="utf-8"?>
<!-- Generator: Adobe Illustrator 15.0.0, SVG Export Plug-In . SVG Version: 6.00 Build 0)  -->
<!DOCTYPE svg PUBLIC "-//W3C//DTD SVG 1.1//EN" "http://www.w3.org/Graphics/SVG/1.1/DTD/svg11.dtd">
<svg version="1.1" id="Layer_1" xmlns="http://www.w3.org/2000/svg" xmlns:xlink="http://www.w3.org/1999/xlink" x="0px" y="0px"
	 width="64px" height="64px" viewBox="0 0 64 64" enable-background="new 0 0 64 64" xml:space="preserve">
<path fill="#014D87" d="M32,2C21.744,2,12.695,7.149,7.285,15h49.43C51.305,7.149,42.256,2,32,2z"/>
<path fill="#014D87" d="M32,62c10.256,0,19.305-5.15,24.715-13H7.285C12.695,56.85,21.744,62,32,62z"/>
<path fill="#E81C27" d="M59.045,19H4.955C3.063,22.934,2,27.343,2,32c0,4.656,1.063,9.066,2.955,13h54.09
	C60.939,41.066,62,36.656,62,32C62,27.343,60.939,22.934,59.045,19z"/>
<path fill="#FFE12C" d="M4.955,45c0.674,1.398,1.457,2.732,2.33,4h49.43c0.873-1.268,1.656-2.602,2.33-4H4.955z"/>
<path fill="#FFE12C" d="M59.045,19c-0.674-1.398-1.457-2.732-2.33-4H7.285c-0.873,1.268-1.656,2.602-2.33,4H59.045z"/>
<g>
	<path fill="#FFE12C" d="M58.414,31.563H5.588c-0.26,0-0.469,0.197-0.469,0.438c0,0.242,0.209,0.438,0.469,0.438h52.826
		c0.258,0,0.467-0.196,0.467-0.438C58.881,31.76,58.672,31.563,58.414,31.563z"/>
</g>
<g>
	<path fill="#FFE12C" d="M12.441,28.494h38.82l1.789,0.584l2.689-0.876l-2.689-0.877l-1.793,0.584h-0.572h-0.002l0,0h-0.314
		c0,0-0.002,0-0.004,0l0,0h-0.313c-0.002,0-0.002,0-0.004,0l0,0H12.441c-0.189,0-0.344,0.132-0.344,0.293
		S12.252,28.494,12.441,28.494z"/>
</g>
<g>
	<path fill="#FFE12C" d="M9.91,30.247H47.52v0.001c0,0,0.002-0.001,0.004-0.001h0.313v0.001c0.002,0,0.004-0.001,0.004-0.001h0.313
		v0.001c0.002,0,0.004-0.001,0.006-0.001h0.57l1.793,0.585l2.689-0.877l-2.689-0.876l-1.791,0.583H9.91
		c-0.189,0-0.342,0.132-0.342,0.293S9.721,30.247,9.91,30.247z"/>
</g>
<g>
	<path fill="#F5F5F5" d="M47.518,32.001c-3.162,2.921-7.379,8.765-15.813,8.765c-7.381,0-4.926-8.765-4.926-8.765
		s-2.455-8.767,4.926-8.767C40.137,23.234,44.354,29.078,47.518,32.001L47.518,32.001z"/>
</g>
<g>
	<path fill="#302C3B" d="M30.602,26.284c0.84,0.874,0.139,1.226,1.029,1.284c0.939,0.063,0.406,0.924,1.195,0.954
		c0.553,0.021-0.055,2.06,0.477,2.732c0.543,0.702,0.996,0.205,1.006,0.712c0.01,0.523-1.475,0.472-1.5,2.086
		c-0.043,0.93-1.252,0.99-1.311,1.588c-0.07,0.563,2.381,0.879,2.348,1.383c-0.033,0.502-2.646,0.424-2.762,0.998
		c-0.059,0.514,3.592,0.936,3.887,2.424c-0.545,0.164-2.096,0.32-3.266,0.32c-7.379,0.006-12.65-5.844-15.813-8.766
		c3.162-2.922,8.434-8.767,15.813-8.767C31.705,23.233,29.516,25.083,30.602,26.284L30.602,26.284z"/>
</g>
<g>
	<g>
		<rect x="21.795" y="28.883" fill="#F5F5F5" width="0.768" height="2.338"/>
	</g>
	<g>
		<rect x="21.795" y="32.78" fill="#F5F5F5" width="0.768" height="2.337"/>
	</g>
	<g>
		<rect x="23.328" y="28.883" fill="#F5F5F5" width="0.768" height="2.338"/>
	</g>
	<g>
		<rect x="23.328" y="32.78" fill="#F5F5F5" width="0.768" height="2.337"/>
	</g>
	<g>
		<rect x="24.863" y="28.883" fill="#F5F5F5" width="0.766" height="2.338"/>
	</g>
	<g>
		<rect x="24.863" y="32.78" fill="#F5F5F5" width="0.766" height="2.337"/>
	</g>
	<g>
		<rect x="26.395" y="28.883" fill="#F5F5F5" width="0.768" height="2.338"/>
	</g>
	<g>
		<rect x="26.395" y="32.78" fill="#F5F5F5" width="0.768" height="2.337"/>
	</g>
	<g>
		<rect x="27.928" y="28.883" fill="#F5F5F5" width="0.768" height="2.338"/>
	</g>
	<g>
		<rect x="27.928" y="32.78" fill="#F5F5F5" width="0.768" height="2.337"/>
	</g>
	<g>
		<rect x="29.461" y="28.883" fill="#F5F5F5" width="0.768" height="2.338"/>
	</g>
	<g>
		<rect x="29.461" y="32.78" fill="#F5F5F5" width="0.768" height="2.337"/>
	</g>
</g>
<g>
	<g>
		<rect x="33.393" y="28.883" fill="#302C3B" width="0.766" height="2.338"/>
	</g>
	<g>
		<rect x="33.393" y="32.78" fill="#302C3B" width="0.766" height="2.337"/>
	</g>
	<g>
		<rect x="34.926" y="28.883" fill="#302C3B" width="0.766" height="2.338"/>
	</g>
	<g>
		<rect x="34.926" y="32.78" fill="#302C3B" width="0.766" height="2.337"/>
	</g>
	<g>
		<rect x="36.459" y="28.883" fill="#302C3B" width="0.766" height="2.338"/>
	</g>
	<g>
		<rect x="36.459" y="32.78" fill="#302C3B" width="0.766" height="2.337"/>
	</g>
	<g>
		<rect x="37.992" y="28.883" fill="#302C3B" width="0.766" height="2.338"/>
	</g>
	<g>
		<rect x="37.992" y="32.78" fill="#302C3B" width="0.766" height="2.337"/>
	</g>
	<g>
		<rect x="39.525" y="28.883" fill="#302C3B" width="0.766" height="2.338"/>
	</g>
	<g>
		<rect x="39.525" y="32.78" fill="#302C3B" width="0.766" height="2.337"/>
	</g>
	<g>
		<rect x="41.059" y="28.883" fill="#302C3B" width="0.766" height="2.338"/>
	</g>
	<g>
		<rect x="41.059" y="32.78" fill="#302C3B" width="0.766" height="2.337"/>
	</g>
</g>
<polygon fill="#A70000" points="55.1,31.652 55.1,31.654 55.1,31.652 "/>
<g>
	<path fill="#014D87" d="M29.248,25.841c-3.783-2.623-4.926,1.153-4.623,2.843c0.457-0.55,2.783,1.645,4.23,1.838
		C27.74,29.703,31.168,27.178,29.248,25.841C27.359,24.53,29.598,26.084,29.248,25.841z"/>
</g>
<g>
	<path fill="#014D87" d="M56.477,36.287c2.791-3.527-1.309-4.537-3.135-4.237c0.602,0.416-1.746,2.591-1.938,3.929
		C52.277,34.939,55.051,38.078,56.477,36.287C57.871,34.525,56.217,36.611,56.477,36.287z"/>
</g>
<g>
	<path fill="#014D87" d="M9.207,31.765c-4.643,0.825-2.387,4.144-0.828,5.073c-0.133-0.682,3.189-0.799,4.316-1.658
		C11.289,35.391,11.57,31.349,9.207,31.765C6.889,32.176,9.639,31.688,9.207,31.765z"/>
</g>
<path opacity="0.1" fill="#1A1626" d="M50.738,8.59c4.096,5.131,6.563,11.623,6.563,18.701c0,16.568-13.43,30.004-29.996,30.004
	c-7.1,0-13.609-2.479-18.744-6.594C14.055,57.58,22.504,62,32.004,62c16.566,0,29.994-13.432,29.994-30
	C61.998,22.527,57.596,14.09,50.738,8.59z"/>
<path opacity="0.3" fill-rule="evenodd" clip-rule="evenodd" fill="#FFFFFF" d="M9.734,19.014c0.549,3.865,7.768-3.699,15.08-10.201
	C29.531,4.629,8.084,7.385,9.734,19.014z"/>
</svg>
