<?xml version="1.0" encoding="utf-8"?>
<!-- Generator: Adobe Illustrator 15.0.0, SVG Export Plug-In . SVG Version: 6.00 Build 0)  -->
<!DOCTYPE svg PUBLIC "-//W3C//DTD SVG 1.1//EN" "http://www.w3.org/Graphics/SVG/1.1/DTD/svg11.dtd">
<svg version="1.1" id="Layer_1" xmlns="http://www.w3.org/2000/svg" xmlns:xlink="http://www.w3.org/1999/xlink" x="0px" y="0px"
	 width="64px" height="64px" viewBox="0 0 64 64" enable-background="new 0 0 64 64" xml:space="preserve">
<path fill="#F5F5F5" d="M32,2c-3.51,0-6.87,0.619-10,1.729V22h38.286C56.167,10.35,45.061,2,32,2z"/>
<path fill="#E81C27" d="M60.286,22H22V3.713C10.35,7.832,2,18.939,2,32s8.35,24.166,20,28.285V42h38.286
	C61.393,38.871,62,35.508,62,32S61.393,25.129,60.286,22z"/>
<path fill="#529320" d="M22,42v18.271C25.13,61.379,28.49,62,32,62c13.061,0,24.167-8.35,28.286-20H22z"/>
<path fill="#F5F5F5" d="M19.143,22.375l-0.246,0.096l-1.583-1.391l-1.79-1.953c0.051-0.246,0.053-0.686,0.045-1.029l0.259-0.314
	h0.281c0.122,0.211,0.348,0.357,0.609,0.357c0.263,0,0.488-0.146,0.61-0.357h0.399v0.455h2.744v-1.506h-2.744v0.453h-0.353
	c-0.086-0.225-0.283-0.395-0.525-0.441l0.063-0.061l2.16-4.543l-0.247-0.125l-3.096,4.203l0.176,0.236l-0.176,0.371l-0.458,0.021
	l-0.14-0.188l0.422,0.023v-0.268l-0.282-0.117V15.73l0.352-0.014l0.106-0.346l-0.81-0.23v-1.965l0.563-0.732l-0.984-0.68
	l-0.984,0.68l0.563,0.732v1.965l-0.81,0.23l0.106,0.346l0.352,0.014v0.568l-0.282,0.117v0.268l0.422-0.023l-0.14,0.188l-0.458-0.021
	l-0.176-0.371l0.176-0.236l-3.096-4.203l-0.247,0.125l2.16,4.543l0.063,0.061c-0.242,0.047-0.439,0.217-0.525,0.441h-0.353v-0.453
	H8.528v1.506h2.744v-0.455h0.399c0.122,0.211,0.347,0.357,0.61,0.357c0.262,0,0.488-0.146,0.609-0.357h0.281l0.294,0.357v0.242
	h-0.36l-0.132,0.314l-2.428,0.221L10.44,18.76c0,0-1.309,0.174-1.548,0.502c-0.046,0.064-0.043,0.248,0,0.314
	c0.226,0.344,1.513,0.652,1.513,0.652l0.036-0.15c0,0,0.935,0.199,1.858,0.334l-0.611,0.668l-1.583,1.391l-0.246-0.096l-1.438,1.43
	L8.473,24l1.63-0.453l1.149-0.771l-0.199-0.055l2.551-2.191c0.079,0,0.151-0.004,0.213-0.012c0.294-0.037,0.87-0.24,1.112-0.43
	l0.344,0.336l2.674,2.297l-0.199,0.055l1.149,0.771L20.527,24l0.054-0.195L19.143,22.375z"/>
<path opacity="0.1" fill="#1A1626" d="M50.737,8.59c4.096,5.131,6.563,11.623,6.563,18.701c0,16.568-13.43,30.004-29.995,30.004
	c-7.101,0-13.61-2.479-18.745-6.594C14.054,57.58,22.503,62,32.003,62c16.566,0,29.994-13.432,29.994-30
	C61.997,22.527,57.595,14.09,50.737,8.59z"/>
<path opacity="0.3" fill-rule="evenodd" clip-rule="evenodd" fill="#FFFFFF" d="M9.734,19.014c0.549,3.865,7.767-3.699,15.08-10.201
	C29.531,4.629,8.083,7.385,9.734,19.014z"/>
</svg>
