<?xml version="1.0" encoding="utf-8"?>
<!-- Generator: Adobe Illustrator 15.0.0, SVG Export Plug-In . SVG Version: 6.00 Build 0)  -->
<!DOCTYPE svg PUBLIC "-//W3C//DTD SVG 1.1//EN" "http://www.w3.org/Graphics/SVG/1.1/DTD/svg11.dtd">
<svg version="1.1" id="Layer_1" xmlns="http://www.w3.org/2000/svg" xmlns:xlink="http://www.w3.org/1999/xlink" x="0px" y="0px"
	 width="64px" height="64px" viewBox="0 0 64 64" enable-background="new 0 0 64 64" xml:space="preserve">
<path fill="#302C3B" d="M6.011,47.005c1.943,3.365,4.444,6.205,7.313,8.482L61.681,27.57c-0.54-3.625-1.748-7.209-3.69-10.574
	c-1.942-3.367-4.444-6.205-7.313-8.484L2.319,36.429C2.858,40.054,4.067,43.64,6.011,47.005z"/>
<path fill="#FFE12C" d="M19.093,59.089l42.821-24.723c0.181-2.251,0.104-4.531-0.233-6.796L13.324,55.487
	C15.116,56.915,17.052,58.12,19.093,59.089z"/>
<path fill="#FFE12C" d="M2.319,36.429L50.677,8.511c-1.793-1.426-3.729-2.631-5.768-3.602L2.086,29.634
	C1.905,31.884,1.982,34.163,2.319,36.429z"/>
<g>
	<path fill="#529320" d="M44.9,4.916C36.289,0.82,25.878,0.882,16.995,6.011C8.111,11.14,2.853,20.125,2.094,29.63L44.9,4.916z"/>
</g>
<g>
	<path fill="#E81C27" d="M19.1,59.085c8.611,4.096,19.022,4.033,27.905-1.096c8.884-5.129,14.143-14.113,14.901-23.619L19.1,59.085z
		"/>
</g>
<polygon fill="#F5F5F5" points="21.989,40.114 26.565,40.694 23.095,37.456 24.858,33.192 20.926,35.444 17.438,32.232 
	18.476,36.858 14.559,39.14 19.134,39.743 20.202,44.368 "/>
<polygon fill="#F5F5F5" points="44.032,27.386 48.61,27.966 45.14,24.73 46.903,20.464 42.97,22.716 39.482,19.503 40.521,24.13 
	36.604,26.41 41.18,27.017 42.247,31.64 "/>
<path opacity="0.1" fill="#1A1626" d="M50.737,8.591C54.834,13.72,57.3,20.212,57.3,27.292c0,16.568-13.429,30.001-29.995,30.001
	c-7.1,0-13.609-2.477-18.744-6.594c5.494,6.879,13.942,11.299,23.443,11.299c16.565,0,29.994-13.432,29.994-30
	C61.998,22.527,57.596,14.089,50.737,8.591z"/>
<path opacity="0.3" fill-rule="evenodd" clip-rule="evenodd" fill="#FFFFFF" d="M9.734,19.015c0.549,3.865,7.768-3.701,15.08-10.203
	C29.531,4.63,8.084,7.384,9.734,19.015z"/>
</svg>
