<?xml version="1.0" encoding="utf-8"?>
<!-- Generator: Adobe Illustrator 15.0.0, SVG Export Plug-In . SVG Version: 6.00 Build 0)  -->
<!DOCTYPE svg PUBLIC "-//W3C//DTD SVG 1.1//EN" "http://www.w3.org/Graphics/SVG/1.1/DTD/svg11.dtd">
<svg version="1.1" id="Layer_1" xmlns="http://www.w3.org/2000/svg" xmlns:xlink="http://www.w3.org/1999/xlink" x="0px" y="0px"
	 width="64px" height="64px" viewBox="0 0 64 64" enable-background="new 0 0 64 64" xml:space="preserve">
<g>
	<path fill="#E81C27" d="M32,62c13.061,0,24.166-8.35,28.285-20H3.713C7.832,53.65,18.938,62,32,62z"/>
</g>
<g>
	<path fill="#FFE12C" d="M32,2C18.938,2,7.832,10.35,3.713,22h56.572C56.166,10.35,45.061,2,32,2z"/>
</g>
<g>
	<path fill="#529320" d="M60.285,42C61.391,38.871,62,35.508,62,32s-0.609-6.871-1.715-10H3.713C2.607,25.129,2,28.492,2,32
		s0.607,6.871,1.713,10H60.285z"/>
</g>
<polygon fill="#F5F5F5" points="32,41.083 43.744,50 39.301,35.499 51,26.512 36.518,26.469 32,12 27.479,26.469 13,26.512 
	24.691,35.499 20.256,50 "/>
<path opacity="0.1" fill="#1A1626" d="M50.736,8.592c4.098,5.129,6.563,11.621,6.563,18.701c0,16.568-13.428,30.002-29.994,30.002
	c-7.1,0-13.609-2.477-18.744-6.594C14.055,57.58,22.502,62,32.004,62c16.564,0,29.994-13.432,29.994-30
	C61.998,22.527,57.596,14.09,50.736,8.592z"/>
<path opacity="0.3" fill-rule="evenodd" clip-rule="evenodd" fill="#FFFFFF" d="M9.734,19.016c0.549,3.865,7.768-3.701,15.08-10.203
	C29.531,4.631,8.084,7.385,9.734,19.016z"/>
</svg>
