<?xml version="1.0" encoding="utf-8"?>
<!-- Generator: Adobe Illustrator 15.0.0, SVG Export Plug-In . SVG Version: 6.00 Build 0)  -->
<!DOCTYPE svg PUBLIC "-//W3C//DTD SVG 1.1//EN" "http://www.w3.org/Graphics/SVG/1.1/DTD/svg11.dtd">
<svg version="1.1" id="Layer_1" xmlns="http://www.w3.org/2000/svg" xmlns:xlink="http://www.w3.org/1999/xlink" x="0px" y="0px"
	 width="64px" height="64px" viewBox="0 0 64 64" enable-background="new 0 0 64 64" xml:space="preserve">
<path fill="#E81C27" d="M45.58,32.998l16.34,1.072C61.967,33.385,62,32.697,62,32c0-5.393-1.43-10.447-3.922-14.82l-14.268,8.07
	l-2.582-3.236L52.271,9.891c-4.256-3.904-9.641-6.596-15.609-7.527L34.07,18.566H29.93L27.338,2.363
	C21.367,3.295,15.98,5.988,11.725,9.893L22.77,22.016l-2.582,3.236L5.916,17.186C3.428,21.557,2,26.611,2,32
	c0,0.699,0.031,1.389,0.078,2.076L18.42,33l0.922,4.037L4.152,43.158c2.207,5.504,5.994,10.201,10.807,13.527l9.338-13.438
	l3.73,1.797l-4.682,15.684C26.088,61.553,28.99,62,32,62c3.012,0,5.916-0.447,8.658-1.273l-4.684-15.684l3.73-1.797l9.34,13.438
	c4.811-3.328,8.598-8.027,10.805-13.531l-15.191-6.117L45.58,32.998z"/>
<path fill="#FFE12C" d="M34.07,18.566l2.592-16.203C35.143,2.125,33.586,2,32,2s-3.143,0.125-4.662,0.363l2.592,16.203H34.07z"/>
<path fill="#FFE12C" d="M43.811,25.25l14.268-8.07c-1.551-2.725-3.512-5.186-5.807-7.289L41.229,22.014L43.811,25.25z"/>
<path fill="#FFE12C" d="M45.58,32.998l-0.922,4.037l15.191,6.117c1.137-2.84,1.854-5.891,2.07-9.082L45.58,32.998z"/>
<path fill="#FFE12C" d="M35.975,45.043l4.684,15.684c3.025-0.91,5.848-2.285,8.387-4.043l-9.34-13.438L35.975,45.043z"/>
<path fill="#FFE12C" d="M24.297,43.248l-9.338,13.438c2.539,1.758,5.361,3.133,8.387,4.043l4.682-15.684L24.297,43.248z"/>
<path fill="#FFE12C" d="M18.42,33L2.078,34.076c0.219,3.191,0.936,6.242,2.074,9.082l15.189-6.121L18.42,33z"/>
<path fill="#FFE12C" d="M22.77,22.016L11.725,9.893C9.43,12,7.469,14.461,5.916,17.186l14.271,8.066L22.77,22.016z"/>
<circle fill="#FFE12C" cx="32" cy="32" r="9"/>
<path opacity="0.1" fill="#1A1626" d="M50.736,8.592c4.098,5.129,6.563,11.621,6.563,18.701c0,16.568-13.428,30.002-29.994,30.002
	c-7.1,0-13.609-2.477-18.744-6.594C14.055,57.58,22.502,62,32.004,62c16.564,0,29.994-13.432,29.994-30
	C61.998,22.527,57.596,14.09,50.736,8.592z"/>
<path opacity="0.3" fill-rule="evenodd" clip-rule="evenodd" fill="#FFFFFF" d="M9.734,19.016c0.549,3.865,7.768-3.701,15.08-10.203
	C29.531,4.631,8.084,7.385,9.734,19.016z"/>
</svg>
