<?xml version="1.0" encoding="utf-8"?>
<!-- Generator: Adobe Illustrator 15.0.0, SVG Export Plug-In . SVG Version: 6.00 Build 0)  -->
<!DOCTYPE svg PUBLIC "-//W3C//DTD SVG 1.1//EN" "http://www.w3.org/Graphics/SVG/1.1/DTD/svg11.dtd">
<svg version="1.1" id="Layer_1" xmlns="http://www.w3.org/2000/svg" xmlns:xlink="http://www.w3.org/1999/xlink" x="0px" y="0px"
	 width="64px" height="64px" viewBox="0 0 64 64" enable-background="new 0 0 64 64" xml:space="preserve">
<path fill="#E81C27" d="M32,62c13.061,0,24.168-8.35,28.287-20H3.714C7.833,53.65,18.938,62,32,62z"/>
<path fill="#F5F5F5" d="M32,2C18.938,2,7.833,10.35,3.714,22h56.573C56.168,10.35,45.061,2,32,2z"/>
<path fill="#014D87" d="M60.287,42C61.393,38.871,62,35.508,62,32s-0.607-6.871-1.713-10H3.714C2.607,25.129,2,28.492,2,32
	s0.607,6.871,1.714,10H60.287z"/>
<path fill="#014D87" d="M30.188,24.253L31,13.095c-6.328-2.793-13.672-2.793-20.001,0l0.812,11.158
	c0.364,5.014,4.024,9.294,9.188,10.747C26.164,33.547,29.822,29.267,30.188,24.253"/>
<path fill="#F5F5F5" d="M13.5,25.764c0.869,3.646,3.709,6.608,7.499,7.824c3.79-1.216,6.632-4.178,7.501-7.824l-3.75-4.656
	l-1.5,1.863l-2.251-4.191l-2.25,4.191l-1.5-1.863L13.5,25.764"/>
<path fill="#014D87" d="M13.834,26.93c0.69,1.113,2.22,1.494,3.415,0.852c0.774-0.416,1.727-0.416,2.501,0
	c0.773,0.416,1.726,0.416,2.499,0c0.774-0.416,1.728-0.416,2.501,0c1.195,0.643,2.725,0.262,3.416-0.852v0.672
	c-0.691,1.113-2.221,1.495-3.416,0.852c-0.773-0.415-1.727-0.415-2.501,0c-0.773,0.417-1.726,0.417-2.499,0
	c-0.774-0.415-1.727-0.415-2.501,0c-1.195,0.644-2.725,0.262-3.415-0.852V26.93z"/>
<path fill="#014D87" d="M13.834,28.273c0.69,1.113,2.22,1.496,3.415,0.854c0.774-0.418,1.727-0.418,2.501,0
	c0.773,0.415,1.726,0.415,2.499,0c0.774-0.418,1.728-0.418,2.501,0c1.195,0.643,2.725,0.26,3.416-0.854v0.672
	c-0.691,1.113-2.221,1.496-3.416,0.854c-0.773-0.418-1.727-0.418-2.501,0c-0.773,0.415-1.726,0.415-2.499,0
	c-0.774-0.418-1.727-0.418-2.501,0c-1.195,0.643-2.725,0.26-3.415-0.853v-0.001V28.273z"/>
<path fill="#E81C27" d="M11.701,12.799l0.83,11.408c0.339,4.661,3.694,8.658,8.468,10.088c4.774-1.43,8.13-5.427,8.468-10.088
	l0.83-11.408C30.531,12.9,30.764,13,31,13.095l-0.813,11.158c-0.365,5.014-4.023,9.294-9.188,10.747
	c-5.164-1.453-8.824-5.733-9.188-10.747l-0.812-11.158C11.235,13,11.469,12.9,11.701,12.799"/>
<g>
	<polygon fill="#FFE12C" points="16.999,11.9 17.22,12.637 17.999,12.45 17.44,13 17.999,13.55 17.22,13.363 16.999,14.1 
		16.779,13.363 15.999,13.55 16.559,13 15.999,12.45 16.779,12.637 	"/>
</g>
<g>
	<polygon fill="#FFE12C" points="25,11.9 25.221,12.637 26,12.45 25.441,13 26,13.55 25.221,13.363 25,14.1 24.779,13.363 24,13.55 
		24.559,13 24,12.45 24.779,12.637 	"/>
</g>
<polygon fill="#FFE12C" points="20.999,14.8 21.221,15.536 21.999,15.35 21.439,15.9 21.999,16.449 21.221,16.264 20.999,17 
	20.779,16.264 19.999,16.449 20.559,15.9 19.999,15.35 20.779,15.536 "/>
<path opacity="0.1" fill="#1A1626" d="M50.736,8.59c4.096,5.131,6.563,11.623,6.563,18.701c0,16.568-13.428,30.004-29.994,30.004
	c-7.102,0-13.61-2.479-18.745-6.594C14.054,57.58,22.502,62,32.002,62c16.566,0,29.996-13.432,29.996-30
	C61.998,22.527,57.594,14.09,50.736,8.59z"/>
<path opacity="0.5" fill-rule="evenodd" clip-rule="evenodd" fill="#FFFFFF" d="M9.734,19.014c0.549,3.865,7.766-3.699,15.08-10.201
	C29.531,4.629,8.083,7.385,9.734,19.014z"/>
</svg>
