<?xml version="1.0" encoding="utf-8"?>
<!-- Generator: Adobe Illustrator 15.0.0, SVG Export Plug-In . SVG Version: 6.00 Build 0)  -->
<!DOCTYPE svg PUBLIC "-//W3C//DTD SVG 1.1//EN" "http://www.w3.org/Graphics/SVG/1.1/DTD/svg11.dtd">
<svg version="1.1" id="Layer_1" xmlns="http://www.w3.org/2000/svg" xmlns:xlink="http://www.w3.org/1999/xlink" x="0px" y="0px"
	 width="64px" height="64px" viewBox="0 0 64 64" enable-background="new 0 0 64 64" xml:space="preserve">
<path fill="#E81C27" d="M2,32c0,13.061,8.35,24.166,20,28.285V3.713C10.35,7.832,2,18.939,2,32z"/>
<path fill="#E81C27" d="M62,32c0-13.061-8.35-24.168-20-28.287v56.572C53.65,56.166,62,45.061,62,32z"/>
<path fill="#014D87" d="M22,60.285C25.129,61.393,28.492,62,32,62s6.871-0.607,10-1.715V3.713C38.871,2.607,35.508,2,32,2
	s-6.871,0.607-10,1.713V60.285z"/>
<g>
	<g>
		<circle fill="#F9CF02" cx="13.182" cy="23.8" r="3.575"/>
	</g>
</g>
<g>
	<g>
		<circle fill="#E81C27" cx="13.182" cy="22.175" r="3.9"/>
	</g>
</g>
<g>
	<g>
		<circle fill="#F9CF02" cx="13.182" cy="22.825" r="2.6"/>
	</g>
</g>
<g>
	<g>
		<path fill="#F9CF02" d="M11.555,17.95c0,0.897,0.729,1.625,1.627,1.625c0.896,0,1.625-0.728,1.625-1.625
			c0-0.65-0.406-0.731-0.406-0.976c0-0.243,0.242-0.568-0.244-0.975c0.244,0.406-0.162,0.487-0.162,0.895
			c0,0.405,0.162,0.405,0.162,0.731c0,0.178-0.146,0.324-0.326,0.324c-0.178,0-0.324-0.146-0.324-0.324
			c0-0.326,0.324-0.651,0.324-1.139s-0.08-0.649-0.324-1.056c-0.244-0.407-0.65-0.731-0.324-1.057
			c-0.488,0.163-0.244,0.813-0.244,1.219s-0.324,0.649-0.324,1.138c0,0.487,0.242,0.568,0.242,0.895
			c0,0.178-0.145,0.324-0.324,0.324s-0.324-0.146-0.324-0.324c0-0.326,0.162-0.326,0.162-0.731c0-0.407-0.408-0.488-0.162-0.895
			c-0.488,0.406-0.246,0.731-0.246,0.975C11.961,17.219,11.555,17.3,11.555,17.95z"/>
	</g>
</g>
<g>
	<g>
		<path fill="#F9CF02" d="M6.031,28.024v15.601h3.25V28.024H6.031z M17.08,28.024v15.601h3.25V28.024H17.08z M9.932,30.625v1.3h6.5
			v-1.3H9.932z M9.932,39.725v1.301h6.5v-1.301H9.932z M9.932,28.024h6.5l-3.25,1.951L9.932,28.024z M9.932,41.676h6.5l-3.25,1.949
			L9.932,41.676z"/>
	</g>
</g>
<g>
	<g>
		<circle fill="#F9CF02" cx="13.182" cy="35.826" r="3.445"/>
	</g>
	<g>
		<path fill="#E81C27" d="M13.182,39.453c-2,0-3.629-1.627-3.629-3.628s1.629-3.628,3.629-3.628s3.627,1.627,3.627,3.628
			S15.182,39.453,13.182,39.453z M13.182,32.563c-1.799,0-3.264,1.464-3.264,3.262s1.465,3.263,3.264,3.263s3.262-1.465,3.262-3.263
			S14.98,32.563,13.182,32.563z"/>
	</g>
</g>
<g>
	<g>
		<path fill="#E81C27" d="M13.182,39.453c-1.051,0-1.906-0.854-1.906-1.905s0.855-1.905,1.906-1.905
			c0.848,0,1.539-0.691,1.539-1.539c0-0.849-0.691-1.54-1.539-1.54v-0.366c1.049,0,1.904,0.854,1.904,1.906
			c0,1.051-0.855,1.904-1.904,1.904c-0.85,0-1.541,0.691-1.541,1.54s0.691,1.54,1.541,1.54V39.453z"/>
	</g>
</g>
<g>
	<g>
		<circle fill="#E81C27" cx="13.182" cy="34.103" r="0.65"/>
	</g>
</g>
<g>
	<g>
		<circle fill="#E81C27" cx="13.182" cy="37.548" r="0.649"/>
	</g>
</g>
<path opacity="0.1" fill="#1A1626" d="M50.736,8.592c4.096,5.129,6.563,11.621,6.563,18.701c0,16.568-13.43,30.002-29.994,30.002
	c-7.102,0-13.611-2.477-18.746-6.594C14.053,57.58,22.502,62,32.002,62c16.566,0,29.994-13.432,29.994-30
	C61.996,22.527,57.594,14.09,50.736,8.592z"/>
<path opacity="0.3" fill-rule="evenodd" clip-rule="evenodd" fill="#FFFFFF" d="M9.734,19.016c0.549,3.865,7.766-3.701,15.08-10.203
	C29.531,4.631,8.082,7.385,9.734,19.016z"/>
</svg>
