<?xml version="1.0" encoding="utf-8"?>
<!-- Generator: Adobe Illustrator 15.0.0, SVG Export Plug-In . SVG Version: 6.00 Build 0)  -->
<!DOCTYPE svg PUBLIC "-//W3C//DTD SVG 1.1//EN" "http://www.w3.org/Graphics/SVG/1.1/DTD/svg11.dtd">
<svg version="1.1" id="Layer_1" xmlns="http://www.w3.org/2000/svg" xmlns:xlink="http://www.w3.org/1999/xlink" x="0px" y="0px"
	 width="64px" height="64px" viewBox="0 0 64 64" enable-background="new 0 0 64 64" xml:space="preserve">
<path fill="#006DAE" d="M62,50c0,6.6-5.4,12-12,12H14C7.4,62,2,56.6,2,50V14C2,7.399,7.4,2,14,2h36c6.6,0,12,5.399,12,12V50z"/>
<path fill="#014D87" d="M56.838,4.162C58.197,6.105,59,8.462,59,11v37c0,6.6-4.398,11-11,11H11c-2.537,0-4.894-0.805-6.838-2.162
	C6.336,59.949,9.938,62,14,62h36c6.602,0,12-5.4,12-12V14C62,9.938,59.951,6.336,56.838,4.162z"/>
<path fill-rule="evenodd" clip-rule="evenodd" fill="#0FB4D4" d="M4.975,12.585c0.339,2.703,4.793-2.587,9.303-7.136
	C17.188,2.524,3.957,4.45,4.975,12.585z"/>
<path fill="#FFFFFF" d="M20.144,30.4c-1.783,0-3.306,0.053-4.144,0.105v-5.781c0.682,0.105,2.412,0.316,4.144,0.316h2.414v-3.154
	c0-1.313-0.157-2.889-0.21-3.572h5.928c-0.105,0.684-0.264,2.207-0.264,3.627v3.1h8.185v-3.363c0-1.42-0.104-2.943-0.21-3.678h6.086
	c-0.105,0.734-0.262,2.258-0.262,3.678v3.363h2.046c1.835,0,3.198-0.158,4.144-0.264v5.729c-0.734-0.053-2.309-0.105-4.144-0.105
	h-2.046v0.42c0,8.986-2.729,15.186-11.961,19.18l-4.355-4.361c6.979-2.365,10.702-5.727,10.702-14.607V30.4h-8.185v4.047
	c0,1.576,0.158,3.309,0.211,4.045h-5.875c0.104-0.736,0.21-2.469,0.21-4.045V30.4H20.144z"/>
</svg>
