<?xml version="1.0" encoding="utf-8"?>
<!-- Generator: Adobe Illustrator 15.0.0, SVG Export Plug-In . SVG Version: 6.00 Build 0)  -->
<!DOCTYPE svg PUBLIC "-//W3C//DTD SVG 1.1//EN" "http://www.w3.org/Graphics/SVG/1.1/DTD/svg11.dtd">
<svg version="1.1" id="Layer_1" xmlns="http://www.w3.org/2000/svg" xmlns:xlink="http://www.w3.org/1999/xlink" x="0px" y="0px"
	 width="64px" height="64px" viewBox="0 0 64 64" enable-background="new 0 0 64 64" xml:space="preserve">
<path fill="#ED7612" d="M62,50c0,6.6-5.4,12-12,12H14C7.4,62,2,56.6,2,50V14C2,7.399,7.4,2,14,2h36c6.6,0,12,5.399,12,12V50z"/>
<path fill="#E64C18" d="M56.838,4.162C58.197,6.105,59,8.462,59,11v37c0,6.6-4.398,11-11,11H11c-2.537,0-4.894-0.805-6.838-2.162
	C6.336,59.949,9.938,62,14,62h36c6.602,0,12-5.4,12-12V14C62,9.938,59.951,6.336,56.838,4.162z"/>
<path fill-rule="evenodd" clip-rule="evenodd" fill="#F59E01" d="M4.975,12.585c0.339,2.703,4.793-2.587,9.303-7.136
	C17.188,2.524,3.957,4.45,4.975,12.585z"/>
<path fill="#FFFFFF" d="M19.98,24.203c-0.766,0.73-1.494,1.424-2.262,2.002c-0.844-0.809-2.684-2.271-3.719-3.002
	c3.221-2.119,6.248-5.623,7.938-9.203l4.445,1.309c-0.422,0.926-0.918,1.811-1.494,2.695h23.004v4.043h-3.605v4.928h4.984v4.08
	h-4.984v4.893h4.447v4.08H15.42v-4.08h4.561v-4.893h-5.137v-4.08h5.137V24.203z M14.461,48.229c1.688-1.617,3.41-4.582,4.293-7.393
	l4.41,1.078C22.32,44.84,20.672,47.998,18.793,50L14.461,48.229z M24.008,26.975h2.758v-4.928h-2.758V26.975z M24.008,35.947h2.758
	v-4.893h-2.758V35.947z M29.871,41.684c0.461,2.348,0.883,5.391,0.922,7.199l-4.449,0.654c0-1.846-0.307-5.004-0.729-7.354
	L29.871,41.684z M33.398,26.975v-4.928h-2.838v4.928H33.398z M30.561,31.055v4.893h2.838v-4.893H30.561z M37.502,41.529
	c0.92,2.273,1.879,5.275,2.225,7.162l-4.563,0.885c-0.232-1.85-1.111-4.967-1.955-7.316L37.502,41.529z M40.109,22.047h-2.916v4.928
	h2.916V22.047z M40.109,31.055h-2.916v4.893h2.916V31.055z M45.17,40.684c1.725,2.348,3.873,5.58,4.83,7.699l-4.678,1.578
	c-0.805-2.041-2.836-5.428-4.523-7.893L45.17,40.684z"/>
</svg>
