<?xml version="1.0" encoding="utf-8"?>
<!-- Generator: Adobe Illustrator 15.0.0, SVG Export Plug-In . SVG Version: 6.00 Build 0)  -->
<!DOCTYPE svg PUBLIC "-//W3C//DTD SVG 1.1//EN" "http://www.w3.org/Graphics/SVG/1.1/DTD/svg11.dtd">
<svg version="1.1" id="Layer_1" xmlns="http://www.w3.org/2000/svg" xmlns:xlink="http://www.w3.org/1999/xlink" x="0px" y="0px"
	 width="64px" height="64px" viewBox="0 0 64 64" enable-background="new 0 0 64 64" xml:space="preserve">
<path fill="#E81C27" d="M62,50c0,6.601-5.4,12-12,12H14C7.4,62,2,56.601,2,50V14C2,7.4,7.4,2,14,2h36c6.6,0,12,5.4,12,12V50z"/>
<path fill="#C21413" d="M56.838,4.162C58.195,6.106,59,8.462,59,11v37c0,6.601-4.4,11-11,11H11c-2.537,0-4.894-0.804-6.838-2.162
	C6.336,59.95,9.938,62,14,62h36c6.6,0,12-5.399,12-12V14C62,9.938,59.949,6.336,56.838,4.162z"/>
<path fill-rule="evenodd" clip-rule="evenodd" fill="#F46C60" d="M4.975,12.585c0.339,2.704,4.793-2.587,9.303-7.135
	C17.188,2.525,3.957,4.45,4.975,12.585z"/>
<path fill="#FFFFFF" d="M27.121,17.223h8.004v6.68h-1.982v2.951h-6.098v1.631h5.564v3.066h-5.564v1.672h7.66v3.535h-19.59v-3.535
	h7.775v-1.672H17.25v-3.066h5.641v-1.631h-6.023v-2.951H15v-6.68h7.776V14h4.345V17.223z M17.136,38.078h15.97v11.533h-4.309v-1.32
	h-7.584V50h-4.077V38.078z M30.934,20.717H19.003v2.875h3.888v-2.098h4.154v2.098h3.889V20.717z M21.213,41.533v3.301h7.584v-3.301
	H21.213z M41.033,39.592h-4.307V17.881h4.307V39.592z M49,14.465v29.941c0,2.564-0.459,3.848-1.982,4.584
	c-1.486,0.777-3.85,0.932-6.977,0.932c-0.189-1.32-0.838-3.455-1.484-4.777c2.209,0.117,4.383,0.078,5.145,0.078
	c0.648,0,0.914-0.232,0.914-0.854V14.465H49z"/>
</svg>
