<?xml version="1.0" encoding="utf-8"?>
<!-- Generator: Adobe Illustrator 15.0.0, SVG Export Plug-In . SVG Version: 6.00 Build 0)  -->
<!DOCTYPE svg PUBLIC "-//W3C//DTD SVG 1.1//EN" "http://www.w3.org/Graphics/SVG/1.1/DTD/svg11.dtd">
<svg version="1.1" id="Layer_1" xmlns="http://www.w3.org/2000/svg" xmlns:xlink="http://www.w3.org/1999/xlink" x="0px" y="0px"
	 width="64px" height="64px" viewBox="0 0 64 64" enable-background="new 0 0 64 64" xml:space="preserve">
<path fill="#ED7612" d="M62,50c0,6.6-5.4,12-12,12H14C7.4,62,2,56.6,2,50V14C2,7.399,7.4,2,14,2h36c6.6,0,12,5.399,12,12V50z"/>
<path fill="#E64C18" d="M56.838,4.162C58.197,6.105,59,8.462,59,11v37c0,6.6-4.398,11-11,11H11c-2.537,0-4.895-0.805-6.838-2.162
	C6.336,59.949,9.938,62,14,62h36c6.602,0,12-5.4,12-12V14C62,9.938,59.951,6.336,56.838,4.162z"/>
<path fill-rule="evenodd" clip-rule="evenodd" fill="#F59E01" d="M4.975,12.585c0.338,2.703,4.793-2.587,9.303-7.136
	C17.188,2.524,3.957,4.45,4.975,12.585z"/>
<path fill="#FFFFFF" d="M48,20.057v8.168h-4.34V23.93H20.076v4.295H16v-8.168h4.566c-0.68-1.225-1.623-2.607-2.49-3.756l3.887-1.688
	c1.244,1.457,2.717,3.49,3.357,4.908l-1.207,0.535h5.813c-0.529-1.379-1.549-3.258-2.455-4.715L31.396,14
	c1.094,1.496,2.34,3.682,2.867,5.061l-2.641,0.996h6.188c1.209-1.646,2.643-3.986,3.359-5.787L46,15.803
	c-1.096,1.457-2.227,2.99-3.283,4.254H48z M33.773,35.201c-0.303,0.844-0.643,1.609-0.98,2.338h12.49V50H40.83v-1.266H23.133V50
	h-4.264V37.539h9.471c0.188-0.766,0.416-1.57,0.564-2.338h-6.867v-9.393h19.699v9.393H33.773z M40.83,41.449H23.133v3.336H40.83
	V41.449z M26.189,31.865h11.207v-2.684H26.189V31.865z"/>
</svg>
