<?xml version="1.0" encoding="utf-8"?>
<!-- Generator: Adobe Illustrator 15.0.0, SVG Export Plug-In . SVG Version: 6.00 Build 0)  -->
<!DOCTYPE svg PUBLIC "-//W3C//DTD SVG 1.1//EN" "http://www.w3.org/Graphics/SVG/1.1/DTD/svg11.dtd">
<svg version="1.1" id="Layer_1" xmlns="http://www.w3.org/2000/svg" xmlns:xlink="http://www.w3.org/1999/xlink" x="0px" y="0px"
	 width="64px" height="64px" viewBox="0 0 64 64" enable-background="new 0 0 64 64" xml:space="preserve">
<path fill="#AA5BEF" d="M62,50c0,6.601-5.4,12-12,12H14C7.4,62,2,56.601,2,50V14C2,7.4,7.4,2,14,2h36c6.6,0,12,5.4,12,12V50z"/>
<path fill="#8D40CF" d="M56.838,4.162C58.196,6.106,59,8.462,59,11v37c0,6.601-4.399,11-11,11H11c-2.537,0-4.894-0.804-6.838-2.162
	C6.336,59.95,9.938,62,14,62h36c6.601,0,12-5.399,12-12V14C62,9.938,59.95,6.336,56.838,4.162z"/>
<path fill-rule="evenodd" clip-rule="evenodd" fill="#C28FEF" d="M4.975,12.585c0.339,2.704,4.793-2.587,9.303-7.135
	C17.188,2.525,3.957,4.45,4.975,12.585z"/>
<path fill="#FFFFFF" d="M30.141,21.859c-0.697,6.588-2.826,10.756-12.662,12.939c-0.387-1.111-1.549-3.016-2.479-3.971
	c8.441-1.508,9.797-4.285,10.416-8.969h-5.344v4.604h-4.529v-8.891h14.018V14h4.725v3.572h14.367v8.215h-4.764v-3.928h-5.461v6.271
	c0,1.07,0.232,1.23,1.434,1.23h3.445c0.969,0,1.162-0.396,1.316-2.898c0.854,0.674,2.75,1.35,3.951,1.627
	c-0.465,4.168-1.705,5.279-4.803,5.279h-4.607c-4.338,0-5.268-1.27-5.268-5.199v-6.311H30.141z M49,45.713V50H15.117v-4.287h14.443
	v-5.912H19.182v-4.248h26.527v4.248H34.285v5.912H49z"/>
</svg>
