<?xml version="1.0" encoding="utf-8"?>
<!-- Generator: Adobe Illustrator 15.0.0, SVG Export Plug-In . SVG Version: 6.00 Build 0)  -->
<!DOCTYPE svg PUBLIC "-//W3C//DTD SVG 1.1//EN" "http://www.w3.org/Graphics/SVG/1.1/DTD/svg11.dtd">
<svg version="1.1" id="Layer_1" xmlns="http://www.w3.org/2000/svg" xmlns:xlink="http://www.w3.org/1999/xlink" x="0px" y="0px"
	 width="64px" height="64px" viewBox="0 0 64 64" enable-background="new 0 0 64 64" xml:space="preserve">
<path fill="#ED7612" d="M62,50c0,6.6-5.4,12-12,12H14C7.4,62,2,56.6,2,50V14C2,7.399,7.4,2,14,2h36c6.6,0,12,5.399,12,12V50z"/>
<path fill="#E64C18" d="M56.838,4.162C58.197,6.105,59,8.462,59,11v37c0,6.6-4.398,11-11,11H11c-2.537,0-4.894-0.805-6.838-2.162
	C6.336,59.949,9.938,62,14,62h36c6.602,0,12-5.4,12-12V14C62,9.938,59.951,6.336,56.838,4.162z"/>
<path fill-rule="evenodd" clip-rule="evenodd" fill="#F59E01" d="M4.975,12.585c0.339,2.703,4.793-2.587,9.303-7.136
	C17.188,2.524,3.957,4.45,4.975,12.585z"/>
<path fill="#FFFFFF" d="M47,42.516c0,2.598-0.625,3.824-2.318,4.547c-1.768,0.758-4.344,0.828-8.135,0.828
	c-0.258-1.262-1.143-3.318-1.842-4.51c2.576,0.145,5.67,0.109,6.479,0.109c0.883,0,1.18-0.289,1.18-1.047v-5.23H26.607
	C25.65,41.252,23.811,45.186,20.387,48c-0.662-0.902-2.43-2.49-3.387-3.104c5.559-4.654,6.074-11.545,6.074-17.027V16H47V42.516z
	 M42.363,33.063v-4.4H27.602c-0.037,1.371-0.111,2.887-0.258,4.4H42.363z M27.602,20.184v4.402h14.762v-4.402H27.602z"/>
</svg>
