<?xml version="1.0" encoding="utf-8"?>
<!-- Generator: Adobe Illustrator 15.0.0, SVG Export Plug-In . SVG Version: 6.00 Build 0)  -->
<!DOCTYPE svg PUBLIC "-//W3C//DTD SVG 1.1//EN" "http://www.w3.org/Graphics/SVG/1.1/DTD/svg11.dtd">
<svg version="1.1" id="Layer_1" xmlns="http://www.w3.org/2000/svg" xmlns:xlink="http://www.w3.org/1999/xlink" x="0px" y="0px"
	 width="64px" height="64px" viewBox="0 0 64 64" enable-background="new 0 0 64 64" xml:space="preserve">
<path fill="#E81C27" d="M62,50c0,6.601-5.4,12-12,12H14C7.4,62,2,56.601,2,50V14C2,7.4,7.4,2,14,2h36c6.6,0,12,5.4,12,12V50z"/>
<path fill="#C21413" d="M56.838,4.162C58.195,6.106,59,8.462,59,11v37c0,6.601-4.4,11-11,11H11c-2.537,0-4.895-0.804-6.838-2.162
	C6.336,59.95,9.938,62,14,62h36c6.6,0,12-5.399,12-12V14C62,9.938,59.949,6.336,56.838,4.162z"/>
<path fill-rule="evenodd" clip-rule="evenodd" fill="#F46C60" d="M4.975,12.585c0.338,2.704,4.793-2.587,9.303-7.135
	C17.188,2.525,3.957,4.45,4.975,12.585z"/>
<path fill="#FFFFFF" d="M20.127,24.577c-1.533,2.055-3.279,3.894-5.105,5.134c-0.684-1.025-2.002-2.652-3.021-3.464
	c2.467-1.369,4.979-3.852,6.766-6.419h-5.107v-4.106h6.469V12h4.68v3.722h5.404v4.106h-5.404v0.043
	c1.703,0.942,5.32,3.21,6.342,3.894l-2.641,3.422c-0.807-0.813-2.295-2.009-3.701-3.122v5.562h-4.68V24.577z M24.766,43.615
	c-2.086,3.039-5.49,6.076-8.469,7.873c-0.936-0.855-2.852-2.398-3.957-3.123c2.979-1.498,5.957-3.852,7.658-6.248L24.766,43.615z
	 M13.404,37.07h37.402v4.277H34.723v5.777c0,2.395-0.512,3.508-2.342,4.191C30.637,51.959,28.297,52,25.191,52
	c-0.299-1.367-1.064-3.164-1.703-4.404c2.127,0.127,4.596,0.127,5.234,0.084c0.68-0.041,0.895-0.172,0.895-0.684v-5.648H13.404
	V37.07z M18.043,30.824h28.508v4.105H18.043V30.824z M44.596,19.828c1.998,2.439,4.893,4.964,7.404,6.332
	c-1.023,0.814-2.428,2.396-3.15,3.466c-1.744-1.241-3.617-3.208-5.318-5.305v5.305h-4.768v-5.52
	c-1.703,2.182-3.701,4.151-5.744,5.436c-0.682-1.029-2.041-2.611-2.979-3.423c2.641-1.327,5.404-3.765,7.234-6.291h-5.574v-4.106
	h7.063V12h4.768v3.722h6.979v4.106H44.596z M42.211,41.947c2.852,1.84,6.596,4.707,8.469,6.717l-4.34,2.652
	c-1.619-1.924-5.234-4.963-8.17-6.973L42.211,41.947z"/>
</svg>
