<?xml version="1.0" encoding="utf-8"?>
<!-- Generator: Adobe Illustrator 15.0.0, SVG Export Plug-In . SVG Version: 6.00 Build 0)  -->
<!DOCTYPE svg PUBLIC "-//W3C//DTD SVG 1.1//EN" "http://www.w3.org/Graphics/SVG/1.1/DTD/svg11.dtd">
<svg version="1.1" id="Layer_1" xmlns="http://www.w3.org/2000/svg" xmlns:xlink="http://www.w3.org/1999/xlink" x="0px" y="0px"
	 width="64px" height="64px" viewBox="0 0 64 64" enable-background="new 0 0 64 64" xml:space="preserve">
<path fill="#E81C27" d="M62,50c0,6.601-5.4,12-12,12H14C7.4,62,2,56.601,2,50V14C2,7.399,7.4,2,14,2h36c6.6,0,12,5.399,12,12V50z"/>
<path fill="#C21413" d="M56.838,4.162C58.195,6.105,59,8.462,59,11v37c0,6.601-4.4,11-11,11H11c-2.537,0-4.895-0.804-6.838-2.162
	C6.336,59.95,9.938,62,14,62h36c6.6,0,12-5.399,12-12V14C62,9.938,59.949,6.336,56.838,4.162z"/>
<path fill-rule="evenodd" clip-rule="evenodd" fill="#F46C60" d="M4.975,12.585c0.338,2.703,4.793-2.587,9.303-7.136
	C17.188,2.524,3.957,4.45,4.975,12.585z"/>
<path fill="#FFFFFF" d="M19.605,32c-1.58-1.373-4.957-3.134-7.605-4.205l2.693-3.861c2.605,0.814,6.025,2.401,7.734,3.775L19.605,32
	z M13.113,48.523c1.92-3.305,4.656-8.711,6.836-13.732l4.016,3.047c-1.922,4.592-4.145,9.527-6.367,13.691L13.113,48.523z
	 M17.043,12.3c2.521,1.16,5.727,3.049,7.35,4.551l-3.162,4.033c-1.453-1.502-4.613-3.646-7.18-4.892L17.043,12.3z M39.822,27.537
	v2.575h11.24V47.15c0,2.232-0.43,3.391-1.883,4.078c-1.453,0.686-3.504,0.729-6.41,0.729c-0.084-1.242-0.598-3.047-1.154-4.248
	c1.582,0.086,3.418,0.086,3.975,0.086c0.557-0.043,0.727-0.215,0.727-0.688V34.533h-7.051v6.826h2.094v-5.066h2.949v10.17h-2.949
	v-1.416h-7.734v2.49h-3.033V36.293h3.033v5.066h1.922v-6.826h-6.709V52h-4.486V30.112h10.598v-2.575H23.07v-4.463h6.793v-3.177
	h-5.471v-4.421h5.471V12h4.744v3.477h5.725V12h4.916v3.477h5.557v4.421h-5.557v3.177H52v4.463H39.822z M34.607,23.074h5.725v-3.177
	h-5.725V23.074z"/>
</svg>
