<?xml version="1.0" encoding="utf-8"?>
<!-- Generator: Adobe Illustrator 15.0.0, SVG Export Plug-In . SVG Version: 6.00 Build 0)  -->
<!DOCTYPE svg PUBLIC "-//W3C//DTD SVG 1.1//EN" "http://www.w3.org/Graphics/SVG/1.1/DTD/svg11.dtd">
<svg version="1.1" id="Layer_1" xmlns="http://www.w3.org/2000/svg" xmlns:xlink="http://www.w3.org/1999/xlink" x="0px" y="0px"
	 width="64px" height="64px" viewBox="0 0 64 64" enable-background="new 0 0 64 64" xml:space="preserve">
<path fill="#E81C27" d="M62,50c0,6.601-5.4,12-12,12H14C7.4,62,2,56.601,2,50V14C2,7.4,7.4,2,14,2h36c6.6,0,12,5.4,12,12V50z"/>
<path fill="#C21413" d="M56.838,4.162C58.195,6.106,59,8.462,59,11v37c0,6.601-4.4,11-11,11H11c-2.537,0-4.895-0.804-6.838-2.162
	C6.336,59.95,9.938,62,14,62h36c6.6,0,12-5.399,12-12V14C62,9.938,59.949,6.336,56.838,4.162z"/>
<path fill-rule="evenodd" clip-rule="evenodd" fill="#F46C60" d="M4.975,12.585c0.338,2.704,4.793-2.587,9.303-7.135
	C17.188,2.525,3.957,4.45,4.975,12.585z"/>
<path fill="#FFFFFF" d="M32,11c0,0-9.969,8.641-22.223,14.6l3.197,6.092c0,0,7.914-2.59,19.025-11.529
	c11.111,8.939,19.025,11.529,19.025,11.529l3.197-6.092C41.969,19.641,32,11,32,11z"/>
<rect x="20.85" y="28.506" fill="#FFFFFF" width="22.299" height="5.139"/>
<path fill="#FFFFFF" d="M16.018,35.805V51h31.965V35.805H16.018z M41.559,45.563H22.441v-4.32h19.117V45.563z"/>
</svg>
