<?xml version="1.0" encoding="utf-8"?>
<!-- Generator: Adobe Illustrator 15.0.0, SVG Export Plug-In . SVG Version: 6.00 Build 0)  -->
<!DOCTYPE svg PUBLIC "-//W3C//DTD SVG 1.1//EN" "http://www.w3.org/Graphics/SVG/1.1/DTD/svg11.dtd">
<svg version="1.1" id="Layer_1" xmlns="http://www.w3.org/2000/svg" xmlns:xlink="http://www.w3.org/1999/xlink" x="0px" y="0px"
	 width="64px" height="64px" viewBox="0 0 64 64" enable-background="new 0 0 64 64" xml:space="preserve">
<path fill="#ED7612" d="M62,50c0,6.6-5.4,12-12,12H14C7.4,62,2,56.6,2,50V14C2,7.399,7.4,2,14,2h36c6.6,0,12,5.399,12,12V50z"/>
<path fill="#E64C18" d="M56.838,4.162C58.197,6.105,59,8.462,59,11v37c0,6.6-4.398,11-11,11H11c-2.537,0-4.894-0.805-6.838-2.162
	C6.336,59.949,9.938,62,14,62h36c6.602,0,12-5.4,12-12V14C62,9.938,59.951,6.336,56.838,4.162z"/>
<path fill-rule="evenodd" clip-rule="evenodd" fill="#F59E01" d="M4.975,12.585c0.339,2.703,4.793-2.587,9.303-7.136
	C17.188,2.524,3.957,4.45,4.975,12.585z"/>
<path fill="#FFFFFF" d="M28.996,22.971c-0.471,1.041-0.98,2.041-1.57,3.041h18.178v19.021c0,2.271-0.432,3.504-2.041,4.197
	c-1.531,0.732-3.77,0.77-6.949,0.77c-0.197-1.27-0.824-3.195-1.414-4.428c2.002,0.117,4.281,0.117,4.947,0.117
	c0.668-0.039,0.904-0.232,0.904-0.771v-2.309H26.878v7.354h-4.634v-16.75c-1.57,1.695-3.259,3.234-5.183,4.504
	c-0.667-1-2.158-2.656-3.062-3.504c4.162-2.734,7.42-6.775,9.774-11.242h-8.597v-4.313h10.56c0.63-1.578,1.141-3.119,1.534-4.658
	l4.826,1.078c-0.393,1.193-0.785,2.387-1.254,3.58H50v4.313H28.996z M41.051,30.016H26.878v2.466h14.173V30.016z M41.051,38.797
	v-2.504H26.878v2.504H41.051z"/>
</svg>
