<?xml version="1.0" encoding="utf-8"?>
<!-- Generator: Adobe Illustrator 15.0.0, SVG Export Plug-In . SVG Version: 6.00 Build 0)  -->
<!DOCTYPE svg PUBLIC "-//W3C//DTD SVG 1.1//EN" "http://www.w3.org/Graphics/SVG/1.1/DTD/svg11.dtd">
<svg version="1.1" id="Layer_1" xmlns="http://www.w3.org/2000/svg" xmlns:xlink="http://www.w3.org/1999/xlink" x="0px" y="0px"
	 width="64px" height="64px" viewBox="0 0 64 64" enable-background="new 0 0 64 64" xml:space="preserve">
<path fill="#E81C27" d="M2,32C2,15.436,15.438,2,32,2c16.572,0,30,13.436,30,30c0,16.57-13.428,30-30,30C15.438,62,2,48.57,2,32z"/>
<path fill="#C21413" d="M45.777,5.354C53.172,10.61,58,19.24,58,29c0,16.018-12.98,29-29,29c-9.76,0-18.39-4.828-23.646-12.225
	C10.347,55.412,20.404,62,32,62c16.571,0,30-13.43,30-30C62,20.402,55.413,10.346,45.777,5.354z"/>
<path fill-rule="evenodd" clip-rule="evenodd" fill="#F46C60" d="M10.217,17.397c0.447,3.133,6.311-2.997,12.248-8.267
	C26.297,5.741,8.878,7.972,10.217,17.397z"/>
<path fill="#FFFFFF" d="M22.239,22.814c-1.908,3.312-5.219,6.575-8.23,8.784c0.652,1.203,1.756,3.914,2.006,4.969
	c1.055-0.854,2.109-1.807,3.164-2.861v15.06h4.418v-20.18c1.053-1.354,2.008-2.811,2.762-4.165L22.239,22.814z"/>
<path fill="#FFFFFF" d="M25.753,16.841l-4.166-1.707c-1.506,2.359-4.467,5.221-7.025,6.928c0.6,0.954,1.605,2.911,1.957,3.915
	C19.681,23.769,23.347,20.104,25.753,16.841z"/>
<path fill="#FFFFFF" d="M43.323,35.765v-1.758h3.764v-3.813H26.308v3.813h12.297v1.758H25.403v3.914h4.619l-2.459,1.607
	c1.504,1.507,3.26,3.563,4.064,4.972l3.363-2.41c-0.703-1.205-2.209-2.813-3.564-4.169h7.178v4.521c0,0.451-0.15,0.602-0.65,0.602
	c-0.504,0-1.959,0-3.465-0.051c0.551,1.154,1.205,2.861,1.355,4.117c2.561,0,4.367-0.051,5.721-0.703
	c1.406-0.652,1.758-1.809,1.758-3.865v-4.62h4.668v-3.914H43.323z"/>
<path fill="#FFFFFF" d="M46.335,16.188H27.761v12.55h18.574V16.188z M41.366,25.675h-8.885v-1.756h8.885V25.675z M41.366,21.007
	h-8.885v-1.705h8.885V21.007z"/>
</svg>
