<?xml version="1.0" encoding="utf-8"?>
<!-- Generator: Adobe Illustrator 15.0.0, SVG Export Plug-In . SVG Version: 6.00 Build 0)  -->
<!DOCTYPE svg PUBLIC "-//W3C//DTD SVG 1.1//EN" "http://www.w3.org/Graphics/SVG/1.1/DTD/svg11.dtd">
<svg version="1.1" id="Layer_1" xmlns="http://www.w3.org/2000/svg" xmlns:xlink="http://www.w3.org/1999/xlink" x="0px" y="0px"
	 width="64px" height="64px" viewBox="0 0 64 64" enable-background="new 0 0 64 64" xml:space="preserve">
<path fill="#ED7612" d="M2,32C2,15.436,15.438,2,32,2c16.572,0,30,13.436,30,30c0,16.571-13.428,30-30,30C15.438,62,2,48.57,2,32z"
	/>
<path fill="#E64C18" d="M45.777,5.354C53.172,10.61,58,19.24,58,29c0,16.02-12.98,29-29,29c-9.76,0-18.39-4.828-23.646-12.223
	C10.347,55.412,20.404,62,32,62c16.571,0,30-13.43,30-30C62,20.402,55.413,10.347,45.777,5.354z"/>
<path fill-rule="evenodd" clip-rule="evenodd" fill="#F59E01" d="M10.217,17.397c0.447,3.134,6.311-2.997,12.248-8.267
	C26.297,5.741,8.878,7.973,10.217,17.397z"/>
<path fill="#FFFFFF" d="M48,18v4.857h-3.59v21.264c0,2.658-0.547,4.143-2.393,4.957C40.223,49.898,37.533,50,33.744,50
	c-0.201-1.482-1.047-3.73-1.744-5.113c2.592,0.156,5.432,0.156,6.23,0.104c0.797-0.049,1.096-0.256,1.096-0.971V22.857H16V18H48z"/>
<path fill="#FFFFFF" d="M19,26.5v17h4.639v-2.678H35V26.5H19z M30.057,36.393h-6.418v-5.461h6.418V36.393z"/>
</svg>
