<?xml version="1.0" encoding="utf-8"?>
<!-- Generator: Adobe Illustrator 15.0.0, SVG Export Plug-In . SVG Version: 6.00 Build 0)  -->
<!DOCTYPE svg PUBLIC "-//W3C//DTD SVG 1.1//EN" "http://www.w3.org/Graphics/SVG/1.1/DTD/svg11.dtd">
<svg version="1.1" id="Layer_1" xmlns="http://www.w3.org/2000/svg" xmlns:xlink="http://www.w3.org/1999/xlink" x="0px" y="0px"
	 width="64px" height="64px" viewBox="0 0 64 64" enable-background="new 0 0 64 64" xml:space="preserve">
<path fill="#0FB4D4" d="M62,32c0,16.569-13.432,30-30,30S2,48.568,2,32C2,17.601,12.144,5.572,25.674,2.667l0.847,0.014l0.61-0.287
	c0.49-0.08,0.984-0.148,1.482-0.205l1.05,0.033l0.731-0.18c0.142-0.008,0.283-0.014,0.426-0.02L32,2.185l0.781-0.176
	c0.149,0.004,0.298,0.01,0.446,0.016l1.646,0.414l1.942-0.055c0.23,0.037,0.46,0.078,0.688,0.119l7.117,4.535l7.763,2.951
	C58.298,15.468,62,23.302,62,32z"/>
<path fill="#A6E639" d="M33.455,11.468c1.955,0.625,1.877-0.609,3.111,0.83c0.707,0.824,1.99,2.334,3.514,2.705
	c0.211,0.053,0.688-0.402,0.688-0.768c0-0.363-1.051-1.131-1.656-1.295c-0.607-0.164,0.242-1.289-0.566-1.635
	c-0.809-0.344-1.697-1.635-2.02-2.645c-0.324-1.01-1.738-0.162-2.223-0.363c-0.484-0.203-1.09-0.082-1.615,0.686
	S32.954,11.308,33.455,11.468z"/>
<path fill="#A6E639" d="M44.039,39.73c-0.021-0.424-3.866-2.527-4.334-2.555c-0.769-0.045-1.816-0.432-2.519-0.02
	c-0.304,0.174-0.551,0.404-0.741,0.695c-0.132,0.25-0.882-0.217-1.172-0.061c-0.695,0.369-1.087-0.832-0.889-1.293
	c0.481-1.125-1.229-0.412-1.406-0.721c0.209,0.363-0.058-3.208-0.658-1.191c-0.454,1.525-2.23-0.225-2.017-1.332
	c0.332-1.715,2.914-1.963,3.483-1.661c0.287,0.152,1.337,1.676,1.471,1.633c0.289-0.092-0.17-1.793-0.227-2.022
	c-0.207-0.828,1.387-1.107,1.5-1.975c0.096-0.738,0.595-0.482,1.092-0.875c0.722-0.572,0.158-1.637,1.082-2.182
	c0.314-0.188,1.491-0.324,1.646-0.652c0.142-0.301-0.993-1.125-0.017-1.363c0.876-0.213,1.771,0.166,2.008-1.098
	c0.216-1.146-1.051-1.412-1.436-2.303c-0.116-0.268-0.262-1.807-0.804-1.521c-0.67,0.352-1.087,1.203-1.634,0.191
	c-0.986-1.82-3.434-2.605-2.288,0.258c0.591,1.48-1.62,5.979-1.939,1.818c-0.111-1.443-4.434-1.879-2.982-3.479
	c1.475-1.625,3.484-1.68,4.03-4.174c0.758-3.457-1.636-0.516-2.86-1.184c-1.826-0.998-0.279-0.459-1.223,0.836
	c-0.358,0.492-1.534-0.313-2.054-0.234c-0.484,0.072-1.729,1.145-2.062,0.477c-0.613-1.221-4.897-1.977-6.06-1.541
	c-2.416,0.906-3.255-0.32-5.671-0.797c-0.838-0.166-4.952-0.283-4.684,1.141c0.105,0.559,0.499,0.998,0.673,1.529
	c0.257,0.783-0.921,0.18-1.192,0.371c-0.072,0.051,1.388,1.078,1.507,1.201c0.395,0.402-1.515,0.893-1.703,1.566
	c-0.384,1.371,2.617,0.979,2.069,2.621c-0.168,0.502-1.887,1.318-2.051,2.998c-0.031,0.322,2.134-2.082,3.535-1.574
	c1.237,0.449,1.129-2.908,2.666-2.908c2.861,0,3.415,2.789,4.924,4.658c0.704,0.871,1.269,1.234,1.396,2.373
	c0.117,1.059-0.111,2.35,0.273,3.357c0.368,0.963,1.115,1.031,1.609,1.809c0.585,0.918,0.917,1.807,1.713,2.602
	c1.156,1.156,3.122,2.93,4.935,2.658c0.359-0.053,1.708,0.715,2.014,0.945c0.473,0.355,0.713,0.898,1.057,1.357
	c0.319,0.428,1.332,0.158,1.777,0.363c0.396,0.184-1.028,3.184-0.498,3.973c0.583,0.869,0.583,1.842,1.457,2.527
	c0.827,0.648,1.076,0.699,1.178,1.824c0.164,1.828-0.367,3.674-0.809,5.377c-0.227,0.875,0.23,1.84-0.109,2.676
	c-0.426,1.043-0.714,1.939-0.342,3.096c0.646,2.014,4.271,2.344,2.119,0.586c-0.915-0.748,0.988-2.551,0.396-2.727
	c-1.019-0.424,0.188-0.809,0.322-1.252c0.268-0.881,4.313-4.529,4.612-5.133c0.251-0.506,0.089-1.029,0.5-1.469
	c0.457-0.486,1.085-0.314,1.599-0.658c1.068-0.715,0.683-1.926,1.124-2.914c0.875-1.961,1.245-1.182,0.046-2.715
	C47.029,41.104,44.123,41.311,44.039,39.73z"/>
<path fill="#A6E639" d="M22.271,8.013c0.99,1.033,1.97-0.543,2.133,0s0.189,1.57,1.371,1.654c1.183,0.084-1.101,0.844-0.339,1.17
	c0.76,0.326,2.391,1.359,2.986,0.924c0.6-0.436,1.306-0.76,1.576-0.436c0.273,0.328,1.902-0.053,1.439-0.596
	c-0.459-0.545-1.71-1.834-1.657-2.574c0.056-0.742,1.468-2.643-0.107-2.48c-1.027,0.107-1.251,1.033-1.251,1.576
	s-1.465-0.814-1.738-0.787C26.413,6.492,25.381,4.808,25,4.808s-2.934-0.816-2.716,0C22.502,5.623,21.28,6.98,22.271,8.013z"/>
<path fill="#A6E639" d="M33.037,3.476c-0.484,0.217,0.701,0.621-0.107,0.836s-0.836,0.889-1.535,0.322
	c-0.701-0.564-1.463,0.189-0.934,0.539s1.418,1.186,1.391,1.643c-0.025,0.459,0.836,0.676,1.645,0.621
	c0.807-0.055,1.777,0.188,1.803-0.162c0.027-0.35,0.123-0.494,0.027-0.754c-0.141-0.383-0.484-0.754-1.318-0.432
	c-0.836,0.324-1.377,0.162-1.496-0.242c-0.121-0.404,1.631-1.186,2.41-0.646c0.781,0.539,1.51-0.297,0.943-0.674
	s-0.189-0.781,0.201-0.834c0.283-0.039,0.539-0.752,0.748-1.309c-1.176-0.189-2.373-0.311-3.588-0.359
	C33.232,2.787,33.518,3.263,33.037,3.476z"/>
<path fill="#A6E639" d="M25.873,2.804c0.541,0.229,1.422-0.004,1.256-0.41c-0.488,0.08-0.973,0.17-1.453,0.273
	C25.721,2.72,25.785,2.767,25.873,2.804z"/>
<path fill="#A6E639" d="M30.82,2.023c0.568,0.104,0.938,0.547,1.031,0.871c0.102,0.34,0.918-0.398,0.93-0.885
	C32.521,2.003,32.262,2,32,2C31.605,2,31.213,2.007,30.82,2.023z"/>
<path fill="#A6E639" d="M29.232,3.142c-0.342,0.469-0.047,1.039,0.357,0.566c0.404-0.475,0.08-1.658,0.404-1.146
	c0.322,0.512,0.916,1.324,1.32,1.361c0.402,0.039,0.053-0.473,0-0.904c-0.045-0.359-1.008-0.834-0.922-0.977
	c-0.598,0.031-1.191,0.08-1.779,0.146C29.037,2.464,29.479,2.806,29.232,3.142z"/>
<path fill="#A6E639" d="M34.566,33.973c0.666-0.08,1.051,0.727,1.818,0.688c0.768-0.041,1.879,1.094,2.523,0.424
	c0.525-0.545-2.303-0.99-3.23-1.475C34.748,33.125,33.898,34.053,34.566,33.973z"/>
<path fill="#A6E639" d="M37.859,3.611c0.928,0.445,0.768,0.43,0.201,0.861s-0.363,1.375,0.889,1.309
	c1.252-0.068,2.02-1.307,2.586,0.443c0.564,1.75,0.162,3.668,0.889,4.203c0.727,0.537,0.121,0.904,0,1.408
	c-0.121,0.502,0.201,0.865,0.768,0.705c0.566-0.162,0.404,0.889,0,1.332c-0.404,0.445-0.885,1.293,0.365,2.828
	s1.412,1.334,1.816,1.859s0.727-0.195,0.848-0.805s-0.283-2.742,1.131-2.746c1.414-0.006,1.818-1.137,1.98-1.5
	s1.293-0.322,1.898-0.848c0.537-0.465,1.137-0.859,1.154-2.672c-4.072-3.773-9.195-6.432-14.879-7.486
	C37.395,2.923,37.4,3.392,37.859,3.611z"/>
<path opacity="0.2" fill="#302C3B" d="M16.787,48.213C5.353,36.779,5.084,18.416,15.969,6.648C7.576,11.966,2,21.33,2,32
	c0,16.569,13.432,30,30,30c8.711,0,16.552-3.717,22.033-9.646C42.436,59.703,26.9,58.328,16.787,48.213z"/>
</svg>
