<?xml version="1.0" encoding="utf-8"?>
<!-- Generator: Adobe Illustrator 16.2.0, SVG Export Plug-In . SVG Version: 6.00 Build 0)  -->
<!DOCTYPE svg PUBLIC "-//W3C//DTD SVG 1.1//EN" "http://www.w3.org/Graphics/SVG/1.1/DTD/svg11.dtd">
<svg version="1.1" id="Layer_1" xmlns="http://www.w3.org/2000/svg" xmlns:xlink="http://www.w3.org/1999/xlink" x="0px" y="0px"
	 width="64px" height="64px" viewBox="0 0 64 64" enable-background="new 0 0 64 64" xml:space="preserve">
<rect x="2" y="2" fill="#F59E01" width="60" height="32"/>
<g>
	<path fill="#F9C802" d="M32,18c5.171,0,2.632-9.761,0-16C29.367,8.239,26.829,18,32,18z"/>
</g>
<g>
	<path fill="#FFE12C" d="M32,22c5.171,0,2.632-9.761,0-16C29.367,12.239,26.829,22,32,22z"/>
</g>
<path fill="#F9C802" d="M19,5.483c0.839,6.72,3.522,16.442,8,13.856S24.399,9.571,19,5.483z"/>
<path fill="#FFE12C" d="M21,9.483c0.839,6.72,3.522,16.442,8,13.856C33.479,20.754,26.399,13.571,21,9.483z"/>
<path fill="#F9C802" d="M9.483,15c4.086,5.4,11.271,12.478,13.856,8S16.203,15.84,9.483,15z"/>
<path fill="#FFE12C" d="M13.483,17c4.086,5.4,11.271,12.478,13.856,8S20.203,17.84,13.483,17z"/>
<g>
	<path fill="#F9C802" d="M22,28c0-5.171-9.761-2.632-16,0C12.239,30.633,22,33.171,22,28z"/>
</g>
<g>
	<path fill="#FFE12C" d="M26,28c0-5.171-9.761-2.632-16,0C16.239,30.633,26,33.171,26,28z"/>
</g>
<g>
	<path fill="#F9C802" d="M42,28c0,5.171,9.762,2.631,16,0C51.762,25.367,42,22.829,42,28z"/>
</g>
<g>
	<path fill="#FFE12C" d="M38,28c0,5.171,9.762,2.631,16,0C47.762,25.367,38,22.829,38,28z"/>
</g>
<path fill="#F9C802" d="M40.66,23c2.586,4.478,9.77-2.602,13.855-8C47.798,15.838,38.075,18.522,40.66,23z"/>
<path fill="#FFE12C" d="M36.66,25c2.586,4.478,9.77-2.602,13.855-8C43.798,17.838,34.075,20.522,36.66,25z"/>
<path fill="#F9C802" d="M37,19.34c4.479,2.585,7.159-7.137,8-13.856C39.602,9.569,32.521,16.754,37,19.34z"/>
<path fill="#FFE12C" d="M35,23.34c4.479,2.585,7.159-7.137,8-13.856C37.602,13.569,30.522,20.754,35,23.34z"/>
<circle fill="#FEEC9A" cx="32" cy="28" r="16"/>
<circle fill="#FFE12C" cx="32" cy="30" r="16"/>
<rect x="2" y="32" fill="#75D6FF" width="60" height="30"/>
<path fill="#FEEC9A" d="M36,50c0,0-8-2.25-8,0S36,50,36,50z"/>
<path fill="#FEEC9A" d="M25,46c0,0,14-2.25,14,0S25,46,25,46z"/>
<path fill="#FEEC9A" d="M34,43c0,0,10-2.25,10,0S34,43,34,43z"/>
<path fill="#FEEC9A" d="M48,34c0,0-32-4.5-32,0S48,34,48,34z"/>
<path fill="#FEEC9A" d="M20,39c0,0,26-4.5,26,0S20,39,20,39z"/>
<path fill="#FEEC9A" d="M32,43c0,0-12-2.25-12,0S32,43,32,43z"/>
</svg>
