<?xml version="1.0" encoding="utf-8"?>
<!-- Generator: Adobe Illustrator 15.0.0, SVG Export Plug-In . SVG Version: 6.00 Build 0)  -->
<!DOCTYPE svg PUBLIC "-//W3C//DTD SVG 1.1//EN" "http://www.w3.org/Graphics/SVG/1.1/DTD/svg11.dtd">
<svg version="1.1" id="Layer_1" xmlns="http://www.w3.org/2000/svg" xmlns:xlink="http://www.w3.org/1999/xlink" x="0px" y="0px"
	 width="64px" height="64px" viewBox="0 0 64 64" enable-background="new 0 0 64 64" xml:space="preserve">
<path fill="#E81C27" d="M62,7.556V2C28.865,2,2,28.864,2,62h5.555C7.555,62,14.397,16.342,62,7.556z"/>
<path fill="#C21413" d="M62,8.556V6C29.033,6,6,31.854,6,62h2.555C8.555,62,14.397,17.342,62,8.556z"/>
<path fill="#FFE12C" d="M7.555,62h5.556c0,0,9.203-41.242,48.889-48.888V7.556C31.934,7.556,7.555,31.932,7.555,62z"/>
<path fill="#F9C802" d="M11.555,62h2.556c0,0,8.203-40.242,47.889-47.888v-2.557C33.486,11.556,11.555,33.634,11.555,62z"/>
<path fill="#92C932" d="M62,18.665v-5.553c-26.998,0-48.889,21.891-48.889,48.888h5.555C18.666,62,26.313,27.175,62,18.665z"/>
<path fill="#7AB51D" d="M62,19.665v-2.553C36.463,17.112,17.111,37.58,17.111,62h2.555C19.666,62,26.313,28.175,62,19.665z"/>
<path fill="#018BC9" d="M18.666,62h5.556c0,0,6.259-29.158,37.778-37.778v-5.557C38.069,18.665,18.666,38.067,18.666,62z"/>
<path fill="#006DAE" d="M22.666,62h2.556c0,0,5.259-28.158,36.778-36.778v-2.557C40.09,22.665,22.666,39.947,22.666,62z"/>
<path fill="#7D0C7A" d="M62,31.174v-6.952c-20.861,0-37.778,16.915-37.778,37.778h6.925C31.146,44.982,45.995,31.174,62,31.174z"/>
<path fill="#B30BAD" d="M62,29.777v-5.556c-20.861,0-37.778,16.915-37.778,37.778h5.556C29.777,44.204,44.207,29.777,62,29.777z"/>
</svg>
