<?xml version="1.0" encoding="utf-8"?>
<!-- Generator: Adobe Illustrator 15.0.0, SVG Export Plug-In . SVG Version: 6.00 Build 0)  -->
<!DOCTYPE svg PUBLIC "-//W3C//DTD SVG 1.1//EN" "http://www.w3.org/Graphics/SVG/1.1/DTD/svg11.dtd">
<svg version="1.1" id="Layer_1" xmlns="http://www.w3.org/2000/svg" xmlns:xlink="http://www.w3.org/1999/xlink" x="0px" y="0px"
	 width="64px" height="64px" viewBox="0 0 64 64" enable-background="new 0 0 64 64" xml:space="preserve">
<polygon fill="#CFD8DD" points="36.97,27.197 47.605,16.49 45.891,14.765 35.254,25.471 "/>
<path fill="#F9B700" d="M36.44,26.589c-4.461-4.489-3.67-8.679-2.181-11.788L4.567,58.416l44.107-30.21
	C45.588,29.684,40.732,30.91,36.44,26.589z"/>
<path fill="#FFE12C" d="M22.218,12.274C19.454,9.493,18.213,5.914,18.713,3L4.567,58.416l30.139-44.27
	C31.771,17.1,26.178,16.262,22.218,12.274z"/>
<path fill="#D47706" d="M59.748,44.306c-2.896,0.5-6.451-0.747-9.215-3.53c-3.96-3.986-4.793-9.613-1.859-12.569L4.567,58.416
	L59.748,44.306z"/>
<path fill="#302C3B" d="M45.891,14.765l0.093,0.094l1.622,1.632l0.324,0.326l5.871-5.909c0.961-0.968,2.792-0.692,4.09,0.613
	c1.299,1.308,1.571,3.151,0.61,4.119l-0.019,0.016c-0.479,0.485-0.345,1.407,0.306,2.06c0.65,0.654,1.565,0.791,2.045,0.307
	c0.002-0.001,0.002-0.002,0.006-0.004c0.004-0.004,0.007-0.01,0.011-0.013c1.925-1.936,1.379-5.622-1.218-8.235
	c-2.596-2.613-6.26-3.162-8.183-1.228l0,0l-5.87,5.909L45.891,14.765z"/>
<path fill="#302C3B" d="M2.432,60.564c0.474,0.478,1.143,0.578,1.494,0.225c0.003-0.003,1.272-1.282,2.937-2.956
	c-0.145-0.362-0.375-0.72-0.687-1.035c-0.314-0.313-0.67-0.546-1.03-0.69c-1.663,1.673-2.934,2.951-2.936,2.955
	C1.859,59.415,1.958,60.088,2.432,60.564z"/>
<path fill="#302C3B" d="M43.642,21.905c-0.095,0.009-0.251-0.103-0.39-0.243l0,0l-0.361-0.36l1.081-1.089
	C43.794,21.117,44.074,21.863,43.642,21.905z"/>
</svg>
