<?xml version="1.0" encoding="utf-8"?>
<!-- Generator: Adobe Illustrator 15.0.0, SVG Export Plug-In . SVG Version: 6.00 Build 0)  -->
<!DOCTYPE svg PUBLIC "-//W3C//DTD SVG 1.1//EN" "http://www.w3.org/Graphics/SVG/1.1/DTD/svg11.dtd">
<svg version="1.1" id="Layer_1" xmlns="http://www.w3.org/2000/svg" xmlns:xlink="http://www.w3.org/1999/xlink" x="0px" y="0px"
	 width="64px" height="64px" viewBox="0 0 64 64" enable-background="new 0 0 64 64" xml:space="preserve">
<path fill="#BEC3CF" d="M9.123,14.997c-3.563,3.558,2.106,6.886,5.313,3.683c-2.325,3.289,6.377,7.91,6.435,17.146
	c1.032,1.346,17.258,0.885,17.258,0.885c3.458-16.172,8.164-14.751,9.746-19.75c2.063,3.628,9.008,2.345,8.291-2.462
	c5.207,0.969,3.521-4.104,3.521-4.104c2.377,0,4.061-8.394-0.871-8.394H9.182C4.685,2,3.123,7.256,5.81,8.816
	C1.748,11.438,6.248,16.09,9.123,14.997z"/>
<path fill="#45332C" d="M38.485,34.417c-1.583-3.43-16.245-5.644-17.942-1.368C14.637,47.928,2,62,2,62h60
	C62,62,47.805,54.607,38.485,34.417z"/>
<path fill="#EA8800" d="M21.438,47.104l15.144-8.503c2.751-14.877,7.872-28.266,7.872-28.266H13.888
	C13.888,10.336,24.166,24.2,21.438,47.104z"/>
<path fill="#F9B700" d="M23.801,47.104l10.517-8.503c1.91-14.877,5.466-28.266,5.466-28.266H18.558
	C18.558,10.336,25.695,24.2,23.801,47.104z"/>
<path fill="#785647" d="M38.128,34.344c-1.392-3.432-3.184,3.066-6.07,0.627c-2.54-2.143-5.417,8.975-6.977,8.364
	c-1.56-0.606-2.442-14.906-3.934-10.632C15.953,47.584,9.359,62,9.359,62H53.51C53.51,62,46.322,54.534,38.128,34.344z"/>
<path fill="#F9B700" d="M28.602,26.639c-8.598,12.749-3.646,17.679-7.227,33.607C29.087,45.497,24.269,40.84,28.602,26.639z"/>
<path fill="#F9B700" d="M33.526,24.619c-3.199,10.255,1.359,14.416,2.237,25.916C37.943,39.08,33.532,35.078,33.526,24.619z"/>
<path fill="#EA8800" d="M12.248,29.085c2.098,1.8,8.609,2.673,6.44,1.328C16.521,29.061,10.933,27.954,12.248,29.085z"/>
<path fill="#EA8800" d="M19.411,28.667c-2.151-2.862-8.346-10.059-7.918-6.673C11.832,24.66,21.559,31.533,19.411,28.667z"/>
<path fill="#EA8800" d="M48.408,16.313c-2.509,1.007-7.639,10.411-8.245,14.064C39.514,34.271,50.916,15.3,48.408,16.313z"/>
<path fill="#EA8800" d="M34.606,12.451c-1.9,1.841-2.764,12.375-1.819,15.964C33.789,32.242,36.502,10.608,34.606,12.451z"/>
<path fill="#EA8800" d="M26.982,10.209c-1.587,3.092-0.772,18.708,0.73,23.771C29.31,39.381,28.565,7.116,26.982,10.209z"/>
<path fill="#45332C" d="M40.009,41.972C37.238,51.939,41.938,54.065,44.795,62h1.336C46.156,53.146,41.049,51.263,40.009,41.972z"/>
<path fill="#45332C" d="M20.528,40.021C18.367,50.091,12.867,53.252,14.084,62h1.229C17.2,54.072,22.051,50.872,20.528,40.021z"/>
<path fill="#45332C" d="M30.524,42.878c0.469,7.947-3.793,15.281-3.768,19.122h6.702C35.094,58.274,35.196,51.186,30.524,42.878z"/>
<path fill="#E6EBEF" d="M8.477,8.826c-4.254,2.56,0.178,5.615,3.2,4.528c-2.633,2.729,5.626,5.085,9.595,2.294
	c0.351,3.969,7.368,0.053,7.368,0.053c3.537,3.523,10.709,0.396,12.502-3.754c2.337,3.012,12.09,3.032,9.824-1.972
	c5.094,0.418,3.248-4.522,3.248-4.522C57.435,4.946,56.761,2,56.761,2H10.367C10.367,2,3.622,4.635,8.477,8.826z"/>
<path fill="#BEC3CF" d="M20.147,7.904c1.621,5.072,12.661,5.629,12.661-0.266c3.63,1.604,6.579-0.543,6.579-0.543
	c2.185,1.584,5.196,1.134,6.491-1.631c-2.67,1.979-4.658,2.002-5.875-0.891c-2.797,2.301-5.104,2.568-8.523,0.934
	c-0.402,6.083-8.956,7.486-10.811,1.188c-3.54,2.859-9.546,1.254-9.546,1.254S15.701,10.727,20.147,7.904z"/>
</svg>
