<?xml version="1.0" encoding="utf-8"?>
<!-- Generator: Adobe Illustrator 15.0.0, SVG Export Plug-In . SVG Version: 6.00 Build 0)  -->
<!DOCTYPE svg PUBLIC "-//W3C//DTD SVG 1.1//EN" "http://www.w3.org/Graphics/SVG/1.1/DTD/svg11.dtd">
<svg version="1.1" id="Layer_1" xmlns="http://www.w3.org/2000/svg" xmlns:xlink="http://www.w3.org/1999/xlink" x="0px" y="0px"
	 width="64px" height="64px" viewBox="0 0 64 64" enable-background="new 0 0 64 64" xml:space="preserve">
<path fill="#0FB4D4" d="M58.404,22.718l1.646,19.946C55.75,53.969,44.813,62,32,62C15.432,62,2,48.568,2,32C2,15.431,15.432,2,32,2
	c6.006,0,11.602,1.766,16.293,4.807L58.404,22.718z"/>
<path fill="#A6E639" d="M48.287,6.802c0.346,0.957,0.617,2.139-0.439,1.586c-1.68-0.881-3.922-1.939-3.201-1.25
	s1.004,1.533-0.139,1.393c-1.143-0.143-3.143-0.383-4.023,0.898s-2.08,1.041-2.4,1.521c-0.32,0.479-0.801,2.561-1.682,1.92
	c-0.879-0.641-2.721-2.902-1.199-2.252c1.52,0.65,3.201-0.068,1.84-1.67s-2.801-1.041-3.361-1.92
	c-0.561-0.881-2.641-2.002-4.082,0.24c-1.441,2.24-2.744,5.123-3.533,5.723s-2.469,1.721-2.23,2.6
	c0.24,0.881,0.32,3.043,1.201,2.402s1.441-0.881,1.762-0.32s0.24,1.84,0.881,1.76c0,0,1.439-1.039,1.52-1.92
	s-1.041-1.441-0.16-2.721c0.881-1.281,2.563-3.77,2.162-2.525s-1.281,3.004-0.641,3.805s4.082-0.24,2.48,0.561
	c-1.6,0.801-2.4,1.361-2.721,2.4c-0.32,1.041-0.561,1.842-1.361,1.441s-1.76-0.24-2.24-0.24s-0.641-1.84-1.281-1.439
	c-0.641,0.398,0.24,1.73-0.48,1.785s-0.801,0.855-1.6,1.496c-0.801,0.641-1.922,1.76-2.643,1.92s1.121,0.961,0.801,1.842
	s-1.92,0.801-2.48,0.881s-0.08,1.279-0.4,2s0.32,1.441,1.279,1.441c0.961,0,2.002-0.24,2.082-1.121s1.041-2.4,1.682-2.082
	c0.639,0.32,2.057-0.559,2.389-0.078c0.332,0.479,2.172,2.16,2.012,2.4S26.959,30,27.359,30.16c0,0,0.254,0.504,0.521,0.396
	c0.268-0.105,0.721-1.414,0.961-1.574s0.32-0.854-0.135-1.174c-0.453-0.32-2.16-1.52-1.787-2.08s1.334,0.693,1.707,1.119
	c0.375,0.428,0.961,0.881,0.988,1.814s0.561,0.881,0.641,1.334c0.08,0.455,0.266,0.645,0.801,0.576
	c0.533-0.068,0.746-1.242,0.453-1.535c-0.293-0.295-0.293-0.936,0.266-0.936c0.561,0,1.254-0.479,1.281-0.773
	c0.027-0.293,0.561-2.107,0.961-2.107s0.666,0.721,0.826,1.094s1.174-0.293,1.014-0.666c-0.16-0.375,0.08-0.508,0.375-0.508
	c0.293,0,0.053,0.773,0.346,1.014c0.295,0.24,1.654,1.121,1.201,1.574s-1.201,0.188-1.707-0.213c-0.508-0.4-1.814-0.16-2.162,0.24
	c-0.346,0.4-0.641,0.586-1.227,0.613c-0.588,0.027-0.508,1.094,0,1.547c0.506,0.455,1.201,0.055,1.707,0.375
	c0.508,0.32,1.307-0.428,1.441,0.08c0.133,0.506-0.08,2.027-0.588,2.08c-0.506,0.053-2.084,0.428-3.244-0.107
	c-1.158-0.533-2.277-0.746-2.385-0.186s-0.133,0.967-0.934,0.471c-0.801-0.498-1.494-0.791-2.002-0.791
	c-0.506,0-0.533-0.854-0.426-1.602c0.105-0.746-1.229-0.48-2.002-0.293s-2.4,0.748-3.361,0.748s-1.441,0.213-1.602,0.639
	c-0.16,0.428-1.094,0.428-1.121,1.229c-0.025,0.801,0.135,1.034-0.719,1.37c-0.854,0.338-1.121,1.885-1.549,2.313
	c-0.426,0.428,0.428,1.441,0,1.975c-0.426,0.533-0.832,1.92-0.123,2.24c0.711,0.32,1.404,1.654,1.725,2.188
	c0.32,0.535,1.387,0.961,2.455,0.801c1.066-0.16,3.148-0.801,4.162-0.32s2.24,0.375,1.654,1.389
	c-0.588,1.014,0.266,2.295,1.014,3.041c0.746,0.748,0.48,2.455,0.105,3.041c-0.373,0.588-0.266,1.602,0.107,2.135
	s0.641,1.654,0.641,2.135s0.801,1.387,0.906,2.348c0.107,0.961-0.586,2.082,0.32,2.082c0.908,0,3.203,0.105,3.363-0.32
	c0.16-0.428,2.027-1.975,2.508-2.723c0.48-0.746,1.547-1.92,1.227-2.613c-0.32-0.695,0.053-1.281,1.068-1.654
	c1.014-0.375,0.959-3.203,0.479-3.949c-0.479-0.748,0.428-2.402,1.549-2.936c1.119-0.533,3.734-5.068,2.881-4.695
	s-2.615,0.693-3.201,0.32c-0.588-0.373-4.057-6.438-3.576-6.795c0.48-0.355,3.307,5.457,3.789,6.207
	c0.482,0.752,5.23-2.133,5.764-2.828c0.533-0.693-0.32-1.439-0.641-1.439s-1.387-0.748-1.654-0.32
	c-0.268,0.426-2.348-2.883-1.602-2.563c0.748,0.321,2.242,1.334,3.576,2.083c1.334,0.746,2.988-0.533,3.949,0.961
	c0.959,1.494,1.6,0.48,1.547,1.227c-0.053,0.748,1.227,3.576,1.654,4.482c0.426,0.906,1.334-0.373,1.441-1.441
	c0.105-1.066,2.24-2.773,2.986-3.361c0.748-0.586,2.135,0.268,2.35,1.494c0.213,1.227,1.227-0.213,1.227,0.748
	c0,0.959-0.174,2.334,0.5,3.488C61.311,39.35,62,35.756,62,32C62,21.435,56.539,12.146,48.287,6.802z"/>
<path fill="#A6E639" d="M16.393,10.63c-0.561,0.154-1.199,0.879-2,0.48c-0.801-0.4-2.48,0.158-1.441,1.119
	c1.041,0.961,0.631,1.602,1.557,1.682s1.645-1.281,2.285-1.201S17.055,10.447,16.393,10.63z"/>
<path fill="#A6E639" d="M40.715,49.74c-0.68,0.076-0.535,1.494-1.281,1.654c-0.748,0.16-0.111,0.801-0.455,1.334
	c-0.346,0.533-0.51,1.654,0,2.348c0.508,0.693,0.723,0.748,1.256-0.373S42.154,49.58,40.715,49.74z"/>
<path fill="#A6E639" d="M20.65,17.269c-0.287-0.018-0.588,0.188-0.908,0.24c-0.318,0.055-0.506,0.453-0.533,0.908
	c-0.025,0.453,0.801,0.641,0.48,0.934s-1.895,0.586-1.654,1.066s0.533,0.934,0.213,1.441c-0.318,0.506,0.32,0.561,0.881,0.373
	c0.561-0.186,0.961-0.881,0.908-1.334c-0.055-0.453,0.854-0.561,0.613-0.24s-0.773,1.398-0.508,1.674
	c0.268,0.273-0.826,0.781-0.426,0.969c0.4,0.186,1.451-0.801,2.107-0.641s0.826-0.16,0.906-0.721s-0.826-1.334-1.146-1.975
	S21.531,17.324,20.65,17.269z"/>
<path opacity="0.2" fill="#302C3B" d="M16.787,48.213C5.353,36.779,5.084,18.416,15.969,6.648C7.576,11.966,2,21.33,2,32
	c0,16.569,13.432,30,30,30c8.711,0,16.552-3.717,22.033-9.646C42.436,59.703,26.9,58.328,16.787,48.213z"/>
</svg>
