<?xml version="1.0" encoding="utf-8"?>
<!-- Generator: Adobe Illustrator 15.0.0, SVG Export Plug-In . SVG Version: 6.00 Build 0)  -->
<!DOCTYPE svg PUBLIC "-//W3C//DTD SVG 1.1//EN" "http://www.w3.org/Graphics/SVG/1.1/DTD/svg11.dtd">
<svg version="1.1" id="Layer_1" xmlns="http://www.w3.org/2000/svg" xmlns:xlink="http://www.w3.org/1999/xlink" x="0px" y="0px"
	 width="64px" height="64px" viewBox="0 0 64 64" enable-background="new 0 0 64 64" xml:space="preserve">
<rect x="2" y="2" fill="#F59E01" width="60" height="32"/>
<path fill="#F9C802" d="M32,18c5.171,0,2.632-9.761,0-16C29.367,8.239,26.829,18,32,18z"/>
<path fill="#FFE12C" d="M32,22c5.171,0,2.632-9.761,0-16C29.367,12.239,26.829,22,32,22z"/>
<path fill="#F9C802" d="M19,5.482c0.839,6.721,3.522,16.442,8,13.856C31.478,16.753,24.399,9.57,19,5.482z"/>
<path fill="#FFE12C" d="M21,9.482c0.839,6.721,3.522,16.442,8,13.856C33.479,20.754,26.399,13.57,21,9.482z"/>
<path fill="#F9C802" d="M9.483,15c4.086,5.4,11.271,12.479,13.856,8S16.203,15.84,9.483,15z"/>
<path fill="#FFE12C" d="M13.483,17c4.086,5.4,11.271,12.479,13.856,8S20.203,17.84,13.483,17z"/>
<path fill="#F9C802" d="M22,28c0-5.171-9.761-2.632-16,0C12.239,30.633,22,33.171,22,28z"/>
<path fill="#FFE12C" d="M26,28c0-5.171-9.761-2.632-16,0C16.239,30.633,26,33.171,26,28z"/>
<path fill="#F9C802" d="M42,28c0,5.171,9.762,2.631,16,0C51.762,25.367,42,22.829,42,28z"/>
<path fill="#FFE12C" d="M38,28c0,5.171,9.762,2.631,16,0C47.762,25.367,38,22.829,38,28z"/>
<path fill="#F9C802" d="M40.66,23c2.586,4.479,9.77-2.602,13.855-8C47.798,15.838,38.075,18.521,40.66,23z"/>
<path fill="#FFE12C" d="M36.66,25c2.586,4.479,9.77-2.602,13.855-8C43.798,17.838,34.075,20.521,36.66,25z"/>
<path fill="#F9C802" d="M37,19.34c4.479,2.585,7.159-7.137,8-13.855C39.602,9.568,32.521,16.754,37,19.34z"/>
<path fill="#FFE12C" d="M35,23.34c4.479,2.585,7.159-7.137,8-13.855C37.602,13.568,30.522,20.754,35,23.34z"/>
<circle fill="#FEEC9A" cx="32" cy="28" r="16"/>
<circle fill="#FFE12C" cx="32" cy="30" r="16"/>
<polygon fill="#E03636" points="41,15 41,14 40,14 40,8 38,8 38,14 37,14 37,15 33,17 33,18 45,18 45,17 "/>
<polygon opacity="0.5" fill="#C21413" points="41,15 41,14 40,14 40,8 39,8 39,14 38,14 38,15 36,17 36,18 45,18 45,17 "/>
<rect x="32" y="18" fill="#E03636" width="14" height="44"/>
<rect x="41" y="18" opacity="0.5" fill="#C21413" width="5" height="44"/>
<rect x="34" y="20" opacity="0.5" fill="#C21413" width="2" height="4"/>
<rect x="38" y="26" opacity="0.5" fill="#C21413" width="2" height="4"/>
<rect x="42" y="26" fill="#C21413" width="2" height="4"/>
<rect x="42" y="20" fill="#C21413" width="2" height="4"/>
<rect x="51" y="25" fill="#E03636" width="10" height="3"/>
<rect x="56" y="25" opacity="0.5" fill="#C21413" width="5" height="3"/>
<rect x="50" y="26" fill="#E03636" width="12" height="36"/>
<rect x="57" y="26" opacity="0.5" fill="#C21413" width="5" height="36"/>
<rect x="58" y="28" fill="#C21413" width="2" height="4"/>
<rect x="54" y="34" opacity="0.5" fill="#C21413" width="2" height="4"/>
<rect x="58" y="34" fill="#C21413" width="2" height="4"/>
<rect x="13" y="18" fill="#E03636" width="10" height="3"/>
<rect x="18" y="18" opacity="0.5" fill="#C21413" width="5" height="3"/>
<rect x="12" y="19" fill="#E03636" width="12" height="40"/>
<rect x="20" y="19" opacity="0.5" fill="#C21413" width="4" height="40"/>
<rect x="14" y="21" opacity="0.5" fill="#C21413" width="2" height="4"/>
<polygon fill="#750505" points="18,61 2,61 2,29 18,33 "/>
<polygon fill="#B00505" points="18,62 2,62 2,30 18,34 "/>
<rect x="15" y="42" fill="#B00505" width="6" height="20"/>
<rect x="56" y="40" fill="#B00505" width="6" height="22"/>
<rect x="4" y="34" fill="#750505" width="2" height="4"/>
<rect x="10" y="34" fill="#750505" width="2" height="4"/>
<polygon fill="#750505" points="52,61 38,61 38,36.354 52,33 "/>
<polygon fill="#B00505" points="52,62 38,62 38,37.354 52,34 "/>
<rect x="48" y="36" fill="#750505" width="2" height="4"/>
<polygon fill="#302C3B" points="18,44 6,44 6,40 18,38 "/>
<polygon fill="#1A1626" points="18,43 11,43 11,40 18,38 "/>
<rect x="4" y="42" fill="#302C3B" width="14" height="20"/>
<rect x="13" y="42" fill="#1A1626" width="5" height="20"/>
<rect x="10" y="44" fill="#F9C802" width="2" height="4"/>
<rect x="14" y="50" fill="#F9C802" width="2" height="4"/>
<rect x="6" y="56" fill="#F9C802" width="2" height="4"/>
<rect x="41" y="41" fill="#302C3B" width="18" height="3"/>
<rect x="51" y="41" fill="#1A1626" width="8" height="3"/>
<rect x="40" y="42" fill="#302C3B" width="20" height="20"/>
<rect x="55" y="42" fill="#1A1626" width="5" height="20"/>
<rect x="42" y="50" fill="#F9C802" width="2" height="4"/>
<rect x="52" y="50" fill="#F9C802" width="2" height="4"/>
<rect x="46" y="44" fill="#F9C802" width="2" height="4"/>
<rect x="52" y="56" fill="#F9C802" width="2" height="4"/>
<rect x="56" y="56" fill="#F9C802" width="2" height="4"/>
<rect x="21" y="29" fill="#302C3B" width="16" height="3"/>
<rect x="31" y="29" fill="#1A1626" width="6" height="3"/>
<rect x="20" y="30" fill="#302C3B" width="18" height="32"/>
<rect x="33" y="30" fill="#1A1626" width="5" height="32"/>
<rect x="22" y="44" fill="#F9C802" width="2" height="4"/>
<rect x="34" y="38" fill="#F9C802" width="2" height="4"/>
<rect x="30" y="50" fill="#F9C802" width="2" height="4"/>
<rect x="26" y="56" fill="#F9C802" width="2" height="4"/>
<rect x="26" y="32" fill="#F9C802" width="2" height="4"/>
</svg>
