<?xml version="1.0" encoding="utf-8"?>
<!-- Generator: Adobe Illustrator 15.0.0, SVG Export Plug-In . SVG Version: 6.00 Build 0)  -->
<!DOCTYPE svg PUBLIC "-//W3C//DTD SVG 1.1//EN" "http://www.w3.org/Graphics/SVG/1.1/DTD/svg11.dtd">
<svg version="1.1" id="Layer_1" xmlns="http://www.w3.org/2000/svg" xmlns:xlink="http://www.w3.org/1999/xlink" x="0px" y="0px"
	 width="64px" height="64px" viewBox="0 0 64 64" enable-background="new 0 0 64 64" xml:space="preserve">
<rect x="2" y="2" fill="#014D87" width="60" height="60"/>
<path opacity="0.4" fill="#018BC9" d="M62,62H2V52c7.821-9.25,52.179-11.25,60-2V62z"/>
<path fill="#018BC9" d="M62,62H2v-5.982c7.821-9.25,52.179-11.25,60-2V62z"/>
<path fill="#1A1626" d="M2,53.563c0,0,5.414-3.543,7.5-3.75c2.658-0.264,7.654,3.076,10.313,2.813c2.086-0.207,5.428-3.439,7.5-3.75
	c1.41-0.213,4.231,1.238,5.625,0.938c1.652-0.354,3.936-3.725,5.625-3.75c2.211-0.033,5.289,4.631,7.5,4.688
	c2.412,0.063,6.066-2.297,8.438-2.75c1.857-0.355,7.5,3,7.5,3v11H2V53.563z"/>
<path opacity="0.35" fill="#E635DE" d="M2,13C13.999,2.584,28.25,11,38,2h24v26C46.25,46.007,23.563,27,2,42.007V13z"/>
<path opacity="0.2" fill="#E635DE" d="M2,22c9.755-12.251,37.005-3,51-20h9v15C48,37,22.505,23.5,2,32.007V22z"/>
<path fill="#FFFFFF" d="M48,10.5c-1.999,0-1.999-3,0-3C50,7.5,50,10.5,48,10.5z"/>
<path fill="#FFFFFF" d="M41,18.5c-1.999,0-1.999-3,0-3C43,15.5,43,18.5,41,18.5z"/>
<path fill="#FFFFFF" d="M48,22.5c-1.999,0-1.999-3,0-3C50,19.5,50,22.5,48,22.5z"/>
<path fill="#FFFFFF" d="M28,25.5c-2,0-2-3,0-3C30,22.5,30,25.5,28,25.5z"/>
<path fill="#C28FEF" d="M6,27.5c-2,0-2-3,0-3C8,24.5,8,27.5,6,27.5z"/>
<path fill="#FF8FA8" d="M14,25.5c-2,0-2-3,0-3S16,25.5,14,25.5z"/>
<path fill="#FF8FA8" d="M36,27.5c-2,0-2-3,0-3S38,27.5,36,27.5z"/>
<path fill="#FF8FA8" d="M19.5,15.5c-1.333,0-1.333-2,0-2S20.833,15.5,19.5,15.5z"/>
<path fill="#C28FEF" d="M34,15c-1.333,0-1.333-2,0-2C35.333,13,35.333,15,34,15z"/>
<path fill="#FFFFFF" d="M55,13c-1.333,0-1.333-2,0-2S56.333,13,55,13z"/>
<path fill="#FFFFFF" d="M59,6c-1.333,0-1.333-2,0-2S60.333,6,59,6z"/>
<path fill="#FF8FA8" d="M25,34c-1.333,0-1.333-2,0-2S26.333,34,25,34z"/>
<path opacity="0.4" fill="#018BC9" d="M6,43c-1.333,0-1.333-2,0-2S7.333,43,6,43z"/>
<path fill="#FF8FA8" d="M50,29c-1.334,0-1.334-2,0-2S51.334,29,50,29z"/>
<path fill="#FF8FA8" d="M60,19c-1.334,0-1.334-2,0-2S61.334,19,60,19z"/>
<path fill="#C28FEF" d="M43,11c-1.334,0-1.334-2,0-2S44.334,11,43,11z"/>
<path fill="#FFFFFF" d="M21,22.5c-2,0-2-3,0-3C23,19.5,23,22.5,21,22.5z"/>
<path fill="#FF8FA8" d="M12,15c-1.333,0-1.333-2,0-2S13.333,15,12,15z"/>
<path fill="#FF8FA8" d="M28,17c-1.333,0-1.333-2,0-2S29.333,17,28,17z"/>
<path fill="#FF8FA8" d="M49.5,15.5c-1.333,0-1.333-2,0-2S50.833,15.5,49.5,15.5z"/>
<path fill="#FF8FA8" d="M53.5,7c-2,0-2-3,0-3S55.5,7,53.5,7z"/>
<path fill="#FFFFFF" d="M13.5,31c-2,0-2-3,0-3S15.5,31,13.5,31z"/>
<path fill="#C28FEF" d="M27,11c-1.334,0-1.334-2,0-2S28.334,11,27,11z"/>
<path opacity="0.4" fill="#018BC9" d="M31,40c-1.334,0-1.334-2,0-2S32.334,40,31,40z"/>
<path opacity="0.4" fill="#018BC9" d="M59,35c-1.334,0-1.334-2,0-2S60.334,35,59,35z"/>
<path fill="#FF8FA8" d="M55,19c-1.334,0-1.334-2,0-2S56.334,19,55,19z"/>
<path fill="#FF8FA8" d="M60,13c-1.334,0-1.334-2,0-2S61.334,13,60,13z"/>
<path fill="#FF8FA8" d="M43,26.5c-2,0-2-3,0-3S45,26.5,43,26.5z"/>
<path fill="#FF8FA8" d="M21,29c-1.333,0-1.333-2,0-2C22.333,27,22.333,29,21,29z"/>
<path fill="#FFFFFF" d="M35,21.5c-2,0-2-3,0-3S37,21.5,35,21.5z"/>
<path fill="#C28FEF" d="M32,30.5c-2,0-2-3,0-3S34,30.5,32,30.5z"/>
<path fill="#FF8FA8" d="M6,34c-1.333,0-1.333-2,0-2S7.333,34,6,34z"/>
<path fill="#FF8FA8" d="M8.5,20.5c-1.333,0-1.333-2,0-2S9.833,20.5,8.5,20.5z"/>
<path fill="#C28FEF" d="M54,24c-1.333,0-1.333-2,0-2S55.333,24,54,24z"/>
<path fill="#C28FEF" d="M38,7c-1.334,0-1.334-2,0-2S39.334,7,38,7z"/>
<path fill="#C28FEF" d="M41,33c-1.334,0-1.334-2,0-2S42.334,33,41,33z"/>
<path opacity="0.4" fill="#018BC9" d="M53,42c-1.334,0-1.334-2,0-2S54.334,42,53,42z"/>
<path opacity="0.4" fill="#018BC9" d="M18,44c-1.334,0-1.334-2,0-2S19.334,44,18,44z"/>
<path opacity="0.4" fill="#018BC9" d="M7,7C5.666,7,5.666,5,7,5S8.334,7,7,7z"/>
<path opacity="0.4" fill="#018BC9" d="M19,6c-1.334,0-1.334-2,0-2S20.334,6,19,6z"/>
</svg>
