<?xml version="1.0" encoding="utf-8"?>
<!-- Generator: Adobe Illustrator 16.2.0, SVG Export Plug-In . SVG Version: 6.00 Build 0)  -->
<!DOCTYPE svg PUBLIC "-//W3C//DTD SVG 1.1//EN" "http://www.w3.org/Graphics/SVG/1.1/DTD/svg11.dtd">
<svg version="1.1" id="Layer_1" xmlns="http://www.w3.org/2000/svg" xmlns:xlink="http://www.w3.org/1999/xlink" x="0px" y="0px"
	 width="64px" height="64px" viewBox="0 0 64 64" enable-background="new 0 0 64 64" xml:space="preserve">
<rect x="2" y="2" fill="#F59E01" width="60" height="52"/>
<path fill="#F9C802" d="M32,18c5.171,0,2.632-9.761,0-16C29.367,8.239,26.829,18,32,18z"/>
<path fill="#FFE12C" d="M32,22c5.171,0,2.632-9.761,0-16C29.367,12.239,26.829,22,32,22z"/>
<path fill="#F9C802" d="M19,5.483c0.839,6.72,3.522,16.442,8,13.856S24.399,9.571,19,5.483z"/>
<path fill="#FFE12C" d="M21,9.483c0.839,6.72,3.522,16.442,8,13.856C33.479,20.754,26.399,13.571,21,9.483z"/>
<path fill="#F9C802" d="M9.483,15c4.086,5.4,11.271,12.478,13.856,8S16.203,15.84,9.483,15z"/>
<path fill="#FFE12C" d="M13.483,17c4.086,5.4,11.271,12.478,13.856,8S20.203,17.84,13.483,17z"/>
<path fill="#F9C802" d="M22,28c0-5.171-9.761-2.632-16,0C12.239,30.633,22,33.171,22,28z"/>
<path fill="#FFE12C" d="M26,28c0-5.171-9.761-2.632-16,0C16.239,30.633,26,33.171,26,28z"/>
<path fill="#F9C802" d="M42,28c0,5.171,9.762,2.631,16,0C51.762,25.367,42,22.829,42,28z"/>
<path fill="#FFE12C" d="M38,28c0,5.171,9.762,2.631,16,0C47.762,25.367,38,22.829,38,28z"/>
<path fill="#F9C802" d="M40.66,23c2.586,4.478,9.77-2.602,13.855-8C47.798,15.838,38.075,18.522,40.66,23z"/>
<path fill="#FFE12C" d="M36.66,25c2.586,4.478,9.77-2.602,13.855-8C43.798,17.838,34.075,20.522,36.66,25z"/>
<path fill="#F9C802" d="M37,19.34c4.479,2.585,7.159-7.137,8-13.856C39.602,9.569,32.521,16.754,37,19.34z"/>
<path fill="#FFE12C" d="M35,23.34c4.479,2.585,7.159-7.137,8-13.856C37.602,13.569,30.522,20.754,35,23.34z"/>
<circle fill="#FEEC9A" cx="32" cy="28" r="16"/>
<circle fill="#FFE12C" cx="32" cy="30" r="16"/>
<path fill="#302C3B" d="M55.5,29.5L36.043,40.192l-2.461-2.067l-0.9-1.132c0,0-8.812-3.191-10.682-3.868
	c-3.003-1.087-7.705-6.315-10.875-6.707C8.693,26.118,2,30,2,30v32h10h50V35.5C59.167,33.833,56,29.5,55.5,29.5z"/>
<path fill="#99A8AE" d="M34.125,40.625c-1.06,0.054-2.976,0.52-4.125,1c-1.219,0.51-4.976,2.089-5.291,2.089
	C24.313,43.714,23,40.75,23,40.75C21.214,40.439,18,46,18,46s0.381-4.247,1-5.5c0.823-1.666,5-4.713,5-5.5c0-1.235-13,6-13,6
	c0-3.833,5.625-7.875,5.625-7.875c-2-0.813-6.405,1.23-6.625,0.875c-0.174-0.282,3.263-2.872,3.483-4
	c0.246-1.265-2.358-3.582-2.358-3.582c2.875,0,7.849,4.684,10.875,5.707c1.884,0.637,7.43,1.877,7.875,2.125
	c0.214,0.119,2.807,2.743,2.807,2.743L29,39.75l4.582-1.625c0,0,4.709,1.625,5.709,2.875C39.291,41,35.418,40.56,34.125,40.625z"/>
<path fill="#302C3B" d="M42.21,38.581C41.75,36.844,41,35,41,35c-1.516,2.484-3.204,4.093-3.204,4.093l2.579,3.307
	c4.333,0,5.72-1.399,5.72-1.399L42.21,38.581z"/>
<path fill="#99A8AE" d="M47,38.125c6.25,3,4.374-0.125,5-0.125c1.492,0,3.834,0,3.834,0l-3.318-2.917C55,32.333,55.5,29.5,55.5,29.5
	c-2.938,0-4.858,2.854-14.5,5.5c0,0,0.75,1.844,1.21,3.581L46.095,41C46.758,39.714,47,38.125,47,38.125z"/>
<path fill="#99A8AE" d="M40.667,42.25c0.33,0.197,5.038,1.06,5.752,1.27l2.331,2.98l4.926-0.811c0,0,4.136,1.122,4.324,1.311
	c0.938,0.938,4,6.25,4,6.25s-7.875-1.014-7.875-1.75c0-1.083,1.148-3.691,0.391-3.691C48,47.809,42.467,49.003,42,48.375
	c-1.767-2.375-7.875-7.75-7.875-7.75l-0.543-2.5l4.214,0.968C37.796,39.093,40.442,42.116,40.667,42.25z"/>
</svg>
