<?xml version="1.0" encoding="utf-8"?>
<!-- Generator: Adobe Illustrator 15.0.0, SVG Export Plug-In . SVG Version: 6.00 Build 0)  -->
<!DOCTYPE svg PUBLIC "-//W3C//DTD SVG 1.1//EN" "http://www.w3.org/Graphics/SVG/1.1/DTD/svg11.dtd">
<svg version="1.1" id="Layer_1" xmlns="http://www.w3.org/2000/svg" xmlns:xlink="http://www.w3.org/1999/xlink" x="0px" y="0px"
	 width="64px" height="64px" viewBox="0 0 64 64" enable-background="new 0 0 64 64" xml:space="preserve">
<rect x="2" y="2" fill="#018BC9" width="60" height="60"/>
<path fill="#FFFFFF" d="M54.932,4.042c1.458,1.971,1.84,4.707-0.019,7.412c-1.861,2.706-4.552,3.328-6.913,2.674
	c2.395,3.233,7.688,4.4,10.741-0.042C61.796,9.643,58.809,5.118,54.932,4.042z"/>
<path fill="#FFFFFF" d="M10.001,10c0,2-3,2-3,0S10.001,8,10.001,10z"/>
<path fill="#FFFFFF" d="M9,23c0,1.333-2,1.333-2,0S9,21.667,9,23z"/>
<path fill="#FFFFFF" d="M29,24c0,1.333-2,1.333-2,0S29,22.667,29,24z"/>
<path fill="#FFFFFF" d="M60,21c0,1.333-2,1.333-2,0S60,19.667,60,21z"/>
<path fill="#FFFFFF" d="M24.001,7.216c0,1.333-2,1.333-2,0S24.001,5.883,24.001,7.216z"/>
<path fill="#FFFFFF" d="M47,9.5c0,1.333-2,1.333-2,0S47,8.167,47,9.5z"/>
<path fill="#FFFFFF" d="M30,13c0,2-3,2-3,0S30,11,30,13z"/>
<polygon fill="#014D87" points="41,15 41,14 40,14 40,8 38,8 38,14 37,14 37,15 33,17 33,18 45,18 45,17 "/>
<polygon fill="#013366" points="41,15 41,14 40,14 40,8 39,8 39,14 38,14 38,15 36,17 36,18 45,18 45,17 "/>
<rect x="32" y="18" fill="#014D87" width="14" height="44"/>
<rect x="41" y="18" fill="#013366" width="5" height="44"/>
<rect x="34" y="20" fill="#013366" width="2" height="4"/>
<rect x="38" y="26" fill="#013366" width="2" height="4"/>
<rect x="42" y="26" fill="#01264D" width="2" height="4"/>
<rect x="42" y="20" fill="#01264D" width="2" height="4"/>
<rect x="51" y="25" fill="#014D87" width="10" height="3"/>
<rect x="56" y="25" fill="#013366" width="5" height="3"/>
<rect x="50" y="26" fill="#014D87" width="12" height="36"/>
<rect x="57" y="26" fill="#013366" width="5" height="36"/>
<rect x="58" y="28" fill="#01264D" width="2" height="4"/>
<rect x="54" y="34" fill="#013366" width="2" height="4"/>
<rect x="58" y="34" fill="#01264D" width="2" height="4"/>
<rect x="13" y="18" fill="#014D87" width="10" height="3"/>
<rect x="18" y="18" fill="#013366" width="5" height="3"/>
<rect x="12" y="19" fill="#014D87" width="12" height="40"/>
<rect x="20" y="19" fill="#013366" width="4" height="40"/>
<rect x="14" y="21" fill="#013366" width="2" height="4"/>
<polygon fill="#01264D" points="18,61 2,61 2,29 18,33 "/>
<polygon fill="#013366" points="18,62 2,62 2,30 18,34 "/>
<rect x="15" y="42" fill="#013366" width="6" height="20"/>
<rect x="56" y="40" fill="#013366" width="6" height="22"/>
<rect x="4" y="34" fill="#01264D" width="2" height="4"/>
<rect x="10" y="34" fill="#01264D" width="2" height="4"/>
<polygon fill="#01264D" points="52,61 38,61 38,36.354 52,33 "/>
<polygon fill="#013366" points="52,62 38,62 38,37.354 52,34 "/>
<rect x="48" y="36" fill="#01264D" width="2" height="4"/>
<polygon fill="#302C3B" points="18,44 6,44 6,40 18,38 "/>
<polygon fill="#1A1626" points="18,43 11,43 11,40 18,38 "/>
<rect x="4" y="42" fill="#302C3B" width="14" height="20"/>
<rect x="13" y="42" fill="#1A1626" width="5" height="20"/>
<rect x="10" y="44" fill="#F9C802" width="2" height="4"/>
<rect x="14" y="50" fill="#F9C802" width="2" height="4"/>
<rect x="6" y="56" fill="#F9C802" width="2" height="4"/>
<rect x="41" y="41" fill="#302C3B" width="18" height="3"/>
<rect x="51" y="41" fill="#1A1626" width="8" height="3"/>
<rect x="40" y="42" fill="#302C3B" width="20" height="20"/>
<rect x="55" y="42" fill="#1A1626" width="5" height="20"/>
<rect x="42" y="50" fill="#F9C802" width="2" height="4"/>
<rect x="52" y="50" fill="#F9C802" width="2" height="4"/>
<rect x="46" y="44" fill="#F9C802" width="2" height="4"/>
<rect x="52" y="56" fill="#F9C802" width="2" height="4"/>
<rect x="56" y="56" fill="#F9C802" width="2" height="4"/>
<rect x="21" y="29" fill="#302C3B" width="16" height="3"/>
<rect x="31" y="29" fill="#1A1626" width="6" height="3"/>
<rect x="20" y="30" fill="#302C3B" width="18" height="32"/>
<rect x="33" y="30" fill="#1A1626" width="5" height="32"/>
<rect x="22" y="44" fill="#F9C802" width="2" height="4"/>
<rect x="34" y="38" fill="#F9C802" width="2" height="4"/>
<rect x="30" y="50" fill="#F9C802" width="2" height="4"/>
<rect x="26" y="56" fill="#F9C802" width="2" height="4"/>
<rect x="26" y="32" fill="#F9C802" width="2" height="4"/>
</svg>
