<?xml version="1.0" encoding="utf-8"?>
<!-- Generator: Adobe Illustrator 15.0.0, SVG Export Plug-In . SVG Version: 6.00 Build 0)  -->
<!DOCTYPE svg PUBLIC "-//W3C//DTD SVG 1.1//EN" "http://www.w3.org/Graphics/SVG/1.1/DTD/svg11.dtd">
<svg version="1.1" id="Layer_1" xmlns="http://www.w3.org/2000/svg" xmlns:xlink="http://www.w3.org/1999/xlink" x="0px" y="0px"
	 width="64px" height="64px" viewBox="0 0 64 64" enable-background="new 0 0 64 64" xml:space="preserve">
<path fill="#006DAE" d="M62,61.999H2V19.375c0,0,20.426,21.681,60,21.681V61.999z"/>
<path fill="#75D6FF" d="M11.88,21.697C5.259,63.585,33.406,61.427,42.192,61.806c0,0,18.477-13.585,16.82-13.794
	C25.005,43.72,30.58,10.594,56.651,25.271C44.778-4.432,15.505,11.675,11.88,21.697z"/>
<path fill="#018BC9" d="M23.232,11.85C8.629,15.99-3.183,46.697,24.846,62l20.517-0.001C8.142,56.922,3.286,17.817,34.574,14.915
	L23.232,11.85z"/>
<path fill="#018BC9" d="M56.023,23.793c0,0-14.039-30.973-49.035-8.122c7.68,5.645,8.175,19.426,10.596,12.753
	c3.793-10.455,3.275,10.853,6.525-0.58c2.75-9.673,1.499,10.813,6.271-0.879c3.54-8.674,1.875,7.173,4.232,0.381
	C36.445,22.063,41.531,16.697,56.023,23.793z"/>
<path fill="#006DAE" d="M53.11,20.026c0,0-23.03-28.645-51.11-0.651l7.106,8.469c7.082-17.18,5.683,5.129,10.402-6.338
	c3.504-8.511,2.288,9.582,6.809-2.212c2.638-6.883,1.28,8.681,4.813,3.481C35.965,15.66,45.362,15.858,53.11,20.026z"/>
<path fill="#C2F8FF" d="M49.125,14.963C47.468,20.685,32.171,5.38,38.031,4.486C43.321,3.681,50.439,10.426,49.125,14.963z"/>
<path fill="#C2F8FF" d="M42,11.212c-3.097,4.166-16.448-5.563-11.676-7.888C36.173,0.476,45.095,7.051,42,11.212z"/>
<path fill="#C2F8FF" d="M55.333,24.409c-3.181-0.181-6.412-3.611-4.22-7.773C53.018,13.02,59.404,24.641,55.333,24.409z"/>
<path fill="#C2F8FF" d="M53.329,19.375c-0.629,4.042-11.492-8.52-7.463-9.166C49.734,9.588,54.307,13.093,53.329,19.375z"/>
<path fill="#C2F8FF" d="M32.485,10.668c-4.397,2.122-12.895-6.135-8.304-7.818C32.975-0.379,36.88,8.548,32.485,10.668z"/>
<path fill="#C2F8FF" d="M25.995,11.643c-4.398,2.124-11.42-4.938-4.865-8.193C25.501,1.278,30.389,9.522,25.995,11.643z"/>
<path fill="#C2F8FF" d="M19.431,13.42c-3.844,1.929-9.092-3.141-4.84-6.08C20.55,3.217,23.271,11.494,19.431,13.42z"/>
<path fill="#C2F8FF" d="M13.222,14.878c-3.255,0.308-4.052-2.151-2.447-4.076C13.572,7.443,17.841,14.44,13.222,14.878z"/>
<path fill="#C2F8FF" d="M56.65,26.46c-2.16-0.513-4.177-2.712-2.541-4.682C55.682,19.885,59.04,27.028,56.65,26.46z"/>
<path fill="#C2F8FF" d="M16.913,4.766c-1.253,0.627-2.702-2.038-1.449-2.67C16.718,1.466,18.167,4.139,16.913,4.766z"/>
<path fill="#C2F8FF" d="M45.756,6.411c-1.254,0.629-2.704-2.041-1.45-2.672C45.559,3.111,47.009,5.782,45.756,6.411z"/>
<path fill="#C2F8FF" d="M56.749,17.574c-1.254,0.63-2.704-2.039-1.45-2.669C56.552,14.275,58.002,16.947,56.749,17.574z"/>
<path fill="#C2F8FF" d="M53.844,30.61c-1.254,0.63-2.704-2.041-1.45-2.671C53.646,27.311,55.097,29.982,53.844,30.61z"/>
<path fill="#C2F8FF" d="M44.924,25.764c-1.254,0.631-2.704-2.041-1.45-2.671C44.727,22.465,46.177,25.136,44.924,25.764z"/>
<path fill="#C2F8FF" d="M35.725,16.503c-1.254,0.63-2.704-2.042-1.45-2.671C35.527,13.203,36.978,15.875,35.725,16.503z"/>
<path fill="#C2F8FF" d="M19.326,19.665c-1.254,0.63-2.704-2.04-1.45-2.671C19.129,16.366,20.579,19.038,19.326,19.665z"/>
<path fill="#018BC9" d="M62,45.877c-7.867,5.017-26.595-6.893-23.43-2.918c1.183,1.484,4.649,3.469,7.616,6.333
	c-9.474-2.825-18.852-10.288-15.804-6.459c2.086,2.62,8.564,8.341,14.617,12.943c-10.254-2.057-20.181-12.096-17.451-7.571
	c4.146,6.875,15.443,13.794,15.443,13.794H62V45.877z"/>
<path fill="#FFFFFF" d="M20.162,11.825c1.315-2.256-0.03-5.588-3.284-4.918C19.044,7.795,20.077,9.74,20.162,11.825z"/>
<path fill="#FFFFFF" d="M40.348,10.311c1.335-2.402-0.463-6.202-4.143-5.711C38.758,5.753,40.091,7.991,40.348,10.311z"/>
<path fill="#FFFFFF" d="M32.124,9.429c0.927-1.604-0.321-4.139-2.874-3.813C31.021,6.386,31.946,7.88,32.124,9.429z"/>
<path fill="#FFFFFF" d="M44.184,12.885c1.459-2.624-0.505-6.775-4.526-6.238C42.446,7.904,43.904,10.35,44.184,12.885z"/>
<path fill="#FFFFFF" d="M14.436,13.46c0.813-1.366-0.281-3.524-2.521-3.244C13.469,10.87,14.279,12.14,14.436,13.46z"/>
<path fill="#FFFFFF" d="M31.429,6.819c0.927-1.604-0.321-4.141-2.874-3.813C30.326,3.775,31.251,5.271,31.429,6.819z"/>
<path fill="#FFFFFF" d="M26.592,9.597c1.114-2.064-0.979-5.676-4.568-5.552C24.639,5.317,26.143,7.467,26.592,9.597z"/>
<path fill="#FFFFFF" d="M52.25,17.044c1.038-2.021-0.944-5.543-4.318-5.414C50.396,12.866,51.818,14.964,52.25,17.044z"/>
<path fill="#FFFFFF" d="M55.757,23.21c0.811-1.463-0.283-3.774-2.522-3.478C54.788,20.438,55.599,21.799,55.757,23.21z"/>
</svg>
