<?xml version="1.0" encoding="utf-8"?>
<!-- Generator: Adobe Illustrator 15.0.0, SVG Export Plug-In . SVG Version: 6.00 Build 0)  -->
<!DOCTYPE svg PUBLIC "-//W3C//DTD SVG 1.1//EN" "http://www.w3.org/Graphics/SVG/1.1/DTD/svg11.dtd">
<svg version="1.1" id="Layer_1" xmlns="http://www.w3.org/2000/svg" xmlns:xlink="http://www.w3.org/1999/xlink" x="0px" y="0px"
	 width="64px" height="64px" viewBox="0 0 64 64" enable-background="new 0 0 64 64" xml:space="preserve">
<path fill="#018BC9" d="M41.534,11.162c0,0,5.486-6.314,20.462-2.028c-39.512-24.996-72.904,22.03-39.534,43.702
	c0,0-5.486,6.314-20.462,2.028C41.512,79.86,74.904,32.833,41.534,11.162z M29.303,54.056c7.818-4.383,7.438-9.305,7.438-9.305
	c-22.413,4.672-28.273-28.9-2.009-34.71c-7.819,4.384-7.438,9.306-7.438,9.306C49.706,14.674,55.566,48.245,29.303,54.056z"/>
<path fill="#006DAE" d="M58.275,6.979c-12.532-2.565-17.417,3.53-16.741,4.182C44.138,9.221,49.923,5.679,62,9.136
	C60.752,8.345,59.509,7.629,58.275,6.979z"/>
<path fill="#006DAE" d="M22.462,52.836c0.804-1.192-9.672-6.364-12.506-15.324C11.66,42.79,15.122,48.127,22.462,52.836z"/>
<path fill="#006DAE" d="M53.561,25.126c6.92,21.439-18.329,46.303-48.317,30.533c-1.029-0.211-2.104-0.469-3.239-0.793
	C34.23,75.254,62.381,47.729,53.561,25.126z"/>
<path opacity="0.5" fill="#75D6FF" d="M36.74,44.751c0,0,0.381,4.922-7.438,9.305c26.264-5.811,20.403-39.382-2.009-34.709
	c0,0-0.382-4.922,7.438-9.306C8.467,15.851,14.328,49.423,36.74,44.751z"/>
<path fill="#006DAE" d="M31.694,53.426c6.123-4.099,5.587-8.681,5.046-8.675c-0.254,1.892-1.135,5.771-7.439,9.306
	C30.13,53.874,30.928,53.663,31.694,53.426z"/>
<path fill="#006DAE" d="M27.294,19.347c0.166,0.833,6.53-1.319,11.363,1.277C35.797,19.109,32.2,18.294,27.294,19.347z"/>
<path fill="#006DAE" d="M26.129,43.847c-11.625-6.157-11.653-27.043,6.962-32.8c0.504-0.336,1.043-0.672,1.638-1.005
	C13.307,14.782,13.258,37.985,26.129,43.847z"/>
<circle fill="#FFFFFF" cx="32.156" cy="32.758" r="5.999"/>
</svg>
