<?xml version="1.0" encoding="utf-8"?>
<!-- Generator: Adobe Illustrator 15.0.0, SVG Export Plug-In . SVG Version: 6.00 Build 0)  -->
<!DOCTYPE svg PUBLIC "-//W3C//DTD SVG 1.1//EN" "http://www.w3.org/Graphics/SVG/1.1/DTD/svg11.dtd">
<svg version="1.1" id="Layer_1" xmlns="http://www.w3.org/2000/svg" xmlns:xlink="http://www.w3.org/1999/xlink" x="0px" y="0px"
	 width="64px" height="64px" viewBox="0 0 64 64" enable-background="new 0 0 64 64" xml:space="preserve">
<rect x="2" y="2" fill="#018BC9" width="60" height="60"/>
<path fill="#FFFFFF" d="M51.931,6.044c1.458,1.965,1.841,4.703-0.02,7.406c-1.858,2.711-4.549,3.331-6.911,2.675
	c2.393,3.237,7.687,4.401,10.741-0.04C58.795,11.641,55.811,7.115,51.931,6.044z"/>
<path fill="#FFFFFF" d="M8.5,6.219c0,1.996-3.002,1.996-3.002,0C5.498,4.218,8.5,4.218,8.5,6.219z"/>
<path fill="#FFFFFF" d="M30.604,18.003c0,1.33-1.999,1.33-1.999,0C28.604,16.671,30.604,16.671,30.604,18.003z"/>
<path fill="#FFFFFF" d="M24.002,7.215c0,1.331-2.002,1.331-2.002,0C22,5.885,24.002,5.885,24.002,7.215z"/>
<path fill="#FFFFFF" d="M7.647,39.797c0,1.33-2.002,1.33-2.002,0C5.646,38.465,7.647,38.465,7.647,39.797z"/>
<path fill="#FFFFFF" d="M55.447,25.104c0,1.331-1.998,1.331-1.998,0C53.449,23.769,55.447,23.769,55.447,25.104z"/>
<path fill="#FFFFFF" d="M35.838,40.797c0,1.332-1.997,1.332-1.997,0C33.841,39.461,35.838,39.461,35.838,40.797z"/>
<path fill="#FFFFFF" d="M56.322,42.797c0,1.33-1.998,1.33-1.998,0C54.324,41.461,56.322,41.461,56.322,42.797z"/>
<path fill="#FFFFFF" d="M38.5,10.608c0,2.002-3,2.002-3,0C35.5,8.608,38.5,8.608,38.5,10.608z"/>
<polygon fill="#1A1626" points="8,10 11,9 12,7.98 16,7.98 17,9 20,10 19,12 20,12 20,14 19,14 17,16.095 18,43 20,48 8,48 10,43 
	11,16.095 9,14 8,14 8,12 9,12 "/>
<polygon fill="#1A1626" points="48.691,32.299 42,32.299 42,30.852 "/>
<polygon fill="#1A1626" points="36,32.299 37,32.299 37,29 36,28 "/>
<rect x="61" y="28" fill="#1A1626" width="1" height="4.299"/>
<polygon fill="#1A1626" points="32,32.299 33,32.299 33,27 32,26 "/>
<polygon fill="#1A1626" points="32,32 33,32 37,28 36,28 "/>
<polygon fill="#1A1626" points="28,32.299 29,32.299 29,24.302 28,24 "/>
<polygon fill="#1A1626" points="28,32 29,32 33,26 32,26 "/>
<rect x="24" y="21.307" fill="#1A1626" width="1" height="10.992"/>
<polygon fill="#1A1626" points="24,32 25,32 29,24 28,24 "/>
<rect x="20" y="17.905" fill="#1A1626" width="1" height="14.394"/>
<polygon fill="#1A1626" points="20,32 21,32 25,21 24,21 "/>
<polygon fill="#1A1626" points="48.648,32.299 56,32.299 56,30.852 "/>
<rect x="2" y="34" fill="#1A1626" width="2" height="2"/>
<rect x="6" y="34" fill="#1A1626" width="2" height="2"/>
<rect x="20" y="34" fill="#1A1626" width="2" height="2"/>
<rect x="24" y="34" fill="#1A1626" width="2" height="2"/>
<rect x="28" y="34" fill="#1A1626" width="2" height="2"/>
<rect x="32" y="34" fill="#1A1626" width="2" height="2"/>
<rect x="36" y="34" fill="#1A1626" width="2" height="2"/>
<rect x="40" y="34" fill="#1A1626" width="2" height="2"/>
<rect x="44" y="34" fill="#1A1626" width="2" height="2"/>
<rect x="48" y="34" fill="#1A1626" width="2" height="2"/>
<rect x="52" y="34" fill="#1A1626" width="2" height="2"/>
<rect x="56" y="34" fill="#1A1626" width="2" height="2"/>
<rect x="60" y="34" fill="#1A1626" width="2" height="2"/>
<rect x="3" y="21.307" fill="#1A1626" width="1" height="10.992"/>
<rect x="7" y="17.905" fill="#1A1626" width="1" height="14.394"/>
<polygon fill="#1A1626" points="8,32 7,32 3,21 4,21 "/>
<rect x="2" y="32" fill="#1A1626" width="60" height="2"/>
<rect x="2" y="36" fill="#1A1626" width="60" height="2"/>
<path fill="#1A1626" d="M7,16h5.764v2H8c0,0-3.502,4.345-6,6v-3C4.615,19.18,7,16,7,16z"/>
<polygon fill="#1A1626" points="4,32 3,32 2,30 2,28 "/>
<path fill="#1A1626" d="M48.67,30.658C40.545,30.658,27.702,23.479,21,16h-5.32v2H20c7.241,7.295,20.885,14.299,28.67,14.299
	c3.578,0,8.42-1.368,13.33-3.545V26.99C57.145,29.23,52.311,30.658,48.67,30.658z"/>
<rect x="2" y="48" fill="#014D87" width="60" height="14"/>
<polygon fill="#013366" points="10,62 9,50 8,47.988 20,47.988 19,50 18,62 "/>
<path fill="#A0D8E9" d="M57.324,52.004c0,0.666-4,0.666-4,0C53.324,51.336,57.324,51.336,57.324,52.004z"/>
<path fill="#A0D8E9" d="M54.773,56.822c0,0.998-6.453,0.998-6.453,0C48.32,55.82,54.773,55.82,54.773,56.822z"/>
<path fill="#A0D8E9" d="M37.34,56.072c0,0.998-5,0.998-5,0C32.34,55.07,37.34,55.07,37.34,56.072z"/>
<path fill="#A0D8E9" d="M61.375,60.82c0,1-9.232,1-9.232,0S61.375,59.82,61.375,60.82z"/>
<path fill="#A0D8E9" d="M55.949,59.117c0,1-12.703,1-12.703,0S55.949,58.117,55.949,59.117z"/>
<path fill="#014D87" d="M27.138,59.117c0,1-12.704,1-12.704,0S27.138,58.117,27.138,59.117z"/>
<path fill="#014D87" d="M15.396,54.572c0,0.998-12.703,0.998-12.703,0C2.693,53.57,15.396,53.57,15.396,54.572z"/>
<path fill="#013366" d="M21.652,56.416c0,0.998-6.652,0.998-6.652,0C15,55.414,21.652,55.414,21.652,56.416z"/>
<path fill="#013366" d="M13,52.479c0,0.998-6.652,0.998-6.652,0C6.348,51.477,13,51.477,13,52.479z"/>
<path fill="#013366" d="M13,60.197c0,0.998-6.652,0.998-6.652,0C6.348,59.195,13,59.195,13,60.197z"/>
</svg>
