<?xml version="1.0" encoding="utf-8"?>
<!-- Generator: Adobe Illustrator 16.2.0, SVG Export Plug-In . SVG Version: 6.00 Build 0)  -->
<!DOCTYPE svg PUBLIC "-//W3C//DTD SVG 1.1//EN" "http://www.w3.org/Graphics/SVG/1.1/DTD/svg11.dtd">
<svg version="1.1" id="Layer_1" xmlns="http://www.w3.org/2000/svg" xmlns:xlink="http://www.w3.org/1999/xlink" x="0px" y="0px"
	 width="64px" height="64px" viewBox="0 0 64 64" enable-background="new 0 0 64 64" xml:space="preserve">
<rect x="15" y="15" fill="#6E8189" width="10" height="3"/>
<rect x="20" y="15" fill="#4E5E67" width="5" height="3"/>
<rect x="14" y="16" fill="#99A8AE" width="12" height="46"/>
<rect x="22" y="16" opacity="0.5" fill="#6E8189" enable-background="new    " width="4" height="46"/>
<polygon opacity="0.5" fill="#6E8189" enable-background="new    " points="20,62 14,62 14,35 20,24 "/>
<rect x="16" y="18" opacity="0.5" fill="#6E8189" enable-background="new    " width="2" height="4"/>
<polygon fill="#4E5E67" points="16,61 2,61 2,21 16,25 "/>
<rect x="40" y="2" fill="#99A8AE" width="2" height="7"/>
<rect x="41" y="2" fill="#6E8189" width="1" height="6"/>
<rect x="39" y="8" fill="#99A8AE" width="4" height="1"/>
<rect x="40" y="8" fill="#6E8189" width="3" height="1"/>
<polygon fill="#99A8AE" points="43,9 39,9 35,11 35,13 47,13 47,11 "/>
<polygon opacity="0.5" fill="#6E8189" enable-background="new    " points="47,11 38,11 40,9 43,9 "/>
<rect x="38" y="11" fill="#6E8189" width="9" height="1"/>
<rect x="51" y="19" fill="#6E8189" width="10" height="3"/>
<rect x="56" y="19" fill="#4E5E67" width="5" height="3"/>
<rect x="34" y="12" fill="#99A8AE" width="14" height="50"/>
<rect x="43" y="12" opacity="0.5" fill="#6E8189" enable-background="new    " width="5" height="50"/>
<rect x="50" y="20" fill="#99A8AE" width="12" height="42"/>
<rect x="57" y="20" opacity="0.5" fill="#6E8189" enable-background="new    " width="5" height="42"/>
<polygon opacity="0.5" fill="#6E8189" enable-background="new    " points="40,62 38,62 38,35.883 40,29.354 "/>
<polygon fill="#4E5E67" points="54,61 40,61 40,28.354 54,25 "/>
<polygon fill="#6E8189" points="54,62 40,62 40,29.354 54,26 "/>
<polygon fill="#6E8189" points="16,62 2,62 2,22 16,26 "/>
<rect x="21" y="23" fill="#A3C86B" width="16" height="3"/>
<rect x="31" y="23" fill="#7AB51D" width="6" height="3"/>
<rect x="20" y="24" fill="#C5DCA8" width="18" height="38"/>
<rect x="33" y="24" fill="#A3C86B" width="5" height="38"/>
<rect x="41" y="35" fill="#CFD8DD" width="18" height="3"/>
<rect x="51" y="35" fill="#BEC3CF" width="8" height="3"/>
<rect x="40" y="36" fill="#E6EBEF" width="20" height="26"/>
<rect x="55" y="36" fill="#CFD8DD" width="5" height="26"/>
<polygon fill="#4E5E67" points="4,62 2,62 2,43 4,38 "/>
<rect x="4" y="28" fill="#4E5E67" width="2" height="4"/>
<rect x="8" y="28" fill="#4E5E67" width="2" height="4"/>
<rect x="50" y="30" fill="#4E5E67" width="2" height="4"/>
<rect x="58" y="22" opacity="0.5" fill="#6E8189" enable-background="new    " width="2" height="4"/>
<rect x="54" y="28" opacity="0.5" fill="#6E8189" enable-background="new    " width="2" height="4"/>
<rect x="58" y="28" opacity="0.5" fill="#6E8189" enable-background="new    " width="2" height="4"/>
<rect x="36" y="14" opacity="0.5" fill="#6E8189" enable-background="new    " width="2" height="4"/>
<rect x="40" y="20" opacity="0.5" fill="#6E8189" enable-background="new    " width="2" height="4"/>
<rect x="44" y="20" opacity="0.5" fill="#6E8189" enable-background="new    " width="2" height="4"/>
<rect x="44" y="14" opacity="0.5" fill="#6E8189" enable-background="new    " width="2" height="4"/>
<polygon fill="#D6A57C" points="18,38 6,38 6,34 18,32 "/>
<polygon fill="#C4926E" points="18,37 11,37 11,34 18,32 "/>
<rect x="4" y="36" fill="#FED0AC" width="14" height="26"/>
<rect x="13" y="36" fill="#EBBB96" width="5" height="26"/>
<rect x="34" y="38" fill="#7AB51D" width="2" height="4"/>
<rect x="22" y="38" fill="#A3C86B" width="2" height="4"/>
<rect x="56" y="38" fill="#BEC3CF" width="2" height="4"/>
<rect x="6" y="38" fill="#D6A57C" width="2" height="4"/>
<rect x="14" y="38" fill="#C4926E" width="2" height="4"/>
<path fill="#CFD8DD" d="M62,41c-9,0-11.25,3-15,3s-7-4-15-4c-5,0-12,2-30,2v10h60V41z"/>
<path fill="#E8E8E8" d="M47,44c-8,0-11.25,4-15,4s-6-4-15-4c-5,0-8.5,2-15,2v14h60V46C55,46,52,44,47,44z"/>
<path fill="#CFD8DD" d="M36,48c-8,0-11.25,4-15,4s-6-4-15-4c-2.87,0-3.76,0-4,0v12h60V50C48,50,45,48,36,48z"/>
<path fill="#E8E8E8" d="M47,56c-3.75,0-6-4-15-4c-12,0-11,2-30,2v7h60v-9C54,52,50.75,56,47,56z"/>
<path fill="#CFD8DD" d="M37,56c-6,0-10.25,4-14,4s-8-4-12-4s-6,2-9,2v4h60v-2C47,60,47,56,37,56z"/>
<rect x="22" y="26" fill="#A3C86B" width="2" height="4"/>
<rect x="30" y="32" fill="#A3C86B" width="2" height="4"/>
<rect x="26" y="32" fill="#A3C86B" width="2" height="4"/>
<rect x="34" y="26" fill="#7AB51D" width="2" height="4"/>
<rect x="42" y="38" fill="#CFD8DD" width="2" height="4"/>
<rect x="46" y="38" fill="#CFD8DD" width="2" height="4"/>
</svg>
