<?xml version="1.0" encoding="utf-8"?>
<!-- Generator: Adobe Illustrator 15.0.0, SVG Export Plug-In . SVG Version: 6.00 Build 0)  -->
<!DOCTYPE svg PUBLIC "-//W3C//DTD SVG 1.1//EN" "http://www.w3.org/Graphics/SVG/1.1/DTD/svg11.dtd">
<svg version="1.1" id="Layer_1" xmlns="http://www.w3.org/2000/svg" xmlns:xlink="http://www.w3.org/1999/xlink" x="0px" y="0px"
	 width="64px" height="64px" viewBox="0 0 64 64" enable-background="new 0 0 64 64" xml:space="preserve">
<path fill="#0FB4D4" d="M62,32c0,16.568-13.432,30-30,30S2,48.568,2,32c0-4.381,0.939-8.543,2.627-12.295L36.65,2.357
	c2.271,0.354,4.456,0.961,6.527,1.793l0.659,1.52l1.13-0.732C55.043,9.775,62,20.076,62,32z"/>
<path fill="#A6E639" d="M7.504,20.889c0.939,1.795,2.051-0.598,1.965,1.197c-0.084,1.795,1.197,5.811,1.967,5.299
	c0.77-0.514,0.768-3.453,2.137-3.82c1.367-0.367,3.332-2.676,3.93-1.65c0.6,1.025,0.428,2.906,0.941,2.479
	c0.512-0.428,1.195,0,1.109,1.281c-0.084,1.283,1.111,3.078,1.453,3.762s-2.137-1.967-3.332-3.59
	c-1.197-1.623,0.854,3.418,2.393,5.299c1.537,1.879,7.35,3.246,8.887,4.016c1.539,0.77,5.727-1.453,4.102-1.367
	c0,0-3.674,0.514-5.041-0.17S23.57,32.941,23.057,32c-0.512-0.941-0.512-2.309-1.453-3.59c-0.939-1.283-1.537-3.59-0.256-2.564
	s2.65,1.197,2.82,0.512c0.172-0.684-2.393-2.99-0.77-4.016c1.625-1.025,3.162-0.256,3.932-1.025s2.564-3.076,2.137-4.188
	s-0.514-1.881,0-2.223c0.512-0.342-2.479-0.342-1.281-1.195c1.195-0.855,2.477-1.623,2.563,0s0,3.076,0.598,3.076
	c0.6,0,1.539-1.795,1.283-2.564c-0.258-0.768,0.256-2.477,1.453-2.563c1.195-0.086,2.563-2.051,2.904-4.018
	c0.342-1.965,0.342-3.504-0.598-3.332c-0.828,0.15-0.934-1.029,0.254-1.953C35.129,2.121,33.578,2,32,2
	C19.813,2,9.32,9.27,4.627,19.709C5.604,19.658,6.939,19.811,7.504,20.889z"/>
<path fill="#A6E639" d="M42.627,7.9c-0.672,1.191,1.129-0.477,2.336-2.963c-0.586-0.281-1.182-0.543-1.787-0.787
	C43.199,5.178,43.154,6.961,42.627,7.9z"/>
<path fill="#A6E639" d="M34.252,16.873c1.367-0.941,3.59-0.941,3.59-2.82c0-1.881,5.383-5.127,4.102-5.043
	c-1.281,0.086-3.76,2.479-3.76,0.855s0-4.615-0.342-5.385c-0.42-0.943-0.182,4.359-0.561,5.299
	c-0.381,0.939,0.047,4.188-1.148,4.615c-1.197,0.428-3.248,1.281-3.248,2.479C32.885,18.068,32.885,17.813,34.252,16.873z"/>
<path fill="#A6E639" d="M35.809,32.709c0.74,0.57-0.398,2.164,0.398,1.822c0.799-0.342,1.652,0.551,2.053,0.049
	c0.398-0.504,0.455-0.891,1.709,0.156c1.252,1.049,2.164,0.832,1.367,0c-0.799-0.832-1.539-2.25-3.191-2.736
	c0,0-1.766-0.203-3.02-0.773c0,0-1.719-0.91-2.254-0.342c-0.537,0.57-0.463-1.594-0.871-1.195c-0.406,0.398,0.219,1.709-0.977,1.367
	c-1.197-0.342-1.596,0.057-1.938-0.912s-2.051-0.455-0.684-1.195c1.367-0.742,2.051-0.969,2.107-0.4
	c0.059,0.57,1.426-0.512,0.912-2.051c-0.512-1.537-1.881-1.025-1.822-2.963c0.025-0.883-1.367,0.342-1.141,1.426
	c0.229,1.082-0.285,1.311-0.797,2.164c-0.514,0.855-2.621,2.85-3.191,2.85c-0.568,0-0.398,1.139,0,1.822s2.393,0.799,2.793,0.912
	c0.398,0.113,0.854-3.076,0.969-2.223c0.113,0.855,0.283,3.418,0.568,2.85c0.285-0.57,1.367,0.227,1.367-0.342
	c0-0.57-0.455-1.533,0.627-0.994c1.082,0.537,2.564,0.879,2.508,0.254C33.246,31.627,35.068,32.139,35.809,32.709z M29.199,26.043
	c0.533,2.145-0.74,2.449-1.139,2.107S29.07,25.521,29.199,26.043z"/>
<path fill="#A6E639" d="M40.652,39.66c-1.652-1.482-2.393-3.873-2.793-4.215c-0.658-0.566-0.361,2.049-0.578,2.563
	c-0.219,0.512-1.188-0.627-1.643-0.855c-0.457-0.227-0.172-0.568,0-1.025c0.17-0.455-0.855-0.852-1.652-0.682
	c-0.799,0.17-0.807-0.059-1.115,0.568S32.807,37.188,32,36.771s-1.318,0.211-1.889,0.838c-0.57,0.625-0.797,0.854-1.025,1.311
	c-0.229,0.455-3.361,0.17-3.361,1.65c0,1.482,1.311,2.678,1.025,3.818c-0.285,1.139,0.229,2.336,1.197,1.766
	s2.393-0.398,2.791-0.854c0.398-0.457,3.076-1.197,3.533-0.342c0.455,0.854,0.969,1.318,1.766,1.342
	c0.797,0.025,0.912,0.766,0.912,1.336c0,0.568,1.195,0.113,1.879,0.342c0.684,0.227,2.336,0.057,2.451-1.254
	c0.113-1.311,0.854-2.223,1.139-2.906S42.305,41.141,40.652,39.66z"/>
<path fill="#A6E639" d="M39.17,48.775c-0.797-0.113-0.17,1.766,0.342,1.938c0.514,0.17,0.783-1.123,0.742-1.938
	C40.221,48.16,39.969,48.889,39.17,48.775z"/>
<path fill="#A6E639" d="M51.762,47.123c-0.512,0.057-0.912-1.254-1.254-0.969c-0.668,0.559,0.799,1.881,0,2.621
	c-0.797,0.74-1.025,1.854-1.652,1.953c-0.627,0.098-1.594,1.01-0.969,1.521c0.627,0.514,1.596,0,1.938-0.967
	c0.342-0.969,0.627-1.375,1.311-1.656s0.627-1.08,1.254-1.564S52.275,47.066,51.762,47.123z"/>
<path opacity="0.2" fill="#302C3B" d="M16.787,48.213C5.353,36.777,5.084,18.414,15.969,6.646C7.576,11.965,2,21.328,2,32
	c0,16.568,13.432,30,30,30c8.711,0,16.552-3.717,22.033-9.646C42.436,59.701,26.9,58.326,16.787,48.213z"/>
</svg>
