<?xml version="1.0" encoding="utf-8"?>
<!-- Generator: Adobe Illustrator 15.0.0, SVG Export Plug-In . SVG Version: 6.00 Build 0)  -->
<!DOCTYPE svg PUBLIC "-//W3C//DTD SVG 1.1//EN" "http://www.w3.org/Graphics/SVG/1.1/DTD/svg11.dtd">
<svg version="1.1" id="Layer_1" xmlns="http://www.w3.org/2000/svg" xmlns:xlink="http://www.w3.org/1999/xlink" x="0px" y="0px"
	 width="64px" height="64px" viewBox="0 0 64 64" enable-background="new 0 0 64 64" xml:space="preserve">
<circle fill-rule="evenodd" clip-rule="evenodd" fill="#FEEC9A" cx="32" cy="32" r="30"/>
<path fill-rule="evenodd" clip-rule="evenodd" fill="#FAE485" d="M43.493,49.848c-5.648,1.651,9.159,5.997,2.855,5.697
	c-9.76-0.465-16.75-2.861-5.5,3.149c-7.351,3.15-7.701-4.35-12.336-2.203c-6.779,3.141-12.201-1.687-13.257-6.894
	c9.668,6.785,9.342-5.65,17.234,0.45C35.848,41.997,50.698,47.741,43.493,49.848z"/>
<path fill-rule="evenodd" clip-rule="evenodd" fill="#FAE485" d="M41.069,5.005c1.486,1.795-3.051,2.058-3.601,0
	C37.056,3.459,40.048,3.773,41.069,5.005z"/>
<path fill-rule="evenodd" clip-rule="evenodd" fill="#FAE485" d="M11.011,37.154c0,2.479-5.212,2.625-4.061,0.053
	C7.89,35.111,11.011,34.858,11.011,37.154z"/>
<path fill-rule="evenodd" clip-rule="evenodd" fill="#FAE485" d="M29.933,38.711c0,6.421-12.148,7.422-12.148,1.001
	C17.784,32.928,29.933,31.928,29.933,38.711z"/>
<path fill-rule="evenodd" clip-rule="evenodd" fill="#FAE485" d="M59.749,20.58C57.911,15.7,54.173,11,50.044,8.03
	c3.404,3.87,4.704,6.87,4.704,6.87c-11.25-12.45-24.25,8.85-18.05-4.15c-5.301-4.55-12.301,2.2-8.944,6.931
	c-7.1-0.23-8.806,14.069,6.894,7.955c-0.438-2.673-5.406,0.89-4.772-3.182c3.132,2.7,5.282-2.262,6.894,1.061
	c2.354,4.848-6.158,7.061-2.65,11.138c2.68-7.86,6.932,2.973,1.061,4.242c3.561,3.424,7.238-2.36,6.363-5.303
	c1.714,1.196,3.756,3.401,5.833,2.651c1.353,12.617,13.038,1.368,9.546-6.364c-1.452-3.213-7.842-9.298-3.182-12.198
	c2.08,3.046,1.484,7.72,5.303,10.076C60.366,25.48,53.823,13.7,59.749,20.58z M41.861,26.792c0-2.399,3.862-2.592,4.536,1.158
	C46.823,30.312,41.861,29.192,41.861,26.792z M40.746,16.842c1.394-5.574,6.629-2.992,7.723,1.733
	C49.281,22.082,39.619,21.35,40.746,16.842z"/>
<path fill-rule="evenodd" clip-rule="evenodd" fill="#FEF3C4" d="M24.044,23.269c-3.933-1.278,26.209-29.138-3.149-3.073
	c-1.603,1.423-13.411-25.3-3.522,1.298c1.517,4.077-24.08,9.497-0.682,5.181c5.538-1.021,2.934,46.018,5.708,0.458
	C22.636,23.233,71.216,38.598,24.044,23.269z"/>
<path fill-rule="evenodd" clip-rule="evenodd" fill="#FEF3C4" d="M54.134,43.7c1.594,2.109-23.858,15.623-0.576,3.793
	c1.793-0.91-15.186,20.618,2.59,0.344c5.141-5.862,6.408-24.856,1.29-5.453C56.374,46.416,38.673,23.218,54.134,43.7z"/>
<path opacity="0.1" fill="#302C3B" d="M16.787,48.213C5.353,36.778,5.084,18.415,15.969,6.647C7.576,11.966,2,21.329,2,32
	c0,16.568,13.432,30,30,30c8.711,0,16.552-3.717,22.033-9.646C42.436,59.702,26.9,58.327,16.787,48.213z"/>
</svg>
