<?xml version="1.0" encoding="utf-8"?>
<!-- Generator: Adobe Illustrator 15.0.0, SVG Export Plug-In . SVG Version: 6.00 Build 0)  -->
<!DOCTYPE svg PUBLIC "-//W3C//DTD SVG 1.1//EN" "http://www.w3.org/Graphics/SVG/1.1/DTD/svg11.dtd">
<svg version="1.1" id="Layer_1" xmlns="http://www.w3.org/2000/svg" xmlns:xlink="http://www.w3.org/1999/xlink" x="0px" y="0px"
	 width="64px" height="64px" viewBox="0 0 64 64" enable-background="new 0 0 64 64" xml:space="preserve">
<circle fill-rule="evenodd" clip-rule="evenodd" fill="#99A8AE" cx="32" cy="32" r="30"/>
<path opacity="0.5" fill-rule="evenodd" clip-rule="evenodd" fill="#6E8189" d="M43.494,49.848c-5.648,1.65,9.158,5.996,2.855,5.697
	c-9.76-0.465-16.75-2.861-5.5,3.148c-7.352,3.15-7.701-4.35-12.336-2.203c-6.779,3.141-12.201-1.686-13.258-6.893
	c9.668,6.785,9.342-5.65,17.234,0.449C35.848,41.996,50.699,47.74,43.494,49.848z"/>
<path opacity="0.5" fill-rule="evenodd" clip-rule="evenodd" fill="#6E8189" d="M41.07,5.004c1.486,1.795-3.051,2.059-3.602,0
	C37.057,3.459,40.049,3.773,41.07,5.004z"/>
<path opacity="0.5" fill-rule="evenodd" clip-rule="evenodd" fill="#6E8189" d="M11.012,37.154c0,2.479-5.213,2.625-4.061,0.053
	C7.891,35.111,11.012,34.857,11.012,37.154z"/>
<path opacity="0.5" fill-rule="evenodd" clip-rule="evenodd" fill="#6E8189" d="M29.934,38.711c0,6.42-12.148,7.422-12.148,1
	C17.785,32.928,29.934,31.928,29.934,38.711z"/>
<path opacity="0.5" fill-rule="evenodd" clip-rule="evenodd" fill="#6E8189" d="M59.75,20.58c-1.838-4.881-5.576-9.58-9.705-12.551
	c3.404,3.871,4.703,6.871,4.703,6.871c-11.25-12.451-24.25,8.85-18.049-4.15c-5.301-4.551-12.301,2.199-8.945,6.93
	c-7.1-0.23-8.805,14.07,6.895,7.955c-0.438-2.672-5.406,0.891-4.773-3.182c3.133,2.701,5.283-2.262,6.895,1.061
	c2.354,4.848-6.158,7.061-2.65,11.139c2.68-7.861,6.932,2.973,1.061,4.242c3.561,3.424,7.238-2.361,6.363-5.303
	c1.713,1.195,3.756,3.4,5.832,2.65c1.354,12.617,13.039,1.369,9.547-6.363c-1.453-3.213-7.842-9.299-3.182-12.199
	c2.08,3.047,1.484,7.721,5.303,10.076C60.367,25.48,53.824,13.699,59.75,20.58z M41.861,26.791c0-2.398,3.863-2.592,4.537,1.158
	C46.824,30.311,41.861,29.191,41.861,26.791z M40.746,16.842c1.395-5.574,6.629-2.992,7.723,1.732
	C49.281,22.082,39.619,21.35,40.746,16.842z"/>
<path opacity="0.5" fill-rule="evenodd" clip-rule="evenodd" fill="#BEC3CF" d="M24.045,23.268
	c-3.934-1.277,26.209-29.137-3.15-3.072c-1.602,1.422-13.41-25.301-3.521,1.297c1.516,4.078-24.08,9.498-0.682,5.182
	c5.537-1.021,2.934,46.018,5.707,0.457C22.637,23.232,71.217,38.598,24.045,23.268z"/>
<path opacity="0.5" fill-rule="evenodd" clip-rule="evenodd" fill="#BEC3CF" d="M54.135,43.699
	c1.594,2.109-23.859,15.623-0.576,3.793c1.793-0.91-15.186,20.619,2.59,0.344c5.141-5.861,6.408-24.855,1.289-5.453
	C56.375,46.416,38.674,23.217,54.135,43.699z"/>
<path fill="#4E5E67" d="M24.316,49.862c0.969,4.322,14.158,4.322,15.127,0C35.381,51.591,28.381,51.591,24.316,49.862z"/>
<path fill="#1A1626" d="M31.881,45.558c0,0-6.996,0.726-11.887-1.212c3.268,3.397,8.209,1.687,9.482,3.007
	c1.402,1.452,3.404,1.459,4.807,0.007c1.273-1.321,6.215,0.391,9.482-3.008C38.875,46.289,31.881,45.558,31.881,45.558z"/>
<path fill="#4E5E67" d="M31.881,44.31v-0.006c-3.41-2.936-6.996,1.979-11.887,0.042c3.268,3.397,8.209,0.616,9.482,1.938
	c1.402,1.452,3.404,1.458,4.807,0.006c1.273-1.321,6.215,1.461,9.482-1.938C38.875,46.289,35.289,41.374,31.881,44.31z"/>
<path fill="#4E5E67" d="M43.479,42.794c-1.412,1.354,0.004,3.362,1.697,2.589C43.965,44.595,43.721,44.312,43.479,42.794z"/>
<path fill="#4E5E67" d="M20.283,42.794c1.41,1.354-0.006,3.362-1.699,2.589C19.795,44.595,20.039,44.312,20.283,42.794z"/>
<path fill="#1A1626" d="M25.172,37.972c2.141,3.398,3.217,1.687,4.053,3.008c0.961,1.519,4.35,1.524,5.311,0.006
	c0.836-1.32,1.912,0.391,4.055-3.007C35.455,39.873,28.332,39.884,25.172,37.972z"/>
<path fill="#4E5E67" d="M34.92,37.448c-0.797,0.795-1.918,1.194-3.039,1.195c-1.123-0.001-2.242-0.4-3.039-1.195
	c0,0-1.264,1.977-3.67,0.523c2.141,3.398,3.217,0.617,4.053,1.938c0.48,0.759,1.568,1.141,2.656,1.143
	c1.088-0.002,2.174-0.384,2.654-1.143c0.836-1.32,1.912,1.461,4.055-1.938C36.182,39.425,34.92,37.448,34.92,37.448z"/>
<path fill="#F5F5F5" d="M53.531,28.381c-2.803,7.3-14.205,6.229-16.295,1.123C38.824,21.299,51.989,20.596,53.531,28.381z"/>
<path fill="#302C3B" d="M40.146,27.602c0,6.439,9.311,6.439,9.311,0C49.457,21.625,40.146,21.625,40.146,27.602z"/>
<path fill="#302C3B" d="M53.531,28.326c0-7.838-16.295-7.838-16.295,1.241C39.564,22.119,51.203,22.119,53.531,28.326z"/>
<path fill="#F5F5F5" d="M10.469,28.381c2.804,7.3,14.205,6.229,16.293,1.123C25.176,21.299,12.012,20.596,10.469,28.381z"/>
<path fill="#302C3B" d="M23.853,27.602c0,6.439-9.312,6.439-9.312,0C14.541,21.625,23.853,21.625,23.853,27.602z"/>
<path fill="#302C3B" d="M10.469,28.326c0-7.837,16.293-7.837,16.293,1.239C24.437,22.119,12.796,22.119,10.469,28.326z"/>
<path fill="#FFFFFF" d="M46.265,26.203c0,1.705,2.327,1.705,2.327,0C48.592,24.495,46.265,24.495,46.265,26.203z"/>
<path fill="#FFFFFF" d="M20.66,26.203c0,1.705,2.328,1.705,2.328,0C22.988,24.495,20.66,24.495,20.66,26.203z"/>
<path opacity="0.2" fill="#302C3B" d="M34,59C17.983,59,5,46.017,5,30C5,18.7,11.467,8.917,20.897,4.131C9.827,8.546,2,19.355,2,32
	c0,16.568,13.432,30,30,30c12.645,0,23.455-7.828,27.869-18.898C55.083,52.532,45.3,59,34,59z"/>
</svg>
