<?xml version="1.0" encoding="utf-8"?>
<!-- Generator: Adobe Illustrator 15.0.0, SVG Export Plug-In . SVG Version: 6.00 Build 0)  -->
<!DOCTYPE svg PUBLIC "-//W3C//DTD SVG 1.1//EN" "http://www.w3.org/Graphics/SVG/1.1/DTD/svg11.dtd">
<svg version="1.1" id="Layer_1" xmlns="http://www.w3.org/2000/svg" xmlns:xlink="http://www.w3.org/1999/xlink" x="0px" y="0px"
	 width="64px" height="64px" viewBox="0 0 64 64" enable-background="new 0 0 64 64" xml:space="preserve">
<path fill-rule="evenodd" clip-rule="evenodd" fill="#FEEC9A" d="M32,62C15.432,62,2,48.568,2,32S15.432,2,32,2
	C58.568,2,58.568,62,32,62z"/>
<path fill-rule="evenodd" clip-rule="evenodd" fill="#FAE485" d="M11.012,37.154c0,2.479-5.213,2.625-4.061,0.053
	C7.891,35.111,11.012,34.858,11.012,37.154z"/>
<path fill-rule="evenodd" clip-rule="evenodd" fill="#FAE485" d="M29.934,38.711c0,6.421-12.148,7.422-12.148,1.001
	C17.785,32.928,29.934,31.928,29.934,38.711z"/>
<path fill="none" d="M40.158,58.323c0.906-0.876,1.76-1.895,2.557-3.035C35.27,54.615,31.275,53.527,40.158,58.323z"/>
<path fill="none" d="M40.746,16.842c-0.872,3.49,4.721,4.715,6.914,3.463c-0.507-2.11-1.149-4.093-1.904-5.924
	C43.862,13.089,41.594,13.45,40.746,16.842z"/>
<path fill="none" d="M41.861,26.792c0,2.4,4.963,3.52,4.537,1.158C45.724,24.2,41.861,24.393,41.861,26.792z"/>
<path fill="#FAE485" d="M40.158,58.323c-8.883-4.796-4.889-3.708,2.557-3.035c0.525-0.755,1.023-1.566,1.496-2.425
	c-1.811-1.115-3.127-2.311-0.717-3.016c7.204-2.106-7.646-7.851-11.004,0.2c-7.893-6.101-7.566,6.335-17.234-0.45
	c1.057,5.207,6.478,10.034,13.258,6.894c4.225-1.957,4.893,4.1,10.545,2.799C39.433,58.988,39.801,58.67,40.158,58.323z"/>
<path fill="#FAE485" d="M38.121,4.012c-0.496,0.114-0.803,0.428-0.652,0.993c0.352,1.312,2.318,1.677,3.316,1.307
	C39.941,5.412,39.051,4.646,38.121,4.012z"/>
<path fill="#FAE485" d="M48.839,36.091C48.942,34.753,49,33.389,49,32c0-4.148-0.477-8.101-1.34-11.695
	c-2.193,1.252-7.786,0.027-6.914-3.463c0.848-3.392,3.116-3.753,5.01-2.461c-0.48-1.168-1.009-2.273-1.579-3.307
	c-6.995,1.448-11.71,8.549-7.478-0.324c-5.301-4.55-12.301,2.2-8.945,6.931c-7.1-0.23-8.806,14.069,6.895,7.955
	c-0.438-2.673-5.406,0.89-4.773-3.182c3.133,2.7,5.282-2.262,6.895,1.061c2.354,4.848-6.158,7.061-2.651,11.138
	c2.681-7.86,6.933,2.973,1.061,4.242c3.562,3.424,7.239-2.36,6.363-5.303c1.714,1.196,3.757,3.401,5.833,2.651
	c0.178,1.648,0.533,2.882,1.006,3.776c0.176-1.12,0.32-2.264,0.422-3.432C47.334,34.576,47.682,34.889,48.839,36.091z
	 M41.861,26.792c0-2.399,3.862-2.592,4.537,1.158C46.824,30.312,41.861,29.192,41.861,26.792z"/>
<path fill="#FEF3C4" d="M44.72,51.895c0.101-0.2,0.2-0.401,0.298-0.606C43.595,52.244,43.072,52.651,44.72,51.895z"/>
<path fill="#FEF3C4" d="M48.803,36.588c0.014-0.164,0.023-0.332,0.036-0.497C47.682,34.889,47.334,34.576,48.803,36.588z"/>
<path fill="#FAE485" d="M40.158,58.323c-0.357,0.347-0.726,0.665-1.1,0.967c0.549-0.126,1.141-0.317,1.79-0.596
	C40.606,58.564,40.385,58.444,40.158,58.323z"/>
<path fill-rule="evenodd" clip-rule="evenodd" fill="#FEF3C4" d="M24.045,23.269c-3.934-1.278,26.208-29.138-3.15-3.073
	c-1.602,1.423-13.41-25.3-3.521,1.298c1.516,4.077-24.08,9.497-0.683,5.181c5.538-1.021,2.935,46.018,5.708,0.458
	C22.637,23.233,71.217,38.598,24.045,23.269z"/>
<path fill="#4E5E67" d="M32,2c9.389,0,17,13.432,17,30s-7.611,30-17,30c16.568,0,30-13.432,30-30S48.568,2,32,2z"/>
<path fill="#424F57" d="M40.158,58.323c-0.357,0.347-0.726,0.665-1.1,0.967c0.549-0.126,1.141-0.317,1.79-0.596
	C40.606,58.564,40.385,58.444,40.158,58.323z"/>
<path fill="#424F57" d="M46.349,55.545c3.614,0.172,0.292-1.184-2.138-2.682c-0.473,0.858-0.971,1.67-1.496,2.425
	C43.857,55.391,45.078,55.484,46.349,55.545z"/>
<path fill="#424F57" d="M41.069,5.005c-0.647-0.781-2.087-1.191-2.948-0.993c0.93,0.634,1.82,1.4,2.664,2.3
	C41.352,6.102,41.608,5.655,41.069,5.005z"/>
<path fill="#424F57" d="M48.469,18.575c0.184,0.792-0.17,1.365-0.809,1.729C48.523,23.899,49,27.852,49,32
	c0,1.389-0.058,2.753-0.161,4.091c1.151,1.195,3.099,3.267,4.856,4.806c2.781-2.095,5.03-7.021,3.226-11.018
	c-1.452-3.213-7.841-9.298-3.182-12.198c2.08,3.046,1.484,7.72,5.303,10.076c1.323-2.274-5.21-14.041,0.698-7.188
	c-0.022-0.053-0.041-0.107-0.064-0.161c-0.024-0.064-0.056-0.127-0.081-0.19c-2.073-4.849-5.386-9.039-9.542-12.176
	c3.398,3.865,4.695,6.859,4.695,6.859c-3.571-3.953-7.317-4.499-10.571-3.826c0.57,1.033,1.099,2.139,1.579,3.307
	C46.976,15.213,48.041,16.725,48.469,18.575z"/>
<path fill="#6E8189" d="M57.438,42.384c-0.299,1.135-1.917,0.112-3.742-1.487c-1.758-1.539-3.705-3.61-4.856-4.806
	c-0.013,0.165-0.022,0.333-0.036,0.497c0.74,1.014,1.945,2.621,3.737,4.999c0.488,0.648,1.015,1.347,1.594,2.113
	c0.858,1.136-6.122,5.576-9.116,7.588c-0.098,0.205-0.197,0.406-0.298,0.606c1.325-0.608,4.048-1.968,8.839-4.401
	c1.793-0.91-15.187,20.618,2.59,0.344C61.288,41.975,62.557,22.98,57.438,42.384z"/>
<path fill="#424F57" d="M52.54,41.587c-1.792-2.378-2.997-3.985-3.737-4.999c-0.102,1.168-0.246,2.312-0.422,3.432
	C49.402,41.951,50.978,42.271,52.54,41.587z"/>
<path opacity="0.1" fill="#302C3B" d="M16.787,48.213C5.353,36.778,5.084,18.415,15.969,6.647C7.576,11.966,2,21.329,2,32
	c0,16.568,13.432,30,30,30c8.711,0,16.553-3.717,22.033-9.646C42.436,59.702,26.9,58.327,16.787,48.213z"/>
</svg>
