<?xml version="1.0" encoding="utf-8"?>
<!-- Generator: Adobe Illustrator 15.0.0, SVG Export Plug-In . SVG Version: 6.00 Build 0)  -->
<!DOCTYPE svg PUBLIC "-//W3C//DTD SVG 1.1//EN" "http://www.w3.org/Graphics/SVG/1.1/DTD/svg11.dtd">
<svg version="1.1" id="Layer_1" xmlns="http://www.w3.org/2000/svg" xmlns:xlink="http://www.w3.org/1999/xlink" x="0px" y="0px"
	 width="64px" height="64px" viewBox="0 0 64 64" enable-background="new 0 0 64 64" xml:space="preserve">
<path fill="#FEEC9A" d="M22.402,2.154c5.037,2.469,9.391,6.371,12.355,11.523c1.563,2.715,2.625,5.574,3.211,8.479
	c0.803,3.943,0.121,9.506-6.824,7.611c-3.721-1.016-7.316,5.669-0.355,7.569c1.32,0.36-0.969,1.727-1.824,2.352
	c0,0,0.48,1.594,2.246,2.543c0,0-5.488,1.34-2.148,3.904c1.512,1.158-0.203,3.137-1.066,3.854c-1.422,1.18-2.977,2.248-4.658,3.182
	C18.479,55.863,13.186,57.082,8,56.975c9.316,6.077,21.762,6.892,32.252,1.074c14.818-8.217,20.119-26.542,11.836-40.93
	C45.969,6.484,34.141,0.988,22.402,2.154z"/>
<path fill="#FFF5C9" d="M25.215,2.888c18.084,2.675,29.564,22.318,23.061,11.564C43.881,7.188,33.338,2.988,25.215,2.888z"/>
<path fill="#FAE485" d="M41.953,48.481c-1.471-0.4-2.996,0.445-3.402,1.889c-0.41,1.44,0.449,2.938,1.922,3.34
	c1.471,0.4,2.994-0.445,3.4-1.89C44.283,50.38,43.424,48.884,41.953,48.481z"/>
<path fill="#FAE485" d="M45.969,16.006c-1.471-0.401-2.994,0.443-3.406,1.888c-0.404,1.442,0.457,2.938,1.924,3.339
	c1.475,0.4,2.994-0.443,3.404-1.886C48.301,17.903,47.438,16.408,45.969,16.006z"/>
<path fill="#FAE485" d="M33.188,49.528c-2.432-0.662-4.951,0.734-5.631,3.122c-0.674,2.39,0.75,4.864,3.184,5.528
	s4.955-0.734,5.631-3.123C37.049,52.668,35.621,50.192,33.188,49.528z"/>
<path fill="#FAE485" d="M50.176,32.103c-2.561-0.698-5.215,0.771-5.928,3.285c-0.709,2.514,0.789,5.119,3.352,5.816
	c2.557,0.699,5.211-0.771,5.924-3.285C54.232,35.404,52.734,32.802,50.176,32.103z"/>
<path fill="#FAE485" d="M23.328,56.155c-1.166-0.316-2.377,0.352-2.699,1.498c-0.324,1.145,0.357,2.33,1.525,2.648
	c1.166,0.318,2.373-0.352,2.699-1.496C25.178,57.659,24.494,56.476,23.328,56.155z"/>
<path fill="#FAE485" d="M37.566,8.401c-0.914-0.249-1.859,0.275-2.111,1.171c-0.256,0.896,0.279,1.825,1.193,2.074
	c0.912,0.249,1.857-0.277,2.111-1.172C39.014,9.578,38.479,8.65,37.566,8.401z"/>
<path fill="#45332C" d="M45.527,41.73c-5.313,2.04-10.584,0.437-12.854-1.418c-0.543-0.442-2.332,0.234-3.709-0.625
	c0.375,1.563,2.246,2.543,2.246,2.543C37.123,45.292,43.861,44.007,45.527,41.73z"/>
<path fill="#E5BC5E" d="M38.428,48.297c-5.688,0.359-8.281,2.203-8.777-0.824c0.059-1.051-0.77-1.051-1.256-1.965
	c1.611,1.164,4.098,0.537,4.893,1.102C35.6,48.25,38.428,48.297,38.428,48.297z"/>
<path fill="#E5BC5E" d="M31.184,37.665c-0.215-0.49-3.303-0.623-4.137-3.109c3.502,3.152,3.928-1.306,7.896,1.485
	c1.703,1.198,3.441-0.665,3.396-0.333C37.672,40.5,32.965,36.458,31.184,37.665z"/>
<path fill="#45332C" d="M34.533,37.5c-0.66-0.607-2.264-0.566-3.145-1.434C32.541,36.102,34.686,35.647,34.533,37.5z"/>
<path fill="#E5BC5E" d="M38.643,36.041c3.793,4.368,9.127,3.08,8.824,7.932C46.873,40.102,40.805,40.552,38.643,36.041z"/>
<path fill="#E5BC5E" d="M8,56.975c9.316,6.077,21.762,6.892,32.252,1.074c14.818-8.217,20.119-26.542,11.836-40.93
	C63.34,47.515,32,67.396,8,56.975z"/>
<path fill="#FFF5C9" d="M30.928,30.5c0.641,1.036-3.131,2.607-3.213,1.499C27.631,30.891,30.277,29.449,30.928,30.5z"/>
<path fill="#45332C" d="M47.054,29.212c0,5.256-7.477,5.256-7.477,0C39.577,23.954,47.054,23.954,47.054,29.212z"/>
<path fill="#FFFFFF" d="M42.942,27.459c0,1.578-2.243,1.578-2.243,0C40.699,25.882,42.942,25.882,42.942,27.459z"/>
</svg>
