<?xml version="1.0" encoding="utf-8"?>
<!-- Generator: Adobe Illustrator 15.0.0, SVG Export Plug-In . SVG Version: 6.00 Build 0)  -->
<!DOCTYPE svg PUBLIC "-//W3C//DTD SVG 1.1//EN" "http://www.w3.org/Graphics/SVG/1.1/DTD/svg11.dtd">
<svg version="1.1" id="Layer_1" xmlns="http://www.w3.org/2000/svg" xmlns:xlink="http://www.w3.org/1999/xlink" x="0px" y="0px"
	 width="64px" height="64px" viewBox="0 0 64 64" enable-background="new 0 0 64 64" xml:space="preserve">
<path fill-rule="evenodd" clip-rule="evenodd" fill="#FEEC9A" d="M32,62C15.432,62,2,48.568,2,32S15.432,2,32,2S48.568,62,32,62z"/>
<path fill-rule="evenodd" clip-rule="evenodd" fill="#FAE485" d="M11.011,37.154c0,2.479-5.212,2.625-4.061,0.053
	C7.89,35.111,11.011,34.858,11.011,37.154z"/>
<path fill-rule="evenodd" clip-rule="evenodd" fill="#FAE485" d="M29.933,38.711c0,6.421-12.148,7.422-12.148,1.001
	C17.784,32.928,29.933,31.928,29.933,38.711z"/>
<path fill="none" d="M27.323,16.937c-0.229,0.281-0.453,0.561-0.672,0.837c0.352-0.067,0.717-0.105,1.103-0.093
	C27.581,17.438,27.442,17.188,27.323,16.937z"/>
<path fill="none" d="M29.875,22.454c-0.509,3.272,2.597,1.618,4.065,2.229c-0.012-0.655-0.023-1.3-0.038-1.937
	C32.77,23.235,31.446,23.809,29.875,22.454z"/>
<path fill="none" d="M33.05,26.204c0.314,0.103,0.617,0.201,0.916,0.3c-0.002-0.206-0.005-0.414-0.008-0.618
	C33.651,25.997,33.344,26.108,33.05,26.204z"/>
<path fill="#FAE485" d="M32.49,50.048c-7.893-6.101-7.566,6.335-17.234-0.45c1.056,5.207,6.478,10.034,13.257,6.894
	c2.015-0.933,3.22-0.044,4.541,1.001c0.254-2.365,0.47-5.559,0.631-9.328C33.207,48.685,32.8,49.307,32.49,50.048z"/>
<path fill="#FAE485" d="M33.304,9.266c-3.329-0.273-6.368,2.594-6.424,5.64c3.585-3.149,5.561-4.828,6.437-5.478
	C33.313,9.373,33.308,9.319,33.304,9.266z"/>
<path fill="#FAE485" d="M29.45,27.05c-1.824-0.311-3.475-0.525-4.723-0.566C25.829,27.057,27.38,27.313,29.45,27.05z"/>
<path fill="#FAE485" d="M27.754,17.681c-0.386-0.013-0.751,0.025-1.103,0.093c-2.161,2.732-3.7,5.14-2.607,5.495
	c3.519,1.144,6.494,2.112,9.006,2.936c0.294-0.096,0.602-0.207,0.908-0.318c-0.006-0.405-0.012-0.806-0.018-1.203
	c-1.469-0.61-4.574,1.044-4.065-2.229c1.571,1.354,2.895,0.781,4.027,0.292c-0.107-4.979-0.299-9.388-0.55-12.846
	c-1.114,1.366-3.777,4.273-6.029,7.036C27.442,17.188,27.581,17.438,27.754,17.681z"/>
<path fill="#FAE485" d="M33.997,30.673c-0.799,1.18-1.141,2.386-0.004,3.819C33.997,33.67,34,32.84,34,32
	C34,31.555,33.999,31.113,33.997,30.673z"/>
<path fill="#FEF3C4" d="M33.05,26.204c-1.342,0.437-2.539,0.711-3.6,0.846c1.443,0.246,2.993,0.55,4.531,0.872
	c-0.005-0.477-0.01-0.949-0.016-1.418C33.667,26.405,33.364,26.307,33.05,26.204z"/>
<path fill="#FEF3C4" d="M26.651,17.773c0.219-0.276,0.443-0.556,0.672-0.837c-0.314-0.664-0.457-1.352-0.443-2.031
	c-1.643,1.442-3.618,3.188-5.985,5.29c-1.603,1.423-13.411-25.3-3.522,1.298c1.517,4.077-24.08,9.497-0.682,5.181
	c5.538-1.021,2.934,46.018,5.708,0.458c0.032-0.519,0.925-0.694,2.329-0.648C20.853,24.467,22.526,18.564,26.651,17.773z"/>
<path fill="#FEF3C4" d="M24.044,23.269c-1.093-0.355,0.446-2.763,2.607-5.495c-4.125,0.791-5.799,6.693-1.924,8.71
	c1.248,0.041,2.898,0.256,4.723,0.566c1.061-0.135,2.258-0.409,3.6-0.846C30.538,25.381,27.563,24.412,24.044,23.269z"/>
<path fill="#FEF3C4" d="M33.353,9.9c-0.012-0.161-0.023-0.316-0.036-0.473c-0.876,0.649-2.852,2.328-6.437,5.478
	c-0.014,0.68,0.129,1.367,0.443,2.031C29.575,14.174,32.238,11.267,33.353,9.9z"/>
<path fill="#4E5E67" d="M32,2c1.104,0,2,13.432,2,30s-0.896,30-2,30c16.568,0,30-13.432,30-30S48.568,2,32,2z"/>
<path fill="#424F57" d="M40.849,58.694c-11.25-6.011-4.26-3.614,5.5-3.149c6.304,0.3-8.504-4.046-2.855-5.697
	c6.541-1.912-5.098-6.822-9.809-1.684c-0.161,3.77-0.377,6.963-0.631,9.328C34.774,58.852,36.692,60.476,40.849,58.694z"/>
<path fill="#424F57" d="M41.069,5.005c-1.021-1.231-4.014-1.546-3.601,0C38.019,7.063,42.556,6.8,41.069,5.005z"/>
<path fill="#424F57" d="M33.94,24.683c0.006,0.397,0.012,0.798,0.018,1.203c0.23-0.084,0.451-0.157,0.689-0.25
	C34.562,25.111,34.298,24.831,33.94,24.683z"/>
<path fill="#6E8189" d="M36.534,27.348c-0.788-0.26-1.646-0.541-2.568-0.844c0.006,0.469,0.011,0.941,0.016,1.418
	c0.633,0.133,1.262,0.269,1.882,0.404C43.993,30.104,50.362,31.91,36.534,27.348z"/>
<path fill="#424F57" d="M59.739,20.568c-0.021-0.053-0.041-0.107-0.063-0.161c-0.024-0.064-0.056-0.127-0.081-0.19
	c-2.074-4.849-5.387-9.039-9.542-12.176c3.397,3.865,4.695,6.859,4.695,6.859c-11.25-12.45-24.25,8.85-18.05-4.15
	c-0.939-0.807-1.932-1.252-2.911-1.423c0.176-0.27,0.113-0.308-0.272-0.042c-0.07-0.009-0.141-0.014-0.211-0.02
	c0.004,0.054,0.009,0.107,0.013,0.162c0.013,0.156,0.024,0.312,0.036,0.473c0.251,3.458,0.442,7.867,0.55,12.846
	c1.126-0.485,2.063-0.887,2.866,0.769c0.72,1.481,0.422,2.716-0.234,3.833c13.828,4.563,7.459,2.757-0.671,0.979
	c-0.623,0.809-1.341,1.572-1.866,2.347C33.999,31.113,34,31.555,34,32c0,0.84-0.003,1.67-0.007,2.492
	c0.042,0.054,0.078,0.105,0.125,0.16c2.68-7.86,6.932,2.973,1.061,4.242c3.561,3.424,7.238-2.36,6.363-5.303
	c1.714,1.196,3.756,3.401,5.833,2.651c0.559,5.21,2.878,6.345,5.165,5.344c-8.887-11.79-3.262-4.558,1.154-0.69
	c2.781-2.095,5.031-7.021,3.227-11.018c-1.452-3.213-7.842-9.298-3.182-12.198c2.08,3.046,1.484,7.72,5.303,10.076
	C60.364,25.482,53.831,13.716,59.739,20.568z M41.861,26.792c0-2.399,3.862-2.592,4.536,1.158
	C46.823,30.312,41.861,29.192,41.861,26.792z M40.746,16.842c1.394-5.574,6.629-2.992,7.723,1.733
	C49.281,22.082,39.619,21.35,40.746,16.842z"/>
<path fill="#6E8189" d="M57.438,42.384c-0.3,1.135-1.917,0.112-3.743-1.487c-4.416-3.867-10.041-11.1-1.154,0.69
	c0.488,0.648,1.015,1.347,1.594,2.113c1.594,2.109-23.858,15.623-0.576,3.793c1.793-0.91-15.186,20.618,2.59,0.344
	C61.288,41.975,62.556,22.98,57.438,42.384z"/>
<path opacity="0.1" fill="#302C3B" d="M16.787,48.213C5.353,36.778,5.084,18.415,15.969,6.647C7.576,11.966,2,21.329,2,32
	c0,16.568,13.432,30,30,30c8.711,0,16.552-3.717,22.033-9.646C42.436,59.702,26.9,58.327,16.787,48.213z"/>
</svg>
