<?xml version="1.0" encoding="utf-8"?>
<!-- Generator: Adobe Illustrator 15.0.0, SVG Export Plug-In . SVG Version: 6.00 Build 0)  -->
<!DOCTYPE svg PUBLIC "-//W3C//DTD SVG 1.1//EN" "http://www.w3.org/Graphics/SVG/1.1/DTD/svg11.dtd">
<svg version="1.1" id="Layer_1" xmlns="http://www.w3.org/2000/svg" xmlns:xlink="http://www.w3.org/1999/xlink" x="0px" y="0px"
	 width="64px" height="64px" viewBox="0 0 64 64" enable-background="new 0 0 64 64" xml:space="preserve">
<path fill-rule="evenodd" clip-rule="evenodd" fill="#FEEC9A" d="M32,62C15.432,62,2,48.568,2,32S15.432,2,32,2S48.568,62,32,62z"/>
<path fill-rule="evenodd" clip-rule="evenodd" fill="#FAE485" d="M11.011,37.154c0,2.479-5.212,2.625-4.061,0.053
	C7.889,35.111,11.011,34.858,11.011,37.154z"/>
<path fill="#FAE485" d="M15.256,49.598c0.742,3.665,3.653,7.129,7.674,7.771c-1.443-1.609-2.737-3.589-3.843-5.865
	C18.004,51.233,16.749,50.646,15.256,49.598z"/>
<path fill="#FEF3C4" d="M15.244,26.939c0.096-0.987,0.217-1.958,0.365-2.91C10.701,27.268-1.311,29.969,15.244,26.939z"/>
<path fill="#FEF3C4" d="M16.582,19.355c0.296-1.12,0.629-2.202,0.998-3.242C14.314,10.646,10.74,3.452,16.582,19.355z"/>
<path fill="#4E5E67" d="M31.998,2c-9.389,0-17,13.432-17,30s7.611,30,17,30C48.568,62,62,48.568,62,32S48.568,2,31.998,2z"/>
<path fill="#424F57" d="M28.513,56.491c4.635-2.146,4.985,5.354,12.335,2.203c-11.25-6.011-4.26-3.614,5.5-3.149
	c6.305,0.3-8.503-4.046-2.854-5.697c7.204-2.106-7.646-7.851-11.003,0.2c-6.674-5.158-7.473,2.933-13.403,1.456
	c1.105,2.276,2.399,4.256,3.843,5.865C24.621,57.64,26.504,57.422,28.513,56.491z"/>
<path fill="#424F57" d="M41.068,5.005c-1.021-1.231-4.014-1.546-3.6,0C38.018,7.063,42.556,6.8,41.068,5.005z"/>
<path fill="#424F57" d="M29.932,38.711c0-4.116-4.471-5.361-7.988-4.193c-0.268,4.314-0.467,7.33-0.621,9.318
	C24.908,44.724,29.932,42.841,29.932,38.711z"/>
<path fill="#424F57" d="M17.784,39.712c0,1.997,1.177,3.276,2.796,3.897c-0.145-2.212-0.337-5.196-0.664-8.046
	C18.65,36.513,17.784,37.904,17.784,39.712z"/>
<path fill="#424F57" d="M36.697,10.75c-0.939-0.807-1.932-1.252-2.91-1.423c-0.588,0.899-3.811,4.355-6.464,7.609
	c0.119,0.252,0.258,0.501,0.431,0.744c-0.386-0.013-0.752,0.025-1.104,0.093c-2.16,2.732-3.699,5.14-2.607,5.495
	c3.52,1.144,6.494,2.112,9.007,2.936c0.513-0.167,1.042-0.352,1.598-0.568c-0.438-2.673-5.406,0.89-4.772-3.182
	c3.131,2.7,5.281-2.262,6.894,1.061c0.72,1.481,0.422,2.716-0.235,3.833c13.829,4.563,7.459,2.757-0.67,0.979
	c-1.608,2.088-3.859,3.869-1.746,6.326c2.68-7.86,6.933,2.973,1.061,4.242c3.561,3.424,7.238-2.36,6.363-5.303
	c1.715,1.196,3.757,3.401,5.834,2.651c0.559,5.21,2.878,6.345,5.164,5.344c-8.887-11.79-3.262-4.558,1.155-0.69
	c2.78-2.095,5.03-7.021,3.226-11.018c-1.451-3.213-7.842-9.298-3.182-12.198c2.08,3.046,1.484,7.72,5.303,10.076
	c1.323-2.274-5.21-14.041,0.697-7.188c-0.021-0.054-0.041-0.109-0.064-0.163c-0.023-0.063-0.055-0.124-0.079-0.187
	c-2.073-4.85-5.386-9.041-9.542-12.177c3.396,3.864,4.695,6.858,4.695,6.858C43.498,2.45,30.498,23.75,36.697,10.75z M41.861,26.792
	c0-2.399,3.861-2.592,4.536,1.158C46.822,30.312,41.861,29.192,41.861,26.792z M40.746,16.842c1.393-5.574,6.629-2.992,7.723,1.733
	C49.281,22.082,39.619,21.35,40.746,16.842z"/>
<path fill="#424F57" d="M26.879,14.905c3.887-3.414,5.882-5.101,6.636-5.62C30.104,8.869,26.936,11.795,26.879,14.905z"/>
<path fill="#6E8189" d="M36.533,27.348c-1.043-0.344-2.202-0.725-3.483-1.144c-2.513-0.823-5.487-1.792-9.007-2.936
	c-1.092-0.355,0.447-2.763,2.607-5.495c0.219-0.276,0.443-0.556,0.673-0.837c2.653-3.254,5.876-6.71,6.464-7.609
	c-0.092-0.016-0.182-0.03-0.272-0.042c-0.754,0.52-2.749,2.206-6.636,5.62c-1.643,1.442-3.617,3.188-5.984,5.29
	c-0.479,0.425-1.866-1.658-3.314-4.082c-0.369,1.04-0.702,2.122-0.998,3.242c0.247,0.673,0.509,1.381,0.79,2.138
	c0.306,0.821-0.489,1.696-1.763,2.536c-0.148,0.952-0.27,1.923-0.365,2.91c0.462-0.085,0.938-0.172,1.445-0.266
	c1.738-0.32,2.674,4.092,3.227,8.89c0.327,2.85,0.52,5.834,0.664,8.046c0.244,3.727,0.352,5.252,0.742,0.227
	c0.154-1.988,0.354-5.004,0.621-9.318c0.134-2.134,0.283-4.583,0.455-7.386c0.031-0.519,0.924-0.694,2.328-0.648
	c1.248,0.041,2.898,0.256,4.723,0.566c2.038,0.347,4.285,0.811,6.414,1.276C43.992,30.104,50.362,31.91,36.533,27.348z"/>
<path fill="#6E8189" d="M57.438,42.384c-0.3,1.135-1.918,0.112-3.743-1.487c-4.417-3.867-10.042-11.1-1.155,0.69
	c0.488,0.648,1.016,1.347,1.594,2.113c1.594,2.109-23.857,15.623-0.576,3.793c1.793-0.91-15.186,20.618,2.59,0.344
	C61.287,41.975,62.556,22.98,57.438,42.384z"/>
<path opacity="0.1" fill="#302C3B" d="M16.787,48.213C5.352,36.778,5.084,18.415,15.969,6.647C7.576,11.966,2,21.329,2,32
	c0,16.568,13.432,30,30,30c8.711,0,16.551-3.717,22.033-9.646C42.436,59.702,26.9,58.327,16.787,48.213z"/>
</svg>
