<?xml version="1.0" encoding="utf-8"?>
<!-- Generator: Adobe Illustrator 15.0.0, SVG Export Plug-In . SVG Version: 6.00 Build 0)  -->
<!DOCTYPE svg PUBLIC "-//W3C//DTD SVG 1.1//EN" "http://www.w3.org/Graphics/SVG/1.1/DTD/svg11.dtd">
<svg version="1.1" id="Layer_1" xmlns="http://www.w3.org/2000/svg" xmlns:xlink="http://www.w3.org/1999/xlink" x="0px" y="0px"
	 width="64px" height="64px" viewBox="0 0 64 64" enable-background="new 0 0 64 64" xml:space="preserve">
<path fill-rule="evenodd" clip-rule="evenodd" fill="#4E5E67" d="M32,62C15.432,62,2,48.568,2,32S15.432,2,32,2
	C57.568,2,57.568,62,32,62z"/>
<path fill="#FAE485" d="M59.749,20.58c-0.021-0.058-0.051-0.115-0.073-0.173c0.022,0.054,0.042,0.108,0.063,0.161
	C59.743,20.572,59.746,20.576,59.749,20.58z"/>
<path fill="#FAE485" d="M59.595,20.217c-1.885-4.748-5.525-9.291-9.551-12.187c0.003,0.004,0.006,0.007,0.009,0.011
	C54.208,11.178,57.521,15.368,59.595,20.217z"/>
<path opacity="0.7" fill="#1A1626" d="M59.595,20.217c0.025,0.063,0.057,0.126,0.081,0.19C59.649,20.344,59.622,20.28,59.595,20.217
	z"/>
<path fill="#FEEC9A" d="M32,2c9.389,0,17,13.432,17,30s-7.611,30-17,30c16.568,0,30-13.432,30-30S48.568,2,32,2z"/>
<path fill="#FAE485" d="M48.469,18.575c0.184,0.792-0.17,1.365-0.81,1.729C48.522,23.899,49,27.852,49,32
	c0,1.389-0.058,2.753-0.161,4.091c1.15,1.195,3.098,3.267,4.855,4.806c2.781-2.095,5.031-7.021,3.227-11.018
	c-1.452-3.213-7.842-9.298-3.182-12.198c2.08,3.046,1.484,7.72,5.303,10.076c1.322-2.274-5.211-14.041,0.697-7.188
	c-0.021-0.053-0.041-0.107-0.063-0.161c-0.024-0.064-0.056-0.127-0.081-0.19c-2.074-4.849-5.387-9.039-9.542-12.176
	c3.397,3.865,4.695,6.859,4.695,6.859c-3.571-3.953-7.317-4.499-10.571-3.826c0.57,1.033,1.098,2.139,1.579,3.307
	C46.976,15.213,48.04,16.725,48.469,18.575z"/>
<path fill="#FEF3C4" d="M57.438,42.384c-0.3,1.135-1.917,0.112-3.743-1.487c-1.758-1.539-3.705-3.61-4.855-4.806
	c-0.014,0.165-0.022,0.333-0.037,0.497c0.74,1.014,1.945,2.621,3.738,4.999c0.488,0.648,1.015,1.347,1.594,2.113
	c0.857,1.136-6.122,5.576-9.117,7.588c-0.098,0.205-0.197,0.406-0.297,0.606c1.324-0.608,4.048-1.968,8.838-4.401
	c1.793-0.91-15.186,20.618,2.59,0.344C61.288,41.975,62.556,22.98,57.438,42.384z"/>
<path fill-rule="evenodd" clip-rule="evenodd" fill="#424F57" d="M11.011,37.154c0,2.479-5.212,2.625-4.06,0.053
	C7.89,35.111,11.011,34.858,11.011,37.154z"/>
<path fill-rule="evenodd" clip-rule="evenodd" fill="#424F57" d="M29.933,38.711c0,6.421-12.148,7.422-12.148,1.001
	C17.784,32.928,29.933,31.928,29.933,38.711z"/>
<path fill="none" d="M40.158,58.323c0.905-0.876,1.76-1.895,2.556-3.035C35.269,54.615,31.274,53.527,40.158,58.323z"/>
<path fill="none" d="M40.746,16.842c-0.872,3.49,4.72,4.715,6.913,3.463c-0.506-2.11-1.148-4.093-1.903-5.924
	C43.862,13.089,41.594,13.45,40.746,16.842z"/>
<path fill="none" d="M41.861,26.792c0,2.4,4.962,3.52,4.536,1.158C45.724,24.2,41.861,24.393,41.861,26.792z"/>
<path fill="#424F57" d="M40.158,58.323c-8.884-4.796-4.89-3.708,2.556-3.035c0.525-0.755,1.024-1.566,1.496-2.425
	c-1.811-1.115-3.127-2.311-0.717-3.016c7.205-2.106-7.646-7.851-11.003,0.2c-7.893-6.101-7.566,6.335-17.234-0.45
	c1.056,5.207,6.478,10.034,13.257,6.894c4.226-1.957,4.893,4.1,10.546,2.799C39.433,58.988,39.8,58.67,40.158,58.323z"/>
<path fill="#424F57" d="M38.12,4.012c-0.496,0.114-0.803,0.428-0.651,0.993c0.351,1.312,2.317,1.677,3.315,1.307
	C39.941,5.412,39.05,4.646,38.12,4.012z"/>
<path fill="#424F57" d="M48.839,36.091C48.942,34.753,49,33.389,49,32c0-4.148-0.478-8.101-1.341-11.695
	c-2.193,1.252-7.785,0.027-6.913-3.463c0.848-3.392,3.116-3.753,5.01-2.461c-0.481-1.168-1.009-2.273-1.579-3.307
	c-6.996,1.448-11.711,8.549-7.479-0.324c-5.301-4.55-12.301,2.2-8.944,6.931c-7.1-0.23-8.806,14.069,6.894,7.955
	c-0.438-2.673-5.406,0.89-4.772-3.182c3.132,2.7,5.282-2.262,6.894,1.061c2.354,4.848-6.158,7.061-2.65,11.138
	c2.68-7.86,6.932,2.973,1.061,4.242c3.561,3.424,7.238-2.36,6.363-5.303c1.714,1.196,3.756,3.401,5.833,2.651
	c0.177,1.648,0.533,2.882,1.006,3.776c0.176-1.12,0.319-2.264,0.421-3.432C47.333,34.576,47.681,34.889,48.839,36.091z
	 M41.861,26.792c0-2.399,3.862-2.592,4.536,1.158C46.823,30.312,41.861,29.192,41.861,26.792z"/>
<path fill="#FAE485" d="M52.54,41.587c-1.793-2.378-2.998-3.985-3.738-4.999c-0.102,1.168-0.245,2.312-0.421,3.432
	C49.401,41.951,50.978,42.271,52.54,41.587z"/>
<path fill-rule="evenodd" clip-rule="evenodd" fill="#6E8189" d="M24.044,23.269c-3.933-1.278,26.209-29.138-3.149-3.073
	c-1.603,1.423-13.411-25.3-3.522,1.298c1.517,4.077-24.08,9.497-0.682,5.181c5.538-1.021,2.934,46.018,5.708,0.458
	C22.636,23.233,71.216,38.598,24.044,23.269z"/>
<path fill="#FAE485" d="M46.349,55.545c3.613,0.172,0.292-1.184-2.139-2.682c-0.472,0.858-0.971,1.67-1.496,2.425
	C43.856,55.391,45.077,55.484,46.349,55.545z"/>
<path fill="#FAE485" d="M41.069,5.005c-0.648-0.781-2.088-1.191-2.949-0.993c0.93,0.634,1.821,1.4,2.664,2.3
	C41.351,6.102,41.608,5.655,41.069,5.005z"/>
<path fill="#FAE485" d="M40.158,58.323c-0.358,0.347-0.726,0.665-1.1,0.967c0.548-0.126,1.14-0.317,1.79-0.596
	C40.606,58.564,40.384,58.444,40.158,58.323z"/>
<path opacity="0.1" fill="#302C3B" d="M16.787,48.213C5.353,36.778,5.084,18.415,15.969,6.647C7.576,11.966,2,21.329,2,32
	c0,16.568,13.432,30,30,30c8.711,0,16.552-3.717,22.033-9.646C42.436,59.702,26.9,58.327,16.787,48.213z"/>
</svg>
