<?xml version="1.0" encoding="utf-8"?>
<!-- Generator: Adobe Illustrator 15.0.0, SVG Export Plug-In . SVG Version: 6.00 Build 0)  -->
<!DOCTYPE svg PUBLIC "-//W3C//DTD SVG 1.1//EN" "http://www.w3.org/Graphics/SVG/1.1/DTD/svg11.dtd">
<svg version="1.1" id="Layer_1" xmlns="http://www.w3.org/2000/svg" xmlns:xlink="http://www.w3.org/1999/xlink" x="0px" y="0px"
	 width="64px" height="64px" viewBox="0 0 64 64" enable-background="new 0 0 64 64" xml:space="preserve">
<path fill="#FEEC9A" d="M41.598,2.154c-5.037,2.469-9.391,6.371-12.355,11.523c-1.563,2.715-2.625,5.574-3.211,8.479
	c-0.803,3.943-0.121,9.506,6.824,7.611c3.721-1.016,7.316,5.669,0.355,7.569c-1.32,0.36,0.969,1.727,1.824,2.352
	c0,0-0.48,1.594-2.246,2.543c0,0,5.488,1.34,2.148,3.904c-1.512,1.158,0.203,3.137,1.066,3.854c1.422,1.18,2.977,2.248,4.658,3.182
	c4.859,2.693,10.152,3.912,15.338,3.805c-9.316,6.077-21.762,6.892-32.252,1.074C8.93,49.832,3.629,31.507,11.912,17.119
	C18.031,6.484,29.859,0.988,41.598,2.154z"/>
<path fill="#FFF5C9" d="M38.785,2.888C20.701,5.563,9.221,25.207,15.725,14.453C20.119,7.188,30.662,2.988,38.785,2.888z"/>
<path fill="#FAE485" d="M22.047,48.481c1.471-0.4,2.996,0.445,3.402,1.889c0.41,1.44-0.449,2.938-1.922,3.34
	c-1.471,0.4-2.994-0.445-3.4-1.89C19.717,50.38,20.576,48.884,22.047,48.481z"/>
<path fill="#FAE485" d="M18.031,16.006c1.471-0.401,2.994,0.443,3.406,1.888c0.404,1.442-0.457,2.938-1.924,3.339
	c-1.475,0.4-2.994-0.443-3.404-1.886C15.699,17.903,16.563,16.408,18.031,16.006z"/>
<path fill="#FAE485" d="M30.813,49.528c2.432-0.662,4.951,0.734,5.631,3.122c0.674,2.39-0.75,4.864-3.184,5.528
	s-4.955-0.734-5.631-3.123C26.951,52.668,28.379,50.192,30.813,49.528z"/>
<path fill="#FAE485" d="M13.824,32.103c2.561-0.698,5.215,0.771,5.928,3.285c0.709,2.514-0.789,5.119-3.352,5.816
	c-2.557,0.699-5.211-0.771-5.924-3.285C9.768,35.404,11.266,32.802,13.824,32.103z"/>
<path fill="#FAE485" d="M40.672,56.155c1.166-0.316,2.377,0.352,2.699,1.498c0.324,1.145-0.357,2.33-1.525,2.648
	c-1.166,0.318-2.373-0.352-2.699-1.496C38.822,57.659,39.506,56.476,40.672,56.155z"/>
<path fill="#FAE485" d="M26.434,8.401c0.914-0.249,1.859,0.275,2.111,1.171c0.256,0.896-0.279,1.825-1.193,2.074
	c-0.912,0.249-1.857-0.277-2.111-1.172C24.986,9.578,25.521,8.65,26.434,8.401z"/>
<path fill="#45332C" d="M18.473,41.73c5.313,2.04,10.584,0.437,12.854-1.418c0.543-0.442,2.332,0.234,3.709-0.625
	c-0.375,1.563-2.246,2.543-2.246,2.543C26.877,45.292,20.139,44.007,18.473,41.73z"/>
<path fill="#E5BC5E" d="M25.572,48.297c5.688,0.359,8.281,2.203,8.777-0.824c-0.059-1.051,0.77-1.051,1.256-1.965
	c-1.611,1.164-4.098,0.537-4.893,1.102C28.4,48.25,25.572,48.297,25.572,48.297z"/>
<path fill="#E5BC5E" d="M32.816,37.665c0.215-0.49,3.303-0.623,4.137-3.109c-3.502,3.152-3.928-1.306-7.896,1.485
	c-1.703,1.198-3.441-0.665-3.396-0.333C26.328,40.5,31.035,36.458,32.816,37.665z"/>
<path fill="#45332C" d="M29.467,37.5c0.66-0.607,2.264-0.566,3.145-1.434C31.459,36.102,29.314,35.647,29.467,37.5z"/>
<path fill="#E5BC5E" d="M25.357,36.041c-3.793,4.368-9.127,3.08-8.824,7.932C17.127,40.102,23.195,40.552,25.357,36.041z"/>
<path fill="#E5BC5E" d="M56,56.975c-9.316,6.077-21.762,6.892-32.252,1.074C8.93,49.832,3.629,31.506,11.912,17.119
	C0.66,47.515,32,67.396,56,56.975z"/>
<path fill="#FFF5C9" d="M33.072,30.5c-0.641,1.036,3.131,2.607,3.213,1.499C36.369,30.891,33.723,29.449,33.072,30.5z"/>
<path fill="#45332C" d="M16.946,29.212c0,5.256,7.477,5.256,7.477,0C24.423,23.954,16.946,23.954,16.946,29.212z"/>
<path fill="#FFFFFF" d="M21.058,27.459c0,1.578,2.243,1.578,2.243,0C23.3,25.882,21.058,25.882,21.058,27.459z"/>
</svg>
