<?xml version="1.0" encoding="utf-8"?>
<!-- Generator: Adobe Illustrator 15.0.0, SVG Export Plug-In . SVG Version: 6.00 Build 0)  -->
<!DOCTYPE svg PUBLIC "-//W3C//DTD SVG 1.1//EN" "http://www.w3.org/Graphics/SVG/1.1/DTD/svg11.dtd">
<svg version="1.1" id="Layer_1" xmlns="http://www.w3.org/2000/svg" xmlns:xlink="http://www.w3.org/1999/xlink" x="0px" y="0px"
	 width="64px" height="64px" viewBox="0 0 64 64" enable-background="new 0 0 64 64" xml:space="preserve">
<path fill="#FEEC9A" d="M35.504,2c4.076,3.982,7.029,9.125,8.241,15.025c2.752,13.386-3.275,30.503-23.704,34.331
	C14.481,52.394,8.976,51.876,4,50.117c7.052,8.818,18.816,13.574,30.818,11.33c16.956-3.17,27.956-19.099,24.569-35.58
	C56.886,13.688,47.22,4.626,35.504,2z"/>
<path fill="#FFF5C9" d="M37.986,3.604c16.615,8.346,21.407,30.899,18.572,18.482C54.643,13.699,45.802,6.293,37.986,3.604z"/>
<path fill="#FAE485" d="M41.487,48.138c-1.292-0.855-3.037-0.529-3.894,0.729c-0.858,1.255-0.508,2.969,0.786,3.825
	c1.292,0.855,3.036,0.528,3.892-0.73C43.13,50.707,42.778,48.993,41.487,48.138z"/>
<path fill="#FAE485" d="M53.273,24.517c-1.292-0.857-3.036-0.53-3.896,0.727c-0.854,1.258-0.501,2.97,0.787,3.826
	c1.296,0.856,3.035,0.529,3.895-0.728C54.918,27.085,54.564,25.371,53.273,24.517z"/>
<path fill="#FAE485" d="M32.933,51.728c-2.137-1.413-5.02-0.874-6.442,1.205c-1.418,2.082-0.836,4.916,1.302,6.332
	c2.139,1.415,5.024,0.876,6.443-1.206C35.656,55.979,35.071,53.143,32.933,51.728z"/>
<path fill="#FAE485" d="M54.123,36.39c-2.25-1.488-5.285-0.924-6.78,1.267c-1.491,2.19-0.88,5.174,1.372,6.663
	c2.246,1.487,5.282,0.921,6.777-1.269C56.984,40.859,56.372,37.879,54.123,36.39z"/>
<path fill="#FAE485" d="M19.074,54.224c-1.025-0.677-2.41-0.421-3.089,0.579c-0.68,0.996-0.401,2.354,0.625,3.033
	c1.024,0.678,2.405,0.42,3.088-0.577C20.378,56.26,20.098,54.903,19.074,54.224z"/>
<path fill="#FAE485" d="M48.152,12.849c-0.804-0.532-1.885-0.328-2.415,0.452c-0.536,0.78-0.317,1.845,0.486,2.375
	c0.802,0.532,1.885,0.327,2.416-0.453C49.173,14.442,48.953,13.379,48.152,12.849z"/>
<path fill="#E5BC5E" d="M4,50.117c7.052,8.818,18.816,13.574,30.818,11.33c16.956-3.17,27.956-19.099,24.569-35.58
	C60.508,58.688,23.847,67.801,4,50.117z"/>
</svg>
