<?xml version="1.0" encoding="utf-8"?>
<!-- Generator: Adobe Illustrator 15.0.0, SVG Export Plug-In . SVG Version: 6.00 Build 0)  -->
<!DOCTYPE svg PUBLIC "-//W3C//DTD SVG 1.1//EN" "http://www.w3.org/Graphics/SVG/1.1/DTD/svg11.dtd">
<svg version="1.1" id="Layer_1" xmlns="http://www.w3.org/2000/svg" xmlns:xlink="http://www.w3.org/1999/xlink" x="0px" y="0px"
	 width="64px" height="64px" viewBox="0 0 64 64" enable-background="new 0 0 64 64" xml:space="preserve">
<polygon fill="#F9C802" points="32.002,2 40.957,20.386 61,23.343 46.496,37.65 49.926,57.862 32.002,48.325 14.077,57.862 
	17.498,37.65 3,23.343 23.038,20.386 "/>
<polygon fill="#FFE463" points="31.973,6.967 26.111,24.252 8.18,24.466 24.622,22.043 "/>
<polygon fill="#F9B700" points="44.922,50.418 42.384,35.528 54.578,27.03 44.563,36.498 47.589,54.334 34.103,47.299 "/>
<path fill="#FFE463" d="M32,49.688c-0.42,0-5.325,12.311-0.003,12.312C37.329,62,32.421,49.688,32,49.688z"/>
<path fill="#FFE463" d="M42.368,18.604c0.298,0.297,12.482-4.943,8.718-8.704C47.315,6.134,42.069,18.305,42.368,18.604z"/>
<path fill="#FFE463" d="M21.63,18.605c0.297-0.297-4.949-12.468-8.714-8.708C9.146,13.664,21.331,18.903,21.63,18.605z"/>
<path fill="#FFE463" d="M15.101,38.326c-0.155-0.391-13.421-0.417-11.462,4.529C5.602,47.808,15.255,38.717,15.101,38.326z"/>
<path fill="#FFE463" d="M49.016,38.161c-0.168,0.386,9.203,9.767,11.314,4.884C62.444,38.155,49.184,37.774,49.016,38.161z"/>
</svg>
