<?xml version="1.0" encoding="utf-8"?>
<!-- Generator: Adobe Illustrator 15.0.0, SVG Export Plug-In . SVG Version: 6.00 Build 0)  -->
<!DOCTYPE svg PUBLIC "-//W3C//DTD SVG 1.1//EN" "http://www.w3.org/Graphics/SVG/1.1/DTD/svg11.dtd">
<svg version="1.1" id="Layer_1" xmlns="http://www.w3.org/2000/svg" xmlns:xlink="http://www.w3.org/1999/xlink" x="0px" y="0px"
	 width="64px" height="64px" viewBox="0 0 64 64" enable-background="new 0 0 64 64" xml:space="preserve">
<path fill-rule="evenodd" clip-rule="evenodd" fill="#FEEC9A" d="M62,32c0,16.568-13.432,30-30,30C15.432,62,15.432,2,32,2
	C48.568,2,62,15.432,62,32z"/>
<path fill="#4E5E67" d="M30,32c0-16.568,0.895-30,2-30C15.432,2,2,15.432,2,32s13.432,30,30,30C30.895,62,30,48.568,30,32z"/>
<path fill-rule="evenodd" clip-rule="evenodd" fill="#FAE485" d="M41.068,5.005c1.488,1.795-3.051,2.058-3.6,0
	C37.055,3.459,40.049,3.773,41.068,5.005z"/>
<path fill="none" d="M41.861,26.792c0,2.4,4.961,3.52,4.537,1.158C45.723,24.2,41.861,24.393,41.861,26.792z"/>
<path fill="none" d="M34.648,25.636c-0.557,0.217-1.086,0.401-1.598,0.568c1.281,0.419,2.439,0.8,3.482,1.144
	c0.658-1.117,0.955-2.352,0.236-3.833c-1.574-3.241-3.66,1.382-6.669-0.896c-0.01,0.475-0.02,0.955-0.029,1.441
	C31.008,25.369,34.295,23.483,34.648,25.636z"/>
<path fill="none" d="M40.746,16.842c-1.127,4.508,8.535,5.24,7.723,1.733C47.375,13.85,42.139,11.268,40.746,16.842z"/>
<path fill="#FAE485" d="M40.848,58.694c-11.25-6.011-4.26-3.614,5.5-3.149c6.305,0.3-8.502-4.046-2.854-5.697
	c7.203-2.106-7.646-7.851-11.003,0.2c-0.795-0.614-1.504-1.033-2.15-1.311c0.129,2.878,0.291,5.399,0.477,7.451
	C33.549,56.866,34.93,61.23,40.848,58.694z"/>
<path fill="#FAE485" d="M59.75,20.58C57.91,15.7,54.172,11,50.043,8.03c3.404,3.87,4.705,6.87,4.705,6.87
	c-11.25-12.45-24.25,8.85-18.051-4.15c-0.939-0.807-1.932-1.252-2.91-1.423c-0.363,0.556-1.73,2.084-3.349,3.941
	c-0.146,2.76-0.262,5.917-0.338,9.351c3.009,2.277,5.095-2.346,6.669,0.896c0.719,1.481,0.422,2.716-0.236,3.833
	c13.83,4.563,7.459,2.757-0.67,0.979c-1.607,2.088-3.859,3.869-1.746,6.326c2.68-7.86,6.934,2.973,1.061,4.242
	c3.561,3.424,7.238-2.36,6.363-5.303c1.715,1.196,3.758,3.401,5.834,2.651c1.354,12.617,13.037,1.368,9.545-6.364
	c-1.451-3.213-7.842-9.298-3.182-12.198c2.08,3.046,1.484,7.72,5.303,10.076C60.365,25.48,53.822,13.7,59.75,20.58z M41.861,26.792
	c0-2.399,3.861-2.592,4.537,1.158C46.822,30.312,41.861,29.192,41.861,26.792z M40.746,16.842c1.393-5.574,6.629-2.992,7.723,1.733
	C49.281,22.082,39.619,21.35,40.746,16.842z"/>
<path fill="#FAE485" d="M30.071,24.061c-0.006,0.385-0.014,0.772-0.02,1.163c1.071,0.35,2.063,0.674,3,0.98
	c0.512-0.167,1.041-0.352,1.598-0.568C34.295,23.483,31.008,25.369,30.071,24.061z"/>
<path fill="#FAE485" d="M33.516,9.285c-0.996-0.121-1.97,0.038-2.853,0.408c-0.047,0.646-0.094,1.326-0.137,2.038
	C32.103,10.378,33.047,9.607,33.516,9.285z"/>
<path fill="#FEF3C4" d="M33.516,9.285c0.09,0.012,0.18,0.026,0.271,0.042C33.963,9.058,33.9,9.02,33.516,9.285z"/>
<path fill="#FEF3C4" d="M33.051,26.204c-1.107,0.359-2.109,0.603-3.022,0.754c-0.001,0.064-0.001,0.128-0.003,0.192
	c1.881,0.333,3.908,0.753,5.837,1.176c0.244-0.318,0.473-0.643,0.67-0.979C35.49,27.004,34.332,26.623,33.051,26.204z"/>
<path fill="#FEF3C4" d="M36.533,27.348c-0.197,0.336-0.426,0.66-0.67,0.979C43.992,30.104,50.363,31.91,36.533,27.348z"/>
<path fill="#FEF3C4" d="M30.438,13.269c1.619-1.857,2.986-3.386,3.349-3.941c-0.092-0.016-0.182-0.03-0.271-0.042
	c-0.469,0.322-1.413,1.093-2.99,2.446C30.496,12.228,30.466,12.742,30.438,13.269z"/>
<path fill="#FEF3C4" d="M30.029,26.958c0.913-0.151,1.915-0.395,3.022-0.754c-0.937-0.307-1.928-0.631-3-0.98
	C30.043,25.796,30.036,26.374,30.029,26.958z"/>
<path fill="#424F57" d="M15.256,49.598c1.056,5.207,6.477,10.034,13.257,6.894c0.903-0.418,1.644-0.468,2.304-0.303
	c-0.186-2.052-0.348-4.573-0.477-7.451C24.565,46.265,23.95,55.699,15.256,49.598z"/>
<path fill="#424F57" d="M6.951,37.207c-1.151,2.572,4.061,2.427,4.061-0.053C11.011,34.858,7.889,35.111,6.951,37.207z"/>
<path fill="#424F57" d="M17.785,39.712c0,1.997,1.177,3.276,2.796,3.897c-0.145-2.212-0.337-5.196-0.664-8.046
	C18.651,36.513,17.785,37.904,17.785,39.712z"/>
<path fill="#424F57" d="M29.932,38.711c0-4.116-4.471-5.361-7.988-4.193c-0.268,4.314-0.467,7.33-0.621,9.318
	C24.909,44.724,29.932,42.841,29.932,38.711z"/>
<path fill="#424F57" d="M26.879,14.905c1.477-1.298,2.68-2.345,3.646-3.174c0.043-0.712,0.09-1.393,0.137-2.038
	C28.52,10.59,26.92,12.702,26.879,14.905z"/>
<path fill="#424F57" d="M29.45,27.05c-1.824-0.311-3.475-0.525-4.723-0.566C25.829,27.057,27.379,27.313,29.45,27.05z"/>
<path fill="#424F57" d="M27.754,17.681c-0.386-0.013-0.752,0.025-1.104,0.093c-2.16,2.732-3.699,5.14-2.607,5.495
	c2.208,0.718,4.205,1.367,6.008,1.955c0.006-0.391,0.014-0.778,0.02-1.163c-0.227-0.316-0.318-0.814-0.195-1.606
	c0.076,0.066,0.149,0.107,0.225,0.165c0.076-3.434,0.191-6.591,0.338-9.351c-1.003,1.15-2.1,2.423-3.114,3.668
	C27.443,17.188,27.582,17.438,27.754,17.681z"/>
<path fill="#FEF3C4" d="M29.45,27.05c0.191,0.032,0.383,0.065,0.576,0.101c0.002-0.064,0.002-0.128,0.003-0.192
	C29.834,26.99,29.637,27.026,29.45,27.05z"/>
<path fill="#6E8189" d="M27.324,16.937c1.015-1.245,2.111-2.518,3.114-3.668c0.028-0.526,0.058-1.041,0.088-1.537
	c-0.967,0.829-2.17,1.876-3.646,3.174c-1.643,1.442-3.617,3.188-5.984,5.29c-1.603,1.423-13.411-25.3-3.522,1.298
	c1.517,4.077-24.08,9.497-0.683,5.181c1.738-0.32,2.674,4.092,3.227,8.89c0.327,2.85,0.52,5.834,0.664,8.046
	c0.244,3.727,0.352,5.252,0.742,0.227c0.154-1.988,0.354-5.004,0.621-9.318c0.134-2.134,0.283-4.583,0.455-7.386
	c0.031-0.519,0.924-0.694,2.328-0.648c1.248,0.041,2.898,0.256,4.723,0.566c0.191,0.032,0.383,0.065,0.576,0.101
	c0.002-0.064,0.002-0.128,0.003-0.192c0.007-0.584,0.015-1.162,0.022-1.734c-1.803-0.588-3.8-1.237-6.008-1.955
	c-1.092-0.355,0.447-2.763,2.607-5.495C26.87,17.497,27.094,17.218,27.324,16.937z"/>
<path fill-rule="evenodd" clip-rule="evenodd" fill="#FEF3C4" d="M54.133,43.7c1.594,2.109-23.857,15.623-0.576,3.793
	c1.793-0.91-15.186,20.618,2.59,0.344c5.141-5.862,6.41-24.856,1.291-5.453C56.373,46.416,38.672,23.218,54.133,43.7z"/>
<path opacity="0.1" fill="#302C3B" d="M16.788,48.213C5.352,36.778,5.084,18.415,15.969,6.647C7.577,11.966,2,21.329,2,32
	c0,16.568,13.432,30,30,30c8.71,0,16.55-3.717,22.033-9.646C42.436,59.702,26.901,58.327,16.788,48.213z"/>
</svg>
