<?xml version="1.0" encoding="utf-8"?>
<!-- Generator: Adobe Illustrator 15.0.0, SVG Export Plug-In . SVG Version: 6.00 Build 0)  -->
<!DOCTYPE svg PUBLIC "-//W3C//DTD SVG 1.1//EN" "http://www.w3.org/Graphics/SVG/1.1/DTD/svg11.dtd">
<svg version="1.1" id="Layer_1" xmlns="http://www.w3.org/2000/svg" xmlns:xlink="http://www.w3.org/1999/xlink" x="0px" y="0px"
	 width="64px" height="64px" viewBox="0 0 64 64" enable-background="new 0 0 64 64" xml:space="preserve">
<circle fill-rule="evenodd" clip-rule="evenodd" fill="#4E5E67" cx="32" cy="32" r="30"/>
<path fill-rule="evenodd" clip-rule="evenodd" fill="#424F57" d="M43.494,49.848c-5.648,1.65,9.158,5.996,2.854,5.697
	c-9.76-0.465-16.75-2.861-5.5,3.148c-7.351,3.15-7.7-4.35-12.335-2.203c-6.78,3.141-12.201-1.686-13.258-6.893
	c9.668,6.785,9.342-5.65,17.234,0.449C35.848,41.996,50.698,47.74,43.494,49.848z"/>
<path fill-rule="evenodd" clip-rule="evenodd" fill="#424F57" d="M41.069,5.004c1.487,1.795-3.05,2.059-3.601,0
	C37.057,3.459,40.049,3.773,41.069,5.004z"/>
<path fill-rule="evenodd" clip-rule="evenodd" fill="#424F57" d="M11.012,37.154c0,2.479-5.213,2.625-4.061,0.053
	C7.891,35.111,11.012,34.857,11.012,37.154z"/>
<path fill-rule="evenodd" clip-rule="evenodd" fill="#424F57" d="M29.934,38.711c0,6.42-12.148,7.422-12.148,1
	C17.785,32.928,29.934,31.928,29.934,38.711z"/>
<path fill-rule="evenodd" clip-rule="evenodd" fill="#424F57" d="M59.75,20.58c-1.839-4.881-5.576-9.58-9.706-12.551
	c3.404,3.871,4.704,6.871,4.704,6.871c-11.25-12.451-24.25,8.85-18.049-4.15c-5.301-4.551-12.301,2.199-8.945,6.93
	c-7.1-0.23-8.806,14.07,6.895,7.955c-0.438-2.672-5.406,0.891-4.773-3.182c3.133,2.701,5.282-2.262,6.895,1.061
	c2.354,4.848-6.158,7.061-2.651,11.139c2.681-7.861,6.933,2.973,1.061,4.242c3.562,3.424,7.239-2.361,6.363-5.303
	c1.714,1.195,3.757,3.4,5.833,2.65c1.354,12.617,13.039,1.369,9.546-6.363c-1.452-3.213-7.841-9.299-3.182-12.199
	c2.08,3.047,1.484,7.721,5.303,10.076C60.366,25.48,53.823,13.699,59.75,20.58z M41.861,26.791c0-2.398,3.862-2.592,4.537,1.158
	C46.824,30.311,41.861,29.191,41.861,26.791z M40.746,16.842c1.395-5.574,6.629-2.992,7.723,1.732
	C49.281,22.082,39.619,21.35,40.746,16.842z"/>
<path fill-rule="evenodd" clip-rule="evenodd" fill="#6E8189" d="M24.045,23.268c-3.934-1.277,26.208-29.137-3.15-3.072
	c-1.602,1.422-13.41-25.301-3.521,1.297c1.516,4.078-24.08,9.498-0.683,5.182c5.538-1.021,2.935,46.018,5.708,0.457
	C22.637,23.232,71.217,38.598,24.045,23.268z"/>
<path opacity="0.2" fill="#302C3B" d="M16.787,48.213C5.354,36.777,5.084,18.414,15.969,6.646C7.576,11.965,2,21.328,2,32
	c0,16.568,13.432,30,30,30c8.711,0,16.553-3.717,22.033-9.646C42.436,59.701,26.9,58.326,16.787,48.213z"/>
<path fill-rule="evenodd" clip-rule="evenodd" fill="#6E8189" d="M54.134,43.699c1.594,2.109-23.858,15.623-0.575,3.793
	c1.793-0.91-15.187,20.619,2.59,0.344c5.14-5.861,6.408-24.855,1.289-5.453C56.375,46.416,38.674,23.217,54.134,43.699z"/>
</svg>
