<?xml version="1.0" encoding="utf-8"?>
<!-- Generator: Adobe Illustrator 15.0.0, SVG Export Plug-In . SVG Version: 6.00 Build 0)  -->
<!DOCTYPE svg PUBLIC "-//W3C//DTD SVG 1.1//EN" "http://www.w3.org/Graphics/SVG/1.1/DTD/svg11.dtd">
<svg version="1.1" id="Layer_1" xmlns="http://www.w3.org/2000/svg" xmlns:xlink="http://www.w3.org/1999/xlink" x="0px" y="0px"
	 width="64px" height="64px" viewBox="0 0 64 64" enable-background="new 0 0 64 64" xml:space="preserve">
<path fill="#F9C802" d="M50.184,36.872L62,31.999l-11.816-4.873l7.797-10.127l-12.67,1.688l1.688-12.668l-10.127,7.797L31.998,2
	l-4.871,11.815L16.998,6.02l1.689,12.668l-12.67-1.687l7.797,10.126L2,32.001l11.814,4.871L6.02,47.001l12.668-1.689L17,57.981
	l10.127-7.798L32,62l4.873-11.816L47,57.98l-1.688-12.669l12.668,1.688L50.184,36.872z"/>
<path fill="#F9B700" d="M13,32c0,10.493,8.504,19,18.998,19c10.492,0,19-8.507,19-19c0-10.492-8.508-19-19-19
	C21.504,13,13,21.508,13,32z"/>
<path fill="#F9C802" d="M16.531,34.014c0-9.254,7.502-16.759,16.758-16.759c3.389,0,6.539,1.007,9.174,2.737
	c1.451,0.951,1.705,0.215,0.271-1.079c-2.969-2.676-6.898-4.305-11.209-4.305c-9.256,0-16.758,7.504-16.758,16.759
	c0,2.162,0.41,4.228,1.156,6.124c0.637,1.614,1.289,1.529,0.957-0.062C16.652,36.326,16.531,35.185,16.531,34.014z"/>
<path fill="#FFE12C" d="M38.406,13.497l7.926-6.298C46.332,7.199,40.645,14.789,38.406,13.497z"/>
<path fill="#FFE12C" d="M46.814,19.182l10.012-1.491C56.826,17.69,48.105,21.419,46.814,19.182z"/>
<path fill="#FFE12C" d="M12.754,28.309l-9.416,3.715C3.338,32.023,12.754,30.892,12.754,28.309z"/>
<path fill="#FFE12C" d="M13.473,25.623l-6.297-7.926C7.176,17.697,14.764,23.386,13.473,25.623z"/>
<path fill="#FFE12C" d="M13.479,38.432L7.18,46.357C7.18,46.357,14.77,40.669,13.479,38.432z"/>
<path fill="#FFE12C" d="M19.158,17.216L17.666,7.203C17.666,7.203,21.395,15.924,19.158,17.216z"/>
<path fill="#FFE12C" d="M19.164,46.839l-1.492,10.013C17.672,56.852,21.4,48.131,19.164,46.839z"/>
<path fill="#FFE12C" d="M28.285,12.777L32,3.36C32,3.36,30.867,12.777,28.285,12.777z"/>
<path fill="#F9B700" d="M38.414,50.558l7.926,6.298C46.34,56.855,40.65,49.266,38.414,50.558z"/>
<path fill="#F9B700" d="M46.818,44.873l10.014,1.491C56.832,46.364,48.109,42.636,46.818,44.873z"/>
<path fill="#F9B700" d="M51.254,35.746l9.416-3.715C60.67,32.031,51.254,33.163,51.254,35.746z"/>
<path fill="#F9B700" d="M35.721,51.277l-3.715,9.417C32.006,60.694,33.139,51.277,35.721,51.277z"/>
<path fill="#D47706" d="M37.184,43.104c-0.654,2.916-9.551,2.916-10.204,0C29.72,44.271,34.441,44.271,37.184,43.104z"/>
<path fill="#45332C" d="M32.08,40.201c0,0,4.721,0.488,8.02-0.818c-2.204,2.292-5.537,1.138-6.397,2.028
	c-0.945,0.979-2.296,0.984-3.241,0.004c-0.86-0.891-4.193,0.264-6.397-2.028C27.363,40.693,32.08,40.201,32.08,40.201z"/>
<path fill="#D47706" d="M32.08,39.358v-0.004c2.301-1.98,4.721,1.335,8.02,0.028c-2.204,2.292-5.537,0.416-6.397,1.307
	c-0.945,0.979-2.296,0.983-3.241,0.004c-0.86-0.891-4.193,0.985-6.397-1.307C27.363,40.693,29.782,37.379,32.08,39.358z"/>
<path fill="#D47706" d="M24.258,38.336c0.951,0.913-0.004,2.268-1.146,1.746C23.93,39.551,24.093,39.359,24.258,38.336z"/>
<path fill="#D47706" d="M39.904,38.336c-0.951,0.913,0.004,2.268,1.146,1.746C40.232,39.551,40.069,39.359,39.904,38.336z"/>
<path fill="#45332C" d="M36.607,35.083c-1.445,2.292-2.172,1.138-2.735,2.029c-0.647,1.023-2.933,1.027-3.582,0.004
	c-0.563-0.891-1.29,0.263-2.735-2.029C29.67,36.365,34.475,36.373,36.607,35.083z"/>
<path fill="#D47706" d="M30.031,34.73c0.537,0.535,1.293,0.805,2.049,0.807c0.758-0.002,1.514-0.271,2.051-0.807
	c0,0,0.852,1.333,2.477,0.353c-1.445,2.292-2.172,0.417-2.735,1.307c-0.323,0.512-1.058,0.77-1.792,0.771
	c-0.733-0.001-1.466-0.259-1.79-0.771c-0.563-0.89-1.29,0.985-2.735-1.307C29.18,36.063,30.031,34.73,30.031,34.73z"/>
<path fill="#F5F5F5" d="M17.476,28.613c1.891,4.924,9.583,4.2,10.991,0.757C27.396,23.835,18.516,23.36,17.476,28.613z"/>
<path fill="#45332C" d="M26.505,28.087c0,4.344-6.281,4.344-6.281,0C20.224,24.056,26.505,24.056,26.505,28.087z"/>
<path fill="#45332C" d="M17.476,28.576c0-5.287,10.991-5.287,10.991,0.837C26.897,24.389,19.047,24.389,17.476,28.576z"/>
<path fill="#F5F5F5" d="M46.525,28.613c-1.893,4.924-9.584,4.2-10.992,0.757C36.604,23.835,45.484,23.36,46.525,28.613z"/>
<path fill="#45332C" d="M37.496,28.087c0,4.344,6.281,4.344,6.281,0C43.777,24.056,37.496,24.056,37.496,28.087z"/>
<path fill="#45332C" d="M46.525,28.576c0-5.286-10.992-5.286-10.992,0.836C37.102,24.389,44.955,24.389,46.525,28.576z"/>
<g>
	<path fill="#FFFFFF" d="M22.377,27.144c0,1.15-1.57,1.15-1.57,0C20.807,25.991,22.377,25.991,22.377,27.144z"/>
</g>
<g>
	<path fill="#FFFFFF" d="M39.65,27.144c0,1.15-1.57,1.15-1.57,0C38.08,25.991,39.65,25.991,39.65,27.144z"/>
</g>
<path opacity="0.5" fill="#F59E01" d="M30.731,49.1c10.144,0,18.366-8.223,18.366-18.366c0-7.156-4.095-13.353-10.068-16.384
	c7.012,2.796,11.969,9.643,11.969,17.65c0,10.493-8.507,19-19,19c-8.008,0-14.854-4.958-17.65-11.969
	C17.379,45.004,23.575,49.1,30.731,49.1z"/>
</svg>
