<?xml version="1.0" encoding="utf-8"?>
<!-- Generator: Adobe Illustrator 15.0.0, SVG Export Plug-In . SVG Version: 6.00 Build 0)  -->
<!DOCTYPE svg PUBLIC "-//W3C//DTD SVG 1.1//EN" "http://www.w3.org/Graphics/SVG/1.1/DTD/svg11.dtd">
<svg version="1.1" id="Layer_1" xmlns="http://www.w3.org/2000/svg" xmlns:xlink="http://www.w3.org/1999/xlink" x="0px" y="0px"
	 width="64px" height="64px" viewBox="0 0 64 64" enable-background="new 0 0 64 64" xml:space="preserve">
<path fill="#006DAE" d="M32,2C15.459,2,2,15.459,2,32c0,16.543,13.459,30,30,30c16.543,0,30-13.457,30-30C62,15.459,48.543,2,32,2z
	 M52.047,48.205c-1.195-1.084-2.463-2.059-3.793-2.924c1.674-3.385,2.703-7.074,3.012-10.859h6.41
	C57.189,39.613,55.158,44.363,52.047,48.205z M6.326,34.422h6.297c0.311,3.803,1.35,7.514,3.039,10.914
	c-1.299,0.852-2.539,1.809-3.709,2.869C8.842,44.363,6.811,39.613,6.326,34.422z M11.953,15.797c1.17,1.061,2.41,2.018,3.709,2.867
	c-1.783,3.588-2.842,7.52-3.084,11.547H6.273C6.648,24.773,8.717,19.793,11.953,15.797z M29.895,9.559v9.648
	c-2.926-0.234-5.746-0.955-8.367-2.125C23.717,14.012,26.568,11.428,29.895,9.559z M29.895,23.428v6.783H16.797
	c0.234-3.359,1.127-6.57,2.557-9.488C22.637,22.254,26.193,23.176,29.895,23.428z M29.895,34.422v6.15
	c-3.713,0.256-7.281,1.182-10.574,2.723c-1.326-2.732-2.182-5.727-2.473-8.873H29.895z M29.895,44.795v9.668
	c-3.363-1.867-6.225-4.447-8.412-7.523C24.117,45.758,26.951,45.029,29.895,44.795z M34.105,54.375v-9.58
	c2.895,0.23,5.682,0.938,8.277,2.084C40.215,49.93,37.395,52.502,34.105,54.375z M34.105,40.572v-6.15h12.934
	c-0.297,3.111-1.156,6.088-2.488,8.813C41.295,41.729,37.771,40.824,34.105,40.572z M34.105,30.211v-6.783
	c3.666-0.25,7.193-1.156,10.451-2.662c1.418,2.906,2.301,6.102,2.535,9.445H34.105z M34.105,19.207V9.623
	c3.293,1.873,6.113,4.445,8.283,7.496C39.791,18.268,37.002,18.975,34.105,19.207z M44.533,12.967
	c-1.984-2.404-4.328-4.471-6.918-6.139c4.357,0.971,8.301,3.049,11.523,5.92c-0.953,0.857-1.961,1.637-3.016,2.334
	C45.627,14.355,45.096,13.648,44.533,12.967z M19.355,12.967c-0.549,0.666-1.068,1.354-1.555,2.063
	c-1.027-0.684-2.008-1.445-2.939-2.281c3.182-2.834,7.064-4.896,11.355-5.883C23.648,8.525,21.326,10.58,19.355,12.967z
	 M17.801,48.971c0.408,0.594,0.838,1.174,1.291,1.738c2.021,2.521,4.439,4.689,7.129,6.428c-4.291-0.986-8.178-3.047-11.359-5.883
	C15.793,50.416,16.775,49.654,17.801,48.971z M44.574,50.984c0.547-0.666,1.064-1.355,1.551-2.064
	c1.053,0.697,2.061,1.477,3.014,2.334c-3.223,2.871-7.166,4.947-11.523,5.92C40.225,55.494,42.58,53.41,44.574,50.984z
	 M51.311,30.211c-0.24-4.008-1.289-7.92-3.057-11.492c1.33-0.863,2.598-1.838,3.793-2.922c3.238,3.996,5.305,8.977,5.68,14.414
	H51.311z"/>
<path fill="#014D87" d="M52.7,10.298C57.839,15.683,61,22.971,61,31c0,16.57-13.428,30-30,30c-8.027,0-15.315-3.162-20.701-8.301
	C15.764,58.426,23.464,62,32,62c16.572,0,30-13.43,30-30C62,23.462,58.427,15.762,52.7,10.298z"/>
<path fill="#018BC9" d="M33,3c8.031,0,15.316,3.161,20.7,8.298C48.238,5.573,40.539,2,32,2C15.438,2,2,15.436,2,32
	c0,8.538,3.574,16.236,9.299,21.699C6.162,48.315,3,41.029,3,33C3,16.436,16.438,3,33,3z"/>
</svg>
