<?xml version="1.0" encoding="utf-8"?>
<!-- Generator: Adobe Illustrator 15.0.0, SVG Export Plug-In . SVG Version: 6.00 Build 0)  -->
<!DOCTYPE svg PUBLIC "-//W3C//DTD SVG 1.1//EN" "http://www.w3.org/Graphics/SVG/1.1/DTD/svg11.dtd">
<svg version="1.1" id="Layer_1" xmlns="http://www.w3.org/2000/svg" xmlns:xlink="http://www.w3.org/1999/xlink" x="0px" y="0px"
	 width="64px" height="64px" viewBox="0 0 64 64" enable-background="new 0 0 64 64" xml:space="preserve">
<circle fill-rule="evenodd" clip-rule="evenodd" fill="#FEEC9A" cx="32" cy="32" r="30"/>
<path fill-rule="evenodd" clip-rule="evenodd" fill="#FAE485" d="M43.494,49.847c-5.648,1.652,9.158,5.998,2.855,5.698
	c-9.76-0.464-16.75-2.861-5.5,3.149c-7.352,3.15-7.701-4.35-12.336-2.202c-6.779,3.141-12.201-1.687-13.258-6.895
	c9.668,6.785,9.342-5.651,17.234,0.451C35.848,41.997,50.699,47.741,43.494,49.847z"/>
<path fill-rule="evenodd" clip-rule="evenodd" fill="#FAE485" d="M41.07,5.005c1.486,1.795-3.051,2.059-3.602,0
	C37.057,3.459,40.049,3.773,41.07,5.005z"/>
<path fill-rule="evenodd" clip-rule="evenodd" fill="#FAE485" d="M11.014,37.154c0,2.479-5.213,2.625-4.063,0.053
	C7.891,35.112,11.014,34.859,11.014,37.154z"/>
<path fill-rule="evenodd" clip-rule="evenodd" fill="#FAE485" d="M29.934,38.711c0,6.421-12.148,7.422-12.148,1.001
	C17.785,32.928,29.934,31.928,29.934,38.711z"/>
<path fill-rule="evenodd" clip-rule="evenodd" fill="#FAE485" d="M59.75,20.58C57.912,15.7,54.174,11,50.045,8.03
	c3.404,3.87,4.703,6.87,4.703,6.87c-11.25-12.45-24.25,8.85-18.049-4.149c-5.301-4.551-12.301,2.2-8.945,6.93
	c-7.1-0.23-8.805,14.069,6.895,7.955c-0.438-2.673-5.406,0.89-4.773-3.181c3.133,2.699,5.283-2.263,6.895,1.06
	c2.354,4.848-6.158,7.061-2.65,11.138c2.68-7.86,6.932,2.973,1.061,4.242c3.563,3.424,7.24-2.36,6.363-5.303
	c1.713,1.197,3.756,3.402,5.832,2.651c1.354,12.618,13.039,1.368,9.547-6.364c-1.453-3.214-7.842-9.297-3.18-12.198
	c2.078,3.046,1.482,7.72,5.301,10.076C60.367,25.48,53.824,13.701,59.75,20.58z M41.861,26.792c0-2.399,3.863-2.593,4.537,1.159
	C46.824,30.313,41.861,29.192,41.861,26.792z M40.746,16.842c1.395-5.575,6.629-2.992,7.723,1.734
	C49.281,22.082,39.619,21.35,40.746,16.842z"/>
<path fill-rule="evenodd" clip-rule="evenodd" fill="#FEF3C4" d="M24.045,23.269c-3.932-1.278,26.209-29.138-3.15-3.072
	c-1.602,1.422-13.41-25.301-3.52,1.297c1.514,4.077-24.082,9.497-0.684,5.181c5.537-1.021,2.934,46.018,5.707,0.457
	C22.637,23.233,71.217,38.599,24.045,23.269z"/>
<path fill-rule="evenodd" clip-rule="evenodd" fill="#FEF3C4" d="M54.137,43.701c1.592,2.108-23.861,15.622-0.578,3.792
	c1.793-0.91-15.186,20.618,2.592,0.343c5.139-5.861,6.406-24.855,1.287-5.452C56.375,46.416,38.676,23.218,54.137,43.701z"/>
<path fill="#E5BC5E" d="M24.316,49.862c0.97,4.322,14.158,4.322,15.127,0C35.381,51.591,28.381,51.591,24.316,49.862z"/>
<path fill="#45332C" d="M31.881,45.558c0,0-6.996,0.726-11.887-1.212c3.268,3.397,8.209,1.687,9.483,3.007
	c1.401,1.452,3.404,1.459,4.806,0.007c1.274-1.321,6.215,0.391,9.482-3.008C38.875,46.289,31.881,45.558,31.881,45.558z"/>
<path fill="#E5BC5E" d="M31.881,44.31v-0.006c-3.41-2.936-6.996,1.979-11.887,0.042c3.268,3.397,8.209,0.616,9.483,1.938
	c1.401,1.452,3.404,1.458,4.806,0.006c1.274-1.321,6.215,1.461,9.482-1.938C38.875,46.289,35.289,41.374,31.881,44.31z"/>
<path fill="#E5BC5E" d="M43.479,42.794c-1.411,1.354,0.005,3.362,1.697,2.589C43.965,44.595,43.722,44.312,43.479,42.794z"/>
<path fill="#E5BC5E" d="M20.283,42.794c1.41,1.354-0.006,3.362-1.698,2.589C19.796,44.595,20.039,44.312,20.283,42.794z"/>
<path fill="#45332C" d="M25.172,37.972c2.142,3.398,3.218,1.687,4.054,3.008c0.96,1.519,4.349,1.524,5.31,0.006
	c0.836-1.32,1.912,0.391,4.055-3.007C35.455,39.873,28.332,39.884,25.172,37.972z"/>
<path fill="#E5BC5E" d="M34.92,37.448c-0.797,0.795-1.918,1.194-3.039,1.195c-1.122-0.001-2.242-0.4-3.039-1.195
	c0,0-1.263,1.977-3.67,0.523c2.142,3.398,3.218,0.617,4.054,1.938c0.479,0.759,1.567,1.141,2.655,1.143
	c1.088-0.002,2.174-0.384,2.654-1.143c0.836-1.32,1.912,1.461,4.055-1.938C36.182,39.425,34.92,37.448,34.92,37.448z"/>
<path fill="#F5F5F5" d="M53.531,28.381c-2.803,7.3-14.205,6.229-16.294,1.123C38.824,21.299,51.99,20.596,53.531,28.381z"/>
<path fill="#45332C" d="M40.146,27.602c0,6.439,9.312,6.439,9.312,0C49.458,21.625,40.146,21.625,40.146,27.602z"/>
<path fill="#45332C" d="M53.531,28.326c0-7.838-16.294-7.838-16.294,1.241C39.564,22.119,51.203,22.119,53.531,28.326z"/>
<path fill="#F5F5F5" d="M10.469,28.381c2.805,7.3,14.206,6.229,16.294,1.123C25.176,21.299,12.012,20.596,10.469,28.381z"/>
<path fill="#45332C" d="M23.854,27.602c0,6.439-9.312,6.439-9.312,0C14.542,21.625,23.854,21.625,23.854,27.602z"/>
<path fill="#45332C" d="M10.469,28.326c0-7.837,16.294-7.837,16.294,1.239C24.438,22.119,12.797,22.119,10.469,28.326z"/>
<g>
	<path fill="#FFFFFF" d="M46.266,26.203c0,1.705,2.327,1.705,2.327,0C48.593,24.495,46.266,24.495,46.266,26.203z"/>
</g>
<g>
	<path fill="#FFFFFF" d="M20.66,26.203c0,1.705,2.328,1.705,2.328,0C22.988,24.495,20.66,24.495,20.66,26.203z"/>
</g>
<path opacity="0.1" fill="#302C3B" d="M34,59C17.983,59,5,46.017,5,30C5,18.7,11.467,8.917,20.897,4.131C9.827,8.546,2,19.355,2,32
	c0,16.568,13.432,30,30,30c12.645,0,23.455-7.828,27.869-18.898C55.083,52.532,45.3,59,34,59z"/>
</svg>
