<?xml version="1.0" encoding="utf-8"?>
<!-- Generator: Adobe Illustrator 15.0.0, SVG Export Plug-In . SVG Version: 6.00 Build 0)  -->
<!DOCTYPE svg PUBLIC "-//W3C//DTD SVG 1.1//EN" "http://www.w3.org/Graphics/SVG/1.1/DTD/svg11.dtd">
<svg version="1.1" id="Layer_1" xmlns="http://www.w3.org/2000/svg" xmlns:xlink="http://www.w3.org/1999/xlink" x="0px" y="0px"
	 width="64px" height="64px" viewBox="0 0 64 64" enable-background="new 0 0 64 64" xml:space="preserve">
<path fill="#6E8189" d="M4.334,11.124c0,19.886,15.191,49.923,22.744,49.923c9.739,0,2.068-19.641,2.068-19.641L59.38,29.516
	C63.92,2.46,4.334-3.645,4.334,11.124z"/>
<path fill="#BEC3CF" d="M58.109,17.65C73.394,22.429,40.825-3.402,9.534,3.038c-9.124,1.878-5.967,9.89-5.967,9.89
	c-2.145,3.003-2.018,7.212-0.048,10.305c1.682,2.64-0.011,7.055,4.857,12.067c0.767,0.789-2.07,5.154,3.595,9.35
	c1.235,0.915,3.169,2.43,2.681,4.7c-0.608,2.827,4.987,5.43,5.974,8.551c2.066,6.54,10.126,4.564,13.818-1.084
	c0,0-1.308,0.393-1.75-0.488c4.06-2.04,4.725-7.31-0.575-7.813c4.751-4.116,2.557-9.545,9.641-10.751
	c5.744-0.978,6.745-3.43,6.745-3.43C56.303,34.373,67.316,29.112,58.109,17.65z M6.866,21.175c-0.749-1.437-1.578-3.384-0.984-5.002
	c1.279,1.339,2.739,2.489,4.245,3.561C8.968,20.035,7.843,20.465,6.866,21.175z M8.964,29.495c2.19,2.464,4.852,2.989,4.852,2.989
	C11.898,33.414,9.367,33.847,8.964,29.495z M15.055,46.108c0,0,1.405,0.033,1.434,0.396C16.693,49.194,15.055,46.108,15.055,46.108z
	 M12.634,38.394c3.238,1.847,6.795,3.135,10.427,3.936C10.268,43.996,11.07,37.502,12.634,38.394z M25.302,47.771
	c0,0-2.611,0.727-4.841,0.173C22.01,46.363,25.302,47.771,25.302,47.771z M21.808,53.063c-0.001,0.002,0,0.003-0.002,0.004
	c-0.001,0.001-0.001,0-0.002,0.002c-0.8,1.205-2.837-1.08-2.803-2.057c0.072-2.049,5.927-0.363,5.927-0.363
	S22.541,51.957,21.808,53.063z M24.546,57.797c1.649,0.025,3.303-0.1,4.925-0.413C28.466,58.555,26.615,60.148,24.546,57.797z
	 M27.011,53.644c2.658-1.247,4.425-1.162,4.425-1.162S29.432,54.083,27.011,53.644z M15.862,35.521
	c5.263-2.617,9.915,1.297,17.644,3.123C30.583,39.413,20.57,39.169,15.862,35.521z M27.694,32.872c0,0,7.075,0.535,5.805-0.696
	c-4.268-4.141-18.641,1.687-24.52-8.028c2.687-2.419,5.808-1.362,8.468,0.143c-4.884,3.136,0.385,1.134,3.221,1.745
	c4.951,1.066,14.652,4.037,16.701,8.045C31.378,34.713,27.694,32.872,27.694,32.872z M40.962,33.367
	c0.608,0.511,3.203,0.062,3.203,0.062C42.662,34.326,40.257,35.997,40.962,33.367z M13.944,17.467
	C31.679,18.964,42.82,23.791,45.07,30.08C31.647,28.958,36.934,22.521,13.944,17.467z M55.906,29.6
	c-0.205-5.747-9.533-14.628-4.996-4.995c1.937,4.111-0.368,7.386-2.402,4.186c-9.821-15.451-30.343-9.518-39.229-14.847
	c8.854-4.324,43.668,7.99,34.829,3.954C18.39,6.156,6.681,12.559,6.682,9.734c0.002-5.285,17.496-8.284,40.919,2.014
	C18.83,6.092,15.886,9.124,20.708,9.611C55.913,13.169,61.904,23.697,55.906,29.6z"/>
<path fill="#FFFFFF" d="M30.329,13.477C7.88,8.979,6.141,8.694,27.212,14.278C55.48,21.77,46.196,16.655,30.329,13.477z"/>
<path fill="#FFFFFF" d="M20.455,22.678c-10.778-7.334-15.276-9.49-8.576-3.722c14.126,12.159,27.161,12.981,29.349,12.717
	C46.027,31.094,33.159,31.321,20.455,22.678z"/>
<path fill="#FFFFFF" d="M17.584,30.722c-9.303-5.465-13.041-6.225-6.963-1.443c12.814,10.075,22.931,8.344,24.392,7.45
	C38.214,34.763,28.548,37.161,17.584,30.722z"/>
<path fill="#FFFFFF" d="M20.723,39.368c-7.335-2.882-9.985-2.837-4.944,0.06c10.629,6.103,17.022,2.813,17.815,1.798
	C35.324,38.997,29.368,42.764,20.723,39.368z"/>
<path fill="#FFFFFF" d="M20.982,44.748c-6.075-1.384-8.099-0.526-3.677,0.791c8.002,2.386,12.298,0.921,13.129,0.323
	C32.355,44.48,28.139,46.378,20.982,44.748z"/>
<path fill="#FFFFFF" d="M27.768,49.328c7.689-2.85-3.014-1.51-4.272,0.368C23.037,50.38,26.765,49.699,27.768,49.328z"/>
<path fill="#FFFFFF" d="M28.306,52.666c7.188-2.121-2.648-1.562-3.916,0.072C23.928,53.332,27.369,52.942,28.306,52.666z"/>
<path fill="#FFFFFF" d="M24.942,55.26c-0.477,0.484,2.646,0.483,3.516,0.331C35.118,54.42,26.251,53.925,24.942,55.26z"/>
</svg>
