<?xml version="1.0" encoding="utf-8"?>
<!-- Generator: Adobe Illustrator 15.0.0, SVG Export Plug-In . SVG Version: 6.00 Build 0)  -->
<!DOCTYPE svg PUBLIC "-//W3C//DTD SVG 1.1//EN" "http://www.w3.org/Graphics/SVG/1.1/DTD/svg11.dtd">
<svg version="1.1" id="Layer_1" xmlns="http://www.w3.org/2000/svg" xmlns:xlink="http://www.w3.org/1999/xlink" x="0px" y="0px"
	 width="64px" height="64px" viewBox="0 0 64 64" enable-background="new 0 0 64 64" xml:space="preserve">
<path fill="#FEEC9A" d="M41.197,28.671c0,0,13.928-20.354,20.803-26.671C48.541,9.65,34.532,21.46,34.532,21.46L41.197,28.671z"/>
<path fill="#FEEC9A" d="M62,2C35.74,2,14.373,15.045,14.373,15.045l7.668,6.774C22.041,21.819,43.361,2,62,2z"/>
<path fill="#FEEC9A" d="M50.162,46.965c0,0,9.545-23.147,11.838-40.48c-4.043,13-18.039,34.629-18.039,34.629L50.162,46.965z"/>
<path fill="#FEEC9A" d="M9.791,36.75c0,0,3.75-10.849,12.25-18.766C7.958,27.507,2,42.274,2,42.274L9.791,36.75z"/>
<polygon fill="#F59E01" points="39.574,34.585 44.139,17.944 29.055,23.465 14.373,15.045 14.323,31.971 2,42.274 18.695,46.641 
	24.12,62 33.147,47.564 50.162,46.965 "/>
<polygon fill="#FFE463" points="36.167,35.579 39.578,23.142 28.305,27.268 17.329,20.975 17.293,33.625 8.081,41.326 20.561,44.59 
	24.615,56.07 31.363,45.281 44.081,44.833 "/>
</svg>
