<?xml version="1.0" encoding="utf-8"?>
<!-- Generator: Adobe Illustrator 15.0.0, SVG Export Plug-In . SVG Version: 6.00 Build 0)  -->
<!DOCTYPE svg PUBLIC "-//W3C//DTD SVG 1.1//EN" "http://www.w3.org/Graphics/SVG/1.1/DTD/svg11.dtd">
<svg version="1.1" id="Layer_1" xmlns="http://www.w3.org/2000/svg" xmlns:xlink="http://www.w3.org/1999/xlink" x="0px" y="0px"
	 width="64px" height="64px" viewBox="0 0 64 64" enable-background="new 0 0 64 64" xml:space="preserve">
<path fill="#E6EBEF" d="M37.916,46.226L41,10.236c0-10.982-18-10.982-18,0l3.085,35.989C24.197,47.876,23,50.294,23,52.997
	c0,4.973,4.03,9.004,9,9.004s9-4.031,9-9.004C41,50.294,39.802,47.876,37.916,46.226z"/>
<path fill="#CFD8DD" d="M23,52.997c0,4.973,4.03,9.004,9,9.004s9-4.031,9-9.004c0-2.703-1.197-5.121-3.085-6.771L41,10.236
	c0-10.982-18-10.982-18,0l3.084,35.989C24.198,47.876,23,50.294,23,52.997z M25.25,52.997c0-2.445,1.306-4.582,3.253-5.766
	l-1.902-37.225c0-6.366,10.799-6.366,10.799,0l-1.902,37.225c1.947,1.184,3.252,3.32,3.252,5.766c0,3.729-3.021,6.752-6.749,6.752
	S25.25,56.726,25.25,52.997z"/>
<path fill="#BEC3CF" d="M31.5,5.251c-2.855-0.209-5.899,1.376-5.899,4.756l1.902,37.225c-1.947,1.184-3.252,3.32-3.252,5.766
	c0,3.729,3.021,6.752,6.749,6.752c0.169,0,0.335-0.013,0.5-0.025c-3.493-0.256-6.249-3.168-6.249-6.727
	c0-2.445,1.305-4.582,3.252-5.766l-1.902-37.225C26.601,7.021,28.978,5.436,31.5,5.251z"/>
<path fill="#BEC3CF" d="M37.916,46.226L41,10.236c0-5.694-4.839-8.429-9.5-8.218c4.327,0.196,8.5,2.931,8.5,8.218l-3.084,35.989
	C38.802,47.876,40,50.294,40,52.997c0,4.803-3.765,8.717-8.5,8.979c0.167,0.009,0.331,0.025,0.5,0.025c4.97,0,9-4.031,9-9.004
	C41,50.294,39.802,47.876,37.916,46.226z"/>
<polygon fill="#E81C27" points="28.399,21.374 29.75,48.909 34.249,48.909 35.601,21.374 "/>
<circle fill="#E81C27" cx="32.001" cy="52.997" r="5.5"/>
<path fill-rule="evenodd" clip-rule="evenodd" fill="#F46C60" d="M28.101,53.124c0.562,0.734,1.18-1.665,1.939-3.855
	C30.532,47.858,26.413,50.915,28.101,53.124z"/>
<path fill="#B00505" d="M28.608,57.321c0.525,0.119,1.067,0.189,1.627,0.189c3.504,0,6.427-2.48,7.113-5.781
	c0.096,0.406,0.151,0.83,0.152,1.268c-0.001,3.037-2.463,5.498-5.502,5.5C30.718,58.495,29.545,58.054,28.608,57.321z"/>
<polygon fill-rule="evenodd" clip-rule="evenodd" fill="#F46C60" points="31.151,47.745 30.526,47.745 29.558,23.273 30.981,23.537 
	"/>
<path fill="#B00505" d="M33.432,21.356c0,0-0.228,19.325-0.228,25.764c0,1.281-0.75,1.93-0.4,1.887
	c1.355-0.168,1.488-0.98,1.488-0.98l1.309-26.67H33.432z"/>
<ellipse fill="#F46C60" cx="32" cy="21.374" rx="3.601" ry="1.206"/>
<path fill="#4E5E67" d="M31.052,28.181c-1.756,0.161-3.555,0.026-5.324-0.406c-0.039-0.502-0.078-1.005-0.119-1.507
	c1.791,0.446,3.615,0.59,5.397,0.435C31.022,27.195,31.037,27.688,31.052,28.181z"/>
<path fill="#4E5E67" d="M30.987,32.396c-1.621,0.147-3.279,0.033-4.915-0.345c-0.036-0.501-0.072-1.002-0.108-1.503
	c1.656,0.39,3.338,0.512,4.982,0.369C30.96,31.411,30.974,31.904,30.987,32.396z"/>
<path fill="#4E5E67" d="M30.892,36.616c-1.494,0.131-3.023,0.031-4.535-0.302c-0.033-0.501-0.066-1.001-0.1-1.501
	c1.531,0.344,3.082,0.45,4.6,0.323C30.868,35.63,30.88,36.123,30.892,36.616z"/>
<path fill="#4E5E67" d="M30.818,40.833c-1.293,0.111-2.613,0.043-3.924-0.208c-0.027-0.499-0.056-0.997-0.084-1.495
	c1.329,0.258,2.669,0.332,3.982,0.223C30.802,39.847,30.81,40.34,30.818,40.833z"/>
<path fill="#4E5E67" d="M30.748,45.05c-1.144,0.097-2.311,0.047-3.472-0.153c-0.024-0.497-0.049-0.995-0.072-1.492
	c1.178,0.206,2.363,0.26,3.525,0.164C30.736,44.062,30.743,44.556,30.748,45.05z"/>
<path opacity="0.5" fill="#FFFFFF" d="M36.749,53.996c0-2.446-1.305-4.583-3.252-5.767l1.902-37.224
	c0-3.889-4.027-5.397-7.164-4.536c3.019-2.444,9.164-1.268,9.164,3.536l-1.902,37.224c1.947,1.184,3.252,3.32,3.252,5.767
	c0,3.047-2.02,5.621-4.792,6.461C35.646,58.229,36.749,56.243,36.749,53.996z"/>
</svg>
