<?xml version="1.0" encoding="utf-8"?>
<!-- Generator: Adobe Illustrator 15.0.0, SVG Export Plug-In . SVG Version: 6.00 Build 0)  -->
<!DOCTYPE svg PUBLIC "-//W3C//DTD SVG 1.1//EN" "http://www.w3.org/Graphics/SVG/1.1/DTD/svg11.dtd">
<svg version="1.1" id="Layer_1" xmlns="http://www.w3.org/2000/svg" xmlns:xlink="http://www.w3.org/1999/xlink" x="0px" y="0px"
	 width="64px" height="64px" viewBox="0 0 64 64" enable-background="new 0 0 64 64" xml:space="preserve">
<path fill="#FED0AC" d="M34.294,60.261C13.956,39.988,9.557,29.231,2.167,13.481C0.071,9.015,18.284,0.446,22.17,3.338
	c11.114,8.273,24.468,15.65,37.075,32.633C64.241,42.701,40.196,66.144,34.294,60.261z"/>
<path fill="#785647" d="M36.667,22.924c-11.862,8.486-7.977,33.179,0,37.628c6.32,3.523,23.333-5.46,24.174-16.06
	C61.495,36.245,57.163,27.757,36.667,22.924z"/>
<path fill="#B47D56" d="M51.247,53.703c0.217,2.463-4.899,3.943-4.568-0.079C46.853,51.529,51.02,51.089,51.247,53.703z"/>
<path fill="#B47D56" d="M38.692,55.817c0.217,2.464-4.898,3.942-4.568-0.079C34.298,53.643,38.465,53.202,38.692,55.817z"/>
<path fill="#B47D56" d="M45.03,56.465c0.217,2.465-4.467,3.858-4.137-0.163C41.19,52.729,44.675,52.387,45.03,56.465z"/>
<path fill="#B47D56" d="M55.896,50.058c0.219,2.464-3.998,3.638-3.666-0.386C52.403,47.577,55.669,47.441,55.896,50.058z"/>
<path fill="#B47D56" d="M60.399,44.188c0.217,2.463-4.073,4.018-3.741-0.002C56.833,42.09,60.172,41.57,60.399,44.188z"/>
<path fill="#A6E639" d="M29.267,37.028c0,0,18.537-14.856,27.593-4.412c3.549,4.691,3.209,8.24-0.348,6.89
	c-2.586-0.979,1.701,9.947-5.334,6.643c-3.797-1.781-2.047,9.166-7.625,4.787c-5.174-4.057-5.493,5.483-7.565,0.183
	c-0.903-2.308-8.167,4.373-6.317-4.026L29.267,37.028z"/>
<path fill="#FFFFFF" d="M30.962,32.289c1.68-2.718,15.716-8.32,23.383-2.221c2.894,1.549,1.352,6.904-1.327,5.885
	c-1.948-0.734,1.733,7.648-3.563,5.16c-2.86-1.342-2.298,7.248-6.497,3.949c-3.896-3.054-3.763,3.992-5.323,0
	c-0.681-1.738-7.954,3.877-5.641-2.168C32.937,40.429,29.1,35.3,30.962,32.289z"/>
<polygon fill="#B00505" points="41.804,30.898 33.585,30.274 33.585,25.243 42.596,25.243 "/>
<polygon fill="#E81C27" points="41.323,23.429 39.426,29.326 33.734,26.886 35.368,21.159 "/>
<polygon fill="#B00505" points="46.198,31.977 41.851,30.417 41.323,28.384 47.647,25.501 47.647,28.195 "/>
<polygon fill="#E81C27" points="47.647,25.501 46.067,30.417 41.323,28.384 42.687,23.612 "/>
<polygon fill="#C21413" points="36.747,30.462 35.112,36.57 30.423,33.347 32.008,29.048 "/>
<polygon fill="#B00505" points="41.218,36.849 36.001,34.979 35.368,32.539 42.957,29.08 42.957,32.311 "/>
<polygon fill="#E81C27" points="42.957,29.08 41.06,34.979 35.368,32.539 37.156,27.729 "/>
<path fill="#F9C802" d="M34.804,26.82c-2.958-0.115-10.542,9.059,1.724,11.707C33.928,34.669,32.96,30.41,34.804,26.82z"/>
<path fill="#F9C802" d="M44.833,33.838c-2.959-0.113-10.543,9.06,1.724,11.707C43.957,41.688,42.989,37.428,44.833,33.838z"/>
<path fill="#FFE12C" d="M30.841,33.645c-2.486,1.611-3.428,13.489,8.125,8.584C34.628,40.57,31.393,37.645,30.841,33.645z"/>
<path fill="#FFE12C" d="M46.965,27.236c2.741-1.123,12.999,4.895,2.378,11.591C50.468,34.311,49.923,29.977,46.965,27.236z"/>
<path fill="#F9C802" d="M43.655,28.917c2.74-1.123,12.998,4.894,2.378,11.591C47.158,35.992,46.612,31.658,43.655,28.917z"/>
<path fill="#FFE12C" d="M35.765,33.645c-1.006,2.791,5.414,12.818,11.65,1.904C42.96,36.862,38.618,36.494,35.765,33.645z"/>
<path fill="#FFE1BD" d="M35.565,61.134c-2.74-1.528-5.297-4.479-6.333-8.938c-1.751-7.537-2.647-25.509,6.333-27.151
	c18.928-1.696,27.211,9.113,26.377,19.646C61.197,54.078,47.618,62,39.483,62C37.913,62,36.595,61.709,35.565,61.134z
	 M31.378,51.672c0.935,4.029,2.403,6.98,4.784,8.309c0.844,0.471,1.962,0.708,3.321,0.708c7.506,0,20.521-7.527,21.201-16.106
	c0.77-9.699-6.901-18.912-23.182-18.818C28.097,26.884,29.715,44.513,31.378,51.672z"/>
<path fill="#D6A57C" d="M58.05,32.213c-7.229-6.294-12.141-7.346-35.562-3.133C16.006,30.246,2.364,11.464,4.439,9.093
	c2.589-2.959,14.06-7.612,17.416-5.653C26.348,6.06,51.112,22.213,58.05,32.213z"/>
<path fill="#FED0AC" d="M58.05,32.289c-5.68-7.104-17.271-8.677-35.877-4.961C19.577,27.847,2.537,10.906,4.612,8.535
	c2.589-2.959,13.823-8.056,17.18-6.098C26.285,5.057,49.405,18.65,58.05,32.289z"/>
<path fill="#EBBB96" d="M21.988,34.832c1.692-1.449,2.079,6.047,0,5.272C19.011,38.993,20.325,36.255,21.988,34.832z"/>
<path fill="#EBBB96" d="M15.07,7.935c1.604,0.382-2.636,3.937-3.101,2.338C11.303,7.984,13.496,7.564,15.07,7.935z"/>
<path fill="#EBBB96" d="M34.501,18c-0.866-1.418,4.609-0.897,3.823,0.568C37.197,20.664,35.354,19.39,34.501,18z"/>
<path fill="#EBBB96" d="M20.891,17.497c1.097-0.941,1.349,3.919,0,3.416C18.959,20.194,19.813,18.418,20.891,17.497z"/>
<path fill="#EBBB96" d="M27.092,9.734c1.04,0.247-1.71,2.552-2.012,1.515C24.65,9.767,26.074,9.492,27.092,9.734z"/>
<path fill="#EBBB96" d="M15.491,31.162c-0.562-0.922,2.991-0.583,2.478,0.368C17.24,32.89,16.043,32.062,15.491,31.162z"/>
</svg>
