<?xml version="1.0" encoding="utf-8"?>
<!-- Generator: Adobe Illustrator 15.0.0, SVG Export Plug-In . SVG Version: 6.00 Build 0)  -->
<!DOCTYPE svg PUBLIC "-//W3C//DTD SVG 1.1//EN" "http://www.w3.org/Graphics/SVG/1.1/DTD/svg11.dtd">
<svg version="1.1" id="Layer_1" xmlns="http://www.w3.org/2000/svg" xmlns:xlink="http://www.w3.org/1999/xlink" x="0px" y="0px"
	 width="64px" height="64px" viewBox="0 0 64 64" enable-background="new 0 0 64 64" xml:space="preserve">
<circle fill="#F9C802" cx="32.001" cy="32" r="14.001"/>
<g>
	<g>
		<path fill="#F9C802" d="M37.611,15.686L32.001,2L26.39,15.686c1.822-0.32,3.691-0.516,5.609-0.516
			C33.92,15.17,35.789,15.365,37.611,15.686z"/>
		<path fill="#F9C802" d="M26.39,48.316L32.001,62l5.61-13.684C35.789,48.635,33.92,48.83,32,48.83
			C30.082,48.83,28.212,48.635,26.39,48.316z"/>
	</g>
	<g>
		<path fill="#F9C802" d="M48.316,37.611L62,32.002l-13.684-5.611c0.32,1.822,0.516,3.691,0.516,5.609
			C48.832,33.92,48.637,35.789,48.316,37.611z"/>
		<path fill="#F9C802" d="M15.685,26.391L2,32.002l13.686,5.609c-0.32-1.822-0.516-3.691-0.516-5.611
			C15.169,30.082,15.365,28.213,15.685,26.391z"/>
	</g>
</g>
<g>
	<g>
		<path fill="#F9C802" d="M47.506,24.43l5.707-13.643L39.57,16.496c1.516,1.063,2.975,2.246,4.332,3.602
			C45.26,21.455,46.443,22.916,47.506,24.43z"/>
		<path fill="#F9C802" d="M16.496,39.568l-5.709,13.645l13.645-5.709c-1.516-1.063-2.975-2.246-4.332-3.604
			S17.558,41.084,16.496,39.568z"/>
	</g>
	<g>
		<path fill="#F9C802" d="M39.57,47.504l13.643,5.709l-5.707-13.645c-1.063,1.516-2.246,2.975-3.604,4.332
			S41.086,46.441,39.57,47.504z"/>
		<path fill="#F9C802" d="M24.431,16.496l-13.645-5.709l5.709,13.643c1.063-1.514,2.246-2.975,3.604-4.332
			C21.457,18.742,22.916,17.559,24.431,16.496z"/>
	</g>
</g>
<path fill="#FFFFFF" d="M29.998,54.641c-0.713,0-1.416-0.117-2.094-0.348c-2.732-0.922-4.57-3.516-4.57-6.455
	c0-1.963,0.834-3.83,2.285-5.123c0.375-0.336,0.783-0.625,1.219-0.865l-0.021-0.002l0.441-1.572c1.104-3.93,4.668-6.672,8.668-6.672
	c0.398,0,0.807,0.031,1.287,0.102c0.367,0.055,0.729,0.131,1.082,0.229l0.178-0.326c1.615-2.973,4.682-4.818,8.006-4.818
	c5.045,0,9.146,4.191,9.146,9.344c0,0.252-0.016,0.496-0.035,0.744l-0.016,0.182c0.391,0.152,0.77,0.336,1.137,0.553
	c2.439,1.436,3.955,4.109,3.955,6.975c0,3.773-2.516,7-6.117,7.844c-0.588,0.139-1.184,0.211-1.77,0.211H29.998z"/>
<path fill="#75D6FF" d="M46.479,30.15c4.316,0,7.813,3.574,7.813,7.982c0,0.215-0.014,0.424-0.029,0.633
	c-1.807,0.141-3.447,0.877-4.738,2.02c0.961-0.563,2.07-0.891,3.256-0.891c0.439,0,0.867,0.047,1.283,0.131
	c0.709,0.143,1.375,0.406,1.98,0.764c1.965,1.156,3.289,3.314,3.289,5.797c0,3.176-2.17,5.836-5.08,6.518
	c-0.475,0.111-0.965,0.176-1.473,0.176l0,0H29.998h-0.002c-0.584,0-1.145-0.1-1.67-0.277c-2.125-0.717-3.658-2.758-3.658-5.164
	c0-1.639,0.709-3.102,1.828-4.1c0.508-0.453,1.098-0.807,1.746-1.037c0.549-0.195,1.139-0.309,1.756-0.309
	c1.717,0,3.243,0.834,4.217,2.123h0.049c-1.133-2.127-3.249-3.627-5.725-3.867c0.922-3.279,3.877-5.686,7.387-5.686
	c0.373,0,0.738,0.037,1.098,0.09c0.713,0.105,1.393,0.305,2.027,0.594c2.365,1.076,4.092,3.334,4.475,6.037
	c0-0.014,0.002-0.031,0.002-0.045c0-3.08-1.547-5.791-3.889-7.371C40.973,31.814,43.533,30.15,46.479,30.15 M46.479,27.428
	c-3.598,0-6.932,1.889-8.85,4.967c-0.074-0.012-0.148-0.023-0.223-0.035c-0.551-0.08-1.02-0.117-1.48-0.117
	c-4.592,0-8.684,3.148-9.95,7.656l-0.303,1.074c-0.326,0.215-0.639,0.455-0.936,0.719C23,43.242,22,45.482,22,47.838
	c0,3.527,2.207,6.641,5.488,7.748C28.296,55.861,29.142,56,29.996,56h22.784c0.688,0,1.385-0.082,2.076-0.246
	C59.059,54.768,62,50.998,62,46.586c0-3.352-1.771-6.477-4.623-8.154c-0.139-0.08-0.277-0.158-0.418-0.232c0-0.021,0-0.043,0-0.066
	C56.959,32.23,52.256,27.428,46.479,27.428L46.479,27.428z"/>
</svg>
