<?xml version="1.0" encoding="utf-8"?>
<!-- Generator: Adobe Illustrator 15.0.0, SVG Export Plug-In . SVG Version: 6.00 Build 0)  -->
<!DOCTYPE svg PUBLIC "-//W3C//DTD SVG 1.1//EN" "http://www.w3.org/Graphics/SVG/1.1/DTD/svg11.dtd">
<svg version="1.1" id="Layer_1" xmlns="http://www.w3.org/2000/svg" xmlns:xlink="http://www.w3.org/1999/xlink" x="0px" y="0px"
	 width="64px" height="64px" viewBox="0 0 64 64" enable-background="new 0 0 64 64" xml:space="preserve">
<circle fill="#F9C802" cx="20" cy="20" r="8.4"/>
<g>
	<path fill="#F9C802" d="M23.367,10.21L20.002,2l-3.367,8.211C17.727,10.019,18.85,9.902,20,9.902
		C21.152,9.902,22.273,10.019,23.367,10.21z"/>
	<path fill="#F9C802" d="M16.635,29.789L20.002,38l3.365-8.211c-1.094,0.191-2.215,0.309-3.367,0.309
		C18.85,30.097,17.727,29.98,16.635,29.789z"/>
</g>
<g>
	<path fill="#F9C802" d="M29.789,23.367L38,20.001l-8.211-3.367c0.191,1.094,0.309,2.215,0.309,3.365
		C30.098,21.152,29.98,22.273,29.789,23.367z"/>
	<path fill="#F9C802" d="M10.211,16.634L2,20.001l8.211,3.365C10.02,22.273,9.902,21.152,9.902,20
		C9.902,18.849,10.02,17.728,10.211,16.634z"/>
</g>
<g>
	<path fill="#F9C802" d="M29.303,15.458l3.426-8.186l-8.188,3.424c0.91,0.639,1.785,1.348,2.6,2.162S28.666,14.55,29.303,15.458z"/>
	<path fill="#F9C802" d="M10.697,24.541l-3.424,8.188l8.186-3.426c-0.908-0.637-1.785-1.348-2.6-2.162S11.336,25.451,10.697,24.541z
		"/>
</g>
<g>
	<path fill="#F9C802" d="M24.541,29.302l8.188,3.426l-3.426-8.188c-0.637,0.91-1.348,1.785-2.162,2.6S25.451,28.666,24.541,29.302z"
		/>
	<path fill="#F9C802" d="M15.459,10.697L7.271,7.273l3.426,8.186c0.639-0.908,1.348-1.785,2.162-2.6S14.551,11.335,15.459,10.697z"
		/>
</g>
<path fill="#FFFFFF" d="M23.996,33.471c-0.844,0-1.682-0.135-2.484-0.4c-3.246-1.067-5.43-4.067-5.43-7.467
	c0-2.27,0.99-4.428,2.715-5.926c0.447-0.387,0.93-0.723,1.447-1h-0.025l0.525-1.82c1.309-4.545,5.541-7.717,10.291-7.717
	c0.473,0,0.959,0.037,1.529,0.119C33,9.322,33.43,9.412,33.85,9.523l0.209-0.377c1.92-3.438,5.563-5.572,9.508-5.572
	c5.99,0,10.863,4.848,10.863,10.807c0,0.291-0.018,0.574-0.041,0.859l-0.016,0.211c0.461,0.176,0.91,0.387,1.346,0.639
	c2.898,1.66,4.697,4.752,4.697,8.064c0,4.367-2.986,8.096-7.262,9.073c-0.699,0.162-1.408,0.244-2.102,0.244H23.996z"/>
<path fill="#B6C1D1" d="M43.566,5.148c5.125,0,9.281,4.133,9.281,9.232c0,0.248-0.018,0.488-0.037,0.732
	c-2.145,0.162-4.094,1.014-5.627,2.336c1.141-0.652,2.457-1.031,3.867-1.031c0.521,0,1.031,0.053,1.523,0.15
	c0.844,0.166,1.633,0.469,2.354,0.883c2.332,1.338,3.906,3.836,3.906,6.703c0,3.676-2.58,6.75-6.035,7.539
	c-0.563,0.131-1.145,0.205-1.746,0.205h-0.002H23.996h-0.002c-0.693,0-1.359-0.115-1.982-0.322
	c-2.521-0.828-4.344-3.189-4.344-5.973c0-1.895,0.842-3.588,2.17-4.74c0.604-0.523,1.303-0.932,2.074-1.199
	c0.652-0.227,1.352-0.357,2.084-0.357c2.039,0,3.85,0.965,5.008,2.457l0.057-0.002c-1.344-2.461-3.855-4.195-6.795-4.473
	c1.094-3.791,4.604-6.576,8.77-6.576c0.443,0,0.877,0.043,1.305,0.105c0.846,0.121,1.652,0.352,2.406,0.686
	c2.809,1.246,4.859,3.857,5.314,6.984c0-0.018,0.002-0.037,0.002-0.055c0-3.563-1.838-6.695-4.617-8.523
	C37.027,7.072,40.068,5.148,43.566,5.148 M43.566,2c-4.27,0-8.23,2.184-10.51,5.742c-0.086-0.014-0.176-0.025-0.264-0.041
	c-0.652-0.092-1.209-0.133-1.758-0.133c-5.451,0-10.309,3.641-11.814,8.854l-0.357,1.242c-0.389,0.248-0.76,0.527-1.111,0.832
	c-2.064,1.791-3.252,4.383-3.252,7.107c0,4.08,2.619,7.682,6.518,8.961c0.959,0.318,1.963,0.48,2.977,0.48h27.057
	c0.816,0,1.645-0.096,2.465-0.285C58.508,33.619,62,29.257,62,24.154c0-3.875-2.104-7.488-5.49-9.43
	c-0.164-0.094-0.328-0.182-0.496-0.266c0-0.027,0-0.053,0-0.078C56.014,7.554,50.43,2,43.566,2L43.566,2z"/>
<path fill="#75D6FF" d="M28.764,46.031c-0.57,1.568-0.086,3.189,1.086,3.615c1.172,0.428,2.586-0.502,3.158-2.07
	c0.672-1.85,0.719-4.383,0.262-7.316C31.066,42.184,29.438,44.182,28.764,46.031z"/>
<path fill="#75D6FF" d="M41.861,47.576c0.674-1.85,0.719-4.383,0.262-7.316c-2.201,1.924-3.832,3.922-4.504,5.771
	c-0.572,1.568-0.086,3.189,1.086,3.615C39.877,50.074,41.291,49.145,41.861,47.576z"/>
<path fill="#75D6FF" d="M50.979,40.26c-2.203,1.924-3.832,3.922-4.506,5.771c-0.57,1.568-0.086,3.189,1.086,3.615
	c1.172,0.428,2.586-0.502,3.158-2.07C51.389,45.727,51.436,43.193,50.979,40.26z"/>
<path fill="#75D6FF" d="M19.91,46.031c-0.57,1.568-0.086,3.189,1.086,3.615c1.172,0.428,2.586-0.502,3.158-2.07
	c0.672-1.85,0.719-4.383,0.262-7.316C22.213,42.184,20.584,44.182,19.91,46.031z"/>
<path fill="#75D6FF" d="M21.814,58.281c-0.57,1.568-0.086,3.189,1.086,3.615c1.172,0.428,2.586-0.502,3.158-2.07
	c0.672-1.85,0.719-4.383,0.262-7.316C24.117,54.434,22.488,56.432,21.814,58.281z"/>
<path fill="#75D6FF" d="M34.912,59.826c0.674-1.85,0.719-4.383,0.262-7.316c-2.201,1.924-3.832,3.922-4.504,5.771
	c-0.572,1.568-0.086,3.189,1.086,3.615C32.928,62.324,34.342,61.395,34.912,59.826z"/>
<path fill="#75D6FF" d="M44.027,52.51c-2.201,1.924-3.832,3.922-4.504,5.771c-0.572,1.568-0.086,3.189,1.086,3.615
	c1.172,0.428,2.586-0.502,3.156-2.07C44.439,57.977,44.484,55.443,44.027,52.51z"/>
<path fill="#75D6FF" d="M12.961,58.281c-0.572,1.568-0.086,3.189,1.086,3.615c1.172,0.428,2.586-0.502,3.156-2.07
	c0.674-1.85,0.719-4.383,0.262-7.316C15.264,54.434,13.633,56.432,12.961,58.281z"/>
</svg>
