<?xml version="1.0" encoding="utf-8"?>
<!-- Generator: Adobe Illustrator 15.0.0, SVG Export Plug-In . SVG Version: 6.00 Build 0)  -->
<!DOCTYPE svg PUBLIC "-//W3C//DTD SVG 1.1//EN" "http://www.w3.org/Graphics/SVG/1.1/DTD/svg11.dtd">
<svg version="1.1" id="Layer_1" xmlns="http://www.w3.org/2000/svg" xmlns:xlink="http://www.w3.org/1999/xlink" x="0px" y="0px"
	 width="64px" height="64px" viewBox="0 0 64 64" enable-background="new 0 0 64 64" xml:space="preserve">
<path fill="#99A8AE" d="M2,29.336c15.773-14.219,23.328,0.509,32.799,0.509c7.549,0,16.789-14.779,27.201-2.651
	c-11.949-6.467-16.322,7.285-28.662,7.285C23.75,34.479,20.148,21.73,2,29.336z"/>
<path fill="#BEC3CF" d="M62,40.669c-9.203-8.526-15.129-1.599-22.725,1.99c-4.809,2.272-9.797,1.667-14.771-4.26
	c3.568,1.448,11.451,6.332,19.254-2.231c-6.725,3.357-15.117,0.983-21.875-2.809C14.447,29.19,8.254,28.485,2,36.168
	c3.943-3.335,9.627-2.549,14-1.237c-2.848,0.117-8.895,0.867-14,9.746C17.441,30.287,23.004,50,35.082,50
	C46.787,50,45.746,35.231,62,40.669z"/>
<path fill="#99A8AE" d="M2,24.427c1.883-6.104,15.234-14.818,25.779,0.103C13.041,16.886,2,24.427,2,24.427z"/>
<path fill="#BEC3CF" d="M42.135,18.313c6.189-7.694,16.084-3.495,19.865,0.316c-3.059-0.398-12.473-2.652-16.525,2.199
	c-6.396,7.657-13.891,6.555-16.252,3.769C29.223,24.597,36.834,24.9,42.135,18.313z"/>
<path fill="#99A8AE" d="M45.385,35.798C53.348,20.879,62,33.411,62,33.411C52.559,29.722,45.385,35.798,45.385,35.798z"/>
</svg>
