<?xml version="1.0" encoding="utf-8"?>
<!-- Generator: Adobe Illustrator 15.0.0, SVG Export Plug-In . SVG Version: 6.00 Build 0)  -->
<!DOCTYPE svg PUBLIC "-//W3C//DTD SVG 1.1//EN" "http://www.w3.org/Graphics/SVG/1.1/DTD/svg11.dtd">
<svg version="1.1" id="Layer_1" xmlns="http://www.w3.org/2000/svg" xmlns:xlink="http://www.w3.org/1999/xlink" x="0px" y="0px"
	 width="64px" height="64px" viewBox="0 0 64 64" enable-background="new 0 0 64 64" xml:space="preserve">
<path fill="#99A8AE" d="M23.433,24.246c3.293-5.147-0.945-10.899-2.875-9.441C20.558,14.804,20.554,21.04,23.433,24.246z"/>
<path fill="#CFD8DD" d="M20.967,16.268c0,0,3.867,3.745,2.139,10.258c-0.312,1.183,1.168,3.716,4.14,5.589
	c1.581,0.998,0.288,2.761-0.35,3.275c-0.566,0.455-1.595,0.171-2.347,1.012c-0.232,0.262,0.806,1.453,1.937,1.937
	c-0.306,1.177-2.157,1.679-2.157,1.679c3.86,0.361,1.978,2.522-0.507,2.696c-2.796,1.9-1.321,4.615-3.455,5.853
	C17.391,50.291,2,42.776,2,42.776V19.801L20.967,16.268z"/>
<path fill="#99A8AE" d="M7.071,40.983c-1.078-2.704-0.959-5.12-0.959-5.12C2,37.7,2,28.807,2,28.807V55c0,0,1.779-3.79,6.134-6.027
	c4.042-2.075,8.935-0.415,8.935-0.415C9.247,46.442,7.827,42.874,7.071,40.983z"/>
<path fill="#99A8AE" d="M24.153,42.676c-1.908,0.035-3.285-0.505-3.131-0.049c0.387,1.119,1.397,0.75,1.05,2.413
	C22.868,42.998,24.153,42.676,24.153,42.676z"/>
<path fill="#99A8AE" d="M9.266,24.246l-4.01,1.634c1.659,0.214,1.923,3.014,1.575,4.678C7.238,29.284,9.266,24.246,9.266,24.246z"/>
<path fill="#99A8AE" d="M24.519,36.464c0.898-1.163,2.508,0.139,3.389-2.547c-0.97,2.229-4.007,0.953-5.307,1.967
	C22.601,35.884,23.297,36.627,24.519,36.464z"/>
<path fill="#6E8189" d="M16.332,28.611c2.127,1.967,3.644,1.081,3.688,0.96C20.677,27.735,19.719,29.243,16.332,28.611z"/>
<path fill="#99A8AE" d="M26.485,38.338c0,0-0.291,0.196-0.824,0c-0.697,0.879-1.56,1.41-2.703,1.9
	C27.428,40.238,26.485,38.338,26.485,38.338z"/>
<path fill="#CFD8DD" d="M19.953,10.6C23.833,16.407,3.271,25.879,2,25.879V5.606C6.321,3.539,17.903,7.147,19.953,10.6z"/>
<path fill="#99A8AE" d="M16.532,16.441L2,25.879V10.6C4.744,18.239,12.848,12.626,16.532,16.441z"/>
<path fill="#99A8AE" d="M19.953,10.6C33.437,21.021,5.329,19.392,2,33.042v-7.654C4.104,18.591,20.084,16.58,19.953,10.6z"/>
<path fill="#CFD8DD" d="M19.953,10.6C22.652,18.239,4.557,18.626,2,28.88v-3.492C3.891,18.239,19.647,16.268,19.953,10.6z"/>
<path fill="#99A8AE" d="M13.261,24.792c3.751-3.101,8.552-0.111,8.552-0.111s0,0.776-0.487,1.124c0,0-2.119-1.523-5.579-1.13
	C14.343,24.834,12.579,25.356,13.261,24.792z"/>
<path fill="#99A8AE" d="M20.171,27.309c0.663-1.034,0.023-2.613,0.023-2.613s0.953,1.149,0.615,2.723
	c-0.033,0.145,0.646,0.924,1.15,1.139c0.55,0.239-4.689,1.401-6.136-0.202C18.284,28.493,19.996,27.584,20.171,27.309z"/>
<path fill="#E6EBEF" d="M21.621,34.617c-1.264-2.485-6.564-3.505-5.731-2.729c2.25,2.087,3.447,3.823,4.784,8.255
	C21.173,41.797,22.761,36.862,21.621,34.617z"/>
<path fill="#E6EBEF" d="M22.985,21.902c-0.228-1.763-1.479-2.541-1.3-1.985c0.479,1.497,0.714,2.732,0.9,5.872
	C22.655,26.959,23.191,23.5,22.985,21.902z"/>
<path fill="#E6EBEF" d="M16.272,8.693c3.08,1.603,3.676,4.489,2.775,3.785c-2.422-1.899-4.53-3.164-10.16-5.599
	C6.789,5.973,13.482,7.249,16.272,8.693z"/>
<path fill="#E6EBEF" d="M26.219,33.336c-0.654-0.688-0.715-1.643,0.688-1.012C28.113,32.866,27.267,34.441,26.219,33.336z"/>
<path fill="#E6EBEF" d="M19.903,46.168c0.612-1.004,1.718-1.37,1.398,0.534C21.029,48.337,18.92,47.784,19.903,46.168z"/>
<path fill="#0FB4D4" d="M47.249,25.078c0.92,1.349-0.688,2.067-1.799,1.046c-1.414-1.308,0.68-3.951,2.693-2.363
	c4.983,3.928-4.871,11.647-17.703,15.437c24.874-2.688,24.957-16.918,17.381-19.215c-5.173-1.569-8.432,4.743-5.795,7.86
	C44.747,31.059,50.163,27.278,47.249,25.078z"/>
<path fill="#75D6FF" d="M57.268,29.564c0.435,1.064-0.764,1.3-1.374,0.429c-0.779-1.115,1.023-2.585,2.17-1.186
	c2.84,3.466-6.694,8.053-17.208,9.155c19.857,0,22.362-9.014,17.522-11.781c-3.303-1.888-6.418,1.899-5.061,4.441
	C54.714,33.245,58.941,31.526,57.268,29.564z"/>
<path fill="#0FB4D4" d="M46.537,54.112c0.931-1.24-0.673-1.883-1.789-0.941c-1.423,1.205,0.651,3.603,2.674,2.137
	c5.008-3.63-4.78-10.599-17.576-13.954c24.837,2.25,24.815,15.247,17.227,17.408c-5.181,1.476-8.391-4.264-5.731-7.134
	C44.082,48.668,49.466,52.077,46.537,54.112z"/>
<path fill="#75D6FF" d="M56.132,54.394c0.655-0.932-0.46-1.451-1.245-0.751c-0.999,0.897,0.438,2.765,1.856,1.681
	c3.516-2.688-4.773-9.461-14.767-13.079c19.327,4.808,19.813,14.19,14.505,15.711c-3.624,1.038-5.836-3.402-3.966-5.548
	C54.444,50.192,58.186,52.888,56.132,54.394z"/>
<path fill="#0FB4D4" d="M59.406,44.451c0.199-0.91-0.781-0.914-1.147-0.132c-0.466,1.002,1.162,1.893,1.88,0.609
	c1.777-3.175-6.394-5.358-14.863-4.635c15.717-3.014,18.924,3.741,15.469,6.665c-2.358,1.997-5.337-0.527-4.609-2.746
	C56.885,41.925,60.464,42.643,59.406,44.451z"/>
<path fill="#0FB4D4" d="M32.262,40.727c10.526-0.645,15.534,2.437,19.281,4.1C53.143,45.534,51.564,38.05,32.262,40.727z"/>
<path fill="#75D6FF" d="M57.496,35.47c-1.818,1.199-4.237,3.389-9.406,3.132C57.582,40.094,58.272,34.958,57.496,35.47z"/>
</svg>
