<?xml version="1.0" encoding="utf-8"?>
<!-- Generator: Adobe Illustrator 16.2.0, SVG Export Plug-In . SVG Version: 6.00 Build 0)  -->
<!DOCTYPE svg PUBLIC "-//W3C//DTD SVG 1.1//EN" "http://www.w3.org/Graphics/SVG/1.1/DTD/svg11.dtd">
<svg version="1.1" id="Layer_1" xmlns="http://www.w3.org/2000/svg" xmlns:xlink="http://www.w3.org/1999/xlink" x="0px" y="0px"
	 width="64px" height="64px" viewBox="0 0 64 64" enable-background="new 0 0 64 64" xml:space="preserve">
<path fill="#FDCA47" d="M24.476,19.299C9.833,42.068,2,43.639,2,50.67c0,17.137,36.376-2.734,44.709-33.125
	C48.908,9.517,38.376-2.325,24.476,19.299z"/>
<path fill="#ED9D00" d="M4.89,51.393c0,0-1.765,1.326-2.89-0.723c0,1.924,0,6.928,6.425,6.33L4.89,51.393z"/>
<path fill="#FFE8BB" d="M46.243,11.678c0,0-6.337-8.784-15.381,4.342C19.638,32.298,14.229,37.604,8.114,45.146
	C2,52.689,5.735,57,7.871,57C24.257,57,46.243,29.932,46.243,11.678z"/>
<path fill="#E03636" d="M52.936,3.048c-2.869-2.673-9.623-0.021-12.944,5.545C20.746,40.807,7,48.341,7,56.371
	c0,7.039,9.862,7.163,16.496,1.102C41.337,41.176,61.516,11.033,52.936,3.048z"/>
<path fill="#F89987" d="M11.589,47.475c0,0,4.554-2.941,10.714-0.072C22.304,47.402,15.339,49.225,11.589,47.475z"/>
<path fill="#B00505" d="M11.589,47.475c0,0,4.688-4.961,10.714-0.072C22.304,47.402,16.947,46.6,11.589,47.475z"/>
<path fill="#F89987" d="M19.089,38.473c0,0,4.554-2.939,10.714-0.07C29.804,38.402,22.839,40.225,19.089,38.473z"/>
<path fill="#B00505" d="M19.089,38.473c0,0,4.688-4.957,10.714-0.07C29.804,38.402,24.447,37.6,19.089,38.473z"/>
<path fill="#F89987" d="M26.589,29.474c0,0,4.554-2.941,10.714-0.071C37.305,29.402,30.339,31.223,26.589,29.474z"/>
<path fill="#B00505" d="M26.589,29.474c0,0,4.688-4.958,10.714-0.071C37.305,29.402,31.947,28.598,26.589,29.474z"/>
<path fill="#F89987" d="M33.018,20.474c0,0,4.555-2.942,10.715-0.072C43.732,20.402,36.768,22.223,33.018,20.474z"/>
<path fill="#B00505" d="M33.018,20.474c0,0,4.688-4.959,10.715-0.072C43.732,20.402,38.375,19.599,33.018,20.474z"/>
<path fill="#F89987" d="M38.375,12.474c3.75,1.75,10.715-0.071,10.715-0.071C42.93,9.532,38.375,12.474,38.375,12.474z"/>
<path fill="#B00505" d="M38.375,12.474c5.357-0.875,10.715-0.071,10.715-0.071C43.063,7.515,38.375,12.474,38.375,12.474z"/>
<path fill="#C21413" d="M23.496,57.473C41.337,41.176,61.594,10.958,52.936,3.048c4.213,3.921-29.142,55.589-40.192,55.589
	C7.574,58.637,7,56.371,7,56.371C7,63.84,16.862,63.534,23.496,57.473z"/>
<path fill="#F9B700" d="M17.882,50.498c-0.554-0.93-0.934-2.115-0.764-3.182c0.498-3.119,5.472-1.812,7.614-2.782
	c2.585-1.173,3.514-3.894,2.112-6.308c-0.491-0.847-1.76-2.338-0.93-3.344c0.62-0.75,2.186-0.813,3.07-0.878
	c1.53-0.112,2.762-0.137,4.057-1.006c2.26-1.515,2.21-4.662,1.183-6.812c-1.1-2.295-0.141-3.05,2.076-3.908
	c1.208-0.468,2.446-0.85,3.601-1.439c3.213-1.642,0.686-5.436,0.527-7.869c-0.104-1.65,2.948-1.411,4.049-1.576
	c1.611-0.244,2.938-0.708,4.174-1.72c1.039-0.849-0.478-2.259-1.51-1.415c-2.318,1.895-6.174,0.476-8.184,2.713
	c-0.935,1.04-0.662,2.533-0.446,3.756c0.156,0.892,0.521,1.767,0.781,2.637c0.452,1.513-0.816,1.972-2.031,2.429
	c-2.22,0.835-5.072,1.535-5.759,3.983c-0.429,1.524,0.839,3.15,1.202,4.542c0.867,3.32-2.306,3.449-4.729,3.774
	c-2.714,0.364-4.776,1.624-4.338,4.402c0.361,2.294,3.729,5.165-0.318,6.389c-1.742,0.526-3.617,0.064-5.37,0.797
	c-3.45,1.438-3.573,5.034-1.91,7.826C16.711,52.635,18.554,51.625,17.882,50.498L17.882,50.498z"/>
<path fill="#C21413" d="M12.911,55.666c-0.409,0.991-1.387,2.393-1.934,2.68c-0.424-1.563,0.189-3.964,0.189-3.964
	c-1.182,1.035-1.545,2.533-1.56,3.216c-0.364-0.494-0.655-1.757-0.655-2.652c0,0-1.547,2.652,0.655,4.791l1.889,1.076
	C13.059,59.611,12.911,55.666,12.911,55.666z"/>
<path fill="#FDCA47" d="M40.979,22.846C27.048,45.615,18.405,47.684,19.192,54.383c1.919,16.328,36.565-5.271,42.544-34.839
	C62.25,10.095,54.25,2.333,40.979,22.846z"/>
<path fill="#ED9D00" d="M59.359,11.467C62,30.233,26.589,64,19.192,54.383C21.833,73,61.813,42.417,61.813,19.539
	C61.813,15.917,61.229,13.337,59.359,11.467z"/>
</svg>
