<?xml version="1.0" encoding="utf-8"?>
<!-- Generator: Adobe Illustrator 15.0.0, SVG Export Plug-In . SVG Version: 6.00 Build 0)  -->
<!DOCTYPE svg PUBLIC "-//W3C//DTD SVG 1.1//EN" "http://www.w3.org/Graphics/SVG/1.1/DTD/svg11.dtd">
<svg version="1.1" id="Layer_1" xmlns="http://www.w3.org/2000/svg" xmlns:xlink="http://www.w3.org/1999/xlink" x="0px" y="0px"
	 width="64px" height="64px" viewBox="0 0 64 64" enable-background="new 0 0 64 64" xml:space="preserve">
<path fill="#75D6FF" d="M23.623,45.375c-0.592,1.634-0.088,3.32,1.125,3.765c1.215,0.444,2.68-0.522,3.271-2.156
	c0.697-1.926,0.746-4.562,0.271-7.617C26.01,41.369,24.32,43.449,23.623,45.375z"/>
<path fill="#75D6FF" d="M37.195,46.983c0.697-1.926,0.744-4.562,0.271-7.617c-2.283,2.003-3.971,4.083-4.668,6.009
	c-0.592,1.634-0.09,3.32,1.125,3.765C35.137,49.584,36.604,48.617,37.195,46.983z"/>
<path fill="#75D6FF" d="M46.641,39.366c-2.281,2.003-3.971,4.083-4.668,6.009c-0.592,1.634-0.088,3.32,1.125,3.765
	c1.215,0.444,2.68-0.522,3.271-2.156C47.066,45.058,47.115,42.422,46.641,39.366z"/>
<path fill="#75D6FF" d="M14.449,45.375c-0.592,1.634-0.088,3.32,1.125,3.765c1.215,0.444,2.68-0.522,3.271-2.156
	c0.697-1.926,0.746-4.562,0.271-7.617C16.836,41.369,15.146,43.449,14.449,45.375z"/>
<path fill="#75D6FF" d="M16.422,58.128c-0.592,1.634-0.088,3.32,1.127,3.765c1.213,0.443,2.678-0.523,3.271-2.156
	c0.695-1.926,0.744-4.563,0.27-7.617C18.809,54.122,17.119,56.202,16.422,58.128z"/>
<path fill="#75D6FF" d="M29.994,59.736c0.697-1.926,0.744-4.563,0.271-7.617c-2.281,2.003-3.971,4.083-4.668,6.009
	c-0.592,1.634-0.09,3.32,1.125,3.765C27.938,62.336,29.402,61.369,29.994,59.736z"/>
<path fill="#75D6FF" d="M39.439,52.119c-2.281,2.003-3.971,4.083-4.668,6.009c-0.592,1.634-0.09,3.32,1.125,3.765
	c1.215,0.443,2.68-0.523,3.271-2.156C39.865,57.811,39.912,55.174,39.439,52.119z"/>
<path fill="#75D6FF" d="M7.248,58.128c-0.592,1.634-0.09,3.32,1.125,3.765c1.215,0.443,2.68-0.523,3.271-2.156
	c0.697-1.926,0.744-4.563,0.271-7.617C9.635,54.122,7.945,56.202,7.248,58.128z"/>
<path fill="#FFFFFF" d="M18.863,33.728c-0.848,0-1.686-0.137-2.494-0.405c-3.256-1.073-5.445-4.099-5.445-7.526
	c0-2.289,0.992-4.465,2.723-5.974c0.447-0.391,0.934-0.729,1.453-1.008l-0.027-0.001l0.527-1.835
	c1.314-4.581,5.563-7.779,10.326-7.779c0.475,0,0.963,0.037,1.535,0.12c0.439,0.062,0.869,0.152,1.291,0.265l0.211-0.38
	c1.924-3.466,5.58-5.618,9.539-5.618c6.012,0,10.902,4.887,10.902,10.896c0,0.293-0.02,0.579-0.043,0.866l-0.018,0.213
	c0.465,0.177,0.916,0.391,1.354,0.645c2.906,1.674,4.713,4.79,4.713,8.131c0,4.4-2.996,8.161-7.287,9.146
	c-0.701,0.162-1.412,0.246-2.109,0.246H18.863z"/>
<path fill="#BEC3CF" d="M38.502,5.173c5.143,0,9.313,4.168,9.313,9.309c0,0.25-0.018,0.493-0.037,0.738
	c-2.152,0.163-4.109,1.021-5.646,2.354c1.145-0.657,2.467-1.038,3.881-1.038c0.523,0,1.035,0.053,1.529,0.15
	c0.846,0.169,1.639,0.474,2.361,0.891c2.34,1.349,3.918,3.866,3.918,6.759c0,3.704-2.586,6.804-6.055,7.599
	c-0.563,0.133-1.148,0.207-1.752,0.207h-0.002H18.863l0,0c-0.695,0-1.363-0.115-1.992-0.324c-2.529-0.835-4.357-3.215-4.357-6.021
	c0-1.909,0.846-3.616,2.178-4.778c0.605-0.529,1.309-0.94,2.08-1.21c0.656-0.228,1.357-0.361,2.092-0.361
	c2.049,0,3.863,0.975,5.025,2.478l0.057-0.001c-1.348-2.48-3.869-4.229-6.818-4.509c1.098-3.823,4.619-6.63,8.799-6.63
	c0.447,0,0.883,0.043,1.311,0.105c0.848,0.122,1.658,0.354,2.416,0.691c2.816,1.257,4.875,3.889,5.332,7.041
	c0-0.019,0.002-0.037,0.002-0.055c0-3.591-1.844-6.751-4.635-8.594C31.941,7.113,34.992,5.173,38.502,5.173 M38.502,2
	c-4.285,0-8.26,2.2-10.545,5.789c-0.088-0.014-0.178-0.026-0.266-0.041c-0.654-0.093-1.213-0.135-1.766-0.135
	c-5.469,0-10.344,3.67-11.854,8.927l-0.359,1.251c-0.391,0.251-0.762,0.531-1.113,0.839c-2.074,1.807-3.264,4.42-3.264,7.166
	c0,4.113,2.627,7.743,6.539,9.034c0.963,0.32,1.971,0.483,2.988,0.483h27.148c0.82,0,1.65-0.096,2.475-0.287
	C53.496,33.877,57,29.48,57,24.336c0-3.907-2.111-7.55-5.51-9.507c-0.164-0.095-0.33-0.185-0.498-0.27c0-0.026,0-0.052,0-0.078
	C50.992,7.6,45.389,2,38.502,2L38.502,2z"/>
</svg>
