<?xml version="1.0" encoding="utf-8"?>
<!-- Generator: Adobe Illustrator 16.2.0, SVG Export Plug-In . SVG Version: 6.00 Build 0)  -->
<!DOCTYPE svg PUBLIC "-//W3C//DTD SVG 1.1//EN" "http://www.w3.org/Graphics/SVG/1.1/DTD/svg11.dtd">
<svg version="1.1" id="Layer_1" xmlns="http://www.w3.org/2000/svg" xmlns:xlink="http://www.w3.org/1999/xlink" x="0px" y="0px"
	 width="64px" height="64px" viewBox="0 0 64 64" enable-background="new 0 0 64 64" xml:space="preserve">
<path fill="#D99025" d="M22.406,11.42c47.618-24.621,41.965,46.955,26.168,50.126C32.658,60.648,22.406,11.42,22.406,11.42z"/>
<path fill="#785647" d="M33.952,34.27C57.461,9.222,63.424,55.491,47.627,58.662C31.711,57.766,33.952,34.27,33.952,34.27z"/>
<path fill="#7AB51D" d="M36.154,37.736c4.642,5.395,2.386-4.537,8.513,0.828c6.607,5.787,1.719-9.045,6.098-6.584
	c8.111,4.556,2.619-4.992,5.865-4.75c6.959,0.52,0.041-4.996,1.752-7.043c4.643-5.551-5.64-1.311-4.65-9.791
	c1.067-9.142-9.541,2.256-10.11-3.201C42.56-2.912,31.676,7.306,31.031,3.742c-0.885-4.904-10.746,1.541-8.043,7.049
	C25.705,16.324,34.625,35.956,36.154,37.736z"/>
<path fill="#A6E639" d="M42.462,31.537c-15.513,3.525-27.237-8.411-31.317-21.141c-1.97-6.14,2.744-10.228,5.131-5.105
	C18.01,9.014,22.4-3.703,26.471,7.073c2.197,5.816,10.64-9.709,12.085,0.617c1.342,9.576,9.652,4.008,6.459,11.574
	C42.076,26.232,53.046,29.133,42.462,31.537z"/>
<path fill="#FFE12C" d="M26.02,6.181c22.843-4.248,29.999,11.655,27.643,9.6C43.647,7.049,21.637,6.998,26.02,6.181z"/>
<polygon fill="#E81C27" points="47.531,23.477 49.458,26.846 57.093,27.223 58.944,20.199 55.576,16.838 49.742,19.863 "/>
<polygon fill="#E81C27" points="40.429,9.973 42.356,13.342 49.99,13.719 51.843,6.693 48.474,3.334 42.64,6.359 "/>
<polygon fill="#E81C27" points="15.832,7.398 17.329,10.014 23.258,10.307 24.697,4.852 22.08,2.242 17.55,4.594 "/>
<path fill="#FFE12C" d="M61.449,21.697c-22.412,6.19-30.855-9.043-28.337-7.195C43.81,22.346,65.75,20.51,61.449,21.697z"/>
<polygon fill="#E81C27" points="28.225,15.951 30.549,23.623 38.683,23.82 41.162,19.273 35.987,13.689 30.465,11.334 "/>
<path fill="#FFE12C" d="M44.591,11.459C22.18,17.647,13.736,2.414,16.257,4.262C26.955,12.105,48.892,10.271,44.591,11.459z"/>
<path fill="#FDCA47" d="M2,30.611c0-13.779,3.6-19.677,8.426-20.887c25.087-2.982,30.3,46.219,37.353,52.176
	C47.778,61.9,42.819,61.82,2,30.611z"/>
<path fill="#FFE463" d="M10.426,9.725C36.205,9.623,37.308,62,48.603,62c6.426,0,10.342-9.458,10.342-17.632
	c-0.431,4.71-4.851,15.491-9.737,15.491C40.94,59.859,36.612,2.838,10.426,9.725z"/>
<path fill="#FBB855" d="M30.434,44.048c-3.105-4.17-1.095-10.434-0.746-9.437C30.203,36.088,31.389,45.327,30.434,44.048z"/>
<path fill="#FBB855" d="M26.124,32.393c-3.106-4.17-1.095-10.434-0.746-9.436C25.893,24.434,27.077,33.672,26.124,32.393z"/>
<path fill="#FBB855" d="M23.445,43.453c-3.106-4.17-1.094-10.434-0.746-9.436C23.214,35.492,24.398,44.73,23.445,43.453z"/>
<path fill="#FBB855" d="M20.529,23.475c-3.107-4.17-1.096-10.434-0.746-9.436C20.297,15.516,21.482,24.754,20.529,23.475z"/>
<path fill="#FBB855" d="M17.541,35.357c-3.107-4.169-1.096-10.434-0.746-9.436C17.309,27.398,18.494,36.637,17.541,35.357z"/>
<path fill="#FBB855" d="M11.35,35.061c-3.106-4.169-1.095-10.434-0.746-9.436C11.117,27.1,12.303,36.339,11.35,35.061z"/>
<path fill="#FBB855" d="M12.752,22.11c-3.105-4.17-1.094-10.434-0.746-9.436C12.521,14.15,13.705,23.389,12.752,22.11z"/>
<path fill="#FBB855" d="M7.752,24.395c-3.105-4.17-1.094-10.434-0.746-9.436C7.521,16.436,8.705,25.674,7.752,24.395z"/>
<path fill="#FBB855" d="M4.949,30.553c-2.434-3.266-0.857-8.17-0.584-7.389C4.768,24.32,5.695,31.555,4.949,30.553z"/>
<path fill="#FBB855" d="M35.574,52.616c-2.435-3.267-0.857-8.171-0.584-7.39C35.392,46.383,36.319,53.617,35.574,52.616z"/>
<path fill="#FFE12C" d="M30.311,18.159C51.802,26.95,49.318,44.25,48.435,41.236C44.68,28.441,26.188,16.473,30.311,18.159z"/>
<path fill="#B47D56" d="M49.078,52.281c2.486,0.227,1.571-3.28,0.049-3.133C47.51,49.307,47.784,52.162,49.078,52.281z"/>
<path fill="#B47D56" d="M47.541,44.945c2.485,0.228,1.57-3.279,0.048-3.131C45.973,41.973,46.247,44.827,47.541,44.945z"/>
<path fill="#B47D56" d="M41.861,41.479c2.486,0.228,1.571-3.279,0.049-3.131C40.293,38.504,40.566,41.359,41.861,41.479z"/>
<path fill="#B47D56" d="M55.614,40.9c2.485,0.228,1.571-3.28,0.049-3.131C54.046,37.926,54.318,40.781,55.614,40.9z"/>
<path fill="#785647" d="M55.465,49.631c2.487,0.227,1.572-3.279,0.049-3.132C53.896,46.656,54.17,49.512,55.465,49.631z"/>
<path fill="#785647" d="M56.584,44.326c2.486,0.227,1.572-3.28,0.049-3.133C55.017,41.352,55.29,44.207,56.584,44.326z"/>
<path fill="#785647" d="M55.277,36.258c2.487,0.227,1.572-3.279,0.05-3.132C53.709,33.283,53.982,36.139,55.277,36.258z"/>
<path fill="#785647" d="M51.692,57.29c2.486,0.228,1.571-3.28,0.049-3.132C50.125,54.314,50.397,57.171,51.692,57.29z"/>
<path fill="#B47D56" d="M46.202,54.311c-1.917,1.373,1.327,3.369,2.291,2.316C49.512,55.511,47.202,53.594,46.202,54.311z"/>
<path fill="#B47D56" d="M52.525,50.874c-1.918,1.373,1.328,3.369,2.29,2.317C55.836,52.075,53.524,50.158,52.525,50.874z"/>
<path fill="#B47D56" d="M52.971,42.156c-1.918,1.373,1.328,3.369,2.29,2.316C56.282,43.355,53.97,41.439,52.971,42.156z"/>
<path fill="#B47D56" d="M51.543,34.852c-1.916,1.373,1.329,3.369,2.291,2.316C54.854,36.052,52.543,34.135,51.543,34.852z"/>
<path fill="#B47D56" d="M43.062,45.114c-1.917,1.372,1.329,3.368,2.29,2.317C46.373,46.314,44.061,44.396,43.062,45.114z"/>
</svg>
