<?xml version="1.0" encoding="utf-8"?>
<!-- Generator: Adobe Illustrator 15.0.0, SVG Export Plug-In . SVG Version: 6.00 Build 0)  -->
<!DOCTYPE svg PUBLIC "-//W3C//DTD SVG 1.1//EN" "http://www.w3.org/Graphics/SVG/1.1/DTD/svg11.dtd">
<svg version="1.1" id="Layer_1" xmlns="http://www.w3.org/2000/svg" xmlns:xlink="http://www.w3.org/1999/xlink" x="0px" y="0px"
	 width="64px" height="64px" viewBox="0 0 64 64" enable-background="new 0 0 64 64" xml:space="preserve">
<circle fill="#F9C802" cx="22" cy="28" r="9.333"/>
<g>
	<g>
		<path fill="#F9C802" d="M25.74,17.123L22.001,8l-3.741,9.123c1.215-0.213,2.461-0.342,3.739-0.342
			C23.279,16.781,24.525,16.91,25.74,17.123z"/>
		<path fill="#F9C802" d="M18.26,38.877L22.001,48l3.739-9.123c-1.215,0.213-2.461,0.344-3.741,0.344
			C20.721,39.221,19.475,39.09,18.26,38.877z"/>
	</g>
	<g>
		<path fill="#F9C802" d="M32.877,31.74L42,28.002l-9.123-3.742c0.213,1.215,0.343,2.461,0.343,3.74S33.09,30.525,32.877,31.74z"/>
		<path fill="#F9C802" d="M11.123,24.26L2,28.002l9.123,3.738C10.91,30.525,10.78,29.279,10.78,28S10.91,25.475,11.123,24.26z"/>
	</g>
</g>
<g>
	<g>
		<path fill="#F9C802" d="M32.336,22.953l3.807-9.094l-9.097,3.805c1.01,0.709,1.983,1.498,2.888,2.402
			C30.839,20.971,31.628,21.945,32.336,22.953z"/>
		<path fill="#F9C802" d="M11.664,33.047l-3.806,9.096l9.096-3.807c-1.01-0.707-1.983-1.496-2.889-2.402
			C13.161,35.029,12.372,34.057,11.664,33.047z"/>
	</g>
	<g>
		<path fill="#F9C802" d="M27.046,38.336l9.096,3.807l-3.806-9.096c-0.708,1.01-1.497,1.982-2.401,2.887
			C29.029,36.84,28.056,37.629,27.046,38.336z"/>
		<path fill="#F9C802" d="M16.954,17.664l-9.097-3.805l3.807,9.094c0.708-1.008,1.497-1.982,2.402-2.887
			C14.971,19.162,15.944,18.373,16.954,17.664z"/>
	</g>
</g>
<path fill="#FFFFFF" d="M17.195,54.113c-0.996,0-1.982-0.162-2.93-0.48c-3.826-1.279-6.398-4.881-6.398-8.959
	c0-2.725,1.166-5.314,3.199-7.109c0.525-0.465,1.096-0.867,1.705-1.199l-0.03-0.002l0.619-2.184
	c1.544-5.451,6.534-9.258,12.133-9.258c0.558,0,1.13,0.045,1.803,0.143c0.515,0.074,1.021,0.182,1.516,0.316l0.247-0.453
	c2.263-4.123,6.557-6.686,11.208-6.686c7.063,0,12.81,5.816,12.81,12.967c0,0.348-0.022,0.688-0.049,1.029l-0.021,0.254
	c0.545,0.211,1.076,0.467,1.59,0.768c3.415,1.992,5.537,5.701,5.537,9.676c0,5.238-3.521,9.715-8.563,10.885
	c-0.823,0.193-1.658,0.293-2.478,0.293H17.195z"/>
<path fill="#75D6FF" d="M40.267,20.131c6.044,0,10.942,4.961,10.942,11.078c0,0.297-0.02,0.586-0.043,0.877
	c-2.529,0.195-4.828,1.217-6.635,2.803c1.345-0.781,2.898-1.236,4.561-1.236c0.615,0,1.215,0.064,1.796,0.182
	c0.993,0.199,1.925,0.564,2.774,1.059c2.749,1.605,4.604,4.602,4.604,8.043c0,4.408-3.04,8.098-7.114,9.045
	c-0.662,0.156-1.35,0.246-2.06,0.246h-0.001H17.195h-0.001c-0.817,0-1.603-0.139-2.339-0.387c-2.974-0.994-5.122-3.826-5.122-7.166
	c0-2.273,0.994-4.305,2.561-5.688c0.71-0.629,1.536-1.119,2.444-1.439c0.77-0.271,1.594-0.428,2.457-0.428
	c2.405,0,4.539,1.156,5.904,2.947l0.066-0.002c-1.584-2.951-4.545-5.031-8.012-5.365c1.29-4.551,5.428-7.891,10.339-7.891
	c0.524,0,1.034,0.051,1.538,0.125c0.997,0.145,1.949,0.422,2.838,0.822c3.311,1.496,5.729,4.629,6.266,8.381
	c0-0.021,0.002-0.045,0.002-0.064c0-4.275-2.166-8.035-5.445-10.229C32.559,22.439,36.145,20.131,40.267,20.131 M40.267,16.354
	c-5.034,0-9.703,2.619-12.389,6.891c-0.104-0.016-0.208-0.031-0.312-0.049c-0.77-0.109-1.426-0.162-2.073-0.162
	c-6.427,0-12.154,4.369-13.927,10.625l-0.423,1.49c-0.458,0.297-0.896,0.631-1.31,0.998C7.398,38.297,6,41.404,6,44.674
	c0,4.896,3.088,9.215,7.684,10.752C14.814,55.807,15.998,56,17.194,56h31.897c0.962,0,1.939-0.113,2.906-0.342
	C57.883,54.291,62,49.059,62,42.936c0-4.648-2.48-8.984-6.473-11.313c-0.193-0.113-0.388-0.221-0.585-0.322
	c0.001-0.031,0.001-0.061,0.001-0.092C54.943,23.02,48.359,16.354,40.267,16.354L40.267,16.354z"/>
</svg>
