<?xml version="1.0" encoding="utf-8"?>
<!-- Generator: Adobe Illustrator 15.0.0, SVG Export Plug-In . SVG Version: 6.00 Build 0)  -->
<!DOCTYPE svg PUBLIC "-//W3C//DTD SVG 1.1//EN" "http://www.w3.org/Graphics/SVG/1.1/DTD/svg11.dtd">
<svg version="1.1" id="Layer_1" xmlns="http://www.w3.org/2000/svg" xmlns:xlink="http://www.w3.org/1999/xlink" x="0px" y="0px"
	 width="64px" height="64px" viewBox="0 0 64 64" enable-background="new 0 0 64 64" xml:space="preserve">
<polygon fill="#75D6FF" points="19.633,43.76 21.281,41.292 18.74,42.894 18.081,38.536 17.418,42.895 14.878,41.292 16.525,43.758 
	12.046,44.402 16.53,45.046 14.878,47.513 17.418,45.91 18.081,50.268 18.743,45.91 21.281,47.513 19.631,45.044 24.115,44.402 "/>
<polygon fill="#75D6FF" points="52.269,43.76 53.917,41.292 51.379,42.894 50.717,38.536 50.055,42.894 47.517,41.292 
	49.164,43.758 44.683,44.402 49.167,45.046 47.517,47.513 50.055,45.91 50.717,50.268 51.379,45.91 53.917,47.513 52.267,45.044 
	56.752,44.402 "/>
<polygon fill="#75D6FF" points="35.951,43.76 37.599,41.292 35.059,42.894 34.398,38.536 33.738,42.894 31.199,41.292 
	32.846,43.758 28.364,44.402 32.848,45.046 31.199,47.513 33.736,45.911 34.398,50.268 35.061,45.911 37.599,47.513 35.949,45.044 
	40.434,44.402 "/>
<g>
	<polygon fill="#75D6FF" points="11.587,55.492 13.235,53.022 10.695,54.624 10.034,50.268 9.373,54.625 6.832,53.022 8.479,55.49 
		4,56.134 8.482,56.778 6.832,59.245 9.371,57.642 10.034,62 10.697,57.642 13.235,59.245 11.585,56.776 16.069,56.134 	"/>
</g>
<g>
	<polygon fill="#75D6FF" points="44.224,55.492 45.87,53.022 43.331,54.624 42.67,50.268 42.009,54.624 39.471,53.022 41.116,55.49 
		36.637,56.134 41.118,56.778 39.471,59.245 42.009,57.642 42.67,62 43.333,57.642 45.87,59.245 44.222,56.776 48.705,56.134 	"/>
</g>
<g>
	<polygon fill="#75D6FF" points="27.905,55.492 29.553,53.022 27.013,54.624 26.353,50.268 25.693,54.624 23.152,53.022 24.8,55.49 
		20.318,56.134 24.803,56.778 23.152,59.245 25.69,57.643 26.353,62 27.015,57.643 29.553,59.245 27.903,56.776 32.387,56.134 	"/>
</g>
<path fill="#FFFFFF" d="M20.143,34.081c-0.884,0-1.762-0.136-2.606-0.409c-3.403-1.086-5.691-4.146-5.691-7.61
	c0-2.314,1.039-4.515,2.847-6.041c0.467-0.396,0.975-0.736,1.516-1.02L16.181,19l0.552-1.855c1.372-4.63,5.812-7.865,10.791-7.865
	c0.497,0,1.007,0.039,1.604,0.122c0.458,0.064,0.909,0.153,1.35,0.269l0.22-0.384c2.011-3.504,5.834-5.682,9.971-5.682
	c6.283,0,11.394,4.942,11.394,11.017c0,0.297-0.019,0.586-0.044,0.876l-0.017,0.215c0.483,0.179,0.956,0.397,1.413,0.652
	c3.037,1.693,4.925,4.844,4.925,8.222c0,4.45-3.132,8.254-7.616,9.249c-0.733,0.164-1.477,0.248-2.203,0.248H20.143z"/>
<path fill="#75D6FF" d="M40.668,5.207c5.374,0,9.733,4.216,9.733,9.413c0,0.254-0.019,0.499-0.04,0.746
	c-2.249,0.167-4.294,1.035-5.9,2.382c1.195-0.663,2.577-1.049,4.057-1.049c0.547,0,1.08,0.053,1.599,0.151
	c0.882,0.17,1.711,0.48,2.466,0.901c2.448,1.363,4.097,3.908,4.097,6.833c0,3.746-2.704,6.88-6.328,7.685
	c-0.59,0.131-1.201,0.208-1.831,0.208h-0.002H20.143l0,0c-0.728,0-1.425-0.118-2.081-0.329c-2.644-0.843-4.554-3.249-4.554-6.087
	c0-1.932,0.881-3.659,2.276-4.833c0.632-0.533,1.366-0.949,2.174-1.223c0.685-0.229,1.419-0.363,2.185-0.363
	c2.14,0,4.038,0.983,5.252,2.505l0.062-0.001c-1.409-2.507-4.044-4.276-7.128-4.56c1.149-3.867,4.829-6.703,9.197-6.703
	c0.468,0,0.92,0.044,1.368,0.105c0.889,0.125,1.735,0.359,2.526,0.7c2.944,1.269,5.095,3.931,5.573,7.119
	c0-0.018,0.002-0.038,0.002-0.055c0-3.631-1.927-6.827-4.845-8.69C33.812,7.17,36.999,5.207,40.668,5.207 M40.668,2
	c-4.478,0-8.632,2.225-11.022,5.854c-0.091-0.015-0.184-0.027-0.277-0.041c-0.683-0.094-1.267-0.138-1.844-0.138
	c-5.715,0-10.811,3.711-12.388,9.028l-0.376,1.265c-0.406,0.252-0.795,0.537-1.164,0.846c-2.167,1.828-3.412,4.469-3.412,7.247
	c0,4.159,2.748,7.83,6.837,9.135c1.004,0.323,2.058,0.488,3.122,0.488h28.375c0.855,0,1.725-0.096,2.584-0.289
	C56.339,34.231,60,29.787,60,24.584c0-3.951-2.206-7.635-5.757-9.613c-0.171-0.094-0.345-0.187-0.521-0.272c0-0.026,0-0.051,0-0.079
	C53.723,7.663,47.865,2,40.668,2L40.668,2z"/>
</svg>
