<?xml version="1.0" encoding="utf-8"?>
<!-- Generator: Adobe Illustrator 15.0.0, SVG Export Plug-In . SVG Version: 6.00 Build 0)  -->
<!DOCTYPE svg PUBLIC "-//W3C//DTD SVG 1.1//EN" "http://www.w3.org/Graphics/SVG/1.1/DTD/svg11.dtd">
<svg version="1.1" id="Layer_1" xmlns="http://www.w3.org/2000/svg" xmlns:xlink="http://www.w3.org/1999/xlink" x="0px" y="0px"
	 width="64px" height="64px" viewBox="0 0 64 64" enable-background="new 0 0 64 64" xml:space="preserve">
<path fill="#92C932" d="M40.004,47.487C32.761,52.683,30.791,62,30.791,62h2.605C43.113,48.938,62,39.821,62,39.821
	S49.252,40.854,40.004,47.487z"/>
<polygon fill="#529320" points="30.355,12 33.049,62 27.662,62 "/>
<path fill="#92C932" d="M23.305,48.737C29.578,54.921,30.355,62,30.355,62h-2.604C18.031,46.691,2,41.399,2,41.399
	S15.823,41.367,23.305,48.737z"/>
<path fill="#F9B700" d="M53.499,31.745c0,0-4.982-5.274-10.079-6.944c-0.027-0.574-0.086-1.14-0.186-1.692
	c4.475-2.941,7.905-9.294,7.905-9.294s-7.094-0.203-11.878,2.135c-0.457-0.417-0.936-0.812-1.449-1.158
	c1.002-5.222-1.021-11.985-1.021-11.985s-5.118,4.83-6.87,9.845c-0.642,0.037-1.272,0.109-1.885,0.238
	c-2.99-4.386-9.177-7.724-9.177-7.724s-0.203,7.108,2.143,11.894c-0.394,0.457-0.755,0.942-1.081,1.453
	C14.69,17.47,7.853,19.513,7.853,19.513s4.999,5.292,10.104,6.953c0.047,0.555,0.126,1.1,0.241,1.632
	c-4.515,2.919-7.986,9.347-7.986,9.347s7.438,0.21,12.22-2.312c0.383,0.324,0.783,0.627,1.203,0.905
	c-1.209,5.27,0.927,12.414,0.927,12.414s5.454-5.153,7.023-10.34c0.491-0.034,0.975-0.092,1.448-0.181
	c2.861,4.6,9.458,8.161,9.458,8.161s0.21-7.422-2.306-12.202c0.344-0.383,0.668-0.782,0.963-1.205
	C46.414,33.86,53.499,31.745,53.499,31.745z"/>
<path fill="#FFE463" d="M47.384,42.337c0,0-1.704-7.167-5.341-11.145c0.24-0.471,0.449-0.959,0.631-1.461
	c5.377-0.252,11.63-4.102,11.63-4.102s-6.113-3.766-11.448-4.095c-0.179-0.566-0.406-1.108-0.659-1.638
	c3.532-4.009,5.188-10.977,5.188-10.977s-6.866,1.629-10.887,5.104c-0.556-0.285-1.134-0.53-1.732-0.732
	C34.373,7.995,30.675,2,30.675,2s-3.696,5.995-4.088,11.293c-0.599,0.202-1.178,0.447-1.733,0.732
	c-4.021-3.476-10.886-5.104-10.886-5.104s1.655,6.97,5.187,10.978c-0.252,0.528-0.479,1.07-0.658,1.637
	C13.161,21.864,7.048,25.63,7.048,25.63s6.253,3.85,11.63,4.102c0.182,0.502,0.391,0.989,0.631,1.46
	c-3.637,3.978-5.341,11.146-5.341,11.146s7.278-1.729,11.235-5.424c0.441,0.21,0.895,0.397,1.361,0.557
	c0.183,5.412,4.11,11.789,4.11,11.789s3.93-6.377,4.112-11.789c0.467-0.159,0.92-0.347,1.361-0.557
	C40.105,40.607,47.384,42.337,47.384,42.337z"/>
<path fill="#F9C802" d="M53.499,19.513c0,0-6.837-2.043-12.069-1.002c-0.327-0.511-0.688-0.996-1.082-1.453
	c2.347-4.785,2.144-11.893,2.144-11.893s-6.188,3.337-9.179,7.723c-0.611-0.128-1.243-0.2-1.885-0.237
	c-1.752-5.015-6.868-9.845-6.868-9.845s-2.022,6.764-1.021,11.985c-0.514,0.347-0.992,0.741-1.45,1.158
	c-4.784-2.338-11.877-2.135-11.877-2.135s3.431,6.353,7.905,9.294c-0.1,0.552-0.158,1.117-0.186,1.692
	c-5.096,1.669-10.079,6.944-10.079,6.944s7.087,2.116,12.351,0.94c0.295,0.422,0.619,0.82,0.961,1.203
	C18.65,38.67,18.86,46.093,18.86,46.093s6.595-3.563,9.456-8.161c0.475,0.089,0.957,0.146,1.448,0.181
	c1.571,5.187,7.025,10.34,7.025,10.34s2.136-7.145,0.927-12.414c0.42-0.278,0.82-0.581,1.203-0.905
	c4.779,2.521,12.22,2.312,12.22,2.312s-3.472-6.427-7.986-9.346c0.115-0.532,0.194-1.078,0.241-1.634
	C48.502,24.803,53.499,19.513,53.499,19.513z"/>
<circle fill="#AB5C10" cx="30.676" cy="25.386" r="13"/>
<path fill="#594640" d="M40.677,25.386c0,5.518-4.478,10-10,10c-5.524,0-10-4.482-10-10s4.476-10,10-10
	C36.199,15.386,40.677,19.868,40.677,25.386z"/>
<circle fill="#45332C" cx="30.677" cy="25.386" r="8"/>
</svg>
