<?xml version="1.0" encoding="utf-8"?>
<!-- Generator: Adobe Illustrator 16.2.0, SVG Export Plug-In . SVG Version: 6.00 Build 0)  -->
<!DOCTYPE svg PUBLIC "-//W3C//DTD SVG 1.1//EN" "http://www.w3.org/Graphics/SVG/1.1/DTD/svg11.dtd">
<svg version="1.1" id="Layer_1" xmlns="http://www.w3.org/2000/svg" xmlns:xlink="http://www.w3.org/1999/xlink" x="0px" y="0px"
	 width="64px" height="64px" viewBox="0 0 64 64" enable-background="new 0 0 64 64" xml:space="preserve">
<path fill="#7AB51D" d="M30,2c0,0-6.075,12.011,1.546,27.172l10.947-8.907C42.493,20.265,30,9.441,30,2z"/>
<path fill="#7AB51D" d="M30.504,51.834C11.574,40.503,10.574,26.153,2,22c0,0,19.87-5.343,31.154,7.172L30.504,51.834z"/>
<path fill="#7AB51D" d="M61.712,52.68C47.866,38.249,47.001,39.15,43.539,42.759c-3.627,3.778-4.327,4.51,9.52,18.941
	c1.166,1.216,4.976-1.58,6.058-2.706C60.198,57.865,62.877,53.896,61.712,52.68z"/>
<path fill="#D47706" d="M41.673,24.578C15.992-1.104,11.514,2.321,8.058,5.777c-4.001,4.001-8.046,8.951,18.038,35.035
	c5.619,5.618,22.988,19.202,28.694,13.672C60.652,48.803,47.446,30.351,41.673,24.578z"/>
<path fill="#F59E01" d="M38.347,37.346c-3.462,3.608-2.688,4.416-1.73,5.413c0.956,0.996,1.73,1.802,5.192-1.805
	c3.462-3.608,2.687-4.416,1.73-5.414C42.583,34.546,41.809,33.738,38.347,37.346z"/>
<path fill="#F9C802" d="M40.077,31.935c-0.955-0.995-1.73-1.804-5.192,1.804c-3.461,3.607-2.687,4.416-1.73,5.412
	c0.956,0.995,1.73,1.804,5.192-1.805C41.809,33.738,41.033,32.932,40.077,31.935z"/>
<path fill="#FFE12C" d="M36.616,28.327c-0.957-0.996-1.731-1.805-5.192,1.804c-3.462,3.607-2.687,4.415-1.731,5.409
	c0.956,0.998,1.731,1.806,5.192-1.802C38.347,30.131,37.572,29.323,36.616,28.327z"/>
<path fill="#FFE12C" d="M33.154,24.719c-0.956-0.997-1.731-1.804-5.192,1.804c-3.461,3.608-2.687,4.417-1.731,5.412
	c0.956,0.997,1.731,1.804,5.192-1.804C34.885,26.522,34.11,25.715,33.154,24.719z"/>
<path fill="#F9C802" d="M26.231,31.935c-0.956-0.995-1.73-1.804-4.327,0.902c-2.597,2.703-1.821,3.513-0.865,4.509
	c0.956,0.996,1.73,1.805,4.327-0.901S27.187,32.932,26.231,31.935z"/>
<path fill="#FFE12C" d="M29.693,21.11c-0.956-0.996-1.731-1.803-5.192,1.804c-3.461,3.608-2.687,4.417-1.731,5.413
	c0.956,0.996,1.731,1.804,5.192-1.805C31.423,22.915,30.649,22.106,29.693,21.11z"/>
<path fill="#F9C802" d="M22.77,28.327c-0.956-0.996-1.73-1.805-4.327,0.901c-2.596,2.706-1.821,3.514-0.865,4.51
	c0.956,0.996,1.73,1.802,4.327-0.901C24.5,30.131,23.725,29.323,22.77,28.327z"/>
<path fill="#FFE12C" d="M26.231,17.503c-0.956-0.997-1.73-1.804-5.192,1.804c-3.462,3.607-2.687,4.415-1.731,5.412
	c0.957,0.996,1.731,1.804,5.193-1.804C27.962,19.307,27.187,18.499,26.231,17.503z"/>
<path fill="#F9C802" d="M19.308,24.719c-0.955-0.997-1.73-1.804-4.327,0.901c-2.596,2.707-1.821,3.515-0.865,4.511
	c0.957,0.996,1.731,1.804,4.327-0.902C21.039,26.522,20.264,25.715,19.308,24.719z"/>
<path fill="#FFE12C" d="M31.423,12.09c-0.956-0.997-1.73-1.804-4.327,0.902c-2.596,2.707-1.821,3.513-0.866,4.51
	c0.956,0.996,1.731,1.804,4.327-0.903C33.154,13.895,32.379,13.086,31.423,12.09z"/>
<path fill="#FFE12C" d="M22.77,13.895c-0.956-0.997-1.73-1.805-5.192,1.804c-3.462,3.608-2.687,4.415-1.73,5.411
	c0.956,0.996,1.73,1.804,5.192-1.803C24.5,15.699,23.725,14.891,22.77,13.895z"/>
<path fill="#F9C802" d="M15.847,21.11c-0.956-0.996-1.731-1.803-4.327,0.902c-2.597,2.706-1.821,3.514-0.865,4.51
	c0.956,0.997,1.73,1.805,4.326-0.902C17.577,22.915,16.802,22.106,15.847,21.11z"/>
<path fill="#FFE12C" d="M27.962,8.483c-0.956-0.996-1.731-1.804-4.327,0.902c-2.596,2.706-1.821,3.514-0.865,4.51
	c0.956,0.996,1.731,1.804,4.327-0.902C29.693,10.287,28.917,9.479,27.962,8.483z"/>
<path fill="#FFE12C" d="M19.308,10.287c-0.955-0.996-1.73-1.804-5.192,1.804c-3.461,3.609-2.686,4.416-1.73,5.413
	c0.956,0.996,1.73,1.804,5.192-1.804C21.039,12.09,20.264,11.283,19.308,10.287z"/>
<path fill="#F9C802" d="M12.385,17.503c-0.956-0.997-1.73-1.804-4.327,0.902c-2.596,2.705-1.821,3.514-0.865,4.509
	c0.956,0.997,1.73,1.804,4.327-0.902C14.115,19.307,13.34,18.499,12.385,17.503z"/>
<path fill="#FFE12C" d="M24.5,4.875c-0.956-0.996-1.731-1.803-4.327,0.903c-2.596,2.706-1.821,3.514-0.866,4.509
	c0.957,0.997,1.731,1.804,4.327-0.902C26.231,6.679,25.457,5.871,24.5,4.875z"/>
<path fill="#FFE12C" d="M15.847,6.679c-0.956-0.997-1.731-1.805-5.192,1.804c-3.462,3.607-2.687,4.416-1.731,5.412
	c0.956,0.996,1.731,1.804,5.192-1.805C17.577,8.483,16.802,7.675,15.847,6.679z"/>
<path fill="#F9C802" d="M8.923,13.895c-0.956-0.997-1.73-1.805-3.461,0c-1.731,1.804-0.957,2.611,0,3.608
	c0.956,0.996,1.73,1.804,3.461,0C10.654,15.699,9.879,14.891,8.923,13.895z"/>
<path fill="#FFE12C" d="M19.308,3.071c-0.955-0.996-1.73-1.804-3.461,0c-1.731,1.803-0.956,2.611,0,3.608
	c0.956,0.996,1.73,1.804,3.461,0C21.039,4.875,20.264,4.068,19.308,3.071z"/>
<path fill="#FFE12C" d="M13.995,3.368c-1.039-1.039-3.881-1.882-5.763,0c-1.884,1.883-1.041,2.724,0,3.765
	c1.039,1.04,1.881,1.882,3.763,0C13.878,5.25,15.035,4.407,13.995,3.368z"/>
<path fill="#FFE12C" d="M4.618,12.995c-1.039-1.039-1.882-3.881,0-5.763c1.883-1.884,2.724-1.041,3.765,0
	c1.04,1.039,1.882,1.881,0,3.763C6.5,12.878,5.657,14.035,4.618,12.995z"/>
<path fill="#7AB51D" d="M57.706,37.429c-8.247-12.916-14.381-21.527-11.467-24.285c1.818-1.723,5.747-1.16,5.747-1.16
	C43.374,3.835,22.191,10.72,31.324,23.58C40.842,36.979,48.82,48.369,48.82,60C48.82,60,66.292,50.875,57.706,37.429z"/>
<path fill="#92C932" d="M2,39.15c22.25,0,33.598,36.293,53.655,16.235C55.655,55.386,24.49,16.661,2,39.15z"/>
<path fill="#7AB51D" d="M42.996,49.407C23.006,33.813,13.25,37.346,13.25,37.346c18.75,3.608,31.3,19.093,31.3,19.093
	s-3.751,0.3-14.857-8.269C15.057,36.878,2,39.15,2,39.15s8.455-1.327,23.392,14.241c8.332,8.684,21.609,12.442,30.263,1.994
	C52.914,56.138,48.732,53.881,42.996,49.407z"/>
<path fill="#92C932" d="M31.324,23.58c0,0-8.596-16.484,20.662-11.596C42.26,2.781,22.191,10.72,31.324,23.58z"/>
<path fill="#92C932" d="M58.115,36.91c-8.23-12.923-14.79-21.009-11.876-23.766c-4.768,4.511,7.873,25.963,10.629,30.373
	c-6.482-10.078-16.377-17.058-16.377-17.058C58.385,47.807,56.14,55.642,56.14,55.642S65.606,48.668,58.115,36.91z"/>
</svg>
