<?xml version="1.0" encoding="utf-8"?>
<!-- Generator: Adobe Illustrator 15.0.0, SVG Export Plug-In . SVG Version: 6.00 Build 0)  -->
<!DOCTYPE svg PUBLIC "-//W3C//DTD SVG 1.1//EN" "http://www.w3.org/Graphics/SVG/1.1/DTD/svg11.dtd">
<svg version="1.1" id="Layer_1" xmlns="http://www.w3.org/2000/svg" xmlns:xlink="http://www.w3.org/1999/xlink" x="0px" y="0px"
	 width="64px" height="64px" viewBox="0 0 64 64" enable-background="new 0 0 64 64" xml:space="preserve">
<path fill="#529320" d="M31.999,32C33.399,32,34,62,34,62h-4C30,62,30.599,32,31.999,32z"/>
<path fill="#7AB51D" d="M30.854,57.246C12.195,67.772,7.962,44.726,7.962,44.726S26.22,49.737,30.854,57.246z"/>
<path fill="#92C932" d="M30.854,57.246C25.178,50.568,7.962,44.726,7.962,44.726S34.886,39.78,30.854,57.246z"/>
<path fill="#7AB51D" d="M33.526,60.95C49.89,66.59,49.89,47.66,49.89,47.66S36.113,54.308,33.526,60.95z"/>
<path fill="#92C932" d="M33.526,60.95c3.536-6.135,16.363-13.29,16.363-13.29S27.773,47.66,33.526,60.95z"/>
<g>
	<path fill="#FFE12C" d="M49.437,18.992c-4.688,4.688-14.32,8.007-15.877,6.451c-1.559-1.559,1.761-11.192,6.448-15.88
		C46.615,2.957,56.043,12.384,49.437,18.992z"/>
</g>
<g>
	<path fill="#FFE12C" d="M14.563,35.009c4.688-4.688,14.321-8.008,15.88-6.449C32,30.116,28.68,39.749,23.992,44.437
		C17.385,51.043,7.955,41.616,14.563,35.009z"/>
</g>
<g>
	<path fill="#FFE12C" d="M40.008,44.437C35.32,39.749,32,30.116,33.557,28.56c1.559-1.559,11.192,1.761,15.881,6.449
		C56.043,41.616,46.615,51.043,40.008,44.437z"/>
</g>
<g>
	<path fill="#FFE12C" d="M23.992,9.563C28.68,14.251,32,23.886,30.441,25.444C28.885,27,19.25,23.68,14.563,18.992
		C7.955,12.386,17.385,2.957,23.992,9.563z"/>
</g>
<g>
	<path fill="#FEEC9A" d="M49.991,33.666c-6.628,0-15.787-4.463-15.787-6.664c0-2.205,9.159-6.669,15.787-6.669
		C59.336,20.332,59.336,33.666,49.991,33.666z"/>
</g>
<g>
	<path fill="#FEEC9A" d="M14.009,20.334c6.629-0.001,15.787,4.463,15.787,6.668c0,2.201-9.158,6.664-15.787,6.664
		C4.664,33.668,4.664,20.334,14.009,20.334z"/>
</g>
<g>
	<path fill="#FEEC9A" d="M25.333,44.992c0-6.629,4.463-15.789,6.665-15.789c2.204,0,6.669,9.16,6.669,15.789
		C38.667,54.336,25.333,54.336,25.333,44.992z"/>
</g>
<g>
	<path fill="#FEEC9A" d="M38.667,9.008c0,6.63-4.465,15.789-6.669,15.789c-2.202,0-6.665-9.159-6.665-15.789
		C25.333-0.336,38.667-0.336,38.667,9.008z"/>
</g>
<circle fill="#EA8800" cx="32" cy="27" r="9.001"/>
<path fill="#F59E01" d="M37.759,21.638c-5.033-5.824-15.191-0.832-13.654,6.712C26.656,23.594,32.434,20.754,37.759,21.638z"/>
</svg>
