<?xml version="1.0" encoding="utf-8"?>
<!-- Generator: Adobe Illustrator 15.0.0, SVG Export Plug-In . SVG Version: 6.00 Build 0)  -->
<!DOCTYPE svg PUBLIC "-//W3C//DTD SVG 1.1//EN" "http://www.w3.org/Graphics/SVG/1.1/DTD/svg11.dtd">
<svg version="1.1" id="Layer_1" xmlns="http://www.w3.org/2000/svg" xmlns:xlink="http://www.w3.org/1999/xlink" x="0px" y="0px"
	 width="64px" height="64px" viewBox="0 0 64 64" enable-background="new 0 0 64 64" xml:space="preserve">
<path fill="#529320" d="M57.431,2.539c3.533,3.247,0.729,10.774,0.729,10.774c4.096,4.654,2.83,12.785,2.83,12.785l-4.936-13.251
	c0.686-7.25-2.084-9.322-2.084-9.322C53.54,2.395,56.106,1.319,57.431,2.539z"/>
<path fill="#92C932" d="M56.448,3.301c2.93,2.691,0.129,9.771,0.129,9.771c4.096,4.653,2.732,8.991,2.803,11.645L39.443,12.902
	c2.152-5.833,14.468-2.688,14.468-2.688c2.631-4.287,0.06-6.688,0.06-6.688S54.776,3.833,56.448,3.301z"/>
<path fill="#E81C27" d="M21.144,47.984c9.723-9.258,10.783-16.833,10.783-25.21c0-6.6,4.035-11.284,8.302-12.09
	c2.155-0.407,8.962-0.713,6.707,1.346c-2.226,2.032,8.119,0.381,8.128,4.735c0.008,3.09,2.65-0.591,5.652,7.114
	c3.127,8.03,0.119,13.515-4.449,18.521c-8.764,9.604-29.426,27.059-50.723,16.108C-5.424,52.874,11.708,56.965,21.144,47.984z"/>
<path fill="#C21413" d="M52.671,38.087c4.686-5.134,7.858-10.732,5.367-18.672c0.808,0.732,1.725,2.028,2.678,4.476
	c3.127,8.03,0.119,13.516-4.449,18.521C47.546,51.968,27.046,69.286,5.86,58.67C25.919,63.04,44.292,47.271,52.671,38.087z"/>
<path fill-rule="evenodd" clip-rule="evenodd" fill="#F46C60" d="M34.907,16.55c-0.892,1.914,13.674,6.215,14.154,4.718
	C49.729,19.188,37.247,11.532,34.907,16.55z"/>
</svg>
