<?xml version="1.0" encoding="utf-8"?>
<!-- Generator: Adobe Illustrator 15.0.0, SVG Export Plug-In . SVG Version: 6.00 Build 0)  -->
<!DOCTYPE svg PUBLIC "-//W3C//DTD SVG 1.1//EN" "http://www.w3.org/Graphics/SVG/1.1/DTD/svg11.dtd">
<svg version="1.1" id="Layer_1" xmlns="http://www.w3.org/2000/svg" xmlns:xlink="http://www.w3.org/1999/xlink" x="0px" y="0px"
	 width="64px" height="64px" viewBox="0 0 64 64" enable-background="new 0 0 64 64" xml:space="preserve">
<path fill="#529320" d="M26.252,4.024c1.254,2.221,15.031,17.668,3.522,56.525c-0.776,2.618-4.488,1.376-3.622-1.217
	C37.616,24.964,27.357,6.302,26.252,4.024z"/>
<path fill="#7AB51D" d="M26.252,4.024c1.254,2.221,12.717,17.129,2.069,55.184c-0.193,0.689-1.571,0.641-1.337-0.061
	C38.448,24.777,27.357,6.302,26.252,4.024z"/>
<path fill="#7AB51D" d="M32.188,26.707C17.484,31.421,17.484,15.6,17.484,15.6S29.863,21.154,32.188,26.707z"/>
<path fill="#92C932" d="M32.188,26.707C29.012,21.579,17.484,15.6,17.484,15.6S37.358,15.6,32.188,26.707z"/>
<path fill="#7AB51D" d="M33.934,33.063c15.186,4.868,15.186-11.472,15.186-11.472S36.336,27.329,33.934,33.063z"/>
<path fill="#92C932" d="M33.934,33.063c3.281-5.296,15.186-11.472,15.186-11.472S28.595,21.592,33.934,33.063z"/>
<path fill="#7AB51D" d="M31.008,14.948C17.997,14.173,23.692,2,23.692,2S31.217,9.979,31.008,14.948z"/>
<path fill="#92C932" d="M31.008,14.948C30.408,10.05,23.692,2,23.692,2S38.984,7.948,31.008,14.948z"/>
<path fill="#7AB51D" d="M31.809,41.355C16.971,55.638,6,36.156,6,36.156S25.092,35.859,31.809,41.355z"/>
<path fill="#92C932" d="M31.809,41.355C24.34,36.874,6,36.156,6,36.156S30.471,24.698,31.809,41.355z"/>
<path fill="#7AB51D" d="M31.021,52.367C46.53,67.296,58,46.935,58,46.935S38.042,46.624,31.021,52.367z"/>
<path fill="#92C932" d="M31.021,52.367C38.829,47.683,58,46.935,58,46.935S32.421,34.957,31.021,52.367z"/>
</svg>
