<?xml version="1.0" encoding="utf-8"?>
<!-- Generator: Adobe Illustrator 15.0.0, SVG Export Plug-In . SVG Version: 6.00 Build 0)  -->
<!DOCTYPE svg PUBLIC "-//W3C//DTD SVG 1.1//EN" "http://www.w3.org/Graphics/SVG/1.1/DTD/svg11.dtd">
<svg version="1.1" id="Layer_1" xmlns="http://www.w3.org/2000/svg" xmlns:xlink="http://www.w3.org/1999/xlink" x="0px" y="0px"
	 width="64px" height="64px" viewBox="0 0 64 64" enable-background="new 0 0 64 64" xml:space="preserve">
<path fill="#7AB51D" d="M25.84,25.078C2,34.867,2,2,2,2S21.409,15.884,25.84,25.078z"/>
<path fill="#92C932" d="M25.84,25.078C20.688,14.423,2,2,2,2S34.222,2,25.84,25.078z"/>
<path fill="#7AB51D" d="M33.889,32.968C48.347,49.093,62,30.588,62,30.588S42.305,24.093,33.889,32.968z"/>
<path fill="#92C932" d="M33.68,31.385C44.013,25.078,62,30.588,62,30.588S40.597,9.135,33.68,31.385z"/>
<path fill="#529320" d="M30.659,34.009C27.165,17.759,7.081,5.023,2,2c4.896,3.303,22.142,18.711,25.534,34.009
	C28.965,42.459,25.976,62,25.976,62h6.839c0,0-1.942-16.718-0.814-22.241c2.929-14.349,25.188-10.162,30-9.171
	C57.272,29.253,39.171,22.408,30.659,34.009z"/>
<path fill="#7AB51D" d="M29.597,35.196c0.317,1.622,0.83,0.197,0.596-0.801c-2.002-8.512-9.251-17.356-13.346-20.418
	C14.994,12.593,26.972,21.79,29.597,35.196z"/>
<path fill="#7AB51D" d="M30.491,62h1.689c-0.959-8.179-1.021-15.97-1.209-18.116C30.771,41.579,30.284,50.593,30.491,62z"/>
</svg>
