<?xml version="1.0" encoding="utf-8"?>
<!-- Generator: Adobe Illustrator 15.0.0, SVG Export Plug-In . SVG Version: 6.00 Build 0)  -->
<!DOCTYPE svg PUBLIC "-//W3C//DTD SVG 1.1//EN" "http://www.w3.org/Graphics/SVG/1.1/DTD/svg11.dtd">
<svg version="1.1" id="Layer_1" xmlns="http://www.w3.org/2000/svg" xmlns:xlink="http://www.w3.org/1999/xlink" x="0px" y="0px"
	 width="64px" height="64px" viewBox="0 0 64 64" enable-background="new 0 0 64 64" xml:space="preserve">
<path fill="#92C932" d="M39.75,43.085C33.404,48.4,33.879,62,33.879,62h2.223C41.887,44.21,62,37.46,62,37.46
	S49.154,35.21,39.75,43.085z"/>
<path fill="#529320" d="M33.639,19c2.768,0,2.5,43,2.5,43h-5C31.139,62,30.871,19,33.639,19z"/>
<path fill="#E84D88" d="M45.209,26.088c0,10.983-5.18,15.685-11.57,15.685c-6.389,0-11.57-4.701-11.57-15.685
	C22.068,15.105,33.639,2,33.639,2S45.209,15.105,45.209,26.088z"/>
<path fill="#C72865" d="M38.605,8.644c0,0,0.199,3.535-4.967,7.16c-5.166-3.625-4.966-7.16-4.966-7.16s-5.785,8.339-5.785,14.387
	s21.502,6.048,21.502,0S38.605,8.644,38.605,8.644z"/>
<path fill="#92C932" d="M24.76,41.144C31.326,47.71,33.508,62,33.508,62H28.75C21,43.835,2,30.5,2,30.5S18.213,34.597,24.76,41.144z
	"/>
<path fill="#E84D88" d="M36.98,20.945c14.752,9.257,4.76,22.515-3.645,22.515c-8.4,0-15.213-8.634-15.213-19.284
	s8.271-19.284,8.271-19.284S26.117,14.13,36.98,20.945z"/>
<path fill="#C72865" d="M33.639,18.499c-7.481,2.197-11.407,5.474-12.916,8.915c-1.266-3.575-1.657-7.673-0.631-12.551
	C13.087,32.92,24.936,43.46,33.336,43.46L33.639,18.499z"/>
<path fill="#E84D88" d="M30.297,20.945c-14.752,9.257-4.758,22.515,3.645,22.515c8.4,0,15.213-8.634,15.213-19.284
	S40.883,4.892,40.883,4.892S41.16,14.13,30.297,20.945z"/>
<path fill="#FF669F" d="M44.402,12.36c2.072,10.785,1.797,22.85-14.639,28.236c3.239,1.443,8.041,0.928,10.72-0.76
	C47.828,35.208,49.584,22.906,44.402,12.36z"/>
</svg>
