<?xml version="1.0" encoding="utf-8"?>
<!-- Generator: Adobe Illustrator 15.0.0, SVG Export Plug-In . SVG Version: 6.00 Build 0)  -->
<!DOCTYPE svg PUBLIC "-//W3C//DTD SVG 1.1//EN" "http://www.w3.org/Graphics/SVG/1.1/DTD/svg11.dtd">
<svg version="1.1" id="Layer_1" xmlns="http://www.w3.org/2000/svg" xmlns:xlink="http://www.w3.org/1999/xlink" x="0px" y="0px"
	 width="64px" height="64px" viewBox="0 0 64 64" enable-background="new 0 0 64 64" xml:space="preserve">
<path fill="#B47D56" d="M27.367,49.369c0,0,1.454,8.604,1.104,12.631h8.352c-0.365-4.865-3.332-13.74-3.332-13.74L27.367,49.369z"/>
<path fill="#785647" d="M25.58,45.288c0,0,2.211,5.979,2.556,9.606c0,0,3.96-0.336,7.927,2.517
	c-1.368-6.641-3.646-13.281-3.646-13.281L25.58,45.288z"/>
<path fill="#92C932" d="M56.105,31.656c2.807-2.742,2.887-13.313-6.308-14.928c0.509-6.95-8.347-11.468-13.357-10.128
	c-6.439-10.167-24.458-1.547-20.792,7.206C6.873,15.175,4.226,24.234,9.252,28.932c-7.302,3.727-6.841,14.042,0.455,17.423
	c3.241,7.967,14,8.546,19.801,4.596c4.73,5.094,16.57,4.488,19.672-2.374C59.786,49.185,63.568,35.669,56.105,31.656z"/>
<path fill="#7AB51D" d="M32.42,44.499c-9.483,5.574-20.126-4.965-14.967-13.697c-6.049-2.425-5.861-11.535,0.559-13.548
	C16.268,14.1,15.741,8.818,18.278,5.52c-2.561,2.227-3.901,5.248-2.63,8.287C6.873,15.175,4.226,24.234,9.252,28.932
	c-7.302,3.727-6.841,14.042,0.455,17.423c3.241,7.967,14,8.546,19.801,4.596c4.73,5.094,16.57,4.488,19.672-2.374
	C42.845,50.284,37.162,48.38,32.42,44.499z"/>
<path fill="#7AB51D" d="M36.529,26.984c-3.955-0.662-7.153-4.609-6.069-8.503c-4.487,4.938-0.78,10.92,4.331,11.513
	c-0.938,5.795,6.559,10.762,12.52,5.486C41.718,37.268,35.837,32.274,36.529,26.984z"/>
</svg>
