<?xml version="1.0" encoding="utf-8"?>
<!-- Generator: Adobe Illustrator 15.0.0, SVG Export Plug-In . SVG Version: 6.00 Build 0)  -->
<!DOCTYPE svg PUBLIC "-//W3C//DTD SVG 1.1//EN" "http://www.w3.org/Graphics/SVG/1.1/DTD/svg11.dtd">
<svg version="1.1" id="Layer_1" xmlns="http://www.w3.org/2000/svg" xmlns:xlink="http://www.w3.org/1999/xlink" x="0px" y="0px"
	 width="64px" height="64px" viewBox="0 0 64 64" enable-background="new 0 0 64 64" xml:space="preserve">
<path fill="#F26887" d="M36.117,2.003C35.663,3.948,33.998,5.396,32,5.396c-2,0-3.665-1.45-4.118-3.396
	c-3.126,1.711-5.298,5.618-5.298,12.302C22.584,23.65,32,34.807,32,34.807s9.413-11.156,9.413-20.505
	C41.413,7.622,39.241,3.712,36.117,2.003z"/>
<path fill="#F26887" d="M62,24.32c-1.869,0.424-3.844-0.51-4.719-2.389c-0.875-1.883-0.357-4.083,1.121-5.357
	c-2.838-2.196-7.148-2.53-12.892,0.392C37.475,21.052,32,34.791,32,34.791s13.708,3.979,21.744-0.108
	C59.486,31.763,61.896,28.008,62,24.32z"/>
<path fill="#F26887" d="M2,24.32c1.867,0.424,3.84-0.51,4.718-2.389c0.875-1.883,0.355-4.083-1.12-5.357
	c2.835-2.196,7.146-2.53,12.891,0.392C26.522,21.052,32,34.791,32,34.791s-13.709,3.979-21.746-0.108
	C4.514,31.763,2.104,28.008,2,24.32z"/>
<path fill="#F26887" d="M46.459,61.936c-0.684-1.868-0.103-4.05,1.541-5.241c1.645-1.191,3.802-0.99,5.232,0.343
	c1.641-3.269,1.303-7.776-2.332-13.271c-5.085-7.688-18.896-11.258-18.896-11.258s-1.673,14.78,3.411,22.469
	C39.048,60.469,42.962,62.39,46.459,61.936z"/>
<path fill="#F26887" d="M17.54,61.936c0.683-1.868,0.103-4.05-1.54-5.241c-1.645-1.191-3.803-0.99-5.232,0.343
	c-1.641-3.269-1.303-7.776,2.332-13.271c5.084-7.688,18.896-11.258,18.896-11.258s1.672,14.78-3.412,22.469
	C24.951,60.469,21.037,62.39,17.54,61.936z"/>
<path fill="#FFA3B8" d="M35.611,5.686C35.213,7.393,33.754,8.663,32,8.663s-3.215-1.272-3.611-2.979
	c-2.744,1.501-4.648,4.929-4.648,10.791c0,8.201,8.26,17.988,8.26,17.988s8.258-9.787,8.258-17.988
	C40.258,10.615,38.352,7.186,35.611,5.686z"/>
<path fill="#FFA3B8" d="M58.316,25.264c-1.641,0.371-3.371-0.447-4.139-2.097c-0.768-1.651-0.314-3.581,0.982-4.699
	c-2.49-1.926-6.27-2.22-11.309,0.344C36.802,22.396,32,34.449,32,34.449s12.024,3.49,19.074-0.096
	C56.111,31.792,58.227,28.498,58.316,25.264z"/>
<path fill="#FFA3B8" d="M5.684,25.264c1.637,0.371,3.369-0.447,4.139-2.097c0.767-1.651,0.311-3.581-0.983-4.699
	c2.487-1.926,6.27-2.22,11.309,0.344C27.195,22.396,32,34.449,32,34.449s-12.025,3.49-19.075-0.096
	C7.889,31.792,5.773,28.498,5.684,25.264z"/>
<path fill="#FFA3B8" d="M44.684,58.261c-0.6-1.639-0.09-3.554,1.352-4.599c1.442-1.045,3.335-0.869,4.59,0.302
	c1.439-2.868,1.143-6.822-2.046-11.643c-4.46-6.744-16.575-9.876-16.575-9.876s-1.468,12.966,2.992,19.71
	C38.183,56.973,41.615,58.659,44.684,58.261z"/>
<path fill="#FFA3B8" d="M19.315,58.261c0.599-1.639,0.091-3.554-1.352-4.599s-3.335-0.869-4.589,0.302
	c-1.439-2.868-1.143-6.822,2.045-11.643c4.46-6.744,16.576-9.876,16.576-9.876s1.467,12.966-2.992,19.71
	C25.816,56.973,22.383,58.659,19.315,58.261z"/>
<polygon fill="#FDE0DA" points="28.735,40.904 27.502,40.294 35.261,23.096 36.494,23.706 "/>
<polygon fill="#FDE0DA" points="23.936,36.445 23.393,35.136 40.063,27.554 40.605,28.863 "/>
<polygon fill="#FDE0DA" points="39.927,36.703 23.488,28.586 24.072,27.296 40.51,35.413 "/>
<polygon fill="#FDE0DA" points="34.997,41.004 27.75,23.564 29.002,22.996 36.249,40.436 "/>
<circle fill="#FBB855" cx="31.999" cy="32.001" r="3.5"/>
<circle fill="#FFE8BB" cx="31.999" cy="32.001" r="2.5"/>
<path fill="#D74189" d="M35.88,25.401c-2.667,0-2.667-4,0-4S38.547,25.401,35.88,25.401z"/>
<path fill="#D74189" d="M28.377,25.28c-2.667,0-2.667-4,0-4S31.044,25.28,28.377,25.28z"/>
<path fill="#D74189" d="M23.74,29.94c-2.667,0-2.667-4,0-4S26.407,29.94,23.74,29.94z"/>
<path fill="#D74189" d="M23.666,37.79c-2.667,0-2.667-4,0-4S26.333,37.79,23.666,37.79z"/>
<path fill="#D74189" d="M28.12,42.598c-2.667,0-2.667-4,0-4S30.787,42.598,28.12,42.598z"/>
<path fill="#D74189" d="M35.623,42.72c-2.667,0-2.667-4,0-4S38.29,42.72,35.623,42.72z"/>
<path fill="#D74189" d="M40.258,38.06c-2.667,0-2.667-4,0-4S42.925,38.06,40.258,38.06z"/>
<path fill="#D74189" d="M40.334,30.21c-2.667,0-2.667-4,0-4S43.001,30.21,40.334,30.21z"/>
</svg>
