<?xml version="1.0" encoding="utf-8"?>
<!-- Generator: Adobe Illustrator 15.0.0, SVG Export Plug-In . SVG Version: 6.00 Build 0)  -->
<!DOCTYPE svg PUBLIC "-//W3C//DTD SVG 1.1//EN" "http://www.w3.org/Graphics/SVG/1.1/DTD/svg11.dtd">
<svg version="1.1" id="Layer_1" xmlns="http://www.w3.org/2000/svg" xmlns:xlink="http://www.w3.org/1999/xlink" x="0px" y="0px"
	 width="64px" height="64px" viewBox="0 0 64 64" enable-background="new 0 0 64 64" xml:space="preserve">
<path fill="#824532" d="M62,32c0,16.569-13.432,30-30,30S2,48.569,2,32C2,15.433,32,2,32,2S62,15.433,62,32z"/>
<path fill="#B47D56" d="M32,52.268c-10.34,0-19.908-3.281-27.742-8.846C8.752,54.324,19.477,62,32,62s23.25-7.676,27.742-18.578
	C51.908,48.986,42.34,52.268,32,52.268z"/>
<path fill="#66392C" d="M62,32C62,18.302,41.505,6.754,34.401,3.164c7.688,7.994,14.563,22.798,14.563,32.587
	c0,11.568-6.105,19.587-10.791,25.609C51.779,58.515,62,46.453,62,32z"/>
<path fill="#9E6C49" d="M45.457,50.341c0,0-5.051,7.724-7.271,11.002c9.788-2.055,17.825-8.867,21.556-17.921
	C55.391,47.47,45.457,50.341,45.457,50.341z"/>
<path fill="#C4926E" d="M14.538,53.412c2.802,3.772,9.313,7.147,12.837,3.522C29.965,54.271,12.217,50.285,14.538,53.412z"/>
<path fill="#66392C" d="M32,2c-3.882,3.143-7.645,6.298-11.129,9.658c-1.715,1.701-3.418,3.398-4.94,5.217
	c-1.546,1.795-2.995,3.65-4.204,5.615c-2.457,3.888-4.179,8.166-4.143,12.607c-0.01,4.445,1.865,8.845,4.641,12.854
	c-1.939-1.581-3.596-3.486-4.895-5.631c-1.266-2.155-2.136-4.574-2.399-7.083c-0.319-2.509,0.022-5.063,0.694-7.486
	c0.701-2.428,1.82-4.715,3.163-6.846c2.741-4.24,6.302-7.891,10.259-11.021C23,6.752,27.335,4.063,32,2z"/>
<path fill="#573026" d="M32,2c4.665,2.063,9,4.752,12.953,7.885c3.957,3.131,7.52,6.781,10.259,11.021
	c1.345,2.131,2.462,4.418,3.163,6.846c0.672,2.424,1.014,4.978,0.694,7.486c-0.262,2.509-1.134,4.928-2.399,7.083
	c-1.296,2.145-2.955,4.05-4.893,5.631c2.773-4.01,4.648-8.409,4.639-12.854c0.036-4.441-1.686-8.72-4.143-12.607
	c-1.209-1.965-2.658-3.82-4.204-5.615c-1.522-1.818-3.226-3.516-4.94-5.217C39.645,8.298,35.882,5.143,32,2z"/>
<path fill="#66392C" d="M32,2c-1.422,4.333-2.981,8.457-4.459,12.574c-1.484,4.105-2.896,8.182-4.053,12.267
	c-1.145,4.083-2.064,8.178-2.298,12.288c-0.229,4.106,0.265,8.232,2.392,12.328c-1.994-1.31-3.588-3.212-4.725-5.328
	c-1.135-2.128-1.802-4.469-2.126-6.813c-0.628-4.715,0.021-9.422,1.269-13.844c1.266-4.438,3.154-8.645,5.475-12.594
	C25.826,8.946,28.555,5.208,32,2z"/>
<path fill="#66392C" d="M32,2c3.447,3.208,6.176,6.946,8.525,10.879c2.322,3.949,4.209,8.156,5.475,12.594
	c1.25,4.422,1.898,9.129,1.271,13.844c-0.326,2.344-0.991,4.685-2.128,6.813c-1.135,2.117-2.73,4.02-4.723,5.328
	c2.128-4.096,2.618-8.221,2.39-12.328c-0.233-4.11-1.153-8.205-2.296-12.288c-1.158-4.085-2.57-8.161-4.055-12.267
	C34.981,10.457,33.424,6.333,32,2z"/>
<path fill="#66392C" d="M32,2c1.176,4.189,1.785,8.379,2.225,12.567c0.418,4.188,0.61,8.378,0.615,12.566
	c0.004,4.188-0.191,8.378-0.605,12.566c-0.439,4.188-1.05,8.378-2.234,12.567c-1.182-4.189-1.795-8.379-2.231-12.567
	c-0.417-4.188-0.612-8.378-0.606-12.566c0.003-4.188,0.195-8.378,0.613-12.566C30.217,10.379,30.824,6.189,32,2z"/>
<path opacity="0.2" fill="#C4926E" d="M10.568,42.051C21.354,54.931,32.414,4.515,29.594,5.819
	C15.602,12.293-0.782,28.497,10.568,42.051z"/>
</svg>
