<?xml version="1.0" encoding="utf-8"?>
<!-- Generator: Adobe Illustrator 15.0.0, SVG Export Plug-In . SVG Version: 6.00 Build 0)  -->
<!DOCTYPE svg PUBLIC "-//W3C//DTD SVG 1.1//EN" "http://www.w3.org/Graphics/SVG/1.1/DTD/svg11.dtd">
<svg version="1.1" id="Layer_1" xmlns="http://www.w3.org/2000/svg" xmlns:xlink="http://www.w3.org/1999/xlink" x="0px" y="0px"
	 width="64px" height="64px" viewBox="0 0 64 64" enable-background="new 0 0 64 64" xml:space="preserve">
<path fill="#92C932" d="M25,28.388h-9.057v-9.371c0-6.695-8.998-6.695-8.998,0v11.596l6.107,7.002H25V28.388z"/>
<path fill="#7AB51D" d="M25,34.398c0,0-9.822,0-12.436,0c-2.252,0-3.732-1.168-3.732-4.198c0-1.93,0-7.166,0-11.123
	c0-2.248,0.142-4.066,0.591-4.604c-1.405,0.717-2.478,2.23-2.478,4.543v12.799c0,3.542,1.443,5.799,4.958,5.799
	c1.13,0,13.097,0,13.097,0V34.398z"/>
<path fill="#92C932" d="M35.096,42.729h10.822V32.023c0-7.652,10.756-7.652,10.756,0v13.249l-7.299,8H35.096V42.729z"/>
<path fill="#7AB51D" d="M35.096,49.596c0,0,11.738,0,14.863,0c2.691,0,4.46-1.336,4.46-4.795c0-2.205,0-8.188,0-12.709
	c0-2.568-0.169-4.646-0.706-5.258c1.679,0.816,2.961,2.547,2.961,5.189v14.622c0,4.047-1.726,6.627-5.926,6.627
	c-1.351,0-15.652,0-15.652,0V49.596z"/>
<path fill="#92C932" d="M40.404,62V16.306c0-13.65-18.809-13.65-18.809,0V62H40.404z"/>
<path fill="#7AB51D" d="M25.54,62c0,0,0-37.502,0-45.569c0-4.584,0.297-8.293,1.236-9.385c-2.938,1.461-5.181,4.545-5.181,9.26V62
	H25.54z"/>
<path fill="#529320" d="M12.581,14.617c-1.383-3.49-0.861-3.49-2.244,0C10.186,15.001,12.733,15.001,12.581,14.617z"/>
<path fill="#529320" d="M15.524,16.933c1.381-3.49,1.749-3.104-1.588-1.658C13.57,15.433,15.371,17.318,15.524,16.933z"/>
<path fill="#529320" d="M8.982,15.275c-3.337-1.445-2.968-1.832-1.587,1.658C7.547,17.316,9.349,15.431,8.982,15.275z"/>
<path fill="#529320" d="M15.416,21.992c3.337-1.449,3.337-0.902,0.001-2.35C15.048,19.488,15.048,22.148,15.416,21.992z"/>
<path fill="#529320" d="M7.502,19.642c-3.336,1.447-3.336,0.902,0,2.35C7.87,22.148,7.87,19.484,7.502,19.642z"/>
<path fill="#529320" d="M15.416,27.205c3.337-1.449,3.337-0.902,0.001-2.348C15.048,24.699,15.048,27.363,15.416,27.205z"/>
<path fill="#529320" d="M7.502,24.857c-3.336,1.445-3.336,0.9,0,2.348C7.87,27.363,7.87,24.697,7.502,24.857z"/>
<path fill="#529320" d="M7.7,35.129c-1.381,3.492-1.75,3.104,1.586,1.66C9.653,36.629,7.852,34.746,7.7,35.129z"/>
<path fill="#529320" d="M11.825,37.383c1.385,3.49,0.862,3.49,2.246,0C14.221,36.998,11.674,36.998,11.825,37.383z"/>
<path fill="#529320" d="M7.502,30.072c-3.336,1.447-3.336,0.902,0,2.348C7.87,32.576,7.87,29.912,7.502,30.072z"/>
<path fill="#529320" d="M11.459,21.001c-1.15,0-1.15-3.607,0-3.607C12.608,17.394,12.608,21.001,11.459,21.001z"/>
<path fill="#529320" d="M11.459,26.63c-1.15,0-1.15-3.605,0-3.605C12.608,23.025,12.608,26.63,11.459,26.63z"/>
<path fill="#529320" d="M14.167,31.835c-0.813,0.852-3.25-1.699-2.438-2.551C12.542,28.437,14.979,30.986,14.167,31.835z"/>
<path fill="#529320" d="M19.976,31.525c0,1.201-3.446,1.201-3.446,0C16.53,30.322,19.976,30.322,19.976,31.525z"/>
<path fill="#529320" d="M49.939,26.996c1.652-3.988,1.029-3.988,2.682,0C52.801,27.433,49.758,27.433,49.939,26.996z"/>
<path fill="#529320" d="M46.422,29.642c-1.65-3.99-2.092-3.549,1.896-1.896C48.757,27.927,46.604,30.08,46.422,29.642z"/>
<path fill="#529320" d="M54.24,27.746c3.988-1.652,3.547-2.094,1.896,1.895C55.954,30.078,53.801,27.925,54.24,27.746z"/>
<path fill="#529320" d="M46.551,35.42c-3.987-1.654-3.987-1.029,0-2.682C46.99,32.558,46.99,35.6,46.551,35.42z"/>
<path fill="#529320" d="M56.008,32.738c3.988,1.653,3.988,1.03,0.002,2.682C55.57,35.6,55.57,32.554,56.008,32.738z"/>
<path fill="#529320" d="M46.551,41.377c-3.987-1.656-3.987-1.031,0-2.684C46.99,38.514,46.99,41.557,46.551,41.377z"/>
<path fill="#529320" d="M56.008,38.693c3.988,1.652,3.988,1.031,0.002,2.684C55.57,41.557,55.57,38.512,56.008,38.693z"/>
<path fill="#529320" d="M55.773,50.43c1.648,3.99,2.091,3.547-1.896,1.896C53.438,52.143,55.59,49.992,55.773,50.43z"/>
<path fill="#529320" d="M50.842,53.006c-1.655,3.986-1.03,3.986-2.684,0C47.979,52.566,51.021,52.566,50.842,53.006z"/>
<path fill="#529320" d="M44.946,53.006c-1.655,3.986-1.03,3.986-2.684,0C42.083,52.566,45.126,52.566,44.946,53.006z"/>
<path fill="#529320" d="M56.008,44.652c3.988,1.652,3.988,1.029,0.002,2.682C55.57,47.514,55.57,44.471,56.008,44.652z"/>
<path fill="#529320" d="M51.279,34.289c1.374,0,1.374-4.122,0-4.122C49.906,30.167,49.906,34.289,51.279,34.289z"/>
<path fill="#529320" d="M51.279,40.723c1.374,0,1.374-4.121,0-4.121C49.906,36.602,49.906,40.723,51.279,40.723z"/>
<path fill="#529320" d="M48.044,46.668c0.972,0.971,3.884-1.941,2.913-2.914C49.986,42.783,47.072,45.697,48.044,46.668z"/>
<path fill="#529320" d="M41.1,46.313c0,1.373,4.12,1.373,4.12,0S41.1,44.939,41.1,46.313z"/>
<path fill="#529320" d="M33.344,7.335c-2.89-7.113-1.8-7.113-4.689,0C28.338,8.119,33.662,8.119,33.344,7.335z"/>
<path fill="#529320" d="M39.494,12.058c2.887-7.117,3.658-6.33-3.316-3.385C35.411,9,39.176,12.841,39.494,12.058z"/>
<path fill="#529320" d="M25.823,8.673c-6.977-2.945-6.204-3.732-3.316,3.383C22.825,12.837,26.59,8.998,25.823,8.673z"/>
<path fill="#529320" d="M39.27,21.617c6.973-2.953,6.973-1.838,0.001-4.785C38.502,16.511,38.502,21.939,39.27,21.617z"/>
<path fill="#529320" d="M22.731,16.832c-6.975,2.947-6.975,1.838-0.002,4.785C23.498,21.939,23.498,16.505,22.731,16.832z"/>
<path fill="#529320" d="M39.27,31.496c6.973-2.953,6.973-1.838,0.001-4.785C38.502,26.39,38.502,31.818,39.27,31.496z"/>
<path fill="#529320" d="M22.731,26.71c-6.975,2.947-6.975,1.838-0.002,4.785C23.498,31.818,23.498,26.384,22.731,26.71z"/>
<path fill="#529320" d="M39.27,41.377c6.973-2.953,6.973-1.838,0-4.787C38.502,36.27,38.502,41.697,39.27,41.377z"/>
<path fill="#529320" d="M39.27,51.256c6.973-2.953,6.973-1.838,0-4.787C38.502,46.148,38.502,51.576,39.27,51.256z"/>
<path fill="#529320" d="M22.731,36.59c-6.975,2.949-6.975,1.838-0.002,4.787C23.498,41.697,23.498,36.264,22.731,36.59z"/>
<path fill="#529320" d="M22.731,46.469c-6.975,2.947-6.975,1.838-0.002,4.785C23.498,51.576,23.498,46.143,22.731,46.469z"/>
<path fill="#529320" d="M39.27,61.135c6.973-2.953,6.973-1.838,0-4.787C38.502,56.027,38.502,61.455,39.27,61.135z"/>
<path fill="#529320" d="M22.731,56.348c-6.975,2.949-6.975,1.838-0.002,4.787C23.498,61.455,23.498,56.023,22.731,56.348z"/>
<path fill="#529320" d="M31,21.013c-2.402,0-2.402-7.352,0-7.352C33.401,13.662,33.401,21.013,31,21.013z"/>
<path fill="#529320" d="M31,33.389c-2.402,0-2.402-7.352,0-7.352C33.401,26.037,33.401,33.389,31,33.389z"/>
<path fill="#529320" d="M31,45.764c-2.402,0-2.402-7.352,0-7.352C33.401,38.412,33.401,45.764,31,45.764z"/>
<path fill="#529320" d="M31,58.141c-2.402,0-2.402-7.352,0-7.352C33.401,50.789,33.401,58.141,31,58.141z"/>
</svg>
