<?xml version="1.0" encoding="utf-8"?>
<!-- Generator: Adobe Illustrator 15.0.0, SVG Export Plug-In . SVG Version: 6.00 Build 0)  -->
<!DOCTYPE svg PUBLIC "-//W3C//DTD SVG 1.1//EN" "http://www.w3.org/Graphics/SVG/1.1/DTD/svg11.dtd">
<svg version="1.1" id="Layer_1" xmlns="http://www.w3.org/2000/svg" xmlns:xlink="http://www.w3.org/1999/xlink" x="0px" y="0px"
	 width="64px" height="64px" viewBox="0 0 64 64" enable-background="new 0 0 64 64" xml:space="preserve">
<polygon fill="#B47D56" points="36.72,49.53 27.279,49.53 26,62 38,62 "/>
<path fill="#785647" d="M37.496,55.43l-10.497-4.114l-0.446,5.298c0,0,3.213-1.028,11.373,4.667L37.496,55.43z"/>
<path fill="#7AB51D" d="M60,54.803c0,0-11.758-3.591-27.932-28.534C30.472,23.807,24.384,43.854,4,54.803
	c0,0,6.042,1.468,16.567-1.152c1.087-0.271-1.723,3.562-1.723,3.562s7.638-3.071,10.431-2.889c2.377,0.156,8.289,4.145,8.289,4.145
	s1.962-5.028,2.903-4.613c3.434,1.522,9.451,2.81,9.451,2.81s-4.1-3.511-2.991-3.511S60,54.803,60,54.803z"/>
<path fill="#92C932" d="M60,49.56c0,0-11.758-3.957-27.932-31.434C30.472,15.411,24.384,37.499,4,49.56c0,0,6.042,1.617,16.567-1.27
	c1.087-0.299-1.723,3.925-1.723,3.925s7.638-3.384,10.431-3.183c2.377,0.174,8.002,4.115,8.002,4.115s0.954-4.979,1.896-4.52
	c3.434,1.678,10.746,2.982,10.746,2.982s-4.1-3.866-2.991-3.866S60,49.56,60,49.56z"/>
<path fill="#7AB51D" d="M10.128,41.202c0,0,9.307-3.28,21.94-26.064c1.248-2.25,5.88,16.064,21.803,26.064
	c0,0-4.305,1.458-12.525-0.936c-0.851-0.248,0.221,3.521,0.221,3.521s-5.135-3.189-7.315-3.021
	c-1.857,0.142-6.805,4.944-6.805,4.944s-2.089-5.762-2.824-5.383c-2.682,1.391-6.619,2.575-6.619,2.575s3.202-3.205,2.336-3.205
	C19.474,39.697,10.128,41.202,10.128,41.202z"/>
<path fill="#92C932" d="M10.128,35.99c0,0,9.307-3.282,21.94-26.066c1.248-2.25,5.88,16.065,21.803,26.066
	c0,0-4.72,1.341-12.941-1.052c-0.85-0.249,1.346,3.253,1.346,3.253s-4.705-2.598-6.887-2.43c-1.857,0.144-7.21,5.143-7.21,5.143
	s-1.047-6.068-1.782-5.687c-2.682,1.391-8.394,2.472-8.394,2.472s3.202-3.205,2.336-3.205C19.474,34.484,10.128,35.99,10.128,35.99z
	"/>
<path fill="#7AB51D" d="M50.826,28.869c0,0-8.162-2.314-18.758-18.381c-1.046-1.585-4.572,11.329-17.924,18.381
	c0,0,3.957,0.944,10.852-0.742c0.712-0.177-1.128,2.294-1.128,2.294s5.327-1.798,7.157-1.68c1.557,0.101,5.415,3.225,5.415,3.225
	s0.813-3.646,1.431-3.377c2.25,0.98,6.352,1.478,6.352,1.478s-2.685-2.26-1.959-2.26S50.826,28.869,50.826,28.869z"/>
<path fill="#92C932" d="M50.027,25.192c0,0-7.825-2.314-17.959-18.379c-1-1.587-4.354,11.328-17.125,18.379
	c0,0,3.785,0.945,10.379-0.743c0.682-0.173-1.415,3.439-1.415,3.439s5.647-2.929,7.396-2.812c1.489,0.102,4.091,2.812,4.091,2.812
	s0.994-3.509,1.584-3.239c2.152,0.979,6.732,1.742,6.732,1.742s-2.568-2.261-1.873-2.261C42.531,24.131,50.027,25.192,50.027,25.192
	z"/>
<path fill="#7AB51D" d="M19.785,18.614c0,0,5.229-1.732,12.283-13.764c0.697-1.186,3.254,8.484,12.146,13.764
	c0,0-1.194,0.546-5.786-0.717c-0.474-0.131-0.689,1.878-0.689,1.878s-2.195-1.968-3.414-1.878c-1.036,0.073-4.054,3.264-4.054,3.264
	s-0.989-3.155-1.4-2.956c-1.497,0.735-4.98,2.324-4.98,2.324s2.082-2.71,1.599-2.71C25.004,17.819,19.785,18.614,19.785,18.614z"/>
<path fill="#92C932" d="M20.784,15.861c0,0,4.806-1.731,11.284-13.762c0.641-1.187,2.981,8.482,11.146,13.762
	c0,0-1.128,0.351-5.343-0.913c-0.436-0.131-0.603,2.076-0.603,2.076s-2.535-1.775-3.652-1.688c-0.953,0.078-2.848,2.094-2.848,2.094
	s-1.267-2.177-1.643-1.979c-1.377,0.735-4.305,1.307-4.305,1.307s1.642-1.692,1.198-1.692
	C25.576,15.066,20.784,15.861,20.784,15.861z"/>
</svg>
