<?xml version="1.0" encoding="utf-8"?>
<!-- Generator: Adobe Illustrator 15.0.0, SVG Export Plug-In . SVG Version: 6.00 Build 0)  -->
<!DOCTYPE svg PUBLIC "-//W3C//DTD SVG 1.1//EN" "http://www.w3.org/Graphics/SVG/1.1/DTD/svg11.dtd">
<svg version="1.1" id="Layer_1" xmlns="http://www.w3.org/2000/svg" xmlns:xlink="http://www.w3.org/1999/xlink" x="0px" y="0px"
	 width="64px" height="64px" viewBox="0 0 64 64" enable-background="new 0 0 64 64" xml:space="preserve">
<path fill="#7AB51D" d="M17.879,5.407c0,0-10.098,26.593-8.009,56.593H6.715C6.715,27.649,17.879,5.407,17.879,5.407z"/>
<path fill="#529320" d="M62,20.282C62,20.282,25.888,32,27.978,62h-3.155C24.823,27.649,62,20.282,62,20.282z"/>
<path fill="#529320" d="M18.448,18.782c0,0-3.157,13.218-1.067,43.218h-3.155C14.225,27.649,18.448,18.782,18.448,18.782z"/>
<path fill="#529320" d="M55.197,48.657c0,0-23.429-16.657-21.34,13.343h-3.155C30.703,27.649,55.197,48.657,55.197,48.657z"/>
<path fill="#7AB51D" d="M62,2c0,0-28.121,30-26.031,60h-3.155C32.814,27.649,62,2,62,2z"/>
<path fill="#7AB51D" d="M39.822,6.032c0,0-15.818,25.968-13.729,55.968h-3.154C22.939,27.649,39.822,6.032,39.822,6.032z"/>
<path fill="#92C932" d="M2,2c0,0,11.073,25.532,12.092,60h-3.155C8.813,27.416,2,2,2,2z"/>
<path fill="#92C932" d="M23.955,37.091c-0.217-1.417-3.257,1.358-6.075,12.608c0.693-24.639,4.063-28.507,3.202-27.979
	C18.863,23.078,14.62,33.608,15.738,62h3.46C19.75,39.274,24.316,39.447,23.955,37.091z"/>
<path fill="#F9C802" d="M40.439,21.47c7.936-2.869,16.119-3.841,16.119-3.841S31.5,14.44,21.527,40.566
	c4.207-6.149,10.684-3.557,28-9.446c0,0-14.533,2.572-21.696,2.54c12.604-2.233,22.461-4.25,22.461-4.25s-9.367,0.274-20.907,1.729
	c14.856-2.329,22.098-3.798,22.098-3.798s-7.078-0.286-20.338,1.277c11.622-2.712,21.567-3.559,21.567-3.559
	s-5.566-1.036-18.211,0.879c9.658-2.457,19.375-3.271,19.375-3.271s-4.684-0.749-15.814,0.687c9.043-2.169,17.197-3,17.197-3
	S50.299,19.239,40.439,21.47z"/>
<path fill="#FFE12C" d="M38.359,5.964C46.295,3.096,54.48,2.123,54.48,2.123S29.419-1.065,19.448,25.061
	c4.206-6.149,10.683-3.557,28.001-9.445c0,0-14.536,2.571-21.697,2.539c12.605-2.233,22.46-4.25,22.46-4.25
	s-9.367,0.274-20.906,1.729c14.855-2.329,22.099-3.798,22.099-3.798s-7.08-0.286-20.339,1.277
	c11.623-2.712,21.568-3.559,21.568-3.559s-5.566-1.036-18.211,0.879c9.657-2.457,19.374-3.271,19.374-3.271
	s-4.684-0.749-15.814,0.687c9.045-2.169,17.197-3,17.197-3S48.219,3.733,38.359,5.964z"/>
</svg>
