<?xml version="1.0" encoding="utf-8"?>
<!-- Generator: Adobe Illustrator 15.0.0, SVG Export Plug-In . SVG Version: 6.00 Build 0)  -->
<!DOCTYPE svg PUBLIC "-//W3C//DTD SVG 1.1//EN" "http://www.w3.org/Graphics/SVG/1.1/DTD/svg11.dtd">
<svg version="1.1" id="Layer_1" xmlns="http://www.w3.org/2000/svg" xmlns:xlink="http://www.w3.org/1999/xlink" x="0px" y="0px"
	 width="64px" height="64px" viewBox="0 0 64 64" enable-background="new 0 0 64 64" xml:space="preserve">
<path fill="#529320" d="M30.999,32C33.1,32,34,62,34,62h-6C28,62,28.897,32,30.999,32z"/>
<path fill="#B00505" d="M18.968,4.674c1.699-1.808,4.469-2.704,7.348-2.591c2.766,0.108,3.117,0.979,5.527,0.615
	c7.551-1.144,10.373,2.719,8.916,5.894c9.486-4.422,16.439,2.664,7.266,12.97c-4.252,4.776,3.338,16.43-14.334,20.181
	c-2.893,0.613-5.92,0.189-10.947-1.876c-12.338-5.071-6.014-14.475-11.154-24.536C8.198,8.699,12.856,3.653,18.968,4.674z"/>
<path fill="#E81C27" d="M36.118,8.84c-7.156-7.665-17.092,0.542-7.572,2.566c0.947,0.201,1.873,0.273,2.762,0.246
	c-0.273-1.108-1.297-3.57-4.873-2.019c1.053-2.724,6.773-1.859,7.396,1.649c6.568-1.742,9.268-8.973-1.988-8.585
	c9.764-2.162,11.699,5.946,6.307,8.814c-8.826,4.695-16.422-0.625-16.416-4.316C21.741,2.944,32.274,0.688,36.118,8.84z"/>
<path fill="#E81C27" d="M34.515,24.954c3.287-4.941,12.977-7.299,8.813-10.782c-3.813-3.19-13.447,3.316-21.119-0.354
	c-7.221-3.454-2.518-11.918,4.107-11.734c-6.395-0.687-9.652,2.959-8.961,8.333C18.337,18.021,31.405,21.54,34.515,24.954z"/>
<path fill="#E81C27" d="M35.442,25.734c3.703-4.291,6.729-3.297,11.355-7.916c4.348-4.342,6.395-12.227-5.191-9.59
	c7.604-3.421,18.131,1.17,8.602,15.59c-3.967,6-3.201,15.813-17.311,18.063C37.397,40.305,42.726,32.871,35.442,25.734z"/>
<path fill="#E81C27" d="M35.634,29.069c-4.533-6.102-12.459-6.996-19.125-11.745c-6.467-4.607-6.836-11.951-0.012-12.733
	C11.431,4.594,7.96,9.207,11.351,15.84c5.141,10.061-0.926,19.261,11.412,24.331C32.919,44.347,41.558,37.041,35.634,29.069z"/>
<path fill="#7AB51D" d="M33.144,37.671c14.627-0.526,7.477,4.484-1.99,4.484c-23.289,0-17.316-16.79-17.316-16.79
	S17.46,38.235,33.144,37.671z"/>
<path fill="#92C932" d="M32.396,37.694c-6.492,0.125-14.225,3.18-4.908,4.636c20.725,3.239,19.898-12.39,19.898-12.39
	S45.495,37.442,32.396,37.694z"/>
<path fill="#7AB51D" d="M30.254,58.133C10,65.115,10,41.683,10,41.683S27.052,49.91,30.254,58.133z"/>
<path fill="#92C932" d="M30.254,58.133C25.877,50.539,10,41.683,10,41.683S37.375,41.683,30.254,58.133z"/>
<path fill="#785647" d="M32.756,52.427c8.579-3.633,8.579-2.261,0.001-5.887C31.813,46.146,31.813,52.823,32.756,52.427z"/>
</svg>
