<?xml version="1.0" encoding="utf-8"?>
<!-- Generator: Adobe Illustrator 15.0.0, SVG Export Plug-In . SVG Version: 6.00 Build 0)  -->
<!DOCTYPE svg PUBLIC "-//W3C//DTD SVG 1.1//EN" "http://www.w3.org/Graphics/SVG/1.1/DTD/svg11.dtd">
<svg version="1.1" id="Layer_1" xmlns="http://www.w3.org/2000/svg" xmlns:xlink="http://www.w3.org/1999/xlink" x="0px" y="0px"
	 width="64px" height="64px" viewBox="0 0 64 64" enable-background="new 0 0 64 64" xml:space="preserve">
<path fill="#7AB51D" d="M25.734,42.166C27.387,67.654,2,61.295,2,61.295S15.89,43.665,25.734,42.166z"/>
<path fill="#92C932" d="M25.734,42.166C16.228,45.201,2,61.295,2,61.295S9.989,29.406,25.734,42.166z"/>
<path fill="#7AB51D" d="M34.1,41.859c-6.623,23.204,23.556,19.989,23.556,19.989S45.065,44.25,34.1,41.859z"/>
<path fill="#92C932" d="M34.1,41.859c10.292,3.764,23.556,19.989,23.556,19.989S54.452,31.781,34.1,41.859z"/>
<path fill="#7AB51D" d="M41.319,28.762c11.734,12.418,20.682-7.115,20.682-7.115S46.737,22.951,41.319,28.762z"/>
<path fill="#92C932" d="M41.319,28.762c6.01-4.904,20.682-7.115,20.682-7.115S42.538,12.73,41.319,28.762z"/>
<path fill="#E84D88" d="M32.367,30.813c5.256-12.71-3.854-39.18-16.466-24.498C0.762,13.166,18.566,29.25,32.367,30.813z"/>
<path fill="#D14267" d="M32.367,30.813c6.366-20.42-5.654-27.656-5.654-27.656C30.379,12.799,22.275,24.516,32.367,30.813z"/>
<path fill="#F6BEC1" d="M32.367,30.813c-3.859-6.436-11.381-18.246-12.379-17.913C18.711,13.322,24.5,23.314,32.367,30.813z"/>
<path fill="#E84D88" d="M32.24,30.926C51.298,27.262,65.716,7.431,44.665,4.294C30.459-4.192,26.104,18.936,32.24,30.926z"/>
<path fill="#D14267" d="M32.24,30.926c10.743-1.783,16.917-8.32,16.917-8.32C42.396,26.75,35.014,21.773,32.24,30.926z"/>
<path fill="#F6BEC1" d="M32.24,30.926c3.518-6.619,9.733-19.123,8.901-19.747C40.077,10.381,34.506,20.492,32.24,30.926z"/>
<path fill="#E84D88" d="M32.32,30.723c12.366-6.756,37.151-3.57,27.499,12.311C51.667,66.101,35.83,43.654,32.32,30.723z"/>
<path fill="#D14267" d="M32.32,30.723c11.909,4.148,5.903,11.875,11.368,19.117C43.688,49.84,34.998,42.244,32.32,30.723z"/>
<path fill="#F6BEC1" d="M32.32,30.723c7.161,2.789,20.358,8.33,20.153,9.326C52.214,41.322,41.126,37.184,32.32,30.723z"/>
<path fill="#E84D88" d="M32.322,30.813c9.372,10.273,8.163,40.422-6.988,28.401C8.688,57.653,19.863,36.746,32.322,30.813z"/>
<path fill="#D14267" d="M32.24,30.926C33.605,41.215,20.814,43.6,17.246,48.902C17.246,48.902,19.783,36.857,32.24,30.926z"/>
<path fill="#F6BEC1" d="M32.322,30.813c-1.396,7.31-4.375,20.868-5.43,20.877C25.543,51.703,27.52,40.418,32.322,30.813z"/>
<path fill="#E84D88" d="M32.383,30.869c-6.045,12.38-33.627,25.437-29.851,5.223C-1.783,17.402,21.24,21.168,32.383,30.869z"/>
<path fill="#D14267" d="M32.281,30.871c-4.525,2.416-13.674-4.631-24.682-7.365c0,0,3.062-1.193,8.193-0.414
	C21.998,28.566,29.805,30.836,32.281,30.871z"/>
<path fill="#F6BEC1" d="M32.383,30.869c-7.521,1.699-21.63,4.508-22.061,3.582C9.771,33.266,21.313,30.486,32.383,30.869z"/>
<path fill="#FABF49" d="M6.257,14.552c8.268,4.925,25.194,20.397,26.958,17.128C35.137,28.118,19.486,18.096,6.257,14.552z"/>
<path fill="#FABF49" d="M9.645,17.262c-0.098,2.57-3.947,2.424-3.851-0.148C5.893,14.542,9.742,14.689,9.645,17.262z"/>
<path fill="#FFD582" d="M8.951,14.017c-0.1,2.571-3.948,2.425-3.85-0.147C5.199,11.297,9.048,11.444,8.951,14.017z"/>
<path fill="#FABF49" d="M15.892,15.588c-0.13,3.43-5.263,3.233-5.133-0.195C10.89,11.965,16.023,12.16,15.892,15.588z"/>
<path fill="#FABF49" d="M16.969,21.064c-0.098,2.572-3.947,2.424-3.85-0.146C13.217,18.346,17.068,18.494,16.969,21.064z"/>
<path fill="#FEEC9A" d="M10.662,17.965c-0.065,1.713-2.631,1.614-2.565-0.098C8.162,16.152,10.727,16.25,10.662,17.965z"/>
<path fill="#FEEC9A" d="M13.331,21.695c-0.065,1.713-2.632,1.615-2.565-0.1C10.83,19.883,13.396,19.98,13.331,21.695z"/>
<path fill="#FEEC9A" d="M13.184,12.91c-0.065,1.715-2.633,1.616-2.567-0.098C10.682,11.1,13.248,11.195,13.184,12.91z"/>
<path fill="#FABF49" d="M11.025,14.739c-0.064,1.714-2.632,1.616-2.565-0.098C8.525,12.928,11.09,13.025,11.025,14.739z"/>
<path fill="#FEEC9A" d="M17.283,17.741c-0.066,1.714-2.632,1.616-2.567-0.099C14.782,15.93,17.348,16.027,17.283,17.741z"/>
<path fill="#FFD582" d="M6.038,15.515c-0.065,1.714-2.631,1.614-2.567-0.099C3.536,13.702,6.103,13.801,6.038,15.515z"/>
<path fill="#FFD582" d="M14.344,16.154c-0.064,1.713-2.631,1.615-2.566-0.098C11.843,14.342,14.41,14.44,14.344,16.154z"/>
<path fill="#FFD582" d="M13.582,19.342c-0.099,2.572-3.948,2.424-3.85-0.146C9.83,16.624,13.678,16.772,13.582,19.342z"/>
</svg>
