<?xml version="1.0" encoding="utf-8"?>
<!-- Generator: Adobe Illustrator 15.0.0, SVG Export Plug-In . SVG Version: 6.00 Build 0)  -->
<!DOCTYPE svg PUBLIC "-//W3C//DTD SVG 1.1//EN" "http://www.w3.org/Graphics/SVG/1.1/DTD/svg11.dtd">
<svg version="1.1" id="Layer_1" xmlns="http://www.w3.org/2000/svg" xmlns:xlink="http://www.w3.org/1999/xlink" x="0px" y="0px"
	 width="64px" height="64px" viewBox="0 0 64 64" enable-background="new 0 0 64 64" xml:space="preserve">
<path fill="#92C932" d="M29.735,25.345c7.241-6.759,26.301,2.106,25.08,11.432c0,0-2.047,0.538-4.175-0.27
	c0.34-1.183,0.087-3.001,0.087-3.001s-0.44,1.814-1.784,2.803c0.374-1.091-0.107-2.608-0.107-2.608s-0.331,1.401-1.454,2.207
	c-3.303-0.626-7.487-3.18-7.487-3.18c1.717-2.322,2.165-5.216,2.165-5.216s-1.29,2.942-3.655,4.486
	c0.438-1.502,0.942-3.157,0.942-3.157s-0.795,1.283-2.282,2.158C37.064,30.998,34.249,29.558,29.735,25.345z"/>
<path fill="#92C932" d="M27.521,27.375C21.946,16.433,40.207-2.152,51.261,2.832c0,0-0.12,2.566-1.934,4.712
	c-1.33-0.846-3.675-1.251-3.675-1.251s2.073,1.204,2.778,3.132c-1.203-0.851-3.265-0.877-3.265-0.877s1.605,0.919,2.172,2.524
	c-2.04,3.569-6.802,7.416-6.802,7.416c-2.21-2.871-5.614-4.497-5.614-4.497s3.14,2.616,4.142,5.935
	c-1.689-1.081-3.539-2.296-3.539-2.296s1.279,1.409,1.79,3.459C37.314,21.088,34.456,23.784,27.521,27.375z"/>
<path fill="#7AB51D" d="M30.596,25.584c4.938-8.862-10.843-26.288-20.513-22.98c0,0,0.086,2.202,1.651,4.188
	c1.166-0.608,3.213-0.753,3.213-0.753s-1.816,0.851-2.445,2.437c1.056-0.624,2.851-0.47,2.851-0.47s-1.405,0.647-1.91,1.968
	c1.752,3.222,5.875,6.914,5.875,6.914c1.947-2.262,4.925-3.359,4.925-3.359s-2.755,1.965-3.651,4.712
	c1.479-0.778,3.102-1.657,3.102-1.657s-1.127,1.093-1.586,2.799C22.106,19.381,24.577,21.926,30.596,25.584z"/>
<polygon fill="#8A6859" points="43.332,62 33.311,62 27.716,31.396 34.053,31.396 "/>
<path fill="#785647" d="M43.332,62h-3.156c-3.927-16.163-7.987-30.388-11.334-24.446l-1.126-6.158h6.337L43.332,62z"/>
<path fill="#B47D56" d="M32.945,33.227c-4.139-1.422-1.453-9.122,2.684-7.699C39.764,26.948,37.078,34.648,32.945,33.227z"/>
<path fill="#9E6C49" d="M37.028,26.518c-0.281,2.803-3.11,5.775-5.853,5.081c0.312,0.73,0.883,1.324,1.77,1.628
	C36.472,34.439,38.939,29.022,37.028,26.518z"/>
<path fill="#B47D56" d="M26.721,35.377c-4.303-2.544,0.501-10.55,4.803-8.005C35.823,29.914,31.02,37.92,26.721,35.377z"/>
<path fill="#C4926E" d="M27.888,30.209c-0.926-0.793,1.54-3.063,2.466-2.271C31.278,28.731,28.812,31.001,27.888,30.209z"/>
<path fill="#C4926E" d="M33.081,27.954c-0.926-0.792,1.001-2.604,1.927-1.813C35.933,26.935,34.006,28.747,33.081,27.954z"/>
<path fill="#9E6C49" d="M32.859,28.803c-0.968,3.073-4.83,5.753-7.741,4.344c0.18,0.889,0.682,1.687,1.604,2.231
	C30.387,37.547,34.416,32.047,32.859,28.803z"/>
<polygon fill="#45332C" points="31.504,52.119 31.936,54.482 38.004,53.288 "/>
<polygon fill="#45332C" points="30.316,45.618 30.721,47.833 36.406,46.712 "/>
<polygon fill="#45332C" points="29.121,39.077 29.512,41.22 35.008,40.137 "/>
<polygon fill="#45332C" points="42.027,57.698 41.354,55.479 35.785,56.574 "/>
<polygon fill="#45332C" points="40.01,51.047 39.381,48.977 34.188,49.999 "/>
<polygon fill="#45332C" points="38.006,44.435 37.4,42.437 32.389,43.424 "/>
<polygon fill="#45332C" points="36.021,37.894 35.395,35.826 30.215,36.849 "/>
<path fill="#7AB51D" d="M30.166,27.257c2.233-11.123,26.55-14.97,31.834-5.285c0,0-1.58,1.835-4.169,2.439
	c-0.494-1.348-1.993-2.92-1.993-2.92s0.835,2.016,0.236,3.826c-0.396-1.283-1.906-2.42-1.906-2.42s0.653,1.551,0.14,3.045
	c-3.584,1.535-9.344,1.799-9.344,1.799c0.032-3.324-1.542-6.375-1.542-6.375s0.803,3.64-0.385,6.64
	c-0.621-1.716-1.284-3.62-1.284-3.62s0.128,1.737-0.686,3.532C41.067,27.918,37.386,28.362,30.166,27.257z"/>
<path fill="#7AB51D" d="M31.49,26.331c-7.7-6.72-27.018,3.05-25.425,12.615c0,0,2.127,0.486,4.291-0.417
	c-0.393-1.206-0.197-3.089-0.197-3.089s0.52,1.854,1.939,2.828c-0.426-1.111,0.016-2.691,0.016-2.691s0.391,1.434,1.576,2.226
	c3.38-0.756,7.6-3.527,7.6-3.527c-1.852-2.334-2.418-5.3-2.418-5.3s1.436,2.987,3.926,4.498c-0.504-1.532-1.082-3.22-1.082-3.22
	s0.864,1.295,2.428,2.146C24.144,32.399,26.991,30.822,31.49,26.331z"/>
<path fill="#92C932" d="M30.84,26.518C31.277,16.463,9.205,7.441,2,14.496c0,0,1.072,1.944,3.377,3.071
	c0.774-1.039,2.55-2.033,2.55-2.033s-1.25,1.531-1.099,3.224c0.668-1.006,2.354-1.625,2.354-1.625s-0.972,1.175-0.829,2.576
	c3.032,2.159,8.409,3.742,8.409,3.742c0.729-2.856,2.913-5.099,2.913-5.099s-1.591,2.93-1.156,5.779
	c0.979-1.324,2.041-2.799,2.041-2.799s-0.52,1.459-0.162,3.188C20.397,24.519,23.771,25.766,30.84,26.518z"/>
</svg>
