<?xml version="1.0" encoding="utf-8"?>
<!-- Generator: Adobe Illustrator 15.0.0, SVG Export Plug-In . SVG Version: 6.00 Build 0)  -->
<!DOCTYPE svg PUBLIC "-//W3C//DTD SVG 1.1//EN" "http://www.w3.org/Graphics/SVG/1.1/DTD/svg11.dtd">
<svg version="1.1" id="Layer_1" xmlns="http://www.w3.org/2000/svg" xmlns:xlink="http://www.w3.org/1999/xlink" x="0px" y="0px"
	 width="64px" height="64px" viewBox="0 0 64 64" enable-background="new 0 0 64 64" xml:space="preserve">
<path fill="#529320" d="M43.159,59.813c0.333,2.918,4.863,2.913,4.482,0C45.4,42.696,30.26,29.772,30.26,29.772h-1.809
	C28.452,29.772,41.1,41.752,43.159,59.813z"/>
<g>
	<path fill="#92C932" d="M31.169,27.423C48.327,25.563,71.326,4.052,47.271,3.886C30.165-4.343,24.058,16.357,31.169,27.423z"/>
	<path fill="#7AB51D" d="M31.182,27.3c4.877-4.667-3.496-11.121,0.122-20.808C31.304,6.492,24.071,16.234,31.182,27.3z"/>
</g>
<g>
	<path fill="#92C932" d="M32.652,27.33c-14.331,9.114-40.09,8.974-27.1-8.593C13.518,1.718,31.173,14.238,32.652,27.33z"/>
	<path fill="#7AB51D" d="M32.652,27.33C19.369,35.361,9.21,33.093,9.21,33.093C18.525,32.976,25.855,22.87,32.652,27.33z"/>
</g>
<g>
	<path fill="#92C932" d="M32.114,26.723c10.82,15.431,4.434,37.286-13.653,24.526C0.811,46.439,17.379,29.613,32.114,26.723z"/>
	<path fill="#7AB51D" d="M32.114,26.723c6.341,8.529,5.278,16.724,5.278,16.724C35.674,37.408,27.264,34.447,32.114,26.723z"/>
</g>
<g>
	<path fill="#92C932" d="M32.188,26.614c0.504,13.783,21.42,32.343,26.461,10.997C70.812,19.355,47.063,18.829,32.188,26.614z"/>
	<path fill="#7AB51D" d="M32.114,26.723c4.091,2.573,15.304-2.218,27.06-2.919c0,0-4.776-3.392-13.565-1.514
		C37.283,26.615,34.447,26.905,32.114,26.723z"/>
</g>
<path fill="#7AB51D" d="M34.468,21.855C39.873,9.041,46.05,6.478,45.218,5.854C44.153,5.056,36.733,11.422,34.468,21.855z"/>
<path fill="#7AB51D" d="M38.059,28.664c13.647,2.68,17.416,8.204,17.857,7.263C56.48,34.723,48.735,28.755,38.059,28.664z"/>
<path fill="#7AB51D" d="M29.528,29.906C20.636,40.6,21.2,47.264,20.264,46.813C19.066,46.234,21.305,36.717,29.528,29.906z"/>
<path fill="#7AB51D" d="M27.457,23.539C15.07,17.216,8.693,19.23,8.927,18.218C9.228,16.922,19.004,17.015,27.457,23.539z"/>
</svg>
