<?xml version="1.0" encoding="utf-8"?>
<!-- Generator: Adobe Illustrator 16.2.0, SVG Export Plug-In . SVG Version: 6.00 Build 0)  -->
<!DOCTYPE svg PUBLIC "-//W3C//DTD SVG 1.1//EN" "http://www.w3.org/Graphics/SVG/1.1/DTD/svg11.dtd">
<svg version="1.1" id="Layer_1" xmlns="http://www.w3.org/2000/svg" xmlns:xlink="http://www.w3.org/1999/xlink" x="0px" y="0px"
	 width="64px" height="64px" viewBox="0 0 64 64" enable-background="new 0 0 64 64" xml:space="preserve">
<path fill="#92C932" d="M31.873,13.802C29.565,13.802,3,5.026,3,30.015C3,45.183,18.712,62,25.569,62c3.11,0,4.499-1.99,6.304-1.99
	c1.838,0,2.159,1.99,6.141,1.99C44.873,62,61,43.441,61,30.015C61,5,34.181,13.802,31.873,13.802z"/>
<path fill="#92C932" d="M33.994,10.567c2.872-12.742,20.49-7.498,20.49-7.498C46.428,16.633,33.994,10.567,33.994,10.567z"/>
<path fill="#7AB51D" d="M33.994,10.567c0,0,12.808,6.077,20.49-7.498C54.484,3.069,43.071,4.783,33.994,10.567z"/>
<path fill="#A6E639" d="M54.24,3.069c-11.922,1.037-23.705,8.539-22.764,9.108C32.755,12.952,37.682,6.429,54.24,3.069z"/>
<path fill="#B47D56" d="M32.671,18C30.122,15.463,31,5.923,32.949,5.923C36.177,5.923,30.56,9.224,32.671,18z"/>
<path fill="#529320" d="M32,16.95c-5.385-0.068-7.504-2.782-13.678-1.692c6.553,0,8.026,3.574,13.678,3.742
	c5.652-0.168,7.063-3.742,13.678-3.742C39.506,14.168,37.385,16.881,32,16.95z"/>
<path fill="#A6E639" d="M14.154,22.291c-2.826-1.397-5.118,2.51-3.746,5.812C13.478,35.485,24,31.063,24,25.685
	C24,22.741,20.504,25.43,14.154,22.291z"/>
<path fill="#7AB51D" d="M31.423,57.667C17,57.667,10,49.372,10,49.372l0,0C15.084,56.702,21.721,62,25.569,62
	c3.11,0,4.499-1.99,6.304-1.99c1.838,0,2.159,1.99,6.141,1.99C44.873,62,61,43.441,61,30.015C61,43.529,44.239,57.667,31.423,57.667
	z"/>
</svg>
