<?xml version="1.0" encoding="utf-8"?>
<!-- Generator: Adobe Illustrator 16.2.0, SVG Export Plug-In . SVG Version: 6.00 Build 0)  -->
<!DOCTYPE svg PUBLIC "-//W3C//DTD SVG 1.1//EN" "http://www.w3.org/Graphics/SVG/1.1/DTD/svg11.dtd">
<svg version="1.1" id="Layer_1" xmlns="http://www.w3.org/2000/svg" xmlns:xlink="http://www.w3.org/1999/xlink" x="0px" y="0px"
	 width="64px" height="64px" viewBox="0 0 64 64" enable-background="new 0 0 64 64" xml:space="preserve">
<path fill="#529320" d="M16.051,13.352C18.951-4.736,41,4.427,41,4.427C31.472,23.373,16.051,13.352,16.051,13.352z"/>
<path fill="#7AB51D" d="M16.205,13.022C16.211,13.022,28,5.362,41,4.427c0,0-21.999-9.352-24.937,8.656"/>
<path fill="#92C932" d="M41,4.427c-14.603,0.354-27.098,8.708-25.924,9.627C16.665,15.306,20.766,7.711,41,4.427z"/>
<path fill="#B47D56" d="M20,20C19.663,15.5,9.983,9.903,8.392,12.795C6.229,16.729,13.427,12.114,20,20z"/>
<path fill="#7AB51D" d="M57.171,60.478c0.421,0.423,2.406,0.923,3.318,0.008c0.907-0.911,0.413-2.892-0.012-3.317
	c-0.42-0.42-1.505-0.025-2.419,0.888C57.146,58.972,56.744,60.053,57.171,60.478z"/>
<path fill="#FFE12C" d="M16.764,21.601c-0.521-0.688,0.139-2.314,1.54-3.729c1.4-1.414,3.021-1.479,3.696-0.946
	c8-5.008,20.929-3.935,30.772,5.924c8.319,8.403,11.18,19.757,7.903,28.2c1.647,2.075,1.066,5.611-1.458,8.157
	c-2.521,2.552-6.031,3.137-8.084,1.463c-8.359,3.294-19.588-0.596-27.901-8.991C13.918,42.278,11.44,30.18,16.764,21.601z"/>
<path fill="#F9C802" d="M14,32c0.917,19.417,18,30,29.833,30c3.086,0,5.459-0.553,7.305-1.334c-0.001,0-0.005,0.005-0.005,0.005
	c3.716,2.962,7.866-1.252,7.866-1.252s-3.118,1.712-4.207,0.623C53.76,59.01,57,55.167,57,55.167S29.534,66.176,16.748,39.165
	c5.013-8.244,0.399-15.317,0.399-15.317L14,32z"/>
<path fill="#529320" d="M9.884,14.129C-8.394,26,10.834,44.998,10.834,44.998C25.571,26,9.884,14.129,9.884,14.129z"/>
<path fill="#7AB51D" d="M10.834,44.997L10.834,44.997C27.494,26,9.884,14.129,9.884,14.129S5.456,28.249,10.834,44.997z"/>
<path fill="#92C932" d="M10.834,45c-6.075-15.852-2.191-32.81-0.63-31.97C12.329,14.167,5.583,21.764,10.834,45z"/>
<path fill="#FEEC9A" d="M50.316,32c-6.453,0-16.544-12-10.414-12C46.335,20,55.902,32,50.316,32z"/>
</svg>
