<?xml version="1.0" encoding="utf-8"?>
<!-- Generator: Adobe Illustrator 15.0.0, SVG Export Plug-In . SVG Version: 6.00 Build 0)  -->
<!DOCTYPE svg PUBLIC "-//W3C//DTD SVG 1.1//EN" "http://www.w3.org/Graphics/SVG/1.1/DTD/svg11.dtd">
<svg version="1.1" id="Layer_1" xmlns="http://www.w3.org/2000/svg" xmlns:xlink="http://www.w3.org/1999/xlink" x="0px" y="0px"
	 width="64px" height="64px" viewBox="0 0 64 64" enable-background="new 0 0 64 64" xml:space="preserve">
<path fill="#F9C802" d="M56.311,29.525c15.98,16.232-9.318,41.927-25.299,25.696C8.503,32.358,33.802,6.663,56.311,29.525z"/>
<path fill="#F59E01" d="M32.274,48.412c-6.104-6.201-8.671-12.602-8.752-18.193c-2.776,6.731-1.297,16.077,7.492,25.003
	c12.514,12.711,30.737-0.289,30.383-14.32C57.093,51.737,42.703,59.005,32.274,48.412z"/>
<path fill="#EA8800" d="M57.493,49.298c-1.362-0.9-3.571-1.209-7.098-0.306c0,0-1.347,4.874,0.326,7.652
	C51.419,53.009,54.211,50.034,57.493,49.298z"/>
<path fill="#EA8800" d="M52.829,43.761c-1.618-1.131-4.156-1.657-8.101-0.908c0,0-1.159,5.44,0.958,8.735
	C46.2,47.505,49.15,44.339,52.829,43.761z"/>
<path fill="#EA8800" d="M46.991,38.377c-1.461-1.008-3.77-1.45-7.381-0.706c0,0-1.138,4.982,0.746,7.957
	C40.887,41.894,43.625,38.96,46.991,38.377z"/>
<path fill="#EA8800" d="M41.197,33.079c-1.338-0.923-3.452-1.329-6.762-0.646c0,0-1.041,4.564,0.685,7.289
	C35.604,36.302,38.113,33.613,41.197,33.079z"/>
<path fill="#EA8800" d="M60.065,41.357c-0.921-0.867-2.645-1.365-5.671-1.056c0,0-1.508,3.485-0.706,5.873
	C55.278,42.707,56.869,41.594,60.065,41.357z"/>
<path fill="#EA8800" d="M56.25,35.118c-1.093-0.874-2.561-1.777-5.549-1.336c0,0-1.356,3.965-0.095,6.441
	C51.459,36.865,53.137,35.483,56.25,35.118z"/>
<path fill="#EA8800" d="M51.569,30.03c-1.407-0.987-3.505-1.531-6.628-1.114c0,0-0.459,4.324,1.541,7.074
	C46.785,31.832,47.969,30.283,51.569,30.03z"/>
<path fill="#EA8800" d="M45.24,24.749c-1.565-0.756-3.737-0.972-6.757-0.086c0,0,0.296,4.328,2.752,6.73
	C41.139,27.381,41.59,25.495,45.24,24.749z"/>
<path fill="#EA8800" d="M60.489,46.321c0,0,1.921-1.206,1.431-3.92c0,0-4.337,0.909-4.062,4.402
	C59.577,44.354,60.489,46.321,60.489,46.321z"/>
<path fill="#EA8800" d="M55.387,29.392c0,0,0.442-2.162-1.826-3.68c0,0-2.291,3.639,0.384,5.839
	C53.365,28.678,55.387,29.392,55.387,29.392z"/>
<path fill="#EA8800" d="M60.091,36.943c0,0,1.243-1.952-0.666-4.922c0,0-3.763,2.322-1.653,6.249
	C58.162,34.951,60.091,36.943,60.091,36.943z"/>
<path fill="#EA8800" d="M48.897,23.929c0,0-0.546-2.402-3.24-2.777c0,0-0.469,4.829,2.889,5.684
	C46.773,24.237,48.897,23.929,48.897,23.929z"/>
<path fill="#EA8800" d="M42.661,59.034c-0.854-0.935-1.344-2.686-1.039-5.76c0,0,3.432-1.531,5.782-0.717
	C43.99,54.173,42.894,55.788,42.661,59.034z"/>
<path fill="#EA8800" d="M36.519,55.159c-0.86-1.11-1.749-2.601-1.315-5.636c0,0,3.904-1.378,6.342-0.095
	C38.238,50.293,36.877,51.997,36.519,55.159z"/>
<path fill="#EA8800" d="M31.509,50.405c-0.973-1.43-1.507-3.56-1.097-6.731c0,0,4.257-0.467,6.965,1.564
	C33.282,45.546,31.758,46.748,31.509,50.405z"/>
<path fill="#EA8800" d="M26.31,43.977c-0.745-1.59-0.958-3.796-0.086-6.862c0,0,4.26,0.3,6.626,2.794
	C28.9,39.811,27.044,40.269,26.31,43.977z"/>
<path fill="#D47706" d="M47.549,59.466c0,0-1.188,1.949-3.86,1.453c0,0,0.896-4.405,4.335-4.127
	C45.611,58.539,47.549,59.466,47.549,59.466z"/>
<path fill="#D47706" d="M30.881,54.282c0,0-2.129,0.449-3.623-1.855c0,0,3.583-2.326,5.749,0.391
	C30.178,52.229,30.881,54.282,30.881,54.282z"/>
<path fill="#D47706" d="M38.315,59.061c0,0-1.922,1.263-4.848-0.677c0,0,2.288-3.822,6.153-1.68
	C36.354,57.103,38.315,59.061,38.315,59.061z"/>
<path fill="#D47706" d="M25.501,47.691c0,0-2.364-0.555-2.734-3.291c0,0,4.755-0.477,5.596,2.935
	C25.806,45.535,25.501,47.691,25.501,47.691z"/>
<path fill="#7AB51D" d="M36.303,6.729c-4.363,8.269-4.431,11.652-4.064,18.803C26.9,27.271,21.766,16.151,36.303,6.729z"/>
<path fill="#529320" d="M13.355,39.764c5.146-6.357,9.132-7.32,16.173-6.948C31.24,27.395,17.982,23.022,13.355,39.764z"/>
<path fill="#529320" d="M2,22.402c5.645,1.624,8.922-4.073,20.583-1.443C25.453,26.698,8.481,29.113,2,22.402z"/>
<path fill="#7AB51D" d="M45.362,21.707c-6.988,1.703-9.199,3.787-13.684,8.599C28.541,27.095,33.783,15.932,45.362,21.707z"/>
<path fill="#529320" d="M24.424,3.187c1.911,5.056-4.802,8.83-1.703,19.364C29.489,24.499,32.333,8.375,24.424,3.187z"/>
<path fill="#529320" d="M40.99,13.492c-6.26,5.228-7.205,9.277-6.84,16.43C28.811,31.656,24.508,18.193,40.99,13.492z"/>
<path fill="#7AB51D" d="M7.694,34.01c8.143-4.433,11.47-4.501,18.512-4.126C27.917,24.459,16.972,19.245,7.694,34.01z"/>
<path fill="#297124" d="M22.428,44.301c1.676-7.101,3.721-9.349,8.462-13.902C27.729,27.211,16.741,32.538,22.428,44.301z"/>
<path fill="#92C932" d="M11.188,3c8.25,5.515,14.833,3.896,15.815,20.656C21.648,21.972,12.818,20.206,11.188,3z"/>
<path fill="#7AB51D" d="M8.841,13.422c5.43,8.378,3.836,15.066,20.336,16.064C27.52,24.045,25.782,15.078,8.841,13.422z"/>
<path fill="#A6E639" d="M24.699,10.369c-0.892,7.079,9.554,5.245,8.025,19.168C26.198,30.068,14.45,20.779,24.699,10.369z"/>
<path fill="#92C932" d="M17.129,28.216c6.466-2.486,2.377,7.47,15.04,2.786C34.179,24.93,28.749,16.415,17.129,28.216z"/>
<path fill="#529320" d="M36.31,38.084c-2.493-5.35,3.282-12.588-3.55-12.797C29.068,25.175,18.486,33.333,36.31,38.084z"/>
</svg>
