<?xml version="1.0" encoding="utf-8"?>
<!-- Generator: Adobe Illustrator 16.2.0, SVG Export Plug-In . SVG Version: 6.00 Build 0)  -->
<!DOCTYPE svg PUBLIC "-//W3C//DTD SVG 1.1//EN" "http://www.w3.org/Graphics/SVG/1.1/DTD/svg11.dtd">
<svg version="1.1" id="Layer_1" xmlns="http://www.w3.org/2000/svg" xmlns:xlink="http://www.w3.org/1999/xlink" x="0px" y="0px"
	 width="64px" height="64px" viewBox="0 0 64 64" enable-background="new 0 0 64 64" xml:space="preserve">
<path fill="#E81C27" d="M62,32c0,10.292-13.24,28-30,28C15.241,60,2,48.568,2,31C2,9.38,17.5,9,32,9C42.25,10.5,62,3.249,62,32z"/>
<path fill="#F46C60" d="M26.848,26.75c-10.059-0.775-21.419-7.011-16.779,2.357C17.899,44.917,54.438,28.874,26.848,26.75z"/>
<path fill="#C21413" d="M13.875,14.03c0,0,7.153-0.696,11.375,3.526l4.205-5.299C29.455,12.257,19.75,9.81,13.875,14.03z"/>
<path fill="#B00505" d="M32,8c-5.835,0-13.336,0.345-19.378,3.394c0,0,12.511-2.217,20.028,2.004c0,0,8.35-6.398,22.013-1.343
	C48,8,36,8,32,8z"/>
<path fill="#C21413" d="M49.084,11.739c0,0-4.736-0.487-7.91,4.137C41.174,15.876,34.168,5.979,49.084,11.739z"/>
<path fill="#C21413" d="M46.284,35.803c0,0,1.966-8.87,0.716-14.336c0,0,2.293-1.387,6.021-1.387c0,0-7.252-4.624-10.264-1.352
	C42.76,18.728,42.76,30.333,46.284,35.803z"/>
<path fill="#C21413" d="M16.423,17.557c0,0-2.907,5.706-2.423,10.443c0,0,3.127-5.675,11.333-7.792
	c5.486-1.415,5.885-6.179,5.885-6.179L16.423,17.557z"/>
<path fill="#92C932" d="M10.979,27.019c6.183-9.639,16.822-6.802,19.621-10.356c0,6.869,4.994,3.536,7.517,6.63
	c3.244,3.978,4.434,11.105,8.167,12.51c-3.677-7.896,2.344-7.588-6.116-18.185c4.458,2.769,6.77-0.033,12.854,2.461
	c-5.207-8.51-13.537-6.05-13.537-6.05s5.24-4.785,9.602-2.29c-4.621-6.802-17.864,1.846-17.864,1.846s-5.532-9.468-17.344,0.444
	c6.864-2.802,14.545,0,14.545,0S15.892,10.92,10.979,27.019z"/>
<path fill="#529320" d="M10.979,27.019c0,0,7.256-13.467,19.85-12.271C19.764,9.587,10.979,20.422,10.979,27.019z"/>
<path fill="#529320" d="M13.875,14.03c0,0,9.208-6.903,17.344,0C28.778,5.554,16.51,9.519,13.875,14.03z"/>
<path fill="#529320" d="M33.204,14.851c12.17,5.639,8.069,11.963,13.08,20.952C42.943,28.374,51.264,14.851,33.204,14.851z"/>
<path fill="#529320" d="M27.77,14.134c0,0,2.802-4.206,3.807-9.49c0.131-0.694,3.071-0.634,2.974,0.069
	c-0.955,6.801,1.68,10.561,1.68,10.561S34.115,16,31.513,16C28.974,16,27.77,14.134,27.77,14.134z"/>
<ellipse fill="#92C932" cx="33.063" cy="4.644" rx="1.487" ry="0.644"/>
<path fill="#C21413" d="M54.663,12.055C61.141,18.531,66.5,51.82,32,60c16.76,0,30-12.648,30-29
	C62,15.354,54.663,12.055,54.663,12.055z"/>
</svg>
