<?xml version="1.0" encoding="utf-8"?>
<!-- Generator: Adobe Illustrator 15.0.0, SVG Export Plug-In . SVG Version: 6.00 Build 0)  -->
<!DOCTYPE svg PUBLIC "-//W3C//DTD SVG 1.1//EN" "http://www.w3.org/Graphics/SVG/1.1/DTD/svg11.dtd">
<svg version="1.1" id="Layer_1" xmlns="http://www.w3.org/2000/svg" xmlns:xlink="http://www.w3.org/1999/xlink" x="0px" y="0px"
	 width="64px" height="64px" viewBox="0 0 64 64" enable-background="new 0 0 64 64" xml:space="preserve">
<path fill="#ED7612" d="M31,10c16.016,0,28,11.641,28,26c0,14.358-11.984,25.999-28,25.999S2,50.358,2,36C2,21.641,14.984,10,31,10z
	"/>
<path fill="#E64C18" d="M8.457,52.349c5.316,5.885,13.438,9.65,22.543,9.65c16.016,0,29-11.641,29-25.999
	c0-8.845-4.932-16.653-12.457-21.35C51.578,19.117,59.25,38.046,44,50.999C29.541,63.282,8.457,52.349,8.457,52.349z"/>
<path fill="#E64C18" d="M36.873,17.557c0,0,2.891-1.96,2.512-2.889l-6.74,0.905c0,0-4.469-0.722-4.639,0.623
	c-0.166,1.318,4.209,2.102,4.209,2.102s-1.978,4.963-0.889,5.633c1.143,0.707,3.688-4.237,3.688-4.237s4.07,3.663,4.887,2.439
	C40.66,20.993,36.873,17.557,36.873,17.557z"/>
<path fill="#92C932" d="M36.873,16.631c0,0,2.893-1.634,2.512-2.407c-0.441-0.894-4.063,0.455-4.063,0.455s-1.271-2.867-2.113-2.669
	c-0.754,0.177-0.564,2.968-0.564,2.968s-4.469-0.602-4.639,0.519c-0.166,1.098,4.211,1.751,4.211,1.751s-1.978,4.136-0.891,4.695
	c1.145,0.588,3.688-3.531,3.688-3.531s4.068,3.053,4.887,2.033C40.66,19.494,36.873,16.631,36.873,16.631z"/>
<path fill="#529320" d="M35.367,3.521c-0.443-1.015-1.342-0.411-1.004,0.636c1.955,6.068-0.191,10.447-1.063,11.315
	c-1.225,1.22,1.607,2.394,2.883,0.627C36.449,15.734,38.293,10.226,35.367,3.521z"/>
<path fill="#529320" d="M38,11.257c0,0,9.867,13.127,24-4.294C62,6.963,46.537-6.671,38,11.257z"/>
<path fill="#7AB51D" d="M36.074,11.924c0,1.754,7.939-5.46,25.926-4.961C49.658,4.677,36.074,10.666,36.074,11.924z"/>
<path fill="#F59E01" d="M18.604,17C14.277,17,6,26.279,6,33.605C6,40.932,25.25,17,18.604,17z"/>
</svg>
