<?xml version="1.0" encoding="utf-8"?>
<!-- Generator: Adobe Illustrator 15.0.0, SVG Export Plug-In . SVG Version: 6.00 Build 0)  -->
<!DOCTYPE svg PUBLIC "-//W3C//DTD SVG 1.1//EN" "http://www.w3.org/Graphics/SVG/1.1/DTD/svg11.dtd">
<svg version="1.1" id="Layer_1" xmlns="http://www.w3.org/2000/svg" xmlns:xlink="http://www.w3.org/1999/xlink" x="0px" y="0px"
	 width="64px" height="64px" viewBox="0 0 64 64" enable-background="new 0 0 64 64" xml:space="preserve">
<path fill="#F2EACC" d="M46.596,42.178c-6.489,9.362-16.808,1.186-10.319-8.177C48.062,22.685,47.76,6.555,52.22,6.02
	C57.833,5.345,61.991,22.018,46.596,42.178z"/>
<path opacity="0.1" fill="#302C3B" d="M54.065,6.462c1.004,6.571-1.139,17.5-10.467,29.717c-2.982,4.302-6.77,4.895-9.367,3.377
	c-0.295,6.454,7.23,10.031,12.367,2.623C60.228,24.331,58.528,9.227,54.065,6.462z"/>
<path fill="#785647" d="M5.455,40.733L2,43.684c0.856,1.35,1.821,2.618,2.878,3.801c1.721-1.394,3.65-3.228,4.922-4.974
	C8.281,42.053,6.826,41.46,5.455,40.733z"/>
<path fill="#9E6C49" d="M5.455,40.733l-1.724,1.472c0,0,1.545,1.974,3.272,3.411c1.721-1.394,1.524-1.359,2.796-3.105
	C8.281,42.053,6.826,41.46,5.455,40.733z"/>
<path fill="#FFE12C" d="M34.214,20.128c-7.189-1.834-11.881,3.224-11.881,3.224c6.792-3.631,16.848,4.626,15.38,7.256
	c-5.129,9.193-15.238,14.489-25.69,12.465c-0.759-0.147-1.495-0.345-2.223-0.563c-1.271,1.746-3.201,3.58-4.922,4.974
	c14.077,7.024,30.94,2.875,38.081-11.268C45.869,30.452,40.313,21.685,34.214,20.128z"/>
<path fill="#F9C802" d="M61.991,43.192c0,0-1.37-5.73-8.178-8.429c-6.636-2.63-10.854,1.453-10.854,1.453
	c-5.391,9.654-16.008,15.216-26.984,13.089c-3.285-0.637-6.297-1.925-8.971-3.689c-0.705,0.672-1.432,1.307-2.126,1.868
	c3.841,4.305,8.941,7.405,14.845,8.55c9.261,1.795,18.278-1.621,24.4-8.289C53.537,35.875,61.991,43.192,61.991,43.192z"/>
<path fill="#F5F5F5" d="M34.549,41.113c2.923-1.837,4.414-4.918,3.328-6.882c-0.347-0.628-0.93-1.044-1.639-1.288
	c-0.178,0.253-0.356,0.505-0.541,0.749c0.52,0.205,0.95,0.529,1.213,1.004c0.882,1.595-0.328,4.098-2.704,5.589
	c-2.31,1.452-4.856,1.4-5.808-0.072c-0.371,0.219-0.747,0.426-1.13,0.624c0.008,0.016,0.012,0.031,0.021,0.045
	C28.375,42.848,31.624,42.949,34.549,41.113z"/>
<path fill="#0FB4D4" d="M28.398,40.213c0.951,1.473,3.498,1.524,5.808,0.072c2.376-1.491,3.586-3.994,2.704-5.589
	c-0.263-0.475-0.693-0.799-1.213-1.004C33.677,36.356,31.191,38.568,28.398,40.213z"/>
<path fill="#FFE12C" d="M61.991,43.192c0.222,5.296-3.674,13.653-10.326,14.765c-6.653,1.112,8.433-19.828-1.615-24.058
	C50.05,33.899,61.602,33.881,61.991,43.192z"/>
<path fill="#F9C802" d="M35.92,20.755c-14.852-6.11-19.875,12.638-12.459,10.415C26.15,30.363,27.678,24.839,35.92,20.755z"/>
</svg>
