<?xml version="1.0" encoding="utf-8"?>
<!-- Generator: Adobe Illustrator 16.2.0, SVG Export Plug-In . SVG Version: 6.00 Build 0)  -->
<!DOCTYPE svg PUBLIC "-//W3C//DTD SVG 1.1//EN" "http://www.w3.org/Graphics/SVG/1.1/DTD/svg11.dtd">
<svg version="1.1" id="Layer_1" xmlns="http://www.w3.org/2000/svg" xmlns:xlink="http://www.w3.org/1999/xlink" x="0px" y="0px"
	 width="64px" height="64px" viewBox="0 0 64 64" enable-background="new 0 0 64 64" xml:space="preserve">
<path fill="#E03636" d="M7.887,28.053L52.056,2.711c0,0,7.054,9.654,7.054,33.944C59.109,60.943,23.898,74.367,7.887,28.053z"/>
<path fill="#529320" d="M38.24,62c0,0-27.393,0-33.95-14.673c-3.146-7.04,0.174-16.306,2.381-18.577C6.672,28.75,22.499,62,38.24,62
	z"/>
<path fill="#E5EFCD" d="M7.887,28.053C7.887,28.053,14.012,61,39,61c31.011,0,21.188-40.333,14.296-59l-1.24,0.712
	C52.056,2.711,72,57,38,57C19.593,57,7.887,28.053,7.887,28.053z"/>
<path fill="#92C932" d="M53.296,2l-1.24,0.712C54.049,4.704,73.162,59.403,39,60C15.003,60.419,7.887,28.053,7.887,28.053
	L6.672,28.75C8.182,34.539,15.89,62,38.24,62c8.959,0,15.888-3.51,19.45-10.432C65.564,36.271,57.453,10.61,53.296,2z"/>
<path fill="#F46C60" d="M52,4L10,28C10,28,35.494,23.134,52,4z"/>
<path fill="#1A1626" d="M23.184,33.022c-1.556-0.202-2.971,0.967-3.162,2.612c-0.19,1.642,0.915,3.141,2.471,3.343
	s2.971-0.97,3.162-2.611C25.741,35.621,26,33.388,26,33.388S23.888,33.114,23.184,33.022z"/>
<path fill="#1A1626" d="M46.345,17.635c0.191-1.645,1.606-2.814,3.163-2.612c1.553,0.201,2.661,1.698,2.471,3.342
	c-0.19,1.645-1.609,2.814-3.162,2.612C48.112,20.886,46,20.612,46,20.612S46.259,18.379,46.345,17.635z"/>
<path fill="#1A1626" d="M45.777,41.931C45.052,41.697,42.879,41,42.879,41s-0.582,2.606-0.775,3.475
	c-0.431,1.917,0.519,3.888,2.121,4.401c1.6,0.516,3.243-0.624,3.671-2.541C48.326,44.416,47.378,42.445,45.777,41.931z"/>
<path fill="#1A1626" d="M34.731,43.196L33.732,41L32,42.268c-0.957,0.7-1.284,2.251-0.732,3.464
	c0.553,1.214,1.775,1.629,2.732,0.928C34.956,45.96,35.283,44.409,34.731,43.196z"/>
<path fill="#C21413" d="M36.731,33.196L35.732,31L34,32.268c-0.957,0.7-1.284,2.251-0.732,3.464
	c0.553,1.214,1.775,1.629,2.732,0.928C36.956,35.96,37.283,34.409,36.731,33.196z"/>
<path fill="#C21413" d="M50.186,32L50.186,32H48v1.99c0,0.004,0,0.007,0,0.01c0,1.105,0.994,2,2.036,2C51.08,36,52,35.105,52,34
	C52,32.896,51.229,32.001,50.186,32z"/>
<path fill="#1A1626" d="M43.186,27L43.186,27H41v1.99c0,0.004,0,0.007,0,0.01c0,1.105,0.994,2,2.036,2C44.08,31,45,30.105,45,29
	C45,27.896,44.229,27.001,43.186,27z"/>
<path fill="#92C932" d="M13,51.667c-0.87-1.102-2.318-2.286-3.029-3.497c-0.442-0.754-0.679-2.631-0.83-3.492
	c-0.265-1.51-2.085-4.15-2.362-5.657C6.461,37.294,7,32,7,32s0.908,5.339,1.587,7c0.51,1.247,1.533,2.27,1.83,3.584
	c0.171,0.756,1.306,3.397,1.667,4.083c0.573,1.089,1.564,2.373,2.333,3.333c0.771,0.963,1.71,2.686,2.333,3.75
	c0.402,0.687,1.63,1.751,2.25,2.25c1.08,0.87,4.667,3,4.667,3s-4.49-0.962-5.833-1.667C17.021,56.906,15.483,55.78,15,55
	C14.415,54.055,13.689,52.539,13,51.667z"/>
<path fill="#92C932" d="M6.25,49.75c0.946,1.641,6.917,5.084,6.917,5.084s-4.635-4.753-5.28-6.334
	c-0.428-1.048-0.263-3.396-0.512-4.5c-0.258-1.146-2.198-2.855-2.458-4c-0.446-1.961,0.833-8,0.833-8s-2.467,6.705-2.167,9
	c0.147,1.128,1.945,2.885,2.167,4C5.982,46.171,5.653,48.716,6.25,49.75z"/>
<circle fill="#4E5E67" cx="24" cy="35" r="1"/>
<circle fill="#4E5E67" cx="46" cy="44" r="1"/>
<circle fill="#4E5E67" cx="50" cy="17" r="1"/>
</svg>
