<?xml version="1.0" encoding="utf-8"?>
<!-- Generator: Adobe Illustrator 15.0.0, SVG Export Plug-In . SVG Version: 6.00 Build 0)  -->
<!DOCTYPE svg PUBLIC "-//W3C//DTD SVG 1.1//EN" "http://www.w3.org/Graphics/SVG/1.1/DTD/svg11.dtd">
<svg version="1.1" id="Layer_1" xmlns="http://www.w3.org/2000/svg" xmlns:xlink="http://www.w3.org/1999/xlink" x="0px" y="0px"
	 width="64px" height="64px" viewBox="0 0 64 64" enable-background="new 0 0 64 64" xml:space="preserve">
<path fill="#FED0AC" d="M44.024,52.704c0.651,12.395-24.881,12.395-24.229,0c0.215-4.076,3.432-12.169,3.432-16.249
	c0-8.125,17.367-7.747,17.367,0C40.594,40.535,43.81,48.628,44.024,52.704z"/>
<path fill="#D6A57C" d="M41.189,40.542h0.002c-0.003-0.015-0.008-0.029-0.012-0.044c-0.348-1.531-0.586-2.932-0.586-4.036
	c0-3.368-3.287-5.322-6.996-5.813c-4.702-0.814-10.371,1.045-10.371,5.806c0,1.116-0.246,2.536-0.6,4.087
	c4.056,0.409,8.35,0.519,12.564,0.375c0.882,3.254,1.857,6.588,1.971,8.771c0.376,7.132-7.917,10.15-14.906,9.074
	c6.27,5.812,22.286,3.8,21.768-6.052C43.868,49.747,42.129,44.666,41.189,40.542z"/>
<path fill="#E81C27" d="M61.402,27.677C61.402,41.394,2,41.413,2,27.696C2,14.486,15.391,2,31.911,2
	C48.428,2,61.402,14.467,61.402,27.677z"/>
<path fill="#C21413" d="M32.387,2.022C38.89,5.429,46.18,15.627,46.18,24.606c0,8.462-21.208,11.341-38.651,9.361
	c14.813,6.963,54.292,4.871,54.292-6.271C61.82,14.614,48.684,2.263,32.387,2.022z"/>
<path fill="#FDE0DA" d="M28.044,4.222c-0.474-0.688-1.042-1.284-1.63-1.756c-5.194,0.58-11.241,3.283-14.223,6.243
	C10.402,15.651,33.043,11.477,28.044,4.222z"/>
<path fill="#FDE0DA" d="M40.422,23.093c1.502,9.824-19.343,10.705-17.023,0.178C25.36,14.374,39.211,15.176,40.422,23.093z"/>
<path fill="#F6BEC1" d="M54.08,14.817c-1.473,5.266-14.259-2.968-8.811-6.16C49.371,6.254,54.953,11.701,54.08,14.817z"/>
<path fill="#FDE0DA" d="M15.037,24.381c-1.876,9.38-13.784,9.311-11.935-0.074C5.174,13.789,16.79,15.626,15.037,24.381z"/>
<path fill="#F6BEC1" d="M61.966,28.196c0.134-1.44-0.146-3.307-0.553-4.508c-3.039-2.535-8.88-1.232-10.286,5.898
	c-0.54,2.742,0.164,4.666,1.379,5.814C57.811,33.982,61.647,31.614,61.966,28.196z"/>
</svg>
