<?xml version="1.0" encoding="utf-8"?>
<!-- Generator: Adobe Illustrator 16.2.0, SVG Export Plug-In . SVG Version: 6.00 Build 0)  -->
<!DOCTYPE svg PUBLIC "-//W3C//DTD SVG 1.1//EN" "http://www.w3.org/Graphics/SVG/1.1/DTD/svg11.dtd">
<svg version="1.1" id="Layer_1" xmlns="http://www.w3.org/2000/svg" xmlns:xlink="http://www.w3.org/1999/xlink" x="0px" y="0px"
	 width="64px" height="64px" viewBox="0 0 64 64" enable-background="new 0 0 64 64" xml:space="preserve">
<path fill="#92C932" d="M37.674,3.697c0,0-0.603,2.616-2.137,5.825C30.223,4.568,21.636,2,21.636,2s4.591,6.722,5.756,15.009
	C23.786,16.973,21,16.123,21,16.123s9.463,12.408,17.523,6.079C44.555,17.465,37.674,3.697,37.674,3.697z"/>
<path fill="#92C932" d="M47.779,40.842C42.457,46.099,46.415,56,46.415,56s0.945-2.301,2.687-5.301
	c2.924,2.94,8.699,3.178,8.699,3.178S55.249,49.614,56,43c2.629-0.765,5-0.975,5-0.975S54.895,33.817,47.779,40.842z"/>
<ellipse fill="#B30BAD" cx="45" cy="25" rx="7" ry="7"/>
<path fill="#7D0C7A" d="M39,21.079c0,16.92,9,8.92,9,8.92C40.375,30,39,21.079,39,21.079z"/>
<ellipse fill="#B30BAD" cx="25" cy="27" rx="6" ry="6"/>
<path fill="#7D0C7A" d="M27,28c0,0-1.133,4-5.316,4c0,0,2.797,3.894,5.691,0.999C29.89,30.484,27,28,27,28z"/>
<ellipse fill="#B30BAD" cx="31" cy="56" rx="6" ry="6"/>
<ellipse fill="#B30BAD" cx="43" cy="48" rx="5" ry="5"/>
<ellipse fill="#E635DE" cx="35" cy="28" rx="8" ry="8"/>
<ellipse fill="#7D0C7A" cx="31" cy="36" rx="7" ry="7"/>
<path fill="#7D0C7A" d="M40.352,44.652L38,48c0,5,5,5,5,5C37.666,49.417,40.352,44.652,40.352,44.652z"/>
<ellipse fill="#7D0C7A" cx="43" cy="38" rx="7" ry="7"/>
<ellipse fill="#7D0C7A" cx="22" cy="52" rx="6" ry="6"/>
<ellipse fill="#B30BAD" cx="19" cy="40" rx="9" ry="9"/>
<path fill="#7D0C7A" d="M24,41.999c0,0-3,8.024-11.726,4.253C12.274,46.252,28.403,62,24,41.999z"/>
<path fill="#7D0C7A" d="M35.811,52.426L35.811,52.426c0,0-3.061,3.658-7.811,1.741c0,0-2.417,5.083,3,7.833c-3.313,0-6-2.687-6-6
	C25,54.375,27.996,45.977,35.811,52.426"/>
<path fill="#E635DE" d="M41,44c0,4.969-4.029,9.001-9,9c-4.97,0.001-9-4.031-9-8.998C23,39.029,27.031,35,32,35
	C36.971,35.001,41,39.029,41,44z"/>
<ellipse fill="#E635DE" cx="10" cy="52" rx="8" ry="8"/>
<ellipse fill="#E635DE" cx="53" cy="32" rx="9" ry="9"/>
<path fill="#FF8FA8" d="M12.274,46.252c-1.182,0.979,1.745,4.432,3.47,3.627C16.895,49.344,13.892,44.909,12.274,46.252z"/>
<path fill="#FF8FA8" d="M34.273,38.252c-1.182,0.979,1.745,4.432,3.471,3.627C38.895,41.344,35.893,36.909,34.273,38.252z"/>
<path fill="#FF8FA8" d="M56.273,26.252c-1.182,0.979,1.745,4.432,3.471,3.627C60.895,29.344,57.893,24.909,56.273,26.252z"/>
<path fill="#E635DE" d="M22.273,34.252c-1.182,0.979,1.745,4.432,3.471,3.627C26.895,37.344,23.893,32.909,22.273,34.252z"/>
<path fill="#B30BAD" d="M32.273,31.252c-1.182,0.979,1.745,4.432,3.471,3.627C36.895,34.344,33.893,29.909,32.273,31.252z"/>
<path fill="#FF8FA8" d="M37.273,22.252c-1.182,0.979,1.745,4.432,3.471,3.627C41.895,25.344,38.893,20.909,37.273,22.252z"/>
<path fill="#E635DE" d="M46.273,20.252c-1.182,0.979,1.745,4.432,3.471,3.627C50.895,23.344,47.893,18.909,46.273,20.252z"/>
</svg>
