<?xml version="1.0" encoding="utf-8"?>
<!-- Generator: Adobe Illustrator 15.0.0, SVG Export Plug-In . SVG Version: 6.00 Build 0)  -->
<!DOCTYPE svg PUBLIC "-//W3C//DTD SVG 1.1//EN" "http://www.w3.org/Graphics/SVG/1.1/DTD/svg11.dtd">
<svg version="1.1" id="Layer_1" xmlns="http://www.w3.org/2000/svg" xmlns:xlink="http://www.w3.org/1999/xlink" x="0px" y="0px"
	 width="64px" height="64px" viewBox="0 0 64 64" enable-background="new 0 0 64 64" xml:space="preserve">
<path fill="#F46C60" d="M59.283,33.605c-1.078-0.474-1.129-1.445-1.018-2.103l2.576-9.136l-8.684,1.817
	c-0.301,0.04-1.135-0.025-1.559-1.738l-0.77-3.11l-6.02,6.959c0,0-3.902,4.259-2.68-2.242l2.617-13.89L38.91,12.58
	c-0.275,0.108-1.229,0.245-2.492-2.161L32,2l-4.416,8.419c-1.264,2.406-2.217,2.27-2.494,2.161l-4.832-2.417l2.613,13.89
	c1.221,6.501-2.68,2.242-2.68,2.242l-6.02-6.959l-0.77,3.11c-0.426,1.713-1.254,1.778-1.559,1.738L3.16,22.367l2.576,9.136
	c0.109,0.657,0.061,1.629-1.018,2.103L2,34.805c0,0,9.963,8.009,13.229,10.742c0.637,0.528,2.176,2.077,1.645,3.739l-1.164,3.632
	l13.633-2.083c0.703-0.061,4.619-0.061,5.316,0l13.633,2.083l-1.162-3.632c-0.533-1.662,1.008-3.211,1.645-3.739
	C52.037,42.813,62,34.805,62,34.805L59.283,33.605z"/>
<path fill="#E81C27" d="M42.703,36.061c1.264-0.943,17.086-12.62,18.139-13.693c-1.107,1.011-14.563,9.835-14.563,9.835
	c0.473-1.949,3.078-11.736,3.551-12.866c-0.549,1.097-4.053,11.394-4.764,13.66c-2.223,1.452-11.516,7.959-12.1,8.446l-0.361-13.863
	c1.357-3.095,8.885-14.7,11.139-17.416c-2.381,2.606-9.846,12.899-11.191,15.389L32,4.289l-0.553,21.263
	c-1.346-2.489-8.811-12.782-11.189-15.389c2.254,2.716,9.779,14.321,11.137,17.416l-0.359,13.863
	c-0.586-0.487-9.879-6.994-12.102-8.446c-0.711-2.267-4.213-12.563-4.762-13.66c0.471,1.13,3.076,10.917,3.551,12.866
	c0,0-13.455-8.824-14.563-9.835c1.053,1.073,16.875,12.75,18.137,13.693C18.381,36.021,3.715,35.25,2,34.805
	c1.695,0.526,17.24,2.061,20.613,2.253c0.691,0.523,4.301,3.315,5.381,4.215c-1.924,1.872-11.047,10.811-12.285,11.646
	c1.285-0.765,10.98-9.262,13.008-11.021c0.375,0.323,1.938,1.775,2.25,2.172L30.5,62h3l-0.465-17.932
	c0.311-0.396,1.875-1.849,2.25-2.172c2.025,1.76,11.723,10.257,13.006,11.021c-1.238-0.835-10.361-9.773-12.283-11.646
	c1.078-0.899,4.688-3.691,5.381-4.215C44.76,36.865,60.305,35.331,62,34.805C60.285,35.25,45.621,36.021,42.703,36.061z"/>
</svg>
