<?xml version="1.0" encoding="utf-8"?>
<!-- Generator: Adobe Illustrator 15.0.0, SVG Export Plug-In . SVG Version: 6.00 Build 0)  -->
<!DOCTYPE svg PUBLIC "-//W3C//DTD SVG 1.1//EN" "http://www.w3.org/Graphics/SVG/1.1/DTD/svg11.dtd">
<svg version="1.1" id="Layer_1" xmlns="http://www.w3.org/2000/svg" xmlns:xlink="http://www.w3.org/1999/xlink" x="0px" y="0px"
	 width="64px" height="64px" viewBox="0 0 64 64" enable-background="new 0 0 64 64" xml:space="preserve">
<path fill="#EA8800" d="M37.379,25.862C19.346,24.093,23.873,56.169,61.494,62C65.33,29.752,46.379,8.126,37.379,25.862z"/>
<path fill="#C21413" d="M38.754,30.814c0.724,1.172,1.439,2.304,2.15,3.406l-8.611,10.126l9.31-9.034
	c1.354,2.091,2.674,4.062,3.948,5.921l-5.975,10.531l6.633-9.571c1.29,1.86,2.525,3.589,3.698,5.186l-0.402,9.731l1.06-8.832
	c6.084,8.235,10.23,12.732,10.23,12.732s-3.801-4.83-9.307-13.228l9.135,2.253l-9.91-3.445c-1.058-1.638-2.174-3.396-3.333-5.276
	l11.618-2.789l-12.226,1.809c-1.168-1.91-2.376-3.931-3.608-6.053l12.304-4.326l-12.999,3.124c-0.613-1.072-1.232-2.164-1.855-3.275
	l6.77-7.781l-7.416,6.609c-1.406-2.547-2.832-5.205-4.257-7.984c-0.761-1.485-2.914,0.081-1.87,1.911
	c1.441,2.526,2.873,4.931,4.285,7.235l-8.908,3.648L38.754,30.814z"/>
<path fill="#F9C802" d="M25.81,7.593C20.375-7.458-5.412,9.213,4.077,41.483C33.238,31.391,44.512,7.515,25.81,7.593z"/>
<path fill="#D47706" d="M22.088,10.706c-0.723,1.05-1.422,2.081-2.1,3.092l-12.01-2.709l11.343,3.711
	c-1.272,1.934-2.454,3.779-3.56,5.557L4.415,19.894l10.775,1.374c-1.099,1.778-2.105,3.467-3.026,5.058l-8.505,3.642l7.985-2.759
	c-4.724,8.188-6.99,13.323-6.99,13.323s2.682-4.987,7.779-12.792l1.583,8.178l-0.86-9.278c0.997-1.512,2.075-3.111,3.238-4.801
	l6.874,8.1l-6.259-8.983c1.185-1.708,2.455-3.485,3.802-5.331l8.46,8.012l-7.694-9.063c0.683-0.922,1.382-1.854,2.097-2.807
	l9.289,2.208l-8.533-3.2c1.643-2.16,3.383-4.368,5.217-6.637c0.98-1.208-1.192-2.288-2.359-0.707
	c-1.61,2.17-3.131,4.291-4.563,6.353L16.16,4.197L22.088,10.706z"/>
</svg>
