<?xml version="1.0" encoding="utf-8"?>
<!-- Generator: Adobe Illustrator 15.0.0, SVG Export Plug-In . SVG Version: 6.00 Build 0)  -->
<!DOCTYPE svg PUBLIC "-//W3C//DTD SVG 1.1//EN" "http://www.w3.org/Graphics/SVG/1.1/DTD/svg11.dtd">
<svg version="1.1" id="Layer_1" xmlns="http://www.w3.org/2000/svg" xmlns:xlink="http://www.w3.org/1999/xlink" x="0px" y="0px"
	 width="64px" height="64px" viewBox="0 0 64 64" enable-background="new 0 0 64 64" xml:space="preserve">
<path fill="#6E8189" d="M7.176,15.809c-5.979,4.894-7.033,18.083-1.818,26.863c1.215,2.046,4.773-0.054,3.51-1.86
	C3.854,33.642,3.196,22.005,7.176,15.809z"/>
<path fill="#6E8189" d="M9.854,17.259c-4.189,4.561-3.527,15.145,1.607,21.52c1.197,1.484,3.781-0.586,2.575-1.876
	C9.243,31.783,7.401,22.626,9.854,17.259z"/>
<path fill="#6E8189" d="M12.567,18.775c-2.583,4.004-0.706,11.944,4.017,16.11c1.1,0.97,2.79-0.934,1.707-1.757
	C13.991,29.871,11.403,23.165,12.567,18.775z"/>
<path fill="#6E8189" d="M60.747,2c2.844,4.505,0.658,13.361-4.667,17.969c-1.241,1.073-3.11-1.076-1.891-1.982
	C59.032,14.389,61.999,6.92,60.747,2z"/>
<path fill="#6E8189" d="M58.679,2.365c1.746,3.896-0.994,10.675-5.742,13.727c-1.107,0.71-2.346-1.208-1.275-1.789
	C55.912,11.999,59.113,6.41,58.679,2.365z"/>
<path fill="#6E8189" d="M56.573,2.764c0.816,3.183-2.143,7.968-6.139,9.663c-0.932,0.395-1.622-1.219-0.734-1.521
	C53.224,9.712,56.378,5.889,56.573,2.764z"/>
<path fill="#92C932" d="M45.458,45.456c7.613-15.632-23.284-22.416-41.14,9.467C32.597,69.293,58.727,59.563,45.458,45.456z"/>
<path fill="#529320" d="M40.461,45.017c-1.31,0.256-2.587,0.517-3.839,0.78l-6.417-11.176l5.185,11.437
	c-2.367,0.51-4.612,1.029-6.739,1.548l-7.667-8.942l6.569,9.211c-2.135,0.529-4.125,1.058-5.983,1.57L12.79,45.79l7.738,3.942
	c-9.567,2.687-15.073,4.896-15.073,4.896s5.69-1.786,15.227-3.895l-5.105,7.458l6.453-7.753c1.853-0.398,3.835-0.807,5.938-1.215
	l-1.301,11.4l2.41-11.612c2.135-0.406,4.386-0.809,6.745-1.199l-0.124,12.538l1.458-12.756c1.183-0.191,2.39-0.378,3.618-0.561
	l4.881,8.726l-3.594-8.913c2.804-0.403,5.717-0.783,8.737-1.125c1.612-0.183,0.895-2.649-1.127-2.33
	c-2.794,0.441-5.479,0.915-8.062,1.404l-0.381-9.251L40.461,45.017z"/>
<path fill="#92C932" d="M29.575,11.339c-0.499-14.168,23.737-6.941,26.42,22.865C31.231,33.432,15.625,16.252,29.575,11.339z"/>
<path fill="#529320" d="M33.286,12.979c0.855,0.697,1.687,1.381,2.498,2.061l8.123-5.491l-7.324,6.158
	c1.53,1.292,2.971,2.541,4.328,3.744l8.311-3.404l-7.611,4.025c1.357,1.214,2.615,2.37,3.781,3.466l7.434,0.814l-6.777-0.202
	c5.989,5.663,9.228,9.401,9.228,9.401s-3.505-3.507-9.657-8.744l1.293,7.334l-2.162-8.071c-1.198-1.011-2.485-2.077-3.859-3.194
	l-2.676,8.671l1.949-9.255c-1.398-1.128-2.882-2.294-4.443-3.496l-3.877,9.024l2.993-9.703c-0.786-0.599-1.59-1.204-2.409-1.815
	l-6.25,4.338l5.388-4.976c-1.875-1.387-3.84-2.795-5.89-4.222c-1.095-0.761,0.198-2.248,1.542-1.229
	c1.857,1.411,3.629,2.799,5.318,4.159L35.733,5.9L33.286,12.979z"/>
</svg>
