<?xml version="1.0" encoding="utf-8"?>
<!-- Generator: Adobe Illustrator 16.2.0, SVG Export Plug-In . SVG Version: 6.00 Build 0)  -->
<!DOCTYPE svg PUBLIC "-//W3C//DTD SVG 1.1//EN" "http://www.w3.org/Graphics/SVG/1.1/DTD/svg11.dtd">
<svg version="1.1" id="Layer_1" xmlns="http://www.w3.org/2000/svg" xmlns:xlink="http://www.w3.org/1999/xlink" x="0px" y="0px"
	 width="64px" height="64px" viewBox="0 0 64 64" enable-background="new 0 0 64 64" xml:space="preserve">
<path fill="#4E5E67" d="M2,34.1c0-11.084,13.433-15.156,30-15.156c16.568,0,30,4.07,30,15.156H2z"/>
<path fill="#E6EBEF" d="M57.292,26.089c2.833-4.646-0.167-7.145-1.593-7.406c2.051-3.861-4.571-9.232-6.943-8.642
	c-0.688-4.475-6.248-7.601-12.965-5.577c-1.41-3.458-18.983-4.596-20.547,5.577C12.872,9.45,6.25,14.821,8.3,18.683
	c1.311,2.465-4.527,0.232-1.592,7.406c-1.749,1.787-2.08,9.12-1.333,9.935C9.983,41.049,21.041,44,32,44s22.016-2.951,26.625-7.979
	C59.372,35.209,59.041,27.876,57.292,26.089z"/>
<ellipse fill="#4E5E67" cx="32" cy="57.576" rx="14.445" ry="4.424"/>
<path fill="#302C3B" d="M37.962,53.55C36.208,54.977,34.232,56.768,32,59c0,0,4.525,0.782,8.633,2.117
	c3.522-0.807,5.813-2.091,5.813-3.541C46.445,55.785,42.962,54.245,37.962,53.55z"/>
<path fill="#CFD8DD" d="M59,31.766c0-1.104,0.041-3.89-1.708-5.677c2.833-4.646-0.167-7.145-1.593-7.406c0,0,3.301,4.196-3.449,7.62
	c1.875,1.029,2.625,8.481-3.958,8.481c0,0-2.095,7.825-15.131,7.825C33.161,42.609,59,49.912,59,31.766z"/>
<path fill="#6E8189" d="M59,26.303v5.463C59,39.293,46.912,42,32,42C17.09,42,5,39.295,5,31.766v-5.463C3.08,28.384,2,30.858,2,34
	c0,16.327,13.431,25,30,25c16.568,0,30-8.673,30-25C62,30.858,60.922,28.384,59,26.303z"/>
<path fill="#D2D8D9" d="M51.698,28.316c-7.372-1.851-9.067,3.482-1.677,5.446C57.452,35.748,59.117,30.175,51.698,28.316z"/>
<path fill="#D2D8D9" d="M44.049,33.205c-5.438-5.311-9.583-1.557-4.188,3.859C45.282,42.523,49.523,38.547,44.049,33.205z"/>
<path fill="#D2D8D9" d="M46.932,18.155c-6.516,3.913-3.933,8.878,2.676,5.033C56.262,19.326,53.488,14.213,46.932,18.155z"/>
<path fill="#D2D8D9" d="M42.387,8.495c-7.002-2.958-9.492,2.051-2.488,5.125C46.938,16.721,49.434,11.469,42.387,8.495z"/>
<path fill="#CFD8DD" d="M25.192,4.897c-7.105,2.705-5.441,8.044,1.743,5.424C34.166,7.695,32.338,2.173,25.192,4.897z"/>
<path fill="#D2D8D9" d="M17.374,16.61c-6.477-3.978-9.692,0.602-3.231,4.692C20.637,25.426,23.896,20.608,17.374,16.61z"/>
<path fill="#D2D8D9" d="M32.129,18.682c-7.309,2.095-6.099,7.558,1.281,5.552C40.834,22.224,39.477,16.567,32.129,18.682z"/>
<path fill="#D2D8D9" d="M11.939,28.475c-6.768,3.459-4.532,8.586,2.324,5.201C21.164,30.277,18.749,24.989,11.939,28.475z"/>
<path fill="#D2D8D9" d="M28.166,33.359c-7.273-2.203-9.221,3.041-1.935,5.358C33.559,41.059,35.488,35.572,28.166,33.359z"/>
<path fill="#4E5E67" d="M17.894,56.565c0,0,3.75,2.435,14.106,2.435c17.834,0,30-8.673,30-25C62,37.982,53.429,62,17.894,56.565z"/>
</svg>
