<?xml version="1.0" encoding="utf-8"?>
<!-- Generator: Adobe Illustrator 16.2.0, SVG Export Plug-In . SVG Version: 6.00 Build 0)  -->
<!DOCTYPE svg PUBLIC "-//W3C//DTD SVG 1.1//EN" "http://www.w3.org/Graphics/SVG/1.1/DTD/svg11.dtd">
<svg version="1.1" id="Layer_1" xmlns="http://www.w3.org/2000/svg" xmlns:xlink="http://www.w3.org/1999/xlink" x="0px" y="0px"
	 width="64px" height="64px" viewBox="0 0 64 64" enable-background="new 0 0 64 64" xml:space="preserve">
<path fill="#529320" d="M11,3L4,7c0,9,7,12,12,12l4-5C13.417,14,10.477,8.977,11,3z"/>
<path fill="#E81C27" d="M50.362,10.646c12.529,12.528,14.352,41.64,8.274,47.822c-6.14,6.245-34.068,4.677-47.007-8.479
	c-9.529-9.691-5.067-24.301,4.854-34.387C28.043,4.043,39.941,0.226,50.362,10.646z"/>
<path fill="#F46C60" d="M43.34,15.033c-5.506,7.073,7.35,36.553,13.405,30.032C62.116,39.281,48.849,7.964,43.34,15.033z"/>
<path fill="#B00505" d="M19.552,48.387c-9.528-9.689-5.067-24.301,4.854-34.386c3.816-3.881,8.314-6.942,12.945-8.688
	c-7.226,0.128-14.882,4.205-20.868,10.29C6.563,25.689,2.1,40.3,11.629,49.99c11.45,11.642,34.629,14.204,44.067,10.313
	C44.576,61.03,28.49,57.474,19.552,48.387z"/>
<path fill="#B00505" d="M27.597,47.279c-1.879,2.49-7.072-2.07-5.194-4.559C24.284,40.232,29.475,44.791,27.597,47.279z"/>
<path fill="#B00505" d="M32.454,35.452c-2.182,2.184-7.087-2.724-4.908-4.906C29.727,28.366,34.634,33.271,32.454,35.452z"/>
<path fill="#B00505" d="M44.453,42.454c-2.18,2.181-7.089-2.727-4.906-4.907C41.727,35.365,46.636,40.274,44.453,42.454z"/>
<path fill="#B00505" d="M39.938,53.721c-1.615,2.543-7.27-1.135-5.656-3.68C35.899,47.496,41.555,51.177,39.938,53.721z"/>
<path fill="#B00505" d="M55.454,54.454c-2.181,2.18-7.089-2.725-4.907-4.908C52.729,47.366,57.635,52.271,55.454,54.454z"/>
<path fill="#297124" d="M4,7c0,0,0,16,15.059,13C19.059,20,7,19,4,7z"/>
<path fill="#B00505" d="M40.66,5.534C27.557,6.063,1.805,32.67,10.746,38.258c2.473,1.7,6.515,2.087,6.515,2.087S24.563,32,23,24
	c7.245,1.125,17.494-7.985,17.494-7.985s-1.145-1.585-3.413-2.719C41.632,8.974,40.66,5.534,40.66,5.534z"/>
<path fill="#529320" d="M15.213,17.07C-2.299,28.598,2.644,43.476,2.644,43.476s13.698-10.281,17.034-21.763
	C34.691,14.481,43.044,2.359,43.044,2.359S26.358-1.64,15.213,17.07z"/>
<path fill="#297124" d="M6.039,25.8c0,0-2.087,5.774,3.561,11.422c0,0,4.338-4.253,5.38-7.222C16.048,26.956,6.039,25.8,6.039,25.8z
	"/>
<path fill="#7AB51D" d="M14.233,15.971c-19.796,12.115,2.498,21.36,2.498,21.36S22,30,21.034,21.488
	c7.246,1.125,18.94-9.167,18.94-9.167S21.36-0.995,14.233,15.971z"/>
<path fill="#92C932" d="M17.25,15.75c0,0,9.961,4.162-0.52,21.581C16.73,37.331,20.75,24.75,17.25,15.75z"/>
<path fill="#B00505" d="M43.211,26.641c-2.597,1.774-7.018-3.506-4.421-5.281C41.389,19.585,45.807,24.865,43.211,26.641z"/>
<path fill="#B00505" d="M52.956,35.181c-2.554,1.354,0.536,7.991,3.088,6.638S55.51,33.827,52.956,35.181z"/>
<path fill="#B00505" d="M50.956,19.181c-2.554,1.354,0.536,7.991,3.088,6.638S53.51,17.827,50.956,19.181z"/>
</svg>
