<?xml version="1.0" encoding="utf-8"?>
<!-- Generator: Adobe Illustrator 15.0.0, SVG Export Plug-In . SVG Version: 6.00 Build 0)  -->
<!DOCTYPE svg PUBLIC "-//W3C//DTD SVG 1.1//EN" "http://www.w3.org/Graphics/SVG/1.1/DTD/svg11.dtd">
<svg version="1.1" id="Layer_1" xmlns="http://www.w3.org/2000/svg" xmlns:xlink="http://www.w3.org/1999/xlink" x="0px" y="0px"
	 width="64px" height="64px" viewBox="0 0 64 64" enable-background="new 0 0 64 64" xml:space="preserve">
<path fill="#B47D56" d="M62,32c0,2.634-1.504,5.035-2.152,7.462c-0.672,2.514-0.59,5.34-1.863,7.541
	c-1.291,2.23-3.793,3.566-5.603,5.379c-1.812,1.811-3.147,4.313-5.378,5.604c-2.202,1.271-27.807,1.271-30.007-0.002
	c-2.231-1.291-3.565-3.791-5.378-5.604c-1.811-1.814-4.313-3.146-5.604-5.381c-1.271-2.199-1.19-5.023-1.863-7.539
	C3.503,37.032,2,34.634,2,32c0-2.634,1.503-5.034,2.152-7.464c0.672-2.513,0.591-5.339,1.861-7.538
	c1.293-2.232,3.795-3.568,5.604-5.379c1.812-1.813,3.146-4.313,5.378-5.604c2.199-1.272,5.025-1.19,7.539-1.863
	C26.964,3.502,29.366,2,32,2c2.633,0,5.035,1.503,7.463,2.151c2.514,0.673,5.339,0.591,7.541,1.863
	c2.23,1.291,3.566,3.792,5.378,5.604c1.812,1.811,4.313,3.146,5.604,5.379c1.271,2.2,1.188,5.025,1.859,7.539
	C60.496,26.965,62,29.366,62,32z"/>
<path fill="#9E6C49" d="M31.999,20.958c-2.087,0-2.087-11.899,0-11.899C34.089,9.059,34.089,20.958,31.999,20.958z M31.999,37.858
	c-2.087,0-2.087-11.897,0-11.897C34.089,25.961,34.089,37.858,31.999,37.858z M23.566,20.32c-2.088,0-2.088-11.9,0-11.9
	S25.654,20.32,23.566,20.32z M22.602,36.222c-2.09,0-2.09-11.9,0-11.9C24.689,24.32,24.689,36.222,22.602,36.222z M14.169,26.859
	c-2.09,0-2.09-11.898,0-11.898C16.255,14.96,16.255,26.859,14.169,26.859z M53.74,46.382c-1.934,1.811-3.357,4.313-5.735,5.604
	c-2.347,1.271-29.661,1.271-32.008-0.002c-2.381-1.291-3.804-3.791-5.737-5.604c-1.822-1.709-4.285-3.004-5.716-5.018
	c0.323,1.967,0.515,3.979,1.472,5.637c1.291,2.232,3.793,3.566,5.604,5.381c1.813,1.813,3.146,4.313,5.378,5.604
	c2.2,1.271,27.805,1.273,30.007,0.002c2.23-1.291,3.566-3.793,5.378-5.604c1.81-1.813,4.312-3.148,5.603-5.379
	c0.959-1.656,1.149-3.668,1.473-5.635C58.023,43.38,55.561,44.673,53.74,46.382z"/>
<path fill="#9E6C49" d="M15.135,45.763c-2.09,0-2.09-11.898,0-11.898C17.223,33.862,17.223,45.763,15.135,45.763z M7.67,40.483
	c-2.09,0-2.09-11.9,0-11.9C9.757,28.583,9.757,40.483,7.67,40.483z M40.434,20.32c2.088,0,2.088-11.9,0-11.9
	S38.346,20.32,40.434,20.32z M41.398,36.222c2.088,0,2.088-11.9,0-11.9C39.311,24.32,39.311,36.222,41.398,36.222z M49.832,26.859
	c2.088,0,2.088-11.898,0-11.898C47.742,14.96,47.742,26.859,49.832,26.859z M48.866,45.763c2.087,0,2.087-11.898,0-11.898
	C46.775,33.862,46.775,45.763,48.866,45.763z M56.331,40.483c2.087,0,2.087-11.9,0-11.9C54.242,28.583,54.242,40.483,56.331,40.483z
	"/>
<path fill="#302C3B" d="M47,58.423c-1,1.271-29,1.271-30,0V35.376h30V58.423z"/>
<path fill="#1A1626" d="M46.045,35.376c0,0-0.529,13.027-2,17.021c-2.555,6.939-23.495,8.33-25.09,4
	C17.14,51.466,17,35.376,17,35.376s-2.768,17.558-1,23.047c1.536,4.77,30.465,4.77,32,0c1.768-5.489-1-23.047-1-23.047H46.045z"/>
<path opacity="0.5" fill="#4E5E67" d="M20.619,41.034c-1,0-1-4,0-4S21.619,41.034,20.619,41.034z"/>
<path opacity="0.5" fill="#4E5E67" d="M20.619,50.376c-1,0-1-4,0-4S21.619,50.376,20.619,50.376z"/>
<path opacity="0.5" fill="#4E5E67" d="M20.619,59.72c-1,0-1-4,0-4S21.619,59.72,20.619,59.72z"/>
<path opacity="0.5" fill="#4E5E67" d="M26.311,45.704c-1,0-1-4,0-4S27.311,45.704,26.311,45.704z"/>
<path opacity="0.5" fill="#4E5E67" d="M26.311,55.05c-1,0-1-4,0-4S27.311,55.05,26.311,55.05z"/>
<path opacity="0.5" fill="#4E5E67" d="M32,41.034c-1,0-1-4,0-4S33,41.034,32,41.034z"/>
<path opacity="0.5" fill="#4E5E67" d="M32,50.376c-1,0-1-4,0-4S33,50.376,32,50.376z"/>
<path opacity="0.5" fill="#4E5E67" d="M32,59.72c-1,0-1-4,0-4S33,59.72,32,59.72z"/>
<path opacity="0.5" fill="#4E5E67" d="M37.691,45.704c-1,0-1-4,0-4S38.691,45.704,37.691,45.704z"/>
<path opacity="0.5" fill="#4E5E67" d="M37.691,55.05c-1,0-1-4,0-4S38.691,55.05,37.691,55.05z"/>
<path opacity="0.5" fill="#4E5E67" d="M43.381,41.034c-1,0-1-4,0-4S44.381,41.034,43.381,41.034z"/>
<path opacity="0.5" fill="#4E5E67" d="M43.381,50.376c-1,0-1-4,0-4S44.381,50.376,43.381,50.376z"/>
<path opacity="0.5" fill="#4E5E67" d="M43.381,59.72c-1,0-1-4,0-4S44.381,59.72,43.381,59.72z"/>
</svg>
