<?xml version="1.0" encoding="utf-8"?>
<!-- Generator: Adobe Illustrator 15.0.0, SVG Export Plug-In . SVG Version: 6.00 Build 0)  -->
<!DOCTYPE svg PUBLIC "-//W3C//DTD SVG 1.1//EN" "http://www.w3.org/Graphics/SVG/1.1/DTD/svg11.dtd">
<svg version="1.1" id="Layer_1" xmlns="http://www.w3.org/2000/svg" xmlns:xlink="http://www.w3.org/1999/xlink" x="0px" y="0px"
	 width="64px" height="64px" viewBox="0 0 64 64" enable-background="new 0 0 64 64" xml:space="preserve">
<path fill="#E6EBEF" d="M57.111,36.22c1.203-4.321-3.473-10.585-6.021-12.142c-0.764-10.084-6.641-10.968-6.641-10.968
	c-6.498-14.813-18.4-14.813-24.898,0c0,0-5.879,0.883-6.643,10.968c-2.549,1.556-7.223,7.82-6.021,12.142
	c-5.572,3.85-6.236,14.266-2.721,15.209c-2.201,11.428,57.863,11.428,55.662,0C63.352,50.481,62.686,40.067,57.111,36.22z"/>
<path fill="#CFD8DD" d="M57.111,36.22c0.752-2.701-0.793-6.161-2.68-8.755C50.619,55.673,15.405,57.148,6.356,55.421
	c10.643,7.229,55.376,5.898,53.472-3.992C63.352,50.481,62.686,40.067,57.111,36.22z"/>
<path fill="#CFD8DD" d="M36.514,20.244c-0.107,7.689,5.537,8.114,5.752,0.383C42.492,12.853,36.619,12.51,36.514,20.244z"/>
<path fill="#CFD8DD" d="M30.1,6.609c-7.188,2.736-5.504,8.136,1.766,5.486C39.178,9.438,37.326,3.854,30.1,6.609z"/>
<path fill="#CFD8DD" d="M25.84,19.141c-6.547-4.023-9.801,0.608-3.268,4.746C29.143,28.059,32.438,23.184,25.84,19.141z"/>
<path fill="#CFD8DD" d="M28.77,29.533c-7.391,2.119-6.166,7.646,1.301,5.617C37.576,33.116,36.207,27.395,28.77,29.533z"/>
<path fill="#E6EBEF" d="M51.447,49.035c-3.76,1.077-2.525,6.656,1.299,5.616C60.254,52.618,58.883,46.897,51.447,49.035z"/>
<path fill="#E6EBEF" d="M60.24,41.123c-1.838-4.907-7.48-4.474-5.734,0.476C55.438,44.255,61.229,43.749,60.24,41.123z"/>
<path fill="#CFD8DD" d="M10.864,31.51c-3.332,6.931,1.609,9.688,5.055,2.768C19.395,27.314,14.211,24.534,10.864,31.51z"/>
<path fill="#E6EBEF" d="M45.803,40.744c-6.848,3.5-4.584,8.687,2.348,5.263C55.133,42.569,52.691,37.218,45.803,40.744z"/>
<path fill="#CFD8DD" d="M12.069,44.604c-4.85-5.965-9.449-2.674-4.654,3.395C12.231,54.11,16.956,50.601,12.069,44.604z"/>
<path fill="#CFD8DD" d="M47.039,34.03c6.066-4.72,2.875-9.39-3.295-4.727C37.531,33.987,40.938,38.787,47.039,34.03z"/>
<path fill="#302C3B" d="M47,58.423c-1,1.271-29,1.271-30,0V35.376h30V58.423z"/>
<path fill="#1A1626" d="M46.045,35.376c0,0-0.53,13.027-2,17.021c-2.556,6.939-23.495,8.33-25.089,4
	C17.14,51.466,17,35.376,17,35.376s-2.768,17.558-1,23.047c1.536,4.77,30.463,4.77,32,0c1.768-5.489-1-23.047-1-23.047H46.045z"/>
<path opacity="0.5" fill="#4E5E67" d="M20.62,41.034c-1,0-1-4,0-4S21.62,41.034,20.62,41.034z"/>
<path opacity="0.5" fill="#4E5E67" d="M20.62,50.376c-1,0-1-4,0-4S21.62,50.376,20.62,50.376z"/>
<path opacity="0.5" fill="#4E5E67" d="M20.62,59.72c-1,0-1-4,0-4S21.62,59.72,20.62,59.72z"/>
<path opacity="0.5" fill="#4E5E67" d="M26.311,45.704c-1,0-1-4,0-4S27.311,45.704,26.311,45.704z"/>
<path opacity="0.5" fill="#4E5E67" d="M26.311,55.05c-1,0-1-4,0-4S27.311,55.05,26.311,55.05z"/>
<path opacity="0.5" fill="#4E5E67" d="M32,41.034c-1,0-1-4,0-4C33,37.034,33,41.034,32,41.034z"/>
<path opacity="0.5" fill="#4E5E67" d="M32,50.376c-1,0-1-4,0-4C33,46.376,33,50.376,32,50.376z"/>
<path opacity="0.5" fill="#4E5E67" d="M32,59.72c-1,0-1-4,0-4C33,55.72,33,59.72,32,59.72z"/>
<path opacity="0.5" fill="#4E5E67" d="M37.691,45.704c-1,0-1-4,0-4S38.691,45.704,37.691,45.704z"/>
<path opacity="0.5" fill="#4E5E67" d="M37.691,55.05c-1,0-1-4,0-4S38.691,55.05,37.691,55.05z"/>
<path opacity="0.5" fill="#4E5E67" d="M43.381,41.034c-1,0-1-4,0-4S44.381,41.034,43.381,41.034z"/>
<path opacity="0.5" fill="#4E5E67" d="M43.381,50.376c-1,0-1-4,0-4S44.381,50.376,43.381,50.376z"/>
<path opacity="0.5" fill="#4E5E67" d="M43.381,59.72c-1,0-1-4,0-4S44.381,59.72,43.381,59.72z"/>
</svg>
