<?xml version="1.0" encoding="utf-8"?>
<!-- Generator: Adobe Illustrator 16.2.0, SVG Export Plug-In . SVG Version: 6.00 Build 0)  -->
<!DOCTYPE svg PUBLIC "-//W3C//DTD SVG 1.1//EN" "http://www.w3.org/Graphics/SVG/1.1/DTD/svg11.dtd">
<svg version="1.1" id="Layer_1" xmlns="http://www.w3.org/2000/svg" xmlns:xlink="http://www.w3.org/1999/xlink" x="0px" y="0px"
	 width="64px" height="64px" viewBox="0 0 64 64" enable-background="new 0 0 64 64" xml:space="preserve">
<path fill="#E6EBEF" d="M32,32H2c0,24.5,18.25,30,30,30s30-5.5,30-30H32z"/>
<polygon fill="#8A6859" points="62,12 22,4 22,2 62,8 "/>
<path fill="#CFD8DD" d="M2,32c0,24.5,18.25,30,30,30c-14.294,0-17.25-17,0-17L2,32z"/>
<path fill="#F46C60" d="M62,32c0,11.699-9.868,17-30,17C11.869,49,2,43.699,2,32H62z"/>
<path fill="#E03636" d="M21.897,48.449C23.72,46.427,27.009,45,32,45L2,32C2,41.539,8.563,46.822,21.897,48.449z"/>
<ellipse fill="#E6EBEF" cx="32" cy="32" rx="30" ry="13"/>
<path fill="#BEC3CF" d="M32.001,21C16.537,21,4,25.925,4,32c0,6.072,12.537,11,28.001,11C47.466,43,60,38.072,60,32
	C60,25.925,47.466,21,32.001,21z"/>
<path fill="#99A8AE" d="M49.015,23.266C51.557,27.943,53,33.303,53,39c0,0.092-0.006,0.183-0.007,0.274
	C57.351,37.335,60,34.789,60,32C60,28.44,55.691,25.276,49.015,23.266z"/>
<path fill="#ED9D00" d="M32.001,25c-13.725,0-25.135,3.881-27.53,9c2.396,5.117,13.806,9,27.53,9s25.133-3.883,27.528-9
	C57.134,28.881,45.726,25,32.001,25z"/>
<polygon fill="#785647" points="61,10 62,8 22,2 22,3 "/>
<g>
	<g>
		<path fill="#FDCA47" d="M15.449,30.598c3.479-1.431,8.527-3.695,11.718-2.89c1.846,0.466,0.993,2.011-0.833,2.637
			c-1.772,0.607-3.935,0.748-5.783,0.956c-1.507,0.169-3.184,0.648-4.054,1.986c-0.654,1.008-0.152,2.22,0.623,2.973
			c1.245,1.21,3.235,1.459,4.88,1.49c0.968,0.019,0.966-1.481,0-1.5c-0.945-0.018-4.64-0.308-4.277-2.04
			c0.344-1.643,4.063-1.526,5.276-1.716c2.142-0.335,5.488-1.045,6.643-3.17c0.957-1.761-1.057-2.758-2.491-2.925
			c-4.065-0.474-8.432,1.245-12.101,2.754C14.169,29.515,14.555,30.966,15.449,30.598L15.449,30.598z"/>
	</g>
</g>
<g>
	<path fill="#FDCA47" d="M11.604,37.174c6.142,4.968,19.291,4.928,27.418,4.254c5.007-0.414,15.755-1.434,17.647-7.458
		c1.599-5.091-8.282-4.12-10.316-1.348c-0.573,0.781,0.562,1.37,1.295,0.757c3.502-2.922,10.312-1.837,6.501,1.878
		c-1.452,1.416-3.698,2.201-5.54,2.829C43.321,39.892,37.536,40.187,32,40.25c-5.129,0.059-10.311-0.526-15.199-2.107
		c-1.741-0.563-8.426-3.893-3.727-5.294c0.927-0.276,0.55-1.63-0.398-1.446C10.667,31.792,7.749,34.056,11.604,37.174z"/>
</g>
<g>
	<g>
		<path fill="#FDCA47" d="M27.943,36.676c1.877,0.775,5.937,0.788,8.837,0.516c4.771-0.446,9.555-1.65,13.841-3.839l0,0
			c0.86-0.439,1.619,0.855,0.758,1.295c-5.899,3.012-12.778,4.532-19.389,4.009c-1.166-0.093-7.773-0.013-6.49-3.531
			c1.458-4,9.785-1.514,14.269-1.514c1.898,0,4.773-0.569,4.773-3.07c0-1.625-3.021-2.313-4.542-2.542
			c-1.771-0.266-4.962-0.794-6.651,0.272c-1.644,1.039,2.36,1.978,5.651,1.978c0.966,0,1,1.5,0,1.5c-1.881,0-6.667,0.083-7.66-2.178
			c-0.624-1.419,0.615-2.396,1.855-2.851c3.222-1.18,14.137-0.421,12.972,4.195c-1.125,4.458-6.05,4.706-12.083,3.625
			C28.5,33.542,24.897,35.417,27.943,36.676z"/>
	</g>
</g>
<path fill="#ED9D00" d="M23,5v15c0,0.552,0.448,1,1,1s1-0.448,1-1V5H23z"/>
<path fill="#ED9D00" d="M29,5v20c0,0.552,0.448,1,1,1s1-0.448,1-1V5.8L29,5z"/>
<polygon fill="#8A6859" points="60,18 20,4 20,2 60,14 "/>
<polygon fill="#785647" points="60,14 20,2 20,3 59,16 "/>
<g>
	<path fill="#FDCA47" d="M20,9c0,0,0,15.864,0,20c0,0.967,2,0.967,2,0c0-2.277,0-17.554,0-19.831C22,2.525,25,3.5,25,3.5
		C25,2.125,20,0.406,20,9z"/>
</g>
<g>
	<path fill="#FDCA47" d="M31,5.3c0-1.612-5-4.831-5,4.624c0,6.025,0,6.051,0,12.077c0,0.967,2,0.967,2,0c0-4.104,0-7.896,0-12
		C28,6,28.341,4.402,31,5.3L31,5.3z"/>
</g>
</svg>
