<?xml version="1.0" encoding="utf-8"?>
<!-- Generator: Adobe Illustrator 15.0.0, SVG Export Plug-In . SVG Version: 6.00 Build 0)  -->
<!DOCTYPE svg PUBLIC "-//W3C//DTD SVG 1.1//EN" "http://www.w3.org/Graphics/SVG/1.1/DTD/svg11.dtd">
<svg version="1.1" id="Layer_1" xmlns="http://www.w3.org/2000/svg" xmlns:xlink="http://www.w3.org/1999/xlink" x="0px" y="0px"
	 width="64px" height="64px" viewBox="0 0 64 64" enable-background="new 0 0 64 64" xml:space="preserve">
<path fill="#F59E01" d="M58.782,44.455C58.782,56.461,48.973,62,31.86,62C14.745,62,4.934,56.461,4.934,44.455
	C4.934,26.911,58.782,26.911,58.782,44.455z"/>
<path opacity="0.3" fill="#AB5C10" d="M58.782,44.455c-29.364,8.873-4.786,3.754-12.098,15.584
	C54.509,57.482,58.782,52.377,58.782,44.455z"/>
<path fill="#785647" d="M2,36.842c0-20.211,59.724-15.514,59.724,0c0,10.078-8.392,17.445-29.859,17.445
	C10.396,54.287,2,46.92,2,36.842z"/>
<path fill="#594640" d="M46.826,52.68c13.2-2.775,18.861-15.287,12.658-20.788C25.562,55.209,52.566,38.811,46.826,52.68z"/>
<path fill="#594640" d="M4.186,31.032c2.084-4.746,55.188-4.391,54.885,0.785C57.476,59.021-3.74,49.084,4.186,31.032z"/>
<path fill-rule="evenodd" clip-rule="evenodd" fill="#9E6C49" d="M32.821,50.383c-12.682-0.432-27.366-4.771-20.424-1.857
	C28.972,55.48,42.381,50.711,32.821,50.383z"/>
<path fill="#E81C27" d="M5.198,25.031c1.354-3.082,29.422,9.987,28.067,13.071C26.416,53.707-1.653,40.637,5.198,25.031z"/>
<path fill="#E81C27" d="M29.118,35.445c-0.741-3.296,29.266-10.46,30.007-7.164C63.136,46.086,33.125,53.25,29.118,35.445z"/>
<path fill="#F9B700" d="M19.804,43.844c1.331,0.896,6.955,10.994,7.97,9.291c3.606-6.055,5.402-7.281,6.621-7.77
	C99.284,19.346-32.26,8.73,19.804,43.844z"/>
<path fill="#FFE463" d="M19.826,42.74c3.046,1.951,7.074,8.893,7.531,7.834c2.209-5.115,6.855-6.166,7.677-6.49
	C95.872,19.994-30.708,10.374,19.826,42.74z"/>
<path fill="#FDCA47" d="M12.684,36.363c10.35,9.514,11.979,1.98,16.421,4.002c13.44,6.115,10.568-2.973,14.519-2.973
	C43.623,37.391,24.877,19.688,12.684,36.363z"/>
<path fill="#92C932" d="M4.671,23.692c-7.447,7.829,10.003,9.081,8.086,10.906c-3.343,3.182,10.491,6.66,12.017,5.148
	c4.345-4.301,15.75,6.316,13.748-0.574c-1.631-5.615,17.997,8.016,16.301-1.779C53.914,32.149,66.31,31.249,58.257,25
	C58.257,25,17.732,20.545,4.671,23.692z"/>
<path fill="#529320" d="M4.129,24.303C3.27,25.604,4.706,36,31.862,36s27.898-9.627,26.728-10.793
	C48.902,15.631,12.469,13.588,4.129,24.303z"/>
<path opacity="0.5" fill="#FFFFFF" d="M27.136,44.646c1.396-1.021,10.154-0.502,0.284-1.797
	C17.775,41.586,23.808,47.082,27.136,44.646z"/>
<path fill-rule="evenodd" clip-rule="evenodd" fill="#F46C60" d="M13.892,40.553c-4.726-3.117-8.805-9.095-7.188-5.736
	C10.563,42.828,17.451,42.902,13.892,40.553z"/>
<path fill-rule="evenodd" clip-rule="evenodd" fill="#F46C60" d="M46.056,42.658c-0.146-0.783-4.558-0.459-5.524,1.93
	C40.27,45.236,46.587,45.537,46.056,42.658z"/>
<path fill="#F59E01" d="M59.729,23.444c0,14.48-55.74,14.48-55.74,0C3.988,11.603,16.469,2,31.86,2
	C47.254,2,59.729,11.603,59.729,23.444z"/>
<path opacity="0.3" fill="#AB5C10" d="M35.468,34.223c12.633-0.574,24.261-4.165,24.261-10.779C59.729,11.603,47.254,2,31.86,2l0,0
	C48.896,2,67.452,26.353,35.468,34.223z"/>
<path fill="#F9B700" d="M12.745,24.667c-7.443-2.551-4.284,2.882,3.013,4.854S19.168,26.87,12.745,24.667z"/>
<path fill-rule="evenodd" clip-rule="evenodd" fill="#FFE463" d="M17.542,26.183c0.03-2.215,0.769-3.088,0.247-2.795
	C13.606,25.737,17.512,28.531,17.542,26.183z"/>
<path fill-rule="evenodd" clip-rule="evenodd" fill="#FFE463" d="M23.112,8.306c0.029-2.214,0.769-3.087,0.249-2.797
	C19.177,7.86,23.081,10.653,23.112,8.306z"/>
<path fill-rule="evenodd" clip-rule="evenodd" fill="#FFE463" d="M28.072,13.805c1.885-1.306,2.208-2.542,2.256-1.86
	C30.727,17.443,26.078,15.188,28.072,13.805z"/>
<path fill-rule="evenodd" clip-rule="evenodd" fill="#FFE463" d="M48.628,11.66c-0.423-2.424-1.386-3.235-0.766-3.021
	C52.87,10.371,49.073,14.23,48.628,11.66z"/>
<path fill-rule="evenodd" clip-rule="evenodd" fill="#FFE463" d="M31.318,26.705c-0.422-2.426-1.384-3.236-0.763-3.021
	C35.562,25.416,31.765,29.276,31.318,26.705z"/>
<path fill-rule="evenodd" clip-rule="evenodd" fill="#FFE463" d="M52.138,21.465c-0.438-2.509-1.433-3.346-0.789-3.123
	C56.522,20.132,52.6,24.122,52.138,21.465z"/>
<path fill-rule="evenodd" clip-rule="evenodd" fill="#FFE463" d="M44.246,28.937c0.834-2.46,0.359-3.759,0.818-3.203
	C48.768,30.219,43.362,31.542,44.246,28.937z"/>
<path fill-rule="evenodd" clip-rule="evenodd" fill="#FFE463" d="M39.143,10.397c0.129-2.061,0.856-2.835,0.357-2.59
	C35.496,9.774,39.005,12.581,39.143,10.397z"/>
<path fill-rule="evenodd" clip-rule="evenodd" fill="#FFE463" d="M12.364,16.156c1.204-2.312,2.452-2.848,1.745-2.809
	C8.419,13.652,11.088,18.605,12.364,16.156z"/>
<path fill-rule="evenodd" clip-rule="evenodd" fill="#F9B700" d="M23.078,55.941c-7.174-1.152-15.41-5.451-11.814-1.775
	C18.664,61.725,29.647,56.998,23.078,55.941z"/>
</svg>
