<?xml version="1.0" encoding="utf-8"?>
<!-- Generator: Adobe Illustrator 16.2.0, SVG Export Plug-In . SVG Version: 6.00 Build 0)  -->
<!DOCTYPE svg PUBLIC "-//W3C//DTD SVG 1.1//EN" "http://www.w3.org/Graphics/SVG/1.1/DTD/svg11.dtd">
<svg version="1.1" id="Layer_1" xmlns="http://www.w3.org/2000/svg" xmlns:xlink="http://www.w3.org/1999/xlink" x="0px" y="0px"
	 width="64px" height="64px" viewBox="0 0 64 64" enable-background="new 0 0 64 64" xml:space="preserve">
<path fill="#E5BC5E" d="M2,59.58c0,2.303,4.857,1.154,9.999-0.578c8.806-2.98,21.979-10.926,28.892-15
	c6.832-4.035,14.627-7.615,14.627-7.615s2.91-5.225,2.91-7.499L2,59.58z"/>
<path fill="#FFE463" d="M9.923,30.212C7.757,34.811,5.805,44.729,4.057,49.47C2.42,53.911,2,58.202,2,59.58
	c0,1.416,4.111-0.194,5.393-0.578C9.635,58.316,10.227,62,11.545,62c2.898,0,0.876-4.52,5.419-6.84
	c5.556-2.829,19.531-10.511,22.042-11.986c4.008-2.373,4.119,1.957,5.313,1.957c1.611,0,1.041-6.142,3.308-7.401
	c10.33-5.779,10.802-8.844,10.802-8.844C41.723,4.757,15.724,7.127,15.724,7.127S17.154,14.861,9.923,30.212z"/>
<path fill="#C21413" d="M15.724,7.127c0,0,0.134,2.238-0.143,5.41c2.515,0.479,4.224,1.32,6.778,1.32
	c6.621,0,8.363,1.39,15.617,5.232c5.978,2.769,10.99,6.8,15.855,15.194C54.709,35.793,64.703,7.127,15.724,7.127z"/>
<path fill="#EA8800" d="M55.529,15.348c-5.156-4.528-11.396-6.745-15.219-8.903c-2.748-1.553-5.019-1.904-6.996-2.054
	C28.75,4.391,23.659,2,18,2c-2.547,0-5.063,8.809-2,8.809c6.859,0,10.199-5.004,26.313,6.537C46.984,20.691,62,27.722,62,27.722
	C62,24.968,60.167,19.409,55.529,15.348z"/>
<polygon fill="#FBB855" points="7.336,51.533 5.234,53.927 7.45,55.063 9.55,52.668 "/>
<polygon fill="#FBB855" points="14.384,51.708 16.326,49.43 18.541,50.557 16.6,52.834 "/>
<polygon fill="#FBB855" points="10.626,33.914 12.419,31.741 14.462,32.994 12.67,35.162 "/>
<polygon fill="#FBB855" points="17.154,30.641 18.843,28.544 20.943,29.753 19.254,31.851 "/>
<polygon fill="#FBB855" points="20.285,17.49 21.758,15.554 23.731,16.853 22.263,18.79 "/>
<polygon fill="#FBB855" points="36.229,23.49 37.701,21.554 39.675,22.853 38.206,24.79 "/>
<path fill="#AB5C10" d="M56.5,24.35c-2.412,0.476-6.956-7.194-16.779-11.243c-4.888-2.017-4.638,0.373-12.345-5.218
	c-3.282-2.379-7.332-0.21-9.519-0.21c-2.394,0-1.965-3.776-1.713-4.242c-0.953,1.297-1.617,3.629-1.617,5.184
	c0,1,0.2,2.542,1.472,2.485c9.496-0.414,14.836,1.452,20.313,4.897c4.539,2.852,10.418,2.852,14.437,9.605
	c3.308,5.561,5.667,7.837,5.667,7.837c3.125,0,5.271-3.729,5.271-5.624C61.688,25.724,61.088,23.442,56.5,24.35z"/>
<path fill="#E5BC5E" d="M55.031,28.888c-2.244,9.383-8.301,6.577-8.301,11.627c0,0,15.27-4.886,15.27-12.793
	C62,23.103,56.425,23.062,55.031,28.888z"/>
<path fill="#C21413" d="M15.087,15.42c-0.739,3.582-2.177,8.317-4.903,14.212c4.751-0.451,9.865-2.715,9.865-7.624
	C20.049,18.224,17.011,16.276,15.087,15.42z"/>
<path fill="#C21413" d="M3.604,50.794c4.083-0.521,8.985-2.329,10.129-6.786c1.277-4.975-3.134-6.862-5.979-7.553L3.604,50.794z"/>
<path fill="#C21413" d="M26.819,32.723c-8.464-1.941-15.524,10.938-7.292,14.228C31.858,51.878,38.097,35.311,26.819,32.723z"/>
<path fill="#C21413" d="M45.573,26.804c-6.545-4.685-16.275,6.079-10.826,10.75C42.833,44.486,53.243,32.293,45.573,26.804z"/>
<path fill="#C21413" d="M30.214,17.724c-5.047-1.39-12.644,9.276-4.88,11.999C33.171,32.47,39.621,20.314,30.214,17.724z"/>
<polygon fill="#FBB855" points="34.229,42.49 35.701,40.554 37.675,41.854 36.206,43.79 "/>
<path fill="#B00505" d="M34.742,24.229c-1.267,1.769-4.291,4.998-8.742,3.494c-2.966-1.002-3.668-2.721-3.624-4.203
	c-0.856,2.48-0.326,5.051,2.957,6.203C29.883,31.317,33.957,27.891,34.742,24.229z"/>
<path fill="#B00505" d="M20.049,22.008c0-0.658-0.097-1.256-0.258-1.807c-0.656,2.082-1.565,6.565-8.479,6.88
	c-0.351,0.827-0.72,1.672-1.127,2.551C14.935,29.182,20.049,26.917,20.049,22.008z"/>
<path fill="#B00505" d="M13.734,44.008c0.289-1.124,0.275-2.084,0.067-2.915c-0.49,2.097-2.414,7.156-9.566,7.525l-0.63,2.176
	C7.688,50.273,12.589,48.465,13.734,44.008z"/>
<path fill="#B00505" d="M32.656,38.535c-0.669,6.638-7.683,8.396-11.323,7.344c-4.83-1.396-5.257-4.681-4.896-6.95
	c-1.213,3.134-0.606,6.544,3.09,8.021C27.812,50.261,33.336,43.871,32.656,38.535z"/>
<path fill="#B00505" d="M48.086,30.329c-1.524,6.639-6.219,8.899-11.857,6.238c-2.302-1.087-2.551-3.513-2.389-5.27
	c-1.043,2.215-1.011,4.613,0.907,6.258C41.355,43.22,49.511,36.112,48.086,30.329z"/>
<path fill="#E81C27" d="M8.779,38.535c0,1.048,0.808,7.122,1.847,6.344C15.116,41.516,8.779,36.07,8.779,38.535z"/>
<path fill="#E81C27" d="M15.871,17.599c-0.744,0.744,0.45,7.42,1.284,6.263C19.791,20.201,16.84,16.63,15.871,17.599z"/>
<path fill="#E81C27" d="M28.446,19.24c-1.696,0.594,3.862,6.264,4.708,5.137S32.689,17.754,28.446,19.24z"/>
<path fill="#E81C27" d="M20.943,35.267c2.208-2.934,13.012-0.409,9.818,5.287C29.583,42.655,20.049,36.455,20.943,35.267z"/>
<path fill="#E81C27" d="M38.296,28.544c1.791-1.078,6.754-1.534,7.954,2.391S35.175,30.421,38.296,28.544z"/>
</svg>
