<?xml version="1.0" encoding="utf-8"?>
<!-- Generator: Adobe Illustrator 15.0.0, SVG Export Plug-In . SVG Version: 6.00 Build 0)  -->
<!DOCTYPE svg PUBLIC "-//W3C//DTD SVG 1.1//EN" "http://www.w3.org/Graphics/SVG/1.1/DTD/svg11.dtd">
<svg version="1.1" id="Layer_1" xmlns="http://www.w3.org/2000/svg" xmlns:xlink="http://www.w3.org/1999/xlink" x="0px" y="0px"
	 width="64px" height="64px" viewBox="0 0 64 64" enable-background="new 0 0 64 64" xml:space="preserve">
<path fill="#CFD8DD" d="M28.365,28.361c4.512-4.51-7.039-10.494-7.598-15.061c-0.257-2.092,2.2-6.225-1.129-9.555
	c-2.329-2.328-6.101-2.328-8.43,0C9.587,5.369,9.099,7.691,9.737,9.738C7.693,9.1,5.368,9.588,3.746,11.207
	c-2.328,2.33-2.328,6.102-0.001,8.43c3.332,3.33,7.466,0.875,9.559,1.129C17.866,21.326,23.853,32.875,28.365,28.361z"/>
<path fill="#E6EBEF" d="M5.253,11.533c2.981-0.574,5.877,0.598,7.58,2.779c-0.009-0.063-0.004-0.121-0.016-0.182
	C12.333,11.619,9.83,9.99,7.23,10.492c-0.878,0.17-1.643,0.574-2.268,1.113C5.06,11.582,5.154,11.553,5.253,11.533z"/>
<path fill="#E6EBEF" d="M14.183,3.846c2.152-0.416,4.243,0.432,5.473,2.006c-0.006-0.045-0.003-0.088-0.011-0.131
	c-0.351-1.813-2.158-2.99-4.035-2.627c-0.634,0.123-1.186,0.414-1.637,0.803C14.043,3.881,14.112,3.859,14.183,3.846z"/>
<path fill="#B47D56" d="M28.564,54.463c20.581,20.58,46.479-5.32,25.901-25.9c-8.229-8.229-18.172-6.695-25.971-8.313
	c-2.766-0.576-4.829-3.039-4.829-3.039s-0.646,1.709-1.003,3.646c-1.994-1.615-3.738-2.682-3.738-2.682s-0.223,2.402,0.313,4.854
	c-1.175,0.314-2.025,0.635-2.025,0.635s2.464,2.063,3.039,4.828C21.872,36.291,20.335,46.234,28.564,54.463z"/>
<path fill="#9E6C49" d="M61.052,50.394c-5.761,8.539-18.958,11.6-30.488,0.069c-8.229-8.229-7.469-17.149-9.09-24.948
	c-0.277-1.333-1.276-2.074-2.238-2.488c0,0,0,0.002,0.001,0.003c-1.175,0.314-2.025,0.635-2.025,0.635s2.464,2.063,3.039,4.828
	c1.621,7.799,0.085,17.742,8.313,25.971C41.754,67.653,57.128,61.751,61.052,50.394z"/>
<rect x="44.751" y="40.686" transform="matrix(0.7071 -0.7071 0.7071 0.7071 -15.9702 44.302)" fill="#C4926E" width="1.483" height="1.485"/>
<rect x="49.623" y="45.003" transform="matrix(0.7064 0.7078 -0.7078 0.7064 47.1624 -22.2182)" fill="#C4926E" width="1.485" height="1.485"/>
<rect x="40.179" y="36.608" transform="matrix(0.7074 -0.7068 0.7068 0.7074 -14.4266 39.8494)" fill="#C4926E" width="1.484" height="1.485"/>
<rect x="35.305" y="31.733" transform="matrix(0.7071 -0.7071 0.7071 0.7071 -12.4053 35.0002)" fill="#C4926E" width="1.483" height="1.484"/>
<rect x="53.522" y="33.358" transform="matrix(0.7074 -0.7068 0.7068 0.7074 -8.2252 48.3287)" fill="#C4926E" width="1.484" height="1.484"/>
<rect x="48.783" y="29.053" transform="matrix(0.7071 -0.7071 0.7071 0.7071 -6.5628 43.7458)" fill="#C4926E" width="1.483" height="1.483"/>
<rect x="42.993" y="25.798" transform="matrix(0.7064 -0.7078 0.7078 0.7064 -5.9455 38.7452)" fill="#C4926E" width="1.485" height="1.483"/>
<rect x="57.301" y="38.621" transform="matrix(0.7074 0.7068 -0.7068 0.7074 44.8024 -29.5072)" fill="#C4926E" width="1.484" height="1.484"/>
<rect x="46.941" y="34.767" transform="matrix(0.7064 -0.7078 0.7078 0.7064 -11.1343 44.1724)" fill="#C4926E" width="1.485" height="1.483"/>
<rect x="51.866" y="40.369" transform="matrix(0.7076 -0.7066 0.7066 0.7076 -13.7945 49.504)" fill="#C4926E" width="2.098" height="2.099"/>
<rect x="36.586" y="25.461" transform="matrix(0.7074 -0.7068 0.7068 0.7074 -7.5989 34.0488)" fill="#C4926E" width="1.484" height="1.484"/>
<rect x="40.67" y="30.594" transform="matrix(0.7073 -0.7069 0.7069 0.7073 -10.1586 38.7507)" fill="#C4926E" width="2.097" height="2.099"/>
<rect x="56.772" y="45.648" transform="matrix(0.7064 0.7078 -0.7078 0.7064 49.7163 -27.0887)" fill="#C4926E" width="1.485" height="1.484"/>
</svg>
