<?xml version="1.0" encoding="utf-8"?>
<!-- Generator: Adobe Illustrator 15.0.0, SVG Export Plug-In . SVG Version: 6.00 Build 0)  -->
<!DOCTYPE svg PUBLIC "-//W3C//DTD SVG 1.1//EN" "http://www.w3.org/Graphics/SVG/1.1/DTD/svg11.dtd">
<svg version="1.1" id="Layer_1" xmlns="http://www.w3.org/2000/svg" xmlns:xlink="http://www.w3.org/1999/xlink" x="0px" y="0px"
	 width="64px" height="64px" viewBox="0 0 64 64" enable-background="new 0 0 64 64" xml:space="preserve">
<path fill="#B00505" d="M4,32l28,20l28-20C60-8,4-8,4,32z"/>
<path fill="#F59E01" d="M19.616,43.209h-8c0,0,0-23.729,0-33.122c0-3.264,8-9.192,8-5.928
	C19.616,13.069,19.616,43.209,19.616,43.209z"/>
<path fill="#F9C802" d="M19.616,43.209h-6c0,0,0-21.355,0-30.28c0-3.101,6-7.49,6-5.928C19.616,14.576,19.616,43.209,19.616,43.209z
	"/>
<path fill="#F9B700" d="M15.884,50.556L8.015,52c0,0-4.282-23.338-5.979-32.577c-0.589-3.21,6.21-10.485,6.799-7.275
	C10.443,20.911,15.884,50.556,15.884,50.556z"/>
<path fill="#FFE12C" d="M15.884,50.556l-5.901,1.083c0,0-3.854-21.004-5.466-29.782c-0.56-3.05,4.549-8.45,4.832-6.914
	C10.716,22.394,15.884,50.556,15.884,50.556z"/>
<path fill="#F59E01" d="M34.159,45.161l7.905,1.229c0,0,3.644-23.446,5.086-32.729c0.502-3.225-6.494-10.312-6.994-7.086
	C38.787,15.379,34.159,45.161,34.159,45.161z"/>
<path fill="#F9C802" d="M34.159,45.161l5.929,0.921c0,0,3.279-21.102,4.65-29.92c0.476-3.064-4.779-8.323-5.02-6.779
	C38.557,16.868,34.159,45.161,34.159,45.161z"/>
<path fill="#F59E01" d="M53.966,42h-8c0,0,0-23.728,0-33.121c0-3.264,8-9.192,8-5.929C53.966,11.86,53.966,42,53.966,42z"/>
<path fill="#F9C802" d="M53.966,42h-6c0,0,0-21.354,0-30.279c0-3.101,6-7.49,6-5.929C53.966,13.367,53.966,42,53.966,42z"/>
<path fill="#F59E01" d="M30.807,45.5h-8c0,0,0-25.803,0-36.019c0-3.549,8-9.997,8-6.447C30.807,12.724,30.807,45.5,30.807,45.5z"/>
<path fill="#F9C802" d="M30.807,45.5h-6c0,0,0-23.223,0-32.929c0-3.372,6-8.146,6-6.447C30.807,14.362,30.807,45.5,30.807,45.5z"/>
<path fill="#F9B700" d="M38.31,47.553l-7.999,0.072c0,0-0.217-23.727-0.302-33.12c-0.03-3.264,7.916-9.265,7.945-6.001
	C38.035,17.414,38.31,47.553,38.31,47.553z"/>
<path fill="#FFE12C" d="M38.31,47.553l-5.999,0.055c0,0-0.195-21.354-0.276-30.279c-0.028-3.101,5.93-7.544,5.946-5.982
	C38.049,18.921,38.31,47.553,38.31,47.553z"/>
<path fill="#F9B700" d="M49.966,50.778L42.03,51.79c0,0-3.001-23.537-4.189-32.855c-0.413-3.237,6.772-10.13,7.187-6.893
	C46.154,20.881,49.966,50.778,49.966,50.778z"/>
<path fill="#FFE12C" d="M49.966,50.778l-5.952,0.759c0,0-2.701-21.184-3.83-30.037c-0.392-3.075,5.005-8.188,5.203-6.639
	C46.344,22.375,49.966,50.778,49.966,50.778z"/>
<path fill="#F9B700" d="M45.142,50.139l7.694,2.192c0,0,6.501-22.82,9.074-31.854c0.895-3.139-5.175-11.032-6.068-7.893
	C53.4,21.152,45.142,50.139,45.142,50.139z"/>
<path fill="#FFE12C" d="M45.142,50.139l5.771,1.645c0,0,5.85-20.538,8.296-29.122c0.849-2.982-3.72-8.848-4.146-7.345
	C52.987,22.602,45.142,50.139,45.142,50.139z"/>
<path fill="#F9B700" d="M25.049,49.353l-7.963-0.771c0,0,2.283-23.617,3.188-32.967c0.314-3.249,8.848-8.379,8.533-5.13
	C27.95,19.353,25.049,49.353,25.049,49.353z"/>
<path fill="#FFE12C" d="M25.049,49.353l-5.973-0.577c0,0,2.056-21.256,2.914-30.14c0.299-3.086,6.693-6.878,6.543-5.323
	C27.805,20.854,25.049,49.353,25.049,49.353z"/>
<path fill="#E81C27" d="M50.811,34c0,13.31-37.622,13.31-37.622,0L4,32l4.57,24.098c13.237,7.869,33.623,7.869,46.86,0L60,32
	L50.811,34z"/>
</svg>
