<?xml version="1.0" encoding="utf-8"?>
<!-- Generator: Adobe Illustrator 15.0.0, SVG Export Plug-In . SVG Version: 6.00 Build 0)  -->
<!DOCTYPE svg PUBLIC "-//W3C//DTD SVG 1.1//EN" "http://www.w3.org/Graphics/SVG/1.1/DTD/svg11.dtd">
<svg version="1.1" id="Layer_1" xmlns="http://www.w3.org/2000/svg" xmlns:xlink="http://www.w3.org/1999/xlink" x="0px" y="0px"
	 width="64px" height="64px" viewBox="0 0 64 64" enable-background="new 0 0 64 64" xml:space="preserve">
<path fill="#CFD8DD" d="M37.486,42.63l5.66-5.168c0,0,6.319,6.438,8.082,6.652c1.994,0.244,5.934-2.098,9.106,1.076
	c2.22,2.219,2.22,5.813,0.001,8.033c-1.547,1.545-3.76,2.01-5.712,1.402c0.608,1.949,0.144,4.164-1.401,5.711
	c-2.219,2.217-5.813,2.217-8.033,0c-3.174-3.176-0.833-7.115-1.076-9.109C44.24,49.04,37.486,42.63,37.486,42.63z"/>
<path fill="#CFD8DD" d="M21.369,26.513l5.168-5.66c0,0-6.436-6.32-6.652-8.082c-0.244-1.994,2.098-5.934-1.076-9.107
	c-2.219-2.22-5.813-2.22-8.032,0c-1.545,1.545-2.011,3.76-1.403,5.711c-1.949-0.608-4.163-0.144-5.71,1.401
	c-2.217,2.219-2.217,5.814,0,8.034c3.175,3.173,7.115,0.833,9.109,1.076C14.96,19.76,21.369,26.513,21.369,26.513z"/>
<path fill="#E6EBEF" d="M52.352,59.833c0.575-2.98-0.598-5.877-2.777-7.58c0.061,0.008,0.12,0.004,0.181,0.016
	c2.511,0.484,4.142,2.988,3.64,5.588c-0.172,0.879-0.576,1.643-1.113,2.268C52.303,60.026,52.334,59.933,52.352,59.833z"/>
<path fill="#E6EBEF" d="M60.041,50.903c0.414-2.152-0.432-4.242-2.006-5.473c0.043,0.006,0.086,0.002,0.131,0.012
	c1.812,0.35,2.988,2.156,2.626,4.033c-0.123,0.635-0.415,1.186-0.804,1.639C60.006,51.044,60.027,50.976,60.041,50.903z"/>
<path fill="#E6EBEF" d="M4.16,11.411c2.98-0.575,5.876,0.598,7.58,2.778c-0.01-0.062-0.004-0.121-0.016-0.181
	c-0.485-2.511-2.989-4.141-5.589-3.639c-0.878,0.17-1.642,0.575-2.268,1.113C3.966,11.46,4.061,11.43,4.16,11.411z"/>
<path fill="#E6EBEF" d="M13.09,3.722c2.152-0.415,4.242,0.432,5.473,2.007c-0.006-0.044-0.004-0.087-0.012-0.131
	c-0.35-1.813-2.157-2.99-4.035-2.628c-0.633,0.124-1.185,0.416-1.637,0.804C12.949,3.757,13.018,3.736,13.09,3.722z"/>
<path fill="#B47D56" d="M32.127,10.631c1.576,0.381,4.574,7.026,9.395,11.847c4.822,4.822,11.466,7.82,11.847,9.395
	c1.187,4.884-16.611,22.679-21.495,21.496c-1.574-0.381-4.572-7.025-9.395-11.849c-4.82-4.82-11.465-7.818-11.847-9.393
	C9.447,27.245,27.243,9.445,32.127,10.631z"/>
<path fill="#9E6C49" d="M12.889,26.42c2.662,2.043,7.578,5.088,11.566,9.076c5.562,5.562,9.299,12.946,11.022,13.476
	c2.419,0.748,7.381-2.486,11.94-6.742C42.1,48.183,34.749,54.065,31.873,53.368c-1.574-0.381-4.572-7.025-9.395-11.849
	c-4.82-4.82-11.465-7.818-11.847-9.392C10.33,30.886,11.26,28.808,12.889,26.42z"/>
<polyline fill="#C4926E" points="49.387,31.925 50.387,32.925 49.386,33.925 48.386,32.925 49.387,31.925 "/>
<polyline fill="#C4926E" points="46.053,33.3 47.053,34.3 46.053,35.3 45.053,34.3 46.053,33.3 "/>
<rect x="25.676" y="19.103" transform="matrix(-0.7071 -0.7071 0.7071 -0.7071 31.0306 52.4729)" fill="#C4926E" width="1.414" height="1.415"/>
<rect x="28.572" y="14.112" transform="matrix(0.707 -0.7072 0.7072 0.707 -2.0477 25.4027)" fill="#C4926E" width="2.122" height="2.121"/>
<rect x="30.218" y="18.337" transform="matrix(0.7068 -0.7075 0.7075 0.7068 -4.405 27.4621)" fill="#C4926E" width="1.414" height="1.416"/>
<rect x="31.426" y="12.966" transform="matrix(0.7071 -0.7071 0.7071 0.7071 -0.2569 26.7261)" fill="#C4926E" width="1.414" height="1.414"/>
<rect x="40.948" y="24.818" transform="matrix(0.7073 0.7069 -0.7069 0.7073 30.2376 -21.9755)" fill="#C4926E" width="1.414" height="1.414"/>
<rect x="37.422" y="27.598" transform="matrix(-0.707 0.7072 -0.7072 -0.707 85.9572 21.7045)" fill="#C4926E" width="2.122" height="2.122"/>
<rect x="35.275" y="29.451" transform="matrix(-0.7068 0.7075 -0.7075 -0.7068 82.7489 26.017)" fill="#C4926E" width="1.415" height="1.414"/>
<polyline fill="#9E6C49" points="27.258,36.226 28.758,37.726 27.258,39.227 25.758,37.725 27.258,36.226 "/>
<polyline fill="#9E6C49" points="29.275,32.255 30.275,33.255 29.274,34.255 28.274,33.255 29.275,32.255 "/>
<polyline fill="#9E6C49" points="37.422,43.54 38.922,45.04 37.422,46.54 35.922,45.04 37.422,43.54 "/>
<polyline fill="#9E6C49" points="39.655,39.067 40.655,40.067 39.655,41.066 38.655,40.067 39.655,39.067 "/>
<polyline fill="#9E6C49" points="40.349,42.612 41.349,43.612 40.349,44.612 39.35,43.614 40.349,42.612 "/>
<polyline fill="#9E6C49" points="20.971,25.376 21.97,26.376 20.971,27.376 19.97,26.376 20.971,25.376 "/>
<polyline fill="#9E6C49" points="17.851,26.109 18.851,27.109 17.851,28.109 16.85,27.109 17.851,26.109 "/>
<polyline fill="#9E6C49" points="25.543,31.726 26.543,32.727 25.542,33.727 24.542,32.727 25.543,31.726 "/>
</svg>
