<?xml version="1.0" encoding="utf-8"?>
<!-- Generator: Adobe Illustrator 15.0.0, SVG Export Plug-In . SVG Version: 6.00 Build 0)  -->
<!DOCTYPE svg PUBLIC "-//W3C//DTD SVG 1.1//EN" "http://www.w3.org/Graphics/SVG/1.1/DTD/svg11.dtd">
<svg version="1.1" id="Layer_1" xmlns="http://www.w3.org/2000/svg" xmlns:xlink="http://www.w3.org/1999/xlink" x="0px" y="0px"
	 width="64px" height="64px" viewBox="0 0 64 64" enable-background="new 0 0 64 64" xml:space="preserve">
<path fill="#CFD8DD" d="M62,30.417C62,40.129,53.406,52,32,52S2,40.129,2,30.417H62z"/>
<path fill="#E6EBEF" d="M62,30.416c0,10.729-13.432,19.426-30,19.426S2,41.145,2,30.416C2,19.687,15.432,12,32,12
	S62,19.687,62,30.416z"/>
<path fill="#BEC3CF" d="M7,30.474c0-7.477,8.433-15.369,25-15.369c16.569,0,25,7.892,25,15.369H7z"/>
<path fill="#D47706" d="M32,15.846c13.808,0,25,5.968,25,14.252c0,5.625-6.223,14.748-25,14.748S7,35.724,7,30.098
	C7,21.814,18.194,15.846,32,15.846z"/>
<path fill="#AB5C10" d="M37.785,27.874c-5.758,0-1.74,4.272-1.74,4.272L37.785,27.874z"/>
<path fill="#EA8800" d="M40.652,30.667c-0.421,1.255-4.607,1.479-4.607,1.479s0.64-4.272,1.74-4.272
	C38.688,27.874,40.968,29.722,40.652,30.667z"/>
<path fill="#EA8800" d="M25.199,34.884c6.028,0,1.821,4.272,1.821,4.272L25.199,34.884z"/>
<path fill="#AB5C10" d="M22.198,37.678c0.439,1.254,4.822,1.479,4.822,1.479s-0.67-4.272-1.822-4.272
	C24.253,34.884,21.867,36.732,22.198,37.678z"/>
<path fill="#EA8800" d="M48.656,25.093c6.027,0,1.822,4.272,1.822,4.272L48.656,25.093z"/>
<path fill="#AB5C10" d="M45.656,27.886c0.439,1.255,4.822,1.479,4.822,1.479s-0.67-4.272-1.822-4.272
	C47.711,25.093,45.326,26.94,45.656,27.886z"/>
<path fill="#9E6C49" d="M44.544,33.904c5.758,0,1.74,4.272,1.74,4.272L44.544,33.904z"/>
<path fill="#785647" d="M41.677,36.697c0.421,1.256,4.607,1.479,4.607,1.479s-0.64-4.272-1.74-4.272
	C43.641,33.904,41.361,35.753,41.677,36.697z"/>
<path fill="#785647" d="M34.104,34.262c-5.756,0-1.74,4.272-1.74,4.272L34.104,34.262z"/>
<path fill="#9E6C49" d="M36.971,37.055c-0.42,1.255-4.607,1.479-4.607,1.479s0.639-4.272,1.74-4.272
	C35.008,34.262,37.285,36.109,36.971,37.055z"/>
<path fill="#9E6C49" d="M38.346,20.896c5.758,0,1.74,4.272,1.74,4.272L38.346,20.896z"/>
<path fill="#785647" d="M35.479,23.689c0.419,1.254,4.607,1.479,4.607,1.479s-0.64-4.272-1.74-4.272
	C37.441,20.896,35.163,22.743,35.479,23.689z"/>
<path fill="#E6EBEF" d="M33.521,20.956c0-1.611-0.397-2.993-1.612-3.183c-0.193-3.584-2.456-2.426-2.383-3.741
	c0.116-2.063-3.937-1.683-4.922-0.784c-1.303-1.523-6.068-1.557-8.776,1.12c-1.419-0.925-8.421,2.135-6.925,6.48
	c-1.243,0.443-3.771,4.971-1.962,5.872c1.155,0.575-2.984,2.74-0.032,4.662c-0.429,1.181,0.741,3.694,1.552,4.188
	C13.76,38.804,33.521,29.042,33.521,20.956z"/>
<path fill="#CFD8DD" d="M33.521,20.956C31.113,31.357,6.904,33.89,8.902,20.848c-1.243,0.443-3.771,4.971-1.962,5.872
	c1.155,0.575-2.984,2.74-0.032,4.662c-0.429,1.181,0.741,3.694,1.552,4.188C13.76,38.804,33.521,29.042,33.521,20.956z"/>
<path fill="#E6EBEF" d="M18.258,28.942c-3.48-0.715-4.281,1.343-0.791,2.101C20.974,31.809,21.76,29.659,18.258,28.942z"/>
<path fill="#CFD8DD" d="M27.509,25.482c-2.568-2.049-4.525-0.601-1.979,1.489C28.089,29.078,30.093,27.543,27.509,25.482z"/>
<path fill="#CFD8DD" d="M28.883,20.187c-3.076,1.51-1.856,3.425,1.263,1.941C33.287,20.64,31.979,18.666,28.883,20.187z"/>
<path fill="#E6EBEF" d="M9.923,27.829c-3.076,1.511-1.855,3.424,1.263,1.942C14.327,28.282,13.019,26.308,9.923,27.829z"/>
<path fill="#CFD8DD" d="M27.461,15.266c-3.307-1.141-4.481,0.792-1.175,1.979C29.608,18.439,30.785,16.414,27.461,15.266z"/>
<path fill="#CFD8DD" d="M18.425,14.214c-3.354,1.043-2.569,3.104,0.822,2.092C22.66,15.293,21.798,13.163,18.425,14.214z"/>
<path fill="#CFD8DD" d="M14.732,18.732c-3.057-1.534-4.574,0.234-1.524,1.811C16.273,22.134,17.813,20.274,14.732,18.732z"/>
<path fill="#E6EBEF" d="M31.406,24.118c-1.827,2.949-0.288,4.697,1.579,1.761C34.869,22.928,33.243,21.147,31.406,24.118z"/>
<path fill="#CFD8DD" d="M30.805,25.178c-1.827,2.949,1.145,4.285,2.883-0.782C33.013,25.304,31.009,26.661,30.805,25.178z"/>
<path fill="#CFD8DD" d="M21.7,19.533c-3.451,0.807-2.881,2.915,0.604,2.141C25.808,20.899,25.168,18.717,21.7,19.533z"/>
<path fill="#CFD8DD" d="M25.625,29.967c-3.451,0.807-2.88,2.915,0.604,2.141C29.733,31.333,29.093,29.151,25.625,29.967z"/>
<path fill="#CFD8DD" d="M12.169,23.311c-3.195,1.334-2.14,3.312,1.096,2.007C16.522,24.005,15.383,21.965,12.169,23.311z"/>
<path fill="#CFD8DD" d="M19.113,32.893c-3.193,1.333-2.139,3.312,1.097,2.007C23.469,33.588,22.328,31.548,19.113,32.893z"/>
<path fill="#CFD8DD" d="M19.828,25.194c-3.434-0.849-4.353,1.174-0.913,2.067C22.373,28.165,23.285,26.048,19.828,25.194z"/>
<path fill="#E6EBEF" d="M26.679,29.807c-2.031,0.196-2.166,1.478-0.123,1.305C28.611,30.94,28.723,29.609,26.679,29.807z"/>
<path fill="#E6EBEF" d="M20.733,32.452c-1.563,0.031-1.571,1.269,0.002,1.262C22.317,33.708,22.306,32.421,20.733,32.452z"/>
<path fill="#E6EBEF" d="M13.782,31.646c-1.562,0.031-1.571,1.269,0.002,1.262C15.366,32.901,15.354,31.614,13.782,31.646z"/>
</svg>
