<?xml version="1.0" encoding="utf-8"?>
<!-- Generator: Adobe Illustrator 16.2.0, SVG Export Plug-In . SVG Version: 6.00 Build 0)  -->
<!DOCTYPE svg PUBLIC "-//W3C//DTD SVG 1.1//EN" "http://www.w3.org/Graphics/SVG/1.1/DTD/svg11.dtd">
<svg version="1.1" id="Layer_1" xmlns="http://www.w3.org/2000/svg" xmlns:xlink="http://www.w3.org/1999/xlink" x="0px" y="0px"
	 width="64px" height="64px" viewBox="0 0 64 64" enable-background="new 0 0 64 64" xml:space="preserve">
<path fill="#CBD716" d="M45.82,29.097c-3.73-5.919-3.513-16.029-13.267-16.038c-9.766-0.01-8.788,10.119-12.493,16.038
	c-2.705,4.322-8.154,10.2-8.146,16.551c0.027,21.802,42.112,21.802,42.084,0C53.991,39.288,48.553,33.43,45.82,29.097z"/>
<path fill="#7AB51D" d="M31.122,10.506C28.162-2.146,10,3.062,10,3.062C18.304,16.529,31.122,10.506,31.122,10.506z"/>
<path fill="#529320" d="M31.122,10.506C21.158,4.263,10,3.062,10,3.062C18.304,16.529,31.122,10.506,31.122,10.506z"/>
<path fill="#92C932" d="M10.251,3.062c12.289,1.03,24.438,8.479,23.467,9.044C32.398,12.875,27.322,6.398,10.251,3.062z"/>
<path fill="#B47D56" d="M32.48,17.994c2.687-2.563,2.183-12.533-0.293-12.208C28.82,6.23,34.706,9.123,32.48,17.994z"/>
<path fill="#9DA60C" d="M32.953,17.419c1.446-0.029,2.017-1.182,3.674-0.719c-1.761,0-2.155,1.518-3.674,1.59
	c-1.52-0.073-1.897-1.59-3.675-1.59C30.937,16.237,31.506,17.391,32.953,17.419z"/>
<path fill="#D9E617" d="M32.496,43.86c-0.31-3.493-3.492-0.328-10.202-3.273c-2.987-1.312-4.717,2.053-2.908,4.996
	C23.435,52.162,32.814,47.443,32.496,43.86z"/>
<path fill="#BDC70E" d="M18.848,58.136C30.8,66.007,54.021,61.847,54,45.648c-0.007-5.034-3.412-9.75-6.189-13.647L47.81,32
	C50.548,36,57.336,68.001,18.848,58.136z"/>
</svg>
