<?xml version="1.0" encoding="utf-8"?>
<!-- Generator: Adobe Illustrator 15.0.0, SVG Export Plug-In . SVG Version: 6.00 Build 0)  -->
<!DOCTYPE svg PUBLIC "-//W3C//DTD SVG 1.1//EN" "http://www.w3.org/Graphics/SVG/1.1/DTD/svg11.dtd">
<svg version="1.1" id="Layer_1" xmlns="http://www.w3.org/2000/svg" xmlns:xlink="http://www.w3.org/1999/xlink" x="0px" y="0px"
	 width="64px" height="64px" viewBox="0 0 64 64" enable-background="new 0 0 64 64" xml:space="preserve">
<path fill="#785647" d="M34.373,9.091c0-2.3-3.408-2.734-3.408-0.486c0,2.634-1.361,3.592-1.361,5.008
	c0,1.766,4.018,2.083,4.018,0.204C33.62,11.955,34.373,12.215,34.373,9.091z"/>
<path fill="#B47D56" d="M33.088,8.798c2.766,0-2.296-3.594-2.296-0.278c0,2.634-1.89,3.87-1.067,5.588
	C31.512,11.865,30.178,8.798,33.088,8.798z"/>
<path fill="#FF9D80" d="M32,13.997c0,0-3.5-2-10-2S4,16.528,4,31.992c0,20.001,24.623,30.445,26,29.994
	c10.06-3.297,32-9.023,32-28.994C62,12.218,40.146,9.615,32,13.997z"/>
<path fill="#F06F48" d="M42.971,40.871c1.506-6.973,0.047-14.846-7.85-22.035c4.693,6.699,6.963,16.373,2.537,23.527
	C28.283,57.521,6.822,44.525,4,31.992c0,20.001,24.623,30.445,26,29.994c10.06-3.297,32-9.023,32-28.994
	C61.413,42.865,48.812,52.417,42.971,40.871z"/>
<path fill="#E03636" d="M5.907,41.376C11.83,55.841,28.859,62.358,30,61.985c6.324-2.072,17.355-5.109,24.668-12.04
	c-3.592,2.445-9.338,5.167-15.523,5.433c0,0,1.623-3.391,1.373-9.453C35.643,62.737,17.643,59.925,5.907,41.376z"/>
<path fill="#92C932" d="M31.885,8.042c-1.994-2.979-3.695-2.354-3.695-2.354l-0.205-1.017c0,0,2.439-0.837,4.759,2.627
	C33.09,7.814,32.162,8.462,31.885,8.042z"/>
<path fill="#7AB51D" d="M4.182,14.083c8.688-3.644,19.5,0.672,24.36-9.2C16.745-2.765,9.057,6.375,4.182,14.083z"/>
<path fill="#92C932" d="M2,20.856c10.838,3.04,26.744-4.617,26.542-15.973C13.12,3.552,9.963,15.052,2,20.856z"/>
<path fill="#529320" d="M28.542,4.883C13.078,8.177,15.078,16.427,2,20.856C15.745,16.968,15.71,7.665,28.542,4.883z"/>
</svg>
