<?xml version="1.0" encoding="utf-8"?>
<!-- Generator: Adobe Illustrator 15.0.0, SVG Export Plug-In . SVG Version: 6.00 Build 0)  -->
<!DOCTYPE svg PUBLIC "-//W3C//DTD SVG 1.1//EN" "http://www.w3.org/Graphics/SVG/1.1/DTD/svg11.dtd">
<svg version="1.1" id="Layer_1" xmlns="http://www.w3.org/2000/svg" xmlns:xlink="http://www.w3.org/1999/xlink" x="0px" y="0px"
	 width="64px" height="64px" viewBox="0 0 64 64" enable-background="new 0 0 64 64" xml:space="preserve">
<path fill="#CFD8DD" d="M32,62c28.295,0,46.301-27,0-27C-14.302,35,3.705,62,32,62z"/>
<path fill="#99A8AE" d="M50.967,3.81c-0.625-3.58-8.238,0.168-20.818,2.401c-1.291,0.229-2.063-0.242-2.802-0.796
	c-0.738-0.557-2.374-2.169-6.244-1.481c-1.291,0.23-8.252,2.51-8.1,3.379c0.051,0.289,7.687-1.936,7.894-0.753
	s-7.752,1.559-7.563,2.636c0.188,1.079,7.779-1.405,8.004-0.126c0.224,1.28-7.753,1.56-7.564,2.639
	c0.189,1.08,7.797-1.309,8.005-0.126c0.207,1.183-7.726,1.721-7.674,2.009c0.152,0.87,7.47,0.616,8.76,0.388
	c3.87-0.688,4.859-2.765,5.365-3.542c0.506-0.776,1.07-1.484,2.361-1.714C43.168,6.489,51.594,7.389,50.967,3.81z"/>
<ellipse fill="#E6EBEF" cx="32" cy="45" rx="30" ry="15"/>
<path fill="#FFE463" d="M24,9c0-4.979-1.25-7-2.625-7c-1.764,0-1.693,2.299-1.198,2.165c0.322-0.087,1.82,0.07,1.82,9.967
	c0,5.896-0.029,27.396,3.003,31.868C25,46,24,31.145,24,9z M17.237,14.182c-0.001-4.287-0.783-6.694-1.538-8.896
	c-0.477-1.39-2.027-1.063-2.199,0.318c-0.056,0.439,0.264,0.987,0.458,0.848c1.197,3.08,1.269,5.501,1.269,7.558
	C15.227,15.531,17.237,15.217,17.237,14.182z"/>
<path fill="#FBB855" d="M51.5,52.583c7.666-5.5,8.268-14.593-16.492-18.088C32.152,34.092,1.346,37.617,8.625,47
	c2.042,4.583,12.375,6,19.629,8.583C34.75,54.917,48,54.5,51.5,52.583z"/>
<path fill="#FFE463" d="M20.237,14.311c0-2.467-0.001-6.584-1.538-10.386c-0.614-1.519-2.027-1.202-2.199,0.361
	c-0.056,0.496,0.264,1.113,0.458,0.956c1.408,3.834,1.408,8.953,1.408,8.953C18.366,15.729,20.237,15.34,20.237,14.311z"/>
<path fill="#FFE463" d="M51.736,39.607c-1.82,2.893,9.098,4.535,1.143,9.937c-0.26-0.491-0.627-0.917-1.078-1.243
	c1.6-1.494,2.576-3.457,0.816-5.375l-13.691,4.155c0,0,3.984,4.133,10.619,2.272C51.246,48.878,52.805,53,48,53
	c-1.389,0-5.844-2.162-10.994-5.583C31.289,44.667,28,52,32.304,54.087c-4.05,2.288-8.65-1.041-8.65-1.041
	C36,43,26.912,47.633,21,51.559c0,0-2.873-1.679-4.268-2.488c1.821,0.437,5.511-0.779,5.511-3.984
	c-10.557,4.916-5.75-2.919-7.765-3.727c-1.373-0.551-2.3,4.514-0.544,6.27c-1.01-0.441-2.046-0.797-3.118-1.004
	c0,0-0.191-3.471,2.184-7.623c-4.375-1-11.43,6-3.918,9.6c1.524,4.668,7.856,5.305,11.42,4.978c0,0,6.332,6.425,15.223,1.771
	c0,0,4.275,1.691,8.521-1.055c4.195,1.553,8.004,0.792,8.959-2.788C56.99,50.417,62.5,43.152,51.736,39.607z M10.616,41.063
	C8.545,43.134,8.776,46,8.776,46C6.229,43.453,10.616,41.063,10.616,41.063z M12.089,48.936c1.802,0.571,3.536,1.561,5.241,2.629
	C12.91,50.877,12.089,48.936,12.089,48.936z M35.063,53.563c-5.375-2.375-0.375-5.5-0.375-5.5S39.123,51.48,35.063,53.563z
	 M38.186,53.591c0.527-0.582,0.807-1.2,0.873-1.836c0.756,0.46,1.607,0.933,2.516,1.378C40.471,53.438,39.33,53.591,38.186,53.591z"
	/>
<path fill="#C21413" d="M33.662,33C17.544,33,10,36.225,10,39.964c0,3.161,2.779,1.826,5.191,4.036c4.299,3.938,7.252,7,12.292,7
	c4.183,0,7.124-2.221,9.454-3c5.969-2,9.461,3.008,14.93-2C56.695,41.579,54.406,33,33.662,33z"/>
<path fill="#E81C27" d="M28,48.264c-5.707,0-9.538-8.597-16-7.084C18.462,41.836,22.667,51.736,28,48.264z"/>
<path fill="#6E4640" d="M31.099,39.461C33.859,36.725,29.83,30,25.027,30c-4.729,0-8.059,4.798-6.735,8.18
	c0,0,2.604-1.283,4.708,0.82C26.249,42.249,27.197,37.589,31.099,39.461z M47.631,42.664C49.223,39.248,45.426,34,40.744,34
	c-4.809,0-7.996,5.146-6.271,8.564c0,0,2.859-1.064,5.631,0.711C42.516,44.82,43.43,41.495,47.631,42.664z"/>
<path fill="#529320" d="M23.055,41.675c-0.731,2.128,1.891,0.65,1.891,0.65S23.785,39.547,23.055,41.675z M35.055,39.675
	c-0.73,2.128,1.891,0.65,1.891,0.65S35.785,37.547,35.055,39.675z M33.598,34.084c0,0-1.254,2.738,0.805,1.831
	C36.461,35.009,33.598,34.084,33.598,34.084z M28.449,44.165c0,0-0.777,2.909,1.1,1.67C31.43,44.598,28.449,44.165,28.449,44.165z
	 M36.055,44.675c-0.73,2.128,1.891,0.65,1.891,0.65S36.785,42.547,36.055,44.675z M20.45,40.165c0,0-0.778,2.909,1.1,1.67
	C23.43,40.598,20.45,40.165,20.45,40.165z M14.45,37.165c0,0-0.778,2.909,1.1,1.67C17.43,37.598,14.45,37.165,14.45,37.165z
	 M26.083,32.602c0,0,0.942,2.859,1.835,0.795C28.812,31.33,26.083,32.602,26.083,32.602z M44.082,39.602
	c0,0,0.943,2.859,1.836,0.795C46.813,38.33,44.082,39.602,44.082,39.602z M21.918,36.396c0.894-2.066-1.835-0.795-1.835-0.795
	S21.025,38.461,21.918,36.396z M29.263,37.396c0.892,2.063,1.835-0.795,1.835-0.795S28.369,35.33,29.263,37.396z M38.264,38.396
	c0.891,2.063,1.834-0.795,1.834-0.795S37.369,36.33,38.264,38.396z M49.082,41.602c0,0,0.943,2.859,1.836,0.795
	C51.813,40.33,49.082,41.602,49.082,41.602z M31.055,41.675c-0.73,2.128,1.891,0.65,1.891,0.65S31.785,39.547,31.055,41.675z
	 M43.449,44.165c0,0-0.777,2.909,1.1,1.67C46.43,44.598,43.449,44.165,43.449,44.165z"/>
</svg>
