<?xml version="1.0" encoding="utf-8"?>
<!-- Generator: Adobe Illustrator 16.2.0, SVG Export Plug-In . SVG Version: 6.00 Build 0)  -->
<!DOCTYPE svg PUBLIC "-//W3C//DTD SVG 1.1//EN" "http://www.w3.org/Graphics/SVG/1.1/DTD/svg11.dtd">
<svg version="1.1" id="Layer_1" xmlns="http://www.w3.org/2000/svg" xmlns:xlink="http://www.w3.org/1999/xlink" x="0px" y="0px"
	 width="64px" height="64px" viewBox="0 0 64 64" enable-background="new 0 0 64 64" xml:space="preserve">
<path fill="#C21413" d="M60.754,38.021c4.252,10.239-3.066,18.688-11.599,20.66c-8.529,1.975-18.28-2.453-19.295-13.511
	c-1.345-14.656,9.24-13.577,12.996-14.446C49.002,29.304,55.327,24.953,60.754,38.021z"/>
<path fill="#8F0404" d="M59.996,36.333c-3.67-7.452-7.622-8.105-12.109-7.006c-0.002,0.002-0.003,0.004-0.005,0.007
	C47.882,29.334,52.963,36.333,59.996,36.333z"/>
<path fill="#E03636" d="M41.861,42.844c8.374,0,11.944-7.536,10.935-8.624c-0.865-0.933-5.32,3.875-12.825,3.875
	c-3.479,0-5.006-0.938-5.006,2.354C34.965,41.854,38.198,42.844,41.861,42.844z"/>
<path fill="#92C932" d="M43.163,34.045c-2.729-2.964-9.337-10.715-6.601-25.165h1.351c-2.549,13.451,4.883,21.946,7.422,24.707
	C45.56,33.832,43.373,34.275,43.163,34.045z"/>
<path fill="#7AB51D" d="M42.679,5.5c23.919,0,17.553,29,17.553,29C32.974,29.611,42.679,5.5,42.679,5.5z"/>
<path fill="#92C932" d="M60.268,34.428C56.134,16.555,43.885,3.937,42.679,5.5C41.161,7.467,51.067,10.7,60.268,34.428z"/>
<path fill="#B00505" d="M34.488,32.756c-2.968,1.662-5.303,5.053-4.628,12.415c0.5,5.454,3.131,9.287,6.687,11.543
	C43.976,41.001,34.494,32.762,34.488,32.756z"/>
<path fill="#E81C27" d="M37.984,42.156C40.131,54.545,28.125,62,20.044,62c-9.908,0-19.133-7.33-17.939-19.844
	C3.688,25.569,15.683,29.53,20.044,29.53C27.18,29.53,35.244,26.343,37.984,42.156z"/>
<path fill="#92C932" d="M21.06,33.041h-1.974c0-4.174,12.155-30.589,34.463-31.041c0.495-0.01,0.702,1.096,0.209,1.118
	C34.445,3.952,21.06,29.147,21.06,33.041z"/>
<path fill="#8F0404" d="M43.552,33.589c2.713-0.67,3.42-2.525,6.684-2.601c-3.311,0.767-3.578,3.055-6.41,3.814
	c-2.877,0.562-4.067-1.391-7.408-0.616C39.39,32.818,40.821,34.178,43.552,33.589z"/>
<path fill="#B00505" d="M36.545,51.97c0,0,4.105,6.712,12.61,6.712c0,0-7.516,2.984-15.192-3.849L36.545,51.97z"/>
<path fill="#B00505" d="M20.098,32.869c3.16-0.047,4.404-1.913,8.026-1.163c-3.846,0-4.709,2.457-8.026,2.573
	c-3.316-0.116-4.144-2.573-8.026-2.573C15.696,30.956,16.939,32.822,20.098,32.869z"/>
<path fill="#F46C60" d="M15.872,40.857c5.802,0.743,10.972-1.576,9.953-3.067c-0.873-1.277-3.251,0.539-9.366-0.909
	c-3.495-0.828-7.739-3.42-8.479-0.596C7.627,37.628,9.089,39.988,15.872,40.857z"/>
<path fill="#C21413" d="M9.85,59.142C12.846,61.008,16.413,62,20.044,62c9.908,0,20.572-7.188,17.94-19.844
	C37.984,42.156,38.493,66.063,9.85,59.142z"/>
</svg>
