<?xml version="1.0" encoding="utf-8"?>
<!-- Generator: Adobe Illustrator 15.0.0, SVG Export Plug-In . SVG Version: 6.00 Build 0)  -->
<!DOCTYPE svg PUBLIC "-//W3C//DTD SVG 1.1//EN" "http://www.w3.org/Graphics/SVG/1.1/DTD/svg11.dtd">
<svg version="1.1" id="Layer_1" xmlns="http://www.w3.org/2000/svg" xmlns:xlink="http://www.w3.org/1999/xlink" x="0px" y="0px"
	 width="64px" height="64px" viewBox="0 0 64 64" enable-background="new 0 0 64 64" xml:space="preserve">
<path fill="#D47706" d="M5.793,25.243c0,0,29.342,38.64,36.056,34.966c4.391-2.402,18.368-22.906,18.368-25.553
	c0-7.646,2.233-11.064-0.294-15.303C65.09,15.945,11.979,18.078,5.793,25.243z"/>
<path fill="#AB5C10" d="M42.222,2c-6.754,0-11.471,1.861-14.775,4.081c-6.518,4.377-15.467,11.997-21.653,19.162
	c0,0,12.466,50.933,54.799-5.65C64.298,14.639,61.513,2,42.222,2z"/>
<path fill="#F59E01" d="M23.409,62C3.844,62,3.844,59.783,3.844,58.455c0-2.451-0.239-5.029-0.47-7.51
	c-0.439-4.688-0.854-9.15,0.401-12.383c-1.72-1.846-2.248-4.766-1.329-7.832c1.672-5.557,8.05-11.494,20.963-11.494
	c12.908,0,19.291,5.938,20.957,11.494c0.92,3.066,0.392,5.986-1.329,7.832c1.257,3.232,0.841,7.695,0.405,12.383
	c-0.234,2.48-0.474,5.059-0.474,7.51C42.969,59.783,42.969,62,23.409,62z"/>
<path fill="#FFF1D9" d="M23.409,20.799c-19.291,0-22.869,13.955-17.703,17.354c-2.527,4.238-0.293,12.666-0.293,20.303
	c0,2.646,35.992,2.646,35.992,0c0-7.637,2.229-16.064-0.299-20.303C46.272,34.754,42.695,20.799,23.409,20.799z"/>
<path fill="#FFE8BB" d="M36.386,35.298c0,1.625-2.371,1.625-2.371,0C34.015,33.671,36.386,33.671,36.386,35.298z"/>
<path fill="#FFE8BB" d="M31.087,50.969c0,2.711-3.951,2.711-3.951,0S31.087,48.258,31.087,50.969z"/>
<path fill="#FFE8BB" d="M15.423,49.344c0,2.168-3.16,2.168-3.16,0C12.263,47.174,15.423,47.174,15.423,49.344z"/>
<path fill="#FFE8BB" d="M28.468,35.482c0,2.168-3.16,2.168-3.16,0C25.308,33.313,28.468,33.313,28.468,35.482z"/>
<path fill="#FFE8BB" d="M20.116,27.117c0,2.709-3.951,2.709-3.951,0C16.165,24.405,20.116,24.405,20.116,27.117z"/>
<path fill="#FFE8BB" d="M10.646,31.028c0,1.355-1.975,1.355-1.975,0S10.646,29.673,10.646,31.028z"/>
<path fill="#FFE8BB" d="M33.356,27.775c0,1.355-1.976,1.355-1.976,0S33.356,26.42,33.356,27.775z"/>
<path fill="#FFE8BB" d="M22.492,42.955c0,1.355-1.976,1.355-1.976,0S22.492,41.6,22.492,42.955z"/>
<path fill="#FFE8BB" d="M14.081,38.55c0,1.628-2.37,1.628-2.37,0C11.711,36.923,14.081,36.923,14.081,38.55z"/>
<path fill="#FFE8BB" d="M15.859,56.66c0,1.355-1.976,1.355-1.976,0S15.859,55.305,15.859,56.66z"/>
<path fill="#FFE8BB" d="M34.212,57.135c0,1.627-2.369,1.627-2.369,0C31.843,55.51,34.212,55.51,34.212,57.135z"/>
<path fill="#FFE8BB" d="M22.492,54.629c0,1.354-1.976,1.354-1.976,0C20.517,53.273,22.492,53.273,22.492,54.629z"/>
<path fill="#FFE8BB" d="M35.003,44.986c0,1.355-1.976,1.355-1.976,0S35.003,43.631,35.003,44.986z"/>
<path fill="#D47706" d="M57.179,6.711c-4.668,3.896-19.531,15.145-19.531,15.143c0,0,5.469,2.294,7.166,7.875
	c0,0,11.127-16.844,16.314-16.844C60.347,9.124,57.179,6.711,57.179,6.711z"/>
</svg>
