<?xml version="1.0" encoding="utf-8"?>
<!-- Generator: Adobe Illustrator 15.0.0, SVG Export Plug-In . SVG Version: 6.00 Build 0)  -->
<!DOCTYPE svg PUBLIC "-//W3C//DTD SVG 1.1//EN" "http://www.w3.org/Graphics/SVG/1.1/DTD/svg11.dtd">
<svg version="1.1" id="Layer_1" xmlns="http://www.w3.org/2000/svg" xmlns:xlink="http://www.w3.org/1999/xlink" x="0px" y="0px"
	 width="64px" height="64px" viewBox="0 0 64 64" enable-background="new 0 0 64 64" xml:space="preserve">
<path fill="#8A6859" d="M61.994,32.09C61.421,59.218,23.13,71.711,16.851,47.566c-2.422-9.313-0.871-13.345-2.484-16.897
	c-1.718-3.782-4.244-7.082-4.634-12.407c0,0-4.413-6.895-5.261-11.048C3.898,4.416,1.055,4.679,2.322,3.718
	C4.503,2.064,11.199,1.4,15.239,2.646c1.205,0.372,8.943,1.402,14.136,2.179c4.707,0.705,14.18,3.724,15.671,6.15
	C45.727,12.082,62.267,19.218,61.994,32.09z"/>
<path fill="#785647" d="M20.529,43.922c-2.422-9.312-0.871-13.345-2.484-16.897c-1.718-3.782-3.679-6.827-5.291-11.889
	C12.243,13.53,9.098,5.418,2.275,3.759C1.129,4.676,3.898,4.458,4.463,7.22c0.849,4.153,5.261,11.048,5.261,11.048
	c0.391,5.325,2.916,8.625,4.634,12.407c1.614,3.552,0.062,7.584,2.484,16.897c4.659,17.912,25.532,18.727,39.029,4.77
	C43.895,62.369,24.727,60.06,20.529,43.922z"/>
<path fill="#594640" d="M8.91,16.92c0.351,1.252,1,2.873,1,2.873c0.831-4.15,4.108-7.737,10.405-11.737
	C20.365,8.011,10.608,11.683,8.91,16.92z"/>
<path fill="#594640" d="M18.492,3.235c-2.433,0.706-5.476,2.575-7.795,5.46c4.369-3.229,7.712-3.832,10.331-5.081
	C19.785,3.235,18.492,3.235,18.492,3.235z"/>
<path fill="#594640" d="M14.018,29.929c0.388,1.678,1.114,3.915,1.114,3.915c2.678-9.031,11.48-19.454,11.48-19.454
	S16.725,22.349,14.018,29.929z"/>
<path fill="#594640" d="M44.806,10.655c-8.724,0.441-15.349,6.725-15.349,6.725s10.021-5.159,17.66-5.006
	C46.248,11.753,44.806,10.655,44.806,10.655z"/>
<path fill="#EA8800" d="M61.994,32.09C61.65,10.882,17.134,20.326,17.72,44.354C18.362,70.672,62.58,68.137,61.994,32.09z"/>
<path fill="#D47706" d="M42.257,39.717c0.361-1.551,4.414,7.498,0.417,14.24C41.447,56.028,41.724,42.008,42.257,39.717z
	 M40.505,22.363c-0.319-1.559,7.149,4.997,6.329,12.781C46.583,37.533,40.978,24.665,40.505,22.363z M51.282,38.143
	c0.489-1.514,3.769,7.838-0.78,14.226C49.105,54.328,50.561,40.379,51.282,38.143z M35.082,39.367
	c-0.367,1.549-4.391-7.511-0.373-14.243C35.941,23.06,35.623,37.078,35.082,39.367z M51.787,23.288
	c0.008-1.342,5.035,5.34,3.014,11.624C54.182,36.838,51.779,25.268,51.787,23.288z M58.548,33.99
	c0.288-0.938,2.405,4.786-0.331,8.764C57.377,43.974,58.127,35.375,58.548,33.99z M36.674,60.568
	c-0.068,1.592-5.73-6.558-3.055-13.918C34.441,44.392,36.771,58.223,36.674,60.568z M25.671,55.893
	c-0.068,1.591-5.731-6.559-3.054-13.92C23.437,39.715,25.77,53.543,25.671,55.893z M28.365,45.488
	c-0.256,1.571-4.906-7.189-1.368-14.181C28.082,29.163,28.742,43.17,28.365,45.488z"/>
</svg>
