<?xml version="1.0" encoding="utf-8"?>
<!-- Generator: Adobe Illustrator 16.2.0, SVG Export Plug-In . SVG Version: 6.00 Build 0)  -->
<!DOCTYPE svg PUBLIC "-//W3C//DTD SVG 1.1//EN" "http://www.w3.org/Graphics/SVG/1.1/DTD/svg11.dtd">
<svg version="1.1" id="Layer_1" xmlns="http://www.w3.org/2000/svg" xmlns:xlink="http://www.w3.org/1999/xlink" x="0px" y="0px"
	 width="64px" height="64px" viewBox="0 0 64 64" enable-background="new 0 0 64 64" xml:space="preserve">
<path fill="#D99025" d="M50.914,48.568c-0.648-0.646-1.697-0.646-2.344,0l0,0c-0.648,0.647-0.648,1.697,0,2.346l10.6,10.6
	c0.646,0.648,1.697,0.648,2.344,0l0,0c0.648-0.646,0.648-1.697,0-2.344L50.914,48.568z"/>
<path fill="#E6A400" d="M61.514,61.514c0.648-0.646,0.648-1.697,0-2.344l-10.6-10.602c-0.57-0.568-1.449-0.636-2.093-0.204
	C57.787,57.703,61.066,61.514,61.514,61.514z"/>
<ellipse transform="matrix(-0.7071 -0.7071 0.7071 -0.7071 46.9977 113.462)" fill="#92C932" cx="46.999" cy="46.997" rx="11.971" ry="13.621"/>
<path fill="#D99025" d="M38.291,35.947c-0.646-0.647-1.695-0.647-2.344,0l0,0c-0.646,0.646-0.646,1.697,0,2.344l3.67,3.67
	c0.646,0.646,1.697,0.646,2.344,0l0,0c0.646-0.648,0.646-1.697,0-2.344L38.291,35.947z"/>
<path fill="#E6A400" d="M42.239,41.575c0.34-0.63,0.252-1.428-0.278-1.958l-3.67-3.67c-0.515-0.516-1.282-0.613-1.901-0.309
	C38.499,37.765,40.445,39.74,42.239,41.575z"/>
<ellipse transform="matrix(-0.7071 -0.7071 0.7071 -0.7071 30.9109 74.6247)" fill="#E6EBEF" cx="30.91" cy="30.911" rx="11.971" ry="13.622"/>
<path fill="#D99025" d="M22.206,19.859c-0.648-0.647-1.697-0.647-2.345,0l0,0c-0.647,0.647-0.647,1.697,0,2.344l3.668,3.669
	c0.648,0.646,1.697,0.646,2.346,0l0,0c0.646-0.646,0.646-1.697,0-2.344L22.206,19.859z"/>
<path fill="#E6A400" d="M22.206,19.859c-0.546-0.544-1.374-0.625-2.01-0.251c1.795,1.741,3.774,3.675,5.975,5.844
	c0.318-0.623,0.225-1.403-0.296-1.923L22.206,19.859z"/>
<ellipse transform="matrix(-0.7071 -0.7071 0.7071 -0.7071 14.8219 35.7865)" fill="#FF8FA8" cx="14.823" cy="14.823" rx="11.972" ry="13.621"/>
<path fill="#D99025" d="M6.118,3.772c-0.647-0.646-1.697-0.646-2.345,0l0,0c-0.647,0.647-0.647,1.698,0,2.344l3.67,3.669
	c0.647,0.647,1.697,0.647,2.344,0l0,0c0.647-0.647,0.647-1.697,0-2.344L6.118,3.772z"/>
<path fill="#E6A400" d="M6.118,3.772c-0.647-0.646-1.697-0.646-2.345,0c0.09,0.632,1.152,1.435,6.047,5.973
	c0.609-0.649,0.601-1.669-0.033-2.304L6.118,3.772z"/>
<path fill="#DB7F9A" d="M3.528,10.275c-2.45,4.856-1.968,10.549,1.663,14.18c4.675,4.675,12.777,4.153,18.097-1.167
	c1.548-1.548,2.677-3.335,3.403-5.201C15.22,29.56,1.577,19.378,3.528,10.275z"/>
<path fill="#CFD8DD" d="M43.613,30.922c-0.026,0.127-3.113,8.032-12.703,8.032c-12.823,0-11.534-12.089-11.535-12.121
	c-2.187,4.749-1.61,10.197,1.903,13.709c4.675,4.675,12.777,4.152,18.097-1.168C41.809,36.941,43.226,33.926,43.613,30.922z"/>
<path fill="#7AB51D" d="M59.701,47.01c-0.066,0.147-3.623,8.033-12.702,8.033c-11.417,0-11.864-11.067-11.873-11.297
	c-1.761,4.542-1.07,9.57,2.241,12.882c4.675,4.676,12.777,4.153,18.096-1.166C57.896,53.028,59.313,50.014,59.701,47.01z"/>
<path fill="#FDE0DA" d="M19.555,4.053c-3.897-0.597-3.206,4.024,1.183,3.946S22.239,4.463,19.555,4.053z"/>
<path fill="#FFFFFF" d="M34.556,20.053c-3.897-0.597-3.206,4.023,1.182,3.946C40.127,23.921,37.239,20.464,34.556,20.053z"/>
<path fill="#A6E639" d="M51.556,37.053c-3.897-0.596-3.205,4.024,1.182,3.946C57.127,40.921,54.239,37.464,51.556,37.053z"/>
</svg>
