<?xml version="1.0" encoding="utf-8"?>
<!-- Generator: Adobe Illustrator 15.0.0, SVG Export Plug-In . SVG Version: 6.00 Build 0)  -->
<!DOCTYPE svg PUBLIC "-//W3C//DTD SVG 1.1//EN" "http://www.w3.org/Graphics/SVG/1.1/DTD/svg11.dtd">
<svg version="1.1" id="Layer_1" xmlns="http://www.w3.org/2000/svg" xmlns:xlink="http://www.w3.org/1999/xlink" x="0px" y="0px"
	 width="64px" height="64px" viewBox="0 0 64 64" enable-background="new 0 0 64 64" xml:space="preserve">
<path fill="#9E6C49" d="M17,2h10v10H17V2z"/>
<path fill="#785647" d="M17,2l3,2h4l3-2H17z"/>
<path fill="#B47D56" d="M19,10l-2,2h10l-2-2H19z"/>
<path fill="#594640" d="M25,10l2,2V2l-2,3V10z"/>
<path fill="#D6A57C" d="M19,9V5l-2-3v10l2-2h6L19,9z"/>
<path fill="#9E6C49" d="M17,12h10v10H17V12z"/>
<path fill="#785647" d="M17,12l3,2h4l3-2H17z"/>
<path fill="#B47D56" d="M19,20l-2,2h10l-2-2H19z"/>
<path fill="#594640" d="M25,20l2,2V12l-2,3V20z"/>
<path fill="#D6A57C" d="M19,19v-4l-2-3v10l2-2h6L19,19z"/>
<path fill="#9E6C49" d="M27,12h10v10H27V12z"/>
<path fill="#785647" d="M27,12l3,2h4l3-2H27z"/>
<path fill="#B47D56" d="M29,20l-2,2h10l-2-2H29z"/>
<path fill="#594640" d="M35,20l2,2V12l-2,3V20z"/>
<path fill="#D6A57C" d="M29,19v-4l-2-3v10l2-2h6L29,19z"/>
<path fill="#9E6C49" d="M27,12l8-1V6.213C34.391,5.667,34,4.884,34,4h-4l-3-2V12z"/>
<path fill="#785647" d="M34,4c0-0.772,0.3-1.468,0.777-2H27l3,2H34z"/>
<path fill="#B47D56" d="M29,10l-2,2h10l-2-2H29z"/>
<path fill="#594640" d="M36,7c0-0.061,0.016-0.118,0.018-0.178C35.643,6.688,35.296,6.481,35,6.213V10l2,2V9.222
	C36.391,8.672,36,7.885,36,7z"/>
<path fill="#D6A57C" d="M35,10l-6-1V5l-2-3v10l2-2H35z"/>
<path fill="#B47D56" d="M39,10l-2,2h2.777C39.279,11.453,39.002,10.74,39,10z"/>
<path fill="#D6A57C" d="M37,9.222V12l2-2C38.229,10,37.531,9.7,37,9.222z"/>
<path fill="#9E6C49" d="M45.098,14.854c-0.508-0.161-0.963-0.456-1.318-0.854H40l-3-2v10l8-2L45.098,14.854z"/>
<path fill="#785647" d="M43.779,14c-0.313-0.35-0.541-0.768-0.664-1.22C42.761,12.924,42.383,12.999,42,13
	c-0.85-0.002-1.657-0.366-2.223-1H37l3,2H43.779z"/>
<path fill="#B47D56" d="M39,20l-2,2h10l-2-2H39z"/>
<path fill="#594640" d="M45.098,14.854L45,15v5l2,2v-7.184c-0.32,0.118-0.658,0.18-1,0.184
	C45.693,14.998,45.389,14.949,45.098,14.854z"/>
<path fill="#D6A57C" d="M45,20l-6-1v-4l-2-3v10l2-2H45z"/>
<path fill="#9E6C49" d="M17,22h10v10H17V22z"/>
<path fill="#785647" d="M17,22l3,2h4l3-2H17z"/>
<path fill="#B47D56" d="M19,30l-2,2h10l-2-2H19z"/>
<path fill="#594640" d="M25,30l2,2V22l-2,3V30z"/>
<path fill="#D6A57C" d="M19,29v-4l-2-3v10l2-2h6L19,29z"/>
<path fill="#9E6C49" d="M27,22h10v10H27V22z"/>
<path fill="#785647" d="M27,22l3,2h4l3-2H27z"/>
<path fill="#B47D56" d="M29,30l-2,2h10l-2-2H29z"/>
<path fill="#594640" d="M35,30l2,2V22l-2,3V30z"/>
<path fill="#D6A57C" d="M29,29v-4l-2-3v10l2-2h6L29,29z"/>
<path fill="#9E6C49" d="M37,22h10v10H37V22z"/>
<path fill="#785647" d="M37,22l3,2h4l3-2H37z"/>
<path fill="#B47D56" d="M39,30l-2,2h10l-2-2H39z"/>
<path fill="#594640" d="M45,30l2,2V22l-2,3V30z"/>
<path fill="#D6A57C" d="M39,29v-4l-2-3v10l2-2h6L39,29z"/>
<path fill="#9E6C49" d="M27,32h10v10H27V32z"/>
<path fill="#785647" d="M27,32l3,2h4l3-2H27z"/>
<path fill="#B47D56" d="M29,40l-2,2h10l-2-2H29z"/>
<path fill="#594640" d="M35,40l2,2V32l-2,3V40z"/>
<path fill="#D6A57C" d="M29,39v-4l-2-3v10l2-2h6L29,39z"/>
<path fill="#9E6C49" d="M37,32h10v10H37V32z"/>
<path fill="#785647" d="M37,32l3,2h4l3-2H37z"/>
<path fill="#B47D56" d="M39,40l-2,2h10l-2-2H39z"/>
<path fill="#594640" d="M45,40l2,2V32l-2,3V40z"/>
<path fill="#D6A57C" d="M39,39v-4l-2-3v10l2-2h6L39,39z"/>
<path fill="#E81C27" d="M32,40l-15-8v29c0,0.55,0.45,1,1,1h28c0.55,0,1-0.45,1-1V35C36.5,35,32,40,32,40z"/>
<path fill="#B00505" d="M17,40c0,0,8.166-1.834,17,7c0,0-3.167-13-17-13V40z"/>
<path fill="#B00505" d="M34,47c0,0,0.439-3.13,0-6c7-4,13-1,13-1v-6c-3,0-9.042,0.042-15,6L34,47z"/>
<path fill="#BEC3CF" d="M47,32c-12.775,3.125-15,8-15,8s5-4,15-4c3.667,0,6-3,6-3s-4-1-6-4V32z"/>
<path fill="#E6EBEF" d="M32,40c0,0.001,4.438-5,12-5c4.875,0,6-2,6-2s-1.875,0.125-3-1C47,32,37,32,32,40z"/>
<path fill="#F46C60" d="M46,61l-2-2H19.79L18,42v19H46z"/>
<path fill="#BEC3CF" d="M34,47c0,0-7-20-22-9c0,0,1-7,5-11C34,27,34,47,34,47z"/>
<path fill="#E6EBEF" d="M34,47c0,0-2-13-10-17c0.25,2.25-1,4-1,4c-0.995-5.883-3.695-7-6-7c-2.167,0-6,5.583-6,12C11,39,23,31,34,47
	z"/>
</svg>
