<?xml version="1.0" encoding="utf-8"?>
<!-- Generator: Adobe Illustrator 15.0.0, SVG Export Plug-In . SVG Version: 6.00 Build 0)  -->
<!DOCTYPE svg PUBLIC "-//W3C//DTD SVG 1.1//EN" "http://www.w3.org/Graphics/SVG/1.1/DTD/svg11.dtd">
<svg version="1.1" id="Layer_1" xmlns="http://www.w3.org/2000/svg" xmlns:xlink="http://www.w3.org/1999/xlink" x="0px" y="0px"
	 width="64px" height="64px" viewBox="0 0 64 64" enable-background="new 0 0 64 64" xml:space="preserve">
<path fill="#F59E01" d="M58,28.542c0-2.983-1.709-5.877-5.045-7.507c-8.416-4.122-33.5-4.133-41.914,0
	C7.711,22.669,6,25.559,6,28.542C6,34.54,6,40.725,6,46.06C6,55.417,13.665,62,31.999,62C50.332,62.001,58,55.416,58,46.06
	C58,40.439,58,34.639,58,28.542z"/>
<path fill="#D47706" d="M51.162,21.317c0,6.569-38.314,6.569-38.314,0C12.848,17.701,51.162,17.701,51.162,21.317z"/>
<path fill="#D47706" d="M55.4,16.304H8.6c0,0,0,3.665,0,6.386c0,8.704,46.801,8.704,46.801,0C55.4,19.969,55.4,16.304,55.4,16.304z"
	/>
<path fill="#D47706" d="M6,29.499C6,30.34,6,41.31,6,44.104c0,11.194,52,11.194,52,0c0-2.794,0-13.764,0-14.604
	C58,40.692,6,40.692,6,29.499z"/>
<ellipse fill="#F59E01" cx="32" cy="16.815" rx="23.4" ry="5.945"/>
<path fill="#AB5C10" d="M31.998,14.014c8.396,0,15.402,1.205,17.045,2.807c0.242-0.232,0.367-0.474,0.367-0.721
	c0-1.947-7.795-3.528-17.412-3.528S14.589,14.152,14.589,16.1c0,0.247,0.127,0.488,0.362,0.721
	C16.598,15.219,23.604,14.014,31.998,14.014z"/>
<path fill="#594640" d="M31.998,19.628c8.396,0,15.402-1.205,17.045-2.808c-1.643-1.602-8.648-2.807-17.045-2.807
	c-8.395,0-15.4,1.205-17.047,2.807C16.598,18.423,23.604,19.628,31.998,19.628z"/>
<path fill="#AB5C10" d="M6,31.598c0,0.843,0,7.609,0,10.405c0,11.193,52,11.193,52,0c0-2.796,0-9.563,0-10.405
	C58,42.793,6,42.793,6,31.598z"/>
<path fill-rule="evenodd" clip-rule="evenodd" fill="#F9C802" d="M16.461,14.904c0.26-3.557-11.426-3.399-9.129,9.288
	c0.523,2.889,2.493-3.365,4.203-3.229c1.708,0.138-3.271,8.553,2.688,11.385s1.123-9.467,5.188-10.324
	c4.063-0.858,6.203-0.895,5.444-2.707C24.097,17.505,16.293,17.223,16.461,14.904z"/>
<path fill-rule="evenodd" clip-rule="evenodd" fill="#F9C802" d="M19.723,10.872c-3.115-0.246-3.893,2.994,0.982,4.635
	c3.028,1.02,7.184,0.581,10.559-0.574c4.521-1.547,7.021,1.557,13.771,0.722c3.021-0.375,7.32-2.294,0.125-4.376
	C34.848,8.295,28.473,11.563,19.723,10.872z"/>
<path fill-rule="evenodd" clip-rule="evenodd" fill="#FEEC9A" d="M9.975,15.062c2.454-1.601-1.035,2.495-1.595,6.776
	C7.971,24.974,6.28,17.469,9.975,15.062z"/>
<path fill-rule="evenodd" clip-rule="evenodd" fill="#FEEC9A" d="M19.392,12.229c-2.53-1.498,2.942-0.023,7.552-1.092
	C30.316,10.353,23.199,14.485,19.392,12.229z"/>
<path fill-rule="evenodd" clip-rule="evenodd" fill="#FEEC9A" d="M46.93,12.783c3.497,2.204-4.474-0.835-11.721-1.135
	C29.902,11.429,41.667,9.464,46.93,12.783z"/>
<path fill-rule="evenodd" clip-rule="evenodd" fill="#FEEC9A" d="M15.984,17.252c-4.904-1.951-3.268,4.468-2.365,2.801
	C14.85,17.78,17.809,17.979,15.984,17.252z"/>
<rect x="43.452" y="7.84" transform="matrix(0.8884 0.4591 -0.4591 0.8884 11.951 -19.4978)" fill-rule="evenodd" clip-rule="evenodd" fill="#B47D56" width="5.25" height="13.983"/>
<rect x="47.099" y="8.949" transform="matrix(0.8884 0.4592 -0.4592 0.8884 12.703 -20.3628)" fill-rule="evenodd" clip-rule="evenodd" fill="#785647" width="2.25" height="13.983"/>
<path fill-rule="evenodd" clip-rule="evenodd" fill="#B47D56" d="M55.055,9.351c-3.061,5.923-11.944,1.331-8.883-4.593
	C49.233-1.164,58.117,3.428,55.055,9.351z"/>
<path fill-rule="evenodd" clip-rule="evenodd" fill="#785647" d="M55.447,5.465c-1.766,3.328-6.4,5.094-9.805,2.608
	c0.243,1.334,1.07,2.594,2.678,3.425C52.869,13.848,56.627,9.156,55.447,5.465z"/>
<path fill-rule="evenodd" clip-rule="evenodd" fill="#F9C802" d="M29.345,19.587c-1.631,1.577-0.712,3.839,1.919,5.323
	c5.084,2.869-2.484,10.343,4.668,13.556c4.791,2.151-3.771-11.651,4.246-13.727c5.565-1.441-3.115,7.275,3.857,9.337
	c5.844,1.728-0.125-12.064,4.021-11.81c3.045,0.188-2.265,12.486,3.672,11.622c5.068-0.737-3.715-8.54,3.672-13.965
	c2.986-2.193-1.428-9.087-4.887-5.485C43.348,21.901,33.247,15.811,29.345,19.587z"/>
<path fill-rule="evenodd" clip-rule="evenodd" fill="#FEEC9A" d="M34.741,18.945c2.608,0.257-1.791,0.747-4.029,3.137
	C29.071,23.832,27.724,18.255,34.741,18.945z"/>
<path fill-rule="evenodd" clip-rule="evenodd" fill="#FEEC9A" d="M53.474,14.727c-3.363-1.34-2.242,3.063-1.622,1.92
	C52.694,15.087,54.724,15.224,53.474,14.727z"/>
<path fill-rule="evenodd" clip-rule="evenodd" fill="#FEEC9A" d="M34.402,36.175c1.875,2.354-0.244-2.896,0.509-7.528
	C35.463,25.253,31.579,32.634,34.402,36.175z"/>
<path fill-rule="evenodd" clip-rule="evenodd" fill="#FEEC9A" d="M12.969,30.824c1.875,2.354-0.244-2.896,0.51-7.529
	C14.029,19.901,10.146,27.282,12.969,30.824z"/>
<path fill-rule="evenodd" clip-rule="evenodd" fill="#FEEC9A" d="M50.382,32.972c1.393,1.708-0.401-2.213-0.323-5.816
	C50.118,24.518,48.289,30.403,50.382,32.972z"/>
<path fill-rule="evenodd" clip-rule="evenodd" fill="#FEEC9A" d="M42.135,32.283c0.988,1.927,0.096-2.242,0.969-5.757
	C43.744,23.952,40.652,29.386,42.135,32.283z"/>
</svg>
