<?xml version="1.0" encoding="utf-8"?>
<!-- Generator: Adobe Illustrator 16.2.0, SVG Export Plug-In . SVG Version: 6.00 Build 0)  -->
<!DOCTYPE svg PUBLIC "-//W3C//DTD SVG 1.1//EN" "http://www.w3.org/Graphics/SVG/1.1/DTD/svg11.dtd">
<svg version="1.1" id="Layer_1" xmlns="http://www.w3.org/2000/svg" xmlns:xlink="http://www.w3.org/1999/xlink" x="0px" y="0px"
	 width="64px" height="64px" viewBox="0 0 64 64" enable-background="new 0 0 64 64" xml:space="preserve">
<path fill="#D99025" d="M21,52c0,0,0.488,6.741,1.4,8c1.188,1.637,5.286,2,9.6,2c4.406,0,8.635-0.23,9.602-2
	C42.322,58.667,43,52,43,52H21z"/>
<path fill="#FBB855" d="M17,38c0,0,1.859,14.482,3,17c1.485,3.272,6.607,4,12,4c5.508,0,10.796-0.46,12-4c0.905-2.666,3-17,3-17H17z
	"/>
<path fill="#FBB855" d="M17,38c0,0,2.859,14.482,4,17c1.485,3.272,5.607,4,11,4c5.508,0,10.796-0.46,12-4c0.905-2.666,3-17,3-17H17z
	"/>
<path fill="#D99025" d="M17.694,43.027C21.04,44.944,26.145,46,32,46c5.869,0,10.961-0.773,14.199-2.752C46.662,40.311,47,38,47,38
	H17C17,38,17.282,40.197,17.694,43.027z"/>
<path fill="#FBB855" d="M13,28c0,0,0.718,10.024,3.167,12c3.185,2.567,9.002,4,15.833,4c6.976,0,12.866-1.085,15.833-4
	C50.066,37.805,51,28,51,28H13z"/>
<path fill="#D99025" d="M20.08,40.294C20.08,39.021,21,38,23,38c4.273,0,7,2.001,12,2.001s11-5.425,14.966-5.425
	c0,0-4.159-3.161-9.824-6.576H13c0,0,0.718,10.024,3.167,12c3.185,2.567,9.002,4,15.833,4C25.833,44,20.08,42.091,20.08,40.294z"/>
<path fill="#FFE8BB" d="M16,20c-3.724,3.724-1,6-1,6c-1.25,0-4,2-4,5c0,5.584,6.917,4,12,4c6.125,0,7.583,2,12,2
	c2.48,0,6.858-3,11-3c4.775,0,7-1.417,7-4c0-3.333-4-5-4-5c5.333-5.333-2-8-2-8c2.583-2.583-3-7-15-7C24.875,10,11.875,12.25,16,20z
	"/>
<path fill="#F5CFA0" d="M50.942,21.266C44.036,27.061,32,22,32,22c7,0,13-4,13-4c-12.426,1.744-13-4.291-13-4.291
	s-2.325-1.59-5.72-3.267c-6.585,0.949-13.433,3.646-10.28,9.569c-3.724,3.724-1,5.995-1,5.995c-1.25,0-3,1.997-3,4.997
	c0,5.584,5.917,3.999,11,3.999c2,0,12,2.999,12,2.999c4.219,0,8.25-3,12-3c4.75,0,6-2.156,6-5c-11,6-23-1.167-23-1.167
	c12.5,0,16.984-2.354,19-3.833C49.711,24.478,50.942,23.078,50.942,21.266z"/>
<path fill="#EBBB96" d="M16,20c0,0-0.791,8,25,8c0,0-6.666,2.166-14.667,2.166C19.167,30.166,10.083,25.917,16,20z"/>
<path fill="#EBBB96" d="M32,22c0,0-11-1.044-11-6c0-2.833,4.333-4.5,4.333-4.5s-0.572-0.266-1.5-0.641
	C18.149,12.093,13.24,14.814,16,20C22,23.5,32,22,32,22z"/>
<path fill="#FFE8BB" d="M28,2c-2.25,0-6,2.576-6,6s3.25,8,12,8c5.5,0,10-3.875,10-7s-2.25-5-5-5s-3.625,2-7,2c-2.125,0-4-0.375-4-2
	C28,3.155,29.828,2,28,2z"/>
<path fill="#F5CFA0" d="M33,16c7,0,11-3.875,11-7c-8,8-22,2.5-22-1C22,11.424,24,16,33,16z"/>
<path fill="#D99025" d="M24,52c0-6.571,8-6,8-6c-6.167,0-11.921-3.909-11.921-5.706C20.08,39.021,21,38,23,38h-6
	c0,0,1.859,14.482,3,17c1.485,3.272,4.5,4,12,4C25.404,59,24,54.834,24,52z"/>
<path fill="#EBBB96" d="M21,36.001c7,0,8,1.999,14,1.999c0,0-6-5-16-5c-7.928,0-4.069-6.876-4-7c-1.281,0.077-4,2.062-4,5.002
	C11,36,15.917,36.001,21,36.001z"/>
<polygon fill="#D99025" points="30,49 28,52 30,55 32,52 "/>
<polygon fill="#D99025" points="36,49 34,52 36,55 38,52 "/>
<polygon fill="#D99025" points="42,49 40,52 42,55 44,52 "/>
<polygon fill="#D99025" points="24,49 22,52 24,55 26,52 "/>
<polygon fill="#D99025" points="27,44 25,47 27,50 29,47 "/>
<polygon fill="#D99025" points="27,54 25,57 27,60 29,57 "/>
<polygon fill="#D99025" points="33,44 31,47 33,50 35,47 "/>
<polygon fill="#D99025" points="33,54 31,57 33,60 35,57 "/>
<polygon fill="#D99025" points="39,44 37,47 39,50 41,47 "/>
<path fill="#D99025" d="M44,43l-2,3l2,3l1.679-2.518c0.042-0.259,0.085-0.517,0.127-0.774L44,43z"/>
<polygon fill="#D99025" points="39,54 37,57 39,60 41,57 "/>
</svg>
