<?xml version="1.0" encoding="utf-8"?>
<!-- Generator: Adobe Illustrator 16.2.0, SVG Export Plug-In . SVG Version: 6.00 Build 0)  -->
<!DOCTYPE svg PUBLIC "-//W3C//DTD SVG 1.1//EN" "http://www.w3.org/Graphics/SVG/1.1/DTD/svg11.dtd">
<svg version="1.1" id="Layer_1" xmlns="http://www.w3.org/2000/svg" xmlns:xlink="http://www.w3.org/1999/xlink" x="0px" y="0px"
	 width="64px" height="64px" viewBox="0 0 64 64" enable-background="new 0 0 64 64" xml:space="preserve">
<path fill="#785647" d="M61.571,58.112l-9.011-9.011l-3.459,3.459l9.011,9.011c0.713,0.713,2.063,0.518,3.021-0.438
	C62.088,60.181,62.284,58.825,61.571,58.112z"/>
<path fill="#594640" d="M52.55,49.112l-3.448,3.448l9.011,9.011c0.713,0.713,2.063,0.518,3.021-0.438
	c-0.353-0.353-3.096-3.092-7.174-7.173c-0.875-0.876,0.21-3.251,0.21-3.251C53.651,50.191,53.107,49.655,52.55,49.112z"/>
<path fill="#F59E01" d="M58.518,46.102c-4.061,4.062-8.48,9.39-11.644,12.552c-7.946,7.945-21.547-6.104-13.825-13.826
	c3.215-3.213,8.236-8.267,12.297-12.327C52.916,24.929,65.46,39.157,58.518,46.102z"/>
<path fill="#F9C802" d="M54.001,34c0.415,8.415-4.085,17.833-3,17c1.083-0.833,7.998-6.854,7.998-10S55.219,34,54.001,34z"/>
<path fill="#EA8800" d="M32.44,45.509c-6.752,6.752,6.716,20.861,14.434,13.145c3.163-3.162,7.583-8.49,11.644-12.552
	c0,0-7.573,7.371-10.644,9.553c-2.407,1.71-1.568-5.998-8.827-8.995c9.477-6.753,7.794-15.344,7.794-15.344
	S36.014,41.935,32.44,45.509z"/>
<path fill="#EA8800" d="M42.964,36.616c5.19,0.944,10.375,6.796,11.231,11.81C55.699,42.807,49.23,35.018,42.964,36.616z"/>
<path fill="#EA8800" d="M38.004,41.844c5.189,0.946,10.375,6.797,11.23,11.811C50.736,48.034,44.271,40.244,38.004,41.844z"/>
<ellipse transform="matrix(-0.7071 -0.7071 0.7071 -0.7071 32.1681 77.6645)" fill="#B47D56" cx="32.169" cy="32.17" rx="13.703" ry="15.66"/>
<path fill="#C4926E" d="M42.964,24.14c-1.901,0-4.96,13.499-1.529,13.499C45.648,37.639,46.884,24.14,42.964,24.14z"/>
<rect x="29.524" y="29.24" transform="matrix(-0.7073 0.7069 -0.7069 -0.7073 73.5815 30.0915)" fill="#9E6C49" width="2.076" height="2.076"/>
<rect x="40.396" y="30.71" transform="matrix(-0.7072 0.707 -0.707 -0.7072 93.1836 24.9072)" fill="#9E6C49" width="2.077" height="2.075"/>
<rect x="34.138" y="35.296" transform="matrix(-0.7069 0.7073 -0.7073 -0.7069 86.578 37.4869)" fill="#9E6C49" width="2.77" height="2.768"/>
<rect x="29.381" y="23.024" transform="matrix(-0.7071 0.7071 -0.7071 -0.7071 68.1082 19.2213)" fill="#9E6C49" width="1.384" height="1.385"/>
<rect x="36.074" y="30.077" transform="matrix(-0.7075 0.7068 -0.7068 -0.7075 84.5243 26.5536)" fill="#9E6C49" width="1.385" height="1.385"/>
<rect x="28.123" y="35.012" transform="matrix(-0.7073 0.7069 -0.7069 -0.7073 74.4335 40.5877)" fill="#9E6C49" width="1.381" height="1.385"/>
<rect x="41.232" y="24.981" transform="matrix(-0.7075 0.7068 -0.7068 -0.7075 89.7285 14.2052)" fill="#9E6C49" width="1.385" height="1.384"/>
<rect x="34.138" y="23.788" transform="matrix(-0.707 0.7072 -0.7072 -0.707 78.4381 17.8479)" fill="#9E6C49" width="2.768" height="2.768"/>
<path fill="#9E6C49" d="M22.48,22.48c-6.115,6.116-6.735,15.412-1.384,20.763c5.351,5.352,14.647,4.731,20.762-1.384
	c-13.882,7.437-19.467-5.525-19.467-9.133C27.835,28.129,42.964,7.375,22.48,22.48z"/>
<path fill="#6E8189" d="M31.979,9.834C29.116,6.973,9.763,3.347,6.554,6.555c-3.21,3.21,1.417,21.563,4.278,24.425
	c5.352,5.349,9.668,0.373,15.095-5.053C31.355,20.502,37.329,15.184,31.979,9.834z"/>
<rect x="15.15" y="14.741" transform="matrix(-0.7073 0.7069 -0.7069 -0.7073 38.7915 15.4982)" fill="#99A8AE" width="2.076" height="2.076"/>
<rect x="26.021" y="16.21" transform="matrix(-0.7071 0.7071 -0.7071 -0.7071 58.3899 10.3092)" fill="#99A8AE" width="2.077" height="2.075"/>
<rect x="19.764" y="20.798" transform="matrix(-0.707 0.7072 -0.7072 -0.707 51.787 22.9106)" fill="#99A8AE" width="2.768" height="2.768"/>
<path fill="#4E5E67" d="M6.554,6.555c-3.21,3.21,0.417,22.563,3.278,25.425c5.352,5.349,10.668-0.627,16.095-6.053
	c-14.25,14.25-17.84-9.258-15.426-12.593C11.624,11.783,15.108,6.555,6.554,6.555"/>
<rect x="15.007" y="8.521" transform="matrix(-0.7066 0.7076 -0.7076 -0.7066 33.3116 4.615)" fill="#99A8AE" width="1.384" height="1.385"/>
<rect x="21.699" y="15.577" transform="matrix(-0.7075 0.7068 -0.7068 -0.7075 49.7305 11.9535)" fill="#99A8AE" width="1.385" height="1.383"/>
<rect x="13.747" y="20.512" transform="matrix(-0.7069 0.7073 -0.7073 -0.7069 39.6433 25.9807)" fill="#99A8AE" width="1.383" height="1.384"/>
<rect x="26.857" y="10.482" transform="matrix(-0.7073 0.7069 -0.7069 -0.7073 54.9329 -0.4002)" fill="#99A8AE" width="1.384" height="1.382"/>
<rect x="19.763" y="9.288" transform="matrix(-0.707 0.7072 -0.7072 -0.707 43.6461 3.2627)" fill="#99A8AE" width="2.768" height="2.768"/>
<path fill="#785647" d="M10.853,7.394L5.916,2.458C5.177,1.718,3.804,1.895,2.848,2.85c-0.954,0.956-1.13,2.328-0.39,3.068
	l4.934,4.936c0.738,0.74,2.112,0.565,3.068-0.391C11.415,9.507,11.591,8.132,10.853,7.394z"/>
<path fill="#BEC3CF" d="M32.169,12.151c-0.869-0.869-0.896,4.118-2.377,7.136C29.072,20.754,35.187,15.168,32.169,12.151z"/>
<path fill="#EA8800" d="M47.994,31.861c5.031,0.918,10.062,6.592,10.892,11.454C60.342,37.864,54.07,30.312,47.994,31.861z"/>
<path fill="#594640" d="M2.848,2.85c-0.954,0.956-1.13,2.328-0.39,3.068l4.934,4.936c0.738,0.74,2.112,0.565,3.068-0.391
	C5.67,5.672,5.916,5.964,5.916,2.458C5.177,1.718,3.804,1.895,2.848,2.85z"/>
</svg>
