<?xml version="1.0" encoding="utf-8"?>
<!-- Generator: Adobe Illustrator 16.2.0, SVG Export Plug-In . SVG Version: 6.00 Build 0)  -->
<!DOCTYPE svg PUBLIC "-//W3C//DTD SVG 1.1//EN" "http://www.w3.org/Graphics/SVG/1.1/DTD/svg11.dtd">
<svg version="1.1" id="Layer_1" xmlns="http://www.w3.org/2000/svg" xmlns:xlink="http://www.w3.org/1999/xlink" x="0px" y="0px"
	 width="64px" height="64px" viewBox="0 0 64 64" enable-background="new 0 0 64 64" xml:space="preserve">
<path fill="#FBB855" d="M2,33.32C2,46.398,15.431,57,32,57c16.566,0,30-10.602,30-23.68C62,20.24,48.566,9.639,32,9.639
	C15.431,9.639,2,20.24,2,33.32z M20.925,35.508c0-3.8,4.958-6.881,11.075-6.881c6.113,0,11.073,3.081,11.073,6.881
	c0,3.799-4.96,6.881-11.073,6.881C25.883,42.389,20.925,39.307,20.925,35.508z"/>
<path opacity="0.5" fill="#D99025" d="M32,57c16.566,0,30-10.602,30-23.68c0,0-5.954,19.68-30,19.68C6.354,53,2,33.32,2,33.32
	C2,46.398,15.431,57,32,57z"/>
<path opacity="0.5" fill="#D99025" d="M32.186,17.314c-7.493,0-13.568,4.196-13.568,9.372c0,2.315,1.222,4.431,3.237,6.066
	c1.711-2.427,5.606-4.125,10.145-4.125c4.652,0,8.63,1.787,10.269,4.314c2.16-1.66,3.485-3.848,3.485-6.255
	C45.754,21.51,39.68,17.314,32.186,17.314z"/>
<path fill="#785647" d="M2,26.932c0,1.914,0.234,3.735,0.693,5.449c0.604,2.258,0.979,6.232,2.346,8.09
	c0.68,0.922,2.162-0.341,3.361-0.341c2.233,0,2.616,4.856,5.272,4.856c3.984,0,2.102,3.339,7.616,3.339
	c2.947,0,4.227-2.732,5.745-2.732c3.817,0,3.628,5.093,7.255,5.093c3.802,0,3.604-6.021,7.063-6.021
	c3.375,0,4.078,3.104,6.731,3.104c2.812,0,2.106-9.201,5.226-9.201c3.594,0,5.602-1.424,6.354-2.748
	C61.168,33.172,62,30.186,62,26.932C62,16.35,48.566,7,32,7C15.434,7,2,16.35,2,26.932z M20.925,27.246
	c0-1.234,1.326-2.109,2.241-3.11c0.671-0.733,1.186-2.646,2.227-3.182c1.915-0.981,3.614,2.473,6.29,2.473
	c1.381,0,4.252-2.443,5.474-2.155c2.046,0.482,1.155,1.779,2.415,2.864c1.313,1.131,3.502,1.609,3.502,3.11
	c0,3.801-2.438,6.881-11.073,6.881C23.362,34.127,20.925,31.046,20.925,27.246z"/>
<path fill="#AB8A7B" d="M39.521,16.892c-1.252-0.935-0.367-2.052-2.399-2.467c-1.213-0.248-4.064,1.856-5.437,1.856
	c-2.658,0-4.345-2.975-6.248-2.13c-1.034,0.461-1.545,2.109-2.212,2.741C22.317,17.754,21,18.508,21,19.57
	c0,0.818,0.151,1.598,0.513,2.307c0.466-0.536,1.163-1.019,1.713-1.541c0.667-0.632,1.178-2.28,2.212-2.741
	c1.902-0.845,3.589,2.13,6.248,2.13c1.373,0,4.224-2.104,5.437-1.856c2.032,0.415,1.147,1.532,2.399,2.467
	c0.885,0.661,2.157,1.068,2.893,1.663C42.823,21.258,43,20.437,43,19.57C43,18.278,40.825,17.866,39.521,16.892z"/>
<path fill="#AB8A7B" d="M56.78,22.236c-1.636,7.905-10.178,15.933-24.89,15.933c-18.088,0-23.755-8.912-24.727-14.259
	C7.058,24.61,7,25.329,7,26.067C7,30.937,11.741,42,31.89,42c14.712,0,23.254-8.027,24.89-15.933
	c0.288-1.396,0.284-2.756,0.038-4.067C56.804,22.079,56.796,22.157,56.78,22.236z"/>
<path fill="#0FB4D4" d="M40.512,38.859l-5.759,3.024c-0.93,0.488-1.754-1.061-0.823-1.549l5.758-3.022
	C40.613,36.822,41.438,38.371,40.512,38.859z"/>
<path fill="#0FB4D4" d="M51.339,19.77l-6.147-2.14c-0.992-0.345-0.422-2.003,0.57-1.657l6.149,2.14
	C52.902,18.458,52.331,20.115,51.339,19.77z"/>
<path fill="#E635DE" d="M17.485,33.111l-6.171,2.076c-0.996,0.336-1.56-1.324-0.564-1.658l6.171-2.077
	C17.917,31.117,18.481,32.777,17.485,33.111z"/>
<path fill="#E635DE" d="M28.876,15.628l-6.048-2.41c-0.976-0.389-0.333-2.018,0.644-1.63L29.52,14
	C30.495,14.388,29.853,16.017,28.876,15.628z"/>
<path fill="#FEEC9A" d="M12.632,26.896l-5.848-2.863c-0.942-0.463-0.177-2.039,0.766-1.576l5.848,2.863
	C14.341,25.783,13.575,27.359,12.632,26.896z"/>
<path fill="#FEEC9A" d="M57.044,24.751l-6.172,2.075c-0.996,0.334-1.56-1.324-0.563-1.659l6.172-2.075
	C57.477,22.758,58.04,24.417,57.044,24.751z"/>
<path fill="#FFE463" d="M25.425,40.402l-6.508,0.281c-1.05,0.047-1.127-1.703-0.078-1.75l6.508-0.281
	C26.396,38.605,26.474,40.355,25.425,40.402z"/>
<path fill="#FFE463" d="M42.779,11.929l-6.26,1.8c-1.01,0.293-1.496-1.392-0.486-1.683l6.26-1.802
	C43.305,9.954,43.788,11.636,42.779,11.929z"/>
<path fill="#93E67F" d="M46.587,32.824l6.49,0.297c1.047,0.047,0.955,1.801-0.093,1.752l-6.489-0.297
	C45.448,34.529,45.54,32.775,46.587,32.824z"/>
<path fill="#93E67F" d="M18.618,17.314l-6.297,1.652c-1.016,0.266-1.455-1.43-0.438-1.697l6.297-1.652
	C19.195,15.35,19.634,17.046,18.618,17.314z"/>
</svg>
