<?xml version="1.0" encoding="utf-8"?>
<!-- Generator: Adobe Illustrator 15.0.0, SVG Export Plug-In . SVG Version: 6.00 Build 0)  -->
<!DOCTYPE svg PUBLIC "-//W3C//DTD SVG 1.1//EN" "http://www.w3.org/Graphics/SVG/1.1/DTD/svg11.dtd">
<svg version="1.1" id="Layer_1" xmlns="http://www.w3.org/2000/svg" xmlns:xlink="http://www.w3.org/1999/xlink" x="0px" y="0px"
	 width="64px" height="64px" viewBox="0 0 64 64" enable-background="new 0 0 64 64" xml:space="preserve">
<path fill="#FAC37D" d="M62,32c0,13.902-12.432,30-29,30C13.766,62,2,49.57,2,33C2,11.1,17.434,2,34,2C50.568,2,62,12.764,62,32z"/>
<path opacity="0.3" fill="#FFE8BB" d="M41.705,10.475c-22.658,1.307-42.68,19.828-31.336,3.699
	C24.713-6.223,56.602,9.613,41.705,10.475z"/>
<path fill="#DBA26C" d="M32.873,56.633c-4.279,2.535-17.975-1.371-19.625-7.711c-1.317-5.061-11.987-7.303-7.875-18.564
	c0.855-2.34-1.75-5.936,0.141-13.191C3.289,21.441,2,26.686,2,33c0,16.57,11.766,29,31,29c13.646,0,24.479-10.922,27.879-22.541
	c-3.631,8.963-8.02,6.332-11.506,10.713C44.998,55.672,36.793,54.311,32.873,56.633z"/>
<path fill="#DBA26C" d="M31.781,23.74c-9.155,0.79-9.081,17.021,2.337,11.499C42.825,31.027,36.084,23.368,31.781,23.74z"/>
<path fill="#785647" d="M31.512,23.501c-7.985,0.689-7.921,14.846,2.038,10.028C41.145,29.855,35.265,23.176,31.512,23.501z"/>
<path fill="#B47D56" d="M35.014,26.303c-4.473-6.065-10.257,3.832-7.643,4.241C31.309,31.163,36.143,27.836,35.014,26.303z"/>
<path fill="#DBA26C" d="M49.5,29.649c-7.064,3.144-2.549,16.033,5.016,8.505C60.286,32.412,52.821,28.172,49.5,29.649z"/>
<path fill="#785647" d="M49.221,29.533c-6.162,2.742-2.224,13.984,4.374,7.417C58.627,31.943,52.116,28.245,49.221,29.533z"/>
<path fill="#B47D56" d="M52.775,30.802c-5.224-3.598-7.105,5.864-4.914,5.472C51.163,35.684,54.094,31.71,52.775,30.802z"/>
<path fill="#DBA26C" d="M17.396,38.005c-7.345-4.079-15.585,8.266-4.104,9.913C22.048,49.175,20.851,39.923,17.396,38.005z"/>
<path fill="#785647" d="M17.314,37.686c-6.406-3.557-13.594,7.21-3.58,8.646C21.371,47.428,20.327,39.358,17.314,37.686z"/>
<path fill="#B47D56" d="M18.537,41.602c-0.29-6.887-9.735-2.336-7.961-0.69C13.245,43.393,18.61,43.341,18.537,41.602z"/>
<path fill="#DBA26C" d="M17.104,13.203c-6.666-1.912-10.991,9.548-1.454,8.734C22.923,21.316,20.236,14.102,17.104,13.203z"/>
<path fill="#785647" d="M16.979,12.961c-5.814-1.666-9.587,8.328-1.269,7.619C22.054,20.039,19.711,13.745,16.979,12.961z"/>
<path fill="#B47D56" d="M18.691,15.881c-1.518-5.483-8.264-0.063-6.531,0.928C14.769,18.309,19.072,17.266,18.691,15.881z"/>
<path fill="#DBA26C" d="M36.649,5.594c-7.054,1.147-6.049,13.733,2.485,8.783C45.643,10.599,39.966,5.053,36.649,5.594z"/>
<path fill="#785647" d="M36.427,5.423c-6.153,1.003-5.276,11.979,2.167,7.662C44.271,9.791,39.319,4.951,36.427,5.423z"/>
<path fill="#B47D56" d="M39.308,7.394c-3.825-4.446-7.732,3.571-5.68,3.734C36.718,11.379,40.272,8.515,39.308,7.394z"/>
<path fill="#DBA26C" d="M34.271,46.369c-7.914,1.287-6.786,15.408,2.789,9.854C44.362,51.984,37.993,45.762,34.271,46.369z"/>
<path fill="#785647" d="M34.022,46.178c-6.903,1.125-5.92,13.439,2.432,8.596C42.822,51.078,37.268,45.648,34.022,46.178z"/>
<path fill="#B47D56" d="M37.254,48.389c-4.291-4.988-8.675,4.006-6.373,4.189C34.348,52.859,38.337,49.646,37.254,48.389z"/>
<path fill="#DBA26C" d="M49.89,14.733c-4.739,0.771-4.063,9.227,1.67,5.9C55.933,18.097,52.118,14.37,49.89,14.733z"/>
<path fill="#785647" d="M49.741,14.618c-4.135,0.674-3.545,8.049,1.455,5.148C55.011,17.554,51.684,14.302,49.741,14.618z"/>
<path fill="#B47D56" d="M51.676,15.942c-2.569-2.986-5.194,2.4-3.816,2.51C49.937,18.62,52.324,16.696,51.676,15.942z"/>
<path opacity="0.3" fill="#C4926E" d="M24.967,10.164c-0.697-2.876-4.008,0.561-2.483,1.858
	C23.852,13.183,25.5,12.357,24.967,10.164z"/>
<path opacity="0.3" fill="#C4926E" d="M41.798,19.982c-0.697-2.876-4.008,0.561-2.483,1.858
	C40.683,23.001,42.331,22.176,41.798,19.982z"/>
<path opacity="0.3" fill="#C4926E" d="M58.786,25.457c-0.697-2.876-4.008,0.561-2.483,1.858
	C57.671,28.476,59.319,27.65,58.786,25.457z"/>
<path opacity="0.3" fill="#C4926E" d="M41.798,37.499c-0.697-2.876-4.008,0.561-2.483,1.858
	C40.683,40.518,42.331,39.692,41.798,37.499z"/>
<path opacity="0.3" fill="#C4926E" d="M46.423,46.25c-0.697-2.876-4.008,0.561-2.483,1.858
	C45.308,49.269,46.956,48.443,46.423,46.25z"/>
<path opacity="0.3" fill="#C4926E" d="M29.22,41.145c-0.697-2.876-4.008,0.561-2.483,1.858
	C28.104,44.163,29.753,43.338,29.22,41.145z"/>
<path opacity="0.3" fill="#C4926E" d="M24.294,49.105c-0.697-2.876-4.008,0.561-2.483,1.858
	C23.179,52.124,24.827,51.299,24.294,49.105z"/>
<path opacity="0.3" fill="#C4926E" d="M13.267,29.351c-0.697-2.876-4.008,0.561-2.483,1.858
	C12.151,32.369,13.8,31.544,13.267,29.351z"/>
<path opacity="0.3" fill="#C4926E" d="M23.476,24.171c-0.697-2.876-4.008,0.561-2.483,1.858
	C22.36,27.189,24.009,26.364,23.476,24.171z"/>
</svg>
