<?xml version="1.0" encoding="utf-8"?>
<!-- Generator: Adobe Illustrator 16.2.0, SVG Export Plug-In . SVG Version: 6.00 Build 0)  -->
<!DOCTYPE svg PUBLIC "-//W3C//DTD SVG 1.1//EN" "http://www.w3.org/Graphics/SVG/1.1/DTD/svg11.dtd">
<svg version="1.1" id="Layer_1" xmlns="http://www.w3.org/2000/svg" xmlns:xlink="http://www.w3.org/1999/xlink" x="0px" y="0px"
	 width="64px" height="64px" viewBox="0 0 64 64" enable-background="new 0 0 64 64" xml:space="preserve">
<path fill="#A0D8E9" d="M36,52.382V46h-8v6c-4.095,0.856-7,3.305-7,5c0,2.5,4.925,5,11,5s11-2.291,11-5
	C43,55.281,40.27,53.217,36,52.382z"/>
<path fill="#CAE8F0" d="M36,52v-2c0,0-3.293-0.707-4,0c-3.171,3.172,0,7,0,7c3,0,4-1,4-1s0,2-4,2c-2.98,0-3.311,3,0,3
	c10,0,11-4,11-4C43,54.501,38.318,52.578,36,52z"/>
<path fill="#0FB4D4" d="M36,50v-3h-8v3C28,50,32,52,36,50z"/>
<path fill="#CAE8F0" d="M32,24c-14.359,0-26,2.687-26,6c0,3.314,1.23,18,26,18c24.77,0,26-14.686,26-18C58,26.687,46.359,24,32,24z"
	/>
<path fill="#A0D8E9" d="M31.994,48.026c5.661,0,10.083-0.786,13.552-2.009C32,47,27.549,45.974,21.978,44.312
	c-5.91-1.764-6.807-4.861-3.311-4.861c5.296,0,4.317-3.5,11.333-1.448c7.645,2.235,10-2.001,10-2.001s5.781,2.886,9.5-0.833
	c3.516-3.515,7.616,0,7.616,0C61.055,24.688,50.043,26,50.043,26S6,21.229,6,30C6,33.686,7.301,48.026,31.994,48.026z"/>
<path fill="#FFFFFF" d="M52,38c0,0-5,4.306-20,4.306C32,42.306,44.957,48.2,52,38z"/>
<path fill="#FFE8BB" d="M25.367,24.792c3.052-3.592-0.331-3.99-0.331-8.926C25.036,8.667,32.61,2,41.954,2C51.297,2,59,8.097,59,16
	c0,2.134-1.257,4.725-1.257,6.267C57.743,24.578,60,25.933,60,29c0,1.414-1.129,2.867-3.386,2.867c-2.078,0-3.257-1.225-4.614-0.867
	c-1.585,0.414-2.012,3-6.663,3c-3.946,0-5.215-2.133-7.897-2.133c-3.523,0-5.779,1.066-7.894,1.066
	C26.163,32.934,21.716,29.092,25.367,24.792z"/>
<path fill="#FFFFFF" d="M26.375,28.534c-0.435-0.795,7.048,0.933,5.85,1.866S27.714,31.002,26.375,28.534z"/>
<path fill="#FFFFFF" d="M41.319,30.467c0.925,1.006,4.758,3.166,7.471,0.6C51.505,28.5,40.216,29.269,41.319,30.467z"/>
<path fill="#F5CFA0" d="M24.41,24.738c-0.014,0.017,2.971,0.039,2.958,0.054c4.086,4.086,6.166,0.403,16.716,2.244
	c7.417,1.294,12.66-2.37,12.66-4.77c0,0-1.671,2.357-7.1,2.357c-8.01,0-17.289-10.291-12.019-22.118
	C37.625,2.506,21,5.542,24.41,24.738z"/>
<path fill="#A0D8E9" d="M6,31"/>
<path fill="#9E6C49" d="M38.634,27.217C35.582,23.4,39,22.244,39,17c0-7.648-7.61-14-16.953-14c-9.344,0-16.92,6.336-16.92,14.732
	c0,2.268,1.129,5.162,1.129,6.801C6.256,26.989,4,28.074,4,31.332c0,1.505,1.126,3.402,3.383,3.402c2.08,0,3.153-1.514,4.512-1.133
	C13.48,34.041,14.01,37,18.664,37c3.947,0,5.216-2.266,7.896-2.266c3.525,0,5.779,1.133,7.896,1.133
	C37.84,35.867,42.282,31.785,38.634,27.217z"/>
<path fill="#785647" d="M38.634,27.217c-1.317-1.649-1.434-2.664-1.141-3.708c-0.005,0.005-26.323,9.476-30.266-12.993
	c0,0-2.1,2.732-2.1,7.217c0,2.268,1.129,5.162,1.129,6.801c2.067,6.989,9.273,7.319,14.661,6.13
	C31.405,28.35,33.607,33.616,38.634,27.217z"/>
<path fill="#C4926E" d="M22.681,33.246c-0.925,1.068-4.757,3.363-7.472,0.637S23.782,31.975,22.681,33.246z"/>
<path fill="#C4926E" d="M37.627,31.192c0.431-0.843-7.049,0.991-5.852,1.983C32.974,34.168,36.29,33.814,37.627,31.192z"/>
<path fill="#FFFFFF" d="M47.259,5.457c-1.633,1.566,4.9,7.408,7.468,4.946C56.474,8.725,49.376,3.426,47.259,5.457z"/>
<path fill="#FFFFFF" d="M53.472,29.069c-0.608-0.725,5.271-3.129,4.991-1.599C58.182,29,55.276,31.22,53.472,29.069z"/>
<path fill="#785647" d="M53.059,14.801c0.277,0.425,1.728,0.105,1.917-0.372c0.157-0.396-0.499-1.441-0.904-1.429
	C53.577,13.014,52.776,14.37,53.059,14.801z"/>
<path fill="#785647" d="M50.025,7.699C49.883,8.043,50.379,8.992,50.758,9c0.559,0.013,1.514-1.432,1.17-1.863
	C51.623,6.754,50.213,7.249,50.025,7.699z"/>
<path fill="#785647" d="M40.675,11.995c0.543,0.094,1.497-1.095,1.299-1.538c-0.165-0.369-1.479-0.617-1.804-0.336
	C39.774,10.462,40.124,11.899,40.675,11.995z"/>
<path fill="#785647" d="M43.675,5.995c0.543,0.094,1.497-1.095,1.299-1.538c-0.165-0.369-1.479-0.617-1.804-0.336
	C42.774,4.462,43.124,5.899,43.675,5.995z"/>
<path fill="#785647" d="M47.191,13.994c0.499-0.11,1.057-1.541,0.69-1.89c-0.362-0.344-1.773,0.241-1.876,0.726
	C45.921,13.232,46.783,14.083,47.191,13.994z"/>
<path fill="#785647" d="M36.144,6.928c0.395,0.301,1.749-0.408,1.851-0.856c0.078-0.342-0.633-1.128-1.03-1.069
	C36.386,5.09,35.697,6.588,36.144,6.928z"/>
<path fill="#FFE8BB" d="M7,9c-2.377,2.377,7.063,10.639,10,9c2.441-1.362-4.391-9.551-2-11c2.438-1.477,6.505,8.378,9,7
	c2.199-1.215-3.321-9.039-1-10c3.283-1.36,5.711,12.345,9,11c2.556-1.045,0.549-11-2-11c-1.275,0,2.221,7.63,1,8
	c-2.707,0.82-4-10-9-10c-4,0,2.053,7.078,0,8c-2.746,1.233-6.304-7.34-9-6c-2.246,1.116,4.294,12,1.786,12
	C12.417,16,8.312,7.688,7,9z"/>
<polygon fill="#FBB855" points="21,14.642 23.699,16 24,13 "/>
<polygon fill="#FBB855" points="32,14.807 29.629,13 29,16 "/>
<polygon fill="#FBB855" points="18.101,12 21,9.6 17.203,9 "/>
<polygon fill="#FBB855" points="11,10 12.793,12 14,9.4 "/>
<polygon fill="#FBB855" points="29,6.795 26.432,5 25,7.76 "/>
<path fill="#C4926E" d="M37,18.213C37,21.5,28.367,23.792,25,22C22.131,20.473,37,14.927,37,18.213z"/>
<path fill="#0FB4D4" d="M28,52c-2.688,0.625-3.731,1.356-3.731,1.356C26.706,54.014,28,56,28,56V52z"/>
</svg>
