<?xml version="1.0" encoding="utf-8"?>
<!-- Generator: Adobe Illustrator 16.2.0, SVG Export Plug-In . SVG Version: 6.00 Build 0)  -->
<!DOCTYPE svg PUBLIC "-//W3C//DTD SVG 1.1//EN" "http://www.w3.org/Graphics/SVG/1.1/DTD/svg11.dtd">
<svg version="1.1" id="Layer_1" xmlns="http://www.w3.org/2000/svg" xmlns:xlink="http://www.w3.org/1999/xlink" x="0px" y="0px"
	 width="64px" height="64px" viewBox="0 0 64 64" enable-background="new 0 0 64 64" xml:space="preserve">
<path fill="#0FB4D4" d="M47,30c0,0,4-0.214,4-3c0-2.252,1-3,1-5c0-2.083-1-2.797-1-5c0-2.49-1.625-4.626-3-6
	c-1.539-1.539-1.523-4.114-4-5l-2,6.084V30H47z"/>
<path fill="#92C932" d="M45.096,26.531c0-2.252,1.182-1.923,0.381-4.829c-0.561-2.035,1.362-2.306-0.656-5.015
	c-1.488-1.997,0.986-1.985-0.486-4.838C43.25,9.751,45.02,8.037,44,6c-1-2-1.879-1.293-4-2c-1.761-0.587-2.166-1-4-1v27h10
	C46,30,45.096,28.367,45.096,26.531z"/>
<path fill="#E81C27" d="M15,30c0,0-2-0.214-2-3c0-2.252-1-2.75-1-5c0-2.417,1-2.682,1-5c0-2.49,1.625-4.626,3-6
	c1.54-1.539,1.523-4.114,4-5l2,6.084V30H15z"/>
<path fill="#F59E01" d="M24,4c-2.122,0.707-3,0-4,2c-1.019,2.037,0.75,3.751-0.333,5.849c-1.473,2.853,1.001,2.841-0.487,4.838
	c-2.019,2.709-0.096,2.98-0.657,5.015c-0.801,2.906,0.381,2.577,0.381,4.829C18.904,28.367,18,30,18,30h10V3
	C26.167,3,25.761,3.413,24,4z"/>
<path fill="#FFE12C" d="M37.5,30c1-2-1-5.252-0.044-6.919s0.878-3.419,0-5.419s0-4.006,0-5.089c0-1.227-1.79-2.677-0.622-4.927
	C38,5.396,37.996,2.887,36,3c-2.824,0.16-2.67-1-4-1s-1.176,1.16-4,1c-1.997-0.113-2,2.396-0.833,4.646s-0.623,3.7-0.623,4.927
	c0,1.083,0.877,3.089,0,5.089s-0.956,3.752,0,5.419S25.5,28,26.5,30H37.5z"/>
<path opacity="0.2" fill="#1A1626" enable-background="new    " d="M51.962,22.365c-0.373,1.635-3.712,4.292-7.485,4.292
	c-3.759,0-4.479-1.495-7.021-0.576S33.375,27.148,32,27.148S29.083,27,26.544,26.081s-2.981,0.576-7.02,0.576
	c-3.54,0-7.141-2.647-7.489-4.319c-0.004,0.046-0.004,0.102-0.008,0.148C12.162,24.323,13,24.926,13,27c0,2.786,2,3,2,3h32
	c0,0,4-0.214,4-3c0-2.053,0.822-2.866,0.971-4.507C51.966,22.452,51.966,22.404,51.962,22.365z"/>
<polygon fill="#E6EBEF" points="14,31 32,62 50,31 "/>
<path fill="#CFD8DD" d="M23,31h-9l18,31C32,62,23,42.833,23,31z"/>
<path fill="#6E8189" d="M14,31c0,0,17.333,4.5,36,0H14z"/>
<path fill="#CFD8DD" d="M50,28.03c-2.375,0.348-9,0.794-18,0.794s-15-0.363-18-0.794c-1.523-0.218-2,0.825-2,1.588
	c0,0.763,0.971,1.542,2,1.587C18.5,31.404,22.99,32,32,32s13.5-0.596,18-0.795c1.029-0.045,2-0.824,2-1.587
	C52,28.855,51.521,27.809,50,28.03z"/>
<path fill="#FFFFFF" d="M35,54l10-18C36.163,44.145,35,54,35,54z"/>
<polygon opacity="0.33" fill="#FFFFFF" points="25,22.588 26.18,19.485 28.417,22.588 "/>
<polygon opacity="0.33" fill="#FFFFFF" points="19.731,13.584 17.5,16.755 21,16.755 "/>
<polygon opacity="0.33" fill="#FFFFFF" points="38,19.172 36.5,22.588 39.917,22.588 "/>
<polygon opacity="0.33" fill="#FFFFFF" points="27.534,8.672 25.417,11.037 28.667,12.037 "/>
<polygon opacity="0.33" fill="#FFFFFF" points="36.632,8.65 35.972,11.755 39.289,11.005 "/>
<polygon opacity="0.33" fill="#FFFFFF" points="44.584,13.422 43.084,16.755 47,16.172 "/>
</svg>
