<?xml version="1.0" encoding="utf-8"?>
<!-- Generator: Adobe Illustrator 16.2.0, SVG Export Plug-In . SVG Version: 6.00 Build 0)  -->
<!DOCTYPE svg PUBLIC "-//W3C//DTD SVG 1.1//EN" "http://www.w3.org/Graphics/SVG/1.1/DTD/svg11.dtd">
<svg version="1.1" id="Layer_1" xmlns="http://www.w3.org/2000/svg" xmlns:xlink="http://www.w3.org/1999/xlink" x="0px" y="0px"
	 width="64px" height="64px" viewBox="0 0 64 64" enable-background="new 0 0 64 64" xml:space="preserve">
<rect x="45.172" y="25.004" transform="matrix(-0.7069 0.7073 -0.7073 -0.7069 111.6183 44.6006)" fill="#9E6C49" width="2.795" height="40.843"/>
<rect x="44.029" y="26.149" transform="matrix(-0.7071 0.7071 -0.7071 -0.7071 110.479 47.3778)" fill="#C4926E" width="2.797" height="40.842"/>
<path fill="#CBD716" d="M48.865,33.311C49.602,31.005,50,28.549,50,26c0-4.146-1.051-8.048-2.902-11.451
	C45.773,26.227,32.924,34.581,26.14,26.227C23.633,45.248,47.258,36.604,48.865,33.311z"/>
<path fill="#E84D88" d="M3.039,18.999C2.364,21.214,2,23.564,2,26c0,4.383,1.177,8.491,3.229,12.027
	c2.694-20.029,16.819-17.604,20.91-11.801C29.08,16.487,11.799,9.144,3.039,18.999z"/>
<path fill="#018BC9" d="M37.802,46.9C19.174,44.456,20.205,31.779,26.14,26.226c-6.996-2.333-19.935,6.948-7.017,22.771
	C21.303,49.648,23.61,50,26,50C30.29,50,34.317,48.873,37.802,46.9z"/>
<path fill="#F59E01" d="M33.357,3.15C31.038,2.403,28.565,2,26,2c-4.238,0-8.219,1.1-11.674,3.027
	c8.223,0.46,24.286,8.804,11.813,21.199C37.978,28.831,44.018,13.144,33.357,3.15z"/>
<path fill="#92C932" d="M37.817,46.893c5.204-2.949,9.196-7.787,11.048-13.582c-8.816,6.271-23.816,7.521-22.727-7.083
	C14.986,36.081,27.861,48.111,37.817,46.893z"/>
<path fill="#E81C27" d="M14.312,5.036C8.951,8.031,4.859,13.02,3.039,18.999c11.885-9.824,24.479-0.918,23.101,7.228
	C34.987,20.769,32.174,5.737,14.312,5.036z"/>
<path fill="#B30BAD" d="M26.14,26.227C21.586,17.8,4.861,19.769,5.236,38.041c3.035,5.223,7.982,9.193,13.885,10.956
	C11.08,38.486,13.549,25.331,26.14,26.227z"/>
<path fill="#FFE12C" d="M47.09,14.534c-2.922-5.361-7.825-9.483-13.73-11.384c5.973,5.399,10.033,23.197-7.22,23.076
	C31.611,34.331,46.08,28.144,47.09,14.534z"/>
<path opacity="0.25" fill="#1A1626" d="M26,45C13.589,45,3.38,35.58,2.13,23.5C2.045,24.322,2,25.156,2,26c0,13.255,10.745,24,24,24
	s24-10.745,24-24c0-0.844-0.045-1.678-0.13-2.5C48.62,35.58,38.41,45,26,45z"/>
<path opacity="0.5" fill="#FFFFFF" d="M26,8c9.422,0,17.571,5.432,21.499,13.333C45.357,11.426,36.547,4,26,4
	C15.452,4,6.642,11.426,4.5,21.334C8.429,13.433,16.579,8,26,8z"/>
</svg>
