<?xml version="1.0" encoding="utf-8"?>
<!-- Generator: Adobe Illustrator 16.2.0, SVG Export Plug-In . SVG Version: 6.00 Build 0)  -->
<!DOCTYPE svg PUBLIC "-//W3C//DTD SVG 1.1//EN" "http://www.w3.org/Graphics/SVG/1.1/DTD/svg11.dtd">
<svg version="1.1" id="Layer_1" xmlns="http://www.w3.org/2000/svg" xmlns:xlink="http://www.w3.org/1999/xlink" x="0px" y="0px"
	 width="64px" height="64px" viewBox="0 0 64 64" enable-background="new 0 0 64 64" xml:space="preserve">
<path fill="#F6BEC1" d="M21.81,42.191c5.422,5.422,4.314,15.324,0.662,18.977c-3.654,3.652-3.217-5.578-8.639-11
	c-5.424-5.424-14.654-4.984-11-8.639C6.485,37.877,16.388,36.768,21.81,42.191z"/>
<path fill="#FDE0DA" d="M2.833,41.529c0,0,6.09,0.326,7.145,5.129c0.508,2.314-0.758,4.508,1.05,6.314
	c1.806,1.807,4.001,0.543,6.315,1.051c4.803,1.053,5.129,7.145,5.129,7.145c3.652-3.652,5.76-14.555,0.338-19.977
	C17.388,35.768,6.485,37.877,2.833,41.529z"/>
<path fill="#F6BEC1" d="M42.189,21.811c-5.422-5.424-4.314-15.324-0.66-18.979c3.652-3.652,3.216,5.578,8.64,11
	c5.422,5.424,14.651,4.984,10.998,8.639C57.516,26.123,47.613,27.232,42.189,21.811z"/>
<path fill="#FDE0DA" d="M61.167,22.471c0,0-6.09-0.324-7.146-5.129c-0.506-2.314,0.758-4.508-1.049-6.314
	c-1.806-1.805-4.002-0.543-6.313-1.049c-4.806-1.055-5.13-7.146-5.13-7.146c-3.654,3.654-5.762,14.555-0.34,19.979
	C46.613,28.232,57.516,26.123,61.167,22.471z"/>
<path fill="#F6BEC1" d="M21.656,40c0,0-6.033,1.127-5.637,2.344c0.338,1.037,4.613-1.134,4.912-0.632
	c0.354,0.599-4.099,3.413-3.076,4.435c1.022,1.023,3.837-3.433,4.434-3.076c0.503,0.299-1.668,4.574-0.632,4.912
	C22.871,48.379,24,42.344,24,42.344L21.656,40z"/>
<path fill="#F6BEC1" d="M42.344,24c0,0,6.033-1.127,5.639-2.344c-0.34-1.037-4.613,1.134-4.912,0.632
	c-0.355-0.597,4.099-3.413,3.076-4.433c-1.022-1.025-3.838,3.431-4.435,3.076c-0.503-0.299,1.668-4.575,0.632-4.912
	C41.13,15.622,40,21.656,40,21.656L42.344,24z"/>
<circle fill="#FDE0DA" cx="32" cy="32" r="13.998"/>
<g>
	<path fill="#E03636" d="M18.231,29.545c-0.142,0.798-0.229,1.616-0.229,2.455c0,1.178,0.162,2.317,0.436,3.41l10.152,10.152
		c1.093,0.274,2.231,0.436,3.41,0.436c0.839,0,1.657-0.087,2.455-0.229L18.231,29.545z"/>
	<path fill="#E03636" d="M23.629,20.8c-1.073,0.804-2.024,1.755-2.828,2.829l19.57,19.57c1.073-0.804,2.025-1.755,2.828-2.828
		L23.629,20.8z"/>
	<path fill="#E03636" d="M32,18.002c-0.839,0-1.657,0.087-2.456,0.229L45.77,34.456c0.142-0.799,0.229-1.617,0.229-2.457
		c0-1.177-0.161-2.314-0.436-3.407L35.408,18.437C34.315,18.163,33.178,18.002,32,18.002z"/>
	<path fill="#F6BEC1" d="M19.686,25.342c-0.34,0.627-0.619,1.289-0.86,1.969l17.864,17.864c0.68-0.242,1.342-0.521,1.969-0.86
		L19.686,25.342z"/>
	<path fill="#F6BEC1" d="M27.31,18.825c-0.68,0.242-1.342,0.521-1.968,0.86l18.974,18.973c0.339-0.627,0.618-1.289,0.86-1.968
		L27.31,18.825z"/>
</g>
<path opacity="0.2" fill="#1A1626" enable-background="new    " d="M40.846,21.154c1.969,2.412,3.151,5.489,3.151,8.845
	c0,7.731-6.267,13.998-13.998,13.998c-3.356,0-6.434-1.185-8.845-3.151c2.567,3.144,6.471,5.151,10.845,5.151
	c7.731,0,13.998-6.267,13.998-13.998C45.997,27.625,43.988,23.721,40.846,21.154z"/>
<path opacity="0.5" fill="#FFFFFF" enable-background="new    " d="M36,21.719c0-2.825-16-4.049-16,11.799
	C20,36.264,36,26.637,36,21.719z"/>
</svg>
