<?xml version="1.0" encoding="utf-8"?>
<!-- Generator: Adobe Illustrator 15.0.0, SVG Export Plug-In . SVG Version: 6.00 Build 0)  -->
<!DOCTYPE svg PUBLIC "-//W3C//DTD SVG 1.1//EN" "http://www.w3.org/Graphics/SVG/1.1/DTD/svg11.dtd">
<svg version="1.1" id="Layer_1" xmlns="http://www.w3.org/2000/svg" xmlns:xlink="http://www.w3.org/1999/xlink" x="0px" y="0px"
	 width="64px" height="64px" viewBox="0 0 64 64" enable-background="new 0 0 64 64" xml:space="preserve">
<path fill-rule="evenodd" clip-rule="evenodd" fill="#99A8AE" d="M62,29.781c0,5.266-4.309,6.704-4.918,9.008
	c-0.633,2.389,1.248,3.855,1.248,3.855c0,6.504-6.215,6.033-7.936,7.754c-1.719,1.719-1.213,6.406-3.334,7.631
	c-2.09,1.203-5.885-1.576-8.271-0.947c-2.307,0.611-4.217,4.926-6.721,4.918c-2.506-0.006-4.4-4.332-6.715-4.957
	c-2.391-0.646-6.207,2.115-8.301,0.9c-2.125-1.234-1.617-5.93-3.344-7.654c-1.725-1.725-7.963-0.586-7.963-7.93
	c0,0,1.855-1.32,1.211-3.713C6.334,36.334,2,34.063,2,29.716c0-2.502,4.307-2.199,4.916-4.504c0.631-2.391-2.531-4.494-1.037-9.207
	l52.233,0.29c1.304,3.47-1.718,6.669-1.071,9.06C57.666,27.667,62,29.781,62,29.781z"/>
<path fill-rule="evenodd" clip-rule="evenodd" fill="#E6EBEF" d="M62,29.847c0.006,2.317-4.309,4.086-4.918,6.221
	c-0.633,2.213,2.148,5.727,0.943,7.662c-1.223,1.965-5.91,1.496-7.631,3.088c-1.719,1.592-1.213,5.934-3.334,7.066
	c-2.09,1.115-5.885-1.459-8.271-0.875c-2.307,0.564-4.217,4.561-6.721,4.553c-2.506-0.006-4.4-4.012-6.715-4.592
	c-2.391-0.596-6.207,1.961-8.301,0.834c-2.125-1.143-1.617-5.488-3.344-7.086c-1.725-1.6-6.418-1.129-7.65-3.096
	c-1.217-1.941,1.543-5.473,0.898-7.688C6.334,33.795,2.006,32.037,2,29.716c-0.008-2.318,4.307-4.086,4.916-6.221
	c0.631-2.213-2.15-5.727-0.945-7.662c1.223-1.964,5.91-1.496,7.631-3.088c1.719-1.593,1.213-5.934,3.334-7.066
	c2.09-1.115,5.885,1.459,8.273,0.874C27.516,5.989,29.426,1.994,31.928,2c2.508,0.008,4.402,4.013,6.717,4.591
	c2.389,0.598,6.203-1.957,8.299-0.832c2.125,1.143,1.617,5.488,3.344,7.087s6.418,1.13,7.652,3.096
	c1.217,1.938-1.545,5.472-0.898,7.685C57.666,25.769,61.992,27.527,62,29.847z"/>
<path fill="#E84D88" d="M49.297,22.189c3.92,8.697-0.367,20.773-13.86,23.411c-10.405,2.034-17.956-3.946-20.132-11.949
	c-2.205-8.115,1.391-16.891,12.604-19.295c8.186-1.754,16.189,3.135,15.326,11.476c-0.647,6.248-4.922,8.715-7.784,9.235
	c-7.489,1.363-10.501-5.059-5.646-9.972c-5.822,10.995,9.816,10.262,9.617,0.573c-0.164-7.974-10.488-8.701-15.937-3.859
	c-7.795,6.929-1.334,21.491,11.285,19.677C47.453,39.66,50.666,29.566,49.297,22.189z"/>
</svg>
