<?xml version="1.0" encoding="utf-8"?>
<!-- Generator: Adobe Illustrator 16.2.0, SVG Export Plug-In . SVG Version: 6.00 Build 0)  -->
<!DOCTYPE svg PUBLIC "-//W3C//DTD SVG 1.1//EN" "http://www.w3.org/Graphics/SVG/1.1/DTD/svg11.dtd">
<svg version="1.1" id="Layer_1" xmlns="http://www.w3.org/2000/svg" xmlns:xlink="http://www.w3.org/1999/xlink" x="0px" y="0px"
	 width="64px" height="64px" viewBox="0 0 64 64" enable-background="new 0 0 64 64" xml:space="preserve">
<path fill="#99A8AE" d="M7,40c0,4,11.193,12,25,12c13.807,0,25-8,25-12H7z"/>
<ellipse fill="#CFD8DD" cx="32" cy="35" rx="30" ry="15"/>
<ellipse fill="#E6EBEF" cx="32" cy="35" rx="29" ry="14"/>
<path fill="#AB5C10" d="M51.302,27.211c-3.829-2.309-34.712-7.6-41.531,4.11c-1.902,3.265-0.348,7.723,5.416,10.791
	c3.554,1.895,11.082,5.056,15.868,5.767c4.784,0.711,9.25-1.892,13.023-2.696c6.121-1.299,10.418-3.938,10.418-8.107
	C54.495,32.945,56.875,30.57,51.302,27.211z"/>
<path fill="#594640" d="M32,26c-11.046,0-20,3.295-20,8.527C12,39.759,20.954,44,32,44s20-4.241,20-9.473C52,29.295,43.046,26,32,26
	z"/>
<path fill="#FDCA47" d="M45.6,17H18.401c0,0,0.722,6.896-2.054,17.43c1.778,4.455,7.327,6.622,15.653,6.622
	c9.195,0,17-2.833,17-6.596C49,34.047,45.6,17,45.6,17z"/>
<path fill="#FFE1BD" d="M37,21c2,11.047,6,16,8,16s0.805-12.69-2-19L37,21z"/>
<path fill="#D99025" d="M18.401,17c0,0-3.401,16.922-3.401,17.43C15,38.193,22.803,41,32,41c-18.392,0-14.439-19.974-7.32-18.25
	L18.401,17z"/>
<path fill="#594640" d="M32,12.254c-7.664,0-13.877,2.541-13.877,5.674c0,3.133,6.213,5.674,13.877,5.674
	c8.469,0,13.877-3.993,13.877-5.674C45.877,14.795,39.664,12.254,32,12.254z"/>
<path fill="#AB5C10" d="M44.818,17.063c0-2.796-5.756-5.063-12.855-5.063c-7.099,0-12.854,2.267-12.854,5.063
	c0,2.798,5.754,5.065,12.854,5.065C39.809,22.127,44.818,18.563,44.818,17.063z"/>
<path fill="#C4926E" d="M31.286,16.95C29.533,18.703,25,20,25,20s2,1,7,1c6.066,0,11-2.313,11-4.001C43,14.791,38.605,13,33.061,13
	C26.557,13,33.159,15.076,31.286,16.95z"/>
</svg>
