<?xml version="1.0" encoding="utf-8"?>
<!-- Generator: Adobe Illustrator 15.0.0, SVG Export Plug-In . SVG Version: 6.00 Build 0)  -->
<!DOCTYPE svg PUBLIC "-//W3C//DTD SVG 1.1//EN" "http://www.w3.org/Graphics/SVG/1.1/DTD/svg11.dtd">
<svg version="1.1" id="Layer_1" xmlns="http://www.w3.org/2000/svg" xmlns:xlink="http://www.w3.org/1999/xlink" x="0px" y="0px"
	 width="64px" height="64px" viewBox="0 0 64 64" enable-background="new 0 0 64 64" xml:space="preserve">
<path fill="#CFD8DD" d="M54.359,38.575c-5.035,4.422-39.558-2.399-40.969-7.572C6.104,4.284,71.419,23.587,54.359,38.575z"/>
<path fill="#FFFFFF" d="M13.445,26.875c0.365,2.422-2.084,6.605,14.578,10.041c14.933,3.079,16.145,2.989,16.516,0.271
	C28.342,30.226,25.105,23.226,13.445,26.875z"/>
<path opacity="0.5" fill="#CFD8DD" enable-background="new    " d="M17.932,30.334c3.357-0.216,3.064-3.252-0.264-2.973
	C14.361,27.635,14.598,30.559,17.932,30.334z"/>
<path opacity="0.3" fill="#CFD8DD" enable-background="new    " d="M24.639,30.672c2.81-1.056,2.127-3.55-0.65-2.445
	C21.229,29.32,21.85,31.729,24.639,30.672z"/>
<path fill="#FB7900" d="M12.702,26.149c-1.272,0.536-0.53-4.041,0-4.605C31.625,10.368,56.788,30.135,62,34.41
	C40.389,45.741,31.477,18.236,12.702,26.149z"/>
<path fill="#F59E01" d="M12.702,21.544c7.968-11.624,24.937-11.624,34.06-5.38C55.165,21.914,56.788,30.135,62,34.41
	C41.451,41.002,31.625,14.087,12.702,21.544z"/>
<path opacity="0.5" fill="#FFFFFF" enable-background="new    " d="M54.359,23.991c-10.864,5.989-4.52,10.843-7.891,12.47
	C52.186,34.607,45.195,31.811,54.359,23.991z"/>
<path opacity="0.5" fill="#FFFFFF" enable-background="new    " d="M49.324,18.166c-13.78,5.142-7.73,11.937-10.699,14.796
	C43.045,29.691,38.738,25.334,49.324,18.166z"/>
<path opacity="0.5" fill="#FFFFFF" enable-background="new    " d="M42.135,13.777c-13.781,7.76-7.494,12.106-10.463,14.968
	C36.092,25.473,31.738,22.792,42.135,13.777z"/>
<path opacity="0.5" fill="#FFFFFF" enable-background="new    " d="M33.57,12.032c-12.519,9.375-5.497,10.742-8.465,13.603
	C29.525,22.363,24.706,22.071,33.57,12.032z"/>
<path opacity="0.5" fill="#FFFFFF" enable-background="new    " d="M25.307,12.885c-10.252,8.455-5.361,5.87-7.203,11.876
	C22.549,17.405,17.4,21.339,25.307,12.885z"/>
<path fill="#CFD8DD" d="M44.359,60.475c-5.035,4.737-39.558-2.57-40.969-8.113C-3.896,23.731,61.419,44.415,44.359,60.475z"/>
<path fill="#FFFFFF" d="M3.445,47.938c0.365,2.596-2.084,7.076,14.578,10.758c14.933,3.3,16.145,3.203,16.516,0.291
	C18.342,51.525,15.105,44.025,3.445,47.938z"/>
<path opacity="0.3" fill="#CFD8DD" enable-background="new    " d="M26.85,56.745c-3.08,0.366-2.738,3.347,0.313,2.914
	C30.199,59.236,29.911,56.37,26.85,56.745z"/>
<path opacity="0.5" fill="#CFD8DD" enable-background="new    " d="M16.586,54.195c3.357-0.231,3.064-3.483-0.264-3.186
	C13.016,51.305,13.252,54.436,16.586,54.195z"/>
<path opacity="0.3" fill="#CFD8DD" enable-background="new    " d="M7.734,50.581c2.809-1.131,2.127-3.804-0.65-2.619
	C4.324,49.133,4.943,51.714,7.734,50.581z"/>
<path opacity="0.5" fill="#CFD8DD" enable-background="new    " d="M10.367,54.717c2.744,2.049,4.168-0.652,1.41-2.625
	C9.041,50.126,7.639,52.693,10.367,54.717z"/>
<path opacity="0.3" fill="#CFD8DD" enable-background="new    " d="M22.244,57.145c2.496-1.869,1.299-4.348-1.16-2.437
	C18.641,56.602,19.766,59.011,22.244,57.145z"/>
<path fill="#C21413" d="M2.702,47.16c-1.272,0.574-0.53-4.329,0-4.936C21.625,30.25,46.788,51.432,52,56.011
	C30.389,68.15,21.477,38.68,2.702,47.16z"/>
<path fill="#E03636" d="M2.702,42.227c7.968-12.454,24.937-12.454,34.06-5.766C45.165,42.62,46.788,51.432,52,56.011
	C31.451,63.073,21.625,34.234,2.702,42.227z"/>
<path opacity="0.3" fill="#FFFFFF" enable-background="new    " d="M44.359,44.848c-10.864,6.416-4.52,11.616-7.891,13.36
	C42.186,56.225,35.195,53.225,44.359,44.848z"/>
<path opacity="0.3" fill="#FFFFFF" enable-background="new    " d="M39.324,38.604c-13.78,5.511-7.73,12.791-10.699,15.855
	C33.045,50.954,28.738,46.286,39.324,38.604z"/>
<path opacity="0.3" fill="#FFFFFF" enable-background="new    " d="M32.135,33.902c-13.781,8.313-7.494,12.973-10.463,16.037
	C26.092,46.436,21.738,43.563,32.135,33.902z"/>
<path opacity="0.3" fill="#FFFFFF" enable-background="new    " d="M23.57,32.034c-12.519,10.045-5.497,11.51-8.465,14.576
	C19.525,43.104,14.706,42.79,23.57,32.034z"/>
<path opacity="0.3" fill="#FFFFFF" enable-background="new    " d="M15.307,32.948c-10.252,9.057-5.361,6.289-7.203,12.725
	C12.549,37.789,7.4,42.005,15.307,32.948z"/>
</svg>
