<?xml version="1.0" encoding="utf-8"?>
<!-- Generator: Adobe Illustrator 16.2.0, SVG Export Plug-In . SVG Version: 6.00 Build 0)  -->
<!DOCTYPE svg PUBLIC "-//W3C//DTD SVG 1.1//EN" "http://www.w3.org/Graphics/SVG/1.1/DTD/svg11.dtd">
<svg version="1.1" id="Layer_1" xmlns="http://www.w3.org/2000/svg" xmlns:xlink="http://www.w3.org/1999/xlink" x="0px" y="0px"
	 width="64px" height="64px" viewBox="0 0 64 64" enable-background="new 0 0 64 64" xml:space="preserve">
<path fill="#F46C60" d="M28.104,11.679C24.247,16.965,4.661,21.41,4.661,21.41s2.795-5.466,10.563-8.972
	c0,0-8.149,3.315-13.224,1.553c0,0,7.865-8.82,24.417-10.335L28.104,11.679z"/>
<path fill="#E03636" d="M22.397,11.706c0,0-9.741,7.114-17.736,9.704c0,0,15.703-3.566,21.753-8.108
	C25.341,12.792,24.017,12.26,22.397,11.706z"/>
<path fill="#F8BD17" d="M59.094,43.858c0.005,0.002-0.018,0.014-0.014,0.018S59.09,43.854,59.094,43.858z"/>
<path fill="#F9C802" d="M61.834,26.784c0,0.001,0,0.003,0,0.005C62.118,27.953,61.983,27.401,61.834,26.784z"/>
<path fill="#F9C802" d="M61.002,39.673c2.412-3.523-1.183-8.126,0.253-11.021c0.928-1.869,0.908-6.267-0.145-8.003
	c-1.491-2.467-2.653-2.863-3.33-6.027c-0.622-2.896-4.711-2.438-5.295-5.431c-0.699-3.594-3.424-3.039-6.123-4.223
	C45.147,4.278,44,3.489,42.921,2.6c-2.025-1.192-3.598,0.033-5.658-0.012c-3.404-0.08-3.076-1.434-6.62,0.261
	c-1.146,0.212-2.287,0.199-3.428-0.037c-1.744,0.144-2.217,2.581-3.591,3.38c-2.048,1.19-2.708,2.508-1.821,4.043
	c1.232,2.129,0.739,5.768,4.176,4.964c2.291-0.537,5.736,0.961,7.563,2.445c4.674,3.797,11.409,9.021,5.118,14.707
	c-3.646,3.295-5.862,1.47-9.822,3.359c-3.451,1.646-6.117-1.197-9.71,1.424c-2.285,1.668-6.484,2.329-7.61,5.079
	c-1.387,3.386-4.472,3.468-2.447,7.362c1.059,2.035,1.311,5.82,4.002,6.09c3.262,0.324,4.272,4.251,7.529,4.039
	c2.936-0.191,5.395,3.553,7.674,1.852c1.744-1.304,6.889-1.625,9.288-1.559c1.672,0.048,3.613,1.744,5.207,0.336
	c1.277-1.131,2.256-3.148,4.186-3.322c2.854-0.258,6.163-4.072,8.188-5.936C60.461,46.183,58.655,43.101,61.002,39.673z"/>
<path fill="#F59E01" d="M54.828,38.913c-0.995,1.132-2.144,1.941-3.251,2.377c1.541,1.08,3.666,0.832,4.996-0.676
	c1.33-1.512,1.396-3.762,0.258-5.292C56.503,36.517,55.825,37.782,54.828,38.913z"/>
<path fill="#F59E01" d="M55.228,28.401c-0.556,1.399-1.363,2.549-2.259,3.33c1.813,0.501,3.731-0.45,4.474-2.32
	c0.744-1.869,0.054-4.01-1.539-5.066C55.996,25.581,55.786,27,55.228,28.401z"/>
<path fill="#F59E01" d="M47.931,28.006c0.396-1.453,1.07-2.686,1.873-3.563c-1.855-0.294-3.658,0.865-4.187,2.807
	c-0.53,1.94,0.396,3.99,2.097,4.863C47.483,30.897,47.533,29.463,47.931,28.006z"/>
<path fill="#F59E01" d="M43.342,16.808c-1.493,0.204-2.893,0.064-4.013-0.33c0.456,1.824,2.227,3.027,4.219,2.757
	c1.994-0.271,3.52-1.925,3.657-3.832C46.176,16.09,44.835,16.604,43.342,16.808z"/>
<path fill="#F59E01" d="M51.624,17.586c0.102,1.503-0.133,2.889-0.604,3.98c1.852-0.332,3.172-2.016,3.035-4.022
	c-0.135-2.008-1.68-3.642-3.572-3.909C51.103,14.709,51.522,16.083,51.624,17.586z"/>
<path fill="#F59E01" d="M40.237,7.976c1.315,0.733,2.35,1.683,3.01,2.674c0.73-1.735,0.038-3.759-1.721-4.738
	c-1.758-0.982-3.969-0.572-5.226,0.867C37.539,6.848,38.919,7.242,40.237,7.976z"/>
<path fill="#F59E01" d="M31.756,9.43c-0.594-1.381-0.83-2.766-0.746-3.951c-1.641,0.928-2.33,2.956-1.537,4.802
	c0.793,1.845,2.795,2.874,4.67,2.495C33.204,11.97,32.352,10.816,31.756,9.43z"/>
<path fill="#F59E01" d="M35.164,15.402c-2.669-0.431-4.716-3.725-8.188-2.549s-4.578-1.148-4.578-1.148v0
	c0.601,1.98,0.859,4.129,3.582,3.493c2.291-0.537,5.736,0.961,7.563,2.445c4.674,3.797,11.409,9.021,5.118,14.707
	C46.986,27.701,37.833,15.833,35.164,15.402z"/>
<path fill="#F59E01" d="M13.073,55.665c3.262,0.324,4.272,4.251,7.529,4.039c2.936-0.191,5.395,3.553,7.674,1.852
	c1.744-1.304,6.889-1.625,9.288-1.559c1.672,0.048,3.613,1.744,5.207,0.336c1.277-1.131,2.256-3.148,4.186-3.322
	c2.854-0.258,6.163-4.072,8.188-5.936c5.317-4.893,3.512-7.975,5.858-11.402c2.412-3.523-1.183-8.126,0.253-11.021
	c0,0-2.565,3.325-2.16,6.67s-4.478,15.16-8.029,16.585c-6.86,2.753-8.984,8.093-19.69,5.927c-6.81-1.378-11.565,2.48-22.304-8.259
	C10.13,51.61,10.382,55.396,13.073,55.665z"/>
<path fill="#E03636" d="M15.224,12.438c0,0-7.724-0.79-13.224,1.553C2,13.991,5.448,16.375,15.224,12.438z"/>
<path fill="#F59E01" d="M19.664,46.054c1.117-2.585,3.867-4.897,5.979-5.24C20.813,37.688,18,43.625,19.664,46.054z"/>
<path fill="#F59E01" d="M38.596,49.837c-1.67,2.268-4.871,3.901-7.005,3.76C35.593,57.73,39.67,52.579,38.596,49.837z"/>
<path fill="#F59E01" d="M48.737,45.002c-0.984,2.639-3.615,5.088-5.706,5.536C48.014,53.417,50.522,47.345,48.737,45.002z"/>
<path fill="#F59E01" d="M30.082,48.383c0.774-2.708,3.204-5.355,5.253-5.968C30.143,39.938,28.119,46.188,30.082,48.383z"/>
<path fill="#F59E01" d="M41.845,42.795c0.169-2.812,1.967-5.923,3.834-6.965C40.072,34.537,39.453,41.078,41.845,42.795z"/>
<path fill="#F59E01" d="M17.75,49.667c0.328,5.744,6.781,4.508,7.759,1.73C22.763,52.022,19.272,51.168,17.75,49.667z"/>
</svg>
