<?xml version="1.0" encoding="utf-8"?>
<!-- Generator: Adobe Illustrator 15.0.0, SVG Export Plug-In . SVG Version: 6.00 Build 0)  -->
<!DOCTYPE svg PUBLIC "-//W3C//DTD SVG 1.1//EN" "http://www.w3.org/Graphics/SVG/1.1/DTD/svg11.dtd">
<svg version="1.1" id="Layer_1" xmlns="http://www.w3.org/2000/svg" xmlns:xlink="http://www.w3.org/1999/xlink" x="0px" y="0px"
	 width="64px" height="64px" viewBox="0 0 64 64" enable-background="new 0 0 64 64" xml:space="preserve">
<path fill="#CFD8DD" d="M41,13.776v8.162c0,0,1.103-2.222,1.663-2.452c0.936-0.38,5.901-0.281,6.663,0.089
	c1.487,0.725,3.828,13.317,2.35,21.675c-0.327,1.844-4.409,3.527-7.544,4.744C42.558,46.605,41,43.474,41,43.474l0.988,12.303
	c0,0,1.314-3.039,2.112-3.866c2.357-2.439,9.621-4.294,11.624-7.615c2.678-4.439,0.718-22.59-2.003-26.495
	c-2.195-3.151-4.331-2.443-11.09-2.56C41.685,15.223,41,13.776,41,13.776z"/>
<path fill="#99A8AE" d="M45.712,45.838c0.328-0.353,6.511-2.314,6.791-3.925c1.764-10.096-0.932-22.556-2.852-23.431
	c-1.682-0.768-8.18,1.107-8.554-2.026l0.097,5.418c0.348-1.156,1.385-2.237,1.503-2.284c0.935-0.381,5.85-0.268,6.612,0.102
	c1.49,0.727,3.782,13.192,2.366,21.559C51.365,43.085,45.769,45.712,45.712,45.838z"/>
<path fill="#99A8AE" d="M41.506,52.452c-0.175,0.18,0.687,2.99,0.482,3.324c0.03-0.033,1.57-3.311,2.481-4.104
	c2.521-2.2,9.688-4.067,10.679-7.536C52.328,47.723,43.712,50.167,41.506,52.452z"/>
<path fill="#F5F5F5" d="M9.228,10.14c-0.782-3.121,2.616-2.217,3.334-2.543c1.275-0.58,2.105-2.736,5.437-3.25
	c3.171-0.489,4.417,1.471,5.54,0.592c2.336-1.83,5.161-0.116,7.016-0.116c1.501,0,2.864-3.768,5.992-2.597
	C38.618,3,37.729,4.859,39.933,5.66c2.28,0.828,2.534,2.746,1.812,4.479H9.228z"/>
<path fill="#FFFFFF" d="M10.645,8.63c0,0,2.565,0.354,3.242-0.381S11.575,8.304,10.645,8.63z"/>
<path fill="#FFFFFF" d="M31.561,5.024c0,0,3.504-3.248,3.081-2.039C33.943,4.981,31.561,5.024,31.561,5.024z"/>
<path fill="#FFFFFF" d="M16.107,7.46c2.524-0.237,2.305,0.518,4.957,0.518c3.369,0,4.124-1.856,7.677-1.551
	c0,0-3.638-1.509-8.522,0.449c0,0-0.021-0.51,1.12-1.387C18.674,5.652,18.166,6.938,16.107,7.46z"/>
<path fill="#CFD8DD" d="M42.082,47.159c0-12.375,0-37.201,0-37.201c0-1.277-33.164-1.277-33.164,0c0,0,0,24.826,0,37.201
	C8.918,50.19,7,59.149,7,59.149c0,3.801,37,3.801,37,0C44,59.149,42.082,50.19,42.082,47.159z"/>
<path fill="#D47706" d="M10,18.315c0,0,1.207,32.812,2.44,33.436h0.016c1.022,1.267,7.059,1.893,13.044,1.881
	c5.986,0.012,12.021-0.614,13.044-1.881h0.016C39.793,51.127,41,18.315,41,18.315C40.838,16.949,10.162,16.949,10,18.315z"/>
<path fill="#EA8800" d="M12.5,18.363c0,0,0.922,31.339,1.957,31.939h0.014c0.951,1.194,6.005,1.794,11.029,1.796
	c5.024-0.002,10.078-0.602,11.029-1.796h0.014c1.035-0.601,1.957-31.939,1.957-31.939C38.463,18.011,12.537,18.011,12.5,18.363z"/>
<path fill="#F59E01" d="M14,22.707c0,0,0.537,22.021,1.454,27.04c1.892-0.229,5.989-0.335,10.046-0.322
	c4.057-0.013,8.154,0.093,10.046,0.322C36.463,44.728,37,22.707,37,22.707C36.863,21.427,14.137,21.427,14,22.707z"/>
<path fill="#E6EBEF" d="M10,10.358c0,0,0,3.486,0,8.435c11.438-0.333,19.562-0.333,31,0c0-4.948,0-8.435,0-8.435
	C41,9.39,10,9.39,10,10.358z"/>
<path fill="#D47706" d="M24.925,43.119c0,3.333-5,3.333-5,0S24.925,39.786,24.925,43.119z"/>
<path fill="#D47706" d="M21.175,35.271c0,2-3,2-3,0S21.175,33.271,21.175,35.271z"/>
<path fill="#D47706" d="M25.675,32.271c0,2.666-4,2.666-4,0S25.675,29.604,25.675,32.271z"/>
<path fill="#D47706" d="M20.675,26.646c0,1.333-2,1.333-2,0S20.675,25.313,20.675,26.646z"/>
<path fill="#99A8AE" d="M10.409,54.561c12.143,4.431,14.516,5.306,28.403-0.235C28.313,55.564,20.188,56.2,10.409,54.561z"/>
<path fill="#99A8AE" d="M14.84,57.485c7.907,2.92,16.807,2.173,25.069-1.255C31.478,56.591,23.319,58.004,14.84,57.485z"/>
<path opacity="0.5" fill="#FFFFFF" d="M15.773,9.778c0,19.504,0.748,37.914-0.615,50.748c-0.064,0.605-4.307-0.034-4.185-0.63
	c3.33-16.255,1.618-29.037,1.614-49.963C12.588,9.566,15.773,9.413,15.773,9.778z"/>
</svg>
