<?xml version="1.0" encoding="utf-8"?>
<!-- Generator: Adobe Illustrator 16.2.0, SVG Export Plug-In . SVG Version: 6.00 Build 0)  -->
<!DOCTYPE svg PUBLIC "-//W3C//DTD SVG 1.1//EN" "http://www.w3.org/Graphics/SVG/1.1/DTD/svg11.dtd">
<svg version="1.1" id="Layer_1" xmlns="http://www.w3.org/2000/svg" xmlns:xlink="http://www.w3.org/1999/xlink" x="0px" y="0px"
	 width="64px" height="64px" viewBox="0 0 64 64" enable-background="new 0 0 64 64" xml:space="preserve">
<path fill="#1A1626" d="M62,46c0,1.458-1,12-5,12H7c-4,0-5-10.542-5-12H62z"/>
<polygon fill="#B00505" points="56,11 8,11 3,48 61,48 "/>
<path fill="#E81C27" d="M58.656,48l-1.372-12.014C57.159,34.895,56.156,34,55.057,34H34C34,34,29.082,54.625,58.656,48z"/>
<path fill="#E81C27" d="M11,16c-1.1,0-2.102,0.894-2.227,1.987L7.4,28h48.971l-1.145-10.013C55.103,16.894,54.1,16,53,16H11z"/>
<path fill="#FFFFFF" d="M26.878,32.875c0,0,7.122-2.656,10.122-0.188V48H3l2.287-15c0,0,2.113-3.5,8.921-0.318
	c0,0,3.033-1.682,6.792-1.682C23.728,31,26.878,32.875,26.878,32.875z"/>
<path fill="#302C3B" d="M57.984,13.98C57.638,11.809,56.075,10,53.989,10H10.011c-2.085,0-3.718,1.799-3.997,3.98
	C5.601,17.224,2,44.667,2,46c0,2.083,0.521,4,3,4h54c2.085,0,3-1.833,3-4C62,44.167,59,20.333,57.984,13.98z M28,14c0-1.1,0.9-2,2-2
	h24c1.1,0,2.103,0.894,2.227,1.987l1.375,12.025C57.726,27.106,56.928,28,55.828,28H30c-1.1,0-2-0.9-2-2V14z M6.398,26.013
	l1.375-12.025C7.898,12.894,8.9,12,10,12h14.53c1.1,0,1.974,0.899,1.941,1.999l-0.353,12.002C26.087,27.101,25.161,28,24.061,28
	H8.171C7.071,28,6.273,27.106,6.398,26.013z M36,45c0,1.1-0.9,2-2,2H6c-1.1,0-1.898-0.895-1.773-1.987l1.489-13.025
	C5.841,30.894,6.843,30,7.943,30H34c1.1,0,2,0.9,2,2V45z M58,47H41.028c-1.1,0-2.052-0.898-2.114-1.996l-0.743-13.007
	C38.108,30.898,38.957,30,40.057,30h16c1.1,0,2.103,0.894,2.228,1.987l1.488,13.027C59.897,46.105,59.1,47,58,47z"/>
<path fill="#F46C60" d="M21,37c-4,0-4,4,0,4S25,37,21,37z"/>
<path fill="#FDCA47" d="M55.354,39c3.302,0,1.952-8-1.919-8H42.872c-3.871,0-3.667,8-0.364,8H55.354z"/>
<path fill="#D99025" d="M55.354,39c3.371,0,1.246-5-1.264-5H42.799c-2.51,0-3.661,5-0.291,5H55.354z"/>
<path fill="#FDCA47" d="M55.743,43c3.302,0,1.951-8-1.921-8H43.261c-3.872,0-3.666,8-0.363,8H55.743z"/>
<path fill="#D99025" d="M55.743,43c3.369,0,1.245-5-1.264-5H43.187c-2.508,0-3.661,5-0.289,5H55.743z"/>
<path fill="#FDCA47" d="M56.133,47c3.303,0,1.951-8-1.922-8H43.65c-3.873,0-3.667,8-0.364,8H56.133z"/>
<path fill="#D99025" d="M56.133,47c3.369,0,1.246-5-1.265-5H43.577c-2.51,0-3.662,5-0.291,5H56.133z"/>
<path fill="#FFFFFF" d="M28.375,24.292c0,3.167,2.812,3.063,4.625,1.25c0,0,2.417,0.458,2.211-2.542
	c1.206,0,1.818-1.354,1.665-2.701c1.153-0.673,2.123-4.132-1.418-4.132C32.484,16.167,28.375,17.829,28.375,24.292z"/>
<path fill="#F46C60" d="M34.034,14C31.501,14,29,19.027,29,25.135c0,2.037,0.214-0.032,3.052-1.018
	C35.529,22.908,40.105,14,34.034,14z"/>
<path fill="#F89987" d="M32.727,23.796c-0.228,0.135-0.453,0.244-0.675,0.321c-0.149,0.052-0.288,0.108-0.423,0.166
	c-0.588-0.54-1.872-0.376-1.872-0.376l-0.675-0.602c0.027-0.333,0.063-0.66,0.104-0.982L30,23C30,23,31.438,22.264,32.727,23.796z"
	/>
<path fill="#F89987" d="M35.211,21.325c-0.512-1.058-1.273-1.981-3.617-1.981c0,0-1.144-0.923-1.536-0.789
	c-0.107,0.306-0.208,0.622-0.301,0.95c0.538-0.137,1.431,0.897,1.431,0.897s2.156-0.402,3.291,1.861
	C34.733,21.97,34.979,21.655,35.211,21.325z"/>
<path fill="#F89987" d="M33,16.406c0,0-0.956-0.91-1.536-0.677c-0.163,0.227-0.321,0.469-0.472,0.733
	c0.6-0.187,1.492,1.037,1.492,1.037s2.727-0.5,3.932,1.646c0.202-0.486,0.36-0.973,0.46-1.442C35.438,15.691,33,16.406,33,16.406z"
	/>
<path fill="#FFFFFF" d="M37.375,24.292c0,3.167,2.813,3.063,4.625,1.25c0,0,2.417,0.458,2.211-2.542
	c1.206,0,1.818-1.354,1.665-2.701c1.153-0.673,2.123-4.132-1.418-4.132C41.484,16.167,37.375,17.829,37.375,24.292z"/>
<path fill="#F46C60" d="M43.034,14C40.502,14,38,19.027,38,25.135c0,2.037,0.215-0.032,3.052-1.018
	C44.529,22.908,49.105,14,43.034,14z"/>
<path fill="#F89987" d="M41.727,23.796c-0.228,0.135-0.453,0.244-0.675,0.321c-0.149,0.052-0.288,0.108-0.423,0.166
	c-0.588-0.54-1.872-0.376-1.872-0.376l-0.675-0.602c0.027-0.333,0.063-0.66,0.104-0.982L39,23C39,23,40.438,22.264,41.727,23.796z"
	/>
<path fill="#F89987" d="M44.211,21.325c-0.512-1.058-1.273-1.981-3.617-1.981c0,0-1.145-0.923-1.536-0.789
	c-0.107,0.306-0.208,0.622-0.301,0.95c0.538-0.137,1.431,0.897,1.431,0.897s2.156-0.402,3.291,1.861
	C43.733,21.97,43.979,21.655,44.211,21.325z"/>
<path fill="#F89987" d="M42,16.406c0,0-0.956-0.91-1.535-0.677c-0.163,0.227-0.321,0.469-0.473,0.733
	c0.6-0.187,1.492,1.037,1.492,1.037s2.727-0.5,3.932,1.646c0.202-0.486,0.36-0.973,0.46-1.442C44.438,15.691,42,16.406,42,16.406z"
	/>
<path fill="#FFFFFF" d="M46.375,24.292c0,3.167,2.813,3.063,4.625,1.25c0,0,2.417,0.458,2.211-2.542
	c1.206,0,1.818-1.354,1.665-2.701c1.153-0.673,2.123-4.132-1.418-4.132C50.484,16.167,46.375,17.829,46.375,24.292z"/>
<path fill="#F46C60" d="M52.034,14C49.502,14,47,19.027,47,25.135c0,2.037,0.215-0.032,3.052-1.018
	C53.529,22.908,58.105,14,52.034,14z"/>
<path fill="#F89987" d="M50.727,23.796c-0.228,0.135-0.453,0.244-0.675,0.321c-0.149,0.052-0.288,0.108-0.423,0.166
	c-0.588-0.54-1.872-0.376-1.872-0.376l-0.675-0.602c0.027-0.333,0.063-0.66,0.104-0.982L48,23C48,23,49.438,22.264,50.727,23.796z"
	/>
<path fill="#F89987" d="M53.211,21.325c-0.512-1.058-1.273-1.981-3.617-1.981c0,0-1.145-0.923-1.536-0.789
	c-0.107,0.306-0.208,0.622-0.301,0.95c0.538-0.137,1.431,0.897,1.431,0.897s2.156-0.402,3.291,1.861
	C52.733,21.97,52.979,21.655,53.211,21.325z"/>
<path fill="#F89987" d="M51,16.406c0,0-0.956-0.91-1.535-0.677c-0.163,0.227-0.321,0.469-0.473,0.733
	c0.6-0.187,1.492,1.037,1.492,1.037s2.727-0.5,3.932,1.646c0.202-0.486,0.36-0.973,0.46-1.442C53.438,15.691,51,16.406,51,16.406z"
	/>
<path fill="#302C3B" d="M19,15v4c0,1.104,0,2,3,2c2.992,0,3-0.896,3-2v-4H19z"/>
<path fill="#FFFFFF" d="M22,13c-2.055,0-3,0.896-3,2s0,2,3,2c2.992,0,3-0.896,3-2S24.005,13,22,13z"/>
<polygon fill="#F9C802" points="22,14 20.5,15 22,16 23.5,15 "/>
<path fill="#302C3B" d="M19,21v4c0,1.104,0,2,3,2c2.992,0,3-0.896,3-2v-4H19z"/>
<path fill="#FFFFFF" d="M22,19c-2.055,0-3,0.896-3,2s0,2,3,2c2.992,0,3-0.896,3-2S24.005,19,22,19z"/>
<polygon fill="#F9C802" points="22,20 20.5,21 22,22 23.5,21 "/>
<path fill="#F59E01" d="M8.095,23c-1.021,0,6.469-9.484,7.768-7.799C17.16,16.884,8.856,23,8.095,23z"/>
<path fill="#92C932" d="M17.408,17.903c-1.093-1.698-9.404,6.238-8.406,6.351C9.745,24.337,18.501,19.601,17.408,17.903z"/>
<path fill="#92C932" d="M8,17.515c-0.043-1.231,7.462,7.414,6.242,9.046C13.021,28.191,8.033,18.432,8,17.515z"/>
<path fill="#F59E01" d="M16.987,20.79c-0.301-0.683-7.418-5.264-7.962-3.307C8.478,19.438,17.389,21.708,16.987,20.79z"/>
<path fill="#F59E01" d="M8.149,26.185c-1.224-0.125,8.747-6.342,10.126-4.916C19.653,22.696,9.061,26.279,8.149,26.185z"/>
<path fill="#92C932" d="M15.911,25.894c-0.089,1.226-6.599-8.556-5.214-9.975C12.083,14.498,15.977,24.979,15.911,25.894z"/>
</svg>
