<?xml version="1.0" encoding="utf-8"?>
<!-- Generator: Adobe Illustrator 16.2.0, SVG Export Plug-In . SVG Version: 6.00 Build 0)  -->
<!DOCTYPE svg PUBLIC "-//W3C//DTD SVG 1.1//EN" "http://www.w3.org/Graphics/SVG/1.1/DTD/svg11.dtd">
<svg version="1.1" id="Layer_1" xmlns="http://www.w3.org/2000/svg" xmlns:xlink="http://www.w3.org/1999/xlink" x="0px" y="0px"
	 width="64px" height="64px" viewBox="0 0 64 64" enable-background="new 0 0 64 64" xml:space="preserve">
<path fill="#99A8AE" d="M31,2c-0.46,0,0.883,12.482-1.001,12.482C28.116,14.482,29.718,2,28,2c-1.719,0,0.039,12.482-2,12.482
	S25.719,2,23.999,2C22.279,2,23.882,14.482,22,14.482C20.115,14.482,21.46,2,21,2c-1.385,0-3,11.448-3,13.518
	c0,6.207,2.938,8.313,4,9.31c1.06,0.997,1.999,2.069,1.999,4.139C23.999,49.139,20.298,62,26,62s2-12.861,2-33.034
	c0-2.069,0.939-3.142,1.999-4.139C31.06,23.83,34,21.725,34,15.518C33.998,13.448,32.385,2,31,2z"/>
<path fill="#99A8AE" d="M39.75,36.939C39.75,50.243,36,62,41,62s2.5-4.192,2.5-25.061c0-4.174,2.5-5.216,2.5-10.433
	c0-2.22,0-13.559,0-21.913c0-0.942-0.526-3.735-2.5-2.081C41.051,4.567,36,18.552,36,26.507C36,32.244,39.75,33.16,39.75,36.939z"/>
<path fill="#CFD8DD" d="M41,43.379c0,0-2.251,16.553,0,16.553S41,43.379,41,43.379z"/>
<path fill="#CFD8DD" d="M25,43.379c0,0-2.25,16.553,0,16.553C27.249,59.932,25,43.379,25,43.379z"/>
<path fill="#CFD8DD" d="M31.999,16.552c0,0-8.827,6.207-5.067,6.207C28.333,22.759,31.999,19.655,31.999,16.552z"/>
<path fill="#CFD8DD" d="M45.001,26.827c0,0-6.224,6.208-3.147,6.208C43.002,33.035,45.001,29.931,45.001,26.827z"/>
</svg>
