<?xml version="1.0" encoding="utf-8"?>
<!-- Generator: Adobe Illustrator 16.2.0, SVG Export Plug-In . SVG Version: 6.00 Build 0)  -->
<!DOCTYPE svg PUBLIC "-//W3C//DTD SVG 1.1//EN" "http://www.w3.org/Graphics/SVG/1.1/DTD/svg11.dtd">
<svg version="1.1" id="Layer_1" xmlns="http://www.w3.org/2000/svg" xmlns:xlink="http://www.w3.org/1999/xlink" x="0px" y="0px"
	 width="64px" height="64px" viewBox="0 0 64 64" enable-background="new 0 0 64 64" xml:space="preserve">
<path fill="#302C3B" d="M62,57c0-4.982-6.387-5.387-16-15l-4,4c10.396,10.396,11.315,16,15,16C59.604,62,62,59.605,62,57z M59,57
	c0,1.104-0.896,2-2,2s-2-0.896-2-2s0.896-2,2-2S59,55.896,59,57z"/>
<path fill="#1A1626" d="M54,58.334c-8.364-8.364-6.116-13.318-5.659-14.121c-0.022-0.021-0.045-0.04-0.068-0.062
	c-2.148,0.833-3.846,1.857-5.138,3.016C52.446,56.807,53.457,62,57,62c2.604,0,5-2.395,5-5C62,57,59.75,64.084,54,58.334z"/>
<circle fill="#4E5E67" cx="28" cy="28" r="26"/>
<circle fill="#302C3B" cx="28" cy="28" r="24"/>
<circle fill="#4E5E67" cx="28" cy="28" r="20"/>
<path fill="#6E8189" d="M41.618,13.382C44.947,16.954,47,21.732,47,27c0,11.045-8.954,20-20,20c-5.268,0-10.046-2.053-13.618-5.382
	C17.033,45.535,22.223,48,28,48c11.046,0,20-8.955,20-20C48,22.223,45.536,17.033,41.618,13.382z"/>
<path fill="#FFFFFF" d="M27.5,14C21.241,14,14,18.757,14,28c0,8.5,7.083,14,14.5,14C34.558,42,42,37.667,42,28
	C42,17.217,33.924,14,27.5,14z"/>
<circle fill="#F59E01" cx="32" cy="30" r="6"/>
<path fill="#EA8800" d="M34.446,24.525c1.003,2.211,0.614,4.898-1.204,6.717s-4.506,2.207-6.717,1.204
	C27.462,34.539,29.559,36,32,36c3.313,0,6-2.687,6-6C38,27.559,36.539,25.461,34.446,24.525z"/>
<path fill="#FEEC9A" d="M32,25.611c0-1.504-4-0.098-4,2.756C28,30.105,32,27.956,32,25.611z"/>
<path fill="#FFE8BB" d="M15,29c0,0,2,12,13,12c12.5,0,13-12,13-12s-1.617,10.886-13,10C16.75,38.125,15,29,15,29z"/>
</svg>
