<?xml version="1.0" encoding="utf-8"?>
<!-- Generator: Adobe Illustrator 15.0.0, SVG Export Plug-In . SVG Version: 6.00 Build 0)  -->
<!DOCTYPE svg PUBLIC "-//W3C//DTD SVG 1.1//EN" "http://www.w3.org/Graphics/SVG/1.1/DTD/svg11.dtd">
<svg version="1.1" id="Layer_1" xmlns="http://www.w3.org/2000/svg" xmlns:xlink="http://www.w3.org/1999/xlink" x="0px" y="0px"
	 width="64px" height="64px" viewBox="0 0 64 64" enable-background="new 0 0 64 64" xml:space="preserve">
<path fill="#BEC3CF" d="M47.805,5.75C44.111,2.094,32,2,32,2S19.891,2.094,16.195,5.75C14.746,7.186,4.094,32,32,39.5
	C59.906,32,49.254,7.186,47.805,5.75z"/>
<path fill="#E6EBEF" d="M47.07,6.45c-2.775-2.749-11.826-3.417-15.079-3.442c-3.236,0.025-12.289,0.697-15.074,3.453
	c-0.451,0.514-1.826,3.625-2.494,7.595h35.191C48.955,9.947,47.529,6.969,47.07,6.45z"/>
<path fill="#BEC3CF" d="M36.16,56.571c-2.047-2.021-2.531-2.768-2.734-3.946c-0.641-3.696,0-14.063,0-14.063h-2.85
	c0,0,0.48,10.343,0,14.063c-0.154,1.185-0.443,1.685-2.734,3.946c-4.237,0.41-7.241,1.426-7.241,2.616C20.601,60.74,25.703,62,32,62
	c6.297,0,11.401-1.26,11.401-2.813C43.4,57.997,40.396,56.981,36.16,56.571z"/>
<path fill="#8A0404" d="M49.617,14.056H14.425c-0.316,1.46-0.475,3.335-0.475,4.283C13.951,32,27.25,35,32,35
	c4.747,0,18.051-3,18.051-16.66C50.051,16.961,49.822,15.229,49.617,14.056z"/>
<path fill="#FFFFFF" d="M31.525,61.063c-7.769,0,10.84-0.992,6.586-3.023c-3.469-1.654,3.875,0.103,3.875,0.973
	C41.986,59.967,37.938,61.063,31.525,61.063z"/>
<path fill="#99A8AE" d="M40.084,34.643c0-0.518-3.402,1.199-8.569,1.487c-3.461,0.193-5.087-0.799-5.087-0.092
	c0,0.307,3.875,2.002,5.853,2.002C34.365,38.04,40.084,35.476,40.084,34.643z"/>
<path fill="#99A8AE" d="M30.689,54.422c-2.42,2.945-4.467,4.368-4.092,4.406C30.251,59.202,31.792,53.078,30.689,54.422z"/>
<path fill="#C21413" d="M49.615,14.056c0,2.086-7.885,3.779-17.614,3.779s-17.577-1.693-17.577-3.779
	c0-1.445,7.961-3.018,17.577-3.018C41.842,11.038,49.615,12.61,49.615,14.056z"/>
<path fill="#610303" d="M39.02,30.954c0,3.363-14,3.363-14,0C25.02,29.316,39.02,29.316,39.02,30.954z"/>
<path opacity="0.8" fill="#FFFFFF" d="M46.824,9.522c0,0-1.475,0.665-3.936,1.104c0,0,3.145,8.071-0.699,16.983
	c0,0,2.572-0.414,4.23-0.898C46.42,26.711,50.387,19.758,46.824,9.522z"/>
<path fill="#BEC3CF" d="M48,6.699c0,2.106-7.164,3.817-16,3.817c-8.835,0-15.999-1.711-15.999-3.817
	c0-1.493,7.22-3.817,15.999-3.817C40.894,2.882,48,5.206,48,6.699z"/>
<path fill="#F5F5F5" d="M47.031,6.468c0,1.521-6.707,3.243-15.01,3.243c-8.302,0-15.052-1.721-15.052-3.243
	c0-1.403,6.783-3.586,15.031-3.586C40.354,2.882,47.031,5.065,47.031,6.468z"/>
</svg>
