<?xml version="1.0" encoding="utf-8"?>
<!-- Generator: Adobe Illustrator 15.0.0, SVG Export Plug-In . SVG Version: 6.00 Build 0)  -->
<!DOCTYPE svg PUBLIC "-//W3C//DTD SVG 1.1//EN" "http://www.w3.org/Graphics/SVG/1.1/DTD/svg11.dtd">
<svg version="1.1" id="Layer_1" xmlns="http://www.w3.org/2000/svg" xmlns:xlink="http://www.w3.org/1999/xlink" x="0px" y="0px"
	 width="64px" height="64px" viewBox="0 0 64 64" enable-background="new 0 0 64 64" xml:space="preserve">
<path fill="#BEC3CF" d="M33.444,39.38C33.444,37.506,58,23.572,58,17.948c0-4.687-9.63-8.436-26-8.436c-16.371,0-26,3.749-26,8.436
	c0,5.624,24.556,19.558,24.556,21.432c0,0,0.04,13.209-0.963,15.122c-0.497,0.945-1.178,1.599-1.809,2.07
	c-4.294,0.41-7.34,1.426-7.34,2.615C20.444,60.74,25.618,62,32,62c6.382,0,11.556-1.26,11.556-2.813c0-1.189-3.045-2.205-7.34-2.615
	c-0.629-0.472-1.312-1.124-1.809-2.07C33.323,52.432,33.444,40.278,33.444,39.38z"/>
<path fill="#E6EBEF" d="M53.308,21.006c1.767-0.913,2.767-1.954,2.767-3.058c0-3.624-10.776-6.795-24.074-6.795
	c-13.297,0-24.074,3.171-24.074,6.795c0,1.21,1.203,2.343,3.299,3.317L53.308,21.006z"/>
<path fill="#FFFFFF" d="M21.158,11.905l2.474,9.283l5.168-0.031l-0.885-9.9C25.523,11.376,23.253,11.599,21.158,11.905z"/>
<path fill="#F5F5F5" d="M32,13.73c-14.444,0-22.63,3.663-22.63,5.87c0,2.208,10.653,4.908,22.63,4.908
	c12.499,0,22.63-2.7,22.63-4.908C54.63,17.394,46.444,13.73,32,13.73z"/>
<path fill="#F59E01" d="M34.691,23.802C41.22,2.129,41.22,2.129,40.747,2.015c-0.47-0.115-0.47-0.115-7,21.558
	C33.661,23.862,34.61,24.079,34.691,23.802z"/>
<path fill="#F9C802" d="M34.821,20.008c-0.338,1.119-0.694,2.302-1.074,3.564c-0.086,0.29,0.863,0.507,0.945,0.229
	c0.4-1.331,0.777-2.578,1.129-3.751C35.479,20.043,35.146,20.029,34.821,20.008z"/>
<path fill="#A6E639" d="M32,24.509c2.063,0,4.058-0.074,5.954-0.207c-1.912-1.653-5.955-2.73-8.58-1.315
	c-0.451,0.243-0.941,0.749-1.27,1.423C29.38,24.47,30.679,24.509,32,24.509z"/>
<path fill="#E6EBEF" d="M32,26.384c-6.981,0-15.143-0.868-19.259-2.812c0,0,13.568,11.814,19.259,11.814
	s19.259-11.814,19.259-11.814C46.509,25.718,38.872,26.384,32,26.384z"/>
<path fill="#CFD8DD" d="M18.741,26.572c0,0,7.568,6.814,13.259,6.814s13.259-6.814,13.259-6.814
	C40.509,28.718,22.857,28.516,18.741,26.572z"/>
<path fill="#99A8AE" d="M23.035,32.21c-1.345-0.807,6.783,6.006,8.859,6.006c1.188,0,5.233-3.293,4.677-3.036
	C31.212,37.647,30.405,36.626,23.035,32.21z"/>
<path fill="#92C932" d="M32,26.384c-1.39,0-2.827-0.038-4.269-0.11c0.064,0.97,0.521,2.059,1.643,3.15
	c3.682,3.581,8.496,1.777,9.579,0.396c0.873-1.111,0.946-2.457,0.366-3.72C36.89,26.299,34.399,26.384,32,26.384z"/>
<path fill="#7AB51D" d="M39.419,26.339c-0.076,0.595-0.315,1.172-0.748,1.695c-1.141,1.381-6.207,3.185-10.08-0.396
	c-0.305-0.282-0.561-0.564-0.777-0.845c0.174,0.831,0.641,1.729,1.566,2.631c3.681,3.581,8.496,1.777,9.578,0.396
	C39.776,28.778,39.885,27.53,39.419,26.339z"/>
<path fill="#E81C27" d="M38.716,26.306c1.153,0.546,0.561,3.71-0.963,3.332C36.52,29.332,37.271,25.623,38.716,26.306z"/>
<path fill="#FFFFFF" d="M47.353,24.88c-1.758,0.438-3.691,0.762-5.708,0.995c-2.046,3.323-3.839,5.764-3.519,5.793
	C38.642,31.714,42.814,28.669,47.353,24.88z"/>
<path fill="#F59E01" d="M32.603,28.98c-0.969,3.584-1.506,5.806-1.37,5.839c0.138,0.032,0.885-2.058,2.062-5.726
	C33.188,28.863,32.772,28.814,32.603,28.98z"/>
<path fill="#FFFFFF" d="M32.118,60.908c-7.481,0,10.439-0.93,6.342-2.833c-3.339-1.551,3.731,0.096,3.731,0.911
	C42.191,59.882,38.294,60.908,32.118,60.908z"/>
<path fill="#99A8AE" d="M30.712,54.489c-2.33,2.761-4.301,4.095-3.941,4.13C30.29,58.97,31.774,53.23,30.712,54.489z"/>
</svg>
