<?xml version="1.0" encoding="utf-8"?>
<!-- Generator: Adobe Illustrator 16.2.0, SVG Export Plug-In . SVG Version: 6.00 Build 0)  -->
<!DOCTYPE svg PUBLIC "-//W3C//DTD SVG 1.1//EN" "http://www.w3.org/Graphics/SVG/1.1/DTD/svg11.dtd">
<svg version="1.1" id="Layer_1" xmlns="http://www.w3.org/2000/svg" xmlns:xlink="http://www.w3.org/1999/xlink" x="0px" y="0px"
	 width="64px" height="64px" viewBox="0 0 64 64" enable-background="new 0 0 64 64" xml:space="preserve">
<path fill="#E6EBEF" d="M24,18.875C24,17,28.98,14.5,28.98,7c0-4.064-8.063-5-10.98-5S7.02,2.936,7.02,7c0,7.5,4.98,10,4.98,11.875
	c0,2.266-8,7.188-8,26.25C4,54.891,5.958,62,18,62s14-7.109,14-16.875C32,26.063,24,21.141,24,18.875z"/>
<path fill="#CFD8DD" d="M7.614,45.123c0-19.063,8-23.984,8-26.25c0-1.488-3.143-3.373-4.436-7.846C7.288,9.387,7.02,7,7.02,7
	c0,7.5,4.98,10,4.98,11.875c0,2.266-8,7.188-8,26.25C4,54.891,5.958,62,18,62c4.485,0,7.57-0.988,9.677-2.73
	C14.58,62,7.614,54.641,7.614,45.123z"/>
<path fill="#E6EBEF" d="M48,34c-3.333,0-12,0.313-12,7.294C36,55.088,36.938,62,48,62s12-6.912,12-20.706C60,34.628,51,34,48,34z"/>
<path fill="#CFD8DD" d="M38.538,42.773c-1.431-1.016-2.538-2.645-1.991-4.211c0,0-0.547,1.188-0.547,2.731
	C36,55.088,36.938,62,48,62c4.577,0,7.418-1.188,9.18-3.551C48.042,63.738,38.538,56.408,38.538,42.773z"/>
<path fill="#CFD8DD" d="M18,2.938c-11.992,0-13.324,7.5,0,7.5S29.992,2.938,18,2.938z"/>
<path fill="#BEC3CF" d="M19.161,2.963c3.831,1.123,5.798,3.883,5.624,6.516C29.963,7.543,27.544,3.32,19.161,2.963z"/>
<path fill="#CFD8DD" d="M48,34.934c-11.992,0-13.324,7.467,0,7.467S59.992,34.934,48,34.934z"/>
<path fill="#BEC3CF" d="M49.161,34.959c3.83,1.118,5.797,3.865,5.623,6.486C59.963,39.52,57.544,35.314,49.161,34.959z"/>
<path fill="#FFFFFF" d="M48,42.54c4.141,0,6.719-0.812,8.188-1.772C54,39.367,49.667,38.911,48,38.911
	c-1.676,0-6.063,0.387-8.24,1.819C41.109,41.7,43.813,42.54,48,42.54z"/>
<path fill="#D74189" d="M20.019,36.719c0-1.844-0.692-2.719-1.007-2.719c0,0-0.52,1.373-1.009,1.813
	C17.495,35.354,16.994,34,16.994,34c-0.315,0-1.01,0.643-1.01,2.719c0,2.739,2.018,3.627,2.018,3.627S20.019,39.458,20.019,36.719z"
	/>
<path fill="#D74189" d="M13.417,38.676c-1.673-0.57-2.681-0.15-2.778,0.163c0,0,1.085,0.943,1.332,1.565
	c-0.573,0.365-1.955,0.445-1.955,0.445c-0.098,0.313,0.27,1.207,2.154,1.849c2.485,0.847,3.914-0.892,3.914-0.892
	S15.901,39.521,13.417,38.676z"/>
<path fill="#D74189" d="M13.15,45.861c-1.034,1.494-0.965,2.628-0.71,2.822c0,0,1.192-0.791,1.832-0.845
	c0.155,0.685-0.2,2.087-0.2,2.087c0.255,0.194,1.178,0.104,2.343-1.578c1.536-2.215,0.4-4.177,0.4-4.177S14.686,43.646,13.15,45.861
	z"/>
<path fill="#D74189" d="M19.589,48.35c1.034,1.491,2.084,1.772,2.339,1.58c0,0-0.35-1.434-0.199-2.088
	c0.668,0.057,1.832,0.844,1.832,0.844c0.254-0.193,0.457-1.144-0.708-2.822c-1.535-2.217-3.665-1.69-3.665-1.69
	S18.053,46.134,19.589,48.35z"/>
<path fill="#D74189" d="M23.833,42.698c1.674-0.57,2.253-1.53,2.156-1.845c0,0-1.407-0.095-1.955-0.446
	c0.258-0.648,1.332-1.565,1.332-1.565c-0.097-0.314-0.896-0.809-2.779-0.166c-2.485,0.846-2.667,3.131-2.667,3.131
	S21.349,43.545,23.833,42.698z"/>
<path fill="#D74189" d="M28.238,11.65c0.281-0.818,0.503-1.729,0.628-2.748c-0.677,1.295-3.038,4.361-10.866,4.361
	c-7.734,0-10.184-2.975-10.86-4.295c0.129,1.01,0.353,1.912,0.635,2.725C9.646,13.519,12.82,15,18,15
	C23.22,15,26.324,13.492,28.238,11.65z"/>
</svg>
