<?xml version="1.0" encoding="utf-8"?>
<!-- Generator: Adobe Illustrator 15.0.0, SVG Export Plug-In . SVG Version: 6.00 Build 0)  -->
<!DOCTYPE svg PUBLIC "-//W3C//DTD SVG 1.1//EN" "http://www.w3.org/Graphics/SVG/1.1/DTD/svg11.dtd">
<svg version="1.1" id="Layer_1" xmlns="http://www.w3.org/2000/svg" xmlns:xlink="http://www.w3.org/1999/xlink" x="0px" y="0px"
	 width="64px" height="64px" viewBox="0 0 64 64" enable-background="new 0 0 64 64" xml:space="preserve">
<path fill="#CFD8DD" d="M48.134,10.641l0.547,6.244c0,0,0.693-1.772,1.107-1.986c0.69-0.354,4.496-0.61,5.104-0.379
	c1.187,0.455,3.819,9.932,3.248,16.424c-0.127,1.433-3.137,2.995-5.454,4.134c-1.162,0.573-2.564-1.719-2.564-1.719l1.579,9.347
	c0,0,0.804-2.413,1.357-3.099c1.641-2.024,7.072-3.929,8.383-6.604c1.753-3.575-0.963-17.33-3.306-20.135
	c-1.891-2.265-3.478-1.579-8.654-1.216C48.754,11.701,48.134,10.641,48.134,10.641z"/>
<path fill="#99A8AE" d="M53.885,34.853c0.227-0.292,4.826-2.206,4.934-3.457c0.672-7.842-2.224-17.192-3.752-17.733
	c-1.338-0.475-6.183,1.395-6.68-0.979l0.438,4.14c0.188-0.908,0.909-1.805,0.997-1.849c0.69-0.354,4.458-0.596,5.065-0.364
	c1.188,0.454,3.775,9.839,3.253,16.333C58.024,32.368,53.92,34.752,53.885,34.853z"/>
<path fill="#99A8AE" d="M51.108,40.194c-0.119,0.149,0.727,2.241,0.592,2.511c0.021-0.028,0.98-2.638,1.624-3.306
	c1.781-1.851,7.139-3.76,7.665-6.48C59.073,35.852,52.644,38.299,51.108,40.194z"/>
<path fill="#F5F5F5" d="M23.583,9.985c-0.808-2.335,1.853-1.871,2.381-2.169c0.937-0.529,1.427-2.234,3.941-2.85
	c2.394-0.586,3.477,0.829,4.28,0.082c1.663-1.557,3.939-0.435,5.357-0.56c1.147-0.101,1.938-3.073,4.409-2.387
	c1.639,0.453,1.081,1.937,2.822,2.4c1.8,0.481,2.121,1.932,1.685,3.305L23.583,9.985z"/>
<path fill="#FFFFFF" d="M24.567,8.735c0,0,1.986,0.099,2.456-0.509C27.491,7.619,25.257,8.424,24.567,8.735z"/>
<path fill="#FFFFFF" d="M40.327,4.578c0,0,2.464-2.722,2.22-1.767C42.146,4.385,40.327,4.578,40.327,4.578z"/>
<path fill="#FFFFFF" d="M28.667,7.475c1.915-0.351,1.798,0.241,3.828,0.063c2.577-0.226,3.03-1.696,5.767-1.699
	c0,0-2.882-0.911-6.49,0.914c0,0-0.05-0.389,0.765-1.137C30.509,5.92,30.208,6.938,28.667,7.475z"/>
<path fill="#CFD8DD" d="M51.195,36.105c-0.828-9.466-2.49-28.458-2.49-28.458C48.621,6.67,23.25,8.89,23.336,9.866
	c0,0,1.659,18.993,2.488,28.46c0.202,2.318-0.665,9.301-0.665,9.301c0.254,2.908,28.561,0.432,28.306-2.476
	C53.466,45.151,51.399,38.425,51.195,36.105z"/>
<path fill="#D47706" d="M24.721,16.188c0,0,3.12,25.021,4.104,25.415l0.013-0.001c0.867,0.9,5.527,0.976,10.107,0.565
	c4.578-0.391,9.152-1.274,9.851-2.312l0.014-0.001c0.901-0.56-0.372-25.741-0.372-25.741C48.222,13.079,24.754,15.132,24.721,16.188
	z"/>
<path fill="#EA8800" d="M26.638,16.057c0,0,2.803,23.912,3.634,24.304l0.01-0.001c0.81,0.851,4.715,0.972,8.559,0.635
	c3.843-0.338,7.669-1.134,8.316-2.11l0.012-0.002c0.752-0.528-0.642-24.564-0.642-24.564C46.478,14.05,26.643,15.785,26.638,16.057z
	"/>
<path fill="#F59E01" d="M28.077,19.28c0,0,1.884,16.809,2.922,20.588c1.431-0.303,4.559-0.657,7.664-0.918
	c3.103-0.281,6.243-0.476,7.708-0.428c0.363-3.901-0.698-20.782-0.698-20.782C45.481,16.771,28.096,18.291,28.077,19.28z"/>
<path fill="#E6EBEF" d="M24.189,10.102c0,0,0.233,2.666,0.565,6.452c8.728-1.021,14.943-1.564,23.715-2.074
	c-0.331-3.786-0.564-6.454-0.564-6.454C47.84,7.285,24.124,9.359,24.189,10.102z"/>
<path fill="#99A8AE" d="M29.301,44.213c9.373,2.251,11.206,2.7,21.026-2.586C42.651,43.438,36.686,44.598,29.301,44.213z"/>
<path fill="#99A8AE" d="M32.832,46.004c6.108,1.492,12.638,0.183,18.469-3.058C45.083,43.929,39.159,45.668,32.832,46.004z"/>
<path opacity="0.5" fill="#FFFFFF" d="M43.563,7.989c1.305,14.922,1.965,29.054,3.867,38.781c0.089,0.459,3.293-0.313,3.157-0.763
	c-3.634-12.211-3.18-22.104-4.577-38.113C45.985,7.615,43.539,7.711,43.563,7.989z"/>
<path fill="#0FB4D4" d="M5.246,10.595c-2.069,3.584,8.134,5.072,8.296,4.788C13.707,15.1,7.318,7.005,5.246,10.595z"/>
<path fill="#0FB4D4" d="M20.132,2c4.137,0.001,0.325,9.579-0.002,9.579C19.802,11.579,15.988,2,20.132,2z"/>
<path fill="#0FB4D4" d="M11.543,4.313c-3.588,2.071,4.506,8.459,4.788,8.296C16.615,12.444,15.13,2.242,11.543,4.313z"/>
<path fill="#CFD8DD" d="M15.866,23.714l-0.546,6.244c0,0-0.694-1.772-1.108-1.986c-0.689-0.354-4.496-0.61-5.104-0.379
	c-1.186,0.455-3.819,9.932-3.247,16.424c0.126,1.433,3.137,2.995,5.453,4.134c1.163,0.573,2.565-1.719,2.565-1.719l-1.58,9.347
	c0,0-0.803-2.413-1.357-3.1c-1.641-2.023-7.072-3.928-8.383-6.604C0.807,42.5,3.523,28.745,5.866,25.94
	c1.89-2.265,3.477-1.579,8.654-1.216C15.246,24.774,15.866,23.714,15.866,23.714z"/>
<path fill="#99A8AE" d="M10.116,47.926c-0.228-0.292-4.826-2.206-4.934-3.458C4.51,36.627,7.406,27.276,8.933,26.735
	c1.338-0.475,6.184,1.395,6.68-0.979l-0.438,4.14c-0.188-0.908-0.909-1.805-0.997-1.849c-0.689-0.354-4.457-0.596-5.064-0.364
	c-1.188,0.454-3.776,9.839-3.253,16.333C5.976,45.441,10.081,47.825,10.116,47.926z"/>
<path fill="#99A8AE" d="M12.891,53.268c0.121,0.149-0.726,2.241-0.592,2.511c-0.021-0.028-0.979-2.638-1.623-3.306
	c-1.782-1.851-7.14-3.76-7.665-6.48C4.927,48.925,11.356,51.372,12.891,53.268z"/>
<path fill="#F5F5F5" d="M40.416,23.059c0.809-2.335-1.853-1.871-2.38-2.169c-0.937-0.529-1.428-2.234-3.941-2.85
	c-2.394-0.586-3.478,0.829-4.28,0.082c-1.663-1.557-3.939-0.435-5.358-0.56c-1.147-0.101-1.938-3.073-4.409-2.387
	c-1.638,0.453-1.081,1.937-2.822,2.4c-1.799,0.48-2.121,1.931-1.684,3.305L40.416,23.059z"/>
<path fill="#FFFFFF" d="M39.433,21.809c0,0-1.986,0.099-2.455-0.509C36.51,20.692,38.743,21.497,39.433,21.809z"/>
<path fill="#FFFFFF" d="M23.673,17.651c0,0-2.464-2.722-2.221-1.767C21.854,17.458,23.673,17.651,23.673,17.651z"/>
<path fill="#FFFFFF" d="M35.332,20.548c-1.915-0.351-1.797,0.241-3.828,0.063c-2.576-0.226-3.029-1.696-5.768-1.699
	c0,0,2.883-0.911,6.489,0.914c0,0,0.051-0.389-0.764-1.137C33.49,18.993,33.792,20.011,35.332,20.548z"/>
<path fill="#CFD8DD" d="M12.805,49.179c0.828-9.466,2.489-28.458,2.489-28.458c0.085-0.978,25.455,1.242,25.37,2.219
	c0,0-1.66,18.993-2.488,28.46c-0.203,2.318,0.665,9.301,0.665,9.301c-0.255,2.908-28.561,0.432-28.306-2.476
	C10.535,58.225,12.601,51.498,12.805,49.179z"/>
<path fill="#D47706" d="M39.278,29.261c0,0-3.12,25.021-4.104,25.415l-0.013-0.001c-0.867,0.9-5.527,0.976-10.106,0.565
	c-4.579-0.391-9.153-1.274-9.852-2.312l-0.013-0.001c-0.901-0.56,0.371-25.741,0.371-25.741
	C15.778,26.152,39.245,28.205,39.278,29.261z"/>
<path fill="#EA8800" d="M37.361,29.13c0,0-2.802,23.912-3.634,24.304l-0.01-0.001c-0.809,0.851-4.714,0.972-8.559,0.635
	c-3.843-0.338-7.669-1.134-8.316-2.111l-0.011-0.001c-0.752-0.528,0.641-24.564,0.641-24.564
	C17.523,27.123,37.357,28.858,37.361,29.13z"/>
<path fill="#F59E01" d="M35.924,32.354c0,0-1.885,16.809-2.922,20.588c-1.432-0.303-4.559-0.657-7.665-0.918
	c-3.103-0.281-6.243-0.477-7.707-0.428c-0.364-3.901,0.698-20.782,0.698-20.782C18.519,29.844,35.904,31.364,35.924,32.354z"/>
<path fill="#E6EBEF" d="M39.811,23.175c0,0-0.232,2.666-0.565,6.451c-8.727-1.02-14.942-1.563-23.715-2.073
	c0.332-3.786,0.565-6.454,0.565-6.454C16.16,20.358,39.876,22.433,39.811,23.175z"/>
<path fill="#D47706" d="M26.201,47.237c-0.225,2.549,3.601,2.883,3.825,0.335C30.249,45.022,26.422,44.688,26.201,47.237z"/>
<path fill="#D47706" d="M29.593,41.484c-0.133,1.528,2.163,1.729,2.295,0.2C32.023,40.155,29.728,39.953,29.593,41.484z"/>
<path fill="#D47706" d="M26.352,38.888c-0.179,2.039,2.882,2.307,3.061,0.269C29.59,37.115,26.531,36.849,26.352,38.888z"/>
<path fill="#D47706" d="M30.553,34.919c-0.088,1.02,1.442,1.153,1.531,0.135C32.174,34.033,30.643,33.899,30.553,34.919z"/>
<path fill="#99A8AE" d="M14.204,54.732c8.873,4.223,10.605,5.057,21.555,2.015C27.703,56.858,21.494,56.703,14.204,54.732z"/>
<path fill="#99A8AE" d="M17.341,57.244c5.776,2.776,12.581,2.907,19.105,1.002C30.025,57.863,23.733,58.282,17.341,57.244z"/>
<path opacity="0.5" fill="#FFFFFF" d="M35.434,22.344c-1.306,14.921-3.111,28.953-2.926,38.863c0.008,0.468,3.297,0.263,3.242-0.202
	c-1.458-12.657,0.707-22.321,2.111-38.329C37.883,22.396,35.458,22.065,35.434,22.344z"/>
</svg>
