<?xml version="1.0" encoding="utf-8"?>
<!-- Generator: Adobe Illustrator 16.2.0, SVG Export Plug-In . SVG Version: 6.00 Build 0)  -->
<!DOCTYPE svg PUBLIC "-//W3C//DTD SVG 1.1//EN" "http://www.w3.org/Graphics/SVG/1.1/DTD/svg11.dtd">
<svg version="1.1" id="Layer_1" xmlns="http://www.w3.org/2000/svg" xmlns:xlink="http://www.w3.org/1999/xlink" x="0px" y="0px"
	 width="64px" height="64px" viewBox="0 0 64 64" enable-background="new 0 0 64 64" xml:space="preserve">
<g>
	<g>
		<circle fill="#E6EBEF" cx="32.75" cy="32" r="22"/>
		<g>
			<path fill="#BEC3CF" d="M32.748,17.08c-8.647,0-15.674,6.633-15.969,14.92c-0.006-0.18-0.031-0.358-0.031-0.539
				c0-8.54,7.164-15.461,16-15.461c8.838,0,16,6.921,16,15.461c0,0.181-0.021,0.359-0.025,0.539
				C48.423,23.713,41.396,17.08,32.748,17.08z"/>
			<path fill="#FFFFFF" d="M32.748,46.92c8.648,0,15.675-6.633,15.975-14.92c0.006,0.18,0.025,0.357,0.025,0.539
				c0,8.54-7.162,15.461-16,15.461c-8.837,0-16-6.921-16-15.461c0-0.182,0.025-0.359,0.031-0.539
				C17.074,40.287,24.101,46.92,32.748,46.92z"/>
		</g>
	</g>
</g>
<path fill="#99A8AE" d="M10.333,7c-0.384,0,0.513,11.667-0.642,11.667C8.538,18.667,9.208,7,8.154,7C7.1,7,8.25,18.667,7,18.667
	S6.9,7,5.846,7C4.792,7,5.462,18.667,4.308,18.667C3.154,18.667,4.051,7,3.667,7C2.512,7,2,18.667,2,20.333
	c0,2.892,1.424,4.197,2.308,5C5.191,26.137,5.846,27,5.846,28.667C5.846,44.917,2.248,57,7,57s1.154-12.083,1.154-28.333
	c0-1.667,0.655-2.53,1.538-3.333c0.884-0.803,2.308-2.108,2.308-5C12,18.667,11.488,7,10.333,7z"/>
<path fill="#CFD8DD" d="M6,42c0,0-2,13.333,0,13.333S6,42,6,42z"/>
<path fill="#CFD8DD" d="M11.167,19.5c0,0-5.185,5-2.622,5C9.501,24.5,11.167,22,11.167,19.5z"/>
<path fill="#99A8AE" d="M58,35.146C58,45.863,55,57,59,57c5,0,2-5.043,2-21.854c0-3.363,1-4.203,1-8.405c0-1.787,0-10.922,0-17.651
	c0-0.759-0.422-3.009-2-1.677c-1.959,1.655-4,17.332-4,19.328C56,31.364,58,32.101,58,35.146z"/>
<path fill="#CFD8DD" d="M59,42c0,0-2.25,13.333,0,13.333S59,42,59,42z"/>
<path fill="#CFD8DD" d="M61,26c0,0-3.111,6-1.573,6C60.001,32,61,29,61,26z"/>
</svg>
