<?xml version="1.0" encoding="utf-8"?>
<!-- Generator: Adobe Illustrator 15.0.0, SVG Export Plug-In . SVG Version: 6.00 Build 0)  -->
<!DOCTYPE svg PUBLIC "-//W3C//DTD SVG 1.1//EN" "http://www.w3.org/Graphics/SVG/1.1/DTD/svg11.dtd">
<svg version="1.1" id="Layer_1" xmlns="http://www.w3.org/2000/svg" xmlns:xlink="http://www.w3.org/1999/xlink" x="0px" y="0px"
	 width="64px" height="64px" viewBox="0 0 64 64" enable-background="new 0 0 64 64" xml:space="preserve">
<path fill="#E5BC5E" d="M15.34,27.179c-1.203-6.167,6.876-6.055,6.876,2.611c0,0-6.71-1.529-4.901,1.535
	C17.314,31.326,13.208,30.771,15.34,27.179z"/>
<path fill="#014F27" d="M16.894,17.975c1.07-1.219,2.553-2.036,3.62-2.124c1.355-0.108,2.426,0.847,3.109,1.459
	c0.537,0.482,1.742,0.147,3.09,1.441c1.09,1.048,0.433,2.642,1.818,4.115c0.404,0.433,5.769,6.282,9.81,8.121
	c2.879,1.311,10.409,1.546,17.383,8.249c6.043,5.813,6.246,12.051,6.274,12.817c0.064,1.858-1.389,3.989-3.188,5.979
	s-4.007,3.896-5.807,3.959c-0.742,0.025-6.794,0.252-12.837-5.56c-6.973-6.705-7.645-14.483-9.192-17.308
	c-2.181-3.979-7.687-9.046-8.132-9.433c-1.522-1.319-3.428-0.624-4.518-1.671c-1.346-1.296-1.105-2.561-1.608-3.077
	c-0.642-0.664-1.579-1.698-1.628-3.101C15.063,21.238,15.533,19.524,16.894,17.975z"/>
<path fill="#E5BC5E" d="M36.396,36.266c-2.342,0.048-4.598,0.33-6.764,0.79c-2.707-3.448-7.061-6.928-7.417-7.265
	c-8.313-2.078-3.335-2.782-1.479-2.848c1.857-0.065,2.629,0.784,2.629,0.784s1.443-1.775,2.793-1.894c0,0,0.166-4.643-0.587-6.072
	c-0.436-0.827-1.884-2.46-1.884-2.46c0.537,0.481,1.742,0.147,3.09,1.441c1.09,1.048,0.606,2.342,1.99,3.815
	c0.349,0.371,5.439,5.909,7.924,7.468C36.689,30.026,36.396,31.875,36.396,36.266z"/>
<path fill="#1A1626" d="M20.941,17.356c0.641,1.285-3.127,6.081-4.554,5.071C14.654,21.204,19.945,15.35,20.941,17.356z"/>
<path fill="#E5BC5E" d="M29.849,23.821c0,0-3.63-5.431,0.488-6.02c0,0-0.624-1.269-2.646-1.265c0,0,0.234-0.95,0.963-1.358
	c0,0-3.56-1.273-5.029,2.132L29.849,23.821z"/>
<path fill="#C49A45" d="M23.625,17.31c0,0,1.523-1.317,3.6-0.507c0,0-1.404,1.288-1.115,5.671
	C26.109,22.474,25.611,19.376,23.625,17.31z"/>
<path fill="#FFE1BD" d="M16.541,21.089c-4.299-0.376-4.378,5.878-6.626,2.985C5.81,26.295,6.221,18.301,16.541,21.089z"/>
<path fill="#FFE1BD" d="M20.168,16.524c-1.222-1.692-1.138-4.597,0.318-4.267C21.977,12.596,19.752,14.286,20.168,16.524z"/>
<path fill="#FFE1BD" d="M18.922,18.141C15.846,14.377,16.875,7.93,18.33,8.26C19.821,8.598,17.686,14.286,18.922,18.141z"/>
<path fill="#FFE1BD" d="M18.213,19.376c-6.685-6.314-5.398-11.361-3.943-11.031C15.76,8.684,15.178,14.61,18.213,19.376z"/>
<path fill="#FFE1BD" d="M10.545,16.599c-1.481-0.872-4.281,0.099-3.372,1.143C7.864,18.534,8.864,16.876,10.545,16.599z"/>
<path fill="#FFE1BD" d="M15.968,17.875c-4.836-6.176-9.591-4.427-9.293-3.072C7.043,16.475,11.748,14.316,15.968,17.875z"/>
<path fill="#FFE1BD" d="M17.246,20.271c-3.314-5.326-10.395-2.058-9.501-0.484C8.591,21.275,12.656,16.524,17.246,20.271z"/>
<path fill="#C49A45" d="M29.894,24.223c0,0-3.587-1.157-3.737,1.608C23.037,24.36,26.613,18.331,29.894,24.223z"/>
<path fill="#E5BC5E" d="M49.699,36.259c-2.244,6.182-6.306,11.301-12.125,15.294c2.552,4.025,7.148,6.858,7.148,6.858
	c6.316-4.818,10.219-10.368,12.619-15.547C57.342,42.865,49.699,36.259,49.699,36.259z"/>
<path fill="#FFE8BB" d="M56.222,45.09c0.404-0.747,0.778-1.491,1.12-2.226c0,0.001-3.082-4.471-7.643-6.605
	c-0.295,0.813-0.627,1.606-0.984,2.383C52.206,40.563,54.88,43.455,56.222,45.09z"/>
<path fill="#967668" d="M8.362,13.059c-1.229,0.142-4.23-3.975-4.23-3.975L8.77,3.457c0,0,4.278,3.065,4.424,4.007
	C13.421,8.931,10.916,12.764,8.362,13.059z"/>
<path fill="#AB8A7B" d="M10,2.529c3.037,2.74-4.106,11.23-7.529,7.326C0.119,7.178,7.204,0.006,10,2.529z"/>
<path fill="#529320" d="M47.955,37.929c-3.255-1.043-7.08-1.639-10.82-1.668c-0.038-2.11,0.117-4.611,0.117-4.611
	s1.952,1.025,5.698,1.882c3.597,0.823,6.088,2.259,6.088,2.259C48.697,36.516,48.336,37.228,47.955,37.929z"/>
<path fill="#529320" d="M60.24,54.197c0,0-0.781-4.274-3.268-8.143c0.377-0.648,0.725-1.296,1.051-1.938
	c0.82,1.598,2.687,5.138,3.08,8.276C61.104,52.393,60.906,53.256,60.24,54.197z"/>
<path fill="#529320" d="M21.142,20.924c0.888,0.89,2.501-2.781,1.368-3.174c-0.246-0.086-0.239,0.493-0.484,1.233
	C21.674,20.044,20.957,20.743,21.142,20.924z"/>
<path fill="#C49A45" d="M16.504,24.719c0,0-2.073,6.523,5.458,2.326C21.962,27.045,18.375,26.698,16.504,24.719z"/>
<path fill="#C49A45" d="M26.154,25.833c0,0-2.529,1.011-1.49,4.761C24.664,30.594,18.491,25.833,26.154,25.833"/>
</svg>
