<?xml version="1.0" encoding="utf-8"?>
<!-- Generator: Adobe Illustrator 16.2.0, SVG Export Plug-In . SVG Version: 6.00 Build 0)  -->
<!DOCTYPE svg PUBLIC "-//W3C//DTD SVG 1.1//EN" "http://www.w3.org/Graphics/SVG/1.1/DTD/svg11.dtd">
<svg version="1.1" id="Layer_1" xmlns="http://www.w3.org/2000/svg" xmlns:xlink="http://www.w3.org/1999/xlink" x="0px" y="0px"
	 width="64px" height="64px" viewBox="0 0 64 64" enable-background="new 0 0 64 64" xml:space="preserve">
<path fill="#CAE8F0" d="M28.722,14.142l-14.58,14.58c-1.604,1.604-1.604,4.229,0,5.832l26.243,26.243
	c1.604,1.604,4.228,1.604,5.832,0l14.579-14.579c1.604-1.604,1.604-4.228,0-5.832L34.554,14.142
	C32.95,12.539,30.326,12.539,28.722,14.142z"/>
<path fill="#A0D8E9" d="M14.143,34.554l26.243,26.243c1.604,1.604,4.228,1.604,5.832,0l14.579-14.579
	c-41.865,0-41.865-22.285-41.865-22.285l-4.789,4.789C12.539,30.326,12.539,32.95,14.143,34.554z"/>
<path opacity="0.5" fill="#FFFFFF" d="M22,39l20,20c0.803,0.801,1.958,0.977,2.76,0.174l14.579-14.497
	C60.591,43.425,60.584,42.584,59,41l-2-2H22z"/>
<path fill="#F9B700" d="M13.812,8.33c-2.353,1.122-2.452-2.453-5.193-5.194c-1.514-1.514-3.968-1.515-5.483,0
	c-1.515,1.514-1.515,3.969,0,5.482c2.741,2.742,6.315,2.84,5.193,5.194c-1.543,3.239-1.804,6.422-0.396,7.83
	c5.117,5.117,4.409-1.667,8.226-5.483c3.816-3.816,9.998-3.711,5.483-8.225C20.234,6.526,17.052,6.787,13.812,8.33z"/>
<path fill="#FFFFFF" d="M57,39c-1.147-1.096-10.507-2-20-2c-9.32,0-16.147,0.903-15,2c1.147,1.096,9.679,2,19,2
	C50.167,41,58.146,40.097,57,39z"/>
<path fill="#F59E01" d="M16.33,20.871c-11.948,0-4.569-9.195-5.87-10.496C9.552,9.467,4.601,11.955,2,5.877l0,0
	C2,6.87,2.378,7.862,3.136,8.619c2.741,2.742,6.315,2.84,5.193,5.194c-1.543,3.239-1.804,6.422-0.396,7.83
	c3.388,3.388,4.223,6.559,5.507,3.829C13.564,24.474,16.33,20.871,16.33,20.871z"/>
<path fill="#0FB4D4" d="M8.311,22.89c-0.802,0.802-0.802,2.114,0,2.917l2.915,2.916c0.802,0.802,2.115,0.802,2.917,0l14.58-14.58
	c0.801-0.801,0.802-2.114,0-2.916l-2.917-2.916c-0.802-0.802-2.114-0.801-2.916,0L8.311,22.89z"/>
<path fill="#FFE12C" d="M7.477,3.371C6.473,2.385,5.396,3.567,6.404,4.557C7.485,5.617,8.725,4.595,7.477,3.371z"/>
<path fill="#018BC9" d="M8.311,22.89c-0.802,0.802-0.802,2.114,0,2.917l2.915,2.916c0.802,0.802,2.115,0.802,2.917,0l6.083-6.083
	c-3.269,3.269-8.25-3.413-5.864-5.799L8.311,22.89z"/>
<path fill="#006DAE" d="M11.137,22.574c-0.232,0.231-0.292,0.548,1.225,2.064s1.833,1.458,2.065,1.225
	c0.23-0.232,0.292-0.547-1.226-2.064C11.684,22.282,11.369,22.343,11.137,22.574z"/>
<path fill="#006DAE" d="M14.219,19.492c-0.232,0.231-0.291,0.548,1.225,2.064c1.516,1.517,1.833,1.458,2.064,1.226
	c0.232-0.232,0.292-0.546-1.226-2.064C14.765,19.201,14.451,19.259,14.219,19.492z"/>
<path fill="#006DAE" d="M17.287,16.423c-0.239,0.24-0.304,0.562,1.213,2.077c1.517,1.517,1.838,1.452,2.077,1.213
	c0.239-0.239,0.304-0.562-1.213-2.077C17.849,16.119,17.526,16.184,17.287,16.423z"/>
<path fill="#006DAE" d="M20.382,13.329c-0.232,0.231-0.292,0.547,1.226,2.064c1.517,1.518,1.833,1.458,2.064,1.226
	c0.232-0.231,0.292-0.548-1.225-2.065C20.93,13.037,20.613,13.096,20.382,13.329z"/>
<path fill="#006DAE" d="M23.463,10.247c-0.23,0.232-0.292,0.546,1.226,2.064s1.832,1.457,2.064,1.226
	c0.233-0.231,0.292-0.548-1.225-2.065C24.012,9.955,23.695,10.014,23.463,10.247z"/>
<path opacity="0.5" fill="#FFFFFF" d="M52,36c0,0-27-9.482-27-14c0-1.687,5.167-7,7-7C34.684,15,52,36,52,36z"/>
<rect x="44.457" y="50.113" transform="matrix(-0.7073 -0.7069 0.7069 -0.7073 39.3261 124.7543)" fill="#A0D8E9" width="2.063" height="8.247"/>
<rect x="40.084" y="45.738" transform="matrix(-0.7071 -0.7071 0.7071 -0.7071 34.9293 114.1928)" fill="#A0D8E9" width="2.062" height="8.248"/>
<rect x="35.71" y="41.365" transform="matrix(-0.7071 -0.7071 0.7071 -0.7071 30.5553 103.633)" fill="#A0D8E9" width="2.062" height="8.247"/>
<rect x="31.337" y="36.991" transform="matrix(-0.707 -0.7072 0.7072 -0.707 26.1735 93.0735)" fill="#A0D8E9" width="2.062" height="8.248"/>
<rect x="26.962" y="32.617" transform="matrix(-0.707 -0.7072 0.7072 -0.707 21.7996 82.5133)" fill="#A0D8E9" width="2.062" height="8.248"/>
</svg>
