<?xml version="1.0" encoding="utf-8"?>
<!-- Generator: Adobe Illustrator 16.2.0, SVG Export Plug-In . SVG Version: 6.00 Build 0)  -->
<!DOCTYPE svg PUBLIC "-//W3C//DTD SVG 1.1//EN" "http://www.w3.org/Graphics/SVG/1.1/DTD/svg11.dtd">
<svg version="1.1" id="Layer_1" xmlns="http://www.w3.org/2000/svg" xmlns:xlink="http://www.w3.org/1999/xlink" x="0px" y="0px"
	 width="64px" height="64px" viewBox="0 0 64 64" enable-background="new 0 0 64 64" xml:space="preserve">
<path fill="#302C3B" d="M32.498,44.309c-13.195,0-24.204-4.07-26.741-9.48C10.397,48.887,7.627,62,32.498,62
	c24.87,0,22.102-13.113,26.741-27.173C56.702,40.236,45.693,44.309,32.498,44.309z"/>
<path fill="#6E8189" d="M20.154,20.466c14.134-3.891,46.495,1.971,39.44,15.414c3.86,4.379,5.297,9.058-13.334,8.808
	C17.667,51.439-5.922,37.464,4.52,27.021C2,21.897,7.514,19.285,20.154,20.466z"/>
<path fill="#302C3B" d="M32.498,43.673c12.488,0,22.905-3.854,25.309-8.974c0.16-0.483,0.313-0.975,0.458-1.469
	c0.043-0.262,0.065-0.521,0.065-0.791c0-6.199-11.564-11.231-25.832-11.231S6.667,26.241,6.667,32.44
	c0,0.269,0.021,0.529,0.064,0.791c0.146,0.494,0.298,0.984,0.458,1.469C9.59,39.818,20.01,43.673,32.498,43.673z"/>
<path fill="#FBB855" d="M32.498,43.673c12.488,0,22.905-3.854,25.309-8.974c0.052-0.155,0.102-0.311,0.15-0.465
	c-2.087-5.291-12.689-9.32-25.459-9.32c-12.771,0-23.372,4.03-25.458,9.32c0.05,0.154,0.1,0.313,0.149,0.465
	C9.59,39.818,20.01,43.673,32.498,43.673z"/>
<path fill="#7AB51D" d="M10.225,29.605c0,0-0.377,0.142-0.808,0.633c0,0,3.504,1.209,6.092,0.919l-0.7,0.835
	c0,0,3.72,0.189,4.367-1.338c0,0,1.025,0.892,1.779,1.19c0,0,0.593-0.455,0-1.931c0,0,1.51,1.455,3.181,1.817
	c0,0-0.162-1.925-2.48-3.732c0,0,1.564,0.34,2.912-0.805c0,0-0.97-0.707-2.372-0.875c0,0,2.804-1.097,2.804-5.409
	c0,0-1.402-0.125-2.103,0.262c0,0,1.455-2.514,0.377-5.173c0,0-5.608,0.663-5.608,5.027c0,0-0.755-0.884-1.457-1.485
	c0,0-1.239,1.931-0.162,3.805c0,0-4.313-2.176-7.926-0.084c0,0,1.402,0.426,2.103,1.057c0,0-5.608-0.917-7.225,3.043
	C3,27.362,6.613,27.113,10.225,29.605z"/>
<path fill="#B47D56" d="M42,31.791c0-2.344-2.043-5.833-3-6.791c-0.828-0.828-5.246-3.108-8.25-3.122
	C29.387,21.873,28.167,23.723,28,24c-0.534,0.888-0.896,8.2,0.119,8.875C30.75,34.625,42,33,42,31.791z"/>
<path fill="#9E6C49" d="M31.997,33.636C36.238,33.734,42,32.656,42,31.791c0-2.344-2.043-5.833-3-6.791
	c-0.828-0.828-5.246-3.108-8.25-3.122C29.932,22.697,31.371,32.505,31.997,33.636z"/>
<path fill="#785647" d="M40.901,30.574c0,0-3.919-0.56-6.094,0.263S36.155,32.052,40.901,30.574z"/>
<path fill="#785647" d="M39.901,28.107c0,0-3.785-1.161-6.062-0.687C31.564,27.895,34.983,28.83,39.901,28.107z"/>
<path fill="#785647" d="M38.785,25.76c0,0-3.489-1.87-5.814-1.843C30.646,23.943,33.82,25.521,38.785,25.76z"/>
<path fill="#92C932" d="M22.333,17c0,0-4.583,4.75-4.583,12.333c0,0,1.417-1.583,3-2.083l-0.708-0.917c0,0,2.081-1.499,3.563-3.719
	L22,22.209C22,22.209,22.833,20,22.333,17z"/>
<path fill="#FFE8BB" d="M9.609,34.293c0,0,4.558,4.293,12.141,1.332c5.27-2.059-2.75-8.711-5.642-8.711
	C14.875,26.914,9.609,30.336,9.609,34.293z"/>
<path fill="#F5CFA0" d="M21.75,35.625c5.27-2.059-2.75-8.711-5.642-8.711c3.656,3.656-0.39,11.338-6.499,7.379
	C9.609,34.293,14.167,38.586,21.75,35.625z"/>
<path fill="#92C932" d="M18.934,36.408c0,0,0.107,1.172,0.262,1.741c-1.298-0.461-1.339-2.78-1.339-2.78s-0.87,0.521-0.791,1.405
	c-1.429-1.151-2.646-0.612-2.646-0.612s1.813,1.02,2.063,1.707c-1.018,0.08-1.611,0.432-1.958,1.25
	c0.001,0.008,2.012-0.957,3.5-0.261c-0.587,0.479-0.295,1.679-0.295,1.679c2.379-2.521,3.94-0.25,4.961-0.875
	c-0.855-1.188-2.188-1.355-2.188-1.355C20.109,37.182,18.934,36.408,18.934,36.408z"/>
<g opacity="0.6">
	<path fill="#A6AEB0" d="M33.339,11.41C29.649,7.579,32.104,2,32.104,2s-7.752,7.374-2.857,12.458
		C34.913,20.341,32.104,24,32.104,24S39.126,17.417,33.339,11.41z"/>
</g>
<g opacity="0.6">
	<path fill="#A6AEB0" d="M22.287,14.843C19.517,12.058,21.358,8,21.358,8s-5.814,5.364-2.143,9.061
		C23.466,21.339,21.358,24,21.358,24S26.625,19.212,22.287,14.843z"/>
</g>
<g opacity="0.6">
	<path fill="#A6AEB0" d="M44.286,14.842C41.518,12.057,43.357,8,43.357,8s-5.813,5.364-2.143,9.061
		C45.466,21.338,43.357,24,43.357,24S48.624,19.211,44.286,14.842z"/>
</g>
<path fill="#F5CFA0" d="M43.334,30.388c0,0.737,4.528,3.702,8.316,1.59c2.38-1.327-1.42-6.158-2.788-6.211
	C48.042,25.736,43.334,27.839,43.334,30.388z"/>
<path fill="#FFE8BB" d="M49,26c0,0,0.018-0.073,0.045-0.191c-0.063-0.017-0.128-0.039-0.183-0.041
	c-0.82-0.031-5.528,2.071-5.528,4.621c0,0.62,3.209,2.808,6.484,2.229C50.726,31.168,47.28,26,49,26z"/>
<path fill="#92C932" d="M55.647,32.616c-0.567-0.684-1.236-0.852-2.234-0.636c0.042-0.73,1.487-2.228,1.487-2.228
	s-1.32-0.167-2.36,1.348c-0.177-0.87-1.16-1.121-1.16-1.121s0.626,2.235-0.485,3.048c-0.015-0.591-0.249-1.745-0.249-1.745
	s-0.901,1.079-0.96,2.271c0,0-1.229,0.542-1.705,1.924c1.154,0.307,2.001-2.316,5.002-0.583c0,0-0.064-1.232-0.764-1.523
	C53.445,32.277,55.646,32.625,55.647,32.616z"/>
<path fill="#FFE8BB" d="M30.75,40.5c0,0-5.065,4.173-10.289-0.914c0,0,1.095-3.759,4.207-3.759
	C26.178,35.827,30.502,36.586,30.75,40.5z"/>
<path fill="#F5CFA0" d="M26.35,42.094c2.578-0.109,4.399-1.594,4.399-1.594c-0.247-3.914-4.572-4.673-6.083-4.673
	C24.667,35.827,28.448,38.586,26.35,42.094z"/>
<path fill="#F59E01" d="M52.574,34.437c-0.969-1.256-10.975,1.36-16.554,0.642c-3.867-0.497-4.119,3.621-4.119,3.621
	s0.651,3.117,6.527,3.117C47.32,41.816,53.406,35.514,52.574,34.437z"/>
<path fill="#EA8800" d="M52.574,34.437c-0.439-0.569-2.742-0.341-5.642,0.009c0.609,1.413-0.017,3.415-0.017,3.415
	c-0.312-1.539-0.96-2.545-1.657-3.211c-0.474,0.057-0.953,0.113-1.44,0.169c0.698,1.417,0.033,3.534,0.033,3.534
	c-0.333-1.646-1.049-2.688-1.8-3.351c-0.472,0.044-0.941,0.081-1.406,0.112c0.87,1.408,0.143,3.729,0.143,3.729
	c-0.391-1.92-1.299-3.013-2.178-3.645c-0.924,0.012-1.804-0.019-2.59-0.12c2.019,0.26,4.768,3.765,2.408,6.738
	C47.033,41.816,53.406,35.514,52.574,34.437z"/>
<path fill="#92C932" d="M30.165,33.906c0.437-1.111,0.05-2.464,0.05-2.464s-0.684,0.959-0.938,1.491
	c-0.683-1.195,0.802-2.98,0.802-2.98s-1-0.172-1.517,0.549c-0.331-1.804-1.605-2.19-1.605-2.19s0.708,1.954,0.448,2.639
	c-0.822-0.604-1.502-0.725-2.298-0.332c-0.003,0.008,2.147,0.589,2.821,2.088c-0.758-0.019-1.318,1.08-1.318,1.08
	c3.447-0.357,3.148,2.381,4.33,2.573C31.066,34.903,30.165,33.906,30.165,33.906z"/>
</svg>
