<?xml version="1.0" encoding="utf-8"?>
<!-- Generator: Adobe Illustrator 15.0.0, SVG Export Plug-In . SVG Version: 6.00 Build 0)  -->
<!DOCTYPE svg PUBLIC "-//W3C//DTD SVG 1.1//EN" "http://www.w3.org/Graphics/SVG/1.1/DTD/svg11.dtd">
<svg version="1.1" id="Layer_1" xmlns="http://www.w3.org/2000/svg" xmlns:xlink="http://www.w3.org/1999/xlink" x="0px" y="0px"
	 width="64px" height="64px" viewBox="0 0 64 64" enable-background="new 0 0 64 64" xml:space="preserve">
<path fill="#C7D8E2" d="M35.354,56.571c-0.653-0.472-1.371-1.121-1.877-2.071c-0.81-1.521-0.999-7.5-0.999-7.5v-5.625H29.48V47
	c0,0-0.188,5.979-0.998,7.5c-0.506,0.95-1.223,1.6-1.877,2.071c-4.457,0.41-7.617,1.426-7.617,2.616
	C18.989,60.74,24.357,62,30.98,62c6.624,0,11.992-1.26,11.992-2.813C42.972,57.997,39.812,56.981,35.354,56.571z"/>
<path fill="#93B0C0" d="M29.48,41.375h2.999v5.59c-1.499,0.736-2.999,0-2.999,0V41.375z"/>
<path fill="#C7D8E2" d="M49.967,14.188c-1.392-4.026-12.546-5.625-18.987-5.625c-6.439,0-17.64,1.2-18.986,5.625
	C10.995,17.469,8.996,24.5,8.996,30.125c0,14.063,20.5,14.063,21.984,14.063s21.984,0,21.984-14.063
	C52.964,23.563,51.388,18.297,49.967,14.188z"/>
<path fill="#E3EDF3" d="M48.065,14.766c-0.77-2.225-9.071-4.328-17.085-4.328c-8.692,0-16.35,1.912-17.064,4.266
	c-0.569,1.869-1.032,3.566-1.408,5.104l37.107-0.002C49.155,18.031,48.618,16.363,48.065,14.766z"/>
<path fill="#EA8800" d="M49.615,19.807c-0.249-0.938-5.896-3.281-18.635-3.281c-12.739,0-18.236,2.34-18.486,3.277
	c-0.579,2.171-1.499,6.213-1.499,10.318c0,11.601,16.648,12.188,19.985,12.188c3.337,0,19.985-0.588,19.985-12.188
	C50.966,25.55,50.194,21.979,49.615,19.807z"/>
<path fill="#F9B700" d="M49.615,19.807c-0.354-1.448-5.479-3.75-18.635-3.75c-13.156,0-18.111,2.268-18.486,3.748
	c-0.384,1.52,5.87,4.69,18.486,4.69C44.649,24.495,50.03,21.507,49.615,19.807z"/>
<path fill="#F9B700" d="M24.695,31.692c0.444,0.705,1.634,0.073,1.19-0.632c-2.039-3.242-4.075-6.482-6.114-9.724
	c-0.637-0.106-1.236-0.222-1.807-0.346C20.209,24.558,22.452,28.125,24.695,31.692z"/>
<ellipse fill="#EA8800" cx="18.924" cy="21.229" rx="2" ry="0.396"/>
<path fill="#FFFFFF" d="M13.006,13.104c1.653,2.628,5.107,8.124,5.107,8.124c0.359,0.09,1.233,0.07,1.529-0.117
	c-1.857-2.955-3.588-5.685-5.444-8.64C13.753,11.765,12.563,12.398,13.006,13.104z"/>
<path fill="#FFFFFF" d="M30.816,60.963c-8.064,0,11.25-0.93,6.834-2.833c-3.599-1.551,4.021,0.096,4.021,0.911
	C41.672,59.937,37.471,60.963,30.816,60.963z"/>
<path fill="#93B0C0" d="M29.485,54.59c-2.33,2.761-4.301,4.095-3.94,4.13C29.063,59.07,30.548,53.331,29.485,54.59z"/>
<path opacity="0.8" fill="#FFFFFF" d="M48.13,19.499c0,0-2.377,1.047-3.86,1.334c2.233,10.265,1.005,13.233,1.005,13.233
	s1.86-0.048,3.518-0.532C48.792,33.534,50.667,31.046,48.13,19.499z"/>
<path fill="#F59E01" d="M35.179,16.553c0.902-7.245,8.564-14.714,19.729-10.53c6.604,2.475,8.052,11.909,6.553,16.949
	c-0.18,0.604-2.467,1.489-3.158,1.519c-0.665,0.027-6.273-8.462-12.037-9.029C43.493,15.189,35.179,16.553,35.179,16.553z"/>
<path fill="#FEEC9A" d="M35.085,16.468c0-3.573,4.443-11.721,12.959-11.288c8.947,0.454,12.732,13.286,10.625,19.188
	c-0.287,0.802-7.645-2.232-11.785-3.893c-0.475-0.19-0.51-4.817-0.713-4.89c-0.427-0.153-1.822,4.287-3.156,3.95
	C37.519,18.146,35.085,16.907,35.085,16.468z"/>
<path fill="#F9B700" d="M46.886,7.463c0-1.328-6.178,1.1-6.178,2.335c0,1.452,2.857,7.816,3.312,7.771
	C44.497,17.522,46.886,9.962,46.886,7.463z"/>
<path fill="#F9B700" d="M39.079,10.895c-0.658-0.418-3.03,4.958-2.484,5.334c0.887,0.664,6.039,2.486,6.229,2.063
	C43.019,17.832,39.781,11.383,39.079,10.895z"/>
<path fill="#F9B700" d="M57.451,22.399c1.151-0.074-1.032-9.242-1.95-8.927c-1.465,0.489-6.911,5.425-6.827,5.952
	C48.763,19.987,56.239,22.476,57.451,22.399z"/>
<path fill="#F9B700" d="M53.839,11.389c0.531-1.478-5.117-5.487-5.703-3.926c-0.682,1.814-0.845,10.356-0.507,10.667
	C47.983,18.466,53.274,12.877,53.839,11.389z"/>
<path fill="#C7D8E2" d="M46.286,16.206c-2.375,1.219-6.852,2.353-15.306,2.353c-18.312,0-17.987-5.314-17.987-5.314
	c0,0.132-0.962,1.349,0.438,2.658c1.9,1.779,6.49,3.904,17.55,3.904c8.132,0,12.759-1.148,15.398-2.464
	C46.348,16.911,46.315,16.514,46.286,16.206z"/>
<path fill="#75D6FF" d="M7.416,2.944C6.303,3.535,1.369,16.057,2.067,17.171c0.603,0.957,6.834-0.432,12.223-3.289
	c5.39-2.858,9.815-7.118,9.214-8.074C22.805,4.693,8.526,2.356,7.416,2.944z"/>
<path fill="#0FB4D4" d="M10.594,15.574c1.227-0.484,2.482-1.049,3.697-1.692c1.214-0.646,2.375-1.359,3.444-2.094l-0.002-0.008
	c-0.699-1.111-9.948-9.031-10.317-8.836C7.043,3.144,9.889,14.458,10.587,15.57L10.594,15.574z"/>
<path fill="#F9B700" d="M6.667,2.705c0.146,0.232,0.294,0.467,0.441,0.699C7.327,3.753,8.25,3.328,8,2.931
	c-0.145-0.233-0.293-0.468-0.438-0.7C7.229,1.702,6.334,2.177,6.667,2.705z"/>
</svg>
