<?xml version="1.0" encoding="utf-8"?>
<!-- Generator: Adobe Illustrator 16.2.0, SVG Export Plug-In . SVG Version: 6.00 Build 0)  -->
<!DOCTYPE svg PUBLIC "-//W3C//DTD SVG 1.1//EN" "http://www.w3.org/Graphics/SVG/1.1/DTD/svg11.dtd">
<svg version="1.1" id="Layer_1" xmlns="http://www.w3.org/2000/svg" xmlns:xlink="http://www.w3.org/1999/xlink" x="0px" y="0px"
	 width="64px" height="64px" viewBox="0 0 64 64" enable-background="new 0 0 64 64" xml:space="preserve">
<path fill="#CFD8DD" d="M62,21.577c0-4.271-17.844-8.744-21.736-8.226C23.578,15.57,2,29.931,2,29.931l55.695,24.746L62,54.167
	C62,54.167,62,25.454,62,21.577z"/>
<polygon fill="#FDCA47" points="57.695,54.677 2,62 2,51.593 57.725,44.074 "/>
<polygon fill="#FDCA47" points="57.756,33.184 2,40.906 2,29.931 57.787,21.996 "/>
<polygon fill="#E6EBEF" points="57.725,44.074 2,51.593 2,40.906 57.756,33.184 "/>
<path fill="#E81C27" d="M20.814,39.718c0.189,4.39-3.543,8.441-8.326,9.093c-4.775,0.648-8.865-2.328-9.146-6.691L20.814,39.718z"/>
<path fill="#F46C60" d="M18.566,40.025c0.148,3.263-2.625,6.287-6.186,6.773c-3.559,0.483-6.6-1.736-6.801-4.986L18.566,40.025z"/>
<path fill="#E81C27" d="M56.16,34.857c-0.004,4.442-3.936,8.541-8.777,9.201c-4.83,0.656-8.814-2.354-8.908-6.771L56.16,34.857z"/>
<path fill="#F46C60" d="M53.881,35.171c0.006,3.302-2.912,6.362-6.518,6.853c-3.602,0.494-6.564-1.756-6.621-5.045L53.881,35.171z"
	/>
<path fill="#E81C27" d="M21.191,47.624c-0.184-4.351,3.59-8.452,8.441-9.118c4.856-0.668,8.875,2.371,8.97,6.749L21.191,47.624z"/>
<path fill="#F46C60" d="M23.422,47.32c-0.127-3.231,2.68-6.271,6.275-6.764c3.602-0.494,6.584,1.756,6.663,5.004L23.422,47.32z"/>
<polygon fill="#FBB855" points="4.834,36.078 7.586,38.107 10.045,35.355 7.293,33.311 "/>
<polygon fill="#FBB855" points="45.047,31.023 47.697,33.068 50.32,30.295 47.668,28.234 "/>
<polygon fill="#FBB855" points="25.243,30.567 27.405,32.205 29.438,29.983 27.274,28.338 "/>
<polygon fill="#FBB855" points="13.533,32.884 15.717,34.521 17.725,32.3 15.543,30.652 "/>
<polygon fill="#FBB855" points="38.174,28.44 39.688,29.603 41.143,28.028 39.627,26.865 "/>
<polygon fill="#FBB855" points="33.082,33.759 34.588,34.904 36.027,33.354 34.523,32.206 "/>
<polygon fill="#FBB855" points="20.084,35.912 21.611,37.051 23.014,35.506 21.486,34.366 "/>
<polygon fill="#FBB855" points="53.455,25.603 51.961,27.189 53.457,28.358 54.947,26.775 "/>
<polygon fill="#FBB855" points="30.515,54.361 33.137,56.311 35.646,53.666 33.023,51.705 "/>
<polygon fill="#FBB855" points="9.529,54.768 12.203,56.705 14.623,54.078 11.943,52.131 "/>
<polygon fill="#FBB855" points="24.102,51.869 26.191,53.409 28.176,51.318 26.084,49.768 "/>
<polygon fill="#FBB855" points="39.423,54.284 41.497,55.828 43.505,53.736 41.43,52.186 "/>
<polygon fill="#FBB855" points="45.421,49.868 47.7,51.589 49.945,49.257 47.665,47.527 "/>
<polygon fill="#FBB855" points="18.646,56.458 20.13,57.552 21.522,56.068 20.036,54.973 "/>
<polygon fill="#FBB855" points="53.871,50.898 52.439,52.382 53.889,53.473 55.322,51.995 "/>
<polygon fill="#FBB855" points="4.539,58.895 6.039,59.971 7.381,58.511 5.879,57.434 "/>
<path fill="#E6EBEF" d="M55.939,20.948c8.533-1.188-15.455-7.695-19.164-7.215C20.877,15.796,4.811,28.152,4.811,28.152
	S53.875,21.235,55.939,20.948z"/>
<path fill="#529320" d="M35.4,6l1.466,1.667c1.833,0,4.4-1,4.4-4l-2.567-1.333C38.892,4.326,37.813,6,35.4,6z"/>
<path fill="#E81C27" d="M36.69,6.534c3.637,3.362,5.272,8.232,1.778,11.462c-4.743,4.385-14.985,4.908-17.236,2.826
	c-2.229-2.061-1.56-11.765,3.034-15.941C28.086,1.409,32.449,2.681,36.69,6.534z"/>
<path fill="#F46C60" d="M21.926,16.355c2.22,2.174,6.933-7.653,4.916-10.011C24.821,3.988,19.957,14.427,21.926,16.355z"/>
<path fill="#B00505" d="M22.311,21.435c3.46,1.297,11.96,0.443,16.158-3.438c3.494-3.23,1.857-8.101-1.778-11.463
	c-2.195-2.028-5.004-3.387-7.652-3.43C30.736,3.687,32.384,4.707,33.782,6c3.641,3.361,5.275,8.232,1.781,11.462
	C32.286,20.492,26.388,21.677,22.311,21.435z"/>
<path fill="#B00505" d="M34.519,15.574c0.689,0.83-1.216,2.35-1.904,1.52C31.925,16.264,33.83,14.744,34.519,15.574z"/>
<path fill="#B00505" d="M32.633,11.515c0.799,0.728-1.001,2.364-1.8,1.636C30.034,12.424,31.834,10.789,32.633,11.515z"/>
<path fill="#B00505" d="M28.232,13.849c0.8,0.727-1,2.363-1.799,1.636C25.632,14.758,27.433,13.122,28.232,13.849z"/>
<path fill="#B00505" d="M30.163,18.014c0.592,0.849-1.483,2.074-2.074,1.227C27.496,18.393,29.569,17.166,30.163,18.014z"/>
<path fill="#B00505" d="M24.199,17.849c0.8,0.728-1,2.363-1.799,1.636C21.6,18.757,23.398,17.122,24.199,17.849z"/>
<path fill="#297124" d="M35.745,8c5.521,1,5.521-4.333,5.521-4.333C40.166,7.667,35.745,8,35.745,8z"/>
<path fill="#B00505" d="M29.136,5.765c-0.831,0.378-1.251,0.907-1.251,0.907s3.759,3.037,6.417,2.662
	c-0.574,2.667,2.103,5.449,2.103,5.449s1.482-0.129,2.391-0.696c3.276-1.863-6.165-10.731-10.971-10.908
	C27.823,3.178,27.467,4.325,29.136,5.765z"/>
<path fill="#529320" d="M26.95,2.12c0,0,3.063,4.041,8.568,6.451c1.224,3.828,6.247,7.255,6.247,7.255s1.812-4.959-4.61-8.802
	C33.068,0.787,26.95,2.12,26.95,2.12z"/>
<path fill="#297124" d="M37.239,11.333c0.383,0.989,1.973,2.408,1.973,2.408c2.072-1.883,1.307-3.808,1.307-3.808
	S36.849,10.319,37.239,11.333z"/>
<path fill="#7AB51D" d="M28.076,5.44c0,0,4.287,3.431,6.945,3.056c-0.354,2.837,1.576,5.281,1.576,5.281s8.176-3.082,0.918-7.12
	C34.902,1.001,28.076,5.44,28.076,5.44z"/>
<path fill="#92C932" d="M36.599,13.777c-3.842-5.807-0.189-7.194-0.189-7.194C35.125,9.583,36.599,13.777,36.599,13.777z"/>
<path fill="#B00505" d="M28.509,8.453c0.952,0.592-0.668,2.352-1.621,1.761C25.937,9.622,27.557,7.862,28.509,8.453z"/>
<path fill="#B00505" d="M22.183,15.273c0.936,0.451,2.068-1.761,1.132-2.212C22.379,12.609,21.248,14.822,22.183,15.273z"/>
<path fill="#B00505" d="M22.917,9.939c0.936,0.451,2.068-1.761,1.132-2.212C23.112,7.276,21.98,9.489,22.917,9.939z"/>
</svg>
