<?xml version="1.0" encoding="utf-8"?>
<!-- Generator: Adobe Illustrator 16.2.0, SVG Export Plug-In . SVG Version: 6.00 Build 0)  -->
<!DOCTYPE svg PUBLIC "-//W3C//DTD SVG 1.1//EN" "http://www.w3.org/Graphics/SVG/1.1/DTD/svg11.dtd">
<svg version="1.1" id="Layer_1" xmlns="http://www.w3.org/2000/svg" xmlns:xlink="http://www.w3.org/1999/xlink" x="0px" y="0px"
	 width="64px" height="64px" viewBox="0 0 64 64" enable-background="new 0 0 64 64" xml:space="preserve">
<path fill="#99A8AE" d="M32,38C15.897,38,5,41.372,5,48s10.897,14,27,14c16.103,0,27-7.372,27-14S48.103,38,32,38z"/>
<path fill="#D6E4EA" d="M32,36C15.986,36,3,41.372,3,48s7.22,13,29,13s29-6.372,29-13S48.015,36,32,36z"/>
<ellipse fill="#E7F1F7" cx="32" cy="48" rx="29" ry="12"/>
<ellipse fill="#99A8AE" cx="32" cy="48" rx="15" ry="8"/>
<path fill="#D6E4EA" d="M45.607,48.32H18.388c0,0,0.355,2.632,3.99,4.764C23.723,53.869,26.921,55,31.999,55
	c5.079,0,8.278-1.131,9.621-1.916C45.254,50.952,45.607,48.32,45.607,48.32z"/>
<path fill="#C9D6DE" d="M18.388,48c0,0,0.165,1.342,1.361,2.761c3.113,1.72,7.189,3.106,12.251,3.106
	c5.061,0,9.132-1.424,12.244-3.143C45.443,49.305,45.607,48,45.607,48H18.388z"/>
<path fill="#D6E4EA" d="M7,25c0,0,0.651,11.111,7.328,20.122c2.468,3.334,8.344,7.972,17.672,7.972
	c9.332,0,15.206-4.564,17.673-7.898C56.35,36.185,56.998,25,56.998,25H7z"/>
<path fill="#E7F1F7" d="M31.999,15c13.807,0,24.999,4.625,24.999,10c0,5.375-11.191,10-24.998,10S7,30.375,7,25
	C7,19.625,18.192,15,31.999,15z"/>
<path fill="#D6E4EA" d="M31.998,19.951c10.609,0,19.463,2.731,21.537,6.365c0.305-0.528,0.463-1.074,0.463-1.636
	c0-4.418-9.85-7.999-22-7.999c-12.152,0-22,3.581-22,7.999c0,0.562,0.161,1.107,0.46,1.636
	C12.537,22.683,21.389,19.951,31.998,19.951z"/>
<path fill="#C9D6DE" d="M16.833,18.888c-4.208,1.457-6.835,3.513-6.835,5.792c0,0.562,0.161,1.107,0.46,1.636
	c0.663-1.159,2.021-2.226,3.9-3.142C14.631,21.408,15.544,19.88,16.833,18.888z"/>
<path fill="#A3C86B" d="M31.998,32.682c10.609,0,19.463-2.729,21.537-6.365c-2.074-3.632-10.928-6.363-21.537-6.363
	c-10.609,0-19.461,2.731-21.54,6.363C12.537,29.95,21.389,32.682,31.998,32.682z"/>
<polygon fill="#C9D6DE" points="25.517,44.95 26,52 22,50 "/>
<polygon fill="#529320" points="25.517,44.95 21.227,39.323 15.067,42.811 13.747,49.253 24.196,51.395 "/>
<polygon fill="#92C932" points="24.657,45.52 21.237,39.323 14.634,41.87 12.385,48.05 22.408,51.698 "/>
<circle fill="#529320" cx="20.361" cy="41.731" r="1.208"/>
<rect x="20" y="31.188" fill="#C4926E" width="1" height="10"/>
<path opacity="0.6" fill="#99A8AE" enable-background="new    " d="M33.34,11.409C29.648,7.579,32.104,2,32.104,2
	s-7.752,7.374-2.855,12.458C34.914,20.341,32.104,24,32.104,24S39.127,17.417,33.34,11.409z"/>
<path opacity="0.6" fill="#99A8AE" enable-background="new    " d="M22.285,14.843C19.518,12.058,21.359,8,21.359,8
	s-5.815,5.363-2.143,9.061C23.465,21.339,21.359,24,21.359,24S26.625,19.212,22.285,14.843z"/>
<path opacity="0.6" fill="#99A8AE" enable-background="new    " d="M44.286,14.842C41.518,12.057,43.357,8,43.357,8
	s-5.813,5.363-2.143,9.061C45.466,21.338,43.357,24,43.357,24S48.624,19.211,44.286,14.842z"/>
</svg>
