<?xml version="1.0" encoding="utf-8"?>
<!-- Generator: Adobe Illustrator 15.0.0, SVG Export Plug-In . SVG Version: 6.00 Build 0)  -->
<!DOCTYPE svg PUBLIC "-//W3C//DTD SVG 1.1//EN" "http://www.w3.org/Graphics/SVG/1.1/DTD/svg11.dtd">
<svg version="1.1" id="Layer_1" xmlns="http://www.w3.org/2000/svg" xmlns:xlink="http://www.w3.org/1999/xlink" x="0px" y="0px"
	 width="64px" height="64px" viewBox="0 0 64 64" enable-background="new 0 0 64 64" xml:space="preserve">
<path fill="#E81C27" d="M52,22.547c0,11.348-8.844,24.369-19.752,24.369c-10.911,0-19.752-13.021-19.752-24.369S21.337,2,32.248,2
	C43.156,2,52,11.199,52,22.547z"/>
<path fill="#B00505" d="M49.509,12.569c5.246,19.081-16.004,36.292-27.441,30.378c2.973,2.449,6.455,3.969,10.18,3.969
	C43.156,46.916,52,33.895,52,22.547C52,18.924,51.092,15.525,49.509,12.569z"/>
<path fill="#302C3B" d="M31.546,49.137c-0.006-0.035-0.016-0.09-0.021-0.133C31.529,49.033,31.537,49.076,31.546,49.137z"/>
<path fill="#302C3B" d="M31.55,49.168c-0.002-0.014-0.002-0.02-0.004-0.031C31.548,49.154,31.55,49.168,31.55,49.168z"/>
<path fill="#302C3B" d="M33.027,49.168H31.55c0,1.82-0.361,3.934-1.861,5.176c-2.138,1.768-4.89,0.719-7.378,0.643
	c-3.015-0.092-5.559,1.193-7.74,3.193c-0.758,0.693-1.602,1.707-2.291,2.475c-0.785,0.875,0.252,1.924,1.058,0.965
	c1.548-1.844,2.574-3.129,4.635-4.295c2.583-1.461,4.963-0.732,7.763-0.58c3.207,0.172,6.103-1.355,7.015-4.65
	C32.949,51.373,33.027,50.061,33.027,49.168z"/>
<path fill="#302C3B" d="M31.525,49.004C31.511,48.928,31.515,48.951,31.525,49.004L31.525,49.004z"/>
<path fill="#302C3B" d="M30.8,48.043c0.965,0,1.932,0,2.895,0c0.932,0,0.932-1.273,0-1.273c-0.963,0-1.93,0-2.895,0
	C29.869,46.77,29.869,48.043,30.8,48.043L30.8,48.043z"/>
<path fill="#E81C27" d="M30.058,49.955c1.449,0,2.896,0,4.34,0c1.4,0,1.4-1.912,0-1.912c-1.444,0-2.891,0-4.34,0
	C28.658,48.043,28.658,49.955,30.058,49.955L30.058,49.955z"/>
<path fill="#B00505" d="M34.059,49.955c1.357,0,0.34,0,0.34,0c1.4,0,1.4-1.912,0-1.912h-0.34c0.488,0.389-0.305,1.597-2,1.912
	H34.059z"/>
<path fill-rule="evenodd" clip-rule="evenodd" fill="#F46C60" d="M16.964,18.373c0.48,4.138,6.829-3.957,13.254-10.917
	C34.367,2.979,15.513,5.927,16.964,18.373z"/>
<path fill-rule="evenodd" clip-rule="evenodd" fill="#F46C60" d="M29.632,48.992c0.222,0.105,0.734-0.505,0.445-0.711
	C29.785,48.07,28.955,48.672,29.632,48.992z"/>
</svg>
