<?xml version="1.0" encoding="utf-8"?>
<!-- Generator: Adobe Illustrator 15.0.0, SVG Export Plug-In . SVG Version: 6.00 Build 0)  -->
<!DOCTYPE svg PUBLIC "-//W3C//DTD SVG 1.1//EN" "http://www.w3.org/Graphics/SVG/1.1/DTD/svg11.dtd">
<svg version="1.1" id="Layer_1" xmlns="http://www.w3.org/2000/svg" xmlns:xlink="http://www.w3.org/1999/xlink" x="0px" y="0px"
	 width="64px" height="64px" viewBox="0 0 64 64" enable-background="new 0 0 64 64" xml:space="preserve">
<polygon fill="#8A6859" points="36.552,50.203 27.448,50.203 26.215,62 37.785,62 "/>
<path fill="#594640" d="M37.301,55.784l-10.123-3.892l-0.43,5.012c0,0,3.098-0.974,10.967,4.414L37.301,55.784z"/>
<path fill="#529320" d="M59,55.191c0,0-11.338-3.397-26.934-26.992C30.527,25.869,24.656,44.834,5,55.191
	c0,0,5.826,1.389,15.976-1.09c1.049-0.257-1.661,3.368-1.661,3.368s7.365-2.905,10.059-2.732c2.292,0.147,7.994,3.921,7.994,3.921
	s1.891-4.757,2.799-4.364c3.311,1.44,9.113,2.657,9.113,2.657s-3.953-3.32-2.885-3.32C47.464,53.631,59,55.191,59,55.191z"/>
<path fill="#7AB51D" d="M59,50.23c0,0-11.338-3.742-26.934-29.734C30.527,17.928,24.656,38.822,5,50.23c0,0,5.826,1.53,15.976-1.2
	c1.049-0.282-1.661,3.712-1.661,3.712s7.365-3.2,10.059-3.01c2.292,0.164,7.717,3.893,7.717,3.893s0.92-4.709,1.827-4.275
	c3.312,1.588,10.362,2.821,10.362,2.821s-3.953-3.657-2.885-3.657C47.464,48.514,59,50.23,59,50.23z"/>
<path fill="#529320" d="M10.908,42.325c0,0,8.975-3.103,21.158-24.656c1.203-2.128,5.67,15.196,21.025,24.656
	c0,0-4.152,1.38-12.08-0.885c-0.819-0.235,0.213,3.33,0.213,3.33s-4.951-3.017-7.054-2.858c-1.791,0.135-6.562,4.678-6.562,4.678
	s-2.014-5.451-2.724-5.092c-2.586,1.314-6.383,2.436-6.383,2.436s3.088-3.031,2.253-3.031S10.908,42.325,10.908,42.325z"/>
<path fill="#7AB51D" d="M10.908,37.395c0,0,8.975-3.104,21.158-24.658c1.203-2.128,5.67,15.198,21.025,24.658
	c0,0-4.553,1.269-12.48-0.994c-0.819-0.236,1.298,3.076,1.298,3.076s-4.538-2.457-6.641-2.298c-1.792,0.136-6.952,4.864-6.952,4.864
	s-1.011-5.74-1.719-5.379c-2.587,1.315-8.095,2.338-8.095,2.338s3.088-3.031,2.253-3.031S10.908,37.395,10.908,37.395z"/>
<path fill="#529320" d="M50.154,30.658c0,0-7.871-2.189-18.088-17.387c-1.009-1.5-4.409,10.717-17.284,17.387
	c0,0,3.816,0.894,10.464-0.701c0.688-0.168-1.088,2.17-1.088,2.17s5.139-1.701,6.902-1.59c1.501,0.096,5.223,3.051,5.223,3.051
	s0.783-3.448,1.379-3.194c2.169,0.927,6.124,1.397,6.124,1.397s-2.589-2.138-1.89-2.138C42.598,29.653,50.154,30.658,50.154,30.658z
	"/>
<path fill="#7AB51D" d="M49.383,27.181c0,0-7.545-2.189-17.316-17.386c-0.964-1.502-4.199,10.716-16.514,17.386
	c0,0,3.65,0.894,10.008-0.703c0.658-0.163-1.364,3.253-1.364,3.253s5.446-2.77,7.133-2.658c1.437,0.096,3.944,2.658,3.944,2.658
	s0.959-3.318,1.527-3.063c2.075,0.927,6.492,1.647,6.492,1.647s-2.477-2.139-1.807-2.139S49.383,27.181,49.383,27.181z"/>
<path fill="#529320" d="M20.223,20.958c0,0,5.041-1.64,11.844-13.021c0.672-1.121,3.137,8.026,11.711,13.021
	c0,0-1.151,0.517-5.578-0.679c-0.457-0.123-0.666,1.777-0.666,1.777s-2.115-1.861-3.291-1.777c-1,0.07-3.91,3.088-3.91,3.088
	s-0.953-2.984-1.35-2.797c-1.444,0.696-4.803,2.199-4.803,2.199s2.008-2.563,1.541-2.563S20.223,20.958,20.223,20.958z"/>
<path fill="#7AB51D" d="M21.186,18.354c0,0,4.634-1.638,10.881-13.018c0.617-1.123,2.875,8.023,10.748,13.018
	c0,0-1.088,0.332-5.152-0.863c-0.42-0.124-0.58,1.964-0.58,1.964s-2.444-1.68-3.522-1.597c-0.919,0.074-2.745,1.98-2.745,1.98
	s-1.223-2.059-1.584-1.871c-1.328,0.695-4.151,1.236-4.151,1.236s1.583-1.602,1.155-1.602S21.186,18.354,21.186,18.354z"/>
<path fill="#E81C27" d="M42.211,22.669c0,4-6,4-6,0S42.211,18.669,42.211,22.669z"/>
<path fill="#FFFFFF" d="M38.553,21.403c0,0.999-1.5,0.999-1.5,0S38.553,20.404,38.553,21.403z"/>
<path fill="#C21413" d="M32.449,45.109c0,2.667-4,2.667-4,0C28.449,42.443,32.449,42.443,32.449,45.109z"/>
<path fill="#FFFFFF" d="M30.011,44.266c0,0.667-1,0.667-1,0C29.011,43.6,30.011,43.6,30.011,44.266z"/>
<path fill="#0FB4D4" d="M50.857,42.761c0,4-6,4-6,0S50.857,38.761,50.857,42.761z"/>
<path fill="#FFFFFF" d="M47.199,41.495c0,0.999-1.5,0.999-1.5,0S47.199,40.496,47.199,41.495z"/>
<path fill="#006DAE" d="M19.249,33.588c0,2.666-4,2.666-4,0S19.249,30.922,19.249,33.588z"/>
<path fill="#FFFFFF" d="M16.811,32.744c0,0.666-1,0.666-1,0S16.811,32.078,16.811,32.744z"/>
<path fill="#FFE12C" d="M20.907,46.448c0,4-6,4-6,0S20.907,42.448,20.907,46.448z"/>
<path fill="#FFFFFF" d="M17.249,45.183c0,0.999-1.5,0.999-1.5,0S17.249,44.184,17.249,45.183z"/>
<path fill="#FBB855" d="M47.289,31.139c0,2.667-4,2.667-4,0C43.289,28.473,47.289,28.473,47.289,31.139z"/>
<path fill="#FFFFFF" d="M44.851,30.295c0,0.667-1,0.667-1,0C43.851,29.629,44.851,29.629,44.851,30.295z"/>
<path fill="#F59E01" d="M39.82,52.448c0,3.333-5,3.333-5,0S39.82,49.115,39.82,52.448z"/>
<path fill="#FFFFFF" d="M36.772,51.394c0,0.833-1.25,0.833-1.25,0S36.772,50.561,36.772,51.394z"/>
<path fill="#E84D88" d="M31.964,32.367c0,4-6,4-6,0S31.964,28.367,31.964,32.367z"/>
<path fill="#FFFFFF" d="M28.306,31.102c0,1-1.5,1-1.5,0S28.306,30.102,28.306,31.102z"/>
<path fill="#AA5BEF" d="M26.464,21.609c0,3.334-5,3.334-5,0S26.464,18.275,26.464,21.609z"/>
<path fill="#FFFFFF" d="M23.416,20.555c0,0.834-1.25,0.834-1.25,0C22.166,19.723,23.416,19.723,23.416,20.555z"/>
<polygon fill="#F9C802" points="32.304,2 34.451,6.353 39.257,7.052 35.779,10.439 36.602,15.225 32.304,12.967 28.006,15.225 
	28.826,10.439 25.35,7.052 30.154,6.353 "/>
<polygon fill="#FFFFFF" points="32.297,3.175 30.922,7.527 26.592,7.319 30.534,6.745 "/>
</svg>
