<?xml version="1.0" encoding="utf-8"?>
<!-- Generator: Adobe Illustrator 15.0.0, SVG Export Plug-In . SVG Version: 6.00 Build 0)  -->
<!DOCTYPE svg PUBLIC "-//W3C//DTD SVG 1.1//EN" "http://www.w3.org/Graphics/SVG/1.1/DTD/svg11.dtd">
<svg version="1.1" id="Layer_1" xmlns="http://www.w3.org/2000/svg" xmlns:xlink="http://www.w3.org/1999/xlink" x="0px" y="0px"
	 width="64px" height="64px" viewBox="0 0 64 64" enable-background="new 0 0 64 64" xml:space="preserve">
<path fill="#F9C802" d="M32.004,30.792c0,0-1.68-10.496-1.68-11.228c0-2.689,3.358-2.689,3.358,0
	C33.683,20.296,32.004,30.792,32.004,30.792z"/>
<path fill="#F9C802" d="M33.232,32.017c0,0,10.517-1.675,11.25-1.675c1.715,0,1.715,3.351,0,3.351
	C43.749,33.692,33.232,32.017,33.232,32.017z"/>
<path fill="#F9C802" d="M32.872,31.15c0,0,6.25-8.605,6.769-9.123c1.687-1.681,4.061,0.688,2.373,2.368
	C41.496,24.914,32.872,31.15,32.872,31.15z"/>
<path fill="#34FEC5" d="M34.053,31.19c0,0,16.924-8.63,18.148-9.123c2.644-1.066,3.9,2.041,1.258,3.105
	C52.234,25.667,34.053,31.19,34.053,31.19z"/>
<path fill="#34FEC5" d="M32.867,29.987c0,0,5.852-18.045,6.367-19.257c0.883-2.073,3.973-0.764,3.092,1.309
	C41.81,13.251,32.867,29.987,32.867,29.987z"/>
<path fill="#0FB4D4" d="M31.999,16.285c0,0-1.682-11.423-1.682-12.22c-0.003-2.753,3.356-2.754,3.356,0
	C33.674,4.862,31.999,16.285,31.999,16.285z"/>
<path fill="#0FB4D4" d="M42.461,21.564c0,0,7.475-9.825,8.078-10.427c1.76-1.758,4.134,0.614,2.373,2.369
	C52.31,14.109,42.461,21.564,42.461,21.564z"/>
<path fill="#0FB4D4" d="M46.785,31.985c0,0,12.248-1.678,13.103-1.678c2.815-0.001,2.817,3.35,0.001,3.35
	C59.033,33.658,46.785,31.985,46.785,31.985z"/>
<path fill="#0FB4D4" d="M45.291,5.654c0,2.61-3.925,2.61-3.925,0S45.291,3.044,45.291,5.654z"/>
<path fill="#0FB4D4" d="M60.297,21.137c0,2.61-3.924,2.61-3.924,0S60.297,18.526,60.297,21.137z"/>
<path fill="#F9C802" d="M30.768,32.017c0,0-10.517-1.675-11.25-1.675c-1.715,0-1.715,3.351,0,3.351
	C20.251,33.692,30.768,32.017,30.768,32.017z"/>
<path fill="#F9C802" d="M31.128,31.15c0,0-6.25-8.605-6.769-9.123c-1.687-1.681-4.061,0.688-2.373,2.368
	C22.504,24.914,31.128,31.15,31.128,31.15z"/>
<path fill="#34FEC5" d="M29.947,31.19c0,0-16.924-8.63-18.148-9.123c-2.644-1.066-3.9,2.041-1.258,3.105
	C11.766,25.667,29.947,31.19,29.947,31.19z"/>
<path fill="#34FEC5" d="M31.133,29.987c0,0-5.852-18.045-6.367-19.257c-0.883-2.073-3.973-0.764-3.092,1.309
	C22.19,13.251,31.133,29.987,31.133,29.987z"/>
<path fill="#0FB4D4" d="M21.539,21.564c0,0-7.475-9.825-8.078-10.427c-1.76-1.758-4.134,0.614-2.373,2.369
	C11.69,14.109,21.539,21.564,21.539,21.564z"/>
<path fill="#0FB4D4" d="M17.215,31.985c0,0-12.248-1.678-13.103-1.678c-2.815-0.001-2.817,3.35-0.001,3.35
	C4.967,33.658,17.215,31.985,17.215,31.985z"/>
<path fill="#0FB4D4" d="M18.709,5.654c0,2.61,3.925,2.61,3.925,0S18.709,3.044,18.709,5.654z"/>
<path fill="#0FB4D4" d="M3.703,21.137c0,2.61,3.924,2.61,3.924,0S3.703,18.526,3.703,21.137z"/>
<path fill="#F9C802" d="M31.996,33.208c0,0,1.68,10.496,1.68,11.228c0,2.689-3.358,2.689-3.358,0
	C30.317,43.704,31.996,33.208,31.996,33.208z"/>
<path fill="#F9C802" d="M31.128,32.85c0,0-6.25,8.605-6.769,9.123c-1.687,1.681-4.061-0.688-2.373-2.368
	C22.504,39.086,31.128,32.85,31.128,32.85z"/>
<path fill="#34FEC5" d="M29.947,32.81c0,0-16.924,8.63-18.148,9.123c-2.644,1.066-3.9-2.041-1.258-3.105
	C11.766,38.333,29.947,32.81,29.947,32.81z"/>
<path fill="#34FEC5" d="M31.133,34.013c0,0-5.852,18.045-6.367,19.257c-0.883,2.073-3.973,0.764-3.092-1.309
	C22.19,50.748,31.133,34.013,31.133,34.013z"/>
<path fill="#0FB4D4" d="M32.001,47.715c0,0,1.682,11.423,1.682,12.22c0.003,2.754-3.356,2.754-3.356,0
	C30.326,59.138,32.001,47.715,32.001,47.715z"/>
<path fill="#0FB4D4" d="M21.539,42.436c0,0-7.475,9.825-8.078,10.427c-1.76,1.758-4.134-0.614-2.373-2.369
	C11.69,49.891,21.539,42.436,21.539,42.436z"/>
<path fill="#0FB4D4" d="M18.709,58.346c0-2.61,3.925-2.61,3.925,0S18.709,60.956,18.709,58.346z"/>
<path fill="#0FB4D4" d="M3.703,42.863c0-2.61,3.924-2.61,3.924,0S3.703,45.474,3.703,42.863z"/>
<path fill="#F9C802" d="M32.872,32.85c0,0,6.25,8.605,6.769,9.123c1.687,1.681,4.061-0.688,2.373-2.368
	C41.496,39.086,32.872,32.85,32.872,32.85z"/>
<path fill="#34FEC5" d="M34.053,32.81c0,0,16.924,8.63,18.148,9.123c2.644,1.066,3.9-2.041,1.258-3.105
	C52.234,38.333,34.053,32.81,34.053,32.81z"/>
<path fill="#34FEC5" d="M32.867,34.013c0,0,5.852,18.045,6.367,19.257c0.883,2.073,3.973,0.764,3.092-1.309
	C41.81,50.748,32.867,34.013,32.867,34.013z"/>
<path fill="#0FB4D4" d="M42.461,42.436c0,0,7.475,9.825,8.078,10.427c1.76,1.758,4.134-0.614,2.373-2.369
	C52.31,49.891,42.461,42.436,42.461,42.436z"/>
<path fill="#0FB4D4" d="M45.291,58.346c0-2.61-3.925-2.61-3.925,0S45.291,60.956,45.291,58.346z"/>
<path fill="#0FB4D4" d="M60.297,42.863c0-2.61-3.924-2.61-3.924,0S60.297,45.474,60.297,42.863z"/>
</svg>
