<?xml version="1.0" encoding="utf-8"?>
<!-- Generator: Adobe Illustrator 15.0.0, SVG Export Plug-In . SVG Version: 6.00 Build 0)  -->
<!DOCTYPE svg PUBLIC "-//W3C//DTD SVG 1.1//EN" "http://www.w3.org/Graphics/SVG/1.1/DTD/svg11.dtd">
<svg version="1.1" id="Layer_1" xmlns="http://www.w3.org/2000/svg" xmlns:xlink="http://www.w3.org/1999/xlink" x="0px" y="0px"
	 width="64px" height="64px" viewBox="0 0 64 64" enable-background="new 0 0 64 64" xml:space="preserve">
<path fill="#F26887" d="M52.105,46.659c-3.84,2.533-9.211,5.107-15.141,5.025C9.572,51.302,9.783,31.106,37.176,31.491
	c5.93,0.082,11.246,2.805,15.027,5.445c1.529-3.1,4.438-5.174,7.756-5.129c4.852,0.068-0.471,10.092-0.471,10.092
	s5.111,10.168,0.26,10.1C56.43,51.956,53.568,49.8,52.105,46.659z"/>
<polygon fill="#302C3B" points="15.965,19.462 4,16.309 15.963,13.051 16.18,14.045 7.925,16.292 16.176,18.47 "/>
<path fill="#0FB4D4" d="M52.105,21.175c-3.84,2.531-9.211,5.105-15.141,5.023C9.572,25.815,9.783,5.62,37.176,6.004
	c5.93,0.082,11.246,2.805,15.027,5.445c1.529-3.1,4.438-5.174,7.756-5.129c4.852,0.068-0.471,10.092-0.471,10.092
	s5.111,10.17,0.26,10.102C56.43,26.47,53.568,24.313,52.105,21.175z"/>
<path fill="#018BC9" d="M52.105,21.175c-3.84,2.531-9.211,5.105-15.141,5.023c-10.988-0.152-17.534-3.494-19.666-7.416
	c26.594,9.391,46.391-3.777,42.66-12.461c4.852,0.068-0.471,10.092-0.471,10.092s5.111,10.17,0.26,10.102
	C56.43,26.47,53.568,24.313,52.105,21.175z"/>
<path fill="#D74189" d="M52.105,46.659c-3.84,2.531-9.211,5.105-15.141,5.023c-10.988-0.152-17.534-3.494-19.666-7.416
	c26.594,9.391,46.391-3.776,42.66-12.461c4.852,0.068-0.471,10.092-0.471,10.092s5.111,10.17,0.26,10.102
	C56.43,51.954,53.568,49.798,52.105,46.659z"/>
<path fill="#014D87" d="M16.383,12.155c-2.059-0.025-2.415,3.842-0.355,3.865c-2.059-0.023-1.786,3.842,0.275,3.87
	c0.926,0.014,3.092-3.825,3.092-3.825S17.311,12.168,16.383,12.155z"/>
<path fill="#302C3B" d="M24.195,15.526c-2.26-0.041-2.215-4.48,0.043-4.443C26.498,11.12,26.455,15.563,24.195,15.526z"/>
<path fill="#014D87" d="M30.164,9.784c2.326,3.75,1.225,11.75-3.018,14.245c-0.523,0.309-0.074,1.223,0.455,0.914
	c5.07-2.975,6.076-11.292,3.359-15.678C30.621,8.715,29.822,9.233,30.164,9.784L30.164,9.784z"/>
<path fill="#014D87" d="M47.275,20.829c2.23-0.092,2.145-4.028-0.045-4.063c-0.604-0.01-0.604-1.008,0-1.02
	c2.189-0.035,2.275-3.971,0.045-4.063c-0.607-0.02-0.594-0.979,0.008-0.979c2.648,0,4.047,3.414,1.658,5.551
	c2.389,2.139,0.99,5.551-1.658,5.551C46.682,21.808,46.668,20.851,47.275,20.829z"/>
<path fill="#014D87" d="M41.354,22.659c2.229-0.129,2.143-5.639-0.047-5.688c-0.604-0.016-0.604-1.414,0-1.43
	c2.189-0.047,2.275-5.559,0.047-5.686c-0.607-0.029-0.594-1.371,0.008-1.371c2.65,0,4.045,4.779,1.656,7.771
	c2.389,2.995,0.994,7.774-1.656,7.774C40.76,24.03,40.746,22.687,41.354,22.659z"/>
<path fill="#014D87" d="M35.029,22.659c2.229-0.129,2.145-5.639-0.049-5.688c-0.604-0.016-0.604-1.414,0-1.428
	c2.193-0.049,2.277-5.561,0.049-5.688c-0.609-0.029-0.596-1.371,0.008-1.371c2.648,0,4.043,4.779,1.656,7.771
	c2.387,2.995,0.992,7.774-1.656,7.774C34.434,24.03,34.42,22.687,35.029,22.659z"/>
<polygon fill="#302C3B" points="15.965,44.952 4,41.79 15.963,38.534 16.18,39.526 7.925,41.774 16.176,43.95 "/>
<path fill="#8C0B5E" d="M16.383,37.642c-2.059-0.025-2.415,3.842-0.355,3.865c-2.059-0.023-1.786,3.84,0.275,3.869
	c0.926,0.014,3.092-3.824,3.092-3.824S17.311,37.655,16.383,37.642z"/>
<path fill="#302C3B" d="M24.195,41.011c-2.26-0.039-2.215-4.479,0.043-4.441C26.498,36.606,26.455,41.05,24.195,41.011z"/>
<path fill="#FFFFFF" d="M23.503,12.918c-0.667-0.012-0.653-1.322,0.013-1.311C24.182,11.618,24.17,12.929,23.503,12.918z"/>
<path fill="#FFFFFF" d="M23.503,38.403c-0.667-0.012-0.653-1.32,0.013-1.311C24.182,37.104,24.17,38.415,23.503,38.403z"/>
<path fill="#8C0B5E" d="M30.164,35.271c2.326,3.75,1.225,11.75-3.018,14.244c-0.523,0.307-0.074,1.221,0.455,0.912
	c5.07-2.973,6.076-11.289,3.359-15.676C30.621,34.202,29.822,34.72,30.164,35.271L30.164,35.271z"/>
<path fill="#8C0B5E" d="M47.275,46.315c2.23-0.092,2.145-4.027-0.045-4.063c-0.604-0.01-0.604-1.008,0-1.02
	c2.189-0.035,2.275-3.971,0.045-4.063c-0.607-0.02-0.594-0.979,0.008-0.979c2.648,0,4.047,3.412,1.658,5.551
	c2.389,2.137,0.99,5.551-1.658,5.551C46.682,47.294,46.668,46.337,47.275,46.315z"/>
<path fill="#8C0B5E" d="M41.354,48.144c2.229-0.127,2.143-5.637-0.047-5.686c-0.604-0.016-0.604-1.414,0-1.43
	c2.189-0.049,2.275-5.559,0.047-5.686c-0.607-0.029-0.594-1.371,0.008-1.371c2.65,0,4.045,4.777,1.656,7.771
	c2.389,2.992,0.994,7.773-1.656,7.773C40.76,49.517,40.746,48.173,41.354,48.144z"/>
<path fill="#8C0B5E" d="M35.029,48.144c2.229-0.127,2.145-5.637-0.049-5.686c-0.604-0.016-0.604-1.414,0-1.43
	c2.193-0.049,2.277-5.559,0.049-5.686c-0.609-0.029-0.596-1.371,0.008-1.371c2.648,0,4.043,4.777,1.656,7.771
	c2.387,2.992,0.992,7.773-1.656,7.773C34.434,49.517,34.42,48.173,35.029,48.144z"/>
<rect x="3" y="4.999" fill="#F9B700" width="4" height="57.001"/>
<rect x="4" y="4.999" fill="#FFE12C" width="1" height="57.001"/>
<circle fill="#F9B700" cx="5" cy="5" r="3"/>
<path fill-rule="evenodd" clip-rule="evenodd" fill="#FFE12C" d="M2.688,4.39C2.78,5.036,3.989,3.772,5.212,2.686
	C6.003,1.987,2.412,2.448,2.688,4.39z"/>
<path fill="#F59E01" d="M3.15,7.358c0.287,0.064,0.582,0.104,0.888,0.104c1.911,0,3.505-1.353,3.88-3.153C7.97,4.53,8,4.761,8,5
	c0,1.657-1.342,2.999-3,3C4.3,7.999,3.661,7.758,3.15,7.358z"/>
</svg>
