<?xml version="1.0" encoding="utf-8"?>
<!-- Generator: Adobe Illustrator 15.0.0, SVG Export Plug-In . SVG Version: 6.00 Build 0)  -->
<!DOCTYPE svg PUBLIC "-//W3C//DTD SVG 1.1//EN" "http://www.w3.org/Graphics/SVG/1.1/DTD/svg11.dtd">
<svg version="1.1" id="Layer_1" xmlns="http://www.w3.org/2000/svg" xmlns:xlink="http://www.w3.org/1999/xlink" x="0px" y="0px"
	 width="64px" height="64px" viewBox="0 0 64 64" enable-background="new 0 0 64 64" xml:space="preserve">
<path fill="#529320" d="M16.627,18.223c0,0-4.58-2.887-14.627,0c0,0,10.426,1.265,15.73,4.677L16.627,18.223z"/>
<path fill="#529320" d="M19.678,22.899c0,0-4.578-2.889-14.625,0c0,0,8.648,0.137,14.713,4.673
	C20.684,28.258,19.678,22.899,19.678,22.899z"/>
<path fill="#529320" d="M23.035,34.035c0,0,3.512-13.748,11.143-20.349C41.809,7.087,44.098,2,44.098,2s-5.01,28.46-20.373,35.884
	L23.035,34.035z"/>
<path fill="#8A6859" d="M34.98,33.565c-3.725-1.746-4.813-4.736-4.855-4.863l1.188-0.487l-0.594,0.242l0.594-0.247
	c0.01,0.026,0.967,2.593,4.174,4.095L34.98,33.565z"/>
<polygon fill="#92C932" points="24.572,59.652 14.143,8.781 19.109,7.592 29.539,58.461 "/>
<polygon fill="#92C932" points="31.67,62 22.258,3.155 27.271,2.219 36.684,61.063 "/>
<path fill="#7AB51D" d="M15.42,14.787c1.654-0.406,3.307-0.813,4.961-1.222c0.799-0.197,0.459-1.521-0.34-1.324
	c-1.652,0.407-3.307,0.813-4.959,1.221C14.283,13.659,14.621,14.983,15.42,14.787L15.42,14.787z"/>
<path fill="#7AB51D" d="M18.244,28.192c1.654-0.407,3.307-0.813,4.961-1.222c0.799-0.196,0.459-1.521-0.338-1.324
	c-1.654,0.405-3.307,0.813-4.961,1.222C17.107,27.063,17.445,28.39,18.244,28.192L18.244,28.192z"/>
<path fill="#7AB51D" d="M21.068,41.599c1.654-0.408,3.307-0.814,4.961-1.222c0.799-0.197,0.461-1.522-0.338-1.325
	c-1.652,0.406-3.307,0.813-4.961,1.222C19.932,40.471,20.27,41.795,21.068,41.599L21.068,41.599z"/>
<path fill="#7AB51D" d="M23.893,55.004c1.654-0.408,3.307-0.815,4.961-1.222c0.799-0.197,0.461-1.521-0.338-1.324
	c-1.654,0.405-3.307,0.813-4.961,1.219C22.756,53.874,23.094,55.2,23.893,55.004L23.893,55.004z"/>
<path fill="#7AB51D" d="M23.625,11.453c1.668-0.326,3.336-0.65,5.004-0.977c0.809-0.157,0.465-1.482-0.336-1.325
	c-1.67,0.324-3.338,0.65-5.008,0.975C22.479,10.283,22.822,11.608,23.625,11.453L23.625,11.453z"/>
<path fill="#7AB51D" d="M25.881,24.981c1.67-0.324,3.338-0.65,5.006-0.975c0.807-0.157,0.465-1.481-0.338-1.324
	c-1.668,0.324-3.336,0.65-5.004,0.975C24.736,23.814,25.08,25.139,25.881,24.981L25.881,24.981z"/>
<path fill="#7AB51D" d="M28.139,38.513c1.67-0.324,3.338-0.65,5.006-0.977c0.807-0.157,0.465-1.48-0.338-1.325
	c-1.668,0.326-3.338,0.65-5.006,0.978C26.994,37.345,27.338,38.67,28.139,38.513L28.139,38.513z"/>
<path fill="#7AB51D" d="M30.396,52.044c1.668-0.326,3.338-0.65,5.006-0.977c0.807-0.157,0.465-1.482-0.338-1.325
	c-1.668,0.324-3.338,0.65-5.006,0.975C29.252,50.874,29.596,52.199,30.396,52.044L30.396,52.044z"/>
<path fill="#E81C27" d="M32.223,39.163c0,0,4.371,8.981,14.164,13.406c9.793,4.426,11.955,8.412,11.955,8.412L62,47.25
	c0,0-2.799-4.554-14.217-9.915c-3.578-1.681-6.643-5.918-9.791-10.967L32.223,39.163z"/>
<path fill="#C21413" d="M32.223,39.163c0,0,1.422,2.921,4.461,6.253c0-6.384,11.68-1.412,11.1-8.081
	c-3.578-1.681-6.643-5.918-9.791-10.967L32.223,39.163z"/>
<polygon fill="#FFE12C" points="32.459,40.017 31.318,39.41 37.422,26.005 38.563,26.613 "/>
</svg>
