<?xml version="1.0" encoding="utf-8"?>
<!-- Generator: Adobe Illustrator 15.0.0, SVG Export Plug-In . SVG Version: 6.00 Build 0)  -->
<!DOCTYPE svg PUBLIC "-//W3C//DTD SVG 1.1//EN" "http://www.w3.org/Graphics/SVG/1.1/DTD/svg11.dtd">
<svg version="1.1" id="Layer_1" xmlns="http://www.w3.org/2000/svg" xmlns:xlink="http://www.w3.org/1999/xlink" x="0px" y="0px"
	 width="64px" height="64px" viewBox="0 0 64 64" enable-background="new 0 0 64 64" xml:space="preserve">
<rect x="25.463" y="10.408" fill="#7AB51D" width="13.972" height="41.592"/>
<path fill="#529320" d="M39.435,52H27.79c7.06-2.424,10.334-30.386,5.823-34.406l5.821-7.186V52z"/>
<path fill="#F5CFA0" d="M32.449,18.817c-9.315,0-9.315-16.817,0-16.817C41.763,2,41.763,18.817,32.449,18.817z"/>
<path fill="#C4926E" d="M32.449,16.715c-6.211,0-6.211-12.612,0-12.612C38.659,4.103,38.659,16.715,32.449,16.715z"/>
<path fill="#B47D56" d="M27.819,11.104c0.211,2.904,1.754,5.61,4.63,5.61c2.874,0,4.415-2.706,4.629-5.61
	C34.5,13.016,30.398,13.016,27.819,11.104z"/>
<path fill="#92C932" d="M39.24,29.324H25.657c-1.813,0-1.813-3.152,0-3.152H39.24C41.053,26.172,41.053,29.324,39.24,29.324z"/>
<path fill="#92C932" d="M39.24,41.502H25.656c-1.813,0-1.813-3.152,0-3.152H39.24C41.053,38.35,41.053,41.502,39.24,41.502z"/>
<rect x="36.864" y="20.918" fill="#7AB51D" width="13.972" height="31.082"/>
<path fill="#529320" d="M50.836,52h-6.987c5.604-11.434,6.987-31.082,6.987-31.082V52z"/>
<path fill="#F5CFA0" d="M43.849,29.326c-9.313,0-9.313-16.815,0-16.815C53.164,12.511,53.164,29.326,43.849,29.326z"/>
<path fill="#C4926E" d="M43.849,27.225c-6.209,0-6.209-12.611,0-12.611S50.058,27.225,43.849,27.225z"/>
<path fill="#B47D56" d="M39.22,21.614c0.212,2.905,1.755,5.61,4.629,5.61c2.875,0,4.418-2.705,4.63-5.61
	C45.9,23.525,41.798,23.525,39.22,21.614z"/>
<path fill="#92C932" d="M50.641,35.631H37.058c-1.813,0-1.813-3.152,0-3.152h13.583C52.451,32.479,52.451,35.631,50.641,35.631z"/>
<path fill="#92C932" d="M50.643,45.707H37.058c-1.813,0-1.813-3.153,0-3.153h13.585C52.451,42.554,52.451,45.707,50.643,45.707z"/>
<rect x="13.164" y="25.122" fill="#7AB51D" width="13.973" height="26.878"/>
<path fill="#529320" d="M27.137,52H20.15c5.603-11.434,6.986-26.878,6.986-26.878V52z"/>
<path fill="#F5CFA0" d="M20.15,33.53c-9.314,0-9.314-16.815,0-16.815S29.465,33.53,20.15,33.53z"/>
<path fill="#C4926E" d="M20.15,31.429c-6.211,0-6.211-12.611,0-12.611C26.36,18.817,26.36,31.429,20.15,31.429z"/>
<path fill="#B47D56" d="M15.52,25.818c0.214,2.904,1.755,5.61,4.631,5.61c2.875,0,4.417-2.706,4.629-5.61
	C22.202,27.73,18.1,27.73,15.52,25.818z"/>
<path fill="#92C932" d="M26.941,38.784H13.357c-1.811,0-1.811-3.153,0-3.153h13.584C28.754,35.631,28.754,38.784,26.941,38.784z"/>
<path fill="#92C932" d="M26.941,47.809H13.357c-1.811,0-1.811-3.152,0-3.152h13.584C28.754,44.656,28.754,47.809,26.941,47.809z"/>
<path fill="#529320" d="M12.692,53.182l-1.896,0.499c-1.524-1.719-0.851-10.116-0.851-10.116L12.692,53.182z"/>
<path fill="#297124" d="M12.493,53.234l1.695-0.446c0.479-2.247-4.242-9.224-4.242-9.224L12.493,53.234z"/>
<path fill="#529320" d="M15.271,53.232h-1.96c-1.037-2.405,1.753-11.73,1.753-11.73L15.271,53.232z"/>
<path fill="#297124" d="M15.064,53.232h1.752c1.037-2.405-1.752-11.73-1.752-11.73V53.232z"/>
<path fill="#529320" d="M18.175,53.236l-1.958-0.068c-0.964-2.085,2.1-9.933,2.1-9.933L18.175,53.236z"/>
<path fill="#297124" d="M17.969,53.229l1.752,0.061c1.108-2.013-1.405-10.055-1.405-10.055L17.969,53.229z"/>
<path fill="#529320" d="M21.429,53.232h-1.959c-1.037-1.81,1.753-8.822,1.753-8.822L21.429,53.232z"/>
<path fill="#297124" d="M21.223,53.232h1.752c1.037-1.81-1.752-8.822-1.752-8.822V53.232z"/>
<path fill="#529320" d="M25.185,53.16l-1.942,0.26c-1.306-1.935,0.381-10.34,0.381-10.34L25.185,53.16z"/>
<path fill="#297124" d="M24.979,53.188l1.738-0.233c0.75-2.21-3.093-9.874-3.093-9.874L24.979,53.188z"/>
<path fill="#529320" d="M27.125,53.23l-1.951-0.181c-0.842-2.138,2.668-9.796,2.668-9.796L27.125,53.23z"/>
<path fill="#297124" d="M26.92,53.211l1.746,0.162c1.221-1.947-0.824-10.119-0.824-10.119L26.92,53.211z"/>
<path fill="#529320" d="M30.443,53.236l-1.957-0.087c-0.933-2.367,2.257-11.236,2.257-11.236L30.443,53.236z"/>
<path fill="#297124" d="M30.236,53.228l1.751,0.078c1.14-2.273-1.244-11.393-1.244-11.393L30.236,53.228z"/>
<path fill="#529320" d="M33.746,53.232h-1.959c-1.037-2.051,1.752-10,1.752-10L33.746,53.232z"/>
<path fill="#297124" d="M33.539,53.232h1.754c1.037-2.051-1.754-10-1.754-10V53.232z"/>
<path fill="#529320" d="M37.496,53.17l-1.947,0.228c-1.305-2.228,0.398-11.656,0.398-11.656L37.496,53.17z"/>
<path fill="#297124" d="M37.291,53.193l1.741-0.204c0.753-2.47-3.085-11.248-3.085-11.248L37.291,53.193z"/>
<path fill="#529320" d="M39.55,53.234l-1.955-0.139c-0.889-2.119,2.459-9.851,2.459-9.851L39.55,53.234z"/>
<path fill="#297124" d="M39.344,53.22l1.748,0.125c1.18-1.973-1.038-10.1-1.038-10.1L39.344,53.22z"/>
<path fill="#529320" d="M42.984,53.232h-1.959c-1.037-1.866,1.752-9.102,1.752-9.102L42.984,53.232z"/>
<path fill="#297124" d="M42.777,53.232h1.754c1.037-1.866-1.754-9.102-1.754-9.102V53.232z"/>
<path fill="#529320" d="M46.063,53.232h-1.96c-1.037-2.356,1.754-11.491,1.754-11.491L46.063,53.232z"/>
<path fill="#297124" d="M45.857,53.232h1.753c1.036-2.356-1.753-11.491-1.753-11.491V53.232z"/>
<path fill="#529320" d="M48.758,53.233l-1.955-0.151c-0.875-2.124,2.519-9.835,2.519-9.835L48.758,53.233z"/>
<path fill="#297124" d="M48.551,53.218l1.748,0.135c1.191-1.965-0.978-10.105-0.978-10.105L48.551,53.218z"/>
<path fill="#529320" d="M51.605,53.22l-1.945-0.241c-0.758-2.307,3.059-10.414,3.059-10.414L51.605,53.22z"/>
<path fill="#297124" d="M51.4,53.194l1.74,0.216c1.299-2.052-0.422-10.846-0.422-10.846L51.4,53.194z"/>
<path fill="#D6A57C" d="M59,61H5c4.5-1.271,4.5-9,4.5-9h45C54.5,52,54.5,59.617,59,61z"/>
<path fill="#F5CFA0" d="M56.3,61H7.7c4.205-1.09,4.172-7.713,4.172-7.713h40.256C52.128,53.287,52.095,59.813,56.3,61z"/>
<rect x="42.67" y="54.453" fill="#D6A57C" width="2" height="5.893"/>
<rect x="47.097" y="52.264" fill="#D6A57C" width="2" height="8.309"/>
<rect x="38.243" y="56.416" fill="#D6A57C" width="2" height="3.93"/>
<rect x="21.644" y="52.49" fill="#D6A57C" width="2" height="3.926"/>
<rect x="16.743" y="52.49" fill="#D6A57C" width="2" height="6.633"/>
<rect x="26.544" y="52.49" fill="#D6A57C" width="2" height="8.51"/>
<rect x="2" y="60" fill="#B47D56" width="60" height="2"/>
</svg>
