<?xml version="1.0" encoding="utf-8"?>
<!-- Generator: Adobe Illustrator 15.0.0, SVG Export Plug-In . SVG Version: 6.00 Build 0)  -->
<!DOCTYPE svg PUBLIC "-//W3C//DTD SVG 1.1//EN" "http://www.w3.org/Graphics/SVG/1.1/DTD/svg11.dtd">
<svg version="1.1" id="Layer_1" xmlns="http://www.w3.org/2000/svg" xmlns:xlink="http://www.w3.org/1999/xlink" x="0px" y="0px"
	 width="64px" height="64px" viewBox="0 0 64 64" enable-background="new 0 0 64 64" xml:space="preserve">
<path fill="#EA8800" d="M30.764,14.395c0,0-5.863-3.193-9.617,0.655c0,0-19.146-2.441-19.146,17.653
	c0,20.092,13.1,24.409,13.1,24.409s5.588,4.508,11.908,3.38c0,0,4.674,3.27,9.803,0.18c0,0,6.688,1.417,11.816-3.84
	c0,0,13.373-2.629,13.373-23.753c0-17.183-10.718-16.713-10.718-16.713s-4.122-4.319-10.719-2.348
	C40.563,14.018,36.533,11.67,30.764,14.395z"/>
<path fill="#D47706" d="M23.617,18.337c0,0-17.049-0.925-17.049,18.323c0,15.772,8.53,20.452,8.53,20.452S8.4,52.15,8.4,36.66
	C8.4,20.416,23.617,18.337,23.617,18.337z"/>
<path fill="#D47706" d="M28.563,19.464c0,0-10.625,3.005-10.625,19.341c0,16.337,9.068,21.688,9.068,21.688
	s-7.328-8.355-7.328-21.78C19.678,23.877,28.563,19.464,28.563,19.464z"/>
<path fill="#D47706" d="M35.803,20.027c0,0,10.037,5.238,10.037,19.604c0,14.364-9.03,21.039-9.03,21.039
	s10.588-5.078,10.588-21.509C47.397,22.732,35.803,20.027,35.803,20.027z"/>
<path fill="#D47706" d="M40.84,18.337c0,0,16.077,1.545,16.077,18.967c0,5.403-4.368,16.026-7.282,18.59
	c0,0,8.934-6.999,8.934-18.59C58.568,25.711,51.756,18.986,40.84,18.337z"/>
<path fill="#F9B700" d="M16.41,17.194c0.084,0.476-2.051,1.128-4.467,3.185c-2.421,2.014-3.985,4.47-4.361,3.807
	c-0.406-0.608,0.95-4.013,3.717-5.833C14.035,16.498,16.379,16.771,16.41,17.194z"/>
<path fill="#AB5C10" d="M33.825,17.08c0,0,2.794-2.564,4.591-1.453c0,0,1.034-1.227,2.146-1.609
	c-0.642-0.329-4.547-2.104-9.801,0.377c0,0-5.861-3.193-9.617,0.655c0,0,3.221,0.172,5.895,2.03H33.825z"/>
<path fill="#F9B700" d="M25.463,19.609c0.033,0.346-1.699,0.577-3.754,1.772c-2.053,1.164-3.459,2.735-3.714,2.225
	c-0.28-0.476,1.028-2.744,3.343-3.736C23.629,18.856,25.469,19.304,25.463,19.609z"/>
<path fill="#F9B700" d="M38.994,19.596c0,0.324,1.457,0.525,3.271,1.628c1.803,1.073,3.106,2.532,3.276,2.052
	c0.192-0.445-1.091-2.558-3.099-3.467C40.451,18.875,38.961,19.312,38.994,19.596z"/>
<path fill="#F9B700" d="M34.33,20.672c-0.141,0.287,1.061,1.169,2.178,3.019c1.121,1.818,1.626,3.741,1.99,3.397
	c0.369-0.304,0.172-2.794-1.203-4.566C35.947,20.736,34.43,20.405,34.33,20.672z"/>
<path fill="#F9B700" d="M46.165,17.449c0.011,0.339,1.565,0.454,3.521,1.488c1.949,1.002,3.381,2.438,3.542,1.93
	c0.188-0.48-1.241-2.6-3.4-3.415C47.688,16.604,46.123,17.155,46.165,17.449z"/>
<path fill="#D47706" d="M39.561,16.679c0.191,0.221,1.299-0.548,3.178-0.917c1.854-0.387,3.6-0.199,3.428-0.63
	c-0.133-0.426-2.246-1.071-4.142-0.445C40.125,15.284,39.373,16.503,39.561,16.679z"/>
<path fill="#F9B700" d="M30.986,19.469c0.449,0.468-0.888,0.957-2.928,3.535c-1.855,2.345-3.184,5.748-3.776,5.619
	c-0.599-0.088-0.182-3.529,2.431-6.247C28.648,20.361,30.73,19.205,30.986,19.469z"/>
<path fill="#92C932" d="M38.418,17.08c0,0-0.826,0.316-1.374,1.257c0,0-1.651-0.658-3.39,1.127c0,0-2.554-1.599-5.129,0
	c0,0-1.375-1.597-3.114-1.127c0,0-0.916-0.752-0.642-0.846c0.273-0.093,6.8-4.224,6.8-9.106c0-3.145-2.427-1.971-4.237-1.971
	C26.137,6.414,26.488,2,29.074,2c1.376,0,6.137,1.973,6.137,5.727C35.213,12.422,32.932,17.08,38.418,17.08z"/>
<path fill="#529320" d="M28.563,2.752c-0.732,0-2.07,1.984-1.278,2.957C27.83,6.387,30.061,2.752,28.563,2.752z"/>
<path fill="#529320" d="M33.877,10.732c-0.824,0-3.252,6.996-3.756,6.149c-0.506-0.846,1.237-3.662,2.429-7.136
	c1.19-3.475-1.329-4.13-2.702-4.13c-0.965,0-2.516,0.798-2.516,0.798c1.811,0,4.237-1.174,4.237,1.971
	c0,4.883-6.526,9.014-6.8,9.106c-0.274,0.094,0.642,0.846,0.642,0.846c1.739-0.47,3.114,1.127,3.114,1.127
	c2.575-1.599,5.129,0,5.129,0c1.738-1.785,3.39-1.127,3.39-1.127c0.548-0.94,1.374-1.257,1.374-1.257
	c-0.343,0-0.656-0.021-0.938-0.055C31.569,17.025,34.443,10.732,33.877,10.732z"/>
<path fill="#AB5C10" d="M13.438,42.672c0.687-0.972,5.897-0.1,6.808,0.666c0.441,0.368,0.188,4.604,0.646,4.951
	c9.188,0.138,19.36,0.79,24.068-0.791c0.476-0.569-0.438-6.177,0.034-6.757c0.671-0.836,6.5-2.669,7.177-1.834
	c1.357,1.679-0.465,8.865-5.349,13.746c-3.177,3.179-7.128,4.155-7.94,3.82c-0.691-0.288-1.336-4.673-1.984-5.041
	c-0.684-0.384-6.849-0.608-7.486-0.152c-0.62,0.443-1.16,5.448-1.832,5.803c-1.343,0.71-5.575-1.753-9.013-4.735
	C15.081,49.325,12.551,43.927,13.438,42.672z"/>
<path fill="#AB5C10" d="M11.351,37.813c1.413,2.945,17.156-2.071,17.156-4.974c0-1.556-9.592-6.431-12.284-6.677
	C12.662,25.835,10.63,36.309,11.351,37.813z"/>
<path fill="#45332C" d="M28.106,33.71c0.256-0.304,0.401-0.597,0.401-0.871c0-1.331-7.011-5.083-10.727-6.299
	c-3.199-0.271-5.022,9.137-4.375,10.485C14.503,39.313,25.19,36.268,28.106,33.71z"/>
<path fill="#45332C" d="M37.294,42.505c-0.761-0.975-7.942,0.208-8.646,0.833c-0.042,0.037-0.844,4.251-1.068,4.427
	c-0.602,0.472-5.503,0.466-6.111,0c-0.457-0.348-0.781-4.06-1.223-4.428c-0.621-0.524-3.257-1.097-5.081-1.097
	c0.287,1.916,2.235,5.436,4.735,7.607c3.094,2.681,6.902,4.895,8.111,4.259c0.604-0.317,1.091-4.823,1.648-5.223
	c0.575-0.41,6.123-0.21,6.736,0.139c0.584,0.33,1.166,4.278,1.787,4.536c0.732,0.303,4.287-0.575,7.148-3.437
	c3.721-3.72,5.461-8.929,5.162-11.349c-1.984,0.295-5.025,1.377-5.501,1.968c-0.47,0.58,0.122,5.611-0.354,6.184
	c-0.502,0.595-5.478,1.6-5.931,0.967C37.895,46.76,38.152,43.599,37.294,42.505z"/>
<path fill="#D47706" d="M32.917,20.929c0.097-0.153-3.54,7.747-0.569,18.703C32.283,39.518,33.074,29.836,32.917,20.929z"/>
<path fill="#AB5C10" d="M52.539,35.195c-1.007,3.107-17.279,0.236-17.666-2.641c-0.207-1.542,8.648-7.653,11.283-8.256
	C49.642,23.499,53.053,33.608,52.539,35.195z"/>
<path fill="#45332C" d="M35.386,33.364c-0.294-0.267-0.478-0.537-0.514-0.81c-0.178-1.319,6.27-5.973,9.79-7.674
	c3.135-0.695,6.197,8.385,5.734,9.809C49.615,37.102,38.617,35.51,35.386,33.364z"/>
</svg>
