<?xml version="1.0" encoding="utf-8"?>
<!-- Generator: Adobe Illustrator 15.0.0, SVG Export Plug-In . SVG Version: 6.00 Build 0)  -->
<!DOCTYPE svg PUBLIC "-//W3C//DTD SVG 1.1//EN" "http://www.w3.org/Graphics/SVG/1.1/DTD/svg11.dtd">
<svg version="1.1" id="Layer_1" xmlns="http://www.w3.org/2000/svg" xmlns:xlink="http://www.w3.org/1999/xlink" x="0px" y="0px"
	 width="64px" height="64px" viewBox="0 0 64 64" enable-background="new 0 0 64 64" xml:space="preserve">
<path fill="#B00505" d="M15.347,13.098c0,0,0.717,20.205-13.347,32.902h13v16c0,0,13.553-19.215,13.553-48.914L15.347,13.098z"/>
<path fill="#B00505" d="M48.654,13.098c0,0-0.719,20.205,13.346,32.902H49v16c0,0-13.553-19.215-13.553-48.914L48.654,13.098z"/>
<path fill="#E81C27" d="M30.661,13.971c0,5.08-5.659,10.023-12.577,10.98l-5.536,0.77C5.631,26.68,0.973,24.428,2.195,20.717
	c1.223-3.709,1.223-9.783,0-13.492C0.973,3.514,5.631,1.262,12.548,2.221l5.536,0.77C25.002,3.947,30.661,8.891,30.661,13.971z"/>
<path fill="#B00505" d="M3.887,21.266c-0.544,0.52,0.082,1.072,0.27,1.316c0.568,0.742,2.269,1.537,5.334,1.537
	c0.879,0,1.816-0.068,2.784-0.203l5.536-0.768c3.876-0.537,7.358-2.518,9.307-4.982C27.117,18.166,10.315,15.117,3.887,21.266z"/>
<path fill="#E81C27" d="M33.34,13.971c0,5.08,5.658,10.023,12.576,10.98l5.537,0.77c6.916,0.959,11.574-1.293,10.352-5.004
	c-1.223-3.709-1.223-9.783,0-13.492c1.223-3.711-3.436-5.963-10.352-5.004l-5.537,0.77C38.998,3.947,33.34,8.891,33.34,13.971z"/>
<path fill="#B00505" d="M60.113,21.266c0.545,0.52-0.082,1.072-0.27,1.316c-0.568,0.742-2.268,1.537-5.332,1.537
	c-0.881,0-1.818-0.068-2.785-0.203l-5.537-0.768c-3.875-0.537-7.357-2.518-9.307-4.982C36.883,18.166,53.686,15.117,60.113,21.266z"
	/>
<path fill="#B00505" d="M31.217,12.535c0,0-1.658,1.445-5.754-2.021c-4.662-3.947-11.547,1.291-2.42,3.609
	C27.918,15.361,31.217,12.535,31.217,12.535z"/>
<path fill="#B00505" d="M32.783,12.535c0,0,1.658,1.445,5.754-2.021c4.662-3.947,11.547,1.291,2.42,3.609
	C36.082,15.361,32.783,12.535,32.783,12.535z"/>
<path fill="#B00505" d="M32,20.916c-3.738,0-4.661,2.764-4.661-6.842c0-9.609,0.923-6.844,4.661-6.844s4.662-2.766,4.662,6.844
	C36.662,23.68,35.738,20.916,32,20.916z"/>
<path fill="#E81C27" d="M32,21.094c-3.029,0-3.777,2.836-3.777-7.02c0-9.857,0.748-7.021,3.777-7.021s3.777-2.836,3.777,7.021
	C35.777,23.93,35.029,21.094,32,21.094z"/>
</svg>
