<?xml version="1.0" encoding="utf-8"?>
<!-- Generator: Adobe Illustrator 15.0.0, SVG Export Plug-In . SVG Version: 6.00 Build 0)  -->
<!DOCTYPE svg PUBLIC "-//W3C//DTD SVG 1.1//EN" "http://www.w3.org/Graphics/SVG/1.1/DTD/svg11.dtd">
<svg version="1.1" id="Layer_1" xmlns="http://www.w3.org/2000/svg" xmlns:xlink="http://www.w3.org/1999/xlink" x="0px" y="0px"
	 width="64px" height="64px" viewBox="0 0 64 64" enable-background="new 0 0 64 64" xml:space="preserve">
<polygon fill="#E6A400" points="2,62 10.552,58.908 4.085,55.789 "/>
<polygon fill="#FDCA47" points="26.943,36.551 14.785,23.908 12.827,29.746 "/>
<polygon fill="#E6A400" points="12.827,29.746 10.64,36.258 37.449,49.18 38.663,48.74 26.943,36.551 "/>
<polygon fill="#FDCA47" points="8.456,42.768 28.482,52.422 37.449,49.18 10.64,36.258 "/>
<polygon fill="#E6A400" points="6.271,49.279 19.518,55.664 28.482,52.422 8.456,42.768 "/>
<polygon fill="#FDCA47" points="6.271,49.279 4.085,55.789 10.552,58.908 19.518,55.664 "/>
<polygon opacity="0.3" fill="#302C3B" points="32.92,42.768 2,62 38.663,48.74 "/>
<path fill="#FDCA47" d="M31.889,31.174c6.746,6.867,10.229,14.457,7.779,16.951c-2.45,2.494-9.909-1.049-16.656-7.918
	c-6.745-6.865-10.226-14.455-7.776-16.949C17.686,20.762,25.144,24.309,31.889,31.174z"/>
<path fill="#753F0B" d="M31.415,31.656c6.031,6.131,9.25,12.807,7.189,14.908c-2.063,2.1-8.625-1.168-14.656-7.303
	c-6.03-6.129-9.246-12.805-7.185-14.904C18.824,22.254,25.386,25.523,31.415,31.656z"/>
<path fill="#45332C" d="M33.095,33.471c2.629,4.852,2.896,9.885,0.34,12.842c2.342,1.043,4.229,1.215,5.171,0.256
	C40.464,44.672,38.018,39.055,33.095,33.471z"/>
<path fill="#0FB4D4" d="M23.496,13.877c-1.63-2.342,0.139-3.389,2.309-2.969c-2.063-2.627-0.79-4.445,2.461-3.732
	c1.017,0.225-0.398,2-1.309,1.934c2.734,2.119,1.234,4.355-1.661,3.828c2.56,3.637-1.838,2.74-3.762,2.893
	c-0.503,2.723,2.502,5.826,1.501,5.826C20.795,21.656,17.23,13.068,23.496,13.877z"/>
<path fill="#A6E639" d="M44.545,18.896c-1.478,0.691-5.707-6.148-0.524-6.207c-2.976-2.799-2.592-4.148,1.399-4.23
	C40.847,3.717,48.075,2,48.836,4.539c0.227,0.76-2.213-0.67-3.007,0.693c-0.919,1.574,5.629,5.545-1.127,5.313
	c2.483,2.615,2.635,3.836-1.329,4.275C43.892,15.563,45.485,18.461,44.545,18.896z"/>
<path fill="#E81C27" d="M46.226,35.037l1.52-1.336c0,0,1.435,2.146,2.445,2.961c0.774-3.684,0.568-5.922,4.718-3.367
	c-2.345-6.41,1.521-3.988,5.174-2.25c-0.211-1.629,0.033-1.457,1.615-1.916c1.405,5.449-2.369,3.871-5.446,2.082
	c1.761,4.916-0.082,4.691-3.933,3.01c-0.065,2.084-0.725,4.447-1.934,4.648C49.01,39.1,46.226,35.037,46.226,35.037z"/>
<path fill="#E635DE" d="M35.012,19.641c-1.846,2.486-4.66,3.875-6.792,6.049c-2.219,2.264-3.546,8.492-3.546,8.492
	s0.793-6.496,2.914-8.996c1.92-2.26,4.666-3.908,6.152-6.535c2.658-4.705,0.285-10.998-3.107-14.592
	C31.346,3.4,32.292,2.572,32.863,2C36.055,6.238,38.893,14.422,35.012,19.641z"/>
<path fill="#A6E639" d="M38.087,24.945c-2.646,1.967-4.463,4.822-6.306,7.541c-1.627,2.4-6.709,5.348-6.709,5.348
	s4.83-3.369,6.265-5.896c1.766-3.111,3.572-6.316,6.374-8.566c5.604-4.496,13.682-3.992,20.02-1.627
	c-0.36,0.951-1.107,2.91-1.107,2.91S43.426,20.977,38.087,24.945z"/>
<path fill="#0FB4D4" d="M49.246,24.467c-1.681,2.307-2.546,5.092-3.836,7.625c-1.199,2.361-2.783,4.645-5.128,5.898
	c-2.554,1.365-8.329,0.898-8.329,0.898s5.744-0.072,8.105-1.717c2.41-1.68,3.675-4.523,4.617-7.264
	c1.766-5.127,3.981-10.73,9.194-13.012c0.349,0.979,1.049,2.934,1.049,2.934S52.049,20.621,49.246,24.467z"/>
<polygon fill="#0FB4D4" points="8.877,13.656 6.049,16.582 3.222,13.656 6.049,10.729 "/>
<polygon fill="#A6E639" points="12.827,22.895 9.997,25.82 7.169,22.895 9.997,19.969 "/>
<polygon fill="#E81C27" points="20.05,9.064 17.221,11.99 14.392,9.064 17.222,6.139 "/>
<polygon fill="#E635DE" points="50.841,44.061 48.013,46.986 45.183,44.061 48.013,41.135 "/>
<polygon fill="#E81C27" points="44.533,54.094 41.706,57.02 38.878,54.094 41.705,51.166 "/>
<polygon fill="#A6E639" points="56.941,56.408 54.114,59.334 51.283,56.408 54.113,53.482 "/>
<polygon fill="#0FB4D4" points="59.77,43.078 56.941,46.004 54.114,43.078 56.941,40.15 "/>
<polygon fill="#0FB4D4" points="55.049,12.168 52.221,15.094 49.391,12.168 52.221,9.242 "/>
<polygon fill="#A6E639" points="24.706,29.756 21.878,32.68 19.05,29.756 21.878,26.828 "/>
</svg>
