<?xml version="1.0" encoding="utf-8"?>
<!-- Generator: Adobe Illustrator 15.0.0, SVG Export Plug-In . SVG Version: 6.00 Build 0)  -->
<!DOCTYPE svg PUBLIC "-//W3C//DTD SVG 1.1//EN" "http://www.w3.org/Graphics/SVG/1.1/DTD/svg11.dtd">
<svg version="1.1" id="Layer_1" xmlns="http://www.w3.org/2000/svg" xmlns:xlink="http://www.w3.org/1999/xlink" x="0px" y="0px"
	 width="64px" height="64px" viewBox="0 0 64 64" enable-background="new 0 0 64 64" xml:space="preserve">
<path fill="#E6A400" d="M44.428,16.011h-2.256c0-14.074-20.295-14.082-20.295,0h-2.255C19.622-1.333,44.428-1.323,44.428,16.011z"/>
<path fill="#FDCA47" d="M29.885,10.374C27.403,5.396,22.476,2,16.795,2C8.628,2,2,9.029,2,17.699c0,4.013,1.421,7.673,3.756,10.447
	C5.756,28.146,11.772,12.421,29.885,10.374z"/>
<path fill="#E6A400" d="M4.375,16.633c0-6.013,3.19-11.23,7.869-13.867C6.303,4.804,2,10.716,2,17.699
	c0,4.013,1.421,7.673,3.756,10.447c0,0,0.392-1.021,1.271-2.572C5.362,23.036,4.375,19.96,4.375,16.633z"/>
<path fill="#45332C" d="M29.885,10.374C11.772,12.421,5.756,28.146,5.756,28.146C16.924,27.074,26.199,19.985,29.885,10.374z"/>
<path fill="#AB5C10" d="M25.174,11.269c-3.662,6.359-9.94,11.172-17.476,13.178c-1.356,2.168-1.942,3.7-1.942,3.7
	c11.168-1.072,20.443-8.161,24.129-17.772C28.212,10.563,26.646,10.87,25.174,11.269z"/>
<path fill="#FDCA47" d="M34.116,10.374C36.597,5.396,41.526,2,47.205,2C55.376,2,62,9.029,62,17.699
	c0,4.013-1.42,7.673-3.755,10.447C58.245,28.146,52.228,12.421,34.116,10.374z"/>
<path fill="#E6A400" d="M49.83,2.625c0.667,0,1.319,0.063,1.963,0.154C50.348,2.279,48.809,2,47.205,2
	c-5.679,0-10.608,3.396-13.089,8.374c0.944,0.107,1.848,0.259,2.728,0.436C39.354,5.936,44.225,2.625,49.83,2.625z"/>
<path fill="#45332C" d="M34.116,10.374c18.111,2.047,24.129,17.772,24.129,17.772C47.078,27.074,37.802,19.985,34.116,10.374z"/>
<path fill="#AB5C10" d="M38.827,11.269c3.662,6.358,9.939,11.172,17.476,13.178c1.356,2.168,1.942,3.7,1.942,3.7
	c-11.17-1.072-20.443-8.161-24.129-17.772C35.789,10.563,37.355,10.87,38.827,11.269z"/>
<path fill="#0FB4D4" d="M43.076,62l-3.597-1.729c1.388-3.474,0.746-4.586-0.229-6.271c-1.117-1.933-2.646-4.577-0.549-9.782
	c0.604-1.494,0.298-2.016-0.522-3.415c-1.081-1.848-2.562-4.38-1.201-9.155c1.408-4.96-1.811-10.865-1.843-10.926l3.34-2.264
	c0.173,0.306,4.214,7.575,2.251,14.471c-0.812,2.859-0.15,3.988,0.764,5.552c0.955,1.632,2.262,3.868,0.808,7.478
	c-1.251,3.102-0.677,4.094,0.271,5.738C43.725,53.693,45.306,56.428,43.076,62z"/>
<path fill="#E81C27" d="M23.67,61.915c-2.359-5.507-0.847-8.287,0.26-10.316c0.912-1.669,1.462-2.677,0.136-5.741
	c-1.542-3.567-0.289-5.84,0.628-7.5c0.876-1.588,1.508-2.736,0.627-5.57c-2.128-6.837,1.736-14.222,1.902-14.535l3.395,2.17
	l0.002-0.004c-0.031,0.061-3.123,6.02-1.579,10.98c1.473,4.733,0.052,7.307-0.985,9.186c-0.785,1.422-1.076,1.953-0.439,3.43
	c2.225,5.143,0.758,7.83-0.311,9.794c-0.936,1.71-1.553,2.843-0.077,6.276L23.67,61.915z"/>
<path fill="#E635DE" d="M3.859,59.223c-0.898-5.949,1.26-8.23,2.838-9.895c1.299-1.369,2.081-2.195,1.568-5.511
	c-0.596-3.856,1.186-5.717,2.485-7.076c1.244-1.298,2.144-2.239,2.003-5.213C12.412,24.355,17.995,18.257,18.233,18l2.735,3.003
	l0.004-0.005c-0.046,0.05-4.527,4.979-4.278,10.184c0.234,4.966-1.781,7.072-3.255,8.61c-1.115,1.163-1.528,1.599-1.281,3.194
	c0.858,5.561-1.231,7.766-2.757,9.376c-1.331,1.403-2.211,2.332-1.647,6.044L3.859,59.223z"/>
<path fill="#A6E639" d="M61.437,59.223c0.897-5.949-1.261-8.23-2.839-9.895c-1.299-1.369-2.082-2.195-1.569-5.511
	c0.597-3.856-1.186-5.717-2.485-7.076c-1.245-1.298-2.145-2.239-2.002-5.213c0.34-7.173-5.24-13.271-5.481-13.528l-2.735,3.003
	l-0.002-0.005c0.045,0.05,4.525,4.979,4.279,10.184c-0.237,4.966,1.779,7.072,3.252,8.61c1.115,1.163,1.529,1.599,1.284,3.194
	c-0.861,5.561,1.23,7.766,2.754,9.376c1.332,1.403,2.212,2.332,1.649,6.044L61.437,59.223z"/>
<polygon fill="#0FB4D4" points="23.6,34.568 20.572,37.693 17.546,34.568 20.572,31.44 "/>
<polygon fill="#0FB4D4" points="53.677,57.543 50.649,60.669 47.622,57.543 50.649,54.416 "/>
<polygon fill="#A6E639" points="20.82,45.449 17.795,48.576 14.767,45.449 17.795,42.322 "/>
<polygon fill="#A6E639" points="35.675,27.487 32.647,30.613 29.62,27.487 32.647,24.359 "/>
<polygon fill="#E81C27" points="17.795,57.543 14.767,60.669 11.74,57.543 14.767,54.416 "/>
<polygon fill="#E81C27" points="51.103,46.018 48.076,49.144 45.049,46.018 48.076,42.89 "/>
<polygon fill="#E635DE" points="35.675,57.062 32.647,60.188 29.62,57.062 32.647,53.934 "/>
<polygon fill="#E635DE" points="48.076,35.027 45.049,38.154 42.021,35.027 45.049,31.9 "/>
<polygon fill="#E81C27" points="36.433,43.297 33.405,46.424 30.378,43.297 33.405,40.17 "/>
<path fill-rule="evenodd" clip-rule="evenodd" fill="#FEEC9A" d="M16.679,3.365c-2.074,0.565,5.656,4.021,9.656,5.906
	C28.905,10.484,22.927,1.661,16.679,3.365z"/>
<path fill-rule="evenodd" clip-rule="evenodd" fill="#FEEC9A" d="M52.681,4.546c-2.121-0.352,3.462,6.015,6.31,9.397
	C60.82,16.119,59.069,5.605,52.681,4.546z"/>
</svg>
