<?xml version="1.0" encoding="utf-8"?>
<!-- Generator: Adobe Illustrator 15.0.0, SVG Export Plug-In . SVG Version: 6.00 Build 0)  -->
<!DOCTYPE svg PUBLIC "-//W3C//DTD SVG 1.1//EN" "http://www.w3.org/Graphics/SVG/1.1/DTD/svg11.dtd">
<svg version="1.1" id="Layer_1" xmlns="http://www.w3.org/2000/svg" xmlns:xlink="http://www.w3.org/1999/xlink" x="0px" y="0px"
	 width="64px" height="64px" viewBox="0 0 64 64" enable-background="new 0 0 64 64" xml:space="preserve">
<path fill="#F9B700" d="M61,55.517H33v4.322C33,61.027,33.787,62,34.75,62h24.5c0.962,0,1.75-0.973,1.75-2.161V55.517z"/>
<rect x="35.546" y="55.517" fill="#018BC9" width="2.546" height="6.483"/>
<rect x="40.637" y="55.517" fill="#E81C27" width="2.545" height="6.483"/>
<rect x="45.728" y="55.517" fill="#018BC9" width="2.545" height="6.483"/>
<rect x="50.818" y="55.517" fill="#E81C27" width="2.546" height="6.483"/>
<rect x="55.909" y="55.517" fill="#018BC9" width="2.546" height="6.483"/>
<path fill="#F9B700" d="M31,55.517H3v4.322C3,61.027,3.787,62,4.75,62h24.5c0.963,0,1.75-0.973,1.75-2.161V55.517z"/>
<rect x="5.545" y="55.517" fill="#018BC9" width="2.546" height="6.483"/>
<rect x="10.636" y="55.517" fill="#E81C27" width="2.545" height="6.483"/>
<rect x="15.727" y="55.517" fill="#018BC9" width="2.545" height="6.483"/>
<rect x="20.818" y="55.517" fill="#E81C27" width="2.546" height="6.483"/>
<rect x="25.909" y="55.517" fill="#018BC9" width="2.546" height="6.483"/>
<polygon fill="#870505" points="61.484,56.856 32.516,56.856 47.002,29.012 "/>
<path fill="#E81C27" d="M45.659,37.421c-0.853-3.416,2.227-8.7,1.142-8.409c-5.098,1.355-12.059,5.699-11.309,9.581
	c0.639,3.304-2.61,2.53-1.689,6.081c1.907,7.363-5.988,15.132,1.468,11.062C44.134,50.897,45.919,38.458,45.659,37.421z"/>
<path fill="#760E6D" d="M34.331,55.49c7.349-5.735,11.968-15.132,10.658-17.763C42.749,33.225,30.515,58.468,34.331,55.49z"/>
<path fill="#B00505" d="M38.636,34.798c-2.159-0.499,6.575-2.762,7.023,2.623C44.427,34.243,41.884,35.547,38.636,34.798z"/>
<path fill="#B00505" d="M35.71,38.783c0-1.765,1.635,2.112,6.096-0.84C43.983,36.502,35.71,44.304,35.71,38.783z"/>
<path fill="#E81C27" d="M48.341,37.421c0.854-3.416-2.227-8.7-1.142-8.409c5.099,1.355,12.06,5.699,11.31,9.581
	c-0.639,3.304,2.609,2.53,1.689,6.081c-1.907,7.363,5.986,15.132-1.468,11.062C49.867,50.897,48.082,38.458,48.341,37.421z"/>
<path fill="#760E6D" d="M59.67,55.49c-7.349-5.735-11.968-15.132-10.658-17.763C51.252,33.225,63.485,58.468,59.67,55.49z"/>
<path fill="#B00505" d="M55.365,34.798c2.159-0.499-6.575-2.762-7.024,2.623C49.574,34.243,52.117,35.547,55.365,34.798z"/>
<path fill="#B00505" d="M58.291,38.783c0-1.765-1.634,2.112-6.095-0.84C50.018,36.502,58.291,44.304,58.291,38.783z"/>
<path fill="#D6A57C" d="M48.027,34.458c-0.666,0.553-1.389,0.553-2.055,0C44.934,33.596,44,29,44,29h6
	C50,29,49.067,33.596,48.027,34.458z"/>
<polygon fill="#013366" points="31.484,56.856 2.516,56.856 17.001,29.012 "/>
<path fill="#018BC9" d="M15.659,37.421c-0.853-3.416,2.227-8.7,1.142-8.409c-5.098,1.355-12.059,5.699-11.309,9.581
	c0.639,3.304-2.609,2.53-1.689,6.081c1.907,7.363-5.987,15.132,1.468,11.062C14.133,50.897,15.918,38.458,15.659,37.421z"/>
<path fill="#B00505" d="M4.331,55.49c7.349-5.735,11.968-15.132,10.658-17.763C12.749,33.225,0.515,58.468,4.331,55.49z"/>
<path fill="#014D87" d="M8.635,34.798c-2.159-0.499,6.575-2.762,7.023,2.623C14.426,34.243,11.883,35.547,8.635,34.798z"/>
<path fill="#014D87" d="M5.709,38.783c0-1.765,1.635,2.112,6.096-0.84C13.983,36.502,5.709,44.304,5.709,38.783z"/>
<path fill="#018BC9" d="M18.34,37.421c0.854-3.416-2.227-8.7-1.142-8.409c5.099,1.355,12.06,5.699,11.31,9.581
	c-0.639,3.304,2.609,2.53,1.689,6.081c-1.907,7.363,5.987,15.132-1.468,11.062C19.867,50.897,18.082,38.458,18.34,37.421z"/>
<path fill="#B00505" d="M29.669,55.49c-7.349-5.735-11.968-15.132-10.658-17.763C21.251,33.225,33.485,58.468,29.669,55.49z"/>
<path fill="#014D87" d="M25.365,34.798c2.159-0.499-6.575-2.762-7.024,2.623C19.574,34.243,22.117,35.547,25.365,34.798z"/>
<path fill="#014D87" d="M28.291,38.783c0-1.765-1.634,2.112-6.095-0.84C20.017,36.502,28.291,44.304,28.291,38.783z"/>
<rect x="14" y="49.356" fill="#EA8800" width="6" height="9.644"/>
<rect x="15" y="49.356" fill="#B00505" width="4" height="8.572"/>
<rect x="16" y="49.356" fill="#EA8800" width="2" height="4.286"/>
<path fill="#D6A57C" d="M18.027,34.458c-0.666,0.553-1.389,0.553-2.055,0C14.933,33.596,14,29,14,29h6
	C20,29,19.067,33.596,18.027,34.458z"/>
<path fill="#FFE1BD" d="M18.9,37.992c2.381-0.655,4.905,5.512,3.43,6.231c-2.833,1.383-7.341-0.541-3.874-4.014
	C18.456,40.21,16.64,38.614,18.9,37.992z"/>
<polygon fill="#F9C802" points="16.425,47.21 14.78,47.329 12.957,32.708 15.783,32.503 "/>
<path fill="#FFE1BD" d="M15.1,37.992c-2.382-0.655-4.905,5.512-3.43,6.231c2.833,1.383,7.341-0.541,3.874-4.014
	C15.544,40.21,17.359,38.614,15.1,37.992z"/>
<path fill="#302C3B" d="M51.197,9.038c0.412-1.012,0.652-1.99,0.652-2.648c0-5.852-9.699-5.854-9.699,0
	c0,0.658,0.24,1.637,0.652,2.648c-8.522,1.412-15.98,7.32-6.092,19.303c1.281,1.551,19.347,1.498,20.562,0
	C67.161,16.138,59.774,10.417,51.197,9.038z"/>
<path fill="#FFE1BD" d="M57.781,22.2C56.924,23.481,47.81,19.61,47,19.015c-0.813,0.6-10.033,4.514-10.799,3.164
	c-0.257,0.234-0.451,0.576-0.451,1.117c0,2.117,1.96,1.76,1.96,1.76c0,8.939,18.58,9.574,18.58,0c0,0,1.96,0.357,1.96-1.76
	C58.25,22.769,58.047,22.431,57.781,22.2z"/>
<g>
	<path fill="#E81C27" d="M48.754,29.216c-1.156,0.238-2.351,0.238-3.507,0c-0.504-0.111-0.141-1.318,0.263-1.227
		c0.982,0.201,1.998,0.201,2.981,0C48.896,27.897,49.26,29.103,48.754,29.216z"/>
</g>
<g>
	<path fill="#302C3B" d="M45.584,24.728c-1.525-2.813-4.595-2.813-6.12,0c-0.076,0.141,0.123,0.205,0.365,0.365
		c1.529-1.174,4.002-1.064,5.39,0C45.461,24.933,45.659,24.868,45.584,24.728z"/>
	<path fill="#302C3B" d="M54.538,24.728c-1.526-2.813-4.596-2.813-6.122,0c-0.074,0.141,0.123,0.205,0.366,0.365
		c1.528-1.174,4.003-1.064,5.39,0C54.415,24.933,54.612,24.868,54.538,24.728z"/>
</g>
<path fill-rule="evenodd" clip-rule="evenodd" fill="#4E5E67" d="M42.967,6.312c0.141,1.178,1.989-1.127,3.859-3.105
	C48.034,1.931,42.545,2.771,42.967,6.312z"/>
<path fill-rule="evenodd" clip-rule="evenodd" fill="#4E5E67" d="M32.909,18.265c0.079,2.031-0.008-4.193,9.917-7.898
	C46.288,9.073,32.617,10.813,32.909,18.265z"/>
<path fill="#302C3B" d="M27.951,17.921c0-1.678-1.697-4.258-4.97-5.761c-0.381-0.84-1.054-1.626-1.934-2.24
	c0.701-1.304,1.123-2.682,1.123-3.529c0-5.853-10.342-5.854-10.342,0c0,0.848,0.422,2.224,1.123,3.527
	c-0.911,0.636-1.604,1.458-1.978,2.332c-3.014,1.361-4.901,3.598-4.901,5.671l-0.041,6.083h21.961L27.951,17.921z"/>
<path fill="#FFE1BD" d="M26.909,25.056c0,0,2.091,0.358,2.091-1.76c0-1.674-2.091-1.565-2.091-1.565v-1.554
	c-5.825-1.816-13.995-1.822-19.818,0.006v1.548c0,0-2.091-0.192-2.091,1.565c0,2.118,2.091,1.76,2.091,1.76
	C7.09,33.996,26.909,34.63,26.909,25.056z"/>
<g>
	<path fill="#E81C27" d="M18.753,29.217c-1.156,0.237-2.351,0.237-3.508,0c-0.504-0.112-0.14-1.319,0.264-1.228
		c0.982,0.202,1.998,0.202,2.98,0C18.894,27.897,19.258,29.104,18.753,29.217z"/>
</g>
<g>
	<path fill="#302C3B" d="M15.583,24.729c-1.524-2.813-4.595-2.813-6.12,0c-0.075,0.141,0.123,0.205,0.365,0.365
		c1.529-1.174,4.003-1.064,5.39,0C15.46,24.934,15.658,24.869,15.583,24.729z"/>
	<path fill="#302C3B" d="M24.537,24.729c-1.525-2.813-4.596-2.813-6.121,0c-0.075,0.141,0.123,0.205,0.365,0.365
		c1.529-1.174,4.004-1.064,5.391,0C24.414,24.934,24.612,24.869,24.537,24.729z"/>
</g>
<path fill-rule="evenodd" clip-rule="evenodd" fill="#4E5E67" d="M12.557,6.47c0.14,1.178,1.988-1.126,3.859-3.106
	C17.625,2.089,12.134,2.928,12.557,6.47z"/>
<path fill-rule="evenodd" clip-rule="evenodd" fill="#4E5E67" d="M6.609,18.938c0.066,1.414,0.607-2.392,4.965-5.467
	C13.14,12.365,6.341,13.176,6.609,18.938z"/>
<path fill-rule="evenodd" clip-rule="evenodd" fill="#4E5E67" d="M11.825,12.592c-0.022,0.567,0.698-0.871,2.193-2.104
	C14.609,10.002,11.909,10.458,11.825,12.592z"/>
<path fill="#F9C802" d="M45.31,39.12l3.367,0.006c0,0,0,0,5.855,8.38c1.791,2.559-16.406,2.582-14.705-0.016
	C45.31,39.12,45.31,39.12,45.31,39.12z"/>
<path fill="#F9B700" d="M45.134,39.116l3.689,0.006c0,0,0,0,4.073,9.907c0.874,2.123-12.224,2.129-11.429-0.014
	C45.134,39.116,45.134,39.116,45.134,39.116z"/>
<path fill="#F9C802" d="M44.976,39.112l3.986,0.008c0,0,0,0,1.871,11.36c0.227,1.371-7.47,1.366-7.295-0.011
	C44.976,39.112,44.976,39.112,44.976,39.112z"/>
<path fill="#F9B700" d="M45.946,39.121l1.971,0.005c0,0,0,0,0.79,12.666c0.052,0.824-3.042,0.817-3.023-0.008
	C45.946,39.121,45.946,39.121,45.946,39.121z"/>
<path fill="#FFE1BD" d="M45.101,37.992c-2.382-0.655-4.905,5.512-3.43,6.231c2.833,1.383,7.341-0.541,3.874-4.014
	C45.545,40.21,47.359,38.614,45.101,37.992z"/>
<path fill="#FFE1BD" d="M48.9,37.992c2.381-0.655,4.905,5.512,3.43,6.231c-2.833,1.383-7.341-0.541-3.874-4.014
	C48.456,40.21,46.641,38.614,48.9,37.992z"/>
</svg>
