<?xml version="1.0" encoding="utf-8"?>
<!-- Generator: Adobe Illustrator 16.2.0, SVG Export Plug-In . SVG Version: 6.00 Build 0)  -->
<!DOCTYPE svg PUBLIC "-//W3C//DTD SVG 1.1//EN" "http://www.w3.org/Graphics/SVG/1.1/DTD/svg11.dtd">
<svg version="1.1" id="Layer_1" xmlns="http://www.w3.org/2000/svg" xmlns:xlink="http://www.w3.org/1999/xlink" x="0px" y="0px"
	 width="64px" height="64px" viewBox="0 0 64 64" enable-background="new 0 0 64 64" xml:space="preserve">
<path fill="#CFD8DD" d="M2,47v2c0,7.182,13.432,13,30,13c16.568,0,30-5.818,30-13v-2l0,0H2z"/>
<ellipse fill="#E6EBEF" cx="32" cy="47" rx="30" ry="13"/>
<path fill="#F5CFA0" d="M4,46.253c-2.021-6.677,6.697-7.075,7.408-6.06C12.466,42.113,6.061,53.098,4,46.253z"/>
<path fill="#F5CFA0" d="M60.004,45.781c-0.711,1.017-8.725,2.684-6.703-3.993C55.361,34.943,61.063,43.861,60.004,45.781z"/>
<path fill="#785647" d="M5,30v14c0,6.63,12.09,12,27,12c14.91,0,27-5.37,27-12V30H5z"/>
<path fill="#785647" d="M32,20C17.089,20,5,24.48,5,30c0,5.523,12.089,10,27,10c14.91,0,27-4.477,27-10C59,24.48,46.91,20,32,20z"/>
<path fill="#8A6859" d="M58,32.059c0-0.738-6.468,5.707-26,5.559c-19.534,0.147-26-6.297-26-5.559C6,32.634,11.894,40,32,40
	C52.104,40,58,32.719,58,32.059z"/>
<path fill="#0FB4D4" d="M23,20l-2,3v10c0,0.553,0.896,1,2,1s2-0.447,2-1V23L23,20z"/>
<path fill="#0FB4D4" d="M41,20l-2,3v10c0,0.553,0.896,1,2,1s2-0.447,2-1V23L41,20z"/>
<path fill="#0FB4D4" d="M14,16l-2,3v10c0,0.552,0.896,1,2,1s2-0.448,2-1V19L14,16z"/>
<path fill="#0FB4D4" d="M32,12l-2,3v10c0,0.552,0.896,1,2,1c1.104,0,2-0.448,2-1V15L32,12z"/>
<path fill="#F46C60" d="M32.029,12c0,0-3.029-1.112-3.029-3.334S32.893,4.222,31.725,2C31.725,2,38.887,6.479,32.029,12z"/>
<path fill="#F9C802" d="M32.029,12c0,0-3.029-2.266,0.006-6.25C32.035,5.75,34.254,7,32.029,12z"/>
<path fill="#F46C60" d="M14.029,16c0,0-3.029-1.112-3.029-3.334S14.893,8.222,13.725,6C13.725,6,20.887,10.479,14.029,16z"/>
<path fill="#F9C802" d="M14.029,16c0,0-3.029-2.266,0.006-6.25C14.035,9.75,16.254,11,14.029,16z"/>
<path fill="#F46C60" d="M23.029,20c0,0-3.029-1.112-3.029-3.334s3.893-4.444,2.725-6.666C22.725,10,29.887,14.479,23.029,20z"/>
<path fill="#F9C802" d="M23.029,20c0,0-3.029-2.266,0.006-6.25C23.035,13.75,25.254,15,23.029,20z"/>
<path fill="#0FB4D4" d="M50,16l-2,3v10c0,0.552,0.896,1,2,1s2-0.448,2-1V19L50,16z"/>
<path fill="#F5CFA0" d="M4.115,47.193c0.711-1.018,9.493-2.438,7.472,4.24C9.526,58.277,3.057,49.113,4.115,47.193z"/>
<path fill="#F5CFA0" d="M11.587,51.434c0.588-1.137,9.081-3.912,7.835,3.045C18.152,61.585,10.754,53.5,11.587,51.434z"/>
<path fill="#F5CFA0" d="M19.422,54.479c0.455-1.229,8.715-5.739,8.267,1.357C27.237,63.078,18.831,56.654,19.422,54.479z"/>
<path fill="#F5CFA0" d="M27.689,55.836c0.312-1.294,7.868-7.078,8.229,0.028C36.291,63.111,27.35,58.087,27.689,55.836z"/>
<path fill="#F5CFA0" d="M35.918,55.864c0.162-1.331,7.075-8.233,8.236-1.253C45.344,61.734,35.837,58.15,35.918,55.864z"/>
<path fill="#F5CFA0" d="M44.154,54.611c0.011-1.342,5.978-9.783,7.916-3.065C54.057,58.415,44.334,56.896,44.154,54.611z"/>
<path fill="#F5CFA0" d="M52.07,51.546c-0.141-1.325,4.769-10.633,7.447-4.308C62.262,53.723,52.509,53.789,52.07,51.546z"/>
<path fill="#F46C60" d="M41.029,20c0,0-3.029-1.112-3.029-3.334s3.893-4.444,2.725-6.666C40.725,10,47.887,14.479,41.029,20z"/>
<path fill="#F9C802" d="M41.029,20c0,0-3.029-2.266,0.006-6.25C41.035,13.75,43.254,15,41.029,20z"/>
<path fill="#F46C60" d="M50.029,16c0,0-3.029-1.112-3.029-3.334S50.893,8.222,49.725,6C49.725,6,56.887,10.479,50.029,16z"/>
<path fill="#F9C802" d="M50.029,16c0,0-3.029-2.266,0.006-6.25C50.035,9.75,52.254,11,50.029,16z"/>
</svg>
