<?xml version="1.0" encoding="utf-8"?>
<!-- Generator: Adobe Illustrator 15.0.0, SVG Export Plug-In . SVG Version: 6.00 Build 0)  -->
<!DOCTYPE svg PUBLIC "-//W3C//DTD SVG 1.1//EN" "http://www.w3.org/Graphics/SVG/1.1/DTD/svg11.dtd">
<svg version="1.1" id="Layer_1" xmlns="http://www.w3.org/2000/svg" xmlns:xlink="http://www.w3.org/1999/xlink" x="0px" y="0px"
	 width="64px" height="64px" viewBox="0 0 64 64" enable-background="new 0 0 64 64" xml:space="preserve">
<path fill="#014D87" d="M30.859,30.277l1,31.723c0,0,13.051-9.186,22.253-11.914c0,0,0.376-19.594,6.104-29.426L30.859,30.277z"/>
<path fill="#F59E01" d="M40.112,57.154c0,0,0.55-28.098,1.535-29.551c0.986-1.453,9.648-2.961,9.648-2.961
	s-3.544,26.311-2.652,27.986C48.644,52.629,45.028,54.143,40.112,57.154z"/>
<path fill="#018BC9" d="M31.859,62c0,0-9.202-7.75-23.475-11.914c0,0,1.127-16.076-4.132-28.422l27.606,8.613V62z"/>
<path fill="#F9C802" d="M14.183,52.688c0,0,8.381,3.441,9.015,4.467c0.634,1.023,0.563-28.258,0.563-28.258
	s-11.479-3.176-12.465-3.176C11.296,25.721,14.816,37.563,14.183,52.688z"/>
<path opacity="0.5" fill="#302C3B" d="M4.253,21.664c0.755,1.773,1.378,3.621,1.893,5.488l25.714,8.434l25.741-8.797
	c0.716-2.246,1.577-4.348,2.615-6.129L4.253,21.664z"/>
<polygon fill="#0FB4D4" points="2,18.865 30.201,29.785 62,17.645 31.084,15.922 "/>
<polygon fill="#018BC9" points="2,18.865 4.253,25.182 30.545,32.574 30.545,25.182 "/>
<path fill="#014D87" d="M30.545,32.574c0,0,23.756-8.828,29.671-9.188c0,0,0.36-3.541,1.784-5.742l-31.455,7.537V32.574z"/>
<polygon fill="#F0AE11" points="10.545,20.756 16.272,26.262 22.662,23.438 32,20.553 43.644,22 49.702,23.213 54.604,19.418 "/>
<path fill="#FFE12C" d="M22.662,23.438L32,20.553L43.644,22c0,0,7.339,0.84,10.96-2.582L31.437,17.16l-20.892,3.596
	C15.201,24.643,22.662,23.438,22.662,23.438z"/>
<polygon fill="#F9C802" points="10.545,20.756 10.545,27.766 22.211,30.994 22.662,23.438 "/>
<polygon fill="#F59E01" points="43.644,22 43.808,28.68 53.831,25.721 54.604,19.418 "/>
<path fill="#FFE12C" d="M37.254,17.338c0,0-0.04-6.99,6.77-13.109c0,0-4.144,1.473-6.059,1.1C35.593,4.867,34.849,2,34.849,2
	s-5.843,12.594-4.131,14.246C32.43,17.896,37.254,17.338,37.254,17.338z"/>
<path fill="#F9C802" d="M28.446,21.361c0,0-3.888-7.971-12.174-12.166c0,0,6.468-0.65,8.04-1.402
	c1.947-0.93,3.013-3.373,3.013-3.373s7.22,12.639,6.593,14.545S28.446,21.361,28.446,21.361z"/>
<path fill="#F59E01" d="M32.583,20.463c0,0-6.058,2.359-13.895,2.359c-16.366,0-18.731-11.867-2.532-10.703
	C29.48,13.074,32.583,20.463,32.583,20.463z"/>
<path fill="#F59E01" d="M31.453,20.426c0,0,7.201,0.559,13.916-1.145c14.024-3.559,8.815-14.24-4.357-9.723
	C30.178,13.273,31.453,20.426,31.453,20.426z"/>
<path fill="#AB5C10" d="M32.583,20.465c0,0-3.778,1.471-8.666,1.471c-10.208,0-11.683-7.4-1.58-6.676
	C30.648,15.855,32.583,20.465,32.583,20.465z"/>
<path fill="#AB5C10" d="M32.58,20.457c0,0,5.021,0.389,9.704-0.799c9.779-2.48,6.147-9.93-3.037-6.779
	C31.691,15.469,32.58,20.457,32.58,20.457z"/>
</svg>
