<?xml version="1.0" encoding="utf-8"?>
<!-- Generator: Adobe Illustrator 15.0.0, SVG Export Plug-In . SVG Version: 6.00 Build 0)  -->
<!DOCTYPE svg PUBLIC "-//W3C//DTD SVG 1.1//EN" "http://www.w3.org/Graphics/SVG/1.1/DTD/svg11.dtd">
<svg version="1.1" id="Layer_1" xmlns="http://www.w3.org/2000/svg" xmlns:xlink="http://www.w3.org/1999/xlink" x="0px" y="0px"
	 width="64px" height="64px" viewBox="0 0 64 64" enable-background="new 0 0 64 64" xml:space="preserve">
<rect x="30.5" y="32" fill="#BEC3CF" width="3" height="30"/>
<path fill="#F9C802" d="M31.997,55.244c0,0-1.397-24.706-1.397-25.321c0-2.26,2.797-2.26,2.797,0
	C33.396,30.539,31.997,55.244,31.997,55.244z"/>
<path fill="#F9C802" d="M30.972,27.199c0,0-8.764,1.408-9.375,1.408c-1.429,0-1.429-2.816,0-2.816
	C22.208,25.791,30.972,27.199,30.972,27.199z"/>
<path fill="#F9C802" d="M31.273,27.927c0,0-5.209,7.233-5.642,7.667c-1.405,1.414-3.384-0.578-1.978-1.988
	C24.086,33.168,31.273,27.927,31.273,27.927z"/>
<path fill="#F9B700" d="M30.289,27.894c0,0-14.104,7.252-15.124,7.667c-2.202,0.896-3.25-1.715-1.047-2.609
	C15.138,32.537,30.289,27.894,30.289,27.894z"/>
<path fill="#F9B700" d="M31.277,28.904c0,0-4.877,15.167-5.307,16.184c-0.736,1.744-3.311,0.643-2.576-1.1
	C23.825,42.971,31.277,28.904,31.277,28.904z"/>
<path fill="#F59E01" d="M23.282,35.984c0,0-6.229,8.258-6.731,8.764c-1.466,1.477-3.443-0.518-1.978-1.992
	C15.075,42.25,23.282,35.984,23.282,35.984z"/>
<path fill="#F59E01" d="M19.679,27.226c0,0-10.207,1.408-10.918,1.408c-2.348,0-2.349-2.814-0.002-2.814
	C9.472,25.818,19.679,27.226,19.679,27.226z"/>
<path fill="#F59E01" d="M20.924,49.355c0-2.193,3.271-2.193,3.271,0C24.195,51.547,20.924,51.549,20.924,49.355z"/>
<path fill="#F59E01" d="M8.418,36.342c0-2.191,3.271-2.191,3.271,0C11.689,38.537,8.418,38.537,8.418,36.342z"/>
<path fill="#F9C802" d="M33.027,27.199c0,0,8.764,1.408,9.375,1.408c1.428,0,1.428-2.816,0-2.816
	C41.791,25.791,33.027,27.199,33.027,27.199z"/>
<path fill="#F9C802" d="M32.726,27.927c0,0,5.209,7.233,5.642,7.667c1.405,1.414,3.384-0.578,1.978-1.988
	C39.913,33.168,32.726,27.927,32.726,27.927z"/>
<path fill="#F9B700" d="M33.711,27.894c0,0,14.104,7.252,15.124,7.667c2.203,0.896,3.25-1.715,1.048-2.609
	C48.861,32.537,33.711,27.894,33.711,27.894z"/>
<path fill="#F9B700" d="M32.722,28.904c0,0,4.877,15.167,5.307,16.184c0.736,1.744,3.311,0.643,2.576-1.1
	C40.175,42.971,32.722,28.904,32.722,28.904z"/>
<path fill="#F59E01" d="M40.718,35.984c0,0,6.229,8.258,6.731,8.764c1.466,1.477,3.445-0.518,1.978-1.992
	C48.925,42.25,40.718,35.984,40.718,35.984z"/>
<path fill="#F59E01" d="M44.32,27.226c0,0,10.207,1.408,10.92,1.408c2.346,0,2.348-2.814,0-2.814
	C54.527,25.818,44.32,27.226,44.32,27.226z"/>
<path fill="#F59E01" d="M43.076,49.355c0-2.193-3.271-2.193-3.271,0C39.805,51.547,43.076,51.549,43.076,49.355z"/>
<path fill="#F59E01" d="M55.581,36.342c0-2.191-3.271-2.191-3.271,0C52.311,38.537,55.581,38.537,55.581,36.342z"/>
<path fill="#F9C802" d="M32.002,26.199c0,0-1.399-8.822-1.399-9.438c0-2.26,2.799-2.26,2.799,0
	C33.4,17.376,32.002,26.199,32.002,26.199z"/>
<path fill="#F9C802" d="M32.726,26.498c0,0,5.209-7.23,5.642-7.666c1.405-1.412,3.384,0.58,1.978,1.99
	C39.913,21.257,32.726,26.498,32.726,26.498z"/>
<path fill="#F9B700" d="M33.711,26.533c0,0,14.104-7.254,15.124-7.668c2.203-0.896,3.25,1.717,1.048,2.611
	C48.861,21.89,33.711,26.533,33.711,26.533z"/>
<path fill="#F9B700" d="M32.722,25.521c0,0,4.877-15.166,5.307-16.187c0.736-1.739,3.311-0.642,2.576,1.103
	C40.175,11.457,32.722,25.521,32.722,25.521z"/>
<path fill="#F59E01" d="M31.999,14.005c0,0-1.399-9.599-1.399-10.269c-0.004-2.314,2.795-2.314,2.795,0
	C33.395,4.406,31.999,14.005,31.999,14.005z"/>
<path fill="#F59E01" d="M40.718,18.443c0,0,6.229-8.258,6.731-8.764c1.466-1.478,3.445,0.516,1.978,1.991
	C48.925,12.177,40.718,18.443,40.718,18.443z"/>
<path fill="#F59E01" d="M43.076,5.07c0,2.195-3.271,2.195-3.271,0C39.805,2.877,43.076,2.877,43.076,5.07z"/>
<path fill="#F59E01" d="M55.581,18.083c0,2.193-3.271,2.193-3.271,0S55.581,15.89,55.581,18.083z"/>
<path fill="#F9C802" d="M31.273,26.498c0,0-5.209-7.23-5.642-7.666c-1.405-1.412-3.384,0.58-1.978,1.99
	C24.086,21.257,31.273,26.498,31.273,26.498z"/>
<path fill="#F9B700" d="M30.289,26.533c0,0-14.104-7.254-15.124-7.668c-2.202-0.896-3.25,1.717-1.047,2.611
	C15.138,21.89,30.289,26.533,30.289,26.533z"/>
<path fill="#F9B700" d="M31.277,25.521c0,0-4.877-15.166-5.307-16.187c-0.736-1.739-3.311-0.642-2.576,1.103
	C23.825,11.457,31.277,25.521,31.277,25.521z"/>
<path fill="#F59E01" d="M23.282,18.443c0,0-6.229-8.258-6.731-8.764c-1.466-1.478-3.443,0.516-1.978,1.991
	C15.075,12.177,23.282,18.443,23.282,18.443z"/>
<path fill="#F59E01" d="M20.924,5.07c0,2.195,3.271,2.195,3.271,0C24.193,2.877,20.924,2.877,20.924,5.07z"/>
<path fill="#F59E01" d="M8.418,18.083c0,2.193,3.271,2.193,3.271,0S8.418,15.89,8.418,18.083z"/>
<polygon fill="#FFE463" points="32,30.703 27.833,33.781 28.392,28.601 23.667,26.501 28.392,24.4 27.833,19.22 32,22.298 
	36.167,19.22 35.607,24.4 40.333,26.501 35.607,28.601 36.167,33.781 "/>
<polygon fill="#FFFFFF" points="32,28.437 30.079,29.857 30.335,27.47 28.157,26.501 30.335,25.532 30.079,23.144 32,24.562 
	33.921,23.144 33.664,25.532 35.843,26.501 33.664,27.47 33.921,29.857 "/>
<path fill="#FFFFFF" d="M32,44.736c0,0-0.752-16.461-0.752-16.871c0-1.507,1.5-1.507,1.5,0C32.749,28.275,32,44.736,32,44.736z"/>
</svg>
