<?xml version="1.0" encoding="utf-8"?>
<!-- Generator: Adobe Illustrator 15.0.0, SVG Export Plug-In . SVG Version: 6.00 Build 0)  -->
<!DOCTYPE svg PUBLIC "-//W3C//DTD SVG 1.1//EN" "http://www.w3.org/Graphics/SVG/1.1/DTD/svg11.dtd">
<svg version="1.1" id="Layer_1" xmlns="http://www.w3.org/2000/svg" xmlns:xlink="http://www.w3.org/1999/xlink" x="0px" y="0px"
	 width="64px" height="64px" viewBox="0 0 64 64" enable-background="new 0 0 64 64" xml:space="preserve">
<path fill="#C21413" d="M27,2l10,19.734C44.76,22.615,54,33,54,40h6C60,22.334,50.336,2,27,2z"/>
<path fill="#75543D" d="M9.238,40.191c2.4-2.234,0.223-11.002-2.873-11.529C-0.248,27.535,4.061,45.012,9.238,40.191z"/>
<path fill="#75543D" d="M44.761,40.191c-2.4-2.234-0.222-11.002,2.874-11.529C54.247,27.535,49.94,45.01,44.761,40.191z"/>
<path fill="#916B50" d="M47,30.469c0-18.375-7.854-12.379-20-12.379c-12.143,0-20-5.996-20,12.379c0,0,0.045,5.193,1.338,12.018
	C10.052,51.516,19.666,58.043,27,58.043c7.335,0,16.95-6.527,18.662-15.557C46.957,35.66,47,30.469,47,30.469z"/>
<path fill="#F5F5F5" d="M43.443,31.84C41.303,37.416,32.596,36.598,31,32.697C32.211,26.432,42.267,25.895,43.443,31.84z"/>
<path fill="#45332C" d="M33.222,31.246c0,4.918,7.111,4.918,7.111,0C40.333,26.682,33.222,26.682,33.222,31.246z"/>
<path fill="#45332C" d="M43.443,31.799c0-5.984-12.443-5.984-12.443,0.947C32.777,27.059,41.666,27.059,43.443,31.799z"/>
<path fill="#F5F5F5" d="M10.555,31.84c2.143,5.576,10.85,4.758,12.445,0.857C21.788,26.432,11.734,25.895,10.555,31.84z"/>
<path fill="#45332C" d="M20.777,31.246c0,4.918-7.111,4.918-7.111,0C13.666,26.682,20.777,26.682,20.777,31.246z"/>
<path fill="#45332C" d="M10.555,31.799c0-5.984,12.445-5.984,12.445,0.945C21.224,27.059,12.333,27.059,10.555,31.799z"/>
<path fill="#F5F5F5" d="M33.659,30.051c0,1.23,1.778,1.23,1.778,0C35.438,28.91,33.659,28.91,33.659,30.051z"/>
<path fill="#F5F5F5" d="M16.104,29.801c0,1.23-1.777,1.23-1.777,0C14.326,28.66,16.104,28.66,16.104,29.801z"/>
<path fill="#664935" d="M42.97,26.334c-3.819-1.574-9.048-1.879-11.731-0.832c-0.567,0.223-0.55,1.578-0.049,1.443
	c3.849-1.049,8.279-1.131,11.924,0.139C43.603,27.254,43.544,26.57,42.97,26.334z"/>
<path fill="#664935" d="M11.029,26.334c3.82-1.574,9.047-1.879,11.732-0.832c0.566,0.223,0.549,1.578,0.048,1.443
	c-3.849-1.049-8.28-1.131-11.923,0.139C10.396,27.254,10.455,26.57,11.029,26.334z"/>
<circle fill="#E6EBEF" cx="57" cy="40" r="5"/>
<path fill="#E81C27" d="M4.063,23.172h45.872C49.936-5.057,4.063-5.057,4.063,23.172z"/>
<path fill="#E6EBEF" d="M45.871,25.406c0.205,8.717-1.008,16.539-3.299,17.637c-2.664,1.275-28.481,1.275-31.146,0
	c-2.29-1.098-3.503-8.92-3.299-17.637H5.342c0,0,0,14.539,1.368,22.191C8.936,60.037,23.618,62,27,62s18.063-1.963,20.289-14.402
	c1.369-7.652,1.369-22.191,1.369-22.191H45.871z"/>
<path fill="#45332C" d="M18.179,43.932c2.879,7.023,14.755,7.088,17.642,0H18.179z"/>
<path fill="#FFFFFF" d="M51.277,19.277C48.205,17.705,39.668,15.381,27,15.381S5.794,17.705,2.723,19.277
	c-1.233,0.633-0.74,8.027,0.37,7.764C7.675,25.955,15.18,23.322,27,23.322c11.818,0,19.324,2.633,23.906,3.719
	C52.018,27.305,52.51,19.91,51.277,19.277z"/>
<path fill="#664935" d="M31.443,39.371c0,2.893-8.889,2.893-8.889,0C22.555,38.707,31.443,38.707,31.443,39.371z"/>
<path fill="#FFFFFF" d="M22.049,42.439c-8.43,3.441-3.771-1.336-5.52-0.615c-2.938,1.209-3.652,3.754-3.098,4.697
	c1.271,2.178,4.896,2.729,9.303,1.162C30.633,44.875,27.755,40.113,22.049,42.439z"/>
<path fill="#FFFFFF" d="M37.469,41.824c-1.748-0.721,2.91,4.057-5.52,0.615c-5.706-2.326-8.584,2.436-0.686,5.244
	c4.407,1.566,8.031,1.016,9.303-1.162C41.121,45.578,40.406,43.033,37.469,41.824z"/>
</svg>
