<?xml version="1.0" encoding="utf-8"?>
<!-- Generator: Adobe Illustrator 15.0.0, SVG Export Plug-In . SVG Version: 6.00 Build 0)  -->
<!DOCTYPE svg PUBLIC "-//W3C//DTD SVG 1.1//EN" "http://www.w3.org/Graphics/SVG/1.1/DTD/svg11.dtd">
<svg version="1.1" id="Layer_1" xmlns="http://www.w3.org/2000/svg" xmlns:xlink="http://www.w3.org/1999/xlink" x="0px" y="0px"
	 width="64px" height="64px" viewBox="0 0 64 64" enable-background="new 0 0 64 64" xml:space="preserve">
<g>
	<rect x="2" y="8" fill="#302C3B" width="60" height="48"/>
	<g>
		<polygon fill="#4E5E67" points="2,8 30,8 14,56 2,56 		"/>
	</g>
	<path fill="#E6EBEF" d="M46,44c0,1.1-0.9,2-2,2H20c-1.1,0-2-0.9-2-2V20c0-1.1,0.9-2,2-2h24c1.1,0,2,0.9,2,2V44z"/>
	<path fill="#FFFFFF" d="M14,44c0,1.1-0.9,2-2,2H2V18h10c1.1,0,2,0.9,2,2V44z"/>
	<path fill="#CFD8DD" d="M50,20c0-1.1,0.9-2,2-2h10v28H52c-1.1,0-2-0.9-2-2V20z"/>
	<path fill="#FFFFFF" d="M10,15c0,0.55-0.45,1-1,1H5c-0.55,0-1-0.45-1-1v-4c0-0.55,0.45-1,1-1h4c0.55,0,1,0.45,1,1V15z"/>
	<path fill="#FFFFFF" d="M20,15c0,0.55-0.45,1-1,1h-4c-0.55,0-1-0.45-1-1v-4c0-0.55,0.45-1,1-1h4c0.55,0,1,0.45,1,1V15z"/>
	<path fill="#E6EBEF" d="M30,15c0,0.55-0.45,1-1,1h-4c-0.55,0-1-0.45-1-1v-4c0-0.55,0.45-1,1-1h4c0.55,0,1,0.45,1,1V15z"/>
	<path fill="#E6EBEF" d="M40,15c0,0.55-0.449,1-1,1h-4c-0.551,0-1-0.45-1-1v-4c0-0.55,0.449-1,1-1h4c0.551,0,1,0.45,1,1V15z"/>
	<path fill="#CFD8DD" d="M50,15c0,0.55-0.449,1-1,1h-4c-0.551,0-1-0.45-1-1v-4c0-0.55,0.449-1,1-1h4c0.551,0,1,0.45,1,1V15z"/>
	<path fill="#CFD8DD" d="M60,15c0,0.55-0.449,1-1,1h-4c-0.551,0-1-0.45-1-1v-4c0-0.55,0.449-1,1-1h4c0.551,0,1,0.45,1,1V15z"/>
	<path fill="#FFFFFF" d="M10,53c0,0.551-0.45,1-1,1H5c-0.55,0-1-0.449-1-1v-4c0-0.551,0.45-1,1-1h4c0.55,0,1,0.449,1,1V53z"/>
	<path fill="#FFFFFF" d="M20,53c0,0.551-0.45,1-1,1h-4c-0.55,0-1-0.449-1-1v-4c0-0.551,0.45-1,1-1h4c0.55,0,1,0.449,1,1V53z"/>
	<path fill="#E6EBEF" d="M30,53c0,0.551-0.45,1-1,1h-4c-0.55,0-1-0.449-1-1v-4c0-0.551,0.45-1,1-1h4c0.55,0,1,0.449,1,1V53z"/>
	<path fill="#E6EBEF" d="M40,53c0,0.551-0.449,1-1,1h-4c-0.551,0-1-0.449-1-1v-4c0-0.551,0.449-1,1-1h4c0.551,0,1,0.449,1,1V53z"/>
	<path fill="#CFD8DD" d="M50,53c0,0.551-0.449,1-1,1h-4c-0.551,0-1-0.449-1-1v-4c0-0.551,0.449-1,1-1h4c0.551,0,1,0.449,1,1V53z"/>
	<path fill="#CFD8DD" d="M60,53c0,0.551-0.449,1-1,1h-4c-0.551,0-1-0.449-1-1v-4c0-0.551,0.449-1,1-1h4c0.551,0,1,0.449,1,1V53z"/>
</g>
</svg>
