<?xml version="1.0" encoding="utf-8"?>
<!-- Generator: Adobe Illustrator 15.0.0, SVG Export Plug-In . SVG Version: 6.00 Build 0)  -->
<!DOCTYPE svg PUBLIC "-//W3C//DTD SVG 1.1//EN" "http://www.w3.org/Graphics/SVG/1.1/DTD/svg11.dtd">
<svg version="1.1" id="Layer_1" xmlns="http://www.w3.org/2000/svg" xmlns:xlink="http://www.w3.org/1999/xlink" x="0px" y="0px"
	 width="64px" height="64px" viewBox="0 0 64 64" enable-background="new 0 0 64 64" xml:space="preserve">
<path fill="#302C3B" d="M37.973,4.741l7.199,7.465c6.515-9.611,15.735,17.966,9.465,31.089v9.873
	C68.726,31.439,62.287-6.392,37.973,4.741z"/>
<path fill="#302C3B" d="M12.845,9.305L25.312,5.3C29.681-2.154,10.846,4.714,12.845,9.305z"/>
<path fill="#B00505" d="M55.534,15.188C43.862,1.054,3.08,22.004,3.08,22.004v29.338L29.548,61.99c0,0,25.986,0.718,25.986-10.188
	V15.188z"/>
<path opacity="0.5" fill="#302C3B" d="M55.534,15.188c0,0-7.572-14.853-37.436,37C49.907,55,47.321,15.961,55.534,20.586V15.188z"/>
<path fill="#E03636" d="M2.909,35.035v18.466c0,7.112,7.77,8.489,17.35,8.489h9.109c9.581,0,17.348-1.377,17.348-8.489V40.608
	C45.92,53.013,6.321,66.046,2.909,35.035z"/>
<path fill="#E03636" d="M3.734,13.891c11-13.768,46.509-12.837,51.8,1.297c-12.202-8.823-2.215,37-36.174,37
	C-2.028,52.188,1.419,16.79,3.734,13.891z"/>
<rect x="7.296" y="38.589" fill="#B00505" width="8.924" height="2"/>
<rect x="26.799" y="38.589" fill="#B00505" width="8.924" height="2"/>
<polygon fill="#302C3B" points="34.666,53.667 27.858,57.261 27.858,39.589 34.666,39.589 "/>
<path fill="#E6EBEF" d="M26.265,44.433v7.188h9.992v-7.188H26.265z M35.01,50.272h-2.836v-2.422h-1.823v2.422h-2.836V45.78h7.495
	V50.272z"/>
<polygon fill="#302C3B" points="15.165,53.667 8.355,57.261 8.355,39.589 15.165,39.589 "/>
<path fill="#E6EBEF" d="M6.763,44.433v7.188h9.992v-7.188H6.763z M15.507,50.272H12.67v-2.422h-1.823v2.422H8.013V45.78h7.494
	V50.272z"/>
</svg>
