<?xml version="1.0" encoding="utf-8"?>
<!-- Generator: Adobe Illustrator 16.2.0, SVG Export Plug-In . SVG Version: 6.00 Build 0)  -->
<!DOCTYPE svg PUBLIC "-//W3C//DTD SVG 1.1//EN" "http://www.w3.org/Graphics/SVG/1.1/DTD/svg11.dtd">
<svg version="1.1" id="Layer_1" xmlns="http://www.w3.org/2000/svg" xmlns:xlink="http://www.w3.org/1999/xlink" x="0px" y="0px"
	 width="64px" height="64px" viewBox="0 0 64 64" enable-background="new 0 0 64 64" xml:space="preserve">
<rect x="2" y="2" fill="#013366" width="60" height="60"/>
<path fill="#014D87" d="M5.3,11c0,4.029,5.838,7.237,6.831,10.953c1.028,3.845-2.394,9.536-0.446,12.901
	c1.976,3.415,8.633,3.285,11.404,6.057c2.771,2.771,2.641,9.429,6.056,11.404c3.366,1.947,9.058-1.474,12.902-0.446
	C45.763,52.862,48.971,58.7,53,58.7c3.309,0,6.063-3.932,9-5.89V2H11.189C9.231,4.937,5.3,7.692,5.3,11z"/>
<path fill="#006DAE" d="M62,2H23.207c0.221,2.878,1.593,6.068,1.593,9c0,4.068-2.654,8.636-1.188,12.173
	c1.52,3.667,6.683,5.006,9.446,7.769c2.763,2.764,4.101,7.926,7.769,9.446C44.363,41.854,48.932,39.2,53,39.2
	c2.932,0,6.122,1.372,9,1.593V2z"/>
<polygon fill="#CFD8DD" points="41,21 31,41 51,41 "/>
<path fill="#E6EBEF" d="M37.541,16.494c-4.683,4.732,2.382,11.56,6.887,7.006C49.2,18.676,42.003,11.982,37.541,16.494z"/>
<path fill="#CFD8DD" d="M39.094,21.908c-2.765-2.793-1.553-5.414-1.553-5.414c-4.683,4.732,2.382,11.56,6.887,7.006
	C44.428,23.5,41.856,24.701,39.094,21.908z"/>
<path fill="#E6EBEF" d="M42.541,24.494c-4.683,4.732,2.382,11.56,6.887,7.006C54.2,26.676,47.003,19.982,42.541,24.494z"/>
<path fill="#CFD8DD" d="M44.094,29.908c-2.765-2.793-1.553-5.414-1.553-5.414c-4.683,4.732,2.382,11.56,6.887,7.006
	C49.428,31.5,46.856,32.701,44.094,29.908z"/>
<circle fill="#FFFFFF" cx="53" cy="11" r="7"/>
<rect x="31" y="45" fill="#AB8A7B" width="20" height="17"/>
<path fill="#EBBB96" d="M37,55c0,0,0,5,4,5s4-5,4-5H37z"/>
<polygon fill="#967668" points="31,45 31,62 35,62 35,47 47,47 47,62 51,62 51,45 "/>
<path fill="#E6EBEF" d="M47.541,32.494c-4.683,4.732,2.382,11.56,6.887,7.006C59.2,34.676,52.003,27.982,47.541,32.494z"/>
<path fill="#E6EBEF" d="M32.541,24.494c-4.683,4.732,2.382,11.56,6.887,7.006C44.2,26.676,37.003,19.982,32.541,24.494z"/>
<path fill="#CFD8DD" d="M34.094,29.908c-2.765-2.793-1.553-5.414-1.553-5.414c-4.683,4.732,2.382,11.56,6.887,7.006
	C39.428,31.5,36.856,32.701,34.094,29.908z"/>
<path fill="#CFD8DD" d="M49.094,37.908c-2.765-2.793-1.553-5.414-1.553-5.414c-4.683,4.732,2.382,11.56,6.887,7.006
	C54.428,39.5,51.856,40.701,49.094,37.908z"/>
<path fill="#E6EBEF" d="M37.541,32.494c-4.683,4.732,2.382,11.56,6.887,7.006C49.2,34.676,42.003,27.982,37.541,32.494z"/>
<path fill="#CFD8DD" d="M39.094,37.908c-2.765-2.793-1.553-5.414-1.553-5.414c-4.683,4.732,2.382,11.56,6.887,7.006
	C44.428,39.5,41.856,40.701,39.094,37.908z"/>
<path fill="#E6EBEF" d="M27.541,32.494c-4.683,4.732,2.382,11.56,6.887,7.006C39.2,34.676,32.003,27.982,27.541,32.494z"/>
<path fill="#7AB51D" d="M12,62c0-10.044-2-38.209,9.114-38.209c3.907,0,4.886,4.48,4.886,4.48S26,22,21.114,22
	C6.912,22,10.371,62,10.371,62H12z"/>
<path fill="#529320" d="M18,25c0,0-2.201,9-6,37h2c0,0,4.375-34.837,5.904-39.897L18,25z"/>
<path fill="#CFD8DD" d="M29.094,37.908c-2.765-2.793-1.553-5.414-1.553-5.414c-4.683,4.732,2.382,11.56,6.887,7.006
	C34.428,39.5,31.856,40.701,29.094,37.908z"/>
<path fill="#1A1626" d="M43,53c0-1.104-0.896-2-2-2s-2,0.896-2,2c-1.149,0.157-2,0.693-2,2c0,2.209,1.791,4,4,4s4-1.791,4-4
	C45,53.693,44.149,53.157,43,53z"/>
<path fill="#529320" d="M7.013,22c0,0,3.987,16.103,1.276,40H10.5C10.5,62,12.845,37.135,7.013,22z"/>
<path fill="#529320" d="M6,22c0,0-2,3-2,40h2c0,0-1-32,1-42L6,22z"/>
<path fill="#7AB51D" d="M22,30c-6.305,18.699-6.546,32-6.546,32H14C14,62,15.022,41.334,22,30z"/>
<path fill="#297124" d="M8.401,62c0,0,2.699-19.818-3.363-31.918c-0.085-0.184,0,0,0,0C8.782,48.733,6.609,62,6.609,62H8.401z"/>
<rect x="24" y="39" fill="#AB8A7B" width="34" height="6"/>
<rect x="24" y="39" fill="#967668" width="4" height="6"/>
<rect x="54" y="39" fill="#967668" width="4" height="6"/>
<path fill="#FBB855" d="M18,6.5c0-0.625-4.065,1.741-4,1.5c0.285-1.065,4-3.125,4-4C18,3.375,7.466,9.223,5.562,23.682
	c0,0,1.64-3.858,4.813-5.935C14,15.375,18,13.474,18,13c0-0.829-8.571,4.252-8.571,3.749C9.429,15.638,18,11.584,18,11
	c0-0.833-7.714,3.215-7.714,2.751C10.286,12.943,18,9.034,18,8.5c0-0.792-6,2.606-6,2.25C12,9.807,18,6.922,18,6.5z"/>
<path fill="#FBB855" d="M30,9.5c0-0.625-5.143,2.25-5.143,2C24.857,10.563,30,7.458,30,7c0-0.625-9.708,2.854-12,18
	c0,0,1.816-2.835,4.375-4.253C27.333,18,30.335,17.086,30,16.751c-0.849-0.849-8.571,3.501-8.571,2.998
	C21.429,18.638,30,14.584,30,14c0-0.833-7.714,3.215-7.714,2.751c0-0.808,7.714-4.717,7.714-5.251c0-0.792-6,2.606-6,2.25
	C24,12.807,30,9.922,30,9.5z"/>
<rect x="31" y="45" fill="#785647" width="20" height="2"/>
</svg>
