<?xml version="1.0" encoding="utf-8"?>
<!-- Generator: Adobe Illustrator 15.0.0, SVG Export Plug-In . SVG Version: 6.00 Build 0)  -->
<!DOCTYPE svg PUBLIC "-//W3C//DTD SVG 1.1//EN" "http://www.w3.org/Graphics/SVG/1.1/DTD/svg11.dtd">
<svg version="1.1" id="Layer_1" xmlns="http://www.w3.org/2000/svg" xmlns:xlink="http://www.w3.org/1999/xlink" x="0px" y="0px"
	 width="64px" height="64px" viewBox="0 0 64 64" enable-background="new 0 0 64 64" xml:space="preserve">
<path fill="#4E5E67" d="M13.128,40.238v6.813c0,14.035,37.743,14.035,37.743,0v-6.813H13.128z"/>
<polygon fill="#302C3B" points="62,35.502 32,49.004 2,35.502 32,22 "/>
<path fill="#FFE12C" d="M31.869,34.885c-4.586,2.064-14.586,6.564-15,6.752c-0.209,0.094-0.361,0.318-0.361,0.617
	c0,2.25,0,4.502,0,6.75c0,0.826,0.982,0.826,0.982,0c0-2.098,0-4.197,0-6.295c4.467-2.01,14.227-6.402,14.641-6.59
	C32.725,35.852,32.469,34.615,31.869,34.885z"/>
<ellipse fill="#FFE12C" cx="17" cy="49.004" rx="1.875" ry="2.445"/>
<path fill="#FFE12C" d="M17,62c1.035,0,1.875-0.547,1.875-1.223V49.004h-3.75v11.773C15.125,61.453,15.965,62,17,62z"/>
<path fill="#302C3B" d="M18.277,49.211c-0.063,0.049-0.129,0.092-0.197,0.133v12.432c0.068-0.031,0.135-0.066,0.197-0.105V49.211z"
	/>
<path fill="#302C3B" d="M17.49,49.568c-0.064,0.016-0.129,0.025-0.195,0.035v12.381c0.066-0.008,0.131-0.018,0.195-0.029V49.568z"/>
<path fill="#302C3B" d="M16.705,49.604c-0.066-0.01-0.133-0.02-0.197-0.035v12.387c0.064,0.012,0.131,0.021,0.197,0.029V49.604z"/>
<path fill="#302C3B" d="M15.92,49.344c-0.07-0.041-0.135-0.084-0.197-0.133V61.67c0.063,0.039,0.127,0.074,0.197,0.105V49.344z"/>
</svg>
