<?xml version="1.0" encoding="utf-8"?>
<!-- Generator: Adobe Illustrator 15.0.0, SVG Export Plug-In . SVG Version: 6.00 Build 0)  -->
<!DOCTYPE svg PUBLIC "-//W3C//DTD SVG 1.1//EN" "http://www.w3.org/Graphics/SVG/1.1/DTD/svg11.dtd">
<svg version="1.1" id="Layer_1" xmlns="http://www.w3.org/2000/svg" xmlns:xlink="http://www.w3.org/1999/xlink" x="0px" y="0px"
	 width="64px" height="64px" viewBox="0 0 64 64" enable-background="new 0 0 64 64" xml:space="preserve">
<path fill="#F9B700" d="M32,30c-4,0-4-2-4-2h-2c0,0,0,4,6,4s6-4,6-4h-2C36,28,36,30,32,30z"/>
<path fill="#F9C802" d="M34,36h-4v-5.907c0-2.457,4-2.457,4,0V36z"/>
<path fill="#F59E01" d="M32.063,28.25C32.604,28.536,33,29.065,33,29.838v6.157h1v-5.907C34,28.885,33.041,28.274,32.063,28.25z"/>
<ellipse fill="#EA8800" cx="32" cy="48" rx="14" ry="14"/>
<path fill="#F9C802" d="M32,36c6.633,0,12,5.375,12,12s-5.367,12-12,12c-6.629,0-12-5.375-12-12S25.371,36,32,36z"/>
<g>
	<polygon fill="#FFE12C" points="30.457,45.785 28.91,43.545 22,44.602 27.004,46.311 	"/>
	<polygon fill="#F59E01" points="33.543,45.785 35.09,43.545 32.002,36.961 32.002,42.498 	"/>
	<polygon fill="#EA8800" points="34.5,48.871 37,49.727 42,44.602 36.998,46.311 	"/>
	<polygon fill="#F9B700" points="32.002,50.777 32.002,53.547 38.18,56.961 35.088,52.488 	"/>
	<polygon fill="#FEEC9A" points="29.502,48.871 27.002,49.727 25.82,56.961 28.912,52.488 	"/>
	<polygon fill="#FEEC9A" points="32.002,42.498 32.002,36.961 28.91,43.545 30.457,45.785 	"/>
	<polygon fill="#FFE12C" points="36.998,46.311 42,44.602 35.09,43.545 33.543,45.785 	"/>
	<polygon fill="#F59E01" points="34.5,48.871 35.088,52.488 38.18,56.961 37,49.727 	"/>
	<polygon fill="#F59E01" points="28.912,52.488 25.82,56.961 32.002,53.547 32.002,50.777 	"/>
	<polygon fill="#F9B700" points="27.004,46.311 22,44.602 27.002,49.727 29.502,48.871 	"/>
</g>
<rect x="38" y="2" fill="#E6EBEF" width="4" height="24"/>
<rect x="22" y="2" fill="#E6EBEF" width="4" height="24"/>
<rect x="26" y="2" fill="#E81C27" width="12" height="24"/>
<polygon fill="#006DAE" points="42,2 42,26 48,18 48,2 "/>
<polygon fill="#006DAE" points="22,2 22,26 16,18 16,2 "/>
<rect x="22" y="26" fill="#8A6859" width="20" height="1"/>
<rect x="22" y="27" fill="#785647" width="20" height="1"/>
<path fill-rule="evenodd" clip-rule="evenodd" fill="#FEEC9A" d="M30.295,30.341c0.059,0.57,0.84-0.547,1.631-1.506
	C32.437,28.216,30.115,28.624,30.295,30.341z"/>
</svg>
