<?xml version="1.0" encoding="utf-8"?>
<!-- Generator: Adobe Illustrator 15.0.0, SVG Export Plug-In . SVG Version: 6.00 Build 0)  -->
<!DOCTYPE svg PUBLIC "-//W3C//DTD SVG 1.1//EN" "http://www.w3.org/Graphics/SVG/1.1/DTD/svg11.dtd">
<svg version="1.1" id="Layer_1" xmlns="http://www.w3.org/2000/svg" xmlns:xlink="http://www.w3.org/1999/xlink" x="0px" y="0px"
	 width="64px" height="64px" viewBox="0 0 64 64" enable-background="new 0 0 64 64" xml:space="preserve">
<path fill="#D47706" d="M32.102,2c-0.004,0-0.016,0-0.016,0S19.449,2,17.375,6.904c-0.816,1.93-0.117,7.615,0.127,9.383
	c1.701-3.199,7.453-5.553,14.289-5.553c7.209,0,13.213,2.617,14.531,6.086h0.27V7.1C46.592,4.723,40.313,2,32.102,2z"/>
<path fill="#F9B700" d="M34.117,2.055c0,0,17.883-0.922,17.883,16.664c0,17.588-31.225,43.186-31.225,43.186l-4.896-11.139
	C15.879,50.766,70.037,6.355,34.117,2.055z"/>
<path fill="#F59E01" d="M40.168,42.549c-3.587,4.461-6.655,7.533-10.106,10.912l-6.399-9.592c3.167-2.938,4.885-4.467,8.505-8.496
	L40.168,42.549z"/>
<path fill="#F9C802" d="M29.756,2.107c0,0-17.756-0.879-17.756,16.707C12,36.402,43.225,62,43.225,62l4.898-11.139
	C48.123,50.861-6.162,6.406,29.756,2.107z"/>
</svg>
