<?xml version="1.0" encoding="utf-8"?>
<!-- Generator: Adobe Illustrator 15.0.0, SVG Export Plug-In . SVG Version: 6.00 Build 0)  -->
<!DOCTYPE svg PUBLIC "-//W3C//DTD SVG 1.1//EN" "http://www.w3.org/Graphics/SVG/1.1/DTD/svg11.dtd">
<svg version="1.1" id="Layer_1" xmlns="http://www.w3.org/2000/svg" xmlns:xlink="http://www.w3.org/1999/xlink" x="0px" y="0px"
	 width="64px" height="64px" viewBox="0 0 64 64" enable-background="new 0 0 64 64" xml:space="preserve">
<path fill="#CFD8DD" d="M62,58c0,2.199-1.801,4-4,4H6c-2.201,0-4-1.801-4-4V6c0-2.2,1.799-4,4-4h52c2.199,0,4,1.8,4,4V58z"/>
<path fill="#BEC3CF" d="M62,58c0,2.199-1.801,4-4,4H6L62,6V58z"/>
<path fill="#E6EBEF" d="M60,56c0,2.199-1.801,4-4,4H8c-2.201,0-4-1.801-4-4V8c0-2.2,1.799-4,4-4h48c2.199,0,4,1.8,4,4V56z"/>
<circle fill="#CFD8DD" cx="18.5" cy="21.5" r="8.5"/>
<circle fill="#CFD8DD" cx="46.5" cy="21.5" r="8.5"/>
<circle fill="#CFD8DD" cx="46.5" cy="47.5" r="8.5"/>
<circle fill="#CFD8DD" cx="18.5" cy="47.5" r="8.5"/>
<circle fill="#302C3B" cx="18" cy="20" r="8"/>
<circle fill="#4E5E67" cx="18" cy="20" r="7"/>
<polygon opacity="0.5" fill="#302C3B" points="20,22 17,20 17,13 20,13 "/>
<rect x="17" y="12" fill="#CFD8DD" width="2" height="8"/>
<rect x="17" y="12" fill="#FFFFFF" width="2" height="6"/>
<circle fill="#302C3B" cx="46" cy="20" r="8"/>
<circle fill="#4E5E67" cx="46" cy="20" r="7"/>
<polygon opacity="0.5" fill="#302C3B" points="47.732,21.928 45.133,19.5 50,14 51.732,15 "/>
<rect x="46.999" y="12.536" transform="matrix(0.8661 0.4999 -0.4999 0.8661 14.6952 -21.781)" fill="#CFD8DD" width="2" height="8"/>
<rect x="47.499" y="12.67" transform="matrix(0.8661 0.4999 -0.4999 0.8661 14.3293 -22.1469)" fill="#FFFFFF" width="2" height="6"/>
<circle fill="#302C3B" cx="46" cy="46" r="8"/>
<circle fill="#4E5E67" cx="46" cy="46" r="7"/>
<polygon opacity="0.5" fill="#302C3B" points="46.5,45.135 45.707,48.543 38.779,44.543 40,42.268 "/>
<rect x="41.536" y="40.001" transform="matrix(0.4999 -0.8661 0.8661 0.4999 -16.8365 58.8434)" fill="#CFD8DD" width="2" height="8"/>
<rect x="40.67" y="40.501" transform="matrix(0.4999 -0.8661 0.8661 0.4999 -16.8367 57.8431)" fill="#FFFFFF" width="2" height="5.999"/>
<circle fill="#302C3B" cx="18" cy="46" r="8"/>
<circle fill="#4E5E67" cx="18" cy="46" r="7"/>
<polygon opacity="0.5" fill="#302C3B" points="18,48.375 18,46 25.28,46 25,48.375 "/>
<rect x="18" y="45" fill="#CFD8DD" width="8" height="2"/>
<rect x="20" y="45" fill="#FFFFFF" width="6" height="2"/>
<path fill="#6E8189" d="M54.66,25c0.668-1.154,2.398-0.154,1.732,1S53.994,26.154,54.66,25z"/>
<path fill="#A6E639" d="M35.607,14c0.666-1.154,2.398-0.154,1.732,1C36.672,16.154,34.941,15.154,35.607,14z"/>
<path fill="#A6E639" d="M40,9.607c1.154-0.666,2.154,1.065,1,1.732C39.846,12.006,38.846,10.274,40,9.607z"/>
<path fill="#A6E639" d="M46,8c1.332,0,1.332,2,0,2S44.668,8,46,8z"/>
<path fill="#A6E639" d="M52,9.607c1.154,0.667,0.154,2.398-1,1.732C49.846,10.673,50.846,8.941,52,9.607z"/>
<path fill="#A6E639" d="M37.34,25c0.666,1.154-1.066,2.154-1.732,1S36.672,23.846,37.34,25z"/>
<path fill="#6E8189" d="M56.393,14c0.666,1.154-1.064,2.154-1.732,1C53.994,13.846,55.727,12.846,56.393,14z"/>
<path fill="#A6E639" d="M36,20c0,1.333-2,1.333-2,0S36,18.667,36,20z"/>
<path fill="#6E8189" d="M58,20c0,1.333-2,1.333-2,0S58,18.667,58,20z"/>
<path fill="#6E8189" d="M54.66,51c0.668-1.156,2.398-0.156,1.732,1C55.727,53.152,53.994,52.152,54.66,51z"/>
<path fill="#A6E639" d="M35.607,40c0.666-1.156,2.398-0.156,1.732,1C36.672,42.152,34.941,41.152,35.607,40z"/>
<path fill="#6E8189" d="M40,35.607c1.154-0.666,2.154,1.064,1,1.732C39.846,38.004,38.846,36.273,40,35.607z"/>
<path fill="#6E8189" d="M46,34c1.332,0,1.332,2,0,2S44.668,34,46,34z"/>
<path fill="#6E8189" d="M52,35.607c1.154,0.666,0.154,2.396-1,1.732C49.846,36.672,50.846,34.941,52,35.607z"/>
<path fill="#A6E639" d="M37.34,51c0.666,1.152-1.066,2.152-1.732,1C34.941,50.844,36.672,49.844,37.34,51z"/>
<path fill="#6E8189" d="M56.393,40c0.666,1.152-1.064,2.152-1.732,1C53.994,39.844,55.727,38.844,56.393,40z"/>
<path fill="#A6E639" d="M36,46c0,1.332-2,1.332-2,0S36,44.668,36,46z"/>
<path fill="#6E8189" d="M58,46c0,1.332-2,1.332-2,0S58,44.668,58,46z"/>
<path fill="#6E8189" d="M26.661,51c0.668-1.156,2.398-0.156,1.732,1C27.727,53.152,25.995,52.152,26.661,51z"/>
<path fill="#A6E639" d="M7.608,40c0.666-1.156,2.398-0.156,1.732,1C8.672,42.152,6.942,41.152,7.608,40z"/>
<path fill="#A6E639" d="M12,35.607c1.154-0.666,2.154,1.064,1,1.732C11.846,38.004,10.846,36.273,12,35.607z"/>
<path fill="#A6E639" d="M18,34c1.332,0,1.332,2,0,2S16.668,34,18,34z"/>
<path fill="#A6E639" d="M24,35.607c1.154,0.666,0.154,2.396-1,1.732C21.846,36.672,22.846,34.941,24,35.607z"/>
<path fill="#A6E639" d="M9.34,51c0.666,1.152-1.066,2.152-1.732,1C6.942,50.844,8.672,49.844,9.34,51z"/>
<path fill="#A6E639" d="M28.393,40c0.666,1.152-1.064,2.152-1.732,1C25.995,39.844,27.727,38.844,28.393,40z"/>
<path fill="#A6E639" d="M8,46c0,1.332-2,1.332-2,0S8,44.668,8,46z"/>
<path fill="#A6E639" d="M30,46c0,1.332-2,1.332-2,0S30,44.668,30,46z"/>
<path fill="#6E8189" d="M26.661,25c0.666-1.154,2.398-0.154,1.732,1C27.725,27.154,25.995,26.154,26.661,25z"/>
<path fill="#A6E639" d="M7.608,14c0.666-1.154,2.398-0.154,1.732,1C8.672,16.154,6.942,15.154,7.608,14z"/>
<path fill="#A6E639" d="M12,9.607c1.154-0.666,2.154,1.065,1,1.732C11.846,12.006,10.846,10.274,12,9.607z"/>
<path fill="#A6E639" d="M18,8c1.332,0,1.332,2,0,2C16.667,10,16.667,8,18,8z"/>
<path fill="#6E8189" d="M24,9.607c1.154,0.667,0.154,2.398-1,1.732C21.846,10.673,22.846,8.941,24,9.607z"/>
<path fill="#A6E639" d="M9.34,25c0.666,1.154-1.066,2.154-1.732,1S8.672,23.846,9.34,25z"/>
<path fill="#6E8189" d="M28.393,14c0.666,1.154-1.066,2.154-1.732,1S27.725,12.846,28.393,14z"/>
<path fill="#A6E639" d="M8,20c0,1.333-2,1.333-2,0S8,18.667,8,20z"/>
<path fill="#6E8189" d="M30,20c0,1.333-2,1.333-2,0S30,18.667,30,20z"/>
</svg>
