<?xml version="1.0" encoding="utf-8"?>
<!-- Generator: Adobe Illustrator 15.0.0, SVG Export Plug-In . SVG Version: 6.00 Build 0)  -->
<!DOCTYPE svg PUBLIC "-//W3C//DTD SVG 1.1//EN" "http://www.w3.org/Graphics/SVG/1.1/DTD/svg11.dtd">
<svg version="1.1" id="Layer_1" xmlns="http://www.w3.org/2000/svg" xmlns:xlink="http://www.w3.org/1999/xlink" x="0px" y="0px"
	 width="64px" height="64px" viewBox="0 0 64 64" enable-background="new 0 0 64 64" xml:space="preserve">
<path fill="#CFD8DD" d="M50,58c0,2.199-1.801,4-4,4H18c-2.2,0-4-1.801-4-4V6c0-2.2,1.8-4,4-4h28c2.199,0,4,1.8,4,4V58z"/>
<path fill="#BEC3CF" d="M50,58c0,2.199-1.801,4-4,4H18l2-2L48,8l2-2V58z"/>
<path fill="#E6EBEF" d="M48,56c0,2.199-1.801,4-4,4H20c-2.2,0-4-1.801-4-4V8c0-2.2,1.8-4,4-4h24c2.199,0,4,1.8,4,4V56z"/>
<path fill="#BEC3CF" d="M36,54c0,1.1-0.9,2-2,2h-4c-1.1,0-2-0.9-2-2V10c0-1.1,0.9-2,2-2h4c1.1,0,2,0.9,2,2V54z"/>
<path fill="#99A8AE" d="M34,52c0,1.1-0.9,2-2,2l0,0c-1.1,0-2-0.9-2-2V12c0-1.1,0.9-2,2-2l0,0c1.1,0,2,0.9,2,2V52z"/>
<rect x="40" y="52" fill="#A6E639" width="4" height="2"/>
<rect x="40" y="46" fill="#A6E639" width="4" height="2"/>
<rect x="40" y="40" fill="#A6E639" width="4" height="2"/>
<rect x="40" y="34" fill="#A6E639" width="4" height="2"/>
<rect x="40" y="28" fill="#A6E639" width="4" height="2"/>
<rect x="40" y="22" fill="#6E8189" width="4" height="2"/>
<rect x="40" y="16" fill="#6E8189" width="4" height="2"/>
<rect x="40" y="10" fill="#6E8189" width="4" height="2"/>
<rect x="20" y="46" fill="#A6E639" width="4" height="2"/>
<rect x="20" y="52" fill="#A6E639" width="4" height="2"/>
<rect x="20" y="40" fill="#A6E639" width="4" height="2"/>
<rect x="20" y="34" fill="#A6E639" width="4" height="2"/>
<rect x="20" y="28" fill="#A6E639" width="4" height="2"/>
<rect x="20" y="22" fill="#6E8189" width="4" height="2"/>
<rect x="20" y="16" fill="#6E8189" width="4" height="2"/>
<rect x="20" y="10" fill="#6E8189" width="4" height="2"/>
<path fill="#302C3B" d="M42,28c0,1.099-0.9,2-2,2H24c-1.1,0-2-0.9-2-2v-4c0-1.1,0.9-2,2-2h16c1.1,0,2,0.9,2,2V28z"/>
<rect x="24" y="24" fill="#4E5E67" width="16" height="2"/>
</svg>
