<?xml version="1.0" encoding="utf-8"?>
<!-- Generator: Adobe Illustrator 15.0.0, SVG Export Plug-In . SVG Version: 6.00 Build 0)  -->
<!DOCTYPE svg PUBLIC "-//W3C//DTD SVG 1.1//EN" "http://www.w3.org/Graphics/SVG/1.1/DTD/svg11.dtd">
<svg version="1.1" id="Layer_1" xmlns="http://www.w3.org/2000/svg" xmlns:xlink="http://www.w3.org/1999/xlink" x="0px" y="0px"
	 width="64px" height="64px" viewBox="0 0 64 64" enable-background="new 0 0 64 64" xml:space="preserve">
<path fill="#6E8189" d="M41.339,56.49c-1.916,0-1.916-4.414,0-4.414C43.254,52.076,43.254,56.49,41.339,56.49z"/>
<path fill="#E6EBEF" d="M42.083,54.631c0.025-2.361-0.617-6.739-0.617-6.739l-6.685-0.903L33.053,62h7.397
	c0,0-0.107-2.066-0.212-4.229C41.224,57.512,42.065,56.25,42.083,54.631z"/>
<path fill="#6E8189" d="M38.154,51.144c0.768,0,1.838,0.992,1.924,3.14c0.024,0.591,0.057,1.322,0.094,2.096
	c0.247-0.547,0.442-1.305,0.442-2.352c0-0.925-0.713-3.639-0.713-3.639l-2.534-0.151l0.185,0.906
	C37.699,51.144,37.915,51.144,38.154,51.144z"/>
<path fill="#99A8AE" d="M38.054,62H32.51l0.726-4.567c1.733,0.736,4.817,0.963,4.817-3.079V62z"/>
<path fill="#99A8AE" d="M29.326,49.034c0,0,1.897,4.996,2.774,6.949c1.42,3.158,3.974,1.345,4.005-1.564
	c0.025-2.361-1.324-7.431-1.324-7.431L29.326,49.034z"/>
<path fill="#E6EBEF" d="M33.408,57.178c-2.526,0-2.526-5.788,0-5.788C35.935,51.39,35.935,57.178,33.408,57.178z"/>
<path fill="#99A8AE" d="M32.858,56.91c-1.916,0-1.916-5.254,0-5.254C34.773,51.656,34.773,56.91,32.858,56.91z"/>
<path fill="#BEC3CF" d="M20.315,4.942C43.83-3.817,46.979,9.773,46.979,9.773l-1.626,0.553l4.188,23.606l2.044,0.543
	c0,0,5.194,15.212-21.117,15.212C19.342,42.711,8.828,13.23,20.315,4.942z"/>
<path fill="#E6EBEF" d="M28.857,8.288c-1.241-3.88,14.271-8.835,16.94,1.283l-0.519,2.658l1.971,0.005l0.541,3.085l-0.842-0.056
	l0.07,2.745l1.126,0.021l0.625,2.94l-0.808-0.054l0.226,2.625l0.999,0.097l0.521,2.876l-0.731-0.108l0.19,2.922l1.084,0.021
	l0.563,2.522l-0.859-0.094l0.42,3.224c2.902,13.522-13.953,11.968-14.378,7.657C35.146,34.043,32.334,19.157,28.857,8.288z"/>
<path fill="#99A8AE" d="M20.315,4.942c0,0-10.388,6.111-7.942,14.842l0.527-0.469l0.88,2.423l-0.754,0.7l0.628,2.871l0.599-0.596
	l0.818,2.236l-0.943,0.728l0.761,2.878l0.691-0.547l0.742,2.319l-0.742,0.746l0.668,2.72l0.639-0.568l0.747,2.272l-0.917,0.767
	l0.719,2.704l0.739-0.604l0.705,2.324l-0.803,0.859c0,0,0.539,6.141,12.879,6.141c-4.96-3.51-5.718-6.188-6.444-8.776
	c-1.872-6.681-5.232-18.647-7.458-26.732C15.507,8.563,20.315,4.942,20.315,4.942z"/>
<path fill="#E6EBEF" d="M16.283,8.288c-2.283,1.992-4.797,6.49-3.8,10.449l0.746-0.173c1.1,4.952,4.709,19.433,5.658,24.472
	c0.041,0.214-0.285,0.68-0.197,0.88c0.659,1.499,3.165,3.423,5.486,3.94c-3.826-2.791-3.477-4.475-3.1-5.504
	c-3.298-5.504-5.026-19.243-6.329-25.855C14.343,14.447,14.322,12.501,16.283,8.288z"/>
<path fill="#302C3B" d="M36.093,48.477c6.007-2.7,5.654-3.232,5.542-7.565c-0.078-3.042-2.12-1.166-2.259,0.399
	c-0.14,1.567,0.138,2.654-0.35,3.834C38.118,47.344,35.459,48.76,36.093,48.477z"/>
<path fill="#302C3B" d="M40.306,47.582c3.331-0.872,4.631-2.805,4.519-7.137c-0.078-3.044-1.815-1.732-1.677,0.1
	c0.119,1.566,0.173,2.887-0.314,4.065C41.926,46.811,39.632,47.758,40.306,47.582z"/>
<path fill="#302C3B" d="M43.694,46.949c3.61-2.139,4.519-3.05,4.029-6.807c-0.394-3.021-1.642-1.764-1.502,0.069
	c0.119,1.567,0.068,2.944-0.383,3.98C45.383,45.244,43.1,47.3,43.694,46.949z"/>
<path fill="#302C3B" d="M46.663,45.749c2.82-2.071,3.636-2.78,3.366-6.104c-0.245-3.035-1.431-1.904-1.291-0.071
	c0.119,1.567,0.104,2.522-0.233,3.437C48.179,43.899,46.109,46.155,46.663,45.749z"/>
<path fill="#302C3B" d="M28.422,3.83c2.392,0,3.642,1.04,4.592,2.792c1.128,2.083-0.985,2.14-1.775,0.58
	C29.932,4.617,27.724,3.83,28.422,3.83z"/>
<path fill="#302C3B" d="M32.334,3.013c1.646,0,3.248,1.322,4.197,3.074c1.128,2.082-1.094,2.185-1.774,0.579
	C33.495,3.696,31.636,3.013,32.334,3.013z"/>
<path fill="#302C3B" d="M35.644,3.013c1.438,0,2.885,1.456,3.713,2.986c0.985,1.818-1.037,1.938-1.549,0.505
	C36.687,3.37,35.033,3.013,35.644,3.013z"/>
<path fill="#302C3B" d="M38.532,3.118c0.769,0,2.672,1.443,3.419,2.821c0.889,1.637-0.955,1.752-1.395,0.455
	C39.623,3.637,37.982,3.118,38.532,3.118z"/>
<path fill="#302C3B" d="M45.798,9.571c0,0-11.877-1.479-23.999,5.334c-2.546,1.431-1.686,4.831,1.048,3.248
	c10.235-5.932,23.37-5.357,23.37-5.357S46.474,11.121,45.798,9.571z"/>
<path fill="#302C3B" d="M46.949,15.263c0,0-11.545-1.413-23.667,5.4c-2.545,1.431-2.017,4.766,0.718,3.181
	c10.235-5.932,23.369-5.356,23.369-5.356S47.626,16.812,46.949,15.263z"/>
<path fill="#302C3B" d="M47.963,20.914c0,0-11.144-1.68-23.265,5.133c-2.546,1.431-2.419,5.032,0.314,3.447
	c10.234-5.932,23.369-5.357,23.369-5.357S48.641,22.463,47.963,20.914z"/>
<path fill="#302C3B" d="M48.977,26.404c0,0-11.371-1.279-23.492,5.535c-2.546,1.431-1.568,4.563,1.165,2.978
	c10.236-5.931,22.746-5.289,22.746-5.289S49.651,27.953,48.977,26.404z"/>
<path fill="#302C3B" d="M49.954,31.775c0,0-12.156-0.944-22.985,5.035c-2.555,1.41-1.673,4.562,1.061,2.977
	c10.235-5.932,22.345-4.788,22.345-4.788S50.631,33.325,49.954,31.775z"/>
<path fill="#302C3B" d="M15.659,17.054c-0.686,0.307-2.268,1.791-2.759,2.261l0.735,2.933c0.592-0.464,2.677-2.094,3.516-2.624
	C18.172,18.979,17.577,16.195,15.659,17.054z"/>
<path fill="#302C3B" d="M16.895,22.541c-0.627,0.28-2.026,1.584-2.642,2.173l0.706,2.818c0.683-0.5,2.625-1.914,3.427-2.42
	C19.409,24.466,18.813,21.682,16.895,22.541z"/>
<path fill="#302C3B" d="M18.118,27.954c-0.598,0.268-1.888,1.444-2.537,2.055l0.698,2.785c0.611-0.427,2.512-1.752,3.33-2.268
	C20.631,29.879,20.035,27.096,18.118,27.954z"/>
<path fill="#302C3B" d="M19.098,33.368c-0.645,0.287-1.765,1.399-2.209,1.856l0.704,2.811c0.59-0.43,2.201-1.595,2.996-2.098
	C21.611,35.293,21.015,32.509,19.098,33.368z"/>
<path fill="#302C3B" d="M20.464,38.51c-0.672,0.3-1.88,1.453-2.288,1.854l0.708,2.828c0.535-0.381,2.248-1.592,3.071-2.111
	C22.978,40.434,22.381,37.65,20.464,38.51z"/>
<path fill="#E6EBEF" d="M37.936,8.981l2.232-0.167c3.935,14.738,5.936,26.932,5.936,26.932l-2.57,0.226
	C43.533,35.972,42.625,25.478,37.936,8.981z"/>
</svg>
