<?xml version="1.0" encoding="utf-8"?>
<!-- Generator: Adobe Illustrator 15.0.0, SVG Export Plug-In . SVG Version: 6.00 Build 0)  -->
<!DOCTYPE svg PUBLIC "-//W3C//DTD SVG 1.1//EN" "http://www.w3.org/Graphics/SVG/1.1/DTD/svg11.dtd">
<svg version="1.1" id="Layer_1" xmlns="http://www.w3.org/2000/svg" xmlns:xlink="http://www.w3.org/1999/xlink" x="0px" y="0px"
	 width="64px" height="64px" viewBox="0 0 64 64" enable-background="new 0 0 64 64" xml:space="preserve">
<path fill="#AB5C10" d="M60.696,25.839c-4.063-4.025-10.104,5.137-12.235,0.902c-2.216-4.41,7.362-6.836,4.878-15.007l-11.22,18.437
	l-40.11,3.615c0,17.643,18.245,27.049,31.676,24.916C58.56,54.741,65.18,30.284,60.696,25.839z"/>
<path fill="#E6A400" d="M60.554,25.03c-4.063-4.027-10.224,4.965-12.354,0.729c-2.216-4.406,9.362-8.826,4.052-16.017
	c-2.652-3.592-17.215-6.98-28.435-2.836C10.262,11.908,0.988,23.802,2.088,35.03c1.514,15.451,18.165,24.287,31.596,22.15
	C58.56,53.222,65.037,29.476,60.554,25.03z M31.819,20.896c-0.97-6.193,10.411-8.525,11.381-2.336
	C44.171,24.753,32.791,27.089,31.819,20.896z"/>
<path fill="#AB5C10" d="M43.222,19.14c0.043-7.044-11.767-5.023-11.459,0.889C33.257,15.521,41.746,14.28,43.222,19.14z"/>
<path fill="#7AB51D" d="M57.11,34.7c1.927,7.293-14.256,9.48-13.5,1.967C44.208,30.745,55.626,29.079,57.11,34.7z"/>
<path fill-rule="evenodd" clip-rule="evenodd" fill="#A6E639" d="M44.405,37.218c0.312,1.24,2.289-1.555,4.335-4.012
	C50.06,31.624,43.466,33.501,44.405,37.218z"/>
<path fill="#E6EBEF" d="M29.202,45.339c1.927,7.293-14.255,9.48-13.5,1.969C16.3,41.384,27.718,39.718,29.202,45.339z"/>
<path fill-rule="evenodd" clip-rule="evenodd" fill="#FFFFFF" d="M16.496,47.858c0.312,1.238,2.29-1.557,4.335-4.014
	C22.151,42.263,15.557,44.142,16.496,47.858z"/>
<path fill="#006DAE" d="M46.05,45.634c1.928,7.295-14.255,9.482-13.5,1.969C33.147,41.679,44.565,40.013,46.05,45.634z"/>
<path fill-rule="evenodd" clip-rule="evenodd" fill="#018BC9" d="M33.345,48.151c0.312,1.242,2.289-1.555,4.335-4.01
	C38.999,42.56,32.405,44.437,33.345,48.151z"/>
<path fill="#E81C27" d="M18.994,37.007c1.302,7.18-14.366,7.693-13.082,0.57C6.926,31.96,17.991,31.476,18.994,37.007z"/>
<path fill-rule="evenodd" clip-rule="evenodd" fill="#F46C60" d="M6.631,38.183c0.207,1.217,2.311-1.268,4.453-3.424
	C12.467,33.372,6.008,34.528,6.631,38.183z"/>
<path fill="#FFE12C" d="M18.711,25.003C19.9,31.56,5.584,32.032,6.758,25.521C7.685,20.39,17.795,19.948,18.711,25.003z"/>
<path fill-rule="evenodd" clip-rule="evenodd" fill="#FEEC9A" d="M7.416,26.075c0.188,1.113,2.11-1.16,4.068-3.127
	C12.748,21.681,6.847,22.735,7.416,26.075z"/>
<path fill="#B30BAD" d="M26.554,15.661c1.19,6.559-13.126,7.031-11.953,0.521C15.528,11.05,25.638,10.611,26.554,15.661z"/>
<path fill-rule="evenodd" clip-rule="evenodd" fill="#E635DE" d="M15.259,16.733c0.188,1.113,2.11-1.158,4.068-3.126
	C20.591,12.341,14.689,13.398,15.259,16.733z"/>
</svg>
