<?xml version="1.0" encoding="utf-8"?>
<!-- Generator: Adobe Illustrator 15.0.0, SVG Export Plug-In . SVG Version: 6.00 Build 0)  -->
<!DOCTYPE svg PUBLIC "-//W3C//DTD SVG 1.1//EN" "http://www.w3.org/Graphics/SVG/1.1/DTD/svg11.dtd">
<svg version="1.1" id="Layer_1" xmlns="http://www.w3.org/2000/svg" xmlns:xlink="http://www.w3.org/1999/xlink" x="0px" y="0px"
	 width="64px" height="64px" viewBox="0 0 64 64" enable-background="new 0 0 64 64" xml:space="preserve">
<circle fill="#E81C27" cx="32" cy="32" r="30"/>
<circle fill="#FFFFFF" cx="32" cy="32" r="22"/>
<circle fill="#E81C27" cx="32" cy="32" r="15"/>
<circle fill="#FFFFFF" cx="32" cy="32" r="7"/>
<path opacity="0.3" fill="#302C3B" d="M31,31.667c0,0,1,19.5,12.867,27.893c0,0,4.918-1.955,9.066-6.073
	C48.848,43.563,41.098,43.063,31,31.667z"/>
<path fill="#99A8AE" d="M32.739,32.76c-0.826,0.826-2.323-0.673-1.498-1.498C35.99,26.511,37.488,28.01,32.739,32.76z"/>
<path fill="#0FB4D4" d="M55.555,8.445L43.867,20.132c0,0,9.287,2.419,14.804-3.1C67.678,8.027,55.555,8.445,55.555,8.445z"/>
<path fill="#018BC9" d="M56.548,8.463l-9.562,12.136c0.615,0.098,1.521,0.061,1.521,0.061C54.518,14.617,56.548,8.463,56.548,8.463z
	"/>
<path fill="#014D87" d="M37.768,30.687c-3.986,3.986-8.44-0.468-4.453-4.454C41.227,18.319,56.59,5.806,57.392,6.607
	S45.68,22.773,37.768,30.687z"/>
<path fill="#013366" d="M57.392,6.608c-0.03-0.028-0.082-0.038-0.15-0.032c-3.103,4.646-12.302,15.646-18.592,21.938
	c-2.988,2.988-6.239,1.233-6-1.51c-2.75,3.751,1.388,7.413,5.119,3.682C45.68,22.774,58.193,7.41,57.392,6.608z"/>
<path fill="#0FB4D4" d="M43.533,18.286c-0.396-2.991-0.562-8.963,3.434-12.958c7.69-7.69,8.508,0.028,8.584,2.445
	C55.563,8.188,43.684,19.425,43.533,18.286z"/>
<path fill="#006DAE" d="M33.539,26.978c-0.004-0.556,2.563-2.918,9.122-8.255C43.059,18.396,33.557,29.899,33.539,26.978z"/>
</svg>
