<?xml version="1.0" encoding="utf-8"?>
<!-- Generator: Adobe Illustrator 15.0.0, SVG Export Plug-In . SVG Version: 6.00 Build 0)  -->
<!DOCTYPE svg PUBLIC "-//W3C//DTD SVG 1.1//EN" "http://www.w3.org/Graphics/SVG/1.1/DTD/svg11.dtd">
<svg version="1.1" id="Layer_1" xmlns="http://www.w3.org/2000/svg" xmlns:xlink="http://www.w3.org/1999/xlink" x="0px" y="0px"
	 width="64px" height="64px" viewBox="0 0 64 64" enable-background="new 0 0 64 64" xml:space="preserve">
<path fill="#302C3B" d="M61.103,41.396c-3.22-7.704-15.202-0.998-29.222-0.998c-14.019,0-26.002-6.706-29.221,0.998
	C-0.949,48.766,10.453,62,31.881,62C49.64,62,64.711,48.766,61.103,41.396z"/>
<path fill="#4E5E67" d="M56.176,37.81c11.05,3.604-0.985,23.337-25.291,23.337c-9.219,0-16.575-2.383-21.686-5.668
	C14.328,59.209,21.014,62,31.881,62C60.129,62,69.176,39.621,56.176,37.81z"/>
<path fill="#302C3B" d="M9.127,9.582c3.82,12.8,5.346,25.126,4.109,37.927c12.504,3.104,24.769,2.908,37.273-0.196
	c-1.238-12.8,0.354-24.288,4.172-37.089L9.127,9.582z"/>
<path fill="#4E5E67" d="M20.463,48.938c2.676,0.396,5.345,0.638,8.012,0.74c0.301-10.947-0.025-21.259-0.953-31.966
	c-3.631-0.233-6.733-0.749-9.292-1.475C20.24,27.231,21.02,37.765,20.463,48.938z"/>
<path fill="#4E5E67" d="M54.758,9.582c0,4.392-10.242,7.466-22.877,7.466c-12.634,0-22.876-3.938-22.876-8.329
	C9.004-0.796,54.758,0.068,54.758,9.582z"/>
<path fill="#E81C27" d="M13.576,40.073c0.216,2.568-1.135,7.428-1.135,7.428c11.574,11.325,27.308,11.325,38.881,0
	c0,0-1.091-4.807-1.136-7.428C38.431,50.954,25.332,50.954,13.576,40.073z"/>
</svg>
