<?xml version="1.0" encoding="utf-8"?>
<!-- Generator: Adobe Illustrator 15.0.0, SVG Export Plug-In . SVG Version: 6.00 Build 0)  -->
<!DOCTYPE svg PUBLIC "-//W3C//DTD SVG 1.1//EN" "http://www.w3.org/Graphics/SVG/1.1/DTD/svg11.dtd">
<svg version="1.1" id="Layer_1" xmlns="http://www.w3.org/2000/svg" xmlns:xlink="http://www.w3.org/1999/xlink" x="0px" y="0px"
	 width="64px" height="64px" viewBox="0 0 64 64" enable-background="new 0 0 64 64" xml:space="preserve">
<g>
	<g>
		<path fill="#302C3B" d="M47.479,45.151c-6.633,12.071-6.52,13.063-9.592,11.301c-3.074-1.758-4.259-3.361,2.373-15.432
			c6.633-12.069,8.59-11.873,11.664-10.115C54.998,32.666,54.109,33.083,47.479,45.151z"/>
	</g>
	<g>
		<path fill="#99A8AE" d="M53.717,48.723c-4.221,7.682-9.436,11.392-11.895,9.984c-3.074-1.762-1.494-1.781,5.138-13.853
			c6.632-12.069,5.826-13.455,8.9-11.695C58.319,34.566,57.938,41.04,53.717,48.723z"/>
	</g>
</g>
<g>
	<g>
		<path fill="#302C3B" d="M16.521,45.151c6.635,12.071,6.52,13.063,9.594,11.301c3.072-1.758,4.257-3.361-2.375-15.432
			c-6.633-12.069-8.59-11.873-11.664-10.115C9.004,32.666,9.892,33.083,16.521,45.151z"/>
	</g>
	<g>
		<path fill="#99A8AE" d="M10.285,48.723c4.221,7.682,9.434,11.392,11.893,9.984c3.074-1.762,1.496-1.781-5.136-13.853
			c-6.634-12.069-5.826-13.455-8.9-11.695C5.682,34.566,6.063,41.04,10.285,48.723z"/>
	</g>
</g>
<path fill="#BEC3CF" d="M11.268,57.738c0,0,5.408,1.422,5.842,0c2.483-8.149-11.405-12.939-11.405-22.119
	C5.704,20.797,17.477,8.78,32,8.78s26.298,12.017,26.298,26.839c0,9.18-13.889,13.97-11.407,22.119c0.434,1.422,5.842,0,5.842,0
	C58.44,52.163,62,44.318,62,35.619C62,18.708,48.569,5,32,5S2,18.708,2,35.619C2,44.318,5.562,52.163,11.268,57.738z"/>
<g>
	<path fill="#302C3B" d="M14.859,17.669c3.469-0.67,7.998-5.739,17.141-5.739c9.145,0,13.672,5.069,17.141,5.739
		c1.373,0.264,3.792-1.89,3.792-1.89C47.436,9.478,40.916,6.26,32,6.26s-15.436,3.218-20.931,9.52
		C11.069,15.779,13.488,17.933,14.859,17.669z"/>
</g>
</svg>
