<?xml version="1.0" encoding="utf-8"?>
<!-- Generator: Adobe Illustrator 16.2.0, SVG Export Plug-In . SVG Version: 6.00 Build 0)  -->
<!DOCTYPE svg PUBLIC "-//W3C//DTD SVG 1.1//EN" "http://www.w3.org/Graphics/SVG/1.1/DTD/svg11.dtd">
<svg version="1.1" id="Layer_1" xmlns="http://www.w3.org/2000/svg" xmlns:xlink="http://www.w3.org/1999/xlink" x="0px" y="0px"
	 width="64px" height="64px" viewBox="0 0 64 64" enable-background="new 0 0 64 64" xml:space="preserve">
<polygon fill="#E81C27" points="39,42 57,24 57,26 39,44 "/>
<polygon fill="#E81C27" points="39,60 57,42 57,44 39,62 "/>
<polygon fill="#E81C27" points="4,52 4,54 12,46 12,44 "/>
<polygon fill="#E81C27" points="17,60 35,42 35,44 17,62 "/>
<polygon fill="#E81C27" points="57,14 57,62 61,62 61,10 "/>
<polygon fill="#B00505" points="56,17 57,19 61,19 62,17 "/>
<rect x="13" y="47" fill="#E81C27" width="4" height="15"/>
<polygon fill="#E81C27" points="35,35 35,62 39,62 39,31 "/>
<polygon fill="#B00505" points="12,51 13,53 17,53 18,51 "/>
<rect x="12" y="48" fill="#E81C27" width="6" height="3"/>
<polygon fill="#B00505" points="34,39 35,41 39,41 40,39 "/>
<polygon fill="#E81C27" points="34,38 40,32 40,39 34,39 "/>
<polygon fill="#B00505" points="2,45 2,47 3,49 3,62 5,62 5,49 6,47 6,45 "/>
<polygon fill="#B00505" points="24,44 24,47 25,49 25,62 27,62 27,49 28,47 28,44 "/>
<polygon fill="#B00505" points="46,23 46,26 47,28 47,62 49,62 49,28 50,26 50,23 "/>
<polygon fill="#E81C27" points="57,60 39,42 39,44 57,62 "/>
<polygon fill="#E81C27" points="42,27 42,29 57,44 57,42 "/>
<polygon fill="#E81C27" points="35,60 20,45 20,47 35,62 "/>
<polygon fill="#E81C27" points="56,16 62,10 62,17 56,17 "/>
<path fill="#4E5E67" d="M29,39c-7,7-19.917,8.084-27,1v5c2.914,2.162,7,4,13,4c5.47,0,11-2,16-7c8.5-8.5,31-31,31-31V6L29,39z"/>
<path fill="#BEC3CF" d="M29,37C18.958,47.042,7.671,43.671,2,38v2c0,0,4.375,5,13,5c6,0,9.917-1.916,14-6L62,6V4L29,37z"/>
<g>
	
		<rect x="28.854" y="23.354" transform="matrix(-0.707 -0.7072 0.7072 -0.707 35.7999 62.5377)" fill="#018BC9" width="4" height="1"/>
	<rect x="32" y="23" fill="#E6A400" width="2" height="2"/>
	<path fill="#FDCA47" d="M28.732,22.439c-0.195-0.195-0.195-0.512,0-0.707s0.512-0.195,0.707,0l0.354,0.354l-0.707,0.707
		L28.732,22.439z"/>
	<path fill="#0FB4D4" d="M34,24h-2c-0.552,0-1,0.448-1,1v7l4-4v-3C35,24.448,34.553,24,34,24z"/>
	<polygon fill="#F9B700" points="36,22 35,23 35,27 32,30 30,28 28,30 28,36 29,37 40,26 	"/>
	<polygon fill="#D47706" points="29,37 30,34 39,25 40,26 	"/>
	<circle fill="#FDCA47" cx="33" cy="22" r="2"/>
	<path fill="#1A1626" d="M33,20c-1,0-1,0.412-2,0c0,0,0,1,1,1c0.399,0,0.683,0.252,0.845,0.535C32.894,21.519,32.946,21.5,33,21.5
		c0.276,0,0.5,0.224,0.5,0.5c0,0.249-0.262,0.462-0.5,0.5c0,0.309,0.375,1,1,1c0.5,0,1-0.5,1-1.5C35,20.896,34.104,20,33,20z"/>
	<rect x="34" y="20" fill="#0FB4D4" width="1" height="6"/>
	<path fill="#FDCA47" d="M35,19.5c0-0.276-0.225-0.5-0.5-0.5c-0.276,0-0.5,0.224-0.5,0.5V20h1V19.5z"/>
	<polygon fill="#F9B700" points="54,4 54,10 55,11 62,4 	"/>
	
		<rect x="52.086" y="10.793" transform="matrix(-0.7071 0.7071 -0.7071 -0.7071 99.4619 -18.1985)" fill="#1A1626" width="2.828" height="1.414"/>
	
		<rect x="41.854" y="10.354" transform="matrix(-0.707 -0.7072 0.7072 -0.707 67.1845 49.5397)" fill="#AA5BEF" width="4" height="1"/>
	<rect x="45" y="10" fill="#E6A400" width="2" height="2"/>
	<path fill="#FDCA47" d="M41.732,9.439c-0.195-0.195-0.195-0.512,0-0.707s0.512-0.195,0.707,0l0.354,0.354l-0.707,0.707
		L41.732,9.439z"/>
	<path fill="#C28FEF" d="M47,11h-2c-0.553,0-1,0.448-1,1v7l4-4v-3C48,11.448,47.553,11,47,11z"/>
	<polygon fill="#F9B700" points="49,9 48,10 48,14 45,17 43,15 41,17 41,23 42,24 53,13 	"/>
	<polygon fill="#D47706" points="42,24 43,21 52,12 53,13 	"/>
	<circle fill="#FDCA47" cx="46" cy="9" r="2"/>
	<path fill="#D47706" d="M46,7c-1,0-1,0.412-2,0c0,0,0,1,1,1c0.399,0,0.683,0.252,0.846,0.535C45.895,8.519,45.945,8.5,46,8.5
		c0.276,0,0.5,0.224,0.5,0.5c0,0.249-0.262,0.462-0.5,0.5c0,0.309,0.375,1,1,1c0.5,0,1-0.5,1-1.5C48,7.896,47.104,7,46,7z"/>
	<rect x="47" y="7" fill="#C28FEF" width="1" height="6"/>
	<path fill="#FDCA47" d="M48,6.5C48,6.224,47.775,6,47.5,6C47.224,6,47,6.224,47,6.5V7h1V6.5z"/>
	
		<rect x="39.086" y="23.793" transform="matrix(-0.7071 0.7071 -0.7071 -0.7071 86.4619 13.1863)" fill="#1A1626" width="2.828" height="1.414"/>
	<polygon fill="#D47706" points="60,4 56,8 55,11 62,4 	"/>
</g>
<polygon fill="#E81C27" points="3,50 3,52 13,62 13,60 "/>
</svg>
