<?xml version="1.0" encoding="utf-8"?>
<!-- Generator: Adobe Illustrator 15.0.0, SVG Export Plug-In . SVG Version: 6.00 Build 0)  -->
<!DOCTYPE svg PUBLIC "-//W3C//DTD SVG 1.1//EN" "http://www.w3.org/Graphics/SVG/1.1/DTD/svg11.dtd">
<svg version="1.1" id="Layer_1" xmlns="http://www.w3.org/2000/svg" xmlns:xlink="http://www.w3.org/1999/xlink" x="0px" y="0px"
	 width="64px" height="64px" viewBox="0 0 64 64" enable-background="new 0 0 64 64" xml:space="preserve">
<rect x="2" y="2" fill="#302C3B" width="60" height="60"/>
<rect x="2" y="42" fill="#4E5E67" width="60" height="20"/>
<rect x="14" y="18" fill="#E6EBEF" width="36" height="20"/>
<path fill="#E81C27" d="M62,9H50c0,0,1.092,18.844,6,25.494C53.09,41.33,52.273,55,52.273,55H62V9z"/>
<path fill="#B00505" d="M60.818,9c0,0-1.455,16.071-0.545,21.983c0.908,5.913-2.91-6.465-2-21.983H60.818z"/>
<path fill="#B00505" d="M55.682,9c0,0-0.52,12.562,1.387,21.567c1.203,5.69-3.682-8.243-3.932-21.567H55.682z"/>
<path fill="#B00505" d="M60.709,55c0,0-1.041-9.055-0.389-12.387c0.65-3.33-2.086,3.645-1.436,12.387H60.709z"/>
<path fill="#B00505" d="M56.943,55c0,0-0.375-8.957,0.996-15.375C58.807,35.568,55.291,45.5,55.111,55H56.943z"/>
<path fill="#E5BC5E" d="M62,34.586c0,0-2.287,2.551-6.676,1.721c-0.299-0.057-0.428-3.097-0.127-3.065
	C59.018,33.659,62,31.307,62,31.307V34.586z"/>
<path fill="#E81C27" d="M2,9h12c0,0-1.092,18.844-6,25.494C10.909,41.33,11.728,55,11.728,55H2V9z"/>
<path fill="#B00505" d="M3.182,9c0,0,1.455,16.071,0.546,21.983c-0.91,5.913,2.909-6.465,2-21.983H3.182z"/>
<path fill="#B00505" d="M8.318,9c0,0,0.521,12.562-1.386,21.567C5.729,36.258,10.614,22.324,10.864,9H8.318z"/>
<path fill="#B00505" d="M3.291,55c0,0,1.041-9.055,0.39-12.387C3.03,39.283,5.765,46.258,5.114,55H3.291z"/>
<path fill="#B00505" d="M7.058,55c0,0,0.375-8.957-0.996-15.375C5.194,35.568,8.71,45.5,8.889,55H7.058z"/>
<path fill="#E5BC5E" d="M2,34.586c0,0,2.287,2.551,6.676,1.721c0.299-0.057,0.428-3.097,0.128-3.065C4.983,33.659,2,31.307,2,31.307
	V34.586z"/>
<path fill="#018BC9" d="M31.65,62H20.21V49.23c0-4.309,11.44-4.309,11.44,0V62z"/>
<path fill="#014D87" d="M30.65,62H20.21V50.99c0-4.311,10.44-4.311,10.44,0V62z"/>
<path fill="#018BC9" d="M19.511,62H8.069V49.23c0-4.309,11.441-4.309,11.441,0V62z"/>
<path fill="#014D87" d="M18.511,62H8.069V50.99c0-4.311,10.441-4.311,10.441,0V62z"/>
<path fill="#018BC9" d="M43.791,62H32.35V49.23c0-4.309,11.441-4.309,11.441,0V62z"/>
<path fill="#014D87" d="M43.791,62H33.35V50.99c0-4.311,10.441-4.311,10.441,0V62z"/>
<path fill="#018BC9" d="M55.932,62H44.49V49.23c0-4.309,11.441-4.309,11.441,0V62z"/>
<path fill="#014D87" d="M55.932,62H45.49V50.99c0-4.311,10.441-4.311,10.441,0V62z"/>
<path fill="#018BC9" d="M37.721,62H26.279v-6.701c0-4.311,11.441-4.311,11.441,0V62z"/>
<path fill="#014D87" d="M37,62H27v-4.945c0-4.309,10-4.309,10,0V62z"/>
<path fill="#018BC9" d="M25.581,62H14.14v-6.701c0-4.311,11.441-4.311,11.441,0V62z"/>
<path fill="#014D87" d="M24.581,62H14.14v-4.945c0-4.309,10.441-4.309,10.441,0V62z"/>
<path fill="#018BC9" d="M13.441,62H2v-6.701c0-4.311,11.441-4.311,11.441,0V62z"/>
<path fill="#014D87" d="M12.441,62H2v-4.945c0-4.309,10.441-4.309,10.441,0V62z"/>
<path fill="#018BC9" d="M49.861,62H38.42v-6.701c0-4.311,11.441-4.311,11.441,0V62z"/>
<path fill="#014D87" d="M49.861,62H39.42v-4.945c0-4.309,10.441-4.309,10.441,0V62z"/>
<path fill="#018BC9" d="M62,62H50.559v-6.701c0-4.311,11.441-4.311,11.441,0V62z"/>
<path fill="#014D87" d="M62,62H51.559v-4.945c0-4.309,10.441-4.309,10.441,0V62z"/>
<path fill="#B00505" d="M19.124,2c0,13.333-14.246,13.333-14.246,0H19.124z"/>
<path fill="#B00505" d="M29.125,2c0,13.333-14.247,13.333-14.247,0H29.125z"/>
<path fill="#B00505" d="M39.125,2c0,13.333-14.248,13.333-14.248,0H39.125z"/>
<path fill="#B00505" d="M49.123,2c0,13.333-14.246,13.333-14.246,0H49.123z"/>
<path fill="#B00505" d="M59.123,2c0,13.333-14.246,13.333-14.246,0H59.123z"/>
<path fill="#B00505" d="M2,2v10c3.563,0,7.124-3.333,7.124-10H2z"/>
<path fill="#B00505" d="M54.877,2c0,6.667,3.563,10,7.123,10V2H54.877z"/>
</svg>
