<?xml version="1.0" encoding="utf-8"?>
<!-- Generator: Adobe Illustrator 15.0.0, SVG Export Plug-In . SVG Version: 6.00 Build 0)  -->
<!DOCTYPE svg PUBLIC "-//W3C//DTD SVG 1.1//EN" "http://www.w3.org/Graphics/SVG/1.1/DTD/svg11.dtd">
<svg version="1.1" id="Layer_1" xmlns="http://www.w3.org/2000/svg" xmlns:xlink="http://www.w3.org/1999/xlink" x="0px" y="0px"
	 width="64px" height="64px" viewBox="0 0 64 64" enable-background="new 0 0 64 64" xml:space="preserve">
<path fill="#E81C27" d="M60.917,2.209C53.247,7.265,36.957,7.274,29.268,2c-6.108,26.297,14.76,39.582,15.798,40
	C46.082,41.608,66.916,28.727,60.917,2.209z M33.139,18.492c-0.334,0.351-1.002-0.293-0.873-0.653
	c1.294-3.559,3.244-5.34,5.194-5.34s3.9,1.781,5.195,5.34c0.127,0.359-0.54,1.004-0.873,0.653c-1.254-1.322-2.755-1.851-4.322-1.851
	C35.895,16.642,34.393,17.17,33.139,18.492z M51.662,30.448c-1.881-1.704-11.471-1.543-13.174,0
	c-0.508,0.46-0.966-0.337-0.622-1.072c1.286-2.754,3.882-5.204,7.208-5.204s5.924,2.45,7.209,5.204
	C52.628,30.111,52.17,30.908,51.662,30.448z M57.012,18.492c-1.258-1.322-2.756-1.851-4.323-1.851s-3.066,0.529-4.322,1.851
	c-0.335,0.351-1.004-0.293-0.873-0.653c1.292-3.559,3.242-5.34,5.195-5.34c1.95,0,3.9,1.781,5.194,5.34
	C58.01,18.199,57.344,18.843,57.012,18.492z"/>
<path fill="#F46C60" d="M30.577,4.971c0,0,3.923,1.632,8.256,2.289c1.01,0.153,0.708-0.515-0.076-0.688
	c-4.802-1.057-7.361-2.319-8.907-3.276c-0.366,1.911-0.59,3.233-0.667,4.996c-0.078,1.837,0.487,1.88,0.649,0.258
	C29.945,7.435,30.577,4.971,30.577,4.971z"/>
<path fill="#B00505" d="M45.065,42c1.017-0.392,21.851-13.273,15.852-39.791c-0.765,0.503-1.614,0.958-2.533,1.361
	C63.593,27.955,45.065,42,45.065,42z"/>
<path fill="#B00505" d="M29.322,20.55c1.771,7.609,5.584,13.402,9.301,16.202c-0.217-10.196-6.811-18.958-6.811-18.958
	S30.468,19.66,29.322,20.55z"/>
<path fill="#E6A400" d="M25.557,13.699c-1.643,4.32-4.414,11.026-8.979,10.242c-3.866-0.662-6.8-4.945-7.085-8.62
	C8.923,7.988,16.406,3.507,22.504,2C9.236,2.075,2.564,13.482,10.486,22.75C15.793,28.957,24.928,26.016,25.557,13.699z"/>
<path fill="#F9C802" d="M16.82,24.095c-1.207,4.379-6.088,7.918-10.43,5.399c-4.452-2.582-4.993-8.429-3.918-12.934
	c1.014-4.25,3.497-8.169-0.43-11.503c6.242,1.148,3.223,8.928,2.66,13.041c-0.641,4.688,1.678,13.309,8.21,10.081
	c2.444-1.207,3.468-4.284,2.629-6.856c-4.8-14.722,3.629-12.239,10.21-7.673C10,6.766,18.296,18.745,16.82,24.095z"/>
<path fill="#018BC9" d="M31.813,19.188C26.336,26.562,11.031,32.143,2,29.815C5.255,56.616,29.407,61.963,30.525,62
	C31.349,61.285,46.519,42.054,31.813,19.188z M14.707,40.772c-1.472,0.535-2.7,1.546-3.427,3.217
	c-0.195,0.444-1.044,0.067-1.045-0.314c-0.002-3.786,1.222-6.127,3.055-6.795c1.834-0.667,4.274,0.34,6.709,3.242
	c0.243,0.293-0.165,1.127-0.599,0.912C17.77,40.22,16.179,40.237,14.707,40.772z M26.944,52.131
	c-3.126,1.138-6.403-0.277-8.554-2.425c-0.575-0.573-0.417-1.479,0.218-1.221c2.35,0.959,11.306-2.473,12.379-4.506
	c0.32-0.605,1.023-0.013,0.95,0.797C31.671,47.802,30.069,50.993,26.944,52.131z M33.712,35.824
	c-1.633-0.812-3.223-0.796-4.695-0.259c-1.473,0.535-2.7,1.544-3.429,3.216c-0.193,0.444-1.043,0.067-1.043-0.315
	c-0.003-3.785,1.22-6.126,3.056-6.793c1.831-0.668,4.274,0.34,6.707,3.24C34.551,35.207,34.145,36.04,33.712,35.824z"/>
<path fill="#0FB4D4" d="M5.74,32.521c0,0,2.292-0.295,3.787-0.506c1.013-0.142,0.517-0.662-0.287-0.628
	c-2.129,0.089-4.136-0.045-5.905-0.47c1.05,8.07,4.274,14.055,8.197,18.463c2.521,2.833,2.89,2.445,0.66-0.529
	C9.079,44.698,6.629,39.356,5.74,32.521z"/>
<path fill="#006DAE" d="M31.813,19.188c-0.532,0.717-1.16,1.416-1.863,2.093C41.854,44.142,30.525,62,30.525,62
	C31.349,61.285,46.519,42.054,31.813,19.188z"/>
<path fill="#E6A400" d="M39.749,40.46c-0.992,3.742-2.362,9.656,1.545,11.253c3.308,1.354,7.788-0.222,9.923-2.617
	c4.259-4.78,0.857-11.368-3.029-15.26c10.129,6.263,9.299,17.237-1.604,19.907C39.28,55.532,33.812,49.232,39.749,40.46z"/>
<path fill="#F9C802" d="M38.771,51.194c-2.337,3.18-1.677,8.511,2.955,10.243c4.747,1.776,9.272-0.948,11.787-4.101
	c2.37-2.975,3.546-6.813,8.487-5.808c-4.894-3.803-8.474,2.464-11.042,5.048c-2.928,2.942-10.592,5.884-12.552-0.449
	c-0.735-2.369,0.793-4.729,3.178-5.502c13.636-4.427,6.365-9.067-1.189-11.294C55.588,46.812,41.625,47.31,38.771,51.194z"/>
<circle fill="#FFE12C" cx="39.015" cy="38.386" r="2.5"/>
<path fill="#F9C802" d="M40.576,36.435c0.341,0.428,0.547,0.969,0.547,1.559c0,1.381-1.119,2.5-2.499,2.5
	c-0.592,0-1.135-0.207-1.563-0.549c0.457,0.572,1.162,0.941,1.953,0.941c1.381,0,2.5-1.119,2.5-2.5
	C41.515,37.595,41.147,36.892,40.576,36.435z"/>
<path fill-rule="evenodd" clip-rule="evenodd" fill="#FEEC9A" d="M37.159,37.304c0.046,0.32,0.647-0.309,1.257-0.852
	C38.81,36.104,37.021,36.333,37.159,37.304z"/>
<circle fill="#FFE12C" cx="26.822" cy="13.5" r="2.5"/>
<path fill="#F9C802" d="M28.384,11.549c0.342,0.428,0.547,0.969,0.547,1.559c0,1.381-1.119,2.5-2.5,2.5
	c-0.592,0-1.134-0.206-1.562-0.549C25.327,15.632,26.03,16,26.823,16c1.38,0,2.499-1.119,2.499-2.5
	C29.322,12.71,28.955,12.007,28.384,11.549z"/>
<path fill-rule="evenodd" clip-rule="evenodd" fill="#FEEC9A" d="M24.967,12.418c0.046,0.321,0.647-0.309,1.257-0.851
	C26.616,11.219,24.829,11.448,24.967,12.418z"/>
</svg>
