<?xml version="1.0" encoding="utf-8"?>
<!-- Generator: Adobe Illustrator 15.0.0, SVG Export Plug-In . SVG Version: 6.00 Build 0)  -->
<!DOCTYPE svg PUBLIC "-//W3C//DTD SVG 1.1//EN" "http://www.w3.org/Graphics/SVG/1.1/DTD/svg11.dtd">
<svg version="1.1" id="Layer_1" xmlns="http://www.w3.org/2000/svg" xmlns:xlink="http://www.w3.org/1999/xlink" x="0px" y="0px"
	 width="64px" height="64px" viewBox="0 0 64 64" enable-background="new 0 0 64 64" xml:space="preserve">
<path fill="#302C3B" d="M58,13c0,6.08-4.92,11-11,11s-11-4.92-11-11S40.92,2,47,2S58,6.92,58,13z"/>
<circle fill="#4E5E67" cx="47" cy="12.999" r="5.5"/>
<circle fill="#302C3B" cx="27" cy="12.999" r="11"/>
<circle fill="#4E5E67" cx="27" cy="12.999" r="5.5"/>
<circle fill="#CFD8DD" cx="47" cy="12.999" r="4.5"/>
<circle fill="#CFD8DD" cx="27" cy="12.999" r="4.5"/>
<path fill="#E6EBEF" d="M27.873,9.038C27.747,9.027,27.627,9,27.498,9C25.013,9,23,11.015,23,13.499c0,0.129,0.027,0.25,0.038,0.375
	C23.324,11.337,25.336,9.325,27.873,9.038z"/>
<path fill="#4E5E67" d="M27.871,3.209c-0.281-0.023-0.549-0.084-0.836-0.084C21.49,3.125,17,7.62,17,13.162
	c0,0.288,0.061,0.557,0.085,0.838C17.723,8.34,22.211,3.85,27.871,3.209z"/>
<path fill="#4E5E67" d="M48,3.084C47.719,3.061,47.451,3,47.164,3c-5.545,0-10.035,4.495-10.035,10.037
	c0,0.288,0.061,0.557,0.085,0.838C37.852,8.214,42.34,3.725,48,3.084z"/>
<path fill="#E6EBEF" d="M48,9.038C47.874,9.027,47.754,9,47.625,9c-2.485,0-4.498,2.015-4.498,4.499c0,0.129,0.027,0.25,0.038,0.375
	C43.451,11.337,45.463,9.325,48,9.038z"/>
<path fill="#302C3B" d="M42,45c0,6.667-10,6.667-10,0S42,38.333,42,45z"/>
<path fill="#BEC3CF" d="M40,45c0,4-6,4-6,0S40,41,40,45z"/>
<path fill="#302C3B" d="M62,45c0,4.001-6,4.001-6,0S62,40.999,62,45z"/>
<path fill="#BEC3CF" d="M60,45c0,1.334-2,1.334-2,0S60,43.666,60,45z"/>
<path fill="#4E5E67" d="M58,41c0,0.551-0.477,1-1.053,1H17.05C16.47,42,16,41.551,16,41V23.001C16,22.448,16.47,22,17.05,22h39.897
	C57.523,22,58,22.448,58,23.001V41z"/>
<rect x="12" y="26" fill="#302C3B" width="4" height="9"/>
<rect x="12" y="26" fill="#4E5E67" width="4" height="1"/>
<rect x="2" y="22" fill="#4E5E67" width="2" height="17"/>
<polygon fill="#302C3B" points="12,35 4,39 4,22 12,26 "/>
<rect x="18" y="24" fill="#302C3B" width="38" height="16"/>
<rect x="30" y="48" fill="#302C3B" width="14" height="2"/>
<rect x="36" y="50" fill="#302C3B" width="2" height="12"/>
<polygon fill="#302C3B" points="32,62 30,62 34,50 36,50 "/>
<polygon fill="#302C3B" points="44,62 42,62 38,50 40,50 "/>
<rect x="37" y="44" fill="#302C3B" width="21" height="2"/>
<rect x="20" y="36" fill="#4E5E67" width="14" height="2"/>
<rect x="20" y="36" fill="#99A8AE" width="14" height="1"/>
<rect x="48" y="36" fill="#4E5E67" width="6" height="2"/>
<rect x="44" y="36" fill="#4E5E67" width="2" height="2"/>
<rect x="40" y="28" fill="#6E8189" width="18" height="4"/>
<rect x="58" y="28" fill="#302C3B" width="2" height="4"/>
<polygon fill="#6E8189" points="62,34 60,32 60,28 62,26 "/>
<polygon fill="#4E5E67" points="12,26 12,27 4,25 4,22 "/>
<rect x="14" y="35" fill="#99A8AE" width="2" height="2"/>
<rect x="12" y="38" fill="#BEC3CF" width="4" height="2"/>
<rect x="12" y="38" fill="#99A8AE" width="4" height="1"/>
<rect x="15" y="23" fill="#302C3B" width="1" height="2"/>
<path fill="#BEC3CF" d="M28,29c0,4-6,4-6,0S28,25,28,29z"/>
<path fill="#6E8189" d="M42,30c0,2.667-4,2.667-4,0S42,27.333,42,30z"/>
<path fill="#302C3B" d="M38,45c0,1.333-2,1.333-2,0S38,43.667,38,45z"/>
<rect x="44" y="36" fill="#99A8AE" width="2" height="1"/>
<polygon fill="#99A8AE" points="50,37 48,37 48,36 51,36 "/>
<polygon fill="#99A8AE" points="58,29 49,29 48,28 58,28 "/>
<rect x="58" y="28" fill="#4E5E67" width="2" height="1"/>
<polygon fill="#99A8AE" points="62,28 60,29 60,28 62,26 "/>
<rect x="2" y="22" fill="#6E8189" width="2" height="3"/>
<rect x="12" y="25" fill="#4E5E67" width="1" height="14"/>
<rect x="33" y="50" fill="#1A1626" width="8" height="1"/>
</svg>
