<?xml version="1.0" encoding="utf-8"?>
<!-- Generator: Adobe Illustrator 15.0.0, SVG Export Plug-In . SVG Version: 6.00 Build 0)  -->
<!DOCTYPE svg PUBLIC "-//W3C//DTD SVG 1.1//EN" "http://www.w3.org/Graphics/SVG/1.1/DTD/svg11.dtd">
<svg version="1.1" id="Layer_1" xmlns="http://www.w3.org/2000/svg" xmlns:xlink="http://www.w3.org/1999/xlink" x="0px" y="0px"
	 width="64px" height="64px" viewBox="0 0 64 64" enable-background="new 0 0 64 64" xml:space="preserve">
<path fill="#BBBDBF" d="M50.293,24.679c-0.058,0-22.558-1.738-9.051-16.721c-9.412,4.101-15.173,10.816-27.826-0.417
	c-0.26-0.401-5.975,1.137,2.631,24.825c-5.218-19.172-3.81-23.298-2.78-24.479c10.86,10.752,19.559,6.029,27.315,0.481
	c-7.791,7.312-5.341,14.79,8.94,16.932c-3.645,4.023-3.239,18.298,2.775,21.845C52.333,47.166,44.912,32.685,50.293,24.679z"/>
<path fill="#BBBDBF" d="M49.475,37.291C49.475,37.291,49.476,37.291,49.475,37.291c-5.724,3.964-4.218,11.264-2.618,11.568l0,0l0,0
	C58.578,52.571,62.952,37.047,49.475,37.291z"/>
<path id="XMLID_15_" fill="#302C3B" d="M47.165,46.933c-1.46,1.068-1.756-6.168,1.748-7.762
	C50.38,38.53,50.729,45.368,47.165,46.933z"/>
<polygon fill="#302C3B" points="39.617,47.86 39.729,42.434 49.242,43.523 41.743,44.138 41.663,47.981 "/>
<path fill="#1A1626" d="M57.208,60.888c0.396-1.924-3.322-2.43-3.72-0.506C53.121,62.165,56.84,62.673,57.208,60.888z"/>
<path fill="#302C3B" d="M57.33,48.26c0.707-17.136-4.835-59.23-45.115-42.337c-1.297,0.544-2.15,1.902-0.39,1.135
	c39.281-17.124,43.691,24.009,42.983,40.447L57.33,48.26z"/>
<path fill="#302C3B" d="M40.347,8.677c-0.543-0.254,0.757-1.095,0.896-1.194C42.576,6.538,44.514,8.629,40.347,8.677z"/>
<path fill="#302C3B" d="M49.028,25.216c-0.492-0.714,2.245-1.215,2.555-1.279C54.498,23.302,55.587,27.236,49.028,25.216z
	 M53.317,24.571c-1.214-0.771-3.347,0.354-3.527,0.509C52.609,25.506,52.788,25.451,53.317,24.571z"/>
<path fill="#302C3B" d="M13.661,8.184c-0.356,0.389-1.277-0.665-1.387-0.779C11.229,6.315,13.594,4.561,13.661,8.184z"/>
<path fill="#B47D56" d="M53.542,41.587c-0.305,9.098,0.077,7.534-0.944,16.557l-0.005,0.02c-0.21,2.417,5.432,2.982,5.503,1.841
	c1.049-9.345,0.656-7.932,0.904-17.116C58.814,38.384,54.038,38.653,53.542,41.587z"/>
<path fill="#99A8AE" d="M40.582,6.434l3.444,3.017l1.708-1.195L42.041,5.44L40.582,6.434z"/>
<polygon fill="#99A8AE" points="13.93,4.769 10.146,6.868 10.982,7.77 15,6 "/>
<path fill="#99A8AE" d="M55.465,26.695l-1.417-4.715l-2.624,0.286l1.178,4.77L55.465,26.695z"/>
<path fill="#014D87" d="M6.516,33.015c0,0-2.272,5.408-1.252,10.408c2.038-3,4.92-0.693,4.92-0.693L6.516,33.015z"/>
<path fill="#0FB4D4" d="M11.362,46.403c0.263,1.961-4.998,3.43-5.115,6.52c2.731-2.852,13.931-2.793,16.605,0
	c-0.116-3.09-6.931-4.563-6.641-6.52c0.185-1.266,7.503-2.486,7.503-12.352c0-8.634-6.649-8.888-7.927-10.832
	c-0.782-1.187-2.266,1.313-1.459,5.031c-1.526-1.693-1.344-5.063-1.93-4.701c-2.623,1.611-7.656,3.971-5.252,11.109
	C9.62,41.995,10.822,42.347,11.362,46.403z"/>
<path fill="#302C3B" d="M17.241,29.544c-2.187,0-2.187-3.088,0-3.088C19.429,26.457,19.429,29.544,17.241,29.544z"/>
<path fill="#FFFFFF" d="M17.971,27.847c-0.656,0-0.656-0.928,0-0.928S18.627,27.847,17.971,27.847z"/>
<path fill="#006DAE" d="M13.322,34.446c-3.444-4.513-4.964,11.213,1.65,7.293C19.14,39.271,15.402,37.173,13.322,34.446z"/>
<path fill="#0FB4D4" d="M13.122,34.038c-2.992-3.466-3.414,10.23,1.57,6.811C18.056,38.542,15.113,36.347,13.122,34.038z"/>
<path fill="#A0D8E9" d="M14.504,34.767c-0.249,2.109,0.475,3.936,0.688,3.674C15.754,37.747,14.504,34.767,14.504,34.767z"/>
<path fill="#A0D8E9" d="M12.893,34.386c-1.201,1.77-1.405,3.717-1.095,3.578C12.621,37.595,12.893,34.386,12.893,34.386z"/>
<path fill="#A0D8E9" d="M13.803,34.745c-0.869,2.441-0.708,4.771-0.423,4.512C14.131,38.565,13.803,34.745,13.803,34.745z"/>
<path fill="#006DAE" d="M17.779,48.276c-1.874-1.762-0.668-2.727,0.426-3.211c3.498-1.553,7.607-5.822,8.939-11.441
	c0.339-1.431-2.758-1.025-4.377-4.378c1.549,9.771-6.167,17.406-8.572,17.406c-1.107,0-6.979-6.578-5.421-14.013
	c0,0,2.816,2.292,7.703,1.056c-5.456,0.514-9.132-3.921-7.285-8.013c0,0-3.208,2.133-3.208,7.148c0,8.871,7.89,11.722,4.392,15.279
	c0.961-0.748,2.77-0.563,3.526,0.266C14.964,47.146,16.802,47.897,17.779,48.276z"/>
<path fill="#A0D8E9" d="M21.747,29.263c0.829,9.101-7.435,16.988-2.936,12.564C21.849,38.839,22.66,33.222,21.747,29.263z"/>
<path fill="#A0D8E9" d="M20.868,51.085c-2.129-1.168-5.915-1.525-8.1-0.713C18.599,49.685,24.329,52.981,20.868,51.085z"/>
<path fill="#A0D8E9" d="M19.709,50.106c0.017,0.635,0.445,1.1,0.524,1.004C20.439,50.86,19.709,50.106,19.709,50.106z"/>
<path fill="#A0D8E9" d="M18.554,49.79c0.018,0.635,0.446,1.1,0.524,1.004C19.286,50.544,18.554,49.79,18.554,49.79z"/>
<path fill="#A0D8E9" d="M17.462,49.519c0.017,0.635,0.446,1.1,0.523,1.006C18.193,50.272,17.462,49.519,17.462,49.519z"/>
</svg>
