<?xml version="1.0" encoding="utf-8"?>
<!-- Generator: Adobe Illustrator 16.2.0, SVG Export Plug-In . SVG Version: 6.00 Build 0)  -->
<!DOCTYPE svg PUBLIC "-//W3C//DTD SVG 1.1//EN" "http://www.w3.org/Graphics/SVG/1.1/DTD/svg11.dtd">
<svg version="1.1" id="Layer_1" xmlns="http://www.w3.org/2000/svg" xmlns:xlink="http://www.w3.org/1999/xlink" x="0px" y="0px"
	 width="64px" height="64px" viewBox="0 0 64 64" enable-background="new 0 0 64 64" xml:space="preserve">
<rect x="9" y="25" fill="#99A8AE" width="46" height="2"/>
<rect x="31" y="3" fill="#99A8AE" width="2" height="46"/>
<rect x="30.999" y="3" transform="matrix(-0.7071 -0.7071 0.7071 -0.7071 36.24 67.0116)" fill="#99A8AE" width="2" height="46"/>
<rect x="31" y="2.999" transform="matrix(-0.707 0.7072 -0.7072 -0.707 73.011 21.7505)" fill="#99A8AE" width="2" height="46.001"/>
<path fill="#6E8189" d="M32,16c-5.523,0-10,4.477-10,10s4.477,10,10,10c5.521,0,10-4.477,10-10S37.521,16,32,16z M32,35
	c-4.97,0-9-4.03-9-9s4.03-9,9-9c4.971,0,9,4.03,9,9S36.971,35,32,35z"/>
<path fill="#6E8189" d="M32,2C18.746,2,8,12.746,8,26c0,13.252,10.746,24,24,24c13.256,0,24-10.748,24-24C56,12.746,45.256,2,32,2z
	 M32,48c-12.149,0-22-9.854-22-22c0-12.149,9.851-22,22-22c12.15,0,22,9.851,22,22C54,38.146,44.15,48,32,48z"/>
<path fill="#D74189" d="M19.5,15h-8.906C10.594,17.15,16.583,21.417,19.5,15z"/>
<path fill="#E84D88" d="M15,9c-2.762,0-5,2.238-5,5s2.238,5,5,5s5-2.238,5-5S17.762,9,15,9z M11,14c0-1.861,1.278-3.412,3-3.858
	v7.717C12.278,17.412,11,15.861,11,14z M16,17.858v-7.717c1.722,0.446,3,1.997,3,3.858S17.722,17.412,16,17.858z"/>
<path fill="#D74189" d="M52.5,47h-8.906C43.594,49.15,49.583,53.417,52.5,47z"/>
<path fill="#E84D88" d="M48,41c-2.762,0-5,2.238-5,5s2.238,5,5,5s5-2.238,5-5S50.762,41,48,41z M44,46c0-1.861,1.278-3.412,3-3.858
	v7.717C45.278,49.412,44,47.861,44,46z M49,49.858v-7.717c1.722,0.446,3,1.997,3,3.858S50.722,49.412,49,49.858z"/>
<path fill="#018BC9" d="M13.5,31H4.594C4.594,33.15,10.583,37.417,13.5,31z"/>
<path fill="#0FB4D4" d="M9,25c-2.762,0-5,2.238-5,5s2.238,5,5,5s5-2.238,5-5S11.762,25,9,25z M5,30c0-1.861,1.278-3.412,3-3.858
	v7.717C6.278,33.412,5,31.861,5,30z M10,33.858v-7.717c1.722,0.446,3,1.997,3,3.858S11.722,33.412,10,33.858z"/>
<path fill="#018BC9" d="M59.5,31h-8.906C50.594,33.15,56.583,37.417,59.5,31z"/>
<path fill="#0FB4D4" d="M55,25c-2.762,0-5,2.238-5,5s2.238,5,5,5s5-2.238,5-5S57.762,25,55,25z M51,30c0-1.861,1.278-3.412,3-3.858
	v7.717C52.278,33.412,51,31.861,51,30z M56,33.858v-7.717c1.722,0.446,3,1.997,3,3.858S57.722,33.412,56,33.858z"/>
<path fill="#EA8800" d="M19.5,47h-8.906C10.594,49.15,16.583,53.417,19.5,47z"/>
<path fill="#F9B700" d="M15,41c-2.762,0-5,2.238-5,5s2.238,5,5,5s5-2.238,5-5S17.762,41,15,41z M11,46c0-1.861,1.278-3.412,3-3.858
	v7.717C12.278,49.412,11,47.861,11,46z M16,49.858v-7.717c1.722,0.446,3,1.997,3,3.858S17.722,49.412,16,49.858z"/>
<path fill="#EA8800" d="M53.5,15h-8.906C44.594,17.15,50.583,21.417,53.5,15z"/>
<path fill="#F9B700" d="M49,9c-2.762,0-5,2.238-5,5s2.238,5,5,5s5-2.238,5-5S51.762,9,49,9z M45,14c0-1.861,1.278-3.412,3-3.858
	v7.717C46.278,17.412,45,15.861,45,14z M50,17.858v-7.717c1.722,0.446,3,1.997,3,3.858S51.722,17.412,50,17.858z"/>
<path fill="#C21413" d="M36.5,8h-8.906C27.594,10.15,33.583,14.417,36.5,8z"/>
<path fill="#E03636" d="M32,2c-2.762,0-5,2.238-5,5s2.238,5,5,5s5-2.238,5-5S34.762,2,32,2z M28,7c0-1.861,1.278-3.412,3-3.858
	v7.717C29.278,10.412,28,8.861,28,7z M33,10.858V3.142C34.722,3.588,36,5.139,36,7S34.722,10.412,33,10.858z"/>
<path fill="#C21413" d="M36.5,54h-8.906C27.594,56.15,33.583,60.417,36.5,54z"/>
<path fill="#E03636" d="M32,48c-2.762,0-5,2.238-5,5s2.238,5,5,5s5-2.238,5-5S34.762,48,32,48z M28,53c0-1.861,1.278-3.412,3-3.858
	v7.717C29.278,56.412,28,54.861,28,53z M33,56.858v-7.717c1.722,0.446,3,1.997,3,3.858S34.722,56.412,33,56.858z"/>
<polygon fill="#99A8AE" points="34,24 30,24 11,62 15,62 32,28 49,62 53,62 "/>
<polygon fill="#6E8189" points="32,28 49,62 51,62 "/>
<polygon fill="#6E8189" points="13,62 15,62 32,28 "/>
<path fill="#6E8189" d="M34,24h-4l-3.289,6.578c0.793,0.915,1.819,1.62,2.987,2.027L32,28l2.303,4.605
	c1.168-0.407,2.193-1.111,2.986-2.027L34,24z"/>
<circle fill="#E03636" cx="32" cy="26" r="5"/>
<path fill="#C21413" d="M32,29c-2.419,0-4.436-1.718-4.899-4C27.035,25.323,27,25.657,27,26c0,2.762,2.239,5,5,5
	c2.762,0,5-2.238,5-5c0-0.343-0.035-0.677-0.102-1C36.436,27.282,34.419,29,32,29z"/>
<polygon fill="#F9B700" points="32,23.835 33.657,22 33.531,24.47 36,24.343 34.165,26 36,27.657 33.531,27.53 33.657,30 32,28.165 
	30.343,30 30.47,27.53 28,27.657 29.835,26 28,24.343 30.47,24.47 30.343,22 "/>
<circle fill="#FFFFFF" cx="32" cy="26" r="1"/>
<path fill="#E84D88" d="M44.375,47"/>
</svg>
