<?xml version="1.0" encoding="utf-8"?>
<!-- Generator: Adobe Illustrator 15.0.0, SVG Export Plug-In . SVG Version: 6.00 Build 0)  -->
<!DOCTYPE svg PUBLIC "-//W3C//DTD SVG 1.1//EN" "http://www.w3.org/Graphics/SVG/1.1/DTD/svg11.dtd">
<svg version="1.1" id="Layer_1" xmlns="http://www.w3.org/2000/svg" xmlns:xlink="http://www.w3.org/1999/xlink" x="0px" y="0px"
	 width="64px" height="64px" viewBox="0 0 64 64" enable-background="new 0 0 64 64" xml:space="preserve">
<path fill="#E81C27" d="M32.703,5.341c0,2.372,0,4.742,0,7.109c4.09-5.449,8.174,1.896,12.255-3.552
	C40.877,11.979,36.793,2.263,32.703,5.341z"/>
<path fill="#E81C27" d="M32,10C30.768,20.445,17.817,35.965,2,35.965h30h30C46.183,35.965,33.233,20.445,32,10z"/>
<path fill="#E81C27" d="M56.16,35.965H32H7.84C7.84,45.305,2,62,2,62h30h30C62,62,56.16,45.305,56.16,35.965z"/>
<path fill="#B00505" d="M56.139,35.965H32H7.861c0,1.066-0.623,6.256-0.623,6.256c3.225,0,6.146-1.867,6.146-4.17h11.826
	c0,1.588,2.19,3.166,4.302,3.869c-2.548,4.234-6.409,8.875-6.409,8.875L32,62l8.896-11.205c0,0-3.861-4.641-6.409-8.875
	c2.111-0.703,4.301-2.281,4.301-3.869h11.827c0,2.303,2.921,4.17,6.146,4.17C56.761,42.221,56.139,37.031,56.139,35.965z"/>
<polygon fill="#E6EBEF" points="10.178,62 23.604,62 25.347,35.965 13.677,35.965 "/>
<path fill="#BEC3CF" d="M21.363,62l2.9-8.643l0.208-4.264c0,0-4.604,5.15-9.208,7.566C17.266,62,21.363,62,21.363,62z"/>
<polygon fill="#302C3B" points="32,40.084 21.363,62 32,62 "/>
<path fill="#C21413" d="M21.386,62c0,0-2.448,0-4.12-4.938c0,0,4.135-0.549,14.734-16.93C32,40.135,26.756,62,21.386,62z"/>
<path fill="#BEC3CF" d="M13.677,35.965l-0.292,2.086c0,2.303,2.761,4.17,5.984,4.17c3.225,0,5.842-1.867,5.842-4.17l0.136-2.086
	C19.614,39.16,13.677,35.965,13.677,35.965z"/>
<path fill="#C21413" d="M2,35.965c0,2.303,2.614,4.17,5.84,4.17c3.224,0,5.837-1.867,5.837-4.17H2z"/>
<path fill="#C21413" d="M25.347,35.965c0,2.303,3.431,4.17,6.653,4.17v-4.17H25.347z"/>
<polygon fill="#E6EBEF" points="53.822,62 40.396,62 38.652,35.965 50.322,35.965 "/>
<path fill="#BEC3CF" d="M42.636,62l-2.9-8.643l-0.207-4.264c0,0,4.604,5.15,9.207,7.566C46.733,62,42.636,62,42.636,62z"/>
<path fill="#F5F5F5" d="M32,13c-4.404,19.035-18.323,22.965-18.323,22.965s5.534,1.768,11.67,0c0,0,5.786-4.277,6.653-19.17
	c0.868,14.893,6.652,19.17,6.652,19.17c6.136,1.768,11.67,0,11.67,0S36.405,32.035,32,13z"/>
<polygon fill="#302C3B" points="32,40.084 42.636,62 32,62 "/>
<path fill="#C21413" d="M42.613,62c0,0,2.448,0,4.12-4.938c0,0-4.134-0.549-14.733-16.93C32,40.135,37.243,62,42.613,62z"/>
<path fill="#BEC3CF" d="M50.322,35.965l0.293,2.086c0,2.303-2.761,4.17-5.985,4.17c-3.224,0-5.842-1.867-5.842-4.17l-0.136-2.086
	C44.385,39.16,50.322,35.965,50.322,35.965z"/>
<path fill="#C21413" d="M62,35.965c0,2.303-2.615,4.17-5.84,4.17s-5.838-1.867-5.838-4.17H62z"/>
<path fill="#C21413" d="M38.652,35.965c0,2.303-3.429,4.17-6.652,4.17v-4.17H38.652z"/>
<path fill="#E6EBEF" d="M13.677,35.965c0,2.303,2.614,4.17,5.839,4.17c3.224,0,5.831-1.867,5.831-4.17H13.677z"/>
<path fill="#E6EBEF" d="M50.322,35.965c0,2.303-2.614,4.17-5.838,4.17c-3.225,0-5.832-1.867-5.832-4.17H50.322z"/>
<rect x="31" y="3.683" fill="#94989B" width="2" height="10.426"/>
<rect x="31.321" y="3.683" fill="#D0D0D0" width="0.5" height="10.426"/>
<circle fill="#E81C27" cx="32" cy="3.5" r="1.5"/>
<path fill="#C21413" d="M32.937,2.329c0.205,0.257,0.328,0.582,0.328,0.936c0,0.828-0.671,1.5-1.5,1.5
	c-0.354,0-0.68-0.124-0.937-0.33C31.103,4.779,31.524,5,32,5c0.828,0,1.5-0.672,1.5-1.5C33.5,3.026,33.279,2.604,32.937,2.329z"/>
<path fill-rule="evenodd" clip-rule="evenodd" fill="#F46C60" d="M30.887,2.851c0.027,0.193,0.388-0.185,0.754-0.51
	C31.876,2.132,30.804,2.27,30.887,2.851z"/>
</svg>
