<?xml version="1.0" encoding="utf-8"?>
<!-- Generator: Adobe Illustrator 15.0.0, SVG Export Plug-In . SVG Version: 6.00 Build 0)  -->
<!DOCTYPE svg PUBLIC "-//W3C//DTD SVG 1.1//EN" "http://www.w3.org/Graphics/SVG/1.1/DTD/svg11.dtd">
<svg version="1.1" id="Layer_1" xmlns="http://www.w3.org/2000/svg" xmlns:xlink="http://www.w3.org/1999/xlink" x="0px" y="0px"
	 width="64px" height="64px" viewBox="0 0 64 64" enable-background="new 0 0 64 64" xml:space="preserve">
<path fill="#302C3B" d="M44.368,12.721c-2.786,1.115-7.552,1.675-12.368,1.677c-4.818-0.002-9.582-0.562-12.369-1.677
	C12.667,9.933,0.77,14.165,2.103,44.537c0.399,9.082,8.358,9.168,10.796,4.041c2.277-4.788,6.336-8.342,6.336-8.342
	c1.17,1.053,2.721,1.697,4.424,1.697c3.636,0,6.586-2.938,6.586-6.563H32h1.753c0,3.624,2.951,6.563,6.587,6.563
	c1.704,0,3.253-0.645,4.425-1.697c0,0,4.059,3.554,6.336,8.342c2.438,5.127,10.396,5.041,10.795-4.041
	C63.23,14.165,51.332,9.933,44.368,12.721z"/>
<path fill="#1A1626" d="M29.733,34.75c0,3.623-2.464,6.377-6.1,6.377c-1.703,0-3.467-0.953-4.639-2.004c0,0-4.424,3.08-7.17,8.807
	c-1.25,2.605-4.478,4.418-7.589,2.539c2.64,2.709,6.974,1.666,8.663-1.885c2.277-4.789,6.336-8.342,6.336-8.342
	c1.17,1.052,2.721,1.696,4.424,1.696c3.636,0,6.586-2.938,6.586-6.562l3.509-0.006C30.955,35.217,29.733,34.75,29.733,34.75z"/>
<path fill="#1A1626" d="M51.75,12.738c4.717,3.624,9.285,12.654,8.495,30.637c-0.269,6.121-3.08,8.91-7.819,7.035
	c3.205,3.086,9.127,1.939,9.471-5.868C62.814,23.614,57.452,15.1,51.75,12.738z"/>
<path fill="#1A1626" d="M35.919,40.229c2.036,2.192,6.354,2.607,8.847,0.008C43.289,40.001,40.199,42.648,35.919,40.229z"/>
<circle fill="#1A1626" cx="17.284" cy="24.074" r="7"/>
<circle fill="#1A1626" cx="46.716" cy="24.074" r="7"/>
<path fill="#CFD8DD" d="M20.848,26.104c0.701,0.715,1.503,0.505,1.781-0.468l0.004-3.126c-0.282-0.972-1.084-1.181-1.787-0.465
	l-0.718,0.729c-0.703,0.717-0.703,1.884,0.001,2.6L20.848,26.104z"/>
<path fill="#CFD8DD" d="M15.726,18.618c-0.961,0.279-1.166,1.099-0.46,1.813l0.719,0.729c0.703,0.716,1.854,0.716,2.558,0
	l0.714-0.728c0.705-0.716,0.499-1.535-0.455-1.817L15.726,18.618z"/>
<path fill="#CFD8DD" d="M13.678,22.045c-0.703-0.716-1.509-0.507-1.784,0.466l-0.004,3.126c0.28,0.973,1.085,1.183,1.789,0.465
	l0.716-0.729c0.704-0.715,0.703-1.883,0-2.6L13.678,22.045z"/>
<path fill="#CFD8DD" d="M18.8,29.53c0.954-0.283,1.16-1.098,0.457-1.813l-0.716-0.73c-0.705-0.714-1.854-0.714-2.558,0.001
	l-0.718,0.729c-0.706,0.717-0.501,1.531,0.457,1.817L18.8,29.53z"/>
<path fill="#99A8AE" d="M21.792,21.635c0.127,0.145,0.229,0.34,0.301,0.584l-0.004,3.125c-0.192,0.672-0.635,0.969-1.121,0.861
	c0.672,0.576,1.399,0.349,1.662-0.569l0.004-3.126C22.477,21.973,22.161,21.679,21.792,21.635z"/>
<path fill="#99A8AE" d="M18.834,18.629c0.425,0.383,0.408,0.977-0.119,1.512L18,20.869c-0.496,0.504-1.211,0.645-1.838,0.439
	c0.708,0.555,1.73,0.512,2.38-0.148l0.714-0.728C19.952,19.727,19.757,18.921,18.834,18.629z"/>
<path fill="#99A8AE" d="M14.395,22.773l-0.717-0.729c-0.218-0.222-0.443-0.344-0.662-0.394c0.04,0.034,0.081,0.062,0.121,0.103
	l0.717,0.729c0.703,0.717,0.703,1.885,0,2.6l-0.717,0.729c-0.314,0.32-0.648,0.446-0.947,0.41c0.377,0.436,0.961,0.419,1.489-0.119
	l0.716-0.729C15.099,24.658,15.098,23.49,14.395,22.773z"/>
<path fill="#99A8AE" d="M19.257,27.717l-0.716-0.73c-0.208-0.211-0.456-0.352-0.719-0.438c0.061,0.047,0.123,0.09,0.178,0.146
	l0.715,0.73c0.703,0.715,0.498,1.529-0.457,1.813l-3.076,0.004c-0.014-0.004-0.022-0.01-0.035-0.015
	c0.143,0.128,0.336,0.233,0.576,0.306L18.8,29.53C19.754,29.247,19.96,28.433,19.257,27.717z"/>
<circle fill="#EA8800" cx="46.694" cy="27.711" r="2"/>
<path fill-rule="evenodd" clip-rule="evenodd" fill="#F9B700" d="M45.21,26.845c0.036,0.258,0.518-0.247,1.005-0.681
	C46.529,25.886,45.1,26.069,45.21,26.845z"/>
<circle fill="#EA8800" cx="50.331" cy="24.074" r="2"/>
<path fill-rule="evenodd" clip-rule="evenodd" fill="#F9B700" d="M48.847,23.209c0.036,0.258,0.518-0.247,1.005-0.681
	C50.166,22.25,48.736,22.434,48.847,23.209z"/>
<circle fill="#EA8800" cx="43.058" cy="24.074" r="2"/>
<path fill-rule="evenodd" clip-rule="evenodd" fill="#F9B700" d="M41.573,23.209c0.037,0.258,0.518-0.247,1.006-0.681
	C42.894,22.25,41.463,22.434,41.573,23.209z"/>
<circle fill="#CFD8DD" cx="23.766" cy="35.385" r="4.5"/>
<path fill="#99A8AE" d="M26.577,31.873c0.615,0.77,0.984,1.744,0.984,2.805c0,2.485-2.014,4.501-4.498,4.501
	c-1.066,0-2.041-0.372-2.813-0.989c0.824,1.031,2.092,1.695,3.516,1.695c2.484,0,4.5-2.016,4.5-4.5
	C28.266,33.964,27.604,32.698,26.577,31.873z"/>
<path fill-rule="evenodd" clip-rule="evenodd" fill="#E6EBEF" d="M20.426,33.437c0.083,0.58,1.164-0.555,2.263-1.53
	C23.397,31.279,20.178,31.691,20.426,33.437z"/>
<circle fill="#CFD8DD" cx="40.232" cy="35.385" r="4.5"/>
<path fill="#99A8AE" d="M43.043,31.874c0.615,0.769,0.984,1.743,0.984,2.805c0,2.485-2.012,4.501-4.498,4.501
	c-1.064,0-2.041-0.372-2.813-0.99c0.824,1.032,2.092,1.695,3.516,1.695c2.486,0,4.5-2.015,4.5-4.5
	C44.732,33.965,44.072,32.699,43.043,31.874z"/>
<path fill-rule="evenodd" clip-rule="evenodd" fill="#E6EBEF" d="M36.893,33.438c0.084,0.58,1.165-0.555,2.264-1.53
	C39.863,31.279,36.645,31.693,36.893,33.438z"/>
<circle fill="#EA8800" cx="46.694" cy="20.438" r="2"/>
<path fill-rule="evenodd" clip-rule="evenodd" fill="#F9B700" d="M45.21,19.572c0.036,0.258,0.518-0.246,1.005-0.68
	C46.529,18.613,45.1,18.797,45.21,19.572z"/>
<path fill-rule="evenodd" clip-rule="evenodd" fill="#4E5E67" d="M4.375,29.33c-0.083,2.697,1.222-8.598,8.245-14.684
	C16.014,11.705,4.831,14.357,4.375,29.33z"/>
<path fill-rule="evenodd" clip-rule="evenodd" fill="#CFD8DD" d="M30.284,29.569h-3.129c-1.248,0-1.248-2,0-2h3.129
	C31.531,27.569,31.531,29.569,30.284,29.569z"/>
<path fill-rule="evenodd" clip-rule="evenodd" fill="#E6EBEF" d="M26.362,28.548c0.033,0.277,0.461-0.266,0.895-0.733
	C27.538,27.514,26.264,27.712,26.362,28.548z"/>
<path fill-rule="evenodd" clip-rule="evenodd" fill="#CFD8DD" d="M36.846,29.569h-3.129c-1.248,0-1.248-2,0-2h3.129
	C38.093,27.569,38.093,29.569,36.846,29.569z"/>
<path fill-rule="evenodd" clip-rule="evenodd" fill="#E6EBEF" d="M32.924,28.548c0.033,0.277,0.46-0.266,0.894-0.733
	C34.1,27.514,32.827,27.712,32.924,28.548z"/>
</svg>
