<?xml version="1.0" encoding="utf-8"?>
<!-- Generator: Adobe Illustrator 15.0.0, SVG Export Plug-In . SVG Version: 6.00 Build 0)  -->
<!DOCTYPE svg PUBLIC "-//W3C//DTD SVG 1.1//EN" "http://www.w3.org/Graphics/SVG/1.1/DTD/svg11.dtd">
<svg version="1.1" id="Layer_1" xmlns="http://www.w3.org/2000/svg" xmlns:xlink="http://www.w3.org/1999/xlink" x="0px" y="0px"
	 width="64px" height="64px" viewBox="0 0 64 64" enable-background="new 0 0 64 64" xml:space="preserve">
<path fill="#75D6FF" d="M62,46c0,3.301-2.699,6-6,6H8c-3.3,0-6-2.699-6-6V18c0-3.3,2.7-6,6-6h48c3.301,0,6,2.7,6,6V46z"/>
<rect x="6" y="22" fill="#018BC9" width="28" height="4"/>
<rect x="6" y="29.999" fill="#018BC9" width="28" height="4"/>
<rect x="6" y="37.999" fill="#018BC9" width="14" height="4"/>
<polygon fill="#018BC9" points="52,20 54,20 56,16 48,16 48,31.999 56,31.999 56,28 52,28 52,26 56,26 56,22 52,22 "/>
<polygon fill="#018BC9" points="50,37.999 50,41.999 52,40.999 52,48 56,48 56,35.999 "/>
<path fill="#FFFFFF" d="M42,17c0,0.55-0.449,1-1,1h-2c-0.551,0-1-0.45-1-1v-5h4V17z"/>
<path fill="#FFFFFF" d="M38,47c0-0.551,0.449-1,1-1h2c0.551,0,1,0.449,1,1v5h-4V47z"/>
<path fill="#FFFFFF" d="M42,29c0,0.55-0.449,0.999-1,0.999h-2c-0.551,0-1-0.449-1-0.999v-6c0-0.55,0.449-1,1-1h2c0.551,0,1,0.45,1,1
	V29z"/>
<path fill="#FFFFFF" d="M42,40.999c0,0.551-0.449,1-1,1h-2c-0.551,0-1-0.449-1-1v-6c0-0.551,0.449-1,1-1h2c0.551,0,1,0.449,1,1
	V40.999z"/>
</svg>
