<?xml version="1.0" encoding="utf-8"?>
<!-- Generator: Adobe Illustrator 15.0.0, SVG Export Plug-In . SVG Version: 6.00 Build 0)  -->
<!DOCTYPE svg PUBLIC "-//W3C//DTD SVG 1.1//EN" "http://www.w3.org/Graphics/SVG/1.1/DTD/svg11.dtd">
<svg version="1.1" id="Layer_1" xmlns="http://www.w3.org/2000/svg" xmlns:xlink="http://www.w3.org/1999/xlink" x="0px" y="0px"
	 width="64px" height="64px" viewBox="0 0 64 64" enable-background="new 0 0 64 64" xml:space="preserve">
<path fill="#CFD8DD" d="M37.932,6.85c-4.528,5.358-4.271,13.387,0.781,18.437c5.052,5.056,13.076,5.31,18.438,0.78L37.932,6.85z"/>
<path fill="#CFD8DD" d="M58.006,5.992C52.955,0.942,44.93,0.685,39.57,5.213l19.217,19.216
	C63.316,19.069,63.059,11.044,58.006,5.992z"/>
<path fill="#99A8AE" d="M56.331,18.381c-1.5,1.498-3.747-0.751-2.249-2.249C55.583,14.633,57.83,16.882,56.331,18.381z"/>
<path fill="#99A8AE" d="M60.813,17.269c-1.5,1.498-3.748-0.751-2.248-2.249C60.064,13.521,62.313,15.77,60.813,17.269z"/>
<path fill="#99A8AE" d="M58.857,11.197c-1.5,1.502-3.749-0.75-2.25-2.248C58.107,7.451,60.357,9.699,58.857,11.197z"/>
<path fill="#E6EBEF" d="M46.879,11.198c-1.5,1.498-3.748-0.75-2.248-2.25C46.13,7.448,48.377,9.699,46.879,11.198z"/>
<path fill="#E6EBEF" d="M50.863,5.747c-1.499,1.498-3.748-0.75-2.248-2.25S52.362,4.248,50.863,5.747z"/>
<path fill="#E6EBEF" d="M41.406,15.223c-1.499,1.498-3.748-0.75-2.248-2.25S42.905,13.724,41.406,15.223z"/>
<path fill="#E6EBEF" d="M44.69,6.355c-1.499,1.498-3.747-0.75-2.248-2.25S46.189,4.856,44.69,6.355z"/>
<path fill="#99A8AE" d="M50.011,26.168c-1.499,1.501-3.747-0.747-2.247-2.248C49.262,22.421,51.51,24.668,50.011,26.168z"/>
<path fill="#99A8AE" d="M47.963,21.098c-1.5,1.499-3.748-0.75-2.25-2.25C47.213,17.349,49.463,19.597,47.963,21.098z"/>
<path opacity="0.2" fill="#302C3B" d="M54.152,23.068c-4.818,4.07-11.782,4.265-16.813,0.593c0.413,0.567,0.861,1.115,1.373,1.625
	c5.052,5.056,13.076,5.31,18.438,0.78L54.152,23.068z"/>
<path opacity="0.2" fill="#302C3B" d="M58.006,5.992c-0.51-0.512-1.059-0.958-1.623-1.37c3.668,5.029,3.479,11.99-0.594,16.809
	l2.998,2.998C63.316,19.069,63.059,11.044,58.006,5.992z"/>
<path fill="#99A8AE" d="M59.102,24.742L39.255,4.895c-0.294,0.249-1.391,1.346-1.638,1.639l19.848,19.848
	C57.759,26.137,58.855,25.04,59.102,24.742z"/>
<path fill="#BEC3CF" d="M42.796,8.437l-2.661-2.662c-0.273,0.271-1.371,1.367-1.637,1.638l2.66,2.661
	C41.43,9.809,42.527,8.711,42.796,8.437z"/>
<path fill="#6E8189" d="M59.102,24.742l-3.666-3.665c-0.295,0.248-1.391,1.346-1.638,1.638l3.667,3.666
	C57.758,26.137,58.855,25.04,59.102,24.742z"/>
<polygon fill="#302C3B" points="30.207,22.053 2.898,55.814 3.443,56.358 2.898,58.479 5.523,61.102 7.643,60.56 8.186,61.102 
	41.947,33.795 "/>
<polygon fill="#4E5E67" points="31.011,22.86 3.581,56.495 4.875,57.79 33.635,25.482 "/>
<polygon fill="#302C3B" points="49.064,29.261 34.738,14.935 32.988,18.611 45.387,31.013 "/>
<polygon fill="#4E5E67" points="38.664,18.86 35.52,15.717 33.77,19.394 36.387,22.013 "/>
<polygon fill="#BEC3CF" points="32.988,18.611 30.207,22.053 41.947,33.795 45.387,31.013 "/>
<polygon fill="#CFD8DD" points="33.77,19.394 31.011,22.86 33.635,25.482 36.387,22.013 "/>
<rect x="1.36" y="58.256" transform="matrix(0.707 0.7072 -0.7072 0.707 43.1499 13.6511)" fill="#6E8189" width="7.479" height="1.292"/>
<polygon fill="#99A8AE" points="4.875,57.79 3.581,56.495 2.654,57.369 3.975,58.69 "/>
<path fill="#4E5E67" d="M32.544,36.327l-4.872-4.872l1.249-1.249c3.077-3.076,7.949,1.795,4.872,4.872L32.544,36.327z"/>
<path fill="#6E8189" d="M28.796,40.075c-3.076,3.075-7.947-1.797-4.872-4.872l4.247-4.248c3.077-3.076,7.95,1.795,4.873,4.873
	L28.796,40.075z"/>
<rect x="26.803" y="33.347" transform="matrix(0.7072 0.7071 -0.7071 0.7072 33.0371 -10.7435)" fill="#99A8AE" width="5.371" height="2.329"/>
<path fill="#CFD8DD" d="M31.313,36.484l-3.798-3.798l1.646-1.647c2.398-2.398,6.198,1.399,3.799,3.798L31.313,36.484z"/>
<path fill="#CFD8DD" d="M11.534,55.292c-0.785,0.777-2.057,0.777-2.842,0.001c-0.786-0.777-0.785-2.035,0-2.812
	c0.786-0.776,2.059-0.777,2.842,0C12.319,53.258,12.319,54.517,11.534,55.292z"/>
<path fill="#4E5E67" d="M8.103,53.887c-0.001-0.529,4.021-0.528,4.02,0C12.123,54.418,8.102,54.419,8.103,53.887z"/>
<path fill-rule="evenodd" clip-rule="evenodd" fill="#E6EBEF" d="M9.307,52.519c-0.263,0.347,0.909,0.32,2.003,0.384
	C12.016,52.946,10.097,51.479,9.307,52.519z"/>
<path fill="#99A8AE" d="M8.119,54.128c0.105,0.163,0.228,0.318,0.372,0.46c0.906,0.898,2.302,1.011,3.333,0.344
	c-0.082,0.126-0.176,0.249-0.29,0.36c-0.785,0.777-2.057,0.777-2.842,0.001C8.36,54.966,8.172,54.553,8.119,54.128z"/>
</svg>
