<?xml version="1.0" encoding="utf-8"?>
<!-- Generator: Adobe Illustrator 16.2.0, SVG Export Plug-In . SVG Version: 6.00 Build 0)  -->
<!DOCTYPE svg PUBLIC "-//W3C//DTD SVG 1.1//EN" "http://www.w3.org/Graphics/SVG/1.1/DTD/svg11.dtd">
<svg version="1.1" id="Layer_1" xmlns="http://www.w3.org/2000/svg" xmlns:xlink="http://www.w3.org/1999/xlink" x="0px" y="0px"
	 width="64px" height="64px" viewBox="0 0 64 64" enable-background="new 0 0 64 64" xml:space="preserve">
<path fill="#BEC3CF" d="M49,37c-4.523,4.523,2.276,10,2.276,10c0,1.854-2.834,5.625-2.834,8c0,0.958,0.411,4,2.616,4
	c0.765,0,1.546-0.405,2.107-1c1.89-2-0.725-2.357,0-3c0.354-0.313,0.741-0.555,0.944-1c0.514-1.109-0.822-3.829-0.582-5.025
	C53.774,47.268,55,45.378,55,44C55,42.712,49,41.125,49,37z"/>
<rect x="25" y="5" fill="#F9C802" width="4" height="57"/>
<path fill="#F59E01" d="M60,30c0-3.601-2.509-6-6.384-6S48,27.144,48,27.144V29c4.89-1.31,6.612,1.574,7,6c0.581,6.641,7,9,7,9
	C56.505,39.55,60,34,60,30z"/>
<path fill="#D47706" d="M55,31c2,5-0.625,9.438,7,13c0,0-7.419-1.359-8-8c-0.366-4.182-1.037-7.874-5.233-7.164
	C48.767,28.836,53.469,27.172,55,31z"/>
<path fill="#BEC3CF" d="M23.5,35.018c0,0-11.014-2.018-13.5-2.018c-1.613,0-4.563,8.848-5.346,12.001C3.678,48.93,7.629,50,8.622,50
	C9.344,50,10,48.996,10,47c0-4-3,0-3-3c0-1.841,2.359-4.729,3.605-5.985L23.5,35.018z"/>
<path fill="#4E5E67" d="M7.61,45.208c0,0-0.613,2.126-1.61,3.792c-0.151,0.253,1.188,1,2,1c1.656,0,2-0.219,2-4
	C10,44.406,8.438,45.208,7.61,45.208z"/>
<polygon fill="#F59E01" points="25,8 25,14 29,10 29,8 "/>
<polygon fill="#F59E01" points="25,22 25,30 29,26 29,18 "/>
<polygon fill="#F59E01" points="25,38 25,46 29,42 29,34 "/>
<path fill="#D47706" d="M55,28c0,0-3.624-2.048-7,1.328C48,29.328,50,23,55,28z"/>
<path fill="#E6EBEF" d="M55,45c0.978,0.326,0.427,3.144,1,4c0.695,1.039,3.562,1.829,4,3c0.176,0.469-0.354,1.646,0,2s2,0,2,2
	c0,1,0,3-2,3c-4,0-6.042-8.5-7-10c-0.785-1.229-2.84-2.421-5-3c-5.151-1.38-7.055-7-10-7c-3.5,0-8.833,2-14,2
	c-2.833,0-12-0.183-12-9c0-5,2-9.438,2-13c0-1.219-1-1.605-1.64-1.605c-1.079,0-2.454,0.699-3.36,1.605c-0.53,0.53-2.47,0.53-3,0
	c-0.354-0.354,0.354-1.646,0-2s-1.646,0.354-2,0c-0.53-0.53-0.376-2.352,0-3c0.621-1.069,3.696-1.574,4.946-3.146
	C10.121,9.377,12,7,15,7c7.5,0,8.932,9.715,10,14c1.209,4.852,3,8,9,7c2.563-1.281,6-3,10-3c4.625,0,7,4.25,7,8c0,3.25-2,5.25-2,7
	C49,41,52,44,55,45z"/>
<path fill="#F59E01" d="M25.249,18.199C25.249,13.024,23,10,19.558,10L20,12c2.221,2.221,2.615,4.266,3,6c1,4.5,3,6,3,6
	S25.249,20.342,25.249,18.199z"/>
<path fill="#4E5E67" d="M11.944,11.479c-0.181-0.273-0.975-0.631-1.649-0.409c-0.3,0.1-0.379,1.499-0.199,1.773
	c0.181,0.272,0.738,0.181,1.248-0.194C11.854,12.271,12.125,11.752,11.944,11.479z"/>
<path fill="#D47706" d="M21.714,10L21,15.083C21,15.083,26.118,13.599,21.714,10z"/>
<path fill="#F59E01" d="M22.128,14.313c1.503-4.328-1.128-6.96-4.656-6.96c0,0-0.644,1.953,0.467,3.978
	c0.942,1.72,2.171,2.705,2.171,5.542C20.111,20.563,22,21,22,21S21,17.563,22.128,14.313z"/>
<path fill="#D47706" d="M18.438,7.829c0,0,2.777,1.816,0.69,5.41C19.129,13.239,18.438,11.741,18.438,7.829z"/>
<path fill="#F59E01" d="M17,12c0-3.147-2-6-2-6c4.503,0,4.59,5.079,4,8c-0.406,2.006,0,4,0,4S17,17,17,12z"/>
<path fill="#F59E01" d="M13,6c-1.5,0-3.553,1.447-2,3c0.969,0.969,2.083,1,3,3c0,0,0.917-1.083,0-2C11.177,7.177,13,6,13,6z"/>
<path fill="#E6EBEF" d="M12,3c0,0,0,6,1.418,6C16.521,9,17.67,5,12,3z"/>
<path fill="#0FB4D4" d="M5.984,17.5c6.109-0.112,10.863-4.753,12.494-10.381c0.18-0.622-0.786-0.885-0.965-0.266
	c-1.506,5.191-5.88,9.542-11.529,9.646C5.339,16.511,5.338,17.512,5.984,17.5L5.984,17.5z"/>
<path fill="#018BC9" d="M26,24.997c0,0,1,10.003,9,10.003c6,0,8.23-10.844,6-11C38.179,23.803,36,32,26,24.997z"/>
<path fill="#0FB4D4" d="M27,25c0,0,2,8,8,8c2.75,0,5-3,5-7C40,23,34.718,30.765,27,25z"/>
<path fill="#0FB4D4" d="M5.389,13.221c1.316,1.747,2.222,3.866,2.918,5.932c0.206,0.611,1.162,0.349,0.954-0.268
	c-0.724-2.149-1.649-4.357-3.018-6.173C5.86,12.204,5,12.705,5.389,13.221L5.389,13.221z"/>
<circle fill="#018BC9" cx="8" cy="17" r="1"/>
<path fill="#CFD8DD" d="M37,38c5,0,6.375,5.5,11,8c-5.151-1.38-7.1-5.488-10-6c-1.888-0.333-7,2-14,2c-8,0-4-6-4-6
	C23.502,41.5,31.286,38,37,38z"/>
<path fill="#F59E01" d="M27,2c-1.657,0-3,1.343-3,3s1.343,3,3,3c1,0,3-1,3-3C30,3.343,28.657,2,27,2z"/>
<path fill="#0FB4D4" d="M26.667,24.417C26.667,24.417,21,30,13,26c0,0-2,3,0,5c1,1,3,0,4-1c2-2,3.067,2.748,5,2
	c2.262-0.875,0.838-4,4-4C29,28,28,26,26.667,24.417z"/>
<path fill="#F9C802" d="M26.185,24.132C20,28,13.966,25.259,13,25s-1,1.458,0,2c3.958,1.875,14,1,14-2
	C27,24.262,26.695,23.813,26.185,24.132z"/>
<path fill="#99A8AE" d="M13,5c0,0,0,3,1,3C14.958,8,15,6,13,5z"/>
<path fill="#CFD8DD" d="M11.024,11.422c-0.261,0.049-0.35,0.358,0.266,0.466C11.905,11.996,11.515,11.33,11.024,11.422z"/>
<polygon fill="#F59E01" points="25,54 25,62 29,58 29,50 "/>
<path fill="#4E5E67" d="M60,54c0,0-0.336,2.5-2.671,3.622C57.329,57.622,58,59,60,59s2-1.707,2-3C62,55,61.708,54,60,54z"/>
<path fill="#4E5E67" d="M53.333,55.292C52.963,54.764,48.442,53,48.442,55c0,0.229,0.092,4,2.616,4S54.686,57.223,53.333,55.292z"/>
<path fill="#D47706" d="M27,7c-1.657,0-3,0-3,1s1.343,1,3,1s2.965,0,3-1C30.035,7,28.657,7,27,7z"/>
<path fill="#E6EBEF" d="M21,35c0,0-0.875,7-5,7c-4,0-6.586-3.401-8-1.988c-1.257,1.256-3.272,4.697-3.272,6.539
	C4.728,47.63,8,47.108,8,48.004C8,51.125,6.625,53,6,53c-1,0-4-1.943-4-5.994C2,44.396,4.418,39.172,5,37
	c0.286-1.066,0.896-1.984,2-1.984C9,35.016,18.125,37.875,21,35z"/>
<path fill="#4E5E67" d="M5.667,47.228C5.667,47.228,5,50,4,52c-0.151,0.303,1.396,1,2,1s2,0.297,2-4.996
	C8,46.197,6.75,47.434,5.667,47.228z"/>
<path fill="#FFFFFF" d="M47.828,28.279c-1.38-1.393-2.919-1.449-2.823-1.097c0.048,0.338,1.138,0.854,2.022,1.786
	c0.925,0.898,1.389,1.953,1.746,2.025C49.143,31.11,49.207,29.677,47.828,28.279z"/>
<path fill="#F9C802" d="M28,3c-1.333,0-1.333,2,0,2S29.333,3,28,3z"/>
</svg>
