<?xml version="1.0" encoding="utf-8"?>
<!-- Generator: Adobe Illustrator 15.0.0, SVG Export Plug-In . SVG Version: 6.00 Build 0)  -->
<!DOCTYPE svg PUBLIC "-//W3C//DTD SVG 1.1//EN" "http://www.w3.org/Graphics/SVG/1.1/DTD/svg11.dtd">
<svg version="1.1" id="Layer_1" xmlns="http://www.w3.org/2000/svg" xmlns:xlink="http://www.w3.org/1999/xlink" x="0px" y="0px"
	 width="64px" height="64px" viewBox="0 0 64 64" enable-background="new 0 0 64 64" xml:space="preserve">
<path fill="#BEC3CF" d="M37.784,28.819c-1.341-6.949-4.263-10.809-4.06-14.604c0.094-1.73,2-3.642,2-6.682
	c0-7.379-8.742-7.1-8.715-0.029c0.012,3.038,1.669,5.012,1.762,6.742c0.208,3.797-2.55,7.664-3.818,14.628
	c-1.979,10.905-0.478,14.138,0.14,14.798c2.123,2.279,8.237,2.947,10.72,1.127C39.456,42.13,38.907,34.642,37.784,28.819z"/>
<path fill="#E6EBEF" d="M24.428,28.819c1.267-6.963,4.272-10.809,4.065-14.604c-0.094-1.73-1.999-3.642-1.999-6.682
	c0-4.611,3.604-6.341,6.308-5.189c0,0,0.936,2.426,0.936,5.191c0,4.291-2.18,6.903-2.18,6.903
	c6.67,16.444,5.402,26.892,2.565,29.132c-1.946,1.536-7.325,1.934-9.031,0.102C23.883,42.38,22.449,39.724,24.428,28.819z"/>
<path fill="#E81C27" d="M34.146,12.704h-6.075c0.236,0.529,0.439,2.131,0.41,2.441h5.253C33.706,14.835,33.91,13.233,34.146,12.704z
	"/>
<path fill="#E81C27" d="M34.253,17.714h-6.302c-0.287,0.773-0.484,1.582-0.871,2.443h8.029
	C34.723,19.296,34.538,18.487,34.253,17.714z"/>
<path fill="#BEC3CF" d="M16.335,28.819c-1.341-6.949-4.264-10.809-4.06-14.604c0.093-1.73,2-3.642,2-6.682
	c0-7.379-8.741-7.1-8.715-0.029c0.012,3.038,1.669,5.012,1.763,6.742c0.207,3.797-2.551,7.664-3.82,14.628
	C1.525,39.78,3.027,43.013,3.644,43.673c2.123,2.279,8.236,2.947,10.721,1.127C18.007,42.13,17.458,34.642,16.335,28.819z"/>
<path fill="#E6EBEF" d="M2.98,28.819c1.268-6.963,4.272-10.809,4.065-14.604c-0.094-1.73-1.999-3.642-1.999-6.682
	c0-4.611,3.604-6.341,6.309-5.189c0,0,0.935,2.426,0.935,5.191c0,4.291-2.18,6.903-2.18,6.903
	c6.67,16.444,5.401,26.892,2.563,29.132c-1.945,1.536-7.322,1.934-9.029,0.102C2.435,42.38,1.001,39.724,2.98,28.819z"/>
<path fill="#E81C27" d="M12.697,12.704H6.625c0.234,0.529,0.438,2.131,0.409,2.441h5.253C12.257,14.835,12.462,13.233,12.697,12.704
	z"/>
<path fill="#E81C27" d="M12.804,17.714H6.501c-0.285,0.773-0.484,1.582-0.869,2.443h8.027
	C13.275,19.296,13.089,18.487,12.804,17.714z"/>
<path fill="#BEC3CF" d="M27.98,32.476c-1.524-7.896-4.845-12.281-4.613-16.594c0.105-1.966,2.272-4.138,2.272-7.592
	c0-8.385-9.933-8.068-9.903-0.033c0.014,3.452,1.896,5.694,2.004,7.662c0.234,4.313-2.9,8.709-4.342,16.623
	c-2.248,12.391-0.541,16.064,0.16,16.814c2.412,2.59,9.359,3.35,12.182,1.28C29.88,47.603,29.256,39.093,27.98,32.476z"/>
<path fill="#E6EBEF" d="M12.803,32.476c1.439-7.91,4.854-12.281,4.618-16.594c-0.105-1.966-2.271-4.138-2.271-7.592
	c0-5.24,4.098-7.206,7.169-5.896c0,0,1.063,2.756,1.063,5.9c0,4.875-2.477,7.843-2.477,7.843
	c7.579,18.687,6.139,30.559,2.913,33.104c-2.209,1.746-8.32,2.195-10.26,0.115C12.185,47.887,10.553,44.87,12.803,32.476z"/>
<path fill="#E81C27" d="M23.845,14.163h-6.902c0.269,0.604,0.5,2.424,0.467,2.777h5.969C23.345,16.587,23.578,14.767,23.845,14.163z
	"/>
<path fill="#E81C27" d="M23.967,19.856h-7.163c-0.324,0.881-0.551,1.8-0.988,2.777h9.123C24.5,21.656,24.291,20.737,23.967,19.856z"
	/>
<path fill="#4E5E67" d="M62,42.07C62,53.077,53.079,62,42.073,62C31.058,62,22.14,53.077,22.14,42.07S31.058,22.14,42.073,22.14
	C53.079,22.14,62,31.063,62,42.07z"/>
<path fill="#404D54" d="M54.519,26.519c2.721,3.408,4.36,7.722,4.36,12.424c0,11.006-8.922,19.932-19.928,19.932
	c-4.717,0-9.042-1.646-12.453-4.381C30.148,59.063,35.762,62,42.073,62c11.005,0,19.926-8.923,19.926-19.93
	C61.999,35.778,59.074,30.173,54.519,26.519z"/>
<path fill-rule="evenodd" clip-rule="evenodd" fill="#6E8189" d="M26.432,33.454c-0.78,3.707,3.503-0.789,10.865-6.788
	C40.545,24.021,28.039,25.817,26.432,33.454z"/>
<circle fill="#1A1626" cx="41.298" cy="46.583" r="3.488"/>
<circle fill="#1A1626" cx="31.934" cy="36.993" r="2.99"/>
<circle fill="#1A1626" cx="44.288" cy="32.429" r="2.989"/>
<path fill-rule="evenodd" clip-rule="evenodd" fill="#F5F5F5" d="M5.991,6.253c0.253,1.005,1.855-1.261,3.514-3.252
	C10.574,1.719,5.229,3.241,5.991,6.253z"/>
<path fill-rule="evenodd" clip-rule="evenodd" fill="#F5F5F5" d="M27.439,6.253c0.253,1.005,1.855-1.261,3.514-3.252
	C32.022,1.719,26.677,3.241,27.439,6.253z"/>
<path fill-rule="evenodd" clip-rule="evenodd" fill="#F5F5F5" d="M16.004,7.241c0.32,1.272,2.351-1.597,4.45-4.119
	C21.809,1.498,15.04,3.427,16.004,7.241z"/>
</svg>
