<?xml version="1.0" encoding="utf-8"?>
<!-- Generator: Adobe Illustrator 15.0.0, SVG Export Plug-In . SVG Version: 6.00 Build 0)  -->
<!DOCTYPE svg PUBLIC "-//W3C//DTD SVG 1.1//EN" "http://www.w3.org/Graphics/SVG/1.1/DTD/svg11.dtd">
<svg version="1.1" id="Layer_1" xmlns="http://www.w3.org/2000/svg" xmlns:xlink="http://www.w3.org/1999/xlink" x="0px" y="0px"
	 width="64px" height="64px" viewBox="0 0 64 64" enable-background="new 0 0 64 64" xml:space="preserve">
<path fill="#D47706" d="M30.517,29.841c-1.645-1.645-3.484-3.062-6.414-2.836c-6.662,0.504-2.294,8.09-10.83,8.66
	c-3.051,0.2-5.947,0.871-8.044,2.971C-0.1,43.963,1.602,51.276,7.162,56.84c5.56,5.559,12.875,7.259,18.203,1.933
	c2.779-2.778,2.685-7.817,3.614-10.826c1.2-3.892,7.464-2.574,7.176-6.901c0.036-2.041-3.244,0.257-4.558-1.057
	C29.58,37.971,31.126,30.451,30.517,29.841L30.517,29.841z"/>
<path fill="#ED9D00" d="M32.209,42.62c-6.25-1.692-2.984-10.945-3.271-11.233c-1.503-1.5-2.747-2.276-4.685-2.193
	c-4.841,0.206-1.718,7.924-10.85,8.662c-3.181,0.256-5.23,0.928-6.628,2.327C1.354,45.605,6.232,52.781,8.71,55.258
	c2.477,2.478,9.653,7.357,15.077,1.934C28.101,52.879,23.606,45.379,32.209,42.62z"/>
<rect x="19.963" y="38.785" transform="matrix(0.7073 0.7069 -0.7069 0.7073 35.5132 -4.7457)" fill="#302C3B" width="7.048" height="3.456"/>
<rect x="15.176" y="43.572" transform="matrix(0.707 0.7072 -0.7072 0.707 37.516 0.0477)" fill="#302C3B" width="7.048" height="3.456"/>
<rect x="11.927" y="48.457" transform="matrix(0.7072 0.707 -0.707 0.7072 39.2473 4.1146)" fill="#302C3B" width="5.457" height="1.969"/>
<path fill="#302C3B" d="M22.975,54.063c-1.415,1.415-3.534-0.704-2.122-2.121C22.269,50.53,24.389,52.648,22.975,54.063z"/>
<path fill="#302C3B" d="M19.486,57.553c-1.413,1.414-3.536-0.707-2.121-2.122C18.781,54.018,20.902,56.139,19.486,57.553z"/>
<path fill="#302C3B" d="M54.546,18.783c-0.479-0.478-1.005-0.298-1.535,0.134l-1.143-1.139l-0.688,0.688l1.141,1.141
	c-0.435,0.532-0.614,1.059-0.137,1.538C52.773,21.734,55.136,19.372,54.546,18.783z"/>
<path fill="#302C3B" d="M57.986,15.342c-0.478-0.479-1.004-0.3-1.535,0.133l-1.14-1.141l-0.692,0.691l1.141,1.142
	c-0.434,0.532-0.612,1.058-0.133,1.537C56.216,18.293,58.576,15.931,57.986,15.342z"/>
<path fill="#302C3B" d="M61.43,11.902c-0.479-0.479-1.006-0.3-1.537,0.132l-1.141-1.141l-0.692,0.694l1.141,1.139
	c-0.433,0.532-0.61,1.058-0.132,1.537C59.656,14.849,62.017,12.489,61.43,11.902z"/>
<path fill="#302C3B" d="M45.531,12.824l0.692-0.694l-1.139-1.141c0.432-0.531,0.61-1.056,0.131-1.534
	c-0.588-0.588-2.949,1.771-2.36,2.359c0.48,0.48,1.007,0.302,1.537-0.132L45.531,12.824z"/>
<path fill="#302C3B" d="M49.665,8.691L48.524,7.55c0.434-0.531,0.612-1.056,0.134-1.537c-0.59-0.585-2.95,1.771-2.361,2.361
	c0.48,0.479,1.007,0.299,1.538-0.135l1.14,1.141L49.665,8.691z"/>
<path fill="#302C3B" d="M52.415,5.943l0.691-0.694l-1.142-1.14c0.434-0.53,0.614-1.057,0.135-1.538
	c-0.589-0.588-2.95,1.773-2.362,2.362c0.48,0.48,1.006,0.3,1.536-0.132L52.415,5.943z"/>
<path fill="#302C3B" d="M59.679,4.324c-4.44-4.443-4.388-2.346-11.587,4.851c-4.235,4.236-6.01,6.08-4.954,8.295L24.342,35.207
	l4.451,4.454l17.74-18.797c2.215,1.057,4.059-0.718,8.292-4.956C62.023,8.71,64.118,8.761,59.679,4.324z"/>
<path fill="#99A8AE" d="M54.684,7.517c-1.209,1.209-3.023-0.605-1.816-1.814C54.078,4.494,55.893,6.308,54.684,7.517z"/>
<path fill="#99A8AE" d="M51.229,10.972c-1.212,1.208-3.025-0.606-1.815-1.815C50.623,7.952,52.436,9.765,51.229,10.972z"/>
<path fill="#99A8AE" d="M47.771,14.429c-1.207,1.207-3.021-0.608-1.813-1.815C47.162,11.403,48.98,13.219,47.771,14.429z"/>
<path fill="#99A8AE" d="M58.311,11.143c-1.209,1.207-3.024-0.605-1.814-1.812C57.702,8.118,59.521,9.936,58.311,11.143z"/>
<path fill="#99A8AE" d="M54.854,14.598c-1.209,1.209-3.021-0.601-1.813-1.814C54.249,11.58,56.064,13.393,54.854,14.598z"/>
<path fill="#99A8AE" d="M51.398,18.057c-1.209,1.206-3.019-0.604-1.815-1.818C50.797,15.036,52.608,16.848,51.398,18.057z"/>
<rect x="33.972" y="-0.843" transform="matrix(0.7076 0.7066 -0.7066 0.7076 29.5494 -16.0947)" fill="#99A8AE" width="0.5" height="57"/>
<rect x="33.265" y="3.278" transform="matrix(0.7071 0.7071 -0.7071 0.7071 30.8725 -14.9766)" fill="#99A8AE" width="0.5" height="53"/>
<rect x="32.204" y="8.253" transform="matrix(0.7071 0.7071 -0.7071 0.7071 32.3119 -13.5019)" fill="#99A8AE" width="0.5" height="48"/>
<rect x="36.093" y="1.278" transform="matrix(0.7071 0.7071 -0.7071 0.7071 31.7008 -16.9764)" fill="#99A8AE" width="0.5" height="57"/>
</svg>
