<?xml version="1.0" encoding="utf-8"?>
<!-- Generator: Adobe Illustrator 15.0.0, SVG Export Plug-In . SVG Version: 6.00 Build 0)  -->
<!DOCTYPE svg PUBLIC "-//W3C//DTD SVG 1.1//EN" "http://www.w3.org/Graphics/SVG/1.1/DTD/svg11.dtd">
<svg version="1.1" id="Layer_1" xmlns="http://www.w3.org/2000/svg" xmlns:xlink="http://www.w3.org/1999/xlink" x="0px" y="0px"
	 width="64px" height="64px" viewBox="0 0 64 64" enable-background="new 0 0 64 64" xml:space="preserve">
<path fill="#302C3B" d="M17.646,30.533V13.646c0,0,8.156,3.938,3.76,12.631c-0.146,0.29,1.119,0.602,1.283,0.322
	C31.66,11.217,19.796,12.266,17.646,2h-4.375v23.479c-0.834-0.266-2.311-0.414-3.27-0.414c-10.668,0-10.668,10.936,0,10.936
	C13.912,36,17.646,33.552,17.646,30.533z"/>
<path fill="#1A1626" d="M17.646,2h-1c2.149,10.261,14.002,9.219,5.055,24.579c0.349,0.139,0.885,0.196,0.988,0.021
	C31.66,11.217,19.796,12.266,17.646,2z"/>
<path fill="#1A1626" d="M16.646,13.04v17.493c0,2.901-3.449,5.269-7.189,5.449C9.638,35.989,9.814,36,10.001,36
	c3.911,0,7.645-2.447,7.645-5.467V13.646C17.059,13.24,16.646,13.04,16.646,13.04z"/>
<path fill-rule="evenodd" clip-rule="evenodd" fill="#4E5E67" d="M3.263,30.065c0.203,1.29,2.874-1.236,5.578-3.407
	C10.586,25.261,2.653,26.181,3.263,30.065z"/>
<path fill="#302C3B" d="M53.646,30.533V13.646c0,0,8.156,3.938,3.76,12.631c-0.146,0.29,1.119,0.602,1.283,0.322
	c8.971-15.383-2.893-14.334-5.043-24.6h-4.375v23.479c-0.834-0.266-2.311-0.414-3.27-0.414c-10.668,0-10.668,10.936,0,10.936
	C49.911,36,53.646,33.552,53.646,30.533z"/>
<path fill="#1A1626" d="M53.646,2h-1c2.149,10.261,14.002,9.219,5.055,24.579c0.35,0.139,0.886,0.196,0.988,0.021
	C67.659,11.217,55.796,12.266,53.646,2z"/>
<path fill="#1A1626" d="M52.646,13.04v17.493c0,2.901-3.449,5.269-7.188,5.449C45.638,35.989,45.814,36,46.001,36
	c3.91,0,7.645-2.447,7.645-5.467V13.646C53.059,13.24,52.646,13.04,52.646,13.04z"/>
<path fill-rule="evenodd" clip-rule="evenodd" fill="#4E5E67" d="M39.264,30.065c0.203,1.29,2.873-1.236,5.577-3.407
	C46.586,25.261,38.653,26.181,39.264,30.065z"/>
<path fill="#302C3B" d="M30.646,56.533V39.646c0,0,8.156,3.938,3.76,12.631c-0.146,0.29,1.119,0.602,1.283,0.322
	c8.971-15.383-2.893-14.334-5.043-24.6h-4.375v23.479c-0.834-0.266-2.311-0.414-3.27-0.414c-10.668,0-10.668,10.936,0,10.936
	C26.911,62,30.646,59.552,30.646,56.533z"/>
<path fill="#1A1626" d="M30.646,28h-1c2.149,10.261,14.002,9.219,5.055,24.579c0.35,0.139,0.887,0.196,0.988,0.021
	C44.659,37.217,32.795,38.266,30.646,28z"/>
<path fill="#1A1626" d="M29.646,39.04v17.493c0,2.901-3.449,5.269-7.188,5.449C22.638,61.989,22.814,62,23.001,62
	c3.91,0,7.645-2.447,7.645-5.467V39.646C30.059,39.24,29.646,39.04,29.646,39.04z"/>
<path fill-rule="evenodd" clip-rule="evenodd" fill="#4E5E67" d="M16.264,56.065c0.203,1.29,2.873-1.236,5.577-3.407
	C23.586,51.261,15.653,52.181,16.264,56.065z"/>
</svg>
