<?xml version="1.0" encoding="utf-8"?>
<!-- Generator: Adobe Illustrator 15.0.0, SVG Export Plug-In . SVG Version: 6.00 Build 0)  -->
<!DOCTYPE svg PUBLIC "-//W3C//DTD SVG 1.1//EN" "http://www.w3.org/Graphics/SVG/1.1/DTD/svg11.dtd">
<svg version="1.1" id="Layer_1" xmlns="http://www.w3.org/2000/svg" xmlns:xlink="http://www.w3.org/1999/xlink" x="0px" y="0px"
	 width="64px" height="64px" viewBox="0 0 64 64" enable-background="new 0 0 64 64" xml:space="preserve">
<polygon fill="#F59E01" points="32.211,51.923 28.984,50.419 33.191,41.406 35.701,42.576 "/>
<polygon fill="#F59E01" points="36.98,38.823 33.754,37.318 43.017,12.904 45.526,14.074 "/>
<path fill="#4E5E67" d="M55.229,13.563c0,0-0.229-1.974,1.601-2.801C56.829,10.763,57.902,13.147,55.229,13.563z"/>
<path fill="#F9C802" d="M55.355,13.282c1.232-0.865,1.29-1.821,1.256-2.187c-7.24-3.604-7.4-14.668-13.806-5.621
	c-5.243,7.406-10.208,25.42-18.296,39.293c-1.791,3.071-4.66,1.674-3.053-0.738c4.786-7.189,8.455-13.137,7.822-21.468l-24.871,7.77
	c7.277,9.24-6.564,21.531,5.037,29.033c4.839,3.128,15.872,6.501,22.045-9.264c9.237-23.595,11.162-31.783,15.023-40.6
	C48.489,4.99,49.294,11.773,55.355,13.282z"/>
<path fill="#302C3B" d="M56.829,10.763c0.224,1.54-0.857,2.545-1.601,2.801c0,0,2.998,2.762,6.521,3.038
	c1.286,0.103-2.79-1.76-2.771-3.477C58.992,11.928,56.829,10.763,56.829,10.763z"/>
<path fill="#F9B700" d="M5.352,31.797c5.429,1.839,20.761-0.819,23.863-4.883c0.289-2.406,0.109-3.68,0.109-3.68
	C26.763,25.336,8.807,31.422,5.352,31.797z"/>
<path fill="#F9C802" d="M31.592,20.236c0.99,1.895-4.812,5.79-12.953,8.698c-8.14,2.91-15.542,3.732-16.529,1.836
	c-0.986-1.896,4.813-5.791,12.953-8.699C23.204,19.163,30.604,18.34,31.592,20.236z"/>
<path fill="#D47706" d="M28.898,21.794c0.607,1.182-4.135,3.914-10.592,6.103c-6.45,2.188-12.174,3.006-12.779,1.824
	c-0.604-1.184,4.137-3.914,10.589-6.103C22.57,21.428,28.294,20.612,28.898,21.794z"/>
<path fill="#AB5C10" d="M28.898,21.793c-0.516-1.009-4.76-0.56-10.002,0.953c1.829,0.896,2.913,2.248,3.114,3.758
	C26.47,24.654,29.382,22.733,28.898,21.793z"/>
<path fill="#FFE12C" d="M12.818,58.903c5.113,1.39-4.64-1.798-3.161-9.997c1.844-10.231-1.793-16.229-1.248-12.252
	C9.574,45.182,0.826,55.643,12.818,58.903z"/>
<path fill="#AB5C10" d="M32.732,39.876c0.465,2.662-5.438,2.452-4.982,0.111C28.162,37.883,32.322,37.53,32.732,39.876z"/>
<path fill="#EA8800" d="M32.684,38.849c0.544,3.125-6.387,2.879-5.851,0.13C27.315,36.508,32.2,36.095,32.684,38.849z"/>
<path fill-rule="evenodd" clip-rule="evenodd" fill="#F9C802" d="M27.197,39.382c0.115,0.688,1.403-0.69,2.714-1.878
	C30.754,36.74,26.85,37.318,27.197,39.382z"/>
<path fill="#AB5C10" d="M29.896,46.016c0.465,2.662-5.438,2.451-4.982,0.109C25.325,44.021,29.485,43.669,29.896,46.016z"/>
<path fill="#EA8800" d="M29.846,44.987c0.545,3.126-6.386,2.879-5.85,0.129C24.479,42.647,29.363,42.233,29.846,44.987z"/>
<path fill-rule="evenodd" clip-rule="evenodd" fill="#F9C802" d="M24.36,45.521c0.115,0.687,1.403-0.691,2.714-1.88
	C27.917,42.88,24.013,43.456,24.36,45.521z"/>
<path fill="#F59E01" d="M12.226,49.874c0.483,4.181-8.126,4.274-7.29,0.536C5.69,47.048,11.796,46.19,12.226,49.874z"/>
<path fill="#F9B700" d="M12.227,48.25c0.57,4.908-9.541,5.021-8.558,0.63C4.552,44.935,11.722,43.927,12.227,48.25z"/>
<path fill-rule="evenodd" clip-rule="evenodd" fill="#FFE12C" d="M4.171,49.493c0.12,1.079,2.101-1.195,4.103-3.171
	C9.563,45.053,3.813,46.249,4.171,49.493z"/>
<path fill="#F59E01" d="M14.068,40.624c0.485,4.18-8.126,4.273-7.29,0.536C7.533,37.798,13.64,36.939,14.068,40.624z"/>
<path fill="#F9B700" d="M14.07,39c0.57,4.908-9.541,5.02-8.559,0.629C6.396,35.684,13.566,34.677,14.07,39z"/>
<path fill-rule="evenodd" clip-rule="evenodd" fill="#FFE12C" d="M6.014,40.242c0.121,1.079,2.103-1.194,4.104-3.171
	C11.405,35.802,5.655,36.999,6.014,40.242z"/>
<path fill="#AB5C10" d="M35.107,33.999c0.466,2.662-5.439,2.451-4.981,0.111C30.537,32.006,34.698,31.652,35.107,33.999z"/>
<path fill="#EA8800" d="M35.059,32.97c0.546,3.127-6.387,2.879-5.85,0.132C29.69,30.631,34.577,30.217,35.059,32.97z"/>
<path fill-rule="evenodd" clip-rule="evenodd" fill="#F9C802" d="M29.574,33.506c0.114,0.686,1.402-0.691,2.713-1.88
	C33.131,30.863,29.226,31.441,29.574,33.506z"/>
<path fill="#AB5C10" d="M37.274,28.847c0.465,2.663-5.438,2.451-4.981,0.111C32.703,26.854,36.864,26.502,37.274,28.847z"/>
<path fill="#EA8800" d="M37.225,27.819c0.547,3.127-6.387,2.879-5.85,0.13C31.857,25.479,36.744,25.065,37.225,27.819z"/>
<path fill-rule="evenodd" clip-rule="evenodd" fill="#F9C802" d="M31.739,28.354c0.115,0.686,1.403-0.691,2.714-1.879
	C35.298,25.713,31.391,26.29,31.739,28.354z"/>
<path fill="#AB5C10" d="M43.941,9.988c0.368,2.116-4.322,1.95-3.959,0.089C40.309,8.406,43.615,8.127,43.941,9.988z"/>
<path fill="#EA8800" d="M43.9,9.173c0.435,2.484-5.072,2.288-4.646,0.103C39.637,7.313,43.519,6.984,43.9,9.173z"/>
<path fill-rule="evenodd" clip-rule="evenodd" fill="#F9C802" d="M39.543,9.598c0.093,0.545,1.116-0.549,2.156-1.492
	C42.37,7.498,39.266,7.956,39.543,9.598z"/>
<path fill="#AB5C10" d="M41.563,14.664c0.369,2.116-4.322,1.95-3.959,0.089C37.931,13.081,41.237,12.802,41.563,14.664z"/>
<path fill="#EA8800" d="M41.522,13.849c0.435,2.484-5.072,2.288-4.647,0.102C37.259,11.99,41.141,11.66,41.522,13.849z"/>
<path fill-rule="evenodd" clip-rule="evenodd" fill="#F9C802" d="M37.166,14.273c0.092,0.545,1.115-0.548,2.156-1.493
	C39.993,12.175,36.888,12.632,37.166,14.273z"/>
<path fill="#AB5C10" d="M39.548,19.498c0.368,2.116-4.321,1.949-3.959,0.088C35.914,17.915,39.221,17.636,39.548,19.498z"/>
<path fill="#EA8800" d="M39.508,18.683c0.434,2.484-5.073,2.287-4.647,0.103C35.242,16.823,39.125,16.494,39.508,18.683z"/>
<path fill-rule="evenodd" clip-rule="evenodd" fill="#F9C802" d="M35.149,19.107c0.093,0.544,1.115-0.549,2.156-1.492
	C37.977,17.008,34.872,17.466,35.149,19.107z"/>
<path fill-rule="evenodd" clip-rule="evenodd" fill="#FFE12C" d="M44.044,5.14c-0.945,2.014,1.573-1.688,4.279-1.734
	C49.492,3.385,46.136,0.682,44.044,5.14z"/>
</svg>
