<?xml version="1.0" encoding="utf-8"?>
<!-- Generator: Adobe Illustrator 15.0.0, SVG Export Plug-In . SVG Version: 6.00 Build 0)  -->
<!DOCTYPE svg PUBLIC "-//W3C//DTD SVG 1.1//EN" "http://www.w3.org/Graphics/SVG/1.1/DTD/svg11.dtd">
<svg version="1.1" id="Layer_1" xmlns="http://www.w3.org/2000/svg" xmlns:xlink="http://www.w3.org/1999/xlink" x="0px" y="0px"
	 width="64px" height="64px" viewBox="0 0 64 64" enable-background="new 0 0 64 64" xml:space="preserve">
<path fill="#F9B700" d="M7.028,58.155C14.186,62.382,48.698,14.154,46.493,2C45.806,2,13.934,21.47,7.028,58.155z"/>
<path fill="#006DAE" d="M56.122,25.016c0.197-1.166-8.31-2.639-6.098-21.16L44.768,2.88L32.816,15.147L20.864,2.88l-5.257,0.976
	C17.82,22.377,9.313,23.85,9.51,25.016c2.76,16.28-1.401,34.046-0.822,34.446c0.948,0.654,10.707,1.951,24.128,1.951
	c13.42,0,23.18-1.297,24.128-1.951C57.523,59.063,53.362,41.296,56.122,25.016z"/>
<path fill="#013366" d="M32.816,6.268c-4.884,0-9.04-1.882-11.952-3.388c1.106,8.225,6.111,12.267,11.952,12.267
	c5.841,0,10.845-4.042,11.952-12.267C41.855,4.386,37.7,6.268,32.816,6.268z"/>
<path fill="#014D87" d="M14.342,60.503c0.854,0.243,3.621,0.347,3.621,0.347c6.604-6.62,26.804-28.341,31.702-50.496
	C47.603,10.769,21.549,47.54,14.342,60.503z"/>
<path fill="#FFE12C" d="M7.028,58.155c-0.453,0.424,4.697,5.018,6.129,3.56C36.207,38.22,46.368,25.1,51.28,4.438
	C51.327,4.238,47.842,2,46.493,2C45.806,2,43.114,24.337,7.028,58.155z"/>
</svg>
