<?xml version="1.0" encoding="utf-8"?>
<!-- Generator: Adobe Illustrator 15.0.0, SVG Export Plug-In . SVG Version: 6.00 Build 0)  -->
<!DOCTYPE svg PUBLIC "-//W3C//DTD SVG 1.1//EN" "http://www.w3.org/Graphics/SVG/1.1/DTD/svg11.dtd">
<svg version="1.1" id="Layer_1" xmlns="http://www.w3.org/2000/svg" xmlns:xlink="http://www.w3.org/1999/xlink" x="0px" y="0px"
	 width="64px" height="64px" viewBox="0 0 64 64" enable-background="new 0 0 64 64" xml:space="preserve">
<path fill="#99A8AE" d="M61.961,26.063c0-0.598,0-1.197,0-1.794c-17.322-7.29-34.644,4.394-51.965,3.351c0-1.918,0-4.725,0-6.932
	C27.31,19.87,43.156,5.687,61.961,11.227c-0.137-0.584,0.137-1.171,0-1.755C43.084,3.258,27.2,18.67,9.996,19.604
	c-5.72,0.537-5.273,0.48-7.996,0.787c0,10.26,0,20.518,0,30.778l7.996,0.839c0-0.003,0-0.006,0-0.008
	c16.174,5.535,37.153-2.033,51.965,10c0.123-0.588-0.123-1.178,0-1.764C47.229,47.44,26.214,56.551,9.996,50.846
	c0-1.392,0-4.021,0-5.365c17.321,3.07,34.643-7.452,51.965,1.849c0-0.599,0-1.198,0-1.796c-17.322-10.031-34.644,1.982-51.965-1.15
	c0-1.827,0-4.71,0-6.846c17.321,2.896,34.643-12.281,51.965-0.841c0-0.601,0-1.198,0-1.798
	c-17.322-11.283-34.644,4.056-51.965,1.318c0-2.199,0-4.548,0-7.052C27.317,30.584,44.639,17.731,61.961,26.063z"/>
<path fill-rule="evenodd" clip-rule="evenodd" fill="#302C3B" d="M35.275,3.199c8.918-6.038,12.705,12.16-1.59,22.782
	c0.34,1.606,0.639,3.254,0.934,4.901c8.027-0.79,11.93,8.856,7.574,14.159c-1.07,1.305-2.617,2.166-4.486,2.814
	c0.73,4.156,2.479,9.19-0.375,12.071c-3.697,3.731-13.586,2.386-13.09-3.721c0.199-2.443,2.248-4.285,4.676-4.176
	c4.149,0.188,5.479,6.651,0.748,7.443c1.922,1.232,5.456,0.128,6.358-1.452c1.268-2.227,0.543-4.574-0.561-9.531
	c-5.413,0.589-9.124-1.27-11.875-4.084c-2.145-2.194-3.852-5.445-3.553-9.259c0.271-3.47,2.229-6.109,4.113-8.258
	c2.02-2.303,4.27-4.065,6.451-5.991C28.251,13.499,30.119,6.689,35.275,3.199z M37.324,8.706c-2.713-3.013-5.893,4.476-4.854,10.831
	C38.35,14.679,38.576,10.097,37.324,8.706z M31.628,27.433c-3.174,2.534-8.693,6.417-8.041,12.072
	c0.51,4.428,5.109,7.899,11.5,6.898c0,0-1.193-6.89-1.777-10.348c-2.643,0.715-4.127,3.766-2.43,5.99
	c0.674,0.883,2.334,1.063,2.245,1.997c-0.1,1.032-1.606,0.475-2.245,0.182c-0.852-0.391-1.646-0.959-2.057-1.361
	c-3.867-3.794-0.846-10.303,3.553-11.527C32.166,29.998,31.628,27.433,31.628,27.433z M37.238,45.768
	c5.178-1.753,3.361-9.723-1.684-9.894L37.238,45.768z"/>
<path fill-rule="evenodd" clip-rule="evenodd" fill="#1A1626" d="M22.921,39.508c0.457,3.977,4.219,7.17,9.607,7.059
	c-5.031-0.154-8.503-3.248-8.941-7.059c-0.613-5.328,4.822-9.539,8.041-12.075c-0.058-0.278-0.109-0.446-0.109-0.446
	C28.347,29.521,22.269,33.854,22.921,39.508z"/>
<path fill-rule="evenodd" clip-rule="evenodd" fill="#1A1626" d="M36.645,45.955c0.226-0.076,0.594-0.188,0.594-0.188l-1.684-9.894
	c0,0-0.387-0.048-0.623-0.056L36.645,45.955z"/>
<path fill-rule="evenodd" clip-rule="evenodd" fill="#1A1626" d="M33.02,25.985c0.34,1.605,0.643,3.323,0.938,4.971
	c0.225-0.021,0.662-0.073,0.662-0.073c-0.293-1.634-0.596-3.304-0.934-4.897c12.559-9.332,11.16-24.506,4.588-23.961
	C44.259,2.529,45.141,16.977,33.02,25.985z"/>
<path fill-rule="evenodd" clip-rule="evenodd" fill="#1A1626" d="M32,19.924c0,0,0.273-0.215,0.47-0.388
	c-0.631-4.966,1.127-11.128,3.641-11.515C33.02,7.862,31.083,14.312,32,19.924z"/>
<path fill-rule="evenodd" clip-rule="evenodd" fill="#1A1626" d="M29.666,59.477c4.731-0.791,3.402-7.256-0.748-7.443
	c-0.165-0.007-0.322,0.016-0.484,0.026c4,0.372,5.224,6.638,0.566,7.417c0.651,0.418,1.488,0.563,2.346,0.516
	C30.728,59.947,30.146,59.785,29.666,59.477z"/>
<path fill-rule="evenodd" clip-rule="evenodd" fill="#1A1626" d="M35.19,30.852c7.178,0.259,10.462,9.17,6.337,14.193
	c-1.07,1.305-2.617,2.166-4.486,2.814c0.73,4.156,2.479,9.189-0.375,12.07c-1.304,1.316-3.379,1.998-5.497,2.064
	c2.341,0.07,4.723-0.609,6.164-2.064c2.854-2.881,1.105-7.914,0.374-12.07c1.869-0.648,3.416-1.51,4.487-2.814
	C46.443,39.869,42.828,30.563,35.19,30.852z"/>
<path fill-rule="evenodd" clip-rule="evenodd" fill="#1A1626" d="M33.311,36.056c-2.729-0.001-4.793,3.769-3.096,5.993
	c0.674,0.883,2.334,1.064,2.244,1.998c-0.032,0.33-0.216,0.485-0.461,0.551c0.552,0.104,1.071,0.039,1.127-0.551
	c0.09-0.934-1.571-1.115-2.245-1.998C29.324,40.009,30.597,36.955,33.311,36.056z"/>
<path fill-rule="evenodd" clip-rule="evenodd" fill="#4E5E67" d="M25.041,56.033c0.115,1.031,1.643-0.986,3.19-2.72
	C29.23,52.197,24.691,52.933,25.041,56.033z"/>
<path fill-rule="evenodd" clip-rule="evenodd" fill="#4E5E67" d="M27.884,36.634c-0.188,0.962,1.079-3.127,6.038-5.23
	C35.23,30.848,28.855,31.639,27.884,36.634z"/>
<path fill-rule="evenodd" clip-rule="evenodd" fill="#4E5E67" d="M20.812,38.609c0.386,1.061-0.862-3.765,2.061-9.097
	C23.643,28.106,18.812,33.096,20.812,38.609z"/>
<path fill-rule="evenodd" clip-rule="evenodd" fill="#4E5E67" d="M38.064,13.309c0.188-1.008-1.625,3.99-6.737,7.721
	C29.268,22.533,37.059,18.717,38.064,13.309z"/>
<path fill-rule="evenodd" clip-rule="evenodd" fill="#4E5E67" d="M32.018,8.072c-0.187,0.962,1.08-3.127,6.039-5.23
	C39.364,2.286,32.989,3.077,32.018,8.072z"/>
</svg>
