<?xml version="1.0" encoding="utf-8"?>
<!-- Generator: Adobe Illustrator 15.0.0, SVG Export Plug-In . SVG Version: 6.00 Build 0)  -->
<!DOCTYPE svg PUBLIC "-//W3C//DTD SVG 1.1//EN" "http://www.w3.org/Graphics/SVG/1.1/DTD/svg11.dtd">
<svg version="1.1" id="Layer_1" xmlns="http://www.w3.org/2000/svg" xmlns:xlink="http://www.w3.org/1999/xlink" x="0px" y="0px"
	 width="64px" height="64px" viewBox="0 0 64 64" enable-background="new 0 0 64 64" xml:space="preserve">
<path fill="#BEC3CF" d="M60.585,41.896c1.168-2.5,1.695-4.721,1.184-4.959C61.45,36.791,27.236,2.604,27.064,2.232
	c-0.24-0.514-2.459,0.016-4.959,1.182s-4.332,2.525-4.094,3.039c0.115,0.248-9.191,41.664-9.357,41.832
	c-0.4,0.4,0.855,2.305,2.805,4.256c1.951,1.951,3.855,3.207,4.258,2.807c0.203-0.205,41.517-9.504,41.83-9.359
	C58.058,46.229,59.421,44.395,60.585,41.896z"/>
<path fill="#CFD8DD" d="M44.104,59.789c-1.861,1.861-5.547,2.715-8.225,1.904L16.162,55.74c-2.682-0.809-3.346-2.977-1.482-4.84
	L28.38,37.199c1.863-1.863,5.546-2.717,8.226-1.906l19.719,5.953c2.682,0.809,3.344,2.977,1.482,4.838L44.104,59.789z"/>
<path fill="#E6EBEF" d="M4.213,19.895c-1.863,1.863-2.717,5.545-1.906,8.227L8.261,47.84c0.809,2.682,2.975,3.344,4.838,1.48
	L26.8,35.619c1.863-1.863,2.717-5.547,1.906-8.227L22.753,7.672c-0.809-2.68-2.977-3.344-4.838-1.48L4.213,19.895z"/>
<path fill="#E6EBEF" d="M54.956,15.738c-0.92-2.777-3.92-5.775-6.693-6.695L27.835,2.27c-2.777-0.92-4.281,0.586-3.361,3.363
	l6.773,20.426c0.918,2.777,3.916,5.775,6.693,6.695l20.428,6.771c2.775,0.92,4.281-0.586,3.361-3.361L54.956,15.738z"/>
<g>
	<g>
		<path fill="#E81C27" d="M40.161,16.744c-1.061,0-1.838,0.408-2.072,1.219c-0.479,1.621,1.385,4.248,4.152,5.871
			c1.386,0.814,2.732,1.218,3.797,1.218c1.061,0,1.838-0.403,2.078-1.218c0.476-1.623-1.386-4.25-4.156-5.871
			C42.577,17.152,41.228,16.744,40.161,16.744z"/>
	</g>
</g>
<g enable-background="new    ">
	<g>
		<g>
			<path fill="#302C3B" d="M27.72,49.792c0.817,0.29,1.303,0.813,1.262,1.498c-0.078,1.376-2.223,2.884-4.791,3.372
				c-1.281,0.244-2.425,0.189-3.24-0.104c-0.816-0.287-1.301-0.813-1.261-1.497c0.079-1.372,2.224-2.882,4.788-3.374
				C25.765,49.445,26.909,49.502,27.72,49.792z"/>
		</g>
	</g>
</g>
<g enable-background="new    ">
	<g>
		<g>
			<path fill="#302C3B" d="M40.138,47.001c0.815,0.29,1.299,0.812,1.263,1.498c-0.081,1.374-2.219,2.882-4.788,3.372
				c-1.282,0.241-2.428,0.186-3.241-0.104c-0.813-0.289-1.297-0.813-1.26-1.5c0.078-1.374,2.22-2.881,4.787-3.371
				C38.179,46.651,39.325,46.711,40.138,47.001z"/>
		</g>
	</g>
</g>
<g enable-background="new    ">
	<g>
		<g>
			<path fill="#302C3B" d="M52.042,44.568c0.816,0.29,1.301,0.811,1.264,1.5c-0.078,1.375-2.219,2.883-4.787,3.369
				c-1.283,0.246-2.43,0.188-3.242-0.102c-0.816-0.29-1.299-0.812-1.261-1.498c0.076-1.375,2.221-2.882,4.784-3.372
				C50.084,44.221,51.232,44.281,52.042,44.568z"/>
		</g>
	</g>
</g>
<path fill="#302C3B" d="M20.973,25.022c0.734-0.575,1.493-0.714,2.097-0.282c1.207,0.865,1.344,3.691,0.309,6.313
	c-0.519,1.312-1.232,2.322-1.969,2.9c-0.734,0.575-1.492,0.714-2.098,0.279c-1.203-0.864-1.342-3.686-0.308-6.309
	C19.525,26.611,20.239,25.6,20.973,25.022z"/>
<g>
	<path fill="#302C3B" d="M9.607,21.563c0.733-0.577,1.49-0.717,2.094-0.285c1.207,0.865,1.346,3.691,0.309,6.312
		c-0.52,1.312-1.232,2.323-1.967,2.9c-0.736,0.575-1.494,0.716-2.094,0.282c-1.212-0.865-1.348-3.688-0.311-6.312
		C8.156,23.148,8.871,22.141,9.607,21.563z"/>
</g>
</svg>
