<?xml version="1.0" encoding="utf-8"?>
<!-- Generator: Adobe Illustrator 15.0.0, SVG Export Plug-In . SVG Version: 6.00 Build 0)  -->
<!DOCTYPE svg PUBLIC "-//W3C//DTD SVG 1.1//EN" "http://www.w3.org/Graphics/SVG/1.1/DTD/svg11.dtd">
<svg version="1.1" id="Layer_1" xmlns="http://www.w3.org/2000/svg" xmlns:xlink="http://www.w3.org/1999/xlink" x="0px" y="0px"
	 width="64px" height="64px" viewBox="0 0 64 64" enable-background="new 0 0 64 64" xml:space="preserve">
<rect x="2" y="7" fill="#302C3B" width="60" height="50"/>
<path fill="#BEC3CF" d="M5.66,54c5.325,0,10.648,0,15.973,0c-1.659-14.299-1.659-29.701,0-44c-5.325,0-10.648,0-15.973,0
	C1.446,24.299,1.446,39.701,5.66,54z"/>
<path fill="#FFFFFF" d="M3.826,46.355c5.695,0,11.39,0,17.085,0c-0.697-9.47-0.697-19.241-0.001-28.711c-5.694,0-11.389,0-17.084,0
	C2.058,27.115,2.058,36.886,3.826,46.355z"/>
<path fill="#014D87" d="M20.32,15c-5.026,0-10.052,0-15.078,0c0.352-1.603,0.754-3.421,1.207-5c4.798,0,9.598,0,14.398,0
	C20.649,11.579,20.474,13.397,20.32,15z"/>
<path fill="#B00505" d="M20.499,54c-0.7-5.985-15.413-5.791-13.704,0C11.362,54,15.93,54,20.499,54z"/>
<path fill="#BEC3CF" d="M24.014,54c5.325,0,10.647,0,15.972,0c1.278-14.299,1.278-29.701,0-44c-5.325,0-10.647,0-15.972,0
	C22.735,24.299,22.735,39.701,24.014,54z"/>
<path fill="#FFFFFF" d="M23.457,46.354c5.695,0,11.391,0,17.086,0c0.536-9.47,0.536-19.239,0-28.709c-5.695,0-11.391,0-17.086,0
	C22.921,27.115,22.921,36.884,23.457,46.354z"/>
<path fill="#014D87" d="M39.538,15c-5.025,0-10.051,0-15.076,0c0.099-1.603,0.211-3.421,0.339-5c4.8,0,9.598,0,14.398,0
	C39.327,11.579,39.439,13.397,39.538,15z"/>
<path fill="#B00505" d="M38.853,54c0.536-5.999-14.24-5.999-13.705,0C29.716,54,34.284,54,38.853,54z"/>
<path fill="#BEC3CF" d="M42.367,54c5.324,0,10.648,0,15.973,0c4.213-14.299,4.213-29.701,0-44c-5.324,0-10.648,0-15.973,0
	C44.025,24.299,44.025,39.701,42.367,54z"/>
<path fill="#FFFFFF" d="M43.09,46.354c5.693,0,11.39,0,17.085,0c1.767-9.47,1.767-19.239-0.001-28.709c-5.695,0-11.391,0-17.084,0
	C43.786,27.115,43.786,36.884,43.09,46.354z"/>
<path fill="#014D87" d="M58.759,15c-5.027,0-10.053,0-15.079,0c-0.153-1.603-0.328-3.421-0.525-5c4.799,0,9.599,0,14.397,0
	C58.004,11.579,58.405,13.397,58.759,15z"/>
<path fill="#B00505" d="M57.206,54c1.705-5.791-13.005-5.985-13.704,0C48.069,54,52.638,54,57.206,54z"/>
<path fill="#302C3B" d="M14.369,39.543H6.841c0,0,0.593-5.326,4.852-8.846c0,0-4.632-1.395-5.985,2.207H3.963v-6.896h1.744v0.756
	c0,0,4.635-2.977,9.697,0.361l0.828-0.461l2.73,0.035C18.963,26.699,14.369,31.352,14.369,39.543z"/>
<path fill="#E81C27" d="M13.746,38.939H7.602c0,0,0.922-5.154,5.406-8.598c0,0-5.852-2.158-7.751,2.066H4.482v-5.799h0.705v1.041
	c0,0,5.553-3.451,10.217,0.256l0.967-0.641h1.414C17.785,27.266,13.746,32.15,13.746,38.939z"/>
<path fill="#302C3B" d="M34.906,39.543h-7.529c0,0,0.594-5.326,4.852-8.846c0,0-4.631-1.395-5.984,2.207H24.5v-6.896h1.744v0.756
	c0,0,4.635-2.977,9.697,0.361l0.828-0.461l2.73,0.035C39.5,26.699,34.906,31.352,34.906,39.543z"/>
<path fill="#FFFFFF" d="M34.283,38.939h-6.145c0,0,0.922-5.154,5.406-8.598c0,0-5.852-2.158-7.752,2.066H25.02v-5.799h0.705v1.041
	c0,0,5.553-3.451,10.217,0.256l0.967-0.641h1.414C38.322,27.266,34.283,32.15,34.283,38.939z"/>
<path fill="#302C3B" d="M55.443,39.543h-7.529c0,0,0.594-5.326,4.852-8.846c0,0-4.631-1.395-5.984,2.207h-1.744v-6.896h1.744v0.756
	c0,0,4.635-2.977,9.697,0.361l0.828-0.461l2.73,0.035C60.037,26.699,55.443,31.352,55.443,39.543z"/>
<path fill="#0FB4D4" d="M54.82,38.939h-6.145c0,0,0.922-5.154,5.406-8.598c0,0-5.852-2.158-7.752,2.066h-0.773v-5.799h0.705v1.041
	c0,0,5.553-3.451,10.217,0.256l0.967-0.641h1.414C58.859,27.266,54.82,32.15,54.82,38.939z"/>
</svg>
