<?xml version="1.0" encoding="utf-8"?>
<!-- Generator: Adobe Illustrator 15.0.0, SVG Export Plug-In . SVG Version: 6.00 Build 0)  -->
<!DOCTYPE svg PUBLIC "-//W3C//DTD SVG 1.1//EN" "http://www.w3.org/Graphics/SVG/1.1/DTD/svg11.dtd">
<svg version="1.1" id="Layer_1" xmlns="http://www.w3.org/2000/svg" xmlns:xlink="http://www.w3.org/1999/xlink" x="0px" y="0px"
	 width="64px" height="64px" viewBox="0 0 64 64" enable-background="new 0 0 64 64" xml:space="preserve">
<path fill="#F9B700" d="M20.021,55.239c-3.656-3.65-4.802-9.896,0.079-14.773l11.317-11.302c4.883-4.877,11.137-3.731,14.792-0.081
	c3.655,3.651,4.802,9.897-0.081,14.774L34.813,55.159C29.932,60.035,23.677,58.891,20.021,55.239z M42.814,32.474
	c-1.971-1.968-5.21-2.708-8.002,0.08L23.497,43.856c-2.793,2.789-2.054,6.023-0.081,7.993c1.971,1.968,5.21,2.707,8.003-0.082
	l11.315-11.302C45.527,37.678,44.787,34.443,42.814,32.474z"/>
<path fill="#F59E01" d="M23.497,43.856l11.315-11.303c2.524-2.52,5.41-2.153,7.397-0.604c-0.164-0.213-0.337-0.415-0.526-0.605
	c-1.973-1.97-5.211-2.709-8.002,0.08L22.365,42.726c-2.793,2.789-2.053,6.023-0.082,7.992c0.19,0.19,0.395,0.362,0.604,0.527
	C21.34,49.26,20.973,46.377,23.497,43.856z"/>
<path fill="#F59E01" d="M46.21,29.083c-0.188-0.188-0.39-0.365-0.591-0.541c3.213,3.707,4.009,9.561-0.621,14.185L33.683,54.028
	c-4.631,4.624-10.493,3.829-14.204,0.622c0.177,0.2,0.356,0.401,0.543,0.589c3.655,3.651,9.91,4.796,14.792-0.08l11.315-11.302
	C51.012,38.98,49.865,32.734,46.21,29.083z"/>
<path fill="#F9C802" d="M21.585,41.576l10.944-10.931c4.479-4.473,10.063-3.79,13.562-0.776c-0.166-0.189-0.33-0.378-0.51-0.556
	c-3.44-3.436-9.395-4.45-14.116,0.268L20.52,40.514c-4.723,4.716-3.709,10.661-0.269,14.099c0.178,0.177,0.367,0.344,0.556,0.508
	C17.79,51.626,17.105,46.049,21.585,41.576z"/>
<path fill="#F9C802" d="M44.389,41.57c2.926-2.924,2.247-6.217,0.275-8.187c-0.191-0.189-0.395-0.363-0.607-0.524
	c1.539,1.995,1.845,4.939-0.8,7.582L31.393,52.289c-2.646,2.644-5.593,2.338-7.591,0.8c0.162,0.213,0.336,0.416,0.524,0.607
	c1.971,1.968,5.27,2.646,8.198-0.277L44.389,41.57z"/>
<polygon fill="#BEC3CF" points="7.825,58.383 12.274,53.922 10.071,51.721 5.622,56.185 2,56.901 7.105,62 "/>
<polygon fill="#CFD8DD" points="10.268,51.917 5.818,56.38 2.186,57.087 3.593,58.494 6.631,57.192 11.08,52.729 "/>
<polygon fill="#F59E01" points="19.99,39.675 17.64,42.022 14.929,39.315 17.279,36.969 "/>
<rect x="16.622" y="37.826" transform="matrix(0.7071 -0.7071 0.7071 0.7071 -23.0595 23.812)" fill="#F9B700" width="1.184" height="3.83"/>
<polygon fill="#F9C802" points="36.575,54.961 32.945,58.587 16.449,42.111 20.079,38.485 "/>
<rect x="25.027" y="37.642" transform="matrix(0.7074 -0.7068 0.7068 0.7074 -27.3107 32.6199)" fill="#FFE12C" width="1.44" height="23.315"/>
<polygon fill="#F9C802" points="18.616,35.846 13.805,40.651 12.343,39.192 17.155,34.386 "/>
<rect x="13.512" y="37.497" transform="matrix(0.7074 -0.7069 0.7069 0.7074 -23.0018 21.5009)" fill="#FFE12C" width="1.909" height="2.066"/>
<polygon fill="#F59E01" points="26.327,33.346 23.977,35.692 21.267,32.985 23.616,30.639 "/>
<polygon fill="#F9B700" points="25.326,34.347 24.486,35.184 21.775,32.478 22.615,31.64 "/>
<polygon fill="#F9C802" points="42.913,48.633 39.283,52.257 22.786,35.783 26.416,32.155 "/>
<rect x="31.366" y="31.312" transform="matrix(0.7074 -0.7068 0.7068 0.7074 -20.9832 35.2481)" fill="#FFE12C" width="1.44" height="23.316"/>
<rect x="18.417" y="30.155" transform="matrix(0.7075 -0.7067 0.7067 0.7075 -15.6601 24.5431)" fill="#F9C802" width="6.801" height="2.067"/>
<rect x="19.851" y="31.167" transform="matrix(0.7071 -0.7071 0.7071 0.7071 -16.6756 24.142)" fill="#FFE12C" width="1.907" height="2.067"/>
<polygon fill="#F59E01" points="32.664,27.018 30.315,29.363 27.604,26.656 29.954,24.311 "/>
<rect x="29.296" y="25.165" transform="matrix(0.7067 -0.7075 0.7075 0.7067 -10.3938 29.0898)" fill="#F9B700" width="1.186" height="3.832"/>
<polygon fill="#F9C802" points="49.25,42.302 45.619,45.928 29.123,29.452 32.753,25.826 "/>
<polygon fill="#FFE12C" points="47.181,44.37 46.161,45.387 29.664,28.911 30.684,27.895 "/>
<rect x="24.756" y="23.828" transform="matrix(0.7077 -0.7065 0.7065 0.7077 -9.3337 27.1603)" fill="#F9C802" width="6.8" height="2.064"/>
<rect x="26.187" y="24.838" transform="matrix(0.7074 -0.7069 0.7069 0.7074 -10.3441 26.7566)" fill="#FFE12C" width="1.911" height="2.065"/>
<polygon fill="#F9C802" points="45.001,4.921 41.789,18.58 8.556,51.808 12.187,55.434 45.419,22.206 59.076,18.979 "/>
<polygon fill="#FFE12C" points="49.395,9.31 45.51,5.43 42.329,19.121 9.099,52.349 10.116,53.367 43.347,20.139 "/>
<path fill="#F9B700" d="M56.067,19.184c-8.18-5.96-11.066-14.263-11.066-14.263l14.075,14.058L56.067,19.184z"/>
<path fill="#F9C802" d="M61.8,19.504C58.7,22.6,41.376,5.297,44.474,2.2C46.724-0.044,64.047,17.258,61.8,19.504z"/>
<path fill="#D47706" d="M60.569,18.115C58.666,20.017,43.961,5.332,45.865,3.431C47.246,2.052,61.949,16.735,60.569,18.115z"/>
<path fill="#AB5C10" d="M60.569,18.115c0.595-0.595-1.809-3.673-4.845-6.865c0.154,1.368-0.047,2.714-0.688,3.946
	C57.615,17.379,59.895,18.789,60.569,18.115z"/>
</svg>
