<?xml version="1.0" encoding="utf-8"?>
<!-- Generator: Adobe Illustrator 15.0.0, SVG Export Plug-In . SVG Version: 6.00 Build 0)  -->
<!DOCTYPE svg PUBLIC "-//W3C//DTD SVG 1.1//EN" "http://www.w3.org/Graphics/SVG/1.1/DTD/svg11.dtd">
<svg version="1.1" id="Layer_1" xmlns="http://www.w3.org/2000/svg" xmlns:xlink="http://www.w3.org/1999/xlink" x="0px" y="0px"
	 width="64px" height="64px" viewBox="0 0 64 64" enable-background="new 0 0 64 64" xml:space="preserve">
<path fill="#E6EBEF" d="M52.797,34.842l1.045-1.043l-2.277-2.274l3.989-3.99l1.538,1.537l1.041-1.045l-1.535-1.535l3.754-3.753
	l-1.045-1.045l-3.753,3.755l-3.167-3.169l3.982-3.982l3.122,3.125l1.046-1.044l-3.127-3.125l2.49-2.487l-1.046-1.044l-2.485,2.489
	l-3.173-3.175l3.519-3.521l-1.042-1.042l-3.522,3.521l-3.176-3.176l2.487-2.487l-1.044-1.044l-2.486,2.487l-3.125-3.125
	l-1.043,1.043l3.123,3.125l-3.98,3.982l-3.168-3.167l3.754-3.754l-1.046-1.043l-3.751,3.753L37.16,7.053l-1.043,1.043l1.534,1.535
	l-3.99,3.99l-2.272-2.274l0,0l-1.046,1.042l2.276,2.276l-3.99,3.988l-1.535-1.535l-1.042,1.044l1.533,1.535l-3.751,3.754l1.04,1.044
	l3.756-3.754l3.169,3.168l-3.982,3.98l-3.125-3.125l-1.042,1.045l3.122,3.125l-2.488,2.485l1.044,1.046l2.49-2.488l3.178,3.176
	l-3.524,3.518v0.002l1.045,1.045l3.52-3.521l3.174,3.174l-2.489,2.486l1.046,1.045l2.486-2.486l3.125,3.125l1.045-1.043
	l-3.127-3.127l3.982-3.982l3.169,3.168l-3.752,3.752l1.046,1.043l3.747-3.75l1.537,1.535l1.048-1.043l-1.537-1.537l3.988-3.989
	L52.797,34.842z M54.51,26.49l-3.988,3.989l-3.168-3.168l3.988-3.988L54.51,26.49z M41.275,31.302l-3.17-3.175l3.986-3.988
	l3.174,3.174L41.275,31.302z M37.873,19.919l3.176,3.176l-3.989,3.989l-3.177-3.175L37.873,19.919z M42.906,14.888l3.175,3.175
	l-3.989,3.989l-3.174-3.175L42.906,14.888z M43.135,23.096l3.989-3.99l3.173,3.173l-3.984,3.991L43.135,23.096z M55.325,17.252
	l-3.979,3.983l-3.178-3.172l3.983-3.983L55.325,17.252z M47.932,9.86l3.175,3.176l-3.982,3.982l-3.173-3.176L47.932,9.86z
	 M38.695,10.676l3.164,3.167l-3.986,3.989l-3.166-3.167L38.695,10.676z M29.674,19.697l3.987-3.989l3.169,3.169l-3.99,3.987
	L29.674,19.697z M28.857,28.935l3.982-3.982l3.176,3.175l-3.982,3.982L28.857,28.935z M36.25,36.328l-3.172-3.174l3.981-3.982
	l3.174,3.173L36.25,36.328z M45.485,35.512l-3.168-3.167l3.995-3.99l3.163,3.169L45.485,35.512z"/>
<path fill="#E81C27" d="M57.666,7.519c-6.848-6.847-19.373-5.426-27.972,3.176c-5.041,5.04-7.594,11.42-7.487,17.221
	c-0.406,6.216-1.52,12.214-4.461,15.69c-0.397,0.471-1.043,0.99-1.043,0.99l1.943,1.943l1.945,1.945c0,0,0.521-0.646,0.989-1.045
	c3.476-2.939,9.465-4.053,15.676-4.461c5.805,0.113,12.191-2.441,17.234-7.484C63.094,26.892,64.514,14.368,57.666,7.519z
	 M22.496,42.691c-1.093-1.094,0.331-5.334,1.316-7.854c0.685,1.398,1.569,2.697,2.701,3.83c1.134,1.135,2.435,2.02,3.836,2.705
	C27.829,42.359,23.588,43.783,22.496,42.691z M52.547,33.551c-7.256,7.254-17.813,8.451-23.589,2.676
	c-5.774-5.773-4.575-16.335,2.677-23.588c7.254-7.252,17.813-8.451,23.588-2.678C60.998,15.736,59.799,26.297,52.547,33.551z"/>
<path fill="#F46C60" d="M52.745,33.748c-7.404,7.404-18.099,8.736-24.192,3.135c0.118,0.129,0.222,0.268,0.346,0.393
	c6.019,6.018,17.023,4.77,24.583-2.791c7.559-7.558,8.808-18.564,2.789-24.583c-0.124-0.124-0.263-0.227-0.392-0.345
	C61.479,15.65,60.146,26.346,52.745,33.748z"/>
<path fill="#F46C60" d="M31.85,42.195c-0.521-0.271-0.902-0.473-0.902-0.473c-2.069,1.068-6.062,2.32-8.464,2.045
	C23.785,45.07,28.844,43.373,31.85,42.195z"/>
<path fill="#F46C60" d="M19.093,43.947c2.875-3.398,3.963-9.26,4.359-15.334c-0.104-5.669,2.392-11.905,7.318-16.831
	c8.258-8.261,20.218-9.739,26.981-3.438c-0.111-0.119-0.219-0.241-0.334-0.356C50.725,1.296,38.483,2.684,30.08,11.09
	c-4.927,4.926-7.422,11.162-7.318,16.832c-0.397,6.074-1.485,11.936-4.36,15.334c-0.388,0.461-1.02,0.969-1.02,0.969l0.691,0.691
	C18.073,44.916,18.704,44.408,19.093,43.947z"/>
<g>
	
		<rect x="3.083" y="48.856" transform="matrix(0.7071 -0.7071 0.7071 0.7071 -33.2403 24.3347)" fill="#302C3B" width="19.347" height="6.876"/>
</g>
<g>
	
		<rect x="1.889" y="50.351" transform="matrix(0.7071 -0.7071 0.7071 0.7071 -32.7454 23.1407)" fill="#4E5E67" width="19.347" height="1.5"/>
</g>
<g>
	<g>
		<polygon fill="#4E5E67" points="3.484,56.703 8.347,61.564 9.053,60.857 5.679,54.51 		"/>
	</g>
	<g>
		<polygon fill="#4E5E67" points="7.831,52.354 11.208,58.701 13.365,56.545 9.989,50.197 		"/>
	</g>
	<g>
		<polygon fill="#4E5E67" points="17.166,43.023 16.457,43.73 19.832,50.078 22.027,47.885 		"/>
	</g>
	<g>
		<polygon fill="#4E5E67" points="12.147,48.043 15.522,54.391 17.675,52.232 14.301,45.887 		"/>
	</g>
</g>
<rect x="2.645" y="57.244" transform="matrix(0.707 0.7073 -0.7073 0.707 43.2322 12.3627)" fill="#302C3B" width="8.105" height="2.216"/>
<rect x="14.759" y="45.129" transform="matrix(0.7069 0.7073 -0.7073 0.7069 38.2206 0.2483)" fill="#302C3B" width="8.104" height="2.219"/>
<rect x="4.225" y="55.519" transform="matrix(0.7069 0.7073 -0.7073 0.7069 41.5078 13.0759)" fill="#4E5E67" width="1.499" height="2.215"/>
<rect x="16.338" y="43.404" transform="matrix(0.7058 0.7084 -0.7084 0.7058 36.5604 0.9901)" fill="#4E5E67" width="1.5" height="2.218"/>
<g>
	<circle fill="#9ED411" cx="13" cy="13" r="11"/>
</g>
<g>
	<circle fill="#BAED32" cx="13.295" cy="12.211" r="9.887"/>
</g>
<g>
	<ellipse fill="#C8FF36" cx="13.295" cy="10.455" rx="8.766" ry="7.857"/>
</g>
<path fill="#FFFFFF" d="M10.615,15.385c-2.353-2.353-5.485-3.46-8.574-3.319c-0.036,0.409-0.049,0.821-0.036,1.232
	c2.784-0.151,5.619,0.833,7.741,2.957c2.123,2.123,3.109,4.958,2.958,7.742c0.411,0.01,0.822-0.001,1.232-0.036
	C14.075,20.872,12.968,17.737,10.615,15.385z"/>
<path fill="#FFFFFF" d="M23.996,12.704c-2.784,0.151-5.619-0.836-7.74-2.958c-2.125-2.122-3.11-4.957-2.958-7.742
	c-0.41-0.011-0.823,0.001-1.233,0.036c-0.138,3.088,0.967,6.223,3.32,8.575c2.354,2.354,5.488,3.458,8.576,3.32
	C23.995,13.524,24.009,13.112,23.996,12.704z"/>
</svg>
