<?xml version="1.0" encoding="utf-8"?>
<!-- Generator: Adobe Illustrator 15.0.0, SVG Export Plug-In . SVG Version: 6.00 Build 0)  -->
<!DOCTYPE svg PUBLIC "-//W3C//DTD SVG 1.1//EN" "http://www.w3.org/Graphics/SVG/1.1/DTD/svg11.dtd">
<svg version="1.1" id="Layer_1" xmlns="http://www.w3.org/2000/svg" xmlns:xlink="http://www.w3.org/1999/xlink" x="0px" y="0px"
	 width="64px" height="64px" viewBox="0 0 64 64" enable-background="new 0 0 64 64" xml:space="preserve">
<polygon fill="#302C3B" points="49.141,46 48.98,44.077 48.026,44.425 "/>
<path fill="#4E5E67" d="M45.07,44.707c0.462,1.271,6.818-1.042,6.357-2.313C50.964,41.122,44.608,43.435,45.07,44.707z"/>
<path fill="#0FB4D4" d="M47.709,43.552c0.17,0.469,1.124,0.121,0.954-0.348c-2.807-7.709-11.744-32.263-11.744-32.263l-0.953,0.346
	C35.966,11.288,44.893,35.816,47.709,43.552z"/>
<path fill="#4E5E67" d="M35.544,12.22c0.568,1.944,3.113,1.016,2.297-0.836c-1.206-2.34-2.1-4.794-2.679-7.363
	c-0.567-1.943-3.111-1.018-2.297,0.835C34.071,7.197,34.965,9.652,35.544,12.22z"/>
<path fill="#302C3B" d="M39.611,10.712c2.65,0.262-1.258-10.292-5.826-7.513C39.543,2.661,37.874,10.541,39.611,10.712z
	 M39.58,11.17c-3.737-0.506-0.406-6.846-6.218-7.752C37.532-2.498,45.479,12.061,39.58,11.17z"/>
<path fill="#297124" d="M2.62,19.547c9.962,12.633,24.25,31.108,32.868,38.872c7.462,6.723,16.227,3.115,16.227-3.704
	C39.736,67.41,2.459,16.148,2.459,16.148C1.711,17.242,1.958,18.707,2.62,19.547z"/>
<path fill="#297124" d="M61.949,37.157c-6.637,9.855-16.244,0.584-50.824-21.716c-0.316,0.678-0.137,1.985,0.701,2.608
	c11.401,8.48,27.838,20.941,36.966,25.588C56.695,47.661,62.612,43.222,61.949,37.157z"/>
<path fill="#A6E639" d="M2.62,18.548c9.962,12.633,24.25,31.108,32.868,38.871c7.462,6.724,15.323,3.197,16.227-2.704
	c-0.254-1.417-4.656,2.542-9.565-0.917C31.65,46.402,14.759,24.701,7.191,16.381C4.652,13.589,0.672,16.077,2.62,18.548z"/>
<path fill="#A6E639" d="M61.938,37.054c-0.546-1.146-3.359,3.208-8.335,1.381C42.966,34.523,23.567,19.91,15.205,14.553
	c-2.808-1.797-5.606,1.214-3.379,2.871c11.401,8.48,27.838,20.942,36.966,25.588C56.695,47.036,62.548,42.269,61.938,37.054z"/>
<polygon fill="#302C3B" points="13.421,61.999 13.198,59.562 14.467,59.786 "/>
<path fill="#4E5E67" d="M18.224,59.487c-0.297,1.689-8.753,0.199-8.454-1.492S18.523,57.796,18.224,59.487z"/>
<path fill="#0FB4D4" d="M14.671,58.624c-0.108,0.623-1.378,0.398-1.27-0.223c1.811-10.256,7.569-42.915,7.569-42.915l1.268,0.224
	C22.238,15.71,16.485,48.335,14.671,58.624z"/>
<path fill="#4E5E67" d="M22.971,16.783c-0.28,2.554-3.666,1.957-3.055-0.538c0.993-3.192,1.567-6.458,1.727-9.795
	c0.28-2.554,3.665-1.958,3.055,0.539C23.706,10.178,23.131,13.444,22.971,16.783z"/>
<path fill="#302C3B" d="M23.183,5.119C16.86,2.653,14.3,16.706,17.556,15.794C19.687,15.197,15.866,5.715,23.183,5.119z M23.76,5.3
	c-7.065,2.413-1.505,9.602-6.063,11.059C10.521,18.771,17.242-1.177,23.76,5.3z"/>
</svg>
