<?xml version="1.0" encoding="utf-8"?>
<!-- Generator: Adobe Illustrator 15.0.0, SVG Export Plug-In . SVG Version: 6.00 Build 0)  -->
<!DOCTYPE svg PUBLIC "-//W3C//DTD SVG 1.1//EN" "http://www.w3.org/Graphics/SVG/1.1/DTD/svg11.dtd">
<svg version="1.1" id="Layer_1" xmlns="http://www.w3.org/2000/svg" xmlns:xlink="http://www.w3.org/1999/xlink" x="0px" y="0px"
	 width="64px" height="64px" viewBox="0 0 64 64" enable-background="new 0 0 64 64" xml:space="preserve">
<path fill="#302C3B" d="M20.333,10.333v29.343c-1.251-0.641-2.665-1.009-4.167-1.009C11.104,38.667,7,42.771,7,47.833
	C7,52.896,11.104,57,16.167,57s9.167-4.104,9.167-9.167V19.879L52,17.454v18.889c-1.251-0.641-2.665-1.01-4.167-1.01
	c-5.063,0-9.166,4.104-9.166,9.167c0,5.063,4.104,9.167,9.166,9.167S57,49.563,57,44.5V7L20.333,10.333z"/>
<path fill="#1A1626" d="M52,16.47l-28.333,2.576V47c0,5.063-4.104,9.167-9.167,9.167c-1.144,0-2.234-0.22-3.244-0.602
	C12.677,56.47,14.358,57,16.167,57c5.062,0,9.167-4.104,9.167-9.167V19.879L52,17.522V16.47z"/>
<path fill="#1A1626" d="M55.333,7.151v36.516c0,5.063-4.104,9.166-9.166,9.166c-1.145,0-2.234-0.219-3.244-0.601
	c1.42,0.903,3.102,1.435,4.91,1.435c5.063,0,9.167-4.104,9.167-9.167V7L55.333,7.151z"/>
<path fill-rule="evenodd" clip-rule="evenodd" fill="#4E5E67" d="M8.735,47.164c0.282,2.252,3.994-2.156,7.752-5.947
	C18.913,38.779,7.888,40.385,8.735,47.164z"/>
<path fill-rule="evenodd" clip-rule="evenodd" fill="#4E5E67" d="M40.437,43.83c0.283,2.253,3.994-2.155,7.752-5.946
	C50.614,35.446,39.589,37.051,40.437,43.83z"/>
</svg>
