<?xml version="1.0" encoding="utf-8"?>
<!-- Generator: Adobe Illustrator 15.0.0, SVG Export Plug-In . SVG Version: 6.00 Build 0)  -->
<!DOCTYPE svg PUBLIC "-//W3C//DTD SVG 1.1//EN" "http://www.w3.org/Graphics/SVG/1.1/DTD/svg11.dtd">
<svg version="1.1" id="Layer_1" xmlns="http://www.w3.org/2000/svg" xmlns:xlink="http://www.w3.org/1999/xlink" x="0px" y="0px"
	 width="64px" height="64px" viewBox="0 0 64 64" enable-background="new 0 0 64 64" xml:space="preserve">
<path fill="#302C3B" d="M56,58c0,2.199-1.801,4-4,4H12c-2.2,0-4-1.801-4-4V6c0-2.2,1.8-4,4-4h40c2.199,0,4,1.8,4,4V58z"/>
<path fill="#E81C27" d="M54,48c0,0-16-14-44-14V7c0-1.65,1.35-3,3-3h38c1.65,0,3,1.35,3,3V48z"/>
<circle fill="#FFFFFF" cx="26.001" cy="20" r="12"/>
<path fill="#4E5E67" d="M30.398,40C25.91,36.059,18.488,36.059,14,40C19.176,38.736,25.223,38.736,30.398,40z"/>
<path fill="#4E5E67" d="M44.398,46C39.91,42.059,32.488,42.059,28,46C33.176,44.736,39.223,44.736,44.398,46z"/>
<path fill="#4E5E67" d="M48,54c-4.488-3.941-11.91-3.941-16.398,0C36.777,52.736,42.824,52.736,48,54z"/>
<path fill="#4E5E67" d="M36.398,44C30.815,40.059,21.583,40.059,16,44C22.438,42.736,29.96,42.736,36.398,44z"/>
<path fill="#4E5E67" d="M40,48c-7.772-3.941-20.626-3.941-28.398,0C20.565,46.736,31.036,46.736,40,48z"/>
<path fill="#4E5E67" d="M44,52c-6.678-3.941-17.721-3.941-24.398,0C27.303,50.736,36.299,50.736,44,52z"/>
</svg>
