<?xml version="1.0" encoding="utf-8"?>
<!-- Generator: Adobe Illustrator 15.0.0, SVG Export Plug-In . SVG Version: 6.00 Build 0)  -->
<!DOCTYPE svg PUBLIC "-//W3C//DTD SVG 1.1//EN" "http://www.w3.org/Graphics/SVG/1.1/DTD/svg11.dtd">
<svg version="1.1" id="Layer_1" xmlns="http://www.w3.org/2000/svg" xmlns:xlink="http://www.w3.org/1999/xlink" x="0px" y="0px"
	 width="64px" height="64px" viewBox="0 0 64 64" enable-background="new 0 0 64 64" xml:space="preserve">
<path fill="#302C3B" d="M62,32.001C62,48.568,48.571,62,32.004,62C15.424,62,2,48.568,2,32.001C2,15.433,15.424,2,32.004,2
	C48.571,2,62,15.433,62,32.001z"/>
<path fill="#1A1626" d="M50.738,8.592c4.096,5.13,6.563,11.623,6.563,18.701c0,16.567-13.43,30.002-29.997,30.002
	c-7.1,0-13.609-2.479-18.744-6.594C14.054,57.58,22.504,62,32.004,62c16.566,0,29.994-13.432,29.994-29.999
	C61.998,22.53,57.596,14.092,50.738,8.592z"/>
<path opacity="0.5" fill-rule="evenodd" clip-rule="evenodd" fill="#4E5E67" d="M8.461,19.031
	c-1.175,5.58,5.272-1.188,16.354-10.217C29.704,4.832,10.879,7.536,8.461,19.031z"/>
<ellipse transform="matrix(0.7706 -0.6373 0.6373 0.7706 -7.1472 28.6792)" fill="#FFFFFF" cx="36.265" cy="24.268" rx="13.143" ry="13.865"/>
<path fill="#302C3B" d="M45.259,23.205c1.784,2.871,0.783,6.313-2.896,8.601s-7.209,1.663-8.993-1.207
	c-1.131-1.818-1.09-3.803,0.02-5.621c-1.657,0.036-3.104-0.689-4.071-2.244c-1.681-2.703-0.657-5.958,2.483-7.912
	c3.117-1.938,6.49-1.416,8.172,1.286c0.967,1.556,0.977,3.174,0.235,4.63C42.329,20.548,44.128,21.388,45.259,23.205z M42.154,24.77
	c-0.922-1.483-2.868-1.864-4.64-0.762c-1.772,1.102-2.308,2.993-1.371,4.5c0.969,1.556,2.945,1.983,4.717,0.882
	C42.633,28.287,43.106,26.301,42.154,24.77z M32.048,21.269c0.893,1.436,2.676,1.854,4.291,0.849
	c1.592-0.991,2.014-2.813,1.137-4.225c-0.878-1.41-2.684-1.813-4.275-0.823C31.585,18.074,31.155,19.833,32.048,21.269z"/>
</svg>
