<?xml version="1.0" encoding="utf-8"?>
<!-- Generator: Adobe Illustrator 15.0.0, SVG Export Plug-In . SVG Version: 6.00 Build 0)  -->
<!DOCTYPE svg PUBLIC "-//W3C//DTD SVG 1.1//EN" "http://www.w3.org/Graphics/SVG/1.1/DTD/svg11.dtd">
<svg version="1.1" id="Layer_1" xmlns="http://www.w3.org/2000/svg" xmlns:xlink="http://www.w3.org/1999/xlink" x="0px" y="0px"
	 width="64px" height="64px" viewBox="0 0 64 64" enable-background="new 0 0 64 64" xml:space="preserve">
<path fill="#CFD8DD" d="M58,2H48c-1.1,0-2,0.9-2,2c0-1.1-0.9-2-2-2H34c-1.1,0-2,0.9-2,2c0-1.1-0.9-2-2-2H20c-1.1,0-2,0.9-2,2
	c0-1.1-0.9-2-2-2H6C4.9,2,4,2.9,4,4v56c0,1.1,0.9,2,2,2h10c1.1,0,2-0.9,2-2c0,1.1,0.9,2,2,2h10c1.1,0,2-0.9,2-2c0,1.1,0.9,2,2,2h10
	c1.1,0,2-0.9,2-2c0,1.1,0.9,2,2,2h10c1.1,0,2-0.9,2-2V4C60,2.9,59.1,2,58,2z"/>
<path fill="#E6EBEF" d="M59,57c0,1.1-0.9,2-2,2h-8c-1.1,0-2-0.9-2-2V5c0-1.1,0.9-2,2-2h8c1.1,0,2,0.9,2,2V57z"/>
<path fill="#FFFFFF" d="M48,57V5c0-1.1,0.9-2,2-2h-1c-1.1,0-2,0.9-2,2v52c0,1.1,0.9,2,2,2h1C48.9,59,48,58.1,48,57z"/>
<path fill="#E6EBEF" d="M45,57c0,1.1-0.9,2-2,2h-8c-1.1,0-2-0.9-2-2V5c0-1.1,0.9-2,2-2h8c1.1,0,2,0.9,2,2V57z"/>
<path fill="#FFFFFF" d="M34,57V5c0-1.1,0.9-2,2-2h-1c-1.1,0-2,0.9-2,2v52c0,1.1,0.9,2,2,2h1C34.9,59,34,58.1,34,57z"/>
<path fill="#E6EBEF" d="M31,57c0,1.1-0.9,2-2,2h-8c-1.1,0-2-0.9-2-2V5c0-1.1,0.9-2,2-2h8c1.1,0,2,0.9,2,2V57z"/>
<path fill="#FFFFFF" d="M20,57V5c0-1.1,0.9-2,2-2h-1c-1.1,0-2,0.9-2,2v52c0,1.1,0.9,2,2,2h1C20.9,59,20,58.1,20,57z"/>
<path fill="#E6EBEF" d="M17,57c0,1.1-0.9,2-2,2H7c-1.1,0-2-0.9-2-2V5c0-1.1,0.9-2,2-2h8c1.1,0,2,0.9,2,2V57z"/>
<path fill="#FFFFFF" d="M6,57V5c0-1.1,0.9-2,2-2H7C5.9,3,5,3.9,5,5v52c0,1.1,0.9,2,2,2h1C6.9,59,6,58.1,6,57z"/>
<path fill="#302C3B" d="M50,38c0,1.1-0.9,2-2,2h-4c-1.1,0-2-0.9-2-2V3c0-1.002,0.441-1,1-1c1.438,0,4.521,0,6,0c0.559,0,1-0.002,1,1
	V38z"/>
<path fill="#4E5E67" d="M49,33c0,1.1-0.9,2-2,2h-2c-1.1,0-2-0.9-2-2V3h6V33z"/>
<path fill="#6E8189" d="M44,33V3h-1v30c0,1.1,0.9,2,2,2h1C44.9,35,44,34.1,44,33z"/>
<path fill="#302C3B" d="M36,38c0,1.1-0.9,2-2,2h-4c-1.1,0-2-0.9-2-2V3c0-1.002,0.441-1,1-1c1.438,0,4.521,0,6,0c0.559,0,1-0.002,1,1
	V38z"/>
<path fill="#4E5E67" d="M35,33c0,1.1-0.9,2-2,2h-2c-1.1,0-2-0.9-2-2V3h6V33z"/>
<path fill="#6E8189" d="M30,33V3h-1v30c0,1.1,0.9,2,2,2h1C30.9,35,30,34.1,30,33z"/>
<path fill="#302C3B" d="M21,38c0,1.1-0.9,2-2,2h-4c-1.1,0-2-0.9-2-2V3c0-1.002,0.441-1,1-1c1.438,0,4.521,0,6,0c0.559,0,1-0.002,1,1
	V38z"/>
<path fill="#4E5E67" d="M20,33c0,1.1-0.9,2-2,2h-2c-1.1,0-2-0.9-2-2V3h6V33z"/>
<path fill="#6E8189" d="M15,33V3h-1v30c0,1.1,0.9,2,2,2h1C15.9,35,15,34.1,15,33z"/>
</svg>
