<?xml version="1.0" encoding="utf-8"?>
<!-- Generator: Adobe Illustrator 15.0.0, SVG Export Plug-In . SVG Version: 6.00 Build 0)  -->
<!DOCTYPE svg PUBLIC "-//W3C//DTD SVG 1.1//EN" "http://www.w3.org/Graphics/SVG/1.1/DTD/svg11.dtd">
<svg version="1.1" id="Layer_1" xmlns="http://www.w3.org/2000/svg" xmlns:xlink="http://www.w3.org/1999/xlink" x="0px" y="0px"
	 width="64px" height="64px" viewBox="0 0 64 64" enable-background="new 0 0 64 64" xml:space="preserve">
<path fill="#CAE8F0" d="M62,20C42.748,32.8,19.486,45.311,2,48.346V62h60V20z"/>
<path fill="#D9F1F7" d="M2,62h60V28.339C48.082,37.893,26.389,52.484,2,55.012V62z"/>
<path fill="#D47706" d="M14.408,56.078c-5.438,2.297,3.863,7.484,8.348,5.408c18.361-8.498,24.039-12.637,33.299-19.596
	c3.527-2.65-2.98-5.59-7.779-2.932C36.838,45.297,27.584,50.51,14.408,56.078z"/>
<path fill="#F9B700" d="M14.693,55.945c-5.438,2.297,3.578,7.055,8.063,4.979c18.361-8.498,24.039-12.637,33.299-19.596
	c3.527-2.65-4.16-5.066-8.959-2.408C35.658,45.258,27.867,50.379,14.693,55.945z"/>
<path fill="#EDFCFF" d="M58.26,34.311c-0.713-0.547,0.928-2.689,1.643-2.142C60.615,32.715,58.975,34.857,58.26,34.311z"/>
<path fill="#EDFCFF" d="M57.391,30.095c-0.602-0.462,0.785-2.273,1.389-1.811C59.383,28.747,57.996,30.557,57.391,30.095z"/>
<path fill="#EDFCFF" d="M58.059,40.547c-1.059-0.811,1.375-3.986,2.434-3.176C61.549,38.182,59.117,41.357,58.059,40.547z"/>
<path fill="#EDFCFF" d="M52.615,36.602c-0.645-0.494,0.84-2.434,1.486-1.938C54.748,35.158,53.262,37.098,52.615,36.602z"/>
<path fill="#FFE12C" d="M26.09,56.199c3.242-0.523,6.594-1.064,10.699-5.955c4.145-4.938,7.393-5.619,10.256-6.223
	c2.867-0.602,5.586-1.184,7.854-5.824c-0.596-0.191-1.287-0.328-2.033-0.391c-1.744,3.314-3.596,3.703-6.23,4.258
	c-3.025,0.637-6.789,1.428-11.377,6.895c-3.627,4.32-6.473,4.779-9.486,5.268c-3.242,0.523-6.588,1.064-10.727,5.869
	c0.576,0.324,1.238,0.607,1.943,0.83C20.449,57.123,23.199,56.666,26.09,56.199z"/>
<path fill="#C21413" d="M31.477,20.708C38,13,45,17,48.703,14.65C50.242,13.674,49.377,18.655,50,22c0.473,2.522-10-5-15.846,1.266
	C34.154,23.266,30.877,21.415,31.477,20.708z"/>
<path fill="#014D87" d="M31.1,22.349c-1.311-2.169,2.52-3.606,3.549-1.868c0.947,1.598,2.941,3.469,3.211,4.367
	c2.537,0.247,3.121,1.041,4.836,1.119l0.633,3.223c0,0-6.039-0.66-7.762-1.521C33.971,26.87,31.955,23.762,31.1,22.349z"/>
<path fill="#006DAE" d="M25.674,53.453c-0.164,1.531,0.084,3.201,3.746,2.43c6.025-1.27,2.422-5.035,2.422-5.035
	C30.42,48.738,26.025,50.182,25.674,53.453z"/>
<path fill="#014D87" d="M29.271,52.967c-1.508,0.354-2.434,3.111-3.598,0.486c-0.607,3.027,1.469,3.072,3.615,2.711
	c2.609-0.441,5.262-1.947,2.553-5.316C33.119,54.99,30.643,52.646,29.271,52.967z"/>
<path fill="#006DAE" d="M39.645,46.602c1.049,1.715,8.861-1.031,7.338-2.191c-1.063-0.809-1.969-1.24-1.969-1.24
	C42.436,40.398,38.836,45.281,39.645,46.602z"/>
<path fill="#014D87" d="M39.645,46.602c-0.225,0.906,2.744,1.125,4.494,1.125c4.189,0,4.137-2.824,2.844-3.316
	C43.354,43.029,47.18,47.988,39.645,46.602z"/>
<path fill-rule="evenodd" clip-rule="evenodd" fill="#302C3B" d="M45.014,43.17c0,0-1.078-7.57-3.322-9.869
	c-1.068-1.097-3.375-2.667-6.064-3.693c-4.871,0.504-5.723,1.785-10.436,3.812c-0.047,4.789,2.387,6.008,1.709,9.75
	c-1.273,7.012-1.227,10.283-1.227,10.283c1.246-3.82,5.121-3.82,6.168-2.605c0,0,0.969-3.699,1.684-7.678
	c0.309-1.719-0.797-5.309-1.119-7.404c1.979,0.076,4.117,1.314,4.551,1.826c1.152,1.359,0.709,7.994,2.688,9.01
	C41.066,43.17,42.9,41.703,45.014,43.17z"/>
<path fill-rule="evenodd" clip-rule="evenodd" fill="#006DAE" d="M36.109,29.818c-2.051-3.905-0.285-7.585-2.5-10.612
	c-3.076-4.203-10.699,3.313-10.699,3.313c0.291,5.963,1.74,5.736,2.289,11.734C25.439,36.891,37.734,32.918,36.109,29.818z"/>
<path fill="#014D87" d="M22.85,22.004c2.66-1.439,4.805,2.135,2.672,3.27c-1.959,1.041-4.184,3.115-5.311,3.449
	c-0.105,2.465-1.363,3.162-0.98,6.589l-4.107-0.965c0,0,0.35-5.873,1.307-7.605C17.318,25.139,21.117,22.944,22.85,22.004z"/>
<path fill="#614A36" d="M36.447,15.321C36.182,8.986,21.143,9,20.729,15.342c0,0-0.041,2.656,1.154,2.723
	c0.461,3.727,2.957,4.468,6.627,4.426c3.67-0.041,6.189-0.84,6.738-4.576C36.443,17.821,36.447,15.321,36.447,15.321z"/>
<path fill="#C21413" d="M32.102,4.899c-0.029,3.998-7.025,4.199-7,0.199C25.131,1.104,32.131,0.902,32.102,4.899z"/>
<path fill="#E03636" d="M37,11.531c-0.053,3.624-16.869,3.779-16.814,0.155C20.322,1.993,37.141,1.838,37,11.531z"/>
<path fill="#C21413" d="M36.447,14.487c-5.201-0.697-10.518-0.689-15.719,0.02c-1.025,0.146-1.787-2.759-0.643-2.922
	c5.631-0.766,11.385-0.773,17.012-0.021C38.24,11.723,37.471,14.63,36.447,14.487z"/>
<path fill="#0FB4D4" d="M34.77,13.149c-0.938-0.908-2.824-1.184-6.184-1.184s-5.244,0.275-6.182,1.184
	c-1.174,1.137-1,3.789,0.115,4.87c0.83,0.804,5.264,0.812,5.264-0.763c0-0.795-0.119-1.51,0.803-1.51s0.805,0.715,0.807,1.51
	c-0.002,1.574,4.432,1.566,5.26,0.764C35.768,16.938,35.943,14.286,34.77,13.149z"/>
<path fill="#A0D8E9" d="M27.287,11.981l-5.34,5.173c0.148,0.339,0.785,1.022,0.939,1.087l6.473-6.27
	C29.111,11.967,27.693,11.971,27.287,11.981z"/>
<path fill="#A0D8E9" d="M33.828,12.56l-4.434,4.294c0,0.129,0.279,1.096,0.715,1.305L35,13.42
	C34.932,13.324,34.211,12.717,33.828,12.56z"/>
<path fill="#302C3B" d="M36.547,14.302l-0.828-0.001c-0.145-0.545-0.387-1.02-0.736-1.358c-0.955-0.927-2.689-1.271-6.395-1.271
	c-3.709,0-5.441,0.344-6.398,1.271c-0.314,0.306-0.549,0.718-0.699,1.197l-0.863-0.001v2.338h0.791
	c0.158,0.714,0.467,1.338,0.891,1.748c0.471,0.457,1.629,0.619,2.557,0.619c1.486,0,3.219-0.416,3.219-1.588
	c0-0.084,0-0.166-0.002-0.248c-0.008-0.377-0.012-0.732,0.127-0.869c0.068-0.066,0.193-0.101,0.377-0.101
	c0.184,0.001,0.311,0.034,0.377,0.101c0.141,0.137,0.135,0.492,0.129,0.869c-0.002,0.082-0.004,0.164-0.004,0.248
	c0,1.172,1.734,1.588,3.219,1.588c0.93,0,2.088-0.162,2.561-0.619c0.389-0.377,0.674-0.942,0.84-1.586h0.84V14.302z M34.439,17.813
	c-0.23,0.223-1.035,0.447-2.133,0.447c-1.299,0-2.613-0.346-2.613-1.004c0-0.081,0-0.16,0.002-0.24
	c0.008-0.502,0.014-0.977-0.301-1.287c-0.188-0.186-0.453-0.274-0.809-0.274s-0.619,0.089-0.807,0.274
	c-0.316,0.312-0.309,0.785-0.301,1.287c0,0.08,0.002,0.159,0.002,0.24c0,0.658-1.316,1.004-2.615,1.004
	c-1.096,0-1.9-0.225-2.131-0.447c-0.477-0.461-0.793-1.312-0.83-2.219c-0.035-0.936,0.23-1.771,0.713-2.238
	c0.816-0.791,2.49-1.1,5.969-1.1c3.48,0,5.154,0.309,5.971,1.1c0.482,0.467,0.748,1.303,0.711,2.238
	C35.232,16.501,34.916,17.352,34.439,17.813z"/>
<path fill="#E03636" d="M34.742,19.708c-3.248,4.131-9.854,2.613-12.457,0c-0.928-0.932,0,1.928-0.314,2.785
	c-0.672,1.828,8.857,5.109,12.852,0.266C35.744,21.64,35.654,18.545,34.742,19.708z"/>
<path fill="#302C3B" d="M15.176,33.609l3.986,0.754c1.844,2.941,1.795,4.033,0.713,3.738c0,0,0.33,2.516-0.861,2.75
	c-0.75,0.15-1.363-0.613-1.363-0.613C15.16,40.016,14.145,37.494,15.176,33.609z"/>
<path fill="#302C3B" d="M47.408,29.558c0.309-1.929-1.396-3.426-4.713-3.591l-0.447,3.092c2.002,2.101,3.039,2.545,3.016,1.658
	c0,0,1.951,0.858,2.373,0.019C47.902,30.208,47.408,29.558,47.408,29.558z"/>
<path fill="#3B2B1C" d="M31.415,19.639c-0.517,0.548-0.84,1.527-2.75,1.527c-1.665,0-2.124-0.862-2.75-1.527H31.415z"/>
<path fill="#FFFFFF" d="M31.073,19.639c0,0.152-1.019,0.918-2.408,0.918c-1.389,0-2.406-0.766-2.406-0.918H31.073z"/>
<path fill="#3B2B1C" d="M28.665,19.488c-0.936-0.269-2.75,0.151-2.75,0.151c1.116,0.092,4.402,0.091,5.5,0
	C31.415,19.639,29.601,19.218,28.665,19.488z"/>
</svg>
