<?xml version="1.0" encoding="utf-8"?>
<!-- Generator: Adobe Illustrator 15.0.0, SVG Export Plug-In . SVG Version: 6.00 Build 0)  -->
<!DOCTYPE svg PUBLIC "-//W3C//DTD SVG 1.1//EN" "http://www.w3.org/Graphics/SVG/1.1/DTD/svg11.dtd">
<svg version="1.1" id="Layer_1" xmlns="http://www.w3.org/2000/svg" xmlns:xlink="http://www.w3.org/1999/xlink" x="0px" y="0px"
	 width="64px" height="64px" viewBox="0 0 64 64" enable-background="new 0 0 64 64" xml:space="preserve">
<path fill="#875B49" d="M17,28.691c1.953-0.42,2.93-1.785,2.135-5.066c-1.916-7.916,7.738-10.186,9.467-4.811l-2.221,1.25
	c-1.258-1.559-3.639-0.236-3.016,3.213C24.006,26.834,21.738,29.967,17,28.691z"/>
<path fill="#8E3ED6" d="M29.783,18.82c1.348,1.289-3.83,4.953-3.725,1.9C26.119,19.006,28.93,18,29.783,18.82z"/>
<path fill="#8E3ED6" d="M38.053,39.467l-1.611-6.533L32,34.195l-4.441-1.262l-1.611,6.533c0.58,3.239,1.176,2.124,1.043,7.186
	c-0.066,2.473-5.258,8.539,5.01,8.539s5.076-6.066,5.01-8.539C36.873,41.591,37.471,42.706,38.053,39.467z"/>
<path fill="#B88A6F" d="M36.441,32.934c0,0,0.955-1.881,3.047-2.496c0,0,4.699-4.053,8.166-11.146h2.693
	c-2.826,5.016-5.564,11.881-10.6,16.174c-0.826,0.703-1.693,4.002-1.693,4.002C37.119,39.346,36.441,32.934,36.441,32.934z"/>
<path fill="#B88A6F" d="M27.559,32.934c0,0-0.953-1.881-3.045-2.496c0,0-4.701-4.053-8.168-11.146h-2.691
	c2.826,5.016,6.42,12.545,10.6,16.174c0.82,0.711,1.693,4.002,1.693,4.002C26.883,39.346,27.559,32.934,27.559,32.934z"/>
<path fill="#302C3B" d="M32,46.561c-3.002,0-5.01-0.873-5.01-0.873v1.285c0,0,2.008,1.949,5.01,1.949c2.998,0,5.01-1.949,5.01-1.949
	v-1.285C37.01,45.688,34.998,46.561,32,46.561z"/>
<path fill="#946346" d="M40.961,53.092c0,0-6.303,4.613-5.252-3.76c0.123-0.975,3.676-3.773,4.313-3.773L40.961,53.092z"/>
<path fill="#B88A6F" d="M37.99,57.619c0,0-0.475,2.314,4.15,0.9c1.42-5.953,2.584-5.125,3.422-9.391c0,0-2.732-3.072-6.035,0.629
	C37.516,53.42,40.07,54.807,37.99,57.619z"/>
<path fill="#302C3B" d="M36.58,62c-0.225-2.59,1.41-4.381,1.41-4.381c-0.053,1.451,4.15,0.9,4.15,0.9
	c4.965,0.969,4.414,2.625,3.875,3.48H36.58z"/>
<path fill="#E6EBEF" d="M39.527,49.758c0,0,3.219-2.584,6.035-0.629c0,0,0.41-5.572-5.541-3.57
	C39.129,45.859,38.871,49.482,39.527,49.758z"/>
<path fill="#946346" d="M23.039,53.092c0,0,6.303,4.613,5.252-3.76c-0.121-0.975-3.674-3.773-4.311-3.773L23.039,53.092z"/>
<path fill="#B88A6F" d="M26.01,57.619c0,0,0.477,2.314-4.148,0.9c-1.42-5.953-2.584-5.125-3.424-9.391c0,0,2.734-3.072,6.035,0.629
	C26.486,53.42,23.93,54.807,26.01,57.619z"/>
<path fill="#302C3B" d="M27.422,62c0.223-2.59-1.412-4.381-1.412-4.381c0.053,1.451-4.148,0.9-4.148,0.9
	c-4.967,0.969-4.416,2.625-3.875,3.48H27.422z"/>
<path fill="#E6EBEF" d="M24.473,49.758c0,0-3.217-2.584-6.035-0.629c0,0-0.41-5.572,5.543-3.57
	C24.873,45.859,25.131,49.482,24.473,49.758z"/>
<rect x="58" y="15.5" fill="#99A8AE" width="4" height="3"/>
<rect x="52" y="14" fill="#6E8189" width="1" height="6"/>
<rect x="53" y="8" fill="#302C3B" width="3" height="18"/>
<rect x="56" y="14" fill="#6E8189" width="2" height="6"/>
<rect x="56.5" y="13" fill="#302C3B" width="1" height="2"/>
<rect x="2" y="15.5" fill="#99A8AE" width="4" height="3"/>
<rect x="11" y="14" fill="#6E8189" width="1" height="6"/>
<rect x="8" y="8" fill="#302C3B" width="3" height="18"/>
<rect x="6" y="14" fill="#6E8189" width="2" height="6"/>
<rect x="6.5" y="13" fill="#302C3B" width="1" height="2"/>
<rect x="12" y="16" fill="#99A8AE" width="40" height="2"/>
<path fill="#B88A6F" d="M51,18c0.035,2.225-3.881,3.074-4,0H51z"/>
<path fill="#B88A6F" d="M13,18c-0.033,2.225,3.883,3.074,4,0H13z"/>
<path fill="#B88A6F" d="M13.631,16.967c0,0,0.725,1.068,1.26,0.182c0,0,1.016,0.793,1.109-0.234C16.957,17.574,17.035,16,17.035,16
	h1.193c0,0,0.348-0.705-1.111-0.461c0,0,0.029-0.945-1.107-0.619c0.068-0.662-1.172-0.342-1.172-0.342
	c-1.324-0.234-1.305,0.402-1.305,0.402C12.273,14.982,12.531,17.875,13.631,16.967z"/>
<path fill="#B88A6F" d="M50.369,16.967c0,0-0.725,1.068-1.26,0.182c0,0-1.014,0.793-1.109-0.234C47.043,17.574,46.965,16,46.965,16
	h-1.191c0,0-0.35-0.705,1.109-0.461c0,0-0.029-0.945,1.107-0.619c-0.066-0.662,1.172-0.344,1.172-0.344
	c1.326-0.232,1.305,0.404,1.305,0.404C51.729,14.982,51.471,17.875,50.369,16.967z"/>
<path fill="#946346" d="M34.5,33.754c0,2.635-5,2.635-5,0c0-0.787,0-3.025,0-3.025h5C34.5,30.729,34.5,33.045,34.5,33.754z"/>
<path fill="#45332C" d="M34.518,31.1c-0.275-0.441-0.943-0.736-2.518-0.736s-2.242,0.295-2.518,0.736
	c-0.146,0.234,0.064,0.613,0.064,0.613c0.262,0.477,0.225,0.613,2.453,0.613c2.227,0,2.191-0.137,2.455-0.613
	C34.455,31.713,34.666,31.334,34.518,31.1z"/>
<path fill="#FFFFFF" d="M33.963,31.098c0.012-0.066-0.023-0.15-0.076-0.184c0,0-0.479-0.307-1.887-0.307
	c-1.406,0-1.885,0.307-1.885,0.307c-0.055,0.033-0.088,0.117-0.076,0.184l0.025,0.127c0.012,0.066,0.072,0.119,0.135,0.119h3.602
	c0.063,0,0.125-0.053,0.137-0.119L33.963,31.098z"/>
<path fill="#FFFFFF" d="M32,32.082c0.771,0,1.869,0,1.84-0.254c-0.004-0.045-0.018-0.098-0.035-0.156
	c-0.018-0.064-0.033-0.082-0.166-0.082c-0.289,0-3.055,0-3.277,0c-0.133,0-0.148,0.018-0.166,0.082
	c-0.016,0.059-0.029,0.111-0.035,0.156C30.131,32.082,31.229,32.082,32,32.082z"/>
<path fill="#875B49" d="M32.002,18.686c4.658,0,6.779,3.008,7.201,7.048c0.225,2.142-0.271,3.685-2.057,4.96
	c-2.104,1.503-8.186,1.503-10.287,0c-1.785-1.275-2.281-2.818-2.059-4.96c0.646-6.17,3.859-5.742,3.859-5.742
	S28.936,18.686,32.002,18.686z"/>
<path fill="#B07E61" d="M36.961,29.078c-0.371-3.472,0.549-4.197,1.809-1.699C38.602,28.597,37.822,29.88,36.961,29.078z"/>
<path fill="#B07E61" d="M27.045,29.078c-0.064-3.643,0.127-4.486-1.834-2.417C25.09,27.985,26.008,30.042,27.045,29.078z"/>
<path fill="#B88A6F" d="M26.092,25.739c4.455-2.78,3.443-4.273,3.443-4.273c5.27,2.908,8.363,4.281,8.363,4.281
	s0.002,1.987-0.381,4.004c-0.375,1.969-3.48,4.597-5.516,4.597s-5.141-2.628-5.516-4.597C26.105,27.733,26.092,25.739,26.092,25.739
	z"/>
<path fill="#6B4435" d="M38.77,27.384c-1.684-3.052-8.477-2.896-9.529-6.522C33.365,24.281,38.234,24.018,38.77,27.384z"/>
<path fill="#6B4435" d="M25.211,26.661c2.654-2.16,6.617-3.623,4.029-5.8C30.035,23.618,26.91,23.908,25.211,26.661z"/>
<path fill="#F5F5F5" d="M27.195,27.171c0.621,1.617,3.148,1.38,3.611,0.248C30.455,25.601,27.535,25.444,27.195,27.171z"/>
<path fill="#45332C" d="M30.162,26.998c0,1.427-2.064,1.427-2.064,0C28.098,25.673,30.162,25.673,30.162,26.998z"/>
<path fill="#45332C" d="M27.195,27.158c0-1.737,3.611-1.737,3.611,0.275C30.291,25.782,27.711,25.782,27.195,27.158z"/>
<path fill="#F5F5F5" d="M36.738,27.171c-0.621,1.617-3.148,1.38-3.611,0.248C33.479,25.601,36.396,25.444,36.738,27.171z"/>
<path fill="#45332C" d="M33.771,26.998c0,1.427,2.064,1.427,2.064,0C35.836,25.673,33.771,25.673,33.771,26.998z"/>
<path fill="#45332C" d="M36.738,27.158c0-1.736-3.611-1.736-3.611,0.274C33.643,25.782,36.223,25.782,36.738,27.158z"/>
<path fill="#946346" d="M27.414,25.611c1.094-0.45,2.59-0.538,3.359-0.238c0.162,0.063,0.156,0.452,0.014,0.413
	c-1.102-0.3-2.371-0.323-3.414,0.04C27.232,25.874,27.25,25.679,27.414,25.611z"/>
<path fill="#946346" d="M36.559,25.611c-1.094-0.45-2.59-0.538-3.359-0.238c-0.162,0.063-0.156,0.452-0.014,0.413
	c1.104-0.3,2.371-0.323,3.414,0.04C36.74,25.874,36.725,25.679,36.559,25.611z"/>
<path fill="#946346" d="M30.678,29.758c0,0.828,2.545,0.828,2.545,0C33.223,29.567,30.678,29.567,30.678,29.758z"/>
<path fill="#45332C" d="M29.502,31.581c0.27-0.432,0.924-0.721,2.465-0.721s2.195,0.289,2.465,0.721
	c0.143,0.229-0.063,0.601-0.063,0.601c-0.256,0.467-0.221,0.601-2.402,0.601c-2.18,0-2.145-0.134-2.402-0.601
	C29.564,32.182,29.357,31.811,29.502,31.581z"/>
<path fill="#FFFFFF" d="M30.045,31.579c-0.01-0.064,0.023-0.147,0.076-0.18c0,0,0.467-0.3,1.846-0.3c1.377,0,1.846,0.3,1.846,0.3
	c0.053,0.032,0.086,0.115,0.074,0.18l-0.025,0.124c-0.012,0.065-0.07,0.117-0.131,0.117h-3.525c-0.063,0-0.123-0.052-0.135-0.117
	L30.045,31.579z"/>
<path fill="#FFFFFF" d="M31.967,32.543c-0.754,0-1.83,0-1.801-0.249c0.004-0.044,0.018-0.096,0.035-0.152
	c0.018-0.063,0.031-0.081,0.162-0.081c0.283,0,2.99,0,3.209,0c0.129,0,0.145,0.018,0.162,0.081c0.016,0.057,0.027,0.108,0.033,0.152
	C33.797,32.543,32.723,32.543,31.967,32.543z"/>
</svg>
