<?xml version="1.0" encoding="utf-8"?>
<!-- Generator: Adobe Illustrator 15.0.0, SVG Export Plug-In . SVG Version: 6.00 Build 0)  -->
<!DOCTYPE svg PUBLIC "-//W3C//DTD SVG 1.1//EN" "http://www.w3.org/Graphics/SVG/1.1/DTD/svg11.dtd">
<svg version="1.1" id="Layer_1" xmlns="http://www.w3.org/2000/svg" xmlns:xlink="http://www.w3.org/1999/xlink" x="0px" y="0px"
	 width="64px" height="64px" viewBox="0 0 64 64" enable-background="new 0 0 64 64" xml:space="preserve">
<path fill="#E81C27" d="M62,52c0,5.523-4.476,10-9.999,10C46.475,62,42,57.523,42,52c0-5.521,4.475-10,10.001-10
	C57.524,42,62,46.479,62,52z"/>
<path fill="#C21413" d="M58.245,44.197c1.365,1.71,2.188,3.874,2.188,6.234c0,5.522-4.476,10-9.998,10
	c-2.367,0-4.536-0.825-6.248-2.197C46.019,60.527,48.834,62,52.001,62c5.521,0,9.998-4.477,9.998-10
	C61.999,48.843,60.532,46.03,58.245,44.197z"/>
<path fill-rule="evenodd" clip-rule="evenodd" fill="#F46C60" d="M44.578,47.672c0.183,1.289,2.589-1.233,5.026-3.4
	C51.177,42.877,44.028,43.795,44.578,47.672z"/>
<rect x="41.971" y="51.285" transform="matrix(0.7071 -0.7071 0.7071 0.7071 -21.5398 52.0003)" fill="#E6EBEF" width="20.059" height="1.432"/>
<rect x="48.542" y="49.259" transform="matrix(0.7071 -0.7071 0.7071 0.7071 -20.7002 49.9746)" fill="#E6EBEF" width="2.864" height="1.432"/>
<rect x="51.58" y="46.218" transform="matrix(0.7068 -0.7074 0.7074 0.7068 -17.6586 51.2665)" fill="#E6EBEF" width="2.866" height="1.434"/>
<rect x="45.501" y="52.296" transform="matrix(0.7073 -0.7069 0.7069 0.7073 -23.7376 48.6981)" fill="#E6EBEF" width="2.868" height="1.434"/>
<rect x="52.593" y="53.31" transform="matrix(0.7071 -0.7071 0.7071 0.7071 -22.3785 54.0264)" fill="#E6EBEF" width="2.867" height="1.432"/>
<rect x="55.633" y="50.272" transform="matrix(0.7071 -0.7071 0.7071 0.7071 -19.3395 55.2848)" fill="#E6EBEF" width="2.864" height="1.431"/>
<path fill="#E6EBEF" d="M58.584,48.455l1.014,1.014l1.552-1.553c-0.202-0.452-0.432-0.896-0.706-1.32L58.584,48.455z"/>
<path fill="#E6EBEF" d="M47.915,61.151l1.553-1.552l-1.012-1.014l-1.86,1.859C47.019,60.717,47.462,60.949,47.915,61.151z"/>
<rect x="49.555" y="56.351" transform="matrix(0.7071 -0.7071 0.7071 0.7071 -25.4189 52.7681)" fill="#E6EBEF" width="2.864" height="1.432"/>
<path fill="#E6EBEF" d="M45.414,55.547l-1.012-1.014l-1.552,1.553c0.2,0.453,0.432,0.896,0.706,1.32L45.414,55.547z"/>
<path fill="#E6EBEF" d="M56.085,42.851l-1.553,1.552l1.014,1.014l1.858-1.859C56.979,43.285,56.538,43.053,56.085,42.851z"/>
<path fill="#F9B700" d="M48.716,25.602L12.6,61.72c-0.95,0.95-4.032-0.59-6.881-3.44c-2.85-2.85-4.388-5.93-3.437-6.881
	l36.114-36.117L48.716,25.602z"/>
<path fill="#E6EBEF" d="M44.418,16.141L58.558,2c0.805,0.211,1.568,0.611,2.197,1.242C61.386,3.871,61.786,4.637,62,5.438
	L47.856,19.581c-1.425,1.426-1.424,3.735,0,5.16l-8.6-8.601C40.681,17.566,42.991,17.566,44.418,16.141z"/>
<path fill="#FDCA47" d="M12.22,51.021c-0.713,0.715-2.285,1.439-3.291,1.365c-1.465-0.109-6.295-1.344-6.295-1.344l35.761-35.762
	l2.662,2.66C41.058,17.941,19.962,43.283,12.22,51.021z"/>
<path fill="#E6A400" d="M12.976,51.777c-0.712,0.715-1.438,2.287-1.363,3.293c0.107,1.465,1.342,6.294,1.342,6.294l35.761-35.763
	l-2.659-2.662C46.057,22.939,20.716,44.037,12.976,51.777z"/>
<path fill="#302C3B" d="M39.257,16.141c0.814,0.814,1.916,1.147,2.977,1.031c0.441,0.83,0.996,1.796,1.717,2.875
	c1.078,0.721,2.046,1.277,2.875,1.717c-0.115,1.062,0.217,2.164,1.031,2.978c0,0-2.364-0.796-5.625-2.976
	C40.052,18.506,39.257,16.141,39.257,16.141z"/>
<path fill="#302C3B" d="M56.839,3.719L58.558,2c0.805,0.211,1.568,0.611,2.197,1.242C61.386,3.871,61.786,4.637,62,5.438
	l-1.721,1.721c-0.212-0.804-0.613-1.567-1.245-2.197C58.405,4.332,57.642,3.932,56.839,3.719z"/>
<path fill="#BEC3CF" d="M45.978,14.581l2.709,4.171l-0.83,0.829c-0.343,0.344-0.602,0.74-0.779,1.163l-2.875-4.428
	c0.07-0.061,0.148-0.108,0.216-0.176L45.978,14.581z"/>
<polygon fill="#BEC3CF" points="56.525,4.033 59.233,8.203 57.476,9.962 54.767,5.791 "/>
<polygon fill="#BEC3CF" points="53.009,7.549 55.718,11.72 53.96,13.478 51.253,9.307 "/>
<polygon fill="#BEC3CF" points="49.493,11.066 52.2,15.237 50.444,16.994 47.735,12.824 "/>
</svg>
