<?xml version="1.0" encoding="utf-8"?>
<!-- Generator: Adobe Illustrator 15.0.0, SVG Export Plug-In . SVG Version: 6.00 Build 0)  -->
<!DOCTYPE svg PUBLIC "-//W3C//DTD SVG 1.1//EN" "http://www.w3.org/Graphics/SVG/1.1/DTD/svg11.dtd">
<svg version="1.1" id="Layer_1" xmlns="http://www.w3.org/2000/svg" xmlns:xlink="http://www.w3.org/1999/xlink" x="0px" y="0px"
	 width="64px" height="64px" viewBox="0 0 64 64" enable-background="new 0 0 64 64" xml:space="preserve">
<path fill="#E81C27" d="M41.053,39.467c-5.41-1.359-4.611-6.533-4.611-6.533L32,34.195l-4.441-1.262c0,0,0.797,5.174-4.611,6.533
	c0.697,2.613,3.098,3.475,2.043,7.186c-2.043,7.193,2.076,8.539,7.01,8.539s9.053-1.346,7.01-8.539
	C37.953,42.941,40.355,42.08,41.053,39.467z"/>
<path fill="#B88A6F" d="M36.441,32.934c0,0,0.955-1.881,3.047-2.496c0,0,4.699-4.053,8.166-11.146h2.693
	c-2.826,5.016-2.66,9.393-8.6,16.174c0.158,2.211-0.693,4.002-0.693,4.002C35.119,38.707,36.441,32.934,36.441,32.934z"/>
<path fill="#B88A6F" d="M27.559,32.934c0,0-0.953-1.881-3.045-2.496c0,0-4.701-4.053-8.168-11.146h-2.691
	c2.826,5.016,2.658,9.393,8.6,16.174c-0.158,2.211,0.693,4.002,0.693,4.002C28.881,38.707,27.559,32.934,27.559,32.934z"/>
<path fill="#302C3B" d="M32.072,46.105c-3.5,0-6.75-0.98-6.75-0.98l-0.248,1.443c0,0,3.498,2.188,6.998,2.188
	c3.498,0,6.998-2.188,6.998-2.188l-0.248-1.443C38.822,45.125,35.57,46.105,32.072,46.105z"/>
<path fill="#946346" d="M40.961,53.092c0,0-6.303,4.613-5.252-3.76c0.123-0.975,3.676-3.773,4.313-3.773L40.961,53.092z"/>
<path fill="#B88A6F" d="M37.99,57.619c0,0-0.475,2.314,4.15,0.9c1.42-5.953,2.584-5.125,3.422-9.391c0,0-2.732-3.072-6.035,0.629
	C37.516,53.42,40.07,54.807,37.99,57.619z"/>
<path fill="#302C3B" d="M36.58,62c-0.225-2.59,1.41-4.381,1.41-4.381c-0.053,1.451,4.15,0.9,4.15,0.9
	c4.965,0.969,4.414,2.625,3.875,3.48H36.58z"/>
<path fill="#E6EBEF" d="M39.527,49.758c0,0,3.219-2.584,6.035-0.629c0,0,0.41-5.572-5.541-3.57
	C39.129,45.859,38.871,49.482,39.527,49.758z"/>
<path fill="#946346" d="M23.039,53.092c0,0,6.303,4.613,5.252-3.76c-0.121-0.975-3.674-3.773-4.311-3.773L23.039,53.092z"/>
<path fill="#B88A6F" d="M26.01,57.619c0,0,0.477,2.314-4.148,0.9c-1.42-5.953-2.584-5.125-3.424-9.391c0,0,2.734-3.072,6.035,0.629
	C26.486,53.42,23.93,54.807,26.01,57.619z"/>
<path fill="#302C3B" d="M27.422,62c0.223-2.59-1.412-4.381-1.412-4.381c0.053,1.451-4.148,0.9-4.148,0.9
	c-4.967,0.969-4.416,2.625-3.875,3.48H27.422z"/>
<path fill="#E6EBEF" d="M24.473,49.758c0,0-3.217-2.584-6.035-0.629c0,0-0.41-5.572,5.543-3.57
	C24.873,45.859,25.131,49.482,24.473,49.758z"/>
<rect x="60" y="15" fill="#99A8AE" width="2" height="4"/>
<rect x="52" y="14" fill="#6E8189" width="1" height="6"/>
<rect x="53" y="8" fill="#302C3B" width="5" height="18"/>
<rect x="58" y="14" fill="#6E8189" width="2" height="6"/>
<rect x="58.5" y="13" fill="#302C3B" width="1" height="2"/>
<rect x="2" y="15" fill="#99A8AE" width="2" height="4"/>
<rect x="11" y="14" fill="#6E8189" width="1" height="6"/>
<rect x="6" y="8" fill="#302C3B" width="5" height="18"/>
<rect x="4" y="14" fill="#6E8189" width="2" height="6"/>
<rect x="4.5" y="13" fill="#302C3B" width="1" height="2"/>
<rect x="12" y="16" fill="#99A8AE" width="40" height="2"/>
<path fill="#B88A6F" d="M51,18c0.035,2.225-3.881,3.074-4,0H51z"/>
<path fill="#B88A6F" d="M13,18c-0.033,2.225,3.883,3.074,4,0H13z"/>
<path fill="#B88A6F" d="M13.631,16.967c0,0,0.725,1.068,1.26,0.182c0,0,1.016,0.793,1.109-0.234C16.957,17.574,17.035,16,17.035,16
	h1.193c0,0,0.348-0.705-1.111-0.461c0,0,0.029-0.945-1.107-0.619c0.068-0.662-1.172-0.342-1.172-0.342
	c-1.324-0.234-1.305,0.402-1.305,0.402C12.273,14.982,12.531,17.875,13.631,16.967z"/>
<path fill="#B88A6F" d="M50.369,16.967c0,0-0.725,1.068-1.26,0.182c0,0-1.014,0.793-1.109-0.234C47.043,17.574,46.965,16,46.965,16
	h-1.191c0,0-0.35-0.705,1.109-0.461c0,0-0.029-0.945,1.107-0.619c-0.066-0.662,1.172-0.344,1.172-0.344
	c1.326-0.232,1.305,0.404,1.305,0.404C51.729,14.982,51.471,17.875,50.369,16.967z"/>
<path fill="#946346" d="M35.236,33.754c0,1.635-6.471,1.635-6.471,0c0-0.787,0-3.025,0-3.025h6.471
	C35.236,30.729,35.236,33.045,35.236,33.754z"/>
<path fill="#875B49" d="M32.002,18.52c-6.512,0-6.514,3.918-6.514,8.818h13.025C38.514,22.438,38.514,18.52,32.002,18.52z"/>
<path fill="#B07E61" d="M26.781,29.242c0.705-0.656,0.064-3.233-0.846-3.388C23.992,25.521,25.258,30.659,26.781,29.242z"/>
<path fill="#B07E61" d="M37.223,29.242c-0.707-0.656-0.066-3.233,0.844-3.388C40.01,25.521,38.744,30.659,37.223,29.242z"/>
<path fill="#B88A6F" d="M32.002,21.132c-6.805,0-4.063,0.788-5.879,4.785c0,0,0.014,1.832,0.395,3.798
	c0.49,2.534,3.342,4.48,5.484,4.48s4.994-1.946,5.484-4.48c0.381-1.966,0.393-3.798,0.393-3.798
	C36.064,21.92,38.805,21.132,32.002,21.132z"/>
<path fill="#F5F5F5" d="M36.834,26.493c-0.629,1.639-3.188,1.399-3.656,0.253C33.533,24.904,36.488,24.746,36.834,26.493z"/>
<path fill="#45332C" d="M33.83,26.319c0,1.445,2.09,1.445,2.09,0C35.92,24.977,33.83,24.977,33.83,26.319z"/>
<path fill="#45332C" d="M36.834,26.481c0-1.76-3.656-1.76-3.656,0.278C33.699,25.088,36.313,25.088,36.834,26.481z"/>
<path fill="#F5F5F5" d="M27.168,26.493c0.629,1.639,3.189,1.399,3.656,0.253C30.469,24.904,27.514,24.746,27.168,26.493z"/>
<path fill="#45332C" d="M30.172,26.319c0,1.445-2.09,1.445-2.09,0C28.082,24.977,30.172,24.977,30.172,26.319z"/>
<path fill="#45332C" d="M27.168,26.481c0-1.759,3.656-1.759,3.656,0.278C30.303,25.088,27.689,25.088,27.168,26.481z"/>
<path fill="#946346" d="M36.695,24.875c-1.123-0.462-2.66-0.554-3.449-0.245c-0.166,0.065-0.16,0.464-0.014,0.423
	c1.131-0.308,2.434-0.332,3.506,0.041C36.881,25.146,36.863,24.945,36.695,24.875z"/>
<path fill="#946346" d="M27.307,24.875c1.123-0.462,2.66-0.554,3.449-0.245c0.166,0.065,0.16,0.464,0.014,0.423
	c-1.131-0.308-2.434-0.332-3.504,0.041C27.121,25.146,27.139,24.945,27.307,24.875z"/>
<path fill="#875B49" d="M37.203,20.532c2.426,3.328-8.836,2.459-11.18,1.974C26.023,22.506,29.465,17.813,37.203,20.532z"/>
<path fill="#6B4435" d="M26.023,22.506c3.365,0.708,13.652,0.609,10.414-2.899C41.717,23.818,28.873,24.193,26.023,22.506z"/>
<path fill="#946346" d="M33.309,29c0,0.85-2.613,0.85-2.613,0C30.695,28.805,33.309,28.805,33.309,29z"/>
<path fill="#45332C" d="M34.467,31.093c-0.27-0.432-0.924-0.721-2.467-0.721c-1.541,0-2.195,0.289-2.467,0.721
	c-0.143,0.229,0.064,0.601,0.064,0.601c0.256,0.467,0.221,0.601,2.402,0.601s2.148-0.134,2.406-0.601
	C34.406,31.694,34.613,31.323,34.467,31.093z"/>
<path fill="#FFFFFF" d="M33.924,31.091c0.012-0.065-0.023-0.147-0.074-0.18c0,0-0.469-0.3-1.85-0.3c-1.377,0-1.846,0.3-1.846,0.3
	c-0.055,0.032-0.086,0.115-0.074,0.18l0.023,0.125c0.012,0.065,0.072,0.117,0.133,0.117h3.529c0.061,0,0.121-0.052,0.133-0.117
	L33.924,31.091z"/>
<path fill="#FFFFFF" d="M32,32.056c0.756,0,1.832,0,1.803-0.249c-0.004-0.044-0.018-0.095-0.033-0.153
	c-0.018-0.063-0.033-0.081-0.164-0.081c-0.283,0-2.992,0-3.211,0c-0.129,0-0.145,0.017-0.162,0.081
	c-0.016,0.058-0.029,0.109-0.033,0.153C30.17,32.056,31.244,32.056,32,32.056z"/>
</svg>
