<?xml version="1.0" encoding="utf-8"?>
<!-- Generator: Adobe Illustrator 16.2.0, SVG Export Plug-In . SVG Version: 6.00 Build 0)  -->
<!DOCTYPE svg PUBLIC "-//W3C//DTD SVG 1.1//EN" "http://www.w3.org/Graphics/SVG/1.1/DTD/svg11.dtd">
<svg version="1.1" id="Layer_1" xmlns="http://www.w3.org/2000/svg" xmlns:xlink="http://www.w3.org/1999/xlink" x="0px" y="0px"
	 width="64px" height="64px" viewBox="0 0 64 64" enable-background="new 0 0 64 64" xml:space="preserve">
<polygon fill="#C21413" points="59,46 59,51 57,53 56,53 56,46 "/>
<polygon fill="#302C3B" points="62,40 62,46 60,48 55,48 55,40 "/>
<path fill="#B00505" d="M28,48c-2,0-3-1-3-1L2,58h50V48H28z"/>
<path fill="#E81C27" d="M44,39c-0.729-0.729-4-1-4-1s0,2.125,0,4.5c0,3.75-4.477,4.5-6,4.5c-3.25,0-4,0-6,0s-3-1-3-1
	s-1.415,1.473-3,2c-6,2-20,7-20,10c0,0,11-6,23-6c10,0,9-4,27-4c0,0-0.762-0.221-4.629-2.259C44.718,44.343,45.174,40.174,44,39z"/>
<polygon fill="#302C3B" points="9,56 2,58 3,60 10,60 "/>
<path fill="#E81C27" d="M45,51c-15.942,3.844,0,0-15.942,3.844C27.07,55.376,27,59,27,59h18c-0.654-1.02-1.029-2.652-1.029-4.156
	C43.971,53.465,44.439,52.164,45,51z"/>
<path fill="#F89987" d="M28.067,50.997C28.015,50.998,27.951,51,28.06,51c5.491,0,8.101-3.438,19.94-3.438
	C41.127,45.646,33.732,49.08,28.067,50.997z"/>
<path fill="#282433" d="M10,54.999C10,58.867,13.131,62,16.998,62C20.867,62,24,58.867,24,54.999S20.867,48,16.998,48
	C13.131,48,10,51.131,10,54.999z"/>
<path fill="#FAFAFA" d="M12.624,54.999c0,2.415,1.959,4.375,4.374,4.375c2.42,0,4.376-1.96,4.376-4.375s-1.956-4.375-4.376-4.375
	C14.583,50.624,12.624,52.584,12.624,54.999z"/>
<path fill="#AFBBC1" d="M13.5,55c0,1.934,1.568,3.5,3.499,3.5c1.936,0,3.501-1.566,3.501-3.5c0-1.932-1.565-3.5-3.501-3.5
	C15.068,51.5,13.5,53.068,13.5,55z"/>
<path fill="#71858C" d="M15.25,55c0,0.965,0.784,1.749,1.749,1.749c0.968,0,1.751-0.784,1.751-1.749s-0.783-1.751-1.751-1.751
	C16.034,53.249,15.25,54.035,15.25,55z"/>
<path fill="#282433" d="M16.125,55c0,0.484,0.393,0.874,0.874,0.874c0.487,0,0.876-0.39,0.876-0.874
	c0-0.482-0.389-0.876-0.876-0.876C16.518,54.124,16.125,54.518,16.125,55z"/>
<path fill="#282433" d="M45,54.999C45,58.867,48.131,62,51.998,62C55.867,62,59,58.867,59,54.999S55.867,48,51.998,48
	C48.131,48,45,51.131,45,54.999z"/>
<path fill="#FAFAFA" d="M47.624,54.999c0,2.415,1.96,4.375,4.374,4.375c2.42,0,4.376-1.96,4.376-4.375s-1.956-4.375-4.376-4.375
	C49.584,50.624,47.624,52.584,47.624,54.999z"/>
<path fill="#AFBBC1" d="M48.5,55c0,1.934,1.568,3.5,3.499,3.5c1.937,0,3.501-1.566,3.501-3.5c0-1.932-1.564-3.5-3.501-3.5
	C50.068,51.5,48.5,53.068,48.5,55z"/>
<path fill="#71858C" d="M50.25,55c0,0.965,0.783,1.749,1.749,1.749c0.968,0,1.751-0.784,1.751-1.749s-0.783-1.751-1.751-1.751
	C51.033,53.249,50.25,54.035,50.25,55z"/>
<path fill="#282433" d="M51.125,55c0,0.484,0.393,0.874,0.874,0.874c0.487,0,0.876-0.39,0.876-0.874
	c0-0.482-0.389-0.876-0.876-0.876C51.518,54.124,51.125,54.518,51.125,55z"/>
</svg>
