<?xml version="1.0" encoding="utf-8"?>
<!-- Generator: Adobe Illustrator 15.0.0, SVG Export Plug-In . SVG Version: 6.00 Build 0)  -->
<!DOCTYPE svg PUBLIC "-//W3C//DTD SVG 1.1//EN" "http://www.w3.org/Graphics/SVG/1.1/DTD/svg11.dtd">
<svg version="1.1" id="Layer_1" xmlns="http://www.w3.org/2000/svg" xmlns:xlink="http://www.w3.org/1999/xlink" x="0px" y="0px"
	 width="64px" height="64px" viewBox="0 0 64 64" enable-background="new 0 0 64 64" xml:space="preserve">
<path fill="#594640" d="M40.699,30.725c0.033-1.887-1.016-3.078-4.203-3.053c-7.695,0.064-7.713-9.307-2.395-9.742l0.672,2.311
	c-1.705,0.824-0.998,3.299,2.311,3.467C40.496,23.881,42.889,26.639,40.699,30.725z"/>
<path fill="#8E3ED6" d="M32.781,17.441c0.688-2.012,7.035,1.422,3.801,2.836C34.764,21.07,32.344,18.717,32.781,17.441z"/>
<path fill="#DBA97F" d="M50.803,6.754c-0.33-3.264-2.066-4.709-3.885-4.063c0,0-0.646-0.371-1.139-0.014
	C45,3.244,45.918,5.031,45.918,5.031c-0.848,0.131-1.066,0.982,1.451,2.752c1.982,1.393,2.32,3.08,3.123,5.631
	c-0.953,0.836-2.891,2.543-4.504,5.141c-0.705,1.139,2.049,4.482,3.184,2.998c1.314-1.721,5.898-5.826,6.156-7.85
	C55.609,11.523,50.803,6.754,50.803,6.754z"/>
<polygon fill="#6E8189" points="7.82,21.176 37.891,7.979 38.324,8.865 8.246,22.07 "/>
<path fill="#302C3B" d="M51.375,2.037c0.697-0.305,1.588,1.363,0.9,1.666l-15.691,6.881c-0.682,0.301-1.59-1.369-0.896-1.668
	L51.375,2.037z"/>
<path fill="#99A8AE" d="M7.002,22.74c-0.037,1.549,0.523,5.693,1.512,6.059c0.986,0.365,7.229-2.889,3.203-6.533
	C8.914,19.734,7.057,20.965,7.002,22.74z"/>
<path fill="#594640" d="M49.725,57.318c0,0-2.592,4.682,1.977,4.682c5.088,0,4.268-2.514,4.35-4.682H49.725z"/>
<path fill="#594640" d="M33.375,55.131c0,0-5.748,6.869,0.631,6.869s3.104-2.787,4.047-6.197L33.375,55.131z"/>
<path fill="#99A8AE" d="M43.551,36.436c2.791-1.701,12.947-2.082,12.947-2.082c1.559,11.027-1.117,14.256,0,23.338h-7.447
	c0.934-6.963,0.854-15.998,0.854-15.998s-3.316,6.242-4.482,7.82c-1.367,1.854-7.344,7.805-7.344,7.805l-5.752-1.836
	c0,0,5.316-6.217,6.172-8.246C39.438,44.982,42.502,37.629,43.551,36.436z"/>
<path fill="#8E3ED6" d="M43.32,36.746l13.178-2.393c-0.33-4.219-3.873-7.01-3.748-7.969c0.432-3.309,0.084-4.426-4.197-4.701
	c-2.115-0.137-9.082-0.287-8.881,1.084C40.045,25.301,46.598,28.426,43.32,36.746z"/>
<path fill="#DBA97F" d="M39.672,22.768c2.006-0.697,4.398-0.283,6.064-0.697l-1.25-4.207l-7.354,1.971L39.672,22.768z"/>
<path fill="#FCD5B2" d="M32.602,15.238c0.803-1.172,10.426-8.359,10.426-8.359s1.855,2.928,3.014,5.857
	c1.373,3.48,0.031,7.41-2.146,8.383c-2.164,0.969-7.383,0.965-9.016-2.254C34.289,20.252,29.496,14.982,32.602,15.238z"/>
<path fill="#FCD5B2" d="M52.268,6.885c-0.203-3.275-1.879-4.781-3.725-4.201c0,0-0.631-0.396-1.137-0.057
	c-0.801,0.539,0.045,2.357,0.045,2.357c-0.852,0.102-1.104,0.941,1.342,2.803c1.926,1.463,2.195,3.162,2.9,5.74
	c-0.988,0.801-2.99,2.438-4.705,4.973c-0.752,1.113,1.873,4.555,3.063,3.111c1.383-1.672,6.127-5.607,6.461-7.619
	C56.879,11.822,52.268,6.885,52.268,6.885z"/>
<path fill="#5D1E96" d="M46.176,26.154c-2.785,1.875-5.463-1.6-3.764-3.633c1.568-1.869,4.18-4.244,4.18-4.244
	c1.816,2.32,3.748,3.682,3.748,3.682S47.822,25.047,46.176,26.154z"/>
<path fill="#594640" d="M33.754,16.07c0-0.986,1.117-3.811-1.744-2.402C29.42,14.943,33.754,17.313,33.754,16.07z"/>
<path fill="#F5F5F5" d="M44.883,11.084c0.137,1.961-2.572,2.926-3.59,1.986C40.785,11.033,43.705,9.479,44.883,11.084z"/>
<path fill="#45332C" d="M41.754,12.328c0.684,1.467,2.803,0.479,2.119-0.988C43.238,9.98,41.119,10.969,41.754,12.328z"/>
<path fill="#45332C" d="M44.877,11.074c-0.832-1.785-4.539-0.055-3.576,2.01C41.041,11.143,43.688,9.908,44.877,11.074z"/>
<path fill="#F5F5F5" d="M35.084,15.654c1.412,1.363,3.893-0.09,3.828-1.473C37.68,12.482,34.609,13.719,35.084,15.654z"/>
<path fill="#45332C" d="M38.047,14.057c0.684,1.465-1.436,2.453-2.119,0.988C35.295,13.686,37.412,12.697,38.047,14.057z"/>
<path fill="#45332C" d="M35.078,15.643c-0.83-1.783,2.877-3.512,3.84-1.447C37.598,12.748,34.949,13.982,35.078,15.643z"/>
<path fill="#CC9D76" d="M44.617,16.395c-0.234,0.795-0.08,1.939-1.92,2.797c-1.604,0.748-2.455,0.074-3.375-0.326L44.617,16.395z"/>
<path fill="#FFFFFF" d="M44.295,16.566c-0.57,1.625-3.004,2.777-4.635,2.16L44.295,16.566z"/>
<path fill="#CC9D76" d="M41.928,17.539c-1.25,0.029-1.055,0.471-2.605,1.326c2.129-0.717,3.377-1.299,5.295-2.471
	C42.965,17.035,42.754,16.602,41.928,17.539z"/>
<path fill="#DBA97F" d="M43.91,9.59c-1.338,0.061-2.916,0.688-3.563,1.363c-0.135,0.143,0.055,0.539,0.184,0.432
	c0.988-0.836,2.279-1.467,3.523-1.596C44.223,9.773,44.111,9.58,43.91,9.59z"/>
<path fill="#DBA97F" d="M34.523,13.969c0.906-0.986,2.4-1.793,3.334-1.854c0.197-0.012,0.377,0.389,0.211,0.418
	c-1.275,0.219-2.588,0.803-3.486,1.674C34.463,14.324,34.387,14.117,34.523,13.969z"/>
<path fill="#DBA97F" d="M42.545,15.408c0.398,0.852-2.215,2.07-2.611,1.219C39.842,16.432,42.455,15.213,42.545,15.408z"/>
<path fill="#99A8AE" d="M44.215,7.594c-3.201-5.352-6.641-4.883-9.893-3.648c-3.295,1.248-6.988,4.717-2.867,11.486
	C31.455,15.432,34.742,6.76,44.215,7.594z"/>
<path fill="#BEC3CF" d="M46.658,9.715c1.375,0.209-1.164-4.049-8.072-1.855c-6.051,1.922-7.131,7.572-7.131,7.572
	C39.51,15.223,37.16,8.256,46.658,9.715z"/>
</svg>
