<?xml version="1.0" encoding="utf-8"?>
<!-- Generator: Adobe Illustrator 15.0.0, SVG Export Plug-In . SVG Version: 6.00 Build 0)  -->
<!DOCTYPE svg PUBLIC "-//W3C//DTD SVG 1.1//EN" "http://www.w3.org/Graphics/SVG/1.1/DTD/svg11.dtd">
<svg version="1.1" id="Layer_1" xmlns="http://www.w3.org/2000/svg" xmlns:xlink="http://www.w3.org/1999/xlink" x="0px" y="0px"
	 width="64px" height="64px" viewBox="0 0 64 64" enable-background="new 0 0 64 64" xml:space="preserve">
<path fill="#018BC9" d="M62,7.018C56.932,21.443,27.334,44.903,2,46.351v15.648h60V7.018z"/>
<path fill="#0FB4D4" d="M2,61.999h60V23.807C48.641,41.132,23.597,51.972,2,52.017V61.999z"/>
<path fill="#75D6FF" d="M62,35.219C54.58,49.722,24.33,58.53,2,57.351v4.648h60V35.219z"/>
<path fill="#018BC9" d="M52.32,58.569c4.406,1.324,1.479-2.74,5.166-2.25c5.686,0.756-0.043-3.031,2.709-4.426
	c5.938-3.01-4.848-1.543-2.834-4.283c2.012-2.738-4.77,0.379-5.916-1.334c-2.779-4.148-2.404,2.572-5.557,1.543
	C38.363,45.362,42.938,55.747,52.32,58.569z"/>
<path fill="#D9F1F7" d="M51.787,57.985c4.023,1.211,1.352-2.502,4.717-2.055c5.191,0.691-0.039-2.766,2.473-4.039
	c5.42-2.748-4.424-1.408-2.588-3.91c1.838-2.5-4.354,0.346-5.4-1.217c-2.537-3.789-2.193,2.346-5.072,1.406
	C39.045,45.929,43.223,55.411,51.787,57.985z"/>
<path fill="#FCD5B2" d="M59.889,26.908c2.758-0.17-0.486-1.166-0.486-1.166c-0.229-0.703-2.523-0.514-5.066,0
	c-2.398,0.482-4.256-0.68-6.396-0.643l-10.012-4.396c0,0-0.744,0.059-0.453-2.033l-3.408-0.645
	c-0.775,2.307-2.451,1.863-2.451,1.863l-7.916,3.475c-0.844,1.002-3.734,4.117-3.892,4.9c-0.425,2.107-0.407,6.26-0.573,7.377
	c-0.305,2.064-0.064,4.434,0.585,5.737c1.312,2.631,0.374-2.788,1.511-3.284c0.718,3.544,1.592,0.654,0.24-2.123
	c-0.612-1.26,0.629-4.529,0.955-6.275c2.76-2.215,4.342-4.148,4.342-4.148l10.316-0.686c0,0,7.215,2.402,9.725,2.889
	c2.736,0.617,7.621-0.201,7.621-0.201c4.115,0.713,4.439,0.611,2.762-0.213C57.258,27,58.494,26.992,59.889,26.908z"/>
<path fill="#8E3ED6" d="M43.189,22.568c-1.844-0.477-3.139-1.756-5.262-1.865c0.064,1.627-1.092,2.799-3.248,2.621
	c-1.918-0.16-3.313-2.166-3.064-3.436c-4.541-0.184-4.832,0.219-8.207,3.436c0.86,1.799,2.84,3.686,2.84,3.686
	s0.473-0.412,1.421-0.709c-0.131,2.65-0.229,3.76-1.537,7.387c0,0,10.474,0.5,10.474,0.48c0.381-1.969,0.934-3.523,1.326-3.674
	c1.813-0.693,2.414-2.287,2.328-4.174c0,0,0.664,0.223,1.363,0.52C41.623,26.84,42.85,24.217,43.189,22.568z"/>
<path fill-rule="evenodd" clip-rule="evenodd" fill="#B00505" d="M16.812,59.829C14.217,59.698,3,59.374,3,57.411
	c0-0.799,3.789-2.475,8.376-3.705c20.731-5.566,41.063-5.889,41.063-4.605c0,0.639-0.779,1.635,0,2.34
	c2.248,2.035,5.229,2.068,5.229,2.18C57.668,55.831,40.227,61.001,16.812,59.829z"/>
<path fill="#E81C27" d="M52.439,51.44c-0.42-0.381-0.385-0.844-0.268-1.291c-5.797,0.756-37.65,4.898-47.76,6.076
	C3.523,56.696,3,57.114,3,57.411c0,0.371,0.4,0.684,1.068,0.947l50.512-5.564C53.867,52.487,53.121,52.058,52.439,51.44z"/>
<path fill-rule="evenodd" clip-rule="evenodd" fill="#8E3ED6" d="M36.795,34.434c0,0,0.225,0.574,0.623,0.975
	c3.178,0.51,6.822,2.254,8.553,3.26c0.996,0.58-1.643,6.642-3,6.243c-3.875-1.141-6.574-4.348-7.594-3.58
	c-0.68,0.514,0.344,1.832-1.156,3.785c-1.094,1.424-4.26,2.316-6.375,0.016c-0.713-0.773-0.057-4.879-0.719-5.702
	c-0.931-1.16-2.469-2.822-1.198-5.5L36.795,34.434z"/>
<path fill-rule="evenodd" clip-rule="evenodd" fill="#60117D" d="M34.648,43.54c-1.033,3.996-6.695,3.525-6.674,1.051
	c0.015-1.545,0.531-4.232,3.426-4.287C33.861,40.255,35.139,41.649,34.648,43.54z"/>
<path fill-rule="evenodd" clip-rule="evenodd" fill="#60117D" d="M42.477,43.851c-0.484-2.799,0.996-5.903,2.709-5.341
	C47.658,39.322,43.021,47.001,42.477,43.851z"/>
<path fill-rule="evenodd" clip-rule="evenodd" fill="#FCD5B2" d="M34.27,44.157c1.732-3.605-4.636-5.376-5.737-1.314
	c-1.095,4.037-0.946,5.994-1.167,8.154c-0.118,1.16-1.166,1.936-0.967,2.381c0.631,1.418,0.639,3.611,1.2,4
	c0.659,0.457,4.099-0.225,4.19-0.678c0.244-1.184-1.982-2.58-1.381-5.254C30.927,49.142,33.088,46.608,34.27,44.157z"/>
<path fill-rule="evenodd" clip-rule="evenodd" fill="#FCD5B2" d="M50.453,41.813c-0.027-0.818-2.672-2.571-5.652-3.304
	c-1.688,0.365-2.541,4.187-2.111,4.743c0.861,0.961,2.781,1.117,2.781,1.117c-1.457,1.637,0.287,3.125-0.326,5.924
	c-0.404,1.832-0.346,3.398,1.098,4.361c0.672,0.449,4.51-0.42,4.215-1.102c-0.604-1.396-2.355-2.568-2.42-3.719
	C47.881,47.007,50.578,45.462,50.453,41.813z"/>
<path fill-rule="evenodd" clip-rule="evenodd" fill="#FFE463" d="M37.043,34.918c-3.621,0.744-9.375-1.131-11.11-0.852
	c-0.347,0.057-0.01-1.299,0.341-1.303c3.918-0.02,6.857,1.166,10.371,1.008C36.965,33.758,37.418,34.84,37.043,34.918z"/>
<path fill="#018BC9" d="M56.977,44.429c-0.783-1.078,2.453-3.43,3.236-2.352S57.76,45.507,56.977,44.429z"/>
<path fill="#018BC9" d="M48.48,59.03c0.645-1.166,4.145,0.77,3.5,1.938C51.336,62.134,47.836,60.198,48.48,59.03z"/>
<path fill="#018BC9" d="M52.811,42.521c-0.793-0.279,0.047-2.659,0.842-2.38C54.445,40.419,53.605,42.8,52.811,42.521z"/>
<path fill="#FFE463" d="M32,23.979c0,0,2.074,1.846,2.656,4.563c2.689-1.943,3.105-4.346,3.105-4.346
	C35.158,24.996,32,23.979,32,23.979z"/>
<path fill="#594640" d="M21.313,12.974c1.844-0.164,2.895-1.312,2.535-4.417c-0.867-7.494,8.266-8.493,9.249-3.354L30.912,6.1
	c-0.979-1.575-3.319-0.626-3.137,2.614C27.963,12.06,25.525,14.681,21.313,12.974z"/>
<path fill="#8E3ED6" d="M34.182,5.341c1.094,1.338-4.08,4.122-3.639,1.326C30.791,5.099,33.488,4.49,34.182,5.341z"/>
<path fill="#594640" d="M36.382,4.888c4.743,0.416,6.636,3.668,6.706,7.818c0.037,2.203-0.605,3.729-2.537,4.869
	c-2.275,1.344-8.469,0.802-10.477-0.917c-1.704-1.458-2.072-3.073-1.653-5.235c1.207-6.225,4.44-5.504,4.44-5.504
	S33.259,4.615,36.382,4.888z"/>
<path fill="#F2C198" d="M40.506,15.913c-0.068-3.568,0.933-4.225,1.994-1.568C42.219,15.569,41.311,16.808,40.506,15.913z"/>
<path fill="#F2C198" d="M30.406,15.03c0.26-3.716,0.529-4.559-1.65-2.625C28.514,13.743,29.265,15.92,30.406,15.03z"/>
<path fill="#FCD5B2" d="M29.734,11.546c4.785-2.436,3.889-4.047,3.889-4.047c5.105,3.432,8.134,5.105,8.134,5.105
	s-0.175,2.023-0.745,4.043c-0.555,1.973-3.953,4.372-6.025,4.191c-2.072-0.182-5.002-3.135-5.207-5.174
	C29.57,13.577,29.734,11.546,29.734,11.546z"/>
<path fill="#422F2A" d="M42.499,14.349c-1.442-3.258-8.374-3.703-9.124-7.492C37.271,10.708,42.254,10.873,42.499,14.349z"/>
<path fill="#422F2A" d="M28.756,12.405c2.895-1.965,7.062-3.101,4.619-5.549C33.939,9.735,30.73,9.753,28.756,12.405z"/>
<path fill="#F5F5F5" d="M30.73,13.101c0.488,1.703,3.082,1.687,3.654,0.575C34.189,11.792,31.232,11.373,30.73,13.101z"/>
<path fill="#45332C" d="M33.767,13.188c-0.126,1.454-2.229,1.27-2.103-0.184C31.783,11.655,33.885,11.84,33.767,13.188z"/>
<path fill="#45332C" d="M30.73,13.089c0.155-1.771,3.834-1.448,3.654,0.601C34.006,11.963,31.379,11.733,30.73,13.089z"/>
<path fill="#F5F5F5" d="M40.449,13.951c-0.776,1.593-3.329,1.126-3.699-0.068C37.27,12.062,40.256,12.163,40.449,13.951z"/>
<path fill="#45332C" d="M37.443,13.511c-0.127,1.454,1.975,1.637,2.103,0.184C39.664,12.346,37.563,12.162,37.443,13.511z"/>
<path fill="#45332C" d="M40.451,13.938c0.154-1.769-3.523-2.09-3.703-0.042C37.42,12.262,40.048,12.492,40.451,13.938z"/>
<path fill="#CC9D76" d="M32.594,17.521c0.445,0.604,0.667,1.62,2.492,1.779c1.59,0.14,2.104-0.693,2.761-1.318L32.594,17.521z"/>
<path fill="#FFFFFF" d="M32.92,17.566c0.984,1.203,3.404,1.431,4.598,0.402L32.92,17.566z"/>
<path fill="#CC9D76" d="M35.229,17.662c1.068-0.362,1.038,0.073,2.619,0.319c-2.027,0.05-3.268-0.059-5.254-0.46
	C34.192,17.554,34.238,17.121,35.229,17.662z"/>
<path fill="#DBA97F" d="M31.092,11.532c1.154-0.361,2.687-0.317,3.442,0.057c0.16,0.079,0.12,0.474-0.022,0.422
	c-1.096-0.404-2.386-0.541-3.48-0.264C30.884,11.784,30.918,11.586,31.092,11.532z"/>
<path fill="#DBA97F" d="M40.406,12.347c-1.074-0.556-2.59-0.779-3.4-0.541c-0.17,0.05-0.2,0.445-0.051,0.419
	c1.149-0.208,2.443-0.118,3.473,0.345C40.567,12.632,40.567,12.43,40.406,12.347z"/>
<path fill="#DBA97F" d="M34.045,16.046c-0.073,0.844,2.52,1.07,2.594,0.227C36.654,16.079,34.063,15.853,34.045,16.046z"/>
</svg>
