<?xml version="1.0" encoding="utf-8"?>
<!-- Generator: Adobe Illustrator 15.0.0, SVG Export Plug-In . SVG Version: 6.00 Build 0)  -->
<!DOCTYPE svg PUBLIC "-//W3C//DTD SVG 1.1//EN" "http://www.w3.org/Graphics/SVG/1.1/DTD/svg11.dtd">
<svg version="1.1" id="Layer_1" xmlns="http://www.w3.org/2000/svg" xmlns:xlink="http://www.w3.org/1999/xlink" x="0px" y="0px"
	 width="64px" height="64px" viewBox="0 0 64 64" enable-background="new 0 0 64 64" xml:space="preserve">
<g>
	<path fill="#AB5C10" d="M58.288,5.71c-5.439-5.444-25.625-6.984-42.809,10.209C-1.713,33.105,0.513,52.602,5.957,58.045
		c5.441,5.441,24.936,7.666,42.124-9.522C65.266,31.331,63.739,11.156,58.288,5.71z"/>
	<path opacity="0.15" fill="#FFFFFF" d="M55.695,5.3c-4.774-4.779-22.757-5.868-38.327,9.711C1.792,30.583,3.501,47.941,8.28,52.72
		c4.777,4.776,22.133,6.485,37.708-9.09C61.557,28.054,60.481,10.079,55.695,5.3z"/>
	<path opacity="0.15" fill="#FFFFFF" d="M51.813,5.79c-4.084-4.087-19.529-4.958-32.958,8.479
		C5.419,27.701,6.826,42.605,10.915,46.691c4.086,4.086,18.989,5.493,32.422-7.94C56.768,25.315,55.907,9.879,51.813,5.79z"/>
	<path opacity="0.5" fill="#AB5C10" d="M5.882,57.366c-0.088-1.606,0.28-3.216,0.766-4.749c0.489-1.539,1.114-3.033,1.796-4.494
		c1.406-2.904,3.065-5.675,4.867-8.342c3.599-5.342,7.738-10.292,12.188-14.938c4.486-4.605,9.298-8.929,14.619-12.59
		c2.656-1.829,5.447-3.485,8.406-4.796c1.488-0.636,3.014-1.19,4.584-1.582c1.563-0.401,3.185-0.619,4.786-0.521
		c-3.2,0.25-6.188,1.451-8.961,2.946c-2.793,1.479-5.414,3.267-7.943,5.163c-5.039,3.832-9.716,8.142-14.117,12.707
		c-4.415,4.556-8.558,9.384-12.35,14.469c-1.878,2.555-3.679,5.17-5.255,7.918c-0.797,1.369-1.534,2.773-2.149,4.234
		C6.528,54.253,6.002,55.768,5.882,57.366z"/>
	<g>
		<g>
			<g>
				<path fill="#594640" d="M33.08,14.832c2.186,1.874,2.925,2.606,4.795,4.795c0.863,1.075,2.6-0.205,1.663-1.369
					c-1.986-2.321-2.768-3.103-5.087-5.089C33.286,12.235,32.005,13.969,33.08,14.832L33.08,14.832z"/>
			</g>
			<g>
				<path fill="#594640" d="M27.747,18.695c2.146,1.916,3.614,3.384,5.529,5.53c0.905,1.043,2.563-0.333,1.612-1.425
					c-1.979-2.221-3.499-3.738-5.715-5.72C28.081,16.132,26.701,17.79,27.747,18.695L27.747,18.695z"/>
			</g>
			<g>
				<g>
					<path fill="#594640" d="M22.854,23.051c2.031,2.03,3.766,3.765,5.797,5.798c0.982,0.98,2.505-0.541,1.522-1.524
						c-2.031-2.031-3.766-3.766-5.797-5.799C23.396,20.547,21.872,22.07,22.854,23.051L22.854,23.051z"/>
				</g>
			</g>
			<g>
				<path fill="#594640" d="M18.409,27.845c1.98,2.22,3.498,3.737,5.718,5.718c1.091,0.948,2.468-0.708,1.426-1.615
					c-2.146-1.917-3.616-3.384-5.529-5.531C19.12,25.373,17.458,26.753,18.409,27.845L18.409,27.845z"/>
			</g>
			<g>
				<path fill="#594640" d="M14.496,33.125c1.987,2.319,2.768,3.1,5.087,5.088c1.168,0.934,2.446-0.8,1.372-1.663
					c-2.188-1.873-2.922-2.611-4.797-4.797C15.298,30.678,13.563,31.96,14.496,33.125L14.496,33.125z"/>
			</g>
		</g>
	</g>
</g>
</svg>
