<?xml version="1.0" encoding="utf-8"?>
<!-- Generator: Adobe Illustrator 15.0.0, SVG Export Plug-In . SVG Version: 6.00 Build 0)  -->
<!DOCTYPE svg PUBLIC "-//W3C//DTD SVG 1.1//EN" "http://www.w3.org/Graphics/SVG/1.1/DTD/svg11.dtd">
<svg version="1.1" id="Layer_1" xmlns="http://www.w3.org/2000/svg" xmlns:xlink="http://www.w3.org/1999/xlink" x="0px" y="0px"
	 width="64px" height="64px" viewBox="0 0 64 64" enable-background="new 0 0 64 64" xml:space="preserve">
<g>
	<g>
		<g>
			<path fill="#852C0C" d="M2.779,40.342C0.719,51.959,3.185,57.035,5.075,58.926c1.888,1.888,6.966,4.356,18.586,2.295
				c-4.264-2.274-8.321-5.283-11.959-8.922C8.063,48.661,5.054,44.602,2.779,40.342z"/>
		</g>
		<g>
			<path fill="#852C0C" d="M61.073,23.807c2.06-11.62,0.309-17.408-1.583-19.297c-1.89-1.891-7.682-3.643-19.299-1.583
				c4.263,2.275,8.321,5.283,11.961,8.92C55.789,15.489,58.797,19.547,61.073,23.807z"/>
		</g>
		<g>
			<path fill="#852C0C" d="M30.831,5.378c-5.623,2.004-11.183,5.073-15.854,9.748c-4.674,4.673-7.743,10.232-9.746,15.855
				c1.891,6.091,5.569,12.05,10.654,17.135c5.083,5.086,11.043,8.765,17.136,10.655c5.623-2.004,11.183-5.073,15.856-9.746
				c4.674-4.676,7.743-10.234,9.746-15.857c-1.891-6.092-5.569-12.05-10.655-17.134C42.884,10.948,36.925,7.269,30.831,5.378z"/>
		</g>
		<g>
			<path fill="#DEE7ED" d="M5.23,30.981c-1.123,3.149-1.911,6.314-2.451,9.361c2.274,4.26,5.283,8.319,8.923,11.957
				c3.638,3.639,7.695,6.647,11.959,8.922c3.045-0.54,6.21-1.326,9.359-2.449c-6.093-1.891-12.053-5.569-17.136-10.655
				C10.8,43.031,7.121,37.072,5.23,30.981z"/>
		</g>
		<g>
			<path fill="#DEE7ED" d="M52.152,11.848c-3.64-3.637-7.698-6.645-11.961-8.92c-3.046,0.541-6.211,1.329-9.36,2.451
				c6.094,1.891,12.053,5.57,17.137,10.656c5.086,5.084,8.765,11.042,10.655,17.134c1.122-3.15,1.909-6.315,2.45-9.361
				C58.797,19.547,55.789,15.489,52.152,11.848z"/>
		</g>
	</g>
	<path opacity="0.15" fill="#FFFFFF" d="M59.191,5.594c-1.597-1.846-6.708-3.772-17.265-2.482c-2.769,0.339-5.656,0.9-8.549,1.771
		c-5.164,1.555-10.328,4.097-14.782,8.169c-4.456,4.072-7.517,9.045-9.623,14.135c-1.181,2.85-2.062,5.733-2.712,8.52
		C3.775,46.333,5.72,51.154,7.315,53c1.595,1.844,6.025,4.393,16.586,3.104c2.766-0.34,5.652-0.898,8.545-1.77
		c5.166-1.555,10.328-4.098,14.786-8.17c4.453-4.071,7.517-9.047,9.624-14.137c1.18-2.851,2.058-5.734,2.71-8.519
		C62.049,12.88,60.789,7.44,59.191,5.594z"/>
	<path opacity="0.15" fill="#FFFFFF" d="M55.564,6.528c-1.242-1.543-5.332-3.25-13.929-2.505c-2.254,0.196-4.611,0.569-6.981,1.192
		c-4.231,1.114-8.491,3.027-12.218,6.202c-3.73,3.174-6.354,7.12-8.206,11.188c-1.04,2.277-1.836,4.589-2.442,6.83
		c-2.317,8.546-0.881,12.511,0.362,14.052c1.241,1.541,4.761,3.734,13.359,2.99c2.253-0.197,4.609-0.568,6.979-1.193
		c4.232-1.112,8.491-3.026,12.223-6.201c3.727-3.173,6.351-7.121,8.204-11.188c1.039-2.278,1.834-4.59,2.441-6.83
		C57.673,12.518,56.807,8.07,55.564,6.528z"/>
	<path opacity="0.3" fill="#852C0C" d="M5.075,58.926c-0.092-1.682,0.292-3.365,0.8-4.969c0.513-1.609,1.164-3.172,1.88-4.701
		c1.47-3.039,3.207-5.938,5.092-8.727c3.765-5.59,8.096-10.77,12.751-15.63c4.694-4.818,9.729-9.341,15.295-13.171
		c2.779-1.914,5.699-3.647,8.796-5.019c1.556-0.666,3.152-1.246,4.794-1.655c1.636-0.419,3.333-0.647,5.008-0.544
		c-3.348,0.262-6.475,1.518-9.375,3.082c-2.922,1.547-5.663,3.418-8.311,5.401c-5.271,4.009-10.165,8.519-14.769,13.294
		c-4.62,4.766-8.954,9.818-12.92,15.139c-1.966,2.672-3.851,5.408-5.498,8.283c-0.834,1.433-1.606,2.902-2.248,4.43
		C5.751,55.669,5.2,57.253,5.075,58.926z"/>
	<g>
		<path fill="#E6EBEF" d="M38.897,13.45c0.401,0.471,0.345,1.179-0.124,1.583c-7.811,6.743-15.089,14.269-21.832,22.079
			c-0.403,0.468-1.111,0.525-1.582,0.123l0,0c-0.472-0.401-0.522-1.113-0.114-1.588c6.814-7.894,14.171-15.495,22.064-22.31
			C37.784,12.927,38.496,12.979,38.897,13.45L38.897,13.45z"/>
		<g>
			<g>
				<path fill="#FFFFFF" d="M33.279,13.994c2.271,1.948,3.04,2.711,4.985,4.985c0.897,1.118,2.703-0.212,1.729-1.423
					c-2.065-2.413-2.877-3.226-5.289-5.291C33.492,11.294,32.16,13.098,33.279,13.994L33.279,13.994z"/>
			</g>
			<g>
				<path fill="#FFFFFF" d="M27.732,18.012c2.231,1.991,3.758,3.518,5.749,5.749c0.941,1.084,2.664-0.346,1.677-1.482
					c-2.059-2.309-3.639-3.886-5.943-5.947C28.079,15.347,26.645,17.07,27.732,18.012L27.732,18.012z"/>
			</g>
			<g>
				<g>
					<path fill="#FFFFFF" d="M22.645,22.54c2.112,2.112,3.917,3.915,6.027,6.028c1.022,1.02,2.605-0.563,1.584-1.584
						c-2.112-2.112-3.916-3.916-6.028-6.029C23.208,19.937,21.623,21.52,22.645,22.54L22.645,22.54z"/>
				</g>
			</g>
			<g>
				<path fill="#FFFFFF" d="M18.022,27.525c2.06,2.308,3.638,3.886,5.945,5.945c1.134,0.986,2.566-0.735,1.482-1.679
					c-2.23-1.994-3.759-3.519-5.749-5.75C18.762,24.956,17.034,26.39,18.022,27.525L18.022,27.525z"/>
			</g>
			<g>
				<path fill="#FFFFFF" d="M13.954,33.016c2.065,2.411,2.877,3.224,5.289,5.289c1.214,0.971,2.544-0.831,1.427-1.729
					c-2.276-1.947-3.038-2.715-4.987-4.988C14.788,30.47,12.983,31.803,13.954,33.016L13.954,33.016z"/>
			</g>
		</g>
	</g>
</g>
</svg>
