<?xml version="1.0" encoding="utf-8"?>
<!-- Generator: Adobe Illustrator 15.0.0, SVG Export Plug-In . SVG Version: 6.00 Build 0)  -->
<!DOCTYPE svg PUBLIC "-//W3C//DTD SVG 1.1//EN" "http://www.w3.org/Graphics/SVG/1.1/DTD/svg11.dtd">
<svg version="1.1" id="Layer_1" xmlns="http://www.w3.org/2000/svg" xmlns:xlink="http://www.w3.org/1999/xlink" x="0px" y="0px"
	 width="64px" height="64px" viewBox="0 0 64 64" enable-background="new 0 0 64 64" xml:space="preserve">
<path fill="#DBA97F" d="M50.804,6.754c-0.33-3.266-2.066-4.709-3.885-4.063c0,0-0.646-0.373-1.139-0.016
	c-0.779,0.566,0.139,2.355,0.139,2.355c-0.848,0.131-1.066,0.982,1.451,2.752c1.982,1.391,2.32,3.08,3.123,5.631
	c-0.953,0.834-2.891,2.543-4.504,5.138c-0.705,1.141,2.049,4.484,3.184,2.998c1.314-1.721,5.898-5.823,6.156-7.847
	C55.61,11.524,50.804,6.754,50.804,6.754z"/>
<polygon fill="#6E8189" points="7.819,21.173 37.892,7.979 38.325,8.866 8.245,22.07 "/>
<path fill="#302C3B" d="M51.376,2.038c0.697-0.307,1.588,1.361,0.9,1.666l-15.691,6.879c-0.684,0.303-1.59-1.367-0.896-1.666
	L51.376,2.038z"/>
<path fill="#99A8AE" d="M7.001,22.74c-0.037,1.549,0.523,5.691,1.512,6.059c0.986,0.363,7.229-2.889,3.203-6.533
	C8.913,19.734,7.056,20.962,7.001,22.74z"/>
<path fill="#594640" d="M49.726,57.316c0,0-2.592,4.684,1.977,4.684c5.088,0,4.268-2.514,4.35-4.684H49.726z"/>
<path fill="#594640" d="M33.376,55.131c0,0-5.75,6.869,0.631,6.869c6.379,0,3.104-2.789,4.047-6.197L33.376,55.131z"/>
<path fill="#99A8AE" d="M43.552,36.436c2.791-1.701,12.947-2.082,12.947-2.082c1.559,11.027-1.117,14.254,0,23.336h-7.447
	c0.934-6.961,0.854-15.996,0.854-15.996s-3.316,6.24-4.482,7.82c-1.367,1.852-7.344,7.803-7.344,7.803l-5.752-1.834
	c0,0,5.316-6.217,6.17-8.246C39.438,44.982,42.503,37.629,43.552,36.436z"/>
<path fill="#014D87" d="M43.321,36.746l13.178-2.393c0,0-3.486-10.645-8.48-12.266c-2.016-0.652-7.955-0.652-8.346,0.68
	C38.515,26.718,44.202,29.667,43.321,36.746z"/>
<path fill="#DBA97F" d="M39.673,22.767c2.006-0.697,4.398-0.285,6.064-0.697l-1.25-4.207l-7.355,1.971L39.673,22.767z"/>
<path fill="#594640" d="M35.103,6.172c6.58-2.943,9.893,1.152,10.264,5.73l-12.752,5.624C30.341,12.854,28.522,9.114,35.103,6.172z"
	/>
<path fill="#FCD5B2" d="M32.667,15.428c0.516,0.83,1.359,1.466,1.359,1.466c-3.182-6.544,9.002-10.015,9.002-10.015
	s1.855,2.926,3.014,5.857c1.373,3.48,0.031,7.409-2.146,8.382c-2.164,0.969-7.385,0.965-9.016-2.254
	C34.29,20.251,29.562,15.17,32.667,15.428z"/>
<path fill="#FCD5B2" d="M52.269,6.883c-0.203-3.273-1.879-4.781-3.725-4.199c0,0-0.631-0.396-1.137-0.057
	c-0.801,0.537,0.045,2.357,0.045,2.357c-0.852,0.1-1.104,0.941,1.342,2.803c1.926,1.463,2.195,3.162,2.9,5.74
	c-0.988,0.799-2.99,2.436-4.705,4.972c-0.752,1.113,1.873,4.555,3.063,3.109c1.383-1.67,6.127-5.604,6.461-7.616
	C56.88,11.823,52.269,6.883,52.269,6.883z"/>
<path fill="#013366" d="M46.177,26.152c-2.785,1.875-5.463-1.598-3.764-3.631c1.568-1.871,4.18-4.246,4.18-4.246
	c1.816,2.322,3.748,3.684,3.748,3.684S47.823,25.046,46.177,26.152z"/>
<path fill="#F5F5F5" d="M45.075,11.247c0.135,1.925-2.525,2.874-3.527,1.95C41.048,11.196,43.919,9.666,45.075,11.247z"/>
<path fill="#45332C" d="M42.001,12.468c0.672,1.439,2.754,0.468,2.082-0.972C43.46,10.16,41.378,11.131,42.001,12.468z"/>
<path fill="#45332C" d="M45.071,11.234c-0.818-1.753-4.463-0.053-3.516,1.977C41.3,11.303,43.903,10.088,45.071,11.234z"/>
<path fill="#F5F5F5" d="M35.444,15.737c1.389,1.341,3.826-0.088,3.762-1.447C37.995,12.62,34.978,13.835,35.444,15.737z"/>
<path fill="#45332C" d="M38.356,14.167c0.672,1.44-1.41,2.412-2.082,0.971C35.651,13.801,37.733,12.831,38.356,14.167z"/>
<path fill="#45332C" d="M35.438,15.725c-0.816-1.753,2.828-3.451,3.773-1.423C37.915,12.879,35.312,14.094,35.438,15.725z"/>
<path fill="#CC9D76" d="M42.181,17.61c-1.18,0.21-2.541,1.345-2.541,1.345c0.861,0.305,1.646,0.854,3.223,0.118
	c1.809-0.842,1.717-1.839,1.982-2.546C44.845,16.527,43.097,16.842,42.181,17.61z"/>
<path fill="#FFFFFF" d="M40.015,18.804c1.598,0.517,3.852-0.527,4.486-2.093C43.339,17.324,41.237,18.304,40.015,18.804z"/>
<path fill="#DBA97F" d="M44.185,9.7c-1.332,0.06-2.906,0.684-3.549,1.358c-0.135,0.142,0.055,0.535,0.184,0.428
	c0.982-0.833,2.27-1.461,3.51-1.588C44.495,9.881,44.386,9.69,44.185,9.7z"/>
<path fill="#DBA97F" d="M34.831,14.061c0.904-0.983,2.393-1.787,3.322-1.847c0.197-0.012,0.377,0.388,0.211,0.416
	c-1.27,0.217-2.578,0.8-3.473,1.668C34.772,14.417,34.696,14.208,34.831,14.061z"/>
<path fill="#DBA97F" d="M42.726,15.383c0.395,0.846-2.207,2.06-2.602,1.213C40.032,16.402,42.636,15.188,42.726,15.383z"/>
<path fill="#99A8AE" d="M44.216,7.592c-3.201-5.352-6.643-4.883-9.893-3.646c-3.295,1.248-6.99,4.717-2.867,11.486
	C31.456,15.432,34.743,6.76,44.216,7.592z"/>
<path fill="#BEC3CF" d="M46.659,9.715c1.375,0.209-1.164-4.051-8.072-1.855c-6.053,1.92-7.131,7.572-7.131,7.572
	C39.511,15.223,37.161,8.254,46.659,9.715z"/>
</svg>
