<?xml version="1.0" encoding="utf-8"?>
<!-- Generator: Adobe Illustrator 15.0.0, SVG Export Plug-In . SVG Version: 6.00 Build 0)  -->
<!DOCTYPE svg PUBLIC "-//W3C//DTD SVG 1.1//EN" "http://www.w3.org/Graphics/SVG/1.1/DTD/svg11.dtd">
<svg version="1.1" id="Layer_1" xmlns="http://www.w3.org/2000/svg" xmlns:xlink="http://www.w3.org/1999/xlink" x="0px" y="0px"
	 width="64px" height="64px" viewBox="0 0 64 64" enable-background="new 0 0 64 64" xml:space="preserve">
<path fill="#7AB51D" d="M30.119,18.329c-0.559,1.057-1.154,3.902-2.967,5.486C28.697,28.409,31.426,21.086,30.119,18.329z"/>
<path fill="#94989B" d="M39.549,23.627c0,0-6.619,5.152-7.119,5.732C38.215,32.147,39.756,25.188,39.549,23.627z"/>
<path fill="#89664C" d="M9.232,12.305c0,0-0.725-1.496-0.342-4.156c0,0,2.002,1.363,3.381,4.496L9.232,12.305z"/>
<path fill="#302C3B" d="M10.607,12.749L9.631,10.84c0,0,15.291-5.049,18.529,15.76L10.607,12.749z"/>
<path fill="#89664C" d="M60.824,32.331c2.611-4.039-7.906-6.09-12.07-0.439v1.326c0,0,8.586-2.482,6.623,2.406
	C53.193,41.064,62,45.617,62,45.617S57.156,37.996,60.824,32.331z"/>
<path fill="#45332C" d="M12.688,59.104l0.563-4.379c0,0-0.852,0.02-1.787-0.23c-0.258,0.811-0.648,2.225-0.898,3.902
	C11.738,59.023,12.688,59.104,12.688,59.104z"/>
<path fill="#89664C" d="M27.191,48.057c-0.695,0.523-1.52,1.184-2.109,1.771l-3.463-1.014c0,0,3.154-4.842,10.711-8.033
	c0,0-8.498-3.135-11.352,0.982c0,0-3.807,5.668-5.094,7.018c-1.289,1.352,0.063,2.559,0.711,2.76
	c0.648,0.197,9.672,0.957,9.672,0.957s1.234-1.045,2.781-1.646C28.391,49.428,27.676,48.543,27.191,48.057z"/>
<path fill="#45332C" d="M28.547,47.082c0,0-0.604,0.408-1.355,0.975c0.484,0.486,1.199,1.371,1.857,2.795
	c0.742-0.289,1.551-0.477,2.332-0.4C31.381,50.451,30.217,47.918,28.547,47.082z"/>
<path fill="#89664C" d="M38.287,36.434l-0.783,5.816c0,0,7.891,1.332,11.201,0.092c0,0,2.936,7.172,8.359,11.701
	c0.406-0.732,0.898-1.896,1.24-3.623c-2.123-1.346-5.414-4.391-6.939-10.813C51.365,39.607,44.951,40.381,38.287,36.434z"/>
<path fill="#45332C" d="M57.064,54.043c0.727,0.611,1.502,1.172,2.32,1.66c0,0,0.813-2.018,0.871-4.324c0,0-0.805-0.23-1.951-0.959
	C57.963,52.146,57.471,53.311,57.064,54.043z"/>
<path fill="#B7805C" d="M44.826,28.055c-8.035,0.957-15.725,2.965-17.146-1.396c-5.811-17.814-16.658-15-16.658-15
	C9.127,9.381,7.158,8.997,7.158,8.997C7,11.256,7.875,13.163,7.875,13.163c-0.563,2.871-5.352,12.035-5.828,13.283
	c-0.479,1.248,2.883,3.422,2.883,3.422c0.699-0.133,0.865-1.254,2.439-1.219c0.396,0.01-0.713,1.408-0.291,1.551
	c0.783,0.264,1.744-2.027,3.363-2.912c6.088-3.326,4.064-5.512,4.064-5.512c2.496,1.738,1.078,5.514-0.002,7.488
	c-2.543,4.65,0.119,11.49,0.119,11.49c-2.461,1.906-7.912,2.979-7.912,2.979c-1.861,9.82,1.467,13.383,3.854,14.664
	c0.25-1.678,0.641-3.092,0.898-3.902c-0.926-0.246-1.93-0.752-2.291-1.785c-0.732-2.088,0.666-6.785,0.666-6.785
	c6.473,0.775,10.547-1.238,15.188-2.383c4.646-1.146,9.141-0.346,13.578,0.434C55.699,46.979,53.473,27.024,44.826,28.055z"/>
<path fill="#B7805C" d="M37.668,43.262c4.439,10.01,14.01,4.531,14.01,4.531c-2.188,6.121-0.58,10.314,0.795,12.48
	c1.191-0.605,1.934-1.965,2.287-2.777c-3.07-3.463-0.879-8.068-0.285-9.877c0.654-1.988-0.297-3.27-0.297-3.27
	c-2.676-0.615-4.25,1.221-7.424-2.867C43.584,37.396,37.668,43.262,37.668,43.262z"/>
<path fill="#45332C" d="M53.865,62c1.529-0.068,1.975-3.508,1.975-3.508c-0.418-0.318-0.775-0.65-1.08-0.996
	c-0.354,0.813-1.096,2.172-2.287,2.777C53.203,61.42,53.865,62,53.865,62z"/>
<path fill="#45332C" d="M34.135,38.156c0,0,0.314,2.238-1.203,5.186c0,0,1.168-0.049,2.221,0.107c0,0,0.855-0.973,1.225-5.068
	L34.135,38.156z"/>
<path fill="#89664C" d="M28.16,27.618c3.361,4.123-0.914,11.216,7.992,11.216c6.75,0,2.656-8.187,6.289-10.662
	C42.441,28.172,33.371,29.459,28.16,27.618z"/>
<path fill="#302C3B" d="M5.422,25.45l-0.498-0.547c5.684-5.254,6.959-7.486,6.975-7.51l0.641,0.365
	C12.488,17.852,11.195,20.118,5.422,25.45z"/>
<path fill="#302C3B" d="M7.875,13.163c0.004,0.004-0.109,0.486-0.211,0.797c6.279,4.369,4.875,6.5,7.107,9.268
	c0.166-0.113,0.5-0.58,0.561-0.623C13.402,20.065,14.672,17.668,7.875,13.163z"/>
<path fill="#302C3B" d="M6.766,28.702c0.189-0.096,0.682,0,0.682,0c-1.156-3.16-3.055-5.264-3.773-5.676l-0.316,0.65
	C4.543,24.694,6.084,26.809,6.766,28.702z"/>
<path fill="#89664C" d="M2.898,26.071c0,0,1.346-0.176,0.865,1.393C3.281,29.028,2.828,26.616,2.898,26.071z"/>
<path fill="#302C3B" d="M21.549,26.09c-6.334-1.021-12.908-4.15-12.928-4.158l-0.637,0.846c0.018,0.01,5.762,3.338,13.203,3.904
	C21.396,26.477,21.549,26.09,21.549,26.09z"/>
<path fill="#614A36" d="M22.605,25.243h-0.906c-0.756-0.574-1.566-0.275-2.408-0.355c-0.43-0.041-0.92,0.277-0.814,0.563
	l0.551,0.135c-0.41,0.402-1.229,1.086-0.631,1.344c1.09,0.471,0.873,1.088,2.199,1.379c0.482,0.105,1.264-0.41,1.531-0.736
	l0.9-0.064L22.605,25.243z"/>
<path fill="#302C3B" d="M9.557,18.194c0,1.158-2.109,1.158-2.109,0C7.447,17.038,9.557,17.038,9.557,18.194z"/>
<path fill="#FFFFFF" d="M8.117,17.899c0,0.279-0.508,0.279-0.508,0S8.117,17.62,8.117,17.899z"/>
<path fill="#614A36" d="M33.016,10.815c0,0-0.111,4.046,1.371,6.412C29.254,22.734,27.865,12.05,33.016,10.815z"/>
<path fill="#3B2B1C" d="M27.836,18.373c3.209-2.976,4.371,7.388,3.297-5.575L27.836,18.373z"/>
<path fill="#614A36" d="M26.27,3.728c-5.598,2.301-5.623,5.986-4.16,8.008c0.73,1.012,0.566,2.179,0.064,3.329
	c-0.477,1.093,0.732,1.17,1.346,0.918c0.32,0.352,0.131,0.558,0.131,0.558s0.992,0.223,0.904,0.473
	c-0.238,0.099-0.266,0.626,0.264,0.662c0.582,0.039,0.145,2.241,2.035,1.297c1.531-0.763,3.666-2.861,3.922-3.374
	c0.293-0.584,0.475-3.238,0.475-3.238C34,10.655,36.518,4.687,26.27,3.728z"/>
<path fill="#3B2B1C" d="M29.84,10.465c-0.367-0.798-0.029-1.791,0.627-2.094c0,0-0.693,1.466,0.188,2.618
	C30.654,10.989,30.096,11.022,29.84,10.465z"/>
<path fill="#38332D" d="M21.305,9.537c5.809-5.743,5.32-0.12,7.92,1.062c-0.336-2.382,1.09-3.467,2.139-2.398
	c1.197,1.221,1.137,3.509-0.174,3.856c0.334,0.424,1.99,1.413,1.99,1.413c2.795-1.603,1.16-13.662-7.723-10.011
	C22.166,4.809,19.719,7.399,21.305,9.537z"/>
<path fill="#523924" d="M26.002,15.55c-0.195,1.198-0.648,1.915-0.988,2.261c-0.75,0.071-0.752-0.765-0.441-0.892
	C24.811,16.821,25.148,16.396,26.002,15.55z"/>
<path fill="#3B2B1C" d="M26.002,15.55c-0.32,0.815-1.42,1.429-1.42,1.429c-0.193,0.016-0.721,0.075-0.932-0.438
	C24.09,16.665,25.291,16.24,26.002,15.55z"/>
<path fill-rule="evenodd" clip-rule="evenodd" fill="#3B2B1C" d="M22.6,11.746c0.076-0.549,0.799-0.633,2.557-1.371
	C23.693,10.192,21.926,10.567,22.6,11.746z"/>
<path fill="#FFFFFF" d="M25.004,11.426c0.467,1.592-0.543,1.855-0.771,1.949C23.873,13.316,21.945,11.154,25.004,11.426z"/>
<path fill="#45332C" d="M23.355,12.508c0.674,1.1,1.314,1.086,0.682-0.461C23.572,10.91,22.814,11.625,23.355,12.508z"/>
<path fill-rule="evenodd" clip-rule="evenodd" fill="#45332C" d="M23.203,12.187c-0.299-1.197,1.234-0.919,1.912-0.787
	C24.24,11.61,23.521,11.481,23.203,12.187z"/>
<path fill="#92C932" d="M28.742,24.37c0,0-3.777,0.605-6.615,0.697c0,0,0.727,1.805,0.307,2.643l7.789-0.348l3.686-5.582
	l5.641,1.848c0,0,3.662-0.297,6.625-3.135c0,0-3.5-4.775-12.75-5.76c0,0-1.143,2.314-3.363,3.41L28.742,24.37z"/>
<path fill="#D0D0D0" d="M39.549,23.627c0,0-5.17,4.463-6.363,7.381c-0.809,1.979,1.316,4.919,1.703,5.871c0,0,2.242,0.23,3.52-1.096
	c0,0,0.084-1.063-1.504-3.712c0,0,5.789-2.078,8.08-4.117c2.289-2.037,2.885-4.035,1.189-7.461L39.549,23.627z"/>
<path fill="#302C3B" d="M35.848,42.928c0,0-3.695,1.959-3.875,2.572c-0.182,0.613,0.619,0.885,0.619,0.885s3.25,0.385,6.826-0.516
	l-0.881-10.396c0,0-0.867,1.213-3.801,1.42L35.848,42.928z"/>
<polygon fill="#302C3B" points="31.783,13.719 30.881,14.18 27.016,8.559 27.918,8.098 "/>
<polygon fill="#302C3B" points="31.631,13.981 30.641,13.844 32.314,9.249 33.305,9.383 "/>
<rect x="30.751" y="12.957" transform="matrix(0.9796 -0.2011 0.2011 0.9796 -2.3386 6.6233)" fill="#302C3B" width="1.35" height="3.727"/>
<path fill="#E81C27" d="M35.156,9.551c-0.055,1.357-4.713-0.502-7.418-0.611c-2.969-0.121-7.453,1.109-7.408,0.008
	c0.164-4,3.613-7.109,7.707-6.941C32.133,2.172,35.32,5.551,35.156,9.551z"/>
<path fill="#B00505" d="M29.424,9.153c0,0-9.1,2.672-10.506,2.461c-1.406-0.209,0.758-2.135,1.418-2.617S28.803,8.45,29.424,9.153z"
	/>
</svg>
