<?xml version="1.0" encoding="utf-8"?>
<!-- Generator: Adobe Illustrator 15.0.0, SVG Export Plug-In . SVG Version: 6.00 Build 0)  -->
<!DOCTYPE svg PUBLIC "-//W3C//DTD SVG 1.1//EN" "http://www.w3.org/Graphics/SVG/1.1/DTD/svg11.dtd">
<svg version="1.1" id="Layer_1" xmlns="http://www.w3.org/2000/svg" xmlns:xlink="http://www.w3.org/1999/xlink" x="0px" y="0px"
	 width="64px" height="64px" viewBox="0 0 64 64" enable-background="new 0 0 64 64" xml:space="preserve">
<path fill="#614036" d="M42.998,5.675c-2.436-5.703-9.264-4.107-10.294,0.294l3.228,0.964c0.598-4.341,8.64,9.54,14.166,4.068
	C48.709,11.637,44.006,8.036,42.998,5.675z"/>
<path fill="#614036" d="M48.832,8.836c-3.989,1.41-5.096-5.185-9.404-6.406C39.549,6.927,45.449,12.708,48.832,8.836z"/>
<path fill="#614036" d="M43.813,11.813c-2.129-0.252-3.567-8.182-7.244-5.922C39.41,6.909,40.457,12.402,43.813,11.813z"/>
<path fill="#8E3ED6" d="M33.055,3.48c-0.991,1.014,0.295,4.25,2.559,3.708C37.472,6.746,34.365,2.131,33.055,3.48z"/>
<path fill="#916B50" d="M33.219,12.912c0,0-0.83,4.862,0.363,8.124C25.898,28.469,26.649,13.06,33.219,12.912z"/>
<path fill="#664935" d="M24.694,20.733c4.658-2.771,4.06,10.095,6.072-5.93L24.694,20.733z"/>
<path fill="#916B50" d="M26.328,2.854c-7.347,1.319-7.524,5.552-6.314,8.349c0.643,1.484,0.143,2.776-0.809,4.044
	c-0.586,0.782,0.143,1.474,1.507,1.229c0.245,0.591-0.075,0.845-0.075,0.845s1.14,0.519,0.969,0.795
	c-0.314,0.056-0.656,0.826,0.154,1.009c0.703,0.157-0.425,1.988,2.172,1.759c1.975-0.173,4.076-1.258,5.643-3.232
	c0.948-1.195,1.308-3.379,1.308-3.379C34.643,12.938,38.45,6.604,26.328,2.854z"/>
<path fill="#664935" d="M29.672,11.654c-0.238-1.044,0.425-2.143,1.296-2.335c0,0-1.214,1.568-0.448,3.166
	C30.52,12.485,29.836,12.383,29.672,11.654z"/>
<path fill="#614036" d="M19.595,7.4c2.916,2.992,6.794,0.728,9.216,3.601c0.346-1.85,2.324-3.147,3.281-1.659
	c1.133,1.76,0.471,4.473-1.203,4.552c0.296,0.592,2.039,2.19,2.039,2.19c3.76-1.188,4.846-10.045-0.629-13.097
	C26.538-0.226,17.5,5.252,19.595,7.4z"/>
<path fill-rule="evenodd" clip-rule="evenodd" fill="#664935" d="M20.562,11.048c-0.666-2.113,2.195-1.34,3.169-1.323
	C22.97,10.072,20.947,9.728,20.562,11.048z"/>
<path fill="#75543D" d="M23.687,16.773c-0.543,1.379-1.303,2.082-1.802,2.409c-0.925-0.107-0.681-1.067-0.275-1.141
	C21.923,17.986,22.439,17.564,23.687,16.773z"/>
<path fill="#664935" d="M23.687,16.773c-0.597,0.891-2.081,1.342-2.081,1.342c-0.236-0.031-0.847-0.13-0.969-0.795
	C21.134,17.581,22.653,17.416,23.687,16.773z"/>
<path fill="#FFFFFF" d="M23.548,11.279c0.154,2.016-1.133,2.072-1.433,2.126C21.694,13.244,19.926,10.177,23.548,11.279z"/>
<path fill="#45332C" d="M21.279,12.15c0.53,1.482,1.308,1.629,0.941-0.377C21.952,10.3,20.853,10.958,21.279,12.15z"/>
<path fill-rule="evenodd" clip-rule="evenodd" fill="#45332C" d="M21.178,11.727c-0.051-1.501,1.727-0.781,2.511-0.451
	C22.577,11.304,21.745,10.967,21.178,11.727z"/>
<path fill="#CFD8DD" d="M51.02,52.826c2.029,0.526,0.58,5.566,3.973,5.099c0,0,2.121-3.793,0.209-7.586l-0.387-2.928
	C46.279,45.741,51.02,52.826,51.02,52.826z"/>
<path fill="#916B50" d="M14.493,25.189l3.1-2.007c-0.778-2.637-2.273-3.577-2.531-2.72c0,0-1.274-1.667-2.944-0.751
	C10.263,20.729,12.066,23.507,14.493,25.189z"/>
<path fill="#5D1E96" d="M30.424,27.084c3.092-1.692-0.936-4.772-2.047-4.112c-3.934,2.336-5.988,3.416-6.635,3.199
	c-0.36-0.121-2.23-1.024-4.281-3.396c0,0-0.802,1.313-3.321,2.415c2.327,2.709,5.389,4.863,6.341,5.357
	C21.555,31.104,24.719,30.204,30.424,27.084z"/>
<path fill="#1A1626" d="M39.172,36.423L29.831,35.4c5.642,15.453,4.795,17.604,21.616,17.945c0,0,2.254-6.363,1.062-6.502
	C40.518,45.447,42.047,46.543,39.172,36.423z"/>
<path fill="#CFD8DD" d="M14.631,56.294C13.188,57.739,9.155,54.166,8,57.215c0,0,2.552,3.549,6.997,3.732L17.916,62
	C23.483,55.667,14.631,56.294,14.631,56.294z"/>
<path fill="#302C3B" d="M39.373,36.098l-8.586-1.055c-0.615,4.394-11.29,1.155-16.486,21.219c0,0,5.737,4.662,6.306,3.064
	c2.742-7.695,5.713-11.319,7.202-12.17C33.646,43.822,42.275,41.893,39.373,36.098z"/>
<path fill="#8E3ED6" d="M33.383,19.875c-1.407-0.326-3.723,4.191-4.92,2.494c-0.408,0.647-0.316,2.194-0.733,2.943
	c-0.793,1.425-3.391,5.069,0.954,5.819c0.678,0.117,0.756,2.814,1.147,4.501c8.585-0.111,10.216,1.287,10.216,1.287
	C38.488,28.51,35.683,20.408,33.383,19.875z"/>
<path fill="#916B50" d="M47.873,30.974l-3.659,0.807c-0.29,2.726,0.74,4.112,1.312,3.402c0,0,0.545,1.99,2.453,1.71
	C50.098,36.58,49.486,33.374,47.873,30.974z"/>
<path fill="#5D1E96" d="M34.578,20.176c-3.488-0.737-3.806,4.72-0.97,4.989c7.866,0.744,8.186,0.77,10.525,6.952
	c0,0,4.343-0.029,3.937-1.102C44.57,21.762,45.58,22.503,34.578,20.176z"/>
</svg>
