<?xml version="1.0" encoding="utf-8"?>
<!-- Generator: Adobe Illustrator 15.0.0, SVG Export Plug-In . SVG Version: 6.00 Build 0)  -->
<!DOCTYPE svg PUBLIC "-//W3C//DTD SVG 1.1//EN" "http://www.w3.org/Graphics/SVG/1.1/DTD/svg11.dtd">
<svg version="1.1" id="Layer_1" xmlns="http://www.w3.org/2000/svg" xmlns:xlink="http://www.w3.org/1999/xlink" x="0px" y="0px"
	 width="64px" height="64px" viewBox="0 0 64 64" enable-background="new 0 0 64 64" xml:space="preserve">
<path fill="#CFD8DD" d="M60.215,36.176l-17.943,8.353l0.6,1.748L61.1,40.726C61.424,39.151,61.123,37.439,60.215,36.176z"/>
<path fill="#302C3B" d="M11.5,43C6.253,43,2,47.253,2,52.5c0,5.249,4.253,9.5,9.5,9.5s9.5-4.251,9.5-9.5
	C21,47.253,16.747,43,11.5,43z"/>
<path fill="#4E5E67" d="M11.5,59.5c-3.866,0-7-3.133-7-7s3.134-7,7-7c3.865,0,7,3.133,7,7S15.365,59.5,11.5,59.5z"/>
<path fill="#CFD8DD" d="M11.5,48C9.014,48,7,50.014,7,52.5c0,2.488,2.014,4.5,4.5,4.5c2.484,0,4.5-2.012,4.5-4.5
	C16,50.014,13.984,48,11.5,48z M11.5,55C10.12,55,9,53.882,9,52.5s1.12-2.5,2.5-2.5s2.5,1.118,2.5,2.5S12.88,55,11.5,55z"/>
<path fill="#B00505" d="M21.338,53.555c0-12.02-12.143-13.865-16.385-9.082c0,0,7.574-0.236,6.547,8.027
	C17.278,45.721,21.338,53.555,21.338,53.555z"/>
<polygon fill="#CFD8DD" points="11.5,53.061 19.807,39.345 17.283,36.913 10.877,52.604 "/>
<polygon fill="#6E8189" points="26.681,41.586 26.181,59.064 45.852,56.111 49.119,35.801 "/>
<path fill="#302C3B" d="M29.25,52.924c0-6,9-6,9,0S29.25,58.924,29.25,52.924z"/>
<path fill="#4E5E67" d="M30.75,52.924c0-4,6-4,6,0S30.75,56.924,30.75,52.924z"/>
<path fill="#302C3B" d="M39.313,51.182c0-2,3-2,3,0S39.313,53.182,39.313,51.182z"/>
<path fill="#6E8189" d="M26.287,29.979c0-1.134,3.753-1.134,3.753,0C30.04,31.113,26.287,31.113,26.287,29.979z"/>
<path fill="#6E8189" d="M14.121,31.832v3.507l14.635,2.676C23.662,31.832,14.121,31.832,14.121,31.832z"/>
<path fill="#B00505" d="M20.678,32.235c-0.471,0.475,6.16,4.995,8.058,6.127c2.09,1.244,6.406-1.188,6.406-1.188
	C38.523,29.529,24.768,28.136,20.678,32.235z"/>
<path fill="#E81C27" d="M23.944,32.155c-1.521,1.021,7.824,4.932,9.833,2.612C36.041,32.155,26.634,30.346,23.944,32.155z"/>
<polygon fill="#4E5E67" points="27.965,37.486 52.463,30.593 57.539,35.158 33.775,46.272 "/>
<path fill="#302C3B" d="M34.825,33.312c3.962,0.598,11.196-4.215,13.087-1.234c0,0-0.709,2.717-9.834,4.551
	c-1.653,0.332-3.273,0.149-4.164-1.283C33.488,34.66,34.027,33.191,34.825,33.312z"/>
<polygon fill="#302C3B" points="29.558,39.896 55.691,33.496 54.745,35.118 32.444,44.26 "/>
<polygon fill="#E81C27" points="49.318,29.095 46.686,33.358 31.754,38.433 32.51,39.2 43.982,38.219 61.203,31.274 60.051,29.095 
	"/>
<path fill="#302C3B" d="M15.907,31.595l0.813,2.66c1.344-1.677,1.5-1.452,4.469,0l1.342-2.99
	C18.141,29.577,18.579,29.2,15.907,31.595z"/>
<path fill="#E81C27" d="M37.793,53.553c-14.768,7.804-4.018-7.28-4.018-7.28l-5.811-8.786l-9.69-1.842c0,0-6.188-6.967,4.889-8.019
	L21.751,26C9.775,28.678,7.954,34.46,7.962,38.473c0.003,1.563,5.325,1.177,5.959,1.882c0.47,0.522,8.021,10.021,8.021,11.646
	c0,1.269-2.99,8.25-0.841,8.25c9.304,0,22.575,0,22.575,0C43.676,57.424,36.811,57.737,37.793,53.553z"/>
<path fill="#CFD8DD" d="M10.818,34.794c1.76,0,1.76,2.918,0,2.918C10.443,37.712,10.443,34.794,10.818,34.794z"/>
<path fill="#4E5E67" d="M20.442,32.803c0-2.21,3-2.21,3,0C23.442,35.012,20.442,35.012,20.442,32.803z"/>
<path fill="#302C3B" d="M21.192,32.803c0-1.105,1.5-1.105,1.5,0C22.692,33.906,21.192,33.906,21.192,32.803z"/>
<polygon fill="#B00505" points="29.787,45.324 26.495,39.2 18.601,38.015 20.297,40.71 "/>
<path fill="#B00505" d="M28.418,58.562v-3.125c0,0-5.698,0-5.698,1.814C22.72,58.562,28.418,58.562,28.418,58.562z"/>
<path fill="#302C3B" d="M14.947,32.449v-3.296c0,0-1.432-0.621-1.357,2.853C13.61,32.983,14.947,32.449,14.947,32.449z"/>
<path fill="#B00505" d="M15.467,30.514V26c0,0-2.221,0-2.221,2.621C13.247,30.514,15.467,30.514,15.467,30.514z"/>
<path fill="#302C3B" d="M52.5,43c-5.246,0-9.5,4.253-9.5,9.5c0,5.249,4.254,9.5,9.5,9.5s9.5-4.251,9.5-9.5
	C62,47.253,57.746,43,52.5,43z"/>
<path fill="#4E5E67" d="M52.5,59.5c-3.867,0-7-3.133-7-7s3.133-7,7-7c3.865,0,7,3.133,7,7S56.365,59.5,52.5,59.5z"/>
<path fill="#B00505" d="M59.74,44.979c-7.455-8.498-18.625-1.275-17.219,6.785C52.068,40.617,59.74,44.979,59.74,44.979z"/>
<path fill="#CFD8DD" d="M52.5,48c-2.486,0-4.5,2.014-4.5,4.5c0,2.488,2.014,4.5,4.5,4.5s4.5-2.012,4.5-4.5
	C57,50.014,54.986,48,52.5,48z M52.5,55c-1.381,0-2.5-1.118-2.5-2.5s1.119-2.5,2.5-2.5s2.5,1.118,2.5,2.5S53.881,55,52.5,55z"/>
</svg>
