<?xml version="1.0" encoding="utf-8"?>
<!-- Generator: Adobe Illustrator 15.0.0, SVG Export Plug-In . SVG Version: 6.00 Build 0)  -->
<!DOCTYPE svg PUBLIC "-//W3C//DTD SVG 1.1//EN" "http://www.w3.org/Graphics/SVG/1.1/DTD/svg11.dtd">
<svg version="1.1" id="Layer_1" xmlns="http://www.w3.org/2000/svg" xmlns:xlink="http://www.w3.org/1999/xlink" x="0px" y="0px"
	 width="64px" height="64px" viewBox="0 0 64 64" enable-background="new 0 0 64 64" xml:space="preserve">
<path fill="#875B49" d="M42.983,5.675c-2.436-5.703-9.264-4.107-10.295,0.294l3.229,0.964c0.597-4.341,8.639,9.54,14.166,4.068
	C48.693,11.637,43.99,8.036,42.983,5.675z"/>
<path fill="#875B49" d="M48.817,8.836c-3.99,1.41-5.097-5.185-9.404-6.406C39.533,6.927,45.435,12.708,48.817,8.836z"/>
<path fill="#875B49" d="M43.798,11.813c-2.129-0.252-3.568-8.182-7.244-5.922C39.396,6.909,40.442,12.402,43.798,11.813z"/>
<path fill="#8E3ED6" d="M33.055,3.48c-0.991,1.014,0.294,4.25,2.559,3.708C37.472,6.746,34.364,2.131,33.055,3.48z"/>
<path fill="#B88A6F" d="M33.22,12.912c0,0-0.832,4.862,0.361,8.124C25.898,28.469,26.649,13.06,33.22,12.912z"/>
<path fill="#946346" d="M24.694,20.733c4.657-2.771,4.06,10.095,6.073-5.93L24.694,20.733z"/>
<path fill="#B88A6F" d="M26.328,2.854c-7.347,1.319-7.524,5.552-6.314,8.349c0.643,1.484,0.143,2.776-0.809,4.044
	c-0.586,0.782,0.143,1.474,1.507,1.229c0.245,0.591-0.075,0.845-0.075,0.845s1.14,0.519,0.969,0.795
	c-0.314,0.056-0.656,0.826,0.154,1.009c0.703,0.157-0.425,1.988,2.172,1.759c1.975-0.173,4.077-1.258,5.643-3.232
	c0.949-1.195,1.308-3.379,1.308-3.379C34.644,12.938,38.45,6.604,26.328,2.854z"/>
<path fill="#946346" d="M29.671,11.654c-0.238-1.044,0.426-2.143,1.297-2.335c0,0-1.214,1.568-0.449,3.166
	C30.519,12.485,29.837,12.383,29.671,11.654z"/>
<path fill="#875B49" d="M19.595,7.4c2.916,2.992,6.794,0.728,9.215,3.601c0.346-1.85,2.324-3.147,3.283-1.659
	c1.131,1.76,0.47,4.473-1.204,4.552c0.296,0.592,2.038,2.19,2.038,2.19c3.762-1.188,4.848-10.045-0.627-13.097
	C26.538-0.226,17.5,5.252,19.595,7.4z"/>
<path fill-rule="evenodd" clip-rule="evenodd" fill="#946346" d="M20.562,11.048c-0.666-2.113,2.195-1.34,3.169-1.323
	C22.97,10.072,20.947,9.728,20.562,11.048z"/>
<path fill="#B07E61" d="M23.687,16.773c-0.543,1.379-1.303,2.082-1.802,2.409c-0.925-0.107-0.681-1.067-0.275-1.141
	C21.923,17.986,22.439,17.564,23.687,16.773z"/>
<path fill="#946346" d="M23.687,16.773c-0.597,0.891-2.081,1.342-2.081,1.342c-0.236-0.031-0.847-0.13-0.969-0.795
	C21.134,17.581,22.653,17.416,23.687,16.773z"/>
<path fill="#FFFFFF" d="M23.548,11.279c0.154,2.016-1.133,2.072-1.433,2.126C21.694,13.244,19.926,10.177,23.548,11.279z"/>
<path fill="#45332C" d="M21.279,12.15c0.53,1.482,1.308,1.629,0.941-0.377C21.952,10.3,20.853,10.958,21.279,12.15z"/>
<path fill-rule="evenodd" clip-rule="evenodd" fill="#45332C" d="M21.178,11.727c-0.051-1.501,1.727-0.781,2.511-0.451
	C22.577,11.304,21.745,10.967,21.178,11.727z"/>
<path fill="#CFD8DD" d="M51.021,52.826c2.029,0.526,0.579,5.566,3.973,5.099c0,0,2.12-3.793,0.207-7.586l-0.386-2.928
	C46.279,45.741,51.021,52.826,51.021,52.826z"/>
<path fill="#B88A6F" d="M14.493,25.189l3.1-2.007c-0.778-2.637-2.273-3.577-2.531-2.72c0,0-1.274-1.667-2.944-0.751
	C10.263,20.729,12.066,23.507,14.493,25.189z"/>
<path fill="#5D1E96" d="M30.423,27.084c3.092-1.692-0.936-4.772-2.045-4.112c-3.935,2.336-5.989,3.416-6.636,3.199
	c-0.36-0.121-2.23-1.024-4.281-3.396c0,0-0.802,1.313-3.321,2.415c2.327,2.709,5.389,4.863,6.341,5.357
	C21.555,31.104,24.719,30.204,30.423,27.084z"/>
<path fill="#1A1626" d="M39.173,36.423L29.831,35.4c5.641,15.453,4.795,17.604,21.616,17.945c0,0,2.254-6.363,1.062-6.502
	C40.518,45.447,42.048,46.543,39.173,36.423z"/>
<path fill="#CFD8DD" d="M14.631,56.294C13.188,57.739,9.155,54.166,8,57.215c0,0,2.552,3.549,6.997,3.732L17.916,62
	C23.483,55.667,14.631,56.294,14.631,56.294z"/>
<path fill="#302C3B" d="M39.374,36.098l-8.587-1.055c-0.616,4.394-11.29,1.155-16.486,21.219c0,0,5.737,4.662,6.306,3.064
	c2.742-7.695,5.713-11.319,7.202-12.17C33.647,43.822,42.276,41.893,39.374,36.098z"/>
<path fill="#8E3ED6" d="M33.382,19.875c-1.406-0.326-3.722,4.191-4.92,2.494c-0.408,0.647-0.314,2.194-0.732,2.943
	c-0.793,1.425-3.391,5.069,0.953,5.819c0.679,0.117,0.756,2.814,1.148,4.501c8.585-0.111,10.215,1.287,10.215,1.287
	C38.487,28.51,35.683,20.408,33.382,19.875z"/>
<path fill="#B88A6F" d="M47.874,30.974l-3.66,0.807c-0.29,2.726,0.74,4.112,1.311,3.402c0,0,0.545,1.99,2.454,1.71
	C50.099,36.58,49.486,33.374,47.874,30.974z"/>
<path fill="#5D1E96" d="M34.577,20.176c-3.486-0.737-3.805,4.72-0.969,4.989c7.866,0.744,8.186,0.77,10.525,6.952
	c0,0,4.344-0.029,3.938-1.102C44.569,21.762,45.581,22.503,34.577,20.176z"/>
</svg>
