<?xml version="1.0" encoding="utf-8"?>
<!-- Generator: Adobe Illustrator 15.0.0, SVG Export Plug-In . SVG Version: 6.00 Build 0)  -->
<!DOCTYPE svg PUBLIC "-//W3C//DTD SVG 1.1//EN" "http://www.w3.org/Graphics/SVG/1.1/DTD/svg11.dtd">
<svg version="1.1" id="Layer_1" xmlns="http://www.w3.org/2000/svg" xmlns:xlink="http://www.w3.org/1999/xlink" x="0px" y="0px"
	 width="64px" height="64px" viewBox="0 0 64 64" enable-background="new 0 0 64 64" xml:space="preserve">
<g>
	<g>
		<circle fill="#AB5C10" cx="32" cy="32" r="30"/>
	</g>
	<g>
		<ellipse fill="#EA8800" cx="32.401" cy="29" rx="27.511" ry="25.234"/>
	</g>
	<g>
		
			<ellipse transform="matrix(0.9958 -0.0912 0.0912 0.9958 -2.0043 3.0528)" fill="#F59E01" cx="32.401" cy="23.458" rx="23.333" ry="19.322"/>
	</g>
	<g>
		<path fill="#302C3B" d="M18.976,31.829c0.271-8.321,1.55-25.376,10.273-29.703c-0.356,0.098-0.604,0.186-0.763,0.252
			C18.975,5.882,16.855,23.814,16.48,31.727c-0.354,10.15,1.441,24.658,11.625,30.021C19.687,54.873,18.496,41.885,18.976,31.829z"
			/>
		<path fill="#302C3B" d="M31.931,29.606c-1.486-12.352,10.697-18.048,21.088-19.01c-11.859-1.149-24.984,5.757-23.572,19.28
			c1.341,11.595,11.538,20.485,21.287,25.559C42.67,49.111,33.032,40.524,31.931,29.606z"/>
		<path fill="#302C3B" d="M8.57,13.259c2.472,8.125,1.7,25.444-3.068,32.825C13.064,40.811,14.013,20.196,8.57,13.259z"/>
		<path fill="#302C3B" d="M29.641,23.453c-7.804-0.801-23.026-1.089-27.611,7.202c5.844-6.903,19.983-5.677,27.869-4.695
			c11.252,1.4,22.92,5.217,31.228,13.245C54.185,29.264,41.239,24.643,29.641,23.453z"/>
	</g>
	<g opacity="0.1">
		<ellipse fill="#FFFFFF" cx="32.401" cy="29" rx="27.511" ry="25.234"/>
	</g>
</g>
</svg>
