<?xml version="1.0" encoding="utf-8"?>
<!-- Generator: Adobe Illustrator 15.0.0, SVG Export Plug-In . SVG Version: 6.00 Build 0)  -->
<!DOCTYPE svg PUBLIC "-//W3C//DTD SVG 1.1//EN" "http://www.w3.org/Graphics/SVG/1.1/DTD/svg11.dtd">
<svg version="1.1" id="Layer_1" xmlns="http://www.w3.org/2000/svg" xmlns:xlink="http://www.w3.org/1999/xlink" x="0px" y="0px"
	 width="64px" height="64px" viewBox="0 0 64 64" enable-background="new 0 0 64 64" xml:space="preserve">
<path fill="#018BC9" d="M62,29.017C30.033,44.088,29.469,18.31,2,32.352V62h60V29.017z"/>
<path fill-rule="evenodd" clip-rule="evenodd" fill="#FDCA47" d="M40.033,12.49c2.178,0.399,7.811,11.919,7.326,18.811
	c7.695,0,9.555,6.352,14.641,6.352V47H33.039V34.945c0,0,1.943,2.629,5.053,0.918c0,0-3.588-2.721-1.412-7.114
	c-1.232-2.634-1.32-3.816-0.947-7.746c-6.703-2.732-12.305-2.497-18.986-2.027c-2.156,3.012-8.191,2.335-9.303,1.432
	c-1.559-1.271,1.863-0.179,2.832-0.749c3.189-1.88-3.115-2.552-5.111-1.559c-5.432,2.703-2.676-0.897-0.521-1.943
	c4.023-1.951,6.545-1.184,10.947-0.769C17.262,15.544,28.828,10.43,40.033,12.49z"/>
<path fill-rule="evenodd" clip-rule="evenodd" fill="#E6A400" d="M36.68,28.75c0,0,2.908,4.383,9.029,3.329
	C40.258,31.116,36.68,28.75,36.68,28.75z"/>
<path fill-rule="evenodd" clip-rule="evenodd" fill="#E6A400" d="M52.215,43.449c0,0,1.893-9.447-5.232-11.285
	C52.674,34.807,52.215,43.449,52.215,43.449z"/>
<path fill-rule="evenodd" clip-rule="evenodd" fill="#E6A400" d="M32.49,35.324v11.01l7.379-3.373
	C37.27,36.443,32.49,35.324,32.49,35.324z"/>
<path fill="#FDCA47" d="M22.625,28.681c11.231,0,14.055,10.145,14.055,12.436c0,2.293-2.823,12.438-14.055,12.438
	C17.911,53.555,17.911,28.681,22.625,28.681z"/>
<path fill="#E81C27" d="M22.988,28.824c-22.56-2.55-22.56,27.137,0,24.588C18.875,50.037,18.875,32.197,22.988,28.824z"/>
<path fill="#302C3B" d="M22.674,31.29c3.838,0,3.838,8.843,0,8.843C18.832,40.133,18.832,31.29,22.674,31.29z"/>
<path fill="#44618B" d="M22.674,32.394c2.303,0,2.303,6.633,0,6.633C20.366,39.027,20.366,32.394,22.674,32.394z"/>
<path fill="#302C3B" d="M22.674,42.102c3.838,0,3.838,8.844,0,8.844C18.832,50.945,18.832,42.102,22.674,42.102z"/>
<path fill="#44618B" d="M22.674,43.207c2.303,0,2.303,6.633,0,6.633C20.366,49.84,20.366,43.207,22.674,43.207z"/>
<rect x="21.809" y="39.459" fill="#006DAE" width="1.729" height="3.316"/>
<rect x="21.809" y="28.646" fill="#006DAE" width="1.729" height="3.316"/>
<path fill="#45332C" d="M32.904,39.482c1.45,0,1.45,3.27,0,3.27C30.088,42.752,30.088,39.482,32.904,39.482z"/>
<path fill="#E6A400" d="M27.783,43.328c1.988-0.723,2.006-3.697,0-4.422V43.328z"/>
<path fill-rule="evenodd" clip-rule="evenodd" fill="#E6A400" d="M39.646,23.896c0,0-2.137-5.316-8.258-4.263
	C36.158,20.593,39.646,23.896,39.646,23.896z"/>
<path fill-rule="evenodd" clip-rule="evenodd" fill="#E6A400" d="M49,41.109c-1.006-0.166-0.826-2.615,0.18-2.445
	C50.186,38.832,50.006,41.279,49,41.109z"/>
<path fill="#0FB4D4" d="M2,62h60V46.352C34.533,32.31,33.967,58.088,2,43.018V62z"/>
<path fill="#75D6FF" d="M62,50.018c-18.583-2.189-25.82,14.061-60,6.334V62h60V50.018z"/>
</svg>
