<?xml version="1.0" encoding="utf-8"?>
<!-- Generator: Adobe Illustrator 15.0.0, SVG Export Plug-In . SVG Version: 6.00 Build 0)  -->
<!DOCTYPE svg PUBLIC "-//W3C//DTD SVG 1.1//EN" "http://www.w3.org/Graphics/SVG/1.1/DTD/svg11.dtd">
<svg version="1.1" id="Layer_1" xmlns="http://www.w3.org/2000/svg" xmlns:xlink="http://www.w3.org/1999/xlink" x="0px" y="0px"
	 width="64px" height="64px" viewBox="0 0 64 64" enable-background="new 0 0 64 64" xml:space="preserve">
<path fill="#018BC9" d="M62,29.018c-31.967,15.07-32.531-10.707-60,3.334V62h60V29.018z"/>
<path fill-rule="evenodd" clip-rule="evenodd" fill="#FDCA47" d="M38.033,12.433c3.416,0.576,8.811,11.918,8.326,18.811
	C56.596,33.175,56.914,37.595,62,37.595v9.348H33.039V34.888c0,0,1.943,2.629,5.053,0.918c0,0-1.225-1.964-0.412-7.113
	c0.235-1.49-0.553-5.289-1-8.518c-6.703-2.732-13.252-1.727-19.934-1.256c-2.156,3.012-8.191,2.334-9.303,1.432
	c-1.559-1.271,1.863-0.18,2.832-0.75c3.189-1.879-3.115-2.551-5.111-1.559c-5.432,2.703-2.676-0.896-0.521-1.943
	c4.023-1.951,6.545-1.184,10.947-0.768C17.262,15.487,26.799,10.538,38.033,12.433z"/>
<path fill-rule="evenodd" clip-rule="evenodd" fill="#8E3ED6" d="M50.428,32.284c4.332,1.168,6.486,3.311,11.572,3.311v11.348
	l-16.467-2.83c-1.188-6.688-7.441-8.307-7.441-8.307s-0.746-1.11-0.656-2.814C45.346,36.3,52.033,33.8,50.428,32.284z"/>
<path fill-rule="evenodd" clip-rule="evenodd" fill="#E6A400" d="M32.49,35.267v11.01l7.379-3.373
	C37.27,36.386,32.49,35.267,32.49,35.267z"/>
<path fill="#FDCA47" d="M22.625,28.624c11.232,0,14.055,10.145,14.055,12.436c0,2.293-2.822,12.438-14.055,12.438
	C17.912,53.497,17.912,28.624,22.625,28.624z"/>
<path fill="#E81C27" d="M22.988,28.767c-22.559-2.551-22.559,27.137,0,24.588C18.875,49.979,18.875,32.14,22.988,28.767z"/>
<path fill="#302C3B" d="M22.674,31.231c3.838,0,3.838,8.844,0,8.844C18.832,40.075,18.832,31.231,22.674,31.231z"/>
<path fill="#44618B" d="M22.674,32.337c2.303,0,2.303,6.633,0,6.633C20.367,38.97,20.367,32.337,22.674,32.337z"/>
<path fill="#302C3B" d="M22.674,42.044c3.838,0,3.838,8.844,0,8.844C18.832,50.888,18.832,42.044,22.674,42.044z"/>
<path fill="#44618B" d="M22.674,43.149c2.303,0,2.303,6.633,0,6.633C20.367,49.782,20.367,43.149,22.674,43.149z"/>
<rect x="21.809" y="39.401" fill="#006DAE" width="1.73" height="3.316"/>
<rect x="21.809" y="28.589" fill="#006DAE" width="1.73" height="3.316"/>
<path fill="#45332C" d="M32.904,39.425c1.451,0,1.451,3.27,0,3.27C30.088,42.694,30.088,39.425,32.904,39.425z"/>
<path fill="#E6A400" d="M27.783,43.271c1.988-0.723,2.006-3.697,0-4.422V43.271z"/>
<path fill-rule="evenodd" clip-rule="evenodd" fill="#E6A400" d="M39.646,22.839c0,0-2.137-5.18-8.258-4.127
	C36.158,19.673,39.646,22.839,39.646,22.839z"/>
<path fill="#0FB4D4" d="M2,62h60V46.352C34.533,32.311,33.967,58.088,2,43.018V62z"/>
<path fill="#75D6FF" d="M62,50.018c-18.582-2.189-25.82,14.061-60,6.334V62h60V50.018z"/>
</svg>
