<?xml version="1.0" encoding="utf-8"?>
<!-- Generator: Adobe Illustrator 15.0.0, SVG Export Plug-In . SVG Version: 6.00 Build 0)  -->
<!DOCTYPE svg PUBLIC "-//W3C//DTD SVG 1.1//EN" "http://www.w3.org/Graphics/SVG/1.1/DTD/svg11.dtd">
<svg version="1.1" id="Layer_1" xmlns="http://www.w3.org/2000/svg" xmlns:xlink="http://www.w3.org/1999/xlink" x="0px" y="0px"
	 width="64px" height="64px" viewBox="0 0 64 64" enable-background="new 0 0 64 64" xml:space="preserve">
<path fill="#FCD5B2" d="M34.122,13.588c0,0-1.21,5.119,0.05,8.521C26.185,27.759,27.241,13.798,34.122,13.588z"/>
<path fill="#DBA97F" d="M25.533,21.834c4.869-2.938,3.61,10.556,5.669-6.22L25.533,21.834z"/>
<path fill="#FCD5B2" d="M27.409,2.787C19.68,4.235,18.674,8.918,20,11.877c0.663,1.481,0.146,2.922-0.797,4.254
	c-0.896,1.266,0.623,1.683,1.47,1.524c0.314,0.53,0.019,0.743,0.019,0.743s1.204,0.547,1.025,0.842
	c-0.331,0.063-0.503,0.726,0.16,0.911c0.731,0.203-0.406,2.891,2.248,2.189c2.149-0.568,5.42-2.674,5.881-3.257
	c0.526-0.666,1.458-3.995,1.458-3.995C35.417,13.644,40.198,6.715,27.409,2.787z"/>
<path fill="#DBA97F" d="M30.173,12.304c-0.257-1.113,0.436-2.288,1.352-2.499c0,0-1.27,1.681-0.454,3.38
	C31.071,13.185,30.352,13.08,30.173,12.304z"/>
<path fill="#594640" d="M19.558,8.865c8.908-5.772,6.803,1.254,9.797,3.445c0.202-3.12,2.302-4.125,3.354-2.486
	c1.203,1.869,0.521,4.765-1.241,4.86c0.315,0.629,2.16,2.323,2.16,2.323c3.98-1.302,5.086-17.077-7.181-14.779
	C21.903,3.079,18.105,5.727,19.558,8.865z"/>
<path fill="#F2C198" d="M23.945,17.76c-0.564,1.473-1.33,2.264-1.854,2.615c-0.975-0.109-0.754-1.172-0.327-1.252
	C22.094,19.062,22.636,18.609,23.945,17.76z"/>
<path fill="#DBA97F" d="M23.945,17.76c-0.624,0.952-2.184,1.442-2.184,1.442c-0.249-0.031-0.937-0.096-1.069-0.804
	C21.217,18.673,22.86,18.449,23.945,17.76z"/>
<path fill-rule="evenodd" clip-rule="evenodd" fill="#DBA97F" d="M20.621,12.021c0.242-0.681,1.185-0.597,3.618-1.069
	C22.423,10.331,20.075,10.342,20.621,12.021z"/>
<path fill="#FFFFFF" d="M23.766,12.247c0.174,2.149-1.181,2.217-1.496,2.276C21.826,14.354,19.946,11.095,23.766,12.247z"/>
<path fill="#45332C" d="M21.382,13.189c0.566,1.578,1.386,1.73,0.989-0.407C22.08,11.213,20.925,11.922,21.382,13.189z"/>
<path fill-rule="evenodd" clip-rule="evenodd" fill="#45332C" d="M21.272,12.739c-0.063-1.602,1.814-0.843,2.642-0.494
	C22.744,12.28,21.865,11.926,21.272,12.739z"/>
<path fill="#CFD8DD" d="M51.021,52.891c2.029,0.521,0.579,5.527,3.973,5.063c0,0,2.12-3.767,0.208-7.533l-0.387-2.908
	C46.279,45.854,51.021,52.891,51.021,52.891z"/>
<path fill="#FCD5B2" d="M14.493,25.441l3.1-1.994c-0.778-2.619-2.273-3.552-2.531-2.701c0,0-1.274-1.656-2.944-0.746
	C10.263,21.012,12.066,23.771,14.493,25.441z"/>
<path fill="#7AB51D" d="M30.423,27.323c3.092-1.68-0.936-4.739-2.046-4.084c-3.935,2.32-5.988,3.392-6.635,3.177
	c-0.36-0.12-2.23-1.017-4.281-3.373c0,0-0.802,1.305-3.321,2.398c2.327,2.69,5.389,4.83,6.341,5.32
	C21.555,31.315,24.719,30.422,30.423,27.323z"/>
<path fill="#1A1626" d="M39.173,36.599l-9.342-1.015c5.642,15.348,4.795,17.482,21.616,17.822c0,0,2.254-6.32,1.063-6.458
	C40.518,45.561,42.048,46.648,39.173,36.599z"/>
<path fill="#CFD8DD" d="M14.631,56.334C13.188,57.77,9.155,54.22,8,57.248c0,0,2.552,3.523,6.997,3.707L17.916,62
	C23.483,55.711,14.631,56.334,14.631,56.334z"/>
<path fill="#302C3B" d="M39.846,36.434l-9.059-1.205c-0.616,4.363-11.29,1.146-16.486,21.074c0,0,5.737,4.629,6.306,3.042
	c2.742-7.642,5.713-11.241,7.202-12.086C33.647,43.947,42.748,42.188,39.846,36.434z"/>
<path fill="#92C932" d="M33.83,20.035c-1.337-0.544-3.963,4.235-5.161,2.55c-1.672,0.87-0.409,8.372,1.162,13.23
	c8.585-0.111,10.688,1.436,10.688,1.436C38.876,29.023,35.205,20.594,33.83,20.035z"/>
<path fill="#FCD5B2" d="M47.874,31.187l-3.659,0.801c-0.291,2.707,0.74,4.084,1.311,3.379c0,0,0.545,1.977,2.453,1.697
	C50.099,36.756,49.486,33.57,47.874,31.187z"/>
<path fill="#7AB51D" d="M34.578,20.463c-3.488-0.732-3.806,4.687-0.97,4.955c7.866,0.739,8.186,0.765,10.526,6.905
	c0,0,4.343-0.03,3.937-1.095C44.57,22.038,45.581,22.774,34.578,20.463z"/>
</svg>
