<?xml version="1.0" encoding="utf-8"?>
<!-- Generator: Adobe Illustrator 15.0.0, SVG Export Plug-In . SVG Version: 6.00 Build 0)  -->
<!DOCTYPE svg PUBLIC "-//W3C//DTD SVG 1.1//EN" "http://www.w3.org/Graphics/SVG/1.1/DTD/svg11.dtd">
<svg version="1.1" id="Layer_1" xmlns="http://www.w3.org/2000/svg" xmlns:xlink="http://www.w3.org/1999/xlink" x="0px" y="0px"
	 width="64px" height="64px" viewBox="0 0 64 64" enable-background="new 0 0 64 64" xml:space="preserve">
<path fill="#018BC9" d="M62,7.017C56.932,21.443,27.334,44.902,2,46.352V62h60V7.017z"/>
<path fill="#0FB4D4" d="M2,62h60V23.807C48.641,41.131,23.597,51.973,2,52.018V62z"/>
<path fill="#75D6FF" d="M62,35.217C54.58,49.723,24.33,58.529,2,57.352V62h60V35.217z"/>
<path fill="#018BC9" d="M52.32,58.568c4.406,1.326,1.479-2.74,5.166-2.25c5.686,0.758-0.043-3.029,2.709-4.424
	c5.938-3.012-4.848-1.543-2.834-4.283c2.012-2.738-4.77,0.377-5.916-1.334c-2.779-4.15-2.404,2.57-5.557,1.541
	C38.363,45.363,42.938,55.748,52.32,58.568z"/>
<path fill="#D9F1F7" d="M51.787,57.986c4.023,1.209,1.352-2.502,4.717-2.055c5.191,0.691-0.039-2.766,2.473-4.039
	c5.42-2.748-4.424-1.41-2.588-3.91c1.838-2.5-4.354,0.346-5.4-1.219c-2.537-3.787-2.193,2.348-5.072,1.408
	C39.045,45.93,43.223,55.41,51.787,57.986z"/>
<path fill="#FCD5B2" d="M59.889,25.389c2.758-0.178-0.486-1.225-0.486-1.225c-0.229-0.736-2.523-0.539-5.066,0
	c-2.398,0.508-4.133-0.539-6.273-0.5c0,0-1.588-1.148-4.223-2.268c0,0-1.531-1.859-3.688-2.166
	c-2.107-0.299-2.943,0.178-2.678-2.488l-3.408-0.678c-0.775,2.422-2.98,1.977-4.389,1.877c-3.494-0.244-5.2,1.445-6.002,3.971
	c-1.033,0.857-1.95,1.887-2.796,3.211c-0.802,1.254-1.433,2.006-1.418,4.373c0.014,1.777-0.062,3.887-0.228,5.059
	c-0.305,2.168-0.064,4.654,0.585,6.023c1.312,2.762,0.374-2.93,1.511-3.449c0.718,3.721,1.592,0.688,0.24-2.229
	c-0.612-1.32,0.955-6.586,0.955-6.586s3.092-1.027,3.895-3.418c-0.836,4.666,0.744,3.813-0.288,7.609c0,0,10.335,1.33,10.335,1.309
	c0.313-6.031,2.633-3.83,3.6-9.295c0,0,4.223,1.549,6.732,2.061c2.736,0.648,7.73-0.518,7.73-0.518
	c4.115,0.748,4.439,0.641,2.762-0.225C57.258,25.484,58.494,25.479,59.889,25.389z"/>
<path fill-rule="evenodd" clip-rule="evenodd" fill="#60117D" d="M16.812,59.83C14.217,59.699,3,59.375,3,57.41
	c0-0.799,3.789-2.473,8.376-3.703c20.731-5.568,41.063-5.889,41.063-4.605c0,0.639-0.779,1.635,0,2.34
	c2.248,2.035,5.229,2.068,5.229,2.18C57.668,55.832,40.227,61,16.812,59.83z"/>
<path fill="#AA5BEF" d="M52.439,51.441c-0.42-0.381-0.385-0.844-0.268-1.291c-5.797,0.754-37.65,4.898-47.76,6.076
	C3.523,56.697,3,57.115,3,57.41c0,0.371,0.4,0.684,1.068,0.949l50.512-5.564C53.867,52.488,53.121,52.059,52.439,51.441z"/>
<path fill-rule="evenodd" clip-rule="evenodd" fill="#E84D88" d="M36.795,33.287c0,0,0.225,0.604,0.623,1.023
	c3.693,0.572,7.828,1.666,8.492,3.254c0.465,1.107-1.35,4.857-1.623,6.365c-0.828,4.549-7.711-3.033-8.73-2.227
	c-0.68,0.539,0.762,2.338,0.309,2.74c-1.193,1.053-6.826,2.734-8.941,0.32c-0.713-0.813-0.194-2.393-0.672-2.82
	c-3.622-3.25-1.213-5.535-0.12-9.744C26.132,32.199,27.941,32.924,36.795,33.287z"/>
<path fill-rule="evenodd" clip-rule="evenodd" fill="#DBA97F" d="M21.57,26.961l0.955,1.354l-0.822,3.369
	C22.208,28.689,21.57,26.961,21.57,26.961z"/>
<ellipse fill-rule="evenodd" clip-rule="evenodd" fill="#DBA97F" cx="37.173" cy="25.701" rx="0.528" ry="0.447"/>
<ellipse fill-rule="evenodd" clip-rule="evenodd" fill="#DBA97F" cx="29.653" cy="24.676" rx="0.528" ry="0.447"/>
<path fill-rule="evenodd" clip-rule="evenodd" fill="#DBA97F" d="M26.42,23.182c0,0,0.174,2.123,2.771,2.988
	C27.291,24.734,26.42,23.182,26.42,23.182z"/>
<path fill-rule="evenodd" clip-rule="evenodd" fill="#DBA97F" d="M43.523,25.221c0,0,2.113,0.883,4.188-0.795
	C45.424,25.266,43.523,25.221,43.523,25.221z"/>
<path fill-rule="evenodd" clip-rule="evenodd" fill="#8C0B5E" d="M35.146,42.498c0,1.822-1.645,3.301-3.671,3.301
	s-4.142,0.092-4.142-1.73s0.941-4.775,4.142-4.873C33.502,39.135,35.146,40.674,35.146,42.498z"/>
<path fill-rule="evenodd" clip-rule="evenodd" fill="#8C0B5E" d="M44.336,41.457c0,1.822-1.201,5.305-2.404,2.195
	c-0.658-1.705,1.154-6.203,2.957-6.203C47.207,37.449,44.336,39.633,44.336,41.457z"/>
<path fill-rule="evenodd" clip-rule="evenodd" fill="#FCD5B2" d="M34.27,43.494c1.732-3.783-4.636-5.643-5.737-1.379
	c-1.095,4.236-0.946,6.291-1.167,8.557c-0.118,1.219-1.166,2.033-0.967,2.5c0.631,1.488,0.639,3.791,1.2,4.199
	c0.659,0.48,4.099-0.236,4.19-0.711c0.244-1.244-1.982-2.709-1.381-5.516C30.927,48.727,33.088,46.068,34.27,43.494z"/>
<path fill-rule="evenodd" clip-rule="evenodd" fill="#FCD5B2" d="M50.453,41.033c-0.027-0.857-2.672-2.699-5.652-3.469
	c-1.688,0.385-2.652,4.143-2.223,4.727c0.861,1.01,2.893,1.428,2.893,1.428c-1.457,1.717,0.287,3.279-0.326,6.217
	c-0.404,1.922-0.346,3.566,1.098,4.578c0.672,0.471,4.51-0.441,4.215-1.158c-0.604-1.465-2.355-2.693-2.42-3.902
	C47.881,46.486,50.578,44.863,50.453,41.033z"/>
<path fill-rule="evenodd" clip-rule="evenodd" fill="#A6E639" d="M24.33,38.715c0,0,0,1.859,1.922,3.229c0,0,0.113-3.869,3.16-5.023
	C29.412,36.92,25.646,36.621,24.33,38.715z"/>
<path fill-rule="evenodd" clip-rule="evenodd" fill="#A6E639" d="M25.672,33.703c0,0-0.985,1.262-1.184,3.426
	c0,0,1.885-2.818,6.361-2.32C30.85,34.809,27.983,32.754,25.672,33.703z"/>
<path fill-rule="evenodd" clip-rule="evenodd" fill="#A6E639" d="M38.295,34.436c0,0,1.625-0.006,3.328,0.756
	c0,0-3.344-0.451-5.018,0.814C36.605,36.006,36.719,34.311,38.295,34.436z"/>
<path fill-rule="evenodd" clip-rule="evenodd" fill="#A6E639" d="M42.477,35.449c0,0,1.551,0.381,2.531,1.141
	c0,0-3.076-0.727-4.748,0.539C40.26,37.129,40.9,35.322,42.477,35.449z"/>
<path fill-rule="evenodd" clip-rule="evenodd" fill="#A6E639" d="M37.043,33.797c-3.621,0.781-9.375-1.188-11.11-0.895
	c-0.347,0.059-0.01-1.363,0.341-1.367c3.918-0.02,6.857,1.225,10.371,1.057C36.965,32.578,37.418,33.715,37.043,33.797z"/>
<path fill="#018BC9" d="M56.977,44.43c-0.783-1.078,2.453-3.43,3.236-2.352S57.76,45.508,56.977,44.43z"/>
<path fill="#018BC9" d="M48.48,59.031c0.645-1.166,4.145,0.77,3.5,1.938C51.336,62.135,47.836,60.199,48.48,59.031z"/>
<path fill="#018BC9" d="M52.811,42.521c-0.793-0.279,0.047-2.662,0.842-2.381C54.445,40.42,53.605,42.801,52.811,42.521z"/>
<path fill="#594640" d="M36.83,2.059c-6.92-0.606-7.287,3.558-7.742,8.764l13.844,1.213C43.388,6.828,43.75,2.664,36.83,2.059z"/>
<path fill="#F2C198" d="M30.285,12.968c0.811-0.632,0.369-3.43-0.583-3.68C27.668,8.755,28.536,14.332,30.285,12.968z"/>
<path fill="#F2C198" d="M41.381,13.938c-0.688-0.763,0.23-3.442,1.213-3.522C44.689,10.245,42.867,15.586,41.381,13.938z"/>
<path fill="#FCD5B2" d="M36.587,4.834c-7.229-0.633-4.39,0.459-6.692,4.538c0,0-0.156,1.949,0.065,4.073
	c0.286,2.739,3.136,5.072,5.413,5.271s5.488-1.604,6.245-4.251c0.587-2.054,0.771-4,0.771-4C40.83,6.049,43.817,5.467,36.587,4.834z
	"/>
<path fill="#F5F5F5" d="M41.225,10.981c-0.82,1.683-3.519,1.19-3.91-0.071C37.863,8.985,41.02,9.092,41.225,10.981z"/>
<path fill="#45332C" d="M38.048,10.518c-0.134,1.535,2.087,1.73,2.222,0.193C40.395,9.285,38.173,9.091,38.048,10.518z"/>
<path fill="#45332C" d="M41.227,10.97c0.164-1.871-3.724-2.211-3.913-0.045C38.023,9.196,40.801,9.44,41.227,10.97z"/>
<path fill="#F5F5F5" d="M30.951,10.083c0.518,1.8,3.26,1.783,3.863,0.609C34.609,8.701,31.482,8.258,30.951,10.083z"/>
<path fill="#45332C" d="M34.161,10.177c-0.134,1.536-2.355,1.341-2.222-0.195C32.064,8.556,34.285,8.751,34.161,10.177z"/>
<path fill="#45332C" d="M30.953,10.07c0.163-1.869,4.051-1.529,3.861,0.635C34.415,8.881,31.638,8.638,30.953,10.07z"/>
<path fill="#CC9D76" d="M35.704,14.924c-1.093-0.395-2.789-0.102-2.789-0.102c0.578,0.674,0.97,1.518,2.652,1.664
	c1.928,0.168,2.335-0.715,2.901-1.178C38.469,15.309,36.848,14.725,35.704,14.924z"/>
<path fill="#FFFFFF" d="M33.305,14.878c1.092,1.208,3.492,1.426,4.786,0.419C36.817,15.246,34.575,15.051,33.305,14.878z"/>
<path fill="#DBA97F" d="M41.228,9.25c-1.149-0.598-2.774-0.836-3.642-0.582c-0.184,0.054-0.215,0.478-0.055,0.449
	c1.23-0.222,2.617-0.126,3.721,0.37C41.4,9.553,41.4,9.338,41.228,9.25z"/>
<path fill="#DBA97F" d="M31.25,8.376c1.236-0.388,2.877-0.341,3.688,0.06c0.171,0.085,0.129,0.508-0.023,0.451
	c-1.174-0.432-2.556-0.578-3.729-0.282C31.027,8.646,31.064,8.434,31.25,8.376z"/>
<path fill="#594640" d="M42.171,4.68c2.269,3.762-9.619,1.792-12.063,1.059C30.107,5.739,34.199,1.072,42.171,4.68z"/>
<path fill="#422F2A" d="M30.107,5.739c3.51,1.065,14.451,1.917,11.336-2.112C46.662,8.592,32.979,7.797,30.107,5.739z"/>
<path fill="#DBA97F" d="M37.243,13.318c-0.078,0.902-2.855,0.66-2.776-0.243C34.485,12.867,37.262,13.111,37.243,13.318z"/>
</svg>
