<?xml version="1.0" encoding="utf-8"?>
<!-- Generator: Adobe Illustrator 15.0.0, SVG Export Plug-In . SVG Version: 6.00 Build 0)  -->
<!DOCTYPE svg PUBLIC "-//W3C//DTD SVG 1.1//EN" "http://www.w3.org/Graphics/SVG/1.1/DTD/svg11.dtd">
<svg version="1.1" id="Layer_1" xmlns="http://www.w3.org/2000/svg" xmlns:xlink="http://www.w3.org/1999/xlink" x="0px" y="0px"
	 width="64px" height="64px" viewBox="0 0 64 64" enable-background="new 0 0 64 64" xml:space="preserve">
<path fill="#785647" d="M32,62c-30.666,0-30.666-5.999,0-5.999C62.667,56.001,62.667,62,32,62z"/>
<rect x="9" y="54" fill="#785647" width="46" height="5.002"/>
<path fill="#8A6859" d="M32,57c-30.666,0-30.666-6,0-6C62.667,51,62.667,57,32,57z"/>
<path fill="#785647" d="M32,56c-25.332,0-25.332-4.799,0-4.799C57.334,51.201,57.334,56,32,56z"/>
<rect x="13" y="50.4" fill="#785647" width="38" height="3.2"/>
<path fill="#8A6859" d="M32,52.801C6.668,52.801,6.668,48,32,48C57.334,48,57.334,52.801,32,52.801z"/>
<path fill="#F59E01" d="M45.325,25.36c4.876,1.577,13.441-3.916,13.441-13.996c0-6.163-4.101-6.24-4.101-3.089
	c0,3.321-3.151,2.128-3.151-1.183C51.515-0.941,62,0.713,62,10.77c0,15.602-14.287,20.244-18.132,17.079
	C43.023,27.414,43.311,24.708,45.325,25.36z"/>
<path fill-rule="evenodd" clip-rule="evenodd" fill="#F9C802" d="M51.75,6.57c-0.146,0.719,1.438-3.078,4.166-3.96
	C57.094,2.23,52.735,1.69,51.75,6.57z"/>
<path fill="#F9C802" d="M18.676,25.36c-4.877,1.577-13.441-3.916-13.441-13.996c0-6.163,4.101-6.24,4.101-3.089
	c0,3.321,3.151,2.128,3.151-1.183C12.486-0.941,2,0.713,2,10.77c0,15.602,14.287,20.244,18.133,17.079
	C20.977,27.414,20.689,24.708,18.676,25.36z"/>
<path fill="#F9C802" d="M34.659,39.968C34.659,34.392,53,30.322,53,4.198c0-2.931-42-2.931-42,0
	c0,26.124,18.342,30.194,18.342,35.77c0,6.962-13.246,4.84-13.246,10.386c0,2.195,31.811,2.195,31.811,0
	C47.906,44.808,34.659,46.93,34.659,39.968z"/>
<path fill="#FEEC9A" d="M14.468,7.919c0.765-0.902,9.152-0.824,14.757-1.224c3.757-0.268-10.136,0.009-17.043-1.445
	c0.347,15.262,7.092,22.712,12.299,27.448C15.203,24.105,13,9.652,14.468,7.919z"/>
<path fill="#FEEC9A" d="M18.547,50.432c0-3.786,6.984-3.6,10-6.878c-4.25,3.097-11.432,2.625-11.432,6.654
	C17.115,50.627,18.547,50.773,18.547,50.432z"/>
<path fill="#D47706" d="M51,3.938c0,2.083-38,2.083-38,0S51,1.854,51,3.938z"/>
<path fill="#F59E01" d="M34.659,39.969c0-5.574,18.997-9.848,18.452-35.732c-0.288,0.922-3.408,1.429-8.139,1.795
	c-0.564,24.476-12.313,28.494-12.313,33.938c0,6.962,8.247,4.839,8.247,10.385c0,0.965-5.559,1.506-11.792,1.623
	c8.788,0.149,18.792-0.391,18.792-1.623C47.906,44.808,34.659,46.931,34.659,39.969z"/>
<path fill="#AB5C10" d="M13,3.938c0,0.833,6.066,1.331,13.35,1.499c-0.491-0.894-0.824-1.882-0.951-2.973
	C18.547,2.651,13,3.142,13,3.938z"/>
<path fill-rule="evenodd" clip-rule="evenodd" fill="#FEEC9A" d="M2.93,7.788C2.732,8.701,4.875,3.882,8.564,2.762
	C10.156,2.279,4.263,1.594,2.93,7.788z"/>
</svg>
