<?xml version="1.0" encoding="utf-8"?>
<!-- Generator: Adobe Illustrator 15.0.0, SVG Export Plug-In . SVG Version: 6.00 Build 0)  -->
<!DOCTYPE svg PUBLIC "-//W3C//DTD SVG 1.1//EN" "http://www.w3.org/Graphics/SVG/1.1/DTD/svg11.dtd">
<svg version="1.1" id="Layer_1" xmlns="http://www.w3.org/2000/svg" xmlns:xlink="http://www.w3.org/1999/xlink" x="0px" y="0px"
	 width="64px" height="64px" viewBox="0 0 64 64" enable-background="new 0 0 64 64" xml:space="preserve">
<path fill="#92C932" d="M44,37L2,36V26c16,0,24.797-5,26-5c0,0,7.588,7.333,16,10V37z"/>
<path fill="#7AB51D" d="M28,21c-1.25,0,4,3-2,7.5l12-3.037C38,25.463,28.753,21,28,21z"/>
<path fill="#529320" d="M62,20c-3.666,0-10.525-4-14-4c-2.5,0-7.588,5.333-16,8c-7.248,2.297-30,5-30,5v3h60V20z"/>
<path fill="#7AB51D" d="M48,26c-4.122,0.07-13,4-20,4c-7.648,0-26-6-26-6v38h60V29C57,29,51.579,25.939,48,26z"/>
<path fill="#785647" d="M15,23h-2l-1,10c0,0.553,0.896,1,2,1s2-0.447,2-1L15,23z"/>
<path fill="#297124" d="M7.602,24.012C6.048,24.939,4,26.123,4,27.748c0,0.813,2.639-0.487,2.639,1.218
	c0,0.926,1.21,1.544,2.311,0.813c1.099-0.732,2.034-1.3,3.272-0.163c1.238,1.138,1.788,1.95,2.887,0.894
	c1.1-1.056,1.539-1.623,2.64-1.056c1.101,0.57,1.541,0.73,2.31-0.163c0.771-0.893,1.487-1.623,3.053-1.056
	c1.566,0.57,1.236-2.017-2.393-3.899C15.549,21.657,14.999,18,13.938,18C12.222,18,12.909,20.843,7.602,24.012z"/>
<path fill="#529320" d="M8.313,19.511c-1.382,0.928-3.202,2.111-3.202,3.737c0,0.812,2.347-0.488,2.347,1.218
	c0,0.926,1.075,1.542,2.053,0.812c0.979-0.73,1.809-1.3,2.909-0.163c1.1,1.137,1.589,1.951,2.566,0.894
	c0.979-1.056,1.369-1.623,2.347-1.056c0.978,0.569,1.369,0.732,2.054-0.163c0.684-0.893,1.32-1.623,2.713-1.056
	c1.393,0.569,1.099-2.018-2.127-3.898c-4.595-2.681-5.084-6.337-6.027-6.337C12.419,13.5,13.029,16.344,8.313,19.511z"/>
<path fill="#7AB51D" d="M9.023,15.011c-1.209,0.927-2.801,2.111-2.801,3.737c0,0.812,2.053-0.486,2.053,1.219
	c0,0.926,0.94,1.544,1.796,0.812c0.855-0.73,1.583-1.298,2.545-0.161c0.962,1.138,1.391,1.949,2.245,0.894
	c0.855-1.056,1.199-1.625,2.054-1.056c0.854,0.567,1.198,0.729,1.797-0.163s1.156-1.625,2.374-1.056
	c1.219,0.567,0.96-2.018-1.861-3.899C15.204,12.655,14.777,9,13.951,9C12.617,9,13.15,11.843,9.023,15.011z"/>
<path fill="#92C932" d="M9.734,11.011c-1.036,0.928-2.4,2.111-2.4,3.737c0,0.812,1.76-0.488,1.76,1.218
	c0,0.926,0.806,1.542,1.539,0.811c0.734-0.73,1.357-1.299,2.182-0.162c0.826,1.137,1.192,1.95,1.926,0.893
	c0.734-1.055,1.027-1.623,1.76-1.055c0.732,0.569,1.025,0.731,1.54-0.162c0.513-0.895,0.989-1.625,2.035-1.057
	c1.045,0.569,0.823-2.018-1.595-3.897C15.032,8.656,14.667,5,13.958,5C12.814,5,13.273,7.844,9.734,11.011z"/>
<polygon fill="#297124" points="40,21 39,25 41,25 "/>
<path fill="#92C932" d="M62,31c0,0-22.943,5-40.223,5C4.5,36,6.25,38.75,10.5,41S24,48.212,16,52.588C8.52,56.68,2,55.25,2,62h60V31
	z"/>
<polygon fill="#297124" points="45,19 44,23 46,23 "/>
<polygon fill="#297124" points="49,16 48,20 50,20 "/>
<polygon fill="#297124" points="52,18 51,22 53,22 "/>
<polygon fill="#297124" points="54,22 53,26 55,26 "/>
<polygon fill="#297124" points="58,20 57,24 59,24 "/>
<path fill="#D99025" d="M18,41c0,0,1,1.883,1,4l2.184,1.125l5.52-0.643l7.406,7.301L38.412,55L59,45c0-2.117,1-4,1-4H18z"/>
<path fill="#F9C802" d="M27.706,27l21.588-4c0,0,3.456,12.5,10.706,18l-19.588,8C40.412,49,27.706,39.616,27.706,27z"/>
<path fill="#D99025" d="M27.706,27c0,0-4.706,10.167-9.706,14l22.412,8C32,40.883,27.706,27,27.706,27z"/>
<path fill="#45332C" d="M21.182,46.124l12.922,6.655c-4.604-11.006-6.396-22.013-6.396-22.013S24.828,40.186,21.182,46.124z"/>
<path fill="#594640" d="M21.182,46.124l12.922,6.655c-1.406-3.361-2.549-6.721-3.459-9.771L21.182,46.124z"/>
<path fill="#FFE12C" d="M40.412,49c0,0,8.588-6,19.588-8L40.412,49z"/>
<path fill="#FFE12C" d="M27.706,27c0,0,13.794,0.354,21.588-4L27.706,27z"/>
</svg>
