<?xml version="1.0" encoding="utf-8"?>
<!-- Generator: Adobe Illustrator 15.0.0, SVG Export Plug-In . SVG Version: 6.00 Build 0)  -->
<!DOCTYPE svg PUBLIC "-//W3C//DTD SVG 1.1//EN" "http://www.w3.org/Graphics/SVG/1.1/DTD/svg11.dtd">
<svg version="1.1" id="Layer_1" xmlns="http://www.w3.org/2000/svg" xmlns:xlink="http://www.w3.org/1999/xlink" x="0px" y="0px"
	 width="64px" height="64px" viewBox="0 0 64 64" enable-background="new 0 0 64 64" xml:space="preserve">
<polygon fill="#4E5E67" points="20.62,20.089 45.561,13.812 62,27.198 62,58 2,58 2,40.965 "/>
<path fill="#BEC3CF" d="M34.795,18.439c0,0,2.412-16.301,2.857-16.422c0.203-0.057,0.604,0.132,0.998,0.347
	c0.867,0.474,0.955,0.155,1.752-0.168c0.652-0.26,1.176,0.38,1.564,0.763c1.609,1.58,3.99,6.378,5.357,8.445
	c2.053,3.103,8.928,11.125,8.928,11.125s1.381,1.956,2.828,6.167c0,0-2.84-2.966-3.969-3.039c-0.695-0.046-0.133,3.039-0.133,3.039
	l-4.158-4.358l1.67,5.833c0,0-7.24-10.161-7.498-9.385c-0.422,1.273,2.916,7.519,2.916,7.519l-3.535-2.682l3.066,6.975
	c0,0-6.32-6.183-2.445,3.545l-14.088-8.187L34.795,18.439z"/>
<path fill="#F9FBFC" d="M25.553,14.156c4.48,2.471,8.918-7.794,10.76-10.661c0.32-0.499,1.102-1.659,1.539-1.476
	c1.113,0.474,1.719,5.003,2.643,5.942c0,0-0.561,1.074-0.229,3.351c0,0-1.094-1.965-1.094-0.446c0,3.039-1.445,2.855-1.719,4.246
	c-1.09,5.587-4.15,10.511-4.15,10.511L25.553,14.156z"/>
<polygon fill="#F9FBFC" points="50.662,21.322 47.439,13.681 48.416,18.308 "/>
<polygon fill="#F9FBFC" points="46.33,17.927 46.33,14.89 43.074,10.33 "/>
<path fill="#BEC3CF" d="M17.184,29.638c0,0,2.814-16.301,3.334-16.423c0.236-0.057,0.705,0.133,1.164,0.347
	c1.012,0.474,1.115,0.155,2.045-0.167c0.76-0.261,1.371,0.379,1.826,0.762c1.877,1.58,4.654,6.379,6.25,8.445
	c2.395,3.103,13.191,13.541,13.191,13.541S37,31.921,38.033,35.84l-4.215-1.26l0.715,3.219c0,0-3.242-3.679-5.789-4.549
	c-5.061-1.729-0.559,7.583-0.559,7.583s-4.438-4.738-6.777-5.203c-3.039-0.606-8.762,3.524-8.762,3.524L17.184,29.638z"/>
<path fill="#F9FBFC" d="M2,34.426c0,0,5.268-4.39,8.504-8.071c2.313-2.628,6.301-8.795,8.451-11.662
	c0.373-0.499,1.285-1.659,1.795-1.476c1.299,0.474,2.828,6.637,3.908,7.576c0,0-3.262-3.536-2.875-1.26c0,0,0.508,4.051,0.508,5.569
	c0,3.039-4.141,0.486-4.26,1.916c-0.541,6.513-5.385,12.136-5.385,12.136l0.781-2.813c-2.43-0.135-3.848,1.741-3.848,1.741
	s-0.146-2.614-0.955-2.279C6.221,36.8,2,40.965,2,40.965V34.426z"/>
<polygon fill="#F9FBFC" points="39.01,31.75 35.25,24.108 36.389,28.735 "/>
<polygon fill="#F9FBFC" points="27.453,31.154 27.453,28.116 23.652,23.558 "/>
<path fill="#92C932" d="M62,50.665c-1.713,0.271-3.334,0.795-4.816,1.534c-0.863-1.06-2.223-1.744-3.754-1.744
	c-1.328,0-2.529,0.517-3.391,1.347c-0.328-0.292-0.771-0.473-1.262-0.473c-0.736,0-1.369,0.404-1.666,0.989
	c-0.658-0.304-1.396-0.476-2.178-0.476c-1.094,0-2.104,0.334-2.922,0.896c-1.273-1.396-3.162-2.284-5.275-2.284
	c-2.059,0-3.908,0.844-5.18,2.18c-0.521-0.782-1.447-1.306-2.504-1.306c-1.332,0-2.461,0.831-2.826,1.972
	c-0.902-0.896-2.18-1.458-3.596-1.458c-1.014,0-1.955,0.287-2.74,0.778C19.836,50.06,17.611,48,14.873,48
	c-2.498,0-4.568,1.711-4.957,3.951c-1.195-0.934-2.73-1.496-4.404-1.496c-1.275,0-2.469,0.328-3.494,0.894V62H62V50.665z"/>
<path fill="#529320" d="M62,58.032c-2.17-1.61-5.25-1.955-7.77-0.89c-0.684,0.29-1.316,0.681-1.887,1.137
	c-0.689,0.553-0.961,0.086-1.758-0.102c-0.682-0.162-1.406-0.199-2.104-0.131c-0.059,0.005-1.395,0.337-1.393,0.338
	c-0.406-0.512-1.135-0.802-1.805-0.811c-0.273-0.003-0.563,0.05-0.818,0.138c-0.584,0.201-0.49,0.184-1.039-0.139
	c-1.195-0.702-2.578-0.921-3.947-0.58c-0.609,0.15-1.188,0.404-1.701,0.746c-0.344,0.229-0.857,0.971-1.33,0.805
	c-1.48-0.519-2.873-0.917-4.441-1.146c1.512,0.376,3.137,0.806,4.463,1.614c0.51,0.312,0.611,0.036,0.961-0.349
	c0.527-0.578,1.473-0.921,2.25-1.048c0.801-0.13,1.621-0.063,2.375,0.224c0.654,0.25,0.992,0.667,1.51,1.088
	c0.48,0.39,0.787-0.043,1.234-0.271c0.754-0.384,1.363,0.233,1.697,0.79c0.283,0.467,1.146-0.117,1.613-0.212
	c0.914-0.187,1.961-0.081,2.797,0.316c0.205,0.1,1.051,0.822,1.27,0.682c0.502-0.321,0.811-0.876,1.313-1.222
	c2.668-1.835,6.287-1.313,8.51,0.914C62,59.323,61.98,58.524,62,58.032C59.814,56.411,62,58.032,62,58.032z M45.246,58.545
	C45.258,58.545,45.258,58.545,45.246,58.545C45.246,58.545,45.258,58.545,45.246,58.545C45.25,58.545,45.258,58.545,45.246,58.545z
	 M49.107,59.138C49.111,59.138,49.127,59.138,49.107,59.138C49.107,59.138,49.111,59.138,49.107,59.138z"/>
<path fill="#529320" d="M34.955,55.175c-2.273-1.116-5.055-1.021-7.207,0.299c-0.607-2.114-2.643-3.836-5.021-3.89
	c-1.463-0.032-2.967,0.42-4.043,1.372c-0.467,0.414-0.979,0.955-1.205,1.527c-0.148,0.373-0.164,0.945-0.477,1.24
	c-1.322-0.548-3.004-0.616-4.346-0.075c-0.342,0.139-1.146,0.806-1.396,0.415c-0.33-0.519-0.988-0.899-1.576-1.111
	c-0.666-0.238-1.385-0.294-2.082-0.151c-0.299,0.061-0.588,0.155-0.863,0.281c-0.221,0.101-0.74,0.597-0.98,0.558
	c-0.207-0.035-0.475-0.357-0.641-0.468c-0.334-0.224-0.689-0.416-1.059-0.58c-0.648-0.289-1.338-0.489-2.041-0.618
	C2.018,54.399,2,54.824,2,55.248c0,0.163,1.266,0.496,1.494,0.606c0.955,0.458,1.689,1.189,2.416,1.913
	c0.77-0.905,1.58-1.923,2.986-1.613c1.182,0.263,1.637,1.497,1.998,2.448c0.943-0.857,1.926-1.794,3.287-1.979
	c1.457-0.198,2.727,0.456,3.949,1.104c0.146-2.447,1.021-4.627,3.873-5.104c2.836-0.47,4.676,1.668,5.301,3.986
	c2.359-1.814,5.275-2.399,8.102-1.178c-0.158-0.097-0.32-0.192-0.486-0.275C35,55.198,35.012,55.203,34.955,55.175
	C32.652,54.044,35.111,55.252,34.955,55.175z"/>
</svg>
