<?xml version="1.0" encoding="utf-8"?>
<!-- Generator: Adobe Illustrator 15.0.0, SVG Export Plug-In . SVG Version: 6.00 Build 0)  -->
<!DOCTYPE svg PUBLIC "-//W3C//DTD SVG 1.1//EN" "http://www.w3.org/Graphics/SVG/1.1/DTD/svg11.dtd">
<svg version="1.1" id="Layer_1" xmlns="http://www.w3.org/2000/svg" xmlns:xlink="http://www.w3.org/1999/xlink" x="0px" y="0px"
	 width="64px" height="64px" viewBox="0 0 64 64" enable-background="new 0 0 64 64" xml:space="preserve">
<rect x="2" y="24" fill="#7AB51D" width="60" height="38"/>
<rect x="33" y="9" fill="#6E8189" width="4" height="8"/>
<rect x="32" y="7" fill="#99A8AE" width="6" height="2"/>
<polygon fill="#E03636" points="45,2 28,18 62,18 "/>
<polygon fill="#6E8189" points="45,5 31,18 59,18 "/>
<polygon fill="#99A8AE" points="45,8 31,18 31,36 59,36 59,18 "/>
<path fill="#45332C" d="M45,20v10h12V20H45z"/>
<rect x="47" y="22" fill="#018BC9" width="8" height="6"/>
<rect x="33" y="20" fill="#45332C" width="10" height="16"/>
<rect x="35" y="22" fill="#785647" width="6" height="14"/>
<rect x="7" y="23" fill="#6E8189" width="4" height="8"/>
<rect x="6" y="21" fill="#99A8AE" width="6" height="2"/>
<polygon fill="#E03636" points="19,16 2,32 36,32 "/>
<polygon fill="#99A8AE" points="19,19 5,32 33,32 "/>
<polygon fill="#BEC3CF" points="19,22 5,32 5,50 33,50 33,32 "/>
<path fill="#45332C" d="M19,34v10h12V34H19z"/>
<rect x="21" y="36" fill="#018BC9" width="8" height="6"/>
<rect x="7" y="34" fill="#45332C" width="10" height="16"/>
<rect x="9" y="36" fill="#785647" width="6" height="14"/>
<polygon fill="#E03636" points="42,19 22,38 62,38 "/>
<polygon fill="#BEC3CF" points="42,22 25,38 59,38 "/>
<polygon fill="#E6EBEF" points="42,25 25,38 25,60 59,60 59,38 "/>
<path fill="#594640" d="M41,40v13h16V40H41z"/>
<rect x="43" y="42" fill="#75D6FF" width="12" height="9"/>
<rect x="27" y="40" fill="#45332C" width="12" height="20"/>
<rect x="29" y="42" fill="#8A6859" width="8" height="18"/>
<rect x="34" y="50" fill="#45332C" width="2" height="1"/>
</svg>
