<?xml version="1.0" encoding="utf-8"?>
<!-- Generator: Adobe Illustrator 16.2.0, SVG Export Plug-In . SVG Version: 6.00 Build 0)  -->
<!DOCTYPE svg PUBLIC "-//W3C//DTD SVG 1.1//EN" "http://www.w3.org/Graphics/SVG/1.1/DTD/svg11.dtd">
<svg version="1.1" id="Layer_1" xmlns="http://www.w3.org/2000/svg" xmlns:xlink="http://www.w3.org/1999/xlink" x="0px" y="0px"
	 width="64px" height="64px" viewBox="0 0 64 64" enable-background="new 0 0 64 64" xml:space="preserve">
<rect x="2" y="38" fill="#75D6FF" width="60" height="24"/>
<path fill="#FFFFFF" d="M59,45c0-3-3.501-5-3.501-5H9c0,0-4,3.587-4,5.001C5,47,8,50,17,50c4,0,11,4,15,4c4.123,0,11.186-3.579,16-4
	C50.988,49.738,59,49.334,59,45z"/>
<path fill="#FDCA47" d="M57,44c0,2.391-3.036,3-9,3c-4.58,0-9.66,4-16,4c-6.337,0-9.422-4-14-4c-5.193,0-11-3-11-3
	c0-7,12.333-10,25-10C42.5,34,57,36,57,44z"/>
<path fill="#D99025" d="M49.316,43.634c1.75,0,2.494-0.634,3.56-0.634c2.146,0,1.019,2-1.665,2
	C48.412,45,46.652,43.634,49.316,43.634z"/>
<path fill="#D99025" d="M24.316,45.366c1.75,0,2.494,0.634,3.56,0.634c2.145,0,1.018-2-1.665-2
	C23.412,44,21.653,45.366,24.316,45.366z"/>
<path fill="#D99025" d="M31.438,38c-6.793,0-6.497,4-3.063,4c3.502,0,5.02-1.646,8.169-1.646c6.127,0,6.468-1.569,4.085-1.569
	C38.247,38.784,37.29,38,31.438,38z"/>
<path fill="#529320" d="M18,19c0,4.193,3,8,3,8s0.178-2.391,1.221-5.197c-0.432-1.196-0.77-2.577-0.907-4.176
	c0,0,0.632,1.205,1.542,2.668c0.493-1.039,1.108-2.087,1.89-3.054c-0.198-0.802-0.351-1.669-0.432-2.614
	c0,0,0.422,0.803,1.068,1.888c1.923-2.038,4.673-3.56,8.619-3.56v-2.003C21.875,7.441,18,14.466,18,19z"/>
<path fill="#FFFFFF" d="M7,40"/>
<path fill="#D99025" d="M46,45c-3-2-5.5-0.5-7,1c-1.334,1.334-4,2-7,2s-7-2-14-2C7,46,7.763,41.184,7.762,41.182
	C7.271,42.038,7,42.975,7,44c0,3,5.807,4,11,4c4.578,0,7.663,4,14,4c6.34,0,11.42-4,16-4c5.964,0,9-1.609,9-4
	C55.895,46.364,49,47,46,45z"/>
<path fill="#FFFFFF" d="M8.146,51.313c-1.054-0.951,3.801,0.571,8.553,0.571C21.451,51.884,11.946,54.741,8.146,51.313z"/>
<path fill="#FFFFFF" d="M44.907,54c1.797,0,2.407-1.007,6.223-1.007c4.582,0,6.87-1.009,6.87-2.616c0-1.414-3.26,1.607-7.623,1.607
	C42.744,51.984,43.499,54,44.907,54z"/>
<path fill="#967668" d="M34,10h2c-2,11-1,28,0,29.005C34,41.002,30,39,30,39C30,16.582,34,10,34,10z"/>
<path fill="#D99025" d="M15.083,43c2.658,0-1.21-0.857-2.189-1.716C11.544,40.102,11.329,43,15.083,43z"/>
<path fill="#529320" d="M45,18.978c0-4.534-1.875-11.537-14-8.025v1.003c3.054,0,5.262,0.912,6.862,2.268
	c0.917-0.181,2.03-0.301,3.013-0.118c0,0-0.92,0.451-1.978,1.143C42.469,19.399,42,26,42,26s2.429-2.301,2.91-5.823
	c-1.208-0.809-2.142-1.355-2.142-1.355c0.796,0.105,1.529,0.262,2.219,0.448C44.99,19.172,45,19.077,45,18.978z"/>
<path fill="#92C932" d="M41,2.569c-0.746,0.317-1.406,0.662-2.021,1.017c0.406,0.707,0.743,1.524,0.884,2.442
	c0,0-0.631-0.875-1.782-1.883C33.525,7.194,33,11,33,11l1,1c4.199-3.601,8.597-5.004,11.165-5.395
	c-0.504-1.291-0.928-2.211-0.928-2.211c0.759,0.697,1.389,1.404,1.933,2.106C49.36,6.314,51,7.713,51,7.713S47.376-0.142,41,2.569z"
	/>
<path fill="#785647" d="M33,34h-2.927c-0.01,0.347-0.021,0.688-0.029,1.044L31,36L33,34z"/>
<path fill="#92C932" d="M27.55,2.502c-1.227,0.886-1.944,1.525-1.944,1.525c0.29-0.619,0.641-1.21,1.013-1.763
	C26.411,2.219,26.219,2.159,26,2.124c-6.894-1.091-10,5.387-10,5.387s1.633-1.074,4.44-1.263c0.687-0.859,1.532-1.729,2.572-2.567
	c0,0-0.587,1.088-1.252,2.548c0,0,5.702-0.767,12.24,5.771C34,12,33.886,4.558,27.55,2.502z"/>
<path fill="#785647" d="M35,32l0.017-0.017c-0.034-0.633-0.064-1.295-0.09-1.983H33L35,32z"/>
<path fill="#785647" d="M33,26h-2.466c-0.042,0.459-0.081,0.932-0.119,1.415L31,28L33,26z"/>
<path fill="#785647" d="M34.856,23.856c0.008-0.614,0.021-1.234,0.039-1.856H33L34.856,23.856z"/>
<path fill="#785647" d="M34,17h-2.195c-0.098,0.474-0.195,0.983-0.291,1.514L32,19L34,17z"/>
<path fill="#7AB51D" d="M50.125,14.105c0.407-0.894,0.63-2.701,0.748-4.167C47.953,6.713,42.125,5.539,34,11v2
	c0,0,5.478-3.026,10.702-0.126c0.447-1.419,0.716-2.502,0.716-2.502c0.172,1.105,0.219,2.125,0.191,3.075
	c0,0,3.141,3.053,5.391,7.553c0,0,2-1.665,2-5.547c0-1.318-0.326-2.648-0.956-3.845C51.069,13.103,50.125,14.105,50.125,14.105z"/>
<path fill="#7AB51D" d="M24.618,7c-0.669,0-1.364,0.086-2.051,0.234c-0.371,1.563-0.367,3.019-0.367,3.019
	c-0.374-1.059-0.548-1.979-0.612-2.76c-1.503,0.47-2.878,1.241-3.715,2.174c0.031,1.609,0.322,2.716,0.322,2.716
	c-0.481-0.539-0.837-1.132-1.109-1.728C14.582,14.185,14,19,14,19s3.624-7.084,13.732-6.919c0.189-0.668,0.475-1.348,0.906-1.987
	c0,0-0.099,0.812-0.02,2.024C30.251,12.209,32.038,12.482,34,13v-2C34,11,31.606,7,24.618,7z"/>
</svg>
