<?xml version="1.0" encoding="utf-8"?>
<!-- Generator: Adobe Illustrator 15.0.0, SVG Export Plug-In . SVG Version: 6.00 Build 0)  -->
<!DOCTYPE svg PUBLIC "-//W3C//DTD SVG 1.1//EN" "http://www.w3.org/Graphics/SVG/1.1/DTD/svg11.dtd">
<svg version="1.1" id="Layer_1" xmlns="http://www.w3.org/2000/svg" xmlns:xlink="http://www.w3.org/1999/xlink" x="0px" y="0px"
	 width="64px" height="64px" viewBox="0 0 64 64" enable-background="new 0 0 64 64" xml:space="preserve">
<rect x="2" y="60.125" fill="#BEC3CF" width="60" height="1.875"/>
<rect x="5.5" y="56.375" fill="#BEC3CF" width="53" height="1.875"/>
<rect x="3.75" y="58.25" fill="#E6EBEF" width="56.5" height="1.875"/>
<rect x="7.25" y="54.5" fill="#E6EBEF" width="49.5" height="1.875"/>
<rect x="4.813" y="27.769" fill="#99A8AE" width="54.375" height="1.877"/>
<rect x="2" y="29.646" fill="#E6EBEF" width="60" height="1.877"/>
<polygon fill="#99A8AE" points="31.989,4.84 2,21.235 4.512,24.989 31.989,6.691 59.488,24.989 62,21.235 "/>
<polygon fill="#E6EBEF" points="31.989,2 2,21.235 2,24.051 31.989,4.814 62,24.051 62,21.235 "/>
<polygon fill="#E6EBEF" points="31.989,6.691 2,25.928 2,27.804 62,27.804 62,25.928 "/>
<polygon fill="#BEC3CF" points="31.989,9.482 7.082,25.928 56.918,25.928 "/>
<rect x="8.5" y="33.196" fill="#E6EBEF" width="6" height="19.554"/>
<rect x="7.75" y="52.75" fill="#99A8AE" width="7.5" height="1.75"/>
<rect x="7.75" y="31.499" fill="#99A8AE" width="7.5" height="1.697"/>
<rect x="9.099" y="33.979" fill="#C8D0D6" width="0.708" height="18.04"/>
<rect x="13.193" y="33.979" fill="#C8D0D6" width="0.708" height="18.04"/>
<rect x="11.829" y="33.979" fill="#C8D0D6" width="0.707" height="18.04"/>
<rect x="10.464" y="33.979" fill="#C8D0D6" width="0.707" height="18.04"/>
<rect x="22.167" y="33.196" fill="#E6EBEF" width="6" height="19.615"/>
<rect x="21.417" y="52.812" fill="#99A8AE" width="7.5" height="1.688"/>
<rect x="21.417" y="31.499" fill="#99A8AE" width="7.5" height="1.697"/>
<rect x="22.766" y="33.979" fill="#C8D0D6" width="0.707" height="18.04"/>
<rect x="26.86" y="33.979" fill="#C8D0D6" width="0.707" height="18.04"/>
<rect x="25.495" y="33.979" fill="#C8D0D6" width="0.708" height="18.04"/>
<rect x="24.13" y="33.979" fill="#C8D0D6" width="0.708" height="18.04"/>
<rect x="35.834" y="33.196" fill="#E6EBEF" width="6" height="19.615"/>
<rect x="35.084" y="52.812" fill="#99A8AE" width="7.5" height="1.688"/>
<rect x="35.084" y="31.499" fill="#99A8AE" width="7.5" height="1.697"/>
<rect x="36.434" y="33.979" fill="#C8D0D6" width="0.707" height="18.04"/>
<rect x="40.527" y="33.979" fill="#C8D0D6" width="0.707" height="18.04"/>
<rect x="39.162" y="33.979" fill="#C8D0D6" width="0.707" height="18.04"/>
<rect x="37.797" y="33.979" fill="#C8D0D6" width="0.709" height="18.04"/>
<rect x="49.5" y="33.196" fill="#E6EBEF" width="6" height="19.554"/>
<rect x="48.75" y="52.75" fill="#99A8AE" width="7.5" height="1.75"/>
<rect x="48.75" y="31.499" fill="#99A8AE" width="7.5" height="1.697"/>
<rect x="50.1" y="33.979" fill="#C8D0D6" width="0.707" height="18.04"/>
<rect x="54.193" y="33.979" fill="#C8D0D6" width="0.707" height="18.04"/>
<rect x="52.828" y="33.979" fill="#C8D0D6" width="0.707" height="18.04"/>
<rect x="51.465" y="33.979" fill="#C8D0D6" width="0.707" height="18.04"/>
</svg>
