<?xml version="1.0" encoding="utf-8"?>
<!-- Generator: Adobe Illustrator 15.0.0, SVG Export Plug-In . SVG Version: 6.00 Build 0)  -->
<!DOCTYPE svg PUBLIC "-//W3C//DTD SVG 1.1//EN" "http://www.w3.org/Graphics/SVG/1.1/DTD/svg11.dtd">
<svg version="1.1" id="Layer_1" xmlns="http://www.w3.org/2000/svg" xmlns:xlink="http://www.w3.org/1999/xlink" x="0px" y="0px"
	 width="64px" height="64px" viewBox="0 0 64 64" enable-background="new 0 0 64 64" xml:space="preserve">
<polygon fill="#99A8AE" points="56,30 46,30 46,14 56.376,18.164 "/>
<polygon fill="#6E8189" points="54.716,27.721 54,24.758 57.441,23.927 57.288,27.217 "/>
<polygon fill="#BEC3CF" points="58.08,20.004 44.722,15.813 45.92,11.996 48.331,12.753 49.751,14.581 50.72,13.502 59.278,16.188 
	"/>
<polygon fill="#B00505" points="32,2 25.704,8.295 19.583,17.873 19.542,20.623 17.886,19.32 13.423,20.577 2,32 62,32 "/>
<polygon fill="#BEC3CF" points="32,6 28.793,9.207 21.709,17.342 19.854,21.894 18.438,21.144 16.293,21.707 6,32 58,32 "/>
<polygon fill="#E6EBEF" points="32,10 25.292,17 22.466,23.081 21.958,31.914 17.145,24.747 6,32 6.001,62 58,62 58,32 
	46.353,22.146 44.521,28.831 42.636,19 37.122,14.334 36.126,19 35.401,12.879 "/>
<path fill="#45332C" d="M32,34v16h20V34H32z"/>
<rect x="30" y="50" fill="#99A8AE" width="24" height="2"/>
<rect x="12" y="34" fill="#45332C" width="14" height="24"/>
<rect x="40.5" y="24.103" transform="matrix(0.2005 -0.9797 0.9797 0.2005 -2.0974 70.2619)" fill="#8A6859" width="3" height="24.627"/>
<polygon fill="#785647" points="46.241,35.752 37.118,36.949 49.276,39.436 53.976,39.313 54.363,37.414 "/>
<rect x="7" y="60" fill="#99A8AE" width="24" height="2"/>
<rect x="9" y="58" fill="#BEC3CF" width="20" height="2"/>
<polygon fill="#6E8189" points="22.604,59.539 19.966,58 24.966,58 "/>
<polygon fill="#BEC3CF" points="51.267,57.241 49.642,61.258 44.521,61 38.454,62 55.454,62 52.808,60.408 51.791,61.388 "/>
<polygon fill="#BEC3CF" points="43.392,56.575 44.224,52.781 45.741,52 42.599,52 "/>
<polygon fill="#6E8189" points="12.12,59.539 10.747,58 12.808,58 "/>
<polygon fill="#6E8189" points="19.584,59 18.188,58 21.341,58 "/>
<polygon fill="#6E8189" points="27,61.258 24.56,60 27.712,60 "/>
<polygon fill="#6E8189" points="20.333,61.258 17.893,60 21.046,60 "/>
<polygon fill="#6E8189" points="17.688,61.769 15.288,60 19,60 "/>
<rect x="30" y="50" fill="#BEC3CF" width="4" height="2"/>
<rect x="38.094" y="50.391" transform="matrix(0.9785 -0.2061 0.2061 0.9785 -9.7291 9.3646)" fill="#BEC3CF" width="4" height="2"/>
<polygon fill="#45332C" points="36.667,49.853 37.931,50.824 42.313,49.894 "/>
<rect x="46" y="50" fill="#BEC3CF" width="4" height="2"/>
<polygon fill="#302C3B" points="16.293,21.707 18.37,21.398 20.792,25.477 22.543,18.414 28.793,9.207 21.709,17.342 19.833,21.603 
	18.448,20.51 "/>
<rect x="17.5" y="46.569" transform="matrix(0.0918 -0.9958 0.9958 0.0918 -38.0784 69.3897)" fill="#8A6859" width="3.001" height="18"/>
<polygon fill="#785647" points="20.245,54.178 10.176,53.248 9.956,55.632 "/>
<rect x="17.5" y="42.569" transform="matrix(-0.2343 -0.9722 0.9722 -0.2343 -26.6811 82.1247)" fill="#8A6859" width="3.001" height="18"/>
<polygon fill="#785647" points="27.613,48.896 27.397,48 17.282,50.44 "/>
<rect x="11" y="45.5" fill="#8A6859" width="16" height="3"/>
<polygon fill="#785647" points="11,47.352 19.626,45.5 11,45.5 "/>
<rect x="17.5" y="33.831" transform="matrix(-0.1888 -0.982 0.982 -0.1888 -19.4739 69.5753)" fill="#8A6859" width="3" height="18"/>
<polygon fill="#785647" points="18.706,41.36 27.899,41.451 27.556,39.662 "/>
<rect x="17.5" y="30.168" transform="matrix(-0.0241 -0.9997 0.9997 -0.0241 -19.7 59.1067)" fill="#8A6859" width="3.001" height="18.001"/>
<polygon fill="#785647" points="9.966,37.885 10.038,40.885 24.229,37.543 "/>
<rect x="16.601" y="27.416" transform="matrix(-0.2346 -0.9721 0.9721 -0.2346 -13.051 62.5564)" fill="#8A6859" width="3.001" height="18"/>
<rect x="40.812" y="34.187" transform="matrix(-0.1422 -0.9898 0.9898 -0.1422 2.3039 94.9965)" fill="#8A6859" width="3" height="24.626"/>
<polygon fill="#785647" points="38.54,45.525 54.587,45.348 54.288,43.267 "/>
<rect x="30" y="40.885" fill="#8A6859" width="24.626" height="3"/>
<polygon fill="#785647" points="30,40.885 30,42.831 44.521,40.885 "/>
<rect x="40.812" y="26.104" transform="matrix(-0.1422 -0.9898 0.9898 -0.1422 10.3047 85.7637)" fill="#8A6859" width="3" height="24.626"/>
</svg>
