<?xml version="1.0" encoding="utf-8"?>
<!-- Generator: Adobe Illustrator 16.2.0, SVG Export Plug-In . SVG Version: 6.00 Build 0)  -->
<!DOCTYPE svg PUBLIC "-//W3C//DTD SVG 1.1//EN" "http://www.w3.org/Graphics/SVG/1.1/DTD/svg11.dtd">
<svg version="1.1" id="Layer_1" xmlns="http://www.w3.org/2000/svg" xmlns:xlink="http://www.w3.org/1999/xlink" x="0px" y="0px"
	 width="64px" height="64px" viewBox="0 0 64 64" enable-background="new 0 0 64 64" xml:space="preserve">
<path fill="#6E8189" d="M28,36c0,0-8.045-10.465-12-12c-1.697-0.659-6.197-1.571-7-2c-1.092-0.583-7-7-7-7v21H28z"/>
<path fill="#4E5E67" d="M2,22c0,0,5.5,6.002,8,6c1.118-0.001,2.896-2.179,4-2c3.49,0.566,15.001,10,15.001,10H2V22z"/>
<path fill="#529320" d="M7.231,34c0.094-1-0.372-1.825-0.918-2.78c0.024-0.016,0.051-0.017,0.071-0.04
	C6.931,30.548,5.387,27.993,5,27.993s-1.931,2.565-1.384,3.197c0.02,0.022,0.047,0.013,0.071,0.028C3.14,32.173,2.674,33,2.769,34
	H7.231z"/>
<path fill="#6E8189" d="M62,10v24H32l5-7c0,0,2.564-7.565,3-8c0,0,4.048,2.952,5,2c0,0,5-9,6-9c1.37,0,6,1,6,1L62,10z"/>
<path fill="#4E5E67" d="M40,19c0,0,6,5.018,6,6c0,0.559-1,1.721-1,2c0,0.505,5,5,5,5l12-2c0,0-9.311-2.337-12-4
	c-1.504-0.929-5-5-5-5S42,19,40,19z"/>
<path fill="#297124" d="M61.848,31c0.338-1,0.072-1.383-0.359-2.118c0.063-0.416-0.247-1.235-0.611-1.81
	c0.018-0.009,0.034-0.081,0.048-0.094c0.363-0.379-0.666-1.947-0.924-1.947s-1.287,1.521-0.924,1.9
	c0.014,0.013,0.03,0.014,0.048,0.023c-0.363,0.574-0.675,1.515-0.611,1.931C58.08,29.621,57.814,30,58.152,31H61.848z"/>
<path fill="#7AB51D" d="M12.847,32c0.338-1,0.073-1.382-0.359-2.119c0.063-0.416-0.247-1.235-0.611-1.809
	c0.017-0.009,0.034-0.081,0.048-0.094c0.363-0.379-0.666-1.947-0.924-1.947s-1.287,1.521-0.924,1.9
	c0.014,0.013,0.031,0.014,0.048,0.023c-0.364,0.574-0.675,1.514-0.611,1.93C9.08,30.622,8.815,31,9.153,32H12.847z"/>
<path fill="#297124" d="M49.848,33c0.338-1,0.072-1.382-0.359-2.119c0.063-0.416-0.247-1.235-0.611-1.809
	c0.018-0.009,0.034-0.081,0.048-0.094c0.363-0.379-0.666-1.947-0.924-1.947s-1.287,1.521-0.924,1.9
	c0.014,0.013,0.03,0.014,0.048,0.023c-0.363,0.574-0.675,1.514-0.611,1.93C46.08,31.622,45.814,32,46.152,33H49.848z"/>
<path fill="#92C932" d="M2,34v28h60V30c-5,0-30,4-30,4c-4.596-0.35-12.466-4-18-4C11,30,2,34,2,34z"/>
<path fill="#529320" d="M55,62c0,0,5-16-1-19c-5.163-2.582-17.328-5.313-22-7c-1.393-0.503,0-2,0-2s-18.01-4.315-21,0
	c-1.217,1.756,1.284,6.729,3,8c2.732,2.023,13,3.25,13,5c0,0.91-6.162-0.615-7,1c-0.415,0.8,2.249,2.133,2,3
	c-0.771,2.688-9.452-0.327-11,2c-0.619,0.932,2.243,2.908,2,4c-0.656,2.948-11,5-11,5H55z"/>
<path fill="#75D6FF" d="M29.431,38C24.685,36.771,32,34,32,34c-6.5,0-32.67,3-4,10c18.736,4.574-17,18-17,18h34.852
	C62.173,45.805,47.917,42.79,29.431,38z"/>
<path fill="#529320" d="M54,29c-1.031,0-5.148,5.484-3.691,7c0.73,0.757,2.66,1,3.691,1s2.961-0.243,3.691-1
	C59.148,34.484,55.031,29,54,29z"/>
<path fill="#7AB51D" d="M54,27c-0.773,0-3.861,4.611-2.768,5.748c0.547,0.568,1.994,0,2.768,0s2.221,0.568,2.768,0
	C57.861,31.611,54.773,27,54,27z"/>
<path fill="#92C932" d="M54,25c-0.516,0-2.574,3.074-1.846,3.832c0.365,0.379,1.33,0,1.846,0s1.48,0.379,1.846,0
	C56.574,28.074,54.516,25,54,25z"/>
<path fill="#99A8AE" d="M41,26c-1,0-4,1-4,1l-5,7c0,0,3.563-3,6.999-4C39.535,29.844,37,29,37,29S42,26,41,26z"/>
<polygon fill="#99A8AE" points="55,17 62,10 57,13 "/>
<path fill="#4E5E67" d="M60,18c-0.014-0.279-4.854-0.762-5-1l2-4c0,0-6.102,4.65-6,5c0.039,0.134,4.961,0.866,5,1
	c0.102,0.35-1.246,4.731-1,5C55.398,24.435,60.027,18.589,60,18z"/>
<path fill="#99A8AE" d="M45,21c0,0,4.714-9,6-9c0,0-1.878,3.889-2,5c-0.111,1.024,2.229,1.881,2,2C49.598,19.729,45,21,45,21z"/>
<path fill="#7AB51D" d="M43.486,31.631c0.063-0.416-0.246-1.11-0.61-1.684c0.017-0.009,0.034-0.018,0.048-0.031
	C43.287,29.537,42.258,28,42,28s-1.287,1.537-0.924,1.916c0.014,0.013,0.031,0.022,0.048,0.031c-0.364,0.574-0.675,1.268-0.61,1.684
	c-0.434,0.736-0.697,1.516-0.359,1.868C40.52,33.879,41.484,34,42,34s1.48-0.121,1.848-0.501
	C44.186,33.146,43.92,32.367,43.486,31.631z"/>
<path fill="#0FB4D4" d="M27,42c0,0-16-4.914,5-8C32,34,3.583,36,27,42z"/>
<path fill="#0FB4D4" d="M28,43c0,0,25.125,7.25-6,19h7C29,62,56.762,49.5,28,43z"/>
<path fill="#CAE8F0" d="M40.838,58c0,0,13.594-9.008-7.838-16C33,42,63.003,47.098,40.838,58z"/>
</svg>
