<?xml version="1.0" encoding="utf-8"?>
<!-- Generator: Adobe Illustrator 15.0.0, SVG Export Plug-In . SVG Version: 6.00 Build 0)  -->
<!DOCTYPE svg PUBLIC "-//W3C//DTD SVG 1.1//EN" "http://www.w3.org/Graphics/SVG/1.1/DTD/svg11.dtd">
<svg version="1.1" id="Layer_1" xmlns="http://www.w3.org/2000/svg" xmlns:xlink="http://www.w3.org/1999/xlink" x="0px" y="0px"
	 width="64px" height="64px" viewBox="0 0 64 64" enable-background="new 0 0 64 64" xml:space="preserve">
<path fill="#302C3B" d="M9.786,15.656c0,0.258-0.212,0.469-0.469,0.469l0,0c-0.258,0-0.469-0.211-0.469-0.469V5.344
	c0-0.258,0.211-0.469,0.469-0.469l0,0c0.257,0,0.469,0.211,0.469,0.469V15.656z"/>
<polygon fill="#0FB4D4" points="9.786,5.813 9.786,9.563 13.535,7.688 "/>
<path fill="#302C3B" d="M40.629,12.781c0,0.258-0.212,0.469-0.469,0.469l0,0c-0.257,0-0.469-0.211-0.469-0.469V2.469
	C39.691,2.211,39.903,2,40.16,2l0,0c0.257,0,0.469,0.211,0.469,0.469V12.781z"/>
<polygon fill="#E81C27" points="40.629,2.938 40.629,6.688 44.378,4.813 "/>
<path fill="#302C3B" d="M24.094,12.781c0,0.258-0.212,0.469-0.469,0.469l0,0c-0.257,0-0.469-0.211-0.469-0.469V2.469
	C23.156,2.211,23.368,2,23.625,2l0,0c0.257,0,0.469,0.211,0.469,0.469V12.781z"/>
<polygon fill="#92C932" points="24.094,2.938 24.094,6.688 27.843,4.813 "/>
<path fill="#302C3B" d="M55.159,15.656c0,0.258-0.212,0.469-0.469,0.469l0,0c-0.258,0-0.469-0.211-0.469-0.469V5.344
	c0-0.258,0.211-0.469,0.469-0.469l0,0c0.257,0,0.469,0.211,0.469,0.469V15.656z"/>
<polygon fill="#FFE12C" points="55.159,5.813 55.159,9.563 58.908,7.688 "/>
<ellipse fill="#F89987" cx="32.003" cy="19.569" rx="29.997" ry="7.5"/>
<ellipse fill="#302C3B" cx="31.976" cy="21.915" rx="27.901" ry="7.5"/>
<ellipse fill="#F46C60" cx="31.976" cy="22.887" rx="27.248" ry="7.5"/>
<ellipse fill="#302C3B" cx="31.935" cy="25.927" rx="27.248" ry="7.5"/>
<path fill="#83BF4F" d="M52.806,23.418c-7.941-3.424-33.438-3.688-41.092,0c-0.268,0.13-0.533,0.304-0.792,0.511
	c11.379,2.188,30.57,1.942,42.108-0.394C52.956,23.495,52.882,23.451,52.806,23.418z"/>
<rect x="2.007" y="38.839" fill="#302C3B" width="59.993" height="23.161"/>
<path fill="#302C3B" d="M12.476,13.876c-0.27,0.046-0.51,0.121-0.768,0.171l5.559,5.559c0.27-0.04,0.524-0.097,0.802-0.136
	L12.476,13.876z"/>
<path fill="#302C3B" d="M52.298,14.047c-0.264-0.044-0.492-0.129-0.766-0.171l-5.613,5.612c0.277,0.038,0.531,0.099,0.8,0.138
	L52.298,14.047z"/>
<path fill="#302C3B" d="M32.473,18.427v-6.357c-0.313-0.002-0.626,0-0.938,0v6.359C31.847,18.427,32.16,18.425,32.473,18.427z"/>
<path fill="#92C932" d="M52.806,23.418c-7.941-3.424-33.438-3.688-41.092,0c-0.268,0.13-0.533,0.304-0.792,0.511
	c11.379,2.188,30.57,1.942,42.108-0.394C52.956,23.495,52.882,23.451,52.806,23.418z"/>
<path fill="#FFFFFF" d="M19.306,25.017l0.974-1.923h11.256v2.338c0.312-0.003,0.625-0.005,0.938-0.009v-2.329h11.255l0.844,1.666
	c0.299-0.029,0.597-0.061,0.892-0.091l-1.273-2.513H19.817l-1.41,2.781C18.704,24.965,19.003,24.991,19.306,25.017z"/>
<path fill="#99A8AE" d="M61.988,19.044c0,0.555-0.178,1.045-0.61,1.378c-8.186,6.286-52.795,6.851-59.014,0
	c-0.244-0.269-0.34-0.605-0.342-0.978H2.007v19.48C2.007,46.63,62,48.513,62,37.962V19.044H61.988z"/>
<path fill="#E6EBEF" d="M37.206,32.866c-0.284-0.992-1.359-1.804-2.391-1.804h-5.624c-1.032,0-2.106,0.812-2.391,1.804l-0.845,2.957
	c-0.283,0.99,0.328,1.802,1.36,1.802h9.374c1.031,0,1.643-0.812,1.359-1.802L37.206,32.866z"/>
<path fill="#99A8AE" d="M36.69,35.75h-9.374c-1.032,0-1.875,0.844-1.875,1.875V47h13.124v-9.375
	C38.565,36.594,37.722,35.75,36.69,35.75z"/>
<rect x="28.254" y="39.5" fill="#302C3B" width="7.499" height="8.69"/>
<path fill="#E6EBEF" d="M2.007,34.549v1.408c4.721,3.993,19.924,5.103,23.412,5.307l0.045-1.11
	C13.35,39.445,4.138,37.184,2.007,34.549z"/>
<path fill="#E6EBEF" d="M62,33.875c-2.034,3.446-10.633,5.837-23.456,6.391l0.034,1.109c6.184-0.266,19.149-1.368,23.422-5.87
	V33.875z"/>
<path fill="#E6EBEF" d="M2.007,29.861v1.408c4.721,3.993,19.924,5.103,23.412,5.307l0.045-1.11
	C13.35,34.758,4.138,32.496,2.007,29.861z"/>
<path fill="#E6EBEF" d="M62,29.188c-2.034,3.446-10.633,5.837-23.456,6.391l0.034,1.109c6.184-0.266,19.149-1.368,23.422-5.87
	V29.188z"/>
<path fill="#E6EBEF" d="M2.007,25.174v1.408c4.721,3.993,19.924,5.103,23.412,5.307l0.045-1.11
	C13.35,30.07,4.138,27.809,2.007,25.174z"/>
<path fill="#E6EBEF" d="M62,24.5c-2.034,3.446-10.633,5.837-23.456,6.391L38.578,32c6.184-0.266,19.149-1.368,23.422-5.87V24.5z"/>
<path fill="#302C3B" d="M5.281,30.709c0.003,0.289-0.207,0.431-0.46,0.312L3.886,30.59c-0.254-0.117-0.465-0.448-0.468-0.737
	l-0.011-1.247c-0.004-0.291,0.207-0.431,0.459-0.313l0.936,0.429c0.254,0.117,0.469,0.45,0.469,0.739L5.281,30.709z"/>
<path fill="#302C3B" d="M20.721,32.167l-0.985-0.052c-0.271-0.015-0.484,0.136-0.477,0.333l0.07,1.438
	c0.01,0.198,0.238,0.372,0.51,0.385l0.986,0.053c0.27,0.014,0.484-0.137,0.477-0.335l-0.071-1.438
	C21.222,32.354,20.993,32.18,20.721,32.167z"/>
<path fill="#302C3B" d="M12.29,30.983l-0.969-0.17c-0.266-0.048-0.479,0.08-0.472,0.282l0.05,1.468
	c0.007,0.202,0.229,0.405,0.496,0.453l0.969,0.17c0.267,0.048,0.479-0.079,0.473-0.282l-0.049-1.467
	C12.78,31.234,12.558,31.031,12.29,30.983z"/>
<path fill="#302C3B" d="M58.286,30.859c-0.002,0.289,0.207,0.431,0.462,0.312l0.936-0.429c0.254-0.117,0.464-0.45,0.467-0.74
	l0.011-1.247c0.004-0.289-0.207-0.43-0.459-0.313l-0.936,0.429c-0.255,0.117-0.469,0.45-0.469,0.739L58.286,30.859z"/>
<path fill="#302C3B" d="M42.847,32.316l0.986-0.051c0.271-0.015,0.485,0.136,0.477,0.333l-0.07,1.438
	c-0.009,0.197-0.238,0.372-0.51,0.387l-0.986,0.051c-0.27,0.015-0.484-0.136-0.476-0.333l0.07-1.439
	C42.347,32.504,42.576,32.331,42.847,32.316z"/>
<path fill="#302C3B" d="M51.278,31.136l0.969-0.172c0.266-0.046,0.479,0.08,0.471,0.281l-0.049,1.469
	c-0.008,0.201-0.23,0.405-0.495,0.452l-0.97,0.171c-0.267,0.047-0.479-0.079-0.473-0.28l0.05-1.469
	C50.788,31.385,51.011,31.182,51.278,31.136z"/>
<polygon fill="#99A8AE" points="2,50.281 2,51.219 8.563,51.219 5.75,57.781 6.688,57.781 9.5,51.219 16.062,51.219 13.249,57.781 
	14.187,57.781 16.999,51.219 23.092,51.219 20.748,57.781 21.686,57.781 24.498,50.281 "/>
<polygon fill="#99A8AE" points="61.993,50.281 61.993,51.219 55.433,51.219 58.245,57.781 57.308,57.781 54.495,51.219 
	47.933,51.219 50.745,57.781 49.808,57.781 46.995,51.219 40.902,51.219 43.246,57.781 42.309,57.781 39.496,50.281 "/>
<rect x="26" y="7" fill="#302C3B" width="12" height="8"/>
<rect x="27" y="8" fill="#0FB4D4" width="10" height="6"/>
<polygon fill="#75D6FF" points="29.004,14 27.004,14 31.004,8 33.004,8 "/>
<polygon fill="#75D6FF" points="32.806,14 31.806,14 35.806,8 36.806,8 "/>
</svg>
