<?xml version="1.0" encoding="utf-8"?>
<!-- Generator: Adobe Illustrator 16.2.0, SVG Export Plug-In . SVG Version: 6.00 Build 0)  -->
<!DOCTYPE svg PUBLIC "-//W3C//DTD SVG 1.1//EN" "http://www.w3.org/Graphics/SVG/1.1/DTD/svg11.dtd">
<svg version="1.1" id="Layer_1" xmlns="http://www.w3.org/2000/svg" xmlns:xlink="http://www.w3.org/1999/xlink" x="0px" y="0px"
	 width="64px" height="64px" viewBox="0 0 64 64" enable-background="new 0 0 64 64" xml:space="preserve">
<line fill="none" stroke="#F9C802" stroke-width="2" stroke-miterlimit="10" x1="19" y1="17" x2="13" y2="23"/>
<path fill="#F9C802" d="M18,4v18.586l-4,4V4h-2v54l1.707,1.707L18,55.414V58h2V4H18z M14,30h2.586L14,32.586V30z M14,36h2.586
	L14,38.586V36z M14,42h2.586L14,44.586V42z M14,48h2.586L14,50.586V48z M14,56.586V54h2.586L14,56.586z M18,52h-2.586L18,49.414V52z
	 M18,46h-2.586L18,43.414V46z M18,40h-2.586L18,37.414V40z M18,34h-2.586L18,31.414V34z M18,28h-2.586L18,25.414V28z"/>
<rect x="12" y="22" fill="#F59E01" width="8" height="2"/>
<rect x="10" y="58" fill="#4E5E67" width="12" height="4"/>
<rect x="2" y="12" fill="#6E8189" width="8" height="6"/>
<rect x="2" y="14" fill="#99A8AE" width="2" height="4"/>
<rect x="6" y="14" fill="#99A8AE" width="2" height="4"/>
<polygon fill="#F9C802" points="20,22 14,22 14,12 22,12 22,20 "/>
<rect x="12" y="12" fill="#F59E01" width="10" height="2"/>
<rect x="16" y="14" fill="#018BC9" width="4" height="4"/>
<rect x="48" y="12" fill="#F59E01" width="4" height="2"/>
<path fill="#F9C802" d="M56.414,4H20l-2-2h-4l-2,2H6.586L2,8.586V12h60V9.586L56.414,4z M6,10H3.414L6,7.414V10z M8,10V6h8.586l-4,4
	H8z M24,10h-8.586l4-4H24V10z M30,10h-4V6h4V10z M36,10h-4V6h4V10z M42,10h-4V6h4V10z M48,10h-4V6h4V10z M54,10h-4V6h4V10z M56,10
	V6.414L59.586,10H56z"/>
<path fill="#6E8189" d="M51,32.184V30h-2v3c0,0.553,0.447,1,1,1c0.552,0,1,0.448,1,1s-0.448,1-1,1s-1-0.448-1-1c0-0.553-0.447-1-1-1
	s-1,0.447-1,1c0,1.654,1.346,3,3,3s3-1.346,3-3C53,33.698,52.161,32.599,51,32.184z"/>
<polygon fill="#F59E01" points="52,28 48,28 49,30 51,30 "/>
<polygon fill="#F9C802" points="52,28 48,28 49,26 51,26 "/>
<rect x="49" y="14" fill="#6E8189" width="2" height="12"/>
<polygon fill="#4E5E67" points="51,22 49,24 49,26 51,24 "/>
<polygon fill="#4E5E67" points="51,18 49,20 49,22 51,20 "/>
<polygon fill="#4E5E67" points="51,14 49,16 49,18 51,16 "/>
<rect x="54" y="40" fill="#4E5E67" width="2" height="4"/>
<rect x="44" y="40" fill="#4E5E67" width="2" height="4"/>
<path fill="#6E8189" d="M62,46v-2h-2v-6h-2v6H42v-6h-2v6h-2v2h2v6h-2v2h2v8h20v-8h2v-2h-2v-6H62z M58,60H42v-5h16V60z M42,52v-5h16
	v5H42z"/>
<polygon fill="#4E5E67" points="40,54 40,56 44,56 44,60 46,60 46,56 54,56 54,60 56,60 56,56 60,56 60,54 "/>
<polygon fill="#4E5E67" points="40,46 40,48 44,48 44,52 46,52 46,48 54,48 54,52 56,52 56,48 60,48 60,46 "/>
<rect x="58" y="8" fill="#F59E01" width="4" height="4"/>
</svg>
