<?xml version="1.0" encoding="utf-8"?>
<!-- Generator: Adobe Illustrator 15.0.0, SVG Export Plug-In . SVG Version: 6.00 Build 0)  -->
<!DOCTYPE svg PUBLIC "-//W3C//DTD SVG 1.1//EN" "http://www.w3.org/Graphics/SVG/1.1/DTD/svg11.dtd">
<svg version="1.1" id="Layer_1" xmlns="http://www.w3.org/2000/svg" xmlns:xlink="http://www.w3.org/1999/xlink" x="0px" y="0px"
	 width="64px" height="64px" viewBox="0 0 64 64" enable-background="new 0 0 64 64" xml:space="preserve">
<path fill="#E81C27" d="M55.324,8.66c-6.21-6.193-20.527-11.898-34.078,1.615c-8.963,8.939-12.17,20.234,0,32.374
	c12.172,12.137,23.496,8.936,32.454,0C67.253,29.132,61.533,14.849,55.324,8.66z"/>
<path fill="#D6A57C" d="M30.811,49.293L14.58,33.107c0,0,3.412,7.93-2.433,13.76L2,56.301c0,0,0.363,1.336,2.545,3.51
	C6.32,61.582,6.449,61.445,7.422,62c4.555-5.254,9.596-10.277,9.596-10.277C22.857,45.893,30.811,49.293,30.811,49.293z"/>
<path fill="#B47D56" d="M5.9,61.066c0.6,0.49,1.497,0.924,1.497,0.924l17.394-18.697L5.9,61.066z"/>
<path fill="#302C3B" d="M30.811,49.293l-6.02-6l-8.082,8.697C18.338,50.395,23.156,46.684,30.811,49.293z"/>
<path fill="#302C3B" d="M14.58,33.107l6.02,6.002l-8.725,8.063C13.479,45.545,17.2,40.738,14.58,33.107z"/>
<circle fill="#EA8800" cx="54" cy="54" r="8"/>
<path fill="#D47706" d="M58.996,47.757c1.093,1.369,1.75,3.1,1.75,4.988c0,4.418-3.58,8-7.998,8c-1.894,0-3.629-0.66-4.998-1.758
	C49.215,60.821,51.467,62,54.001,62C58.418,62,62,58.419,62,54C62,51.474,60.825,49.224,58.996,47.757z"/>
<path fill-rule="evenodd" clip-rule="evenodd" fill="#F9B700" d="M48.063,50.537c0.146,1.03,2.071-0.987,4.021-2.72
	C53.342,46.701,47.622,47.437,48.063,50.537z"/>
</svg>
