<?xml version="1.0" encoding="utf-8"?>
<!-- Generator: Adobe Illustrator 16.2.0, SVG Export Plug-In . SVG Version: 6.00 Build 0)  -->
<!DOCTYPE svg PUBLIC "-//W3C//DTD SVG 1.1//EN" "http://www.w3.org/Graphics/SVG/1.1/DTD/svg11.dtd">
<svg version="1.1" id="Layer_1" xmlns="http://www.w3.org/2000/svg" xmlns:xlink="http://www.w3.org/1999/xlink" x="0px" y="0px"
	 width="64px" height="64px" viewBox="0 0 64 64" enable-background="new 0 0 64 64" xml:space="preserve">
<path fill="#C49A45" d="M50,28c-1,0-4.833,2-7,2s-10.167-2-11-2s-11.38,2.762-16,4c-4.83,1.294-14-2-14-2v32h60V30
	C59,31,51,28,50,28z"/>
<path fill="#FDCA47" d="M2,47c17.182-6.443,29,1,46,0c9.04-0.532,14-4,14-4s-9-3-30-3c-14,0-15-3-15-3s7.5-3,15-3
	c11.167,0,21,3,30,0v28H2V47z"/>
<path fill="#FEEC9A" d="M52,2c-6.75,0-10,3.25-10,10s3.25,10,10,10c6.75-0.001,10-3.249,10-10C62,5.25,58.75,2,52,2z"/>
<circle fill="#F9C802" cx="52" cy="12" r="9"/>
<path fill="#C49A45" d="M2,62c0,0,4-4,21-4c13.333,0,39,4,39,4H2z"/>
<path fill="#C49A45" d="M22,53c0,2-8,9-8,9l-6-2c0-3,6-7,6-7C16.209,53,22,53,22,53z"/>
<path fill="#297124" d="M16,15l2-6c-1.477,0-2.752,0.81-3.445,2H12l2,2v5l-2,1l2,1v6l-2,1l2,1v6h-4c-0.552,0-1-0.447-1-1V18l-1-2
	c-0.738,0-1.376,0.404-1.723,1H4l2,2v6l-2,1l2,1v6l-2,2h2.555c0.693,1.189,1.969,2,3.445,2l1,2l1-2h2v12l-2,1l2,1v2
	c0,0.738,0.81,1.376,2,1.723V15z"/>
<path fill="#92C932" d="M20,54.723c1.19-0.347,2-0.983,2-1.723v-2l2-1l-2-1v-4h2l1,2l1-2c1.477,0,2.752-0.811,3.445-2H32l-2-2v-6
	l2-1l-2-1v-6l2-2h-5v16c0,0.553-0.448,1-1,1h-4v-6l2-1l-2-1v-6l2-1l-2-1v-6l2-1l-2-1v-5l2-2h-2.555C20.752,9.81,19.477,9,18,9l2,6
	V54.723z"/>
<path fill="#529320" d="M28,41c0,1.104-0.896,2-2,2h-4v-2h3c0.552,0,1-0.447,1-1l0,0l-2-1l2-1v-6l-2-1l2-1v-4c0-1.104,0.896-2,2-2
	V41z"/>
<path fill="#92C932" d="M20,9.555C19.41,9.211,18.732,9,18,9v2h3L20,9.555z"/>
<path fill="#FFE8BB" d="M50.152,48C50.654,48,51,47.68,51,47.146c0-0.453-0.561-0.769-0.848-0.854C49.34,46.052,48.457,46,47,44
	C47,44,47.609,48,50.152,48z"/>
<path fill="#529320" d="M16,54.723C16.59,54.895,17.268,55,18,55V9c-1.104,0-2,0.896-2,2v3l-2,1l2,1v6l-2,1l2,1v6l-2,1l2,1v6l-2,1
	l2,1v6l-2,1l2,1V54.723z"/>
<path fill="#92C932" d="M8,33c0,1.104,0.896,2,2,2h4v-2h-3c-0.552,0-1-0.447-1-1l0,0l2-1l-2-1v-6l2-1l-2-1v-4c0-1.104-0.896-2-2-2
	c-0.366,0-0.705,0.105-1,0.277C7.595,16.624,8,17.262,8,18V33z"/>
<path fill="#92C932" d="M28,24c-0.366,0-0.705,0.105-1,0.277c0.595,0.347,1,0.984,1,1.723h2C30,24.896,29.104,24,28,24z"/>
<path fill="#7AB51D" d="M18,55c0.732,0,1.41-0.105,2-0.277V48l2-1l-2-1v-6l2-1l-2-1v-6l2-1l-2-1v-6l2-1l-2-1v-6l2-1l-2-1v-3
	c0-1.104-0.896-2-2-2V55z"/>
<path fill="#C49A45" d="M43,52c0,1,1,4,4,4s6-3.781,8-5L43,52z"/>
<path fill="#F4F4F4" d="M51.417,46c-2.418,0-3.495,1.79-6.417,3c-2.064,0.855-1.25,2.25-2,3c0,1,1,2,4,2c4.275,0,4.417-1.639,8-3
	C55,47.443,53.104,46,51.417,46z"/>
<path fill="#614D27" d="M50.264,48.088C50.566,47.76,52,48.424,52,48.889c0,0.621-1.178,1.31-1.736,1.06
	C49.868,49.77,49.96,48.416,50.264,48.088z"/>
<path fill="#C4926E" d="M53.848,49C53.346,49,53,48.68,53,48.146c0-0.453,0.561-0.769,0.848-0.854C54.66,47.052,55.543,47,57,45
	C57,45,56.391,49,53.848,49z"/>
<path fill="#614D27" d="M44.646,50c-0.623,0-0.947,0.893-0.268,2c0.291,0,1.62-0.469,1.62-1.107C46,50.484,45.052,50,44.646,50z"/>
<path fill="#FFE8BB" d="M47,54c4.275,0,4.417-1.639,8-3c0-0.841-0.111-1.555-0.297-2.168C51.998,50.006,50.996,53,47,53
	c-2.497,0-4-1-4-1C43,53,44,54,47,54z"/>
</svg>
