<?xml version="1.0" encoding="utf-8"?>
<!-- Generator: Adobe Illustrator 16.2.0, SVG Export Plug-In . SVG Version: 6.00 Build 0)  -->
<!DOCTYPE svg PUBLIC "-//W3C//DTD SVG 1.1//EN" "http://www.w3.org/Graphics/SVG/1.1/DTD/svg11.dtd">
<svg version="1.1" id="Layer_1" xmlns="http://www.w3.org/2000/svg" xmlns:xlink="http://www.w3.org/1999/xlink" x="0px" y="0px"
	 width="64px" height="64px" viewBox="0 0 64 64" enable-background="new 0 0 64 64" xml:space="preserve">
<rect x="2" y="28" fill="#75D6FF" width="60" height="34"/>
<path fill="#D99025" d="M20,44c0,0,3-0.375,6-2.375c3.769-2.514,4-4.563,7.625-4.563c1.128,0,12.313-6.563,28.375-6.563V62H2v-5
	L20,44z"/>
<path fill="#FDCA47" d="M17,51c3-3,7-3,11-3c7,0,7-5,12-5c0-5.125,4.75-4.25,10-7c6.373-3.338,12-4,12-4v30H2
	C2,62,7.313,60.688,17,51z"/>
<path fill="#FFFFFF" d="M19,39c0,0,4,0,7-2c3.769-2.514,7.875-4,14-4c6.875,0,12.5-3,22-3v0.915c0,0-4.877,0.497-10,2.418
	C49.382,34.314,46,36,44,36s-2-1-4-1s-1,1-1,2c0,0.352-0.564,1.01-1.422,1.01c-2.953,0-6.193,0.605-8.578,2.99c-3.333,3.333-8,3-8,3
	c0,4.666-5.393,3.393-9,7c-5.417,5.417-10,7-10,7v-5c0.163,0,0.337-0.025,0.515-0.064c0.014-0.004,0.027-0.006,0.042-0.01
	c3.657-0.851,6.854-7.938,9.443-6.238C14,48,18.174,46.174,16,44C13.875,41.875,15.654,39,19,39z"/>
<path fill="#75D6FF" d="M25.037,39.648C23.552,40.992,20.543,42,22.829,42C27.893,42,30.317,34.87,25.037,39.648z"/>
<path fill="#D99025" d="M55.366,51.111c-1.901,0.842-3.988,3.02-3.192,1.154C53.938,48.134,62.13,48.12,55.366,51.111z"/>
<path fill="#75D6FF" d="M11.182,49.309c-1.188,0.194-2.811,1.373-1.931,0.127C11.201,46.68,15.409,48.616,11.182,49.309z"/>
<path fill="#75D6FF" d="M35.736,34c-0.771,0-4.35,1.271-1.881,1.898C36.325,36.527,38.441,34,35.736,34z"/>
<path fill="#D99025" d="M13.818,57.691c1.188-0.194,2.811-1.373,1.931-0.127C13.799,60.32,9.591,58.384,13.818,57.691z"/>
<path fill="#D99025" d="M45.813,57c-2.336,0-3.914,2-1.867,2C46.076,59,48.501,57,45.813,57z"/>
<path fill="#D99025" d="M55.736,41c-0.771,0-4.35,1.271-1.881,1.898C56.325,43.527,58.441,41,55.736,41z"/>
<path fill="#D99025" d="M27.264,53c0.771,0,4.35,1.271,1.88,1.898C26.675,55.527,24.559,53,27.264,53z"/>
<polygon fill="#D99025" points="45,57 44,58 51,62 54,62 "/>
<path fill="#FFFFFF" d="M33.029,13.088c0,0-13.37,5.43-9.842,19.115l27.563-7.676C50.75,24.528,43.596,10.147,33.029,13.088z"/>
<path fill="#99A8AE" d="M45.273,56.756l-8.617-33.419l-1.836,0.511l8.615,33.421c0.135,0.525,0.657,0.838,1.166,0.696
	C45.107,57.824,45.409,57.284,45.273,56.756z"/>
<path fill="#E03636" d="M23.188,32.205L14,34.764c0,0,1.573-16.813,19.029-21.674C23.558,18.359,23.188,32.205,23.188,32.205z"/>
<path fill="#E03636" d="M50.75,24.528l9.188-2.559c0,0-9.453-13.742-26.91-8.881C43.771,12.73,50.75,24.528,50.75,24.528z"/>
<path fill="#6E8189" d="M44.755,56.623c-2.871-11.141-5.743-22.28-8.614-33.419c-0.162-0.624-1.127-0.359-0.966,0.266
	c2.871,11.139,5.745,22.281,8.616,33.42C43.953,57.514,44.917,57.248,44.755,56.623z"/>
<path fill="#CFD8DD" d="M33.029,13.088c0,0-2.253,2.547-4.038,10.916c-1.493,7-5.804,8.201-5.804,8.201l9.187-2.559L33.029,13.088z"
	/>
<path fill="#C21413" d="M32.375,29.646c-2.094-14.56,0.654-16.556,0.654-16.556s2.273,0.116,8.533,13.998L32.375,29.646z"/>
<path fill="#C21413" d="M32.375,29.646l-9.187,2.559c0.271,1.053,3.041,3.247,5.579,2.54C31.303,34.037,32.646,30.699,32.375,29.646
	z"/>
<path fill="#C21413" d="M50.75,24.528l-9.188,2.558c0.271,1.055,3.041,3.248,5.58,2.542C49.68,28.92,51.021,25.583,50.75,24.528z"/>
<path fill="#CFD8DD" d="M59.939,21.969l-9.189,2.559c0.271,1.055,2.611,3.076,5.227,2.476
	C59.689,26.152,60.209,23.024,59.939,21.969z"/>
<path fill="#CFD8DD" d="M37.434,18.767c0,0,2.459,4.819,4.129,8.32l9.188-2.558c0,0-3.194-6.606-9.188-9.606
	C41.563,14.922,43.482,18.767,37.434,18.767z"/>
<path fill="#CFD8DD" d="M41.563,27.087l-9.187,2.559c0.271,1.054,2.438,3.241,5.61,2.358C41.159,31.121,41.835,28.142,41.563,27.087
	z"/>
<path fill="#FFFFFF" d="M23.188,32.205L14,34.764c0.272,1.055,2.082,2.656,4.997,2.239C21.966,36.578,23.459,33.258,23.188,32.205z"
	/>
<path fill="#C21413" d="M33.029,13.088c0,0-5.62,1.5-9.035,8.128C21.153,26.733,21.829,32.521,14,34.762l9.188-2.558
	C23.188,32.205,23.911,18.922,33.029,13.088z"/>
<path fill="#C21413" d="M33.029,13.088c11.063,0,17.721,11.439,17.721,11.439l9.188-2.559C50.75,21.969,43.523,11.213,33.029,13.088
	"/>
<path fill="#E03636" d="M31.589,20.567c0,0-0.329-5.708,1.44-7.478c0,0,1.354,0.125,4.404,5.678
	C37.434,18.767,36.575,22.447,31.589,20.567z"/>
<path fill="#C21413" d="M31,13.656c0,0.83,4,0,4-0.83C35,11.267,31,12.126,31,13.656z"/>
</svg>
