<?xml version="1.0" encoding="utf-8"?>
<!-- Generator: Adobe Illustrator 15.0.0, SVG Export Plug-In . SVG Version: 6.00 Build 0)  -->
<!DOCTYPE svg PUBLIC "-//W3C//DTD SVG 1.1//EN" "http://www.w3.org/Graphics/SVG/1.1/DTD/svg11.dtd">
<svg version="1.1" id="Layer_1" xmlns="http://www.w3.org/2000/svg" xmlns:xlink="http://www.w3.org/1999/xlink" x="0px" y="0px"
	 width="64px" height="64px" viewBox="0 0 64 64" enable-background="new 0 0 64 64" xml:space="preserve">
<path fill="#EA8800" d="M62,50c0,6.628-5.371,12-11.998,12C43.369,62,38,56.628,38,50c0-6.627,5.369-12,12.002-12
	C56.629,38,62,43.373,62,50z"/>
<path fill="#D47706" d="M57.494,40.636c1.639,2.053,2.625,4.649,2.625,7.481c0,6.627-5.371,12.001-11.997,12.001
	c-2.841,0-5.444-0.991-7.497-2.638c2.197,2.751,5.576,4.52,9.377,4.52C56.627,62,62,56.628,62,50
	C62,46.211,60.238,42.836,57.494,40.636z"/>
<path fill-rule="evenodd" clip-rule="evenodd" fill="#F9B700" d="M41.094,44.806c0.22,1.546,3.107-1.48,6.032-4.08
	C49.013,39.052,40.434,40.154,41.094,44.806z"/>
<path fill="#302C3B" d="M55.608,2L27.632,31.419l-9.081,10.347c-1.525,1.824-4.29,2.02-6.168,0.439s-2.164-4.34-0.638-6.166
	c1.522-1.816,1.236-4.578-0.645-6.156c-1.88-1.58-4.642-1.383-6.165,0.434c-4.571,5.457-3.709,13.75,1.921,18.486
	c5.536,4.66,13.642,4.156,18.255-1.049L62,2H55.608z"/>
<path fill="#D9E617" d="M38.272,31.431c0,0,0.477-6.231,1.17-8.146C41.796,16.774,55.608,2,55.608,2h-2.875L31.067,27.338
	c-0.217,11.915-7.478,21.866-7.478,21.866C25.942,48.116,38.272,31.431,38.272,31.431z"/>
<g opacity="0.5">
	<polygon fill="#C7E755" points="59.322,5.322 59.832,4.688 59.322,5.322 	"/>
</g>
<g>
	<path fill="#92C932" d="M31.067,27.338c0,0-1.938,2.258-3.436,4.081c2.451,6.551-4.042,17.785-4.042,17.785
		S34.296,35.189,31.067,27.338z"/>
</g>
<path fill-rule="evenodd" clip-rule="evenodd" fill="#4E5E67" d="M2.687,38.943c-0.045,1.562,0.67-4.978,4.521-8.5
	C9.069,28.741,2.937,30.276,2.687,38.943z"/>
<path fill-rule="evenodd" clip-rule="evenodd" fill="#4E5E67" d="M20.12,41.97c1.262-3.669-0.781,2.688-6.078,2.141
	C11.532,43.851,18.62,46.329,20.12,41.97z"/>
</svg>
