<?xml version="1.0" encoding="utf-8"?>
<!-- Generator: Adobe Illustrator 15.0.0, SVG Export Plug-In . SVG Version: 6.00 Build 0)  -->
<!DOCTYPE svg PUBLIC "-//W3C//DTD SVG 1.1//EN" "http://www.w3.org/Graphics/SVG/1.1/DTD/svg11.dtd">
<svg version="1.1" id="Layer_1" xmlns="http://www.w3.org/2000/svg" xmlns:xlink="http://www.w3.org/1999/xlink" x="0px" y="0px"
	 width="64px" height="64px" viewBox="0 0 64 64" enable-background="new 0 0 64 64" xml:space="preserve">
<path fill-rule="evenodd" clip-rule="evenodd" fill="#BEC3CF" d="M58,54c0,4.4-3.6,8-8,8H14c-4.4,0-8-3.6-8-8V10c0-4.4,3.6-8,8-8h36
	c4.4,0,8,3.6,8,8V54z"/>
<path fill-rule="evenodd" clip-rule="evenodd" fill="#99A8AE" d="M54.555,3.445C55.461,4.741,56,6.309,56,8v44c0,4.4-3.6,8-8,8H12
	c-1.691,0-3.258-0.539-4.555-1.445C8.895,60.629,11.291,62,14,62h36c4.4,0,8-3.6,8-8V10C58,7.291,56.629,4.895,54.555,3.445z"/>
<path fill-rule="evenodd" clip-rule="evenodd" fill="#E6EBEF" d="M8.034,9.169c0.208,1.659,2.941-1.587,5.708-4.379
	C15.529,2.996,7.409,4.177,8.034,9.169z"/>
<path fill-rule="evenodd" clip-rule="evenodd" fill="#302C3B" d="M54,22c0,2.2-1.801,4-4,4H14c-2.2,0-4-1.8-4-4V12c0-2.2,1.8-4,4-4
	h36c2.199,0,4,1.8,4,4V22z"/>
<path fill="#FFFFFF" d="M18.606,20.407L17.742,24h-2.854l3.718-14h3.614l3.773,14h-2.963l-0.939-3.593H18.606z M21.694,18.039
	l-0.757-2.972c-0.217-0.831-0.434-1.87-0.613-2.7h-0.038c-0.179,0.83-0.359,1.89-0.56,2.7l-0.723,2.972H21.694z"/>
<path fill="#FFFFFF" d="M28.471,12.658h-3.268V10h9.354v2.658h-3.324V24h-2.762V12.658z"/>
<path fill="#FFFFFF" d="M46.24,18.643c-0.053-1.685-0.107-3.721-0.107-5.756h-0.055c-0.379,1.787-0.887,3.78-1.354,5.421
	l-1.482,5.465h-2.148l-1.297-5.422c-0.398-1.641-0.813-3.636-1.102-5.464H38.66c-0.076,1.89-0.127,4.052-0.219,5.795L38.225,24
	H35.68l0.777-14h3.664l1.191,4.674c0.379,1.62,0.76,3.365,1.027,5.006h0.055c0.346-1.62,0.758-3.469,1.156-5.026L44.85,10h3.594
	l0.668,14H46.42L46.24,18.643z"/>
<rect x="10" y="30" fill-rule="evenodd" clip-rule="evenodd" fill="#302C3B" width="18" height="2"/>
<rect x="13" y="32" fill-rule="evenodd" clip-rule="evenodd" fill="#99A8AE" width="14" height="24"/>
<rect x="12" y="32" fill-rule="evenodd" clip-rule="evenodd" fill="#A6E639" width="14" height="22"/>
<rect x="14" y="32" fill-rule="evenodd" clip-rule="evenodd" fill="#7AB51D" width="10" height="20"/>
<rect x="16" y="48" fill-rule="evenodd" clip-rule="evenodd" fill="#A6E639" width="6" height="2"/>
<rect x="16" y="32" fill-rule="evenodd" clip-rule="evenodd" fill="#A6E639" width="6" height="2"/>
<rect x="34" y="38" fill-rule="evenodd" clip-rule="evenodd" fill="#302C3B" width="4" height="4"/>
<rect x="40" y="38" fill-rule="evenodd" clip-rule="evenodd" fill="#302C3B" width="4" height="4"/>
<rect x="46" y="38" fill-rule="evenodd" clip-rule="evenodd" fill="#302C3B" width="4" height="4"/>
<rect x="34" y="44" fill-rule="evenodd" clip-rule="evenodd" fill="#302C3B" width="4" height="4"/>
<rect x="40" y="44" fill-rule="evenodd" clip-rule="evenodd" fill="#302C3B" width="4" height="4"/>
<rect x="46" y="44" fill-rule="evenodd" clip-rule="evenodd" fill="#302C3B" width="4" height="4"/>
<rect x="34" y="50" fill-rule="evenodd" clip-rule="evenodd" fill="#302C3B" width="4" height="4"/>
<rect x="40" y="50" fill-rule="evenodd" clip-rule="evenodd" fill="#302C3B" width="4" height="4"/>
<rect x="46" y="50" fill-rule="evenodd" clip-rule="evenodd" fill="#302C3B" width="4" height="4"/>
<path fill-rule="evenodd" clip-rule="evenodd" fill="#6E8189" d="M47,33c0,4-10,4-10,0S47,29,47,33z"/>
<circle fill-rule="evenodd" clip-rule="evenodd" fill="#A6E639" cx="19" cy="41" r="3"/>
<rect x="32" y="32" fill-rule="evenodd" clip-rule="evenodd" fill="#302C3B" width="20" height="2"/>
</svg>
