<?xml version="1.0" encoding="utf-8"?>
<!-- Generator: Adobe Illustrator 15.0.0, SVG Export Plug-In . SVG Version: 6.00 Build 0)  -->
<!DOCTYPE svg PUBLIC "-//W3C//DTD SVG 1.1//EN" "http://www.w3.org/Graphics/SVG/1.1/DTD/svg11.dtd">
<svg version="1.1" id="Layer_1" xmlns="http://www.w3.org/2000/svg" xmlns:xlink="http://www.w3.org/1999/xlink" x="0px" y="0px"
	 width="64px" height="64px" viewBox="0 0 64 64" enable-background="new 0 0 64 64" xml:space="preserve">
<rect x="9.5" y="31.498" fill="#4E5E67" width="45" height="24.877"/>
<rect x="2" y="60" fill="#BEC3CF" width="60" height="2"/>
<rect x="13" y="56" fill="#BEC3CF" width="38" height="2"/>
<rect x="40" y="37" fill="#B47D56" width="9" height="12"/>
<rect x="41" y="39" fill="#75D6FF" width="3" height="9"/>
<rect x="45" y="39" fill="#75D6FF" width="3" height="9"/>
<rect x="15" y="37" fill="#B47D56" width="9" height="12"/>
<rect x="16" y="39" fill="#75D6FF" width="3" height="9"/>
<rect x="20" y="39" fill="#75D6FF" width="3" height="9"/>
<rect x="41" y="38" fill="#018BC9" width="3" height="1"/>
<rect x="45" y="38" fill="#018BC9" width="3" height="1"/>
<rect x="16" y="38" fill="#018BC9" width="3" height="1"/>
<rect x="20" y="38" fill="#018BC9" width="3" height="1"/>
<rect x="5" y="58" fill="#E6EBEF" width="54" height="2"/>
<rect x="17" y="54" fill="#E6EBEF" width="30" height="2"/>
<rect x="5" y="28" fill="#99A8AE" width="54" height="2"/>
<rect x="2" y="30" fill="#E6EBEF" width="60" height="2"/>
<polygon fill="#99A8AE" points="31.99,3 5,20 5,25 31.99,8 59,25 59,20 "/>
<polygon fill="#E6EBEF" points="31.99,2 2,21 2,24 31.99,5 62,24 62,21 "/>
<polygon fill="#E6EBEF" points="31.99,7 2,26 2,28 62,28 62,26 "/>
<polygon fill="#BEC3CF" points="31.99,10 7,26 57,26 "/>
<path fill="#FFFFFF" d="M32,17.688c-1.102,0-2-0.729-2-1.625s0.898-1.625,2-1.625c1.104,0,2,0.666,2,1.563h2
	c0-1.512-1.279-2.635-3-3v-1h-2v1c-1.719,0.365-3,1.553-3,3.063c0,1.791,1.795,3.25,4,3.25c1.104,0,2,0.729,2,1.625
	s-0.896,1.625-2,1.625c-1.102,0-2-0.666-2-1.563h-2c0,1.51,1.281,2.635,3,3v1h2v-1c1.721-0.365,3-1.553,3-3.063
	C36,19.145,34.205,17.688,32,17.688z"/>
<rect x="6" y="33" fill="#E6EBEF" width="7" height="24"/>
<rect x="5" y="56" fill="#99A8AE" width="9" height="2"/>
<rect x="5" y="32" fill="#99A8AE" width="9" height="2"/>
<rect x="7" y="35" fill="#C8D0D6" width="1" height="20"/>
<rect x="9" y="35" fill="#C8D0D6" width="1" height="20"/>
<rect x="11" y="35" fill="#C8D0D6" width="1" height="20"/>
<rect x="51" y="33" fill="#E6EBEF" width="7" height="24"/>
<rect x="50" y="56" fill="#99A8AE" width="9" height="2"/>
<rect x="50" y="32" fill="#99A8AE" width="9" height="2"/>
<rect x="52" y="35" fill="#C8D0D6" width="1" height="20"/>
<rect x="54" y="35" fill="#C8D0D6" width="1" height="20"/>
<rect x="56" y="35" fill="#C8D0D6" width="1" height="20"/>
<path fill="#B47D56" d="M26,41.367V52h12V41.367C38,32.811,26,32.943,26,41.367z"/>
<path fill="#785647" d="M27,41.148V52h10V41.148C37,34.283,27,34.283,27,41.148z"/>
<rect x="21" y="52" fill="#99A8AE" width="22" height="2"/>
<path fill="#B47D56" d="M33,41h3c-0.117-2.443-1.494-3.77-3-4V41z"/>
<path fill="#B47D56" d="M31,41v-4c-1.504,0.25-2.881,1.592-3,4H31z"/>
<rect x="33" y="42" fill="#B47D56" width="3" height="4"/>
<rect x="28" y="42" fill="#B47D56" width="3" height="4"/>
<rect x="33" y="47" fill="#B47D56" width="3" height="4"/>
<rect x="28" y="47" fill="#B47D56" width="3" height="4"/>
</svg>
