<?xml version="1.0" encoding="utf-8"?>
<!-- Generator: Adobe Illustrator 15.0.0, SVG Export Plug-In . SVG Version: 6.00 Build 0)  -->
<!DOCTYPE svg PUBLIC "-//W3C//DTD SVG 1.1//EN" "http://www.w3.org/Graphics/SVG/1.1/DTD/svg11.dtd">
<svg version="1.1" id="Layer_1" xmlns="http://www.w3.org/2000/svg" xmlns:xlink="http://www.w3.org/1999/xlink" x="0px" y="0px"
	 width="64px" height="64px" viewBox="0 0 64 64" enable-background="new 0 0 64 64" xml:space="preserve">
<path fill="#FB367D" d="M32,4.345c-2.389-4.139-9-2.521-9,2.678c0,3.492,3.049,5.827,9,10.978c5.951-5.15,9-7.485,9-10.978
	C41,1.823,34.389,0.206,32,4.345z"/>
<rect x="4" y="21" fill="#F6BEC1" width="56" height="37"/>
<rect x="2" y="58" fill="#E84D88" width="60" height="4"/>
<rect x="2" y="18" fill="#E84D88" width="60" height="4"/>
<rect x="4" y="22" fill="#FF8FA8" width="56" height="1"/>
<rect x="18" y="58" fill="#FF8FA8" width="28" height="2"/>
<rect x="16" y="60" fill="#F6BEC1" width="32" height="2"/>
<rect x="20" y="42" fill="#E84D88" width="24" height="16"/>
<rect x="22" y="46" fill="#75D6FF" width="20" height="12"/>
<rect x="22" y="44" fill="#018BC9" width="20" height="2"/>
<rect x="28" y="51.5" fill="#E84D88" width="8" height="1"/>
<rect x="31" y="42" fill="#E84D88" width="2" height="16"/>
<rect x="8" y="26" fill="#75D6FF" width="8" height="12"/>
<rect x="20" y="26" fill="#75D6FF" width="8" height="12"/>
<rect x="36" y="26" fill="#75D6FF" width="8" height="12"/>
<rect x="48" y="26" fill="#75D6FF" width="8" height="12"/>
<rect x="48" y="42" fill="#75D6FF" width="8" height="12"/>
<rect x="8" y="42" fill="#75D6FF" width="8" height="12"/>
<rect x="48" y="25" fill="#FF8FA8" width="8" height="1"/>
<rect x="36" y="25" fill="#FF8FA8" width="8" height="1"/>
<rect x="20" y="25" fill="#FF8FA8" width="8" height="1"/>
<rect x="8" y="25" fill="#FF8FA8" width="8" height="1"/>
<rect x="48" y="41" fill="#FF8FA8" width="8" height="1"/>
<rect x="8" y="41" fill="#FF8FA8" width="8" height="1"/>
<rect x="18" y="40" fill="#FF8FA8" width="28" height="4"/>
<rect x="18" y="43" fill="#8C0B5E" width="28" height="1"/>
<polygon fill="#8C0B5E" points="44,46 44,44 46,44 "/>
<polygon fill="#8C0B5E" points="20,46 18,44 20,44 "/>
<path fill="#FB367D" d="M48,38h3.199c0-1.988-1.074-4.8-2.398-4.8c1.324,0,2.398-1.612,2.398-3.601V26H48V38z"/>
<path fill="#FB367D" d="M52.801,26v3.6c0,1.988,1.074,3.601,2.398,3.601c-1.324,0-2.398,2.812-2.398,4.8H56V26H52.801z"/>
<path fill="#FB367D" d="M36,38h3.199c0-1.988-1.074-4.8-2.398-4.8c1.324,0,2.398-1.612,2.398-3.601V26H36V38z"/>
<path fill="#FB367D" d="M40.801,26v3.6c0,1.988,1.074,3.601,2.398,3.601c-1.324,0-2.398,2.812-2.398,4.8H44V26H40.801z"/>
<path fill="#FB367D" d="M20,38h3.199c0-1.988-1.074-4.8-2.398-4.8c1.324,0,2.398-1.612,2.398-3.601V26H20V38z"/>
<path fill="#FB367D" d="M24.801,26v3.6c0,1.988,1.074,3.601,2.398,3.601c-1.324,0-2.398,2.812-2.398,4.8H28V26H24.801z"/>
<path fill="#FB367D" d="M8,54h3.199c0-1.988-1.074-4.801-2.398-4.801c1.324,0,2.398-1.611,2.398-3.6V42H8V54z"/>
<path fill="#FB367D" d="M12.801,42v3.6c0,1.988,1.074,3.6,2.398,3.6c-1.324,0-2.398,2.813-2.398,4.801H16V42H12.801z"/>
<path fill="#FB367D" d="M48,54h3.199c0-1.988-1.074-4.801-2.398-4.801c1.324,0,2.398-1.611,2.398-3.6V42H48V54z"/>
<path fill="#FB367D" d="M52.801,42v3.6c0,1.988,1.074,3.6,2.398,3.6c-1.324,0-2.398,2.813-2.398,4.801H56V42H52.801z"/>
<path fill="#FB367D" d="M8,38h3.199c0-1.988-1.074-4.8-2.398-4.8c1.324,0,2.398-1.612,2.398-3.601V26H8V38z"/>
<path fill="#FB367D" d="M12.801,26v3.6c0,1.988,1.074,3.601,2.398,3.601c-1.324,0-2.398,2.812-2.398,4.8H16V26H12.801z"/>
</svg>
