<?xml version="1.0" encoding="utf-8"?>
<!-- Generator: Adobe Illustrator 15.0.0, SVG Export Plug-In . SVG Version: 6.00 Build 0)  -->
<!DOCTYPE svg PUBLIC "-//W3C//DTD SVG 1.1//EN" "http://www.w3.org/Graphics/SVG/1.1/DTD/svg11.dtd">
<svg version="1.1" id="Layer_1" xmlns="http://www.w3.org/2000/svg" xmlns:xlink="http://www.w3.org/1999/xlink" x="0px" y="0px"
	 width="64px" height="64px" viewBox="0 0 64 64" enable-background="new 0 0 64 64" xml:space="preserve">
<rect x="4" y="16" fill="#E6EBEF" width="56" height="44"/>
<rect x="4" y="16" fill="#BEC3CF" width="56" height="1"/>
<polygon fill="#302C3B" points="62,16 2,16 6.688,2 57.313,2 "/>
<polygon fill="#FFFFFF" points="32,47.111 40.666,50 45,50 32,45.666 19,50 23.334,50 "/>
<path fill="#4E5E67" d="M62,16L57.76,3.332l-2.322,2.166l-2.813-2.625L53.563,2H50.75l0.938,0.873l-2.813,2.625l-2.813-2.625L47,2
	h-2.813l0.938,0.873l-2.813,2.625L39.5,2.873L40.438,2h-2.813l0.938,0.873L35.75,5.498l-2.813-2.625L33.875,2h-3.75l0.938,0.873
	L28.25,5.498l-2.813-2.625L26.375,2h-2.813L24.5,2.873l-2.813,2.625l-2.813-2.625L19.813,2H17l0.938,0.873l-2.813,2.625
	l-2.813-2.625L13.25,2h-2.813l0.938,0.873L8.563,5.498L6.24,3.332L2,16h4.688L5.75,15.123l2.813-2.625l2.813,2.625L10.438,16h2.813
	l-0.938-0.877l2.813-2.625l2.813,2.625L17,16h2.813l-0.938-0.877l2.813-2.625l2.813,2.625L23.563,16h16.875L39.5,15.123l2.813-2.625
	l2.813,2.625L44.188,16H47l-0.938-0.877l2.813-2.625l2.813,2.625L50.75,16h2.813l-0.938-0.877l2.813-2.625l2.813,2.625L57.313,16H62
	z M8.563,11.623L5.75,8.998l2.813-2.625l2.813,2.625L8.563,11.623z M15.125,11.623l-2.813-2.625l2.813-2.625l2.813,2.625
	L15.125,11.623z M21.688,11.623l-2.813-2.625l2.813-2.625L24.5,8.998L21.688,11.623z M42.313,11.623L39.5,8.998l2.813-2.625
	l2.813,2.625L42.313,11.623z M48.875,11.623l-2.813-2.625l2.813-2.625l2.813,2.625L48.875,11.623z M55.438,11.623l-2.813-2.625
	l2.813-2.625l2.813,2.625L55.438,11.623z"/>
<path fill="#99A8AE" d="M56,21.5c0,0.275,0.225,0.5,0.5,0.5H60v-4h-3.5c-0.275,0-0.5,0.225-0.5,0.5V21.5z"/>
<path fill="#99A8AE" d="M58,27.5c0,0.275,0.225,0.5,0.5,0.5H60v-4h-1.5c-0.275,0-0.5,0.225-0.5,0.5V27.5z"/>
<path fill="#99A8AE" d="M56,33.5c0,0.275,0.225,0.5,0.5,0.5H60v-4h-3.5c-0.275,0-0.5,0.225-0.5,0.5V33.5z"/>
<path fill="#99A8AE" d="M58,39.5c0,0.275,0.225,0.5,0.5,0.5H60v-4h-1.5c-0.275,0-0.5,0.225-0.5,0.5V39.5z"/>
<path fill="#99A8AE" d="M56,45.5c0,0.275,0.225,0.5,0.5,0.5H60v-4h-3.5c-0.275,0-0.5,0.225-0.5,0.5V45.5z"/>
<path fill="#99A8AE" d="M58,51.5c0,0.275,0.225,0.5,0.5,0.5H60v-4h-1.5c-0.275,0-0.5,0.225-0.5,0.5V51.5z"/>
<path fill="#99A8AE" d="M56,57.5c0,0.275,0.225,0.5,0.5,0.5H60v-4h-3.5c-0.275,0-0.5,0.225-0.5,0.5V57.5z"/>
<path fill="#99A8AE" d="M8,21.5C8,21.775,7.775,22,7.5,22H4v-4h3.5C7.775,18,8,18.225,8,18.5V21.5z"/>
<path fill="#99A8AE" d="M6,27.5C6,27.775,5.775,28,5.5,28H4v-4h1.5C5.775,24,6,24.225,6,24.5V27.5z"/>
<path fill="#99A8AE" d="M8,33.5C8,33.775,7.775,34,7.5,34H4v-4h3.5C7.775,30,8,30.225,8,30.5V33.5z"/>
<path fill="#99A8AE" d="M6,39.5C6,39.775,5.775,40,5.5,40H4v-4h1.5C5.775,36,6,36.225,6,36.5V39.5z"/>
<path fill="#99A8AE" d="M8,45.5C8,45.775,7.775,46,7.5,46H4v-4h3.5C7.775,42,8,42.225,8,42.5V45.5z"/>
<path fill="#99A8AE" d="M6,51.5C6,51.775,5.775,52,5.5,52H4v-4h1.5C5.775,48,6,48.225,6,48.5V51.5z"/>
<path fill="#99A8AE" d="M8,57.5C8,57.775,7.775,58,7.5,58H4v-4h3.5C7.775,54,8,54.225,8,54.5V57.5z"/>
<rect x="2" y="60" fill="#302C3B" width="60" height="2"/>
<rect x="18" y="60" fill="#BEC3CF" width="28" height="1"/>
<rect x="16" y="61" fill="#99A8AE" width="32" height="1"/>
<polygon fill="#99A8AE" points="18,51 19,53 45,53 46,51 "/>
<rect x="19" y="51.5" fill="#BEC3CF" width="12" height="8.5"/>
<rect x="20" y="53" fill="#75D6FF" width="10" height="7"/>
<rect x="20" y="52.5" fill="#018BC9" width="10" height="0.5"/>
<rect x="24.5" y="52.25" fill="#BEC3CF" width="1" height="7.75"/>
<rect x="33" y="51.5" fill="#BEC3CF" width="12" height="8.5"/>
<rect x="34" y="53" fill="#75D6FF" width="10" height="7"/>
<rect x="34" y="52.5" fill="#018BC9" width="10" height="0.5"/>
<rect x="38.5" y="52.25" fill="#BEC3CF" width="1" height="7.75"/>
<rect x="18" y="50" fill="#FFFFFF" width="28" height="1"/>
<rect x="46" y="36" fill="#75D6FF" width="8" height="8"/>
<rect x="46" y="36" fill="#018BC9" width="8" height="1"/>
<rect x="48" y="48" fill="#75D6FF" width="6" height="8"/>
<rect x="48" y="48" fill="#018BC9" width="6" height="1"/>
<rect x="10" y="48" fill="#75D6FF" width="6" height="8"/>
<rect x="10" y="48" fill="#018BC9" width="6" height="1"/>
<rect x="34" y="36" fill="#75D6FF" width="8" height="8"/>
<rect x="34" y="36" fill="#018BC9" width="8" height="1"/>
<rect x="10" y="36" fill="#75D6FF" width="8" height="8"/>
<rect x="10" y="36" fill="#018BC9" width="8" height="1"/>
<rect x="22" y="36" fill="#75D6FF" width="8" height="8"/>
<rect x="22" y="36" fill="#018BC9" width="8" height="1"/>
<rect x="46" y="24" fill="#75D6FF" width="8" height="8"/>
<rect x="46" y="24" fill="#018BC9" width="8" height="1"/>
<rect x="34" y="24" fill="#75D6FF" width="8" height="8"/>
<rect x="34" y="24" fill="#018BC9" width="8" height="1"/>
<rect x="10" y="24" fill="#75D6FF" width="8" height="8"/>
<rect x="10" y="24" fill="#018BC9" width="8" height="1"/>
<rect x="22" y="24" fill="#75D6FF" width="8" height="8"/>
<rect x="22" y="24" fill="#018BC9" width="8" height="1"/>
<rect x="22" y="6" fill="#E6EBEF" width="20" height="12"/>
<rect x="24" y="8" fill="#E81C27" width="16" height="4"/>
<rect x="24" y="14" fill="#E81C27" width="16" height="4"/>
<rect x="30" y="16" fill="#E81C27" width="4" height="6"/>
</svg>
