<?xml version="1.0" encoding="utf-8"?>
<!-- Generator: Adobe Illustrator 15.0.0, SVG Export Plug-In . SVG Version: 6.00 Build 0)  -->
<!DOCTYPE svg PUBLIC "-//W3C//DTD SVG 1.1//EN" "http://www.w3.org/Graphics/SVG/1.1/DTD/svg11.dtd">
<svg version="1.1" id="Layer_1" xmlns="http://www.w3.org/2000/svg" xmlns:xlink="http://www.w3.org/1999/xlink" x="0px" y="0px"
	 width="64px" height="64px" viewBox="0 0 64 64" enable-background="new 0 0 64 64" xml:space="preserve">
<rect x="6" y="25" fill="#BEC3CF" width="52" height="34"/>
<rect x="4" y="24" fill="#99A8AE" width="56" height="4"/>
<rect x="4" y="41" fill="#99A8AE" width="56" height="4"/>
<polygon fill="#B00505" points="51,14 13,14 2,24 62,24 "/>
<polygon fill="#E03636" points="32,2 12,20 52,20 "/>
<polygon fill="#E6EBEF" points="32,6 15.809,20 15.81,58 48.19,58 48.19,20 "/>
<rect x="2" y="58" fill="#302C3B" width="60" height="4"/>
<rect x="20" y="60" fill="#E6EBEF" width="24" height="2"/>
<rect x="22" y="58" fill="#BEC3CF" width="20" height="2"/>
<path fill="#FDCA47" d="M22,17.048C22,22.544,26.478,27,31.999,27C37.522,27,42,22.544,42,17.048h-4.708
	c0,1.014-0.219,1.974-0.604,2.844C36.492,17.158,34.208,15,31.411,15c-2.926,0-5.294,2.358-5.294,5.268
	c0,1.15,0.374,2.21,1.003,3.077c-2.336-1.146-3.944-3.532-3.944-6.297H22z M34.94,20.268c0,1.94-1.584,3.513-3.529,3.513
	c-1.947,0-3.529-1.572-3.529-3.513c0-1.938,1.582-3.513,3.529-3.513C33.356,16.755,34.94,18.329,34.94,20.268z"/>
<path fill="#BEC3CF" d="M26,49.321V58h12v-8.679C38,40.827,26,40.958,26,49.321z"/>
<path fill="#302C3B" d="M27,49.943V58h10v-8.057C37,41.957,27,42.08,27,49.943z"/>
<path fill="#99A8AE" d="M8,32.896V39h6v-6.104C14,29.035,8,29.035,8,32.896z"/>
<path fill="#99A8AE" d="M8,49.896V56h6v-6.104C14,46.035,8,46.035,8,49.896z"/>
<path fill="#99A8AE" d="M50,49.896V56h6v-6.104C56,46.035,50,46.035,50,49.896z"/>
<path fill="#99A8AE" d="M50,32.896V39h6v-6.104C56,29.035,50,29.035,50,32.896z"/>
<path fill="#302C3B" d="M51,33.252V38h4v-4.748C55,30.25,51,30.25,51,33.252z"/>
<path fill="#BEC3CF" d="M39,32.896V39h6v-6.104C45,29.035,39,29.035,39,32.896z"/>
<path fill="#302C3B" d="M40,33.252V38h4v-4.748C44,30.25,40,30.25,40,33.252z"/>
<path fill="#BEC3CF" d="M40,49.896V56h6v-6.104C46,46.035,40,46.035,40,49.896z"/>
<path fill="#302C3B" d="M41,50.252V55h4v-4.748C45,47.25,41,47.25,41,50.252z"/>
<path fill="#BEC3CF" d="M18,49.896V56h6v-6.104C24,46.035,18,46.035,18,49.896z"/>
<path fill="#302C3B" d="M19,50.252V55h4v-4.748C23,47.25,19,47.25,19,50.252z"/>
<path fill="#BEC3CF" d="M19,32.896V39h6v-6.104C25,29.035,19,29.035,19,32.896z"/>
<path fill="#302C3B" d="M20,33.252V38h4v-4.748C24,30.25,20,30.25,20,33.252z"/>
<path fill="#BEC3CF" d="M29,32.896V39h6v-6.104C35,29.035,29,29.035,29,32.896z"/>
<path fill="#302C3B" d="M30,33.252V38h4v-4.748C34,30.25,30,30.25,30,33.252z"/>
<path fill="#302C3B" d="M51,50.252V55h4v-4.748C55,47.25,51,47.25,51,50.252z"/>
<path fill="#302C3B" d="M9,50.252V55h4v-4.748C13,47.25,9,47.25,9,50.252z"/>
<path fill="#302C3B" d="M9,33.252V38h4v-4.748C13,30.25,9,30.25,9,33.252z"/>
</svg>
