<?xml version="1.0" encoding="utf-8"?>
<!-- Generator: Adobe Illustrator 15.0.0, SVG Export Plug-In . SVG Version: 6.00 Build 0)  -->
<!DOCTYPE svg PUBLIC "-//W3C//DTD SVG 1.1//EN" "http://www.w3.org/Graphics/SVG/1.1/DTD/svg11.dtd">
<svg version="1.1" id="Layer_1" xmlns="http://www.w3.org/2000/svg" xmlns:xlink="http://www.w3.org/1999/xlink" x="0px" y="0px"
	 width="64px" height="64px" viewBox="0 0 64 64" enable-background="new 0 0 64 64" xml:space="preserve">
<g>
	<rect x="4" y="6" fill="#E6EBEF" width="56" height="52"/>
	<rect x="2" y="58" fill="#302C3B" width="60" height="4"/>
	<rect x="2" y="2" fill="#BEC3CF" width="60" height="4"/>
	<rect x="4" y="6" fill="#99A8AE" width="56" height="1"/>
	<rect x="18" y="58" fill="#BEC3CF" width="28" height="2"/>
	<rect x="16" y="60" fill="#99A8AE" width="32" height="2"/>
	<rect x="20" y="42" fill="#BEC3CF" width="24" height="16"/>
	<rect x="22" y="46" fill="#75D6FF" width="20" height="12"/>
	<rect x="22" y="44" fill="#018BC9" width="20" height="2"/>
	<rect x="28" y="51.5" fill="#FFFFFF" width="8" height="1"/>
	<rect x="31" y="42" fill="#BEC3CF" width="2" height="16"/>
	<rect x="8" y="10" fill="#75D6FF" width="8" height="12"/>
	<rect x="8" y="10" fill="#018BC9" width="8" height="2"/>
	<rect x="20" y="10" fill="#75D6FF" width="8" height="12"/>
	<rect x="20" y="10" fill="#018BC9" width="8" height="2"/>
	<rect x="36" y="10" fill="#75D6FF" width="8" height="12"/>
	<rect x="36" y="10" fill="#018BC9" width="8" height="2"/>
	<rect x="48" y="10" fill="#75D6FF" width="8" height="12"/>
	<rect x="48" y="10" fill="#018BC9" width="8" height="2"/>
	<rect x="8" y="26" fill="#75D6FF" width="8" height="12"/>
	<rect x="8" y="26" fill="#018BC9" width="8" height="2"/>
	<rect x="20" y="26" fill="#75D6FF" width="8" height="12"/>
	<rect x="20" y="26" fill="#018BC9" width="8" height="2"/>
	<rect x="36" y="26" fill="#75D6FF" width="8" height="12"/>
	<rect x="36" y="26" fill="#018BC9" width="8" height="2"/>
	<rect x="48" y="26" fill="#75D6FF" width="8" height="12"/>
	<rect x="48" y="26" fill="#018BC9" width="8" height="2"/>
	<rect x="48" y="42" fill="#75D6FF" width="8" height="12"/>
	<rect x="48" y="42" fill="#018BC9" width="8" height="2"/>
	<rect x="8" y="42" fill="#75D6FF" width="8" height="12"/>
	<rect x="8" y="42" fill="#018BC9" width="8" height="2"/>
	<rect x="8" y="53" fill="#FFFFFF" width="8" height="1"/>
	<rect x="48" y="53" fill="#FFFFFF" width="8" height="1"/>
	<rect x="48" y="37" fill="#FFFFFF" width="8" height="1"/>
	<rect x="36" y="37" fill="#FFFFFF" width="8" height="1"/>
	<rect x="20" y="37" fill="#FFFFFF" width="8" height="1"/>
	<rect x="8" y="37" fill="#FFFFFF" width="8" height="1"/>
	<rect x="8" y="21" fill="#FFFFFF" width="8" height="1"/>
	<rect x="20" y="21" fill="#FFFFFF" width="8" height="1"/>
	<rect x="36" y="21" fill="#FFFFFF" width="8" height="1"/>
	<rect x="48" y="21" fill="#FFFFFF" width="8" height="1"/>
	<rect x="48" y="25" fill="#99A8AE" width="8" height="1"/>
	<rect x="36" y="25" fill="#99A8AE" width="8" height="1"/>
	<rect x="20" y="25" fill="#99A8AE" width="8" height="1"/>
	<rect x="8" y="25" fill="#99A8AE" width="8" height="1"/>
	<rect x="48" y="9" fill="#99A8AE" width="8" height="1"/>
	<rect x="36" y="9" fill="#99A8AE" width="8" height="1"/>
	<rect x="20" y="9" fill="#99A8AE" width="8" height="1"/>
	<rect x="8" y="9" fill="#99A8AE" width="8" height="1"/>
	<rect x="48" y="41" fill="#99A8AE" width="8" height="1"/>
	<rect x="8" y="41" fill="#99A8AE" width="8" height="1"/>
	<rect x="18" y="40" fill="#FFFFFF" width="28" height="4"/>
	<rect x="18" y="43" fill="#99A8AE" width="28" height="1"/>
	<polygon fill="#99A8AE" points="44,46 44,44 46,44 	"/>
	<polygon fill="#99A8AE" points="20,46 18,44 20,44 	"/>
	<rect x="20" y="57" fill="#99A8AE" width="2" height="1"/>
	<rect x="42" y="57" fill="#99A8AE" width="2" height="1"/>
	<rect x="31" y="57" fill="#99A8AE" width="2" height="1"/>
</g>
</svg>
