<?xml version="1.0" encoding="utf-8"?>
<!-- Generator: Adobe Illustrator 15.0.0, SVG Export Plug-In . SVG Version: 6.00 Build 0)  -->
<!DOCTYPE svg PUBLIC "-//W3C//DTD SVG 1.1//EN" "http://www.w3.org/Graphics/SVG/1.1/DTD/svg11.dtd">
<svg version="1.1" id="Layer_1" xmlns="http://www.w3.org/2000/svg" xmlns:xlink="http://www.w3.org/1999/xlink" x="0px" y="0px"
	 width="64px" height="64px" viewBox="0 0 64 64" enable-background="new 0 0 64 64" xml:space="preserve">
<rect x="20" y="10" fill="#99A8AE" width="16" height="10"/>
<path fill="#4E5E67" d="M28,20h-8V10h16C36,17,28,20,28,20z"/>
<rect x="2" y="58" fill="#302C3B" width="60" height="4"/>
<path fill="#E6EBEF" d="M40,20H16c-2.07,0-4,1.904-4,4v34h32V24C44,21.904,42.072,20,40,20z"/>
<path fill="#4E5E67" d="M62,32H33.9c-1.045,0-1.9,0.898-1.9,2v24h30v-2h-2v-6h2v-2h-2v-6h2v-2h-2v-6h2V32z"/>
<path fill="#4E5E67" d="M9,34c-0.55,0-1.25,0.373-1.554,0.832l-2.893,4.336C4.25,39.625,4,40.449,4,41v17h8V34H9z"/>
<rect x="15" y="47" fill="#CFD8DD" width="14" height="11"/>
<rect x="16" y="48" fill="#75D6FF" width="12" height="10"/>
<rect x="16" y="48" fill="#018BC9" width="12" height="1"/>
<rect x="21" y="48" fill="#E6EBEF" width="2" height="10"/>
<rect x="6" y="50" fill="#75D6FF" width="4" height="6"/>
<rect x="6" y="50" fill="#018BC9" width="4" height="1"/>
<rect x="6" y="42" fill="#75D6FF" width="4" height="6"/>
<rect x="14" y="24" fill="#75D6FF" width="4" height="6"/>
<rect x="20" y="24" fill="#75D6FF" width="4" height="6"/>
<rect x="26" y="24" fill="#75D6FF" width="4" height="6"/>
<rect x="26" y="32" fill="#75D6FF" width="4" height="6"/>
<rect x="26" y="40" fill="#75D6FF" width="4" height="6"/>
<rect x="20" y="32" fill="#75D6FF" width="4" height="6"/>
<rect x="20" y="40" fill="#75D6FF" width="4" height="6"/>
<rect x="14" y="32" fill="#75D6FF" width="4" height="6"/>
<rect x="14" y="40" fill="#75D6FF" width="4" height="6"/>
<rect x="32" y="24" fill="#75D6FF" width="4" height="6"/>
<rect x="38" y="24" fill="#75D6FF" width="4" height="6"/>
<rect x="14" y="24" fill="#018BC9" width="4" height="1"/>
<rect x="20" y="24" fill="#018BC9" width="4" height="1"/>
<rect x="26" y="24" fill="#018BC9" width="4" height="1"/>
<rect x="26" y="32" fill="#018BC9" width="4" height="1"/>
<rect x="26" y="40" fill="#018BC9" width="4" height="1"/>
<rect x="20" y="32" fill="#018BC9" width="4" height="1"/>
<rect x="20" y="40" fill="#018BC9" width="4" height="1"/>
<rect x="14" y="32" fill="#018BC9" width="4" height="1"/>
<rect x="14" y="40" fill="#018BC9" width="4" height="1"/>
<rect x="32" y="24" fill="#018BC9" width="4" height="1"/>
<rect x="38" y="24" fill="#018BC9" width="4" height="1"/>
<rect x="14" y="58" fill="#BEC3CF" width="16" height="2"/>
<rect x="12" y="60" fill="#99A8AE" width="20" height="2"/>
<circle fill="#E6EBEF" cx="28" cy="10" r="8"/>
<rect x="34" y="42" fill="#75D6FF" width="26" height="6"/>
<rect x="34" y="34" fill="#75D6FF" width="26" height="6"/>
<rect x="34" y="34" fill="#018BC9" width="26" height="1"/>
<rect x="34" y="42" fill="#018BC9" width="26" height="1"/>
<rect x="34" y="50" fill="#75D6FF" width="26" height="6"/>
<rect x="34" y="50" fill="#018BC9" width="26" height="1"/>
<rect x="6" y="42" fill="#018BC9" width="4" height="1"/>
<path fill="#E81C27" d="M33,8h-3V5c0-0.551-0.45-1-1-1h-2c-0.55,0-1,0.449-1,1v3h-3c-0.55,0-1,0.449-1,1v2c0,0.549,0.45,1,1,1h3v3
	c0,0.549,0.45,1,1,1h2c0.55,0,1-0.451,1-1v-3h3c0.551,0,1-0.451,1-1V9C34,8.449,33.551,8,33,8z"/>
<path fill="#F89987" d="M29.625,7.5V5.25c0-0.413-0.338-0.75-0.75-0.75h-1.5c0,0,1.431,0.278,1.734,0.625
	C29.51,5.582,29.625,7.5,29.625,7.5z"/>
<path fill="#F89987" d="M33.625,10.828V9.25c0-0.413-0.338-0.75-0.75-0.75h-1.5c0,0,1.389,0.242,1.703,0.563
	C33.402,9.393,33.625,10.828,33.625,10.828z"/>
<path fill="#B00505" d="M26.375,12.5v2.25c0,0.413,0.338,0.75,0.75,0.75h1.5c0,0-1.376-0.305-1.672-0.641
	C26.551,14.404,26.375,12.5,26.375,12.5z"/>
<path fill="#B00505" d="M22.396,8.5v2.25c0,0.413,0.338,0.75,0.75,0.75h1.5c0,0-1.402-0.334-1.709-0.672
	C22.518,10.363,22.396,8.5,22.396,8.5z"/>
</svg>
