<?xml version="1.0" encoding="utf-8"?>
<!-- Generator: Adobe Illustrator 15.0.0, SVG Export Plug-In . SVG Version: 6.00 Build 0)  -->
<!DOCTYPE svg PUBLIC "-//W3C//DTD SVG 1.1//EN" "http://www.w3.org/Graphics/SVG/1.1/DTD/svg11.dtd">
<svg version="1.1" id="Layer_1" xmlns="http://www.w3.org/2000/svg" xmlns:xlink="http://www.w3.org/1999/xlink" x="0px" y="0px"
	 width="64px" height="64px" viewBox="0 0 64 64" enable-background="new 0 0 64 64" xml:space="preserve">
<rect x="38" y="12" fill="#D6A57C" width="6" height="6"/>
<rect x="38" y="10" fill="#785647" width="6" height="2"/>
<rect x="20" y="12" fill="#D6A57C" width="6" height="6"/>
<rect x="20" y="10" fill="#785647" width="6" height="2"/>
<polygon fill="#99A8AE" points="50,50 14,50 8,62 56,62 "/>
<polygon fill="#6E8189" points="8,50 14,50 8,62 2,62 "/>
<polygon fill="#6E8189" points="50,50 56,50 62,62 56,62 "/>
<rect x="20" y="28" fill="#FFE1BD" width="24" height="6"/>
<rect x="14" y="44" fill="#FFE1BD" width="36" height="6"/>
<rect x="14" y="28" fill="#D6A57C" width="6" height="6"/>
<rect x="8" y="44" fill="#D6A57C" width="6" height="6"/>
<rect x="26" y="12" fill="#FFE1BD" width="12" height="6"/>
<path fill="#B00505" d="M47.455,6c-3.002,0-7.273-1.791-7.273-4H23.818c0,2.209-4.271,4-7.273,4C13.818,6,12,5,12,5
	c0,2.209,2.646,5,5.908,5h28.184C49.354,10,52,7.209,52,5C52,5,50.182,6,47.455,6z"/>
<path fill="#B00505" d="M57.398,38C54.363,38,50,36.209,50,34H14c0,2.209-4.365,4-7.4,4C3.838,38,2,37,2,37c0,2.209,2.676,5,5.977,5
	h48.045C59.322,42,62,39.209,62,37C62,37,60.16,38,57.398,38z"/>
<path fill="#B00505" d="M51.398,22C48.363,22,44,20.209,44,18H20c0,2.209-4.365,4-7.4,4C9.838,22,8,21,8,21c0,2.209,2.676,5,5.977,5
	h36.045C53.322,26,56,23.209,56,21C56,21,54.16,22,51.398,22z"/>
<rect x="28" y="12" fill="#302C3B" width="2" height="4"/>
<rect x="22" y="12" fill="#302C3B" width="2" height="4"/>
<rect x="40" y="12" fill="#302C3B" width="2" height="4"/>
<rect x="34" y="12" fill="#302C3B" width="2" height="4"/>
<polygon fill="#E81C27" points="32,16 22,26 42,26 "/>
<rect x="26" y="10" fill="#B47D56" width="12" height="2"/>
<rect x="20" y="26" fill="#B47D56" width="24" height="2"/>
<rect x="14" y="42" fill="#B47D56" width="36" height="2"/>
<rect x="14" y="26" fill="#785647" width="6" height="2"/>
<rect x="8" y="42" fill="#785647" width="6" height="2"/>
<rect x="44" y="28" fill="#D6A57C" width="6" height="6"/>
<rect x="50" y="44" fill="#D6A57C" width="6" height="6"/>
<rect x="44" y="26" fill="#785647" width="6" height="2"/>
<rect x="50" y="42" fill="#785647" width="6" height="2"/>
<polygon fill="#D6A57C" points="40,26 32,18 24,26 "/>
<polygon fill="#302C3B" points="26,26 38,26 32,20 "/>
<path fill="#302C3B" d="M32.04,35.752"/>
<path fill="#E81C27" d="M41.818,37c-2.898-2.1-3.473-5-9.818-5c-6.337,0-7.156,3.008-9.818,5C15.509,42,8.892,41.979,8,42h48
	C55.107,41.979,48.709,42,41.818,37z"/>
<path fill="#D6A57C" d="M39.111,38c-1.934-1.684-2.879-4-7.111-4c-4.225,0-5.335,2.406-7.111,4c-4.449,4-8.295,3.982-8.889,4h32
	C47.406,41.982,43.705,42,39.111,38z"/>
<path fill="#302C3B" d="M37.242,39c-1.207-1.262-2.643-3-5.288-3c-2.643,0-4.179,1.807-5.286,3c-2.78,3-4.297,2.988-4.668,3h20
	C41.631,41.988,40.113,42,37.242,39z"/>
<path fill="#E81C27" d="M36.91,7C35.461,5.74,35.174,4,32,4c-3.169,0-3.58,1.804-4.91,3c-3.335,3-6.643,2.988-7.09,3h24
	C43.553,9.988,40.355,10,36.91,7z"/>
<path fill="#302C3B" d="M35.273,8C34.307,7.16,34.115,6,32,6c-2.113,0-2.387,1.202-3.273,2c-2.223,2-4.429,1.992-4.727,2h16
	C39.701,9.992,37.57,10,35.273,8z"/>
<rect x="42" y="52" fill="#BEC3CF" width="6" height="2"/>
<rect x="32" y="54" fill="#BEC3CF" width="6" height="2"/>
<rect x="40" y="60" fill="#BEC3CF" width="6" height="2"/>
<rect x="12" y="58" fill="#BEC3CF" width="6" height="2"/>
<rect x="14" y="52" fill="#BEC3CF" width="6" height="2"/>
<rect x="22" y="56" fill="#BEC3CF" width="6" height="2"/>
<rect x="46" y="56" fill="#BEC3CF" width="6" height="2"/>
<rect x="26" y="60" fill="#BEC3CF" width="6" height="2"/>
<rect x="28" y="50" fill="#BEC3CF" width="6" height="2"/>
<rect x="46" y="28" fill="#302C3B" width="2" height="4"/>
<rect x="52" y="44" fill="#302C3B" width="2" height="4"/>
<rect x="10" y="44" fill="#302C3B" width="2" height="4"/>
<rect x="28" y="44" fill="#302C3B" width="2" height="4"/>
<rect x="34" y="44" fill="#302C3B" width="2" height="4"/>
<rect x="40" y="44" fill="#302C3B" width="2" height="4"/>
<rect x="46" y="44" fill="#302C3B" width="2" height="4"/>
<rect x="22" y="44" fill="#302C3B" width="2" height="4"/>
<rect x="16" y="44" fill="#302C3B" width="2" height="4"/>
<rect x="16" y="28" fill="#302C3B" width="2" height="4"/>
<rect x="22" y="28" fill="#302C3B" width="2" height="4"/>
<rect x="28" y="28" fill="#302C3B" width="2" height="4"/>
<rect x="34" y="28" fill="#302C3B" width="2" height="4"/>
<rect x="40" y="28" fill="#302C3B" width="2" height="4"/>
</svg>
