<?xml version="1.0" encoding="utf-8"?>
<!-- Generator: Adobe Illustrator 16.2.0, SVG Export Plug-In . SVG Version: 6.00 Build 0)  -->
<!DOCTYPE svg PUBLIC "-//W3C//DTD SVG 1.1//EN" "http://www.w3.org/Graphics/SVG/1.1/DTD/svg11.dtd">
<svg version="1.1" id="Layer_1" xmlns="http://www.w3.org/2000/svg" xmlns:xlink="http://www.w3.org/1999/xlink" x="0px" y="0px"
	 width="64px" height="64px" viewBox="0 0 64 64" enable-background="new 0 0 64 64" xml:space="preserve">
<polygon fill="#E03636" points="3,58 55,58 55,34 39,34 27,26 27,34 15,26 15,34 3,26 "/>
<rect x="2" y="58" fill="#4E5E67" width="60" height="4"/>
<path fill="#FFE8BB" d="M3,40v2h8v4H3v2h8v4H3v2h30V40H3z M21,52h-8v-4h8V52z M21,46h-8v-4h8V46z M31,52h-8v-4h8V52z M31,46h-8v-4h8
	V46z"/>
<rect x="3" y="48" fill="#0FB4D4" width="8" height="4"/>
<rect x="13" y="48" fill="#0FB4D4" width="8" height="4"/>
<rect x="23" y="48" fill="#0FB4D4" width="8" height="4"/>
<rect x="3" y="42" fill="#0FB4D4" width="8" height="4"/>
<rect x="13" y="42" fill="#0FB4D4" width="8" height="4"/>
<path fill="#CFD8DD" d="M55,14c0-2.209-1.791-4-4-4c-0.061,0-0.118,0.015-0.178,0.018c-0.344-0.985-1.174-1.741-2.213-1.956
	C47.854,6.264,46.074,5,44,5c-0.5,0-0.975,0.096-1.43,0.232C41.917,3.914,40.57,3,39,3c-0.799,0-1.539,0.24-2.163,0.644
	C36.328,3.247,35.695,3,35,3c-0.555,0-1.068,0.161-1.514,0.424C32.585,2.545,31.357,2,30,2c-2.761,0-5,2.239-5,5s2.239,5,5,5
	c0.5,0,0.973-0.096,1.429-0.232C32.083,13.085,33.43,14,35,14c1.052,0,2.001-0.415,2.715-1.078c0.551,0.653,1.364,1.077,2.285,1.077
	c0.3,0,0.584-0.058,0.857-0.14C41.718,14.562,42.803,15,44,15c0.061,0,0.117-0.016,0.178-0.018C44.586,16.154,45.688,17,47,17
	c0.4,0,0.779-0.082,1.129-0.224C48.855,17.528,49.871,18,51,18c0,2.209,1.791,4,4,4s4-1.791,4-4S57.209,14,55,14z"/>
<polygon fill="#C21413" points="39,32 27,24 27,26 39,34 52,34 52,32 "/>
<rect x="23" y="42" fill="#0FB4D4" width="8" height="4"/>
<rect x="37" y="44" fill="#594640" width="8" height="14"/>
<rect x="36" y="42" fill="#C21413" width="10" height="2"/>
<polygon fill="#C21413" points="60.657,50 49.343,50 49,58 61,58 "/>
<polygon fill="#E6EBEF" points="60.314,42 49.686,42 49.343,50 60.657,50 "/>
<polygon fill="#C21413" points="59.973,34 50.027,34 49.686,42 60.314,42 "/>
<polygon fill="#E6EBEF" points="59.629,26 50.371,26 50.027,34 59.973,34 "/>
<polygon fill="#C21413" points="59.286,18 50.714,18 50.371,26 55,26 59.629,26 "/>
<rect x="36" y="60" fill="#CFD8DD" width="10" height="2"/>
<rect x="37" y="58" fill="#99A8AE" width="8" height="2"/>
<rect x="42.293" y="50.293" transform="matrix(0.7071 -0.7071 0.7071 0.7071 -23.468 45.3431)" fill="#FFE8BB" width="1.414" height="1.414"/>
<rect x="3" y="40" fill="#D6A57C" width="30" height="2"/>
<rect x="37" y="44" fill="#45332C" width="8" height="2"/>
<polygon fill="#C21413" points="3,24 3,26 15,34 15,32 "/>
<polygon fill="#C21413" points="15,24 15,26 27,34 27,32 "/>
<path opacity="0.2" fill="#1A1626" d="M59.286,18c0,0-1.286,4-1.286,20c0,20-7,20-7,20h10L59.286,18z"/>
<rect x="3" y="38" fill="#C21413" width="30" height="2"/>
</svg>
