<?xml version="1.0" encoding="utf-8"?>
<!-- Generator: Adobe Illustrator 15.0.0, SVG Export Plug-In . SVG Version: 6.00 Build 0)  -->
<!DOCTYPE svg PUBLIC "-//W3C//DTD SVG 1.1//EN" "http://www.w3.org/Graphics/SVG/1.1/DTD/svg11.dtd">
<svg version="1.1" id="Layer_1" xmlns="http://www.w3.org/2000/svg" xmlns:xlink="http://www.w3.org/1999/xlink" x="0px" y="0px"
	 width="64px" height="64px" viewBox="0 0 64 64" enable-background="new 0 0 64 64" xml:space="preserve">
<path fill="#302C3B" d="M22,3.384v57.232c6.121,1.833,13.796,1.857,20,0V3.384C35.879,1.551,28.204,1.526,22,3.384z"/>
<path fill="#B00505" d="M31.999,6C20.954,6,12,10.656,12,16.4v31.2C12,53.344,20.954,58,31.999,58C43.046,58,52,53.344,52,47.601
	V16.4C52,10.656,43.046,6,31.999,6z"/>
<path fill="#E81C27" d="M18,16.022v31.958c0,12.027,28,12.027,28,0V16.022C46,3.993,18,3.993,18,16.022z"/>
<path fill="#EA8800" d="M26,32.284v15.434c0,7.043,12,7.043,12,0V32.284C38,25.239,26,25.239,26,32.284z"/>
<path fill="#B00505" d="M12,32c12.758-1.993,27.236-2.007,40,0C39.236,34.007,24.758,33.993,12,32z"/>
<path fill="#B00505" d="M49,13c-10.18-2.391-23.822-2.375-34,0C24.014,7.636,40.08,7.697,49,13z"/>
<path fill="#B00505" d="M52,26.25H12C24.928,22.809,39.615,23.026,52,26.25z"/>
<path fill="#B00505" d="M52,19.5c-13.326-0.635-26.676-0.635-40,0C24.76,15.378,39.783,15.624,52,19.5z"/>
<path fill="#B00505" d="M15,51c10.178,2.391,23.822,2.375,34,0C39.984,56.364,23.92,56.303,15,51z"/>
<path fill="#B00505" d="M12,37.75h40C39.07,41.191,24.383,40.974,12,37.75z"/>
<path fill="#B00505" d="M12,44.5c13.324,0.635,26.674,0.635,40,0C39.238,48.622,24.217,48.376,12,44.5z"/>
</svg>
