<?xml version="1.0" encoding="utf-8"?>
<!-- Generator: Adobe Illustrator 15.0.0, SVG Export Plug-In . SVG Version: 6.00 Build 0)  -->
<!DOCTYPE svg PUBLIC "-//W3C//DTD SVG 1.1//EN" "http://www.w3.org/Graphics/SVG/1.1/DTD/svg11.dtd">
<svg version="1.1" id="Layer_1" xmlns="http://www.w3.org/2000/svg" xmlns:xlink="http://www.w3.org/1999/xlink" x="0px" y="0px"
	 width="64px" height="64px" viewBox="0 0 64 64" enable-background="new 0 0 64 64" xml:space="preserve">
<rect x="31" y="2" fill="#BEC3CF" width="2" height="10"/>
<rect x="5" y="28" fill="#FED0AC" width="54" height="32"/>
<path fill="#B00505" d="M58.74,19.789C58.27,18.805,57.02,18,55.965,18H8.035C6.98,18,5.73,18.805,5.26,19.789l-3.078,6.422
	C1.71,27.195,2.188,28,3.242,28h57.517c1.056,0,1.53-0.805,1.06-1.789L58.74,19.789z"/>
<rect x="8" y="30" fill="#75D6FF" width="7" height="6"/>
<rect x="8" y="30" fill="#018BC9" width="7" height="1"/>
<path fill="#C4926E" d="M7,29v8h9v-8H7z M8,36v-6h3v6H8z M15,36h-3v-6h3V36z"/>
<rect x="8" y="40" fill="#75D6FF" width="7" height="6"/>
<rect x="8" y="50" fill="#75D6FF" width="7" height="6"/>
<rect x="49" y="30" fill="#75D6FF" width="7" height="6"/>
<rect x="49" y="40" fill="#75D6FF" width="7" height="6"/>
<rect x="49" y="50" fill="#75D6FF" width="7" height="6"/>
<path fill="#E03636" d="M32.777,11.629c-0.428-0.346-1.127-0.346-1.555,0L11,28h42L32.777,11.629z"/>
<path fill="#FFE8BB" d="M32.771,14.637c-0.424-0.35-1.119-0.35-1.543,0L15,28h3v32h28V28h3L32.771,14.637z"/>
<rect x="24" y="46" fill="#FED0AC" width="16" height="14"/>
<rect x="26" y="47" fill="#75D6FF" width="12" height="12"/>
<rect x="26" y="48" fill="#018BC9" width="12" height="1"/>
<path fill="#594640" d="M20.201,38.035c0.266,0.121,0.674,0.24,1.094,0.24c0.454,0,0.693-0.166,0.693-0.42
	c0-0.24-0.207-0.379-0.731-0.545c-0.726-0.225-1.198-0.582-1.198-1.145c0-0.66,0.621-1.166,1.651-1.166
	c0.493,0,0.854,0.092,1.114,0.193L22.604,35.9c-0.174-0.074-0.485-0.184-0.912-0.184c-0.43,0-0.637,0.172-0.637,0.373
	c0,0.248,0.247,0.355,0.811,0.547c0.771,0.252,1.134,0.609,1.134,1.154c0,0.648-0.563,1.201-1.763,1.201
	c-0.498,0-0.99-0.115-1.236-0.234L20.201,38.035z"/>
<path fill="#594640" d="M26.873,38.828c-0.182,0.08-0.59,0.166-1.121,0.166c-1.51,0-2.287-0.832-2.287-1.938
	c0-1.322,1.063-2.057,2.385-2.057c0.512,0,0.9,0.092,1.074,0.172l-0.201,0.695c-0.199-0.074-0.479-0.145-0.828-0.145
	c-0.783,0-1.393,0.42-1.393,1.281c0,0.775,0.518,1.266,1.398,1.266c0.299,0,0.629-0.059,0.822-0.127L26.873,38.828z"/>
<path fill="#594640" d="M28.512,35.063v1.488h1.627v-1.488h0.983v3.873h-0.983v-1.621h-1.627v1.621h-0.99v-3.873H28.512z"/>
<path fill="#594640" d="M35.979,36.961c0,1.27-0.867,2.039-2.144,2.039c-1.295,0-2.053-0.867-2.053-1.973
	c0-1.158,0.836-2.027,2.124-2.027C35.248,35,35.979,35.891,35.979,36.961z M32.826,37.012c0,0.758,0.4,1.293,1.063,1.293
	c0.666,0,1.049-0.563,1.049-1.314c0-0.695-0.375-1.295-1.057-1.295C33.215,35.695,32.826,36.26,32.826,37.012z"/>
<path fill="#594640" d="M40.625,36.961c0,1.27-0.867,2.039-2.145,2.039c-1.295,0-2.054-0.867-2.054-1.973
	c0-1.158,0.837-2.027,2.125-2.027C39.893,35,40.625,35.891,40.625,36.961z M37.471,37.012c0,0.758,0.401,1.293,1.063,1.293
	c0.667,0,1.049-0.563,1.049-1.314c0-0.695-0.375-1.295-1.056-1.295C37.859,35.695,37.471,36.26,37.471,37.012z"/>
<path fill="#594640" d="M41.273,35.063h0.99v3.139H44v0.734h-2.727V35.063z"/>
<circle fill="#C4926E" cx="32" cy="26" r="7"/>
<circle fill="#FFFFFF" cx="32" cy="26" r="5"/>
<rect x="31" y="47" fill="#FED0AC" width="2" height="12"/>
<path fill="#BEC3CF" d="M32,22c-0.55,0-1,0.451-1,1v4c0,0.551,0.45,1,1,1s1-0.449,1-1v-4C33,22.451,32.55,22,32,22z"/>
<path fill="#E03636" d="M32,26h-2c-0.55,0-1,0.451-1,1c0,0.551,0.45,1,1,1h2c0.55,0,1-0.449,1-1C33,26.451,32.55,26,32,26z"/>
<path fill="#CAE8F0" d="M33,2c0,2.455,0,4.91,0,7.367c4,3.191,8-6.877,12-3.684C41,0.037,37,7.646,33,2z"/>
<path fill="#E03636" d="M32.947,40.291c-0.543-0.389-1.352-0.389-1.896,0C28.873,41.842,22,45.994,22,45.994V48h20v-2.006
	C42,45.994,35.127,41.842,32.947,40.291z"/>
<path fill="#4E5E67" d="M62,58H2v4h60V58z"/>
<rect x="20" y="60" fill="#E6EBEF" width="24" height="2"/>
<rect x="22" y="58" fill="#CFD8DD" width="20" height="2"/>
<rect x="8" y="40" fill="#018BC9" width="7" height="1"/>
<rect x="8" y="50" fill="#018BC9" width="7" height="1"/>
<path fill="#C4926E" d="M7,39v8h9v-8H7z M8,46v-6h3v6H8z M15,46h-3v-6h3V46z"/>
<rect x="49" y="30" fill="#018BC9" width="7" height="1"/>
<path fill="#C4926E" d="M48,29v8h9v-8H48z M49,36v-6h3v6H49z M56,36h-3v-6h3V36z"/>
<rect x="49" y="40" fill="#018BC9" width="7" height="1"/>
<path fill="#C4926E" d="M48,39v8h9v-8H48z M49,46v-6h3v6H49z M56,46h-3v-6h3V46z"/>
<rect x="49" y="50" fill="#018BC9" width="7" height="1"/>
<path fill="#C4926E" d="M48,49v8h9v-8H48z M49,56v-6h3v6H49z M56,56h-3v-6h3V56z"/>
<path fill="#C4926E" d="M7,49v8h9v-8H7z M8,56v-6h3v6H8z M15,56h-3v-6h3V56z"/>
</svg>
