<?xml version="1.0" encoding="utf-8"?>
<!-- Generator: Adobe Illustrator 15.0.0, SVG Export Plug-In . SVG Version: 6.00 Build 0)  -->
<!DOCTYPE svg PUBLIC "-//W3C//DTD SVG 1.1//EN" "http://www.w3.org/Graphics/SVG/1.1/DTD/svg11.dtd">
<svg version="1.1" id="Layer_1" xmlns="http://www.w3.org/2000/svg" xmlns:xlink="http://www.w3.org/1999/xlink" x="0px" y="0px"
	 width="64px" height="64px" viewBox="0 0 64 64" enable-background="new 0 0 64 64" xml:space="preserve">
<rect x="46" y="14" fill="#99A8AE" width="10" height="16"/>
<rect x="44" y="10" fill="#BEC3CF" width="14" height="4"/>
<polygon fill="#E03636" points="32,2 2,32 62,32 "/>
<polygon fill="#BEC3CF" points="32,6 6,32 58,32 "/>
<polygon fill="#E6EBEF" points="32,10 6,32 6.001,58 58,58 58,32 "/>
<path fill="#594640" d="M32,34v16h20V34H32z"/>
<rect x="34" y="36" fill="#75D6FF" width="16" height="12"/>
<rect x="34" y="36" fill="#018BC9" width="16" height="2"/>
<rect x="30" y="50" fill="#99A8AE" width="24" height="2"/>
<rect x="12" y="34" fill="#45332C" width="14" height="24"/>
<rect x="14" y="36" fill="#8A6859" width="10" height="22"/>
<rect x="21" y="46" fill="#45332C" width="2" height="1"/>
<rect x="29" y="54" fill="#7AB51D" width="33" height="8"/>
<rect x="2" y="54" fill="#7AB51D" width="7" height="8"/>
<rect x="7" y="60" fill="#E6EBEF" width="24" height="2"/>
<rect x="9" y="58" fill="#BEC3CF" width="20" height="2"/>
<rect x="30" y="50" fill="#BEC3CF" width="4" height="2"/>
<rect x="38" y="50" fill="#BEC3CF" width="4" height="2"/>
<rect x="46" y="50" fill="#BEC3CF" width="4" height="2"/>
<rect x="56" y="57" fill="#92C932" width="4" height="2"/>
<rect x="43" y="60" fill="#92C932" width="4" height="2"/>
<rect x="37" y="56" fill="#92C932" width="4" height="2"/>
<rect x="2" y="54" fill="#92C932" width="4" height="2"/>
<rect x="4" y="58" fill="#92C932" width="2" height="2"/>
<rect x="33" y="60" fill="#92C932" width="2" height="2"/>
<rect x="50" y="56" fill="#92C932" width="2" height="2"/>
</svg>
