<?xml version="1.0" encoding="utf-8"?>
<!-- Generator: Adobe Illustrator 15.0.0, SVG Export Plug-In . SVG Version: 6.00 Build 0)  -->
<!DOCTYPE svg PUBLIC "-//W3C//DTD SVG 1.1//EN" "http://www.w3.org/Graphics/SVG/1.1/DTD/svg11.dtd">
<svg version="1.1" id="Layer_1" xmlns="http://www.w3.org/2000/svg" xmlns:xlink="http://www.w3.org/1999/xlink" x="0px" y="0px"
	 width="64px" height="64px" viewBox="0 0 64 64" enable-background="new 0 0 64 64" xml:space="preserve">
<polygon fill="#E6EBEF" points="60,60 4,60 4,6 44,6 44,23 60,23 "/>
<rect x="2" y="60" fill="#302C3B" width="60" height="2"/>
<rect x="2" y="2" fill="#BEC3CF" width="44" height="4"/>
<rect x="2" y="23" fill="#BEC3CF" width="60" height="2"/>
<rect x="4" y="6" fill="#99A8AE" width="40" height="1"/>
<rect x="18" y="60" fill="#BEC3CF" width="28" height="1"/>
<rect x="16" y="61" fill="#99A8AE" width="32" height="1"/>
<polygon fill="#99A8AE" points="18,51 19,53 45,53 46,51 "/>
<rect x="19" y="51.5" fill="#BEC3CF" width="12" height="8.5"/>
<rect x="20" y="53" fill="#75D6FF" width="10" height="7"/>
<rect x="20" y="52.5" fill="#018BC9" width="10" height="0.5"/>
<rect x="24.5" y="52.25" fill="#BEC3CF" width="1" height="7.75"/>
<rect x="33" y="51.5" fill="#BEC3CF" width="12" height="8.5"/>
<rect x="34" y="53" fill="#75D6FF" width="10" height="7"/>
<rect x="34" y="52.5" fill="#018BC9" width="10" height="0.5"/>
<rect x="38.5" y="52.25" fill="#BEC3CF" width="1" height="7.75"/>
<rect x="18" y="50" fill="#FFFFFF" width="28" height="1"/>
<rect x="5" y="27" fill="#75D6FF" width="6" height="6"/>
<rect x="5" y="27" fill="#018BC9" width="6" height="0.5"/>
<rect x="13" y="27" fill="#75D6FF" width="6" height="6"/>
<rect x="13" y="27" fill="#018BC9" width="6" height="0.5"/>
<rect x="21" y="27" fill="#75D6FF" width="6" height="6"/>
<rect x="21" y="27" fill="#018BC9" width="6" height="0.5"/>
<rect x="29" y="27" fill="#75D6FF" width="6" height="6"/>
<rect x="29" y="27" fill="#018BC9" width="6" height="0.5"/>
<rect x="37" y="27" fill="#75D6FF" width="6" height="6"/>
<rect x="37" y="27" fill="#018BC9" width="6" height="0.5"/>
<rect x="45" y="27" fill="#75D6FF" width="6" height="6"/>
<rect x="45" y="27" fill="#018BC9" width="6" height="0.5"/>
<rect x="53" y="27" fill="#75D6FF" width="6" height="6"/>
<rect x="53" y="27" fill="#018BC9" width="6" height="0.5"/>
<rect x="5" y="16" fill="#75D6FF" width="6" height="6"/>
<rect x="5" y="16" fill="#018BC9" width="6" height="0.5"/>
<rect x="13" y="16" fill="#75D6FF" width="6" height="6"/>
<rect x="13" y="16" fill="#018BC9" width="6" height="0.5"/>
<rect x="21" y="16" fill="#75D6FF" width="6" height="6"/>
<rect x="21" y="16" fill="#018BC9" width="6" height="0.5"/>
<rect x="29" y="16" fill="#75D6FF" width="6" height="6"/>
<rect x="29" y="16" fill="#018BC9" width="6" height="0.5"/>
<rect x="37" y="16" fill="#75D6FF" width="6" height="6"/>
<rect x="37" y="16" fill="#018BC9" width="6" height="0.5"/>
<rect x="5" y="8" fill="#75D6FF" width="6" height="6"/>
<rect x="5" y="8" fill="#018BC9" width="6" height="0.5"/>
<rect x="13" y="8" fill="#75D6FF" width="6" height="6"/>
<rect x="13" y="8" fill="#018BC9" width="6" height="0.5"/>
<rect x="21" y="8" fill="#75D6FF" width="6" height="6"/>
<rect x="21" y="8" fill="#018BC9" width="6" height="0.5"/>
<rect x="29" y="8" fill="#75D6FF" width="6" height="6"/>
<rect x="29" y="8" fill="#018BC9" width="6" height="0.5"/>
<rect x="37" y="8" fill="#75D6FF" width="6" height="6"/>
<rect x="37" y="8" fill="#018BC9" width="6" height="0.5"/>
<rect x="5" y="35" fill="#75D6FF" width="6" height="6"/>
<rect x="5" y="35" fill="#018BC9" width="6" height="0.5"/>
<rect x="13" y="35" fill="#75D6FF" width="6" height="6"/>
<rect x="13" y="35" fill="#018BC9" width="6" height="0.5"/>
<rect x="21" y="35" fill="#75D6FF" width="6" height="6"/>
<rect x="21" y="35" fill="#018BC9" width="6" height="0.5"/>
<rect x="29" y="35" fill="#75D6FF" width="6" height="6"/>
<rect x="29" y="35" fill="#018BC9" width="6" height="0.5"/>
<rect x="37" y="35" fill="#75D6FF" width="6" height="6"/>
<rect x="37" y="35" fill="#018BC9" width="6" height="0.5"/>
<rect x="45" y="35" fill="#75D6FF" width="6" height="6"/>
<rect x="45" y="35" fill="#018BC9" width="6" height="0.5"/>
<rect x="53" y="35" fill="#75D6FF" width="6" height="6"/>
<rect x="53" y="35" fill="#018BC9" width="6" height="0.5"/>
<rect x="5" y="43" fill="#75D6FF" width="6" height="6"/>
<rect x="5" y="43" fill="#018BC9" width="6" height="0.5"/>
<rect x="13" y="43" fill="#75D6FF" width="6" height="6"/>
<rect x="13" y="43" fill="#018BC9" width="6" height="0.5"/>
<rect x="21" y="43" fill="#75D6FF" width="6" height="6"/>
<rect x="21" y="43" fill="#018BC9" width="6" height="0.5"/>
<rect x="29" y="43" fill="#75D6FF" width="6" height="6"/>
<rect x="29" y="43" fill="#018BC9" width="6" height="0.5"/>
<rect x="37" y="43" fill="#75D6FF" width="6" height="6"/>
<rect x="37" y="43" fill="#018BC9" width="6" height="0.5"/>
<rect x="45" y="43" fill="#75D6FF" width="6" height="6"/>
<rect x="45" y="43" fill="#018BC9" width="6" height="0.5"/>
<rect x="53" y="43" fill="#75D6FF" width="6" height="6"/>
<rect x="53" y="43" fill="#018BC9" width="6" height="0.5"/>
<rect x="48" y="3" fill="#E81C27" width="12" height="19"/>
<rect x="44" y="6" fill="#302C3B" width="4" height="1"/>
<rect x="44" y="19" fill="#302C3B" width="4" height="1"/>
<rect x="50" y="5" fill="#F89987" width="8" height="1"/>
<rect x="50" y="7" fill="#F89987" width="4" height="1"/>
<rect x="50" y="9" fill="#F89987" width="8" height="1"/>
<rect x="50" y="11" fill="#F89987" width="6" height="1"/>
<rect x="50" y="13" fill="#F89987" width="8" height="1"/>
<rect x="50" y="15" fill="#F89987" width="8" height="1"/>
<rect x="50" y="17" fill="#F89987" width="4" height="1"/>
<rect x="50" y="19" fill="#F89987" width="8" height="1"/>
</svg>
