<?xml version="1.0" encoding="utf-8"?>
<!-- Generator: Adobe Illustrator 15.0.0, SVG Export Plug-In . SVG Version: 6.00 Build 0)  -->
<!DOCTYPE svg PUBLIC "-//W3C//DTD SVG 1.1//EN" "http://www.w3.org/Graphics/SVG/1.1/DTD/svg11.dtd">
<svg version="1.1" id="Layer_1" xmlns="http://www.w3.org/2000/svg" xmlns:xlink="http://www.w3.org/1999/xlink" x="0px" y="0px"
	 width="64px" height="64px" viewBox="0 0 64 64" enable-background="new 0 0 64 64" xml:space="preserve">
<polygon fill="#8A6859" points="10.5,32 17,47 19,44 12,32 "/>
<path fill="#92C932" d="M38,19.516c0-4.412-3.276-8.004-7.398-8.236C30.327,6.107,26.281,2,21.316,2
	c-2.953,0-5.578,1.455-7.285,3.719c-0.805-0.25-1.654-0.391-2.537-0.391c-4.965,0-8.989,4.252-8.989,9.496
	c0,1.883,0.526,3.635,1.421,5.109C2.723,21.615,2,23.701,2,25.971C2,31.51,6.252,36,11.494,36c2.822,0,5.349-1.309,7.087-3.371
	c1.435,1.76,3.554,2.877,5.924,2.877c4.252,0,7.703-3.586,7.809-8.051C35.595,26.475,38,23.297,38,19.516z"/>
<polygon fill="#7AB51D" points="23,7 22,9 21,7 22,5 23,7 "/>
<polygon fill="#7AB51D" points="17,13.998 16,16 15,13.998 16,12 17,13.998 "/>
<polygon fill="#7AB51D" points="25,15 24,17 23,15 24,13 25,15 "/>
<polygon fill="#7AB51D" points="20,23 19,25 18,23 19,21 20,23 "/>
<polygon fill="#7AB51D" points="11,11 10,13 9,11 10,9 11,11 "/>
<polygon fill="#7AB51D" points="34,16 33,18 32,16 33,14 34,16 "/>
<polygon fill="#7AB51D" points="28,21 27,23 26,21 27,19 28,21 "/>
<polygon fill="#7AB51D" points="26,29 25,31 24,29 25,27 26,29 "/>
<polygon fill="#7AB51D" points="34,23 33,25 32,23 33,21 34,23 "/>
<polygon fill="#7AB51D" points="11,32 10,34 9,32 10,30 11,32 "/>
<polygon fill="#7AB51D" points="7,26 6,28 5,26 6,24 7,26 "/>
<polygon fill="#7AB51D" points="14,25 13,27 12,25 13,23 14,25 "/>
<polygon fill="#7AB51D" points="10,19 9,21 8,19 9,17 10,19 "/>
<rect x="51" y="25" fill="#99A8AE" width="6" height="10"/>
<rect x="49" y="22" fill="#BEC3CF" width="10" height="3"/>
<polygon fill="#E03636" points="42,17 22,36 62,36 "/>
<polygon fill="#BEC3CF" points="42,20 25,36 59,36 "/>
<polygon fill="#E6EBEF" points="42,23 25,36 25,58 59,58 59,36 "/>
<path fill="#594640" d="M41,38v13h16V38H41z"/>
<rect x="43" y="40" fill="#75D6FF" width="12" height="9"/>
<rect x="43" y="40" fill="#018BC9" width="12" height="2"/>
<rect x="27" y="38" fill="#45332C" width="12" height="20"/>
<rect x="29" y="40" fill="#8A6859" width="8" height="18"/>
<rect x="34" y="48" fill="#45332C" width="2" height="1"/>
<rect x="36" y="54" fill="#7AB51D" width="26" height="8"/>
<rect x="2" y="54" fill="#7AB51D" width="23" height="8"/>
<rect x="23" y="60" fill="#E6EBEF" width="15" height="2"/>
<rect x="25" y="58" fill="#BEC3CF" width="11" height="2"/>
<rect x="56" y="57" fill="#92C932" width="4" height="2"/>
<rect x="43" y="60" fill="#92C932" width="4" height="2"/>
<rect x="37" y="56" fill="#92C932" width="4" height="2"/>
<rect x="6" y="54" fill="#92C932" width="4" height="2"/>
<rect x="17" y="56" fill="#92C932" width="4" height="2"/>
<rect x="11" y="59" fill="#92C932" width="4" height="2"/>
<rect x="4" y="58" fill="#92C932" width="2" height="2"/>
<rect x="19" y="60" fill="#92C932" width="2" height="2"/>
<rect x="50" y="56" fill="#92C932" width="2" height="2"/>
<polygon fill="#8A6859" points="18,31 16,54 22,54 22,29 "/>
<rect x="10.079" y="52.492" fill="#7AB51D" width="0.548" height="1.508"/>
<path fill="#C21413" d="M8.705,48.098v3.297c0,0.607,0.492,1.098,1.099,1.098h1.099v-2.197C10.902,48.691,8.705,48.098,8.705,48.098
	z"/>
<path fill="#E03636" d="M12,48.098v3.297c0,0.607-0.491,1.098-1.098,1.098H9.804v-2.197C9.804,48.691,12,48.098,12,48.098z"/>
<path fill="#F9C802" d="M4.412,45.936v3.295c0,0.609,0.488,1.102,1.095,1.102h1.098v-2.199C6.604,46.531,4.412,45.936,4.412,45.936z
	"/>
<path fill="#FFE12C" d="M7.703,45.936v3.295c0,0.609-0.49,1.102-1.099,1.102H5.507v-2.199C5.507,46.531,7.703,45.936,7.703,45.936z"
	/>
<rect x="5.783" y="50.332" fill="#7AB51D" width="0.547" height="3.668"/>
<rect x="20.079" y="52.557" fill="#7AB51D" width="0.548" height="1.443"/>
<path fill="#C21413" d="M18.705,48.162v3.297c0,0.607,0.492,1.098,1.099,1.098h1.099v-2.197
	C20.902,48.756,18.705,48.162,18.705,48.162z"/>
<path fill="#E03636" d="M22,48.162v3.297c0,0.607-0.491,1.098-1.098,1.098h-1.099v-2.197C19.804,48.756,22,48.162,22,48.162z"/>
<path fill="#F9C802" d="M14.412,46v3.295c0,0.609,0.488,1.102,1.095,1.102h1.098v-2.199C16.604,46.596,14.412,46,14.412,46z"/>
<path fill="#FFE12C" d="M17.703,46v3.295c0,0.609-0.49,1.102-1.099,1.102h-1.098v-2.199C15.507,46.596,17.703,46,17.703,46z"/>
<rect x="15.783" y="50.396" fill="#7AB51D" width="0.547" height="3.604"/>
</svg>
