<?xml version="1.0" encoding="utf-8"?>
<!-- Generator: Adobe Illustrator 15.0.0, SVG Export Plug-In . SVG Version: 6.00 Build 0)  -->
<!DOCTYPE svg PUBLIC "-//W3C//DTD SVG 1.1//EN" "http://www.w3.org/Graphics/SVG/1.1/DTD/svg11.dtd">
<svg version="1.1" id="Layer_1" xmlns="http://www.w3.org/2000/svg" xmlns:xlink="http://www.w3.org/1999/xlink" x="0px" y="0px"
	 width="64px" height="64px" viewBox="0 0 64 64" enable-background="new 0 0 64 64" xml:space="preserve">
<path fill="#E81C27" d="M32,2.442c0,1.705,0,3.41,0,5.115c3.554,1.533,4.443-1.533,8,0c0-1.705,0-3.41,0-5.115
	C36.443,0.91,35.555,3.978,32,2.442z"/>
<rect x="10" y="32" fill="#E6EBEF" width="44" height="26"/>
<rect x="12" y="30" fill="#99A8AE" width="40" height="2"/>
<rect x="18" y="16.001" fill="#E6EBEF" width="28" height="14"/>
<rect x="22" y="14.001" fill="#99A8AE" width="20" height="2"/>
<rect x="20" y="42.001" fill="#302C3B" width="24" height="6"/>
<path fill="#302C3B" d="M21.1,35.001v1.918h1.807v-1.918H24v5h-1.094v-2.092H21.1v2.092H20v-5H21.1z"/>
<path fill="#302C3B" d="M30.315,37.452c0,1.588-0.994,2.549-2.453,2.549c-1.48,0-2.348-1.088-2.348-2.465
	c0-1.447,0.957-2.535,2.43-2.535C29.475,35.001,30.315,36.114,30.315,37.452z M26.708,37.517c0,0.945,0.459,1.615,1.215,1.615
	c0.762,0,1.199-0.703,1.199-1.646c0-0.867-0.426-1.615-1.207-1.615C27.151,35.87,26.708,36.573,26.708,37.517z"/>
<path fill="#302C3B" d="M32.461,35.952h-1.396v-0.951h4v0.951h-1.424v4.049h-1.179V35.952z"/>
<path fill="#302C3B" d="M39.24,37.888h-1.844v1.186h2.059v0.928h-3.199v-5h3.096v0.928h-1.955v1.037h1.844V37.888z"/>
<path fill="#302C3B" d="M41,35.001h1.09v4.049H44v0.951h-3V35.001z"/>
<polygon fill="#FFE12C" points="42,44.53 40.475,44.524 40,43.001 39.525,44.524 38,44.53 39.232,45.474 38.764,47.001 40,46.063 
	41.236,47.001 40.768,45.474 "/>
<polygon fill="#FFE12C" points="38,44.53 36.475,44.524 36,43.001 35.525,44.524 34,44.53 35.232,45.474 34.764,47.001 36,46.063 
	37.236,47.001 36.768,45.474 "/>
<polygon fill="#FFE12C" points="34,44.53 32.475,44.524 32,43.001 31.526,44.524 30,44.53 31.233,45.474 30.764,47.001 32,46.063 
	33.236,47.001 32.768,45.474 "/>
<polygon fill="#FFE12C" points="30,44.53 28.475,44.524 28,43.001 27.526,44.524 26,44.53 27.233,45.474 26.764,47.001 28,46.063 
	29.237,47.001 28.768,45.474 "/>
<polygon fill="#FFE12C" points="26,44.53 24.475,44.524 24,43.001 23.526,44.524 22,44.53 23.233,45.474 22.764,47.001 24,46.063 
	25.237,47.001 24.768,45.474 "/>
<rect x="20" y="48.001" fill="#99A8AE" width="4" height="9.999"/>
<rect x="40" y="48.001" fill="#99A8AE" width="4" height="9.999"/>
<rect x="46" y="52" fill="#75D6FF" width="6" height="4"/>
<rect x="46" y="46.001" fill="#75D6FF" width="6" height="4"/>
<rect x="46" y="40.001" fill="#75D6FF" width="6" height="4"/>
<rect x="46" y="34.001" fill="#75D6FF" width="6" height="4"/>
<rect x="46" y="52" fill="#018BC9" width="6" height="1"/>
<rect x="46" y="46.001" fill="#018BC9" width="6" height="1"/>
<rect x="46" y="40.001" fill="#018BC9" width="6" height="1"/>
<rect x="46" y="34.001" fill="#018BC9" width="6" height="1"/>
<rect x="28" y="18.001" fill="#75D6FF" width="8" height="10"/>
<rect x="28" y="18.001" fill="#018BC9" width="8" height="1"/>
<rect x="38" y="18.001" fill="#75D6FF" width="6" height="4"/>
<rect x="38" y="24" fill="#75D6FF" width="6" height="4"/>
<rect x="20" y="18.001" fill="#75D6FF" width="6" height="4"/>
<rect x="20" y="24" fill="#75D6FF" width="6" height="4"/>
<rect x="12" y="52" fill="#75D6FF" width="6.001" height="4"/>
<rect x="12" y="46.001" fill="#75D6FF" width="6.001" height="4"/>
<rect x="12" y="40.001" fill="#75D6FF" width="6.001" height="4"/>
<rect x="12" y="34.001" fill="#75D6FF" width="6.001" height="4"/>
<rect x="26" y="48.001" fill="#99A8AE" width="12" height="9.999"/>
<rect x="28" y="49.001" fill="#302C3B" width="8" height="8.999"/>
<rect x="31" y="2.001" fill="#99A8AE" width="2" height="13"/>
<rect x="2" y="58" fill="#302C3B" width="60" height="4"/>
<polygon fill="#E81C27" points="40,62 24,62 28,58 36,58 "/>
<rect x="38" y="18.001" fill="#018BC9" width="6" height="1"/>
<rect x="38" y="24" fill="#018BC9" width="6" height="1"/>
<rect x="20" y="18.001" fill="#018BC9" width="6" height="1"/>
<rect x="20" y="24" fill="#018BC9" width="6" height="1"/>
<rect x="12" y="52" fill="#018BC9" width="6" height="1"/>
<rect x="12" y="46.001" fill="#018BC9" width="6" height="1"/>
<rect x="12" y="40.001" fill="#018BC9" width="6" height="1"/>
<rect x="12" y="34.001" fill="#018BC9" width="6" height="1"/>
<path fill="#B47D56" d="M11.98,38.001h-1.348c0,0-1.532,7.188-0.271,19.999h3.502C13.863,58,11.98,49.782,11.98,38.001z"/>
<path fill="#92C932" d="M22,35.741c-3.84-4.999-8.407-2.199-10.576-0.35C10.108,33.452,6.459,29.293,2,34.589
	c0,0,3.437-1.471,7.699,2.307c-2.012,0.605-5.241,2.514-4.465,8.543c0,0,0.136-5.523,6.243-6.66c7.43,1.758,6.277,7.223,6.277,7.223
	c2.383-5.48-1.759-8.064-4.49-9.129C18.141,32.372,22,35.741,22,35.741z"/>
<path fill="#B47D56" d="M52.02,38.001h1.348c0,0,1.531,7.188,0.271,19.999h-3.502C50.137,58,52.02,49.782,52.02,38.001z"/>
<path fill="#92C932" d="M42,35.741c3.84-4.999,8.406-2.199,10.574-0.35c1.316-1.939,4.965-6.098,9.426-0.803
	c0,0-3.438-1.471-7.699,2.307c2.012,0.605,5.242,2.514,4.465,8.543c0,0-0.137-5.523-6.242-6.66c-7.43,1.758-6.277,7.223-6.277,7.223
	c-2.383-5.48,1.758-8.064,4.488-9.129C45.859,32.372,42,35.741,42,35.741z"/>
</svg>
