<?xml version="1.0" encoding="utf-8"?>
<!-- Generator: Adobe Illustrator 15.0.0, SVG Export Plug-In . SVG Version: 6.00 Build 0)  -->
<!DOCTYPE svg PUBLIC "-//W3C//DTD SVG 1.1//EN" "http://www.w3.org/Graphics/SVG/1.1/DTD/svg11.dtd">
<svg version="1.1" id="Layer_1" xmlns="http://www.w3.org/2000/svg" xmlns:xlink="http://www.w3.org/1999/xlink" x="0px" y="0px"
	 width="64px" height="64px" viewBox="0 0 64 64" enable-background="new 0 0 64 64" xml:space="preserve">
<path fill="#6E8189" d="M40.668,23.022c3.848-2.672,5.885-0.439-0.252,1.806L40.668,23.022z"/>
<path fill="#FDCA47" d="M2.535,40.535c-0.862,0.863-0.661,2.477,0.447,3.584L19.88,61.019c1.107,1.107,2.721,1.309,3.583,0.445
	l25.533-25.982c0.863-0.863,1.395-2.713,1.182-4.111l-0.823-5.406c-0.214-1.398-1.294-3.448-2.402-4.557l-4.364-4.365
	c-1.108-1.108-3.159-2.188-4.557-2.402l-5.405-0.823c-1.397-0.214-3.247,0.318-4.11,1.182L2.535,40.535z M38.033,21.926
	c1.114-1.115,2.922-1.114,4.037,0c1.114,1.115,1.115,2.922,0,4.038s-2.923,1.116-4.038,0C36.918,24.849,36.918,23.041,38.033,21.926
	z"/>
<path fill="#785647" d="M37.482,21.376c-1.42,1.418-1.418,3.719,0,5.137c1.42,1.419,3.719,1.42,5.138,0
	c1.419-1.419,1.419-3.719,0-5.138C41.202,19.956,38.902,19.956,37.482,21.376z M38.217,22.109c1.014-1.013,2.656-1.013,3.67,0
	c1.013,1.013,1.014,2.656,0,3.669c-1.014,1.015-2.656,1.015-3.67,0.001C37.203,24.766,37.203,23.122,38.217,22.109z"/>
<path fill="#99A8AE" d="M39.104,23.691C43.781,11.325,53.666,9.567,60.889,9.078c1.482-0.101,1.48,1.838,0,1.969
	c-7.383,0.647-16.251,2.542-19.881,13.143C40.596,25.395,38.85,24.928,39.104,23.691L39.104,23.691z"/>
<path fill="#6E8189" d="M45.181,19.636c5.097-5.097,6.923-10.837,7.769-16.53c0.219-1.472,2.155-1.477,1.967,0
	c-0.721,5.627-3.055,12.65-8.334,17.931L45.181,19.636z"/>
</svg>
