<?xml version="1.0" encoding="utf-8"?>
<!-- Generator: Adobe Illustrator 15.0.0, SVG Export Plug-In . SVG Version: 6.00 Build 0)  -->
<!DOCTYPE svg PUBLIC "-//W3C//DTD SVG 1.1//EN" "http://www.w3.org/Graphics/SVG/1.1/DTD/svg11.dtd">
<svg version="1.1" id="Layer_1" xmlns="http://www.w3.org/2000/svg" xmlns:xlink="http://www.w3.org/1999/xlink" x="0px" y="0px"
	 width="64px" height="64px" viewBox="0 0 64 64" enable-background="new 0 0 64 64" xml:space="preserve">
<path fill="#E6EBEF" d="M39.344,39.345c1.926-1.924,5.049-1.924,6.973,0l-6.973,6.971C37.42,44.392,37.42,41.271,39.344,39.345z"/>
<path fill="#FFFFFF" d="M40.838,38.817c1.634-0.419,3.44,0.01,4.719,1.288l-0.709,0.706c-1.038-1.039-2.794-1.455-4.154-1.371
	C39.851,39.491,40.012,39.03,40.838,38.817z"/>
<rect x="42.47" y="38.772" transform="matrix(-0.7071 -0.7071 0.7071 -0.7071 43.7021 105.5063)" fill="#E81C27" width="2.464" height="9.859"/>
<rect x="44.842" y="40.83" transform="matrix(-0.7071 -0.7071 0.7071 -0.7071 49.4285 103.1351)" fill="#F89987" width="2.464" height="1.001"/>
<path fill="#E6EBEF" d="M48.059,62l1.742-1.741l-1.045-2.438l2.092-2.092l1.568,1.914l1.742-1.742l-1.568-1.914l1.744-1.743
	l2.002,1.479l1.744-1.744l-2.004-1.479l1.744-1.744l2.438,1.045L62,48.059l-12.199-5.229l-1.742-1.742l-6.971,6.973l1.74,1.742
	L48.059,62z M46.314,46.315l2.008,1.482l-0.436,0.436L46.314,46.315z M52.072,47.539l0.871-0.872l2.436,1.043l-1.307,1.307
	L52.072,47.539z M48.059,44.573l2.443,1.047l-0.438,0.436L48.059,44.573z M51.022,52.067l-1.567-1.912l0.873-0.873l2,1.479
	L51.022,52.067z M46.145,49.976l-0.525,0.525l-1.047-2.443L46.145,49.976z M47.709,55.378l-1.043-2.434l1.047-1.047l1.567,1.912
	L47.709,55.378z"/>
<path fill="#FFFFFF" d="M47.694,43.651c0.422,0.458,1.067-0.155,0.674-0.639c-0.365-0.449-1.069-1.165-1.069-1.165l-0.707,0.708
	C46.592,42.556,47.299,43.222,47.694,43.651z"/>
<path fill="#E6EBEF" d="M39.585,25.313l1.79,1.789l-1.809,1.809c0.423,0.189,0.856,0.355,1.309,0.48l1.395-1.392l1.776,1.771
	c0.655-0.005,1.32-0.064,1.997-0.175l1.598-1.598l0.947,0.947c0.428-0.15,0.855-0.316,1.282-0.503l-1.335-1.338l1.789-1.789
	l1.889,1.884c0.359-0.224,0.715-0.466,1.066-0.722l-2.059-2.059l1.789-1.791l2.221,2.223c0.154-0.145,0.313-0.279,0.465-0.432
	c0.15-0.152,0.285-0.311,0.43-0.465l-2.219-2.221l1.789-1.789L57.755,22c0.255-0.35,0.498-0.709,0.723-1.068l-1.889-1.885
	l1.792-1.791l1.335,1.336c0.188-0.426,0.357-0.854,0.507-1.285l-0.949-0.945l1.6-1.598c0.111-0.676,0.168-1.342,0.178-1.996
	l-1.777-1.777l1.396-1.395c-0.126-0.451-0.293-0.887-0.48-1.311l-1.809,1.811L56.59,8.305l2.208-2.208
	c-0.139-0.156-0.267-0.324-0.417-0.477c-0.152-0.15-0.317-0.279-0.479-0.416l-2.207,2.207L53.906,5.62l1.808-1.809
	c-0.423-0.188-0.856-0.354-1.309-0.48L53.01,4.725l-1.775-1.776c-0.655,0.008-1.322,0.067-1.996,0.178l-1.599,1.6l-0.946-0.949
	c-0.43,0.15-0.857,0.318-1.285,0.508l1.338,1.334l-1.791,1.791l-1.889-1.887c-0.358,0.225-0.715,0.467-1.065,0.723l2.06,2.059
	l-1.79,1.791L40.05,7.875c-0.155,0.143-0.314,0.279-0.465,0.43c-0.151,0.152-0.287,0.311-0.432,0.467l2.222,2.219l-1.79,1.791
	l-2.061-2.061c-0.254,0.354-0.497,0.707-0.722,1.066l1.887,1.889L36.9,15.467l-1.337-1.336c-0.188,0.426-0.355,0.852-0.506,1.283
	l0.947,0.947l-1.598,1.597c-0.112,0.676-0.17,1.342-0.179,1.998l1.776,1.773l-1.395,1.396c0.126,0.449,0.292,0.885,0.48,1.309
	l1.81-1.811l1.789,1.791l-2.207,2.209c0.138,0.16,0.266,0.324,0.418,0.477c0.151,0.15,0.316,0.279,0.477,0.418L39.585,25.313z
	 M58.381,11.885l1.79,1.791l-1.79,1.791l-1.791-1.791L58.381,11.885z M55.695,14.571l1.79,1.791l-1.79,1.789l-1.789-1.791
	L55.695,14.571z M53.01,17.256l1.791,1.789l-1.791,1.791l-1.789-1.791L53.01,17.256z M50.324,19.941l1.79,1.789l-1.79,1.791
	l-1.789-1.791L50.324,19.941z M47.641,22.625l1.788,1.793l-1.789,1.789l-1.791-1.789L47.641,22.625z M44.955,25.311l1.791,1.791
	l-1.791,1.791l-1.791-1.791L44.955,25.311z M55.695,9.199l1.79,1.79l-1.79,1.793l-1.789-1.793L55.695,9.199z M53.01,11.885
	l1.789,1.791l-1.789,1.791l-1.79-1.791L53.01,11.885z M50.324,14.572l1.789,1.79l-1.789,1.789l-1.791-1.789L50.324,14.572z
	 M47.641,17.256l1.788,1.791l-1.79,1.789l-1.789-1.791L47.641,17.256z M44.955,19.941l1.791,1.789l-1.791,1.789l-1.791-1.789
	L44.955,19.941z M42.27,22.625l1.791,1.792l-1.791,1.789l-1.79-1.787L42.27,22.625z M36.9,20.834l-1.791-1.787l1.791-1.791
	l1.789,1.789L36.9,20.834z M39.584,18.15l-1.791-1.789l1.792-1.79l1.79,1.79L39.584,18.15z M42.271,15.465l-1.79-1.789l1.789-1.791
	l1.791,1.791L42.271,15.465z M44.955,12.782l-1.79-1.793l1.79-1.789l1.791,1.791L44.955,12.782z M47.641,10.096L45.85,8.305
	l1.791-1.789l1.788,1.789L47.641,10.096z M50.324,7.411l-1.79-1.791l1.79-1.789l1.789,1.789L50.324,7.411z M39.585,23.521
	l-1.791-1.791l1.791-1.789l1.79,1.789L39.585,23.521z M42.27,20.836l-1.79-1.789l1.79-1.791l1.791,1.789L42.27,20.836z
	 M44.955,18.15l-1.79-1.791l1.789-1.787l1.792,1.789L44.955,18.15z M47.641,15.467l-1.791-1.791l1.791-1.791l1.788,1.791
	L47.641,15.467z M50.324,12.782l-1.79-1.791l1.79-1.789l1.789,1.789L50.324,12.782z M53.01,10.096l-1.79-1.791l1.79-1.791
	l1.789,1.791L53.01,10.096z"/>
<g>
	
		<rect x="27.623" y="23.784" transform="matrix(0.7068 0.7074 -0.7074 0.7068 33.3082 -10.1419)" fill="#BEC3CF" width="2.533" height="22.656"/>
</g>
<g>
	
		<rect x="28.199" y="23.595" transform="matrix(0.7061 0.7081 -0.7081 0.7061 33.162 -10.0587)" fill="#CFD8DD" width="1" height="22.655"/>
</g>
<path fill="#302C3B" d="M7.316,61.443c0,0,0.77-1.949,1.254-2.434c5.372-5.371,9.847-9.846,9.847-9.846l3.357-5.146l-1.791-1.792
	l-5.146,3.358c0,0-4.475,4.475-9.845,9.846c-0.485,0.484-2.434,1.254-2.434,1.254c-0.631,0.295-0.744,0.939-0.252,1.431l3.581,3.579
	C6.379,62.185,7.022,62.073,7.316,61.443z"/>
<path fill="#4E5E67" d="M3.619,57.744c0,0,1.948-0.771,2.434-1.254c5.37-5.372,9.846-9.846,9.846-9.846l5.145-3.359l-0.707-0.707
	l-5.146,3.359c0,0-4.476,4.474-9.845,9.846c-0.486,0.483-2.434,1.254-2.434,1.254c-0.631,0.295-0.745,0.938-0.252,1.431l0.706,0.705
	C2.875,58.682,2.988,58.039,3.619,57.744z"/>
<path fill="#BEC3CF" d="M35.332,25.088l-2.687,2.688c-0.989,0.99-0.989,2.592,0.001,3.58c0.988,0.988,2.591,0.988,3.58,0
	l2.686-2.686L35.332,25.088z"/>
<path fill="#CFD8DD" d="M34.06,29.189l2.687-2.687l-0.707-0.707l-2.687,2.687c-1.474,1.473-1.167,2.245-1.167,2.245
	s0.146,0.696,0.631,0.783C32.817,31.511,32.376,30.873,34.06,29.189z"/>
<polygon fill="#4E5E67" points="13.047,47.373 12.153,48.268 17.522,50.059 "/>
<polygon fill="#4E5E67" points="11.256,49.164 10.362,50.059 15.732,51.848 "/>
<polygon fill="#4E5E67" points="9.466,50.955 8.573,51.848 13.942,53.639 "/>
<polygon fill="#4E5E67" points="7.677,52.742 6.782,53.639 12.151,55.43 "/>
<polygon fill="#4E5E67" points="5.887,54.533 4.992,55.43 10.362,57.219 "/>
<g>
	<path fill="#BEC3CF" d="M36.004,27.998c-5.185-5.188-4.432-13.468,1.789-19.693c6.678-6.676,16.714-8.348,21.48-3.578
		c4.771,4.766,3.098,14.804-3.58,21.48C49.473,32.43,41.191,33.184,36.004,27.998z M57.485,6.514
		c-3.747-3.747-12.28-2.041-17.901,3.582c-5.186,5.186-5.938,11.96-1.791,16.111c4.151,4.148,10.926,3.396,16.113-1.791
		C59.526,18.794,61.232,10.264,57.485,6.514z"/>
</g>
<path fill="#CFD8DD" d="M58.492,6.698c-0.093-0.093-0.201-0.167-0.299-0.253c3.548,4.041,1.734,12.633-3.982,18.35
	c-5.287,5.287-12.148,6.138-16.492,2.126c0.088,0.097,0.166,0.199,0.26,0.292c4.324,4.322,11.381,3.539,16.785-1.866
	C60.619,19.491,62.396,10.604,58.492,6.698z"/>
<path fill="#CFD8DD" d="M38.6,9.034c6.271-6.269,15.563-7.973,20.152-3.79c-0.08-0.088-0.147-0.186-0.231-0.27
	c-4.489-4.492-14.03-2.828-20.42,3.56c-5.955,5.957-6.732,13.825-1.849,18.71c0.085,0.084,0.178,0.155,0.264,0.235
	C31.91,22.58,32.749,14.888,38.6,9.034z"/>
</svg>
