<?xml version="1.0" encoding="utf-8"?>
<!-- Generator: Adobe Illustrator 15.0.0, SVG Export Plug-In . SVG Version: 6.00 Build 0)  -->
<!DOCTYPE svg PUBLIC "-//W3C//DTD SVG 1.1//EN" "http://www.w3.org/Graphics/SVG/1.1/DTD/svg11.dtd">
<svg version="1.1" id="Layer_1" xmlns="http://www.w3.org/2000/svg" xmlns:xlink="http://www.w3.org/1999/xlink" x="0px" y="0px"
	 width="64px" height="64px" viewBox="0 0 64 64" enable-background="new 0 0 64 64" xml:space="preserve">
<rect x="16" y="32" fill="#99A8AE" width="6" height="10"/>
<rect x="42" y="32" fill="#99A8AE" width="6" height="10"/>
<rect x="22" y="46" fill="#99A8AE" width="20" height="16"/>
<rect x="44" y="30" fill="#99A8AE" width="2" height="4"/>
<rect x="18" y="30" fill="#99A8AE" width="2" height="4"/>
<path fill="#018BC9" d="M18,15.557c-2.666-1.533-5.334,1.535-8,0c0-1.703,0-3.41,0-5.113c2.666,1.533,5.334-1.535,8,0
	c-0.666,0.469-1.334,1.225-2,2.125C16.666,13.374,17.334,14.321,18,15.557z"/>
<path fill="#302C3B" d="M11,20H9v-9.02c0-1.309,2-1.309,2,0V20z"/>
<rect x="4" y="26" fill="#BEC3CF" width="12" height="16"/>
<rect x="4" y="26" fill="#99A8AE" width="12" height="1"/>
<polygon fill="#018BC9" points="10,18 2,26 18,26 "/>
<path fill="#302C3B" d="M10,28c-1.104,0-2,0.896-2,2v6h4v-6C12,28.897,11.104,28,10,28z"/>
<path fill="#018BC9" d="M62,15.557c-2.666-1.533-5.334,1.535-8,0c0-1.703,0-3.41,0-5.113c2.666,1.533,5.334-1.535,8,0
	c-0.666,0.469-1.334,1.225-2,2.125C60.666,13.374,61.334,14.321,62,15.557z"/>
<path fill="#302C3B" d="M55,20h-2v-9.02c0-1.309,2-1.309,2,0V20z"/>
<rect x="48" y="26" fill="#BEC3CF" width="12" height="16"/>
<rect x="48" y="26" fill="#99A8AE" width="12" height="1"/>
<polygon fill="#018BC9" points="54,18 46,26 62,26 "/>
<path fill="#302C3B" d="M54,28c-1.104,0-2,0.896-2,2v6h4v-6C56,28.897,55.104,28,54,28z"/>
<rect x="50" y="36" fill="#99A8AE" width="8" height="1"/>
<rect x="6" y="36" fill="#99A8AE" width="8" height="1"/>
<path fill="#018BC9" d="M40,7.557c-2.666-1.533-5.334,1.535-8,0c0-1.703,0-3.41,0-5.113c2.666,1.533,5.334-1.535,8,0
	c-0.666,0.469-1.334,1.225-2,2.125C38.666,5.374,39.334,6.321,40,7.557z"/>
<path fill="#302C3B" d="M33,12h-2v-9.02c0-1.309,2-1.309,2,0V12z"/>
<rect x="22" y="22" fill="#CFD8DD" width="20" height="16"/>
<rect x="22" y="22" fill="#BEC3CF" width="20" height="1"/>
<polygon fill="#018BC9" points="32,10 20,22 44,22 "/>
<rect x="23.939" y="32" fill="#BEC3CF" width="16" height="2"/>
<polygon fill="#302C3B" points="33,42 33,61.047 34,62 35,61.047 35,42 "/>
<polygon fill="#302C3B" points="37,42 37,61.047 38,62 39,61.047 39,42 "/>
<polygon fill="#302C3B" points="29,42 29,61.047 30,62 31,61.047 31,42 "/>
<polygon fill="#302C3B" points="25,42 25,61.047 26,62 27,61.047 27,42 "/>
<rect x="22" y="58" fill="#302C3B" width="20" height="2"/>
<rect x="22" y="54" fill="#302C3B" width="20" height="2"/>
<rect x="22" y="50" fill="#302C3B" width="20" height="2"/>
<path fill="#E6EBEF" d="M58,40v2h-4v-2h-4v2h-2v-6h-2v2h-4v-2h-4v2h-4v-2h-4v2h-4v-2h-4v2h-4v-2h-2v6h-2v-2h-4v2H6v-2H2v4l2,2v16h20
	v-6c0-4,4-8,8-8s8,4,8,8v6h20V46l2-2v-4H58z"/>
<rect x="4" y="48" fill="#BEC3CF" width="4" height="2"/>
<rect x="12" y="54" fill="#BEC3CF" width="4" height="2"/>
<rect x="6" y="58" fill="#BEC3CF" width="4" height="2"/>
<rect x="18" y="60" fill="#BEC3CF" width="4" height="2"/>
<rect x="22" y="46" fill="#BEC3CF" width="4" height="2"/>
<rect x="36" y="44" fill="#BEC3CF" width="4" height="2"/>
<rect x="48" y="52" fill="#BEC3CF" width="4" height="2"/>
<rect x="54" y="58" fill="#BEC3CF" width="4" height="2"/>
<rect x="44" y="60" fill="#BEC3CF" width="4" height="2"/>
<rect x="56" y="50" fill="#BEC3CF" width="4" height="2"/>
<rect x="48" y="44" fill="#BEC3CF" width="4" height="2"/>
<rect x="40" y="50" fill="#BEC3CF" width="4" height="2"/>
<rect x="12" y="44" fill="#BEC3CF" width="4" height="2"/>
<rect x="26" y="40" fill="#BEC3CF" width="4" height="2"/>
<path fill="#302C3B" d="M10,46c-1.104,0-2,0.896-2,2v4h4v-4C12,46.896,11.104,46,10,46z"/>
<path fill="#302C3B" d="M18,46c-1.104,0-2,0.896-2,2v4h4v-4C20,46.896,19.104,46,18,46z"/>
<path fill="#302C3B" d="M54,46c-1.104,0-2,0.896-2,2v4h4v-4C56,46.896,55.104,46,54,46z"/>
<path fill="#302C3B" d="M46,46c-1.104,0-2,0.896-2,2v4h4v-4C48,46.896,47.104,46,46,46z"/>
<path fill="#302C3B" d="M28,24c-1.104,0-2,0.896-2,2v6h4v-6C30,24.897,29.104,24,28,24z"/>
<path fill="#302C3B" d="M36,24c-1.104,0-2,0.896-2,2v6h4v-6C38,24.897,37.104,24,36,24z"/>
</svg>
