<?xml version="1.0" encoding="utf-8"?>
<!-- Generator: Adobe Illustrator 15.0.0, SVG Export Plug-In . SVG Version: 6.00 Build 0)  -->
<!DOCTYPE svg PUBLIC "-//W3C//DTD SVG 1.1//EN" "http://www.w3.org/Graphics/SVG/1.1/DTD/svg11.dtd">
<svg version="1.1" id="Layer_1" xmlns="http://www.w3.org/2000/svg" xmlns:xlink="http://www.w3.org/1999/xlink" x="0px" y="0px"
	 width="64px" height="64px" viewBox="0 0 64 64" enable-background="new 0 0 64 64" xml:space="preserve">
<path fill="#EA8800" d="M46.534,31.186l-2.775-8.33c0,0,8.541-12.328,5.326-14.605c-3.213-2.277-12.594,9.455-12.594,9.455h-8.983
	c0,0-9.379-11.732-12.594-9.455c-3.215,2.277,5.328,14.605,5.328,14.605l-2.775,8.33c0,0-14.338,5.079-13.111,8.764
	c1.229,3.686,15.887-0.43,15.887-0.43l7.266,5.15c0,0,0.518,14.872,4.492,14.872c3.973,0,4.491-14.872,4.491-14.872l7.268-5.15
	c0,0,14.658,4.115,15.885,0.43C60.872,36.265,46.534,31.186,46.534,31.186z"/>
<path fill="#AB5C10" d="M42,32.434c0,13.327-20,13.327-20,0C22,19.094,42,19.094,42,32.434z"/>
<path fill="#F9C802" d="M41.804,9.907c0,10.037-4.42,18.174-9.875,18.174c-5.453,0-9.875-8.137-9.875-18.174
	c0-10.039,7.24-4.242,9.875-4.242C34.563,5.665,41.804-0.132,41.804,9.907z"/>
<path fill="#F9C802" d="M12.961,16.497c9.787,3.102,16.355,9.717,14.668,14.777c-1.686,5.059-10.984,6.647-20.771,3.545
	c-9.787-3.102-1.896-8.028-1.084-10.473C6.588,21.903,3.174,13.393,12.961,16.497z"/>
<path fill="#F9C802" d="M10.473,45.29C16.522,37.169,25,33.12,29.415,36.247c4.413,3.129,3.086,12.244-2.963,20.367
	c-6.049,8.12-8.412-0.721-10.545-2.23C13.774,52.872,4.424,53.411,10.473,45.29z"/>
<path fill="#F9C802" d="M37.778,56.495c-6.047-8.121-7.377-17.238-2.963-20.365c4.412-3.127,12.893,0.92,18.941,9.041
	c6.049,8.123-3.303,7.582-5.436,9.096C46.192,55.776,43.827,64.615,37.778,56.495z"/>
<path fill="#F9C802" d="M57.142,34.626c-9.787,3.104-19.088,1.518-20.773-3.543c-1.686-5.061,4.883-11.676,14.67-14.777
	c9.787-3.104,6.373,5.406,7.188,7.852C59.04,26.6,66.929,31.526,57.142,34.626z"/>
<path fill="#F9B700" d="M38.206,4.003c0.375,0.901,0.598,2.159,0.598,3.904c0,10.037-4.42,18.174-9.875,18.174
	c-0.623,0-1.23-0.119-1.821-0.322c1.427,1.473,3.069,2.322,4.821,2.322c5.456,0,9.875-8.137,9.875-18.174
	C41.804,5.166,40.188,3.959,38.206,4.003z"/>
<path fill="#F9B700" d="M19.554,19.368c4.025,3.106,6.111,6.799,5.075,9.907c-1.686,5.059-10.984,6.646-20.771,3.545
	c-0.484-0.154-0.914-0.313-1.315-0.475c0.658,0.89,1.979,1.735,4.315,2.475c9.787,3.102,19.086,1.514,20.771-3.545
	C28.9,27.465,25.491,22.777,19.554,19.368z"/>
<path fill="#F9B700" d="M29.415,36.247c-0.554-0.392-1.171-0.671-1.839-0.843c2.915,3.843,1.306,11.919-4.124,19.21
	c-1.937,2.6-3.494,3.456-4.789,3.376c1.737,2.191,4.063,3.626,7.789-1.376C32.5,48.491,33.827,39.376,29.415,36.247z"/>
<path fill="#F9B700" d="M53.757,45.171c-2.701-3.626-5.886-6.432-8.978-8.157c2.095,1.625,4.147,3.701,5.978,6.157
	c6.049,8.123-3.303,7.582-5.436,9.096c-1.565,1.11-3.262,6.178-6.454,5.555c5.254,5.721,7.458-2.139,9.454-3.555
	C50.454,52.753,59.806,53.294,53.757,45.171z"/>
<path fill="#F9B700" d="M58.226,24.157c-0.682-2.046,1.593-8.335-3.381-8.516c0.739,2.074-0.062,5.188,0.381,6.516
	c0.814,2.443,8.703,7.369-1.084,10.469c-6.42,2.036-12.616,2.043-16.605,0.386c3.175,3.479,11.203,4.278,19.605,1.614
	C66.929,31.526,59.04,26.601,58.226,24.157z"/>
<ellipse fill="#FEEC9A" cx="32" cy="32.43" rx="3.798" ry="3.704"/>
<path fill-rule="evenodd" clip-rule="evenodd" fill="#FFFFFF" d="M28.889,31.843c0.115,0.814,1.637-0.78,3.178-2.149
	C33.061,28.812,28.541,29.393,28.889,31.843z"/>
<path fill-rule="evenodd" clip-rule="evenodd" fill="#FFE12C" d="M6.816,19.031c0.115,0.814,1.637-0.78,3.178-2.149
	C10.987,16,6.467,16.58,6.816,19.031z"/>
<path fill-rule="evenodd" clip-rule="evenodd" fill="#FFE12C" d="M22.941,7.031c0.115,0.814,1.637-0.78,3.178-2.149
	C27.112,4,22.592,4.581,22.941,7.031z"/>
<path fill-rule="evenodd" clip-rule="evenodd" fill="#FFE12C" d="M33.276,39.681c-0.1,0.816,2.063-2.625,4.875-3.891
	C39.362,35.244,33.776,35.599,33.276,39.681z"/>
<path fill-rule="evenodd" clip-rule="evenodd" fill="#FFE12C" d="M36.758,28.337c-0.1,0.816,2.109-3.125,5.256-6.5
	C42.919,20.866,37.258,24.255,36.758,28.337z"/>
<path fill-rule="evenodd" clip-rule="evenodd" fill="#FFE12C" d="M9.201,49.618c0.115,0.814,3.344-4.844,4.594-6.938
	C14.475,41.54,8.852,47.168,9.201,49.618z"/>
</svg>
