<?xml version="1.0" encoding="utf-8"?>
<!-- Generator: Adobe Illustrator 15.0.0, SVG Export Plug-In . SVG Version: 6.00 Build 0)  -->
<!DOCTYPE svg PUBLIC "-//W3C//DTD SVG 1.1//EN" "http://www.w3.org/Graphics/SVG/1.1/DTD/svg11.dtd">
<svg version="1.1" id="Layer_1" xmlns="http://www.w3.org/2000/svg" xmlns:xlink="http://www.w3.org/1999/xlink" x="0px" y="0px"
	 width="64px" height="64px" viewBox="0 0 64 64" enable-background="new 0 0 64 64" xml:space="preserve">
<path fill="#F5F5F5" d="M32,2C15.432,2,2,15.431,2,32h60C62,15.431,48.568,2,32,2z"/>
<path fill="#529320" d="M32,62c16.568,0,30-13.432,30-30H2C2,48.568,15.432,62,32,62z"/>
<path fill="#E81C27" d="M55.371,19.09c-1.646,2.107-3.508,4.018-5.402,5.882c0.953,0.23,1.762-0.05,2.703-0.05
	c-0.258,0.553-0.516,1.104-0.773,1.657c-0.693-0.421-1.484-0.674-2.289-0.701c-1.199-0.038-2.699,0.466-3.107,1.772
	c-0.988,3.167,3.188,2.673,4.414,2.659c-0.521,1.29-2.422,1.363-3.719,1.305c-2.191-0.098-4.242-0.64-6.477-0.621
	c0.473-1.505,2.689-2.168,4.016-1.775c-2.371-2.753,0.801-5.899,3.348-6.721c-3.607-1.232,0.557-4.512,2.018-5.614
	c-1.973,0.855-3.947,1.706-5.947,2.485c-2.641,1.028-4.176-0.517-2.525-3.369c-2.566,1.47-5.074,3.056-7.451,4.837
	c-2.617,1.959-4.177,3.06-4.338,6.431c0.07,1.164-1.946,1.69-2.822,2.166c-0.16,0.088-1.202,0.831-1.383,0.754
	c0.033-0.006-1.002-2.202,0.99-1.46c0.109-1.062-2.254-1.266-1.429-2.474c0.463-0.681,1.444,0.503,1.885,0.503
	c0.152,0-0.61-1.486-1.007-1.597c-0.531-0.194-0.961-1.322-0.167-1.509c0.499-0.118,0.923,0.418,1.404,0.445
	c-0.044-1.087-1.472-1.378-1.504-1.934c-0.021-0.575,1.153-0.44,1.368-0.414c-0.297-0.898-1.404-0.993-1.881-1.853
	c-0.557-1.066,0.928-1.687,1.615-2.146c-0.798-0.099-0.381-0.966-0.285-1.673c-1.096,1.551-4.318,1.69-5.941,1.606
	c-0.957-0.053-2.674-0.317-2.904,1.07c-1.859,0.195-3.796,0.146-5.078,1.814c2.334-0.114,2.989-0.068,4.545,1.181
	c0.152-0.426,0.979-0.758,1.256-0.551c-0.168-1.372,1.611-0.355,1.921,0.317c-0.22-0.229-3.017,0.4-3.366,0.426
	c-1.581,0.121-3.195,0.17-4.775,0.007c0.387-0.198,0.773-0.396,1.16-0.593c-1.467-0.309-2.922-0.655-4.127-1.634
	c0.292,1.138,2.141,4.143,3.518,4.118c0-0.24-0.352-0.72-0.494-0.927c1.438,0.066,2.975,0.12,4.342,0.209
	c0.043,0.367,0.407,2.41,0.785,2.647c-0.096-0.196,0.545-1.411,0.639-1.673c0.109,0.265,0.236,0.519,0.381,0.766
	c0.109-0.587,1.539-2.396,1.957-1.397c0.379,0.91-0.545,0.572-0.656,1.643c-0.114,1.099-1.164,1.976-1.404,3.111
	c-0.283,1.33-1.514,3.268-1.18,4.777c0.207,0.93,0.754,0.618,0.234,1.43c-0.447,0.697-0.602,0.596-1.331,0.221
	c-0.94-0.484-1.558-1.057-2.37-1.821c-0.871-0.822-0.387-2.239-1.264-3.213c-0.135-0.853,2.696-2.815,0.896-3.882
	c0.026,0.896-0.468,1.303-1.066,1.772c-0.371-0.517,0.477-1.233-0.058-1.952c-0.505-0.526-0.637-1.183-1.539-1.16
	c1.392,0.845,0.152,2.902,0.551,4.237c-0.765-1.188-0.905-3.198-2.796-2.859c1.214,0.339,0.424,1.256,0.933,1.931
	c-0.031,0.467,0.126,0.848,0.473,1.14c0.849,0.716,0.479,1.242,0.356,2.403c-0.107,1.022-1.341,3.701-2.22,3.83
	c1.587,0.754,2.528-1.541,2.969-2.74c0.687,3.808,5.179,5.292,5.154,9.4c0.809-0.781,0.686-2.168,1.791-2.406
	c0.749-0.158,1.533-0.201,2.283-0.166c-0.697,1.52-1.021,4.146-2.714,5.234c-1.188,0.762-5.082-1.648-5.336,0.039
	c0.951-0.818,0.763,0.363,1.181,0.529c-0.599,0.689-1.752,0.031-2.035,1.24c0.564-0.48,1.354-0.172,1.938,0.041
	c0.062,0.719-0.883,0.742-1.045,1.756c0.515-0.566,0.813-0.535,1.369-0.652c0.727,1.104,2.578-0.787,3.531-0.555
	c0.697,0.17,0.936-0.377,1.601-0.385c0.821-0.014,1.195,0.781,2.051,0.859c0.806,0.076,1.188-0.832,1.969,0.002
	c0.014-1.498-2.333-1.197-3.138-1.676c0.615-2.422,2.567-3.67,3.974-5.564c-0.048,0.947,0.595,1.814,0.914,2.648
	c0.187-0.316,0.626-1.922,0.786-2.002c0.047,0.107,1.256-0.924,1.16-0.799c1.081,0.684,1.885-0.83,2.698-1.074
	c-0.302,0.297,1.681-0.1,1.388-0.006c-1.063,2.24,3.412,2.857,4.279,3.723c-0.004,0.002-0.018,0.002-0.023,0.002
	c0.004,0,0.008,0,0.018,0c-0.336,0.166-1.555,1.291-1.631,1.635c-1.225,0.021-1.955,0.635-3.113-0.035
	c-0.709-0.406-3.07-2.42-3.432-0.301c0.658-0.496,2.951,0.535,3.272,1.461c-0.926,0.289-4.138-1.547-4.243,0.725
	c0.989-0.938,1.244-0.049,2.018,0.416c-0.617,0.17-0.856,0.535-0.703,1.221c0.285-0.484,2.948-1.059,3.559-1.121
	c0.707-0.086,2.629-0.359,3.215,0.078c0.391,0.217,0.779,0.436,1.168,0.65c0.918,0.301,1.229-0.73,2.066,0.236
	c0.012-1.482-2.371-1.254-3.199-1.656c1.52-0.406,2.932-1.174,4.055-2.314c0.541-0.551,1.01-1.176,1.408-1.842
	c0.68,0.25,1.363,0.514,2.053,0.729c0.051-2.064-6.58-2.549-3.527-5.039c1.008-0.822,0.699-0.041,1.781-0.252
	c0.533,1.557,3.215,0.514,3.793,1.328c1.225,1.73,2.447,3.461,3.672,5.191c0.369,0.521-0.631,1.111-1.027,1.244
	c-1.01,0.338-1.908-0.484-2.568-1.154c-0.475-0.48-2.197-0.807-2.311,0.436c0.605-0.611,2.756,0.877,3.461,1.268
	c-0.959-0.455-4.012-1.223-3.938,0.883c0.43-0.73,3.02-0.459,3.709-0.219c-0.959,0.291-2.283,0.672-2.512,1.891
	c0.621-0.412,1.465-0.27,1.951-0.602c1.275-0.881,1.52-0.367,2.934-0.391c0.775-0.014,1.314-0.602,2.156-0.406
	c0.586,0.135,0.881,0.564,1.406,0.748c0.502-0.346,1.113-0.324,1.592,0.277c-0.307-1.605-2.01-1.135-2.645-2.313
	c-0.35-0.652,0.279-2.023,0.408-2.727c0.271-1.504,0.287-2.975-0.25-4.422c0.783,0.352,1.389,1.451,2.379,1.064
	c0-1.604-4.68-3.459-5.766-4.07c2.34-0.123,4.963-1.098,6.521-2.983c0.684-0.827,1.107-1.871,0.992-2.972
	c-0.18-1.701-0.045-2.498,0.494-4.232c-0.006,0.02-0.004,0.018,0.004-0.002c0.406,0.837,1.188,1.509,2.035,1.825
	C54.934,24.663,55.057,21.366,55.371,19.09z"/>
<path opacity="0.1" fill="#1A1626" d="M50.738,8.592c4.096,5.129,6.563,11.621,6.563,18.701c0,16.566-13.43,30.001-29.996,30.001
	c-7.1,0-13.609-2.479-18.744-6.594C14.055,57.58,22.504,62,32.004,62c16.566,0,29.994-13.432,29.994-30
	C61.998,22.528,57.596,14.09,50.738,8.592z"/>
<path opacity="0.9" fill-rule="evenodd" clip-rule="evenodd" fill="#FFFFFF" d="M9.734,19.016c0.549,3.865,7.768-3.701,15.08-10.203
	C29.531,4.631,8.084,7.385,9.734,19.016z"/>
</svg>
