<?xml version="1.0" encoding="utf-8"?>
<!-- Generator: Adobe Illustrator 15.0.0, SVG Export Plug-In . SVG Version: 6.00 Build 0)  -->
<!DOCTYPE svg PUBLIC "-//W3C//DTD SVG 1.1//EN" "http://www.w3.org/Graphics/SVG/1.1/DTD/svg11.dtd">
<svg version="1.1" id="Layer_1" xmlns="http://www.w3.org/2000/svg" xmlns:xlink="http://www.w3.org/1999/xlink" x="0px" y="0px"
	 width="64px" height="64px" viewBox="0 0 64 64" enable-background="new 0 0 64 64" xml:space="preserve">
<path fill="#302C3B" d="M17.59,23.947h-3.004c0-2.168-0.74-3.176-1.6-4.342C12.055,18.338,11,16.902,11,14.274
	c0-2.9,1.906-5.565,4.639-6.482c3.102-1.042,6.455,0.313,8.951,3.631l-2.396,1.813c-1.707-2.267-3.748-3.214-5.602-2.59
	c-1.523,0.512-2.588,2.004-2.588,3.629c0,1.64,0.588,2.438,1.4,3.546C16.379,19.144,17.59,20.791,17.59,23.947z"/>
<path fill="#302C3B" d="M46.41,23.947h3.004c0-2.168,0.74-3.176,1.6-4.342C51.943,18.338,53,16.902,53,14.274
	c0-2.9-1.908-5.565-4.639-6.482c-3.102-1.042-6.455,0.313-8.953,3.631l2.398,1.813c1.707-2.267,3.746-3.214,5.602-2.59
	c1.523,0.512,2.588,2.004,2.588,3.629c0,1.64-0.588,2.438-1.4,3.546C47.621,19.144,46.41,20.791,46.41,23.947z"/>
<polygon fill="#302C3B" points="44.004,6 20.002,6 18.002,2 46.004,2 "/>
<polygon fill="#AB5C10" points="41.996,16 21.996,16 21.002,6 43.004,6 "/>
<polygon fill="#F59E01" points="42.6,10 21.4,10 21.201,8 42.803,8 "/>
<polygon fill="#F59E01" points="42.197,14 21.797,14 21.598,12 42.398,12 "/>
<polygon fill="#914A06" points="41.991,16 33.996,16 33.997,6 42.999,6 "/>
<polygon fill="#EA8800" points="42.595,10 33.996,10 33.996,8 42.798,8 "/>
<polygon fill="#EA8800" points="42.192,14 33.996,14 33.996,12 42.394,12 "/>
<rect x="21.996" y="59" fill="#302C3B" width="20" height="3"/>
<path fill="#D47706" d="M41.996,16h-20c0,3.834-8.992,3.016-8.992,13.654c0,17.07,15.336,23.002,10.992,27.346h16
	c-4.344-4.344,11.008-10.289,11.008-27.346C51.004,19.006,41.996,19.837,41.996,16z"/>
<path fill="#AB5C10" d="M51.004,29.654c0-10.648-9.008-9.817-9.008-13.654h-8c0,3.837,9.008,3.006,9.008,13.654
	c0,17.057-15.352,23.002-11.008,27.346h8C35.652,52.656,51.004,46.711,51.004,29.654z"/>
<polygon fill="#F59E01" points="23.996,57 39.996,57 41.996,59 21.996,59 "/>
<polygon fill="#EA8800" points="31.996,57 39.996,57 41.996,59 31.996,59 "/>
<path fill="#F59E01" d="M18.191,45.5h27.613c0.439-0.635,0.873-1.301,1.293-2H16.902C17.32,44.199,17.754,44.865,18.191,45.5z"/>
<path fill="#F59E01" d="M13.146,27.5c-0.084,0.617-0.133,1.281-0.139,2H51c-0.006-0.719-0.057-1.383-0.139-2H13.146z"/>
<path fill="#302C3B" d="M50.428,25.5h-36.85c-0.189,0.604-0.334,1.271-0.432,2h37.715C50.762,26.771,50.617,26.104,50.428,25.5z"/>
<path fill="#302C3B" d="M19.662,47.5h24.672c0.488-0.631,0.982-1.295,1.471-2H18.191C18.68,46.205,19.174,46.869,19.662,47.5z"/>
<path fill="#302C3B" d="M13.004,29.654c0,0.632,0.027,1.244,0.066,1.846h7.934v8h6v-2h-4v-6h10v8h6v-2h-4v-6h10v8h4.1
	c0.26-0.643,0.496-1.311,0.713-2h-2.813v-6h3.932c0.041-0.602,0.068-1.214,0.068-1.846c0-0.053-0.004-0.102-0.004-0.154H13.008
	C13.008,29.553,13.004,29.602,13.004,29.654z"/>
<path fill="#302C3B" d="M43.004,33.5h-6v2h4v6h-10v-8h-6v2h4v6h-10v-8h-5.719c0.098,0.684,0.213,1.355,0.359,2h3.359v6h-1.201
	c0.35,0.697,0.719,1.361,1.1,2h30.195c0.381-0.639,0.752-1.303,1.102-2h-5.195V33.5z"/>
<path fill-rule="evenodd" clip-rule="evenodd" fill="#F59E01" d="M24.494,18.716c3.025,2.631-1.996,3.951-4.592,4.976
	C12.092,26.778,22.072,16.609,24.494,18.716z"/>
</svg>
