<?xml version="1.0" encoding="utf-8"?>
<!-- Generator: Adobe Illustrator 15.0.0, SVG Export Plug-In . SVG Version: 6.00 Build 0)  -->
<!DOCTYPE svg PUBLIC "-//W3C//DTD SVG 1.1//EN" "http://www.w3.org/Graphics/SVG/1.1/DTD/svg11.dtd">
<svg version="1.1" id="Layer_1" xmlns="http://www.w3.org/2000/svg" xmlns:xlink="http://www.w3.org/1999/xlink" x="0px" y="0px"
	 width="64px" height="64px" viewBox="0 0 64 64" enable-background="new 0 0 64 64" xml:space="preserve">
<path fill="#F5F5F5" d="M37.969,2.601H26.033c-11.77,2.377-21.044,11.635-23.432,23.4v11.997
	c2.388,11.766,11.662,21.023,23.432,23.4H38c11.764-2.387,21.023-11.662,23.4-23.43V26.001C59.012,14.236,49.738,4.978,37.969,2.601
	z"/>
<path fill="#E81C27" d="M38,26V2.601C36.063,2.207,34.055,2,32,2s-4.061,0.207-6,0.602V26H2.602C2.208,27.939,2,29.945,2,32
	c0,2.055,0.208,4.061,0.602,6H26v23.398C27.939,61.793,29.945,62,32,62s4.063-0.207,6-0.602V38h23.4c0.393-1.939,0.6-3.945,0.6-6
	c0-2.055-0.207-4.061-0.6-6H38z"/>
<path opacity="0.05" fill="#1A1626" d="M50.736,8.591c4.098,5.13,6.563,11.622,6.563,18.701c0,16.569-13.428,30.002-29.994,30.002
	c-7.101,0-13.609-2.477-18.744-6.594C14.055,57.58,22.502,62,32.004,62c16.564,0,29.994-13.432,29.994-30
	C61.998,22.528,57.596,14.09,50.736,8.591z"/>
<path opacity="0.9" fill-rule="evenodd" clip-rule="evenodd" fill="#FFFFFF" d="M9.734,19.015c0.549,3.865,7.767-3.7,15.08-10.202
	C29.531,4.63,8.083,7.385,9.734,19.015z"/>
</svg>
