<?xml version="1.0" encoding="utf-8"?>
<!-- Generator: Adobe Illustrator 15.0.0, SVG Export Plug-In . SVG Version: 6.00 Build 0)  -->
<!DOCTYPE svg PUBLIC "-//W3C//DTD SVG 1.1//EN" "http://www.w3.org/Graphics/SVG/1.1/DTD/svg11.dtd">
<svg version="1.1" id="Layer_1" xmlns="http://www.w3.org/2000/svg" xmlns:xlink="http://www.w3.org/1999/xlink" x="0px" y="0px"
	 width="64px" height="64px" viewBox="0 0 64 64" enable-background="new 0 0 64 64" xml:space="preserve">
<path fill="#006DAE" d="M53.127,10.699c-11.695-11.6-30.561-11.6-42.256,0L32,26.953L53.127,10.699z"/>
<path fill="#006DAE" d="M10.871,53.301c11.695,11.598,30.561,11.598,42.256,0L32,37.047L10.871,53.301z"/>
<path fill="#006DAE" d="M58.01,46.962c5.32-9.233,5.32-20.689,0-29.924L38.561,32L58.01,46.962z"/>
<path fill="#006DAE" d="M5.988,17.038c-5.318,9.234-5.318,20.69,0,29.924L25.438,32L5.988,17.038z"/>
<path fill="#F5F5F5" d="M53.127,10.699L32,26.952L10.871,10.699c-1.895,1.88-3.535,4.014-4.879,6.342L25.438,32L5.994,46.959
	c1.344,2.328,2.982,4.463,4.879,6.342L32,37.047l21.125,16.254c1.896-1.879,3.537-4.014,4.881-6.342L38.561,32l19.445-14.959
	C56.664,14.713,55.023,12.579,53.127,10.699z"/>
<path opacity="0.1" fill="#1A1626" d="M50.738,8.592c4.096,5.129,6.563,11.621,6.563,18.701c0,16.566-13.43,30.002-29.996,30.002
	c-7.1,0-13.609-2.479-18.744-6.594C14.055,57.58,22.504,62,32.004,62c16.566,0,29.994-13.432,29.994-30
	C61.998,22.527,57.596,14.09,50.738,8.592z"/>
<path opacity="0.3" fill-rule="evenodd" clip-rule="evenodd" fill="#FFFFFF" d="M9.734,19.016c0.549,3.865,7.768-3.701,15.08-10.203
	C29.531,4.631,8.084,7.385,9.734,19.016z"/>
</svg>
