<?xml version="1.0" encoding="utf-8"?>
<!-- Generator: Adobe Illustrator 15.0.0, SVG Export Plug-In . SVG Version: 6.00 Build 0)  -->
<!DOCTYPE svg PUBLIC "-//W3C//DTD SVG 1.1//EN" "http://www.w3.org/Graphics/SVG/1.1/DTD/svg11.dtd">
<svg version="1.1" id="Layer_1" xmlns="http://www.w3.org/2000/svg" xmlns:xlink="http://www.w3.org/1999/xlink" x="0px" y="0px"
	 width="64px" height="64px" viewBox="0 0 64 64" enable-background="new 0 0 64 64" xml:space="preserve">
<path fill="#B47D56" d="M49.721,20.448c12.533,12.53,5.162,27.972,2.9,33.048c-0.391,0.873-0.613,1.671-0.729,2.4
	c0.928-0.075,2.141,0.349,3.225,1.23c1.645,1.337,0.879,3.368,0.025,4.219c-0.637,0.64-1.154,0.946-2.742,0.285
	c-2.252-0.938-7.541-4.319-4.943-10.051c7.512-16.561-2.973-26.819-2.973-26.819l4.771-4.772L49.721,20.448z"/>
<path fill="#B47D56" d="M6.873,8.879c0.883,1.089,1.309,2.303,1.229,3.227c0.73-0.117,1.529-0.336,2.402-0.727
	c5.074-2.264,20.518-9.63,33.047,2.899l0.459,0.465l-4.77,4.773c0,0-10.262-10.487-26.822-2.973
	C6.689,19.139,3.309,13.85,2.369,11.6c-0.66-1.587-0.354-2.104,0.283-2.744C3.504,8.002,5.537,7.235,6.873,8.879z"/>
<path fill="#9E6C49" d="M48.871,50.166c7.512-16.561-2.973-26.82-2.973-26.82l-1.414,1.415c0,0,10.484,10.259,2.973,26.819
	c-2.598,5.731,2.691,9.112,4.943,10.051c1.588,0.661,2.105,0.354,2.742-0.285c0.216-0.215,0.425-0.506,0.592-0.841
	C53.75,62.738,44.939,58.84,48.871,50.166z"/>
<path fill="#9E6C49" d="M13.832,15.13C7.555,17.974,0.879,11.469,3.496,8.263C3.16,8.431,2.867,8.64,2.652,8.855
	c-0.637,0.64-0.943,1.157-0.283,2.744c0.939,2.25,4.32,7.539,10.049,4.944c16.561-7.515,26.822,2.973,26.822,2.973l1.414-1.415
	C40.641,18.088,30.383,7.62,13.832,15.13z"/>
<rect x="40.873" y="16.043" transform="matrix(-0.707 0.7072 -0.7072 -0.707 89.4994 2.4267)" fill="#FED0AC" width="6.749" height="7.418"/>
<rect x="41.572" y="17.722" transform="matrix(-0.7071 0.7071 -0.7071 -0.7071 87.8251 6.481)" fill="#D6A57C" width="1.997" height="7.416"/>
<rect x="40.871" y="17.748" transform="matrix(0.7071 -0.7071 0.7071 0.7071 -1.0044 37.0723)" fill="#785647" width="6.755" height="4"/>
<rect x="41.576" y="19.442" transform="matrix(0.7069 -0.7074 0.7074 0.7069 -2.686 36.4024)" fill="#45332C" width="2.003" height="4"/>
<path fill="#45332C" d="M52.316,59.291c-0.82-0.82-0.787-2.631-0.424-3.395c0.35-0.031,0.752,0.037,1.162,0.148
	c-1.307-0.188-0.23,3.574,0.309,2.808c0.557-0.79,0.607-0.229,0.594-0.079C53.912,59.202,53.51,60.484,52.316,59.291z"/>
<path fill="#45332C" d="M4.707,11.682c0.82,0.82,2.631,0.789,3.395,0.424c0.029-0.352-0.035-0.747-0.148-1.162
	c0.188,1.307-3.572,0.233-2.807-0.308c0.791-0.556,0.229-0.608,0.08-0.593C4.795,10.087,3.516,10.489,4.707,11.682z"/>
<polygon fill="#CFD8DD" points="53.752,8.749 54.031,5.467 62,2 58.533,9.968 55.252,10.249 "/>
<path fill="#B47D56" d="M14.426,48.094L53.762,8.756l1.5,1.503L15.926,49.593c-0.207,0.209-0.711,0.039-1.125-0.374
	C14.389,48.806,14.221,48.299,14.426,48.094z"/>
<path fill="#9E6C49" d="M54.459,9.453l0.793,0.795L15.916,49.582c-0.207,0.209-0.711,0.039-1.125-0.373L54.459,9.453z"/>
<path fill="#E81C27" d="M12.527,42.494c0.254-0.251,2.242,0.361,2.242,0.361s-1.557-0.766-1.49-1.114
	c0.061-0.307,0.574-0.853,0.885-0.886c0.674-0.064,3,0.75,3,0.75s-2.313-0.828-2.246-1.502c0.029-0.291,0.824-0.826,0.824-0.826
	c2.518,1.233,5.998,1.504,5.998,1.504l-6.428,6.426c0,0-5.949-1.55-5.01-2.487C11.055,43.965,11.572,43.452,12.527,42.494z"/>
<path fill="#FFE12C" d="M15.988,46.531c-2.107-0.632-4.244-1.379-5.398-2.099c0.211-0.212,0.471-0.473,0.754-0.756
	c1.064,0.561,3.311,1.351,5.5,1.997L15.988,46.531z"/>
<path fill="#E81C27" d="M21.523,51.495c0.254-0.255-0.361-2.242-0.361-2.242s0.766,1.554,1.115,1.487
	c0.309-0.059,0.854-0.574,0.885-0.884c0.068-0.675-0.746-3-0.746-3s0.826,2.312,1.5,2.248c0.289-0.03,0.824-0.827,0.824-0.827
	c-1.232-2.516-1.5-5.997-1.5-5.997l-6.426,6.426c0,0,1.549,5.951,2.486,5.013C20.053,52.966,20.568,52.449,21.523,51.495z"/>
<path fill="#FFE12C" d="M17.49,48.033c0.629,2.108,1.381,4.242,2.098,5.398c0.213-0.214,0.471-0.473,0.756-0.755
	c-0.559-1.065-1.354-3.311-2-5.501L17.49,48.033z"/>
<polygon fill="#CFD8DD" points="51.773,61.298 16.115,49.405 16.953,48.569 48.785,59.186 "/>
<polygon fill="#CFD8DD" points="2.699,12.221 4.813,15.21 15.443,47.076 14.604,47.918 "/>
<polygon fill="#6E8189" points="55.252,10.249 53.752,8.749 53.84,7.73 53.84,7.73 57.887,8.302 62,2 58.533,9.968 "/>
<polygon fill="#E6EBEF" points="56.664,8.076 55.053,8.943 55.924,7.334 54.545,6.454 56.584,6.583 60.305,3.698 57.414,7.416 
	57.545,9.454 "/>
<path fill-rule="evenodd" clip-rule="evenodd" fill="#D6A57C" d="M20.757,8.662c-2.269,0.558,7.368-1.27,13.452,1.096
	C37.148,10.9,33.35,5.566,20.757,8.662z"/>
</svg>
