<?xml version="1.0" encoding="utf-8"?>
<!-- Generator: Adobe Illustrator 15.0.0, SVG Export Plug-In . SVG Version: 6.00 Build 0)  -->
<!DOCTYPE svg PUBLIC "-//W3C//DTD SVG 1.1//EN" "http://www.w3.org/Graphics/SVG/1.1/DTD/svg11.dtd">
<svg version="1.1" id="Layer_1" xmlns="http://www.w3.org/2000/svg" xmlns:xlink="http://www.w3.org/1999/xlink" x="0px" y="0px"
	 width="64px" height="64px" viewBox="0 0 64 64" enable-background="new 0 0 64 64" xml:space="preserve">
<path fill="#EBBB96" d="M51.393,20.396c5.035-2.463-3.523-21.221-1.516-11.35C51.523,17.154,46.545,22.768,51.393,20.396z"/>
<path fill="#EBBB96" d="M47.479,6.069c0.672,4.954,5.627,4.284,4.955-0.672C51.764,0.442,46.809,1.114,47.479,6.069z"/>
<path fill="#302C3B" d="M48.471,5.935c0.402,2.974,3.375,2.571,2.973-0.402C51.041,2.56,48.068,2.962,48.471,5.935z"/>
<path fill="#FFFFFF" d="M50.035,4.683c0.117,0.867,0.984,0.75,0.867-0.117S49.918,3.815,50.035,4.683z"/>
<path fill="#EBBB96" d="M55.875,20.545c5.471-1.229,1.49-21.46,1.156-11.391C56.756,17.422,50.611,21.729,55.875,20.545z"/>
<path fill="#EBBB96" d="M55.389,5.7c-0.496,4.976,4.48,5.472,4.975,0.496C60.859,1.22,55.885,0.726,55.389,5.7z"/>
<path fill="#302C3B" d="M56.385,5.8c-0.299,2.985,2.688,3.282,2.984,0.297C59.666,3.112,56.682,2.815,56.385,5.8z"/>
<path fill="#FFFFFF" d="M58.197,4.944c-0.088,0.871,0.783,0.957,0.869,0.086C59.154,4.159,58.283,4.073,58.197,4.944z"/>
<path fill="#EBBB96" d="M7.344,62h43.23c0.406-2.445-1.891-3.557-1.891-3.557s13.695-7.152,7.898-26.033
	c15.871-7.756-8.029-25.683-9.525-6.643C44.158,62.658,11.58,53.574,7.344,62z"/>
<path fill="#C4926E" d="M55.535,51.291c-5.344,8.912-17.621,5.309-16.451,6.135c0.844,0.594,5.453,1.43,9.6,1.018
	C48.684,58.443,52.799,56.551,55.535,51.291z"/>
<path fill="#C4926E" d="M43.281,41.047c-3.807,6.348-20.184,16.455-26.41,16.469c0,0-2.775,0.475-4.592,1.191
	c8.145,0.393,13.25,4.957,18.846,1.502C37.518,56.26,36.684,53.725,43.281,41.047z"/>
<path fill="#785647" d="M20.799,57.629c30.814-1.59,25.338-46.896,0-43.439C-2.418,17.352-4.711,58.945,20.799,57.629z"/>
<path fill="#AB8A7B" d="M20.529,16.258c13.844-1.887,20.072,11.389,18.979,23.449c-0.193,2.15-1.107,2.531-1.479,0.41
	C35.621,26.316,27.541,18.08,13.332,20.016C10.125,20.453,14.385,17.094,20.529,16.258z"/>
<path fill="#45332C" d="M41.98,43.293c-4.172,7.189-7.051,8.996-7.051,8.996S36.283,42.936,41.98,43.293z"/>
<path fill="#8A6859" d="M44.195,38.879c-0.777,2.33-2.215,4.414-2.215,4.414c-6.623,0.822-4.346,21.402-25.99,13.93
	C33.777,59.697,29.744,37.811,44.195,38.879z"/>
<path fill="#45332C" d="M7.082,22.977C-9.025,47.42,17.355,71.895,28.072,47.141c7.988-18.457-11.09-32.033-19.98-19.314
	c-9.484,13.563,5.637,28.594,11.42,14.332c3.527-8.701-5.027-15.391-8.273-8.305c-2.807,6.125,2.201,9.541,3.789,4.352
	c0.264-0.857-0.135-1.189-0.342-0.529c-1.465,4.689-4.859,0.943-2.525-3.182c2.941-5.193,7.527,1.025,5.221,6.51
	c-4.496,10.689-14.578-2.91-7.043-11.459c7.26-8.236,18.652,4.125,13.793,15.393C15.174,65.703-6.32,45.646,7.082,22.977z"/>
<path fill="#45332C" d="M39.369,28.623c-7.33,0.711-11.777,6.268-13.029,4.432C25.389,31.654,28.99,25.637,39.369,28.623z"/>
<path fill="#45332C" d="M23.918,42.795c-3.137-1.592-6.061-0.467-6.209-1.539C17.6,40.438,20.271,38.906,23.918,42.795z"/>
<path fill="#45332C" d="M13.762,52.742c-1.598-3.758-0.629-7.348-1.643-7.492C11.346,45.145,9.988,48.434,13.762,52.742z"/>
<path fill="#45332C" d="M8.205,49.369c0.004-2.721,1.471-4.506,0.912-4.918C8.691,44.137,7.074,45.625,8.205,49.369z"/>
<path fill="#45332C" d="M32.279,24.744c-4.461,1.547-6.568,5.668-7.559,4.719C23.965,28.738,25.494,24.463,32.279,24.744z"/>
<path fill="#45332C" d="M14.229,18.205c-1.266,4.113,0.113,7.703-0.922,7.988C12.516,26.41,10.766,23.182,14.229,18.205z"/>
<path fill="#C4926E" d="M51.49,49.873c1.936,0.922,3.928-4.482,1.992-5.402C51.547,43.549,49.553,48.949,51.49,49.873z"/>
<path fill="#C4926E" d="M48.02,50.445c0.945,0.449,1.916-2.188,0.973-2.635C48.047,47.359,47.074,49.994,48.02,50.445z"/>
<path fill="#FED0AC" d="M49.449,22.514c1.387,1.793,5.258-2.078,3.873-3.867C51.936,16.855,48.063,20.725,49.449,22.514z"/>
<path fill="#FED0AC" d="M48.574,25.842c0.488,1.023,2.699-0.336,2.215-1.357C50.303,23.459,48.088,24.816,48.574,25.842z"/>
<path fill="#C4926E" d="M49.342,53.574c0.945,0.449,1.916-2.188,0.973-2.635C49.371,50.49,48.398,53.123,49.342,53.574z"/>
<path fill="#C4926E" d="M44.752,62h4.592C49.344,59.496,44.752,59.496,44.752,62z"/>
<path fill="#C4926E" d="M37.693,62h4.592C42.285,59.496,37.693,59.496,37.693,62z"/>
<path fill="#C4926E" d="M30.635,62h4.592C35.227,59.496,30.635,59.496,30.635,62z"/>
<path fill="#C4926E" d="M23.576,62h4.592C28.168,59.496,23.576,59.496,23.576,62z"/>
<path fill="#C4926E" d="M16.518,62h4.592C21.109,59.496,16.518,59.496,16.518,62z"/>
<path fill="#C4926E" d="M9.459,62h4.592C14.051,59.496,9.459,59.496,9.459,62z"/>
</svg>
