<?xml version="1.0" encoding="utf-8"?>
<!-- Generator: Adobe Illustrator 15.0.0, SVG Export Plug-In . SVG Version: 6.00 Build 0)  -->
<!DOCTYPE svg PUBLIC "-//W3C//DTD SVG 1.1//EN" "http://www.w3.org/Graphics/SVG/1.1/DTD/svg11.dtd">
<svg version="1.1" id="Layer_1" xmlns="http://www.w3.org/2000/svg" xmlns:xlink="http://www.w3.org/1999/xlink" x="0px" y="0px"
	 width="64px" height="64px" viewBox="0 0 64 64" enable-background="new 0 0 64 64" xml:space="preserve">
<path fill="#F6BEC1" d="M17.999,48.47c0.87-2.831,3.668-0.497,5.698-2.319l2.011,0.456c0.267,4.655-4.296,2.188-6.024,4.655
	c0,0-0.458-1.11,0.288-1.779c0,0-0.899-0.114-1.938,0.41c0,0,0.14-0.982,1.038-1.654C19.072,48.238,18.597,48.146,17.999,48.47z"/>
<path fill="#F6BEC1" d="M30.392,47.584c0.869-2.83,4.388-0.89,6.417-2.713l5.812,0.768c1.74,4.233-6.647,1.096-10.545,4.738
	c0,0-0.457-1.109,0.289-1.778c0,0-0.899-0.116-1.938,0.411c0,0,0.139-0.984,1.038-1.653C31.465,47.356,30.99,47.26,30.392,47.584z"
	/>
<path fill="#F6BEC1" d="M51.573,36.215c11.48,0.513,16.121,19.629,0.023,24.188c-16.281,4.611-28.733-1.977-29.665-4.482
	c-0.991-2.662,8.46,8.423,28.477,1.936c11.988-3.885,8.63-18.473-0.137-16.969C45.108,41.773,51.573,36.215,51.573,36.215z"/>
<path fill="#CFD8DD" d="M21.404,12.238c-4.141-1.989-7.638,9.086-5.926,10.238C17.125,23.587,24.888,13.91,21.404,12.238z"/>
<path fill="#E6EBEF" d="M2.216,26.019c4.952,1.912,5.426,6.576,10.711,6.576c1.871,5.548,8.621,7.526,9.773,10.827
	c0,0-0.551,2.895,0,3.518c0.576,0.648,2.521,0.394,3.256,0c1.068-0.571,2.68-2.371,2.986-4.131c2.204,0.574,4.068-1.799,6.105-1.346
	c0,0,0.811,2.721,1.254,3.372c1.024,1.512,7.155,2.294,7.252,0.863c12.792-0.749,12.466-22.561-1.113-26.832
	c-9.972-3.136-14.005,4.799-17.265,3.748C22.566,21.773,17.343,10.329,2.216,26.019z"/>
<path fill="#CFD8DD" d="M36.414,44.977c0,0-3.132-13.183,5.28-16.497C34.55,28.734,32.041,37.85,36.414,44.977z"/>
<path fill="#CFD8DD" d="M27.984,44.977c0,0,2.061-1.423,1.534-6.07c0.622,0.008,1.12,0.346,1.12,0.346
	c0.236-2.275-1.137-3.52-1.137-3.52c0.543-0.496,1.175-0.114,1.175-0.114c0.04-2.372-1.366-3.595-1.366-3.595
	s0.717,1.721,0.445,2.485c0,0-1.068,0.25-1.492,0.822c0,0,1.068,1.282,1.171,2.238c-0.814-0.172-1.45,0.152-1.45,0.152
	S29.434,40.821,27.984,44.977z"/>
<path fill="#CFD8DD" d="M22.502,44.871c0.811-3.999-2.22-5.861,1.194-10.834C21.843,39.413,24.466,41.328,22.502,44.871z"/>
<path fill="#CFD8DD" d="M3.741,27.242c5.701,0.471,4.953,6.215,16.62,4.093C10.773,36.791,7.728,29.346,3.741,27.242z"/>
<path fill="#E81C27" d="M14.322,21.519c0.341,2.389-1.798,3.593-3.863,2.063C10.498,21.277,13.001,20.248,14.322,21.519z"/>
<path fill="#FFFFFF" d="M12.009,22.555c-0.063,0.705-1.042,0.607-0.977-0.097C11.095,21.755,12.073,21.853,12.009,22.555z"/>
<path fill="#CFD8DD" d="M19.166,24.263c-1.475-3.625,9.086-1.457,12.273-4.384C31.058,27.242,19.963,26.223,19.166,24.263z"/>
<path fill="#E6EBEF" d="M17.173,23.911c-1.475-3.625,12.279-18.449,14.436-6.954C33.198,25.438,17.971,25.871,17.173,23.911z"/>
<path fill="#FDE0DA" d="M18.947,23.438c-1.141-2.798,10.632-14.528,11.727-5.57C31.367,23.549,19.563,24.951,18.947,23.438z"/>
<path fill="#F6BEC1" d="M27.822,14.56c-3.759,0.149-9.701,6.852-8.875,8.878c0.147,0.365,0.959,0.561,2.084,0.564
	C22.285,20.797,25.025,16.721,27.822,14.56z"/>
<path fill="#FF8FA8" d="M5.07,27.713c-2.752,0-4.37-2.748-1.725-2.835C5.337,24.813,3.301,26.042,5.07,27.713z"/>
</svg>
