<?xml version="1.0" encoding="utf-8"?>
<!-- Generator: Adobe Illustrator 15.0.0, SVG Export Plug-In . SVG Version: 6.00 Build 0)  -->
<!DOCTYPE svg PUBLIC "-//W3C//DTD SVG 1.1//EN" "http://www.w3.org/Graphics/SVG/1.1/DTD/svg11.dtd">
<svg version="1.1" id="Layer_1" xmlns="http://www.w3.org/2000/svg" xmlns:xlink="http://www.w3.org/1999/xlink" x="0px" y="0px"
	 width="64px" height="64px" viewBox="0 0 64 64" enable-background="new 0 0 64 64" xml:space="preserve">
<path fill="#99A8AE" d="M47.459,37.143c5.342,4.984,5.131,8.626,7.971,11.602c0.553,0.58-0.209,1.783,0.834,3.115
	c0.426,0.537,0.305,4.802-0.965,5.854c-0.363,0.312,1.309,1.053,1.709,0.806c2.648-1.654,0.742-5.092,1.576-7.24
	c0.297-0.773,1.734-2.353,1.271-3.019c-6.016-8.776,0.719-10.194,0.293-17.757C59.926,26.594,44.611,34.5,47.459,37.143z"/>
<path fill="#302C3B" d="M55.434,57.574c-1.922,0.516-2.547,2.524-2.547,2.524h2.695c0,0,1.709-0.387,1.873-1.912
	C55.713,58.391,55.434,57.574,55.434,57.574z"/>
<path fill="#99A8AE" d="M25.74,36.477c-0.035,4.673,2.195,7.272,1.622,12.268c-0.259,2.256,1.631,5.253-0.132,8.97
	c-0.203,0.44,1.309,1.053,1.709,0.806c2.649-1.654,0.133-5.103,1.095-7.197c0.875-1.912,0.232-11.634,1.488-16.393
	C32.484,31.288,25.768,32.566,25.74,36.477z"/>
<path fill="#302C3B" d="M27.366,57.574c-1.922,0.516-2.547,2.524-2.547,2.524h2.695c0,0,1.708-0.387,1.873-1.912
	C27.645,58.391,27.366,57.574,27.366,57.574z"/>
<path fill="#CFD8DD" d="M12.826,33.888c0.416,3.126,3.894,4.007,4.535,5.726c3.723,9.969,11.221,5.876,13.333,5.769
	c3.057-0.172,3.664,2.471,12.494,0.698c3.584-0.72,11.775-1.687,14.303-4.361c3.941-4.168,4.074-14.942,0.828-17.982
	c-4.271-4.007-12.762,0.14-27.373,0.387c-2.004,0.032-4.604-1.536-9.182,0.226c-2.088,0.816-7.29-1.332-8.938,0.204
	C11.131,26.132,12.521,31.567,12.826,33.888z"/>
<path fill="#CFD8DD" d="M21.171,38.389c-0.034,4.662,2.195,7.272,1.623,12.268c-0.259,2.256,1.631,5.253-0.131,8.97
	c-0.204,0.43,1.308,1.053,1.708,0.806c2.648-1.654,0.134-5.103,1.095-7.197c0.875-1.912,0.232-11.634,1.488-16.393
	C27.918,33.189,21.201,34.468,21.171,38.389z"/>
<path fill="#302C3B" d="M22.798,59.486C20.876,60.002,20.252,62,20.252,62h2.693c0,0,1.709-0.376,1.873-1.901
	C23.078,60.303,22.798,59.486,22.798,59.486z"/>
<path fill="#99A8AE" d="M26.062,46.273c-0.158-2.524,0.423-6.821,0.423-6.821c1.62,4.963,3.23,5.854,11.162,4.63
	c-1.564,0.795-3.197,0.978-3.197,0.978c2.527,2.922,9.986-1.354,11.684,0.483c0,0-6.561,2.535-13.533,0.548
	C29.859,45.317,28.204,46.692,26.062,46.273z"/>
<path fill="#99A8AE" d="M20.609,44.651c1.143-0.73,0.594-5.199,0.594-5.199s0.362,3.169,1.317,6.349
	C22.52,45.801,21.751,45.607,20.609,44.651z"/>
<path fill="#99A8AE" d="M46.729,43.083c-1.123-2.363-2.693-4.125-2.693-4.125C47.488,39.57,48.869,43.502,46.729,43.083z"/>
<path fill="#99A8AE" d="M57.643,39.731c1.766-2.009,3.207-10.291,1.127-13.267c2.313,1.214,3.119,10.012-1.127,15.211
	C57.264,42.138,57.268,40.881,57.643,39.731z"/>
<path fill="#4E5E67" d="M21.171,24.499c-7.596,13.224,9.79,20.421,7.219,6.735c-0.789-4.2,6.461-1.235,1.985-7.144
	C25.279,22.189,21.171,24.499,21.171,24.499z"/>
<path fill="#4E5E67" d="M38.281,38.281c-0.855,0.559-4.154,0.816-4.777,0C31.492,35.66,44.281,34.371,38.281,38.281z"/>
<path fill="#D4666F" d="M47.82,51.537c-0.756,0-0.688-5.092,0.154-5.092C48.986,46.445,48.871,51.537,47.82,51.537z"/>
<path fill="#D4666F" d="M49.627,50.979c-0.756,0-0.686-5.103,0.156-5.103C50.793,45.876,50.678,50.979,49.627,50.979z"/>
<path fill="#F78790" d="M42.25,45.253c4.43,6.134,18.361,3.309,14.936-7.53C48.949,44.565,45.451,41.923,42.25,45.253z"/>
<path fill="#D4666F" d="M42.25,45.253c4.621,6.467,18.361,3.309,14.936-7.53c0.26,4.77-1.541,10.441-8.582,4.748
	c0,0-1.229,0.462-1.875,0.612c0,0,1.084,2.653,2.127,4.082C48.855,47.165,45.646,47.455,42.25,45.253z"/>
<path fill="#CFD8DD" d="M44.131,39.055c5.344,4.974,5.133,8.626,7.973,11.602c0.553,0.58-0.209,1.783,0.834,3.104
	c0.424,0.548,0.303,4.813-0.967,5.865c-0.363,0.312,1.309,1.053,1.709,0.806c2.65-1.654,0.744-5.092,1.578-7.251
	c0.295-0.763,1.732-2.342,1.271-3.019c-6.016-8.766,2.166-12.053,1.738-19.615C58.047,26.637,41.285,36.401,44.131,39.055z"/>
<path fill="#302C3B" d="M52.107,59.486C50.186,60.002,49.561,62,49.561,62h2.695c0,0,1.709-0.376,1.873-1.901
	C52.387,60.303,52.107,59.486,52.107,59.486z"/>
<path fill="#CFD8DD" d="M52.887,22.544c6.52,0,9.318,1.482,9.102,6.467c-0.189,4.372-1.813,12.504-1.25,17.467
	c0.041,0.365-1.281-0.193-1.332-0.559c-0.617-4.404,1.055-11.999,0.77-15.984C59.705,23.328,49.369,22.544,52.887,22.544z"/>
<path fill="#4E5E67" d="M59.406,45.371c-1.158,2.138-0.145,11.054,0.299,10.194c1.477-2.825,1.572-8.486,0.98-9.646
	C60.57,45.693,59.525,45.156,59.406,45.371z"/>
<path fill="#4E5E67" d="M37.074,23.79c-6.088,7.906,1.176,11.688,6.902,7.025c3.33-2.707-0.131,7.734,5.039,8.572
	c5.084,0.838,3.195-8.304,5.563-5.769c3.977,4.254,7.748-10.022-3.117-11.569C46.373,22.007,44.359,22.877,37.074,23.79z"/>
<path fill="#EBBB96" d="M13.434,22.028c-3.369-0.849-4.429-3.749-4.725-3.309c-0.54,0.795,0.097,3.631,2.142,5.07
	C12.036,24.628,14.5,22.297,13.434,22.028z"/>
<path fill="#CFD8DD" d="M11.475,19.601c0.487,0.73,0.195,1.719,0.195,1.719h4.247c-0.157-1.848-1.5-2.428-1.5-2.428
	c0.183,0.72-0.041,1.289-0.041,1.289c-0.372-1.01-1.636-1.386-1.636-1.386c0.429,0.741,0.258,1.235,0.258,1.235
	C12.317,19.439,11.475,19.601,11.475,19.601z"/>
<path fill="#CFD8DD" d="M10.157,21.921c-4.756,5.618-8.094,8.422-8.005,8.938c0.129,0.73-0.357,1.547,0.893,2.116
	c-0.08,0.387,0.165,0.838,0.575,0.741c0.674-0.15,2.146,0.344,3.329-0.408c0.569-0.365,2.527,1.386,6.987-0.15
	c2.557-0.881,7.317-7.079,5.757-9.324C17.319,20.417,12.22,19.482,10.157,21.921z"/>
<path fill="#BC6464" d="M7.142,32.352c0.205,1.858-2.388,1.815-3.704,1.45C2.248,33.458,2.907,31.739,7.142,32.352z"/>
<path fill="#F78790" d="M3.53,29.14c0.677-0.795,4.484,2.148,3.612,3.212c-0.648,0.795-2.781,0.988-4.097,0.623
	c-1.19-0.344-0.847-1.149-1.042-2.234C1.931,30.332,3.032,29.73,3.53,29.14z"/>
<path fill="#BC6464" d="M2.776,30.815c-0.023,0.559-0.631,1.525,0.209,1.214C3.925,31.675,2.813,29.924,2.776,30.815z"/>
<path fill="#F6C799" d="M13.798,21.362c-3.369-0.849-4.429-3.749-4.725-3.319c-0.54,0.806,0.097,3.642,2.142,5.081
	C12.399,23.962,14.865,21.631,13.798,21.362z"/>
<path fill="#4E5E67" d="M16.273,23.307c-1.819-3.104-5.626-2.696-7.812,1.611c-2.228,4.394,1.378,9.851,2.801,4.018
	C11.982,25.981,17.989,26.239,16.273,23.307z"/>
<path fill="#1A1626" d="M10.436,26.723c0,0.763-0.464,1.386-1.039,1.386c-0.573,0-1.037-0.623-1.037-1.386
	c0-0.773,0.464-1.396,1.037-1.396C9.972,25.326,10.436,25.949,10.436,26.723z"/>
<path id="Shape_23_" fill="#FFFFFF" d="M9.323,26.11c0,0.483-0.519,0.483-0.519,0S9.323,25.627,9.323,26.11L9.323,26.11z"/>
<path fill="#4E5E67" d="M13.704,25.079c5.036-0.032,5.931-5.328,5.261-5.199c-1.047,0.204-3.897,0.494-6.232,1.977
	C12.482,22.028,13.075,25.079,13.704,25.079z"/>
<path fill="#302C3B" d="M14.597,24.413c3.455-0.086,4.391-4.104,3.791-3.975C14.335,21.298,13.968,24.435,14.597,24.413z"/>
<path fill="#1A1626" d="M14.596,24.413c0.123,0,0.237-0.021,0.355-0.032c0.5-1.235,1.466-2.632,3.113-3.856
	C14.324,21.48,13.985,24.435,14.596,24.413z"/>
<path fill="#99A8AE" d="M17.512,29.29c-0.094-0.451-0.391,2.793-4.741,4.211c0.007,0.752,0.32,1.396,0.32,1.396
	C17.246,32.91,17.617,29.795,17.512,29.29z"/>
</svg>
