<?xml version="1.0" encoding="utf-8"?>
<!-- Generator: Adobe Illustrator 15.0.0, SVG Export Plug-In . SVG Version: 6.00 Build 0)  -->
<!DOCTYPE svg PUBLIC "-//W3C//DTD SVG 1.1//EN" "http://www.w3.org/Graphics/SVG/1.1/DTD/svg11.dtd">
<svg version="1.1" id="Layer_1" xmlns="http://www.w3.org/2000/svg" xmlns:xlink="http://www.w3.org/1999/xlink" x="0px" y="0px"
	 width="64px" height="64px" viewBox="0 0 64 64" enable-background="new 0 0 64 64" xml:space="preserve">
<path fill="#99A8AE" d="M25.926,2.03c-7.911,1.081-4.304,19.215-0.77,19.215C28.563,21.245,32.579,1.121,25.926,2.03z"/>
<path fill="#BEC3CF" d="M28.994,21.698c-4.154-7.6-19.453-0.252-20.49,6.233c-0.344,2.148,4.41,5.324,7.522,4.924
	c1.123,2.883-3.813,6.978-0.368,13.453c1.998,3.757,3.438,5.963,2.442,12.238c-2.291,0.33-2.784,2.576-2.247,3.453h5.965
	c0.303-2.121,2.508-6.205,2.508-9.207c0,0-0.027,4.433,3.025,5.043c-1.729,0.121-5.188,1.361-4.535,4.164h21.396
	c4.087-2.842,7.665-12.412,3.847-19.256c-6.095-10.93-16.643-7.525-18.73-11.049C27.29,28.257,31.285,25.89,28.994,21.698z"/>
<path fill="#99A8AE" d="M27.352,57.836c0,0-5.057-9.527,5.447-14.612C23.764,43.545,20.867,56.295,27.352,57.836z"/>
<path fill="#99A8AE" d="M8.525,28.392c2.812,2.642,7.025,5.164,15.801,3.644C18.729,34.736,10.168,33.615,8.525,28.392z"/>
<path fill="#302C3B" d="M22.355,23.591c0.445,2.744-2.326,4.127-5.004,2.369C17.402,23.313,20.646,22.13,22.355,23.591z"/>
<path fill="#FF8FA8" d="M10.45,31.197c-2.388-1.79-3.116-4.099-1.806-3.884C13.26,28.071,10.611,27.929,10.45,31.197z"/>
<path fill="#FFFFFF" d="M19.361,24.78c-0.082,0.811-1.35,0.699-1.266-0.11C18.178,23.862,19.443,23.974,19.361,24.78z"/>
<path fill="#BEC3CF" d="M25.19,22.287c-3.544-2.683,7.35-22.339,12.321-15.414C43.146,14.724,27.107,23.737,25.19,22.287z"/>
<path fill="#FDE0DA" d="M27.133,20.646C24.395,18.575,33.234,2.921,37.184,8.2C41.013,13.319,28.612,21.765,27.133,20.646z"/>
<path fill="#F6BEC1" d="M29.845,19.437c-1.88-1.422,1.701-9.252,5.409-12.306c-4.295-0.031-10.471,11.738-8.121,13.515
	c0.43,0.326,1.784-0.16,3.393-1.135C30.219,19.563,29.983,19.542,29.845,19.437z"/>
<path fill="#E6EBEF" d="M12.742,28.683c8.778-1.295,10.662,0.24,10.609,0.564C23.334,29.353,19.498,28.259,12.742,28.683z"/>
<path fill="#E6EBEF" d="M12.432,29.794c10.764-0.047,12.715,2.14,12.588,2.526C24.979,32.443,20.602,30.454,12.432,29.794z"/>
<path fill="#BEC3CF" d="M11.756,39.595c1.477-0.382,2.664,0.085,2.664,0.085c-2.078,0.78-2.867,3.434-2.867,3.434
	c1.532-0.898,2.557-0.543,2.557-0.543c-1.228,1.428-0.898,3.195-0.898,3.195c1.502-1.021,3.55-0.41,3.55-0.41l-0.237-8.909
	C13.203,37.467,11.756,39.595,11.756,39.595z"/>
<path fill="#E6EBEF" d="M50.188,50.821c1.007-0.432,0.513,2.587,0.513,2.587s1.953-1.385,2.436-0.951
	c0.488,0.438-0.744,2.493-0.744,2.493s2.395,0.078,2.627,0.708c0.215,0.583-1.441,2.037-1.441,2.037s2.291,0.183,2.416,0.797
	c0.135,0.665-2.076,1.791-2.076,1.791s1.777,0.76-0.43,1.427c-2.855,0.862-10.738-0.301-8.668-2.155
	C47.82,56.867,47.152,52.124,50.188,50.821z"/>
</svg>
