<?xml version="1.0" encoding="utf-8"?>
<!-- Generator: Adobe Illustrator 15.0.0, SVG Export Plug-In . SVG Version: 6.00 Build 0)  -->
<!DOCTYPE svg PUBLIC "-//W3C//DTD SVG 1.1//EN" "http://www.w3.org/Graphics/SVG/1.1/DTD/svg11.dtd">
<svg version="1.1" id="Layer_1" xmlns="http://www.w3.org/2000/svg" xmlns:xlink="http://www.w3.org/1999/xlink" x="0px" y="0px"
	 width="64px" height="64px" viewBox="0 0 64 64" enable-background="new 0 0 64 64" xml:space="preserve">
<path fill-rule="evenodd" clip-rule="evenodd" fill="#D47706" d="M18.725,37.886c-0.432,7.041,4.432,10.449,4.858,19.717
	c0.081,1.75,3.479,3.076,3.479,3.076c2.842-11.219,2.26-15.752,0.17-22.925C27.232,37.754,18.82,36.342,18.725,37.886z"/>
<path fill-rule="evenodd" clip-rule="evenodd" fill="#D47706" d="M45.457,45.252c-0.283-2.03-14.83-3.205-14.83-3.205
	c3.439,6.817,6.986,6.825,9.266,8.524c1.238,0.921,1.402,5.547,0.627,7.031C39.895,58.803,42.047,62,42.047,62
	C45.922,55.142,46.057,49.491,45.457,45.252z"/>
<path fill-rule="evenodd" clip-rule="evenodd" fill="#F5CFA0" d="M40.52,57.603c-0.99,1.25-4.484,1.105-4.484,4.397h7.32
	c0.65,0,0.771-1.931,0.604-2.651C43.627,57.944,42.158,58.989,40.52,57.603z"/>
<path fill-rule="evenodd" clip-rule="evenodd" fill="#F5CFA0" d="M23.583,57.603c-0.989,1.25-5.044,1.105-5.044,4.397h7.881
	c0.65,0,0.84-1.103,0.67-1.822C26.76,58.774,24.86,58.896,23.583,57.603z"/>
<path fill="#F59E01" d="M37.107,29.459c19.668,0.595,11.105,25.89,23.297,16.606c1.758-1.34,2.182,1.916,0.674,2.932
	c-12.652,8.516-9.965-10.7-19.232-13.362C39.451,34.947,37.107,29.459,37.107,29.459z"/>
<path fill="#302C3B" d="M49.365,36.408c-1.207,0.902-2.35,2.466-2.732,3.961c-0.189,0.743,0.941,0.756,1.092,0.173
	c0.303-1.186,1.16-2.481,2.107-3.269C49.641,36.846,49.365,36.408,49.365,36.408z"/>
<path fill="#302C3B" d="M49.211,44.452c0.59-1.133,1.41-2.154,2.408-2.82c-0.055-0.223-0.195-0.552-0.195-0.552
	c-1.031,0.562-1.93,1.412-2.646,2.433C48.955,43.964,49.211,44.452,49.211,44.452z"/>
<path fill="#302C3B" d="M51.338,48.493c0.725-0.841,1.15-1.939,1.822-2.785c-0.109-0.295-0.301-0.664-0.301-0.664
	c-0.84,0.736-1.35,1.766-1.98,2.725C51.094,48.181,51.338,48.493,51.338,48.493z"/>
<path fill="#302C3B" d="M55.881,48.104c-0.084,1.026,0.195,1.989,0.373,3.012c0,0,0.59-0.047,1.113-0.24
	c-0.191-0.972-0.457-1.945-0.352-2.908C56.41,48.104,55.881,48.104,55.881,48.104z"/>
<path fill="#F59E01" d="M14.549,41.575c-1.209-0.938-5.426-4.653-8.625-1.292c-1.127,1.184-1.926-1.235-3.468-1.957
	c-0.827-0.387,0.568-3.338,1.076-4.184c0.521-0.867-0.784-1.671,3.579-6.032c1.262-3.059,2.549-2.361,3.041-0.62
	c4.273-0.115,8.654,0.331,15.408,2.135c5.672,1.516,11.863-1.783,17.195,0.909c3.125,1.579,8.424,11.367,0.98,12.968
	C34.555,45.475,27.252,51.427,14.549,41.575z"/>
<path fill="#FFE8BB" d="M13.963,41.838c-1.041-1.119-5.025-4.234-8.225-0.873c-1.127,1.184-1.74-1.917-3.282-2.639
	c2.794,1.2,3.625-3.846,5.661-3.846c1.887,0,5.996,7.109,19.07,8.937c7.063,0.986,4.881-0.762,16.549,2.114
	C34.555,47.505,24.252,52.896,13.963,41.838z"/>
<path fill-rule="evenodd" clip-rule="evenodd" fill="#302C3B" d="M4.845,32.669c0,0,0.999-0.146,1.422,0.805
	c0,0-0.52,1.132-1.367,0.694C4.44,33.933,4.845,32.669,4.845,32.669z"/>
<path fill-rule="evenodd" clip-rule="evenodd" fill="#8A6859" d="M2.467,36.482c0,0-1.232,1.703,0.309,2.195
	C3.387,38.872,2.399,37.631,2.467,36.482z"/>
<path fill-rule="evenodd" clip-rule="evenodd" fill="#AB5C10" d="M8.852,28.421c0,0-0.82-0.55-1.213-0.212
	C7.836,26.683,8.631,26.306,8.852,28.421z"/>
<path fill-rule="evenodd" clip-rule="evenodd" fill="#F59E01" d="M15.104,38.483c-0.295,7.791,3.315,10.066,0.865,19.119
	c-0.452,1.674,3.351,3.768,3.351,3.768c4.266-8.906,3.749-14.789,4.56-19.206C23.879,42.164,15.182,36.406,15.104,38.483z"/>
<path fill-rule="evenodd" clip-rule="evenodd" fill="#F59E01" d="M46.83,36.148c-0.258-0.738-14.924,6.175-14.1,5.9
	c3.441,6.817,6.988,4.796,9.268,6.493c1.238,0.924,4.045,7.576,3.271,9.061c-0.625,1.201,3.451,3.291,3.451,3.291
	C49.148,57.271,51.729,50.185,46.83,36.148z"/>
<path fill="#302C3B" d="M11.797,27.476c-0.119,3.276,3.236,3.898,2.184,9.288c3.201-4.343-0.138-7.042-0.142-9.22
	C13.178,27.491,11.797,27.476,11.797,27.476z"/>
<path fill="#302C3B" d="M15.529,27.678c0.029,1.545,1.365,4.419,2.764,6.322c-0.285-1.473-0.916-3.875-0.782-6.082
	C16.901,27.815,15.529,27.678,15.529,27.678z"/>
<path fill="#302C3B" d="M22.604,28.886c-0.545-0.144-2.115-0.456-2.115-0.456c0.094,7.238-4.33,13.617-0.148,21.313
	C18.49,42.862,22.488,35.908,22.604,28.886z"/>
<path fill="#302C3B" d="M25.939,42.047c0.594-3.68-1.922-5.954-1.305-10.114C21.986,37.014,25.935,42.039,25.939,42.047z"/>
<path fill="#302C3B" d="M33.9,42.704c-0.848-5.255,1.338-5.94,0.457-11.882C38.141,38.079,33.906,42.693,33.9,42.704z"/>
<path fill="#302C3B" d="M29.231,30.042c-1.331-0.039-2.997-0.259-2.997-0.259c2.08,2.878,3.268,6.31,4.344,11.868
	C31.422,37.164,31.563,33.286,29.231,30.042z"/>
<path fill="#302C3B" d="M39.652,29.577c0,0-1.447-0.26-2.545-0.118c0.83,4.815,3.182,9.38,0.396,13.942
	C42.398,39.937,40.502,34.276,39.652,29.577z"/>
<path fill="#302C3B" d="M44.223,32.205c-0.537,8.659-2.906,7.597-3.027,15.192C42.686,41.839,46.348,40.333,44.223,32.205z"/>
<path fill="#302C3B" d="M43.877,50.63c3.438-0.078,3.053-4.012,4.9-6.178C45.039,45.876,46.002,49.542,43.877,50.63z"/>
<path fill="#302C3B" d="M45.725,54.646c2.73-0.203,2.652-3.013,3.512-4.703C47.322,51.011,47.377,53.208,45.725,54.646z"/>
<path fill="#302C3B" d="M47.012,33.281c-0.645-0.681-1.328-1.151-1.328-1.151c0.041,2.734,0.664,3.422,0.131,6.552
	C47.012,37.114,47.02,34.012,47.012,33.281z"/>
<path fill="#302C3B" d="M5.566,29.772c-0.709,0.748-1.178,1.602-1.178,1.602s1.801-0.963,3.738-0.15
	C7.439,29.864,5.566,29.772,5.566,29.772z"/>
<path fill="#302C3B" d="M5.605,36.657c2.178,1.396,5.652,0.226,5.285-3.155C10.049,34.88,9.346,36.942,5.605,36.657z"/>
<path fill="#302C3B" d="M5.396,34.824c1.812,1.16,4.699,0.188,4.395-2.623C9.092,33.347,8.507,35.062,5.396,34.824z"/>
<path fill="#302C3B" d="M4.229,40.149c-0.329-0.2-0.608-0.688-0.608-0.688s1.726-0.373,2.814-1.431
	C5.988,39.591,4.229,40.149,4.229,40.149z"/>
<path fill-rule="evenodd" clip-rule="evenodd" fill="#FFE8BB" d="M15.969,57.603c-0.988,1.249-5.482-0.104-5.482,4.397h8.318
	c0.65,0,0.942-1.211,0.773-1.931C19.247,58.665,17.502,58.396,15.969,57.603z"/>
<path fill-rule="evenodd" clip-rule="evenodd" fill="#F5CFA0" d="M12.564,59.168C11.945,59.675,11.51,60.517,11.51,62h0.789
	C12.299,62,11.877,61.032,12.564,59.168z"/>
<path fill-rule="evenodd" clip-rule="evenodd" fill="#FFE8BB" d="M45.27,57.603c-0.988,1.249-5.484-0.104-5.484,4.397h8.32
	c0.65,0,0.941-1.211,0.771-1.931C48.547,58.665,46.814,58.958,45.27,57.603z"/>
<path fill-rule="evenodd" clip-rule="evenodd" fill="#F5CFA0" d="M41.863,59.168c-0.617,0.507-1.053,1.349-1.053,2.832H41.6
	C41.6,62,41.178,61.032,41.863,59.168z"/>
<path fill="#FFFFFF" d="M5.145,33.004c-0.033,0.328-0.27,0.289-0.236-0.039C4.934,32.715,5.17,32.754,5.145,33.004z"/>
</svg>
