<?xml version="1.0" encoding="utf-8"?>
<!-- Generator: Adobe Illustrator 15.0.0, SVG Export Plug-In . SVG Version: 6.00 Build 0)  -->
<!DOCTYPE svg PUBLIC "-//W3C//DTD SVG 1.1//EN" "http://www.w3.org/Graphics/SVG/1.1/DTD/svg11.dtd">
<svg version="1.1" id="Layer_1" xmlns="http://www.w3.org/2000/svg" xmlns:xlink="http://www.w3.org/1999/xlink" x="0px" y="0px"
	 width="64px" height="64px" viewBox="0 0 64 64" enable-background="new 0 0 64 64" xml:space="preserve">
<path fill="#018BC9" d="M35.259,51.868c0.559,3.689-0.473,8.61-2.598,9.073c-2.125,0.461-4.539-3.716-5.1-7.404
	c-0.561-3.687,0.945-5.49,3.068-5.955C32.754,47.123,34.694,48.182,35.259,51.868z"/>
<path fill="#0FB4D4" d="M40.382,15.224c0,0,21.619,12.776-3.475,12.776c-9.352,0-20.735,0-30.695,0
	c-3.211,0-4.021,4.769-4.021,4.769c20.521,30.94,44.711,17.585,44.711,17.585c18.391-7.164,23.408-22.048-4.607-36.842
	L40.382,15.224z"/>
<path fill="#018BC9" d="M45.585,48.047l1.316,2.307c9.633-3.752,15.598-9.623,15.066-16.49
	C62.179,42.328,49.679,46.766,45.585,48.047z"/>
<path fill="#CFD8DD" d="M2.19,32.769c0,0-0.428,3.28,0,5.903c1.262,7.768,7.473,18.18,24.826,18.18
	c10.774,0,12.963-1.43,17.758-4.808c0.678-0.478,1.262-0.963,1.773-1.452c-15.122,3.982-26.549-7.322-26.549-16.355
	C19.999,32.688,8.151,32.171,2.19,32.769z"/>
<path fill="#FFFFFF" d="M45.036,51.637c-3.201,1.422-6.779,2.104-10.336,1.892c-3.555-0.203-7.067-1.271-10.151-3.071
	c-3.084-1.795-5.754-4.325-7.611-7.385c-1.861-3.049-2.857-6.65-2.729-10.254l1.867,0.096c-0.264,3.248,0.48,6.572,2.086,9.488
	c1.596,2.921,4.008,5.437,6.883,7.283c2.877,1.852,6.227,3.041,9.692,3.389C38.204,53.432,41.771,52.92,45.036,51.637z"/>
<path fill="#FFFFFF" d="M38.952,55.435c-3.551,0.315-7.165,0.231-10.69-0.47c-3.52-0.691-6.947-2.021-9.93-4.061
	c-2.982-2.027-5.486-4.771-7.166-7.968c-1.678-3.19-2.549-6.819-2.371-10.461l1.867,0.125c-0.311,3.293,0.33,6.687,1.767,9.739
	c1.436,3.056,3.68,5.762,6.457,7.83c2.771,2.078,6.047,3.523,9.479,4.35C31.803,55.36,35.39,55.6,38.952,55.435z"/>
<path fill="#FFFFFF" d="M28.643,56.839c-3.176-0.354-6.34-0.999-9.359-2.106c-3.014-1.1-5.885-2.697-8.285-4.865
	c-2.41-2.151-4.305-4.875-5.508-7.864c-1.221-2.978-1.775-6.233-1.789-9.406h1.871c-0.139,3.048,0.229,6.065,1.234,8.935
	c0.99,2.86,2.641,5.513,4.842,7.683c2.191,2.182,4.898,3.874,7.812,5.097C22.375,55.542,25.487,56.335,28.643,56.839z"/>
<g>
	<path fill="#302C3B" d="M31.854,32.45c0,1.264-1.037,2.293-2.318,2.293c-1.283,0-2.322-1.029-2.322-2.293
		c0-1.27,1.039-2.295,2.322-2.295C30.817,30.155,31.854,31.181,31.854,32.45z"/>
</g>
<g>
	<path fill="#FFFFFF" d="M29.163,31.825c0,0.361-0.297,0.656-0.662,0.656c-0.369,0-0.664-0.295-0.664-0.656s0.295-0.654,0.664-0.654
		C28.866,31.171,29.163,31.464,29.163,31.825z"/>
</g>
<path fill="#0FB4D4" d="M25.999,34.604c0.189-0.015,5.443,3.636,7.163-0.725C34.099,31.507,25.999,34.604,25.999,34.604z"/>
<path fill="#302C3B" d="M29.036,34.782c1.672,0.345,2.168-0.588,2.299,1.845C30.569,34.708,30.934,35.84,29.036,34.782z"/>
<path fill="#302C3B" d="M2.19,32.769c19.73-3.248,21.671,6.001,28.175,2.854C25.04,42.141,22.67,31.331,2.19,32.769z"/>
<path fill="#0FB4D4" d="M46.901,50.354c0.715,4.718-0.604,11.01-3.32,11.602c-2.721,0.589-5.807-4.75-6.521-9.469
	c-0.719-4.714,1.207-7.022,3.924-7.613C43.702,44.285,46.183,45.639,46.901,50.354z"/>
<path fill="#0FB4D4" d="M39.462,2.913c3.051,2.604-2.865,7.104,0.346,10.581c-4.545-1.445-6.209,5.763-9.875,4.108
	c-4.238-1.912,7.667,12.86,12.229-2.593C54.515,4.435,35.933-0.097,39.462,2.913z"/>
<path fill="#75D6FF" d="M13.617,28.401c-8.094,0-8.436-0.219-9.438,1.083c-0.982,1.277-0.366,2.103,0.328,0.688
	C5.351,28.453,7.223,28.965,13.617,28.401z"/>
<path fill="#018BC9" d="M40.981,2.755c-1.894-0.417,7.354,2.958,2.158,10.756C48.669,7.693,44.856,3.609,40.981,2.755z"/>
<path fill="#75D6FF" d="M37.533,47.893c1.817-2.658,0.271,6.881,3.915,12.654C37.272,55.959,37.042,48.611,37.533,47.893z"/>
<path fill="#75D6FF" d="M48.8,21.986c0.816,1.748,2.066,4.467-3.215,5.904C55.585,26.922,47.503,19.209,48.8,21.986z"/>
</svg>
