<?xml version="1.0" encoding="utf-8"?>
<!-- Generator: Adobe Illustrator 15.0.0, SVG Export Plug-In . SVG Version: 6.00 Build 0)  -->
<!DOCTYPE svg PUBLIC "-//W3C//DTD SVG 1.1//EN" "http://www.w3.org/Graphics/SVG/1.1/DTD/svg11.dtd">
<svg version="1.1" id="Layer_1" xmlns="http://www.w3.org/2000/svg" xmlns:xlink="http://www.w3.org/1999/xlink" x="0px" y="0px"
	 width="64px" height="64px" viewBox="0 0 64 64" enable-background="new 0 0 64 64" xml:space="preserve">
<path fill="#EBBB96" d="M13.018,18.468c-8.133,2.546-7.451-7.613-7.773-7.083c-0.32,0.522-2.246,13.021,9.027,9.171
	C15.614,20.096,14.287,18.07,13.018,18.468z"/>
<path fill="#F5CFA0" d="M13.756,19.299c-9.424,2.657-8.568-6.81-8.504-7.18c0.08-0.464-0.491,9.092,7.872,6.6
	C13.704,18.546,14.435,19.107,13.756,19.299z"/>
<path fill="#9E6C49" d="M47.387,36.285c5.369,5.156,5.156,8.924,8.01,12.002c0.557,0.6-0.211,1.846,0.838,3.223
	c0.428,0.556,0.307,4.967-0.97,6.057c-0.365,0.321,1.315,1.089,1.718,0.832c2.662-1.711,0.746-5.268,1.584-7.488
	c0.297-0.801,1.742-2.434,1.277-3.123c-6.044-9.078,0.723-10.545,0.294-18.368C59.914,25.375,44.526,33.553,47.387,36.285z"/>
<path fill="#302C3B" d="M55.4,57.422c-1.931,0.531-2.559,2.611-2.559,2.611h2.707c0,0,1.718-0.4,1.883-1.979
	C55.682,58.266,55.4,57.422,55.4,57.422z"/>
<path fill="#9E6C49" d="M24.756,35.596c-0.047,4.836,2.921,7.524,2.158,12.691c-0.344,2.334,2.17,5.434-0.176,9.279
	c-0.27,0.455,1.741,1.089,2.274,0.832c3.524-1.711,0.177-5.277,1.456-7.443c1.163-1.979,0.309-12.035,1.98-16.959
	C33.73,30.23,24.795,31.553,24.756,35.596z"/>
<path fill="#302C3B" d="M26.92,57.422c-2.559,0.531-3.389,2.611-3.389,2.611h3.586c0,0,2.271-0.4,2.492-1.979
	C27.292,58.266,26.92,57.422,26.92,57.422z"/>
<path fill="#B47D56" d="M12.586,32.919c0.418,3.233,3.913,4.145,4.557,5.923c3.741,10.313,11.275,6.078,13.397,5.967
	c3.072-0.178,3.682,2.556,12.554,0.723c3.603-0.744,11.832-1.745,14.372-4.512c3.961-4.311,4.094-15.456,0.832-18.601
	c-4.292-4.144-10.489-0.652-18.48-0.943c-4.768-0.173-7.244-3.399-15.696-2.369c-2.237,0.273-4.997-2.061-9.836-0.429
	C12.073,19.425,12.281,30.52,12.586,32.919z"/>
<path fill="#9E6C49" d="M19.125,42.662c1.147-0.757,1.04-4.877,1.04-4.877s1.202,4.168,2.163,7.457
	C22.329,45.242,20.383,44.68,19.125,42.662z"/>
<path fill="#9E6C49" d="M42.719,38.164c0,0,3.002,4.403,3.16,5.936c-4.135,0.645-9.754,2.532-11.564,0.375
	c0,0,1.642-0.188,3.213-1.01c-7.968,1.266-9.587,0.345-11.215-4.79c0,0-0.583,4.445-0.425,7.057
	c2.152,0.433,3.815-0.989,6.569-0.189c7.005,2.057,17.643-1.326,17.643-1.326C49.748,43.824,45.213,38.619,42.719,38.164z"/>
<path fill="#9E6C49" d="M53.993,41.24c5.621-0.937,6.143-14.719,3.829-18.724c3.58,0,4.617,19.669-4.018,20.866
	C53.211,43.465,53.617,42.43,53.993,41.24z"/>
<path fill="#B47D56" d="M42.719,38.164c5.369,5.145,5.715,8.826,9.336,12.102c0.604,0.547-0.211,1.844,0.838,3.211
	c0.426,0.566,0.305,4.979-0.971,6.066c-0.365,0.322,1.314,1.09,1.717,0.834c2.662-1.711,1.201-4.994,2.039-7.227
	c0.297-0.789,1.842-3.006,1.377-3.706c-6.045-9.067,1.623-12.158,1.194-19.981C58.025,25.418,39.858,35.42,42.719,38.164z"/>
<path fill="#302C3B" d="M52.058,59.398C50.127,59.933,49.5,62,49.5,62h2.707c0,0,1.717-0.391,1.882-1.967
	C52.338,60.244,52.058,59.398,52.058,59.398z"/>
<path fill="#B47D56" d="M52.842,21.185c6.551,0,9.362,1.116,9.146,4.862c-0.191,3.287-1.822,9.401-1.257,13.133
	c0.04,0.274-1.288-0.146-1.339-0.42c-0.619-3.313,1.061-9.022,0.773-12.018C59.693,21.775,49.308,21.185,52.842,21.185z"/>
<path fill="#9E6C49" d="M59.393,38.349c-1.164,1.608-0.146,8.312,0.301,7.667c1.482-2.125,1.578-6.383,0.984-7.255
	C60.563,38.592,59.513,38.188,59.393,38.349z"/>
<path fill="#B47D56" d="M9.737,19.316c-3.428,6.354-6.682,9.507-6.585,10.089c0.143,0.824-0.391,1.746,0.979,2.388
	c-0.088,0.437,0.182,0.945,0.631,0.837c0.738-0.169,2.353,0.388,3.65-0.46c0.625-0.414,0.578,1.563,5.468-0.17
	c2.804-0.994,8.022-7.991,6.313-10.525C17.589,17.619,11.436,16.165,9.737,19.316z"/>
<path fill="#734E35" d="M8.624,31.09c0.224,2.098-2.618,2.049-4.061,1.637C3.257,32.34,3.98,30.399,8.624,31.09z"/>
<path fill="#9E6C49" d="M4.664,27.464c0.741-0.897,4.917,2.426,3.96,3.625c-0.711,0.898-3.049,1.115-4.492,0.703
	c-1.305-0.389-0.929-1.297-1.142-2.522C2.909,28.811,4.118,28.131,4.664,27.464z"/>
<path fill="#734E35" d="M3.836,29.356c-0.025,0.631-0.691,1.722,0.229,1.371C5.096,30.327,3.876,28.35,3.836,29.356z"/>
<path fill="#1A1626" d="M11.446,23.877c0,0.861-0.508,1.565-1.139,1.565c-0.628,0-1.137-0.704-1.137-1.565
	c0-0.874,0.509-1.576,1.137-1.576C10.938,22.301,11.446,23.003,11.446,23.877z"/>
<path id="Shape_9_" fill="#FFFFFF" d="M10.227,23.186c0,0.546-0.568,0.546-0.568,0C9.659,22.64,10.227,22.64,10.227,23.186
	L10.227,23.186z"/>
<path fill="#9E6C49" d="M17.8,27.634c-0.103-0.509-0.571,3.204-5.341,4.804c0.008,0.85,0.605,1.996,0.605,1.996
	C17.622,32.191,17.916,28.205,17.8,27.634z"/>
<path fill="#B47D56" d="M19.67,37.074c-0.045,4.822,3.416,8.023,2.654,13.191c-0.344,2.333,2.17,5.434-0.174,9.277
	c-0.271,0.445,1.74,1.09,2.271,0.834c3.525-1.711,0.18-5.278,1.457-7.445c1.165-1.977-1.123-7.97,1.981-16.957
	C29.163,32.203,19.709,33.018,19.67,37.074z"/>
<path fill="#302C3B" d="M22.331,59.398C19.773,59.933,18.942,62,18.942,62h3.584c0,0,2.273-0.391,2.492-1.967
	C22.702,60.244,22.331,59.398,22.331,59.398z"/>
<path fill="#F6C799" d="M11.479,18.083c1.258-0.591,3.018,1.787,1.693,2.458C2.059,26.185,1.807,10.695,2.047,10.027
	C2.29,9.35,3.419,21.87,11.479,18.083z"/>
<path fill="#FFE1BD" d="M12.404,19.042c-9.391,4.029-10.215-7.654-10.215-8.114c0-0.577,1.138,11.195,9.45,7.455
	C12.213,18.123,13.082,18.751,12.404,19.042z"/>
<path fill="#B47D56" d="M14.603,23.676c5.519,0.218,6.757-5.708,6.017-5.598c-1.158,0.177-4.293,0.362-6.923,1.916
	C13.414,20.174,13.915,23.645,14.603,23.676z"/>
<path fill="#9E6C49" d="M15.614,22.971c3.789,0.077,5.011-4.406,4.346-4.292C15.479,19.445,14.924,22.964,15.614,22.971z"/>
<path fill="#734E35" d="M15.614,22.97c0.134,0.007,0.26-0.012,0.39-0.019c0.608-1.366,1.733-2.893,3.598-4.191
	C15.458,19.65,14.944,22.964,15.614,22.97z"/>
</svg>
