<?xml version="1.0" encoding="utf-8"?>
<!-- Generator: Adobe Illustrator 15.0.0, SVG Export Plug-In . SVG Version: 6.00 Build 0)  -->
<!DOCTYPE svg PUBLIC "-//W3C//DTD SVG 1.1//EN" "http://www.w3.org/Graphics/SVG/1.1/DTD/svg11.dtd">
<svg version="1.1" id="Layer_1" xmlns="http://www.w3.org/2000/svg" xmlns:xlink="http://www.w3.org/1999/xlink" x="0px" y="0px"
	 width="64px" height="64px" viewBox="0 0 64 64" enable-background="new 0 0 64 64" xml:space="preserve">
<path fill="#CFD8DD" d="M11.013,18.595c-0.859,1.062-0.234,4.118,0.686,2.999c3.909-4.758,7.912-0.449,7.99-5.051
	c0.088-5.121-4.293-5.621-4.669-2.956c-0.063,0.46-0.003,0.726,0.159,0.187c0.574-1.902,3.644-0.982,3.494,2.02
	C18.5,19.312,14.044,14.854,11.013,18.595z"/>
<path fill="#E6EBEF" d="M11.169,18.735c-0.462,0.57-0.27,1.504,0.191,0.806c2.724-4.128,7.444,0.528,7.744-3.503
	c0.313-4.197-3.424-4.747-4.012-2.671c-0.063,0.224-0.008,0.366,0.104,0.046c0.688-1.996,4.016-0.992,3.633,2.521
	C18.453,19.395,14.199,14.994,11.169,18.735z"/>
<path fill="#4E5E67" d="M12.687,32.086c-0.346,1.123-1.789,1.609-1.789,1.609c-0.084-0.517-0.383-0.972-0.383-0.972
	c-0.715,0.822-2.337,1.109-2.337,1.109c0.515-0.738,0.585-1.454,0.585-1.454c-0.939,0.116-1.766-0.204-1.766-0.204
	C7.71,31.73,7.759,30.96,7.759,30.96L12.687,32.086z"/>
<path fill="#4E5E67" d="M16.646,35.817c-1.357,0.867-1.481,3.015-1.481,3.015c0.71-0.064,1.417,0.186,1.417,0.186
	c-0.83,1.268-0.629,3.592-0.629,3.592c0.789-0.964,1.707-1.311,1.707-1.311c0.182,1.329,0.898,2.35,0.898,2.35
	c0.332-1.132,1.329-1.467,1.329-1.467L16.646,35.817z"/>
<path fill="#302C3B" d="M34.082,45.035c0.207,1.619,2.58,2.665,2.58,2.665c0.334-0.679,1.023-1.218,1.023-1.218
	c0.966,1.311,3.727,2.134,3.727,2.134c-0.643-1.142-0.513-2.133-0.513-2.133c1.617,0.41,3.189,0.196,3.189,0.196
	c-1.099-0.795-0.907-1.854-0.907-1.854L34.082,45.035z"/>
<path fill="#302C3B" d="M47.459,35.905c5.342,5.233,7.162,14.261,8.205,15.659c0.426,0.564,0.904,4.831-0.365,5.936
	c-0.363,0.326,1.869,1.105,2.27,0.846c2.65-1.736,0.284-4.913,1.118-7.17c0.296-0.811,1.046-3.071,0.583-3.77
	c-6.016-9.213,1.305-10.53,0.879-18.47C59.926,24.833,44.611,33.132,47.459,35.905z"/>
<path fill="#302C3B" d="M55.434,57.354c-1.922,0.541-2.547,2.65-2.547,2.65h3.256c0,0,1.709-0.406,1.873-2.007
	C56.275,58.211,55.434,57.354,55.434,57.354z"/>
<path fill="#302C3B" d="M25.134,35.207c-0.044,4.904,2.409,7.633,1.695,12.877c-0.322,2.367,1.689,5.751,0.158,9.416
	c-0.203,0.487,1.629,1.105,2.127,0.846c3.297-1.736,0.165-5.356,1.361-7.555c1.088-2.008,0.289-12.213,1.853-17.208
	C33.527,29.76,25.169,31.103,25.134,35.207z"/>
<path fill="#302C3B" d="M27.158,57.354c-2.392,0.541-3.17,2.65-3.17,2.65h3.354c0,0,2.125-0.406,2.331-2.007
	C27.505,58.211,27.158,57.354,27.158,57.354z"/>
<path fill="#4E5E67" d="M12.826,32.489c0.416,3.281,3.893,4.206,4.535,6.009c3.723,10.466,11.221,6.169,13.332,6.057
	c3.057-0.18,3.665,2.594,12.495,0.733c3.584-0.756,11.775-1.771,14.303-4.579c3.941-4.374,4.195-15.817,0.828-18.876
	c-7.273-6.605-11.213-1.252-22.389,0.055c-7.713,0.901-11.1-3.479-15.678-1.63c-2.088,0.856-5.779,0.819-7.426,2.433
	C11.13,24.347,12.521,30.055,12.826,32.489z"/>
<path fill="#302C3B" d="M19.833,42.998c1.143-0.768,1.217-5.876,1.217-5.876s0.514,4.534,1.469,7.872
	C22.519,44.994,21.176,44.684,19.833,42.998z"/>
<path fill="#302C3B" d="M44.035,37.813c0,0,2.125,4.402,2.283,5.957c-4.115,0.655-10.067,2.635-11.869,0.447
	c0,0,1.633-0.192,3.197-1.026c-7.932,1.285-9.542,0.35-11.163-4.86c0,0-0.58,4.511-0.422,7.16c2.141,0.439,3.797-1.003,6.537-0.191
	c6.973,2.086,17.559-1.347,17.559-1.347C49.809,43.555,46.518,38.273,44.035,37.813z"/>
<path fill="#302C3B" d="M56.604,33.807c1.209,2.542-1.267,6.701-0.719,6.245c3.912-3.26,4.35-14.104,2.399-17.153
	c3.337-0.284,5.03,17.904-4.438,20.208C53.264,43.248,53.771,36.603,56.604,33.807z"/>
<path fill="#4E5E67" d="M44.131,37.914c5.344,5.22,4.65,8.952,7.49,12.076c0.553,0.608-0.02,2.107,1.023,3.495
	c0.426,0.575,0.148,4.917-1.121,6.022c-0.363,0.327,1.756,1.104,2.156,0.846c2.65-1.736,0.744-5.346,1.578-7.613
	c0.295-0.799,1.443-4.037,0.971-4.741c-5-7.457,2.467-11.077,2.039-19.016C58.047,24.877,41.285,35.129,44.131,37.914z"/>
<path fill="#302C3B" d="M51.66,59.361C49.738,59.902,49.113,62,49.113,62h3.143c0,0,1.709-0.395,1.873-1.996
	C52.387,60.219,51.66,59.361,51.66,59.361z"/>
<path fill="#4E5E67" d="M52.887,20.581c6.52,0,9.318,1.247,9.102,5.438c-0.189,3.676-1.813,10.514-1.25,14.687
	c0.041,0.307-1.281-0.163-1.332-0.469c-0.617-3.704,1.055-10.09,0.77-13.441C59.705,21.241,49.369,20.581,52.887,20.581z"/>
<path fill="#4E5E67" d="M59.406,39.764c-1.158,1.335-0.145,6.896,0.299,6.36c1.477-1.762,1.572-5.295,0.98-6.019
	C60.57,39.965,59.525,39.629,59.406,39.764z"/>
<path fill="#4E5E67" d="M20.332,36.486c-0.037,4.893,2.514,8.387,1.875,13.631c-0.288,2.368,2.014,5.488,0.05,9.391
	c-0.228,0.451,1.751,1.104,2.197,0.846c2.952-1.736,0.149-5.356,1.221-7.557c0.976-2.006,0.259-12.212,1.659-17.206
	C28.408,31.757,20.365,32.37,20.332,36.486z"/>
<path fill="#302C3B" d="M22.407,59.361C20.264,59.902,19.568,62,19.568,62h3.297c0,0,1.904-0.395,2.088-1.996
	C23.011,60.219,22.407,59.361,22.407,59.361z"/>
<path fill="#4E5E67" d="M9.686,21.35c-3.688,2.217-0.886,1.779-6.028,6.061c-0.581,0.483-1.863,3.522-0.613,4.12
	c-0.079,0.406,0.166,0.881,0.576,0.779c0.674-0.158,2.145,0.36,3.328-0.43c0.57-0.383,2.527,1.455,6.987-0.158
	c2.557-0.924,7.317-7.43,5.757-9.788c-1.436-2.169-3.133-3.226-5.444-2.893C12.103,17.665,9.843,19.952,9.686,21.35z"/>
<path fill="#302C3B" d="M7.142,30.876c0.204,1.952-2.389,1.907-3.704,1.523C2.248,32.038,2.907,30.234,7.142,30.876z"/>
<path fill="#6E8189" d="M3.53,27.504c0.677-0.834,4.484,2.256,3.612,3.372c-0.648,0.836-2.781,1.039-4.098,0.654
	c-1.189-0.359-0.847-1.206-1.041-2.345C1.93,28.756,3.032,28.125,3.53,27.504z"/>
<path fill="#302C3B" d="M2.776,29.264c-0.023,0.586-0.631,1.602,0.21,1.274C3.924,30.167,2.812,28.329,2.776,29.264z"/>
<path fill="#1A1626" d="M11.473,24.769c0,0.8-0.464,1.454-1.038,1.454s-1.037-0.654-1.037-1.454c0-0.812,0.463-1.466,1.037-1.466
	S11.473,23.958,11.473,24.769z"/>
<path id="Shape_24_" fill="#FFFFFF" d="M10.361,24.125c0,0.508-0.519,0.508-0.519,0S10.361,23.618,10.361,24.125L10.361,24.125z"/>
<path fill="#302C3B" d="M17.511,27.663c-0.094-0.474-0.391,2.932-4.741,4.421c0.007,0.789,0.32,1.466,0.32,1.466
	C17.246,31.463,17.617,28.194,17.511,27.663z"/>
<path fill="#302C3B" d="M15.613,25.072c3.869,6.115,10.294,2.937,9.076,1.614c-0.896-0.966-3.445-3.409-6.478-4.86
	C17.873,21.68,15.198,24.403,15.613,25.072z"/>
<path fill="#4E5E67" d="M15.212,24.489c3.355,5.306,9.271,2.611,8.698,1.99c-0.896-0.968-3.069-3.783-6.101-5.235
	C17.472,21.097,14.796,23.821,15.212,24.489z"/>
<path fill="#302C3B" d="M16.449,25.069c2.366,3.599,7.022,1.828,6.496,1.279C19.406,22.653,16.011,24.42,16.449,25.069z"/>
<path fill="#1A1626" d="M16.447,25.069c0.081,0.131,0.179,0.236,0.267,0.355c1.572-0.32,3.613-0.26,5.932,0.643
	C19.215,22.765,16.022,24.438,16.447,25.069z"/>
<path fill="#4E5E67" d="M11.707,19.614c-0.174-1.164,0.914-2.248,0.914-2.248c0.297,0.426,0.763,0.702,0.763,0.702
	c0.286-1.06,1.619-2.044,1.619-2.044c-0.143,0.895,0.103,1.568,0.103,1.568c0.793-0.525,1.674-0.607,1.674-0.607
	c-0.449,0.719-0.16,1.432-0.16,1.432L11.707,19.614z"/>
<path fill="#302C3B" d="M17.079,29.331c0.697,0.941,0.245,2.417,0.245,2.417c-0.461-0.23-1-0.248-1-0.248
	c0.242,1.069-0.472,2.577-0.472,2.577c-0.292-0.854-0.823-1.33-0.823-1.33c-0.453,0.845-1.19,1.341-1.19,1.341
	c0.06-0.849-0.528-1.336-0.528-1.336L17.079,29.331z"/>
<path fill="#CFD8DD" d="M12.741,19.008c-2.028,1.137-2.386,5.621-0.224,4.428c9.193-5.076,14.209,2.463,16.552-3.89
	c2.608-7.07-4.901-9.473-6.841-5.923c-0.334,0.614-0.354,1.006,0.191,0.322c1.928-2.416,6.914,0.059,5.213,4.166
	C25.64,22.923,19.894,15,12.741,19.008z"/>
<path fill="#E6EBEF" d="M12.949,19.263c-1.088,0.61-1.194,1.981-0.045,1.192c6.795-4.665,12.912,3.638,15.375-1.84
	c2.563-5.699-3.781-7.92-5.816-5.27c-0.221,0.286-0.189,0.506,0.16,0.104c2.172-2.501,7.578,0.191,5.218,4.916
	C25.515,23.02,20.101,15.254,12.949,19.263z"/>
</svg>
