<?xml version="1.0" encoding="utf-8"?>
<!-- Generator: Adobe Illustrator 15.0.0, SVG Export Plug-In . SVG Version: 6.00 Build 0)  -->
<!DOCTYPE svg PUBLIC "-//W3C//DTD SVG 1.1//EN" "http://www.w3.org/Graphics/SVG/1.1/DTD/svg11.dtd">
<svg version="1.1" id="Layer_1" xmlns="http://www.w3.org/2000/svg" xmlns:xlink="http://www.w3.org/1999/xlink" x="0px" y="0px"
	 width="64px" height="64px" viewBox="0 0 64 64" enable-background="new 0 0 64 64" xml:space="preserve">
<path fill="#594640" d="M10.869,8.225c1.615-6.48,6.532-7.746,8.925-0.951c2.685,7.623-1.532,6.77-2.857,3.862
	c-0.968-2.126-2.492,0.198-2.718,1.944C13.971,15,10.42,10.023,10.869,8.225z"/>
<path fill="#45332C" d="M15.33,57.014h4.209c0.284-1.115,0.578-1.723,0.849-2.053l-4.02-2.864
	C15.798,53.563,15.33,55.182,15.33,57.014z"/>
<path fill="#9E6C49" d="M26.967,30.876c0-7.568-12.395-0.03-12.395-0.03s1.023,6.926,2.84,14.72c0.448,1.916-0.03,3.912-1.045,6.53
	l4.02,2.864c0.575-0.701,1.031-0.127,0.984-0.484c-1.161-8.83,2.765-5.387,1.391-9.975C20.652,37.457,26.967,40.249,26.967,30.876z"
	/>
<path fill="#45332C" d="M45.954,57.014h4.209c0.283-1.115,0.577-1.724,0.85-2.052L46.991,52.1
	C46.424,53.563,45.954,55.184,45.954,57.014z"/>
<path fill="#9E6C49" d="M51.792,29.765c2.077-7.224-13.579,0.56-13.579,0.56s1.43,10.627,9.341,15.245
	c1.598,0.933,0.451,3.911-0.563,6.53l4.021,2.862c0.575-0.7,1.03-0.127,0.982-0.484c-1.16-8.832,2.35-4.485,0.975-9.073
	C50.859,38.359,49.547,37.573,51.792,29.765z"/>
<path fill="#9E6C49" d="M61.942,27.874c-0.514-1.542-4.667-5.936-7.163-5.77C54.208,29.085,62.777,30.4,61.942,27.874z"/>
<path fill="#B47D56" d="M45.184,19.081c-14.936,2.053-13.553-2.583-21.326-1.332c-2.002,0.322-3.653-1.252-3.814-4.314l-6.813,5.179
	c2.204,6.231-6.149,11.739,6.458,22.136c3.099,2.555,26.654,0.65,36.495-4.841C63.175,32.007,56.948,17.463,45.184,19.081z"/>
<path fill="#45332C" d="M21.91,62h4.209c0.284-1.114,0.578-1.724,0.849-2.053l-4.021-2.863C22.38,58.549,21.91,60.169,21.91,62z"/>
<path fill="#B47D56" d="M32.319,34.75c0-7.57-12.44,0.582-12.44,0.582s2.162,7.342,3.979,15.14c0.447,1.915,0.104,3.995-0.911,6.612
	l4.021,2.863c0.578-0.7,1.033-0.126,0.984-0.484c-1.16-8.831,2.348-4.485,0.975-9.072C26.816,43.346,32.319,44.12,32.319,34.75z"/>
<path fill="#45332C" d="M52.899,62h4.209c0.284-1.114,0.577-1.724,0.849-2.053l-4.021-2.863C53.37,58.549,52.899,60.169,52.899,62z"
	/>
<path fill="#B47D56" d="M57.957,34.34c3.092-7.624-15.218,0.992-15.218,0.992s4.101,10.611,12.012,15.23
	c1.598,0.932,0.2,3.904-0.814,6.521l4.021,2.863c0.577-0.7,1.032-0.126,0.984-0.484c-1.16-8.831,2.349-4.485,0.975-9.072
	C57.805,43.346,54.896,41.891,57.957,34.34z"/>
<path fill="#FED0AC" d="M56.664,40.75c-0.147-1.702,0.174-3.648,1.293-6.408c3.074-4.2-0.236-12.418-7.102-14.754
	c-3.207-0.036-2.571,7.944,0.157,9.474C61.392,34.882,52.7,37.68,56.664,40.75z"/>
<path fill="#B47D56" d="M39.788,43.221c-1.163-1.623-0.468-3.838-0.468-3.838l-10.131,0.256c1.16,3.592,3.581,5.156,3.581,5.156
	c-0.436-1.598,0.096-2.881,0.096-2.881c0.887,2.248,3.906,3.1,3.906,3.1c-1.022-1.656-0.619-2.764-0.619-2.764
	C37.776,43.577,39.788,43.221,39.788,43.221z"/>
<path fill="#B47D56" d="M7.378,12.12c1.385-1.166,2.938-4.817,5.943-5.091c9.892-0.903,11.029,13.772-0.935,14.161
	c-7.269,0.235-7.389,2.818-8.335,0.003c-1.792,0.337-0.726-0.94-1.716-2.513C1.68,17.636,1.385,17.164,7.378,12.12z"/>
<path fill="#FED0AC" d="M6.571,22.106c-1.681,0.522-1.952,0.769-2.519-0.915c-1.792,0.337-0.726-0.94-1.716-2.513
	c-0.446-0.713-0.729-1.159,1.045-2.973C4.205,14.862,10.885,19.992,6.571,22.106z"/>
<path fill-rule="evenodd" clip-rule="evenodd" fill="#302C3B" d="M4.232,18.375c0,0-0.936,1.024-1.247,0.461
	C2.55,18.054,4.173,17.937,4.232,18.375z"/>
<path fill="#302C3B" d="M4.254,21.699c-0.14-0.283-0.202-0.507-0.202-0.507s1.892-0.271,3.984-1.2
	C6.672,21.189,4.254,21.699,4.254,21.699z"/>
<path fill-rule="evenodd" clip-rule="evenodd" fill="#302C3B" d="M10.484,11.673c0,0,1.683-0.207,2.396,1.14
	c0,0-0.876,1.604-2.308,0.985C9.8,13.462,10.484,11.673,10.484,11.673z"/>
<path fill="#FFFFFF" d="M10.936,12.227c-0.053,0.525-0.447,0.462-0.391-0.063C10.585,11.762,10.977,11.826,10.936,12.227z"/>
<path fill="#967668" d="M12.644,7.488c3.061-6.48,12.38-7.746,16.916-0.951c5.088,7.622-4.164,17.227-9.621,12.189
	c5.297-0.025,6.717-5.419,4.207-8.327c-1.838-2.126-4.729,0.197-5.154,1.943C18.524,14.263,11.793,9.286,12.644,7.488z"/>
<path fill="#594640" d="M13.953,10.12c3.133-6.632,16.198-6.544,16.864,2.818c0.218,3.071-5.835,10.212-10.878,5.788
	c6.844,0.842,8.059-5.343,4.542-8.333c-2.158-1.834-4.883,0.151-5.309,1.897C18.704,14.212,14.92,11.435,13.953,10.12z"/>
<path fill="#594640" d="M13.755,6.458c0.245,1.958,2.128,3.551,2.95,3.667C15.868,7.619,14.888,6.823,13.755,6.458z"/>
<path fill="#594640" d="M15.837,4.458c0.243,1.958,2.127,3.551,2.949,3.667C17.947,5.619,16.97,4.822,15.837,4.458z"/>
<path fill="#594640" d="M18.815,2.898c-0.108,1.969,1.464,3.843,2.252,4.09C20.689,4.384,19.867,3.441,18.815,2.898z"/>
<path fill="#594640" d="M22.533,2.476c-0.746,1.84,0.136,4.086,0.805,4.553C23.828,4.441,23.357,3.302,22.533,2.476z"/>
<path fill="#594640" d="M25.723,3.524c-1.203,1.606-0.933,3.99-0.408,4.6C26.467,5.733,26.305,4.519,25.723,3.524z"/>
<path fill="#594640" d="M28.167,5.281c-1.46,1.4-1.596,3.795-1.181,4.478C28.528,7.576,28.573,6.352,28.167,5.281z"/>
<path fill="#594640" d="M29.767,7.65c-1.457,1.401-1.595,3.796-1.18,4.479C30.129,9.945,30.174,8.722,29.767,7.65z"/>
<path fill="#B47D56" d="M16.457,14.585c5.558,0.012,6.512-5.327,5.753-5.385c-1.143-0.086-4.32,0.481-7.535,2.461
	C14.391,11.837,15.76,14.584,16.457,14.585z"/>
<path fill="#785647" d="M17.083,13.999c3.817-0.063,5.121-4.345,4.45-4.212C17.007,10.676,16.388,14.009,17.083,13.999z"/>
<path fill="#45332C" d="M17.083,13.999c0.136-0.002,0.262-0.021,0.394-0.034c0.635-1.311,1.797-2.798,3.696-4.092
	C16.981,10.868,16.408,14.009,17.083,13.999z"/>
</svg>
