<?xml version="1.0" encoding="utf-8"?>
<!-- Generator: Adobe Illustrator 15.0.0, SVG Export Plug-In . SVG Version: 6.00 Build 0)  -->
<!DOCTYPE svg PUBLIC "-//W3C//DTD SVG 1.1//EN" "http://www.w3.org/Graphics/SVG/1.1/DTD/svg11.dtd">
<svg version="1.1" id="Layer_1" xmlns="http://www.w3.org/2000/svg" xmlns:xlink="http://www.w3.org/1999/xlink" x="0px" y="0px"
	 width="64px" height="64px" viewBox="0 0 64 64" enable-background="new 0 0 64 64" xml:space="preserve">
<path fill="#E81C27" d="M16.855,14.208c-1.801,0.77-2.809,2.424-4.633,0.824C10.412,13.446,9.768,13.684,9,13.917
	c0,0,1.064-0.234,2.336,1.014c1.174,1.15,1.729,2.305,4.258,1.348c1.852-0.701,3.688-0.975,4.58-0.732
	C21.07,15.786,21.074,12.223,16.855,14.208z"/>
<polygon fill="#F5F5F5" points="4.932,15.604 5.59,14.313 10.055,12.981 3.814,12.981 "/>
<polygon fill="#F5F5F5" points="11.172,17.254 6.449,15.848 6.049,15.063 4.932,17.254 "/>
<path fill="#297124" d="M35.104,56.145c-3.051-0.256-4.121,1.104-5.664,0.9c0,0,0.893,0.586,2.1,0.691c0,0-2.279,1.236-6.1,0.553
	c0,0,2.643,2.48,5.824,1.766c0,0-0.316,0.777-1.176,1.387c0,0,1.912,0.559,3.627-0.705c0,0,0.232,0.471-0.916,1.264
	C40.166,61.52,38.338,56.416,35.104,56.145z"/>
<path fill="#297124" d="M62,20.069c-1.648-4.158-4.814-6.221-4.814-6.221c1.168-0.584,2.875-0.188,2.875-0.188
	c-2.375-3.313-7.83-4.202-7.83-4.202c0.693-0.555,2.998-0.883,2.998-0.883c-3.5-2.229-8.471-1.416-8.471-1.416
	c0.283-1.063,1.533-1.75,1.533-1.75c-4.891-1.396-9.709,0.582-9.709,0.582c0.125-1.082,1.563-2.041,1.563-2.041
	c-2.156-0.586-8.379,1.063-8.379,1.063c0.588-1.375-0.615-2.707-0.615-2.707c-2.25,1.584-6.506,1.447-6.506,1.447
	C24.932,2.947,25.871,2,25.871,2c-10.371,0-9.09,5.756-9.088,5.758c0,0,33.195-2.391,33.195,13.729
	c0,16.874-37.832-3.055-37.832,15.241c0,20.081,40.373-3.215,40.373,12.078c0,8.546-12.766,9.896-12.766,9.896
	c-1.844,0.547-1.078,1.859-1.078,1.859c1.406-1.309,5.777-1.311,5.777-1.311c-0.148,0.461-1.023,1.379-1.023,1.379
	c4.434-0.396,6.271-1.832,6.271-1.832c0.162,0.639-0.854,1.529-0.854,1.529c4.355-0.264,5.563-3.313,5.563-3.313
	c0.859,0.404,0.719,1.172,0.719,1.172c3.547-1.75,3.746-5.296,3.746-5.296c0.811,0.209,1.77,0.896,1.77,0.896
	c1.021-4.251-1.145-6.708-1.145-6.708c0.291,0.299,1.738,0.373,1.738,0.373c-0.055-3.547-2.844-4.938-2.844-4.938
	c0.875-1.008,2.719-0.094,2.719-0.094c-1.844-4.625-6.781-4.156-6.781-4.156c0.563-0.781,2.781-1.438,2.781-1.438
	c-2.344-1.572-8.078-0.781-8.078-0.781c4.875-1.203,6.227-4.596,6.227-4.596c0.234,0.637,0.086,2.736,0.086,2.736
	c3.609-2.938,2.797-6.684,2.797-6.684c1.188,0.357,1.766,1.967,1.766,1.967c2.625-5.094-0.254-8.366-0.254-8.366
	C61.072,21.102,62,20.069,62,20.069z M30.158,38.843c-0.492-1.475-3.373-1.408-3.373-1.408c0.006,2.078-4.719,3.625-4.719,3.625
	c-0.016-2.188-1.859-2.922-1.859-2.922c-2.359,3.859-3.521,1.533-3.521,1.533c1.537-1.221,0.709-3.096,0.709-3.096
	c-4.623,0.891-1.313-2.594-1.313-2.594c0.484,2.203,3.203,1.219,3.203,1.219c-0.813-3.266,3.734-2.844,3.734-2.844
	c-0.969,1.656,0.766,2.703,0.766,2.703c1.813-1.547,6.617-1.363,6.617-1.363c-1.398,0.691-2.227,2.754-2.227,2.754
	c3.906,0.078,6.178-0.625,6.178-0.625C32.645,38.284,30.158,38.843,30.158,38.843z"/>
<path fill="#92C932" d="M32,39.948c-15.117,5.629-18.75,1.723-18.75-3.68c0-8.576,13.188-4.73,18.75-3.676
	c7.834,1.48,26.25,3.217,26.25-11.032c0-18.385-35.625-14.709-35.625-14.709v11.034c6.914-1.264,26.25-3.453,26.25,3.676
	c0,5.594-6.328,6.897-16.875,3.678C21.453,22.02,5.75,18.799,5.75,36.269C5.75,53.743,19.93,51.554,32,47.3
	c12.07-4.25,19.688-1.84,19.688,1.84c0,4.765-9.199,7.583-15.021,8.989c0,0-1.385-1.461-3.348-0.57c0,0,0.381,0.229,0.557,0.488
	c0,0-1.854,1.004-3.318,1.004c0,0,1.178,1.379,3.992,0.613c0,0,0.098,0.762-0.164,1.277c-0.002,0,1.75-0.109,2.234-1.5
	c16.203-0.41,21.631-3.588,21.631-11.222C58.25,39.718,47.117,34.315,32,39.948z"/>
<path fill="#7AB51D" d="M32,32.593c7.885,1.783,26.489,3.261,26.489-10.988c0-3.113-1.063-5.625-2.957-7.61
	C60.297,22.126,54.489,35.929,32,32.593z"/>
<path fill="#7AB51D" d="M56.897,43.468c4.175,12.889-12.096,15.588-20.116,15.055c-3.354,1.521-5.778,0.781-6.225,0.528
	c0,0,1.178,1.379,3.992,0.613c0,0,0.098,0.762-0.164,1.277c-0.002,0,1.75-0.109,2.234-1.5c16.203-0.41,21.631-3.588,21.631-11.222
	C58.25,46.48,57.772,44.877,56.897,43.468z"/>
<path fill="#F9C802" d="M31.685,46.147c-19.538,6.292-23.633-0.75-23.633-10.042c0-14.375,13.563-12.75,23.776-9.989
	c8.699,2.352,19.521,3.76,19.521-4.299c0-13.463-28.725-6.213-28.725-6.213l0.072,2.901c6.914-1.264,25.959-3.988,25.959,3.141
	c0,5.594-6.109,6.511-16.656,3.292C21.453,21.719,5.406,18.761,5.406,36.23C5.406,53.706,19.93,52.235,32,47.981
	c12.07-4.25,19.406-2.348,19.406,1.332c0,3.834-8.417,7.146-14.74,8.815c7.386-0.856,17.032-4.919,17.032-9.378
	C53.698,44.294,47.04,41.202,31.685,46.147z"/>
<path fill="#297124" d="M24.207,4.932c5.459,0,7.764,3.359,11.125,2.52c0,0-0.916,2.73-4.25,2.25c0,0,2.168,2.481,6.25,1.813
	c0,0-2.02,4.063-6.188,1.959c0,0-0.082,2.416,2.625,4.209c0,0-2.875,1.479-5.166-0.084c0,0-0.809,0.809,0.188,2.416
	c0,0-2.416-0.332-3.291-1.938L24.207,4.932z"/>
<path fill="#92C932" d="M20.75,4.096c-5.047,0-7.969,2.721-7.969,4.596c0,0.24,0.049,0.469,0.119,0.688
	c-0.121,0.305-2.107-0.688-3.4-0.688c-0.801,0-1.539,0.248-2.148,0.67C6.9,8.424,5.938,7.771,4.813,7.771
	C3.26,7.771,2,9.006,2,10.529c0,1.524,1.26,2.758,2.813,2.758h13.125c1.037,0,1.875,0.822,1.875,1.84
	c0,1.016-0.838,1.838-1.875,1.838H3.875C2.844,16.965,2,17.793,2,18.803c0,1.012,0.844,1.84,1.875,1.84H20.75
	c4.658,0,8.438-3.705,8.438-8.275C29.188,7.799,25.408,4.096,20.75,4.096z"/>
<path fill="#7AB51D" d="M15.021,20.643h5.875c4.658,0,8.438-3.705,8.438-8.275c0-1.83-0.636-3.52-1.874-5.016
	C29.865,14.292,24.697,20.643,15.021,20.643z"/>
<path fill="#FFFFFF" d="M17.703,8.848c0,2.667-4,2.667-4,0C13.703,6.181,17.703,6.181,17.703,8.848z"/>
<path fill="#302C3B" d="M16.703,8.848c0,1.334-2,1.334-2,0C14.703,7.514,16.703,7.514,16.703,8.848z"/>
<path fill="#FFFFFF" d="M15.453,8.488c0,0.334-0.5,0.334-0.5,0C14.953,8.155,15.453,8.155,15.453,8.488z"/>
<path fill="#297124" d="M13.119,8.566c1.391,0.646,2.797-2.172,8.172-2.014c0,0-2.203-1.58-5.063-0.736c0,0-0.375-0.969,1.109-1.721
	c0,0-2.734-0.326-3.359,2.018c0,0-0.813-0.219-0.969-1.182C13.01,4.932,11.104,7.629,13.119,8.566z"/>
<path fill="#297124" d="M7.35,10.609c0.666-0.555,2.502-1.131,4.723,0.077c4.67,2.537,5.969-1.651,9.031,0.1
	c-2.813-0.547-3.688,3.188-8.281,1.688c-1.877-0.613-2.904-1.688-4.273-0.813C7.51,12.325,6.684,11.167,7.35,10.609z"/>
<path fill="#302C3B" d="M4.061,10.402C3.52,10.141,4.646,8.49,5.186,8.754C6.592,9.438,5.461,11.09,4.061,10.402z"/>
</svg>
