<?xml version="1.0" encoding="utf-8"?>
<!-- Generator: Adobe Illustrator 15.0.0, SVG Export Plug-In . SVG Version: 6.00 Build 0)  -->
<!DOCTYPE svg PUBLIC "-//W3C//DTD SVG 1.1//EN" "http://www.w3.org/Graphics/SVG/1.1/DTD/svg11.dtd">
<svg version="1.1" id="Layer_1" xmlns="http://www.w3.org/2000/svg" xmlns:xlink="http://www.w3.org/1999/xlink" x="0px" y="0px"
	 width="64px" height="64px" viewBox="0 0 64 64" enable-background="new 0 0 64 64" xml:space="preserve">
<path fill="#529320" d="M21.562,2c0,0-12.398,8.234-2.307,15.33c7.365,5.179,26.031-0.5,27.23,6.525
	c0.893,5.236-14.807,12.217-23.734,15.785c-3.438,1.373,0.439,11.042,4.092,11.609c16.592,2.58,38.391-10.32,33.182-27.85
	c-4.537-15.271-25.221-7.057-36.603-10.547C13.893,9.929,21.562,2,21.562,2z"/>
<path fill="#7AB51D" d="M57.656,18.758C68.134,35.612,42.002,50.286,25.8,47.768c-0.897-0.141-1.291,3.14,1.043,3.481
	C46.606,54.133,70.813,36.225,57.656,18.758z"/>
<path opacity="0.3" fill="#1A1626" d="M49.974,46.114c-11.92,7.216-11.591,0.432-10.62-1.244
	C44.104,46.786,49.974,46.114,49.974,46.114z"/>
<path fill="#7AB51D" d="M46.371,25.184c2.696-10.985-19.417-4.47-26.783-9.648c-4.407-3.098-3.444-6.897-2.179-9.649
	c-2.372,3.046-4.065,7.628,1.646,11.646C26.421,22.711,47.178,16.622,46.371,25.184z"/>
<path fill="#529320" d="M39.635,44.954c7.582,3.16,10.106,6.502,9.313,9.889c-0.617,2.644-11.871,1.481-11.84,6.906
	c0.004,0.745-1.274-0.238-0.844-2.001c0.169-0.685-1.481,0.305-2.186,1.636c-0.452,0.859-0.644-0.791,0.154-2.245
	c0.223-0.401-0.91,0.42-1.422,1.126c-0.733,1.014-0.984-0.61,0.499-1.92c0.743-0.656-1.83,0.773-1.483,0.199
	c1.553-2.564,5.92-2.773,8.177-4.719c-3.876,0.21-3.781-2.626-7.711-2.026C28.497,52.38,36.688,43.728,39.635,44.954z"/>
<path opacity="0.3" fill="#1A1626" d="M43.355,51.769c-2.121,0.766-3.352,2.057-3.352,2.057s-1.903,0.158-3.278-0.809
	C36.726,53.017,39.985,52.347,43.355,51.769z"/>
<path opacity="0.3" fill="#1A1626" d="M61.202,31.425c-1.328,7.246-3.063,1.977-3.672-0.181
	C59.655,30.915,61.202,31.425,61.202,31.425z"/>
<path fill="#529320" d="M61.997,37.144c-0.061-1.805-2.945-5.733-4.448-5.985c-2.091-0.352-6.214,4.922-1.519,7.749
	c3.219,1.938-2.094,4.158-2.266,7.77c-0.035,0.736,1.417-1.281,1.406-0.188c-0.02,1.959,0.897,3.693,0.891,2.314
	c-0.011-0.963,0.841-2.52,0.906-2.018c0.237,1.811,1.471,3.178,1.315,2.12c-0.243-1.638,0.405-3.579,0.702-2.865
	c0.757,1.834,1.688,2.579,1.567,1.771C59.741,42.275,62.095,40.12,61.997,37.144z"/>
<path fill="#529320" d="M33.592,48.576c5.648-4.951-6.729-14.562-11.143-9.827c-1.375,1.475-2.846-1.132-4.932,1.252
	c-2.101,2.4-7.761,5.48-12.005,4.305c-4.479-1.241-3.764,3.684-2.763,3.586C5.721,52.519,33.592,48.576,33.592,48.576z"/>
<path fill="#7AB51D" d="M2.75,47.892c-0.75,1.525,0,6.814,13.258,5.1c8.535-1.103,14.548,2.484,17.384-3.328
	c1.458-2.991,2.507-5.965-5.861-4.827c-5.938,0.282-11.246,4.647-13.965,3.659C7.427,46.266,8.946,49.601,2.75,47.892z"/>
<path fill="#297124" d="M6.414,45.854c0,1.029-2.052,1.029-2.052,0C4.362,44.823,6.414,44.823,6.414,45.854z"/>
<path fill="#302C3B" d="M25.983,40.351c0.562,1.57-2.614,2.823-4.311,1.463C22.212,39.794,25.42,38.781,25.983,40.351z"/>
<path fill="#FFFFFF" d="M23.699,40.708c0.158,0.447-0.727,0.765-0.886,0.319C22.652,40.581,23.54,40.263,23.699,40.708z"/>
<path fill="#7AB51D" d="M34.304,42.42c3.463-3.712,3.405-3.896,7.825,0C43.072,43.255,33.419,43.367,34.304,42.42z"/>
<path fill="#7AB51D" d="M42.377,38.237c3.465-3.711,3.407-3.895,7.827,0C51.146,39.073,41.492,39.186,42.377,38.237z"/>
<path fill="#7AB51D" d="M49.086,32.94c3.16-3.386,3.107-3.554,7.143,0C57.089,33.703,48.278,33.807,49.086,32.94z"/>
<path fill="#7AB51D" d="M52.961,26.78c2.449-2.624,2.407-2.752,5.532,0C59.159,27.371,52.336,27.449,52.961,26.78z"/>
<path fill="#7AB51D" d="M51.987,21.244c2.437-2.611,2.397-2.74,5.507,0C58.159,21.832,51.365,21.91,51.987,21.244z"/>
<path fill="#7AB51D" d="M29.631,37.278c2.887-3.094,2.839-3.246,6.523,0C36.94,37.975,28.895,38.068,29.631,37.278z"/>
<path fill="#7AB51D" d="M36.739,33.653c2.887-3.094,2.839-3.247,6.524,0C44.05,34.351,36.002,34.444,36.739,33.653z"/>
<path fill="#7AB51D" d="M42.995,29.713c2.555-3.465,2.514-3.636,5.775,0C49.466,30.492,42.342,30.598,42.995,29.713z"/>
<path fill="#7AB51D" d="M47.1,24.282c1.969-2.672,1.938-2.804,4.452,0C52.089,24.883,46.595,24.963,47.1,24.282z"/>
<path fill="#7AB51D" d="M46.326,19.137c1.9-2.577,1.87-2.705,4.297,0C51.14,19.715,45.842,19.793,46.326,19.137z"/>
<path fill="#7AB51D" d="M50.796,16.372c1.566-2.123,1.54-2.227,3.538,0C54.762,16.851,50.396,16.914,50.796,16.372z"/>
<path fill="#7AB51D" d="M41.181,16.563c1.565-2.124,1.54-2.228,3.539,0C45.146,17.04,40.781,17.103,41.181,16.563z"/>
<path fill="#7AB51D" d="M45.333,14.984c1.566-2.125,1.541-2.228,3.539,0C49.299,15.46,44.935,15.524,45.333,14.984z"/>
<path fill="#7AB51D" d="M35.743,15.365c1.566-2.123,1.541-2.228,3.538,0C39.709,15.842,35.343,15.907,35.743,15.365z"/>
<path fill="#7AB51D" d="M29.68,15.153c1.566-2.124,1.541-2.228,3.538,0C33.646,15.63,29.278,15.695,29.68,15.153z"/>
<path fill="#7AB51D" d="M23.963,14.548c1.565-2.124,1.539-2.228,3.538,0C27.929,15.025,23.562,15.089,23.963,14.548z"/>
<path fill="#7AB51D" d="M18.936,13.044c1.565-2.123,1.539-2.227,3.538,0C22.9,13.521,18.534,13.586,18.936,13.044z"/>
<path fill="#7AB51D" d="M16.79,10.133c0.93-1.455,0.915-1.526,2.102,0C19.144,10.46,16.552,10.504,16.79,10.133z"/>
<path fill="#7AB51D" d="M17.144,7.021c0.617-0.964,0.605-1.012,1.395,0C18.703,7.237,16.987,7.267,17.144,7.021z"/>
<path fill="#FFFFFF" d="M15.358,48.329c1.028,0,0.687,1.695,0,2.055C15.249,49.664,14.33,48.329,15.358,48.329z"/>
<path fill="#FFFFFF" d="M7.377,48.18c0.688,0,0.46,1.135,0,1.376C7.305,49.073,6.689,48.18,7.377,48.18z"/>
<path fill="#FFFFFF" d="M6.418,48.442c0.487,0,0.325,0.805,0,0.975C6.366,49.077,5.93,48.442,6.418,48.442z"/>
<path fill="#302C3B" d="M27.53,44.836c-9.014,1.202-9.784,5.974-16.483,3.284c-2.617-1.051-3.754,1.883-8.297-0.229
	c3.886,1.25,6.134-1.647,8.651-0.292C16.276,50.222,19.985,45.056,27.53,44.836z"/>
<path fill="#FFFFFF" d="M12.67,48.682c-1.026,0-0.687-1.696,0-2.056C12.78,47.346,13.698,48.682,12.67,48.682z"/>
</svg>
