<?xml version="1.0" encoding="utf-8"?>
<!-- Generator: Adobe Illustrator 15.0.0, SVG Export Plug-In . SVG Version: 6.00 Build 0)  -->
<!DOCTYPE svg PUBLIC "-//W3C//DTD SVG 1.1//EN" "http://www.w3.org/Graphics/SVG/1.1/DTD/svg11.dtd">
<svg version="1.1" id="Layer_1" xmlns="http://www.w3.org/2000/svg" xmlns:xlink="http://www.w3.org/1999/xlink" x="0px" y="0px"
	 width="64px" height="64px" viewBox="0 0 64 64" enable-background="new 0 0 64 64" xml:space="preserve">
<path fill="#302C3B" d="M60.805,26.297c2.656-4.414-8.041-6.657-12.275-0.477v1.447c0,0,8.732-2.711,6.736,2.628
	C53.045,35.845,62,40.823,62,40.823S57.074,32.489,60.805,26.297z"/>
<path fill="#302C3B" d="M12.868,58.833l0.572-4.783c0,0-0.866,0.017-1.817-0.253c-0.262,0.884-0.659,2.432-0.913,4.266
	C11.903,58.745,12.868,58.833,12.868,58.833z"/>
<path fill="#785647" d="M27.619,46.762c-0.707,0.567-1.545,1.292-2.145,1.931l-3.523-1.104c0,0,3.208-5.294,10.892-8.783
	c0,0-8.641-3.426-11.543,1.076c0,0-3.871,6.195-5.18,7.669c-1.311,1.476,0.063,2.797,0.723,3.017
	c0.66,0.219,9.836,1.045,9.836,1.045s1.256-1.145,2.828-1.798C28.837,48.256,28.111,47.289,27.619,46.762z"/>
<path fill="#302C3B" d="M28.998,45.69c0,0-0.615,0.45-1.379,1.071c0.492,0.527,1.219,1.494,1.889,3.052
	c0.754-0.317,1.576-0.519,2.371-0.438C31.878,49.376,30.695,46.606,28.998,45.69z"/>
<path fill="#785647" d="M38.902,34.051l-0.797,6.357c0,0,8.025,1.461,11.393,0.105c0,0,2.984,7.84,8.5,12.788
	c0.414-0.798,0.914-2.074,1.262-3.96c-2.16-1.471-5.506-4.8-7.057-11.817C52.203,37.524,45.68,38.368,38.902,34.051z"/>
<path fill="#302C3B" d="M57.998,53.302c0.738,0.667,1.527,1.282,2.359,1.816c0,0,0.826-2.206,0.887-4.729
	c0,0-0.818-0.249-1.984-1.047C58.912,51.228,58.412,52.504,57.998,53.302z"/>
<path fill="#B47D56" d="M36.445,40.823c4.514,10.94,16.074,5.645,16.074,5.645c-2.225,6.69-0.59,11.278,0.809,13.647
	c1.213-0.663,1.967-2.151,2.326-3.037c-3.123-3.787-0.893-8.822-0.289-10.801c0.664-2.174-0.303-3.568-0.303-3.568
	c-2.721-0.673-4.322,1.334-7.549-3.14C44.289,35.104,36.445,40.823,36.445,40.823z"/>
<path fill="#302C3B" d="M54.744,62c1.557-0.077,2.01-3.835,2.01-3.835c-0.426-0.351-0.789-0.712-1.1-1.087
	c-0.359,0.886-1.113,2.374-2.326,3.037C54.072,61.366,54.744,62,54.744,62z"/>
<path fill="#785647" d="M13.741,7.737c0,0-0.208-2.241,2.047-5.737c0,0,2.299,2.44,2.517,7.094L13.741,7.737z"/>
<path fill="#302C3B" d="M13.544,6.009c5.992,15.017,14.159,17.236,14.159,17.236C25.746,7.26,13.544,6.009,13.544,6.009z"/>
<path fill="#302C3B" d="M7.804,9.05c0,0,6.219,0.78,5.718-3.204C9.479,5.468,7.804,9.05,7.804,9.05z"/>
<path fill="#302C3B" d="M14.921,6.691c2.221,2.773,6.024,0.956,6.024,0.956S16.345,4.197,14.921,6.691z"/>
<path fill="#302C3B" d="M17.365,8.796c2.222,2.774,6.587,1.779,6.587,1.779S20.931,6.325,17.365,8.796z"/>
<path fill="#302C3B" d="M19.837,11.487c2.221,2.772,6.024,0.954,6.024,0.954S21.261,8.994,19.837,11.487z"/>
<path fill="#302C3B" d="M22.312,13.457c2.313,3.595,6.25,3.781,6.25,3.781S25.876,10.986,22.312,13.457z"/>
<path fill="#302C3B" d="M22.882,16.42c2.223,2.773,6.352,4.48,6.352,4.48S26.449,13.949,22.882,16.42z"/>
<path fill="#302C3B" d="M23.216,18.813c2.221,2.773,5.846,4.692,5.846,4.692S26.781,16.342,23.216,18.813z"/>
<path fill="#B47D56" d="M44.313,23.119c-9.902-1.973-15.477,3.441-16.639-0.687c-2.723-9.665-5.909-10.862-8.442-9.6
	c0.14-0.78,0.443-1.33,0.443-1.33c-2.076,0.398-3.374-2.891-3.374-2.891c-0.377-3.651-4.374-6.424-4.374-6.424
	c-0.827,2.266-0.448,6.285-0.448,6.285c-1.391,2.762-8.315,10.214-9.138,11.336c-0.824,1.123,5.698,4.032,7.482,3.656
	c6.715-1.425,5.474-4.328,5.474-4.328c4.147,5.979-5.546,10.893-0.46,19.639c-1.864,1.71-8.046,3.254-8.046,3.254
	C4.897,52.768,8.282,56.659,10.71,58.063c0.254-1.834,0.651-3.382,0.913-4.266c-0.941-0.27-1.962-0.822-2.33-1.955
	c-0.744-2.281,0.678-7.415,0.678-7.415c6.582,0.846,10.726-1.356,15.445-2.604c4.725-1.251,9.305-0.43,13.809,0.472
	C53.836,45.226,55.711,25.396,44.313,23.119z"/>
<path fill="#F5CFA0" d="M6.414,15.084c-2.412,2.766-4.879,4.79-4.339,5.77c0.771,1.395,0.194,2.271,1.966,3.402
	c0.591,0.979,0.915,0.002,1.752,1.096c0.373,0.488,1.417-0.558,2.571-1.259c0.46-0.279,0.953-0.522,1.461-0.629
	C10.694,18.185,4.515,21.916,6.414,15.084z"/>
<path fill="#302C3B" d="M4.095,21.504c-0.273,0.218-0.94,0.383-1.144,0.087c-0.202-0.296,0.139-0.941,0.412-1.16
	c0.271-0.216,0.658-0.153,0.858,0.143C4.427,20.869,4.368,21.285,4.095,21.504z"/>
<path fill="#785647" d="M12.251,4.391c-0.113,0.443-0.705,3.586,0.216,4.683c0.621,0.742,0.684,0.621,0.6,0.188
	c-0.085-0.436,0.269-1.24,0.239-0.84c-0.028,0.404,0.082,0.706,0.223,0.322c0.139-0.38,0.521-0.917,0.361-0.364
	c-0.162,0.547-0.158,1.394,0.167,1.406c0.321,0.003,0.481-0.283,0.556-0.588C15.457,5.816,12.382,3.871,12.251,4.391z"/>
<path fill="#D6A57C" d="M3.321,19.99c-0.235,0.164-0.192,0.263,0.014,0.176c0.207-0.086,1.216-0.374,1.3,0.827
	c0,0,0.057,0.54,0.184,0.003C4.945,20.46,4.645,19.076,3.321,19.99z"/>
<path fill="#302C3B" d="M12.466,14.467c0,1.211-2.023,1.211-2.023,0C10.442,13.254,12.466,13.254,12.466,14.467z"/>
<path fill="#FFFFFF" d="M11.251,14.082c0,0.344-0.573,0.344-0.573,0C10.678,13.74,11.251,13.74,11.251,14.082z"/>
<path fill="#302C3B" d="M8.36,21.235c-0.108,2.39-2.28,3.054-4.319,3.021C6.084,23.558,7.814,22.789,8.36,21.235z"/>
<path fill="#302C3B" d="M6.29,13.365c0,0,1.262-0.878,3.374-1.77c2.914-1.23,1.705-3.351,1.705-3.351
	C6.966,9.16,6.29,13.365,6.29,13.365z"/>
<path fill="#9E6C49" d="M14.837,38.776l3.907-3.04c0,0-4.642,2.771-4.987-5.152C13.757,30.584,12.101,35.183,14.837,38.776z"/>
<path fill="#9E6C49" d="M37.033,42.084c0,0-1.182-1.674-1.88-6.61c0,0,0.073,5.55-3.832,5.723
	C31.322,41.196,33.416,41.45,37.033,42.084z"/>
<path fill="#9E6C49" d="M48.24,40.502c0,0,2.768-1.725,3.359-6.351c0,0-1.884,6.351-4.446,3.407
	C47.153,37.559,47.428,39.486,48.24,40.502z"/>
</svg>
