<?xml version="1.0" encoding="utf-8"?>
<!-- Generator: Adobe Illustrator 15.0.0, SVG Export Plug-In . SVG Version: 6.00 Build 0)  -->
<!DOCTYPE svg PUBLIC "-//W3C//DTD SVG 1.1//EN" "http://www.w3.org/Graphics/SVG/1.1/DTD/svg11.dtd">
<svg version="1.1" id="Layer_1" xmlns="http://www.w3.org/2000/svg" xmlns:xlink="http://www.w3.org/1999/xlink" x="0px" y="0px"
	 width="64px" height="64px" viewBox="0 0 64 64" enable-background="new 0 0 64 64" xml:space="preserve">
<path fill-rule="evenodd" clip-rule="evenodd" fill="#F59E01" d="M57.103,47.902c-0.275-1.708-2.512-5.23-2.412-7.789
	c0.311-7.975-11.943,2.093-11.943,2.093c3.33,5.737,6.763,7.037,8.969,8.466c1.198,0.776-0.863,6.17-1.613,7.42
	C49.499,59.103,44.87,57.831,44.87,62h8.93C57.551,56.227,57.682,51.471,57.103,47.902z"/>
<path fill-rule="evenodd" clip-rule="evenodd" fill="#F59E01" d="M28.103,38.703c-0.419,5.926,4.587,11.588,5,19.389
	c0.078,1.473-5.419,0.119-5.419,3.908h8.052c2.752-9.443,2.624-17.371,0.602-23.408C36.337,38.592,28.194,37.403,28.103,38.703z"/>
<path fill="#F9C802" d="M50.277,22.67c5.356-0.371,7.618-5.491,7.741-8.897c0.145-4.038-1.213-6.197-4.598-7.805
	c-4.408-2.096-9.984-0.156-15.698,5.468c-1.687,1.657-3.749-0.636-2.065-2.294c8.988-8.846,15.771-7.583,19.011-6.042
	c4.468,2.124,7.515,6.639,7.323,11.92c-0.168,4.678-4.287,9.154-4.35,13.814L50.277,22.67z"/>
<path fill-rule="evenodd" clip-rule="evenodd" fill="#F9C802" d="M61.728,47.902c-0.275-1.707-2.512-5.23-2.412-7.788
	c0.311-7.976,1.247-14.085-6.49-16.905c-4.023-1.461-16.551-3.479-23.804-2.332c-1.844,0.291-9.226-9.519-12.546-11.559
	c-0.945-0.58-1.563-3.713-5.084-5.738c-1.54-0.882,0.279,2.913-1.084,5.989c-5.58,1.338-4.525,6.99-7.674,7.712
	c-1.005,0.23-0.156,3.291,1.329,4.646c1.358,1.241,4.835,0.995,6.335,2.872c1.893,2.368,1.446,5.357,4.364,8.803
	c4.762,5.61,8.41,7.062,9.195,8.103c1.961,2.62,1.687,13.568,0,16.389c-0.756,1.267-5.419,0.118-5.419,3.907h8.052
	c4.129-7.496,4.816-14.689,5.602-18.407c0,0,6.555,1.135,15.281-1.386c3.33,5.737,6.763,7.037,8.969,8.465
	c1.198,0.777-0.863,6.17-1.613,7.421c-0.604,1.011-5.232-0.261-5.232,3.907h8.93C62.176,56.227,62.307,51.472,61.728,47.902z"/>
<path fill-rule="evenodd" clip-rule="evenodd" fill="#302C3B" d="M6.443,14.148c0,0,1.696-0.216,2.417,1.189
	c0,0-0.883,1.672-2.324,1.025C5.756,16.014,6.443,14.148,6.443,14.148z"/>
<path fill-rule="evenodd" clip-rule="evenodd" fill="#AB5C10" d="M10.94,3.949c0,0,3.08,3.185,2.75,7.061
	c0,0-3.241-0.969-2.947-1.533C11.616,7.835,10.94,3.949,10.94,3.949z"/>
<path fill-rule="evenodd" clip-rule="evenodd" fill="#FF717F" d="M3.099,17.127c0,0-1.833-0.128-0.765,1.934
	C2.825,20.02,2.633,17.398,3.099,17.127z"/>
<path fill="#302C3B" d="M3.962,21.927c-0.329-0.2-0.608-0.687-0.608-0.687s1.941,0.512,3.03-0.545
	C5.938,22.255,3.962,21.927,3.962,21.927z"/>
<path fill="#D47706" d="M35.602,20.561c0,0-3.712-0.268-5.732,0.199c0.411,3.543,2.99,6.936,2.99,6.936S35.194,24.074,35.602,20.561
	z"/>
<path fill="#E6EBEF" d="M47.372,42.207c0,0-9.484-0.488-15.281-2.38c0.32,1.367,0,3.766,0,3.766S41.292,45.133,47.372,42.207z"/>
<path fill="#E6EBEF" d="M23.722,41.551c-10.169-9.014-9.161-12.652-13.424-16.752C12.893,30.925,13.769,37.555,23.722,41.551z"/>
<path fill="#D47706" d="M27.509,20.129c-1.39-1.451-2.984-2.857-2.984-2.857c-2.271,1.363-4.666,4.476-4.666,4.476
	S25.013,20.883,27.509,20.129z"/>
<path fill="#D47706" d="M21.851,14.412c-1.631-1.904-3.085-3.19-3.085-3.19c-1.663,1.677-2.657,4.733-2.657,4.733
	S19.864,15.611,21.851,14.412z"/>
<path fill="#D47706" d="M43.163,21.194c0,0-2.639-0.563-5.275-0.524c0.412,3.543,2.243,9.643,2.243,9.643
	S42.755,24.712,43.163,21.194z"/>
<path fill="#D47706" d="M49.751,22.352c-1.972-0.436-4.504-0.855-4.504-0.855c0.416,3.538,2.125,7.876,2.125,7.876
	S49.349,25.863,49.751,22.352z"/>
<path fill="#D47706" d="M4.034,18.08c4.783-0.77,5.808,0.142,5.779,0.334C9.804,18.477,7.714,17.828,4.034,18.08z"/>
<path fill="#D47706" d="M3.865,18.739c5.863-0.028,6.926,1.271,6.856,1.499C10.7,20.313,8.317,19.131,3.865,18.739z"/>
<path fill="#FFFFFF" d="M6.901,14.725c-0.055,0.548-0.451,0.482-0.395-0.066C6.547,14.24,6.942,14.307,6.901,14.725z"/>
</svg>
