<?xml version="1.0" encoding="utf-8"?>
<!-- Generator: Adobe Illustrator 15.0.0, SVG Export Plug-In . SVG Version: 6.00 Build 0)  -->
<!DOCTYPE svg PUBLIC "-//W3C//DTD SVG 1.1//EN" "http://www.w3.org/Graphics/SVG/1.1/DTD/svg11.dtd">
<svg version="1.1" id="Layer_1" xmlns="http://www.w3.org/2000/svg" xmlns:xlink="http://www.w3.org/1999/xlink" x="0px" y="0px"
	 width="64px" height="64px" viewBox="0 0 64 64" enable-background="new 0 0 64 64" xml:space="preserve">
<path fill="#FF8FA8" d="M17.962,47.934c0.868-2.84,3.66-0.498,5.686-2.326l2.006,0.457c0.266,4.668-4.285,2.194-6.011,4.668
	c0,0-0.456-1.112,0.288-1.783c0,0-0.897-0.115-1.934,0.41c0,0,0.139-0.985,1.036-1.658C19.034,47.701,18.56,47.608,17.962,47.934z"
	/>
<path fill="#FF8FA8" d="M30.328,47.045c0.869-2.838,4.378-0.892,6.404-2.721l5.798,0.77c1.736,4.246-6.632,1.1-10.521,4.752
	c0,0-0.456-1.112,0.288-1.783c0,0-0.897-0.117-1.934,0.412c0,0,0.139-0.986,1.036-1.658C31.399,46.816,30.925,46.721,30.328,47.045z
	"/>
<path fill="#FF8FA8" d="M51.531,35.045c13.823,1.159,17.13,23.539-9.927,26.586C20.88,63.964,7.767,54.607,7.054,51.354
	c-0.609-2.781,10.115,10.17,33.15,6.553c20.814-3.269,19.07-17.377,10.146-17.381C45.123,40.522,51.531,35.045,51.531,35.045z"/>
<path fill="#4E5E67" d="M22.23,16.336c-4.043-2.093-5.93,6.233-4.219,7.36C19.658,24.781,25.631,18.095,22.23,16.336z"/>
<path fill="#6E8189" d="M2.215,25.418c4.94,1.917,5.413,6.596,10.688,6.596c1.868,5.563,8.601,7.547,9.752,10.856
	c0,0-0.55,2.903,0,3.53c0.573,0.648,2.515,0.393,3.249,0c1.064-0.574,2.672-2.379,2.978-4.145c2.2,0.576,4.061-1.803,6.092-1.35
	c0,0,0.809,2.729,1.25,3.382c1.023,1.516,7.141,2.302,7.236,0.866c12.764-0.752,12.438-22.626-1.111-26.91
	c-9.949-3.146-13.972,4.813-17.226,3.759C22.519,21.16,13.367,14.114,2.215,25.418z"/>
<path fill="#4E5E67" d="M36.337,44.43c0,0-3.125-13.22,5.268-16.544C34.476,28.141,31.974,37.283,36.337,44.43z"/>
<path fill="#4E5E67" d="M27.925,44.43c0,0,2.057-1.427,1.531-6.086c0.621,0.008,1.117,0.346,1.117,0.346
	c0.236-2.283-1.135-3.53-1.135-3.53c0.543-0.498,1.173-0.114,1.173-0.114c0.04-2.378-1.362-3.605-1.362-3.605
	s0.715,1.724,0.444,2.492c0,0-1.066,0.251-1.489,0.825c0,0,1.065,1.284,1.168,2.244c-0.813-0.172-1.447,0.153-1.447,0.153
	S29.373,40.262,27.925,44.43z"/>
<path fill="#4E5E67" d="M22.456,44.324c0.81-4.01-2.214-5.879,1.192-10.865C21.798,38.851,24.416,40.771,22.456,44.324z"/>
<path fill="#4E5E67" d="M3.738,26.645c5.688,0.472,4.941,6.233,16.582,4.105C10.753,36.221,7.714,28.754,3.738,26.645z"/>
<path fill="#302C3B" d="M14.293,20.905c0.341,2.396-1.793,3.604-3.854,2.068C10.479,20.662,12.976,19.63,14.293,20.905z"/>
<path fill="#FFFFFF" d="M11.987,21.944c-0.063,0.707-1.039,0.608-0.975-0.097C11.075,21.142,12.05,21.239,11.987,21.944z"/>
<path fill="#4E5E67" d="M21.065,23.976c-0.922-2.278,5.68-0.915,7.673-2.755C28.5,25.848,21.564,25.208,21.065,23.976z"/>
<path fill="#6E8189" d="M19.82,23.754c-0.922-2.278,7.676-11.593,9.024-4.369C29.838,24.715,20.318,24.987,19.82,23.754z"/>
<path fill="#FF8FA8" d="M20.927,23.458c-0.713-1.759,6.648-9.13,7.332-3.5C28.693,23.528,21.314,24.409,20.927,23.458z"/>
<path fill="#F26887" d="M26.476,17.878c-2.35,0.094-6.064,4.306-5.549,5.58c0.094,0.229,0.6,0.352,1.305,0.354
	C23.015,21.798,24.728,19.237,26.476,17.878z"/>
<path fill="#F26887" d="M5.062,27.117c-2.745,0-4.359-2.755-1.72-2.843C5.329,24.209,3.298,25.442,5.062,27.117z"/>
</svg>
