<?xml version="1.0" encoding="utf-8"?>
<!-- Generator: Adobe Illustrator 15.0.0, SVG Export Plug-In . SVG Version: 6.00 Build 0)  -->
<!DOCTYPE svg PUBLIC "-//W3C//DTD SVG 1.1//EN" "http://www.w3.org/Graphics/SVG/1.1/DTD/svg11.dtd">
<svg version="1.1" id="Layer_1" xmlns="http://www.w3.org/2000/svg" xmlns:xlink="http://www.w3.org/1999/xlink" x="0px" y="0px"
	 width="64px" height="64px" viewBox="0 0 64 64" enable-background="new 0 0 64 64" xml:space="preserve">
<path fill-rule="evenodd" clip-rule="evenodd" fill="#C49A45" d="M18.725,37.886c-0.432,7.041,4.432,10.449,4.858,19.717
	c0.081,1.75,3.479,3.076,3.479,3.076c2.842-11.219,2.26-15.752,0.17-22.925C27.232,37.754,18.82,36.342,18.725,37.886z"/>
<path fill-rule="evenodd" clip-rule="evenodd" fill="#C49A45" d="M45.457,45.252c-0.283-2.03-14.83-3.205-14.83-3.205
	c3.439,6.817,6.986,6.825,9.266,8.524c1.238,0.921,1.401,5.547,0.626,7.031C39.895,58.803,42.047,62,42.047,62
	C45.922,55.142,46.057,49.491,45.457,45.252z"/>
<path fill-rule="evenodd" clip-rule="evenodd" fill="#F5CFA0" d="M40.519,57.603c-0.989,1.25-4.483,1.105-4.483,4.397h7.32
	c0.65,0,0.771-1.931,0.603-2.651C43.627,57.944,42.158,58.989,40.519,57.603z"/>
<path fill-rule="evenodd" clip-rule="evenodd" fill="#F5CFA0" d="M23.583,57.603c-0.989,1.25-5.044,1.105-5.044,4.397h7.881
	c0.65,0,0.84-1.103,0.67-1.822C26.76,58.774,24.86,58.896,23.583,57.603z"/>
<path fill="#E5BC5E" d="M37.107,29.459c19.668,0.595,11.105,25.89,23.297,16.606c1.758-1.34,2.182,1.916,0.674,2.932
	c-12.652,8.516-9.965-10.7-19.232-13.362C39.451,34.947,37.107,29.459,37.107,29.459z"/>
<path fill="#E5BC5E" d="M14.549,41.575c-1.209-0.938-5.426-4.653-8.625-1.292c-1.127,1.184-1.926-1.235-3.469-1.957
	c-0.826-0.387,0.568-3.338,1.076-4.184c0.521-0.867-0.783-1.671,3.58-6.032c1.262-3.059,2.549-2.361,3.041-0.62
	c4.273-0.115,8.654,0.331,15.408,2.135c5.672,1.516,11.863-1.783,17.195,0.909c3.125,1.579,8.424,11.367,0.98,12.968
	C34.555,45.475,27.252,51.427,14.549,41.575z"/>
<path fill="#FFE8BB" d="M13.963,41.838c-1.041-1.119-5.025-4.234-8.225-0.873c-1.127,1.184-1.74-1.917-3.283-2.639
	c2.795,1.2,3.625-3.846,5.662-3.846c1.887,0,5.996,7.109,19.07,8.937c7.063,0.986,4.881-0.762,16.549,2.114
	C34.555,47.505,24.252,52.896,13.963,41.838z"/>
<path fill-rule="evenodd" clip-rule="evenodd" fill="#302C3B" d="M4.844,32.669c0,0,1-0.146,1.422,0.805c0,0-0.52,1.132-1.367,0.694
	C4.439,33.933,4.844,32.669,4.844,32.669z"/>
<path fill-rule="evenodd" clip-rule="evenodd" fill="#F0525C" d="M2.467,36.482c0,0-1.232,1.703,0.309,2.195
	C3.387,38.872,2.398,37.631,2.467,36.482z"/>
<path fill-rule="evenodd" clip-rule="evenodd" fill="#AB5C10" d="M8.852,28.421c0,0-0.82-0.55-1.213-0.212
	C7.836,26.683,8.631,26.306,8.852,28.421z"/>
<path fill-rule="evenodd" clip-rule="evenodd" fill="#E5BC5E" d="M15.104,38.483c-0.295,7.791,3.315,10.066,0.865,19.119
	c-0.452,1.674,3.351,3.768,3.351,3.768c4.266-8.906,3.749-14.789,4.56-19.206C23.879,42.164,15.182,36.406,15.104,38.483z"/>
<path fill-rule="evenodd" clip-rule="evenodd" fill="#E5BC5E" d="M46.83,36.148c-0.258-0.738-14.924,6.175-14.1,5.9
	c3.441,6.817,6.988,4.796,9.268,6.493c1.238,0.924,4.045,7.576,3.271,9.061c-0.624,1.201,3.452,3.291,3.452,3.291
	C49.148,57.271,51.729,50.185,46.83,36.148z"/>
<path fill="#302C3B" d="M4.229,40.149c-0.33-0.2-0.609-0.688-0.609-0.688s1.727-0.373,2.814-1.431
	C5.988,39.591,4.229,40.149,4.229,40.149z"/>
<path fill-rule="evenodd" clip-rule="evenodd" fill="#FFE8BB" d="M15.969,57.603c-0.988,1.249-5.482-0.104-5.482,4.397h8.318
	c0.65,0,0.942-1.211,0.773-1.931C19.247,58.665,17.502,58.396,15.969,57.603z"/>
<path fill-rule="evenodd" clip-rule="evenodd" fill="#F5CFA0" d="M12.564,59.168C11.945,59.675,11.51,60.517,11.51,62h0.789
	C12.299,62,11.877,61.032,12.564,59.168z"/>
<path fill-rule="evenodd" clip-rule="evenodd" fill="#FFE8BB" d="M45.269,57.603c-0.987,1.249-5.483-0.104-5.483,4.397h8.32
	c0.65,0,0.941-1.211,0.771-1.931C48.547,58.665,46.814,58.958,45.269,57.603z"/>
<path fill-rule="evenodd" clip-rule="evenodd" fill="#F5CFA0" d="M41.863,59.168c-0.618,0.507-1.053,1.349-1.053,2.832H41.6
	C41.6,62,41.177,61.032,41.863,59.168z"/>
<path fill-rule="evenodd" clip-rule="evenodd" fill="#785647" d="M17.364,30.941c0,2-3,2-3,0S17.364,28.941,17.364,30.941z"/>
<path fill-rule="evenodd" clip-rule="evenodd" fill="#785647" d="M32.777,37.783c0,2.667-4,2.667-4,0
	C28.777,35.117,32.777,35.117,32.777,37.783z"/>
<path fill-rule="evenodd" clip-rule="evenodd" fill="#785647" d="M45.985,34.95c0,2.667-4,2.667-4,0S45.985,32.283,45.985,34.95z"/>
<path fill-rule="evenodd" clip-rule="evenodd" fill="#785647" d="M37.107,29.459c0.189,2.66-3.81,2.964-3.999,0.304
	C35.458,29.364,37.107,29.459,37.107,29.459z"/>
<path fill-rule="evenodd" clip-rule="evenodd" fill="#785647" d="M23.63,29.13c-0.5,2.62-4.483,1.758-3.984-0.862
	C21.536,28.552,23.63,29.13,23.63,29.13z"/>
<path fill-rule="evenodd" clip-rule="evenodd" fill="#785647" d="M37.735,33.464c0,1.334-2,1.334-2,0
	C35.735,32.131,37.735,32.131,37.735,33.464z"/>
<path fill-rule="evenodd" clip-rule="evenodd" fill="#785647" d="M44.985,40.687c0,1.333-2,1.333-2,0
	C42.985,39.353,44.985,39.353,44.985,40.687z"/>
<path fill-rule="evenodd" clip-rule="evenodd" fill="#785647" d="M21.766,36.482c0,1.334-2,1.334-2,0
	C19.766,35.15,21.766,35.15,21.766,36.482z"/>
<path fill-rule="evenodd" clip-rule="evenodd" fill="#785647" d="M22.616,45.476c0,1.333-2,1.333-2,0
	C20.616,44.142,22.616,44.142,22.616,45.476z"/>
<path fill-rule="evenodd" clip-rule="evenodd" fill="#785647" d="M20.516,48.765c0,1-1.5,1-1.5,0S20.516,47.765,20.516,48.765z"/>
<path fill-rule="evenodd" clip-rule="evenodd" fill="#785647" d="M50.444,39.784c0,1-1.5,1-1.5,0S50.444,38.784,50.444,39.784z"/>
<path fill-rule="evenodd" clip-rule="evenodd" fill="#785647" d="M53.072,46.226c0,1-1.5,1-1.5,0S53.072,45.226,53.072,46.226z"/>
<path fill-rule="evenodd" clip-rule="evenodd" fill="#785647" d="M59.489,48.479c0,0.666-1,0.666-1,0
	C58.489,47.813,59.489,47.813,59.489,48.479z"/>
<path fill-rule="evenodd" clip-rule="evenodd" fill="#785647" d="M53.572,48.479c0,0.666-1,0.666-1,0
	C52.572,47.813,53.572,47.813,53.572,48.479z"/>
<path fill-rule="evenodd" clip-rule="evenodd" fill="#785647" d="M42.735,45.476c0,1-1.5,1-1.5,0S42.735,44.476,42.735,45.476z"/>
<path fill-rule="evenodd" clip-rule="evenodd" fill="#785647" d="M20.516,42.285c0,1.001-1.5,1.001-1.5,0
	C19.016,41.285,20.516,41.285,20.516,42.285z"/>
<path fill-rule="evenodd" clip-rule="evenodd" fill="#785647" d="M11.486,30.941c0,1.333-2,1.333-2,0S11.486,29.608,11.486,30.941z"
	/>
<path fill-rule="evenodd" clip-rule="evenodd" fill="#785647" d="M27.944,32.95c0,1.333-2,1.333-2,0S27.944,31.617,27.944,32.95z"/>
<path fill-rule="evenodd" clip-rule="evenodd" fill="#785647" d="M38.614,42.047c0,2-3,2-3,0
	C35.614,40.048,38.614,40.048,38.614,42.047z"/>
<path fill-rule="evenodd" clip-rule="evenodd" fill="#785647" d="M46.724,49.046c0,1.334-2,1.334-2,0
	C44.724,47.714,46.724,47.714,46.724,49.046z"/>
<path fill="#FFFFFF" d="M5.145,33.004c-0.033,0.328-0.27,0.289-0.236-0.039C4.933,32.715,5.169,32.754,5.145,33.004z"/>
</svg>
