<?xml version="1.0" encoding="utf-8"?>
<!-- Generator: Adobe Illustrator 15.0.0, SVG Export Plug-In . SVG Version: 6.00 Build 0)  -->
<!DOCTYPE svg PUBLIC "-//W3C//DTD SVG 1.1//EN" "http://www.w3.org/Graphics/SVG/1.1/DTD/svg11.dtd">
<svg version="1.1" id="Layer_1" xmlns="http://www.w3.org/2000/svg" xmlns:xlink="http://www.w3.org/1999/xlink" x="0px" y="0px"
	 width="64px" height="64px" viewBox="0 0 64 64" enable-background="new 0 0 64 64" xml:space="preserve">
<path fill="#7AB51D" d="M9.87,55.441C18.338,59.32,31.852,58.236,35.799,62c-4.617-9.386-19.693-8.814-23.105-13.043
	c-1.857-2.301,0.222-2.674,4.354-2.603c1.45,3.046,4.35,5.628,9.817,7.518c42.086,14.545,44.497-27.29,17.159-20.509
	c-18.899,4.686-27.455-0.057-35.743,3.938C-1.73,42.127,1.295,51.514,9.87,55.441z M33.019,45.836
	c7.648-1.113,12.309-4.688,15.37-3.115C52.618,44.893,41.599,49.377,33.019,45.836z"/>
<path fill="#F9C802" d="M37.813,47.031c7.426,2.367,17.229-2.813,14.456-5.88c-4.432-4.9-13.263,1.835-22.526,2.021
	c1.124,1.878,3.275,2.663,3.275,2.663c6.947,0.162,11.982-4.417,15.13-2.689C50.453,44.412,42.708,47.85,37.813,47.031z"/>
<path fill="#F9C802" d="M17.283,51.524c-10.83-3.843-7.504-8.126-2.559-8.538c0.285,1.586,0.721,3.369,0.721,3.369
	C12.447,46.367,9.779,48.148,17.283,51.524z"/>
<path fill="#F59E01" d="M13.157,43.26c0.491-0.135,1.02-0.228,1.567-0.273c0.285,1.586,0.721,3.369,0.721,3.369
	c-0.396,0.001-0.785,0.033-1.146,0.096C14.299,46.451,13.57,45.35,13.157,43.26z"/>
<path fill="#529320" d="M13.327,35.813c0.491-0.135,1.764-0.177,2.312-0.223c0.285,1.586-0.914,7.396-0.914,7.396
	c-0.396,0.002-1.206,0.211-1.567,0.273C13.157,43.26,12.201,38.574,13.327,35.813z"/>
<path fill="#529320" d="M27.72,35.593c0.135,3.001,0.928,5.687,2.023,7.58c0,0-0.526-5.13,1.336-7.739
	C30.044,35.434,27.72,35.593,27.72,35.593z"/>
<path fill="#7AB51D" d="M29.743,43.173c-6.295-12.622,19.474-26.4,10.243-35.953c-4.514-4.671-12.267,5.638-12.267,5.638
	L17.283,38.152L29.743,43.173z"/>
<path fill="#F9C802" d="M62,43.526c0,12.692-15.271,17.268-28.175,15.609c-4.172-4.528-13.435-6.38-15.695-7.33
	c-10.632-14.139,6.008-29.251,6.81-38.345c0.82-9.279,8.011-7.686,6.309,0.855c-2.473,12.416-16.872,22.589-8.235,35.086
	C29.938,59.42,60.201,59.395,62,43.526z"/>
<path fill="#F59E01" d="M33.825,59.136c-4.172-4.528-13.435-6.38-15.695-7.33c7.415,1.378,15.354,3.757,18.493,7.589
	C34.811,59.324,33.825,59.136,33.825,59.136z"/>
<path fill="#7AB51D" d="M40.637,8.048c-4.172-5.737-11.806-7.766-20.229-4.457c-4.185,1.644-5.188,3.211-8.776,5.124
	c-0.856,0.457,0.192,2.951,1.153,3.146c0.833,1.881,12.774,2.412,18.463,1.152C33.152,13.569,45.592,14.861,40.637,8.048z"/>
<path fill="#302C3B" d="M26.867,7.361c0,2.596-3.854,2.596-3.854,0C23.013,5.686,26.867,5.686,26.867,7.361z"/>
<path fill="#529320" d="M15.742,9.568c0.9,1.504-1.941,1.79-1.941,0.627C13.801,9.754,15.516,9.191,15.742,9.568z"/>
<path fill="#FFFFFF" d="M24.457,7.22c0,0.649-0.963,0.649-0.963,0C23.494,6.571,24.457,6.571,24.457,7.22z"/>
<path fill="#529320" d="M35.623,11.473c-1.865,1.211-4.268,2.242-4.268,2.242l-0.276,1.422
	C31.079,15.137,34.695,13.851,35.623,11.473z"/>
<path fill="#F59E01" d="M31.355,13.715l-6.503,0.328c0,0-0.054,0.966-0.596,2.349c0,0,3.23-0.104,6.822-1.255
	C31.079,15.137,31.248,14.605,31.355,13.715z"/>
<path fill="#F59E01" d="M28.544,21.672c-4.253-0.489-6.822,0.245-6.822,0.245s-0.549,0.437-0.585,1.106c0,0,2.756-0.811,7.085-0.724
	L28.544,21.672z"/>
<path fill="#F59E01" d="M25.177,27.758c-4.253-0.489-6.615,0.188-6.615,0.188s-0.57,0.574-0.605,1.244c0,0,2.5-0.83,6.828-0.743
	L25.177,27.758z"/>
<path fill="#F59E01" d="M21.92,34.087c-4.252-0.489-6.111,0.398-6.111,0.398s-0.303,0.45-0.338,1.12c0,0,1.815-0.85,6.144-0.763
	L21.92,34.087z"/>
<path fill="#F59E01" d="M20.283,41.235c-4.252-0.489-5.692,0.232-5.692,0.232s-0.12,0.488,0,1.088c0,0,1.387-0.617,5.716-0.53
	L20.283,41.235z"/>
<path fill="#F59E01" d="M22.088,47.92c-4.252-0.489-5.9,0.708-5.9,0.708s0.127,0.578,0.463,0.901c0,0,1.581-0.898,5.91-0.812
	L22.088,47.92z"/>
<path fill="#F59E01" d="M26.563,52.652c-0.795,0.366-0.998,1.288-0.998,1.288l1.438,0.703c0,0,0.266-0.875,0.607-1.388
	L26.563,52.652z"/>
<path fill="#F59E01" d="M36.049,55.896c-0.207,1.617-0.853,2.972-0.853,2.972l1.427,0.526c0,0,0.448-1.006,0.759-3.321
	L36.049,55.896z"/>
<path fill="#F59E01" d="M46.235,55.969c0.174,2.097-0.439,2.891-0.439,2.891l1.482-0.328c0,0,0.662-0.778,0.385-2.795L46.235,55.969
	z"/>
<path fill="#F59E01" d="M34.965,42.479c0.175,2.097-0.276,3.308-0.276,3.308l1.371-0.167c0,0,0.51-1.446,0.231-3.463L34.965,42.479z
	"/>
<path fill="#F59E01" d="M44.933,39.726c0.174,2.097-0.166,3.28-0.166,3.28l1.299-0.23c0,0,0.376-1.256,0.098-3.272L44.933,39.726z"
	/>
<path fill="#F59E01" d="M48.43,44.111c2.026-0.611,3.654-0.234,3.654-0.234c0.81-0.871,0.667-1.546,0.667-1.546
	s-1.795,0.125-4.197,1.274L48.43,44.111z"/>
<path fill="#F59E01" d="M41.247,47.031c0.502,0.275,0.759,0.602,0.759,0.602c1.188-0.043,1.47-0.078,1.47-0.078
	s-0.488-0.38-1.47-0.64L41.247,47.031z"/>
<path fill="#F59E01" d="M55.54,52.909c0.326,1.455-0.063,2.289-0.063,2.289l1.253-0.907c0,0,0.242-0.78-0.092-2.092L55.54,52.909z"
	/>
<path fill="#F9C802" d="M35.623,11.473c-5.516,2.695-15.188,0.615-20.67,0.602c-1.393,0.23-2.168-0.213-2.168-0.213
	c0.833,1.881,11.724,3.164,18.57,1.854C34.13,13.185,35.623,11.473,35.623,11.473z"/>
<path fill="#E81C27" d="M2,13.893c0,0,6.687,2.619,10.785-2.031c0,0,0.769,0.182,2.168,0.213c-5.711,4.694-7.85,3.4-9.903,7.981
	c0.063-2.65,1.305-4.483,1.305-4.483S2.754,15.572,2,13.893z"/>
</svg>
