<?xml version="1.0" encoding="utf-8"?>
<!-- Generator: Adobe Illustrator 15.0.0, SVG Export Plug-In . SVG Version: 6.00 Build 0)  -->
<!DOCTYPE svg PUBLIC "-//W3C//DTD SVG 1.1//EN" "http://www.w3.org/Graphics/SVG/1.1/DTD/svg11.dtd">
<svg version="1.1" id="Layer_1" xmlns="http://www.w3.org/2000/svg" xmlns:xlink="http://www.w3.org/1999/xlink" x="0px" y="0px"
	 width="64px" height="64px" viewBox="0 0 64 64" enable-background="new 0 0 64 64" xml:space="preserve">
<path fill="#D1C0B5" d="M55.109,22.665c0.553,5.353,7.583,5.907,6.835,3.521c-0.458-1.455-2.874-5.597-5.11-5.44
	C56.441,20.774,54.947,21.086,55.109,22.665z"/>
<path fill="#302C3B" d="M13.888,57.965h3.685c0.249-0.906,0.507-1.396,0.744-1.664l-3.521-2.319
	C14.299,55.17,13.888,56.48,13.888,57.965z"/>
<path fill="#6E8189" d="M23,35.896c0-6.127-8.887,0.457-8.887,0.457s0.752,5.93,2.343,12.242c0.392,1.551-0.771,3.266-1.66,5.387
	l3.521,2.319c0.503-0.568,0.902-0.104,0.861-0.393c-1.017-7.149,2.056-3.632,0.852-7.347C18.182,42.856,23,43.485,23,35.896z"/>
<path fill="#302C3B" d="M39,57.965h3.685c0.249-0.906,0.508-1.396,0.744-1.664l-3.521-2.319C39.412,55.17,39,56.48,39,57.965z"/>
<path fill="#6E8189" d="M48.111,35.896c0-6.127-8.885,0.457-8.885,0.457s0.752,5.93,2.343,12.242
	c0.392,1.551-0.773,3.266-1.661,5.387l3.521,2.319c0.503-0.568,0.902-0.104,0.86-0.393c-1.015-7.149,2.057-3.632,0.853-7.347
	C43.295,42.856,48.111,43.485,48.111,35.896z"/>
<path fill="#D1C0B5" d="M23.324,41.983c0,4.867-9.975,4.867-9.975,0C13.35,30.929,23.324,30.929,23.324,41.983z"/>
<path fill="#D1C0B5" d="M49.766,42.884c0,4.867-12.34,4.867-12.34,0C37.426,31.828,49.766,31.828,49.766,42.884z"/>
<path fill="#302C3B" d="M19.648,62h3.685c0.248-0.902,0.506-1.395,0.743-1.66l-3.52-2.318C20.061,59.205,19.648,60.52,19.648,62z"/>
<path fill="#6E8189" d="M28.76,39.935c0-6.129-8.887,0.453-8.887,0.453s0.753,5.932,2.345,12.246
	c0.391,1.551-0.773,3.267-1.661,5.388l3.52,2.318c0.505-0.568,0.903-0.104,0.861-0.393c-1.016-7.153,2.056-3.633,0.853-7.347
	C23.942,46.896,28.76,47.522,28.76,39.935z"/>
<path fill="#302C3B" d="M45.674,62h3.685c0.249-0.902,0.507-1.393,0.744-1.66l-3.521-2.318C46.086,59.207,45.674,60.52,45.674,62z"
	/>
<path fill="#6E8189" d="M54.786,39.935c0-6.127-8.887,0.455-8.887,0.455s0.752,5.932,2.343,12.244
	c0.392,1.551-0.771,3.267-1.66,5.388l3.521,2.318c0.503-0.568,0.902-0.104,0.861-0.393c-1.016-7.151,2.056-3.631,0.852-7.347
	C49.968,46.896,54.786,47.522,54.786,39.935z"/>
<path fill="#6E8189" d="M7.485,9.326c1.411-1.253,0.652-4.617,8.588-4.98c5.375-0.246,6.501,14.396-3.48,14.738
	c-7.412,0.254-7.534,3.033-8.498,0.004c-1.829,0.363-0.742-1.011-1.752-2.705C1.673,15.26,1.373,14.754,7.485,9.326z"/>
<path fill-rule="evenodd" clip-rule="evenodd" fill="#302C3B" d="M4.275,16.057c0,0-0.954,1.101-1.271,0.496
	C2.561,15.71,4.217,15.584,4.275,16.057z"/>
<path fill="#E1D3C8" d="M14.286,15.39c-8.393,9.38-3.6,25.617,5.071,27.855c2.849,0.736,6.776,0,6.776,0
	c5.926,1.986,13.422-1.822,19.284-0.674c19.943,0,14.175-26.649,4.371-26.766c0,0-5.235-5.385-11.034-1.067
	c-1.509-1.849-3.725-2.053-9.333-0.469c-2.029-0.985-3.288-5.375-3.288-5.375C22.957,2.957,14.286,15.39,14.286,15.39z"/>
<path fill="#E1D3C8" d="M20.633,17.632c-10.573,4.747-9.303-4.032-5.605-7.218C17.46,8.319,10.057,2,19.965,4.89
	C24.525,6.22,26.642,14.936,20.633,17.632z"/>
<path fill="#302C3B" d="M4.299,19.632c-0.143-0.305-0.204-0.545-0.204-0.545s1.928-0.292,4.063-1.292
	C6.766,19.083,4.299,19.632,4.299,19.632z"/>
<path fill="#6E8189" d="M16.616,8.899c6.749,0.015,7.89-7.069,6.981-6.896c-1.42,0.269-5.261,0.632-8.511,2.641
	C14.737,4.861,15.771,8.897,16.616,8.899z"/>
<path fill="#FF8FA8" d="M17.375,8.147c4.635-0.08,6.22-5.563,5.406-5.395C17.28,3.893,16.531,8.162,17.375,8.147z"/>
<path fill="#F26887" d="M17.373,8.147c0.166-0.003,0.319-0.027,0.479-0.043c0.771-1.679,2.182-3.583,4.487-5.24
	C17.25,4.138,16.554,8.161,17.373,8.147z"/>
<path fill="#E1D3C8" d="M29.361,44.472c0,4.867-12.339,4.867-12.339,0C17.022,33.413,29.361,33.413,29.361,44.472z"/>
<path fill="#E1D3C8" d="M56.469,43.716c0,4.865-12.339,4.865-12.339,0C44.13,32.66,56.469,32.66,56.469,43.716z"/>
<path fill-rule="evenodd" clip-rule="evenodd" fill="#302C3B" d="M10.381,8.754c0,0,1.718-0.222,2.447,1.227
	c0,0-0.894,1.725-2.354,1.059C9.686,10.679,10.381,8.754,10.381,8.754z"/>
<path fill="#FFFFFF" d="M10.845,9.349c-0.056,0.565-0.457,0.497-0.399-0.068C10.486,8.85,10.886,8.918,10.845,9.349z"/>
<path fill="#F1E7DC" d="M46.065,20.234c0.053-3.816-5.401-5.086-7.011-1.63C41.207,17.583,44.573,18.367,46.065,20.234z"/>
<path fill="#F1E7DC" d="M40.875,21.031c0.052-3.816-5.403-5.086-7.012-1.632C36.017,18.379,39.382,19.164,40.875,21.031z"/>
<path fill="#F1E7DC" d="M51.219,22.573c0.053-3.818-5.403-5.087-7.012-1.631C46.359,19.921,49.725,20.704,51.219,22.573z"/>
<path fill="#F1E7DC" d="M47.128,36.44c2.071,3.191,7.297,1.168,6.716-2.607C52.625,35.896,49.4,37.146,47.128,36.44z"/>
<path fill="#F1E7DC" d="M41.561,37.409c2.071,3.193,7.298,1.166,6.717-2.604C47.058,36.864,43.834,38.114,41.561,37.409z"/>
<path fill="#F1E7DC" d="M19.889,32.265c-1.164,3.632,3.677,6.466,6.224,3.642C23.758,36.243,20.77,34.493,19.889,32.265z"/>
<path fill="#F1E7DC" d="M25.082,33.048c-1.164,3.633,3.679,6.467,6.224,3.645C28.949,37.024,25.962,35.274,25.082,33.048z"/>
<path fill="#F1E7DC" d="M18.229,19.4c-2.73,2.642,0.204,7.456,3.772,6.184C19.771,24.754,17.96,21.786,18.229,19.4z"/>
</svg>
