<?xml version="1.0" encoding="utf-8"?>
<!-- Generator: Adobe Illustrator 15.0.0, SVG Export Plug-In . SVG Version: 6.00 Build 0)  -->
<!DOCTYPE svg PUBLIC "-//W3C//DTD SVG 1.1//EN" "http://www.w3.org/Graphics/SVG/1.1/DTD/svg11.dtd">
<svg version="1.1" id="Layer_1" xmlns="http://www.w3.org/2000/svg" xmlns:xlink="http://www.w3.org/1999/xlink" x="0px" y="0px"
	 width="64px" height="64px" viewBox="0 0 64 64" enable-background="new 0 0 64 64" xml:space="preserve">
<path fill="#785647" d="M50.23,59.813c-2.563,0-4.748-1.262-5.633-1.773c-0.924-0.533-1.256-1.746-0.742-2.709
	s1.682-1.309,2.605-0.773c2.236,1.295,3.922,1.592,5.307,0.934c1.613-0.766,3.865-3.334,5.449-11.217
	c1.418-7.066,1.521-16.486-1.596-20.474c-0.953-1.221-2.15-1.815-3.66-1.815c-3.674,0-4.654,2.62-4.654,4.167
	c0,0.375,0.076,2.24,1.588,2.24c0.285,0,0.734-0.146,1.059-0.555c0.314-0.4,0.41-0.941,0.283-1.607
	c-0.209-1.079,0.465-2.127,1.502-2.344c1.033-0.215,2.047,0.483,2.254,1.563c0.355,1.838-0.029,3.583-1.076,4.913
	c-0.996,1.26-2.498,2.011-4.021,2.011c-3.139,0-5.416-2.616-5.416-6.222c0-2.042,0.768-4.057,2.109-5.527
	C46.678,19.425,48.67,18,51.961,18c2.66,0,4.953,1.137,6.633,3.285c4.197,5.37,3.902,16.176,2.371,23.799
	c-1.555,7.746-4.043,12.334-7.605,14.029C52.295,59.621,51.234,59.813,50.23,59.813z"/>
<path fill="#785647" d="M29.466,25.929l-1.962,14.138c-4.938,0-6.234,9.674-4.751,18.463c0.135,0.807,5.615,1.768,5.615,1.768
	c-1.016-5.594,0.371-8.375,0.371-8.375C28.386,56.879,29,62,37.256,62c7.586,0,11.801-2.758,12.205-10.078
	C50.729,28.837,29.466,25.929,29.466,25.929z"/>
<path fill="#EBBB96" d="M22.815,57.518C20.4,58.561,14.259,59.092,15.761,62h12.082C29.881,59.125,26.148,56.076,22.815,57.518z"/>
<path fill="#EBBB96" d="M38.092,53.805c0,0-1.953-11.83-10.589-13.738c-8.586-1.895-3.474-4.816,0.919-3.82
	C39.123,38.67,38.092,53.805,38.092,53.805z"/>
<path fill="#785647" d="M34.779,36.328L21.486,35.66c0,0-12.107,7.652-15.931,17.609c-1.051,2.736,4.72,3.396,5.36,2.068
	C15.528,45.758,34.779,36.328,34.779,36.328z"/>
<path fill="#EBBB96" d="M10.916,55.338c0.438-1.275-3.866-4.906-4.642-3.805C4.406,54.186,2.69,61.156,5.427,62H14
	C16.388,57.148,9.109,60.6,10.916,55.338z"/>
<path fill="#785647" d="M21.114,47.568c-0.806-1.145-1.869-1.486-1.869-1.486c1.005,1.793,0.123,4.23,0.123,4.23
	c-0.567-1.563-1.461-1.893-1.461-1.893c0.076,1.781-1.098,2.908-1.098,2.908c-0.481-1.637-2.214-2.373-2.214-2.373l4.937-6.51
	C21.264,45.139,21.114,47.568,21.114,47.568z"/>
<path fill="#785647" d="M30.608,21.148c0.312,2.605,9.4,7.945,11.216-1.591C43.73,9.54,29.498,11.85,30.608,21.148z"/>
<path fill="#C4926E" d="M40.445,16.428c-2.303-1.753-6.803,0.892-6.133,6.453c0.035,0.286-0.818-0.541-0.894-1.172
	C32.643,15.269,38.801,12.743,40.445,16.428z"/>
<path fill="#EBBB96" d="M40.445,16.428c0.412,0.921,0.545,2.225,0.213,3.959c-1.141,5.952-6.311,2.78-6.346,2.494
	C33.643,17.319,38.143,14.675,40.445,16.428z"/>
<path fill="#785647" d="M13.391,21.148c-0.311,2.605-9.399,7.945-11.215-1.591C0.269,9.54,14.503,11.85,13.391,21.148z"/>
<path fill="#C4926E" d="M3.556,16.428c2.3-1.753,6.801,0.892,6.133,6.453c-0.035,0.286,0.818-0.541,0.893-1.172
	C11.356,15.269,5.201,12.743,3.556,16.428z"/>
<path fill="#EBBB96" d="M3.556,16.428c-0.412,0.921-0.546,2.225-0.214,3.959c1.14,5.952,6.312,2.78,6.347,2.494
	C10.357,17.319,5.856,14.675,3.556,16.428z"/>
<path fill="#785647" d="M34.994,17.385c0-9.289-6.689-12.619-12.995-12.619c-6.305,0-12.992,3.33-12.992,12.619
	c0,2.824-2.989,5.2-3.008,8.978C5.953,36.1,14,39.895,22,39.895c8.001,0,16.049-3.791,16.002-13.533
	C37.98,22.584,34.994,20.209,34.994,17.385z"/>
<path fill="#785647" d="M26.462,5.401c0,0-0.173-1.089,1.428-2.121c0,0-3.664-0.381-5.262,1.202c0,0-0.273-1.286,0.639-2.482
	c0,0-4.13,0-6.955,4.29l13.017,2.707c0,0-0.217-2.135,1.532-3.089C30.861,5.908,28.662,4.869,26.462,5.401z"/>
<path fill="#EBBB96" d="M22,14.711c-10.065-5.8-16.584,6.778-8.064,12.351C12.074,32.827,13.839,37.578,22,37.578
	c8.159,0,9.925-4.751,8.063-10.517C38.586,21.489,32.065,8.911,22,14.711z"/>
<path fill="#302C3B" d="M18.715,26.242c-0.333-1.196,2.981,0.81,2.536,0.946C20.441,27.44,18.979,27.188,18.715,26.242z"/>
<path fill="#302C3B" d="M25.284,26.242c0.334-1.196-2.981,0.81-2.535,0.946C23.559,27.44,25.02,27.188,25.284,26.242z"/>
<ellipse fill="#302C3B" cx="15.899" cy="20.793" rx="2.46" ry="3.211"/>
<path id="Shape_10_" fill="#FFFFFF" d="M15.723,19.388c0,1.108-1.229,1.108-1.229,0C14.495,18.277,15.723,18.277,15.723,19.388
	L15.723,19.388z"/>
<ellipse fill="#302C3B" cx="28.104" cy="20.793" rx="2.459" ry="3.211"/>
<path id="Shape_9_" fill="#FFFFFF" d="M27.929,19.388c0,1.108-1.229,1.108-1.229,0C26.7,18.277,27.929,18.277,27.929,19.388
	L27.929,19.388z"/>
<path fill="#302C3B" d="M27.602,30c-1.171,0-3.406,0-5.603,0s-4.43,0-5.604,0C16.136,30,16,30.17,16,30.336
	c0,2.456,2.104,5.066,6,5.066s6-2.61,6-5.066C28,30.17,27.862,30,27.602,30z"/>
<path fill="#F46C60" d="M18.823,33.759c0.919,0.612,1.978,0.968,3.177,0.968s2.26-0.355,3.178-0.968
	C24.291,33.101,23.236,32.7,22,32.7S19.709,33.101,18.823,33.759z"/>
</svg>
