<?xml version="1.0" encoding="utf-8"?>
<!-- Generator: Adobe Illustrator 15.0.0, SVG Export Plug-In . SVG Version: 6.00 Build 0)  -->
<!DOCTYPE svg PUBLIC "-//W3C//DTD SVG 1.1//EN" "http://www.w3.org/Graphics/SVG/1.1/DTD/svg11.dtd">
<svg version="1.1" id="Layer_1" xmlns="http://www.w3.org/2000/svg" xmlns:xlink="http://www.w3.org/1999/xlink" x="0px" y="0px"
	 width="64px" height="64px" viewBox="0 0 64 64" enable-background="new 0 0 64 64" xml:space="preserve">
<path fill="#E81C27" d="M60.658,26.392c1.48,5.762-4.882,12.51-12.841,10.598c10.138-7.374,5.504-16.793,0.145-21.316
	c-5.811-4.905-0.186-6.477,1.688-4.703c-0.045-3.583-12.684-2.772-1.629,8.733c5.682,5.912-1.02,18.987-9.002,9.046
	c-2.512-3.13,3.441-6.628,3.441-14.062C42.46,7.979,38.103,2,31.999,2c-6.103,0-10.461,5.979-10.461,12.688
	c0,7.434,5.954,10.932,3.442,14.062c-7.981,9.941-14.684-3.135-9.002-9.046c11.056-11.505-1.584-12.315-1.629-8.733
	c1.873-1.774,7.499-0.202,1.688,4.703c-5.359,4.523-9.991,13.942,0.145,21.316c-7.959,1.912-14.32-4.836-12.839-10.598
	c-2.583,4.747-0.667,13.733,9.585,15.465C2.006,44.365,5.29,59.412,12.986,56.994c-6.592-0.389-5.86-7.959-3.193-10.24
	c2.949-2.523,6.68-0.746,13.477-1.881c-0.074,6.111,5.89,9.396,2.76,12.896c-3.312,3.703-7.842-0.299-7.147-3.939
	c-3.164,6.537,5.842,11.736,9.791,4.148c3.041-5.842-5.041-16.375,3.33-16.375c8.369,0,0.287,10.533,3.328,16.375
	c3.947,7.588,12.955,2.389,9.791-4.148c0.693,3.643-3.836,7.643-7.146,3.939c-3.131-3.5,2.834-6.785,2.76-12.896
	c6.795,1.135,10.525-0.645,13.475,1.881c2.669,2.281,3.399,9.852-3.193,10.24c7.698,2.418,10.981-12.629,0.061-15.137
	C61.324,40.125,63.24,31.139,60.658,26.392z"/>
<path fill="#FF8FA8" d="M9.909,47.219c2.948-2.523,6.331-0.314,13.359-2.346c0,0,0.096-1.877,0.188-3.27
	c-2.136,1.611-6.054,1.402-9.325,1.881c-10.754,1.572-8.364,14.465-1.146,13.51C7.642,56.129,7.241,49.5,9.909,47.219z"/>
<path fill="#FF8FA8" d="M23.869,37.977c1.197-1.834,1.337-4.795-1.067-2.104c-8.125,9.09-22.219,1.654-19.459-9.48
	c-2.963,4.031-1.543,14.57,9.585,15.464C15.722,40.932,21.473,41.648,23.869,37.977z"/>
<path fill="#FF8FA8" d="M16.181,36.99c0,0,2.852-0.291,4.704-2.463c-7.522,2.793-13.694-9.322-4.27-17.51
	c7.319-6.359-0.131-8.867-2.266-6.046c0.785-0.776,7.163-0.336,1.351,4.568C10.34,20.063,4.677,29.467,16.181,36.99z"/>
<path fill="#FF8FA8" d="M37.407,59.002c-3.133-3.5,0.004-6.662,0.574-12.178c0.383-3.721-1.01-7.842-5.982-7.842
	c-4.972,0-6.366,4.121-5.981,7.842c0.568,5.516,3.704,8.678,0.574,12.178c-3.311,3.703-9.499-0.156-7.711-5.172
	c-4.4,7.299,6.77,11.842,10.716,4.254c3.041-5.842-5.967-16.078,2.402-16.078s-0.639,10.236,2.4,16.078
	c3.949,7.588,15.119,3.045,10.719-4.254C46.903,58.846,40.718,62.705,37.407,59.002z"/>
<path fill="#FF8FA8" d="M49.866,43.484c-3.27-0.479-7.188-0.27-9.322-1.881c0.092,1.393,0.188,3.27,0.188,3.27
	c7.027,2.029,10.41-0.18,13.359,2.346c2.667,2.281,2.267,8.91-3.078,9.775C58.232,57.949,60.623,45.057,49.866,43.484z"/>
<path fill="#FF8FA8" d="M60.658,26.392c2.76,11.135-11.337,18.571-19.462,9.479c-2.404-2.689-2.264,0.271-1.066,2.105
	c2.396,3.672,8.146,2.955,10.941,3.881C62.201,40.963,63.621,30.423,60.658,26.392z"/>
<path fill="#FF8FA8" d="M43.114,34.527c1.852,2.172,4.703,2.463,4.703,2.463c11.505-7.523,5.84-16.928,0.48-21.451
	c-5.813-4.904,0.564-5.344,1.352-4.568c-2.135-2.821-9.586-0.313-2.266,6.046C56.809,25.205,50.636,37.32,43.114,34.527z"/>
<path fill="#F46C60" d="M35.952,4.201c0,1.333-4,1.333-4,0S35.952,2.868,35.952,4.201z"/>
<path fill="#F46C60" d="M29.765,4.326c0,0.708-2.124,0.708-2.124,0S29.765,3.618,29.765,4.326z"/>
<path fill="#F46C60" d="M37.421,5.732c0,0.708-2.125,0.708-2.125,0S37.421,5.024,37.421,5.732z"/>
<path fill="#F46C60" d="M27.641,5.936c0,0.354-1.063,0.354-1.063,0S27.641,5.581,27.641,5.936z"/>
<path fill="#F46C60" d="M31.577,5.568c0,0.489-1.469,0.489-1.469,0C30.108,5.079,31.577,5.079,31.577,5.568z"/>
<path fill="#B00505" d="M40.501,21.995c4.705-8.458,0.299-16.927-4.549-19.084c6.098,4.376,4.441,14.563,1.861,16.751L40.501,21.995
	z"/>
<path fill="#B00505" d="M23.499,21.995c0,0-3.477-5.271-1.281-11.818c-1.334,5.401,1.875,8.938,3.969,9.485L23.499,21.995z"/>
<path fill="#E81C27" d="M29.812,24.083c0,6.17-6.999,6.17-6.999,0C22.813,17.917,29.812,17.917,29.812,24.083z"/>
<path fill="#E81C27" d="M41.187,24.083c0,6.17-7,6.17-7,0C34.187,17.917,41.187,17.917,41.187,24.083z"/>
<g>
	<g>
		<path fill="#302C3B" d="M28.223,24.083c0,3.37-3.822,3.37-3.822,0C24.4,20.716,28.223,20.716,28.223,24.083z"/>
	</g>
</g>
<g>
	<g>
		<path fill="#FFFFFF" d="M26.264,23.226c0,0.842-1.176,0.842-1.176,0C25.088,22.383,26.264,22.383,26.264,23.226z"/>
	</g>
</g>
<g>
	<g>
		<path fill="#302C3B" d="M39.599,24.083c0,3.37-3.824,3.37-3.824,0C35.774,20.716,39.599,20.716,39.599,24.083z"/>
	</g>
</g>
<g>
	<g>
		<path fill="#FFFFFF" d="M37.638,23.226c0,0.842-1.176,0.842-1.176,0C36.462,22.383,37.638,22.383,37.638,23.226z"/>
	</g>
</g>
</svg>
