<?xml version="1.0" encoding="utf-8"?>
<!-- Generator: Adobe Illustrator 15.0.0, SVG Export Plug-In . SVG Version: 6.00 Build 0)  -->
<!DOCTYPE svg PUBLIC "-//W3C//DTD SVG 1.1//EN" "http://www.w3.org/Graphics/SVG/1.1/DTD/svg11.dtd">
<svg version="1.1" id="Layer_1" xmlns="http://www.w3.org/2000/svg" xmlns:xlink="http://www.w3.org/1999/xlink" x="0px" y="0px"
	 width="64px" height="64px" viewBox="0 0 64 64" enable-background="new 0 0 64 64" xml:space="preserve">
<path fill="#753F0B" d="M50.401,38.338C58.188,41.846,62,52.424,62,52.424S51.166,56.4,43.382,52.895
	c-7.787-3.51-11.516-9.156-9.578-13.176C35.743,35.701,42.616,34.83,50.401,38.338z"/>
<path fill="#BA6411" d="M59.959,50.848C55.75,40.137,46.354,36.613,39.146,36.941c-1.884,0.086-3.242,3.734-1.324,3.834
	C53.063,41.566,60.859,53.141,59.959,50.848z"/>
<path fill="#AB4910" d="M19.21,12.333c0,0-3.061-8.355-17.21-10.333c13.574,4.642,15.009,10.68,15.009,10.68L19.21,12.333z"/>
<path fill="#AB4910" d="M19.21,10.708c0,0-1.299-5.893-10.639-8.392c8.712,4.25,9.125,8.445,9.125,8.445L19.21,10.708z"/>
<path fill="#D46A06" d="M38.207,36.668c0.542,4.609-7.341,4.639-7.341,0C30.866,32.028,36.996,26.37,38.207,36.668z"/>
<path fill="#AB4910" d="M36.866,37.549c0.543,4.609-7.341,4.639-7.341,0C29.525,32.909,35.655,27.25,36.866,37.549z"/>
<path fill="#D46A06" d="M32.106,23.606c10.489,12.595-7.138,11.905-10.514,4.074C18.216,19.845,23.917,13.772,32.106,23.606z"/>
<path fill="#AB4910" d="M32.983,33.191c-4.799,3.816-14.279-6.893-13.008-10.666C22.7,14.441,35.018,31.575,32.983,33.191z"/>
<path fill="#D46A06" d="M18.51,23.824c-15.11,4.595-15.723-5.163-5.227-12.126C23.756,4.748,30.683,20.124,18.51,23.824z"/>
<path fill="#D46A06" d="M31.358,35.09c-1.01,1.379-9.409-1.217-12.474,1.295c-4.866,3.998,3.008,18.613,4.979,21.01
	c-1.565-2.75-6.729-19.324-3.312-18.98c9.99,1.008,13.997-3.037,13.997-3.037L31.358,35.09z"/>
<path fill="#AB4910" d="M31.773,34.441c-1.01,1.379-8.948-0.076-12.013,2.438c-4.864,3.998,2.132,18.119,4.104,20.516
	c-1.565-2.75-6.542-19.637-1.447-19.609c9.3,0.051,12.579-2.695,12.579-2.695L31.773,34.441z"/>
<path fill="#D46A06" d="M33.36,39.982c0,0,2.774,3.906,9.722,3.037c1.827-0.229-1.213,16.229-2.299,18.98
	c1.368-2.398,6.838-17.014,3.458-21.012c-2.129-2.51-7.963,0.086-8.664-1.293L33.36,39.982z"/>
<path fill="#AB4910" d="M33.05,39.695c0,0,2.278,2.813,8.737,2.693c1.82-0.031,0.082,16.859-1.004,19.611
	c1.368-2.398,6.229-16.52,2.85-20.516c-2.13-2.516-7.643-1.059-8.344-2.438L33.05,39.695z"/>
<path fill="#D46A06" d="M25.369,29.43c-1.3,0.388-3.418-4.669-6.328-4.479c-4.629,0.31-9.985,20.28-10.594,22.52
	c1.007-2.277,8.04-19.94,9.424-18.948c4.601,3.306,7.951,1.642,7.951,1.642L25.369,29.43z"/>
<path fill="#AB4910" d="M25.953,29.223c-1.299,0.387-3.723-3.653-6.636-3.459C14.69,26.071,9.056,45.23,8.447,47.471
	c1.007-2.277,8.961-20.043,10.344-19.119c3.715,2.485,7.407,1.833,7.407,1.833L25.953,29.223z"/>
<path fill="#D46A06" d="M16.902,14.106c0,4.666-7,4.666-7,0C9.902,9.439,16.902,9.439,16.902,14.106z"/>
<path fill="#AB4910" d="M10.619,25.311c-2.689,0.831-3.671-0.167-3.671-0.167L6.8,25.643c-1.763-0.916-1.665-5.585-0.595-5.585
	C7.277,20.057,12.02,24.878,10.619,25.311z"/>
<ellipse fill="#302C3B" cx="13.402" cy="15.522" rx="1.939" ry="2.528"/>
<path id="Shape_10_" fill="#FFFFFF" d="M13.049,14.435c0,0.767-0.971,0.767-0.971,0C12.078,13.669,13.049,13.669,13.049,14.435
	L13.049,14.435z"/>
</svg>
