<?xml version="1.0" encoding="utf-8"?>
<!-- Generator: Adobe Illustrator 15.0.0, SVG Export Plug-In . SVG Version: 6.00 Build 0)  -->
<!DOCTYPE svg PUBLIC "-//W3C//DTD SVG 1.1//EN" "http://www.w3.org/Graphics/SVG/1.1/DTD/svg11.dtd">
<svg version="1.1" id="Layer_1" xmlns="http://www.w3.org/2000/svg" xmlns:xlink="http://www.w3.org/1999/xlink" x="0px" y="0px"
	 width="64px" height="64px" viewBox="0 0 64 64" enable-background="new 0 0 64 64" xml:space="preserve">
<path fill="#AB5C10" d="M14.363,37.802c-0.473-4.392-2.531-2.233-7.342-0.838C3.633,37.943,14.723,41.125,14.363,37.802z"/>
<path fill="#AB5C10" d="M22.879,51.126c-3.398-3.04-3.467-0.14-6.148,3.872C14.838,57.82,25.451,53.427,22.879,51.126z"/>
<path fill="#AB5C10" d="M39.381,55.01c-4.555-1.049-3.082,1.501-3.295,6.237C35.934,64.582,42.826,55.804,39.381,55.01z"/>
<path fill="#302C3B" d="M14.773,40.088c4.809-1.393,2.977-7.545-1.834-6.15C9.551,34.917,11.383,41.07,14.773,40.088z"/>
<path fill="#302C3B" d="M24.928,51.933c2.15-4.284-3.91-7.157-6.059-2.872C17.352,52.079,23.412,54.953,24.928,51.933z"/>
<path fill="#302C3B" d="M41.563,55.536c0.328-4.729-6.428-5.306-6.756-0.576C34.572,58.292,41.33,58.869,41.563,55.536z"/>
<path fill="#AB5C10" d="M54.494,51.482c-4.627,0.71-2.213,2.516-0.445,6.953C55.291,61.563,57.996,50.945,54.494,51.482z"/>
<path fill="#302C3B" d="M56.721,51.164c-1.656-4.474-8.117-2.52-6.457,1.955C51.43,56.273,57.891,54.318,56.721,51.164z"/>
<path fill="#302C3B" d="M3.152,3.062c-4.221,1.178,4.5,1.463,7.807,3.763C13.637,8.684,10.217,1.091,3.152,3.062z"/>
<path fill="#302C3B" d="M20.873,2.33c4.223,1.178-4.496,1.463-7.807,3.762C10.391,7.952,13.813,0.358,20.873,2.33z"/>
<path fill="#92C932" d="M19.406,42.211c-5.102-3.164-4.43-9.996-1.906-13.906c-2.57-9.917,6.553-21.638,6.553-21.638
	c2.949-1.219,8.598,1.839,8.355,3.702c0.342,1.611,1.311,1.511,1.311,1.511c3.088,0.081,5.799,8.908,3.607,11.447
	c-1.299,2.976,0,2.72,0,2.72c1.369,1.457,0.607,8.048-1.789,9.724c-0.906,0.816,0.15,1.262,0.15,1.262
	c0.971-0.063,1.682,0.744,1.563,1.58c0,0,0.939,1.037,3.1,0.588c0.877-0.727,3.115-0.9,3.918-0.129
	c0.77-0.041,1.244-0.219,2.002-0.4c11.641-7.103,17.656,1.899,15.18,7.291c-1.961,4.268-10.734,7.051-15.299,6.284
	c-4.859,1.774-13.426,2.317-16.271-1.331C23.838,51.037,17.742,47.33,19.406,42.211z"/>
<path fill="#529320" d="M17.957,42.641c-5.371-2.741-5.514-10.802-1.131-14.294c-3.309-2.419,3.115-7.103-6.676-7.149
	c-5.438-0.025-7.527-3.485-7.721-6.52c3.947,5.182,13.809,4.829,17.818,3.027c-2.902,3.157-2.076,9.028,1.791,11.044
	c-4.744,1.741-5.627,9.512,1.609,11.043c-2.842,5.73,1.223,9.183,8.291,8.142c2.029,4.389,9.402,4.914,13.729,1.773
	c3.186,1.949,12.457,0.35,15.781-3.744c-1.963,4.793-9.84,7.713-15.211,6.889c-3.078,3.01-14.299,3.171-16.826-1.235
	C23.9,53.014,15.594,47.854,17.957,42.641z"/>
<path fill="#EA8800" d="M10.076,20.563c-11.473,0-10.344-13.617,0.984-15.269c4.262-0.622,11.297-0.63,12.992,1.374
	c0.684,3.815-1.488,8.648-3.805,11.038C20.248,17.705,15.322,20.563,10.076,20.563z"/>
<path fill="#AB5C10" d="M10.15,21.197c-2.297,0-7.355,0.57-5.471-1.266c-1.078-1.228-2.816,0.769-1.936-1.964
	c-0.523-0.929-0.766-2.036-0.715-3.29c2.1,7.077,14.07,4.499,18.219,3.027C18.527,19.222,15.363,21.197,10.15,21.197z"/>
<path fill="#529320" d="M37.326,23.327c0,0-1.863,2.976-4.918,4.266c3.734-1.264,4.918-1.546,4.918-1.546
	C36.967,24.879,37.326,23.327,37.326,23.327z"/>
<path fill="#529320" d="M32.408,10.369c0,0-0.037,1.809-3.307,3.968c3.738-1.263,4.617-2.457,4.617-2.457S33.1,11.848,32.408,10.369
	z"/>
<path fill="#529320" d="M35.537,35.771c0,0-2.537-0.413-6.52,2.006c4.941-1.371,6.67-0.744,6.67-0.744S35.182,36.406,35.537,35.771z
	"/>
<path fill="#529320" d="M37.25,38.613c0,0-0.443,1.139-1.225,3.5c2.203-2.482,4.324-2.912,4.324-2.912S38.518,39.049,37.25,38.613z"
	/>
<path fill="#529320" d="M46.27,38.672c0,0,1.367,2.545,0.188,6.146c-0.539-5.053-2.189-5.746-2.189-5.746
	S44.814,38.978,46.27,38.672z"/>
<path fill="#302C3B" d="M13.795,12.995c0,3.822-6,3.822-6,0C7.795,9.172,13.795,9.172,13.795,12.995z"/>
<path fill="#FFFFFF" d="M9.958,11.744c0,1-1.5,1-1.5,0S9.958,10.744,9.958,11.744z"/>
<path fill="#FFE12C" d="M34.91,19.564c0,4.459-7,4.459-7,0C27.91,15.105,34.91,15.105,34.91,19.564z"/>
<path fill="#FFE12C" d="M30.283,31.917c0,4.459-7,4.459-7,0C23.283,27.458,30.283,27.458,30.283,31.917z"/>
<path fill="#FFE12C" d="M57.928,41.146c0,4.459-7,4.459-7,0S57.928,36.688,57.928,41.146z"/>
<path fill="#FFE12C" d="M44.188,45.566c0,3.821-6,3.821-6,0C38.188,41.744,44.188,41.744,44.188,45.566z"/>
<path fill="#FFE12C" d="M34.439,42.113c0,3.185-5,3.185-5,0S34.439,38.929,34.439,42.113z"/>
</svg>
