<?xml version="1.0" encoding="utf-8"?>
<!-- Generator: Adobe Illustrator 15.0.0, SVG Export Plug-In . SVG Version: 6.00 Build 0)  -->
<!DOCTYPE svg PUBLIC "-//W3C//DTD SVG 1.1//EN" "http://www.w3.org/Graphics/SVG/1.1/DTD/svg11.dtd">
<svg version="1.1" id="Layer_1" xmlns="http://www.w3.org/2000/svg" xmlns:xlink="http://www.w3.org/1999/xlink" x="0px" y="0px"
	 width="64px" height="64px" viewBox="0 0 64 64" enable-background="new 0 0 64 64" xml:space="preserve">
<path fill="#45332C" d="M30.811,59.151c-1.844-1.58-3.444-10.154-3.978-4.592C26.373,59.349,34.409,62.253,30.811,59.151z"/>
<path fill="#45332C" d="M31.38,38.721c1.108,0.183,1.755,8.211-0.089,9.403c-0.746,0.48-4.732-1.702-3.264-2.065
	C29.813,45.618,30.656,38.6,31.38,38.721z"/>
<path fill="#45332C" d="M30.223,45.759c1.309,0.625,0.287,7.391-0.992,8.852c-0.318,0.361-4.845-0.088-4.334-0.73
	C26.979,51.246,28.977,45.167,30.223,45.759z"/>
<path fill="#F59E01" d="M29.596,45.417l5.98-16.431c-4.959-0.436-6.852,2.519-8.232,6.307
	C25.965,39.085,25.517,42.565,29.596,45.417z"/>
<path fill="#785647" d="M33.993,47.604c0.226,0.083,0.438,0.151,0.658,0.23l6.351-17.447c-0.218-0.083-0.428-0.167-0.652-0.249
	c-1.859-0.676-3.424-1.032-4.773-1.151l-5.98,16.431C30.707,46.193,32.135,46.927,33.993,47.604z"/>
<path fill="#F59E01" d="M40.005,49.433l6.125-16.831c-1.519-0.756-3.222-1.499-5.128-2.215l-6.351,17.447
	C36.572,48.511,38.354,49.035,40.005,49.433z"/>
<path fill="#785647" d="M45.596,50.378l5.426-14.906c-1.373-0.959-2.99-1.924-4.892-2.87l-6.125,16.831
	C42.068,49.93,43.928,50.231,45.596,50.378z"/>
<path fill="#F59E01" d="M51.588,50.224l3.924-10.781c-1.093-1.266-2.551-2.611-4.49-3.971l-5.426,14.906
	C47.956,50.585,49.938,50.489,51.588,50.224z"/>
<path fill="#785647" d="M55.512,39.442l-3.924,10.781c5.059-1.461,6.201-1.045,6.201-1.045S59.025,43.514,55.512,39.442z"/>
<path fill="#D47706" d="M29.337,31.41c-0.84,1.069-1.456,2.411-1.993,3.883c-1.379,3.792-1.827,7.272,2.252,10.124l2.554-7.015
	C30.604,36.828,29.587,34.627,29.337,31.41z"/>
<path fill="#45332C" d="M32.149,38.402l-2.554,7.015c1.111,0.776,2.539,1.51,4.397,2.187c0.226,0.083,0.438,0.151,0.658,0.23
	l2.381-6.54C35.125,40.619,33.451,39.729,32.149,38.402z"/>
<path fill="#D47706" d="M37.032,41.294l-2.381,6.54c1.921,0.677,3.703,1.201,5.354,1.599l2.435-6.69
	C40.524,42.315,38.692,41.882,37.032,41.294z"/>
<path fill="#45332C" d="M42.439,42.742l-2.435,6.69c2.063,0.497,3.923,0.799,5.591,0.945l2.303-6.325
	C46.062,43.537,44.216,43.139,42.439,42.742z"/>
<path fill="#D47706" d="M47.898,44.053l-2.303,6.325c2.36,0.207,4.342,0.111,5.992-0.154l1.538-4.227
	C51.437,45.162,49.672,44.55,47.898,44.053z"/>
<path fill="#45332C" d="M53.126,45.997l-1.538,4.227c5.059-1.461,6.201-1.045,6.201-1.045C56.35,47.834,54.773,46.812,53.126,45.997
	z"/>
<path fill="#FEEC9A" d="M34.86,30.955c17.021,3.003,23.758,14.181,19.981,11.131C44.511,33.74,31.1,30.291,34.86,30.955z"/>
<path opacity="0.6" fill="#8FBEDB" d="M46.587,2C27.093,8.418,23.169,30.107,23.169,30.107S56.108,27.914,46.587,2z"/>
<path opacity="0.6" fill="#8FBEDB" d="M24.995,30.819c0,0,39.005,8.655,36.925-19.563C37.063,11.09,24.995,30.819,24.995,30.819z"/>
<path opacity="0.6" fill="#8FBEDB" d="M23.027,30.491c0,0,18.729,18.111,23.688,2.097C33.628,23.949,23.027,30.491,23.027,30.491z"
	/>
<path fill="#45332C" d="M13.702,37.554c-0.532,0.002,0.728,1.791,1.256,1.741c2.591-0.242,6.869-3.397,6.349-4.232
	C20.908,34.419,16.56,37.552,13.702,37.554z"/>
<path fill="#45332C" d="M15.017,38.512c-0.562-0.492-2.439,0.812-2.552,1.555c-0.03,0.182,1.363,2.097,1.432,1.792
	C14.159,40.619,15.549,38.981,15.017,38.512z"/>
<path fill="#45332C" d="M13.29,44.334c-0.264-1.828,1.071-4.82-0.315-4.177C11.782,40.711,13.806,47.908,13.29,44.334z"/>
<path fill="#45332C" d="M19.032,42.512c-0.465,0.249,1.438,1.227,1.879,0.938c2.165-1.412,4.507-6.152,3.683-6.643
	C23.955,36.431,21.54,41.183,19.032,42.512z"/>
<path fill="#45332C" d="M20.054,42.599c-0.821-0.317-2.376,1.893-2.2,2.761c0.044,0.215,2.369,1.774,2.318,1.41
	C19.962,45.285,20.837,42.901,20.054,42.599z"/>
<path fill="#45332C" d="M20.42,49.558c-0.865-1.604-0.646-4.828-1.709-3.764C17.793,46.714,22.109,52.691,20.42,49.558z"/>
<path fill="#785647" d="M35.788,60.837c-2.076-1.261-5.049-9.459-4.671-3.884C31.441,61.754,39.844,63.313,35.788,60.837z"/>
<path fill="#785647" d="M33.322,39.634c-2.578,2.234-8.137,1.306-8.158,2.508c-0.028,1.56,5.481,2.584,7.941,0.887
	C33.609,42.683,33.803,39.219,33.322,39.634z"/>
<path fill="#785647" d="M33.027,40.584c1.125,0.001,3.066,7.818,1.441,9.294c-0.658,0.596-4.945-0.91-3.556-1.508
	C32.605,47.646,32.295,40.583,33.027,40.584z"/>
<path fill="#785647" d="M33.031,47.715c1.394,0.407,1.484,7.251,0.461,8.897c-0.256,0.409-4.795,0.702-4.396-0.016
	C30.722,53.66,31.705,47.337,33.031,47.715z"/>
<path fill="#F59E01" d="M34.758,37.181l-2.306-0.631c0.864-1.354,2.199-1.514,2.199-1.514c-0.395-3.051-3.235-4.039-3.235-4.039
	c0.465,0.005,1.998-0.242,1.998-0.242c-1.67-3.104-4.794-3.274-6.007-3.401l1.632-1.193c0,0-3.107-0.731-5.105,0.753
	c0.322-0.446,1.229-1.94,1.229-1.94c-8.01,1.073-12.037,12.073-7.093,16.517c0,0,0.991-0.534,1.324-1.069
	c0.9,2.557,3.079,2.812,3.079,2.812l0.17-1.323c1.066,0.644,2.628,2.087,5.367,1.323c0,0-0.299-1.026-0.623-1.362
	c0,0,2.465,1.135,4.899-0.695c0,0-0.812-0.889-1.341-0.983C33.381,39.851,34.758,37.181,34.758,37.181z"/>
<path fill="#D47706" d="M32.093,36.155l-1.813-0.496c0.68-1.064,1.729-1.189,1.729-1.189c-0.311-2.398-2.544-3.175-2.544-3.175
	c0.366,0.004,1.571-0.19,1.571-0.19c-1.313-2.44-3.769-2.573-4.722-2.673l1.282-0.938c0,0-2.441-0.574-4.013,0.592
	c0.254-0.351,0.967-1.525,0.967-1.525c-6.295,0.843-9.461,9.488-5.575,12.981c0,0,0.78-0.42,1.042-0.84
	c0.706,2.009,2.42,2.21,2.42,2.21l0.133-1.041c0.838,0.507,2.065,1.641,4.219,1.041c0,0-0.235-0.808-0.49-1.071
	c0,0,1.938,0.892,3.852-0.546c0,0-0.639-0.699-1.055-0.773C31.011,38.253,32.093,36.155,32.093,36.155z"/>
<path fill="#45332C" d="M7.063,35.351c-1.656,1.534-2.095,4.515,1.39,2.296L7.063,35.351z"/>
<path fill="#45332C" d="M14.862,27.159c-3.374-4.48-7.161-5.319-7.312-4.963c-1.668,3.948-5.354,6.163-5.154,6.742
	c0.334,0.962,5.577-3.045,5.576-5.543c0.002-0.452,3.488,1.216,5.531,4.173C13.708,27.859,15.074,27.446,14.862,27.159z"/>
<path fill="#8C4B0D" d="M19.292,35.72C9.199,40.356,3.633,38.675,8.596,30.813C19.164,14.09,29.901,30.853,19.292,35.72z"/>
<path fill="#AB5C10" d="M22.942,30.03c0.556-4.078-3.889-8.242-9.134-3.623C17.941,25.101,21.327,27.027,22.942,30.03z"/>
<path fill="#302C3B" d="M13.781,35.694c-4.857,2.408-7.391-0.631-3.896-4.586C18.556,21.293,24.064,30.597,13.781,35.694z"/>
<path fill="#4E5E67" d="M9.421,35.493c-1.122,0.22,1.636,1.248,4.378-0.13c5.382-2.699,5.928-7.035,4.022-8.052
	C17.287,27.026,17.609,33.885,9.421,35.493z"/>
<path fill="#FFFFFF" d="M8.616,34.384c-0.113,0.524,5.311-5.686,4.967-5.793C13.391,28.529,9.295,31.266,8.616,34.384z"/>
<path fill="#45332C" d="M16.047,25.206c-2.055-6.019-5.842-8.27-6.128-7.943C6.739,20.91,1.986,21.973,2,22.667
	c0.02,1.149,7.076-1.28,7.951-3.967c0.158-0.485,3.335,2.554,4.496,6.459C14.562,25.545,16.182,25.591,16.047,25.206z"/>
<path fill="#785647" d="M14.243,39.243c-0.521,0.104,1.06,1.615,1.569,1.464c2.495-0.74,6.077-4.667,5.407-5.385
	C20.704,34.769,17.046,38.685,14.243,39.243z"/>
<path fill="#785647" d="M15.692,39.397c-0.646-0.374-2.234,1.268-2.202,2.019c0.008,0.184,1.745,1.791,1.752,1.481
	C15.263,41.631,16.307,39.753,15.692,39.397z"/>
<path fill="#785647" d="M15.131,45.442c-0.613-1.743,0.115-4.938-1.121-4.036C12.947,42.183,16.329,48.85,15.131,45.442z"/>
<path fill="#785647" d="M19.599,44.751c-0.387,0.409,1.872,0.754,2.221,0.311c1.711-2.165,2.471-7.762,1.469-7.976
	C22.514,36.921,21.685,42.554,19.599,44.751z"/>
<path fill="#785647" d="M20.756,44.5c-0.941-0.041-1.764,2.724-1.289,3.542c0.116,0.204,3,0.99,2.824,0.64
	C21.574,47.251,21.65,44.54,20.756,44.5z"/>
<path fill="#785647" d="M23.49,51.421c-1.422-1.331-2.295-4.669-3.009-3.229C19.864,49.435,26.266,54.02,23.49,51.421z"/>
</svg>
