<?xml version="1.0" encoding="utf-8"?>
<!-- Generator: Adobe Illustrator 15.0.0, SVG Export Plug-In . SVG Version: 6.00 Build 0)  -->
<!DOCTYPE svg PUBLIC "-//W3C//DTD SVG 1.1//EN" "http://www.w3.org/Graphics/SVG/1.1/DTD/svg11.dtd">
<svg version="1.1" id="Layer_1" xmlns="http://www.w3.org/2000/svg" xmlns:xlink="http://www.w3.org/1999/xlink" x="0px" y="0px"
	 width="64px" height="64px" viewBox="0 0 64 64" enable-background="new 0 0 64 64" xml:space="preserve">
<path fill="#803856" d="M45.965,60.513h3.516c-0.125-0.866,0.484-1.938,0.484-1.938l-3.641-0.447c0,0-0.609,0.768-0.828,1.982
	l0.651-0.206C46.147,59.904,45.965,60.306,45.965,60.513z"/>
<path fill="#F26887" d="M51.13,56.161c-1.907-1.382-0.898,4.383-0.467,3.76C51.72,58.395,51.747,56.608,51.13,56.161z"/>
<path fill="#FF8FA8" d="M48.121,52.979c1.045,0.883-1.844,3.758-2.156,5.451c1.516-0.223,4.024,0.539,4.024,0.539
	c0.453-1.852,1.732-2.398,1.683-2.644c-0.645-3.187,1.819-1.272,0.846-4.54C49.499,41.655,43.003,48.659,48.121,52.979z"/>
<path fill="#803856" d="M19.507,60.513h3.516c-0.125-0.866,0.484-1.938,0.484-1.938l-3.641-0.447c0,0-0.609,0.768-0.828,1.982
	l0.651-0.206C19.689,59.904,19.507,60.306,19.507,60.513z"/>
<path fill="#FF8FA8" d="M21.663,52.979c0.744,1.159-1.844,3.758-2.156,5.451c1.516-0.223,4.023,0.539,4.023,0.539
	c0.453-1.852,3.49-6.629,3.453-6.877c-1.371-9.007-10.277-9.967-10.277-9.967S19.394,49.448,21.663,52.979z"/>
<path fill="#FF8FA8" d="M53.402,18.733c0.233,3.94,3.848,3.979,5.595,0.879c-0.002,1.229-0.192,3.196-1.826,4.701l1.173,1.604
	c2.811-3.428,2.349-6.767,1.868-8.637c0.762-1.702,1.33-3.492,1.788-5.28c-0.571,1.474-1.196,3.129-1.984,4.672
	C58.059,12.135,53.16,14.612,53.402,18.733z M54.94,17.017c1.533-2.883,4.017-0.559,3.974,1.536
	C56.456,22.644,53.533,19.665,54.94,17.017z"/>
<path fill="#F26887" d="M18.069,18.369c-2.787,0.246-1.156,0.46-4.924,0.841c-1.651,0.167,2.562,13.371,5.479,4.68
	C18.624,23.89,21.757,18.044,18.069,18.369z"/>
<path fill="#FFA3B8" d="M34.755,22.804c-6.191,1.373-15.971-6.28-22.028,1.447c-1.819,2.322-5.771,3.871-7.931,3.929
	c-0.512,0.015-1.478-1.133-1.916-0.831c-1.142,0.785-1.068,4.719-0.375,6.02c0.348,0.652,1.906,0.408,2.225,1.082
	c2.005,4.23,5.325,4.068,7.748,6.84c3.177,3.63,9.115,3.315,15.528,7.307c14.063,8.753,31.272-0.71,33.212-8.893
	C65.277,22.569,53.096,18.74,34.755,22.804z"/>
<path fill="#FF8FA8" d="M17.169,21.786c-0.34-1.816,1.928-5.525,5.615-5.2c2.787,0.246,2.516,2.961,6.282,3.341
	c1.652,0.167-2.561,13.371-5.479,4.68C23.588,24.606,17.885,25.608,17.169,21.786z"/>
<path fill="#F26887" d="M17.355,22.685c-0.764-1.446,1.513-4.591,4.866-4.295c0,0,0.282,2.893,1.366,6.217
	C23.588,24.606,18.922,25.649,17.355,22.685z"/>
<path fill-rule="evenodd" clip-rule="evenodd" fill="#302C3B" d="M12.108,25.831c0,0,1.794-0.262,2.556,1.438
	c0,0-0.934,2.021-2.458,1.24C11.382,28.087,12.108,25.831,12.108,25.831z"/>
<path fill-rule="evenodd" clip-rule="evenodd" fill="#803856" d="M2.789,28.399c0,0,1.753,5.207,0.229,4.426
	C2.194,32.403,2.789,28.399,2.789,28.399z"/>
<path fill="#302C3B" d="M5.314,35.511c-0.348-0.242-0.975-1.4-0.975-1.4s3.992,1.17,5.975-1.757
	C9.653,35.81,5.314,35.511,5.314,35.511z"/>
<path fill="#FF8FA8" d="M38.015,51.985c-13.84-1.811-18.977-7.174-18.977-7.174c0.749,0.045,1.255-0.924,1.295-4.5
	c3.227-0.93,9.241,1.289,10.717,1.592C34.487,46.442,28.921,50.001,38.015,51.985z"/>
<path fill="#803856" d="M22.175,62h3.516c-0.125-0.866,0.484-1.937,0.484-1.937l-3.641-0.448c0,0-0.609,0.768-0.828,1.982
	l0.652-0.206C22.358,61.392,22.175,61.794,22.175,62z"/>
<path fill="#FF8FA8" d="M27.34,57.649c-1.907-1.383-0.899,4.383-0.468,3.76C27.929,59.882,27.956,58.096,27.34,57.649z"/>
<path fill="#FFA3B8" d="M31.785,43.185c0-5.228-11.735-3.808-11.735-3.808s0,9.112,4.943,14.636
	c0.915,1.021-2.506,4.212-2.818,5.906c1.516-0.224,4.024,0.538,4.024,0.538c0.452-1.851,1.732-2.397,1.683-2.644
	c-0.645-3.186,2.069-0.662,0.819-3.83C26.784,49.12,31.785,49.654,31.785,43.185z"/>
<path fill="#FF8FA8" d="M54.384,48.159c0,0-2.084,1.342-4.375,2.016c1.577-1.675,1.577-6.345,1.577-6.345L54.384,48.159z"/>
<path fill="#803856" d="M54.206,62h3.516c-0.125-0.866,0.484-1.937,0.484-1.937l-3.641-0.448c0,0-0.609,0.768-0.828,1.982
	l0.652-0.206C54.39,61.392,54.206,61.794,54.206,62z"/>
<path fill="#FF8FA8" d="M59.371,57.649c-1.907-1.383-0.899,4.383-0.468,3.76C59.96,59.882,59.987,58.096,59.371,57.649z"/>
<path fill="#FFA3B8" d="M62,33.936c0-5.228-10.409,9.636-10.409,9.636s-0.347,6.575,4.771,10.896
	c1.045,0.883-1.844,3.757-2.156,5.451c1.516-0.224,4.024,0.538,4.024,0.538c0.452-1.851,1.732-2.397,1.683-2.644
	c-0.645-3.186,2.615-0.949,0.819-3.83C55.972,46.347,62,48.489,62,33.936z"/>
<path fill="#FFFFFF" d="M12.55,26.404c-0.055,0.548-0.451,0.482-0.395-0.065C12.196,25.921,12.591,25.987,12.55,26.404z"/>
</svg>
