<?xml version="1.0" encoding="utf-8"?>
<!-- Generator: Adobe Illustrator 15.0.0, SVG Export Plug-In . SVG Version: 6.00 Build 0)  -->
<!DOCTYPE svg PUBLIC "-//W3C//DTD SVG 1.1//EN" "http://www.w3.org/Graphics/SVG/1.1/DTD/svg11.dtd">
<svg version="1.1" id="Layer_1" xmlns="http://www.w3.org/2000/svg" xmlns:xlink="http://www.w3.org/1999/xlink" x="0px" y="0px"
	 width="64px" height="64px" viewBox="0 0 64 64" enable-background="new 0 0 64 64" xml:space="preserve">
<path fill="#FFE8BB" d="M11.382,4.317C1.748-2.422-0.272,6.997,4.43,14.01C8.986,11.657,10.24,6.793,11.382,4.317z"/>
<path fill="#FFE8BB" d="M11.326,22.257c3.069-4.055,6.179-9.331,7.92-14.685c-1.87-2.133-4.7-3.313-6.673-2.694
	c-0.743,2.771-2.452,4.754-4.323,6.871c-1.127,1.275-2.027,2.732-3.173,3.881c-1.783,3.462-0.452,9.635,1.641,11.439
	C8.347,25.699,9.894,24.151,11.326,22.257z"/>
<path fill="#FFE8BB" d="M38.611,54.411c3.616,0,23.039,2.535,23.039-5.59c0-18.718-2.378-34.36-25.561-34.36
	c-2.653,7.177-4.328,6.559-1.583-0.047c-1.578-5.021-8.815-8.62-14.463-6.45c-1.503,5.135-4.225,10.36-7.144,14.216
	c-1.818,2.405-3.731,4.602-5.867,6.61C7.033,45,24.652,54.411,38.611,54.411z"/>
<path fill="#D6A57C" d="M12.976,4.779c0,0-1.051,0.083-1.952-0.708c-2.602,6.333-6.96,9.365-6.96,9.365
	c1.123,1.59,0.568,3.309,0.568,3.309C5.974,15.319,10.773,11.279,12.976,4.779z"/>
<path fill="#302C3B" d="M24.719,29.862c-1.817,1.989,33.806,32.314,33.806,29.296c-0.002-3.436-0.538-3.491-0.622-5.279
	c-0.082-1.786,2.646-8.806-0.372-13.041c-1.279-1.798-6.281-8.642-7.521-10.544S39.677,25.54,37.61,25.281
	c-2.065-0.26-11.078,2.594-12.895,4.581"/>
<path fill="#B47D56" d="M58.754,48.711c-1.018-0.751-8.906-0.854-12.855-2.766c-5.732-2.778-10.472-4.675-12.021-8.944
	c-1.427-3.911-2.421-8.349-2.588-10.342c-0.096-1.135-6.332,2.947-6.564,3.203c-1.818,1.989-1.607,5.969,0.376,10.724
	c1.984,4.753,8.537,10.702,9.585,10.816c1.05,0.111,8.353,6.121,11.244,6.555c2.895,0.431,3.557,0.235,4.301,0.84
	s2.148,1.84,2.975,1.84c0.522,0,2.58,1.439,3.939,0.726c1.596-0.244,1.605-3.038,1.408-6.021c-0.181-2.736,1.546-5.642,0.205-6.63"
	/>
<path fill="#F5CFA0" d="M52.162,58.223c-5.514-0.467-22.598-8.767-26.044-17.736c-1.493-3.886,0.462-9.461,0.295-11.46
	c-0.096-1.135-1.462,0.574-1.695,0.83c-1.817,1.988-3.956,7.737-2.066,12.526C27.543,54.785,49.132,62,53.314,62
	c2.724,0,4.209-0.758,4.209-0.758S55.776,58.528,52.162,58.223z"/>
<path fill="#D6A57C" d="M20.753,7.725c-1.508,0.25-2.268-0.889-2.268-0.889c-2.221,7.015-9.69,17.36-12.449,19.457
	c0.902,1.343,1.033,3.737,1.033,3.758C10.552,26.683,18.506,17.218,20.753,7.725z"/>
<path fill="#D6A57C" d="M31.004,27.069c0,0,3.691-5.416,6.343-12.592c0,0-1.956,0.104-3.102-0.764
	c-2.745,6.605-7.944,14.239-7.944,14.239L31.004,27.069z"/>
<path fill="#D6A57C" d="M23.82,31.688c0.514-0.69,5.91-3.233,9.812-3.497c13.077-0.887,24.044,13.583,24.731,20.46
	c0.158,1.569-1.38,3.664-1.389,4.95c-0.02,3.339,1.616,5.203,1.616,5.203s0.073-2.996,1.161-5.082
	c0.215-0.411,2.271-3.601,2.248-5.105c-0.207-13.516-16.722-25.344-26.551-24.654c-6.12,0.43-10.219,4.613-10.725,5.057
	c-1.736,1.526-1.658,3.688-0.899,2.669"/>
<path fill="#FFFFFF" d="M32.327,14.646c0.2,1.473-12.776-4.567-10.375-5.417C24.861,8.199,31.856,11.189,32.327,14.646z"/>
<path fill="#FFFFFF" d="M17.432,8.395c0.08,0.587-5.095-1.821-4.138-2.16C14.455,5.824,17.245,7.017,17.432,8.395z"/>
<path fill="#FFFFFF" d="M9.745,4.896C4.151,3.521,2.634,5.22,3.242,4.406C5.523,1.354,11.095,5.228,9.745,4.896z"/>
<path fill="#FFFFFF" d="M58.487,30.885c0.821,3.188-4.934-9.301-18.371-12.926C31.623,15.668,54.366,14.896,58.487,30.885z"/>
</svg>
