<?xml version="1.0" encoding="utf-8"?>
<!-- Generator: Adobe Illustrator 15.0.0, SVG Export Plug-In . SVG Version: 6.00 Build 0)  -->
<!DOCTYPE svg PUBLIC "-//W3C//DTD SVG 1.1//EN" "http://www.w3.org/Graphics/SVG/1.1/DTD/svg11.dtd">
<svg version="1.1" id="Layer_1" xmlns="http://www.w3.org/2000/svg" xmlns:xlink="http://www.w3.org/1999/xlink" x="0px" y="0px"
	 width="64px" height="64px" viewBox="0 0 64 64" enable-background="new 0 0 64 64" xml:space="preserve">
<path fill="#302C3B" d="M9.037,17.609c0,0,3.552,0.924,0.428,4.455C16.371,20.002,19.792,13.125,9.037,17.609z"/>
<path fill-rule="evenodd" clip-rule="evenodd" fill="#B47D56" d="M21.285,3.947c0.32-1.791,2.791,1.613,2.164,6.688
	c0,0-2.326-0.578-3.902-0.797C19.546,9.839,20.578,7.888,21.285,3.947z"/>
<path fill-rule="evenodd" clip-rule="evenodd" fill="#B47D56" d="M51.527,40.016c0.301-7.618-11.016,3.921-11.016,3.921
	c3.232,5.481,10.246,7.006,9.955,14.33c-0.045,1.124-5.08-0.249-5.08,3.733h8.67C57.697,56.484,51.43,42.46,51.527,40.016z"/>
<path fill-rule="evenodd" clip-rule="evenodd" fill="#B47D56" d="M22.316,42.609c-0.406,5.661,4.453,8.204,4.854,15.657
	c0.076,1.406-5.26,0.114-5.26,3.733h7.814c2.672-9.021,2.549-13.729,0.584-19.497C30.308,42.503,22.404,41.367,22.316,42.609z"/>
<path fill="#C4926E" d="M49.666,29.4c5.199-0.355,11.557-12.355,11.371-7.31c-0.164,4.47-4.162,8.745-4.223,13.198L49.666,29.4z"/>
<path fill-rule="evenodd" clip-rule="evenodd" fill="#D6A57C" d="M61.752,48.532c-0.268-1.632-4.363-4.372-3.146-6.503
	c1.941-3.402,2.818-11.161-4.693-13.855c-3.904-1.396-17.73,1.723-23.215-3.424c-3.479-3.264,1.063-18.158-4.955-22.623
	c-1.375-1.021-1.893,4.322-3.215,7.262C4.932,10.105,2.264,12.803,2.264,14.172c0,1.576,0.551,3.343,1.92,3.986
	c4.125,1.938,12.5-3.875,9.687,0.172c-2.4,3.453-8.363,3.313-7.937,3.641c4.409,3.404,11.335,2.438,11.335,2.438
	c-0.729,13.384,2.563,31.163,0.924,33.858c-0.732,1.21-5.26,0.113-5.26,3.732h7.816c4.008-7.162,4.676-11.168,5.438-14.719
	c0,0,14.377,2.068,22.387-5.252c3.232,5.48,5.807,7.783,7.947,9.148c1.164,0.742-0.838,5.895-1.564,7.09
	c-0.586,0.965-5.08-0.25-5.08,3.732h8.668C62.186,56.484,62.313,51.941,61.752,48.532z"/>
<path fill-rule="evenodd" clip-rule="evenodd" fill="#302C3B" d="M18.773,11.971c0,0,1.947-0.243,2.775,1.344
	c0,0-1.014,1.89-2.67,1.159C17.984,14.08,18.773,11.971,18.773,11.971z"/>
<path fill-rule="evenodd" clip-rule="evenodd" fill="#785647" d="M24.812,3.577c0.32-1.791,1.678,1.454,1.051,6.528
	c0,0-1.213-0.418-2.789-0.637C23.074,9.469,24.105,7.518,24.812,3.577z"/>
<path fill-rule="evenodd" clip-rule="evenodd" fill="#302C3B" d="M4.643,11.964c0,0-4.442-0.386-1.807,4.825
	C3.303,17.711,4.074,13.39,4.643,11.964z"/>
<path fill="#B47D56" d="M50.42,27.774c0,0-15.273,0.297-19.358-2.704c-6.746,9.094,1.438,14.292,6.36,10.557
	C44.975,29.895,57.512,36.672,50.42,27.774z"/>
<path fill="#8CDBB3" d="M16.974,31.033v-3.406c8.633-0.657,12.547-6.203,12.547-6.203l1.176,3.203
	C30.5,24.916,26.082,30.34,16.974,31.033z"/>
<path fill="#CFD8DD" d="M17.091,36.721l-0.234-4.902c1.68-1.176,3.498-0.545,3.498-0.545l0.25,5.135
	C20.605,36.408,18.621,37.549,17.091,36.721z"/>
<path fill="#FFFFFF" d="M17.274,34.719L17.211,33.5c1.354-0.672,2.922-1.391,2.922-1.391l0.063,1.234
	C20.196,33.344,18.899,34.063,17.274,34.719z"/>
<path fill="#FFFFFF" d="M17.33,36.016l-0.031-0.563c1.354-0.672,2.922-1.391,2.922-1.391l0.031,0.578
	C20.251,34.641,18.955,35.359,17.33,36.016z"/>
<path fill="#302C3B" d="M18.011,32.279l-0.234-4.902c0.453-0.426,1.261-0.188,1.261-0.188L19.296,32
	C19.099,32.289,18.464,32.498,18.011,32.279z"/>
<path fill="#C4926E" d="M26.187,47.281c0,0,0.647-2.694,0.647-5.644c0,0,1.637,4.872,2.899,5.899
	C29.734,47.537,27.386,47.537,26.187,47.281z"/>
<path fill="#E03636" d="M11.69,20.254c-7.047,0.123-10.471,5.592-8.475,5.592C6.074,25.846,6.309,22.978,11.69,20.254z"/>
<path fill="#FFFFFF" d="M19.351,12.623c-0.065,0.671-0.546,0.591-0.479-0.08C18.923,12.031,19.402,12.111,19.351,12.623z"/>
</svg>
