<?xml version="1.0" encoding="utf-8"?>
<!-- Generator: Adobe Illustrator 15.0.0, SVG Export Plug-In . SVG Version: 6.00 Build 0)  -->
<!DOCTYPE svg PUBLIC "-//W3C//DTD SVG 1.1//EN" "http://www.w3.org/Graphics/SVG/1.1/DTD/svg11.dtd">
<svg version="1.1" id="Layer_1" xmlns="http://www.w3.org/2000/svg" xmlns:xlink="http://www.w3.org/1999/xlink" x="0px" y="0px"
	 width="64px" height="64px" viewBox="0 0 64 64" enable-background="new 0 0 64 64" xml:space="preserve">
<path fill="#6E8189" d="M21.414,38.793c5.507,11.617,3.104,13.061,5.388,17.951c0.947,2.029-1.443,1.08-0.852,3.973h5.873
	c0.57-1.635-0.792-2.389-1.019-3.604c-1.919-10.352,0.567-13.406,0.497-17.068C31.207,35.186,20,35.809,21.414,38.793z"/>
<path fill="#99A8AE" d="M27.271,60.717h-1.35C25.921,59.482,27.271,59.482,27.271,60.717z"/>
<path fill="#99A8AE" d="M28.62,60.717h-1.35C27.271,59.482,28.62,59.482,28.62,60.717z"/>
<path fill="#6E8189" d="M49.53,45.57c1.397,4.609,3.261,0.131,6.646,10.537c0.699,2.148-1.307,2.42-1.068,4.629h5.506
	c0,0,2.045-1.584,1.166-2.926c-1.103-1.686-0.006-1.836-1.178-3.859c-4.797-8.283-0.272-9.674-5.91-18.629
	C52.188,31.341,48.562,42.373,49.53,45.57z"/>
<path fill="#99A8AE" d="M56.459,60.736h-1.351C55.108,59.502,56.459,59.502,56.459,60.736z"/>
<path fill="#99A8AE" d="M57.809,60.736h-1.35C56.459,59.502,57.809,59.502,57.809,60.736z"/>
<path fill="#99A8AE" d="M14.203,22.889c-2.418,8.516,3.526,9.509,3.623,12.883c0.309,10.824-6.027,14.273-5.494,20.756
	c0.26,3.162-1.255,1.824-2.107,3.74C9.886,61.025,10.881,62,11.965,62h4.227c0.57-1.633-0.686-1.939-0.543-2.813
	c1.35-8.271,7.555-10.063,8.431-11.643c0.73-1.318,1.434-4.938,2.771-5.373c4.194-1.371,5.535,5.295,17.612,3.713
	c2.961,2.846,1.762,9.555,0.924,12.566c-0.25,0.898-1.728,1.521-1.491,3.549h6.678c0.425-0.545-0.409-2.592-0.427-3.313
	c-0.282-12.275,6.49-16.279,6.111-26c1.879,6.258-2.273,11.486,1.231,16.859c-2.132-4.689,2.843-11.432,0.261-20.652
	c-1.754-6.26-7.066-15.438-19.838-11.485C27.868,20.518,18.063,9.296,14.203,22.889z"/>
<path fill="#BEC3CF" d="M13.314,62h-1.35C11.965,60.766,13.314,60.766,13.314,62z"/>
<path fill="#BEC3CF" d="M45.292,62H43.94C43.94,60.768,45.292,60.768,45.292,62z"/>
<path fill="#BEC3CF" d="M46.642,62h-1.35C45.292,60.768,46.642,60.768,46.642,62z"/>
<path fill="#BEC3CF" d="M11.511,61.943c0,0-1.016,0-1.321-1.133C10.584,59.393,11.511,60.393,11.511,61.943z"/>
<path fill="#6E8189" d="M25.317,44.326c0,0,2.847-6.502,2.847-10.571c0-4.071,2.272,9.396,7.706,11.694
	C32.151,44.221,27.075,41.186,25.317,44.326z"/>
<path fill="#6E8189" d="M44.78,46.225c-0.48-1.285,0.535-5.338,0.285-8.467c-0.959,6.527-1.352,7.695-5.187,8.338
	C42.633,46.418,42.934,45.885,44.78,46.225z"/>
<path fill="#6E8189" d="M24.528,16.365c1.832,1.968,4.017,4.096,4.674,5.19c1.667,2.774-2.309,8.853-5.554,9.616
	c-1.477,0.348-5.92,5.195-5.961,8.08c-0.354-4.002-1.064-2.084-3.367-9.39C15.424,24.493,21.979,16.715,24.528,16.365z"/>
<path fill="#99A8AE" d="M23.369,29.318c4.103-1.383,6.06-7.096,4.159-9.091c-1.596-1.676-4.337-6.01-4.942-6.128
	c-2.534-0.498-7.754,0.977-10.124,2.094c-1.695,0.799-5.069-1.455-6.004,4.742c-0.208,1.376-3.872,8.179-3.872,16.674
	c0,14.719,10.295,14.486,12.115,4.731c0.09-0.488-1.633-0.827-1.757-0.345c-1.649,6.414-6.836,5.711-6.378-2.174
	c0.123-2.115,0.315-3.461,1.331-5.254c2.167-3.559,3.092-2.039,6.022-3.004C16.192,38.672,18.555,34.729,23.369,29.318z"/>
<path fill="#6E8189" d="M3.144,42.313c2.423-0.867,3.663-4.727,3.663-4.727c-0.014,0.078,0.668-2.355,1.09-3.018
	c2.523,0.529,2.879-1.189,2.807-2.434c0.817,0.416,2.757,0.234,3.274-0.493c0,0-0.565-1.298,0.124-6.704
	c-1.314,6.889-2.926,6.705-3.936,5.992c-0.28-0.197,1.159-0.93,1.385-2.193c-0.759,0.969-1.576,1.146-2.02,1.126
	c0.07,6.085-3.073,1.542-4.264,3.794c-0.209,0.396,0.504,1.521,0.504,1.521S5.146,38.553,3.144,42.313z"/>
<path fill="#6E8189" d="M14.532,23.04c1.805-3.228,2.333-3.276,4.005-4.648c1.592-1.304,1.915-2.712,0.01-1.833
	C16.697,17.412,15.645,18.279,14.532,23.04z"/>
<path fill="#6E8189" d="M8.816,27.736c1.815-0.979,1.504-1.093,2.287-2.023c0.746-0.885,1.531-1.048,1.017,0.021
	C11.621,26.771,11.473,27.171,8.816,27.736z"/>
<path fill="#E6EBEF" d="M7.24,33.518c0.058-0.442-1.475-0.582-1.6-0.158C4.619,36.816,2.004,40.127,2,40.848
	C1.994,41.5,6.813,36.758,7.24,33.518z"/>
<path fill-rule="evenodd" clip-rule="evenodd" fill="#302C3B" d="M7.427,24.34c0,0,1.138-0.184,1.616,1.018
	c0,0-0.59,1.432-1.553,0.879C6.967,25.938,7.427,24.34,7.427,24.34z"/>
<path fill="#FFFFFF" d="M7.77,24.764C7.73,25.18,7.463,25.13,7.5,24.715C7.529,24.398,7.798,24.449,7.77,24.764z"/>
</svg>
