<?xml version="1.0" encoding="utf-8"?>
<!-- Generator: Adobe Illustrator 15.0.0, SVG Export Plug-In . SVG Version: 6.00 Build 0)  -->
<!DOCTYPE svg PUBLIC "-//W3C//DTD SVG 1.1//EN" "http://www.w3.org/Graphics/SVG/1.1/DTD/svg11.dtd">
<svg version="1.1" id="Layer_1" xmlns="http://www.w3.org/2000/svg" xmlns:xlink="http://www.w3.org/1999/xlink" x="0px" y="0px"
	 width="64px" height="64px" viewBox="0 0 64 64" enable-background="new 0 0 64 64" xml:space="preserve">
<path fill="#302C3B" d="M11.874,48.567c-0.852-1.373,2.137-3.94,5.91-5.579c0.486-0.209-1.328-3.676-1.775-3.389
	c-4.92,3.155-7.33,8.203-6.844,8.919c3.412,5.036,7.395,13.593,6.871,11.004C15.593,57.335,13.55,51.271,11.874,48.567z"/>
<path fill="#302C3B" d="M52.126,48.567c0.852-1.373-2.137-3.94-5.91-5.579c-0.486-0.209,1.328-3.676,1.775-3.389
	c4.92,3.155,7.33,8.203,6.844,8.919c-3.412,5.036-7.395,13.593-6.871,11.004C48.407,57.335,50.45,51.271,52.126,48.567z"/>
<path fill="#302C3B" d="M19.68,24.115c-4.819-0.786-5.991,2.413-7.799,3.712c-2.136,1.535-11.701,2.44-9.574,2.967
	c1.602,0.396,7.265,0.984,9.479-0.062c1.776-0.839,3.975-3.996,7.262-2.777C19.469,28.112,20.118,24.185,19.68,24.115z"/>
<path fill="#302C3B" d="M44.32,24.115c4.819-0.786,5.991,2.413,7.799,3.712c2.136,1.535,11.701,2.44,9.574,2.967
	c-1.602,0.396-7.265,0.984-9.479-0.062c-1.776-0.839-3.975-3.996-7.262-2.777C44.531,28.112,43.883,24.185,44.32,24.115z"/>
<path fill="#302C3B" d="M15.481,14.958c-1.517-1.168-4.662-8.014-4.408-6.294c0.192,1.295,1.366,5.652,2.606,7.011
	c0.994,1.088,3.52,1.863,3.666,4.631c0.018,0.354,2.594-0.228,2.519-0.572C19.04,15.948,16.766,15.947,15.481,14.958z"/>
<path fill="#302C3B" d="M48.519,14.958c-1.284,0.989-3.558,0.99-4.384,4.775c-0.074,0.345,2.502,0.927,2.52,0.572
	c0.146-2.768,2.672-3.543,3.666-4.631c1.24-1.359,2.414-5.716,2.605-7.011C53.181,6.943,50.035,13.789,48.519,14.958z"/>
<path fill="#C21413" d="M22.619,21.5c-3.139-0.051-9.574-0.3-9.574,7.836C13.045,52.071,26.676,56.99,32,56.99
	s18.955-4.916,18.955-27.655c0-8.136-6.434-7.887-9.573-7.836C36.691,21.571,27.309,21.571,22.619,21.5z"/>
<path fill="#E03636" d="M21.445,25.142c-3.196-0.847-5.637-1.065-5.637,5.784c0,19.144,12.325,23.312,15.501,23.312
	c6.466,0,16.966-29.943,8.122-28.214C36.692,26.561,29.413,27.25,21.445,25.142z"/>
<path fill="#302C3B" d="M33.093,32.991c0,31.234-2.187,31.234-2.187,0C30.906,18.486,33.093,18.486,33.093,32.991z"/>
<path fill="#302C3B" d="M24.867,24.823c0-3.611,14.266-3.611,14.266,0C39.133,33.998,24.867,33.998,24.867,24.823z"/>
<path fill="#302C3B" d="M21.276,37.451c0.803-2.692,7.925,0.041,7.125,2.733C27.346,43.721,20.225,40.987,21.276,37.451z"/>
<path fill="#302C3B" d="M42.723,37.451c-0.803-2.692-7.925,0.041-7.122,2.733C36.652,43.721,43.773,40.987,42.723,37.451z"/>
<path fill="#302C3B" d="M19.624,47.685c1.582-2.324,5.944,2.078,4.362,4.402C23.05,53.459,18.69,49.055,19.624,47.685z"/>
<path fill="#302C3B" d="M44.375,47.685c-1.58-2.324-5.942,2.078-4.361,4.402C40.948,53.459,45.309,49.055,44.375,47.685z"/>
<path fill="#302C3B" d="M13.996,28.884c0.559-2.69,5.546,0.044,4.983,2.735C18.243,35.153,13.257,32.422,13.996,28.884z"/>
<path fill="#302C3B" d="M50.005,28.884c-0.56-2.69-5.546,0.044-4.984,2.735C45.756,35.153,50.742,32.421,50.005,28.884z"/>
<path fill="#302C3B" d="M37.415,11.37c-4.478-0.766-6.346-0.766-10.835,0c-4.835,0.826-10.86,6.757-10.86,9.084
	c0,5.853,32.556,5.853,32.556,0C48.275,18.127,42.251,12.196,37.415,11.37z"/>
<path fill="#302C3B" d="M26.401,13.746c-2.152-5.425-3.676-7.407-4.495-7.203c-5.229,1.303-3.76-5.588,0.525-0.868
	c1.545,1.704,4.903,6.566,5.305,7.524C27.906,13.605,26.627,14.332,26.401,13.746z"/>
<path fill="#302C3B" d="M38.231,13.746c2.153-5.425,3.677-7.407,4.495-7.203c5.229,1.303,3.76-5.588-0.524-0.868
	c-1.544,1.704-4.901,6.566-5.304,7.524C36.727,13.605,38.007,14.332,38.231,13.746z"/>
<path fill="#4E5E67" d="M30.372,12.223c5.126,0,9.759,11.217-0.712,11.217C9.322,23.44,22.276,12.223,30.372,12.223z"/>
<path fill="#FFFFFF" d="M42.434,16.688c-0.832,1.74-6.886-0.41-6.056-2.149C37.467,12.249,43.52,14.396,42.434,16.688z"/>
<path fill="#FFFFFF" d="M21.574,16.688c0.83,1.74,6.883-0.41,6.054-2.149C26.543,12.249,20.488,14.396,21.574,16.688z"/>
</svg>
