<?xml version="1.0" encoding="utf-8"?>
<!-- Generator: Adobe Illustrator 15.0.0, SVG Export Plug-In . SVG Version: 6.00 Build 0)  -->
<!DOCTYPE svg PUBLIC "-//W3C//DTD SVG 1.1//EN" "http://www.w3.org/Graphics/SVG/1.1/DTD/svg11.dtd">
<svg version="1.1" id="Layer_1" xmlns="http://www.w3.org/2000/svg" xmlns:xlink="http://www.w3.org/1999/xlink" x="0px" y="0px"
	 width="64px" height="64px" viewBox="0 0 64 64" enable-background="new 0 0 64 64" xml:space="preserve">
<path fill="#E81C27" d="M37.807,9.774c-2.824-4.313,0.859-5.669-0.544-7.063c-1.819-1.81-9.025-0.502-8.9,7.906
	c-4.249-2.756-0.942-5.101-3.057-5.898c-2.799-1.059-9.374,2.479-5.152,11.463c-3.806,1.281-2.742-5.251-5.129-2.227
	c-4.28,5.422,2.932,18.561,9.624,10.18c6.719-8.413,9.686-2.502,15.525-5.982c7.745-4.619,7.547-11.682,3.765-11.926
	C41.628,6.075,41.787,7.003,37.807,9.774z"/>
<path fill="#E6EBEF" d="M17.32,35.043c0.199,5.641-3.088,16.191-0.954,20.277c1.888,3.613,7.453,4.462,10.829,3.46
	c1.831,4.144,10.444,3.265,10.43,0.325c1.895,3.207,10.219,2.975,10.834-0.99c3.182,0.977,7.004-0.78,8.602-2.781
	c3-3.752-2.158-14.65-1.988-20.291C55.974,5.582,16.268,5.582,17.32,35.043z"/>
<path fill="#CFD8DD" d="M55.072,35.049c-1.695,10.26,5.717,21.348-5.167,23.328c2.805,0.193,5.788-1.329,7.155-3.038
	C60.061,51.586,54.901,40.688,55.072,35.049z"/>
<path fill="#CFD8DD" d="M17.494,56.807c0,0,8.639,6.053,10.756-2.427C30.271,59.893,23.216,62.236,17.494,56.807z"/>
<path fill="#CFD8DD" d="M28.49,60.364c0,0,8.483,3.846,8.853-5.603C39.818,59.887,35.553,64.585,28.49,60.364z"/>
<path fill="#CFD8DD" d="M38.9,60.338c0,0,8.291,3.39,9.254-5.958C51.436,60.285,44.154,64.049,38.9,60.338z"/>
<path fill="#C21413" d="M11.147,39.299c-6.359,3.113,0.43,11.446,5.917,7.359c8.078-6.017,2.177-14.313,2.177-14.313
	S18.245,35.826,11.147,39.299z"/>
<path fill="#E81C27" d="M15.184,41.305c-6.768,6.242,4.015,12.962,9.132,5.871c6.942-9.615-3.606-15.794-3.606-15.794
	S22.072,34.951,15.184,41.305z"/>
<path fill="#D47706" d="M25.674,33.131c0,0-12.667-4.13-19.342,5.905C12.349,35.646,23.61,45.264,25.674,33.131z"/>
<path fill="#F59E01" d="M24.628,35.93c4.003-4.526-1.619-12.211-6.769-11.076C7.184,27.202,6,39.508,6,39.508
	C13.229,32.637,19.13,42.145,24.628,35.93z"/>
<path id="Shape_68_" fill="#AB5C10" d="M19.937,27.699c0.306,0.88-1.971,1.381-2.278,0.5C17.351,27.317,19.629,26.817,19.937,27.699
	L19.937,27.699z"/>
<path fill="#302C3B" d="M35.232,26.086c0,2.482-2.016,4.5-4.5,4.5c-2.49,0-4.5-2.018-4.5-4.5c0-2.483,2.01-4.5,4.5-4.5
	C33.217,21.586,35.232,23.603,35.232,26.086z"/>
<path id="Shape_73_" fill="#FFFFFF" d="M29.789,24.188c0,1.746-2.097,1.746-2.097,0S29.789,22.441,29.789,24.188L29.789,24.188z"/>
</svg>
