<?xml version="1.0" encoding="utf-8"?>
<!-- Generator: Adobe Illustrator 15.0.0, SVG Export Plug-In . SVG Version: 6.00 Build 0)  -->
<!DOCTYPE svg PUBLIC "-//W3C//DTD SVG 1.1//EN" "http://www.w3.org/Graphics/SVG/1.1/DTD/svg11.dtd">
<svg version="1.1" id="Layer_1" xmlns="http://www.w3.org/2000/svg" xmlns:xlink="http://www.w3.org/1999/xlink" x="0px" y="0px"
	 width="64px" height="64px" viewBox="0 0 64 64" enable-background="new 0 0 64 64" xml:space="preserve">
<path fill="#E6EBEF" d="M55.353,15.035c-9.488-5.504-20.5-1.202-22.736,9.3c-0.547,2.576-1.35,12.362,6.041,9.14
	c4.461,1.88,3.136,9.209,3.136,9.209s7.483-3.418,4.556-11.626c4.295,0,7.209,7.304,7.209,7.304s2.936-7.039,0.811-13.296
	c3.869-0.378,7.428,4.99,7.428,4.99S63.784,19.927,55.353,15.035z"/>
<path fill="#F59E01" d="M31.026,62H17.578c0-1.104,7.865-1.273,8.24-8.752C27.023,61.571,31.026,60.896,31.026,62z"/>
<path fill="#F59E01" d="M17.678,58.07l-8.333-9.586c0.597-0.684,5.56,4.816,9.819,0.45C15.427,54.951,18.273,57.387,17.678,58.07z"
	/>
<path fill="#E6EBEF" d="M40.635,33.393c0-10.39-7.407-2.106-16.542-2.106c-14.142,0,5.809-19.853-10.101-19.853
	c-5.119,0-6.441,15.029-6.441,21.959c0,8.784,5.302,16.14,12.458,18.211c0.206,2.151,3.179,5.072,5.82,5.072
	c2.643,0,5.578-4.292,5.781-6.54C36.962,47.021,40.635,40.701,40.635,33.393z"/>
<path fill="#CFD8DD" d="M28.987,50.229c-0.605,3.957-2.738,6.41-6.063,5.436c0.909,0.611,1.929,1.011,2.904,1.011
	c2.643,0,5.752-2.905,5.781-6.54c5.353-3.115,9.025-9.435,9.025-16.743C40.223,39.937,34.341,47.114,28.987,50.229z"/>
<path fill="#BEC3CF" d="M39.569,38.142c0,0-2.852,1.106-7.682-0.676C32.741,47.481,39.569,38.142,39.569,38.142z"/>
<path fill="#BEC3CF" d="M18.233,45.472c8.28,4.779,15.117,2.1,15.117,2.1c-5.98-1.438-8.154-8.64-15.175-9.691
	C14.033,37.261,9.185,40.251,18.233,45.472z"/>
<path fill="#E6EBEF" d="M20.233,45.687c12.063,4.032,20.611-5.103,20.611-5.103c-8.284,0.877-12.717-11.375-22.305-9.147
	C12.88,32.75,7.052,41.28,20.233,45.687z"/>
<path fill="#CFD8DD" d="M26.368,32.793c4.201,3.247,7.477,8.298,12.705,8.192c0,0-8.986,8.172-20.417,3.248
	c-3.11-1.339-5.053-2.828-6.135-4.322c0.735,2.106,3.01,4.203,7.712,5.775c12.063,4.032,20.611-5.103,20.611-5.103
	C35.179,41.185,31.313,35.643,26.368,32.793z"/>
<path fill="#C21413" d="M8.495,27.866c-0.758,8.223-9.488,4.469-5.418-2.206c3.67-6.02,9.575-8.988,9.575-8.988
	S8.858,23.921,8.495,27.866z"/>
<path fill="#D47706" d="M9.879,19.913c0,0-5.073-1.595-7.747,2.281C4.542,20.885,9.052,24.599,9.879,19.913z"/>
<path fill="#F59E01" d="M9.46,20.994c1.603-1.748-0.648-4.716-2.711-4.278C2.474,17.624,2,22.376,2,22.376
	C4.895,19.722,7.258,23.395,9.46,20.994z"/>
<path fill="#E6EBEF" d="M6.679,28.928L7.55,40.177l5.51-6.938l9.867-3.094c0,0-3.496-0.347-3.433-3.179
	c0.064-2.833,3.095-10.968,1.138-13.365c-1.958-2.396-10.502,0-10.502,0L6.679,28.928z"/>
<ellipse fill="#E81C27" cx="12.824" cy="19.945" rx="4.42" ry="4.164"/>
<path fill="#E81C27" d="M9.392,29.151c1.699,8.09-7.778,6.886-5.846-0.629c1.744-6.778,6.528-11.242,6.528-11.242
	S8.576,25.269,9.392,29.151z"/>
<path fill="#E81C27" d="M21.812,13.102c0.033-0.52,0.041-1.069-0.008-1.683c-0.276-3.424,3.514-6.509,3.514-6.509
	s-6.223-0.877-8.888,4.161c-0.318,0.6-0.565,1.28-0.737,1.984c-0.117-0.5-0.267-1.02-0.488-1.576C13.963,6.353,16.653,2,16.653,2
	s-6.125,1.536-7.195,7.305c-0.215,1.166-0.187,2.479,0.083,3.653c-0.107-0.104-0.196-0.21-0.312-0.314
	C7.26,10.886,7.787,6.472,7.787,6.472s-4.011,3.861-2.864,8.599c0.67,2.761,3.233,5.544,5.412,3.242
	c0.66-0.696,2.303-1.796,3.306-2.104c0.743-0.229,2.615-0.139,3.786,0.795c1.082,0.862,1.872,2.374,3.448,2.449
	c6.666,0.318,7.877-8.87,7.877-8.87S25.334,12.235,21.812,13.102z"/>
<path fill="#302C3B" d="M12.044,20.521c-2.086,0-2.086-3.553,0-3.553C14.128,16.968,14.128,20.521,12.044,20.521z"/>
<path id="Shape_74_" fill="#FFFFFF" d="M11.763,18.123c0,0.62-0.873,0.62-0.873,0S11.763,17.503,11.763,18.123L11.763,18.123z"/>
<path fill="#CFD8DD" d="M61.796,30.056c-1.221-6.994-11.635-9.827-16.604-5.035C44.683,25.511,55.087,21.604,61.796,30.056z"/>
<path fill="#CFD8DD" d="M53.558,38.361c-1.221-6.993-5.644-9.747-10.311-7.81C42.587,30.826,46.85,29.909,53.558,38.361z"/>
<path fill="#CFD8DD" d="M41.793,42.684c2.589-4.632,0.319-10.118-3.31-10.882C37.78,31.653,41.177,32.058,41.793,42.684z"/>
</svg>
