<?xml version="1.0" encoding="utf-8"?>
<!-- Generator: Adobe Illustrator 15.0.0, SVG Export Plug-In . SVG Version: 6.00 Build 0)  -->
<!DOCTYPE svg PUBLIC "-//W3C//DTD SVG 1.1//EN" "http://www.w3.org/Graphics/SVG/1.1/DTD/svg11.dtd">
<svg version="1.1" id="Layer_1" xmlns="http://www.w3.org/2000/svg" xmlns:xlink="http://www.w3.org/1999/xlink" x="0px" y="0px"
	 width="64px" height="64px" viewBox="0 0 64 64" enable-background="new 0 0 64 64" xml:space="preserve">
<path fill="#8A6859" d="M22.507,12.507c-1.84-3.948-6.491-5.591-12.75-5.802c-2.352-0.079-11.412-2.614-6.13,3.904
	c3.453,4.262-0.32,15.619,4.825,18.822C14.583,33.248,24.35,16.463,22.507,12.507z"/>
<path fill="#F89987" d="M10.461,9.672c-2.25-1.311-9.996-3.785-6.703,0.017c5.347,6.172-0.32,20.786,8.999,18.418l5.366-10.488
	C14.329,15,13.598,11.498,10.461,9.672z"/>
<path fill="#D67F6F" d="M10.461,9.672C9.885,9.336,8.945,8.924,7.925,8.56c3.694,4.132-0.03,15.917,6.152,16.515l4.046-7.455
	C14.329,15,13.598,11.498,10.461,9.672z"/>
<path fill="#8A6859" d="M41.482,12.507C43.32,8.56,47.974,6.916,54.23,6.705c2.353-0.079,11.412-2.614,6.13,3.904
	c-3.453,4.262,0.32,15.619-4.825,18.822C49.407,33.248,39.639,16.463,41.482,12.507z"/>
<path fill="#F89987" d="M53.527,9.672c2.25-1.311,9.996-3.785,6.703,0.017c-5.346,6.172,0.319,20.786-8.998,18.418l-5.366-10.488
	C49.659,15,50.391,11.498,53.527,9.672z"/>
<path fill="#D67F6F" d="M53.527,9.672c0.576-0.336,1.517-0.748,2.536-1.112c-3.694,4.132,0.03,15.917-6.152,16.515l-4.045-7.455
	C49.659,15,50.391,11.498,53.527,9.672z"/>
<path fill="#8A6859" d="M57.665,39.066c0,0,1.736-0.643,4.335,0.984c0,0-1.338-4.8-4.86-6.211c0,0,2.012-0.848,4.515-0.154
	c0,0-2.452-3.851-8.083-5.694L53.17,44.107c0,0,3.472-1.108,6.019,0.742C59.188,44.85,59.747,41.651,57.665,39.066z"/>
<path fill="#8A6859" d="M4.823,44.85c2.546-1.851,6.017-0.742,6.017-0.742l-0.401-16.116c-5.63,1.844-8.083,5.694-8.083,5.694
	c2.503-0.693,4.515,0.154,4.515,0.154c-3.523,1.411-4.86,6.211-4.86,6.211c2.598-1.627,4.335-0.984,4.335-0.984
	C4.264,41.651,4.823,44.85,4.823,44.85z"/>
<path fill="#8A6859" d="M57.001,47.64C57.001,57.57,37.835,62,32.005,62C26.176,62,7.01,57.57,7.01,47.64
	C7.01,26.632,12.502,8,32.005,8C51.509,8,57.001,26.632,57.001,47.64z"/>
<ellipse fill="#302C3B" cx="42.377" cy="28.354" rx="3.499" ry="4.5"/>
<path id="Shape_8_" fill="#FFFFFF" d="M41.736,26.419c0,1.364-1.75,1.364-1.75,0S41.736,25.055,41.736,26.419L41.736,26.419z"/>
<ellipse fill="#302C3B" cx="21.634" cy="28.5" rx="3.5" ry="4.5"/>
<path id="Shape_7_" fill="#FFFFFF" d="M20.997,26.564c0,1.363-1.75,1.363-1.75,0S20.997,25.201,20.997,26.564L20.997,26.564z"/>
<path fill="#FFFFFF" d="M20.593,44.816c-9.597,0-9.562-14.866-9.562-14.866c-5.701,13.228,1.84,23.503,9.562,23.503V44.816z"/>
<path fill="#FFFFFF" d="M43.418,44.816c9.597,0,9.562-14.866,9.562-14.866c5.701,13.228-1.84,23.503-9.562,23.503V44.816z"/>
<path fill="#302C3B" d="M32.006,58c-5.198,0-7.335-4.18-5.664-3.646c0.962,0.306,10.364,0.306,11.325,0
	C39.343,53.824,37.2,58,32.006,58z"/>
<path fill="#F89987" d="M46.003,48.85c0,10.838-11.244,6.408-13.998,6.408c-1.509,0-13.998,4.43-13.998-6.408
	c0-7.051,7.511-14.85,13.998-14.85C38.493,34,46.003,41.799,46.003,48.85z"/>
<path fill="#F6BEC1" d="M36.706,53.264c-6.458,0-1.307-12.97,2.408-11.083C44.13,44.729,43.16,53.264,36.706,53.264z"/>
<path fill="#F6BEC1" d="M27.307,53.264c6.458,0,1.304-12.97-2.41-11.083C19.882,44.729,20.851,53.264,27.307,53.264z"/>
<path fill="#D67F6F" d="M36.706,52.309c-6.458,0-1.307-12.414,2.408-10.608C44.13,44.141,43.16,52.309,36.706,52.309z"/>
<path fill="#D67F6F" d="M27.307,52.309c6.458,0,1.304-12.414-2.41-10.608C19.882,44.141,20.851,52.309,27.307,52.309z"/>
<path fill="#F6BEC1" d="M42.891,41.702c-0.256-0.325-0.529,0.186-0.225,0.653C43.766,43.738,44.134,43.279,42.891,41.702z"/>
<path fill="#F6BEC1" d="M24.7,38.046c0.583-0.487,0.9,0.112,0.221,0.697C24.083,39.469,23.632,38.937,24.7,38.046z"/>
<path fill="#F6BEC1" d="M41.932,40.554c-2.509-2.747-6.194-5.591-9.963-5.591c-1.816,0-3.612,0.662-5.264,1.654
	c-1.272,0.764-1.367,1.7,0.356,0.742c1.496-0.832,3.146-1.381,4.907-1.381c3.852,0,7.171,2.629,9.522,5.113
	C42.041,41.674,42.359,41.021,41.932,40.554z"/>
<path fill="#91554C" d="M36.196,51.102c-4.019,0-0.813-7.727,1.5-6.604C40.816,46.018,40.215,51.102,36.196,51.102z"/>
<path fill="#302C3B" d="M35.942,50.775c-3.257-0.391,0.594-7.685,0.99-5.346C37.224,47.139,38.579,51.09,35.942,50.775z"/>
<path fill="#91554C" d="M27.815,51.102c4.019,0,0.812-7.727-1.5-6.604C23.194,46.018,23.796,51.102,27.815,51.102z"/>
<path fill="#302C3B" d="M28.069,50.775c3.257-0.391-0.594-7.685-0.99-5.346C26.788,47.139,25.433,51.09,28.069,50.775z"/>
<path id="Hair_1_" fill="#8A6859" d="M32.504,20.617c0,0-2.974-10.041-9.668-11.92c0,0,3.005-1.746,5.21-0.9
	c0,0,0.138-1.832-1.846-3.146c0,0,4.316-0.926,6.456,2.145c0,0,0.297-3.189-0.477-4.795c0,0,8.191,2.548,10.039,8.628
	C42.219,10.628,33.909,11.941,32.504,20.617z"/>
</svg>
