<?xml version="1.0" encoding="utf-8"?>
<!-- Generator: Adobe Illustrator 15.0.0, SVG Export Plug-In . SVG Version: 6.00 Build 0)  -->
<!DOCTYPE svg PUBLIC "-//W3C//DTD SVG 1.1//EN" "http://www.w3.org/Graphics/SVG/1.1/DTD/svg11.dtd">
<svg version="1.1" id="Layer_1" xmlns="http://www.w3.org/2000/svg" xmlns:xlink="http://www.w3.org/1999/xlink" x="0px" y="0px"
	 width="64px" height="64px" viewBox="0 0 64 64" enable-background="new 0 0 64 64" xml:space="preserve">
<path fill="#014D87" d="M22.184,50.994c0,0,10.816,4.506,20.816,2.484c-6-4.045-1.385-9.766-1.385-9.766L22.184,50.994z"/>
<path fill="#0FB4D4" d="M48.963,41.373c3.92-0.52,6.859,9.92,13.037,10.15c-5.703-5.42-5.584-27.647,0-32.955
	c-6.178,0.232-9.125,13.756-13.037,13.182c-2.53-0.367-4.972-14.893-24.705-14.893c-17.269,0-17.776,13.197-21.662,15.732
	c-2.375,1.55,2.625,4.494,10.063,2.895c-3.389,3.031-10.125,2.666-9.404,3.83c3.224,5.205,7.941,15.195,22.217,10.422
	C40.146,44.83,40.848,42.445,48.963,41.373z"/>
<path fill="#302C3B" d="M15.243,29.705c0,4.34-6.174,4.34-6.174,0C9.069,25.363,15.243,25.363,15.243,29.705z"/>
<path fill="#FFFFFF" d="M11.849,28.258c0,1.303-1.854,1.303-1.854,0S11.849,26.955,11.849,28.258z"/>
<path fill="#006DAE" d="M25.05,37.482c-9.029,6.838,22.425,9.85,14.584-3.276C34.695,25.938,30.502,33.354,25.05,37.482z"/>
<path fill="#0FB4D4" d="M24.232,37.881c-6.934,5.938,20.461,6.773,13.622-3.118C33.238,28.088,28.849,33.93,24.232,37.881z"/>
<path fill="#A0D8E9" d="M25.69,35.139c4.218,0.494,7.868-0.944,7.346-1.365C31.651,32.656,25.69,35.139,25.69,35.139z"/>
<path fill="#A0D8E9" d="M24.926,38.334c3.54,2.387,7.435,2.789,7.156,2.174C31.344,38.873,24.926,38.334,24.926,38.334z"/>
<path fill="#A0D8E9" d="M25.646,36.529c4.883,1.725,9.543,1.402,9.021,0.84C33.287,35.877,25.646,36.529,25.646,36.529z"/>
<path fill="#006DAE" d="M52.709,28.639c-3.523,3.719-5.453,1.324-6.424-0.846c-3.104-6.943-11.642-15.098-22.881-17.742
	c-2.863-0.673-2.051,5.473-8.759,8.688c19.542-3.074,34.813,12.238,34.813,17.01c0,2.199-13.156,13.855-28.029,10.76
	c0,0,4.587-5.588,2.115-15.287c1.026,10.826-7.843,18.123-16.026,14.459c0,0,4.263,6.367,14.294,6.367
	c17.742,0,23.446-15.66,30.561-8.715c-1.496-1.908-1.125-5.498,0.53-7.002C50.446,34.226,51.951,30.576,52.709,28.639z"/>
<path fill="#A0D8E9" d="M14.68,20.761c18.206-1.644,33.977,14.756,25.13,5.829C33.833,20.56,22.599,18.951,14.68,20.761z"/>
<path fill="#A0D8E9" d="M58.325,22.507c-2.334,4.224-3.049,11.739-1.424,16.073C55.526,27.011,62.12,15.636,58.325,22.507z"/>
<path fill="#A0D8E9" d="M56.369,24.807c1.27-0.033,2.199-0.885,2.009-1.04C57.875,23.356,56.369,24.807,56.369,24.807z"/>
<path fill="#A0D8E9" d="M55.736,27.099c1.27-0.033,2.199-0.885,2.009-1.04C57.242,25.648,55.736,27.099,55.736,27.099z"/>
<path fill="#A0D8E9" d="M55.194,29.267c1.27-0.033,2.199-0.885,2.01-1.04C56.7,27.816,55.194,29.267,55.194,29.267z"/>
</svg>
