<?xml version="1.0" encoding="utf-8"?>
<!-- Generator: Adobe Illustrator 15.0.0, SVG Export Plug-In . SVG Version: 6.00 Build 0)  -->
<!DOCTYPE svg PUBLIC "-//W3C//DTD SVG 1.1//EN" "http://www.w3.org/Graphics/SVG/1.1/DTD/svg11.dtd">
<svg version="1.1" id="Layer_1" xmlns="http://www.w3.org/2000/svg" xmlns:xlink="http://www.w3.org/1999/xlink" x="0px" y="0px"
	 width="64px" height="64px" viewBox="0 0 64 64" enable-background="new 0 0 64 64" xml:space="preserve">
<path fill="#8A6859" d="M19.614,13.529c0.493-6.664,8.582-6.994,8.582-6.994c-10.381-3.603-12.677,6.595-12.039,7.303
	C17.009,14.786,19.499,15.073,19.614,13.529z"/>
<path fill="#BAA495" d="M6.39,30.578c1.733-1.861,0.761-4.84,0.761-4.84l3.216-0.62c1.063,5.025-0.57,6.313-0.57,6.313
	c-0.071-1.018-0.586-1.675-0.586-1.675c-0.366,1.748-1.807,2.232-1.807,2.232c0.65-1.107,0.761-2.295,0.761-2.295
	C7.468,30.592,6.39,30.578,6.39,30.578z"/>
<path fill="#8A6859" d="M19.182,57.424h3.753c0.253-1.025,0.516-1.582,0.758-1.885l-3.586-2.629
	C19.6,54.256,19.182,55.74,19.182,57.424z"/>
<path fill="#D1BCAD" d="M28.465,32.406c0-6.947-9.054,0.518-9.054,0.518s0.766,6.723,2.386,13.879
	c0.399,1.758-0.785,3.703-1.691,6.107l3.586,2.629c0.513-0.645,0.919-0.117,0.877-0.445c-1.035-8.105,2.094-4.117,0.868-8.328
	C23.556,40.297,28.465,41.01,28.465,32.406z"/>
<path fill="#8A6859" d="M46.493,57.424h3.754c0.252-1.023,0.515-1.582,0.758-1.885l-3.586-2.627
	C46.912,54.256,46.493,55.742,46.493,57.424z"/>
<path fill="#D1BCAD" d="M51.7,32.408c1.852-6.63-12.109,0.514-12.109,0.514s2.465,9.643,9.52,13.883
	c1.425,0.855-0.788,3.703-1.691,6.107l3.586,2.627c0.513-0.643,0.919-0.115,0.876-0.443c-1.035-8.109,2.095-4.119,0.869-8.33
	C50.868,40.299,49.697,39.576,51.7,32.408z"/>
<path fill="#BAA495" d="M57.197,30.078c-4.158-4.702,1.402-4.058-0.88-11.645C63.037,24.58,58.819,31.912,57.197,30.078z"/>
<path fill="#E1D3C8" d="M45.806,22.601c-13.321,1.885-12.611-1.703-19.563-1.703c-1.812,0-3.885-3.839-4.956-5.618
	c-2.227-3.698-10.655,3.038-6.929,7.622c3.493,4.297,1.894,13.079,8.231,17.252c10.373,6.834,24.25,2.936,33.025-2.105
	C61.851,34.467,56.298,21.116,45.806,22.601z"/>
<path fill="#E1D3C8" d="M9.243,15.764c1.349-1.169,0.624-4.306,8.208-4.645c7.26-0.324,8.337,13.356-3.327,13.745
	c-7.083,0.236-7.201,2.829-8.122,0.003c-1.748,0.338-0.708-0.944-1.674-2.522C3.688,21.298,3.401,20.825,9.243,15.764z"/>
<path fill-rule="evenodd" clip-rule="evenodd" fill="#302C3B" d="M6.175,22.041c0,0-0.91,1.027-1.215,0.462
	C4.538,21.718,6.119,21.601,6.175,22.041z"/>
<path fill="#302C3B" d="M6.198,25.376c-0.136-0.284-0.196-0.508-0.196-0.508s1.842-0.272,3.883-1.204
	C8.556,24.864,6.198,25.376,6.198,25.376z"/>
<path fill="#E1D3C8" d="M17.969,15.366c6.449,0.014,7.541-6.594,6.673-6.432c-1.357,0.25-5.028,0.588-8.134,2.463
	C16.174,11.6,17.161,15.364,17.969,15.366z"/>
<path fill="#BAA495" d="M18.695,14.665c4.429-0.075,5.943-5.188,5.166-5.031C18.604,10.696,17.888,14.678,18.695,14.665z"/>
<path fill="#967668" d="M18.692,14.665c0.159-0.002,0.305-0.025,0.458-0.04c0.737-1.566,2.084-3.342,4.289-4.887
	C18.575,10.925,17.91,14.677,18.692,14.665z"/>
<path fill-rule="evenodd" clip-rule="evenodd" fill="#302C3B" d="M12.01,15.23c0,0,1.642-0.207,2.338,1.144
	c0,0-0.854,1.608-2.249,0.988C11.346,17.026,12.01,15.23,12.01,15.23z"/>
<path fill="#FFFFFF" d="M12.453,15.785c-0.052,0.528-0.436,0.464-0.381-0.063C12.111,15.319,12.493,15.383,12.453,15.785z"/>
<path fill="#8A6859" d="M25.05,62h3.754c0.252-1.023,0.515-1.582,0.757-1.883l-3.586-2.629C25.47,58.832,25.05,60.32,25.05,62z"/>
<path fill="#E1D3C8" d="M34.334,36.984c0-6.949-9.054,0.516-9.054,0.516s0.767,6.723,2.388,13.881
	c0.398,1.758-0.788,3.703-1.693,6.107l3.586,2.629c0.515-0.645,0.921-0.117,0.877-0.445c-1.034-8.107,2.094-4.117,0.869-8.328
	C29.425,44.877,34.334,45.586,34.334,36.984z"/>
<path fill="#8A6859" d="M52.688,62h3.753c0.254-1.023,0.516-1.582,0.757-1.883l-3.585-2.629C53.106,58.832,52.688,60.32,52.688,62z"
	/>
<path fill="#E1D3C8" d="M57.197,36.609c2.758-7-11.413,0.891-11.413,0.891s2.467,9.643,9.521,13.881
	c1.424,0.857-0.789,3.703-1.693,6.107l3.585,2.629c0.515-0.645,0.921-0.117,0.878-0.445c-1.034-8.107,2.094-4.117,0.869-8.328
	C57.061,44.877,54.468,43.541,57.197,36.609z"/>
<path fill="#E1D3C8" d="M40.994,44.762c-1.036-1.49-0.416-3.523-0.416-3.523l-9.036,0.234c1.034,3.297,3.194,4.732,3.194,4.732
	c-0.389-1.465,0.085-2.643,0.085-2.643c0.792,2.063,3.482,2.846,3.482,2.846c-0.911-1.521-0.551-2.539-0.551-2.539
	C39.201,45.088,40.994,44.762,40.994,44.762z"/>
<path fill="#E1D3C8" d="M21.658,41.045c0.479-1.742,2.458-2.607,2.458-2.607l-6.076-6.551c-1.878,2.918-1.583,5.456-1.583,5.456
	c0.882-1.242,2.104-1.66,2.104-1.66c-1.082,1.934,0.067,4.439,0.067,4.439c0.583-1.668,1.606-2.063,1.606-2.063
	C20.236,39.928,21.658,41.045,21.658,41.045z"/>
<path fill="#8A6859" d="M17.383,12.666C15.541,5.147,24.343,2.01,24.343,2.01C11.606,1.596,12.724,13.632,13.681,14.194
	C14.958,14.945,17.809,14.409,17.383,12.666z"/>
</svg>
