<?xml version="1.0" encoding="utf-8"?>
<!-- Generator: Adobe Illustrator 15.0.0, SVG Export Plug-In . SVG Version: 6.00 Build 0)  -->
<!DOCTYPE svg PUBLIC "-//W3C//DTD SVG 1.1//EN" "http://www.w3.org/Graphics/SVG/1.1/DTD/svg11.dtd">
<svg version="1.1" id="Layer_1" xmlns="http://www.w3.org/2000/svg" xmlns:xlink="http://www.w3.org/1999/xlink" x="0px" y="0px"
	 width="64px" height="64px" viewBox="0 0 64 64" enable-background="new 0 0 64 64" xml:space="preserve">
<path fill="#99A8AE" d="M13.256,2.117c-23.779-3.075-4.927,55.681,11.119,16.174C26.339,13.448,20.839,3.097,13.256,2.117z"/>
<path fill="#FDE0DA" d="M13.861,30.4c12.123-10.922,2.348-22.233-3.745-23.015C-2.832,5.724,7.924,35.75,13.861,30.4z"/>
<path fill="#F6BEC1" d="M17.775,25.75c5.502-9.275-2.385-17.771-7.614-18.441c-2.744-0.352-4.365,0.604-5.345,2.63
	C9.86,8.635,16,16.338,17.775,25.75z"/>
<path fill="#99A8AE" d="M39.625,18.291C55.671,57.798,74.523-0.958,50.743,2.117C43.16,3.097,37.661,13.448,39.625,18.291z"/>
<path fill="#FDE0DA" d="M53.884,7.385C47.791,8.167,38.016,19.478,50.139,30.4C56.076,35.75,66.832,5.724,53.884,7.385z"/>
<path fill="#F6BEC1" d="M46.225,25.75c-5.503-9.275,2.385-17.771,7.613-18.441c2.744-0.352,4.365,0.604,5.346,2.63
	C54.14,8.635,48,16.338,46.225,25.75z"/>
<path fill="#99A8AE" d="M38,15.639c-0.207-3.463-3.035-5.812-3.035-5.812c-0.42,1.43-1.265,2.547-1.265,2.547
	c-1.127-2.843-4.427-4.736-4.427-4.736c0.744,2.467,0.56,4.576,0.56,4.576C27.897,11.261,26,11.639,26,11.639
	c1.301,1.75,1.042,4,1.042,4H38z"/>
<path fill="#99A8AE" d="M51.963,32.212c-2.69-6.081-9.069-19.424-19.962-19.424c-10.89,0-17.274,13.343-19.962,19.424
	c-1.369,3.091-2.561,6.111-2.995,10.586c-0.759,7.815,8.445,14.54,13.433,14.54c2.386,0,4.915,4.661,9.523,4.661
	c4.605,0,7.136-4.661,9.521-4.661c4.988,0,14.19-6.725,13.434-14.54C54.521,38.323,53.33,35.305,51.963,32.212z"/>
<g>
	<path fill="#302C3B" d="M47,40.568c0,7.703-8.742,7.703-8.742,0C38.258,32.867,47,32.867,47,40.568z"/>
</g>
<g>
	<path fill="#FFFFFF" d="M42.517,38.604c0,1.925-2.687,1.925-2.687,0C39.83,36.679,42.517,36.679,42.517,38.604z"/>
</g>
<g>
	<path fill="#302C3B" d="M25.742,40.568c0,7.703-8.742,7.703-8.742,0C17,32.867,25.742,32.867,25.742,40.568z"/>
</g>
<g>
	<path fill="#FFFFFF" d="M21.259,38.604c0,1.925-2.688,1.925-2.688,0C18.571,36.679,21.259,36.679,21.259,38.604z"/>
</g>
<path fill="#F6BEC1" d="M32,54.657c-1.063,4.674-4.749,2.381-5.19,1.581c0,1.333,2.964,3.679,5.19,1.312
	c2.226,2.367,5.189,0.021,5.189-1.312C36.747,57.038,33.063,59.331,32,54.657z"/>
<path fill="#F6BEC1" d="M27.29,52.64c0-2.309,2.11-2.754,4.71-2.754c2.602,0,4.708,0.445,4.708,2.754
	c0,1.836-3.746,3.467-4.708,3.467C31.04,56.106,27.29,54.476,27.29,52.64z"/>
<path fill="#FDE0DA" d="M27.913,52.706c0-1.882,1.774-2.245,3.963-2.245C34.793,50.461,27.913,55.495,27.913,52.706z"/>
<path fill="#6E8189" d="M21.669,51.209C7.612,48.714,4.598,51.67,4.679,52.295C4.708,52.497,10.852,50.394,21.669,51.209z"/>
<path fill="#6E8189" d="M22.167,53.35C4.93,53.259,1.806,57.469,2.009,58.214C2.076,58.45,9.083,54.62,22.167,53.35z"/>
<path fill="#6E8189" d="M42.331,51.209c14.058-2.495,17.072,0.461,16.989,1.086C59.293,52.497,53.148,50.394,42.331,51.209z"/>
<path fill="#6E8189" d="M41.834,53.35c17.236-0.091,20.359,4.119,20.157,4.864C61.924,58.45,54.918,54.62,41.834,53.35z"/>
</svg>
