<?xml version="1.0" encoding="utf-8"?>
<!-- Generator: Adobe Illustrator 15.0.0, SVG Export Plug-In . SVG Version: 6.00 Build 0)  -->
<!DOCTYPE svg PUBLIC "-//W3C//DTD SVG 1.1//EN" "http://www.w3.org/Graphics/SVG/1.1/DTD/svg11.dtd">
<svg version="1.1" id="Layer_1" xmlns="http://www.w3.org/2000/svg" xmlns:xlink="http://www.w3.org/1999/xlink" x="0px" y="0px"
	 width="64px" height="64px" viewBox="0 0 64 64" enable-background="new 0 0 64 64" xml:space="preserve">
<path fill="#F59E01" d="M41.799,10.868c0,6.143,3.695,11.232,8.248,11.118C63.42,21.648,61.928,5.938,57.908,2.838
	C54.246,0.014,41.799,4.732,41.799,10.868z"/>
<path fill="#FFE8BB" d="M45.965,12.149c0,4.033,2.428,7.376,5.416,7.301c8.781-0.222,7.803-10.537,5.162-12.572
	C54.139,5.022,45.965,8.12,45.965,12.149z"/>
<path fill="#F5CFA0" d="M45.965,12.149c0,12.801,2.391-1.746,10.578-5.271C54.139,5.022,45.965,7.355,45.965,12.149z"/>
<path fill="#F59E01" d="M22.203,10.868c0,6.143-3.697,11.232-8.248,11.118C0.582,21.648,2.074,5.938,6.092,2.838
	C9.754,0.014,22.203,4.732,22.203,10.868z"/>
<path fill="#FFE8BB" d="M18.035,12.149c0,4.033-2.426,7.376-5.416,7.301C3.838,19.228,4.818,8.913,7.457,6.877
	C9.861,5.022,18.035,8.12,18.035,12.149z"/>
<path fill="#F5CFA0" d="M18.035,12.149c0,12.801-2.389-1.746-10.578-5.271C9.861,5.022,18.035,7.355,18.035,12.149z"/>
<path fill="#F59E01" d="M31.996,5.536c-11.133,0-26.979-1.041-26.979,36.986c0,5.207,26.979,6.662,26.979,6.662
	s26.986-1.455,26.986-6.662C58.982,4.495,43.129,5.536,31.996,5.536z"/>
<path fill="#FFE8BB" d="M62,37.379c-0.221-9.255-6.313-18.539-6.313-18.539s2.428,8.857,2.32,11.912c0,0-1.15-1.035-2.756-1.453
	c1.75,5.99-0.297,19.742-23.256,19.742s-25-13.752-23.248-19.742c-1.607,0.418-2.758,1.453-2.758,1.453
	C5.883,27.698,8.313,18.84,8.313,18.84S2.221,28.124,2,37.379l2.748-1.633c0,0-2.848,6.104,0.217,13.586l2.881-3.385
	c0,0,0.766,7.084,8.51,10.707l0.352-3.094c0,0,5.842,4.6,15.289,4.6s15.297-4.6,15.297-4.6l0.352,3.094
	c7.744-3.623,8.51-10.707,8.51-10.707l2.881,3.385c3.064-7.482,0.217-13.586,0.217-13.586L62,37.379z"/>
<path fill="#302C3B" d="M31.998,7.692c-1.625,2.076-13.629,2.545-15.281,7.76c3.311-2.291,11.824-3.877,15.281-1.105
	c3.457-2.771,11.951-1.186,15.26,1.105C45.607,10.237,33.625,9.768,31.998,7.692z"/>
<path fill="#302C3B" d="M31.998,15.565c-0.996,1.541-8.359,0.154-9.371,4.025c0,0,5.199-3.133,9.371,0.916
	c4.174-4.049,9.352-0.916,9.352-0.916C40.338,15.719,32.994,17.106,31.998,15.565z"/>
<path fill="#302C3B" d="M27.076,46.853c0,0-7.396-0.611-12.045-7.457c-1.02,0.97-1.227,2.39-1.227,2.39
	c-1.771-1.962-2.348-5.594-2.348-5.594c-1.027,0.543-1.736,1.397-1.736,1.397c-1.209-4.069-0.832-8.077-0.832-8.077
	s-3.834,7.91-2.459,14.694c0,0,0.625-2.143,1.934-3.154c1.691,7.163,6.066,10.419,6.066,10.419c0.156-2.426,0.541-3.09,0.541-3.09
	c2.268,3.172,6.168,4.754,6.168,4.754S26.797,50.357,27.076,46.853z"/>
<path fill="#F59E01" d="M24.73,43.39L9.303,26.533c0,0-3.254,7.689-2.086,14.284c0,0,0.529-2.082,1.639-3.066
	c1.436,6.964,5.146,10.129,5.146,10.129c0.135-2.357,0.461-3.004,0.461-3.004c1.924,3.084,5.23,4.621,5.23,4.621
	S24.494,46.798,24.73,43.39z"/>
<path fill="#302C3B" d="M10.508,34.768c1.881,9.211,10.68,8.262,10.68,8.262c-4.371-2.512-6.725-5.719-6.725-5.719
	c-0.24,0.943-0.172,1.602-0.172,1.602C12.389,37.602,10.508,34.768,10.508,34.768z"/>
<path fill="#302C3B" d="M36.924,46.853c0,0,7.396-0.611,12.045-7.457c1.018,0.97,1.225,2.39,1.225,2.39
	c1.771-1.962,2.35-5.594,2.35-5.594c1.027,0.543,1.734,1.397,1.734,1.397c1.209-4.069,0.834-8.077,0.834-8.077
	s3.834,7.91,2.459,14.694c0,0-0.625-2.143-1.936-3.154c-1.689,7.163-6.066,10.419-6.066,10.419c-0.156-2.426-0.541-3.09-0.541-3.09
	c-2.268,3.172-6.166,4.754-6.166,4.754S37.201,50.357,36.924,46.853z"/>
<path fill="#F59E01" d="M39.268,43.39l15.428-16.857c0,0,3.254,7.689,2.088,14.284c0,0-0.531-2.082-1.641-3.066
	c-1.436,6.964-5.146,10.129-5.146,10.129c-0.133-2.357-0.459-3.004-0.459-3.004c-1.924,3.084-5.23,4.621-5.23,4.621
	S39.504,46.798,39.268,43.39z"/>
<path fill="#302C3B" d="M53.492,34.768c-1.883,9.211-10.682,8.262-10.682,8.262c4.371-2.512,6.727-5.719,6.727-5.719
	c0.24,0.943,0.172,1.602,0.172,1.602C51.609,37.602,53.492,34.768,53.492,34.768z"/>
<ellipse fill="#302C3B" cx="43.357" cy="31.192" rx="4" ry="5.5"/>
<path id="Shape_40_" fill="#FFFFFF" d="M42.627,28.827c0,1.667-2,1.667-2,0S42.627,27.16,42.627,28.827L42.627,28.827z"/>
<ellipse fill="#302C3B" cx="20.643" cy="31.192" rx="4" ry="5.5"/>
<path id="Shape_39_" fill="#FFFFFF" d="M19.912,28.827c0,1.667-2,1.667-2,0S19.912,27.16,19.912,28.827L19.912,28.827z"/>
<path fill="#FFE8BB" d="M38.814,38.211c-0.379-0.932,0.266,2.653,0.287,5.346c-0.209-0.336-0.368-0.582-0.436-0.713H25.332
	c-0.07,0.137-0.24,0.397-0.463,0.756c0.023-2.689,0.665-6.256,0.287-5.326C21.369,47.6,22.2,52.558,22.2,52.558
	c0.255,2.676,1.685,5.493,5.491,7.886l0.906-1.73c0,0,1.068,2.443,3.398,3.287c2.33-0.844,3.404-3.287,3.404-3.287l0.908,1.73
	c3.821-2.401,5.247-5.232,5.493-7.919C41.831,52.556,42.602,47.538,38.814,38.211z"/>
<path id="Shape_42_" fill="#DB7F9A" d="M24.625,44.232c0-2.259,3.295-2.693,7.361-2.693s7.359,0.435,7.359,2.693
	c0,1.797-5.857,3.391-7.359,3.391S24.625,46.029,24.625,44.232L24.625,44.232z"/>
<path id="Shape_41_" fill="#FF8FA8" d="M25.596,44.297c0-1.841,2.773-2.193,6.195-2.193C36.35,42.104,25.596,47.025,25.596,44.297
	L25.596,44.297z"/>
<path fill="#302C3B" d="M32.012,53.762c-3.758,0-7.18-1.295-7.18-2.717c0-0.158,0.053-0.295,0.156-0.402
	c0.133-0.139,0.338-0.219,0.563-0.219c0.266,0,0.521,0.104,0.947,0.275c0.936,0.377,2.68,1.076,5.516,1.076
	c2.832,0,4.574-0.699,5.512-1.076c0.428-0.172,0.686-0.275,0.949-0.275c0.355,0,0.717,0.213,0.717,0.625
	C39.188,52.467,35.768,53.762,32.012,53.762z"/>
</svg>
