<?xml version="1.0" encoding="utf-8"?>
<!-- Generator: Adobe Illustrator 15.0.0, SVG Export Plug-In . SVG Version: 6.00 Build 0)  -->
<!DOCTYPE svg PUBLIC "-//W3C//DTD SVG 1.1//EN" "http://www.w3.org/Graphics/SVG/1.1/DTD/svg11.dtd">
<svg version="1.1" id="Layer_1" xmlns="http://www.w3.org/2000/svg" xmlns:xlink="http://www.w3.org/1999/xlink" x="0px" y="0px"
	 width="64px" height="64px" viewBox="0 0 64 64" enable-background="new 0 0 64 64" xml:space="preserve">
<path fill="#E6EBEF" d="M11.002,41.859c0,26.408,42,26.408,42,0C53.002,31.38,11.002,31.38,11.002,41.859z"/>
<path fill="#6E8189" d="M11.674,42.051c0,25.563,40.656,25.563,40.656,0C52.33,31.907,11.674,31.907,11.674,42.051z"/>
<path fill="#F9C802" d="M51.002,43.438C51.002,54.316,42.492,56,32,56c-10.494,0-18.998-1.684-18.998-12.563
	c0-14.55,9.291-21.035,18.998-21.035C41.703,22.402,51.002,28.888,51.002,43.438z"/>
<path fill="#F9C802" d="M59.617,14.387c1.785-2.603,6.258,16.116-5.087,17.447C33.463,34.304,54.721,21.526,59.617,14.387z"/>
<path fill="#F9C802" d="M32.002,41.258c-20,0-20-35.691,0-35.691C52.001,5.567,52.001,41.258,32.002,41.258z"/>
<path fill="#F9C802" d="M26.066,3.958c1.303,1.772,0.521,4.188,0.521,4.188l11.35-0.278c-1.299-3.919-4.01-5.626-4.01-5.626
	c0.488,1.742-0.109,3.143-0.109,3.143C32.824,2.931,29.445,2,29.445,2c1.146,1.809,0.693,3.018,0.693,3.018
	C28.318,3.568,26.066,3.958,26.066,3.958z"/>
<path fill="#302C3B" d="M27.484,20.187c0,1.642-1.119,2.971-2.5,2.971c-1.383,0-2.5-1.329-2.5-2.971c0-1.644,1.117-2.972,2.5-2.972
	C26.365,17.214,27.484,18.542,27.484,20.187z"/>
<path id="Shape_20_" fill="#FFFFFF" d="M24.145,18.981c0,0.991-1,0.991-1,0C23.145,17.991,24.145,17.991,24.145,18.981
	L24.145,18.981z"/>
<path fill="#302C3B" d="M41.518,20.187c0,1.642-1.119,2.971-2.5,2.971c-1.383,0-2.5-1.329-2.5-2.971c0-1.644,1.117-2.972,2.5-2.972
	C40.398,17.214,41.518,18.542,41.518,20.187z"/>
<path id="Shape_5_" fill="#FFFFFF" d="M38.18,18.981c0,0.991-1,0.991-1,0C37.18,17.991,38.18,17.991,38.18,18.981L38.18,18.981z"/>
<path fill="#F9C802" d="M4.384,14.387C2.598,11.785-1.875,30.503,9.47,31.834C30.537,34.304,9.279,21.526,4.384,14.387z"/>
<path fill="#D47706" d="M27.002,26.926h10c0,2.517-2.5,4.213-5,4.213C29.498,31.14,27.002,29.443,27.002,26.926z"/>
<path fill="#F59E01" d="M37.002,26.926c0,0-3.213,1.18-5,1.18s-5-1.18-5-1.18c0-3.131,2.24-5.668,5-5.668
	S37.002,23.795,37.002,26.926z"/>
<path fill="#302C3B" d="M37.002,26.833c0,0-2.236,2.459-5,2.459c-2.762,0-5-2.459-5-2.459s2.238-2.461,5-2.461
	C34.766,24.372,37.002,26.833,37.002,26.833z"/>
<path fill="#FFE12C" d="M44.216,50.394c3.227-17.477-27.565-17.512-24.444,0.001c3.306,1.32,7.564,1.652,12.221,1.652
	C36.65,52.047,40.912,51.715,44.216,50.394z"/>
<path fill="#FFFFFF" d="M31.777,56.629c-22.313-5-15.369-13.773-15.369-13.773l5.108,7.428l2.696-7.619l7.033,4.215l5.23-4.545
	l4.333,2.758l3.417-3.752C44.227,41.34,46.193,47.207,31.777,56.629z"/>
<path fill="#F5F5F5" d="M14.015,44.73l2.394-1.875l-0.256,0.566l5.25,7.916l2.813-8.021l6.666,4.355l5.313-4.646l4.667,3.111
	l3.417-3.674l-0.051-1.123l3.197,4.703c0,0,6.063-1.861,4.626-5.401c0,0,0.718-0.438,0.854,1.887
	c-3.293,26.544-41.901,25.133-41.901-0.669l0.672,0.265C11.674,43.178,12.503,44.502,14.015,44.73z"/>
<path fill="#E6EBEF" d="M40.86,46.137l3.394-4.201l3.137,4.802c5.768-1.954,5.611-4.802,5.611-4.802
	c0,16.143-15.108,22.842-27.983,19.014C37.721,58.928,40.86,46.137,40.86,46.137z"/>
</svg>
