<?xml version="1.0" encoding="utf-8"?>
<!-- Generator: Adobe Illustrator 15.0.0, SVG Export Plug-In . SVG Version: 6.00 Build 0)  -->
<!DOCTYPE svg PUBLIC "-//W3C//DTD SVG 1.1//EN" "http://www.w3.org/Graphics/SVG/1.1/DTD/svg11.dtd">
<svg version="1.1" id="Layer_1" xmlns="http://www.w3.org/2000/svg" xmlns:xlink="http://www.w3.org/1999/xlink" x="0px" y="0px"
	 width="64px" height="64px" viewBox="0 0 64 64" enable-background="new 0 0 64 64" xml:space="preserve">
<path fill="#F59E01" d="M26.333,60.527c-0.814,0-2.602,0.66-3.176,0.115c-0.846-0.801,0-4.643,0-4.643h-2.314
	c0,0,0.844,3.842,0,4.643c-0.576,0.545-2.361-0.115-3.176-0.115C15.642,60.527,14,62,14,62h16.002
	C30.001,62,28.359,60.527,26.333,60.527z"/>
<path fill="#F59E01" d="M46.331,60.529c-0.813,0-2.6,0.66-3.176,0.115c-0.844-0.801,0-4.645,0-4.645h-2.314c0,0,0.846,3.844,0,4.645
	c-0.574,0.545-2.361-0.115-3.176-0.115c-2.023,0-3.666,1.471-3.666,1.471h16C49.999,62,48.356,60.529,46.331,60.529z"/>
<path fill="#302C3B" d="M10.384,27.024C-0.38,33.705,1.73,43.047,3.25,41.939C20.031,29.726,24.154,18.479,10.384,27.024z"/>
<path fill="#302C3B" d="M53.616,27.024c-13.771-8.546-9.647,2.701,7.135,14.915C62.27,43.047,64.38,33.705,53.616,27.024z"/>
<path fill="#302C3B" d="M47.999,17.467C47.999,8.924,40.836,2,32,2c-8.836,0-16,6.924-16,15.467c0,11.6-4,15.493-4,23.199
	C12,51.344,20.955,60,32,60c11.046,0,20-8.656,20-19.334C51.999,32.959,47.999,29.066,47.999,17.467z"/>
<path fill="#FFFFFF" d="M43.999,18.788c0-12.407-10.126-9.99-10.126-0.708h-3.747C30.126,8.798,20,6.379,20,18.788
	c0,9.667-4,15.71-4,22.134c0,11.564,7.717,17.145,16,17.145c8.285,0,16-5.58,16-17.145C47.999,34.498,43.999,28.455,43.999,18.788z"
	/>
<path fill="#D47706" d="M27.982,22.008h8.033c0,2.543-1.797,4.6-4.015,4.6C29.779,26.607,27.982,24.551,27.982,22.008z"/>
<path fill="#F59E01" d="M36.999,22.329l-5,1.22l-5-1.22c0-3.159,2.237-5.722,5-5.722C34.76,16.607,36.999,19.17,36.999,22.329z"/>
<ellipse fill="#302C3B" cx="25" cy="16.968" rx="2" ry="2.75"/>
<path id="Shape_51_" fill="#FFFFFF" d="M24.634,15.785c0,0.833-1,0.833-1,0S24.634,14.952,24.634,15.785L24.634,15.785z"/>
<ellipse fill="#302C3B" cx="38.999" cy="16.968" rx="2" ry="2.75"/>
<path id="Shape_54_" fill="#FFFFFF" d="M38.634,15.785c0,0.833-1,0.833-1,0S38.634,14.952,38.634,15.785L38.634,15.785z"/>
</svg>
