<?xml version="1.0" encoding="utf-8"?>
<!-- Generator: Adobe Illustrator 15.0.0, SVG Export Plug-In . SVG Version: 6.00 Build 0)  -->
<!DOCTYPE svg PUBLIC "-//W3C//DTD SVG 1.1//EN" "http://www.w3.org/Graphics/SVG/1.1/DTD/svg11.dtd">
<svg version="1.1" id="Layer_1" xmlns="http://www.w3.org/2000/svg" xmlns:xlink="http://www.w3.org/1999/xlink" x="0px" y="0px"
	 width="64px" height="64px" viewBox="0 0 64 64" enable-background="new 0 0 64 64" xml:space="preserve">
<path fill="#F59E01" d="M7.904,40.051c1.954,5.987,5.566,12.346,12.936,17.338c-3.865-7.885-4.704-12.514-1.653-15.424
	C23.693,37.661,5.532,32.78,7.904,40.051z"/>
<path fill="#F9C802" d="M49.035,38.628c3.892-0.54,6.821,6.497,12.965,6.715c-5.671-5.11-5.553-17.496,0-22.5
	c-6.144,0.217-9.073,7.254-12.965,6.715c-2.516-0.349-1.449-3.794-7.063-9.332C38.174,16.48,42.698,8.191,54.936,2
	C7.236,15.604,6.221,31.084,2.265,33.33c-1.141,0.646,1.777,0.763,1.777,0.763s-2.909,0.103-1.777,0.764
	C10.065,39.412,17.54,56.876,54.936,62c-12.237-6.191-16.762-10.294-12.963-14.041C47.586,42.422,46.52,38.977,49.035,38.628z"/>
<path fill="#F59E01" d="M52.329,28.429c-5.699,3.801-3.972-2.491-10.357-8.726C38.566,16.378,43.782,7.643,54.936,2
	C33.514,8.11,21.509,14.598,14.423,20.096c10.348-5.919,22.546-5.976,26.339-0.305c10.167,15.205-16.23,29.722-26.415,21.29
	c-1.811-1.5,4.971-1.178,0.872-9.08c-0.968,3.008-3.388,7.281-9.747,5.338c9.952,11.373,22.193,13.998,31.189,12.899
	c11.696-1.429,8.479-15.207,15.751-10.421c-1.49-1.799-1.104-4.524,0.542-5.941C50.511,31.891,51.575,30.255,52.329,28.429z"/>
<path fill="#0FB4D4" d="M31.367,15.622c0.846,16.962-0.845,18.784-0.07,34.808c0,0,1.028,0.073,1.863,0.036
	c2.83-12.999,0.823-24.77-0.071-34.689C32.262,15.622,31.367,15.622,31.367,15.622z"/>
<path fill="#0FB4D4" d="M23.123,16.551c-0.775,15.56,0.825,17.807,0.114,32.506c-1.012-0.289-1.604-0.519-1.604-0.519
	c-2.596-11.925-0.879-22.451-0.06-31.55C22.428,16.693,23.123,16.551,23.123,16.551z"/>
<path fill="#0FB4D4" d="M12.521,21.644c-3.617,12.209-0.19,15.838,2.791,23.952c-1.273-0.705-2.219-1.418-2.219-1.418
	c-4.996-9.429-10.21-8.933-2.102-21.165C11.731,22.281,12.521,21.644,12.521,21.644z"/>
<path fill="#0FB4D4" d="M41.712,21.412c0.604,12.111-0.887,15.787-0.335,27.229c0,0,0.686-0.408,1.087-0.794
	c2.021-9.282,1.16-15.481,0.521-22.563C42.621,22.982,41.712,21.412,41.712,21.412z"/>
<path fill="#006DAE" d="M31.297,50.43L31.297,50.43c0,0,1.028,0.073,1.863,0.036c0-0.001,0-0.001,0-0.001
	C32.549,50.471,31.928,50.459,31.297,50.43z"/>
<path fill="#006DAE" d="M31.091,41.556c-0.016,2.474,0.034,5.325,0.206,8.874c0.631,0.029,1.252,0.041,1.863,0.035
	c0.802-3.684,1.215-7.268,1.376-10.74C33.439,40.42,32.281,41.033,31.091,41.556z"/>
<path fill="#006DAE" d="M21.634,48.538c0,0,0.592,0.229,1.604,0.519c0,0,0,0,0-0.001C22.704,48.897,22.17,48.725,21.634,48.538
	C21.634,48.537,21.634,48.537,21.634,48.538z"/>
<path fill="#006DAE" d="M20.77,43.508c0.21,1.647,0.493,3.324,0.864,5.029c0.536,0.188,1.07,0.36,1.604,0.519
	c0.1-2.067,0.154-3.89,0.176-5.536C22.514,43.582,21.629,43.58,20.77,43.508z"/>
<path fill="#006DAE" d="M13.094,44.178c0,0,0.941,0.711,2.21,1.412C14.563,45.154,13.826,44.683,13.094,44.178
	C13.094,44.178,13.094,44.178,13.094,44.178z"/>
<path fill="#006DAE" d="M11.9,36.859c-0.807,0.522-1.782,0.875-2.96,0.951c1.167,1.643,2.669,3.567,4.152,6.367
	c0.733,0.505,1.471,0.977,2.211,1.412c0.003,0.002,0.006,0.004,0.009,0.006C14.072,42.221,12.756,39.623,11.9,36.859z"/>
<path fill="#006DAE" d="M42.443,47.866c-0.324,0.271-0.674,0.526-1.049,0.765C41.496,48.568,42.076,48.212,42.443,47.866z"/>
<path fill="#006DAE" d="M42.984,25.283c-0.058,2.284-0.148,4.674-1.251,6.89c-0.239,5.112-0.705,9.241-0.356,16.468
	c0,0,0.007-0.004,0.018-0.01c0.375-0.238,0.725-0.494,1.049-0.765c0.007-0.007,0.014-0.013,0.021-0.02
	C44.485,38.564,43.624,32.366,42.984,25.283z"/>
<path fill="#302C3B" d="M11.248,32.673c0,3.767-5.65,3.767-5.65,0S11.248,28.906,11.248,32.673z"/>
<path fill="#FFFFFF" d="M8.141,31.417c0,1.13-1.695,1.13-1.695,0C6.445,30.288,8.141,30.288,8.141,31.417z"/>
</svg>
