<?xml version="1.0" encoding="utf-8"?>
<!-- Generator: Adobe Illustrator 15.0.0, SVG Export Plug-In . SVG Version: 6.00 Build 0)  -->
<!DOCTYPE svg PUBLIC "-//W3C//DTD SVG 1.1//EN" "http://www.w3.org/Graphics/SVG/1.1/DTD/svg11.dtd">
<svg version="1.1" id="Layer_1" xmlns="http://www.w3.org/2000/svg" xmlns:xlink="http://www.w3.org/1999/xlink" x="0px" y="0px"
	 width="64px" height="64px" viewBox="0 0 64 64" enable-background="new 0 0 64 64" xml:space="preserve">
<path fill="#B47D56" d="M28.302,11.305C25.275,11.305,27.816,4,27.816,4S32.4,11.305,28.302,11.305z"/>
<path fill="#9E6C49" d="M35.889,12.595c2.849,1.011,2.952-6.714,2.952-6.714S32.031,11.227,35.889,12.595z"/>
<path fill="#9E6C49" d="M42.25,16.967c2.384,1.844,4.934-5.458,4.934-5.458S39.022,14.471,42.25,16.967z"/>
<path fill="#B47D56" d="M10.425,23.193c-1.839,2.377-6.163-4.057-6.163-4.057S12.913,19.975,10.425,23.193z"/>
<path fill="#D6A57C" d="M50.629,26.799c2.639-0.387,6.563,5.947,8.793,4.813c3.438-1.746,3.438-14.381,0-16.129
	c-2.23-1.134-6.154,5.201-8.793,4.814V26.799z"/>
<path fill="#785647" d="M50.629,26.799c2.639-0.387,5.563,4.947,7.793,3.813c2.801-1.423,2.642-12.786,0-14.129
	c-2.23-1.134-5.154,4.201-7.793,3.814V26.799z"/>
<path fill="#9E6C49" d="M54.813,17.931c-1.158,0.817-3.768,1.726-10.382-4.166l7.771,16.457c-0.135-1.913,1.25-2.119,3.088-0.64
	c-1.012-1.291,0.104-4.81,1.221-5.826C54.854,22.334,54.301,19.239,54.813,17.931z"/>
<path fill="#B47D56" d="M28.302,56.59c-31.687,0-31.687-48.286,0-48.286C59.988,8.304,59.988,56.59,28.302,56.59z"/>
<path fill="#9E6C49" d="M46.657,30.746c1.59,0.405,3.622,4.709,5.181,5.25c2.182-12.898-4.81-26.563-21.316-27.61
	C43.312,11.654,48.284,19.365,46.657,30.746z"/>
<path fill="#F5CFA0" d="M28.302,56.59c-16.425,0-24.337-12.977-23.732-25.474c12.46,9.601,48.825-8.532,47.315,4.497
	C50.617,46.541,42.759,56.59,28.302,56.59z"/>
<path fill="#D6A57C" d="M28.302,56.568c-16.425,0-24.337-12.977-23.732-25.474c0.497,19.868,34.128,30.206,42.087-0.37
	c3.526,0.243,5.612,1.539,5.228,4.867C50.617,46.52,42.759,56.568,28.302,56.568z"/>
<path fill="#9E6C49" d="M20.835,25.715c0,8-12,8-12,0S20.835,17.715,20.835,25.715z"/>
<path fill="#D6A57C" d="M19.199,25.715c0,5.754-8.727,5.754-8.727,0C10.472,19.962,19.199,19.962,19.199,25.715z"/>
<path fill="#302C3B" d="M17.335,25.715c0,3.333-5,3.333-5,0S17.335,22.382,17.335,25.715z"/>
<path fill="#FFFFFF" d="M14.433,23.824c0,1.702-2.416,1.702-2.416,0S14.433,22.122,14.433,23.824z"/>
<path fill="#D6A57C" d="M5.025,28.371c-3.755,0-4.302,4.076,0,4.076c-4.302,0-3.755,4.076,0,4.076
	C10.079,36.523,10.079,28.371,5.025,28.371z"/>
<path fill="#B47D56" d="M20.441,13.321c-2.849,1.011-2.952-6.714-2.952-6.714S24.298,11.952,20.441,13.321z"/>
<path fill="#B47D56" d="M14.08,17.693c-2.383,1.844-4.933-5.459-4.933-5.459S17.308,15.197,14.08,17.693z"/>
<path fill="#D6A57C" d="M47.988,38.646c1.298-2.705,6.883,2.697,6.883,2.697S46.233,42.307,47.988,38.646z"/>
<path fill="#D6A57C" d="M30.326,52.695c3.028,0,0.485,7.305,0.485,7.305S26.228,52.695,30.326,52.695z"/>
<path fill="#D6A57C" d="M38.187,50.678c2.849-1.01,2.952,6.715,2.952,6.715S34.329,52.047,38.187,50.678z"/>
<path fill="#D6A57C" d="M44.548,46.307c2.384-1.844,4.934,5.457,4.934,5.457S41.32,48.803,44.548,46.307z"/>
<path fill="#F5CFA0" d="M41.148,37.393c1.842-2.375,6.157,4.064,6.157,4.064S38.654,40.607,41.148,37.393z"/>
<path fill="#F5CFA0" d="M42.959,32.542c0.414-2.963,7.385,0.526,7.385,0.526S42.398,36.559,42.959,32.542z"/>
<path fill="#B47D56" d="M43.244,25.347c0.414-2.964,7.385,0.524,7.385,0.524S42.684,29.361,43.244,25.347z"/>
<path fill="#B47D56" d="M41.422,20.263c-0.717-2.907,7.063-2.194,7.063-2.194S42.392,24.2,41.422,20.263z"/>
<path fill="#F5CFA0" d="M36.682,42.396c2.383-1.846,4.939,5.453,4.939,5.453S33.456,44.896,36.682,42.396z"/>
<path fill="#D6A57C" d="M35.109,35.629c2.383-1.846,5.588,6.15,5.588,6.15S31.883,38.129,35.109,35.629z"/>
<path fill="#F5CFA0" d="M34.51,35.125c2.808-2.174,4.322,4.539,4.322,4.539S30.708,38.072,34.51,35.125z"/>
<path fill="#D6A57C" d="M27.636,38.666c3.013-0.305,1.493,8.305,1.493,8.305S23.56,39.082,27.636,38.666z"/>
<path fill="#F5CFA0" d="M27.402,37.924c3.548-0.359,1.209,6.119,1.209,6.119S22.597,38.412,27.402,37.924z"/>
<path fill="#D6A57C" d="M19.46,38.096c2.751,1.25-2.925,7.912-2.925,7.912S15.735,36.406,19.46,38.096z"/>
<path fill="#F5CFA0" d="M19.638,37.338c3.242,1.471-2.1,5.879-2.1,5.879S15.248,35.346,19.638,37.338z"/>
<path fill="#9E6C49" d="M20.975,20.866c-2.883,0.913-3.096-7.478-3.096-7.478S24.876,19.629,20.975,20.866z"/>
<path fill="#B47D56" d="M21.359,21.545c-3.396,1.076-2.459-5.74-2.459-5.74S25.958,20.087,21.359,21.545z"/>
<path fill="#9E6C49" d="M29.048,20.584c-2.932-0.748,1.474-8.35,1.474-8.35S33.018,21.593,29.048,20.584z"/>
<path fill="#B47D56" d="M29.008,21.359c-3.454-0.879,1.014-6.152,1.014-6.152S33.687,22.551,29.008,21.359z"/>
<path fill="#9E6C49" d="M36.517,23.926c-2.142-2.116,5.426-6.525,5.426-6.525S39.417,26.788,36.517,23.926z"/>
<path fill="#B47D56" d="M36.084,24.574c-2.524-2.492,4.033-4.791,4.033-4.791S39.501,27.949,36.084,24.574z"/>
<path fill="#F5CFA0" d="M32.122,46.07c2.91-0.828,2.513,6.887,2.513,6.887S28.183,47.191,32.122,46.07z"/>
<path fill="#F5CFA0" d="M26.195,46.682c3.004,0.379-0.453,7.309-0.453,7.309S22.13,46.17,26.195,46.682z"/>
<path fill="#F5CFA0" d="M19.758,44.322c2.717,1.322-2.825,6.768-2.825,6.768S16.08,42.535,19.758,44.322z"/>
<path fill="#F5CFA0" d="M15.33,41.57c2.252,2.002-4.578,5.756-4.578,5.756S12.282,38.863,15.33,41.57z"/>
<path fill="#D6A57C" d="M9.609,44.076c-1.979-2.264-4.688,3.508-4.688,3.508S12.288,47.143,9.609,44.076z"/>
<path fill="#D6A57C" d="M21.437,52.514c-2.974-0.559-1.857,7.088-1.857,7.088S25.462,53.271,21.437,52.514z"/>
<path fill="#D6A57C" d="M15.213,48.518c-2.645-1.455-4.011,6.152-4.011,6.152S18.795,50.486,15.213,48.518z"/>
<path fill="#9E6C49" d="M23.037,29.434c-10.426,2.605,14.759,17.365,13.623,2.69C35.94,22.88,29.334,27.858,23.037,29.434z"/>
<path fill="#B47D56" d="M22.187,29.473c-8.294,2.613,14.384,13.879,12.743,2.462C33.823,24.23,27.707,27.736,22.187,29.473z"/>
<path fill="#9E6C49" d="M24.548,27.597c3.344,2.06,7.007,2.184,6.743,1.608C30.592,27.68,24.548,27.597,24.548,27.597z"/>
<path fill="#9E6C49" d="M22.58,30.143c1.984,3.479,5.091,5.334,5.111,4.68C27.751,33.088,22.58,30.143,22.58,30.143z"/>
<path fill="#9E6C49" d="M23.935,28.815c3.387,3.407,7.438,4.911,7.234,4.212C30.629,31.172,23.935,28.815,23.935,28.815z"/>
<path fill="#785647" d="M52.227,26.2c3.344,2.06,7.007,2.184,6.743,1.608C58.271,26.283,52.227,26.2,52.227,26.2z"/>
<path fill="#785647" d="M52.297,21.49c3.927-0.048,7.088-1.903,6.558-2.248C57.447,18.327,52.297,21.49,52.297,21.49z"/>
<path fill="#785647" d="M58.48,23.802c-1.031-1.324-6.932-0.017-6.932-0.017C55.275,25.021,58.869,24.301,58.48,23.802z"/>
</svg>
