<?xml version="1.0" encoding="utf-8"?>
<!-- Generator: Adobe Illustrator 15.0.0, SVG Export Plug-In . SVG Version: 6.00 Build 0)  -->
<!DOCTYPE svg PUBLIC "-//W3C//DTD SVG 1.1//EN" "http://www.w3.org/Graphics/SVG/1.1/DTD/svg11.dtd">
<svg version="1.1" id="Layer_1" xmlns="http://www.w3.org/2000/svg" xmlns:xlink="http://www.w3.org/1999/xlink" x="0px" y="0px"
	 width="64px" height="64px" viewBox="0 0 64 64" enable-background="new 0 0 64 64" xml:space="preserve">
<path fill="#F59E01" d="M18.892,51.179c1.229-1.772,7.056-4.757,7.056-4.757l-2.906-1.871c0,0-3.586,3.448-6.797,3.91
	c-0.36,0.051-3.249-2.018-5.715-2.322c-0.75-0.093,0.83,0.589,2.828,1.857c-2.166-0.705-4.653-1.861-7.055-1.718
	c-1.234,0.074,1.389,0.735,6.319,3.368c-1.549-0.205-3.169-0.318-4.88,0.059c-1.449,0.32,6.737,1.168,9.314,2.539
	c2.301,1.225,2.778,3.248,2.886,2.366C20.136,52.998,18.655,51.519,18.892,51.179z"/>
<path fill="#F59E01" d="M38.716,57.017c0.074-2.155,1.286-8.563,1.286-8.563h-3.455c0,0,0.923,5.584-1.529,7.711
	c-0.274,0.238-3.822,0.063-6.062,1.141c-0.681,0.328,1.018,0.045,3.384,0.031c-2.202,0.578-4.92,0.953-6.862,2.374
	c-0.997,0.729,1.565-0.134,7.138-0.589c-1.413,0.668-2.837,1.448-4.072,2.691c-1.046,1.053,6.298-2.664,9.207-2.906
	c2.597-0.216,4.093,1.227,3.706,0.428C40.746,57.875,38.701,57.43,38.716,57.017z"/>
<path fill="#FFE12C" d="M42.982,48.568c0.546,3.809-10.596,5.404-11.142,1.596C31.565,48.243,42.707,46.646,42.982,48.568z"/>
<path fill="#F9C802" d="M23.136,29.516c-17.497,0-17.497-24.03,0-24.03C40.167,5.485,40.167,29.516,23.136,29.516z"/>
<path fill="#F9C802" d="M17.538,3.659c1.139,1.502,0.457,3.551,0.457,3.551l9.93-0.236c-1.138-3.323-3.51-4.771-3.51-4.771
	c0.427,1.477-0.096,2.665-0.096,2.665C23.451,2.789,20.493,2,20.493,2C21.496,3.533,21.1,4.558,21.1,4.558
	C19.508,3.329,17.538,3.659,17.538,3.659z"/>
<path fill="#302C3B" d="M18.547,15.891c0,1.578-1.11,2.854-2.479,2.854c-1.37,0-2.477-1.277-2.477-2.854
	c0-1.58,1.106-2.855,2.477-2.855C17.437,13.036,18.547,14.312,18.547,15.891z"/>
<path id="Shape_13_" fill="#FFFFFF" d="M15.236,14.734c0,0.952-0.991,0.952-0.991,0C14.245,13.782,15.236,13.782,15.236,14.734
	L15.236,14.734z"/>
<path fill="#D47706" d="M6,22.159l6.872-1.726c0,0-0.172,2.038-1.475,2.713C11.397,23.146,7.31,23.45,6,22.159z"/>
<path fill="#F59E01" d="M12.872,20.433L6,22.159c0-2.428,1.802-5.397,4.24-7.018C10.369,17.825,12.872,17.557,12.872,20.433z"/>
<path fill="#F9C802" d="M22.165,49.198C9.101,43.582,6.8,24.397,25.096,21.487c17.838-2.837,17.155,12.705,27.971,10
	c5.192-1.299,6.197,0.534,3.434,5.722C50.697,48.1,34.736,54.602,22.165,49.198z"/>
<path fill="#FFE12C" d="M13.034,29.243C5.583,45.707,27.63,56.885,44.23,48.332c-11.868,2.117-18.193,0.056-22.485-3.578
	C15.688,39.625,18.051,33.374,13.034,29.243z"/>
<path fill="#F59E01" d="M45.672,32.656c13.648,10.147-33.896,14.618-22.044-4.865C31.093,15.521,37.431,26.53,45.672,32.656z"/>
<path fill="#F9C802" d="M44.939,32.215c10.48,10.202-30.928,11.637-20.59-5.358C31.327,15.389,37.963,25.425,44.939,32.215z"/>
</svg>
