<?xml version="1.0" encoding="utf-8"?>
<!-- Generator: Adobe Illustrator 15.0.0, SVG Export Plug-In . SVG Version: 6.00 Build 0)  -->
<!DOCTYPE svg PUBLIC "-//W3C//DTD SVG 1.1//EN" "http://www.w3.org/Graphics/SVG/1.1/DTD/svg11.dtd">
<svg version="1.1" id="Layer_1" xmlns="http://www.w3.org/2000/svg" xmlns:xlink="http://www.w3.org/1999/xlink" x="0px" y="0px"
	 width="64px" height="64px" viewBox="0 0 64 64" enable-background="new 0 0 64 64" xml:space="preserve">
<path fill="#6E8189" d="M50.649,27.9c16.646-8.958,10.644-27.402,8.647-25.802c-3.127,2.496-12.086,8.431-17.305,17.289
	C41.434,20.341,48.568,29.021,50.649,27.9z"/>
<path fill="#4E5E67" d="M52.494,24.228c11.307-6.355,7.6-20.815,5.826-19.351C46.354,14.772,50.434,25.384,52.494,24.228z"/>
<path fill="#302C3B" d="M52.49,24.23c0.401-0.227,0.748-0.487,1.119-0.735c-0.43-4.81,0.396-10.977,3.783-17.781
	C46.62,15.365,50.49,25.354,52.49,24.23z"/>
<path fill="#6E8189" d="M13.351,27.9C-3.295,18.942,2.708,0.499,4.703,2.098c3.126,2.496,12.086,8.431,17.305,17.289
	C22.567,20.341,15.432,29.021,13.351,27.9z"/>
<path fill="#4E5E67" d="M11.507,24.227C0.2,17.873,3.907,3.413,5.679,4.878C17.647,14.771,13.567,25.384,11.507,24.227z"/>
<path fill="#302C3B" d="M11.511,24.23c-0.404-0.227-0.748-0.487-1.12-0.735c0.43-4.81-0.396-10.977-3.783-17.78
	C17.38,15.365,13.511,25.354,11.511,24.23z"/>
<path fill="#F6C799" d="M26.133,11.179C17.588,9.233,16.59,0.923,15.951,2.117c-1.165,2.177-2.08,9.887,4.615,13.883L26.133,11.179z
	"/>
<path fill="#F6C799" d="M37.866,11.179c8.543-1.946,9.544-10.255,10.183-9.062c1.164,2.177,2.08,9.887-4.617,13.883L37.866,11.179z"
	/>
<path fill="#CFD8DD" d="M50.693,24.99c0,37.765-10.463,31.009-18.698,31.009c-8.228,0-18.689,6.756-18.689-31.009
	C13.307,2.336,50.693,2.336,50.693,24.99z"/>
<path fill="#CFD8DD" d="M27.274,6.117C28.311,7.607,27.69,9.64,27.69,9.64h9.036c-0.335-3.788-3.192-4.968-3.192-4.968
	c0.389,1.466-0.087,2.644-0.087,2.644c-0.792-2.063-3.482-2.846-3.482-2.846c0.912,1.521,0.552,2.538,0.552,2.538
	C29.067,5.79,27.274,6.117,27.274,6.117z"/>
<path fill="#BC6464" d="M22.934,57.578c0-2.455,18.131-2.455,18.131,0C41.065,63.475,22.934,63.475,22.934,57.578z"/>
<path fill="#F78790" d="M45,54.896c0,6.047-26,6.047-26,0C18.998,40.367,45,40.367,45,54.896z"/>
<path fill="#BC6464" d="M24.123,54.914c2.496,3.545,2.807-2.727,4.339-5.635C30.857,44.736,21.332,50.947,24.123,54.914z"/>
<path fill="#BC6464" d="M39.878,54.914c-2.498,3.545-2.808-2.727-4.339-5.635C33.141,44.736,42.668,50.947,39.878,54.914z"/>
<path fill="#6E8189" d="M44.298,11.838c3.617,6.806-5.847,5.007-6.526,22.948c-0.365,9.595,9.761,11.698,8.379,17.938
	c2.721-3.981,5.543-11.984,5.543-27.74C51.693,19.034,48.102,14.663,44.298,11.838z"/>
<path fill="#6E8189" d="M19.702,11.838c-3.617,6.806,5.846,5.007,6.527,22.948c0.364,9.595-9.761,11.698-8.379,17.938
	c-2.721-3.981-5.543-11.984-5.543-27.74C12.307,19.034,15.898,14.663,19.702,11.838z"/>
<path fill="#302C3B" d="M47.264,30.104c0,2.619-1.65,4.744-3.691,4.744c-2.038,0-3.689-2.125-3.689-4.744
	c0-2.623,1.651-4.748,3.689-4.748C45.613,25.356,47.264,27.481,47.264,30.104z"/>
<path id="Shape_6_" fill="#FFFFFF" d="M43.309,28.028c0,1.637-1.843,1.637-1.843,0C41.466,26.387,43.309,26.387,43.309,28.028
	L43.309,28.028z"/>
<path fill="#302C3B" d="M24.117,30.104c0,2.619-1.65,4.744-3.691,4.744c-2.038,0-3.689-2.125-3.689-4.744
	c0-2.623,1.651-4.748,3.689-4.748C22.466,25.356,24.117,27.481,24.117,30.104z"/>
<path id="Shape_14_" fill="#FFFFFF" d="M20.162,28.028c0,1.637-1.843,1.637-1.843,0C18.319,26.387,20.162,26.387,20.162,28.028
	L20.162,28.028z"/>
</svg>
