<?xml version="1.0" encoding="utf-8"?>
<!-- Generator: Adobe Illustrator 15.0.0, SVG Export Plug-In . SVG Version: 6.00 Build 0)  -->
<!DOCTYPE svg PUBLIC "-//W3C//DTD SVG 1.1//EN" "http://www.w3.org/Graphics/SVG/1.1/DTD/svg11.dtd">
<svg version="1.1" id="Layer_1" xmlns="http://www.w3.org/2000/svg" xmlns:xlink="http://www.w3.org/1999/xlink" x="0px" y="0px"
	 width="64px" height="64px" viewBox="0 0 64 64" enable-background="new 0 0 64 64" xml:space="preserve">
<path fill="#785647" d="M52.391,23.4c3.336,2.562,5.355,7.085,6.563,12.029c-0.627-0.815-1.369-1.681-1.369-1.681
	s1.996,3.955,2.158,8.627c-0.627-1.559-1.973-2.374-1.973-2.374L52.391,23.4z"/>
<path fill="#9E6C49" d="M25.016,34.457c3.219,6.098,2.346,11.527,2.693,13.776c-0.701,1.681,0.086,2.437,0,3.296
	c-0.434,4.416-1.205,6.07-1.889,8.107c-0.223,0.662-2.771,0.906-2.701,2.363h4.807c0.773-1.051-0.248-4.309,2.23-11.049
	c1.051-1.598,0.221-2.521,0.324-3.477c0.348-3.209-0.076-9.424,0.914-13.939C31.889,31.279,23.303,31.212,25.016,34.457z"/>
<path fill="#E1D3C8" d="M24.191,60.998c-0.379,0.086-0.598,0.237-0.717,0.4c0.049-0.218,0.127-0.4,0.127-0.4
	c-0.91,0.207-0.926,0.788-0.754,1.002h1.264C23.879,61.729,24.191,60.998,24.191,60.998z"/>
<path fill="#9E6C49" d="M46.258,35.543c3.502,6.098,5.295,11.762,4.861,16.084c-0.441,4.414-2.414,5.938-3.098,7.977
	c-0.221,0.66-3.297,0.938-3.227,2.396l4.807-0.037c0.773-1.051,0.775-4.271,4.459-10.764c2.105-2.836-1.547-2.836-0.525-16.117
	C53.713,32.774,44.432,32.369,46.258,35.543z"/>
<path fill="#B47D56" d="M27.322,34.094c4.891,6.291,7.129,11.84,7.479,14.089c-0.186,2.175,0.928,2.274,1.254,3.065
	c0.814,1.98,0.684,6.613,0,8.65c-0.223,0.662-2.184,0.643-2.113,2.102h5.588c0.381-2.008-0.734,0-1.525-11.049
	c0.443-2.867-0.643-3.924-1.254-5.487c-1.053-2.696-1.996-7.465-1.531-11.567C35.479,31.596,25.092,31.227,27.322,34.094z"/>
<path fill="#B47D56" d="M48.078,31.672c3.092,8.218,5.32,8.541,7.064,10.703C56.479,44.033,58.676,50.209,59,51
	c0.814,1.981,0.08,6.861-0.604,8.898c-0.223,0.662-2.184,0.643-2.113,2.102h5.59c0.379-2.008-0.133-0.248-0.922-11.297
	c1.049-3.99,0.004-4.018-0.789-5.486c-4.727-8.766-1.982-17.005-8.021-22.147C50.441,21.624,46.77,28.195,48.078,31.672z"/>
<path fill="#B47D56" d="M11.332,20.829c2.66,3.428-1.682,11.059,5.168,14.904c3.158,1.773,5.807-0.502,9.018-0.506
	c4.549-0.006,8.338,4.891,14.979,3.562c4.334-0.866,16.188-7.242,14.646-11.638c-0.881-2.516-3.018-4.353-5.176-5.674
	c-2.719-1.665-2.949-12.249-7.971-3.09c-1.643,2.996-5.076,2.07-6.375,0c-4.645-7.409-3.596-2.205-6.938,2.14
	c-0.848,1.102-1.957,1.95-3.592,3.976c-1.857,2.306-3.537,2.306-5.518,2.306c-1.217,0-0.01-7.297-3.445-9.571
	C14.887,16.414,10.4,19.627,11.332,20.829z"/>
<path fill="#9E6C49" d="M35.229,38.717c0,0-0.359-2.992,0.035-4.969c-0.021,3.484,2.326,5.107,4.74,5.129
	C40.004,38.877,37.684,39.447,35.229,38.717z"/>
<path fill="#9E6C49" d="M28.904,36.229c0,0-2.209-3.469-2.789-3.989c1.113,1.716,1.346,2.769-0.598,2.987
	C27.008,35.371,28.904,36.229,28.904,36.229z"/>
<path fill="#9E6C49" d="M49.521,35.1c0,0-1.355-2.477-2.271-7.408c0.053,4.776,1.393,8.041-5.469,10.75
	C41.781,38.442,46.711,37.543,49.521,35.1z"/>
<path fill="#B47D56" d="M33.932,14c0,0-0.777,0.667-0.371,1.342c0,0,1.313-0.333,1.93-0.054c-0.883,0.501-0.744,0.964-0.744,0.964
	s0.676-0.386,1.729-0.011c-1.055,0.264-0.307,1.473-3.457,1.234C31.367,15.579,30.91,14.519,33.932,14z"/>
<path fill="#B47D56" d="M47.006,14c0,0-0.777,0.667-0.371,1.342c0,0,1.313-0.333,1.93-0.054c-0.883,0.501-0.744,0.964-0.744,0.964
	s0.676-0.386,1.729-0.011c-1.055,0.264-0.307,1.473-3.457,1.234C44.441,15.579,43.984,14.519,47.006,14z"/>
<path fill="#B47D56" d="M6.23,22.725c5.598,2.614,12.703,1.453,11.986-3.467c-0.723-4.974-8.121-2.637-11.998-2.447
	c-2.602,0.128-2.594,1.855-3.807,2.619c-0.721,0.456-0.371,0.983,0.096,1.095l0.037,0.331c-0.863,0.468-0.297,1.984,0.615,1.676
	C4.736,22.002,5.605,22.433,6.23,22.725z"/>
<path fill="#B47D56" d="M17.912,17.287c-0.678-1.471-3.139-3.411-4.988-3.281c0,0,0.664,0.322,0.68,0.839
	c0,0-0.842-0.015-1.082,0.271c0.662,0.194,0.748,0.527,0.748,0.527s-0.508-0.152-0.955,0.267c0.674,0.01,0.674,0.167,1.516,0.707
	C14.67,17.157,17.912,17.287,17.912,17.287z"/>
<path fill="#594640" d="M4.078,18.477c0.215,0.276,1.328-0.532,1.113-0.808C4.988,17.413,3.877,18.22,4.078,18.477z"/>
<path fill="#9E6C49" d="M13.367,18.878c0,1.593-3.336,1.25-3.336-0.344C10.031,16.161,13.367,16.504,13.367,18.878z"/>
<path fill="#594640" d="M2.514,20.526c2.002,0,4.936,1.061,6.508,0.532c-1.906,0.804-4.469-0.203-6.477-0.203L2.514,20.526z"/>
<path fill="#B47D56" d="M16.582,19.915c4.023,0.009,4.703-4.378,4.162-4.269c-0.846,0.165-3.135,0.391-5.072,1.634
	C15.461,17.415,16.08,19.914,16.582,19.915z"/>
<path fill="#785647" d="M17.035,19.449c2.762-0.049,3.707-3.444,3.221-3.34C16.979,16.815,16.531,19.458,17.035,19.449z"/>
<path fill="#594640" d="M17.035,19.449c0.098-0.001,0.189-0.017,0.283-0.026c0.461-1.04,1.301-2.219,2.676-3.244
	C16.961,16.966,16.545,19.458,17.035,19.449z"/>
<path fill-rule="evenodd" clip-rule="evenodd" fill="#302C3B" d="M10.508,18.531c0,0,1.762-0.504,2.293,0.373
	c0,0-0.652,1.044-1.717,0.641C10.51,19.327,10.508,18.531,10.508,18.531z"/>
<path fill="#FFFFFF" d="M11.057,18.749c-0.039,0.343-0.33,0.301-0.289-0.041C10.797,18.448,11.088,18.488,11.057,18.749z"/>
<path fill="#E1D3C8" d="M34.941,60.998c-0.379,0.086-0.598,0.237-0.717,0.4c0.049-0.218,0.127-0.4,0.127-0.4
	c-0.91,0.207-0.926,0.788-0.754,1.002h1.264C34.629,61.729,34.941,60.998,34.941,60.998z"/>
<path fill="#E1D3C8" d="M45.957,60.998c-0.379,0.086-0.598,0.237-0.717,0.4c0.049-0.218,0.127-0.4,0.127-0.4
	c-0.91,0.207-0.926,0.788-0.754,1.002h1.264C45.645,61.729,45.957,60.998,45.957,60.998z"/>
<path fill="#E1D3C8" d="M57.301,60.998c-0.379,0.086-0.598,0.237-0.717,0.4c0.049-0.218,0.127-0.4,0.127-0.4
	c-0.91,0.207-0.926,0.788-0.754,1.002h1.264C56.988,61.729,57.301,60.998,57.301,60.998z"/>
</svg>
