<?xml version="1.0" encoding="utf-8"?>
<!-- Generator: Adobe Illustrator 15.0.0, SVG Export Plug-In . SVG Version: 6.00 Build 0)  -->
<!DOCTYPE svg PUBLIC "-//W3C//DTD SVG 1.1//EN" "http://www.w3.org/Graphics/SVG/1.1/DTD/svg11.dtd">
<svg version="1.1" id="Layer_1" xmlns="http://www.w3.org/2000/svg" xmlns:xlink="http://www.w3.org/1999/xlink" x="0px" y="0px"
	 width="64px" height="64px" viewBox="0 0 64 64" enable-background="new 0 0 64 64" xml:space="preserve">
<path fill="#302C3B" d="M7.19,18.523c0,0,1.236,1.036,0.556,2.161C14.9,19.121,10.907,14.861,7.19,18.523z"/>
<path fill="#BEC3CF" d="M11.75,39.162c1.896,7.083,3.245,9.885,3.433,15.122c0.046,1.226,3.495,0.444,3.495,0.444
	s-0.19-8.713-1.745-12.811C15.959,39.355,10.547,34.666,11.75,39.162z"/>
<path fill="#6E8189" d="M12.311,58.217c-0.011,3.036,10.491,2.473,9.925,0C19.752,47.326,12.362,47,12.311,58.217z"/>
<path fill="#BEC3CF" d="M37.864,38.516c-0.626,4.252,2.427,10.195,6.072,14.939c0.766,0.995,2.729-1.572,2.729-1.572
	s-3.728-4.928-3.119-13.593C43.736,35.596,38.538,33.924,37.864,38.516z"/>
<path fill="#6E8189" d="M41.166,56.48c0.81,3.355,9.865,3.339,8.988,0C47.41,46.012,38.758,46.486,41.166,56.48z"/>
<path fill="#CFD8DD" d="M29.831,40.803c0,0,11.804-5.464,12.304,0.013c0.583,6.396,3.222,10.497,9.285,14.882
	c1.035,0.748,1.85-1.639,1.85-1.639s-6.306-7.784-5.026-12.156c0.935-3.186,4.562-6.479-1.194-12.734l4.239-5.174l-2.148-0.684
	c0,0-2.475,3.557-3.936,4.995c-2.263-0.79-11.648-3.837-11.648-3.837L29.831,40.803z"/>
<path fill="#CFD8DD" d="M9.552,13.194c11.287-5.846,16.046,2.849,4.608,6.731c-5.426,1.842-9.136,3.368-8.678,1.263
	c2.718-0.998,5.1-1.467,5.687-3.053c0.785-2.117-4.347,1.232-6.144,0.986c-1.257-0.172-2.146-1.239-2.146-1.924
	C2.879,16.119,1.63,17.298,9.552,13.194z"/>
<path fill="#CFD8DD" d="M8.954,40.873c1.896,7.084,3.247,9.886,3.435,15.123c0.044,1.225,3.495,0.443,3.495,0.443
	s-0.624-10.652-2.179-14.75C12.732,39.128,7.753,36.377,8.954,40.873z"/>
<path fill-rule="evenodd" clip-rule="evenodd" fill="#302C3B" d="M10.408,13.404c0,0,1.563-0.186,2.227,1.026
	c0,0-0.813,1.443-2.141,0.885C9.776,15.015,10.408,13.404,10.408,13.404z"/>
<path fill-rule="evenodd" clip-rule="evenodd" fill="#302C3B" d="M3.781,18.607c-0.514,0.207-1.07-1.242-1.07-1.882
	C2.711,15.726,5.231,15.73,3.781,18.607z"/>
<path fill="#99A8AE" d="M49.136,26.846c-7.687-4.102-1.87-16.408,6.148-16.644c6.356-0.187,10.037,10.048,2.54,12.604
	C54.664,23.883,54.187,29.54,49.136,26.846z"/>
<path fill="#99A8AE" d="M48.398,59.271c0.727,3.797,12.772,3.477,11.053,0C53.27,46.769,46.309,48.355,48.398,59.271z"/>
<path fill="#99A8AE" d="M10.812,21.074c-11.54,3.568-6.94,24.178,3.474,22.593c15.546,5.628,19.433-6.376,19.433-6.376
	c7.815-3.283,5.3-15.271-1.531-15.365c0,0-2.188-6.195-12.725-6.195C14.987,15.73,10.812,21.074,10.812,21.074z"/>
<path fill="#99A8AE" d="M9.518,59.93c-0.014,3.035,10.488,2.472,9.924,0C16.956,49.038,9.566,48.711,9.518,59.93z"/>
<path fill="#E03636" d="M9.854,19.52c-4.406-0.096-9.396,5.833-7.4,5.833C5.313,25.353,5.59,21.735,9.854,19.52z"/>
<path fill="#6E8189" d="M14.903,17.194C5.48,36.643,35.285,37.235,26.465,16.908L14.903,17.194z"/>
<path fill="#99A8AE" d="M27.989,16.093c0,0-0.802-2.367-2.39-3.252c0,0,0.786-0.685,2.461-0.391c0,0-1.622-2.163-3.743-2.158
	c0,0,0.894-0.841,2.341-1.004c0,0-1.165-0.831-3.166-1.142c0.219-0.591,0.579-1.241,1.203-1.693c0,0-1.506-0.89-3.204-0.249
	c0,0,0.007-1.053,1.321-2.147c0,0-2.674-0.167-4.056,1.464c0,0-0.043-1.237,0.783-2.455c0,0-1.188,0.303-2.588,1.409
	c-0.253-0.582-0.446-1.312-0.306-2.087c0,0-1.689,0.425-2.47,2.086c0,0-0.717-0.76-0.523-2.476c0,0-2.034,1.77-1.91,3.92
	c0,0-0.876-0.858-1.118-2.317c0,0-0.794,1.323-0.952,3.497C8.245,7.261,7.389,7.797,7.389,7.797C8.453,7.98,9.081,8.641,9.081,8.641
	C7.51,8.547,6.217,10.08,6.217,10.08c1.253-0.146,1.809,0.395,1.809,0.395c-1.214,0.588-1.524,1.863-1.524,1.863
	c0.672-0.126,1.303,0.099,1.753,0.339c-0.395,1.714-0.082,1.561,1.897,0.392c4.617-2.726,3.994,3.203,5.66,2.041
	c-9.423,19.447,17.396,19.458,10.478,1.323C26.289,16.432,27.168,15.934,27.989,16.093z"/>
<path fill="#FFFFFF" d="M10.809,13.892c-0.054,0.548-0.446,0.482-0.391-0.065C10.459,13.409,10.85,13.475,10.809,13.892z"/>
</svg>
