<?xml version="1.0" encoding="utf-8"?>
<!-- Generator: Adobe Illustrator 15.0.0, SVG Export Plug-In . SVG Version: 6.00 Build 0)  -->
<!DOCTYPE svg PUBLIC "-//W3C//DTD SVG 1.1//EN" "http://www.w3.org/Graphics/SVG/1.1/DTD/svg11.dtd">
<svg version="1.1" id="Layer_1" xmlns="http://www.w3.org/2000/svg" xmlns:xlink="http://www.w3.org/1999/xlink" x="0px" y="0px"
	 width="64px" height="64px" viewBox="0 0 64 64" enable-background="new 0 0 64 64" xml:space="preserve">
<path fill="#9E6C49" d="M52.39,23.4c3.336,2.562,5.355,7.085,6.564,12.029c-0.627-0.815-1.371-1.681-1.371-1.681
	s1.998,3.955,2.16,8.627c-0.627-1.559-1.975-2.374-1.975-2.374L52.39,23.4z"/>
<path fill="#B47D56" d="M25.015,34.457c3.221,6.098,2.346,11.527,2.695,13.776c-0.701,1.681,0.084,2.437,0,3.296
	c-0.434,4.416-1.205,6.07-1.889,8.107c-0.223,0.662-2.771,0.906-2.703,2.363h4.807c0.775-1.051-0.246-4.309,2.23-11.049
	c1.053-1.598,0.223-2.521,0.326-3.477c0.346-3.209-0.078-9.424,0.912-13.939C31.888,31.279,23.304,31.212,25.015,34.457z"/>
<path fill="#E1D3C8" d="M24.191,60.998c-0.379,0.086-0.597,0.237-0.717,0.4c0.049-0.218,0.127-0.4,0.127-0.4
	c-0.911,0.207-0.927,0.788-0.755,1.002h1.266C23.88,61.729,24.191,60.998,24.191,60.998z"/>
<path fill="#B47D56" d="M46.257,35.543c3.502,6.098,5.295,11.762,4.863,16.084c-0.441,4.414-2.414,5.938-3.098,7.977
	c-0.223,0.66-3.299,0.938-3.229,2.396l4.807-0.037c0.775-1.051,0.775-4.271,4.459-10.764c2.107-2.836-1.545-2.836-0.523-16.117
	C53.712,32.774,44.433,32.369,46.257,35.543z"/>
<path fill="#D6A57C" d="M27.321,34.094c4.893,6.291,7.131,11.84,7.479,14.089c-0.186,2.175,0.93,2.274,1.256,3.065
	c0.813,1.98,0.684,6.613,0,8.65c-0.223,0.662-2.184,0.643-2.115,2.102h5.59c0.379-2.008-0.734,0-1.525-11.049
	c0.441-2.867-0.643-3.924-1.254-5.487c-1.055-2.696-1.998-7.465-1.533-11.567C35.478,31.596,25.093,31.227,27.321,34.094z"/>
<path fill="#D6A57C" d="M48.077,31.672c3.092,8.218,5.322,8.541,7.064,10.703c1.338,1.658,3.533,7.834,3.857,8.625
	c0.814,1.981,0.08,6.861-0.604,8.898c-0.221,0.662-2.182,0.643-2.113,2.102h5.59c0.379-2.008-0.131-0.248-0.922-11.297
	c1.051-3.99,0.004-4.018-0.787-5.486c-4.729-8.766-1.984-17.005-8.021-22.147C50.442,21.624,46.769,28.195,48.077,31.672z"/>
<path fill="#D6A57C" d="M11.333,20.829c2.658,3.428-1.682,11.059,5.166,14.904c3.16,1.773,5.807-0.502,9.02-0.506
	c4.549-0.006,8.336,4.891,14.979,3.562c4.334-0.866,16.188-7.242,14.645-11.638c-1.994-5.687-10.396-7.908-10.959-8.529
	c-5.248-5.809-5.551-4.746-9.521-0.495c-1.6,1.712-4.023-0.501-9.568,6.376c-1.857,2.306-3.539,2.306-5.518,2.306
	c-1.217,0-0.01-7.297-3.447-9.571C14.886,16.414,10.401,19.627,11.333,20.829z"/>
<path fill="#B47D56" d="M35.228,38.717c0,0-0.357-2.992,0.037-4.969c-0.023,3.484,2.324,5.107,4.74,5.129
	C40.005,38.877,37.683,39.447,35.228,38.717z"/>
<path fill="#B47D56" d="M28.903,36.229c0,0-2.209-3.469-2.789-3.989c1.113,1.716,1.348,2.769-0.596,2.987
	C27.009,35.371,28.903,36.229,28.903,36.229z"/>
<path fill="#B47D56" d="M49.521,35.1c0,0-1.355-2.477-2.271-7.408c0.055,4.776,1.393,8.041-5.467,10.75
	C41.782,38.442,46.71,37.543,49.521,35.1z"/>
<path fill="#D6A57C" d="M41.058,14c0,0-0.777,0.667-0.371,1.342c0,0,1.313-0.333,1.928-0.054c-0.881,0.501-0.742,0.964-0.742,0.964
	s0.676-0.386,1.729-0.011c-1.055,0.264-0.309,1.473-3.459,1.234C38.493,15.579,38.034,14.519,41.058,14z"/>
<path fill="#D6A57C" d="M6.231,22.725c5.598,2.614,12.701,1.453,11.984-3.467c-0.723-4.974-8.119-2.637-11.996-2.447
	c-2.604,0.128-2.596,1.855-3.807,2.619c-0.721,0.456-0.371,0.983,0.094,1.095l0.039,0.331c-0.864,0.468-0.299,1.984,0.615,1.676
	C4.737,22.002,5.604,22.433,6.231,22.725z"/>
<path fill="#D6A57C" d="M17.913,17.287c-0.678-1.471-3.139-3.411-4.988-3.281c0,0,0.664,0.322,0.678,0.839
	c0,0-0.84-0.015-1.08,0.271c0.662,0.194,0.746,0.527,0.746,0.527s-0.506-0.152-0.955,0.267c0.674,0.01,0.674,0.167,1.516,0.707
	C14.669,17.157,17.913,17.287,17.913,17.287z"/>
<path fill="#8A6859" d="M4.079,18.477c0.215,0.276,1.326-0.532,1.111-0.808C4.987,17.413,3.876,18.22,4.079,18.477z"/>
<path fill="#B47D56" d="M13.368,18.878c0,1.593-3.336,1.25-3.336-0.344C10.032,16.161,13.368,16.504,13.368,18.878z"/>
<path fill="#8A6859" d="M2.513,20.526c2.002,0,4.938,1.061,6.51,0.532c-1.908,0.804-4.469-0.203-6.477-0.203L2.513,20.526z"/>
<path fill="#D6A57C" d="M16.581,19.915c4.023,0.009,4.703-4.378,4.164-4.269c-0.848,0.165-3.137,0.391-5.074,1.634
	C15.462,17.415,16.079,19.914,16.581,19.915z"/>
<path fill="#B47D56" d="M17.036,19.449c2.762-0.049,3.707-3.444,3.221-3.34C16.979,16.815,16.532,19.458,17.036,19.449z"/>
<path fill="#9E6C49" d="M17.034,19.449c0.1-0.001,0.191-0.017,0.283-0.026c0.461-1.04,1.303-2.219,2.676-3.244
	C16.96,16.966,16.546,19.458,17.034,19.449z"/>
<path fill-rule="evenodd" clip-rule="evenodd" fill="#302C3B" d="M10.507,18.531c0,0,1.762-0.504,2.293,0.373
	c0,0-0.65,1.044-1.715,0.641C10.511,19.327,10.507,18.531,10.507,18.531z"/>
<path fill="#FFFFFF" d="M11.058,18.749c-0.039,0.343-0.332,0.301-0.291-0.041C10.796,18.448,11.089,18.488,11.058,18.749z"/>
<path fill="#E1D3C8" d="M34.941,60.998c-0.379,0.086-0.597,0.237-0.717,0.4c0.049-0.218,0.127-0.4,0.127-0.4
	c-0.911,0.207-0.927,0.788-0.755,1.002h1.266C34.63,61.729,34.941,60.998,34.941,60.998z"/>
<path fill="#E1D3C8" d="M45.957,60.998c-0.379,0.086-0.597,0.237-0.717,0.4c0.049-0.218,0.127-0.4,0.127-0.4
	c-0.911,0.207-0.927,0.788-0.755,1.002h1.266C45.646,61.729,45.957,60.998,45.957,60.998z"/>
<path fill="#E1D3C8" d="M57.301,60.998c-0.379,0.086-0.597,0.237-0.717,0.4c0.049-0.218,0.127-0.4,0.127-0.4
	C55.8,61.205,55.784,61.786,55.956,62h1.266C56.989,61.729,57.301,60.998,57.301,60.998z"/>
</svg>
