<?xml version="1.0" encoding="utf-8"?>
<!-- Generator: Adobe Illustrator 15.0.0, SVG Export Plug-In . SVG Version: 6.00 Build 0)  -->
<!DOCTYPE svg PUBLIC "-//W3C//DTD SVG 1.1//EN" "http://www.w3.org/Graphics/SVG/1.1/DTD/svg11.dtd">
<svg version="1.1" id="Layer_1" xmlns="http://www.w3.org/2000/svg" xmlns:xlink="http://www.w3.org/1999/xlink" x="0px" y="0px"
	 width="64px" height="64px" viewBox="0 0 64 64" enable-background="new 0 0 64 64" xml:space="preserve">
<path fill="#0FB4D4" d="M59.812,24.264c0,0,1.092-6.167-3.535-3.441c0,0-0.449-6.322-4.33-1.862c0,0-2.076-3.854-4.387-0.272
	c-3.115,4.831-5.186,12.367-3.176,24.987l3.754-2.49c2.699-7.907,12.359-8.759,13.676-13.053
	C62.759,25.055,59.812,24.264,59.812,24.264z"/>
<path fill="#0FB4D4" d="M22.094,17.574l-9.934,3.646c2.193-12.009,16.625-11.209,16.625-11.209S22.04,13.208,22.094,17.574z"/>
<path fill="#0FB4D4" d="M23.711,19.811l-10.498,1.41c4.785-11.246,18.695-7.343,18.695-7.343S24.622,15.537,23.711,19.811z"/>
<path fill="#F59E01" d="M2,28.951l5.417-1.441l0.006,3.605C7.422,31.115,4.131,30.627,2,28.951z"/>
<path fill="#F59E01" d="M7.417,27.51L2,24.771c3.624-2.805,7.676-1.938,7.676-1.938L7.417,27.51z"/>
<path fill="#F59E01" d="M33.845,52.969h-2.108v7.875c-0.332,0.057-2.148-0.098-2.889-0.098c-1.844,0-3.34,1.254-3.34,1.254h8.336
	V52.969z"/>
<path fill="#F59E01" d="M24.969,52.969h-2.107v7.875c-0.332,0.057-2.15-0.098-2.891-0.098c-1.844,0-3.338,1.254-3.338,1.254h8.336
	V52.969z"/>
<path fill="#0FB4D4" d="M54.042,36.193c3.857,0-4.096,17.531-23.311,17.531c-13.047,0-23.855-5.194-23.855-21.475
	c0-10.108,6.391-18.308,19.455-14.979C39.646,20.665,32.792,36.193,54.042,36.193z"/>
<path fill="#FFFFFF" d="M37.618,51.654C22.042,51.621,23.647,39.647,9.676,40.503C14.795,56.32,37.618,51.654,37.618,51.654z"/>
<path fill="#018BC9" d="M39.063,29.202c-10.01-9.795-20.209,6.199-7.862,12.553c12.12,6.234,20.379-4.825,20.379-4.825
	S45.495,35.498,39.063,29.202z"/>
<circle fill="#302C3B" cx="15.053" cy="24.924" r="2.5"/>
<path id="Shape_55_" fill="#FFFFFF" d="M14.213,23.91c0,0.833-1,0.833-1,0S14.213,23.077,14.213,23.91L14.213,23.91z"/>
</svg>
