<?xml version="1.0" encoding="utf-8"?>
<!-- Generator: Adobe Illustrator 15.0.0, SVG Export Plug-In . SVG Version: 6.00 Build 0)  -->
<!DOCTYPE svg PUBLIC "-//W3C//DTD SVG 1.1//EN" "http://www.w3.org/Graphics/SVG/1.1/DTD/svg11.dtd">
<svg version="1.1" id="Layer_1" xmlns="http://www.w3.org/2000/svg" xmlns:xlink="http://www.w3.org/1999/xlink" x="0px" y="0px"
	 width="64px" height="64px" viewBox="0 0 64 64" enable-background="new 0 0 64 64" xml:space="preserve">
<path fill="#45332C" d="M58.876,47.479H18.411c0-7.36,5.679-18.711,5.679-18.711c-0.118-0.5,0.476-1.219,1.105-1.179l12.731-5.917
	c0.266-0.373,1.264-0.295,1.452,0l12.71,5.917c0.57,0.022,1.164,0.741,1.106,1.179C53.195,28.767,58.876,40.227,58.876,47.479z"/>
<path fill="#297124" d="M35.666,57.581c0,0-6.785,1.248-8.422,0c-2.208-1.683,1.295-9.626,3.469-11.347c0,0,4.631-0.389,6.119,1.014
	C36.832,47.248,34.526,53.699,35.666,57.581z"/>
<path fill="#297124" d="M48.341,58.136c0,0-5.392-0.334-6.447-1.6c-1.423-1.708,2.517-7.124,4.454-8.028
	c0,0,3.606,0.582,4.523,1.939C50.871,50.447,48.084,54.945,48.341,58.136z"/>
<path fill="#297124" d="M5.749,20.06c0,0,8.479-8.495,10.228-1.742C15.977,18.318,8.594,26.958,5.749,20.06z"/>
<path fill="#92C932" d="M24.554,8.6C18.695,2.186-4.765,8.459,3.898,18.5c0,0,3.758-1.999,10.922-1.861
	c-5.635,4.975-9.071,3.421-9.071,3.421c0,3.186,1.497,5.793,7.364,5.793c7.313,0-0.606,19.788,5.89,19.788
	c3.805,0,4.593-15.717,4.878-16.625C25.445,24.038,28.494,12.914,24.554,8.6z"/>
<path fill="#92C932" d="M60.896,44.375c1.245,1.586,1.28,5.633,0.87,6.453c-0.408,0.82-0.984-1.133-1.791-2.893
	c-1.399-3.051-4.067-3.725-2.227-4.863C58.602,42.547,60.26,43.563,60.896,44.375z"/>
<polygon fill="#9E6C49" points="38.644,28.92 29.151,32.779 27.427,42.928 49.86,42.928 48.133,32.779 "/>
<path fill="#C4926E" d="M38.72,29.862l8.729,3.548c0,0-7.482-2.017-8.545-2.017c-0.793,0-6.063,2.414-7,3.146
	c-0.672,0.524-3.252,6.761-3.252,6.761l1.343-7.89L38.72,29.862z"/>
<path fill="#9E6C49" d="M52.089,27.588c-3.587-3.592-7.823-5.779-12.71-5.917v6.079l9.164,3.518L52.089,27.588z"/>
<path fill="#C4926E" d="M50.624,27.22c-2.972-2.977-6.482-4.789-10.531-4.903v5.038c0,0,1.223-2.03,1.542-4.162
	C45.46,23.132,50.624,27.22,50.624,27.22z"/>
<path fill="#9E6C49" d="M37.927,27.744v-6.072c-4.887,0.138-9.144,2.325-12.731,5.917l3.549,3.68L37.927,27.744z"/>
<path fill="#C4926E" d="M28.071,27.355c4.076-4.23,8.954-4.899,8.954-4.899c-4.194,0.118-7.849,1.996-10.929,5.079l3.047,3.158
	C29.144,30.693,28.946,28.445,28.071,27.355z"/>
<path fill="#9E6C49" d="M53.195,28.767l-3.873,4.004l1.972,10.149l8.551,0.008C58.784,37.371,56.428,32.463,53.195,28.767z"/>
<path fill="#C4926E" d="M53.467,29.861l-3.131,3.237l1.594,8.204c0,0-0.646-6.176-0.349-8.132
	C51.707,32.337,53.467,29.861,53.467,29.861z"/>
<path fill="#9E6C49" d="M27.969,32.771l-3.879-4.004c-1.614,1.849-2.969,4.866-5.094,5.549c-2.352,0.758-1,8.611,6.988,8.611
	C25.987,42.928,27.969,32.771,27.969,32.771z"/>
<path fill="#C4926E" d="M25.757,31.454l-1.597-1.625c-1.438,1.624-2.646,4.275-4.54,4.876c-1.112,0.353-1.295,2.463-0.157,4.364
	c-0.478-1.578-0.523-2.745,0.67-3.364c2.616-1.357,3.229-2.551,4.063-3.979C24.549,31.123,25.757,31.454,25.757,31.454z"/>
<path fill="#F9C802" d="M17.47,45.105h42.338c0,5.639-4.847,7.822-21.17,7.822S17.47,50.744,17.47,45.105z"/>
<path fill="#F59E01" d="M30.076,45.105c0.341,2.675,2.888,6.3,4.34,7.705C32.261,52.14,28.861,48.249,30.076,45.105z"/>
<path fill="#F59E01" d="M47.077,45.105c-0.34,2.675-2.887,6.3-4.34,7.705C44.894,52.14,48.292,48.249,47.077,45.105z"/>
<path fill="#302C3B" d="M17.239,11.446c0,3.332-5,3.332-5,0C12.239,8.111,17.239,8.111,17.239,11.446z"/>
<path fill="#FFFFFF" d="M14.427,10.32c0,1-1.5,1-1.5,0C12.927,9.32,14.427,9.32,14.427,10.32z"/>
<path fill="#297124" d="M3.722,12.549c-0.266-0.271,0.858-1.592,1.188-1.403C5.274,11.353,4.011,12.843,3.722,12.549z"/>
<path fill="#92C932" d="M29.803,60.89c0,0-8.926,1.906-11.081,0c-2.905-2.57,1.705-14.706,4.565-17.333c0,0,6.092-0.596,8.051,1.549
	C31.338,45.105,28.303,54.959,29.803,60.89z"/>
<path fill="#297124" d="M21.537,60.913c-1.136-2.785-2.899-4.671-3.374-4.671c-0.641,0-1.763,1.704-1.763,4.978
	C16.4,62.325,22.097,62.286,21.537,60.913z"/>
<path fill="#92C932" d="M61.54,51.951c0,0-4.564,7.923-6.893,7.759c-3.138-0.221-9.79-7.485-7.227-15.823c0,0,5.6-0.826,7.899-0.395
	C55.32,43.492,53.724,50.596,61.54,51.951z"/>
<path fill="#297124" d="M56.594,58.228c-2.019-1.311-4.066-1.666-4.394-1.414c-0.44,0.342-0.455,2.107,0.998,4.359
	C53.688,61.933,57.588,58.874,56.594,58.228z"/>
</svg>
