<?xml version="1.0" encoding="utf-8"?>
<!-- Generator: Adobe Illustrator 15.0.0, SVG Export Plug-In . SVG Version: 6.00 Build 0)  -->
<!DOCTYPE svg PUBLIC "-//W3C//DTD SVG 1.1//EN" "http://www.w3.org/Graphics/SVG/1.1/DTD/svg11.dtd">
<svg version="1.1" id="Layer_1" xmlns="http://www.w3.org/2000/svg" xmlns:xlink="http://www.w3.org/1999/xlink" x="0px" y="0px"
	 width="64px" height="64px" viewBox="0 0 64 64" enable-background="new 0 0 64 64" xml:space="preserve">
<path fill="#CFD8DD" d="M31.917,13.987L11.14,30.55c-2.711,3.548-3.99,6.2-1.92,6.522c6.713,1.041,11.57-10.813,21.739-1.746
	c5.824,5.195,2.048,9.436-2.35,12.684C21.812,59.395,64.386,44.895,31.917,13.987z"/>
<path fill="#302C3B" d="M20.353,24.519c-6.047,12.563-16.117,14.595-8.329,5.563L20.353,24.519z"/>
<path fill="#F46C60" d="M15.265,28.439l5.088-3.921C15.745,33.801,12.212,34.207,15.265,28.439z"/>
<path fill="#0FB4D4" d="M51.987,24.622c-0.852,4.461-11.791-10.696-8.498-13.905c3.289-3.209,12.842-3.762,15.898-0.777
	C62.448,12.922,53.099,18.79,51.987,24.622z"/>
<path fill="#018BC9" d="M50.685,25.438c-2.969-6.987,4.688-11.697,7.313-12.862C62.153,10.731,52.333,17.638,50.685,25.438z"/>
<path fill="#0FB4D4" d="M51.812,21.412C50.386,12.781,43.519,2,29.542,2C15.571,2,6.485,13.694,8.663,22.799
	c0.609,2.546-7.27,8.705-3.758,9.441c3.289,0.689,10.396-2.931,13.67-6.099c7.813-7.56,12.647-7.021,18.363,0.463
	c5.717,7.482,5.979,18.117-3.123,22.453c-4.912,2.34-5.718,0.889-5.207-1.047c-1.497,1.105-3.051,2.078-4.29,2.895
	c-2.039-2.701-6.067-7.486-9.023-7.486c-4.121,0,1.588,9.291,1.588,9.291S11.175,62,15.296,62c3.08,0,7.32-5.188,9.266-7.811
	C33.991,55.775,56.366,49.01,51.812,21.412z"/>
<path fill="#99A8AE" d="M37.064,26.771l-4.052,10.962c1.109,1.953,0.915,3.172,0.915,3.172
	C37.841,41.451,35.956,34.783,37.064,26.771z"/>
<path fill="#0FB4D4" d="M37.673,25.186c1.967-4.201-2.621-5.521-5.855-5.521c-3.234,0-5.856,0.426-5.856,5.521
	c0,5.094,4.75,12.928,7.984,12.928C37.181,38.113,35.099,30.676,37.673,25.186z"/>
<path fill="#018BC9" d="M37.163,24.519c1.369-2.868-0.223-3.981-1.556-1.034c-2.156,4.77,0.104,12.791-2.257,13.453
	C36.569,38.266,34.616,29.859,37.163,24.519z"/>
<path fill="#302C3B" d="M24.035,20.136c0,3.336-5.005,3.336-5.005,0C19.03,16.806,24.035,16.806,24.035,20.136z"/>
<path fill="#FFFFFF" d="M20.948,19.456c0,0.91-1.365,0.91-1.365,0C19.583,18.549,20.948,18.549,20.948,19.456z"/>
<path fill="#018BC9" d="M23.633,53.928c-4.188,4.719-6.281,4.703-8.719,6.391C13.323,61.42,18.102,62.459,23.633,53.928z"/>
<path fill="#75D6FF" d="M21.96,4.502c-1.635,1.792,11.446-4.874,23.273,5.306C36.388-0.406,23.43,2.895,21.96,4.502z"/>
</svg>
