<?xml version="1.0" encoding="utf-8"?>
<!-- Generator: Adobe Illustrator 15.0.0, SVG Export Plug-In . SVG Version: 6.00 Build 0)  -->
<!DOCTYPE svg PUBLIC "-//W3C//DTD SVG 1.1//EN" "http://www.w3.org/Graphics/SVG/1.1/DTD/svg11.dtd">
<svg version="1.1" id="Layer_1" xmlns="http://www.w3.org/2000/svg" xmlns:xlink="http://www.w3.org/1999/xlink" x="0px" y="0px"
	 width="64px" height="64px" viewBox="0 0 64 64" enable-background="new 0 0 64 64" xml:space="preserve">
<path fill="#F59E01" d="M45.249,60.19c-0.83,0-1.592,0.158-2.213,0.377c-0.31-0.109-0.656-0.197-1.029-0.264V53h-2.365v7.304
	c-0.374,0.066-0.723,0.154-1.033,0.264c-0.621-0.219-1.383-0.377-2.213-0.377c-2.071,0-3.751,0.967-3.751,1.447
	c0,0.482,16.355,0.482,16.355,0C49,61.157,47.321,60.19,45.249,60.19z"/>
<path fill="#F59E01" d="M27.604,60.19c-0.83,0-1.592,0.158-2.213,0.377c-0.311-0.109-0.659-0.197-1.033-0.264V53h-2.365v7.304
	c-0.373,0.066-0.72,0.154-1.029,0.264c-0.621-0.219-1.383-0.377-2.213-0.377c-2.072,0-3.751,0.967-3.751,1.447
	c0,0.482,16.355,0.482,16.355,0C31.355,61.157,29.676,60.19,27.604,60.19z"/>
<path fill="#F9C802" d="M51,43.933c0,11.01-8.509,12.713-19.001,12.713C21.504,56.646,13,54.942,13,43.933
	c0-14.724,9.292-21.287,18.999-21.287C41.702,22.646,51,29.209,51,43.933z"/>
<path fill="#FFE12C" d="M44.215,54.972c3.228-17.686-27.565-17.721-24.444,0.002c3.304,1.335,7.564,1.672,12.221,1.672
	C36.648,56.646,40.911,56.309,44.215,54.972z"/>
<path fill="#F9C802" d="M32,41.728c-20,0-20-36.118,0-36.118S52,41.728,32,41.728z"/>
<path fill="#F9C802" d="M26.064,3.98c1.303,1.793,0.522,4.238,0.522,4.238l11.35-0.282c-1.299-3.966-4.01-5.694-4.01-5.694
	c0.487,1.763-0.109,3.18-0.109,3.18C32.823,2.942,29.443,2,29.443,2c1.146,1.83,0.693,3.053,0.693,3.053
	C28.316,3.587,26.064,3.98,26.064,3.98z"/>
<path fill="#D47706" d="M27,27.224h10c0,2.548-2.5,4.264-5,4.264C29.497,31.488,27,29.771,27,27.224z"/>
<path fill="#F59E01" d="M37,27.224c0,0-3.212,1.195-5,1.195c-1.786-0.001-5-1.195-5-1.195c0-3.169,2.241-5.736,5-5.736
	C34.761,21.488,37,24.055,37,27.224z"/>
<path fill="#302C3B" d="M27.483,20.404c0,1.661-1.119,3.006-2.5,3.006c-1.383,0-2.5-1.345-2.5-3.006c0-1.664,1.117-3.008,2.5-3.008
	C26.364,17.396,27.483,18.74,27.483,20.404z"/>
<path id="Shape_62_" fill="#FFFFFF" d="M24.144,19.184c0,1.002-1,1.002-1,0S24.144,18.182,24.144,19.184L24.144,19.184z"/>
<path fill="#302C3B" d="M41.517,20.404c0,1.661-1.119,3.006-2.5,3.006c-1.383,0-2.5-1.345-2.5-3.006c0-1.664,1.117-3.008,2.5-3.008
	C40.397,17.396,41.517,18.74,41.517,20.404z"/>
<path id="Shape_61_" fill="#FFFFFF" d="M38.178,19.184c0,1.002-1,1.002-1,0S38.178,18.182,38.178,19.184L38.178,19.184z"/>
<path fill="#F9C802" d="M2.251,41.6c-2.634,1.719,16.309,6.026,17.655-4.897C22.405,16.414,9.476,36.885,2.251,41.6z"/>
<path fill="#F59E01" d="M13.003,43.511c0,0,0.215-5.959,1.67-9.293c0.639-1.463-4.772,5.531-4.555,9.658
	C10.118,43.876,11.508,43.876,13.003,43.511z"/>
<path fill="#F9C802" d="M61.749,41.6c2.634,1.719-16.309,6.026-17.655-4.897C41.595,16.414,54.524,36.885,61.749,41.6z"/>
<path fill="#F59E01" d="M50.997,43.511c0,0-0.215-5.959-1.67-9.293c-0.639-1.463,4.772,5.531,4.555,9.658
	C53.882,43.876,52.492,43.876,50.997,43.511z"/>
</svg>
