<?xml version="1.0" encoding="utf-8"?>
<!-- Generator: Adobe Illustrator 15.0.0, SVG Export Plug-In . SVG Version: 6.00 Build 0)  -->
<!DOCTYPE svg PUBLIC "-//W3C//DTD SVG 1.1//EN" "http://www.w3.org/Graphics/SVG/1.1/DTD/svg11.dtd">
<svg version="1.1" id="Layer_1" xmlns="http://www.w3.org/2000/svg" xmlns:xlink="http://www.w3.org/1999/xlink" x="0px" y="0px"
	 width="64px" height="64px" viewBox="0 0 64 64" enable-background="new 0 0 64 64" xml:space="preserve">
<path fill="#0FB4D4" d="M61.694,22.296c-4.369-1.285-8.071,3.229-8.071,3.229s-5.44-2.824-9.765-1.021
	c0.425,3.988,6.51,6.902,9.084,6.902c0,0,2.199,10.446-4.768,10.446c-8.411,0-8.967-17.188-37.417-17.188
	c-11.479,0-11.018,25.497-2.426,27.175c0,0,28.748,16.632,48.439-4.804c4.877-6.6,0.492-15.472,0.492-15.472
	C60.428,30.36,62.885,26.769,61.694,22.296z"/>
<path fill="#75D6FF" d="M16.57,25.506c-2.998-0.448-7.408-1.026-9.763,1.125c-2.644,2.417-3.621,7.662-1.733,4.448
	C7.417,27.091,8.889,25.34,16.57,25.506z"/>
<path fill="#E6EBEF" d="M8.531,52.978c-3.06,1.209,1.563,8.627,15.25,8.627c16.084,0,33.495-3.615,35.271-21.226
	c-2.96,14.484-24.871,13.23-24.871,13.23c-2.537,1.167-3.253-3.595-6.358-1.95C22.554,53.923,9.06,52.769,8.531,52.978z"/>
<path fill="#99A8AE" d="M42.387,59.267c2.045-0.438,4.742-1.837,4.742-1.837c-4.742,1.399-3.556-2.991-5.608-4.222
	C38.585,54.536,42.387,59.267,42.387,59.267z"/>
<path fill="#0FB4D4" d="M31.033,54.476c1.663,6.347,10.466,9.246,14.792,6.473c2.324-1.49-4.387,0.228-4.03-6.389
	C42.061,49.688,29.162,47.339,31.033,54.476z"/>
<path fill="#302C3B" d="M27.823,51.659c-9.476,1.605-19.491,0.179-19.491,0.179c0.4,1.187,0.076,1.981,0.076,1.981
	S22.927,56.284,27.823,51.659z"/>
<g>
	<g>
		<path fill="#302C3B" d="M28.114,46.507c0,1.652-1.341,2.999-2.996,2.999c-1.659,0-3-1.347-3-2.999c0-1.661,1.341-3.001,3-3.001
			C26.773,43.506,28.114,44.846,28.114,46.507z"/>
	</g>
</g>
<g>
	<g>
		<path fill="#FFFFFF" d="M24.63,45.687c0,0.469-0.378,0.851-0.847,0.851c-0.472,0-0.851-0.382-0.851-0.851s0.378-0.85,0.851-0.85
			C24.252,44.837,24.63,45.218,24.63,45.687z"/>
	</g>
</g>
<path fill="#302C3B" d="M21.994,27.888c0,1.33-5.995,1.33-5.995,0C15.999,26.556,21.994,26.556,21.994,27.888z"/>
<path fill="#018BC9" d="M19.211,29.537c2.453,0.124,4.229-0.949,3.356-1.738c-0.653-0.59,0.393-0.321,0.971,0.312
	c0.932,1.021-0.843,2.114-4.327,1.739C18.188,29.74,18.441,29.499,19.211,29.537z"/>
<path fill="#0FB4D4" d="M27.866,7.849c0,0,8.309-7.52-4.919-2.285c0,0,0.012-7.596-4.204-0.607c0,0-6.664-6.236-3.762-0.354
	c0,0-12.731-3.149-3.212,2.082c0,0-13.611,2.549,0.986,3.977c6.494,0.639,3.637,17.215,6.112,17.512
	c2.002,0.243,4.014-15.527,9.583-16.051C36.157,11.396,37.563,9.411,27.866,7.849z"/>
<path fill="#FFFFFF" d="M23.645,8.754c0,0,4.598-4.722-3.191-1.396c0,0-8.071-3.577-3.917,0.388c0,0-10.054,0.443-0.856,1.738
	c1.928,0.271,1.893,2.273,4.199,2.552c2.123,0.255,2.637-1.534,4.615-1.739C31.911,9.528,26.459,8.633,23.645,8.754z"/>
<path fill="#FFFFFF" d="M19.465,26.358c0.41-2.307,0.835-4.611,1.392-6.896c0.283-1.142,0.593-2.28,1.005-3.398
	c0.435-1.101,0.89-2.257,1.924-3.142c0.182-0.154,0.453-0.131,0.605,0.05c0.154,0.179,0.133,0.45-0.047,0.604
	c-0.008,0.006-0.016,0.013-0.025,0.02L24.3,13.609c-0.817,0.595-1.375,1.666-1.842,2.696c-0.464,1.055-0.841,2.158-1.188,3.271
	C20.579,21.808,20.015,24.081,19.465,26.358z"/>
<path fill="#FFFFFF" d="M18.731,24.051c-0.008-1.96-0.141-3.917-0.433-5.843c-0.145-0.963-0.332-1.92-0.562-2.861
	c-0.232-0.934-0.507-1.885-0.859-2.738l-0.008-0.02c-0.089-0.221,0.016-0.471,0.234-0.561s0.47,0.016,0.56,0.234
	c0.004,0.009,0.006,0.021,0.012,0.029c0.322,0.986,0.517,1.943,0.689,2.925c0.17,0.978,0.285,1.958,0.359,2.941
	C18.877,20.126,18.868,22.095,18.731,24.051z"/>
<path fill="#FFFFFF" d="M18.997,25.759c0.248-2.021,0.404-4.052,0.46-6.08c0.049-2.023,0.021-4.071-0.193-6.048l-0.004-0.019
	c-0.023-0.236,0.146-0.448,0.383-0.473c0.234-0.025,0.447,0.145,0.47,0.379c0.002,0.012,0.002,0.021,0.002,0.032
	c0.078,2.083-0.037,4.116-0.229,6.155C19.688,21.739,19.385,23.76,18.997,25.759z"/>
<path fill="#75D6FF" d="M31.699,50.894c1.816-2.658-1.007,4.871,3.912,8.705C30.913,56.937,31.207,51.612,31.699,50.894z"/>
<path fill="#75D6FF" d="M3.629,35.917c-0.845-0.168-0.268-3.067,0.577-2.898C5.05,33.187,4.473,36.085,3.629,35.917z"/>
<path fill="#75D6FF" d="M45.482,25.291c1.936,0.077,3.084-0.666,7.047,0.471C46.49,22.991,44.219,25.241,45.482,25.291z"/>
<path fill="#018BC9" d="M60.701,23.434c-0.929,0.947,0.66,3.74-3.069,7.135C61.843,28.675,61.749,22.365,60.701,23.434z"/>
</svg>
