<?xml version="1.0" encoding="utf-8"?>
<!-- Generator: Adobe Illustrator 15.0.0, SVG Export Plug-In . SVG Version: 6.00 Build 0)  -->
<!DOCTYPE svg PUBLIC "-//W3C//DTD SVG 1.1//EN" "http://www.w3.org/Graphics/SVG/1.1/DTD/svg11.dtd">
<svg version="1.1" id="Layer_1" xmlns="http://www.w3.org/2000/svg" xmlns:xlink="http://www.w3.org/1999/xlink" x="0px" y="0px"
	 width="64px" height="64px" viewBox="0 0 64 64" enable-background="new 0 0 64 64" xml:space="preserve">
<path fill="#FED0AC" d="M61.912,26.462c-1.16-5.406-58.664-5.406-59.825,0c-0.86,3.995,4.895,11.597,4.895,11.597
	C6.982,44.094,19.481,58,32,58c12.521,0,25.016-13.906,25.016-19.941C57.016,38.059,62.773,30.457,61.912,26.462z"/>
<path fill="#302C3B" d="M32,32.791c-11.315,0-29-4.352-29-4.352c2.685,4.994,20.528,17.732,29,17.732
	c8.476,0,26.314-12.738,29-17.732C61,28.439,43.314,32.791,32,32.791z"/>
<path fill="#92C932" d="M58.963,21.006c-21.387-9.599-32.537-9.599-53.928,0C1.684,22.509,1.17,27.18,3.188,29.38
	c2.782,3.031,23.407,7.573,28.814,7.573c5.409,0,26.027-4.542,28.809-7.573C62.83,27.18,62.316,22.509,58.963,21.006z"/>
<path fill="#297124" d="M24.943,28.254c1.948-1.196,5.467-1.317,4.174-2.246C26.507,24.139,22.927,29.489,24.943,28.254z"/>
<path fill="#297124" d="M39.057,28.254c-1.947-1.196-5.465-1.317-4.172-2.246C37.494,24.139,41.073,29.489,39.057,28.254z"/>
<path fill="#92C932" d="M50.005,29.377C34.014,29.377,34.014,6,50.005,6C65.998,6,65.998,29.377,50.005,29.377z"/>
<path fill="#7AB51D" d="M39.461,11.84c-2.578,5.712,0.821,10,0.256,9.587c-1.172-0.857-2.877-3.738-2.246-7.2
	C37.471,14.227,38.09,14.461,39.461,11.84z"/>
<path fill="#7AB51D" d="M61.418,21.487c-2.393,5.541-7.162,6.637-6.471,6.791c1.539,0.341,5.578-1.906,6.672-4.375
	C61.369,22.887,60.869,23.184,61.418,21.487z"/>
<path fill="#92C932" d="M13.996,29.377c15.991,0,15.991-23.377,0-23.377C-1.998,6-1.998,29.377,13.996,29.377z"/>
<path fill="#7AB51D" d="M24.54,11.84c2.578,5.712-0.821,10-0.256,9.587c1.172-0.857,2.877-3.738,2.246-7.2
	C26.53,14.227,25.911,14.461,24.54,11.84z"/>
<path fill="#7AB51D" d="M2.582,21.487c2.394,5.541,7.163,6.637,6.472,6.791c-1.539,0.341-5.578-1.906-6.672-4.375
	C2.632,22.887,3.132,23.184,2.582,21.487z"/>
<path fill="#302C3B" d="M11.995,26.189c-12.667,0-12.667-19,0-19S24.662,26.189,11.995,26.189z"/>
<path fill="#D47706" d="M11.995,25.001c-11.083,0-11.083-16.625,0-16.625S23.078,25.001,11.995,25.001z"/>
<path fill="#F59E01" d="M10.853,21.877c-8.709,0-8.709-13.063,0-13.063C19.561,8.814,19.561,21.877,10.853,21.877z"/>
<path fill="#302C3B" d="M9.969,22.625c0.689-0.011,2.385-2.7,2.401-5.979c0.015-3.28-1.653-5.904-2.343-5.896
	c-0.691,0.015-2.391,2.697-2.408,5.979C7.604,20.011,9.275,22.637,9.969,22.625z"/>
<path fill="#FFFFFF" d="M8.125,14.461c2.371-0.023,2.398-3.587,0.026-3.563C5.775,10.925,5.742,14.485,8.125,14.461z"/>
<path fill="#302C3B" d="M52.004,26.189c-12.664,0-12.664-19,0-19C64.672,7.189,64.672,26.189,52.004,26.189z"/>
<path fill="#D47706" d="M52.004,25.002c-11.079,0-11.079-16.626,0-16.626C63.088,8.376,63.088,25.002,52.004,25.002z"/>
<path fill="#F59E01" d="M50.862,21.876c-8.709,0-8.709-13.062,0-13.062C59.572,8.814,59.572,21.876,50.862,21.876z"/>
<path fill="#302C3B" d="M53.979,22.626c0.691-0.012,2.385-2.701,2.402-5.979c0.016-3.279-1.652-5.903-2.342-5.896
	c-0.693,0.015-2.391,2.697-2.41,5.979C51.617,20.011,53.289,22.638,53.979,22.626z"/>
<path fill="#FFFFFF" d="M48.138,14.462c2.369-0.024,2.396-3.587,0.025-3.563C45.788,10.925,45.757,14.486,48.138,14.462z"/>
<path fill="#F46C60" d="M20.26,41.266c0,0,7.308,3.906,11.74,3.906c4.435,0,11.741-3.906,11.741-3.906
	c-3.275-1.301-7.175-2.094-11.741-2.094C27.431,39.172,23.537,39.965,20.26,41.266z"/>
<path fill="#EBBB96" d="M39.041,47.43c0,0-4.383,1.094-7.041,1.094c-2.659,0-7.042-1.094-7.042-1.094
	C30.95,51.398,33.048,51.396,39.041,47.43z"/>
</svg>
