<?xml version="1.0" encoding="utf-8"?>
<!-- Generator: Adobe Illustrator 15.0.0, SVG Export Plug-In . SVG Version: 6.00 Build 0)  -->
<!DOCTYPE svg PUBLIC "-//W3C//DTD SVG 1.1//EN" "http://www.w3.org/Graphics/SVG/1.1/DTD/svg11.dtd">
<svg version="1.1" id="Layer_1" xmlns="http://www.w3.org/2000/svg" xmlns:xlink="http://www.w3.org/1999/xlink" x="0px" y="0px"
	 width="64px" height="64px" viewBox="0 0 64 64" enable-background="new 0 0 64 64" xml:space="preserve">
<path fill="#99A8AE" d="M21.89,37.594C-0.236,25.967,7.019-0.491,10.484,2.19C33.907,20.291,25.923,39.709,21.89,37.594z"/>
<path fill="#FDE0DA" d="M19.345,34.426C2.835,25.318,8.248,4.592,10.835,6.693C28.312,20.872,22.353,36.084,19.345,34.426z"/>
<path fill="#F6BEC1" d="M19.351,34.432c-0.59-0.325-1.094-0.699-1.635-1.055c0.627-6.894-0.58-15.733-5.523-25.485
	C27.921,21.724,22.271,36.041,19.351,34.432z"/>
<path fill="#99A8AE" d="M42.108,37.594C64.235,25.967,56.979-0.491,53.515,2.19C30.091,20.291,38.075,39.709,42.108,37.594z"/>
<path fill="#FDE0DA" d="M44.653,34.426c16.512-9.108,11.098-29.833,8.51-27.733C35.687,20.872,41.646,36.084,44.653,34.426z"/>
<path fill="#F6BEC1" d="M44.647,34.432c0.59-0.325,1.092-0.699,1.635-1.055c-0.627-6.894,0.58-15.733,5.523-25.485
	C36.077,21.724,41.728,36.041,44.647,34.432z"/>
<path fill="#99A8AE" d="M16.263,36.425c0-6.763,4.873-11.628,15.738-11.628c10.865,0,15.734,4.865,15.734,11.628
	c0,5.662,8.178,13.976,0.891,19.52C45.104,58.618,39.032,61,32.001,61c-7.033,0-13.109-2.382-16.627-5.056
	C8.085,50.4,16.263,42.086,16.263,36.425z"/>
<path fill="#FFFFFF" d="M37.392,46.821c-4.16-3.493-1.77-12.97-3.971-16.024c-0.992-1.38-1.849-1.38-2.843,0
	c-2.201,3.054,0.189,12.53-3.971,16.024c-3.125,2.627-10.691-1.333-11.611,0.952c-1.818,4.513,6.727,12.132,17.006,12.132
	c10.273,0,18.82-7.619,17.001-12.132C48.083,45.489,40.517,49.446,37.392,46.821z"/>
<path fill="#99A8AE" d="M27.275,23.108c1.037,1.491,0.416,3.524,0.416,3.524h9.035c-0.336-3.788-3.191-4.968-3.191-4.968
	c0.389,1.466-0.088,2.644-0.088,2.644c-0.791-2.063-3.48-2.846-3.48-2.846C30.878,22.983,30.517,24,30.517,24
	C29.068,22.781,27.275,23.108,27.275,23.108z"/>
<g>
	<g>
		<path fill="#302C3B" d="M44.261,42.665c0,5.334-6.053,5.334-6.053,0C38.208,37.332,44.261,37.332,44.261,42.665z"/>
	</g>
</g>
<g>
	<g>
		<path fill="#FFFFFF" d="M41.157,41.305c0,1.333-1.859,1.333-1.859,0S41.157,39.972,41.157,41.305z"/>
	</g>
</g>
<g>
	<g>
		<path fill="#302C3B" d="M25.791,42.665c0,5.334-6.053,5.334-6.053,0C19.738,37.332,25.791,37.332,25.791,42.665z"/>
	</g>
</g>
<g>
	<g>
		<path fill="#FFFFFF" d="M22.687,41.305c0,1.333-1.861,1.333-1.861,0S22.687,39.972,22.687,41.305z"/>
	</g>
</g>
<path fill="#6E8189" d="M21.669,49.775C7.611,47.28,4.597,50.236,4.679,50.861C4.708,51.063,10.851,48.96,21.669,49.775z"/>
<path fill="#6E8189" d="M22.167,51.916C4.929,51.825,1.806,56.035,2.009,56.78C2.075,57.017,9.083,53.187,22.167,51.916z"/>
<path fill="#6E8189" d="M42.331,49.775c14.057-2.495,17.072,0.461,16.988,1.086C59.292,51.063,53.147,48.96,42.331,49.775z"/>
<path fill="#6E8189" d="M41.833,51.916c17.236-0.091,20.359,4.119,20.158,4.864C61.923,57.017,54.917,53.187,41.833,51.916z"/>
<rect x="30.369" y="59.345" fill="#FFFFFF" width="3.261" height="2.655"/>
<path fill="#F6BEC1" d="M32,56.452c-1.063,4.673-4.748,2.381-5.189,1.581c0,1.333,2.963,3.678,5.189,1.312
	c2.226,2.366,5.189,0.021,5.189-1.312C36.747,58.833,33.062,61.125,32,56.452z"/>
<path fill="#F6BEC1" d="M27.291,54.435c0-2.309,2.109-2.754,4.709-2.754c2.601,0,4.708,0.445,4.708,2.754
	c0,1.836-3.746,3.467-4.708,3.467C31.039,57.901,27.291,56.271,27.291,54.435z"/>
<path fill="#FDE0DA" d="M27.912,54.501c0-1.882,1.775-2.245,3.963-2.245C34.792,52.256,27.912,57.29,27.912,54.501z"/>
</svg>
