<?xml version="1.0" encoding="utf-8"?>
<!-- Generator: Adobe Illustrator 15.0.0, SVG Export Plug-In . SVG Version: 6.00 Build 0)  -->
<!DOCTYPE svg PUBLIC "-//W3C//DTD SVG 1.1//EN" "http://www.w3.org/Graphics/SVG/1.1/DTD/svg11.dtd">
<svg version="1.1" id="Layer_1" xmlns="http://www.w3.org/2000/svg" xmlns:xlink="http://www.w3.org/1999/xlink" x="0px" y="0px"
	 width="64px" height="64px" viewBox="0 0 64 64" enable-background="new 0 0 64 64" xml:space="preserve">
<path fill="#FFC7D4" d="M41.49,9.391c1.838-4.592,6.492-6.505,12.75-6.75c2.354-0.092,11.414-3.041,6.131,4.543
	c-3.453,4.957,0.32,18.17-4.826,21.896C49.416,33.52,39.646,13.992,41.49,9.391z"/>
<path fill="#FF8FA8" d="M53.537,6.092c2.25-1.525,9.998-4.402,6.705,0.02c-5.348,7.181,0.318,24.183-9,21.429l-5.367-12.202
	C49.668,12.291,50.4,8.216,53.537,6.092z"/>
<path fill="#D9667F" d="M53.537,6.092c0.576-0.391,1.518-0.87,2.537-1.293c-3.695,4.807,0.029,18.516-6.154,19.212l-4.045-8.673
	C49.668,12.291,50.4,8.216,53.537,6.092z"/>
<path fill="#FFC7D4" d="M22.512,9.391c-1.84-4.592-6.492-6.505-12.752-6.75C7.408,2.549-1.654-0.4,3.629,7.184
	c3.453,4.957-0.32,18.17,4.826,21.896C14.586,33.52,24.354,13.992,22.512,9.391z"/>
<path fill="#FF8FA8" d="M10.463,6.092c-2.25-1.525-9.998-4.402-6.703,0.02c5.348,7.181-0.32,24.183,9,21.429l5.367-12.202
	C14.332,12.291,13.6,8.216,10.463,6.092z"/>
<path fill="#D9667F" d="M10.463,6.092c-0.576-0.391-1.516-0.87-2.537-1.293c3.695,4.807-0.029,18.516,6.154,19.212l4.047-8.673
	C14.332,12.291,13.6,8.216,10.463,6.092z"/>
<path fill="#FFC7D4" d="M11.172,23.928c0,0,3.132-16.398,20.828-16.398c17.697,0,20.83,16.398,20.83,16.398S60,29.154,60,41.06
	C60,52.408,50.268,62,32,62S4,52.408,4,41.06C4,29.154,11.172,23.928,11.172,23.928z"/>
<ellipse fill="#302C3B" cx="44.136" cy="26.831" rx="3.757" ry="4.831"/>
<path id="Shape_26_" fill="#FFFFFF" d="M43.448,24.754c0,1.465-1.878,1.465-1.878,0S43.448,23.289,43.448,24.754L43.448,24.754z"/>
<ellipse fill="#302C3B" cx="19.865" cy="26.988" rx="3.757" ry="4.83"/>
<path id="Shape_25_" fill="#FFFFFF" d="M19.18,24.91c0,1.463-1.878,1.463-1.878,0C17.302,23.446,19.18,23.446,19.18,24.91
	L19.18,24.91z"/>
<path fill="#302C3B" d="M32.003,54.583c-7.521,0-10.613-4.487-8.195-3.913c1.392,0.328,14.992,0.328,16.383,0
	C42.613,50.1,39.516,54.583,32.003,54.583z"/>
<path fill="#FF8FA8" d="M47.029,43.76c0,11.635-30.059,11.635-30.059,0c0-7.568,8.064-15.941,15.029-15.941
	S47.029,36.191,47.029,43.76z"/>
<path fill="#F6BEC1" d="M37.047,48.498c-6.934,0-1.402-13.923,2.586-11.897C45.018,39.336,43.977,48.498,37.047,48.498z"/>
<path fill="#F6BEC1" d="M26.956,48.498c6.933,0,1.399-13.923-2.587-11.897C18.982,39.336,20.023,48.498,26.956,48.498z"/>
<path fill="#D9667F" d="M37.047,47.474c-6.934,0-1.402-13.327,2.586-11.389C45.018,38.704,43.977,47.474,37.047,47.474z"/>
<path fill="#D9667F" d="M26.956,47.474c6.933,0,1.399-13.327-2.587-11.389C18.982,38.704,20.023,47.474,26.956,47.474z"/>
<path fill="#F6BEC1" d="M43.688,36.087c-0.275-0.349-0.567,0.199-0.241,0.701C44.627,38.272,45.021,37.779,43.688,36.087z"/>
<path fill="#F6BEC1" d="M24.156,32.162c0.627-0.523,0.967,0.119,0.236,0.748C23.494,33.689,23.01,33.117,24.156,32.162z"/>
<path fill="#F6BEC1" d="M42.658,34.854c-2.693-2.949-6.65-6.002-10.698-6.002c-1.95,0-3.878,0.711-5.651,1.777
	c-1.365,0.818-1.467,1.824,0.383,0.796c1.605-0.894,3.377-1.483,5.269-1.483c4.137,0,7.7,2.822,10.224,5.49
	C42.775,36.057,43.117,35.356,42.658,34.854z"/>
<path fill="#803856" d="M36.5,46.178c-4.315,0-0.872-8.295,1.611-7.09C41.461,40.719,40.814,46.178,36.5,46.178z"/>
<path fill="#302C3B" d="M36.228,45.826c-3.498-0.418,0.637-8.248,1.063-5.738C37.603,41.924,39.059,46.166,36.228,45.826z"/>
<path fill="#803856" d="M27.5,46.178c4.316,0,0.873-8.295-1.609-7.09C22.539,40.719,23.187,46.178,27.5,46.178z"/>
<path fill="#302C3B" d="M27.773,45.826c3.498-0.418-0.637-8.248-1.063-5.738C26.398,41.924,24.943,46.166,27.773,45.826z"/>
</svg>
