<?xml version="1.0" encoding="utf-8"?>
<!-- Generator: Adobe Illustrator 15.0.0, SVG Export Plug-In . SVG Version: 6.00 Build 0)  -->
<!DOCTYPE svg PUBLIC "-//W3C//DTD SVG 1.1//EN" "http://www.w3.org/Graphics/SVG/1.1/DTD/svg11.dtd">
<svg version="1.1" id="Layer_1" xmlns="http://www.w3.org/2000/svg" xmlns:xlink="http://www.w3.org/1999/xlink" x="0px" y="0px"
	 width="64px" height="64px" viewBox="0 0 64 64" enable-background="new 0 0 64 64" xml:space="preserve">
<path fill="#785647" d="M34.684,16.653c0,0-0.58-5.727,5.696-14.653c0,0,6.401,6.234,7.009,18.116L34.684,16.653z"/>
<path fill="#302C3B" d="M34.134,12.237L62,62V29.273C49.386,14,34.134,12.237,34.134,12.237z"/>
<path fill="#302C3B" d="M18.156,19.999c0,0,17.309,2,15.915-8.173C22.816,10.859,18.156,19.999,18.156,19.999z"/>
<path fill="#302C3B" d="M37.967,13.98c6.182,7.083,16.771,2.438,16.771,2.438S41.933,7.613,37.967,13.98z"/>
<path fill="#302C3B" d="M44.771,19.355c6.182,7.083,16.582,6.146,16.582,6.146S54.695,13.043,44.771,19.355z"/>
<path fill="#B47D56" d="M41.807,18.886C40.758,9.563,29.633,2.482,29.633,2.482c-2.304,5.784-1.249,16.052-1.249,16.052
	c-3.871,7.052-23.149,26.08-25.436,28.949c-2.294,2.868,15.862,10.297,20.831,9.335c18.691-3.637,15.235-11.051,15.235-11.051
	C44.081,52.403,45.604,62,45.604,62H62V41.616c0,0-3.704,0.389-4.624,8.175c0,0-5.956-7.786-1.839-17.807
	c0,0-1.051,0.474-4.073,4.602c-3.635-4.737-0.263-10.316-0.263-10.316C45.42,27.285,41.807,18.886,41.807,18.886z"/>
<path fill="#F5CFA0" d="M14.286,35.411C7.57,42.478,0.704,47.647,2.21,50.147c2.143,3.563,0.539,5.801,5.471,8.688
	c1.644,2.5,2.548,0.003,4.878,2.801c1.037,1.246,3.941-1.425,7.157-3.216c1.278-0.714,2.651-1.332,4.066-1.606
	C26.202,43.333,8.998,52.862,14.286,35.411z"/>
<path fill="#785647" d="M18.436,59.174c0.999-0.798,3.378-2.283,6.995-3.14c2.439-0.577,4.861-1.274,7.088-2.323
	c2.214-1.039,4.29-2.485,5.448-4.583c1.152-2.085,1.168-4.762,0.226-7.123c1.391,2.121,1.835,5.065,0.675,7.568
	c-1.137,2.515-3.457,4.189-5.792,5.309c-2.379,1.12-4.903,1.771-7.443,2.189C22.548,57.581,19.596,58.64,18.436,59.174z"/>
<path fill="#302C3B" d="M7.831,51.808c-0.761,0.561-2.618,0.977-3.185,0.222c-0.563-0.756,0.388-2.403,1.147-2.961
	c0.756-0.554,1.831-0.393,2.393,0.363C8.752,50.187,8.589,51.255,7.831,51.808z"/>
<path fill="#785647" d="M30.533,8.102c-0.313,1.133-1.963,9.162,0.601,11.964c1.73,1.894,1.907,1.582,1.672,0.479
	c-0.236-1.113,0.745-3.169,0.665-2.143c-0.078,1.03,0.229,1.803,0.62,0.821c0.385-0.967,1.451-2.341,1.005-0.932
	c-0.45,1.4-0.44,3.565,0.465,3.588c0.895,0.01,1.341-0.718,1.548-1.499C39.46,11.748,30.9,6.78,30.533,8.102z"/>
<path fill="#D6A57C" d="M5.678,47.944c-0.654,0.414-0.535,0.672,0.035,0.449c0.576-0.221,3.385-0.957,3.621,2.113
	c0,0,0.155,1.375,0.512,0.01C10.198,49.144,9.359,45.608,5.678,47.944z"/>
<path fill="#302C3B" d="M31.132,33.835c0,3.094-5.63,3.094-5.63,0C25.502,30.741,31.132,30.741,31.132,33.835z"/>
<path fill="#FFFFFF" d="M27.751,32.858c0,0.877-1.597,0.877-1.597,0C26.154,31.98,27.751,31.98,27.751,32.858z"/>
<path fill="#302C3B" d="M19.704,51.121c-0.3,6.109-6.348,7.799-12.023,7.714C13.368,57.054,18.186,55.089,19.704,51.121z"/>
<path fill="#302C3B" d="M13.942,31.022c0,0,3.513-2.242,9.393-4.517c8.113-3.14,4.745-8.557,4.745-8.557
	C15.822,20.29,13.942,31.022,13.942,31.022z"/>
</svg>
