<?xml version="1.0" encoding="utf-8"?>
<!-- Generator: Adobe Illustrator 15.0.0, SVG Export Plug-In . SVG Version: 6.00 Build 0)  -->
<!DOCTYPE svg PUBLIC "-//W3C//DTD SVG 1.1//EN" "http://www.w3.org/Graphics/SVG/1.1/DTD/svg11.dtd">
<svg version="1.1" id="Layer_1" xmlns="http://www.w3.org/2000/svg" xmlns:xlink="http://www.w3.org/1999/xlink" x="0px" y="0px"
	 width="64px" height="64px" viewBox="0 0 64 64" enable-background="new 0 0 64 64" xml:space="preserve">
<polygon fill="#F5F5F5" points="8.624,32.074 8.011,30.842 6.294,34.291 15.88,34.291 "/>
<path fill="#E81C27" d="M35.126,29.086c-1.456-1.244-2.067-2.783-8.012-0.18c-3.939,1.727-2.992,2.396-8.12,0.797
	c-7.115-2.217-9.7,1.625-11.375,2.141c0,0,4.019-1.102,7.309,1.5c4.338,3.428,17.268,1.623,19.225,2.166
	C34.811,35.691,36.583,30.332,35.126,29.086z"/>
<path fill="#E81C27" d="M35.342,32.252C35.351,32.297,35.409,32.299,35.342,32.252L35.342,32.252z"/>
<path fill="#FEEC9A" d="M33.416,29.115c-5.792-0.002-5.625,3.797-14.469,2.771c0,0,4.844,2.639,9.781,1.203
	c2.987-0.869,5.071,0,5.071,0L33.416,29.115z"/>
<path fill="#297124" d="M55.58,25.381c5.104,2.342,6.42-4.895,6.42-4.895c-6.486,0.674-8.329-1.873-8.329-1.873
	C58.143,20.52,60,12.744,60,12.744c-6.834,2.561-5.709-2.41-13.025-2.41c0-2.465,3.108-5.586,3.108-5.586
	c-8.208-2.004-11.345,3.658-11.345,3.658C35.686,5.766,38.144,2,38.144,2c-8.666,0-12.104,13.289-12.101,13.291
	C27.841,13.486,53.195,62,53.195,62h5.061c0.301-3.715-0.877-10.332-0.877-10.332c1.648-1.65,3.412,2.09,3.412,2.09
	c0-5.797-2.545-10.139-2.545-10.139c1.341-1.342,3.009,1.195,3.009,1.195c0-4.758-2.964-7.32-2.964-7.32
	c1.574-1.574,2.625-0.375,2.625-0.375c0-3.602-3.625-4.832-3.625-4.832c3.531,0.207,4.297-3.172,4.297-3.172
	C57.145,29.691,55.58,25.381,55.58,25.381z"/>
<path fill="#92C932" d="M23.564,40.48C36.755,44.734,34.755,62,34.755,62h19.334c0,0,5-30.873-5.122-41.887L37.172,37.244
	L23.564,40.48z"/>
<path fill="#7AB51D" d="M46.905,62h7.184c0,0,5-30.873-5.122-41.887C48.967,20.113,51.734,51.167,46.905,62z"/>
<path fill="#F9C802" d="M23.564,40.48C36.755,44.734,33.755,62,33.755,62h5.689c0,0,0.706-18.455-5.543-20.336L23.564,40.48z"/>
<path fill="#297124" d="M8.142,25.635c-0.558,0.193-1.228-0.695-0.903-2.309c0.322-1.609,1.463-3.982,5.923-4.658
	c4.46-0.684,7.549-0.918,7.869-4.846c0.322-3.93,1.966-4.885,3.295-5.418c0,0-2.188,1.592-2.162,4.236
	c0.028,2.643-1.025,6.33-4.494,6.963c-3.465,0.637-7.271,1.359-8.261,2.762C8.417,23.766,9.219,25.275,8.142,25.635z"/>
<path fill="#92C932" d="M36.347,10.131c-7.211,0-13.25,4.967-14.957,11.68c-1.23-1.83-3.284-3.051-5.65-3.051
	c-1.469,0-2.819,0.469-3.938,1.26c-0.823-1.762-2.589-2.984-4.649-2.984C4.307,17.035,2,19.352,2,22.213
	c0,2.857,2.307,5.176,5.152,5.176h24.042c1.898,0,3.435,1.543,3.435,3.453c0,1.908-1.536,3.449-3.435,3.449H5.436
	C3.544,34.291,2,35.846,2,37.742c0,1.9,1.544,3.453,3.436,3.453h30.911c8.534,0,15.456-6.955,15.456-15.533
	C51.803,17.082,44.881,10.131,36.347,10.131z"/>
<path fill="#7AB51D" d="M20.436,41.195h15.911c10.144,0,15.852-6.956,15.852-15.534c0-4.003-1.833-7.911-4.376-10.404
	C54.614,30.24,39.802,41.195,20.436,41.195z"/>
<path fill="#302C3B" d="M8.593,21.316c-0.569,0.857-1.836,1.148-2.819,0.654c-0.991-0.49,0.459-0.695,1.032-1.549
	c0.57-0.854,0.044-2.039,1.032-1.545C8.825,19.369,9.163,20.459,8.593,21.316z"/>
<polygon fill="#F5F5F5" points="14.163,26.711 4.031,26.712 6.294,30.842 7.308,28.804 "/>
<path fill="#F9C802" d="M30.336,25.662H2.859C2.385,25.662,2,26.049,2,26.527C2,27,2.385,27.389,2.859,27.389h27.477
	c1.42,0,2.576,1.158,2.576,2.59v1.725c0,1.424-1.156,2.588-2.576,2.588H2.859C2.385,34.291,2,34.68,2,35.154
	c0,0.477,0.385,0.861,0.859,0.861h27.477c2.367,0,4.293-1.932,4.293-4.313v-1.725C34.629,27.598,32.703,25.662,30.336,25.662z"/>
<path fill="#92C932" d="M30.543,18.759c0,6.002-9,6.002-9,0C21.543,12.761,30.543,12.761,30.543,18.759z"/>
<path fill="#FFFFFF" d="M29.543,18.76c0,4.667-7,4.667-7,0S29.543,14.093,29.543,18.76z"/>
<path fill="#302C3B" d="M28.043,18.763c0,2.665-4,2.665-4,0C24.043,16.094,28.043,16.094,28.043,18.763z"/>
<path fill="#FFFFFF" d="M25.521,17.907c0,0.666-1,0.666-1,0C24.521,17.239,25.521,17.239,25.521,17.907z"/>
<path fill="#297124" d="M26.774,10.131c0,0-5.228,2.828-3.972,5.402c1.26,2.57,8.905-2.16,13.544,1.502c0,0-0.78-2.188-2.327-2.576
	c0,0,0.669-0.527,2.186-0.635c0,0-1.596-2.02-4.522-0.061c0,0,0.204-1.342,1.279-2.055c0,0-2.409,0.008-4.043,1.646
	c0,0-0.656-0.34,0.211-2.066c0,0-1.644,0.643-2.813,2.012C26.316,13.301,25.828,12.287,26.774,10.131z"/>
<path fill="#297124" d="M11.172,24.719c-0.568-0.209-0.592-1.313,0.628-2.355c1.218-1.043,3.558-2.146,7.608,0.15
	c4.046,2.305,6.717,4.078,9.306,1.244c2.586-2.824,4.499-2.525,5.899-2.096c0,0-2.733-0.156-4.275,1.906
	c-1.546,2.057-4.589,4.234-7.8,2.531c-3.213-1.707-6.755-3.557-8.394-3.105C12.507,23.449,12.267,25.125,11.172,24.719z"/>
<polygon fill="#92C932" points="40.13,55.074 33.918,55.074 33.319,51.512 40.13,51.512 "/>
<path fill="#E81C27" d="M4.542,34.174c-1.06,0.248-2.05-0.102-2.209-0.779c-0.16-0.678,0.571-1.428,1.633-1.676
	c1.063-0.248,3.229,0.541,3.229,0.541S5.605,33.926,4.542,34.174z"/>
<path fill="#FEEC9A" d="M4.612,33.648c-0.645,0.15-1.244-0.061-1.343-0.473c-0.096-0.41,0.347-0.867,0.991-1.018
	c0.646-0.15,1.961,0.328,1.961,0.328S5.256,33.498,4.612,33.648z"/>
<path fill="#E81C27" d="M6.17,30.34c-0.725-0.133-1.242-0.617-1.155-1.082c0.085-0.461,0.742-0.729,1.468-0.596
	c0.726,0.135,1.854,1.211,1.854,1.211S6.895,30.473,6.17,30.34z"/>
</svg>
