<?xml version="1.0" encoding="utf-8"?>
<!-- Generator: Adobe Illustrator 15.0.0, SVG Export Plug-In . SVG Version: 6.00 Build 0)  -->
<!DOCTYPE svg PUBLIC "-//W3C//DTD SVG 1.1//EN" "http://www.w3.org/Graphics/SVG/1.1/DTD/svg11.dtd">
<svg version="1.1" id="Layer_1" xmlns="http://www.w3.org/2000/svg" xmlns:xlink="http://www.w3.org/1999/xlink" x="0px" y="0px"
	 width="64px" height="64px" viewBox="0 0 64 64" enable-background="new 0 0 64 64" xml:space="preserve">
<path id="Shape_49_" fill="#EBBB96" d="M56.018,39.49c2.346,2.662,1.631,6.74,1.631,6.74c-1.401-0.674-2.94-0.761-2.94-0.761
	c1.104,2.995-0.348,7.146-0.348,7.146c-1.159-2.4-2.855-3.761-2.855-3.761c-0.963,2.323-2.866,3.655-2.866,3.655
	c-0.158-2.357-2.021-3.754-2.021-3.754L56.018,39.49L56.018,39.49z"/>
<path id="Shape_48_" fill="#EBBB96" d="M7.982,39.49c-2.346,2.662-1.631,6.74-1.631,6.74c1.402-0.674,2.94-0.761,2.94-0.761
	c-1.104,2.995,0.348,7.146,0.348,7.146c1.159-2.4,2.854-3.761,2.854-3.761c0.964,2.323,2.867,3.655,2.867,3.655
	c0.159-2.357,2.02-3.754,2.02-3.754L7.982,39.49L7.982,39.49z"/>
<path id="Shape_47_" fill="#EBBB96" d="M56.939,30.693c0,22.944-17.994,24-24.939,24c-6.944,0-24.939-1.057-24.939-24
	c0-13.255,17.996-24,24.939-24C38.945,6.692,56.939,17.438,56.939,30.693L56.939,30.693z"/>
<path id="Shape_46_" fill="#F46C60" d="M32,43.168c0,0,7.639,9.418,6.728,13.984c-1.287,6.464-12.169,6.464-13.455,0
	C24.361,52.586,32,43.168,32,43.168L32,43.168z"/>
<polygon id="Shape_45_" fill="#E03636" points="32,59.576 30.298,50.466 33.702,50.466 "/>
<path id="Shape_44_" fill="#785647" d="M24.33,9.058c-8.987,4.787-8.676,23.592-14.164,28.813C7.335,21.802,20.57,4.705,24.33,9.058
	L24.33,9.058z"/>
<path id="Shape_43_" fill="#B47D56" d="M15.464,9.27C8.846,13.667-1.592,14.32,3.234,25.412C6.56,33.057,0.22,44.588,5.069,42.193
	c13.706-6.77,4.768-28.046,19.261-33.136C23.562,7.486,19.349,6.686,15.464,9.27L15.464,9.27z"/>
<path id="Shape_42_" fill="#785647" d="M39.67,9.021c8.988,4.786,8.676,23.629,14.164,28.851C56.665,21.802,43.43,4.667,39.67,9.021
	L39.67,9.021z"/>
<path id="Shape_41_" fill="#B47D56" d="M48.536,9.27c6.618,4.397,17.056,5.051,12.23,16.143c-3.327,7.645,3.015,19.176-1.837,16.781
	c-13.704-6.77-4.767-28.083-19.26-33.173C40.438,7.449,44.65,6.686,48.536,9.27L48.536,9.27z"/>
<ellipse id="Oval_3_" fill="#302C3B" cx="21.804" cy="30.102" rx="4.066" ry="5"/>
<path id="Shape_40_" fill="#FFFFFF" d="M21.061,27.854c0,1.666-2.033,1.666-2.033,0C19.028,26.188,21.061,26.188,21.061,27.854
	L21.061,27.854z"/>
<ellipse id="Oval_2_" fill="#302C3B" cx="42.196" cy="30.102" rx="4.066" ry="5"/>
<path id="Shape_39_" fill="#FFFFFF" d="M41.454,27.854c0,1.667-2.033,1.667-2.033,0C39.421,26.188,41.454,26.188,41.454,27.854
	L41.454,27.854z"/>
<path id="Shape_38_" fill="#C4926E" d="M47.565,46.209c0,13.742-13.918,7.375-15.565,5.82c-1.648,1.555-15.567,7.922-15.567-5.82
	C16.433,33.773,47.565,33.773,47.565,46.209L47.565,46.209z"/>
<path id="Shape_37_" fill="#B47D56" d="M22.785,45.27c0,1.326-1.708,1.326-1.708,0S22.785,43.945,22.785,45.27L22.785,45.27z"/>
<path id="Shape_36_" fill="#B47D56" d="M19.769,47.953c0,1.325-1.709,1.325-1.709,0C18.06,46.627,19.769,46.627,19.769,47.953
	L19.769,47.953z"/>
<path id="Shape_35_" fill="#B47D56" d="M23.271,50.168c0,1.323-1.708,1.323-1.708,0C21.563,48.842,23.271,48.842,23.271,50.168
	L23.271,50.168z"/>
<path id="Shape_34_" fill="#B47D56" d="M41.216,45.27c0,1.326,1.707,1.326,1.707,0S41.216,43.945,41.216,45.27L41.216,45.27z"/>
<path id="Shape_33_" fill="#B47D56" d="M44.231,47.953c0,1.325,1.708,1.325,1.708,0C45.939,46.627,44.231,46.627,44.231,47.953
	L44.231,47.953z"/>
<path id="Shape_32_" fill="#B47D56" d="M40.729,50.168c0,1.323,1.708,1.323,1.708,0C42.437,48.842,40.729,48.842,40.729,50.168
	L40.729,50.168z"/>
<path id="Shape_31_" fill="#EBBB96" d="M38,9.395c-0.235-3.201-3.459-5.371-3.459-5.371c-0.48,1.321-1.443,2.354-1.443,2.354
	C31.813,3.75,28.05,2,28.05,2c0.849,2.28,0.638,4.229,0.638,4.229c-2.206-0.882-4.37-0.533-4.37-0.533
	c1.484,1.618,1.188,3.698,1.188,3.698H38L38,9.395z"/>
<path id="Shape_30_" fill="#302C3B" d="M23.733,42.051c0-3.631,3.702-4.33,8.268-4.33c4.566,0,8.268,0.699,8.268,4.33
	c0,2.889-6.581,5.451-8.268,5.451C30.313,47.502,23.733,44.939,23.733,42.051L23.733,42.051z"/>
<path id="Shape_29_" fill="#4E5E67" d="M24.824,42.154c0-2.959,3.114-3.527,6.958-3.527C36.902,38.627,24.824,46.54,24.824,42.154
	L24.824,42.154z"/>
</svg>
