<?xml version="1.0" encoding="utf-8"?>
<!-- Generator: Adobe Illustrator 15.0.0, SVG Export Plug-In . SVG Version: 6.00 Build 0)  -->
<!DOCTYPE svg PUBLIC "-//W3C//DTD SVG 1.1//EN" "http://www.w3.org/Graphics/SVG/1.1/DTD/svg11.dtd">
<svg version="1.1" id="Layer_1" xmlns="http://www.w3.org/2000/svg" xmlns:xlink="http://www.w3.org/1999/xlink" x="0px" y="0px"
	 width="64px" height="64px" viewBox="0 0 64 64" enable-background="new 0 0 64 64" xml:space="preserve">
<path fill="#5E4433" d="M31.292,60.57c-1.163-0.844,0-4.896,0-4.896h-3.194c0,0,1.168,2.998,0,3.844
	c-0.793,0.574-3.26-0.123-4.384-0.123c-2.793,0-5.063,2.605-5.063,2.605h12.641C31.292,62,32.089,61.146,31.292,60.57z"/>
<path fill="#B47D56" d="M38.381,60.57c-1.166-0.844,0-4.896,0-4.896h-3.195c0,0,1.168,2.998,0,3.844
	c-0.792,0.574-3.26-0.123-4.385-0.123c-2.792,0-5.06,2.605-5.06,2.605h12.64C38.381,62,39.177,61.146,38.381,60.57z"/>
<path fill="#9E6C49" d="M40.623,55.422c0.737,3.643,4.219,4.141,5.271,2.146c0.967-1.834,5.238-0.518,4.95-3.359
	c-0.336-3.322,5.021-0.992,4.742-4.133c-0.213-2.396,2.605-3.32,2.042-5.451c-0.746-2.826,3.913-2.971,3.073-5.416
	c-0.912-2.658,2.009-4.127,0.434-6.084c-1.98-2.458,2.964-6.509-0.256-6.817c-3.002-0.287,0.545-5.058-2.327-5.113
	c-3.431-0.066-0.122-7.779-3.552-6.11c-1.579,0.768-2.238-3.355-4.239-2.125c-3.2,1.966-5.174-5.727-6.889-2.063
	c-1.07,2.287-6.793,0.319-5.533,3.273c1.385,3.25,5.376,2.491,5.244,5.664c-0.117,2.828,5.936,3.091,4.515,6.474
	c-1.009,2.401,4.078,2.443,1.384,6.829c-1.123,1.828-0.041,7.156-2.037,8.76C48.138,46.594,41.278,51.457,40.623,55.422z"/>
<path fill="#B47D56" d="M40,55.898c1.769-0.449,3.914,2.258,5.066,0.619c1.464-2.082,3.971-1.475,4.147-3.33
	c0.304-3.193,4.736-1.803,4.778-3.773c0.068-3.127,2.522-2.678,2.11-4.643c-0.706-3.371,3.453-4.137,3.032-5.969
	c-0.526-2.291,1.624-3.584,0.646-5.156c-1.663-2.676,1.605-5.237-0.296-6.042c-3.052-1.292-0.741-4.929-2.453-5.208
	c-3.244-0.529-0.702-5.625-2.476-5.479c-2.715,0.224-1.985-3.889-4.477-2.25c-2.531,1.666-4.052-4.154-5.774-2.313
	c-1.684,1.801-5.867-0.183-4.165,2.063c1.776,2.344,6.046,1.62,5.589,4.708c-0.416,2.805,5.389,3.39,4.536,6.345
	c-0.8,2.774,4.352,2.52,0.908,8.404C49.353,36.986,52.204,44,45.28,48.797C40.697,49.125,41.728,50.625,40,55.898z"/>
<path fill="#5E4433" d="M3.69,29.55c-3.354,0.528-0.755,9.01,2.123,8.604C8.403,37.791,7.904,28.887,3.69,29.55z"/>
<path fill="#B47D56" d="M20.263,14.517c0.359-7.85-5.153-9.251-7.079-0.644c-8.534,1.594-8.131,10.791-9.689,14.854
	c-1.148,1.229,7.346,8.868,17.738,0.651C23.128,27.88,29.993,19.014,20.263,14.517z"/>
<path fill="#F5CFA0" d="M23.869,21.458c3.812,12.974-17.616,14.242-19.321,8.854C6.953,25.112,18.18,30.542,23.869,21.458z"/>
<path fill="#5E4433" d="M15.517,18.041c-1.963,1.845-2.046,5.098-5.688,5.481C10.59,20.061,13.554,18.454,15.517,18.041z"/>
<path fill="#F5CFA0" d="M11.9,18.454c0.416,2.126-0.813,5.564-5.172,6.411C5.054,19.815,10.438,19.947,11.9,18.454z"/>
<path fill="#F5CFA0" d="M21.311,18.216c-5.738,2.947-8.828,12.194-14.582,6.648C11.69,24.865,12.672,18.178,21.311,18.216z"/>
<path fill="#302C3B" d="M11.206,21.961c0.682,2.797-1.792,4.479-4.478,2.903C6.521,22.124,9.457,20.607,11.206,21.961z"/>
<path fill="#302C3B" d="M4.019,26.776c0.701,0.768,0.471,3.069,0.877,4.223C3.138,30.367,2.859,27.839,4.019,26.776z"/>
<path fill="#FFFFFF" d="M8.504,23.465c0,0.843-1.201,0.843-1.201,0C7.303,22.622,8.504,22.622,8.504,23.465z"/>
<path fill="#45332C" d="M18.981,13.637c-1.041,2.017-1.977,4.955-3.251-0.818C14.196,5.874,21.514,8.727,18.981,13.637z"/>
<path fill="#B47D56" d="M23.746,20.872c0.947,3.367,0.576,9.086-5.671,11.341c-3.171,1.145-8.715-0.021-10.562-1.352
	c-3.405-2.452,0.831,1.673-2.318,0.709c-5.476-1.676,1.821,1.606-2.064,0.879c-3.564-0.668,2.606,1.727,0.723,1.608
	c-2.409-0.152-1.553,0.791,0.557,0.791c4.288,0,9.609,4.93,16.364,4.93c9.25,5.455,2.402,17.711,16.634,18.178
	C55.032,52.896,50.807,19.694,23.746,20.872z"/>
<path fill="#FFE8BB" d="M27.71,37.813c-6.829,3.586-13.791-0.238-18.764-1.734c5.034,2.348,9.199,4.918,12.961,4.811
	c-3.136,7.959,6.677,20.951,15.501,17.066C29.216,57.678,24.214,43.998,27.71,37.813z"/>
<path fill="#5E4433" d="M28.963,22.979c-1.472-0.275-3.452-0.098-1.938,0.543c13.021,5.5,18.021,15.837,15.281,29.435
	c-0.374,1.859,1.88-0.578,2.737-3.426C48.782,37.123,43.378,25.666,28.963,22.979z"/>
<path fill="#FFE8BB" d="M26.503,23.163c-1.218-0.396-2.553,1.063-1.149,1.702c12.069,5.5,17.636,15.036,15.097,28.633
	c-0.348,1.861,2.17,1.09,2.846-1.791C46.926,36.248,41.77,28.125,26.503,23.163z"/>
<path fill="#5E4433" d="M25.844,24.865c-1.191-0.398,0.041,1.104,1.324,1.911c11.768,7.398,12.334,10.472,12.581,24.482
	c0.033,1.891,0.572,4.232,1.236,1.352C44.739,36.332,38.275,29.018,25.844,24.865z"/>
</svg>
