<?xml version="1.0" encoding="utf-8"?>
<!-- Generator: Adobe Illustrator 15.0.0, SVG Export Plug-In . SVG Version: 6.00 Build 0)  -->
<!DOCTYPE svg PUBLIC "-//W3C//DTD SVG 1.1//EN" "http://www.w3.org/Graphics/SVG/1.1/DTD/svg11.dtd">
<svg version="1.1" id="Layer_1" xmlns="http://www.w3.org/2000/svg" xmlns:xlink="http://www.w3.org/1999/xlink" x="0px" y="0px"
	 width="64px" height="64px" viewBox="0 0 64 64" enable-background="new 0 0 64 64" xml:space="preserve">
<path fill="#302C3B" d="M62,14c0,6.627-5.375,12-11.998,12C43.373,26,38,20.627,38,14S43.373,2,50.002,2C56.625,2,62,7.373,62,14z"
	/>
<ellipse fill="#4E5E67" cx="50.002" cy="14" rx="7.215" ry="7.246"/>
<path fill="#302C3B" d="M26,14c0,6.627-5.375,12-11.998,12C7.373,26,2,20.627,2,14S7.373,2,14.002,2C20.625,2,26,7.373,26,14z"/>
<ellipse fill="#4E5E67" cx="14.002" cy="14" rx="7.215" ry="7.246"/>
<path fill="#CFD8DD" d="M57.798,38.309c0,0,0.507-1.719,4.202-0.75c0,0-1.779-4.369-4.299-5.164c0,0,1.822-1.023,3.395-0.557
	c-0.047-0.047-7.883-24.163-29.095-24.225C10.885,7.551,2.863,31.884,2.904,31.838c1.572-0.467,3.395,0.557,3.395,0.557
	C3.779,33.189,2,37.559,2,37.559c3.695-0.969,4.202,0.75,4.202,0.75C3.737,38.893,3.07,40.6,3.07,40.6S9.956,62,32,62
	s28.93-21.4,28.93-21.4S60.263,38.893,57.798,38.309z"/>
<path fill="#CFD8DD" d="M14.588,12.5c-1.905-1.438-4.969-0.955-4.969-0.955c1.491,1.378,2.188,3.022,2.188,3.022
	c-1.732,0.394-2.918,1.737-2.918,1.737c1.602,0.542,2.303,2.331,2.303,2.331l7.697-6.178c-1.506-2.41-4.414-2.527-4.414-2.527
	C14.744,11.208,14.588,12.5,14.588,12.5z"/>
<path fill="#CFD8DD" d="M55.11,16.305c0,0-1.187-1.345-2.918-1.74c0,0,0.697-1.643,2.188-3.021c0,0-3.063-0.481-4.969,0.957
	c0,0-0.156-1.29,0.11-2.571c0,0-2.908,0.119-4.412,2.529l7.697,6.175C52.81,18.633,53.51,16.844,55.11,16.305z"/>
<path fill="#4E5E67" d="M13.224,26.764c4.189-4.019,10.465-4.519,14.008-1.118c6.231,5.975-8.945,22.434-15.174,16.459
	C8.511,38.7,9.032,30.782,13.224,26.764z"/>
<ellipse fill="#1A1626" cx="21.806" cy="31.743" rx="3.5" ry="4.5"/>
<path id="Shape_65_" fill="#FFFFFF" d="M21.165,29.72c0,1.5-1.75,1.5-1.75,0S21.165,28.22,21.165,29.72L21.165,29.72z"/>
<path fill="#4E5E67" d="M36.767,25.646c3.549-3.402,9.817-2.9,14.012,1.119c4.188,4.016,4.712,11.939,1.164,15.338
	C45.713,48.079,30.539,31.618,36.767,25.646z"/>
<ellipse fill="#1A1626" cx="42.194" cy="31.743" rx="3.5" ry="4.5"/>
<path id="Shape_64_" fill="#FFFFFF" d="M41.556,29.72c0,1.5-1.75,1.5-1.75,0S41.556,28.22,41.556,29.72L41.556,29.72z"/>
<path fill="#E6EBEF" d="M19.958,49.536c0-4.119,5.089-11.359,11.99-11.359c6.9,0,11.99,7.24,11.99,11.359
	c0,3.305-3.76,10.627-11.99,10.627C23.717,60.163,19.958,52.841,19.958,49.536z"/>
<path fill="#302C3B" d="M31.998,50.931c-1.751,6.826-7.822,3.479-8.55,2.309c0,1.947,4.883,5.375,8.55,1.916
	c3.669,3.459,8.552,0.031,8.552-1.916C39.819,54.409,33.749,57.757,31.998,50.931z"/>
<path id="Shape_63_" fill="#302C3B" d="M24.122,47.972c0-3.141,3.505-3.744,7.827-3.744c4.321,0,7.825,0.604,7.825,3.744
	c0,2.498-6.229,4.713-7.825,4.713C30.351,52.685,24.122,50.47,24.122,47.972L24.122,47.972z"/>
<path id="Shape_60_" fill="#4E5E67" d="M25.155,48.062c0-2.561,2.947-3.053,6.586-3.053C36.588,45.009,25.155,51.853,25.155,48.062
	L25.155,48.062z"/>
</svg>
