<?xml version="1.0" encoding="utf-8"?>
<!-- Generator: Adobe Illustrator 15.0.0, SVG Export Plug-In . SVG Version: 6.00 Build 0)  -->
<!DOCTYPE svg PUBLIC "-//W3C//DTD SVG 1.1//EN" "http://www.w3.org/Graphics/SVG/1.1/DTD/svg11.dtd">
<svg version="1.1" id="Layer_1" xmlns="http://www.w3.org/2000/svg" xmlns:xlink="http://www.w3.org/1999/xlink" x="0px" y="0px"
	 width="64px" height="64px" viewBox="0 0 64 64" enable-background="new 0 0 64 64" xml:space="preserve">
<path fill="#6E8189" d="M57.35,31.577L38.277,12.949c0,0,14.088-13.428,19.832-10.542C60.906,3.812,59.886,27.777,57.35,31.577z"/>
<path fill="#FFFFFF" d="M55.885,30.28L39.28,21.296c0,0,4.343-11.636,17.31-16.713C58.535,6.58,58.329,27.767,55.885,30.28z"/>
<path fill="#CFD8DD" d="M53.589,31.317l-13.991-7.57c0,0,3.661-9.806,14.586-14.082C55.823,11.346,55.648,29.197,53.589,31.317z"/>
<path fill="#6E8189" d="M6.649,31.577l19.071-18.627c0,0-14.086-13.428-19.83-10.542C3.092,3.812,4.113,27.777,6.649,31.577z"/>
<path fill="#FFFFFF" d="M8.114,30.28l16.604-8.984c0,0-4.344-11.636-17.31-16.713C5.464,6.58,5.67,27.767,8.114,30.28z"/>
<path fill="#CFD8DD" d="M10.41,31.317l13.99-7.57c0,0-3.66-9.806-14.585-14.082C8.176,11.346,8.351,29.197,10.41,31.317z"/>
<path fill="#6E8189" d="M61.215,48.066c0,0-0.6-5.883-3.102-9.482C57.537,37.756,62,39.527,62,39.527S58.895,27.58,51.73,20.852
	c-0.305-2.219,0.006-4.048,0.006-4.048c-0.414,0.178-0.982,0.509-1.594,0.948c-0.229-1.787-0.125-3.148-0.125-3.148
	c-0.637,0.391-1.637,1.252-2.553,2.35C42.758,13.274,37.203,11.67,32,11.67v0.001c-5.203,0-10.758,1.603-15.465,5.284
	c-0.916-1.098-1.917-1.958-2.553-2.35c0,0,0.103,1.36-0.125,3.148c-0.61-0.439-1.181-0.771-1.594-0.948c0,0,0.311,1.829,0.006,4.048
	C5.105,27.582,2,39.527,2,39.527s4.464-1.771,3.889-0.941c-2.503,3.6-3.103,9.48-3.103,9.48s10.108-1.459,8.534,0
	c-1.273,1.18-4.043,1.18-4.043,1.18c3.742,2.434,11.976,1.668,11.976,1.668c5.94,4.262,19.556,4.26,25.495,0
	c0,0,8.232,0.766,11.975-1.67c0,0-2.77,0-4.041-1.178C51.105,46.607,61.215,48.066,61.215,48.066z"/>
<path fill="#E6EBEF" d="M57.521,44.537c0,0-1.707-4.459-5.375-7.064c-0.465-0.332,2.293-1.76,5.125-1.076
	C51.417,21.135,39.07,18.694,39.07,47.609c0,5.084-14.141,5.084-14.141,0c0-28.92-12.35-26.467-18.201-11.213
	c2.832-0.684,5.59,0.744,5.125,1.076c-3.668,2.605-5.375,7.064-5.375,7.064c5.791-1.859,9.758,1.744,9.5,2.148
	c-0.959,1.496-3.084,2.596-3.084,2.596c1.946,1.293,4.564,1.564,5.739,1.62c0.926,4.532,3.469,8.134,6.573,9.446l1.431-1.836
	c0,0,1.688,2.592,5.369,3.488c3.681-0.896,5.377-3.488,5.377-3.488l1.435,1.836c3.107-1.313,5.631-4.917,6.548-9.445
	c1.177-0.055,3.792-0.327,5.739-1.621c0,0-2.125-1.1-3.084-2.594C47.764,46.283,51.73,42.678,57.521,44.537z"/>
<path fill="#302C3B" d="M22.656,36.482c0,2.76-1.789,4.998-4.001,4.998c-2.21,0-3.999-2.238-3.999-4.998
	c0-2.762,1.789-5.001,3.999-5.001C20.867,31.481,22.656,33.721,22.656,36.482z"/>
<path id="Shape_76_" fill="#FFFFFF" d="M18.369,34.295c0,1.727-1.997,1.727-1.997,0C16.372,32.569,18.369,32.569,18.369,34.295
	L18.369,34.295z"/>
<path fill="#302C3B" d="M49.344,36.482c0,2.758-1.785,4.998-4.002,4.998c-2.209,0-3.998-2.24-3.998-4.998
	c0-2.762,1.789-5.001,3.998-5.001C47.559,31.481,49.344,33.721,49.344,36.482z"/>
<path id="Shape_75_" fill="#FFFFFF" d="M45.055,34.295c0,1.727-1.998,1.727-1.998,0C43.057,32.569,45.055,32.569,45.055,34.295
	L45.055,34.295z"/>
<path fill="#302C3B" d="M38.838,48.049c-1.373-1.072-12.309-1.072-13.677,0c-0.975,0.764,2.614,5.648,6.837,5.648
	C36.227,53.697,39.814,48.813,38.838,48.049z"/>
<path fill="#302C3B" d="M39.088,55.457c-0.805,0.49-1.734,0.688-2.633,0.646c-0.908-0.068-1.768-0.355-2.457-0.902
	c-0.688-0.527-1.197-1.281-1.344-2.111h-1.311c-0.148,0.83-0.654,1.584-1.346,2.111c-0.676,0.547-1.578,0.832-2.436,0.9
	c-0.945,0.041-1.834-0.156-2.652-0.646c-0.809-0.475-1.48-1.246-1.824-2.23c0.047,1.053,0.621,2.076,1.447,2.783
	c0.816,0.707,1.934,1.121,2.988,1.168c1.145,0.063,2.248-0.26,3.209-0.91c0.496-0.346,0.928-0.803,1.268-1.328
	c0.342,0.525,0.773,0.982,1.27,1.328c0.945,0.648,2.094,0.973,3.188,0.908c1.104-0.049,2.18-0.461,3.01-1.168
	c0.824-0.707,1.398-1.73,1.447-2.781C40.57,54.209,39.898,54.98,39.088,55.457z"/>
</svg>
