<?xml version="1.0" encoding="utf-8"?>
<!-- Generator: Adobe Illustrator 15.0.0, SVG Export Plug-In . SVG Version: 6.00 Build 0)  -->
<!DOCTYPE svg PUBLIC "-//W3C//DTD SVG 1.1//EN" "http://www.w3.org/Graphics/SVG/1.1/DTD/svg11.dtd">
<svg version="1.1" id="Layer_1" xmlns="http://www.w3.org/2000/svg" xmlns:xlink="http://www.w3.org/1999/xlink" x="0px" y="0px"
	 width="64px" height="64px" viewBox="0 0 64 64" enable-background="new 0 0 64 64" xml:space="preserve">
<path fill="#F9C802" d="M4.948,2c-1.68,13.432-1.413,24.234,1.091,31.133L29.247,16C24.634,10.908,15.278,3.459,4.948,2z"/>
<path fill="#AB5C10" d="M7.87,32.178L19.816,17c0,0-4.167-5.361-13.221-10.514C3.883,18.143,7.87,32.178,7.87,32.178z"/>
<path fill="#82450D" d="M12.232,23.635L18.879,16c0,0-3.229-4.361-12.283-9.514C13.867,14.658,12.232,23.635,12.232,23.635z"/>
<path fill="#F9C802" d="M59.052,2c1.681,13.432,1.411,24.234-1.091,31.133L34.753,16C39.364,10.908,48.722,3.459,59.052,2z"/>
<path fill="#AB5C10" d="M56.13,32.178L44.184,17c0,0,4.167-5.361,13.221-10.514C60.117,18.143,56.13,32.178,56.13,32.178z"/>
<path fill="#82450D" d="M51.767,23.635L45.121,16c0,0,3.229-4.361,12.283-9.514C50.132,14.658,51.767,23.635,51.767,23.635z"/>
<path fill="#F9C802" d="M57.797,40.126c0,0,0.508-1.586,4.203-0.691c0,0-1.779-4.035-4.299-4.769c0,0,1.822-0.945,3.395-0.515
	c0,0-1.534-5.26-6.222-10.885c0.262-0.078,0.535-0.14,0.832-0.153c0,0-0.905-1.637-2.63-2.5c0,0,1.156-1.406,3.078-2.333
	c0,0-3.103-1.32-5.479-0.449c0,0,0.167-1.3,0.776-2.467c0,0-1.675-0.372-3.437,0.197c-3.992-2.667-9.202-4.2-16.014-4.2
	c-6.813,0-12.022,1.534-16.015,4.2c-1.763-0.569-3.438-0.197-3.438-0.197c0.611,1.167,0.777,2.467,0.777,2.467
	c-2.377-0.871-5.479,0.449-5.479,0.449c1.923,0.928,3.079,2.333,3.079,2.333c-1.725,0.863-2.63,2.5-2.63,2.5
	c0.297,0.014,0.569,0.075,0.83,0.153c-4.688,5.625-6.221,10.885-6.221,10.885c1.572-0.431,3.395,0.515,3.395,0.515
	C3.779,35.399,2,39.435,2,39.435c3.695-0.895,4.201,0.691,4.201,0.691c-2.465,0.539-3.131,2.115-3.131,2.115S9.955,62,32,62
	c22.043,0,28.93-19.759,28.93-19.759S60.262,40.665,57.797,40.126z"/>
<path fill="#D47706" d="M37.687,11.764c-1.762-0.258-3.65-0.498-5.686-0.498s-3.926,0.24-5.689,0.498
	c0.736,3.855,5.688,11.584,5.688,11.584S36.964,15.592,37.687,11.764z"/>
<path fill="#D47706" d="M46.813,14.785c-1.908-1.092-4.072-1.943-6.523-2.523c0.59,2.291,3.627,6.936,3.627,6.936
	S46.134,16.535,46.813,14.785z"/>
<path fill="#D47706" d="M23.71,12.264c-2.451,0.578-4.615,1.43-6.521,2.521c0.686,1.766,2.891,4.412,2.891,4.412
	S23.128,14.533,23.71,12.264z"/>
<path fill="#D47706" d="M21.783,41.84C10.146,39.969,7.65,42.186,7.719,42.654C7.742,42.807,12.828,41.229,21.783,41.84z"/>
<path fill="#D47706" d="M22.195,43.445c-14.27-0.068-16.855,3.09-16.688,3.648C5.563,47.271,11.363,44.398,22.195,43.445z"/>
<path fill="#D47706" d="M42.217,41.84c11.639-1.871,14.133,0.346,14.064,0.814C56.26,42.807,51.174,41.229,42.217,41.84z"/>
<path fill="#D47706" d="M41.807,43.445c14.268-0.068,16.854,3.09,16.686,3.648C58.439,47.271,52.639,44.398,41.807,43.445z"/>
<path fill="#302C3B" d="M36.042,40.611c-0.811-0.945-7.275-0.945-8.086,0c-1.24,1.451,2.439,4.982,4.043,4.982
	S37.286,42.063,36.042,40.611z"/>
<path fill="#302C3B" d="M40.988,47.915c-5.793,3.607-12.219,3.585-17.977,0c-0.693-0.43-1.318,0.316-0.848,1.008
	C23.918,51.502,27.463,53.8,32,53.8c4.539,0,8.082-2.298,9.836-4.877C42.307,48.231,41.682,47.485,40.988,47.915z"/>
<path fill="#F46C60" d="M28.136,51.896c-1.017,2.105-1.765,4.303-1.483,5.857c1.022,5.662,9.673,5.662,10.694,0
	c0.281-1.555-0.467-3.752-1.484-5.857H28.136z"/>
<path fill="#E81C27" d="M31.999,59.877l-1.353-7.981h2.705L31.999,59.877L31.999,59.877z"/>
<path fill="#302C3B" d="M40.988,49.749c-5.793,3.607-12.219,3.584-17.977,0c-0.693-0.431,4.451,1.045,8.988,1.045
	C36.539,50.794,41.682,49.318,40.988,49.749z"/>
<ellipse fill="#302C3B" cx="44.356" cy="33.5" rx="4" ry="5.5"/>
<path id="Shape_28_" fill="#FFFFFF" d="M43.626,31.135c0,1.667-2,1.667-2,0S43.626,29.468,43.626,31.135L43.626,31.135z"/>
<ellipse fill="#302C3B" cx="19.643" cy="33.5" rx="4" ry="5.5"/>
<path id="Shape_27_" fill="#FFFFFF" d="M18.912,31.135c0,1.667-2,1.667-2,0S18.912,29.468,18.912,31.135L18.912,31.135z"/>
</svg>
