<?xml version="1.0" encoding="utf-8"?>
<!-- Generator: Adobe Illustrator 15.0.0, SVG Export Plug-In . SVG Version: 6.00 Build 0)  -->
<!DOCTYPE svg PUBLIC "-//W3C//DTD SVG 1.1//EN" "http://www.w3.org/Graphics/SVG/1.1/DTD/svg11.dtd">
<svg version="1.1" id="Layer_1" xmlns="http://www.w3.org/2000/svg" xmlns:xlink="http://www.w3.org/1999/xlink" x="0px" y="0px"
	 width="64px" height="64px" viewBox="0 0 64 64" enable-background="new 0 0 64 64" xml:space="preserve">
<path fill="#785647" d="M18.136,21.825c-5.644,1.548-9.087,7.131-8.091,10.944c0.998,3.813,4.765-0.53,10.41-2.079
	c5.643-1.552,11.026,0.28,10.03-3.533C29.486,23.344,23.781,20.273,18.136,21.825z"/>
<path fill="#785647" d="M13.768,20.047c1.701-0.633,1.917-4.418,1.011-6.97c-0.906-2.55-3.019-4.103-4.72-3.469
	c-1.699,0.635-2.344,3.216-1.438,5.767C9.527,17.927,12.066,20.682,13.768,20.047z"/>
<path fill="#785647" d="M20.707,18.078c1.803-0.162,2.967-3.759,2.736-6.466c-0.23-2.703-1.879-4.763-3.682-4.604
	c-1.803,0.162-3.078,2.486-2.848,5.191C17.146,14.903,18.902,18.24,20.707,18.078z"/>
<path fill="#785647" d="M28.678,10.164c-1.809,0-3.276,2.2-3.276,4.913c0,2.717,1.467,6.195,3.276,6.195
	c1.811,0,3.277-3.479,3.277-6.195C31.955,12.364,30.488,10.164,28.678,10.164z"/>
<path fill="#785647" d="M3.318,17.127c-1.568,0.926-1.766,3.584-0.439,5.936c1.324,2.35,4.293,4.611,5.859,3.685
	c1.568-0.927,1.141-4.693-0.184-7.043C7.23,17.353,4.885,16.2,3.318,17.127z"/>
<path fill="#785647" d="M45.865,44.529c-5.645-1.551-11.352,1.52-12.348,5.332c-0.998,3.813,4.385,1.98,10.029,3.532
	c5.645,1.549,9.412,5.893,10.408,2.079C54.953,51.661,51.508,46.079,45.865,44.529z"/>
<path fill="#785647" d="M50.234,42.754c1.699,0.633,4.24-2.121,5.146-4.673c0.906-2.551,0.262-5.133-1.439-5.767
	c-1.701-0.635-3.813,0.919-4.719,3.471C48.316,38.335,48.533,42.12,50.234,42.754z"/>
<path fill="#785647" d="M43.295,40.782c1.803,0.162,3.561-3.174,3.791-5.878s-1.043-5.028-2.846-5.19
	c-1.803-0.16-3.451,1.899-3.684,4.605C40.326,37.023,41.492,40.62,43.295,40.782z"/>
<path fill="#785647" d="M35.322,43.978c1.811,0,3.277-3.479,3.277-6.195c0-2.714-1.467-4.914-3.277-4.914s-3.277,2.2-3.277,4.916
	C32.045,40.498,33.514,43.978,35.322,43.978z"/>
<path fill="#785647" d="M60.684,39.832c-1.568-0.927-3.912,0.226-5.236,2.578c-1.324,2.35-1.752,6.116-0.186,7.043
	c1.568,0.927,4.537-1.335,5.861-3.685C62.447,43.417,62.25,40.759,60.684,39.832z"/>
<path fill="#45332C" d="M30.484,27.156c-0.32-1.219-1.123-2.359-2.249-3.3c0.597,0.709,1.035,1.485,1.249,2.3
	c0.996,3.813-4.387,1.981-10.03,3.533c-4.31,1.183-7.52,3.983-9.244,3.549c1.198,2.922,4.866-1.073,10.244-2.549
	C26.097,29.138,31.48,30.97,30.484,27.156z"/>
<path fill="#45332C" d="M14.779,13.078c-0.454-1.277-1.21-2.303-2.066-2.931c0.429,0.544,0.803,1.188,1.066,1.931
	c0.906,2.552,0.689,6.337-1.012,6.97c-0.729,0.272-1.611-0.081-2.453-0.771c1.094,1.298,2.426,2.154,3.453,1.771
	C15.468,19.415,15.685,15.629,14.779,13.078z"/>
<path fill="#45332C" d="M23.443,11.612c-0.159-1.864-0.999-3.403-2.093-4.138c0.577,0.816,0.987,1.902,1.093,3.138
	c0.23,2.707-0.934,6.304-2.736,6.466c-0.386,0.035-0.768-0.098-1.135-0.343c0.631,0.858,1.378,1.411,2.135,1.343
	C22.509,17.916,23.673,14.319,23.443,11.612z"/>
<path fill="#45332C" d="M29.951,10.548c0.617,0.894,1.004,2.142,1.004,3.528c0,2.717-1.467,6.195-3.277,6.195
	c-0.292,0-0.574-0.099-0.843-0.262c0.525,0.765,1.159,1.262,1.843,1.262c1.811,0,3.277-3.479,3.277-6.195
	C31.955,13.041,31.129,11.294,29.951,10.548z"/>
<path fill="#45332C" d="M8.555,19.705c-0.45-0.799-1.021-1.445-1.636-1.933c0.228,0.287,0.445,0.593,0.636,0.933
	c1.324,2.351,1.752,6.117,0.184,7.043c-0.973,0.575-2.485-0.079-3.809-1.22c1.484,1.705,3.578,2.948,4.809,2.22
	C10.307,25.821,9.879,22.055,8.555,19.705z"/>
<path fill="#45332C" d="M50.521,47.061c2.051,2.292,3.023,5.158,2.434,7.412c-0.996,3.813-4.764-0.53-10.408-2.079
	c-3.74-1.027-7.354-0.577-9.084-1.261c0.557,2.092,5.218,0.923,10.084,2.261c5.645,1.549,9.412,5.893,10.408,2.079
	C54.634,52.877,53.252,49.466,50.521,47.061z"/>
<path fill="#45332C" d="M54.217,32.467c0.664,1.141,0.781,2.877,0.164,4.614c-0.906,2.552-3.447,5.306-5.146,4.673
	c-0.002-0.001-0.004-0.002-0.006-0.003c0.246,0.486,0.578,0.844,1.006,1.003c1.699,0.633,4.24-2.121,5.146-4.673
	C56.233,35.68,55.699,33.272,54.217,32.467z"/>
<path fill="#45332C" d="M45.234,30.072c0.633,0.962,0.979,2.331,0.852,3.832c-0.23,2.704-1.988,6.04-3.791,5.878
	c-0.203-0.019-0.396-0.085-0.581-0.184c0.435,0.674,0.97,1.129,1.581,1.184c1.803,0.162,3.561-3.174,3.791-5.878
	C47.27,32.736,46.48,30.833,45.234,30.072z"/>
<path fill="#45332C" d="M36.596,33.253c0.617,0.895,1.004,2.142,1.004,3.529c0,2.716-1.467,6.195-3.277,6.195
	c-0.293,0-0.574-0.099-0.844-0.263c0.525,0.765,1.16,1.263,1.844,1.263c1.811,0,3.277-3.479,3.277-6.195
	C38.6,35.745,37.773,33.999,36.596,33.253z"/>
<path fill="#45332C" d="M60.684,39.832c-0.033-0.02-0.072-0.025-0.105-0.043c0.674,1.247,0.547,3.2-0.455,4.979
	c-1.246,2.211-3.948,4.342-5.569,3.814c0.163,0.38,0.394,0.684,0.708,0.87c1.568,0.927,4.537-1.335,5.861-3.685
	C62.447,43.417,62.25,40.759,60.684,39.832z"/>
</svg>
