<?xml version="1.0" encoding="utf-8"?>
<!-- Generator: Adobe Illustrator 15.0.0, SVG Export Plug-In . SVG Version: 6.00 Build 0)  -->
<!DOCTYPE svg PUBLIC "-//W3C//DTD SVG 1.1//EN" "http://www.w3.org/Graphics/SVG/1.1/DTD/svg11.dtd">
<svg version="1.1" id="Layer_1" xmlns="http://www.w3.org/2000/svg" xmlns:xlink="http://www.w3.org/1999/xlink" x="0px" y="0px"
	 width="64px" height="64px" viewBox="0 0 64 64" enable-background="new 0 0 64 64" xml:space="preserve">
<path fill="#785647" d="M44.912,32.297c0.467,3.85,14.1,11.742,16.824-2.351C64.596,15.143,43.246,18.556,44.912,32.297z"/>
<path fill="#C4926E" d="M59.666,25.319c-3.451-2.59-10.203,1.32-9.199,9.538c0.053,0.422-1.225-0.799-1.34-1.731
	C47.965,23.608,57.199,19.876,59.666,25.319z"/>
<path fill="#EBBB96" d="M59.666,25.319c0.619,1.361,0.818,3.288,0.32,5.852c-1.711,8.796-9.467,4.108-9.52,3.687
	C49.463,26.64,56.215,22.729,59.666,25.319z"/>
<path fill="#785647" d="M19.087,32.297c-0.467,3.85-14.1,11.742-16.823-2.351C-0.596,15.143,20.755,18.556,19.087,32.297z"/>
<path fill="#C4926E" d="M4.333,25.319c3.451-2.59,10.202,1.32,9.2,9.538c-0.054,0.422,1.226-0.799,1.339-1.731
	C16.034,23.608,6.801,19.876,4.333,25.319z"/>
<path fill="#EBBB96" d="M4.333,25.319c-0.618,1.361-0.818,3.288-0.32,5.852c1.71,8.796,9.467,4.108,9.521,3.687
	C14.536,26.64,7.785,22.729,4.333,25.319z"/>
<path fill="#785647" d="M51.488,26.735C51.488,13.007,41.457,8.086,32,8.086c-9.458,0-19.49,4.921-19.49,18.649
	c0,4.174-4.483,7.685-4.512,13.267C7.93,54.391,20,60,32,60c12,0,24.072-5.604,24-20C55.971,34.418,51.488,30.909,51.488,26.735z"/>
<path fill="#785647" d="M38.695,9.025c0,0-0.262-1.608,2.139-3.135c0,0-5.496-0.563-7.892,1.777c0,0-0.41-1.899,0.958-3.668
	c0,0-6.194,0-10.433,6.339l19.526,4.001c0,0-0.326-3.155,2.297-4.565C45.291,9.774,41.992,8.239,38.695,9.025z"/>
<path fill="#EBBB96" d="M32.001,22.783C16.902,14.213,7.125,32.8,19.904,41.035c-2.794,8.521-0.144,15.541,12.097,15.541
	c12.237,0,14.888-7.02,12.095-15.541C56.875,32.8,47.098,14.213,32.001,22.783z"/>
<path fill="#302C3B" d="M27.072,39.824c-0.499-1.768,4.474,1.195,3.804,1.398C29.661,41.594,27.469,41.223,27.072,39.824z"/>
<path fill="#302C3B" d="M36.926,39.824c0.5-1.768-4.472,1.195-3.803,1.398C34.338,41.594,36.529,41.223,36.926,39.824z"/>
<path fill="#302C3B" d="M26.539,31.771c0,2.619-1.65,4.744-3.691,4.744c-2.038,0-3.689-2.125-3.689-4.744
	c0-2.623,1.651-4.748,3.689-4.748C24.889,27.023,26.539,29.148,26.539,31.771z"/>
<path id="Shape_8_" fill="#FFFFFF" d="M22.584,29.695c0,1.637-1.843,1.637-1.843,0C20.741,28.055,22.584,28.055,22.584,29.695
	L22.584,29.695z"/>
<path fill="#302C3B" d="M44.848,31.771c0,2.619-1.652,4.744-3.691,4.744s-3.689-2.125-3.689-4.744c0-2.623,1.65-4.748,3.689-4.748
	S44.848,29.148,44.848,31.771z"/>
<path id="Shape_7_" fill="#FFFFFF" d="M40.893,29.695c0,1.637-1.844,1.637-1.844,0C39.049,28.055,40.893,28.055,40.893,29.695
	L40.893,29.695z"/>
<path fill="#302C3B" d="M39.936,46c-1.658,0-4.824,0-7.937,0s-6.276,0-7.938,0c-0.366,0-0.563,0.254-0.563,0.5
	c0,3.635,2.98,7.5,8.5,7.5c5.521,0,8.501-3.865,8.501-7.5C40.5,46.254,40.305,46,39.936,46z"/>
<path fill="#F46C60" d="M27.5,51.57c1.301,0.9,2.801,1.43,4.5,1.43s3.199-0.529,4.5-1.43C35.245,50.595,33.751,50,32,50
	C30.248,50,28.756,50.595,27.5,51.57z"/>
</svg>
