<?xml version="1.0" encoding="utf-8"?>
<!-- Generator: Adobe Illustrator 15.0.0, SVG Export Plug-In . SVG Version: 6.00 Build 0)  -->
<!DOCTYPE svg PUBLIC "-//W3C//DTD SVG 1.1//EN" "http://www.w3.org/Graphics/SVG/1.1/DTD/svg11.dtd">
<svg version="1.1" id="Layer_1" xmlns="http://www.w3.org/2000/svg" xmlns:xlink="http://www.w3.org/1999/xlink" x="0px" y="0px"
	 width="64px" height="64px" viewBox="0 0 64 64" enable-background="new 0 0 64 64" xml:space="preserve">
<path fill="#302C3B" d="M55.58,41.686C59.598,37.286,62,32.751,62,30.232C62,24.271,48.568,7,32,7C15.433,7,2,24.271,2,30.232
	s13.433,23.232,30,23.232c4.615,0,8.986-1.342,12.892-3.404L55.58,57V41.686z"/>
<path fill="#1A1626" d="M43.151,48.932c-3.905,2.063-8.536,3.533-13.151,3.533c-3.981,0-7.778-1.004-11.255-2.603
	c3.998,2.173,8.496,3.603,13.255,3.603c4.515,0,9.132-1.229,12.892-3.404L43.151,48.932z"/>
<path fill="#1A1626" d="M43.256,9.603C53.175,14.993,60,24.983,60,29.232c0,2.519-2.402,7.054-6.42,11.453v15.016l2,1.299V41.686
	C59.598,37.286,62,32.751,62,30.232C62,25.703,54.245,14.654,43.256,9.603z"/>
<circle fill="#FFFFFF" cx="32" cy="30.25" r="15"/>
<path fill="#302C3B" d="M32,21.25c-0.975,0-1.91,0.16-2.789,0.446C30.296,22.613,31,23.968,31,25.5c0,2.762-2.238,5-5,5
	c-1.113,0-2.132-0.376-2.963-0.991C23.018,29.754,23,30,23,30.25c0,4.971,4.029,9,9,9s9-4.029,9-9S36.971,21.25,32,21.25z"/>
<path fill="#1A1626" d="M37.276,22.97c1.445,1.597,2.332,3.707,2.332,6.03c0,4.971-4.029,9-9,9c-1.973,0-3.792-0.643-5.275-1.72
	c1.646,1.82,4.02,2.97,6.667,2.97c4.971,0,9-4.029,9-9C41,27.253,39.529,24.605,37.276,22.97z"/>
<path fill="#4E5E67" d="M4.21,31.136c0-5.769,12.708-22.292,29.5-22.292c2.443,0,1.744-0.719-1.483-0.719
	c-16.029,0-29.025,16.709-29.025,22.477C3.202,32.125,4.21,32.378,4.21,31.136z"/>
</svg>
