<?xml version="1.0" encoding="utf-8"?>
<!-- Generator: Adobe Illustrator 15.0.0, SVG Export Plug-In . SVG Version: 6.00 Build 0)  -->
<!DOCTYPE svg PUBLIC "-//W3C//DTD SVG 1.1//EN" "http://www.w3.org/Graphics/SVG/1.1/DTD/svg11.dtd">
<svg version="1.1" id="Layer_1" xmlns="http://www.w3.org/2000/svg" xmlns:xlink="http://www.w3.org/1999/xlink" x="0px" y="0px"
	 width="64px" height="64px" viewBox="0 0 64 64" enable-background="new 0 0 64 64" xml:space="preserve">
<path fill="#FCD5B2" d="M34.633,49.33c5.803-1.512,6.451-7.139,2.365-8.65c3.059-0.654,5.848-6.771,0.311-8.68h20.359
	c5.775,0,5.775-8.666,0-8.666H32h-4.285c0-4.275,6.428-3.795,6.428-12.344c0-4.266-3.223-6.127-4.285-4.275
	C21.285,21.675,2,19.539,2,40.904C2,53.725,11.441,58,21.285,58h9.645H32h1.023C37.512,58,36.908,50.258,34.633,49.33z"/>
<path fill="#DBA97F" d="M34.143,10.99c0,0.512-0.025,0.986-0.068,1.436c-0.354-3.721-3.219-5.283-4.217-3.543
	C21.473,23.515,2.844,21.804,2.039,41.725C2.029,41.447,2,41.189,2,40.904c0-21.366,19.285-19.229,27.857-34.19
	C30.92,4.863,34.143,6.724,34.143,10.99z"/>
<path fill="#DBA97F" d="M35.166,49.33h1.072c5.961,0,5.404-8.662,1.072-8.662h-0.002c5.779,0,5.779-8.668,0-8.668h-1.275
	c4.623,0,4.883,8.668-0.428,8.668c3.781,0,5.846,8.662-2.785,8.662c4.621,0,4.781,8.67-1.287,8.67h1.49
	C39.074,58,38.359,49.637,35.166,49.33z"/>
<path fill="#DBA97F" d="M61.861,28.746c-0.404-1.748-1.793-3.25-4.193-3.25H27.715v-2.162h29.953
	C61.043,23.333,62.43,26.287,61.861,28.746z"/>
<path fill="#FFE6CF" d="M56.535,30.498c3.191,0.467,3.322-1.027,3.322-2.895s-0.131-3.359-3.322-2.891
	c-1.186,0.174-1.59,1.422-1.59,2.891C54.945,29.074,55.35,30.322,56.535,30.498z"/>
<path fill="#FFE6CF" d="M30.119,12.169c2.154-2.328,1.818-4.607,0.512-5.928c-1.305-1.32-2.705,3.168-4.027,4.91
	C27.633,12.191,29.252,13.107,30.119,12.169z"/>
<path fill="#E3BF9F" d="M30.633,6.242c0.539,0.545,0.908,1.254,1.01,2.061c-0.705-0.271-1.389-0.105-1.783,0.58
	c-0.656,1.146-1.383,2.184-2.152,3.148c-0.396-0.248-0.779-0.555-1.102-0.879C27.928,9.41,29.328,4.921,30.633,6.242z"/>
<path fill="#E3BF9F" d="M56.535,24.712c2.154-0.316,2.912,0.262,3.178,1.246c-0.574-0.285-1.248-0.463-2.045-0.463h-2.266
	C55.654,25.08,56.016,24.789,56.535,24.712z"/>
</svg>
