<?xml version="1.0" encoding="utf-8"?>
<!-- Generator: Adobe Illustrator 15.0.0, SVG Export Plug-In . SVG Version: 6.00 Build 0)  -->
<!DOCTYPE svg PUBLIC "-//W3C//DTD SVG 1.1//EN" "http://www.w3.org/Graphics/SVG/1.1/DTD/svg11.dtd">
<svg version="1.1" id="Layer_1" xmlns="http://www.w3.org/2000/svg" xmlns:xlink="http://www.w3.org/1999/xlink" x="0px" y="0px"
	 width="64px" height="64px" viewBox="0 0 64 64" enable-background="new 0 0 64 64" xml:space="preserve">
<path fill="#FDCA47" d="M34.633,49.33c5.803-1.512,6.451-7.139,2.365-8.652c3.059-0.654,5.848-6.77,0.311-8.677h20.359
	c5.775,0,5.775-8.667,0-8.667H32h-4.285c0-4.274,6.428-3.795,6.428-12.344c0-4.266-3.223-6.127-4.285-4.274
	C21.285,21.675,2,19.538,2,40.904C2,53.723,11.441,58,21.285,58h9.645H32h1.023C37.512,58,36.908,50.256,34.633,49.33z"/>
<path fill="#CC9200" d="M34.143,10.989c0,0.512-0.025,0.986-0.068,1.437c-0.354-3.721-3.219-5.283-4.217-3.543
	C21.473,23.515,2.844,21.805,2.039,41.725C2.029,41.447,2,41.188,2,40.902C2,19.538,21.285,21.675,29.857,6.715
	C30.92,4.862,34.143,6.724,34.143,10.989z"/>
<path fill="#CC9200" d="M35.166,49.33h1.072c5.961,0,5.404-8.664,1.072-8.664h-0.002c5.779,0,5.779-8.666,0-8.666h-1.275
	c4.623,0,4.883,8.666-0.428,8.666c3.781,0,5.846,8.664-2.785,8.664c4.621,0,4.781,8.67-1.287,8.67h1.49
	C39.074,58,38.359,49.635,35.166,49.33z"/>
<path fill="#CC9200" d="M61.861,28.745c-0.404-1.747-1.793-3.249-4.193-3.249H27.715v-2.163h29.953
	C61.043,23.333,62.43,26.287,61.861,28.745z"/>
<path fill="#FEEC9A" d="M56.535,30.497c3.191,0.468,3.322-1.026,3.322-2.894s-0.131-3.359-3.322-2.892
	c-1.186,0.175-1.59,1.423-1.59,2.892C54.945,29.073,55.35,30.322,56.535,30.497z"/>
<path fill="#FEEC9A" d="M30.119,12.169c2.154-2.328,1.818-4.606,0.512-5.927c-1.305-1.32-2.705,3.168-4.027,4.909
	C27.633,12.191,29.252,13.106,30.119,12.169z"/>
<path fill="#E5BC5E" d="M30.633,6.242c0.539,0.544,0.908,1.253,1.01,2.06c-0.705-0.271-1.389-0.105-1.783,0.581
	c-0.656,1.147-1.383,2.184-2.152,3.148c-0.396-0.248-0.779-0.554-1.102-0.879C27.928,9.41,29.328,4.922,30.633,6.242z"/>
<path fill="#E5BC5E" d="M56.535,24.712c2.154-0.316,2.912,0.263,3.178,1.246c-0.574-0.285-1.248-0.462-2.045-0.462h-2.266
	C55.654,25.079,56.016,24.789,56.535,24.712z"/>
</svg>
