<?xml version="1.0" encoding="utf-8"?>
<!-- Generator: Adobe Illustrator 15.0.0, SVG Export Plug-In . SVG Version: 6.00 Build 0)  -->
<!DOCTYPE svg PUBLIC "-//W3C//DTD SVG 1.1//EN" "http://www.w3.org/Graphics/SVG/1.1/DTD/svg11.dtd">
<svg version="1.1" id="Layer_1" xmlns="http://www.w3.org/2000/svg" xmlns:xlink="http://www.w3.org/1999/xlink" x="0px" y="0px"
	 width="64px" height="64px" viewBox="0 0 64 64" enable-background="new 0 0 64 64" xml:space="preserve">
<ellipse fill="#614A36" cx="16.853" cy="48.648" rx="9.853" ry="9.537"/>
<ellipse fill="#614A36" cx="47.148" cy="48.648" rx="9.852" ry="9.537"/>
<path fill="#3B2B1C" d="M47.148,49.402c-2.723,0-27.572,0-30.297,0c-3.807,0-6.895,2.096-6.895,4.689
	c0,0.629,0.188,1.227,0.516,1.77c1.725,1.43,3.932,2.324,6.379,2.324c1.387,0,2.691-0.295,3.879-0.803l0.006,0.027
	C23.598,60.242,27.584,62,31.998,62c4.416,0,8.4-1.758,11.264-4.59l0.004-0.029c1.189,0.509,2.496,0.805,3.883,0.805
	c2.447,0,4.658-0.895,6.381-2.324c0.328-0.543,0.518-1.141,0.518-1.77C54.047,51.498,50.957,49.402,47.148,49.402z"/>
<path fill="#17110B" d="M17.584,53.164c3.652,1.146,4.742,5.617,4.742,5.617s-2.533-1.902-5.436-2.51
	C10.152,54.855,13.078,51.748,17.584,53.164z"/>
<path fill="#17110B" d="M46.418,53.164c-3.652,1.146-4.744,5.617-4.744,5.617s2.535-1.902,5.436-2.51
	C53.852,54.855,50.924,51.748,46.418,53.164z"/>
<path fill="#614A36" d="M43.051,21.186C43.051,5.021,38.109,2,31.998,2c-6.104,0-11.049,3.021-11.049,19.186
	c0,4.725-3.729,18.381-3.729,23.99c0,8.307,6.613,8.617,14.777,8.617c8.166,0,14.779-0.311,14.779-8.617
	C46.777,39.563,43.051,25.91,43.051,21.186z"/>
</svg>
