<?xml version="1.0" encoding="utf-8"?>
<!-- Generator: Adobe Illustrator 15.0.0, SVG Export Plug-In . SVG Version: 6.00 Build 0)  -->
<!DOCTYPE svg PUBLIC "-//W3C//DTD SVG 1.1//EN" "http://www.w3.org/Graphics/SVG/1.1/DTD/svg11.dtd">
<svg version="1.1" id="Layer_1" xmlns="http://www.w3.org/2000/svg" xmlns:xlink="http://www.w3.org/1999/xlink" x="0px" y="0px"
	 width="64px" height="64px" viewBox="0 0 64 64" enable-background="new 0 0 64 64" xml:space="preserve">
<path fill="#FCD5B2" d="M29.367,49.33c-5.803-1.512-6.451-7.139-2.365-8.65c-3.059-0.654-5.848-6.771-0.311-8.68H6.332
	c-5.775,0-5.775-8.666,0-8.666H32h4.285c0-4.275-6.428-3.795-6.428-12.344c0-4.266,3.223-6.127,4.285-4.275
	C42.715,21.675,62,19.539,62,40.904C62,53.725,52.559,58,42.715,58H33.07H32h-1.023C26.488,58,27.092,50.258,29.367,49.33z"/>
<path fill="#DBA97F" d="M29.857,10.99c0,0.512,0.025,0.986,0.068,1.436c0.354-3.721,3.219-5.283,4.217-3.543
	c8.385,14.633,27.014,12.922,27.818,32.842c0.01-0.277,0.039-0.535,0.039-0.82c0-21.366-19.285-19.229-27.857-34.19
	C33.08,4.863,29.857,6.724,29.857,10.99z"/>
<path fill="#DBA97F" d="M28.834,49.33h-1.072c-5.961,0-5.404-8.662-1.072-8.662h0.002c-5.779,0-5.779-8.668,0-8.668h1.275
	c-4.623,0-4.883,8.668,0.428,8.668c-3.781,0-5.846,8.662,2.785,8.662c-4.621,0-4.781,8.67,1.287,8.67h-1.49
	C24.926,58,25.641,49.637,28.834,49.33z"/>
<path fill="#DBA97F" d="M2.139,28.746c0.404-1.748,1.793-3.25,4.193-3.25h29.953v-2.162H6.332
	C2.957,23.333,1.57,26.287,2.139,28.746z"/>
<path fill="#FFE6CF" d="M7.465,30.498c-3.191,0.467-3.322-1.027-3.322-2.895s0.131-3.359,3.322-2.891
	c1.186,0.174,1.59,1.422,1.59,2.891C9.055,29.074,8.65,30.322,7.465,30.498z"/>
<path fill="#FFE6CF" d="M33.881,12.169c-2.154-2.328-1.818-4.607-0.512-5.928c1.305-1.32,2.705,3.168,4.027,4.91
	C36.367,12.191,34.748,13.107,33.881,12.169z"/>
<path fill="#E3BF9F" d="M33.367,6.242c-0.539,0.545-0.908,1.254-1.01,2.061c0.705-0.271,1.389-0.105,1.783,0.58
	c0.656,1.146,1.383,2.184,2.152,3.148c0.396-0.248,0.779-0.555,1.102-0.879C36.072,9.41,34.672,4.921,33.367,6.242z"/>
<path fill="#E3BF9F" d="M7.465,24.712c-2.154-0.316-2.912,0.262-3.178,1.246c0.574-0.285,1.248-0.463,2.045-0.463h2.266
	C8.346,25.08,7.984,24.789,7.465,24.712z"/>
</svg>
