<?xml version="1.0" encoding="utf-8"?>
<!-- Generator: Adobe Illustrator 15.0.0, SVG Export Plug-In . SVG Version: 6.00 Build 0)  -->
<!DOCTYPE svg PUBLIC "-//W3C//DTD SVG 1.1//EN" "http://www.w3.org/Graphics/SVG/1.1/DTD/svg11.dtd">
<svg version="1.1" id="Layer_1" xmlns="http://www.w3.org/2000/svg" xmlns:xlink="http://www.w3.org/1999/xlink" x="0px" y="0px"
	 width="64px" height="64px" viewBox="0 0 64 64" enable-background="new 0 0 64 64" xml:space="preserve">
<path fill="#B88A6F" d="M49.33,29.367c-1.512-5.803-7.139-6.451-8.652-2.365c-0.654-3.059-6.77-5.848-8.677-0.311V6.332
	c0-5.775-8.668-5.775-8.668,0V32v4.285c-4.273,0-3.795-6.428-12.344-6.428c-4.265,0-6.126,3.223-4.274,4.285
	C21.674,42.715,19.538,62,40.904,62C53.723,62,58,52.559,58,42.715V33.07V32v-1.023C58,26.488,50.256,27.092,49.33,29.367z"/>
<path fill="#946346" d="M10.989,29.857c0.512,0,0.986,0.025,1.438,0.068c-3.721,0.354-5.284,3.219-3.543,4.217
	c14.631,8.385,12.922,27.014,32.842,27.818C41.447,61.971,41.188,62,40.902,62C19.538,62,21.674,42.715,6.715,34.143
	C4.862,33.08,6.724,29.857,10.989,29.857z"/>
<path fill="#946346" d="M49.33,28.834v-1.072c0-5.961-8.664-5.404-8.664-1.072v0.002c0-5.779-8.666-5.779-8.666,0v1.275
	c0-4.623,8.666-4.883,8.666,0.428c0-3.781,8.664-5.846,8.664,2.785c0-4.621,8.67-4.781,8.67,1.287v-1.49
	C58,24.926,49.635,25.641,49.33,28.834z"/>
<path fill="#946346" d="M28.745,2.139c-1.746,0.404-3.248,1.793-3.248,4.193v29.953h-2.164V6.332
	C23.333,2.957,26.288,1.57,28.745,2.139z"/>
<path fill="#D4AD97" d="M30.497,7.465c0.469-3.191-1.025-3.322-2.893-3.322s-3.359,0.131-2.893,3.322
	c0.176,1.186,1.424,1.59,2.893,1.59S30.323,8.65,30.497,7.465z"/>
<path fill="#D4AD97" d="M12.168,33.881c-2.328-2.154-4.606-1.818-5.926-0.512c-1.32,1.305,3.168,2.705,4.909,4.027
	C12.192,36.367,13.106,34.748,12.168,33.881z"/>
<path fill="#A87E66" d="M6.242,33.367c0.545-0.539,1.254-0.908,2.06-1.01c-0.271,0.705-0.104,1.389,0.581,1.783
	c1.147,0.656,2.184,1.383,3.149,2.152c-0.248,0.396-0.555,0.779-0.881,1.102C9.411,36.072,4.922,34.672,6.242,33.367z"/>
<path fill="#A87E66" d="M24.711,7.465c-0.314-2.154,0.264-2.912,1.246-3.178c-0.283,0.574-0.461,1.248-0.461,2.045v2.266
	C25.079,8.346,24.79,7.984,24.711,7.465z"/>
</svg>
