<?xml version="1.0" encoding="utf-8"?>
<!-- Generator: Adobe Illustrator 15.0.0, SVG Export Plug-In . SVG Version: 6.00 Build 0)  -->
<!DOCTYPE svg PUBLIC "-//W3C//DTD SVG 1.1//EN" "http://www.w3.org/Graphics/SVG/1.1/DTD/svg11.dtd">
<svg version="1.1" id="Layer_1" xmlns="http://www.w3.org/2000/svg" xmlns:xlink="http://www.w3.org/1999/xlink" x="0px" y="0px"
	 width="64px" height="64px" viewBox="0 0 64 64" enable-background="new 0 0 64 64" xml:space="preserve">
<path fill="#6E8189" d="M35.294,4.258c0,0,9.087,5.807,9.285,18.631C48.006,13.94,43.534,6.36,35.294,4.258z"/>
<path fill="#6E8189" d="M42.538,3.329c0,0,7.369,4.709,7.53,15.109C52.847,11.18,49.221,5.034,42.538,3.329z"/>
<path fill="#6E8189" d="M18.739,55.103c0,0-9.803-4.492-11.775-17.166C4.809,47.274,10.288,54.162,18.739,55.103z"/>
<path fill="#6E8189" d="M19.417,58.589c0,0-8.745-0.066-14.416-8.787C6.51,57.425,12.851,60.7,19.417,58.589z"/>
<path fill="#614A36" d="M53.152,18.03c-7.127,4.107-3.601,9.285-7.164,11.339l-2.086-3.605L15.001,42.419l5.214,9.014
	c4.791,8.283,12.952,14.172,23.638,8.014l0,0l0,0C61.669,49.181,50.5,33.981,58.801,19.583
	C59.829,17.797,56.709,15.981,53.152,18.03z"/>
<path fill="#3B2B1C" d="M53.152,18.03c-0.427,0.246-0.811,0.494-1.165,0.748c3.276-1.49,5.972,0.17,5.007,1.846
	C48.875,34.709,59.37,49.56,43.152,59.808c0.235-0.125,0.466-0.225,0.702-0.361C61.669,49.181,50.5,33.981,58.801,19.583
	C59.829,17.797,56.709,15.981,53.152,18.03z"/>
<path fill="#614A36" d="M24.186,8.331l14.578,25.202l7.225-4.164L31.411,4.167C28.599-0.693,21.375,3.471,24.186,8.331z"/>
<path fill="#614A36" d="M14.875,8.889l16.663,28.807l7.226-4.164L22.101,4.726C19.289-0.135,12.063,4.029,14.875,8.889z"/>
<path fill="#614A36" d="M8.691,14.856L24.313,41.86l7.225-4.164L15.918,10.692C13.107,5.833,5.88,9.997,8.691,14.856z"/>
<path fill="#614A36" d="M5.638,26.231L18.13,47.827l7.226-4.164L12.864,22.068C10.052,17.208,2.827,21.371,5.638,26.231z"/>
<path fill="#3B2B1C" d="M24.858,3.239c1.653-0.498,3.582-0.053,4.75,1.967l14.579,25.202l1.802-1.039L31.411,4.167
	C29.768,1.327,26.631,1.579,24.858,3.239z"/>
<path fill="#3B2B1C" d="M15.536,3.786c1.658-0.5,3.584-0.053,4.753,1.969l12.5,21.605l1.803-1.039L22.094,4.713
	C20.45,1.872,17.312,2.125,15.536,3.786z"/>
<path fill="#3B2B1C" d="M9.355,9.755c1.656-0.503,3.583-0.057,4.751,1.964l11.456,19.805l1.805-1.039L15.911,10.679
	C14.267,7.839,11.128,8.09,9.355,9.755z"/>
<path fill="#3B2B1C" d="M6.302,21.129c1.656-0.501,3.583-0.057,4.752,1.965l8.327,14.397l1.803-1.039l-8.326-14.397
	C11.214,19.216,8.076,19.465,6.302,21.129z"/>
<path fill="#3B2B1C" d="M44.945,27.566l-1.805,1.041c-2.842,3.052-5.904,10.614-1.902,17.533c-1.731-7.248,1.138-14.689,4.75-16.771
	L44.945,27.566z"/>
<path fill="#3B2B1C" d="M22.54,35.671c0,0-1.807,1.041-3.925,4.666c0,0,1.406-3.815-0.42-6.971
	C20.733,36.712,22.54,35.671,22.54,35.671z"/>
<path fill="#3B2B1C" d="M29.504,31.056c0,0-2.972,1.11-4.708,3.314c0,0,1.477-2.655-0.157-6.52
	C27.176,31.196,29.504,31.056,29.504,31.056z"/>
<path fill="#3B2B1C" d="M37.442,27.083c0,0-2.589-0.311-5.229,2.412c0,0,1.475-2.653-0.61-6.26
	C33.688,26.841,37.442,27.083,37.442,27.083z"/>
</svg>
