<?xml version="1.0" encoding="utf-8"?>
<!-- Generator: Adobe Illustrator 15.0.0, SVG Export Plug-In . SVG Version: 6.00 Build 0)  -->
<!DOCTYPE svg PUBLIC "-//W3C//DTD SVG 1.1//EN" "http://www.w3.org/Graphics/SVG/1.1/DTD/svg11.dtd">
<svg version="1.1" id="Layer_1" xmlns="http://www.w3.org/2000/svg" xmlns:xlink="http://www.w3.org/1999/xlink" x="0px" y="0px"
	 width="64px" height="64px" viewBox="0 0 64 64" enable-background="new 0 0 64 64" xml:space="preserve">
<path fill="#302C3B" d="M62,32c0,0-10.121,20-30,20C12.124,52,2,32,2,32S12.124,12,32,12C51.879,12,62,32,62,32z"/>
<path fill="#FFFFFF" d="M57,32c0,0-8.434,16.664-25,16.664C15.436,48.664,7,32,7,32S15.436,15.332,32,15.332
	C48.566,15.332,57,32,57,32z"/>
<path fill="#8A6859" d="M45.4,32c0,7.463-6.047,13.5-13.5,13.5c-7.457,0-13.5-6.037-13.5-13.5c0-7.454,6.043-13.5,13.5-13.5
	C39.354,18.5,45.4,24.546,45.4,32z"/>
<path fill="#302C3B" d="M39.398,31.995c0,4.147-3.359,7.509-7.496,7.509c-4.145,0-7.504-3.361-7.504-7.509
	c0-4.142,3.359-7.491,7.504-7.491C36.039,24.504,39.398,27.854,39.398,31.995z"/>
<path fill="#FFFFFF" d="M30.982,26.968c0,2.213-1.792,4.005-3.997,4.005c-2.211,0-4.003-1.792-4.003-4.005
	c0-2.209,1.792-3.996,4.003-3.996C29.19,22.972,30.982,24.759,30.982,26.968z"/>
</svg>
