<?xml version="1.0" encoding="utf-8"?>
<!-- Generator: Adobe Illustrator 15.0.0, SVG Export Plug-In . SVG Version: 6.00 Build 0)  -->
<!DOCTYPE svg PUBLIC "-//W3C//DTD SVG 1.1//EN" "http://www.w3.org/Graphics/SVG/1.1/DTD/svg11.dtd">
<svg version="1.1" id="Layer_1" xmlns="http://www.w3.org/2000/svg" xmlns:xlink="http://www.w3.org/1999/xlink" x="0px" y="0px"
	 width="64px" height="64px" viewBox="0 0 64 64" enable-background="new 0 0 64 64" xml:space="preserve">
<path fill="#6E8189" d="M35.294,4.258c0,0,9.087,5.807,9.285,18.632C48.006,13.939,43.534,6.36,35.294,4.258z"/>
<path fill="#6E8189" d="M42.538,3.329c0,0,7.369,4.709,7.53,15.11C52.847,11.18,49.221,5.033,42.538,3.329z"/>
<path fill="#6E8189" d="M18.739,55.103c0,0-9.803-4.493-11.776-17.167C4.809,47.274,10.288,54.162,18.739,55.103z"/>
<path fill="#6E8189" d="M19.417,58.588c0,0-8.745-0.066-14.417-8.787C6.51,57.425,12.851,60.7,19.417,58.588z"/>
<path fill="#FDCA47" d="M53.152,18.03c-7.127,4.107-3.601,9.286-7.164,11.339l-2.086-3.605L15.001,42.418l5.214,9.015
	c4.791,8.282,12.952,14.172,23.638,8.014l0,0l0,0C61.669,49.181,50.5,33.98,58.801,19.582C59.829,17.797,56.709,15.98,53.152,18.03z
	"/>
<path fill="#CC9200" d="M53.152,18.03c-0.427,0.246-0.811,0.495-1.165,0.748c3.276-1.491,5.972,0.17,5.007,1.845
	C48.875,34.709,59.37,49.56,43.152,59.807c0.235-0.125,0.466-0.225,0.702-0.361C61.669,49.181,50.5,33.98,58.801,19.582
	C59.829,17.797,56.709,15.98,53.152,18.03z"/>
<path fill="#FDCA47" d="M24.186,8.33l14.578,25.202l7.225-4.164L31.411,4.167C28.599-0.693,21.375,3.471,24.186,8.33z"/>
<path fill="#FDCA47" d="M14.875,8.89l16.663,28.807l7.226-4.164L22.101,4.726C19.289-0.135,12.063,4.029,14.875,8.89z"/>
<path fill="#FDCA47" d="M8.691,14.855l15.622,27.004l7.225-4.163L15.918,10.692C13.107,5.833,5.88,9.996,8.691,14.855z"/>
<path fill="#FDCA47" d="M5.638,26.231L18.13,47.827l7.226-4.164L12.864,22.068C10.052,17.207,2.826,21.371,5.638,26.231z"/>
<path fill="#CC9200" d="M24.858,3.238c1.653-0.498,3.582-0.052,4.75,1.967l14.579,25.203l1.802-1.039L31.411,4.167
	C29.768,1.327,26.631,1.579,24.858,3.238z"/>
<path fill="#CC9200" d="M15.536,3.786c1.658-0.5,3.584-0.053,4.753,1.968l12.5,21.606l1.803-1.04L22.094,4.714
	C20.45,1.872,17.312,2.125,15.536,3.786z"/>
<path fill="#CC9200" d="M9.355,9.755c1.656-0.502,3.583-0.057,4.751,1.964l11.456,19.805l1.805-1.04L15.911,10.679
	C14.267,7.839,11.128,8.09,9.355,9.755z"/>
<path fill="#CC9200" d="M6.302,21.129c1.657-0.5,3.583-0.056,4.752,1.966l8.327,14.396l1.803-1.039l-8.326-14.396
	C11.214,19.216,8.076,19.466,6.302,21.129z"/>
<path fill="#CC9200" d="M44.945,27.566l-1.805,1.041c-2.842,3.052-5.904,10.614-1.902,17.532c-1.731-7.248,1.138-14.688,4.75-16.77
	L44.945,27.566z"/>
<path fill="#CC9200" d="M22.54,35.671c0,0-1.807,1.041-3.925,4.665c0,0,1.406-3.814-0.42-6.97
	C20.733,36.712,22.54,35.671,22.54,35.671z"/>
<path fill="#CC9200" d="M29.504,31.056c0,0-2.972,1.11-4.708,3.314c0,0,1.477-2.654-0.157-6.52
	C27.176,31.195,29.504,31.056,29.504,31.056z"/>
<path fill="#CC9200" d="M37.442,27.083c0,0-2.589-0.312-5.229,2.412c0,0,1.475-2.653-0.61-6.259
	C33.688,26.841,37.442,27.083,37.442,27.083z"/>
</svg>
