<?xml version="1.0" encoding="utf-8"?>
<!-- Generator: Adobe Illustrator 15.0.0, SVG Export Plug-In . SVG Version: 6.00 Build 0)  -->
<!DOCTYPE svg PUBLIC "-//W3C//DTD SVG 1.1//EN" "http://www.w3.org/Graphics/SVG/1.1/DTD/svg11.dtd">
<svg version="1.1" id="Layer_1" xmlns="http://www.w3.org/2000/svg" xmlns:xlink="http://www.w3.org/1999/xlink" x="0px" y="0px"
	 width="64px" height="64px" viewBox="0 0 64 64" enable-background="new 0 0 64 64" xml:space="preserve">
<path fill="#6E8189" d="M51.066,8.161c-1.555,2.688-2.037,6.504-2.037,6.504s3.063-2.326,4.615-5.016
	C56.158,5.296,53.578,3.806,51.066,8.161z"/>
<path fill="#6E8189" d="M43.654,5.771c-0.002,3.104,1.486,6.652,1.486,6.652s1.49-3.549,1.492-6.652
	C46.633,0.743,43.652,0.743,43.654,5.771z"/>
<path fill="#6E8189" d="M57.896,12.274c-2.689,1.551-5.016,4.615-5.016,4.615s3.816-0.484,6.504-2.035
	C63.74,12.341,62.25,9.759,57.896,12.274z"/>
<path fill="#704B35" d="M41.453,20.017c-0.637-1.689-4.455-0.703-3.934,3.934c0.557,4.939,1.596,5.424,0.596,8.355l-19.11-19.109
	c-3.49-3.492-8.426,1.443-4.939,4.936l-1.93-1.93c-3.549-3.549-8.486,1.389-4.938,4.939l0.906,0.908
	c-3.443-3.445-8.383,1.494-4.936,4.938l5.908,5.91c-3.422-3.422-8.361,1.516-4.938,4.938l18.082,18.113
	c5.916,5.914,14.565,9.287,22.321,1.533C57.471,44.554,46.209,32.64,41.453,20.017z"/>
<path fill="#B88A6F" d="M43.254,20.856c0.59,5.211,1.684,5.721,0.629,8.814l-3.379-2.873l-20.6,20.602l7.213,7.215
	c6.241,6.24,15.366,9.799,23.547,1.617l0,0l0,0c13.639-13.639,1.76-26.207-3.26-39.525C46.732,14.925,42.705,15.964,43.254,20.856z"
	/>
<path fill="#946346" d="M43.896,17.284c1.004-0.6,2.137-0.406,2.467,0.465c4.934,13.096,16.488,25.467,3.902,38.846
	c0.135-0.127,0.27-0.232,0.4-0.365c13.637-13.637,1.758-26.205-3.262-39.523C46.949,15.503,44.965,15.591,43.896,17.284z"/>
<path fill="#B88A6F" d="M18.513,14.722l19.118,19.117l4.947-4.947L23.724,9.513C20.039,5.827,14.83,11.036,18.513,14.722z"/>
<path fill="#946346" d="M17.884,9.925c1.322-0.893,3.199-0.967,4.795,0.627L42.838,30.71l1.041-1.041L23.722,9.509
	C21.63,7.419,19.052,8.192,17.884,9.925z"/>
<path fill="#B88A6F" d="M11.265,17.894l22.198,22.197l5.211-5.211L16.476,12.683C12.73,8.938,7.521,14.147,11.265,17.894z"/>
<path fill="#946346" d="M10.591,13.05c1.324-0.889,3.221-0.949,4.838,0.672l16.992,16.99l1.042-1.041l-16.991-16.99
	C14.347,10.556,11.757,11.313,10.591,13.05z"/>
<path fill="#B88A6F" d="M7.015,24.06l20.197,20.199l5.209-5.211L12.222,18.851C8.589,15.218,3.38,20.427,7.015,24.06z"/>
<path fill="#B88A6F" d="M8.041,35.505l16.043,16.047l5.211-5.209L13.25,30.296C9.638,26.685,4.429,31.894,8.041,35.505z"/>
<path fill="#946346" d="M6.421,19.302c1.326-0.889,3.221-0.949,4.84,0.672l15.951,15.949l1.041-1.043L11.96,18.624
	C9.748,16.257,7.589,17.567,6.421,19.302z"/>
<path fill="#946346" d="M7.464,30.765c1.324-0.891,3.219-0.951,4.84,0.67l10.738,10.74l1.041-1.041L13.115,30.175
	C10.988,28.05,8.63,29.028,7.464,30.765z"/>
<path fill="#946346" d="M25.126,40.091c0,0-1.137,1.137-1.734,4.516c0,0-0.033-3.443-2.465-5.871
	C23.99,41.228,25.126,40.091,25.126,40.091z"/>
<path fill="#946346" d="M29.705,34.249c0,0-1.988,1.424-2.842,3.41c0,0,0.568-2.271-1.418-4.832
	C28,34.817,29.705,34.249,29.705,34.249z"/>
<path fill="#946346" d="M35.025,29.151c0,0-1.918,0.354-3.385,2.865c0,0,0.637-2.203-1.445-4.287
	C32.277,29.813,35.025,29.151,35.025,29.151z"/>
</svg>
