<?xml version="1.0" encoding="utf-8"?>
<!-- Generator: Adobe Illustrator 15.0.0, SVG Export Plug-In . SVG Version: 6.00 Build 0)  -->
<!DOCTYPE svg PUBLIC "-//W3C//DTD SVG 1.1//EN" "http://www.w3.org/Graphics/SVG/1.1/DTD/svg11.dtd">
<svg version="1.1" id="Layer_1" xmlns="http://www.w3.org/2000/svg" xmlns:xlink="http://www.w3.org/1999/xlink" x="0px" y="0px"
	 width="64px" height="64px" viewBox="0 0 64 64" enable-background="new 0 0 64 64" xml:space="preserve">
<path fill="#FDCA47" d="M48.559,32.832l-6.586,4.672c0,0-3.275-9.25-5.826-15.051c-1.049-2.383-4.232-3.23-5.707-6.559
	c-2.57-5.803,0.451-10.82,3.525-7.199c3.543,4.174,8.707,7.27,9.752,9.654C45.465,22.328,48.559,32.832,48.559,32.832z"/>
<path fill="#FDCA47" d="M53.836,36.625c0.461,3.16,0.063,8.135-2.701,13.949c0,0-5.711-6.84-6.375-9.963
	c0,0-1.633-11.922-3.25-19.52c-0.666-3.123-4.281-4.928-5.221-9.289c-1.643-7.605,3.234-12.887,6.023-7.777
	c3.219,5.891,8.646,10.885,9.311,14.008C52.73,23.244,53.154,31.994,53.836,36.625z"/>
<path fill="#CC9200" d="M45.365,30.639c0,0-0.533-4.506-2.154-12.102c-0.664-3.125-4.277-4.93-5.219-9.291
	c-0.564-2.619-0.359-4.963,0.268-6.701c-1.715,1.318-3.104,4.906-2.164,9.26c0.941,4.361,4.582,6.185,5.242,9.311
	c0.688,3.271,1.273,6.678,1.273,6.678l-5.01-1.87L45.365,30.639z"/>
<path fill="#FDCA47" d="M51.422,35.441c-6.639-6.041-14.01-9.697-18.792-12.047c-7.098-3.488-5.23,1.313-17.338,4.484
	c-1.598,0.418-3.5,1.584-2.047,4.619c1.402,2.922,12.832,0.705,14.607-1.045c0,0,4.783,5.85,9.562,5.713c0,0-0.828,3.883,0.336,5.76
	c0,0-6.773,3.523-9.673,6.615l-8.049-5.389c-0.59-8.336-2.105-10.803-6.205-10.408c-3.824,0.367-3.393,3.953-3.309,6.906
	c0.15,5.314-1.258,6.176,0.041,8.285C15.522,57,21.758,62,33.361,62c4.346,0,7.105-0.115,9.773-1.438
	C47.609,58.348,58.729,42.088,51.422,35.441z"/>
<path fill="#CC9200" d="M52.721,37.021c2.482,7.617-6.389,20.102-10.271,22.023c-2.67,1.32-5.428,1.436-9.773,1.436
	c-11.477,0-17.746-4.92-22.645-12.807c0.117,0.439,0.281,0.855,0.531,1.262C15.532,57,21.768,62,33.371,62
	c4.346,0,7.105-0.115,9.775-1.438C47.297,58.508,57.162,44.361,52.721,37.021z"/>
<path fill="#CC9200" d="M18.62,44.412c0,0,7.484,4.803,9.303,5.068l-7.893-5.328c0.32-8.416-2.148-11.096-6.207-10.408
	c-0.332,0.057-0.627,0.123-0.893,0.199C16.995,33.531,18.95,36.201,18.62,44.412z"/>
<path fill="#CC9200" d="M27.872,31.453c0,0,4.785,5.85,9.562,5.713V36.08c-4.777,0.137-9.562-5.715-9.562-5.715
	c-1.773,1.75-13.203,3.967-14.605,1.045c-0.246-0.512-0.389-0.969-0.461-1.381c-0.131,0.641-0.027,1.445,0.461,2.469
	C14.668,35.42,26.098,33.203,27.872,31.453z"/>
</svg>
