<?xml version="1.0" encoding="utf-8"?>
<!-- Generator: Adobe Illustrator 15.0.0, SVG Export Plug-In . SVG Version: 6.00 Build 0)  -->
<!DOCTYPE svg PUBLIC "-//W3C//DTD SVG 1.1//EN" "http://www.w3.org/Graphics/SVG/1.1/DTD/svg11.dtd">
<svg version="1.1" id="Layer_1" xmlns="http://www.w3.org/2000/svg" xmlns:xlink="http://www.w3.org/1999/xlink" x="0px" y="0px"
	 width="64px" height="64px" viewBox="0 0 64 64" enable-background="new 0 0 64 64" xml:space="preserve">
<path fill="#B88A6F" d="M10.911,31.947C6.386,11.084,19.571,2,31.87,2c10.904,0,20.152,10.236,21.75,20.193
	c2.068,12.825-4.367,28.072-17.637,32.283c-10.791,3.427-14.986,11.001-22.095,5.688C6.001,54.271,13.807,45.299,10.911,31.947z"/>
<path fill="#85593F" d="M33.523,45.928c0,0-1.902-2.842-6.072-2.398c-1.275,0.137,3.445-3.773-1.854-7.458
	c-0.723-8.038-7.15-7.726-6.281-9.896c1.203-2.978,8.367-1.91,11.941,4.388c0.053-11.099-15.15-6.867-12.355-12.653
	c6.488-13.426,33.183-5.938,28.523,20.266c7.682-17.096-7.303-35.438-21.625-30.57c-12.543,4.262-13.688,21.359-9.258,23.139
	c4.988,2.003,7.98,7.072,2.209,11.011c-4.092,2.793,0.836,12.05,4.275,7.994C26.526,45.62,28.995,44.372,33.523,45.928z"/>
</svg>
