<?xml version="1.0" encoding="utf-8"?>
<!-- Generator: Adobe Illustrator 15.0.0, SVG Export Plug-In . SVG Version: 6.00 Build 0)  -->
<!DOCTYPE svg PUBLIC "-//W3C//DTD SVG 1.1//EN" "http://www.w3.org/Graphics/SVG/1.1/DTD/svg11.dtd">
<svg version="1.1" id="Layer_1" xmlns="http://www.w3.org/2000/svg" xmlns:xlink="http://www.w3.org/1999/xlink" x="0px" y="0px"
	 width="64px" height="64px" viewBox="0 0 64 64" enable-background="new 0 0 64 64" xml:space="preserve">
<path fill="#FDCA47" d="M49.33,29.367c-1.512-5.803-7.139-6.451-8.651-2.365c-0.654-3.059-6.771-5.848-8.679-0.311V6.332
	c0-5.775-8.667-5.775-8.667,0V32v4.285c-4.274,0-3.795-6.428-12.344-6.428c-4.266,0-6.127,3.223-4.274,4.285
	C21.675,42.715,19.538,62,40.904,62C53.724,62,58,52.559,58,42.715V33.07V32v-1.023C58,26.488,50.257,27.092,49.33,29.367z"/>
<path fill="#CC9200" d="M10.989,29.857c0.512,0,0.986,0.025,1.437,0.068c-3.721,0.354-5.283,3.219-3.543,4.217
	c14.632,8.385,12.922,27.014,32.842,27.818C41.447,61.971,41.188,62,40.903,62C19.538,62,21.675,42.715,6.715,34.143
	C4.862,33.08,6.724,29.857,10.989,29.857z"/>
<path fill="#CC9200" d="M49.33,28.834v-1.072c0-5.961-8.663-5.404-8.663-1.072v0.002c0-5.779-8.667-5.779-8.667,0v1.275
	c0-4.623,8.667-4.883,8.667,0.428c0-3.781,8.663-5.846,8.663,2.785c0-4.621,8.67-4.781,8.67,1.287v-1.49
	C58,24.926,49.636,25.641,49.33,28.834z"/>
<path fill="#CC9200" d="M28.745,2.139c-1.747,0.404-3.249,1.793-3.249,4.193v29.953h-2.163V6.332
	C23.333,2.957,26.287,1.57,28.745,2.139z"/>
<path fill="#FEEC9A" d="M30.497,7.465c0.468-3.191-1.026-3.322-2.894-3.322s-3.359,0.131-2.892,3.322
	c0.175,1.186,1.423,1.59,2.892,1.59C29.073,9.055,30.322,8.65,30.497,7.465z"/>
<path fill="#FEEC9A" d="M12.169,33.881c-2.328-2.154-4.606-1.818-5.927-0.512c-1.32,1.305,3.168,2.705,4.909,4.027
	C12.191,36.367,13.106,34.748,12.169,33.881z"/>
<path fill="#E5BC5E" d="M6.242,33.367c0.545-0.539,1.254-0.908,2.06-1.01c-0.271,0.705-0.104,1.389,0.581,1.783
	c1.147,0.656,2.184,1.383,3.148,2.152c-0.248,0.396-0.554,0.779-0.88,1.102C9.41,36.072,4.922,34.672,6.242,33.367z"/>
<path fill="#E5BC5E" d="M24.712,7.465c-0.315-2.154,0.264-2.912,1.246-3.178c-0.284,0.574-0.462,1.248-0.462,2.045v2.266
	C25.079,8.346,24.789,7.984,24.712,7.465z"/>
</svg>
