<?xml version="1.0" encoding="utf-8"?>
<!-- Generator: Adobe Illustrator 15.0.0, SVG Export Plug-In . SVG Version: 6.00 Build 0)  -->
<!DOCTYPE svg PUBLIC "-//W3C//DTD SVG 1.1//EN" "http://www.w3.org/Graphics/SVG/1.1/DTD/svg11.dtd">
<svg version="1.1" id="Layer_1" xmlns="http://www.w3.org/2000/svg" xmlns:xlink="http://www.w3.org/1999/xlink" x="0px" y="0px"
	 width="64px" height="64px" viewBox="0 0 64 64" enable-background="new 0 0 64 64" xml:space="preserve">
<path fill="#916B50" d="M48.56,32.832l-6.587,4.672c0,0-3.274-9.25-5.826-15.051c-1.049-2.383-4.231-3.23-5.706-6.559
	c-2.57-5.803,0.451-10.82,3.525-7.199c3.542,4.174,8.707,7.27,9.752,9.654C45.465,22.328,48.56,32.832,48.56,32.832z"/>
<path fill="#916B50" d="M53.836,36.625c0.462,3.16,0.063,8.135-2.7,13.949c0,0-5.711-6.84-6.375-9.963c0,0-1.633-11.922-3.251-19.52
	c-0.666-3.123-4.28-4.928-5.221-9.289c-1.643-7.605,3.234-12.887,6.024-7.777c3.218,5.891,8.646,10.885,9.31,14.008
	C52.731,23.244,53.155,31.994,53.836,36.625z"/>
<path fill="#664935" d="M45.366,30.639c0,0-0.533-4.506-2.155-12.102c-0.664-3.125-4.276-4.93-5.219-9.291
	c-0.563-2.619-0.359-4.963,0.268-6.701c-1.714,1.318-3.104,4.906-2.163,9.26c0.941,4.361,4.582,6.185,5.241,9.311
	c0.688,3.271,1.274,6.678,1.274,6.678l-5.011-1.87L45.366,30.639z"/>
<path fill="#916B50" d="M51.423,35.441c-6.64-6.041-14.011-9.697-18.794-12.047c-7.098-3.488-5.23,1.313-17.337,4.484
	c-1.599,0.418-3.501,1.584-2.048,4.619c1.403,2.922,12.832,0.705,14.607-1.045c0,0,4.783,5.85,9.563,5.713
	c0,0-0.827,3.883,0.337,5.76c0,0-6.773,3.523-9.674,6.615l-8.05-5.389c-0.59-8.336-2.105-10.803-6.205-10.408
	c-3.823,0.367-3.392,3.953-3.308,6.906c0.15,5.314-1.259,6.176,0.04,8.285C15.522,57,21.758,62,33.362,62
	c4.345,0,7.104-0.115,9.773-1.438C47.61,58.348,58.729,42.088,51.423,35.441z"/>
<path fill="#664935" d="M52.721,37.021c2.483,7.617-6.388,20.102-10.271,22.023c-2.67,1.32-5.429,1.436-9.773,1.436
	c-11.477,0-17.747-4.92-22.645-12.807c0.117,0.439,0.28,0.855,0.53,1.262C15.531,57,21.769,62,33.371,62
	c4.346,0,7.106-0.115,9.775-1.438C47.298,58.508,57.163,44.361,52.721,37.021z"/>
<path fill="#664935" d="M18.619,44.412c0,0,7.485,4.803,9.304,5.068l-7.894-5.328c0.321-8.416-2.147-11.096-6.207-10.408
	c-0.331,0.057-0.626,0.123-0.893,0.199C16.995,33.531,18.949,36.201,18.619,44.412z"/>
<path fill="#664935" d="M27.872,31.453c0,0,4.785,5.85,9.563,5.713V36.08c-4.777,0.137-9.563-5.715-9.563-5.715
	c-1.774,1.75-13.203,3.967-14.605,1.045c-0.246-0.512-0.389-0.969-0.461-1.381c-0.132,0.641-0.027,1.445,0.461,2.469
	C14.669,35.42,26.098,33.203,27.872,31.453z"/>
</svg>
