<?xml version="1.0" encoding="utf-8"?>
<!-- Generator: Adobe Illustrator 15.0.0, SVG Export Plug-In . SVG Version: 6.00 Build 0)  -->
<!DOCTYPE svg PUBLIC "-//W3C//DTD SVG 1.1//EN" "http://www.w3.org/Graphics/SVG/1.1/DTD/svg11.dtd">
<svg version="1.1" id="Layer_1" xmlns="http://www.w3.org/2000/svg" xmlns:xlink="http://www.w3.org/1999/xlink" x="0px" y="0px"
	 width="64px" height="64px" viewBox="0 0 64 64" enable-background="new 0 0 64 64" xml:space="preserve">
<path fill="#FCD5B2" d="M60.005,13.183c0-6.14-12.007-7.822-14.008-3.578c-2.002-6.14-14.009-6.14-16.01,0
	c-2.001-4.093-12.007-2.562-14.009,3.578c-2.001-2.048-10.006-2.048-12.007,4.093C3.765,17.913,2.007,19.322,2,23.417
	C1.971,41.836,8,50,16,43c5,8,13.987,4.217,13.987,4.217l17.011,5.114c0,0,15.002-5.114,15.002-10.229
	C62,33.904,60.005,28.229,60.005,13.183z"/>
<path fill="#DBA97F" d="M48,43.418c0.859-3.688-1.002-12.565-0.873-22.367C44,36.246,46.998,42.103,44.998,46.193
	C43.385,49.492,33.11,49.465,31,44.442c0,0,1-12.294-1.013-23.073C28.995,28.807,30,38.304,28,43.418c-1.622,4.147-8.002,4.095-10,0
	c-2-4.098-1-8.196-2.021-20.001C15,30.099,14,36.246,15,41.369c0,0-1.022,2.513-5.024,2.513C1.971,43.882,4.865,24.094,6,20
	c-2,3-2.636,9.546-2.636,9.546s-0.999-5.002-1.207-8.1C2.061,22.024,2.001,22.674,2,23.417c-0.007,4.137,0.294,7.754,0.853,10.798
	c-0.123,4.134,0.674,8.377,3.12,11.714c2.685,3.662,10.006,2.046,10.006-2.047c2.002,8.187,10.007,8.187,12.839,4.257
	c-3.822,9.306,1.214,11.663,4.183,10.64c8.504-2.929,11.998-2.029,19.887-2.029c3.112,0,5.112-3.395,5.112-7.486
	c0,0,4.001-1.022,4.001-7.16C61,45.171,50.857,49.672,48,43.418z"/>
</svg>
