<?xml version="1.0" encoding="utf-8"?>
<!-- Generator: Adobe Illustrator 15.0.0, SVG Export Plug-In . SVG Version: 6.00 Build 0)  -->
<!DOCTYPE svg PUBLIC "-//W3C//DTD SVG 1.1//EN" "http://www.w3.org/Graphics/SVG/1.1/DTD/svg11.dtd">
<svg version="1.1" id="Layer_1" xmlns="http://www.w3.org/2000/svg" xmlns:xlink="http://www.w3.org/1999/xlink" x="0px" y="0px"
	 width="64px" height="64px" viewBox="0 0 64 64" enable-background="new 0 0 64 64" xml:space="preserve">
<path fill="#B88A6F" d="M41.999,34.083c0,0-10.072,0.01-6.072,8.022c2.688,5.384,4.279,10.69,1.072,16.15c-4,6.813-9,2.819-9-0.176
	c0-14.288-10-15.964-10-35.874C18,12.19,15.933,4.292,28.011,2.487c4.723-0.706,10.75-0.31,13.988-0.31
	C49.999,2.178,41.999,34.083,41.999,34.083z"/>
<path fill="#946346" d="M30,58.071c0,1.518,1.275,3.287,3.052,3.791C30.314,62.618,28,60.115,28,58.071
	c0-14.33-10.551-16.499-10-35.979C18.333,38.621,30,43.741,30,58.071z"/>
<path fill="#946346" d="M8.75,4.696c1.93-0.013,1.93-0.013,1.93-0.013l10.208,30.655L9.881,32.67
	C9.881,32.67,1.96,21.424,8.75,4.696z"/>
<path fill="#B88A6F" d="M10.68,4.684l14.171-0.82l-1.494,30.928c0,0-6.402-2.089-12.437-3.219C3.976,17.653,10.68,4.684,10.68,4.684
	z"/>
<path fill="#946346" d="M37.667,30c0-4-2.584-10.197-8.773-14c7.527,2.01,12.378,9.541,11.544,14H37.667z"/>
<path fill="#B88A6F" d="M54.011,26h-1.996c5.314,0,5.314,8,0,8H39.987c-5.314,0-5.314-8,0-8h0.002c-5.318,0-5.318-8,0-8h-0.002
	c-5.314,0-5.314-8,0-8h0.01c-5.318,0-5.318-8,0-8h10.021c5.318,0,5.318,8,0,8h1.996c5.314,0,5.314,8,0,8h1.996
	C59.329,18,59.329,26,54.011,26z"/>
<path fill="#946346" d="M54.011,32H41.983c-3.43,0-4.633-3.327-3.635-5.69c-3.6,1.456-3.195,7.688,1.502,7.688L52.011,34
	c1.885,0,3.086-1.012,3.635-2.309C55.171,31.883,54.63,32,54.011,32z"/>
<path fill="#946346" d="M54.011,16H41.983c-3.43,0-4.633-3.328-3.635-5.691C34.749,11.766,35.288,18,39.983,18h12.027
	c1.885,0,3.086-1.012,3.635-2.309C55.171,15.883,54.63,16,54.011,16z"/>
<path fill="#946346" d="M52.015,8H41.993c-3.434,0-4.637-3.326-3.637-5.689C34.755,3.766,35.097,10,39.794,10h10.221
	c1.885,0,3.09-1.012,3.637-2.311C53.177,7.883,52.636,8,52.015,8z"/>
<path fill="#946346" d="M56.007,24H41.985c-3.434,0-4.756-3.326-3.756-5.689C34.628,19.766,35.288,26,39.985,26h14.021
	c1.885,0,3.09-1.012,3.637-2.311C57.169,23.883,56.628,24,56.007,24z"/>
</svg>
