<?xml version="1.0" encoding="utf-8"?>
<!-- Generator: Adobe Illustrator 15.0.0, SVG Export Plug-In . SVG Version: 6.00 Build 0)  -->
<!DOCTYPE svg PUBLIC "-//W3C//DTD SVG 1.1//EN" "http://www.w3.org/Graphics/SVG/1.1/DTD/svg11.dtd">
<svg version="1.1" id="Layer_1" xmlns="http://www.w3.org/2000/svg" xmlns:xlink="http://www.w3.org/1999/xlink" x="0px" y="0px"
	 width="64px" height="64px" viewBox="0 0 64 64" enable-background="new 0 0 64 64" xml:space="preserve">
<path fill="#EBBEA0" d="M42,34.083c0,0-10.072,0.01-6.071,8.022c2.688,5.384,4.278,10.69,1.071,16.15c-4,6.813-9,2.819-9-0.176
	c0-14.288-10-15.964-10-35.874C18,12.19,15.934,4.292,28.011,2.487c4.724-0.706,10.75-0.31,13.989-0.31
	C50,2.178,42,34.083,42,34.083z"/>
<path fill="#BF8D69" d="M30,58.071c0,1.518,1.275,3.287,3.053,3.791C30.314,62.618,28,60.115,28,58.071
	c0-14.33-10.551-16.499-10-35.979C18.334,38.621,30,43.741,30,58.071z"/>
<path fill="#BF8D69" d="M8.75,4.696c1.931-0.013,1.931-0.013,1.931-0.013l10.209,30.655L9.88,32.67
	C9.88,32.67,1.96,21.424,8.75,4.696z"/>
<path fill="#EBBEA0" d="M10.68,4.684l14.172-0.82l-1.494,30.928c0,0-6.402-2.089-12.438-3.219C3.976,17.653,10.68,4.684,10.68,4.684
	z"/>
<path fill="#BF8D69" d="M37.668,30c0-4-2.584-10.197-8.774-14c7.528,2.01,12.379,9.541,11.545,14H37.668z"/>
<path fill="#EBBEA0" d="M54.012,26h-1.996c5.314,0,5.314,8,0,8H39.988c-5.314,0-5.314-8,0-8h0.002c-5.318,0-5.318-8,0-8h-0.002
	c-5.314,0-5.314-8,0-8h0.01c-5.318,0-5.318-8,0-8H50.02c5.318,0,5.318,8,0,8h1.996c5.314,0,5.314,8,0,8h1.996
	C59.33,18,59.33,26,54.012,26z"/>
<path fill="#BF8D69" d="M54.012,32H41.984c-3.43,0-4.633-3.327-3.635-5.69c-3.6,1.456-3.195,7.688,1.502,7.688L52.012,34
	c1.885,0,3.086-1.012,3.635-2.309C55.172,31.883,54.631,32,54.012,32z"/>
<path fill="#BF8D69" d="M54.012,16H41.984c-3.43,0-4.633-3.328-3.635-5.691C34.75,11.766,35.289,18,39.984,18h12.027
	c1.885,0,3.086-1.012,3.635-2.309C55.172,15.883,54.631,16,54.012,16z"/>
<path fill="#BF8D69" d="M52.016,8H41.994c-3.434,0-4.637-3.326-3.637-5.689C34.756,3.766,35.098,10,39.795,10h10.221
	c1.885,0,3.09-1.012,3.637-2.311C53.178,7.883,52.637,8,52.016,8z"/>
<path fill="#BF8D69" d="M56.008,24H41.986c-3.434,0-4.756-3.326-3.756-5.689C34.629,19.766,35.289,26,39.986,26h14.021
	c1.885,0,3.09-1.012,3.637-2.311C57.17,23.883,56.629,24,56.008,24z"/>
</svg>
