<?xml version="1.0" encoding="utf-8"?>
<!-- Generator: Adobe Illustrator 15.0.0, SVG Export Plug-In . SVG Version: 6.00 Build 0)  -->
<!DOCTYPE svg PUBLIC "-//W3C//DTD SVG 1.1//EN" "http://www.w3.org/Graphics/SVG/1.1/DTD/svg11.dtd">
<svg version="1.1" id="Layer_1" xmlns="http://www.w3.org/2000/svg" xmlns:xlink="http://www.w3.org/1999/xlink" x="0px" y="0px"
	 width="64px" height="64px" viewBox="0 0 64 64" enable-background="new 0 0 64 64" xml:space="preserve">
<path fill="#FDCA47" d="M14.67,34.633c1.512,5.803,7.139,6.451,8.651,2.365c0.654,3.059,6.771,5.848,8.679,0.311v20.359
	c0,5.775,8.667,5.775,8.667,0V32v-4.285c4.274,0,3.795,6.428,12.344,6.428c4.266,0,6.127-3.223,4.274-4.285
	C42.325,21.285,44.462,2,23.096,2C10.276,2,6,11.441,6,21.285v9.645V32v1.023C6,37.512,13.743,36.908,14.67,34.633z"/>
<path fill="#CC9200" d="M53.011,34.143c-0.512,0-0.986-0.025-1.437-0.068c3.721-0.354,5.283-3.219,3.543-4.217
	C40.485,21.473,42.195,2.844,22.275,2.039C22.553,2.029,22.812,2,23.097,2c21.365,0,19.229,19.285,34.188,27.857
	C59.138,30.92,57.276,34.143,53.011,34.143z"/>
<path fill="#CC9200" d="M14.67,35.166v1.072c0,5.961,8.663,5.404,8.663,1.072v-0.002c0,5.779,8.667,5.779,8.667,0v-1.275
	c0,4.623-8.667,4.883-8.667-0.428c0,3.781-8.663,5.846-8.663-2.785c0,4.621-8.67,4.781-8.67-1.287v1.49
	C6,39.074,14.364,38.359,14.67,35.166z"/>
<path fill="#CC9200" d="M35.255,61.861c1.747-0.404,3.249-1.793,3.249-4.193V27.715h2.163v29.953
	C40.667,61.043,37.713,62.43,35.255,61.861z"/>
<path fill="#FEEC9A" d="M33.503,56.535c-0.468,3.191,1.026,3.322,2.894,3.322s3.359-0.131,2.892-3.322
	c-0.175-1.186-1.423-1.59-2.892-1.59C34.927,54.945,33.678,55.35,33.503,56.535z"/>
<path fill="#FEEC9A" d="M51.831,30.119c2.328,2.154,4.606,1.818,5.927,0.512c1.32-1.305-3.168-2.705-4.909-4.027
	C51.809,27.633,50.894,29.252,51.831,30.119z"/>
<path fill="#E5BC5E" d="M57.758,30.633c-0.545,0.539-1.254,0.908-2.06,1.01c0.271-0.705,0.104-1.389-0.581-1.783
	c-1.147-0.656-2.184-1.383-3.148-2.152c0.248-0.396,0.554-0.779,0.88-1.102C54.59,27.928,59.078,29.328,57.758,30.633z"/>
<path fill="#E5BC5E" d="M39.288,56.535c0.315,2.154-0.264,2.912-1.246,3.178c0.284-0.574,0.462-1.248,0.462-2.045v-2.266
	C38.921,55.654,39.211,56.016,39.288,56.535z"/>
</svg>
