<?xml version="1.0" encoding="utf-8"?>
<!-- Generator: Adobe Illustrator 15.0.0, SVG Export Plug-In . SVG Version: 6.00 Build 0)  -->
<!DOCTYPE svg PUBLIC "-//W3C//DTD SVG 1.1//EN" "http://www.w3.org/Graphics/SVG/1.1/DTD/svg11.dtd">
<svg version="1.1" id="Layer_1" xmlns="http://www.w3.org/2000/svg" xmlns:xlink="http://www.w3.org/1999/xlink" x="0px" y="0px"
	 width="64px" height="64px" viewBox="0 0 64 64" enable-background="new 0 0 64 64" xml:space="preserve">
<path fill="#6E8189" d="M51.066,8.161c-1.554,2.688-2.037,6.505-2.037,6.505s3.063-2.327,4.615-5.016
	C56.158,5.296,53.578,3.807,51.066,8.161z"/>
<path fill="#6E8189" d="M43.654,5.771c-0.002,3.104,1.486,6.652,1.486,6.652s1.49-3.549,1.492-6.652
	C46.633,0.743,43.652,0.743,43.654,5.771z"/>
<path fill="#6E8189" d="M57.896,12.275c-2.689,1.551-5.016,4.615-5.016,4.615s3.816-0.484,6.505-2.036
	C63.74,12.34,62.25,9.76,57.896,12.275z"/>
<path fill="#BD8700" d="M41.453,20.017c-0.637-1.689-4.455-0.704-3.934,3.934c0.558,4.939,1.596,5.424,0.596,8.355L19.006,13.197
	c-3.491-3.492-8.427,1.443-4.94,4.936l-1.93-1.93c-3.549-3.55-8.486,1.389-4.938,4.939l0.906,0.908
	c-3.443-3.445-8.383,1.494-4.936,4.938l5.908,5.91c-3.422-3.422-8.361,1.516-4.937,4.938l18.082,18.113
	c5.915,5.914,14.565,9.287,22.32,1.533C57.471,44.554,46.209,32.64,41.453,20.017z"/>
<path fill="#FDCA47" d="M43.255,20.857c0.589,5.21,1.683,5.721,0.629,8.814l-3.379-2.874L19.904,47.4l7.214,7.215
	c6.241,6.24,15.366,9.798,23.547,1.617l0,0l0,0c13.639-13.639,1.759-26.208-3.26-39.525C46.733,14.925,42.705,15.965,43.255,20.857z
	"/>
<path fill="#CC9200" d="M43.896,17.285c1.004-0.6,2.137-0.407,2.467,0.465c4.934,13.095,16.488,25.467,3.902,38.845
	c0.135-0.127,0.27-0.232,0.401-0.364c13.637-13.637,1.757-26.206-3.262-39.523C46.949,15.504,44.966,15.592,43.896,17.285z"/>
<path fill="#FDCA47" d="M18.513,14.722L37.632,33.84l4.946-4.948L23.724,9.513C20.039,5.827,14.83,11.037,18.513,14.722z"/>
<path fill="#CC9200" d="M17.884,9.925c1.322-0.893,3.2-0.967,4.796,0.627L42.838,30.71l1.042-1.041L23.722,9.51
	C21.631,7.419,19.053,8.192,17.884,9.925z"/>
<path fill="#FDCA47" d="M11.266,17.894l22.197,22.197l5.211-5.21L16.476,12.684C12.731,8.938,7.522,14.148,11.266,17.894z"/>
<path fill="#CC9200" d="M10.592,13.051c1.324-0.889,3.22-0.949,4.838,0.672l16.991,16.99l1.042-1.041L16.472,12.681
	C14.348,10.557,11.758,11.314,10.592,13.051z"/>
<path fill="#FDCA47" d="M7.015,24.061l20.197,20.198l5.209-5.21L12.223,18.852C8.59,15.218,3.38,20.428,7.015,24.061z"/>
<path fill="#FDCA47" d="M8.041,35.506l16.044,16.046l5.21-5.209L13.25,30.296C9.639,26.685,4.429,31.895,8.041,35.506z"/>
<path fill="#CC9200" d="M6.422,19.303c1.325-0.89,3.221-0.949,4.84,0.671l15.95,15.949l1.041-1.042L11.96,18.625
	C9.748,16.257,7.589,17.567,6.422,19.303z"/>
<path fill="#CC9200" d="M7.465,30.765c1.323-0.89,3.218-0.95,4.84,0.671l10.738,10.739l1.041-1.041L13.116,30.175
	C10.989,28.05,8.631,29.028,7.465,30.765z"/>
<path fill="#CC9200" d="M25.126,40.091c0,0-1.137,1.137-1.734,4.516c0,0-0.033-3.442-2.464-5.871
	C23.99,41.228,25.126,40.091,25.126,40.091z"/>
<path fill="#CC9200" d="M29.706,34.249c0,0-1.988,1.424-2.842,3.411c0,0,0.568-2.272-1.419-4.832
	C28,34.818,29.706,34.249,29.706,34.249z"/>
<path fill="#CC9200" d="M35.025,29.151c0,0-1.917,0.354-3.385,2.865c0,0,0.638-2.203-1.444-4.287
	C32.278,29.813,35.025,29.151,35.025,29.151z"/>
</svg>
