<?xml version="1.0" encoding="utf-8"?>
<!-- Generator: Adobe Illustrator 15.0.0, SVG Export Plug-In . SVG Version: 6.00 Build 0)  -->
<!DOCTYPE svg PUBLIC "-//W3C//DTD SVG 1.1//EN" "http://www.w3.org/Graphics/SVG/1.1/DTD/svg11.dtd">
<svg version="1.1" id="Layer_1" xmlns="http://www.w3.org/2000/svg" xmlns:xlink="http://www.w3.org/1999/xlink" x="0px" y="0px"
	 width="64px" height="64px" viewBox="0 0 64 64" enable-background="new 0 0 64 64" xml:space="preserve">
<path fill="#E81C27" d="M32,21.774c-6.311,0-30,11.028-30,11.028C7.631,40.263,5.646,51,32,51c23.688,0,23.178-9.159,30-18.197
	C62,32.803,38.313,21.774,32,21.774z"/>
<path fill="#1A1626" d="M32,17.301L6,31.386c6.76,8.608,14.415,5.299,26,5.299c11.547,0,19.107,3.262,26-5.299L32,17.301z"/>
<path fill="#FFFFFF" d="M53.973,24.652c1.298-3.989-45.244-3.989-43.946,0C12.383,31.896,51.616,31.896,53.973,24.652z"/>
<path fill="#E81C27" d="M44.381,13.492C38.623,11.601,32,15.769,32,15.769s-6.632-4.165-12.381-2.276
	C12.201,15.88,2,32.803,2,32.803c6.273,0.815,14.51-9.238,30-9.238c15.488,0,23.729,10.054,30,9.238
	C62,32.803,51.801,15.88,44.381,13.492z"/>
<path fill="#FF6B73" d="M27.938,16.008c2.684,0.487-1.991-3.233-7.265-1.715c-4.699,1.354-10.329,7.876-8.219,6.366
	C16.892,17.484,20.761,14.705,27.938,16.008z"/>
<path fill="#FF6B73" d="M45.381,15.824c1.946,0.673-1.113-2.306-5.223-2.069c-3.66,0.211-8.609,3.549-6.861,2.886
	C36.972,15.248,40.177,14.025,45.381,15.824z"/>
<path fill="#FF6B73" d="M12.413,42.693c5.145,8.268,34.028,8.268,39.173,0C41.387,47.281,22.612,47.281,12.413,42.693z"/>
</svg>
