<?xml version="1.0" encoding="utf-8"?>
<!-- Generator: Adobe Illustrator 15.0.0, SVG Export Plug-In . SVG Version: 6.00 Build 0)  -->
<!DOCTYPE svg PUBLIC "-//W3C//DTD SVG 1.1//EN" "http://www.w3.org/Graphics/SVG/1.1/DTD/svg11.dtd">
<svg version="1.1" id="Layer_1" xmlns="http://www.w3.org/2000/svg" xmlns:xlink="http://www.w3.org/1999/xlink" x="0px" y="0px"
	 width="64px" height="64px" viewBox="0 0 64 64" enable-background="new 0 0 64 64" xml:space="preserve">
<path fill="#E6EBEF" d="M2,31.428C2,40.23,5.739,53,17.002,53c11.262,0,15-12.77,15-21.572C32.002,4.191,2,4.191,2,31.428z"/>
<path fill="#E6EBEF" d="M32.002,31.428c0,8.803,3.736,21.572,15,21.572C58.264,53,62,40.23,62,31.428
	C62,4.191,32.002,4.191,32.002,31.428z"/>
<path fill="#FFFFFF" d="M2.799,32.088c0,7.561,2.382,19.346,11.969,19.346c9.586,0,11.965-11.785,11.965-19.346
	C26.734,6.059,2.799,6.059,2.799,32.088z"/>
<path fill="#FFFFFF" d="M32.801,32.088c0,7.561,2.379,19.346,11.967,19.346c9.586,0,11.967-11.785,11.967-19.346
	C56.734,6.059,32.801,6.059,32.801,32.088z"/>
<path fill="#302C3B" d="M3.799,32.165c0,12.254,14,12.254,14,0C17.799,20.419,3.799,20.419,3.799,32.165z"/>
<path fill="#FFFFFF" d="M11.799,27.313c0,2.724,4,2.724,4,0C15.799,24.703,11.799,24.703,11.799,27.313z"/>
<path fill="#302C3B" d="M33.801,32.165c0,12.254,14,12.254,14,0C47.801,20.419,33.801,20.419,33.801,32.165z"/>
<path fill="#FFFFFF" d="M41.801,27.313c0,2.724,4,2.724,4,0C45.801,24.703,41.801,24.703,41.801,27.313z"/>
</svg>
