<?xml version="1.0" encoding="utf-8"?>
<!-- Generator: Adobe Illustrator 15.0.0, SVG Export Plug-In . SVG Version: 6.00 Build 0)  -->
<!DOCTYPE svg PUBLIC "-//W3C//DTD SVG 1.1//EN" "http://www.w3.org/Graphics/SVG/1.1/DTD/svg11.dtd">
<svg version="1.1" id="Layer_1" xmlns="http://www.w3.org/2000/svg" xmlns:xlink="http://www.w3.org/1999/xlink" x="0px" y="0px"
	 width="64px" height="64px" viewBox="0 0 64 64" enable-background="new 0 0 64 64" xml:space="preserve">
<path fill="#614A36" d="M42,30c0,0-10.071-0.01-6.07-8.046c2.688-5.4,4.277-10.723,1.07-16.199c-4-6.832-9-2.827-9,0.177
	c0,14.33-10,16.011-10,35.98C18,51.957,22.185,62,30.498,62H42V30z"/>
<path fill="#3B2B1C" d="M30,5.929c0-1.518,1.275-3.287,3.053-3.791C30.314,1.382,28,3.885,28,5.929c0,14.33-10,16.01-10,35.979
	C18.335,25.379,30,20.259,30,5.929z"/>
<path fill="#3B2B1C" d="M8.75,59.304c6.789,0,16.447,0.524,16.447,0.524L11.191,31.13l-1.311,0.2
	C9.88,31.33,1.96,42.576,8.75,59.304z"/>
<path fill="#614A36" d="M9.88,56.833l11.922,0.442c0,0,1.137,3.534,14.198,2.553l-12.752-31.82c0,0-6.021,1.992-12.057,3.122
	C4.248,45.049,9.88,56.833,9.88,56.833z"/>
<path fill="#3B2B1C" d="M32.498,59.996c-8.313,0-10.615-1.316-12.615-6.994c0,4.764,2.303,8.994,10.615,8.994H42v-2H32.498z"/>
<path fill="#3B2B1C" d="M37.668,34c0,4-2.584,10.197-8.774,14c7.528-2.01,12.379-9.541,11.545-14H37.668z"/>
<path fill="#614A36" d="M54.012,38h-1.996c5.314,0,5.314-8,0-8H39.988c-5.314,0-5.314,8,0,8h0.002c-5.318,0-5.318,8,0,8h-0.002
	c-5.314,0-5.314,8,0,8h0.01c-5.318,0-5.318,8,0,8H50.02c5.318,0,5.318-8,0-8h1.996c5.314,0,5.314-8,0-8h1.996
	C59.33,46,59.33,38,54.012,38z"/>
<path fill="#3B2B1C" d="M54.012,36H41.984c-3.43,0-4.633-3.327-3.635-5.69c-3.6,1.456-3.195,7.688,1.502,7.688L52.012,38
	c1.885,0,3.086-1.012,3.635-2.309C55.172,35.883,54.631,36,54.012,36z"/>
<path fill="#3B2B1C" d="M54.012,52H41.984c-3.43,0-4.633-3.328-3.635-5.691C34.75,47.766,35.289,54,39.984,54h12.027
	c1.885,0,3.086-1.012,3.635-2.309C55.172,51.883,54.631,52,54.012,52z"/>
<path fill="#3B2B1C" d="M52.016,60H41.994c-3.434,0-4.637-3.326-3.637-5.689C34.756,55.766,35.098,62,39.795,62h10.221
	c1.885,0,3.09-1.012,3.637-2.311C53.178,59.883,52.637,60,52.016,60z"/>
<path fill="#3B2B1C" d="M56.008,44H41.986c-3.434,0-4.756-3.326-3.756-5.689C34.629,39.766,35.289,46,39.986,46h14.021
	c1.885,0,3.09-1.012,3.637-2.311C57.17,43.883,56.629,44,56.008,44z"/>
</svg>
