<?xml version="1.0" encoding="utf-8"?>
<!-- Generator: Adobe Illustrator 15.0.0, SVG Export Plug-In . SVG Version: 6.00 Build 0)  -->
<!DOCTYPE svg PUBLIC "-//W3C//DTD SVG 1.1//EN" "http://www.w3.org/Graphics/SVG/1.1/DTD/svg11.dtd">
<svg version="1.1" id="Layer_1" xmlns="http://www.w3.org/2000/svg" xmlns:xlink="http://www.w3.org/1999/xlink" x="0px" y="0px"
	 width="64px" height="64px" viewBox="0 0 64 64" enable-background="new 0 0 64 64" xml:space="preserve">
<path fill="#FDCA47" d="M10.91,31.947C6.387,11.084,19.568,2,31.869,2c10.904,0,20.159,10.236,21.75,20.194
	c2.073,12.824-4.362,28.071-17.635,32.283c-10.792,3.426-14.986,11-22.098,5.688C6,54.272,13.805,45.298,10.91,31.947z"/>
<path fill="#BD8700" d="M33.523,45.927c0,0-1.902-2.842-6.07-2.398c-1.278,0.137,3.443-3.771-1.853-7.457
	c-0.726-8.038-7.155-7.725-6.285-9.895c1.203-2.978,8.369-1.911,11.946,4.387c0.048-11.099-15.153-6.867-12.359-12.654
	c6.488-13.425,33.189-5.938,28.527,20.266c7.682-17.095-7.305-35.437-21.63-30.57c-12.542,4.263-13.687,21.36-9.255,23.139
	c4.985,2.003,7.982,7.072,2.208,11.01c-4.093,2.793,0.838,12.049,4.275,7.994C26.524,45.62,28.995,44.372,33.523,45.927z"/>
</svg>
