<?xml version="1.0" encoding="utf-8"?>
<!-- Generator: Adobe Illustrator 15.0.0, SVG Export Plug-In . SVG Version: 6.00 Build 0)  -->
<!DOCTYPE svg PUBLIC "-//W3C//DTD SVG 1.1//EN" "http://www.w3.org/Graphics/SVG/1.1/DTD/svg11.dtd">
<svg version="1.1" id="Layer_1" xmlns="http://www.w3.org/2000/svg" xmlns:xlink="http://www.w3.org/1999/xlink" x="0px" y="0px"
	 width="64px" height="64px" viewBox="0 0 64 64" enable-background="new 0 0 64 64" xml:space="preserve">
<path fill="#006DAE" d="M48.946,41c-1.027-5-2.055-25-2.055-25l-1.026-9V2H17.108v5l-1.027,9c0,0-1.431,18.764-1.027,22
	C15.431,41.02,13,62,13,62h10.271l3.081-25l5.135-15h1.027l5.135,16l3.081,24H51C51,62,49.559,43.982,48.946,41z"/>
<path fill="#014D87" d="M44.838,41c0,0-4.854-2.725-6.162-4c-0.655-0.637-2.054-3-2.054-3L44.838,41z"/>
<path fill="#014D87" d="M26.352,36l-5.135,6c0,0,3.358-1.986,4.108-3C25.799,38.359,26.352,36,26.352,36z"/>
<path fill="#014D87" d="M30.459,23l-4.108,6c0,0,2.508-2.098,3.081-3C29.86,25.328,30.459,23,30.459,23z"/>
<path fill="#014D87" d="M46.892,46c0,0-4.936-0.965-6.162-2c-0.867-0.732-2.054-4-2.054-4L46.892,46z"/>
<path fill="#014D87" d="M37.648,6.602h8.217L46.892,16C41.084,16,37.642,9.688,37.648,6.602z"/>
<path fill="#014D87" d="M16.081,16l1.027-9.398h8.216C25.332,9.688,21.889,16,16.081,16z"/>
<path fill="#014D87" d="M29.946,17c0,4,3.082,4,3.082,4V6.602h-3.082V17z"/>
<rect x="43.811" y="2" fill="#014D87" width="2.055" height="4"/>
<rect x="35.595" y="2" fill="#014D87" width="2.054" height="4"/>
<rect x="25.324" y="2" fill="#014D87" width="2.054" height="4"/>
<rect x="17.108" y="2" fill="#014D87" width="2.054" height="4"/>
<ellipse fill="#014D87" cx="31.487" cy="4" rx="1.027" ry="1"/>
</svg>
