<?xml version="1.0" encoding="utf-8"?>
<!-- Generator: Adobe Illustrator 15.0.0, SVG Export Plug-In . SVG Version: 6.00 Build 0)  -->
<!DOCTYPE svg PUBLIC "-//W3C//DTD SVG 1.1//EN" "http://www.w3.org/Graphics/SVG/1.1/DTD/svg11.dtd">
<svg version="1.1" id="Layer_1" xmlns="http://www.w3.org/2000/svg" xmlns:xlink="http://www.w3.org/1999/xlink" x="0px" y="0px"
	 width="64px" height="64px" viewBox="0 0 64 64" enable-background="new 0 0 64 64" xml:space="preserve">
<path fill="#CFD8DD" d="M50.56,6.572c-0.959-1.294-4.44-2.449-8.464-3.761C39.606,1.999,32,5.286,32,5.286
	s-7.608-3.287-10.096-2.475c-4.023,1.312-7.507,2.467-8.464,3.761C9.847,11.428,2.128,21.726,2.128,21.726
	c3.109,4.255,12.131,6.998,12.131,6.998l2.742-3.939l-1.34,34.964c5.236,3.003,27.441,3.003,32.678,0l-1.34-34.964l2.74,3.939
	c0,0,9.023-2.743,12.134-6.998C61.873,21.726,54.151,11.428,50.56,6.572z"/>
<path fill="#6E8189" d="M32,3.05c0,0-3.727,0.045-9.143-1.05v2.5L32,9.747L41.143,4.5V2C35.727,3.095,32,3.05,32,3.05z"/>
<path fill="#4E5E67" d="M32,4.887c0,0-4.411-0.062-9.143-1.05l2.666,4.222L32,9.485l6.475-1.427l2.668-4.222
	C36.411,4.825,32,4.887,32,4.887z"/>
<path fill="#BEC3CF" d="M46.999,24.784l1.85,2.66c-0.604-5.608,0.05-12.76,0.05-12.76S46.285,18.917,46.999,24.784z"/>
<path fill="#99A8AE" d="M41.143,2C40.062,5.696,35.79,8.433,32,8.433S23.937,5.696,22.857,2l-1.918,1.126
	c2.063,5.031,6.358,7.593,11.061,7.593s8.995-2.562,11.059-7.593L41.143,2z"/>
<path fill="#BEC3CF" d="M17.001,24.784l-1.851,2.66c0.603-5.608-0.051-12.76-0.051-12.76S17.714,18.917,17.001,24.784z"/>
<rect x="30.507" y="4.825" fill="#302C3B" width="2.986" height="2.099"/>
<rect x="47.58" y="53.368" fill="#6E8189" width="0.996" height="3.149"/>
<path fill="#99A8AE" d="M48.073,26.479l1.657,2.398c0,0,9.125-2.794,12.27-7.125c0,0-0.647-0.871-1.655-2.228
	C56.047,23.45,48.073,26.479,48.073,26.479z"/>
<path fill="#99A8AE" d="M15.927,26.479l-1.656,2.398c0,0-9.126-2.794-12.271-7.125c0,0,0.647-0.871,1.655-2.228
	C7.953,23.45,15.927,26.479,15.927,26.479z"/>
</svg>
