<?xml version="1.0" encoding="utf-8"?>
<!-- Generator: Adobe Illustrator 15.0.0, SVG Export Plug-In . SVG Version: 6.00 Build 0)  -->
<!DOCTYPE svg PUBLIC "-//W3C//DTD SVG 1.1//EN" "http://www.w3.org/Graphics/SVG/1.1/DTD/svg11.dtd">
<svg version="1.1" id="Layer_1" xmlns="http://www.w3.org/2000/svg" xmlns:xlink="http://www.w3.org/1999/xlink" x="0px" y="0px"
	 width="64px" height="64px" viewBox="0 0 64 64" enable-background="new 0 0 64 64" xml:space="preserve">
<path fill="#302C3B" d="M2.679,24.117c-1.342,1.045-0.396,5.714,0.279,7.383c1.963,4.859,7.301,8.303,11.125,9.637
	c1.559,0.545,4.523,13.652,15.156,17.896c10.61,4.233,24.547,5.108,32.557-5.321C66.035,48.193,2.679,24.117,2.679,24.117z"/>
<path fill="#8C6041" d="M16.851,24.487l11.09,16.45l10.206-12.373c4.553,4.156,5.785,6.842,10.281,11.091
	c6.598,6.232,13.408,7.35,12.883,12.03c-0.277,2.48-9.805,8.25-17.254,8.25c-10.08,0-16.514-2.467-23.569-10.131
	c-3.438-3.737-2.299-7.299-12.605-15.908L16.851,24.487z"/>
<path fill="#45332C" d="M9.904,10.718c-6.744,0.998,0.219,13.276,3.234,15.195c3.447,2.192,19.893-4.944,16.039-5.958
	C24.734,18.785,14.925,9.975,9.904,10.718z"/>
<polygon fill="#8C6041" points="16.093,25.971 20.185,23.404 27.255,39.922 "/>
<path fill="#8C6041" d="M28.951,19.698C26.841,18.415,13.396,10,10.71,10c-3.863,0-6.049,5.436-6.01,9
	c0.043,4.021,7.619,11.051,10.9,9.479c0.818-0.391,1.508-3.791,0.619-3.791c-5.686,0-10.152-10.771-8.084-12.588
	C12.533,8.237,23.748,19.584,28.951,19.698z"/>
<path fill="#B47D56" d="M5.218,15.693c-2.791,3.861-3.941,9.988-2.527,12.596c1.959,3.611,6.75,6.947,6.75,6.947
	c-0.85-4.391,5.996-2.451,13.145,6.984c1.008,1.328,5.793-1.198,5.459-1.631c-4.85-6.302-11.656-16.928-12.457-16.473
	c-0.814,0.463-0.283,3.158-1.174,2.923C8.767,25.543,3.4,20.867,5.218,15.693z"/>
<path fill="#B47D56" d="M17.835,21.795c-0.428,2.041,6.82,13.368,9.057,17.504c3.486,6.448,16.762,14.754,23.456,14.754
	c3.676,0,10.648-4.406,9.322-5.561c-4.854-4.225-7.637-4.618-12.426-9.322C41.117,33.152,32.46,19.675,31.71,18.81
	C30.076,16.922,18.191,20.113,17.835,21.795z"/>
</svg>
