<?xml version="1.0" encoding="utf-8"?>
<!-- Generator: Adobe Illustrator 15.0.0, SVG Export Plug-In . SVG Version: 6.00 Build 0)  -->
<!DOCTYPE svg PUBLIC "-//W3C//DTD SVG 1.1//EN" "http://www.w3.org/Graphics/SVG/1.1/DTD/svg11.dtd">
<svg version="1.1" id="Layer_1" xmlns="http://www.w3.org/2000/svg" xmlns:xlink="http://www.w3.org/1999/xlink" x="0px" y="0px"
	 width="64px" height="64px" viewBox="0 0 64 64" enable-background="new 0 0 64 64" xml:space="preserve">
<path fill="#A6E639" d="M7.561,13.155c0,0,1.697-2.219,9.242,1.24c5.873,2.697-10.426,10.404-12.008,7.25
	C3.819,19.694,7.561,13.155,7.561,13.155z"/>
<path fill="#4E5E67" d="M52.021,38.091c-9.188-6.438-18.834-25.375-19.972-25.375c-3.395,0-5.65,1.34-5.65,1.34l21.945,31.833
	C48.344,45.888,53.225,38.937,52.021,38.091z"/>
<path fill="#302C3B" d="M56.535,41.081c-1.385-1.154-5.424-1.996-6.455-3.127c-4.203-4.604-13.021-12.733-20.453-26.397
	c-2.748-5.051-15.156,3.803-15.156,3.803l21.822,34.721C36.293,50.081,61.725,45.409,56.535,41.081z"/>
<path fill="#4E5E67" d="M36.926,47.937c1.252-1.076,1.164-7.053,0.082-8.596c-6.843-9.762-17.97-24.586-22.388-24.586
	c-4.582,0-5.416,6.205-7.975,6.205c-2.24,0,0.916-7.805,0.916-7.805c-4.242,4.654-4.9,19.656-4.9,19.656
	S20.407,62.134,36.926,47.937z"/>
<path fill="#6E8189" d="M2.67,31.471c0,0-0.361-3.918,1.275-9.109c0.141,5.902,3.816,7.297,2.848,15.133L2.67,31.471z"/>
<path fill="#6E8189" d="M22.217,49.591c4.58-10.707,24.349,0.109,34.318-8.51c1.6,0.174,4.828,5.73,4.828,5.73
	S57.67,61.216,22.217,49.591z"/>
<path fill="#CFD8DD" d="M2.702,30.995c-1.027,0-0.844,6.883,0.012,7.954c5.291,6.627,10.787,8.293,18.104,17.107
	C29.596,66.64,62,61.595,62,52.563c0-7.439-0.922-6.676-0.922-6.676c-2.289,6.018-22.836,7.287-30.292,5.729
	C14.309,48.171,3.811,30.995,2.702,30.995z"/>
<ellipse fill="#302C3B" cx="14.754" cy="18.151" rx="1.414" ry="1.715"/>
<ellipse fill="#302C3B" cx="18.837" cy="22.803" rx="1.415" ry="1.715"/>
<ellipse fill="#302C3B" cx="22.393" cy="27.163" rx="1.414" ry="1.713"/>
<ellipse fill="#302C3B" cx="26.111" cy="32.708" rx="1.415" ry="1.714"/>
<ellipse fill="#302C3B" cx="29.627" cy="36.921" rx="1.414" ry="1.713"/>
<ellipse fill="#302C3B" cx="33.264" cy="41.794" rx="1.414" ry="1.713"/>
<path fill="#A6E639" d="M33.328,42.968c-0.248,0-0.498-0.115-0.687-0.346c-0.377-0.459-0.377-1.201,0-1.66
	c0.223-0.27,5.574-6.614,15.849-6.614c0.535,0,0.971,0.525,0.971,1.176c0,0.649-0.436,1.177-0.971,1.177
	c-9.43,0-14.43,5.867-14.479,5.926C33.822,42.854,33.574,42.968,33.328,42.968z"/>
<path fill="#A6E639" d="M39.834,37.601"/>
<path fill="#A6E639" d="M29.69,38.091c-0.211,0-0.422-0.082-0.602-0.254c-0.416-0.4-0.49-1.133-0.16-1.641
	c0.174-0.272,4.423-6.635,16.197-6.635c0.535,0,0.973,0.527,0.973,1.176s-0.438,1.176-0.973,1.176
	c-10.744,0-14.636,5.682-14.673,5.739C30.258,37.94,29.977,38.091,29.69,38.091z"/>
<path fill="#A6E639" d="M26.174,33.883c-0.232,0-0.465-0.1-0.65-0.305c-0.396-0.436-0.428-1.177-0.068-1.66
	c4.82-6.445,16.146-6.52,16.625-6.52c0.535,0,0.971,0.525,0.971,1.176c0,0.648-0.436,1.176-0.971,1.176
	c-0.107,0-10.947,0.074-15.187,5.748C26.704,33.752,26.438,33.883,26.174,33.883z"/>
<path fill="#A6E639" d="M22.458,28.336c-0.295,0-0.588-0.164-0.777-0.473c-0.32-0.52-0.232-1.254,0.193-1.643
	c0.242-0.219,6.012-5.348,16.798-5.348c0.535,0,0.969,0.525,0.969,1.176c0,0.648-0.434,1.174-0.969,1.174
	c-10.095,0-15.582,4.832-15.636,4.881C22.862,28.26,22.661,28.336,22.458,28.336z"/>
<path fill="#A6E639" d="M18.901,23.979c-0.285,0-0.566-0.152-0.758-0.443c-0.334-0.506-0.266-1.246,0.152-1.65
	c0.229-0.221,5.732-5.418,17.464-5.418c0.535,0,0.971,0.525,0.971,1.174c0,0.65-0.436,1.176-0.971,1.176
	c-11.06,0-16.203,4.855-16.253,4.904C19.327,23.895,19.112,23.979,18.901,23.979z"/>
</svg>
