<?xml version="1.0" encoding="utf-8"?>
<!-- Generator: Adobe Illustrator 15.0.0, SVG Export Plug-In . SVG Version: 6.00 Build 0)  -->
<!DOCTYPE svg PUBLIC "-//W3C//DTD SVG 1.1//EN" "http://www.w3.org/Graphics/SVG/1.1/DTD/svg11.dtd">
<svg version="1.1" id="Layer_1" xmlns="http://www.w3.org/2000/svg" xmlns:xlink="http://www.w3.org/1999/xlink" x="0px" y="0px"
	 width="64px" height="64px" viewBox="0 0 64 64" enable-background="new 0 0 64 64" xml:space="preserve">
<rect x="22.792" y="2" fill="#D74189" width="1.213" height="9.584"/>
<rect x="40.012" y="2" fill="#D74189" width="1.211" height="9.584"/>
<path fill="#E84D88" d="M38.658,26.16c0-3.438,4.746-9.485,3.232-15.773c0,0-6.263,0-9.883,3.094
	c-3.621-3.094-9.882-3.094-9.882-3.094c-1.515,6.289,3.232,12.335,3.232,15.773c0,6.714-16.327,16.82-11.413,35.678
	c0,0,3.958-2.396,6.021-2.396c1.775,0,4.24,2.559,6.021,2.559c2.158,0,4.169-2.559,6.021-2.559c1.852,0,3.863,2.559,6.022,2.559
	c1.779,0,4.246-2.559,6.02-2.559c2.063,0,6.021,2.396,6.021,2.396C54.981,42.98,38.658,32.874,38.658,26.16z"/>
<rect x="24.736" y="24.235" fill="#FF8FA8" width="14.542" height="3.75"/>
<path fill="#F6BEC1" d="M41.213,41.271l-4.891,1.758c0,0,0.082-13.182-3.271-17.685c-0.209-0.283,1.778-0.832,2.072-0.598
	C40.023,28.62,41.213,41.271,41.213,41.271z"/>
<path fill="#F6BEC1" d="M23.983,36.045l3.785,0.875c0,0,0.708-8.657,3.637-11.807c0.184-0.198-1.363-0.444-1.611-0.273
	C25.67,27.664,23.983,36.045,23.983,36.045z"/>
<path fill="#FF8FA8" d="M34.65,25.896l2.67,5.889C37.084,29.471,35.215,26.746,34.65,25.896z"/>
<path fill="#FF8FA8" d="M27.211,30.083l3.723-5.301C29.049,26.179,27.657,29.167,27.211,30.083z"/>
<path fill="#FF8FA8" d="M34.524,28.973c-0.896,0.654-3.714,0.654-4.61,0c-1.175-0.856-1.068-4.486,0-5.449
	c0.813-0.735,3.794-0.735,4.61,0C35.591,24.487,35.698,28.116,34.524,28.973z"/>
<path fill="#F6BEC1" d="M34.134,28.893c-0.746,0.634-3.084,0.634-3.831,0c-0.975-0.832-0.886-4.356,0-5.291
	c0.68-0.715,3.154-0.715,3.831,0C35.02,24.537,35.109,28.062,34.134,28.893z"/>
<path fill="#F6BEC1" d="M45.683,54.488c-2.017,0-4.815,2.775-6.837,2.775c-2.453,0-4.734-2.775-6.838-2.775
	c-2.104,0-4.386,2.775-6.837,2.775c-2.023,0-4.82-2.775-6.837-2.775c-1.458,0-3.753,1.012-5.272,1.771c0,0-0.041,1.969,0.383,3.299
	c1.038-0.568,4.173-2.248,5.958-2.248c1.858,0,4.439,2.559,6.302,2.559c2.26,0,4.365-2.559,6.304-2.559
	c1.938,0,4.043,2.559,6.303,2.559c1.862,0,4.444-2.559,6.304-2.559c1.783,0,4.929,1.633,5.965,2.199
	c0.374-1.768,0.374-3.221,0.374-3.221C49.433,55.529,47.139,54.488,45.683,54.488z"/>
<path fill="#F6BEC1" d="M25.572,55.514c2.306,0,4.456-2.559,6.436-2.559c1.979,0,4.129,2.559,6.435,2.559
	c1.904,0,4.54-2.559,6.437-2.559c1.84,0,5.083,1.584,6.111,2.084c0.033-0.844-0.033-1.484-0.033-1.484
	c-1.389-0.641-4.101-1.771-5.732-1.771c-1.948,0-4.654,2.559-6.611,2.559c-2.365,0-4.572-2.559-6.606-2.559
	c-2.033,0-4.239,2.559-6.606,2.559c-1.957,0-4.662-2.559-6.608-2.559c-1.634,0-4.347,1.08-5.733,1.723
	c-0.105,0.689-0.037,1.439-0.037,1.439c1.029-0.502,4.273-1.99,6.113-1.99C21.034,52.955,23.668,55.514,25.572,55.514z"/>
</svg>
