<?xml version="1.0" encoding="utf-8"?>
<!-- Generator: Adobe Illustrator 15.0.0, SVG Export Plug-In . SVG Version: 6.00 Build 0)  -->
<!DOCTYPE svg PUBLIC "-//W3C//DTD SVG 1.1//EN" "http://www.w3.org/Graphics/SVG/1.1/DTD/svg11.dtd">
<svg version="1.1" id="Layer_1" xmlns="http://www.w3.org/2000/svg" xmlns:xlink="http://www.w3.org/1999/xlink" x="0px" y="0px"
	 width="64px" height="64px" viewBox="0 0 64 64" enable-background="new 0 0 64 64" xml:space="preserve">
<path fill="#CAE8F0" d="M58.918,34.908c-0.41-0.975-1.123-2.342-3.613-2.342c-1.821,0-10.827,0.117-16.364,1.312
	c-1.615,0.349-4.244,0.955-3.57,4.273c0.115,0.519,0.263,1.123,0.466,1.888c1.182,4.464,3.789,7.436,12.683,7.436
	c8.617,0,9.38-1.799,10.19-6.848C59.013,38.745,59.662,36.659,58.918,34.908z"/>
<path fill="#CAE8F0" d="M25.06,33.878c-5.537-1.194-14.543-1.312-16.364-1.312c-2.492,0-3.203,1.366-3.615,2.341
	c-0.742,1.752-0.093,3.838,0.209,5.72c0.811,5.049,1.575,6.848,10.191,6.848c8.893,0,11.503-2.972,12.684-7.435
	c0.204-0.766,0.351-1.37,0.464-1.889C29.305,34.833,26.675,34.227,25.06,33.878z"/>
<path fill="#302C3B" d="M13.018,15.377c1.498-1.521,5.822,1.912,7.828,3.968c2.008,2.056,1.029,5.53-0.182,4.135
	c-1.498-1.727-5.266-7.138-6.664-6.451c-1.398,0.684-5.07,6.043-9.143,14.21L2,32.253C2,32.253,6.508,21.985,13.018,15.377z"/>
<path fill="#302C3B" d="M50.98,15.377c-1.496-1.521-5.822,1.912-7.828,3.968s-1.029,5.53,0.182,4.135
	c1.498-1.727,5.268-7.138,6.666-6.451c1.398,0.684,5.068,6.043,9.143,14.21L62,32.253C62,32.253,57.492,21.985,50.98,15.377z"/>
<path fill="#FFFFFF" d="M47.115,31.899L36.703,42.262c0.322,1.207,0.787,2.41,1.386,3.48l13.993-13.897
	C50.531,31.771,48.818,31.787,47.115,31.899z"/>
<path fill="#FFFFFF" d="M57.407,32.78c-0.097-0.057-0.235-0.104-0.361-0.156L42.27,47.202c0.178,0.097,0.351,0.201,0.539,0.273
	c0.818,0.316,1.856,0.596,3.012,0.766l12.872-12.71C58.514,34.208,58.096,33.175,57.407,32.78z"/>
<path fill="#FFFFFF" d="M12.385,31.83l-7.077,6.978c0.152,1.323,0.471,2.687,0.952,3.902L17.2,31.923
	C15.563,31.803,13.909,31.775,12.385,31.83z"/>
<path fill="#FFFFFF" d="M8.612,46.072c0.919,0.729,1.914,1.269,2.945,1.636l13.901-13.726c-0.783-0.547-1.914-0.982-3.259-1.313
	L8.612,46.072z"/>
<path fill="#302C3B" d="M59.928,31.014c-1.029-0.127-4.262-0.281-8.182-0.281c-4.498,0-8.086,0.643-11.621,1.263
	c-3.506,0.616-5.842,1.049-8.125,1.049c-2.285,0-4.619-0.433-8.125-1.049c-3.537-0.62-7.123-1.263-11.621-1.263
	c-3.92,0-7.152,0.154-8.184,0.281C2,31.268,2,31.268,2,33.551c0,3.336,0.383,3.917,0.545,4.117c0.219,0.27,0.834,0.643,1.033,0.928
	c0.293,0.418,0.398,1.708,0.539,2.452C5.234,46.954,6.775,49,15.566,49c8.184,0,12.217-2.431,13.756-8.435
	c0.115-0.447,0.318-2.364,0.443-2.811c0.049-0.176,0.211-0.441,0.637-0.505c0.568-0.056,1.086-0.08,1.598-0.08
	s1.027,0.024,1.598,0.08c0.424,0.063,0.588,0.329,0.637,0.505c0.123,0.446,0.328,2.363,0.443,2.811
	C36.217,46.569,40.25,49,48.434,49c8.791,0,10.332-2.046,11.447-7.952c0.141-0.744,0.248-2.034,0.541-2.452
	c0.199-0.285,0.813-0.658,1.033-0.928c0.162-0.2,0.545-0.781,0.545-4.117C62,31.268,62,31.268,59.928,31.014z M27.822,38.278
	c-0.105,0.483-0.242,1.047-0.432,1.76c-1.102,4.161-3.535,6.932-11.824,6.932c-8.033,0-8.746-1.677-9.502-6.384
	c-0.281-1.755-0.887-3.699-0.195-5.332c0.385-0.908,1.047-2.183,3.371-2.183c1.697,0,10.094,0.109,15.256,1.223
	C26.002,34.619,28.453,35.185,27.822,38.278z M57.934,40.586c-0.756,4.707-1.467,6.384-9.5,6.384
	c-8.291,0-10.723-2.771-11.824-6.932c-0.189-0.713-0.326-1.276-0.434-1.76c-0.629-3.094,1.822-3.659,3.328-3.984
	c5.162-1.113,13.559-1.223,15.256-1.223c2.322,0,2.986,1.274,3.369,2.183C58.822,36.887,58.217,38.831,57.934,40.586z"/>
</svg>
