<?xml version="1.0" encoding="utf-8"?>
<!-- Generator: Adobe Illustrator 15.0.0, SVG Export Plug-In . SVG Version: 6.00 Build 0)  -->
<!DOCTYPE svg PUBLIC "-//W3C//DTD SVG 1.1//EN" "http://www.w3.org/Graphics/SVG/1.1/DTD/svg11.dtd">
<svg version="1.1" id="Layer_1" xmlns="http://www.w3.org/2000/svg" xmlns:xlink="http://www.w3.org/1999/xlink" x="0px" y="0px"
	 width="64px" height="64px" viewBox="0 0 64 64" enable-background="new 0 0 64 64" xml:space="preserve">
<path fill="#FDCA47" d="M28.674,26.584c-1.161,3.616-0.619,4.289-2.192,6.004l-1.051-3.021L6.173,36.902l2.425,6.974
	c2.097,6.03,6.799,11.181,14.354,8.304l0,0l0,0c12.595-4.799,8.805-16.734,9.555-27.055C32.606,23.743,29.765,23.19,28.674,26.584z"
	/>
<path fill="#CC9200" d="M30.127,24.428c0.809-0.086,1.465,0.388,1.417,1.064c-0.737,10.147,2.905,21.854-8.949,26.803
	c0.12-0.043,0.236-0.07,0.358-0.116c12.593-4.798,8.803-16.733,9.553-27.054C32.574,24.191,31.298,23.64,30.127,24.428z"/>
<path fill="#FDCA47" d="M14.895,14.937l6.426,18.477l4.811-1.832l-6.426-18.478C18.467,9.542,13.656,11.374,14.895,14.937z"/>
<path fill="#CC9200" d="M15.908,11.581c1.094-0.182,2.3,0.345,2.835,1.889l6.425,18.475l0.963-0.367l-6.425-18.476
	C19.002,11.081,17.152,10.799,15.908,11.581z"/>
<path fill="#FDCA47" d="M9.399,14.799l7.46,21.454l4.812-1.832l-7.461-21.454C12.952,9.347,8.141,11.18,9.399,14.799z"/>
<path fill="#CC9200" d="M10.396,11.4c1.097-0.18,2.306,0.363,2.852,1.931l5.71,16.421l0.962-0.368l-5.711-16.42
	C13.495,10.91,11.64,10.614,10.396,11.4z"/>
<path fill="#FDCA47" d="M4.911,17.558l6.788,19.521l4.812-1.833L9.721,15.726C8.5,12.213,3.688,14.046,4.911,17.558z"/>
<path fill="#FDCA47" d="M2.195,25.416l5.394,15.509l4.811-1.832L7.005,23.584C5.792,20.093,0.981,21.926,2.195,25.416z"/>
<path fill="#CC9200" d="M26.131,31.581l-0.963,0.365c-2.178,1.727-5.449,6.258-3.657,11.412c-0.292-5.105,2.405-9.794,4.971-10.771
	L26.131,31.581z"/>
<path fill="#CC9200" d="M5.936,14.24c1.096-0.18,2.305,0.363,2.85,1.93l5.361,15.415l0.961-0.366L9.749,15.804
	C9.035,13.75,7.179,13.454,5.936,14.24z"/>
<path fill="#CC9200" d="M3.225,22.114c1.096-0.179,2.307,0.364,2.852,1.931l3.609,10.379l0.962-0.366l-3.609-10.38
	C6.325,21.624,4.471,21.33,3.225,22.114z"/>
<path fill="#CC9200" d="M11.61,33.69c0,0-1.049,0.4-2.42,2.443c0,0,0.99-2.279,0.174-4.628C10.561,34.091,11.61,33.69,11.61,33.69z"
	/>
<path fill="#CC9200" d="M16.208,31.247c0,0-1.67,0.327-2.79,1.375c0,0,1.024-1.323,0.523-3.62
	C14.968,31.099,16.208,31.247,16.208,31.247z"/>
<path fill="#CC9200" d="M21.057,29.521c0,0-1.313-0.354-2.975,0.849c0,0,1.05-1.256,0.35-3.271
	C19.132,29.114,21.057,29.521,21.057,29.521z"/>
<path fill="#FDCA47" d="M35.326,26.584c1.16,3.616,0.619,4.289,2.192,6.004l1.05-3.022l19.259,7.337l-2.424,6.974
	c-2.098,6.03-6.8,11.18-14.354,8.304l0,0l0,0c-12.595-4.799-8.804-16.734-9.555-27.054C31.394,23.743,34.235,23.19,35.326,26.584z"
	/>
<path fill="#CC9200" d="M33.873,24.428c-0.809-0.086-1.464,0.388-1.417,1.064c0.737,10.147-2.905,21.853,8.949,26.803
	c-0.12-0.043-0.236-0.07-0.358-0.116c-12.593-4.798-8.802-16.733-9.553-27.053C31.427,24.191,32.703,23.64,33.873,24.428z"/>
<path fill="#FDCA47" d="M49.104,14.937L42.68,33.413l-4.812-1.832l6.426-18.477C45.533,9.541,50.344,11.376,49.104,14.937z"/>
<path fill="#CC9200" d="M48.093,11.582c-1.095-0.183-2.299,0.344-2.835,1.886l-6.426,18.476l-0.963-0.366l6.425-18.475
	C44.997,11.081,46.848,10.798,48.093,11.582z"/>
<path fill="#FDCA47" d="M54.601,14.799l-7.46,21.453L42.33,34.42l7.46-21.453C51.049,9.348,55.86,11.18,54.601,14.799z"/>
<path fill="#CC9200" d="M53.604,11.4c-1.096-0.179-2.306,0.362-2.851,1.93l-5.711,16.421l-0.962-0.367l5.711-16.42
	C50.505,10.91,52.36,10.614,53.604,11.4z"/>
<path fill="#FDCA47" d="M59.091,17.557l-6.789,19.521l-4.812-1.833l6.789-19.521C55.5,12.213,60.312,14.046,59.091,17.557z"/>
<path fill="#FDCA47" d="M61.805,25.416l-5.393,15.509l-4.812-1.832l5.394-15.509C58.209,20.093,63.02,21.926,61.805,25.416z"/>
<path fill="#CC9200" d="M37.868,31.581l0.963,0.365c2.18,1.727,5.451,6.258,3.658,11.412c0.292-5.105-2.406-9.794-4.971-10.771
	L37.868,31.581z"/>
<path fill="#CC9200" d="M58.064,14.239c-1.096-0.179-2.306,0.364-2.852,1.931l-5.36,15.414l-0.962-0.366l5.361-15.415
	C54.966,13.749,56.82,13.455,58.064,14.239z"/>
<path fill="#CC9200" d="M60.773,22.114c-1.095-0.179-2.305,0.363-2.85,1.93l-3.61,10.38l-0.962-0.366l3.609-10.38
	C57.676,21.625,59.53,21.329,60.773,22.114z"/>
<path fill="#CC9200" d="M52.39,33.689c0,0,1.051,0.401,2.42,2.444c0,0-0.988-2.279-0.173-4.628
	C53.44,34.091,52.39,33.689,52.39,33.689z"/>
<path fill="#CC9200" d="M47.791,31.247c0,0,1.67,0.327,2.79,1.374c0,0-1.024-1.322-0.522-3.619
	C49.033,31.099,47.791,31.247,47.791,31.247z"/>
<path fill="#CC9200" d="M42.943,29.521c0,0,1.313-0.354,2.974,0.849c0,0-1.049-1.256-0.349-3.271
	C44.868,29.114,42.943,29.521,42.943,29.521z"/>
</svg>
