<?xml version="1.0" encoding="utf-8"?>
<!-- Generator: Adobe Illustrator 15.0.0, SVG Export Plug-In . SVG Version: 6.00 Build 0)  -->
<!DOCTYPE svg PUBLIC "-//W3C//DTD SVG 1.1//EN" "http://www.w3.org/Graphics/SVG/1.1/DTD/svg11.dtd">
<svg version="1.1" id="Layer_1" xmlns="http://www.w3.org/2000/svg" xmlns:xlink="http://www.w3.org/1999/xlink" x="0px" y="0px"
	 width="64px" height="64px" viewBox="0 0 64 64" enable-background="new 0 0 64 64" xml:space="preserve">
<path fill="#C49A45" d="M49.3,32.965H14.699c-8.373,0-8.373-12.969,0-12.969H49.3C57.673,19.996,57.673,32.965,49.3,32.965z"/>
<path fill="#FFE8BB" d="M47.667,32.683H16.333c-8.055,0-8.055-12.402,0-12.402h31.333C55.72,20.28,55.72,32.683,47.667,32.683z"/>
<path fill="#006DAE" d="M12.736,24.118C6.89,29.057-0.028,45.667,2.558,52.829c1.004,2.776,7.348,5.207,10.178,6.129
	c9.145,2.977,29.236,2.572,38.503,0c2.867-0.795,9.176-3.353,10.178-6.129c2.586-7.162-3.908-24.311-10.178-28.711
	C48.597,22.265,14.847,22.337,12.736,24.118z"/>
<path fill="#014D87" d="M13.011,23.962c-0.684,1.491-1.105,3.085-1.527,4.663c-0.428,1.581-0.799,3.175-1.104,4.778
	c-0.605,3.207-1.063,6.445-1.135,9.689c-0.088,3.234,0.186,6.507,1.236,9.546c1.02,3.038,3.164,5.713,6.125,7.19
	c-1.551-0.555-2.975-1.49-4.156-2.684c-1.164-1.211-2.047-2.681-2.686-4.232c-1.279-3.129-1.586-6.535-1.52-9.845
	c0.102-3.327,0.594-6.62,1.387-9.829C10.462,30.052,11.365,26.831,13.011,23.962z"/>
<path fill="#0FB4D4" d="M50.993,23.962c-0.908-0.965-10.271-1.384-18.992-1.268c-8.721-0.116-18.082,0.303-18.99,1.268
	c0,0-11.553,29.343,3.596,35.867c6.715,2.895,24.076,2.895,30.789,0C62.546,53.305,50.993,23.962,50.993,23.962z"/>
<path fill="#014D87" d="M50.993,23.962c1.646,2.869,2.547,6.09,3.379,9.277c0.793,3.209,1.285,6.502,1.385,9.829
	c0.068,3.31-0.24,6.716-1.518,9.845c-0.639,1.552-1.521,3.021-2.688,4.232c-1.18,1.193-2.605,2.129-4.156,2.684
	c2.963-1.478,5.105-4.152,6.125-7.19c1.051-3.039,1.324-6.312,1.238-9.546c-0.074-3.245-0.529-6.482-1.135-9.689
	c-0.307-1.604-0.678-3.197-1.104-4.778C52.099,27.046,51.675,25.453,50.993,23.962z"/>
<path fill="#006DAE" d="M39.241,35.567c0,4.092-3.242,7.41-7.238,7.41c-3.998,0-7.238-3.318-7.238-7.41
	C24.765,26.474,39.241,26.474,39.241,35.567z"/>
<ellipse fill="#C49A45" cx="32.002" cy="34.864" rx="6.774" ry="6.705"/>
<ellipse fill="#FFE8BB" cx="32.001" cy="34.864" rx="5.806" ry="5.748"/>
<ellipse fill="#45332C" cx="32.001" cy="34.864" rx="3.871" ry="3.832"/>
<g>
	<path fill="#C49A45" d="M28.13,34.865c0-1.002,7.742-1.002,7.742,0C35.872,35.863,28.13,35.863,28.13,34.865z"/>
</g>
<g>
	<path fill="#FFE8BB" d="M32.001,38.696c-1,0-1-7.664,0-7.664C33.001,31.032,33.001,38.696,32.001,38.696z"/>
</g>
<path fill="#C49A45" d="M27.363,12.943l-3.986,3.937h-5.207c-2.912,0-3.396,3.31-0.48,3.31h6.348c0.002,0,0.006,0,0.006,0
	c0.426,0,0.852-0.157,1.178-0.48l4.49-4.443C30.357,14.626,28.011,12.301,27.363,12.943z"/>
<path fill="#FFE8BB" d="M26.667,13.56l-3.291,3.32h-5.207c-2.764,0-2.357,2.846,0.408,2.846h5.307c0.004,0,0.006-0.002,0.008-0.002
	c0.354,0.002,0.709-0.132,0.982-0.4l3.752-3.715C29.169,15.072,27.21,13.022,26.667,13.56z"/>
<ellipse fill="#C49A45" cx="28.652" cy="13.427" rx="3.463" ry="3.428"/>
<path fill="#FFE8BB" d="M31.434,13.139c0,4.001-6,4.001-6,0C25.434,9.141,31.434,9.141,31.434,13.139z"/>
<path fill="#C49A45" d="M36.638,12.943l3.984,3.937h5.207c2.914,0,3.398,3.31,0.482,3.31h-6.348c-0.004,0-0.004,0-0.006,0
	c-0.428,0-0.854-0.157-1.18-0.48l-4.488-4.443C33.644,14.626,35.989,12.301,36.638,12.943z"/>
<path fill="#FFE8BB" d="M37.331,13.56l3.291,3.32h5.207c2.766,0,2.359,2.846-0.408,2.846h-5.307c-0.002,0-0.004-0.002-0.006-0.002
	c-0.355,0.002-0.711-0.132-0.984-0.4l-3.752-3.715C34.831,15.072,36.788,13.022,37.331,13.56z"/>
<ellipse fill="#C49A45" cx="35.349" cy="13.427" rx="3.463" ry="3.428"/>
<path fill="#FFE8BB" d="M32.566,13.139c0,4.001,6,4.001,6,0C38.565,9.141,32.566,9.141,32.566,13.139z"/>
</svg>
