<?xml version="1.0" encoding="utf-8"?>
<!-- Generator: Adobe Illustrator 15.0.0, SVG Export Plug-In . SVG Version: 6.00 Build 0)  -->
<!DOCTYPE svg PUBLIC "-//W3C//DTD SVG 1.1//EN" "http://www.w3.org/Graphics/SVG/1.1/DTD/svg11.dtd">
<svg version="1.1" id="Layer_1" xmlns="http://www.w3.org/2000/svg" xmlns:xlink="http://www.w3.org/1999/xlink" x="0px" y="0px"
	 width="64px" height="64px" viewBox="0 0 64 64" enable-background="new 0 0 64 64" xml:space="preserve">
<path fill="#B00505" d="M48.92,19.81c0,0,10.921-4.371,9.24-15.81l3.191,2.479c0,0,0,10.061-9.643,16.637L48.92,19.81z"/>
<path fill="#E03636" d="M48.92,19.656c0,0,2.687-12.9,9.24-15.656l3.191,2.479c0,0-6.768,4.055-9.643,16.637L48.92,19.656z"/>
<path fill="#E03636" d="M61.326,55.863c0,5.516-58.652,5.516-58.652,0C2.674,23.28,0.651,13.31,32,13.31
	C63.35,13.31,61.326,23.28,61.326,55.863z"/>
<rect x="3.768" y="31" fill="#B00505" width="56.465" height="7"/>
<polygon fill="#E03636" points="59.119,35.791 4.905,35.791 4.881,33.208 59.096,33.208 "/>
<path fill="#F5F5F5" d="M32,15.543c-13.878,0-22.044,2.185-25.703,6.875c-4.375,5.61-4.34,14.807-4.285,28.725
	c0.005,1.645,0.013,3.357,0.013,5.146c0,1.814,2.583,1.814,2.583,0c0-1.564-0.013-5.158-0.013-5.158
	C4.544,37.896,4.509,29.152,8.227,24.387c3.089-3.962,10.866-5.888,23.773-5.888c12.909,0,20.686,1.926,23.775,5.888
	c3.715,4.765,3.682,13.506,3.631,26.738c0,0-0.013,3.68-0.013,5.164c0,1.814,2.584,1.814,2.584,0c0-1.65,0.013-5.146,0.013-5.146
	c0.053-13.918,0.09-23.114-4.287-28.725C54.046,17.728,45.877,15.543,32,15.543L32,15.543z"/>
<path fill="#CFD8DD" d="M45.725,31.521c-2.016,0-3.654,1.474-3.654,3.285c0,1.811,1.639,3.283,3.654,3.283
	c2.015,0,3.655-1.473,3.655-3.283C49.38,32.994,47.739,31.521,45.725,31.521z M48.111,35.983c-0.497,0.641-1.376,1.071-2.387,1.071
	c-1.554,0-2.813-1.007-2.813-2.249c0-1.243,1.259-2.251,2.813-2.251c1.011,0,1.89,0.431,2.387,1.072h-3.155v2.356H48.111z"/>
<path fill="#CFD8DD" d="M49.125,43.973l-0.838-5.076c-0.264-1.616-3.3-1.616-3.571-0.001l-0.837,5.077
	C43.407,46.827,49.598,46.827,49.125,43.973z M44.86,44.545l0.33-2.831h2.618l0.334,2.831C48.058,44.771,44.941,44.771,44.86,44.545
	z"/>
<rect x="46.082" y="33.208" fill="#99A8AE" width="0.839" height="6.13"/>
</svg>
