<?xml version="1.0" encoding="utf-8"?>
<!-- Generator: Adobe Illustrator 15.0.0, SVG Export Plug-In . SVG Version: 6.00 Build 0)  -->
<!DOCTYPE svg PUBLIC "-//W3C//DTD SVG 1.1//EN" "http://www.w3.org/Graphics/SVG/1.1/DTD/svg11.dtd">
<svg version="1.1" id="Layer_1" xmlns="http://www.w3.org/2000/svg" xmlns:xlink="http://www.w3.org/1999/xlink" x="0px" y="0px"
	 width="64px" height="64px" viewBox="0 0 64 64" enable-background="new 0 0 64 64" xml:space="preserve">
<path fill="#FF8FA8" d="M53.944,25.708H10.058c-2.541,0-5.893,2.613-6.098,8.82h56.078C59.835,28.321,56.485,25.708,53.944,25.708z"
	/>
<path fill="#FDCA47" d="M10.058,28.202h43.887c2.336,0,5.318,1.235,6.01,5.607c-0.373-4.958-3.619-6.355-6.01-6.355H10.058
	c-2.393,0-5.637,1.396-6.012,6.351C4.739,29.436,7.722,28.202,10.058,28.202z"/>
<path fill="#E84D88" d="M61.989,59.443c-0.402-6.766-1.207-17.791-2.014-25.523c-0.316-3.021-3.49-3.972-6.031-3.972H10.058
	c-2.541,0-5.717,0.951-6.033,3.972c-0.807,7.732-1.611,18.758-2.014,25.523C1.938,60.609,2.185,62,4.065,62h27.936h27.936
	C61.817,62,62.062,60.609,61.989,59.443z"/>
<path opacity="0.7" fill="#8C0B5E" d="M42.872,31.631c0,0-0.754,13.742-0.754,19c0,7.598,8.721,7.598,8.721,0
	c0-5.258-0.754-19-0.754-19H42.872z"/>
<path opacity="0.7" fill="#8C0B5E" d="M13.913,31.631c0,0-0.74,13.742-0.74,19c0,7.598,8.721,7.598,8.721,0
	c0-5.258-0.762-19-0.762-19H13.913z"/>
<path fill="#D74189" d="M47.269,16.227c-0.791-4.436-2.42-7-3.373-8.469C41.663,4.336,37.175,2,32.001,2
	c-5.176,0-9.666,2.336-11.895,5.758c-0.957,1.469-2.584,4.033-3.375,8.469c-0.52,2.901-2.818,4.363-2.818,7.683
	c0,0,0,17.682,0,23.946c0,6.422,7.219,6.422,7.219,0c0-6.264,0-27.435,0-27.435s-1.287-3.249-1.287-6.157
	c0-5.89,5.441-10.664,12.156-10.664c6.711,0,12.154,4.774,12.154,10.664c0,2.908-1.283,6.157-1.283,6.157s0,21.171,0,27.435
	c0,6.422,7.213,6.422,7.213,0c0-6.264,0-23.946,0-23.946C50.085,20.59,47.788,19.128,47.269,16.227z"/>
<path fill="#8C0B5E" d="M44.155,14.263c0-5.89-5.443-10.664-12.154-10.664c-6.715,0-12.156,4.774-12.156,10.664
	c0,1.577,0.352,4.399,1.287,6.157c-0.51-1.74-0.746-3.287-0.746-6.109c0-5.223,5.201-9.457,11.615-9.457
	c6.412,0,11.611,4.234,11.611,9.457c0,2.822-0.236,4.369-0.74,6.109C43.804,18.663,44.155,15.84,44.155,14.263z"/>
<path fill="#FFE463" d="M41.245,41.594c0,5.988,10.268,5.988,10.268,0C51.513,35.604,41.245,35.604,41.245,41.594z M42.134,41.592
	c0-4.461,8.488-4.461,8.488,0C50.622,46.055,42.134,46.055,42.134,41.592z"/>
<rect x="45.729" y="43.383" fill="#F9C802" width="1.301" height="3.818"/>
<path fill="#FFE463" d="M45.024,33.039c0,1.732,2.711,1.732,2.711,0C47.735,31.311,45.024,31.311,45.024,33.039z"/>
<path fill="#FFE463" d="M45.024,28.35c0,1.732,2.711,1.732,2.711,0C47.735,26.622,45.024,26.622,45.024,28.35z"/>
<path fill="#FFE463" d="M12.485,41.594c0,5.988,10.271,5.988,10.271,0C22.757,35.604,12.485,35.604,12.485,41.594z M13.376,41.592
	c0-4.461,8.488-4.461,8.488,0C21.864,46.055,13.376,46.055,13.376,41.592z"/>
<rect x="16.972" y="43.383" fill="#F9C802" width="1.297" height="3.818"/>
<path fill="#FFE463" d="M16.265,33.039c0,1.732,2.713,1.732,2.713,0C18.978,31.311,16.265,31.311,16.265,33.039z"/>
<path fill="#FFE463" d="M16.265,28.35c0,1.732,2.713,1.732,2.713,0C18.978,26.622,16.265,26.622,16.265,28.35z"/>
</svg>
