<?xml version="1.0" encoding="utf-8"?>
<!-- Generator: Adobe Illustrator 15.0.0, SVG Export Plug-In . SVG Version: 6.00 Build 0)  -->
<!DOCTYPE svg PUBLIC "-//W3C//DTD SVG 1.1//EN" "http://www.w3.org/Graphics/SVG/1.1/DTD/svg11.dtd">
<svg version="1.1" id="Layer_1" xmlns="http://www.w3.org/2000/svg" xmlns:xlink="http://www.w3.org/1999/xlink" x="0px" y="0px"
	 width="64px" height="64px" viewBox="0 0 64 64" enable-background="new 0 0 64 64" xml:space="preserve">
<path fill="#614A36" d="M28.674,26.584c-1.16,3.617-0.619,4.289-2.191,6.004l-1.051-3.021L6.174,36.902l2.424,6.975
	c2.098,6.029,6.799,11.18,14.354,8.303l0,0l0,0c12.596-4.799,8.805-16.734,9.555-27.055C32.605,23.744,29.766,23.191,28.674,26.584z
	"/>
<path fill="#3B2B1C" d="M30.127,24.428c0.809-0.086,1.465,0.389,1.418,1.064c-0.738,10.148,2.904,21.854-8.949,26.803
	c0.119-0.043,0.236-0.07,0.357-0.115c12.594-4.799,8.803-16.734,9.553-27.055C32.574,24.191,31.299,23.641,30.127,24.428z"/>
<path fill="#614A36" d="M14.895,14.938l6.426,18.477l4.811-1.832l-6.426-18.479C18.467,9.543,13.656,11.375,14.895,14.938z"/>
<path fill="#3B2B1C" d="M15.908,11.582c1.094-0.182,2.299,0.344,2.834,1.889l6.426,18.475l0.963-0.367l-6.426-18.477
	C19.002,11.082,17.152,10.799,15.908,11.582z"/>
<path fill="#614A36" d="M9.398,14.799l7.461,21.455l4.811-1.832l-7.461-21.455C12.951,9.348,8.141,11.18,9.398,14.799z"/>
<path fill="#3B2B1C" d="M10.396,11.4c1.096-0.18,2.305,0.363,2.852,1.932l5.709,16.42l0.963-0.367l-5.711-16.42
	C13.494,10.91,11.641,10.615,10.396,11.4z"/>
<path fill="#614A36" d="M4.91,17.559l6.789,19.521l4.811-1.834l-6.789-19.52C8.5,12.213,3.688,14.047,4.91,17.559z"/>
<path fill="#614A36" d="M2.195,25.416l5.393,15.51l4.811-1.832l-5.393-15.51C5.793,20.094,0.98,21.926,2.195,25.416z"/>
<path fill="#3B2B1C" d="M26.131,31.582l-0.963,0.365c-2.178,1.727-5.449,6.258-3.656,11.412c-0.293-5.105,2.404-9.795,4.971-10.771
	L26.131,31.582z"/>
<path fill="#3B2B1C" d="M5.936,14.24c1.096-0.18,2.305,0.363,2.85,1.93l5.361,15.416l0.961-0.367L9.748,15.805
	C9.035,13.75,7.18,13.455,5.936,14.24z"/>
<path fill="#3B2B1C" d="M3.225,22.115c1.096-0.18,2.307,0.363,2.852,1.93l3.609,10.379l0.963-0.365L7.039,23.678
	C6.324,21.625,4.471,21.33,3.225,22.115z"/>
<path fill="#3B2B1C" d="M11.609,33.691c0,0-1.049,0.4-2.42,2.443c0,0,0.99-2.279,0.174-4.629
	C10.561,34.092,11.609,33.691,11.609,33.691z"/>
<path fill="#3B2B1C" d="M16.209,31.248c0,0-1.67,0.326-2.791,1.375c0,0,1.025-1.324,0.523-3.621
	C14.969,31.1,16.209,31.248,16.209,31.248z"/>
<path fill="#3B2B1C" d="M21.057,29.521c0,0-1.313-0.354-2.975,0.85c0,0,1.051-1.256,0.35-3.271
	C19.133,29.115,21.057,29.521,21.057,29.521z"/>
<path fill="#614A36" d="M35.326,26.584c1.16,3.617,0.619,4.289,2.193,6.004l1.049-3.021l19.26,7.336l-2.424,6.975
	c-2.098,6.029-6.801,11.18-14.355,8.303l0,0l0,0c-12.596-4.799-8.805-16.734-9.555-27.053
	C31.395,23.744,34.236,23.191,35.326,26.584z"/>
<path fill="#3B2B1C" d="M33.873,24.428c-0.809-0.086-1.465,0.389-1.416,1.064c0.736,10.148-2.906,21.854,8.949,26.803
	c-0.121-0.043-0.236-0.07-0.359-0.115c-12.594-4.799-8.803-16.734-9.553-27.053C31.428,24.191,32.703,23.641,33.873,24.428z"/>
<path fill="#614A36" d="M49.105,14.938L42.68,33.414l-4.811-1.832l6.426-18.477C45.533,9.541,50.344,11.377,49.105,14.938z"/>
<path fill="#3B2B1C" d="M48.094,11.582c-1.096-0.182-2.299,0.344-2.836,1.887l-6.426,18.475l-0.963-0.365l6.426-18.475
	C44.998,11.082,46.848,10.799,48.094,11.582z"/>
<path fill="#614A36" d="M54.602,14.799l-7.461,21.453L42.33,34.42l7.461-21.453C51.049,9.348,55.861,11.18,54.602,14.799z"/>
<path fill="#3B2B1C" d="M53.604,11.4c-1.096-0.178-2.305,0.363-2.85,1.93l-5.711,16.422l-0.963-0.367l5.711-16.42
	C50.506,10.91,52.361,10.615,53.604,11.4z"/>
<path fill="#614A36" d="M59.092,17.557l-6.789,19.521l-4.813-1.832l6.789-19.521C55.5,12.213,60.313,14.047,59.092,17.557z"/>
<path fill="#614A36" d="M61.805,25.416l-5.393,15.51l-4.811-1.832l5.393-15.51C58.209,20.094,63.02,21.926,61.805,25.416z"/>
<path fill="#3B2B1C" d="M37.869,31.582l0.963,0.365c2.18,1.727,5.451,6.258,3.658,11.412c0.291-5.105-2.406-9.795-4.971-10.771
	L37.869,31.582z"/>
<path fill="#3B2B1C" d="M58.064,14.24c-1.096-0.18-2.305,0.363-2.852,1.93l-5.359,15.414l-0.963-0.365l5.361-15.416
	C54.967,13.75,56.82,13.455,58.064,14.24z"/>
<path fill="#3B2B1C" d="M60.773,22.115c-1.094-0.18-2.305,0.363-2.85,1.93l-3.609,10.379l-0.963-0.365l3.609-10.381
	C57.676,21.625,59.531,21.33,60.773,22.115z"/>
<path fill="#3B2B1C" d="M52.391,33.689c0,0,1.051,0.402,2.42,2.445c0,0-0.988-2.279-0.174-4.629
	C53.441,34.092,52.391,33.689,52.391,33.689z"/>
<path fill="#3B2B1C" d="M47.791,31.248c0,0,1.67,0.326,2.791,1.373c0,0-1.025-1.322-0.523-3.619
	C49.033,31.1,47.791,31.248,47.791,31.248z"/>
<path fill="#3B2B1C" d="M42.943,29.521c0,0,1.313-0.354,2.975,0.85c0,0-1.049-1.256-0.35-3.271
	C44.869,29.115,42.943,29.521,42.943,29.521z"/>
</svg>
