<?xml version="1.0" encoding="utf-8"?>
<!-- Generator: Adobe Illustrator 15.0.0, SVG Export Plug-In . SVG Version: 6.00 Build 0)  -->
<!DOCTYPE svg PUBLIC "-//W3C//DTD SVG 1.1//EN" "http://www.w3.org/Graphics/SVG/1.1/DTD/svg11.dtd">
<svg version="1.1" id="Layer_1" xmlns="http://www.w3.org/2000/svg" xmlns:xlink="http://www.w3.org/1999/xlink" x="0px" y="0px"
	 width="64px" height="64px" viewBox="0 0 64 64" enable-background="new 0 0 64 64" xml:space="preserve">
<path fill="#CFD8DD" d="M62,56c0,3.301-2.699,6-6,6H8c-3.299,0-6-2.699-6-6V16c0-3.301,2.701-6,6-6h48c3.301,0,6,2.699,6,6V56z"/>
<rect x="8" y="10" fill="#E6EBEF" width="2" height="52"/>
<rect x="16" y="10" fill="#E6EBEF" width="2" height="52"/>
<rect x="24" y="14.77" fill="#E6EBEF" width="2" height="47.23"/>
<rect x="38" y="14.77" fill="#E6EBEF" width="2" height="47.23"/>
<rect x="46" y="10" fill="#E6EBEF" width="2" height="52"/>
<rect x="54" y="10" fill="#E6EBEF" width="2" height="52"/>
<polygon fill="#BEC3CF" points="48,10 16,10 20,2 44,2 "/>
<path fill="#018BC9" d="M36,24.838c-1.077-2.467-6.923-2.467-8,0C24,34,24,54,24,54l8,8l8-8C40,54,40,34,36,24.838z"/>
<path fill="#006DAE" d="M36,24.838c-0.904,0.894-7.202,0.99-8,0C26.109,22.492,23,19,23,19s7.848-5,9-5c1.154,0,9,5,9,5
	S38.174,22.689,36,24.838z"/>
<polygon opacity="0.2" fill="#41474A" points="18,10 22,27 32,14 "/>
<path fill="#FFFFFF" d="M20,2l-4,8c0,0,2,2,4,14.838L32,14L20,2z"/>
<polygon opacity="0.2" fill="#41474A" points="46,10 42,27 32,14 "/>
<path fill="#FFFFFF" d="M44,2l4,8c0,0-2,2-4,14.838L32,14L44,2z"/>
</svg>
