<?xml version="1.0" encoding="utf-8"?>
<!-- Generator: Adobe Illustrator 15.0.0, SVG Export Plug-In . SVG Version: 6.00 Build 0)  -->
<!DOCTYPE svg PUBLIC "-//W3C//DTD SVG 1.1//EN" "http://www.w3.org/Graphics/SVG/1.1/DTD/svg11.dtd">
<svg version="1.1" id="Layer_1" xmlns="http://www.w3.org/2000/svg" xmlns:xlink="http://www.w3.org/1999/xlink" x="0px" y="0px"
	 width="64px" height="64px" viewBox="0 0 64 64" enable-background="new 0 0 64 64" xml:space="preserve">
<path fill="#018BC9" d="M52.969,48.938c-3.6-25.138-38.339-25.138-41.939,0H52.969z"/>
<path fill="#0FB4D4" d="M32.859,33.267c0.953,2.864-12.293,7.444-13.246,4.58C18.36,34.103,31.615,29.522,32.859,33.267z"/>
<path fill="#F9B700" d="M54,60V50c6-10,8-15,8-20c0-7.571-10-2.001-14-2.001v4c4,0,10-3.999,10,0.001c0,2-2,6-7.307,12.965H39.27
	c0.781-1.248,1.797-3.051,1.797-3.98c0-3.505-5.355-3.505-5.355,0c0,0.93,1.018,2.732,1.799,3.98H32h-5.51
	c0.781-1.248,1.799-3.051,1.799-3.98c0-3.505-5.355-3.505-5.355,0c0,0.93,1.016,2.732,1.797,3.98H13.307C8,38,6,34,6,32
	c0-4,6-0.001,10-0.001v-4c-4,0-14-5.57-14,2.001c0,5,2,10,8,20v10c-0.658,0-0.658,2,0,2h22h22C54.658,62,54.658,60,54,60z"/>
<path fill="#FFE12C" d="M49.738,37.173c2.666-6.775,3.012-12.093-1.355-14.83c-4.871-3.053-9.059,0.444-11.254,0.444
	C37.889,21.186,38,19.034,38,18H26c0,1.034,0.11,3.186,0.871,4.787c-2.195,0-6.386-3.497-11.255-0.444
	c-4.367,2.737-4.02,8.055-1.354,14.83c-0.989,0.455-1.89,1.01-2.592,1.663c1.021,0.285,2.189,0.347,3.386,0.254
	c0.818,1.869,1.779,3.834,2.849,5.875h5.299c-1.408-2.375-2.648-4.768-3.635-7.039c0.984-0.452,1.879-1.005,2.578-1.664
	c-1.011-0.295-2.174-0.357-3.365-0.265c-1.879-4.977-2.242-9.087,0.177-10.59c2.096-1.301,7.349,3.061,10.648,3.061l-0.004,6.659
	c-1.147,0.198-2.23,0.531-3.125,1.041c0.896,0.513,1.979,0.846,3.125,1.042L29.6,44.965H34.4l-0.004-7.755
	c1.143-0.196,2.229-0.529,3.123-1.042c-0.893-0.51-1.977-0.843-3.125-1.041l-0.004-6.659c3.301,0,8.553-4.361,10.648-3.061
	c2.42,1.503,2.059,5.613,0.176,10.59c-1.188-0.093-2.352-0.03-3.363,0.265c0.699,0.659,1.594,1.212,2.576,1.664
	c-0.986,2.271-2.227,4.664-3.633,7.039h5.297c1.072-2.041,2.033-4.006,2.852-5.875c1.195,0.093,2.365,0.031,3.383-0.254
	C51.627,38.183,50.727,37.628,49.738,37.173z"/>
<polygon fill="#75D6FF" points="36,18 26,18 28,14 34,14 "/>
<polygon fill="#018BC9" points="32.97,14 34,18 38,18 36,14 "/>
<polygon fill="#0FB4D4" points="32.97,14 30.805,14 30,18 34,18 "/>
<rect x="30" y="52" fill="#FEEC9A" width="4" height="8"/>
<rect x="38" y="52" fill="#FFE12C" width="4" height="8"/>
<rect x="34" y="52" fill="#FFFFFF" width="4" height="8"/>
<rect x="46" y="52" fill="#FFE12C" width="4" height="8"/>
<rect x="14" y="52" fill="#FFE12C" width="6" height="8"/>
<path fill="#F9B700" d="M32.001,23.208c-1.696,0-3.235-0.66-4.37-1.73c0.273,2.216,2.128,3.93,4.376,3.93
	c2.255,0,4.114-1.722,4.378-3.945C35.25,22.542,33.705,23.208,32.001,23.208z"/>
<path fill="#018BC9" d="M54,50H10c-0.747,0-0.747,2,0,2h44C54.768,52,54.768,50,54,50z"/>
</svg>
