<?xml version="1.0" encoding="utf-8"?>
<!-- Generator: Adobe Illustrator 15.0.0, SVG Export Plug-In . SVG Version: 6.00 Build 0)  -->
<!DOCTYPE svg PUBLIC "-//W3C//DTD SVG 1.1//EN" "http://www.w3.org/Graphics/SVG/1.1/DTD/svg11.dtd">
<svg version="1.1" id="Layer_1" xmlns="http://www.w3.org/2000/svg" xmlns:xlink="http://www.w3.org/1999/xlink" x="0px" y="0px"
	 width="64px" height="64px" viewBox="0 0 64 64" enable-background="new 0 0 64 64" xml:space="preserve">
<polygon fill="#B00505" points="22.541,4.086 39.881,4.086 32.053,12.935 "/>
<polygon fill="#D47706" points="40.626,5.099 22.675,5.099 22.675,2 40.996,2 "/>
<path fill="#E81C27" d="M12.333,6.332l9.505-2.76l10.082,7.354l10.085-7.354l9.505,2.76c0,0,0.771,12.648,9.249,23.916
	c0,0-2.055,7.589-9.377,13.569c0,0-4.891-14.354-5.782-26.907c0,0-0.513,5.519-3.595,11.959c-2.285,4.774,8.326,17.213,7.579,30.877
	c0,0-8.48,2.254-17.664,2.254s-17.662-2.254-17.662-2.254c-0.748-13.674,9.869-26.094,7.58-30.877
	c-3.084-6.44-3.596-11.959-3.596-11.959c-0.891,12.552-5.781,26.907-5.781,26.907c-5.664-6.68-9.377-13.569-9.377-13.569
	C11.563,18.979,12.333,6.332,12.333,6.332z"/>
<polygon fill="#E5BC5E" points="29.736,12.723 32.053,10.73 22.675,2 20.358,3.993 "/>
<path fill="#FFE8BB" d="M23.022,22.924c-1.011-0.192-2.111-0.403-3.259-0.627c0.283-0.505,0.602-1.024,0.957-1.557
	c1.738-2.598,4.398-5.593,7.902-8.897C34.527,6.276,40.734,2.189,40.996,2l2.016,1.828c-0.063,0.045-6.303,4.565-12.061,9.994
	c-3.342,3.153-5.857,5.978-7.475,8.396C23.315,22.457,23.164,22.693,23.022,22.924z"/>
<path fill="#FFE8BB" d="M43.287,36.381c-3.679-0.615-8.365-0.855-12.411-0.855c-3.25,0-7.171,0.141-10.195,0.543
	c0.884-2.623,2.003-4.468,0.97-6.622c-1.311-2.738-2.166-5.314-2.717-7.384c4.131,0.533,8.487,0.817,12.986,0.817
	c4.502,0,8.856-0.285,12.987-0.817c-0.552,2.07-1.406,4.646-2.716,7.384C41.115,31.69,42.324,33.586,43.287,36.381z"/>
<polygon fill="#E5BC5E" points="42.227,29.995 20.093,27.267 19.302,23.218 44.006,26.263 "/>
<rect x="21.754" y="36.002" fill="#FFE8BB" width="3.813" height="25.998"/>
<polygon fill="#E5BC5E" points="42.91,34.689 20.181,36.576 21.418,32.579 41.973,30.834 "/>
<polygon fill="#FFE8BB" points="13.371,40.941 12.35,44.801 2,31.469 4.007,28.971 "/>
<polygon fill="#FFE8BB" points="50.563,41.248 51.652,45.053 62,31.72 60.01,29.222 "/>
<rect x="40.461" y="24.138" fill="#FFE8BB" width="1.658" height="25.999"/>
<rect x="38.224" y="27.265" fill="#FFE8BB" width="1.657" height="25.999"/>
<rect x="39.052" y="25.141" fill="#E5BC5E" width="1.657" height="25.998"/>
<path fill="#E5BC5E" d="M42.471,24.68c0,1.583-2.01,2.867-2.01,2.867s-2.008-1.285-2.008-2.867c0-1.584,0.898-0.678,2.008-0.678
	C41.571,24.002,42.471,23.095,42.471,24.68z"/>
<path fill="#D47706" d="M39.738,24.84c1.084,1.159,0.49,3.338,0.49,3.338s-2.351,0.298-3.433-0.861
	c-1.084-1.16,0.196-1.05,1.009-1.735C38.617,24.898,38.656,23.68,39.738,24.84z"/>
<path fill="#FFE8BB" d="M43.109,27.329c-0.963,0.933-2.928,0.587-2.928,0.587s-0.403-1.859,0.562-2.791
	c0.966-0.933,0.941,0.094,1.595,0.703C42.992,26.438,44.074,26.396,43.109,27.329z"/>
</svg>
