<?xml version="1.0" encoding="utf-8"?>
<!-- Generator: Adobe Illustrator 15.0.0, SVG Export Plug-In . SVG Version: 6.00 Build 0)  -->
<!DOCTYPE svg PUBLIC "-//W3C//DTD SVG 1.1//EN" "http://www.w3.org/Graphics/SVG/1.1/DTD/svg11.dtd">
<svg version="1.1" id="Layer_1" xmlns="http://www.w3.org/2000/svg" xmlns:xlink="http://www.w3.org/1999/xlink" x="0px" y="0px"
	 width="64px" height="64px" viewBox="0 0 64 64" enable-background="new 0 0 64 64" xml:space="preserve">
<path fill="#E84D88" d="M3.594,24.587l-1.027-11.98c0,0,8.111-3.341,11-3.827c4.537-0.763,13.145-1.913,18.436-1.913
	c5.289,0,13.896,1.15,18.434,1.913c2.889,0.486,11,3.827,11,3.827l-1.027,11.98L49.1,25.462
	c-0.191,12.799,1.758,28.615,2.418,33.843c0,0-8.355,0.336-19.508,0.439c-0.002,0-0.006,0-0.008,0c-0.004,0-0.008,0.002-0.01,0
	c-11.149-0.104-19.507-0.439-19.507-0.439c0.658-5.225,2.608-21.042,2.416-33.843L3.594,24.587z"/>
<rect x="31.992" y="13.585" fill="#D63C76" width="1.098" height="46.16"/>
<rect x="26.612" y="7.247" fill="#D63C76" width="10.778" height="6.522"/>
<rect x="22.438" y="2" fill="#E84D88" width="19.127" height="6.143"/>
<polygon fill="#F6BEC1" points="41.564,2 45.191,7.786 38.289,18.616 32.002,13.793 "/>
<polygon fill="#F6BEC1" points="22.438,2 18.811,7.786 25.712,18.616 32.002,13.793 "/>
<ellipse fill="#D63C76" cx="29.126" cy="21.123" rx="2.444" ry="2.475"/>
<ellipse fill="#FDE0DA" cx="29.126" cy="20.834" rx="2.346" ry="2.185"/>
<ellipse fill="#D63C76" cx="29.126" cy="29.096" rx="2.444" ry="2.476"/>
<ellipse fill="#FDE0DA" cx="29.126" cy="28.807" rx="2.346" ry="2.185"/>
<ellipse fill="#D63C76" cx="29.126" cy="37.069" rx="2.444" ry="2.475"/>
<ellipse fill="#FDE0DA" cx="29.126" cy="36.78" rx="2.346" ry="2.186"/>
<ellipse fill="#D63C76" cx="29.126" cy="45.042" rx="2.444" ry="2.475"/>
<ellipse fill="#FDE0DA" cx="29.126" cy="44.753" rx="2.346" ry="2.186"/>
<ellipse fill="#D63C76" cx="29.126" cy="53.015" rx="2.444" ry="2.476"/>
<ellipse fill="#FDE0DA" cx="29.126" cy="52.726" rx="2.346" ry="2.186"/>
<polygon fill="#F6BEC1" points="62,12.409 58.879,11.393 57.766,25.026 61.102,24.742 "/>
<polygon fill="#F6BEC1" points="2,12.409 5.123,11.393 6.233,25.026 2.898,24.742 "/>
<path fill="#F6BEC1" d="M31.992,57.36c0.002,0.003,0.006,0,0.01,0c0.002,0,0.006,0,0.008,0c10.059-0.153,18.014-1.547,19.279-2.385
	c0.063,1.799,0.139,3.322,0.229,4.484c0,0-8.355,2.369-19.508,2.539c-0.002,0-0.006,0-0.008,0c-0.004,0-0.008,0.002-0.01,0
	c-11.149-0.17-19.507-2.539-19.507-2.539c0.089-1.161,0.165-2.686,0.228-4.484C13.978,55.813,21.934,57.207,31.992,57.36z"/>
<rect x="31.992" y="57.38" fill="#E84D88" width="1.098" height="4.62"/>
</svg>
