<?xml version="1.0" encoding="utf-8"?>
<!-- Generator: Adobe Illustrator 15.0.0, SVG Export Plug-In . SVG Version: 6.00 Build 0)  -->
<!DOCTYPE svg PUBLIC "-//W3C//DTD SVG 1.1//EN" "http://www.w3.org/Graphics/SVG/1.1/DTD/svg11.dtd">
<svg version="1.1" id="Layer_1" xmlns="http://www.w3.org/2000/svg" xmlns:xlink="http://www.w3.org/1999/xlink" x="0px" y="0px"
	 width="64px" height="64px" viewBox="0 0 64 64" enable-background="new 0 0 64 64" xml:space="preserve">
<ellipse fill="#FED0AC" cx="32" cy="40.852" rx="30" ry="13"/>
<path fill="#EBBB96" d="M40.587,44.85l7.582-14.95C56.487,32.21,62,36.252,62,40.852c0,5.395-7.228,9.957-18.029,11.924
	C43.971,52.775,43.394,49.556,40.587,44.85z"/>
<path fill="#FFE1BD" d="M14,37.072c0,11.639,36,11.639,36,0C50,25.436,41.941,16,32,16S14,25.436,14,37.072z"/>
<path fill="#F5CFA0" d="M37.682,17.078C44.838,19.864,50,27.761,50,37.074c0,2.575-1.766,4.58-4.512,6.016
	C46.39,32.553,43.664,22.877,37.682,17.078z"/>
<path fill="#E84D88" d="M49.751,33.592C49.912,34.725,50,35.887,50,37.072c0,11.639-36,11.639-36,0c0-1.186,0.088-2.348,0.249-3.48
	C17.253,43.079,46.747,43.079,49.751,33.592z"/>
<path fill="#B82C6F" d="M45.639,37.916c2.064-1.111,3.551-2.552,4.112-4.324C49.912,34.725,50,35.887,50,37.072
	c0,2.576-1.836,6.018-9.413,7.777C40.587,44.85,44.977,41.493,45.639,37.916z"/>
<path fill="#D74189" d="M26.611,40.322c0,0,1.969,7.562,9.408,10.35l-5.624,1.801l1.842,5.955c0,0-7.822-5.318-11.241-16.313
	L26.611,40.322z"/>
<path fill="#FF7090" d="M21.096,42.445c0.679,2.187,3.565,3.598,6.414,3.139l2.281-0.365c2.848-0.461,4.379-2.016,3.401-3.455
	c-0.978-1.444-1.789-4.055-1.806-5.805c-0.014-1.75-2.148-2.131-4.74-0.849l-2.075,1.029C21.98,37.423,20.416,40.262,21.096,42.445z
	"/>
<path fill="#D74189" d="M20.941,41.991c0.285,0.696,1.396,0.304,2.569-0.555l0.671-0.489c1.175-0.855,0.971-1.35-0.449-1.092
	L22.922,40C21.501,40.258,20.656,41.294,20.941,41.991z"/>
<path fill="#8C0B5E" d="M32.602,42.212c0.282,0.154,0.109,0.47,0.069,0.6c-0.124,0.392-0.686,0.945-1.892,1.331
	c-0.348,0.111-0.723,0.199-1.125,0.264l-2.278,0.367c-1.596,0.258-3.229-0.156-4.326-0.97C23.05,43.804,29.25,40.377,32.602,42.212z
	"/>
<path fill="#D74189" d="M15.448,43.896c0,0,2.665,7.338-1.851,13.954l5.626-1.8L21.077,62c0,0,3.401-8.91-0.017-19.904
	L15.448,43.896z"/>
<path fill="#FF7090" d="M21.166,42.424c0.679,2.186-0.885,5.021-3.477,6.306l-2.075,1.026c-2.593,1.284-4.725,0.901-4.741-0.847
	c-0.016-1.751-0.826-4.363-1.806-5.804c-0.975-1.442,0.555-2.996,3.403-3.456l2.28-0.366C17.6,38.826,20.485,40.239,21.166,42.424z"
	/>
<path fill="#D74189" d="M21.035,41.961c0.16,0.736-0.973,1.061-2.417,1.043l-0.827-0.012c-1.445-0.016-1.56-0.539-0.25-1.156
	l0.746-0.352C19.594,40.869,20.875,41.225,21.035,41.961z"/>
<path fill="#8C0B5E" d="M11.611,48.932c-0.143,0.291,0.176,0.448,0.284,0.531c0.322,0.248,1.097,0.377,2.302-0.011
	c0.346-0.11,0.706-0.258,1.068-0.438l2.074-1.028c1.451-0.718,2.557-2.008,2.994-3.314C20.334,44.672,13.317,45.479,11.611,48.932z"
	/>
<path fill="#FF7090" d="M18.979,43.121c0.631,1.363,1.962,2.22,2.958,1.899c0.997-0.319,1.603-1.793,1.351-3.278l-0.087-0.502
	c-0.255-1.485-1.583-2.326-2.958-1.887l-0.124,0.041c-1.374,0.439-1.987,1.902-1.354,3.266L18.979,43.121z"/>
<path fill="#D74189" d="M21.287,42.93c0.906-0.291,1.49-1.536,1.396-2.879c0.254,0.319,0.437,0.721,0.514,1.18l0.091,0.512
	c0.252,1.485-0.354,2.959-1.351,3.278c-0.996,0.32-2.327-0.536-2.958-1.899l-0.219-0.473c-0.195-0.42-0.271-0.854-0.245-1.263
	C19.198,42.541,20.38,43.219,21.287,42.93z"/>
</svg>
