<?xml version="1.0" encoding="utf-8"?>
<!-- Generator: Adobe Illustrator 15.0.0, SVG Export Plug-In . SVG Version: 6.00 Build 0)  -->
<!DOCTYPE svg PUBLIC "-//W3C//DTD SVG 1.1//EN" "http://www.w3.org/Graphics/SVG/1.1/DTD/svg11.dtd">
<svg version="1.1" id="Layer_1" xmlns="http://www.w3.org/2000/svg" xmlns:xlink="http://www.w3.org/1999/xlink" x="0px" y="0px"
	 width="64px" height="64px" viewBox="0 0 64 64" enable-background="new 0 0 64 64" xml:space="preserve">
<path fill="#529320" d="M11.875,17.344l-1.607-0.415c0.012-0.041,1.26-1.553,1.26-7.413c0-4.183-1.252-7.071-1.266-7.123L11.879,2
	c0.051,0.218,1.311,3.137,1.311,7.517C13.189,15.594,11.928,17.147,11.875,17.344z"/>
<path fill="#529320" d="M52.129,17.344l1.611-0.415c-0.018-0.041-1.262-1.553-1.262-7.413c0-4.183,1.246-7.071,1.264-7.123L52.127,2
	c-0.057,0.218-1.313,3.137-1.313,7.517C50.814,15.594,52.078,17.147,52.129,17.344z"/>
<rect x="31.121" y="26.838" fill="#529320" width="1.76" height="1.108"/>
<path fill="#7AB51D" d="M53.705,16.35c1.732,1.243,1.385,6.336,0.902,8.387c-0.438,1.853-2.354,5.632-4.105,6.419
	c-4.088,1.821-14.814,0.601-17.729-2.765c-0.342-0.393-0.268-1.625,0-2.071c1.719-2.868,7.828-6.533,10.916-7.9
	C46.025,17.396,51.635,14.87,53.705,16.35z"/>
<path fill="#7AB51D" d="M52.389,41.572L51.449,40c0,0-9.254,2.294-19.449,2.294C21.807,42.294,12.551,40,12.551,40l-0.939,1.572
	c8.332,0,15.396,10.096,17.887,20.329C30.324,61.971,31.158,62,32,62c0.844,0,1.68-0.029,2.506-0.099
	C36.992,51.668,44.059,41.572,52.389,41.572z"/>
<path fill="#7AB51D" d="M10.299,16.35c-1.734,1.243-1.391,6.336-0.904,8.387c0.436,1.853,2.352,5.632,4.105,6.419
	c4.088,1.821,14.814,0.601,17.729-2.765c0.342-0.393,0.27-1.625,0-2.071c-1.717-2.868-7.828-6.533-10.916-7.9
	C17.977,17.396,12.367,14.87,10.299,16.35z"/>
<path fill="#E5EFCD" d="M9.559,17.344l21.883,9.787C22.462,19.134,9.559,17.344,9.559,17.344z"/>
<path fill="#E5EFCD" d="M31.441,27.741L9.009,21.447C12.296,24.594,23.671,28.378,31.441,27.741z"/>
<path fill="#E5EFCD" d="M31.229,28.392l-20.257-0.013C14.588,29.468,24.333,31.011,31.229,28.392z"/>
<path fill="#E5EFCD" d="M54.442,17.344L32.56,27.131C41.54,19.134,54.442,17.344,54.442,17.344z"/>
<path fill="#E5EFCD" d="M32.56,27.741l22.434-6.294C51.706,24.594,40.331,28.378,32.56,27.741z"/>
<path fill="#E5EFCD" d="M32.772,28.392l20.258-0.013C49.413,29.468,39.669,31.011,32.772,28.392z"/>
<path fill="#E5EFCD" d="M51.449,40.269c-15.215,7.572-23.87,7.486-38.898,0C27.462,45.415,38.587,44.353,51.449,40.269z"/>
<path fill="#E5EFCD" d="M41.307,47.838c-5.539,3.991-12.37,4.537-18.555,0.07C28.524,49.443,36.243,49.071,41.307,47.838z"/>
<path fill="#E5EFCD" d="M38.235,52.367c-3.318,2.889-8.515,3.448-12.469,0C29.212,53.558,35.149,53.558,38.235,52.367z"/>
<path fill="#E5EFCD" d="M35.967,57.144c-1.921,2.641-6.147,2.466-7.934,0C30.15,58.101,33.671,58.101,35.967,57.144z"/>
</svg>
