<?xml version="1.0" encoding="utf-8"?>
<!-- Generator: Adobe Illustrator 15.0.0, SVG Export Plug-In . SVG Version: 6.00 Build 0)  -->
<!DOCTYPE svg PUBLIC "-//W3C//DTD SVG 1.1//EN" "http://www.w3.org/Graphics/SVG/1.1/DTD/svg11.dtd">
<svg version="1.1" id="Layer_1" xmlns="http://www.w3.org/2000/svg" xmlns:xlink="http://www.w3.org/1999/xlink" x="0px" y="0px"
	 width="64px" height="64px" viewBox="0 0 64 64" enable-background="new 0 0 64 64" xml:space="preserve">
<path fill="#006DAE" d="M11.434,51.871c2.5-1.494,12.877-5.441,12.877-5.441H39.77c0,0,10.369,3.938,12.855,5.438
	C56.24,54.041,57,62,57,62H7C7,62,7.807,54.035,11.434,51.871z"/>
<polygon fill="#E6A400" points="25.023,49.658 32,54.658 38.977,49.658 38.977,40 25.023,40 "/>
<rect x="17.027" y="56.828" fill="#FFE12C" width="9.09" height="1"/>
<rect x="17.027" y="60" fill="#014D87" width="9.09" height="2"/>
<rect x="32" y="53.922" fill="#014D87" width="3.268" height="8.078"/>
<polygon fill="#018BC9" points="26.117,58.793 17.027,58.793 17.027,60.109 18.043,60.109 21.572,61.51 25.102,60.109 
	26.117,60.109 "/>
<path fill="#FFE12C" d="M40.354,56.23l0.783-0.836c1.02,0.629,1.865-0.145,1.865-0.145s0.848,0.773,1.865,0.145l0.781,0.836
	c-1.309,0.734,0.457,1.926,0.039,3.215c-0.582,1.789-1.977,1.594-2.686,2.305c-0.711-0.711-2.102-0.516-2.684-2.305
	C39.9,58.156,41.668,56.965,40.354,56.23z"/>
<path fill="#018BC9" d="M24.033,54.465c0,0-3.357-4.066-0.846-8.16c0.428-0.691,1.826-1.846,1.826-1.846
	c0,2.766,6.986,9.199,6.986,9.199v1.17c0,0-0.971-1.203-3.93-0.613c0,0-0.309-1.215,0.105-2.303
	C28.176,51.912,25.986,52.354,24.033,54.465z"/>
<path fill="#018BC9" d="M39.965,54.465c0,0,3.359-4.066,0.848-8.16c-0.428-0.691-1.826-1.846-1.826-1.846
	c0,2.766-6.986,9.199-6.986,9.199v2.17c0,0,0.969-2.203,3.928-1.613c0,0,0.309-1.215-0.104-2.303
	C35.824,51.912,38.012,52.354,39.965,54.465z"/>
<path fill="#006DAE" d="M34.633,59c0,1.334-2,1.334-2,0S34.633,57.666,34.633,59z"/>
<path fill="#014D87" d="M42.703,47.328l0.932,3.057c0,0,7.932,3.385,9.801,4.273c1.855,0.883,1.104-1.963-0.354-2.992
	C52.537,51.279,45.932,48.283,42.703,47.328z"/>
<path fill="#006DAE" d="M46.074,49.541c0.613,1.219-1.137,1.158-1.799-0.041C43.541,48.166,45.436,48.27,46.074,49.541z"/>
<path fill="#014D87" d="M21.297,47.328l-0.934,3.057c0,0-7.93,3.385-9.801,4.273c-1.854,0.883-1.104-1.963,0.355-2.992
	C11.463,51.279,18.066,48.283,21.297,47.328z"/>
<path fill="#006DAE" d="M17.926,49.541c-0.613,1.219,1.137,1.158,1.799-0.041C20.459,48.166,18.564,48.27,17.926,49.541z"/>
<path fill="#E6A400" d="M45.002,58.793c0,2-4,2-4,0S45.002,56.793,45.002,58.793z"/>
<rect x="41.502" y="56.328" fill="#E6A400" width="3" height="0.5"/>
<path fill="#014D87" d="M12.979,62c0.531-2.006-0.094-5.057-0.758-6.736C11.602,53.699,11.836,60.896,12.979,62z"/>
<path fill="#014D87" d="M51.779,55.264c-0.666,1.68-1.291,4.73-0.758,6.736C52.164,60.896,52.398,53.699,51.779,55.264z"/>
<path fill="#EA8800" d="M32,7.591c-17.01,0-17.01,10.079-17.01,22.68h34.018C49.008,17.67,49.008,7.591,32,7.591z"/>
<path fill="#F5BC2C" d="M18.627,35.221c1.807-1.683,0.167-8.283-2.165-8.681C11.484,25.691,14.728,38.85,18.627,35.221z"/>
<path fill="#F5BC2C" d="M45.373,35.221c-1.807-1.683-0.167-8.283,2.164-8.681C52.516,25.691,49.273,38.849,45.373,35.221z"/>
<path fill="#FDCA47" d="M47.059,27.146c0-13.835-5.912-9.32-15.058-9.32c-9.144,0-15.059-4.515-15.059,9.32
	c0,0,0.032,3.911,1.007,9.049C19.24,42.995,26.478,47.91,32,47.91c5.523,0,12.764-4.915,14.051-11.715
	C47.026,31.056,47.059,27.146,47.059,27.146z"/>
<path fill="#D99025" d="M32,38.767c-2.696-0.716-6.693,0.339-6.693,0.339c1.523,1.49,2.638,3.427,6.693,3.427
	c4.647,0,5.436-2.198,6.693-3.427C38.693,39.105,34.692,38.049,32,38.767z"/>
<path fill="#FFFFFF" d="M26.25,39.16c2.864,2.662,8.655,2.68,11.538,0C34.73,39.305,29.326,39.307,26.25,39.16z"/>
<path fill="#F5F5F5" d="M44.382,28.181c-1.612,4.196-8.169,3.581-9.37,0.646C35.924,24.107,43.496,23.703,44.382,28.181z"/>
<path fill="#45332C" d="M36.686,27.731c0,3.703,5.354,3.703,5.354,0C42.039,24.295,36.686,24.295,36.686,27.731z"/>
<path fill="#45332C" d="M44.382,28.148c0-4.507-9.37-4.507-9.37,0.714C36.351,24.579,43.043,24.579,44.382,28.148z"/>
<path fill="#F5F5F5" d="M19.618,28.181c1.612,4.196,8.169,3.581,9.37,0.646C28.076,24.107,20.506,23.703,19.618,28.181z"/>
<path fill="#45332C" d="M27.314,27.731c0,3.703-5.354,3.703-5.354,0C21.961,24.295,27.314,24.295,27.314,27.731z"/>
<path fill="#45332C" d="M19.618,28.148c0-4.505,9.37-4.505,9.37,0.713C27.65,24.579,20.957,24.579,19.618,28.148z"/>
<path fill="#F5F5F5" d="M37.014,26.833c0,0.925,1.34,0.925,1.34,0C38.354,25.974,37.014,25.974,37.014,26.833z"/>
<path fill="#F5F5F5" d="M23.796,26.645c0,0.926-1.338,0.926-1.338,0C22.458,25.786,23.796,25.786,23.796,26.645z"/>
<path fill="#E6A400" d="M35.346,34.602c0,2.18-6.691,2.18-6.691,0C28.654,34.104,35.346,34.104,35.346,34.602z"/>
<path opacity="0.2" d="M15.191,22.131c0,0-0.064,0.454-0.064,0.948c1.277,1.089,5.148,2.739,16.871,2.739
	c11.734,0,15.6-1.652,16.875-2.742c0-0.404-0.068-0.943-0.068-0.943L15.191,22.131z"/>
<path fill="#014D87" d="M52.504,15.123c-4.316-3.639-4.807-8.914-6.553-9.201C35.08,4.139,34.709,2,32,2
	c-2.713,0-3.08,2.139-13.951,3.922c-1.744,0.287-2.236,5.563-6.555,9.201c-2.08,1.756,2.961,3.309,4.766,6.443
	c0.975,1.691,30.508,1.691,31.479,0C49.545,18.432,54.588,16.879,52.504,15.123z"/>
<path fill="#006DAE" d="M32,12.951c0,0-13.555,0-17.5,3.738v3.508H32h17.5v-3.508C45.555,12.951,32,12.951,32,12.951z"/>
<path fill="#302C3B" d="M32,18.525c-16.17,0-17.5,2.617-17.5,2.617s0,3.676,17.5,3.676s17.5-3.676,17.5-3.676
	S48.168,18.525,32,18.525z"/>
<path fill="#FFE12C" d="M32,17.525c0,0-10.68-0.205-17.5,2.021v1.596c0,0,2.828-1.93,17.5-1.93c14.674,0,17.5,1.93,17.5,1.93v-1.596
	C42.68,17.32,32,17.525,32,17.525z"/>
<path fill="#FFE12C" d="M36.045,7.031L34.85,5.6C33.291,6.678,32,5.354,32,5.354S30.707,6.678,29.152,5.6l-1.195,1.432
	c2.002,1.26-0.695,3.297-0.059,5.502c0.889,3.064,3.018,2.73,4.102,3.945c1.084-1.215,3.213-0.881,4.1-3.945
	C36.74,10.328,34.041,8.291,36.045,7.031z"/>
</svg>
