<?xml version="1.0" encoding="utf-8"?>
<!-- Generator: Adobe Illustrator 15.0.0, SVG Export Plug-In . SVG Version: 6.00 Build 0)  -->
<!DOCTYPE svg PUBLIC "-//W3C//DTD SVG 1.1//EN" "http://www.w3.org/Graphics/SVG/1.1/DTD/svg11.dtd">
<svg version="1.1" id="Layer_1" xmlns="http://www.w3.org/2000/svg" xmlns:xlink="http://www.w3.org/1999/xlink" x="0px" y="0px"
	 width="64px" height="64px" viewBox="0 0 64 64" enable-background="new 0 0 64 64" xml:space="preserve">
<path fill="#018BC9" d="M25.691,34.967c-0.634-1.047-4.029-2.783-4.029-2.783h-9.275c0,0-5.545,2.746-7.045,3.785
	C2.834,37.705,2.332,43.07,2,48.742L3,62h26C29,62,29.217,40.791,25.691,34.967z"/>
<path fill="#E6A400" d="M21.432,33.189c0-0.816,0-4.438,0-4.438h-8.863c0,0,0,3.568,0,4.438
	C12.568,36.781,21.432,36.781,21.432,33.189z"/>
<rect x="2" y="48.764" fill="#FDCA47" width="4.091" height="13.236"/>
<path fill="#EA8800" d="M17,2C4.029,2,4.026,9.805,4.026,19.563h25.946C29.973,9.805,29.969,2,17,2z"/>
<path fill="#F5BC2C" d="M6.602,23.357c1.406-1.309,0.13-6.441-1.682-6.75C1.048,15.947,3.569,26.18,6.602,23.357z"/>
<path fill="#F5BC2C" d="M27.397,23.357c-1.405-1.309-0.13-6.441,1.683-6.75C32.951,15.947,30.43,26.178,27.397,23.357z"/>
<path fill="#FDCA47" d="M17,7.205c-13.551,0-8.091,1.568-11.708,9.527c0,0,0.025,3.65,0.783,7.566
	c0.977,5.049,6.657,8.924,10.925,8.924s9.948-3.875,10.925-8.924c0.758-3.916,0.783-7.566,0.783-7.566
	C25.091,8.773,30.551,7.205,17,7.205z"/>
<path fill="#F5F5F5" d="M26.627,17.883c-1.253,3.264-6.352,2.785-7.285,0.502C20.051,14.717,25.938,14.402,26.627,17.883z"/>
<path fill="#45332C" d="M20.643,17.535c0,2.879,4.163,2.879,4.163,0C24.806,14.861,20.643,14.861,20.643,17.535z"/>
<path fill="#45332C" d="M26.627,17.859c0-3.506-7.285-3.506-7.285,0.555C20.382,15.084,25.586,15.084,26.627,17.859z"/>
<path fill="#F5F5F5" d="M7.373,17.883c1.253,3.264,6.351,2.785,7.285,0.502C13.948,14.717,8.063,14.402,7.373,17.883z"/>
<path fill="#45332C" d="M13.357,17.535c0,2.879-4.163,2.879-4.163,0C9.194,14.863,13.357,14.863,13.357,17.535z"/>
<path fill="#45332C" d="M7.373,17.859c0-3.504,7.285-3.504,7.285,0.553C13.618,15.084,8.413,15.084,7.373,17.859z"/>
<path fill="#D99025" d="M17,26.113c-2.097-0.555-5.204,0.264-5.204,0.264c1.184,1.16,2.051,2.666,5.204,2.666
	c3.613,0,4.226-1.709,5.203-2.666C22.203,26.377,19.093,25.557,17,26.113z"/>
<path fill="#FFFFFF" d="M12.527,26.42c2.228,2.07,6.73,2.084,8.972,0C19.123,26.533,14.92,26.533,12.527,26.42z"/>
<path fill="#E6A400" d="M26.35,14.66c-2.236-0.922-5.298-1.102-6.869-0.488c-0.332,0.131-0.321,0.924-0.028,0.844
	c2.253-0.613,4.848-0.66,6.98,0.082C26.72,15.197,26.685,14.797,26.35,14.66z"/>
<path fill="#E6A400" d="M7.65,14.66c2.235-0.922,5.296-1.102,6.868-0.488c0.331,0.131,0.321,0.924,0.027,0.844
	c-2.253-0.613-4.847-0.66-6.979,0.082C7.279,15.197,7.314,14.797,7.65,14.66z"/>
<path fill="#D67C00" d="M23.258,26.951c-2.44-2.568-10.027-2.59-12.489,0C14.078,26.771,19.928,26.771,23.258,26.951z"/>
<path fill="#EA8800" d="M23.258,26.951c-3.101-3.262-9.369-3.283-12.489,0C11.31,26.268,22.561,26.078,23.258,26.951z"/>
<path fill="#EA8800" d="M27.36,6.01c4.833,6.627-17.6,4.898-22.266,3.93C5.095,9.939,11.947,0.594,27.36,6.01z"/>
<path fill="#D67C00" d="M5.095,9.939c6.701,1.41,27.189,1.217,20.741-5.773C36.35,12.555,10.769,13.303,5.095,9.939z"/>
<path fill="#E6A400" d="M19.602,22.877c0,1.693-5.204,1.693-5.204,0C14.397,22.488,19.602,22.488,19.602,22.877z"/>
<path fill="#006DAE" d="M58.691,35.967c-1.491-1.043-7.029-3.783-7.029-3.783h-9.275c0,0-3.408,1.734-4.045,2.785
	C34.81,40.789,35,62,35,62h26l1-13.258C61.688,43.082,61.175,37.701,58.691,35.967z"/>
<path fill="#E6A400" d="M51.432,33.189c0-0.816,0-4.438,0-4.438h-8.863c0,0,0,3.568,0,4.438
	C42.568,36.781,51.432,36.781,51.432,33.189z"/>
<rect x="57.909" y="48.764" fill="#FDCA47" width="4.091" height="13.236"/>
<path fill="#4ABDFF" d="M41.386,61.996c-1.197-0.832-5.647-3.025-5.647-3.025h-7.451c0,0-4.455,2.197-5.659,3.029L41.386,61.996z"/>
<path fill="#E6A400" d="M35.538,59.076c0-0.652,0-3.551,0-3.551h-7.09c0,0,0,2.855,0,3.551
	C28.448,61.949,35.538,61.949,35.538,59.076z"/>
<path fill="#EA8800" d="M32,35.818c-11.478,0-10.371,9.201-10.371,13.5h20.742C42.371,45.02,43.478,35.818,32,35.818z"/>
<path fill="#F5BC2C" d="M22.821,48.041c-3.578-0.471-1.248,6.844,1.555,4.826C25.674,51.932,24.495,48.262,22.821,48.041z"/>
<path fill="#F5BC2C" d="M41.18,48.041c-1.675,0.221-2.854,3.891-1.555,4.826C42.427,54.883,44.757,47.57,41.18,48.041z"/>
<path fill="#FDCA47" d="M41.229,47.41c0-6.135-3.624-4.77-9.228-4.77s-9.229-1.365-9.229,4.77c0,0,0.02,2.338,0.617,5.41
	c0.979,5.027,5.039,6.998,8.61,6.998s7.634-1.971,8.61-6.998C41.208,49.746,41.229,47.41,41.229,47.41z"/>
<path fill="#EA8800" d="M31.811,40.338c-1.677,2.988-7.955,4.855-10.113,4.662C23.651,43.023,24.52,37.936,31.811,40.338z"/>
<path fill="#D67C00" d="M21.697,45c2.748-0.719,6.316-2.182,10.113-4.662C30.134,43.326,24.62,45.684,21.697,45z"/>
<path fill="#EA8800" d="M40.28,40.176c-2.371,3.559-11.254,5.785-14.307,5.553C28.737,43.375,29.966,37.316,40.28,40.176z"/>
<path fill="#D67C00" d="M25.974,45.729c7.297-2.027,14.307-5.553,14.307-5.553C37.909,43.734,31.297,46.244,25.974,45.729z"/>
<path fill="#EA8800" d="M40.626,39.357c2.844,4.633-4.559,6.531-7.617,6.346C35.751,43.895,37.591,39.213,40.626,39.357z"/>
<path fill="#D67C00" d="M33.009,45.703c3.678-1.688,9.283-2.033,7.617-6.346C43.47,43.99,36.252,46.119,33.009,45.703z"/>
<path fill="#F5F5F5" d="M39.399,49.725c-0.963,2.51-4.881,2.141-5.6,0.387C34.345,47.291,38.87,47.049,39.399,49.725z"/>
<path fill="#45332C" d="M34.8,49.457c0,2.213,3.2,2.213,3.2,0C38,47.402,34.8,47.402,34.8,49.457z"/>
<path fill="#45332C" d="M39.399,49.705c0-2.693-5.6-2.693-5.6,0.428C34.601,47.572,38.601,47.572,39.399,49.705z"/>
<path fill="#F5F5F5" d="M24.601,49.725c0.963,2.51,4.882,2.141,5.6,0.387C29.655,47.291,25.13,47.049,24.601,49.725z"/>
<path fill="#45332C" d="M29.2,49.457c0,2.213-3.2,2.213-3.2,0C26,47.402,29.2,47.402,29.2,49.457z"/>
<path fill="#45332C" d="M24.601,49.705c0-2.691,5.6-2.691,5.6,0.426C29.401,47.572,25.399,47.572,24.601,49.705z"/>
<path fill="#D99025" d="M32,55.252c-1.611-0.428-4,0.203-4,0.203c0.91,0.891,1.577,2.047,4,2.047c2.777,0,3.249-1.313,4-2.047
	C36,55.455,33.609,54.824,32,55.252z"/>
<path fill="#FFFFFF" d="M28.563,55.486c1.711,1.592,5.172,1.602,6.896,0C33.632,55.574,30.401,55.574,28.563,55.486z"/>
<path fill="#E6A400" d="M39.187,47.389c-1.719-0.709-4.071-0.848-5.279-0.375c-0.256,0.1-0.247,0.711-0.021,0.65
	c1.732-0.473,3.726-0.51,5.365,0.061C39.472,47.803,39.444,47.494,39.187,47.389z"/>
<path fill="#E6A400" d="M24.813,47.389c1.719-0.709,4.071-0.848,5.279-0.375c0.255,0.1,0.247,0.711,0.021,0.65
	c-1.732-0.473-3.726-0.51-5.365,0.061C24.528,47.803,24.556,47.494,24.813,47.389z"/>
<path fill="#E6A400" d="M34,53.34c0,1.303-4,1.303-4,0C30,53.043,34,53.043,34,53.34z"/>
<path fill="#EA8800" d="M47,2C34.03,2,34.026,9.806,34.026,19.563h25.946C59.973,9.806,59.969,2,47,2z"/>
<path fill="#F5BC2C" d="M36.602,23.357c1.406-1.309,0.131-6.44-1.682-6.75C31.048,15.948,33.57,26.179,36.602,23.357z"/>
<path fill="#F5BC2C" d="M57.397,23.357c-1.405-1.309-0.13-6.44,1.683-6.75C62.951,15.948,60.43,26.178,57.397,23.357z"/>
<path fill="#FDCA47" d="M47,7.204c-13.551,0-8.09,1.57-11.709,9.529c0,0,0.027,3.65,0.784,7.565
	c0.978,5.048,6.657,8.924,10.925,8.924s9.948-3.876,10.925-8.924c0.758-3.915,0.784-7.565,0.784-7.565
	C55.091,8.774,60.551,7.204,47,7.204z"/>
<path fill="#F5F5F5" d="M56.627,17.883c-1.254,3.264-6.352,2.784-7.285,0.502C50.051,14.716,55.938,14.401,56.627,17.883z"/>
<path fill="#45332C" d="M50.643,17.534c0,2.879,4.162,2.879,4.162,0C54.805,14.862,50.643,14.862,50.643,17.534z"/>
<path fill="#45332C" d="M56.627,17.858c0-3.504-7.285-3.504-7.285,0.555C50.382,15.083,55.586,15.083,56.627,17.858z"/>
<path fill="#F5F5F5" d="M37.373,17.883c1.254,3.264,6.352,2.784,7.285,0.502C43.949,14.716,38.063,14.401,37.373,17.883z"/>
<path fill="#45332C" d="M43.357,17.534c0,2.879-4.164,2.879-4.164,0C39.193,14.862,43.357,14.862,43.357,17.534z"/>
<path fill="#45332C" d="M37.373,17.858c0-3.504,7.285-3.504,7.285,0.554C43.618,15.083,38.414,15.083,37.373,17.858z"/>
<path fill="#E6A400" d="M56.35,14.66c-2.236-0.922-5.297-1.102-6.869-0.487c-0.332,0.129-0.321,0.924-0.027,0.844
	c2.252-0.614,4.846-0.661,6.979,0.081C56.719,15.198,56.685,14.798,56.35,14.66z"/>
<path fill="#E6A400" d="M37.65,14.66c2.236-0.922,5.297-1.102,6.868-0.487c0.331,0.129,0.321,0.924,0.028,0.844
	c-2.254-0.614-4.848-0.662-6.98,0.081C37.279,15.198,37.314,14.798,37.65,14.66z"/>
<path fill="#EA8800" d="M57.36,6.01c4.832,6.628-17.6,4.897-22.265,3.931C35.096,9.94,41.947,0.595,57.36,6.01z"/>
<path fill="#D67C00" d="M35.096,9.94c6.7,1.41,27.188,1.215,20.74-5.773C66.35,12.554,40.77,13.302,35.096,9.94z"/>
<path fill="#E6A400" d="M49.602,22.876c0,1.693-5.204,1.693-5.204,0C44.397,22.487,49.602,22.487,49.602,22.876z"/>
<path fill="#D99025" d="M47,26.019c-1.746-0.503-5.132,0.281-5.132,0.281c1.167,1.239,2.022,2.848,5.132,2.848
	c3.107,0,3.963-1.608,5.131-2.848C52.131,26.3,48.745,25.516,47,26.019z"/>
<path fill="#EA8800" d="M59.535,15.736l-1.168-0.359c0.086,1.482,0.041,3.906-0.113,5.197c-1.117,4.986-4.125,6.07-4.125,6.07
	s-0.43-1.063-1.567-1.625c-1.433-0.71-2.722-0.534-5.562-0.53c-2.842-0.004-4.131-0.18-5.563,0.53
	c-1.139,0.562-1.568,1.625-1.568,1.625s-3.004-1.083-4.123-6.065c-0.155-1.292-0.199-3.718-0.113-5.202l-1.168,0.359
	c0,0-0.264,4.466,0.73,7.968c2.147,7.554,6.926,9.519,11.805,9.519s9.656-1.965,11.803-9.519
	C59.799,20.202,59.535,15.736,59.535,15.736z M41.736,26.063c1.08-0.356,2.965-0.479,5.264-0.479c2.298,0,4.182,0.122,5.263,0.479
	c0.846,0.278-2.148,4.703-3.704,4.072c-0.676-0.278-0.896-0.837-0.896-0.837h-1.326c0,0-0.221,0.559-0.896,0.837
	C43.885,30.766,40.891,26.341,41.736,26.063z"/>
<path fill="#FFFFFF" d="M42.522,26.341c0.14,0.354,1.986,1.673,4.477,1.673c2.491,0,4.338-1.319,4.478-1.673
	C49.245,26.454,44.771,26.456,42.522,26.341z"/>
<path fill="#F5F5F5" d="M39.58,16.688"/>
</svg>
