<?xml version="1.0" encoding="utf-8"?>
<!-- Generator: Adobe Illustrator 15.0.0, SVG Export Plug-In . SVG Version: 6.00 Build 0)  -->
<!DOCTYPE svg PUBLIC "-//W3C//DTD SVG 1.1//EN" "http://www.w3.org/Graphics/SVG/1.1/DTD/svg11.dtd">
<svg version="1.1" id="Layer_1" xmlns="http://www.w3.org/2000/svg" xmlns:xlink="http://www.w3.org/1999/xlink" x="0px" y="0px"
	 width="64px" height="64px" viewBox="0 0 64 64" enable-background="new 0 0 64 64" xml:space="preserve">
<path fill="#785647" d="M2.001,28.451c0,0,4.142,4.42,7.515,23.42c0,0,0.695,3.306,5.938,2.4c4.184-0.721,9.508-0.37,20.135,5.139
	c0,0-7.459-11.402-16.253-19.76C12.34,32.998,3.903,29.104,2.001,28.451z"/>
<path fill="#529320" d="M31.905,49.402c-9.717-4.836-14.77-6.249-18.769-5.56c-3.344,0.577-4.989-0.558-5.634-1.456l0.404,1.646
	c0,0,0.699,3.039,5.943,2.135c4.184-0.722,9.508,0.74,20.134,6.25C33.984,52.418,33.224,51.254,31.905,49.402z"/>
<path fill="#529320" d="M44.891,44.909c0,0,3.051,1.683,3.013,4.828c0.968,0.136,9.315,2.342,9.949,2.513
	C55.952,47.677,50.845,43.009,44.891,44.909z"/>
<path fill="#FED0AC" d="M8.663,26c5.742,0,12.74,1.396,19.111,8.077c7.543,7.907,14.991,14.06,22.986,15.731
	c8.496,1.777,13.104,1.969,10.525,6.6c-2.576,4.633-26.254,6.364-31.924-4.498C17.067,28.356-10.693,26,8.663,26z"/>
<path fill="#C4926E" d="M61.97,54.129L61.97,54.129c-0.005,0.691-0.223,1.453-0.685,2.279c-2.576,4.633-26.254,6.364-31.924-4.498
	C20.067,34.105,1.937,28.414,2.002,26.695H2.001v1.673h0.001c-0.141,1.705,17.294,7.208,26.605,25.048
	c5.671,10.862,30.101,9.94,32.677,5.309c0.452-0.813,0.672-1.559,0.685-2.24l0,0V54.129z"/>
<path fill="#92C932" d="M56.699,47.776c-5.521-7.855-18.816-10.01-28.878,1.419c4.434,9.519,9.333,8.962,9.333,8.962
	c1.146-16.466,12.005-13.175,15.475-11.44c2.934,1.467,3.404,4.154,3.404,4.154s1.208,0.297,2.198,0.512
	C58.231,50.424,57.199,48.486,56.699,47.776z"/>
<path fill="#529320" d="M48.381,41.921c-7.154-2.23-13.767,2.701-19.273,9.75c0.496,0.929,1.677,2.49,1.677,2.49
	C35.594,47.237,41.762,39.991,48.381,41.921z"/>
</svg>
