<?xml version="1.0" encoding="utf-8"?>
<!-- Generator: Adobe Illustrator 15.0.0, SVG Export Plug-In . SVG Version: 6.00 Build 0)  -->
<!DOCTYPE svg PUBLIC "-//W3C//DTD SVG 1.1//EN" "http://www.w3.org/Graphics/SVG/1.1/DTD/svg11.dtd">
<svg version="1.1" id="Layer_1" xmlns="http://www.w3.org/2000/svg" xmlns:xlink="http://www.w3.org/1999/xlink" x="0px" y="0px"
	 width="64px" height="64px" viewBox="0 0 64 64" enable-background="new 0 0 64 64" xml:space="preserve">
<path fill="#CFD8DD" d="M57.537,52.486l-1.092-0.822c-0.064-3.563-16.264-8.25-16.264-8.25H23.818c0,0-16.197,4.688-16.262,8.25
	l-1.096,0.822C3.721,52.438,2,62,2,62h60C62,62,60.279,52.438,57.537,52.486z"/>
<path fill="#99A8AE" d="M11.797,62h-1.535c0-5.379-3.801-9.514-3.801-9.514l1.096-0.822C7.557,51.664,11.797,55.904,11.797,62z"/>
<path fill="#99A8AE" d="M52.205,62h1.533c0-5.379,3.799-9.514,3.799-9.514l-1.092-0.822C56.445,51.664,52.205,55.904,52.205,62z"/>
<polygon fill="#FFFFFF" points="19.1,56.418 19.1,62 20.422,57.572 30.781,57.572 32.104,62 32.104,56.418 "/>
<rect x="38.922" y="54.209" fill="#FFFFFF" width="6.924" height="6.637"/>
<rect x="38.922" y="60.846" fill="#99A8AE" width="6.924" height="1.154"/>
<rect x="40.654" y="60.846" fill="#FFE12C" width="1.154" height="1.154"/>
<rect x="42.961" y="60.846" fill="#A6E639" width="1.154" height="1.154"/>
<rect x="39.824" y="53.559" fill="#BEC3CF" width="1.658" height="0.65"/>
<rect x="40.773" y="53.559" fill="#99A8AE" width="0.709" height="0.65"/>
<rect x="42.229" y="53.559" fill="#BEC3CF" width="0.986" height="0.65"/>
<rect x="42.846" y="53.559" fill="#99A8AE" width="0.369" height="0.65"/>
<path fill="#BEC3CF" d="M44.691,57.488c0,3.078-4.615,3.078-4.615,0C40.076,54.412,44.691,54.412,44.691,57.488z"/>
<path fill="#E6EBEF" d="M44.602,57.746c0,2.836-4.434,2.836-4.434,0C40.168,54.906,44.602,54.906,44.602,57.746z"/>
<path fill="#018BC9" d="M4.83,53.617c0,0-1.793,1.834-1.873,4.402c0,0.859,2.156,3.459,2.156,3.459s1.799-1.646,2.615-3.137
	C5.373,55.479,4.83,53.617,4.83,53.617z"/>
<path fill="#99A8AE" d="M47.67,42.609c-2.129,0-29.217,0-31.344,0c-2.984,0-2.607,2.113-2.607,4.227
	c0,4.756,10.385,7.047,18.281,7.047s18.281-2.291,18.281-7.047C50.281,44.723,50.658,42.609,47.67,42.609"/>
<path fill="#6E8189" d="M22.949,52.947c2.93,0.623,6.156,0.936,9.051,0.936c7.896,0,18.281-2.291,18.281-7.047
	c0-0.934,0.072-1.867-0.104-2.619C49.172,48.33,40.326,53.326,22.949,52.947z"/>
<path fill="#99A8AE" d="M60,29.342c0,2.148-1.74,3.887-3.887,3.887H7.887C5.74,33.229,4,31.49,4,29.342v-6.684
	c0-2.146,1.74-3.887,3.887-3.887h48.227c2.146,0,3.887,1.74,3.887,3.887V29.342z"/>
<circle fill="#302C3B" cx="32" cy="26" r="22"/>
<path fill="#FFFFFF" d="M59.25,23.375c0,1.998-3,1.998-3,0C56.25,21.375,59.25,21.375,59.25,23.375z"/>
<path fill="#FFFFFF" d="M59.25,28.625c0,2-3,2-3,0C56.25,26.627,59.25,26.627,59.25,28.625z"/>
<path fill="#FFFFFF" d="M7.75,23.375c0,1.998-3,1.998-3,0C4.75,21.375,7.75,21.375,7.75,23.375z"/>
<path fill="#FFFFFF" d="M7.75,28.625c0,2-3,2-3,0C4.75,26.627,7.75,26.627,7.75,28.625z"/>
<path fill="#C8A35D" d="M41.338,13.02C36.584,7.103,13.01,9.474,13.01,26.921c0.035,3.328,0.256,8.158,1.299,13.004
	c1.896,8.804,33.27,9.064,35.235,0.376c1.122-4.956,1.376-9.942,1.448-13.38C50.992,21.108,47.539,14.238,41.338,13.02z"/>
<path fill="#A3864C" d="M13.283,32.647c0.224,2.723,0.634,5.741,1.377,8.71c2.082,8.306,32.444,8.488,34.577,0.274
	c0.8-3.079,1.237-6.224,1.481-9.053c-0.47-4.778-3.369-10.95-9.657-18.226C28.174,22.495,14.252,21.228,13.283,32.647z"/>
<path fill="#EBBEA0" d="M45.161,26.281c-1.968-4.641-5.577-9.675-5.577-9.675c-13.205,7.934-24.366,3.952-21.268,18.99
	c1.472,7.135,10.299,12.662,13.777,12.662c3.474,0,12.523-5.485,13.771-12.662C46.587,31.438,46.078,28.442,45.161,26.281z"/>
<path fill="#F5F5F5" d="M44.164,29.384c-1.572,4.094-7.966,3.492-9.137,0.63C35.917,25.412,43.301,25.019,44.164,29.384z"/>
<path fill="#45332C" d="M36.658,28.948c0,3.61,5.222,3.61,5.222,0C41.88,25.596,36.658,25.596,36.658,28.948z"/>
<path fill="#45332C" d="M44.164,29.354c0-4.396-9.137-4.396-9.137,0.695C36.333,25.873,42.859,25.873,44.164,29.354z"/>
<path fill="#F5F5F5" d="M20.018,29.384c1.572,4.094,7.967,3.492,9.137,0.63C28.266,25.412,20.883,25.019,20.018,29.384z"/>
<path fill="#45332C" d="M27.523,28.948c0,3.61-5.223,3.61-5.223,0C22.301,25.596,27.523,25.596,27.523,28.948z"/>
<path fill="#45332C" d="M20.018,29.354c0-4.395,9.137-4.395,9.137,0.693C27.85,25.873,21.323,25.873,20.018,29.354z"/>
<path fill="#F5F5F5" d="M36.98,28.069c0,0.904,1.306,0.904,1.306,0C38.286,27.233,36.98,27.233,36.98,28.069z"/>
<path fill="#F5F5F5" d="M24.091,27.887c0,0.902-1.304,0.902-1.304,0C22.787,27.049,24.091,27.049,24.091,27.887z"/>
<path fill="#BF8C6B" d="M38.615,39.883c-1.227,1.388-1.993,3.847-6.524,3.847c-3.953,0-5.042-2.166-6.526-3.847H38.615z"/>
<path fill="#FFFFFF" d="M37.801,39.925c-2.686,2.75-8.7,2.788-11.422,0H37.801z"/>
<path fill="#BF8C6B" d="M32.092,39.66c-2.559-1.121-2.578-0.044-6.527,0.223c4.987,0.558,8.065,0.558,13.051,0
	C34.668,39.616,34.647,38.539,32.092,39.66z"/>
<path fill="#BF8D69" d="M43.609,25.439c-2.768-1.141-6.554-1.363-8.498-0.602c-0.41,0.16-0.398,1.142-0.036,1.044
	c2.788-0.759,5.997-0.818,8.639,0.099C44.068,26.106,44.025,25.61,43.609,25.439z"/>
<path fill="#BF8D69" d="M20.471,25.441c2.768-1.141,6.555-1.363,8.5-0.604c0.41,0.16,0.398,1.143,0.034,1.044
	c-2.788-0.759-5.997-0.818-8.636,0.102C20.014,26.106,20.056,25.61,20.471,25.441z"/>
<path fill="#BF8D69" d="M35.354,35.932c0,2.095-6.438,2.095-6.438,0C28.915,35.449,35.354,35.449,35.354,35.932z"/>
<path opacity="0.3" fill="#FFFFFF" d="M15.82,38.479c-0.477,1.068-5.275-6.916-4.613-14.025c0.229-2.453,8.988-12.127,30.654-8.002
	C45.043,17.057,21.777,25.111,15.82,38.479z"/>
<path fill="#E6EBEF" d="M53.73,25.09c0.176-0.949,0.27-1.92,0.27-2.91c0-10.273-9.85-18.602-22-18.602S10,11.906,10,22.18
	c0,0.99,0.094,1.961,0.27,2.91C13.76,11.268,50.242,11.268,53.73,25.09z"/>
<path fill="#CFD8DD" d="M49.756,18.615c-1.439-8.395-8.84-13.402-17.758-13.402c-8.916,0-16.314,5.008-17.754,13.402
	C22.65,12.535,41.35,12.535,49.756,18.615z"/>
<path fill-rule="evenodd" clip-rule="evenodd" fill="#E6EBEF" d="M17.51,13.992c0.43,2.621,6.078-2.506,11.801-6.914
	C33.004,4.244,16.219,6.111,17.51,13.992z"/>
<path fill="#CFD8DD" d="M32,2C18.746,2,8,12.746,8,26s10.746,24,24,24s24-10.746,24-24S45.254,2,32,2z M32,47.5
	c-11.873,0-21.5-9.627-21.5-21.5c0-11.875,9.627-21.5,21.5-21.5c11.875,0,21.5,9.625,21.5,21.5C53.5,37.873,43.875,47.5,32,47.5z"/>
<polygon fill="#CFD8DD" points="45.518,43.906 44.809,40.83 46.871,38.811 50.715,38.811 "/>
<path fill="#302C3B" d="M38.387,43.781c-0.797,0-0.797-0.969,0-0.969c5.953,0,7.391-2.5,9.953-3.313
	c0.666-0.211,1.234,1.469,0.125,2.201C48.09,41.947,44.262,43.781,38.387,43.781z"/>
</svg>
