<?xml version="1.0" encoding="utf-8"?>
<!-- Generator: Adobe Illustrator 15.0.0, SVG Export Plug-In . SVG Version: 6.00 Build 0)  -->
<!DOCTYPE svg PUBLIC "-//W3C//DTD SVG 1.1//EN" "http://www.w3.org/Graphics/SVG/1.1/DTD/svg11.dtd">
<svg version="1.1" id="Layer_1" xmlns="http://www.w3.org/2000/svg" xmlns:xlink="http://www.w3.org/1999/xlink" x="0px" y="0px"
	 width="64px" height="64px" viewBox="0 0 64 64" enable-background="new 0 0 64 64" xml:space="preserve">
<path fill="#875B49" d="M43.213,5.497c-5.709-7.104-34.02-4.257-34.02,16.694c0.119,11.257,2.012,36.825,22.747,36.825
	c20.731,0,22.628-25.46,22.866-36.825C54.807,15.211,50.66,6.96,43.213,5.497z"/>
<path fill="#6B4435" d="M9.522,29.067c1.021,12.42,5.269,29.948,22.438,29.948c17.226,0,21.444-17.567,22.518-30.03
	c-0.563-5.739-4.046-13.15-11.597-21.887C27.404,16.876,10.685,15.354,9.522,29.067z"/>
<path fill="#8E3ED6" d="M12.32,51.747c2.395-1.514,12.322-5.506,12.322-5.506h14.791c0,0,9.918,3.984,12.299,5.502
	c3.459,2.201,4.188,10.258,4.188,10.258H8.08C8.08,62.001,8.852,53.937,12.32,51.747z"/>
<path fill="#BEC3CF" d="M14.971,50.321c2.154-1.172,4.105-1.9,4.105-1.9l1.355,13.58h-5.104L14.971,50.321z"/>
<path fill="#BEC3CF" d="M49.027,50.321c-2.15-1.172-4.104-1.9-4.104-1.9l-1.355,13.58h5.102L49.027,50.321z"/>
<path fill="#946346" d="M24.346,48.005c0,6.135,15.309,6.135,15.309,0c0-3.74,0-9.926,0-9.926H24.346
	C24.346,38.079,24.346,43.175,24.346,48.005z"/>
<path fill="#BEC3CF" d="M15.281,58.858c1.697-0.898,31.766-0.9,33.461-0.002c1.049,0.555,1.752,3.145,1.752,3.145H13.527
	C13.527,62.001,14.234,59.413,15.281,58.858z"/>
<path fill="#E5BC5E" d="M7.459,62.001c0,0-5.459-6.971-5.459-13.742c0-9.174,15.461-1.295,24.436,13.742H7.459z"/>
<path fill="#018BC9" d="M10.211,50.087c-0.406-1.6-1.758-3.088-3.014-3.324c-1.254-0.232-1.939,0.875-1.531,2.475
	s1.762,3.086,3.016,3.322C9.936,52.794,10.619,51.687,10.211,50.087"/>
<path fill="#E81C27" d="M16.035,52.774c-0.352-1.506-1.592-2.928-2.764-3.174c-1.172-0.244-1.834,0.779-1.48,2.287
	c0.352,1.508,1.592,2.928,2.762,3.176C15.725,55.308,16.387,54.282,16.035,52.774"/>
<path fill="#FFE12C" d="M21.475,57.437c-0.443-1.449-1.748-2.752-2.91-2.91c-1.16-0.16-1.742,0.887-1.299,2.338
	c0.441,1.449,1.744,2.754,2.906,2.914C21.334,59.937,21.914,58.888,21.475,57.437"/>
<path fill="#7AB51D" d="M11.35,57.851c-0.541-1.668-2.031-3.129-3.318-3.264c-1.285-0.131-1.883,1.113-1.34,2.783
	c0.545,1.67,2.033,3.129,3.318,3.266C11.297,60.769,11.895,59.521,11.35,57.851"/>
<path fill="#875B49" d="M54.104,62.001c3.652-13.506,4.789-20.885,3.779-21.148c-1.033-0.27-3.924,7.008-7.801,21.148H54.104z"/>
<path fill="#302C3B" d="M57.172,42.142c0,0-2.66-3.377,0.203-7.496c1.496-2.155,2.631-1.743,3.354-4.381
	c0.539-1.976,3.826,7.635-2.938,12.042L57.172,42.142z"/>
<path fill="#1A1626" d="M60.594,35.612c-0.518,1.891-1.455,3.141-2.072,3.809c0.029-1.664,0.424-3.666,0.424-3.666
	c-0.719,1.389-1.059,2.818-1.223,3.801c-0.449-1.277-0.24-2.953-0.24-2.953c-1.705,3.123-0.045,5.117-0.045,5.117
	C60.986,39.327,60.594,35.612,60.594,35.612"/>
<path fill="#99A8AE" d="M54.391,47.899c0.457,0.189,0.932,0.357,1.428,0.488c0.498,0.131,0.994,0.217,1.49,0.275
	c0,0,2.047-7.424,0.574-7.811C56.414,40.466,54.391,47.899,54.391,47.899"/>
<path fill="#B88A6F" d="M47.804,21.423C45.44,15.85,41.107,9.804,41.107,9.804c-15.857,9.528-29.262,4.747-25.54,22.806
	c1.767,8.569,12.366,15.206,16.544,15.206c4.172,0,15.039-6.586,16.537-15.206C49.516,27.616,48.905,24.019,47.804,21.423z"/>
<path fill="#F5F5F5" d="M46.606,25.148c-1.888,4.917-9.565,4.194-10.973,0.757C36.703,20.379,45.57,19.907,46.606,25.148z"/>
<path fill="#45332C" d="M37.594,24.625c0,4.336,6.27,4.336,6.27,0C43.863,20.6,37.594,20.6,37.594,24.625z"/>
<path fill="#45332C" d="M46.606,25.113c0-5.279-10.973-5.279-10.973,0.835C37.203,20.933,45.039,20.933,46.606,25.113z"/>
<path fill="#F5F5F5" d="M17.609,25.148c1.888,4.917,9.566,4.194,10.973,0.757C27.514,20.379,18.648,19.907,17.609,25.148z"/>
<path fill="#45332C" d="M26.622,24.625c0,4.336-6.271,4.336-6.271,0C20.352,20.6,26.622,20.6,26.622,24.625z"/>
<path fill="#45332C" d="M17.609,25.113c0-5.276,10.973-5.276,10.973,0.833C27.015,20.933,19.178,20.933,17.609,25.113z"/>
<path fill="#F5F5F5" d="M37.98,23.571c0,1.085,1.567,1.085,1.567,0C39.548,22.566,37.98,22.566,37.98,23.571z"/>
<path fill="#F5F5F5" d="M22.501,23.352c0,1.083-1.566,1.083-1.566,0C20.935,22.345,22.501,22.345,22.501,23.352z"/>
<path fill="#80553C" d="M39.943,37.757c-1.473,1.668-2.395,4.619-7.836,4.619c-4.746,0-6.055-2.6-7.836-4.619H39.943z"/>
<path fill="#FFFFFF" d="M38.965,37.808c-3.225,3.303-10.447,3.348-13.715,0H38.965z"/>
<path fill="#80553C" d="M32.109,37.489c-3.072-1.346-3.096-0.053-7.838,0.268c5.988,0.67,9.685,0.67,15.672,0
	C35.203,37.437,35.178,36.144,32.109,37.489z"/>
<path fill="#946346" d="M45.94,20.412c-3.323-1.37-7.87-1.637-10.206-0.722c-0.492,0.193-0.477,1.371-0.043,1.253
	c3.349-0.911,7.203-0.982,10.375,0.12C46.491,21.213,46.439,20.618,45.94,20.412z"/>
<path fill="#946346" d="M18.154,20.414c3.322-1.37,7.87-1.637,10.207-0.725c0.492,0.193,0.477,1.373,0.041,1.253
	c-3.349-0.911-7.202-0.982-10.371,0.122C17.604,21.213,17.655,20.618,18.154,20.414z"/>
<path fill="#946346" d="M36.025,33.012c0,2.517-7.731,2.517-7.731,0C28.294,32.433,36.025,32.433,36.025,33.012z"/>
</svg>
