<?xml version="1.0" encoding="utf-8"?>
<!-- Generator: Adobe Illustrator 15.0.0, SVG Export Plug-In . SVG Version: 6.00 Build 0)  -->
<!DOCTYPE svg PUBLIC "-//W3C//DTD SVG 1.1//EN" "http://www.w3.org/Graphics/SVG/1.1/DTD/svg11.dtd">
<svg version="1.1" id="Layer_1" xmlns="http://www.w3.org/2000/svg" xmlns:xlink="http://www.w3.org/1999/xlink" x="0px" y="0px"
	 width="64px" height="64px" viewBox="0 0 64 64" enable-background="new 0 0 64 64" xml:space="preserve">
<path fill="#614036" d="M43.213,5.497c-5.709-7.104-34.02-4.257-34.02,16.694c0.119,11.256,2.012,36.824,22.747,36.824
	c20.731,0,22.628-25.46,22.866-36.824C54.807,15.211,50.66,6.96,43.213,5.497z"/>
<path fill="#4A2E24" d="M9.522,29.067c1.021,12.419,5.269,29.947,22.438,29.947c17.226,0,21.444-17.567,22.518-30.029
	c-0.563-5.739-4.046-13.15-11.597-21.887C27.404,16.876,10.685,15.354,9.522,29.067z"/>
<path fill="#8E3ED6" d="M13.902,52.131c2.199-1.457,11.332-5.301,11.332-5.301h13.604c0,0,9.123,3.836,11.311,5.297
	C53.33,54.246,54,62,54,62H10C10,62,10.709,54.24,13.902,52.131"/>
<polygon fill="#664935" points="25.059,49.975 32.002,62 38.941,49.975 38.941,40.564 25.059,40.564 "/>
<path fill="#5D1E96" d="M49.406,55.438C48.82,57.074,48.27,60.045,48.738,62C49.744,60.926,49.949,53.914,49.406,55.438"/>
<path fill="#5D1E96" d="M15.523,62c0.469-1.955-0.082-4.928-0.668-6.563C14.311,53.912,14.518,60.924,15.523,62"/>
<path fill="#5D1E96" d="M32.002,62H28.82c0,0-2.479-3.514-6.83-5.311c0,0,2.135-2.889,5.004-4.137
	C30.676,56.539,32.002,62,32.002,62"/>
<path fill="#E6EBEF" d="M32.002,62c0,0-2.988-11.346-10.375-9.035c0,0-0.293-5.805,3.432-8.869c1.152-0.949-1.037,3.162,3.627,8.885
	C31.193,56.059,32.002,62,32.002,62"/>
<path fill="#5D1E96" d="M32.002,62h3.182c0,0,2.477-3.514,6.828-5.311c0,0-2.135-2.889-5.006-4.137
	C33.326,56.539,32.002,62,32.002,62"/>
<path fill="#E6EBEF" d="M32.002,62c0,0,2.984-11.346,10.371-9.035c0,0,0.293-5.805-3.43-8.869c-1.154-0.949,1.035,3.162-3.627,8.885
	C32.807,56.059,32.002,62,32.002,62"/>
<path fill="#916B50" d="M47.804,21.423C45.44,15.85,41.107,9.804,41.107,9.804c-15.857,9.528-29.262,4.747-25.54,22.806
	c1.767,8.568,12.366,15.205,16.544,15.205c4.172,0,15.039-6.586,16.537-15.205C49.516,27.616,48.905,24.019,47.804,21.423z"/>
<path fill="#F5F5F5" d="M46.606,25.148c-1.888,4.917-9.565,4.194-10.973,0.757C36.703,20.379,45.57,19.907,46.606,25.148z"/>
<path fill="#45332C" d="M37.594,24.625c0,4.336,6.27,4.336,6.27,0C43.863,20.6,37.594,20.6,37.594,24.625z"/>
<path fill="#45332C" d="M46.606,25.113c0-5.279-10.973-5.279-10.973,0.835C37.203,20.933,45.039,20.933,46.606,25.113z"/>
<path fill="#F5F5F5" d="M17.609,25.148c1.888,4.917,9.566,4.194,10.973,0.757C27.514,20.379,18.648,19.907,17.609,25.148z"/>
<path fill="#45332C" d="M26.622,24.625c0,4.336-6.271,4.336-6.271,0C20.352,20.6,26.622,20.6,26.622,24.625z"/>
<path fill="#45332C" d="M17.609,25.113c0-5.276,10.973-5.276,10.973,0.833C27.015,20.933,19.178,20.933,17.609,25.113z"/>
<path fill="#F5F5F5" d="M37.98,23.571c0,1.085,1.567,1.085,1.567,0C39.548,22.566,37.98,22.566,37.98,23.571z"/>
<path fill="#F5F5F5" d="M22.501,23.352c0,1.083-1.566,1.083-1.566,0C20.935,22.345,22.501,22.345,22.501,23.352z"/>
<path fill="#734A2E" d="M39.943,37.756c-1.473,1.668-2.395,4.619-7.836,4.619c-4.746,0-6.055-2.6-7.836-4.619H39.943z"/>
<path fill="#FFFFFF" d="M38.965,37.807c-3.225,3.303-10.447,3.348-13.715,0H38.965z"/>
<path fill="#734A2E" d="M32.109,37.488c-3.072-1.346-3.096-0.053-7.838,0.268c5.988,0.67,9.685,0.67,15.672,0
	C35.203,37.436,35.178,36.143,32.109,37.488z"/>
<path fill="#664935" d="M45.94,20.412c-3.323-1.37-7.87-1.637-10.206-0.722c-0.492,0.193-0.477,1.371-0.043,1.253
	c3.349-0.911,7.203-0.982,10.375,0.12C46.491,21.213,46.439,20.618,45.94,20.412z"/>
<path fill="#664935" d="M18.154,20.414c3.322-1.37,7.87-1.637,10.207-0.725c0.492,0.193,0.477,1.373,0.041,1.253
	c-3.349-0.911-7.202-0.982-10.371,0.122C17.604,21.213,17.655,20.618,18.154,20.414z"/>
<path fill="#664935" d="M36.025,33.011c0,2.517-7.731,2.517-7.731,0C28.294,32.433,36.025,32.433,36.025,33.011z"/>
</svg>
