<?xml version="1.0" encoding="utf-8"?>
<!-- Generator: Adobe Illustrator 15.0.0, SVG Export Plug-In . SVG Version: 6.00 Build 0)  -->
<!DOCTYPE svg PUBLIC "-//W3C//DTD SVG 1.1//EN" "http://www.w3.org/Graphics/SVG/1.1/DTD/svg11.dtd">
<svg version="1.1" id="Layer_1" xmlns="http://www.w3.org/2000/svg" xmlns:xlink="http://www.w3.org/1999/xlink" x="0px" y="0px"
	 width="64px" height="64px" viewBox="0 0 64 64" enable-background="new 0 0 64 64" xml:space="preserve">
<path fill="#302C3B" d="M58.583,58.83c-5.494,0-50.722-15.055-50.722-15.055L9.366,62h6.255c0,0,0.108-5.83,0.979-8.672
	c8.234,0,12.421,8.672,15.633,8.672c5.064,0,21.295,0,26.35,0C59.14,62,59.14,58.83,58.583,58.83z"/>
<path fill="#E81C27" d="M54.501,50.326C39.279,44.834,31.158,39.752,30.34,14.18L8.406,13.791
	C9.972,33.335,6.26,28.047,5.364,39.342c-0.424,5.33,3.468,9.973,10.415,9.973c8.922,0,15.938,9.516,17.498,9.516
	c4.981,0,24.625,0,24.625,0S60.433,52.465,54.501,50.326z"/>
<rect x="14" y="12" fill="#302C3B" width="2" height="20"/>
<path fill="#C21413" d="M34.004,2.729H5l1.225,11.251c0,0,4.278,1.62,13.229,1.62c7.984,0,13.234-0.811,13.234-0.811L34.004,2.729z"
	/>
<path fill="#302C3B" d="M19.502,2C13.735,2,5,2.326,5,2.729s8.735,0.729,14.501,0.729s14.502-0.326,14.502-0.729S25.269,2,19.502,2z
	"/>
</svg>
