<?xml version="1.0" encoding="utf-8"?>
<!-- Generator: Adobe Illustrator 15.0.0, SVG Export Plug-In . SVG Version: 6.00 Build 0)  -->
<!DOCTYPE svg PUBLIC "-//W3C//DTD SVG 1.1//EN" "http://www.w3.org/Graphics/SVG/1.1/DTD/svg11.dtd">
<svg version="1.1" id="Layer_1" xmlns="http://www.w3.org/2000/svg" xmlns:xlink="http://www.w3.org/1999/xlink" x="0px" y="0px"
	 width="64px" height="64px" viewBox="0 0 64 64" enable-background="new 0 0 64 64" xml:space="preserve">
<path fill="#302C3B" d="M6.435,50.479c2.498-1.699,14.014-6.188,14.014-6.188h13.185c0,0,11.504,4.479,13.992,6.186
	C51.239,52.947,51.999,62,51.999,62H2C2,62,2.806,52.939,6.435,50.479"/>
<rect x="18.5" y="38.979" fill="#946346" width="17" height="13.982"/>
<path fill="#1A1626" d="M27,61.432c-7.119,0-8.465-10.297-8.518-10.736l1.127-0.139c0.012,0.098,1.277,9.738,7.391,9.738
	c6.117,0,7.378-9.641,7.39-9.738l1.127,0.139C35.464,51.135,34.118,61.432,27,61.432"/>
<path fill="#E6EBEF" d="M27,51.764h-5.682c0,0,1.031,6.824,5.682,6.824c4.652,0,5.682-6.824,5.682-6.824H27z"/>
<path fill="#BEC3CF" d="M22.869,55.994c0,0,1.625-4.23,4.156-4.23s4.105,4.23,4.105,4.23s1.551-2.525,1.551-4.23H21.318
	C21.318,51.764,21.472,53.66,22.869,55.994"/>
<path fill="#1A1626" d="M46.63,54.338c-0.666,1.91-1.291,5.381-0.758,7.662C47.015,60.744,47.247,52.559,46.63,54.338"/>
<path fill="#1A1626" d="M8.128,62c0.533-2.281-0.094-5.752-0.76-7.662C6.751,52.559,6.986,60.744,8.128,62"/>
<path fill="#1A1626" d="M39.147,57.818c-0.203-0.01-0.479,1.652-0.729,4.182h0.98C39.437,59.488,39.351,57.828,39.147,57.818"/>
<path fill="#1A1626" d="M11.457,56.313c-0.289,0.016-0.412,2.332-0.348,5.688h1.342C12.138,58.619,11.753,56.299,11.457,56.313"/>
<path fill="#1A1626" d="M35.835,62c-0.037-1.635-0.172-2.68-0.387-2.691c-0.217-0.012-0.473,1.037-0.697,2.691H35.835z"/>
<path fill="#1A1626" d="M42.542,56.313c-0.295-0.014-0.682,2.307-0.996,5.688h1.344C42.956,58.645,42.833,56.328,42.542,56.313"/>
<path fill="#1A1626" d="M14.851,57.818c-0.203,0.01-0.289,1.67-0.252,4.182h0.98C15.33,59.471,15.056,57.809,14.851,57.818"/>
<path fill="#1A1626" d="M18.55,59.309c-0.215,0.012-0.348,1.057-0.387,2.691h1.086C19.023,60.346,18.767,59.297,18.55,59.309"/>
<path fill="#E81C27" d="M29.359,57.945l-0.65-3.414l0.906-2.342L27,51.764l-2.613,0.426l0.902,2.342l-0.648,3.412
	c0.658,0.438,1.436,0.717,2.359,0.717C27.925,58.66,28.701,58.381,29.359,57.945z"/>
<path fill="#FFFFFF" d="M19.023,44.291c0,0-7.717,5.34,0.328,13.395c0,0,3.813-5.922,7.648-5.922
	C27,51.764,19.023,49.756,19.023,44.291z"/>
<path fill="#FFFFFF" d="M34.978,44.291c0,5.465-7.953,7.473-7.953,7.473c3.836,0,7.648,5.922,7.648,5.922
	C42.72,49.631,34.978,44.291,34.978,44.291z"/>
<polygon fill="#9E6C49" points="49.507,62 52.134,50.686 50.663,50.303 46.944,62 "/>
<path fill="#9E6C49" d="M60.237,41.314l-1.473-0.381l-0.215,0.773c-1.152,0.764-2.254,2.457-2.836,4.576
	c-0.586,2.127-0.5,4.131,0.105,5.352l-0.213,0.773l1.473,0.385c1.627,0.424,3.65-1.799,4.523-4.969
	C62.476,44.656,61.862,41.74,60.237,41.314"/>
<path fill="#B47D56" d="M60.13,47.439c-0.871,3.17-2.896,5.395-4.523,4.969c-1.625-0.424-2.238-3.336-1.365-6.506
	c0.871-3.168,2.896-5.393,4.523-4.969C60.39,41.357,61.003,44.268,60.13,47.439"/>
<polygon fill="#9E6C49" points="55.804,51.691 45.497,49.002 48.259,38.961 58.567,41.652 "/>
<path fill="#785647" d="M48.243,39.016l-2.732,9.93c0.014,0.021,0.023,0.047,0.033,0.068l2.85,0.744
	c1.176-0.742,2.307-2.463,2.902-4.623c0.594-2.162,0.498-4.203-0.141-5.418l-2.85-0.748C48.284,38.986,48.265,39.004,48.243,39.016"
	/>
<path fill="#9E6C49" d="M49.192,38.432l-1.475-0.379l-0.211,0.773c-1.152,0.762-2.254,2.457-2.84,4.576
	c-0.582,2.125-0.498,4.129,0.109,5.35l-0.213,0.773l1.473,0.385c1.627,0.424,3.65-1.799,4.523-4.969
	C51.431,41.773,50.819,38.857,49.192,38.432"/>
<path fill="#B47D56" d="M49.087,44.557c-0.873,3.17-2.896,5.395-4.523,4.969c-1.627-0.424-2.24-3.336-1.367-6.504
	c0.871-3.17,2.896-5.396,4.523-4.969C49.347,38.477,49.956,41.387,49.087,44.557"/>
<path fill="#9E6C49" d="M59.394,47.248c-0.762,2.773-2.369,4.762-3.59,4.443c-1.219-0.318-1.59-2.824-0.828-5.596
	c0.764-2.773,2.371-4.764,3.592-4.443C59.786,41.969,60.157,44.475,59.394,47.248"/>
<path fill="#785647" d="M52.86,50.924L52.86,50.924c-0.109,0.393-0.529,0.629-0.936,0.523l-1.471-0.383
	c-0.406-0.105-0.648-0.516-0.539-0.91L52.86,50.924z"/>
<path fill="#875B49" d="M27,2C7.89,2,7.885,13.498,7.885,27.875h38.227C46.112,13.498,46.107,2,27,2z"/>
<path fill="#B07E61" d="M11.68,33.464c2.071-1.926,0.19-9.488-2.479-9.942C3.498,22.548,7.214,37.623,11.68,33.464z"/>
<path fill="#B07E61" d="M42.317,33.464c-2.07-1.926-0.191-9.488,2.479-9.942C50.499,22.548,46.785,37.621,42.317,33.464z"/>
<path fill="#B88A6F" d="M27,9.667c-19.964,0-11.92,2.312-17.25,14.039c0,0,0.039,5.378,1.154,11.146C12.343,42.289,20.712,48,27,48
	c6.288,0,14.656-5.711,16.095-13.147c1.116-5.769,1.154-11.146,1.154-11.146C38.919,11.979,46.964,9.667,27,9.667z"/>
<path fill="#F5F5F5" d="M41.182,25.398c-1.847,4.811-9.357,4.104-10.733,0.741C31.494,20.734,40.167,20.272,41.182,25.398z"/>
<path fill="#45332C" d="M32.366,24.888c0,4.241,6.133,4.241,6.133,0C38.499,20.95,32.366,20.95,32.366,24.888z"/>
<path fill="#45332C" d="M41.182,25.365c0-5.165-10.733-5.165-10.733,0.815C31.982,21.275,39.649,21.275,41.182,25.365z"/>
<path fill="#F5F5F5" d="M12.816,25.398c1.847,4.811,9.358,4.104,10.732,0.741C22.503,20.734,13.832,20.272,12.816,25.398z"/>
<path fill="#45332C" d="M21.632,24.888c0,4.241-6.133,4.241-6.133,0C15.5,20.95,21.632,20.95,21.632,24.888z"/>
<path fill="#45332C" d="M12.816,25.365c0-5.163,10.732-5.163,10.732,0.813C22.017,21.275,14.349,21.275,12.816,25.365z"/>
<path fill="#F5F5F5" d="M32.744,23.856c0,1.061,1.533,1.061,1.533,0C34.276,22.872,32.744,22.872,32.744,23.856z"/>
<path fill="#F5F5F5" d="M17.601,23.642c0,1.059-1.533,1.059-1.533,0C16.068,22.657,17.601,22.657,17.601,23.642z"/>
<path fill="#80553C" d="M27,37.527c-3.09-0.821-7.667,0.388-7.667,0.388c1.743,1.709,3.021,3.925,7.667,3.925
	c5.322,0,6.226-2.517,7.666-3.925C34.665,37.915,30.083,36.706,27,37.527z"/>
<path fill="#FFFFFF" d="M20.412,37.976c3.281,3.051,9.915,3.068,13.216,0C30.126,38.142,23.935,38.144,20.412,37.976z"/>
<path fill="#946346" d="M40.772,20.651c-3.293-1.358-7.803-1.624-10.119-0.719c-0.488,0.191-0.473,1.361-0.041,1.243
	c3.319-0.903,7.14-0.974,10.284,0.12C41.319,21.444,41.269,20.854,40.772,20.651z"/>
<path fill="#946346" d="M13.224,20.651c3.295-1.358,7.803-1.624,10.119-0.719c0.488,0.191,0.474,1.361,0.041,1.243
	c-3.319-0.903-7.141-0.974-10.283,0.12C12.679,21.444,12.73,20.854,13.224,20.651z"/>
<path fill="#875B49" d="M42.263,7.905c7.121,9.766-25.928,7.218-32.803,5.793C9.459,13.698,19.556-0.072,42.263,7.905z"/>
<path fill="#6B4435" d="M9.459,13.698c9.873,2.078,40.059,1.789,30.557-8.507C55.507,17.549,17.82,18.649,9.459,13.698z"/>
<path fill="#946346" d="M30.833,32.757c0,2.492-7.667,2.492-7.667,0C23.166,32.184,30.833,32.184,30.833,32.757z"/>
</svg>
