<?xml version="1.0" encoding="utf-8"?>
<!-- Generator: Adobe Illustrator 15.0.0, SVG Export Plug-In . SVG Version: 6.00 Build 0)  -->
<!DOCTYPE svg PUBLIC "-//W3C//DTD SVG 1.1//EN" "http://www.w3.org/Graphics/SVG/1.1/DTD/svg11.dtd">
<svg version="1.1" id="Layer_1" xmlns="http://www.w3.org/2000/svg" xmlns:xlink="http://www.w3.org/1999/xlink" x="0px" y="0px"
	 width="64px" height="64px" viewBox="0 0 64 64" enable-background="new 0 0 64 64" xml:space="preserve">
<path fill="#018BC9" d="M25.691,34.967c-0.634-1.047-4.029-2.783-4.029-2.783h-9.275c0,0-5.545,2.746-7.045,3.785
	C2.834,37.705,2.332,43.07,2,48.742L3,62h26C29,62,29.217,40.791,25.691,34.967z"/>
<path fill="#E6A400" d="M21.432,33.189c0-0.816,0-4.438,0-4.438h-8.863c0,0,0,3.568,0,4.438
	C12.568,36.781,21.432,36.781,21.432,33.189z"/>
<rect x="2" y="48.764" fill="#FDCA47" width="4.091" height="13.236"/>
<path fill="#EA8800" d="M17,2C4.029,2,4.026,9.805,4.026,19.563h25.946C29.973,9.805,29.969,2,17,2z"/>
<path fill="#F5BC2C" d="M6.602,23.357c1.406-1.309,0.13-6.441-1.682-6.75C1.048,15.947,3.569,26.18,6.602,23.357z"/>
<path fill="#F5BC2C" d="M27.397,23.357c-1.405-1.309-0.13-6.441,1.683-6.75C32.951,15.947,30.43,26.178,27.397,23.357z"/>
<path fill="#FDCA47" d="M17,7.205c-13.551,0-8.091,1.568-11.708,9.527c0,0,0.025,3.65,0.783,7.566
	c0.977,5.049,6.657,8.924,10.925,8.924s9.948-3.875,10.925-8.924c0.758-3.916,0.783-7.566,0.783-7.566
	C25.091,8.773,30.551,7.205,17,7.205z"/>
<path fill="#F5F5F5" d="M26.627,17.883c-1.253,3.264-6.352,2.785-7.285,0.502C20.051,14.717,25.938,14.402,26.627,17.883z"/>
<path fill="#45332C" d="M20.643,17.535c0,2.879,4.163,2.879,4.163,0C24.806,14.861,20.643,14.861,20.643,17.535z"/>
<path fill="#45332C" d="M26.627,17.859c0-3.506-7.285-3.506-7.285,0.555C20.382,15.084,25.586,15.084,26.627,17.859z"/>
<path fill="#F5F5F5" d="M7.373,17.883c1.253,3.264,6.351,2.785,7.285,0.502C13.948,14.717,8.063,14.402,7.373,17.883z"/>
<path fill="#45332C" d="M13.357,17.535c0,2.879-4.163,2.879-4.163,0C9.194,14.863,13.357,14.863,13.357,17.535z"/>
<path fill="#45332C" d="M7.373,17.859c0-3.504,7.285-3.504,7.285,0.553C13.618,15.084,8.413,15.084,7.373,17.859z"/>
<path fill="#D99025" d="M17,26.113c-2.097-0.555-5.204,0.264-5.204,0.264c1.184,1.16,2.051,2.666,5.204,2.666
	c3.613,0,4.226-1.709,5.203-2.666C22.203,26.377,19.093,25.557,17,26.113z"/>
<path fill="#FFFFFF" d="M12.527,26.42c2.228,2.07,6.73,2.084,8.972,0C19.123,26.533,14.92,26.533,12.527,26.42z"/>
<path fill="#E6A400" d="M26.35,14.66c-2.236-0.922-5.298-1.102-6.869-0.488c-0.332,0.131-0.321,0.924-0.028,0.844
	c2.253-0.613,4.848-0.66,6.98,0.082C26.72,15.197,26.685,14.797,26.35,14.66z"/>
<path fill="#E6A400" d="M7.65,14.66c2.235-0.922,5.296-1.102,6.868-0.488c0.331,0.131,0.321,0.924,0.027,0.844
	c-2.253-0.613-4.847-0.66-6.979,0.082C7.279,15.197,7.314,14.797,7.65,14.66z"/>
<path fill="#D67C00" d="M23.258,26.951c-2.44-2.568-10.027-2.59-12.489,0C14.078,26.771,19.928,26.771,23.258,26.951z"/>
<path fill="#EA8800" d="M23.258,26.951c-3.101-3.262-9.369-3.283-12.489,0C11.31,26.268,22.561,26.078,23.258,26.951z"/>
<path fill="#EA8800" d="M27.36,6.01c4.833,6.627-17.6,4.898-22.266,3.93C5.095,9.939,11.947,0.594,27.36,6.01z"/>
<path fill="#D67C00" d="M5.095,9.939c6.701,1.41,27.189,1.217,20.741-5.773C36.35,12.555,10.769,13.303,5.095,9.939z"/>
<path fill="#E6A400" d="M19.602,22.877c0,1.693-5.204,1.693-5.204,0C14.397,22.488,19.602,22.488,19.602,22.877z"/>
<path fill="#006DAE" d="M58.691,35.967c-1.491-1.043-7.029-3.783-7.029-3.783h-9.275c0,0-3.408,1.734-4.045,2.785
	C34.81,40.789,35,62,35,62h26l1-13.258C61.688,43.082,61.175,37.701,58.691,35.967z"/>
<path fill="#E6A400" d="M51.432,33.189c0-0.816,0-4.438,0-4.438h-8.863c0,0,0,3.568,0,4.438
	C42.568,36.781,51.432,36.781,51.432,33.189z"/>
<rect x="57.909" y="48.764" fill="#FDCA47" width="4.091" height="13.236"/>
<path fill="#E32B56" d="M41.386,61.996c-1.197-0.832-5.646-3.025-5.646-3.025h-7.452c0,0-4.455,2.197-5.66,3.029L41.386,61.996z"/>
<path fill="#E6A400" d="M35.538,59.076c0-0.652,0-3.551,0-3.551h-7.09c0,0,0,2.855,0,3.551
	C28.448,61.949,35.538,61.949,35.538,59.076z"/>
<path fill="#EA8800" d="M23.807,49.396c-7.722,4.559-0.933,8.707-3.131,10.672C24.948,62.721,35.403,58.15,23.807,49.396z"/>
<path fill="#D67C00" d="M21.501,51.129c1.896,7.277,5.796,7.527,5.47,8.844C30.599,58.074,30.632,51.939,21.501,51.129z"/>
<path fill="#EA8800" d="M40.192,49.396c7.723,4.559,0.934,8.707,3.133,10.672C39.054,62.721,28.596,58.15,40.192,49.396z"/>
<path fill="#D67C00" d="M42.499,51.129c-1.896,7.277-5.795,7.527-5.471,8.844C33.403,58.074,33.37,51.939,42.499,51.129z"/>
<path fill="#EA8800" d="M21.436,49.213h21.116C45.626,32.688,18.364,32.688,21.436,49.213z"/>
<path fill="#D67C00" d="M21.411,49.01c0,0,12.02,4.486,20.352-0.713c-1.682,0.318-4.416-6.125-17.213-6.607
	C24.081,49.01,21.831,47.023,21.411,49.01z"/>
<path fill="#CFD8DD" d="M41.562,48.035c0.896-12.365-20.034-12.365-19.138,0C23.204,37.65,40.782,37.65,41.562,48.035z"/>
<path fill="#FFFFFF" d="M41.562,47.635c0.896-12.365-20.034-12.365-19.138,0C23.204,37.25,40.782,37.25,41.562,47.635z"/>
<path fill="#F5BC2C" d="M22.647,48.115c-3.643-0.471-1.269,6.842,1.584,4.826C25.552,52.006,24.352,48.336,22.647,48.115z"/>
<path fill="#F5BC2C" d="M41.341,48.115c-1.705,0.221-2.906,3.891-1.584,4.826C42.61,54.957,44.983,47.645,41.341,48.115z"/>
<path fill="#FDCA47" d="M41.222,48.137c-3.49-0.992-7.957-5.742-16.448-5.168c0.148,1.867-0.342,3.984-1.98,5.176
	c0,0-0.008,1.678,0.591,4.748c0.978,5.027,5.039,7,8.609,7c3.572,0,7.635-1.973,8.611-7C41.202,49.82,41.222,48.137,41.222,48.137z"
	/>
<path fill="#F5F5F5" d="M39.394,49.799c-0.963,2.51-4.881,2.141-5.6,0.385C34.339,47.363,38.864,47.123,39.394,49.799z"/>
<path fill="#45332C" d="M34.794,49.531c0,2.213,3.201,2.213,3.201,0C37.995,47.477,34.794,47.477,34.794,49.531z"/>
<path fill="#45332C" d="M39.394,49.779c0-2.693-5.6-2.693-5.6,0.428C34.595,47.646,38.595,47.646,39.394,49.779z"/>
<path fill="#F5F5F5" d="M24.594,49.799c0.964,2.51,4.883,2.141,5.6,0.385C29.649,47.363,25.125,47.123,24.594,49.799z"/>
<path fill="#45332C" d="M29.194,49.531c0,2.213-3.2,2.213-3.2,0C25.995,47.477,29.194,47.477,29.194,49.531z"/>
<path fill="#45332C" d="M24.594,49.779c0-2.693,5.6-2.693,5.6,0.426C29.396,47.646,25.394,47.646,24.594,49.779z"/>
<path fill="#D99025" d="M31.995,55.326c-1.611-0.428-4,0.201-4,0.201c0.911,0.893,1.577,2.049,4,2.049c2.777,0,3.248-1.313,4-2.049
	C35.995,55.527,33.604,54.896,31.995,55.326z"/>
<path fill="#FFFFFF" d="M28.557,55.561c1.711,1.59,5.172,1.602,6.897,0C33.626,55.648,30.396,55.648,28.557,55.561z"/>
<path fill="#E6A400" d="M39.181,47.463c-1.719-0.709-4.07-0.848-5.279-0.375c-0.256,0.1-0.246,0.709-0.021,0.648
	c1.732-0.473,3.727-0.508,5.365,0.063C39.466,47.877,39.438,47.568,39.181,47.463z"/>
<path fill="#E6A400" d="M24.808,47.463c1.718-0.709,4.072-0.848,5.279-0.375c0.256,0.1,0.248,0.709,0.021,0.648
	c-1.731-0.473-3.725-0.508-5.365,0.063C24.522,47.877,24.549,47.568,24.808,47.463z"/>
<path fill="#E6A400" d="M33.995,53.414c0,1.303-4,1.303-4,0C29.995,53.117,33.995,53.117,33.995,53.414z"/>
<path fill="#EA8800" d="M46.999,2C34.03,2,34.026,9.806,34.026,19.563h25.946C59.973,9.806,59.969,2,46.999,2z"/>
<path fill="#F5BC2C" d="M36.603,23.357c1.404-1.309,0.129-6.44-1.683-6.75C31.048,15.948,33.57,26.179,36.603,23.357z"/>
<path fill="#F5BC2C" d="M57.397,23.357c-1.406-1.309-0.13-6.44,1.682-6.75C62.95,15.948,60.43,26.178,57.397,23.357z"/>
<path fill="#FDCA47" d="M47,7.204c-13.55,0-8.091,1.57-11.708,9.529c0,0,0.025,3.65,0.783,7.565
	c0.977,5.048,6.657,8.924,10.925,8.924s9.948-3.876,10.925-8.924c0.758-3.915,0.783-7.565,0.783-7.565
	C55.091,8.774,60.55,7.204,47,7.204z"/>
<path fill="#F5F5F5" d="M56.626,17.883c-1.253,3.264-6.351,2.784-7.285,0.502C50.051,14.716,55.938,14.401,56.626,17.883z"/>
<path fill="#45332C" d="M50.642,17.534c0,2.879,4.164,2.879,4.164,0C54.806,14.862,50.642,14.862,50.642,17.534z"/>
<path fill="#45332C" d="M56.626,17.858c0-3.504-7.285-3.504-7.285,0.555C50.382,15.083,55.585,15.083,56.626,17.858z"/>
<path fill="#F5F5F5" d="M37.372,17.883c1.254,3.264,6.352,2.784,7.285,0.502C43.948,14.716,38.063,14.401,37.372,17.883z"/>
<path fill="#45332C" d="M43.356,17.534c0,2.879-4.162,2.879-4.162,0C39.194,14.862,43.356,14.862,43.356,17.534z"/>
<path fill="#45332C" d="M37.372,17.858c0-3.504,7.285-3.504,7.285,0.554C43.618,15.083,38.413,15.083,37.372,17.858z"/>
<path fill="#E6A400" d="M56.349,14.66c-2.236-0.922-5.297-1.102-6.868-0.487c-0.331,0.129-0.321,0.924-0.028,0.844
	c2.254-0.614,4.848-0.661,6.98,0.081C56.72,15.198,56.685,14.798,56.349,14.66z"/>
<path fill="#E6A400" d="M37.65,14.66c2.235-0.922,5.296-1.102,6.868-0.487c0.332,0.129,0.321,0.924,0.027,0.844
	c-2.252-0.614-4.846-0.662-6.979,0.081C37.28,15.198,37.314,14.798,37.65,14.66z"/>
<path fill="#EA8800" d="M57.36,6.01c4.832,6.628-17.6,4.897-22.266,3.931C35.095,9.94,41.948,0.595,57.36,6.01z"/>
<path fill="#D67C00" d="M35.095,9.94c6.701,1.41,27.189,1.215,20.741-5.773C66.35,12.554,40.769,13.302,35.095,9.94z"/>
<path fill="#E6A400" d="M49.602,22.876c0,1.693-5.204,1.693-5.204,0C44.397,22.487,49.602,22.487,49.602,22.876z"/>
<path fill="#D99025" d="M46.999,26.019c-1.746-0.503-5.131,0.281-5.131,0.281c1.167,1.239,2.023,2.848,5.131,2.848
	c3.109,0,3.965-1.608,5.131-2.848C52.13,26.3,48.745,25.516,46.999,26.019z"/>
<path fill="#EA8800" d="M59.534,15.736l-1.168-0.359c0.086,1.482,0.042,3.906-0.113,5.197c-1.117,4.986-4.124,6.07-4.124,6.07
	s-0.429-1.063-1.567-1.625c-1.433-0.71-2.722-0.534-5.563-0.53c-2.84-0.004-4.129-0.18-5.563,0.53
	c-1.138,0.562-1.566,1.625-1.566,1.625s-3.006-1.083-4.124-6.065c-0.155-1.292-0.2-3.718-0.114-5.202l-1.168,0.359
	c0,0-0.264,4.466,0.732,7.968c2.146,7.554,6.924,9.519,11.803,9.519s9.657-1.965,11.805-9.519
	C59.798,20.202,59.534,15.736,59.534,15.736z M41.735,26.063c1.082-0.356,2.965-0.479,5.264-0.479s4.183,0.122,5.264,0.479
	c0.846,0.278-2.148,4.703-3.703,4.072c-0.676-0.278-0.896-0.837-0.896-0.837h-1.327c0,0-0.221,0.559-0.896,0.837
	C43.884,30.766,40.89,26.341,41.735,26.063z"/>
<path fill="#FFFFFF" d="M42.522,26.341c0.14,0.354,1.986,1.673,4.477,1.673c2.491,0,4.338-1.319,4.478-1.673
	C49.245,26.454,44.771,26.456,42.522,26.341z"/>
<path fill="#F5F5F5" d="M39.58,16.688"/>
</svg>
