<?xml version="1.0" encoding="utf-8"?>
<!-- Generator: Adobe Illustrator 15.0.0, SVG Export Plug-In . SVG Version: 6.00 Build 0)  -->
<!DOCTYPE svg PUBLIC "-//W3C//DTD SVG 1.1//EN" "http://www.w3.org/Graphics/SVG/1.1/DTD/svg11.dtd">
<svg version="1.1" id="Layer_1" xmlns="http://www.w3.org/2000/svg" xmlns:xlink="http://www.w3.org/1999/xlink" x="0px" y="0px"
	 width="64px" height="64px" viewBox="0 0 64 64" enable-background="new 0 0 64 64" xml:space="preserve">
<path fill="#AA5BEF" d="M9.244,25.801c-0.572,7.051,0.697,12.129,5.262,16.328c5.375,4.949,20.928,4.949,26.303,0
	c4.564-4.199,5.834-9.277,5.262-16.328C44.42,5.482,10.326,12.496,9.244,25.801z"/>
<path fill="#302C3B" d="M9.275,51.869c2.234-1.492,11.51-5.439,11.51-5.439h13.818c0,0,9.266,3.938,11.488,5.436
	C49.322,54.041,50.004,62,50.004,62H5.313C5.313,62,6.033,54.033,9.275,51.869z"/>
<polygon fill="#BF8D69" points="21.422,49.656 27.656,61.006 33.895,49.656 33.895,40 21.422,40 "/>
<path fill="#1A1626" d="M9.275,51.869c7.889-5.24,12.916-0.594,12.916-0.594L27.656,62C27.656,62,19.287,50.822,9.275,51.869z"/>
<path fill="#4E5E67" d="M7.881,51.115c7.523-9.824,13.531-8.471,13.531-8.471c-2.334,6.166,0.176,9.176,6.244,18.125V62
	C27.656,62,19.215,49.025,7.881,51.115z"/>
<path fill="#8E3ED6" d="M9.506,50.227c5.713-7.121,11.906-7.357,11.906-7.357c0,7.129,0.809,7.074,6.244,17.9
	C27.656,60.77,19.93,48.811,9.506,50.227z"/>
<path fill="#1A1626" d="M10.656,62c0.475-2.006-0.084-5.057-0.678-6.734C9.426,53.699,9.635,60.896,10.656,62z"/>
<path fill="#1A1626" d="M45.338,55.266c-0.596,1.678-1.154,4.729-0.678,6.734C45.68,60.896,45.891,53.699,45.338,55.266z"/>
<path fill="#1A1626" d="M46.041,51.869c-7.891-5.24-12.918-0.594-12.918-0.594L27.658,62C27.658,62,36.027,50.822,46.041,51.869z"/>
<path fill="#4E5E67" d="M47.434,51.115c-7.523-9.824-13.531-8.471-13.531-8.471c2.336,6.166-0.176,9.176-6.244,18.125V62
	C27.658,62,36.102,49.025,47.434,51.115z"/>
<path fill="#8E3ED6" d="M45.809,50.227c-5.713-7.121-11.906-7.357-11.906-7.357c0,7.129-0.807,7.074-6.244,17.9
	C27.658,60.77,35.385,48.811,45.809,50.227z"/>
<path fill="#EBBEA0" d="M45.336,21.627c-4.053-1.607-9.373-12.605-9.373-12.605C28.297,15.197,11.385,21.705,9.98,21.627
	c-4.422-2.199-1.475,13.934,1.469,10.904c1.791,8.34,12.117,14.822,16.211,14.822c4.086,0,14.412-6.482,16.203-14.822
	C46.811,35.561,49.758,19.428,45.336,21.627z"/>
<path fill="#F5F5F5" d="M41.456,25.731c-1.797,4.68-9.104,3.992-10.444,0.721C32.029,21.192,40.469,20.743,41.456,25.731z"/>
<path fill="#45332C" d="M32.877,25.233c0,4.128,5.969,4.128,5.969,0C38.846,21.402,32.877,21.402,32.877,25.233z"/>
<path fill="#45332C" d="M41.456,25.698c0-5.024-10.444-5.024-10.444,0.795C32.506,21.719,39.964,21.719,41.456,25.698z"/>
<path fill="#F5F5F5" d="M13.856,25.731c1.796,4.68,9.105,3.992,10.443,0.721C23.283,21.192,14.845,20.743,13.856,25.731z"/>
<path fill="#45332C" d="M22.435,25.233c0,4.128-5.968,4.128-5.968,0C16.466,21.402,22.435,21.402,22.435,25.233z"/>
<path fill="#45332C" d="M13.856,25.698c0-5.022,10.443-5.022,10.443,0.793C22.808,21.719,15.348,21.719,13.856,25.698z"/>
<path fill="#F5F5F5" d="M33.246,24.229c0,1.033,1.491,1.033,1.491,0C34.737,23.273,33.246,23.273,33.246,24.229z"/>
<path fill="#F5F5F5" d="M18.512,24.021c0,1.031-1.491,1.031-1.491,0C17.021,23.063,18.512,23.063,18.512,24.021z"/>
<path fill="#7D0C7A" d="M35.115,37.731c-1.402,1.588-2.279,4.397-7.459,4.397c-4.519,0-5.764-2.475-7.46-4.397H35.115z"/>
<path fill="#FFFFFF" d="M34.183,37.78c-3.069,3.144-9.944,3.187-13.054,0H34.183z"/>
<path fill="#7D0C7A" d="M27.656,37.479c-2.923-1.282-2.945-0.052-7.46,0.253c5.7,0.639,9.22,0.639,14.919,0
	C30.602,37.427,30.578,36.196,27.656,37.479z"/>
<path fill="#BF8D69" d="M40.822,21.223c-3.162-1.303-7.491-1.558-9.715-0.688c-0.468,0.184-0.453,1.306-0.04,1.193
	c3.187-0.867,6.855-0.936,9.874,0.114C41.346,21.985,41.297,21.419,40.822,21.223z"/>
<path fill="#BF8D69" d="M14.375,21.225c3.163-1.304,7.491-1.558,9.715-0.689c0.469,0.184,0.455,1.308,0.04,1.193
	c-3.187-0.867-6.855-0.936-9.872,0.115C13.851,21.985,13.899,21.419,14.375,21.225z"/>
<path fill="#BF8D69" d="M31.385,33.216c0,2.395-7.359,2.395-7.359,0C24.026,32.665,31.385,32.665,31.385,33.216z"/>
<path fill="#AA5BEF" d="M40.021,42.654c11.693-15.008-7.064-30.402-4.158-35.377C40.57-0.781,58.385,27.014,40.021,42.654z"/>
<path fill="#C28FEF" d="M45.373,37.605c6.49-16.363-8.443-29.629-7.738-31.807C39.5,0.037,57.773,18.656,45.373,37.605z"/>
<path fill="#C28FEF" d="M28.85,3.756C10.865,3.93,0.955,26.104,9.275,45.648C9.182,42.719,7.311,24.6,29.229,16.836
	C40.68,12.779,41.537,3.631,28.85,3.756z"/>
<path fill="#AA5BEF" d="M5,41.416c1.053-24.873,32.014-25.113,33.254-32.33C40.262-2.604-0.75,4.336,5,41.416z"/>
<path fill="#C28FEF" d="M3,28.188C9.9,7.875,36.723,8.67,37.789,6.133C40.605-0.578,6.5-2.664,3,28.188z"/>
<rect x="55" y="54" fill-rule="evenodd" clip-rule="evenodd" fill="#4E5E67" width="1.332" height="8"/>
<rect x="55.666" y="54" fill-rule="evenodd" clip-rule="evenodd" fill="#302C3B" width="1.334" height="8"/>
<path fill="#302C3B" d="M38.83,45.08c2.021,1.711,5.051,1.615,6.957-0.293c1.906-1.906,2.004-4.934,0.295-6.957L38.83,45.08z"/>
<path fill="#302C3B" d="M38.506,37.506c-1.904,1.908-2.002,4.938-0.295,6.957l7.254-7.25C43.441,35.502,40.414,35.602,38.506,37.506
	z"/>
<path fill="#4E5E67" d="M45.582,37.094l-7.488,7.492c0.094,0.107,0.506,0.521,0.617,0.615l7.49-7.488
	C46.107,37.6,45.693,37.188,45.582,37.094z"/>
<path fill="#6E8189" d="M39.428,43.25l-1.002,1.002c0.1,0.102,0.516,0.516,0.615,0.617l1.006-1.004
	C39.945,43.764,39.533,43.348,39.428,43.25z"/>
<path fill-rule="evenodd" clip-rule="evenodd" fill="#4E5E67" d="M37.98,43.361c0.422,0.555,0.307-3.094,0.408-4.842
	C38.455,37.396,36.271,41.109,37.98,43.361z"/>
<polygon fill="#302C3B" points="41.881,46.287 43.268,46.947 57.309,58.305 57.795,57.816 60.576,60 61,59.576 58.816,56.797 
	59.303,56.311 47.947,42.268 47.287,40.881 "/>
<polygon fill="#4E5E67" points="44.551,45.666 43.361,44.807 42.176,45.992 43.564,46.652 57.564,58.047 58.053,57.557 "/>
<polygon fill="#4E5E67" points="47.965,51.033 50.057,52.908 53.906,49.057 52.033,46.967 "/>
<polygon fill="#6E8189" points="48.223,50.777 50.32,52.643 51.182,51.783 49.082,49.92 "/>
<rect x="57.061" y="57.23" transform="matrix(0.7068 -0.7075 0.7075 0.7068 -23.513 58.2192)" fill="#4E5E67" width="2.822" height="0.486"/>
<polygon fill="#6E8189" points="58.053,57.557 57.564,58.047 57.895,58.396 58.393,57.896 "/>
</svg>
