<?xml version="1.0" encoding="utf-8"?>
<!-- Generator: Adobe Illustrator 15.0.0, SVG Export Plug-In . SVG Version: 6.00 Build 0)  -->
<!DOCTYPE svg PUBLIC "-//W3C//DTD SVG 1.1//EN" "http://www.w3.org/Graphics/SVG/1.1/DTD/svg11.dtd">
<svg version="1.1" id="Layer_1" xmlns="http://www.w3.org/2000/svg" xmlns:xlink="http://www.w3.org/1999/xlink" x="0px" y="0px"
	 width="64px" height="64px" viewBox="0 0 64 64" enable-background="new 0 0 64 64" xml:space="preserve">
<path fill="#38332D" d="M36.41,13.084C31.365,6.955,6.344,9.411,6.344,27.486c0.104,9.709,1.777,31.766,20.104,31.766
	c18.324,0,19.999-21.963,20.209-31.766C46.656,21.465,42.992,14.348,36.41,13.084z"/>
<path fill="#26221E" d="M6.635,33.417c0.9,10.715,4.656,25.835,19.83,25.835c15.224,0,18.953-15.154,19.9-25.904
	c-0.497-4.951-3.574-11.345-10.248-18.881C22.438,22.9,7.66,21.587,6.635,33.417z"/>
<path fill="#CFD8DD" d="M8.4,52.568c2.201-1.391,11.332-5.063,11.332-5.063h13.604c0,0,9.123,3.664,11.313,5.061
	C47.83,54.59,48.5,62,48.5,62h-44C4.5,62,5.209,54.584,8.4,52.568z"/>
<path fill="#8E3ED6" d="M10.838,51.258c1.98-1.076,3.775-1.748,3.775-1.748L15.859,62h-4.693L10.838,51.258z"/>
<path fill="#8E3ED6" d="M42.16,51.258c-1.979-1.076-3.773-1.748-3.773-1.748L37.139,62h4.693L42.16,51.258z"/>
<path fill="#3B2B1C" d="M19.459,49.129c0,5.641,14.08,5.641,14.08,0c0-3.441,0-9.129,0-9.129h-14.08
	C19.459,40,19.459,44.686,19.459,49.129z"/>
<path fill="#8E3ED6" d="M10.262,59.109c1.648-0.826,30.85-0.828,32.498-0.002C43.777,59.619,44.461,62,44.461,62h-35.9
	C8.561,62,9.244,59.619,10.262,59.109z"/>
<path fill="#614A36" d="M40.468,26.027c-2.088-4.925-5.919-10.269-5.919-10.269c-14.016,8.422-25.861,4.195-22.572,20.155
	c1.562,7.572,10.93,13.439,14.622,13.439c3.687,0,13.292-5.822,14.616-13.439C41.98,31.501,41.441,28.321,40.468,26.027z"/>
<path fill="#F5F5F5" d="M39.409,29.32c-1.668,4.346-8.454,3.707-9.697,0.668C30.656,25.104,38.494,24.688,39.409,29.32z"/>
<path fill="#45332C" d="M31.443,28.858c0,3.832,5.543,3.832,5.543,0C36.986,25.3,31.443,25.3,31.443,28.858z"/>
<path fill="#45332C" d="M39.409,29.288c0-4.664-9.697-4.664-9.697,0.739C31.098,25.594,38.024,25.594,39.409,29.288z"/>
<path fill="#F5F5F5" d="M13.781,29.32c1.668,4.346,8.455,3.707,9.697,0.668C22.535,25.104,14.699,24.688,13.781,29.32z"/>
<path fill="#45332C" d="M21.748,28.858c0,3.832-5.543,3.832-5.543,0C16.205,25.3,21.748,25.3,21.748,28.858z"/>
<path fill="#45332C" d="M13.781,29.288c0-4.663,9.697-4.663,9.697,0.737C22.094,25.594,15.168,25.594,13.781,29.288z"/>
<path fill="#F5F5F5" d="M31.785,27.926c0,0.959,1.387,0.959,1.387,0C33.172,27.037,31.785,27.037,31.785,27.926z"/>
<path fill="#F5F5F5" d="M18.104,27.731c0,0.957-1.385,0.957-1.385,0C16.72,26.842,18.104,26.842,18.104,27.731z"/>
<path fill="#3B2C20" d="M33.521,40.463c-1.302,1.474-2.116,4.083-6.926,4.083c-4.194,0-5.351-2.299-6.926-4.083H33.521z"/>
<path fill="#FFFFFF" d="M32.656,40.509c-2.851,2.919-9.234,2.958-12.123,0H32.656z"/>
<path fill="#3B2C20" d="M26.596,40.227c-2.715-1.189-2.735-0.046-6.927,0.236c5.293,0.593,8.56,0.593,13.852,0
	C29.33,40.181,29.309,39.037,26.596,40.227z"/>
<path fill="#3B2B1C" d="M38.82,25.134c-2.936-1.211-6.956-1.446-9.02-0.639c-0.436,0.171-0.422,1.212-0.038,1.108
	c2.959-0.806,6.365-0.868,9.169,0.105C39.309,25.842,39.262,25.315,38.82,25.134z"/>
<path fill="#3B2B1C" d="M14.263,25.135c2.937-1.21,6.956-1.446,9.021-0.64c0.436,0.171,0.422,1.214,0.037,1.108
	c-2.96-0.806-6.365-0.868-9.166,0.106C13.776,25.842,13.822,25.315,14.263,25.135z"/>
<path fill="#3B2B1C" d="M30.058,36.27c0,2.223-6.833,2.223-6.833,0C23.225,35.759,30.058,35.759,30.058,36.27z"/>
<path fill="#99A8AE" d="M41.307,57.352l-1.875-0.49l2.535-9.092c0.418-1.518,1.299-4.672,5.639-5.869l0.533,1.814
	c-3.287,0.902-3.895,3.094-4.301,4.543L41.307,57.352z"/>
<path fill="#F9B700" d="M61,38.332c0,0-3.223-1.223-9.705,1.023c-3.141,1.096-1.564,5.348,1.578,4.258
	C59.104,41.449,61,38.332,61,38.332z"/>
<path fill="#FFE12C" d="M51.939,42.734c-2.381,0.836-3.172-1.303-0.787-2.125c2.783-0.971,7.879-1.596,7.879-1.596
	S54.725,41.768,51.939,42.734"/>
<polygon fill="#6E8189" points="48.033,44.641 46.951,41.023 49.084,41.404 49.629,43.209 "/>
<polygon fill="#302C3B" points="41.021,62 42.537,56.545 38.787,55.563 37,62 "/>
<path opacity="0.2" d="M43.816,24.882c-11.25-3.785-23.367-3.785-34.617,0c-0.471-1.5-0.939-2.999-1.41-4.498
	c12.166-4.094,25.27-4.094,37.438,0C44.756,21.883,44.285,23.382,43.816,24.882z"/>
<path fill="#99A8AE" d="M43.625,23.936c-11.248-3.785-23.367-3.785-34.615,0c-0.471-1.499-0.941-2.998-1.41-4.497
	c12.164-4.094,25.27-4.094,37.436,0C44.566,20.938,44.096,22.437,43.625,23.936z"/>
<polygon fill="#6E8189" points="3,21.188 3,27.235 6.939,28.419 6.939,20.007 "/>
<polygon fill="#6E8189" points="50,21.188 50,27.235 46.059,28.419 46.059,20.007 "/>
<path fill="#302C3B" d="M46.961,32c0-19.37-2.934-29.361-20.459-29.361C8.975,2.639,6.041,12.63,6.041,32
	c0,0,2.934-17.497,20.461-17.497C44.027,14.503,46.961,32,46.961,32z"/>
<path fill="#6E8189" d="M26.5,7.735c6.379,0,10.975,1.195,14.275,3.549l-2.027-6.638c-12.246-2.646-24.494,0-24.494,0l-2.027,6.638
	C15.525,8.931,20.121,7.735,26.5,7.735z"/>
<polygon fill="#4E5E67" points="38.748,4.646 37.008,2 16.008,2 14.27,4.646 "/>
<polygon fill="#302C3B" points="37.436,4.646 36.566,3.323 16.447,3.323 15.58,4.646 "/>
<path fill="#4E5E67" d="M46.961,32c0-12.831-10.814-17.559-20.459-17.559c-9.643,0-20.461,4.728-20.461,17.559
	c0,0,2.934-15.375,20.461-15.375C44.027,16.625,46.961,32,46.961,32z"/>
</svg>
