<?xml version="1.0" encoding="utf-8"?>
<!-- Generator: Adobe Illustrator 15.0.0, SVG Export Plug-In . SVG Version: 6.00 Build 0)  -->
<!DOCTYPE svg PUBLIC "-//W3C//DTD SVG 1.1//EN" "http://www.w3.org/Graphics/SVG/1.1/DTD/svg11.dtd">
<svg version="1.1" id="Layer_1" xmlns="http://www.w3.org/2000/svg" xmlns:xlink="http://www.w3.org/1999/xlink" x="0px" y="0px"
	 width="64px" height="64px" viewBox="0 0 64 64" enable-background="new 0 0 64 64" xml:space="preserve">
<path fill="#EA8800" d="M39.163,4.442C35.517-0.52,17.43,1.47,17.43,16.103c0.076,7.862,1.286,25.721,14.533,25.721
	c13.245,0,14.456-17.783,14.608-25.721C46.571,11.228,43.923,5.466,39.163,4.442z"/>
<path fill="#D67C00" d="M17.64,20.905c0.651,8.675,3.365,20.918,14.335,20.918c11.005,0,13.702-12.27,14.387-20.975
	c-0.36-4.009-2.585-9.184-7.409-15.286C29.063,12.391,18.381,11.327,17.64,20.905z"/>
<path fill="#8E3ED6" d="M43.692,35.967c-1.492-1.042-7.03-3.783-7.03-3.783h-9.274c0,0-5.546,2.746-7.045,3.786
	c-2.509,1.735-3.011,7.1-3.343,12.773l1,13.256h28l1-13.256C46.688,43.083,46.175,37.701,43.692,35.967z"/>
<path fill="#E6A400" d="M36.432,33.19c0-0.816,0-4.438,0-4.438h-8.863c0,0,0,3.569,0,4.438
	C27.568,36.782,36.432,36.782,36.432,33.19z"/>
<rect x="17" y="48.763" fill="#FDCA47" width="4.091" height="13.236"/>
<rect x="42.909" y="48.763" fill="#FDCA47" width="4.091" height="13.236"/>
<path fill="#FDCA47" d="M42.461,15.86c-1.563-3.69-4.433-7.692-4.433-7.692c-10.496,6.309-19.369,3.144-16.905,15.1
	c1.17,5.673,8.186,10.067,10.95,10.067c2.762,0,9.955-4.36,10.946-10.067C43.593,19.962,43.189,17.579,42.461,15.86z"/>
<path fill="#F5F5F5" d="M41.669,18.327c-1.25,3.256-6.332,2.778-7.264,0.502C35.114,15.17,40.981,14.857,41.669,18.327z"/>
<path fill="#45332C" d="M35.702,17.981c0,2.87,4.15,2.87,4.15,0C39.853,15.316,35.702,15.316,35.702,17.981z"/>
<path fill="#45332C" d="M41.669,18.304c0-3.494-7.264-3.494-7.264,0.554C35.443,15.536,40.63,15.536,41.669,18.304z"/>
<path fill="#F5F5F5" d="M22.476,18.327c1.248,3.256,6.332,2.778,7.262,0.502C29.031,15.17,23.163,14.857,22.476,18.327z"/>
<path fill="#45332C" d="M28.44,17.981c0,2.87-4.15,2.87-4.15,0C24.29,15.316,28.44,15.316,28.44,17.981z"/>
<path fill="#45332C" d="M22.476,18.304c0-3.493,7.262-3.493,7.262,0.552C28.7,15.536,23.513,15.536,22.476,18.304z"/>
<path fill="#D99025" d="M37.259,26.675c-0.977,1.104-1.586,3.06-5.188,3.06c-3.143,0-4.007-1.722-5.188-3.06H37.259z"/>
<path fill="#FFFFFF" d="M36.61,26.709c-2.135,2.187-6.916,2.217-9.078,0H36.61z"/>
<path fill="#D99025" d="M32.071,26.499c-2.031-0.892-2.047-0.035-5.188,0.176c3.965,0.445,6.412,0.445,10.375,0
	C34.12,26.464,34.104,25.607,32.071,26.499z"/>
<path fill="#E6A400" d="M41.228,15.19c-2.199-0.906-5.211-1.083-6.756-0.478c-0.325,0.128-0.315,0.908-0.027,0.83
	c2.216-0.604,4.768-0.651,6.866,0.08C41.593,15.722,41.558,15.328,41.228,15.19z"/>
<path fill="#E6A400" d="M22.837,15.192c2.197-0.906,5.208-1.084,6.754-0.479c0.328,0.128,0.316,0.91,0.027,0.83
	c-2.217-0.604-4.766-0.651-6.864,0.081C22.472,15.722,22.506,15.328,22.837,15.192z"/>
<path fill="#E6A400" d="M34.665,23.534c0,1.665-5.117,1.665-5.117,0C29.548,23.151,34.665,23.151,34.665,23.534z"/>
<path fill="#E32B56" d="M41.386,61.997c-1.198-0.834-5.647-3.027-5.647-3.027h-7.451c0,0-4.455,2.197-5.66,3.029L41.386,61.997z"/>
<path fill="#E6A400" d="M35.538,59.077c0-0.654,0-3.551,0-3.551h-7.091c0,0,0,2.854,0,3.551
	C28.447,61.95,35.538,61.95,35.538,59.077z"/>
<path fill="#EA8800" d="M23.807,49.396c-7.722,4.559-0.933,8.707-3.131,10.672C24.947,62.72,35.403,58.149,23.807,49.396z"/>
<path fill="#D67C00" d="M21.501,51.128c1.896,7.277,5.796,7.527,5.47,8.844C30.598,58.073,30.631,51.938,21.501,51.128z"/>
<path fill="#EA8800" d="M40.191,49.396c7.723,4.559,0.934,8.707,3.133,10.672C39.053,62.72,28.596,58.149,40.191,49.396z"/>
<path fill="#D67C00" d="M42.499,51.128c-1.896,7.277-5.796,7.527-5.471,8.844C33.402,58.073,33.369,51.938,42.499,51.128z"/>
<path fill="#EA8800" d="M21.436,49.212h21.116C45.625,32.687,18.363,32.687,21.436,49.212z"/>
<path fill="#D67C00" d="M21.41,49.009c0,0,12.02,4.486,20.353-0.713c-1.683,0.318-4.416-6.125-17.214-6.607
	C24.08,49.009,21.83,47.022,21.41,49.009z"/>
<path fill="#CFD8DD" d="M41.562,48.034c0.896-12.365-20.034-12.365-19.139,0C23.203,37.649,40.781,37.649,41.562,48.034z"/>
<path fill="#FFFFFF" d="M41.562,47.634c0.896-12.365-20.034-12.365-19.139,0C23.203,37.249,40.781,37.249,41.562,47.634z"/>
<path fill="#F5BC2C" d="M22.646,48.114c-3.643-0.471-1.269,6.842,1.584,4.826C25.552,52.005,24.352,48.335,22.646,48.114z"/>
<path fill="#F5BC2C" d="M41.34,48.114c-1.705,0.221-2.905,3.891-1.583,4.826C42.609,54.956,44.982,47.644,41.34,48.114z"/>
<path fill="#FDCA47" d="M41.222,48.136c-3.491-0.992-7.958-5.742-16.448-5.168c0.148,1.867-0.342,3.984-1.98,5.176
	c0,0-0.008,1.678,0.591,4.748c0.978,5.027,5.039,7,8.609,7c3.571,0,7.634-1.973,8.61-7C41.201,49.819,41.222,48.136,41.222,48.136z"
	/>
<path fill="#F5F5F5" d="M39.394,49.798c-0.963,2.51-4.882,2.141-5.601,0.385C34.339,47.362,38.864,47.122,39.394,49.798z"/>
<path fill="#45332C" d="M34.793,49.53c0,2.213,3.201,2.213,3.201,0C37.994,47.476,34.793,47.476,34.793,49.53z"/>
<path fill="#45332C" d="M39.394,49.778c0-2.693-5.601-2.693-5.601,0.428C34.594,47.646,38.594,47.646,39.394,49.778z"/>
<path fill="#F5F5F5" d="M24.594,49.798c0.964,2.51,4.883,2.141,5.6,0.385C29.648,47.362,25.124,47.122,24.594,49.798z"/>
<path fill="#45332C" d="M29.193,49.53c0,2.213-3.199,2.213-3.199,0C25.994,47.476,29.193,47.476,29.193,49.53z"/>
<path fill="#45332C" d="M24.594,49.778c0-2.693,5.6-2.693,5.6,0.426C29.395,47.646,25.394,47.646,24.594,49.778z"/>
<path fill="#D99025" d="M31.994,55.325c-1.611-0.428-4,0.201-4,0.201c0.91,0.893,1.576,2.049,4,2.049c2.777,0,3.248-1.313,4-2.049
	C35.994,55.526,33.604,54.896,31.994,55.325z"/>
<g>
	<path fill="#FFFFFF" d="M28.557,55.56c1.712,1.59,5.173,1.602,6.896,0C33.626,55.647,30.396,55.647,28.557,55.56z"/>
</g>
<path fill="#E6A400" d="M39.181,47.462c-1.72-0.709-4.071-0.848-5.279-0.375c-0.256,0.1-0.247,0.709-0.022,0.648
	c1.732-0.473,3.727-0.508,5.366,0.063C39.465,47.876,39.438,47.567,39.181,47.462z"/>
<path fill="#E6A400" d="M24.808,47.462c1.718-0.709,4.071-0.848,5.279-0.375c0.255,0.1,0.247,0.709,0.021,0.648
	c-1.731-0.473-3.726-0.508-5.365,0.063C24.521,47.876,24.549,47.567,24.808,47.462z"/>
<path fill="#E6A400" d="M33.994,53.413c0,1.303-4,1.303-4,0C29.994,53.116,33.994,53.116,33.994,53.413z"/>
</svg>
