<?xml version="1.0" encoding="utf-8"?>
<!-- Generator: Adobe Illustrator 15.0.0, SVG Export Plug-In . SVG Version: 6.00 Build 0)  -->
<!DOCTYPE svg PUBLIC "-//W3C//DTD SVG 1.1//EN" "http://www.w3.org/Graphics/SVG/1.1/DTD/svg11.dtd">
<svg version="1.1" id="Layer_1" xmlns="http://www.w3.org/2000/svg" xmlns:xlink="http://www.w3.org/1999/xlink" x="0px" y="0px"
	 width="64px" height="64px" viewBox="0 0 64 64" enable-background="new 0 0 64 64" xml:space="preserve">
<path fill="#594640" d="M43.213,5.497c-5.709-7.104-34.02-4.257-34.02,16.694c0.119,11.256,2.012,36.824,22.747,36.824
	c20.731,0,22.628-25.459,22.866-36.824C54.807,15.211,50.66,6.96,43.213,5.497z"/>
<path fill="#422F2A" d="M9.522,29.067c1.021,12.42,5.269,29.947,22.438,29.947c17.226,0,21.444-17.566,22.518-30.029
	c-0.563-5.739-4.046-13.15-11.597-21.887C27.404,16.876,10.685,15.354,9.522,29.067z"/>
<path fill="#8E3ED6" d="M12.32,51.746c2.395-1.514,12.322-5.506,12.322-5.506h14.791c0,0,9.918,3.985,12.299,5.502
	C55.191,53.943,55.92,62,55.92,62H8.08C8.08,62,8.852,53.936,12.32,51.746z"/>
<path fill="#BEC3CF" d="M14.971,50.32c2.154-1.171,4.105-1.9,4.105-1.9L20.432,62h-5.104L14.971,50.32z"/>
<path fill="#BEC3CF" d="M49.027,50.32c-2.15-1.171-4.104-1.9-4.104-1.9L43.568,62h5.102L49.027,50.32z"/>
<path fill="#DBA97F" d="M24.346,48.005c0,6.134,15.309,6.134,15.309,0c0-3.741,0-9.926,0-9.926H24.346
	C24.346,38.079,24.346,43.175,24.346,48.005z"/>
<path fill="#BEC3CF" d="M15.281,58.857c1.697-0.898,31.766-0.9,33.461-0.002C49.791,59.411,50.494,62,50.494,62H13.527
	C13.527,62,14.234,59.412,15.281,58.857z"/>
<path fill="#E5BC5E" d="M7.459,62C7.459,62,2,55.03,2,48.258C2,39.084,17.461,46.963,26.436,62H7.459z"/>
<path fill="#018BC9" d="M10.211,50.086c-0.406-1.6-1.758-3.088-3.014-3.323c-1.254-0.233-1.939,0.874-1.531,2.474
	s1.762,3.087,3.016,3.323C9.936,52.793,10.619,51.687,10.211,50.086"/>
<path fill="#E81C27" d="M16.035,52.774c-0.352-1.507-1.592-2.929-2.764-3.174s-1.834,0.778-1.48,2.286
	c0.352,1.508,1.592,2.929,2.762,3.176C15.725,55.308,16.387,54.282,16.035,52.774"/>
<path fill="#FFE12C" d="M21.475,57.437c-0.443-1.449-1.748-2.753-2.91-2.911c-1.16-0.16-1.742,0.887-1.299,2.338
	c0.441,1.449,1.744,2.754,2.906,2.914C21.334,59.936,21.914,58.887,21.475,57.437"/>
<path fill="#7AB51D" d="M11.35,57.85c-0.541-1.668-2.031-3.129-3.318-3.264c-1.285-0.131-1.883,1.114-1.34,2.783
	c0.545,1.67,2.033,3.13,3.318,3.266C11.297,60.768,11.895,59.521,11.35,57.85"/>
<path fill="#594640" d="M54.104,62c3.652-13.506,4.789-20.884,3.779-21.148C56.85,40.582,53.959,47.86,50.082,62H54.104z"/>
<path fill="#302C3B" d="M57.172,42.142c0,0-2.66-3.378,0.203-7.497c1.496-2.153,2.631-1.742,3.354-4.381
	c0.539-1.976,3.826,7.635-2.938,12.041L57.172,42.142z"/>
<path fill="#1A1626" d="M60.594,35.611c-0.518,1.891-1.455,3.141-2.072,3.809c0.029-1.663,0.424-3.666,0.424-3.666
	c-0.719,1.39-1.059,2.819-1.223,3.801c-0.449-1.277-0.24-2.953-0.24-2.953c-1.705,3.124-0.045,5.117-0.045,5.117
	C60.986,39.326,60.594,35.611,60.594,35.611"/>
<path fill="#99A8AE" d="M54.391,47.898c0.457,0.189,0.932,0.358,1.428,0.488c0.498,0.131,0.994,0.217,1.49,0.275
	c0,0,2.047-7.424,0.574-7.811C56.414,40.466,54.391,47.898,54.391,47.898"/>
<path fill="#FCD5B2" d="M47.804,21.423C45.44,15.85,41.107,9.804,41.107,9.804c-15.857,9.528-29.262,4.747-25.54,22.805
	c1.767,8.568,12.366,15.206,16.544,15.206c4.172,0,15.039-6.587,16.537-15.206C49.516,27.616,48.905,24.019,47.804,21.423z"/>
<path fill="#F5F5F5" d="M46.606,25.148c-1.888,4.917-9.565,4.194-10.973,0.757C36.703,20.379,45.57,19.907,46.606,25.148z"/>
<path fill="#45332C" d="M37.594,24.625c0,4.336,6.27,4.336,6.27,0C43.863,20.6,37.594,20.6,37.594,24.625z"/>
<path fill="#45332C" d="M46.606,25.113c0-5.279-10.973-5.279-10.973,0.835C37.203,20.933,45.039,20.933,46.606,25.113z"/>
<path fill="#F5F5F5" d="M17.609,25.148c1.888,4.917,9.566,4.194,10.973,0.757C27.514,20.379,18.648,19.907,17.609,25.148z"/>
<path fill="#45332C" d="M26.622,24.625c0,4.336-6.271,4.336-6.271,0C20.352,20.6,26.622,20.6,26.622,24.625z"/>
<path fill="#45332C" d="M17.609,25.113c0-5.276,10.973-5.276,10.973,0.833C27.015,20.933,19.178,20.933,17.609,25.113z"/>
<path fill="#F5F5F5" d="M37.98,23.571c0,1.085,1.567,1.085,1.567,0C39.548,22.566,37.98,22.566,37.98,23.571z"/>
<path fill="#F5F5F5" d="M22.501,23.352c0,1.083-1.566,1.083-1.566,0C20.935,22.345,22.501,22.345,22.501,23.352z"/>
<path fill="#CC9D76" d="M39.943,37.757c-1.473,1.667-2.395,4.619-7.836,4.619c-4.746,0-6.055-2.601-7.836-4.619H39.943z"/>
<path fill="#FFFFFF" d="M38.965,37.808c-3.225,3.303-10.447,3.348-13.715,0H38.965z"/>
<path fill="#CC9D76" d="M32.109,37.489c-3.072-1.346-3.096-0.053-7.838,0.268c5.988,0.67,9.685,0.67,15.672,0
	C35.203,37.437,35.178,36.144,32.109,37.489z"/>
<path fill="#DBA97F" d="M45.94,20.412c-3.323-1.37-7.87-1.637-10.206-0.722c-0.492,0.193-0.477,1.371-0.043,1.253
	c3.349-0.911,7.203-0.982,10.375,0.12C46.491,21.213,46.439,20.618,45.94,20.412z"/>
<path fill="#DBA97F" d="M18.154,20.414c3.322-1.37,7.87-1.637,10.207-0.725c0.492,0.193,0.477,1.373,0.041,1.253
	c-3.349-0.911-7.202-0.982-10.371,0.122C17.604,21.213,17.655,20.618,18.154,20.414z"/>
<path fill="#DBA97F" d="M36.025,33.011c0,2.517-7.731,2.517-7.731,0C28.294,32.433,36.025,32.433,36.025,33.011z"/>
</svg>
