<?xml version="1.0" encoding="utf-8"?>
<!-- Generator: Adobe Illustrator 15.0.0, SVG Export Plug-In . SVG Version: 6.00 Build 0)  -->
<!DOCTYPE svg PUBLIC "-//W3C//DTD SVG 1.1//EN" "http://www.w3.org/Graphics/SVG/1.1/DTD/svg11.dtd">
<svg version="1.1" id="Layer_1" xmlns="http://www.w3.org/2000/svg" xmlns:xlink="http://www.w3.org/1999/xlink" x="0px" y="0px"
	 width="64px" height="64px" viewBox="0 0 64 64" enable-background="new 0 0 64 64" xml:space="preserve">
<path fill="#875B49" d="M62,29.715c0-9.58-5.454-20.905-15.251-22.916C39.242-2.952,2,0.955,2,29.715
	c0,19.004,4.401,26.917,6.243,27.914c8.097,4.383,39.755,4.879,47.395,0C57.161,56.656,62,48.185,62,29.715z"/>
<path fill="#6B4435" d="M45.854,9.001C21.091,25.829-5.806,16.308,6.091,57.023c1.951,6.678,47.916,6.538,50.776,0.164
	C62.384,44.895,64.712,32.479,45.854,9.001z"/>
<path fill="#B88A6F" d="M52.377,27.563c-3.057-6.882-8.661-14.348-8.661-14.348C23.209,24.981,5.873,19.077,10.687,41.376
	c2.285,10.58,15.993,18.776,21.395,18.776c5.394,0,19.449-8.134,21.387-18.776C54.59,35.21,53.801,30.768,52.377,27.563z"/>
<path fill="#F5F5F5" d="M50.828,31.951c-2.441,6.356-12.37,5.423-14.189,0.978C38.021,25.783,49.486,25.171,50.828,31.951z"/>
<path fill="#45332C" d="M39.172,31.272c0,5.607,8.109,5.607,8.109,0C47.281,26.067,39.172,26.067,39.172,31.272z"/>
<path fill="#45332C" d="M50.828,31.904c0-6.826-14.189-6.826-14.189,1.08C38.666,26.498,48.801,26.498,50.828,31.904z"/>
<path fill="#F5F5F5" d="M13.328,31.951c2.442,6.356,12.371,5.423,14.189,0.978C26.137,25.783,14.672,25.171,13.328,31.951z"/>
<path fill="#45332C" d="M24.984,31.272c0,5.607-8.109,5.607-8.109,0C16.875,26.068,24.984,26.068,24.984,31.272z"/>
<path fill="#45332C" d="M13.328,31.904c0-6.825,14.189-6.825,14.189,1.077C25.492,26.498,15.355,26.498,13.328,31.904z"/>
<path fill="#F5F5F5" d="M39.672,29.909c0,1.402,2.027,1.402,2.027,0C41.699,28.608,39.672,28.608,39.672,29.909z"/>
<path fill="#F5F5F5" d="M19.655,29.625c0,1.401-2.027,1.401-2.027,0C17.628,28.324,19.655,28.324,19.655,29.625z"/>
<path fill="#80553C" d="M42.213,48.253c-1.906,2.156-3.098,5.974-10.136,5.974c-6.138,0-7.829-3.36-10.133-5.974H42.213z"/>
<path fill="#FFFFFF" d="M40.945,48.318c-4.17,4.272-13.51,4.331-17.736,0H40.945z"/>
<path fill="#80553C" d="M32.078,47.91c-3.971-1.743-4.002-0.07-10.135,0.343c7.745,0.868,12.526,0.868,20.27,0
	C36.08,47.84,36.049,46.167,32.078,47.91z"/>
<path fill="#946346" d="M49.967,25.824c-4.297-1.771-10.179-2.116-13.199-0.936c-0.637,0.249-0.617,1.775-0.054,1.622
	c4.329-1.18,9.313-1.271,13.414,0.156C50.679,26.859,50.612,26.09,49.967,25.824z"/>
<path fill="#946346" d="M14.034,25.825c4.297-1.771,10.177-2.116,13.199-0.936c0.637,0.249,0.617,1.775,0.054,1.622
	c-4.33-1.18-9.314-1.271-13.414,0.156C13.321,26.86,13.388,26.09,14.034,25.825z"/>
<path fill="#946346" d="M37.146,42.117c0,3.254-10,3.254-10,0C27.146,41.371,37.146,41.371,37.146,42.117z"/>
</svg>
