<?xml version="1.0" encoding="utf-8"?>
<!-- Generator: Adobe Illustrator 15.0.0, SVG Export Plug-In . SVG Version: 6.00 Build 0)  -->
<!DOCTYPE svg PUBLIC "-//W3C//DTD SVG 1.1//EN" "http://www.w3.org/Graphics/SVG/1.1/DTD/svg11.dtd">
<svg version="1.1" id="Layer_1" xmlns="http://www.w3.org/2000/svg" xmlns:xlink="http://www.w3.org/1999/xlink" x="0px" y="0px"
	 width="64px" height="64px" viewBox="0 0 64 64" enable-background="new 0 0 64 64" xml:space="preserve">
<ellipse fill="#B00505" cx="32.011" cy="31.875" rx="19.3" ry="10.125"/>
<path fill="#E81C27" d="M11.436,51.871C13.934,50.377,25.182,47,25.182,47L32,49l6.818-2c0,0,11.322,3.369,13.807,4.867
	C56.238,54.041,57,62,57,62H7C7,62,7.809,54.035,11.436,51.871"/>
<polygon fill="#FFE12C" points="12.98,62 51.021,62 51.887,58 12.305,58 "/>
<rect x="24.117" y="42" fill="#3B2B1C" width="15.766" height="9.658"/>
<path fill="#302C3B" d="M25.182,49.17C26.633,52.133,32,56.305,32,56.305s5.367-4.172,6.818-7.135
	C34.398,50.684,29.602,50.684,25.182,49.17z"/>
<path fill="#B00505" d="M12.98,62c0.531-2.006-0.094-5.057-0.76-6.736C11.602,53.699,11.836,60.896,12.98,62"/>
<path fill="#B00505" d="M51.779,55.264c-0.664,1.68-1.291,4.73-0.758,6.736C52.164,60.896,52.396,53.699,51.779,55.264"/>
<rect x="32.002" y="54.127" fill="#302C3B" width="0.854" height="7.873"/>
<path fill="#B00505" d="M32.002,62c0,0-3.453-11.346-11.996-9.035c0,0-0.338-5.805,3.969-8.869
	c1.332-0.949-1.441,4.971,8.025,10.033L32.002,62"/>
<path fill="#B00505" d="M32.002,58c0,0,3.131-5.559,11.992-5.035c0,0,0.338-5.805-3.965-8.869c-1.336-0.949,1.85,5.637-8.029,10.033
	L32.002,62"/>
<path fill="#38332D" d="M32,7.156c-16.616,0-16.621,9.999-16.621,22.5H48.62C48.62,17.155,48.616,7.156,32,7.156z"/>
<path fill="#523924" d="M18.68,34.516c1.801-1.674,0.166-8.25-2.155-8.645C11.564,25.024,14.796,38.133,18.68,34.516z"/>
<path fill="#523924" d="M45.321,34.516c-1.8-1.674-0.167-8.25,2.155-8.645C52.436,25.024,49.205,38.131,45.321,34.516z"/>
<path fill="#614A36" d="M32,13.823c-17.359,0-10.365,2.011-15,12.208c0,0,0.034,4.676,1.004,9.693
	C19.256,42.189,26.533,47.156,32,47.156c5.469,0,12.745-4.967,13.997-11.432C46.967,30.708,47,26.031,47,26.031
	C42.365,15.833,49.36,13.823,32,13.823z"/>
<path fill="#F5F5F5" d="M44.333,27.503c-1.605,4.183-8.137,3.569-9.333,0.645C35.908,23.447,43.45,23.045,44.333,27.503z"/>
<path fill="#45332C" d="M36.666,27.059c0,3.688,5.334,3.688,5.334,0C42,23.634,36.666,23.634,36.666,27.059z"/>
<path fill="#45332C" d="M44.333,27.474c0-4.491-9.333-4.491-9.333,0.709C36.334,23.917,43,23.917,44.333,27.474z"/>
<path fill="#F5F5F5" d="M19.666,27.503c1.607,4.183,8.139,3.569,9.334,0.645C28.092,23.447,20.551,23.045,19.666,27.503z"/>
<path fill="#45332C" d="M27.334,27.059c0,3.688-5.334,3.688-5.334,0C22,23.634,27.334,23.634,27.334,27.059z"/>
<path fill="#45332C" d="M19.666,27.474c0-4.489,9.334-4.489,9.334,0.708C27.668,23.917,21,23.917,19.666,27.474z"/>
<path fill="#F5F5F5" d="M36.995,26.162c0,0.922,1.333,0.922,1.333,0C38.328,25.306,36.995,25.306,36.995,26.162z"/>
<path fill="#F5F5F5" d="M23.828,25.975c0,0.921-1.334,0.921-1.334,0C22.494,25.119,23.828,25.119,23.828,25.975z"/>
<path fill="#3B2C20" d="M32,38.049c-2.686-0.713-6.666,0.338-6.666,0.338c1.516,1.486,2.627,3.412,6.666,3.412
	c4.629,0,5.414-2.188,6.666-3.412C38.666,38.387,34.682,37.336,32,38.049z"/>
<path fill="#FFFFFF" d="M26.271,38.439c2.854,2.652,8.622,2.668,11.493,0C34.72,38.584,29.336,38.586,26.271,38.439z"/>
<path fill="#3B2B1C" d="M43.978,23.375c-2.864-1.182-6.786-1.413-8.799-0.625c-0.425,0.166-0.411,1.183-0.036,1.081
	c2.887-0.786,6.209-0.846,8.942,0.104C44.452,24.064,44.408,23.551,43.978,23.375z"/>
<path fill="#3B2B1C" d="M20.022,23.375c2.864-1.182,6.784-1.413,8.8-0.625c0.424,0.166,0.41,1.183,0.035,1.081
	c-2.887-0.786-6.209-0.846-8.941,0.104C19.548,24.064,19.592,23.551,20.022,23.375z"/>
<path fill="#3B2B1C" d="M35.334,33.9c0,2.168-6.668,2.168-6.668,0C28.666,33.402,35.334,33.402,35.334,33.9z"/>
<path fill="#E81C27" d="M52.166,22.695c0,5.715,0.443-3.58-20.166-3.58c-20.609,0.002-20.166,9.295-20.166,3.58
	C11.834,11.264,20.863,2,32,2C43.139,2,52.166,11.264,52.166,22.695z"/>
<path fill="#B00505" d="M52.166,22.695c0-6.885-3.273-12.984-8.313-16.746c6.359,8.172-0.537,14.395-0.537,14.395
	C52.414,22.658,52.166,27.064,52.166,22.695z"/>
<rect x="27.418" y="2" fill="#B00505" width="9.166" height="16.199"/>
<path fill-rule="evenodd" clip-rule="evenodd" fill="#F46C60" d="M15.949,13.861c-0.262,1.904,6.221-4.939,9.086-8.156
	C26.881,3.637,16.982,6.369,15.949,13.861z"/>
<path fill="#B00505" d="M32.002,15.65c-9.021,0-16.773,2.998-20.168,7.291c-0.057,0.641,0,0.998,0,0.998s9.545-3.189,20.178-3.189
	c10.631,0,17.162-0.723,14.969-1.85C43.053,16.885,37.789,15.65,32.002,15.65z"/>
<path opacity="0.2" d="M32.002,17.65c-28.152,0-19.24,16.826-19.24,15.225c0-5.594,8.617-10.125,19.25-10.125
	c10.631,0,19.25,4.531,19.25,10.125C51.262,34.465,60.152,17.65,32.002,17.65z"/>
<path fill="#E81C27" d="M31.996,16.613c-12.15,0-22,5.438-22,12.15c0,2.846,1.777,5.463,4.746,7.533
	c-1.26-1.348-1.986-2.857-1.986-4.459c0-5.594,8.617-10.125,19.25-10.125c10.631,0,19.25,4.531,19.25,10.125
	c0,1.588-0.715,3.086-1.955,4.424c2.938-2.064,4.695-4.668,4.695-7.498C53.996,22.051,44.146,16.613,31.996,16.613z"/>
<path fill="#FFE12C" d="M36,6.6l-0.572-1.785L32,4.1l-3.428,0.715L28,6.6c1.164,1.451,0,1.787,0,3.193c0,2.838,4,4.307,4,4.307
	s4-1.469,4-4.307C36,8.387,34.838,8.051,36,6.6"/>
<rect x="31.497" y="5.34" transform="matrix(0.7071 0.7071 -0.7071 0.7071 15.4786 -20.099)" fill="#AB5C10" width="1.008" height="6.589"/>
<rect x="31.497" y="5.34" transform="matrix(-0.7081 0.7061 -0.7061 -0.7081 60.7551 -7.8492)" fill="#AB5C10" width="1.007" height="6.588"/>
</svg>
