<?xml version="1.0" encoding="utf-8"?>
<!-- Generator: Adobe Illustrator 15.0.0, SVG Export Plug-In . SVG Version: 6.00 Build 0)  -->
<!DOCTYPE svg PUBLIC "-//W3C//DTD SVG 1.1//EN" "http://www.w3.org/Graphics/SVG/1.1/DTD/svg11.dtd">
<svg version="1.1" id="Layer_1" xmlns="http://www.w3.org/2000/svg" xmlns:xlink="http://www.w3.org/1999/xlink" x="0px" y="0px"
	 width="64px" height="64px" viewBox="0 0 64 64" enable-background="new 0 0 64 64" xml:space="preserve">
<path fill="#018BC9" d="M43.692,35.967c-1.492-1.043-7.03-3.783-7.03-3.783h-9.274c0,0-5.546,2.746-7.045,3.785
	c-2.509,1.736-3.01,7.102-3.343,12.773L18,62h28l1-13.258C46.688,43.082,46.175,37.701,43.692,35.967z"/>
<path fill="#E6A400" d="M36.432,33.189c0-0.816,0-4.438,0-4.438h-8.863c0,0,0,3.569,0,4.438
	C27.568,36.781,36.432,36.781,36.432,33.189z"/>
<rect x="17" y="48.764" fill="#FDCA47" width="4.091" height="13.236"/>
<rect x="42.909" y="48.764" fill="#FDCA47" width="4.091" height="13.236"/>
<path fill="#EA8800" d="M32,2C19.03,2,19.026,9.806,19.026,19.563h25.947C44.974,9.806,44.97,2,32,2z"/>
<path fill="#F5BC2C" d="M21.603,23.358c1.405-1.309,0.129-6.441-1.683-6.75C16.048,15.948,18.569,26.18,21.603,23.358z"/>
<path fill="#F5BC2C" d="M42.397,23.358c-1.404-1.309-0.129-6.441,1.683-6.75C47.951,15.948,45.431,26.179,42.397,23.358z"/>
<path fill="#FDCA47" d="M32,7.205c-13.55,0-8.091,1.569-11.708,9.528c0,0,0.025,3.65,0.783,7.566
	c0.977,5.048,6.657,8.923,10.925,8.923s9.948-3.875,10.925-8.923c0.758-3.916,0.783-7.566,0.783-7.566
	C40.091,8.774,45.552,7.205,32,7.205z"/>
<path fill="#F5F5F5" d="M41.627,17.883c-1.253,3.265-6.351,2.785-7.285,0.503C35.052,14.717,40.938,14.402,41.627,17.883z"/>
<path fill="#45332C" d="M35.643,17.535c0,2.879,4.163,2.879,4.163,0C39.806,14.862,35.643,14.862,35.643,17.535z"/>
<path fill="#45332C" d="M41.627,17.859c0-3.505-7.285-3.505-7.285,0.555C35.382,15.084,40.587,15.084,41.627,17.859z"/>
<path fill="#F5F5F5" d="M22.373,17.883c1.253,3.265,6.351,2.785,7.285,0.503C28.948,14.717,23.063,14.402,22.373,17.883z"/>
<path fill="#45332C" d="M28.357,17.535c0,2.879-4.163,2.879-4.163,0C24.194,14.863,28.357,14.863,28.357,17.535z"/>
<path fill="#45332C" d="M22.373,17.859c0-3.504,7.285-3.504,7.285,0.554C28.618,15.084,23.413,15.084,22.373,17.859z"/>
<path fill="#D99025" d="M32,26.114c-2.097-0.556-5.204,0.264-5.204,0.264c1.184,1.159,2.051,2.665,5.204,2.665
	c3.613,0,4.226-1.709,5.204-2.665C37.204,26.378,34.093,25.557,32,26.114z"/>
<path fill="#FFFFFF" d="M27.528,26.42c2.227,2.07,6.73,2.084,8.971,0C34.123,26.533,29.921,26.534,27.528,26.42z"/>
<path fill="#E6A400" d="M41.35,14.66c-2.236-0.922-5.298-1.101-6.868-0.487c-0.332,0.13-0.322,0.924-0.029,0.844
	c2.254-0.613,4.848-0.661,6.98,0.082C41.72,15.198,41.685,14.798,41.35,14.66z"/>
<path fill="#E6A400" d="M22.65,14.66c2.235-0.922,5.296-1.101,6.868-0.487c0.332,0.13,0.322,0.924,0.027,0.844
	c-2.253-0.613-4.847-0.661-6.979,0.082C22.28,15.198,22.314,14.798,22.65,14.66z"/>
<path fill="#D67C00" d="M38.259,26.951c-2.441-2.567-10.028-2.589-12.49,0C29.078,26.772,34.929,26.771,38.259,26.951z"/>
<path fill="#EA8800" d="M38.259,26.951c-3.102-3.262-9.369-3.282-12.49,0C26.31,26.269,37.562,26.078,38.259,26.951z"/>
<path fill="#EA8800" d="M42.36,6.011c4.833,6.627-17.6,4.897-22.266,3.93C20.095,9.94,26.948,0.595,42.36,6.011z"/>
<path fill="#D67C00" d="M20.095,9.94c6.701,1.41,27.189,1.216,20.742-5.773C51.351,12.555,25.769,13.303,20.095,9.94z"/>
<path fill="#E6A400" d="M34.603,22.877c0,1.693-5.205,1.693-5.205,0C29.397,22.489,34.603,22.489,34.603,22.877z"/>
<path fill="#4ABDFF" d="M53.387,61.996c-1.197-0.832-5.648-3.025-5.648-3.025h-7.451c0,0-4.455,2.197-5.658,3.029L53.387,61.996z"/>
<path fill="#E6A400" d="M47.539,59.076c0-0.652,0-3.551,0-3.551h-7.09c0,0,0,2.855,0,3.551
	C40.449,61.949,47.539,61.949,47.539,59.076z"/>
<path fill="#EA8800" d="M44,35.818c-11.477,0-10.371,9.201-10.371,13.5h20.742C54.371,45.02,55.479,35.818,44,35.818z"/>
<path fill="#F5BC2C" d="M34.822,48.041c-3.578-0.471-1.248,6.844,1.555,4.826C37.674,51.932,36.496,48.262,34.822,48.041z"/>
<path fill="#F5BC2C" d="M53.18,48.041c-1.674,0.221-2.854,3.891-1.555,4.826C54.428,54.883,56.758,47.57,53.18,48.041z"/>
<path fill="#FDCA47" d="M53.229,47.41c0-6.135-3.623-4.77-9.227-4.77s-9.229-1.365-9.229,4.77c0,0,0.02,2.338,0.617,5.41
	c0.979,5.027,5.039,6.998,8.609,6.998c3.572,0,7.635-1.971,8.611-6.998C53.209,49.746,53.229,47.41,53.229,47.41z"/>
<path fill="#EA8800" d="M43.811,40.338c-1.676,2.988-7.955,4.855-10.113,4.662C35.652,43.023,36.52,37.936,43.811,40.338z"/>
<path fill="#D67C00" d="M33.697,45c2.748-0.719,6.316-2.182,10.113-4.662C42.135,43.326,36.621,45.684,33.697,45z"/>
<path fill="#EA8800" d="M52.281,40.176c-2.371,3.559-11.254,5.785-14.307,5.553C40.738,43.375,41.967,37.316,52.281,40.176z"/>
<path fill="#D67C00" d="M37.975,45.729c7.297-2.027,14.307-5.553,14.307-5.553C49.91,43.734,43.297,46.244,37.975,45.729z"/>
<path fill="#EA8800" d="M52.627,39.357c2.844,4.633-4.559,6.531-7.617,6.346C47.752,43.895,49.592,39.213,52.627,39.357z"/>
<path fill="#D67C00" d="M45.01,45.703c3.678-1.688,9.283-2.033,7.617-6.346C55.471,43.99,48.252,46.119,45.01,45.703z"/>
<path fill="#F5F5F5" d="M51.4,49.725c-0.963,2.51-4.881,2.141-5.6,0.387C46.346,47.291,50.871,47.049,51.4,49.725z"/>
<path fill="#45332C" d="M46.801,49.457c0,2.213,3.199,2.213,3.199,0C50,47.402,46.801,47.402,46.801,49.457z"/>
<path fill="#45332C" d="M51.4,49.705c0-2.693-5.6-2.693-5.6,0.428C46.602,47.572,50.602,47.572,51.4,49.705z"/>
<path fill="#F5F5F5" d="M36.602,49.725c0.963,2.51,4.881,2.141,5.6,0.387C41.656,47.291,37.131,47.049,36.602,49.725z"/>
<path fill="#45332C" d="M41.201,49.457c0,2.213-3.201,2.213-3.201,0C38,47.402,41.201,47.402,41.201,49.457z"/>
<path fill="#45332C" d="M36.602,49.705c0-2.691,5.6-2.691,5.6,0.426C41.402,47.572,37.4,47.572,36.602,49.705z"/>
<path fill="#D99025" d="M44,55.252c-1.611-0.428-4,0.203-4,0.203c0.91,0.891,1.578,2.047,4,2.047c2.777,0,3.25-1.313,4-2.047
	C48,55.455,45.609,54.824,44,55.252z"/>
<path fill="#FFFFFF" d="M40.564,55.486c1.711,1.592,5.172,1.602,6.895,0C45.633,55.574,42.402,55.574,40.564,55.486z"/>
<path fill="#E6A400" d="M51.188,47.389c-1.719-0.709-4.072-0.848-5.279-0.375c-0.256,0.1-0.248,0.711-0.021,0.65
	c1.732-0.473,3.725-0.51,5.365,0.061C51.473,47.803,51.445,47.494,51.188,47.389z"/>
<path fill="#E6A400" d="M36.814,47.389c1.719-0.709,4.07-0.848,5.279-0.375c0.254,0.1,0.246,0.711,0.021,0.65
	c-1.732-0.473-3.727-0.51-5.365,0.061C36.529,47.803,36.557,47.494,36.814,47.389z"/>
<path fill="#E6A400" d="M46,53.34c0,1.303-4,1.303-4,0C42,53.043,46,53.043,46,53.34z"/>
<path fill="#4ABDFF" d="M29.39,61.996c-1.197-0.832-5.646-3.025-5.646-3.025h-7.451c0,0-4.455,2.197-5.66,3.029L29.39,61.996z"/>
<path fill="#E6A400" d="M23.542,59.076c0-0.652,0-3.551,0-3.551h-7.09c0,0,0,2.855,0,3.551
	C16.452,61.949,23.542,61.949,23.542,59.076z"/>
<path fill="#EA8800" d="M20,35.818c-11.479,0-10.371,9.201-10.371,13.5h20.742C30.371,45.02,31.477,35.818,20,35.818z"/>
<path fill="#F5BC2C" d="M10.82,48.041c-3.578-0.471-1.248,6.844,1.555,4.826C13.674,51.932,12.494,48.262,10.82,48.041z"/>
<path fill="#F5BC2C" d="M29.18,48.041c-1.676,0.221-2.854,3.891-1.555,4.826C30.426,54.883,32.756,47.57,29.18,48.041z"/>
<path fill="#FDCA47" d="M29.229,47.41c0-6.135-3.625-4.77-9.229-4.77s-9.229-1.365-9.229,4.77c0,0,0.02,2.338,0.617,5.41
	c0.979,5.027,5.039,6.998,8.611,6.998c3.57,0,7.633-1.971,8.609-6.998C29.207,49.746,29.229,47.41,29.229,47.41z"/>
<path fill="#EA8800" d="M19.811,40.338C18.133,43.326,11.855,45.193,9.697,45C11.65,43.023,12.52,37.936,19.811,40.338z"/>
<path fill="#D67C00" d="M9.697,45c2.748-0.719,6.316-2.182,10.113-4.662C18.133,43.326,12.619,45.684,9.697,45z"/>
<path fill="#EA8800" d="M28.279,40.176c-2.371,3.559-11.254,5.785-14.307,5.553C16.736,43.375,17.965,37.316,28.279,40.176z"/>
<path fill="#D67C00" d="M13.973,45.729c7.297-2.027,14.307-5.553,14.307-5.553C25.908,43.734,19.297,46.244,13.973,45.729z"/>
<path fill="#EA8800" d="M28.625,39.357c2.844,4.633-4.559,6.531-7.617,6.346C23.75,43.895,25.59,39.213,28.625,39.357z"/>
<path fill="#D67C00" d="M21.008,45.703c3.678-1.688,9.283-2.033,7.617-6.346C31.469,43.99,24.252,46.119,21.008,45.703z"/>
<path fill="#F5F5F5" d="M27.398,49.725c-0.963,2.51-4.881,2.141-5.6,0.387C22.344,47.291,26.869,47.049,27.398,49.725z"/>
<path fill="#45332C" d="M22.799,49.457c0,2.213,3.201,2.213,3.201,0C26,47.402,22.799,47.402,22.799,49.457z"/>
<path fill="#45332C" d="M27.398,49.705c0-2.693-5.6-2.693-5.6,0.428C22.6,47.572,26.6,47.572,27.398,49.705z"/>
<path fill="#F5F5F5" d="M12.6,49.725c0.963,2.51,4.883,2.141,5.6,0.387C17.654,47.291,13.129,47.049,12.6,49.725z"/>
<path fill="#45332C" d="M17.199,49.457c0,2.213-3.199,2.213-3.199,0C14,47.402,17.199,47.402,17.199,49.457z"/>
<path fill="#45332C" d="M12.6,49.705c0-2.691,5.6-2.691,5.6,0.426C17.4,47.572,13.398,47.572,12.6,49.705z"/>
<path fill="#D99025" d="M20,55.252c-1.611-0.428-4,0.203-4,0.203c0.91,0.891,1.576,2.047,4,2.047c2.777,0,3.248-1.313,4-2.047
	C24,55.455,21.609,54.824,20,55.252z"/>
<path fill="#FFFFFF" d="M16.563,55.486c1.711,1.592,5.172,1.602,6.896,0C21.631,55.574,18.4,55.574,16.563,55.486z"/>
<path fill="#E6A400" d="M27.186,47.389c-1.719-0.709-4.07-0.848-5.279-0.375c-0.256,0.1-0.246,0.711-0.021,0.65
	c1.732-0.473,3.727-0.51,5.365,0.061C27.471,47.803,27.443,47.494,27.186,47.389z"/>
<path fill="#E6A400" d="M12.813,47.389c1.719-0.709,4.072-0.848,5.279-0.375c0.256,0.1,0.248,0.711,0.021,0.65
	c-1.732-0.473-3.725-0.51-5.365,0.061C12.527,47.803,12.555,47.494,12.813,47.389z"/>
<path fill="#E6A400" d="M22,53.34c0,1.303-4,1.303-4,0C18,53.043,22,53.043,22,53.34z"/>
</svg>
