<?xml version="1.0" encoding="utf-8"?>
<!-- Generator: Adobe Illustrator 15.0.0, SVG Export Plug-In . SVG Version: 6.00 Build 0)  -->
<!DOCTYPE svg PUBLIC "-//W3C//DTD SVG 1.1//EN" "http://www.w3.org/Graphics/SVG/1.1/DTD/svg11.dtd">
<svg version="1.1" id="Layer_1" xmlns="http://www.w3.org/2000/svg" xmlns:xlink="http://www.w3.org/1999/xlink" x="0px" y="0px"
	 width="64px" height="64px" viewBox="0 0 64 64" enable-background="new 0 0 64 64" xml:space="preserve">
<path fill="#302C3B" d="M11.436,51.869c2.498-1.494,14.014-5.439,14.014-5.439h13.186c0,0,11.504,3.938,13.992,5.438
	C56.24,54.041,57,62,57,62H7C7,62,7.807,54.033,11.436,51.869"/>
<path fill="#E6A400" d="M24,49.656c0,3.344,5.395,5.01,7.973,5s8.027-1.719,8.027-5V40H24V49.656z"/>
<path fill="#1A1626" d="M52.061,55.264c-0.68,1.68-1.318,4.73-0.775,6.736C52.455,60.896,52.691,53.699,52.061,55.264"/>
<path fill="#1A1626" d="M12.715,62c0.545-2.006-0.096-5.057-0.775-6.736C11.309,53.699,11.547,60.896,12.715,62"/>
<path fill="#1A1626" d="M22.182,47.91c0,0-2.201,2.965-3.125,5.402l3.553,1.902c0,0-2.422,2.51-2.809,2.99
	c0,0,2.453,2.795,2.809,3.795h1.016c0,0-1.268-2.338-2.49-3.795c0,0,1.555-2.34,2.49-3.164l-3.258-2.166
	C20.367,52.875,21.26,49.82,22.182,47.91"/>
<path fill="#1A1626" d="M41.818,47.91c0,0,2.201,2.965,3.125,5.402l-3.551,1.902c0,0,2.42,2.51,2.807,2.99
	c0,0-2.451,2.795-2.807,3.795h-1.018c0,0,1.268-2.338,2.492-3.795c0,0-1.557-2.34-2.492-3.164l3.26-2.166
	C43.635,52.875,42.742,49.82,41.818,47.91"/>
<path fill="#E6EBEF" d="M38.082,62c1.82-3.064,1.863-12.344,1.863-12.344c-2.67,3.369-7.682,4.904-7.973,4.992
	C31.68,54.561,26.67,53.025,24,49.656c0,0,0.041,9.279,1.863,12.344H38.082z"/>
<path fill="#F9C802" d="M48.066,59.174c-0.279,0-0.77,0.279-0.965,0.398c-0.27-0.199-0.66-0.199-0.928,0
	c-0.197-0.119-0.686-0.398-0.967-0.398c-0.611,0-1.945,0.463-1.945,0.662c0,0.086,1.303-0.184,2.654,0.479
	c0.145,0.783,1.297,0.783,1.441,0c1.352-0.663,2.654-0.394,2.654-0.479C50.012,59.637,48.678,59.174,48.066,59.174z"/>
<polygon fill="#302C3B" points="34.607,62 33.762,58.521 34.691,56.552 31.961,54.656 29.309,56.552 30.24,58.521 29.395,62 "/>
<path fill="#FFFFFF" d="M31.973,54.648C31.68,54.561,26.67,53.025,24,49.656c0,0,0.016,2.869,0.34,5.941
	c0.99,1.143,2.637,2.924,3.277,2.924c0.941,0,4.355-3.521,4.355-3.521s3.387,3.521,4.412,3.521c0.736,0,2.287-1.717,3.217-2.881
	c0.328-3.09,0.344-5.984,0.344-5.984C37.275,53.025,32.264,54.561,31.973,54.648"/>
<path fill="#EA8800" d="M32,7.702c-17.352,0-17.352,10.282-17.352,23.136H49.35C49.35,17.984,49.35,7.702,32,7.702z"/>
<path fill="#F5BC2C" d="M18.411,35.94c1.837-1.71,0.17-8.417-2.198-8.822C11.152,26.257,14.449,39.628,18.411,35.94z"/>
<path fill="#F5BC2C" d="M45.59,35.94c-1.838-1.71-0.17-8.417,2.197-8.822C52.847,26.257,49.552,39.627,45.59,35.94z"/>
<path fill="#FDCA47" d="M47.303,27.735c0-14.059-6.01-9.471-15.302-9.471s-15.302-4.588-15.302,9.471c0,0,0.033,3.974,1.023,9.195
	C19.033,43.839,26.389,48.834,32,48.834c5.612,0,12.969-4.995,14.278-11.903C47.27,31.708,47.303,27.735,47.303,27.735z"/>
<path fill="#D99025" d="M32,39.543c-2.74-0.728-6.801,0.343-6.801,0.343C26.746,41.402,27.88,43.37,32,43.37
	c4.723,0,5.522-2.234,6.801-3.484C38.801,39.886,34.736,38.813,32,39.543z"/>
<path fill="#FFFFFF" d="M26.156,39.942c2.91,2.705,8.795,2.723,11.725,0C34.775,40.089,29.283,40.091,26.156,39.942z"/>
<path fill="#F5F5F5" d="M44.581,28.786c-1.638,4.265-8.3,3.639-9.521,0.657C35.987,24.647,43.682,24.236,44.581,28.786z"/>
<path fill="#45332C" d="M36.76,28.33c0,3.763,5.441,3.763,5.441,0C42.201,24.838,36.76,24.838,36.76,28.33z"/>
<path fill="#45332C" d="M44.581,28.754c0-4.58-9.521-4.58-9.521,0.725C36.421,25.126,43.221,25.126,44.581,28.754z"/>
<path fill="#F5F5F5" d="M19.419,28.786c1.638,4.265,8.301,3.639,9.521,0.657C28.013,24.647,20.32,24.236,19.419,28.786z"/>
<path fill="#45332C" d="M27.24,28.33c0,3.763-5.441,3.763-5.441,0C21.799,24.838,27.24,24.838,27.24,28.33z"/>
<path fill="#45332C" d="M19.419,28.754c0-4.578,9.521-4.578,9.521,0.724C27.58,25.126,20.779,25.126,19.419,28.754z"/>
<path fill="#F5F5F5" d="M37.096,27.417c0,0.94,1.359,0.94,1.359,0C38.455,26.543,37.096,26.543,37.096,27.417z"/>
<path fill="#F5F5F5" d="M23.664,27.225c0,0.941-1.361,0.941-1.361,0C22.303,26.353,23.664,26.353,23.664,27.225z"/>
<path fill="#E6A400" d="M44.219,24.573c-2.923-1.205-6.922-1.439-8.977-0.637c-0.434,0.169-0.42,1.207-0.037,1.104
	c2.945-0.802,6.335-0.864,9.123,0.106C44.703,25.276,44.658,24.753,44.219,24.573z"/>
<path fill="#E6A400" d="M19.781,24.573c2.922-1.205,6.922-1.439,8.977-0.637c0.434,0.169,0.42,1.207,0.036,1.104
	c-2.944-0.802-6.334-0.864-9.122,0.106C19.297,25.276,19.342,24.753,19.781,24.573z"/>
<path fill="#E6A400" d="M35.4,35.312c0,2.213-6.801,2.213-6.801,0C28.6,34.804,35.4,34.804,35.4,35.312z"/>
<path opacity="0.2" d="M15.061,20.569c0,0-0.109,0.564-0.109,0.937c3.754,1.925,11.297,2.937,17.051,2.937
	c5.75,0,13.291-1.012,17.047-2.935c-0.062-0.532-0.111-0.938-0.111-0.938H15.061z"/>
<path fill="#302C3B" d="M49.705,16.282c0,0,18.533-14.282-17.703-14.282C-4.236,2,14.297,16.282,14.297,16.282
	s6.482-3.063,17.725-3.061C43.237,13.223,49.705,16.282,49.705,16.282"/>
<path fill="#302C3B" d="M32,13.221c-11.516,0-19.383,1.737-19.383,4.637c0,3.621,11.411,5.564,19.383,5.564
	s19.383-1.943,19.383-5.564C51.383,14.958,43.516,13.221,32,13.221"/>
<path fill="#F9C802" d="M14.658,15.262c0,0,16.926-5.247,34.684,0C49.342,15.262,33.291,6.081,14.658,15.262"/>
<path fill="#F9C802" d="M35.887,4.549c-0.832,0-2.367,1.045-2.768,1.328c-0.669-0.407-1.571-0.407-2.24,0
	c-0.398-0.283-1.934-1.328-2.766-1.328c-1.67,0-5.295,1.428-5.295,2.044c0,0.264,3.516-0.59,7.182,1.433c0.372,2.16,3.626,2.16,4,0
	c3.666-2.023,7.182-1.169,7.182-1.433C41.182,5.977,37.557,4.549,35.887,4.549z"/>
<path fill="#F9C802" d="M44.998,19.43c0.028,0.012,1.99-2.164,1.133-1.913c-0.828,0.265-2.373,1.363-2.19,2.181
	c0.186,0.834,2.174,1.036,3.079,0.748C47.897,20.189,44.977,19.456,44.998,19.43"/>
<path fill="#F9C802" d="M41.858,19.94c0.028,0.012,2.084-2.066,1.216-1.857c-0.835,0.225-2.426,1.249-2.281,2.074
	c0.146,0.841,2.119,1.138,3.032,0.894C44.711,20.834,41.838,19.964,41.858,19.94"/>
<path fill="#F9C802" d="M38.705,20.349c0.025,0.013,2.169-1.967,1.297-1.798c-0.844,0.185-2.477,1.133-2.371,1.965
	c0.109,0.847,2.063,1.235,2.98,1.035C41.506,21.377,38.683,20.372,38.705,20.349"/>
<path fill="#F9C802" d="M35.537,20.658c0.025,0.015,2.255-1.863,1.376-1.734c-0.849,0.146-2.522,1.016-2.454,1.851
	c0.067,0.851,1.998,1.33,2.924,1.174C38.282,21.816,35.513,20.681,35.537,20.658"/>
<path fill="#F9C802" d="M20.06,19.698c0.183-0.817-1.362-1.916-2.19-2.181c-0.858-0.251,1.106,1.925,1.133,1.913
	c0.021,0.026-2.899,0.759-2.021,1.016C17.886,20.735,19.874,20.53,20.06,19.698"/>
<path fill="#F9C802" d="M23.207,20.157c0.146-0.825-1.446-1.849-2.281-2.074c-0.869-0.209,1.189,1.869,1.216,1.857
	c0.022,0.024-2.854,0.896-1.967,1.111C21.088,21.294,23.061,20.998,23.207,20.157"/>
<path fill="#F9C802" d="M26.369,20.516c0.105-0.83-1.527-1.779-2.369-1.962c-0.875-0.171,1.27,1.81,1.297,1.795
	c0.022,0.024-2.803,1.029-1.908,1.203C24.309,21.751,26.262,21.362,26.369,20.516"/>
<path fill="#F9C802" d="M29.541,20.774c0.068-0.834-1.605-1.705-2.455-1.851c-0.878-0.128,1.352,1.749,1.379,1.734
	c0.022,0.023-2.747,1.159-1.849,1.289C27.543,22.105,29.474,21.625,29.541,20.774"/>
</svg>
