<?xml version="1.0" encoding="utf-8"?>
<!-- Generator: Adobe Illustrator 15.0.0, SVG Export Plug-In . SVG Version: 6.00 Build 0)  -->
<!DOCTYPE svg PUBLIC "-//W3C//DTD SVG 1.1//EN" "http://www.w3.org/Graphics/SVG/1.1/DTD/svg11.dtd">
<svg version="1.1" id="Layer_1" xmlns="http://www.w3.org/2000/svg" xmlns:xlink="http://www.w3.org/1999/xlink" x="0px" y="0px"
	 width="64px" height="64px" viewBox="0 0 64 64" enable-background="new 0 0 64 64" xml:space="preserve">
<path fill="#EA8800" d="M24.163,4.441C20.517-0.52,2.429,1.469,2.429,16.102c0.076,7.863,1.286,25.721,14.534,25.721
	c13.244,0,14.456-17.783,14.607-25.721C31.57,11.227,28.922,5.465,24.163,4.441z"/>
<path fill="#D67C00" d="M2.64,20.904c0.651,8.676,3.365,20.918,14.335,20.918c11.004,0,13.701-12.27,14.387-20.975
	C31,16.84,28.775,11.664,23.951,5.563C14.063,12.391,3.381,11.326,2.64,20.904z"/>
<path fill="#8E3ED6" d="M24.691,34.967c-1.491-1.043-3.029-2.783-3.029-2.783h-9.275c0,0-5.545,2.746-7.045,3.785
	C2.834,37.705,2.332,43.07,2,48.742L3,62h26C29,62,27.175,36.701,24.691,34.967z"/>
<path fill="#E6A400" d="M21.432,33.189c0-0.816,0-4.438,0-4.438h-8.863c0,0,0,3.568,0,4.438
	C12.568,36.781,21.432,36.781,21.432,33.189z"/>
<rect x="2" y="48.764" fill="#FDCA47" width="4.091" height="13.236"/>
<path fill="#FDCA47" d="M27.461,15.859c-1.563-3.689-4.433-7.691-4.433-7.691c-10.496,6.309-19.369,3.143-16.905,15.1
	c1.17,5.672,8.186,10.066,10.95,10.066c2.761,0,9.955-4.359,10.946-10.066C28.593,19.961,28.189,17.578,27.461,15.859z"/>
<path fill="#F5F5F5" d="M26.668,18.326c-1.249,3.256-6.332,2.779-7.263,0.502C20.113,15.17,25.981,14.857,26.668,18.326z"/>
<path fill="#45332C" d="M20.702,17.98c0,2.871,4.15,2.871,4.15,0C24.853,15.316,20.702,15.316,20.702,17.98z"/>
<path fill="#45332C" d="M26.668,18.303c0-3.494-7.263-3.494-7.263,0.555C20.443,15.535,25.63,15.535,26.668,18.303z"/>
<path fill="#F5F5F5" d="M7.475,18.326c1.249,3.256,6.333,2.779,7.263,0.502C14.031,15.17,8.162,14.857,7.475,18.326z"/>
<path fill="#45332C" d="M13.439,17.98c0,2.871-4.149,2.871-4.149,0C9.29,15.316,13.439,15.316,13.439,17.98z"/>
<path fill="#45332C" d="M7.475,18.303c0-3.492,7.263-3.492,7.263,0.553C13.7,15.535,8.513,15.535,7.475,18.303z"/>
<g>
	<path fill="#D99025" d="M22.258,26.674c-0.976,1.105-1.585,3.061-5.187,3.061c-3.143,0-4.007-1.723-5.188-3.061H22.258z"/>
	<path fill="#FFFFFF" d="M21.61,26.709c-2.135,2.186-6.916,2.217-9.078,0H21.61z"/>
	<path fill="#D99025" d="M17.071,26.498c-2.031-0.891-2.048-0.035-5.188,0.176c3.964,0.445,6.411,0.445,10.374,0
		C19.12,26.463,19.104,25.607,17.071,26.498z"/>
</g>
<path fill="#E6A400" d="M26.227,15.189c-2.198-0.906-5.21-1.082-6.755-0.477c-0.325,0.127-0.315,0.908-0.028,0.83
	c2.217-0.604,4.768-0.652,6.867,0.08C26.592,15.721,26.558,15.328,26.227,15.189z"/>
<path fill="#E6A400" d="M7.836,15.191c2.198-0.906,5.209-1.084,6.755-0.479c0.327,0.127,0.316,0.91,0.027,0.83
	c-2.217-0.604-4.767-0.652-6.864,0.08C7.471,15.721,7.506,15.328,7.836,15.191z"/>
<path fill="#E6A400" d="M19.665,23.533c0,1.666-5.118,1.666-5.118,0C14.547,23.15,19.665,23.15,19.665,23.533z"/>
<path fill="#018BC9" d="M58.691,35.967c-1.491-1.043-7.029-3.783-7.029-3.783h-9.275c0,0-3.408,1.735-4.045,2.785
	C34.81,40.79,35,62,35,62h26l1-13.258C61.688,43.082,61.175,37.701,58.691,35.967z"/>
<path fill="#E6A400" d="M51.432,33.189c0-0.816,0-4.438,0-4.438h-8.863c0,0,0,3.568,0,4.438
	C42.568,36.781,51.432,36.781,51.432,33.189z"/>
<rect x="57.909" y="48.764" fill="#FDCA47" width="4.091" height="13.236"/>
<path fill="#EA8800" d="M47,2C34.029,2,34.026,9.805,34.026,19.563h25.946C59.973,9.805,59.969,2,47,2z"/>
<g>
	<g>
		<path fill="#F5BC2C" d="M36.602,23.357c1.406-1.309,0.13-6.441-1.682-6.75C31.048,15.947,33.569,26.18,36.602,23.357z"/>
	</g>
	<g>
		<path fill="#F5BC2C" d="M57.397,23.357c-1.405-1.309-0.13-6.441,1.683-6.75C62.951,15.947,60.43,26.178,57.397,23.357z"/>
	</g>
</g>
<path fill="#FDCA47" d="M47,7.205c-13.551,0-8.091,1.568-11.708,9.527c0,0,0.025,3.65,0.783,7.566
	c0.977,5.049,6.657,8.924,10.925,8.924s9.948-3.875,10.925-8.924c0.758-3.916,0.783-7.566,0.783-7.566
	C55.091,8.773,60.551,7.205,47,7.205z"/>
<path fill="#F5F5F5" d="M56.627,17.883c-1.253,3.264-6.352,2.785-7.285,0.502C50.051,14.717,55.938,14.402,56.627,17.883z"/>
<path fill="#45332C" d="M50.643,17.535c0,2.879,4.163,2.879,4.163,0C54.806,14.861,50.643,14.861,50.643,17.535z"/>
<path fill="#45332C" d="M56.627,17.859c0-3.506-7.285-3.506-7.285,0.555C50.382,15.084,55.586,15.084,56.627,17.859z"/>
<path fill="#F5F5F5" d="M37.373,17.883c1.253,3.264,6.351,2.785,7.285,0.502C43.948,14.717,38.063,14.402,37.373,17.883z"/>
<path fill="#45332C" d="M43.357,17.535c0,2.879-4.163,2.879-4.163,0C39.194,14.863,43.357,14.863,43.357,17.535z"/>
<path fill="#45332C" d="M37.373,17.859c0-3.504,7.285-3.504,7.285,0.553C43.618,15.084,38.413,15.084,37.373,17.859z"/>
<path fill="#D99025" d="M47,26.113c-2.097-0.555-5.204,0.264-5.204,0.264c1.184,1.16,2.051,2.666,5.204,2.666
	c3.613,0,4.226-1.709,5.203-2.666C52.203,26.377,49.093,25.557,47,26.113z"/>
<g>
	<path fill="#FFFFFF" d="M42.527,26.42c2.228,2.07,6.73,2.084,8.972,0C49.123,26.533,44.92,26.533,42.527,26.42z"/>
</g>
<path fill="#E6A400" d="M56.35,14.66c-2.236-0.922-5.298-1.102-6.869-0.488c-0.332,0.131-0.321,0.924-0.028,0.844
	c2.253-0.613,4.848-0.66,6.98,0.082C56.72,15.197,56.685,14.797,56.35,14.66z"/>
<path fill="#E6A400" d="M37.65,14.66c2.235-0.922,5.296-1.102,6.868-0.488c0.331,0.131,0.321,0.924,0.027,0.844
	c-2.253-0.613-4.847-0.66-6.979,0.082C37.279,15.197,37.314,14.797,37.65,14.66z"/>
<path fill="#D67C00" d="M53.258,26.951c-2.44-2.568-10.027-2.59-12.489,0C44.078,26.771,49.928,26.771,53.258,26.951z"/>
<path fill="#EA8800" d="M53.258,26.951c-3.101-3.262-9.369-3.283-12.489,0C41.31,26.268,52.561,26.078,53.258,26.951z"/>
<path fill="#EA8800" d="M57.36,6.01c4.833,6.627-17.6,4.898-22.266,3.93C35.095,9.939,41.947,0.594,57.36,6.01z"/>
<path fill="#D67C00" d="M35.095,9.939c6.701,1.41,27.189,1.217,20.741-5.773C66.35,12.555,40.769,13.303,35.095,9.939z"/>
<path fill="#E6A400" d="M49.602,22.877c0,1.693-5.204,1.693-5.204,0C44.397,22.488,49.602,22.488,49.602,22.877z"/>
<path fill="#E32B56" d="M41.386,61.998c-1.197-0.834-5.646-3.027-5.646-3.027h-7.452c0,0-4.455,2.197-5.66,3.029L41.386,61.998z"/>
<path fill="#E6A400" d="M35.538,59.078c0-0.654,0-3.551,0-3.551h-7.09c0,0,0,2.854,0,3.551
	C28.448,61.951,35.538,61.951,35.538,59.078z"/>
<path fill="#EA8800" d="M23.807,49.396c-7.722,4.559-0.933,8.707-3.131,10.672C24.948,62.721,35.403,58.15,23.807,49.396z"/>
<path fill="#D67C00" d="M21.501,51.129c1.896,7.277,5.796,7.527,5.47,8.844C30.599,58.074,30.632,51.939,21.501,51.129z"/>
<path fill="#EA8800" d="M40.192,49.396c7.723,4.559,0.934,8.707,3.133,10.672C39.054,62.721,28.596,58.15,40.192,49.396z"/>
<path fill="#D67C00" d="M42.499,51.129c-1.896,7.277-5.795,7.527-5.471,8.844C33.403,58.074,33.37,51.939,42.499,51.129z"/>
<path fill="#EA8800" d="M21.436,49.213h21.116C45.626,32.688,18.364,32.688,21.436,49.213z"/>
<path fill="#D67C00" d="M21.411,49.01c0,0,12.02,4.486,20.352-0.713c-1.682,0.318-4.416-6.125-17.213-6.607
	C24.081,49.01,21.831,47.023,21.411,49.01z"/>
<path fill="#CFD8DD" d="M41.562,48.035c0.896-12.365-20.034-12.365-19.138,0C23.204,37.65,40.782,37.65,41.562,48.035z"/>
<path fill="#FFFFFF" d="M41.562,47.635c0.896-12.365-20.034-12.365-19.138,0C23.204,37.25,40.782,37.25,41.562,47.635z"/>
<path fill="#F5BC2C" d="M22.647,48.115c-3.643-0.471-1.269,6.842,1.584,4.826C25.552,52.006,24.352,48.336,22.647,48.115z"/>
<path fill="#F5BC2C" d="M41.341,48.115c-1.705,0.221-2.906,3.891-1.584,4.826C42.61,54.957,44.983,47.645,41.341,48.115z"/>
<path fill="#FDCA47" d="M41.222,48.137c-3.49-0.992-7.957-5.742-16.448-5.168c0.148,1.867-0.342,3.984-1.98,5.176
	c0,0-0.008,1.678,0.591,4.748c0.978,5.027,5.039,7,8.609,7c3.572,0,7.635-1.973,8.611-7C41.202,49.82,41.222,48.137,41.222,48.137z"
	/>
<path fill="#F5F5F5" d="M39.394,49.799c-0.963,2.51-4.881,2.141-5.6,0.385C34.339,47.363,38.864,47.123,39.394,49.799z"/>
<path fill="#45332C" d="M34.794,49.531c0,2.213,3.201,2.213,3.201,0C37.995,47.477,34.794,47.477,34.794,49.531z"/>
<path fill="#45332C" d="M39.394,49.779c0-2.693-5.6-2.693-5.6,0.428C34.595,47.646,38.595,47.646,39.394,49.779z"/>
<path fill="#F5F5F5" d="M24.594,49.799c0.964,2.51,4.883,2.141,5.6,0.385C29.649,47.363,25.125,47.123,24.594,49.799z"/>
<path fill="#45332C" d="M29.194,49.531c0,2.213-3.199,2.213-3.199,0C25.995,47.477,29.194,47.477,29.194,49.531z"/>
<path fill="#45332C" d="M24.594,49.779c0-2.693,5.6-2.693,5.6,0.426C29.395,47.646,25.394,47.646,24.594,49.779z"/>
<path fill="#D99025" d="M31.995,55.326c-1.611-0.428-4,0.201-4,0.201c0.91,0.893,1.576,2.049,4,2.049c2.777,0,3.248-1.313,4-2.049
	C35.995,55.527,33.604,54.896,31.995,55.326z"/>
<g>
	<path fill="#FFFFFF" d="M28.557,55.561c1.711,1.59,5.172,1.602,6.897,0C33.626,55.648,30.396,55.648,28.557,55.561z"/>
</g>
<path fill="#E6A400" d="M39.181,47.463c-1.719-0.709-4.07-0.848-5.279-0.375c-0.256,0.1-0.246,0.709-0.021,0.648
	c1.732-0.473,3.727-0.508,5.365,0.063C39.466,47.877,39.438,47.568,39.181,47.463z"/>
<path fill="#E6A400" d="M24.808,47.463c1.718-0.709,4.071-0.848,5.279-0.375c0.256,0.1,0.248,0.709,0.021,0.648
	c-1.731-0.473-3.725-0.508-5.365,0.063C24.522,47.877,24.549,47.568,24.808,47.463z"/>
<path fill="#E6A400" d="M33.995,53.414c0,1.303-4,1.303-4,0C29.995,53.117,33.995,53.117,33.995,53.414z"/>
</svg>
