<?xml version="1.0" encoding="utf-8"?>
<!-- Generator: Adobe Illustrator 15.0.0, SVG Export Plug-In . SVG Version: 6.00 Build 0)  -->
<!DOCTYPE svg PUBLIC "-//W3C//DTD SVG 1.1//EN" "http://www.w3.org/Graphics/SVG/1.1/DTD/svg11.dtd">
<svg version="1.1" id="Layer_1" xmlns="http://www.w3.org/2000/svg" xmlns:xlink="http://www.w3.org/1999/xlink" x="0px" y="0px"
	 width="64px" height="64px" viewBox="0 0 64 64" enable-background="new 0 0 64 64" xml:space="preserve">
<path fill="#38332D" d="M39.616,5.497C33.907-1.608,5.597,1.239,5.597,22.19c0.119,11.257,2.012,36.824,22.747,36.824
	c20.731,0,22.628-25.459,22.866-36.824C51.21,15.212,47.063,6.96,39.616,5.497z"/>
<path fill="#26221E" d="M5.926,29.067c1.021,12.42,5.269,29.947,22.438,29.947c17.226,0,21.444-17.566,22.518-30.029
	c-0.563-5.738-4.046-13.149-11.597-21.887C23.808,16.876,7.088,15.354,5.926,29.067z"/>
<path fill="#8E3ED6" d="M10.304,52.527c2.201-1.396,11.334-5.086,11.334-5.086h13.604c0,0,9.123,3.682,11.311,5.084
	C49.733,54.557,50.403,62,50.403,62h-44C6.403,62,7.112,54.551,10.304,52.527"/>
<rect x="22.263" y="44" fill="#3B2B1C" width="12.281" height="7.1"/>
<path fill="#5D1E96" d="M12.036,62c0.469-1.877-0.082-4.729-0.668-6.299C10.825,54.238,11.03,60.967,12.036,62"/>
<path fill="#5D1E96" d="M44.771,62c-0.471-1.877,0.08-4.729,0.666-6.299C45.979,54.238,45.774,60.967,44.771,62"/>
<rect x="28.403" y="55.076" fill="#5D1E96" width="2.75" height="6.924"/>
<path fill="#8E3ED6" d="M30.733,59.428c0,1.143-1.912,1.143-1.912,0S30.733,58.285,30.733,59.428z"/>
<path fill="#FFFFFF" d="M33.903,48.053c-1.688,0.77-3.557,1.211-5.5,1.211c-1.945,0-3.814-0.441-5.5-1.213l5.5,10.102L33.903,48.053
	z"/>
<path fill="#5D1E96" d="M20.589,47.043c-1.666,4.111-0.891,6.736-0.891,6.736c1.402-1.031,4.16-2.17,4.16-2.172
	c-0.998,1.152-1.791,3.041-1.791,3.041c2.994,0.391,6.336,3.504,6.336,3.504S23.753,47.209,20.589,47.043z"/>
<path fill="#8E3ED6" d="M22.669,44.918c0,0-0.822-0.277-1.174,0.242c-2.061,3.088-1.375,7.455-1.375,7.455
	c1.404-1.031,4.209-1.338,4.209-1.34c-1,1.152-1.426,2.449-1.426,2.449c2.115,0.814,5.5,4.428,5.5,4.428
	S25.577,51.471,22.669,44.918z"/>
<path fill="#5D1E96" d="M36.218,47.043c1.664,4.111,0.889,6.736,0.889,6.736c-1.402-1.031-4.16-2.17-4.16-2.172
	c1,1.152,1.791,3.041,1.791,3.041c-2.994,0.391-6.334,3.504-6.334,3.504S33.054,47.209,36.218,47.043z"/>
<path fill="#8E3ED6" d="M34.138,44.918c0,0,0.82-0.277,1.172,0.242c2.061,3.088,1.375,7.455,1.375,7.455
	c-1.404-1.031-4.207-1.338-4.209-1.34c1,1.152,1.428,2.449,1.428,2.449c-2.115,0.814-5.5,4.428-5.5,4.428
	S31.228,51.471,34.138,44.918z"/>
<path fill="#614A36" d="M47.96,60.535c-2.365-1.521-2.367-7.074,0.002-8.594C58.442,45.221,58.44,67.258,47.96,60.535z"/>
<rect x="50.091" y="38.531" fill="#99A8AE" width="4.889" height="23.469"/>
<path fill="#6E8189" d="M50.091,41.625c0.744,0.348,1.57,0.549,2.445,0.549s1.701-0.201,2.443-0.549v-2.471h-4.889V41.625z"/>
<path fill="#99A8AE" d="M54.979,30v5.818l-2.443,1.906l-2.445-1.906V30c-2.018,0.928-3.422,2.961-3.422,5.328
	c0,3.24,2.627,5.867,5.867,5.867s5.867-2.627,5.867-5.867C58.403,32.961,56.999,30.928,54.979,30z"/>
<path fill="#6E8189" d="M57.913,35.1c0-0.424-0.045-0.84-0.131-1.238c0.211,0.563,0.326,1.17,0.326,1.805
	c0,2.666-2.039,4.871-4.691,5.234C56.013,40.168,57.913,37.85,57.913,35.1z"/>
<path fill="#CFD8DD" d="M50.091,30.205c-1.652,0.744-2.865,2.334-3.129,4.242c0.479-1.691,1.627-3.088,3.129-3.855V30.205z"/>
<path fill="#614A36" d="M55.188,52.211h-2.682c-1.705,0-1.705,2.271,0,2.271H51.37c-0.682,0-1.137,0.57-1.137,1.139
	s0.568,1.135,1.137,1.135c-1.592,0-1.592,2.275,0,2.275l1.137-0.002c-1.592,0-1.477,2.275,0,2.275l2.805,0.002
	c0.896,0.037,1.768-1.314,1.512-2.211c-0.105-0.373,0.988-1.279,0.408-2.34c-0.16-0.289,0.691-1.213-0.195-2.57
	C56.868,53.934,57.192,52.211,55.188,52.211z"/>
<path fill="#614A36" d="M48.341,51.709c-1.09,0.709,1.15,2.752,1.627,2.453c0,0,2.086-1.727,2.498-2.422
	c0.973-1.646-0.408-2.471-0.748-2.146C50.729,50.537,49.13,51.195,48.341,51.709z"/>
<path fill="#614A36" d="M44.207,21.423c-2.363-5.572-6.696-11.619-6.696-11.619c-15.857,9.529-29.262,4.747-25.54,22.806
	c1.767,8.568,12.366,15.206,16.544,15.206c4.172,0,15.039-6.587,16.537-15.206C45.919,27.616,45.309,24.019,44.207,21.423z"/>
<path fill="#F5F5F5" d="M43.01,25.148c-1.888,4.917-9.565,4.194-10.973,0.757C33.106,20.38,41.974,19.907,43.01,25.148z"/>
<path fill="#45332C" d="M33.997,24.626c0,4.336,6.27,4.336,6.27,0C40.267,20.601,33.997,20.601,33.997,24.626z"/>
<path fill="#45332C" d="M43.01,25.113c0-5.278-10.973-5.278-10.973,0.835C33.606,20.933,41.442,20.933,43.01,25.113z"/>
<path fill="#F5F5F5" d="M14.013,25.148c1.888,4.917,9.566,4.194,10.973,0.757C23.917,20.38,15.052,19.907,14.013,25.148z"/>
<path fill="#45332C" d="M23.025,24.626c0,4.336-6.271,4.336-6.271,0C16.755,20.601,23.025,20.601,23.025,24.626z"/>
<path fill="#45332C" d="M14.013,25.113c0-5.276,10.973-5.276,10.973,0.833C23.418,20.933,15.581,20.933,14.013,25.113z"/>
<path fill="#F5F5F5" d="M34.384,23.571c0,1.084,1.567,1.084,1.567,0C35.951,22.565,34.384,22.565,34.384,23.571z"/>
<path fill="#F5F5F5" d="M18.904,23.352c0,1.083-1.566,1.083-1.566,0C17.338,22.345,18.904,22.345,18.904,23.352z"/>
<path fill="#3B2C20" d="M36.347,37.757c-1.473,1.667-2.395,4.619-7.836,4.619c-4.746,0-6.055-2.601-7.836-4.619H36.347z"/>
<path fill="#FFFFFF" d="M35.368,37.808c-3.225,3.303-10.447,3.348-13.715,0H35.368z"/>
<path fill="#3B2C20" d="M28.513,37.489c-3.072-1.346-3.096-0.053-7.838,0.268c5.988,0.67,9.685,0.67,15.672,0
	C31.606,37.437,31.581,36.144,28.513,37.489z"/>
<path fill="#3B2B1C" d="M42.344,20.411c-3.323-1.369-7.87-1.637-10.206-0.722c-0.492,0.192-0.477,1.371-0.043,1.253
	c3.349-0.91,7.203-0.982,10.375,0.12C42.895,21.213,42.843,20.618,42.344,20.411z"/>
<path fill="#3B2B1C" d="M14.558,20.414c3.322-1.37,7.87-1.637,10.207-0.725c0.492,0.192,0.477,1.373,0.041,1.253
	c-3.349-0.91-7.202-0.982-10.371,0.122C14.007,21.213,14.059,20.618,14.558,20.414z"/>
<path fill="#3B2B1C" d="M32.429,33.011c0,2.517-7.731,2.517-7.731,0C24.697,32.433,32.429,32.433,32.429,33.011z"/>
</svg>
