<?xml version="1.0" encoding="utf-8"?>
<!-- Generator: Adobe Illustrator 15.0.0, SVG Export Plug-In . SVG Version: 6.00 Build 0)  -->
<!DOCTYPE svg PUBLIC "-//W3C//DTD SVG 1.1//EN" "http://www.w3.org/Graphics/SVG/1.1/DTD/svg11.dtd">
<svg version="1.1" id="Layer_1" xmlns="http://www.w3.org/2000/svg" xmlns:xlink="http://www.w3.org/1999/xlink" x="0px" y="0px"
	 width="64px" height="64px" viewBox="0 0 64 64" enable-background="new 0 0 64 64" xml:space="preserve">
<path fill="#C8A35D" d="M41.477,10.017c-4.824-6.396-28.75-3.833-28.75,15.032c0.1,10.136,1.699,33.158,19.226,33.158
	c17.52,0,19.123-22.925,19.324-33.158C51.275,18.765,47.771,11.335,41.477,10.017z"/>
<path fill="#A3864C" d="M13.003,31.24c0.862,11.184,4.453,26.967,18.964,26.967c14.558,0,18.124-15.818,19.031-27.04
	C50.521,26,47.579,19.326,41.197,11.46C28.116,20.263,13.986,18.893,13.003,31.24z"/>
<path fill="#302C3B" d="M13.903,51.87c2.199-1.494,12.332-5.44,12.332-5.44h11.603c0,0,10.125,3.938,12.314,5.438
	C53.332,54.041,54,62,54,62H10C10,62,10.711,54.034,13.903,51.87"/>
<path fill="#BF8D69" d="M25.86,49.657c0,3.343,4.141,5.01,6.119,5c1.98-0.01,6.162-1.72,6.162-5V40H25.86V49.657z"/>
<path fill="#1A1626" d="M49.275,55.264c-0.586,1.68-1.137,4.73-0.668,6.736C49.613,60.896,49.818,53.699,49.275,55.264"/>
<path fill="#1A1626" d="M15.393,62c0.471-2.006-0.082-5.057-0.668-6.736C14.182,53.699,14.387,60.896,15.393,62"/>
<path fill="#1A1626" d="M24.241,47.91c0,0-1.938,2.965-2.75,5.402l3.125,1.902c0,0-2.131,2.51-2.471,2.991
	c0,0,2.158,2.794,2.471,3.794h0.895c0,0-1.115-2.338-2.191-3.794c0,0,1.367-2.341,2.191-3.164l-2.867-2.167
	C22.643,52.875,23.428,49.82,24.241,47.91"/>
<path fill="#1A1626" d="M39.76,47.91c0,0,1.938,2.965,2.75,5.402l-3.125,1.902c0,0,2.131,2.51,2.471,2.991
	c0,0-2.156,2.794-2.471,3.794H38.49c0,0,1.115-2.338,2.193-3.794c0,0-1.369-2.341-2.193-3.164l2.867-2.167
	C41.357,52.875,40.572,49.82,39.76,47.91"/>
<path fill="#E6EBEF" d="M36.668,62c1.398-3.063,1.43-12.343,1.43-12.343c-2.049,3.368-5.894,4.904-6.119,4.991
	c-0.225-0.087-4.07-1.623-6.119-4.991c0,0,0.031,9.279,1.43,12.343H36.668z"/>
<path fill="#F9C802" d="M45.258,59.175c-0.244,0-0.676,0.278-0.85,0.397c-0.236-0.199-0.58-0.199-0.816,0
	c-0.172-0.119-0.604-0.397-0.85-0.397c-0.539,0-1.711,0.462-1.711,0.661c0,0.087,1.145-0.183,2.336,0.479
	c0.127,0.783,1.141,0.783,1.268,0c1.189-0.662,2.336-0.393,2.336-0.479C46.971,59.637,45.797,59.175,45.258,59.175z"/>
<polygon fill="#302C3B" points="34.42,62 33.637,58.521 34.5,56.552 31.963,54.657 29.5,56.552 30.366,58.521 29.581,62 "/>
<path fill="#FFFFFF" d="M31.979,54.648c-0.225-0.087-4.07-1.623-6.119-4.991c0,0,0.012,2.868,0.26,5.94
	c0.76,1.144,2.023,2.924,2.516,2.924c0.725,0,3.344-3.521,3.344-3.521s2.599,3.521,3.386,3.521c0.566,0,1.756-1.716,2.471-2.881
	c0.252-3.089,0.262-5.983,0.262-5.983C36.049,53.025,32.204,54.562,31.979,54.648"/>
<path fill="#EBBEA0" d="M46.23,25.19c-2.127-5.018-6.029-10.461-6.029-10.461c-14.279,8.579-26.348,4.273-22.997,20.534
	c1.591,7.715,11.136,13.691,14.896,13.691c3.756,0,13.542-5.931,14.89-13.691C47.771,30.768,47.223,27.528,46.23,25.19z"/>
<path fill="#F5F5F5" d="M45.152,28.545c-1.699,4.428-8.613,3.776-9.88,0.682C36.234,24.252,44.219,23.825,45.152,28.545z"/>
<path fill="#45332C" d="M37.037,28.075c0,3.903,5.646,3.903,5.646,0C42.684,24.45,37.037,24.45,37.037,28.075z"/>
<path fill="#45332C" d="M45.152,28.514c0-4.753-9.88-4.753-9.88,0.753C36.686,24.749,43.741,24.749,45.152,28.514z"/>
<path fill="#F5F5F5" d="M19.043,28.545c1.699,4.428,8.614,3.776,9.879,0.682C27.961,24.252,19.979,23.825,19.043,28.545z"/>
<path fill="#45332C" d="M27.159,28.075c0,3.903-5.646,3.903-5.646,0C21.512,24.45,27.159,24.45,27.159,28.075z"/>
<path fill="#45332C" d="M19.043,28.514c0-4.751,9.879-4.751,9.879,0.75C27.512,24.749,20.456,24.749,19.043,28.514z"/>
<path fill="#F5F5F5" d="M37.385,27.125c0,0.977,1.412,0.977,1.412,0C38.797,26.22,37.385,26.22,37.385,27.125z"/>
<path fill="#F5F5F5" d="M23.448,26.927c0,0.976-1.41,0.976-1.41,0C22.038,26.021,23.448,26.021,23.448,26.927z"/>
<path fill="#BF8C6B" d="M39.153,39.898c-1.327,1.501-2.156,4.159-7.055,4.159c-4.274,0-5.452-2.342-7.057-4.159H39.153z"/>
<path fill="#FFFFFF" d="M38.271,39.943c-2.902,2.975-9.407,3.015-12.349,0H38.271z"/>
<path fill="#BF8C6B" d="M32.098,39.657c-2.766-1.212-2.786-0.047-7.057,0.241c5.393,0.604,8.72,0.604,14.112,0
	C34.885,39.61,34.862,38.445,32.098,39.657z"/>
<path fill="#BF8D69" d="M44.553,24.28c-2.992-1.233-7.086-1.474-9.189-0.65c-0.443,0.174-0.43,1.234-0.038,1.129
	c3.015-0.82,6.485-0.885,9.341,0.107C45.049,25.001,45.002,24.466,44.553,24.28z"/>
<path fill="#BF8D69" d="M19.534,24.282c2.992-1.232,7.087-1.474,9.19-0.652c0.443,0.174,0.43,1.236,0.038,1.129
	c-3.016-0.82-6.485-0.885-9.34,0.108C19.039,25.001,19.084,24.466,19.534,24.282z"/>
<path fill="#BF8D69" d="M35.625,35.625c0,2.266-6.961,2.266-6.961,0C28.664,35.104,35.625,35.104,35.625,35.625z"/>
<path opacity="0.2" d="M13.575,19.284c0,0-0.104,0.342-0.264,0.92C16.172,22.687,25.362,24,32.002,24
	c6.644,0,15.762-1.313,18.619-3.796c-0.139-0.576-0.256-0.871-0.256-0.871L13.575,19.284z"/>
<path fill="#302C3B" d="M49.748,16c0,0,18.583-14-17.748-14C-4.33,2,14.25,16,14.25,16s6.5-3.002,17.772-3
	C43.267,13.002,49.748,16,49.748,16"/>
<path fill="#302C3B" d="M32,13c-11.545,0-19.432,1.704-19.432,4.545C12.569,21.095,24.008,23,32,23
	c7.992,0,19.431-1.905,19.431-5.455C51.432,14.704,43.546,13,32,13"/>
<path fill="#F9C802" d="M14.615,15c0,0,16.969-5.144,34.772,0C49.387,15,33.293,6,14.615,15"/>
<path fill="#F9C802" d="M35.897,4.499c-0.835,0-2.373,1.025-2.772,1.302c-0.672-0.397-1.578-0.397-2.249,0
	c-0.399-0.276-1.938-1.302-2.772-1.302c-1.674,0-5.308,1.4-5.308,2.004c0,0.26,3.523-0.578,7.199,1.404
	c0.376,2.119,3.635,2.119,4.01,0c3.676-1.982,7.199-1.145,7.199-1.404C41.205,5.899,37.572,4.499,35.897,4.499z"/>
<path fill="#F9C802" d="M45.03,19.087c0.028,0.011,1.997-2.122,1.137-1.875c-0.829,0.259-2.38,1.336-2.195,2.137
	c0.186,0.817,2.179,1.016,3.086,0.734C47.938,19.831,45.008,19.112,45.03,19.087"/>
<path fill="#F9C802" d="M41.885,19.587c0.027,0.012,2.089-2.026,1.218-1.82c-0.837,0.22-2.433,1.224-2.287,2.033
	c0.147,0.824,2.126,1.115,3.04,0.875C44.744,20.464,41.862,19.61,41.885,19.587"/>
<path fill="#F9C802" d="M38.721,19.987c0.027,0.014,2.177-1.928,1.3-1.762c-0.843,0.182-2.481,1.111-2.375,1.926
	c0.108,0.83,2.065,1.211,2.988,1.015C41.531,20.995,38.7,20.011,38.721,19.987"/>
<path fill="#F9C802" d="M35.544,20.29c0.028,0.016,2.263-1.826,1.38-1.699c-0.851,0.142-2.526,0.996-2.459,1.814
	c0.068,0.834,2.002,1.303,2.934,1.149C38.299,21.425,35.521,20.313,35.544,20.29"/>
<path fill="#F9C802" d="M20.03,19.349c0.184-0.801-1.366-1.877-2.195-2.137c-0.861-0.246,1.107,1.887,1.135,1.875
	c0.02,0.025-2.906,0.743-2.025,0.996C17.85,20.365,19.842,20.165,20.03,19.349"/>
<path fill="#F9C802" d="M23.186,19.8c0.144-0.81-1.45-1.813-2.287-2.033c-0.871-0.206,1.19,1.832,1.219,1.82
	c0.02,0.023-2.861,0.877-1.973,1.088C21.061,20.914,23.038,20.624,23.186,19.8"/>
<path fill="#F9C802" d="M26.356,20.151c0.105-0.814-1.532-1.744-2.377-1.925c-0.877-0.167,1.274,1.774,1.303,1.761
	c0.02,0.023-2.811,1.008-1.914,1.178C24.289,21.362,26.247,20.981,26.356,20.151"/>
<path fill="#F9C802" d="M29.536,20.405c0.068-0.818-1.609-1.673-2.461-1.814c-0.881-0.127,1.354,1.715,1.381,1.699
	c0.023,0.022-2.753,1.137-1.852,1.264C27.533,21.71,29.468,21.239,29.536,20.405"/>
</svg>
