<?xml version="1.0" encoding="utf-8"?>
<!-- Generator: Adobe Illustrator 15.0.0, SVG Export Plug-In . SVG Version: 6.00 Build 0)  -->
<!DOCTYPE svg PUBLIC "-//W3C//DTD SVG 1.1//EN" "http://www.w3.org/Graphics/SVG/1.1/DTD/svg11.dtd">
<svg version="1.1" id="Layer_1" xmlns="http://www.w3.org/2000/svg" xmlns:xlink="http://www.w3.org/1999/xlink" x="0px" y="0px"
	 width="64px" height="64px" viewBox="0 0 64 64" enable-background="new 0 0 64 64" xml:space="preserve">
<g>
	<g>
		<path fill="#4E5E67" d="M45.458,57.65c-0.256-0.587-14.159-8.858-14.175-8.869c-1.961-1.442-2.2-2.845-0.618-3.651
			c1.357-0.689,2.524-2.909,3.404-5.286c0.161,0.07,0.329,0.086,0.501,0.036c3.693-1.079,3.759-8.533,1.289-7.216
			c2.309-20.146-25.582-20.156-23.273,0c-2.472-1.319-2.405,6.137,1.288,7.216c0.17,0.05,0.34,0.034,0.501-0.036
			c0.879,2.377,2.044,4.597,3.401,5.286c1.596,0.812,1.28,2.146-0.657,3.682c-0.646,0.513-9.647,5.531-12.188,7.229
			c-0.005,0.001-0.013,0.007-0.013,0.007H4.92c-1.049,0.703-1.795,1.287-1.933,1.603C2.263,59.32,2,62,2,62h44.444
			C46.444,62,46.184,59.32,45.458,57.65z"/>
	</g>
	<g>
		<g>
			<path fill="#4E5E67" d="M34.544,19.867c1.815,2.036,3.813,5.542,3.668,11.029c0.704,0.527,1.292,1.429,1.492,2.827
				c0.368,2.582-0.683,6.812-4.04,8.129c-0.909,2.145-1.902,3.659-3.005,4.59H62c0,0-0.262-2.68-0.986-4.349
				c-0.256-0.587-14.159-8.858-14.174-8.869c-1.963-1.443-2.201-2.845-0.619-3.651c1.357-0.69,2.523-2.91,3.404-5.288
				c0.16,0.071,0.33,0.086,0.501,0.036c3.692-1.078,3.759-8.532,1.289-7.215c2.261-19.72-24.398-20.134-23.361-1.237
				C30.557,16.57,32.82,17.934,34.544,19.867z"/>
		</g>
	</g>
</g>
</svg>
