<?xml version="1.0" encoding="utf-8"?>
<!-- Generator: Adobe Illustrator 15.0.0, SVG Export Plug-In . SVG Version: 6.00 Build 0)  -->
<!DOCTYPE svg PUBLIC "-//W3C//DTD SVG 1.1//EN" "http://www.w3.org/Graphics/SVG/1.1/DTD/svg11.dtd">
<svg version="1.1" id="Layer_1" xmlns="http://www.w3.org/2000/svg" xmlns:xlink="http://www.w3.org/1999/xlink" x="0px" y="0px"
	 width="64px" height="64px" viewBox="0 0 64 64" enable-background="new 0 0 64 64" xml:space="preserve">
<path fill="#018BC9" d="M43.692,35.967c-1.492-1.043-7.03-3.783-7.03-3.783h-9.274c0,0-5.546,2.746-7.045,3.785
	c-2.509,1.736-3.01,7.102-3.343,12.773L18,62h28l1-13.258C46.688,43.082,46.175,37.701,43.692,35.967z"/>
<path fill="#E6A400" d="M36.432,33.189c0-0.815,0-4.438,0-4.438h-8.863c0,0,0,3.568,0,4.438
	C27.568,36.781,36.432,36.781,36.432,33.189z"/>
<rect x="17" y="48.764" fill="#FDCA47" width="4.091" height="13.236"/>
<rect x="42.909" y="48.764" fill="#FDCA47" width="4.091" height="13.236"/>
<path fill="#EA8800" d="M32,2C19.03,2,19.026,9.806,19.026,19.563h25.947C44.974,9.806,44.97,2,32,2z"/>
<path fill="#F5BC2C" d="M21.603,23.358c1.405-1.309,0.129-6.441-1.683-6.75C16.048,15.948,18.569,26.18,21.603,23.358z"/>
<path fill="#F5BC2C" d="M42.397,23.358c-1.404-1.309-0.129-6.441,1.683-6.75C47.951,15.948,45.431,26.179,42.397,23.358z"/>
<path fill="#FDCA47" d="M32,7.205c-13.55,0-8.091,1.569-11.708,9.528c0,0,0.025,3.65,0.783,7.566
	c0.977,5.048,6.657,8.923,10.925,8.923s9.948-3.875,10.925-8.923c0.758-3.916,0.783-7.566,0.783-7.566
	C40.091,8.774,45.552,7.205,32,7.205z"/>
<path fill="#F5F5F5" d="M41.627,17.883c-1.253,3.265-6.351,2.785-7.285,0.503C35.052,14.717,40.938,14.402,41.627,17.883z"/>
<path fill="#45332C" d="M35.643,17.535c0,2.879,4.163,2.879,4.163,0C39.806,14.862,35.643,14.862,35.643,17.535z"/>
<path fill="#45332C" d="M41.627,17.859c0-3.505-7.285-3.505-7.285,0.555C35.382,15.084,40.587,15.084,41.627,17.859z"/>
<path fill="#F5F5F5" d="M22.373,17.883c1.253,3.265,6.351,2.785,7.285,0.503C28.948,14.717,23.063,14.402,22.373,17.883z"/>
<path fill="#45332C" d="M28.357,17.535c0,2.879-4.163,2.879-4.163,0C24.194,14.863,28.357,14.863,28.357,17.535z"/>
<path fill="#45332C" d="M22.373,17.859c0-3.504,7.285-3.504,7.285,0.554C28.618,15.084,23.413,15.084,22.373,17.859z"/>
<path fill="#D99025" d="M32,26.114c-2.097-0.556-5.204,0.264-5.204,0.264c1.184,1.159,2.051,2.665,5.204,2.665
	c3.613,0,4.226-1.709,5.204-2.665C37.204,26.378,34.093,25.557,32,26.114z"/>
<path fill="#FFFFFF" d="M27.528,26.42c2.227,2.07,6.73,2.084,8.971,0C34.123,26.533,29.921,26.534,27.528,26.42z"/>
<path fill="#E6A400" d="M41.35,14.66c-2.236-0.922-5.298-1.101-6.868-0.487c-0.332,0.13-0.322,0.924-0.029,0.844
	c2.254-0.613,4.848-0.661,6.98,0.082C41.72,15.198,41.685,14.798,41.35,14.66z"/>
<path fill="#E6A400" d="M22.65,14.66c2.235-0.922,5.296-1.101,6.868-0.487c0.332,0.13,0.322,0.924,0.027,0.844
	c-2.253-0.613-4.847-0.661-6.979,0.082C22.28,15.198,22.314,14.798,22.65,14.66z"/>
<path fill="#D67C00" d="M38.259,26.951c-2.441-2.567-10.028-2.589-12.49,0C29.078,26.772,34.929,26.771,38.259,26.951z"/>
<path fill="#EA8800" d="M38.259,26.951c-3.102-3.262-9.369-3.282-12.49,0C26.31,26.269,37.562,26.078,38.259,26.951z"/>
<path fill="#EA8800" d="M42.36,6.011c4.833,6.627-17.6,4.897-22.266,3.93C20.095,9.94,26.948,0.595,42.36,6.011z"/>
<path fill="#D67C00" d="M20.095,9.94c6.701,1.41,27.189,1.216,20.742-5.773C51.351,12.555,25.769,13.303,20.095,9.94z"/>
<path fill="#E6A400" d="M34.603,22.877c0,1.693-5.205,1.693-5.205,0C29.397,22.489,34.603,22.489,34.603,22.877z"/>
<path fill="#E32B56" d="M53.386,61.996c-1.197-0.832-5.646-3.025-5.646-3.025h-7.451c0,0-4.455,2.197-5.66,3.029L53.386,61.996z"/>
<path fill="#E6A400" d="M47.538,59.076c0-0.652,0-3.551,0-3.551h-7.09c0,0,0,2.855,0,3.551
	C40.448,61.949,47.538,61.949,47.538,59.076z"/>
<path fill="#EA8800" d="M35.808,49.396c-7.723,4.559-0.934,8.707-3.131,10.672C36.948,62.721,47.403,58.15,35.808,49.396z"/>
<path fill="#D67C00" d="M33.501,51.129c1.896,7.277,5.797,7.527,5.471,8.844C42.599,58.074,42.632,51.939,33.501,51.129z"/>
<path fill="#EA8800" d="M52.192,49.396c7.723,4.559,0.934,8.707,3.133,10.672C51.054,62.721,40.597,58.15,52.192,49.396z"/>
<path fill="#D67C00" d="M54.499,51.129c-1.896,7.277-5.795,7.527-5.471,8.844C45.403,58.074,45.37,51.939,54.499,51.129z"/>
<path fill="#EA8800" d="M33.437,49.213h21.115C57.626,32.688,30.364,32.688,33.437,49.213z"/>
<path fill="#D67C00" d="M33.411,49.01c0,0,12.02,4.486,20.352-0.713c-1.682,0.318-4.416-6.125-17.213-6.607
	C36.081,49.01,33.831,47.023,33.411,49.01z"/>
<path fill="#CFD8DD" d="M53.562,48.035c0.896-12.365-20.033-12.365-19.139,0C35.204,37.65,52.782,37.65,53.562,48.035z"/>
<path fill="#FFFFFF" d="M53.562,47.635c0.896-12.365-20.033-12.365-19.139,0C35.204,37.25,52.782,37.25,53.562,47.635z"/>
<path fill="#F5BC2C" d="M34.647,48.115c-3.643-0.471-1.27,6.842,1.584,4.826C37.552,52.006,36.353,48.336,34.647,48.115z"/>
<path fill="#F5BC2C" d="M53.341,48.115c-1.705,0.221-2.906,3.891-1.584,4.826C54.61,54.957,56.983,47.645,53.341,48.115z"/>
<path fill="#FDCA47" d="M53.222,48.137c-3.49-0.992-7.957-5.742-16.447-5.168c0.148,1.867-0.342,3.984-1.98,5.176
	c0,0-0.008,1.678,0.59,4.748c0.979,5.027,5.039,7,8.609,7c3.572,0,7.635-1.973,8.611-7C53.202,49.82,53.222,48.137,53.222,48.137z"
	/>
<path fill="#F5F5F5" d="M51.394,49.799c-0.963,2.51-4.881,2.141-5.6,0.385C46.339,47.363,50.864,47.123,51.394,49.799z"/>
<path fill="#45332C" d="M46.794,49.531c0,2.213,3.201,2.213,3.201,0C49.995,47.477,46.794,47.477,46.794,49.531z"/>
<path fill="#45332C" d="M51.394,49.779c0-2.693-5.6-2.693-5.6,0.428C46.595,47.646,50.595,47.646,51.394,49.779z"/>
<path fill="#F5F5F5" d="M36.595,49.799c0.963,2.51,4.883,2.141,5.6,0.385C41.649,47.363,37.124,47.123,36.595,49.799z"/>
<path fill="#45332C" d="M41.194,49.531c0,2.213-3.199,2.213-3.199,0C37.995,47.477,41.194,47.477,41.194,49.531z"/>
<path fill="#45332C" d="M36.595,49.779c0-2.693,5.6-2.693,5.6,0.426C41.396,47.646,37.394,47.646,36.595,49.779z"/>
<path fill="#D99025" d="M43.995,55.326c-1.611-0.428-4,0.201-4,0.201c0.91,0.893,1.576,2.049,4,2.049c2.777,0,3.248-1.313,4-2.049
	C47.995,55.527,45.604,54.896,43.995,55.326z"/>
<path fill="#FFFFFF" d="M40.558,55.561c1.711,1.59,5.172,1.602,6.896,0C45.626,55.648,42.396,55.648,40.558,55.561z"/>
<path fill="#E6A400" d="M51.181,47.463c-1.719-0.709-4.07-0.848-5.279-0.375c-0.256,0.1-0.246,0.709-0.021,0.648
	c1.732-0.473,3.727-0.508,5.365,0.063C51.466,47.877,51.438,47.568,51.181,47.463z"/>
<path fill="#E6A400" d="M36.808,47.463c1.719-0.709,4.072-0.848,5.279-0.375c0.256,0.1,0.248,0.709,0.021,0.648
	c-1.73-0.473-3.725-0.508-5.365,0.063C36.522,47.877,36.55,47.568,36.808,47.463z"/>
<path fill="#E6A400" d="M45.995,53.414c0,1.303-4,1.303-4,0C41.995,53.117,45.995,53.117,45.995,53.414z"/>
<path fill="#E32B56" d="M29.386,61.996c-1.199-0.832-5.648-3.025-5.648-3.025h-7.451c0,0-4.455,2.197-5.66,3.029L29.386,61.996z"/>
<path fill="#E6A400" d="M23.538,59.076c0-0.652,0-3.551,0-3.551h-7.092c0,0,0,2.855,0,3.551
	C16.446,61.949,23.538,61.949,23.538,59.076z"/>
<path fill="#EA8800" d="M11.806,49.396c-7.721,4.559-0.932,8.707-3.131,10.672C12.946,62.721,23.403,58.15,11.806,49.396z"/>
<path fill="#D67C00" d="M9.501,51.129c1.895,7.277,5.795,7.527,5.469,8.844C18.597,58.074,18.63,51.939,9.501,51.129z"/>
<path fill="#EA8800" d="M28.19,49.396c7.723,4.559,0.934,8.707,3.133,10.672C27.052,62.721,16.595,58.15,28.19,49.396z"/>
<path fill="#D67C00" d="M30.499,51.129c-1.896,7.277-5.797,7.527-5.471,8.844C21.401,58.074,21.368,51.939,30.499,51.129z"/>
<path fill="#EA8800" d="M9.435,49.213h21.117C33.624,32.688,6.362,32.688,9.435,49.213z"/>
<path fill="#D67C00" d="M9.409,49.01c0,0,12.02,4.486,20.354-0.713c-1.684,0.318-4.416-6.125-17.215-6.607
	C12.079,49.01,9.829,47.023,9.409,49.01z"/>
<path fill="#CFD8DD" d="M29.562,48.035c0.895-12.365-20.035-12.365-19.139,0C11.202,37.65,28.78,37.65,29.562,48.035z"/>
<path fill="#FFFFFF" d="M29.562,47.635c0.895-12.365-20.035-12.365-19.139,0C11.202,37.25,28.78,37.25,29.562,47.635z"/>
<path fill="#F5BC2C" d="M10.646,48.115c-3.643-0.471-1.268,6.842,1.584,4.826C13.552,52.006,12.351,48.336,10.646,48.115z"/>
<path fill="#F5BC2C" d="M29.339,48.115c-1.705,0.221-2.904,3.891-1.582,4.826C30.608,54.957,32.981,47.645,29.339,48.115z"/>
<path fill="#FDCA47" d="M29.222,48.137c-3.492-0.992-7.959-5.742-16.449-5.168c0.148,1.867-0.342,3.984-1.98,5.176
	c0,0-0.008,1.678,0.592,4.748c0.977,5.027,5.039,7,8.609,7s7.633-1.973,8.609-7C29.2,49.82,29.222,48.137,29.222,48.137z"/>
<path fill="#F5F5F5" d="M27.394,49.799c-0.963,2.51-4.883,2.141-5.602,0.385C22.339,47.363,26.864,47.123,27.394,49.799z"/>
<path fill="#45332C" d="M22.792,49.531c0,2.213,3.201,2.213,3.201,0C25.993,47.477,22.792,47.477,22.792,49.531z"/>
<path fill="#45332C" d="M27.394,49.779c0-2.693-5.602-2.693-5.602,0.428C22.593,47.646,26.593,47.646,27.394,49.779z"/>
<path fill="#F5F5F5" d="M12.593,49.799c0.965,2.51,4.883,2.141,5.6,0.385C17.647,47.363,13.124,47.123,12.593,49.799z"/>
<path fill="#45332C" d="M17.192,49.531c0,2.213-3.199,2.213-3.199,0C13.993,47.477,17.192,47.477,17.192,49.531z"/>
<path fill="#45332C" d="M12.593,49.779c0-2.693,5.6-2.693,5.6,0.426C17.394,47.646,13.394,47.646,12.593,49.779z"/>
<path fill="#D99025" d="M19.993,55.326c-1.611-0.428-4,0.201-4,0.201c0.91,0.893,1.576,2.049,4,2.049c2.777,0,3.248-1.313,4-2.049
	C23.993,55.527,21.603,54.896,19.993,55.326z"/>
<path fill="#FFFFFF" d="M16.556,55.561c1.713,1.59,5.174,1.602,6.896,0C21.626,55.648,18.396,55.648,16.556,55.561z"/>
<path fill="#E6A400" d="M27.181,47.463c-1.721-0.709-4.072-0.848-5.279-0.375c-0.256,0.1-0.248,0.709-0.023,0.648
	c1.732-0.473,3.727-0.508,5.367,0.063C27.464,47.877,27.438,47.568,27.181,47.463z"/>
<path fill="#E6A400" d="M12.808,47.463c1.717-0.709,4.07-0.848,5.279-0.375c0.254,0.1,0.246,0.709,0.021,0.648
	c-1.732-0.473-3.727-0.508-5.365,0.063C12.521,47.877,12.548,47.568,12.808,47.463z"/>
<path fill="#E6A400" d="M21.993,53.414c0,1.303-4,1.303-4,0C17.993,53.117,21.993,53.117,21.993,53.414z"/>
</svg>
