<?xml version="1.0" encoding="utf-8"?>
<!-- Generator: Adobe Illustrator 15.0.0, SVG Export Plug-In . SVG Version: 6.00 Build 0)  -->
<!DOCTYPE svg PUBLIC "-//W3C//DTD SVG 1.1//EN" "http://www.w3.org/Graphics/SVG/1.1/DTD/svg11.dtd">
<svg version="1.1" id="Layer_1" xmlns="http://www.w3.org/2000/svg" xmlns:xlink="http://www.w3.org/1999/xlink" x="0px" y="0px"
	 width="64px" height="64px" viewBox="0 0 64 64" enable-background="new 0 0 64 64" xml:space="preserve">
<path fill="#38332D" d="M43.308,5.497C37.551-1.608,9,1.239,9,22.191c0.12,11.257,2.029,36.825,22.939,36.825
	c20.908,0,22.82-25.46,23.061-36.825C55,15.211,50.818,6.96,43.308,5.497z"/>
<path fill="#26221E" d="M9.332,29.067c1.029,12.42,5.313,29.948,22.628,29.948c17.371,0,21.626-17.567,22.708-30.03
	c-0.568-5.739-4.08-13.15-11.695-21.887C27.365,16.876,10.504,15.354,9.332,29.067z"/>
<path fill="#E6EBEF" d="M13.747,51.79c2.22-1.506,11.43-5.484,11.43-5.484h13.717c0,0,9.203,3.969,11.409,5.482
	c3.208,2.189,3.884,10.213,3.884,10.213H9.813C9.813,62.001,10.528,53.97,13.747,51.79"/>
<path fill="#CFD7DC" d="M14.293,62.001c0.516-2.189-0.093-5.518-0.735-7.35C12.959,52.944,13.186,60.796,14.293,62.001"/>
<path fill="#CFD7DC" d="M49.707,62.001c-0.516-2.189,0.091-5.518,0.735-7.35C51.039,52.944,50.814,60.796,49.707,62.001"/>
<path fill="#302C3B" d="M45.104,55.077c-0.808-4.764-3.273-7.842-7.327-9.152c-6.573-2.123-18.019,1.088-18.249,4.301l-1.086-0.146
	c0.288-3.994,12.738-7.166,19.644-4.934c4.396,1.42,7.063,4.719,7.927,9.805L45.104,55.077z"/>
<path fill="#CFD8DD" d="M45.851,54.001c2.226,0,4.034,1.791,4.034,4c0,2.207-1.809,4-4.034,4c-2.228,0-4.034-1.793-4.034-4
	C41.816,55.792,43.623,54.001,45.851,54.001"/>
<path fill="#4E5E67" d="M45.851,55.001c1.673,0,3.023,1.342,3.023,3s-1.351,3-3.023,3c-1.672,0-3.027-1.342-3.027-3
	S44.179,55.001,45.851,55.001"/>
<path fill="#BEC3CF" d="M45.851,55.501c1.393,0,2.52,1.117,2.52,2.5c0,1.381-1.127,2.5-2.52,2.5c-1.395,0-2.522-1.119-2.522-2.5
	C43.328,56.618,44.456,55.501,45.851,55.501"/>
<rect x="24.681" y="41.001" fill="#3B2B1C" width="14.637" height="10.535"/>
<path fill="#8E3ED6" d="M38.555,49.241c-2.011,0.973-4.236,1.531-6.555,1.531c-2.316,0-4.544-0.559-6.555-1.533L32,62.001
	L38.555,49.241z"/>
<path fill="#BEC3CF" d="M22.686,46.769c-1.985,5.639-1.06,9.238-1.06,9.238c1.672-1.414,4.957-2.979,4.957-2.979
	c-1.189,1.578-2.133,4.17-2.133,4.17c3.567,0.535,7.55,4.803,7.55,4.803S26.457,46.997,22.686,46.769z"/>
<path fill="#E6EBEF" d="M25.165,43.856c0,0-0.979-0.381-1.396,0.332c-2.456,4.232-1.639,10.221-1.639,10.221
	c1.673-1.414,5.013-1.834,5.015-1.836c-1.191,1.58-1.699,3.357-1.699,3.357c2.519,1.115,6.555,6.07,6.555,6.07
	S28.632,52.839,25.165,43.856z"/>
<path fill="#BEC3CF" d="M41.313,46.769c1.985,5.639,1.062,9.238,1.062,9.238c-1.672-1.414-4.957-2.979-4.959-2.979
	c1.191,1.578,2.135,4.17,2.135,4.17C35.982,57.733,32,62.001,32,62.001S37.541,46.997,41.313,46.769z"/>
<path fill="#E6EBEF" d="M38.835,43.856c0,0,0.979-0.381,1.396,0.332c2.456,4.232,1.639,10.221,1.639,10.221
	c-1.672-1.414-5.015-1.834-5.015-1.836c1.189,1.58,1.699,3.357,1.699,3.357C36.034,57.046,32,62.001,32,62.001
	S35.368,52.839,38.835,43.856z"/>
<path fill="#302C3B" d="M23.658,54.606h-1.056c0-2.02-1.656-3.662-3.693-3.662c-2.036,0-3.692,1.643-3.692,3.662H14.16
	c0-2.594,2.132-4.707,4.749-4.709C21.527,49.897,23.658,52.013,23.658,54.606"/>
<path fill="#99A8AE" d="M14.16,54.606v5.551c0,1.004,0.511,1.738,1.584,1.816c0.68,0.049,0.674-0.998-0.002-1.047
	c-0.705-0.051-0.525-0.895-0.523-1.387l-0.002-4.934C15.217,53.933,14.16,53.933,14.16,54.606"/>
<path fill="#99A8AE" d="M22.603,54.606v4.783c0,0.502,0.213,1.484-0.525,1.537c-0.676,0.049-0.68,1.096,0,1.047
	c1.008-0.074,1.581-0.754,1.581-1.732v-5.635C23.658,53.931,22.603,53.933,22.603,54.606"/>
<path fill="#302C3B" d="M16.455,61.976h-0.77c-0.678,0-0.676-1.152,0-1.152l0.77,0.002C17.133,60.823,17.133,61.976,16.455,61.976z"
	/>
<path fill="#302C3B" d="M22.136,61.976h-0.771c-0.677,0-0.677-1.152-0.002-1.152l0.772,0.002
	C22.812,60.823,22.812,61.976,22.136,61.976z"/>
<path fill="#614A36" d="M47.938,21.423c-2.383-5.573-6.753-11.619-6.753-11.619c-15.992,9.528-29.51,4.747-25.757,22.806
	c1.782,8.569,12.472,15.206,16.685,15.206c4.207,0,15.167-6.586,16.677-15.206C49.664,27.616,49.049,24.019,47.938,21.423z"/>
<path fill="#F5F5F5" d="M46.73,25.148c-1.904,4.917-9.646,4.194-11.065,0.757C36.743,20.379,45.686,19.907,46.73,25.148z"/>
<path fill="#45332C" d="M37.642,24.625c0,4.336,6.322,4.336,6.322,0C43.964,20.6,37.642,20.6,37.642,24.625z"/>
<path fill="#45332C" d="M46.73,25.113c0-5.279-11.065-5.279-11.065,0.835C37.247,20.933,45.149,20.933,46.73,25.113z"/>
<path fill="#F5F5F5" d="M17.487,25.148c1.903,4.917,9.647,4.194,11.065,0.757C27.476,20.379,18.535,19.907,17.487,25.148z"/>
<path fill="#45332C" d="M26.576,24.625c0,4.336-6.323,4.336-6.323,0C20.253,20.6,26.576,20.6,26.576,24.625z"/>
<path fill="#45332C" d="M17.487,25.113c0-5.276,11.065-5.276,11.065,0.833C26.973,20.933,19.069,20.933,17.487,25.113z"/>
<path fill="#F5F5F5" d="M38.031,23.571c0,1.085,1.58,1.085,1.58,0C39.611,22.566,38.031,22.566,38.031,23.571z"/>
<path fill="#F5F5F5" d="M22.42,23.352c0,1.083-1.579,1.083-1.579,0C20.841,22.345,22.42,22.345,22.42,23.352z"/>
<path fill="#3B2C20" d="M40.011,37.757c-1.485,1.668-2.415,4.619-7.902,4.619c-4.786,0-6.106-2.6-7.902-4.619H40.011z"/>
<path fill="#FFFFFF" d="M39.023,37.808c-3.252,3.303-10.535,3.348-13.831,0H39.023z"/>
<path fill="#3B2C20" d="M32.11,37.489c-3.099-1.346-3.122-0.053-7.904,0.268c6.039,0.67,9.767,0.67,15.805,0
	C35.23,37.437,35.205,36.144,32.11,37.489z"/>
<path fill="#3B2B1C" d="M46.059,20.412c-3.352-1.37-7.937-1.637-10.293-0.722c-0.496,0.193-0.48,1.371-0.043,1.253
	c3.377-0.911,7.265-0.982,10.463,0.12C46.614,21.213,46.562,20.618,46.059,20.412z"/>
<path fill="#3B2B1C" d="M18.037,20.414c3.351-1.37,7.937-1.637,10.293-0.725c0.497,0.193,0.481,1.373,0.042,1.253
	c-3.377-0.911-7.264-0.982-10.459,0.122C17.481,21.213,17.533,20.618,18.037,20.414z"/>
<path fill="#3B2B1C" d="M36.06,33.012c0,2.517-7.797,2.517-7.797,0C28.263,32.433,36.06,32.433,36.06,33.012z"/>
</svg>
