<?xml version="1.0" encoding="utf-8"?>
<!-- Generator: Adobe Illustrator 15.0.0, SVG Export Plug-In . SVG Version: 6.00 Build 0)  -->
<!DOCTYPE svg PUBLIC "-//W3C//DTD SVG 1.1//EN" "http://www.w3.org/Graphics/SVG/1.1/DTD/svg11.dtd">
<svg version="1.1" id="Layer_1" xmlns="http://www.w3.org/2000/svg" xmlns:xlink="http://www.w3.org/1999/xlink" x="0px" y="0px"
	 width="64px" height="64px" viewBox="0 0 64 64" enable-background="new 0 0 64 64" xml:space="preserve">
<rect x="2" y="14" fill="#C49A45" width="60" height="40"/>
<rect x="4" y="16" fill="#014F27" width="56" height="36"/>
<path fill="#E6EBEF" d="M5.813,54.308c2.15-1.134,11.076-4.13,11.076-4.13h13.293c0,0,8.918,2.989,11.055,4.127
	C44.346,55.957,45,62,45,62H2C2,62,2.693,55.952,5.813,54.308"/>
<rect x="16.717" y="46.039" fill="#664935" width="13.566" height="7.333"/>
<path fill="#BEC3CF" d="M40.51,56.885c-0.57,1.277-1.109,3.59-0.652,5.114C40.84,61.162,41.041,55.697,40.51,56.885"/>
<path fill="#BEC3CF" d="M7.398,62c0.459-1.524-0.08-3.841-0.654-5.114C6.213,55.696,6.414,61.161,7.398,62"/>
<polygon fill="#018BC9" points="26.76,62 25.029,56.08 25.838,54.245 23.5,53.168 21.162,54.245 21.971,56.08 20.24,62 "/>
<path fill="#006DAE" d="M24.631,56.016c-0.447-0.15-1.814-0.15-2.262,0C21.342,56.361,25.658,56.361,24.631,56.016z"/>
<path fill="#BEC3CF" d="M23.5,53.168c-2.582,0-5.834-0.554-6.908-3.463c-1.693,1.001-1.014,3.463-0.609,7.944
	C18.098,57.454,19.594,54.841,23.5,53.168z"/>
<path fill="#E6EBEF" d="M23.5,53.168c-2.582,0-5.672-1.096-6.748-4.005c-1.693,1-0.752,3.071-0.35,7.554
	C18.518,56.521,19.594,54.841,23.5,53.168z"/>
<path fill="#BEC3CF" d="M23.5,53.168c2.582,0,5.834-0.554,6.908-3.463c1.693,1.001,1.014,3.463,0.609,7.944
	C28.902,57.454,27.406,54.841,23.5,53.168z"/>
<path fill="#E6EBEF" d="M23.5,53.168c2.582,0,5.672-1.096,6.748-4.005c1.693,1,0.752,3.071,0.35,7.554
	C28.482,56.521,27.406,54.841,23.5,53.168z"/>
<path fill="#916B50" d="M40.098,58.667c-1.32-1.734,0.15-5.775,2.277-6.254C51.783,50.298,45.943,66.337,40.098,58.667z"/>
<polygon fill="#E81C27" points="45.248,52.11 46.902,52.713 56.951,23.388 56.398,23.188 "/>
<rect x="43.201" y="51.885" transform="matrix(-0.9398 -0.3416 0.3416 -0.9398 67.0007 125.1618)" fill="#302C3B" width="2.641" height="9.593"/>
<path fill="#916B50" d="M47.561,54.524l-1.951-0.711c-1.24-0.451-1.842,1.203-0.602,1.655l-0.828-0.301
	c-0.494-0.182-0.977,0.112-1.127,0.526c-0.148,0.413,0.113,0.977,0.525,1.127c-1.158-0.421-1.76,1.233-0.6,1.654l0.826,0.302
	c-1.158-0.421-1.678,1.263-0.604,1.654l2.043,0.743c0.641,0.266,1.633-0.487,1.684-1.207c0.021-0.3,1.059-0.668,0.916-1.594
	c-0.039-0.254,0.826-0.7,0.539-1.923C48.33,56.223,49.02,55.056,47.561,54.524z"/>
<path fill="#916B50" d="M42.713,52.345c-0.982,0.228,0.107,2.309,0.531,2.217c0,0,1.977-0.705,2.463-1.102
	c1.143-0.939,0.354-1.905,0.021-1.76C44.76,52.125,43.422,52.18,42.713,52.345z"/>
<path fill="#614036" d="M23.5,10C6.302,10,6.297,20.348,6.297,33.287h34.404C40.701,20.348,40.697,10,23.5,10z"/>
<path fill="#75543D" d="M9.713,38.317c1.863-1.733,0.172-8.539-2.23-8.948C2.348,28.493,5.693,42.062,9.713,38.317z"/>
<path fill="#75543D" d="M37.287,38.317c-1.863-1.733-0.172-8.539,2.23-8.948C44.65,28.493,41.309,42.06,37.287,38.317z"/>
<path fill="#916B50" d="M23.5,16.9c-17.969,0-10.729,2.081-15.525,12.636c0,0,0.035,4.84,1.039,10.031
	C10.309,46.261,17.842,51.4,23.5,51.4s13.191-5.14,14.486-11.833c1.004-5.191,1.039-10.031,1.039-10.031
	C34.229,18.98,41.469,16.9,23.5,16.9z"/>
<path fill="#F5F5F5" d="M35.5,31.042c-1.496,3.901-7.588,3.329-8.703,0.601C27.645,27.26,34.676,26.886,35.5,31.042z"/>
<path fill="#45332C" d="M28.352,30.628c0,3.438,4.973,3.438,4.973,0C33.324,27.435,28.352,27.435,28.352,30.628z"/>
<path fill="#45332C" d="M35.5,31.015c0-4.187-8.703-4.187-8.703,0.662C28.041,27.699,34.256,27.699,35.5,31.015z"/>
<path fill="#F5F5F5" d="M11.5,31.042c1.497,3.901,7.588,3.329,8.703,0.601C19.355,27.26,12.324,26.886,11.5,31.042z"/>
<path fill="#45332C" d="M18.648,30.628c0,3.438-4.973,3.438-4.973,0C13.676,27.435,18.648,27.435,18.648,30.628z"/>
<path fill="#45332C" d="M11.5,31.015c0-4.186,8.703-4.186,8.703,0.66C18.961,27.699,12.743,27.699,11.5,31.015z"/>
<path fill="#F5F5F5" d="M28.656,29.792c0,0.86,1.244,0.86,1.244,0C29.9,28.994,28.656,28.994,28.656,29.792z"/>
<path fill="#F5F5F5" d="M15.381,29.617c0,0.859-1.243,0.859-1.243,0C14.138,28.819,15.381,28.819,15.381,29.617z"/>
<path fill="#734A2E" d="M23.5,41.976c-2.781-0.74-6.9,0.349-6.9,0.349c1.569,1.538,2.719,3.532,6.9,3.532
	c4.791,0,5.604-2.266,6.898-3.532C30.398,42.324,26.275,41.235,23.5,41.976z"/>
<path fill="#FFFFFF" d="M17.57,42.378c2.953,2.746,8.924,2.763,11.896,0C26.314,42.528,20.742,42.529,17.57,42.378z"/>
<path fill="#664935" d="M35.896,26.787c-2.965-1.223-7.023-1.462-9.107-0.647c-0.439,0.172-0.426,1.225-0.037,1.118
	c2.988-0.813,6.426-0.875,9.256,0.108C36.387,27.5,36.342,26.969,35.896,26.787z"/>
<path fill="#664935" d="M11.103,26.787c2.964-1.223,7.022-1.462,9.106-0.647c0.439,0.172,0.426,1.225,0.037,1.118
	c-2.987-0.813-6.426-0.875-9.254,0.108C10.611,27.5,10.656,26.969,11.103,26.787z"/>
<path fill="#614036" d="M37.238,15.314c6.408,8.789-23.337,6.496-29.524,5.214C7.714,20.529,16.801,8.135,37.238,15.314z"/>
<path fill="#4A2E24" d="M7.714,20.529c8.886,1.87,36.054,1.61,27.503-7.657C49.158,23.994,15.238,24.984,7.714,20.529z"/>
<path fill="#664935" d="M26.949,37.681c0,2.244-6.9,2.244-6.9,0C20.049,37.165,26.949,37.165,26.949,37.681z"/>
<path opacity="0.3" fill="#F5F5F5" d="M25.223,28.539c-0.541,8.816,8.375,8.167,12.104,6.458
	C40.307,27.496,39.473,25.352,25.223,28.539z"/>
<path opacity="0.3" fill="#F5F5F5" d="M32.748,28.223c-1.5,0.091-3.176,0.249-4.467,0.528c-0.797,0.172-2.809,0.621-1.035,4.349
	C27.678,34.006,33.824,28.157,32.748,28.223z"/>
<path opacity="0.3" fill="#F5F5F5" d="M8.473,27.581c-1.473,9.896,6.082,9.5,10.916,7.521C27.91,25.289,11.307,26.935,8.473,27.581z
	"/>
<path opacity="0.3" fill="#F5F5F5" d="M15.912,28.49c-1.963-0.145-3.783-0.165-4.324-0.165c-1.236,0-2.449,0.79-1.689,4
	C10.117,33.251,17.227,28.586,15.912,28.49z"/>
<path fill="#302C3B" d="M38.859,26.643c-0.566-0.07-2.344-0.155-4.5-0.155c-2.473,0-4.447,0.354-6.391,0.694
	c-1.928,0.339-3.213,0.577-4.469,0.577c-1.258,0-2.541-0.238-4.469-0.577c-1.945-0.341-3.918-0.694-6.393-0.694
	c-2.156,0-3.934,0.085-4.5,0.155C7,26.782,7,26.782,7,28.037c0,1.835,0.211,2.154,0.299,2.265c0.121,0.148,0.459,0.354,0.568,0.511
	c0.162,0.229,0.219,0.939,0.297,1.349c0.615,3.248,1.463,4.373,6.297,4.373c4.502,0,6.719-1.337,7.566-4.639
	c0.063-0.246,0.174-1.3,0.244-1.546c0.025-0.097,0.115-0.242,0.35-0.277c0.313-0.031,0.598-0.044,0.879-0.044
	s0.564,0.013,0.879,0.044c0.232,0.035,0.322,0.181,0.35,0.277c0.068,0.246,0.18,1.3,0.244,1.546
	c0.846,3.302,3.064,4.639,7.564,4.639c4.836,0,5.684-1.125,6.297-4.373c0.078-0.409,0.137-1.119,0.297-1.349
	c0.109-0.157,0.447-0.362,0.568-0.511c0.09-0.11,0.301-0.43,0.301-2.265C40,26.782,40,26.782,38.859,26.643z M21.201,30.638
	c-0.057,0.266-0.133,0.576-0.236,0.968c-0.605,2.289-1.945,3.813-6.504,3.813c-4.418,0-4.811-0.922-5.227-3.511
	c-0.154-0.966-0.486-2.035-0.107-2.933c0.213-0.5,0.576-1.201,1.855-1.201c0.934,0,5.551,0.061,8.391,0.673
	C20.201,28.625,21.549,28.937,21.201,30.638z M37.764,31.907c-0.416,2.589-0.807,3.511-5.227,3.511
	c-4.559,0-5.896-1.523-6.502-3.813c-0.105-0.392-0.18-0.702-0.238-0.968c-0.346-1.701,1.002-2.013,1.83-2.191
	c2.84-0.612,7.457-0.673,8.391-0.673c1.277,0,1.643,0.701,1.854,1.201C38.252,29.872,37.918,30.941,37.764,31.907z"/>
</svg>
