<?xml version="1.0" encoding="utf-8"?>
<!-- Generator: Adobe Illustrator 15.0.0, SVG Export Plug-In . SVG Version: 6.00 Build 0)  -->
<!DOCTYPE svg PUBLIC "-//W3C//DTD SVG 1.1//EN" "http://www.w3.org/Graphics/SVG/1.1/DTD/svg11.dtd">
<svg version="1.1" id="Layer_1" xmlns="http://www.w3.org/2000/svg" xmlns:xlink="http://www.w3.org/1999/xlink" x="0px" y="0px"
	 width="64px" height="64px" viewBox="0 0 64 64" enable-background="new 0 0 64 64" xml:space="preserve">
<path fill="#EA8800" d="M39.163,4.442C35.517-0.52,17.429,1.47,17.429,16.103c0.076,7.862,1.287,25.722,14.534,25.722
	c13.245,0,14.456-17.784,14.608-25.722C46.571,11.228,43.923,5.466,39.163,4.442z"/>
<path fill="#D67C00" d="M17.64,20.905c0.651,8.675,3.365,20.919,14.335,20.919c11.005,0,13.702-12.271,14.387-20.976
	c-0.36-4.009-2.585-9.184-7.409-15.286C29.063,12.391,18.382,11.327,17.64,20.905z"/>
<path fill="#8E3ED6" d="M43.692,35.967c-1.492-1.041-7.03-3.784-7.03-3.784h-9.274c0,0-5.546,2.747-7.045,3.788
	c-2.509,1.734-3.01,7.1-3.343,12.773L18,62h28l1-13.256C46.688,43.084,46.175,37.701,43.692,35.967z"/>
<path fill="#E6A400" d="M36.432,33.191c0-0.817,0-4.439,0-4.439h-8.863c0,0,0,3.568,0,4.439
	C27.568,36.783,36.432,36.783,36.432,33.191z"/>
<rect x="17" y="48.764" fill="#FDCA47" width="4.091" height="13.236"/>
<rect x="42.909" y="48.764" fill="#FDCA47" width="4.091" height="13.236"/>
<path fill="#FDCA47" d="M42.461,15.86c-1.563-3.69-4.433-7.692-4.433-7.692c-10.496,6.309-19.369,3.144-16.905,15.1
	c1.17,5.673,8.186,10.068,10.95,10.068c2.762,0,9.955-4.361,10.946-10.068C43.593,19.962,43.189,17.579,42.461,15.86z"/>
<path fill="#F5F5F5" d="M41.669,18.327c-1.25,3.256-6.332,2.778-7.264,0.502C35.114,15.17,40.981,14.857,41.669,18.327z"/>
<path fill="#45332C" d="M35.702,17.981c0,2.87,4.15,2.87,4.15,0C39.853,15.316,35.702,15.316,35.702,17.981z"/>
<path fill="#45332C" d="M41.669,18.304c0-3.494-7.264-3.494-7.264,0.554C35.443,15.536,40.63,15.536,41.669,18.304z"/>
<path fill="#F5F5F5" d="M22.476,18.327c1.248,3.256,6.332,2.778,7.262,0.502C29.031,15.17,23.163,14.857,22.476,18.327z"/>
<path fill="#45332C" d="M28.44,17.981c0,2.87-4.15,2.87-4.15,0C24.29,15.316,28.44,15.316,28.44,17.981z"/>
<path fill="#45332C" d="M22.476,18.304c0-3.493,7.262-3.493,7.262,0.552C28.7,15.536,23.513,15.536,22.476,18.304z"/>
<path fill="#D99025" d="M37.259,26.675c-0.977,1.104-1.586,3.06-5.188,3.06c-3.143,0-4.007-1.722-5.188-3.06H37.259z"/>
<path fill="#FFFFFF" d="M36.61,26.709c-2.135,2.187-6.916,2.217-9.078,0H36.61z"/>
<path fill="#D99025" d="M32.071,26.499c-2.031-0.892-2.047-0.035-5.188,0.176c3.965,0.445,6.412,0.445,10.375,0
	C34.12,26.464,34.104,25.607,32.071,26.499z"/>
<path fill="#E6A400" d="M41.228,15.19c-2.199-0.906-5.211-1.083-6.756-0.478c-0.325,0.128-0.315,0.908-0.027,0.83
	c2.216-0.604,4.768-0.651,6.866,0.08C41.593,15.722,41.558,15.328,41.228,15.19z"/>
<path fill="#E6A400" d="M22.837,15.192c2.197-0.906,5.208-1.084,6.754-0.479c0.328,0.128,0.316,0.91,0.027,0.83
	c-2.217-0.604-4.766-0.651-6.864,0.081C22.472,15.722,22.506,15.328,22.837,15.192z"/>
<path fill="#E6A400" d="M34.665,23.534c0,1.665-5.117,1.665-5.117,0C29.548,23.151,34.665,23.151,34.665,23.534z"/>
<path fill="#4ABDFF" d="M41.386,61.998c-1.197-0.834-5.647-3.027-5.647-3.027h-7.451c0,0-4.455,2.197-5.659,3.029L41.386,61.998z"/>
<path fill="#E6A400" d="M35.538,59.078c0-0.654,0-3.551,0-3.551h-7.09c0,0,0,2.854,0,3.551
	C28.448,61.951,35.538,61.951,35.538,59.078z"/>
<path fill="#EA8800" d="M32,35.818c-11.478,0-10.371,9.201-10.371,13.5h20.742C42.371,45.02,43.478,35.818,32,35.818z"/>
<path fill="#F5BC2C" d="M22.821,48.041c-3.578-0.471-1.248,6.844,1.555,4.826C25.674,51.932,24.495,48.262,22.821,48.041z"/>
<path fill="#F5BC2C" d="M41.18,48.041c-1.675,0.221-2.854,3.891-1.555,4.826C42.427,54.883,44.757,47.57,41.18,48.041z"/>
<path fill="#FDCA47" d="M41.229,47.41c0-6.135-3.624-4.77-9.228-4.77s-9.229-1.365-9.229,4.77c0,0,0.02,2.338,0.617,5.41
	c0.979,5.027,5.039,6.998,8.61,6.998s7.634-1.971,8.61-6.998C41.208,49.746,41.229,47.41,41.229,47.41z"/>
<path fill="#EA8800" d="M31.811,40.338c-1.677,2.988-7.955,4.855-10.113,4.662C23.651,43.023,24.52,37.936,31.811,40.338z"/>
<path fill="#D67C00" d="M21.697,45c2.748-0.719,6.316-2.182,10.113-4.662C30.134,43.326,24.62,45.684,21.697,45z"/>
<path fill="#EA8800" d="M40.28,40.176c-2.371,3.559-11.254,5.785-14.307,5.553C28.737,43.375,29.966,37.316,40.28,40.176z"/>
<path fill="#D67C00" d="M25.974,45.729c7.297-2.027,14.307-5.553,14.307-5.553C37.909,43.734,31.297,46.244,25.974,45.729z"/>
<path fill="#EA8800" d="M40.626,39.357c2.844,4.633-4.559,6.531-7.617,6.346C35.751,43.895,37.591,39.213,40.626,39.357z"/>
<path fill="#D67C00" d="M33.009,45.703c3.678-1.688,9.283-2.033,7.617-6.346C43.47,43.99,36.252,46.119,33.009,45.703z"/>
<path fill="#F5F5F5" d="M39.399,49.725c-0.963,2.51-4.881,2.141-5.6,0.387C34.345,47.291,38.87,47.049,39.399,49.725z"/>
<path fill="#45332C" d="M34.8,49.457c0,2.213,3.2,2.213,3.2,0C38,47.402,34.8,47.402,34.8,49.457z"/>
<path fill="#45332C" d="M39.399,49.705c0-2.693-5.6-2.693-5.6,0.428C34.601,47.572,38.601,47.572,39.399,49.705z"/>
<path fill="#F5F5F5" d="M24.601,49.725c0.963,2.51,4.882,2.141,5.6,0.387C29.655,47.291,25.13,47.049,24.601,49.725z"/>
<path fill="#45332C" d="M29.2,49.457c0,2.213-3.2,2.213-3.2,0C26,47.402,29.2,47.402,29.2,49.457z"/>
<path fill="#45332C" d="M24.601,49.705c0-2.691,5.6-2.691,5.6,0.426C29.401,47.572,25.399,47.572,24.601,49.705z"/>
<path fill="#D99025" d="M32,55.252c-1.611-0.428-4,0.203-4,0.203c0.91,0.891,1.577,2.047,4,2.047c2.777,0,3.249-1.313,4-2.047
	C36,55.455,33.609,54.824,32,55.252z"/>
<path fill="#FFFFFF" d="M28.563,55.486c1.711,1.592,5.172,1.602,6.896,0C33.632,55.574,30.401,55.574,28.563,55.486z"/>
<path fill="#E6A400" d="M39.187,47.389c-1.719-0.709-4.071-0.848-5.279-0.375c-0.256,0.1-0.247,0.711-0.021,0.65
	c1.732-0.473,3.726-0.51,5.365,0.061C39.472,47.803,39.444,47.494,39.187,47.389z"/>
<path fill="#E6A400" d="M24.813,47.389c1.719-0.709,4.071-0.848,5.279-0.375c0.255,0.1,0.247,0.711,0.021,0.65
	c-1.732-0.473-3.726-0.51-5.365,0.061C24.528,47.803,24.556,47.494,24.813,47.389z"/>
<path fill="#E6A400" d="M34,53.34c0,1.303-4,1.303-4,0C30,53.043,34,53.043,34,53.34z"/>
</svg>
