<?xml version="1.0" encoding="utf-8"?>
<!-- Generator: Adobe Illustrator 15.0.0, SVG Export Plug-In . SVG Version: 6.00 Build 0)  -->
<!DOCTYPE svg PUBLIC "-//W3C//DTD SVG 1.1//EN" "http://www.w3.org/Graphics/SVG/1.1/DTD/svg11.dtd">
<svg version="1.1" id="Layer_1" xmlns="http://www.w3.org/2000/svg" xmlns:xlink="http://www.w3.org/1999/xlink" x="0px" y="0px"
	 width="64px" height="64px" viewBox="0 0 64 64" enable-background="new 0 0 64 64" xml:space="preserve">
<path fill="#018BC9" d="M25.691,34.967c-0.635-1.047-4.029-2.783-4.029-2.783h-9.275c0,0-5.545,2.746-7.045,3.785
	C2.834,37.705,2.332,43.07,2,48.742L3,62h26C29,62,29.217,40.791,25.691,34.967z"/>
<path fill="#E6A400" d="M21.432,33.189c0-0.816,0-4.438,0-4.438h-8.863c0,0,0,3.568,0,4.438
	C12.569,36.781,21.432,36.781,21.432,33.189z"/>
<rect x="2" y="48.764" fill="#FDCA47" width="4.09" height="13.236"/>
<path fill="#EA8800" d="M17,2C4.029,2,4.026,9.805,4.026,19.563h25.946C29.973,9.805,29.969,2,17,2z"/>
<path fill="#F5BC2C" d="M6.602,23.357c1.406-1.309,0.129-6.441-1.682-6.75C1.048,15.947,3.569,26.18,6.602,23.357z"/>
<path fill="#F5BC2C" d="M27.396,23.357c-1.404-1.309-0.129-6.441,1.684-6.75C32.951,15.947,30.43,26.178,27.396,23.357z"/>
<path fill="#FDCA47" d="M17,7.205c-13.551,0-8.091,1.568-11.708,9.527c0,0,0.025,3.65,0.783,7.566
	c0.977,5.049,6.658,8.924,10.925,8.924s9.947-3.875,10.924-8.924c0.758-3.916,0.783-7.566,0.783-7.566
	C25.09,8.773,30.551,7.205,17,7.205z"/>
<path fill="#F5F5F5" d="M26.627,17.883c-1.254,3.264-6.352,2.785-7.285,0.502C20.051,14.717,25.938,14.402,26.627,17.883z"/>
<path fill="#45332C" d="M20.643,17.535c0,2.879,4.162,2.879,4.162,0C24.805,14.861,20.643,14.861,20.643,17.535z"/>
<path fill="#45332C" d="M26.627,17.859c0-3.506-7.285-3.506-7.285,0.555C20.381,15.084,25.586,15.084,26.627,17.859z"/>
<path fill="#F5F5F5" d="M7.374,17.883c1.252,3.264,6.349,2.785,7.285,0.502C13.947,14.717,8.063,14.402,7.374,17.883z"/>
<path fill="#45332C" d="M13.357,17.535c0,2.879-4.164,2.879-4.164,0C9.194,14.863,13.357,14.863,13.357,17.535z"/>
<path fill="#45332C" d="M7.374,17.859c0-3.504,7.285-3.504,7.285,0.553C13.617,15.084,8.413,15.084,7.374,17.859z"/>
<path fill="#D99025" d="M17,26.113c-2.098-0.555-5.205,0.264-5.205,0.264c1.183,1.16,2.05,2.666,5.205,2.666
	c3.613,0,4.225-1.709,5.203-2.666C22.203,26.377,19.092,25.557,17,26.113z"/>
<path fill="#FFFFFF" d="M12.528,26.42c2.226,2.07,6.73,2.084,8.97,0C19.123,26.533,14.92,26.533,12.528,26.42z"/>
<path fill="#E6A400" d="M26.35,14.66c-2.236-0.922-5.299-1.102-6.869-0.488c-0.332,0.131-0.322,0.924-0.029,0.844
	c2.254-0.613,4.848-0.66,6.98,0.082C26.719,15.197,26.684,14.797,26.35,14.66z"/>
<path fill="#E6A400" d="M7.651,14.66c2.234-0.922,5.294-1.102,6.867-0.488c0.332,0.131,0.322,0.924,0.027,0.844
	c-2.251-0.613-4.845-0.66-6.978,0.082C7.28,15.197,7.315,14.797,7.651,14.66z"/>
<path fill="#D67C00" d="M23.258,26.951c-2.441-2.568-10.027-2.59-12.49,0C14.078,26.771,19.928,26.771,23.258,26.951z"/>
<path fill="#EA8800" d="M23.258,26.951c-3.102-3.262-9.369-3.283-12.49,0C11.309,26.268,22.561,26.078,23.258,26.951z"/>
<path fill="#EA8800" d="M27.359,6.01c4.834,6.627-17.599,4.898-22.265,3.93C5.094,9.939,11.948,0.594,27.359,6.01z"/>
<path fill="#D67C00" d="M5.094,9.939c6.701,1.41,27.189,1.217,20.742-5.773C36.35,12.555,10.768,13.303,5.094,9.939z"/>
<path fill="#E6A400" d="M19.602,22.877c0,1.693-5.205,1.693-5.205,0C14.396,22.488,19.602,22.488,19.602,22.877z"/>
<path fill="#006DAE" d="M58.691,35.967c-1.492-1.043-7.029-3.783-7.029-3.783h-9.275c0,0-3.408,1.734-4.045,2.785
	C34.809,40.789,35,62,35,62h26l1-13.258C61.688,43.082,61.174,37.701,58.691,35.967z"/>
<path fill="#E6A400" d="M51.432,33.189c0-0.816,0-4.438,0-4.438h-8.863c0,0,0,3.568,0,4.438
	C42.568,36.781,51.432,36.781,51.432,33.189z"/>
<rect x="57.908" y="48.764" fill="#FDCA47" width="4.092" height="13.236"/>
<path fill="#4ABDFF" d="M54.386,61.996c-1.197-0.834-5.647-3.027-5.647-3.027h-7.451c0,0-4.455,2.197-5.659,3.029L54.386,61.996z"/>
<path fill="#E6A400" d="M48.538,59.076c0-0.654,0-3.551,0-3.551h-7.09c0,0,0,2.854,0,3.551
	C41.448,61.949,48.538,61.949,48.538,59.076z"/>
<path fill="#EA8800" d="M45,35.818c-11.478,0-10.371,9.201-10.371,13.5h20.742C55.371,45.02,56.478,35.818,45,35.818z"/>
<path fill="#F5BC2C" d="M35.821,48.041c-3.578-0.471-1.248,6.842,1.555,4.826C38.674,51.932,37.495,48.262,35.821,48.041z"/>
<path fill="#F5BC2C" d="M54.18,48.041c-1.675,0.221-2.854,3.891-1.555,4.826C55.427,54.881,57.757,47.57,54.18,48.041z"/>
<path fill="#FDCA47" d="M54.229,47.41c0-6.135-3.624-4.77-9.228-4.77s-9.229-1.365-9.229,4.77c0,0,0.02,2.338,0.617,5.41
	c0.979,5.025,5.039,6.996,8.61,6.996s7.634-1.971,8.61-6.996C54.208,49.746,54.229,47.41,54.229,47.41z"/>
<path fill="#EA8800" d="M44.811,40.338c-1.677,2.988-7.955,4.855-10.113,4.662C36.651,43.023,37.52,37.936,44.811,40.338z"/>
<path fill="#D67C00" d="M34.697,45c2.748-0.719,6.316-2.182,10.113-4.662C43.134,43.326,37.62,45.684,34.697,45z"/>
<path fill="#EA8800" d="M53.28,40.176c-2.371,3.559-11.254,5.785-14.307,5.553C41.737,43.375,42.966,37.316,53.28,40.176z"/>
<path fill="#D67C00" d="M38.974,45.729c7.297-2.027,14.307-5.553,14.307-5.553C50.909,43.734,44.297,46.244,38.974,45.729z"/>
<path fill="#EA8800" d="M53.626,39.357c2.844,4.633-4.559,6.531-7.617,6.346C48.751,43.895,50.591,39.213,53.626,39.357z"/>
<path fill="#D67C00" d="M46.009,45.703c3.678-1.688,9.283-2.033,7.617-6.346C56.47,43.99,49.252,46.119,46.009,45.703z"/>
<path fill="#F5F5F5" d="M52.399,49.725c-0.963,2.51-4.881,2.141-5.6,0.387C47.345,47.291,51.87,47.049,52.399,49.725z"/>
<path fill="#45332C" d="M47.8,49.457c0,2.213,3.2,2.213,3.2,0C51,47.402,47.8,47.402,47.8,49.457z"/>
<path fill="#45332C" d="M52.399,49.705c0-2.693-5.6-2.693-5.6,0.428C47.601,47.572,51.601,47.572,52.399,49.705z"/>
<path fill="#F5F5F5" d="M37.601,49.725c0.963,2.51,4.882,2.141,5.6,0.387C42.655,47.291,38.13,47.049,37.601,49.725z"/>
<path fill="#45332C" d="M42.2,49.457c0,2.213-3.2,2.213-3.2,0C39,47.402,42.2,47.402,42.2,49.457z"/>
<path fill="#45332C" d="M37.601,49.705c0-2.691,5.6-2.691,5.6,0.426C42.401,47.572,38.399,47.572,37.601,49.705z"/>
<path fill="#D99025" d="M45,55.25c-1.611-0.428-4,0.203-4,0.203c0.91,0.891,1.577,2.047,4,2.047c2.777,0,3.249-1.313,4-2.047
	C49,55.453,46.609,54.822,45,55.25z"/>
<path fill="#FFFFFF" d="M41.563,55.484c1.711,1.592,5.172,1.602,6.896,0C46.632,55.572,43.401,55.572,41.563,55.484z"/>
<path fill="#E6A400" d="M52.187,47.389c-1.719-0.709-4.071-0.848-5.279-0.375c-0.256,0.1-0.247,0.711-0.021,0.65
	c1.732-0.473,3.726-0.51,5.365,0.061C52.472,47.803,52.444,47.494,52.187,47.389z"/>
<path fill="#E6A400" d="M37.813,47.389c1.719-0.709,4.071-0.848,5.279-0.375c0.255,0.1,0.247,0.711,0.021,0.65
	c-1.732-0.473-3.726-0.51-5.365,0.061C37.528,47.803,37.556,47.494,37.813,47.389z"/>
<path fill="#E6A400" d="M47,53.34c0,1.301-4,1.301-4,0C43,53.043,47,53.043,47,53.34z"/>
<path fill="#E32B56" d="M29.386,61.996c-1.198-0.834-5.647-3.027-5.647-3.027h-7.451c0,0-4.455,2.197-5.66,3.029L29.386,61.996z"/>
<path fill="#E6A400" d="M23.538,59.076c0-0.654,0-3.551,0-3.551h-7.091c0,0,0,2.854,0,3.551
	C16.447,61.949,23.538,61.949,23.538,59.076z"/>
<path fill="#EA8800" d="M11.807,49.396c-7.722,4.557-0.933,8.705-3.131,10.67C12.947,62.719,23.403,58.148,11.807,49.396z"/>
<path fill="#D67C00" d="M9.501,51.129c1.896,7.275,5.796,7.525,5.47,8.842C18.598,58.072,18.631,51.939,9.501,51.129z"/>
<path fill="#EA8800" d="M28.191,49.396c7.723,4.557,0.934,8.705,3.133,10.67C27.053,62.719,16.596,58.148,28.191,49.396z"/>
<path fill="#D67C00" d="M30.499,51.129c-1.896,7.275-5.796,7.525-5.471,8.842C21.402,58.072,21.369,51.939,30.499,51.129z"/>
<path fill="#EA8800" d="M9.436,49.213h21.116C33.625,32.688,6.363,32.688,9.436,49.213z"/>
<path fill="#D67C00" d="M9.41,49.01c0,0,12.02,4.486,20.353-0.713c-1.683,0.318-4.416-6.125-17.214-6.607
	C12.08,49.01,9.83,47.023,9.41,49.01z"/>
<path fill="#CFD8DD" d="M29.562,48.035c0.896-12.365-20.034-12.365-19.139,0C11.203,37.65,28.781,37.65,29.562,48.035z"/>
<path fill="#FFFFFF" d="M29.562,47.635c0.896-12.365-20.034-12.365-19.139,0C11.203,37.25,28.781,37.25,29.562,47.635z"/>
<path fill="#F5BC2C" d="M10.646,48.115c-3.643-0.471-1.269,6.84,1.584,4.826C13.552,52.006,12.352,48.336,10.646,48.115z"/>
<path fill="#F5BC2C" d="M29.34,48.115c-1.705,0.221-2.905,3.891-1.583,4.826C30.609,54.955,32.982,47.645,29.34,48.115z"/>
<path fill="#FDCA47" d="M29.222,48.137c-3.491-0.992-7.958-5.742-16.448-5.168c0.148,1.867-0.342,3.984-1.98,5.176
	c0,0-0.008,1.678,0.591,4.748c0.978,5.025,5.039,6.998,8.609,6.998c3.571,0,7.634-1.973,8.61-6.998
	C29.201,49.82,29.222,48.137,29.222,48.137z"/>
<path fill="#F5F5F5" d="M27.394,49.799c-0.963,2.51-4.882,2.141-5.601,0.385C22.339,47.363,26.864,47.123,27.394,49.799z"/>
<path fill="#45332C" d="M22.793,49.531c0,2.213,3.201,2.213,3.201,0C25.994,47.477,22.793,47.477,22.793,49.531z"/>
<path fill="#45332C" d="M27.394,49.779c0-2.693-5.601-2.693-5.601,0.428C22.594,47.646,26.594,47.646,27.394,49.779z"/>
<path fill="#F5F5F5" d="M12.594,49.799c0.964,2.51,4.883,2.141,5.6,0.385C17.648,47.363,13.124,47.123,12.594,49.799z"/>
<path fill="#45332C" d="M17.193,49.531c0,2.213-3.199,2.213-3.199,0C13.994,47.477,17.193,47.477,17.193,49.531z"/>
<path fill="#45332C" d="M12.594,49.779c0-2.693,5.6-2.693,5.6,0.426C17.395,47.646,13.394,47.646,12.594,49.779z"/>
<path fill="#D99025" d="M19.994,55.324c-1.611-0.428-4,0.201-4,0.201c0.91,0.893,1.576,2.049,4,2.049c2.777,0,3.248-1.313,4-2.049
	C23.994,55.525,21.604,54.895,19.994,55.324z"/>
<path fill="#FFFFFF" d="M16.557,55.559c1.712,1.59,5.173,1.602,6.896,0C21.626,55.646,18.396,55.646,16.557,55.559z"/>
<path fill="#E6A400" d="M27.181,47.463c-1.72-0.709-4.071-0.848-5.279-0.375c-0.256,0.1-0.247,0.709-0.022,0.648
	c1.732-0.473,3.727-0.508,5.366,0.063C27.465,47.877,27.438,47.568,27.181,47.463z"/>
<path fill="#E6A400" d="M12.808,47.463c1.718-0.709,4.071-0.848,5.279-0.375c0.255,0.1,0.247,0.709,0.021,0.648
	c-1.731-0.473-3.726-0.508-5.365,0.063C12.521,47.877,12.549,47.568,12.808,47.463z"/>
<path fill="#E6A400" d="M21.994,53.414c0,1.301-4,1.301-4,0C17.994,53.117,21.994,53.117,21.994,53.414z"/>
<path fill="#EA8800" d="M46.999,2C34.03,2,34.026,9.806,34.026,19.563h25.946C59.973,9.806,59.969,2,46.999,2z"/>
<path fill="#F5BC2C" d="M36.602,23.357c1.405-1.309,0.13-6.44-1.682-6.75C31.048,15.948,33.57,26.179,36.602,23.357z"/>
<path fill="#F5BC2C" d="M57.397,23.357c-1.406-1.309-0.13-6.44,1.682-6.75C62.95,15.948,60.43,26.178,57.397,23.357z"/>
<path fill="#FDCA47" d="M47,7.204c-13.551,0-8.091,1.57-11.709,9.529c0,0,0.026,3.65,0.784,7.565
	c0.977,5.048,6.657,8.924,10.925,8.924s9.948-3.876,10.925-8.924c0.758-3.915,0.783-7.565,0.783-7.565
	C55.091,8.774,60.55,7.204,47,7.204z"/>
<path fill="#F5F5F5" d="M56.626,17.883c-1.253,3.264-6.351,2.784-7.285,0.502C50.051,14.716,55.938,14.401,56.626,17.883z"/>
<path fill="#45332C" d="M50.642,17.534c0,2.879,4.163,2.879,4.163,0C54.805,14.862,50.642,14.862,50.642,17.534z"/>
<path fill="#45332C" d="M56.626,17.858c0-3.504-7.285-3.504-7.285,0.555C50.382,15.083,55.585,15.083,56.626,17.858z"/>
<path fill="#F5F5F5" d="M37.372,17.883c1.254,3.264,6.352,2.784,7.285,0.502C43.948,14.716,38.063,14.401,37.372,17.883z"/>
<path fill="#45332C" d="M43.356,17.534c0,2.879-4.163,2.879-4.163,0C39.193,14.862,43.356,14.862,43.356,17.534z"/>
<path fill="#45332C" d="M37.372,17.858c0-3.504,7.285-3.504,7.285,0.554C43.618,15.083,38.413,15.083,37.372,17.858z"/>
<path fill="#E6A400" d="M56.349,14.66c-2.236-0.922-5.297-1.102-6.868-0.487c-0.332,0.129-0.321,0.924-0.028,0.844
	c2.253-0.614,4.847-0.661,6.98,0.081C56.719,15.198,56.685,14.798,56.349,14.66z"/>
<path fill="#E6A400" d="M37.65,14.66c2.235-0.922,5.296-1.102,6.868-0.487c0.331,0.129,0.321,0.924,0.027,0.844
	c-2.253-0.614-4.847-0.662-6.979,0.081C37.279,15.198,37.314,14.798,37.65,14.66z"/>
<path fill="#EA8800" d="M57.36,6.01c4.832,6.628-17.6,4.897-22.266,3.931C35.095,9.94,41.947,0.595,57.36,6.01z"/>
<path fill="#D67C00" d="M35.095,9.94c6.701,1.41,27.189,1.215,20.741-5.773C66.35,12.554,40.769,13.302,35.095,9.94z"/>
<path fill="#E6A400" d="M49.602,22.876c0,1.693-5.204,1.693-5.204,0C44.397,22.487,49.602,22.487,49.602,22.876z"/>
<path fill="#D99025" d="M46.999,26.019c-1.746-0.503-5.131,0.281-5.131,0.281c1.167,1.239,2.022,2.848,5.131,2.848
	s3.964-1.608,5.131-2.848C52.13,26.3,48.745,25.516,46.999,26.019z"/>
<path fill="#EA8800" d="M59.534,15.736l-1.168-0.359c0.086,1.482,0.042,3.906-0.113,5.197c-1.117,4.986-4.124,6.07-4.124,6.07
	s-0.43-1.063-1.567-1.625c-1.433-0.71-2.722-0.534-5.563-0.53c-2.841-0.004-4.13-0.18-5.563,0.53
	c-1.138,0.562-1.567,1.625-1.567,1.625s-3.005-1.083-4.123-6.065c-0.155-1.292-0.2-3.718-0.114-5.202l-1.168,0.359
	c0,0-0.264,4.466,0.731,7.968c2.147,7.554,6.925,9.519,11.804,9.519s9.657-1.965,11.804-9.519
	C59.798,20.202,59.534,15.736,59.534,15.736z M41.735,26.063c1.081-0.356,2.965-0.479,5.264-0.479s4.183,0.122,5.264,0.479
	c0.846,0.278-2.148,4.703-3.704,4.072c-0.676-0.278-0.896-0.837-0.896-0.837h-1.326c0,0-0.221,0.559-0.896,0.837
	C43.884,30.766,40.89,26.341,41.735,26.063z"/>
<path fill="#FFFFFF" d="M42.522,26.341c0.14,0.354,1.986,1.673,4.477,1.673c2.491,0,4.338-1.319,4.478-1.673
	C49.245,26.454,44.771,26.456,42.522,26.341z"/>
<path fill="#F5F5F5" d="M39.58,16.688"/>
</svg>
