<?xml version="1.0" encoding="utf-8"?>
<!-- Generator: Adobe Illustrator 15.0.0, SVG Export Plug-In . SVG Version: 6.00 Build 0)  -->
<!DOCTYPE svg PUBLIC "-//W3C//DTD SVG 1.1//EN" "http://www.w3.org/Graphics/SVG/1.1/DTD/svg11.dtd">
<svg version="1.1" id="Layer_1" xmlns="http://www.w3.org/2000/svg" xmlns:xlink="http://www.w3.org/1999/xlink" x="0px" y="0px"
	 width="64px" height="64px" viewBox="0 0 64 64" enable-background="new 0 0 64 64" xml:space="preserve">
<path fill="#E81C27" d="M7.698,28.345l1.875,28.748l2.028-0.739c0,0-1.328-19.184,3.554-20.878L7.698,28.345z"/>
<path fill="#302C3B" d="M48.31,46.681c0,0-4.055-1.3-13.183,1.298c-9.128,2.597-12.676-4.153-22.817-28.042
	C7.577,8.788,5.241,2.75,10.283,2.021c0,0-0.112-0.013-0.308-0.021C7.619,2.19,6.218,4.365,5.883,4.965
	C3.52,9.213-0.172,14.028,3.655,22.162l0,0c0,0,3.493,13.39,3.493,34.39l2.425,0.541c0,0-1-23.194,1.742-24.033
	c0,0,2.415,2.546,9.109,15.698C26.474,60.644,32.338,62,38.169,62h21.55C60.857,61.753,62,60.961,62,57.846
	C62,54.729,54.901,49.276,48.31,46.681z"/>
<path fill="#99A8AE" d="M12.31,19.936c10.141,23.889,13.689,30.639,22.817,28.042c5.695-1.62,9.416-1.724,11.41-1.573
	c-12.437-6.813-13.918-10.214-21.298-25.95C17.507,3.968,14.599,2.021,10.283,2.021C5.241,2.75,7.577,8.788,12.31,19.936z"/>
<path fill="#CFD8DD" d="M12.31,19.936c10.141,23.889,13.689,30.639,22.817,28.042c0.263-0.075,0.519-0.145,0.771-0.213
	C24.492,39.873,18.854,22.114,15.502,16.39c-1.877-3.204-4.318-4.17-6.378-4.294C9.952,14.341,11.045,16.956,12.31,19.936z"/>
</svg>
