<?xml version="1.0" encoding="utf-8"?>
<!-- Generator: Adobe Illustrator 15.0.0, SVG Export Plug-In . SVG Version: 6.00 Build 0)  -->
<!DOCTYPE svg PUBLIC "-//W3C//DTD SVG 1.1//EN" "http://www.w3.org/Graphics/SVG/1.1/DTD/svg11.dtd">
<svg version="1.1" id="Layer_1" xmlns="http://www.w3.org/2000/svg" xmlns:xlink="http://www.w3.org/1999/xlink" x="0px" y="0px"
	 width="64px" height="64px" viewBox="0 0 64 64" enable-background="new 0 0 64 64" xml:space="preserve">
<path fill="#EA8800" d="M24.163,4.441C20.517-0.52,2.428,1.469,2.428,16.102c0.076,7.863,1.287,25.721,14.535,25.721
	c13.244,0,14.456-17.783,14.607-25.721C31.57,11.227,28.922,5.465,24.163,4.441z"/>
<path fill="#D67C00" d="M2.639,20.904c0.652,8.676,3.365,20.918,14.336,20.918c11.004,0,13.701-12.27,14.387-20.975
	C31,16.84,28.775,11.664,23.951,5.563C14.063,12.391,3.381,11.326,2.639,20.904z"/>
<path fill="#8E3ED6" d="M24.691,34.967c-1.491-1.043-3.029-2.784-3.029-2.784h-9.275c0,0-5.545,2.747-7.045,3.786
	C2.834,37.705,2.332,43.07,2,48.742L3,62h26C29,62,27.175,36.701,24.691,34.967z"/>
<path fill="#E6A400" d="M21.432,33.189c0-0.817,0-4.438,0-4.438h-8.863c0,0,0,3.568,0,4.438
	C12.568,36.781,21.432,36.781,21.432,33.189z"/>
<rect x="2" y="48.764" fill="#FDCA47" width="4.09" height="13.236"/>
<path fill="#FDCA47" d="M27.461,15.859c-1.563-3.689-4.433-7.691-4.433-7.691c-10.497,6.309-19.37,3.143-16.905,15.1
	c1.17,5.672,8.186,10.066,10.95,10.066c2.761,0,9.955-4.359,10.946-10.066C28.593,19.961,28.189,17.578,27.461,15.859z"/>
<path fill="#F5F5F5" d="M26.668,18.326c-1.249,3.256-6.332,2.779-7.263,0.502C20.113,15.17,25.981,14.857,26.668,18.326z"/>
<path fill="#45332C" d="M20.702,17.98c0,2.871,4.15,2.871,4.15,0C24.853,15.316,20.702,15.316,20.702,17.98z"/>
<path fill="#45332C" d="M26.668,18.303c0-3.494-7.263-3.494-7.263,0.555C20.443,15.535,25.63,15.535,26.668,18.303z"/>
<path fill="#F5F5F5" d="M7.475,18.326c1.248,3.256,6.333,2.779,7.263,0.502C14.031,15.17,8.162,14.857,7.475,18.326z"/>
<path fill="#45332C" d="M13.439,17.98c0,2.871-4.15,2.871-4.15,0C9.289,15.316,13.439,15.316,13.439,17.98z"/>
<path fill="#45332C" d="M7.475,18.303c0-3.492,7.263-3.492,7.263,0.553C13.7,15.535,8.512,15.535,7.475,18.303z"/>
<path fill="#D99025" d="M22.258,26.674c-0.976,1.105-1.585,3.061-5.187,3.061c-3.143,0-4.007-1.723-5.188-3.061H22.258z"/>
<path fill="#FFFFFF" d="M21.61,26.709c-2.135,2.186-6.916,2.217-9.079,0H21.61z"/>
<path fill="#D99025" d="M17.071,26.498c-2.031-0.891-2.048-0.035-5.188,0.176c3.965,0.445,6.412,0.445,10.375,0
	C19.12,26.463,19.104,25.607,17.071,26.498z"/>
<path fill="#E6A400" d="M26.227,15.189c-2.198-0.906-5.21-1.082-6.755-0.477c-0.325,0.127-0.315,0.908-0.028,0.83
	c2.217-0.604,4.768-0.652,6.867,0.08C26.592,15.721,26.558,15.328,26.227,15.189z"/>
<path fill="#E6A400" d="M7.836,15.191c2.197-0.906,5.209-1.084,6.755-0.479c0.327,0.127,0.316,0.91,0.027,0.83
	c-2.218-0.604-4.767-0.652-6.864,0.08C7.471,15.721,7.506,15.328,7.836,15.191z"/>
<path fill="#E6A400" d="M19.665,23.533c0,1.666-5.118,1.666-5.118,0C14.547,23.15,19.665,23.15,19.665,23.533z"/>
<path fill="#EA8800" d="M54.162,4.441c-3.646-4.961-21.733-2.973-21.733,11.66c0.076,7.863,1.286,25.721,14.534,25.721
	c13.244,0,14.455-17.783,14.607-25.721C61.57,11.227,58.922,5.465,54.162,4.441z"/>
<path fill="#D67C00" d="M32.64,20.904c0.651,8.676,3.365,20.918,14.335,20.918c11.004,0,13.701-12.27,14.387-20.975
	C61,16.84,58.775,11.664,53.951,5.563C44.063,12.391,33.381,11.326,32.64,20.904z"/>
<path fill="#5D1E96" d="M58.691,35.967c-1.492-1.043-7.029-3.784-7.029-3.784h-9.275c0,0-2.545,1.747-4.045,2.786
	C35.834,36.705,35,62,35,62h26l1-13.258C61.688,43.082,61.174,37.701,58.691,35.967z"/>
<path fill="#E6A400" d="M51.432,33.189c0-0.817,0-4.438,0-4.438h-8.863c0,0,0,3.568,0,4.438
	C42.568,36.781,51.432,36.781,51.432,33.189z"/>
<rect x="57.908" y="48.764" fill="#FDCA47" width="4.092" height="13.236"/>
<path fill="#FDCA47" d="M57.461,15.859c-1.564-3.689-4.434-7.691-4.434-7.691c-10.496,6.309-19.368,3.143-16.904,15.1
	c1.17,5.672,8.186,10.066,10.949,10.066c2.762,0,9.955-4.359,10.947-10.066C58.592,19.961,58.189,17.578,57.461,15.859z"/>
<path fill="#F5F5F5" d="M56.668,18.326c-1.25,3.256-6.332,2.779-7.264,0.502C50.113,15.17,55.98,14.857,56.668,18.326z"/>
<path fill="#45332C" d="M50.701,17.98c0,2.871,4.15,2.871,4.15,0C54.852,15.316,50.701,15.316,50.701,17.98z"/>
<path fill="#45332C" d="M56.668,18.303c0-3.494-7.264-3.494-7.264,0.555C50.443,15.535,55.629,15.535,56.668,18.303z"/>
<path fill="#F5F5F5" d="M37.475,18.326c1.248,3.256,6.332,2.779,7.262,0.502C44.031,15.17,38.162,14.857,37.475,18.326z"/>
<path fill="#45332C" d="M43.439,17.98c0,2.871-4.15,2.871-4.15,0C39.289,15.316,43.439,15.316,43.439,17.98z"/>
<path fill="#45332C" d="M37.475,18.303c0-3.492,7.262-3.492,7.262,0.553C43.699,15.535,38.512,15.535,37.475,18.303z"/>
<path fill="#D99025" d="M52.258,26.674c-0.977,1.105-1.586,3.061-5.188,3.061c-3.143,0-4.006-1.723-5.188-3.061H52.258z"/>
<path fill="#FFFFFF" d="M51.609,26.709c-2.135,2.186-6.916,2.217-9.078,0H51.609z"/>
<path fill="#D99025" d="M47.07,26.498c-2.031-0.891-2.047-0.035-5.188,0.176c3.965,0.445,6.412,0.445,10.375,0
	C49.119,26.463,49.104,25.607,47.07,26.498z"/>
<path fill="#E6A400" d="M56.227,15.189c-2.199-0.906-5.211-1.082-6.756-0.477c-0.324,0.127-0.314,0.908-0.027,0.83
	c2.217-0.604,4.768-0.652,6.867,0.08C56.592,15.721,56.557,15.328,56.227,15.189z"/>
<path fill="#E6A400" d="M37.836,15.191c2.197-0.906,5.209-1.084,6.754-0.479c0.328,0.127,0.316,0.91,0.027,0.83
	c-2.217-0.604-4.766-0.652-6.863,0.08C37.471,15.721,37.506,15.328,37.836,15.191z"/>
<path fill="#E6A400" d="M49.664,23.533c0,1.666-5.117,1.666-5.117,0C44.547,23.15,49.664,23.15,49.664,23.533z"/>
<path fill="#4ABDFF" d="M53.387,61.996c-1.197-0.832-5.647-3.025-5.647-3.025h-7.451c0,0-4.455,2.197-5.659,3.029L53.387,61.996z"/>
<path fill="#E6A400" d="M47.539,59.076c0-0.652,0-3.551,0-3.551h-7.09c0,0,0,2.855,0,3.551
	C40.449,61.949,47.539,61.949,47.539,59.076z"/>
<path fill="#EA8800" d="M44.001,35.818c-11.478,0-10.371,9.201-10.371,13.5h20.742C54.372,45.02,55.479,35.818,44.001,35.818z"/>
<path fill="#F5BC2C" d="M34.822,48.041c-3.578-0.471-1.248,6.844,1.555,4.826C37.675,51.932,36.496,48.262,34.822,48.041z"/>
<path fill="#F5BC2C" d="M53.181,48.041c-1.675,0.221-2.854,3.891-1.555,4.826C54.428,54.883,56.758,47.57,53.181,48.041z"/>
<path fill="#FDCA47" d="M53.229,47.41c0-6.135-3.624-4.77-9.228-4.77s-9.229-1.365-9.229,4.77c0,0,0.02,2.338,0.617,5.41
	c0.979,5.027,5.039,6.998,8.61,6.998s7.634-1.971,8.61-6.998C53.209,49.746,53.229,47.41,53.229,47.41z"/>
<path fill="#EA8800" d="M43.812,40.338c-1.677,2.988-7.955,4.855-10.113,4.662C35.652,43.023,36.521,37.936,43.812,40.338z"/>
<path fill="#D67C00" d="M33.698,45c2.748-0.719,6.316-2.182,10.113-4.662C42.135,43.326,36.621,45.684,33.698,45z"/>
<path fill="#EA8800" d="M52.281,40.176c-2.371,3.559-11.254,5.785-14.307,5.553C40.738,43.375,41.967,37.316,52.281,40.176z"/>
<path fill="#D67C00" d="M37.975,45.729c7.297-2.027,14.307-5.553,14.307-5.553C49.91,43.734,43.298,46.244,37.975,45.729z"/>
<path fill="#EA8800" d="M52.627,39.357c2.844,4.633-4.559,6.531-7.617,6.346C47.752,43.895,49.592,39.213,52.627,39.357z"/>
<path fill="#D67C00" d="M45.01,45.703c3.678-1.688,9.283-2.033,7.617-6.346C55.471,43.99,48.253,46.119,45.01,45.703z"/>
<path fill="#F5F5F5" d="M51.4,49.725c-0.963,2.51-4.881,2.141-5.6,0.387C46.346,47.291,50.871,47.049,51.4,49.725z"/>
<path fill="#45332C" d="M46.801,49.457c0,2.213,3.2,2.213,3.2,0C50.001,47.402,46.801,47.402,46.801,49.457z"/>
<path fill="#45332C" d="M51.4,49.705c0-2.693-5.6-2.693-5.6,0.428C46.602,47.572,50.602,47.572,51.4,49.705z"/>
<path fill="#F5F5F5" d="M36.602,49.725c0.963,2.51,4.882,2.141,5.6,0.387C41.656,47.291,37.131,47.049,36.602,49.725z"/>
<path fill="#45332C" d="M41.201,49.457c0,2.213-3.2,2.213-3.2,0C38.001,47.402,41.201,47.402,41.201,49.457z"/>
<path fill="#45332C" d="M36.602,49.705c0-2.691,5.6-2.691,5.6,0.426C41.402,47.572,37.4,47.572,36.602,49.705z"/>
<path fill="#D99025" d="M44.001,55.252c-1.611-0.428-4,0.203-4,0.203c0.91,0.891,1.577,2.047,4,2.047c2.777,0,3.249-1.313,4-2.047
	C48.001,55.455,45.61,54.824,44.001,55.252z"/>
<path fill="#FFFFFF" d="M40.564,55.486c1.711,1.592,5.172,1.602,6.896,0C45.633,55.574,42.402,55.574,40.564,55.486z"/>
<path fill="#E6A400" d="M51.188,47.389c-1.719-0.709-4.071-0.848-5.279-0.375c-0.256,0.1-0.247,0.711-0.021,0.65
	c1.732-0.473,3.726-0.51,5.365,0.061C51.473,47.803,51.445,47.494,51.188,47.389z"/>
<path fill="#E6A400" d="M36.814,47.389c1.719-0.709,4.071-0.848,5.279-0.375c0.255,0.1,0.247,0.711,0.021,0.65
	c-1.732-0.473-3.726-0.51-5.365,0.061C36.529,47.803,36.557,47.494,36.814,47.389z"/>
<path fill="#E6A400" d="M46.001,53.34c0,1.303-4,1.303-4,0C42.001,53.043,46.001,53.043,46.001,53.34z"/>
<path fill="#4ABDFF" d="M29.39,61.996c-1.197-0.832-5.646-3.025-5.646-3.025h-7.451c0,0-4.455,2.197-5.66,3.029L29.39,61.996z"/>
<path fill="#E6A400" d="M23.542,59.076c0-0.652,0-3.551,0-3.551h-7.09c0,0,0,2.855,0,3.551
	C16.452,61.949,23.542,61.949,23.542,59.076z"/>
<path fill="#EA8800" d="M20,35.818c-11.479,0-10.371,9.201-10.371,13.5h20.742C30.371,45.02,31.477,35.818,20,35.818z"/>
<path fill="#F5BC2C" d="M10.82,48.041c-3.578-0.471-1.248,6.844,1.555,4.826C13.674,51.932,12.494,48.262,10.82,48.041z"/>
<path fill="#F5BC2C" d="M29.18,48.041c-1.676,0.221-2.854,3.891-1.555,4.826C30.426,54.883,32.756,47.57,29.18,48.041z"/>
<path fill="#FDCA47" d="M29.229,47.41c0-6.135-3.625-4.77-9.229-4.77s-9.229-1.365-9.229,4.77c0,0,0.02,2.338,0.617,5.41
	c0.979,5.027,5.039,6.998,8.611,6.998c3.57,0,7.633-1.971,8.609-6.998C29.207,49.746,29.229,47.41,29.229,47.41z"/>
<path fill="#EA8800" d="M19.811,40.338C18.133,43.326,11.855,45.193,9.697,45C11.65,43.023,12.52,37.936,19.811,40.338z"/>
<path fill="#D67C00" d="M9.697,45c2.748-0.719,6.316-2.182,10.113-4.662C18.133,43.326,12.619,45.684,9.697,45z"/>
<path fill="#EA8800" d="M28.279,40.176c-2.371,3.559-11.254,5.785-14.307,5.553C16.736,43.375,17.965,37.316,28.279,40.176z"/>
<path fill="#D67C00" d="M13.973,45.729c7.297-2.027,14.307-5.553,14.307-5.553C25.908,43.734,19.297,46.244,13.973,45.729z"/>
<path fill="#EA8800" d="M28.625,39.357c2.844,4.633-4.559,6.531-7.617,6.346C23.75,43.895,25.59,39.213,28.625,39.357z"/>
<path fill="#D67C00" d="M21.008,45.703c3.678-1.688,9.283-2.033,7.617-6.346C31.469,43.99,24.252,46.119,21.008,45.703z"/>
<path fill="#F5F5F5" d="M27.398,49.725c-0.963,2.51-4.881,2.141-5.6,0.387C22.344,47.291,26.869,47.049,27.398,49.725z"/>
<path fill="#45332C" d="M22.799,49.457c0,2.213,3.201,2.213,3.201,0C26,47.402,22.799,47.402,22.799,49.457z"/>
<path fill="#45332C" d="M27.398,49.705c0-2.693-5.6-2.693-5.6,0.428C22.6,47.572,26.6,47.572,27.398,49.705z"/>
<path fill="#F5F5F5" d="M12.6,49.725c0.963,2.51,4.883,2.141,5.6,0.387C17.654,47.291,13.129,47.049,12.6,49.725z"/>
<path fill="#45332C" d="M17.199,49.457c0,2.213-3.199,2.213-3.199,0C14,47.402,17.199,47.402,17.199,49.457z"/>
<path fill="#45332C" d="M12.6,49.705c0-2.691,5.6-2.691,5.6,0.426C17.4,47.572,13.398,47.572,12.6,49.705z"/>
<path fill="#D99025" d="M20,55.252c-1.611-0.428-4,0.203-4,0.203c0.91,0.891,1.576,2.047,4,2.047c2.777,0,3.248-1.313,4-2.047
	C24,55.455,21.609,54.824,20,55.252z"/>
<path fill="#FFFFFF" d="M16.563,55.486c1.711,1.592,5.172,1.602,6.896,0C21.631,55.574,18.4,55.574,16.563,55.486z"/>
<path fill="#E6A400" d="M27.186,47.389c-1.719-0.709-4.07-0.848-5.279-0.375c-0.256,0.1-0.246,0.711-0.021,0.65
	c1.732-0.473,3.727-0.51,5.365,0.061C27.471,47.803,27.443,47.494,27.186,47.389z"/>
<path fill="#E6A400" d="M12.813,47.389c1.719-0.709,4.072-0.848,5.279-0.375c0.256,0.1,0.248,0.711,0.021,0.65
	c-1.732-0.473-3.725-0.51-5.365,0.061C12.527,47.803,12.555,47.494,12.813,47.389z"/>
<path fill="#E6A400" d="M22,53.34c0,1.303-4,1.303-4,0C18,53.043,22,53.043,22,53.34z"/>
</svg>
