<?xml version="1.0" encoding="utf-8"?>
<!-- Generator: Adobe Illustrator 15.0.0, SVG Export Plug-In . SVG Version: 6.00 Build 0)  -->
<!DOCTYPE svg PUBLIC "-//W3C//DTD SVG 1.1//EN" "http://www.w3.org/Graphics/SVG/1.1/DTD/svg11.dtd">
<svg version="1.1" id="Layer_1" xmlns="http://www.w3.org/2000/svg" xmlns:xlink="http://www.w3.org/1999/xlink" x="0px" y="0px"
	 width="64px" height="64px" viewBox="0 0 64 64" enable-background="new 0 0 64 64" xml:space="preserve">
<path fill="#EA8800" d="M19.147,12.301c-2-2.489-11.917-1.492-11.917,5.849c0.042,3.943,0.705,12.901,7.969,12.901
	c7.262,0,7.927-8.919,8.01-12.901C23.209,15.705,21.757,12.814,19.147,12.301z"/>
<path fill="#D67C00" d="M7.345,20.559C7.703,24.91,9.19,31.05,15.206,31.05c6.034,0,7.512-6.155,7.888-10.521
	c-0.198-2.01-1.417-4.607-4.063-7.668C13.609,16.288,7.752,15.754,7.345,20.559z"/>
<path fill="#302C3B" d="M30.634,53.911c-3.633-2.076-1.113-4.575,0.448-3.7C38.059,54.115,34.316,56.016,30.634,53.911z"/>
<path fill="#302C3B" d="M15.602,61.912c-1.459-0.496,0.231-1.93-0.308-3.813c-1.054-3.679,2.579-3.453,3.012-1.707
	C19.238,60.14,17.302,62.492,15.602,61.912z"/>
<path fill="#FDCA47" d="M17.546,56.595c-0.265-4.558,1.052-5.203-0.846-8.237c0.991-2.683,0.487-4.207,0.487-4.207l-4.726-3.821
	c0,0,0.29,7.046,1.2,9.653c1.115,3.211,1.805,6.963,1.805,6.963C15.562,58.832,17.667,58.643,17.546,56.595z"/>
<path fill="#FDCA47" d="M9.089,33.858l1.18-1.963L8.17,30.151c-2.505,3.769-2.451,3.985-1.764,4.741l5.75,3.433l-0.017-2.229
	L9.089,33.858z"/>
<path fill="#FDCA47" d="M22.013,32.84l-1.027-1.027l2.053-2.081c2.576,2.807,3.107,3.311,1.916,4.494l-5.247,3.329l-1.317-1.656
	L22.013,32.84z"/>
<rect x="13.235" y="25.365" fill="#FDCA47" width="3.97" height="3.259"/>
<path fill="#302C3B" d="M21.074,32.103l2.327-2.303c0,0-1.565-1.566-2.708-2.445c-0.947-0.729-3.489-0.836-3.489-0.836
	c0,1.968-3.97,1.968-3.97,0c0,0-1.71,0.169-2.819,1.006c-1.149,0.868-2.805,3.125-2.805,3.125l2.612,1.529l0.374-0.442
	c1.864,4.755,0.516,6.604,1.884,9.014c0.019-0.932,1.675,3.802,5.335,3.802c2.038,0,7.083-4.356,1.375-8.126
	c-0.983-0.65-1.068-3.987,0.178-5.346L21.074,32.103z"/>
<path fill="#FDCA47" d="M31.208,51.287c-3.45-3.014-2.964-4.538-6.595-5.218c-1.078-5.249-4.808-8.009-4.808-8.009
	c-2.601,3.084-1.733,5.774-1.733,5.774s2.947,4.45,5.51,5.602c3.156,1.405,6.363,3.528,6.363,3.528
	C31.363,54.226,32.763,52.646,31.208,51.287z"/>
<path fill="#FDCA47" d="M20.384,18.063c-0.773-1.821-2.188-3.796-2.188-3.796c-5.182,3.113-9.562,1.551-8.346,7.453
	c0.577,2.8,4.042,4.969,5.407,4.969c1.363,0,4.914-2.152,5.403-4.969C20.943,20.087,20.744,18.911,20.384,18.063z"/>
<path fill="#F5F5F5" d="M19.993,19.28c-0.617,1.606-3.125,1.371-3.585,0.248C16.757,17.722,19.653,17.567,19.993,19.28z"/>
<path fill="#45332C" d="M17.047,19.109c0,1.417,2.049,1.417,2.049,0C19.096,17.794,17.047,17.794,17.047,19.109z"/>
<path fill="#45332C" d="M19.993,19.269c0-1.726-3.585-1.726-3.585,0.272C16.92,17.903,19.48,17.903,19.993,19.269z"/>
<path fill="#F5F5F5" d="M10.518,19.28c0.616,1.606,3.125,1.371,3.585,0.248C13.754,17.722,10.857,17.567,10.518,19.28z"/>
<path fill="#45332C" d="M13.462,19.109c0,1.417-2.049,1.417-2.049,0C11.413,17.794,13.462,17.794,13.462,19.109z"/>
<path fill="#45332C" d="M10.518,19.269c0-1.725,3.585-1.725,3.585,0.272C13.591,17.903,11.029,17.903,10.518,19.269z"/>
<path fill="#D99025" d="M17.816,23.4c-0.482,0.545-0.783,1.509-2.561,1.509c-1.551,0-1.979-0.85-2.561-1.509H17.816z"/>
<path fill="#FFFFFF" d="M17.496,23.417c-1.054,1.079-3.415,1.094-4.482,0H17.496z"/>
<path fill="#D99025" d="M15.255,23.313c-1.004-0.44-1.012-0.017-2.562,0.087c1.957,0.219,3.165,0.219,5.122,0
	C16.266,23.296,16.258,22.873,15.255,23.313z"/>
<path fill="#E6A400" d="M19.775,17.732c-1.086-0.448-2.571-0.535-3.334-0.237c-0.161,0.063-0.156,0.449-0.015,0.41
	c1.095-0.298,2.354-0.321,3.39,0.039C19.955,17.994,19.938,17.8,19.775,17.732z"/>
<path fill="#E6A400" d="M10.695,17.733c1.086-0.448,2.572-0.535,3.335-0.238c0.161,0.063,0.156,0.449,0.013,0.41
	c-1.094-0.298-2.353-0.321-3.389,0.04C10.515,17.994,10.532,17.8,10.695,17.733z"/>
<path fill="#E6A400" d="M16.535,21.85c0,0.822-2.527,0.822-2.527,0C14.008,21.661,16.535,21.661,16.535,21.85z"/>
<path fill="#302C3B" d="M20.574,2.006c-0.368-0.148-3.483,2.587-3.578,4.865c-0.107,2.58-0.241,4.438-0.335,5.559
	c-0.949-0.149-1.936-0.143-2.879,0.021c-0.095-1.118-0.229-2.983-0.336-5.58c-0.096-2.278-3.211-5.013-3.582-4.865
	C9.264,2.241,8.184,6.332,9.204,8.11c1.468,2.559,2.096,4.152,2.368,5.083c-0.841,0.448-1.554,1.059-2.016,1.852
	c4.306-1.751,7.167-1.752,11.471,0c-0.485-0.833-1.243-1.465-2.14-1.918c0.283-0.938,0.912-2.516,2.347-5.017
	C22.255,6.332,21.176,2.241,20.574,2.006z"/>
<path fill="#FB367D" d="M20.466,7.573c0.514-1.135,0.253-2.95-0.305-3.156c-0.348-0.126-1.754,0.953-2.036,2.529
	c-0.538,3.027-0.791,4.936-0.869,5.565c0.458,0.1,0.887,0.239,1.289,0.402C18.61,12.447,18.927,10.98,20.466,7.573z"/>
<path fill="#FB367D" d="M12.315,6.947c-0.28-1.576-1.687-2.655-2.035-2.529c-0.56,0.206-0.819,2.021-0.308,3.156
	c1.603,3.543,1.881,4.991,1.93,5.393c0.398-0.17,0.831-0.31,1.29-0.418C13.118,11.96,12.864,10.037,12.315,6.947z"/>
<path fill="#EA8800" d="M42.148,12.301c-2-2.489-11.919-1.492-11.919,5.849c0.042,3.943,0.705,12.901,7.97,12.901
	c7.263,0,7.928-8.919,8.01-12.901C46.209,15.705,44.758,12.814,42.148,12.301z"/>
<path fill="#D67C00" d="M30.344,20.559c0.358,4.351,1.846,10.492,7.862,10.492c6.034,0,7.513-6.155,7.889-10.521
	c-0.198-2.01-1.417-4.607-4.063-7.668C36.609,16.288,30.751,15.754,30.344,20.559z"/>
<path fill="#302C3B" d="M53.635,53.911c-3.633-2.076-1.113-4.575,0.447-3.7C61.059,54.115,57.316,56.016,53.635,53.911z"/>
<path fill="#302C3B" d="M38.602,61.912c-1.459-0.496,0.232-1.93-0.307-3.813c-1.055-3.679,2.578-3.453,3.012-1.707
	C42.238,60.14,40.303,62.492,38.602,61.912z"/>
<path fill="#FDCA47" d="M40.547,56.595c-0.266-4.558,1.051-5.203-0.848-8.237c0.992-2.683,0.488-4.207,0.488-4.207l-4.727-3.821
	c0,0,0.291,7.046,1.201,9.653c1.115,3.211,1.805,6.963,1.805,6.963C38.563,58.832,40.668,58.643,40.547,56.595z"/>
<path fill="#FDCA47" d="M32.089,33.858l1.18-1.963l-2.1-1.744c-2.505,3.769-2.451,3.985-1.764,4.741l5.75,3.433l-0.016-2.229
	L32.089,33.858z"/>
<path fill="#FDCA47" d="M45.014,32.84l-1.027-1.027l2.053-2.081c2.576,2.807,3.107,3.311,1.916,4.494l-5.248,3.329l-1.316-1.656
	L45.014,32.84z"/>
<rect x="36.234" y="25.365" fill="#FDCA47" width="3.971" height="3.259"/>
<path fill="#302C3B" d="M44.074,32.103l2.328-2.303c0,0-1.566-1.566-2.709-2.445c-0.947-0.729-3.488-0.836-3.488-0.836
	c0,1.968-3.971,1.968-3.971,0c0,0-1.709,0.169-2.818,1.006c-1.151,0.868-2.806,3.125-2.806,3.125l2.612,1.529l0.375-0.442
	c1.863,4.755,0.516,6.604,1.883,9.014c0.02-0.932,1.676,3.802,5.336,3.802c2.039,0,7.084-4.356,1.375-8.126
	c-0.982-0.65-1.068-3.987,0.178-5.346L44.074,32.103z"/>
<path fill="#FDCA47" d="M54.209,51.287c-3.451-3.014-2.965-4.538-6.596-5.218c-1.078-5.249-4.807-8.009-4.807-8.009
	c-2.602,3.084-1.734,5.774-1.734,5.774s2.947,4.45,5.51,5.602c3.156,1.405,6.363,3.528,6.363,3.528
	C54.363,54.226,55.764,52.646,54.209,51.287z"/>
<path fill="#FDCA47" d="M43.385,18.063c-0.773-1.821-2.188-3.796-2.188-3.796c-5.183,3.113-9.563,1.551-8.347,7.453
	c0.578,2.8,4.042,4.969,5.407,4.969c1.363,0,4.914-2.152,5.404-4.969C43.943,20.087,43.744,18.911,43.385,18.063z"/>
<path fill="#F5F5F5" d="M42.993,19.28c-0.617,1.606-3.126,1.371-3.586,0.248C39.757,17.722,42.654,17.567,42.993,19.28z"/>
<path fill="#45332C" d="M40.047,19.109c0,1.417,2.05,1.417,2.05,0C42.097,17.794,40.047,17.794,40.047,19.109z"/>
<path fill="#45332C" d="M42.993,19.269c0-1.726-3.586-1.726-3.586,0.272C39.92,17.903,42.48,17.903,42.993,19.269z"/>
<path fill="#F5F5F5" d="M33.518,19.28c0.616,1.606,3.125,1.371,3.585,0.248C36.754,17.722,33.857,17.567,33.518,19.28z"/>
<path fill="#45332C" d="M36.463,19.109c0,1.417-2.05,1.417-2.05,0C34.413,17.794,36.463,17.794,36.463,19.109z"/>
<path fill="#45332C" d="M33.518,19.269c0-1.725,3.585-1.725,3.585,0.272C36.591,17.903,34.029,17.903,33.518,19.269z"/>
<path fill="#D99025" d="M40.816,23.4c-0.482,0.545-0.783,1.509-2.562,1.509c-1.552,0-1.979-0.85-2.562-1.509H40.816z"/>
<path fill="#FFFFFF" d="M40.496,23.417c-1.055,1.079-3.414,1.094-4.482,0H40.496z"/>
<path fill="#D99025" d="M38.256,23.313c-1.004-0.44-1.012-0.017-2.563,0.087c1.957,0.219,3.166,0.219,5.123,0
	C39.266,23.296,39.258,22.873,38.256,23.313z"/>
<path fill="#E6A400" d="M42.775,17.732c-1.086-0.448-2.572-0.535-3.335-0.237c-0.161,0.063-0.156,0.449-0.015,0.41
	c1.095-0.298,2.354-0.321,3.391,0.039C42.955,17.994,42.938,17.8,42.775,17.732z"/>
<path fill="#E6A400" d="M33.695,17.733c1.086-0.448,2.572-0.535,3.336-0.238c0.16,0.063,0.155,0.449,0.013,0.41
	c-1.095-0.298-2.353-0.321-3.389,0.04C33.516,17.994,33.531,17.8,33.695,17.733z"/>
<path fill="#E6A400" d="M39.535,21.85c0,0.822-2.527,0.822-2.527,0C37.008,21.661,39.535,21.661,39.535,21.85z"/>
<path fill="#302C3B" d="M43.574,2.006c-0.367-0.148-3.483,2.587-3.578,4.865c-0.107,2.58-0.242,4.438-0.336,5.559
	c-0.948-0.149-1.936-0.143-2.879,0.021c-0.095-1.118-0.229-2.983-0.336-5.58c-0.097-2.278-3.211-5.013-3.583-4.865
	c-0.6,0.235-1.68,4.326-0.659,6.104c1.468,2.559,2.096,4.152,2.369,5.083c-0.842,0.448-1.554,1.059-2.016,1.852
	c4.306-1.751,7.167-1.752,11.471,0c-0.484-0.833-1.242-1.465-2.139-1.918c0.282-0.938,0.912-2.516,2.347-5.017
	C45.256,6.332,44.177,2.241,43.574,2.006z"/>
<path fill="#FB367D" d="M43.467,7.573c0.514-1.135,0.252-2.95-0.306-3.156c-0.349-0.126-1.755,0.953-2.036,2.529
	c-0.538,3.027-0.791,4.936-0.869,5.565c0.459,0.1,0.887,0.239,1.289,0.402C41.611,12.447,41.928,10.98,43.467,7.573z"/>
<path fill="#FB367D" d="M35.315,6.947c-0.28-1.576-1.687-2.655-2.034-2.529c-0.561,0.206-0.82,2.021-0.309,3.156
	c1.603,3.543,1.881,4.991,1.93,5.393c0.398-0.17,0.831-0.31,1.289-0.418C36.117,11.96,35.863,10.037,35.315,6.947z"/>
</svg>
