<?xml version="1.0" encoding="utf-8"?>
<!-- Generator: Adobe Illustrator 15.0.0, SVG Export Plug-In . SVG Version: 6.00 Build 0)  -->
<!DOCTYPE svg PUBLIC "-//W3C//DTD SVG 1.1//EN" "http://www.w3.org/Graphics/SVG/1.1/DTD/svg11.dtd">
<svg version="1.1" id="Layer_1" xmlns="http://www.w3.org/2000/svg" xmlns:xlink="http://www.w3.org/1999/xlink" x="0px" y="0px"
	 width="64px" height="64px" viewBox="0 0 64 64" enable-background="new 0 0 64 64" xml:space="preserve">
<path fill="#EA8800" d="M35.184,12.881C30.508,6.635,7.322,9.138,7.322,27.56c0.097,9.897,1.647,32.378,18.629,32.378
	c16.979,0,18.531-22.385,18.727-32.378C44.678,21.423,41.281,14.168,35.184,12.881z"/>
<path fill="#D67C00" d="M7.591,33.605c0.836,10.92,4.316,26.332,18.376,26.332c14.107,0,17.563-15.445,18.442-26.404
	c-0.463-5.045-3.314-11.562-9.499-19.243C22.236,22.886,8.543,21.548,7.591,33.605z"/>
<path fill="#E6EBEF" d="M7.9,53.713c2.201-1.223,12.332-4.451,12.332-4.451h11.604c0,0,10.125,3.221,12.314,4.449
	C47.33,55.488,48,62,48,62H4C4,62,4.709,55.482,7.9,53.713"/>
<polygon fill="#E6A400" points="19.84,51.084 26,54.355 32.16,51.084 32.16,44 19.84,44 "/>
<path fill="#CFD8DD" d="M9.26,62c0.471-1.641-0.082-4.137-0.666-5.512C8.051,55.209,8.256,61.098,9.26,62"/>
<path fill="#CFD7DC" d="M43.406,56.488c-0.588,1.375-1.139,3.871-0.67,5.512C43.744,61.098,43.949,55.209,43.406,56.488"/>
<path fill="#CFD8DD" d="M35.682,55.455c-1.119-0.438-9.682-1.1-9.682-1.1s7.551,1.023,8.545,1.508C35.539,56.35,35.682,62,35.682,62
	h1.137C36.818,62,36.801,55.893,35.682,55.455z"/>
<path fill="#8E3ED6" d="M25,51.094c-5.855-1.576-5-4.506-5-4.506s-1,0.125-1,2.512c0,5.256,7,5.256,7,5.256S25.188,51.145,25,51.094
	"/>
<path fill="#8E3ED6" d="M32,46.588c0,0,0.852,2.93-5,4.506c-0.188,0.051-1,3.262-1,3.262s7,0,7-5.256C33,46.713,32,46.588,32,46.588
	"/>
<path fill="#8E3ED6" d="M20,57.844c0.826,0,1.5,0.672,1.5,1.5c0,0.83-0.674,1.5-1.5,1.5c-0.83,0-1.5-0.67-1.5-1.5
	C18.5,58.516,19.17,57.844,20,57.844"/>
<path fill="#8E3ED6" d="M32,57.844c0.828,0,1.5,0.672,1.5,1.5c0,0.83-0.672,1.5-1.5,1.5c-0.83,0-1.5-0.67-1.5-1.5
	C30.5,58.516,31.17,57.844,32,57.844"/>
<line fill="none" x1="11.828" y1="62" x2="40.172" y2="62"/>
<path fill="#FDCA47" d="M50.559,62h-6.65c-0.334-2.33,1.316-6.313,3.17-7.018C56.51,51.398,50.559,62,50.559,62z"/>
<path fill="#CFD8DD" d="M47.918,54.533c0,0,5.574-18.197,12.066-26.09c0,0,5.242,10.533-1.182,28.596c0,0-6.1-2.084-6.514-0.916
	L47.918,54.533z"/>
<path fill="#99A8AE" d="M56.961,56.482c1.039,0.287,1.842,0.557,1.842,0.557c6.424-18.063,1.182-28.596,1.182-28.596
	c-0.41,0.497-0.816,1.035-1.215,1.609C59.934,33.826,61.672,43.053,56.961,56.482z"/>
<path fill="#785647" d="M44.945,62l2.742-7.551c0.1-0.277,0.533-0.379,1.041-0.189l3.109,1.131c0.508,0.188,0.906,0.584,0.807,0.863
	L50.559,62H44.945z"/>
<path fill="#FDCA47" d="M51.793,56.979l-2.445-0.887c-1.553-0.566-2.316,1.529-0.764,2.094l-1.035-0.377
	c-0.621-0.227-1.225,0.148-1.416,0.672c-0.189,0.523,0.137,1.236,0.654,1.424c-1.451-0.527-2.215,1.568-0.764,2.096h6.092
	c-0.049-0.32,1.051-1.039,0.697-2.586C52.746,59.127,53.617,57.645,51.793,56.979z"/>
<path fill="#FDCA47" d="M39.895,26.883c-2.077-4.898-5.887-10.214-5.887-10.214c-13.943,8.378-25.729,4.172-22.457,20.05
	c1.554,7.533,10.873,13.369,14.547,13.369c3.668,0,13.224-5.789,14.541-13.369C41.4,32.33,40.864,29.166,39.895,26.883z"/>
<path fill="#F5F5F5" d="M38.844,30.159c-1.66,4.323-8.412,3.688-9.648,0.666C30.135,25.967,37.932,25.552,38.844,30.159z"/>
<path fill="#45332C" d="M30.918,29.701c0,3.811,5.514,3.811,5.514,0C36.432,26.161,30.918,26.161,30.918,29.701z"/>
<path fill="#45332C" d="M38.844,30.129c0-4.641-9.648-4.641-9.648,0.736C30.574,26.453,37.465,26.453,38.844,30.129z"/>
<path fill="#F5F5F5" d="M13.348,30.159c1.658,4.323,8.411,3.688,9.646,0.666C22.055,25.967,14.26,25.552,13.348,30.159z"/>
<path fill="#45332C" d="M21.271,29.701c0,3.811-5.514,3.811-5.514,0C15.758,26.161,21.271,26.161,21.271,29.701z"/>
<path fill="#45332C" d="M13.348,30.129c0-4.64,9.646-4.64,9.646,0.733C21.617,26.453,14.725,26.453,13.348,30.129z"/>
<path fill="#F5F5F5" d="M31.258,28.774c0,0.953,1.379,0.953,1.379,0C32.637,27.89,31.258,27.89,31.258,28.774z"/>
<path fill="#F5F5F5" d="M17.648,28.581c0,0.951-1.377,0.951-1.377,0C16.271,27.695,17.648,27.695,17.648,28.581z"/>
<path fill="#D99025" d="M32.984,41.246c-1.295,1.465-2.105,4.061-6.89,4.061c-4.174,0-5.324-2.287-6.89-4.061H32.984z"/>
<path fill="#FFFFFF" d="M32.124,41.291c-2.835,2.902-9.186,2.941-12.06,0H32.124z"/>
<path fill="#D99025" d="M26.096,41.01c-2.701-1.184-2.721-0.045-6.891,0.236c5.265,0.59,8.515,0.59,13.779,0
	C28.816,40.965,28.795,39.826,26.096,41.01z"/>
<path fill="#E6A400" d="M38.257,25.995c-2.922-1.205-6.921-1.439-8.974-0.636c-0.432,0.17-0.419,1.206-0.037,1.103
	c2.944-0.801,6.333-0.863,9.122,0.104C38.741,26.699,38.695,26.176,38.257,25.995z"/>
<path fill="#E6A400" d="M13.826,25.996c2.922-1.203,6.92-1.438,8.974-0.637c0.434,0.17,0.421,1.207,0.037,1.103
	c-2.944-0.801-6.333-0.863-9.12,0.106C13.342,26.699,13.387,26.176,13.826,25.996z"/>
<path fill="#E6A400" d="M29.539,37.074c0,2.211-6.797,2.211-6.797,0C22.742,36.564,29.539,36.564,29.539,37.074z"/>
<path fill="#E6EBEF" d="M26,11c-12.453,0-18.502,7-18.502,7v6.891c0,0,5.703-2.891,18.502-2.891c12.797,0,18.5,3,18.5,3v-7
	C44.5,18,38.453,11,26,11"/>
<path fill="#E6EBEF" d="M43.354,4.805C39.439,2.936,37.102,2,34.166,2c-1.352,0-4.787,1.454-8.168,1.402
	C22.619,3.454,19.184,2,17.832,2c-2.938,0-5.273,0.936-9.189,2.805C4.732,6.672,2,8.205,2,11.813c0,5.115,5.498,7.01,5.498,7.01
	s18.625-8.411,37.002,0c0,0,5.5-1.895,5.5-7.01C50,8.205,47.268,6.672,43.354,4.805"/>
<path fill="#CFD8DD" d="M39.559,13.832c-3.691,4.086-2.564-7.793-5.131-7.75c-2.643,0.043-3.662,7.666-8.48,7.556
	c-5-0.114-4.539-8.575-7.941-8.144c-3.299,0.418-2.988,13.486-7.875,6.338C2.586,0.789,9.494,25,2.023,12.388
	C2.357,18,7.498,18.822,7.498,18.822c3.654-1.877,21.246-7.439,37.002,0c0,0,4.678-0.646,5.406-5.895
	C41.223,22.789,52.131-0.086,39.559,13.832z"/>
<path fill="#99A8AE" d="M17.998,7.607c0,0,1.174,7.403-3.248,8.286c-4.422,0.884-7.127-4.87-7.127-4.87
	c1.939,6.922-0.125,7.799-0.125,7.799C15.902,14.967,26,15.089,26,15.089C19.563,15.089,17.998,7.607,17.998,7.607"/>
<path fill="#99A8AE" d="M44.375,11.025c0,0-2.703,5.752-7.127,4.869S34,7.607,34,7.607s-1.563,7.481-8,7.481
	c0,0,10.096-0.122,18.5,3.733C44.5,18.822,42.438,17.945,44.375,11.025"/>
</svg>
