<?xml version="1.0" encoding="utf-8"?>
<!-- Generator: Adobe Illustrator 15.0.0, SVG Export Plug-In . SVG Version: 6.00 Build 0)  -->
<!DOCTYPE svg PUBLIC "-//W3C//DTD SVG 1.1//EN" "http://www.w3.org/Graphics/SVG/1.1/DTD/svg11.dtd">
<svg version="1.1" id="Layer_1" xmlns="http://www.w3.org/2000/svg" xmlns:xlink="http://www.w3.org/1999/xlink" x="0px" y="0px"
	 width="64px" height="64px" viewBox="0 0 64 64" enable-background="new 0 0 64 64" xml:space="preserve">
<path fill="#E6EBEF" d="M11.434,50.949c2.5-1.629,12.877-5.934,12.877-5.934H39.77c0,0,10.367,4.295,12.854,5.932
	C56.238,53.318,57,62,57,62H7C7,62,7.805,53.311,11.434,50.949"/>
<path fill="#CFD7DC" d="M12.047,62c0.582-2.188-0.104-5.516-0.828-7.348C10.545,52.945,10.799,60.797,12.047,62"/>
<path fill="#CFD7DC" d="M51.953,62c-0.582-2.188,0.102-5.516,0.826-7.348C53.453,52.945,53.199,60.797,51.953,62"/>
<path fill="#302C3B" d="M46.24,55.076c-0.881-5.748-3.566-9.465-7.982-11.047c-7.158-2.563-19.344,1.193-19.6,4.758l-1.182-0.177
	c0-4.458,13.598-8.215,21.119-5.522c4.789,1.715,7.693,5.697,8.633,11.837L46.24,55.076z"/>
<path fill="#CFD8DD" d="M46.734,54c2.207,0,4,1.793,4,4.001S48.941,62,46.734,62c-2.209,0-4-1.791-4-3.999S44.525,54,46.734,54"/>
<path fill="#4E5E67" d="M46.734,55c1.658,0,2.998,1.342,2.998,3.002c0,1.656-1.34,2.998-2.998,2.998s-3.002-1.342-3.002-2.998
	C43.732,56.342,45.076,55,46.734,55"/>
<path fill="#BEC3CF" d="M46.734,55.5c1.381,0,2.498,1.119,2.498,2.502c0,1.381-1.117,2.498-2.498,2.498
	c-1.383,0-2.502-1.117-2.502-2.498C44.232,56.619,45.352,55.5,46.734,55.5"/>
<rect x="24.742" y="41" fill="#E6A400" width="14.514" height="10.535"/>
<path fill="#018BC9" d="M38.5,48.168c-1.994,1.055-4.201,1.658-6.5,1.658c-2.297,0-4.506-0.604-6.5-1.66L32,62L38.5,48.168z"/>
<path fill="#BEC3CF" d="M22.764,45.516c-1.969,6.102-1.051,9.998-1.051,9.998c1.658-1.531,4.916-3.223,4.916-3.225
	c-1.18,1.709-2.115,4.516-2.115,4.516C28.051,57.383,32,62,32,62S26.504,45.764,22.764,45.516z"/>
<path fill="#E6EBEF" d="M25.223,42.363c0,0-0.971-0.412-1.385,0.359c-2.436,4.582-1.625,11.063-1.625,11.063
	c1.658-1.531,4.971-1.984,4.973-1.986c-1.182,1.709-1.686,3.633-1.686,3.633C27.998,56.639,32,62,32,62S28.66,52.086,25.223,42.363z
	"/>
<path fill="#BEC3CF" d="M41.234,45.516c1.969,6.102,1.053,9.998,1.053,9.998c-1.658-1.531-4.916-3.223-4.918-3.225
	c1.182,1.709,2.117,4.516,2.117,4.516C35.949,57.383,32,62,32,62S37.494,45.764,41.234,45.516z"/>
<path fill="#E6EBEF" d="M38.777,42.363c0,0,0.971-0.412,1.385,0.359c2.436,4.582,1.625,11.063,1.625,11.063
	c-1.658-1.531-4.973-1.984-4.973-1.986c1.18,1.709,1.686,3.633,1.686,3.633C36,56.639,32,62,32,62S35.34,52.086,38.777,42.363z"/>
<path fill="#302C3B" d="M23.336,53.654h-1.18c-0.002-2.281-1.855-4.136-4.137-4.136c-2.279-0.001-4.135,1.855-4.137,4.136h-1.18
	c0-2.93,2.385-5.316,5.316-5.317S23.338,50.725,23.336,53.654"/>
<path fill="#99A8AE" d="M12.703,53.654l-0.002,6.268c0.002,1.135,0.572,1.963,1.773,2.051c0.762,0.056,0.754-1.127-0.002-1.182
	c-0.789-0.058-0.588-1.01-0.588-1.564l-0.002-5.572C13.885,52.893,12.701,52.893,12.703,53.654"/>
<path fill="#99A8AE" d="M22.156,53.654v5.402c-0.002,0.566,0.236,1.674-0.59,1.734c-0.756,0.055-0.762,1.237,0,1.182
	c1.129-0.082,1.77-0.852,1.771-1.956l-0.002-6.362C23.338,52.892,22.156,52.893,22.156,53.654"/>
<path fill="#302C3B" d="M15.271,61.976l-0.863-0.001c-0.758,0-0.756-1.301,0-1.3l0.863,0.001
	C16.029,60.674,16.029,61.975,15.271,61.976z"/>
<path fill="#302C3B" d="M21.631,61.975H20.77c-0.76,0-0.76-1.3-0.002-1.3l0.863,0.001C22.389,60.675,22.389,61.975,21.631,61.975z"
	/>
<path fill="#EA8800" d="M32,2C12.891,2,12.887,13.498,12.887,27.875h38.227C51.113,13.498,51.109,2,32,2z"/>
<path fill="#F5BC2C" d="M16.682,33.464c2.07-1.926,0.19-9.488-2.479-9.942C8.498,22.548,12.215,37.623,16.682,33.464z"/>
<path fill="#F5BC2C" d="M47.319,33.464c-2.07-1.926-0.191-9.488,2.479-9.942C55.501,22.548,51.787,37.621,47.319,33.464z"/>
<path fill="#FDCA47" d="M32,9.667c-19.963,0-11.92,2.312-17.25,14.04c0,0,0.039,5.377,1.154,11.146C17.344,42.289,25.713,48,32,48
	c6.289,0,14.657-5.711,16.097-13.147c1.116-5.769,1.153-11.146,1.153-11.146C43.921,11.979,51.965,9.667,32,9.667z"/>
<path fill="#F5F5F5" d="M46.184,25.398c-1.847,4.811-9.357,4.105-10.733,0.741C36.495,20.734,45.168,20.272,46.184,25.398z"/>
<path fill="#45332C" d="M37.367,24.888c0,4.241,6.133,4.241,6.133,0C43.5,20.95,37.367,20.95,37.367,24.888z"/>
<path fill="#45332C" d="M46.184,25.365c0-5.165-10.733-5.165-10.733,0.816C36.983,21.275,44.65,21.275,46.184,25.365z"/>
<path fill="#F5F5F5" d="M17.816,25.398c1.848,4.811,9.359,4.105,10.733,0.741C27.505,20.734,18.833,20.272,17.816,25.398z"/>
<path fill="#45332C" d="M26.633,24.888c0,4.241-6.133,4.241-6.133,0C20.5,20.95,26.633,20.95,26.633,24.888z"/>
<path fill="#45332C" d="M17.816,25.365c0-5.163,10.733-5.163,10.733,0.814C27.018,21.275,19.35,21.275,17.816,25.365z"/>
<path fill="#F5F5F5" d="M37.744,23.856c0,1.061,1.533,1.061,1.533,0C39.277,22.872,37.744,22.872,37.744,23.856z"/>
<path fill="#F5F5F5" d="M22.603,23.641c0,1.06-1.534,1.06-1.534,0C21.068,22.657,22.603,22.657,22.603,23.641z"/>
<path fill="#D99025" d="M32,37.527c-3.089-0.821-7.666,0.388-7.666,0.388c1.743,1.709,3.021,3.925,7.666,3.925
	c5.323,0,6.227-2.517,7.666-3.925C39.666,37.915,35.084,36.706,32,37.527z"/>
<path fill="#FFFFFF" d="M25.412,37.976c3.281,3.051,9.916,3.068,13.217,0C35.128,38.142,28.937,38.144,25.412,37.976z"/>
<path fill="#E6A400" d="M45.774,20.652c-3.294-1.359-7.804-1.625-10.119-0.719c-0.488,0.191-0.474,1.361-0.041,1.243
	c3.319-0.904,7.14-0.973,10.284,0.12C46.32,21.444,46.27,20.854,45.774,20.652z"/>
<path fill="#E6A400" d="M18.226,20.652c3.294-1.359,7.803-1.625,10.119-0.719c0.488,0.191,0.474,1.361,0.041,1.243
	c-3.319-0.904-7.141-0.973-10.283,0.12C17.68,21.444,17.73,20.854,18.226,20.652z"/>
<path fill="#EA8800" d="M47.265,7.905c7.12,9.765-25.929,7.218-32.804,5.793C14.461,13.698,24.557-0.072,47.265,7.905z"/>
<path fill="#D67C00" d="M14.461,13.698c9.873,2.078,40.059,1.79,30.558-8.507C60.509,17.549,22.82,18.649,14.461,13.698z"/>
<path fill="#E6A400" d="M35.834,32.757c0,2.492-7.668,2.492-7.668,0C28.166,32.184,35.834,32.184,35.834,32.757z"/>
</svg>
