<?xml version="1.0" encoding="utf-8"?>
<!-- Generator: Adobe Illustrator 15.0.0, SVG Export Plug-In . SVG Version: 6.00 Build 0)  -->
<!DOCTYPE svg PUBLIC "-//W3C//DTD SVG 1.1//EN" "http://www.w3.org/Graphics/SVG/1.1/DTD/svg11.dtd">
<svg version="1.1" id="Layer_1" xmlns="http://www.w3.org/2000/svg" xmlns:xlink="http://www.w3.org/1999/xlink" x="0px" y="0px"
	 width="64px" height="64px" viewBox="0 0 64 64" enable-background="new 0 0 64 64" xml:space="preserve">
<path fill="#E81C27" d="M32,5.664c-3.979-6.467-15-3.94-15,4.185c0,5.454,5.082,9.104,15,17.151c9.918-8.047,15-11.697,15-17.151
	C47,1.724,35.98-0.803,32,5.664z"/>
<path fill="#C21413" d="M31.556,6.471C31.712,6.105,32,5.664,32,5.664c-1.085-1.82-2.676-2.608-2.676-2.608
	C31.001,4.609,31.556,6.471,31.556,6.471z"/>
<path fill="#C21413" d="M40.72,2.224c2.17,1.29,3.742,3.557,3.742,6.625c0,4.968-5.75,10.737-11.094,15.644
	c-1.673,1.535-1.368,1.344-6.142-1.357C27.835,23.627,31.35,26.473,32,27c9.918-8.047,15-11.697,15-17.151
	C47,5.674,44.089,2.982,40.72,2.224z"/>
<path fill-rule="evenodd" clip-rule="evenodd" fill="#F46C60" d="M18.791,8.664c0.245,1.723,3.469-1.646,6.733-4.545
	C27.631,2.256,18.055,3.482,18.791,8.664z"/>
<path fill-rule="evenodd" clip-rule="evenodd" fill="#F46C60" d="M33.274,6.301c0.143,1.008,2.028-0.963,3.938-2.658
	C38.445,2.553,32.843,3.27,33.274,6.301z"/>
<path fill="#EA8800" d="M23.884,26.57c-3.646-4.701-21.732-2.816-21.732,11.047C2.228,45.068,3.437,61.99,16.685,61.99
	c13.244,0,14.455-16.852,14.607-24.373C31.292,32.999,28.644,27.54,23.884,26.57z"/>
<path fill="#D67C00" d="M2.36,42.168C3.013,50.389,5.726,61.99,16.696,61.99c11.004,0,13.701-11.627,14.387-19.875
	c-0.361-3.799-2.586-8.701-7.41-14.484C13.784,34.102,3.103,33.094,2.36,42.168z"/>
<path fill="#8E3ED6" d="M28.413,58.223c-1.492-1.041-7.029-3.783-7.029-3.783h-9.275c0,0-5.545,2.746-7.045,3.787
	C3.13,59.563,2.391,59.504,2,62h29.452C31.067,59.51,30.325,59.559,28.413,58.223z"/>
<path fill="#E6A400" d="M21.153,55.447c0-0.816,0-4.439,0-4.439H12.29c0,0,0,3.568,0,4.439
	C12.29,59.039,21.153,59.039,21.153,55.447z"/>
<path fill="#FDCA47" d="M27.183,38.115c-1.564-3.689-4.434-7.691-4.434-7.691c-10.496,6.309-19.369,3.143-16.904,15.1
	c1.458,7.068,9.164,10.068,11.949,10.068c2.762,0,8.955-4.361,9.947-10.068C28.313,42.217,27.911,39.834,27.183,38.115z"/>
<path fill="#F5BC2C" d="M7.794,41.479c0,2.248,7.264,2.248,7.264-0.355C14.642,37.359,7.882,37.463,7.794,41.479z"/>
<path fill="#F5BC2C" d="M26.988,41.479c0,2.248-7.264,2.248-7.264-0.355C20.141,37.359,26.9,37.463,26.988,41.479z"/>
<path fill="#45332C" d="M7.794,41.479c0,2.248,7.264,2.248,7.264-0.355C14.474,42.322,8.378,42.479,7.794,41.479z"/>
<path fill="#45332C" d="M26.987,41.479c0,2.248-7.262,2.248-7.262-0.355C20.309,42.324,26.404,42.479,26.987,41.479z"/>
<path fill="#E6A400" d="M26.546,37.445c-2.199-0.906-5.211-1.082-6.756-0.477c-0.324,0.127-0.314,0.908-0.027,0.83
	c2.217-0.604,4.768-0.652,6.867,0.08C26.911,37.977,26.876,37.584,26.546,37.445z"/>
<path fill="#E6A400" d="M8.155,37.447c2.197-0.906,5.209-1.084,6.754-0.479c0.328,0.127,0.316,0.91,0.027,0.83
	c-2.217-0.604-4.766-0.652-6.863,0.08C7.79,37.977,7.825,37.584,8.155,37.447z"/>
<path fill="#018BC9" d="M58.962,58.223c-1.492-1.041-7.029-3.783-7.029-3.783h-9.275c0,0-5.545,2.746-7.045,3.787
	C33.68,59.564,32.939,59.504,32.55,62H62C61.616,59.51,60.874,59.559,58.962,58.223z"/>
<path fill="#E6A400" d="M51.702,55.447c0-0.816,0-4.439,0-4.439h-8.863c0,0,0,3.568,0,4.439
	C42.839,59.039,51.702,59.039,51.702,55.447z"/>
<path fill="#EA8800" d="M47.271,24.257c-12.971,0-12.975,7.806-12.975,17.563h25.947C60.243,32.063,60.239,24.257,47.271,24.257z"/>
<g>
	<g>
		<path fill="#F5BC2C" d="M36.872,45.615c1.406-1.309,0.129-6.441-1.682-6.75C31.317,38.205,33.839,48.436,36.872,45.615z"/>
	</g>
	<g>
		<path fill="#F5BC2C" d="M57.667,45.615c-1.404-1.309-0.129-6.441,1.684-6.75C63.222,38.205,60.7,48.436,57.667,45.615z"/>
	</g>
</g>
<path fill="#FDCA47" d="M47.271,29.462c-13.551,0-8.092,1.57-11.709,9.528c0,0,0.025,3.65,0.783,7.566
	c0.977,5.047,5.658,8.924,9.926,8.924s10.947-3.877,11.924-8.924c0.758-3.916,0.783-7.566,0.783-7.566
	C55.36,31.032,60.821,29.462,47.271,29.462z"/>
<path fill="#EA8800" d="M57.63,28.268c4.834,6.627-17.6,4.896-22.266,3.93C35.364,32.198,42.218,22.852,57.63,28.268z"/>
<path fill="#D67C00" d="M35.364,32.198c6.701,1.41,27.189,1.214,20.742-5.774C66.62,34.811,41.038,35.559,35.364,32.198z"/>
<path fill="#E6A400" d="M36.938,37.445c2.199-0.906,5.211-1.082,6.756-0.477c0.324,0.127,0.314,0.908,0.027,0.83
	c-2.217-0.604-4.768-0.652-6.867,0.08C36.573,37.977,36.608,37.584,36.938,37.445z"/>
<path fill="#E6A400" d="M55.329,37.447c-2.197-0.906-5.209-1.084-6.754-0.479c-0.328,0.127-0.316,0.91-0.027,0.83
	c2.217-0.604,4.766-0.652,6.863,0.08C55.694,37.977,55.659,37.584,55.329,37.447z"/>
<path fill="#E6A400" d="M40.392,49.756c-1.881,2.861,3.885,2.885,5.265,0.17L40.392,49.756z"/>
<path fill="#CC9200" d="M41.672,49.111c1.167-0.58,2.202,0.381,3.984,0.814c-1.536,0.699-3.692,0.793-4.005,0.139
	c0,0-0.627,0.467-1.277-0.057C39.652,49.43,40.344,48.451,41.672,49.111z"/>
<path fill="#E6A400" d="M42.583,45.807c-0.207,1.652,4.87,2.289,5.077,0.637C47.708,46.064,42.63,45.428,42.583,45.807z"/>
<path fill="#E6A400" d="M23.319,49.756c1.881,2.861-3.885,2.885-5.265,0.17L23.319,49.756z"/>
<path fill="#CC9200" d="M22.039,49.111c-1.167-0.58-2.202,0.381-3.984,0.814c1.536,0.699,3.692,0.793,4.005,0.139
	c0,0,0.627,0.467,1.277-0.057C24.059,49.43,23.367,48.451,22.039,49.111z"/>
<path fill="#E6A400" d="M21.128,45.807c0.207,1.652-4.87,2.289-5.077,0.637C16.003,46.064,21.081,45.428,21.128,45.807z"/>
<path fill="#F5BC2C" d="M36.497,41.479c0,2.248,7.264,2.248,7.264-0.355C43.345,37.359,36.585,37.463,36.497,41.479z"/>
<path fill="#F5BC2C" d="M55.691,41.479c0,2.248-7.264,2.248-7.264-0.355C48.844,37.359,55.604,37.463,55.691,41.479z"/>
<path fill="#45332C" d="M55.69,41.479c0,2.248-7.264,2.248-7.264-0.355C49.011,42.322,55.106,42.479,55.69,41.479z"/>
<path fill="#45332C" d="M36.497,41.479c0,2.248,7.262,2.248,7.262-0.355C43.177,42.324,37.081,42.479,36.497,41.479z"/>
</svg>
