<?xml version="1.0" encoding="utf-8"?>
<!-- Generator: Adobe Illustrator 15.0.0, SVG Export Plug-In . SVG Version: 6.00 Build 0)  -->
<!DOCTYPE svg PUBLIC "-//W3C//DTD SVG 1.1//EN" "http://www.w3.org/Graphics/SVG/1.1/DTD/svg11.dtd">
<svg version="1.1" id="Layer_1" xmlns="http://www.w3.org/2000/svg" xmlns:xlink="http://www.w3.org/1999/xlink" x="0px" y="0px"
	 width="64px" height="64px" viewBox="0 0 64 64" enable-background="new 0 0 64 64" xml:space="preserve">
<path fill="#018BC9" d="M11.434,51.672c2.5-1.523,12.879-5.547,12.879-5.547H39.77c0,0,10.369,4.014,12.854,5.543
	C56.24,53.885,57,62,57,62H7C7,62,7.807,53.879,11.434,51.672"/>
<rect x="24.113" y="40.566" fill="#3B2B1C" width="15.775" height="9.848"/>
<path fill="#006DAE" d="M51.779,55.131c-0.664,1.715-1.291,4.822-0.758,6.869C52.164,60.875,52.396,53.537,51.779,55.131"/>
<path fill="#006DAE" d="M13.277,62c0.533-2.045-0.094-5.156-0.76-6.867C11.898,53.535,12.133,60.875,13.277,62"/>
<polygon fill="#FEEC9A" points="35.791,62 33.777,54.051 34.719,51.586 32,50.141 29.281,51.586 30.221,54.051 28.209,62 "/>
<path fill="#006DAE" d="M32,50.141c-3.002,0-6.783-0.744-8.033-4.65c-1.969,1.344-1.178,4.65-0.709,10.668
	C25.717,55.896,27.459,52.387,32,50.141z"/>
<path fill="#018BC9" d="M32,50.141c-3.002,0-6.596-1.473-7.846-5.379c-1.969,1.344-0.875,4.125-0.406,10.145
	C26.207,54.643,27.459,52.387,32,50.141z"/>
<path fill="#006DAE" d="M32,50.141c3.002,0,6.783-0.744,8.033-4.65c1.969,1.344,1.178,4.65,0.709,10.668
	C38.283,55.896,36.541,52.387,32,50.141z"/>
<path fill="#018BC9" d="M32,50.141c3.002,0,6.596-1.473,7.846-5.379c1.969,1.344,0.875,4.125,0.406,10.145
	C37.793,54.643,36.541,52.387,32,50.141z"/>
<polygon fill="#BDC70E" points="35.016,58.941 28.209,62 29.059,58.645 34.336,56.254 "/>
<polygon fill="#BDC70E" points="33.857,54.361 29.664,56.254 30.221,54.051 29.883,53.166 33.992,51.305 34.646,51.771 
	33.777,54.051 "/>
<path fill="#9DA60C" d="M33.314,53.777c-0.52-0.203-2.109-0.203-2.629,0C29.49,54.24,34.51,54.24,33.314,53.777z"/>
<path fill="#38332D" d="M32,2C12.891,2,12.887,13.498,12.887,27.875h38.227C51.113,13.498,51.109,2,32,2z"/>
<path fill="#523924" d="M16.682,33.464c2.07-1.926,0.19-9.488-2.479-9.942C8.498,22.548,12.215,37.623,16.682,33.464z"/>
<path fill="#523924" d="M47.319,33.464c-2.07-1.926-0.191-9.488,2.479-9.942C55.501,22.548,51.787,37.621,47.319,33.464z"/>
<path fill="#614A36" d="M32,9.667c-19.963,0-11.92,2.312-17.25,14.04c0,0,0.039,5.377,1.154,11.147C17.344,42.289,25.713,48,32,48
	c6.289,0,14.657-5.711,16.097-13.146c1.116-5.77,1.153-11.147,1.153-11.147C43.921,11.979,51.965,9.667,32,9.667z"/>
<path fill="#F5F5F5" d="M46.184,25.398c-1.847,4.811-9.357,4.105-10.733,0.741C36.495,20.734,45.168,20.272,46.184,25.398z"/>
<path fill="#45332C" d="M37.367,24.888c0,4.241,6.133,4.241,6.133,0C43.5,20.95,37.367,20.95,37.367,24.888z"/>
<path fill="#45332C" d="M46.184,25.365c0-5.165-10.733-5.165-10.733,0.816C36.983,21.275,44.65,21.275,46.184,25.365z"/>
<path fill="#F5F5F5" d="M17.816,25.398c1.848,4.811,9.359,4.105,10.733,0.741C27.505,20.734,18.833,20.272,17.816,25.398z"/>
<path fill="#45332C" d="M26.633,24.888c0,4.241-6.133,4.241-6.133,0C20.5,20.95,26.633,20.95,26.633,24.888z"/>
<path fill="#45332C" d="M17.816,25.365c0-5.163,10.733-5.163,10.733,0.814C27.018,21.275,19.35,21.275,17.816,25.365z"/>
<path fill="#F5F5F5" d="M37.744,23.856c0,1.061,1.533,1.061,1.533,0C39.277,22.872,37.744,22.872,37.744,23.856z"/>
<path fill="#F5F5F5" d="M22.603,23.641c0,1.06-1.534,1.06-1.534,0C21.068,22.657,22.603,22.657,22.603,23.641z"/>
<path fill="#3B2C20" d="M32,37.527c-3.089-0.821-7.666,0.388-7.666,0.388c1.743,1.709,3.021,3.925,7.666,3.925
	c5.323,0,6.227-2.518,7.666-3.925C39.666,37.915,35.084,36.706,32,37.527z"/>
<path fill="#FFFFFF" d="M25.412,37.975c3.281,3.051,9.916,3.07,13.217,0C35.128,38.142,28.937,38.144,25.412,37.975z"/>
<path fill="#3B2B1C" d="M45.774,20.652c-3.294-1.359-7.804-1.625-10.119-0.719c-0.488,0.191-0.474,1.361-0.041,1.243
	c3.319-0.904,7.14-0.973,10.284,0.12C46.32,21.444,46.27,20.854,45.774,20.652z"/>
<path fill="#3B2B1C" d="M18.226,20.652c3.294-1.359,7.803-1.625,10.119-0.719c0.488,0.191,0.474,1.361,0.041,1.243
	c-3.319-0.904-7.141-0.973-10.283,0.12C17.68,21.444,17.73,20.854,18.226,20.652z"/>
<path fill="#38332D" d="M47.265,7.905c7.12,9.765-25.929,7.218-32.804,5.793C14.461,13.698,24.557-0.072,47.265,7.905z"/>
<path fill="#26221E" d="M14.461,13.698c9.873,2.078,40.059,1.79,30.558-8.507C60.509,17.549,22.82,18.649,14.461,13.698z"/>
<path fill="#3B2B1C" d="M35.834,32.756c0,2.494-7.668,2.494-7.668,0C28.166,32.184,35.834,32.184,35.834,32.756z"/>
</svg>
