<?xml version="1.0" encoding="utf-8"?>
<!-- Generator: Adobe Illustrator 15.0.0, SVG Export Plug-In . SVG Version: 6.00 Build 0)  -->
<!DOCTYPE svg PUBLIC "-//W3C//DTD SVG 1.1//EN" "http://www.w3.org/Graphics/SVG/1.1/DTD/svg11.dtd">
<svg version="1.1" id="Layer_1" xmlns="http://www.w3.org/2000/svg" xmlns:xlink="http://www.w3.org/1999/xlink" x="0px" y="0px"
	 width="64px" height="64px" viewBox="0 0 64 64" enable-background="new 0 0 64 64" xml:space="preserve">
<path fill="#EA8800" d="M24.163,4.441C20.517-0.52,2.429,1.468,2.429,16.101c0.076,7.863,1.286,25.72,14.534,25.72
	c13.244,0,14.456-17.783,14.607-25.72C31.57,11.226,28.922,5.464,24.163,4.441z"/>
<path fill="#D67C00" d="M2.64,20.904c0.651,8.676,3.365,20.917,14.335,20.917c11.004,0,13.701-12.269,14.387-20.974
	c-0.361-4.008-2.586-9.184-7.41-15.285C14.063,12.39,3.381,11.326,2.64,20.904z"/>
<path fill="#8E3ED6" d="M24.691,34.966c-1.491-1.043-3.029-2.783-3.029-2.783h-9.275c0,0-5.545,2.746-7.045,3.785
	C2.834,37.704,2.332,43.069,2,48.741L3,62h26C29,62,27.175,36.7,24.691,34.966z"/>
<path fill="#E6A400" d="M21.432,33.188c0-0.816,0-4.437,0-4.437h-8.863c0,0,0,3.568,0,4.437
	C12.568,36.78,21.432,36.78,21.432,33.188z"/>
<rect x="2" y="48.763" fill="#FDCA47" width="4.091" height="13.237"/>
<path fill="#FDCA47" d="M27.461,15.859c-1.563-3.689-4.433-7.691-4.433-7.691c-10.496,6.309-19.369,3.143-16.905,15.1
	c1.17,5.672,8.186,10.066,10.95,10.066c2.761,0,9.955-4.359,10.946-10.066C28.593,19.96,28.189,17.578,27.461,15.859z"/>
<path fill="#F5F5F5" d="M26.668,18.326c-1.249,3.256-6.332,2.779-7.263,0.502C20.113,15.169,25.981,14.857,26.668,18.326z"/>
<path fill="#45332C" d="M20.702,17.98c0,2.871,4.15,2.871,4.15,0C24.853,15.316,20.702,15.316,20.702,17.98z"/>
<path fill="#45332C" d="M26.668,18.302c0-3.494-7.263-3.494-7.263,0.555C20.443,15.535,25.63,15.535,26.668,18.302z"/>
<path fill="#F5F5F5" d="M7.475,18.326c1.249,3.256,6.333,2.779,7.263,0.502C14.031,15.169,8.162,14.857,7.475,18.326z"/>
<path fill="#45332C" d="M13.439,17.98c0,2.871-4.149,2.871-4.149,0C9.29,15.316,13.439,15.316,13.439,17.98z"/>
<path fill="#45332C" d="M7.475,18.302c0-3.492,7.263-3.492,7.263,0.553C13.7,15.535,8.513,15.535,7.475,18.302z"/>
<path fill="#D99025" d="M22.258,26.673c-0.976,1.105-1.585,3.061-5.187,3.061c-3.143,0-4.007-1.723-5.188-3.061H22.258z"/>
<path fill="#FFFFFF" d="M21.61,26.708c-2.135,2.186-6.916,2.217-9.078,0H21.61z"/>
<path fill="#D99025" d="M17.071,26.498c-2.031-0.891-2.048-0.035-5.188,0.176c3.964,0.445,6.411,0.445,10.374,0
	C19.12,26.462,19.104,25.607,17.071,26.498z"/>
<path fill="#E6A400" d="M26.227,15.189c-2.198-0.906-5.21-1.082-6.755-0.477c-0.325,0.127-0.315,0.908-0.028,0.83
	c2.217-0.604,4.768-0.652,6.867,0.08C26.592,15.72,26.558,15.328,26.227,15.189z"/>
<path fill="#E6A400" d="M7.836,15.191c2.198-0.906,5.209-1.084,6.755-0.479c0.327,0.127,0.316,0.91,0.027,0.83
	c-2.217-0.604-4.767-0.652-6.864,0.08C7.471,15.72,7.506,15.328,7.836,15.191z"/>
<path fill="#E6A400" d="M19.665,23.533c0,1.666-5.118,1.666-5.118,0C14.547,23.15,19.665,23.15,19.665,23.533z"/>
<path fill="#018BC9" d="M58.691,35.966c-1.491-1.043-7.029-3.783-7.029-3.783h-9.275c0,0-3.408,1.735-4.045,2.785
	C34.81,40.789,35,62,35,62h26l1-13.259C61.688,43.081,61.175,37.7,58.691,35.966z"/>
<path fill="#E6A400" d="M51.432,33.188c0-0.816,0-4.437,0-4.437h-8.863c0,0,0,3.568,0,4.437
	C42.568,36.78,51.432,36.78,51.432,33.188z"/>
<rect x="57.909" y="48.763" fill="#FDCA47" width="4.091" height="13.237"/>
<path fill="#EA8800" d="M47,2C34.029,2,34.026,9.804,34.026,19.562h25.946C59.973,9.804,59.969,2,47,2z"/>
<g>
	<path fill="#F5BC2C" d="M36.602,23.357c1.406-1.309,0.13-6.441-1.682-6.75C31.048,15.947,33.569,26.179,36.602,23.357z"/>
</g>
<g>
	<path fill="#F5BC2C" d="M57.397,23.357c-1.405-1.309-0.13-6.441,1.683-6.75C62.951,15.947,60.43,26.177,57.397,23.357z"/>
</g>
<path fill="#FDCA47" d="M47,7.205c-13.551,0-8.091,1.568-11.708,9.527c0,0,0.025,3.65,0.783,7.566
	c0.977,5.049,6.657,8.923,10.925,8.923s9.948-3.875,10.925-8.923c0.758-3.916,0.783-7.566,0.783-7.566
	C55.091,8.773,60.551,7.205,47,7.205z"/>
<path fill="#F5F5F5" d="M56.627,17.882c-1.253,3.264-6.352,2.785-7.285,0.502C50.051,14.716,55.938,14.402,56.627,17.882z"/>
<path fill="#45332C" d="M50.643,17.535c0,2.879,4.163,2.879,4.163,0C54.806,14.861,50.643,14.861,50.643,17.535z"/>
<path fill="#45332C" d="M56.627,17.859c0-3.506-7.285-3.506-7.285,0.555C50.382,15.083,55.586,15.083,56.627,17.859z"/>
<path fill="#F5F5F5" d="M37.373,17.882c1.253,3.264,6.351,2.785,7.285,0.502C43.948,14.716,38.063,14.402,37.373,17.882z"/>
<path fill="#45332C" d="M43.357,17.535c0,2.879-4.163,2.879-4.163,0C39.194,14.863,43.357,14.863,43.357,17.535z"/>
<path fill="#45332C" d="M37.373,17.859c0-3.504,7.285-3.504,7.285,0.553C43.618,15.083,38.413,15.083,37.373,17.859z"/>
<path fill="#D99025" d="M47,26.113c-2.097-0.555-5.204,0.264-5.204,0.264c1.184,1.16,2.051,2.666,5.204,2.666
	c3.613,0,4.226-1.709,5.203-2.666C52.203,26.376,49.093,25.556,47,26.113z"/>
<path fill="#FFFFFF" d="M42.527,26.419c2.228,2.07,6.73,2.084,8.972,0C49.123,26.533,44.92,26.533,42.527,26.419z"/>
<path fill="#E6A400" d="M56.35,14.66c-2.236-0.922-5.298-1.102-6.869-0.488c-0.332,0.131-0.321,0.924-0.028,0.844
	c2.253-0.613,4.848-0.66,6.98,0.082C56.72,15.197,56.685,14.796,56.35,14.66z"/>
<path fill="#E6A400" d="M37.65,14.66c2.235-0.922,5.296-1.102,6.868-0.488c0.331,0.131,0.321,0.924,0.027,0.844
	c-2.253-0.613-4.847-0.66-6.979,0.082C37.279,15.197,37.314,14.796,37.65,14.66z"/>
<path fill="#D67C00" d="M53.258,26.951c-2.44-2.568-10.027-2.59-12.489,0C44.078,26.771,49.928,26.771,53.258,26.951z"/>
<path fill="#EA8800" d="M53.258,26.951c-3.101-3.262-9.369-3.283-12.489,0C41.31,26.267,52.561,26.078,53.258,26.951z"/>
<path fill="#EA8800" d="M57.36,6.009c4.833,6.627-17.6,4.898-22.266,3.93C35.095,9.939,41.947,0.593,57.36,6.009z"/>
<path fill="#D67C00" d="M35.095,9.939c6.701,1.41,27.189,1.217,20.741-5.773C66.35,12.554,40.769,13.302,35.095,9.939z"/>
<path fill="#E6A400" d="M49.602,22.876c0,1.693-5.204,1.693-5.204,0C44.397,22.488,49.602,22.488,49.602,22.876z"/>
<path fill="#4ABDFF" d="M53.387,61.996c-1.197-0.832-5.647-3.025-5.647-3.025h-7.451c0,0-4.455,2.197-5.659,3.029L53.387,61.996z"/>
<path fill="#E6A400" d="M47.539,59.076c0-0.652,0-3.551,0-3.551h-7.09c0,0,0,2.855,0,3.551
	C40.449,61.949,47.539,61.949,47.539,59.076z"/>
<path fill="#EA8800" d="M44.001,35.818c-11.478,0-10.371,9.201-10.371,13.5h20.742C54.372,45.02,55.479,35.818,44.001,35.818z"/>
<path fill="#F5BC2C" d="M34.822,48.041c-3.578-0.471-1.248,6.844,1.555,4.827C37.675,51.932,36.496,48.262,34.822,48.041z"/>
<path fill="#F5BC2C" d="M53.181,48.041c-1.675,0.221-2.854,3.891-1.555,4.827C54.428,54.883,56.758,47.57,53.181,48.041z"/>
<path fill="#FDCA47" d="M53.229,47.41c0-6.135-3.624-4.77-9.228-4.77s-9.229-1.365-9.229,4.77c0,0,0.02,2.338,0.617,5.411
	c0.979,5.026,5.039,6.997,8.61,6.997s7.634-1.971,8.61-6.997C53.209,49.746,53.229,47.41,53.229,47.41z"/>
<path fill="#EA8800" d="M43.812,40.338c-1.677,2.988-7.955,4.855-10.113,4.662C35.652,43.023,36.521,37.936,43.812,40.338z"/>
<path fill="#D67C00" d="M33.698,45c2.748-0.719,6.316-2.182,10.113-4.662C42.135,43.326,36.621,45.684,33.698,45z"/>
<path fill="#EA8800" d="M52.281,40.176c-2.371,3.559-11.254,5.785-14.307,5.553C40.738,43.375,41.967,37.316,52.281,40.176z"/>
<path fill="#D67C00" d="M37.975,45.729c7.297-2.027,14.307-5.553,14.307-5.553C49.91,43.734,43.298,46.244,37.975,45.729z"/>
<path fill="#EA8800" d="M52.627,39.357c2.844,4.633-4.559,6.531-7.617,6.346C47.752,43.895,49.592,39.213,52.627,39.357z"/>
<path fill="#D67C00" d="M45.01,45.703c3.678-1.688,9.283-2.033,7.617-6.346C55.471,43.99,48.253,46.119,45.01,45.703z"/>
<path fill="#F5F5F5" d="M51.4,49.725c-0.963,2.51-4.881,2.141-5.6,0.387C46.346,47.291,50.871,47.049,51.4,49.725z"/>
<path fill="#45332C" d="M46.801,49.457c0,2.213,3.2,2.213,3.2,0C50.001,47.402,46.801,47.402,46.801,49.457z"/>
<path fill="#45332C" d="M51.4,49.705c0-2.693-5.6-2.693-5.6,0.428C46.602,47.572,50.602,47.572,51.4,49.705z"/>
<path fill="#F5F5F5" d="M36.602,49.725c0.963,2.51,4.882,2.141,5.6,0.387C41.656,47.291,37.131,47.049,36.602,49.725z"/>
<path fill="#45332C" d="M41.201,49.457c0,2.213-3.2,2.213-3.2,0C38.001,47.402,41.201,47.402,41.201,49.457z"/>
<path fill="#45332C" d="M36.602,49.705c0-2.691,5.6-2.691,5.6,0.426C41.402,47.572,37.4,47.572,36.602,49.705z"/>
<path fill="#D99025" d="M44.001,55.252c-1.611-0.428-4,0.203-4,0.203c0.91,0.891,1.577,2.047,4,2.047c2.777,0,3.249-1.313,4-2.047
	C48.001,55.455,45.61,54.824,44.001,55.252z"/>
<path fill="#FFFFFF" d="M40.564,55.486c1.711,1.592,5.172,1.602,6.896,0C45.633,55.574,42.402,55.574,40.564,55.486z"/>
<path fill="#E6A400" d="M51.188,47.389c-1.719-0.709-4.071-0.848-5.279-0.375c-0.256,0.1-0.247,0.711-0.021,0.65
	c1.732-0.473,3.726-0.51,5.365,0.061C51.473,47.803,51.445,47.494,51.188,47.389z"/>
<path fill="#E6A400" d="M36.814,47.389c1.719-0.709,4.071-0.848,5.279-0.375c0.255,0.1,0.247,0.711,0.021,0.65
	c-1.732-0.473-3.726-0.51-5.365,0.061C36.529,47.803,36.557,47.494,36.814,47.389z"/>
<path fill="#E6A400" d="M46.001,53.341c0,1.302-4,1.302-4,0C42.001,53.044,46.001,53.044,46.001,53.341z"/>
<path fill="#4ABDFF" d="M29.39,61.996c-1.197-0.832-5.646-3.025-5.646-3.025h-7.451c0,0-4.455,2.197-5.66,3.029L29.39,61.996z"/>
<path fill="#E6A400" d="M23.542,59.076c0-0.652,0-3.551,0-3.551h-7.09c0,0,0,2.855,0,3.551
	C16.452,61.949,23.542,61.949,23.542,59.076z"/>
<path fill="#EA8800" d="M20,35.818c-11.479,0-10.371,9.201-10.371,13.5h20.742C30.371,45.02,31.477,35.818,20,35.818z"/>
<path fill="#F5BC2C" d="M10.82,48.041c-3.578-0.471-1.248,6.844,1.555,4.827C13.674,51.932,12.494,48.262,10.82,48.041z"/>
<path fill="#F5BC2C" d="M29.18,48.041c-1.676,0.221-2.854,3.891-1.555,4.827C30.426,54.883,32.756,47.57,29.18,48.041z"/>
<path fill="#FDCA47" d="M29.229,47.41c0-6.135-3.625-4.77-9.229-4.77s-9.229-1.365-9.229,4.77c0,0,0.02,2.338,0.617,5.411
	c0.979,5.026,5.039,6.997,8.611,6.997c3.57,0,7.633-1.971,8.609-6.997C29.207,49.746,29.229,47.41,29.229,47.41z"/>
<path fill="#EA8800" d="M19.811,40.338C18.133,43.326,11.855,45.193,9.697,45C11.65,43.023,12.52,37.936,19.811,40.338z"/>
<path fill="#D67C00" d="M9.697,45c2.748-0.719,6.316-2.182,10.113-4.662C18.133,43.326,12.619,45.684,9.697,45z"/>
<path fill="#EA8800" d="M28.279,40.176c-2.371,3.559-11.254,5.785-14.307,5.553C16.736,43.375,17.965,37.316,28.279,40.176z"/>
<path fill="#D67C00" d="M13.973,45.729c7.297-2.027,14.307-5.553,14.307-5.553C25.908,43.734,19.297,46.244,13.973,45.729z"/>
<path fill="#EA8800" d="M28.625,39.357c2.844,4.633-4.559,6.531-7.617,6.346C23.75,43.895,25.59,39.213,28.625,39.357z"/>
<path fill="#D67C00" d="M21.008,45.703c3.678-1.688,9.283-2.033,7.617-6.346C31.469,43.99,24.252,46.119,21.008,45.703z"/>
<path fill="#F5F5F5" d="M27.398,49.725c-0.963,2.51-4.881,2.141-5.6,0.387C22.344,47.291,26.869,47.049,27.398,49.725z"/>
<path fill="#45332C" d="M22.799,49.457c0,2.213,3.201,2.213,3.201,0C26,47.402,22.799,47.402,22.799,49.457z"/>
<path fill="#45332C" d="M27.398,49.705c0-2.693-5.6-2.693-5.6,0.428C22.6,47.572,26.6,47.572,27.398,49.705z"/>
<path fill="#F5F5F5" d="M12.6,49.725c0.963,2.51,4.883,2.141,5.6,0.387C17.654,47.291,13.129,47.049,12.6,49.725z"/>
<path fill="#45332C" d="M17.199,49.457c0,2.213-3.199,2.213-3.199,0C14,47.402,17.199,47.402,17.199,49.457z"/>
<path fill="#45332C" d="M12.6,49.705c0-2.691,5.6-2.691,5.6,0.426C17.4,47.572,13.398,47.572,12.6,49.705z"/>
<path fill="#D99025" d="M20,55.252c-1.611-0.428-4,0.203-4,0.203c0.91,0.891,1.576,2.047,4,2.047c2.777,0,3.248-1.313,4-2.047
	C24,55.455,21.609,54.824,20,55.252z"/>
<path fill="#FFFFFF" d="M16.563,55.486c1.711,1.592,5.172,1.602,6.896,0C21.631,55.574,18.4,55.574,16.563,55.486z"/>
<path fill="#E6A400" d="M27.186,47.389c-1.719-0.709-4.07-0.848-5.279-0.375c-0.256,0.1-0.246,0.711-0.021,0.65
	c1.732-0.473,3.727-0.51,5.365,0.061C27.471,47.803,27.443,47.494,27.186,47.389z"/>
<path fill="#E6A400" d="M12.813,47.389c1.719-0.709,4.072-0.848,5.279-0.375c0.256,0.1,0.248,0.711,0.021,0.65
	c-1.732-0.473-3.725-0.51-5.365,0.061C12.527,47.803,12.555,47.494,12.813,47.389z"/>
<path fill="#E6A400" d="M22,53.341c0,1.302-4,1.302-4,0C18,53.044,22,53.044,22,53.341z"/>
</svg>
