<?xml version="1.0" encoding="utf-8"?>
<!-- Generator: Adobe Illustrator 15.0.0, SVG Export Plug-In . SVG Version: 6.00 Build 0)  -->
<!DOCTYPE svg PUBLIC "-//W3C//DTD SVG 1.1//EN" "http://www.w3.org/Graphics/SVG/1.1/DTD/svg11.dtd">
<svg version="1.1" id="Layer_1" xmlns="http://www.w3.org/2000/svg" xmlns:xlink="http://www.w3.org/1999/xlink" x="0px" y="0px"
	 width="64px" height="64px" viewBox="0 0 64 64" enable-background="new 0 0 64 64" xml:space="preserve">
<path fill="#018BC9" d="M26.585,27.228c-4.835,7.974,8.671,13.906,1.052,16.892c-7.62,2.988-11.287-3.629-15.114-12.064
	c-3.83-8.434-0.755-17.693,6.867-20.68C27.01,8.388,32.984,16.673,26.585,27.228z"/>
<path fill="#018BC9" d="M23.22,5.442c0.018-2.33,1.719-3.457,3.806-3.442c2.085,0.014,3.765,1.162,3.748,3.493
	c-0.025,3.333-1.729,4.96-3.813,4.947C24.875,10.426,23.195,8.776,23.22,5.442z"/>
<path fill="#018BC9" d="M16.875,6.573c-0.268-1.658,0.806-2.634,2.289-2.839c1.484-0.206,2.815,0.437,3.083,2.095
	c0.379,2.371-0.636,3.703-2.121,3.908C18.644,9.943,17.255,8.943,16.875,6.573z"/>
<path fill="#018BC9" d="M12.21,9.451c-0.43-1.416,0.39-2.374,1.655-2.704c1.267-0.33,2.502,0.092,2.93,1.507
	c0.611,2.024-0.115,3.287-1.381,3.617C14.148,12.201,12.822,11.474,12.21,9.451z"/>
<path fill="#018BC9" d="M9.69,13.441c-0.488-1.043,0.03-1.857,0.964-2.234s1.928-0.174,2.417,0.869
	c0.697,1.491,0.283,2.529-0.648,2.907C11.489,15.36,10.389,14.933,9.69,13.441z"/>
<path fill="#018BC9" d="M8.149,16.91c-0.389-0.834,0.023-1.484,0.771-1.786c0.746-0.302,1.541-0.14,1.933,0.694
	c0.556,1.191,0.226,2.021-0.521,2.323C9.586,18.443,8.708,18.101,8.149,16.91z"/>
<path fill="#018BC9" d="M35.542,44.153c3.174,8.666-11.28,12.185-4.382,16.425c6.9,4.24,11.812-1.636,17.249-9.271
	c5.435-7.635,4.247-17.263-2.65-21.503C38.859,25.564,31.344,32.685,35.542,44.153z"/>
<path fill="#018BC9" d="M43.168,23.318c0.443-2.294-1.003-3.691-3.058-4.035c-2.053-0.344-3.935,0.498-4.378,2.791
	c-0.636,3.281,0.717,5.172,2.769,5.516C40.554,27.933,42.53,26.598,43.168,23.318z"/>
<path fill="#018BC9" d="M49.181,25.515c0.589-1.584-0.271-2.727-1.689-3.183c-1.415-0.456-2.854-0.052-3.442,1.532
	c-0.845,2.264-0.111,3.747,1.308,4.203C46.772,28.523,48.338,27.78,49.181,25.515z"/>
<path fill="#018BC9" d="M53.196,29.141c0.699-1.317,0.086-2.399-1.093-2.94c-1.18-0.541-2.478-0.338-3.179,0.98
	c-1.001,1.884-0.538,3.248,0.643,3.79C50.745,31.513,52.194,31.026,53.196,29.141z"/>
<path fill="#018BC9" d="M54.881,33.494c0.688-0.941,0.339-1.831-0.504-2.361s-1.862-0.501-2.548,0.44
	c-0.982,1.346-0.78,2.437,0.063,2.968C52.733,35.072,53.897,34.841,54.881,33.494z"/>
<path fill="#018BC9" d="M55.709,37.167c0.548-0.752,0.27-1.463-0.405-1.888c-0.672-0.423-1.485-0.4-2.034,0.353
	c-0.785,1.076-0.624,1.947,0.05,2.373C53.991,38.429,54.923,38.243,55.709,37.167z"/>
</svg>
