<?xml version="1.0" encoding="utf-8"?>
<!-- Generator: Adobe Illustrator 15.0.0, SVG Export Plug-In . SVG Version: 6.00 Build 0)  -->
<!DOCTYPE svg PUBLIC "-//W3C//DTD SVG 1.1//EN" "http://www.w3.org/Graphics/SVG/1.1/DTD/svg11.dtd">
<svg version="1.1" id="Layer_1" xmlns="http://www.w3.org/2000/svg" xmlns:xlink="http://www.w3.org/1999/xlink" x="0px" y="0px"
	 width="64px" height="64px" viewBox="0 0 64 64" enable-background="new 0 0 64 64" xml:space="preserve">
<path fill="#875B49" d="M41.096,9.521C36.465,2.99,13.5,5.607,13.5,24.867c0.096,10.348,1.632,33.85,18.452,33.85
	c16.817,0,18.355-23.402,18.549-33.85C50.5,18.451,47.137,10.868,41.096,9.521z"/>
<path fill="#6B4435" d="M13.766,31.189c0.828,11.417,4.273,27.528,18.201,27.528c13.973,0,17.396-16.147,18.266-27.604
	c-0.457-5.274-3.281-12.087-9.406-20.119C28.271,19.982,14.709,18.582,13.766,31.189z"/>
<path fill="#006DAE" d="M13.902,51.87c2.199-1.495,11.332-5.44,11.332-5.44h13.604c0,0,9.123,3.937,11.313,5.437
	C53.33,54.041,54,62,54,62H10C10,62,10.709,54.034,13.902,51.87z"/>
<polygon fill="#946346" points="25.859,49.656 32,54.657 38.139,49.656 38.139,40 25.859,40 "/>
<rect x="18.824" y="56.828" fill="#FFE12C" width="8" height="1"/>
<rect x="18.824" y="60" fill="#014D87" width="8" height="2"/>
<rect x="32" y="53.922" fill="#014D87" width="2.875" height="8.078"/>
<polygon fill="#018BC9" points="26.824,58.792 18.824,58.792 18.824,60.109 19.719,60.109 22.824,61.509 25.93,60.109 
	26.824,60.109 "/>
<path fill="#FFE12C" d="M40.354,56.229l0.783-0.836c1.02,0.63,1.865-0.144,1.865-0.144s0.848,0.773,1.865,0.144l0.781,0.836
	c-1.309,0.735,0.457,1.926,0.039,3.215c-0.582,1.79-1.977,1.595-2.686,2.306c-0.711-0.711-2.102-0.516-2.684-2.306
	C39.9,58.155,41.668,56.965,40.354,56.229z"/>
<path fill="#018BC9" d="M24.99,54.465c0,0-2.957-4.068-0.746-8.16c0.377-0.692,1.607-1.846,1.607-1.846
	c0,2.766,6.148,9.198,6.148,9.198v1.171c0,0-0.854-1.204-3.457-0.613c0,0-0.271-1.216,0.092-2.303
	C28.635,51.912,26.709,52.353,24.99,54.465z"/>
<path fill="#018BC9" d="M39.01,54.465c0,0,2.955-4.068,0.744-8.16c-0.375-0.692-1.607-1.846-1.607-1.846
	c0,2.766-6.146,9.198-6.146,9.198v2.171c0,0,0.854-2.204,3.457-1.613c0,0,0.271-1.216-0.092-2.303
	C35.365,51.912,37.291,52.353,39.01,54.465z"/>
<path fill="#006DAE" d="M34.438,59c0,1.333-2,1.333-2,0C32.438,57.666,34.438,57.666,34.438,59z"/>
<path fill="#014D87" d="M41.418,47.328l0.82,3.055c0,0,6.98,3.386,8.625,4.274c1.633,0.883,0.971-1.963-0.313-2.992
	C50.072,51.279,44.26,48.281,41.418,47.328z"/>
<path fill="#006DAE" d="M44.385,49.539c0.539,1.221-1,1.159-1.582-0.041C42.156,48.164,43.822,48.268,44.385,49.539z"/>
<path fill="#014D87" d="M22.58,47.328l-0.82,3.055c0,0-6.979,3.386-8.625,4.274c-1.631,0.883-0.971-1.963,0.313-2.992
	C13.928,51.279,19.738,48.281,22.58,47.328z"/>
<path fill="#006DAE" d="M19.613,49.539c-0.539,1.221,1.002,1.159,1.584-0.041C21.844,48.164,20.176,48.268,19.613,49.539z"/>
<path fill="#E6A400" d="M45.002,58.792c0,2-4,2-4,0S45.002,56.792,45.002,58.792z"/>
<rect x="41.502" y="56.328" fill="#E6A400" width="3" height="0.5"/>
<path fill="#014D87" d="M15.26,62c0.469-2.006-0.08-5.057-0.666-6.736C14.049,53.699,14.256,60.896,15.26,62z"/>
<path fill="#014D87" d="M49.406,55.264c-0.586,1.68-1.137,4.73-0.668,6.736C49.744,60.896,49.949,53.699,49.406,55.264z"/>
<path fill="#B88A6F" d="M45.742,25.119c-2.056-4.845-5.823-10.103-5.823-10.103c-13.789,8.286-25.445,4.128-22.208,19.831
	c1.535,7.45,10.752,13.221,14.385,13.221c3.626,0,13.077-5.727,14.379-13.221C47.23,30.505,46.699,27.376,45.742,25.119z"/>
<path fill="#F5F5F5" d="M44.7,28.359c-1.642,4.275-8.317,3.648-9.541,0.658C36.09,24.212,43.799,23.802,44.7,28.359z"/>
<path fill="#45332C" d="M36.863,27.904c0,3.771,5.453,3.771,5.453,0C42.316,24.404,36.863,24.404,36.863,27.904z"/>
<path fill="#45332C" d="M44.7,28.329c0-4.591-9.541-4.591-9.541,0.726C36.523,24.693,43.338,24.693,44.7,28.329z"/>
<path fill="#F5F5F5" d="M19.486,28.359c1.641,4.275,8.318,3.648,9.541,0.658C28.098,24.212,20.39,23.802,19.486,28.359z"/>
<path fill="#45332C" d="M27.324,27.904c0,3.771-5.453,3.771-5.453,0C21.871,24.404,27.324,24.404,27.324,27.904z"/>
<path fill="#45332C" d="M19.486,28.329c0-4.589,9.541-4.589,9.541,0.724C27.664,24.693,20.85,24.693,19.486,28.329z"/>
<path fill="#F5F5F5" d="M37.2,26.988c0,0.942,1.362,0.942,1.362,0C38.563,26.113,37.2,26.113,37.2,26.988z"/>
<path fill="#F5F5F5" d="M23.739,26.796c0,0.942-1.361,0.942-1.361,0C22.378,25.92,23.739,25.92,23.739,26.796z"/>
<path fill="#80553C" d="M38.907,39.321c-1.281,1.45-2.082,4.018-6.813,4.018c-4.129,0-5.266-2.262-6.815-4.018H38.907z"/>
<path fill="#FFFFFF" d="M38.056,39.365c-2.804,2.873-9.085,2.912-11.926,0H38.056z"/>
<path fill="#80553C" d="M32.094,39.09c-2.67-1.17-2.69-0.046-6.815,0.231c5.208,0.583,8.422,0.583,13.629,0
	C34.785,39.044,34.764,37.92,32.094,39.09z"/>
<path fill="#946346" d="M44.121,24.24c-2.89-1.19-6.844-1.423-8.874-0.628c-0.429,0.168-0.415,1.192-0.037,1.09
	c2.911-0.792,6.263-0.854,9.021,0.104C44.6,24.937,44.555,24.419,44.121,24.24z"/>
<path fill="#946346" d="M19.96,24.242c2.889-1.19,6.843-1.423,8.875-0.63c0.429,0.168,0.415,1.194,0.036,1.09
	c-2.912-0.792-6.262-0.854-9.019,0.105C19.481,24.937,19.526,24.419,19.96,24.242z"/>
<path fill="#946346" d="M35.5,35.195c0,2.188-6.723,2.188-6.723,0C28.777,34.693,35.5,34.693,35.5,35.195z"/>
<path opacity="0.2" d="M13.752,21.491l-0.08,0.651c0,0-0.047,3.676,18.328,3.676s18.322-3.676,18.322-3.676l-0.109-0.598
	L13.752,21.491z"/>
<path fill="#014D87" d="M52.504,15.123c-4.316-3.639-4.807-8.915-6.553-9.201C35.08,4.138,34.709,2,32,2
	c-2.713,0-3.08,2.138-13.951,3.922c-1.744,0.286-2.236,5.563-6.555,9.201c-2.08,1.756,2.961,3.308,4.766,6.443
	c0.975,1.691,30.508,1.691,31.479,0C49.545,18.431,54.588,16.879,52.504,15.123z"/>
<path fill="#006DAE" d="M32,12.95c0,0-14.232,0-18.375,3.739v3.508H32h18.375v-3.508C46.232,12.95,32,12.95,32,12.95z"/>
<path fill="#302C3B" d="M32,18.525c-16.979,0-18.375,2.616-18.375,2.616s0,3.676,18.375,3.676s18.375-3.676,18.375-3.676
	S48.977,18.525,32,18.525z"/>
<path fill="#FFE12C" d="M32,17.524c0,0-11.213-0.205-18.375,2.022v1.595c0,0,2.971-1.929,18.375-1.929
	c15.408,0,18.375,1.929,18.375,1.929v-1.595C43.213,17.319,32,17.524,32,17.524z"/>
<path fill="#FFE12C" d="M36.045,7.031L34.85,5.6C33.291,6.677,32,5.354,32,5.354S30.707,6.677,29.152,5.6l-1.195,1.432
	c2.002,1.259-0.695,3.296-0.059,5.502c0.889,3.063,3.018,2.729,4.102,3.945c1.084-1.216,3.213-0.882,4.1-3.945
	C36.74,10.327,34.041,8.29,36.045,7.031z"/>
</svg>
