<?xml version="1.0" encoding="utf-8"?>
<!-- Generator: Adobe Illustrator 15.0.0, SVG Export Plug-In . SVG Version: 6.00 Build 0)  -->
<!DOCTYPE svg PUBLIC "-//W3C//DTD SVG 1.1//EN" "http://www.w3.org/Graphics/SVG/1.1/DTD/svg11.dtd">
<svg version="1.1" id="Layer_1" xmlns="http://www.w3.org/2000/svg" xmlns:xlink="http://www.w3.org/1999/xlink" x="0px" y="0px"
	 width="64px" height="64px" viewBox="0 0 64 64" enable-background="new 0 0 64 64" xml:space="preserve">
<path fill="#EA8800" d="M32,2C3.307,2,6.072,25,6.072,35.75h51.855C57.927,25,60.692,2,32,2z"/>
<path fill="#F5BC2C" d="M8.634,32.556c-9.107-1.178-3.174,17.106,3.958,12.064C15.896,42.28,12.896,33.108,8.634,32.556z"/>
<path fill="#F5BC2C" d="M55.366,32.556c-4.264,0.553-7.264,9.725-3.958,12.064C58.54,49.661,64.472,31.377,55.366,32.556z"/>
<path fill="#FDCA47" d="M55.069,30.977c0-15.338-9.059-11.925-23.069-11.925c-14.008,0-23.069-3.414-23.069,11.925
	c0,0,0.05,5.844,1.543,13.522C12.919,57.067,23.072,62,32,62c8.928,0,19.083-4.933,21.526-17.501
	C55.019,36.818,55.069,30.977,55.069,30.977z"/>
<path fill="#EA8800" d="M31.526,13.293C27.333,20.764,11.638,25.437,6.244,24.95C11.129,20.01,13.298,7.291,31.526,13.293z"/>
<path fill="#D67C00" d="M6.244,24.95c6.87-1.793,15.791-5.453,25.282-11.656C27.333,20.764,13.55,26.661,6.244,24.95z"/>
<path fill="#EA8800" d="M52.701,12.89c-5.931,8.899-28.136,14.463-35.767,13.884C23.844,20.89,26.913,5.741,52.701,12.89z"/>
<path fill="#D67C00" d="M16.934,26.774C35.177,21.703,52.701,12.89,52.701,12.89C46.771,21.789,30.242,28.063,16.934,26.774z"/>
<path fill="#EA8800" d="M53.563,10.847c7.109,11.579-11.396,16.326-19.043,15.86C41.377,22.188,45.977,10.485,53.563,10.847z"/>
<path fill="#D67C00" d="M34.521,26.707c9.195-4.219,23.21-5.081,19.043-15.86C60.673,22.426,42.628,27.751,34.521,26.707z"/>
<path fill="#F5F5F5" d="M50.499,36.763c-2.408,6.272-12.205,5.352-14,0.965C37.862,30.678,49.175,30.073,50.499,36.763z"/>
<path fill="#45332C" d="M38.999,36.094c0,5.532,8,5.532,8,0C46.999,30.958,38.999,30.958,38.999,36.094z"/>
<path fill="#45332C" d="M50.499,36.717c0-6.734-14-6.734-14,1.065C38.499,31.383,48.499,31.383,50.499,36.717z"/>
<path fill="#F5F5F5" d="M13.5,36.763c2.409,6.272,12.206,5.352,14,0.965C26.137,30.678,14.826,30.073,13.5,36.763z"/>
<path fill="#45332C" d="M25,36.094c0,5.532-8,5.532-8,0C17,30.959,25,30.959,25,36.094z"/>
<path fill="#45332C" d="M13.5,36.717c0-6.733,14-6.733,14,1.063C25.501,31.383,15.5,31.383,13.5,36.717z"/>
<path fill="#F5F5F5" d="M39.491,34.749c0,1.384,2,1.384,2,0C41.491,33.466,39.491,33.466,39.491,34.749z"/>
<path fill="#F5F5F5" d="M19.742,34.469c0,1.383-2,1.383-2,0C17.742,33.185,19.742,33.185,19.742,34.469z"/>
<path fill="#D99025" d="M32,50.581c-4.028-1.07-10,0.506-10,0.506c2.275,2.229,3.942,5.121,10,5.121c6.943,0,8.121-3.284,10-5.121
	C41.999,51.087,36.022,49.509,32,50.581z"/>
<path fill="#FFFFFF" d="M23.407,51.167c4.28,3.979,12.932,4.004,17.239,0C36.079,51.384,28.003,51.386,23.407,51.167z"/>
<path fill="#E6A400" d="M49.966,30.922c-4.297-1.771-10.179-2.116-13.199-0.936c-0.637,0.249-0.617,1.775-0.054,1.622
	c4.329-1.18,9.313-1.271,13.414,0.157C50.678,31.956,50.611,31.187,49.966,30.922z"/>
<path fill="#E6A400" d="M14.033,30.922c4.297-1.771,10.178-2.116,13.198-0.936c0.637,0.249,0.618,1.775,0.054,1.622
	c-4.33-1.18-9.314-1.271-13.414,0.157C13.321,31.956,13.387,31.187,14.033,30.922z"/>
<path fill="#E6A400" d="M36.999,45.803c0,3.254-10,3.254-10,0C27,45.057,36.999,45.057,36.999,45.803z"/>
</svg>
