<?xml version="1.0" encoding="utf-8"?>
<!-- Generator: Adobe Illustrator 15.0.0, SVG Export Plug-In . SVG Version: 6.00 Build 0)  -->
<!DOCTYPE svg PUBLIC "-//W3C//DTD SVG 1.1//EN" "http://www.w3.org/Graphics/SVG/1.1/DTD/svg11.dtd">
<svg version="1.1" id="Layer_1" xmlns="http://www.w3.org/2000/svg" xmlns:xlink="http://www.w3.org/1999/xlink" x="0px" y="0px"
	 width="64px" height="64px" viewBox="0 0 64 64" enable-background="new 0 0 64 64" xml:space="preserve">
<path fill="#018BC9" d="M43.693,35.967c-1.492-1.043-7.03-3.783-7.03-3.783h-9.275c0,0-5.546,2.746-7.045,3.785
	c-2.509,1.736-3.01,7.102-3.343,12.773L18,62h28l1-13.258C46.688,43.082,46.176,37.701,43.693,35.967z"/>
<path fill="#E6A400" d="M36.433,33.189c0-0.815,0-4.438,0-4.438h-8.864c0,0,0,3.568,0,4.438
	C27.569,36.781,36.433,36.781,36.433,33.189z"/>
<rect x="17" y="48.764" fill="#FDCA47" width="4.091" height="13.236"/>
<rect x="42.91" y="48.764" fill="#FDCA47" width="4.091" height="13.236"/>
<path fill="#EA8800" d="M32,2c-12.97,0-12.974,7.806-12.974,17.563h25.948C44.975,9.806,44.971,2,32,2z"/>
<g>
	<path fill="#F5BC2C" d="M21.603,23.358c1.405-1.309,0.129-6.441-1.683-6.75C16.048,15.948,18.57,26.18,21.603,23.358z"/>
</g>
<g>
	<path fill="#F5BC2C" d="M42.398,23.358c-1.404-1.309-0.129-6.441,1.683-6.75C47.952,15.948,45.432,26.179,42.398,23.358z"/>
</g>
<path fill="#FDCA47" d="M32,7.205c-13.55,0-8.091,1.569-11.708,9.528c0,0,0.025,3.65,0.783,7.566
	c0.977,5.048,6.657,8.923,10.925,8.923c4.268,0,9.949-3.875,10.925-8.923c0.758-3.916,0.783-7.566,0.783-7.566
	C40.092,8.774,45.553,7.205,32,7.205z"/>
<path fill="#F5F5F5" d="M41.628,17.883c-1.253,3.265-6.351,2.785-7.285,0.503C35.053,14.717,40.939,14.402,41.628,17.883z"/>
<path fill="#45332C" d="M35.644,17.535c0,2.879,4.163,2.879,4.163,0C39.807,14.862,35.644,14.862,35.644,17.535z"/>
<path fill="#45332C" d="M41.628,17.859c0-3.505-7.285-3.505-7.285,0.555C35.383,15.084,40.588,15.084,41.628,17.859z"/>
<path fill="#F5F5F5" d="M22.374,17.883c1.253,3.265,6.351,2.785,7.285,0.503C28.949,14.717,23.064,14.402,22.374,17.883z"/>
<path fill="#45332C" d="M28.358,17.535c0,2.879-4.163,2.879-4.163,0C24.195,14.863,28.358,14.863,28.358,17.535z"/>
<path fill="#45332C" d="M22.374,17.859c0-3.504,7.285-3.504,7.285,0.554C28.619,15.084,23.414,15.084,22.374,17.859z"/>
<path fill="#D99025" d="M32,26.114c-2.097-0.556-5.204,0.264-5.204,0.264c1.184,1.159,2.051,2.665,5.204,2.665
	c3.614,0,4.226-1.709,5.205-2.665C37.205,26.378,34.094,25.557,32,26.114z"/>
<path fill="#FFFFFF" d="M27.529,26.42c2.227,2.07,6.731,2.084,8.971,0C34.124,26.533,29.921,26.534,27.529,26.42z"/>
<path fill="#E6A400" d="M41.351,14.66c-2.236-0.922-5.298-1.101-6.868-0.487c-0.332,0.13-0.322,0.924-0.029,0.844
	c2.254-0.613,4.848-0.661,6.98,0.082C41.721,15.198,41.686,14.798,41.351,14.66z"/>
<path fill="#E6A400" d="M22.651,14.66c2.235-0.922,5.296-1.101,6.868-0.487c0.332,0.13,0.322,0.924,0.027,0.844
	c-2.253-0.613-4.847-0.661-6.979,0.082C22.281,15.198,22.315,14.798,22.651,14.66z"/>
<path fill="#D67C00" d="M38.26,26.951c-2.441-2.567-10.029-2.589-12.491,0C29.079,26.772,34.93,26.771,38.26,26.951z"/>
<path fill="#EA8800" d="M38.26,26.951c-3.102-3.262-9.37-3.282-12.491,0C26.31,26.269,37.563,26.078,38.26,26.951z"/>
<path fill="#EA8800" d="M42.361,6.011c4.833,6.627-17.6,4.897-22.266,3.93C20.095,9.94,26.949,0.595,42.361,6.011z"/>
<path fill="#D67C00" d="M20.095,9.94c6.701,1.41,27.19,1.216,20.743-5.773C51.352,12.555,25.769,13.303,20.095,9.94z"/>
<path fill="#E6A400" d="M34.604,22.877c0,1.693-5.206,1.693-5.206,0C29.398,22.489,34.604,22.489,34.604,22.877z"/>
<path fill="#4ABDFF" d="M54.387,61.996c-1.197-0.834-5.648-3.027-5.648-3.027h-7.451c0,0-4.455,2.197-5.658,3.029L54.387,61.996z"/>
<path fill="#E6A400" d="M48.539,59.076c0-0.654,0-3.551,0-3.551h-7.09c0,0,0,2.854,0,3.551
	C41.449,61.949,48.539,61.949,48.539,59.076z"/>
<path fill="#EA8800" d="M45,35.818c-11.477,0-10.371,9.201-10.371,13.5h20.742C55.371,45.02,56.479,35.818,45,35.818z"/>
<path fill="#F5BC2C" d="M35.822,48.041c-3.579-0.471-1.248,6.842,1.555,4.826C38.674,51.932,37.496,48.262,35.822,48.041z"/>
<path fill="#F5BC2C" d="M54.18,48.041c-1.674,0.221-2.854,3.891-1.555,4.826C55.428,54.881,57.758,47.57,54.18,48.041z"/>
<path fill="#FDCA47" d="M54.229,47.41c0-6.135-3.623-4.77-9.227-4.77s-9.229-1.365-9.229,4.77c0,0,0.02,2.338,0.617,5.41
	c0.979,5.025,5.039,6.996,8.609,6.996c3.572,0,7.635-1.971,8.611-6.996C54.209,49.746,54.229,47.41,54.229,47.41z"/>
<path fill="#EA8800" d="M44.811,40.338c-1.676,2.988-7.955,4.855-10.113,4.662C36.652,43.023,37.52,37.936,44.811,40.338z"/>
<path fill="#D67C00" d="M34.697,45c2.748-0.719,6.316-2.182,10.113-4.662C43.135,43.326,37.621,45.684,34.697,45z"/>
<path fill="#EA8800" d="M53.281,40.176c-2.371,3.559-11.254,5.785-14.307,5.553C41.738,43.375,42.967,37.316,53.281,40.176z"/>
<path fill="#D67C00" d="M38.975,45.729c7.297-2.027,14.307-5.553,14.307-5.553C50.91,43.734,44.297,46.244,38.975,45.729z"/>
<path fill="#EA8800" d="M53.627,39.357c2.844,4.633-4.559,6.531-7.617,6.346C48.752,43.895,50.592,39.213,53.627,39.357z"/>
<path fill="#D67C00" d="M46.01,45.703c3.678-1.688,9.283-2.033,7.617-6.346C56.471,43.99,49.252,46.119,46.01,45.703z"/>
<path fill="#F5F5F5" d="M52.4,49.725c-0.963,2.51-4.881,2.141-5.6,0.387C47.346,47.291,51.871,47.049,52.4,49.725z"/>
<path fill="#45332C" d="M47.801,49.457c0,2.213,3.199,2.213,3.199,0C51,47.402,47.801,47.402,47.801,49.457z"/>
<path fill="#45332C" d="M52.4,49.705c0-2.693-5.6-2.693-5.6,0.428C47.602,47.572,51.602,47.572,52.4,49.705z"/>
<path fill="#F5F5F5" d="M37.602,49.725c0.963,2.51,4.881,2.141,5.6,0.387C42.656,47.291,38.131,47.049,37.602,49.725z"/>
<path fill="#45332C" d="M42.201,49.457c0,2.213-3.201,2.213-3.201,0C39,47.402,42.201,47.402,42.201,49.457z"/>
<path fill="#45332C" d="M37.602,49.705c0-2.691,5.6-2.691,5.6,0.426C42.402,47.572,38.4,47.572,37.602,49.705z"/>
<path fill="#D99025" d="M45,55.25c-1.611-0.428-4,0.203-4,0.203c0.91,0.891,1.578,2.047,4,2.047c2.777,0,3.25-1.313,4-2.047
	C49,55.453,46.609,54.822,45,55.25z"/>
<g>
	<path fill="#FFFFFF" d="M41.564,55.484c1.711,1.592,5.172,1.602,6.895,0C46.633,55.572,43.402,55.572,41.564,55.484z"/>
</g>
<path fill="#E6A400" d="M52.188,47.389c-1.719-0.709-4.072-0.848-5.279-0.375c-0.256,0.1-0.248,0.711-0.021,0.65
	c1.732-0.473,3.725-0.51,5.365,0.061C52.473,47.803,52.445,47.494,52.188,47.389z"/>
<path fill="#E6A400" d="M37.814,47.389c1.719-0.709,4.07-0.848,5.279-0.375c0.254,0.1,0.246,0.711,0.021,0.65
	c-1.732-0.473-3.727-0.51-5.365,0.061C37.529,47.803,37.557,47.494,37.814,47.389z"/>
<path fill="#E6A400" d="M47,53.34c0,1.301-4,1.301-4,0C43,53.043,47,53.043,47,53.34z"/>
<path fill="#E32B56" d="M29.386,61.996c-1.199-0.834-5.648-3.027-5.648-3.027h-7.451c0,0-4.455,2.197-5.66,3.029L29.386,61.996z"/>
<path fill="#E6A400" d="M23.539,59.076c0-0.654,0-3.551,0-3.551h-7.092c0,0,0,2.854,0,3.551
	C16.447,61.949,23.539,61.949,23.539,59.076z"/>
<path fill="#EA8800" d="M11.807,49.396c-7.722,4.557-0.933,8.705-3.131,10.67C12.947,62.719,23.404,58.148,11.807,49.396z"/>
<path fill="#D67C00" d="M9.501,51.129c1.896,7.275,5.795,7.525,5.469,8.842C18.597,58.072,18.63,51.939,9.501,51.129z"/>
<path fill="#EA8800" d="M28.191,49.396c7.723,4.557,0.934,8.705,3.133,10.67C27.052,62.719,16.595,58.148,28.191,49.396z"/>
<path fill="#D67C00" d="M30.5,51.129c-1.896,7.275-5.797,7.525-5.471,8.842C21.402,58.072,21.369,51.939,30.5,51.129z"/>
<path fill="#EA8800" d="M9.436,49.213h21.117C33.625,32.688,6.363,32.688,9.436,49.213z"/>
<path fill="#D67C00" d="M9.41,49.01c0,0,12.019,4.486,20.353-0.713c-1.684,0.318-4.416-6.125-17.214-6.607
	C12.08,49.01,9.83,47.023,9.41,49.01z"/>
<path fill="#CFD8DD" d="M29.562,48.035c0.895-12.365-20.035-12.365-19.139,0C11.203,37.65,28.781,37.65,29.562,48.035z"/>
<path fill="#FFFFFF" d="M29.562,47.635c0.895-12.365-20.035-12.365-19.139,0C11.203,37.25,28.781,37.25,29.562,47.635z"/>
<g>
	<path fill="#F5BC2C" d="M10.646,48.115c-3.643-0.471-1.269,6.84,1.584,4.826C13.552,52.006,12.352,48.336,10.646,48.115z"/>
	<path fill="#F5BC2C" d="M29.339,48.115c-1.705,0.221-2.904,3.891-1.582,4.826C30.609,54.955,32.982,47.645,29.339,48.115z"/>
</g>
<path fill="#FDCA47" d="M29.222,48.137c-3.492-0.992-7.959-5.742-16.449-5.168c0.148,1.867-0.341,3.984-1.98,5.176
	c0,0-0.008,1.678,0.591,4.748c0.978,5.025,5.04,6.998,8.61,6.998s7.633-1.973,8.609-6.998C29.201,49.82,29.222,48.137,29.222,48.137
	z"/>
<g>
	<path fill="#F5F5F5" d="M27.394,49.799c-0.963,2.51-4.883,2.141-5.602,0.385C22.339,47.363,26.865,47.123,27.394,49.799z"/>
	<path fill="#45332C" d="M22.792,49.531c0,2.213,3.201,2.213,3.201,0C25.994,47.477,22.792,47.477,22.792,49.531z"/>
	<path fill="#45332C" d="M27.394,49.779c0-2.693-5.602-2.693-5.602,0.428C22.593,47.646,26.593,47.646,27.394,49.779z"/>
	<path fill="#F5F5F5" d="M12.594,49.799c0.964,2.51,4.882,2.141,5.599,0.385C17.648,47.363,13.125,47.123,12.594,49.799z"/>
	<path fill="#45332C" d="M17.193,49.531c0,2.213-3.199,2.213-3.199,0C13.994,47.477,17.193,47.477,17.193,49.531z"/>
	<path fill="#45332C" d="M12.594,49.779c0-2.693,5.599-2.693,5.599,0.426C17.394,47.646,13.394,47.646,12.594,49.779z"/>
</g>
<g>
	<path fill="#D99025" d="M19.994,55.324c-1.611-0.428-4,0.201-4,0.201c0.91,0.893,1.576,2.049,4,2.049c2.777,0,3.248-1.313,4-2.049
		C23.994,55.525,21.603,54.895,19.994,55.324z"/>
	<g>
		<path fill="#FFFFFF" d="M16.556,55.559c1.713,1.59,5.174,1.602,6.896,0C21.626,55.646,18.396,55.646,16.556,55.559z"/>
	</g>
</g>
<g>
	<path fill="#E6A400" d="M27.181,47.463c-1.721-0.709-4.072-0.848-5.279-0.375c-0.256,0.1-0.248,0.709-0.023,0.648
		c1.732-0.473,3.727-0.508,5.367,0.063C27.464,47.877,27.439,47.568,27.181,47.463z"/>
	<path fill="#E6A400" d="M12.808,47.463c1.717-0.709,4.07-0.848,5.279-0.375c0.254,0.1,0.246,0.709,0.021,0.648
		c-1.732-0.473-3.727-0.508-5.365,0.063C12.521,47.877,12.549,47.568,12.808,47.463z"/>
</g>
<path fill="#E6A400" d="M21.994,53.414c0,1.301-4,1.301-4,0C17.994,53.117,21.994,53.117,21.994,53.414z"/>
</svg>
