<?xml version="1.0" encoding="utf-8"?>
<!-- Generator: Adobe Illustrator 15.0.0, SVG Export Plug-In . SVG Version: 6.00 Build 0)  -->
<!DOCTYPE svg PUBLIC "-//W3C//DTD SVG 1.1//EN" "http://www.w3.org/Graphics/SVG/1.1/DTD/svg11.dtd">
<svg version="1.1" id="Layer_1" xmlns="http://www.w3.org/2000/svg" xmlns:xlink="http://www.w3.org/1999/xlink" x="0px" y="0px"
	 width="64px" height="64px" viewBox="0 0 64 64" enable-background="new 0 0 64 64" xml:space="preserve">
<ellipse fill="#B00505" cx="32" cy="31.875" rx="20.25" ry="10.125"/>
<path fill="#C8A35D" d="M41.247,14.154c-4.708-5.776-28.052-3.461-28.052,13.573c0.098,9.151,1.659,29.938,18.757,29.938
	c17.095,0,18.657-20.698,18.854-29.938C50.807,22.053,47.387,15.345,41.247,14.154z"/>
<path fill="#A3864C" d="M13.468,33.317c0.841,10.099,4.344,24.349,18.5,24.349c14.202,0,17.683-14.282,18.566-24.414
	c-0.464-4.665-3.335-10.691-9.562-17.795C28.211,23.406,14.425,22.168,13.468,33.317z"/>
<path fill="#E81C27" d="M13.904,51.871C16.102,50.377,26,47,26,47l6,2l6-2c0,0,9.965,3.369,12.15,4.867C53.33,54.041,54,62,54,62H10
	C10,62,10.713,54.035,13.904,51.871"/>
<polygon fill="#FFE12C" points="15.264,62 48.74,62 49.5,58 14.668,58 "/>
<rect x="26" y="42" fill="#BF8D69" width="12" height="9.658"/>
<path fill="#302C3B" d="M26,49.17c1.277,2.963,6,7.135,6,7.135s4.725-4.172,6-7.135C34.111,50.684,29.891,50.684,26,49.17z"/>
<path fill="#B00505" d="M15.264,62c0.467-2.006-0.082-5.057-0.668-6.736C14.051,53.699,14.256,60.896,15.264,62"/>
<path fill="#B00505" d="M49.406,55.264c-0.584,1.68-1.137,4.73-0.666,6.736C49.744,60.896,49.949,53.699,49.406,55.264"/>
<rect x="32.002" y="54.127" fill="#302C3B" width="0.752" height="7.873"/>
<path fill="#B00505" d="M32.002,62c0,0-2.629-11.346-9.129-9.035c0,0-0.258-5.805,3.02-8.869c1.014-0.949-1.098,4.971,6.107,10.033
	L32.002,62"/>
<path fill="#B00505" d="M32.002,58c0,0,2.383-5.559,9.127-5.035c0,0,0.258-5.805-3.018-8.869c-1.016-0.949,1.406,5.637-6.111,10.033
	L32.002,62"/>
<path fill="#EBBEA0" d="M45.795,24.855c-2.063-4.864-5.846-10.141-5.846-10.141c-13.84,8.317-25.539,4.143-22.291,19.904
	c1.542,7.479,10.794,13.271,14.439,13.271c3.642,0,13.127-5.749,14.434-13.271C47.288,30.262,46.756,27.121,45.795,24.855z"/>
<path fill="#F5F5F5" d="M44.75,28.107c-1.648,4.291-8.35,3.66-9.577,0.66C36.105,23.945,43.846,23.533,44.75,28.107z"/>
<path fill="#45332C" d="M36.883,27.651c0,3.784,5.473,3.784,5.473,0C42.355,24.138,36.883,24.138,36.883,27.651z"/>
<path fill="#45332C" d="M44.75,28.077c0-4.607-9.577-4.607-9.577,0.729C36.542,24.428,43.382,24.428,44.75,28.077z"/>
<path fill="#F5F5F5" d="M19.441,28.107c1.646,4.291,8.35,3.66,9.576,0.66C28.086,23.945,20.348,23.533,19.441,28.107z"/>
<path fill="#45332C" d="M27.307,27.651c0,3.784-5.473,3.784-5.473,0C21.834,24.138,27.307,24.138,27.307,27.651z"/>
<path fill="#45332C" d="M19.441,28.077c0-4.606,9.576-4.606,9.576,0.727C27.65,24.428,20.809,24.428,19.441,28.077z"/>
<path fill="#F5F5F5" d="M37.221,26.731c0,0.946,1.368,0.946,1.368,0C38.589,25.854,37.221,25.854,37.221,26.731z"/>
<path fill="#F5F5F5" d="M23.711,26.539c0,0.945-1.368,0.945-1.368,0C22.343,25.66,23.711,25.66,23.711,26.539z"/>
<path fill="#BF8C6B" d="M38.934,39.111c-1.285,1.455-2.089,4.032-6.838,4.032c-4.145,0-5.285-2.27-6.842-4.032H38.934z"/>
<path fill="#FFFFFF" d="M38.08,39.156c-2.814,2.883-9.119,2.922-11.971,0H38.08z"/>
<path fill="#BF8C6B" d="M32.096,38.879c-2.682-1.175-2.701-0.047-6.842,0.232c5.229,0.585,8.455,0.585,13.68,0
	C34.797,38.832,34.775,37.704,32.096,38.879z"/>
<path fill="#BF8D69" d="M44.168,23.974c-2.9-1.196-6.869-1.429-8.908-0.631c-0.43,0.168-0.416,1.196-0.037,1.094
	c2.923-0.795,6.287-0.857,9.055,0.104C44.649,24.672,44.604,24.152,44.168,23.974z"/>
<path fill="#BF8D69" d="M19.916,23.975c2.9-1.195,6.869-1.429,8.908-0.632c0.431,0.168,0.418,1.198,0.037,1.094
	c-2.924-0.795-6.287-0.857-9.053,0.105C19.436,24.672,19.48,24.152,19.916,23.975z"/>
<path fill="#BF8D69" d="M35.514,34.97c0,2.196-6.748,2.196-6.748,0C28.766,34.466,35.514,34.466,35.514,34.97z"/>
<path fill="#E81C27" d="M53.088,22.695c0,5.715,0.463-3.58-21.084-3.58c-21.545,0.002-21.082,9.295-21.082,3.58
	C10.922,11.264,20.361,2,32.004,2C43.648,2,53.088,11.264,53.088,22.695z"/>
<path fill="#B00505" d="M53.088,22.695c0-6.885-3.424-12.984-8.691-16.746c6.648,8.172-0.561,14.395-0.561,14.395
	C53.348,22.658,53.088,27.064,53.088,22.695z"/>
<rect x="27.213" y="2" fill="#B00505" width="9.584" height="16.199"/>
<path fill-rule="evenodd" clip-rule="evenodd" fill="#F46C60" d="M15.225,13.861c-0.273,1.904,6.504-4.939,9.498-8.156
	C26.652,3.637,16.305,6.369,15.225,13.861z"/>
<path fill="#B00505" d="M32.006,15.65c-9.43,0-17.535,2.998-21.084,7.291c-0.059,0.641,0,0.998,0,0.998S20.9,20.75,32.016,20.75
	s17.943-0.723,15.65-1.85C43.559,16.885,38.057,15.65,32.006,15.65z"/>
<path opacity="0.2" d="M32.006,17.65c-29.432,0-20.115,16.826-20.115,15.225c0-5.594,9.01-10.125,20.125-10.125
	s20.125,4.531,20.125,10.125C52.141,34.465,61.436,17.65,32.006,17.65z"/>
<path fill="#E81C27" d="M32,16.613c-12.701,0-23,5.438-23,12.15c0,2.846,1.859,5.463,4.963,7.533
	c-1.318-1.348-2.078-2.857-2.078-4.459c0-5.594,9.01-10.125,20.125-10.125s20.125,4.531,20.125,10.125
	c0,1.588-0.748,3.086-2.043,4.424C53.162,34.197,55,31.594,55,28.764C55,22.051,44.703,16.613,32,16.613z"/>
<path fill="#FFE12C" d="M36.188,6.6l-0.6-1.785L32.004,4.1l-3.582,0.715l-0.6,1.785c1.217,1.451,0,1.787,0,3.193
	c0,2.838,4.182,4.307,4.182,4.307s4.184-1.469,4.184-4.307C36.188,8.387,34.971,8.051,36.188,6.6"/>
<polygon fill="#AB5C10" points="29.941,11.32 29.197,10.607 34.068,5.949 34.813,6.66 "/>
<polygon fill="#AB5C10" points="29.197,6.66 29.941,5.949 34.813,10.607 34.068,11.32 "/>
</svg>
