<?xml version="1.0" encoding="utf-8"?>
<!-- Generator: Adobe Illustrator 15.0.0, SVG Export Plug-In . SVG Version: 6.00 Build 0)  -->
<!DOCTYPE svg PUBLIC "-//W3C//DTD SVG 1.1//EN" "http://www.w3.org/Graphics/SVG/1.1/DTD/svg11.dtd">
<svg version="1.1" id="Layer_1" xmlns="http://www.w3.org/2000/svg" xmlns:xlink="http://www.w3.org/1999/xlink" x="0px" y="0px"
	 width="64px" height="64px" viewBox="0 0 64 64" enable-background="new 0 0 64 64" xml:space="preserve">
<path fill="#EA8800" d="M24.163,4.44C20.517-0.521,2.429,1.468,2.429,16.101c0.076,7.863,1.286,25.721,14.534,25.721
	c13.244,0,14.456-17.783,14.607-25.721C31.57,11.226,28.922,5.464,24.163,4.44z"/>
<path fill="#D67C00" d="M2.64,20.903c0.651,8.676,3.365,20.918,14.335,20.918c11.004,0,13.701-12.27,14.387-20.975
	c-0.361-4.008-2.586-9.184-7.41-15.285C14.063,12.39,3.381,11.325,2.64,20.903z"/>
<path fill="#8E3ED6" d="M24.691,34.966c-1.491-1.043-3.029-2.784-3.029-2.784h-9.275c0,0-5.545,2.747-7.045,3.786
	C2.834,37.704,2.332,43.069,2,48.741l1,13.26h26C29,62.001,27.175,36.7,24.691,34.966z"/>
<path fill="#E6A400" d="M21.432,33.188c0-0.817,0-4.438,0-4.438h-8.863c0,0,0,3.568,0,4.438
	C12.568,36.78,21.432,36.78,21.432,33.188z"/>
<rect x="2" y="48.763" fill="#FDCA47" width="4.091" height="13.238"/>
<path fill="#FDCA47" d="M27.461,15.858c-1.563-3.689-4.433-7.691-4.433-7.691c-10.496,6.309-19.369,3.143-16.905,15.1
	c1.17,5.672,8.186,10.066,10.95,10.066c2.761,0,9.955-4.359,10.946-10.066C28.593,19.96,28.189,17.577,27.461,15.858z"/>
<path fill="#F5F5F5" d="M26.668,18.325c-1.249,3.256-6.332,2.779-7.263,0.502C20.113,15.169,25.981,14.856,26.668,18.325z"/>
<path fill="#45332C" d="M20.702,17.979c0,2.871,4.15,2.871,4.15,0C24.853,15.315,20.702,15.315,20.702,17.979z"/>
<path fill="#45332C" d="M26.668,18.302c0-3.494-7.263-3.494-7.263,0.555C20.443,15.534,25.63,15.534,26.668,18.302z"/>
<path fill="#F5F5F5" d="M7.475,18.325c1.249,3.256,6.333,2.779,7.263,0.502C14.031,15.169,8.162,14.856,7.475,18.325z"/>
<path fill="#45332C" d="M13.439,17.979c0,2.871-4.149,2.871-4.149,0C9.29,15.315,13.439,15.315,13.439,17.979z"/>
<path fill="#45332C" d="M7.475,18.302c0-3.492,7.263-3.492,7.263,0.553C13.7,15.534,8.513,15.534,7.475,18.302z"/>
<path fill="#D99025" d="M22.258,26.673c-0.976,1.105-1.585,3.061-5.187,3.061c-3.143,0-4.007-1.723-5.188-3.061H22.258z"/>
<path fill="#FFFFFF" d="M21.61,26.708c-2.135,2.186-6.916,2.217-9.078,0H21.61z"/>
<path fill="#D99025" d="M17.071,26.497c-2.031-0.891-2.048-0.035-5.188,0.176c3.964,0.445,6.411,0.445,10.374,0
	C19.12,26.462,19.104,25.606,17.071,26.497z"/>
<path fill="#E6A400" d="M26.227,15.188c-2.198-0.906-5.21-1.082-6.755-0.477c-0.325,0.127-0.315,0.908-0.028,0.83
	c2.217-0.604,4.768-0.652,6.867,0.08C26.592,15.72,26.558,15.327,26.227,15.188z"/>
<path fill="#E6A400" d="M7.836,15.19c2.198-0.906,5.209-1.084,6.755-0.479c0.327,0.127,0.316,0.91,0.027,0.83
	c-2.217-0.604-4.767-0.652-6.864,0.08C7.471,15.72,7.506,15.327,7.836,15.19z"/>
<path fill="#E6A400" d="M19.665,23.532c0,1.666-5.118,1.666-5.118,0C14.547,23.149,19.665,23.149,19.665,23.532z"/>
<path fill="#018BC9" d="M58.691,35.966c-1.491-1.043-7.029-3.784-7.029-3.784h-9.275c0,0-3.408,1.737-4.045,2.786
	C34.81,40.79,35,62.001,35,62.001h26l1-13.26C61.688,43.081,61.175,37.7,58.691,35.966z"/>
<path fill="#E6A400" d="M51.432,33.188c0-0.817,0-4.438,0-4.438h-8.863c0,0,0,3.568,0,4.438
	C42.568,36.78,51.432,36.78,51.432,33.188z"/>
<rect x="57.909" y="48.763" fill="#FDCA47" width="4.091" height="13.238"/>
<path fill="#EA8800" d="M47,1.999c-12.971,0-12.974,7.805-12.974,17.563h25.946C59.973,9.804,59.969,1.999,47,1.999z"/>
<g>
	<path fill="#F5BC2C" d="M36.602,23.356c1.406-1.309,0.13-6.441-1.682-6.75C31.048,15.946,33.569,26.179,36.602,23.356z"/>
</g>
<g>
	<path fill="#F5BC2C" d="M57.397,23.356c-1.405-1.309-0.13-6.441,1.683-6.75C62.951,15.946,60.43,26.177,57.397,23.356z"/>
</g>
<path fill="#FDCA47" d="M47,7.204c-13.551,0-8.091,1.568-11.708,9.527c0,0,0.025,3.65,0.783,7.566
	c0.977,5.049,6.657,8.924,10.925,8.924s9.948-3.875,10.925-8.924c0.758-3.916,0.783-7.566,0.783-7.566
	C55.091,8.772,60.551,7.204,47,7.204z"/>
<path fill="#F5F5F5" d="M56.627,17.882c-1.253,3.264-6.352,2.785-7.285,0.502C50.051,14.716,55.938,14.401,56.627,17.882z"/>
<path fill="#45332C" d="M50.643,17.534c0,2.879,4.163,2.879,4.163,0C54.806,14.86,50.643,14.86,50.643,17.534z"/>
<path fill="#45332C" d="M56.627,17.858c0-3.506-7.285-3.506-7.285,0.555C50.382,15.083,55.586,15.083,56.627,17.858z"/>
<path fill="#F5F5F5" d="M37.373,17.882c1.253,3.264,6.351,2.785,7.285,0.502C43.948,14.716,38.063,14.401,37.373,17.882z"/>
<path fill="#45332C" d="M43.357,17.534c0,2.879-4.163,2.879-4.163,0C39.194,14.862,43.357,14.862,43.357,17.534z"/>
<path fill="#45332C" d="M37.373,17.858c0-3.504,7.285-3.504,7.285,0.553C43.618,15.083,38.413,15.083,37.373,17.858z"/>
<path fill="#D99025" d="M47,26.112c-2.097-0.555-5.204,0.264-5.204,0.264c1.184,1.16,2.051,2.666,5.204,2.666
	c3.613,0,4.226-1.709,5.203-2.666C52.203,26.376,49.093,25.556,47,26.112z"/>
<path fill="#FFFFFF" d="M42.527,26.419c2.228,2.07,6.73,2.084,8.972,0C49.123,26.532,44.92,26.532,42.527,26.419z"/>
<path fill="#E6A400" d="M56.35,14.659c-2.236-0.922-5.298-1.102-6.869-0.488c-0.332,0.131-0.321,0.924-0.028,0.844
	c2.253-0.613,4.848-0.66,6.98,0.082C56.72,15.196,56.685,14.796,56.35,14.659z"/>
<path fill="#E6A400" d="M37.65,14.659c2.235-0.922,5.296-1.102,6.868-0.488c0.331,0.131,0.321,0.924,0.027,0.844
	c-2.253-0.613-4.847-0.66-6.979,0.082C37.279,15.196,37.314,14.796,37.65,14.659z"/>
<path fill="#D67C00" d="M53.258,26.95c-2.44-2.568-10.027-2.59-12.489,0C44.078,26.771,49.928,26.771,53.258,26.95z"/>
<path fill="#EA8800" d="M53.258,26.95c-3.101-3.262-9.369-3.283-12.489,0C41.31,26.267,52.561,26.077,53.258,26.95z"/>
<path fill="#EA8800" d="M57.36,6.009c4.833,6.627-17.6,4.898-22.266,3.93C35.095,9.938,41.947,0.593,57.36,6.009z"/>
<path fill="#D67C00" d="M35.095,9.938c6.701,1.41,27.189,1.217,20.741-5.773C66.35,12.554,40.769,13.302,35.095,9.938z"/>
<path fill="#E6A400" d="M49.602,22.876c0,1.693-5.204,1.693-5.204,0C44.397,22.487,49.602,22.487,49.602,22.876z"/>
<path fill="#E32B56" d="M53.387,61.999c-1.198-0.834-5.647-3.027-5.647-3.027h-7.451c0,0-4.455,2.197-5.66,3.029L53.387,61.999z"/>
<path fill="#E6A400" d="M47.539,59.079c0-0.654,0-3.551,0-3.551h-7.091c0,0,0,2.854,0,3.551
	C40.448,61.952,47.539,61.952,47.539,59.079z"/>
<path fill="#EA8800" d="M35.808,49.397c-7.722,4.559-0.933,8.707-3.131,10.672C36.948,62.722,47.404,58.151,35.808,49.397z"/>
<path fill="#D67C00" d="M33.502,51.13c1.896,7.277,5.796,7.527,5.47,8.844C42.599,58.075,42.632,51.94,33.502,51.13z"/>
<path fill="#EA8800" d="M52.192,49.397c7.723,4.559,0.934,8.707,3.133,10.672C51.054,62.722,40.597,58.151,52.192,49.397z"/>
<path fill="#D67C00" d="M54.5,51.13c-1.896,7.277-5.796,7.527-5.471,8.844C45.403,58.075,45.37,51.94,54.5,51.13z"/>
<path fill="#EA8800" d="M33.437,49.214h21.116C57.626,32.688,30.364,32.688,33.437,49.214z"/>
<path fill="#D67C00" d="M33.411,49.011c0,0,12.02,4.486,20.353-0.713c-1.683,0.318-4.416-6.125-17.214-6.607
	C36.081,49.011,33.831,47.024,33.411,49.011z"/>
<path fill="#CFD8DD" d="M53.563,48.036c0.896-12.365-20.034-12.365-19.139,0C35.204,37.651,52.782,37.651,53.563,48.036z"/>
<path fill="#FFFFFF" d="M53.563,47.636c0.896-12.365-20.034-12.365-19.139,0C35.204,37.251,52.782,37.251,53.563,47.636z"/>
<path fill="#F5BC2C" d="M34.647,48.116c-3.643-0.471-1.269,6.842,1.584,4.826C37.553,52.007,36.353,48.337,34.647,48.116z"/>
<path fill="#F5BC2C" d="M53.341,48.116c-1.705,0.221-2.905,3.891-1.583,4.826C54.61,54.958,56.983,47.646,53.341,48.116z"/>
<path fill="#FDCA47" d="M53.223,48.138c-3.491-0.992-7.958-5.742-16.448-5.168c0.148,1.867-0.342,3.984-1.98,5.176
	c0,0-0.008,1.678,0.591,4.748c0.978,5.027,5.039,7,8.609,7c3.571,0,7.634-1.973,8.61-7C53.202,49.821,53.223,48.138,53.223,48.138z"
	/>
<path fill="#F5F5F5" d="M51.395,49.8c-0.963,2.51-4.882,2.141-5.601,0.385C46.34,47.364,50.865,47.124,51.395,49.8z"/>
<path fill="#45332C" d="M46.794,49.532c0,2.213,3.201,2.213,3.201,0C49.995,47.478,46.794,47.478,46.794,49.532z"/>
<path fill="#45332C" d="M51.395,49.78c0-2.693-5.601-2.693-5.601,0.428C46.595,47.647,50.595,47.647,51.395,49.78z"/>
<path fill="#F5F5F5" d="M36.595,49.8c0.964,2.51,4.883,2.141,5.6,0.385C41.649,47.364,37.125,47.124,36.595,49.8z"/>
<path fill="#45332C" d="M41.194,49.532c0,2.213-3.199,2.213-3.199,0C37.995,47.478,41.194,47.478,41.194,49.532z"/>
<path fill="#45332C" d="M36.595,49.78c0-2.693,5.6-2.693,5.6,0.426C41.396,47.647,37.395,47.647,36.595,49.78z"/>
<path fill="#D99025" d="M43.995,55.327c-1.611-0.428-4,0.201-4,0.201c0.91,0.893,1.576,2.049,4,2.049c2.777,0,3.248-1.313,4-2.049
	C47.995,55.528,45.604,54.897,43.995,55.327z"/>
<g>
	<path fill="#FFFFFF" d="M40.558,55.562c1.712,1.59,5.173,1.602,6.896,0C45.627,55.649,42.396,55.649,40.558,55.562z"/>
</g>
<path fill="#E6A400" d="M51.182,47.464c-1.72-0.709-4.071-0.848-5.279-0.375c-0.256,0.1-0.247,0.709-0.022,0.648
	c1.732-0.473,3.727-0.508,5.366,0.063C51.466,47.878,51.439,47.569,51.182,47.464z"/>
<path fill="#E6A400" d="M36.809,47.464c1.718-0.709,4.071-0.848,5.279-0.375c0.255,0.1,0.247,0.709,0.021,0.648
	c-1.731-0.473-3.726-0.508-5.365,0.063C36.522,47.878,36.55,47.569,36.809,47.464z"/>
<path fill="#E6A400" d="M45.995,53.415c0,1.303-4,1.303-4,0C41.995,53.118,45.995,53.118,45.995,53.415z"/>
<path fill="#E32B56" d="M29.386,61.999c-1.198-0.834-5.647-3.027-5.647-3.027h-7.451c0,0-4.455,2.197-5.66,3.029L29.386,61.999z"/>
<path fill="#E6A400" d="M23.538,59.079c0-0.654,0-3.551,0-3.551h-7.091c0,0,0,2.854,0,3.551
	C16.447,61.952,23.538,61.952,23.538,59.079z"/>
<path fill="#EA8800" d="M11.807,49.397c-7.722,4.559-0.933,8.707-3.131,10.672C12.947,62.722,23.403,58.151,11.807,49.397z"/>
<path fill="#D67C00" d="M9.501,51.13c1.896,7.277,5.796,7.527,5.47,8.844C18.598,58.075,18.631,51.94,9.501,51.13z"/>
<path fill="#EA8800" d="M28.191,49.397c7.723,4.559,0.934,8.707,3.133,10.672C27.053,62.722,16.596,58.151,28.191,49.397z"/>
<path fill="#D67C00" d="M30.499,51.13c-1.896,7.277-5.796,7.527-5.471,8.844C21.402,58.075,21.369,51.94,30.499,51.13z"/>
<path fill="#EA8800" d="M9.436,49.214h21.116C33.625,32.688,6.363,32.688,9.436,49.214z"/>
<path fill="#D67C00" d="M9.41,49.011c0,0,12.02,4.486,20.353-0.713c-1.683,0.318-4.416-6.125-17.214-6.607
	C12.08,49.011,9.83,47.024,9.41,49.011z"/>
<path fill="#CFD8DD" d="M29.562,48.036c0.896-12.365-20.034-12.365-19.139,0C11.203,37.651,28.781,37.651,29.562,48.036z"/>
<path fill="#FFFFFF" d="M29.562,47.636c0.896-12.365-20.034-12.365-19.139,0C11.203,37.251,28.781,37.251,29.562,47.636z"/>
<path fill="#F5BC2C" d="M10.646,48.116c-3.643-0.471-1.269,6.842,1.584,4.826C13.552,52.007,12.352,48.337,10.646,48.116z"/>
<path fill="#F5BC2C" d="M29.34,48.116c-1.705,0.221-2.905,3.891-1.583,4.826C30.609,54.958,32.982,47.646,29.34,48.116z"/>
<path fill="#FDCA47" d="M29.222,48.138c-3.491-0.992-7.958-5.742-16.448-5.168c0.148,1.867-0.342,3.984-1.98,5.176
	c0,0-0.008,1.678,0.591,4.748c0.978,5.027,5.039,7,8.609,7c3.571,0,7.634-1.973,8.61-7C29.201,49.821,29.222,48.138,29.222,48.138z"
	/>
<path fill="#F5F5F5" d="M27.394,49.8c-0.963,2.51-4.882,2.141-5.601,0.385C22.339,47.364,26.864,47.124,27.394,49.8z"/>
<path fill="#45332C" d="M22.793,49.532c0,2.213,3.201,2.213,3.201,0C25.994,47.478,22.793,47.478,22.793,49.532z"/>
<path fill="#45332C" d="M27.394,49.78c0-2.693-5.601-2.693-5.601,0.428C22.594,47.647,26.594,47.647,27.394,49.78z"/>
<path fill="#F5F5F5" d="M12.594,49.8c0.964,2.51,4.883,2.141,5.6,0.385C17.648,47.364,13.124,47.124,12.594,49.8z"/>
<path fill="#45332C" d="M17.193,49.532c0,2.213-3.199,2.213-3.199,0C13.994,47.478,17.193,47.478,17.193,49.532z"/>
<path fill="#45332C" d="M12.594,49.78c0-2.693,5.6-2.693,5.6,0.426C17.395,47.647,13.394,47.647,12.594,49.78z"/>
<path fill="#D99025" d="M19.994,55.327c-1.611-0.428-4,0.201-4,0.201c0.91,0.893,1.576,2.049,4,2.049c2.777,0,3.248-1.313,4-2.049
	C23.994,55.528,21.604,54.897,19.994,55.327z"/>
<g>
	<path fill="#FFFFFF" d="M16.557,55.562c1.712,1.59,5.173,1.602,6.896,0C21.626,55.649,18.396,55.649,16.557,55.562z"/>
</g>
<path fill="#E6A400" d="M27.181,47.464c-1.72-0.709-4.071-0.848-5.279-0.375c-0.256,0.1-0.247,0.709-0.022,0.648
	c1.732-0.473,3.727-0.508,5.366,0.063C27.465,47.878,27.438,47.569,27.181,47.464z"/>
<path fill="#E6A400" d="M12.808,47.464c1.718-0.709,4.071-0.848,5.279-0.375c0.255,0.1,0.247,0.709,0.021,0.648
	c-1.731-0.473-3.726-0.508-5.365,0.063C12.521,47.878,12.549,47.569,12.808,47.464z"/>
<path fill="#E6A400" d="M21.994,53.415c0,1.303-4,1.303-4,0C17.994,53.118,21.994,53.118,21.994,53.415z"/>
</svg>
