<?xml version="1.0" encoding="utf-8"?>
<!-- Generator: Adobe Illustrator 15.0.0, SVG Export Plug-In . SVG Version: 6.00 Build 0)  -->
<!DOCTYPE svg PUBLIC "-//W3C//DTD SVG 1.1//EN" "http://www.w3.org/Graphics/SVG/1.1/DTD/svg11.dtd">
<svg version="1.1" id="Layer_1" xmlns="http://www.w3.org/2000/svg" xmlns:xlink="http://www.w3.org/1999/xlink" x="0px" y="0px"
	 width="64px" height="64px" viewBox="0 0 64 64" enable-background="new 0 0 64 64" xml:space="preserve">
<g>
	<path fill="#4E5E67" d="M60.668,56.129c-0.346-0.792-19.114-11.958-19.134-11.972c-2.648-1.947-2.972-3.841-0.835-4.929
		c1.832-0.932,3.407-3.928,4.594-7.137c0.217,0.095,0.446,0.116,0.677,0.048c4.985-1.457,5.075-11.518,1.74-9.74
		c3.117-27.194-34.534-27.208-31.42,0c-3.336-1.78-3.245,8.283,1.74,9.739c0.229,0.067,0.459,0.047,0.676-0.048
		c1.187,3.208,2.761,6.205,4.593,7.136c2.153,1.095,1.729,2.896-0.888,4.97C21.54,44.89,9.387,51.663,5.958,53.956
		c-0.006,0.002-0.018,0.01-0.018,0.01h0.002c-1.416,0.948-2.424,1.737-2.609,2.163C2.354,58.383,2,62,2,62h60
		C62,62,61.646,58.383,60.668,56.129z"/>
</g>
</svg>
