<?xml version="1.0" encoding="utf-8"?>
<!-- Generator: Adobe Illustrator 15.0.0, SVG Export Plug-In . SVG Version: 6.00 Build 0)  -->
<!DOCTYPE svg PUBLIC "-//W3C//DTD SVG 1.1//EN" "http://www.w3.org/Graphics/SVG/1.1/DTD/svg11.dtd">
<svg version="1.1" id="Layer_1" xmlns="http://www.w3.org/2000/svg" xmlns:xlink="http://www.w3.org/1999/xlink" x="0px" y="0px"
	 width="64px" height="64px" viewBox="0 0 64 64" enable-background="new 0 0 64 64" xml:space="preserve">
<path fill="#E6EBEF" d="M6.611,50.949c2.6-1.631,13.393-5.936,13.393-5.936H36.08c0,0,10.783,4.297,13.369,5.934
	C53.209,53.316,54,62,54,62H2C2,62,2.838,53.309,6.611,50.949"/>
<rect x="20.742" y="41" fill="#664935" width="14.514" height="10.535"/>
<path fill="#018BC9" d="M34.5,47.014c-1.994,1.143-4.201,1.797-6.5,1.797c-2.297,0-4.506-0.654-6.5-1.799L28,62L34.5,47.014z"/>
<path fill="#BEC3CF" d="M18.764,45.514c-1.969,6.104-1.051,9.998-1.051,9.998c1.658-1.529,4.916-3.221,4.916-3.223
	c-1.18,1.709-2.115,4.514-2.115,4.514C24.051,57.381,28,62,28,62S22.504,45.764,18.764,45.514z"/>
<path fill="#E6EBEF" d="M21.223,42.363c0,0-0.971-0.412-1.385,0.359c-2.436,4.582-1.625,11.061-1.625,11.061
	c1.658-1.529,4.971-1.984,4.973-1.986C22.004,53.506,21.5,55.43,21.5,55.43C23.998,56.639,28,62,28,62S24.66,52.086,21.223,42.363z"
	/>
<path fill="#BEC3CF" d="M37.234,45.514c1.969,6.104,1.053,9.998,1.053,9.998c-1.658-1.529-4.916-3.221-4.918-3.223
	c1.182,1.709,2.117,4.514,2.117,4.514C31.949,57.381,28,62,28,62S33.494,45.764,37.234,45.514z"/>
<path fill="#E6EBEF" d="M34.777,42.363c0,0,0.971-0.412,1.385,0.359c2.436,4.582,1.625,11.061,1.625,11.061
	c-1.658-1.529-4.973-1.984-4.973-1.986c1.18,1.709,1.686,3.633,1.686,3.633C32,56.639,28,62,28,62S31.34,52.086,34.777,42.363z"/>
<path fill="#CFD7DC" d="M8.373,62c0.555-2.189-0.098-5.518-0.789-7.35C6.941,52.943,7.184,60.795,8.373,62"/>
<path fill="#E6EBEF" d="M55.533,60.834L43.992,59.5c0,0,3.189-9.229,3.633-14.797c0.375-4.717,9.389,0.373,9.096,2.559
	C56.111,51.803,55.533,60.834,55.533,60.834z"/>
<path fill="#916B50" d="M49.301,47.646c-1.736-1.486-1.736-6.906,0-8.391C56.988,32.693,56.986,54.213,49.301,47.646z"/>
<path fill="#CAE8F0" d="M54.5,47v-7.5c0.686,0,1.25-0.564,1.25-1.252c0-0.686-0.564-1.248-1.25-1.248h-5
	c-0.689,0-1.25,0.563-1.25,1.248c0,0.688,0.561,1.252,1.25,1.252V47c0,3.125-7.5,10.652-7.5,12.5C42,62,49.422,62,52,62s10,0,10-2.5
	C62,57.652,54.5,50.125,54.5,47z"/>
<path fill="#92C932" d="M48.875,50.75c-2.178,3.783-5.625,7.42-5.625,8.459c0,1.049,5.385,1.541,8.75,1.541
	c3.363,0,8.75-0.492,8.75-1.541c0-1.039-3.449-4.676-5.625-8.459H48.875z"/>
<path fill="#A6E639" d="M49.455,51.688c-1.736,3.016-4.855,6.002-4.484,6.744C46.459,61.406,49.455,51.688,49.455,51.688z"/>
<path fill="#7AB51D" d="M52,60.75c3.363,0,8.75-0.492,8.75-1.541c0-1.039-3.018-4.566-5.625-8.459
	C58.047,56.486,58.859,59.768,52,60.75z"/>
<path fill="#916B50" d="M54.447,39.518l-2.619,0.002c-1.664,0-1.664,2.219,0,2.219h-1.109c-0.666,0-1.109,0.557-1.109,1.111
	s0.555,1.109,1.109,1.109c-1.555,0-1.555,2.219,0,2.219h1.109c-1.555,0-1.443,2.219,0,2.221h2.74
	c0.873,0.039,1.725-1.279,1.473-2.158c-0.102-0.363,0.969-1.246,0.4-2.281c-0.156-0.285,0.676-1.186-0.189-2.51
	C56.088,41.201,56.402,39.518,54.447,39.518z"/>
<path fill="#614036" d="M28,2C8.893,2,8.887,13.499,8.887,27.875h38.227C47.113,13.499,47.107,2,28,2z"/>
<path fill="#75543D" d="M12.682,33.465c2.07-1.928,0.191-9.488-2.479-9.943C4.498,22.549,8.215,37.622,12.682,33.465z"/>
<path fill="#75543D" d="M43.319,33.465c-2.071-1.928-0.191-9.488,2.479-9.943C51.501,22.549,47.786,37.621,43.319,33.465z"/>
<path fill="#916B50" d="M28,9.667c-19.963,0-11.92,2.313-17.25,14.039c0,0,0.039,5.378,1.155,11.146C13.344,42.29,21.713,48,28,48
	c6.289,0,14.657-5.71,16.096-13.147c1.117-5.769,1.155-11.146,1.155-11.146C39.921,11.979,47.965,9.667,28,9.667z"/>
<path fill="#F5F5F5" d="M42.184,25.399c-1.847,4.81-9.357,4.104-10.733,0.74C32.495,20.734,41.168,20.271,42.184,25.399z"/>
<path fill="#45332C" d="M33.367,24.887c0,4.241,6.133,4.241,6.133,0C39.5,20.949,33.367,20.949,33.367,24.887z"/>
<path fill="#45332C" d="M42.184,25.364c0-5.163-10.733-5.163-10.733,0.817C32.983,21.275,40.65,21.275,42.184,25.364z"/>
<path fill="#F5F5F5" d="M13.816,25.399c1.848,4.81,9.358,4.104,10.733,0.74C23.506,20.734,14.834,20.271,13.816,25.399z"/>
<path fill="#45332C" d="M22.633,24.887c0,4.241-6.133,4.241-6.133,0C16.5,20.95,22.633,20.95,22.633,24.887z"/>
<path fill="#45332C" d="M13.816,25.364c0-5.162,10.733-5.162,10.733,0.815C23.018,21.275,15.35,21.275,13.816,25.364z"/>
<path fill="#F5F5F5" d="M33.744,23.855c0,1.062,1.533,1.062,1.533,0C35.277,22.872,33.744,22.872,33.744,23.855z"/>
<path fill="#F5F5F5" d="M18.603,23.641c0,1.061-1.534,1.061-1.534,0C17.068,22.656,18.603,22.656,18.603,23.641z"/>
<path fill="#734A2E" d="M28,37.526c-3.088-0.819-7.666,0.388-7.666,0.388c1.744,1.709,3.021,3.927,7.666,3.927
	c5.324,0,6.226-2.518,7.666-3.927C35.666,37.914,31.084,36.705,28,37.526z"/>
<path fill="#FFFFFF" d="M21.412,37.977c3.281,3.05,9.915,3.069,13.217,0C31.129,38.143,24.938,38.145,21.412,37.977z"/>
<path fill="#664935" d="M41.774,20.651c-3.294-1.358-7.804-1.623-10.119-0.718c-0.489,0.19-0.474,1.36-0.042,1.243
	c3.32-0.904,7.142-0.974,10.285,0.12C42.32,21.444,42.27,20.854,41.774,20.651z"/>
<path fill="#664935" d="M14.227,20.651c3.293-1.358,7.803-1.623,10.118-0.718c0.489,0.19,0.474,1.36,0.042,1.243
	c-3.32-0.904-7.142-0.975-10.285,0.12C13.68,21.444,13.73,20.854,14.227,20.651z"/>
<path fill="#614036" d="M43.264,7.907c7.12,9.764-25.929,7.216-32.803,5.791C10.461,13.698,20.558-0.071,43.264,7.907z"/>
<path fill="#4A2E24" d="M10.461,13.698c9.873,2.077,40.059,1.79,30.559-8.507C56.509,17.549,18.82,18.65,10.461,13.698z"/>
<path fill="#664935" d="M31.833,32.757c0,2.494-7.666,2.494-7.666,0C24.167,32.185,31.833,32.185,31.833,32.757z"/>
<path opacity="0.3" fill="#F5F5F5" d="M9.73,18.582c0,0,0,6.658,0,8.971c0,1.623,7.654,3.076,11.209,4.021
	c0.902,0.242,2.148,0.381,2.666-0.852c0.881-2.098,1.498-3.623,2.555-6.115c0.461-1.096,3.219-1.098,3.682,0
	c1.055,2.492,1.674,4.018,2.555,6.115c0.518,1.232,1.764,1.094,2.666,0.852c3.553-0.945,11.207-2.398,11.207-4.021
	c0-2.313,0-8.971,0-8.971H9.73z"/>
<path opacity="0.3" fill="#F5F5F5" d="M23.111,17.369L11.152,28.814c0,0,1.725,0.795,3.963,1.313L28,17.652
	C27.377,17.643,24.133,17.344,23.111,17.369z"/>
<path opacity="0.3" fill="#F5F5F5" d="M40.141,18.248l-9.08,8.793c0,0.324,0.703,2.754,1.797,3.279l12.287-11.906L40.141,18.248z"/>
<path opacity="0.7" fill="#F5F5F5" d="M31.455,29.906c0,0-2.275-4.57-2.703-5.414c-0.141-0.279-0.406-0.439-0.732-0.441
	c-0.275,0.018-0.602,0.115-0.77,0.441c-0.428,0.844-2.703,5.414-2.703,5.414c-0.115,0.225-1.092-0.119-0.979-0.344
	c0,0,2.277-4.57,2.707-5.416c0.305-0.596,0.986-0.98,1.742-0.98c0.002,0,0.004,0,0.004,0c0.75,0.002,1.402,0.377,1.707,0.98
	c0.428,0.846,2.705,5.416,2.705,5.416C32.547,29.787,31.541,30.076,31.455,29.906z"/>
<path fill="#302C3B" d="M47,19.725c-12.646-0.994-25.354-0.994-38,0c-0.051-0.664-0.104-1.328-0.156-1.994
	c12.75-1.004,25.561-1.004,38.314,0C47.104,18.396,47.053,19.061,47,19.725z"/>
</svg>
