<?xml version="1.0" encoding="utf-8"?>
<!-- Generator: Adobe Illustrator 15.0.0, SVG Export Plug-In . SVG Version: 6.00 Build 0)  -->
<!DOCTYPE svg PUBLIC "-//W3C//DTD SVG 1.1//EN" "http://www.w3.org/Graphics/SVG/1.1/DTD/svg11.dtd">
<svg version="1.1" id="Layer_1" xmlns="http://www.w3.org/2000/svg" xmlns:xlink="http://www.w3.org/1999/xlink" x="0px" y="0px"
	 width="64px" height="64px" viewBox="0 0 64 64" enable-background="new 0 0 64 64" xml:space="preserve">
<rect x="2" y="14" fill="#C49A45" width="60" height="40"/>
<rect x="4" y="16" fill="#014F27" width="56" height="36"/>
<path fill="#875B49" d="M31.664,13.049C26.687,6.854,2,9.337,2,27.606c0.104,9.815,1.755,32.111,19.836,32.111
	c18.078,0,19.73-22.201,19.938-32.111C41.773,21.52,38.158,14.327,31.664,13.049z"/>
<path fill="#6B4435" d="M2.286,33.604c0.89,10.829,4.595,26.114,19.565,26.114c15.021,0,18.7-15.319,19.636-26.187
	c-0.492-5.004-3.526-11.467-10.112-19.085C17.879,22.972,3.3,21.645,2.286,33.604z"/>
<path fill="#8E3ED6" d="M5.549,54.093c1.998-1.167,10.301-4.247,10.301-4.247h12.367c0,0,8.293,3.073,10.283,4.243
	C41.391,55.787,42,62,42,62H2C2,62,2.645,55.782,5.549,54.093"/>
<rect x="15.689" y="45.591" fill="#946346" width="12.621" height="7.329"/>
<path fill="#5D1E96" d="M37.824,56.741c-0.533,1.313-1.033,3.692-0.607,5.259C38.131,61.139,38.316,55.521,37.824,56.741"/>
<path fill="#5D1E96" d="M7.021,62c0.426-1.566-0.074-3.948-0.607-5.258C5.92,55.52,6.107,61.139,7.021,62"/>
<path fill="#5D1E96" d="M22,52.92c-2.402,0-5.426-0.569-6.428-3.559c-1.574,1.028-0.939,3.559-0.564,8.167
	C16.975,57.326,18.367,54.641,22,52.92z"/>
<path fill="#8E3ED6" d="M22,52.92c-2.402,0-5.277-1.127-6.277-4.117c-1.574,1.028-0.699,3.158-0.324,7.766
	C17.365,56.367,18.367,54.641,22,52.92z"/>
<path fill="#5D1E96" d="M22.002,52.92c2.4,0,5.426-0.569,6.426-3.559c1.574,1.028,0.939,3.559,0.566,8.167
	C27.025,57.326,25.635,54.641,22.002,52.92z"/>
<path fill="#8E3ED6" d="M22.002,52.92c2.4,0,5.275-1.127,6.275-4.117c1.576,1.028,0.699,3.158,0.326,7.766
	C26.635,56.367,25.635,54.641,22.002,52.92z"/>
<path fill="#C28FEF" d="M20.9,55.808c0,1.468,2.199,1.468,2.199,0C23.1,54.342,20.9,54.342,20.9,55.808z"/>
<path fill="#C28FEF" d="M20.9,59.705c0,1.465,2.199,1.465,2.199,0C23.1,58.237,20.9,58.237,20.9,59.705z"/>
<path fill="#B88A6F" d="M38.098,58.668c-1.32-1.734,0.15-5.775,2.277-6.254C49.783,50.299,43.943,66.338,38.098,58.668z"/>
<polygon fill="#E81C27" points="43.248,52.111 44.902,52.713 54.951,23.389 54.398,23.189 "/>
<rect x="41.201" y="51.885" transform="matrix(-0.9398 -0.3416 0.3416 -0.9398 63.1209 124.4795)" fill="#302C3B" width="2.641" height="9.594"/>
<path fill="#B88A6F" d="M45.561,54.525l-1.951-0.711c-1.24-0.451-1.842,1.203-0.602,1.654l-0.828-0.301
	c-0.494-0.182-0.977,0.113-1.127,0.527c-0.148,0.412,0.113,0.977,0.525,1.127c-1.158-0.422-1.76,1.232-0.6,1.654l0.826,0.301
	c-1.158-0.42-1.678,1.264-0.604,1.654l2.043,0.744c0.641,0.266,1.633-0.488,1.684-1.207c0.021-0.301,1.059-0.668,0.916-1.594
	c-0.039-0.254,0.826-0.701,0.539-1.924C46.33,56.223,47.02,55.057,45.561,54.525z"/>
<path fill="#B88A6F" d="M40.713,52.346c-0.982,0.227,0.107,2.309,0.531,2.217c0,0,1.977-0.705,2.463-1.102
	c1.143-0.939,0.354-1.906,0.021-1.76C42.76,52.125,41.422,52.18,40.713,52.346z"/>
<path fill="#B88A6F" d="M35.781,27.558c-2.061-4.858-5.84-10.13-5.84-10.13C16.113,25.736,4.426,21.567,7.671,37.313
	c1.54,7.472,10.782,13.259,14.426,13.259c3.638,0,13.114-5.742,14.42-13.259C37.272,32.96,36.741,29.823,35.781,27.558z"/>
<path fill="#F5F5F5" d="M34.139,30.792c-1.496,3.9-7.587,3.327-8.703,0.601C26.283,27.01,33.316,26.636,34.139,30.792z"/>
<path fill="#45332C" d="M26.99,30.377c0,3.44,4.974,3.44,4.974,0C31.964,27.185,26.99,27.185,26.99,30.377z"/>
<path fill="#45332C" d="M34.139,30.765c0-4.187-8.703-4.187-8.703,0.662C26.681,27.449,32.896,27.449,34.139,30.765z"/>
<path fill="#F5F5F5" d="M10.14,30.792c1.496,3.9,7.588,3.327,8.704,0.601C17.995,27.01,10.963,26.636,10.14,30.792z"/>
<path fill="#45332C" d="M17.288,30.377c0,3.44-4.974,3.44-4.974,0C12.314,27.185,17.288,27.185,17.288,30.377z"/>
<path fill="#45332C" d="M10.14,30.765c0-4.186,8.704-4.186,8.704,0.66C17.6,27.449,11.384,27.449,10.14,30.765z"/>
<path fill="#F5F5F5" d="M27.298,29.542c0,0.86,1.243,0.86,1.243,0C28.541,28.745,27.298,28.745,27.298,29.542z"/>
<path fill="#F5F5F5" d="M14.02,29.367c0,0.859-1.243,0.859-1.243,0C12.776,28.569,14.02,28.569,14.02,29.367z"/>
<path fill="#80553C" d="M28.927,41.802c-1.284,1.454-2.089,4.027-6.833,4.027c-4.139,0-5.279-2.266-6.834-4.027H28.927z"/>
<path fill="#FFFFFF" d="M28.072,41.847c-2.812,2.88-9.109,2.92-11.959,0H28.072z"/>
<path fill="#80553C" d="M22.094,41.569c-2.677-1.174-2.697-0.047-6.834,0.232c5.223,0.585,8.445,0.585,13.667,0
	C24.793,41.522,24.771,40.396,22.094,41.569z"/>
<path fill="#946346" d="M34.156,26.676c-2.898-1.193-6.863-1.426-8.9-0.629c-0.43,0.169-0.416,1.197-0.037,1.094
	c2.92-0.794,6.281-0.857,9.047,0.104C34.637,27.376,34.592,26.858,34.156,26.676z"/>
<path fill="#946346" d="M9.927,26.68c2.897-1.195,6.862-1.427,8.899-0.633c0.43,0.169,0.416,1.198,0.036,1.094
	c-2.919-0.794-6.278-0.857-9.044,0.105C9.447,27.376,9.491,26.858,9.927,26.68z"/>
<path fill="#946346" d="M25.51,37.665c0,2.193-6.741,2.193-6.741,0C18.769,37.159,25.51,37.159,25.51,37.665z"/>
<path opacity="0.3" fill="#F5F5F5" d="M23.725,28.269c-0.543,8.816,8.375,8.167,12.104,6.459
	C38.807,27.226,37.975,25.082,23.725,28.269z"/>
<path opacity="0.3" fill="#F5F5F5" d="M31.25,27.953c-1.502,0.091-3.176,0.249-4.467,0.528c-0.797,0.172-2.809,0.622-1.035,4.349
	C26.18,33.736,32.324,27.887,31.25,27.953z"/>
<path opacity="0.3" fill="#F5F5F5" d="M6.975,27.311c-1.475,9.895,6.082,9.5,10.916,7.521C26.412,25.019,9.807,26.666,6.975,27.311z
	"/>
<path opacity="0.3" fill="#F5F5F5" d="M14.412,28.22c-1.963-0.145-3.781-0.165-4.322-0.165c-1.238,0-2.449,0.79-1.691,4
	C8.617,32.981,15.729,28.316,14.412,28.22z"/>
<path fill="#302C3B" d="M37.361,26.373c-0.566-0.07-2.344-0.155-4.5-0.155c-2.475,0-4.447,0.354-6.393,0.694
	c-1.928,0.339-3.213,0.577-4.469,0.577s-2.541-0.238-4.469-0.577c-1.945-0.341-3.918-0.694-6.391-0.694
	c-2.156,0-3.934,0.085-4.502,0.155C5.5,26.512,5.5,26.512,5.5,27.767c0,1.835,0.211,2.154,0.301,2.265
	c0.119,0.148,0.459,0.354,0.568,0.511c0.16,0.229,0.219,0.939,0.295,1.349c0.615,3.248,1.463,4.373,6.299,4.373
	c4.5,0,6.719-1.336,7.564-4.638c0.064-0.246,0.176-1.3,0.244-1.546c0.027-0.097,0.115-0.242,0.35-0.277
	c0.313-0.031,0.598-0.044,0.879-0.044s0.566,0.013,0.879,0.044c0.232,0.035,0.324,0.181,0.35,0.277
	c0.068,0.246,0.182,1.3,0.244,1.546c0.848,3.302,3.064,4.638,7.566,4.638c4.834,0,5.682-1.125,6.295-4.373
	c0.078-0.409,0.137-1.119,0.299-1.349c0.109-0.157,0.447-0.362,0.568-0.511c0.088-0.11,0.299-0.43,0.299-2.265
	C38.5,26.512,38.5,26.512,37.361,26.373z M19.703,30.368c-0.059,0.266-0.133,0.576-0.238,0.968c-0.605,2.29-1.943,3.813-6.502,3.813
	c-4.42,0-4.811-0.922-5.227-3.511c-0.154-0.966-0.488-2.035-0.107-2.933c0.211-0.5,0.576-1.201,1.854-1.201
	c0.934,0,5.551,0.061,8.391,0.673C18.701,28.355,20.049,28.667,19.703,30.368z M36.264,31.637c-0.416,2.589-0.807,3.511-5.225,3.511
	c-4.561,0-5.898-1.523-6.504-3.813c-0.104-0.392-0.18-0.702-0.238-0.968c-0.346-1.701,1.002-2.013,1.83-2.191
	c2.84-0.612,7.457-0.673,8.391-0.673c1.277,0,1.643,0.701,1.854,1.201C36.752,29.602,36.42,30.671,36.264,31.637z"/>
</svg>
