<?xml version="1.0" encoding="utf-8"?>
<!-- Generator: Adobe Illustrator 15.0.0, SVG Export Plug-In . SVG Version: 6.00 Build 0)  -->
<!DOCTYPE svg PUBLIC "-//W3C//DTD SVG 1.1//EN" "http://www.w3.org/Graphics/SVG/1.1/DTD/svg11.dtd">
<svg version="1.1" id="Layer_1" xmlns="http://www.w3.org/2000/svg" xmlns:xlink="http://www.w3.org/1999/xlink" x="0px" y="0px"
	 width="64px" height="64px" viewBox="0 0 64 64" enable-background="new 0 0 64 64" xml:space="preserve">
<path fill="#018BC9" d="M9.32,50.184c2.758-1.744,14.201-6.346,14.201-6.346h17.047c0,0,11.432,4.594,14.174,6.342
	C58.729,52.717,59.568,62,59.568,62H4.432C4.432,62,5.322,52.707,9.32,50.184z"/>
<path fill="#BEC3CF" d="M12.375,48.541c2.48-1.35,4.73-2.191,4.73-2.191L18.668,62h-5.881L12.375,48.541z"/>
<path fill="#BEC3CF" d="M51.625,48.541c-2.48-1.35-4.729-2.191-4.729-2.191L45.332,62h5.883L51.625,48.541z"/>
<path fill="#DBA97F" d="M23.178,45.871c0,7.07,17.645,7.07,17.645,0c0-4.312,0-11.439,0-11.439H23.178
	C23.178,34.432,23.178,40.305,23.178,45.871z"/>
<path fill="#BEC3CF" d="M12.549,58.379c1.977-1.035,36.955-1.037,38.93-0.002C52.699,59.018,53.518,62,53.518,62H10.512
	C10.512,62,11.33,59.02,12.549,58.379z"/>
<path fill="#E5BC5E" d="M7.459,62C7.459,62,2,55.031,2,48.258C2,39.084,17.461,46.963,26.436,62H7.459z"/>
<path fill="#018BC9" d="M10.211,50.087C9.805,48.488,8.453,47,7.197,46.764c-1.254-0.234-1.939,0.874-1.531,2.475
	c0.408,1.6,1.762,3.086,3.016,3.322C9.936,52.795,10.619,51.688,10.211,50.087"/>
<path fill="#E81C27" d="M16.035,52.775c-0.352-1.508-1.592-2.929-2.764-3.174c-1.172-0.246-1.834,0.778-1.48,2.287
	c0.352,1.506,1.592,2.928,2.762,3.174C15.725,55.309,16.387,54.283,16.035,52.775"/>
<path fill="#FFE12C" d="M21.475,57.438c-0.443-1.449-1.748-2.753-2.91-2.912c-1.16-0.158-1.742,0.887-1.299,2.339
	c0.441,1.448,1.744,2.753,2.906,2.914C21.334,59.938,21.914,58.889,21.475,57.438"/>
<path fill="#7AB51D" d="M11.35,57.852c-0.541-1.669-2.031-3.13-3.318-3.264c-1.285-0.133-1.883,1.113-1.34,2.783
	c0.545,1.669,2.033,3.129,3.318,3.265C11.297,60.769,11.895,59.521,11.35,57.852"/>
<path fill="#594640" d="M54.104,62c3.652-13.504,4.789-20.883,3.779-21.147C56.85,40.582,53.959,47.861,50.082,62H54.104z"/>
<path fill="#302C3B" d="M57.172,42.143c0,0-2.66-3.377,0.203-7.498c1.496-2.152,2.631-1.741,3.354-4.379
	c0.539-1.977,3.826,7.634-2.938,12.041L57.172,42.143z"/>
<path fill="#1A1626" d="M60.594,35.612c-0.518,1.892-1.455,3.141-2.072,3.808c0.029-1.662,0.424-3.666,0.424-3.666
	c-0.719,1.391-1.059,2.82-1.223,3.802c-0.449-1.277-0.24-2.953-0.24-2.953c-1.705,3.124-0.045,5.118-0.045,5.118
	C60.986,39.328,60.594,35.612,60.594,35.612"/>
<path fill="#99A8AE" d="M54.391,47.898c0.457,0.189,0.932,0.359,1.428,0.489c0.498,0.132,0.994,0.216,1.49,0.275
	c0,0,2.047-7.425,0.574-7.811C56.414,40.467,54.391,47.898,54.391,47.898"/>
<path fill="#594640" d="M32,2C13.529,2,13.525,13.114,13.525,27.01h36.949C50.475,13.114,50.471,2,32,2z"/>
<path fill="#F2C198" d="M17.193,32.413c2.002-1.862,0.186-9.171-2.396-9.611C9.284,21.861,12.877,36.433,17.193,32.413z"/>
<path fill="#F2C198" d="M46.809,32.413c-2.002-1.862-0.186-9.171,2.396-9.611C54.716,21.861,51.126,36.431,46.809,32.413z"/>
<path fill="#FCD5B2" d="M32.001,9.41c-19.296,0-11.522,2.235-16.674,13.571c0,0,0.038,5.197,1.116,10.773
	c1.391,7.188,9.48,12.708,15.558,12.708c6.078,0,14.167-5.521,15.558-12.708c1.079-5.576,1.116-10.773,1.116-10.773
	C43.523,11.645,51.299,9.41,32.001,9.41z"/>
<path fill="#F5F5F5" d="M45.709,24.617c-1.783,4.65-9.044,3.968-10.373,0.716C36.346,20.108,44.729,19.662,45.709,24.617z"/>
<path fill="#45332C" d="M37.188,24.123c0,4.099,5.929,4.099,5.929,0C43.116,20.317,37.188,20.317,37.188,24.123z"/>
<path fill="#45332C" d="M45.709,24.584c0-4.992-10.373-4.992-10.373,0.789C36.817,20.631,44.229,20.631,45.709,24.584z"/>
<path fill="#F5F5F5" d="M18.291,24.617c1.785,4.65,9.046,3.968,10.375,0.716C27.656,20.108,19.273,19.662,18.291,24.617z"/>
<path fill="#45332C" d="M26.813,24.123c0,4.099-5.928,4.099-5.928,0C20.885,20.317,26.813,20.317,26.813,24.123z"/>
<path fill="#45332C" d="M18.291,24.584c0-4.99,10.375-4.99,10.375,0.787C27.186,20.631,19.772,20.631,18.291,24.584z"/>
<path fill="#F5F5F5" d="M37.553,23.126c0,1.025,1.482,1.025,1.482,0C39.035,22.174,37.553,22.174,37.553,23.126z"/>
<path fill="#F5F5F5" d="M22.917,22.917c0,1.025-1.482,1.025-1.482,0C21.435,21.966,22.917,21.966,22.917,22.917z"/>
<path fill="#CC9D76" d="M32,36.341c-2.985-0.795-7.41,0.374-7.41,0.374c1.686,1.651,2.921,3.794,7.41,3.794
	c5.146,0,6.02-2.434,7.411-3.794C39.411,36.715,34.982,35.546,32,36.341z"/>
<path fill="#FFFFFF" d="M25.633,36.772c3.172,2.949,9.584,2.967,12.775,0C35.023,36.935,29.039,36.937,25.633,36.772z"/>
<path fill="#DBA97F" d="M45.314,20.029c-3.184-1.313-7.543-1.57-9.781-0.695c-0.472,0.185-0.457,1.315-0.039,1.202
	c3.208-0.874,6.901-0.94,9.939,0.116C45.842,20.794,45.793,20.224,45.314,20.029z"/>
<path fill="#DBA97F" d="M18.687,20.029c3.184-1.313,7.542-1.57,9.78-0.695c0.473,0.185,0.457,1.315,0.04,1.202
	c-3.209-0.874-6.901-0.94-9.939,0.116C18.158,20.794,18.208,20.224,18.687,20.029z"/>
<path fill="#594640" d="M46.755,7.708c6.882,9.439-25.063,6.977-31.708,5.6C15.047,13.308,24.807-0.003,46.755,7.708z"/>
<path fill="#422F2A" d="M15.047,13.308c9.543,2.008,38.721,1.729,29.537-8.223C59.557,17.029,23.128,18.093,15.047,13.308z"/>
<path fill="#DBA97F" d="M35.705,31.729c0,2.408-7.41,2.408-7.41,0C28.295,31.175,35.705,31.175,35.705,31.729z"/>
</svg>
