<?xml version="1.0" encoding="utf-8"?>
<!-- Generator: Adobe Illustrator 15.0.0, SVG Export Plug-In . SVG Version: 6.00 Build 0)  -->
<!DOCTYPE svg PUBLIC "-//W3C//DTD SVG 1.1//EN" "http://www.w3.org/Graphics/SVG/1.1/DTD/svg11.dtd">
<svg version="1.1" id="Layer_1" xmlns="http://www.w3.org/2000/svg" xmlns:xlink="http://www.w3.org/1999/xlink" x="0px" y="0px"
	 width="64px" height="64px" viewBox="0 0 64 64" enable-background="new 0 0 64 64" xml:space="preserve">
<path fill="#594640" d="M11.519,33.445c-19.306,11.393-2.333,21.769-7.831,26.68C14.367,66.754,40.51,55.33,11.519,33.445z"/>
<path fill="#422F2A" d="M5.752,37.775c4.74,18.193,14.49,18.818,13.676,22.111C28.493,55.135,28.576,39.802,5.752,37.775z"/>
<path fill="#594640" d="M52.48,33.445c19.307,11.393,2.333,21.769,7.831,26.68C49.633,66.754,23.49,55.33,52.48,33.445z"/>
<path fill="#422F2A" d="M58.248,37.775c-4.74,18.193-14.49,18.818-13.677,22.111C35.507,55.135,35.424,39.802,58.248,37.775z"/>
<path fill="#594640" d="M5.59,32.982h52.79C66.063-8.328-2.092-8.328,5.59,32.982z"/>
<path fill="#422F2A" d="M5.527,32.474c0,0,30.047,11.218,50.881-1.782c-4.207,0.797-11.041-15.307-43.035-16.516
	C12.201,32.474,6.576,27.51,5.527,32.474z"/>
<path fill="#CFD8DD" d="M55.904,30.039c2.239-30.91-50.086-30.91-47.846,0C10.01,4.078,53.952,4.078,55.904,30.039z"/>
<path fill="#FFFFFF" d="M55.904,29.039c2.239-30.91-50.086-30.91-47.846,0C10.01,3.078,53.952,3.078,55.904,29.039z"/>
<path fill="#F2C198" d="M8.619,30.242c-9.107-1.18-3.174,17.106,3.958,12.063C15.881,39.967,12.881,30.793,8.619,30.242z"/>
<path fill="#F2C198" d="M55.351,30.242c-4.263,0.552-7.263,9.725-3.958,12.063C58.525,47.346,64.456,29.062,55.351,30.242z"/>
<path fill="#FCD5B2" d="M55.055,30.294c-8.727-2.48-19.894-14.355-41.121-12.921c0.373,4.669-0.856,9.961-4.949,12.938
	c0,0-0.019,4.195,1.475,11.872c2.445,12.568,12.598,17.502,21.525,17.502s19.083-4.934,21.525-17.502
	C55.004,34.504,55.055,30.294,55.055,30.294z"/>
<path fill="#F5F5F5" d="M50.484,34.448c-2.408,6.272-12.205,5.352-14,0.965C37.848,28.363,49.16,27.758,50.484,34.448z"/>
<path fill="#45332C" d="M38.984,33.779c0,5.532,8,5.532,8,0C46.984,28.643,38.984,28.643,38.984,33.779z"/>
<path fill="#45332C" d="M50.484,34.402c0-6.735-14-6.735-14,1.065C38.484,29.068,48.484,29.068,50.484,34.402z"/>
<path fill="#F5F5F5" d="M13.485,34.448c2.409,6.272,12.206,5.352,14,0.965C26.122,28.363,14.811,27.758,13.485,34.448z"/>
<path fill="#45332C" d="M24.985,33.779c0,5.532-8,5.532-8,0C16.985,28.644,24.985,28.644,24.985,33.779z"/>
<path fill="#45332C" d="M13.485,34.402c0-6.734,14-6.734,14,1.063C25.487,29.068,15.485,29.068,13.485,34.402z"/>
<path fill="#F5F5F5" d="M39.477,32.434c0,1.384,2,1.384,2,0C41.477,31.151,39.477,31.151,39.477,32.434z"/>
<path fill="#F5F5F5" d="M19.727,32.154c0,1.383-2,1.383-2,0C17.727,30.87,19.727,30.87,19.727,32.154z"/>
<path fill="#CC9D76" d="M31.984,48.266c-4.027-1.068-10,0.506-10,0.506c2.275,2.229,3.942,5.121,10,5.121
	c6.944,0,8.121-3.283,10-5.121C41.984,48.771,36.008,47.193,31.984,48.266z"/>
<path fill="#FFFFFF" d="M23.392,48.853c4.28,3.979,12.932,4.005,17.24,0C36.064,49.07,27.989,49.072,23.392,48.853z"/>
<path fill="#DBA97F" d="M49.951,28.607c-4.297-1.771-10.178-2.116-13.198-0.936c-0.638,0.249-0.618,1.776-0.054,1.622
	c4.329-1.179,9.313-1.27,13.414,0.157C50.664,29.642,50.598,28.872,49.951,28.607z"/>
<path fill="#DBA97F" d="M14.019,28.607c4.297-1.771,10.178-2.116,13.198-0.936c0.638,0.249,0.617,1.776,0.055,1.622
	c-4.331-1.179-9.315-1.271-13.414,0.157C13.306,29.642,13.373,28.872,14.019,28.607z"/>
<path fill="#DBA97F" d="M36.984,43.488c0,3.254-10,3.254-10,0C26.985,42.742,36.984,42.742,36.984,43.488z"/>
</svg>
