<?xml version="1.0" encoding="utf-8"?>
<!-- Generator: Adobe Illustrator 15.0.0, SVG Export Plug-In . SVG Version: 6.00 Build 0)  -->
<!DOCTYPE svg PUBLIC "-//W3C//DTD SVG 1.1//EN" "http://www.w3.org/Graphics/SVG/1.1/DTD/svg11.dtd">
<svg version="1.1" id="Layer_1" xmlns="http://www.w3.org/2000/svg" xmlns:xlink="http://www.w3.org/1999/xlink" x="0px" y="0px"
	 width="64px" height="64px" viewBox="0 0 64 64" enable-background="new 0 0 64 64" xml:space="preserve">
<path fill="#EA8800" d="M18.467,2C9.525,2,9.522,7.382,9.522,14.108h17.891C27.413,7.382,27.41,2,18.467,2z"/>
<path fill="#F5BC2C" d="M11.299,16.726c0.968-0.902,0.09-4.441-1.161-4.653C7.469,11.616,9.207,18.67,11.299,16.726z"/>
<path fill="#F5BC2C" d="M25.637,16.726c-0.969-0.902-0.091-4.441,1.16-4.653C29.464,11.616,27.727,18.67,25.637,16.726z"/>
<path fill="#FDCA47" d="M18.467,5.588c-9.341,0-5.578,1.083-8.071,6.57c0,0,0.018,2.517,0.54,5.217
	c0.674,3.479,4.59,6.152,7.531,6.152s6.859-2.673,7.533-6.152c0.521-2.7,0.539-5.217,0.539-5.217
	C24.046,6.671,27.811,5.588,18.467,5.588z"/>
<path fill="#F5F5F5" d="M25.105,12.95c-0.865,2.251-4.379,1.921-5.023,0.347C20.571,10.768,24.631,10.55,25.105,12.95z"/>
<path fill="#45332C" d="M20.978,12.711c0,1.984,2.871,1.984,2.871,0C23.849,10.867,20.978,10.867,20.978,12.711z"/>
<path fill="#45332C" d="M25.105,12.934c0-2.416-5.023-2.416-5.023,0.383C20.799,11.021,24.388,11.021,25.105,12.934z"/>
<path fill="#F5F5F5" d="M11.829,12.95c0.866,2.251,4.38,1.921,5.023,0.347C16.364,10.768,12.307,10.55,11.829,12.95z"/>
<path fill="#45332C" d="M15.956,12.711c0,1.984-2.871,1.984-2.871,0C13.085,10.868,15.956,10.868,15.956,12.711z"/>
<path fill="#45332C" d="M11.829,12.934c0-2.415,5.023-2.415,5.023,0.382C16.136,11.021,12.548,11.021,11.829,12.934z"/>
<path fill="#D99025" d="M18.467,18.625c-1.444-0.383-3.587,0.183-3.587,0.183c0.815,0.799,1.415,1.837,3.587,1.837
	c2.491,0,2.914-1.178,3.589-1.837C22.056,18.808,19.91,18.241,18.467,18.625z"/>
<path fill="#FFFFFF" d="M15.385,18.836c1.535,1.428,4.64,1.438,6.185,0C19.931,18.914,17.034,18.915,15.385,18.836z"/>
<path fill="#E6A400" d="M24.913,10.728c-1.542-0.635-3.652-0.759-4.735-0.335c-0.229,0.089-0.222,0.637-0.02,0.582
	c1.555-0.423,3.342-0.456,4.813,0.057C25.169,11.1,25.145,10.823,24.913,10.728z"/>
<path fill="#E6A400" d="M12.021,10.728c1.542-0.635,3.653-0.759,4.737-0.335c0.229,0.089,0.222,0.637,0.018,0.582
	c-1.554-0.423-3.342-0.456-4.813,0.057C11.767,11.1,11.79,10.823,12.021,10.728z"/>
<path fill="#D67C00" d="M22.783,19.202c-1.685-1.77-6.915-1.784-8.612,0C16.452,19.079,20.486,19.079,22.783,19.202z"/>
<path fill="#EA8800" d="M22.783,19.202c-2.139-2.249-6.46-2.263-8.612,0C14.545,18.731,22.303,18.601,22.783,19.202z"/>
<path fill="#EA8800" d="M25.611,4.765c3.33,4.569-12.136,3.378-15.351,2.71C10.261,7.475,14.985,1.031,25.611,4.765z"/>
<path fill="#D67C00" d="M10.261,7.475c4.619,0.973,18.746,0.838,14.3-3.98C31.809,9.277,14.171,9.792,10.261,7.475z"/>
<path fill="#E6A400" d="M20.262,16.393c0,1.168-3.588,1.168-3.588,0C16.674,16.126,20.262,16.126,20.262,16.393z"/>
<path fill="#FDCA47" d="M10.553,44.209c-1.831-1.785,0.134,3.369-1.565,1.711c-1.581-1.543-0.778-4.129-0.778-4.129l2.695-0.471
	C10.904,41.32,12.066,45.686,10.553,44.209z"/>
<path fill="#FDCA47" d="M31.889,44.816c2.797-2.242-0.471-4.592-0.471-4.592l-2.327,1.439
	C29.004,41.484,30.886,45.619,31.889,44.816z"/>
<rect x="16.002" y="21.072" fill="#FDCA47" width="4.932" height="5.461"/>
<path fill="#302C3B" d="M24.673,38.699H12.262c-1.082,4.656,0.187,10.188-1.079,21.537c-0.16,1.43,5.806,1.438,5.752,0
	c-0.249-6.621,0.458-10.76,0.964-14.795c0.037-0.301,1.101-0.301,1.138,0c0.507,4.035,1.213,8.174,0.964,14.795
	c-0.054,1.438,5.912,1.43,5.752,0C24.486,48.887,25.755,43.355,24.673,38.699z"/>
<path fill="#CFD8DD" d="M26.822,62h-6.837C18.777,57.279,26.822,58.201,26.822,62z"/>
<path fill="#018BC9" d="M26.382,26.117c-0.644-1.412-5.449-3.085-5.449-3.085c0,2.409-4.931,2.409-4.931,0
	c0,0-4.959,1.612-5.449,3.085C8.073,33.561,7.81,34.68,8.089,42.07c0.028,0.754,2.944-0.238,2.954-0.609
	c0.188-6.65,0.137-5.107,1.219-10.283c0.648,3.436-0.228,7.139,0,7.521c0.802,1.354,11.609,1.354,12.411,0
	c0.228-0.383-0.648-4.086,0-7.521c2.044,4.404,2.278,5.201,4.497,10.904c0.135,0.346,2.659-0.957,2.463-1.684
	C30.166,34.965,28.737,31.283,26.382,26.117z"/>
<path fill="#CFD8DD" d="M10.112,62h6.837C18.157,57.279,10.112,58.201,10.112,62z"/>
<path fill="#EA8800" d="M45.533,2c-8.941,0-8.944,5.382-8.944,12.108h17.891C54.479,7.382,54.477,2,45.533,2z"/>
<path fill="#F5BC2C" d="M38.365,16.726c0.968-0.902,0.09-4.441-1.161-4.653C34.535,11.616,36.273,18.67,38.365,16.726z"/>
<path fill="#F5BC2C" d="M52.703,16.726c-0.969-0.902-0.091-4.441,1.16-4.653C56.53,11.616,54.793,18.67,52.703,16.726z"/>
<path fill="#FDCA47" d="M45.533,5.588c-9.341,0-5.578,1.083-8.071,6.57c0,0,0.018,2.517,0.54,5.217
	c0.674,3.479,4.59,6.152,7.531,6.152s6.859-2.673,7.533-6.152c0.521-2.7,0.539-5.217,0.539-5.217
	C51.112,6.671,54.877,5.588,45.533,5.588z"/>
<path fill="#F5F5F5" d="M52.172,12.95c-0.865,2.251-4.379,1.921-5.023,0.347C47.638,10.768,51.697,10.55,52.172,12.95z"/>
<path fill="#45332C" d="M48.044,12.711c0,1.984,2.871,1.984,2.871,0C50.915,10.867,48.044,10.867,48.044,12.711z"/>
<path fill="#45332C" d="M52.172,12.934c0-2.416-5.023-2.416-5.023,0.383C47.865,11.021,51.454,11.021,52.172,12.934z"/>
<path fill="#F5F5F5" d="M38.896,12.95c0.866,2.251,4.38,1.921,5.023,0.347C43.431,10.768,39.373,10.55,38.896,12.95z"/>
<path fill="#45332C" d="M43.022,12.711c0,1.984-2.871,1.984-2.871,0C40.151,10.868,43.022,10.868,43.022,12.711z"/>
<path fill="#45332C" d="M38.896,12.934c0-2.415,5.023-2.415,5.023,0.382C43.202,11.021,39.614,11.021,38.896,12.934z"/>
<path fill="#D99025" d="M45.533,18.625c-1.444-0.383-3.587,0.183-3.587,0.183c0.815,0.799,1.415,1.837,3.587,1.837
	c2.491,0,2.914-1.178,3.589-1.837C49.122,18.808,46.977,18.241,45.533,18.625z"/>
<path fill="#FFFFFF" d="M42.451,18.836c1.535,1.428,4.64,1.438,6.185,0C46.997,18.914,44.101,18.915,42.451,18.836z"/>
<path fill="#E6A400" d="M51.979,10.728c-1.542-0.635-3.652-0.759-4.735-0.335c-0.229,0.089-0.222,0.637-0.02,0.582
	c1.555-0.423,3.342-0.456,4.813,0.057C52.235,11.1,52.211,10.823,51.979,10.728z"/>
<path fill="#E6A400" d="M39.087,10.728c1.542-0.635,3.653-0.759,4.737-0.335c0.229,0.089,0.222,0.637,0.018,0.582
	c-1.554-0.423-3.342-0.456-4.813,0.057C38.833,11.1,38.856,10.823,39.087,10.728z"/>
<path fill="#D67C00" d="M49.85,19.202c-1.685-1.77-6.915-1.784-8.612,0C43.519,19.079,47.553,19.079,49.85,19.202z"/>
<path fill="#EA8800" d="M49.85,19.202c-2.139-2.249-6.46-2.263-8.612,0C41.611,18.731,49.369,18.601,49.85,19.202z"/>
<path fill="#EA8800" d="M52.678,4.765c3.33,4.569-12.136,3.378-15.351,2.71C37.327,7.475,42.052,1.031,52.678,4.765z"/>
<path fill="#D67C00" d="M37.327,7.475c4.619,0.973,18.746,0.838,14.3-3.98C58.875,9.277,41.237,9.792,37.327,7.475z"/>
<path fill="#E6A400" d="M47.328,16.393c0,1.168-3.588,1.168-3.588,0C43.74,16.126,47.328,16.126,47.328,16.393z"/>
<path fill="#FDCA47" d="M53.447,44.209c1.831-1.785-0.134,3.369,1.565,1.711c1.581-1.543,0.778-4.129,0.778-4.129l-2.695-0.471
	C53.096,41.32,51.934,45.686,53.447,44.209z"/>
<path fill="#FDCA47" d="M32.111,44.816c-2.797-2.242,0.471-4.592,0.471-4.592l2.327,1.439
	C34.996,41.484,33.114,45.619,32.111,44.816z"/>
<rect x="43.066" y="21.072" fill="#FDCA47" width="4.932" height="5.461"/>
<path fill="#302C3B" d="M39.327,38.699h12.411c1.082,4.656-0.187,10.188,1.079,21.537c0.16,1.43-5.806,1.438-5.752,0
	c0.249-6.621-0.458-10.76-0.964-14.795c-0.037-0.301-1.101-0.301-1.138,0c-0.507,4.035-1.213,8.174-0.964,14.795
	c0.054,1.438-5.912,1.43-5.752,0C39.514,48.887,38.245,43.355,39.327,38.699z"/>
<path fill="#CFD8DD" d="M37.178,62h6.837C45.223,57.279,37.178,58.201,37.178,62z"/>
<path fill="#006DAE" d="M37.618,26.117c0.644-1.412,5.449-3.085,5.449-3.085c0,2.409,4.931,2.409,4.931,0
	c0,0,4.959,1.612,5.449,3.085c2.479,7.443,2.743,8.563,2.464,15.953c-0.028,0.754-2.944-0.238-2.954-0.609
	c-0.188-6.65-0.137-5.107-1.219-10.283c-0.648,3.436,0.228,7.139,0,7.521c-0.802,1.354-11.609,1.354-12.411,0
	c-0.228-0.383,0.648-4.086,0-7.521c-2.044,4.404-2.278,5.201-4.497,10.904c-0.135,0.346-2.659-0.957-2.463-1.684
	C33.834,34.965,35.263,31.283,37.618,26.117z"/>
<path fill="#CFD8DD" d="M53.888,62h-6.837C45.843,57.279,53.888,58.201,53.888,62z"/>
</svg>
