<?xml version="1.0" encoding="utf-8"?>
<!-- Generator: Adobe Illustrator 15.0.0, SVG Export Plug-In . SVG Version: 6.00 Build 0)  -->
<!DOCTYPE svg PUBLIC "-//W3C//DTD SVG 1.1//EN" "http://www.w3.org/Graphics/SVG/1.1/DTD/svg11.dtd">
<svg version="1.1" id="Layer_1" xmlns="http://www.w3.org/2000/svg" xmlns:xlink="http://www.w3.org/1999/xlink" x="0px" y="0px"
	 width="64px" height="64px" viewBox="0 0 64 64" enable-background="new 0 0 64 64" xml:space="preserve">
<path fill="#E6EBEF" d="M6.434,53.712c2.5-1.223,14.014-4.451,14.014-4.451h13.186c0,0,11.506,3.222,13.992,4.449
	C51.24,55.488,52,62,52,62H2C2,62,2.807,55.482,6.434,53.712"/>
<polygon fill="#BF8D69" points="18.639,51.083 27,54.355 35.357,51.083 35.357,44 18.639,44 "/>
<path fill="#CFD8DD" d="M7.979,62c0.533-1.642-0.094-4.138-0.758-5.512C6.604,55.208,6.836,61.097,7.979,62"/>
<path fill="#CFD8DD" d="M36.682,55.454C35.563,55.017,27,54.355,27,54.355s7.551,1.022,8.545,1.508
	C36.539,56.35,36.682,62,36.682,62h1.137C37.818,62,37.801,55.893,36.682,55.454z"/>
<path fill="#068AC7" d="M25.643,51.094c-7.945-1.576-6.785-4.507-6.785-4.507S17.5,46.712,17.5,49.099c0,5.257,9.5,5.257,9.5,5.257
	S25.896,51.144,25.643,51.094"/>
<path fill="#068AC7" d="M35.143,46.587c0,0,1.156,2.931-6.785,4.507C28.102,51.144,27,54.355,27,54.355s9.5,0,9.5-5.257
	C36.5,46.712,35.143,46.587,35.143,46.587"/>
<path fill="#068AC7" d="M21,57.844c0.826,0,1.5,0.671,1.5,1.5s-0.674,1.5-1.5,1.5c-0.83,0-1.5-0.671-1.5-1.5S20.17,57.844,21,57.844
	"/>
<path fill="#068AC7" d="M33,57.844c0.828,0,1.5,0.671,1.5,1.5s-0.672,1.5-1.5,1.5c-0.83,0-1.5-0.671-1.5-1.5S32.17,57.844,33,57.844
	"/>
<path fill="#C8A35D" d="M26.998,8.511c-17.01,0-17.01,10.35-17.01,23.287h34.016C44.004,18.86,44.004,8.511,26.998,8.511z"/>
<path fill="#EBBEA0" d="M50.559,62h-6.65c-0.334-2.331,1.316-6.313,3.17-7.018C56.51,51.398,50.559,62,50.559,62z"/>
<path fill="#CFD8DD" d="M47.918,54.532c0,0,5.574-18.197,12.066-26.09c0,0,5.242,10.534-1.182,28.597c0,0-6.1-2.085-6.514-0.916
	L47.918,54.532z"/>
<path fill="#99A8AE" d="M56.961,56.481c1.039,0.288,1.842,0.558,1.842,0.558c6.424-18.063,1.182-28.597,1.182-28.597
	c-0.41,0.497-0.816,1.036-1.215,1.609C59.934,33.825,61.672,43.053,56.961,56.481z"/>
<path fill="#785647" d="M44.945,62l2.742-7.552c0.1-0.277,0.533-0.378,1.041-0.189l3.109,1.132c0.508,0.188,0.906,0.583,0.807,0.862
	L50.559,62H44.945z"/>
<path fill="#EBBEA0" d="M51.793,56.979l-2.445-0.888c-1.553-0.565-2.316,1.529-0.764,2.095l-1.035-0.377
	c-0.621-0.227-1.225,0.147-1.416,0.672c-0.189,0.523,0.137,1.235,0.654,1.424c-1.451-0.528-2.215,1.567-0.764,2.096h6.092
	c-0.049-0.321,1.051-1.04,0.697-2.586C52.746,59.126,53.617,57.644,51.793,56.979z"/>
<path fill="#DEA885" d="M13.014,36.639c1.891-1.76,0.174-8.664-2.264-9.08C5.543,26.672,8.936,40.434,13.014,36.639z"/>
<path fill="#DEA885" d="M40.987,36.639c-1.891-1.76-0.175-8.664,2.263-9.08C48.457,26.672,45.066,40.433,40.987,36.639z"/>
<path fill="#EBBEA0" d="M42.751,28.193c0-14.471-6.186-9.748-15.75-9.748c-9.563,0-15.749-4.723-15.749,9.748
	c0,0,0.033,4.091,1.053,9.464C13.654,44.77,21.225,49.91,27,49.91c5.777,0,13.349-5.141,14.695-12.253
	C42.717,32.282,42.751,28.193,42.751,28.193z"/>
<path fill="#BF8C6B" d="M27,40.347c-2.82-0.748-7,0.354-7,0.354c1.592,1.561,2.76,3.585,7,3.585c4.861,0,5.685-2.299,7-3.585
	C34,40.7,29.816,39.596,27,40.347z"/>
<path fill="#FFFFFF" d="M20.986,40.758c2.994,2.784,9.051,2.803,12.066,0C29.856,40.908,24.203,40.911,20.986,40.758z"/>
<path fill="#F5F5F5" d="M39.949,29.274c-1.686,4.391-8.543,3.746-9.799,0.676C31.104,25.015,39.023,24.592,39.949,29.274z"/>
<path fill="#45332C" d="M31.9,28.805c0,3.874,5.6,3.874,5.6,0C37.5,25.211,31.9,25.211,31.9,28.805z"/>
<path fill="#45332C" d="M39.949,29.242c0-4.715-9.799-4.715-9.799,0.745C31.551,25.508,38.551,25.508,39.949,29.242z"/>
<path fill="#F5F5F5" d="M14.051,29.274c1.686,4.391,8.543,3.746,9.799,0.676C22.896,25.015,14.979,24.592,14.051,29.274z"/>
<path fill="#45332C" d="M22.1,28.805c0,3.874-5.6,3.874-5.6,0C16.5,25.211,22.1,25.211,22.1,28.805z"/>
<path fill="#45332C" d="M14.051,29.242c0-4.713,9.799-4.713,9.799,0.745C22.451,25.508,15.449,25.508,14.051,29.242z"/>
<path fill="#F5F5F5" d="M32.244,27.865c0,0.967,1.4,0.967,1.4,0C33.645,26.967,32.244,26.967,32.244,27.865z"/>
<path fill="#F5F5F5" d="M18.42,27.668c0,0.968-1.4,0.968-1.4,0C17.02,26.77,18.42,26.77,18.42,27.668z"/>
<path fill="#BF8D69" d="M39.576,24.938c-3.008-1.239-7.125-1.481-9.238-0.655c-0.447,0.175-0.434,1.242-0.039,1.136
	c3.031-0.825,6.521-0.89,9.391,0.109C40.074,25.662,40.027,25.124,39.576,24.938z"/>
<path fill="#BF8D69" d="M14.424,24.938c3.008-1.239,7.124-1.481,9.238-0.655c0.447,0.175,0.433,1.242,0.039,1.136
	c-3.032-0.825-6.521-0.89-9.391,0.109C13.926,25.662,13.973,25.124,14.424,24.938z"/>
<path fill="#BF8D69" d="M30.5,35.991c0,2.278-7,2.278-7,0C23.5,35.47,30.5,35.47,30.5,35.991z"/>
<path fill="#E6EBEF" d="M27,11c-11.416,0-16.959,7-16.959,7v7c0,0,5.227-3,16.959-3c11.73,0,16.959,3,16.959,3v-7
	C43.959,18,38.414,11,27,11"/>
<path fill="#E6EBEF" d="M42.908,4.804C39.318,2.935,37.178,2,34.484,2c-1.238,0-4.387,1.453-7.486,1.401
	C23.9,3.453,20.752,2,19.514,2c-2.693,0-4.836,0.935-8.424,2.804C7.504,6.672,5,8.205,5,11.813c0,5.114,5.041,7.009,5.041,7.009
	s17.072-8.411,33.916,0c0,0,5.043-1.895,5.043-7.009C49,8.205,46.494,6.672,42.908,4.804"/>
<path fill="#CFD8DD" d="M39.43,13.831c-3.385,4.087-2.352-7.792-4.705-7.75c-2.422,0.043-3.355,7.666-7.773,7.556
	c-4.584-0.114-4.16-8.575-7.279-8.144c-3.023,0.418-2.74,13.486-7.219,6.338C5.537,0.789,11.869,25,5.021,12.387
	c0.307,5.613,5.02,6.435,5.02,6.435c3.35-1.876,19.475-7.438,33.916,0c0,0,4.289-0.646,4.957-5.895
	C40.953,22.789,50.953-0.086,39.43,13.831z"/>
<path fill="#99A8AE" d="M19.666,7.606c0,0,1.076,7.403-2.979,8.286c-4.055,0.884-6.533-4.869-6.533-4.869
	c1.777,6.922-0.113,7.798-0.113,7.798C17.744,14.966,27,15.088,27,15.088C21.098,15.088,19.666,7.606,19.666,7.606"/>
<path fill="#99A8AE" d="M43.844,11.024c0,0-2.477,5.753-6.531,4.87c-4.057-0.883-2.979-8.288-2.979-8.288S32.9,15.088,27,15.088
	c0,0,9.254-0.122,16.959,3.733C43.959,18.821,42.066,17.945,43.844,11.024"/>
</svg>
