<?xml version="1.0" encoding="utf-8"?>
<!-- Generator: Adobe Illustrator 15.0.0, SVG Export Plug-In . SVG Version: 6.00 Build 0)  -->
<!DOCTYPE svg PUBLIC "-//W3C//DTD SVG 1.1//EN" "http://www.w3.org/Graphics/SVG/1.1/DTD/svg11.dtd">
<svg version="1.1" id="Layer_1" xmlns="http://www.w3.org/2000/svg" xmlns:xlink="http://www.w3.org/1999/xlink" x="0px" y="0px"
	 width="64px" height="64px" viewBox="0 0 64 64" enable-background="new 0 0 64 64" xml:space="preserve">
<path fill="#EA8800" d="M32,2C7.077,2,7.07,17,7.07,35.75h49.861C56.931,17,56.924,2,32,2z"/>
<path fill="#F5BC2C" d="M12.019,43.042c2.701-2.515,0.25-12.377-3.233-12.971C1.346,28.804,6.193,48.464,12.019,43.042z"/>
<path fill="#F5BC2C" d="M51.981,43.042c-2.7-2.515-0.249-12.377,3.233-12.971C62.653,28.804,57.81,48.463,51.981,43.042z"/>
<path fill="#FDCA47" d="M32,12c-26.039,0-15.547,3.017-22.5,18.312c0,0,0.05,7.015,1.506,14.54C12.884,54.553,23.8,62,32,62
	c8.202,0,19.118-7.447,20.995-17.147c1.457-7.525,1.506-14.54,1.506-14.54C47.55,15.018,58.042,12,32,12z"/>
<path fill="#F5F5F5" d="M50.501,32.521c-2.408,6.272-12.205,5.352-14,0.965C37.864,26.437,49.177,25.832,50.501,32.521z"/>
<path fill="#45332C" d="M39.001,31.853c0,5.532,8,5.532,8,0C47.001,26.717,39.001,26.717,39.001,31.853z"/>
<path fill="#45332C" d="M50.501,32.476c0-6.734-14-6.734-14,1.065C38.501,27.142,48.501,27.142,50.501,32.476z"/>
<path fill="#F5F5F5" d="M13.5,32.521c2.409,6.272,12.206,5.352,14,0.965C26.137,26.437,14.826,25.832,13.5,32.521z"/>
<path fill="#45332C" d="M25,31.853c0,5.532-8,5.532-8,0C17,26.718,25,26.718,25,31.853z"/>
<path fill="#45332C" d="M13.5,32.476c0-6.733,14-6.733,14,1.063C25.502,27.142,15.5,27.142,13.5,32.476z"/>
<path fill="#F5F5F5" d="M39.493,30.508c0,1.384,2,1.384,2,0C41.493,29.225,39.493,29.225,39.493,30.508z"/>
<path fill="#F5F5F5" d="M19.742,30.228c0,1.383-2,1.383-2,0C17.742,28.943,19.742,28.943,19.742,30.228z"/>
<path fill="#D99025" d="M32,48.339c-4.029-1.068-10,0.506-10,0.506c2.275,2.229,3.942,5.121,10,5.121c6.944,0,8.121-3.283,10-5.121
	C42.001,48.845,36.023,47.267,32,48.339z"/>
<path fill="#FFFFFF" d="M23.407,48.926c4.28,3.979,12.934,4.005,17.24,0C36.081,49.144,28.004,49.146,23.407,48.926z"/>
<path fill="#E6A400" d="M49.968,26.328c-4.298-1.771-10.18-2.116-13.199-0.936c-0.638,0.249-0.618,1.775-0.055,1.622
	c4.33-1.18,9.314-1.271,13.414,0.157C50.679,27.362,50.612,26.593,49.968,26.328z"/>
<path fill="#E6A400" d="M14.034,26.328c4.297-1.771,10.178-2.116,13.198-0.936c0.638,0.249,0.618,1.775,0.054,1.622
	c-4.33-1.18-9.314-1.271-13.414,0.157C13.321,27.362,13.388,26.593,14.034,26.328z"/>
<path fill="#D67C00" d="M44.027,49.947c-5.958-6.268-18.004-6.308-24,0C26.385,49.604,37.628,49.602,44.027,49.947z"/>
<path fill="#EA8800" d="M44.027,49.947c-5.958-6.268-18.004-6.308-24,0C21.066,48.636,42.688,48.27,44.027,49.947z"/>
<path fill="#EA8800" d="M51.911,9.706c9.286,12.735-33.822,9.412-42.788,7.553C9.123,17.259,22.292-0.701,51.911,9.706z"/>
<path fill="#D67C00" d="M9.123,17.259C22,19.969,61.373,19.594,48.981,6.163C69.186,22.281,20.027,23.719,9.123,17.259z"/>
<path fill="#E6A400" d="M37.001,42.118c0,3.254-10.001,3.254-10.001,0C27,41.372,37.001,41.372,37.001,42.118z"/>
</svg>
