<?xml version="1.0" encoding="utf-8"?>
<!-- Generator: Adobe Illustrator 15.0.0, SVG Export Plug-In . SVG Version: 6.00 Build 0)  -->
<!DOCTYPE svg PUBLIC "-//W3C//DTD SVG 1.1//EN" "http://www.w3.org/Graphics/SVG/1.1/DTD/svg11.dtd">
<svg version="1.1" id="Layer_1" xmlns="http://www.w3.org/2000/svg" xmlns:xlink="http://www.w3.org/1999/xlink" x="0px" y="0px"
	 width="64px" height="64px" viewBox="0 0 64 64" enable-background="new 0 0 64 64" xml:space="preserve">
<path fill="#302C3B" d="M10.539,50.848c2.699-1.645,14.848-5.285,14.848-5.285h14.727c0,0,12.227,3.631,14.912,5.281
	C58.93,53.237,59.75,62,59.75,62h-54C5.75,62,6.621,53.229,10.539,50.848"/>
<path fill="#BF8D69" d="M24.75,48.411c0,2.239,8,13.038,8,13.038s8-10.275,8-13.038V37.779h-16V48.411z"/>
<path fill="#1A1626" d="M12.207,62c0.576-2.209-0.102-5.568-0.82-7.416C10.721,52.861,10.973,60.783,12.207,62"/>
<path fill="#1A1626" d="M54.111,54.584c-0.719,1.85-1.395,5.206-0.82,7.415C54.527,60.785,54.779,52.861,54.111,54.584"/>
<path fill="#C8A35D" d="M32.748,3.938c-18.9,0-18.9,10.5-18.9,24.875h37.797C51.645,14.438,51.645,3.938,32.748,3.938z"/>
<polygon fill="#E6EBEF" points="56.744,38.039 42.91,62 49.84,62 61.941,41.039 "/>
<polygon fill="#CFD8DD" points="48.418,60.557 60.041,39.496 60.908,39.996 "/>
<path fill="#CFD8DD" d="M61.941,41.039c-0.668,1.154-5.863-1.846-5.197-3C57.412,36.884,62.607,39.884,61.941,41.039z"/>
<path fill="#E81C27" d="M48.715,51.948l-1,1.731c-0.668,1.154,4.529,4.154,5.195,3l1-1.731
	C53.244,56.103,48.047,53.103,48.715,51.948z"/>
<g>
	<g>
		<path fill="#DEA885" d="M17.945,34.894c2-1.861,0.185-9.168-2.395-9.608C10.039,24.347,13.63,38.91,17.945,34.894z"/>
	</g>
	<g>
		<path fill="#DEA885" d="M47.547,34.894c-2-1.861-0.185-9.168,2.395-9.608C55.452,24.347,51.863,38.909,47.547,34.894z"/>
	</g>
</g>
<path fill="#EBBEA0" d="M49.414,25.957c0-15.313-6.545-10.315-16.667-10.315c-10.12,0-16.667-4.997-16.667,10.315
	c0,0,0.036,4.329,1.115,10.016c1.428,7.525,9.439,12.965,15.551,12.965c6.113,0,14.126-5.439,15.552-12.965
	C49.377,30.284,49.414,25.957,49.414,25.957z"/>
<g>
	<path fill="#BF8C6B" d="M32.746,38.818c-2.984-0.792-7.407,0.374-7.407,0.374c1.685,1.65,2.919,3.794,7.407,3.794
		c5.144,0,6.016-2.433,7.407-3.794C40.153,39.192,35.727,38.023,32.746,38.818z"/>
	<g>
		<path fill="#FFFFFF" d="M26.381,39.253c3.169,2.946,9.58,2.967,12.77,0C35.769,39.413,29.787,39.415,26.381,39.253z"/>
	</g>
</g>
<g>
	<path fill="#F5F5F5" d="M46.449,27.102c-1.783,4.646-9.04,3.964-10.369,0.715C37.089,22.594,45.469,22.146,46.449,27.102z"/>
	<path fill="#45332C" d="M37.932,26.604c0,4.1,5.926,4.1,5.926,0C43.857,22.802,37.932,22.802,37.932,26.604z"/>
	<path fill="#45332C" d="M46.449,27.066c0-4.988-10.369-4.988-10.369,0.79C37.561,23.115,44.969,23.115,46.449,27.066z"/>
	<path fill="#F5F5F5" d="M19.042,27.102c1.785,4.646,9.042,3.964,10.37,0.715C28.403,22.594,20.024,22.146,19.042,27.102z"/>
	<path fill="#45332C" d="M27.561,26.604c0,4.1-5.926,4.1-5.926,0C21.635,22.802,27.561,22.802,27.561,26.604z"/>
	<path fill="#45332C" d="M19.042,27.066c0-4.986,10.37-4.986,10.37,0.789C27.934,23.115,20.524,23.115,19.042,27.066z"/>
	<path fill="#F5F5F5" d="M38.296,25.61c0,1.023,1.481,1.023,1.481,0C39.777,24.659,38.296,24.659,38.296,25.61z"/>
	<path fill="#F5F5F5" d="M23.667,25.401c0,1.024-1.482,1.024-1.482,0C22.185,24.451,23.667,24.451,23.667,25.401z"/>
	<g>
		<path fill="#BF8D69" d="M46.055,22.513c-3.184-1.312-7.539-1.567-9.777-0.693c-0.472,0.185-0.457,1.315-0.039,1.202
			c3.207-0.874,6.898-0.941,9.936,0.115C46.582,23.279,46.533,22.709,46.055,22.513z"/>
		<path fill="#BF8D69" d="M19.438,22.513c3.183-1.312,7.539-1.567,9.777-0.693c0.472,0.185,0.457,1.315,0.039,1.202
			c-3.207-0.874-6.899-0.941-9.936,0.115C18.91,23.279,18.959,22.709,19.438,22.513z"/>
	</g>
</g>
<path fill="#BF8D69" d="M36.449,34.209c0,2.411-7.406,2.411-7.406,0C29.043,33.657,36.449,33.657,36.449,34.209z"/>
<path fill="#1A1626" d="M14.25,6.938V17.55c10.762,0,18.5,3.388,18.5,3.388s7.738-3.388,18.5-3.388V6.938H14.25z"/>
<polygon fill="#302C3B" points="32.75,2 3.5,5.556 3.5,6.493 32.75,10.938 62,6.493 62,5.556 "/>
<path fill="#F9C802" d="M3.5,6.493v24.054c0,0.645,1,0.645,1,0V6.641L3.5,6.493z"/>
<path fill="#F9C802" d="M6,37.898c0,2.209-0.002,2-2,2c-2,0-2,0.209-2-2s0.896-6,2-6S6,35.689,6,37.898"/>
<path fill="#967668" d="M3.75,39.898c0,0,0.25-3.059,0.25-3.998l0.25,3.998H3.75z"/>
<path fill="#967668" d="M2.75,39.898c0,0,0.25-3.059,0.25-3.998l0.25,3.998H2.75z"/>
<path fill="#967668" d="M4.75,39.898c0,0,0.25-3.059,0.25-3.998l0.25,3.998H4.75z"/>
<path fill="#F59E01" d="M2.664,33.82c0.354,0.32,0.82,0.52,1.334,0.52c0.518,0,0.979-0.199,1.336-0.52
	c-0.354-1.1-0.82-1.922-1.334-1.922S3.018,32.721,2.664,33.82"/>
<path fill="#F9C802" d="M3.998,29.898c1.104,0,2,0.895,2,2c0,1.104-0.896,1.998-2,1.998S2,33.002,2,31.898
	C2,30.793,2.895,29.898,3.998,29.898"/>
<path fill="#F9C802" d="M5,29.398c-0.314-0.391-1.646-0.355-2,0c-0.178,0.176-0.193,0.842,0,1c0.389,0.313,1.646,0.354,2,0
	C5.176,30.221,5.156,29.592,5,29.398"/>
</svg>
