<?xml version="1.0" encoding="utf-8"?>
<!-- Generator: Adobe Illustrator 15.0.0, SVG Export Plug-In . SVG Version: 6.00 Build 0)  -->
<!DOCTYPE svg PUBLIC "-//W3C//DTD SVG 1.1//EN" "http://www.w3.org/Graphics/SVG/1.1/DTD/svg11.dtd">
<svg version="1.1" id="Layer_1" xmlns="http://www.w3.org/2000/svg" xmlns:xlink="http://www.w3.org/1999/xlink" x="0px" y="0px"
	 width="64px" height="64px" viewBox="0 0 64 64" enable-background="new 0 0 64 64" xml:space="preserve">
<path fill="#594640" d="M43.014,5.434C37.406-1.543,9.6,1.252,9.6,21.83C9.716,32.889,11.576,58,31.941,58
	C52.304,58,54.167,32.992,54.4,21.83C54.4,14.977,50.328,6.873,43.014,5.434z"/>
<path fill="#422F2A" d="M9.923,28.584C10.925,40.783,15.097,58,31.961,58c16.918,0,21.063-17.254,22.116-29.494
	c-0.554-5.637-3.974-12.916-11.39-21.498C27.486,16.611,11.064,15.115,9.923,28.584z"/>
<path fill="#FCD5B2" d="M47.523,21.076c-2.322-5.471-6.578-11.412-6.578-11.412c-15.575,9.359-28.741,4.664-25.085,22.4
	c1.734,8.414,12.146,14.934,16.249,14.934c4.097,0,14.771-6.469,16.242-14.934C49.203,27.16,48.604,23.627,47.523,21.076z"/>
<path fill="#F5F5F5" d="M46.346,24.736c-1.854,4.828-9.395,4.121-10.776,0.744C36.619,20.053,45.328,19.588,46.346,24.736z"/>
<path fill="#45332C" d="M37.494,24.223c0,4.258,6.159,4.258,6.159,0C43.653,20.268,37.494,20.268,37.494,24.223z"/>
<path fill="#45332C" d="M46.346,24.703c0-5.186-10.776-5.186-10.776,0.82C37.109,20.596,44.807,20.596,46.346,24.703z"/>
<path fill="#F5F5F5" d="M17.866,24.736c1.854,4.828,9.396,4.121,10.777,0.744C27.594,20.053,18.886,19.588,17.866,24.736z"/>
<path fill="#45332C" d="M26.718,24.223c0,4.258-6.159,4.258-6.159,0C20.56,20.268,26.718,20.268,26.718,24.223z"/>
<path fill="#45332C" d="M17.866,24.703c0-5.184,10.777-5.184,10.777,0.818C27.104,20.596,19.406,20.596,17.866,24.703z"/>
<path fill="#F5F5F5" d="M37.874,23.188c0,1.064,1.54,1.064,1.54,0C39.414,22.199,37.874,22.199,37.874,23.188z"/>
<path fill="#F5F5F5" d="M22.67,22.969c0,1.066-1.538,1.066-1.538,0C21.132,21.982,22.67,21.982,22.67,22.969z"/>
<path fill="#DBA97F" d="M45.692,20.082c-3.264-1.344-7.731-1.605-10.024-0.709c-0.483,0.189-0.469,1.348-0.041,1.232
	c3.287-0.895,7.073-0.965,10.188,0.117C46.232,20.871,46.182,20.287,45.692,20.082z"/>
<path fill="#DBA97F" d="M18.401,20.086c3.263-1.346,7.73-1.607,10.025-0.713c0.484,0.189,0.469,1.35,0.041,1.232
	c-3.289-0.895-7.074-0.965-10.188,0.119C17.86,20.871,17.91,20.287,18.401,20.086z"/>
<path fill="#DBA97F" d="M35.954,32.459c0,2.471-7.594,2.471-7.594,0C28.36,31.893,35.954,31.893,35.954,32.459z"/>
<path fill="#8E3ED6" d="M41.334,47c0,0,11.621,3.367,14.174,4.867C59.219,54.041,60,62,60,62H4c0,0,0.828-7.967,4.553-10.131
	C11.119,50.375,22.666,47,22.666,47H41.334z"/>
<path fill="#BEC3CF" d="M53.832,59.5H10.168c-1.279,0-1.209,1.125-1.279,2.5h46.223C55.041,60.625,55.111,59.5,53.832,59.5z"/>
<path fill="#99A8AE" d="M10.332,60c0-0.174,3.719-0.313,21.668-0.313S53.666,59.826,53.666,60c0,0.17-3.717,0.313-21.666,0.313
	S10.332,60.17,10.332,60"/>
<path fill="#CFD8DD" d="M56.986,36H7.014c-0.625,0-1.078,0.412-1.006,0.916l3.148,22.166C9.227,59.586,9.797,60,10.42,60h43.158
	c0.625,0,1.195-0.414,1.266-0.918l3.148-22.166C58.064,36.412,57.609,36,56.986,36"/>
<path fill="#FFFFFF" d="M55.738,36.922c0,0.256-4.074,0.463-23.738,0.463c-19.666,0-23.738-0.207-23.738-0.463
	c0-0.254,4.072-0.461,23.738-0.461C51.664,36.461,55.738,36.668,55.738,36.922"/>
<path fill="#E6EBEF" d="M36.814,48.848c0,5.535-9.629,5.535-9.629,0C27.186,43.717,36.814,43.717,36.814,48.848z"/>
<path fill="#99A8AE" d="M16.758,61h-3.934c-1.377,0-1.377-2,0-2h3.934C18.137,59,18.137,61,16.758,61z"/>
<path fill="#99A8AE" d="M51.174,61H47.24c-1.377,0-1.377-2,0-2h3.934C52.553,59,52.553,61,51.174,61z"/>
<path fill="#99A8AE" d="M44.406,61.137c0,0.691-1,0.691-1,0C43.406,60.494,44.406,60.494,44.406,61.137z"/>
<path fill="#99A8AE" d="M42.375,61.137c0,0.691-1,0.691-1,0C41.375,60.494,42.375,60.494,42.375,61.137z"/>
</svg>
