<?xml version="1.0" encoding="utf-8"?>
<!-- Generator: Adobe Illustrator 15.0.0, SVG Export Plug-In . SVG Version: 6.00 Build 0)  -->
<!DOCTYPE svg PUBLIC "-//W3C//DTD SVG 1.1//EN" "http://www.w3.org/Graphics/SVG/1.1/DTD/svg11.dtd">
<svg version="1.1" id="Layer_1" xmlns="http://www.w3.org/2000/svg" xmlns:xlink="http://www.w3.org/1999/xlink" x="0px" y="0px"
	 width="64px" height="64px" viewBox="0 0 64 64" enable-background="new 0 0 64 64" xml:space="preserve">
<path fill="#EA8800" d="M23.25,3.684c-2.513-3.421-14.984-2.05-14.984,8.039c0.052,5.421,0.886,17.733,10.021,17.733
	c9.133,0,9.967-12.261,10.071-17.733C28.357,8.361,26.53,4.389,23.25,3.684z"/>
<path fill="#D67C00" d="M8.411,15.034c0.448,5.98,2.319,14.422,9.884,14.422c7.585,0,9.446-8.459,9.919-14.461
	c-0.249-2.764-1.784-6.332-5.11-10.539C16.285,9.163,8.922,8.43,8.411,15.034z"/>
<path fill="#FDCA47" d="M22.563,59.695c0-4.771,0.98-7.903,0.98-14.17h-4.157c0,6.446,0.609,8.838,0.214,14.07L22.563,59.695z"/>
<path fill="#302C3B" d="M19.689,58.071c0,1.34,2.912,1.474,2.912,0c0,0,1.704,2.849,0.866,3.929h-4.715
	C17.916,60.926,19.689,58.071,19.689,58.071z"/>
<path fill="#FDCA47" d="M13.963,59.695c0-4.771-0.922-7.903-0.922-14.17h3.924c0,6.446-0.575,8.838-0.202,14.07L13.963,59.695z"/>
<path fill="#302C3B" d="M16.679,58.071c0,1.34-2.752,1.474-2.752,0c0,0-1.605,2.849-0.815,3.929h4.452
	C18.35,60.926,16.679,58.071,16.679,58.071z"/>
<path fill="#FDCA47" d="M12.495,38.893c-2.947-1.842-4.765-4.473-4.463-5.201c1.5-3.619,2.73-8.546,4.717-9.291l1.405,3.987
	c-0.916-0.329-2.466,3.757-3.496,5.079c-0.151,0.195,0.468,1.943,2.877,3.99L12.495,38.893z"/>
<path fill="#FDCA47" d="M33.04,42.381c-2.739-3.922-2.902-5.621-4.874-9.635c-1.727-3.517-2.306-7.601-4.292-8.346l-1.405,3.987
	c0.916-0.329,3.563,4.649,4.071,6.376c1.014,3.442,2.97,3.984,3.581,7.436C30.714,45.547,33.16,44.715,33.04,42.381z"/>
<path fill="#FDCA47" d="M20.354,23.698c-0.244-0.338-0.138-1.641-0.138-1.641l-1.919-0.022l-1.922,0.022
	c0,0,0.107,1.303-0.137,1.641c-0.28,0.389-2.602,0.44-2.602,0.44s2.419,6.467,4.66,6.467c2.239,0,4.658-6.467,4.658-6.467
	S20.634,24.087,20.354,23.698z"/>
<path fill="#8E3ED6" d="M26.86,48.101c0-8.146-4.389-12.632-4.389-17.033c1.905-1.427,0-3.072,1.588-6.789l-1.192-0.333
	c-1.551,3.293-7.558,3.295-9.109,0l-1.194,0.333c1.588,3.717-0.317,5.361,1.588,6.789c0,4.401-4.389,8.887-4.389,17.033H26.86z"/>
<path fill="#5D1E96" d="M18.328,46.096c-4.437,0-7.564-0.771-8.361-0.989c-0.127,0.942-0.204,1.937-0.204,2.994
	c0,0,3.399,1.048,8.565,1.048c5.087,0,8.532-1.048,8.532-1.048c0-1.058-0.075-2.052-0.204-2.995
	C25.855,45.324,22.702,46.096,18.328,46.096z"/>
<path fill="#FDCA47" d="M25.522,11.555c-1.076-2.544-3.055-5.304-3.055-5.304c-7.236,4.349-13.354,2.167-11.656,10.411
	c0.808,3.911,5.644,6.942,7.55,6.942c1.905,0,6.864-3.007,7.548-6.942C26.305,14.383,26.026,12.741,25.522,11.555z"/>
<path fill="#F5F5F5" d="M24.979,13.256c-0.864,2.245-4.368,1.916-5.01,0.346C20.459,11.079,24.505,10.864,24.979,13.256z"/>
<path fill="#45332C" d="M20.864,13.018c0,1.979,2.86,1.979,2.86,0C23.725,11.181,20.864,11.181,20.864,13.018z"/>
<path fill="#45332C" d="M24.979,13.24c0-2.409-5.01-2.409-5.01,0.382C20.687,11.332,24.26,11.332,24.979,13.24z"/>
<path fill="#F5F5F5" d="M11.744,13.256c0.861,2.245,4.366,1.916,5.008,0.346C16.265,11.079,12.219,10.864,11.744,13.256z"/>
<path fill="#45332C" d="M15.859,13.018c0,1.979-2.864,1.979-2.864,0C12.995,11.181,15.859,11.181,15.859,13.018z"/>
<path fill="#45332C" d="M11.744,13.24c0-2.408,5.008-2.408,5.008,0.381C16.037,11.332,12.459,11.332,11.744,13.24z"/>
<path fill="#D99025" d="M21.937,19.011c-0.673,0.761-1.093,2.109-3.577,2.109c-2.166,0-2.762-1.188-3.575-2.109H21.937z"/>
<path fill="#FFFFFF" d="M21.489,19.035c-1.472,1.507-4.767,1.528-6.258,0H21.489z"/>
<path fill="#D99025" d="M18.359,18.89c-1.398-0.615-1.411-0.024-3.575,0.121c2.732,0.307,4.42,0.307,7.152,0
	C19.773,18.866,19.763,18.275,18.359,18.89z"/>
<path fill="#E6A400" d="M24.674,11.094c-1.518-0.625-3.594-0.747-4.658-0.33c-0.224,0.088-0.218,0.627-0.019,0.573
	c1.525-0.417,3.286-0.449,4.733,0.056C24.925,11.459,24.901,11.188,24.674,11.094z"/>
<path fill="#E6A400" d="M11.993,11.095c1.516-0.625,3.592-0.748,4.656-0.331c0.228,0.088,0.22,0.628,0.019,0.573
	c-1.526-0.417-3.284-0.449-4.731,0.056C11.742,11.459,11.766,11.188,11.993,11.095z"/>
<path fill="#E6A400" d="M20.149,16.846c0,1.147-3.529,1.147-3.529,0C16.62,16.583,20.149,16.583,20.149,16.846z"/>
<path fill="#EA8800" d="M50.627,3.684c-2.513-3.421-14.984-2.05-14.984,8.039c0.052,5.421,0.886,17.733,10.021,17.733
	c9.133,0,9.967-12.261,10.071-17.733C55.734,8.361,53.907,4.389,50.627,3.684z"/>
<path fill="#D67C00" d="M35.788,15.034c0.448,5.98,2.319,14.422,9.884,14.422c7.585,0,9.446-8.459,9.919-14.461
	c-0.249-2.764-1.784-6.332-5.11-10.539C43.662,9.163,36.299,8.43,35.788,15.034z"/>
<path fill="#FDCA47" d="M41.438,59.695c0-4.771-0.98-7.903-0.98-14.17h4.157c0,6.446-0.609,8.838-0.214,14.07L41.438,59.695z"/>
<path fill="#302C3B" d="M44.311,58.071c0,1.34-2.912,1.474-2.912,0c0,0-1.704,2.849-0.866,3.929h4.715
	C46.084,60.926,44.311,58.071,44.311,58.071z"/>
<path fill="#FDCA47" d="M50.037,59.695c0-4.771,0.922-7.903,0.922-14.17h-3.924c0,6.446,0.575,8.838,0.202,14.07L50.037,59.695z"/>
<path fill="#302C3B" d="M47.321,58.071c0,1.34,2.752,1.474,2.752,0c0,0,1.605,2.849,0.815,3.929h-4.452
	C45.65,60.926,47.321,58.071,47.321,58.071z"/>
<path fill="#FDCA47" d="M51.505,38.893c2.947-1.842,4.765-4.473,4.463-5.201c-1.5-3.619-2.73-8.546-4.717-9.291l-1.405,3.987
	c0.916-0.329,2.466,3.757,3.496,5.079c0.151,0.195-0.468,1.943-2.877,3.99L51.505,38.893z"/>
<path fill="#FDCA47" d="M30.393,42.886c2.739-3.922,3.47-6.126,5.441-10.14c1.727-3.517,2.306-7.601,4.292-8.346l1.405,3.987
	c-0.916-0.329-3.563,4.649-4.071,6.376c-1.014,3.442-2.909,3.772-3.541,7.22c-0.557,3.038-1.51,1.194-1.525,0.007
	C30.743,44.92,30.272,45.219,30.393,42.886z"/>
<path fill="#FDCA47" d="M43.646,23.698c0.244-0.338,0.138-1.641,0.138-1.641l1.919-0.022l1.922,0.022c0,0-0.107,1.303,0.137,1.641
	c0.28,0.389,2.602,0.44,2.602,0.44s-2.419,6.467-4.66,6.467c-2.239,0-4.658-6.467-4.658-6.467S43.366,24.087,43.646,23.698z"/>
<path fill="#5D1E96" d="M37.14,48.101c0-8.146,4.389-12.632,4.389-17.033c-1.905-1.427,0-3.072-1.588-6.789l1.192-0.333
	c1.551,3.293,7.558,3.295,9.109,0l1.194,0.333c-1.588,3.717,0.317,5.361-1.588,6.789c0,4.401,4.389,8.887,4.389,17.033H37.14z"/>
<path fill="#8E3ED6" d="M45.672,46.096c4.437,0,7.564-0.771,8.361-0.989c0.127,0.942,0.204,1.937,0.204,2.994
	c0,0-3.399,1.048-8.565,1.048c-5.087,0-8.532-1.048-8.532-1.048c0-1.058,0.075-2.052,0.204-2.995
	C38.145,45.324,41.298,46.096,45.672,46.096z"/>
<path fill="#FDCA47" d="M52.899,11.555c-1.076-2.544-3.055-5.304-3.055-5.304c-7.236,4.349-13.354,2.167-11.656,10.411
	c0.808,3.911,5.644,6.942,7.55,6.942c1.905,0,6.864-3.007,7.548-6.942C53.682,14.383,53.403,12.741,52.899,11.555z"/>
<path fill="#F5F5F5" d="M52.356,13.256c-0.864,2.245-4.368,1.916-5.01,0.346C47.836,11.079,51.882,10.864,52.356,13.256z"/>
<path fill="#45332C" d="M48.241,13.018c0,1.979,2.86,1.979,2.86,0C51.102,11.181,48.241,11.181,48.241,13.018z"/>
<path fill="#45332C" d="M52.356,13.24c0-2.409-5.01-2.409-5.01,0.382C48.063,11.332,51.637,11.332,52.356,13.24z"/>
<path fill="#F5F5F5" d="M39.121,13.256c0.861,2.245,4.366,1.916,5.008,0.346C43.642,11.079,39.596,10.864,39.121,13.256z"/>
<path fill="#45332C" d="M43.236,13.018c0,1.979-2.864,1.979-2.864,0C40.372,11.181,43.236,11.181,43.236,13.018z"/>
<path fill="#45332C" d="M39.121,13.24c0-2.408,5.008-2.408,5.008,0.381C43.414,11.332,39.836,11.332,39.121,13.24z"/>
<path fill="#D99025" d="M49.313,19.011c-0.673,0.761-1.093,2.109-3.577,2.109c-2.166,0-2.762-1.188-3.575-2.109H49.313z"/>
<path fill="#FFFFFF" d="M48.866,19.035c-1.472,1.507-4.767,1.528-6.258,0H48.866z"/>
<path fill="#D99025" d="M45.736,18.89c-1.398-0.615-1.411-0.024-3.575,0.121c2.732,0.307,4.42,0.307,7.152,0
	C47.15,18.866,47.14,18.275,45.736,18.89z"/>
<path fill="#E6A400" d="M52.051,11.094c-1.518-0.625-3.594-0.747-4.658-0.33c-0.224,0.088-0.218,0.627-0.019,0.573
	c1.525-0.417,3.286-0.449,4.733,0.056C52.302,11.459,52.278,11.188,52.051,11.094z"/>
<path fill="#E6A400" d="M39.37,11.095c1.516-0.625,3.592-0.748,4.656-0.331c0.228,0.088,0.22,0.628,0.019,0.573
	c-1.526-0.417-3.284-0.449-4.731,0.056C39.119,11.459,39.143,11.188,39.37,11.095z"/>
<path fill="#E6A400" d="M47.526,16.846c0,1.147-3.529,1.147-3.529,0C43.997,16.583,47.526,16.583,47.526,16.846z"/>
</svg>
