<?xml version="1.0" encoding="utf-8"?>
<!-- Generator: Adobe Illustrator 15.0.0, SVG Export Plug-In . SVG Version: 6.00 Build 0)  -->
<!DOCTYPE svg PUBLIC "-//W3C//DTD SVG 1.1//EN" "http://www.w3.org/Graphics/SVG/1.1/DTD/svg11.dtd">
<svg version="1.1" id="Layer_1" xmlns="http://www.w3.org/2000/svg" xmlns:xlink="http://www.w3.org/1999/xlink" x="0px" y="0px"
	 width="64px" height="64px" viewBox="0 0 64 64" enable-background="new 0 0 64 64" xml:space="preserve">
<path fill="#EA8800" d="M39.163,4.442C35.517-0.52,17.43,1.469,17.43,16.102c0.076,7.862,1.286,25.721,14.533,25.721
	c13.245,0,14.456-17.783,14.608-25.721C46.571,11.227,43.923,5.465,39.163,4.442z"/>
<path fill="#D67C00" d="M17.64,20.906c0.651,8.674,3.365,20.917,14.335,20.917c11.005,0,13.702-12.269,14.387-20.974
	c-0.36-4.01-2.585-9.185-7.409-15.287C29.063,12.39,18.381,11.327,17.64,20.906z"/>
<path fill="#8E3ED6" d="M43.692,35.968c-1.492-1.043-7.03-3.783-7.03-3.783h-9.274c0,0-5.546,2.746-7.045,3.785
	c-2.509,1.736-3.011,7.102-3.343,12.775l1,13.256h28l1-13.256C46.688,43.085,46.175,37.702,43.692,35.968z"/>
<path fill="#E6A400" d="M36.432,33.19c0-0.816,0-4.439,0-4.439h-8.863c0,0,0,3.57,0,4.439C27.568,36.782,36.432,36.782,36.432,33.19
	z"/>
<rect x="17" y="48.765" fill="#FDCA47" width="4.091" height="13.236"/>
<rect x="42.909" y="48.765" fill="#FDCA47" width="4.091" height="13.236"/>
<path fill="#FDCA47" d="M42.461,15.86c-1.563-3.69-4.433-7.692-4.433-7.692c-10.496,6.309-19.369,3.144-16.905,15.1
	c1.17,5.674,8.186,10.068,10.95,10.068c2.762,0,9.955-4.361,10.946-10.068C43.593,19.962,43.189,17.579,42.461,15.86z"/>
<path fill="#F5F5F5" d="M41.669,18.328c-1.25,3.256-6.332,2.777-7.264,0.502C35.114,15.169,40.981,14.857,41.669,18.328z"/>
<path fill="#45332C" d="M35.702,17.982c0,2.869,4.15,2.869,4.15,0C39.853,15.316,35.702,15.316,35.702,17.982z"/>
<path fill="#45332C" d="M41.669,18.304c0-3.495-7.264-3.495-7.264,0.553C35.443,15.536,40.63,15.536,41.669,18.304z"/>
<path fill="#F5F5F5" d="M22.476,18.328c1.248,3.256,6.332,2.777,7.262,0.502C29.031,15.169,23.163,14.857,22.476,18.328z"/>
<path fill="#45332C" d="M28.44,17.982c0,2.869-4.15,2.869-4.15,0C24.29,15.316,28.44,15.316,28.44,17.982z"/>
<path fill="#45332C" d="M22.476,18.304c0-3.494,7.262-3.494,7.262,0.551C28.7,15.536,23.513,15.536,22.476,18.304z"/>
<path fill="#D99025" d="M37.259,26.675c-0.977,1.104-1.586,3.059-5.188,3.059c-3.143,0-4.007-1.721-5.188-3.059H37.259z"/>
<path fill="#FFFFFF" d="M36.61,26.708c-2.135,2.188-6.916,2.217-9.078,0H36.61z"/>
<path fill="#D99025" d="M32.071,26.5c-2.031-0.893-2.047-0.035-5.188,0.176c3.965,0.445,6.412,0.445,10.375,0
	C34.12,26.464,34.104,25.607,32.071,26.5z"/>
<path fill="#E6A400" d="M41.228,15.19c-2.199-0.906-5.211-1.083-6.756-0.478c-0.325,0.128-0.315,0.908-0.027,0.83
	c2.216-0.604,4.768-0.651,6.866,0.08C41.593,15.721,41.558,15.328,41.228,15.19z"/>
<path fill="#E6A400" d="M22.837,15.192c2.197-0.906,5.208-1.084,6.754-0.479c0.328,0.128,0.316,0.91,0.027,0.83
	c-2.217-0.604-4.766-0.651-6.864,0.081C22.472,15.721,22.506,15.328,22.837,15.192z"/>
<path fill="#E6A400" d="M34.665,23.535c0,1.664-5.117,1.664-5.117,0C29.548,23.152,34.665,23.152,34.665,23.535z"/>
<path fill="#E32B56" d="M53.386,61.997c-1.197-0.834-5.646-3.027-5.646-3.027h-7.451c0,0-4.455,2.197-5.66,3.029L53.386,61.997z"/>
<path fill="#E6A400" d="M47.538,59.077c0-0.654,0-3.551,0-3.551h-7.09c0,0,0,2.854,0,3.551C40.448,61.95,47.538,61.95,47.538,59.077
	z"/>
<path fill="#EA8800" d="M35.808,49.396c-7.723,4.559-0.934,8.707-3.131,10.672C36.948,62.72,47.403,58.149,35.808,49.396z"/>
<path fill="#D67C00" d="M33.501,51.128c1.896,7.277,5.797,7.527,5.471,8.844C42.599,58.073,42.632,51.938,33.501,51.128z"/>
<path fill="#EA8800" d="M52.192,49.396c7.723,4.559,0.934,8.707,3.133,10.672C51.054,62.72,40.597,58.149,52.192,49.396z"/>
<path fill="#D67C00" d="M54.499,51.128c-1.896,7.277-5.795,7.527-5.471,8.844C45.403,58.073,45.37,51.938,54.499,51.128z"/>
<path fill="#EA8800" d="M33.437,49.212h21.115C57.626,32.687,30.364,32.687,33.437,49.212z"/>
<path fill="#D67C00" d="M33.411,49.009c0,0,12.02,4.486,20.352-0.713c-1.682,0.318-4.416-6.125-17.213-6.607
	C36.081,49.009,33.831,47.022,33.411,49.009z"/>
<path fill="#CFD8DD" d="M53.562,48.034c0.896-12.365-20.033-12.365-19.139,0C35.204,37.649,52.782,37.649,53.562,48.034z"/>
<path fill="#FFFFFF" d="M53.562,47.634c0.896-12.365-20.033-12.365-19.139,0C35.204,37.249,52.782,37.249,53.562,47.634z"/>
<path fill="#F5BC2C" d="M34.647,48.114c-3.643-0.471-1.27,6.842,1.584,4.826C37.552,52.005,36.353,48.335,34.647,48.114z"/>
<path fill="#F5BC2C" d="M53.341,48.114c-1.705,0.221-2.906,3.891-1.584,4.826C54.61,54.956,56.983,47.644,53.341,48.114z"/>
<path fill="#FDCA47" d="M53.222,48.136c-3.49-0.992-7.957-5.742-16.447-5.168c0.148,1.867-0.342,3.984-1.98,5.176
	c0,0-0.008,1.678,0.59,4.748c0.979,5.027,5.039,7,8.609,7c3.572,0,7.635-1.973,8.611-7C53.202,49.819,53.222,48.136,53.222,48.136z"
	/>
<path fill="#F5F5F5" d="M51.394,49.798c-0.963,2.51-4.881,2.141-5.6,0.385C46.339,47.362,50.864,47.122,51.394,49.798z"/>
<path fill="#45332C" d="M46.794,49.53c0,2.213,3.201,2.213,3.201,0C49.995,47.476,46.794,47.476,46.794,49.53z"/>
<path fill="#45332C" d="M51.394,49.778c0-2.693-5.6-2.693-5.6,0.428C46.595,47.646,50.595,47.646,51.394,49.778z"/>
<path fill="#F5F5F5" d="M36.595,49.798c0.963,2.51,4.883,2.141,5.6,0.385C41.649,47.362,37.124,47.122,36.595,49.798z"/>
<path fill="#45332C" d="M41.194,49.53c0,2.213-3.199,2.213-3.199,0C37.995,47.476,41.194,47.476,41.194,49.53z"/>
<path fill="#45332C" d="M36.595,49.778c0-2.693,5.6-2.693,5.6,0.426C41.396,47.646,37.394,47.646,36.595,49.778z"/>
<path fill="#D99025" d="M43.995,55.325c-1.611-0.428-4,0.201-4,0.201c0.91,0.893,1.576,2.049,4,2.049c2.777,0,3.248-1.313,4-2.049
	C47.995,55.526,45.604,54.896,43.995,55.325z"/>
<g>
	<path fill="#FFFFFF" d="M40.558,55.56c1.711,1.59,5.172,1.602,6.896,0C45.626,55.647,42.396,55.647,40.558,55.56z"/>
</g>
<path fill="#E6A400" d="M51.181,47.462c-1.719-0.709-4.07-0.848-5.279-0.375c-0.256,0.1-0.246,0.709-0.021,0.648
	c1.732-0.473,3.727-0.508,5.365,0.063C51.466,47.876,51.438,47.567,51.181,47.462z"/>
<path fill="#E6A400" d="M36.808,47.462c1.719-0.709,4.072-0.848,5.279-0.375c0.256,0.1,0.248,0.709,0.021,0.648
	c-1.73-0.473-3.725-0.508-5.365,0.063C36.522,47.876,36.55,47.567,36.808,47.462z"/>
<path fill="#E6A400" d="M45.995,53.413c0,1.303-4,1.303-4,0C41.995,53.116,45.995,53.116,45.995,53.413z"/>
<path fill="#E32B56" d="M29.386,61.997c-1.199-0.834-5.648-3.027-5.648-3.027h-7.451c0,0-4.455,2.197-5.66,3.029L29.386,61.997z"/>
<path fill="#E6A400" d="M23.538,59.077c0-0.654,0-3.551,0-3.551h-7.092c0,0,0,2.854,0,3.551
	C16.446,61.95,23.538,61.95,23.538,59.077z"/>
<path fill="#EA8800" d="M11.806,49.396c-7.721,4.559-0.932,8.707-3.131,10.672C12.946,62.72,23.403,58.149,11.806,49.396z"/>
<path fill="#D67C00" d="M9.501,51.128c1.895,7.277,5.795,7.527,5.469,8.844C18.597,58.073,18.63,51.938,9.501,51.128z"/>
<path fill="#EA8800" d="M28.19,49.396c7.723,4.559,0.934,8.707,3.133,10.672C27.052,62.72,16.595,58.149,28.19,49.396z"/>
<path fill="#D67C00" d="M30.499,51.128c-1.896,7.277-5.797,7.527-5.471,8.844C21.401,58.073,21.368,51.938,30.499,51.128z"/>
<path fill="#EA8800" d="M9.435,49.212h21.117C33.624,32.687,6.362,32.687,9.435,49.212z"/>
<path fill="#D67C00" d="M9.409,49.009c0,0,12.02,4.486,20.354-0.713c-1.684,0.318-4.416-6.125-17.215-6.607
	C12.079,49.009,9.829,47.022,9.409,49.009z"/>
<path fill="#CFD8DD" d="M29.562,48.034c0.895-12.365-20.035-12.365-19.139,0C11.202,37.649,28.78,37.649,29.562,48.034z"/>
<path fill="#FFFFFF" d="M29.562,47.634c0.895-12.365-20.035-12.365-19.139,0C11.202,37.249,28.78,37.249,29.562,47.634z"/>
<path fill="#F5BC2C" d="M10.646,48.114c-3.643-0.471-1.268,6.842,1.584,4.826C13.552,52.005,12.351,48.335,10.646,48.114z"/>
<path fill="#F5BC2C" d="M29.339,48.114c-1.705,0.221-2.904,3.891-1.582,4.826C30.608,54.956,32.981,47.644,29.339,48.114z"/>
<path fill="#FDCA47" d="M29.222,48.136c-3.492-0.992-7.959-5.742-16.449-5.168c0.148,1.867-0.342,3.984-1.98,5.176
	c0,0-0.008,1.678,0.592,4.748c0.977,5.027,5.039,7,8.609,7s7.633-1.973,8.609-7C29.2,49.819,29.222,48.136,29.222,48.136z"/>
<path fill="#F5F5F5" d="M27.394,49.798c-0.963,2.51-4.883,2.141-5.602,0.385C22.339,47.362,26.864,47.122,27.394,49.798z"/>
<path fill="#45332C" d="M22.792,49.53c0,2.213,3.201,2.213,3.201,0C25.993,47.476,22.792,47.476,22.792,49.53z"/>
<path fill="#45332C" d="M27.394,49.778c0-2.693-5.602-2.693-5.602,0.428C22.593,47.646,26.593,47.646,27.394,49.778z"/>
<path fill="#F5F5F5" d="M12.593,49.798c0.965,2.51,4.883,2.141,5.6,0.385C17.647,47.362,13.124,47.122,12.593,49.798z"/>
<path fill="#45332C" d="M17.192,49.53c0,2.213-3.199,2.213-3.199,0C13.993,47.476,17.192,47.476,17.192,49.53z"/>
<path fill="#45332C" d="M12.593,49.778c0-2.693,5.6-2.693,5.6,0.426C17.394,47.646,13.394,47.646,12.593,49.778z"/>
<path fill="#D99025" d="M19.993,55.325c-1.611-0.428-4,0.201-4,0.201c0.91,0.893,1.576,2.049,4,2.049c2.777,0,3.248-1.313,4-2.049
	C23.993,55.526,21.603,54.896,19.993,55.325z"/>
<g>
	<path fill="#FFFFFF" d="M16.556,55.56c1.713,1.59,5.174,1.602,6.896,0C21.626,55.647,18.396,55.647,16.556,55.56z"/>
</g>
<path fill="#E6A400" d="M27.181,47.462c-1.721-0.709-4.072-0.848-5.279-0.375c-0.256,0.1-0.248,0.709-0.023,0.648
	c1.732-0.473,3.727-0.508,5.367,0.063C27.464,47.876,27.438,47.567,27.181,47.462z"/>
<path fill="#E6A400" d="M12.808,47.462c1.717-0.709,4.07-0.848,5.279-0.375c0.254,0.1,0.246,0.709,0.021,0.648
	c-1.732-0.473-3.727-0.508-5.365,0.063C12.521,47.876,12.548,47.567,12.808,47.462z"/>
<path fill="#E6A400" d="M21.993,53.413c0,1.303-4,1.303-4,0C17.993,53.116,21.993,53.116,21.993,53.413z"/>
</svg>
