<?xml version="1.0" encoding="utf-8"?>
<!-- Generator: Adobe Illustrator 15.0.0, SVG Export Plug-In . SVG Version: 6.00 Build 0)  -->
<!DOCTYPE svg PUBLIC "-//W3C//DTD SVG 1.1//EN" "http://www.w3.org/Graphics/SVG/1.1/DTD/svg11.dtd">
<svg version="1.1" id="Layer_1" xmlns="http://www.w3.org/2000/svg" xmlns:xlink="http://www.w3.org/1999/xlink" x="0px" y="0px"
	 width="64px" height="64px" viewBox="0 0 64 64" enable-background="new 0 0 64 64" xml:space="preserve">
<path fill="#C8A35D" d="M37.213,5.487C31.504-1.617,3.194,1.23,3.194,22.182C3.312,33.438,5.205,59.006,25.94,59.006
	c20.731,0,22.628-25.46,22.866-36.824C48.807,15.202,44.66,6.951,37.213,5.487z"/>
<path fill="#A3864C" d="M3.522,29.059c1.021,12.42,5.269,29.947,22.438,29.947c17.226,0,21.444-17.566,22.518-30.029
	c-0.563-5.738-4.046-13.149-11.597-21.887C21.404,16.867,4.685,15.345,3.522,29.059z"/>
<path fill="#E6EBEF" d="M7.078,50.958c2.301-1.631,11.848-5.936,11.848-5.936h14.223c0,0,9.537,4.297,11.824,5.934
	C48.299,53.325,49,62.009,49,62.009H3C3,62.009,3.74,53.317,7.078,50.958"/>
<rect x="19.58" y="41.009" fill="#BF8D69" width="12.838" height="10.535"/>
<path fill="#8E3ED6" d="M31.75,47.022c-1.764,1.143-3.717,1.797-5.75,1.797s-3.986-0.654-5.75-1.799L26,62.009L31.75,47.022z"/>
<path fill="#BEC3CF" d="M17.83,45.522c-1.742,6.104-0.932,9.998-0.932,9.998c1.469-1.529,4.35-3.221,4.352-3.223
	c-1.045,1.709-1.873,4.514-1.873,4.514C22.506,57.39,26,62.009,26,62.009S21.139,45.772,17.83,45.522z"/>
<path fill="#E6EBEF" d="M20.004,42.372c0,0-0.859-0.412-1.225,0.359c-2.154,4.582-1.438,11.061-1.438,11.061
	c1.467-1.529,4.398-1.984,4.398-1.986c-1.045,1.709-1.49,3.633-1.49,3.633c2.211,1.209,5.75,6.57,5.75,6.57
	S23.045,52.095,20.004,42.372z"/>
<path fill="#BEC3CF" d="M34.17,45.522c1.74,6.104,0.93,9.998,0.93,9.998c-1.467-1.529-4.35-3.221-4.35-3.223
	c1.045,1.709,1.871,4.514,1.871,4.514C29.492,57.39,26,62.009,26,62.009S30.861,45.772,34.17,45.522z"/>
<path fill="#E6EBEF" d="M31.994,42.372c0,0,0.859-0.412,1.227,0.359c2.154,4.582,1.438,11.061,1.438,11.061
	c-1.467-1.529-4.398-1.984-4.4-1.986c1.045,1.709,1.492,3.633,1.492,3.633c-2.211,1.209-5.75,6.57-5.75,6.57
	S28.953,52.095,31.994,42.372z"/>
<path fill="#CFD7DC" d="M8.637,62.009c0.49-2.189-0.086-5.518-0.697-7.35C7.371,52.952,7.586,60.804,8.637,62.009"/>
<path fill="#EBBEA0" d="M41.804,21.414c-2.363-5.573-6.696-11.619-6.696-11.619C19.25,19.323,5.845,14.542,9.567,32.601
	c1.767,8.568,12.367,15.205,16.544,15.205c4.172,0,15.039-6.586,16.537-15.205C43.516,27.606,42.905,24.01,41.804,21.414z"/>
<path fill="#F5F5F5" d="M40.606,25.14c-1.888,4.916-9.565,4.194-10.973,0.757C30.703,20.37,39.57,19.898,40.606,25.14z"/>
<path fill="#45332C" d="M31.594,24.616c0,4.336,6.27,4.336,6.27,0C37.863,20.591,31.594,20.591,31.594,24.616z"/>
<path fill="#45332C" d="M40.606,25.104c0-5.279-10.973-5.279-10.973,0.835C31.203,20.924,39.039,20.924,40.606,25.104z"/>
<path fill="#F5F5F5" d="M11.61,25.14c1.887,4.916,9.566,4.194,10.972,0.757C21.514,20.37,12.648,19.898,11.61,25.14z"/>
<path fill="#45332C" d="M20.622,24.616c0,4.336-6.27,4.336-6.27,0C14.352,20.591,20.622,20.591,20.622,24.616z"/>
<path fill="#45332C" d="M11.61,25.104c0-5.276,10.972-5.276,10.972,0.833C21.015,20.924,13.177,20.924,11.61,25.104z"/>
<path fill="#F5F5F5" d="M31.98,23.562c0,1.085,1.567,1.085,1.567,0C33.548,22.557,31.98,22.557,31.98,23.562z"/>
<path fill="#F5F5F5" d="M16.501,23.343c0,1.082-1.566,1.082-1.566,0C14.935,22.336,16.501,22.336,16.501,23.343z"/>
<path fill="#BF8C6B" d="M33.943,37.747c-1.473,1.668-2.395,4.62-7.835,4.62c-4.747,0-6.055-2.601-7.837-4.62H33.943z"/>
<path fill="#FFFFFF" d="M32.965,37.798c-3.225,3.303-10.448,3.349-13.715,0H32.965z"/>
<path fill="#BF8C6B" d="M26.109,37.48c-3.072-1.347-3.095-0.053-7.838,0.267c5.989,0.671,9.685,0.671,15.672,0
	C29.203,37.428,29.178,36.134,26.109,37.48z"/>
<path fill="#BF8D69" d="M39.94,20.402c-3.323-1.369-7.87-1.637-10.206-0.722c-0.492,0.192-0.477,1.371-0.043,1.253
	c3.349-0.911,7.203-0.982,10.375,0.12C40.491,21.204,40.439,20.608,39.94,20.402z"/>
<path fill="#BF8D69" d="M12.154,20.405c3.323-1.37,7.871-1.637,10.207-0.725c0.493,0.192,0.478,1.373,0.042,1.253
	c-3.349-0.911-7.202-0.982-10.372,0.122C11.604,21.204,11.655,20.608,12.154,20.405z"/>
<path fill="#BF8D69" d="M30.025,33.002c0,2.517-7.731,2.517-7.731,0C22.294,32.424,30.025,32.424,30.025,33.002z"/>
<path fill="#E6EBEF" d="M54.533,60.843l-11.541-1.334c0,0,3.189-9.229,3.633-14.797c0.375-4.717,9.389,0.373,9.096,2.559
	C55.111,51.812,54.533,60.843,54.533,60.843z"/>
<path fill="#EBBEA0" d="M48.301,47.655c-1.736-1.486-1.736-6.906,0-8.391C55.988,32.702,55.986,54.222,48.301,47.655z"/>
<g>
	<path fill="#CAE8F0" d="M53.5,47.009v-7.5c0.686,0,1.25-0.564,1.25-1.252c0-0.686-0.564-1.248-1.25-1.248h-5
		c-0.689,0-1.25,0.563-1.25,1.248c0,0.688,0.561,1.252,1.25,1.252v7.5c0,3.125-7.5,10.652-7.5,12.5c0,2.5,7.422,2.5,10,2.5
		s10,0,10-2.5C61,57.661,53.5,50.134,53.5,47.009z"/>
	<path fill="#92C932" d="M47.875,50.759c-2.178,3.783-5.625,7.42-5.625,8.459c0,1.049,5.385,1.541,8.75,1.541
		c3.363,0,8.75-0.492,8.75-1.541c0-1.039-3.449-4.676-5.625-8.459H47.875z"/>
	<path fill="#A6E639" d="M48.455,51.696c-1.736,3.016-4.855,6.002-4.484,6.744C45.459,61.415,48.455,51.696,48.455,51.696z"/>
	<path fill="#7AB51D" d="M51,60.759c3.363,0,8.75-0.492,8.75-1.541c0-1.039-3.018-4.566-5.625-8.459
		C57.047,56.495,57.859,59.776,51,60.759z"/>
</g>
<path fill="#EBBEA0" d="M53.447,39.526l-2.619,0.002c-1.664,0-1.664,2.219,0,2.219h-1.109c-0.666,0-1.109,0.557-1.109,1.111
	s0.555,1.109,1.109,1.109c-1.555,0-1.555,2.219,0,2.219h1.109c-1.555,0-1.443,2.219,0,2.221h2.74
	c0.873,0.039,1.725-1.279,1.473-2.158c-0.102-0.363,0.969-1.246,0.4-2.281c-0.156-0.285,0.676-1.186-0.189-2.51
	C55.088,41.21,55.402,39.526,53.447,39.526z"/>
<path opacity="0.3" fill="#F5F5F5" d="M7.729,18.98c0,0,0,6.658,0,8.971c0,1.623,7.654,3.076,11.209,4.021
	c0.902,0.242,2.148,0.381,2.666-0.852c0.881-2.098,1.498-3.623,2.555-6.115c0.461-1.096,3.219-1.098,3.682,0
	c1.055,2.492,1.674,4.018,2.555,6.115c0.518,1.232,1.764,1.094,2.666,0.852c3.553-0.945,11.207-2.398,11.207-4.021
	c0-2.313,0-8.971,0-8.971H7.729z"/>
<path opacity="0.3" fill="#F5F5F5" d="M21.11,17.768L9.151,29.213c0,0,1.725,0.795,3.963,1.313l12.885-12.475
	C25.376,18.041,22.132,17.742,21.11,17.768z"/>
<path opacity="0.3" fill="#F5F5F5" d="M38.14,18.646l-9.08,8.793c0,0.324,0.703,2.754,1.797,3.279l12.287-11.906L38.14,18.646z"/>
<path opacity="0.7" fill="#F5F5F5" d="M29.454,30.305c0,0-2.275-4.57-2.703-5.414c-0.141-0.279-0.406-0.439-0.732-0.441
	c-0.275,0.018-0.602,0.115-0.77,0.441c-0.428,0.844-2.703,5.414-2.703,5.414c-0.115,0.225-1.092-0.119-0.979-0.344
	c0,0,2.277-4.57,2.707-5.416c0.305-0.596,0.986-0.98,1.742-0.98c0.002,0,0.004,0,0.004,0c0.75,0.002,1.402,0.377,1.707,0.98
	c0.428,0.846,2.705,5.416,2.705,5.416C30.546,30.186,29.54,30.475,29.454,30.305z"/>
<path fill="#302C3B" d="M44.999,20.123c-12.646-0.994-25.354-0.994-38,0c-0.051-0.664-0.104-1.328-0.156-1.994
	c12.75-1.004,25.561-1.004,38.314,0C45.103,18.795,45.052,19.459,44.999,20.123z"/>
</svg>
