<?xml version="1.0" encoding="utf-8"?>
<!-- Generator: Adobe Illustrator 15.0.0, SVG Export Plug-In . SVG Version: 6.00 Build 0)  -->
<!DOCTYPE svg PUBLIC "-//W3C//DTD SVG 1.1//EN" "http://www.w3.org/Graphics/SVG/1.1/DTD/svg11.dtd">
<svg version="1.1" id="Layer_1" xmlns="http://www.w3.org/2000/svg" xmlns:xlink="http://www.w3.org/1999/xlink" x="0px" y="0px"
	 width="64px" height="64px" viewBox="0 0 64 64" enable-background="new 0 0 64 64" xml:space="preserve">
<path fill="#018BC9" d="M25.692,34.967c-0.635-1.047-4.029-2.783-4.029-2.783h-9.275c0,0-5.545,2.746-7.045,3.785
	C2.833,37.705,2.332,43.07,2,48.742L3,62H29C29,62,29.217,40.791,25.692,34.967z"/>
<path fill="#E6A400" d="M21.432,33.189c0-0.816,0-4.438,0-4.438h-8.863c0,0,0,3.568,0,4.438
	C12.569,36.781,21.432,36.781,21.432,33.189z"/>
<rect x="2" y="48.764" fill="#FDCA47" width="4.091" height="13.236"/>
<path fill="#EA8800" d="M17,2C4.029,2,4.027,9.805,4.027,19.563h25.946C29.973,9.805,29.969,2,17,2z"/>
<path fill="#F5BC2C" d="M6.602,23.357c1.406-1.309,0.129-6.441-1.683-6.75C1.048,15.947,3.57,26.18,6.602,23.357z"/>
<path fill="#F5BC2C" d="M27.397,23.357c-1.404-1.309-0.129-6.441,1.684-6.75C32.952,15.947,30.43,26.178,27.397,23.357z"/>
<path fill="#FDCA47" d="M17,7.205c-13.552,0-8.092,1.568-11.709,9.527c0,0,0.025,3.65,0.783,7.566
	c0.977,5.049,6.658,8.924,10.926,8.924s9.947-3.875,10.924-8.924c0.758-3.916,0.783-7.566,0.783-7.566
	C25.09,8.773,30.551,7.205,17,7.205z"/>
<path fill="#F5F5F5" d="M26.627,17.883c-1.254,3.264-6.352,2.785-7.285,0.502C20.051,14.717,25.938,14.402,26.627,17.883z"/>
<path fill="#45332C" d="M20.643,17.535c0,2.879,4.162,2.879,4.162,0C24.805,14.861,20.643,14.861,20.643,17.535z"/>
<path fill="#45332C" d="M26.627,17.859c0-3.506-7.285-3.506-7.285,0.555C20.381,15.084,25.586,15.084,26.627,17.859z"/>
<path fill="#F5F5F5" d="M7.374,17.883c1.252,3.264,6.35,2.785,7.285,0.502C13.948,14.717,8.063,14.402,7.374,17.883z"/>
<path fill="#45332C" d="M13.358,17.535c0,2.879-4.164,2.879-4.164,0C9.194,14.863,13.358,14.863,13.358,17.535z"/>
<path fill="#45332C" d="M7.374,17.859c0-3.504,7.285-3.504,7.285,0.553C13.618,15.084,8.413,15.084,7.374,17.859z"/>
<path fill="#D99025" d="M17,26.113c-2.098-0.555-5.205,0.264-5.205,0.264c1.184,1.16,2.051,2.666,5.205,2.666
	c3.613,0,4.225-1.709,5.203-2.666C22.204,26.377,19.092,25.557,17,26.113z"/>
<path fill="#FFFFFF" d="M12.528,26.42c2.227,2.07,6.73,2.084,8.971,0C19.124,26.533,14.92,26.533,12.528,26.42z"/>
<path fill="#E6A400" d="M26.35,14.66c-2.236-0.922-5.299-1.102-6.869-0.488c-0.332,0.131-0.322,0.924-0.029,0.844
	c2.254-0.613,4.848-0.66,6.98,0.082C26.719,15.197,26.684,14.797,26.35,14.66z"/>
<path fill="#E6A400" d="M7.651,14.66c2.234-0.922,5.295-1.102,6.867-0.488c0.332,0.131,0.322,0.924,0.027,0.844
	c-2.252-0.613-4.846-0.66-6.979,0.082C7.28,15.197,7.315,14.797,7.651,14.66z"/>
<path fill="#D67C00" d="M23.258,26.951c-2.441-2.568-10.027-2.59-12.49,0C14.079,26.771,19.928,26.771,23.258,26.951z"/>
<path fill="#EA8800" d="M23.258,26.951c-3.102-3.262-9.369-3.283-12.49,0C11.309,26.268,22.561,26.078,23.258,26.951z"/>
<path fill="#EA8800" d="M27.36,6.01c4.834,6.627-17.6,4.898-22.266,3.93C5.094,9.939,11.948,0.594,27.36,6.01z"/>
<path fill="#D67C00" d="M5.094,9.939c6.701,1.41,27.189,1.217,20.742-5.773C36.35,12.555,10.768,13.303,5.094,9.939z"/>
<path fill="#E6A400" d="M19.602,22.877c0,1.693-5.205,1.693-5.205,0C14.397,22.488,19.602,22.488,19.602,22.877z"/>
<path fill="#006DAE" d="M58.691,35.967c-1.492-1.043-7.029-3.783-7.029-3.783h-9.275c0,0-3.408,1.734-4.045,2.785
	C34.809,40.789,35,62,35,62h26l1-13.258C61.688,43.082,61.174,37.701,58.691,35.967z"/>
<path fill="#E6A400" d="M51.432,33.189c0-0.816,0-4.438,0-4.438h-8.863c0,0,0,3.568,0,4.438
	C42.568,36.781,51.432,36.781,51.432,33.189z"/>
<rect x="57.908" y="48.764" fill="#FDCA47" width="4.092" height="13.236"/>
<path fill="#E32B56" d="M53.387,61.996c-1.197-0.832-5.646-3.025-5.646-3.025h-7.451c0,0-4.455,2.197-5.66,3.029L53.387,61.996z"/>
<path fill="#E6A400" d="M47.539,59.076c0-0.652,0-3.551,0-3.551h-7.09c0,0,0,2.855,0,3.551
	C40.449,61.949,47.539,61.949,47.539,59.076z"/>
<path fill="#EA8800" d="M35.809,49.396c-7.722,4.559-0.934,8.707-3.131,10.672C36.949,62.721,47.404,58.15,35.809,49.396z"/>
<path fill="#D67C00" d="M33.502,51.129c1.896,7.277,5.797,7.527,5.471,8.844C42.6,58.074,42.633,51.939,33.502,51.129z"/>
<path fill="#EA8800" d="M52.193,49.396c7.723,4.559,0.934,8.707,3.133,10.672C51.055,62.721,40.598,58.15,52.193,49.396z"/>
<path fill="#D67C00" d="M54.5,51.129c-1.896,7.277-5.795,7.527-5.471,8.844C45.404,58.074,45.371,51.939,54.5,51.129z"/>
<path fill="#EA8800" d="M33.438,49.213h21.115C57.627,32.688,30.365,32.688,33.438,49.213z"/>
<path fill="#D67C00" d="M33.412,49.01c0,0,12.02,4.486,20.352-0.713c-1.682,0.318-4.416-6.125-17.213-6.607
	C36.082,49.01,33.832,47.023,33.412,49.01z"/>
<path fill="#CFD8DD" d="M53.563,48.035c0.896-12.365-20.033-12.365-19.139,0C35.205,37.65,52.783,37.65,53.563,48.035z"/>
<path fill="#FFFFFF" d="M53.563,47.635c0.896-12.365-20.033-12.365-19.139,0C35.205,37.25,52.783,37.25,53.563,47.635z"/>
<path fill="#F5BC2C" d="M34.648,48.115c-3.643-0.471-1.27,6.842,1.584,4.826C37.553,52.006,36.354,48.336,34.648,48.115z"/>
<path fill="#F5BC2C" d="M53.342,48.115c-1.705,0.221-2.906,3.891-1.584,4.826C54.611,54.957,56.984,47.645,53.342,48.115z"/>
<path fill="#FDCA47" d="M53.223,48.137c-3.49-0.992-7.957-5.742-16.447-5.168c0.148,1.867-0.342,3.984-1.98,5.176
	c0,0-0.008,1.678,0.59,4.748c0.979,5.027,5.039,7,8.609,7c3.572,0,7.635-1.973,8.611-7C53.203,49.82,53.223,48.137,53.223,48.137z"
	/>
<path fill="#F5F5F5" d="M51.395,49.799c-0.963,2.51-4.881,2.141-5.6,0.385C46.34,47.363,50.865,47.123,51.395,49.799z"/>
<path fill="#45332C" d="M46.795,49.531c0,2.213,3.201,2.213,3.201,0C49.996,47.477,46.795,47.477,46.795,49.531z"/>
<path fill="#45332C" d="M51.395,49.779c0-2.693-5.6-2.693-5.6,0.428C46.596,47.646,50.596,47.646,51.395,49.779z"/>
<path fill="#F5F5F5" d="M36.596,49.799c0.963,2.51,4.883,2.141,5.6,0.385C41.65,47.363,37.125,47.123,36.596,49.799z"/>
<path fill="#45332C" d="M41.195,49.531c0,2.213-3.199,2.213-3.199,0C37.996,47.477,41.195,47.477,41.195,49.531z"/>
<path fill="#45332C" d="M36.596,49.779c0-2.693,5.6-2.693,5.6,0.426C41.396,47.646,37.395,47.646,36.596,49.779z"/>
<path fill="#D99025" d="M43.996,55.326c-1.611-0.428-4,0.201-4,0.201c0.91,0.893,1.576,2.049,4,2.049c2.777,0,3.248-1.313,4-2.049
	C47.996,55.527,45.605,54.896,43.996,55.326z"/>
<path fill="#FFFFFF" d="M40.559,55.561c1.711,1.59,5.172,1.602,6.896,0C45.627,55.648,42.396,55.648,40.559,55.561z"/>
<path fill="#E6A400" d="M51.182,47.463c-1.719-0.709-4.07-0.848-5.279-0.375c-0.256,0.1-0.246,0.709-0.021,0.648
	c1.732-0.473,3.727-0.508,5.365,0.063C51.467,47.877,51.439,47.568,51.182,47.463z"/>
<path fill="#E6A400" d="M36.809,47.463c1.719-0.709,4.072-0.848,5.279-0.375c0.256,0.1,0.248,0.709,0.021,0.648
	c-1.73-0.473-3.725-0.508-5.365,0.063C36.523,47.877,36.551,47.568,36.809,47.463z"/>
<path fill="#E6A400" d="M45.996,53.414c0,1.303-4,1.303-4,0C41.996,53.117,45.996,53.117,45.996,53.414z"/>
<path fill="#E32B56" d="M29.386,61.996c-1.198-0.832-5.647-3.025-5.647-3.025h-7.451c0,0-4.455,2.197-5.66,3.029L29.386,61.996z"/>
<path fill="#E6A400" d="M23.539,59.076c0-0.652,0-3.551,0-3.551h-7.091c0,0,0,2.855,0,3.551
	C16.448,61.949,23.539,61.949,23.539,59.076z"/>
<path fill="#EA8800" d="M11.807,49.396c-7.722,4.559-0.933,8.707-3.131,10.672C12.948,62.721,23.404,58.15,11.807,49.396z"/>
<path fill="#D67C00" d="M9.501,51.129c1.896,7.277,5.796,7.527,5.47,8.844C18.598,58.074,18.631,51.939,9.501,51.129z"/>
<path fill="#EA8800" d="M28.192,49.396c7.722,4.559,0.934,8.707,3.133,10.672C27.053,62.721,16.596,58.15,28.192,49.396z"/>
<path fill="#D67C00" d="M30.5,51.129c-1.896,7.277-5.796,7.527-5.471,8.844C21.403,58.074,21.37,51.939,30.5,51.129z"/>
<path fill="#EA8800" d="M9.436,49.213h21.116C33.625,32.688,6.364,32.688,9.436,49.213z"/>
<path fill="#D67C00" d="M9.411,49.01c0,0,12.02,4.486,20.353-0.713c-1.683,0.318-4.416-6.125-17.214-6.607
	C12.081,49.01,9.831,47.023,9.411,49.01z"/>
<path fill="#CFD8DD" d="M29.562,48.035c0.896-12.365-20.034-12.365-19.139,0C11.204,37.65,28.782,37.65,29.562,48.035z"/>
<path fill="#FFFFFF" d="M29.562,47.635c0.896-12.365-20.034-12.365-19.139,0C11.204,37.25,28.782,37.25,29.562,47.635z"/>
<path fill="#F5BC2C" d="M10.647,48.115c-3.643-0.471-1.269,6.842,1.584,4.826C13.552,52.006,12.352,48.336,10.647,48.115z"/>
<path fill="#F5BC2C" d="M29.34,48.115c-1.705,0.221-2.905,3.891-1.583,4.826C30.61,54.957,32.983,47.645,29.34,48.115z"/>
<path fill="#FDCA47" d="M29.222,48.137c-3.491-0.992-7.958-5.742-16.448-5.168c0.148,1.867-0.342,3.984-1.98,5.176
	c0,0-0.008,1.678,0.591,4.748c0.978,5.027,5.039,7,8.609,7c3.571,0,7.634-1.973,8.61-7C29.202,49.82,29.222,48.137,29.222,48.137z"
	/>
<path fill="#F5F5F5" d="M27.394,49.799c-0.963,2.51-4.882,2.141-5.601,0.385C22.339,47.363,26.865,47.123,27.394,49.799z"/>
<path fill="#45332C" d="M22.793,49.531c0,2.213,3.201,2.213,3.201,0C25.995,47.477,22.793,47.477,22.793,49.531z"/>
<path fill="#45332C" d="M27.394,49.779c0-2.693-5.601-2.693-5.601,0.428C22.594,47.646,26.594,47.646,27.394,49.779z"/>
<path fill="#F5F5F5" d="M12.594,49.799c0.964,2.51,4.883,2.141,5.6,0.385C17.649,47.363,13.125,47.123,12.594,49.799z"/>
<path fill="#45332C" d="M17.194,49.531c0,2.213-3.199,2.213-3.199,0C13.995,47.477,17.194,47.477,17.194,49.531z"/>
<path fill="#45332C" d="M12.594,49.779c0-2.693,5.6-2.693,5.6,0.426C17.395,47.646,13.394,47.646,12.594,49.779z"/>
<path fill="#D99025" d="M19.995,55.326c-1.611-0.428-4,0.201-4,0.201c0.91,0.893,1.576,2.049,4,2.049c2.777,0,3.248-1.313,4-2.049
	C23.995,55.527,21.604,54.896,19.995,55.326z"/>
<path fill="#FFFFFF" d="M16.557,55.561c1.712,1.59,5.173,1.602,6.896,0C21.626,55.648,18.396,55.648,16.557,55.561z"/>
<path fill="#E6A400" d="M27.181,47.463c-1.72-0.709-4.071-0.848-5.279-0.375c-0.256,0.1-0.247,0.709-0.022,0.648
	c1.732-0.473,3.727-0.508,5.366,0.063C27.465,47.877,27.439,47.568,27.181,47.463z"/>
<path fill="#E6A400" d="M12.808,47.463c1.718-0.709,4.071-0.848,5.279-0.375c0.255,0.1,0.247,0.709,0.021,0.648
	c-1.731-0.473-3.726-0.508-5.365,0.063C12.522,47.877,12.549,47.568,12.808,47.463z"/>
<path fill="#E6A400" d="M21.995,53.414c0,1.303-4,1.303-4,0C17.995,53.117,21.995,53.117,21.995,53.414z"/>
<path fill="#EA8800" d="M47,2C34.029,2,34.025,9.806,34.025,19.563h25.947C59.973,9.806,59.969,2,47,2z"/>
<path fill="#F5BC2C" d="M36.602,23.357c1.406-1.309,0.131-6.44-1.682-6.75C31.047,15.948,33.57,26.179,36.602,23.357z"/>
<path fill="#F5BC2C" d="M57.396,23.357c-1.404-1.309-0.129-6.44,1.684-6.75C62.951,15.948,60.43,26.178,57.396,23.357z"/>
<path fill="#FDCA47" d="M47,7.204c-13.551,0-8.09,1.57-11.709,9.529c0,0,0.027,3.65,0.783,7.565
	c0.979,5.048,6.658,8.924,10.926,8.924s9.947-3.876,10.924-8.924c0.758-3.915,0.785-7.565,0.785-7.565
	C55.09,8.774,60.551,7.204,47,7.204z"/>
<path fill="#F5F5F5" d="M56.627,17.883c-1.254,3.264-6.352,2.784-7.285,0.502C50.051,14.716,55.938,14.401,56.627,17.883z"/>
<path fill="#45332C" d="M50.643,17.534c0,2.879,4.162,2.879,4.162,0C54.805,14.862,50.643,14.862,50.643,17.534z"/>
<path fill="#45332C" d="M56.627,17.858c0-3.504-7.285-3.504-7.285,0.555C50.381,15.083,55.586,15.083,56.627,17.858z"/>
<path fill="#F5F5F5" d="M37.373,17.883c1.254,3.264,6.352,2.784,7.285,0.502C43.949,14.716,38.063,14.401,37.373,17.883z"/>
<path fill="#45332C" d="M43.357,17.534c0,2.879-4.164,2.879-4.164,0C39.193,14.862,43.357,14.862,43.357,17.534z"/>
<path fill="#45332C" d="M37.373,17.858c0-3.504,7.285-3.504,7.285,0.554C43.617,15.083,38.414,15.083,37.373,17.858z"/>
<path fill="#E6A400" d="M56.35,14.66c-2.236-0.922-5.297-1.102-6.869-0.487c-0.332,0.129-0.322,0.924-0.027,0.844
	c2.252-0.614,4.846-0.661,6.979,0.081C56.719,15.198,56.684,14.798,56.35,14.66z"/>
<path fill="#E6A400" d="M37.65,14.66c2.236-0.922,5.297-1.102,6.867-0.487c0.332,0.129,0.322,0.924,0.029,0.844
	c-2.254-0.614-4.848-0.662-6.98,0.081C37.279,15.198,37.314,14.798,37.65,14.66z"/>
<path fill="#EA8800" d="M57.359,6.01c4.832,6.628-17.6,4.897-22.264,3.931C35.096,9.94,41.947,0.595,57.359,6.01z"/>
<path fill="#D67C00" d="M35.096,9.94c6.699,1.41,27.188,1.215,20.74-5.773C66.35,12.554,40.77,13.302,35.096,9.94z"/>
<path fill="#E6A400" d="M49.602,22.876c0,1.693-5.205,1.693-5.205,0C44.396,22.487,49.602,22.487,49.602,22.876z"/>
<path fill="#D99025" d="M47,26.019c-1.746-0.503-5.133,0.281-5.133,0.281c1.168,1.239,2.023,2.848,5.133,2.848
	c3.107,0,3.963-1.608,5.131-2.848C52.131,26.3,48.744,25.516,47,26.019z"/>
<path fill="#EA8800" d="M59.535,15.736l-1.168-0.359c0.086,1.482,0.041,3.906-0.113,5.197c-1.117,4.986-4.125,6.07-4.125,6.07
	s-0.43-1.063-1.568-1.625c-1.432-0.71-2.721-0.534-5.561-0.53c-2.842-0.004-4.131-0.18-5.563,0.53
	c-1.139,0.562-1.568,1.625-1.568,1.625s-3.004-1.083-4.123-6.065c-0.156-1.292-0.199-3.718-0.113-5.202l-1.168,0.359
	c0,0-0.264,4.466,0.73,7.968c2.146,7.554,6.926,9.519,11.805,9.519s9.656-1.965,11.803-9.519
	C59.799,20.202,59.535,15.736,59.535,15.736z M41.736,26.063c1.08-0.356,2.965-0.479,5.264-0.479c2.297,0,4.182,0.122,5.262,0.479
	c0.846,0.278-2.148,4.703-3.703,4.072c-0.676-0.278-0.896-0.837-0.896-0.837h-1.326c0,0-0.221,0.559-0.896,0.837
	C43.885,30.766,40.891,26.341,41.736,26.063z"/>
<path fill="#FFFFFF" d="M42.521,26.341c0.141,0.354,1.986,1.673,4.477,1.673c2.492,0,4.338-1.319,4.479-1.673
	C49.244,26.454,44.77,26.456,42.521,26.341z"/>
<path fill="#F5F5F5" d="M39.58,16.688"/>
</svg>
