<?xml version="1.0" encoding="utf-8"?>
<!-- Generator: Adobe Illustrator 15.0.0, SVG Export Plug-In . SVG Version: 6.00 Build 0)  -->
<!DOCTYPE svg PUBLIC "-//W3C//DTD SVG 1.1//EN" "http://www.w3.org/Graphics/SVG/1.1/DTD/svg11.dtd">
<svg version="1.1" id="Layer_1" xmlns="http://www.w3.org/2000/svg" xmlns:xlink="http://www.w3.org/1999/xlink" x="0px" y="0px"
	 width="64px" height="64px" viewBox="0 0 64 64" enable-background="new 0 0 64 64" xml:space="preserve">
<path fill="#018BC9" d="M43.692,35.967c-1.492-1.043-7.03-3.783-7.03-3.783h-9.274c0,0-5.546,2.746-7.045,3.785
	c-2.509,1.736-3.01,7.102-3.343,12.773L18,62h28l1-13.258C46.688,43.082,46.175,37.701,43.692,35.967z"/>
<path fill="#E6A400" d="M36.432,33.189c0-0.815,0-4.438,0-4.438h-8.863c0,0,0,3.568,0,4.438
	C27.568,36.781,36.432,36.781,36.432,33.189z"/>
<rect x="17" y="48.764" fill="#FDCA47" width="4.091" height="13.236"/>
<rect x="42.909" y="48.764" fill="#FDCA47" width="4.091" height="13.236"/>
<path fill="#EA8800" d="M32,2C19.03,2,19.026,9.806,19.026,19.563h25.947C44.974,9.806,44.97,2,32,2z"/>
<g>
	<path fill="#F5BC2C" d="M21.603,23.358c1.405-1.309,0.129-6.441-1.683-6.75C16.048,15.948,18.569,26.18,21.603,23.358z"/>
</g>
<g>
	<path fill="#F5BC2C" d="M42.397,23.358c-1.404-1.309-0.129-6.441,1.683-6.75C47.951,15.948,45.431,26.179,42.397,23.358z"/>
</g>
<path fill="#FDCA47" d="M32,7.205c-13.55,0-8.091,1.569-11.708,9.528c0,0,0.025,3.65,0.783,7.566
	c0.977,5.048,6.657,8.923,10.925,8.923s9.948-3.875,10.925-8.923c0.758-3.916,0.783-7.566,0.783-7.566
	C40.091,8.774,45.552,7.205,32,7.205z"/>
<path fill="#F5F5F5" d="M41.627,17.883c-1.253,3.265-6.351,2.785-7.285,0.503C35.052,14.717,40.938,14.402,41.627,17.883z"/>
<path fill="#45332C" d="M35.643,17.535c0,2.879,4.163,2.879,4.163,0C39.806,14.862,35.643,14.862,35.643,17.535z"/>
<path fill="#45332C" d="M41.627,17.859c0-3.505-7.285-3.505-7.285,0.555C35.382,15.084,40.587,15.084,41.627,17.859z"/>
<path fill="#F5F5F5" d="M22.373,17.883c1.253,3.265,6.351,2.785,7.285,0.503C28.948,14.717,23.063,14.402,22.373,17.883z"/>
<path fill="#45332C" d="M28.357,17.535c0,2.879-4.163,2.879-4.163,0C24.194,14.863,28.357,14.863,28.357,17.535z"/>
<path fill="#45332C" d="M22.373,17.859c0-3.504,7.285-3.504,7.285,0.554C28.618,15.084,23.413,15.084,22.373,17.859z"/>
<path fill="#D99025" d="M32,26.114c-2.097-0.556-5.204,0.264-5.204,0.264c1.184,1.159,2.051,2.665,5.204,2.665
	c3.613,0,4.226-1.709,5.204-2.665C37.204,26.378,34.093,25.557,32,26.114z"/>
<path fill="#FFFFFF" d="M27.528,26.42c2.227,2.07,6.73,2.084,8.971,0C34.123,26.533,29.921,26.534,27.528,26.42z"/>
<path fill="#E6A400" d="M41.35,14.66c-2.236-0.922-5.298-1.101-6.868-0.487c-0.332,0.13-0.322,0.924-0.029,0.844
	c2.254-0.613,4.848-0.661,6.98,0.082C41.72,15.198,41.685,14.798,41.35,14.66z"/>
<path fill="#E6A400" d="M22.65,14.66c2.235-0.922,5.296-1.101,6.868-0.487c0.332,0.13,0.322,0.924,0.027,0.844
	c-2.253-0.613-4.847-0.661-6.979,0.082C22.28,15.198,22.314,14.798,22.65,14.66z"/>
<path fill="#D67C00" d="M38.259,26.951c-2.441-2.567-10.028-2.589-12.49,0C29.078,26.772,34.929,26.771,38.259,26.951z"/>
<path fill="#EA8800" d="M38.259,26.951c-3.102-3.262-9.369-3.282-12.49,0C26.31,26.269,37.562,26.078,38.259,26.951z"/>
<path fill="#EA8800" d="M42.36,6.011c4.833,6.627-17.6,4.897-22.266,3.93C20.095,9.94,26.948,0.595,42.36,6.011z"/>
<path fill="#D67C00" d="M20.095,9.94c6.701,1.41,27.189,1.216,20.742-5.773C51.351,12.555,25.769,13.303,20.095,9.94z"/>
<path fill="#E6A400" d="M34.603,22.877c0,1.693-5.205,1.693-5.205,0C29.397,22.489,34.603,22.489,34.603,22.877z"/>
<path fill="#E32B56" d="M41.386,61.996c-1.198-0.832-5.647-3.025-5.647-3.025h-7.451c0,0-4.455,2.197-5.66,3.029L41.386,61.996z"/>
<path fill="#E6A400" d="M35.538,59.076c0-0.652,0-3.551,0-3.551h-7.091c0,0,0,2.855,0,3.551
	C28.447,61.949,35.538,61.949,35.538,59.076z"/>
<path fill="#EA8800" d="M23.807,49.396c-7.722,4.559-0.933,8.707-3.131,10.672C24.947,62.721,35.403,58.15,23.807,49.396z"/>
<path fill="#D67C00" d="M21.501,51.129c1.896,7.277,5.796,7.527,5.47,8.844C30.598,58.074,30.631,51.939,21.501,51.129z"/>
<path fill="#EA8800" d="M40.191,49.396c7.723,4.559,0.934,8.707,3.133,10.672C39.053,62.721,28.596,58.15,40.191,49.396z"/>
<path fill="#D67C00" d="M42.499,51.129c-1.896,7.277-5.796,7.527-5.471,8.844C33.402,58.074,33.369,51.939,42.499,51.129z"/>
<path fill="#EA8800" d="M21.436,49.213h21.116C45.625,32.688,18.363,32.688,21.436,49.213z"/>
<path fill="#D67C00" d="M21.41,49.01c0,0,12.02,4.486,20.353-0.713c-1.683,0.318-4.416-6.125-17.214-6.607
	C24.08,49.01,21.83,47.023,21.41,49.01z"/>
<path fill="#CFD8DD" d="M41.562,48.035c0.896-12.365-20.034-12.365-19.139,0C23.203,37.65,40.781,37.65,41.562,48.035z"/>
<path fill="#FFFFFF" d="M41.562,47.635c0.896-12.365-20.034-12.365-19.139,0C23.203,37.25,40.781,37.25,41.562,47.635z"/>
<path fill="#F5BC2C" d="M22.646,48.115c-3.643-0.471-1.269,6.842,1.584,4.826C25.552,52.006,24.352,48.336,22.646,48.115z"/>
<path fill="#F5BC2C" d="M41.34,48.115c-1.705,0.221-2.905,3.891-1.583,4.826C42.609,54.957,44.982,47.645,41.34,48.115z"/>
<path fill="#FDCA47" d="M41.222,48.137c-3.491-0.992-7.958-5.742-16.448-5.168c0.148,1.867-0.342,3.984-1.98,5.176
	c0,0-0.008,1.678,0.591,4.748c0.978,5.027,5.039,7,8.609,7c3.571,0,7.634-1.973,8.61-7C41.201,49.82,41.222,48.137,41.222,48.137z"
	/>
<path fill="#F5F5F5" d="M39.394,49.799c-0.963,2.51-4.882,2.141-5.601,0.385C34.339,47.363,38.864,47.123,39.394,49.799z"/>
<path fill="#45332C" d="M34.793,49.531c0,2.213,3.201,2.213,3.201,0C37.994,47.477,34.793,47.477,34.793,49.531z"/>
<path fill="#45332C" d="M39.394,49.779c0-2.693-5.601-2.693-5.601,0.428C34.594,47.646,38.594,47.646,39.394,49.779z"/>
<path fill="#F5F5F5" d="M24.594,49.799c0.964,2.51,4.883,2.141,5.6,0.385C29.648,47.363,25.124,47.123,24.594,49.799z"/>
<path fill="#45332C" d="M29.193,49.531c0,2.213-3.199,2.213-3.199,0C25.994,47.477,29.193,47.477,29.193,49.531z"/>
<path fill="#45332C" d="M24.594,49.779c0-2.693,5.6-2.693,5.6,0.426C29.395,47.646,25.394,47.646,24.594,49.779z"/>
<path fill="#D99025" d="M31.994,55.326c-1.611-0.428-4,0.201-4,0.201c0.91,0.893,1.576,2.049,4,2.049c2.777,0,3.248-1.313,4-2.049
	C35.994,55.527,33.604,54.896,31.994,55.326z"/>
<g>
	<path fill="#FFFFFF" d="M28.557,55.561c1.712,1.59,5.173,1.602,6.896,0C33.626,55.648,30.396,55.648,28.557,55.561z"/>
</g>
<path fill="#E6A400" d="M39.181,47.463c-1.72-0.709-4.071-0.848-5.279-0.375c-0.256,0.1-0.247,0.709-0.022,0.648
	c1.732-0.473,3.727-0.508,5.366,0.063C39.465,47.877,39.438,47.568,39.181,47.463z"/>
<path fill="#E6A400" d="M24.808,47.463c1.718-0.709,4.071-0.848,5.279-0.375c0.255,0.1,0.247,0.709,0.021,0.648
	c-1.731-0.473-3.726-0.508-5.365,0.063C24.521,47.877,24.549,47.568,24.808,47.463z"/>
<path fill="#E6A400" d="M33.994,53.414c0,1.303-4,1.303-4,0C29.994,53.117,33.994,53.117,33.994,53.414z"/>
</svg>
