<?xml version="1.0" encoding="utf-8"?>
<!-- Generator: Adobe Illustrator 15.0.0, SVG Export Plug-In . SVG Version: 6.00 Build 0)  -->
<!DOCTYPE svg PUBLIC "-//W3C//DTD SVG 1.1//EN" "http://www.w3.org/Graphics/SVG/1.1/DTD/svg11.dtd">
<svg version="1.1" id="Layer_1" xmlns="http://www.w3.org/2000/svg" xmlns:xlink="http://www.w3.org/1999/xlink" x="0px" y="0px"
	 width="64px" height="64px" viewBox="0 0 64 64" enable-background="new 0 0 64 64" xml:space="preserve">
<path fill="#018BC9" d="M7.434,52.576c2.5-1.389,12.877-5.061,12.877-5.061H35.77c0,0,10.367,3.664,12.854,5.059
	C52.238,54.596,53,62,53,62H3C3,62,3.805,54.59,7.434,52.576"/>
<rect x="21.021" y="44.094" fill="#BF8D69" width="13.955" height="7.063"/>
<path fill="#006DAE" d="M9.4,62c0.533-1.867-0.092-4.705-0.758-6.266C8.025,54.277,8.258,60.973,9.4,62"/>
<path fill="#006DAE" d="M46.598,62c-0.533-1.867,0.094-4.705,0.76-6.266C47.975,54.277,47.74,60.973,46.598,62"/>
<rect x="28" y="55.111" fill="#006DAE" width="3.125" height="6.889"/>
<path fill="#018BC9" d="M30.648,59.441c0,1.137-2.174,1.137-2.174,0S30.648,58.305,30.648,59.441z"/>
<path fill="#FFFFFF" d="M34.25,48.125c-1.918,0.766-4.041,1.205-6.25,1.205s-4.334-0.439-6.25-1.205L28,58.172L34.25,48.125z"/>
<path fill="#006DAE" d="M19.119,47.119c-1.893,4.092-1.012,6.703-1.012,6.703c1.596-1.025,4.727-2.158,4.729-2.16
	c-1.135,1.145-2.035,3.025-2.035,3.025c3.4,0.389,7.199,3.484,7.199,3.484S22.715,47.287,19.119,47.119z"/>
<path fill="#018BC9" d="M21.482,45.006c0,0-0.934-0.275-1.332,0.242c-2.342,3.07-1.563,7.416-1.563,7.416
	c1.596-1.027,4.781-1.33,4.783-1.332c-1.137,1.146-1.621,2.436-1.621,2.436c2.402,0.811,6.25,4.404,6.25,4.404
	S24.787,51.525,21.482,45.006z"/>
<path fill="#006DAE" d="M36.879,47.119c1.893,4.092,1.012,6.703,1.012,6.703c-1.594-1.025-4.727-2.158-4.729-2.16
	c1.137,1.145,2.035,3.025,2.035,3.025C31.797,55.076,28,58.172,28,58.172S33.283,47.287,36.879,47.119z"/>
<path fill="#018BC9" d="M34.516,45.006c0,0,0.934-0.275,1.332,0.242c2.342,3.07,1.563,7.416,1.563,7.416
	c-1.594-1.027-4.781-1.33-4.781-1.332c1.135,1.146,1.621,2.436,1.621,2.436C31.846,54.578,28,58.172,28,58.172
	S31.211,51.525,34.516,45.006z"/>
<path fill="#EBBEA0" d="M50.557,60.535c-2.365-1.521-2.367-7.074,0.002-8.594C61.039,45.221,61.037,67.258,50.557,60.535z"/>
<rect x="52.688" y="38.531" fill="#99A8AE" width="4.889" height="23.469"/>
<path fill="#6E8189" d="M52.688,41.625c0.744,0.348,1.57,0.549,2.445,0.549s1.701-0.201,2.443-0.549v-2.471h-4.889V41.625z"/>
<path fill="#99A8AE" d="M57.576,30v5.818l-2.443,1.906l-2.445-1.906V30c-2.018,0.928-3.422,2.961-3.422,5.328
	c0,3.24,2.627,5.867,5.867,5.867S61,38.568,61,35.328C61,32.961,59.596,30.928,57.576,30z"/>
<path fill="#6E8189" d="M60.51,35.1c0-0.424-0.045-0.84-0.131-1.238c0.211,0.563,0.326,1.17,0.326,1.805
	c0,2.666-2.039,4.871-4.691,5.234C58.609,40.168,60.51,37.85,60.51,35.1z"/>
<path fill="#CFD8DD" d="M52.688,30.205c-1.652,0.744-2.865,2.334-3.129,4.242c0.479-1.691,1.627-3.088,3.129-3.855V30.205z"/>
<path fill="#EBBEA0" d="M57.785,52.211h-2.682c-1.705,0-1.705,2.271,0,2.271h-1.137c-0.682,0-1.137,0.57-1.137,1.139
	s0.568,1.135,1.137,1.135c-1.592,0-1.592,2.275,0,2.275l1.137-0.002c-1.592,0-1.477,2.275,0,2.275l2.805,0.002
	c0.896,0.037,1.768-1.314,1.512-2.211c-0.105-0.373,0.988-1.279,0.408-2.34c-0.16-0.289,0.691-1.213-0.195-2.57
	C59.465,53.934,59.789,52.211,57.785,52.211z"/>
<path fill="#EBBEA0" d="M50.938,51.709c-1.09,0.709,1.15,2.752,1.627,2.453c0,0,2.086-1.727,2.498-2.422
	c0.973-1.646-0.408-2.471-0.748-2.146C53.326,50.537,51.727,51.195,50.938,51.709z"/>
<path fill="#C8A35D" d="M28,2C8.891,2,8.886,13.498,8.886,27.875h38.227C47.113,13.498,47.109,2,28,2z"/>
<path fill="#DEA885" d="M12.681,33.463c2.071-1.926,0.191-9.488-2.479-9.941C4.498,22.547,8.215,37.623,12.681,33.463z"/>
<path fill="#DEA885" d="M43.319,33.463c-2.07-1.926-0.191-9.488,2.479-9.941C51.501,22.547,47.787,37.621,43.319,33.463z"/>
<path fill="#EBBEA0" d="M28,9.666c-19.963,0-11.92,2.313-17.25,14.039c0,0,0.039,5.379,1.154,11.146C13.344,42.289,21.713,48,28,48
	c6.289,0,14.657-5.711,16.097-13.148c1.116-5.768,1.153-11.146,1.153-11.146C39.921,11.979,47.965,9.666,28,9.666z"/>
<path fill="#F5F5F5" d="M42.184,25.398c-1.847,4.811-9.357,4.104-10.733,0.74C32.495,20.734,41.168,20.271,42.184,25.398z"/>
<path fill="#45332C" d="M33.367,24.887c0,4.242,6.133,4.242,6.133,0C39.5,20.949,33.367,20.949,33.367,24.887z"/>
<path fill="#45332C" d="M42.184,25.365c0-5.166-10.733-5.166-10.733,0.814C32.983,21.275,40.65,21.275,42.184,25.365z"/>
<path fill="#F5F5F5" d="M13.816,25.398c1.847,4.811,9.359,4.104,10.733,0.74C23.505,20.734,14.833,20.271,13.816,25.398z"/>
<path fill="#45332C" d="M22.633,24.887c0,4.242-6.133,4.242-6.133,0C16.5,20.949,22.633,20.949,22.633,24.887z"/>
<path fill="#45332C" d="M13.816,25.365c0-5.164,10.733-5.164,10.733,0.813C23.018,21.275,15.35,21.275,13.816,25.365z"/>
<path fill="#F5F5F5" d="M33.744,23.855c0,1.061,1.533,1.061,1.533,0C35.277,22.871,33.744,22.871,33.744,23.855z"/>
<path fill="#F5F5F5" d="M18.603,23.641c0,1.059-1.534,1.059-1.534,0C17.069,22.656,18.603,22.656,18.603,23.641z"/>
<path fill="#BF8C6B" d="M28,37.527c-3.089-0.822-7.667,0.387-7.667,0.387c1.744,1.709,3.021,3.926,7.667,3.926
	c5.323,0,6.227-2.518,7.666-3.926C35.666,37.914,31.084,36.705,28,37.527z"/>
<path fill="#FFFFFF" d="M21.413,37.975c3.281,3.051,9.916,3.068,13.216,0C31.128,38.141,24.937,38.143,21.413,37.975z"/>
<path fill="#BF8D69" d="M41.774,20.65c-3.294-1.357-7.804-1.623-10.119-0.719c-0.488,0.191-0.474,1.361-0.041,1.244
	c3.319-0.904,7.14-0.975,10.284,0.119C42.32,21.443,42.27,20.854,41.774,20.65z"/>
<path fill="#BF8D69" d="M14.226,20.65c3.294-1.357,7.803-1.623,10.119-0.719c0.488,0.191,0.473,1.361,0.041,1.244
	c-3.32-0.904-7.141-0.975-10.283,0.119C13.68,21.443,13.73,20.854,14.226,20.65z"/>
<path fill="#C8A35D" d="M43.265,7.904c7.12,9.766-25.929,7.219-32.804,5.793C10.46,13.697,20.557-0.072,43.265,7.904z"/>
<path fill="#A3864C" d="M10.46,13.697c9.873,2.078,40.059,1.789,30.558-8.506C56.509,17.549,18.821,18.648,10.46,13.697z"/>
<path fill="#BF8D69" d="M31.834,32.756c0,2.492-7.668,2.492-7.668,0C24.166,32.184,31.834,32.184,31.834,32.756z"/>
</svg>
