<?xml version="1.0" encoding="utf-8"?>
<!-- Generator: Adobe Illustrator 15.0.0, SVG Export Plug-In . SVG Version: 6.00 Build 0)  -->
<!DOCTYPE svg PUBLIC "-//W3C//DTD SVG 1.1//EN" "http://www.w3.org/Graphics/SVG/1.1/DTD/svg11.dtd">
<svg version="1.1" id="Layer_1" xmlns="http://www.w3.org/2000/svg" xmlns:xlink="http://www.w3.org/1999/xlink" x="0px" y="0px"
	 width="64px" height="64px" viewBox="0 0 64 64" enable-background="new 0 0 64 64" xml:space="preserve">
<path fill="#E81C27" d="M32,5.664c-3.979-6.467-15-3.939-15,4.185c0,5.455,5.082,9.104,15,17.151c9.918-8.047,15-11.696,15-17.151
	C47,1.725,35.98-0.803,32,5.664z"/>
<path fill="#C21413" d="M31.556,6.471C31.712,6.106,32,5.664,32,5.664c-1.085-1.82-2.676-2.608-2.676-2.608
	C31.001,4.609,31.556,6.471,31.556,6.471z"/>
<path fill="#C21413" d="M40.72,2.225c2.17,1.289,3.742,3.557,3.742,6.624c0,4.968-5.75,10.737-11.094,15.644
	c-1.673,1.536-1.368,1.344-6.142-1.356C27.835,23.627,31.35,26.473,32,27c9.918-8.047,15-11.696,15-17.151
	C47,5.674,44.089,2.982,40.72,2.225z"/>
<path fill-rule="evenodd" clip-rule="evenodd" fill="#F46C60" d="M18.791,8.665c0.245,1.723,3.469-1.647,6.733-4.545
	C27.631,2.257,18.055,3.483,18.791,8.665z"/>
<path fill-rule="evenodd" clip-rule="evenodd" fill="#F46C60" d="M33.274,6.302c0.143,1.007,2.028-0.964,3.938-2.659
	C38.445,2.553,32.843,3.271,33.274,6.302z"/>
<path fill="#EA8800" d="M23.884,26.57c-3.646-4.701-21.732-2.816-21.732,11.048c0.076,7.45,1.285,24.372,14.533,24.372
	c13.244,0,14.455-16.851,14.607-24.372C31.292,32.999,28.644,27.54,23.884,26.57z"/>
<path fill="#D67C00" d="M2.36,42.169c0.652,8.22,3.365,19.821,14.336,19.821c11.004,0,13.701-11.626,14.387-19.875
	c-0.361-3.798-2.586-8.701-7.41-14.483C13.784,34.102,3.103,33.094,2.36,42.169z"/>
<path fill="#8E3ED6" d="M28.413,58.224c-1.492-1.042-7.029-3.783-7.029-3.783h-9.275c0,0-5.545,2.746-7.045,3.786
	C3.13,59.563,2.391,59.505,2,62h29.452C31.067,59.511,30.325,59.56,28.413,58.224z"/>
<path fill="#E6A400" d="M21.153,55.447c0-0.816,0-4.439,0-4.439H12.29c0,0,0,3.569,0,4.439
	C12.29,59.039,21.153,59.039,21.153,55.447z"/>
<path fill="#FDCA47" d="M27.183,38.116c-1.564-3.69-4.434-7.692-4.434-7.692c-10.496,6.309-19.369,3.144-16.904,15.1
	c1.17,5.673,8.186,10.068,10.949,10.068c2.762,0,9.955-4.361,10.947-10.068C28.313,42.218,27.911,39.835,27.183,38.116z"/>
<path fill="#F5F5F5" d="M26.39,40.583c-1.25,3.256-6.332,2.778-7.264,0.502C19.835,37.426,25.702,37.113,26.39,40.583z"/>
<path fill="#45332C" d="M20.423,40.237c0,2.87,4.15,2.87,4.15,0C24.573,37.572,20.423,37.572,20.423,40.237z"/>
<path fill="#45332C" d="M26.39,40.56c0-3.494-7.264-3.494-7.264,0.554C20.165,37.792,25.351,37.792,26.39,40.56z"/>
<path fill="#F5F5F5" d="M7.196,40.583c1.248,3.256,6.332,2.778,7.262,0.502C13.753,37.426,7.884,37.113,7.196,40.583z"/>
<path fill="#45332C" d="M13.161,40.237c0,2.87-4.15,2.87-4.15,0C9.011,37.572,13.161,37.572,13.161,40.237z"/>
<path fill="#45332C" d="M7.196,40.56c0-3.493,7.262-3.493,7.262,0.552C13.421,37.792,8.233,37.792,7.196,40.56z"/>
<path fill="#D99025" d="M21.979,48.931c-0.977,1.104-1.586,3.06-5.188,3.06c-3.143,0-4.006-1.722-5.188-3.06H21.979z"/>
<path fill="#FFFFFF" d="M21.331,48.965c-2.135,2.187-6.916,2.217-9.078,0H21.331z"/>
<path fill="#D99025" d="M16.792,48.755c-2.031-0.892-2.047-0.035-5.188,0.176c3.965,0.445,6.412,0.445,10.375,0
	C18.841,48.72,18.825,47.863,16.792,48.755z"/>
<path fill="#E6A400" d="M25.948,37.446c-2.199-0.906-5.211-1.083-6.756-0.478c-0.324,0.128-0.314,0.908-0.027,0.83
	c2.217-0.604,4.768-0.651,6.867,0.08C26.313,37.978,26.278,37.584,25.948,37.446z"/>
<path fill="#E6A400" d="M7.558,37.448c2.197-0.906,5.209-1.084,6.754-0.479c0.328,0.128,0.316,0.91,0.027,0.83
	c-2.217-0.604-4.766-0.651-6.863,0.081C7.192,37.978,7.228,37.584,7.558,37.448z"/>
<path fill="#E6A400" d="M19.386,45.79c0,1.665-5.117,1.665-5.117,0C14.269,45.407,19.386,45.407,19.386,45.79z"/>
<path fill="#018BC9" d="M58.962,58.224c-1.492-1.042-7.029-3.783-7.029-3.783h-9.275c0,0-5.545,2.746-7.045,3.786
	C33.68,59.564,32.939,59.505,32.55,62H62C61.616,59.511,60.874,59.56,58.962,58.224z"/>
<path fill="#E6A400" d="M51.702,55.447c0-0.816,0-4.438,0-4.438h-8.863c0,0,0,3.568,0,4.438
	C42.839,59.039,51.702,59.039,51.702,55.447z"/>
<path fill="#EA8800" d="M47.271,24.257c-12.971,0-12.975,7.806-12.975,17.563h25.947C60.243,32.063,60.239,24.257,47.271,24.257z"/>
<g>
	<path fill="#F5BC2C" d="M36.872,45.615c1.406-1.309,0.129-6.441-1.682-6.75C31.317,38.205,33.839,48.437,36.872,45.615z"/>
</g>
<g>
	<path fill="#F5BC2C" d="M57.667,45.615c-1.404-1.309-0.129-6.441,1.684-6.75C63.222,38.205,60.7,48.436,57.667,45.615z"/>
</g>
<path fill="#FDCA47" d="M47.271,29.462c-13.551,0-8.092,1.569-11.709,9.528c0,0,0.025,3.65,0.783,7.566
	c0.977,5.048,6.658,8.924,10.926,8.924s9.947-3.876,10.924-8.924c0.758-3.916,0.783-7.566,0.783-7.566
	C55.36,31.031,60.821,29.462,47.271,29.462z"/>
<path fill="#F5F5F5" d="M56.897,40.14c-1.254,3.265-6.352,2.785-7.285,0.503C50.321,36.974,56.208,36.659,56.897,40.14z"/>
<path fill="#45332C" d="M50.913,39.792c0,2.879,4.162,2.879,4.162,0C55.075,37.119,50.913,37.119,50.913,39.792z"/>
<path fill="#45332C" d="M56.897,40.116c0-3.505-7.285-3.505-7.285,0.555C50.651,37.341,55.856,37.341,56.897,40.116z"/>
<path fill="#F5F5F5" d="M37.644,40.14c1.252,3.265,6.35,2.785,7.285,0.503C44.218,36.974,38.333,36.659,37.644,40.14z"/>
<path fill="#45332C" d="M43.628,39.792c0,2.879-4.164,2.879-4.164,0C39.464,37.12,43.628,37.12,43.628,39.792z"/>
<path fill="#45332C" d="M37.644,40.116c0-3.504,7.285-3.504,7.285,0.554C43.888,37.341,38.683,37.341,37.644,40.116z"/>
<path fill="#D99025" d="M47.271,48.371c-2.098-0.556-5.205,0.264-5.205,0.264c1.184,1.159,2.051,2.665,5.205,2.665
	c3.613,0,4.225-1.709,5.203-2.665C52.474,48.635,49.362,47.813,47.271,48.371z"/>
<path fill="#FFFFFF" d="M42.798,48.677c2.227,2.07,6.73,2.084,8.971,0C49.394,48.79,45.19,48.791,42.798,48.677z"/>
<path fill="#E6A400" d="M56.62,36.917c-2.236-0.922-5.299-1.101-6.869-0.487c-0.332,0.13-0.322,0.924-0.029,0.844
	c2.254-0.613,4.848-0.661,6.98,0.082C56.989,37.455,56.954,37.055,56.62,36.917z"/>
<path fill="#E6A400" d="M37.921,36.917c2.234-0.922,5.295-1.101,6.867-0.487c0.332,0.13,0.322,0.924,0.027,0.844
	c-2.252-0.613-4.846-0.661-6.979,0.082C37.55,37.455,37.585,37.055,37.921,36.917z"/>
<path fill="#D67C00" d="M53.528,49.208c-2.441-2.567-10.027-2.589-12.49,0C44.349,49.029,50.198,49.028,53.528,49.208z"/>
<path fill="#EA8800" d="M53.528,49.208c-3.102-3.262-9.369-3.282-12.49,0C41.579,48.525,52.831,48.335,53.528,49.208z"/>
<path fill="#EA8800" d="M57.63,28.268c4.834,6.627-17.6,4.897-22.266,3.93C35.364,32.197,42.218,22.852,57.63,28.268z"/>
<path fill="#D67C00" d="M35.364,32.197c6.701,1.41,27.189,1.216,20.742-5.773C66.62,34.812,41.038,35.56,35.364,32.197z"/>
<path fill="#E6A400" d="M49.872,45.134c0,1.693-5.205,1.693-5.205,0C44.667,44.746,49.872,44.746,49.872,45.134z"/>
</svg>
