<?xml version="1.0" encoding="utf-8"?>
<!-- Generator: Adobe Illustrator 15.0.0, SVG Export Plug-In . SVG Version: 6.00 Build 0)  -->
<!DOCTYPE svg PUBLIC "-//W3C//DTD SVG 1.1//EN" "http://www.w3.org/Graphics/SVG/1.1/DTD/svg11.dtd">
<svg version="1.1" id="Layer_1" xmlns="http://www.w3.org/2000/svg" xmlns:xlink="http://www.w3.org/1999/xlink" x="0px" y="0px"
	 width="64px" height="64px" viewBox="0 0 64 64" enable-background="new 0 0 64 64" xml:space="preserve">
<path fill="#E81C27" d="M32,5.664c-3.979-6.467-15-3.94-15,4.185c0,5.454,5.082,9.104,15,17.151c9.918-8.047,15-11.697,15-17.151
	C47,1.724,35.98-0.803,32,5.664z"/>
<path fill="#C21413" d="M31.556,6.471C31.712,6.105,32,5.664,32,5.664c-1.085-1.82-2.676-2.608-2.676-2.608
	C31.001,4.609,31.556,6.471,31.556,6.471z"/>
<path fill="#C21413" d="M40.72,2.224c2.17,1.29,3.742,3.557,3.742,6.625c0,4.968-5.75,10.737-11.094,15.644
	c-1.673,1.535-1.368,1.344-6.142-1.357C27.835,23.627,31.35,26.473,32,27c9.918-8.047,15-11.697,15-17.151
	C47,5.674,44.089,2.982,40.72,2.224z"/>
<path fill-rule="evenodd" clip-rule="evenodd" fill="#F46C60" d="M18.791,8.664c0.245,1.723,3.469-1.646,6.733-4.545
	C27.631,2.256,18.055,3.482,18.791,8.664z"/>
<path fill-rule="evenodd" clip-rule="evenodd" fill="#F46C60" d="M33.274,6.301c0.143,1.008,2.028-0.963,3.938-2.658
	C38.445,2.553,32.843,3.27,33.274,6.301z"/>
<path fill="#EA8800" d="M23.884,26.57c-3.646-4.701-21.732-2.816-21.732,11.048c0.076,7.451,1.285,24.373,14.533,24.373
	c13.244,0,14.455-16.852,14.607-24.373C31.292,32.999,28.644,27.54,23.884,26.57z"/>
<path fill="#D67C00" d="M2.36,42.169c0.652,8.221,3.365,19.822,14.336,19.822c11.004,0,13.701-11.627,14.387-19.875
	c-0.361-3.799-2.586-8.701-7.41-14.485C13.784,34.103,3.103,33.095,2.36,42.169z"/>
<path fill="#8E3ED6" d="M28.413,58.224c-1.492-1.041-7.029-3.783-7.029-3.783h-9.275c0,0-5.545,2.746-7.045,3.787
	C3.13,59.563,2.391,59.505,2,62.001h29.452C31.067,59.511,30.325,59.56,28.413,58.224z"/>
<path fill="#E6A400" d="M21.153,55.448c0-0.816,0-4.439,0-4.439H12.29c0,0,0,3.568,0,4.439C12.29,59.04,21.153,59.04,21.153,55.448z
	"/>
<path fill="#FDCA47" d="M27.183,38.116c-1.564-3.689-4.434-7.692-4.434-7.692C12.253,36.733,3.38,33.567,5.845,45.524
	c1.458,7.068,9.164,10.068,11.949,10.068c2.762,0,8.955-4.361,9.947-10.068C28.313,42.218,27.911,39.835,27.183,38.116z"/>
<path fill="#F5BC2C" d="M7.794,41.479c0,2.248,7.264,2.248,7.264-0.355C14.642,37.36,7.882,37.464,7.794,41.479z"/>
<path fill="#F5BC2C" d="M26.988,41.479c0,2.248-7.264,2.248-7.264-0.355C20.141,37.36,26.9,37.464,26.988,41.479z"/>
<path fill="#45332C" d="M7.794,41.479c0,2.248,7.264,2.248,7.264-0.355C14.474,42.323,8.378,42.479,7.794,41.479z"/>
<path fill="#45332C" d="M26.987,41.479c0,2.248-7.262,2.248-7.262-0.355C20.309,42.325,26.404,42.479,26.987,41.479z"/>
<path fill="#E6A400" d="M26.546,37.446c-2.199-0.906-5.211-1.082-6.756-0.477c-0.324,0.127-0.314,0.908-0.027,0.83
	c2.217-0.604,4.768-0.652,6.867,0.08C26.911,37.978,26.876,37.585,26.546,37.446z"/>
<path fill="#E6A400" d="M8.155,37.448c2.197-0.906,5.209-1.084,6.754-0.479c0.328,0.127,0.316,0.91,0.027,0.83
	c-2.217-0.604-4.766-0.652-6.863,0.08C7.79,37.978,7.825,37.585,8.155,37.448z"/>
<path fill="#E6A400" d="M23.319,49.757c1.881,2.861-3.885,2.885-5.265,0.17L23.319,49.757z"/>
<path fill="#CC9200" d="M22.039,49.112c-1.167-0.58-2.202,0.381-3.984,0.814c1.536,0.699,3.692,0.793,4.005,0.139
	c0,0,0.627,0.467,1.277-0.057C24.059,49.431,23.367,48.452,22.039,49.112z"/>
<path fill="#E6A400" d="M21.128,45.808c0.207,1.652-4.87,2.289-5.077,0.637C16.003,46.065,21.081,45.429,21.128,45.808z"/>
<path fill="#EA8800" d="M40.116,26.57c3.646-4.701,21.732-2.816,21.732,11.048c-0.076,7.451-1.285,24.373-14.533,24.373
	c-13.244,0-14.455-16.852-14.607-24.373C32.708,32.999,35.356,27.54,40.116,26.57z"/>
<path fill="#D67C00" d="M61.64,42.169c-0.652,8.221-3.365,19.822-14.336,19.822c-11.004,0-13.701-11.627-14.387-19.875
	c0.361-3.799,2.586-8.701,7.41-14.485C50.216,34.103,60.897,33.095,61.64,42.169z"/>
<path fill="#5D1E96" d="M35.587,58.224c1.492-1.041,7.029-3.783,7.029-3.783h9.275c0,0,5.545,2.746,7.045,3.787
	c1.934,1.336,2.673,1.277,3.063,3.773H32.548C32.933,59.511,33.675,59.56,35.587,58.224z"/>
<path fill="#E6A400" d="M42.847,55.448c0-0.816,0-4.439,0-4.439h8.863c0,0,0,3.568,0,4.439C51.71,59.04,42.847,59.04,42.847,55.448z
	"/>
<path fill="#FDCA47" d="M36.817,38.116c1.564-3.689,4.434-7.692,4.434-7.692c10.496,6.31,19.369,3.144,16.904,15.101
	c-1.458,7.068-9.164,10.068-11.949,10.068c-2.762,0-8.955-4.361-9.947-10.068C35.687,42.218,36.089,39.835,36.817,38.116z"/>
<path fill="#F5BC2C" d="M56.206,41.479c0,2.248-7.264,2.248-7.264-0.355C49.358,37.36,56.118,37.464,56.206,41.479z"/>
<path fill="#F5BC2C" d="M37.012,41.479c0,2.248,7.264,2.248,7.264-0.355C43.859,37.36,37.1,37.464,37.012,41.479z"/>
<path fill="#45332C" d="M56.206,41.479c0,2.248-7.264,2.248-7.264-0.355C49.526,42.323,55.622,42.479,56.206,41.479z"/>
<path fill="#45332C" d="M37.013,41.479c0,2.248,7.262,2.248,7.262-0.355C43.691,42.325,37.596,42.479,37.013,41.479z"/>
<path fill="#E6A400" d="M37.454,37.446c2.199-0.906,5.211-1.082,6.756-0.477c0.324,0.127,0.314,0.908,0.027,0.83
	c-2.217-0.604-4.768-0.652-6.867,0.08C37.089,37.978,37.124,37.585,37.454,37.446z"/>
<path fill="#E6A400" d="M55.845,37.448c-2.197-0.906-5.209-1.084-6.754-0.479c-0.328,0.127-0.316,0.91-0.027,0.83
	c2.217-0.604,4.766-0.652,6.863,0.08C56.21,37.978,56.175,37.585,55.845,37.448z"/>
<path fill="#E6A400" d="M40.681,49.757c-1.881,2.861,3.885,2.885,5.265,0.17L40.681,49.757z"/>
<path fill="#CC9200" d="M41.961,49.112c1.167-0.58,2.202,0.381,3.984,0.814c-1.536,0.699-3.692,0.793-4.005,0.139
	c0,0-0.627,0.467-1.277-0.057C39.941,49.431,40.633,48.452,41.961,49.112z"/>
<path fill="#E6A400" d="M42.872,45.808c-0.207,1.652,4.87,2.289,5.077,0.637C47.997,46.065,42.919,45.429,42.872,45.808z"/>
</svg>
