<?xml version="1.0" encoding="utf-8"?>
<!-- Generator: Adobe Illustrator 15.0.0, SVG Export Plug-In . SVG Version: 6.00 Build 0)  -->
<!DOCTYPE svg PUBLIC "-//W3C//DTD SVG 1.1//EN" "http://www.w3.org/Graphics/SVG/1.1/DTD/svg11.dtd">
<svg version="1.1" id="Layer_1" xmlns="http://www.w3.org/2000/svg" xmlns:xlink="http://www.w3.org/1999/xlink" x="0px" y="0px"
	 width="64px" height="64px" viewBox="0 0 64 64" enable-background="new 0 0 64 64" xml:space="preserve">
<path fill="#C8A35D" d="M37.212,5.497C31.503-1.609,3.193,1.239,3.193,22.19c0.118,11.258,2.012,36.825,22.746,36.825
	c20.732,0,22.628-25.459,22.866-36.825C48.805,15.211,44.659,6.959,37.212,5.497z"/>
<path fill="#A3864C" d="M3.521,29.067c1.021,12.42,5.27,29.948,22.438,29.948c17.225,0,21.445-17.566,22.517-30.03
	c-0.563-5.738-4.045-13.148-11.596-21.887C21.403,16.875,4.683,15.354,3.521,29.067z"/>
<path fill="#302C3B" d="M7.08,51.397C9.378,49.833,19.972,45.7,19.972,45.7h12.131c0,0,10.583,4.123,12.873,5.693
	c3.324,2.275,4.023,10.607,4.023,10.607H3C3,62.001,3.742,53.661,7.08,51.397"/>
<path fill="#BF8D69" d="M19.58,49.079c0,3.5,4.352,4.557,6.42,4.547c2.07-0.01,6.42-1.111,6.42-4.547V38.97H19.58V49.079z"/>
<path fill="#1A1626" d="M44.06,54.948c-0.613,1.76-1.188,4.953-0.697,7.053C44.413,60.847,44.628,53.312,44.06,54.948"/>
<path fill="#1A1626" d="M8.638,62.001c0.49-2.1-0.086-5.293-0.699-7.053C7.373,53.312,7.585,60.847,8.638,62.001"/>
<path fill="#1A1626" d="M26,61.478c-6.551,0-7.787-9.479-7.836-9.881l1.037-0.129c0.012,0.09,1.174,8.963,6.799,8.963
	c5.627,0,6.789-8.873,6.801-8.963l1.035,0.129C33.788,51.999,32.548,61.478,26,61.478"/>
<path fill="#E6EBEF" d="M26,52.579h-5.227c0,0,0.947,6.281,5.227,6.281s5.229-6.281,5.229-6.281H26z"/>
<path fill="#BEC3CF" d="M22.199,56.472c0,0,1.496-3.893,3.824-3.893c2.33,0,3.777,3.893,3.777,3.893s1.428-2.322,1.428-3.893H20.773
	C20.773,52.579,20.914,54.325,22.199,56.472"/>
<path fill="#FFFFFF" d="M19.58,45.7c0,0-8.018,4.916-0.615,12.328c0,0,3.506-5.449,7.035-5.449C26,52.579,19.58,50.731,19.58,45.7"
	/>
<path fill="#FFFFFF" d="M32.419,45.7c0,0,8.042,4.916,0.638,12.328c0,0-3.505-5.449-7.035-5.449
	C26.023,52.579,32.419,50.731,32.419,45.7"/>
<path fill="#FFFFFF" d="M25.478,54.673c0,0.697,1.045,0.697,1.045,0S25.478,53.976,25.478,54.673z"/>
<path fill="#FFFFFF" d="M25.478,57.813c0,0.697,1.045,0.697,1.045,0S25.478,57.116,25.478,57.813z"/>
<path fill="#1A1626" d="M37.175,58.151c-0.188-0.01-0.439,1.521-0.668,3.85h0.9C37.442,59.688,37.362,58.163,37.175,58.151"/>
<path fill="#1A1626" d="M11.701,56.767c-0.268,0.016-0.381,2.146-0.32,5.234h1.234C12.328,58.89,11.972,56.753,11.701,56.767"/>
<path fill="#1A1626" d="M34.128,62.001c-0.035-1.504-0.158-2.467-0.355-2.477c-0.199-0.012-0.434,0.953-0.643,2.477H34.128z"/>
<path fill="#1A1626" d="M40.298,56.767c-0.271-0.014-0.627,2.123-0.916,5.234h1.236C40.679,58.913,40.565,56.782,40.298,56.767"/>
<path fill="#1A1626" d="M14.822,58.151c-0.186,0.012-0.266,1.537-0.23,3.85h0.9C15.263,59.673,15.011,58.142,14.822,58.151"/>
<path fill="#1A1626" d="M18.226,59.524c-0.197,0.01-0.32,0.971-0.355,2.477h0.998C18.662,60.478,18.425,59.513,18.226,59.524"/>
<polygon fill="#9E6C49" points="48.507,62.001 51.134,50.687 49.663,50.304 45.944,62.001 "/>
<path fill="#9E6C49" d="M59.237,41.315l-1.473-0.381l-0.215,0.773c-1.152,0.764-2.254,2.457-2.836,4.576
	c-0.586,2.127-0.5,4.131,0.105,5.352l-0.213,0.773l1.473,0.385c1.627,0.424,3.65-1.799,4.523-4.969
	C61.476,44.657,60.862,41.741,59.237,41.315"/>
<path fill="#B47D56" d="M59.13,47.44c-0.871,3.17-2.896,5.395-4.523,4.969c-1.625-0.424-2.238-3.336-1.365-6.506
	c0.871-3.168,2.896-5.393,4.523-4.969C59.39,41.358,60.003,44.269,59.13,47.44"/>
<polygon fill="#9E6C49" points="54.804,51.692 44.497,49.003 47.259,38.962 57.567,41.653 "/>
<path fill="#785647" d="M47.243,39.017l-2.732,9.93c0.014,0.021,0.023,0.047,0.033,0.068l2.85,0.744
	c1.176-0.742,2.307-2.463,2.902-4.623c0.594-2.162,0.498-4.203-0.141-5.418l-2.85-0.748C47.284,38.987,47.265,39.005,47.243,39.017"
	/>
<path fill="#9E6C49" d="M48.192,38.433l-1.475-0.379l-0.211,0.773c-1.152,0.762-2.254,2.457-2.84,4.576
	c-0.582,2.125-0.498,4.129,0.109,5.35l-0.213,0.773l1.473,0.385c1.627,0.424,3.65-1.799,4.523-4.969
	C50.431,41.774,49.819,38.858,48.192,38.433"/>
<path fill="#B47D56" d="M48.087,44.558c-0.873,3.17-2.896,5.395-4.523,4.969c-1.627-0.424-2.24-3.336-1.367-6.504
	c0.871-3.17,2.896-5.396,4.523-4.969C48.347,38.478,48.956,41.388,48.087,44.558"/>
<path fill="#9E6C49" d="M58.394,47.249c-0.762,2.773-2.369,4.762-3.59,4.443c-1.219-0.318-1.59-2.824-0.828-5.596
	c0.764-2.773,2.371-4.764,3.592-4.443C58.786,41.97,59.157,44.476,58.394,47.249"/>
<path fill="#785647" d="M51.86,50.925L51.86,50.925c-0.109,0.393-0.529,0.629-0.936,0.523l-1.471-0.383
	c-0.406-0.105-0.648-0.516-0.539-0.91L51.86,50.925z"/>
<path fill="#EBBEA0" d="M41.802,21.422c-2.363-5.572-6.696-11.619-6.696-11.619C19.249,19.333,5.844,14.551,9.566,32.61
	c1.768,8.569,12.367,15.206,16.545,15.206c4.171,0,15.039-6.586,16.537-15.206C43.515,27.616,42.903,24.018,41.802,21.422z"/>
<path fill="#F5F5F5" d="M40.604,25.149c-1.887,4.916-9.565,4.193-10.972,0.756C30.702,20.379,39.568,19.907,40.604,25.149z"/>
<path fill="#45332C" d="M31.592,24.625c0,4.336,6.27,4.336,6.27,0C37.862,20.6,31.592,20.6,31.592,24.625z"/>
<path fill="#45332C" d="M40.604,25.114c0-5.279-10.972-5.279-10.972,0.834C31.202,20.932,39.038,20.932,40.604,25.114z"/>
<path fill="#F5F5F5" d="M11.609,25.149c1.887,4.916,9.566,4.193,10.972,0.756C21.513,20.379,12.647,19.907,11.609,25.149z"/>
<path fill="#45332C" d="M20.621,24.625c0,4.336-6.27,4.336-6.27,0C14.351,20.6,20.621,20.6,20.621,24.625z"/>
<path fill="#45332C" d="M11.609,25.114c0-5.277,10.972-5.277,10.972,0.832C21.013,20.932,13.176,20.932,11.609,25.114z"/>
<path fill="#F5F5F5" d="M31.98,23.571c0,1.084,1.566,1.084,1.566,0C33.546,22.565,31.98,22.565,31.98,23.571z"/>
<path fill="#F5F5F5" d="M16.5,23.352c0,1.082-1.566,1.082-1.566,0C14.933,22.344,16.5,22.344,16.5,23.352z"/>
<path fill="#BF8C6B" d="M33.942,37.757c-1.472,1.668-2.394,4.619-7.835,4.619c-4.747,0-6.055-2.6-7.837-4.619H33.942z"/>
<path fill="#FFFFFF" d="M32.964,37.808c-3.225,3.303-10.448,3.348-13.716,0H32.964z"/>
<path fill="#BF8C6B" d="M26.108,37.489c-3.071-1.346-3.095-0.053-7.838,0.268c5.989,0.67,9.685,0.67,15.672,0
	C29.202,37.437,29.177,36.144,26.108,37.489z"/>
<path fill="#BF8D69" d="M39.938,20.411c-3.322-1.369-7.87-1.637-10.205-0.721c-0.492,0.191-0.478,1.371-0.043,1.252
	c3.347-0.91,7.202-0.982,10.374,0.121C40.489,21.213,40.438,20.618,39.938,20.411z"/>
<path fill="#BF8D69" d="M12.153,20.415c3.323-1.371,7.87-1.637,10.207-0.725c0.493,0.191,0.478,1.373,0.042,1.252
	c-3.35-0.91-7.203-0.982-10.372,0.123C11.603,21.213,11.654,20.618,12.153,20.415z"/>
<path fill="#BF8D69" d="M30.025,33.011c0,2.518-7.732,2.518-7.732,0C22.292,32.432,30.025,32.432,30.025,33.011z"/>
</svg>
