<?xml version="1.0" encoding="utf-8"?>
<!-- Generator: Adobe Illustrator 15.0.0, SVG Export Plug-In . SVG Version: 6.00 Build 0)  -->
<!DOCTYPE svg PUBLIC "-//W3C//DTD SVG 1.1//EN" "http://www.w3.org/Graphics/SVG/1.1/DTD/svg11.dtd">
<svg version="1.1" id="Layer_1" xmlns="http://www.w3.org/2000/svg" xmlns:xlink="http://www.w3.org/1999/xlink" x="0px" y="0px"
	 width="64px" height="64px" viewBox="0 0 64 64" enable-background="new 0 0 64 64" xml:space="preserve">
<path fill="#EA8800" d="M43.213,5.496C37.504-1.608,9.194,1.239,9.194,22.19c0.118,11.257,2.011,36.824,22.747,36.824
	c20.731,0,22.628-25.459,22.866-36.824C54.807,15.211,50.66,6.96,43.213,5.496z"/>
<path fill="#D67C00" d="M9.522,29.067c1.021,12.42,5.269,29.948,22.438,29.948c17.226,0,21.444-17.566,22.518-30.029
	c-0.563-5.739-4.046-13.15-11.597-21.887C27.404,16.875,10.685,15.353,9.522,29.067z"/>
<path fill="#8E3ED6" d="M13.902,52.132c2.199-1.457,11.332-5.302,11.332-5.302h13.604c0,0,9.123,3.837,11.311,5.298
	C53.33,54.247,54,62.001,54,62.001H10C10,62.001,10.709,54.241,13.902,52.132"/>
<polygon fill="#E6A400" points="25.059,49.976 32.002,62.001 38.941,49.976 38.941,40.564 25.059,40.564 "/>
<path fill="#5D1E96" d="M49.406,55.438c-0.586,1.637-1.137,4.607-0.668,6.563C49.744,60.927,49.949,53.915,49.406,55.438"/>
<path fill="#5D1E96" d="M15.523,62.001c0.469-1.955-0.082-4.928-0.668-6.563C14.311,53.913,14.518,60.925,15.523,62.001"/>
<path fill="#5D1E96" d="M32.002,62.001H28.82c0,0-2.479-3.514-6.83-5.311c0,0,2.135-2.889,5.004-4.137
	C30.676,56.54,32.002,62.001,32.002,62.001"/>
<path fill="#E6EBEF" d="M32.002,62.001c0,0-2.988-11.346-10.375-9.035c0,0-0.293-5.806,3.432-8.87
	c1.152-0.949-1.037,3.162,3.627,8.886C31.193,56.06,32.002,62.001,32.002,62.001"/>
<path fill="#5D1E96" d="M32.002,62.001h3.182c0,0,2.477-3.514,6.828-5.311c0,0-2.135-2.889-5.006-4.137
	C33.326,56.54,32.002,62.001,32.002,62.001"/>
<path fill="#E6EBEF" d="M32.002,62.001c0,0,2.984-11.346,10.371-9.035c0,0,0.293-5.806-3.43-8.87
	c-1.154-0.949,1.035,3.162-3.627,8.886C32.807,56.06,32.002,62.001,32.002,62.001"/>
<path fill="#FDCA47" d="M47.804,21.422C45.44,15.85,41.107,9.804,41.107,9.804c-15.858,9.528-29.262,4.747-25.54,22.805
	c1.767,8.569,12.366,15.207,16.544,15.207c4.172,0,15.039-6.587,16.537-15.207C49.516,27.615,48.905,24.018,47.804,21.422z"/>
<path fill="#F5F5F5" d="M46.606,25.148c-1.888,4.917-9.565,4.194-10.973,0.757C36.703,20.379,45.57,19.907,46.606,25.148z"/>
<path fill="#45332C" d="M37.594,24.625c0,4.336,6.27,4.336,6.27,0C43.863,20.6,37.594,20.6,37.594,24.625z"/>
<path fill="#45332C" d="M46.606,25.113c0-5.279-10.973-5.279-10.973,0.835C37.203,20.932,45.039,20.932,46.606,25.113z"/>
<path fill="#F5F5F5" d="M17.61,25.148c1.887,4.917,9.566,4.194,10.972,0.757C27.514,20.379,18.648,19.907,17.61,25.148z"/>
<path fill="#45332C" d="M26.622,24.625c0,4.336-6.27,4.336-6.27,0C20.352,20.6,26.622,20.6,26.622,24.625z"/>
<path fill="#45332C" d="M17.61,25.113c0-5.276,10.972-5.276,10.972,0.833C27.015,20.932,19.177,20.932,17.61,25.113z"/>
<path fill="#F5F5F5" d="M37.98,23.57c0,1.085,1.567,1.085,1.567,0C39.548,22.565,37.98,22.565,37.98,23.57z"/>
<path fill="#F5F5F5" d="M22.501,23.351c0,1.083-1.566,1.083-1.566,0C20.935,22.344,22.501,22.344,22.501,23.351z"/>
<path fill="#D99025" d="M39.943,37.757c-1.473,1.667-2.395,4.619-7.836,4.619c-4.746,0-6.055-2.601-7.836-4.619H39.943z"/>
<path fill="#FFFFFF" d="M38.965,37.808c-3.225,3.303-10.447,3.348-13.715,0H38.965z"/>
<path fill="#D99025" d="M32.109,37.489c-3.072-1.346-3.096-0.053-7.838,0.268c5.989,0.67,9.685,0.67,15.672,0
	C35.203,37.437,35.178,36.144,32.109,37.489z"/>
<path fill="#E6A400" d="M45.94,20.411c-3.323-1.37-7.87-1.637-10.206-0.722c-0.492,0.193-0.477,1.371-0.043,1.253
	c3.349-0.911,7.203-0.982,10.375,0.12C46.491,21.212,46.439,20.617,45.94,20.411z"/>
<path fill="#E6A400" d="M18.154,20.414c3.323-1.37,7.871-1.637,10.208-0.725c0.492,0.193,0.477,1.373,0.041,1.253
	c-3.349-0.911-7.202-0.982-10.372,0.122C17.604,21.212,17.655,20.617,18.154,20.414z"/>
<path fill="#E6A400" d="M36.025,33.011c0,2.517-7.731,2.517-7.731,0C28.294,32.432,36.025,32.432,36.025,33.011z"/>
</svg>
