<?xml version="1.0" encoding="utf-8"?>
<!-- Generator: Adobe Illustrator 15.0.0, SVG Export Plug-In . SVG Version: 6.00 Build 0)  -->
<!DOCTYPE svg PUBLIC "-//W3C//DTD SVG 1.1//EN" "http://www.w3.org/Graphics/SVG/1.1/DTD/svg11.dtd">
<svg version="1.1" id="Layer_1" xmlns="http://www.w3.org/2000/svg" xmlns:xlink="http://www.w3.org/1999/xlink" x="0px" y="0px"
	 width="64px" height="64px" viewBox="0 0 64 64" enable-background="new 0 0 64 64" xml:space="preserve">
<path fill="#018BC9" d="M43.692,35.967c-1.492-1.043-7.03-3.783-7.03-3.783h-9.274c0,0-5.546,2.746-7.045,3.785
	c-2.509,1.736-3.01,7.102-3.343,12.773L18,62h28l1-13.258C46.688,43.082,46.175,37.701,43.692,35.967z"/>
<path fill="#E6A400" d="M36.432,33.189c0-0.816,0-4.438,0-4.438h-8.863c0,0,0,3.568,0,4.438
	C27.568,36.781,36.432,36.781,36.432,33.189z"/>
<rect x="17" y="48.764" fill="#FDCA47" width="4.091" height="13.236"/>
<rect x="42.909" y="48.764" fill="#FDCA47" width="4.091" height="13.236"/>
<path fill="#EA8800" d="M32,2C19.03,2,19.026,9.806,19.026,19.563h25.947C44.974,9.806,44.97,2,32,2z"/>
<g>
	<path fill="#F5BC2C" d="M21.603,23.358c1.405-1.309,0.129-6.441-1.683-6.75C16.048,15.948,18.569,26.18,21.603,23.358z"/>
</g>
<g>
	<path fill="#F5BC2C" d="M42.397,23.358c-1.404-1.309-0.129-6.441,1.683-6.75C47.951,15.948,45.431,26.179,42.397,23.358z"/>
</g>
<path fill="#FDCA47" d="M32,7.205c-13.55,0-8.091,1.569-11.708,9.528c0,0,0.025,3.65,0.783,7.566
	c0.977,5.048,6.657,8.923,10.925,8.923s9.948-3.875,10.925-8.923c0.758-3.916,0.783-7.566,0.783-7.566
	C40.091,8.774,45.552,7.205,32,7.205z"/>
<path fill="#F5F5F5" d="M41.627,17.883c-1.253,3.265-6.351,2.785-7.285,0.503C35.052,14.717,40.938,14.402,41.627,17.883z"/>
<path fill="#45332C" d="M35.643,17.535c0,2.879,4.163,2.879,4.163,0C39.806,14.862,35.643,14.862,35.643,17.535z"/>
<path fill="#45332C" d="M41.627,17.859c0-3.505-7.285-3.505-7.285,0.555C35.382,15.084,40.587,15.084,41.627,17.859z"/>
<path fill="#F5F5F5" d="M22.373,17.883c1.253,3.265,6.351,2.785,7.285,0.503C28.948,14.717,23.063,14.402,22.373,17.883z"/>
<path fill="#45332C" d="M28.357,17.535c0,2.879-4.163,2.879-4.163,0C24.194,14.863,28.357,14.863,28.357,17.535z"/>
<path fill="#45332C" d="M22.373,17.859c0-3.504,7.285-3.504,7.285,0.554C28.618,15.084,23.413,15.084,22.373,17.859z"/>
<path fill="#D99025" d="M32,26.114c-2.097-0.556-5.204,0.264-5.204,0.264c1.184,1.159,2.051,2.665,5.204,2.665
	c3.613,0,4.226-1.709,5.204-2.665C37.204,26.378,34.093,25.557,32,26.114z"/>
<path fill="#FFFFFF" d="M27.528,26.42c2.227,2.07,6.73,2.084,8.971,0C34.123,26.533,29.921,26.534,27.528,26.42z"/>
<path fill="#E6A400" d="M41.35,14.66c-2.236-0.922-5.298-1.101-6.868-0.487c-0.332,0.13-0.322,0.924-0.029,0.844
	c2.254-0.613,4.848-0.661,6.98,0.082C41.72,15.198,41.685,14.798,41.35,14.66z"/>
<path fill="#E6A400" d="M22.65,14.66c2.235-0.922,5.296-1.101,6.868-0.487c0.332,0.13,0.322,0.924,0.027,0.844
	c-2.253-0.613-4.847-0.661-6.979,0.082C22.28,15.198,22.314,14.798,22.65,14.66z"/>
<path fill="#D67C00" d="M38.259,26.951c-2.441-2.567-10.028-2.589-12.49,0C29.078,26.772,34.929,26.771,38.259,26.951z"/>
<path fill="#EA8800" d="M38.259,26.951c-3.102-3.262-9.369-3.282-12.49,0C26.31,26.269,37.562,26.078,38.259,26.951z"/>
<path fill="#EA8800" d="M42.36,6.011c4.833,6.627-17.6,4.897-22.266,3.93C20.095,9.94,26.948,0.595,42.36,6.011z"/>
<path fill="#D67C00" d="M20.095,9.94c6.701,1.41,27.189,1.216,20.742-5.773C51.351,12.555,25.769,13.303,20.095,9.94z"/>
<path fill="#E6A400" d="M34.603,22.877c0,1.693-5.205,1.693-5.205,0C29.397,22.489,34.603,22.489,34.603,22.877z"/>
<path fill="#4ABDFF" d="M41.385,61.996c-1.197-0.832-5.646-3.025-5.646-3.025h-7.452c0,0-4.455,2.197-5.659,3.029L41.385,61.996z"/>
<path fill="#E6A400" d="M35.537,59.076c0-0.652,0-3.551,0-3.551h-7.089c0,0,0,2.855,0,3.551
	C28.448,61.949,35.537,61.949,35.537,59.076z"/>
<path fill="#EA8800" d="M32,35.818c-11.478,0-10.372,9.201-10.372,13.5h20.743C42.371,45.02,43.477,35.818,32,35.818z"/>
<path fill="#F5BC2C" d="M22.821,48.041c-3.578-0.471-1.248,6.844,1.555,4.826C25.673,51.932,24.495,48.262,22.821,48.041z"/>
<path fill="#F5BC2C" d="M41.18,48.041c-1.676,0.221-2.854,3.891-1.555,4.826C42.426,54.883,44.756,47.57,41.18,48.041z"/>
<path fill="#FDCA47" d="M41.229,47.41c0-6.135-3.625-4.77-9.229-4.77c-5.603,0-9.228-1.365-9.228,4.77c0,0,0.02,2.338,0.617,5.41
	c0.979,5.027,5.039,6.998,8.611,6.998c3.57,0,7.633-1.971,8.609-6.998C41.207,49.746,41.229,47.41,41.229,47.41z"/>
<path fill="#EA8800" d="M31.811,40.338c-1.678,2.988-7.956,4.855-10.114,4.662C23.651,43.023,24.519,37.936,31.811,40.338z"/>
<path fill="#D67C00" d="M21.697,45c2.748-0.719,6.316-2.182,10.114-4.662C30.133,43.326,24.62,45.684,21.697,45z"/>
<path fill="#EA8800" d="M40.279,40.176c-2.371,3.559-11.254,5.785-14.306,5.553C28.736,43.375,29.965,37.316,40.279,40.176z"/>
<path fill="#D67C00" d="M25.973,45.729c7.296-2.027,14.306-5.553,14.306-5.553C37.908,43.734,31.297,46.244,25.973,45.729z"/>
<path fill="#EA8800" d="M40.625,39.357c2.844,4.633-4.559,6.531-7.617,6.346C35.75,43.895,37.59,39.213,40.625,39.357z"/>
<path fill="#D67C00" d="M33.008,45.703c3.678-1.688,9.283-2.033,7.617-6.346C43.469,43.99,36.252,46.119,33.008,45.703z"/>
<path fill="#F5F5F5" d="M39.398,49.725c-0.963,2.51-4.881,2.141-5.6,0.387C34.344,47.291,38.869,47.049,39.398,49.725z"/>
<path fill="#45332C" d="M34.799,49.457c0,2.213,3.201,2.213,3.201,0C38,47.402,34.799,47.402,34.799,49.457z"/>
<path fill="#45332C" d="M39.398,49.705c0-2.693-5.6-2.693-5.6,0.428C34.6,47.572,38.6,47.572,39.398,49.705z"/>
<path fill="#F5F5F5" d="M24.6,49.725c0.963,2.51,4.882,2.141,5.599,0.387C29.654,47.291,25.129,47.049,24.6,49.725z"/>
<path fill="#45332C" d="M29.199,49.457c0,2.213-3.2,2.213-3.2,0C26,47.402,29.199,47.402,29.199,49.457z"/>
<path fill="#45332C" d="M24.6,49.705c0-2.691,5.599-2.691,5.599,0.426C29.4,47.572,25.399,47.572,24.6,49.705z"/>
<path fill="#D99025" d="M32,55.252c-1.611-0.428-4,0.203-4,0.203c0.911,0.891,1.577,2.047,4,2.047c2.777,0,3.248-1.313,4-2.047
	C36,55.455,33.609,54.824,32,55.252z"/>
<path fill="#FFFFFF" d="M28.563,55.486c1.71,1.592,5.171,1.602,6.896,0C33.631,55.574,30.4,55.574,28.563,55.486z"/>
<path fill="#E6A400" d="M39.186,47.389c-1.719-0.709-4.07-0.848-5.279-0.375c-0.256,0.1-0.246,0.711-0.021,0.65
	c1.732-0.473,3.727-0.51,5.365,0.061C39.471,47.803,39.443,47.494,39.186,47.389z"/>
<path fill="#E6A400" d="M24.813,47.389c1.719-0.709,4.072-0.848,5.279-0.375c0.256,0.1,0.248,0.711,0.021,0.65
	c-1.732-0.473-3.725-0.51-5.365,0.061C24.528,47.803,24.555,47.494,24.813,47.389z"/>
<path fill="#E6A400" d="M34,53.34c0,1.303-4,1.303-4,0C30,53.043,34,53.043,34,53.34z"/>
</svg>
