<?xml version="1.0" encoding="utf-8"?>
<!-- Generator: Adobe Illustrator 15.0.0, SVG Export Plug-In . SVG Version: 6.00 Build 0)  -->
<!DOCTYPE svg PUBLIC "-//W3C//DTD SVG 1.1//EN" "http://www.w3.org/Graphics/SVG/1.1/DTD/svg11.dtd">
<svg version="1.1" id="Layer_1" xmlns="http://www.w3.org/2000/svg" xmlns:xlink="http://www.w3.org/1999/xlink" x="0px" y="0px"
	 width="64px" height="64px" viewBox="0 0 64 64" enable-background="new 0 0 64 64" xml:space="preserve">
<path fill="#CFD8DD" d="M57.537,52.486l-1.092-0.822c-0.064-3.563-16.264-8.25-16.264-8.25H23.818c0,0-16.197,4.688-16.262,8.25
	l-1.096,0.822C3.721,52.438,2,62,2,62h60C62,62,60.279,52.438,57.537,52.486z"/>
<path fill="#99A8AE" d="M11.797,62h-1.535c0-5.379-3.801-9.514-3.801-9.514l1.096-0.822C7.557,51.664,11.797,55.904,11.797,62z"/>
<path fill="#99A8AE" d="M52.205,62h1.533c0-5.379,3.799-9.514,3.799-9.514l-1.092-0.822C56.445,51.664,52.205,55.904,52.205,62z"/>
<polygon fill="#FFFFFF" points="19.1,56.418 19.1,62 20.422,57.572 30.781,57.572 32.104,62 32.104,56.418 "/>
<rect x="38.922" y="54.209" fill="#FFFFFF" width="6.924" height="6.637"/>
<rect x="38.922" y="60.846" fill="#99A8AE" width="6.924" height="1.154"/>
<rect x="40.654" y="60.846" fill="#FFE12C" width="1.154" height="1.154"/>
<rect x="42.961" y="60.846" fill="#A6E639" width="1.154" height="1.154"/>
<rect x="39.824" y="53.559" fill="#BEC3CF" width="1.658" height="0.65"/>
<rect x="40.773" y="53.559" fill="#99A8AE" width="0.709" height="0.65"/>
<rect x="42.229" y="53.559" fill="#BEC3CF" width="0.986" height="0.65"/>
<rect x="42.846" y="53.559" fill="#99A8AE" width="0.369" height="0.65"/>
<path fill="#BEC3CF" d="M44.691,57.488c0,3.078-4.615,3.078-4.615,0C40.076,54.412,44.691,54.412,44.691,57.488z"/>
<path fill="#E6EBEF" d="M44.602,57.746c0,2.836-4.434,2.836-4.434,0C40.168,54.906,44.602,54.906,44.602,57.746z"/>
<path fill="#018BC9" d="M4.83,53.617c0,0-1.793,1.834-1.873,4.402c0,0.859,2.156,3.459,2.156,3.459s1.799-1.646,2.615-3.137
	C5.373,55.479,4.83,53.617,4.83,53.617z"/>
<path fill="#99A8AE" d="M47.67,42.609c-2.129,0-29.217,0-31.344,0c-2.984,0-2.607,2.113-2.607,4.227
	c0,4.756,10.385,7.047,18.281,7.047s18.281-2.291,18.281-7.047C50.281,44.723,50.658,42.609,47.67,42.609"/>
<path fill="#6E8189" d="M22.949,52.947c2.93,0.623,6.156,0.936,9.051,0.936c7.896,0,18.281-2.291,18.281-7.047
	c0-0.934,0.072-1.867-0.104-2.619C49.172,48.33,40.326,53.326,22.949,52.947z"/>
<path fill="#99A8AE" d="M60,29.342c0,2.148-1.74,3.887-3.887,3.887H7.887C5.74,33.229,4,31.49,4,29.342v-6.684
	c0-2.146,1.74-3.887,3.887-3.887h48.227c2.146,0,3.887,1.74,3.887,3.887V29.342z"/>
<circle fill="#302C3B" cx="32" cy="26" r="22"/>
<path fill="#FFFFFF" d="M59.25,23.375c0,1.998-3,1.998-3,0C56.25,21.375,59.25,21.375,59.25,23.375z"/>
<path fill="#FFFFFF" d="M59.25,28.625c0,2-3,2-3,0C56.25,26.627,59.25,26.627,59.25,28.625z"/>
<path fill="#FFFFFF" d="M7.75,23.375c0,1.998-3,1.998-3,0C4.75,21.375,7.75,21.375,7.75,23.375z"/>
<path fill="#FFFFFF" d="M7.75,28.625c0,2-3,2-3,0C4.75,26.627,7.75,26.627,7.75,28.625z"/>
<path fill="#875B49" d="M32,8.84c-16.615,0-16.62,9.998-16.62,22.5h33.241C48.621,18.838,48.617,8.84,32,8.84z"/>
<path fill="#B07E61" d="M18.68,36.199c1.801-1.675,0.166-8.25-2.154-8.646C11.564,26.707,14.797,39.816,18.68,36.199z"/>
<path fill="#B07E61" d="M45.321,36.199c-1.8-1.675-0.166-8.25,2.155-8.646C52.436,26.707,49.206,39.814,45.321,36.199z"/>
<path fill="#B88A6F" d="M32.001,15.506c-17.36,0-10.366,2.011-15,12.209c0,0,0.034,4.676,1.004,9.692
	c1.251,6.466,8.529,11.433,13.996,11.433c5.468,0,12.745-4.967,13.997-11.433c0.97-5.017,1.003-9.692,1.003-9.692
	C42.366,17.517,49.361,15.506,32.001,15.506z"/>
<path fill="#F5F5F5" d="M44.334,29.187c-1.605,4.183-8.137,3.569-9.334,0.644C35.909,25.131,43.451,24.729,44.334,29.187z"/>
<path fill="#45332C" d="M36.667,28.742c0,3.688,5.333,3.688,5.333,0C42,25.317,36.667,25.317,36.667,28.742z"/>
<path fill="#45332C" d="M44.334,29.157c0-4.491-9.334-4.491-9.334,0.709C36.334,25.601,43.001,25.601,44.334,29.157z"/>
<path fill="#F5F5F5" d="M19.667,29.187c1.606,4.183,8.138,3.569,9.333,0.644C28.092,25.131,20.551,24.729,19.667,29.187z"/>
<path fill="#45332C" d="M27.334,28.742c0,3.688-5.334,3.688-5.334,0C22,25.317,27.334,25.317,27.334,28.742z"/>
<path fill="#45332C" d="M19.667,29.157c0-4.489,9.333-4.489,9.333,0.708C27.668,25.601,21,25.601,19.667,29.157z"/>
<path fill="#F5F5F5" d="M36.995,27.845c0,0.923,1.333,0.923,1.333,0C38.328,26.989,36.995,26.989,36.995,27.845z"/>
<path fill="#F5F5F5" d="M23.829,27.658c0,0.921-1.334,0.921-1.334,0C22.495,26.802,23.829,26.802,23.829,27.658z"/>
<path fill="#80553C" d="M32,39.732c-2.686-0.714-6.666,0.338-6.666,0.338c1.516,1.485,2.627,3.412,6.666,3.412
	c4.629,0,5.415-2.188,6.667-3.412C38.667,40.07,34.683,39.019,32,39.732z"/>
<path fill="#FFFFFF" d="M26.272,40.122c2.853,2.653,8.622,2.669,11.493,0C34.721,40.267,29.336,40.269,26.272,40.122z"/>
<path fill="#946346" d="M43.979,25.059c-2.865-1.182-6.787-1.412-8.8-0.625c-0.425,0.166-0.411,1.184-0.035,1.081
	c2.886-0.786,6.208-0.847,8.942,0.104C44.453,25.747,44.408,25.234,43.979,25.059z"/>
<path fill="#946346" d="M20.023,25.059c2.863-1.182,6.784-1.412,8.799-0.625c0.424,0.166,0.411,1.184,0.035,1.081
	c-2.887-0.786-6.209-0.847-8.941,0.104C19.549,25.747,19.592,25.234,20.023,25.059z"/>
<path fill="#875B49" d="M45.273,13.975c6.191,8.491-22.547,6.276-28.524,5.037C16.749,19.012,25.528,7.038,45.273,13.975z"/>
<path fill="#6B4435" d="M16.749,19.012c8.585,1.807,34.833,1.557,26.571-7.396C56.791,22.36,24.019,23.317,16.749,19.012z"/>
<path fill="#946346" d="M35.334,35.584c0,2.168-6.668,2.168-6.668,0C28.666,35.086,35.334,35.086,35.334,35.584z"/>
<path opacity="0.3" fill="#FFFFFF" d="M15.82,38.479c-0.477,1.068-5.275-6.916-4.613-14.025c0.229-2.453,8.988-12.127,30.654-8.002
	C45.043,17.057,21.777,25.111,15.82,38.479z"/>
<path fill="#E6EBEF" d="M53.73,25.09c0.176-0.949,0.27-1.92,0.27-2.91c0-10.273-9.85-18.602-22-18.602S10,11.906,10,22.18
	c0,0.99,0.094,1.961,0.27,2.91C13.76,11.268,50.242,11.268,53.73,25.09z"/>
<path fill="#CFD8DD" d="M49.756,18.615c-1.439-8.395-8.84-13.402-17.758-13.402c-8.916,0-16.314,5.008-17.754,13.402
	C22.65,12.535,41.35,12.535,49.756,18.615z"/>
<path fill-rule="evenodd" clip-rule="evenodd" fill="#E6EBEF" d="M17.51,13.992c0.43,2.621,6.078-2.506,11.801-6.914
	C33.004,4.244,16.219,6.111,17.51,13.992z"/>
<path fill="#CFD8DD" d="M32,2C18.746,2,8,12.746,8,26s10.746,24,24,24s24-10.746,24-24S45.254,2,32,2z M32,47.5
	c-11.873,0-21.5-9.627-21.5-21.5c0-11.875,9.627-21.5,21.5-21.5c11.875,0,21.5,9.625,21.5,21.5C53.5,37.873,43.875,47.5,32,47.5z"/>
<polygon fill="#CFD8DD" points="45.518,43.906 44.809,40.83 46.871,38.811 50.715,38.811 "/>
<path fill="#302C3B" d="M38.387,43.781c-0.797,0-0.797-0.969,0-0.969c5.953,0,7.391-2.5,9.953-3.313
	c0.666-0.211,1.234,1.469,0.125,2.201C48.09,41.947,44.262,43.781,38.387,43.781z"/>
</svg>
