<?xml version="1.0" encoding="utf-8"?>
<!-- Generator: Adobe Illustrator 15.0.0, SVG Export Plug-In . SVG Version: 6.00 Build 0)  -->
<!DOCTYPE svg PUBLIC "-//W3C//DTD SVG 1.1//EN" "http://www.w3.org/Graphics/SVG/1.1/DTD/svg11.dtd">
<svg version="1.1" id="Layer_1" xmlns="http://www.w3.org/2000/svg" xmlns:xlink="http://www.w3.org/1999/xlink" x="0px" y="0px"
	 width="64px" height="64px" viewBox="0 0 64 64" enable-background="new 0 0 64 64" xml:space="preserve">
<path fill="#C49A45" d="M61.2,25.102c-1.08,2.175-2.23,4.033-3.648,5.599l-1.756-0.387l0.531,1.603
	c-4.338,3.863-11.109,5.556-24.417,5.556c-20.322,0-26.559-5.813-29.291-12.371C0.147,19.173,63.392,20.69,61.2,25.102z"/>
<path fill="#594640" d="M10.7,29.406c0,12.461,4.268,30.947,21.438,30.947c17.225,0,21.518-18.521,21.518-31.029
	C53.655,10.257,10.7,9.613,10.7,29.406z"/>
<path fill="#E6EBEF" d="M14.079,51.633c2.199-1.527,11.332-5.564,11.332-5.564h13.604c0,0,9.123,4.029,11.311,5.561
	C53.507,53.855,54.177,62,54.177,62h-44C10.176,62,10.887,53.848,14.079,51.633z"/>
<path fill="#DBA97F" d="M38.677,47.549c0-1.201,0-6.525,0-6.525h-13c0,0,0,5.244,0,6.525C25.676,52.828,38.677,52.828,38.677,47.549
	z"/>
<path fill="#8E3ED6" d="M46.397,57.182c0.082-2.285,0.09-3.455-0.615-7.951c-0.17-0.365-3.975-2.242-4.463-2.092
	c0.637,4.91,0.676,6.811,0.631,9.576c-5.285-0.164-14.262-0.164-19.547,0c-0.045-2.766-0.006-4.666,0.631-9.576
	c-0.488-0.15-4.295,1.727-4.465,2.092c-0.703,4.498-0.695,5.668-0.611,7.951C17.241,57.715,16.776,62,16.776,62h30.801
	C47.577,62,47.112,57.715,46.397,57.182z"/>
<path fill="#BEC3CF" d="M15.44,62c0.463-1.893-0.086-4.771-0.666-6.355C14.227,54.168,14.43,60.959,15.44,62z"/>
<path fill="#BEC3CF" d="M49.579,55.645c-0.58,1.584-1.127,4.463-0.666,6.355C49.923,60.959,50.128,54.168,49.579,55.645z"/>
<path fill="#FCD5B2" d="M47.981,22.762c-2.363-5.573-6.697-11.619-6.697-11.619c-15.858,9.528-29.262,4.747-25.54,22.804
	c1.766,8.568,12.366,15.207,16.543,15.207c4.172,0,15.04-6.588,16.538-15.207C49.692,28.955,49.083,25.357,47.981,22.762z"/>
<path fill="#F5F5F5" d="M46.784,26.487c-1.889,4.917-9.566,4.194-10.973,0.757C36.88,21.718,45.747,21.246,46.784,26.487z"/>
<path fill="#45332C" d="M37.771,25.964c0,4.336,6.271,4.336,6.271,0C44.041,21.939,37.771,21.939,37.771,25.964z"/>
<path fill="#45332C" d="M46.784,26.452c0-5.279-10.973-5.279-10.973,0.835C37.38,22.271,45.216,22.271,46.784,26.452z"/>
<path fill="#F5F5F5" d="M17.787,26.487c1.888,4.917,9.566,4.194,10.972,0.757C27.69,21.718,18.825,21.246,17.787,26.487z"/>
<path fill="#45332C" d="M26.799,25.964c0,4.336-6.271,4.336-6.271,0C20.529,21.939,26.799,21.939,26.799,25.964z"/>
<path fill="#45332C" d="M17.787,26.452c0-5.276,10.972-5.276,10.972,0.833C27.192,22.271,19.354,22.271,17.787,26.452z"/>
<path fill="#F5F5F5" d="M38.157,24.91c0,1.085,1.568,1.085,1.568,0C39.726,23.905,38.157,23.905,38.157,24.91z"/>
<path fill="#F5F5F5" d="M22.678,24.69c0,1.083-1.566,1.083-1.566,0C21.112,23.684,22.678,23.684,22.678,24.69z"/>
<path fill="#CC9D76" d="M40.121,39.096c-1.474,1.666-2.395,4.619-7.836,4.619c-4.747,0-6.056-2.602-7.837-4.619H40.121z"/>
<path fill="#FFFFFF" d="M39.142,39.146c-3.225,3.303-10.448,3.348-13.715,0H39.142z"/>
<path fill="#CC9D76" d="M32.286,38.828c-3.072-1.346-3.096-0.053-7.838,0.268c5.988,0.67,9.686,0.67,15.673,0
	C35.38,38.775,35.355,37.482,32.286,38.828z"/>
<path fill="#DBA97F" d="M46.118,21.75c-3.324-1.37-7.871-1.637-10.207-0.722c-0.492,0.193-0.477,1.371-0.042,1.253
	c3.349-0.911,7.202-0.982,10.374,0.12C46.669,22.552,46.616,21.957,46.118,21.75z"/>
<path fill="#DBA97F" d="M18.331,21.753c3.322-1.37,7.871-1.637,10.207-0.725c0.492,0.193,0.478,1.373,0.041,1.253
	c-3.348-0.911-7.201-0.982-10.371,0.122C17.781,22.552,17.833,21.957,18.331,21.753z"/>
<path fill="#DBA97F" d="M36.202,34.35c0,2.516-7.731,2.516-7.731,0C28.471,33.771,36.202,33.771,36.202,34.35z"/>
<path fill="#E5BC5E" d="M32.174,2c-5.686,0-9.691,1.77-11.609,2.291c-7.256,1.973-8.393,7.658-8.393,14.225h40
	C52.173,12.22,42.493,2,32.174,2z"/>
<path fill="#D4AE57" d="M43.599,4.638C41.261,4.076,40.866,2,32.174,2C44.208,3.65,49.458,11.31,45.03,18.515h7.143
	C52.173,12.22,50.54,6.306,43.599,4.638z"/>
<path fill="#C49A45" d="M61.2,25.102c-4.34,8.742-9.814-4.772-29.29-4.772c-16.605,0-26.559,11.33-29.291,4.772
	c-1.826-4.38,0.594-6.255,4.455-7.29l2.066,1.422l0.268-1.932c0.246-0.043,0.494-0.086,0.744-0.127l1.029,1.02l0.406-1.238
	c11.639-1.662,12.424-4.225,20.322-4.225c8.34,0,10.372,3.223,21.202,3.836l0.715,1.83l2.338-1.456
	C61.728,18.066,63.085,21.306,61.2,25.102z"/>
<path fill="#6E8189" d="M53.032,54.813c-4.455,0-8.967-3.029-8.967-8.816v-8.631c0-0.902,1.635-3.635,1.635-3.635
	s1.635,2.732,1.635,3.635v8.631c0,3.83,2.863,5.547,5.697,5.547c2.836,0,5.697-1.717,5.697-5.547v-8.631
	c0-0.902,1.635-3.635,1.635-3.635s1.637,2.732,1.637,3.635v8.631C62.001,51.783,57.489,54.813,53.032,54.813z"/>
<rect x="51.476" y="55.754" fill="#8A6859" width="3.113" height="6.246"/>
<path fill="#6E8189" d="M54.669,37.365c0-0.902-1.637-3.635-1.637-3.635s-1.635,2.732-1.635,3.635v19.213h3.27L54.669,37.365z"/>
</svg>
