<?xml version="1.0" encoding="utf-8"?>
<!-- Generator: Adobe Illustrator 15.0.0, SVG Export Plug-In . SVG Version: 6.00 Build 0)  -->
<!DOCTYPE svg PUBLIC "-//W3C//DTD SVG 1.1//EN" "http://www.w3.org/Graphics/SVG/1.1/DTD/svg11.dtd">
<svg version="1.1" id="Layer_1" xmlns="http://www.w3.org/2000/svg" xmlns:xlink="http://www.w3.org/1999/xlink" x="0px" y="0px"
	 width="64px" height="64px" viewBox="0 0 64 64" enable-background="new 0 0 64 64" xml:space="preserve">
<path fill="#C49A45" d="M61.2,24.303c-1.08,2.176-2.23,4.033-3.648,5.599l-1.756-0.387l0.531,1.603
	c-4.338,3.863-11.109,5.557-24.417,5.557c-20.322,0-26.559-5.813-29.291-12.371C0.147,18.374,63.392,19.891,61.2,24.303z"/>
<path fill="#E6EBEF" d="M11.61,51.221c2.5-1.588,12.877-5.787,12.877-5.787h15.459c0,0,10.367,4.189,12.854,5.783
	C56.415,53.531,57.177,62,57.177,62h-50C7.176,62,7.983,53.523,11.61,51.221z"/>
<path fill="#E6A400" d="M40.177,46.973c0-1.248,0-6.785,0-6.785h-16c0,0,0,5.453,0,6.785C24.176,52.463,40.177,52.463,40.177,46.973
	z"/>
<path fill="#BEC3CF" d="M13.155,62c0.531-2.135-0.094-5.381-0.758-7.168C11.778,53.168,12.012,60.826,13.155,62z"/>
<path fill="#006DAE" d="M48.335,57.109c0.094-2.375,0.104-3.711-0.697-8.387c-0.193-0.381-4.518-2.332-5.072-2.178
	c0.723,5.107,0.768,7.203,0.715,10.078c-6.004-0.17-16.206-0.17-22.209,0.002c-0.053-2.877-0.008-4.973,0.715-10.08
	c-0.555-0.154-4.879,1.797-5.072,2.178c-0.799,4.676-0.791,6.012-0.697,8.387C15.204,57.664,14.676,62,14.676,62h35
	C49.677,62,49.149,57.664,48.335,57.109z"/>
<path fill="#EA8800" d="M32.176,3.556c-18.462,0-18.467,11.109-18.467,25h36.934C50.644,14.665,50.64,3.556,32.176,3.556z"/>
<path fill="#F5BC2C" d="M17.375,33.955c2.002-1.861,0.186-9.167-2.395-9.606C9.469,23.409,13.061,37.975,17.375,33.955z"/>
<path fill="#F5BC2C" d="M46.979,33.955c-2.001-1.861-0.185-9.167,2.396-9.606C54.884,23.409,51.294,37.973,46.979,33.955z"/>
<path fill="#FDCA47" d="M32.177,10.963c-19.288,0-11.517,2.234-16.667,13.565c0,0,0.037,5.195,1.115,10.769
	C18.016,42.482,26.103,48,32.177,48c6.076,0,14.162-5.518,15.552-12.703c1.078-5.573,1.115-10.769,1.115-10.769
	C43.694,13.197,51.467,10.963,32.177,10.963z"/>
<path fill="#F5F5F5" d="M45.88,26.163c-1.783,4.648-9.04,3.966-10.369,0.716C36.521,21.657,44.899,21.21,45.88,26.163z"/>
<path fill="#45332C" d="M37.362,25.669c0,4.098,5.926,4.098,5.926,0C43.288,21.865,37.362,21.865,37.362,25.669z"/>
<path fill="#45332C" d="M45.88,26.131c0-4.99-10.369-4.99-10.369,0.788C36.992,22.179,44.399,22.179,45.88,26.131z"/>
<path fill="#F5F5F5" d="M18.473,26.163c1.785,4.648,9.042,3.966,10.37,0.716C27.833,21.657,19.456,21.21,18.473,26.163z"/>
<path fill="#45332C" d="M26.992,25.669c0,4.098-5.926,4.098-5.926,0C21.066,21.865,26.992,21.865,26.992,25.669z"/>
<path fill="#45332C" d="M18.473,26.131c0-4.988,10.37-4.988,10.37,0.786C27.364,22.179,19.954,22.179,18.473,26.131z"/>
<path fill="#F5F5F5" d="M37.728,24.673c0,1.025,1.48,1.025,1.48,0C39.208,23.722,37.728,23.722,37.728,24.673z"/>
<path fill="#F5F5F5" d="M23.097,24.465c0,1.024-1.481,1.024-1.481,0C21.616,23.514,23.097,23.514,23.097,24.465z"/>
<path fill="#D99025" d="M32.176,37.881c-2.984-0.793-7.406,0.375-7.406,0.375c1.684,1.65,2.919,3.791,7.406,3.791
	c5.144,0,6.017-2.432,7.409-3.791C39.585,38.256,35.157,37.088,32.176,37.881z"/>
<path fill="#FFFFFF" d="M25.812,38.314c3.171,2.947,9.58,2.965,12.771,0C35.199,38.475,29.217,38.477,25.812,38.314z"/>
<path fill="#E6A400" d="M45.485,21.577c-3.182-1.313-7.54-1.569-9.776-0.694c-0.472,0.185-0.457,1.315-0.04,1.201
	c3.207-0.873,6.898-0.94,9.936,0.116C46.013,22.342,45.964,21.772,45.485,21.577z"/>
<path fill="#E6A400" d="M18.868,21.577c3.184-1.313,7.539-1.569,9.777-0.694c0.472,0.185,0.457,1.315,0.039,1.201
	c-3.207-0.873-6.898-0.94-9.935,0.116C18.34,22.342,18.39,21.772,18.868,21.577z"/>
<path fill="#E6A400" d="M35.881,33.271c0,2.408-7.408,2.408-7.408,0C28.473,32.718,35.881,32.718,35.881,33.271z"/>
<path fill="#E5BC5E" d="M32.174,2c-5.389,0-9.186,1.77-11.002,2.291c-6.877,1.973-7.955,7.658-7.955,14.226h37.911
	C51.128,12.221,41.954,2,32.174,2z"/>
<path fill="#D4AE57" d="M43.003,4.639C40.786,4.076,40.413,2,32.174,2c11.405,1.65,16.379,9.311,12.184,16.517h6.77
	C51.128,12.221,49.581,6.308,43.003,4.639z"/>
<path fill="#C49A45" d="M61.2,24.303c-4.34,8.742-9.814-4.772-29.29-4.772c-16.605,0-26.559,11.331-29.291,4.772
	c-1.826-4.379,0.594-6.255,4.455-7.289l2.066,1.421l0.268-1.931c0.246-0.044,0.494-0.087,0.744-0.127l1.029,1.02l0.406-1.238
	c11.639-1.662,12.424-4.225,20.322-4.225c8.34,0,10.372,3.223,21.202,3.836l0.715,1.829l2.338-1.456
	C61.728,17.268,63.085,20.508,61.2,24.303z"/>
<path fill="#6E8189" d="M53.032,54.813c-4.455,0-8.967-3.027-8.967-8.816v-8.631c0-0.902,1.635-3.635,1.635-3.635
	s1.635,2.732,1.635,3.635v8.631c0,3.832,2.863,5.547,5.697,5.547c2.836,0,5.697-1.715,5.697-5.547v-8.631
	c0-0.902,1.635-3.635,1.635-3.635s1.637,2.732,1.637,3.635v8.631C62.001,51.785,57.489,54.813,53.032,54.813z"/>
<rect x="51.476" y="55.754" fill="#8A6859" width="3.113" height="6.246"/>
<path fill="#6E8189" d="M54.669,37.365c0-0.902-1.637-3.635-1.637-3.635s-1.635,2.732-1.635,3.635v19.213h3.27L54.669,37.365z"/>
</svg>
