<?xml version="1.0" encoding="utf-8"?>
<!-- Generator: Adobe Illustrator 15.0.0, SVG Export Plug-In . SVG Version: 6.00 Build 0)  -->
<!DOCTYPE svg PUBLIC "-//W3C//DTD SVG 1.1//EN" "http://www.w3.org/Graphics/SVG/1.1/DTD/svg11.dtd">
<svg version="1.1" id="Layer_1" xmlns="http://www.w3.org/2000/svg" xmlns:xlink="http://www.w3.org/1999/xlink" x="0px" y="0px"
	 width="64px" height="64px" viewBox="0 0 64 64" enable-background="new 0 0 64 64" xml:space="preserve">
<path fill="#EA8800" d="M50.627,3.684c-2.513-3.421-14.984-2.05-14.984,8.039c0.052,5.421,0.886,17.733,10.021,17.733
	c9.133,0,9.967-12.261,10.071-17.733C55.734,8.361,53.907,4.39,50.627,3.684z"/>
<path fill="#D67C00" d="M35.788,15.034c0.448,5.98,2.319,14.422,9.884,14.422c7.585,0,9.446-8.459,9.919-14.461
	c-0.249-2.765-1.784-6.332-5.11-10.539C43.662,9.163,36.299,8.431,35.788,15.034z"/>
<path fill="#FDCA47" d="M41.438,59.695c0-4.771-0.98-7.904-0.98-14.17h4.157c0,6.445-0.609,8.838-0.214,14.07L41.438,59.695z"/>
<path fill="#302C3B" d="M44.311,58.07c0,1.34-2.912,1.475-2.912,0c0,0-1.704,2.85-0.866,3.93h4.715
	C46.084,60.926,44.311,58.07,44.311,58.07z"/>
<path fill="#FDCA47" d="M50.037,59.695c0-4.771,0.922-7.904,0.922-14.17h-3.924c0,6.445,0.575,8.838,0.202,14.07L50.037,59.695z"/>
<path fill="#302C3B" d="M47.321,58.07c0,1.34,2.752,1.475,2.752,0c0,0,1.605,2.85,0.815,3.93h-4.452
	C45.65,60.926,47.321,58.07,47.321,58.07z"/>
<path fill="#FDCA47" d="M51.505,38.893c2.947-1.842,4.765-4.473,4.463-5.201c-1.5-3.618-2.73-8.546-4.717-9.291l-1.405,3.987
	c0.916-0.328,2.466,3.757,3.496,5.079c0.151,0.195-0.468,1.943-2.877,3.99L51.505,38.893z"/>
<path fill="#FDCA47" d="M30.181,43.191c2.739-3.922,3.682-6.432,5.653-10.445c1.727-3.517,2.306-7.601,4.292-8.346l1.405,3.987
	c-0.916-0.328-3.563,4.649-4.071,6.376c-1.014,3.441-2.93,3.768-3.541,7.219c-0.593,3.35-1.562,1.318-1.577,0.131
	C30.691,45.043,30.061,45.525,30.181,43.191z"/>
<path fill="#FDCA47" d="M43.646,23.698c0.244-0.338,0.138-1.641,0.138-1.641l1.919-0.022l1.922,0.022c0,0-0.107,1.303,0.137,1.641
	c0.28,0.39,2.602,0.44,2.602,0.44s-2.419,6.468-4.66,6.468c-2.239,0-4.658-6.468-4.658-6.468S43.366,24.088,43.646,23.698z"/>
<path fill="#8E3ED6" d="M37.14,48.1c0-8.145,4.389-12.631,4.389-17.031c-1.905-1.428,0-3.072-1.588-6.789l1.192-0.332
	c1.551,3.293,7.558,3.295,9.109,0l1.194,0.332c-1.588,3.717,0.317,5.361-1.588,6.789c0,4.4,4.389,8.887,4.389,17.031H37.14z"/>
<path fill="#5D1E96" d="M45.672,46.096c4.437,0,7.564-0.771,8.361-0.99c0.127,0.943,0.204,1.938,0.204,2.994
	c0,0-3.399,1.049-8.565,1.049c-5.087,0-8.532-1.049-8.532-1.049c0-1.057,0.075-2.051,0.204-2.994
	C38.145,45.324,41.298,46.096,45.672,46.096z"/>
<path fill="#FDCA47" d="M52.899,11.556c-1.076-2.544-3.055-5.304-3.055-5.304c-7.236,4.349-13.354,2.167-11.656,10.41
	c0.808,3.911,5.644,6.942,7.55,6.942c1.905,0,6.864-3.008,7.548-6.942C53.682,14.383,53.403,12.741,52.899,11.556z"/>
<path fill="#F5F5F5" d="M52.356,13.256c-0.864,2.245-4.368,1.916-5.01,0.347C47.836,11.079,51.882,10.864,52.356,13.256z"/>
<path fill="#45332C" d="M48.241,13.018c0,1.979,2.86,1.979,2.86,0C51.102,11.181,48.241,11.181,48.241,13.018z"/>
<path fill="#45332C" d="M52.356,13.24c0-2.409-5.01-2.409-5.01,0.382C48.063,11.332,51.637,11.332,52.356,13.24z"/>
<path fill="#F5F5F5" d="M39.121,13.256c0.861,2.245,4.366,1.916,5.008,0.347C43.642,11.079,39.596,10.864,39.121,13.256z"/>
<path fill="#45332C" d="M43.236,13.018c0,1.979-2.864,1.979-2.864,0C40.372,11.181,43.236,11.181,43.236,13.018z"/>
<path fill="#45332C" d="M39.121,13.24c0-2.408,5.008-2.408,5.008,0.381C43.414,11.332,39.836,11.332,39.121,13.24z"/>
<path fill="#D99025" d="M49.313,19.012c-0.673,0.761-1.093,2.109-3.577,2.109c-2.166,0-2.762-1.188-3.575-2.109H49.313z"/>
<path fill="#FFFFFF" d="M48.866,19.035c-1.472,1.508-4.767,1.528-6.258,0H48.866z"/>
<path fill="#D99025" d="M45.736,18.891c-1.398-0.615-1.411-0.024-3.575,0.121c2.732,0.307,4.42,0.307,7.152,0
	C47.15,18.866,47.14,18.275,45.736,18.891z"/>
<path fill="#E6A400" d="M52.051,11.094c-1.518-0.624-3.594-0.747-4.658-0.33c-0.224,0.089-0.218,0.627-0.019,0.573
	c1.525-0.417,3.286-0.449,4.733,0.056C52.302,11.46,52.278,11.188,52.051,11.094z"/>
<path fill="#E6A400" d="M39.37,11.095c1.516-0.624,3.592-0.747,4.656-0.331c0.228,0.089,0.22,0.629,0.019,0.573
	c-1.526-0.417-3.284-0.449-4.731,0.056C39.119,11.46,39.143,11.188,39.37,11.095z"/>
<path fill="#E6A400" d="M47.526,16.847c0,1.147-3.529,1.147-3.529,0C43.997,16.583,47.526,16.583,47.526,16.847z"/>
<path fill="#EA8800" d="M18.467,2C9.525,2,9.522,7.382,9.522,14.108h17.891C27.413,7.382,27.41,2,18.467,2z"/>
<path fill="#F5BC2C" d="M11.299,16.726c0.968-0.902,0.09-4.441-1.161-4.653C7.469,11.616,9.207,18.67,11.299,16.726z"/>
<path fill="#F5BC2C" d="M25.637,16.726c-0.969-0.902-0.091-4.441,1.16-4.653C29.464,11.616,27.727,18.67,25.637,16.726z"/>
<path fill="#FDCA47" d="M18.467,5.588c-9.341,0-5.578,1.083-8.071,6.57c0,0,0.018,2.517,0.54,5.217
	c0.674,3.479,4.59,6.152,7.531,6.152s6.859-2.673,7.533-6.152c0.521-2.7,0.539-5.217,0.539-5.217
	C24.046,6.671,27.811,5.588,18.467,5.588z"/>
<path fill="#F5F5F5" d="M25.105,12.95c-0.865,2.251-4.379,1.921-5.023,0.347C20.571,10.768,24.631,10.55,25.105,12.95z"/>
<path fill="#45332C" d="M20.978,12.711c0,1.984,2.871,1.984,2.871,0C23.849,10.867,20.978,10.867,20.978,12.711z"/>
<path fill="#45332C" d="M25.105,12.934c0-2.416-5.023-2.416-5.023,0.383C20.799,11.021,24.388,11.021,25.105,12.934z"/>
<path fill="#F5F5F5" d="M11.829,12.95c0.866,2.251,4.38,1.921,5.023,0.347C16.364,10.768,12.307,10.55,11.829,12.95z"/>
<path fill="#45332C" d="M15.956,12.711c0,1.984-2.871,1.984-2.871,0C13.085,10.868,15.956,10.868,15.956,12.711z"/>
<path fill="#45332C" d="M11.829,12.934c0-2.415,5.023-2.415,5.023,0.382C16.136,11.021,12.548,11.021,11.829,12.934z"/>
<path fill="#D99025" d="M18.467,18.625c-1.444-0.383-3.587,0.183-3.587,0.183c0.815,0.799,1.415,1.837,3.587,1.837
	c2.491,0,2.914-1.178,3.589-1.837C22.056,18.808,19.91,18.241,18.467,18.625z"/>
<path fill="#FFFFFF" d="M15.385,18.836c1.535,1.428,4.64,1.438,6.185,0C19.931,18.914,17.034,18.915,15.385,18.836z"/>
<path fill="#E6A400" d="M24.913,10.728c-1.542-0.635-3.652-0.759-4.735-0.335c-0.229,0.089-0.222,0.637-0.02,0.582
	c1.555-0.423,3.342-0.456,4.813,0.057C25.169,11.1,25.145,10.823,24.913,10.728z"/>
<path fill="#E6A400" d="M12.021,10.728c1.542-0.635,3.653-0.759,4.737-0.335c0.229,0.089,0.222,0.637,0.018,0.582
	c-1.554-0.423-3.342-0.456-4.813,0.057C11.767,11.1,11.79,10.823,12.021,10.728z"/>
<path fill="#D67C00" d="M22.783,19.202c-1.685-1.77-6.915-1.784-8.612,0C16.452,19.079,20.486,19.079,22.783,19.202z"/>
<path fill="#EA8800" d="M22.783,19.202c-2.139-2.249-6.46-2.263-8.612,0C14.545,18.731,22.303,18.601,22.783,19.202z"/>
<path fill="#EA8800" d="M25.611,4.765c3.33,4.569-12.136,3.378-15.351,2.71C10.261,7.475,14.985,1.031,25.611,4.765z"/>
<path fill="#D67C00" d="M10.261,7.475c4.619,0.973,18.746,0.838,14.3-3.98C31.809,9.277,14.171,9.792,10.261,7.475z"/>
<path fill="#E6A400" d="M20.262,16.393c0,1.168-3.588,1.168-3.588,0C16.674,16.126,20.262,16.126,20.262,16.393z"/>
<path fill="#FDCA47" d="M10.553,44.209c-1.831-1.785,0.134,3.369-1.565,1.711c-1.581-1.543-0.778-4.129-0.778-4.129l2.695-0.471
	C10.904,41.32,12.066,45.686,10.553,44.209z"/>
<path fill="#FDCA47" d="M31.889,44.816c2.797-2.242-0.471-4.592-0.471-4.592l-2.327,1.439
	C29.004,41.484,30.886,45.619,31.889,44.816z"/>
<rect x="16.002" y="21.072" fill="#FDCA47" width="4.932" height="5.461"/>
<path fill="#302C3B" d="M24.673,38.699H12.262c-1.082,4.656,0.187,10.188-1.079,21.537c-0.16,1.43,5.806,1.438,5.752,0
	c-0.249-6.621,0.458-10.76,0.964-14.795c0.037-0.301,1.101-0.301,1.138,0c0.507,4.035,1.213,8.174,0.964,14.795
	c-0.054,1.438,5.912,1.43,5.752,0C24.486,48.887,25.755,43.355,24.673,38.699z"/>
<path fill="#CFD8DD" d="M26.822,62h-6.837C18.777,57.279,26.822,58.201,26.822,62z"/>
<path fill="#018BC9" d="M26.382,26.117c-0.644-1.412-5.449-3.085-5.449-3.085c0,2.409-4.931,2.409-4.931,0
	c0,0-4.959,1.612-5.449,3.085C8.073,33.561,7.81,34.68,8.089,42.07c0.028,0.754,2.944-0.238,2.954-0.609
	c0.188-6.65,0.137-5.107,1.219-10.283c0.648,3.436-0.228,7.139,0,7.521c0.802,1.354,11.609,1.354,12.411,0
	c0.228-0.383-0.648-4.086,0-7.521c2.044,4.404,2.278,5.201,4.497,10.904c0.135,0.346,2.659-0.957,2.463-1.684
	C30.166,34.965,28.737,31.283,26.382,26.117z"/>
<path fill="#CFD8DD" d="M10.112,62h6.837C18.157,57.279,10.112,58.201,10.112,62z"/>
</svg>
