<?xml version="1.0" encoding="utf-8"?>
<!-- Generator: Adobe Illustrator 15.0.0, SVG Export Plug-In . SVG Version: 6.00 Build 0)  -->
<!DOCTYPE svg PUBLIC "-//W3C//DTD SVG 1.1//EN" "http://www.w3.org/Graphics/SVG/1.1/DTD/svg11.dtd">
<svg version="1.1" id="Layer_1" xmlns="http://www.w3.org/2000/svg" xmlns:xlink="http://www.w3.org/1999/xlink" x="0px" y="0px"
	 width="64px" height="64px" viewBox="0 0 64 64" enable-background="new 0 0 64 64" xml:space="preserve">
<path fill="#EA8800" d="M39.163,4.442C35.517-0.52,17.43,1.47,17.43,16.103c0.076,7.862,1.286,25.72,14.533,25.72
	c13.245,0,14.456-17.782,14.608-25.72C46.571,11.228,43.923,5.466,39.163,4.442z"/>
<path fill="#D67C00" d="M17.64,20.905c0.651,8.675,3.365,20.917,14.335,20.917c11.004,0,13.702-12.269,14.386-20.974
	c-0.36-4.009-2.585-9.184-7.409-15.286C29.064,12.391,18.381,11.327,17.64,20.905z"/>
<path fill="#8E3ED6" d="M43.692,35.968c-1.492-1.043-7.03-3.784-7.03-3.784h-9.274c0,0-5.546,2.747-7.045,3.786
	C17.834,37.706,17.333,43.07,17,48.744L18,62h28l1-13.256C46.688,43.084,46.175,37.702,43.692,35.968z"/>
<path fill="#E6A400" d="M36.432,33.19c0-0.817,0-4.438,0-4.438h-8.863c0,0,0,3.569,0,4.438
	C27.569,36.782,36.432,36.782,36.432,33.19z"/>
<rect x="17" y="48.764" fill="#FDCA47" width="4.091" height="13.236"/>
<rect x="42.909" y="48.764" fill="#FDCA47" width="4.091" height="13.236"/>
<path fill="#FDCA47" d="M42.461,15.86c-1.563-3.69-4.433-7.692-4.433-7.692c-10.496,6.309-19.369,3.144-16.905,15.1
	c1.17,5.673,8.186,10.067,10.95,10.067c2.761,0,9.955-4.36,10.946-10.067C43.593,19.962,43.189,17.579,42.461,15.86z"/>
<path fill="#F5F5F5" d="M41.669,18.327c-1.25,3.256-6.332,2.778-7.264,0.502C35.114,15.17,40.981,14.857,41.669,18.327z"/>
<path fill="#45332C" d="M35.702,17.981c0,2.87,4.15,2.87,4.15,0C39.853,15.316,35.702,15.316,35.702,17.981z"/>
<path fill="#45332C" d="M41.669,18.304c0-3.494-7.264-3.494-7.264,0.554C35.443,15.536,40.63,15.536,41.669,18.304z"/>
<path fill="#F5F5F5" d="M22.476,18.327c1.248,3.256,6.332,2.778,7.262,0.502C29.032,15.17,23.164,14.857,22.476,18.327z"/>
<path fill="#45332C" d="M28.441,17.981c0,2.87-4.15,2.87-4.15,0C24.291,15.316,28.441,15.316,28.441,17.981z"/>
<path fill="#45332C" d="M22.476,18.304c0-3.493,7.262-3.493,7.262,0.552C28.701,15.536,23.513,15.536,22.476,18.304z"/>
<path fill="#D99025" d="M37.259,26.675c-0.977,1.104-1.586,3.06-5.187,3.06c-3.143,0-4.007-1.722-5.188-3.06H37.259z"/>
<path fill="#FFFFFF" d="M36.61,26.709c-2.135,2.187-6.916,2.217-9.078,0H36.61z"/>
<path fill="#D99025" d="M32.072,26.499c-2.031-0.892-2.047-0.035-5.188,0.176c3.965,0.445,6.412,0.445,10.375,0
	C34.12,26.464,34.104,25.607,32.072,26.499z"/>
<path fill="#E6A400" d="M41.228,15.19c-2.199-0.906-5.211-1.083-6.756-0.478c-0.325,0.128-0.315,0.908-0.027,0.83
	c2.216-0.604,4.768-0.651,6.866,0.08C41.593,15.722,41.558,15.328,41.228,15.19z"/>
<path fill="#E6A400" d="M22.837,15.192c2.197-0.906,5.208-1.084,6.754-0.479c0.328,0.128,0.316,0.91,0.027,0.83
	c-2.217-0.604-4.766-0.651-6.864,0.081C22.472,15.722,22.506,15.328,22.837,15.192z"/>
<path fill="#E6A400" d="M34.665,23.534c0,1.665-5.117,1.665-5.117,0C29.548,23.151,34.665,23.151,34.665,23.534z"/>
<path fill="#4ABDFF" d="M54.386,61.998c-1.197-0.834-5.648-3.027-5.648-3.027h-7.451c0,0-4.455,2.197-5.658,3.029L54.386,61.998z"/>
<path fill="#E6A400" d="M48.538,59.078c0-0.654,0-3.551,0-3.551h-7.09c0,0,0,2.854,0,3.551
	C41.448,61.951,48.538,61.951,48.538,59.078z"/>
<path fill="#EA8800" d="M44.999,35.818c-11.477,0-10.371,9.201-10.371,13.5H55.37C55.37,45.02,56.478,35.818,44.999,35.818z"/>
<path fill="#F5BC2C" d="M35.821,48.041c-3.578-0.471-1.248,6.844,1.555,4.826C38.673,51.932,37.495,48.262,35.821,48.041z"/>
<path fill="#F5BC2C" d="M54.179,48.041c-1.674,0.221-2.854,3.891-1.555,4.826C55.427,54.883,57.757,47.57,54.179,48.041z"/>
<path fill="#FDCA47" d="M54.228,47.41c0-6.135-3.623-4.77-9.227-4.77s-9.229-1.365-9.229,4.77c0,0,0.02,2.338,0.617,5.41
	c0.979,5.027,5.039,6.998,8.609,6.998c3.572,0,7.635-1.971,8.611-6.998C54.208,49.746,54.228,47.41,54.228,47.41z"/>
<path fill="#EA8800" d="M44.81,40.338c-1.676,2.988-7.955,4.855-10.113,4.662C36.651,43.023,37.519,37.936,44.81,40.338z"/>
<path fill="#D67C00" d="M34.696,45c2.748-0.719,6.316-2.182,10.113-4.662C43.134,43.326,37.62,45.684,34.696,45z"/>
<path fill="#EA8800" d="M53.28,40.176c-2.371,3.559-11.254,5.785-14.307,5.553C41.737,43.375,42.966,37.316,53.28,40.176z"/>
<path fill="#D67C00" d="M38.974,45.729c7.297-2.027,14.307-5.553,14.307-5.553C50.909,43.734,44.296,46.244,38.974,45.729z"/>
<path fill="#EA8800" d="M53.626,39.357c2.844,4.633-4.559,6.531-7.617,6.346C48.751,43.895,50.591,39.213,53.626,39.357z"/>
<path fill="#D67C00" d="M46.009,45.703c3.678-1.688,9.283-2.033,7.617-6.346C56.47,43.99,49.251,46.119,46.009,45.703z"/>
<path fill="#F5F5F5" d="M52.399,49.725c-0.963,2.51-4.881,2.141-5.6,0.387C47.345,47.291,51.87,47.049,52.399,49.725z"/>
<path fill="#45332C" d="M47.8,49.457c0,2.213,3.199,2.213,3.199,0C50.999,47.402,47.8,47.402,47.8,49.457z"/>
<path fill="#45332C" d="M52.399,49.705c0-2.693-5.6-2.693-5.6,0.428C47.601,47.572,51.601,47.572,52.399,49.705z"/>
<path fill="#F5F5F5" d="M37.601,49.725c0.963,2.51,4.881,2.141,5.6,0.387C42.655,47.291,38.13,47.049,37.601,49.725z"/>
<path fill="#45332C" d="M42.2,49.457c0,2.213-3.201,2.213-3.201,0C38.999,47.402,42.2,47.402,42.2,49.457z"/>
<path fill="#45332C" d="M37.601,49.705c0-2.691,5.6-2.691,5.6,0.426C42.401,47.572,38.399,47.572,37.601,49.705z"/>
<path fill="#D99025" d="M44.999,55.252c-1.611-0.428-4,0.203-4,0.203c0.91,0.891,1.578,2.047,4,2.047c2.777,0,3.25-1.313,4-2.047
	C48.999,55.455,46.608,54.824,44.999,55.252z"/>
<path fill="#FFFFFF" d="M41.563,55.486c1.711,1.592,5.172,1.602,6.895,0C46.632,55.574,43.401,55.574,41.563,55.486z"/>
<path fill="#E6A400" d="M52.187,47.389c-1.719-0.709-4.072-0.848-5.279-0.375c-0.256,0.1-0.248,0.711-0.021,0.65
	c1.732-0.473,3.725-0.51,5.365,0.061C52.472,47.803,52.444,47.494,52.187,47.389z"/>
<path fill="#E6A400" d="M37.813,47.389c1.719-0.709,4.07-0.848,5.279-0.375c0.254,0.1,0.246,0.711,0.021,0.65
	c-1.732-0.473-3.727-0.51-5.365,0.061C37.528,47.803,37.556,47.494,37.813,47.389z"/>
<path fill="#E6A400" d="M46.999,53.34c0,1.303-4,1.303-4,0C42.999,53.043,46.999,53.043,46.999,53.34z"/>
<path fill="#E32B56" d="M29.386,61.998c-1.199-0.834-5.648-3.027-5.648-3.027h-7.451c0,0-4.454,2.197-5.659,3.029L29.386,61.998z"/>
<path fill="#E6A400" d="M23.539,59.078c0-0.654,0-3.551,0-3.551h-7.092c0,0,0,2.854,0,3.551
	C16.447,61.951,23.539,61.951,23.539,59.078z"/>
<path fill="#EA8800" d="M11.807,49.396c-7.722,4.559-0.933,8.707-3.131,10.672C12.948,62.721,23.404,58.15,11.807,49.396z"/>
<path fill="#D67C00" d="M9.501,51.129c1.896,7.277,5.795,7.527,5.469,8.844C18.597,58.074,18.63,51.939,9.501,51.129z"/>
<path fill="#EA8800" d="M28.191,49.396c7.722,4.559,0.934,8.707,3.133,10.672C27.052,62.721,16.595,58.15,28.191,49.396z"/>
<path fill="#D67C00" d="M30.5,51.129c-1.896,7.277-5.797,7.527-5.471,8.844C21.402,58.074,21.369,51.939,30.5,51.129z"/>
<path fill="#EA8800" d="M9.436,49.213h21.116C33.624,32.687,6.364,32.687,9.436,49.213z"/>
<path fill="#D67C00" d="M9.411,49.01c0,0,12.019,4.486,20.353-0.713c-1.684,0.318-4.416-6.125-17.214-6.607
	C12.081,49.01,9.831,47.023,9.411,49.01z"/>
<path fill="#CFD8DD" d="M29.562,48.035c0.895-12.365-20.034-12.365-19.139,0C11.204,37.65,28.781,37.65,29.562,48.035z"/>
<path fill="#FFFFFF" d="M29.562,47.635c0.895-12.365-20.034-12.365-19.139,0C11.204,37.25,28.781,37.25,29.562,47.635z"/>
<path fill="#F5BC2C" d="M10.647,48.115c-3.643-0.471-1.269,6.842,1.584,4.826C13.552,52.006,12.352,48.336,10.647,48.115z"/>
<path fill="#F5BC2C" d="M29.339,48.115c-1.705,0.221-2.904,3.891-1.582,4.826C30.609,54.957,32.982,47.645,29.339,48.115z"/>
<path fill="#FDCA47" d="M29.222,48.137c-3.492-0.992-7.959-5.742-16.448-5.168c0.148,1.867-0.342,3.984-1.98,5.176
	c0,0-0.008,1.678,0.591,4.748c0.978,5.027,5.039,7,8.609,7s7.633-1.973,8.609-7C29.201,49.82,29.222,48.137,29.222,48.137z"/>
<path fill="#F5F5F5" d="M27.394,49.799c-0.963,2.51-4.883,2.141-5.602,0.385C22.339,47.363,26.865,47.123,27.394,49.799z"/>
<path fill="#45332C" d="M22.792,49.531c0,2.213,3.201,2.213,3.201,0C25.994,47.477,22.792,47.477,22.792,49.531z"/>
<path fill="#45332C" d="M27.394,49.779c0-2.693-5.602-2.693-5.602,0.428C22.593,47.646,26.593,47.646,27.394,49.779z"/>
<path fill="#F5F5F5" d="M12.594,49.799c0.964,2.51,4.882,2.141,5.599,0.385C17.648,47.363,13.124,47.123,12.594,49.799z"/>
<path fill="#45332C" d="M17.193,49.531c0,2.213-3.199,2.213-3.199,0C13.994,47.477,17.193,47.477,17.193,49.531z"/>
<path fill="#45332C" d="M12.594,49.779c0-2.693,5.599-2.693,5.599,0.426C17.394,47.646,13.394,47.646,12.594,49.779z"/>
<path fill="#D99025" d="M19.994,55.326c-1.611-0.428-4,0.201-4,0.201c0.91,0.893,1.576,2.049,4,2.049c2.777,0,3.248-1.313,4-2.049
	C23.994,55.527,21.603,54.896,19.994,55.326z"/>
<g>
	<path fill="#FFFFFF" d="M16.556,55.561c1.713,1.59,5.174,1.602,6.896,0C21.626,55.648,18.396,55.648,16.556,55.561z"/>
</g>
<path fill="#E6A400" d="M27.181,47.463c-1.721-0.709-4.072-0.848-5.279-0.375c-0.256,0.1-0.248,0.709-0.023,0.648
	c1.732-0.473,3.727-0.508,5.367,0.063C27.464,47.877,27.439,47.568,27.181,47.463z"/>
<path fill="#E6A400" d="M12.807,47.463c1.718-0.709,4.071-0.848,5.28-0.375c0.254,0.1,0.246,0.709,0.021,0.648
	c-1.732-0.473-3.727-0.508-5.366,0.063C12.522,47.877,12.549,47.568,12.807,47.463z"/>
<path fill="#E6A400" d="M21.994,53.414c0,1.303-4,1.303-4,0C17.994,53.117,21.994,53.117,21.994,53.414z"/>
</svg>
