<?xml version="1.0" encoding="utf-8"?>
<!-- Generator: Adobe Illustrator 15.0.0, SVG Export Plug-In . SVG Version: 6.00 Build 0)  -->
<!DOCTYPE svg PUBLIC "-//W3C//DTD SVG 1.1//EN" "http://www.w3.org/Graphics/SVG/1.1/DTD/svg11.dtd">
<svg version="1.1" id="Layer_1" xmlns="http://www.w3.org/2000/svg" xmlns:xlink="http://www.w3.org/1999/xlink" x="0px" y="0px"
	 width="64px" height="64px" viewBox="0 0 64 64" enable-background="new 0 0 64 64" xml:space="preserve">
<path fill="#38332D" d="M43.378,7.692C37.967,0.773,11.133,3.545,11.133,23.95c0.112,10.962,1.906,35.862,21.561,35.862
	c19.65,0,21.448-24.795,21.674-35.862C54.367,17.153,50.438,9.118,43.378,7.692z"/>
<path fill="#26221E" d="M11.445,30.647c0.967,12.095,4.993,29.166,21.267,29.166c16.327,0,20.327-17.107,21.343-29.245
	c-0.535-5.589-3.834-12.806-10.991-21.315C28.394,18.774,12.547,17.292,11.445,30.647z"/>
<path fill="#302C3B" d="M13.006,50.949c2.4-1.631,13.197-4.314,13.197-4.314h13.092c0,0,10.867,2.676,13.256,4.311
	C56.02,53.316,56.75,62,56.75,62h-48C8.75,62,9.525,53.309,13.006,50.949"/>
<path fill="#3B2B1C" d="M25.75,48.535c0,2.219,7,12.918,7,12.918s7-10.182,7-12.918V38h-14V48.535z"/>
<path fill="#1A1626" d="M14.488,62C15,59.811,14.4,56.482,13.76,54.65C13.168,52.943,13.393,60.795,14.488,62"/>
<path fill="#1A1626" d="M51.738,54.65c-0.639,1.834-1.24,5.16-0.729,7.348C52.107,60.795,52.332,52.945,51.738,54.65"/>
<polygon fill="#E6EBEF" points="56.744,38.039 42.91,62 49.84,62 61.941,41.039 "/>
<polygon fill="#CFD8DD" points="48.418,60.557 60.041,39.496 60.908,39.996 "/>
<path fill="#CFD8DD" d="M61.941,41.039c-0.668,1.154-5.863-1.846-5.197-3C57.412,36.883,62.607,39.883,61.941,41.039z"/>
<path fill="#E81C27" d="M48.715,51.947l-1,1.732c-0.668,1.154,4.529,4.154,5.195,3l1-1.732
	C53.244,56.102,48.047,53.102,48.715,51.947z"/>
<path fill="#614A36" d="M48.141,23.202c-2.301-5.427-6.521-11.315-6.521-11.315c-15.443,9.28-28.498,4.623-24.872,22.208
	c1.72,8.346,12.043,14.809,16.111,14.809c4.062,0,14.646-6.414,16.104-14.809C49.809,29.234,49.214,25.73,48.141,23.202z"/>
<path fill="#F5F5F5" d="M46.975,26.831c-1.838,4.788-9.315,4.085-10.686,0.737C37.33,22.187,45.965,21.727,46.975,26.831z"/>
<path fill="#45332C" d="M38.197,26.321c0,4.223,6.107,4.223,6.107,0C44.305,22.401,38.197,22.401,38.197,26.321z"/>
<path fill="#45332C" d="M46.975,26.796c0-5.141-10.686-5.141-10.686,0.813C37.816,22.725,45.448,22.725,46.975,26.796z"/>
<path fill="#F5F5F5" d="M18.736,26.831c1.837,4.788,9.315,4.085,10.685,0.737C28.381,22.187,19.746,21.727,18.736,26.831z"/>
<path fill="#45332C" d="M27.513,26.321c0,4.223-6.106,4.223-6.106,0C21.406,22.401,27.513,22.401,27.513,26.321z"/>
<path fill="#45332C" d="M18.736,26.796c0-5.139,10.685-5.139,10.685,0.812C27.895,22.725,20.262,22.725,18.736,26.796z"/>
<path fill="#F5F5F5" d="M38.574,25.294c0,1.057,1.527,1.057,1.527,0C40.102,24.315,38.574,24.315,38.574,25.294z"/>
<path fill="#F5F5F5" d="M23.499,25.08c0,1.055-1.525,1.055-1.525,0C21.974,24.101,23.499,24.101,23.499,25.08z"/>
<path fill="#3B2C20" d="M40.486,39.109c-1.435,1.623-2.332,4.498-7.631,4.498c-4.623,0-5.896-2.533-7.633-4.498H40.486z"/>
<path fill="#FFFFFF" d="M39.533,39.158c-3.141,3.217-10.175,3.262-13.357,0H39.533z"/>
<path fill="#3B2C20" d="M32.855,38.85c-2.99-1.311-3.014-0.053-7.633,0.26c5.832,0.652,9.433,0.652,15.264,0
	C35.869,38.797,35.846,37.539,32.855,38.85z"/>
<path fill="#3B2B1C" d="M46.326,22.217c-3.236-1.333-7.665-1.594-9.939-0.703c-0.479,0.188-0.465,1.335-0.041,1.221
	c3.26-0.887,7.014-0.957,10.103,0.116C46.863,22.998,46.813,22.418,46.326,22.217z"/>
<path fill="#3B2B1C" d="M19.266,22.22c3.236-1.333,7.665-1.594,9.94-0.706c0.479,0.188,0.465,1.337,0.04,1.221
	c-3.261-0.887-7.014-0.957-10.101,0.118C18.729,22.998,18.779,22.418,19.266,22.22z"/>
<path fill="#3B2B1C" d="M36.67,34.488c0,2.449-7.529,2.449-7.529,0C29.141,33.926,36.67,33.926,36.67,34.488z"/>
<path fill="#1A1626" d="M12.129,6.938v10.615c11.924,0,20.621,3.385,20.621,3.385s8.574-3.389,20.5-3.389V6.938H12.129z"/>
<polygon fill="#302C3B" points="32.75,2 3.5,5.555 3.5,6.492 32.75,10.938 62,6.492 62,5.555 "/>
<path fill="#F9C802" d="M3.5,6.492v24.055c0,0.645,1,0.645,1,0V6.641L3.5,6.492z"/>
<path fill="#F9C802" d="M6,37.896c0,2.209-0.002,2-2,2c-2,0-2,0.209-2-2s0.896-5.999,2-5.999S6,35.688,6,37.896"/>
<path fill="#967668" d="M3.75,39.896c0,0,0.25-3.059,0.25-3.998l0.25,3.998H3.75z"/>
<path fill="#967668" d="M2.75,39.896c0,0,0.25-3.059,0.25-3.998l0.25,3.998H2.75z"/>
<path fill="#967668" d="M4.75,39.896c0,0,0.25-3.059,0.25-3.998l0.25,3.998H4.75z"/>
<path fill="#F59E01" d="M2.664,33.82c0.354,0.32,0.82,0.52,1.334,0.52c0.518,0,0.979-0.199,1.336-0.521
	C4.98,32.719,4.514,31.897,4,31.897S3.018,32.721,2.664,33.82"/>
<path fill="#F9C802" d="M3.998,29.898c1.104,0,2,0.895,2,1.999c0,1.103-0.896,1.999-2,1.999S2,33,2,31.897
	C2,30.793,2.895,29.898,3.998,29.898"/>
<path fill="#F9C802" d="M5,29.397c-0.314-0.39-1.646-0.354-2,0c-0.178,0.177-0.193,0.843,0,1c0.389,0.313,1.646,0.354,2,0
	C5.176,30.221,5.156,29.591,5,29.397"/>
</svg>
