<?xml version="1.0" encoding="utf-8"?>
<!-- Generator: Adobe Illustrator 15.0.0, SVG Export Plug-In . SVG Version: 6.00 Build 0)  -->
<!DOCTYPE svg PUBLIC "-//W3C//DTD SVG 1.1//EN" "http://www.w3.org/Graphics/SVG/1.1/DTD/svg11.dtd">
<svg version="1.1" id="Layer_1" xmlns="http://www.w3.org/2000/svg" xmlns:xlink="http://www.w3.org/1999/xlink" x="0px" y="0px"
	 width="64px" height="64px" viewBox="0 0 64 64" enable-background="new 0 0 64 64" xml:space="preserve">
<path fill="#594640" d="M32,2C3.307,2,6.072,25,6.072,35.75h51.856C57.928,25,60.692,2,32,2z"/>
<path fill="#F2C198" d="M8.634,32.557c-9.107-1.179-3.174,17.105,3.958,12.063C15.896,42.281,12.896,33.108,8.634,32.557z"/>
<path fill="#F2C198" d="M55.366,32.557c-4.263,0.552-7.263,9.725-3.958,12.063C58.541,49.661,64.472,31.378,55.366,32.557z"/>
<path fill="#FCD5B2" d="M55.07,30.978c0-15.339-9.06-11.925-23.07-11.925c-14.007,0-23.069-3.414-23.069,11.925
	c0,0,0.05,5.844,1.543,13.521C12.919,57.067,23.072,62,32,62s19.083-4.933,21.525-17.501C55.02,36.818,55.07,30.978,55.07,30.978z"
	/>
<path fill="#594640" d="M31.525,13.294C27.334,20.765,11.638,25.437,6.244,24.95C11.129,20.01,13.298,7.291,31.525,13.294z"/>
<path fill="#422F2A" d="M6.244,24.95c6.87-1.794,15.791-5.453,25.282-11.656C27.334,20.765,13.55,26.661,6.244,24.95z"/>
<path fill="#594640" d="M52.701,12.891c-5.931,8.898-28.136,14.463-35.767,13.884C23.844,20.89,26.913,5.741,52.701,12.891z"/>
<path fill="#422F2A" d="M16.934,26.774c18.244-5.071,35.767-13.884,35.767-13.884C46.771,21.789,30.242,28.063,16.934,26.774z"/>
<path fill="#594640" d="M53.564,10.848c7.109,11.578-11.396,16.326-19.043,15.859C41.377,22.188,45.977,10.485,53.564,10.848z"/>
<path fill="#422F2A" d="M34.521,26.707c9.195-4.219,23.209-5.081,19.043-15.859C60.674,22.426,42.629,27.752,34.521,26.707z"/>
<path fill="#F5F5F5" d="M50.5,36.763c-2.408,6.272-12.205,5.352-14,0.965C37.863,30.678,49.176,30.073,50.5,36.763z"/>
<path fill="#45332C" d="M39,36.094c0,5.532,8,5.532,8,0C47,30.958,39,30.958,39,36.094z"/>
<path fill="#45332C" d="M50.5,36.717c0-6.734-14-6.734-14,1.065C38.5,31.383,48.5,31.383,50.5,36.717z"/>
<path fill="#F5F5F5" d="M13.5,36.763c2.409,6.272,12.206,5.352,14,0.965C26.137,30.678,14.826,30.073,13.5,36.763z"/>
<path fill="#45332C" d="M25,36.094c0,5.532-8,5.532-8,0C17,30.959,25,30.959,25,36.094z"/>
<path fill="#45332C" d="M13.5,36.717c0-6.733,14-6.733,14,1.063C25.501,31.383,15.5,31.383,13.5,36.717z"/>
<path fill="#F5F5F5" d="M39.492,34.749c0,1.384,2,1.384,2,0C41.492,33.466,39.492,33.466,39.492,34.749z"/>
<path fill="#F5F5F5" d="M19.742,34.469c0,1.383-2,1.383-2,0C17.742,33.185,19.742,33.185,19.742,34.469z"/>
<path fill="#CC9D76" d="M32,50.581c-4.029-1.069-10,0.506-10,0.506c2.275,2.229,3.942,5.121,10,5.121c6.943,0,8.12-3.284,10-5.121
	C42,51.087,36.022,49.509,32,50.581z"/>
<path fill="#FFFFFF" d="M23.407,51.167c4.28,3.979,12.933,4.005,17.24,0C36.08,51.385,28.004,51.387,23.407,51.167z"/>
<path fill="#DBA97F" d="M49.967,30.922c-4.298-1.771-10.18-2.116-13.199-0.936c-0.638,0.249-0.618,1.775-0.055,1.622
	c4.33-1.18,9.314-1.271,13.414,0.156C50.678,31.957,50.611,31.188,49.967,30.922z"/>
<path fill="#DBA97F" d="M14.033,30.922c4.297-1.771,10.178-2.116,13.198-0.936c0.638,0.249,0.618,1.775,0.054,1.622
	c-4.33-1.18-9.314-1.271-13.413,0.156C13.321,31.957,13.387,31.188,14.033,30.922z"/>
<path fill="#DBA97F" d="M37,45.803c0,3.254-10,3.254-10,0C27,45.057,37,45.057,37,45.803z"/>
</svg>
