<?xml version="1.0" encoding="utf-8"?>
<!-- Generator: Adobe Illustrator 15.0.0, SVG Export Plug-In . SVG Version: 6.00 Build 0)  -->
<!DOCTYPE svg PUBLIC "-//W3C//DTD SVG 1.1//EN" "http://www.w3.org/Graphics/SVG/1.1/DTD/svg11.dtd">
<svg version="1.1" id="Layer_1" xmlns="http://www.w3.org/2000/svg" xmlns:xlink="http://www.w3.org/1999/xlink" x="0px" y="0px"
	 width="64px" height="64px" viewBox="0 0 64 64" enable-background="new 0 0 64 64" xml:space="preserve">
<path fill="#EA8800" d="M39.163,4.442C35.517-0.52,17.43,1.47,17.43,16.103c0.076,7.862,1.286,25.721,14.533,25.721
	c13.245,0,14.456-17.783,14.608-25.721C46.571,11.228,43.923,5.466,39.163,4.442z"/>
<path fill="#D67C00" d="M17.64,20.905c0.651,8.675,3.365,20.918,14.335,20.918c11.005,0,13.702-12.27,14.387-20.975
	c-0.36-4.009-2.585-9.184-7.409-15.286C29.063,12.391,18.381,11.327,17.64,20.905z"/>
<path fill="#8E3ED6" d="M43.692,35.968c-1.492-1.043-7.03-3.783-7.03-3.783h-9.274c0,0-5.546,2.746-7.045,3.785
	c-2.509,1.736-3.011,7.102-3.343,12.775l1,13.254h28l1-13.254C46.688,43.085,46.175,37.702,43.692,35.968z"/>
<path fill="#E6A400" d="M36.432,33.19c0-0.816,0-4.438,0-4.438h-8.863c0,0,0,3.57,0,4.438C27.568,36.782,36.432,36.782,36.432,33.19
	z"/>
<rect x="17" y="48.765" fill="#FDCA47" width="4.091" height="13.234"/>
<rect x="42.909" y="48.765" fill="#FDCA47" width="4.091" height="13.234"/>
<path fill="#FDCA47" d="M42.461,15.86c-1.563-3.69-4.433-7.692-4.433-7.692c-10.496,6.309-19.369,3.144-16.905,15.1
	c1.17,5.673,8.186,10.067,10.95,10.067c2.762,0,9.955-4.36,10.946-10.067C43.593,19.962,43.189,17.579,42.461,15.86z"/>
<path fill="#F5F5F5" d="M41.669,18.327c-1.25,3.256-6.332,2.778-7.264,0.502C35.114,15.17,40.981,14.857,41.669,18.327z"/>
<path fill="#45332C" d="M35.702,17.981c0,2.87,4.15,2.87,4.15,0C39.853,15.316,35.702,15.316,35.702,17.981z"/>
<path fill="#45332C" d="M41.669,18.304c0-3.494-7.264-3.494-7.264,0.554C35.443,15.536,40.63,15.536,41.669,18.304z"/>
<path fill="#F5F5F5" d="M22.476,18.327c1.248,3.256,6.332,2.778,7.262,0.502C29.031,15.17,23.163,14.857,22.476,18.327z"/>
<path fill="#45332C" d="M28.44,17.981c0,2.87-4.15,2.87-4.15,0C24.29,15.316,28.44,15.316,28.44,17.981z"/>
<path fill="#45332C" d="M22.476,18.304c0-3.493,7.262-3.493,7.262,0.552C28.7,15.536,23.513,15.536,22.476,18.304z"/>
<path fill="#D99025" d="M37.259,26.675c-0.977,1.104-1.586,3.06-5.188,3.06c-3.143,0-4.007-1.722-5.188-3.06H37.259z"/>
<path fill="#FFFFFF" d="M36.61,26.709c-2.135,2.187-6.916,2.217-9.078,0H36.61z"/>
<path fill="#D99025" d="M32.071,26.499c-2.031-0.892-2.047-0.035-5.188,0.176c3.965,0.445,6.412,0.445,10.375,0
	C34.12,26.464,34.104,25.607,32.071,26.499z"/>
<path fill="#E6A400" d="M41.228,15.19c-2.199-0.906-5.211-1.083-6.756-0.478c-0.325,0.128-0.315,0.908-0.027,0.83
	c2.216-0.604,4.768-0.651,6.866,0.08C41.593,15.722,41.558,15.328,41.228,15.19z"/>
<path fill="#E6A400" d="M22.837,15.192c2.197-0.906,5.208-1.084,6.754-0.479c0.328,0.128,0.316,0.91,0.027,0.83
	c-2.217-0.604-4.766-0.651-6.864,0.081C22.472,15.722,22.506,15.328,22.837,15.192z"/>
<path fill="#E6A400" d="M34.665,23.534c0,1.665-5.117,1.665-5.117,0C29.548,23.151,34.665,23.151,34.665,23.534z"/>
<path fill="#4ABDFF" d="M53.387,61.995c-1.197-0.832-5.648-3.025-5.648-3.025h-7.451c0,0-4.455,2.197-5.658,3.029L53.387,61.995z"/>
<path fill="#E6A400" d="M47.539,59.075c0-0.652,0-3.551,0-3.551h-7.09c0,0,0,2.855,0,3.551
	C40.449,61.948,47.539,61.948,47.539,59.075z"/>
<path fill="#EA8800" d="M44,35.817c-11.477,0-10.371,9.201-10.371,13.5h20.742C54.371,45.019,55.479,35.817,44,35.817z"/>
<path fill="#F5BC2C" d="M34.822,48.04c-3.578-0.471-1.248,6.844,1.555,4.827C37.674,51.931,36.496,48.261,34.822,48.04z"/>
<path fill="#F5BC2C" d="M53.18,48.04c-1.674,0.221-2.854,3.891-1.555,4.827C54.428,54.882,56.758,47.569,53.18,48.04z"/>
<path fill="#FDCA47" d="M53.229,47.409c0-6.135-3.623-4.77-9.227-4.77s-9.229-1.365-9.229,4.77c0,0,0.02,2.338,0.617,5.411
	c0.979,5.026,5.039,6.997,8.609,6.997c3.572,0,7.635-1.971,8.611-6.997C53.209,49.745,53.229,47.409,53.229,47.409z"/>
<path fill="#EA8800" d="M43.811,40.337c-1.676,2.988-7.955,4.855-10.113,4.662C35.652,43.022,36.52,37.935,43.811,40.337z"/>
<path fill="#D67C00" d="M33.697,44.999c2.748-0.719,6.316-2.182,10.113-4.662C42.135,43.325,36.621,45.683,33.697,44.999z"/>
<path fill="#EA8800" d="M52.281,40.175c-2.371,3.559-11.254,5.785-14.307,5.553C40.738,43.374,41.967,37.315,52.281,40.175z"/>
<path fill="#D67C00" d="M37.975,45.728c7.297-2.027,14.307-5.553,14.307-5.553C49.91,43.733,43.297,46.243,37.975,45.728z"/>
<path fill="#EA8800" d="M52.627,39.356c2.844,4.633-4.559,6.531-7.617,6.346C47.752,43.894,49.592,39.212,52.627,39.356z"/>
<path fill="#D67C00" d="M45.01,45.702c3.678-1.688,9.283-2.033,7.617-6.346C55.471,43.989,48.252,46.118,45.01,45.702z"/>
<path fill="#F5F5F5" d="M51.4,49.724c-0.963,2.51-4.881,2.141-5.6,0.387C46.346,47.29,50.871,47.048,51.4,49.724z"/>
<path fill="#45332C" d="M46.801,49.456c0,2.213,3.199,2.213,3.199,0C50,47.401,46.801,47.401,46.801,49.456z"/>
<path fill="#45332C" d="M51.4,49.704c0-2.693-5.6-2.693-5.6,0.428C46.602,47.571,50.602,47.571,51.4,49.704z"/>
<path fill="#F5F5F5" d="M36.602,49.724c0.963,2.51,4.881,2.141,5.6,0.387C41.656,47.29,37.131,47.048,36.602,49.724z"/>
<path fill="#45332C" d="M41.201,49.456c0,2.213-3.201,2.213-3.201,0C38,47.401,41.201,47.401,41.201,49.456z"/>
<path fill="#45332C" d="M36.602,49.704c0-2.691,5.6-2.691,5.6,0.426C41.402,47.571,37.4,47.571,36.602,49.704z"/>
<path fill="#D99025" d="M44,55.251c-1.611-0.428-4,0.203-4,0.203c0.91,0.891,1.578,2.047,4,2.047c2.777,0,3.25-1.313,4-2.047
	C48,55.454,45.609,54.823,44,55.251z"/>
<g>
	<path fill="#FFFFFF" d="M40.564,55.485c1.711,1.592,5.172,1.602,6.895,0C45.633,55.573,42.402,55.573,40.564,55.485z"/>
</g>
<path fill="#E6A400" d="M51.188,47.388c-1.719-0.709-4.072-0.848-5.279-0.375c-0.256,0.1-0.248,0.711-0.021,0.65
	c1.732-0.473,3.725-0.51,5.365,0.061C51.473,47.802,51.445,47.493,51.188,47.388z"/>
<path fill="#E6A400" d="M36.814,47.388c1.719-0.709,4.07-0.848,5.279-0.375c0.254,0.1,0.246,0.711,0.021,0.65
	c-1.732-0.473-3.727-0.51-5.365,0.061C36.529,47.802,36.557,47.493,36.814,47.388z"/>
<path fill="#E6A400" d="M46,53.34c0,1.302-4,1.302-4,0C42,53.043,46,53.043,46,53.34z"/>
<path fill="#4ABDFF" d="M29.39,61.995c-1.197-0.832-5.646-3.025-5.646-3.025h-7.451c0,0-4.455,2.197-5.66,3.029L29.39,61.995z"/>
<path fill="#E6A400" d="M23.542,59.075c0-0.652,0-3.551,0-3.551h-7.09c0,0,0,2.855,0,3.551
	C16.452,61.948,23.542,61.948,23.542,59.075z"/>
<path fill="#EA8800" d="M20,35.817c-11.479,0-10.371,9.201-10.371,13.5h20.742C30.371,45.019,31.477,35.817,20,35.817z"/>
<path fill="#F5BC2C" d="M10.82,48.04c-3.578-0.471-1.248,6.844,1.555,4.827C13.674,51.931,12.494,48.261,10.82,48.04z"/>
<path fill="#F5BC2C" d="M29.18,48.04c-1.676,0.221-2.854,3.891-1.555,4.827C30.426,54.882,32.756,47.569,29.18,48.04z"/>
<path fill="#FDCA47" d="M29.229,47.409c0-6.135-3.625-4.77-9.229-4.77s-9.229-1.365-9.229,4.77c0,0,0.02,2.338,0.617,5.411
	c0.979,5.026,5.039,6.997,8.611,6.997c3.57,0,7.633-1.971,8.609-6.997C29.207,49.745,29.229,47.409,29.229,47.409z"/>
<path fill="#EA8800" d="M19.811,40.337c-1.678,2.988-7.955,4.855-10.113,4.662C11.65,43.022,12.52,37.935,19.811,40.337z"/>
<path fill="#D67C00" d="M9.697,44.999c2.748-0.719,6.316-2.182,10.113-4.662C18.133,43.325,12.619,45.683,9.697,44.999z"/>
<path fill="#EA8800" d="M28.279,40.175c-2.371,3.559-11.254,5.785-14.307,5.553C16.736,43.374,17.965,37.315,28.279,40.175z"/>
<path fill="#D67C00" d="M13.973,45.728c7.297-2.027,14.307-5.553,14.307-5.553C25.908,43.733,19.297,46.243,13.973,45.728z"/>
<path fill="#EA8800" d="M28.625,39.356c2.844,4.633-4.559,6.531-7.617,6.346C23.75,43.894,25.59,39.212,28.625,39.356z"/>
<path fill="#D67C00" d="M21.008,45.702c3.678-1.688,9.283-2.033,7.617-6.346C31.469,43.989,24.252,46.118,21.008,45.702z"/>
<path fill="#F5F5F5" d="M27.398,49.724c-0.963,2.51-4.881,2.141-5.6,0.387C22.344,47.29,26.869,47.048,27.398,49.724z"/>
<path fill="#45332C" d="M22.799,49.456c0,2.213,3.201,2.213,3.201,0C26,47.401,22.799,47.401,22.799,49.456z"/>
<path fill="#45332C" d="M27.398,49.704c0-2.693-5.6-2.693-5.6,0.428C22.6,47.571,26.6,47.571,27.398,49.704z"/>
<path fill="#F5F5F5" d="M12.6,49.724c0.963,2.51,4.883,2.141,5.6,0.387C17.654,47.29,13.129,47.048,12.6,49.724z"/>
<path fill="#45332C" d="M17.199,49.456c0,2.213-3.199,2.213-3.199,0C14,47.401,17.199,47.401,17.199,49.456z"/>
<path fill="#45332C" d="M12.6,49.704c0-2.691,5.6-2.691,5.6,0.426C17.4,47.571,13.398,47.571,12.6,49.704z"/>
<path fill="#D99025" d="M20,55.251c-1.611-0.428-4,0.203-4,0.203c0.91,0.891,1.576,2.047,4,2.047c2.777,0,3.248-1.313,4-2.047
	C24,55.454,21.609,54.823,20,55.251z"/>
<path fill="#FFFFFF" d="M16.563,55.485c1.711,1.592,5.172,1.602,6.896,0C21.631,55.573,18.4,55.573,16.563,55.485z"/>
<path fill="#E6A400" d="M27.186,47.388c-1.719-0.709-4.07-0.848-5.279-0.375c-0.256,0.1-0.246,0.711-0.021,0.65
	c1.732-0.473,3.727-0.51,5.365,0.061C27.471,47.802,27.443,47.493,27.186,47.388z"/>
<path fill="#E6A400" d="M12.813,47.388c1.719-0.709,4.072-0.848,5.279-0.375c0.256,0.1,0.248,0.711,0.021,0.65
	c-1.732-0.473-3.725-0.51-5.365,0.061C12.527,47.802,12.555,47.493,12.813,47.388z"/>
<path fill="#E6A400" d="M22,53.34c0,1.302-4,1.302-4,0C18,53.043,22,53.043,22,53.34z"/>
</svg>
