<?xml version="1.0" encoding="utf-8"?>
<!-- Generator: Adobe Illustrator 15.0.0, SVG Export Plug-In . SVG Version: 6.00 Build 0)  -->
<!DOCTYPE svg PUBLIC "-//W3C//DTD SVG 1.1//EN" "http://www.w3.org/Graphics/SVG/1.1/DTD/svg11.dtd">
<svg version="1.1" id="Layer_1" xmlns="http://www.w3.org/2000/svg" xmlns:xlink="http://www.w3.org/1999/xlink" x="0px" y="0px"
	 width="64px" height="64px" viewBox="0 0 64 64" enable-background="new 0 0 64 64" xml:space="preserve">
<path fill="#E81C27" d="M32,5.664c-3.979-6.467-15-3.939-15,4.185c0,5.455,5.082,9.104,15,17.151c9.918-8.047,15-11.696,15-17.151
	C47,1.725,35.98-0.803,32,5.664z"/>
<path fill="#C21413" d="M31.557,6.471C31.713,6.106,32,5.664,32,5.664c-1.084-1.82-2.676-2.608-2.676-2.608
	C31.002,4.609,31.557,6.471,31.557,6.471z"/>
<path fill="#C21413" d="M40.721,2.225c2.17,1.289,3.742,3.557,3.742,6.624c0,4.968-5.75,10.737-11.094,15.644
	c-1.674,1.536-1.369,1.344-6.143-1.356C27.836,23.627,31.35,26.473,32,27c9.918-8.047,15-11.696,15-17.151
	C47,5.674,44.09,2.982,40.721,2.225z"/>
<path fill-rule="evenodd" clip-rule="evenodd" fill="#F46C60" d="M18.791,8.665c0.246,1.723,3.469-1.647,6.734-4.545
	C27.631,2.257,18.055,3.483,18.791,8.665z"/>
<path fill-rule="evenodd" clip-rule="evenodd" fill="#F46C60" d="M33.275,6.302c0.143,1.007,2.027-0.964,3.938-2.659
	C38.445,2.553,32.844,3.271,33.275,6.302z"/>
<path fill="#EA8800" d="M54.433,26.57C50.786,21.869,32.7,23.754,32.7,37.618c0.076,7.45,1.285,24.372,14.533,24.372
	c13.244,0,14.455-16.851,14.607-24.372C61.841,32.999,59.192,27.54,54.433,26.57z"/>
<path fill="#D67C00" d="M32.909,42.169c0.652,8.22,3.365,19.821,14.336,19.821c11.004,0,13.701-11.626,14.387-19.875
	c-0.361-3.798-2.586-8.701-7.41-14.483C44.333,34.102,33.651,33.094,32.909,42.169z"/>
<path fill="#5D1E96" d="M58.962,58.224c-1.492-1.042-7.029-3.783-7.029-3.783h-9.275c0,0-5.545,2.746-7.045,3.786
	c-1.933,1.337-2.673,1.278-3.063,3.773H62C61.617,59.511,60.874,59.56,58.962,58.224z"/>
<path fill="#E6A400" d="M51.702,55.447c0-0.816,0-4.439,0-4.439h-8.863c0,0,0,3.569,0,4.439
	C42.839,59.039,51.702,59.039,51.702,55.447z"/>
<path fill="#FDCA47" d="M57.731,38.116c-1.564-3.69-4.434-7.692-4.434-7.692c-10.496,6.309-19.369,3.144-16.904,15.1
	c1.17,5.673,8.186,10.068,10.949,10.068c2.762,0,9.955-4.361,10.947-10.068C58.862,42.218,58.46,39.835,57.731,38.116z"/>
<path fill="#F5F5F5" d="M56.938,40.583c-1.25,3.256-6.332,2.778-7.264,0.502C50.384,37.426,56.251,37.113,56.938,40.583z"/>
<path fill="#45332C" d="M50.972,40.237c0,2.87,4.15,2.87,4.15,0C55.122,37.572,50.972,37.572,50.972,40.237z"/>
<path fill="#45332C" d="M56.938,40.56c0-3.494-7.264-3.494-7.264,0.554C50.714,37.792,55.899,37.792,56.938,40.56z"/>
<path fill="#F5F5F5" d="M37.745,40.583c1.248,3.256,6.332,2.778,7.262,0.502C44.302,37.426,38.433,37.113,37.745,40.583z"/>
<path fill="#45332C" d="M43.71,40.237c0,2.87-4.15,2.87-4.15,0C39.56,37.572,43.71,37.572,43.71,40.237z"/>
<path fill="#45332C" d="M37.745,40.56c0-3.493,7.262-3.493,7.262,0.552C43.97,37.792,38.782,37.792,37.745,40.56z"/>
<path fill="#D99025" d="M52.528,48.931c-0.977,1.104-1.586,3.06-5.188,3.06c-3.143,0-4.006-1.722-5.188-3.06H52.528z"/>
<path fill="#FFFFFF" d="M51.88,48.965c-2.135,2.187-6.916,2.217-9.078,0H51.88z"/>
<path fill="#D99025" d="M47.341,48.755c-2.031-0.892-2.047-0.035-5.188,0.176c3.965,0.445,6.412,0.445,10.375,0
	C49.39,48.72,49.374,47.863,47.341,48.755z"/>
<path fill="#E6A400" d="M56.497,37.446c-2.199-0.906-5.211-1.083-6.756-0.478c-0.324,0.128-0.314,0.908-0.027,0.83
	c2.217-0.604,4.768-0.651,6.867,0.08C56.862,37.978,56.827,37.584,56.497,37.446z"/>
<path fill="#E6A400" d="M38.106,37.448c2.197-0.906,5.209-1.084,6.754-0.479c0.328,0.128,0.316,0.91,0.027,0.83
	c-2.217-0.604-4.766-0.651-6.863,0.081C37.741,37.978,37.776,37.584,38.106,37.448z"/>
<path fill="#E6A400" d="M49.935,45.79c0,1.665-5.117,1.665-5.117,0C44.817,45.407,49.935,45.407,49.935,45.79z"/>
<path fill="#EA8800" d="M23.884,26.57c-3.646-4.701-21.732-2.816-21.732,11.048c0.076,7.45,1.285,24.372,14.533,24.372
	c13.244,0,14.455-16.851,14.607-24.372C31.292,32.999,28.644,27.54,23.884,26.57z"/>
<path fill="#D67C00" d="M2.36,42.169c0.652,8.22,3.365,19.821,14.336,19.821c11.004,0,13.701-11.626,14.387-19.875
	c-0.361-3.798-2.586-8.701-7.41-14.483C13.784,34.102,3.103,33.094,2.36,42.169z"/>
<path fill="#8E3ED6" d="M28.413,58.224c-1.492-1.042-7.029-3.783-7.029-3.783h-9.275c0,0-5.545,2.746-7.045,3.786
	C3.131,59.563,2.391,59.505,2,62h29.451C31.068,59.511,30.325,59.56,28.413,58.224z"/>
<path fill="#E6A400" d="M21.153,55.447c0-0.816,0-4.439,0-4.439H12.29c0,0,0,3.569,0,4.439
	C12.29,59.039,21.153,59.039,21.153,55.447z"/>
<path fill="#FDCA47" d="M27.183,38.116c-1.564-3.69-4.434-7.692-4.434-7.692c-10.496,6.309-19.369,3.144-16.904,15.1
	c1.17,5.673,8.186,10.068,10.949,10.068c2.762,0,9.955-4.361,10.947-10.068C28.313,42.218,27.911,39.835,27.183,38.116z"/>
<path fill="#F5F5F5" d="M26.39,40.583c-1.25,3.256-6.332,2.778-7.264,0.502C19.835,37.426,25.702,37.113,26.39,40.583z"/>
<path fill="#45332C" d="M20.423,40.237c0,2.87,4.15,2.87,4.15,0C24.573,37.572,20.423,37.572,20.423,40.237z"/>
<path fill="#45332C" d="M26.39,40.56c0-3.494-7.264-3.494-7.264,0.554C20.165,37.792,25.351,37.792,26.39,40.56z"/>
<path fill="#F5F5F5" d="M7.196,40.583c1.248,3.256,6.332,2.778,7.262,0.502C13.753,37.426,7.884,37.113,7.196,40.583z"/>
<path fill="#45332C" d="M13.161,40.237c0,2.87-4.15,2.87-4.15,0C9.011,37.572,13.161,37.572,13.161,40.237z"/>
<path fill="#45332C" d="M7.196,40.56c0-3.493,7.262-3.493,7.262,0.552C13.421,37.792,8.233,37.792,7.196,40.56z"/>
<path fill="#D99025" d="M21.979,48.931c-0.977,1.104-1.586,3.06-5.188,3.06c-3.143,0-4.006-1.722-5.188-3.06H21.979z"/>
<path fill="#FFFFFF" d="M21.331,48.965c-2.135,2.187-6.916,2.217-9.078,0H21.331z"/>
<path fill="#D99025" d="M16.792,48.755c-2.031-0.892-2.047-0.035-5.188,0.176c3.965,0.445,6.412,0.445,10.375,0
	C18.841,48.72,18.825,47.863,16.792,48.755z"/>
<path fill="#E6A400" d="M25.948,37.446c-2.199-0.906-5.211-1.083-6.756-0.478c-0.324,0.128-0.314,0.908-0.027,0.83
	c2.217-0.604,4.768-0.651,6.867,0.08C26.313,37.978,26.278,37.584,25.948,37.446z"/>
<path fill="#E6A400" d="M7.558,37.448c2.197-0.906,5.209-1.084,6.754-0.479c0.328,0.128,0.316,0.91,0.027,0.83
	c-2.217-0.604-4.766-0.651-6.863,0.081C7.192,37.978,7.228,37.584,7.558,37.448z"/>
<path fill="#E6A400" d="M19.386,45.79c0,1.665-5.117,1.665-5.117,0C14.269,45.407,19.386,45.407,19.386,45.79z"/>
</svg>
