<?xml version="1.0" encoding="utf-8"?>
<!-- Generator: Adobe Illustrator 15.0.0, SVG Export Plug-In . SVG Version: 6.00 Build 0)  -->
<!DOCTYPE svg PUBLIC "-//W3C//DTD SVG 1.1//EN" "http://www.w3.org/Graphics/SVG/1.1/DTD/svg11.dtd">
<svg version="1.1" id="Layer_1" xmlns="http://www.w3.org/2000/svg" xmlns:xlink="http://www.w3.org/1999/xlink" x="0px" y="0px"
	 width="64px" height="64px" viewBox="0 0 64 64" enable-background="new 0 0 64 64" xml:space="preserve">
<path fill="#875B49" d="M43.014,5.435C37.406-1.543,9.6,1.253,9.6,21.831C9.716,32.889,11.576,58,31.941,58
	C52.304,58,54.167,32.993,54.4,21.831C54.4,14.978,50.328,6.873,43.014,5.435z"/>
<path fill="#6B4435" d="M9.923,28.585C10.925,40.784,15.097,58,31.961,58c16.918,0,21.063-17.254,22.116-29.494
	c-0.554-5.637-3.974-12.916-11.39-21.497C27.486,16.612,11.064,15.115,9.923,28.585z"/>
<path fill="#B88A6F" d="M47.523,21.076c-2.322-5.471-6.578-11.411-6.578-11.411c-15.575,9.359-28.741,4.663-25.085,22.4
	c1.734,8.414,12.146,14.934,16.249,14.934c4.097,0,14.771-6.469,16.242-14.934C49.203,27.16,48.604,23.627,47.523,21.076z"/>
<path fill="#F5F5F5" d="M46.346,24.737c-1.854,4.828-9.395,4.12-10.776,0.743C36.619,20.053,45.328,19.589,46.346,24.737z"/>
<path fill="#45332C" d="M37.494,24.224c0,4.258,6.159,4.258,6.159,0C43.653,20.269,37.494,20.269,37.494,24.224z"/>
<path fill="#45332C" d="M46.346,24.703c0-5.185-10.776-5.185-10.776,0.82C37.109,20.596,44.807,20.596,46.346,24.703z"/>
<path fill="#F5F5F5" d="M17.866,24.737c1.854,4.828,9.396,4.12,10.777,0.743C27.594,20.053,18.886,19.589,17.866,24.737z"/>
<path fill="#45332C" d="M26.718,24.224c0,4.258-6.159,4.258-6.159,0C20.56,20.269,26.718,20.269,26.718,24.224z"/>
<path fill="#45332C" d="M17.866,24.703c0-5.183,10.777-5.183,10.777,0.818C27.104,20.596,19.406,20.596,17.866,24.703z"/>
<path fill="#F5F5F5" d="M37.874,23.188c0,1.064,1.54,1.064,1.54,0C39.414,22.199,37.874,22.199,37.874,23.188z"/>
<path fill="#F5F5F5" d="M22.67,22.97c0,1.065-1.538,1.065-1.538,0C21.132,21.982,22.67,21.982,22.67,22.97z"/>
<path fill="#946346" d="M45.692,20.083c-3.264-1.344-7.731-1.605-10.024-0.709c-0.483,0.189-0.469,1.348-0.041,1.232
	c3.287-0.896,7.073-0.966,10.188,0.117C46.232,20.871,46.182,20.288,45.692,20.083z"/>
<path fill="#946346" d="M18.401,20.087c3.263-1.346,7.73-1.607,10.025-0.713c0.484,0.189,0.469,1.35,0.041,1.232
	c-3.289-0.896-7.074-0.966-10.188,0.119C17.86,20.871,17.91,20.288,18.401,20.087z"/>
<path fill="#946346" d="M35.954,32.459c0,2.472-7.594,2.472-7.594,0C28.36,31.893,35.954,31.893,35.954,32.459z"/>
<path fill="#8E3ED6" d="M41.334,47c0,0,11.621,3.368,14.174,4.867C59.219,54.041,60,62,60,62H4c0,0,0.828-7.966,4.553-10.13
	C11.119,50.376,22.666,47,22.666,47H41.334z"/>
<path fill="#BEC3CF" d="M53.832,59.5H10.168c-1.279,0-1.209,1.126-1.279,2.5h46.223C55.041,60.626,55.111,59.5,53.832,59.5z"/>
<path fill="#99A8AE" d="M10.332,60c0-0.173,3.719-0.313,21.668-0.313S53.666,59.827,53.666,60c0,0.171-3.717,0.313-21.666,0.313
	S10.332,60.171,10.332,60"/>
<path fill="#CFD8DD" d="M56.986,36H7.014c-0.625,0-1.078,0.413-1.006,0.917l3.148,22.166C9.227,59.587,9.797,60,10.42,60h43.158
	c0.625,0,1.195-0.413,1.266-0.917l3.148-22.166C58.064,36.413,57.609,36,56.986,36"/>
<path fill="#FFFFFF" d="M55.738,36.923c0,0.255-4.074,0.462-23.738,0.462c-19.666,0-23.738-0.207-23.738-0.462
	c0-0.254,4.072-0.461,23.738-0.461C51.664,36.462,55.738,36.669,55.738,36.923"/>
<path fill="#E6EBEF" d="M36.814,48.849c0,5.535-9.629,5.535-9.629,0C27.186,43.717,36.814,43.717,36.814,48.849z"/>
<path fill="#99A8AE" d="M16.758,61h-3.934c-1.377,0-1.377-2,0-2h3.934C18.137,59,18.137,61,16.758,61z"/>
<path fill="#99A8AE" d="M51.174,61H47.24c-1.377,0-1.377-2,0-2h3.934C52.553,59,52.553,61,51.174,61z"/>
<path fill="#99A8AE" d="M44.406,61.138c0,0.691-1,0.691-1,0C43.406,60.495,44.406,60.495,44.406,61.138z"/>
<path fill="#99A8AE" d="M42.375,61.138c0,0.691-1,0.691-1,0C41.375,60.495,42.375,60.495,42.375,61.138z"/>
</svg>
