<?xml version="1.0" encoding="utf-8"?>
<!-- Generator: Adobe Illustrator 15.0.0, SVG Export Plug-In . SVG Version: 6.00 Build 0)  -->
<!DOCTYPE svg PUBLIC "-//W3C//DTD SVG 1.1//EN" "http://www.w3.org/Graphics/SVG/1.1/DTD/svg11.dtd">
<svg version="1.1" id="Layer_1" xmlns="http://www.w3.org/2000/svg" xmlns:xlink="http://www.w3.org/1999/xlink" x="0px" y="0px"
	 width="64px" height="64px" viewBox="0 0 64 64" enable-background="new 0 0 64 64" xml:space="preserve">
<path fill="#EA8800" d="M24.163,4.442C20.517-0.519,2.428,1.469,2.428,16.102c0.076,7.863,1.287,25.72,14.535,25.72
	c13.244,0,14.456-17.783,14.607-25.72C31.57,11.227,28.922,5.465,24.163,4.442z"/>
<path fill="#D67C00" d="M2.639,20.905c0.652,8.676,3.365,20.917,14.336,20.917c11.004,0,13.701-12.269,14.387-20.974
	C31,16.84,28.775,11.665,23.951,5.563C14.063,12.391,3.381,11.327,2.639,20.905z"/>
<path fill="#8E3ED6" d="M24.691,34.967c-1.491-1.043-3.029-2.783-3.029-2.783h-9.275c0,0-5.545,2.746-7.045,3.785
	C2.834,37.705,2.332,43.07,2,48.742L3,62h26C29,62,27.175,36.701,24.691,34.967z"/>
<path fill="#E6A400" d="M21.432,33.189c0-0.816,0-4.437,0-4.437h-8.863c0,0,0,3.568,0,4.437
	C12.568,36.781,21.432,36.781,21.432,33.189z"/>
<rect x="2" y="48.764" fill="#FDCA47" width="4.09" height="13.236"/>
<path fill="#FDCA47" d="M27.461,15.86c-1.563-3.689-4.433-7.691-4.433-7.691c-10.497,6.309-19.37,3.143-16.905,15.1
	c1.17,5.672,8.186,10.066,10.95,10.066c2.761,0,9.955-4.359,10.946-10.066C28.593,19.961,28.189,17.579,27.461,15.86z"/>
<path fill="#F5F5F5" d="M26.668,18.327c-1.249,3.256-6.332,2.779-7.263,0.502C20.113,15.17,25.981,14.858,26.668,18.327z"/>
<path fill="#45332C" d="M20.702,17.981c0,2.871,4.15,2.871,4.15,0C24.853,15.317,20.702,15.317,20.702,17.981z"/>
<path fill="#45332C" d="M26.668,18.303c0-3.494-7.263-3.494-7.263,0.555C20.443,15.536,25.63,15.536,26.668,18.303z"/>
<path fill="#F5F5F5" d="M7.475,18.327c1.248,3.256,6.333,2.779,7.263,0.502C14.031,15.17,8.162,14.858,7.475,18.327z"/>
<path fill="#45332C" d="M13.439,17.981c0,2.871-4.15,2.871-4.15,0C9.289,15.317,13.439,15.317,13.439,17.981z"/>
<path fill="#45332C" d="M7.475,18.303c0-3.492,7.263-3.492,7.263,0.553C13.7,15.536,8.512,15.536,7.475,18.303z"/>
<path fill="#D99025" d="M22.258,26.674c-0.976,1.105-1.585,3.061-5.187,3.061c-3.143,0-4.007-1.723-5.188-3.061H22.258z"/>
<path fill="#FFFFFF" d="M21.61,26.709c-2.135,2.186-6.916,2.217-9.079,0H21.61z"/>
<path fill="#D99025" d="M17.071,26.499c-2.031-0.891-2.048-0.035-5.188,0.176c3.965,0.445,6.412,0.445,10.375,0
	C19.12,26.463,19.104,25.608,17.071,26.499z"/>
<path fill="#E6A400" d="M26.227,15.19c-2.198-0.906-5.21-1.082-6.755-0.477c-0.325,0.127-0.315,0.908-0.028,0.83
	c2.217-0.604,4.768-0.652,6.867,0.08C26.592,15.721,26.558,15.329,26.227,15.19z"/>
<path fill="#E6A400" d="M7.836,15.192c2.197-0.906,5.209-1.084,6.755-0.479c0.327,0.127,0.316,0.91,0.027,0.83
	c-2.218-0.604-4.767-0.652-6.864,0.08C7.471,15.721,7.506,15.329,7.836,15.192z"/>
<path fill="#E6A400" d="M19.665,23.534c0,1.666-5.118,1.666-5.118,0C14.547,23.151,19.665,23.151,19.665,23.534z"/>
<path fill="#EA8800" d="M54.162,4.442c-3.646-4.961-21.733-2.973-21.733,11.66c0.076,7.863,1.286,25.72,14.534,25.72
	c13.244,0,14.455-17.783,14.607-25.72C61.57,11.227,58.922,5.465,54.162,4.442z"/>
<path fill="#D67C00" d="M32.64,20.905c0.651,8.676,3.365,20.917,14.335,20.917c11.004,0,13.701-12.269,14.387-20.974
	C61,16.84,58.775,11.665,53.951,5.563C44.063,12.391,33.381,11.327,32.64,20.905z"/>
<path fill="#5D1E96" d="M58.691,35.967c-1.492-1.043-7.029-3.783-7.029-3.783h-9.275c0,0-2.545,1.746-4.045,2.785
	C35.834,36.705,35,62,35,62h26l1-13.258C61.688,43.082,61.174,37.701,58.691,35.967z"/>
<path fill="#E6A400" d="M51.432,33.189c0-0.816,0-4.437,0-4.437h-8.863c0,0,0,3.568,0,4.437
	C42.568,36.781,51.432,36.781,51.432,33.189z"/>
<rect x="57.908" y="48.764" fill="#FDCA47" width="4.092" height="13.236"/>
<path fill="#FDCA47" d="M57.461,15.86c-1.564-3.689-4.434-7.691-4.434-7.691c-10.496,6.309-19.368,3.143-16.904,15.1
	c1.17,5.672,8.186,10.066,10.949,10.066c2.762,0,9.955-4.359,10.947-10.066C58.592,19.961,58.189,17.579,57.461,15.86z"/>
<path fill="#F5F5F5" d="M56.668,18.327c-1.25,3.256-6.332,2.779-7.264,0.502C50.113,15.17,55.98,14.858,56.668,18.327z"/>
<path fill="#45332C" d="M50.701,17.981c0,2.871,4.15,2.871,4.15,0C54.852,15.317,50.701,15.317,50.701,17.981z"/>
<path fill="#45332C" d="M56.668,18.303c0-3.494-7.264-3.494-7.264,0.555C50.443,15.536,55.629,15.536,56.668,18.303z"/>
<path fill="#F5F5F5" d="M37.475,18.327c1.248,3.256,6.332,2.779,7.262,0.502C44.031,15.17,38.162,14.858,37.475,18.327z"/>
<path fill="#45332C" d="M43.439,17.981c0,2.871-4.15,2.871-4.15,0C39.289,15.317,43.439,15.317,43.439,17.981z"/>
<path fill="#45332C" d="M37.475,18.303c0-3.492,7.262-3.492,7.262,0.553C43.699,15.536,38.512,15.536,37.475,18.303z"/>
<path fill="#D99025" d="M52.258,26.674c-0.977,1.105-1.586,3.061-5.188,3.061c-3.143,0-4.006-1.723-5.188-3.061H52.258z"/>
<path fill="#FFFFFF" d="M51.609,26.709c-2.135,2.186-6.916,2.217-9.078,0H51.609z"/>
<path fill="#D99025" d="M47.07,26.499c-2.031-0.891-2.047-0.035-5.188,0.176c3.965,0.445,6.412,0.445,10.375,0
	C49.119,26.463,49.104,25.608,47.07,26.499z"/>
<path fill="#E6A400" d="M56.227,15.19c-2.199-0.906-5.211-1.082-6.756-0.477c-0.324,0.127-0.314,0.908-0.027,0.83
	c2.217-0.604,4.768-0.652,6.867,0.08C56.592,15.721,56.557,15.329,56.227,15.19z"/>
<path fill="#E6A400" d="M37.836,15.192c2.197-0.906,5.209-1.084,6.754-0.479c0.328,0.127,0.316,0.91,0.027,0.83
	c-2.217-0.604-4.766-0.652-6.863,0.08C37.471,15.721,37.506,15.329,37.836,15.192z"/>
<path fill="#E6A400" d="M49.664,23.534c0,1.666-5.117,1.666-5.117,0C44.547,23.151,49.664,23.151,49.664,23.534z"/>
<path fill="#E32B56" d="M41.386,61.998c-1.197-0.834-5.646-3.027-5.646-3.027h-7.451c0,0-4.456,2.197-5.661,3.029L41.386,61.998z"/>
<path fill="#E6A400" d="M35.538,59.078c0-0.654,0-3.551,0-3.551h-7.09c0,0,0,2.854,0,3.551
	C28.448,61.951,35.538,61.951,35.538,59.078z"/>
<path fill="#EA8800" d="M23.807,49.396c-7.722,4.559-0.933,8.707-3.131,10.672C24.948,62.721,35.403,58.15,23.807,49.396z"/>
<path fill="#D67C00" d="M21.501,51.129c1.896,7.277,5.796,7.527,5.47,8.844C30.599,58.074,30.632,51.939,21.501,51.129z"/>
<path fill="#EA8800" d="M40.192,49.396c7.723,4.559,0.934,8.707,3.133,10.672C39.054,62.721,28.597,58.15,40.192,49.396z"/>
<path fill="#D67C00" d="M42.499,51.129c-1.896,7.277-5.795,7.527-5.471,8.844C33.403,58.074,33.37,51.939,42.499,51.129z"/>
<path fill="#EA8800" d="M21.436,49.213h21.116C45.626,32.688,18.364,32.688,21.436,49.213z"/>
<path fill="#D67C00" d="M21.411,49.01c0,0,12.02,4.486,20.352-0.713c-1.682,0.318-4.416-6.125-17.213-6.607
	C24.081,49.01,21.831,47.023,21.411,49.01z"/>
<path fill="#CFD8DD" d="M41.562,48.035c0.896-12.365-20.034-12.365-19.138,0C23.204,37.65,40.782,37.65,41.562,48.035z"/>
<path fill="#FFFFFF" d="M41.562,47.635c0.896-12.365-20.034-12.365-19.138,0C23.204,37.25,40.782,37.25,41.562,47.635z"/>
<path fill="#F5BC2C" d="M22.647,48.115c-3.643-0.471-1.269,6.842,1.584,4.826C25.552,52.006,24.352,48.336,22.647,48.115z"/>
<path fill="#F5BC2C" d="M41.341,48.115c-1.705,0.221-2.906,3.891-1.584,4.826C42.61,54.957,44.983,47.645,41.341,48.115z"/>
<path fill="#FDCA47" d="M41.222,48.137c-3.49-0.992-7.957-5.742-16.448-5.168c0.148,1.867-0.342,3.984-1.98,5.176
	c0,0-0.008,1.678,0.591,4.748c0.978,5.027,5.039,7,8.609,7c3.572,0,7.635-1.973,8.611-7C41.202,49.82,41.222,48.137,41.222,48.137z"
	/>
<path fill="#F5F5F5" d="M39.394,49.799c-0.963,2.51-4.881,2.141-5.6,0.385C34.339,47.363,38.864,47.123,39.394,49.799z"/>
<path fill="#45332C" d="M34.794,49.531c0,2.213,3.201,2.213,3.201,0C37.995,47.477,34.794,47.477,34.794,49.531z"/>
<path fill="#45332C" d="M39.394,49.779c0-2.693-5.6-2.693-5.6,0.428C34.595,47.646,38.595,47.646,39.394,49.779z"/>
<path fill="#F5F5F5" d="M24.594,49.799c0.964,2.51,4.883,2.141,5.6,0.385C29.649,47.363,25.125,47.123,24.594,49.799z"/>
<path fill="#45332C" d="M29.194,49.531c0,2.213-3.2,2.213-3.2,0C25.995,47.477,29.194,47.477,29.194,49.531z"/>
<path fill="#45332C" d="M24.594,49.779c0-2.693,5.6-2.693,5.6,0.426C29.396,47.646,25.394,47.646,24.594,49.779z"/>
<path fill="#D99025" d="M31.995,55.326c-1.611-0.428-4,0.201-4,0.201c0.91,0.893,1.576,2.049,4,2.049c2.777,0,3.248-1.313,4-2.049
	C35.995,55.527,33.604,54.896,31.995,55.326z"/>
<path fill="#FFFFFF" d="M28.558,55.561c1.711,1.59,5.172,1.602,6.896,0C33.626,55.648,30.396,55.648,28.558,55.561z"/>
<path fill="#E6A400" d="M39.181,47.463c-1.719-0.709-4.07-0.848-5.279-0.375c-0.256,0.1-0.246,0.709-0.021,0.648
	c1.732-0.473,3.727-0.508,5.365,0.063C39.466,47.877,39.438,47.568,39.181,47.463z"/>
<path fill="#E6A400" d="M24.808,47.463c1.718-0.709,4.072-0.848,5.279-0.375c0.256,0.1,0.248,0.709,0.021,0.648
	c-1.73-0.473-3.725-0.508-5.365,0.063C24.522,47.877,24.549,47.568,24.808,47.463z"/>
<path fill="#E6A400" d="M33.995,53.414c0,1.303-4,1.303-4,0C29.995,53.117,33.995,53.117,33.995,53.414z"/>
</svg>
