<?xml version="1.0" encoding="utf-8"?>
<!-- Generator: Adobe Illustrator 15.0.0, SVG Export Plug-In . SVG Version: 6.00 Build 0)  -->
<!DOCTYPE svg PUBLIC "-//W3C//DTD SVG 1.1//EN" "http://www.w3.org/Graphics/SVG/1.1/DTD/svg11.dtd">
<svg version="1.1" id="Layer_1" xmlns="http://www.w3.org/2000/svg" xmlns:xlink="http://www.w3.org/1999/xlink" x="0px" y="0px"
	 width="64px" height="64px" viewBox="0 0 64 64" enable-background="new 0 0 64 64" xml:space="preserve">
<path fill="#EA8800" d="M24.163,4.442C20.517-0.519,2.429,1.469,2.429,16.102c0.076,7.863,1.286,25.72,14.534,25.72
	c13.244,0,14.456-17.783,14.607-25.72C31.57,11.227,28.922,5.465,24.163,4.442z"/>
<path fill="#D67C00" d="M2.64,20.905c0.651,8.676,3.365,20.917,14.335,20.917c11.004,0,13.701-12.269,14.387-20.974
	C31,16.84,28.775,11.665,23.951,5.563C14.063,12.391,3.381,11.327,2.64,20.905z"/>
<path fill="#8E3ED6" d="M24.691,34.967c-1.491-1.043-3.029-2.783-3.029-2.783h-9.275c0,0-5.545,2.746-7.045,3.785
	C2.834,37.705,2.332,43.07,2,48.742L3,62h26C29,62,27.175,36.701,24.691,34.967z"/>
<path fill="#E6A400" d="M21.432,33.189c0-0.816,0-4.437,0-4.437h-8.863c0,0,0,3.568,0,4.437
	C12.568,36.781,21.432,36.781,21.432,33.189z"/>
<rect x="2" y="48.764" fill="#FDCA47" width="4.091" height="13.236"/>
<path fill="#FDCA47" d="M27.461,15.86c-1.563-3.689-4.433-7.691-4.433-7.691c-10.496,6.309-19.369,3.143-16.905,15.1
	c1.17,5.672,8.186,10.066,10.95,10.066c2.761,0,9.955-4.359,10.946-10.066C28.593,19.961,28.189,17.579,27.461,15.86z"/>
<path fill="#F5F5F5" d="M26.668,18.327c-1.249,3.256-6.332,2.779-7.263,0.502C20.113,15.17,25.981,14.858,26.668,18.327z"/>
<path fill="#45332C" d="M20.702,17.981c0,2.871,4.15,2.871,4.15,0C24.853,15.317,20.702,15.317,20.702,17.981z"/>
<path fill="#45332C" d="M26.668,18.303c0-3.494-7.263-3.494-7.263,0.555C20.443,15.536,25.63,15.536,26.668,18.303z"/>
<path fill="#F5F5F5" d="M7.475,18.327c1.249,3.256,6.333,2.779,7.263,0.502C14.031,15.17,8.162,14.858,7.475,18.327z"/>
<path fill="#45332C" d="M13.439,17.981c0,2.871-4.149,2.871-4.149,0C9.29,15.317,13.439,15.317,13.439,17.981z"/>
<path fill="#45332C" d="M7.475,18.303c0-3.492,7.263-3.492,7.263,0.553C13.7,15.536,8.513,15.536,7.475,18.303z"/>
<g>
	<path fill="#D99025" d="M22.258,26.674c-0.976,1.105-1.585,3.061-5.187,3.061c-3.143,0-4.007-1.723-5.188-3.061H22.258z"/>
	<path fill="#FFFFFF" d="M21.61,26.709c-2.135,2.186-6.916,2.217-9.078,0H21.61z"/>
	<path fill="#D99025" d="M17.071,26.499c-2.031-0.891-2.048-0.035-5.188,0.176c3.964,0.445,6.411,0.445,10.374,0
		C19.12,26.463,19.104,25.608,17.071,26.499z"/>
</g>
<path fill="#E6A400" d="M26.227,15.19c-2.198-0.906-5.21-1.082-6.755-0.477c-0.325,0.127-0.315,0.908-0.028,0.83
	c2.217-0.604,4.768-0.652,6.867,0.08C26.592,15.721,26.558,15.329,26.227,15.19z"/>
<path fill="#E6A400" d="M7.836,15.192c2.198-0.906,5.209-1.084,6.755-0.479c0.327,0.127,0.316,0.91,0.027,0.83
	c-2.217-0.604-4.767-0.652-6.864,0.08C7.471,15.721,7.506,15.329,7.836,15.192z"/>
<path fill="#E6A400" d="M19.665,23.534c0,1.666-5.118,1.666-5.118,0C14.547,23.151,19.665,23.151,19.665,23.534z"/>
<path fill="#EA8800" d="M54.163,4.442c-3.646-4.961-21.734-2.973-21.734,11.66c0.076,7.863,1.286,25.72,14.534,25.72
	c13.244,0,14.456-17.783,14.607-25.72C61.57,11.227,58.922,5.465,54.163,4.442z"/>
<path fill="#D67C00" d="M32.64,20.905c0.651,8.676,3.365,20.917,14.335,20.917c11.004,0,13.701-12.269,14.387-20.974
	C61,16.84,58.775,11.665,53.951,5.563C44.063,12.391,33.381,11.327,32.64,20.905z"/>
<path fill="#5D1E96" d="M58.691,35.967c-1.491-1.043-7.029-3.783-7.029-3.783h-9.275c0,0-2.545,1.746-4.045,2.785
	C35.834,36.705,35,62,35,62h26l1-13.258C61.688,43.082,61.175,37.701,58.691,35.967z"/>
<path fill="#E6A400" d="M51.432,33.189c0-0.816,0-4.437,0-4.437h-8.863c0,0,0,3.568,0,4.437
	C42.568,36.781,51.432,36.781,51.432,33.189z"/>
<rect x="57.909" y="48.764" fill="#FDCA47" width="4.091" height="13.236"/>
<path fill="#FDCA47" d="M57.461,15.86c-1.563-3.689-4.433-7.691-4.433-7.691c-10.496,6.309-19.369,3.143-16.905,15.1
	c1.17,5.672,8.186,10.066,10.95,10.066c2.761,0,9.955-4.359,10.946-10.066C58.593,19.961,58.189,17.579,57.461,15.86z"/>
<path fill="#F5F5F5" d="M56.668,18.327c-1.249,3.256-6.332,2.779-7.263,0.502C50.113,15.17,55.981,14.858,56.668,18.327z"/>
<path fill="#45332C" d="M50.702,17.981c0,2.871,4.15,2.871,4.15,0C54.853,15.317,50.702,15.317,50.702,17.981z"/>
<path fill="#45332C" d="M56.668,18.303c0-3.494-7.263-3.494-7.263,0.555C50.443,15.536,55.63,15.536,56.668,18.303z"/>
<path fill="#F5F5F5" d="M37.475,18.327c1.249,3.256,6.333,2.779,7.263,0.502C44.031,15.17,38.162,14.858,37.475,18.327z"/>
<path fill="#45332C" d="M43.439,17.981c0,2.871-4.149,2.871-4.149,0C39.29,15.317,43.439,15.317,43.439,17.981z"/>
<path fill="#45332C" d="M37.475,18.303c0-3.492,7.263-3.492,7.263,0.553C43.7,15.536,38.513,15.536,37.475,18.303z"/>
<g>
	<path fill="#D99025" d="M52.258,26.674c-0.976,1.105-1.585,3.061-5.187,3.061c-3.143,0-4.007-1.723-5.188-3.061H52.258z"/>
	<path fill="#FFFFFF" d="M51.61,26.709c-2.135,2.186-6.916,2.217-9.078,0H51.61z"/>
	<path fill="#D99025" d="M47.071,26.499c-2.031-0.891-2.048-0.035-5.188,0.176c3.964,0.445,6.411,0.445,10.374,0
		C49.12,26.463,49.104,25.608,47.071,26.499z"/>
</g>
<path fill="#E6A400" d="M56.227,15.19c-2.198-0.906-5.21-1.082-6.755-0.477c-0.325,0.127-0.315,0.908-0.028,0.83
	c2.217-0.604,4.768-0.652,6.867,0.08C56.592,15.721,56.558,15.329,56.227,15.19z"/>
<path fill="#E6A400" d="M37.836,15.192c2.198-0.906,5.209-1.084,6.755-0.479c0.327,0.127,0.316,0.91,0.027,0.83
	c-2.217-0.604-4.767-0.652-6.864,0.08C37.471,15.721,37.506,15.329,37.836,15.192z"/>
<path fill="#E6A400" d="M49.665,23.534c0,1.666-5.118,1.666-5.118,0C44.547,23.151,49.665,23.151,49.665,23.534z"/>
<path fill="#4ABDFF" d="M41.386,61.998c-1.197-0.834-5.647-3.027-5.647-3.027h-7.451c0,0-4.455,2.197-5.659,3.029L41.386,61.998z"/>
<path fill="#E6A400" d="M35.538,59.078c0-0.654,0-3.551,0-3.551h-7.09c0,0,0,2.854,0,3.551
	C28.448,61.951,35.538,61.951,35.538,59.078z"/>
<path fill="#EA8800" d="M32,35.818c-11.478,0-10.371,9.201-10.371,13.5h20.742C42.371,45.02,43.478,35.818,32,35.818z"/>
<path fill="#F5BC2C" d="M22.821,48.041c-3.578-0.471-1.248,6.844,1.555,4.826C25.674,51.932,24.495,48.262,22.821,48.041z"/>
<path fill="#F5BC2C" d="M41.18,48.041c-1.675,0.221-2.854,3.891-1.555,4.826C42.427,54.883,44.757,47.57,41.18,48.041z"/>
<path fill="#FDCA47" d="M41.229,47.41c0-6.135-3.624-4.77-9.228-4.77s-9.229-1.365-9.229,4.77c0,0,0.02,2.338,0.617,5.41
	c0.979,5.027,5.039,6.998,8.61,6.998s7.634-1.971,8.61-6.998C41.208,49.746,41.229,47.41,41.229,47.41z"/>
<path fill="#EA8800" d="M31.811,40.338c-1.677,2.988-7.955,4.855-10.113,4.662C23.651,43.023,24.52,37.936,31.811,40.338z"/>
<path fill="#D67C00" d="M21.697,45c2.748-0.719,6.316-2.182,10.113-4.662C30.134,43.326,24.62,45.684,21.697,45z"/>
<path fill="#EA8800" d="M40.28,40.176c-2.371,3.559-11.254,5.785-14.307,5.553C28.737,43.375,29.966,37.316,40.28,40.176z"/>
<path fill="#D67C00" d="M25.974,45.729c7.297-2.027,14.307-5.553,14.307-5.553C37.909,43.734,31.297,46.244,25.974,45.729z"/>
<path fill="#EA8800" d="M40.626,39.357c2.844,4.633-4.559,6.531-7.617,6.346C35.751,43.895,37.591,39.213,40.626,39.357z"/>
<path fill="#D67C00" d="M33.009,45.703c3.678-1.688,9.283-2.033,7.617-6.346C43.47,43.99,36.252,46.119,33.009,45.703z"/>
<path fill="#F5F5F5" d="M39.399,49.725c-0.963,2.51-4.881,2.141-5.6,0.387C34.345,47.291,38.87,47.049,39.399,49.725z"/>
<path fill="#45332C" d="M34.8,49.457c0,2.213,3.2,2.213,3.2,0C38,47.402,34.8,47.402,34.8,49.457z"/>
<path fill="#45332C" d="M39.399,49.705c0-2.693-5.6-2.693-5.6,0.428C34.601,47.572,38.601,47.572,39.399,49.705z"/>
<path fill="#F5F5F5" d="M24.601,49.725c0.963,2.51,4.882,2.141,5.6,0.387C29.655,47.291,25.13,47.049,24.601,49.725z"/>
<path fill="#45332C" d="M29.2,49.457c0,2.213-3.2,2.213-3.2,0C26,47.402,29.2,47.402,29.2,49.457z"/>
<path fill="#45332C" d="M24.601,49.705c0-2.691,5.6-2.691,5.6,0.426C29.401,47.572,25.399,47.572,24.601,49.705z"/>
<path fill="#D99025" d="M32,55.252c-1.611-0.428-4,0.203-4,0.203c0.91,0.891,1.577,2.047,4,2.047c2.777,0,3.249-1.313,4-2.047
	C36,55.455,33.609,54.824,32,55.252z"/>
<path fill="#FFFFFF" d="M28.563,55.486c1.711,1.592,5.172,1.602,6.896,0C33.632,55.574,30.401,55.574,28.563,55.486z"/>
<path fill="#E6A400" d="M39.187,47.389c-1.719-0.709-4.071-0.848-5.279-0.375c-0.256,0.1-0.247,0.711-0.021,0.65
	c1.732-0.473,3.726-0.51,5.365,0.061C39.472,47.803,39.444,47.494,39.187,47.389z"/>
<path fill="#E6A400" d="M24.813,47.389c1.719-0.709,4.071-0.848,5.279-0.375c0.255,0.1,0.247,0.711,0.021,0.65
	c-1.732-0.473-3.726-0.51-5.365,0.061C24.528,47.803,24.556,47.494,24.813,47.389z"/>
<path fill="#E6A400" d="M34,53.34c0,1.303-4,1.303-4,0C30,53.043,34,53.043,34,53.34z"/>
</svg>
