<?xml version="1.0" encoding="utf-8"?>
<!-- Generator: Adobe Illustrator 15.0.0, SVG Export Plug-In . SVG Version: 6.00 Build 0)  -->
<!DOCTYPE svg PUBLIC "-//W3C//DTD SVG 1.1//EN" "http://www.w3.org/Graphics/SVG/1.1/DTD/svg11.dtd">
<svg version="1.1" id="Layer_1" xmlns="http://www.w3.org/2000/svg" xmlns:xlink="http://www.w3.org/1999/xlink" x="0px" y="0px"
	 width="64px" height="64px" viewBox="0 0 64 64" enable-background="new 0 0 64 64" xml:space="preserve">
<path fill="#C8A35D" d="M32,2C7.076,2,7.069,17,7.069,35.75h49.861C56.931,17,56.924,2,32,2z"/>
<path fill="#DEA885" d="M12.019,43.042c2.701-2.515,0.25-12.377-3.232-12.971C1.346,28.804,6.192,48.465,12.019,43.042z"/>
<path fill="#DEA885" d="M51.981,43.042c-2.7-2.515-0.249-12.377,3.233-12.971C62.653,28.804,57.809,48.463,51.981,43.042z"/>
<path fill="#EBBEA0" d="M32.001,12c-26.04,0-15.548,3.017-22.5,18.312c0,0,0.05,7.015,1.506,14.539C12.884,54.553,23.8,62,32.001,62
	s19.117-7.447,20.994-17.148c1.456-7.524,1.506-14.539,1.506-14.539C47.549,15.018,58.041,12,32.001,12z"/>
<path fill="#F5F5F5" d="M50.5,32.521c-2.408,6.272-12.205,5.352-14,0.965C37.863,26.437,49.176,25.832,50.5,32.521z"/>
<path fill="#45332C" d="M39,31.853c0,5.532,8,5.532,8,0C47,26.717,39,26.717,39,31.853z"/>
<path fill="#45332C" d="M50.5,32.476c0-6.734-14-6.734-14,1.065C38.5,27.142,48.5,27.142,50.5,32.476z"/>
<path fill="#F5F5F5" d="M13.5,32.521c2.409,6.272,12.206,5.352,14,0.965C26.137,26.437,14.826,25.832,13.5,32.521z"/>
<path fill="#45332C" d="M25,31.853c0,5.532-8,5.532-8,0C17,26.718,25,26.718,25,31.853z"/>
<path fill="#45332C" d="M13.5,32.476c0-6.733,14-6.733,14,1.063C25.502,27.142,15.5,27.142,13.5,32.476z"/>
<path fill="#F5F5F5" d="M39.492,30.508c0,1.384,2,1.384,2,0C41.492,29.225,39.492,29.225,39.492,30.508z"/>
<path fill="#F5F5F5" d="M19.742,30.228c0,1.383-2,1.383-2,0C17.742,28.943,19.742,28.943,19.742,30.228z"/>
<path fill="#BF8C6B" d="M32,48.34c-4.028-1.07-10,0.506-10,0.506c2.274,2.229,3.941,5.121,10,5.121c6.943,0,8.121-3.284,10-5.121
	C42,48.846,36.023,47.268,32,48.34z"/>
<path fill="#FFFFFF" d="M23.407,48.926c4.279,3.979,12.933,4.004,17.239,0C36.08,49.143,28.004,49.145,23.407,48.926z"/>
<path fill="#BF8D69" d="M49.967,26.328c-4.297-1.771-10.179-2.116-13.199-0.936c-0.637,0.249-0.617,1.775-0.054,1.622
	c4.329-1.18,9.313-1.271,13.414,0.157C50.679,27.362,50.612,26.593,49.967,26.328z"/>
<path fill="#BF8D69" d="M14.033,26.328c4.297-1.771,10.178-2.116,13.198-0.936c0.638,0.249,0.618,1.775,0.055,1.622
	c-4.33-1.18-9.314-1.271-13.414,0.157C13.321,27.362,13.388,26.593,14.033,26.328z"/>
<path fill="#A3864C" d="M44.027,49.947c-4.691-4.934-19.271-4.975-24.001,0C26.385,49.604,37.627,49.602,44.027,49.947z"/>
<path fill="#C8A35D" d="M44.027,49.947c-5.959-6.268-18.005-6.308-24.001,0C21.065,48.637,42.688,48.27,44.027,49.947z"/>
<path fill="#C8A35D" d="M51.91,9.706c9.287,12.735-33.821,9.412-42.787,7.553C9.123,17.259,22.292-0.701,51.91,9.706z"/>
<path fill="#A3864C" d="M9.123,17.259C22,19.969,61.373,19.594,48.98,6.163C69.186,22.281,20.026,23.719,9.123,17.259z"/>
<path fill="#BF8D69" d="M37,42.117c0,3.254-10,3.254-10,0C27,41.371,37,41.371,37,42.117z"/>
</svg>
