<?xml version="1.0" encoding="utf-8"?>
<!-- Generator: Adobe Illustrator 15.0.0, SVG Export Plug-In . SVG Version: 6.00 Build 0)  -->
<!DOCTYPE svg PUBLIC "-//W3C//DTD SVG 1.1//EN" "http://www.w3.org/Graphics/SVG/1.1/DTD/svg11.dtd">
<svg version="1.1" id="Layer_1" xmlns="http://www.w3.org/2000/svg" xmlns:xlink="http://www.w3.org/1999/xlink" x="0px" y="0px"
	 width="64px" height="64px" viewBox="0 0 64 64" enable-background="new 0 0 64 64" xml:space="preserve">
<path fill="#CFD8DD" d="M6.434,51.283c2.5-1.581,12.877-5.754,12.877-5.754H34.77c0,0,10.367,4.165,12.854,5.75
	C51.238,53.58,52,62,52,62H2C2,62,2.807,53.572,6.434,51.283z"/>
<path fill="#068AC7" d="M9.203,49.793c2.25-1.223,4.289-1.986,4.289-1.986L14.908,62H9.576L9.203,49.793z"/>
<path fill="#068AC7" d="M44.797,49.793c-2.25-1.223-4.289-1.986-4.289-1.986L39.09,62h5.334L44.797,49.793z"/>
<path fill="#DBA97F" d="M19,47.373c0,6.41,16,6.41,16,0C35,43.463,35,37,35,37H19C19,37,19,42.325,19,47.373z"/>
<path fill="#068AC7" d="M8.549,58.715c1.871-0.938,35.055-0.94,36.928-0.002C46.633,59.295,47.41,62,47.41,62H6.613
	C6.613,62,7.393,59.296,8.549,58.715z"/>
<path fill="#594640" d="M26.999,7.91c-16.616,0-16.62,9.999-16.62,22.5h33.24C43.619,17.909,43.615,7.91,26.999,7.91z"/>
<path fill="#F2C198" d="M13.678,35.271c1.801-1.676,0.166-8.25-2.154-8.646C6.563,25.778,9.795,38.887,13.678,35.271z"/>
<path fill="#F2C198" d="M40.32,35.271c-1.801-1.676-0.166-8.25,2.155-8.646C47.435,25.778,44.205,38.885,40.32,35.271z"/>
<path fill="#FCD5B2" d="M27,14.577c-17.36,0-10.366,2.011-15,12.209c0,0,0.033,4.676,1.004,9.692
	C14.254,42.944,21.532,47.91,27,47.91c5.467,0,12.744-4.966,13.996-11.433C41.967,31.461,42,26.786,42,26.786
	C37.365,16.587,44.359,14.577,27,14.577z"/>
<path fill="#F5F5F5" d="M39.332,28.257c-1.605,4.183-8.137,3.569-9.333,0.645C30.908,24.201,38.449,23.799,39.332,28.257z"/>
<path fill="#45332C" d="M31.666,27.813c0,3.688,5.333,3.688,5.333,0C36.999,24.388,31.666,24.388,31.666,27.813z"/>
<path fill="#45332C" d="M39.332,28.228c0-4.491-9.333-4.491-9.333,0.709C31.332,24.671,37.999,24.671,39.332,28.228z"/>
<path fill="#F5F5F5" d="M14.666,28.257c1.605,4.183,8.138,3.569,9.333,0.645C23.09,24.201,15.55,23.799,14.666,28.257z"/>
<path fill="#45332C" d="M22.332,27.813c0,3.688-5.333,3.688-5.333,0C16.999,24.388,22.332,24.388,22.332,27.813z"/>
<path fill="#45332C" d="M14.666,28.228c0-4.489,9.333-4.489,9.333,0.708C22.667,24.671,15.999,24.671,14.666,28.228z"/>
<path fill="#F5F5F5" d="M31.994,26.916c0,0.922,1.333,0.922,1.333,0C33.327,26.06,31.994,26.06,31.994,26.916z"/>
<path fill="#F5F5F5" d="M18.828,26.729c0,0.921-1.334,0.921-1.334,0C17.494,25.873,18.828,25.873,18.828,26.729z"/>
<path fill="#CC9D76" d="M26.999,38.804c-2.687-0.715-6.667,0.337-6.667,0.337c1.517,1.485,2.628,3.413,6.667,3.413
	c4.629,0,5.415-2.189,6.667-3.413C33.666,39.141,29.682,38.089,26.999,38.804z"/>
<path fill="#FFFFFF" d="M21.271,39.192c2.853,2.653,8.621,2.67,11.492,0C29.719,39.337,24.335,39.339,21.271,39.192z"/>
<path fill="#DBA97F" d="M38.977,24.129c-2.864-1.182-6.786-1.413-8.799-0.625c-0.425,0.166-0.412,1.183-0.036,1.081
	c2.886-0.786,6.209-0.846,8.942,0.104C39.451,24.818,39.407,24.305,38.977,24.129z"/>
<path fill="#DBA97F" d="M15.021,24.129c2.864-1.182,6.785-1.413,8.799-0.625c0.425,0.166,0.412,1.183,0.036,1.081
	c-2.888-0.786-6.21-0.846-8.942,0.104C14.547,24.818,14.591,24.305,15.021,24.129z"/>
<path fill="#594640" d="M40.272,13.045c6.191,8.491-22.547,6.276-28.524,5.037C11.748,18.083,20.527,6.108,40.272,13.045z"/>
<path fill="#422F2A" d="M11.748,18.083c8.584,1.807,34.833,1.556,26.571-7.397C51.789,21.431,19.018,22.388,11.748,18.083z"/>
<path fill="#DBA97F" d="M30.332,34.655c0,2.168-6.667,2.168-6.667,0C23.665,34.157,30.332,34.157,30.332,34.655z"/>
<path fill="#99A8AE" d="M42.307,57.352l-1.875-0.49l2.535-9.092c0.418-1.517,1.299-4.672,5.639-5.868l0.533,1.813
	c-3.287,0.902-3.895,3.094-4.301,4.543L42.307,57.352z"/>
<path fill="#F9B700" d="M62,38.332c0,0-3.223-1.223-9.705,1.023c-3.141,1.096-1.564,5.348,1.578,4.258
	C60.104,41.449,62,38.332,62,38.332z"/>
<path fill="#FFE12C" d="M52.939,42.735c-2.381,0.836-3.172-1.303-0.787-2.126c2.783-0.97,7.879-1.595,7.879-1.595
	S55.725,41.768,52.939,42.735"/>
<polygon fill="#6E8189" points="49.033,44.642 47.951,41.023 50.084,41.404 50.629,43.21 "/>
<polygon fill="#302C3B" points="42.021,62 43.537,56.545 39.787,55.563 38,62 "/>
<path opacity="0.2" d="M43.211,24.881c-10.531-3.785-21.875-3.785-32.406,0c-0.441-1.499-0.881-2.998-1.32-4.497
	c11.389-4.095,23.656-4.095,35.047,0C44.092,21.883,43.65,23.382,43.211,24.881z"/>
<path fill="#99A8AE" d="M43.033,23.936c-10.531-3.785-21.877-3.785-32.406,0c-0.441-1.5-0.881-2.998-1.32-4.498
	c11.387-4.094,23.656-4.094,35.047,0C43.914,20.938,43.473,22.436,43.033,23.936z"/>
<polygon fill="#6E8189" points="5,21.188 5,27.234 8.689,28.418 8.689,20.006 "/>
<polygon fill="#6E8189" points="49,21.188 49,27.234 45.311,28.418 45.311,20.006 "/>
<path fill="#302C3B" d="M46.156,32c0-19.371-2.748-29.361-19.154-29.361C10.594,2.639,7.848,12.629,7.848,32
	c0,0,2.746-17.497,19.154-17.497C43.408,14.503,46.156,32,46.156,32z"/>
<path fill="#6E8189" d="M27,7.734c5.973,0,10.273,1.196,13.365,3.55l-1.898-6.638c-11.465-2.646-22.932,0-22.932,0l-1.896,6.637
	C16.727,8.931,21.029,7.734,27,7.734z"/>
<polygon fill="#4E5E67" points="38.467,4.646 36.838,2 17.178,2 15.551,4.646 "/>
<polygon fill="#302C3B" points="37.238,4.646 36.424,3.323 17.59,3.323 16.777,4.646 "/>
<path fill="#4E5E67" d="M46.156,32c0-12.832-10.125-17.559-19.154-17.559c-9.027,0-19.154,4.727-19.154,17.559
	c0,0,2.746-15.375,19.154-15.375C43.408,16.625,46.156,32,46.156,32z"/>
</svg>
