<?xml version="1.0" encoding="utf-8"?>
<!-- Generator: Adobe Illustrator 15.0.0, SVG Export Plug-In . SVG Version: 6.00 Build 0)  -->
<!DOCTYPE svg PUBLIC "-//W3C//DTD SVG 1.1//EN" "http://www.w3.org/Graphics/SVG/1.1/DTD/svg11.dtd">
<svg version="1.1" id="Layer_1" xmlns="http://www.w3.org/2000/svg" xmlns:xlink="http://www.w3.org/1999/xlink" x="0px" y="0px"
	 width="64px" height="64px" viewBox="0 0 64 64" enable-background="new 0 0 64 64" xml:space="preserve">
<path fill="#302C3B" d="M14.996,61.912c-1.504-0.497,0.239-1.931-0.317-3.813c-1.086-3.682,2.66-3.456,3.107-1.709
	C18.746,60.139,16.75,62.492,14.996,61.912z"/>
<path fill="#FDCA47" d="M17.001,56.593c-0.274-4.561,1.084-5.207-0.873-8.241c1.022-2.685,0.502-4.21,0.502-4.21l-4.873-3.822
	c0,0,0.299,7.049,1.238,9.656c1.15,3.214,1.861,6.967,1.861,6.967C14.955,58.831,17.126,58.642,17.001,56.593z"/>
<path fill="#FDCA47" d="M8.28,33.845c0.948-0.944,1.216-1.964,1.216-1.964l-2.164-1.744c-2.776,4.089-2.631,3.614-1.819,4.742
	c1.85,2.568,5.93,3.435,5.93,3.435s0.476-2.027-0.017-2.229C10.066,35.521,9.728,34.447,8.28,33.845z"/>
<path fill="#FDCA47" d="M21.607,32.825c-0.67-0.276-1.06-1.028-1.06-1.028l2.117-2.082c2.87,3.445,3.128,2.653,1.976,4.497
	c-0.967,1.546-5.411,3.33-5.411,3.33s-1.833-1.436-1.358-1.657C19.928,34.929,20.143,33.343,21.607,32.825z"/>
<rect x="12.555" y="25.347" fill="#FDCA47" width="4.093" height="3.26"/>
<path fill="#302C3B" d="M30.498,53.906c-3.747-2.077-1.148-4.577,0.462-3.702C38.153,54.11,34.295,56.011,30.498,53.906z"/>
<path fill="#FDCA47" d="M31.089,51.281c-3.558-3.015-3.056-4.54-6.8-5.22c-1.112-5.252-4.958-8.014-4.958-8.014
	c-2.683,3.086-1.788,5.779-1.788,5.779s3.039,4.452,5.682,5.602c3.255,1.406,6.562,3.531,6.562,3.531
	C31.25,54.221,32.694,52.641,31.089,51.281z"/>
<path fill="#302C3B" d="M18.698,36.413c-1.49-1.349,0.457-3.274,0.184-5.349l1.758,1.024l2.601-1.764c0,0-1.036-2.691-3.743-2.827
	c-0.94-1.042-2.85-0.997-2.85-0.997c0,1.969-4.093,1.969-4.093,0c0,0-1.941,0.334-3.101,1.303c-2.202,0.623-2.699,3.181-2.699,3.181
	l2.694,1.178l0.386-0.442c0.21,2.777,1.607,3.23,1.664,8.459c0.021,1.977,0.598,6.009,0.598,6.009h4.77l0.054-1.674
	c0.12,0.01,0.236,0.029,0.36,0.029c0.177,0,0.378-0.035,0.591-0.094l0.896,1.285l4.576-2.855c-0.902-2.106-1.548-2.336-1.982-3.168
	C20.864,38.758,20.21,37.778,18.698,36.413z"/>
<path fill="#EA8800" d="M14.602,11.812c-6.052,0-6.053,3.642-6.053,8.193h12.105C20.655,15.454,20.653,11.812,14.602,11.812z"/>
<g>
	<path fill="#F5BC2C" d="M9.751,21.774c0.655-0.609,0.06-3.003-0.785-3.148C7.16,18.319,8.337,23.092,9.751,21.774z"/>
</g>
<g>
	<path fill="#F5BC2C" d="M19.453,21.774c-0.655-0.609-0.06-3.003,0.785-3.148C22.043,18.319,20.867,23.091,19.453,21.774z"/>
</g>
<path fill="#FDCA47" d="M14.602,14.24c-6.322,0-3.774,0.732-5.462,4.445c0,0,0.013,1.702,0.366,3.529
	c0.456,2.354,3.106,4.164,5.097,4.164c1.991,0,4.641-1.809,5.097-4.164c0.354-1.827,0.366-3.529,0.366-3.529
	C18.376,14.972,20.924,14.24,14.602,14.24z"/>
<path fill="#F5F5F5" d="M19.093,19.221c-0.583,1.523-2.963,1.3-3.398,0.235C16.025,17.745,18.771,17.598,19.093,19.221z"/>
<path fill="#45332C" d="M16.301,19.059c0,1.343,1.942,1.343,1.942,0C18.244,17.813,16.301,17.813,16.301,19.059z"/>
<path fill="#45332C" d="M19.093,19.21c0-1.634-3.398-1.634-3.398,0.259C16.18,17.916,18.608,17.916,19.093,19.21z"/>
<path fill="#F5F5F5" d="M10.111,19.221c0.584,1.523,2.963,1.3,3.398,0.235C13.179,17.745,10.433,17.598,10.111,19.221z"/>
<path fill="#45332C" d="M12.903,19.059c0,1.343-1.942,1.343-1.942,0C10.96,17.813,12.903,17.813,12.903,19.059z"/>
<path fill="#45332C" d="M10.111,19.21c0-1.633,3.398-1.633,3.398,0.259C13.024,17.916,10.596,17.916,10.111,19.21z"/>
<path fill="#D99025" d="M14.602,23.062c-0.978-0.26-2.428,0.123-2.428,0.123c0.552,0.541,0.957,1.244,2.428,1.244
	c1.685,0,1.971-0.798,2.427-1.244C17.029,23.185,15.579,22.802,14.602,23.062z"/>
<path fill="#FFFFFF" d="M12.516,23.203c1.039,0.966,3.139,0.973,4.185,0C15.593,23.256,13.631,23.257,12.516,23.203z"/>
<path fill="#E6A400" d="M18.964,17.719c-1.043-0.431-2.472-0.515-3.205-0.228c-0.155,0.061-0.149,0.431-0.013,0.394
	c1.05-0.287,2.261-0.308,3.256,0.037C19.136,17.969,19.121,17.783,18.964,17.719z"/>
<path fill="#E6A400" d="M10.24,17.719c1.043-0.431,2.471-0.515,3.205-0.228c0.154,0.061,0.149,0.431,0.013,0.394
	c-1.051-0.287-2.261-0.308-3.256,0.037C10.068,17.969,10.083,17.783,10.24,17.719z"/>
<path fill="#EA8800" d="M19.435,13.683c2.255,3.091-8.21,2.285-10.387,1.834C9.048,15.517,12.245,11.156,19.435,13.683z"/>
<path fill="#D67C00" d="M9.048,15.517c3.126,0.658,12.685,0.566,9.676-2.694C23.63,16.736,11.695,17.084,9.048,15.517z"/>
<path fill="#E6A400" d="M15.815,21.551c0,0.79-2.427,0.79-2.427,0C13.388,21.369,15.815,21.369,15.815,21.551z"/>
<path fill="#302C3B" d="M19.568,2.006c-0.341-0.148-3.23,2.587-3.319,4.865c-0.099,2.58-0.224,4.438-0.311,5.559
	c-0.88-0.149-1.795-0.143-2.67,0.021c-0.088-1.118-0.212-2.983-0.312-5.58c-0.089-2.278-2.978-5.014-3.322-4.865
	C9.079,2.241,8.077,6.332,9.023,8.111c1.361,2.559,1.944,4.152,2.196,5.083c-0.78,0.448-1.441,1.059-1.869,1.852
	c3.993-1.751,6.646-1.752,10.638,0c-0.449-0.833-1.153-1.465-1.984-1.918c0.262-0.938,0.846-2.516,2.177-5.017
	C21.128,6.332,20.127,2.241,19.568,2.006z"/>
<path fill="#FB367D" d="M19.468,7.574c0.477-1.135,0.234-2.95-0.283-3.156c-0.323-0.126-1.627,0.953-1.888,2.529
	c-0.499,3.027-0.734,4.936-0.807,5.565c0.426,0.1,0.823,0.239,1.196,0.402C17.748,12.448,18.041,10.981,19.468,7.574z"/>
<path fill="#FB367D" d="M11.909,6.947c-0.26-1.576-1.564-2.655-1.887-2.529C9.503,4.624,9.263,6.439,9.736,7.574
	c1.486,3.543,1.745,4.991,1.79,5.393c0.37-0.17,0.771-0.31,1.196-0.418C12.653,11.96,12.417,10.038,11.909,6.947z"/>
<path fill="#302C3B" d="M38.996,61.912c-1.504-0.497,0.239-1.931-0.316-3.813c-1.087-3.682,2.659-3.456,3.106-1.709
	C42.746,60.139,40.75,62.492,38.996,61.912z"/>
<path fill="#FDCA47" d="M41.002,56.593c-0.274-4.561,1.084-5.207-0.873-8.241c1.021-2.685,0.502-4.21,0.502-4.21l-4.873-3.822
	c0,0,0.299,7.049,1.238,9.656c1.149,3.214,1.86,6.967,1.86,6.967C38.955,58.831,41.127,58.642,41.002,56.593z"/>
<path fill="#FDCA47" d="M32.281,33.845c0.948-0.944,1.216-1.964,1.216-1.964l-2.165-1.744c-2.776,4.089-2.631,3.614-1.819,4.742
	c1.85,2.568,5.93,3.435,5.93,3.435s0.477-2.027-0.017-2.229C34.066,35.521,33.729,34.447,32.281,33.845z"/>
<path fill="#FDCA47" d="M45.607,32.825c-0.67-0.276-1.059-1.028-1.059-1.028l2.116-2.082c2.87,3.445,3.128,2.653,1.976,4.497
	c-0.967,1.546-5.41,3.33-5.41,3.33s-1.834-1.436-1.359-1.657C43.928,34.929,44.143,33.343,45.607,32.825z"/>
<rect x="36.556" y="25.347" fill="#FDCA47" width="4.093" height="3.26"/>
<path fill="#302C3B" d="M54.498,53.906c-3.746-2.077-1.148-4.577,0.462-3.702C62.153,54.11,58.295,56.011,54.498,53.906z"/>
<path fill="#FDCA47" d="M55.09,51.281c-3.558-3.015-3.057-4.54-6.801-5.22c-1.111-5.252-4.957-8.014-4.957-8.014
	c-2.684,3.086-1.787,5.779-1.787,5.779s3.039,4.452,5.682,5.602c3.254,1.406,6.562,3.531,6.562,3.531
	C55.25,54.221,56.694,52.641,55.09,51.281z"/>
<path fill="#302C3B" d="M42.698,36.413c-1.49-1.349,0.456-3.274,0.184-5.349l1.759,1.024l2.601-1.764c0,0-1.036-2.691-3.743-2.827
	c-0.939-1.042-2.85-0.997-2.85-0.997c0,1.969-4.093,1.969-4.093,0c0,0-1.94,0.334-3.101,1.303c-2.203,0.623-2.7,3.181-2.7,3.181
	l2.694,1.178l0.387-0.442c0.209,2.777,1.606,3.23,1.664,8.459c0.021,1.977,0.598,6.009,0.598,6.009h4.77l0.053-1.674
	c0.121,0.01,0.236,0.029,0.36,0.029c0.177,0,0.378-0.035,0.591-0.094l0.896,1.285l4.576-2.855c-0.902-2.106-1.548-2.336-1.982-3.168
	C44.865,38.758,44.211,37.778,42.698,36.413z"/>
<path fill="#EA8800" d="M38.603,11.812c-6.052,0-6.053,3.642-6.053,8.193h12.106C44.655,15.454,44.653,11.812,38.603,11.812z"/>
<g>
	<path fill="#F5BC2C" d="M33.752,21.774c0.654-0.609,0.061-3.003-0.786-3.148C31.16,18.319,32.337,23.092,33.752,21.774z"/>
</g>
<g>
	<path fill="#F5BC2C" d="M43.453,21.774c-0.654-0.609-0.061-3.003,0.785-3.148C46.044,18.319,44.867,23.091,43.453,21.774z"/>
</g>
<path fill="#FDCA47" d="M38.603,14.24c-6.322,0-3.774,0.732-5.462,4.445c0,0,0.012,1.702,0.365,3.529
	c0.455,2.354,3.106,4.164,5.097,4.164c1.991,0,4.642-1.809,5.097-4.164c0.354-1.827,0.365-3.529,0.365-3.529
	C42.377,14.972,44.924,14.24,38.603,14.24z"/>
<path fill="#F5F5F5" d="M43.094,19.221c-0.584,1.523-2.963,1.3-3.398,0.235C40.025,17.745,42.771,17.598,43.094,19.221z"/>
<path fill="#45332C" d="M40.302,19.059c0,1.343,1.942,1.343,1.942,0C42.244,17.813,40.302,17.813,40.302,19.059z"/>
<path fill="#45332C" d="M43.094,19.21c0-1.634-3.398-1.634-3.398,0.259C40.181,17.916,42.608,17.916,43.094,19.21z"/>
<path fill="#F5F5F5" d="M34.111,19.221c0.584,1.523,2.963,1.3,3.398,0.235C37.18,17.745,34.434,17.598,34.111,19.221z"/>
<path fill="#45332C" d="M36.903,19.059c0,1.343-1.942,1.343-1.942,0C34.961,17.813,36.903,17.813,36.903,19.059z"/>
<path fill="#45332C" d="M34.111,19.21c0-1.633,3.398-1.633,3.398,0.259C37.024,17.916,34.597,17.916,34.111,19.21z"/>
<path fill="#D99025" d="M38.603,23.062c-0.978-0.26-2.429,0.123-2.429,0.123c0.553,0.541,0.957,1.244,2.429,1.244
	c1.685,0,1.972-0.798,2.427-1.244C41.029,23.185,39.579,22.802,38.603,23.062z"/>
<path fill="#FFFFFF" d="M36.517,23.203c1.039,0.966,3.14,0.973,4.185,0C39.594,23.256,37.632,23.257,36.517,23.203z"/>
<path fill="#E6A400" d="M42.965,17.719c-1.043-0.431-2.472-0.515-3.205-0.228c-0.154,0.061-0.149,0.431-0.013,0.394
	c1.05-0.287,2.261-0.308,3.256,0.037C43.137,17.969,43.121,17.783,42.965,17.719z"/>
<path fill="#E6A400" d="M34.24,17.719c1.043-0.431,2.471-0.515,3.205-0.228c0.154,0.061,0.149,0.431,0.013,0.394
	c-1.052-0.287-2.261-0.308-3.256,0.037C34.068,17.969,34.084,17.783,34.24,17.719z"/>
<path fill="#EA8800" d="M43.436,13.683c2.255,3.091-8.211,2.285-10.387,1.834C33.049,15.517,36.245,11.156,43.436,13.683z"/>
<path fill="#D67C00" d="M33.049,15.517c3.125,0.658,12.684,0.566,9.676-2.694C47.631,16.736,35.695,17.084,33.049,15.517z"/>
<path fill="#E6A400" d="M39.816,21.551c0,0.79-2.428,0.79-2.428,0C37.389,21.369,39.816,21.369,39.816,21.551z"/>
<path fill="#302C3B" d="M43.568,2.006c-0.34-0.148-3.23,2.587-3.318,4.865c-0.1,2.58-0.224,4.438-0.311,5.559
	c-0.88-0.149-1.795-0.143-2.67,0.021c-0.088-1.118-0.213-2.983-0.313-5.58c-0.09-2.278-2.979-5.014-3.322-4.865
	c-0.555,0.235-1.557,4.326-0.611,6.105c1.361,2.559,1.944,4.152,2.197,5.083c-0.781,0.448-1.441,1.059-1.869,1.852
	c3.992-1.751,6.646-1.752,10.638,0c-0.449-0.833-1.153-1.465-1.983-1.918c0.262-0.938,0.846-2.516,2.176-5.017
	C45.129,6.332,44.127,2.241,43.568,2.006z"/>
<path fill="#FB367D" d="M43.469,7.574c0.477-1.135,0.234-2.95-0.283-3.156c-0.322-0.126-1.627,0.953-1.889,2.529
	c-0.498,3.027-0.733,4.936-0.807,5.565c0.426,0.1,0.823,0.239,1.197,0.402C41.748,12.448,42.041,10.981,43.469,7.574z"/>
<path fill="#FB367D" d="M35.91,6.947c-0.261-1.576-1.564-2.655-1.888-2.529c-0.519,0.206-0.759,2.021-0.286,3.156
	c1.486,3.543,1.745,4.991,1.79,5.393c0.37-0.17,0.771-0.31,1.196-0.418C36.654,11.96,36.418,10.038,35.91,6.947z"/>
</svg>
