<?xml version="1.0" encoding="utf-8"?>
<!-- Generator: Adobe Illustrator 15.0.0, SVG Export Plug-In . SVG Version: 6.00 Build 0)  -->
<!DOCTYPE svg PUBLIC "-//W3C//DTD SVG 1.1//EN" "http://www.w3.org/Graphics/SVG/1.1/DTD/svg11.dtd">
<svg version="1.1" id="Layer_1" xmlns="http://www.w3.org/2000/svg" xmlns:xlink="http://www.w3.org/1999/xlink" x="0px" y="0px"
	 width="64px" height="64px" viewBox="0 0 64 64" enable-background="new 0 0 64 64" xml:space="preserve">
<path fill="#875B49" d="M37.212,5.497C31.503-1.608,3.193,1.239,3.193,22.19c0.118,11.257,2.012,36.824,22.746,36.824
	c20.732,0,22.628-25.459,22.866-36.824C48.805,15.212,44.659,6.96,37.212,5.497z"/>
<path fill="#6B4435" d="M3.521,29.067c1.021,12.42,5.27,29.947,22.438,29.947c17.225,0,21.445-17.566,22.517-30.029
	c-0.563-5.738-4.045-13.149-11.596-21.887C21.403,16.876,4.683,15.354,3.521,29.067z"/>
<path fill="#302C3B" d="M7.08,51.396c2.299-1.564,12.893-5.697,12.893-5.697h12.131c0,0,10.583,4.123,12.873,5.693
	C48.3,53.668,48.999,62,48.999,62H3C3,62,3.742,53.66,7.08,51.396"/>
<path fill="#946346" d="M19.58,49.078c0,3.5,4.352,4.557,6.42,4.547c2.07-0.01,6.42-1.111,6.42-4.547V38.969H19.58V49.078z"/>
<path fill="#1A1626" d="M44.06,54.947c-0.613,1.76-1.188,4.953-0.697,7.053C44.413,60.846,44.628,53.311,44.06,54.947"/>
<path fill="#1A1626" d="M8.638,62c0.49-2.1-0.086-5.293-0.699-7.053C7.373,53.311,7.585,60.846,8.638,62"/>
<path fill="#1A1626" d="M26,61.477c-6.551,0-7.787-9.479-7.836-9.881l1.037-0.129c0.012,0.09,1.174,8.963,6.799,8.963
	c5.627,0,6.789-8.873,6.801-8.963l1.035,0.129C33.788,51.998,32.548,61.477,26,61.477"/>
<path fill="#E6EBEF" d="M26,52.578h-5.227c0,0,0.947,6.281,5.227,6.281s5.229-6.281,5.229-6.281H26z"/>
<path fill="#BEC3CF" d="M22.199,56.471c0,0,1.496-3.893,3.824-3.893c2.33,0,3.777,3.893,3.777,3.893s1.428-2.322,1.428-3.893H20.773
	C20.773,52.578,20.914,54.324,22.199,56.471"/>
<path fill="#FFFFFF" d="M19.58,45.699c0,0-8.018,4.916-0.615,12.328c0,0,3.506-5.449,7.035-5.449
	C26,52.578,19.58,50.73,19.58,45.699"/>
<path fill="#FFFFFF" d="M32.419,45.699c0,0,8.042,4.916,0.638,12.328c0,0-3.505-5.449-7.035-5.449
	C26.023,52.578,32.419,50.73,32.419,45.699"/>
<path fill="#FFFFFF" d="M25.478,54.672c0,0.697,1.045,0.697,1.045,0S25.478,53.975,25.478,54.672z"/>
<path fill="#FFFFFF" d="M25.478,57.813c0,0.697,1.045,0.697,1.045,0S25.478,57.115,25.478,57.813z"/>
<path fill="#1A1626" d="M37.175,58.15c-0.188-0.01-0.439,1.521-0.668,3.85h0.9C37.442,59.688,37.362,58.162,37.175,58.15"/>
<path fill="#1A1626" d="M11.701,56.766c-0.268,0.016-0.381,2.146-0.32,5.234h1.234C12.328,58.889,11.972,56.752,11.701,56.766"/>
<path fill="#1A1626" d="M34.128,62c-0.035-1.504-0.158-2.467-0.355-2.477c-0.199-0.012-0.434,0.953-0.643,2.477H34.128z"/>
<path fill="#1A1626" d="M40.298,56.766c-0.271-0.014-0.627,2.123-0.916,5.234h1.236C40.679,58.912,40.565,56.781,40.298,56.766"/>
<path fill="#1A1626" d="M14.822,58.15c-0.186,0.012-0.266,1.537-0.23,3.85h0.9C15.263,59.672,15.011,58.141,14.822,58.15"/>
<path fill="#1A1626" d="M18.226,59.523c-0.197,0.01-0.32,0.971-0.355,2.477h0.998C18.662,60.477,18.425,59.512,18.226,59.523"/>
<polygon fill="#9E6C49" points="48.507,62 51.134,50.686 49.663,50.303 45.944,62 "/>
<path fill="#9E6C49" d="M59.237,41.314l-1.473-0.381l-0.215,0.773c-1.152,0.764-2.254,2.457-2.836,4.576
	c-0.586,2.127-0.5,4.131,0.105,5.352l-0.213,0.773l1.473,0.385c1.627,0.424,3.65-1.799,4.523-4.969
	C61.476,44.656,60.862,41.74,59.237,41.314"/>
<path fill="#B47D56" d="M59.13,47.439c-0.871,3.17-2.896,5.395-4.523,4.969c-1.625-0.424-2.238-3.336-1.365-6.506
	c0.871-3.168,2.896-5.393,4.523-4.969C59.39,41.357,60.003,44.268,59.13,47.439"/>
<polygon fill="#9E6C49" points="54.804,51.691 44.497,49.002 47.259,38.961 57.567,41.652 "/>
<path fill="#785647" d="M47.243,39.016l-2.732,9.93c0.014,0.021,0.023,0.047,0.033,0.068l2.85,0.744
	c1.176-0.742,2.307-2.463,2.902-4.623c0.594-2.162,0.498-4.203-0.141-5.418l-2.85-0.748C47.284,38.986,47.265,39.004,47.243,39.016"
	/>
<path fill="#9E6C49" d="M48.192,38.432l-1.475-0.379l-0.211,0.773c-1.152,0.762-2.254,2.457-2.84,4.576
	c-0.582,2.125-0.498,4.129,0.109,5.35l-0.213,0.773l1.473,0.385c1.627,0.424,3.65-1.799,4.523-4.969
	C50.431,41.773,49.819,38.857,48.192,38.432"/>
<path fill="#B47D56" d="M48.087,44.557c-0.873,3.17-2.896,5.395-4.523,4.969c-1.627-0.424-2.24-3.336-1.367-6.504
	c0.871-3.17,2.896-5.396,4.523-4.969C48.347,38.477,48.956,41.387,48.087,44.557"/>
<path fill="#9E6C49" d="M58.394,47.248c-0.762,2.773-2.369,4.762-3.59,4.443c-1.219-0.318-1.59-2.824-0.828-5.596
	c0.764-2.773,2.371-4.764,3.592-4.443C58.786,41.969,59.157,44.475,58.394,47.248"/>
<path fill="#785647" d="M51.86,50.924L51.86,50.924c-0.109,0.393-0.529,0.629-0.936,0.523l-1.471-0.383
	c-0.406-0.105-0.648-0.516-0.539-0.91L51.86,50.924z"/>
<path fill="#B88A6F" d="M41.802,21.423c-2.363-5.572-6.696-11.619-6.696-11.619c-15.857,9.529-29.261,4.747-25.54,22.806
	c1.768,8.568,12.367,15.206,16.545,15.206c4.171,0,15.039-6.587,16.537-15.206C43.515,27.616,42.903,24.019,41.802,21.423z"/>
<path fill="#F5F5F5" d="M40.604,25.148c-1.887,4.917-9.565,4.194-10.972,0.757C30.702,20.38,39.568,19.907,40.604,25.148z"/>
<path fill="#45332C" d="M31.592,24.626c0,4.336,6.27,4.336,6.27,0C37.862,20.601,31.592,20.601,31.592,24.626z"/>
<path fill="#45332C" d="M40.604,25.113c0-5.278-10.972-5.278-10.972,0.835C31.202,20.933,39.038,20.933,40.604,25.113z"/>
<path fill="#F5F5F5" d="M11.609,25.148c1.887,4.917,9.566,4.194,10.972,0.757C21.513,20.38,12.647,19.907,11.609,25.148z"/>
<path fill="#45332C" d="M20.621,24.626c0,4.336-6.27,4.336-6.27,0C14.351,20.601,20.621,20.601,20.621,24.626z"/>
<path fill="#45332C" d="M11.609,25.113c0-5.276,10.972-5.276,10.972,0.833C21.013,20.933,13.176,20.933,11.609,25.113z"/>
<path fill="#F5F5F5" d="M31.98,23.571c0,1.084,1.566,1.084,1.566,0C33.546,22.565,31.98,22.565,31.98,23.571z"/>
<path fill="#F5F5F5" d="M16.5,23.352c0,1.083-1.566,1.083-1.566,0C14.933,22.345,16.5,22.345,16.5,23.352z"/>
<path fill="#80553C" d="M33.942,37.757c-1.472,1.667-2.394,4.619-7.835,4.619c-4.747,0-6.055-2.601-7.837-4.619H33.942z"/>
<path fill="#FFFFFF" d="M32.964,37.808c-3.225,3.303-10.448,3.348-13.716,0H32.964z"/>
<path fill="#80553C" d="M26.108,37.489c-3.071-1.346-3.095-0.053-7.838,0.268c5.989,0.67,9.685,0.67,15.672,0
	C29.202,37.437,29.177,36.144,26.108,37.489z"/>
<path fill="#946346" d="M39.938,20.411c-3.322-1.369-7.87-1.637-10.205-0.722c-0.492,0.192-0.478,1.371-0.043,1.253
	c3.347-0.91,7.202-0.982,10.374,0.12C40.489,21.213,40.438,20.618,39.938,20.411z"/>
<path fill="#946346" d="M12.153,20.414c3.323-1.37,7.87-1.637,10.207-0.725c0.493,0.192,0.478,1.373,0.042,1.253
	c-3.35-0.91-7.203-0.982-10.372,0.122C11.603,21.213,11.654,20.618,12.153,20.414z"/>
<path fill="#946346" d="M30.025,33.011c0,2.517-7.732,2.517-7.732,0C22.292,32.433,30.025,32.433,30.025,33.011z"/>
</svg>
