<?xml version="1.0" encoding="utf-8"?>
<!-- Generator: Adobe Illustrator 15.0.0, SVG Export Plug-In . SVG Version: 6.00 Build 0)  -->
<!DOCTYPE svg PUBLIC "-//W3C//DTD SVG 1.1//EN" "http://www.w3.org/Graphics/SVG/1.1/DTD/svg11.dtd">
<svg version="1.1" id="Layer_1" xmlns="http://www.w3.org/2000/svg" xmlns:xlink="http://www.w3.org/1999/xlink" x="0px" y="0px"
	 width="64px" height="64px" viewBox="0 0 64 64" enable-background="new 0 0 64 64" xml:space="preserve">
<path fill="#CFD8DD" d="M51.002,20.524c-7.045-4.203-30.956-4.203-38.001,0C2.588,26.737,2,62,2,62h60
	C62,62,61.41,26.737,51.002,20.524z"/>
<path fill="#875B49" d="M43.755,6.508C37.771-1.643,8.091,1.622,8.091,25.659c0.125,12.915,2.11,34.696,23.847,34.696
	c21.734,0,23.723-21.66,23.971-34.696C55.909,17.652,51.563,8.188,43.755,6.508z"/>
<path fill="#6B4435" d="M8.464,33.547c1.07,14.248,5.496,26.809,23.495,26.809c18.057,0,22.409-12.605,23.532-26.902
	C54.9,26.871,51.324,18.369,43.408,8.348C27.183,19.562,9.682,17.815,8.464,33.547z"/>
<path fill="#B88A6F" d="M13.652,54.455c2.23-1.113,12.419-4.053,12.419-4.053h11.926c0,0,10.18,2.934,12.399,4.049
	C53.621,56.072,54.302,62,54.302,62H9.699C9.699,62,10.417,56.064,13.652,54.455z"/>
<path fill="#B88A6F" d="M25.474,51.701c0,4.514,13.052,4.514,13.052,0c0-2.752,0-7.305,0-7.305H25.474
	C25.474,44.396,25.474,48.146,25.474,51.701z"/>
<path fill="#E6EBEF" d="M17.27,53.105c1.103-0.863,2.103-0.689,2.103-0.689L20.067,62h-2.616L17.27,53.105z"/>
<path fill="#E6EBEF" d="M46.728,53.08c-1.102-0.859-2.102-0.688-2.102-0.688L43.931,62h2.615L46.728,53.08z"/>
<path fill="#946346" d="M34.114,56.406c-1.189,0.695-2.115,2.273-2.115,2.273s-0.925-1.578-2.113-2.273
	c2.111,3.551,1.602,5.148,1.602,5.148h1.023C32.511,61.555,31.997,59.736,34.114,56.406z"/>
<path fill="#E6EBEF" d="M46.194,59.686c-0.72-0.33-7.552-4.596-14.194,1.35c-6.643-5.945-13.476-1.68-14.195-1.35
	C16.917,60.094,16.317,62,16.317,62H32l0,0h15.683C47.683,62,47.083,60.094,46.194,59.686z"/>
<path fill="#B88A6F" d="M48.936,23.988c-2.532-5.655-7.176-11.791-7.176-11.791c-16.993,9.669-31.359,4.818-27.369,23.143
	c1.893,8.693,13.252,15.43,17.729,15.43c4.47,0,16.117-6.684,17.722-15.43C50.771,30.272,50.116,26.623,48.936,23.988z"/>
<path fill="#946346" d="M46.939,22.56c-3.561-1.455-8.435-1.739-10.937-0.768c-0.529,0.205-0.512,1.458-0.045,1.333
	c3.587-0.969,7.717-1.044,11.115,0.127C47.529,23.412,47.475,22.778,46.939,22.56z"/>
<path fill="#946346" d="M17.164,22.561c3.561-1.456,8.434-1.739,10.937-0.769c0.528,0.205,0.512,1.459,0.045,1.333
	c-3.588-0.97-7.719-1.045-11.115,0.127C16.573,23.412,16.628,22.778,17.164,22.561z"/>
<path fill="#946346" d="M36.315,36.533c0,2.672-8.286,2.672-8.286,0C28.029,35.92,36.315,35.92,36.315,36.533z"/>
<path fill="#F5F5F5" d="M17.201,27.795c1.996,5.156,10.115,4.411,11.601,0.805C27.672,22.807,18.3,22.297,17.201,27.795z"/>
<path fill="#45332C" d="M26.729,27.259c0,4.546-6.629,4.546-6.629,0C20.101,23.039,26.729,23.039,26.729,27.259z"/>
<path fill="#F5F5F5" d="M22.192,26.529c0,1.134-1.658,1.134-1.658,0C20.534,25.473,22.192,25.473,22.192,26.529z"/>
<path fill="#45332C" d="M18.703,24.593c-0.264-0.023-0.995-0.114-1.611-0.433c0.171,0.543,0.422,0.93,0.712,1.216
	c-0.458,0.116-1.041,0.082-1.958-0.394c0.211,0.671,0.536,1.119,0.92,1.406c-0.426,0.239-1.009,0.356-2.063,0.079
	c0.681,1.163,1.656,1.461,2.498,1.328c1.991-3.736,8.581-4.246,11.601,0.848C28.802,23.211,21.84,22.006,18.703,24.593z"/>
<path fill="#F5F5F5" d="M47.032,27.795c-1.996,5.156-10.114,4.411-11.602,0.805C36.561,22.807,45.933,22.297,47.032,27.795z"/>
<path fill="#45332C" d="M37.503,27.259c0,4.546,6.629,4.546,6.629,0C44.132,23.039,37.503,23.039,37.503,27.259z"/>
<path fill="#F5F5F5" d="M37.945,26.75c0,1.136,1.657,1.136,1.657,0C39.603,25.694,37.945,25.694,37.945,26.75z"/>
<path fill="#45332C" d="M47.468,26.388c0.383-0.287,0.708-0.735,0.92-1.406c-0.919,0.476-1.5,0.51-1.959,0.394
	c0.29-0.286,0.541-0.672,0.713-1.216c-0.617,0.319-1.348,0.41-1.612,0.433c-3.136-2.586-10.099-1.381-10.099,4.05
	c3.02-5.092,9.609-4.584,11.602-0.848c0.841,0.133,1.816-0.166,2.496-1.328C48.476,26.744,47.894,26.627,47.468,26.388z"/>
<path opacity="0.8" fill="#CFD8DD" d="M32.003,2C4.627,2,8.092,26.623,8.091,26.624c6.167-6.227,14.333-10.114,23.912-10.114
	c9.577,0,17.741,3.887,23.906,10.114C55.909,26.623,59.376,2,32.003,2z"/>
<path fill="#CFD8DD" d="M55.923,31.381c2.239-30.91-50.086-30.91-47.846,0C10.028,5.421,53.971,5.421,55.923,31.381z"/>
<path fill="#FFFFFF" d="M55.923,30.381c2.239-30.91-50.086-30.91-47.846,0C10.028,4.421,53.971,4.421,55.923,30.381z"/>
<path fill="#80553C" d="M40.31,41.641c-1.541,1.744-2.503,4.83-8.194,4.83c-4.962,0-6.33-2.717-8.193-4.83H40.31z"/>
<path fill="#FFFFFF" d="M39.286,41.693c-3.372,3.455-10.924,3.502-14.34,0H39.286z"/>
<path fill="#80553C" d="M32.116,41.363c-3.209-1.408-3.235-0.057-8.194,0.277c6.262,0.703,10.125,0.703,16.389,0
	C35.352,41.307,35.327,39.955,32.116,41.363z"/>
</svg>
