<?xml version="1.0" encoding="utf-8"?>
<!-- Generator: Adobe Illustrator 15.0.0, SVG Export Plug-In . SVG Version: 6.00 Build 0)  -->
<!DOCTYPE svg PUBLIC "-//W3C//DTD SVG 1.1//EN" "http://www.w3.org/Graphics/SVG/1.1/DTD/svg11.dtd">
<svg version="1.1" id="Layer_1" xmlns="http://www.w3.org/2000/svg" xmlns:xlink="http://www.w3.org/1999/xlink" x="0px" y="0px"
	 width="64px" height="64px" viewBox="0 0 64 64" enable-background="new 0 0 64 64" xml:space="preserve">
<path fill="#CFD8DD" d="M40.105,44.758c0.369,0.091-16.58,0.091-16.209,0c-7.715-7.057-22.5-9.809-21.877-7.561
	c0.295,1.064,2.263,2.542,4.985,3.928c-1.798,0.141-2.848,0.61-2.651,1.318c0.357,1.292,2.973,2.55,6.318,3.374
	c-2.742,0.346-4.498,1.056-4.24,1.987c0.329,1.187,2.361,2.009,5.092,2.292c-1.612,0.752-2.524,1.592-2.318,2.335
	c0.313,1.13,2.585,1.437,5.398,1.143c-1.359,0.875-2.128,1.742-1.934,2.443c0.335,1.208,2.472,1.203,5.088,0.43
	c-0.646,0.874-0.947,1.666-0.79,2.232c0.347,1.251,2.126,1.047,4.294-0.049c-0.172,0.556-0.207,1.058-0.092,1.473
	c0.389,1.401,2.218,0.796,4.206-0.862c-0.236,1.118-0.161,2.018,0.322,2.485c1.498,1.446,4.605-3.057,6.302-8.409
	c1.697,5.353,4.807,9.855,6.303,8.409c0.484-0.468,0.559-1.367,0.322-2.485c1.988,1.658,3.818,2.264,4.207,0.862
	c0.115-0.415,0.08-0.917-0.092-1.473c2.168,1.096,3.947,1.3,4.295,0.049c0.156-0.566-0.145-1.358-0.791-2.232
	c2.615,0.773,4.752,0.778,5.088-0.43c0.193-0.701-0.574-1.568-1.936-2.443c2.814,0.294,5.088-0.013,5.4-1.143
	c0.205-0.743-0.707-1.583-2.318-2.335c2.729-0.283,4.762-1.105,5.092-2.292c0.258-0.932-1.498-1.642-4.242-1.987
	c3.346-0.824,5.961-2.082,6.318-3.374c0.197-0.708-0.854-1.178-2.65-1.318c2.723-1.386,4.689-2.863,4.984-3.928
	C62.604,34.949,47.82,37.701,40.105,44.758z"/>
<path fill="#E6EBEF" d="M35.52,44.117c0.727,0.187-7.764,0.187-7.037,0c-7.217-6.879-21.047-9.563-20.463-7.371
	c0.35,1.317,3.218,3.282,6.856,4.892c-2.758-0.088-4.54,0.433-4.294,1.356c0.386,1.452,3.501,2.86,7.278,3.661
	c-2.461,0.33-4.031,0.998-3.798,1.872c0.444,1.673,4.319,2.584,8.614,2.173c-2.566,1.147-4.349,2.485-4.091,3.458
	c0.366,1.378,3.31,0.939,6.356-0.435c-1.213,1.46-1.761,2.873-1.513,3.806c0.615,2.313,6.114-1.347,8.571-5.941
	c2.459,4.595,7.957,8.254,8.572,5.941c0.248-0.933-0.301-2.346-1.514-3.806c3.047,1.374,5.99,1.813,6.357,0.435
	c0.258-0.973-1.523-2.311-4.092-3.458c4.295,0.411,8.17-0.5,8.615-2.173c0.232-0.874-1.338-1.542-3.799-1.872
	c3.777-0.801,6.893-2.209,7.279-3.661c0.246-0.924-1.537-1.444-4.295-1.356c3.639-1.609,6.506-3.574,6.857-4.892
	C56.566,34.555,42.736,37.238,35.52,44.117z"/>
<path fill="#B88A6F" d="M52,27.614c0-13.601-9.6-20-20-20c-10.4,0-20,6.399-20,20c-2.776,0-4,1.999-4,4c0,2,1.223,3.999,4,3.999
	c0,5.335,5.601,12.801,20,12.801c14.4,0,20-7.466,20-12.801c2.777,0,4-1.999,4-3.999C56,29.613,54.777,27.614,52,27.614z"/>
<path fill="#875B49" d="M33.783,14.029c15.84-1.871,2.119-9.748-10.193-4.87C24.237,12.297,41.916,8.386,33.783,14.029z"/>
<path fill="#6B4435" d="M33.783,14.029c10.805-6.978-9.169-2.935-10.193-4.87C24.237,12.297,41.402,8.619,33.783,14.029z"/>
<path opacity="0.5" fill="#FF717F" d="M50.762,35.988c-0.688-4.655-9.404-3.009-8.723,1.649
	C42.73,42.293,51.449,40.648,50.762,35.988z"/>
<path opacity="0.5" fill="#FF717F" d="M13.238,35.988c-0.684,4.66,8.035,6.305,8.724,1.649
	C22.653,32.98,13.924,31.333,13.238,35.988z"/>
<circle fill="#FFFFFF" cx="22.001" cy="28.017" r="5.2"/>
<circle fill="#45332C" cx="22" cy="28.014" r="3.6"/>
<path fill="#FFFFFF" d="M47.199,28.018c0,2.872-2.328,5.196-5.199,5.196c-2.869,0-5.199-2.324-5.199-5.196s2.33-5.204,5.199-5.204
	C44.871,22.813,47.199,25.146,47.199,28.018z"/>
<circle fill="#45332C" cx="42" cy="28.014" r="3.6"/>
<path fill="#F5F5F5" d="M39.396,26.385c0,1.106,1.6,1.106,1.6,0C40.996,25.356,39.396,25.356,39.396,26.385z"/>
<path fill="#F5F5F5" d="M21.052,26.385c0,1.106-1.6,1.106-1.6,0C19.453,25.356,21.052,25.356,21.052,26.385z"/>
<path fill="#4AA9FF" d="M32,2C18.773,2,12,4.91,12,8.5S18.773,15,32,15c13.229,0,20-2.91,20-6.5S45.229,2,32,2z M19.084,6.967
	c0-2.891,25.833-2.891,25.833,0C44.918,9.855,19.084,9.855,19.084,6.967z"/>
<path fill="#98DFFD" d="M45.264,5.86c0-3.282-26.527-3.282-26.527,0C23.034,3.991,37.334,2.911,45.264,5.86z"/>
<path fill="#98DFFD" d="M50.262,5.928c0.217,0.422,0.332,0.859,0.332,1.31c0,3.481-6.566,6.303-19.395,6.303
	c-9.748,0-15.872-1.632-18.253-3.942c1.473,2.852,7.893,4.993,19.062,4.993c12.826,0,19.395-2.822,19.395-6.303
	C51.402,7.451,51.014,6.656,50.262,5.928z"/>
<path fill="#80553C" d="M32,39.229c-3.021-0.803-7.5,0.379-7.5,0.379c1.706,1.672,2.957,3.841,7.5,3.841
	c5.209,0,6.091-2.463,7.5-3.841C39.5,39.608,35.018,38.425,32,39.229z"/>
<path fill="#FFFFFF" d="M25.556,39.669c3.209,2.984,9.7,3.003,12.93,0C35.061,39.832,29.004,39.833,25.556,39.669z"/>
<path fill="#946346" d="M35.999,34.431c0,2.711-8,2.711-8,0C27.999,33.809,35.999,33.809,35.999,34.431z"/>
</svg>
