<?xml version="1.0" encoding="utf-8"?>
<!-- Generator: Adobe Illustrator 15.0.0, SVG Export Plug-In . SVG Version: 6.00 Build 0)  -->
<!DOCTYPE svg PUBLIC "-//W3C//DTD SVG 1.1//EN" "http://www.w3.org/Graphics/SVG/1.1/DTD/svg11.dtd">
<svg version="1.1" id="Layer_1" xmlns="http://www.w3.org/2000/svg" xmlns:xlink="http://www.w3.org/1999/xlink" x="0px" y="0px"
	 width="64px" height="64px" viewBox="0 0 64 64" enable-background="new 0 0 64 64" xml:space="preserve">
<path fill="#FFD68C" d="M9.637,4.256c0,0-0.341,1.893,0.876,3.124C8.93,8.389,7.163,6.669,7.163,6.669
	C4.83,28.631,55.621,37.646,55.621,37.646s6.771-21.68-3.636-29.409C34.985-4.387,13.235,6.425,9.637,4.256z"/>
<path fill="#C49A45" d="M40.631,10.903C29.186,14.839,25,7.736,14.205,7.051c5.133,2.259,7.64,5.738,11.857,8.249
	C16.885,12.435,10.147,7.51,9.637,4.274c0,0-1.533,4.724,4.526,8.254c-5.792,0.5-7-5.841-7-5.841
	c-5.24,7.842,0.789,30.978,0.789,30.978l0.001-0.001l0,0.001h47.67c0,0,4.727-13.003,0.746-23.547
	C55.954,13.021,52.775,6.726,40.631,10.903z"/>
<path fill="#F2C198" d="M12.019,43.041c2.701-2.514,0.25-12.377-3.233-12.971C1.346,28.803,6.193,48.464,12.019,43.041z"/>
<path fill="#F2C198" d="M51.981,43.041c-2.7-2.514-0.249-12.377,3.233-12.971C62.653,28.803,57.809,48.463,51.981,43.041z"/>
<path fill="#FCD5B2" d="M54.501,30.977c0-20.672-8.836-13.925-22.5-13.925c-13.662,0-22.5-6.747-22.5,13.925
	c0,0,0.049,5.844,1.505,13.521C12.934,54.656,23.75,62,32,62c8.252,0,19.07-7.344,20.995-17.502
	C54.451,36.818,54.501,30.977,54.501,30.977z"/>
<path fill="#CC9D76" d="M32,48.339c-4.028-1.069-10,0.506-10,0.506c2.275,2.229,3.942,5.121,10,5.121c6.943,0,8.121-3.284,10-5.121
	C42,48.845,36.023,47.267,32,48.339z"/>
<path fill="#FFFFFF" d="M23.407,48.926c4.28,3.979,12.933,4.004,17.239,0C36.08,49.143,28.004,49.145,23.407,48.926z"/>
<path fill="#F5F5F5" d="M50.5,32.521c-2.408,6.271-12.205,5.352-14,0.965C37.863,26.436,49.176,25.832,50.5,32.521z"/>
<path fill="#45332C" d="M39,31.852c0,5.533,8,5.533,8,0C47,26.716,39,26.716,39,31.852z"/>
<path fill="#45332C" d="M50.5,32.475c0-6.734-14-6.734-14,1.066C38.5,27.141,48.5,27.141,50.5,32.475z"/>
<path fill="#F5F5F5" d="M13.5,32.521c2.409,6.271,12.206,5.352,14,0.965C26.137,26.436,14.826,25.832,13.5,32.521z"/>
<path fill="#45332C" d="M25,31.852c0,5.533-8,5.533-8,0C17,26.717,25,26.717,25,31.852z"/>
<path fill="#45332C" d="M13.5,32.475c0-6.733,14-6.733,14,1.064C25.502,27.141,15.5,27.141,13.5,32.475z"/>
<path fill="#F5F5F5" d="M39.492,30.508c0,1.383,2,1.383,2,0C41.492,29.225,39.492,29.225,39.492,30.508z"/>
<path fill="#F5F5F5" d="M19.742,30.227c0,1.383-2,1.383-2,0C17.742,28.943,19.742,28.943,19.742,30.227z"/>
<path fill="#DBA97F" d="M49.967,26.327c-4.297-1.771-10.179-2.116-13.199-0.936c-0.637,0.249-0.617,1.775-0.054,1.622
	c4.329-1.18,9.313-1.271,13.414,0.157C50.679,27.362,50.612,26.592,49.967,26.327z"/>
<path fill="#DBA97F" d="M14.034,26.327c4.297-1.771,10.178-2.116,13.199-0.936c0.637,0.249,0.617,1.775,0.054,1.622
	c-4.33-1.18-9.314-1.271-13.414,0.157C13.321,27.362,13.388,26.592,14.034,26.327z"/>
<path fill="#DBA97F" d="M37,42.117c0,3.254-10,3.254-10,0C27,41.371,37,41.371,37,42.117z"/>
</svg>
