<?xml version="1.0" encoding="utf-8"?>
<!-- Generator: Adobe Illustrator 15.0.0, SVG Export Plug-In . SVG Version: 6.00 Build 0)  -->
<!DOCTYPE svg PUBLIC "-//W3C//DTD SVG 1.1//EN" "http://www.w3.org/Graphics/SVG/1.1/DTD/svg11.dtd">
<svg version="1.1" id="Layer_1" xmlns="http://www.w3.org/2000/svg" xmlns:xlink="http://www.w3.org/1999/xlink" x="0px" y="0px"
	 width="64px" height="64px" viewBox="0 0 64 64" enable-background="new 0 0 64 64" xml:space="preserve">
<path fill="#E81C27" d="M48.02,45.447C45.051,54.244,40.75,61.994,31.268,62c-9.496,0.007-22.01-7.094-25.84-15.604
	C1.875,38.498,0.686,16.506,3.781,8.385c0.912-2.397,2.275-4.893,4.654-5.413c10.447-2.285,23.51,0.682,35.57-0.95
	c2.42-0.327,3.742,3.016,4.656,5.413C51.758,15.557,50.844,37.081,48.02,45.447z"/>
<path fill="#302C3B" d="M8.033,8.382c0,0,5.135,12.645,22.279,12.645c4.354,0-1.076-8.754-9.545-12.44
	c1.924,2.373,5.531,4.375,6.279,6.991c0.563,1.968-12.623-10.232-15.576-10.677c-1.865-0.282,0.064,5.073,0.064,5.073L8.033,8.382z"
	/>
<path fill="#302C3B" d="M49.105,9.22c0,0-2.496,11.808-10.83,11.808c-2.115,0,0.525-8.175,4.641-11.617
	c-0.934,2.215-2.688,4.086-3.051,6.528C39.59,17.776,46,6.384,47.434,5.969c0.91-0.263-0.029,4.737-0.029,4.737L49.105,9.22z"/>
<path fill="#302C3B" d="M42.146,55.307c0,0-1.979-7.941-6.584-7.085C26.387,49.927,24.873,58.72,24.873,58.72l1.719-1.391
	c0,0-0.508,3.7,0.463,3.329c1.537-0.584,7.402-9.888,7.291-8.542c-0.143,1.786-1.877,3.458-2.676,5.203
	c1.881-1.468,3.326-3.546,4.141-5.351c0.734,1.437,1.832,2.978,3.004,3.829c-0.719-1.358-1.84-2.41-2.273-3.972
	c-0.326-1.18,4.219,5.647,5.027,5.776c0.512,0.083-0.479-3.099-0.479-3.099L42.146,55.307z"/>
<path fill="#FFFFFF" d="M29.07,23.207c3.047,12.047-21.422,9.3-17.535-1.334c0.754-2.063,2.637-3.383,2.637-3.383
	S21.473,22.377,29.07,23.207z"/>
<path fill="#302C3B" d="M25.619,26.057c0,3.797-6.031,3.797-6.031,0C19.588,22.258,25.619,22.258,25.619,26.057z"/>
<path fill="#FFFFFF" d="M37.627,22.977c-1.881,12.047,13.234,9.299,10.834-1.336c-0.465-2.062-1.629-3.382-1.629-3.382
	S42.322,22.146,37.627,22.977z"/>
<path fill="#302C3B" d="M40.252,25.234c0,3.393,5.385,3.393,5.385,0C45.637,21.843,40.252,21.843,40.252,25.234z"/>
<path fill="#FFFFFF" d="M44.531,50.402c-1.109,5.529-4.707-4.688-9.025-4.688c-8.439,0-12.508,17.154-15.281,8.583
	c-1.551-4.795,6.842-10.449,15.281-10.449C38.568,43.849,45.637,44.9,44.531,50.402z"/>
<path fill="#302C3B" d="M31.85,41.473c-11,1.932-8.795,5.508-15.48,7.05c-6.682,1.542-16.871-7.216-9.336-14.577
	c0.42,4.206,3.504,5.324,3.504,5.324s-0.49-1.959,1.814-4.464C14.068,38.151,16.078,42.758,31.85,41.473z"/>
<path fill="#302C3B" d="M40.146,41.401c4.709,1.017,3.766,2.896,6.625,3.707c2.859,0.81,7.221-3.794,3.994-7.665
	c-0.178,2.212-1.498,2.801-1.498,2.801s0.209-1.031-0.775-2.348C47.756,39.655,46.896,42.078,40.146,41.401z"/>
<path fill="#E03636" d="M58.223,34.761c-7.871,3.048-16.666,4.518-25.775,4.032c-4.631-0.35-3.846-11.253-0.23-10.881
	c7.531,0.541,14.766-0.578,21.184-2.974C58.77,22.657,65.391,31.604,58.223,34.761z"/>
<path fill="#B00505" d="M57.756,25.234c2.037,1.852,1.859,6.172-1.916,7.676c-3.002,1.195-11.338,2.251-26.582,1.291
	c0.182,2.329,1.316,4.49,3.195,4.592c9.107,0.484,17.695,1.523,25.367-2.008C65.242,33.369,61.201,26.982,57.756,25.234z"/>
</svg>
