<?xml version="1.0" encoding="utf-8"?>
<!-- Generator: Adobe Illustrator 15.0.0, SVG Export Plug-In . SVG Version: 6.00 Build 0)  -->
<!DOCTYPE svg PUBLIC "-//W3C//DTD SVG 1.1//EN" "http://www.w3.org/Graphics/SVG/1.1/DTD/svg11.dtd">
<svg version="1.1" id="Layer_1" xmlns="http://www.w3.org/2000/svg" xmlns:xlink="http://www.w3.org/1999/xlink" x="0px" y="0px"
	 width="64px" height="64px" viewBox="0 0 64 64" enable-background="new 0 0 64 64" xml:space="preserve">
<path fill="#302C3B" d="M59.857,41.569c-1.191-2.47,1.84-5.388-2.526-10.53C62.741,16.986,48.797,6,32.124,6
	C15.451,6,1.506,16.986,6.917,31.039C2.55,36.182,5.334,39.1,4.143,41.569C0.944,48.201,9.671,51.551,2,55.436
	c2.383,4.556,10.622,1.105,10.622,1.105c0.686,1.507-0.979,2.914-0.979,2.914c3.686,1.466,13.173-3.494,10.818,2.545
	c6.138-0.871,9.662-2.735,9.662-2.735s3.278,1.864,9.416,2.735c-2.355-6.038,7.134-1.079,10.818-2.545c0,0-1.664-1.407-0.979-2.914
	c0,0,8.239,3.45,10.622-1.105C54.328,51.551,63.057,48.201,59.857,41.569z"/>
<path fill="#E03636" d="M50.689,33.214c3.843-8.468-1.029-15.221-7.131-12.566c-3.051-0.721-2.258-7.211-11.443-7.211
	c-9.185,0-8.392,6.491-11.443,7.211c-6.101-2.655-10.974,4.098-7.131,12.566c1.269,2.796-1.423,3.481-1.426,4.874
	c-0.019,7.052,4.194,6.83,7.708,17.877c1.252,3.939,7.043-0.59,12.292-0.59c5.25,0,11.04,4.529,12.293,0.59
	c3.514-11.047,7.727-10.825,7.707-17.877C52.112,36.695,49.42,36.01,50.689,33.214z"/>
<path fill="#302C3B" d="M24.99,41.247c-1.477,2.287,2.463-0.213,3.927,2.427C30.396,41.387,26.469,38.959,24.99,41.247z"/>
<path fill="#F9C802" d="M14.377,2.066c-7.236,4.526,0.062,11.345,1.227,16.702c0.184,0.846,3.981-0.421,4.165-1.265
	c0.728-3.363,2.605-4.62,2.605-4.62C12.727,8.461,15.705,1.236,14.377,2.066z"/>
<path fill="#C21413" d="M23.345,27.338c-5.919-2.433-7.855-3.437-10.017,2.373C13.328,20.707,17.501,18.365,23.345,27.338z"/>
<path fill="#C21413" d="M32.918,34.564c4.181-4.678,15.006-8.077,15.006-8.077C54.234,34.053,45.053,47.695,32.918,34.564z"/>
<path fill="#FFFFFF" d="M34.041,34.006c3.305-3.725,12.094-6.625,12.094-6.625C51.512,33.075,44.344,43.86,34.041,34.006z"/>
<path fill="#302C3B" d="M37.639,33.215c0,4.021,4.975,4.021,4.975,0S37.639,29.193,37.639,33.215z"/>
<path fill="#C21413" d="M31.312,34.564c-4.181-4.678-15.006-8.077-15.006-8.077C9.996,34.053,19.177,47.695,31.312,34.564z"/>
<path fill="#FFFFFF" d="M30.189,34.006c-3.304-3.725-12.094-6.625-12.094-6.625C12.719,33.075,19.887,43.86,30.189,34.006z"/>
<path fill="#302C3B" d="M26.592,33.215c0,4.021-4.975,4.021-4.975,0S26.592,29.193,26.592,33.215z"/>
<path fill="#302C3B" d="M39.241,41.247c1.477,2.287-2.464-0.213-3.928,2.427C33.835,41.387,37.762,38.959,39.241,41.247z"/>
<path fill="#302C3B" d="M46.943,39.937c-5.934-0.288-6.009,6.106-7.608,6.234c-2.843,0.229-4.146,1.134-7.22,1.134
	c-3.074,0-4.377-0.904-7.219-1.134c-1.6-0.128-1.675-6.522-7.609-6.234c-3.736,0.183,2.41,3.864,5.2,11.094
	c2.031,5.264,2.649,1.775,9.628,1.775c6.979,0,7.598,3.488,9.629-1.775C44.533,43.801,50.68,40.119,46.943,39.937z"/>
<path fill="#FFFFFF" d="M22.153,45.309c2.051-2.393-3.717-5.352-4.443-2.663c-1.04,3.852-4.233,4.056-3.231,4.83
	C15.496,48.263,19.294,48.646,22.153,45.309z"/>
<path fill="#FFFFFF" d="M21.958,47.363c-1.288,2.432-3.434,2.196-2.891,2.825c0.551,0.64,3.007,1.335,5.421-0.544
	C26.217,48.295,22.856,45.666,21.958,47.363z"/>
<path fill="#FFFFFF" d="M37.104,49.621v-1.061c0-1.445-2.511-1.445-2.511,0c0-1.445-2.479-1.445-2.479,0
	c0-1.445-2.479-1.445-2.479,0c0-1.445-2.51-1.445-2.51,0v1.061h4.989H37.104z"/>
<path fill="#FFFFFF" d="M24.125,50.35v1.131c0,1.543,2.676,1.543,2.676,0c0,1.543,2.677,1.543,2.677,0c0,1.543,2.638,1.543,2.638,0
	c0,1.543,2.638,1.543,2.638,0c0,1.543,2.678,1.543,2.678,0c0,1.543,2.676,1.543,2.676,0V50.35h-7.991H24.125z"/>
<path fill="#FFFFFF" d="M46.521,42.646c-0.727-2.688-6.494,0.271-4.443,2.663c2.859,3.338,6.658,2.954,7.675,2.167
	C50.754,46.701,47.56,46.497,46.521,42.646z"/>
<path fill="#FFFFFF" d="M42.273,47.363c-0.898-1.697-4.261,0.932-2.53,2.281c2.414,1.879,4.87,1.184,5.421,0.544
	C45.707,49.56,43.562,49.795,42.273,47.363z"/>
<path fill="#F9C802" d="M49.854,2.066c7.236,4.526-0.062,11.345-1.227,16.702c-0.184,0.846-3.981-0.421-4.165-1.265
	c-0.728-3.363-2.604-4.62-2.604-4.62C51.504,8.461,48.526,1.236,49.854,2.066z"/>
<path fill="#C21413" d="M40.887,27.338c5.918-2.433,7.854-3.437,10.017,2.373C50.903,20.707,46.729,18.365,40.887,27.338z"/>
<path fill="#C21413" d="M32.115,21.668c0,0,3.945-0.404,4.612-1.849c2.073-4.487-4.612,1.048-4.612,1.048s-6.686-5.536-4.612-1.048
	C28.17,21.264,32.115,21.668,32.115,21.668z"/>
<path fill="#C21413" d="M32.115,26.166c0,0-10.619-8.396-7.325-1.589c1.06,2.191,7.325,2.804,7.325,2.804s6.266-0.613,7.325-2.804
	C42.734,17.771,32.115,26.166,32.115,26.166z"/>
</svg>
