<?xml version="1.0" encoding="utf-8"?>
<!-- Generator: Adobe Illustrator 15.0.0, SVG Export Plug-In . SVG Version: 6.00 Build 0)  -->
<!DOCTYPE svg PUBLIC "-//W3C//DTD SVG 1.1//EN" "http://www.w3.org/Graphics/SVG/1.1/DTD/svg11.dtd">
<svg version="1.1" id="Layer_1" xmlns="http://www.w3.org/2000/svg" xmlns:xlink="http://www.w3.org/1999/xlink" x="0px" y="0px"
	 width="64px" height="64px" viewBox="0 0 64 64" enable-background="new 0 0 64 64" xml:space="preserve">
<path fill="#FCD5B2" d="M57,27.031c0-17-12-25-25-25s-25,8-25,25c-3.471,0-5,2.5-5,5s1.528,5,5,5c0,6.667,7,16,24.999,16
	C50,53.031,57,43.698,57,37.031c3.471,0,5-2.5,5-5S60.471,27.031,57,27.031z"/>
<path fill="#594640" d="M34.229,10.05c19.801-2.34,2.648-12.185-12.741-6.087C22.296,7.885,44.395,2.996,34.229,10.05z"/>
<path fill="#422F2A" d="M34.229,10.05c13.506-8.722-11.462-3.667-12.741-6.087C22.296,7.885,43.752,3.288,34.229,10.05z"/>
<path opacity="0.5" fill="#FF717F" d="M55.452,37.5c-0.86-5.82-11.757-3.764-10.904,2.061C45.412,45.38,56.311,43.323,55.452,37.5z"
	/>
<path opacity="0.5" fill="#FF717F" d="M8.548,37.5c-0.855,5.824,10.043,7.881,10.903,2.061C20.315,33.738,9.406,31.68,8.548,37.5z"
	/>
<path fill="#FFFFFF" d="M26,27.534c0,3.589-2.911,6.498-6.499,6.498c-3.593,0-6.501-2.908-6.501-6.498
	c0-3.591,2.908-6.502,6.501-6.502C23.089,21.031,26,23.942,26,27.534z"/>
<circle fill="#45332C" cx="19.5" cy="27.531" r="4.5"/>
<path fill="#FFFFFF" d="M51,27.536c0,3.589-2.911,6.496-6.5,6.496c-3.588,0-6.5-2.907-6.5-6.496c0-3.591,2.912-6.504,6.5-6.504
	C48.089,21.031,51,23.944,51,27.536z"/>
<circle fill="#45332C" cx="44.5" cy="27.531" r="4.5"/>
<path fill="#F5F5F5" d="M41.246,25.493c0,1.383,2,1.383,2,0C43.246,24.209,41.246,24.209,41.246,25.493z"/>
<path fill="#F5F5F5" d="M18.315,25.493c0,1.383-2,1.383-2,0C16.315,24.209,18.315,24.209,18.315,25.493z"/>
<path fill="#42ADE2" d="M47,44.055c0,16.363-30,16.363-30,0c0-8.359,6.756-4.766,15.039-4.766C40.324,39.289,47,35.695,47,44.055z"
	/>
<path fill="#61C2FF" d="M47,45.055c0,15.363-30,15.363-30,0c0-8.359,6.756-4.766,15.04-4.766C40.324,40.289,47,36.695,47,45.055z"/>
<path fill="#006DAE" d="M31.998,51.424c-7.997,0-7.997-8,0-8C40.001,43.424,40.001,51.424,31.998,51.424z"/>
<path fill="#FBB855" d="M32,46.314c-6.076,0-11-0.693-11,5.236c0,13.932,22,13.932,22,0C43,45.621,38.074,46.314,32,46.314z
	 M23.69,51.551c0-4.217,3.99-2.865,8.31-2.865s8.311-1.352,8.311,2.865C40.311,59.77,23.69,59.77,23.69,51.551z"/>
<path fill="#BF8D42" d="M24.048,49.816c1.064-2.033,4.394-1.124,7.952-1.124s6.889-0.909,7.953,1.124
	C39.507,46.509,24.494,46.509,24.048,49.816z"/>
<path fill="#BF8D42" d="M21.208,53.748c2.056,11.002,19.531,11.002,21.585,0C39.924,63.414,24.077,63.414,21.208,53.748z"/>
<path fill="#42ADE2" d="M34.15,49.924c-0.842,0-3.367,0-4.299,0c-1.135,0-1.135-5,0-5c1.023,0,3.502,0,4.299,0
	C35.283,44.924,35.283,49.924,34.15,49.924z"/>
<path fill="#75D6FF" d="M29.78,45.578c0.1-0.418,4.334-0.428,4.44,0C34.697,47.503,29.305,47.575,29.78,45.578z"/>
<path fill="#DBA97F" d="M37,35.59c0,3.254-10,3.254-10,0C27,34.844,37,34.844,37,35.59z"/>
</svg>
