<?xml version="1.0" encoding="utf-8"?>
<!-- Generator: Adobe Illustrator 15.0.0, SVG Export Plug-In . SVG Version: 6.00 Build 0)  -->
<!DOCTYPE svg PUBLIC "-//W3C//DTD SVG 1.1//EN" "http://www.w3.org/Graphics/SVG/1.1/DTD/svg11.dtd">
<svg version="1.1" id="Layer_1" xmlns="http://www.w3.org/2000/svg" xmlns:xlink="http://www.w3.org/1999/xlink" x="0px" y="0px"
	 width="64px" height="64px" viewBox="0 0 64 64" enable-background="new 0 0 64 64" xml:space="preserve">
<path fill="#523924" d="M10.42,32.436c-6.797-1.174-2.37,17.031,2.953,12.01C15.841,42.117,13.602,32.985,10.42,32.436z"/>
<path fill="#523924" d="M52.834,32.436c-3.181,0.55-5.421,9.682-2.953,12.01C55.204,49.465,59.63,31.262,52.834,32.436z"/>
<path fill="#614A36" d="M52.461,33.274c0-19.141-8.181-12.894-20.833-12.894c-12.649,0-20.833-6.247-20.833,12.894
	c0,0,0.046,5.411,1.394,12.521C13.973,55.2,23.988,62,31.627,62c7.642,0,17.657-6.8,19.44-16.205
	C52.415,38.684,52.461,33.274,52.461,33.274z"/>
<path fill="#F5F5F5" d="M48.757,34.705c-2.23,5.807-11.301,4.955-12.963,0.893C37.056,29.07,47.53,28.511,48.757,34.705z"/>
<path fill="#45332C" d="M38.108,34.085c0,5.122,7.407,5.122,7.407,0C45.516,29.33,38.108,29.33,38.108,34.085z"/>
<path fill="#45332C" d="M48.757,34.662c0-6.235-12.963-6.235-12.963,0.986C37.646,29.723,46.905,29.723,48.757,34.662z"/>
<path fill="#F5F5F5" d="M14.498,34.705c2.23,5.807,11.302,4.955,12.962,0.893C26.198,29.07,15.726,28.511,14.498,34.705z"/>
<path fill="#45332C" d="M25.146,34.085c0,5.122-7.407,5.122-7.407,0C17.738,29.33,25.146,29.33,25.146,34.085z"/>
<path fill="#45332C" d="M14.498,34.662c0-6.234,12.962-6.234,12.962,0.984C25.61,29.723,16.349,29.723,14.498,34.662z"/>
<path fill="#F5F5F5" d="M38.563,32.84c0,1.281,1.853,1.281,1.853,0C40.416,31.652,38.563,31.652,38.563,32.84z"/>
<path fill="#F5F5F5" d="M20.277,32.58c0,1.281-1.852,1.281-1.852,0C18.425,31.392,20.277,31.392,20.277,32.58z"/>
<path fill="#3B2B1C" d="M48.263,28.97c-3.979-1.64-9.425-1.96-12.221-0.867c-0.591,0.231-0.572,1.644-0.051,1.502
	c4.01-1.093,8.625-1.177,12.421,0.146C48.922,29.928,48.86,29.215,48.263,28.97z"/>
<path fill="#3B2B1C" d="M14.992,28.97c3.979-1.64,9.423-1.96,12.22-0.867c0.591,0.231,0.572,1.644,0.051,1.502
	c-4.01-1.093-8.625-1.177-12.42,0.146C14.332,29.928,14.394,29.215,14.992,28.97z"/>
<path fill="#3B2B1C" d="M36.257,43.59c0,3.013-9.26,3.013-9.26,0C26.997,42.898,36.257,42.898,36.257,43.59z"/>
<path fill="#3B2C20" d="M32,49.438c-3.045-0.877-8.948,0.492-8.948,0.492c2.035,2.16,3.527,4.965,8.948,4.965
	s6.912-2.805,8.947-4.965C40.947,49.93,35.044,48.561,32,49.438z"/>
<path fill="#38332D" d="M53.858,31.508l-2.036-0.625c0.149,2.584,0.071,6.811-0.198,9.061c-1.947,8.695-7.192,10.586-7.192,10.586
	s-0.748-1.854-2.733-2.834C39.2,46.459,36.952,46.764,32,46.771c-4.954-0.008-7.202-0.313-9.7,0.924
	c-1.985,0.98-2.733,2.834-2.733,2.834s-5.24-1.889-7.191-10.576c-0.27-2.253-0.348-6.483-0.199-9.07l-2.036,0.625
	c0,0-0.46,7.787,1.275,13.895C15.161,58.574,23.492,62,32,62s16.839-3.426,20.583-16.598C54.318,39.295,53.858,31.508,53.858,31.508
	z M22.821,49.514c1.885-0.619,5.17-0.834,9.179-0.834c4.008,0,7.293,0.215,9.178,0.834c1.475,0.486-3.747,8.203-6.458,7.102
	c-1.179-0.484-1.563-1.458-1.563-1.458h-2.313c0,0-0.385,0.974-1.563,1.458C26.567,57.717,21.347,50,22.821,49.514z"/>
<path fill="#FFFFFF" d="M24.193,50c0.243,0.619,3.464,2.917,7.806,2.917c4.344,0,7.564-2.3,7.808-2.917
	C35.916,50.198,28.113,50.2,24.193,50z"/>
<path fill="#E6EBEF" d="M56.033,14.244c0.831-1.003,0.275-2.271-2.181-4.08c0.003,0,0.006,0.001,0.01,0.001
	C49.683-3.424-3.729-2.004,4.953,29.446c-0.692,5.555,1.777,9.772,2.292,9.966c5.649-11.097,17.432-16.201,28.002-19.178
	C51.562,24.426,55.962,39.63,55.962,39.63c3.691-4.548,2.888-9.637,2.889-9.628C60.934,24.261,60.295,18.473,56.033,14.244z"/>
<path opacity="0.3" fill="#BEC3CF" d="M10.986,8.782c-5.62,4.434-8.651,11.183-6.033,20.665c-0.692,5.555,1.777,9.772,2.292,9.966
	c1.404-2.758,7.205-9.872,9.254-11.949C9.083,29.446,2.083,17.719,10.986,8.782z"/>
<path opacity="0.3" fill="#BEC3CF" d="M56.033,14.244c0.831-1.003,0.275-2.271-2.181-4.08c0.003,0,0.006,0.001,0.01,0.001
	c-0.514-1.67-1.771-3.113-3.566-4.302c4.119,2.762,7.578,18.324-1.467,22.205c4.711,4.547,7.133,11.562,7.133,11.562
	c3.691-4.548,2.888-9.637,2.889-9.628C60.934,24.261,60.295,18.473,56.033,14.244z"/>
<path fill="#BEC3CF" d="M7.245,39.412c6.997-23.788,37.217-17.563,48.788-25.168C47.041,24.201,22.237,15.92,7.245,39.412z"/>
<path fill="#BEC3CF" d="M58.851,30.002c-2.121-9.616-10.283-12.283-10.283-12.283l-2.619,0.754
	C45.948,18.473,53.364,19.883,58.851,30.002z"/>
<path fill="#BEC3CF" d="M55.962,39.63c-4.131-15.407-18.85-19.537-18.85-19.537l-2.618,0.755
	C34.494,20.848,50.321,25.574,55.962,39.63z"/>
<path fill="#BEC3CF" d="M4.953,29.446c5.6-28.257,40.652-23.878,48.9-19.282C44.147,7.852,14.746,4.108,4.953,29.446z"/>
</svg>
