<?xml version="1.0" encoding="utf-8"?>
<!-- Generator: Adobe Illustrator 15.0.0, SVG Export Plug-In . SVG Version: 6.00 Build 0)  -->
<!DOCTYPE svg PUBLIC "-//W3C//DTD SVG 1.1//EN" "http://www.w3.org/Graphics/SVG/1.1/DTD/svg11.dtd">
<svg version="1.1" id="Layer_1" xmlns="http://www.w3.org/2000/svg" xmlns:xlink="http://www.w3.org/1999/xlink" x="0px" y="0px"
	 width="64px" height="64px" viewBox="0 0 64 64" enable-background="new 0 0 64 64" xml:space="preserve">
<path fill="#75543D" d="M10.42,32.436c-6.797-1.174-2.37,17.031,2.953,12.01C15.841,42.117,13.602,32.985,10.42,32.436z"/>
<path fill="#75543D" d="M52.834,32.436c-3.181,0.55-5.421,9.682-2.953,12.01C55.204,49.465,59.63,31.262,52.834,32.436z"/>
<path fill="#916B50" d="M52.46,31.424c0-19.141-41.667-19.141-41.667,0c0,0,0.046,5.263,1.395,12.371
	C14.009,53.398,23.949,62,31.626,62c7.68,0,17.619-8.602,19.439-18.205C52.415,36.684,52.46,31.424,52.46,31.424z"/>
<path fill="#734A2E" d="M41.011,50.31c-1.766,1.997-2.869,5.531-9.385,5.531c-5.684,0-7.25-3.111-9.383-5.531H41.011z"/>
<path fill="#FFFFFF" d="M39.837,50.37c-3.861,3.956-12.51,4.011-16.422,0H39.837z"/>
<path fill="#734A2E" d="M31.626,49.992c-3.676-1.613-3.705-0.064-9.384,0.317c7.171,0.804,11.597,0.804,18.769,0
	C35.331,49.928,35.302,48.379,31.626,49.992z"/>
<path fill="#664935" d="M48.19,29.542c-3.98-1.639-9.426-1.959-12.221-0.866c-0.592,0.23-0.574,1.644-0.051,1.501
	c4.008-1.092,8.623-1.176,12.42,0.145C48.849,30.501,48.788,29.789,48.19,29.542z"/>
<path fill="#664935" d="M14.918,29.543c3.979-1.64,9.424-1.959,12.221-0.866c0.59,0.23,0.572,1.643,0.049,1.502
	c-4.008-1.093-8.624-1.178-12.419,0.145C14.259,30.502,14.321,29.79,14.918,29.543z"/>
<path fill="#664935" d="M36.317,44.629c0,3.013-9.258,3.013-9.258,0C27.06,43.938,36.317,43.938,36.317,44.629z"/>
<path fill="#F5F5F5" d="M15.282,35.65c2.188,5.696,11.083,4.873,12.713,0.889C26.755,30.139,16.486,29.575,15.282,35.65z"/>
<path fill="#45332C" d="M25.724,35.058c0,5.023-7.264,5.023-7.264,0C18.459,30.395,25.724,30.395,25.724,35.058z"/>
<path fill="#F5F5F5" d="M47.972,35.65c-2.188,5.696-11.084,4.873-12.713,0.889C36.497,30.139,46.767,29.575,47.972,35.65z"/>
<path fill="#45332C" d="M37.528,35.058c0,5.023,7.264,5.023,7.264,0C44.792,30.395,37.528,30.395,37.528,35.058z"/>
<path fill="#F5F5F5" d="M38.013,34.495c0,1.257,1.818,1.257,1.818,0C39.831,33.329,38.013,33.329,38.013,34.495z"/>
<path fill="#F5F5F5" d="M20.75,34.252c0,1.254-1.816,1.254-1.816,0C18.934,33.084,20.75,33.084,20.75,34.252z"/>
<path fill="#45332C" d="M16.928,32.111c-0.289-0.025-1.091-0.124-1.767-0.479c0.188,0.602,0.463,1.028,0.78,1.344
	c-0.501,0.129-1.14,0.092-2.146-0.436c0.232,0.742,0.588,1.237,1.009,1.555c-0.467,0.265-1.105,0.393-2.26,0.088
	c0.745,1.283,1.814,1.613,2.736,1.467c1.826-3.458,9.756-4.088,12.713,0.936C27.995,30.586,20.365,29.253,16.928,32.111z"/>
<path fill="#45332C" d="M48.446,34.096c0.42-0.317,0.777-0.813,1.01-1.555c-1.006,0.527-1.645,0.564-2.146,0.436
	c0.318-0.315,0.594-0.742,0.779-1.344c-0.674,0.354-1.475,0.453-1.764,0.479c-3.438-2.858-11.066-1.525-11.066,4.475
	c2.953-5.023,10.885-4.394,12.713-0.936c0.92,0.146,1.988-0.184,2.736-1.467C49.554,34.488,48.915,34.36,48.446,34.096z"/>
<path fill="#E6EBEF" d="M56.033,14.244c0.831-1.003,0.275-2.271-2.181-4.08c0.003,0,0.006,0.001,0.01,0.001
	C49.683-3.424-3.729-2.004,4.953,29.446c-0.692,5.555,1.777,9.772,2.292,9.966c5.649-11.097,17.432-16.201,28.002-19.178
	C51.562,24.426,55.962,39.63,55.962,39.63c3.691-4.548,2.888-9.637,2.889-9.628C60.934,24.261,60.295,18.473,56.033,14.244z"/>
<path opacity="0.3" fill="#BEC3CF" d="M10.986,8.782c-5.62,4.434-8.651,11.183-6.033,20.665c-0.692,5.555,1.777,9.772,2.292,9.966
	c1.404-2.758,7.205-9.872,9.254-11.949C9.083,29.446,2.083,17.719,10.986,8.782z"/>
<path opacity="0.3" fill="#BEC3CF" d="M56.033,14.244c0.831-1.003,0.275-2.271-2.181-4.08c0.003,0,0.006,0.001,0.01,0.001
	c-0.514-1.67-1.771-3.113-3.566-4.302c4.119,2.762,7.578,18.324-1.467,22.205c4.711,4.547,7.133,11.562,7.133,11.562
	c3.691-4.548,2.888-9.637,2.889-9.628C60.934,24.261,60.295,18.473,56.033,14.244z"/>
<path fill="#BEC3CF" d="M7.245,39.412c6.997-23.788,37.217-17.563,48.788-25.168C47.041,24.201,22.237,15.92,7.245,39.412z"/>
<path fill="#BEC3CF" d="M58.851,30.002c-2.121-9.616-10.283-12.283-10.283-12.283l-2.619,0.754
	C45.948,18.473,53.364,19.883,58.851,30.002z"/>
<path fill="#BEC3CF" d="M55.962,39.63c-4.131-15.407-18.85-19.537-18.85-19.537l-2.618,0.755
	C34.494,20.848,50.321,25.574,55.962,39.63z"/>
<path fill="#BEC3CF" d="M4.953,29.446c5.6-28.257,40.652-23.878,48.9-19.282C44.147,7.852,14.746,4.108,4.953,29.446z"/>
</svg>
