<?xml version="1.0" encoding="utf-8"?>
<!-- Generator: Adobe Illustrator 15.0.0, SVG Export Plug-In . SVG Version: 6.00 Build 0)  -->
<!DOCTYPE svg PUBLIC "-//W3C//DTD SVG 1.1//EN" "http://www.w3.org/Graphics/SVG/1.1/DTD/svg11.dtd">
<svg version="1.1" id="Layer_1" xmlns="http://www.w3.org/2000/svg" xmlns:xlink="http://www.w3.org/1999/xlink" x="0px" y="0px"
	 width="64px" height="64px" viewBox="0 0 64 64" enable-background="new 0 0 64 64" xml:space="preserve">
<path fill="#6E8189" d="M46.003,11.537c0,5.951-28.001,5.951-28.001,0C18.001-1.179,46.003-1.179,46.003,11.537z"/>
<path fill="#FF8FA8" d="M47.003,16.019c0,5.309-30.001,5.309-30.001,0C17.001,2.661,47.003,2.661,47.003,16.019z"/>
<path fill="#99A8AE" d="M32,9.031C11.787,3.485-4.608,25.603,8.981,41.579h46.037C68.608,25.603,52.214,3.485,32,9.031z"/>
<path fill="#6E8189" d="M58.22,20.719c0,0.003,1.135,9.54-4.24,5.248C44.398,18.317,34.389,20.48,32,17.862
	c-2.389,2.618-12.398,0.455-21.979,8.104c-5.375,4.292-4.241-5.245-4.241-5.248c-2.926,6.369-2.502,14.155,3.201,20.86h46.037
	C60.722,34.874,61.146,27.088,58.22,20.719z"/>
<path fill="#DEA885" d="M12.148,42.61c2.683-2.515,0.248-12.377-3.212-12.971C1.543,28.372,6.359,48.032,12.148,42.61z"/>
<path fill="#DEA885" d="M51.854,42.61c-2.684-2.515-0.248-12.377,3.212-12.971C62.457,28.372,57.643,48.031,51.854,42.61z"/>
<path fill="#EBBEA0" d="M32,19.056C26.273,23.34,18.188,20.59,8.937,29.64c0,0,0.458,8.927,1.924,16.69
	C12.751,56.337,26.458,62,32,62c5.543,0,19.25-5.663,21.14-15.67c1.467-7.764,1.924-16.69,1.924-16.69
	C45.813,20.59,37.727,23.34,32,19.056z"/>
<path fill="#F5F5F5" d="M50.501,35.898c-1.494,3.893-13.117,2.348-14,0.193C37.864,29.044,49.177,29.21,50.501,35.898z"/>
<path fill="#45332C" d="M39.501,34.314c0,4.84,7,4.84,7,0C46.501,29.823,39.501,29.823,39.501,34.314z"/>
<path fill="#45332C" d="M50.501,35.852c0-6.733-14-7.503-14,0.295C38.501,29.749,48.501,30.519,50.501,35.852z"/>
<path fill="#F5F5F5" d="M13.5,35.898c1.496,3.893,13.119,2.348,14,0.193C26.138,29.044,14.826,29.21,13.5,35.898z"/>
<path fill="#45332C" d="M24.5,34.314c0,4.84-7,4.84-7,0C17.5,29.823,24.5,29.823,24.5,34.314z"/>
<path fill="#45332C" d="M13.5,35.852c0-6.731,14-7.503,14,0.293C25.501,29.749,15.5,30.519,13.5,35.852z"/>
<path fill="#F5F5F5" d="M39.933,33.26c0,1.211,1.75,1.211,1.75,0C41.683,32.138,39.933,32.138,39.933,33.26z"/>
<path fill="#F5F5F5" d="M19.899,32.893c0,1.209-1.75,1.209-1.75,0C18.149,31.77,19.899,31.77,19.899,32.893z"/>
<path fill="#BF8C6B" d="M32.002,49.373c-4.027-1.068-10,0.506-10,0.506c2.275,2.229,3.942,5.121,10,5.121
	c6.944,0,8.122-3.283,10.001-5.121C42.003,49.879,36.026,48.301,32.002,49.373z"/>
<g>
	<path fill="#FFFFFF" d="M23.41,49.959c4.28,3.979,12.933,4.006,17.24,0C36.083,50.178,28.006,50.18,23.41,49.959z"/>
</g>
<g>
	<path fill="#BF8D69" d="M38.194,42.809c1.313,4.197,5.447,7.986,10.109,9.191C46.13,50.686,39.642,44.785,38.194,42.809z"/>
	<path fill="#BF8D69" d="M15.699,52c4.615-1.191,8.782-4.953,10.107-9.191C24.359,44.785,17.87,50.686,15.699,52z"/>
</g>
<g>
	<path fill="#BF8D69" d="M36.501,38.58c3.309,3.98,10.943,4.018,14.295,0C48.544,40.613,38.753,40.613,36.501,38.58z"/>
	<path fill="#BF8D69" d="M13.205,38.58c3.309,3.98,10.943,4.018,14.295,0C25.247,40.613,15.457,40.613,13.205,38.58z"/>
</g>
<path fill="#99A8AE" d="M49.969,29.676c-4.298-1.771-10.18-2.116-13.199-0.937c-0.638,0.249-0.618,1.775-0.055,1.622
	c4.33-1.18,9.314-1.271,13.414,0.157C50.68,30.71,50.613,29.94,49.969,29.676z"/>
<path fill="#99A8AE" d="M14.035,29.676c4.297-1.771,10.178-2.116,13.198-0.937c0.638,0.249,0.618,1.775,0.054,1.622
	c-4.33-1.18-9.314-1.271-13.413,0.157C13.323,30.71,13.389,29.94,14.035,29.676z"/>
<path fill="#BF8D69" d="M37,44.56c0,3.254-10,3.254-10,0C27,43.813,37,43.813,37,44.56z"/>
</svg>
