<?xml version="1.0" encoding="utf-8"?>
<!-- Generator: Adobe Illustrator 15.0.0, SVG Export Plug-In . SVG Version: 6.00 Build 0)  -->
<!DOCTYPE svg PUBLIC "-//W3C//DTD SVG 1.1//EN" "http://www.w3.org/Graphics/SVG/1.1/DTD/svg11.dtd">
<svg version="1.1" id="Layer_1" xmlns="http://www.w3.org/2000/svg" xmlns:xlink="http://www.w3.org/1999/xlink" x="0px" y="0px"
	 width="64px" height="64px" viewBox="0 0 64 64" enable-background="new 0 0 64 64" xml:space="preserve">
<path fill="#38332D" d="M41.834,11.631c-5.006-6.117-29.833-3.666-29.833,14.372c0.104,9.691,1.764,31.704,19.947,31.704
	c18.181,0,19.844-21.92,20.052-31.704C52,19.994,48.364,12.892,41.834,11.631z"/>
<path fill="#26221E" d="M12.289,31.924c0.895,10.693,4.62,25.783,19.676,25.783c15.105,0,18.807-15.124,19.748-25.854
	c-0.495-4.94-3.549-11.321-10.17-18.844C27.97,21.428,13.309,20.116,12.289,31.924z"/>
<path fill="#006DAE" d="M13.901,50.842C16.102,49.785,25.233,47,25.233,47h13.603c0,0,9.123,2.781,11.311,3.84
	C53.328,52.377,54,62,54,62H10C10,62,10.71,52.371,13.901,50.842z"/>
<path fill="#302C3B" d="M13.497,51.066c0.47-0.436,7.471-2.824,9.656-3.422C25.614,54.129,29.811,62,29.811,62H12.964L13.497,51.066
	z"/>
<path fill="#F59E01" d="M13.901,50.842c0.17-0.254,8.467-3.207,8.955-3.104C25.009,54.088,29.078,62,29.078,62H13.66L13.901,50.842z
	"/>
<path fill="#FFE12C" d="M16.339,49.848c1.979-0.818,3.774-1.328,3.774-1.328L21.36,62h-4.693L16.339,49.848z"/>
<path fill="#302C3B" d="M50.502,51.066c-0.471-0.436-7.471-2.824-9.656-3.422C38.385,54.129,34.188,62,34.188,62h16.848
	L50.502,51.066z"/>
<path fill="#F59E01" d="M50.098,50.842c-0.17-0.254-8.467-3.207-8.955-3.104C38.99,54.088,34.92,62,34.92,62h15.42L50.098,50.842z"
	/>
<path fill="#FFE12C" d="M47.66,49.848c-1.98-0.818-3.773-1.328-3.773-1.328L42.639,62h4.693L47.66,49.848z"/>
<path fill="#3B2B1C" d="M25.001,47.781c0,6.854,13.999,6.854,13.999,0c0-4.18,0-11.09,0-11.09H25.001
	C25.001,36.691,25.001,42.385,25.001,47.781z"/>
<path fill="#614A36" d="M46.124,24.935c-2.112-4.98-5.984-10.383-5.984-10.383c-14.171,8.515-26.15,4.241-22.823,20.38
	C18.894,42.588,28.367,48.52,32.1,48.52c3.729,0,13.44-5.886,14.779-13.588C47.654,30.47,47.108,27.254,46.124,24.935z"/>
<path fill="#F5F5F5" d="M45.054,28.264c-1.688,4.394-8.548,3.748-9.806,0.677C36.203,24.002,44.127,23.58,45.054,28.264z"/>
<path fill="#45332C" d="M36.999,27.796c0,3.876,5.604,3.876,5.604,0C42.604,24.199,36.999,24.199,36.999,27.796z"/>
<path fill="#45332C" d="M45.054,28.232c0-4.717-9.806-4.717-9.806,0.746C36.65,24.496,43.652,24.496,45.054,28.232z"/>
<path fill="#F5F5F5" d="M19.141,28.264c1.687,4.394,8.549,3.748,9.805,0.677C27.99,24.002,20.068,23.58,19.141,28.264z"/>
<path fill="#45332C" d="M27.195,27.796c0,3.876-5.604,3.876-5.604,0C21.591,24.199,27.195,24.199,27.195,27.796z"/>
<path fill="#45332C" d="M19.141,28.232c0-4.716,9.805-4.716,9.805,0.744C27.545,24.496,20.541,24.496,19.141,28.232z"/>
<path fill="#F5F5F5" d="M37.346,26.854c0,0.969,1.4,0.969,1.4,0C38.746,25.956,37.346,25.956,37.346,26.854z"/>
<path fill="#F5F5F5" d="M23.512,26.658c0,0.968-1.399,0.968-1.399,0C22.112,25.759,23.512,25.759,23.512,26.658z"/>
<path fill="#3B2C20" d="M39.1,39.531c-1.316,1.49-2.14,4.128-7.003,4.128c-4.242,0-5.411-2.323-7.004-4.128H39.1z"/>
<path fill="#FFFFFF" d="M38.225,39.576c-2.881,2.952-9.336,2.992-12.256,0H38.225z"/>
<path fill="#3B2C20" d="M32.098,39.293c-2.744-1.203-2.766-0.049-7.005,0.238c5.353,0.6,8.655,0.6,14.007,0
	C34.863,39.244,34.841,38.09,32.098,39.293z"/>
<path fill="#3B2B1C" d="M44.459,24.03c-2.971-1.224-7.033-1.462-9.121-0.646c-0.439,0.173-0.427,1.226-0.038,1.121
	c2.991-0.814,6.437-0.879,9.271,0.106C44.951,24.747,44.904,24.215,44.459,24.03z"/>
<path fill="#3B2B1C" d="M19.627,24.033c2.97-1.225,7.033-1.463,9.121-0.648c0.44,0.173,0.428,1.228,0.037,1.121
	c-2.992-0.814-6.436-0.879-9.269,0.108C19.135,24.747,19.181,24.215,19.627,24.033z"/>
<path fill="#3B2B1C" d="M35.598,35.291c0,2.248-6.909,2.248-6.909,0C28.688,34.773,35.598,34.773,35.598,35.291z"/>
<path fill="#FFE12C" d="M51.318,21.951H12.68c0-9.869,4.833-17.539,19.318-17.539C46.484,4.412,51.318,12.082,51.318,21.951z"/>
<path fill="#F9B700" d="M40.258,17.58V5.48L32,3.145L23.741,5.48v12.1c-7.757,0.961-13.209,3.234-13.209,5.887h42.933
	C53.465,20.814,48.014,18.541,40.258,17.58z"/>
<path fill="#FFE12C" d="M38.826,19.668H25.173V5.133c0-4.178,13.653-4.178,13.653,0V19.668z"/>
<polygon opacity="0.2" points="51.898,24.232 12.084,24.232 12.174,23.467 51.794,23.467 "/>
</svg>
