<?xml version="1.0" encoding="utf-8"?>
<!-- Generator: Adobe Illustrator 15.0.0, SVG Export Plug-In . SVG Version: 6.00 Build 0)  -->
<!DOCTYPE svg PUBLIC "-//W3C//DTD SVG 1.1//EN" "http://www.w3.org/Graphics/SVG/1.1/DTD/svg11.dtd">
<svg version="1.1" id="Layer_1" xmlns="http://www.w3.org/2000/svg" xmlns:xlink="http://www.w3.org/1999/xlink" x="0px" y="0px"
	 width="64px" height="64px" viewBox="0 0 64 64" enable-background="new 0 0 64 64" xml:space="preserve">
<path fill="#594640" d="M41.834,11.631C36.828,5.514,12,7.965,12,26.003c0.104,9.691,1.765,31.705,19.948,31.705
	c18.181,0,19.844-21.92,20.052-31.705C52,19.994,48.364,12.892,41.834,11.631z"/>
<path fill="#422F2A" d="M12.289,31.924c0.895,10.693,4.619,25.784,19.676,25.784c15.105,0,18.807-15.125,19.748-25.854
	c-0.495-4.94-3.549-11.321-10.17-18.844C27.97,21.428,13.309,20.116,12.289,31.924z"/>
<path fill="#006DAE" d="M13.901,50.843c2.2-1.057,11.331-3.842,11.331-3.842h13.604c0,0,9.123,2.781,11.311,3.84
	C53.328,52.378,54,62.001,54,62.001H10C10,62.001,10.71,52.372,13.901,50.843z"/>
<path fill="#302C3B" d="M13.497,51.067c0.47-0.436,7.471-2.824,9.656-3.422c2.46,6.484,6.657,14.355,6.657,14.355H12.964
	L13.497,51.067z"/>
<path fill="#F59E01" d="M13.901,50.843c0.17-0.254,8.467-3.207,8.955-3.104c2.151,6.35,6.222,14.262,6.222,14.262H13.66
	L13.901,50.843z"/>
<path fill="#FFE12C" d="M16.339,49.849c1.979-0.818,3.774-1.328,3.774-1.328l1.247,13.48h-4.693L16.339,49.849z"/>
<path fill="#302C3B" d="M50.502,51.067c-0.471-0.436-7.471-2.824-9.656-3.422c-2.461,6.484-6.658,14.355-6.658,14.355h16.848
	L50.502,51.067z"/>
<path fill="#F59E01" d="M50.098,50.843c-0.17-0.254-8.467-3.207-8.955-3.104c-2.152,6.35-6.223,14.262-6.223,14.262h15.42
	L50.098,50.843z"/>
<path fill="#FFE12C" d="M47.66,49.849c-1.98-0.818-3.773-1.328-3.773-1.328l-1.248,13.48h4.693L47.66,49.849z"/>
<path fill="#DBA97F" d="M25,47.782c0,6.854,14,6.854,14,0c0-4.18,0-11.09,0-11.09H25C25,36.692,25,42.386,25,47.782z"/>
<path fill="#FCD5B2" d="M46.124,24.935c-2.112-4.98-5.984-10.383-5.984-10.383c-14.171,8.515-26.151,4.241-22.823,20.381
	c1.577,7.656,11.051,13.588,14.783,13.588c3.729,0,13.44-5.887,14.779-13.588C47.654,30.47,47.108,27.254,46.124,24.935z"/>
<path fill="#F5F5F5" d="M45.054,28.264c-1.688,4.394-8.548,3.749-9.806,0.677C36.203,24.002,44.127,23.58,45.054,28.264z"/>
<path fill="#45332C" d="M36.999,27.796c0,3.876,5.604,3.876,5.604,0C42.604,24.199,36.999,24.199,36.999,27.796z"/>
<path fill="#45332C" d="M45.054,28.232c0-4.717-9.806-4.717-9.806,0.746C36.65,24.496,43.652,24.496,45.054,28.232z"/>
<path fill="#F5F5F5" d="M19.141,28.264c1.686,4.394,8.549,3.749,9.805,0.677C27.99,24.002,20.068,23.58,19.141,28.264z"/>
<path fill="#45332C" d="M27.195,27.796c0,3.876-5.604,3.876-5.604,0C21.591,24.199,27.195,24.199,27.195,27.796z"/>
<path fill="#45332C" d="M19.141,28.232c0-4.716,9.805-4.716,9.805,0.744C27.545,24.496,20.541,24.496,19.141,28.232z"/>
<path fill="#F5F5F5" d="M37.346,26.854c0,0.969,1.4,0.969,1.4,0C38.746,25.956,37.346,25.956,37.346,26.854z"/>
<path fill="#F5F5F5" d="M23.512,26.658c0,0.968-1.4,0.968-1.4,0C22.111,25.759,23.512,25.759,23.512,26.658z"/>
<path fill="#CC9D76" d="M39.1,39.531c-1.316,1.49-2.14,4.128-7.003,4.128c-4.242,0-5.411-2.323-7.004-4.128H39.1z"/>
<path fill="#FFFFFF" d="M38.225,39.577c-2.881,2.951-9.336,2.992-12.256,0H38.225z"/>
<path fill="#CC9D76" d="M32.098,39.294c-2.744-1.203-2.766-0.049-7.005,0.237c5.353,0.6,8.655,0.6,14.007,0
	C34.863,39.245,34.841,38.091,32.098,39.294z"/>
<path fill="#DBA97F" d="M44.459,24.03c-2.971-1.224-7.033-1.462-9.121-0.646c-0.439,0.173-0.427,1.226-0.038,1.121
	c2.991-0.814,6.437-0.879,9.271,0.106C44.951,24.747,44.904,24.215,44.459,24.03z"/>
<path fill="#DBA97F" d="M19.627,24.033c2.969-1.225,7.033-1.463,9.121-0.648c0.44,0.173,0.428,1.228,0.037,1.121
	c-2.992-0.814-6.436-0.879-9.269,0.108C19.135,24.747,19.181,24.215,19.627,24.033z"/>
<path fill="#DBA97F" d="M35.598,35.291c0,2.248-6.909,2.248-6.909,0C28.688,34.774,35.598,34.774,35.598,35.291z"/>
<path fill="#FFE12C" d="M51.318,21.951H12.68c0-9.869,4.833-17.539,19.318-17.539C46.484,4.412,51.318,12.082,51.318,21.951z"/>
<path fill="#F9B700" d="M40.258,17.58V5.48L32,3.145L23.741,5.48v12.1c-7.757,0.961-13.209,3.234-13.209,5.887h42.933
	C53.465,20.814,48.014,18.541,40.258,17.58z"/>
<path fill="#FFE12C" d="M38.826,19.668H25.172V5.133c0-4.178,13.654-4.178,13.654,0V19.668z"/>
<polygon opacity="0.2" points="51.898,24.232 12.084,24.232 12.174,23.467 51.794,23.467 "/>
</svg>
