<?xml version="1.0" encoding="utf-8"?>
<!-- Generator: Adobe Illustrator 15.0.0, SVG Export Plug-In . SVG Version: 6.00 Build 0)  -->
<!DOCTYPE svg PUBLIC "-//W3C//DTD SVG 1.1//EN" "http://www.w3.org/Graphics/SVG/1.1/DTD/svg11.dtd">
<svg version="1.1" id="Layer_1" xmlns="http://www.w3.org/2000/svg" xmlns:xlink="http://www.w3.org/1999/xlink" x="0px" y="0px"
	 width="64px" height="64px" viewBox="0 0 64 64" enable-background="new 0 0 64 64" xml:space="preserve">
<path fill="#C49A45" d="M36.307,8.958l-8.187,1.844c-1.563-3.715,1.75-7.115,6.74-8.328C33.203,4.659,33.869,6.635,36.307,8.958z"/>
<path fill="#FFD68C" d="M56.151,36.954c13.688-36.676-22.692-42.93-25.28-25.913c0,0-3.713,51.629,29.019,46.618
	C55.43,55.835,51.035,50.657,56.151,36.954z"/>
<path fill="#C49A45" d="M45.66,8.131c-7.947-4.381-5.268-5.908,0.291-5.652c-6.842-1.672-13.777,1.035-15.041,8.008
	C26.321,35.847,33.25,67.694,62,61.128C33.689,56.429,71.12,22.165,45.66,8.131z"/>
<path fill="#8E3ED6" d="M31.932,7.95c-6.474,5.92,16.85,21.586,16.904,7.984C48.865,8.293,36.033,4.178,31.932,7.95z"/>
<path fill="#FFD68C" d="M27.001,8C10.944,8,3.629,18.37,2.173,32.299c-0.772,7.385,0.939,12.704,7.093,17.102
	c7.25,5.182,28.218,5.182,35.466,0c6.154-4.398,7.865-9.717,7.094-17.102C49.602,11.026,38.525,12.5,38.525,12.5S37.572,8,27.001,8z
	"/>
<path fill="#F5BC2C" d="M9.906,43.833c1.276-11.971-1.891-14.471-6.24-5.859C4.25,42.171,6.938,46.597,9.906,43.833z"/>
<path fill="#F5BC2C" d="M44.096,43.833c0.222-12.561-0.439-15.471,6.318-8.336C50.835,40.065,47.67,47.157,44.096,43.833z"/>
<path fill="#FDCA47" d="M47.377,32.321c-15.358-9.586-11.873-14.736-11.873-14.736C17.34,27.612,6.675,32.348,6.675,32.348
	S6.669,39.2,7.987,46.151c1.288,6.787,12,15.85,19.013,15.85c7.015,0,17.728-9.063,19.013-15.85
	C47.332,39.196,47.377,32.321,47.377,32.321z"/>
<path fill="#C49A45" d="M3.668,37.989C9.473,27.465,32.891,28.006,36.525,15.5C22.304,27.293,5.515,26.383,3.668,37.989z"/>
<path fill="#C49A45" d="M50.412,35.497C41.266,28.049,27.599,23.006,36.525,15.5C33.785,25.006,44.557,26.006,50.412,35.497z"/>
<path fill="#F5F5F5" d="M43.576,37.255c-2.142,5.578-10.855,4.76-12.451,0.857C32.338,31.842,42.398,31.303,43.576,37.255z"/>
<path fill="#45332C" d="M33.348,36.659c0,4.92,7.115,4.92,7.115,0C40.463,32.09,33.348,32.09,33.348,36.659z"/>
<path fill="#45332C" d="M43.576,37.212c0-5.989-12.451-5.989-12.451,0.949C32.903,32.469,41.798,32.469,43.576,37.212z"/>
<path fill="#F5F5F5" d="M10.67,37.255c2.143,5.578,10.855,4.76,12.451,0.857C21.909,31.842,11.85,31.303,10.67,37.255z"/>
<path fill="#45332C" d="M20.898,36.659c0,4.92-7.115,4.92-7.115,0C13.783,32.092,20.898,32.092,20.898,36.659z"/>
<path fill="#45332C" d="M10.67,37.212c0-5.987,12.451-5.987,12.451,0.947C21.344,32.469,12.448,32.469,10.67,37.212z"/>
<path fill="#F5F5F5" d="M33.785,35.462c0,1.232,1.779,1.232,1.779,0C35.564,34.323,33.785,34.323,33.785,35.462z"/>
<path fill="#F5F5F5" d="M16.222,35.212c0,1.232-1.779,1.232-1.779,0C14.442,34.073,16.222,34.073,16.222,35.212z"/>
<path fill="#D99025" d="M36.017,51.56c-1.673,1.893-2.718,5.244-8.895,5.244c-5.386,0-6.87-2.951-8.892-5.244H36.017z"/>
<path fill="#FFFFFF" d="M34.904,51.616c-3.66,3.75-11.855,3.803-15.564,0H34.904z"/>
<path fill="#D99025" d="M27.123,51.259c-3.484-1.529-3.511-0.061-8.894,0.301c6.796,0.764,10.991,0.764,17.789,0
	C30.634,51.198,30.607,49.729,27.123,51.259z"/>
<path fill="#E6A400" d="M42.82,31.877c-3.771-1.553-8.932-1.855-11.582-0.82c-0.56,0.219-0.542,1.557-0.047,1.424
	c3.799-1.035,8.173-1.115,11.771,0.137C43.445,32.786,43.387,32.11,42.82,31.877z"/>
<path fill="#E6A400" d="M11.289,31.877c3.77-1.553,8.931-1.855,11.582-0.82c0.559,0.219,0.542,1.557,0.047,1.424
	c-3.8-1.035-8.174-1.115-11.771,0.139C10.663,32.786,10.722,32.11,11.289,31.877z"/>
<path fill="#E6A400" d="M31.57,46.175c0,2.855-8.776,2.855-8.776,0C22.794,45.521,31.57,45.521,31.57,46.175z"/>
</svg>
