<?xml version="1.0" encoding="utf-8"?>
<!-- Generator: Adobe Illustrator 15.0.0, SVG Export Plug-In . SVG Version: 6.00 Build 0)  -->
<!DOCTYPE svg PUBLIC "-//W3C//DTD SVG 1.1//EN" "http://www.w3.org/Graphics/SVG/1.1/DTD/svg11.dtd">
<svg version="1.1" id="Layer_1" xmlns="http://www.w3.org/2000/svg" xmlns:xlink="http://www.w3.org/1999/xlink" x="0px" y="0px"
	 width="64px" height="64px" viewBox="0 0 64 64" enable-background="new 0 0 64 64" xml:space="preserve">
<path fill="#FDCA47" d="M57,27.031c0-17-12-25-25-25s-25,8-25,25c-3.471,0-5,2.5-5,5c0,2.5,1.528,5,5,5c0,6.668,7,16,25,16
	s25-9.332,25-16c3.471,0,5-2.5,5-5C62,29.531,60.471,27.031,57,27.031z"/>
<path fill="#EA8800" d="M34.229,10.05C54.029,7.71,36.877-2.135,21.487,3.963C22.296,7.885,44.395,2.997,34.229,10.05z"/>
<path fill="#D67C00" d="M34.229,10.05c13.506-8.722-11.462-3.667-12.741-6.087C22.296,7.885,43.752,3.288,34.229,10.05z"/>
<path fill="#E6A400" d="M27,35.031c1.633,3.98,8.361,4.02,10,0H27z"/>
<path opacity="0.5" fill="#FF717F" d="M55.453,37.5c-0.861-5.82-11.758-3.763-10.904,2.061C45.412,45.381,56.312,43.324,55.453,37.5
	z"/>
<path opacity="0.5" fill="#FF717F" d="M8.548,37.5c-0.854,5.824,10.043,7.881,10.903,2.061C20.315,33.739,9.406,31.68,8.548,37.5z"
	/>
<path fill="#FFFFFF" d="M26,27.534c0,3.589-2.911,6.498-6.499,6.498c-3.593,0-6.501-2.908-6.501-6.498
	c0-3.591,2.908-6.502,6.501-6.502C23.089,21.031,26,23.942,26,27.534z"/>
<circle fill="#45332C" cx="19.5" cy="27.531" r="4.5"/>
<path fill="#FFFFFF" d="M51,27.536c0,3.589-2.91,6.496-6.5,6.496c-3.588,0-6.5-2.907-6.5-6.496c0-3.591,2.912-6.504,6.5-6.504
	C48.09,21.031,51,23.944,51,27.536z"/>
<circle fill="#45332C" cx="44.5" cy="27.531" r="4.5"/>
<path fill="#F5F5F5" d="M41.246,25.493c0,1.383,2,1.383,2,0C43.246,24.209,41.246,24.209,41.246,25.493z"/>
<path fill="#F5F5F5" d="M18.315,25.493c0,1.383-2,1.383-2,0C16.315,24.209,18.315,24.209,18.315,25.493z"/>
<path fill="#42ADE2" d="M47.001,44.055c0,16.364-30,16.364-30,0c0-8.359,6.756-4.765,15.039-4.765
	C40.325,39.29,47.001,35.695,47.001,44.055z"/>
<path fill="#61C2FF" d="M47,45.055c0,15.364-30,15.364-30,0c0-8.359,6.756-4.765,15.039-4.765C40.324,40.29,47,36.695,47,45.055z"/>
<path fill="#006DAE" d="M31.999,51.425c-7.998,0-7.998-8,0-8C40.002,43.425,40.002,51.425,31.999,51.425z"/>
<path fill="#FBB855" d="M32,46.314c-6.075,0-10.999-0.692-10.999,5.237c0,13.932,22,13.932,22,0
	C43.001,45.622,38.075,46.314,32,46.314z M23.69,51.552c0-4.218,3.99-2.866,8.31-2.866c4.321,0,8.312-1.352,8.312,2.866
	C40.312,59.77,23.69,59.77,23.69,51.552z"/>
<path fill="#D99025" d="M24.048,49.817c1.064-2.034,4.394-1.124,7.952-1.124c3.56,0,6.889-0.91,7.953,1.124
	C39.508,46.51,24.494,46.51,24.048,49.817z"/>
<path fill="#D99025" d="M21.208,53.749c2.056,11.002,19.53,11.002,21.586,0C39.925,63.415,24.077,63.414,21.208,53.749z"/>
<path fill="#42ADE2" d="M34.15,49.925c-0.842,0-3.366,0-4.299,0c-1.135,0-1.135-5,0-5c1.023,0,3.503,0,4.299,0
	C35.284,44.925,35.284,49.925,34.15,49.925z"/>
<path fill="#75D6FF" d="M29.781,45.579c0.1-0.419,4.334-0.428,4.439,0C34.698,47.504,29.306,47.576,29.781,45.579z"/>
</svg>
