<?xml version="1.0" encoding="utf-8"?>
<!-- Generator: Adobe Illustrator 15.0.0, SVG Export Plug-In . SVG Version: 6.00 Build 0)  -->
<!DOCTYPE svg PUBLIC "-//W3C//DTD SVG 1.1//EN" "http://www.w3.org/Graphics/SVG/1.1/DTD/svg11.dtd">
<svg version="1.1" id="Layer_1" xmlns="http://www.w3.org/2000/svg" xmlns:xlink="http://www.w3.org/1999/xlink" x="0px" y="0px"
	 width="64px" height="64px" viewBox="0 0 64 64" enable-background="new 0 0 64 64" xml:space="preserve">
<path fill="#A6E639" d="M59,30.607C59,54.066,32.001,62,32.001,62S5,54.066,5,30.607C5,13.123,15.792,2,32.001,2
	C48.207,2,59,13.123,59,30.607z"/>
<path fill="#92C932" d="M44.616,4.705c7.276,4.748,11.602,13.244,11.602,24.293c0,23.398-26.931,31.313-26.931,31.313
	s-1.393-0.242-3.556-0.869C29.36,61.225,32.001,62,32.001,62S59,54.066,59,30.607C59,18.201,53.562,9.004,44.616,4.705z"/>
<path fill="#302C3B" d="M39.385,46.205c-1.253,0.68-3.586,1.947-7.385,1.947c-3.798,0-6.131-1.268-7.383-1.947
	C24.095,45.922,23,45.359,23,46.426c0,2.25,4.375,4.887,9,4.887c4.626,0,9-2.637,9-4.887C41,45.359,39.908,45.922,39.385,46.205z"/>
<path fill-rule="evenodd" clip-rule="evenodd" fill="#B8FF3F" d="M6.367,30.08C6.4,33.883,6.813,17.467,23.017,5.746
	C27.967,2.164,6.169,7.246,6.367,30.08z"/>
<path fill="#302C3B" d="M48.868,35.717c-10.774,9.043-18.69-0.393-7.916-9.434C51.728,17.242,59.645,26.676,48.868,35.717z"/>
<path fill="#302C3B" d="M15.131,35.717c-10.774-9.041-2.858-18.475,7.916-9.434C33.822,35.324,25.906,44.76,15.131,35.717z"/>
<path fill="#1A1626" d="M52.577,23.795c0.324,3.031-1.428,7.104-6.213,11.117c-2.752,2.309-5.344,3.619-7.611,4.164
	c2.4,0.832,6.055,0.051,10.115-3.357C54.604,30.906,55.044,25.984,52.577,23.795z"/>
<path fill="#1A1626" d="M27.562,31.988c-0.328,5.299-6.984,7.564-15.117,1.016c0.721,0.896,1.605,1.807,2.688,2.713
	C23.587,42.814,30.278,38.529,27.562,31.988z"/>
<path fill-rule="evenodd" clip-rule="evenodd" fill="#6E8189" d="M39.313,29.732c-1.42,2.348,4.732,0.869,8.719-4.205
	C50.605,22.262,41.875,25.496,39.313,29.732z"/>
<path fill-rule="evenodd" clip-rule="evenodd" fill="#6E8189" d="M24.688,29.732c1.42,2.348-4.732,0.869-8.719-4.205
	C13.395,22.262,22.125,25.496,24.688,29.732z"/>
</svg>
