<?xml version="1.0" encoding="utf-8"?>
<!-- Generator: Adobe Illustrator 15.0.0, SVG Export Plug-In . SVG Version: 6.00 Build 0)  -->
<!DOCTYPE svg PUBLIC "-//W3C//DTD SVG 1.1//EN" "http://www.w3.org/Graphics/SVG/1.1/DTD/svg11.dtd">
<svg version="1.1" id="Layer_1" xmlns="http://www.w3.org/2000/svg" xmlns:xlink="http://www.w3.org/1999/xlink" x="0px" y="0px"
	 width="64px" height="64px" viewBox="0 0 64 64" enable-background="new 0 0 64 64" xml:space="preserve">
<path fill="#99A8AE" d="M32,4.974c-28.206,0-25.424,13.45-25.424,30h50.848C57.424,18.424,60.206,4.974,32,4.974z"/>
<path fill="#6E8189" d="M6.655,22.156c-0.291,3.889-0.079,8.234-0.079,12.819h50.848c0-4.585,0.212-8.93-0.079-12.819
	C51.608,37.666,12.391,37.666,6.655,22.156z"/>
<path fill="#F5BC2C" d="M12.019,43.041c2.701-2.514,0.25-12.376-3.233-12.97C1.346,28.804,6.193,48.465,12.019,43.041z"/>
<path fill="#F5BC2C" d="M51.981,43.041c-2.701-2.514-0.25-12.376,3.232-12.97C62.653,28.804,57.808,48.463,51.981,43.041z"/>
<path fill="#FDCA47" d="M54.665,30.977C54.665,12.973,45.829,2,32.166,2c-13.662,0-22.5,10.973-22.5,28.977
	c0,0,0.049,5.843,1.505,13.521C13.347,55.967,23.665,62,32.164,62c8.501,0,18.822-6.033,20.996-17.502
	C54.615,36.818,54.665,30.977,54.665,30.977z"/>
<path fill="#99A8AE" d="M49.966,28.328c-4.297-1.771-10.178-2.116-13.198-0.936c-0.638,0.249-0.618,1.775-0.054,1.622
	c4.329-1.18,9.313-1.271,13.414,0.157C50.679,29.362,50.612,28.593,49.966,28.328z"/>
<path fill="#99A8AE" d="M14.034,28.328c4.297-1.771,10.178-2.116,13.198-0.936c0.638,0.249,0.617,1.775,0.055,1.622
	c-4.331-1.18-9.315-1.271-13.414,0.157C13.321,29.362,13.388,28.593,14.034,28.328z"/>
<path fill="#F5F5F5" d="M50.501,34.898c-1.494,3.893-13.117,2.348-14,0.193C37.864,28.044,49.177,28.21,50.501,34.898z"/>
<path fill="#45332C" d="M39.501,33.314c0,4.84,7,4.84,7,0C46.501,28.823,39.501,28.823,39.501,33.314z"/>
<path fill="#45332C" d="M50.501,34.852c0-6.733-14-7.503-14,0.295C38.501,28.749,48.501,29.519,50.501,34.852z"/>
<path fill="#F5F5F5" d="M13.5,34.898c1.496,3.893,13.119,2.348,14,0.193C26.138,28.044,14.826,28.21,13.5,34.898z"/>
<path fill="#45332C" d="M24.5,33.314c0,4.84-7,4.84-7,0C17.5,28.823,24.5,28.823,24.5,33.314z"/>
<path fill="#45332C" d="M13.5,34.852c0-6.731,14-7.503,14,0.293C25.501,28.749,15.5,29.519,13.5,34.852z"/>
<path fill="#F5F5F5" d="M39.933,32.26c0,1.211,1.75,1.211,1.75,0C41.683,31.138,39.933,31.138,39.933,32.26z"/>
<path fill="#F5F5F5" d="M19.899,31.893c0,1.209-1.75,1.209-1.75,0C18.149,30.77,19.899,30.77,19.899,31.893z"/>
<path fill="#D99025" d="M32.001,48.373c-4.027-1.068-10,0.506-10,0.506c2.275,2.229,3.942,5.121,10,5.121
	c6.945,0,8.123-3.283,10.001-5.121C42.003,48.879,36.026,47.301,32.001,48.373z"/>
<g>
	<path fill="#FFFFFF" d="M23.41,48.959c4.279,3.979,12.933,4.006,17.24,0C36.083,49.178,28.006,49.18,23.41,48.959z"/>
</g>
<g>
	<path fill="#E6A400" d="M38.194,41.809c1.313,4.197,5.447,7.986,10.109,9.191C46.13,49.686,39.642,43.785,38.194,41.809z"/>
	<path fill="#E6A400" d="M15.699,51c4.615-1.191,8.782-4.953,10.107-9.191C24.359,43.785,17.87,49.686,15.699,51z"/>
</g>
<g>
	<path fill="#E6A400" d="M36.501,37.58c3.309,3.98,10.943,4.018,14.295,0C48.544,39.613,38.753,39.613,36.501,37.58z"/>
	<path fill="#E6A400" d="M13.205,37.58c3.309,3.98,10.943,4.018,14.295,0C25.247,39.613,15.457,39.613,13.205,37.58z"/>
</g>
<path fill="#E6A400" d="M37.001,43.559c0,3.254-10,3.254-10,0C27.001,42.813,37.001,42.813,37.001,43.559z"/>
<path fill="#E6A400" d="M44.999,17.41c-6.016-3.981-19.903-4.019-25.999,0C23.099,15.375,40.905,15.376,44.999,17.41z"/>
<path fill="#E6A400" d="M48.999,22.993c-7.867-4.645-26.027-4.688-33.999,0C20.36,20.619,43.646,20.621,48.999,22.993z"/>
</svg>
