<?xml version="1.0" encoding="utf-8"?>
<!-- Generator: Adobe Illustrator 15.0.0, SVG Export Plug-In . SVG Version: 6.00 Build 0)  -->
<!DOCTYPE svg PUBLIC "-//W3C//DTD SVG 1.1//EN" "http://www.w3.org/Graphics/SVG/1.1/DTD/svg11.dtd">
<svg version="1.1" id="Layer_1" xmlns="http://www.w3.org/2000/svg" xmlns:xlink="http://www.w3.org/1999/xlink" x="0px" y="0px"
	 width="64px" height="64px" viewBox="0 0 64 64" enable-background="new 0 0 64 64" xml:space="preserve">
<path fill="#594640" d="M62,29.715c0-9.58-5.454-20.905-15.251-22.916C39.241-2.952,2,0.955,2,29.715
	c0,19.004,4.401,26.917,6.243,27.914c8.097,4.383,39.754,4.879,47.395,0C57.161,56.656,62,48.185,62,29.715z"/>
<path fill="#422F2A" d="M45.854,9.001C21.091,25.829-5.806,16.308,6.091,57.023c1.951,6.678,47.916,6.538,50.776,0.164
	C62.384,44.895,64.712,32.479,45.854,9.001z"/>
<path fill="#FCD5B2" d="M52.376,27.563c-3.057-6.882-8.66-14.348-8.66-14.348C23.209,24.981,5.873,19.077,10.687,41.376
	c2.285,10.58,15.992,18.776,21.395,18.776c5.394,0,19.45-8.134,21.386-18.776C54.59,35.21,53.8,30.768,52.376,27.563z"/>
<path fill="#DBA97F" d="M49.967,25.824c-4.298-1.771-10.179-2.116-13.198-0.936c-0.639,0.249-0.619,1.775-0.055,1.622
	c4.33-1.18,9.314-1.271,13.414,0.156C50.679,26.859,50.612,26.09,49.967,25.824z"/>
<path fill="#DBA97F" d="M14.034,25.825c4.297-1.771,10.178-2.116,13.198-0.936c0.639,0.249,0.618,1.775,0.055,1.622
	c-4.33-1.18-9.314-1.271-13.414,0.156C13.321,26.86,13.388,26.091,14.034,25.825z"/>
<path fill="#DBA97F" d="M37.146,42.117c0,3.254-10,3.254-10,0C27.146,41.371,37.146,41.371,37.146,42.117z"/>
<path fill="#F085A9" d="M32.079,50.33l-10-1.285c5.999,7.182,13.999,7.182,20,0L32.079,50.33z"/>
<path fill="#D46C8F" d="M36.022,48.742c-2.944-0.939-3.943,0.551-3.943,0.551s-1.001-1.49-3.945-0.551
	c-2.303,0.734-6.069,0.301-6.055,0.303c4.002,0.729,4.5,2.129,10,2.129s5.999-1.4,10.001-2.129
	C42.093,49.043,38.324,49.477,36.022,48.742z"/>
<path fill="#F5F5F5" d="M14.079,32.195c2.408,6.273,12.206,5.367,14,0.979C26.714,26.125,15.405,25.504,14.079,32.195z"/>
<path fill="#45332C" d="M25.577,31.543c0,5.531-7.999,5.531-7.999,0C17.579,26.407,25.577,26.407,25.577,31.543z"/>
<path fill="#F5F5F5" d="M50.079,32.195c-2.41,6.273-12.206,5.367-14,0.979C37.442,26.125,48.753,25.504,50.079,32.195z"/>
<path fill="#45332C" d="M38.579,31.543c0,5.531,8,5.531,8,0C46.579,26.407,38.579,26.407,38.579,31.543z"/>
<path fill="#F5F5F5" d="M39.112,30.922c0,1.384,2.001,1.384,2.001,0C41.113,29.638,39.112,29.638,39.112,30.922z"/>
<path fill="#F5F5F5" d="M20.102,30.655c0,1.38-2,1.38-2,0C18.101,29.37,20.102,29.37,20.102,30.655z"/>
<path fill="#45332C" d="M15.892,28.298c-0.318-0.028-1.201-0.137-1.945-0.527c0.207,0.661,0.51,1.132,0.86,1.479
	c-0.552,0.142-1.255,0.101-2.363-0.479c0.255,0.816,0.647,1.362,1.11,1.712c-0.514,0.291-1.218,0.433-2.489,0.097
	c0.821,1.415,1.999,1.776,3.014,1.616c2.012-3.809,10.745-4.502,14,1.031C28.079,26.617,19.677,25.15,15.892,28.298z"/>
<path fill="#45332C" d="M50.604,30.483c0.462-0.35,0.854-0.896,1.11-1.712c-1.108,0.58-1.811,0.621-2.363,0.479
	c0.35-0.348,0.652-0.818,0.859-1.479c-0.743,0.39-1.626,0.499-1.944,0.527c-3.785-3.147-12.187-1.681-12.187,4.929
	c3.254-5.534,11.986-4.84,14-1.031c1.014,0.16,2.191-0.201,3.013-1.616C51.821,30.916,51.118,30.774,50.604,30.483z"/>
<path fill="#F5F5F5" d="M10.168,13.382c-0.137-0.826,0.336-1.768,1.202-2.402c1.187-0.867,2.682-0.896,4-0.078l-0.557,0.996
	c-1.393-0.863-2.51-0.193-2.818,0.033c-0.558,0.408-0.797,0.938-0.746,1.25L10.168,13.382z"/>
<path fill="#F5F5F5" d="M25.376,16.507c-4.646-5.17-4.45-8.43-3.917-9.914c0.522-1.459,1.784-2.42,3.375-2.572
	c2.084-0.195,4.211,1.039,5.416,3.154l-0.941,0.594c-0.988-1.734-2.707-2.754-4.377-2.594c-1.178,0.111-2.069,0.777-2.446,1.826
	c-0.749,2.094,0.595,5.268,3.688,8.709L25.376,16.507z"/>
<path fill="#F5F5F5" d="M15.843,15.196c-1.797-2.42-1.361-4.324-0.942-5.244c0.656-1.441,2.11-2.381,3.706-2.4
	c0.016,0,0.03,0,0.046,0c1.709,0,3.184,1.035,4.055,2.846l-0.979,0.523c-0.682-1.42-1.813-2.221-3.11-2.213
	c-1.181,0.014-2.251,0.699-2.727,1.744c-0.535,1.17-0.244,2.602,0.815,4.031L15.843,15.196z"/>
<path fill="#F5F5F5" d="M38.624,16.507l-0.795-0.797c3.092-3.441,4.436-6.615,3.686-8.709c-0.375-1.049-1.268-1.715-2.445-1.826
	c-1.67-0.16-3.389,0.859-4.377,2.594l-0.941-0.594c1.205-2.115,3.332-3.352,5.418-3.154c1.588,0.152,2.85,1.113,3.373,2.572
	C43.071,8.077,43.271,11.337,38.624,16.507z"/>
<path fill="#F5F5F5" d="M48.155,15.196l-0.863-0.713c1.063-1.43,1.352-2.861,0.818-4.031c-0.477-1.045-1.547-1.73-2.729-1.744
	c-0.01,0-0.021,0-0.033,0c-1.281,0-2.402,0.805-3.076,2.213l-0.98-0.523c0.871-1.811,2.346-2.846,4.055-2.846
	c0.018,0,0.031,0,0.047,0c1.596,0.02,3.049,0.959,3.705,2.4C49.519,10.872,49.954,12.776,48.155,15.196z"/>
<path fill="#F5F5F5" d="M53.831,13.382l-1.082-0.201c0.053-0.313-0.188-0.842-0.746-1.25c-0.309-0.227-1.426-0.896-2.816-0.033
	l-0.557-0.996c1.318-0.818,2.813-0.789,4,0.078C53.495,11.614,53.968,12.556,53.831,13.382z"/>
<path fill="#F5F5F5" d="M29.341,15.591L29.341,15.591c-1.463,0-3.037-1.07-3.037-3.416c0-2.762,1.916-4.346,3.453-5.615
	c0.871-0.723,1.693-1.402,1.693-1.979c0-0.322,0.246-0.578,0.549-0.578c0.305,0,0.551,0.256,0.551,0.578
	c0,0.576,0.822,1.256,1.693,1.979c1.539,1.27,3.453,2.854,3.453,5.615c0,2.348-1.574,3.416-3.037,3.416
	c-1,0-2.041-0.504-2.656-1.463c-0.15,0.234-0.314,0.424-0.469,0.574C30.952,15.267,30.153,15.591,29.341,15.591z M32.55,12.126
	c0,1.514,1.061,2.309,2.109,2.309c0.895,0,1.939-0.592,1.939-2.26c0-2.199-1.609-3.531-3.031-4.705
	c-0.609-0.506-1.176-0.975-1.568-1.473c-0.391,0.498-0.955,0.967-1.566,1.473c-1.42,1.174-3.031,2.506-3.031,4.705
	c0,1.668,1.045,2.26,1.939,2.26l0,0c0.541,0,1.07-0.213,1.451-0.582c0.432-0.42,0.658-1.018,0.658-1.727
	c0-0.32,0.246-0.58,0.549-0.58C32.304,11.546,32.55,11.806,32.55,12.126z"/>
<ellipse fill="#F5F5F5" cx="29.936" cy="5.249" rx="0.95" ry="1"/>
<ellipse fill="#F5F5F5" cx="34.063" cy="5.249" rx="0.949" ry="1"/>
<ellipse fill="#F5F5F5" cx="20.493" cy="7.005" rx="0.95" ry="0.998"/>
<ellipse fill="#F5F5F5" cx="43.507" cy="7.005" rx="0.949" ry="0.998"/>
<ellipse fill="#F5F5F5" cx="14.186" cy="9.495" rx="0.95" ry="1"/>
<ellipse fill="#F5F5F5" cx="49.814" cy="9.495" rx="0.95" ry="1"/>
<path fill="#F5F5F5" d="M31.999,19.001c-6.391,0-15.701-0.34-22.712-3.275c-0.846-0.354,0.369-3.58,1.214-3.225
	c7.238,3.031,17.598,3.031,21.499,3.031s14.262,0,21.5-3.031c0.846-0.354,2.061,2.871,1.215,3.225
	C47.702,18.661,38.394,19.001,31.999,19.001z"/>
<ellipse fill="#1CCAFF" cx="32" cy="10.735" rx="1.868" ry="2.82"/>
<path fill="#00B9F2" d="M33.167,8.534c0.256,0.482,0.408,1.094,0.408,1.758c0,1.559-0.836,2.82-1.867,2.82
	c-0.443,0-0.848-0.232-1.168-0.619c0.342,0.646,0.867,1.063,1.459,1.063c1.033,0,1.869-1.264,1.869-2.82
	C33.868,9.845,33.593,9.052,33.167,8.534z"/>
<path fill-rule="evenodd" clip-rule="evenodd" fill="#73EFFF" d="M30.612,9.515c0.035,0.363,0.484-0.348,0.939-0.959
	C31.845,8.161,30.509,8.421,30.612,9.515z"/>
<path fill="#1CCAFF" d="M20.848,11.905c0.739,1.348,0.615,2.883-0.279,3.426s-2.218-0.111-2.957-1.459
	c-0.74-1.35-0.616-2.883,0.278-3.426S20.108,10.556,20.848,11.905z"/>
<path fill="#00B9F2" d="M19.195,10.368c0.45,0.283,0.873,0.732,1.188,1.309c0.74,1.348,0.616,2.881-0.277,3.424
	c-0.384,0.234-0.845,0.246-1.306,0.08c0.604,0.379,1.256,0.461,1.769,0.15c0.894-0.543,1.019-2.078,0.279-3.426
	C20.425,11.134,19.81,10.591,19.195,10.368z"/>
<path fill-rule="evenodd" clip-rule="evenodd" fill="#73EFFF" d="M17.448,12.562c0.203,0.297,0.254-0.557,0.359-1.324
	C17.874,10.741,16.839,11.669,17.448,12.562z"/>
<path fill="#1CCAFF" d="M46.388,13.872c-0.738,1.348-2.063,2.002-2.957,1.459c-0.895-0.545-1.018-2.078-0.279-3.426
	c0.74-1.35,2.064-2.002,2.959-1.459S47.128,12.522,46.388,13.872z"/>
<path fill="#00B9F2" d="M46.827,11.597c-0.008,0.553-0.166,1.162-0.482,1.736c-0.74,1.35-2.063,2.004-2.957,1.461
	c-0.383-0.234-0.625-0.648-0.719-1.15c-0.008,0.738,0.248,1.375,0.762,1.688c0.895,0.543,2.219-0.111,2.957-1.459
	C46.812,13.101,46.95,12.269,46.827,11.597z"/>
<path fill-rule="evenodd" clip-rule="evenodd" fill="#73EFFF" d="M44.149,11.101c-0.143,0.334,0.584-0.047,1.27-0.334
	C45.858,10.577,44.579,10.101,44.149,11.101z"/>
</svg>
