<?xml version="1.0" encoding="utf-8"?>
<!-- Generator: Adobe Illustrator 15.0.0, SVG Export Plug-In . SVG Version: 6.00 Build 0)  -->
<!DOCTYPE svg PUBLIC "-//W3C//DTD SVG 1.1//EN" "http://www.w3.org/Graphics/SVG/1.1/DTD/svg11.dtd">
<svg version="1.1" id="Layer_1" xmlns="http://www.w3.org/2000/svg" xmlns:xlink="http://www.w3.org/1999/xlink" x="0px" y="0px"
	 width="64px" height="64px" viewBox="0 0 64 64" enable-background="new 0 0 64 64" xml:space="preserve">
<path fill="#AA5BEF" d="M28.769,20.497c0.161,0.338-1.604,1.648-1.756,1.305c-2.959-6.666-8.556-9.496-8.556-9.496l1.061-1.061
	C19.518,11.245,25.388,13.429,28.769,20.497z"/>
<path fill="#AA5BEF" d="M19.346,14.146c2.667,0,2.667-4,0-4S16.679,14.146,19.346,14.146z"/>
<path fill-rule="evenodd" clip-rule="evenodd" fill="#C28FEF" d="M17.699,12.001c0.053,0.529,0.751-0.508,1.458-1.402
	C19.614,10.024,17.539,10.403,17.699,12.001z"/>
<path fill="#AA5BEF" d="M35.231,20.497c-0.162,0.338,1.604,1.648,1.756,1.305c2.958-6.666,8.556-9.496,8.556-9.496l-1.061-1.061
	C44.482,11.245,38.612,13.429,35.231,20.497z"/>
<path fill="#AA5BEF" d="M44.654,14.146c2.667,0,2.667-4,0-4S41.987,14.146,44.654,14.146z"/>
<path fill-rule="evenodd" clip-rule="evenodd" fill="#C28FEF" d="M43.008,12.001c0.053,0.529,0.751-0.508,1.458-1.402
	C44.923,10.024,42.848,10.403,43.008,12.001z"/>
<path fill="#8F3BD9" d="M32,44.76c12.217,0,17.325,5.216,15.356,14.24C52.896,49.551,47.787,35,32,35S11.104,49.551,16.645,59
	C14.674,49.976,19.783,44.76,32,44.76z"/>
<path fill="#8F3BD9" d="M32,44.67c20.923,0,29.673,6.348,26.299,17.33C67.786,50.498,59.037,32.789,32,32.789
	S-3.786,50.498,5.701,62C2.327,51.018,11.076,44.67,32,44.67z"/>
<path fill="#AA5BEF" d="M31.999,37.67c26.257,0,29.673,13.35,26.3,24.33c9.486-11.502,0.738-29.211-26.3-29.211
	C4.962,32.789-3.786,50.498,5.7,62C2.326,51.02,5.743,37.67,31.999,37.67z"/>
<path fill-rule="evenodd" clip-rule="evenodd" fill="#C28FEF" d="M14.234,38.354c1.57,0.018-3.837-0.621-10.13,9.224
	C1.749,51.262,5.886,38.25,14.234,38.354z"/>
<path fill="#8F3BD9" d="M59.598,2c-15.077,6.661-3.952,13.953-6.745,35.728C70.229,24.577,50.354,11.702,59.598,2z"/>
<path fill="#AA5BEF" d="M59.598,2c-12.483,10.244,3.048,15.453-6.745,35.728C74.687,21.497,49.187,14.994,59.598,2z"/>
<path fill="#8F3BD9" d="M4.403,2c15.077,6.661,3.952,13.953,6.745,35.728C-6.228,24.577,13.646,11.702,4.403,2z"/>
<path fill="#AA5BEF" d="M4.403,2c12.482,10.244-3.048,15.453,6.745,35.728C-10.686,21.497,14.813,14.994,4.403,2z"/>
<path fill="#AA5BEF" d="M32,49.559c-30.666,0-30.666-32,0-32C62.667,17.559,62.667,49.559,32,49.559z"/>
<path fill-rule="evenodd" clip-rule="evenodd" fill="#C28FEF" d="M27.042,19.002c1.336-0.398-12.378,0.139-16.354,10.716
	C8.261,36.172,13.214,23.12,27.042,19.002z"/>
<path fill="#302C3B" d="M20.001,38.954c6.665,0,6.665-11.728,0-11.728C13.333,27.227,13.333,38.954,20.001,38.954z"/>
<path fill-rule="evenodd" clip-rule="evenodd" fill="#4E5E67" d="M15.885,32.668c0.133,1.555,1.878-1.49,3.646-4.107
	C20.672,26.877,15.485,27.985,15.885,32.668z"/>
<path fill="#302C3B" d="M45.001,38.954c6.665,0,6.665-11.728,0-11.728C38.333,27.227,38.333,38.954,45.001,38.954z"/>
<path fill-rule="evenodd" clip-rule="evenodd" fill="#4E5E67" d="M40.885,32.668c0.132,1.555,1.877-1.49,3.646-4.107
	C45.67,26.877,40.485,27.985,40.885,32.668z"/>
<path fill="#302C3B" d="M38,44.818c-1.957-4.446-10.036-4.489-12,0H38z"/>
</svg>
