<?xml version="1.0" encoding="utf-8"?>
<!-- Generator: Adobe Illustrator 15.0.0, SVG Export Plug-In . SVG Version: 6.00 Build 0)  -->
<!DOCTYPE svg PUBLIC "-//W3C//DTD SVG 1.1//EN" "http://www.w3.org/Graphics/SVG/1.1/DTD/svg11.dtd">
<svg version="1.1" id="Layer_1" xmlns="http://www.w3.org/2000/svg" xmlns:xlink="http://www.w3.org/1999/xlink" x="0px" y="0px"
	 width="64px" height="64px" viewBox="0 0 64 64" enable-background="new 0 0 64 64" xml:space="preserve">
<path fill="#006DAE" d="M11.434,51.001c2.5-1.623,12.877-5.906,12.877-5.906H39.77c0,0,10.367,4.275,12.854,5.902
	C56.238,53.358,57,62.001,57,62.001H7C7,62.001,7.807,53.351,11.434,51.001z"/>
<path fill="#302C3B" d="M10.974,51.345c0.534-0.668,8.489-4.342,10.974-5.258c2.795,9.965,7.566,15.914,7.566,15.914H10.367
	L10.974,51.345z"/>
<path fill="#F59E01" d="M11.434,51.001c0.193-0.389,9.621-4.93,10.176-4.77c2.446,9.758,7.07,15.77,7.07,15.77H11.159L11.434,51.001
	z"/>
<path fill="#FFE12C" d="M14.203,49.472c2.25-1.256,4.289-2.039,4.289-2.039l1.417,14.568h-5.333L14.203,49.472z"/>
<path fill="#302C3B" d="M53.025,51.345c-0.535-0.668-8.488-4.342-10.975-5.258c-2.795,9.965-7.564,15.914-7.564,15.914h19.145
	L53.025,51.345z"/>
<path fill="#F59E01" d="M52.566,51.001c-0.193-0.389-9.621-4.93-10.176-4.77c-2.447,9.758-7.072,15.77-7.072,15.77H52.84
	L52.566,51.001z"/>
<path fill="#FFE12C" d="M49.797,49.472c-2.25-1.256-4.289-2.039-4.289-2.039L44.09,62.001h5.334L49.797,49.472z"/>
<path fill="#DBA97F" d="M24,46.987c0,6.58,16,6.58,16,0c0-4.014,0-10.648,0-10.648H24C24,36.339,24,41.806,24,46.987z"/>
<path fill="#594640" d="M32,5.777c-17.54,0-17.544,10.555-17.544,23.75h35.087C49.543,16.332,49.539,5.777,32,5.777z"/>
<path fill="#F2C198" d="M17.939,34.659c1.9-1.77,0.175-8.71-2.275-9.128C10.428,24.639,13.839,38.475,17.939,34.659z"/>
<path fill="#F2C198" d="M46.061,34.659c-1.9-1.77-0.176-8.71,2.275-9.128C53.57,24.639,50.161,38.474,46.061,34.659z"/>
<path fill="#FCD5B2" d="M47.834,26.169c0-14.547-6.219-9.8-15.834-9.8c-9.614,0-15.833-4.747-15.833,9.8
	c0,0,0.034,4.112,1.059,9.515C18.583,42.833,26.193,48.001,32,48.001s13.419-5.168,14.773-12.317
	C47.799,30.279,47.834,26.169,47.834,26.169z"/>
<path fill="#CC9D76" d="M32,38.388c-2.836-0.753-7.038,0.355-7.038,0.355c1.601,1.568,2.774,3.604,7.038,3.604
	c4.887,0,5.714-2.311,7.037-3.604C39.037,38.743,34.83,37.632,32,38.388z"/>
<path fill="#FFFFFF" d="M25.953,38.8c3.012,2.799,9.1,2.818,12.131,0C34.871,38.952,29.188,38.954,25.953,38.8z"/>
<path fill="#F5F5F5" d="M45.018,27.256c-1.694,4.413-8.588,3.766-9.852,0.68C36.125,22.974,44.086,22.548,45.018,27.256z"/>
<path fill="#45332C" d="M36.926,26.784c0,3.894,5.629,3.894,5.629,0C42.555,23.171,36.926,23.171,36.926,26.784z"/>
<path fill="#45332C" d="M45.018,27.223c0-4.739-9.852-4.739-9.852,0.75C36.574,23.469,43.611,23.469,45.018,27.223z"/>
<path fill="#F5F5F5" d="M18.981,27.256c1.695,4.413,8.589,3.766,9.851,0.68C27.873,22.974,19.914,22.548,18.981,27.256z"/>
<path fill="#45332C" d="M27.074,26.784c0,3.894-5.63,3.894-5.63,0C21.444,23.171,27.074,23.171,27.074,26.784z"/>
<path fill="#45332C" d="M18.981,27.223c0-4.737,9.851-4.737,9.851,0.749C27.427,23.469,20.388,23.469,18.981,27.223z"/>
<path fill="#F5F5F5" d="M37.271,25.839c0,0.973,1.408,0.973,1.408,0C38.68,24.936,37.271,24.936,37.271,25.839z"/>
<path fill="#F5F5F5" d="M23.374,25.641c0,0.974-1.407,0.974-1.407,0C21.966,24.738,23.374,24.738,23.374,25.641z"/>
<path fill="#DBA97F" d="M35.518,34.009c0,2.29-7.037,2.29-7.037,0C28.48,33.483,35.518,33.483,35.518,34.009z"/>
<path fill="#FFE12C" d="M51.32,21.951h-38.64c0-9.869,4.833-17.539,19.319-17.539S51.32,12.082,51.32,21.951z"/>
<path fill="#F9B700" d="M40.26,17.58V5.48l-8.258-2.336l-8.26,2.336v12.1c-7.757,0.961-13.209,3.234-13.209,5.887h42.934
	C53.467,20.814,48.016,18.541,40.26,17.58z"/>
<path fill="#FFE12C" d="M38.828,19.668H25.174V5.133c0-4.178,13.654-4.178,13.654,0V19.668z"/>
<rect x="14.5" y="23.467" opacity="0.2" width="35" height="0.766"/>
</svg>
