<?xml version="1.0" encoding="utf-8"?>
<!-- Generator: Adobe Illustrator 15.0.0, SVG Export Plug-In . SVG Version: 6.00 Build 0)  -->
<!DOCTYPE svg PUBLIC "-//W3C//DTD SVG 1.1//EN" "http://www.w3.org/Graphics/SVG/1.1/DTD/svg11.dtd">
<svg version="1.1" id="Layer_1" xmlns="http://www.w3.org/2000/svg" xmlns:xlink="http://www.w3.org/1999/xlink" x="0px" y="0px"
	 width="64px" height="64px" viewBox="0 0 64 64" enable-background="new 0 0 64 64" xml:space="preserve">
<path fill="#EA8800" d="M32,6C8.377,6,8.377,20,8.377,37.5h47.246C55.623,20,55.623,6,32,6z"/>
<path fill="#F5BC2C" d="M13.038,44.009c2.563-2.387,0.237-11.746-3.068-12.31C2.909,30.496,7.508,49.155,13.038,44.009z"/>
<path fill="#F5BC2C" d="M50.963,44.009c-2.563-2.387-0.237-11.746,3.067-12.31C61.091,30.496,56.493,49.153,50.963,44.009z"/>
<path fill="#FDCA47" d="M53.354,32.559c0-19.618-8.386-13.214-21.353-13.214c-12.965,0-21.353-6.404-21.353,13.214
	c0,0,0.047,5.547,1.429,12.832C13.906,55.03,24.17,62,32,62c7.831,0,18.098-6.97,19.925-16.609
	C53.308,38.103,53.354,32.559,53.354,32.559z"/>
<path fill="#D99025" d="M32,49.037c-3.823-1.016-9.49,0.479-9.49,0.479c2.159,2.115,3.741,4.86,9.49,4.86
	c6.59,0,7.706-3.117,9.49-4.86C41.49,49.517,35.817,48.02,32,49.037z"/>
<path fill="#FFFFFF" d="M23.846,49.593c4.062,3.775,12.272,3.8,16.36,0C35.872,49.799,28.208,49.8,23.846,49.593z"/>
<path fill="#F5F5F5" d="M49.557,34.024c-2.285,5.953-11.583,5.079-13.286,0.916C37.563,28.25,48.3,27.676,49.557,34.024z"/>
<path fill="#45332C" d="M38.644,33.39c0,5.251,7.592,5.251,7.592,0C46.235,28.516,38.644,28.516,38.644,33.39z"/>
<path fill="#45332C" d="M49.557,33.981c0-6.392-13.286-6.392-13.286,1.011C38.169,28.92,47.659,28.92,49.557,33.981z"/>
<path fill="#F5F5F5" d="M14.443,34.024c2.286,5.953,11.583,5.079,13.286,0.916C26.436,28.25,15.702,27.676,14.443,34.024z"/>
<path fill="#45332C" d="M25.357,33.39c0,5.251-7.592,5.251-7.592,0C17.765,28.518,25.357,28.518,25.357,33.39z"/>
<path fill="#45332C" d="M14.443,33.981c0-6.391,13.286-6.391,13.286,1.009C25.833,28.92,16.341,28.92,14.443,33.981z"/>
<path fill="#F5F5F5" d="M39.11,32.113c0,1.313,1.898,1.313,1.898,0C41.009,30.896,39.11,30.896,39.11,32.113z"/>
<path fill="#F5F5F5" d="M20.367,31.848c0,1.313-1.898,1.313-1.898,0C18.469,30.629,20.367,30.629,20.367,31.848z"/>
<path fill="#E6A400" d="M49.051,28.146c-4.078-1.681-9.66-2.009-12.525-0.889c-0.606,0.236-0.587,1.686-0.052,1.539
	c4.109-1.118,8.84-1.205,12.73,0.148C49.727,29.129,49.663,28.398,49.051,28.146z"/>
<path fill="#E6A400" d="M14.95,28.146c4.078-1.681,9.659-2.009,12.525-0.889c0.606,0.236,0.587,1.686,0.052,1.539
	c-4.109-1.118-8.84-1.206-12.73,0.148C14.273,29.129,14.337,28.398,14.95,28.146z"/>
<path fill="#E6A400" d="M36.745,43.132c0,3.088-9.49,3.088-9.49,0C27.255,42.423,36.745,42.423,36.745,43.132z"/>
<path fill="#E03636" d="M32,3.804c-11.058,4.56-11.999,15.712-11.999,15.712L32,21.782l11.999-2.267
	C43.999,19.516,43.058,8.363,32,3.804z"/>
<path fill="#006DAE" d="M32,3.804c10.058,5.861,11.999,15.712,11.999,15.712c7.342,2.2,11.647-1.196,11.647-1.196
	C55.646,15.999,47.095,3.804,32,3.804z"/>
<path fill="#006DAE" d="M8.354,18.319c0,0,4.306,3.396,11.647,1.196c0,0,1.942-9.851,11.999-15.712
	C16.905,3.804,8.354,15.999,8.354,18.319z"/>
<path fill="#302C3B" d="M55.646,18.319c0,0-8.222,1.432-23.646,1.432S8.354,18.319,8.354,18.319
	c-1.018,4.179,0.486,6.625,0.486,6.625s7.733,2.31,23.161,2.31c15.427,0,23.161-2.31,23.161-2.31S56.665,22.498,55.646,18.319z"/>
<ellipse fill="#FFE12C" cx="32" cy="23.646" rx="2.938" ry="2.705"/>
<path fill="#302C3B" d="M29.062,3.912c0,1.058,5.877,1.058,5.877,0C34.938,2.856,33.624,2,32.001,2
	C30.376,2,29.062,2.856,29.062,3.912z"/>
</svg>
