<?xml version="1.0" encoding="utf-8"?>
<!-- Generator: Adobe Illustrator 15.0.0, SVG Export Plug-In . SVG Version: 6.00 Build 0)  -->
<!DOCTYPE svg PUBLIC "-//W3C//DTD SVG 1.1//EN" "http://www.w3.org/Graphics/SVG/1.1/DTD/svg11.dtd">
<svg version="1.1" id="Layer_1" xmlns="http://www.w3.org/2000/svg" xmlns:xlink="http://www.w3.org/1999/xlink" x="0px" y="0px"
	 width="64px" height="64px" viewBox="0 0 64 64" enable-background="new 0 0 64 64" xml:space="preserve">
<path fill="#916B50" d="M2,49.922v-26.75l0.623-0.846c1.916-2.619,9.07-7.949,11.715-6.053l6.543,4.686
	C23.525,22.854,2,49.922,2,49.922z"/>
<path fill="#664935" d="M20.088,20.41l0.768,0.549c2.646,1.895-0.223,10.297-2.137,12.914L2,56.248v-7.125l15.002-20.305
	C18.164,27.229,19.672,23.512,20.088,20.41z"/>
<path fill="#E81C27" d="M18.197,30.793c-3.93,5.381-8.02,5.166-11.455,2.705c-3.438-2.461-4.925-6.24-0.997-11.621
	c3.933-5.381,11.411-9.811,14.851-7.35C24.031,16.99,22.127,25.414,18.197,30.793z"/>
<path fill="#F89987" d="M10.711,25.063c-3.52,4.82-3.425,6.531-4.57,5.711c-1.146-0.822-2.645-3.539,0.875-8.357
	c3.518-4.82,10.086-8.096,11.23-7.277C19.393,15.961,14.23,20.244,10.711,25.063z"/>
<path fill="#916B50" d="M17,62H2v-6.314l18.895-25.781c1.916-2.619,9.07-7.949,11.715-6.055l6.545,4.688C41.799,30.432,17,62,17,62z
	"/>
<path fill="#664935" d="M38.359,27.988l0.77,0.549c2.645,1.895-0.225,10.297-2.139,12.912L21.688,62h-5.063l18.648-25.604
	C36.436,34.807,37.943,31.088,38.359,27.988z"/>
<path fill="#E81C27" d="M36.469,38.371c-3.93,5.381-8.02,5.166-11.455,2.705c-3.438-2.463-4.926-6.242-0.998-11.621
	c3.934-5.381,11.412-9.813,14.852-7.35C42.303,24.566,40.398,32.99,36.469,38.371z"/>
<path fill="#F89987" d="M28.982,32.641c-3.52,4.82-3.426,6.531-4.57,5.709c-1.146-0.82-2.645-3.537,0.875-8.355
	c3.518-4.82,10.086-8.096,11.23-7.277C37.664,23.537,32.502,27.822,28.982,32.641z"/>
<path fill="#916B50" d="M41.252,62H21.25l13.035-17.703c1.916-2.619,9.072-7.949,11.717-6.053l6.543,4.686
	C55.189,44.824,41.252,62,41.252,62z"/>
<path fill="#664935" d="M51.752,42.381l0.768,0.549c2.646,1.895-0.223,10.297-2.137,12.914L45.719,62h-5.063l8.01-11.211
	C49.828,49.199,51.336,45.482,51.752,42.381z"/>
<path fill="#E81C27" d="M49.861,52.764c-3.93,5.381-8.02,5.166-11.455,2.705c-3.439-2.461-4.926-6.24-0.998-11.621
	c3.934-5.381,11.412-9.811,14.852-7.35C55.695,38.961,53.791,47.385,49.861,52.764z"/>
<path fill="#F89987" d="M42.375,47.033c-3.52,4.82-3.426,6.531-4.572,5.711c-1.146-0.822-2.645-3.539,0.877-8.357
	c3.518-4.82,10.086-8.096,11.23-7.277C51.057,37.932,45.895,42.215,42.375,47.033z"/>
<polygon fill="#6E8189" points="54.188,10.947 49.813,29.654 52.834,30.801 59.396,10.947 "/>
<polygon fill="#4E5E67" points="56.293,13.426 51.072,30.131 52.834,30.801 59.396,10.947 "/>
<path fill="#B00505" d="M49.813,29.654c-5.363,2.709-1.979,9.375-7.188,11.354c-5.209,1.98,12.605,1.771,10.209-10.207
	L49.813,29.654z"/>
<path fill="#E81C27" d="M49.813,29.654c-5.363,2.709-1.979,9.375-7.188,11.354c-5.209,1.98,10.844,1.102,8.447-10.877L49.813,29.654
	z"/>
<path fill="#E81C27" d="M62,2H50.959l-1.146,7.238c0,0,3.959,6.615,12.188,3.412V2z"/>
<path fill="#B00505" d="M62,2l-4.469,11.525c0,0,2.234,0.16,4.469-0.875V2z"/>
</svg>
