<?xml version="1.0" encoding="utf-8"?>
<!-- Generator: Adobe Illustrator 15.0.0, SVG Export Plug-In . SVG Version: 6.00 Build 0)  -->
<!DOCTYPE svg PUBLIC "-//W3C//DTD SVG 1.1//EN" "http://www.w3.org/Graphics/SVG/1.1/DTD/svg11.dtd">
<svg version="1.1" id="Layer_1" xmlns="http://www.w3.org/2000/svg" xmlns:xlink="http://www.w3.org/1999/xlink" x="0px" y="0px"
	 width="64px" height="64px" viewBox="0 0 64 64" enable-background="new 0 0 64 64" xml:space="preserve">
<path fill="#BEC3CF" d="M53.47,28.709C54.266,30.629,61.017,39,61.017,39l-5.841-11.195L53.47,28.709z"/>
<path fill="#875B49" d="M50.519,24.563c0,0-8.529,24.688,10.526-0.553C61.045,24.01,52.323,28.604,50.519,24.563z"/>
<path fill="#875B49" d="M36.124,5.68C30.399-1.797,2,1.199,2,23.248C2.119,35.094,4.019,62,24.817,62
	c20.796,0,23.18-26.77,23.418-38.729C48.235,15.926,43.595,7.221,36.124,5.68z"/>
<path fill="#6B4435" d="M2.329,30.484C3.353,43.555,7.613,62,24.836,62c17.278,0,32.952-14,36.209-37.99
	C43.569,39.437,44.919,19,35.792,7.366C20.265,17.655,3.495,16.053,2.329,30.484z"/>
<rect x="16.789" y="42" fill="#946346" width="15.746" height="18"/>
<path fill="#8E3ED6" d="M32.535,48c0,0-2.333,7.75-7.874,7.752c-5.539,0.002-7.872-7.74-7.872-7.74
	C4.964,48.313,2.956,53.861,2.956,62h43.355C46.312,53.861,44.355,48.301,32.535,48z"/>
<path fill="#B07E61" d="M38.854,34.273c-2.16-2.01-0.199-9.9,2.588-10.375C47.393,22.883,43.516,38.611,38.854,34.273z"/>
<path fill="#B88A6F" d="M41.028,22.439c-2.447-5.864-6.936-12.226-6.936-12.226C17.671,20.24,3.788,15.208,7.644,34.212
	c1.83,9.017,12.807,16.001,17.134,16.001c4.318,0,15.574-6.931,17.125-16.001C42.8,28.957,42.168,25.171,41.028,22.439z"/>
<path fill="#F5F5F5" d="M39.788,26.36c-1.955,5.174-9.906,4.414-11.363,0.797C29.532,21.342,38.714,20.845,39.788,26.36z"/>
<path fill="#45332C" d="M30.455,25.81c0,4.563,6.492,4.563,6.492,0C36.947,21.574,30.455,21.574,30.455,25.81z"/>
<path fill="#45332C" d="M39.788,26.323c0-5.555-11.363-5.555-11.363,0.879C30.049,21.924,38.164,21.924,39.788,26.323z"/>
<path fill="#F5F5F5" d="M9.758,26.36c1.955,5.174,9.908,4.414,11.363,0.797C20.017,21.342,10.835,20.845,9.758,26.36z"/>
<path fill="#45332C" d="M19.092,25.81c0,4.563-6.493,4.563-6.493,0C12.599,21.574,19.092,21.574,19.092,25.81z"/>
<path fill="#45332C" d="M9.758,26.323c0-5.553,11.363-5.553,11.363,0.877C19.499,21.924,11.382,21.924,9.758,26.323z"/>
<path fill="#F5F5F5" d="M30.854,24.7c0,1.142,1.624,1.142,1.624,0C32.479,23.643,30.854,23.643,30.854,24.7z"/>
<path fill="#F5F5F5" d="M14.825,24.469c0,1.14-1.623,1.14-1.623,0C13.202,23.41,14.825,23.41,14.825,24.469z"/>
<path fill="#80553C" d="M32.888,39.628c-1.525,1.755-2.479,4.861-8.114,4.861c-4.917,0-6.27-2.736-8.117-4.861H32.888z"/>
<path fill="#FFFFFF" d="M31.875,39.682c-3.341,3.476-10.821,3.523-14.204,0H31.875z"/>
<path fill="#80553C" d="M24.773,39.348c-3.18-1.417-3.204-0.057-8.117,0.28c6.202,0.706,10.031,0.706,16.231,0
	C27.979,39.291,27.952,37.931,24.773,39.348z"/>
<path fill="#946346" d="M39.099,21.375c-3.441-1.44-8.152-1.722-10.57-0.76c-0.509,0.203-0.493,1.443-0.044,1.319
	c3.468-0.959,7.46-1.034,10.744,0.126C39.669,22.219,39.615,21.593,39.099,21.375z"/>
<path fill="#946346" d="M10.323,21.378c3.44-1.441,8.149-1.723,10.569-0.763c0.511,0.203,0.494,1.445,0.042,1.319
	c-3.467-0.959-7.457-1.034-10.74,0.128C9.753,22.219,9.807,21.593,10.323,21.378z"/>
<path fill="#946346" d="M28.831,34.635c0,2.647-8.008,2.647-8.008,0C20.823,34.026,28.831,34.026,28.831,34.635z"/>
<path fill="#BEC3CF" d="M50.623,24.746c0.796,1.922,3.808,1.443,3.808,1.443l-5.897-10.006c0,0-1.977-1.396-3.915-7.393
	c-0.018-0.047-0.3-0.756-0.453-1.016c-1.42-2.385-4.571-3.088-7.034-1.568c-2.464,1.52-3.313,4.684-1.894,7.07
	c1.415,2.385,4.565,3.086,7.03,1.568c0.692-0.428,1.253-0.988,1.676-1.619c0.562,0.383,1.363,3.588,1.363,3.588L50.623,24.746z
	 M41.028,12.76c-1.275,0.785-2.903,0.422-3.638-0.811c-0.734-1.234-0.296-2.871,0.979-3.656c1.275-0.787,2.907-0.424,3.638,0.811
	C42.743,10.336,42.302,11.975,41.028,12.76z"/>
<path fill="#CFD8DD" d="M61.82,8.67c0.742-2.762-0.884-5.496-3.631-6.107c-2.747-0.613-5.574,1.127-6.315,3.889
	c-0.079,0.301-0.169,1.076-0.171,1.125c-0.312,6.387-1.524,8.436-1.524,8.436c-1.538-0.75-4.265,1.182-2.491,3.885
	c0.984,1.5-1.699,9.246-0.773,21.871l6.197-26.295c0,0-0.058-3.33,0.375-3.891c0.568,0.461,1.249,0.805,2.019,0.979
	C58.255,13.17,61.08,11.43,61.82,8.67z M59.421,8.135c-0.384,1.428-1.848,2.328-3.267,2.01c-1.421-0.314-2.263-1.73-1.878-3.158
	c0.383-1.428,1.846-2.328,3.268-2.014C58.964,5.291,59.804,6.707,59.421,8.135z"/>
<path fill="#302C3B" d="M50.923,18.676c0.193-0.73-0.236-1.457-0.964-1.617c-0.729-0.162-1.478,0.299-1.677,1.029
	c-0.194,0.732,0.232,1.457,0.964,1.619C49.973,19.871,50.723,19.408,50.923,18.676z"/>
</svg>
