<?xml version="1.0" encoding="utf-8"?>
<!-- Generator: Adobe Illustrator 15.0.0, SVG Export Plug-In . SVG Version: 6.00 Build 0)  -->
<!DOCTYPE svg PUBLIC "-//W3C//DTD SVG 1.1//EN" "http://www.w3.org/Graphics/SVG/1.1/DTD/svg11.dtd">
<svg version="1.1" id="Layer_1" xmlns="http://www.w3.org/2000/svg" xmlns:xlink="http://www.w3.org/1999/xlink" x="0px" y="0px"
	 width="64px" height="64px" viewBox="0 0 64 64" enable-background="new 0 0 64 64" xml:space="preserve">
<polygon fill="#0FB4D4" points="41,4 23,4 2,20.057 32,60 62,20.057 "/>
<polygon fill="#75D6FF" points="32,60 44.48,20.057 18.77,20.057 "/>
<polygon fill="#75D6FF" points="9.5,9.454 2,20.057 18.77,20.057 23,4 "/>
<polygon fill="#75D6FF" points="54.5,9.454 41,4 44.48,20.057 62,20.057 "/>
<path fill="#FFFFFF" d="M20.022,6.504c0,7.153-3.865,13.552-9.317,13.552c5.452,0,9.317,6.399,9.317,13.553
	c0-7.153,3.865-13.553,9.317-13.553C23.888,20.057,20.022,13.657,20.022,6.504z"/>
<path fill="#FFFFFF" d="M39.195,30.275c0,4.731-2.557,8.964-6.162,8.964c3.605,0,6.162,4.232,6.162,8.964
	c0-4.731,2.557-8.964,6.162-8.964C41.752,39.239,39.195,35.007,39.195,30.275z"/>
</svg>
