<?xml version="1.0" encoding="utf-8"?>
<!-- Generator: Adobe Illustrator 15.0.0, SVG Export Plug-In . SVG Version: 6.00 Build 0)  -->
<!DOCTYPE svg PUBLIC "-//W3C//DTD SVG 1.1//EN" "http://www.w3.org/Graphics/SVG/1.1/DTD/svg11.dtd">
<svg version="1.1" id="Layer_1" xmlns="http://www.w3.org/2000/svg" xmlns:xlink="http://www.w3.org/1999/xlink" x="0px" y="0px"
	 width="64px" height="64px" viewBox="0 0 64 64" enable-background="new 0 0 64 64" xml:space="preserve">
<path fill="#E81C27" d="M17.192,55.209c1.8-1.004,9.271-3.648,9.271-3.648h11.132c0,0,7.465,2.641,9.254,3.645
	C49.453,56.662,50,62,50,62H14C14,62,14.581,56.66,17.192,55.209z"/>
<path fill="#302C3B" d="M39.707,52.162l0.67,2.049c0,0,5.711,2.27,7.057,2.865c1.336,0.594,0.795-1.316-0.256-2.004
	C46.785,54.811,42.031,52.803,39.707,52.162z"/>
<path fill="#FFE12C" d="M42.135,53.646c0.439,0.816-0.82,0.775-1.295-0.029C40.311,52.725,41.674,52.793,42.135,53.646z"/>
<path fill="#302C3B" d="M24.293,52.162l-0.671,2.049c0,0-5.71,2.27-7.057,2.865c-1.335,0.594-0.794-1.316,0.256-2.004
	C17.214,54.811,21.969,52.803,24.293,52.162z"/>
<path fill="#FFE12C" d="M21.866,53.646c-0.441,0.816,0.818,0.775,1.295-0.029C23.69,52.725,22.326,52.793,21.866,53.646z"/>
<path fill="#B00505" d="M18.304,62c0.384-1.344-0.066-3.391-0.545-4.516C17.313,56.436,17.481,61.26,18.304,62z"/>
<path fill="#B00505" d="M46.242,57.484c-0.48,1.125-0.93,3.172-0.547,4.516C46.518,61.26,46.686,56.436,46.242,57.484z"/>
<rect x="31.283" y="55.744" fill="#E6EBEF" width="0.717" height="6.256"/>
<path fill="#FFE12C" d="M35.012,59.883c0,1.199-1.799,1.199-1.799,0C33.213,58.682,35.012,58.682,35.012,59.883z"/>
<path fill="#E6A400" d="M26.125,54.098l5.158,2.318h1.432c0,0,5.379-0.852,5.379-6.881L26.125,46V54.098z"/>
<path fill="#302C3B" d="M25.452,51.697c0-0.652,0-1.881,0-2.697c0-0.205,0.828-0.191,0.828-0.191
	c-0.514,6.322,5.003,6.381,5.003,6.381v2.807C31.283,57.996,25.452,57.975,25.452,51.697z"/>
<path fill="#E6EBEF" d="M25.452,49c0-0.205,0.828-0.191,0.828-0.191c0,6.031,5.003,6.381,5.003,6.381v0.674
	C29.188,55.863,25.452,54.125,25.452,49z"/>
<path fill="#FFE12C" d="M29.793,56.859c-0.418,0.594-1.5-0.059-1.08-0.65C29.131,55.615,30.211,56.27,29.793,56.859z"/>
<path fill="#302C3B" d="M38.549,51.697c0-0.652,0-1.881,0-2.697c0-0.205-0.828-0.191-0.828-0.191
	c0.498,6.25-5.006,6.381-5.006,6.381v2.807C32.715,57.996,38.549,57.975,38.549,51.697z"/>
<path fill="#E6EBEF" d="M38.549,49c0-0.205-0.828-0.191-0.828-0.191c0,6.031-5.006,6.381-5.006,6.381v0.674
	C34.813,55.863,38.549,54.125,38.549,49z"/>
<path fill="#FFE12C" d="M34.207,56.859c0.418,0.594,1.5-0.059,1.08-0.65C34.869,55.615,33.789,56.27,34.207,56.859z"/>
<g>
	<g>
		<path fill="#F5BC2C" d="M20.899,43.468c1.5-1.396,0.139-6.877-1.796-7.207C14.969,35.558,17.663,46.479,20.899,43.468z"/>
	</g>
	<g>
		<path fill="#F5BC2C" d="M43.101,43.468c-1.501-1.396-0.139-6.877,1.796-7.207C49.029,35.558,46.338,46.479,43.101,43.468z"/>
	</g>
</g>
<path fill="#FDCA47" d="M44.5,36.765c0-11.485-4.908-7.736-12.5-7.736c-7.59,0-12.5-3.749-12.5,7.736c0,0,0.027,3.246,0.836,7.512
	C21.407,49.921,27.416,54,32,54s10.594-4.079,11.663-9.724C44.473,40.01,44.5,36.765,44.5,36.765z"/>
<g>
	<path fill="#F5F5F5" d="M42.277,37.622c-1.338,3.484-6.781,2.974-7.777,0.537C35.257,34.242,41.541,33.906,42.277,37.622z"/>
	<path fill="#45332C" d="M35.889,37.251c0,3.073,4.444,3.073,4.444,0C40.333,34.397,35.889,34.397,35.889,37.251z"/>
	<path fill="#45332C" d="M42.277,37.597c0-3.741-7.777-3.741-7.777,0.592C35.611,34.634,41.166,34.634,42.277,37.597z"/>
	<path fill="#F5F5F5" d="M21.722,37.622c1.338,3.484,6.781,2.974,7.778,0.537C28.742,34.242,22.458,33.906,21.722,37.622z"/>
	<path fill="#45332C" d="M28.11,37.251c0,3.073-4.444,3.073-4.444,0C23.666,34.397,28.11,34.397,28.11,37.251z"/>
	<path fill="#45332C" d="M21.722,37.597c0-3.74,7.778-3.74,7.778,0.592C28.39,34.634,22.833,34.634,21.722,37.597z"/>
	<path fill="#F5F5F5" d="M36.162,36.505c0,0.768,1.111,0.768,1.111,0C37.273,35.791,36.162,35.791,36.162,36.505z"/>
	<path fill="#F5F5F5" d="M25.189,36.348c0,0.769-1.111,0.769-1.111,0C24.079,35.635,25.189,35.635,25.189,36.348z"/>
</g>
<path fill="#E6A400" d="M34.777,42.954c0,1.808-5.556,1.808-5.556,0C29.222,42.54,34.777,42.54,34.777,42.954z"/>
<path fill="#E6A400" d="M36.5,47.387c-3.113,1.816-6.021,1.674-9,0C30.596,46.949,33.404,46.949,36.5,47.387z"/>
<path fill="#D99025" d="M32,46.793c-1.313-0.354-2.453,0.359-4.5,0.594c1.104,0.195,2.92,0.086,4.5,0.148
	c1.58-0.063,3.396,0.047,4.5-0.148C34.455,47.152,33.313,46.439,32,46.793z"/>
<path fill="#302C3B" d="M43.143,31.715v8.119c0,5.916-4.895,10.549-11.143,10.549c-6.248,0-11.143-4.633-11.143-10.549v-8.119H19
	v8.119c0,6.941,5.821,12.406,13,12.406c7.178,0,13-5.465,13-12.406v-8.119H43.143z"/>
<path fill="#302C3B" d="M48.713,33.898c0,5.996-5.576,2.018-7.426,1.529c-4.492-1.178-14.08-1.176-18.573,0
	c-1.848,0.488-7.428,4.467-7.428-1.529V11.369c0-12.492,33.427-12.492,33.427,0V33.898z"/>
</svg>
