<?xml version="1.0" encoding="utf-8"?>
<!-- Generator: Adobe Illustrator 15.0.0, SVG Export Plug-In . SVG Version: 6.00 Build 0)  -->
<!DOCTYPE svg PUBLIC "-//W3C//DTD SVG 1.1//EN" "http://www.w3.org/Graphics/SVG/1.1/DTD/svg11.dtd">
<svg version="1.1" id="Layer_1" xmlns="http://www.w3.org/2000/svg" xmlns:xlink="http://www.w3.org/1999/xlink" x="0px" y="0px"
	 width="64px" height="64px" viewBox="0 0 64 64" enable-background="new 0 0 64 64" xml:space="preserve">
<path fill="#FDCA47" d="M2,49.923v-26.75l0.623-0.846c1.916-2.619,9.07-7.949,11.715-6.054l6.544,4.687
	C23.526,22.854,2,49.923,2,49.923z"/>
<path fill="#CC9200" d="M20.088,20.411l0.769,0.549c2.646,1.895-0.224,10.297-2.137,12.913L2,56.248v-7.125l15.003-20.304
	C18.165,27.229,19.672,23.512,20.088,20.411z"/>
<path fill="#E81C27" d="M18.197,30.794c-3.93,5.381-8.02,5.166-11.455,2.705c-3.438-2.462-4.925-6.241-0.997-11.621
	c3.933-5.381,11.412-9.812,14.851-7.35C24.031,16.99,22.127,25.414,18.197,30.794z"/>
<path fill="#F89987" d="M10.711,25.063c-3.52,4.82-3.425,6.531-4.57,5.71c-1.146-0.821-2.645-3.538,0.875-8.356
	c3.518-4.82,10.086-8.096,11.23-7.277C19.393,15.961,14.23,20.245,10.711,25.063z"/>
<path fill="#FDCA47" d="M17,62H2v-6.314l18.895-25.781c1.916-2.619,9.07-7.949,11.715-6.054l6.544,4.687C41.798,30.432,17,62,17,62z
	"/>
<path fill="#CC9200" d="M38.359,27.988l0.769,0.549c2.646,1.895-0.224,10.297-2.137,12.913L21.688,62h-5.063l18.649-25.604
	C36.437,34.807,37.943,31.089,38.359,27.988z"/>
<path fill="#E81C27" d="M36.469,38.371c-3.93,5.381-8.02,5.166-11.455,2.705c-3.438-2.462-4.925-6.241-0.997-11.621
	c3.933-5.381,11.412-9.812,14.851-7.35C42.303,24.567,40.398,32.991,36.469,38.371z"/>
<path fill="#F89987" d="M28.982,32.641c-3.52,4.82-3.425,6.531-4.57,5.71c-1.146-0.821-2.645-3.538,0.875-8.356
	c3.518-4.82,10.086-8.096,11.23-7.277C37.664,23.538,32.502,27.822,28.982,32.641z"/>
<path fill="#FDCA47" d="M41.251,62H21.25l13.036-17.702c1.916-2.619,9.07-7.949,11.715-6.054l6.544,4.687
	C55.189,44.825,41.251,62,41.251,62z"/>
<path fill="#CC9200" d="M51.751,42.382l0.769,0.549c2.646,1.895-0.224,10.297-2.137,12.913L45.719,62h-5.063l8.01-11.21
	C49.828,49.2,51.335,45.482,51.751,42.382z"/>
<path fill="#E81C27" d="M49.86,52.765c-3.93,5.381-8.02,5.166-11.455,2.705c-3.438-2.462-4.925-6.241-0.997-11.621
	c3.933-5.381,11.412-9.812,14.851-7.35C55.694,38.961,53.79,47.385,49.86,52.765z"/>
<path fill="#F89987" d="M42.374,47.034c-3.52,4.82-3.425,6.531-4.57,5.71c-1.146-0.821-2.645-3.538,0.875-8.356
	c3.518-4.82,10.086-8.096,11.23-7.277C51.056,37.932,45.894,42.216,42.374,47.034z"/>
<polygon fill="#6E8189" points="54.188,10.947 49.813,29.654 52.833,30.801 59.396,10.947 "/>
<polygon fill="#4E5E67" points="56.293,13.426 51.071,30.132 52.833,30.801 59.396,10.947 "/>
<path fill="#B00505" d="M49.813,29.654c-5.364,2.709-1.979,9.375-7.188,11.354s12.604,1.771,10.208-10.208L49.813,29.654z"/>
<path fill="#E81C27" d="M49.813,29.654c-5.364,2.709-1.979,9.375-7.188,11.354s10.843,1.102,8.446-10.877L49.813,29.654z"/>
<path fill="#E81C27" d="M62,2H50.958l-1.146,7.238c0,0,3.958,6.616,12.188,3.412V2z"/>
<path fill="#B00505" d="M62,2l-4.469,11.525c0,0,2.234,0.16,4.469-0.875V2z"/>
</svg>
