<?xml version="1.0" encoding="utf-8"?>
<!-- Generator: Adobe Illustrator 15.0.0, SVG Export Plug-In . SVG Version: 6.00 Build 0)  -->
<!DOCTYPE svg PUBLIC "-//W3C//DTD SVG 1.1//EN" "http://www.w3.org/Graphics/SVG/1.1/DTD/svg11.dtd">
<svg version="1.1" id="Layer_1" xmlns="http://www.w3.org/2000/svg" xmlns:xlink="http://www.w3.org/1999/xlink" x="0px" y="0px"
	 width="64px" height="64px" viewBox="0 0 64 64" enable-background="new 0 0 64 64" xml:space="preserve">
<path fill="#CFD8DD" d="M32,62c-11.581,0-21-9.535-21-21.258s9.419-21.26,21-21.26s21,9.537,21,21.26S43.581,62,32,62z M32,23.813
	c-9.221,0-16.725,7.594-16.725,16.93c0,9.334,7.504,16.93,16.725,16.93s16.725-7.596,16.725-16.93
	C48.725,31.406,41.221,23.813,32,23.813z"/>
<path fill="#FFFFFF" d="M25.531,59.02c-1.85-0.621-3.596-1.559-5.204-2.695c-1.59-1.162-3.019-2.557-4.226-4.131
	c-2.418-3.152-3.801-7.094-3.95-11.082c-0.1-3.99,1.041-8.012,3.27-11.301c1.113-1.643,2.46-3.117,3.981-4.369
	c1.542-1.225,3.234-2.256,5.048-2.979c-3.437,1.83-6.383,4.506-8.383,7.764c-2.008,3.244-3.085,7.055-2.918,10.855
	c0.065,3.801,1.378,7.535,3.57,10.658C18.908,54.877,22,57.381,25.531,59.02z"/>
<path fill="#99A8AE" d="M39.572,22.463c1.813,0.723,3.506,1.756,5.047,2.98c1.521,1.25,2.868,2.725,3.981,4.367
	c2.23,3.287,3.367,7.316,3.271,11.295c-0.147,4-1.532,7.934-3.949,11.088c-1.207,1.574-2.636,2.969-4.226,4.133
	c-1.609,1.135-3.355,2.072-5.205,2.693c3.53-1.641,6.622-4.145,8.81-7.279c2.195-3.119,3.504-6.863,3.572-10.654
	c0.17-3.811-0.911-7.611-2.916-10.859C45.956,26.969,43.01,24.293,39.572,22.463z"/>
<polygon fill="#CFD8DD" points="25.531,15.098 32,21.646 38.469,15.098 "/>
<polygon fill="#99A8AE" points="34.15,15.098 32.705,19.482 34.032,19.58 38.46,15.098 "/>
<polygon fill="#A6F5FF" points="28.757,2 27.673,8.549 19.062,8.549 22.297,2 "/>
<polygon fill="#75D6FF" points="27.673,8.549 29.832,15.098 25.513,15.098 19.062,8.549 "/>
<polygon fill="#75D6FF" points="28.757,2 27.673,8.549 36.31,8.549 35.243,2 "/>
<polygon fill="#0FB4D4" points="35.243,2 36.31,8.549 44.938,8.549 41.703,2 "/>
<polygon fill="#0FB4D4" points="27.673,8.549 29.832,15.098 34.15,15.098 36.31,8.549 "/>
<polygon fill="#006DAE" points="36.31,8.549 34.15,15.098 38.469,15.098 44.938,8.549 "/>
</svg>
