<?xml version="1.0" encoding="utf-8"?>
<!-- Generator: Adobe Illustrator 15.0.0, SVG Export Plug-In . SVG Version: 6.00 Build 0)  -->
<!DOCTYPE svg PUBLIC "-//W3C//DTD SVG 1.1//EN" "http://www.w3.org/Graphics/SVG/1.1/DTD/svg11.dtd">
<svg version="1.1" id="Layer_1" xmlns="http://www.w3.org/2000/svg" xmlns:xlink="http://www.w3.org/1999/xlink" x="0px" y="0px"
	 width="64px" height="64px" viewBox="0 0 64 64" enable-background="new 0 0 64 64" xml:space="preserve">
<rect x="24" y="44.012" fill="#E6A400" width="16" height="16.189"/>
<path fill="#018BC9" d="M40,49.408c0,0-2.462,6.971-8.116,6.971C26.229,56.381,24,49.418,24,49.418C11.93,49.689,10,57.129,10,62h44
	C54,54.678,52.066,49.68,40,49.408z"/>
<path fill="#EA8800" d="M31.999,3.375c-19.901,0-19.904,12.062-19.904,27.141h39.811C51.905,15.437,51.9,3.375,31.999,3.375z"/>
<path fill="#F5BC2C" d="M16.046,36.379c2.155-2.021,0.198-9.952-2.581-10.43C7.523,24.93,11.394,40.74,16.046,36.379z"/>
<path fill="#F5BC2C" d="M47.954,36.379c-2.155-2.021-0.198-9.952,2.581-10.43C56.475,24.93,52.607,40.739,47.954,36.379z"/>
<path fill="#FDCA47" d="M32.001,11.417c-20.792,0-12.415,2.425-17.966,14.727c0,0,0.039,5.64,1.201,11.692
	c1.499,7.8,10.217,13.789,16.765,13.789s15.264-5.989,16.763-13.789c1.161-6.052,1.203-11.692,1.203-11.692
	C44.414,13.842,52.792,11.417,32.001,11.417z"/>
<path fill="#EA8800" d="M47.898,9.57c7.414,10.242-27.005,7.57-34.165,6.075C13.733,15.646,24.248,1.203,47.898,9.57z"/>
<path fill="#D67C00" d="M13.733,15.646c10.281,2.18,41.72,1.878,31.825-8.922C61.689,19.685,22.439,20.84,13.733,15.646z"/>
<path fill="#E6A400" d="M46.347,22.939c-3.432-1.424-8.129-1.703-10.541-0.752c-0.508,0.199-0.493,1.427-0.042,1.303
	c3.456-0.948,7.437-1.021,10.711,0.126C46.914,23.77,46.86,23.151,46.347,22.939z"/>
<path fill="#E6A400" d="M17.653,22.939c3.431-1.424,8.127-1.703,10.541-0.752c0.506,0.199,0.491,1.427,0.04,1.303
	c-3.456-0.948-7.437-1.021-10.707,0.126C17.086,23.77,17.14,23.151,17.653,22.939z"/>
<path fill="#E6A400" d="M35.991,35.636c0,2.616-7.984,2.616-7.984,0C28.007,35.036,35.991,35.036,35.991,35.636z"/>
<path fill="#45332C" d="M34.501,28.827c2.695,5.087,8.12,5.085,10.815,0c0.133-0.254-0.218-0.371-0.646-0.662
	c-2.702,2.124-7.072,1.927-9.523,0.002C34.72,28.457,34.371,28.573,34.501,28.827z"/>
<path fill="#45332C" d="M18.682,28.827c2.695,5.087,8.12,5.085,10.815,0c0.132-0.254-0.217-0.371-0.646-0.662
	c-2.7,2.124-7.071,1.927-9.522,0.002C18.899,28.457,18.55,28.573,18.682,28.827z"/>
<path opacity="0.3" d="M44.09,21.463c0.944-2.217,1.686-3.441,2.139-6.426c0.229-1.508,3.928-4.127,4.706-6.041
	c0.874-2.148,5.491,17.62,1.325,25.961c-2.293-1.145-2.232-14.668-2.232-14.668l-0.883,0.783c0,0-0.755,2.143-3.097,2.465
	C44.428,23.76,43.738,22.283,44.09,21.463z"/>
<path fill="#FDCA47" d="M45.09,19.463c0.944-2.217,1.686-3.441,2.139-6.426c0.229-1.508,3.928-4.127,4.706-6.041
	C52.809,4.848,53.012,2,53.012,2H61l-1.829,16.711c-0.316,3.209-1.787,6.139-3.131,6.918l0.138,5.879
	c0.216,3.137-3.93,3.41-4.145,0.271l-1.006-14.49l-0.883,0.783c0,0-0.755,3.143-3.097,3.465
	C45.428,21.76,44.738,20.283,45.09,19.463z"/>
<path fill="#E6A400" d="M55.462,20.369l0.675,4.639c3.698-2.697,3.778-15.26,4.372-18.516c0,0-0.786,8.768-1.011,12.029
	c-0.282,4.086-1.854,6.006-3.263,7.928c0.351,3.74,0.768,7.457-1.499,7.457C56.27,32.129,55.559,27.982,55.462,20.369z"/>
<path fill="#E6A400" d="M49.3,18.527c0,0,1.261-1.498,1.605-2.992l0.122,1.754c-0.353,0.541-0.657,0.9-0.657,0.9
	s-0.257,3.014-3.142,3.32C49.578,20.465,49.3,18.527,49.3,18.527z"/>
<path opacity="0.3" d="M19.91,21.463c-0.944-2.217-1.686-3.441-2.139-6.426c-0.229-1.508-3.928-4.127-4.706-6.041
	c-0.874-2.148-5.492,17.62-1.326,25.961c1.994-1.426,2.233-14.668,2.233-14.668l0.883,0.783c0,0,0.755,2.143,3.097,2.465
	C19.572,23.76,20.262,22.283,19.91,21.463z"/>
<path fill="#FDCA47" d="M18.91,19.463c-0.944-2.217-1.686-3.441-2.139-6.426c-0.229-1.508-3.928-4.127-4.706-6.041
	C11.191,4.848,10.988,2,10.988,2H3l1.829,16.711c0.316,3.209,1.787,6.139,3.131,6.918l-0.138,5.879
	c-0.216,3.137,3.93,3.41,4.145,0.271l1.006-14.49l0.883,0.783c0,0,0.755,3.143,3.097,3.465C18.572,21.76,19.262,20.283,18.91,19.463
	z"/>
<path fill="#E6A400" d="M8.538,20.369l-0.675,4.639C4.165,22.311,4.085,9.748,3.491,6.492c0,0,0.786,8.768,1.011,12.029
	c0.282,4.086,1.854,6.006,3.263,7.928c-0.351,3.74-0.768,7.457,1.499,7.457C7.73,32.129,8.441,27.982,8.538,20.369z"/>
<path fill="#E6A400" d="M14.7,18.527c0,0-1.261-1.498-1.605-2.992l-0.122,1.754c0.353,0.541,0.657,0.9,0.657,0.9
	s0.257,3.014,3.142,3.32C14.422,20.465,14.7,18.527,14.7,18.527z"/>
<path fill="#D99025" d="M32,40.447c-3.021-0.803-7.5,0.379-7.5,0.379c1.707,1.672,2.956,3.84,7.5,3.84c5.207,0,6.092-2.463,7.5-3.84
	C39.5,40.826,35.018,39.645,32,40.447z"/>
<path fill="#FFFFFF" d="M25.557,40.885c3.21,2.985,9.699,3.004,12.929,0C35.061,41.049,29.004,41.051,25.557,40.885z"/>
</svg>
