<?xml version="1.0" encoding="utf-8"?>
<!-- Generator: Adobe Illustrator 15.0.0, SVG Export Plug-In . SVG Version: 6.00 Build 0)  -->
<!DOCTYPE svg PUBLIC "-//W3C//DTD SVG 1.1//EN" "http://www.w3.org/Graphics/SVG/1.1/DTD/svg11.dtd">
<svg version="1.1" id="Layer_1" xmlns="http://www.w3.org/2000/svg" xmlns:xlink="http://www.w3.org/1999/xlink" x="0px" y="0px"
	 width="64px" height="64px" viewBox="0 0 64 64" enable-background="new 0 0 64 64" xml:space="preserve">
<path fill="#875B49" d="M22.761,9.331c-0.508,7.338-0.779,11.292-8.814,11.367c10.904,16.896,20.871,9.229,24.447-8.932
	c0.734-3.731-0.986-7.451-2.963-7.677C35.142,0.498,23.332,1.103,22.761,9.331z"/>
<path fill="#B00505" d="M6.237,34.184C2.628,41.818,8.026,42.104,8.39,46.55c0.496,6.104,8.987,0.044,10.553,4.243
	c2.279,6.11,8.586-3.601,13.896,1.928c4.005,4.169,4.242-6.335,11.681-3.899c7.852,2.571,0.973-8.031,7.938-6.171
	c4.738,1.266,9.877-6.6,3.707-12.724c-1.506,3.197-2.443,3.896-6.621,1.902C43.649,35.249,10.161,42.886,6.237,34.184z"/>
<path fill="#B88A6F" d="M32.665,35.219c-12.19-0.326-7.749,2.677-6.417,11.122c-4.25,2.784-4.186,3.955-7.588,7.753
	c-2.195,2.451-7.625,7.087-4.039,7.196c2.885,0.088,1.821-4.513,5.447-6.392c7.262-3.764,7.165-4.957,10.347-7.357
	C31.153,46.986,34.727,40.368,32.665,35.219z"/>
<path fill="#E03636" d="M18.269,53.931c-0.348,0.389,0.697,1.908,1.316,1.632C20.017,55.371,18.982,53.133,18.269,53.931z"/>
<path fill="#E03636" d="M36.771,58.323c0.287,0.554,1.359-0.967,1.359-0.967c0.934,5.931,2.84-2.421,1.631-3.049
	C36.13,54.272,38.587,55.597,36.771,58.323z"/>
<path fill="#B88A6F" d="M31.019,34.342c2.384,2.659,1.424,6.494,9.185,10.705c-3.381,4.277,0.52,6.477-1.137,9.953
	c-1.4,2.94-0.494,7.702,2.994,6.913c1.17-0.266-1.813,0.297-0.74-7.595c0.646-4.771,2.805-8.207,2.232-9.647
	C42.091,41.002,39.28,32.961,31.019,34.342z"/>
<path fill="#E03636" d="M38.817,53.931c0,0.747,2.906,1.325,2.867,0.507C41.663,53.983,38.817,53.538,38.817,53.931z"/>
<path fill="#E03636" d="M38.935,60.364c-0.828,0.9,1.1,1.596,1.135,1.306c0.111-0.931,0.844-1.256,1.492-1.362
	C42.003,59.371,39.206,60.069,38.935,60.364z"/>
<path fill="#E03636" d="M16.355,60.274c-0.088-0.802-1.797-1.998-2.717-0.462C14.087,56.672,18.08,58.497,16.355,60.274z"/>
<path fill="#B88A6F" d="M40.712,6.374c-0.279-0.504,2.646-2.17,1.139-1.904c-1.635,0.288,2.965-1.963,1.746-1.977
	c-1.012-0.012-5.873,2.195-4.967,3.706c1.967,3.282,1.977,5.335,2.365,7.445c-4.463,1.828-4.008,0.951-7.703,2.402
	c0,0-4.23-3.771-3.849,1.49c0.031,0.457-1.066,0.874-1.066,0.874s-1.328,0-2.809,1.267c-1.119,0.96-4.117,1.961-5.5,2.671
	c-1.123,0.578-5.469,2.792-8.088,5.438c-0.662,0.667-4.475-1.411-2.627,0.148c1.412,1.192-3.938-1.483-2.598-0.146
	c2.102,2.102,5.297,2.714,6.098,1.763c2.297-2.726,4.84-2.018,8.159-4.472c4.627-1.563,5.5-2.696,6.963-2.704
	c1.324,2.279,9.55,1.819,8.677-3.771c0.254-1.002,4.344-1.722,6.973-3.133C44.366,15.074,43.655,11.709,40.712,6.374z"/>
<path fill="#E03636" d="M27.974,22.376c1.408,2.769,1.408,6.975-0.107,7.521c-3.656,1.316-11.689,9.968-21.629,4.287
	c-2.914,8.252,4.453,3.883,5.951,9.538c1.893,7.148,5-2.957,10.827,0.257c6.006,3.313,5.758-5.546,13.183-3.858
	c7.529,1.709,3.922-5.805,8.707-2.046c3.58,2.813,7.234-3.224,4.639-6.245c-6.711,2.354-15.088,1.422-13.393-2.099
	c1.605-3.33,0.625-5.174,1.184-5.459c1.432-0.733,3.357-2.75-0.143-5.313c-0.721-0.528-1.328-3.062-3.586-3.64
	c-1.49,0.657,2.053,0.483,2.053,3.796c-0.799,1.969-2.354,1.51-3.824,0.641c-2.857-1.69-2.9-1.93-3.5-1.548
	c-0.188,0.492,2.604,2.157,2.139,4.001C29.339,23.803,27.974,22.376,27.974,22.376z"/>
<path fill="#B07E61" d="M25.955,12.323c0.691-0.644,0.064-3.164-0.826-3.315C23.226,8.683,24.466,13.709,25.955,12.323z"/>
<path fill="#B07E61" d="M36.169,12.323c-0.691-0.644-0.063-3.163,0.826-3.316C38.896,8.684,37.657,13.709,36.169,12.323z"/>
<path fill="#B88A6F" d="M36.813,9.073C34.86,7.55,34.86,5.436,34.86,5.436c-4.607,2.53-9.535,3.646-9.535,3.646s0,1.933,0.371,3.896
	c0.363,1.915,3.387,4.474,5.365,4.475c1.98,0,5.003-2.559,5.365-4.475C36.8,11.015,36.813,9.073,36.813,9.073z"/>
<path fill="#F5F5F5" d="M35.739,10.467c-0.604,1.572-3.064,1.343-3.513,0.242C32.568,8.939,35.407,8.787,35.739,10.467z"/>
<path fill="#45332C" d="M32.853,10.298c0,1.39,2.007,1.39,2.007-0.001C34.86,9.009,32.853,9.009,32.853,10.298z"/>
<path fill="#45332C" d="M35.739,10.455c0-1.69-3.513-1.69-3.513,0.267C32.728,9.116,35.237,9.115,35.739,10.455z"/>
<path fill="#F5F5F5" d="M26.453,10.467c0.605,1.573,3.066,1.343,3.516,0.242C29.625,8.939,26.787,8.786,26.453,10.467z"/>
<path fill="#45332C" d="M29.339,10.297c0,1.391-2.008,1.391-2.008,0.001C27.332,9.009,29.339,9.009,29.339,10.297z"/>
<path fill="#45332C" d="M26.453,10.455c0.002-1.69,3.516-1.69,3.516,0.267C29.464,9.115,26.955,9.116,26.453,10.455z"/>
<path fill="#80553C" d="M33.606,14.504c-0.473,0.533-0.767,1.48-2.511,1.479c-1.52,0-1.938-0.832-2.508-1.48L33.606,14.504z"/>
<path fill="#FFFFFF" d="M33.292,14.521c-1.033,1.058-3.345,1.073-4.392-0.001L33.292,14.521z"/>
<path fill="#80553C" d="M31.095,14.418c-0.982-0.433-0.99-0.017-2.508,0.086c1.918,0.215,3.102,0.214,5.019,0
	C32.087,14.402,32.08,13.985,31.095,14.418z"/>
<path fill="#946346" d="M35.526,8.949c-1.064-0.439-2.52-0.524-3.269-0.233c-0.156,0.064-0.152,0.44-0.012,0.403
	c1.07-0.293,2.304-0.315,3.322,0.038C35.702,9.206,35.687,9.014,35.526,8.949z"/>
<path fill="#946346" d="M26.628,8.949c1.064-0.439,2.52-0.524,3.268-0.232c0.158,0.063,0.154,0.439,0.014,0.402
	c-1.072-0.293-2.307-0.315-3.322,0.039C26.451,9.205,26.468,9.014,26.628,8.949z"/>
<path fill="#946346" d="M32.353,12.983c0,0.807-2.479,0.806-2.479,0C29.875,12.8,32.353,12.8,32.353,12.983z"/>
</svg>
