<?xml version="1.0" encoding="utf-8"?>
<!-- Generator: Adobe Illustrator 15.0.0, SVG Export Plug-In . SVG Version: 6.00 Build 0)  -->
<!DOCTYPE svg PUBLIC "-//W3C//DTD SVG 1.1//EN" "http://www.w3.org/Graphics/SVG/1.1/DTD/svg11.dtd">
<svg version="1.1" id="Layer_1" xmlns="http://www.w3.org/2000/svg" xmlns:xlink="http://www.w3.org/1999/xlink" x="0px" y="0px"
	 width="64px" height="64px" viewBox="0 0 64 64" enable-background="new 0 0 64 64" xml:space="preserve">
<path fill="#EA8800" d="M43.061,9.2C37.431,2.19,9.5,5,9.5,25.67C9.617,36.775,11.485,62,31.941,62
	C52.394,62,54.265,36.883,54.5,25.67C54.5,18.785,50.409,10.645,43.061,9.2z"/>
<path fill="#D67C00" d="M9.825,32.454C10.832,44.708,15.021,62,31.96,62c16.994,0,21.157-17.331,22.215-29.627
	c-0.556-5.661-3.991-12.973-11.439-21.592C27.465,20.427,10.971,18.925,9.825,32.454z"/>
<rect x="24" y="43" fill="#E6A400" width="16" height="18"/>
<path fill="#8E3ED6" d="M40,50c0,0.002-2.37,7.75-8.001,7.752C26.372,57.754,24,50.012,24,50.012C11.983,50.313,8,53.861,8,62h48
	C56,53.861,52.013,50.301,40,50z"/>
<path fill="#FDCA47" d="M48.028,25.232c-2.396-5.651-6.793-11.782-6.793-11.782c-16.082,9.664-29.677,4.814-25.901,23.128
	C17.126,45.27,27.876,52,32.113,52c4.229,0,15.252-6.682,16.771-15.422C49.763,31.514,49.146,27.865,48.028,25.232z"/>
<path fill="#E6A400" d="M46.138,24.207c-3.368-1.388-7.982-1.66-10.35-0.732c-0.5,0.196-0.484,1.391-0.045,1.271
	c3.396-0.923,7.306-0.997,10.521,0.122C46.696,25.02,46.645,24.417,46.138,24.207z"/>
<path fill="#E6A400" d="M17.958,24.21c3.369-1.39,7.981-1.661,10.351-0.735c0.501,0.196,0.484,1.394,0.043,1.271
	c-3.396-0.923-7.304-0.997-10.52,0.124C17.398,25.02,17.452,24.417,17.958,24.21z"/>
<path fill="#E6A400" d="M36.083,36.986c0,2.552-7.842,2.552-7.842,0C28.241,36.399,36.083,36.399,36.083,36.986z"/>
<path fill="#45332C" d="M34.507,30.25c2.698,5.093,8.13,5.091,10.829,0c0.133-0.255-0.218-0.372-0.646-0.663
	c-2.706,2.126-7.082,1.93-9.536,0.002C34.726,29.879,34.374,29.996,34.507,30.25z"/>
<path fill="#45332C" d="M18.664,30.25c2.699,5.093,8.133,5.091,10.831,0c0.133-0.255-0.219-0.372-0.646-0.663
	c-2.704,2.126-7.082,1.93-9.537,0.002C18.883,29.879,18.533,29.996,18.664,30.25z"/>
<path opacity="0.3" d="M19.91,21.463c-0.944-2.217-1.686-3.441-2.139-6.426c-0.229-1.508-3.928-4.127-4.706-6.041
	c-0.874-2.148-4.488,17.676-2.898,26.756c5.324-1.417,1.889-5.245,3.806-15.463l0.883,0.783c0,0,0.755,2.143,3.097,2.465
	C19.572,23.76,20.262,22.283,19.91,21.463z"/>
<path fill="#FDCA47" d="M18.91,19.463c-0.944-2.217-1.686-3.441-2.139-6.426c-0.229-1.508-3.928-4.127-4.706-6.041
	C11.191,4.848,10.988,2,10.988,2H3l1.829,16.711c0.316,3.209,1.787,6.139,3.131,6.918l-0.138,5.879
	c-0.216,3.137,3.93,3.41,4.145,0.271l1.006-14.49l0.883,0.783c0,0,0.755,3.143,3.097,3.465C18.572,21.76,19.262,20.283,18.91,19.463
	z"/>
<path fill="#E6A400" d="M8.538,20.369l-0.675,4.639C4.165,22.311,4.085,9.748,3.491,6.492c0,0,0.786,8.768,1.011,12.029
	c0.282,4.086,1.854,6.006,3.263,7.928c-0.351,3.74-0.768,7.457,1.499,7.457C7.73,32.129,8.441,27.982,8.538,20.369z"/>
<path fill="#E6A400" d="M14.7,18.527c0,0-1.261-1.498-1.605-2.992l-0.122,1.754c0.353,0.541,0.657,0.9,0.657,0.9
	s0.257,3.014,3.142,3.32C14.422,20.465,14.7,18.527,14.7,18.527z"/>
<path opacity="0.3" d="M44.09,21.463c0.944-2.217,1.686-3.441,2.139-6.426c0.229-1.508,3.928-4.127,4.706-6.041
	c0.874-2.148,4.488,17.676,2.898,26.756c-5.324-1.417-1.889-5.245-3.806-15.463l-0.883,0.783c0,0-0.755,2.143-3.097,2.465
	C44.428,23.76,43.738,22.283,44.09,21.463z"/>
<path fill="#FDCA47" d="M45.09,19.463c0.944-2.217,1.686-3.441,2.139-6.426c0.229-1.508,3.928-4.127,4.706-6.041
	C52.809,4.848,53.012,2,53.012,2H61l-1.829,16.711c-0.316,3.209-1.787,6.139-3.131,6.918l0.138,5.879
	c0.216,3.137-3.93,3.41-4.145,0.271l-1.006-14.49l-0.883,0.783c0,0-0.755,3.143-3.097,3.465
	C45.428,21.76,44.738,20.283,45.09,19.463z"/>
<path fill="#E6A400" d="M55.462,20.369l0.675,4.639c3.698-2.697,3.778-15.26,4.372-18.516c0,0-0.786,8.768-1.011,12.029
	c-0.282,4.086-1.854,6.006-3.263,7.928c0.351,3.74,0.768,7.457-1.499,7.457C56.27,32.129,55.559,27.982,55.462,20.369z"/>
<path fill="#E6A400" d="M49.3,18.527c0,0,1.261-1.498,1.605-2.992l0.122,1.754c-0.353,0.541-0.657,0.9-0.657,0.9
	s-0.257,3.014-3.142,3.32C49.578,20.465,49.3,18.527,49.3,18.527z"/>
<path fill="#D99025" d="M39.748,41.696c-1.457,1.648-2.369,4.566-7.748,4.566c-4.693,0-5.984-2.57-7.746-4.566H39.748z"/>
<path fill="#FFFFFF" d="M38.779,41.746c-3.188,3.266-10.327,3.311-13.559,0H38.779z"/>
<path fill="#D99025" d="M32.002,41.433c-3.036-1.331-3.061-0.053-7.748,0.264c5.919,0.663,9.573,0.663,15.494,0
	C35.061,41.38,35.035,40.102,32.002,41.433z"/>
</svg>
