<?xml version="1.0" encoding="utf-8"?>
<!-- Generator: Adobe Illustrator 15.0.0, SVG Export Plug-In . SVG Version: 6.00 Build 0)  -->
<!DOCTYPE svg PUBLIC "-//W3C//DTD SVG 1.1//EN" "http://www.w3.org/Graphics/SVG/1.1/DTD/svg11.dtd">
<svg version="1.1" id="Layer_1" xmlns="http://www.w3.org/2000/svg" xmlns:xlink="http://www.w3.org/1999/xlink" x="0px" y="0px"
	 width="64px" height="64px" viewBox="0 0 64 64" enable-background="new 0 0 64 64" xml:space="preserve">
<path fill="#C8A35D" d="M36.543,5.68C30.748-1.797,2,1.199,2,23.248C2.121,35.094,4.044,62,25.099,62
	c21.051,0,22.977-26.793,23.218-38.752C48.316,15.903,44.106,7.221,36.543,5.68z"/>
<path fill="#A3864C" d="M2.334,30.484C3.37,43.555,7.684,62,25.117,62c17.49,0,21.777-18.486,22.866-31.602
	c-0.573-6.039-4.109-13.838-11.776-23.032C20.49,17.655,3.514,16.053,2.334,30.484z"/>
<rect x="17.028" y="42" fill="#BF8D69" width="16.261" height="18"/>
<path fill="#8E3ED6" d="M33.289,48c0,0-2.41,7.748-8.131,7.75c-5.72,0.002-8.13-7.74-8.13-7.738C4.818,48.311,3.021,56.584,3.021,62
	h44.513C47.533,53.859,45.494,48.299,33.289,48z"/>
<path fill="#EBBEA0" d="M47.4,62l0.109-19.262c0,0,7.681,1.043,13.239-3.26c4.467-3.457-4.072-1.887-9.184-2.02
	c-4.973-0.129-7.391-1.723-8.767,1.713C41.315,42.881,39.236,62,39.236,62H47.4z"/>
<path fill="#5D1E96" d="M42.874,62l-0.087-11.906c-1.493-0.825-3.551-1.362-3.551-1.362C38.504,56.381,36.279,62,36.279,62H42.874z"
	/>
<path fill="#8E3ED6" d="M47.927,62V43.396h-6.971C40.89,49.916,38.311,62,38.311,62H47.927z"/>
<path fill="#EBBEA0" d="M41.784,22.439c-2.485-5.865-7.045-12.227-7.045-12.227C18.058,20.24,3.955,15.209,7.871,34.212
	c1.859,9.017,13.01,16.001,17.404,16.001c4.388,0,15.821-6.931,17.396-16.001C43.584,28.957,42.941,25.171,41.784,22.439z"/>
<path fill="#F5F5F5" d="M40.524,26.36c-1.985,5.174-10.063,4.414-11.543,0.797C30.106,21.342,39.433,20.845,40.524,26.36z"/>
<path fill="#45332C" d="M31.043,25.81c0,4.563,6.596,4.563,6.596,0C37.639,21.574,31.043,21.574,31.043,25.81z"/>
<path fill="#45332C" d="M40.524,26.323c0-5.555-11.543-5.555-11.543,0.879C30.631,21.924,38.875,21.924,40.524,26.323z"/>
<path fill="#F5F5F5" d="M10.02,26.36c1.985,5.174,10.064,4.414,11.543,0.797C20.439,21.342,11.112,20.845,10.02,26.36z"/>
<path fill="#45332C" d="M19.5,25.81c0,4.563-6.595,4.563-6.595,0C12.905,21.574,19.5,21.574,19.5,25.81z"/>
<path fill="#45332C" d="M10.02,26.323c0-5.553,11.543-5.553,11.543,0.877C19.914,21.924,11.669,21.924,10.02,26.323z"/>
<path fill="#F5F5F5" d="M31.449,24.7c0,1.142,1.65,1.142,1.65,0C33.1,23.643,31.449,23.643,31.449,24.7z"/>
<path fill="#F5F5F5" d="M15.166,24.469c0,1.14-1.648,1.14-1.648,0C13.518,23.41,15.166,23.41,15.166,24.469z"/>
<path fill="#BF8C6B" d="M33.516,39.628c-1.551,1.755-2.52,4.861-8.244,4.861c-4.994,0-6.368-2.736-8.245-4.861H33.516z"/>
<path fill="#FFFFFF" d="M32.486,39.682c-3.394,3.476-10.992,3.523-14.429,0H32.486z"/>
<path fill="#BF8C6B" d="M25.271,39.348c-3.229-1.417-3.254-0.057-8.245,0.28c6.301,0.706,10.19,0.706,16.489,0
	C28.528,39.291,28.501,37.931,25.271,39.348z"/>
<path fill="#BF8D69" d="M39.823,21.375c-3.495-1.44-8.28-1.722-10.736-0.76c-0.518,0.203-0.502,1.443-0.045,1.319
	c3.522-0.959,7.577-1.034,10.914,0.126C40.403,22.219,40.349,21.593,39.823,21.375z"/>
<path fill="#BF8D69" d="M10.594,21.378c3.494-1.441,8.278-1.723,10.736-0.763c0.52,0.203,0.502,1.445,0.043,1.319
	c-3.522-0.959-7.576-1.034-10.91,0.128C10.014,22.219,10.068,21.593,10.594,21.378z"/>
<path fill="#BF8D69" d="M29.394,34.635c0,2.647-8.134,2.647-8.134,0C21.26,34.026,29.394,34.026,29.394,34.635z"/>
</svg>
