<?xml version="1.0" encoding="utf-8"?>
<!-- Generator: Adobe Illustrator 15.0.0, SVG Export Plug-In . SVG Version: 6.00 Build 0)  -->
<!DOCTYPE svg PUBLIC "-//W3C//DTD SVG 1.1//EN" "http://www.w3.org/Graphics/SVG/1.1/DTD/svg11.dtd">
<svg version="1.1" id="Layer_1" xmlns="http://www.w3.org/2000/svg" xmlns:xlink="http://www.w3.org/1999/xlink" x="0px" y="0px"
	 width="64px" height="64px" viewBox="0 0 64 64" enable-background="new 0 0 64 64" xml:space="preserve">
<rect x="14.449" y="43.334" fill="#DBA97F" width="14.85" height="16.8"/>
<path fill="#018BC9" d="M29.298,48.934c0,0-2.286,7.234-7.534,7.234c-5.247,0.003-7.315-7.223-7.315-7.223
	C3.247,49.227,2.49,56.945,2.49,62h38.768C41.258,57.176,40.495,49.215,29.298,48.934z"/>
<path fill="#594640" d="M21.873,6C3.528,6,3.524,17.11,3.524,31h36.698C40.222,17.11,40.216,6,21.873,6z"/>
<path fill="#F2C198" d="M7.167,36.4c1.987-1.861,0.184-9.167-2.379-9.607C-0.69,25.854,2.878,40.418,7.167,36.4z"/>
<path fill="#F2C198" d="M36.579,36.4c-1.987-1.861-0.184-9.167,2.379-9.607C44.434,25.854,40.869,40.417,36.579,36.4z"/>
<path fill="#FCD5B2" d="M21.874,13.407c-19.166,0-11.443,2.234-16.56,13.565c0,0,0.035,5.196,1.106,10.77
	c1.382,7.186,9.418,12.701,15.453,12.701c6.036,0,14.07-5.516,15.452-12.701c1.07-5.574,1.108-10.77,1.108-10.77
	C33.315,15.642,41.039,13.407,21.874,13.407z"/>
<path fill="#F5F5F5" d="M35.488,28.607c-1.771,4.646-8.982,3.965-10.302,0.716C26.188,24.1,34.516,23.654,35.488,28.607z"/>
<path fill="#45332C" d="M27.026,28.113c0,4.098,5.887,4.098,5.887,0C32.913,24.308,27.026,24.308,27.026,28.113z"/>
<path fill="#45332C" d="M35.488,28.574c0-4.988-10.302-4.988-10.302,0.789C26.658,24.623,34.017,24.623,35.488,28.574z"/>
<path fill="#F5F5F5" d="M8.257,28.607c1.771,4.646,8.984,3.965,10.303,0.716C17.558,24.1,9.233,23.654,8.257,28.607z"/>
<path fill="#45332C" d="M16.721,28.113c0,4.098-5.89,4.098-5.89,0C10.832,24.309,16.721,24.309,16.721,28.113z"/>
<path fill="#45332C" d="M8.257,28.574c0-4.987,10.303-4.987,10.303,0.787C17.09,24.623,9.728,24.623,8.257,28.574z"/>
<path fill="#F5F5F5" d="M27.386,27.117c0,1.026,1.473,1.026,1.473,0C28.859,26.167,27.386,26.167,27.386,27.117z"/>
<path fill="#F5F5F5" d="M12.852,26.909c0,1.024-1.475,1.024-1.475,0C11.377,25.958,12.852,25.958,12.852,26.909z"/>
<path fill="#CC9D76" d="M21.873,40.326c-2.966-0.793-7.36,0.375-7.36,0.375c1.675,1.65,2.902,3.792,7.36,3.792
	c5.11,0,5.978-2.433,7.359-3.792C29.232,40.701,24.833,39.531,21.873,40.326z"/>
<path fill="#FFFFFF" d="M15.549,40.759c3.149,2.948,9.519,2.966,12.688,0C24.876,40.92,18.932,40.922,15.549,40.759z"/>
<path fill="#DBA97F" d="M35.098,24.021c-3.164-1.312-7.494-1.569-9.716-0.693c-0.469,0.184-0.455,1.315-0.039,1.201
	c3.186-0.874,6.855-0.94,9.874,0.116C35.619,24.786,35.57,24.216,35.098,24.021z"/>
<path fill="#DBA97F" d="M8.649,24.021c3.163-1.312,7.491-1.569,9.716-0.693c0.468,0.184,0.453,1.315,0.037,1.201
	c-3.186-0.874-6.854-0.941-9.87,0.116C8.126,24.786,8.175,24.216,8.649,24.021z"/>
<path fill="#DBA97F" d="M25.552,35.716c0,2.409-7.359,2.409-7.359,0C18.193,35.164,25.552,35.164,25.552,35.716z"/>
<path fill="#BEC3CF" d="M43.951,6.84c-0.38,14.978,0.613,24.191,0.613,24.191s1.144,2.633,0.957,3.199
	c-0.625-0.205-1.312-0.284-2.019-0.203c-2.513,0.293-4.321,2.48-4.04,4.881c0.281,2.406,2.546,4.115,5.058,3.824
	c2.513-0.293,4.321-2.48,4.042-4.884c-0.029-0.263-0.209-0.901-0.223-0.942c-1.832-5.161-1.203-7.188-1.203-7.188L43.951,6.84z
	 M44.275,40.629c-1.3,0.152-2.473-0.731-2.617-1.975c-0.145-1.242,0.793-2.373,2.092-2.525c1.3-0.152,2.473,0.732,2.615,1.976
	C46.514,39.346,45.574,40.479,44.275,40.629z"/>
<path fill="#594640" d="M21.817,6C7.377,6,3.115,14.234,9.094,16.9c15.076,6.719,38.971,11.34,42.704-1.111
	C39.864,21.132,41.669,6,21.817,6z"/>
<path fill="#422F2A" d="M8.963,9.376c0,0-5.351,3.603-0.444,7.95c8.301,7.355,41.119,11.734,43.279-1.537
	C46.321,31.254,1.997,17.479,8.963,9.376z"/>
<path fill="#CFD8DD" d="M53.841,28.434c-0.442,0.535-0.731,1.139-0.881,1.764c-0.596-0.15-2.321-2.465-2.321-2.465L32.417,13.059
	c6.046,9.157,12.008,13.016,12.121,14.576c0.204,2.815,3.117,2.662,3.785,1.314c0,0,1.925,0.75,5.524,4.959
	c0.027,0.033,0.501,0.517,0.715,0.68c1.978,1.492,4.857,1.155,6.435-0.753c1.582-1.905,1.258-4.662-0.72-6.153
	C58.301,26.189,55.425,26.527,53.841,28.434z M59.273,32.532c-0.819,0.985-2.31,1.159-3.33,0.389
	c-1.023-0.771-1.19-2.198-0.373-3.183c0.815-0.986,2.308-1.161,3.328-0.391C59.921,30.119,60.088,31.545,59.273,32.532z"/>
<path fill="#302C3B" d="M47.426,26.721c0.521,0.396,0.609,1.127,0.189,1.631c-0.419,0.506-1.182,0.595-1.705,0.202
	c-0.524-0.397-0.611-1.126-0.19-1.632C46.135,26.415,46.899,26.327,47.426,26.721z"/>
</svg>
