<?xml version="1.0" encoding="utf-8"?>
<!-- Generator: Adobe Illustrator 15.0.0, SVG Export Plug-In . SVG Version: 6.00 Build 0)  -->
<!DOCTYPE svg PUBLIC "-//W3C//DTD SVG 1.1//EN" "http://www.w3.org/Graphics/SVG/1.1/DTD/svg11.dtd">
<svg version="1.1" id="Layer_1" xmlns="http://www.w3.org/2000/svg" xmlns:xlink="http://www.w3.org/1999/xlink" x="0px" y="0px"
	 width="64px" height="64px" viewBox="0 0 64 64" enable-background="new 0 0 64 64" xml:space="preserve">
<rect x="9.308" y="22.834" fill-rule="evenodd" clip-rule="evenodd" fill="#302C3B" width="45.381" height="28.333"/>
<path fill-rule="evenodd" clip-rule="evenodd" fill="#4E5E67" d="M26.834,37.377c-0.691,2.041-5.77,6.702-10.356-0.074
	C11.884,30.521,28.26,33.176,26.834,37.377z"/>
<path fill-rule="evenodd" clip-rule="evenodd" fill="#4E5E67" d="M37.164,37.377c0.691,2.041,5.773,6.702,10.357-0.074
	C52.113,30.521,35.74,33.176,37.164,37.377z"/>
<path fill-rule="evenodd" clip-rule="evenodd" fill="#4E5E67" d="M34.691,47.31c-2.476-4.272-3.337-4.203-5.575-0.523
	C26.675,50.806,36.672,50.728,34.691,47.31z"/>
<path fill="#CFD8DD" d="M5,44.862c0,4.143,3.602,7.498,8.04,7.498c0.419,0,0.836-0.028,1.236-0.087
	c-0.508,1.171-1.097,2.624-1.236,3.354c-0.593,3.074,2.717,5.658,6.067,5.658c0,0,1.625,0.137,1.974-0.188
	c1.253-1.168,0-6.421,0-6.421c0-0.885,0.765-1.602,1.715-1.602c0.948,0,1.719,0.717,1.719,1.602c0,0-1.253,5.441,0,6.609
	c1.022,0.951,4.752,0.951,5.77,0c1.252-1.168,0-6.609,0-6.609c0-0.885,0.771-1.602,1.717-1.602s1.718,0.717,1.718,1.602
	c0,0-1.253,5.441,0,6.609c1.016,0.951,4.748,0.951,5.77,0c1.25-1.168,0-6.609,0-6.609c0-0.885,0.768-1.602,1.717-1.602
	s1.719,0.717,1.719,1.602c0,0-1.25,5.253,0,6.421c0.352,0.325,1.969,0.188,1.969,0.188c3.354,0,6.664-2.584,6.07-5.658
	c-0.141-0.73-0.729-2.184-1.232-3.354c0.4,0.059,0.811,0.087,1.232,0.087c4.439,0,8.037-3.355,8.037-7.498
	c0-2.413-1.219-4.555-3.117-5.926C57.875,35.428,59,31.428,59,27.18C59,13.273,46.914,2,32,2S5,13.273,5,27.18
	c0,4.248,1.125,8.248,3.119,11.757C6.219,40.308,5,42.449,5,44.862z M36.67,36.046c0.617-3.697,10.287-7.05,14.293-6.825
	c6.508,0.361-1.359,9.054-4.395,11.129C43.537,42.424,36.242,38.562,36.67,36.046z M29.211,44.36
	c0.961-1.689,1.44-3.221,2.619-3.221c1.175,0,1.656,1.531,2.615,3.221c0.828,1.459,3.215,2.498,1.764,3.851
	c-1.547,1.444-7.207,1.444-8.757,0C26.037,46.892,28.387,45.819,29.211,44.36z M12.695,29.221
	c4.008-0.225,13.672,3.128,14.294,6.825c0.423,2.516-6.868,6.378-9.899,4.304C14.052,38.274,6.189,29.582,12.695,29.221z"/>
<path fill-rule="evenodd" clip-rule="evenodd" fill="#E6EBEF" d="M11.074,19.221c0.874,3.701,7.108-4.308,13.517-11.29
	C28.73,3.436,8.439,8.088,11.074,19.221z"/>
</svg>
