<?xml version="1.0" encoding="utf-8"?>
<!-- Generator: Adobe Illustrator 15.0.0, SVG Export Plug-In . SVG Version: 6.00 Build 0)  -->
<!DOCTYPE svg PUBLIC "-//W3C//DTD SVG 1.1//EN" "http://www.w3.org/Graphics/SVG/1.1/DTD/svg11.dtd">
<svg version="1.1" id="Layer_1" xmlns="http://www.w3.org/2000/svg" xmlns:xlink="http://www.w3.org/1999/xlink" x="0px" y="0px"
	 width="64px" height="64px" viewBox="0 0 64 64" enable-background="new 0 0 64 64" xml:space="preserve">
<path fill="#99A8AE" d="M61.352,44.955c3.838,3.866-10.439,18.258-14.275,14.392L33.639,45.8l14.275-14.391L61.352,44.955z"/>
<path fill="#CFD8DD" d="M36.812,46.119c1.146-0.363,2.425-1.083,3.707-2.021l13.502,13.611c-1.283,0.94-2.563,1.657-3.707,2.02
	L36.812,46.119z"/>
<path fill="#302C3B" d="M61.026,42.57c4.271,4.309-12.042,20.753-16.334,16.429L31.758,45.961l16.315-16.444L61.026,42.57z"/>
<path fill="#4E5E67" d="M35.319,46.259c1.295-0.426,2.754-1.251,4.209-2.335l13.027,13.133c-1.453,1.085-2.912,1.908-4.209,2.338
	L35.319,46.259z"/>
<path fill="#302C3B" d="M48.073,29.517c-4.292-4.329-20.607,12.117-16.315,16.444C36.031,50.27,52.348,33.821,48.073,29.517z"/>
<path fill="#99A8AE" d="M46.182,29.663c3.67,3.697-10.604,18.09-14.275,14.391L19.056,31.101l14.276-14.392L46.182,29.663z"/>
<path fill="#CFD8DD" d="M22.155,31.345c1.128-0.383,2.396-1.114,3.668-2.06l12.914,13.018c-1.276,0.944-2.544,1.674-3.669,2.056
	L22.155,31.345z"/>
<path fill="#CFD8DD" d="M33.332,16.709c-3.668-3.7-17.946,10.691-14.276,14.392C22.725,34.798,37.003,20.406,33.332,16.709z"/>
<path fill="#C21413" d="M31.329,16.748c3.081,3.1-9.156,15.438-12.234,12.333L3.529,13.392l17.015-7.519L31.329,16.748z"/>
<path fill="#E81C27" d="M5.198,12.607l3.132-1.779l16.572,16.704c-1.09,0.816-2.173,1.446-3.132,1.779L5.198,12.607z"/>
<path fill="#E81C27" d="M20.543,5.873c-3.005-3.029-12.779-2.06-17.259,0.69c-1.289,0.79-2.19,4.375,0.244,6.828
	C9.458,19.368,24.083,9.442,20.543,5.873z"/>
<path fill="#F46C60" d="M19.486,5.685C16.772,2.948,7.95,3.827,3.904,6.308c-1.162,0.713-1.976,3.949,0.221,6.166
	C9.476,17.868,22.681,8.905,19.486,5.685z"/>
</svg>
