<?xml version="1.0" encoding="utf-8"?>
<!-- Generator: Adobe Illustrator 15.0.0, SVG Export Plug-In . SVG Version: 6.00 Build 0)  -->
<!DOCTYPE svg PUBLIC "-//W3C//DTD SVG 1.1//EN" "http://www.w3.org/Graphics/SVG/1.1/DTD/svg11.dtd">
<svg version="1.1" id="Layer_1" xmlns="http://www.w3.org/2000/svg" xmlns:xlink="http://www.w3.org/1999/xlink" x="0px" y="0px"
	 width="64px" height="64px" viewBox="0 0 64 64" enable-background="new 0 0 64 64" xml:space="preserve">
<path fill="#F9C802" d="M57.626,57.628c5.46-5.461,5.862-13.911,0.899-18.876l-16.64-16.638L22.113,41.887l16.638,16.639
	C43.716,63.49,52.165,63.086,57.626,57.628z"/>
<path fill="#F59E01" d="M28.738,35.263l-1.513,2.253l14.686,14.688c4.965,4.965,13.415,4.562,18.875-0.897
	c0.309-0.309,0.598-0.631,0.873-0.957c-0.584,2.623-1.928,5.174-4.033,7.278c-5.461,5.458-13.91,5.862-18.875,0.897L22.113,41.887
	L28.738,35.263z"/>
<path fill-rule="evenodd" clip-rule="evenodd" fill="#FFE12C" d="M56.745,40.894c-4.663,0.278-1.346,4.417,0.102,6.833
	C61.201,54.996,60.478,40.67,56.745,40.894z"/>
<path fill="#E81C27" d="M6.372,6.373c5.461-5.459,13.912-5.861,18.876-0.899l16.637,16.64L22.113,41.887L5.475,25.249
	C0.51,20.284,0.914,11.834,6.372,6.373z"/>
<path fill="#C21413" d="M28.738,35.263l-2.254,1.513L11.796,22.088C6.831,17.124,7.234,8.673,12.693,3.213
	c0.31-0.309,0.63-0.597,0.957-0.873c-2.623,0.583-5.173,1.928-7.278,4.033C0.914,11.834,0.51,20.284,5.475,25.249l16.638,16.638
	L28.738,35.263z"/>
<path fill-rule="evenodd" clip-rule="evenodd" fill="#F46C60" d="M23.107,7.255c-0.279,4.662-4.416,1.345-6.832-0.102
	C9.004,2.798,23.33,3.522,23.107,7.255z"/>
</svg>
