<?xml version="1.0" encoding="utf-8"?>
<!-- Generator: Adobe Illustrator 15.0.0, SVG Export Plug-In . SVG Version: 6.00 Build 0)  -->
<!DOCTYPE svg PUBLIC "-//W3C//DTD SVG 1.1//EN" "http://www.w3.org/Graphics/SVG/1.1/DTD/svg11.dtd">
<svg version="1.1" id="Layer_1" xmlns="http://www.w3.org/2000/svg" xmlns:xlink="http://www.w3.org/1999/xlink" x="0px" y="0px"
	 width="64px" height="64px" viewBox="0 0 64 64" enable-background="new 0 0 64 64" xml:space="preserve">
<rect x="19.676" y="40.662" transform="matrix(-0.7071 -0.7071 0.7071 -0.7071 7.0199 94.3609)" fill="#99A8AE" width="6.753" height="10.129"/>
<rect x="14.9" y="35.886" transform="matrix(-0.707 -0.7072 0.7072 -0.707 2.2406 82.8296)" fill="#CFD8DD" width="6.754" height="10.129"/>
<polygon fill="#E81C27" points="38.723,15.73 41.777,16.41 47.594,22.229 48.273,25.28 48.273,25.281 31.152,42.402 21.6,32.851 
	38.723,15.729 "/>
<polygon fill="#F46C60" points="42.573,17.207 44.166,18.8 41.906,18.912 41.904,18.912 25.58,35.239 23.291,32.951 39.617,16.624 
	"/>
<rect x="18.967" y="36.192" transform="matrix(-0.7073 -0.707 0.707 -0.7073 16.85 83.54)" fill="#4E5E67" width="13.51" height="4.178"/>
<rect x="21.765" y="33.62" transform="matrix(-0.7073 -0.707 0.707 -0.7073 15.0731 76.5356)" fill="#6E8189" width="3.237" height="3.055"/>
<rect x="55.984" y="0.163" transform="matrix(-0.7066 -0.7076 0.7076 -0.7066 90.9868 52.8342)" fill="#99A8AE" width="0.926" height="14.78"/>
<polygon fill="#99A8AE" points="46.939,13.879 50.125,17.063 47.594,22.227 41.775,16.409 "/>
<polygon fill="#6E8189" points="49.332,16.267 50.125,17.063 47.594,22.227 46.275,20.91 "/>
<polygon fill="#CFD8DD" points="47.736,14.675 48.533,15.471 44.164,18.798 42.572,17.206 "/>
<rect x="40.331" y="18.749" transform="matrix(-0.7069 -0.7073 0.7073 -0.7069 63.0703 64.3898)" fill="#99A8AE" width="9.088" height="0.758"/>
<polygon fill="#6E8189" points="45.987,20.775 47.819,22.61 48.355,22.074 46.518,20.238 "/>
<rect x="41.932" y="16.455" transform="matrix(-0.7067 -0.7075 0.7075 -0.7067 60.7624 58.8546)" fill="#CFD8DD" width="1.295" height="0.756"/>
<rect x="48.562" y="12.221" transform="matrix(-0.708 -0.7062 0.7062 -0.708 75.2158 59.3456)" fill="#99A8AE" width="2.629" height="3.807"/>
<polygon fill="#6E8189" points="48.928,15.87 49.461,16.398 52.152,13.706 51.619,13.177 "/>
<rect x="49.023" y="11.559" transform="matrix(-0.7123 -0.7019 0.7019 -0.7123 74.8148 57.5904)" fill="#CFD8DD" width="0.376" height="3.804"/>
<polygon fill="#4E5E67" points="6.82,57.181 8.359,58.721 26.359,41.873 24.243,39.758 "/>
<polygon fill="#6E8189" points="6.82,57.181 5.282,55.643 22.127,37.642 24.243,39.758 "/>
<rect x="4.671" y="46.699" transform="matrix(-0.7071 -0.7071 0.7071 -0.7071 -5.3029 92.7148)" fill="#99A8AE" width="23.756" height="1.513"/>
<polygon fill="#6E8189" points="19.82,51.795 24.413,56.389 25.483,55.319 20.885,50.721 "/>
<rect x="8.229" y="39.891" transform="matrix(-0.7071 -0.7071 0.7071 -0.7071 -12.1115 76.2792)" fill="#CFD8DD" width="3.027" height="1.514"/>
<rect x="0.761" y="56.423" transform="matrix(-0.7071 -0.7071 0.7071 -0.7071 -28.7873 102.4382)" fill="#4E5E67" width="12.118" height="1.514"/>
<rect x="2.896" y="53.364" transform="matrix(-0.7077 -0.7065 0.7065 -0.7077 -31.818 95.0767)" fill="#6E8189" width="1.728" height="1.513"/>
<rect x="24.194" y="40.929" transform="matrix(0.7071 0.7071 -0.7071 0.7071 37.215 -7.425)" fill="#1A1626" width="6.752" height="0.562"/>
<rect x="27.342" y="40.497" transform="matrix(0.7069 0.7073 -0.7073 0.7069 37.518 -8.9785)" fill="#1A1626" width="4.501" height="0.564"/>
<rect x="28.567" y="39.273" transform="matrix(0.707 0.7072 -0.7072 0.707 37.0034 -10.2053)" fill="#1A1626" width="4.502" height="0.563"/>
<rect x="29.793" y="38.047" transform="matrix(0.7071 0.7071 -0.7071 0.7071 36.4875 -11.4324)" fill="#1A1626" width="4.501" height="0.562"/>
<rect x="31.019" y="36.821" transform="matrix(0.7071 0.7071 -0.7071 0.7071 35.9797 -12.6577)" fill="#1A1626" width="4.501" height="0.563"/>
<rect x="30.323" y="34.799" transform="matrix(0.7071 0.7071 -0.7071 0.7071 34.6765 -13.5543)" fill="#1A1626" width="6.753" height="0.564"/>
<rect x="33.47" y="34.37" transform="matrix(0.7071 0.7071 -0.7071 0.7071 34.9649 -15.1091)" fill="#1A1626" width="4.502" height="0.563"/>
<rect x="34.696" y="33.144" transform="matrix(0.7069 0.7073 -0.7073 0.7069 34.472 -16.336)" fill="#1A1626" width="4.502" height="0.563"/>
<rect x="35.922" y="31.919" transform="matrix(0.7072 0.707 -0.707 0.7072 33.9412 -17.5607)" fill="#1A1626" width="4.502" height="0.561"/>
<rect x="37.149" y="30.693" transform="matrix(0.7071 0.7071 -0.7071 0.7071 33.4418 -18.7875)" fill="#1A1626" width="4.501" height="0.563"/>
<rect x="36.452" y="28.67" transform="matrix(0.707 0.7072 -0.7072 0.707 32.1428 -19.684)" fill="#1A1626" width="6.753" height="0.563"/>
<rect x="39.599" y="28.241" transform="matrix(0.7071 0.7071 -0.7071 0.7071 32.4257 -21.2386)" fill="#1A1626" width="4.502" height="0.562"/>
<rect x="40.825" y="27.015" transform="matrix(0.7071 0.7071 -0.7071 0.7071 31.9177 -22.4643)" fill="#1A1626" width="4.501" height="0.563"/>
<rect x="42.051" y="25.789" transform="matrix(0.7069 0.7073 -0.7073 0.7069 31.4254 -23.6942)" fill="#1A1626" width="4.501" height="0.563"/>
<rect x="43.277" y="24.563" transform="matrix(0.7072 0.707 -0.707 0.7072 30.8949 -24.9136)" fill="#1A1626" width="4.502" height="0.563"/>
<path fill="#E81C27" d="M59,14.238c-1.904,2.604-3,5.001-3,6.97c0,1.673,1.344,3.03,3,3.029c1.658,0,3-1.356,3-3.029
	C62,19.239,60.874,16.802,59,14.238z"/>
<path fill="#C21413" d="M61.293,18.172c0.125,0.529,0.193,1.034,0.193,1.513c0,1.672-1.332,3.03-2.977,3.03
	c-1.049,0-1.967-0.556-2.498-1.39c0.063,1.617,1.371,2.912,2.988,2.912c1.658,0,3-1.356,3-3.029
	C62,20.287,61.746,19.262,61.293,18.172z"/>
<path fill="#F46C60" d="M57.393,19.432c-0.988-0.308,0.965-3.501,1.386-4.063C59.162,14.861,59.209,19.997,57.393,19.432z"/>
<path fill="#E81C27" d="M55,27.103c-1.904,2.604-3,5.002-3,6.971c0,1.672,1.344,3.03,3.001,3.03C56.658,37.103,58,35.745,58,34.073
	C58,32.104,56.873,29.667,55,27.103z"/>
<path fill="#C21413" d="M57.293,31.037c0.125,0.529,0.193,1.034,0.193,1.513c0,1.673-1.332,3.03-2.977,3.03
	c-1.049-0.001-1.967-0.556-2.498-1.39c0.063,1.617,1.372,2.913,2.989,2.913C56.658,37.103,58,35.745,58,34.073
	C58,33.153,57.746,32.128,57.293,31.037z"/>
<path fill="#F46C60" d="M53.393,32.297c-0.988-0.308,0.965-3.501,1.387-4.063C55.162,27.727,55.208,32.862,53.393,32.297z"/>
</svg>
