<?xml version="1.0" encoding="utf-8"?>
<!-- Generator: Adobe Illustrator 15.0.0, SVG Export Plug-In . SVG Version: 6.00 Build 0)  -->
<!DOCTYPE svg PUBLIC "-//W3C//DTD SVG 1.1//EN" "http://www.w3.org/Graphics/SVG/1.1/DTD/svg11.dtd">
<svg version="1.1" id="Layer_1" xmlns="http://www.w3.org/2000/svg" xmlns:xlink="http://www.w3.org/1999/xlink" x="0px" y="0px"
	 width="64px" height="64px" viewBox="0 0 64 64" enable-background="new 0 0 64 64" xml:space="preserve">
<path fill="#594640" d="M31.959,18.006c-9.984,0-15.459,7.973-15.459,16.508v2.334c0.08,8.455,1.368,23.975,15.459,23.975
	c14.09,0,15.379-15.439,15.541-23.975v-2.334C47.5,25.979,42.023,18.006,31.959,18.006z"/>
<path fill="#E81C27" d="M17.192,55.209c1.8-1.002,9.271-3.646,9.271-3.646h11.132c0,0,7.465,2.639,9.254,3.645
	C49.453,56.662,50,62,50,62H14C14,62,14.581,56.66,17.192,55.209z"/>
<path fill="#302C3B" d="M39.707,52.162l0.67,2.049c0,0,5.711,2.271,7.057,2.867c1.336,0.592,0.795-1.316-0.256-2.006
	C46.785,54.813,42.031,52.805,39.707,52.162z"/>
<path fill="#FFE12C" d="M42.135,53.646c0.439,0.818-0.82,0.777-1.295-0.027C40.311,52.725,41.674,52.795,42.135,53.646z"/>
<path fill="#302C3B" d="M24.294,52.162l-0.672,2.049c0,0-5.71,2.271-7.057,2.867c-1.335,0.592-0.794-1.316,0.256-2.006
	C17.214,54.813,21.969,52.805,24.294,52.162z"/>
<path fill="#FFE12C" d="M21.866,53.646c-0.441,0.818,0.818,0.777,1.295-0.027C23.69,52.725,22.326,52.795,21.866,53.646z"/>
<path fill="#B00505" d="M18.304,62c0.384-1.342-0.066-3.389-0.545-4.516C17.313,56.436,17.481,61.262,18.304,62z"/>
<path fill="#B00505" d="M46.242,57.484c-0.48,1.127-0.93,3.174-0.547,4.516C46.518,61.262,46.686,56.436,46.242,57.484z"/>
<rect x="31.283" y="55.746" fill="#E6EBEF" width="0.717" height="6.254"/>
<path fill="#FFE12C" d="M35.012,59.883c0,1.199-1.799,1.199-1.799,0C33.213,58.682,35.012,58.682,35.012,59.883z"/>
<path fill="#DBA97F" d="M26.126,54.098l5.157,2.32h1.432c0,0,5.379-0.854,5.379-6.881L26.126,46V54.098z"/>
<path fill="#302C3B" d="M25.452,51.699c0-0.652,0-1.881,0-2.699c0-0.203,0.828-0.189,0.828-0.189
	c-0.514,6.322,5.003,6.381,5.003,6.381v2.807C31.283,57.998,25.452,57.975,25.452,51.699z"/>
<path fill="#E6EBEF" d="M25.452,49c0-0.203,0.828-0.189,0.828-0.189c0,6.029,5.003,6.381,5.003,6.381v0.672
	C29.188,55.863,25.452,54.127,25.452,49z"/>
<path fill="#FFE12C" d="M29.793,56.861c-0.418,0.592-1.5-0.059-1.08-0.652C29.131,55.617,30.211,56.271,29.793,56.861z"/>
<path fill="#302C3B" d="M38.549,51.699c0-0.652,0-1.881,0-2.699c0-0.203-0.828-0.189-0.828-0.189
	c0.498,6.25-5.006,6.381-5.006,6.381v2.807C32.715,57.998,38.549,57.975,38.549,51.699z"/>
<path fill="#E6EBEF" d="M38.549,49c0-0.203-0.828-0.189-0.828-0.189c0,6.029-5.006,6.381-5.006,6.381v0.672
	C34.813,55.863,38.549,54.127,38.549,49z"/>
<path fill="#FFE12C" d="M34.207,56.861c0.418,0.592,1.5-0.059,1.08-0.652C34.869,55.617,33.789,56.271,34.207,56.861z"/>
<path fill="#FCD5B2" d="M43.164,35.357c-1.67-3.937-4.73-8.208-4.73-8.208c-11.201,6.731-20.67,3.354-18.041,16.109
	C21.641,49.312,29.128,54,32.078,54c2.947,0,10.625-4.652,11.682-10.741C44.373,39.732,43.941,37.19,43.164,35.357z"/>
<path fill="#F5F5F5" d="M42.318,37.989c-1.334,3.473-6.758,2.963-7.751,0.534C35.322,34.62,41.586,34.286,42.318,37.989z"/>
<path fill="#45332C" d="M35.951,37.619c0,3.063,4.43,3.063,4.43,0C40.381,34.776,35.951,34.776,35.951,37.619z"/>
<path fill="#45332C" d="M42.318,37.964c0-3.729-7.751-3.729-7.751,0.59C35.676,35.011,41.21,35.011,42.318,37.964z"/>
<path fill="#F5F5F5" d="M21.835,37.989c1.333,3.473,6.758,2.963,7.751,0.534C28.83,34.62,22.568,34.286,21.835,37.989z"/>
<path fill="#45332C" d="M28.201,37.619c0,3.063-4.43,3.063-4.43,0C23.771,34.776,28.201,34.776,28.201,37.619z"/>
<path fill="#45332C" d="M21.835,37.964c0-3.727,7.751-3.727,7.751,0.588C28.479,35.011,22.942,35.011,21.835,37.964z"/>
<path fill="#F5F5F5" d="M36.225,36.874c0,0.768,1.107,0.768,1.107,0C37.332,36.165,36.225,36.165,36.225,36.874z"/>
<path fill="#F5F5F5" d="M25.29,36.719c0,0.766-1.106,0.766-1.106,0C24.184,36.009,25.29,36.009,25.29,36.719z"/>
<path fill="#DBA97F" d="M34.844,43.543c0,1.777-5.461,1.777-5.461,0C29.383,43.135,34.844,43.135,34.844,43.543z"/>
<path fill="#302C3B" d="M43.143,31.715v8.119c0,5.916-4.895,10.549-11.143,10.549c-6.247,0-11.143-4.633-11.143-10.549v-8.119H19
	v8.119c0,6.941,5.821,12.406,13,12.406c7.178,0,13-5.465,13-12.406v-8.119H43.143z"/>
<path fill="#302C3B" d="M48.713,33.898c0,5.996-5.576,2.018-7.426,1.529c-4.492-1.178-14.08-1.176-18.573,0
	c-1.848,0.488-7.428,4.467-7.428-1.529V11.371c0-12.494,33.427-12.494,33.427,0V33.898z"/>
<path fill="#DBA97F" d="M32,47.44c-1.785-0.21-3.613-0.238-5.456-0.072c3.979,2.771,6.931,2.771,10.911,0
	C35.614,47.202,33.786,47.23,32,47.44z"/>
<path fill="#B58C69" d="M34.175,46.75c-1.606-0.575-2.186,0.194-2.175,0.185c0.012,0.01-0.569-0.76-2.174-0.185
	c-1.232,0.432-3.282,0.602-3.282,0.618c2.239-0.029,2.569,0.563,5.456,0.484c2.889,0.078,3.218-0.514,5.455-0.484
	C37.457,47.352,35.406,47.182,34.175,46.75z"/>
</svg>
