<?xml version="1.0" encoding="utf-8"?>
<!-- Generator: Adobe Illustrator 15.0.0, SVG Export Plug-In . SVG Version: 6.00 Build 0)  -->
<!DOCTYPE svg PUBLIC "-//W3C//DTD SVG 1.1//EN" "http://www.w3.org/Graphics/SVG/1.1/DTD/svg11.dtd">
<svg version="1.1" id="Layer_1" xmlns="http://www.w3.org/2000/svg" xmlns:xlink="http://www.w3.org/1999/xlink" x="0px" y="0px"
	 width="64px" height="64px" viewBox="0 0 64 64" enable-background="new 0 0 64 64" xml:space="preserve">
<g>
	<g>
		<path fill-rule="evenodd" clip-rule="evenodd" fill="#B00505" d="M57.623,15.631c-0.763,0.673-0.821,3.509-1.764,3.264
			c0.5-0.626,1.607-3.024,0.62-3.808c-4.248-2.9-2.113,2.181-2.529,2.698c0.024-0.935-1.918-6.097-3.716-5.63
			c-0.355,0.435-1.064-2.611-2.261,4.021c0.104-1.081,1.505-5.45-5.054-7.256c-0.329,1.656,1.938,6.681,1.397,7.84
			c-0.237-2.162-1.896-7.276-3.075-8.53c-2.507-0.963-6.839-2.789-8.788-2.064c-2.2,0.609,3.399,5.524,1.84,7.625
			c0.351-2.938-3.143-5.985-5.499-6.045c-4.866,2.49-0.939,7.068-1.648,9.222c-0.423-2.643-1.831-3.285-1.558-6.348
			c-1.266,0.836-1.379,2.407-2.658,3.634c-0.65,0.172-1.021-0.156-1.673,0.018c-1.172,1.191,0.977,3.794,0.527,4.843
			c-0.753-1.693-0.779-4.109-2.695-4.403c-1.546-1.041-4.873-0.172-7.313,1.434c-2.808,0.763-5.54,8.308-5.4,9.403
			c0.18,1.391,2.582,1.541,2.744,2.867c-0.994-0.515-1.312-1.681-2.972-1.557c-0.615,1.192-0.931,2.159-1.064,3.851
			c1.722,1.15,3.798,2.155,4.345,3.736c-1.515-0.578-2.415-2.865-4.46-2.229c-2.594,7.28,0.522,5.892,0.937,6.9
			c-0.889,0.28-1.745-0.548-2.144-0.038c-1.995,3.732,0.284,3.66,0.554,4.313c-0.499-0.008-0.998-0.018-1.5-0.025
			c-0.784,0.689-0.948,3.047-0.725,4.075c1.636-0.772,5.295-1.584,4.362-3.583c1.042,0.059,2.05,0.084,2.582-0.387
			c4.093-2.146,5.993-2.836-0.765-4.744c1.279-0.136,8.431,2.338,10.697-0.36c1.861-1.301-7.34-3.021-7.813-4.324
			c1.739,1.071,9.588,4.548,11.086,1.44c-0.262-1.098-1.295-3.072-4.758-4.201c1.201,0.263,3.101-0.023,3.87-0.815
			c-0.28-1.032-4.699-3.676-5.115-7.117c1.415,2.054,3.278,5.442,5.508,6.08c0,0,0.705-1.667,3.12-2.333
			c-2.227-0.001-4.526-1.291-4.824-2.421c1.605,2.564,7.172,1.25,9.489,3.394c0,0-0.423-1.457,1.136-3.399
			c0.167-0.459-0.854-1.267-0.374-1.429c0.219,0.27,0.276,0.96,0.933,0.841c1.498-0.591,2.832-2.505,1.851-4.187
			c0.682,0.383,0.738,1.917,0.86,2.793c0.905,0.03,2.512-0.16,4.148,1.461c0.323-0.247,0.214-0.777,0.529-1.035
			c0.32,1.063,0.317,3.424,1.87,3.397c1.233-0.02,2.808-2.699,3.07-3.744c-0.057,2.56,1.384,2.263,1.824,2.332
			c1.163-0.114,2.385-3.776,2.945-3.783c-0.19,0.461-0.249,1.886-0.136,2.661c1.237,0.265,4.424-1.22,5.03-1.904
			c-0.079,0.505-0.354,0.801-0.243,1.501c1.075,0.239,7.48-2.784,9.024-5.862C60.276,16.899,58.937,16.025,57.623,15.631z"/>
		<path fill-rule="evenodd" clip-rule="evenodd" fill="#E03636" d="M61.921,19.908c-1.434,0.021-7.178,4.305-8.632,4.637
			c-1.914,0.438-7.743,0.895-9.235,2.55c1.678,2.667,8.326,3.104,10.023,5.749c-2.527-1.539-7.803-3.83-11.234-4.636
			c-4.022-0.945-2.857,1.342-4.162,4.555c0.606,1.247,2.463,4.582,2.621,5.662c-1.021-1.104-1.879-6.235-3.559-3.468
			c-2.639,4.348,1.463,5.231,3.238,9.28c-1.153-1.514-3.359-4.52-4.791-6.373l-0.968,1.681c-1.708-0.433-2.411-0.296-2.411-0.296
			c0.998,2.406,4.174,7.5,5.087,9.021c-3.07-3.008-4.318-5.893-5.979-9.148c-1.336,0.054-2.593-0.603-3.885-0.76
			c-0.132,2.797,1.121,4.576,1.137,6.532c-1.036-2.975-1.646-9.475-7.651-7.379c-1.687,3.405,0.836,10.118,0.887,13.069
			c-1.073-3.182-0.996-7.791-2.457-10.598c-1.936-0.113-4.967-0.24-4.378,1.012c-3.825,0.986-13.778,6.879-12.083,8.504
			c3.048,2.931,9.696,6.641,13.87,7.492c0.193-1.107,0.701-3.041,1.133-3.68c0.446,1.746,1.044,3.984,2.851,4.417
			c0.493-0.581-0.188-2.015-0.092-2.864c1.586,1.891,5.832,4.074,8.813,2.701c0.309-1.082-0.876-2.697-0.217-3.412
			c0.392,2.992,7.355,3.284,7.925,0.563c0.245-1.173-1.045-1.953-1.019-2.813c0.973,1.066,1.428,2.531,3.169,2.422
			c3.723-0.236,1.189-5.309,0.573-7.306c0.925,1.779,1.984,4.421,3.318,5.803c0.98-0.245,1.507-1.719,0.917-2.935
			c3.261,2.256,3.599,0.5,2.333-3.963c0.289,0.854,1.55,2.958,2.352,3.317c2.941-1.263-1.216-6.101-1.743-7.048
			c1.257,0.966,2.744,4.27,4.56,4.692c0.324-0.248,0.353-1.985,0.608-2.302c-0.238-1.528-0.932-2.857-1.798-4.061
			c1.223,1.442,2.518,2.734,3.933,3.448c1.133-1.396-0.994-5.388-1.636-6.411c0.977,0.391,2.644,3.043,3.973,3.094
			c1.262-0.623-0.527-3.855-1.359-4.983c0.512,0.21,2.121,1.843,3.059,1.64c0.333-1.511-1.688-3.4-2.14-4.637
			c0.578,0.145,2.396,1.91,3.147,1.885C60.857,31.282,62.118,27.5,61.921,19.908z M46.104,34.645c1.16,1.058,2.327,2.61,3.554,4.176
			C48.313,37.312,46.889,35.979,46.104,34.645z"/>
	</g>
</g>
</svg>
