<?xml version="1.0" encoding="utf-8"?>
<!-- Generator: Adobe Illustrator 15.0.0, SVG Export Plug-In . SVG Version: 6.00 Build 0)  -->
<!DOCTYPE svg PUBLIC "-//W3C//DTD SVG 1.1//EN" "http://www.w3.org/Graphics/SVG/1.1/DTD/svg11.dtd">
<svg version="1.1" id="Layer_1" xmlns="http://www.w3.org/2000/svg" xmlns:xlink="http://www.w3.org/1999/xlink" x="0px" y="0px"
	 width="64px" height="64px" viewBox="0 0 64 64" enable-background="new 0 0 64 64" xml:space="preserve">
<rect x="16" y="42" fill="#DBA97F" width="16.001" height="18"/>
<path fill="#018BC9" d="M32.001,48c0,0-2.463,7.75-8.118,7.75C18.229,55.754,16,48.012,16,48.012C3.93,48.313,2,56.584,2,62h44
	C46,53.859,44.066,48.301,32.001,48z"/>
<path fill="#FCD5B2" d="M47.395,62l0.109-19.26c0,0,7.684,1.041,13.244-3.262c4.469-3.457-4.073-1.887-9.187-2.02
	c-4.975-0.129-7.394-1.723-8.77,1.713C41.308,42.883,39.229,62,39.229,62H47.395z"/>
<path fill="#006DAE" d="M42.867,62V50.748c-2-1.125-3.759-1.639-3.759-1.639C38.376,56.643,36.271,62,36.271,62H42.867z"/>
<path fill="#018BC9" d="M47.922,62V43.396h-6.974C40.882,49.916,38.302,62,38.302,62H47.922z"/>
<path fill="#594640" d="M23.999,2C4.06,2,4.056,13.998,4.056,29h39.889C43.944,13.998,43.938,2,23.999,2z"/>
<path fill="#F2C198" d="M8.015,34.832c2.16-2.01,0.199-9.9-2.586-10.375C-0.524,23.441,3.354,39.172,8.015,34.832z"/>
<path fill="#F2C198" d="M39.985,34.832c-2.16-2.01-0.199-9.9,2.586-10.375C48.522,23.441,44.647,39.17,39.985,34.832z"/>
<path fill="#FCD5B2" d="M24.001,10c-20.832,0-12.439,2.412-18,14.65c0,0,0.039,5.611,1.203,11.631C8.706,44.041,17.44,50,24.001,50
	s15.293-5.959,16.795-13.719c1.164-6.02,1.205-11.631,1.205-11.631C36.438,12.412,44.833,10,24.001,10z"/>
<path fill="#F5F5F5" d="M38.8,26.416c-1.926,5.02-9.764,4.283-11.199,0.773C28.69,21.549,37.741,21.066,38.8,26.416z"/>
<path fill="#45332C" d="M29.601,25.883c0,4.426,6.398,4.426,6.398,0C35.999,21.773,29.601,21.773,29.601,25.883z"/>
<path fill="#45332C" d="M38.8,26.381c0-5.389-11.199-5.389-11.199,0.852C29.2,22.113,37.2,22.113,38.8,26.381z"/>
<path fill="#F5F5F5" d="M9.2,26.416c1.926,5.02,9.766,4.283,11.199,0.773C19.31,21.549,10.261,21.066,9.2,26.416z"/>
<path fill="#45332C" d="M18.399,25.883c0,4.426-6.4,4.426-6.4,0C11.999,21.773,18.399,21.773,18.399,25.883z"/>
<path fill="#45332C" d="M9.2,26.381c0-5.387,11.199-5.387,11.199,0.85C18.802,22.113,10.8,22.113,9.2,26.381z"/>
<path fill="#F5F5F5" d="M29.993,24.807c0,1.107,1.6,1.107,1.6,0C31.593,23.779,29.993,23.779,29.993,24.807z"/>
<path fill="#F5F5F5" d="M14.194,24.582c0,1.105-1.602,1.105-1.602,0C12.593,23.555,14.194,23.555,14.194,24.582z"/>
<path fill="#CC9D76" d="M23.999,39.072c-3.223-0.857-8,0.404-8,0.404c1.82,1.783,3.154,4.096,8,4.096c5.555,0,6.498-2.627,8-4.096
	C31.999,39.477,27.218,38.215,23.999,39.072z"/>
<path fill="#FFFFFF" d="M17.126,39.539c3.424,3.184,10.346,3.203,13.791,0C27.265,39.713,20.804,39.715,17.126,39.539z"/>
<path fill="#DBA97F" d="M38.374,21.463c-3.438-1.418-8.145-1.695-10.561-0.75c-0.51,0.199-0.494,1.42-0.043,1.297
	c3.463-0.943,7.451-1.016,10.732,0.125C38.942,22.289,38.89,21.674,38.374,21.463z"/>
<path fill="#DBA97F" d="M9.626,21.463c3.438-1.418,8.143-1.695,10.561-0.75c0.508,0.199,0.492,1.42,0.041,1.297
	c-3.463-0.943-7.451-1.016-10.729,0.125C9.058,22.289,9.11,21.674,9.626,21.463z"/>
<path fill="#594640" d="M39.929,8.162c7.43,10.189-27.057,7.531-34.23,6.045C5.698,14.207,16.233-0.162,39.929,8.162z"/>
<path fill="#422F2A" d="M5.698,14.207c10.301,2.168,41.801,1.867,31.887-8.877C53.747,18.225,14.421,19.373,5.698,14.207z"/>
<path fill="#DBA97F" d="M27.999,34.094c0,2.602-8,2.602-8,0C19.999,33.496,27.999,33.496,27.999,34.094z"/>
</svg>
