<?xml version="1.0" encoding="utf-8"?>
<!-- Generator: Adobe Illustrator 15.0.0, SVG Export Plug-In . SVG Version: 6.00 Build 0)  -->
<!DOCTYPE svg PUBLIC "-//W3C//DTD SVG 1.1//EN" "http://www.w3.org/Graphics/SVG/1.1/DTD/svg11.dtd">
<svg version="1.1" id="Layer_1" xmlns="http://www.w3.org/2000/svg" xmlns:xlink="http://www.w3.org/1999/xlink" x="0px" y="0px"
	 width="64px" height="64px" viewBox="0 0 64 64" enable-background="new 0 0 64 64" xml:space="preserve">
<polygon fill="#E81C27" points="44,57 20,57 44,49.969 "/>
<polygon fill="#E6EBEF" points="44,50.627 20,57 20,51.537 44,45.164 "/>
<polygon fill="#006DAE" points="44,45.822 20,52.197 20,46.734 44,40.361 "/>
<polygon fill="#E6EBEF" points="44,41.02 20,47.393 20,41.93 44,35.557 "/>
<polygon fill="#E81C27" points="44,36.215 20,42.588 20,37.125 44,30.752 "/>
<polygon fill="#E6EBEF" points="44,31.411 20,37.785 20,32.322 44,25.949 "/>
<polygon fill="#006DAE" points="44,26.608 20,32.981 20,27.519 44,21.145 "/>
<polygon fill="#E6EBEF" points="44,21.804 20,28.177 20,22.715 44,17 "/>
<polygon fill="#E81C27" points="44,17 20,23.373 20,17 "/>
<rect x="23" y="21" opacity="0.5" fill="#FFFFFF" width="4" height="37"/>
<polygon opacity="0.3" fill="#302C3B" points="20.505,18 20.505,21 38,21 38,58 44,58 44,18 "/>
<path fill="#99A8AE" d="M32,2c-7.18,0-13,5.371-13,12h26C45,7.371,39.178,2,32,2z"/>
<path fill-rule="evenodd" clip-rule="evenodd" fill="#BEC3CF" d="M22.084,10.516c0.223,1.998,3.158-1.908,6.131-5.262
	C30.129,3.094,21.415,4.516,22.084,10.516z"/>
<path fill="#6E8189" d="M41.455,14c0-6.07-4.89-11.074-11.228-11.875C30.809,2.051,31.397,2,32,2c7.179,0,13,5.375,13,12H41.455z"/>
<rect x="19" y="17" fill="#99A8AE" width="2" height="40"/>
<rect x="20" y="17" fill="#6E8189" width="1" height="40"/>
<rect x="43" y="17" fill="#99A8AE" width="2" height="40"/>
<rect x="44" y="17" fill="#6E8189" width="1" height="40"/>
<rect x="19" y="17" fill="#6E8189" width="2" height="4"/>
<rect x="43" y="17" fill="#6E8189" width="2" height="4"/>
<path fill="#BEC3CF" d="M20.118,62c-5.49,0-5.49-8,0-8h23.765c5.489,0,5.489,8,0,8H20.118z"/>
<path fill="#99A8AE" d="M47.838,56.887c0,2.559-1.729,3.793-3.955,3.793c0,0-27.027,1.32-23.765,1.32h23.765
	C47.145,62,48.452,59.18,47.838,56.887z"/>
<path fill="#CFD8DD" d="M20.149,55.738l17.703-1.289H20.149c-2.691,0-3.77,2.328-3.262,4.219
	C17.235,57.375,18.313,55.738,20.149,55.738z"/>
<path fill="#BEC3CF" d="M20.118,20c-5.49,0-5.49-8,0-8h23.765c5.489,0,5.489,8,0,8H20.118z"/>
<path fill="#99A8AE" d="M47.838,14.887c0,2.559-1.729,3.793-3.955,3.793c0,0-27.027,1.32-23.765,1.32h23.765
	C47.145,20,48.452,17.18,47.838,14.887z"/>
<path fill="#CFD8DD" d="M20.149,13.738l17.703-1.289H20.149c-2.691,0-3.77,2.328-3.262,4.219
	C17.235,15.375,18.313,13.738,20.149,13.738z"/>
</svg>
