<?xml version="1.0" encoding="utf-8"?>
<!-- Generator: Adobe Illustrator 15.0.0, SVG Export Plug-In . SVG Version: 6.00 Build 0)  -->
<!DOCTYPE svg PUBLIC "-//W3C//DTD SVG 1.1//EN" "http://www.w3.org/Graphics/SVG/1.1/DTD/svg11.dtd">
<svg version="1.1" id="Layer_1" xmlns="http://www.w3.org/2000/svg" xmlns:xlink="http://www.w3.org/1999/xlink" x="0px" y="0px"
	 width="64px" height="64px" viewBox="0 0 64 64" enable-background="new 0 0 64 64" xml:space="preserve">
<path fill="#F46C60" d="M55.877,24.77C61.41,27.203,57.682,39.947,32,41.949v12.643C71.131,41.215,63.416,22.572,55.877,24.77z"/>
<path fill="#F89987" d="M59.816,28.851C59.463,32.647,52.908,43.153,32,44.774v6.992C56.518,44.979,61.736,32.793,59.816,28.851z"/>
<path fill="#F46C60" d="M2.653,26.826C3.459,21.982,12.161,15.791,34,14.508V6.826C-1.499,11.188,1.366,24.056,2.653,26.826z"/>
<path fill="#F89987" d="M6,19.36c4.667-3.875,17.667-6.569,28-6.569V8.542C23.292,9.133,9.167,13.402,6,19.36z"/>
<path fill="#E81C27" d="M47,5.664c-3.98-6.467-15-3.94-15,4.185c0,5.455,5.082,9.104,15,17.151c9.918-8.047,15-11.697,15-17.151
	C62,1.724,50.979-0.803,47,5.664z"/>
<path fill="#C21413" d="M46.555,6.471C46.711,6.106,47,5.664,47,5.664c-1.086-1.821-2.677-2.608-2.677-2.608
	C46,4.609,46.555,6.471,46.555,6.471z"/>
<path fill="#C21413" d="M55.719,2.224c2.17,1.289,3.742,3.557,3.742,6.625c0,4.967-5.75,10.737-11.094,15.643
	c-1.673,1.536-1.367,1.344-6.142-1.356C42.834,23.627,46.35,26.472,47,27c9.918-8.047,15-11.697,15-17.151
	C62,5.674,59.088,2.982,55.719,2.224z"/>
<path fill-rule="evenodd" clip-rule="evenodd" fill="#F46C60" d="M33.79,8.665c0.245,1.723,3.469-1.647,6.733-4.545
	C42.631,2.256,33.054,3.483,33.79,8.665z"/>
<path fill-rule="evenodd" clip-rule="evenodd" fill="#F46C60" d="M48.273,6.301c0.143,1.007,2.029-0.964,3.938-2.659
	C53.444,2.553,47.842,3.27,48.273,6.301z"/>
<path fill="#E81C27" d="M24,30.423c-5.837-9.571-22-5.832-22,6.193C2,44.689,9.454,50.09,24,62c14.545-11.91,22-17.311,22-25.384
	C46,24.591,29.837,20.852,24,30.423z"/>
<path fill="#C21413" d="M23.348,31.617C23.577,31.078,24,30.423,24,30.423c-1.592-2.695-3.925-3.86-3.925-3.86
	C22.534,28.861,23.348,31.617,23.348,31.617z"/>
<path fill="#C21413" d="M36.788,25.332c3.183,1.908,5.488,5.264,5.488,9.805c0,7.352-8.434,15.891-16.271,23.15
	c-2.453,2.273-2.005,1.989-9.008-2.006C17.891,57.008,23.046,61.219,24,62c14.545-11.91,22-17.311,22-25.384
	C46,30.438,41.729,26.454,36.788,25.332z"/>
<path fill-rule="evenodd" clip-rule="evenodd" fill="#F46C60" d="M4.626,34.863c0.359,2.551,5.087-2.438,9.875-6.726
	C17.592,25.38,3.546,27.195,4.626,34.863z"/>
<path fill-rule="evenodd" clip-rule="evenodd" fill="#F46C60" d="M25.868,31.365c0.21,1.492,2.976-1.426,5.777-3.934
	C33.451,25.818,25.236,26.88,25.868,31.365z"/>
</svg>
