<?xml version="1.0" encoding="utf-8"?>
<!-- Generator: Adobe Illustrator 15.0.0, SVG Export Plug-In . SVG Version: 6.00 Build 0)  -->
<!DOCTYPE svg PUBLIC "-//W3C//DTD SVG 1.1//EN" "http://www.w3.org/Graphics/SVG/1.1/DTD/svg11.dtd">
<svg version="1.1" id="Layer_1" xmlns="http://www.w3.org/2000/svg" xmlns:xlink="http://www.w3.org/1999/xlink" x="0px" y="0px"
	 width="64px" height="64px" viewBox="0 0 64 64" enable-background="new 0 0 64 64" xml:space="preserve">
<path fill="#E81C27" d="M32,15.328C24.04,2.394,2,7.448,2,23.697C2,34.606,12.164,41.905,32,58c19.836-16.095,30-23.394,30-34.303
	C62,7.448,39.96,2.394,32,15.328z"/>
<path fill="#C21413" d="M31.11,16.942c0.313-0.729,0.89-1.614,0.89-1.614c-2.171-3.642-5.353-5.217-5.353-5.217
	C30.001,13.218,31.11,16.942,31.11,16.942z"/>
<path fill="#C21413" d="M49.439,8.448c4.34,2.578,7.483,7.114,7.483,13.249c0,9.935-11.5,21.474-22.188,31.286
	C31.39,56.056,32,55.671,22.452,50.271C23.669,51.254,30.699,56.944,32,58c19.836-16.095,30-23.394,30-34.303
	C62,15.348,56.178,9.964,49.439,8.448z"/>
<path fill-rule="evenodd" clip-rule="evenodd" fill="#F46C60" d="M5.581,21.33c0.49,3.445,6.938-3.295,13.467-9.09
	C23.262,8.513,4.108,10.966,5.581,21.33z"/>
<path fill-rule="evenodd" clip-rule="evenodd" fill="#F46C60" d="M34.548,16.603c0.286,2.015,4.058-1.928,7.877-5.317
	C44.89,9.105,33.686,10.54,34.548,16.603z"/>
<path opacity="0.3" fill="#1A1626" d="M51.332,7.818c0,7.86-5.103,11.288-11.091,11.288c5.988,0,10.234,7.033,10.234,14.895
	c0-7.861,4.254-14.895,10.242-14.895C54.729,19.105,51.332,15.678,51.332,7.818z"/>
<path fill="#FFE12C" d="M51.758,2c0,7.86-4.244,14.891-10.231,14.891c5.987,0,10.231,7.034,10.231,14.895
	c0-7.861,4.254-14.895,10.242-14.895C56.012,16.891,51.758,9.86,51.758,2z"/>
<path opacity="0.3" fill="#1A1626" d="M13.091,22.818c0,7.86-5.103,11.288-11.091,11.288c5.988,0,10.234,7.033,10.234,14.895
	c0-7.861,4.254-14.895,10.242-14.895C16.488,34.105,13.091,30.678,13.091,22.818z"/>
<path fill="#FFE12C" d="M13.517,17c0,7.86-4.244,14.891-10.231,14.891c5.987,0,10.231,7.034,10.231,14.894
	c0-7.86,4.254-14.894,10.242-14.894C17.771,31.891,13.517,24.86,13.517,17z"/>
<path opacity="0.3" fill="#1A1626" d="M42.212,35.817c0,7.86-5.104,11.288-11.092,11.288c5.988,0,10.234,7.033,10.234,14.895
	c0-7.861,4.254-14.895,10.242-14.895C45.608,47.105,42.212,43.678,42.212,35.817z"/>
<path fill="#FFE12C" d="M42.638,30c0,7.859-4.244,14.891-10.232,14.891c5.988,0,10.232,7.033,10.232,14.895
	c0-7.861,4.254-14.895,10.242-14.895C46.892,44.891,42.638,37.859,42.638,30z"/>
</svg>
