<?xml version="1.0" encoding="utf-8"?>
<!-- Generator: Adobe Illustrator 15.0.0, SVG Export Plug-In . SVG Version: 6.00 Build 0)  -->
<!DOCTYPE svg PUBLIC "-//W3C//DTD SVG 1.1//EN" "http://www.w3.org/Graphics/SVG/1.1/DTD/svg11.dtd">
<svg version="1.1" id="Layer_1" xmlns="http://www.w3.org/2000/svg" xmlns:xlink="http://www.w3.org/1999/xlink" x="0px" y="0px"
	 width="64px" height="64px" viewBox="0 0 64 64" enable-background="new 0 0 64 64" xml:space="preserve">
<path fill="#E81C27" d="M32,14.328C24.04,1.394,2,6.448,2,22.697C2,33.606,12.164,40.905,32,57c19.836-16.095,30-23.394,30-34.303
	C62,6.448,39.96,1.394,32,14.328z"/>
<path fill="#C21413" d="M31.11,15.942c0.313-0.729,0.89-1.614,0.89-1.614c-2.171-3.642-5.353-5.217-5.353-5.217
	C30.001,12.218,31.11,15.942,31.11,15.942z"/>
<path fill="#C21413" d="M49.439,7.448c4.34,2.578,7.483,7.114,7.483,13.249c0,5.283-3.253,11.021-7.905,16.71
	c-0.574,0.703-15.757,1.849-15.757,1.849s14.093,0.606,13.359,1.391c-3.249,3.478-8.375,8.114-11.885,11.337
	C31.39,55.056,32,54.671,22.452,49.271C23.669,50.255,30.699,55.944,32,57c19.836-16.095,30-23.394,30-34.303
	C62,14.348,56.178,8.964,49.439,7.448z"/>
<path fill-rule="evenodd" clip-rule="evenodd" fill="#F46C60" d="M5.581,20.33c0.49,3.445,6.938-3.295,13.467-9.09
	C23.262,7.513,4.108,9.966,5.581,20.33z"/>
<path fill-rule="evenodd" clip-rule="evenodd" fill="#F46C60" d="M34.548,15.603c0.286,2.015,4.058-1.928,7.877-5.317
	C44.89,8.105,33.686,9.54,34.548,15.603z"/>
<path fill="#F9C802" d="M54.265,38.083c-14.802,1.568-29.728,1.569-44.528,0c-6.882-5.421-7.26-11.44-7.26-11.44
	c19.575,2.909,39.473,2.909,59.047,0C61.523,26.642,61.261,32,54.265,38.083z"/>
<path fill="#F59E01" d="M11.402,36.87c0,0,3.043,5.606-0.955,15.059l6.383-2.977l3.662,7.855c0,0,4.189-8.387-2.609-22.967
	L11.402,36.87z"/>
<path fill="#F59E01" d="M27.754,29.245c0,0,2.338,5.936,12.148,8.949l-6.382,2.976l3.663,7.854c0,0-9.117-2.182-15.916-16.762
	L27.754,29.245z"/>
<path fill="#FFE12C" d="M19.121,33.793c1.758,3.771,0.691,8.734-2.374,11.028l-2.452,1.838c-3.063,2.295-6.13,1.69-6.813-1.344
	c-0.683-3.033-2.785-7.54-4.669-10.014c-1.885-2.474-0.377-5.211,3.35-6.082l2.984-0.697C12.874,27.649,17.363,30.022,19.121,33.793
	z"/>
<path fill="#F59E01" d="M8.501,45.336c-0.087,0.51,0.412,0.776,0.589,0.915c0.536,0.42,1.646,0.621,3.15-0.08
	c0.432-0.201,0.867-0.467,1.296-0.788l2.452-1.837c1.717-1.285,2.741-3.553,2.845-5.828C18.833,37.718,9.529,39.302,8.501,45.336z"
	/>
<path fill="#FFE12C" d="M20.436,33.18c1.758,3.771,6.246,6.144,9.973,5.271l2.985-0.696c3.728-0.871,5.234-3.609,3.35-6.083
	c-1.884-2.473-3.985-6.981-4.669-10.014c-0.684-3.034-3.75-3.639-6.813-1.344l-2.453,1.838
	C19.744,24.446,18.678,29.409,20.436,33.18z"/>
<path fill="#F59E01" d="M36.104,32.465c0.447,0.261,0.33,0.815,0.322,1.039c-0.021,0.681-0.58,1.66-2.085,2.361
	c-0.433,0.202-0.917,0.365-1.438,0.487L29.92,37.05c-2.089,0.488-4.482-0.184-6.293-1.567C23.627,35.482,30.82,29.374,36.104,32.465
	z"/>
<path fill="#F59E01" d="M18.896,32.601c0,0-0.313,1.451-3.523-0.184c-3.655-1.863-5.223,3.602,0.061,3.232
	C18.256,35.452,18.896,32.601,18.896,32.601z"/>
<path fill="#F59E01" d="M19.666,32.241c0,0,1.313,0.693,2.124-2.816c0.923-3.998,6.116-1.685,2.438,2.125
	C22.263,33.584,19.666,32.241,19.666,32.241z"/>
<path fill="#F59E01" d="M22.182,38.641c-1.835,0.855-1.332,3.118-4.656-4.01c-3.325-7.132-1.914-5.291-0.08-6.146
	c1.835-0.855,1.331-3.119,4.656,4.012C25.426,39.625,24.016,37.785,22.182,38.641z"/>
<path fill="#FFE12C" d="M22.243,38.772c-1.487,0.693-0.872,2.97-4.283-4.344c-3.411-7.317-2.063-5.383-0.576-6.076
	s0.872-2.97,4.284,4.346C25.078,40.013,23.73,38.079,22.243,38.772z"/>
</svg>
