<?xml version="1.0" encoding="utf-8"?>
<!-- Generator: Adobe Illustrator 15.0.0, SVG Export Plug-In . SVG Version: 6.00 Build 0)  -->
<!DOCTYPE svg PUBLIC "-//W3C//DTD SVG 1.1//EN" "http://www.w3.org/Graphics/SVG/1.1/DTD/svg11.dtd">
<svg version="1.1" id="Layer_1" xmlns="http://www.w3.org/2000/svg" xmlns:xlink="http://www.w3.org/1999/xlink" x="0px" y="0px"
	 width="64px" height="64px" viewBox="0 0 64 64" enable-background="new 0 0 64 64" xml:space="preserve">
<path fill="#F6BEC1" d="M32,14.328C24.041,1.394,2,6.448,2,22.697C2,33.606,12.164,40.905,32,57c19.836-16.095,30-23.394,30-34.303
	C62,6.448,39.961,1.394,32,14.328z"/>
<path fill="#F89987" d="M31.111,15.942C31.424,15.212,32,14.328,32,14.328c-2.17-3.642-5.352-5.217-5.352-5.217
	C30.002,12.218,31.111,15.942,31.111,15.942z"/>
<path fill="#F89987" d="M49.439,7.448c4.34,2.578,7.484,7.114,7.484,13.249c0,9.936-11.5,21.474-22.188,31.286
	c-3.346,3.072-2.736,2.688-12.283-2.712C23.67,50.254,30.699,55.944,32,57c19.836-16.095,30-23.394,30-34.303
	C62,14.348,56.178,8.964,49.439,7.448z"/>
<path fill-rule="evenodd" clip-rule="evenodd" fill="#FDE0DA" d="M6.566,17.431c0.344,2.414,4.861-2.309,9.436-6.369
	C18.955,8.451,5.535,10.17,6.566,17.431z"/>
<path fill-rule="evenodd" clip-rule="evenodd" fill="#FDE0DA" d="M35.352,13.577c0.181,1.277,2.57-1.222,4.991-3.37
	C41.904,8.826,34.805,9.735,35.352,13.577z"/>
<path fill="#F46C60" d="M32,19.276c-5.837-9.313-22-5.673-22,6.025C10,33.156,17.454,38.411,32,50
	c14.547-11.589,22-16.844,22-24.698C54,13.603,37.838,9.963,32,19.276z"/>
<path fill="#E03636" d="M31.348,20.438C31.577,19.913,32,19.276,32,19.276c-1.592-2.622-3.925-3.756-3.925-3.756
	C30.534,17.757,31.348,20.438,31.348,20.438z"/>
<path fill="#E03636" d="M44.789,14.323c3.183,1.856,5.488,5.123,5.488,9.54c0,7.153-8.434,15.46-16.271,22.526
	C31.553,48.6,32,48.322,24.999,44.436C25.891,45.143,31.047,49.24,32,50c14.547-11.589,22-16.844,22-24.698
	C54,19.29,49.73,15.415,44.789,14.323z"/>
<path fill-rule="evenodd" clip-rule="evenodd" fill="#F89987" d="M12.622,22.115c0.267,1.84,3.774-1.76,7.325-4.854
	C22.24,15.27,11.82,16.58,12.622,22.115z"/>
<path fill-rule="evenodd" clip-rule="evenodd" fill="#F46C60" d="M34.524,19.182c0.142,0.973,1.995-0.931,3.874-2.568
	C39.61,15.562,34.101,16.254,34.524,19.182z"/>
<path fill="#B00505" d="M32,23.164c-3.979-6.467-15-3.94-15,4.185c0,5.454,5.082,9.104,15,17.151c9.918-8.047,15-11.697,15-17.151
	C47,19.224,35.98,16.697,32,23.164z"/>
<path fill="#8C0505" d="M31.556,23.971C31.712,23.606,32,23.164,32,23.164c-1.085-1.821-2.676-2.608-2.676-2.608
	C31.001,22.109,31.556,23.971,31.556,23.971z"/>
<path fill="#8C0505" d="M40.721,19.724c2.17,1.289,3.741,3.557,3.741,6.625c0,4.968-5.75,10.737-11.094,15.644
	c-1.673,1.535-1.368,1.344-6.142-1.357C27.835,41.127,31.35,43.973,32,44.5c9.918-8.047,15-11.697,15-17.151
	C47,23.174,44.09,20.482,40.721,19.724z"/>
<path fill-rule="evenodd" clip-rule="evenodd" fill="#E81C27" d="M18.791,26.165c0.245,1.723,3.469-1.647,6.733-4.545
	C27.631,19.756,18.055,20.983,18.791,26.165z"/>
<path fill-rule="evenodd" clip-rule="evenodd" fill="#E81C27" d="M33.274,23.801c0.144,1.007,2.028-0.964,3.938-2.659
	C38.445,20.053,32.844,20.77,33.274,23.801z"/>
</svg>
