<?xml version="1.0" encoding="utf-8"?>
<!-- Generator: Adobe Illustrator 15.0.0, SVG Export Plug-In . SVG Version: 6.00 Build 0)  -->
<!DOCTYPE svg PUBLIC "-//W3C//DTD SVG 1.1//EN" "http://www.w3.org/Graphics/SVG/1.1/DTD/svg11.dtd">
<svg version="1.1" id="Layer_1" xmlns="http://www.w3.org/2000/svg" xmlns:xlink="http://www.w3.org/1999/xlink" x="0px" y="0px"
	 width="64px" height="64px" viewBox="0 0 64 64" enable-background="new 0 0 64 64" xml:space="preserve">
<path fill="#0FB4D4" d="M32,14.328C24.041,1.394,2,6.448,2,22.697C2,33.606,12.164,40.905,32,57c19.836-16.095,30-23.394,30-34.303
	C62,6.448,39.961,1.394,32,14.328z"/>
<path fill="#018BC9" d="M31.111,15.942C31.423,15.212,32,14.328,32,14.328c-2.17-3.642-5.352-5.217-5.352-5.217
	C30.001,12.218,31.111,15.942,31.111,15.942z"/>
<path fill="#018BC9" d="M49.439,7.448c4.34,2.578,7.484,7.114,7.484,13.249c0,9.935-11.5,21.474-22.188,31.286
	c-3.347,3.072-2.737,2.688-12.285-2.712C23.669,50.254,30.699,55.944,32,57c19.836-16.095,30-23.394,30-34.303
	C62,14.348,56.178,8.964,49.439,7.448z"/>
<path fill-rule="evenodd" clip-rule="evenodd" fill="#75D6FF" d="M5.581,20.33c0.49,3.445,6.938-3.295,13.467-9.09
	C23.261,7.513,4.108,9.966,5.581,20.33z"/>
<path fill-rule="evenodd" clip-rule="evenodd" fill="#75D6FF" d="M34.547,15.603c0.287,2.015,4.059-1.928,7.879-5.317
	C44.891,8.105,33.686,9.54,34.547,15.603z"/>
</svg>
