<?xml version="1.0" encoding="utf-8"?>
<!-- Generator: Adobe Illustrator 15.0.0, SVG Export Plug-In . SVG Version: 6.00 Build 0)  -->
<!DOCTYPE svg PUBLIC "-//W3C//DTD SVG 1.1//EN" "http://www.w3.org/Graphics/SVG/1.1/DTD/svg11.dtd">
<svg version="1.1" id="Layer_1" xmlns="http://www.w3.org/2000/svg" xmlns:xlink="http://www.w3.org/1999/xlink" x="0px" y="0px"
	 width="64px" height="64px" viewBox="0 0 64 64" enable-background="new 0 0 64 64" xml:space="preserve">
<path fill="#E81C27" d="M28.945,29.71c-1.459-12.597-19.92-16.549-25.654-4.253C-0.558,33.712,4.558,42.821,13.888,62
	c20.689-5.18,30.956-7.116,34.805-15.371C54.426,34.333,39.532,22.731,28.945,29.71z"/>
<path fill="#C21413" d="M27.703,30.617c0.494-0.441,1.242-0.907,1.242-0.907c-0.357-3.522-2.209-5.836-2.209-5.836
	C28.178,27.408,27.703,30.617,27.703,30.617z"/>
<path fill="#C21413" d="M44.569,30.657c2.374,3.482,3.151,8.024,0.987,12.666c-3.506,7.519-16.279,12.191-27.829,15.846
	c-3.616,1.145-3.018,1.068-8.337-6.387c0.574,1.174,3.886,7.96,4.498,9.218c20.689-5.18,30.956-7.116,34.805-15.371
	C51.639,40.311,49.133,34.183,44.569,30.657z"/>
<path fill-rule="evenodd" clip-rule="evenodd" fill="#F46C60" d="M6.836,24.929c-0.845,2.78,6.412-0.045,13.398-2.126
	C24.738,21.47,9.378,16.568,6.836,24.929z"/>
<path fill-rule="evenodd" clip-rule="evenodd" fill="#F46C60" d="M30.424,31.573c-0.494,1.627,3.75-0.027,7.836-1.244
	C40.895,29.55,31.91,26.682,30.424,31.573z"/>
<path fill="#E81C27" d="M47.303,8.387c-5.775-3.807-13.899,2.522-10.771,9.229c2.1,4.502,7.699,5.559,18.984,8.384
	c5.089-10.461,7.88-15.43,5.78-19.933C58.168-0.639,48.099,1.517,47.303,8.387z"/>
<path fill="#C21413" d="M47.246,9.225c-0.012-0.361,0.057-0.837,0.057-0.837c-1.598-1.085-3.214-1.123-3.214-1.123
	C46.071,7.901,47.246,9.225,47.246,9.225z"/>
<path fill="#C21413" d="M53.177,2.191c2.287,0.229,4.458,1.496,5.639,4.028c1.912,4.101-0.614,11.077-3.137,17.184
	c-0.79,1.912-0.611,1.636-5.592,1.245c0.691,0.171,4.688,1.167,5.429,1.353c5.089-10.461,7.88-15.43,5.78-19.933
	C59.688,2.621,56.249,1.52,53.177,2.191z"/>
<path fill-rule="evenodd" clip-rule="evenodd" fill="#F46C60" d="M37.554,15.949c0.865,1.328,2.229-2.695,3.809-6.344
	C42.384,7.256,34.951,11.955,37.554,15.949z"/>
<path fill-rule="evenodd" clip-rule="evenodd" fill="#F46C60" d="M48.6,8.423c0.506,0.776,1.304-1.577,2.228-3.711
	C51.425,3.338,47.076,6.087,48.6,8.423z"/>
</svg>
