<?xml version="1.0" encoding="utf-8"?>
<!-- Generator: Adobe Illustrator 15.0.0, SVG Export Plug-In . SVG Version: 6.00 Build 0)  -->
<!DOCTYPE svg PUBLIC "-//W3C//DTD SVG 1.1//EN" "http://www.w3.org/Graphics/SVG/1.1/DTD/svg11.dtd">
<svg version="1.1" id="Layer_1" xmlns="http://www.w3.org/2000/svg" xmlns:xlink="http://www.w3.org/1999/xlink" x="0px" y="0px"
	 width="64px" height="64px" viewBox="0 0 64 64" enable-background="new 0 0 64 64" xml:space="preserve">
<path fill="#E81C27" d="M60.964,18.24C56.487,5.201,44.277,4.908,37.846,10.288C33.261,14.122,30.911,21.6,30.911,21.6l8.008,1.406
	l-8.358,14.875l9.308-1.842l-4.585,16.514l-1.16-12.229l-10.799,2.289l8.43-15.231l-7.399-1.427l4.1-12.722
	C22.06,6.318,5.513,5.042,2.281,21.625C-1.565,41.377,35.3,57,35.3,57C43.723,51.121,66.71,34.968,60.964,18.24z"/>
<path fill="#C21413" d="M61.083,18.241c-2.213-6.447-6.361-9.873-11.022-10.902C71.425,26.409,36.347,55.037,35.151,55.41
	c-0.921,0.288-5.406-1.084-5.406-1.084C32.186,55.682,35.3,57,35.3,57C44.036,51.215,66.83,34.969,61.083,18.241z"/>
<polygon fill="#850505" points="28.455,13.233 29.252,15.895 25.57,25.77 23.082,26.613 "/>
<polygon fill="#B00505" points="31.333,27.979 33.261,26.57 25.67,25.499 23.082,26.613 "/>
<polygon fill="#850505" points="21.833,43.477 25.05,41.889 33.261,26.57 30.687,27.873 "/>
<polygon fill="#B00505" points="34.079,40.74 35.151,39.398 25.242,41.531 21.833,43.477 "/>
<polygon fill="#850505" points="35.284,52.553 35.151,39.398 33.729,40.818 "/>
<path fill-rule="evenodd" clip-rule="evenodd" fill="#F46C60" d="M5.18,21.29c0.873,2.708,5.226-3.796,9.776-9.547
	C17.894,8.041,2.551,13.147,5.18,21.29z"/>
<path fill-rule="evenodd" clip-rule="evenodd" fill="#F46C60" d="M38.959,14.384c0.239,1.658,3.378-1.584,6.556-4.373
	C47.566,8.219,38.242,9.399,38.959,14.384z"/>
</svg>
