<?xml version="1.0" encoding="utf-8"?>
<!-- Generator: Adobe Illustrator 15.0.0, SVG Export Plug-In . SVG Version: 6.00 Build 0)  -->
<!DOCTYPE svg PUBLIC "-//W3C//DTD SVG 1.1//EN" "http://www.w3.org/Graphics/SVG/1.1/DTD/svg11.dtd">
<svg version="1.1" id="Layer_1" xmlns="http://www.w3.org/2000/svg" xmlns:xlink="http://www.w3.org/1999/xlink" x="0px" y="0px"
	 width="64px" height="64px" viewBox="0 0 64 64" enable-background="new 0 0 64 64" xml:space="preserve">
<path fill="#E81C27" d="M42.039,12.425c8.815-1.419,16.055,4.503,17.717,12.287c0.102,0.482,0.746,0.325,0.766-0.223
	c0.299-8.311-6.771-16.936-18.355-12.958C41.665,11.703,41.566,12.5,42.039,12.425z"/>
<path fill="#E81C27" d="M46.902,8.546c7.197-1.16,13.108,3.676,14.465,10.032c0.084,0.394,0.609,0.265,0.625-0.182
	c0.244-6.786-5.528-13.827-14.986-10.58C46.596,7.957,46.517,8.608,46.902,8.546z"/>
<path fill="#E81C27" d="M21.961,12.425c-8.816-1.419-16.056,4.503-17.716,12.287c-0.103,0.482-0.748,0.325-0.767-0.223
	C3.18,16.178,10.25,7.554,21.833,11.531C22.335,11.703,22.433,12.5,21.961,12.425z"/>
<path fill="#E81C27" d="M17.098,8.546C9.9,7.386,3.989,12.222,2.633,18.578c-0.084,0.394-0.61,0.265-0.626-0.182
	C1.764,11.61,7.536,4.569,16.995,7.816C17.404,7.957,17.483,8.608,17.098,8.546z"/>
<path fill="#E81C27" d="M32.234,21.156c-6.633-10.865-25-6.619-25,7.03c0,9.164,8.47,15.294,25,28.814
	c16.529-13.521,25-19.65,25-28.814C57.234,14.537,38.867,10.291,32.234,21.156z"/>
<path fill="#C21413" d="M31.493,22.511c0.261-0.613,0.741-1.355,0.741-1.355c-1.809-3.059-4.461-4.382-4.461-4.382
	C30.568,19.383,31.493,22.511,31.493,22.511z"/>
<path fill="#C21413" d="M46.768,15.376c3.616,2.166,6.236,5.976,6.236,11.129c0,8.346-9.584,18.038-18.49,26.281
	c-2.789,2.58-2.279,2.258-10.236-2.278c1.015,0.825,6.873,5.605,7.957,6.492c16.529-13.521,25-19.65,25-28.814
	C57.234,21.172,52.383,16.65,46.768,15.376z"/>
<path fill-rule="evenodd" clip-rule="evenodd" fill="#F46C60" d="M10.219,26.196c0.408,2.894,5.781-2.768,11.222-7.635
	C24.952,15.431,8.991,17.492,10.219,26.196z"/>
<path fill-rule="evenodd" clip-rule="evenodd" fill="#F46C60" d="M34.357,22.227c0.238,1.692,3.382-1.62,6.564-4.467
	C42.976,15.929,33.639,17.134,34.357,22.227z"/>
</svg>
