<?xml version="1.0" encoding="utf-8"?>
<!-- Generator: Adobe Illustrator 15.0.0, SVG Export Plug-In . SVG Version: 6.00 Build 0)  -->
<!DOCTYPE svg PUBLIC "-//W3C//DTD SVG 1.1//EN" "http://www.w3.org/Graphics/SVG/1.1/DTD/svg11.dtd">
<svg version="1.1" id="Layer_1" xmlns="http://www.w3.org/2000/svg" xmlns:xlink="http://www.w3.org/1999/xlink" x="0px" y="0px"
	 width="64px" height="64px" viewBox="0 0 64 64" enable-background="new 0 0 64 64" xml:space="preserve">
<rect x="2" y="60" fill="#302C3B" width="60" height="2"/>
<polygon fill="#FF8FA8" points="60,60 4,60 4,42 32,32 60,42 "/>
<polygon fill="#E84D88" points="22,36.012 4,43.205 4,47.204 22,40.004 "/>
<polygon fill="#B00505" points="22,34.008 2,42 2,46 22,38 "/>
<polygon fill="#E84D88" points="60,47.197 42,40.004 42,36.004 60,42.992 "/>
<polygon fill="#B00505" points="62,45.992 42,38 42,34 62,42 "/>
<polygon fill="#F6BEC1" points="46,60 18,60 18,26.879 32,22 46,26.879 "/>
<polygon fill="#F9C802" points="40,8 34,8 34,2 30,2 30,8 24,8 24,12 30,12 30,22 34,22 34,12 40,12 "/>
<polygon fill="#FFE463" points="33.753,7.625 33.753,2.365 30.247,2.365 33.395,2.776 "/>
<polygon fill="#FFE463" points="39.721,11.51 39.721,8.349 36.215,8.349 39.362,8.76 "/>
<rect x="18" y="60" fill="#BEC3CF" width="28" height="2"/>
<rect x="17" y="61" fill="#99A8AE" width="30" height="1"/>
<polygon fill="#FFFFFF" points="40,34.523 38.703,31.385 34.117,35.123 "/>
<polygon fill="#FFFFFF" points="36.613,29.299 33.477,28 32.875,33.883 "/>
<polygon fill="#FFFFFF" points="39.998,37.482 38.703,40.615 34.117,36.877 "/>
<polygon fill="#FFFFFF" points="36.611,42.703 33.477,44 32.875,38.123 "/>
<polygon fill="#FFFFFF" points="24,37.482 25.297,40.615 29.881,36.877 "/>
<polygon fill="#FFFFFF" points="27.385,42.703 30.523,44 31.125,38.123 "/>
<polygon fill="#FFFFFF" points="24.002,34.523 25.297,31.383 29.883,35.123 "/>
<polygon fill="#FFFFFF" points="27.389,29.299 30.523,28.002 31.125,33.883 "/>
<polygon fill="#8C0B5E" points="58,50.076 57.189,48.115 54.324,50.453 "/>
<polygon fill="#8C0B5E" points="55.885,46.811 53.922,46 53.547,49.674 "/>
<polygon fill="#8C0B5E" points="57.998,51.926 57.189,53.887 54.322,51.549 "/>
<polygon fill="#8C0B5E" points="55.883,55.191 53.922,56 53.547,52.326 "/>
<polygon fill="#8C0B5E" points="48,51.926 48.811,53.887 51.676,51.549 "/>
<polygon fill="#8C0B5E" points="50.115,55.191 52.078,56 52.453,52.326 "/>
<polygon fill="#8C0B5E" points="48.002,50.076 48.811,48.113 51.678,50.453 "/>
<polygon fill="#8C0B5E" points="50.117,46.811 52.078,46 52.453,49.674 "/>
<polygon fill="#8C0B5E" points="16,50.076 15.189,48.115 12.324,50.453 "/>
<polygon fill="#8C0B5E" points="13.885,46.811 11.922,46 11.547,49.674 "/>
<polygon fill="#8C0B5E" points="15.998,51.926 15.189,53.887 12.322,51.549 "/>
<polygon fill="#8C0B5E" points="13.883,55.191 11.922,56 11.547,52.326 "/>
<polygon fill="#8C0B5E" points="6,51.926 6.811,53.887 9.676,51.549 "/>
<polygon fill="#8C0B5E" points="8.115,55.191 10.078,56 10.453,52.326 "/>
<polygon fill="#8C0B5E" points="6.002,50.076 6.811,48.113 9.678,50.453 "/>
<polygon fill="#8C0B5E" points="8.117,46.811 10.078,46 10.453,49.674 "/>
<polygon fill="#FF8FA8" points="31.996,22 18,27.51 18,31.258 32.039,26 46,31.242 46,27.385 "/>
<polygon fill="#B00505" points="31.996,20 16.061,26 16.018,30 32.039,24 48.02,30 48.02,26 "/>
<path fill="#FB367D" d="M11,10.864C8.612,6.984,2,8.5,2,13.375c0,3.273,3.049,5.463,9,10.291c5.951-4.828,9-7.018,9-10.291
	C20,8.5,13.388,6.984,11,10.864z"/>
<path fill="#FB367D" d="M53,10.864c-2.388-3.88-9-2.364-9,2.511c0,3.273,3.05,5.463,9,10.291c5.95-4.828,9-7.018,9-10.291
	C62,8.5,55.388,6.984,53,10.864z"/>
<path fill="#FF8FA8" d="M26,52.368V60h12v-7.632C38,43.812,26,43.944,26,52.368z"/>
<path fill="#FB367D" d="M27,52.149V60h10v-7.851C37,45.284,27,45.284,27,52.149z"/>
<path fill="#FF8FA8" d="M33,48.001V54h3v-1.999C35.883,49.558,34.504,48.231,33,48.001z"/>
<path fill="#FF8FA8" d="M28,52.001V54h3v-5.999C29.496,48.251,28.119,49.593,28,52.001z"/>
<rect x="33" y="55" fill="#FF8FA8" width="3" height="4"/>
<rect x="28" y="55" fill="#FF8FA8" width="3" height="4"/>
</svg>
