<?xml version="1.0" encoding="utf-8"?>
<!-- Generator: Adobe Illustrator 15.0.0, SVG Export Plug-In . SVG Version: 6.00 Build 0)  -->
<!DOCTYPE svg PUBLIC "-//W3C//DTD SVG 1.1//EN" "http://www.w3.org/Graphics/SVG/1.1/DTD/svg11.dtd">
<svg version="1.1" id="Layer_1" xmlns="http://www.w3.org/2000/svg" xmlns:xlink="http://www.w3.org/1999/xlink" x="0px" y="0px"
	 width="64px" height="64px" viewBox="0 0 64 64" enable-background="new 0 0 64 64" xml:space="preserve">
<polygon fill="#CFD8DD" points="9.813,11.559 6.014,11.236 2,2 11.225,6.019 11.55,9.821 "/>
<polygon fill="#014D87" points="20.033,21.768 9.822,11.547 11.562,9.811 21.84,20.097 "/>
<polygon fill="#013366" points="20.033,21.768 11.494,13.221 13.825,12.076 21.84,20.097 "/>
<polygon fill="#6E8189" points="11.55,9.821 9.813,11.559 8.634,11.458 8.634,11.458 9.294,6.769 2,2 11.225,6.019 "/>
<polygon fill="#E6EBEF" points="9.035,8.185 10.039,10.052 8.176,9.042 7.155,10.64 7.305,8.277 3.965,3.965 8.271,7.316 
	10.629,7.164 "/>
<path fill="#E81C27" d="M34,18.383C26.571,6.207,6,10.965,6,26.259c0,10.269,9.486,17.138,28,32.288
	C52.513,43.398,62,36.528,62,26.26C62,10.966,41.43,6.208,34,18.383z"/>
<path fill="#C21413" d="M33.17,19.901c0.293-0.687,0.83-1.518,0.83-1.518c-2.025-3.428-4.996-4.911-4.996-4.911
	C32.134,16.396,33.17,19.901,33.17,19.901z"/>
<path fill="#C21413" d="M50.277,11.907c4.05,2.426,6.984,6.696,6.984,12.471c0,9.351-10.734,20.212-20.71,29.449
	C33.43,56.718,34,56.354,25.088,51.271c1.136,0.927,7.698,6.282,8.912,7.275C52.513,43.398,62,36.528,62,26.26
	C62,18.4,56.566,13.334,50.277,11.907z"/>
<path fill-rule="evenodd" clip-rule="evenodd" fill="#F46C60" d="M9.343,24.031c0.458,3.243,6.475-3.101,12.569-8.556
	C25.844,11.968,7.969,14.276,9.343,24.031z"/>
<path fill-rule="evenodd" clip-rule="evenodd" fill="#F46C60" d="M36.378,19.582c0.267,1.897,3.787-1.814,7.353-5.005
	C46.03,12.525,35.573,13.875,36.378,19.582z"/>
<path fill="#014D87" d="M55.371,57.134l-22.1-22.118l1.83-1.643l22.004,22.022c0.241,0.24,0.045,0.824-0.432,1.304
	C56.193,57.177,55.608,57.371,55.371,57.134z"/>
<path fill="#013366" d="M34.391,36.137l-1.119-1.121l1.83-1.643l1.486,1.486C35.181,35.36,34.391,36.137,34.391,36.137z"/>
<path fill="#018BC9" d="M47.79,58.237c-0.404-0.407-0.002-3.019-0.002-3.019S47.079,57.2,46.58,57.03
	c-0.436-0.152-1.303-0.984-1.417-1.421c-0.241-0.945,0.364-3.98,0.364-3.98s-0.627,3.014-1.572,2.771
	c-0.408-0.104-1.324-1.324-1.324-1.324c1.14-3.204,0.738-7.955,0.738-7.955l10.308,10.319c0,0-0.813,7.877-2.317,6.368
	C50.149,60.602,49.325,59.77,47.79,58.237z"/>
<path fill="#FFE12C" d="M52.593,54.354c-0.404,2.771-0.957,5.558-1.694,6.993c-0.338-0.339-0.76-0.756-1.212-1.21
	c0.536-1.347,1.127-4.274,1.531-7.156L52.593,54.354z"/>
<path fill="#018BC9" d="M58.212,47.812c-0.41-0.407-3.017,0-3.017,0s1.977-0.712,1.807-1.21c-0.149-0.439-0.984-1.308-1.42-1.422
	c-0.945-0.243-3.976,0.363-3.976,0.363s3.01-0.626,2.77-1.571c-0.104-0.406-1.324-1.324-1.324-1.324
	c-3.201,1.143-7.949,0.733-7.949,0.733L55.41,53.697c0,0,7.872-0.813,6.369-2.316C60.569,50.173,59.743,49.345,58.212,47.812z"/>
<path fill="#FFE12C" d="M54.332,52.614c2.769-0.399,5.55-0.963,6.986-1.695c-0.344-0.342-0.758-0.756-1.213-1.212
	c-1.345,0.533-4.27,1.13-7.148,1.535L54.332,52.614z"/>
<path fill-rule="evenodd" clip-rule="evenodd" fill="#B00505" d="M30.814,38.473c0.146,2.466,1.05-4.904,9.641-6.21
	C43.412,31.812,30.248,28.843,30.814,38.473z"/>
</svg>
