<?xml version="1.0" encoding="utf-8"?>
<!-- Generator: Adobe Illustrator 15.0.0, SVG Export Plug-In . SVG Version: 6.00 Build 0)  -->
<!DOCTYPE svg PUBLIC "-//W3C//DTD SVG 1.1//EN" "http://www.w3.org/Graphics/SVG/1.1/DTD/svg11.dtd">
<svg version="1.1" id="Layer_1" xmlns="http://www.w3.org/2000/svg" xmlns:xlink="http://www.w3.org/1999/xlink" x="0px" y="0px"
	 width="64px" height="64px" viewBox="0 0 64 64" enable-background="new 0 0 64 64" xml:space="preserve">
<path fill="#529320" d="M13.864,13.936C15.119,12.681,34.497,32.3,34.497,32.3l-2.267,2.268
	C32.23,34.567,12.609,15.19,13.864,13.936z"/>
<path fill="#E84D88" d="M20.143,9.65c4.98,4.979,4.764,9.461,1.867,12.358c-2.898,2.897-7.38,3.114-12.36-1.866
	C4.67,15.163,3.974,3.974,3.974,3.974S15.162,4.67,20.143,9.65z"/>
<path fill="#C72865" d="M9.238,4.734c0,0,1.693,1.512,0.995,5.499c-3.987,0.698-5.499-0.995-5.499-0.995s1.158,6.404,3.9,9.146
	c2.743,2.743,12.493-7.008,9.75-9.75C15.643,5.893,9.238,4.734,9.238,4.734z"/>
<path fill="#E84D88" d="M14.079,11.049c10.888-2.491,12.368,8.052,8.558,11.862c-3.81,3.81-10.813,2.983-15.644-1.847
	C2.164,16.235,2,8.569,2,8.569S6.063,12.885,14.079,11.049z"/>
<path fill="#C72865" d="M11.455,11.455c-2.396,4.389-2.69,7.654-1.814,9.899c-2.195-1.047-4.23-2.729-5.978-5.405
	c5.012,11.364,15.164,10.771,18.974,6.962L11.455,11.455z"/>
<path fill="#E84D88" d="M11.049,14.08c-2.491,10.887,8.053,12.366,11.862,8.557s2.983-10.813-1.847-15.644
	C16.234,2.164,8.569,2,8.569,2S12.884,6.063,11.049,14.08z"/>
<path fill="#FF669F" d="M13.552,3.79c5.831,3.952,11.177,9.547,6.166,19.442c2.124-0.815,4.067-3.225,4.517-5.206
	C25.466,12.598,20.684,6.224,13.552,3.79z"/>
<path fill="#529320" d="M35.195,16.038c1.774,0,1.603,27.575,1.603,27.575h-3.206C33.592,43.613,33.42,16.038,35.195,16.038z"/>
<path fill="#F9C802" d="M42.664,17.447c0,7.043-3.32,10.059-7.419,10.059c-4.097,0-7.42-3.016-7.42-10.059S35.245,2,35.245,2
	S42.664,10.404,42.664,17.447z"/>
<path fill="#F59E01" d="M38.43,6.261c0,0,0.128,2.267-3.185,4.592c-3.313-2.325-3.185-4.592-3.185-4.592s-3.709,5.348-3.709,9.226
	c0,3.879,13.789,3.879,13.789,0C42.141,11.608,38.43,6.261,38.43,6.261z"/>
<path fill="#F9C802" d="M37.388,14.149c9.46,5.937,3.053,14.438-2.337,14.438c-5.387,0-9.756-5.537-9.756-12.367
	S30.6,3.854,30.6,3.854S30.422,9.778,37.388,14.149z"/>
<path fill="#F59E01" d="M35.245,12.581c-4.798,1.408-7.315,3.51-8.283,5.717c-0.812-2.293-1.062-4.921-0.404-8.049
	c-4.491,11.579,3.106,18.339,8.493,18.339L35.245,12.581z"/>
<path fill="#F9C802" d="M33.102,14.149c-9.46,5.937-3.051,14.438,2.338,14.438c5.387,0,9.756-5.537,9.756-12.367
	S39.891,3.854,39.891,3.854S40.068,9.778,33.102,14.149z"/>
<path fill="#FFE12C" d="M42.147,8.644c1.329,6.917,1.152,14.653-9.388,18.107c2.078,0.926,5.156,0.596,6.875-0.487
	C44.344,23.296,45.471,15.407,42.147,8.644z"/>
<path fill="#529320" d="M16.039,34.059c0-1.775,27.574-1.604,27.574-1.604v3.207C43.613,35.662,16.039,35.834,16.039,34.059z"/>
<path fill="#E81C27" d="M17.447,26.589c7.043,0,10.059,3.321,10.059,7.419s-3.016,7.42-10.059,7.42S2,34.008,2,34.008
	S10.404,26.589,17.447,26.589z"/>
<path fill="#B00505" d="M6.261,30.823c0,0,2.267-0.128,4.592,3.185c-2.325,3.313-4.592,3.185-4.592,3.185s5.348,3.71,9.226,3.71
	c3.879,0,3.879-13.789,0-13.789C11.608,27.113,6.261,30.823,6.261,30.823z"/>
<path fill="#E81C27" d="M14.149,31.865c5.937-9.46,14.438-3.053,14.438,2.338c0,5.387-5.537,9.756-12.367,9.756
	S3.854,38.654,3.854,38.654S9.778,38.832,14.149,31.865z"/>
<path fill="#B00505" d="M12.581,34.008c1.408,4.798,3.511,7.315,5.718,8.283c-2.293,0.813-4.922,1.063-8.05,0.404
	c11.579,4.492,18.339-3.105,18.339-8.492L12.581,34.008z"/>
<path fill="#E81C27" d="M14.149,36.151c5.937,9.46,14.438,3.052,14.438-2.337c0-5.387-5.537-9.756-12.367-9.756
	S3.854,29.363,3.854,29.363S9.778,29.186,14.149,36.151z"/>
<path fill="#FF3D3D" d="M8.644,27.105c6.917-1.328,14.653-1.152,18.108,9.389c0.926-2.078,0.596-5.157-0.488-6.875
	C23.297,24.909,15.407,23.783,8.644,27.105z"/>
<path fill="#92C932" d="M43.637,22.521c-1.895,7.543,5.102,19.7,5.102,19.7l2.006-1.162c-3.535-16.218,1.37-35.622,1.37-35.622
	S45.75,14.086,43.637,22.521z"/>
<path fill="#92C932" d="M25.307,39.305c5.158,4.228,20.69,2.269,20.69,2.269l0.437-2.149c-16.555-2.445-29.795-13.354-29.795-13.354
	S19.541,34.577,25.307,39.305z"/>
<path fill="#92C932" d="M24.168,40.847c6.912-4.38,21.723-2.807,21.723-2.807l-0.438,2.147
	c-17.645,2.881-35.414,14.182-35.414,14.182S16.435,45.743,24.168,40.847z"/>
<path fill="#92C932" d="M31.742,26.375c1.462,6.904,13.832,13.534,13.832,13.534l1.484-1.834
	C36.338,26.633,32.611,8.848,32.611,8.848S30.109,18.649,31.742,26.375z"/>
<polygon fill="#92C932" points="58.285,59.316 55.616,62 52.887,59.254 55.56,56.572 "/>
<polygon fill="#529320" points="60.958,58.059 58.285,60.741 55.457,57.84 58.129,55.158 "/>
<polygon fill="#92C932" points="56.604,55.543 59.33,58.286 62,55.603 59.275,52.857 "/>
<path fill="#0FB4D4" d="M16.535,52.297c3.203,1.188,20.854-7.321,32.883,6.087c3.69,4.114,12.777-5.497,11.273-7.011
	c-12.386-12.435-5.278-24.39-10.195-30.401c-3.447,0.779-11.845,6.399-18.715,12.616C34.729,39.03,19.699,46.467,16.535,52.297z"/>
<path fill="#006DAE" d="M27.385,41.974c6.248,1.632,16.326,11.188,26.904,15.875c1.105,0.49-12.678-6.946-22.508-24.261
	C31.781,33.588,33.45,36.262,27.385,41.974z"/>
<path fill="#F0525C" d="M57.535,47.672c-1.439,1.416-4.46,9.432-8.864,9.915c-1.64,0.18-6.732-3.131-5.163-3.97
	c5.281-2.818,7.29-10.314,11.141-11.184C56.297,42.061,58.832,46.396,57.535,47.672z"/>
</svg>
