<?xml version="1.0" encoding="utf-8"?>
<!-- Generator: Adobe Illustrator 15.0.0, SVG Export Plug-In . SVG Version: 6.00 Build 0)  -->
<!DOCTYPE svg PUBLIC "-//W3C//DTD SVG 1.1//EN" "http://www.w3.org/Graphics/SVG/1.1/DTD/svg11.dtd">
<svg version="1.1" id="Layer_1" xmlns="http://www.w3.org/2000/svg" xmlns:xlink="http://www.w3.org/1999/xlink" x="0px" y="0px"
	 width="64px" height="64px" viewBox="0 0 64 64" enable-background="new 0 0 64 64" xml:space="preserve">
<path fill="#75D6FF" d="M11.996,10.953C5.649,19.632,2,27.625,2,34.187c0,5.574,4.479,10.1,10,10.1c5.525,0,10-4.525,10-10.1
	C22,27.625,18.245,19.498,11.996,10.953z"/>
<path opacity="0.3" fill="#0FB4D4" d="M19.641,24.067c0.419,1.763,0.646,3.447,0.646,5.042c0,5.574-4.442,10.099-9.922,10.099
	c-3.499,0-6.559-1.852-8.328-4.631c0.208,5.392,4.573,9.709,9.963,9.709c5.525,0,10-4.525,10-10.1
	C22,31.119,21.149,27.701,19.641,24.067z"/>
<path opacity="0.5" fill="#FFFFFF" d="M6.638,28.266c-3.295-1.025,3.214-11.67,4.622-13.541
	C12.537,13.032,12.692,30.151,6.638,28.266z"/>
<path fill="#75D6FF" d="M29.276,31.805c-1.157,10.69-0.321,19.436,2.96,25.12c2.787,4.827,8.93,6.507,13.711,3.746
	c4.784-2.762,6.396-8.919,3.609-13.746C46.275,41.241,38.96,36.081,29.276,31.805z"/>
<path opacity="0.3" fill="#0FB4D4" d="M42.453,39.341c1.244,1.316,2.284,2.661,3.082,4.043c2.787,4.827,1.202,10.967-3.544,13.707
	c-3.03,1.75-6.605,1.676-9.527,0.154c2.876,4.565,8.814,6.121,13.483,3.426c4.784-2.762,6.396-8.919,3.609-13.746
	C48.023,44.268,45.577,41.732,42.453,39.341z"/>
<path opacity="0.5" fill="#FFFFFF" d="M33.293,49.479c-3.367,0.76-3.052-11.714-2.769-14.038
	C30.784,33.335,39.479,48.083,33.293,49.479z"/>
<path fill="#75D6FF" d="M21.052,2.66c5.89,13.336,12.8,23.039,20.507,27.489c6.545,3.778,14.896,1.587,18.639-4.896
	c3.745-6.486,1.465-14.81-5.08-18.589C47.411,2.214,35.322,1.116,21.052,2.66z"/>
<path opacity="0.3" fill="#0FB4D4" d="M41.634,2.575c2.354,0.701,4.486,1.577,6.358,2.658c6.546,3.778,8.848,12.062,5.133,18.498
	c-2.371,4.109-6.621,6.446-11.084,6.64c6.473,3.412,14.501,1.213,18.156-5.118c3.745-6.486,1.465-14.81-5.08-18.589
	C51.514,4.583,46.923,3.266,41.634,2.575z"/>
<path opacity="0.5" fill="#FFFFFF" d="M37.75,20.69C34.312,23.864,26.225,9.003,24.982,6.083
	C23.859,3.434,44.066,14.857,37.75,20.69z"/>
</svg>
