<?xml version="1.0" encoding="utf-8"?>
<!-- Generator: Adobe Illustrator 15.0.0, SVG Export Plug-In . SVG Version: 6.00 Build 0)  -->
<!DOCTYPE svg PUBLIC "-//W3C//DTD SVG 1.1//EN" "http://www.w3.org/Graphics/SVG/1.1/DTD/svg11.dtd">
<svg version="1.1" id="Layer_1" xmlns="http://www.w3.org/2000/svg" xmlns:xlink="http://www.w3.org/1999/xlink" x="0px" y="0px"
	 width="64px" height="64px" viewBox="0 0 64 64" enable-background="new 0 0 64 64" xml:space="preserve">
<path fill="#EBBEA0" d="M2.131,42.107C1.205,35.271,5.418,24.251,7.383,9.439C7.734,6.787,21.41,4,27.772,4
	c1.649,0,3.336,7.219,2.922,9.834c-0.3,1.9-3.273,1.697-3.273,1.697c-0.9,2.523-3.561,1.543-3.561,1.543
	c-0.78,2.15-3.202,1.148-3.202,1.148c-1,2.004-3.221,1.021-3.221,1.021c-2.002,8.723,1.712,7.945,4.42,21.168
	c0,0,0.76-0.137,2.885-4.449c8.602-17.454,38.805-11.872,37.012,6.801c-0.4,4.172,3.953,10.963-12.285,16.068
	c-12.885,4.047-28.73-3.717-28.73-3.717c-5.402,1.67-15.879,1.561-16.189-2.459C4.189,47.992,2.607,45.619,2.131,42.107z"/>
<path fill="#BF8D69" d="M61.754,42.764c0.426-4.428-0.906-8.012-3.26-10.715c1.426,2.399,2.146,5.319,1.818,8.739
	c-0.4,4.174,3.953,10.965-12.285,16.066c-12.885,4.049-28.731-3.713-28.731-3.713c-4.218,1.305-11.606,1.525-14.729-0.359
	c0.412,3.902,10.828,3.986,16.172,2.334c0,0,15.846,7.764,28.73,3.717C65.707,53.727,61.354,46.936,61.754,42.764z"/>
<path fill="#BF8D69" d="M16.264,19.126c-2.527,10.281,1.553,9.836,4.279,22.87l1.439-1.5c-1.998-13.036-5.445-11.465-4.602-21.135
	C16.758,19.341,16.264,19.126,16.264,19.126z"/>
<path fill="#BF8D69" d="M29.223,48.42c8.313,3.125,20.813-0.064,27.938-3.377C53.973,52.545,37.473,56.543,29.223,48.42z"/>
<path fill="#BF8D69" d="M31.172,11.191c-0.252-2.213-1.01-4.404-2.35-6.197c2.08,5.172,2.537,8.543,0.539,9.949
	c-2.115,1.49-0.615-2.85-3.365-6.844c1.261,3.742,2.15,8.492,0.053,8.668c-3.394,0.285-0.771-2.934-3.354-6.938
	c0.61,2.066,1.251,7.967-0.501,7.986c-3.708,0.041-1.218-2.914-3.468-6.436c0.359,2.467,1.323,8.883-1.594,7.107
	c-1.212-0.736-1.206-3.09-1.336-4.381c0.342,0.436,0.831,0.994,1.448,0.938c-0.527-0.561-0.751-1.523-1.104-2.205
	c-0.323-0.561-0.979-1.895-1.752-1.916c0.12,0.24,0.77,1.887,0.67,2.061c-0.314,0.545-0.618,1.098-0.969,1.621
	c-0.296,0.439-1.156,1.84-1.853,1.416c-0.753-0.455-0.996-1.717-1.224-2.49c0.059,0.979,0.03,2.537,1,3.125
	c0.918,0.559,1.965-0.322,2.572-0.951c0.209,2.055,1.061,4.545,3.619,4.559c1.51,0.008,2.41-1.098,2.832-0.969
	c1.068,0.322,2.217,0.115,2.983-0.734c0.357-0.395,0.266-0.66,0.795-0.506c0.983,0.287,2.671,0.057,3.331-1.463
	c0.172-0.396,0.369-0.188,0.769-0.203C31.504,16.291,31.416,13.054,31.172,11.191C30.916,8.947,31.246,11.755,31.172,11.191z"/>
</svg>
