<?xml version="1.0" encoding="utf-8"?>
<!-- Generator: Adobe Illustrator 15.0.0, SVG Export Plug-In . SVG Version: 6.00 Build 0)  -->
<!DOCTYPE svg PUBLIC "-//W3C//DTD SVG 1.1//EN" "http://www.w3.org/Graphics/SVG/1.1/DTD/svg11.dtd">
<svg version="1.1" id="Layer_1" xmlns="http://www.w3.org/2000/svg" xmlns:xlink="http://www.w3.org/1999/xlink" x="0px" y="0px"
	 width="64px" height="64px" viewBox="0 0 64 64" enable-background="new 0 0 64 64" xml:space="preserve">
<path fill="#FFE12C" d="M59.682,13.795c1.717-5.236,1.227-14.881-16.584-3.182C24.952,22.534,6.239,50.335,7.614,55.358
	c1.09,3.98,17.273-5.045,26.007-17.191c0.744-1.035,8.662,8.766,7.578,9.842C33.363,55.796,8.256,65.698,3.004,60.603
	C-3.101,54.675,19.68,20.807,43.061,7.334C49.547,3.598,68.555-5.248,59.682,13.795L59.682,13.795z"/>
<path fill="#F9C802" d="M34.662,42.5c0.408-0.568,4.053,3.051,3.402,3.582c-11.986,9.793-23.902,13.043-26.986,12.835
	C7.667,58.687,26.079,54.417,34.662,42.5z"/>
<polygon fill="#F9C802" points="35.318,17.632 45.947,27.909 60.292,24.96 53.977,38.267 61.305,51.147 46.771,49.102 36.953,60.01 
	34.279,45.436 20.896,39.302 33.774,32.339 "/>
<polygon fill="#FFE463" points="36.525,21.014 36.818,34.204 24.691,38.782 35.26,33.072 "/>
<polygon fill="#F9B700" points="56.064,47.329 50.66,37.841 56.842,29.054 52.379,37.962 58.844,49.33 47.944,47.885 "/>
</svg>
