<?xml version="1.0" encoding="utf-8"?>
<!-- Generator: Adobe Illustrator 15.0.0, SVG Export Plug-In . SVG Version: 6.00 Build 0)  -->
<!DOCTYPE svg PUBLIC "-//W3C//DTD SVG 1.1//EN" "http://www.w3.org/Graphics/SVG/1.1/DTD/svg11.dtd">
<svg version="1.1" id="Layer_1" xmlns="http://www.w3.org/2000/svg" xmlns:xlink="http://www.w3.org/1999/xlink" x="0px" y="0px"
	 width="64px" height="64px" viewBox="0 0 64 64" enable-background="new 0 0 64 64" xml:space="preserve">
<path fill="#FDCA47" d="M2.131,42.106C1.205,35.271,5.418,24.252,7.383,9.439C7.734,6.786,21.41,4,27.771,4
	c1.65,0,3.336,7.218,2.922,9.833c-0.299,1.9-3.273,1.697-3.273,1.697c-0.9,2.523-3.561,1.543-3.561,1.543
	c-0.779,2.151-3.201,1.149-3.201,1.149c-1,2.003-3.221,1.021-3.221,1.021c-2.002,8.722,1.711,7.944,4.42,21.168
	c0,0,0.76-0.138,2.885-4.449c8.602-17.453,38.805-11.872,37.012,6.8c-0.4,4.172,3.953,10.964-12.285,16.068
	c-12.885,4.048-28.73-3.717-28.73-3.717c-5.402,1.671-15.879,1.561-16.189-2.458C4.189,47.992,2.607,45.618,2.131,42.106z"/>
<path fill="#CC9200" d="M61.754,42.763c0.426-4.428-0.906-8.011-3.26-10.715c1.426,2.399,2.146,5.318,1.818,8.738
	c-0.4,4.174,3.953,10.966-12.285,16.067c-12.885,4.049-28.732-3.714-28.732-3.714c-4.217,1.305-11.605,1.526-14.729-0.358
	c0.412,3.901,10.828,3.986,16.172,2.333c0,0,15.846,7.765,28.73,3.717C65.707,53.727,61.354,46.935,61.754,42.763z"/>
<path fill="#CC9200" d="M16.264,19.127c-2.527,10.28,1.553,9.836,4.279,22.869l1.439-1.501c-1.998-13.034-5.445-11.464-4.602-21.135
	C16.758,19.341,16.264,19.127,16.264,19.127z"/>
<path fill="#CC9200" d="M29.223,48.419c8.313,3.125,20.813-0.063,27.938-3.377C53.973,52.544,37.473,56.543,29.223,48.419z"/>
<path fill="#CC9200" d="M31.172,11.19c-0.252-2.213-1.01-4.404-2.35-6.196c2.08,5.171,2.537,8.542,0.539,9.949
	c-2.115,1.489-0.615-2.851-3.365-6.844c1.26,3.741,2.15,8.491,0.053,8.668c-3.395,0.284-0.771-2.935-3.355-6.938
	c0.611,2.066,1.252,7.967-0.5,7.986c-3.708,0.041-1.218-2.913-3.468-6.435c0.358,2.466,1.323,8.882-1.595,7.106
	c-1.211-0.736-1.205-3.089-1.336-4.38c0.342,0.435,0.832,0.994,1.449,0.938c-0.527-0.561-0.752-1.523-1.104-2.205
	c-0.324-0.561-0.979-1.895-1.752-1.916c0.119,0.239,0.77,1.887,0.67,2.06c-0.314,0.546-0.619,1.099-0.969,1.621
	c-0.297,0.44-1.156,1.84-1.854,1.417c-0.752-0.456-0.996-1.718-1.223-2.49c0.059,0.979,0.029,2.537,1,3.125
	c0.918,0.558,1.965-0.322,2.572-0.951c0.209,2.054,1.061,4.544,3.619,4.558c1.51,0.008,2.41-1.097,2.832-0.969
	c1.068,0.322,2.217,0.115,2.982-0.733c0.357-0.396,0.267-0.661,0.795-0.507c0.984,0.287,2.672,0.057,3.332-1.463
	c0.172-0.396,0.369-0.187,0.768-0.202C31.504,16.291,31.416,13.054,31.172,11.19C30.916,8.946,31.246,11.755,31.172,11.19z"/>
</svg>
