<?xml version="1.0" encoding="utf-8"?>
<!-- Generator: Adobe Illustrator 15.0.0, SVG Export Plug-In . SVG Version: 6.00 Build 0)  -->
<!DOCTYPE svg PUBLIC "-//W3C//DTD SVG 1.1//EN" "http://www.w3.org/Graphics/SVG/1.1/DTD/svg11.dtd">
<svg version="1.1" id="Layer_1" xmlns="http://www.w3.org/2000/svg" xmlns:xlink="http://www.w3.org/1999/xlink" x="0px" y="0px"
	 width="64px" height="64px" viewBox="0 0 64 64" enable-background="new 0 0 64 64" xml:space="preserve">
<ellipse fill="#99A8AE" cx="51.49" cy="34.629" rx="10.51" ry="11.77"/>
<ellipse fill="#99A8AE" cx="30.669" cy="42.426" rx="9.815" ry="10.993"/>
<ellipse fill="#99A8AE" cx="43.802" cy="47.13" rx="11.493" ry="12.87"/>
<ellipse fill="#99A8AE" cx="39.561" cy="29.761" rx="9.873" ry="11.056"/>
<ellipse fill="#99A8AE" cx="41.617" cy="15.056" rx="9.871" ry="11.056"/>
<ellipse fill="#99A8AE" cx="50.416" cy="20.784" rx="8.016" ry="8.975"/>
<ellipse fill="#99A8AE" cx="30.669" cy="20.785" rx="10.272" ry="11.503"/>
<g>
	<path fill="#99A8AE" d="M7.191,27.428c2.887-0.572,5.675-1.563,8.412-2.726c1.367-0.584,2.721-1.218,4.059-1.892
		c1.322-0.672,2.693-1.397,3.908-2.145c1.687-1.036,3.652,0.042,4.391,2.408c0.739,2.365-0.029,5.126-1.715,6.162
		c-0.396,0.244-0.807,0.369-1.213,0.392h-0.076c-1.589,0.078-3.043,0.038-4.553-0.019c-1.494-0.066-2.981-0.178-4.465-0.348
		C12.98,28.922,10.031,28.382,7.191,27.428z"/>
</g>
<g>
	<path fill="#99A8AE" d="M2.01,32.225c3.75-0.328,7.439-1.052,11.086-1.994c1.822-0.471,3.633-1.004,5.43-1.586
		c1.781-0.582,3.611-1.22,5.287-1.914c1.75-0.727,3.588,0.674,4.105,3.131s-0.48,5.037-2.232,5.764
		c-0.312,0.129-0.627,0.191-0.938,0.191l-0.033-0.002c-2.01-0.014-3.88-0.146-5.805-0.313c-1.908-0.172-3.811-0.397-5.701-0.688
		C9.428,34.232,5.67,33.419,2.01,32.225z"/>
</g>
<g>
	<path fill="#99A8AE" d="M7.182,42.521c2.823-0.959,5.719-1.664,8.625-2.25c1.455-0.291,2.916-0.547,4.381-0.774
		c1.476-0.226,2.918-0.433,4.451-0.581l0.041-0.006c1.834-0.176,3.424,1.77,3.551,4.347c0.125,2.573-1.26,4.806-3.096,4.982
		c-0.43,0.044-0.857-0.038-1.246-0.209c-1.303-0.589-2.703-1.146-4.07-1.675c-1.377-0.529-2.764-1.03-4.159-1.502
		C12.871,43.916,10.055,43.09,7.182,42.521z"/>
</g>
<g>
	<path fill="#99A8AE" d="M2,37.727c3.656-1.197,7.373-2.154,11.111-2.973c1.871-0.404,3.748-0.773,5.631-1.105
		c1.893-0.332,3.753-0.639,5.707-0.879h0.01c1.818-0.227,3.421,1.66,3.581,4.213c0.161,2.55-1.185,4.799-3.002,5.022
		c-0.324,0.042-0.655,0.009-0.959-0.079c-1.755-0.509-3.606-0.971-5.427-1.4c-1.829-0.428-3.668-0.825-5.51-1.184
		C9.456,38.627,5.745,38.055,2,37.727z"/>
</g>
<path fill="#FFFFFF" d="M42.915,29.128c3.567,3.738,5.621,8.571,6.244,13.864c3.015-6.568,2.608-13.783-1.63-18.225
	c-4.104-4.301-10.668-4.836-16.76-2.014C35.391,23.566,39.604,25.654,42.915,29.128z"/>
<path fill="#FFFFFF" d="M34.463,15.999c2.219,2.323,3.492,5.328,3.881,8.616c1.873-4.081,1.621-8.565-1.015-11.326
	c-2.55-2.672-6.628-3.006-10.413-1.25C29.787,12.544,32.406,13.842,34.463,15.999z"/>
<path fill="#FFFFFF" d="M52.743,17.542c1.442,1.513,2.271,3.468,2.524,5.61c1.221-2.657,1.055-5.576-0.66-7.375
	c-1.658-1.737-4.313-1.954-6.777-0.813C49.699,15.294,51.402,16.139,52.743,17.542z"/>
<path fill="#FFFFFF" d="M35.289,37.641c2.068,2.17,3.259,4.971,3.621,8.045c1.749-3.812,1.513-7.998-0.946-10.576
	c-2.38-2.494-6.188-2.803-9.722-1.164C30.923,34.416,33.367,35.626,35.289,37.641z"/>
<path fill="#FFFFFF" d="M54.676,30.689c2.219,2.322,3.492,5.326,3.881,8.615c1.873-4.08,1.621-8.563-1.014-11.326
	c-2.55-2.672-6.629-3.006-10.413-1.25C50,27.234,52.619,28.532,54.676,30.689z"/>
<path fill="#FFFFFF" d="M44.336,11.615c2.219,2.322,3.492,5.326,3.881,8.615c1.873-4.08,1.621-8.564-1.015-11.325
	c-2.55-2.673-6.628-3.007-10.412-1.25C39.66,8.16,42.279,9.458,44.336,11.615z"/>
</svg>
