<?xml version="1.0" encoding="utf-8"?>
<!-- Generator: Adobe Illustrator 15.0.0, SVG Export Plug-In . SVG Version: 6.00 Build 0)  -->
<!DOCTYPE svg PUBLIC "-//W3C//DTD SVG 1.1//EN" "http://www.w3.org/Graphics/SVG/1.1/DTD/svg11.dtd">
<svg version="1.1" id="Layer_1" xmlns="http://www.w3.org/2000/svg" xmlns:xlink="http://www.w3.org/1999/xlink" x="0px" y="0px"
	 width="64px" height="64px" viewBox="0 0 64 64" enable-background="new 0 0 64 64" xml:space="preserve">
<path fill="#302C3B" d="M47.522,39.422c0-12.466-10.194-22.578-22.761-22.579C12.188,16.843,2,26.956,2,39.422
	C2,51.893,12.188,61.998,24.761,62C37.328,62,47.522,51.893,47.522,39.422z"/>
<path fill-rule="evenodd" clip-rule="evenodd" fill="#4E5E67" d="M40.515,35.695c-0.694,4.861-9.869-4.65-19.156-12.826
	C15.364,17.61,42.612,21.073,40.515,35.695z"/>
<path fill="#1A1626" d="M38.799,57.174c-2.176,0.488-4.416,0.773-6.736,0.773c-14.496,0-26.592-10.18-29.432-23.729
	C2.229,35.891,2.003,37.627,2,39.42c0.003,12.469,10.187,22.572,22.764,22.578C30.065,61.992,34.923,60.18,38.799,57.174z"/>
<path fill="#302C3B" d="M47.332,24.453l-3.388,3.361c-1.694,1.681-9.996-6.554-8.301-8.234l3.388-3.361L47.332,24.453z"/>
<path fill="#1A1626" d="M38.712,19.98c-0.732,0.727-1.946,2.26-0.188,4.976c-2.635-2.175-3.819-4.447-2.972-5.288l3.479-3.45
	C38.712,17.179,39.653,19.047,38.712,19.98z"/>
<path fill="#4E5E67" d="M39.031,16.218c-1.694,1.68,6.607,9.915,8.301,8.234C49.027,22.771,40.727,14.537,39.031,16.218z"/>
<path fill="#1A1626" d="M40.993,17.801c-0.847,0.84,3.896,5.547,4.743,4.706C46.584,21.666,41.84,16.961,40.993,17.801z"/>
<path fill="#B47D56" d="M41.913,19.899c1.123-1.163,8.004-5.208,10.2-7.293c0.856-0.813,1.932,0.922,1.548,1.36
	c-2.136,2.432-9.306,6.318-10.362,7.354C42.472,20.688,41.913,19.899,41.913,19.899z"/>
<path fill="#785647" d="M43.014,19.023c-0.268,1.07,0.769,1.908,0.769,1.908l-0.483,0.388c-0.827-0.63-1.386-1.42-1.386-1.42
	C42.235,19.539,43.014,19.023,43.014,19.023z"/>
<polygon fill="#EF4E16" points="56.617,13.589 61.313,12.028 56.532,11.256 61.242,7.415 55.611,8.909 56.719,2 52.842,8.221 
	49.775,2.375 50.092,9.067 44.764,5.633 48.065,10.652 41.389,12.45 50.465,15.125 54.061,22.25 54.854,16.349 62,18.307 "/>
<polygon fill="#FFE12C" points="53.905,14.702 57.846,16.082 54.949,13.143 57.525,12.211 55.036,11.565 57.511,9.314 
	54.435,10.222 54.891,6.726 52.998,9.873 51.01,6.68 51.309,10.559 47.969,8.581 49.873,11.492 45.453,12.382 51.432,13.834 
	53.277,17.777 "/>
<polygon fill="#FFFFFF" points="53.223,13.438 54.891,14.022 53.664,12.777 54.753,12.383 53.699,12.11 54.748,11.157 
	53.445,11.541 53.639,10.062 52.838,11.393 51.996,10.041 52.121,11.684 50.707,10.846 51.513,12.079 49.888,12.525 52.07,13.131 
	52.955,14.741 "/>
</svg>
