<?xml version="1.0" encoding="utf-8"?>
<!-- Generator: Adobe Illustrator 15.0.0, SVG Export Plug-In . SVG Version: 6.00 Build 0)  -->
<!DOCTYPE svg PUBLIC "-//W3C//DTD SVG 1.1//EN" "http://www.w3.org/Graphics/SVG/1.1/DTD/svg11.dtd">
<svg version="1.1" id="Layer_1" xmlns="http://www.w3.org/2000/svg" xmlns:xlink="http://www.w3.org/1999/xlink" x="0px" y="0px"
	 width="64px" height="64px" viewBox="0 0 64 64" enable-background="new 0 0 64 64" xml:space="preserve">
<path fill="#E6EBEF" d="M9.899,50.872c-1.941,6.086,10.281,9.912,12.224,3.826C23.891,49.151,11.667,45.323,9.899,50.872z"/>
<path fill="#E6EBEF" d="M5.138,56.753c-2.873,2.178,0.736,6.861,3.609,4.684C11.321,59.485,7.713,54.804,5.138,56.753z"/>
<path fill="#E6EBEF" d="M59.028,16.138c0.17-5.531-4.785-9.187-8.464-8.169c-3.347-5.633-9.747-5.436-13.419-2.828
	c-5.861-5.773-15.281-3.15-17.654,4.32C10.554,4.291,1.247,15.013,5.04,21.976c-8.016,8.412,1.205,22.789,11.607,19
	c1.748,7.529,14.846,11.27,20.108,2.746c3.829,4.078,12.36,0.836,11.866-4.301c6.748,2.416,12.408-4.332,10.342-10.158
	C62.796,26.489,63.2,19.218,59.028,16.138z"/>
<path fill="#BEC3CF" d="M59.028,16.138c0.163-5.299-4.377-8.867-7.992-8.261c2.565,1.002,4.842,3.787,4.729,7.453
	c3.934,2.904,3.553,9.758-0.061,12.373c1.947,5.492-3.388,11.855-9.75,9.576c0.466,4.844-7.577,7.9-11.188,4.057
	c-4.961,8.035-17.31,4.51-18.957-2.592c-6.93,2.525-13.294-3.5-13.772-10.051c-0.534,7.525,6.691,15.168,14.61,12.283
	c1.748,7.529,14.846,11.27,20.108,2.746c3.829,4.078,12.36,0.836,11.866-4.301c6.748,2.416,12.408-4.332,10.342-10.158
	C62.796,26.489,63.2,19.218,59.028,16.138z"/>
<path fill="#BEC3CF" d="M17.806,48.788c1.805,1.193,2.945,2.943,2.317,4.912c-1.009,3.16-4.786,3.645-7.915,2.531
	c3.26,2.197,8.677,2.352,9.915-1.531C22.962,52.071,20.652,49.829,17.806,48.788z"/>
<path fill="#BEC3CF" d="M6.577,56.3c3.621,1.344,1.184,5.906-1.555,4.691c0.931,0.992,2.402,1.449,3.725,0.447
	C10.861,59.837,8.806,56.399,6.577,56.3z"/>
<path fill="#BEC3CF" d="M37.146,5.14c-1.229-1.449-3.092-2.182-3.891-2.477c0.656,0.416,2.85,1.699,3.521,2.84
	C36.87,5.332,37.146,5.14,37.146,5.14z"/>
<path fill="#BEC3CF" d="M49.776,8.207c0,0,0.297-0.154,0.788-0.238c-1.283-2.502-3.377-3.576-4.868-4.092
	C46.774,4.605,48.901,6.042,49.776,8.207z"/>
<path fill-rule="evenodd" clip-rule="evenodd" fill="#FFFFFF" d="M6.409,16.638c0.306,2.146,4.323-2.053,8.393-5.666
	C17.429,8.65,5.491,10.179,6.409,16.638z"/>
<path fill-rule="evenodd" clip-rule="evenodd" fill="#FFFFFF" d="M21.347,9.638c0.306,2.146,4.323-2.052,8.393-5.666
	C32.366,1.65,20.429,3.179,21.347,9.638z"/>
<path fill-rule="evenodd" clip-rule="evenodd" fill="#FFFFFF" d="M10.521,52.716c0.179,1.262,2.538-1.205,4.929-3.326
	C16.993,48.024,9.982,48.923,10.521,52.716z"/>
<path fill-rule="evenodd" clip-rule="evenodd" fill="#FFFFFF" d="M3.971,27.593c0.677,0.498,0.933-1.986,1.364-4.324
	C5.616,21.763,1.937,26.093,3.971,27.593z"/>
<path fill-rule="evenodd" clip-rule="evenodd" fill="#FFFFFF" d="M37.925,6.306c-0.146,1.078,2.835-0.176,5.756-1.141
	C45.565,4.546,38.362,3.064,37.925,6.306z"/>
<path fill-rule="evenodd" clip-rule="evenodd" fill="#FFFFFF" d="M4.654,58.542c0.077,0.539,1.087-0.518,2.109-1.424
	C7.424,56.534,4.424,56.919,4.654,58.542z"/>
</svg>
