<?xml version="1.0" encoding="utf-8"?>
<!-- Generator: Adobe Illustrator 15.0.0, SVG Export Plug-In . SVG Version: 6.00 Build 0)  -->
<!DOCTYPE svg PUBLIC "-//W3C//DTD SVG 1.1//EN" "http://www.w3.org/Graphics/SVG/1.1/DTD/svg11.dtd">
<svg version="1.1" id="Layer_1" xmlns="http://www.w3.org/2000/svg" xmlns:xlink="http://www.w3.org/1999/xlink" x="0px" y="0px"
	 width="64px" height="64px" viewBox="0 0 64 64" enable-background="new 0 0 64 64" xml:space="preserve">
<path fill="#E81C27" d="M46.627,7.397c-0.665-0.502-1.593-0.534-2.307-0.06c-2.224,1.499-4.29,2.585-6.318,3.323
	c-2.052,0.747-4.069,1.125-6,1.123c-3.841,0.002-7.873-1.452-12.315-4.446c-0.141-0.095-0.293-0.17-0.405-0.206l-0.09-0.036
	c-0.959-0.315-2.086,0.198-2.438,1.116c-0.201,0.53-0.143,1.121,0.131,1.556c2.545,5.292,8.621,8.823,15.115,8.785
	c2.145,0.012,4.246-0.35,6.245-1.077c4.032-1.468,7.287-4.32,8.926-7.816C47.555,8.864,47.332,7.936,46.627,7.397z"/>
<path fill="#E81C27" d="M32,45.442c-2.144-0.013-4.244,0.351-6.24,1.077c-4.035,1.468-7.29,4.319-8.932,7.816
	c-0.387,0.795-0.161,1.723,0.545,2.26c0.664,0.504,1.592,0.537,2.309,0.063c2.224-1.499,4.289-2.587,6.317-3.324
	c2.05-0.746,4.067-1.123,6-1.121c3.841-0.006,7.874,1.449,12.319,4.445c0.142,0.096,0.297,0.172,0.492,0.24
	c0.427,0.141,0.892,0.135,1.311-0.018c0.521-0.189,0.932-0.588,1.127-1.098c0.2-0.533,0.141-1.121-0.133-1.557
	C44.57,48.936,38.495,45.406,32,45.442z"/>
<path fill="#E81C27" d="M55.778,16.755c-0.403-0.154-0.852-0.157-1.263-0.007c-0.122,0.045-0.242,0.104-0.293,0.14
	c-5.29,2.542-8.819,8.62-8.779,15.115c-0.036,6.562,3.542,12.662,8.898,15.173c0.449,0.221,0.955,0.248,1.421,0.078
	c0.331-0.121,0.62-0.335,0.839-0.621c0.507-0.672,0.533-1.598,0.059-2.309c-2.997-4.445-4.452-8.473-4.447-12.319
	c-0.005-3.844,1.447-7.873,4.442-12.322c0.096-0.14,0.171-0.297,0.238-0.492C57.223,18.193,56.733,17.123,55.778,16.755z"/>
<path fill="#E81C27" d="M18.556,31.994c0.036-6.562-3.541-12.664-8.897-15.177c-0.772-0.375-1.734-0.145-2.261,0.545
	c-0.508,0.673-0.532,1.599-0.059,2.306c2.996,4.447,4.452,8.478,4.447,12.324c0.006,3.84-1.448,7.872-4.438,12.314
	c-0.095,0.138-0.174,0.296-0.241,0.496c-0.332,1.001,0.158,2.071,1.113,2.438c0.402,0.152,0.854,0.155,1.263,0.006
	c0.124-0.046,0.243-0.102,0.293-0.138C15.068,44.564,18.595,38.488,18.556,31.994z"/>
<path fill="#C21413" d="M46.627,7.397c-0.294-0.222-0.642-0.335-0.996-0.371c0.535,0.55,0.677,1.363,0.335,2.071
	c-1.64,3.496-4.895,6.349-8.928,7.816c-1.998,0.728-4.097,1.089-6.244,1.077c-2.444,0.014-4.83-0.478-6.99-1.379
	c2.461,1.254,5.285,1.958,8.195,1.941c2.145,0.012,4.246-0.35,6.245-1.077c4.032-1.468,7.287-4.32,8.926-7.816
	C47.555,8.864,47.332,7.936,46.627,7.397z"/>
<path fill="#C21413" d="M47.114,54.227c-1.586-3.299-4.545-5.912-8.124-7.404c3.032,1.544,5.515,3.922,6.92,6.843
	c0.273,0.436,0.332,1.023,0.132,1.556c-0.196,0.511-0.606,0.908-1.127,1.098c-0.313,0.113-0.65,0.146-0.979,0.097
	c0.128,0.083,0.254,0.157,0.382,0.243c0.142,0.096,0.297,0.172,0.492,0.24c0.427,0.141,0.892,0.135,1.311-0.018
	c0.521-0.189,0.932-0.588,1.127-1.098C47.447,55.25,47.388,54.662,47.114,54.227z"/>
<path fill="#C21413" d="M30.793,51.65c-1.932-0.002-3.95,0.375-6,1.121c-2.027,0.738-4.095,1.826-6.317,3.324
	c-0.4,0.266-0.863,0.356-1.312,0.312c0.064,0.065,0.133,0.13,0.208,0.188c0.664,0.504,1.592,0.537,2.309,0.063
	c2.224-1.499,4.289-2.587,6.317-3.324c2.05-0.746,4.067-1.123,6-1.121c2.317-0.004,4.703,0.535,7.207,1.609
	C36.259,52.374,33.478,51.647,30.793,51.65z"/>
<path fill="#C21413" d="M55.778,16.755c-0.171-0.065-0.351-0.098-0.531-0.108c0.484,0.504,0.68,1.261,0.442,1.982
	c-0.068,0.195-0.144,0.352-0.239,0.492c-2.994,4.449-4.447,8.478-4.443,12.322c-0.003,3.846,1.452,7.875,4.448,12.32
	c0.475,0.71,0.448,1.636-0.059,2.307c-0.219,0.287-0.508,0.501-0.839,0.622c-0.337,0.122-0.693,0.138-1.036,0.056
	c0.269,0.15,0.542,0.297,0.82,0.428c0.449,0.221,0.955,0.248,1.421,0.078c0.331-0.121,0.62-0.335,0.839-0.621
	c0.507-0.672,0.533-1.598,0.059-2.309c-2.997-4.445-4.452-8.473-4.447-12.319c-0.005-3.844,1.447-7.873,4.442-12.322
	c0.096-0.14,0.171-0.297,0.238-0.492C57.223,18.193,56.733,17.123,55.778,16.755z"/>
<path fill="#C21413" d="M9.659,16.816c-0.117-0.058-0.242-0.097-0.368-0.126c4.887,2.733,8.095,8.528,8.06,14.742
	c0.04,6.494-3.487,12.57-8.778,15.113c-0.051,0.037-0.17,0.094-0.294,0.139c-0.236,0.086-0.486,0.115-0.733,0.101
	c0.186,0.193,0.41,0.354,0.676,0.455c0.402,0.152,0.854,0.155,1.263,0.006c0.124-0.046,0.243-0.102,0.293-0.138
	c5.292-2.543,8.819-8.619,8.78-15.114C18.592,25.432,15.015,19.33,9.659,16.816z"/>
<path fill-rule="evenodd" clip-rule="evenodd" fill="#F46C60" d="M46.466,33.858c0.615,2.895-0.977-3.25,2.419-10.458
	C50.579,19.802,44.776,25.919,46.466,33.858z"/>
<path fill-rule="evenodd" clip-rule="evenodd" fill="#F46C60" d="M17.551,53.799c-1.457,2.575,1.423-3.082,8.743-6.232
	C29.947,45.994,21.547,46.732,17.551,53.799z"/>
<path fill-rule="evenodd" clip-rule="evenodd" fill="#F46C60" d="M22.543,15.243c1.465,0.849-2.108-1.734-4.86-5.828
	C16.294,7.347,17.371,12.249,22.543,15.243z"/>
<path fill-rule="evenodd" clip-rule="evenodd" fill="#F46C60" d="M8.73,20.611c-2.061-2.124,2.555,2.235,3.513,10.145
	C12.721,34.702,14.382,26.438,8.73,20.611z"/>
</svg>
