<?xml version="1.0" encoding="utf-8"?>
<!-- Generator: Adobe Illustrator 15.0.0, SVG Export Plug-In . SVG Version: 6.00 Build 0)  -->
<!DOCTYPE svg PUBLIC "-//W3C//DTD SVG 1.1//EN" "http://www.w3.org/Graphics/SVG/1.1/DTD/svg11.dtd">
<svg version="1.1" id="Layer_1" xmlns="http://www.w3.org/2000/svg" xmlns:xlink="http://www.w3.org/1999/xlink" x="0px" y="0px"
	 width="64px" height="64px" viewBox="0 0 64 64" enable-background="new 0 0 64 64" xml:space="preserve">
<path fill="#75D6FF" d="M31.992,2C20.568,17.623,14,32.008,14,43.821C14,53.855,22.063,62,32,62c9.944,0,18-8.145,18-18.179
	C50,32.008,43.24,17.381,31.992,2z"/>
<path opacity="0.3" fill="#0FB4D4" d="M45.752,25.605c0.754,3.172,1.164,6.204,1.164,9.075c0,10.034-7.996,18.179-17.86,18.179
	c-6.298,0-11.805-3.332-14.99-8.335C14.439,54.229,22.297,62,32,62c9.944,0,18-8.145,18-18.179
	C50,38.299,48.469,32.146,45.752,25.605z"/>
<path opacity="0.5" fill="#FFFFFF" d="M22.348,33.164c-5.932-1.846,5.785-21.006,8.318-24.375
	C32.967,5.742,33.244,36.556,22.348,33.164z"/>
</svg>
