<?xml version="1.0" encoding="utf-8"?>
<!-- Generator: Adobe Illustrator 15.0.0, SVG Export Plug-In . SVG Version: 6.00 Build 0)  -->
<!DOCTYPE svg PUBLIC "-//W3C//DTD SVG 1.1//EN" "http://www.w3.org/Graphics/SVG/1.1/DTD/svg11.dtd">
<svg version="1.1" id="Layer_1" xmlns="http://www.w3.org/2000/svg" xmlns:xlink="http://www.w3.org/1999/xlink" x="0px" y="0px"
	 width="64px" height="64px" viewBox="0 0 64 64" enable-background="new 0 0 64 64" xml:space="preserve">
<path fill="#FFE12C" d="M53,20.462C53,10.282,43.578,2,32,2s-21,8.282-21,18.462c0,7.928,6.287,14.252,9.58,20.803
	c1.109,2.209-0.402,3.488,1.506,5.045L32,53.66l9.913-7.35c1.908-1.557,0.397-2.836,1.507-5.045C46.712,34.715,53,28.39,53,20.462z"
	/>
<path fill="#FEEC9A" d="M25.015,48.186h13.971c0-10.441,9.82-16.322,9.82-25.507c0-9.424-7.516-16.042-16.782-16.042
	c-9.266,0-16.829,6.617-16.829,16.042C15.194,31.864,25.015,37.744,25.015,48.186z"/>
<path fill="#EA8800" d="M26.172,35.169c0.15,0.626,3.071,10.417,3.745,13.017h0.622c-0.552-2.639-3.223-12.467-3.352-13.05
	c0.873-0.192,2.786-0.843,4.813-3.033c2.028,2.19,3.939,2.84,4.813,3.033c-0.129,0.583-2.8,10.411-3.353,13.05h0.623
	c0.674-2.6,3.595-12.391,3.745-13.017c0.794-0.054,1.553-0.301,2.146-0.844c0.607-0.598,0.923-1.379,0.781-2.212
	c-0.063-0.399-0.362-0.916-0.941-1.092c-0.267-0.087-0.533-0.106-0.874-0.019c-0.28,0.107-0.486,0.264-0.627,0.416
	c-0.56,0.622-0.763,1.242-0.993,1.857c-0.104,0.31-0.194,0.618-0.277,0.925c0,0-0.892,0.068-2.802-1.215
	c-1.061-0.713-1.366-1.229-1.674-1.57c0.332-0.369,0.649-0.773,0.896-1.263c0.13-0.273,0.242-0.57,0.279-0.905
	c0.036-0.334-0.024-0.712-0.216-1.039c-0.191-0.32-0.466-0.617-0.909-0.796c-0.19-0.069-0.404-0.101-0.617-0.101
	c-0.214,0-0.428,0.031-0.617,0.101c-0.442,0.18-0.718,0.476-0.91,0.796c-0.189,0.326-0.251,0.705-0.215,1.039
	c0.039,0.334,0.149,0.632,0.279,0.905c0.246,0.49,0.565,0.895,0.897,1.263c-0.309,0.341-0.615,0.857-1.676,1.57
	c-1.909,1.284-2.802,1.215-2.802,1.215c-0.082-0.307-0.171-0.615-0.277-0.925c-0.23-0.615-0.432-1.235-0.992-1.857
	c-0.141-0.152-0.347-0.309-0.627-0.416c-0.341-0.087-0.607-0.068-0.874,0.019c-0.579,0.177-0.877,0.693-0.94,1.092
	c-0.143,0.833,0.173,1.615,0.781,2.212C24.621,34.868,25.379,35.115,26.172,35.169z M38.289,33.549
	c0.198-0.553,0.451-1.154,0.794-1.515c0.082-0.092,0.166-0.128,0.21-0.153c0,0.003,0.102-0.012,0.168,0.019
	c0.117,0.029,0.228,0.15,0.271,0.382c0.084,0.449-0.128,1.029-0.515,1.391c-0.271,0.259-0.688,0.438-1.128,0.521
	C38.151,33.977,38.215,33.76,38.289,33.549z M31.367,28.61c0.173-0.26,0.398-0.407,0.633-0.407c0.233,0,0.459,0.147,0.634,0.407
	c0.205,0.326,0.133,0.769-0.067,1.202c-0.146,0.307-0.349,0.598-0.566,0.88c-0.218-0.282-0.421-0.573-0.565-0.88
	C31.232,29.378,31.161,28.936,31.367,28.61z M24.269,32.281c0.043-0.232,0.154-0.353,0.272-0.382
	c0.063-0.031,0.167-0.016,0.167-0.019c0.041,0.025,0.126,0.062,0.205,0.153c0.347,0.361,0.6,0.962,0.798,1.515
	c0.074,0.211,0.137,0.428,0.199,0.644c-0.438-0.082-0.857-0.262-1.127-0.521C24.396,33.311,24.185,32.73,24.269,32.281z"/>
<path fill-rule="evenodd" clip-rule="evenodd" fill="#FFFFFF" d="M15.24,17.894c0.283,3.169,4.015-3.038,7.802-8.366
	C25.479,6.099,14.39,8.356,15.24,17.894z"/>
<path fill="#FFFFFF" d="M44.696,14.173c1.251,13.702-7.04,24.415-3.686,20.93C50.697,25.036,44.46,11.572,44.696,14.173z"/>
<path fill="#302C3B" d="M26.768,57.801c0,2.318,2.352,4.199,5.25,4.199c2.9,0,5.25-1.881,5.25-4.199H26.768z"/>
<path fill="#4E5E67" d="M29.524,57.801h-1.707c0,2.175,2.078,3.943,4.725,4.156c0.294-0.023,0.578-0.062,0.854-0.122
	C31.17,61.349,29.524,59.736,29.524,57.801z"/>
<path fill="#99A8AE" d="M41.949,46.311c-5.775,2.416-13.912,2.49-19.863,0c0,0,1.312,7.412,2.101,9.727
	c1.755,5.148,13.907,5.152,15.663,0C40.639,53.723,41.949,46.311,41.949,46.311z"/>
<path fill="#6E8189" d="M23.658,53.84c4.321,6.814,13.535,6.236,16.973-1.063C35.993,56.539,28.727,56.994,23.658,53.84z"/>
<path fill="#CFD8DD" d="M23.658,53.852c3.798,4.477,14.077,3.375,16.973-1.063C35.937,55.641,28.67,56.096,23.658,53.852z"/>
<path fill="#6E8189" d="M22.946,50.648c4.646,6.794,14.63,6.168,18.392-1.15C36.296,53.285,28.422,53.778,22.946,50.648z"/>
<path fill="#CFD8DD" d="M22.946,50.662c3.977,4.336,15.233,3.297,18.392-1.152C36.238,52.387,28.365,52.88,22.946,50.662z"/>
<path fill="#6E8189" d="M22.37,47.611c4.9,6.777,15.494,6.113,19.511-1.222C36.52,50.195,28.166,50.72,22.37,47.611z"/>
<path fill="#CFD8DD" d="M22.37,47.623C26.627,52,38.271,51.19,41.881,46.4C36.464,49.299,28.111,49.822,22.37,47.623z"/>
<path opacity="0.6" fill="#FFFFFF" d="M37.527,58.619c0,0-0.839,0.553-2.66,0.981c0,0,0.259-5.116-0.122-11.577
	c2.412-0.211,4.265-0.734,4.265-0.734C38.704,56.379,37.527,58.619,37.527,58.619z"/>
</svg>
