<?xml version="1.0" encoding="utf-8"?>
<!-- Generator: Adobe Illustrator 15.0.0, SVG Export Plug-In . SVG Version: 6.00 Build 0)  -->
<!DOCTYPE svg PUBLIC "-//W3C//DTD SVG 1.1//EN" "http://www.w3.org/Graphics/SVG/1.1/DTD/svg11.dtd">
<svg version="1.1" id="Layer_1" xmlns="http://www.w3.org/2000/svg" xmlns:xlink="http://www.w3.org/1999/xlink" x="0px" y="0px"
	 width="64px" height="64px" viewBox="0 0 64 64" enable-background="new 0 0 64 64" xml:space="preserve">
<path fill="#995F45" d="M32.205,36.889C15.146,36.889,2,29.789,2,45.729C2,58.455,18.893,62,31.789,62
	C46.773,62,62,58.455,62,45.729C62,29.789,49.84,36.889,32.205,36.889z"/>
<path fill="#7D4E38" d="M52.36,35.32c1.068,1.598,1.639,3.963,1.639,7.408C53.999,55.456,38.772,59,23.788,59
	c-4.537,0-9.568-0.441-14.186-1.564C15.688,60.83,24.394,62,31.788,62c14.984,0,30.211-3.545,30.211-16.271
	C61.999,37.098,58.429,35.227,52.36,35.32z"/>
<path fill="#A6674B" d="M31.729,20.878c-9.553,0-24.502,1.117-24.502,12.622c0,16.828,49.547,16.828,49.547,0
	C56.773,21.996,41.883,20.878,31.729,20.878z"/>
<path fill="#87543E" d="M47.126,22.578c2.238,1.842,3.646,4.393,3.646,7.924c0,11.907-24.801,15.387-39.309,10.446
	c11.988,8.836,45.309,6.357,45.309-7.445C56.772,27.398,52.579,24.218,47.126,22.578z"/>
<path fill="#B36E51" d="M49.012,16.701c-4.66-10.34-26.367,0.307-22.639-12.227c0.563-1.889,0.539-2.713-0.896-2.414
	c-7.813,1.621-13.438,9.666-11.457,16.321C20.396,39.813,55.297,30.652,49.012,16.701z"/>
<path fill="#945B43" d="M29.46,10.894c-4.013-0.991-3.695-4.374-3.088-6.416c0.563-1.889,0.539-2.713-0.896-2.414
	C24.312,2.305,22.031,10.028,29.46,10.894z"/>
<path fill="#945B43" d="M49.011,16.705c-1.1-2.437-3.148-3.7-5.584-4.384c0.635,0.612,1.178,1.343,1.582,2.244
	c4.545,10.087-12.443,17.667-24.611,12.99C32.333,36.099,54.083,27.963,49.011,16.705z"/>
<path fill-rule="evenodd" clip-rule="evenodd" fill="#C4926E" d="M8.462,33.223c0.276,2.752,3.916-2.637,7.607-7.264
	C18.444,22.98,7.63,24.941,8.462,33.223z"/>
<path fill-rule="evenodd" clip-rule="evenodd" fill="#C4926E" d="M15.608,14.86c0.657,2.687,3.51-3.158,6.521-8.253
	C24.066,3.327,13.63,6.775,15.608,14.86z"/>
<path fill-rule="evenodd" clip-rule="evenodd" fill="#C4926E" d="M3.55,43.604c0.48,1.661,2.111-2.063,3.858-5.326
	C8.533,36.178,2.104,38.604,3.55,43.604z"/>
<path fill="#E6EBEF" d="M28.848,34.32c0,3.98-3.227,7.205-7.203,7.205c-3.979,0-7.205-3.225-7.205-7.205
	c0-3.977,3.227-7.204,7.205-7.204C25.621,27.117,28.848,30.345,28.848,34.32z"/>
<path fill="#FFFFFF" d="M28.144,34.956c0,8.027-13,8.027-13,0C15.144,26.982,28.144,26.984,28.144,34.956z"/>
<circle fill="#1A1626" cx="22.633" cy="34.324" r="3.604"/>
<path fill="#E6EBEF" d="M35.154,34.32c0,3.98,3.227,7.205,7.203,7.205c3.979,0,7.205-3.225,7.205-7.205
	c0-3.977-3.227-7.204-7.205-7.204C38.381,27.117,35.154,30.345,35.154,34.32z"/>
<path fill="#FFFFFF" d="M35.858,34.956c0,8.027,13,8.027,13,0C48.858,26.982,35.858,26.984,35.858,34.956z"/>
<circle fill="#1A1626" cx="41.369" cy="34.324" r="3.604"/>
<path fill="#1A1626" d="M44,48.273c0-0.532-0.334-1.205-1.287-1.376C40.268,46.455,36.656,46,31.998,46l0,0l0,0l0,0l0,0
	c-4.655,0-8.269,0.455-10.712,0.897C20.333,47.068,20,47.741,20,48.273C20,53.124,23.961,58,31.998,58l0,0l0,0l0,0l0,0
	C40.039,58,44,53.124,44,48.273z"/>
<path fill="#F46C60" d="M24,53.879c2.313,1.652,4.98,2.621,8,2.621c3.021,0,5.688-0.969,8-2.621C37.771,52.088,35.114,51,32,51
	C28.886,51,26.232,52.088,24,53.879z"/>
</svg>
