<?xml version="1.0" encoding="utf-8"?>
<!-- Generator: Adobe Illustrator 15.0.0, SVG Export Plug-In . SVG Version: 6.00 Build 0)  -->
<!DOCTYPE svg PUBLIC "-//W3C//DTD SVG 1.1//EN" "http://www.w3.org/Graphics/SVG/1.1/DTD/svg11.dtd">
<svg version="1.1" id="Layer_1" xmlns="http://www.w3.org/2000/svg" xmlns:xlink="http://www.w3.org/1999/xlink" x="0px" y="0px"
	 width="64px" height="64px" viewBox="0 0 64 64" enable-background="new 0 0 64 64" xml:space="preserve">
<path fill="#E81C27" d="M10.921,3.279c0,0-6.131,15.229-8.911,38.09c-0.249,2.043,4.458,0.215,6.082-0.404
	C11.763,18.449,17,3.021,17,3.021C15.472,2.76,10.921,3.279,10.921,3.279z"/>
<path fill="#F46C60" d="M11.683,4.562c0,0,1.473-0.168,2.908-0.244c0.531-0.028,0.662-0.836-0.059-0.809
	c-1.565,0.06-3.383,0.267-3.383,0.267S6.513,15.291,3.995,32.912c-0.155,1.086,0.458,1.275,0.658-0.073
	C7.196,15.703,11.683,4.562,11.683,4.562z"/>
<path fill="#E81C27" d="M37.28,4.949c2.162,3.502,1.217,9.057-0.092,14.566c-2.16,8.904-7.252,18.109-15.494,18.109
	c-7.792,0-8.602-8.457-6.529-17.115c1.258-5.248,3.331-10.6,6.484-14.154C24.082,3.646,27.415,2,30.747,2
	C33.989,2,36.198,2.648,37.28,4.949z M21.424,20.561c-1.756,7.26-0.944,10.91,1.939,10.91c3.014,0,5.852-4.604,7.701-12.158
	c1.711-7.205,0.899-10.512-1.983-10.512C26.333,8.801,23.318,12.805,21.424,20.561z"/>
<path fill="#E81C27" d="M60.717,4.953c2.163,3.498,1.216,9.053-0.09,14.561c-2.163,8.904-7.251,18.111-15.494,18.111
	c-7.792,0-8.603-8.459-6.531-17.115c1.263-5.25,3.333-10.602,6.487-14.156C47.521,3.652,50.853,2,54.187,2
	C57.431,2,59.636,2.648,60.717,4.953z M44.864,20.563c-1.757,7.258-0.947,10.91,1.935,10.91c3.02,0,5.857-4.607,7.702-12.156
	c1.711-7.211,0.902-10.516-1.982-10.516C49.772,8.801,46.753,12.805,44.864,20.563z"/>
<path fill="#E81C27" d="M47.562,48.58c-5.365,0-33.34,2.201-44.359,3.107c-0.752-2.855,0.229-5.391,1.5-6.623
	c5.535-1.043,42.34-3.887,45.111-2.264C49.352,44.811,48.544,47.35,47.562,48.58z"/>
<path fill="#F46C60" d="M5.678,45.909c4.087-0.77,25.215-2.521,37.104-2.729c1.326-0.023,1.799-0.496-0.041-0.471
	c-11.778,0.163-33.535,1.959-37.688,2.742c-0.635,0.616-1.198,1.558-1.508,2.703c-0.31,1.145,0.378,1.313,0.693,0.258
	S5.081,46.489,5.678,45.909z"/>
<path fill="#E81C27" d="M42.86,59.779c-5.479,0-22.928,1.215-34.18,2.221c-0.767-3.18,0.236-5.988,1.531-7.354
	c5.654-1.158,32.117-3.088,34.946-1.287C44.688,55.592,43.862,58.408,42.86,59.779z"/>
<path fill="#C21413" d="M15.698,2.949c-1.163,3.628-5.459,17.712-8.606,37.016c-1.108,0.422-3.648,1.405-5.074,1.34
	c-0.003,0.021-0.006,0.043-0.008,0.064c-0.249,2.043,4.458,0.215,6.082-0.404C11.763,18.449,17,3.021,17,3.021
	C16.678,2.966,16.217,2.947,15.698,2.949z"/>
<path fill="#C21413" d="M21.163,30.188c-0.932-1.638-0.896-4.844,0.262-9.627c1.894-7.756,4.908-11.76,7.657-11.76
	c0.481,0,0.899,0.101,1.263,0.288c-0.481-0.862-1.238-1.288-2.263-1.288c-2.749,0-5.764,4.004-7.657,11.76
	C18.946,25.676,19.294,29.219,21.163,30.188z"/>
<path fill="#C21413" d="M37.28,4.949c-0.355-0.755-0.844-1.317-1.438-1.752c0.161,0.229,0.309,0.478,0.438,0.752
	c2.162,3.502,1.217,9.057-0.092,14.566c-2.16,8.904-7.252,18.109-15.494,18.109c-1.899,0-3.377-0.51-4.507-1.395
	c1.199,1.496,2.98,2.395,5.507,2.395c8.241,0,13.333-9.205,15.494-18.109C38.497,14.006,39.442,8.451,37.28,4.949z"/>
<path fill="#C21413" d="M44.601,30.19c-0.931-1.638-0.895-4.845,0.264-9.628c1.889-7.758,4.908-11.762,7.654-11.762
	c0.481,0,0.899,0.101,1.264,0.287c-0.481-0.861-1.238-1.287-2.264-1.287c-2.746,0-5.766,4.004-7.654,11.762
	C42.384,25.678,42.731,29.223,44.601,30.19z"/>
<path fill="#C21413" d="M60.717,4.953c-0.355-0.758-0.845-1.322-1.44-1.758c0.162,0.231,0.311,0.481,0.44,0.758
	c2.163,3.498,1.216,9.053-0.09,14.561c-2.163,8.904-7.251,18.111-15.494,18.111c-1.899,0-3.377-0.51-4.506-1.395
	c1.198,1.496,2.98,2.395,5.506,2.395c8.243,0,13.331-9.207,15.494-18.111C61.933,14.006,62.88,8.451,60.717,4.953z"/>
<path fill="#C21413" d="M48.64,42.513c-0.477,1.865-1.209,3.979-2.078,5.067c-5.242,0-32.057,2.101-43.563,3.042
	c0.042,0.349,0.109,0.704,0.204,1.065c11.02-0.906,38.994-3.107,44.359-3.107c0.982-1.23,1.79-3.77,2.252-5.779
	C49.607,42.68,49.194,42.587,48.64,42.513z"/>
<path fill="#C21413" d="M44.017,52.995c-0.485,2.108-1.247,4.54-2.156,5.784c-5.35,0-22.108,1.158-33.369,2.148
	C8.534,61.279,8.593,61.637,8.681,62c11.251-1.006,28.7-2.221,34.18-2.221c1.002-1.371,1.828-4.188,2.298-6.42
	C44.929,53.214,44.531,53.095,44.017,52.995z"/>
<path fill="#F46C60" d="M41.175,16.698c1.775-6.7,6.22-13.135,12.994-13.135c1.219,0,0.911-0.752-0.822-0.752
	c-6.774,0-10.96,6.927-12.736,13.627C40.126,18.309,40.773,18.244,41.175,16.698z"/>
<path fill="#F46C60" d="M17.737,16.698c1.776-6.7,6.221-13.135,12.995-13.135c1.218,0,0.911-0.752-0.822-0.752
	c-6.774,0-10.96,6.927-12.737,13.627C16.688,18.309,17.336,18.244,17.737,16.698z"/>
<path fill="#F46C60" d="M54.683,20.124c-1.26,6.094-4.24,11.915-8.623,11.835c-0.788-0.014-0.602,0.677,0.52,0.696
	c4.382,0.079,7.205-6.193,8.465-12.288C55.388,18.666,54.968,18.717,54.683,20.124z"/>
<path fill="#F46C60" d="M31.246,20.124c-1.26,6.094-4.241,11.915-8.624,11.835c-0.787-0.014-0.602,0.677,0.52,0.696
	c4.383,0.079,7.205-6.193,8.465-12.288C31.95,18.666,31.53,18.717,31.246,20.124z"/>
<path fill="#F46C60" d="M11.261,55.451c2.498-0.47,12.38-1.457,20.66-1.791c1.634-0.065,1.813-0.389,0.23-0.392
	c-6.553-0.015-18.934,1.238-21.515,1.725c-0.635,0.616-1.197,1.558-1.508,2.703c-0.311,1.144,0.379,1.313,0.693,0.258
	S10.663,56.031,11.261,55.451z"/>
</svg>
