<?xml version="1.0" encoding="utf-8"?>
<!-- Generator: Adobe Illustrator 15.0.0, SVG Export Plug-In . SVG Version: 6.00 Build 0)  -->
<!DOCTYPE svg PUBLIC "-//W3C//DTD SVG 1.1//EN" "http://www.w3.org/Graphics/SVG/1.1/DTD/svg11.dtd">
<svg version="1.1" id="Layer_1" xmlns="http://www.w3.org/2000/svg" xmlns:xlink="http://www.w3.org/1999/xlink" x="0px" y="0px"
	 width="64px" height="64px" viewBox="0 0 64 64" enable-background="new 0 0 64 64" xml:space="preserve">
<polygon fill="#EF4E16" points="43.909,35.201 62,25.168 41.699,26.051 47.729,13.596 36.733,21.42 38.09,4.242 30.091,18.398 
	18.047,2 23.223,22.43 5.158,16.434 19.555,29.584 2,33 18.829,36.832 9.391,53.672 24.836,44.346 25.474,62 31.8,45.875 
	40.312,58.635 39.841,43.311 54.494,48.906 "/>
<polygon fill="#FFE12C" points="38.652,33.674 49.246,28.762 37.498,28.414 40.648,21.428 34.425,24.994 34.656,15.494 
	30.477,23.414 24.183,15.322 26.933,25.521 16.446,22.865 25.016,30.26 14.371,32.762 24.113,35.004 17.246,45.537 27.775,38.406 
	28.063,47.68 31.847,39.207 36.121,45.537 36.049,37.865 43.746,41.24 "/>
<polygon fill="#FFFFFF" points="34.706,32.42 39.191,30.34 34.218,30.193 35.552,27.236 32.916,28.746 33.014,24.723 31.244,28.076 
	28.579,24.65 29.744,28.969 25.304,27.844 28.933,30.975 24.425,32.035 28.55,32.984 25.643,37.443 30.101,34.424 30.223,38.352 
	31.824,34.764 33.635,37.443 33.604,34.195 36.863,35.625 "/>
</svg>
