<?xml version="1.0" encoding="utf-8"?>
<!-- Generator: Adobe Illustrator 15.0.0, SVG Export Plug-In . SVG Version: 6.00 Build 0)  -->
<!DOCTYPE svg PUBLIC "-//W3C//DTD SVG 1.1//EN" "http://www.w3.org/Graphics/SVG/1.1/DTD/svg11.dtd">
<svg version="1.1" id="Layer_1" xmlns="http://www.w3.org/2000/svg" xmlns:xlink="http://www.w3.org/1999/xlink" x="0px" y="0px"
	 width="64px" height="64px" viewBox="0 0 64 64" enable-background="new 0 0 64 64" xml:space="preserve">
<path fill="#0FB4D4" d="M15.477,38.32c-0.176-0.305-0.572-0.411-0.88-0.234L2.322,45.174c-0.307,0.177-0.413,0.573-0.237,0.879
	l1.935,3.35c0.176,0.308,0.572,0.412,0.88,0.237l5.579-3.224c0.308-0.176,0.505-0.036,0.439,0.312L8.97,57.139
	c-0.065,0.349,0.027,0.884,0.203,1.192l1.934,3.349c0.177,0.307,0.572,0.411,0.88,0.235l12.276-7.089
	c0.306-0.177,0.412-0.573,0.236-0.88l-1.934-3.349c-0.176-0.307-0.572-0.412-0.88-0.236l-5.58,3.223
	c-0.307,0.177-0.505,0.036-0.439-0.311l1.948-10.412c0.065-0.349-0.027-0.884-0.203-1.191L15.477,38.32z"/>
<polygon fill="#10C5E8" points="14.92,38.645 2.644,45.732 14.685,39.525 16.852,41.992 "/>
<polygon fill="#0EA2BF" points="4.576,49.081 11.272,45.215 4.813,48.2 3.61,47.407 "/>
<polygon fill="#0EA2BF" points="11.665,61.355 22.824,54.914 11.9,60.475 9.732,58.008 "/>
<polygon fill="#10C5E8" points="22.008,50.92 15.312,54.786 21.771,51.8 23.296,53.154 "/>
<path fill="#0FB4D4" d="M33.822,15.604c-0.173-0.473-0.703-0.721-1.18-0.548l-19.036,6.929c-0.476,0.174-0.724,0.705-0.552,1.179
	l1.891,5.194c0.172,0.477,0.704,0.723,1.181,0.552l8.653-3.153c0.476-0.171,0.719,0.074,0.541,0.548l-5.325,14.17
	c-0.179,0.475-0.182,1.251-0.011,1.729l1.89,5.193c0.173,0.475,0.704,0.721,1.181,0.549l19.038-6.93
	c0.475-0.174,0.723-0.705,0.551-1.181l-1.891-5.192c-0.174-0.475-0.703-0.723-1.18-0.551l-8.654,3.151
	c-0.476,0.173-0.719-0.074-0.541-0.547l5.326-14.171c0.179-0.475,0.182-1.251,0.01-1.728L33.822,15.604z"/>
<polygon fill="#10C5E8" points="32.958,15.92 13.92,22.851 32.408,17.103 34.847,21.113 "/>
<polygon fill="#0EA2BF" points="15.81,28.043 26.193,24.263 16.361,26.862 14.865,25.447 "/>
<polygon fill="#0EA2BF" points="22.74,47.079 40.046,40.781 23.29,45.896 20.85,41.887 "/>
<polygon fill="#10C5E8" points="39.886,34.956 29.503,38.737 39.336,36.138 41.147,38.422 "/>
<path fill="#0FB4D4" d="M62,3c0-0.55-0.451-1-1-1H39c-0.551,0-1,0.45-1,1v6c0,0.55,0.449,1,1,1h10c0.549,0,0.707,0.342,0.349,0.759
	L38.65,23.24C38.293,23.658,38,24.449,38,25v6c0,0.549,0.449,1,1,1h22c0.549,0,1-0.451,1-1v-6c0-0.551-0.451-1-1-1H51
	c-0.551,0-0.707-0.342-0.35-0.76l10.698-12.481C61.707,10.341,62,9.549,62,9V3z"/>
<polygon fill="#75D6FF" points="61,3 39,3 60,4 61,9 "/>
<polygon fill="#018BC9" points="39,9 51,9 40,8 39,6 "/>
<polygon fill="#018BC9" points="39,31 59,31 40,30 39,25 "/>
<polygon fill="#75D6FF" points="61,25 49,25 60,26 61,29 "/>
</svg>
