<?xml version="1.0" encoding="utf-8"?>
<!-- Generator: Adobe Illustrator 15.0.0, SVG Export Plug-In . SVG Version: 6.00 Build 0)  -->
<!DOCTYPE svg PUBLIC "-//W3C//DTD SVG 1.1//EN" "http://www.w3.org/Graphics/SVG/1.1/DTD/svg11.dtd">
<svg version="1.1" id="Layer_1" xmlns="http://www.w3.org/2000/svg" xmlns:xlink="http://www.w3.org/1999/xlink" x="0px" y="0px"
	 width="64px" height="64px" viewBox="0 0 64 64" enable-background="new 0 0 64 64" xml:space="preserve">
<path fill="#E6EBEF" d="M55.438,5H8.563C4.938,5,2,7.918,2,11.518v29.793c0,3.598,2.938,6.518,6.563,6.518L15,48v11l10.871-11
	h29.566C59.063,48,62,44.908,62,41.311V11.518C62,7.918,59.063,5,55.438,5z"/>
<path fill="#BEC3CF" d="M57.328,5.277C58.945,6.465,60,8.366,60,10.518v29.793c0,3.598-2.938,6.518-6.563,6.518H6.563
	c-0.657,0-1.291-0.099-1.89-0.277C5.762,47.35,7.104,48,8.563,48H15v7.85V59l10.871-11h29.566C59.063,48,62,44.908,62,41.311V11.518
	C62,8.571,60.03,6.084,57.328,5.277z"/>
<circle fill="#99A8AE" cx="15.988" cy="26.375" r="5"/>
<circle fill="#99A8AE" cx="32" cy="26.375" r="5"/>
<circle fill="#99A8AE" cx="48.012" cy="26.375" r="5"/>
<path fill-rule="evenodd" clip-rule="evenodd" fill="#FFFFFF" d="M3.723,10.101c0.182,1.275,2.567-1.219,4.983-3.364
	C10.266,5.357,3.178,6.265,3.723,10.101z"/>
</svg>
