<?xml version="1.0" encoding="utf-8"?>
<!-- Generator: Adobe Illustrator 15.0.0, SVG Export Plug-In . SVG Version: 6.00 Build 0)  -->
<!DOCTYPE svg PUBLIC "-//W3C//DTD SVG 1.1//EN" "http://www.w3.org/Graphics/SVG/1.1/DTD/svg11.dtd">
<svg version="1.1" id="Layer_1" xmlns="http://www.w3.org/2000/svg" xmlns:xlink="http://www.w3.org/1999/xlink" x="0px" y="0px"
	 width="64px" height="64px" viewBox="0 0 64 64" enable-background="new 0 0 64 64" xml:space="preserve">
<rect x="2" y="46" fill="#EBBB96" width="60" height="8"/>
<rect x="2" y="10" fill="#FED0AC" width="60" height="36"/>
<rect x="4" y="12" fill="#D6A57C" width="16" height="4"/>
<polygon fill="#D6A57C" points="46,42 6,42 6,34 4,34 4,44 46,44 "/>
<polygon fill="#D6A57C" points="50,14 58,14 58,22 60,22 60,12 50,12 "/>
<rect x="22" y="12" fill="#D6A57C" width="14" height="2"/>
<rect x="2" y="50" fill="#D6A57C" width="60" height="2"/>
<path fill="#D6A57C" d="M22,28.002c0,13.33,16,13.33,16,0C38,14.665,22,14.665,22,28.002z"/>
<path fill="#F89987" d="M16,37c0,4,6,4,6,0C22,33,16,33,16,37z"/>
<rect x="2.001" y="46" fill="#D6A57C" width="59.999" height="2"/>
<polygon fill="#D6A57C" points="18,21.713 16.787,20 12,24.58 7.213,20 6,21.713 10.498,26.018 8.184,26.018 8.184,28.236 
	11.047,28.236 11.047,30.455 8.184,30.455 8.184,32.671 11.047,32.671 11.047,36 12.953,36 12.953,32.671 15.814,32.671 
	15.814,30.455 12.953,30.455 12.953,28.236 15.814,28.236 15.814,26.018 13.502,26.018 "/>
<path fill="#D6A57C" d="M58,40c0,0-4.17-4.002-5.893-5.727c-0.383-0.385-1.215-1.67-0.34-2.143c0.746-0.402,1.389-1.699,1.871-3.092
	c0.088,0.04,0.182,0.051,0.275,0.021c2.029-0.631,2.068-4.989,0.709-4.221c1.27-11.783-14.07-11.787-12.801,0
	c-1.359-0.77-1.322,3.59,0.707,4.221c0.096,0.029,0.189,0.019,0.281-0.021c0.48,1.393,1.121,2.69,1.867,3.092
	c0.877,0.475,0.031,1.774-0.361,2.153C42.504,36.037,38,40,38,40H58z"/>
<rect x="27" y="46" fill="#BEC3CF" width="10" height="8"/>
<rect x="36" y="46" fill="#F26887" width="2" height="8"/>
<rect x="26" y="46" fill="#F26887" width="2" height="8"/>
<rect x="27" y="10" fill="#E6EBEF" width="10" height="36"/>
<rect x="36" y="10" fill="#FF8FA8" width="2" height="36"/>
<rect x="26" y="10" fill="#FF8FA8" width="2" height="36"/>
<path fill="#D6A57C" d="M58,24c0,10,0,18-4,18v2c6,0,6-8,6-20H58z"/>
</svg>
