<?xml version="1.0" encoding="utf-8"?>
<!-- Generator: Adobe Illustrator 15.0.0, SVG Export Plug-In . SVG Version: 6.00 Build 0)  -->
<!DOCTYPE svg PUBLIC "-//W3C//DTD SVG 1.1//EN" "http://www.w3.org/Graphics/SVG/1.1/DTD/svg11.dtd">
<svg version="1.1" id="Layer_1" xmlns="http://www.w3.org/2000/svg" xmlns:xlink="http://www.w3.org/1999/xlink" x="0px" y="0px"
	 width="64px" height="64px" viewBox="0 0 64 64" enable-background="new 0 0 64 64" xml:space="preserve">
<path fill="#F9C802" d="M61.705,36.322c0.755,2.74,0.013,5.629-1.688,6.434L20.297,61.569c-2.817,1.333-6.011-0.534-7.018-4.19
	L2.288,17.51c-1.008-3.655,0.718-7.111,3.75-7.666l42.753-7.808c1.831-0.334,3.916,1.641,4.671,4.382L61.705,36.322z"/>
<path fill="#FEEC9A" d="M13.909,57.756L2.943,17.983c-1.006-3.646,0.708-7.101,3.725-7.66l42.54-7.895
	c0.844-0.157,1.734,0.196,2.528,0.869c-0.887-0.928-1.951-1.441-2.945-1.26L6.038,9.844c-3.032,0.555-4.758,4.011-3.75,7.666
	l10.991,39.869c0.543,1.977,1.744,3.411,3.174,4.119C15.31,60.711,14.371,59.431,13.909,57.756z"/>
<polygon fill="#302C3B" points="57.034,19.376 7.05,34.787 3.387,21.497 54.286,9.409 "/>
<polygon fill="#1A1626" points="41.142,24.278 14.535,32.479 14.102,18.952 40.405,12.706 "/>
<polygon fill="#1A1626" points="51.359,21.126 47.215,22.405 46.426,11.276 50.538,10.299 "/>
<polygon fill="#FFFFFF" points="57.772,34.612 17.444,51.225 14.594,40.879 55.526,26.467 "/>
<path fill="#4E5E67" d="M55.068,33.947c-1.544,0.259-6.206,3.24-6.673,2.418c-0.019-0.35-0.308-0.431-0.447-0.257
	c-0.31,0.388-0.782,1.359-1.558,1.632c-0.552,0.195,0.148-0.934,0.287-1.009c0.285-0.154,0.096-0.854-0.194-0.699
	c-0.236,0.126-0.784,0.896-0.869,1.544c-0.174-0.121-1.069,1.188-0.724,0.018c0.076-0.26-0.241-0.611-0.415-0.412
	c-0.428,0.49-1.966,2.848-1.994,1.91c-0.013-0.433,0.419-0.855,0.491-1.308c0.042-0.273-0.363-0.691-0.45-0.471
	c-0.605,1.532-2.016,4.1-3.034,3.617c0.554-0.343,1.028-0.971,1.162-1.657c0.264-1.332-1.209-0.769-1.871,1.02
	c-1.184,0.938-2.503,1.5-3.896,1.86c6.489-8.769,1.743-14.969-4.503-4.169c-0.225,0.389,0.363,0.581,0.592,0.207
	c4.864-7.958,9.245-5.068,2.881,4.191c-5.561,0.664-11.475,0.678-13.377,3.903c-2.463,4.173,7.921,4.67,13.711-3.152
	c1.274-0.053,3.618-0.982,4.675-1.927c0.978,1.756,2.674-0.504,3.127-1.516c0.267,1.689,1.772-0.186,2.353-1.172
	c0.075,1.163,1.157,0.076,1.428-0.299c0.647,0.762,1.769-0.492,2.34-1.287c1.069,1.172,5.231-1.992,7.022-2.301
	C55.415,34.584,55.354,33.899,55.068,33.947z M21.506,46.441c0.814-1.324,2.52-2.537,11.571-3.102
	C27.711,49.363,20.524,48.037,21.506,46.441z M40.054,39.328c-0.076,0.293-0.354,0.508-0.504,0.643
	C39.582,39.931,39.61,39.573,40.054,39.328z"/>
<polygon fill="#4E5E67" points="7.535,34.637 7.05,34.787 3.387,21.497 3.881,21.379 "/>
</svg>
