<?xml version="1.0" encoding="utf-8"?>
<!-- Generator: Adobe Illustrator 15.0.0, SVG Export Plug-In . SVG Version: 6.00 Build 0)  -->
<!DOCTYPE svg PUBLIC "-//W3C//DTD SVG 1.1//EN" "http://www.w3.org/Graphics/SVG/1.1/DTD/svg11.dtd">
<svg version="1.1" id="Layer_1" xmlns="http://www.w3.org/2000/svg" xmlns:xlink="http://www.w3.org/1999/xlink" x="0px" y="0px"
	 width="64px" height="64px" viewBox="0 0 64 64" enable-background="new 0 0 64 64" xml:space="preserve">
<path fill="#7AB51D" d="M62,50c0,6.6-5.4,12-12,12H14C7.4,62,2,56.6,2,50V14C2,7.399,7.4,2,14,2h36c6.6,0,12,5.399,12,12V50z"/>
<path fill="#529320" d="M56.838,4.162C58.197,6.105,59,8.462,59,11v37c0,6.6-4.398,11-11,11H11c-2.537,0-4.893-0.805-6.838-2.162
	C6.336,59.949,9.938,62,14,62h36c6.602,0,12-5.4,12-12V14C62,9.938,59.951,6.336,56.838,4.162z"/>
<path fill-rule="evenodd" clip-rule="evenodd" fill="#A6E639" d="M4.975,12.585c0.34,2.703,4.793-2.587,9.303-7.136
	C17.188,2.524,3.957,4.45,4.975,12.585z"/>
<polygon fill="#FFFFFF" points="29.119,18.813 38,10 31.896,10 26.971,14.887 22.078,10 16,10 16,10.004 24.816,18.809 
	24.816,18.818 20.301,18.818 20.301,23.115 24.816,23.115 24.816,27.41 20.301,27.41 20.301,31.705 24.816,31.705 24.816,36 
	29.119,36 29.119,31.705 33.719,31.705 33.719,27.41 29.119,27.41 29.119,23.115 33.719,23.115 33.719,18.818 29.119,18.818 "/>
<path fill="#FFFFFF" d="M45.051,32.793l-4.256-2.895l-6.777,11.863l-4.977-2.756l-4.082,7.672l-4.477-3.209L14,52.23
	c1.354,0.707,2.781,1.299,4.27,1.77l3.236-4.373l5.07,3.637l4.359-8.199l4.855,2.689l6.555-11.475l3.977,2.707L52,30.48
	c-0.049-2.25-0.424-4.422-1.08-6.48L45.051,32.793z"/>
</svg>
