<?xml version="1.0" encoding="utf-8"?>
<!-- Generator: Adobe Illustrator 16.2.0, SVG Export Plug-In . SVG Version: 6.00 Build 0)  -->
<!DOCTYPE svg PUBLIC "-//W3C//DTD SVG 1.1//EN" "http://www.w3.org/Graphics/SVG/1.1/DTD/svg11.dtd">
<svg version="1.1" id="Layer_1" xmlns="http://www.w3.org/2000/svg" xmlns:xlink="http://www.w3.org/1999/xlink" x="0px" y="0px"
	 width="64px" height="64px" viewBox="0 0 64 64" enable-background="new 0 0 64 64" xml:space="preserve">
<path fill="#99A8AE" d="M45,34.001V38h2c1.25,0,0.953-2.688,2.125-2.688L45,34.001z"/>
<path fill="#E6EBEF" d="M44,35.001c0,0.559,0.375,2,1,2c1.25,0,0.953-1.688,2.125-1.688c2.321,0,2.576,5.688,3.652,5.688
	C52.723,41,53,40.57,53,39.002C53,36.363,51.575,31,47.75,31C44.811,31,44,32.16,44,35.001z"/>
<path fill="#CFD8DD" d="M48,33c2.505,2.505,3.203,8,2.777,8c-2.004,0-1.953-4.624-3.652-4.688c-0.878-0.033-0.875,1.688-2.125,1.688
	c-0.719,0-1-2-1-3C44,33.219,44.779,29.78,48,33z"/>
<rect x="43" y="47" fill="#CFD8DD" width="4" height="15"/>
<rect x="18" y="47" fill="#CFD8DD" width="4" height="15"/>
<path fill="#018BC9" d="M44,8c0-4-2.905-6-5.367-6C36.17,2,20.188,2,16.925,2C14.585,2,12.644,3.013,13,8c1.5,21,2,32,2,32
	c3.85,0,24.484,0,28.592,0C45.039,40,46,37,46,35C46,27,44,20,44,8z"/>
<path fill="#0FB4D4" d="M17,2c0,0-2,0-2,7c0,7.5,3,15.001,3,29c0,0-5.042-14.125-5.042-25.625C12.958,10.333,12,2,17,2z"/>
<polygon fill="#99A8AE" points="41,48 41,58 43,62 43,52 47,52 47,48 "/>
<polygon fill="#99A8AE" points="16,42 16,58 18,62 18,52 22,52 22,46 "/>
<g>
	<path fill="#006DAE" d="M14,8c0-3.656,1.01-6,3-6c-2.5,0-5,1.047-5,6c0,12.57,0.973,30.746,2.809,31.936
		C14.895,39.961,14.983,40,15.064,40C19.461,40,14,21.033,14,8z"/>
</g>
<path fill="#018BC9" d="M48,49c0,0,3-0.917,3-3c0-2.7-2.514-6-6.034-6H15.824l3.017,9H48z"/>
<path fill="#006DAE" d="M48,45c-5.004,0-24.165,0-26,0c-2.262,0-2.325-0.57-3-2c-1.417-3-3.299-3-3.299-3
	c-0.976,0-0.848,2.338,0.014,3.199C17.966,45.45,17.492,50,19,50c0,0,22.715,0,29,0c2.012,0,3-2,3-4C51,46,51,45,48,45z"/>
<path fill="#006DAE" d="M18,40c2.073,0,2.167,2,5,2s17.334,0,21,0c5.063,0,2.506-2,0-2C40.333,40,18,40,18,40z"/>
<path fill="#006DAE" d="M22.083,25.087C20.178,16,17.759,9.919,17.759,4c0,0-2.325,1.335,0.168,16.154
	C18.807,25.384,19.945,37,18,40h3.252C21.252,40,24.552,36.863,22.083,25.087z"/>
<path fill="#0FB4D4" d="M42,10c0-5.583-4-6-4-6s2,2,2,20c0,13.417-2,16-2,16h3c0,0,3,0,3-7C44,27.167,42,18.052,42,10z"/>
<path fill="#99A8AE" d="M12,34.001V38h2c1.25,0,0.953-2.688,2.125-2.688L12,34.001z"/>
<path fill="#E6EBEF" d="M11,35.001c0,0.559,0.375,2,1,2c1.25,0,0.953-1.688,2.125-1.688c2.321,0,2.577,5.688,3.652,5.688
	C19.722,41,20,40.57,20,39.002C20,36.363,18.575,31,14.75,31C11.81,31,11,32.16,11,35.001z"/>
<path fill="#CFD8DD" d="M15,33c2.505,2.505,3.204,8,2.777,8c-2.003,0-1.953-4.624-3.652-4.688c-0.878-0.033-0.875,1.688-2.125,1.688
	c-0.719,0-1-2-1-3C11,33.219,11.78,29.78,15,33z"/>
<path fill="#E6EBEF" d="M22,2c0,7,2,14,2,14h12c0,0-2-7-2-14H22z"/>
<path fill="#0FB4D4" d="M22,45h26c0,0-5.25-1-12-1S22,45,22,45z"/>
<ellipse fill="#99A8AE" cx="12" cy="35" rx="0.5" ry="1"/>
</svg>
