<?xml version="1.0" encoding="utf-8"?>
<!-- Generator: Adobe Illustrator 15.0.0, SVG Export Plug-In . SVG Version: 6.00 Build 0)  -->
<!DOCTYPE svg PUBLIC "-//W3C//DTD SVG 1.1//EN" "http://www.w3.org/Graphics/SVG/1.1/DTD/svg11.dtd">
<svg version="1.1" id="Layer_1" xmlns="http://www.w3.org/2000/svg" xmlns:xlink="http://www.w3.org/1999/xlink" x="0px" y="0px"
	 width="64px" height="64px" viewBox="0 0 64 64" enable-background="new 0 0 64 64" xml:space="preserve">
<rect x="2" y="46" fill="#CFD8DD" width="60" height="8"/>
<rect x="2" y="10" fill="#E6EBEF" width="60" height="36"/>
<rect x="12" y="12" fill="#0FB4D4" width="6" height="4"/>
<rect x="4" y="12" fill="#7AB51D" width="6" height="4"/>
<rect x="36" y="10" fill="#A3C86B" width="12" height="36"/>
<rect x="36" y="30" fill="#7AB51D" width="12" height="16"/>
<rect x="18" y="10" fill="#C5DCA8" width="12" height="36"/>
<rect x="22" y="30" fill="#A3C86B" width="4" height="16"/>
<rect x="2" y="50" fill="#BEC3CF" width="60" height="2"/>
<rect x="2.001" y="46" fill="#BEC3CF" width="59.999" height="2"/>
<path fill="#529320" d="M14.338,34c-2.236,0-4.188-1.209-5.238-3h6.674v-2H8.371c-0.055-0.326-0.09-0.658-0.09-1s0.035-0.674,0.09-1
	h7.402v-2H9.1c1.051-1.791,3.002-3,5.238-3c0.408,0,0.814,0.04,1.211,0.119L16,20.164C15.457,20.055,14.896,20,14.338,20
	c-3.434,0-6.375,2.072-7.594,5H4v2h2.211c-0.041,0.328-0.07,0.66-0.07,1s0.029,0.672,0.07,1H4v2h2.744c1.219,2.928,4.16,5,7.594,5
	c0.559,0,1.119-0.055,1.662-0.164l-0.451-1.955C15.152,33.961,14.746,34,14.338,34z"/>
<polygon fill="#FFFFFF" points="42,30.063 43.236,31.001 42.77,29.475 44,28.527 42.475,28.523 42,27 41.527,28.523 40,28.527 
	41.232,29.475 40.766,31.001 "/>
<polygon fill="#FFFFFF" points="23.999,23.062 25.236,24.001 24.768,22.474 26,21.527 24.475,21.523 23.999,20 23.524,21.523 
	22,21.527 23.232,22.474 22.763,24.001 "/>
<polygon fill="#FFFFFF" points="37.998,23.062 39.234,24.001 38.766,22.474 40,21.527 38.473,21.523 37.998,20 "/>
<polygon fill="#FFFFFF" points="38,38.063 39.236,39 38.768,37.473 40.002,36.527 38.475,36.523 38,35 "/>
<polygon fill="#FFFFFF" points="23.999,38.063 25.236,39 24.768,37.475 26,36.527 24.475,36.525 23.999,35.002 23.524,36.525 
	22,36.527 23.232,37.475 22.763,39 "/>
<rect x="27" y="46" fill="#BEC3CF" width="10" height="8"/>
<rect x="36" y="46" fill="#018BC9" width="2" height="8"/>
<rect x="26" y="46" fill="#018BC9" width="2" height="8"/>
<rect x="27" y="10" fill="#E6EBEF" width="10" height="36"/>
<rect x="36" y="10" fill="#0FB4D4" width="2" height="36"/>
<rect x="26" y="10" fill="#0FB4D4" width="2" height="36"/>
<rect x="48" y="10" fill="#C5DCA8" width="10" height="36"/>
<rect x="54" y="12" fill="#A3C86B" width="4" height="32"/>
<rect x="48" y="28" fill="#E6EBEF" width="10" height="12"/>
<rect x="4" y="38" fill="#7AB51D" width="6" height="6"/>
<polygon fill="#7AB51D" points="60,36 56,38 50,36 52,32 58,30 "/>
<rect x="12" y="38" fill="#7AB51D" width="8" height="2"/>
<rect x="12" y="42" fill="#7AB51D" width="8" height="2"/>
<rect x="40" y="14" fill="#529320" width="16" height="8"/>
</svg>
