<?xml version="1.0" encoding="utf-8"?>
<!-- Generator: Adobe Illustrator 15.0.0, SVG Export Plug-In . SVG Version: 6.00 Build 0)  -->
<!DOCTYPE svg PUBLIC "-//W3C//DTD SVG 1.1//EN" "http://www.w3.org/Graphics/SVG/1.1/DTD/svg11.dtd">
<svg version="1.1" id="Layer_1" xmlns="http://www.w3.org/2000/svg" xmlns:xlink="http://www.w3.org/1999/xlink" x="0px" y="0px"
	 width="64px" height="64px" viewBox="0 0 64 64" enable-background="new 0 0 64 64" xml:space="preserve">
<path fill="#302C3B" d="M61.293,9.293l-6.586-6.586C54.318,2.318,53.549,2,53,2H10v4H6V2H3C2.449,2,2,2.45,2,3v58
	c0,0.549,0.449,1,1,1h58c0.549,0,1-0.451,1-1V11C62,10.45,61.682,9.682,61.293,9.293z"/>
<path fill="#FFFFFF" d="M12,62V34c0-1.1,0.9-2,2-2h36c1.1,0,2,0.9,2,2v28H12z"/>
<path fill="#BEC3CF" d="M18,2v20c0,1.1,0.9,2,2,2h30c1.1,0,2-0.9,2-2V2H18z"/>
<rect x="36" y="6" fill="#302C3B" width="10" height="16"/>
<path fill="#FFFFFF" d="M60,57c0-0.551-0.451-1-1-1h-2c-0.551,0-1,0.449-1,1v2c0,0.549,0.449,1,1,1h2c0.549,0,1-0.451,1-1V57z"/>
<rect x="12" y="54" fill="#E81C27" width="40" height="8"/>
<rect x="16" y="36" fill="#E81C27" width="32" height="2"/>
<rect x="16" y="42" fill="#E81C27" width="32" height="2"/>
<rect x="16" y="48" fill="#E81C27" width="32" height="2"/>
</svg>
