<?xml version="1.0" encoding="utf-8"?>
<!-- Generator: Adobe Illustrator 15.0.0, SVG Export Plug-In . SVG Version: 6.00 Build 0)  -->
<!DOCTYPE svg PUBLIC "-//W3C//DTD SVG 1.1//EN" "http://www.w3.org/Graphics/SVG/1.1/DTD/svg11.dtd">
<svg version="1.1" id="Layer_1" xmlns="http://www.w3.org/2000/svg" xmlns:xlink="http://www.w3.org/1999/xlink" x="0px" y="0px"
	 width="64px" height="64px" viewBox="0 0 64 64" enable-background="new 0 0 64 64" xml:space="preserve">
<rect x="32.499" y="2" fill="#1A1626" width="2" height="60"/>
<path fill="#302C3B" d="M31.926,48.229c3.604,0,6.199-2.024,6.199-4.926c0-4.386-7.855-6.006-13.839-9.244
	C20.036,31.832,16,27.514,16,21.439c0-8.299,7.206-14.438,15.926-14.438C40.792,7.001,48,13.748,48,22.047h-9.298
	c-0.216-3.44-3.1-6.274-6.776-6.274c-3.674,0-6.126,1.688-6.126,5.062c0,3.777,6.704,5.735,12.252,8.501
	C42.883,31.832,48,35.88,48,42.695c0,8.165-7.208,14.306-16.074,14.306c-8.72,0-15.926-6.748-15.926-14.98h9.296
	C25.441,45.395,28.322,48.229,31.926,48.229z"/>
<path fill="#1A1626" d="M38.052,29.335c-0.428-0.213-0.862-0.42-1.3-0.625C41.364,31.232,46,35.208,46,41.695
	c0,8.165-7.208,14.306-16.074,14.306c-2.237,0-4.372-0.45-6.313-1.25c2.43,1.416,5.274,2.25,8.313,2.25
	C40.792,57.001,48,50.86,48,42.695C48,35.88,42.883,31.832,38.052,29.335z"/>
<path fill="#1A1626" d="M45.989,22.047H48c0-6.14-3.95-11.421-9.593-13.758C42.958,10.948,45.989,16.664,45.989,22.047z"/>
<path fill="#1A1626" d="M25.8,20.834c0-3.374,2.452-5.062,6.126-5.062c0.705,0,1.94,0.301,2.573,0.494
	c-1.115-0.811-3.055-1.494-4.573-1.494c-3.674,0-6.126,1.688-6.126,5.062c0,2.433,2.785,4.11,6.246,5.735
	C27.574,24.233,25.8,22.774,25.8,20.834z"/>
<path fill="#1A1626" d="M23.429,42.021c0.481,2.309,2.24,4.228,4.563,4.926c-1.571-1.145-2.61-2.938-2.696-4.926H23.429z"/>
<rect x="29.499" y="2" fill="#302C3B" width="3.271" height="60"/>
<path fill-rule="evenodd" clip-rule="evenodd" fill="#4E5E67" d="M39.396,44.613c-0.001-1.208-1.208,2.729-4.441,4.125
	C33.163,49.512,39.399,49.322,39.396,44.613z"/>
<path fill-rule="evenodd" clip-rule="evenodd" fill="#4E5E67" d="M18.891,15.221c-0.265,1.123,1.708-2.8,4.985-4.799
	C25.69,9.314,19.919,10.842,18.891,15.221z"/>
</svg>
