<?xml version="1.0" encoding="utf-8"?>
<!-- Generator: Adobe Illustrator 15.0.0, SVG Export Plug-In . SVG Version: 6.00 Build 0)  -->
<!DOCTYPE svg PUBLIC "-//W3C//DTD SVG 1.1//EN" "http://www.w3.org/Graphics/SVG/1.1/DTD/svg11.dtd">
<svg version="1.1" id="Layer_1" xmlns="http://www.w3.org/2000/svg" xmlns:xlink="http://www.w3.org/1999/xlink" x="0px" y="0px"
	 width="64px" height="64px" viewBox="0 0 64 64" enable-background="new 0 0 64 64" xml:space="preserve">
<path fill="#529320" d="M55.405,24.824c-5.607-5.119-11.213-10.237-16.82-15.357c-8.208,12.509-22.16,23.645-35.439,31.666
	C2.785,42.818,2.403,44.479,2,46.11C7.799,51.407,13.6,56.703,19.399,62c13.7-7.498,28.15-18.176,36.935-30.303
	C56.054,29.426,55.743,27.135,55.405,24.824z"/>
<path fill="#92C932" d="M20.479,55.26C14.763,50.039,9.048,44.821,3.33,39.6c14.202-8.024,26.186-18.968,34.975-31.935
	c5.717,5.219,11.433,10.438,17.148,15.66C46.666,36.291,34.681,47.234,20.479,55.26z"/>
<path fill="#529320" d="M19.034,51.838c-3.813-3.48-7.623-6.959-11.433-10.44c0.234-0.137,0.467-0.276,0.702-0.413
	c0.77-0.456,0.874-1.309,0.244-1.884c-0.189-0.175-0.381-0.349-0.571-0.524c11.521-7.086,21.445-16.149,29.207-26.669
	c0.19,0.174,0.381,0.349,0.571,0.521c0.631,0.577,1.564,0.479,2.065-0.223c0.15-0.212,0.303-0.427,0.453-0.64
	c3.81,3.48,7.622,6.96,11.433,10.439c-0.15,0.213-0.303,0.427-0.454,0.64c-0.5,0.705-0.408,1.738,0.223,2.313
	c0.191,0.176,0.382,0.349,0.572,0.522C44.286,35.999,34.36,45.063,22.839,52.151c-0.191-0.176-0.381-0.35-0.571-0.526
	c-0.629-0.572-1.763-0.659-2.531-0.201C19.501,51.564,19.269,51.701,19.034,51.838z M10.07,41.544
	c3.096,2.827,6.194,5.656,9.29,8.483c1.184-0.398,2.574-0.305,3.626,0.271c10.544-6.69,19.706-15.057,27.036-24.688
	c-0.631-0.958-0.737-2.228-0.299-3.31c-3.098-2.828-6.195-5.656-9.291-8.484c-0.854,0.703-2.012,0.816-2.986,0.309
	c-7.33,9.63-16.493,17.998-27.039,24.69C10.962,39.705,10.838,40.764,10.07,41.544z"/>
<path fill="#529320" d="M25,38c-6.818-6.229,5.184-16.231,12-10C44.351,34.71,32.352,44.71,25,38z"/>
<path fill="#FFE12C" d="M19.968,28.008l17.15,15.659c1.948-1.651,3.829-3.37,5.64-5.149L25.61,22.857
	C23.799,24.637,21.917,26.354,19.968,28.008z"/>
<path fill-rule="evenodd" clip-rule="evenodd" fill="#FFFFFF" d="M24.854,29.169c-5.335-4.652-16.656,2.738-18.386-7.86
	c0,0-4.654-3.743-1.95-9.025c0,0-2.925-2.706-1.083-9.089C11.342,13.478,33.482,10.491,24.854,29.169z"/>
<path fill="#BEC3CF" d="M3.766,4.843C9.989,12.818,31.602,11.112,24.525,28c-5.141-3.562-14.977,1.698-16.986-5.419
	c0,0,3.708,1.067,5.438-0.329c-5.409-0.409-9.578-3.216-8.457-8.729c1.576,2.431,6.665,2.898,6.665,2.898S1.655,12.535,3.766,4.843
	 M3.134,2c0,0-2.673,5.299,0.189,9.832c0,0-2.092,5.955,2.286,9.367c1.707,11.809,14.476,3.538,19.574,9.139
	C34.897,9.39,10.619,12.221,3.134,2z"/>
<path fill-rule="evenodd" clip-rule="evenodd" fill="#FFFFFF" d="M60.806,60.564c-6.384,1.844-9.089-1.082-9.089-1.082
	c-5.283,2.705-9.025-1.949-9.025-1.949c-10.598-1.73-3.208-13.053-7.86-18.387C53.509,30.517,50.522,52.658,60.806,60.564z"/>
<path fill="#BEC3CF" d="M59.157,60.234c-7.692,2.109-11.58-7.42-11.58-7.42s0.468,5.09,2.899,6.666
	c-5.513,1.121-8.32-3.049-8.729-8.457c-1.396,1.73-0.329,5.438-0.329,5.438c-7.117-2.01-1.857-11.846-5.42-16.986
	C52.888,32.398,51.183,54.01,59.157,60.234 M33.662,38.816c5.602,5.1-2.67,17.867,9.14,19.574c3.412,4.379,9.366,2.285,9.366,2.285
	C56.701,63.539,62,60.867,62,60.867C51.779,53.381,54.609,29.102,33.662,38.816z"/>
</svg>
