<?xml version="1.0" encoding="utf-8"?>
<!-- Generator: Adobe Illustrator 15.0.0, SVG Export Plug-In . SVG Version: 6.00 Build 0)  -->
<!DOCTYPE svg PUBLIC "-//W3C//DTD SVG 1.1//EN" "http://www.w3.org/Graphics/SVG/1.1/DTD/svg11.dtd">
<svg version="1.1" id="Layer_1" xmlns="http://www.w3.org/2000/svg" xmlns:xlink="http://www.w3.org/1999/xlink" x="0px" y="0px"
	 width="64px" height="64px" viewBox="0 0 64 64" enable-background="new 0 0 64 64" xml:space="preserve">
<path fill="#302C3B" d="M62,56.193C62,59.4,59.313,62,56,62H8c-3.313,0-6-2.6-6-5.807V9.742c0-3.207,60-3.207,60,0V56.193z"/>
<path fill="#3E4347" d="M62,54.258c0,3.207-2.688,5.807-6,5.807H8c-3.313,0-6-2.6-6-5.807V7.807C2,4.6,4.688,2,8,2h48
	c3.313,0,6,2.6,6,5.807V54.258z"/>
<ellipse fill="#F9C802" cx="32" cy="31.032" rx="28" ry="26.999"/>
<ellipse fill="#302C3B" cx="31.999" cy="31.032" rx="6.194" ry="5.974"/>
<path fill="#FEEC9A" d="M32.225,40.584l8.576,12.271c6.322-2.379,11.363-7.24,13.83-13.336l-12.725-8.271
	C41.787,36.347,37.51,40.469,32.225,40.584z"/>
<path fill="#FEEC9A" d="M31.775,21.48L23.197,9.209c-6.32,2.379-11.361,7.24-13.826,13.335l12.725,8.271
	C22.211,25.718,26.488,21.594,31.775,21.48z"/>
<path fill="#EA8800" d="M32,42.695c-6.67,0-12.096-5.232-12.096-11.663c0-6.431,5.426-11.664,12.096-11.664
	c6.668,0,12.096,5.232,12.096,11.664C44.096,37.463,38.668,42.695,32,42.695z M32,21.758c-5.305,0-9.617,4.161-9.617,9.274
	s4.313,9.274,9.617,9.274c5.303,0,9.617-4.161,9.617-9.274S37.303,21.758,32,21.758z"/>
<path fill="#BEC3CF" d="M32,30.532v3c0,3.313,2.688,5.999,6,5.999h24V24.532C62,24.532,32,27.219,32,30.532z"/>
<path fill="#E6EBEF" d="M38,22.532c-3.313,0-6,2.687-6,6v3c0,3.313,2.688,6,6,6h24v-15H38z"/>
</svg>
