<?xml version="1.0" encoding="utf-8"?>
<!-- Generator: Adobe Illustrator 15.0.0, SVG Export Plug-In . SVG Version: 6.00 Build 0)  -->
<!DOCTYPE svg PUBLIC "-//W3C//DTD SVG 1.1//EN" "http://www.w3.org/Graphics/SVG/1.1/DTD/svg11.dtd">
<svg version="1.1" id="Layer_1" xmlns="http://www.w3.org/2000/svg" xmlns:xlink="http://www.w3.org/1999/xlink" x="0px" y="0px"
	 width="64px" height="64px" viewBox="0 0 64 64" enable-background="new 0 0 64 64" xml:space="preserve">
<rect x="2" y="46" fill="#A3C86B" width="60" height="8"/>
<rect x="2" y="10" fill="#C5DCA8" width="60" height="36"/>
<rect x="4" y="12" fill="#6E8189" width="55.999" height="32"/>
<path fill="#C5DCA8" d="M54.348,14H9.65C9.047,15.702,7.701,17.048,6,17.651V38.35C7.701,38.953,9.047,40.299,9.65,42h44.697
	c0.604-1.701,1.949-3.047,3.65-3.65V17.651C56.297,17.049,54.951,15.702,54.348,14z"/>
<rect x="2" y="50" fill="#7AB51D" width="60" height="2"/>
<path fill="#6E8189" d="M22,28.002c0,15.996,20,15.996,20,0C42,11.999,22,11.999,22,28.002z"/>
<path fill="#6E8189" d="M46,28.001c0,5.333,7.998,5.333,7.998,0C53.998,22.666,46,22.666,46,28.001z"/>
<path fill="#C5DCA8" d="M24,31.742c3.23,8.344,12.768,8.344,16,0C38.07,26.753,25.931,26.753,24,31.742z"/>
<path fill="#6E8189" d="M14,27c-1.103,0-2-0.897-2-2.001S12.897,23,14,23s2,0.896,2,1.999h2c0-1.857-1.28-3.409-3-3.857V20h-2v1.142
	c-1.721,0.448-3,2-3,3.857C10,27.204,11.793,29,14,29c1.103,0,2,0.896,2,2c0,1.104-0.897,2-2,2s-2-0.896-2-2h-2
	c0,1.857,1.279,3.411,3,3.856V36h2v-1.145c1.721-0.445,3-1.999,3-3.856C18,28.795,16.206,27,14,27z"/>
<rect x="23" y="38" fill="#6E8189" width="18" height="2"/>
<rect x="44" y="34" fill="#6E8189" width="11.998" height="2"/>
<rect x="2" y="46" fill="#7AB51D" width="60" height="2"/>
<rect x="27" y="46" fill="#BEC3CF" width="10" height="8"/>
<rect x="36" y="46" fill="#F59E01" width="2" height="8"/>
<rect x="26" y="46" fill="#F59E01" width="2" height="8"/>
<rect x="27" y="10" fill="#E6EBEF" width="10" height="36"/>
<rect x="36" y="10" fill="#F9C802" width="2" height="36"/>
<rect x="26" y="10" fill="#F9C802" width="2" height="36"/>
</svg>
