<?xml version="1.0" encoding="utf-8"?>
<!-- Generator: Adobe Illustrator 15.0.0, SVG Export Plug-In . SVG Version: 6.00 Build 0)  -->
<!DOCTYPE svg PUBLIC "-//W3C//DTD SVG 1.1//EN" "http://www.w3.org/Graphics/SVG/1.1/DTD/svg11.dtd">
<svg version="1.1" id="Layer_1" xmlns="http://www.w3.org/2000/svg" xmlns:xlink="http://www.w3.org/1999/xlink" x="0px" y="0px"
	 width="64px" height="64px" viewBox="0 0 64 64" enable-background="new 0 0 64 64" xml:space="preserve">
<path fill="#302C3B" d="M7.325,53.816h49.378c0.752,0,1.361-0.623,1.361-1.389V19.389c0-0.768-0.609-1.389-1.361-1.389H7.325
	c-0.752,0-1.362,0.621-1.362,1.389v33.039C5.963,53.193,6.573,53.816,7.325,53.816z"/>
<path fill="#302C3B" d="M2,58.668C2,60.334,3.348,62,4.997,62h54.007C60.559,62,62,60.336,62,58.668H2z"/>
<polygon fill="#CFD8DD" points="57,53.816 7,53.816 2,58.668 62,58.668 "/>
<polygon fill="#99A8AE" points="55.348,54.203 8.681,54.203 7.014,56.242 57.014,56.242 "/>
<polygon fill="#302C3B" points="37.145,57.139 26.885,57.139 26.115,58.158 37.914,58.158 "/>
<rect x="9.016" y="21.017" fill="#4E5E67" width="45.996" height="29.782"/>
<polygon fill="#6E8189" points="55.012,50.799 49.016,50.799 19.016,21.017 55.012,21.017 "/>
<circle fill="#CFD8DD" cx="32.014" cy="19.552" r="0.777"/>
<path fill="#4E5E67" d="M36.316,60.838h-8.634c-0.296,0-1.084,0-1.084-1.008h10.803C37.401,60.838,36.597,60.838,36.316,60.838z"/>
</svg>
