<?xml version="1.0" encoding="utf-8"?>
<!-- Generator: Adobe Illustrator 15.0.0, SVG Export Plug-In . SVG Version: 6.00 Build 0)  -->
<!DOCTYPE svg PUBLIC "-//W3C//DTD SVG 1.1//EN" "http://www.w3.org/Graphics/SVG/1.1/DTD/svg11.dtd">
<svg version="1.1" id="Layer_1" xmlns="http://www.w3.org/2000/svg" xmlns:xlink="http://www.w3.org/1999/xlink" x="0px" y="0px"
	 width="64px" height="64px" viewBox="0 0 64 64" enable-background="new 0 0 64 64" xml:space="preserve">
<path fill="#4E5E67" d="M62,55.593c0,3.627-9,3.432-9,3.432l-25.15-6.311L62,29.11V55.593z"/>
<path fill="#302C3B" d="M60.189,13.397c-1.602-1.02-8.398,3.199-8.398,3.199L50.756,60.72C56.512,55.772,62,55.683,62,55.683V17.296
	C62,15.731,61.412,14.176,60.189,13.397z"/>
<path fill="#4E5E67" d="M52.234,56.673c0,3.623-2.566,5.938-5.674,5.186L7.255,52.319c-2.314-0.563-4.16-3.482-4.16-6.533v-30.33
	l49.183,1.189L52.234,56.673z"/>
<path fill="#302C3B" d="M52.879,32.581c0,3.625-3.041,6.258-6.148,5.744L7.424,31.823c-2.316-0.383-4.331-3.22-4.331-6.271
	l50.001-9.261L52.879,32.581z"/>
<path fill="#4E5E67" d="M4.549,11.479c-3.734,2.535-3.541,16.802,1.747,17.885l39.306,6.137c3.107,0.486,5.674-2.051,5.674-5.674
	c0,0-1.158-11.705,1.002-13.182l1.846-0.801L4.549,11.479z"/>
<polygon fill="#785647" points="30.946,26.587 20.356,25.171 20.356,38.075 30.946,39.983 "/>
<polygon fill="#FEEC9A" points="20.356,25.171 18.438,32.581 28.813,35.063 30.946,26.587 "/>
<polygon fill="#E5BC5E" points="20.356,38.075 30.946,39.983 29.026,34.243 18.438,32.581 "/>
<path fill="#6E8189" d="M56.703,12.192L20.729,9.046l-13.603,1.59L6.48,10.71c-0.702,0.129-1.357,0.395-1.932,0.77l47.729,5.166
	l4.971-2.156c4.143-2.027,4.611,1.617,4.611,1.617C61.359,12.907,58.453,12.356,56.703,12.192z"/>
<path fill="#E5BC5E" d="M18.692,10.202c0-4.295,3.438-4.533,4.224-4.752c0.741-0.205,0.151-2.209-0.615-2.209
	c-2.271,0-6.258,0.998-6.258,6.961C16.043,10.864,18.692,10.864,18.692,10.202z"/>
<path fill="#785647" d="M18.2,9.907c-0.095-0.586-0.074-1.201,0.062-1.797c0.137-0.598,0.423-1.174,0.847-1.641
	c0.425-0.461,0.968-0.809,1.546-1.006c0.579-0.209,1.179-0.277,1.771-0.309c-0.558,0.223-1.122,0.379-1.632,0.641
	c-0.505,0.26-0.971,0.576-1.338,0.99C18.692,7.601,18.385,8.737,18.2,9.907z"/>
<path fill="#302C3B" d="M43.709,6.876c-0.141,1.697-1.635,2.959-3.334,2.818L21.91,8.157c-1.695-0.139-2.961-1.631-2.816-3.328l0,0
	c0.142-1.699,1.633-2.961,3.332-2.818l18.463,1.537C42.586,3.687,43.852,5.181,43.709,6.876L43.709,6.876z"/>
<path fill="#4E5E67" d="M39.961,9.128l-19.678-1.6c-1.761-0.935-1.4-3.794-0.363-4.555l20.699,1.479
	C39.18,5,38.695,8.297,39.961,9.128z"/>
<path fill="#E5BC5E" d="M43.971,13.071c0-2.613-1.857-4.205-2.98-4.664c-1.676-0.688-0.326-3.723,1.35-2.941
	c1.994,0.93,4.699,3.723,4.699,7.605C47.039,13.95,43.971,13.95,43.971,13.071z"/>
<path fill="#785647" d="M44.375,13.106c-0.184-1.17-0.547-2.254-1.17-3.201c-0.615-0.949-1.422-1.771-2.416-2.408
	c0.582,0.139,1.115,0.447,1.59,0.816c0.48,0.367,0.889,0.83,1.221,1.338C44.258,10.671,44.564,11.933,44.375,13.106z"/>
</svg>
