<?xml version="1.0" encoding="utf-8"?>
<!-- Generator: Adobe Illustrator 15.0.0, SVG Export Plug-In . SVG Version: 6.00 Build 0)  -->
<!DOCTYPE svg PUBLIC "-//W3C//DTD SVG 1.1//EN" "http://www.w3.org/Graphics/SVG/1.1/DTD/svg11.dtd">
<svg version="1.1" id="Layer_1" xmlns="http://www.w3.org/2000/svg" xmlns:xlink="http://www.w3.org/1999/xlink" x="0px" y="0px"
	 width="64px" height="64px" viewBox="0 0 64 64" enable-background="new 0 0 64 64" xml:space="preserve">
<polygon fill="#E6EBEF" points="8,2 8,62 56,62 56,16 42,2 "/>
<rect x="20" y="10" fill="#6E8189" width="32" height="4"/>
<rect x="12" y="50" fill="#6E8189" width="32" height="4"/>
<rect x="12" y="18" fill="#6E8189" width="40" height="4"/>
<rect x="12" y="26" fill="#6E8189" width="40" height="4"/>
<rect x="12" y="34" fill="#6E8189" width="40" height="4"/>
<rect x="12" y="42" fill="#6E8189" width="40" height="4"/>
<path opacity="0.5" fill="#302C3B" d="M42,2c0,0,1.539,11.538-0.77,17.308C50.461,19.308,56,16,56,16L42,2z"/>
<path fill="#E6EBEF" d="M42,2c2.309,6.923,1.539,12.692,1.539,12.692C51.615,13.538,56,16,56,16S51.23,4.308,42,2z"/>
</svg>
