<?xml version="1.0" encoding="utf-8"?>
<!-- Generator: Adobe Illustrator 15.0.0, SVG Export Plug-In . SVG Version: 6.00 Build 0)  -->
<!DOCTYPE svg PUBLIC "-//W3C//DTD SVG 1.1//EN" "http://www.w3.org/Graphics/SVG/1.1/DTD/svg11.dtd">
<svg version="1.1" id="Layer_1" xmlns="http://www.w3.org/2000/svg" xmlns:xlink="http://www.w3.org/1999/xlink" x="0px" y="0px"
	 width="64px" height="64px" viewBox="0 0 64 64" enable-background="new 0 0 64 64" xml:space="preserve">
<path fill="#E81C27" d="M62,6.616C62,4.226,60.061,2,57.846,2H6.154C3.939,2,2,4.226,2,6.616V26h60V6.616z"/>
<path fill="#E6EBEF" d="M2,26v31.385C2,59.773,3.939,62,6.154,62h51.691C60.061,62,62,59.773,62,57.385V26H2z"/>
<path fill="#302C3B" d="M15,38v-4c2.652,0,4-1.2,4-4h6v28h-6V38H15z"/>
<path fill="#302C3B" d="M49,36c-5.305,5.6-10,13.602-10,22h-6c0-8.398,3.691-16.4,9-22H31v-6h18V36z"/>
<path fill="#FFFFFF" d="M9.719,14.53c0,3.589,4.08,4.236,4.08,0.647V8h2.721v7.177C16.519,23.359,7,22.711,7,14.53H9.719z"/>
<path fill="#FFFFFF" d="M19.238,8h2.72v6.565c0,4.595,5.439,4.595,5.439,0V8h2.721v6.565c0,8.58-10.879,8.58-10.879,0V8z"/>
<path fill="#FFFFFF" d="M32.837,8h2.719v9.75H41V21h-8.163V8z"/>
<rect x="54" y="8" fill="#FFFFFF" width="3" height="3"/>
<rect x="49" y="8" fill="#FFFFFF" width="3" height="3"/>
<rect x="44" y="8" fill="#FFFFFF" width="3" height="3"/>
<rect x="54" y="13" fill="#FFFFFF" width="3" height="3"/>
<rect x="49" y="13" fill="#FFFFFF" width="3" height="3"/>
<rect x="44" y="13" fill="#FFFFFF" width="3" height="3"/>
<rect x="54" y="18" fill="#FFFFFF" width="3" height="3"/>
<rect x="49" y="18" fill="#FFFFFF" width="3" height="3"/>
<rect x="44" y="18" fill="#FFFFFF" width="3" height="3"/>
</svg>
