<?xml version="1.0" encoding="utf-8"?>
<!-- Generator: Adobe Illustrator 15.0.0, SVG Export Plug-In . SVG Version: 6.00 Build 0)  -->
<!DOCTYPE svg PUBLIC "-//W3C//DTD SVG 1.1//EN" "http://www.w3.org/Graphics/SVG/1.1/DTD/svg11.dtd">
<svg version="1.1" id="Layer_1" xmlns="http://www.w3.org/2000/svg" xmlns:xlink="http://www.w3.org/1999/xlink" x="0px" y="0px"
	 width="64px" height="64px" viewBox="0 0 64 64" enable-background="new 0 0 64 64" xml:space="preserve">
<path fill="#BEC3CF" d="M26.153,4.778c-0.814,0.67-0.921,1.896-0.24,2.695C26.396,8.04,55.718,42.38,55.847,42.534
	c3.436,4.02,2.897,10.041-1.196,13.418c-4.093,3.377-10.221,2.85-13.654-1.174L7.256,15.256c-2.074-2.426-1.749-6.057,0.72-8.09
	c2.396-1.975,5.942-1.734,8.044,0.496l29.478,34.565h-0.002c0.698,0.816,0.588,2.035-0.243,2.721
	c-0.809,0.666-2.003,0.584-2.711-0.176c0,0-25.188-29.42-25.601-29.899c-0.682-0.801-1.929-0.908-2.741-0.236
	c-0.811,0.668-0.861,1.848-0.18,2.645c0.57,0.666,25.135,29.473,25.432,29.821c0.65,0.762,1.432,1.32,2.356,1.715
	c1.057,0.451,2.374,0.543,3.489,0.264c1.374-0.344,2.527-1.094,3.395-2.205c1.604-2.066,1.47-5.102-0.195-7.086l0,0L19.191,5.415
	C15.74,1.372,9.586,0.842,5.473,4.235c-4.111,3.393-4.65,9.441-1.198,13.482l33.739,39.522c4.814,5.637,13.402,6.375,19.141,1.645
	c5.737-4.732,6.488-13.174,1.672-18.809C58.344,39.503,29.024,5.165,28.894,5.014C28.213,4.213,26.965,4.106,26.153,4.778z"/>
<path fill="#99A8AE" d="M55.013,55.622c0.132-0.098,0.266-0.188,0.394-0.293c4.095-3.377,4.631-9.398,1.195-13.42
	C56.474,41.755,27.153,7.417,26.669,6.85c-0.573-0.672-0.58-1.639-0.091-2.33c-0.148,0.07-0.295,0.15-0.425,0.258
	c-0.814,0.67-0.921,1.896-0.24,2.695C26.396,8.04,55.718,42.38,55.847,42.534C59.175,46.429,58.765,52.194,55.013,55.622z"/>
<path fill="#99A8AE" d="M38.77,56.616L5.029,17.092c-3.344-3.914-2.931-9.709,0.838-13.15C5.734,4.04,5.602,4.129,5.473,4.235
	c-4.111,3.393-4.65,9.441-1.198,13.482l33.739,39.522c4.814,5.637,13.402,6.375,19.141,1.645c0.125-0.105,0.237-0.221,0.361-0.33
	C51.786,62.94,43.478,62.128,38.77,56.616z"/>
<path fill="#99A8AE" d="M46.052,48.456c-1.115,0.281-2.431,0.188-3.488-0.262c-0.925-0.396-1.706-0.953-2.356-1.715
	c-0.297-0.348-24.86-29.155-25.432-29.823c-0.571-0.666-0.621-1.6-0.147-2.277c-0.15,0.066-0.296,0.15-0.429,0.258
	c-0.811,0.668-0.861,1.848-0.18,2.645c0.57,0.666,25.135,29.473,25.432,29.821c0.65,0.762,1.432,1.32,2.356,1.715
	c1.057,0.451,2.374,0.543,3.489,0.264c1.088-0.271,2.029-0.807,2.808-1.564C47.492,47.944,46.81,48.267,46.052,48.456z"/>
<path fill="#99A8AE" d="M16.02,7.663l29.478,34.565h-0.002c0.587,0.688,0.597,1.656,0.092,2.354
	c0.146-0.068,0.289-0.148,0.421-0.258c0.831-0.684,0.94-1.902,0.242-2.719h0.002L16.775,7.04c-2.102-2.23-5.65-2.471-8.045-0.496
	C8.604,6.649,8.487,6.758,8.373,6.87C10.747,5.227,14.03,5.551,16.02,7.663z"/>
</svg>
