<?xml version="1.0" encoding="utf-8"?>
<!-- Generator: Adobe Illustrator 15.0.0, SVG Export Plug-In . SVG Version: 6.00 Build 0)  -->
<!DOCTYPE svg PUBLIC "-//W3C//DTD SVG 1.1//EN" "http://www.w3.org/Graphics/SVG/1.1/DTD/svg11.dtd">
<svg version="1.1" id="Layer_1" xmlns="http://www.w3.org/2000/svg" xmlns:xlink="http://www.w3.org/1999/xlink" x="0px" y="0px"
	 width="64px" height="64px" viewBox="0 0 64 64" enable-background="new 0 0 64 64" xml:space="preserve">
<path fill="#99A8AE" d="M32.576,61.602c-0.064,0.531-1.171,0.531-1.234,0C26,17,26,17,26,17h12C38,17,38,17,32.576,61.602z"/>
<polygon fill="#CFD8DD" points="27,17 32.001,61 32,17 "/>
<path fill="#6E8189" d="M28.136,34.83c0,0,3.865,1.951,7.483,1.742C38,17.006,38,17,38,17H26C26,17,25.793,15.272,28.136,34.83z"/>
<path fill="#E81C27" d="M16,18c0-8.834,7.167-16,16-16c8.838,0,16,7.166,16,16c0,8.838-7.162,16-16,16C23.167,34,16,26.838,16,18z"
	/>
<path fill-rule="evenodd" clip-rule="evenodd" fill="#F46C60" d="M19.669,14.75c0.49,3.445,6.938-3.295,13.467-9.09
	C37.35,1.934,18.196,4.387,19.669,14.75z"/>
<path fill="#B00505" d="M22.133,30.58c1.528,0.346,3.104,0.549,4.734,0.549c10.189,0,18.693-7.213,20.689-16.816
	C47.838,15.496,47.998,16.729,48,18c-0.002,8.836-7.162,15.994-16.003,16C28.271,33.994,24.856,32.711,22.133,30.58z"/>
</svg>
