<?xml version="1.0" encoding="utf-8"?>
<!-- Generator: Adobe Illustrator 15.0.0, SVG Export Plug-In . SVG Version: 6.00 Build 0)  -->
<!DOCTYPE svg PUBLIC "-//W3C//DTD SVG 1.1//EN" "http://www.w3.org/Graphics/SVG/1.1/DTD/svg11.dtd">
<svg version="1.1" id="Layer_1" xmlns="http://www.w3.org/2000/svg" xmlns:xlink="http://www.w3.org/1999/xlink" x="0px" y="0px"
	 width="64px" height="64px" viewBox="0 0 64 64" enable-background="new 0 0 64 64" xml:space="preserve">
<path fill="#B47D56" d="M56,58c0,2.199-1.729,4-3.84,4H11.84C9.728,62,8,60.199,8,58V6c0-2.2,1.728-4,3.84-4h40.32
	C54.271,2,56,3.8,56,6V58z"/>
<polygon fill="#785647" points="12.641,8.499 13.87,59.957 52.808,59.17 51.641,8 "/>
<rect x="12" y="6" fill="#FFFFFF" width="40" height="52"/>
<rect x="28" y="18" fill="#92C932" width="20" height="2"/>
<rect x="28" y="28" fill="#6E8189" width="20" height="2"/>
<rect x="28" y="38" fill="#6E8189" width="20" height="2"/>
<rect x="28" y="48" fill="#6E8189" width="20" height="2"/>
<rect x="16" y="26" fill="#6E8189" width="6" height="6"/>
<rect x="16" y="36" fill="#6E8189" width="6" height="6"/>
<rect x="16" y="46" fill="#6E8189" width="6" height="6"/>
<path fill="#CFD8DD" d="M42,8c0,1.1-0.9,2-2,2H24c-1.1,0-2-0.9-2-2V6h20V8z"/>
<path fill="#99A8AE" d="M42,7c0,1.1-0.9,2-2,2H24c-1.1,0-2-0.9-2-2V5c0-1.1,0.9-2,2-2h16c1.1,0,2,0.9,2,2V7z"/>
<path fill="#302C3B" d="M39,6H25V4c0-1.1,0.9-2,2-2h10c1.1,0,2,0.9,2,2V6z"/>
<rect x="25" y="6" fill="#4E5E67" width="14" height="1"/>
<polygon fill="#92C932" points="18.188,20.017 15.795,17.621 14.803,18.612 18.188,22 23.197,16.99 22.205,16 "/>
</svg>
