<?xml version="1.0" encoding="utf-8"?>
<!-- Generator: Adobe Illustrator 15.0.0, SVG Export Plug-In . SVG Version: 6.00 Build 0)  -->
<!DOCTYPE svg PUBLIC "-//W3C//DTD SVG 1.1//EN" "http://www.w3.org/Graphics/SVG/1.1/DTD/svg11.dtd">
<svg version="1.1" id="Layer_1" xmlns="http://www.w3.org/2000/svg" xmlns:xlink="http://www.w3.org/1999/xlink" x="0px" y="0px"
	 width="64px" height="64px" viewBox="0 0 64 64" enable-background="new 0 0 64 64" xml:space="preserve">
<path fill="#99A8AE" d="M2.891,61.926c-0.394,0.31-1.126-0.424-0.816-0.816c25.98-33.074,25.98-33.074,25.98-33.074l7.94,7.947
	C35.995,35.982,35.995,35.982,2.891,61.926z"/>
<polygon fill="#CFD8DD" points="28.716,28.698 2.909,61.146 32.025,32.009 "/>
<path fill="#6E8189" d="M22.733,34.686c0,0,3.939,4.191,5.583,7.314l7.68-6.018l-7.94-7.947L22.733,34.686z"/>
<polygon fill="#E81C27" points="35.813,39.056 25.109,28.344 46.118,7.323 56.822,18.038 "/>
<polygon fill="#B00505" points="35.814,39.058 32.082,35.322 53.09,14.302 56.822,18.038 "/>
<path fill="#F46C60" d="M35.123,22.943c-0.682,0.683-2.006-0.643-1.324-1.324l6.92-6.922c0.682-0.683,2.004,0.64,1.322,1.322
	L35.123,22.943z"/>
<path fill="#E81C27" d="M42.982,53.001c0.819-7.332-9.17-22.79-9.17-22.79c-6.784-6.79-15.452-10.003-22.774-9.188L42.982,53.001z"
	/>
<path fill="#B00505" d="M37.027,47.041l5.955,5.96c0.819-7.332-2.385-16.001-9.17-22.79c-0.615-0.617-1.252-1.194-1.898-1.751
	C36.508,33.936,38.254,40.856,37.027,47.041z"/>
<path fill="#E81C27" d="M62,23.187c-5.326,1.014-15.88-5.296-15.88-5.296C41.624,13.392,39.811,7.326,40.821,2L62,23.187z"/>
<path fill="#B00505" d="M58.051,19.237L62,23.187c-5.326,1.014-11.383-0.796-15.88-5.296c-0.407-0.409-0.786-0.835-1.149-1.268
	C48.647,19.618,53.529,20.478,58.051,19.237z"/>
<path fill-rule="evenodd" clip-rule="evenodd" fill="#F46C60" d="M18.134,25.374c-0.979,1.385,3.98,1.72,8.65,2.413
	C29.794,28.24,21.085,21.21,18.134,25.374z"/>
<path fill-rule="evenodd" clip-rule="evenodd" fill="#F46C60" d="M44.953,12.884c1.13,0.142-0.246-2.905-1.317-5.895
	C42.947,5.062,41.55,12.457,44.953,12.884z"/>
</svg>
