<?xml version="1.0" encoding="utf-8"?>
<!-- Generator: Adobe Illustrator 15.0.0, SVG Export Plug-In . SVG Version: 6.00 Build 0)  -->
<!DOCTYPE svg PUBLIC "-//W3C//DTD SVG 1.1//EN" "http://www.w3.org/Graphics/SVG/1.1/DTD/svg11.dtd">
<svg version="1.1" id="Layer_1" xmlns="http://www.w3.org/2000/svg" xmlns:xlink="http://www.w3.org/1999/xlink" x="0px" y="0px"
	 width="64px" height="64px" viewBox="0 0 64 64" enable-background="new 0 0 64 64" xml:space="preserve">
<circle fill="#F9C802" cx="32" cy="32" r="30"/>
<circle fill="#FFFFFF" cx="32" cy="32" r="6.637"/>
<g>
	<path fill="#FEEC9A" d="M32.24,42.613l9.191,13.635c6.771-2.643,12.174-8.045,14.816-14.818L42.613,32.24
		C42.486,37.904,37.904,42.486,32.24,42.613z"/>
</g>
<g>
	<path fill="#FEEC9A" d="M31.76,21.387L22.568,7.752c-6.771,2.644-12.174,8.045-14.816,14.817l13.635,9.19
		C21.514,26.096,26.096,21.514,31.76,21.387z"/>
</g>
<path fill="#EA8800" d="M32,44.959c-7.146,0-12.959-5.814-12.959-12.959c0-7.146,5.813-12.959,12.959-12.959
	S44.959,24.854,44.959,32C44.959,39.145,39.146,44.959,32,44.959z M32,21.696c-5.682,0-10.305,4.622-10.305,10.304
	c0,5.683,4.623,10.305,10.305,10.305S42.305,37.683,42.305,32C42.305,26.318,37.682,21.696,32,21.696z"/>
</svg>
