<?xml version="1.0" encoding="utf-8"?>
<!-- Generator: Adobe Illustrator 15.0.0, SVG Export Plug-In . SVG Version: 6.00 Build 0)  -->
<!DOCTYPE svg PUBLIC "-//W3C//DTD SVG 1.1//EN" "http://www.w3.org/Graphics/SVG/1.1/DTD/svg11.dtd">
<svg version="1.1" id="Layer_1" xmlns="http://www.w3.org/2000/svg" xmlns:xlink="http://www.w3.org/1999/xlink" x="0px" y="0px"
	 width="64px" height="64px" viewBox="0 0 64 64" enable-background="new 0 0 64 64" xml:space="preserve">
<path fill="#FFE463" d="M9.822,2.853c1.138-1.137,3-1.137,4.138,0L61.147,50.04c1.137,1.137,1.137,2.998,0,4.137l-6.969,6.969
	c-1.138,1.139-3,1.139-4.139,0L2.854,13.958c-1.138-1.139-1.138-3,0-4.139L9.822,2.853z"/>
<path fill="#E5BC5E" d="M37.931,40.183C22.812,25.063,11.18,12.181,11.951,11.411c0.22-0.221,1.425,0.57,3.382,2.156
	c-2.978-3.092-5.638-5.947-7.828-8.398l-2.63,2.629c4.185,3.766,9.381,8.711,14.905,14.234
	c12.762,12.762,22.439,23.775,21.614,24.602c-0.826,0.826-11.84-8.852-24.603-21.613c-5.51-5.51-10.443-10.691-14.205-14.871
	c-0.851,1.143-0.768,2.773,0.268,3.809l24.354,24.354c1.372-0.984,9.548,5.293,18.441,14.188c3.139,3.141,5.953,6.189,8.238,8.885
	c0.098-0.076,0.201-0.148,0.291-0.238l2.729-2.729C51.794,53.763,45.116,47.368,37.931,40.183z"/>
<path fill="#E5BC5E" d="M9.821,2.854L9.606,3.067c3.97,3.547,9.001,8.32,14.369,13.689c11.829,11.828,20.795,22.039,20.027,22.807
	c-0.198,0.199-1.019-0.25-2.326-1.217c6.798,6.82,12.835,13.135,17.28,18.023l2.19-2.193c0.061-0.061,0.104-0.129,0.158-0.193
	c-1.577-1.51-3.286-3.184-5.062-4.961c-7.239-7.238-12.805-13.41-12.43-13.785s6.547,5.189,13.787,12.43
	c1.559,1.559,3.034,3.063,4.396,4.477c0.008-0.762-0.273-1.525-0.851-2.104L13.96,2.854C12.821,1.716,10.96,1.716,9.821,2.854z"/>
<rect x="10.025" y="2.258" transform="matrix(-0.708 -0.7062 0.7062 -0.708 13.4607 21.081)" fill="#594640" width="2.127" height="11"/>
<rect x="14.979" y="6.075" transform="matrix(-0.7072 -0.707 0.707 -0.7072 21.1498 26.407)" fill="#594640" width="2.127" height="5.499"/>
<rect x="17.99" y="9.083" transform="matrix(-0.7066 -0.7076 0.7076 -0.7066 24.1458 33.6767)" fill="#594640" width="2.128" height="5.499"/>
<rect x="20.998" y="12.094" transform="matrix(-0.7063 -0.7079 0.7079 -0.7063 27.1384 40.9447)" fill="#594640" width="2.13" height="5.497"/>
<rect x="22.066" y="14.3" transform="matrix(-0.7066 -0.7076 0.7076 -0.7066 25.4664 50.1559)" fill="#594640" width="2.128" height="10.997"/>
<rect x="27.019" y="18.116" transform="matrix(-0.7076 -0.7066 0.7066 -0.7076 33.2092 55.4735)" fill="#594640" width="2.128" height="5.499"/>
<rect x="30.031" y="21.127" transform="matrix(-0.7066 -0.7076 0.7076 -0.7066 36.1746 62.7478)" fill="#594640" width="2.128" height="5.497"/>
<rect x="33.04" y="24.136" transform="matrix(-0.7069 -0.7073 0.7073 -0.7069 39.1956 70.0123)" fill="#594640" width="2.129" height="5.497"/>
<rect x="34.104" y="26.34" transform="matrix(-0.7076 -0.7066 0.7066 -0.7076 37.5553 79.2214)" fill="#594640" width="2.131" height="10.999"/>
<rect x="39.062" y="30.155" transform="matrix(-0.7073 -0.7069 0.7069 -0.7073 45.2477 84.5442)" fill="#594640" width="2.128" height="5.501"/>
<rect x="42.072" y="33.167" transform="matrix(-0.7069 -0.7073 0.7073 -0.7069 48.2236 91.816)" fill="#594640" width="2.129" height="5.498"/>
<rect x="45.081" y="36.177" transform="matrix(-0.7069 -0.7073 0.7073 -0.7069 51.2303 99.0816)" fill="#594640" width="2.129" height="5.498"/>
<rect x="46.147" y="38.381" transform="matrix(-0.7064 -0.7078 0.7078 -0.7064 49.5062 108.2941)" fill="#594640" width="2.13" height="10.997"/>
<rect x="51.1" y="42.197" transform="matrix(-0.708 -0.7062 0.7062 -0.708 57.3578 113.6094)" fill="#594640" width="2.13" height="5.501"/>
<rect x="54.113" y="45.208" transform="matrix(-0.7071 -0.7071 0.7071 -0.7071 60.281 120.8833)" fill="#594640" width="2.127" height="5.499"/>
<rect x="57.122" y="48.218" transform="matrix(-0.7071 -0.7071 0.7071 -0.7071 63.2925 128.1502)" fill="#594640" width="2.13" height="5.497"/>
</svg>
