<?xml version="1.0" encoding="utf-8"?>
<!-- Generator: Adobe Illustrator 15.0.0, SVG Export Plug-In . SVG Version: 6.00 Build 0)  -->
<!DOCTYPE svg PUBLIC "-//W3C//DTD SVG 1.1//EN" "http://www.w3.org/Graphics/SVG/1.1/DTD/svg11.dtd">
<svg version="1.1" id="Layer_1" xmlns="http://www.w3.org/2000/svg" xmlns:xlink="http://www.w3.org/1999/xlink" x="0px" y="0px"
	 width="64px" height="64px" viewBox="0 0 64 64" enable-background="new 0 0 64 64" xml:space="preserve">
<path fill="#EA8800" d="M4,60c0,1.1,0.891,2,1.979,2H55.47c1.09,0,1.978-0.9,1.978-2V10c0-1.1-0.888-2-1.978-2H5.979
	C4.891,8,4,8.9,4,10V60z"/>
<path fill="#F9C802" d="M4.361,60.039C4.148,61.117,4.863,62,5.952,62h49.491c1.09,0,2.153-0.883,2.366-1.961L59.963,18
	c0.213-1.078-0.502-1.961-1.59-1.961H8.882c-1.087,0-2.154,0.883-2.367,1.961L4.361,60.039z"/>
<path fill="#0FB4D4" d="M6,8h15.828V4c0-1.1-0.891-2-1.979-2H7.978C6.89,2,6,2.9,6,4V8z"/>
</svg>
