<?xml version="1.0" encoding="utf-8"?>
<!-- Generator: Adobe Illustrator 15.0.0, SVG Export Plug-In . SVG Version: 6.00 Build 0)  -->
<!DOCTYPE svg PUBLIC "-//W3C//DTD SVG 1.1//EN" "http://www.w3.org/Graphics/SVG/1.1/DTD/svg11.dtd">
<svg version="1.1" id="Layer_1" xmlns="http://www.w3.org/2000/svg" xmlns:xlink="http://www.w3.org/1999/xlink" x="0px" y="0px"
	 width="64px" height="64px" viewBox="0 0 64 64" enable-background="new 0 0 64 64" xml:space="preserve">
<rect x="2" y="2" fill="#CFD8DD" width="60" height="60"/>
<rect x="47" y="5" fill="#FFFFFF" width="12" height="12"/>
<rect x="33" y="5" fill="#FFFFFF" width="12" height="12"/>
<rect x="19" y="5" fill="#FFFFFF" width="12" height="12"/>
<rect x="5" y="5" fill="#FFFFFF" width="12" height="12"/>
<rect x="47" y="19" fill="#FFFFFF" width="12" height="12"/>
<rect x="33" y="19" fill="#FFFFFF" width="12" height="12"/>
<rect x="19" y="19" fill="#FFFFFF" width="12" height="12"/>
<rect x="5" y="19" fill="#FFFFFF" width="12" height="12"/>
<rect x="47" y="33" fill="#FFFFFF" width="12" height="12"/>
<rect x="33" y="33" fill="#FFFFFF" width="12" height="12"/>
<rect x="19" y="33" fill="#FFFFFF" width="12" height="12"/>
<rect x="5" y="33" fill="#FFFFFF" width="12" height="12"/>
<rect x="47" y="47" fill="#FFFFFF" width="12" height="12"/>
<rect x="33" y="47" fill="#FFFFFF" width="12" height="12"/>
<rect x="19" y="47" fill="#FFFFFF" width="12" height="12"/>
<rect x="5" y="47" fill="#FFFFFF" width="12" height="12"/>
<polygon fill="#E81C27" points="6.835,59.795 3.165,58.205 20.715,17.685 27.008,26.713 38.178,10.839 50.618,14.321 57.318,3.917 
	60.682,6.083 52.382,18.97 39.822,15.452 26.992,33.686 21.535,25.856 "/>
<path fill="#CFD8DD" d="M2,2v60h60V2H2z M59,59H5V5h54V59z"/>
</svg>
