<?xml version="1.0" encoding="utf-8"?>
<!-- Generator: Adobe Illustrator 15.0.0, SVG Export Plug-In . SVG Version: 6.00 Build 0)  -->
<!DOCTYPE svg PUBLIC "-//W3C//DTD SVG 1.1//EN" "http://www.w3.org/Graphics/SVG/1.1/DTD/svg11.dtd">
<svg version="1.1" id="Layer_1" xmlns="http://www.w3.org/2000/svg" xmlns:xlink="http://www.w3.org/1999/xlink" x="0px" y="0px"
	 width="64px" height="64px" viewBox="0 0 64 64" enable-background="new 0 0 64 64" xml:space="preserve">
<path fill="#6E8189" d="M2,46.307v11.387C2,59.923,4.154,62,6.615,62h50.756c2.461,0,4.613-2.077,4.613-4.307V46.307H2z"/>
<path fill="#E6EBEF" d="M57.371,2H6.615C4.154,2,2,3.937,2,6.02V53.98C2,56.062,4.154,58,6.615,58h50.756
	c2.461,0,4.613-1.938,4.613-4.02V6.02C61.984,3.937,59.832,2,57.371,2z"/>
<path fill="#6E8189" d="M44.299,58c17.686-4.407,17.686-16.13,17.686-16.13v8.569C59.293,59.071,44.299,58,44.299,58z"/>
<path fill="#302C3B" d="M14.996,35.6v-3.732c2.652,0,3.999-1.121,3.999-3.734h5.999v26.134h-5.999V35.6H14.996z"/>
<path fill="#302C3B" d="M48.988,33.732c-5.303,5.227-9.998,12.695-9.998,20.534h-5.998c0-7.839,3.69-15.308,8.998-20.534H30.992
	v-5.6h17.996V33.732z"/>
<path fill="#BEC3CF" d="M61.984,40.87C61.984,51.439,56.23,58,44.299,58c0,0,8.178-2.085,8.178-9.241
	C62.799,48.759,61.984,40.87,61.984,40.87z"/>
<rect x="2" y="9.934" fill="#E81C27" width="59.984" height="14.934"/>
<path fill="#FFFFFF" d="M17.715,17.428c0,3.35,4.079,3.953,4.079,0.605v-6.699h2.72v6.699c0,7.635-9.518,7.03-9.518-0.605H17.715z"
	/>
<path fill="#FFFFFF" d="M27.23,11.334h2.721v6.127c0,4.289,5.437,4.289,5.437,0v-6.127h2.72v6.127c0,8.008-10.877,8.008-10.877,0
	V11.334z"/>
<path fill="#FFFFFF" d="M40.828,11.334h2.718v9.1h5.442v3.033h-8.16V11.334z"/>
<ellipse fill="#6E8189" cx="21.579" cy="5.942" rx="2" ry="1.867"/>
<ellipse fill="#6E8189" cx="42.406" cy="5.942" rx="1.999" ry="1.867"/>
</svg>
