<?xml version="1.0" encoding="utf-8"?>
<!-- Generator: Adobe Illustrator 15.0.0, SVG Export Plug-In . SVG Version: 6.00 Build 0)  -->
<!DOCTYPE svg PUBLIC "-//W3C//DTD SVG 1.1//EN" "http://www.w3.org/Graphics/SVG/1.1/DTD/svg11.dtd">
<svg version="1.1" id="Layer_1" xmlns="http://www.w3.org/2000/svg" xmlns:xlink="http://www.w3.org/1999/xlink" x="0px" y="0px"
	 width="64px" height="64px" viewBox="0 0 64 64" enable-background="new 0 0 64 64" xml:space="preserve">
<path fill="#E6EBEF" d="M46.013,5.268c0,0-3.828-4.255-9.96-3.055c-6.404,1.253-23.508,5.048-23.508,5.048l11.201,17.767
	L46.013,5.268z"/>
<path fill="#302C3B" d="M50.592,10.294c2.119-0.67,5.113,1.58,6.651,5.584c1.401,3.654,0.725,8.162-1.552,8.961l-3,0.541
	l-4.838-14.613L50.592,10.294z"/>
<path fill="#4E5E67" d="M47.854,10.767c2.117-0.67,5.111,1.58,6.65,5.584c1.402,3.654,0.725,8.162-1.553,8.961
	c-2.087,0.731-5.395-1.518-6.602-5.652C45.184,15.67,45.471,11.52,47.854,10.767z"/>
<path fill="#302C3B" d="M46.562,13.014c1.688-0.532,4.073,1.259,5.296,4.446c1.119,2.91,0.578,6.501-1.234,7.139l-2.387,0.429
	L44.381,13.39L46.562,13.014z"/>
<path fill="#4E5E67" d="M51.423,49.651c-5.538-3.15-12.495-9.36-13.399-10.253l2.214-1.646c0,0,8.729,7.336,11.647,8.748
	c2.445,1.183,4.286,0.72,4.122-0.98c-0.899-9.378-6.924-21.839-6.924-21.839c0.306-2.058,2.144-1.58,2.144-1.58
	c0.02,0.055,5.652,11.186,7.704,23.823C59.665,50.451,54.368,51.327,51.423,49.651z"/>
<path fill="#6E8189" d="M53.598,33.667c0,0-1.158,3.511-5.188,4.959c-4.123,1.482-24.499,7.756-24.499,7.756l0.524-19.054
	L53.598,33.667z"/>
<path fill="#99A8AE" d="M23.746,25.028l-1.479-14.153c0,0-0.496-0.521-1.332-1.183l-0.152,5.198l-1.231-6.18
	c-3.376-2.127-9.175-3.885-13.149,5.196c-2.707,6.2,0.027,21.13,6.9,27.756c11.823,11.396,17.155-0.92,17.155-0.92l-6.022-13.416
	l22.858-6.158l-0.493-2.666L23.746,25.028z"/>
<polygon fill="#BEC3CF" points="46.013,5.268 46.801,18.503 23.746,25.028 22.268,10.875 "/>
<polygon fill="#4E5E67" points="45.397,15.425 45.42,16.395 25.725,21.213 25.597,19.985 "/>
<polygon fill="#4E5E67" points="45.257,12.811 45.279,13.781 25.363,18.709 25.235,17.481 "/>
<polygon fill="#4E5E67" points="45.036,7.698 45.059,8.667 35.637,10.988 35.509,9.759 "/>
<polygon fill="#4E5E67" points="45.023,10.177 45.046,11.147 35.936,13.479 35.832,12.486 "/>
<polygon fill="#0FB4D4" points="34.213,9.881 34.657,13.988 25.235,16.308 24.686,11.943 "/>
<polygon fill="#E6EBEF" points="53.598,33.667 30.458,40.743 24.436,27.328 47.294,21.169 "/>
<path fill="#302C3B" d="M33.91,29.441c-0.121,0-0.241-0.018-0.362-0.053c-0.622-0.188-0.964-0.807-0.765-1.387
	c0.007-0.022,0.83-2.514,0.012-4.619c-0.77-1.992-2.469-3.016-2.486-3.026c-0.549-0.323-0.716-1.005-0.371-1.517
	c0.347-0.515,1.069-0.676,1.623-0.355c0.097,0.057,2.4,1.41,3.461,4.148c1.094,2.824,0.059,5.912,0.013,6.04
	C34.874,29.142,34.408,29.441,33.91,29.441z"/>
<path fill="#302C3B" d="M40.582,27.833c-0.118,0-0.24-0.019-0.361-0.055c-0.621-0.185-0.964-0.806-0.765-1.385
	c0.007-0.024,0.83-2.513,0.014-4.621c-0.772-1.991-2.47-3.015-2.485-3.023c-0.552-0.326-0.718-1.005-0.371-1.52
	c0.344-0.513,1.065-0.673,1.62-0.353c0.097,0.056,2.401,1.41,3.46,4.146c1.095,2.826,0.061,5.911,0.014,6.041
	C41.547,27.534,41.082,27.833,40.582,27.833z"/>
<path fill="#302C3B" d="M15.439,21.144c1.689-0.533,4.071,1.26,5.296,4.447c1.119,2.909,0.577,6.502-1.236,7.137l-3.253,0.607
	l-4.02-11.595L15.439,21.144z"/>
<path fill="#4E5E67" d="M9.908,20.697c2.117-0.67,5.112,1.58,6.648,5.582c1.406,3.654,0.727,8.162-1.55,8.96l-3.001,0.541
	L7.168,21.169L9.908,20.697z"/>
<path fill="#302C3B" d="M7.168,21.169c2.118-0.67,5.113,1.578,6.648,5.582c1.404,3.654,0.728,8.162-1.551,8.96
	c-2.088,0.731-5.395-1.516-6.602-5.651C4.5,26.072,4.785,21.922,7.168,21.169z"/>
<path fill="#4E5E67" d="M8.088,50.56c-3.625-5.023,2.63-7.82,5.865-8.287l2.114,1.727c-1.698,0.259-6.956,2.104-4.942,4.851
	c10.598,14.459,17.516,9.302,15.984,4.899c-2.428-6.987-8.914-19.561-9.035-21.783c0,0,0.409-1.637,1.899-1.431
	c0,0,8.888,17.634,11.1,23.676C33.109,59.774,22.268,70.204,8.088,50.56z"/>
</svg>
