<?xml version="1.0" encoding="utf-8"?>
<!-- Generator: Adobe Illustrator 15.0.0, SVG Export Plug-In . SVG Version: 6.00 Build 0)  -->
<!DOCTYPE svg PUBLIC "-//W3C//DTD SVG 1.1//EN" "http://www.w3.org/Graphics/SVG/1.1/DTD/svg11.dtd">
<svg version="1.1" id="Layer_1" xmlns="http://www.w3.org/2000/svg" xmlns:xlink="http://www.w3.org/1999/xlink" x="0px" y="0px"
	 width="64px" height="64px" viewBox="0 0 64 64" enable-background="new 0 0 64 64" xml:space="preserve">
<rect x="2" y="2" fill="#CFD8DD" width="60" height="60"/>
<rect x="5" y="5" fill="#FFFFFF" width="12" height="12"/>
<rect x="19" y="5" fill="#FFFFFF" width="12" height="12"/>
<rect x="33" y="5" fill="#FFFFFF" width="12" height="12"/>
<rect x="47" y="5" fill="#FFFFFF" width="12" height="12"/>
<rect x="5" y="19" fill="#FFFFFF" width="12" height="12"/>
<rect x="19" y="19" fill="#FFFFFF" width="12" height="12"/>
<rect x="33" y="19" fill="#FFFFFF" width="12" height="12"/>
<rect x="47" y="19" fill="#FFFFFF" width="12" height="12"/>
<rect x="5" y="33" fill="#FFFFFF" width="12" height="12"/>
<rect x="19" y="33" fill="#FFFFFF" width="12" height="12"/>
<rect x="33" y="33" fill="#FFFFFF" width="12" height="12"/>
<rect x="47" y="33" fill="#FFFFFF" width="12" height="12"/>
<rect x="5" y="47" fill="#FFFFFF" width="12" height="12"/>
<rect x="19" y="47" fill="#FFFFFF" width="12" height="12"/>
<rect x="33" y="47" fill="#FFFFFF" width="12" height="12"/>
<rect x="47" y="47" fill="#FFFFFF" width="12" height="12"/>
<rect x="26" y="32" fill="#E81C27" width="12" height="27"/>
<polygon fill="#F46C60" points="36,34.077 37,48.615 37,33.039 27,33.039 "/>
<rect x="8" y="20" fill="#92C932" width="12" height="39"/>
<polygon fill="#D9E617" points="18,22.053 19,42.579 19,21.026 9,21.026 "/>
<rect x="44" y="10" fill="#0FB4D4" width="12" height="49"/>
<polygon fill="#75D6FF" points="54,11.96 55,37.44 55,10.98 45,10.98 "/>
</svg>
