<?xml version="1.0" encoding="utf-8"?>
<!-- Generator: Adobe Illustrator 15.0.0, SVG Export Plug-In . SVG Version: 6.00 Build 0)  -->
<!DOCTYPE svg PUBLIC "-//W3C//DTD SVG 1.1//EN" "http://www.w3.org/Graphics/SVG/1.1/DTD/svg11.dtd">
<svg version="1.1" id="Layer_1" xmlns="http://www.w3.org/2000/svg" xmlns:xlink="http://www.w3.org/1999/xlink" x="0px" y="0px"
	 width="64px" height="64px" viewBox="0 0 64 64" enable-background="new 0 0 64 64" xml:space="preserve">
<path fill="#EA8800" d="M2,60c0,1.1,0.891,2,1.981,2h46.555c1.09,0,1.981-0.9,1.981-2V10c0-1.1-0.892-2-1.981-2H3.981
	C2.891,8,2,8.9,2,10V60z"/>
<path fill="#AB5C10" d="M2.234,60.014C2.105,61.106,2.891,62,3.981,62l48.537-2V20H8.934c-1.09,0-2.086,0.894-2.215,1.986
	L2.234,60.014z"/>
<path fill="#F9C802" d="M2.48,60.06C2.216,61.127,2.891,62,3.981,62h46.555c1.09,0,2.197-0.873,2.462-1.94l8.944-36.119
	c0.265-1.067-0.411-1.94-1.501-1.94H13.886c-1.089,0-2.197,0.873-2.461,1.94L2.48,60.06z"/>
<path fill="#0FB4D4" d="M4,8h15.849V4c0-1.1-0.892-2-1.981-2H5.981C4.892,2,4,2.9,4,4V8z"/>
</svg>
