<?xml version="1.0" encoding="utf-8"?>
<!-- Generator: Adobe Illustrator 15.0.0, SVG Export Plug-In . SVG Version: 6.00 Build 0)  -->
<!DOCTYPE svg PUBLIC "-//W3C//DTD SVG 1.1//EN" "http://www.w3.org/Graphics/SVG/1.1/DTD/svg11.dtd">
<svg version="1.1" id="Layer_1" xmlns="http://www.w3.org/2000/svg" xmlns:xlink="http://www.w3.org/1999/xlink" x="0px" y="0px"
	 width="64px" height="64px" viewBox="0 0 64 64" enable-background="new 0 0 64 64" xml:space="preserve">
<path fill="#4E5E67" d="M55,2H9c0,0-2,0-2,2s2,2,2,2h48V4C57,2,55,2,55,2z"/>
<path fill="#BEC3CF" d="M55,3H9C8,3,8,4,8,4l49,3V5C57,3,55,3,55,3z"/>
<path fill="#CFD8DD" d="M55,4H8c0,1,1,1,1,1h5l43,4V6C57,4,55,4,55,4z"/>
<path fill="#FFE12C" d="M55,5H16v8h41V7C57,5,55,5,55,5z"/>
<path fill="#F9C802" d="M57,60c0,0,0,2-2,2H15V6h40c0,0,2,0,2,2V60z"/>
<rect x="15" y="6" fill="#FFE12C" width="1" height="56"/>
<rect x="14" y="5" fill="#6E8189" width="1" height="1"/>
<rect x="15" y="5" fill="#FEEC9A" width="1" height="1"/>
<path fill="#302C3B" d="M9,6c0,0-2,0-2-2v56c0,2,2,2,2,2h6V6H9z"/>
<rect x="14" y="6" fill="#1A1626" width="1" height="56"/>
<rect x="16" y="10" fill="#F59E01" width="41" height="4"/>
<rect x="16" y="18" fill="#F59E01" width="41" height="4"/>
<rect x="16" y="26" fill="#F59E01" width="41" height="4"/>
<rect x="16" y="34" fill="#F59E01" width="41" height="4"/>
<rect x="16" y="42" fill="#F59E01" width="41" height="4"/>
<rect x="16" y="50" fill="#F59E01" width="41" height="4"/>
<path fill="#F59E01" d="M55,62H16v-4h41v2C57,60,57,62,55,62z"/>
<path fill="#FFFFFF" d="M48,24c0,1.1-0.9,2-2,2H24c-1.101,0-2-0.9-2-2v-8c0-1.1,0.899-2,2-2h22c1.1,0,2,0.9,2,2V24z"/>
</svg>
