<?xml version="1.0" encoding="utf-8"?>
<!-- Generator: Adobe Illustrator 15.0.0, SVG Export Plug-In . SVG Version: 6.00 Build 0)  -->
<!DOCTYPE svg PUBLIC "-//W3C//DTD SVG 1.1//EN" "http://www.w3.org/Graphics/SVG/1.1/DTD/svg11.dtd">
<svg version="1.1" id="Layer_1" xmlns="http://www.w3.org/2000/svg" xmlns:xlink="http://www.w3.org/1999/xlink" x="0px" y="0px"
	 width="64px" height="64px" viewBox="0 0 64 64" enable-background="new 0 0 64 64" xml:space="preserve">
<path fill="#E81C27" d="M49.699,5l-8.848,9.253L32,5l-8.85,9.253L14.3,5C6.845,10.437,2,19.213,2,29.121C2,45.621,15.432,59,32,59
	s30-13.379,30-29.879C62,19.213,57.156,10.437,49.699,5z"/>
<path fill="#C21413" d="M51.125,6.109C55.414,11.275,58,17.894,58,25.121C58,41.621,44.568,55,28,55
	c-7.289,0-13.969-2.591-19.167-6.896C14.335,54.757,22.67,59,32,59c16.568,0,30-13.379,30-29.879
	C62,19.86,57.767,11.59,51.125,6.109z"/>
<rect x="16.001" y="24" fill="#FFFFFF" width="31.999" height="18"/>
<path fill-rule="evenodd" clip-rule="evenodd" fill="#F46C60" d="M7.551,18.696c0.295,3.134,4.166-2.997,8.086-8.267
	C18.166,7.04,6.667,9.271,7.551,18.696z"/>
</svg>
