<?xml version="1.0" encoding="utf-8"?>
<!-- Generator: Adobe Illustrator 15.0.0, SVG Export Plug-In . SVG Version: 6.00 Build 0)  -->
<!DOCTYPE svg PUBLIC "-//W3C//DTD SVG 1.1//EN" "http://www.w3.org/Graphics/SVG/1.1/DTD/svg11.dtd">
<svg version="1.1" id="Layer_1" xmlns="http://www.w3.org/2000/svg" xmlns:xlink="http://www.w3.org/1999/xlink" x="0px" y="0px"
	 width="64px" height="64px" viewBox="0 0 64 64" enable-background="new 0 0 64 64" xml:space="preserve">
<path fill="#AB5C10" d="M53.51,35.069l7.082,7.417c0,0-23.441,11.906-31.32,15.747c-1.277,0.622-4.045,1.611-5.661-0.605
	C20.24,42.033,53.51,35.069,53.51,35.069z"/>
<path fill="#E6EBEF" d="M28.48,49.008c0,0-5.891,2.206-4.898,6.451c0.828,3.541,4.538,2.41,5.91,1.717
	c8.256-4.178,29.751-14.689,29.751-14.689s-1.671-4.651,1.349-7.816L28.48,49.008z"/>
<polygon fill="#F9C802" points="33.525,5 62,34.444 28.78,49.066 5.398,13.181 "/>
<polygon fill="#FFFFFF" points="34.039,11.117 39.839,17.883 19.375,25.616 13.979,17.568 "/>
<polygon fill="#BEC3CF" points="58.92,37.998 39.303,46.514 59.225,36.877 "/>
<polygon fill="#BEC3CF" points="58.809,40.227 37.748,49.734 58.787,39.228 "/>
<polygon fill="#BEC3CF" points="59.045,41.779 32.088,54.316 58.901,41.035 "/>
<path fill="#EA8800" d="M23.61,57.628c-1.036-5.681,5.17-8.562,5.17-8.562L5.783,13.08c-4.391,1.371-4.284,6.539-3.036,8.697
	C8.856,32.341,23.61,57.628,23.61,57.628z"/>
</svg>
