<?xml version="1.0" encoding="utf-8"?>
<!-- Generator: Adobe Illustrator 15.0.0, SVG Export Plug-In . SVG Version: 6.00 Build 0)  -->
<!DOCTYPE svg PUBLIC "-//W3C//DTD SVG 1.1//EN" "http://www.w3.org/Graphics/SVG/1.1/DTD/svg11.dtd">
<svg version="1.1" id="Layer_1" xmlns="http://www.w3.org/2000/svg" xmlns:xlink="http://www.w3.org/1999/xlink" x="0px" y="0px"
	 width="64px" height="64px" viewBox="0 0 64 64" enable-background="new 0 0 64 64" xml:space="preserve">
<path fill="#302C3B" d="M62,48c0,3.301-2.699,6-6,6H10c-3.3,0-6-2.699-6-6V16c0-3.3,2.7-6,6-6h46c3.301,0,6,2.7,6,6V48z"/>
<path fill="#6E8189" d="M12,18c-2.2,0-4,1.8-4,4v14c0,2.199,1.8,4,4,4h22l10,10h10c2.199,0,4-1.801,4-4l0,0c0-2.199,0-8,0-8
	c0-2.199,0-20,0-20c0-2.2-1.801-4-4-4H44l-4,4H12z"/>
<rect x="12" y="22" fill="#A6E639" width="42" height="14"/>
<path fill="#302C3B" d="M56,46c0,1.1-0.9,2-2,2h-8l-8-8h18V46z"/>
<rect x="8" y="42" fill="#6E8189" width="8" height="8"/>
<rect x="46" y="16" fill="#E81C27" width="8" height="4"/>
<rect x="14" y="28" fill="#014F27" width="4" height="2"/>
<polyline fill="#014F27" points="26,24 22,24 22,26 26,26 26,24 "/>
<polyline fill="#014F27" points="26,32 22,32 22,34 26,34 26,32 "/>
<polyline fill="#014F27" points="22,26 20,26 20,32 22,32 22,26 "/>
<polyline fill="#014F27" points="28,26 26,26 26,32 28,32 28,26 "/>
<polygon fill="#014F27" points="46,26 46,24 42,24 40,24 40,34 42,34 46,34 46,32 42,32 42,30 46,30 46,28 42,28 42,26 "/>
<rect x="48" y="28" fill="#014F27" width="4" height="2"/>
<polyline fill="#014F27" points="38,24 36,24 36,28 34,28 34,30 36,30 36,34 38,34 38,24 "/>
<polyline fill="#014F27" points="32,24 30,24 30,34 32,34 32,28 34,28 34,26 32,26 32,24 "/>
<rect x="50" y="42" fill="#A6E639" width="2" height="4"/>
<rect x="46" y="42" fill="#A6E639" width="2" height="4"/>
<rect x="18" y="42" fill="#6E8189" width="8" height="8"/>
<polygon fill="#6E8189" points="40,50 28,50 28,42 32,42 "/>
<polygon fill="#E6EBEF" points="20,46 24,48 24,44 "/>
<polygon fill="#E6EBEF" points="34,46 30,44 30,48 "/>
<path fill="#E81C27" d="M14,46c0,2.666-4,2.666-4,0S14,43.334,14,46z"/>
<rect x="2" y="18" fill="#6E8189" width="2" height="8"/>
<rect x="2" y="30" fill="#6E8189" width="2" height="6"/>
</svg>
