<?xml version="1.0" encoding="utf-8"?>
<!-- Generator: Adobe Illustrator 15.0.0, SVG Export Plug-In . SVG Version: 6.00 Build 0)  -->
<!DOCTYPE svg PUBLIC "-//W3C//DTD SVG 1.1//EN" "http://www.w3.org/Graphics/SVG/1.1/DTD/svg11.dtd">
<svg version="1.1" id="Layer_1" xmlns="http://www.w3.org/2000/svg" xmlns:xlink="http://www.w3.org/1999/xlink" x="0px" y="0px"
	 width="64px" height="64px" viewBox="0 0 64 64" enable-background="new 0 0 64 64" xml:space="preserve">
<path fill="#014F27" d="M53.511,35.069l7.081,7.417c0,0-23.441,11.906-31.32,15.747c-1.277,0.622-4.045,1.611-5.66-0.605
	C20.24,42.033,53.511,35.069,53.511,35.069z"/>
<path fill="#E6EBEF" d="M28.48,49.008c0,0-5.891,2.206-4.897,6.451c0.828,3.541,4.538,2.41,5.909,1.716
	c8.256-4.177,29.752-14.688,29.752-14.688s-1.671-4.651,1.348-7.816L28.48,49.008z"/>
<polygon fill="#92C932" points="33.525,5 62,34.444 28.781,49.065 5.399,13.181 "/>
<polygon fill="#FFFFFF" points="34.039,11.117 39.84,17.883 19.375,25.617 13.979,17.568 "/>
<polygon fill="#BEC3CF" points="58.92,37.997 39.303,46.513 59.225,36.876 "/>
<polygon fill="#BEC3CF" points="58.809,40.226 37.748,49.734 58.788,39.228 "/>
<polygon fill="#BEC3CF" points="59.045,41.778 32.089,54.315 58.902,41.035 "/>
<path fill="#529320" d="M23.611,57.628c-1.037-5.682,5.17-8.563,5.17-8.563L5.783,13.081c-4.391,1.371-4.283,6.538-3.035,8.696
	C8.857,32.341,23.611,57.628,23.611,57.628z"/>
</svg>
