<?xml version="1.0" encoding="utf-8"?>
<!-- Generator: Adobe Illustrator 15.0.0, SVG Export Plug-In . SVG Version: 6.00 Build 0)  -->
<!DOCTYPE svg PUBLIC "-//W3C//DTD SVG 1.1//EN" "http://www.w3.org/Graphics/SVG/1.1/DTD/svg11.dtd">
<svg version="1.1" id="Layer_1" xmlns="http://www.w3.org/2000/svg" xmlns:xlink="http://www.w3.org/1999/xlink" x="0px" y="0px"
	 width="64px" height="64px" viewBox="0 0 64 64" enable-background="new 0 0 64 64" xml:space="preserve">
<polygon fill="#E6EBEF" points="50,62 2,62 2,2 38,2 50,12 "/>
<rect x="6" y="10" fill="#99A8AE" width="40" height="2"/>
<rect x="6" y="16" fill="#99A8AE" width="40" height="2"/>
<rect x="6" y="22" fill="#99A8AE" width="40" height="2"/>
<rect x="6" y="28" fill="#99A8AE" width="40" height="2"/>
<rect x="6" y="34" fill="#99A8AE" width="40" height="2"/>
<rect x="6" y="40" fill="#99A8AE" width="40" height="2"/>
<rect x="6" y="46" fill="#99A8AE" width="40" height="2"/>
<rect x="6" y="52" fill="#99A8AE" width="20" height="2"/>
<polygon fill="#CFD8DD" points="50,12 38,12 38,2 "/>
<rect x="34.392" y="33.04" transform="matrix(0.7072 -0.7071 0.7071 0.7072 -13.7244 43.5177)" fill="#F9C802" width="22.563" height="10.575"/>
<path fill="#E81C27" d="M60.648,24.3l-0.949-0.951c-1.805-1.802-4.725-1.801-6.527,0l-3.26,3.263l7.477,7.477l3.26-3.262
	C62.451,29.023,62.451,26.104,60.648,24.3z"/>
<rect x="51.187" y="26.084" transform="matrix(0.7068 -0.7074 0.7074 0.7068 -6.7592 46.4312)" fill="#6E8189" width="2.885" height="10.571"/>
<rect x="51.188" y="27.215" transform="matrix(0.7071 -0.7071 0.7071 0.7071 -6.7675 46.404)" fill="#CFD8DD" width="2.886" height="8.311"/>
<polygon fill="#FED0AC" points="33.957,42.564 30.719,51.045 32.947,53.287 41.434,50.043 "/>
<path fill="#302C3B" d="M30.148,52.523c-0.447,1.18,0.15,1.775,1.326,1.326l4.115-1.574l-3.865-3.863L30.148,52.523z"/>
<rect x="40.4" y="27.015" transform="matrix(0.7074 0.7068 -0.7068 0.7074 38.3876 -19.0162)" fill="#FFE463" width="3.523" height="19.68"/>
<rect x="45.383" y="31.999" transform="matrix(0.7074 0.7068 -0.7068 0.7074 43.3682 -21.0804)" fill="#EA8800" width="3.523" height="19.68"/>
</svg>
