<?xml version="1.0" encoding="utf-8"?>
<!-- Generator: Adobe Illustrator 15.0.0, SVG Export Plug-In . SVG Version: 6.00 Build 0)  -->
<!DOCTYPE svg PUBLIC "-//W3C//DTD SVG 1.1//EN" "http://www.w3.org/Graphics/SVG/1.1/DTD/svg11.dtd">
<svg version="1.1" id="Layer_1" xmlns="http://www.w3.org/2000/svg" xmlns:xlink="http://www.w3.org/1999/xlink" x="0px" y="0px"
	 width="64px" height="64px" viewBox="0 0 64 64" enable-background="new 0 0 64 64" xml:space="preserve">
<path fill="#8A0505" d="M53.511,35.068l7.082,7.418c0,0-23.441,11.906-31.32,15.747c-1.278,0.623-4.046,1.611-5.662-0.605
	C20.24,42.033,53.511,35.068,53.511,35.068z"/>
<path fill="#E6EBEF" d="M28.48,49.008c0,0-5.89,2.206-4.897,6.452c0.828,3.541,4.537,2.41,5.91,1.716
	c8.255-4.178,29.75-14.689,29.75-14.689s-1.67-4.652,1.35-7.816L28.48,49.008z"/>
<polygon fill="#E03636" points="33.526,5 62,34.443 28.78,49.066 5.399,13.18 "/>
<polygon fill="#FFFFFF" points="34.039,11.117 39.839,17.883 19.375,25.616 13.979,17.568 "/>
<polygon fill="#BEC3CF" points="58.921,37.997 39.304,46.513 59.226,36.876 "/>
<polygon fill="#BEC3CF" points="58.81,40.227 37.748,49.734 58.788,39.227 "/>
<polygon fill="#BEC3CF" points="59.046,41.779 32.089,54.315 58.901,41.035 "/>
<path fill="#C21413" d="M23.61,57.628c-1.035-5.682,5.17-8.562,5.17-8.562L5.783,13.08c-4.39,1.371-4.284,6.538-3.036,8.697
	C8.856,32.34,23.61,57.628,23.61,57.628z"/>
</svg>
