<?xml version="1.0" encoding="utf-8"?>
<!-- Generator: Adobe Illustrator 15.0.0, SVG Export Plug-In . SVG Version: 6.00 Build 0)  -->
<!DOCTYPE svg PUBLIC "-//W3C//DTD SVG 1.1//EN" "http://www.w3.org/Graphics/SVG/1.1/DTD/svg11.dtd">
<svg version="1.1" id="Layer_1" xmlns="http://www.w3.org/2000/svg" xmlns:xlink="http://www.w3.org/1999/xlink" x="0px" y="0px"
	 width="64px" height="64px" viewBox="0 0 64 64" enable-background="new 0 0 64 64" xml:space="preserve">
<g>
	<path fill="#4E5E67" d="M56.491,58.42c3.469-2.56-11.795-22.757-15.264-20.197c-2.661,1.965-4.614,4.458-5.779,7.099
		c-2.695-2.674-5.408-5.766-8.006-9.198c-2.607-3.45-4.844-6.916-6.677-10.242c2.89-0.356,5.86-1.499,8.519-3.462
		c3.468-2.56-11.796-22.754-15.264-20.195c-4.856,3.584-7.369,8.92-6.981,13.713c0.394,6.416,4.878,16.369,12.29,26.175
		c8.521,11.278,18.332,18.942,24.495,19.72C47.871,62.458,52.526,61.345,56.491,58.42z"/>
	<path fill="#6E8189" d="M11.792,8.032c-0.017,0.023-0.029,0.049-0.047,0.072C11.929,7.849,12.171,7.507,11.792,8.032z"/>
	<path fill="#6E8189" d="M11.792,8.032c1.285-1.783,2.655-4.402,5.123-3.81c-4.257-4.263-9.168,7.071-8.327,10.25
		c0.733-2.284,1.775-4.399,3.157-6.368C11.596,8.315,11.486,8.466,11.792,8.032z"/>
	<path fill="#6E8189" d="M37.163,47.056c1.153-2.323,3.732-7.609,6.96-6.834c-4.257-4.265-9.169,7.07-8.328,10.25
		C36.171,49.304,36.613,48.155,37.163,47.056z"/>
</g>
</svg>
