<?xml version="1.0" encoding="utf-8"?>
<!-- Generator: Adobe Illustrator 15.0.0, SVG Export Plug-In . SVG Version: 6.00 Build 0)  -->
<!DOCTYPE svg PUBLIC "-//W3C//DTD SVG 1.1//EN" "http://www.w3.org/Graphics/SVG/1.1/DTD/svg11.dtd">
<svg version="1.1" id="Layer_1" xmlns="http://www.w3.org/2000/svg" xmlns:xlink="http://www.w3.org/1999/xlink" x="0px" y="0px"
	 width="64px" height="64px" viewBox="0 0 64 64" enable-background="new 0 0 64 64" xml:space="preserve">
<rect x="2" y="9" fill="#C21413" width="60" height="46"/>
<path fill="#302C3B" d="M26,52v3c0,0,2,2,6,2s6-2,6-2v-3H26z"/>
<polygon fill="#99A8AE" points="60,11 56,7 32.012,15 8,7 4,11 4,53 60,53 "/>
<path fill="#FCFCFC" d="M26,7C20.572,7,8,7,8,7v42c0,0,11.549,0,18,0c6,0,6.012,3.777,6.012,3.777V11C32.012,11,32,7,26,7z"/>
<path fill="#ECF1F5" d="M38,7c5.428,0,18,0,18,0v42c0,0-11.547,0-18,0c-6,0-5.988,3.773-5.988,3.773V11C32.012,11,32,7,38,7z"/>
</svg>
