<?xml version="1.0" encoding="utf-8"?>
<!-- Generator: Adobe Illustrator 15.0.0, SVG Export Plug-In . SVG Version: 6.00 Build 0)  -->
<!DOCTYPE svg PUBLIC "-//W3C//DTD SVG 1.1//EN" "http://www.w3.org/Graphics/SVG/1.1/DTD/svg11.dtd">
<svg version="1.1" id="Layer_1" xmlns="http://www.w3.org/2000/svg" xmlns:xlink="http://www.w3.org/1999/xlink" x="0px" y="0px"
	 width="64px" height="64px" viewBox="0 0 64 64" enable-background="new 0 0 64 64" xml:space="preserve">
<g>
	<path fill="#F59E01" d="M4.035,2.644C2.915,1.523,2,1.903,2,3.485l0.001,55.638C2,60.706,3.295,62.001,4.878,62h55.638
		c1.58,0.001,1.961-0.916,0.842-2.034L4.035,2.644z M18.161,48.718c-1.581,0-2.875-1.295-2.875-2.878V35.564
		c0-1.582,0.916-1.961,2.035-0.843l11.958,11.96c1.118,1.119,0.74,2.036-0.844,2.036H18.161z"/>
</g>
<path fill="#EA8800" d="M2,7.252L56.748,62h3.768C61.482,62.001,62,61.657,62,61.135c0-0.33-0.207-0.735-0.643-1.169L4.035,2.644
	C2.915,1.523,2,1.903,2,3.485V7.252z"/>
<rect x="59.222" y="58.692" transform="matrix(-0.7076 -0.7066 0.7066 -0.7076 59.8013 144.0056)" fill="#594640" width="0.944" height="1.877"/>
<rect x="57.252" y="56.72" transform="matrix(-0.7071 -0.7071 0.7071 -0.7071 57.7682 139.2448)" fill="#594640" width="0.942" height="1.877"/>
<rect x="55.278" y="54.748" transform="matrix(-0.7061 -0.7081 0.7081 -0.7061 55.6805 134.4815)" fill="#594640" width="0.943" height="1.875"/>
<rect x="52.308" y="52.362" transform="matrix(-0.7071 -0.7071 0.7071 -0.7071 51.4131 130.7188)" fill="#594640" width="0.942" height="4.699"/>
<rect x="51.224" y="50.693" transform="matrix(-0.7071 -0.7071 0.7071 -0.7071 51.7405 124.6943)" fill="#594640" width="0.942" height="1.876"/>
<rect x="49.252" y="48.721" transform="matrix(-0.7076 -0.7066 0.7066 -0.7076 49.8191 119.9327)" fill="#594640" width="0.941" height="1.876"/>
<rect x="47.281" y="46.75" transform="matrix(-0.7061 -0.7081 0.7081 -0.7061 47.6999 115.1729)" fill="#594640" width="0.943" height="1.874"/>
<rect x="44.31" y="44.363" transform="matrix(-0.7071 -0.7071 0.7071 -0.7071 43.4157 111.4082)" fill="#594640" width="0.942" height="4.699"/>
<rect x="43.226" y="42.694" transform="matrix(-0.7071 -0.7071 0.7071 -0.7071 43.7432 105.3837)" fill="#594640" width="0.942" height="1.876"/>
<rect x="41.253" y="40.722" transform="matrix(-0.7071 -0.7071 0.7071 -0.7071 41.771 100.6224)" fill="#594640" width="0.943" height="1.876"/>
<rect x="39.282" y="38.75" transform="matrix(-0.7076 -0.7066 0.7066 -0.7076 39.84 95.8612)" fill="#594640" width="0.943" height="1.877"/>
<rect x="36.311" y="36.364" transform="matrix(-0.7071 -0.7071 0.7071 -0.7071 35.417 92.096)" fill="#594640" width="0.942" height="4.698"/>
<rect x="35.227" y="34.695" transform="matrix(-0.7071 -0.7071 0.7071 -0.7071 35.7442 86.0723)" fill="#594640" width="0.942" height="1.876"/>
<rect x="33.255" y="32.723" transform="matrix(-0.7066 -0.7076 0.7076 -0.7066 33.7379 81.3114)" fill="#594640" width="0.943" height="1.876"/>
<rect x="31.283" y="30.752" transform="matrix(-0.7071 -0.7071 0.7071 -0.7071 31.8003 76.551)" fill="#594640" width="0.942" height="1.875"/>
<rect x="28.312" y="28.365" transform="matrix(-0.7071 -0.7071 0.7071 -0.7071 27.4177 72.7855)" fill="#594640" width="0.943" height="4.698"/>
<rect x="27.229" y="26.698" transform="matrix(-0.7071 -0.7071 0.7071 -0.7071 27.7461 66.7633)" fill="#594640" width="0.943" height="1.875"/>
<rect x="25.256" y="24.725" transform="matrix(-0.7071 -0.7071 0.7071 -0.7071 25.7735 62.0009)" fill="#594640" width="0.943" height="1.875"/>
<rect x="23.283" y="22.752" transform="matrix(-0.7071 -0.7071 0.7071 -0.7071 23.8005 57.2393)" fill="#594640" width="0.943" height="1.876"/>
<rect x="20.315" y="20.367" transform="matrix(-0.7076 -0.7066 0.7066 -0.7076 19.4427 53.4787)" fill="#594640" width="0.941" height="4.699"/>
<rect x="19.229" y="18.698" transform="matrix(-0.7071 -0.7071 0.7071 -0.7071 19.7463 47.4516)" fill="#594640" width="0.943" height="1.876"/>
<rect x="17.257" y="16.726" transform="matrix(-0.7071 -0.7071 0.7071 -0.7071 17.7744 42.6896)" fill="#594640" width="0.943" height="1.875"/>
<rect x="15.285" y="14.754" transform="matrix(-0.7066 -0.7076 0.7076 -0.7066 15.7873 37.9299)" fill="#594640" width="0.945" height="1.876"/>
<rect x="12.317" y="12.368" transform="matrix(-0.7076 -0.7066 0.7066 -0.7076 11.4362 34.1677)" fill="#594640" width="0.941" height="4.699"/>
<rect x="11.231" y="10.699" transform="matrix(-0.7071 -0.7071 0.7071 -0.7071 11.7489 28.141)" fill="#594640" width="0.943" height="1.875"/>
<rect x="9.259" y="8.728" transform="matrix(-0.7071 -0.7071 0.7071 -0.7071 9.7772 23.3809)" fill="#594640" width="0.943" height="1.875"/>
<rect x="7.287" y="6.755" transform="matrix(-0.7066 -0.7076 0.7076 -0.7066 7.7977 18.618)" fill="#594640" width="0.943" height="1.875"/>
<rect x="4.317" y="4.369" transform="matrix(-0.7076 -0.7066 0.7066 -0.7076 3.4289 14.8563)" fill="#594640" width="0.941" height="4.699"/>
</svg>
