<?xml version="1.0" encoding="utf-8"?>
<!-- Generator: Adobe Illustrator 15.0.0, SVG Export Plug-In . SVG Version: 6.00 Build 0)  -->
<!DOCTYPE svg PUBLIC "-//W3C//DTD SVG 1.1//EN" "http://www.w3.org/Graphics/SVG/1.1/DTD/svg11.dtd">
<svg version="1.1" id="Layer_1" xmlns="http://www.w3.org/2000/svg" xmlns:xlink="http://www.w3.org/1999/xlink" x="0px" y="0px"
	 width="64px" height="64px" viewBox="0 0 64 64" enable-background="new 0 0 64 64" xml:space="preserve">
<rect x="12" y="2" fill="#99A8AE" width="40" height="52"/>
<polygon opacity="0.3" fill="#302C3B" points="12,42 12,50 14,50 20,46 14,42 "/>
<polygon fill="#0FB4D4" points="4,40 4,48 14,48 20,44 14,40 "/>
<rect x="16" y="6" fill="#BEC3CF" width="40" height="52"/>
<polygon opacity="0.3" fill="#302C3B" points="12,12 12,20 16,20 22,16 16,12 "/>
<polygon fill="#0FB4D4" points="6,10 6,18 16,18 22,14 16,10 "/>
<rect x="20" y="10" fill="#E6EBEF" width="40" height="52"/>
<polygon opacity="0.3" fill="#302C3B" points="12,26 12,34 20,34 26,30 20,26 "/>
<polygon fill="#0FB4D4" points="10,24 10,32 20,32 26,28 20,24 "/>
<rect x="32" y="14" fill="#6E8189" width="24" height="4"/>
<rect x="24" y="54" fill="#6E8189" width="24" height="4"/>
<rect x="24" y="22" fill="#6E8189" width="32" height="4"/>
<rect x="24" y="30" fill="#6E8189" width="32" height="4"/>
<rect x="24" y="38" fill="#6E8189" width="32" height="4"/>
<rect x="24" y="46" fill="#6E8189" width="32" height="4"/>
</svg>
