<?xml version="1.0" encoding="utf-8"?>
<!-- Generator: Adobe Illustrator 15.0.0, SVG Export Plug-In . SVG Version: 6.00 Build 0)  -->
<!DOCTYPE svg PUBLIC "-//W3C//DTD SVG 1.1//EN" "http://www.w3.org/Graphics/SVG/1.1/DTD/svg11.dtd">
<svg version="1.1" id="Layer_1" xmlns="http://www.w3.org/2000/svg" xmlns:xlink="http://www.w3.org/1999/xlink" x="0px" y="0px"
	 width="64px" height="64px" viewBox="0 0 64 64" enable-background="new 0 0 64 64" xml:space="preserve">
<path fill="#FFE12C" d="M55,2H9c0,0-2,0-2,2s2,2,2,2h48V4C57,2,55,2,55,2z"/>
<path fill="#BEC3CF" d="M55,3H9C8,3,8,4,8,4l49,3V5C57,3,55,3,55,3z"/>
<path fill="#CFD8DD" d="M55,4H8c0,1,1,1,1,1h9l39,4V6C57,4,55,4,55,4z"/>
<path fill="#FFE12C" d="M55,5H16v8h41V7C57,5,55,5,55,5z"/>
<path fill="#F9C802" d="M57,60c0,0,0,2-2,2H15V6h40c0,0,2,0,2,2V60z"/>
<rect x="17" y="6" fill="#FFE12C" width="1" height="56"/>
<rect x="16" y="5" fill="#F9C802" width="1" height="1"/>
<rect x="17" y="5" fill="#FEEC9A" width="1" height="1"/>
<path fill="#F9C802" d="M9,6c0,0-2,0-2-2v56c0,2,2,2,2,2h6V6H9z"/>
<rect x="16" y="6" fill="#F59E01" width="1" height="56"/>
<path fill="#FFFFFF" d="M50,24c0,1.1-0.9,2-2,2H26c-1.101,0-2-0.9-2-2v-8c0-1.1,0.899-2,2-2h22c1.1,0,2,0.9,2,2V24z"/>
<path fill="#302C3B" d="M12.238,54.628c2.35,0,2.35,3.449,0,3.449C9.882,58.077,9.882,54.628,12.238,54.628z"/>
<path fill="#6E8189" d="M7.691,60c3.404,0,5.684-1.647,5.59-3.708c-0.082-1.745-2.361-1.564-2.551-0.283
	c-0.156,1.085-1.166,1.769-3.039,1.769c-5.084,0-4.441-3.55-0.703-3.927v-1.543C0.103,52.755,0.353,60,7.691,60z"/>
<path fill="#302C3B" d="M12.238,44.052c2.35,0,2.35,3.448,0,3.448C9.882,47.5,9.882,44.052,12.238,44.052z"/>
<path fill="#6E8189" d="M7.691,49.424c3.404,0,5.684-1.647,5.59-3.708c-0.082-1.745-2.361-1.564-2.551-0.283
	c-0.156,1.085-1.166,1.769-3.039,1.769c-5.084,0-4.441-3.55-0.703-3.928v-1.544C0.103,42.178,0.353,49.424,7.691,49.424z"/>
<path fill="#302C3B" d="M12.238,33.475c2.35,0,2.35,3.449,0,3.449C9.882,36.924,9.882,33.475,12.238,33.475z"/>
<path fill="#6E8189" d="M7.691,38.846c3.404,0,5.684-1.646,5.59-3.708c-0.082-1.745-2.361-1.564-2.551-0.282
	c-0.156,1.085-1.166,1.769-3.039,1.769c-5.084,0-4.441-3.55-0.703-3.928v-1.543C0.103,31.601,0.353,38.846,7.691,38.846z"/>
<path fill="#302C3B" d="M12.238,22.897c2.35,0,2.35,3.448,0,3.448C9.882,26.346,9.882,22.897,12.238,22.897z"/>
<path fill="#6E8189" d="M7.691,28.269c3.404,0,5.684-1.647,5.59-3.707c-0.082-1.745-2.361-1.564-2.551-0.284
	c-0.156,1.087-1.166,1.771-3.039,1.771c-5.084,0-4.441-3.55-0.703-3.928v-1.543C0.103,21.022,0.353,28.269,7.691,28.269z"/>
<path fill="#302C3B" d="M12.238,12.32c2.35,0,2.35,3.448,0,3.448C9.882,15.769,9.882,12.32,12.238,12.32z"/>
<path fill="#6E8189" d="M7.691,17.691c3.404,0,5.684-1.647,5.59-3.706c-0.082-1.745-2.361-1.565-2.551-0.285
	c-0.156,1.087-1.166,1.77-3.039,1.77c-5.084,0-4.441-3.55-0.703-3.926V10C0.103,10.446,0.353,17.691,7.691,17.691z"/>
</svg>
