<?xml version="1.0" encoding="utf-8"?>
<!-- Generator: Adobe Illustrator 15.0.0, SVG Export Plug-In . SVG Version: 6.00 Build 0)  -->
<!DOCTYPE svg PUBLIC "-//W3C//DTD SVG 1.1//EN" "http://www.w3.org/Graphics/SVG/1.1/DTD/svg11.dtd">
<svg version="1.1" id="Layer_1" xmlns="http://www.w3.org/2000/svg" xmlns:xlink="http://www.w3.org/1999/xlink" x="0px" y="0px"
	 width="64px" height="64px" viewBox="0 0 64 64" enable-background="new 0 0 64 64" xml:space="preserve">
<path fill="#013366" d="M53.511,35.07l7.081,7.417c0,0-23.441,11.905-31.32,15.746c-1.278,0.622-4.046,1.611-5.661-0.605
	C20.24,42.034,53.511,35.07,53.511,35.07z"/>
<path fill="#E6EBEF" d="M28.48,49.009c0,0-5.89,2.205-4.896,6.45c0.828,3.541,4.537,2.41,5.909,1.716
	c8.254-4.177,29.75-14.688,29.75-14.688s-1.67-4.651,1.349-7.816L28.48,49.009z"/>
<polygon fill="#0FB4D4" points="33.525,5 62,34.445 28.781,49.066 5.399,13.182 "/>
<polygon fill="#FFFFFF" points="34.038,11.117 39.839,17.884 19.375,25.617 13.979,17.568 "/>
<polygon fill="#BEC3CF" points="58.92,37.998 39.303,46.514 59.225,36.877 "/>
<polygon fill="#BEC3CF" points="58.809,40.227 37.747,49.735 58.788,39.229 "/>
<polygon fill="#BEC3CF" points="59.045,41.779 32.089,54.315 58.901,41.036 "/>
<path fill="#006DAE" d="M23.611,57.628c-1.036-5.682,5.17-8.562,5.17-8.562L5.782,13.081c-4.39,1.371-4.283,6.538-3.035,8.696
	C8.856,32.341,23.611,57.628,23.611,57.628z"/>
</svg>
