<?xml version="1.0" encoding="utf-8"?>
<!-- Generator: Adobe Illustrator 15.0.0, SVG Export Plug-In . SVG Version: 6.00 Build 0)  -->
<!DOCTYPE svg PUBLIC "-//W3C//DTD SVG 1.1//EN" "http://www.w3.org/Graphics/SVG/1.1/DTD/svg11.dtd">
<svg version="1.1" id="Layer_1" xmlns="http://www.w3.org/2000/svg" xmlns:xlink="http://www.w3.org/1999/xlink" x="0px" y="0px"
	 width="64px" height="64px" viewBox="0 0 64 64" enable-background="new 0 0 64 64" xml:space="preserve">
<path fill="#FFE1BD" d="M55.997,53.998H7.998C10,36.398,10,27.599,7.998,9.999h47.999C53.999,27.599,53.999,36.398,55.997,53.998z"
	/>
<rect x="22" y="16" fill="#785647" width="27.999" height="2"/>
<rect x="22" y="20" fill="#785647" width="27.999" height="2"/>
<rect x="22" y="38" fill="#785647" width="27.999" height="2"/>
<rect x="14" y="42" fill="#785647" width="35.999" height="2"/>
<rect x="14" y="46" fill="#785647" width="35.999" height="2"/>
<rect x="14" y="24" fill="#785647" width="35.999" height="2"/>
<rect x="14" y="28" fill="#785647" width="35.999" height="2"/>
<rect x="14" y="32" fill="#785647" width="17.999" height="2"/>
<rect x="14" y="16" fill="#785647" width="6" height="6"/>
<path fill="#785647" d="M57.999,9.999V6h2.129c2.496,0,2.496,3.999,0,3.999H57.999z"/>
<path fill="#B47D56" d="M55.999,4l2.645-2c1.809,2,1.809,9.999,0,11.999l-2.645-2V4z"/>
<path fill="#785647" d="M6.001,6v3.999H3.872C1.376,9.999,1.376,6,3.872,6H6.001z"/>
<path fill="#B47D56" d="M8,11.999l-2.644,2C3.548,11.999,3.548,4,5.356,2L8,4V11.999z"/>
<path fill="#EBBB96" d="M55.966,2.006c2.711-0.299,2.711,12.287,0,11.988c-21.786-2.396-26.146-2.396-47.933,0
	c-2.71,0.299-2.71-12.287,0-11.988C29.82,4.403,34.18,4.403,55.966,2.006z"/>
<path fill="#785647" d="M57.999,57.999v-4.001h2.129c2.496,0,2.496,4.001,0,4.001H57.999z"/>
<path fill="#B47D56" d="M55.999,51.998l2.645-2c1.809,2,1.809,10.001,0,12.001l-2.645-2V51.998z"/>
<path fill="#785647" d="M6.001,53.998v4.001H3.872c-2.496,0-2.496-4.001,0-4.001H6.001z"/>
<path fill="#B47D56" d="M8,59.999l-2.644,2c-1.809-2-1.809-10.001,0-12.001l2.644,2V59.999z"/>
<path fill="#EBBB96" d="M55.966,50.004c2.711-0.299,2.711,12.288,0,11.991c-21.786-2.398-26.146-2.398-47.933,0
	c-2.71,0.297-2.71-12.29,0-11.991C29.82,52.4,34.18,52.4,55.966,50.004z"/>
</svg>
