<?xml version="1.0" encoding="utf-8"?>
<!-- Generator: Adobe Illustrator 15.0.0, SVG Export Plug-In . SVG Version: 6.00 Build 0)  -->
<!DOCTYPE svg PUBLIC "-//W3C//DTD SVG 1.1//EN" "http://www.w3.org/Graphics/SVG/1.1/DTD/svg11.dtd">
<svg version="1.1" id="Layer_1" xmlns="http://www.w3.org/2000/svg" xmlns:xlink="http://www.w3.org/1999/xlink" x="0px" y="0px"
	 width="64px" height="64px" viewBox="0 0 64 64" enable-background="new 0 0 64 64" xml:space="preserve">
<polygon fill="#99A8AE" points="37.61,62 29.353,60.859 29.353,14.982 37.61,14.982 "/>
<polygon fill="#6E8189" points="43.562,14.982 37.61,14.982 37.61,62 43.562,56.299 "/>
<path fill="#6E8189" d="M18.155,9.985c-1.799,0-3.458,0.229-4.982,0.645C6.05,12.569,2,18.791,2,27.089v15.963l33.462,5.701V29.369
	C35.462,19.292,28.351,9.985,18.155,9.985z"/>
<polygon fill="#4E5E67" points="35.462,48.754 2,43.053 35.462,27.735 "/>
<polygon fill="#BEC3CF" points="43.691,28.899 13.171,50.092 2,20.754 36.989,11.297 "/>
<polygon fill="#CFD8DD" points="25.544,19.244 13.171,50.092 43.691,28.899 "/>
<polygon fill="#E6EBEF" points="29.733,30.246 2,20.754 36.989,11.297 "/>
<path fill="#302C3B" d="M45.847,2c-6.896,0-28.448,7.196-32.674,8.63c1.524-0.416,3.184-0.645,4.982-0.645
	c10.195,0,17.307,9.307,17.307,19.383v19.385L62,32.79V17.967C62,7.889,55.989,2,45.847,2z"/>
<polygon fill="#E81C27" points="36.907,8.017 36.907,35.383 39.466,34.121 39.459,16.608 50.024,12.604 50.032,3.509 "/>
</svg>
