<?xml version="1.0" encoding="utf-8"?>
<!-- Generator: Adobe Illustrator 15.0.0, SVG Export Plug-In . SVG Version: 6.00 Build 0)  -->
<!DOCTYPE svg PUBLIC "-//W3C//DTD SVG 1.1//EN" "http://www.w3.org/Graphics/SVG/1.1/DTD/svg11.dtd">
<svg version="1.1" id="Layer_1" xmlns="http://www.w3.org/2000/svg" xmlns:xlink="http://www.w3.org/1999/xlink" x="0px" y="0px"
	 width="64px" height="64px" viewBox="0 0 64 64" enable-background="new 0 0 64 64" xml:space="preserve">
<polygon fill="#302C3B" points="42.568,60 47.574,53.246 34.85,41.41 25.151,43.801 "/>
<g>
	<g>
		<path fill="#BEC3CF" d="M56.396,39.92c7.472,0,7.472-16.872,0-16.872l-0.612-0.002v16.877L56.396,39.92z"/>
		<path fill="#99A8AE" d="M56.396,39.92c2.88,0,4.645-2.501,5.304-5.58c0,0-0.762,1.694-5.304,1.694l-0.612,0.002v3.887
			L56.396,39.92z"/>
		<path fill="#E6EBEF" d="M61.796,31.483c0,0-0.234-6.749-3.79-6.749l-0.939,0.001c0.279,0.891,0.479,2.065,0.603,3.373h1.172
			C61.355,28.126,61.796,31.483,61.796,31.483z"/>
		<path fill="#4E5E67" d="M55.784,39.92c5.233,0.005,5.231-16.872,0-16.874l-9.911,0.002V39.92H55.784z"/>
		<path fill="#BEC3CF" d="M50.879,39.923c5.231-0.003,5.229-16.875,0-16.877h-5.006V39.92L50.879,39.923z"/>
		<path fill="#6E8189" d="M58.252,24.735h-4.905c0.532,0.891,0.921,2.065,1.16,3.373h4.905
			C59.174,26.801,58.787,25.626,58.252,24.735z"/>
		<path fill="#E6EBEF" d="M45.873,24.735v3.373h8.634c-0.239-1.308-0.628-2.482-1.16-3.373H45.873z"/>
		<path fill="#E81C27" d="M45.873,39.92c6.412-1.294,6.412-15.575,0-16.872c-7.081-1.431-22.24-18.132-22.24-18.132v53.137
			C23.633,58.053,38.792,41.353,45.873,39.92z"/>
		<path fill="#99A8AE" d="M54.242,36.036l-1.207-0.002l-0.769-5.774l-1.388,9.663C52.506,39.923,53.628,38.288,54.242,36.036z"/>
		<path fill="#B00505" d="M45.873,39.92c3.742-0.753-3.305-9.66-3.305-9.66s-0.139,7.109-2.189,8.523
			c-7.437,5.127-16.746,15.384-16.746,15.384v3.886C23.633,58.053,38.792,41.353,45.873,39.92z"/>
		<path fill="#F46C60" d="M50.26,28.108c-0.422-2.17-1.652-3.374-1.652-3.374c-10.849,0-24.975-17.557-24.975-17.557l-0.049,5.293
			C23.584,12.471,35.248,28.108,50.26,28.108z"/>
	</g>
	<g>
		<path fill="#E81C27" d="M20.186,58.969C2.764,58.969,2.764,4,20.186,4C39.353,4,39.353,58.969,20.186,58.969z"/>
		<path fill="#B00505" d="M9.104,27.851C9.713,16.807,13.114,6.748,19.311,6.748c5.161,0,8.604,5.495,10.327,12.824
			C25.545,26.904,8.363,41.302,9.104,27.851z"/>
		<path fill="#800505" d="M24.678,9.156c2.007,2.97,3.176,6.972,1.742,9.009c-2.801,3.979-16.563,2.949-16.563,2.949
			c-3.232,27.37,4.716,35.107,9.457,35.107c5.386,0,8.896-5.979,10.537-13.776c-5.478-4.983-6.228-16.437-0.007-21.934
			C29.541,18.738,28.318,12.712,24.678,9.156z"/>
	</g>
</g>
<path fill="#302C3B" d="M29.827,20.385c0,0,0.738,3.904,0.738,11.097c0,7.325-0.738,11.1-0.738,11.1L6.624,38.677V24.289
	L29.827,20.385z"/>
<path fill="#4E5E67" d="M30.068,22.084c0.141,1.164,0.31,2.916,0.408,5.215l-23.853,2.92v-4.097L30.068,22.084z"/>
<ellipse fill="#E81C27" cx="6.623" cy="31.482" rx="4.623" ry="7.194"/>
<path fill-rule="evenodd" clip-rule="evenodd" fill="#F46C60" d="M25.908,6.896c-1.631-1.911,5.827,7.984,6.547,20.612
	C32.658,31.096,35.279,17.883,25.908,6.896z"/>
<path fill-rule="evenodd" clip-rule="evenodd" fill="#F46C60" d="M7.29,25.461c-1.111-0.947,3.668,4.003,1.031,10.74
	C7.571,38.116,13.677,30.906,7.29,25.461z"/>
<polygon fill="#6E8189" points="42.568,60 52.267,57.61 52.267,29.889 42.568,29.889 "/>
<path fill="#CFD8DD" d="M50.232,35.078c-0.01,1.548-1.275,2.807-2.829,2.817c-1.554,0.008-2.806-1.24-2.799-2.785
	c0.01-1.551,1.275-2.809,2.829-2.818C48.99,32.283,50.241,33.529,50.232,35.078z"/>
<path fill="#4E5E67" d="M45.418,37.086c-0.529-0.524,3.476-4.509,4.001-3.984C49.946,33.625,45.945,37.612,45.418,37.086z"/>
<path fill-rule="evenodd" clip-rule="evenodd" fill="#E6EBEF" d="M45.256,34.536c0.082,0.602,1.222-0.582,2.375-1.604
	C48.376,32.275,45.006,32.725,45.256,34.536z"/>
<path fill="#99A8AE" d="M45.674,37.305c0.27,0.06,0.546,0.092,0.829,0.093c1.793-0.012,3.296-1.282,3.656-2.965
	c0.047,0.207,0.073,0.422,0.073,0.646c-0.01,1.548-1.275,2.806-2.829,2.817C46.749,37.896,46.149,37.677,45.674,37.305z"/>
</svg>
