<?xml version="1.0" encoding="utf-8"?>
<!-- Generator: Adobe Illustrator 15.0.0, SVG Export Plug-In . SVG Version: 6.00 Build 0)  -->
<!DOCTYPE svg PUBLIC "-//W3C//DTD SVG 1.1//EN" "http://www.w3.org/Graphics/SVG/1.1/DTD/svg11.dtd">
<svg version="1.1" id="Layer_1" xmlns="http://www.w3.org/2000/svg" xmlns:xlink="http://www.w3.org/1999/xlink" x="0px" y="0px"
	 width="64px" height="64px" viewBox="0 0 64 64" enable-background="new 0 0 64 64" xml:space="preserve">
<polygon fill="#785647" points="26,38 27,51 2,62 2,46 "/>
<rect x="26" y="38" fill="#B47D56" width="36" height="12"/>
<polygon fill="#EBBB96" points="26,50 2,62 52,62 62,50 "/>
<path fill="#C4926E" d="M35.117,46c0,0-0.313,6.729-1.624,7.998c-2.561,2.475-10.426,2.475-12.986,0
	C19.195,52.729,18.883,46,18.883,46H2v16h50V46H35.117z"/>
<path fill="#B47D56" d="M30.469,55.461c-3.998,0.727-6.873-0.627-8.165-2.336c-1.422-1.883-1.078-8.203-1.078-8.203L18.883,46
	c0,0,0.237,6.729,1.549,7.998C21.849,55.367,26,56.75,30.469,55.461z"/>
<polygon fill="#785647" points="62,50 52,62 52,46 62,38 "/>
<polygon fill="#9E6C49" points="62,38 26,38 2,46 18.883,46 21.226,44.922 8.434,44.922 26,39.078 58.652,39.078 51.348,44.922 
	37.167,44.922 35.117,46 52,46 "/>
<path fill="#B00505" d="M35.229,2l2.49,5.416c0,0-9.41,5.162-11.308,17.158c-1.747,11.041,2.631,18.662,2.631,18.662L30.333,44
	c0,0-1.475-8.715,3.646-16.492c3.09-4.689,7.289-7.699,8.802-8.617l2.115,4.643l1.551,1.475L58,5.953l-1.551-1.471L35.229,2z"/>
<path fill="#E81C27" d="M30.333,44c0,0-0.129-6.84,4.148-15.063c3.51-6.752,9.35-9.484,9.35-9.484l2.616,5.555L58,5.953L36.78,3.471
	l2.489,5.418c0,0-9.408,5.16-11.308,17.158C26.215,37.088,30.333,44,30.333,44z"/>
</svg>
