<?xml version="1.0" encoding="utf-8"?>
<!-- Generator: Adobe Illustrator 15.0.0, SVG Export Plug-In . SVG Version: 6.00 Build 0)  -->
<!DOCTYPE svg PUBLIC "-//W3C//DTD SVG 1.1//EN" "http://www.w3.org/Graphics/SVG/1.1/DTD/svg11.dtd">
<svg version="1.1" id="Layer_1" xmlns="http://www.w3.org/2000/svg" xmlns:xlink="http://www.w3.org/1999/xlink" x="0px" y="0px"
	 width="64px" height="64px" viewBox="0 0 64 64" enable-background="new 0 0 64 64" xml:space="preserve">
<polygon fill="#E81C27" points="55.12,49.832 60.119,49.832 59.119,56.053 55.12,56.053 "/>
<path fill="#E81C27" d="M55.12,2c0,0-44.078,0-44.119,0C6.583,2,2,8.519,2,26.377V62h4.001v-5.621h36V62H46L55.12,2z"/>
<path fill="#B00505" d="M36.859,52.947H11.141c-2.481,0-4.499-1.906-4.499-4.25V34.059c0-2.343,2.018-4.25,4.499-4.25h25.719
	c2.481,0,4.5,1.907,4.5,4.25v14.639C41.359,51.041,39.341,52.947,36.859,52.947z M11.141,30.808c-1.93,0-3.499,1.458-3.499,3.25
	v14.639c0,1.791,1.569,3.25,3.499,3.25h25.719c1.93,0,3.5-1.459,3.5-3.25V34.059c0-1.792-1.57-3.25-3.5-3.25H11.141z"/>
<path fill="#FFFFFF" d="M15.688,37.328h2.597v8.1h-1.684l0.014-6.797l-1.637,6.797h-1.755l-1.626-6.797l0.014,6.797H9.928v-8.1
	h2.628l1.571,6.367L15.688,37.328z"/>
<path fill="#FFFFFF" d="M22.423,37.328h2.044l3.056,8.1h-1.957l-0.569-1.668h-3.183l-0.584,1.668h-1.888L22.423,37.328z
	 M22.305,42.365h2.211l-1.089-3.186L22.305,42.365z"/>
<path fill="#FFFFFF" d="M30.268,45.428h-1.793v-8.1h1.793V45.428z"/>
<path fill="#FFFFFF" d="M31.953,37.328h1.807v6.643h4.312v1.457h-6.118V37.328z"/>
<path fill="#C21413" d="M46.022,5.292H14.104v14.625h28.125C42.765,12.78,44.201,8.08,46.022,5.292z"/>
<path fill="#B00505" d="M19.215,19.917c0-7.561-1.884-14.625-5.11-14.625c-3.225,0-6.569,4.759-6.569,17.794h34.521
	c0.038-1.107,0.098-2.161,0.173-3.169H19.215z"/>
<path fill="#B00505" d="M55,2c-4.417,0-9,6.519-9,24.377V62l2.88-1.359v-5.613l10.239-4.799v5.824L62,54.445V20.752
	C62,10.396,59.418,2,55,2z"/>
</svg>
