<?xml version="1.0" encoding="utf-8"?>
<!-- Generator: Adobe Illustrator 15.0.0, SVG Export Plug-In . SVG Version: 6.00 Build 0)  -->
<!DOCTYPE svg PUBLIC "-//W3C//DTD SVG 1.1//EN" "http://www.w3.org/Graphics/SVG/1.1/DTD/svg11.dtd">
<svg version="1.1" id="Layer_1" xmlns="http://www.w3.org/2000/svg" xmlns:xlink="http://www.w3.org/1999/xlink" x="0px" y="0px"
	 width="64px" height="64px" viewBox="0 0 64 64" enable-background="new 0 0 64 64" xml:space="preserve">
<polygon fill="#9E6C49" points="32,62 2,43.99 2,19.977 32,37.988 "/>
<polygon fill="#EBBB96" points="32,37.988 32,62 62,43.99 62,19.977 "/>
<polygon fill="#C4926E" points="2,19.977 32,37.988 62,20.01 32,2 "/>
<polygon fill="#785647" points="49.763,27.342 19.777,9.325 14.184,12.676 44.168,30.694 "/>
<polygon fill="#E6EBEF" points="38.864,8.332 32.234,4.261 26.641,7.614 33.27,11.684 "/>
<polygon fill="#B47D56" points="49.654,27.406 44.341,30.592 44.341,39.229 49.654,36.037 "/>
<polygon fill="#FFFFFF" points="60.553,22.718 55.239,25.905 55.239,34.541 60.553,31.35 "/>
<polygon fill="#FFFFFF" points="41.014,42.748 33.763,47.096 33.763,58.877 41.014,54.523 "/>
<polygon fill="#B47D56" points="44.341,54.59 49.654,51.4 49.654,42.748 44.341,45.939 "/>
</svg>
