<?xml version="1.0" encoding="utf-8"?>
<!-- Generator: Adobe Illustrator 15.0.0, SVG Export Plug-In . SVG Version: 6.00 Build 0)  -->
<!DOCTYPE svg PUBLIC "-//W3C//DTD SVG 1.1//EN" "http://www.w3.org/Graphics/SVG/1.1/DTD/svg11.dtd">
<svg version="1.1" id="Layer_1" xmlns="http://www.w3.org/2000/svg" xmlns:xlink="http://www.w3.org/1999/xlink" x="0px" y="0px"
	 width="64px" height="64px" viewBox="0 0 64 64" enable-background="new 0 0 64 64" xml:space="preserve">
<path fill="#C21413" d="M29.872,48.386c0.059,2.418-1.182,4.787-3.438,6.061s-4.936,1.117-6.988-0.172l-2.771,1.563
	c2.029,2.861,7.334,3.016,11.068,0.906c3.738-2.109,6.326-6.721,4.898-9.922L29.872,48.386z"/>
<path fill="#B00505" d="M19.446,54.274l-2.771,1.563c0.326,0.46,0.745,0.843,1.221,1.165l3.731-1.851
	C20.858,54.982,20.117,54.695,19.446,54.274z"/>
<path fill="#B00505" d="M32.641,46.821l-2.77,1.564c0.025,1.034-0.201,2.055-0.629,2.989l3.746-1.858
	C33.105,48.569,33.01,47.648,32.641,46.821z"/>
<path fill="#BEC3CF" d="M3.071,53.571c0,0-2.889,1.848,0.824,5.543c3.715,3.697,5.57,0.818,5.57,0.818L3.071,53.571z"/>
<path fill="#E81C27" d="M21.614,16.819L3.079,53.442v0.002c-1.314,2.016,4.49,7.799,6.516,6.482l35.033-20.439L21.614,16.819z"/>
<path fill="#C21413" d="M38.954,39.112L6.432,59.086c1.205,0.865,2.431,1.316,3.162,0.841l36.775-18.426L38.954,39.112z"/>
<path fill="#F46C60" d="M24.926,20.114L3.108,55.153c0,0,0.344,1.107,1.361,2.121l25.887-31.707L24.926,20.114z"/>
<path fill="#BEC3CF" d="M48.02,40.034l-0.996,0.992c-2.549,2.535-10.197-0.971-17.085-7.828
	c-6.891-6.857-10.414-14.469-7.869-17.002l0.998-0.992L48.02,40.034z"/>
<path fill="#6E8189" d="M40.152,23.032c6.891,6.857,10.414,14.469,7.867,17.002s-10.195-0.973-17.085-7.828
	c-6.891-6.857-10.414-14.469-7.867-17.002C25.614,12.669,33.26,16.175,40.152,23.032z"/>
<path fill="#0FB4D4" d="M31.569,3.37c11.867,1.621,29.365,19.428,29.746,30.789C66.217,22.667,43.658-0.179,31.569,3.37z"/>
<path fill="#0FB4D4" d="M28.782,9.919c10,1.799,25.326,17.367,26.072,26.895C58.525,27.374,38.771,7.399,28.782,9.919z"/>
<path fill="#99A8AE" d="M43.825,27.152l-4.85,4.957l4.479,7.212l5.05-3.817C47.872,33.008,46.122,29.903,43.825,27.152z"/>
<path fill="#302C3B" d="M30.924,32.192c4.88,4.859,10.146,8.035,13.703,8.57c-0.557-3.541-3.738-8.756-8.604-13.598
	c-4.884-4.861-10.146-8.033-13.707-8.568C22.875,22.136,26.057,27.351,30.924,32.192z"/>
</svg>
