<?xml version="1.0" encoding="utf-8"?>
<!-- Generator: Adobe Illustrator 15.0.0, SVG Export Plug-In . SVG Version: 6.00 Build 0)  -->
<!DOCTYPE svg PUBLIC "-//W3C//DTD SVG 1.1//EN" "http://www.w3.org/Graphics/SVG/1.1/DTD/svg11.dtd">
<svg version="1.1" id="Layer_1" xmlns="http://www.w3.org/2000/svg" xmlns:xlink="http://www.w3.org/1999/xlink" x="0px" y="0px"
	 width="64px" height="64px" viewBox="0 0 64 64" enable-background="new 0 0 64 64" xml:space="preserve">
<path fill="#F9B700" d="M61.45,32.938c1.429-1.471-0.021-5.133-3.24-8.178c-3.22-3.043-6.988-4.319-8.417-2.848
	c-0.312,0.32-0.453,0.75-0.534,1.243c-0.945,5.779-2.852,6.632-4.555,8.659c0.509-1.695,0.773-3.471,0.773-5.289
	c0-4.947-1.953-9.6-5.498-13.097C36.435,9.928,31.72,8,26.708,8c-5.014,0-9.728,1.928-13.272,5.428
	c-3.545,3.498-5.498,8.15-5.498,13.097c0,4.343,1.504,8.458,4.267,11.764c-2.057-0.967-5.75-3.527-7.531-5.082
	c-0.834-0.728-0.537-1.413-0.705-1.592c-0.643-0.686-2.474,0.982-1.834,1.668c0.176,0.188,0.701-0.186,1.527,0.719
	c4.311,4.715,10.515,11.947,22.713,11.947c16.294,0,25.474-10.195,33.4-12.328C60.211,33.503,61.095,33.303,61.45,32.938z
	 M26.708,39.656c-7.337,0-13.304-5.891-13.304-13.131c0-7.238,5.967-13.129,13.304-13.129c7.336,0,13.303,5.891,13.303,13.129
	C40.011,33.766,34.044,39.656,26.708,39.656z"/>
<path fill="#AB5C10" d="M57.996,25.028c-2.693-2.546-5.847-3.614-7.042-2.382c-0.261,0.268-0.406,0.623-0.447,1.04
	c-0.149,1.499,1.051,3.81,3.159,5.802c2.024,1.915,4.308,2.994,5.825,2.887c0.502-0.035,0.918-0.199,1.216-0.504
	C61.902,30.639,60.689,27.575,57.996,25.028z"/>
<path fill="#B00505" d="M25.25,38.857c0,1.373,0,6.367,0,7.49c0,0.853,1.458,0.853,1.458,0c0-1.373,0-6.367,0-7.49
	C26.708,37.93,25.25,37.93,25.25,38.857L25.25,38.857z"/>
<path fill="#B00505" d="M28.165,38.857c0,1.373,0,6.367,0,7.49c0,0.853,1.458,0.853,1.458,0c0-1.373,0-6.367,0-7.49
	C29.623,37.93,28.165,37.93,28.165,38.857L28.165,38.857z"/>
<path fill="#E81C27" d="M28.165,51.319c0-0.842,0-12.403,0-12.462c0-0.928-1.457-0.928-1.457,0c0,0.982,0,11.228,0,12.481
	c-0.513,0.405-0.676,1.229-0.729,1.91c-0.052-0.691-0.217-1.531-0.729-1.93c0-0.842,0-12.403,0-12.462c0-0.928-1.458-0.928-1.458,0
	c0,0.982,0,11.228,0,12.481c-0.736,0.582-0.731,1.983-0.729,2.677c0.006,2.646,2.917,2.646,2.917,0c0,2.646,2.908,2.646,2.914,0
	C28.895,53.317,28.901,51.89,28.165,51.319z"/>
<path fill-rule="evenodd" clip-rule="evenodd" fill="#FFFFFF" d="M49.944,24.923c-0.16-1.15-0.438,3.292-4.688,7.083
	C42.98,34.037,50.494,28.881,49.944,24.923z"/>
<path fill-rule="evenodd" clip-rule="evenodd" fill="#FFFFFF" d="M41.039,28.758c-0.21-1.507-0.573,4.316-6.146,9.287
	C31.909,40.707,41.76,33.947,41.039,28.758z"/>
<path fill="#FFFFFF" d="M11.813,17.854c5.694-9.097,17.379-8.473,13.7-8.59C14.889,8.927,10.465,19.314,11.813,17.854z"/>
</svg>
