<?xml version="1.0" encoding="utf-8"?>
<!-- Generator: Adobe Illustrator 15.0.0, SVG Export Plug-In . SVG Version: 6.00 Build 0)  -->
<!DOCTYPE svg PUBLIC "-//W3C//DTD SVG 1.1//EN" "http://www.w3.org/Graphics/SVG/1.1/DTD/svg11.dtd">
<svg version="1.1" id="Layer_1" xmlns="http://www.w3.org/2000/svg" xmlns:xlink="http://www.w3.org/1999/xlink" x="0px" y="0px"
	 width="64px" height="64px" viewBox="0 0 64 64" enable-background="new 0 0 64 64" xml:space="preserve">
<path fill="#6E8189" d="M25.021,48.592L14.408,38.574c0,0-4.512,6.213-4.512,11.299h14.596
	C24.492,49.055,25.021,48.592,25.021,48.592z"/>
<path fill="#302C3B" d="M26.922,48.527c-4.588,1.447-14.082-8.012-12.629-12.582c1.203-3.786,1.203-3.786,1.203-3.786l15.227,15.168
	C30.723,47.328,30.723,47.328,26.922,48.527z"/>
<path fill="#302C3B" d="M15.188,7.313c-2.977,2.966-4.576,6.896-4.893,11.229c-0.568,7.731,2.959,16.748,10.121,23.883
	c7.164,7.135,16.215,10.648,23.975,10.084c4.352-0.316,8.297-1.908,11.275-4.875L15.188,7.313z"/>
<path fill="#0FB4D4" d="M43.545,7.997c1.928,1.595,3.949,3.427,5.973,5.443c2.023,2.014,3.863,4.027,5.463,5.949
	c-0.215-2.16-1.674-4.914-4.09-7.32C48.477,9.665,45.713,8.212,43.545,7.997z"/>
<path fill="#0FB4D4" d="M61,20.348c-0.346-3.479-2.695-7.913-6.586-11.787C50.525,4.688,46.074,2.346,42.58,2
	c3.109,2.569,6.361,5.519,9.621,8.765S58.422,17.253,61,20.348z"/>
<path fill="#99A8AE" d="M55.531,47.77c-3.131,3.117-14.73-3.381-25.908-14.514C18.447,22.12,11.922,10.565,15.051,7.447
	c3.131-3.118,14.73,3.381,25.91,14.515C52.137,33.096,58.66,44.65,55.531,47.77z"/>
<polygon fill="#302C3B" points="33.111,32.462 30.42,29.779 42.525,19.459 43.473,20.401 "/>
<path fill="#E03636" d="M32.516,36.025c-3.004-2.66-5.672-5.651-5.672-5.651l4.482-3.051l4.25,4.233L32.516,36.025z"/>
<path fill="#302C3B" d="M47.979,20.622c-1.568,1.56-4.107,1.56-5.674,0c-1.564-1.561-1.564-4.09,0.002-5.649
	c1.564-1.56,4.104-1.562,5.67-0.001S49.543,19.062,47.979,20.622z"/>
<path fill="#302C3B" d="M9.896,49.873c-2.678,0-4.848,2.162-4.848,4.828v5.23h8.645V49.873H9.896z"/>
<path fill="#4E5E67" d="M24.492,49.873H12.693v10.059h16.645v-5.23C29.338,52.035,27.168,49.873,24.492,49.873z"/>
<rect x="3" y="59.242" fill="#302C3B" width="8.617" height="2.758"/>
<rect x="10.617" y="59.242" fill="#4E5E67" width="20.771" height="2.758"/>
<path fill="#4E5E67" d="M12.48,40.16h-2.346v9.713h2.346c1.791,0,3.246-2.174,3.246-4.855S14.271,40.16,12.48,40.16z"/>
<ellipse fill="#302C3B" cx="10.136" cy="45.018" rx="3.247" ry="4.855"/>
<ellipse fill="#1A1626" cx="10.57" cy="45.018" rx="2.26" ry="4.033"/>
</svg>
