<?xml version="1.0" encoding="utf-8"?>
<!-- Generator: Adobe Illustrator 15.0.0, SVG Export Plug-In . SVG Version: 6.00 Build 0)  -->
<!DOCTYPE svg PUBLIC "-//W3C//DTD SVG 1.1//EN" "http://www.w3.org/Graphics/SVG/1.1/DTD/svg11.dtd">
<svg version="1.1" id="Layer_1" xmlns="http://www.w3.org/2000/svg" xmlns:xlink="http://www.w3.org/1999/xlink" x="0px" y="0px"
	 width="64px" height="64px" viewBox="0 0 64 64" enable-background="new 0 0 64 64" xml:space="preserve">
<polygon fill="#99A8AE" points="37.61,62 29.353,60.859 29.353,14.982 37.61,14.982 "/>
<polygon fill="#6E8189" points="43.562,14.982 37.61,14.982 37.61,62 43.562,56.299 "/>
<path fill="#302C3B" d="M45.847,2c-7.659,0-33.406,8.879-33.406,8.879l23.022,37.875L62,32.79V17.965C62,7.889,55.988,2,45.847,2z"
	/>
<path fill="#6E8189" d="M18.155,9.985C7.958,9.985,2,17.013,2,27.089v15.963l33.463,5.701V29.369
	C35.463,19.292,28.351,9.985,18.155,9.985z"/>
<polygon fill="#E81C27" points="36.907,8.017 36.907,35.383 39.467,34.121 39.458,16.608 50.025,12.604 50.032,3.509 "/>
<path fill="#302C3B" d="M11.121,23.332l2.403,0.324l-0.088,10.002l-1.557-0.211l0.059-6.765c0.002-0.194,0.007-0.467,0.013-0.817
	c0.007-0.35,0.011-0.621,0.013-0.809l-1.588,8.188l-1.624-0.217L7.323,24.43c-0.001,0.19-0.003,0.46-0.001,0.812
	c0,0.352,0,0.624-0.002,0.818l-0.061,6.766l-1.557-0.21L5.79,22.614l2.43,0.326l1.386,8.063L11.121,23.332z"/>
<path fill="#302C3B" d="M17.354,24.172l1.89,0.254l2.739,10.384l-1.811-0.244l-0.51-2.126l-2.944-0.398l-0.558,1.984l-1.748-0.234
	L17.354,24.172z M17.188,30.379l2.046,0.276l-0.975-4.072L17.188,30.379z"/>
<path fill="#302C3B" d="M24.521,35.152l-1.658-0.223l0.088-10.003l1.658,0.223L24.521,35.152z"/>
<path fill="#302C3B" d="M26.172,25.361l1.67,0.225l-0.071,8.205l3.989,0.537l-0.016,1.799l-5.66-0.764L26.172,25.361z"/>
<path fill="#4E5E67" d="M20.35,17.408l-4.229,1.95l0.287-2.794l3.014-1.39C20.555,14.653,21.48,16.886,20.35,17.408z"/>
<path fill="#302C3B" d="M19.295,17.099c0.25,2.391-1.399,3.631-2.828,3.779c-0.842,0.089-1.53-6.18-1.53-6.18s0.796-0.428,1.476-0.5
	C17.839,14.05,19.107,15.315,19.295,17.099z"/>
<ellipse transform="matrix(0.9946 -0.1039 0.1039 0.9946 -1.7465 1.7716)" fill="#4E5E67" cx="16.129" cy="17.647" rx="2.599" ry="3.249"/>
<ellipse transform="matrix(0.9946 -0.1038 0.1038 0.9946 -1.7449 1.7697)" fill="#6E8189" cx="16.129" cy="17.648" rx="1.976" ry="2.469"/>
</svg>
