<?xml version="1.0" encoding="utf-8"?>
<!-- Generator: Adobe Illustrator 15.0.0, SVG Export Plug-In . SVG Version: 6.00 Build 0)  -->
<!DOCTYPE svg PUBLIC "-//W3C//DTD SVG 1.1//EN" "http://www.w3.org/Graphics/SVG/1.1/DTD/svg11.dtd">
<svg version="1.1" id="Layer_1" xmlns="http://www.w3.org/2000/svg" xmlns:xlink="http://www.w3.org/1999/xlink" x="0px" y="0px"
	 width="64px" height="64px" viewBox="0 0 64 64" enable-background="new 0 0 64 64" xml:space="preserve">
<polygon fill="#785647" points="26,38 27,51 2,62 2,46 "/>
<rect x="26" y="38" fill="#B47D56" width="36" height="12"/>
<polygon fill="#EBBB96" points="26,50 2,62 52,62 62,50 "/>
<path fill="#C4926E" d="M35.117,46c0,0-0.313,6.729-1.625,7.998c-2.561,2.475-10.425,2.475-12.985,0
	C19.195,52.729,18.883,46,18.883,46H2v16h50V46H35.117z"/>
<path fill="#B47D56" d="M30.468,55.461c-3.998,0.727-6.873-0.627-8.164-2.336c-1.423-1.883-1.079-8.203-1.079-8.203L18.883,46
	c0,0,0.237,6.729,1.549,7.998C21.849,55.367,26,56.75,30.468,55.461z"/>
<polygon fill="#785647" points="62,50 52,62 52,46 62,38 "/>
<polygon fill="#9E6C49" points="62,38 26,38 2,46 18.883,46 21.225,44.922 8.434,44.922 26,39.078 58.652,39.078 51.348,44.922 
	37.166,44.922 35.117,46 52,46 "/>
<path fill="#297124" d="M48,35.453l-5.832-2.166c0,0,2.826-10.01-4.814-19.809C30.319,4.459,21.491,2,21.491,2L20,2.328
	c0,0,7.582,5.195,9.768,14.17c1.316,5.414,0.582,10.381,0.195,12.053l-4.987-1.869h-2.207L28.828,48h2.207L48,35.453z"/>
<path fill="#92C932" d="M20,2.328c0,0,5.219,4.771,8.34,13.492c2.563,7.162,0.455,13.039,0.455,13.039l-6.026-2.178L28.828,48
	l16.965-12.547l-5.834-2.166c0,0,2.829-10.01-4.813-19.809C28.112,4.459,20,2.328,20,2.328z"/>
</svg>
