<?xml version="1.0" encoding="utf-8"?>
<!-- Generator: Adobe Illustrator 15.0.0, SVG Export Plug-In . SVG Version: 6.00 Build 0)  -->
<!DOCTYPE svg PUBLIC "-//W3C//DTD SVG 1.1//EN" "http://www.w3.org/Graphics/SVG/1.1/DTD/svg11.dtd">
<svg version="1.1" id="Layer_1" xmlns="http://www.w3.org/2000/svg" xmlns:xlink="http://www.w3.org/1999/xlink" x="0px" y="0px"
	 width="64px" height="64px" viewBox="0 0 64 64" enable-background="new 0 0 64 64" xml:space="preserve">
<polygon fill="#99A8AE" points="37.609,62 29.353,60.859 29.353,14.982 37.609,14.982 "/>
<polygon fill="#6E8189" points="43.562,14.982 37.609,14.982 37.609,62 43.562,56.299 "/>
<path fill="#302C3B" d="M45.846,2c-7.659,0-33.405,8.879-33.405,8.879l23.021,37.875L62,32.789V17.967C62,7.889,55.989,2,45.846,2z"
	/>
<path fill="#6E8189" d="M18.154,9.985C7.958,9.985,2,17.013,2,27.09v15.963l33.462,5.701V29.369
	C35.462,19.293,28.35,9.985,18.154,9.985z"/>
<path fill="#4E5E67" d="M18.188,11.144C8.603,11.144,3,17.751,3,27.227v15.008l31.462,5.361V29.369
	C34.462,19.896,27.774,11.144,18.188,11.144z"/>
<polygon fill="#99A8AE" points="34.462,47.596 3,42.234 34.462,27.833 "/>
<path opacity="0.5" fill="#302C3B" d="M18.188,11.144c-4.92,0-8.791,1.741-11.395,4.717l9.69,20.202l17.978,6.436V29.369
	C34.462,19.896,27.774,11.144,18.188,11.144z"/>
<polygon fill="#E81C27" points="60.765,15.286 36.39,26.944 36.391,30.047 54.452,20.999 54.452,30.286 60.765,26.729 "/>
</svg>
