<?xml version="1.0" encoding="utf-8"?>
<!-- Generator: Adobe Illustrator 15.0.0, SVG Export Plug-In . SVG Version: 6.00 Build 0)  -->
<!DOCTYPE svg PUBLIC "-//W3C//DTD SVG 1.1//EN" "http://www.w3.org/Graphics/SVG/1.1/DTD/svg11.dtd">
<svg version="1.1" id="Layer_1" xmlns="http://www.w3.org/2000/svg" xmlns:xlink="http://www.w3.org/1999/xlink" x="0px" y="0px"
	 width="64px" height="64px" viewBox="0 0 64 64" enable-background="new 0 0 64 64" xml:space="preserve">
<rect x="2" y="11" fill="#BEC3CF" width="60" height="40"/>
<polygon fill="#CFD8DD" points="32,19 2,51 62,51 "/>
<polygon fill="#E6EBEF" points="32,39 2,11 62,11 "/>
<path fill="#018BC9" d="M36.869,41.676c-2.129,0.928-3.973,1.24-6.489,1.24c-5.886,0-11.062-4.102-11.062-10.861
	c0-7.035,5.283-13.139,13.259-13.139c6.276,0,10.741,4.173,10.741,9.966c0,5.069-2.904,8.243-6.734,8.243
	c-1.666,0-2.873-0.863-3.049-2.657h-0.071c-1.134,1.724-2.694,2.657-4.608,2.657c-2.271,0-3.972-1.691-3.972-4.518
	c0-4.242,3.228-8.036,8.333-8.036c1.559,0,3.332,0.38,4.184,0.826l-1.064,6.416c-0.32,2.034-0.072,2.964,0.922,3
	c1.523,0.068,3.439-1.829,3.439-5.829c0-4.516-2.979-7.965-8.475-7.965c-5.459,0-10.175,4.104-10.175,10.725
	c0,5.793,3.758,9.037,9.041,9.037c1.808,0,3.757-0.385,5.175-1.072L36.869,41.676z M33.748,27.434
	c-0.284-0.069-0.674-0.139-1.099-0.139c-2.341,0-4.185,2.242-4.185,4.896c0,1.313,0.604,2.139,1.738,2.139
	c1.346,0,2.729-1.62,3.014-3.62L33.748,27.434z"/>
</svg>
