<?xml version="1.0" encoding="utf-8"?>
<!-- Generator: Adobe Illustrator 15.0.0, SVG Export Plug-In . SVG Version: 6.00 Build 0)  -->
<!DOCTYPE svg PUBLIC "-//W3C//DTD SVG 1.1//EN" "http://www.w3.org/Graphics/SVG/1.1/DTD/svg11.dtd">
<svg version="1.1" id="Layer_1" xmlns="http://www.w3.org/2000/svg" xmlns:xlink="http://www.w3.org/1999/xlink" x="0px" y="0px"
	 width="64px" height="64px" viewBox="0 0 64 64" enable-background="new 0 0 64 64" xml:space="preserve">
<rect x="7.111" y="30" fill="#302C3B" width="12" height="32"/>
<path fill="#6E8189" d="M61.18,40.375C60.953,39.064,59.736,38,58.551,38c-16.609,0-24.492,0-41.104,0
	c-1.185,0-2.397,1.064-2.628,2.375c-1.092,6.361-1.092,12.889,0,19.248C15.05,60.936,16.263,62,17.447,62
	c16.611,0,24.494,0,41.104,0c1.186,0,2.402-1.064,2.629-2.377C62.273,53.264,62.273,46.736,61.18,40.375z"/>
<path fill="#6E8189" d="M56.408,21.984C56.283,20.893,55.363,20,54.363,20H21.637c-1,0-1.92,0.893-2.044,1.984L18,36h40
	L56.408,21.984z"/>
<rect x="18" y="36" fill="#302C3B" width="40" height="2"/>
<path fill="#302C3B" d="M56,38l-1.602-14.013C54.289,22.895,53.391,22,52.4,22H23.6c-0.989,0-1.89,0.895-1.998,1.987L20,38H56z"/>
<path fill="#6E8189" d="M2.005,30.737c0.337,9.099,0.366,18.196,0.088,27.296c-0.208,5.289,10.022,5.289,9.814,0
	c-0.279-9.1-0.249-18.197,0.088-27.296C12.258,24.421,1.742,24.421,2.005,30.737z"/>
<rect x="22" y="2" fill="#E6EBEF" width="32" height="34"/>
<rect x="24" y="6" fill="#BEC3CF" width="28" height="2"/>
<rect x="24" y="10" fill="#BEC3CF" width="28" height="2"/>
<rect x="24" y="14" fill="#BEC3CF" width="28" height="2"/>
<rect x="24" y="18" fill="#BEC3CF" width="28" height="2"/>
<rect x="24" y="22" fill="#BEC3CF" width="12" height="2"/>
<path fill="#302C3B" d="M18,40v16h22V40H18z"/>
<rect x="20" y="42" fill="#A6E639" width="18" height="12"/>
<rect x="54" y="40" fill="#302C3B" width="4" height="4"/>
<rect x="54" y="46" fill="#302C3B" width="4" height="4"/>
<rect x="54" y="52" fill="#302C3B" width="4" height="4"/>
<rect x="48" y="40" fill="#302C3B" width="4" height="4"/>
<rect x="48" y="46" fill="#302C3B" width="4" height="4"/>
<rect x="48" y="52" fill="#302C3B" width="4" height="4"/>
<rect x="42" y="40" fill="#302C3B" width="4" height="4"/>
<rect x="42" y="46" fill="#302C3B" width="4" height="4"/>
<rect x="42" y="52" fill="#302C3B" width="4" height="4"/>
<rect x="18" y="58" fill="#E81C27" width="4" height="2"/>
<rect x="44" y="58" fill="#302C3B" width="12" height="2"/>
<rect x="24" y="58" fill="#0FB4D4" width="4" height="2"/>
<path fill="#BEC3CF" d="M30,38v-6c0,0,0-2,2-2c3,0,9,0,12,0c2,0,2,2,2,2v6h2v-6c0,0,0-4-4-4c-3,0-9,0-12,0c-4,0-4,4-4,4v6H30z"/>
</svg>
