<?xml version="1.0" encoding="utf-8"?>
<!-- Generator: Adobe Illustrator 15.0.0, SVG Export Plug-In . SVG Version: 6.00 Build 0)  -->
<!DOCTYPE svg PUBLIC "-//W3C//DTD SVG 1.1//EN" "http://www.w3.org/Graphics/SVG/1.1/DTD/svg11.dtd">
<svg version="1.1" id="Layer_1" xmlns="http://www.w3.org/2000/svg" xmlns:xlink="http://www.w3.org/1999/xlink" x="0px" y="0px"
	 width="64px" height="64px" viewBox="0 0 64 64" enable-background="new 0 0 64 64" xml:space="preserve">
<path fill="#4E5E67" d="M62,58c0,2.2-1.799,4-4,4H30c-2.199,0-4-1.8-4-4V6c0-2.2,1.8-4,4-4h28c2.201,0,4,1.8,4,4V58z"/>
<path fill="#1A1626" d="M61,57c0,2.2-1.799,4-4,4H31c-2.199,0-4-1.8-4-4V7c0-2.2,1.8-4,4-4h26c2.201,0,4,1.8,4,4V57z"/>
<rect x="28" y="10" fill="#302C3B" width="32" height="44"/>
<circle fill="#4E5E67" cx="53" cy="6.999" r="1"/>
<circle fill="#4E5E67" cx="57" cy="6.999" r="1"/>
<path fill="#4E5E67" d="M47,6.999C47,7.277,46.867,7.5,46.701,7.5h-5.402C41.135,7.5,41,7.277,41,6.999l0,0
	C41,6.725,41.135,6.5,41.299,6.5h5.402C46.867,6.5,47,6.725,47,6.999L47,6.999z"/>
<path fill="#4E5E67" d="M48,58.5c0,0.275-0.225,0.5-0.5,0.5h-7c-0.275,0-0.5-0.225-0.5-0.5v-2c0-0.275,0.225-0.5,0.5-0.5h7
	c0.275,0,0.5,0.225,0.5,0.5V58.5z"/>
<rect x="30" y="12" fill="#0FB4D4" width="8" height="8"/>
<rect x="40" y="12" fill="#93E67F" width="8" height="8"/>
<rect x="50" y="12" fill="#C28FEF" width="8" height="8"/>
<rect x="30" y="22" fill="#FFE12C" width="8" height="8"/>
<rect x="40" y="22" fill="#FF435E" width="8" height="8"/>
<rect x="50" y="22" fill="#0FB4D4" width="8" height="8"/>
<rect x="30" y="32" fill="#C28FEF" width="8" height="8"/>
<rect x="40" y="32" fill="#93E67F" width="8" height="8"/>
<rect x="50" y="32" fill="#FFE12C" width="8" height="8"/>
<rect x="30" y="44" fill="#FF435E" width="8" height="8"/>
<rect x="40" y="44" fill="#0FB4D4" width="8" height="8"/>
<rect x="50" y="44" fill="#C28FEF" width="8" height="8"/>
<path fill="#018BC9" d="M16,16.787C16,19.004,16,23,16,23H2v18.001h14c0,0,0,3.996,0,6.213c0,0.725,0.408,1.104,1.031,0.451
	C32,32.001,32,32.001,32,32.001s0,0-14.968-15.666C16.408,15.684,16,16.063,16,16.787z"/>
<polygon opacity="0.3" fill="#FFFFFF" points="60,44 34,10 60,10 "/>
</svg>
