<?xml version="1.0" encoding="utf-8"?>
<!-- Generator: Adobe Illustrator 15.0.0, SVG Export Plug-In . SVG Version: 6.00 Build 0)  -->
<!DOCTYPE svg PUBLIC "-//W3C//DTD SVG 1.1//EN" "http://www.w3.org/Graphics/SVG/1.1/DTD/svg11.dtd">
<svg version="1.1" id="Layer_1" xmlns="http://www.w3.org/2000/svg" xmlns:xlink="http://www.w3.org/1999/xlink" x="0px" y="0px"
	 width="64px" height="64px" viewBox="0 0 64 64" enable-background="new 0 0 64 64" xml:space="preserve">
<path fill="#E81C27" d="M32,2C15.432,2,2,15.432,2,32s13.432,30,30,30s30-13.432,30-30S48.568,2,32,2z M32,56
	C18.745,56,8,45.256,8,32S18.745,8,32,8s24,10.744,24,24S45.255,56,32,56z"/>
<path fill="#302C3B" d="M37.766,14.996H26.233c-2.123,0-3.844,1.691-3.844,3.779v26.449c0,2.088,1.721,3.779,3.844,3.779h11.532
	c2.124,0,3.845-1.691,3.845-3.779V18.775C41.61,16.688,39.89,14.996,37.766,14.996z M30.119,16.375h3.761
	c0.266,0,0.481,0.213,0.481,0.473c0,0.262-0.216,0.473-0.481,0.473h-3.761c-0.266,0-0.48-0.211-0.48-0.473
	C29.639,16.588,29.854,16.375,30.119,16.375z M32,47.102c-0.637,0-1.153-0.508-1.153-1.133s0.517-1.133,1.153-1.133
	c0.638,0,1.153,0.508,1.153,1.133S32.638,47.102,32,47.102z M39.688,42.959H24.312V18.775h15.377V42.959z"/>
<rect x="2.815" y="29" transform="matrix(-0.7071 -0.7071 0.7071 -0.7071 31.9989 77.2548)" fill="#E81C27" width="58.371" height="6.001"/>
</svg>
