<?xml version="1.0" encoding="utf-8"?>
<!-- Generator: Adobe Illustrator 15.0.0, SVG Export Plug-In . SVG Version: 6.00 Build 0)  -->
<!DOCTYPE svg PUBLIC "-//W3C//DTD SVG 1.1//EN" "http://www.w3.org/Graphics/SVG/1.1/DTD/svg11.dtd">
<svg version="1.1" id="Layer_1" xmlns="http://www.w3.org/2000/svg" xmlns:xlink="http://www.w3.org/1999/xlink" x="0px" y="0px"
	 width="64px" height="64px" viewBox="0 0 64 64" enable-background="new 0 0 64 64" xml:space="preserve">
<path fill="#E81C27" d="M58.381,13.501c-2.83,2.818-7.131-1.364-4.297-4.185C56.917,6.495,61.215,10.681,58.381,13.501z"/>
<path fill="#E81C27" d="M36.236,19.874c-2.835,2.821-7.132-1.362-4.3-4.181C34.771,12.872,39.069,17.053,36.236,19.874z"/>
<path fill="#E81C27" d="M47.519,32.3c-2.835,2.821-7.134-1.362-4.298-4.184C46.053,25.296,50.351,29.48,47.519,32.3z"/>
<path fill="#E81C27" d="M22.088,43.575c-2.833,2.82-7.132-1.361-4.298-4.185C20.624,36.571,24.922,40.757,22.088,43.575z"/>
<path fill="#BEC3CF" d="M41.802,5.936c-2.834,2.822,1.466,7.005,4.297,4.185C48.934,7.3,44.635,3.117,41.802,5.936z"/>
<path fill="#BEC3CF" d="M59.502,25.674c-2.835,2.821-7.132-1.362-4.299-4.183C58.038,18.671,62.334,22.854,59.502,25.674z"/>
<path fill="#BEC3CF" d="M28.475,31.417c-2.834,2.82-7.131-1.363-4.298-4.186C27.011,24.413,31.307,28.595,28.475,31.417z"/>
<path fill="#BEC3CF" d="M34.848,38.249c-2.833,2.82-7.13-1.365-4.296-4.186C33.382,31.245,37.682,35.427,34.848,38.249z"/>
<path fill="#785647" d="M13.71,49.427l-2.162-1.994c0,0-6.25,4.03-9.406,7.114c-0.409,0.404,0.157,0.958,0.567,0.559
	c1.709-1.674,4.334-3.622,6.358-5.039c-2.418,2.021-5.625,4.715-6.158,5.236c-0.407,0.397,0.156,0.956,0.567,0.552
	c0.442-0.434,2.922-2.521,5.146-4.385c-1.967,1.885-4.173,3.968-4.913,4.553c-0.447,0.36,0.063,0.953,0.503,0.613
	c0.703-0.555,2.608-2.348,4.434-4.094c-1.838,1.982-3.602,3.824-4.155,4.224c-0.463,0.335,0.03,0.958,0.476,0.632
	c0.621-0.448,2.49-2.406,4.27-4.325c-1.689,2.054-3.337,3.968-3.983,4.449c-0.458,0.339,0.043,0.957,0.486,0.621
	c0.985-0.735,3.849-4.218,5.771-6.61c-1.359,1.988-3.467,4.756-5.528,6.776c-0.411,0.396,0.157,0.955,0.566,0.552
	C9.779,55.698,13.71,49.427,13.71,49.427z"/>
<path fill="#B00505" d="M19.316,44.177c-0.569-0.549-1.865-0.402-1.865-0.402s0.233-1.165-0.423-1.799
	c-0.648-0.621-1.777-0.469-2.404,0.385c-1.406,1.916-0.788,4.893-0.788,4.893s3.089,0.584,5.084-0.756
	C19.807,45.889,19.963,44.8,19.316,44.177z"/>
<path fill="#BEC3CF" d="M13.475,49.962l-2.42-2.371C13.549,45.157,15.966,47.519,13.475,49.962z"/>
<path fill="#BEC3CF" d="M54.381,8.996c-1.888,1.877-4.753-0.909-2.863-2.79C53.409,4.325,56.27,7.114,54.381,8.996z"/>
<path fill="#BEC3CF" d="M60.217,17.009c-1.889,1.879-4.754-0.909-2.866-2.789C59.239,12.339,62.106,15.127,60.217,17.009z"/>
<path fill="#BEC3CF" d="M38.52,15.208c-1.891,1.88-4.756-0.908-2.865-2.791C37.541,10.539,40.407,13.329,38.52,15.208z"/>
<path fill="#BEC3CF" d="M51.457,29.832c-1.89,1.882-4.754-0.907-2.865-2.789C50.479,25.164,53.347,27.951,51.457,29.832z"/>
<path fill="#BEC3CF" d="M32.877,23.384c-1.891,1.882-4.752-0.91-2.866-2.788C31.901,18.715,34.767,21.502,32.877,23.384z"/>
<path fill="#BEC3CF" d="M42.039,33.36c-1.889,1.879-4.752-0.909-2.862-2.792C41.064,28.692,43.931,31.478,42.039,33.36z"/>
<path fill="#BEC3CF" d="M22.613,38.11c-1.891,1.882-4.756-0.908-2.869-2.787C21.634,33.44,24.5,36.231,22.613,38.11z"/>
<path fill="#BEC3CF" d="M26.237,41.816c-1.889,1.881-4.756-0.91-2.865-2.789C25.26,37.145,28.125,39.937,26.237,41.816z"/>
<path fill="#E81C27" d="M50.398,8.714c-1.89,1.881-4.755-0.907-2.868-2.788C49.422,4.046,52.286,6.834,50.398,8.714z"/>
<path fill="#E81C27" d="M61.381,20.729c-1.888,1.878-4.755-0.91-2.865-2.79C60.405,16.058,63.27,18.847,61.381,20.729z"/>
<path fill="#E81C27" d="M41.264,12.257c-1.888,1.879-4.754-0.909-2.865-2.79C40.287,7.587,43.153,10.376,41.264,12.257z"/>
<path fill="#E81C27" d="M54.979,28.062c-1.891,1.88-4.755-0.91-2.865-2.788C54.004,23.393,56.869,26.181,54.979,28.062z"/>
<path fill="#E81C27" d="M30.625,26.643c-1.89,1.881-4.756-0.907-2.866-2.788C29.649,21.975,32.514,24.765,30.625,26.643z"/>
<path fill="#E81C27" d="M38.415,35.116c-1.891,1.879-4.756-0.908-2.867-2.789C37.438,30.446,40.303,33.235,38.415,35.116z"/>
<path fill="#E81C27" d="M24.88,34.805c-1.892,1.884-4.755-0.907-2.866-2.789C23.902,30.138,26.768,32.926,24.88,34.805z"/>
<path fill="#E81C27" d="M29.954,40.265c-1.889,1.883-4.755-0.906-2.864-2.791C28.977,35.599,31.841,38.385,29.954,40.265z"/>
</svg>
