<?xml version="1.0" encoding="utf-8"?>
<!-- Generator: Adobe Illustrator 15.0.0, SVG Export Plug-In . SVG Version: 6.00 Build 0)  -->
<!DOCTYPE svg PUBLIC "-//W3C//DTD SVG 1.1//EN" "http://www.w3.org/Graphics/SVG/1.1/DTD/svg11.dtd">
<svg version="1.1" id="Layer_1" xmlns="http://www.w3.org/2000/svg" xmlns:xlink="http://www.w3.org/1999/xlink" x="0px" y="0px"
	 width="64px" height="64px" viewBox="0 0 64 64" enable-background="new 0 0 64 64" xml:space="preserve">
<path fill="#ED7612" d="M62,50c0,6.6-5.4,12-12,12H14C7.4,62,2,56.6,2,50V14C2,7.399,7.4,2,14,2h36c6.6,0,12,5.399,12,12V50z"/>
<path fill="#E64C18" d="M56.838,4.162C58.197,6.105,59,8.462,59,11v37c0,6.6-4.398,11-11,11H11c-2.537,0-4.894-0.805-6.838-2.162
	C6.336,59.949,9.938,62,14,62h36c6.602,0,12-5.4,12-12V14C62,9.938,59.951,6.336,56.838,4.162z"/>
<path fill-rule="evenodd" clip-rule="evenodd" fill="#F59E01" d="M4.975,12.585c0.339,2.703,4.793-2.587,9.303-7.136
	C17.188,2.524,3.957,4.45,4.975,12.585z"/>
<path fill="#FFFFFF" d="M38.514,38.889v6h-18.49V16.444h18.49v8.667h2.311v-8.667c0-2.455-2.07-4.444-4.623-4.444H22.335
	c-2.551,0-4.622,1.989-4.622,4.444v31.11c0,2.455,2.071,4.445,4.622,4.445h13.866c2.553,0,4.623-1.99,4.623-4.445v-8.666H38.514z
	 M29.268,49.762c-0.766,0-1.387-0.598-1.387-1.334c0-0.735,0.621-1.332,1.387-1.332c0.768,0,1.388,0.597,1.388,1.332
	C30.655,49.164,30.035,49.762,29.268,49.762z"/>
<path fill="#FFFFFF" d="M34.246,31.891c0,3.412-2.068,5.479-5.107,5.479c-3.086,0-4.89-2.329-4.89-5.292
	c0-3.117,1.989-5.446,5.06-5.446C32.502,26.631,34.246,29.021,34.246,31.891z M26.732,32.03c0,2.037,0.956,3.472,2.53,3.472
	c1.589,0,2.5-1.512,2.5-3.533c0-1.867-0.896-3.471-2.515-3.471C27.658,28.498,26.732,30.009,26.732,32.03z"/>
<path fill="#FFFFFF" d="M35.795,26.8h6.357v1.929h-3.996v2.376h3.734v1.913h-3.734v4.182h-2.361V26.8z"/>
<path fill="#FFFFFF" d="M43.932,26.8h6.355v1.929h-3.996v2.376h3.734v1.913h-3.734v4.182h-2.359V26.8z"/>
</svg>
