<?xml version="1.0" encoding="utf-8"?>
<!-- Generator: Adobe Illustrator 15.0.0, SVG Export Plug-In . SVG Version: 6.00 Build 0)  -->
<!DOCTYPE svg PUBLIC "-//W3C//DTD SVG 1.1//EN" "http://www.w3.org/Graphics/SVG/1.1/DTD/svg11.dtd">
<svg version="1.1" id="Layer_1" xmlns="http://www.w3.org/2000/svg" xmlns:xlink="http://www.w3.org/1999/xlink" x="0px" y="0px"
	 width="64px" height="64px" viewBox="0 0 64 64" enable-background="new 0 0 64 64" xml:space="preserve">
<path fill="#302C3B" d="M2,14v9c0,0.55,0.449,1,1,1h58c0.549,0,1-0.45,1-1v-9H2z"/>
<path fill="#4E5E67" d="M60,24v-6H4v6H2v24.01C2,49.105,2.9,50,4,50h56c1.1,0,2-0.895,2-1.99V24H60z"/>
<path fill="#99A8AE" d="M53,24H11c-2.211,0-4,4.029-4,9s1.789,9,4,9h42c2.209,0,4-4.029,4-9S55.209,24,53,24z"/>
<path fill="#E6EBEF" d="M52.959,26H11c-0.521,0.177-2,2.605-2,7s1.479,6.818,2.041,7h41.932C53.545,39.783,55,37.357,55,33
	C55,28.605,53.521,26.182,52.959,26z"/>
<circle fill="#302C3B" cx="42" cy="33" r="7"/>
<path fill="#302C3B" d="M30.484,40C32.057,38.098,33,35.66,33,33c0-2.659-0.943-5.098-2.516-7H13.514C11.943,27.902,11,30.341,11,33
	c0,2.66,0.943,5.098,2.514,7H30.484z"/>
<circle fill="#E6EBEF" cx="42" cy="33" r="5"/>
<path fill="#6E8189" d="M44.656,36.602l-0.5-0.865c0.682-0.545,1.162-1.33,1.293-2.236h1C46.307,34.773,45.629,35.875,44.656,36.602
	z"/>
<path fill="#6E8189" d="M44.656,29.398c0.973,0.728,1.65,1.828,1.793,3.102h-1c-0.131-0.906-0.611-1.692-1.293-2.236L44.656,29.398z
	"/>
<circle fill="#E6EBEF" cx="22" cy="33" r="5"/>
<path fill="#6E8189" d="M19.344,36.602l0.498-0.865c-0.682-0.545-1.16-1.33-1.291-2.236h-1
	C17.693,34.773,18.371,35.875,19.344,36.602z"/>
<path fill="#6E8189" d="M19.344,29.398c-0.973,0.728-1.65,1.828-1.793,3.102h1c0.131-0.906,0.609-1.692,1.291-2.236L19.344,29.398z"
	/>
<rect x="22" y="24" fill="#99A8AE" width="20" height="18"/>
<path fill="#006DAE" d="M38,26H26c-1.1,0-2,0.9-2,2v2h16v-2C40,26.9,39.1,26,38,26z"/>
<path fill="#FFFFFF" d="M24,30v8c0,1.1,0.9,2,2,2h12c1.1,0,2-0.9,2-2v-8H24z"/>
<rect x="26" y="32" fill="#99A8AE" width="12" height="2"/>
<rect x="26" y="36" fill="#99A8AE" width="12" height="2"/>
<path fill="#4E5E67" d="M22,31c-1.104,0-2,0.896-2,2c0,1.105,0.896,2,2,2V31z"/>
<path fill="#4E5E67" d="M42,31c1.104,0,2,0.896,2,2c0,1.105-0.896,2-2,2V31z"/>
<path fill="#6E8189" d="M22,28.5c-0.643,0-1.246,0.146-1.797,0.39l0.5,0.864c0.4-0.161,0.836-0.254,1.297-0.254V28.5z"/>
<path fill="#6E8189" d="M22,36.5c-0.461,0-0.896-0.094-1.297-0.254l-0.5,0.863C20.754,37.354,21.357,37.5,22,37.5V36.5z"/>
<path fill="#6E8189" d="M42,28.5v1c0.459,0,0.895,0.093,1.297,0.254l0.498-0.864C43.244,28.646,42.643,28.5,42,28.5z"/>
<path fill="#6E8189" d="M43.297,36.246C42.895,36.406,42.459,36.5,42,36.5v1c0.643,0,1.244-0.146,1.795-0.391L43.297,36.246z"/>
<polygon fill="#302C3B" points="49.984,26 48.016,33.879 48.709,35 51.016,26 "/>
</svg>
