<?xml version="1.0" encoding="utf-8"?>
<!-- Generator: Adobe Illustrator 15.0.0, SVG Export Plug-In . SVG Version: 6.00 Build 0)  -->
<!DOCTYPE svg PUBLIC "-//W3C//DTD SVG 1.1//EN" "http://www.w3.org/Graphics/SVG/1.1/DTD/svg11.dtd">
<svg version="1.1" id="Layer_1" xmlns="http://www.w3.org/2000/svg" xmlns:xlink="http://www.w3.org/1999/xlink" x="0px" y="0px"
	 width="64px" height="64px" viewBox="0 0 64 64" enable-background="new 0 0 64 64" xml:space="preserve">
<rect x="5.543" y="22.226" fill="#E6EBEF" width="3.268" height="17.434"/>
<rect x="2" y="22.226" fill="#4E5E67" width="3.543" height="17.434"/>
<rect x="2" y="33.143" fill="#302C3B" width="3.543" height="6.517"/>
<rect x="2" y="29.414" fill="#6E8189" width="3.543" height="3.729"/>
<rect x="5.543" y="30.355" fill="#BEC3CF" width="3.268" height="9.304"/>
<rect x="5.543" y="29.414" fill="#FFFFFF" width="3.268" height="3.729"/>
<polygon fill="#4E5E67" points="53.502,23.436 36.287,33.01 30.697,23.682 47.912,14.108 "/>
<polygon fill="#6E8189" points="50.709,18.773 33.494,28.346 31.318,24.719 48.533,15.145 "/>
<polygon fill="#4E5E67" points="62,21.473 55.924,22.089 50.33,12.761 53.926,8 "/>
<polygon fill="#6E8189" points="56.721,12.664 53.127,17.427 50.951,13.798 54.547,9.036 "/>
<polygon fill="#302C3B" points="55.924,22.089 53.398,23.493 47.809,14.165 50.33,12.761 "/>
<path fill="#E6EBEF" d="M52.703,51.513H7.357V22.226h25.961c0,0,0.234,1.657,2.484,1.657c4.527,0,16.9,0,16.9,0V51.513z"/>
<path opacity="0.2" fill="#302C3B" d="M9.703,51.513H7.357V37.226c0,2.434,6.346,2.434,6.346,2.434s-4,0.921-4,2.733
	C9.703,46.643,9.703,51.513,9.703,51.513z"/>
<path fill="#99A8AE" d="M50.219,56c-12.266,0-30.127,0-40.377,0c-2.484,0-2.484-4.487-2.484-4.487h45.346
	C52.703,51.513,52.703,56,50.219,56z"/>
<rect x="50.703" y="23.882" opacity="0.2" fill="#302C3B" width="2" height="27.63"/>
<path fill="#E03636" d="M23.252,27.178c0,0.15-0.188,0.273-0.414,0.273h-3.174c-0.227,0-0.412-0.123-0.412-0.273v-1.454
	c0-0.149,0.186-0.272,0.412-0.272h3.174c0.227,0,0.414,0.123,0.414,0.272V27.178z"/>
<path fill="#7AB51D" d="M29.328,27.178c0,0.15-0.188,0.273-0.414,0.273H25.74c-0.227,0-0.412-0.123-0.412-0.273v-1.454
	c0-0.149,0.186-0.272,0.412-0.272h3.174c0.227,0,0.414,0.123,0.414,0.272V27.178z"/>
<path fill="#CFD8DD" d="M44.707,30.036H22.352c0,0-4.301,0-4.301,4c0,3.24,0,9.226,0,11.668c0,4,4.301,4,4.301,4h22.355
	c0,0,4.301,0,4.301-4c0-3.24,0-9.226,0-11.668C49.008,30.036,44.707,30.036,44.707,30.036z"/>
<path fill="#BEC3CF" d="M44.873,48.703H22.186c0,0-3.236-0.006-4.107-2.6c0.285,3.588,4.273,3.6,4.273,3.6h22.355
	c0,0,3.99-0.012,4.273-3.6C48.109,48.697,44.873,48.703,44.873,48.703z"/>
<path fill="#FFFFFF" d="M44.707,30.036H22.352c0,0-3.988,0.011-4.273,3.599c0.871-2.594,4.107-2.599,4.107-2.599h22.688
	c0,0,3.236,0.005,4.107,2.599C48.697,30.046,44.707,30.036,44.707,30.036z"/>
<rect x="17.051" y="34.453" fill="#99A8AE" width="0.99" height="10.539"/>
<rect x="17.051" y="40.008" fill="#6E8189" width="0.99" height="5.277"/>
</svg>
