<?xml version="1.0" encoding="utf-8"?>
<!-- Generator: Adobe Illustrator 15.0.0, SVG Export Plug-In . SVG Version: 6.00 Build 0)  -->
<!DOCTYPE svg PUBLIC "-//W3C//DTD SVG 1.1//EN" "http://www.w3.org/Graphics/SVG/1.1/DTD/svg11.dtd">
<svg version="1.1" id="Layer_1" xmlns="http://www.w3.org/2000/svg" xmlns:xlink="http://www.w3.org/1999/xlink" x="0px" y="0px"
	 width="64px" height="64px" viewBox="0 0 64 64" enable-background="new 0 0 64 64" xml:space="preserve">
<path fill="#ED7612" d="M62,50c0,6.6-5.4,12-12,12H14C7.4,62,2,56.6,2,50V14C2,7.399,7.4,2,14,2h36c6.6,0,12,5.399,12,12V50z"/>
<path fill="#E64C18" d="M56.838,4.162C58.197,6.105,59,8.462,59,11v37c0,6.6-4.398,11-11,11H11c-2.537,0-4.894-0.805-6.838-2.162
	C6.336,59.949,9.938,62,14,62h36c6.602,0,12-5.4,12-12V14C62,9.938,59.951,6.336,56.838,4.162z"/>
<path fill-rule="evenodd" clip-rule="evenodd" fill="#F59E01" d="M4.975,12.585c0.339,2.703,4.793-2.587,9.303-7.136
	C17.188,2.524,3.957,4.45,4.975,12.585z"/>
<path fill="#FFFFFF" d="M38.816,12H25.253c-2.499,0-4.523,1.99-4.523,4.444v31.112c0,2.453,2.025,4.443,4.523,4.443h13.563
	c2.498,0,4.522-1.99,4.522-4.443V16.444C43.339,13.99,41.314,12,38.816,12z M29.822,13.622h4.425c0.312,0,0.565,0.249,0.565,0.556
	s-0.254,0.557-0.565,0.557h-4.425c-0.313,0-0.564-0.25-0.564-0.557S29.51,13.622,29.822,13.622z M32.035,49.762
	c-0.75,0-1.357-0.598-1.357-1.332s0.607-1.332,1.357-1.332s1.357,0.598,1.357,1.332S32.785,49.762,32.035,49.762z M41.078,44.889
	H22.992V16.444h18.086V44.889z"/>
<path fill="#FFFFFF" d="M18.611,19.127c-7.227,8.307-4.998,20.609,0.119,25.77c0.337,0.34,0.7-0.164,0.455-0.578
	c-3.982-6.658-4.519-17.354,0.016-24.727C19.443,19.198,18.923,18.768,18.611,19.127z"/>
<path fill="#FFFFFF" d="M13.232,41.822c-3.252-5.438-3.688-14.17,0.013-20.19c0.199-0.322-0.227-0.672-0.481-0.38
	c-5.9,6.781-4.081,16.828,0.098,21.039C13.137,42.57,13.435,42.158,13.232,41.822z"/>
<path fill="#FFFFFF" d="M45.39,44.873c7.227-8.305,4.998-20.609-0.119-25.769c-0.338-0.341-0.701,0.163-0.455,0.577
	c3.982,6.66,4.519,17.354-0.016,24.727C44.557,44.803,45.077,45.232,45.39,44.873z"/>
<path fill="#FFFFFF" d="M50.768,22.178c3.253,5.438,3.688,14.172-0.013,20.189c-0.199,0.322,0.227,0.674,0.48,0.381
	c5.9-6.781,4.081-16.828-0.098-21.04C50.862,21.431,50.565,21.842,50.768,22.178z"/>
</svg>
