<?xml version="1.0" encoding="utf-8"?>
<!-- Generator: Adobe Illustrator 15.0.0, SVG Export Plug-In . SVG Version: 6.00 Build 0)  -->
<!DOCTYPE svg PUBLIC "-//W3C//DTD SVG 1.1//EN" "http://www.w3.org/Graphics/SVG/1.1/DTD/svg11.dtd">
<svg version="1.1" id="Layer_1" xmlns="http://www.w3.org/2000/svg" xmlns:xlink="http://www.w3.org/1999/xlink" x="0px" y="0px"
	 width="64px" height="64px" viewBox="0 0 64 64" enable-background="new 0 0 64 64" xml:space="preserve">
<path fill="#CFD8DD" d="M4,10v48c0,0,0,4,4,4h4V10H4z"/>
<path fill="#BEC3CF" d="M6,8v50c0,0,0,4,4,4V8H6z"/>
<path fill="#CFD8DD" d="M8,6v52c0,0,0,4,4,4V6H8z"/>
<path fill="#BEC3CF" d="M10,4v54c0,0,0,4,4,4V4H10z"/>
<path fill="#E6EBEF" d="M56,62H8c4,0,4-4,4-4h48C60,58,60,62,56,62z"/>
<rect x="12" y="2" fill="#E6EBEF" width="48" height="56"/>
<path fill="#6E8189" d="M16,15.855V6.158h2.792l2.197,3.555c0.628,1.022,1.257,2.229,1.727,3.323h0.048
	c-0.158-1.28-0.205-2.591-0.205-4.043V6.158h2.197v9.697h-2.51l-2.261-3.74c-0.627-1.037-1.318-2.287-1.835-3.424l-0.048,0.014
	c0.063,1.279,0.094,2.647,0.094,4.23v2.92H16z"/>
<path fill="#6E8189" d="M33.125,11.756h-3.892v2.302h4.347v1.798h-6.747V6.158h6.528v1.799h-4.128v2.014h3.892V11.756z"/>
<path fill="#6E8189" d="M37.035,15.855l-2.508-9.697h2.559l0.801,4.001c0.23,1.151,0.453,2.402,0.621,3.38h0.035
	c0.172-1.051,0.424-2.215,0.688-3.409l0.896-3.972h2.541l0.85,4.088c0.236,1.136,0.408,2.172,0.564,3.252h0.029
	c0.158-1.08,0.391-2.217,0.615-3.368l0.861-3.972h2.43l-2.727,9.697h-2.59l-0.895-4.172c-0.203-0.978-0.377-1.886-0.506-2.992
	h-0.029c-0.188,1.093-0.361,2.015-0.607,2.992l-1.008,4.172H37.035z"/>
<path fill="#6E8189" d="M49.221,13.597c0.645,0.304,1.631,0.605,2.654,0.605c1.098,0,1.676-0.419,1.676-1.052
	c0-0.603-0.5-0.948-1.771-1.365c-1.758-0.563-2.902-1.454-2.902-2.864C48.877,7.266,50.381,6,52.879,6
	c1.191,0,2.07,0.23,2.695,0.489l-0.531,1.771c-0.424-0.188-1.176-0.462-2.211-0.462s-1.539,0.433-1.539,0.936
	c0,0.619,0.594,0.891,1.961,1.367C55.121,10.735,56,11.626,56,12.993C56,14.619,54.635,16,51.73,16
	c-1.207,0-2.398-0.288-2.996-0.591L49.221,13.597z"/>
<rect x="16" y="18" fill="#6E8189" width="40" height="4"/>
<rect x="38" y="26" fill="#0FB4D4" width="18" height="20"/>
<rect x="16" y="26" fill="#6E8189" width="18" height="4"/>
<rect x="16" y="34" fill="#6E8189" width="18" height="4"/>
<rect x="16" y="42" fill="#6E8189" width="18" height="4"/>
<rect x="16" y="50" fill="#6E8189" width="40" height="4"/>
</svg>
