<?xml version="1.0" encoding="utf-8"?>
<!-- Generator: Adobe Illustrator 15.0.0, SVG Export Plug-In . SVG Version: 6.00 Build 0)  -->
<!DOCTYPE svg PUBLIC "-//W3C//DTD SVG 1.1//EN" "http://www.w3.org/Graphics/SVG/1.1/DTD/svg11.dtd">
<svg version="1.1" id="Layer_1" xmlns="http://www.w3.org/2000/svg" xmlns:xlink="http://www.w3.org/1999/xlink" x="0px" y="0px"
	 width="64px" height="64px" viewBox="0 0 64 64" enable-background="new 0 0 64 64" xml:space="preserve">
<path fill="#302C3B" d="M22,17H10v-2.221C10,13.797,10.833,13,11.863,13h8.273C21.166,13,22,13.797,22,14.779V17z"/>
<path fill="#302C3B" d="M59,17.779h-6.727v-1c0-0.982,0.832-1.779,1.863-1.779h3C58.166,15,59,15.797,59,16.779V17.779z"/>
<path fill="#1A1626" d="M62,50.904c0,2.934-2.283,5.311-5.1,5.311H7.1c-2.816,0-5.1-2.377-5.1-5.311v-1.594h60V50.904z"/>
<path fill="#4E5E67" d="M2,21.424c0-2.933,2.283-5.312,5.1-5.312H56.9c2.816,0,5.1,2.378,5.1,5.312v1.594H2V21.424z"/>
<rect x="2" y="22.751" fill="#302C3B" width="60" height="27.62"/>
<path fill="#4E5E67" d="M53.205,18h-30c0,0,2.089-7.941,3.01-10.517c1.66-4.639,22.319-4.651,23.98,0
	C51.116,10.059,53.205,18,53.205,18z"/>
<path fill="#302C3B" d="M52.205,29h-28c0,0,1.938-10.365,2.809-13.774c1.44-5.639,20.941-5.63,22.382,0
	C50.271,18.635,52.205,29,52.205,29z"/>
<path fill="#6E8189" d="M58.83,38.518C58.83,50.387,49.595,60,38.207,60C26.816,60,17.58,50.387,17.58,38.518
	c0-11.864,9.236-21.484,20.627-21.484C49.595,17.034,58.83,26.654,58.83,38.518z"/>
<path fill="#1A1626" d="M56.538,38.514c0,10.553-8.209,19.098-18.331,19.098c-10.125,0-18.336-8.545-18.336-19.098
	c0-10.543,8.211-19.096,18.336-19.096C48.329,19.417,56.538,27.97,56.538,38.514z"/>
<ellipse fill="#302C3B" cx="38.207" cy="38.514" rx="14.896" ry="15.518"/>
<ellipse fill="#1A1626" cx="38.208" cy="38.516" rx="8.021" ry="8.355"/>
<path opacity="0.5" fill="#E6EBEF" d="M49.164,31.895c0,2.652-2.065,4.806-4.614,4.806s-4.614-2.154-4.614-4.806
	c0-2.651,2.065-4.807,4.614-4.807S49.164,29.244,49.164,31.895z"/>
<ellipse opacity="0.5" fill="#E6EBEF" cx="35.341" cy="41.5" rx="2.864" ry="2.984"/>
<path opacity="0.5" fill="#E6EBEF" d="M31.96,46.871c0,1.02-0.795,1.848-1.772,1.848c-0.981,0-1.774-0.828-1.774-1.848
	c0-1.018,0.793-1.846,1.774-1.846C31.165,45.025,31.96,45.854,31.96,46.871z"/>
<path fill="#4E5E67" d="M16.063,46.033c0,1.174-0.914,2.125-2.04,2.125H5.354c-1.126,0-2.04-0.951-2.04-2.125V27.09
	c0-1.174,0.914-2.125,2.04-2.125h8.668c1.126,0,2.04,0.951,2.04,2.125V46.033z"/>
<path fill="#6E8189" d="M8,18v2l0,0c0.001,2.666,7.999,2.666,8,0l0,0v-2H8z"/>
<path fill="#BEC3CF" d="M16,18c0,2.667-8,2.667-8,0C8,15.333,16,15.333,16,18z"/>
</svg>
