<?xml version="1.0" encoding="utf-8"?>
<!-- Generator: Adobe Illustrator 15.0.0, SVG Export Plug-In . SVG Version: 6.00 Build 0)  -->
<!DOCTYPE svg PUBLIC "-//W3C//DTD SVG 1.1//EN" "http://www.w3.org/Graphics/SVG/1.1/DTD/svg11.dtd">
<svg version="1.1" id="Layer_1" xmlns="http://www.w3.org/2000/svg" xmlns:xlink="http://www.w3.org/1999/xlink" x="0px" y="0px"
	 width="64px" height="64px" viewBox="0 0 64 64" enable-background="new 0 0 64 64" xml:space="preserve">
<path fill="#4E5E67" d="M50,58c0,2.2-1.8,4-4,4H18c-2.2,0-4-1.8-4-4V6c0-2.2,1.8-4,4-4h28c2.2,0,4,1.8,4,4V58z"/>
<path fill="#1A1626" d="M49,57c0,2.2-1.8,4-4,4H19c-2.2,0-4-1.8-4-4V7c0-2.2,1.8-4,4-4h26c2.2,0,4,1.8,4,4V57z"/>
<rect x="16" y="10" fill="#302C3B" width="32" height="44"/>
<circle fill="#4E5E67" cx="41" cy="6.999" r="1"/>
<circle fill="#4E5E67" cx="45" cy="6.999" r="1"/>
<path fill="#4E5E67" d="M35,6.999C35,7.277,34.867,7.5,34.701,7.5h-5.402C29.135,7.5,29,7.277,29,6.999l0,0
	C29,6.725,29.135,6.5,29.299,6.5h5.402C34.867,6.5,35,6.725,35,6.999L35,6.999z"/>
<path fill="#4E5E67" d="M36,58.5c0,0.275-0.225,0.5-0.5,0.5h-7c-0.275,0-0.5-0.225-0.5-0.5v-2c0-0.275,0.225-0.5,0.5-0.5h7
	c0.275,0,0.5,0.225,0.5,0.5V58.5z"/>
<rect x="18" y="12" fill="#0FB4D4" width="8" height="8"/>
<rect x="28" y="12" fill="#93E67F" width="8" height="8"/>
<rect x="38" y="12" fill="#C28FEF" width="8" height="8"/>
<rect x="18" y="22" fill="#FFE12C" width="8" height="8"/>
<rect x="28" y="22" fill="#FF435E" width="8" height="8"/>
<rect x="38" y="22" fill="#0FB4D4" width="8" height="8"/>
<rect x="18" y="32" fill="#C28FEF" width="8" height="8"/>
<rect x="28" y="32" fill="#93E67F" width="8" height="8"/>
<rect x="38" y="32" fill="#FFE12C" width="8" height="8"/>
<rect x="18" y="44" fill="#FF435E" width="8" height="8"/>
<rect x="28" y="44" fill="#0FB4D4" width="8" height="8"/>
<rect x="38" y="44" fill="#C28FEF" width="8" height="8"/>
<polygon opacity="0.3" fill="#FFFFFF" points="48,44 22,10 48,10 "/>
</svg>
