<?xml version="1.0" encoding="utf-8"?>
<!-- Generator: Adobe Illustrator 15.0.0, SVG Export Plug-In . SVG Version: 6.00 Build 0)  -->
<!DOCTYPE svg PUBLIC "-//W3C//DTD SVG 1.1//EN" "http://www.w3.org/Graphics/SVG/1.1/DTD/svg11.dtd">
<svg version="1.1" id="Layer_1" xmlns="http://www.w3.org/2000/svg" xmlns:xlink="http://www.w3.org/1999/xlink" x="0px" y="0px"
	 width="64px" height="64px" viewBox="0 0 64 64" enable-background="new 0 0 64 64" xml:space="preserve">
<rect x="45.507" y="0.557" transform="matrix(0.3416 0.9398 -0.9398 0.3416 40.587 -36.3983)" fill="#99A8AE" width="1.532" height="20.427"/>
<circle fill="#CFD8DD" cx="55.871" cy="7.277" r="1.276"/>
<rect x="23.298" y="4.59" transform="matrix(0.3423 0.9396 -0.9396 0.3423 33.6232 -10.5112)" fill="#CFD8DD" width="2.043" height="28.342"/>
<circle fill="#99A8AE" cx="10.043" cy="23.957" r="2.043"/>
<circle fill="#CFD8DD" cx="10.043" cy="23.957" r="1.021"/>
<path fill="#92C932" d="M62,54c0,1.988-2.012,4-4,4H6c-1.988,0-4-2.012-4-4V28c0-1.988,2.012-4,4-4h52c1.988,0,4,2.012,4,4V54z"/>
<path fill="#E6EBEF" d="M60,47c0,3.309-2.688,6-6,6s-6-2.691-6-6c0-3.313,2.688-6,6-6S60,43.688,60,47z"/>
<circle fill="#6E8189" cx="54" cy="47" r="4"/>
<path fill="#E6EBEF" d="M46,47c0,3.309-2.688,6-6,6s-6-2.691-6-6c0-3.313,2.688-6,6-6S46,43.688,46,47z"/>
<circle fill="#6E8189" cx="40" cy="47" r="4"/>
<rect x="2" y="52" fill="#014F27" width="30" height="2"/>
<rect x="2" y="48" fill="#014F27" width="30" height="2"/>
<rect x="2" y="44" fill="#014F27" width="30" height="2"/>
<rect x="2" y="40" fill="#014F27" width="30" height="2"/>
<rect x="2" y="36" fill="#014F27" width="30" height="2"/>
<rect x="2" y="32" fill="#014F27" width="30" height="2"/>
<rect x="2" y="28" fill="#014F27" width="30" height="2"/>
<rect x="10" y="58" fill="#302C3B" width="8" height="4"/>
<rect x="46" y="58" fill="#302C3B" width="8" height="4"/>
<rect x="34" y="32" fill="#FFFFFF" width="26" height="6"/>
<rect x="34" y="32" fill="#E6EBEF" width="26" height="2"/>
<polygon fill="#E81C27" points="53,38 51,38 52,32 "/>
</svg>
