<?xml version="1.0" encoding="utf-8"?>
<!-- Generator: Adobe Illustrator 15.0.0, SVG Export Plug-In . SVG Version: 6.00 Build 0)  -->
<!DOCTYPE svg PUBLIC "-//W3C//DTD SVG 1.1//EN" "http://www.w3.org/Graphics/SVG/1.1/DTD/svg11.dtd">
<svg version="1.1" id="Layer_1" xmlns="http://www.w3.org/2000/svg" xmlns:xlink="http://www.w3.org/1999/xlink" x="0px" y="0px"
	 width="64px" height="64px" viewBox="0 0 64 64" enable-background="new 0 0 64 64" xml:space="preserve">
<path fill="#4E5E67" d="M12,57c0,0.551,0.477,1,1.053,1h33.896C47.531,58,48,57.551,48,57V39c0-0.551-0.469-1-1.051-1H13.053
	C12.477,38,12,38.449,12,39V57z"/>
<rect x="48" y="42" fill="#302C3B" width="4" height="9"/>
<rect x="48" y="42" fill="#4E5E67" width="4" height="1"/>
<rect x="60" y="38" fill="#4E5E67" width="2" height="17"/>
<polygon fill="#302C3B" points="52,51 60,55 60,38 52,42 "/>
<rect x="14" y="40" fill="#302C3B" width="32" height="16"/>
<rect x="30" y="52" fill="#4E5E67" width="14" height="2"/>
<rect x="30" y="52" fill="#99A8AE" width="14" height="1"/>
<rect x="16" y="52" fill="#4E5E67" width="2" height="2"/>
<rect x="17" y="44" fill="#6E8189" width="13" height="4"/>
<polygon fill="#4E5E67" points="52,42 52,43 60,41 60,38 "/>
<rect x="48" y="51" fill="#99A8AE" width="2" height="2"/>
<rect x="48" y="54" fill="#BEC3CF" width="4" height="2"/>
<rect x="48" y="54" fill="#99A8AE" width="4" height="1"/>
<rect x="48" y="39" fill="#302C3B" width="1" height="2"/>
<path fill="#BEC3CF" d="M36,45c0,4,6,4,6,0S36,41,36,45z"/>
<rect x="16" y="52" fill="#99A8AE" width="2" height="1"/>
<rect x="60" y="38" fill="#6E8189" width="2" height="3"/>
<rect x="51" y="41" fill="#4E5E67" width="1" height="14"/>
<rect x="20" y="58" fill="#302C3B" width="16" height="4"/>
<circle fill="#302C3B" cx="16" cy="24" r="14"/>
<circle fill="#E6EBEF" cx="16" cy="24" r="11"/>
<circle fill="#302C3B" cx="44" cy="20" r="18"/>
<path fill="#E6EBEF" d="M58,20c0,7.729-6.271,14-14,14c-7.73,0-14-6.271-14-14S36.27,6,44,6C51.729,6,58,12.271,58,20z"/>
<rect x="42.5" y="4" fill="#302C3B" width="3" height="32"/>
<rect x="28" y="18.5" fill="#302C3B" width="32" height="3"/>
<rect x="42.499" y="4" transform="matrix(0.7071 0.7071 -0.7071 0.7071 27.0292 -25.2541)" fill="#302C3B" width="3" height="31.999"/>
<rect x="42.499" y="4" transform="matrix(-0.7071 0.7071 -0.7071 -0.7071 89.2532 3.0301)" fill="#302C3B" width="3" height="31.999"/>
<rect x="14.5" y="11" fill="#302C3B" width="3" height="26"/>
<rect x="3" y="22.5" fill="#302C3B" width="26" height="3"/>
<rect x="14.5" y="11.536" transform="matrix(0.7071 0.7071 -0.7071 0.7071 21.6569 -4.2843)" fill="#302C3B" width="3" height="24.928"/>
<rect x="14.5" y="11.536" transform="matrix(-0.7071 0.7071 -0.7071 -0.7071 44.2843 29.6569)" fill="#302C3B" width="3" height="24.928"/>
<circle fill="#302C3B" cx="44" cy="20" r="6"/>
<circle fill="#302C3B" cx="16" cy="24" r="6"/>
<circle fill="#4E5E67" cx="16" cy="24" r="5"/>
<circle fill="#4E5E67" cx="44" cy="20" r="5"/>
<rect x="16" y="32" fill="#4E5E67" width="28" height="6"/>
<rect x="17" y="33" fill="#302C3B" width="26" height="5"/>
<polygon fill="#99A8AE" points="20,32 24,32 18,24 14,24 "/>
<polygon fill="#99A8AE" points="34,32 38,32 46,20 42,20 "/>
<path fill="#BEC3CF" d="M14,24c0,2.666,4,2.666,4,0C18,21.333,14,21.333,14,24z"/>
<path fill="#BEC3CF" d="M42,20c0,2.666,4,2.666,4,0C46,17.333,42,17.333,42,20z"/>
<rect x="27" y="34" fill="#4E5E67" width="14" height="2"/>
<rect x="27" y="34" fill="#99A8AE" width="14" height="1"/>
</svg>
