<?xml version="1.0" encoding="utf-8"?>
<!-- Generator: Adobe Illustrator 15.0.0, SVG Export Plug-In . SVG Version: 6.00 Build 0)  -->
<!DOCTYPE svg PUBLIC "-//W3C//DTD SVG 1.1//EN" "http://www.w3.org/Graphics/SVG/1.1/DTD/svg11.dtd">
<svg version="1.1" id="Layer_1" xmlns="http://www.w3.org/2000/svg" xmlns:xlink="http://www.w3.org/1999/xlink" x="0px" y="0px"
	 width="64px" height="64px" viewBox="0 0 64 64" enable-background="new 0 0 64 64" xml:space="preserve">
<rect x="36.576" y="1.163" transform="matrix(-0.7076 -0.7066 0.7066 -0.7076 57.8444 40.6924)" fill="#99A8AE" width="1.532" height="14.429"/>
<circle fill="#CFD8DD" cx="42.442" cy="3.278" r="1.276"/>
<rect x="25.892" y="1.163" transform="matrix(0.7076 -0.7066 0.7066 0.7076 1.8754 21.2872)" fill="#99A8AE" width="1.532" height="14.429"/>
<circle fill="#CFD8DD" cx="21.558" cy="3.278" r="1.276"/>
<circle fill="#6E8189" cx="32.001" cy="13.72" r="2.043"/>
<circle fill="#99A8AE" cx="32" cy="13.72" r="1.021"/>
<polygon fill="#785647" points="12,62 8,62 12,50 18,50 "/>
<polygon fill="#B47D56" points="10,62 8,62 10,50 14,50 "/>
<polygon fill="#785647" points="52,62 56,62 54,50 48,50 "/>
<polygon fill="#B47D56" points="52,62 54,62 50,50 46,50 "/>
<path fill="#302C3B" d="M60,47c0,1.649-1.351,3-3,3H7c-1.649,0-3-1.351-3-3V17c0-1.65,1.351-3,3-3h50c1.649,0,3,1.35,3,3V47z"/>
<path fill="#0FB4D4" d="M48,39c0,3.85-3.149,7-7,7H15c-3.851,0-7-3.15-7-7V25h40V39z"/>
<path fill="#75D6FF" d="M48,37.5c0,3.575-3.149,6.5-7,6.5H15c-3.851,0-7-2.925-7-6.5v-13c0-3.575,3.149-6.5,7-6.5h26
	c3.851,0,7,2.925,7,6.5V37.5z"/>
<path opacity="0.5" fill="#FFFFFF" d="M10,36.496V25.499C10,22.474,12.664,20,15.922,20h21.995L10,36.496z"/>
<circle fill="#BEC3CF" cx="54" cy="24" r="4"/>
<circle fill="#E6EBEF" cx="54" cy="24" r="3"/>
<circle fill="#E6EBEF" cx="54" cy="32" r="2"/>
<circle fill="#E6EBEF" cx="54" cy="38" r="2"/>
</svg>
