<?xml version="1.0" encoding="utf-8"?>
<!-- Generator: Adobe Illustrator 15.0.0, SVG Export Plug-In . SVG Version: 6.00 Build 0)  -->
<!DOCTYPE svg PUBLIC "-//W3C//DTD SVG 1.1//EN" "http://www.w3.org/Graphics/SVG/1.1/DTD/svg11.dtd">
<svg version="1.1" id="Layer_1" xmlns="http://www.w3.org/2000/svg" xmlns:xlink="http://www.w3.org/1999/xlink" x="0px" y="0px"
	 width="64px" height="64px" viewBox="0 0 64 64" enable-background="new 0 0 64 64" xml:space="preserve">
<path fill="#302C3B" d="M23,23.3H12.199v-1.999c0-0.884,0.75-1.601,1.678-1.601h7.445C22.25,19.7,23,20.417,23,21.301V23.3z"/>
<path fill="#302C3B" d="M56.301,24h-6.055v-0.899c0-0.885,0.748-1.602,1.678-1.602h2.699c0.926,0,1.678,0.717,1.678,1.602V24z"/>
<path fill="#1A1626" d="M59,53.813c0,2.641-2.055,4.779-4.59,4.779H9.59c-2.535,0-4.59-2.139-4.59-4.779v-1.434h54V53.813z"/>
<path fill="#4E5E67" d="M5,27.282c0-2.641,2.055-4.781,4.59-4.781h44.82c2.535,0,4.59,2.14,4.59,4.781v1.434H5V27.282z"/>
<rect x="5" y="28.476" fill="#302C3B" width="54" height="24.858"/>
<path fill="#4E5E67" d="M51.084,23.2h-27c0,0,1.881-7.147,2.709-9.465c1.494-4.175,20.088-4.186,21.582,0
	C49.204,16.053,51.084,23.2,51.084,23.2z"/>
<path fill="#302C3B" d="M52.585,37.1h-30c0,0,2.077-9.328,3.008-12.396c1.546-5.076,22.438-5.067,23.98,0
	C50.513,27.772,52.585,37.1,52.585,37.1z"/>
<path fill="#6E8189" d="M56.146,42.666C56.146,53.348,47.835,62,37.586,62c-10.252,0-18.564-8.652-18.564-19.334
	c0-10.678,8.313-19.335,18.564-19.335C47.835,23.331,56.146,31.988,56.146,42.666z"/>
<path fill="#1A1626" d="M54.085,42.662c0,9.496-7.389,17.188-16.499,17.188c-9.111,0-16.502-7.691-16.502-17.188
	c0-9.489,7.391-17.187,16.502-17.187C46.696,25.475,54.085,33.173,54.085,42.662z"/>
<ellipse fill="#302C3B" cx="37.587" cy="42.662" rx="13.406" ry="13.965"/>
<ellipse fill="#1A1626" cx="37.588" cy="42.664" rx="7.219" ry="7.52"/>
<ellipse opacity="0.5" fill="#E6EBEF" cx="43.295" cy="36.705" rx="4.152" ry="4.326"/>
<ellipse opacity="0.5" fill="#E6EBEF" cx="35.007" cy="45.35" rx="2.577" ry="2.686"/>
<ellipse opacity="0.5" fill="#E6EBEF" cx="30.368" cy="50.184" rx="1.596" ry="1.662"/>
<path fill="#4E5E67" d="M17.656,49.43c0,1.057-0.822,1.912-1.836,1.912H8.019c-1.013,0-1.835-0.855-1.835-1.912V32.381
	c0-1.057,0.822-1.912,1.835-1.912h7.802c1.014,0,1.836,0.855,1.836,1.912V49.43z"/>
<path fill="#6E8189" d="M10.4,24.201V26l0,0c0.001,2.399,7.198,2.399,7.199,0l0,0v-1.8H10.4z"/>
<path fill="#BEC3CF" d="M17.6,24.2c0,2.4-7.199,2.4-7.199,0C10.4,21.8,17.6,21.8,17.6,24.2z"/>
<path fill="#FFFFFF" d="M45.599,17.334c0,0.903-0.755,1.633-1.687,1.633H31.257c-0.934,0-1.688-0.73-1.688-1.633v-1.679
	c0-0.903,0.754-1.633,1.688-1.633h12.655c0.932,0,1.687,0.73,1.687,1.633V17.334z"/>
<path fill="#F9C802" d="M35.445,7.064c0,4.17,2,8.936,2,8.936s2-4.766,2-8.936C39.445,0.312,35.445,0.312,35.445,7.064z"/>
<path fill="#F9C802" d="M25.246,9.756c2.084,3.611,6.199,6.738,6.199,6.738s-0.65-5.127-2.734-8.738
	C25.334,1.908,21.869,3.908,25.246,9.756z"/>
<path fill="#F9C802" d="M46.181,7.756c-2.085,3.61-2.735,8.738-2.735,8.738s4.114-3.126,6.2-6.737
	C53.021,3.909,49.557,1.908,46.181,7.756z"/>
<path fill="#F9C802" d="M21.151,19.861c4.17,0.001,8.936-1.999,8.936-1.999s-4.766-2-8.936-2.001
	C14.397,15.862,14.397,19.862,21.151,19.861z"/>
<path fill="#F9C802" d="M53.741,15.862c-4.17-0.001-8.936,2-8.936,2s4.764,2,8.934,2C60.493,19.862,60.493,15.861,53.741,15.862z"/>
</svg>
