<?xml version="1.0" encoding="utf-8"?>
<!-- Generator: Adobe Illustrator 15.0.0, SVG Export Plug-In . SVG Version: 6.00 Build 0)  -->
<!DOCTYPE svg PUBLIC "-//W3C//DTD SVG 1.1//EN" "http://www.w3.org/Graphics/SVG/1.1/DTD/svg11.dtd">
<svg version="1.1" id="Layer_1" xmlns="http://www.w3.org/2000/svg" xmlns:xlink="http://www.w3.org/1999/xlink" x="0px" y="0px"
	 width="64px" height="64px" viewBox="0 0 64 64" enable-background="new 0 0 64 64" xml:space="preserve">
<path fill="#006DAE" d="M62,50c0,6.6-5.4,12-12,12H14C7.4,62,2,56.6,2,50V14C2,7.399,7.4,2,14,2h36c6.6,0,12,5.399,12,12V50z"/>
<path fill="#014D87" d="M56.838,4.162C58.197,6.105,59,8.462,59,11v37c0,6.6-4.398,11-11,11H11c-2.537,0-4.895-0.805-6.838-2.162
	C6.336,59.949,9.938,62,14,62h36c6.602,0,12-5.4,12-12V14C62,9.938,59.951,6.336,56.838,4.162z"/>
<path fill-rule="evenodd" clip-rule="evenodd" fill="#0FB4D4" d="M4.975,12.585c0.338,2.703,4.793-2.587,9.303-7.136
	C17.188,2.524,3.957,4.45,4.975,12.585z"/>
<circle fill="#FFFFFF" cx="20" cy="44" r="10"/>
<path fill="#FFFFFF" d="M52,20l-10-8v4H24c-4.824,0-12,3.955-12,14.227c0,0.773,0.057,1.494,0.136,2.191
	c2.224-1.512,4.904-2.399,7.792-2.414l0.084-0.072C20.129,24.518,23.344,24,24,24h18v4L52,20z"/>
<path fill="#006DAE" d="M22.5,51.5h-3.272V40.707c-1.198,0.979-2.605,1.707-4.228,2.176v-2.604c0.854-0.246,1.781-0.705,2.782-1.393
	c1.003-0.676,1.689-1.477,2.063-2.387H22.5V51.5z"/>
<path fill="#FFFFFF" d="M51.068,28l-7.08,6.068C43.871,39.482,40.656,40,40,40h-6.587C33.79,41.268,34,42.609,34,44
	s-0.21,2.732-0.587,4H40c4.824,0,12-3.955,12-14.227C52,31.545,51.648,29.642,51.068,28z"/>
</svg>
