<?xml version="1.0" encoding="utf-8"?>
<!-- Generator: Adobe Illustrator 15.0.0, SVG Export Plug-In . SVG Version: 6.00 Build 0)  -->
<!DOCTYPE svg PUBLIC "-//W3C//DTD SVG 1.1//EN" "http://www.w3.org/Graphics/SVG/1.1/DTD/svg11.dtd">
<svg version="1.1" id="Layer_1" xmlns="http://www.w3.org/2000/svg" xmlns:xlink="http://www.w3.org/1999/xlink" x="0px" y="0px"
	 width="64px" height="64px" viewBox="0 0 64 64" enable-background="new 0 0 64 64" xml:space="preserve">
<path fill="#CFD8DD" d="M52,41.387H12l0.002,17.341C12,63.09,52,63.092,51.998,58.729L52,41.387z"/>
<path fill="#7AB51D" d="M52,52.675c-0.002,4.362-39.998,4.362-40,0V13.41l40-0.001V52.675z"/>
<path fill="#CFD8DD" d="M51.998,8.339H12v5.89c0,4.363,40,4.362,39.998,0V8.339z"/>
<path fill="#E6EBEF" d="M16.002,54.732v4.089c2.107,0.445,4.895,0.768,7.998,0.971l0.002-4.092
	C20.9,55.501,18.111,55.177,16.002,54.732z"/>
<path fill="#E6EBEF" d="M16.002,12.19v4.089c2.107,0.445,4.895,0.768,7.998,0.971l0.002-4.092
	C20.9,12.959,18.111,12.635,16.002,12.19z"/>
<path fill="#A6E639" d="M16.002,16.287c2.107,0.445,4.895,0.767,8,0.969V55.7c-3.102-0.199-5.891-0.523-8-0.968V16.287z"/>
<path fill="#BEC3CF" d="M51.998,8.339C52,3.975,12,3.976,12,8.339S52,12.702,51.998,8.339z"/>
<path fill="#BEC3CF" d="M46.998,10.008v5.89c0,0.224-0.106,0.437-0.308,0.638c2.519-0.536,5.308-0.438,5.308-1.62V8.339
	L46.998,10.008z"/>
<path fill="#99A8AE" d="M51.132,7.613c0.002-3.396-38.266-3.396-38.266,0C12.866,11.009,51.134,11.009,51.132,7.613z"/>
<path fill="#CFD8DD" d="M39.998,3.431H23.999V7.75c0,1.745,16.001,1.745,15.999,0V3.431z"/>
<path fill="#E6EBEF" d="M25.6,4.254v4.319c0.844,0.179,1.958,0.307,3.201,0.388v-4.32C27.558,4.561,26.443,4.433,25.6,4.254z"/>
<path fill="#BEC3CF" d="M35.232,3.431v5.528c2.672-0.175,4.766-0.578,4.766-1.209V3.431H35.232z"/>
<path fill="#BEC3CF" d="M39.998,3.431c0.002-1.745-15.999-1.745-15.999,0S40,5.176,39.998,3.431z"/>
<path fill="#99A8AE" d="M39.299,3.063c0.002-1.418-14.599-1.418-14.599,0C24.7,4.48,39.301,4.48,39.299,3.063z"/>
<path fill="#FFFFFF" d="M34,35.496c0,0.588-0.514,1.066-1.143,1.066h-1.715c-0.629,0-1.143-0.479-1.143-1.066V21.629
	c0-0.586,0.514-1.066,1.143-1.066h1.715c0.629,0,1.143,0.48,1.143,1.066V35.496z"/>
<path fill="#FFFFFF" d="M25.066,30.563c-0.587,0-1.066-0.514-1.066-1.143v-1.715c0-0.628,0.479-1.143,1.066-1.143h13.867
	c0.588,0,1.066,0.515,1.066,1.143v1.715c0,0.629-0.479,1.143-1.066,1.143H25.066z"/>
<path fill="#FFFFFF" d="M25.066,52.563c-0.587,0-1.066-0.516-1.066-1.143v-1.715c0-0.629,0.479-1.143,1.066-1.143h13.867
	c0.588,0,1.066,0.514,1.066,1.143v1.715c0,0.627-0.479,1.143-1.066,1.143H25.066z"/>
<path fill="#BEC3CF" d="M46.998,41.387l-0.002,16.361c0.002,3.18-21.256,4.04-32.775,2.583c8.398,2.67,37.777,2.137,37.775-1.602
	l0.002-17.343H46.998z"/>
<path fill="#529320" d="M51.996,14.229c0,0.965-1.959,1.717-5.01,2.255l0.01,38.444c3.036-0.536,4.988-1.284,5-2.245
	c0-0.002,0.002-0.006,0.002-0.008L51.996,14.229z"/>
</svg>
