<?xml version="1.0" encoding="utf-8"?>
<!-- Generator: Adobe Illustrator 15.0.0, SVG Export Plug-In . SVG Version: 6.00 Build 0)  -->
<!DOCTYPE svg PUBLIC "-//W3C//DTD SVG 1.1//EN" "http://www.w3.org/Graphics/SVG/1.1/DTD/svg11.dtd">
<svg version="1.1" id="Layer_1" xmlns="http://www.w3.org/2000/svg" xmlns:xlink="http://www.w3.org/1999/xlink" x="0px" y="0px"
	 width="64px" height="64px" viewBox="0 0 64 64" enable-background="new 0 0 64 64" xml:space="preserve">
<path fill="#006DAE" d="M62,50c0,6.6-5.4,12-12,12H14C7.4,62,2,56.6,2,50V14C2,7.399,7.4,2,14,2h36c6.6,0,12,5.399,12,12V50z"/>
<path fill="#014D87" d="M56.838,4.162C58.197,6.105,59,8.462,59,11v37c0,6.6-4.398,11-11,11H11c-2.537,0-4.895-0.805-6.838-2.162
	C6.336,59.949,9.938,62,14,62h36c6.602,0,12-5.4,12-12V14C62,9.938,59.951,6.336,56.838,4.162z"/>
<path fill-rule="evenodd" clip-rule="evenodd" fill="#0FB4D4" d="M4.975,12.585c0.338,2.703,4.793-2.587,9.303-7.136
	C17.188,2.524,3.957,4.45,4.975,12.585z"/>
<path fill="#FFFFFF" d="M42,24.227H24c-0.656,0-3.871,0.291-3.988,5.705L12.932,36C12.354,34.359,12,32.455,12,30.227
	c0-10.271,7.176-14,12-14h18v-4l10,8l-10,8V24.227z"/>
<path fill="#FFFFFF" d="M22,39.773h18c0.656,0,3.871-0.291,3.989-5.705L51.068,28C51.647,29.642,52,31.545,52,33.773
	c0,10.271-7.177,14-12,14H22v4l-10-8l10-8V39.773z"/>
</svg>
