<?xml version="1.0" encoding="utf-8"?>
<!-- Generator: Adobe Illustrator 15.0.0, SVG Export Plug-In . SVG Version: 6.00 Build 0)  -->
<!DOCTYPE svg PUBLIC "-//W3C//DTD SVG 1.1//EN" "http://www.w3.org/Graphics/SVG/1.1/DTD/svg11.dtd">
<svg version="1.1" id="Layer_1" xmlns="http://www.w3.org/2000/svg" xmlns:xlink="http://www.w3.org/1999/xlink" x="0px" y="0px"
	 width="64px" height="64px" viewBox="0 0 64 64" enable-background="new 0 0 64 64" xml:space="preserve">
<path fill="#BEC3CF" d="M5.676,39.674c-4.901,0-4.901-15.348,0.001-15.348l0.402-0.002v15.352L5.676,39.674z"/>
<path fill="#99A8AE" d="M5.676,39.674c-1.889,0-3.047-2.275-3.479-5.076c0,0,0.5,1.541,3.479,1.541l0.403,0.002v3.535L5.676,39.674z
	"/>
<path fill="#E6EBEF" d="M2.135,32c0,0,0.152-6.141,2.484-6.141h0.619c-0.185,0.811-0.316,1.881-0.396,3.07h-0.77
	C2.423,28.945,2.135,32,2.135,32z"/>
<path fill="#4E5E67" d="M6.077,39.674c-3.433,0.004-3.431-15.348,0.002-15.35l6.501,0.002v15.348H6.077z"/>
<path fill="#BEC3CF" d="M9.295,39.676c-3.431-0.002-3.43-15.35,0.002-15.352h3.283v15.35L9.295,39.676z"/>
<path fill="#6E8189" d="M4.461,25.859h3.216c-0.35,0.811-0.604,1.881-0.761,3.07H3.697C3.855,27.74,4.108,26.67,4.461,25.859z"/>
<path fill="#E6EBEF" d="M12.58,25.859v3.07H6.916c0.155-1.189,0.41-2.261,0.76-3.07H12.58z"/>
<path fill="#BEC3CF" d="M12.58,39.674c-4.207-1.178-4.207-14.168,0-15.348c4.644-1.301,14.588-16.493,14.588-16.493v48.334
	C27.168,56.167,17.224,40.977,12.58,39.674z"/>
<path fill="#99A8AE" d="M7.09,36.141l5.49-0.002v3.535l-3.285,0.002C8.229,39.676,7.494,38.188,7.09,36.141z"/>
<path fill="#99A8AE" d="M12.58,39.674c-2.457-0.688-3.476-5.4-3.064-9.441c0.295,2.879,1.314,5.418,3.064,5.906
	c4.644,1.303,14.588,16.493,14.588,16.493v3.535C27.168,56.167,17.224,40.977,12.58,39.674z"/>
<path fill="#E6EBEF" d="M9.854,28.932c-0.803,0,0.161-3.07,0.966-3.07c7.116,0,16.351-15.971,16.351-15.971l0.031,4.814
	C27.199,14.705,19.703,28.932,9.854,28.932z"/>
<path fill="#CFD8DD" d="M29.43,57c11.427,0,11.427-50,0-50C16.856,7,16.856,57,29.43,57z"/>
<path fill="#4E5E67" d="M30.004,54.5c9.014,0,9.014-45,0-45c-3.387,0-5.645,4.998-6.773,11.665
	c2.683,6.67,3.756,15.472,0.297,23.265C24.734,50.281,26.893,54.5,30.004,54.5z"/>
<path fill="#302C3B" d="M23.879,18.025c-0.092,1.177-0.119,2.359-0.082,3.541c4.394,0.678,6.366,8.285,5.355,15.636
	c1.845,2.218,4.166,3.942,6.959,4.922c-0.965,7.017-3,12.376-6.11,12.376c-3.531,0-5.835-5.438-6.911-12.529
	c3.593-4.533,4.084-14.951,0.005-19.951C23.308,20.613,23.571,19.271,23.879,18.025z"/>
<path fill="#E6EBEF" d="M23.068,22.018c5.881,0.375,5.879,19.578,0,19.951C22.031,36.173,22.047,27.307,23.068,22.018z"/>
<path fill="#BEC3CF" d="M22.554,37.939c4.251-0.424,4.379-13.916,0.374-15.104c0.045-0.277,0.092-0.557,0.141-0.818
	c5.881,0.375,5.879,19.576,0,19.95C22.85,40.743,22.678,39.378,22.554,37.939z"/>
</svg>
