<?xml version="1.0" encoding="utf-8"?>
<!-- Generator: Adobe Illustrator 15.0.0, SVG Export Plug-In . SVG Version: 6.00 Build 0)  -->
<!DOCTYPE svg PUBLIC "-//W3C//DTD SVG 1.1//EN" "http://www.w3.org/Graphics/SVG/1.1/DTD/svg11.dtd">
<svg version="1.1" id="Layer_1" xmlns="http://www.w3.org/2000/svg" xmlns:xlink="http://www.w3.org/1999/xlink" x="0px" y="0px"
	 width="64px" height="64px" viewBox="0 0 64 64" enable-background="new 0 0 64 64" xml:space="preserve">
<g>
	<g>
		
			<rect x="39.67" y="40.294" transform="matrix(0.7072 -0.707 0.707 0.7072 -17.5435 42.3466)" fill="#B0BDC6" width="5.369" height="4.12"/>
	</g>
	<g>
		
			<rect x="40.957" y="40.295" transform="matrix(0.7069 -0.7073 0.7073 0.7069 -17.5432 42.3698)" fill="#DFE9EF" width="2.796" height="4.118"/>
	</g>
	<g>
		
			<rect x="38.817" y="40.647" transform="matrix(0.707 -0.7072 0.7072 0.707 -17.1896 41.5082)" fill="#B0BDC6" width="5.369" height="1.706"/>
	</g>
	<g>
		<path fill="#DFE9EF" d="M41.535,8.783c-9.043-9.045-23.707-9.044-32.752,0c-9.045,9.044-9.043,23.708,0,32.752
			c9.047,9.044,23.707,9.046,32.752,0C50.579,32.492,50.579,17.828,41.535,8.783z M39.378,39.378
			c-7.853,7.855-20.585,7.854-28.438,0c-7.852-7.853-7.854-20.584,0-28.438c7.852-7.852,20.588-7.853,28.438,0
			C47.23,18.792,47.229,31.526,39.378,39.378z"/>
	</g>
	<g>
		<path fill="#B0BDC6" d="M39.897,10.42c-8.138-8.139-21.337-8.138-29.478,0c-8.139,8.14-8.139,21.338,0,29.478
			c8.141,8.14,21.34,8.139,29.478,0C48.036,31.759,48.038,18.56,39.897,10.42z M38.806,38.806c-7.536,7.539-19.755,7.537-27.292,0
			c-7.537-7.537-7.539-19.756,0-27.293c7.535-7.536,19.758-7.537,27.292,0C46.343,19.048,46.342,31.27,38.806,38.806z"/>
	</g>
	<g opacity="0.3">
		<path fill="#A6AEB0" d="M36.065,29.778c-6.517,6.518-17.079,6.518-23.595,0.003c-1.723-1.725-2.977-3.737-3.787-5.879
			c-0.445,4.772,1.158,9.697,4.811,13.349c6.516,6.514,17.078,6.514,23.592,0c4.792-4.791,6.046-11.768,3.79-17.716
			C40.528,23.273,38.926,26.917,36.065,29.778z"/>
	</g>
	<g>
		
			<rect x="45.281" y="40.459" transform="matrix(0.7071 -0.7071 0.7071 0.7071 -20.7883 50.1895)" fill="#333333" width="9.818" height="19.459"/>
	</g>
	<g>
		
			<rect x="47.505" y="40.458" transform="matrix(0.707 -0.7072 0.7072 0.707 -20.7881 50.1982)" fill="#575B5E" width="5.369" height="19.459"/>
	</g>
	<g>
		<path fill="#B0BDC6" d="M61.899,52.938c1.143,1.143-7.817,10.104-8.96,8.961l-0.701-0.702c-1.144-1.143,7.817-10.104,8.958-8.96
			L61.899,52.938z"/>
	</g>
	<g>
		<path fill="#DFE9EF" d="M60.409,54.429c1.145,1.143-4.836,7.123-5.979,5.979l-0.703-0.702c-1.142-1.143,4.838-7.121,5.979-5.979
			L60.409,54.429z"/>
	</g>
</g>
</svg>
