<?xml version="1.0" encoding="utf-8"?>
<!-- Generator: Adobe Illustrator 15.0.0, SVG Export Plug-In . SVG Version: 6.00 Build 0)  -->
<!DOCTYPE svg PUBLIC "-//W3C//DTD SVG 1.1//EN" "http://www.w3.org/Graphics/SVG/1.1/DTD/svg11.dtd">
<svg version="1.1" id="Layer_1" xmlns="http://www.w3.org/2000/svg" xmlns:xlink="http://www.w3.org/1999/xlink" x="0px" y="0px"
	 width="64px" height="64px" viewBox="0 0 64 64" enable-background="new 0 0 64 64" xml:space="preserve">
<path fill="#BEC3CF" d="M5.573,39.674c-4.765,0-4.765-15.348,0.001-15.348l0.392-0.002v15.352L5.573,39.674z"/>
<path fill="#99A8AE" d="M5.573,39.674c-1.836,0-2.962-2.275-3.382-5.076c0,0,0.486,1.541,3.382,1.541l0.393,0.002v3.535
	L5.573,39.674z"/>
<path fill="#E6EBEF" d="M2.131,32c0,0,0.148-6.141,2.416-6.141l0.601,0.001c-0.179,0.81-0.307,1.88-0.386,3.07H4.015
	C2.411,28.946,2.131,32,2.131,32z"/>
<path fill="#4E5E67" d="M5.964,39.674c-3.338,0.004-3.336-15.348,0.002-15.35l6.32,0.002v15.348H5.964z"/>
<path fill="#BEC3CF" d="M9.093,39.676c-3.336-0.002-3.335-15.35,0.001-15.352h3.192v15.35L9.093,39.676z"/>
<path fill="#6E8189" d="M4.392,25.86h3.127c-0.34,0.81-0.588,1.88-0.739,3.07H3.65C3.803,27.74,4.05,26.67,4.392,25.86z"/>
<path fill="#E6EBEF" d="M12.286,25.86v3.07H6.779c0.151-1.19,0.399-2.261,0.739-3.07H12.286z"/>
<path fill="#BEC3CF" d="M12.286,39.674c-4.09-1.178-4.09-14.168,0-15.348c4.515-1.301,14.183-16.493,14.183-16.493v48.334
	C26.469,56.167,16.801,40.977,12.286,39.674z"/>
<path fill="#99A8AE" d="M6.948,36.141l5.338-0.002v3.535l-3.193,0.002C8.055,39.676,7.341,38.188,6.948,36.141z"/>
<path fill="#99A8AE" d="M12.286,39.674c-2.389-0.687-3.379-5.401-2.979-9.441c0.286,2.879,1.277,5.417,2.979,5.906
	c4.515,1.303,14.183,16.493,14.183,16.493v3.535C26.469,56.167,16.801,40.977,12.286,39.674z"/>
<path fill="#E6EBEF" d="M9.636,28.931c-0.781,0,0.156-3.07,0.938-3.07c6.918,0,15.896-15.97,15.896-15.97l0.031,4.814
	C26.5,14.705,19.211,28.931,9.636,28.931z"/>
<path fill="#CFD8DD" d="M28.668,57c11.109,0,11.109-50,0-50C16.444,7,16.444,57,28.668,57z"/>
<path fill="#4E5E67" d="M29.226,54.5c8.764,0,8.764-45,0-45c-3.292,0-5.488,4.998-6.586,11.665
	c2.609,6.67,3.652,15.472,0.289,23.264C24.103,50.281,26.201,54.5,29.226,54.5z"/>
<path fill="#302C3B" d="M23.271,18.025c-0.089,1.177-0.116,2.36-0.079,3.542c4.271,0.677,6.189,8.284,5.207,15.635
	c1.793,2.218,4.049,3.943,6.765,4.922C34.227,49.141,32.247,54.5,29.223,54.5c-3.433,0-5.673-5.437-6.719-12.529
	c3.493-4.534,3.971-14.951,0.005-19.951C22.716,20.613,22.972,19.272,23.271,18.025z"/>
<path fill="#E6EBEF" d="M22.484,22.018c5.716,0.375,5.714,19.577-0.001,19.951C21.474,36.173,21.49,27.306,22.484,22.018z"/>
<path fill="#BEC3CF" d="M21.983,37.94c4.133-0.425,4.257-13.917,0.363-15.104c0.044-0.278,0.089-0.557,0.138-0.819
	c5.716,0.375,5.714,19.577-0.001,19.951C22.27,40.743,22.104,39.378,21.983,37.94z"/>
<path fill="#0FB4D4" d="M53.073,54.498c0-0.176,0.039-0.354,0.123-0.529c6.718-14.167,6.718-29.772,0-43.939
	c-0.366-0.775,0.122-1.641,1.095-1.933c0.973-0.294,2.061,0.099,2.428,0.874c7.042,14.85,7.042,31.207,0,46.059
	c-0.367,0.775-1.455,1.166-2.428,0.872C53.538,55.675,53.073,55.104,53.073,54.498z"/>
<path fill="#0FB4D4" d="M40.002,43.25c-0.001-0.124,0.018-0.25,0.059-0.375c2.295-7.115,2.295-14.637,0-21.752
	c-0.26-0.803,0.348-1.62,1.356-1.826c1.006-0.206,2.032,0.277,2.291,1.08c2.449,7.604,2.449,15.642,0,23.244
	c-0.259,0.803-1.285,1.286-2.291,1.08C40.565,44.527,40.002,43.918,40.002,43.25z"/>
<path fill="#0FB4D4" d="M46.469,48.498c0-0.169,0.037-0.34,0.113-0.508c4.659-10.313,4.659-21.67,0-31.981
	c-0.352-0.778,0.154-1.641,1.133-1.92c0.978-0.28,2.058,0.123,2.409,0.903c4.956,10.967,4.956,23.047,0,34.014
	c-0.352,0.78-1.432,1.185-2.409,0.903C46.947,49.688,46.469,49.112,46.469,48.498z"/>
</svg>
