<?xml version="1.0" encoding="utf-8"?>
<!-- Generator: Adobe Illustrator 15.0.0, SVG Export Plug-In . SVG Version: 6.00 Build 0)  -->
<!DOCTYPE svg PUBLIC "-//W3C//DTD SVG 1.1//EN" "http://www.w3.org/Graphics/SVG/1.1/DTD/svg11.dtd">
<svg version="1.1" id="Layer_1" xmlns="http://www.w3.org/2000/svg" xmlns:xlink="http://www.w3.org/1999/xlink" x="0px" y="0px"
	 width="64px" height="64px" viewBox="0 0 64 64" enable-background="new 0 0 64 64" xml:space="preserve">
<path fill="#BEC3CF" d="M5.611,39.674c-4.815,0-4.815-15.348,0.001-15.348l0.396-0.002v15.352L5.611,39.674z"/>
<path fill="#99A8AE" d="M5.611,39.674c-1.855,0-2.993-2.275-3.417-5.076c0,0,0.491,1.541,3.417,1.541l0.396,0.002v3.535
	L5.611,39.674z"/>
<path fill="#E6EBEF" d="M2.133,32c0,0,0.15-6.141,2.441-6.141h0.607C5,26.67,4.871,27.74,4.792,28.93H4.037
	C2.416,28.945,2.133,32,2.133,32z"/>
<path fill="#4E5E67" d="M6.006,39.674c-3.373,0.004-3.371-15.348,0.002-15.35l6.386,0.002v15.348H6.006z"/>
<path fill="#BEC3CF" d="M9.167,39.676c-3.371-0.002-3.37-15.35,0.001-15.352h3.226v15.35L9.167,39.676z"/>
<path fill="#6E8189" d="M4.418,25.859h3.16c-0.344,0.811-0.594,1.881-0.747,3.07H3.668C3.823,27.74,4.072,26.67,4.418,25.859z"/>
<path fill="#E6EBEF" d="M12.394,25.859v3.07H6.83c0.152-1.189,0.403-2.261,0.747-3.07H12.394z"/>
<path fill="#BEC3CF" d="M12.394,39.674c-4.133-1.178-4.133-14.168,0-15.348c4.563-1.301,14.331-16.493,14.331-16.493v48.334
	C26.725,56.167,16.957,40.977,12.394,39.674z"/>
<path fill="#99A8AE" d="M7,36.141l5.394-0.002v3.535l-3.227,0.002C8.119,39.676,7.398,38.188,7,36.141z"/>
<path fill="#99A8AE" d="M12.394,39.674c-2.414-0.688-3.414-5.4-3.01-9.441c0.289,2.879,1.29,5.418,3.01,5.906
	c4.563,1.303,14.331,16.493,14.331,16.493v3.535C26.725,56.167,16.957,40.977,12.394,39.674z"/>
<path fill="#E6EBEF" d="M9.716,28.932c-0.789,0,0.158-3.07,0.948-3.07c6.99,0,16.061-15.971,16.061-15.971l0.031,4.814
	C26.756,14.705,19.391,28.932,9.716,28.932z"/>
<path fill="#CFD8DD" d="M28.946,57c11.226,0,11.226-50,0-50C16.595,7,16.595,57,28.946,57z"/>
<path fill="#4E5E67" d="M29.511,54.5c8.855,0,8.855-45,0-45c-3.326,0-5.545,4.998-6.654,11.665
	c2.635,6.67,3.689,15.472,0.291,23.265C24.334,50.281,26.454,54.5,29.511,54.5z"/>
<path fill="#302C3B" d="M23.494,18.025c-0.09,1.177-0.117,2.359-0.08,3.541c4.316,0.678,6.253,8.285,5.261,15.636
	c1.812,2.218,4.092,3.942,6.836,4.922C34.563,49.141,32.563,54.5,29.508,54.5c-3.47,0-5.733-5.438-6.79-12.529
	c3.53-4.533,4.013-14.951,0.006-19.951C22.933,20.613,23.192,19.271,23.494,18.025z"/>
<path fill="#E6EBEF" d="M22.699,22.018c5.775,0.375,5.773,19.578-0.001,19.951C21.678,36.173,21.695,27.307,22.699,22.018z"/>
<path fill="#BEC3CF" d="M22.193,37.939c4.175-0.424,4.3-13.916,0.366-15.104c0.045-0.277,0.09-0.557,0.14-0.818
	c5.775,0.375,5.773,19.576-0.001,19.95C22.482,40.743,22.314,39.378,22.193,37.939z"/>
<path fill="#0FB4D4" d="M40.399,43.25c-0.002-0.124,0.018-0.25,0.059-0.375c2.318-7.115,2.318-14.637,0-21.752
	c-0.262-0.803,0.353-1.62,1.371-1.826c1.016-0.206,2.053,0.277,2.314,1.08c2.475,7.604,2.475,15.643,0,23.244
	c-0.262,0.803-1.299,1.286-2.314,1.08C40.968,44.527,40.399,43.918,40.399,43.25z"/>
</svg>
