<?xml version="1.0" encoding="utf-8"?>
<!-- Generator: Adobe Illustrator 15.0.0, SVG Export Plug-In . SVG Version: 6.00 Build 0)  -->
<!DOCTYPE svg PUBLIC "-//W3C//DTD SVG 1.1//EN" "http://www.w3.org/Graphics/SVG/1.1/DTD/svg11.dtd">
<svg version="1.1" id="Layer_1" xmlns="http://www.w3.org/2000/svg" xmlns:xlink="http://www.w3.org/1999/xlink" x="0px" y="0px"
	 width="64px" height="64px" viewBox="0 0 64 64" enable-background="new 0 0 64 64" xml:space="preserve">
<path fill="#006DAE" d="M62,50c0,6.6-5.4,12-12,12H14C7.4,62,2,56.6,2,50V14C2,7.398,7.4,2,14,2h36c6.6,0,12,5.398,12,12V50z"/>
<path fill="#014D87" d="M56.838,4.162C58.197,6.105,59,8.461,59,11v37c0,6.6-4.398,11-11,11H11c-2.537,0-4.895-0.805-6.838-2.162
	C6.336,59.949,9.938,62,14,62h36c6.602,0,12-5.4,12-12V14C62,9.938,59.951,6.336,56.838,4.162z"/>
<path fill-rule="evenodd" clip-rule="evenodd" fill="#0FB4D4" d="M4.975,12.584c0.338,2.703,4.793-2.586,9.303-7.135
	C17.188,2.523,3.957,4.449,4.975,12.584z"/>
<path fill="#FFFFFF" d="M37.25,52.354l-4.468-6.092c-0.18,0.008-0.36,0.014-0.544,0.014c-3.923,0-7.114-2.512-7.114-5.602V27.071
	h5.59l-9.857-13.446L11,27.071h5.587v13.604c0,3.294,1.629,6.386,4.585,8.715C24.129,51.719,28.059,53,32.238,53
	C33.969,53,35.655,52.781,37.25,52.354z"/>
<path fill="#FFFFFF" d="M31.784,17.719c3.918,0,7.106,2.507,7.106,5.593v13.634h-5.582l9.846,13.43L53,36.945h-5.582V23.312
	c0-3.289-1.626-6.379-4.579-8.705C39.885,12.282,35.959,11,31.784,11c-1.739,0-3.434,0.225-5.034,0.652l4.46,6.081
	C31.399,17.723,31.591,17.719,31.784,17.719z"/>
</svg>
