<?xml version="1.0" encoding="utf-8"?>
<!-- Generator: Adobe Illustrator 15.0.0, SVG Export Plug-In . SVG Version: 6.00 Build 0)  -->
<!DOCTYPE svg PUBLIC "-//W3C//DTD SVG 1.1//EN" "http://www.w3.org/Graphics/SVG/1.1/DTD/svg11.dtd">
<svg version="1.1" id="Layer_1" xmlns="http://www.w3.org/2000/svg" xmlns:xlink="http://www.w3.org/1999/xlink" x="0px" y="0px"
	 width="64px" height="64px" viewBox="0 0 64 64" enable-background="new 0 0 64 64" xml:space="preserve">
<path fill="#006DAE" d="M62,50c0,6.6-5.4,12-12,12H14C7.4,62,2,56.6,2,50V14C2,7.399,7.4,2,14,2h36c6.6,0,12,5.399,12,12V50z"/>
<path fill="#014D87" d="M56.838,4.162C58.197,6.105,59,8.462,59,11v37c0,6.6-4.398,11-11,11H11c-2.537,0-4.895-0.805-6.838-2.162
	C6.336,59.949,9.938,62,14,62h36c6.602,0,12-5.4,12-12V14C62,9.938,59.951,6.336,56.838,4.162z"/>
<path fill-rule="evenodd" clip-rule="evenodd" fill="#0FB4D4" d="M4.975,12.585c0.338,2.703,4.793-2.587,9.303-7.136
	C17.188,2.524,3.957,4.45,4.975,12.585z"/>
<path fill="#FFFFFF" d="M42,26v4l10-8l-10-8v4c-7.266,0-11.237,6.621-14.43,11.942C24.649,34.809,22.545,38,20,38h-8v8h8
	c7.265,0,11.237-6.621,14.43-11.941C37.35,29.19,39.455,26,42,26z"/>
<path fill="#FFFFFF" d="M42,38c-1.771,0-3.336-1.572-5.105-4.155c-0.26,0.425-0.512,0.845-0.75,1.243
	c-1.148,1.914-2.395,3.979-3.85,5.889C34.766,43.828,37.842,46,42,46v4l10-8l-10-8V38z"/>
<path fill="#FFFFFF" d="M25.105,30.155c0.259-0.425,0.511-0.844,0.75-1.242c1.148-1.914,2.395-3.979,3.85-5.89
	C27.233,20.172,24.157,18,20,18h-8v8h8C21.772,26,23.336,27.572,25.105,30.155z"/>
</svg>
