<?xml version="1.0" encoding="utf-8"?>
<!-- Generator: Adobe Illustrator 15.0.0, SVG Export Plug-In . SVG Version: 6.00 Build 0)  -->
<!DOCTYPE svg PUBLIC "-//W3C//DTD SVG 1.1//EN" "http://www.w3.org/Graphics/SVG/1.1/DTD/svg11.dtd">
<svg version="1.1" id="Layer_1" xmlns="http://www.w3.org/2000/svg" xmlns:xlink="http://www.w3.org/1999/xlink" x="0px" y="0px"
	 width="64px" height="64px" viewBox="0 0 64 64" enable-background="new 0 0 64 64" xml:space="preserve">
<path fill="#F9B700" d="M29,54.549C29,56.447,30.35,58,32,58c1.651,0,3-1.553,3-3.451s-1.35-3.451-3-3.451
	C30.35,51.098,29,52.65,29,54.549z"/>
<path fill="#F9B700" d="M35,9.451C35,7.553,33.65,6,32,6c-1.649,0-3,1.553-3,3.451s1.351,3.451,3,3.451
	C33.65,12.902,35,11.35,35,9.451z"/>
<path fill="#F9B700" d="M54.549,29c-1.898,0-3.451,1.35-3.451,3c0,1.65,1.553,3,3.451,3S58,33.65,58,32
	C58,30.35,56.447,29,54.549,29z"/>
<path fill="#F9B700" d="M12.902,32c0-1.65-1.553-3-3.451-3C7.553,29,6,30.35,6,32c0,1.65,1.553,3,3.451,3
	C11.349,35,12.902,33.65,12.902,32z"/>
<path fill="#F9B700" d="M13.935,45.823c-1.343,1.343-1.486,3.396-0.32,4.562c1.167,1.166,3.22,1.023,4.563-0.319
	c1.342-1.343,1.485-3.396,0.318-4.562C17.33,44.338,15.277,44.48,13.935,45.823z"/>
<path fill="#F9B700" d="M50.066,18.177c1.342-1.342,1.484-3.395,0.318-4.562s-3.219-1.023-4.561,0.319
	c-1.344,1.342-1.486,3.395-0.32,4.562S48.723,19.519,50.066,18.177z"/>
<path fill="#F9B700" d="M45.504,45.504c-1.166,1.168-1.023,3.221,0.32,4.563c1.342,1.342,3.395,1.484,4.561,0.318
	s1.023-3.219-0.318-4.562C48.723,44.48,46.67,44.338,45.504,45.504z"/>
<path fill="#F9B700" d="M18.496,18.496c1.166-1.167,1.023-3.219-0.318-4.562c-1.343-1.342-3.396-1.486-4.563-0.319
	c-1.166,1.167-1.023,3.219,0.318,4.562S17.328,19.663,18.496,18.496z"/>
<path fill="#F9B700" d="M32,17c-8.285,0-15,6.716-15,15s6.715,15,15,15c8.284,0,15-6.716,15-15S40.283,17,32,17z M32,42
	c-5.523,0-10-4.477-10-10s4.477-10,10-10c5.522,0,10,4.477,10,10S37.521,42,32,42z"/>
<path fill="#F59E01" d="M42.082,20.917C44.508,23.583,46,27.113,46,31c0,8.284-6.717,15-15,15c-3.887,0-7.418-1.491-10.082-3.917
	C23.661,45.097,27.603,47,32,47c8.284,0,15-6.716,15-15C47,27.604,45.096,23.661,42.082,20.917z"/>
<path fill="#F59E01" d="M33.42,51.529c0.361,0.569,0.58,1.264,0.58,2.02C34,55.447,32.65,57,31,57c-0.516,0-0.994-0.165-1.418-0.432
	C30.128,57.432,31.005,58,32,58c1.651,0,3-1.553,3-3.451C35,53.243,34.355,52.115,33.42,51.529z"/>
<path fill="#F59E01" d="M33.42,6.431C33.781,7.001,34,7.696,34,8.451c0,1.898-1.35,3.451-3,3.451c-0.516,0-0.994-0.165-1.418-0.431
	c0.547,0.862,1.424,1.431,2.418,1.431c1.651,0,3-1.553,3-3.451C35,8.146,34.355,7.017,33.42,6.431z"/>
<path fill="#F59E01" d="M56.568,29.582C56.836,30.006,57,30.485,57,31c0,1.65-1.553,3-3.451,3c-0.756,0-1.449-0.221-2.02-0.582
	C52.115,34.354,53.244,35,54.549,35C56.447,35,58,33.65,58,32C58,31.006,57.432,30.128,56.568,29.582z"/>
<path fill="#F59E01" d="M11.47,29.582c0.268,0.425,0.432,0.903,0.432,1.418c0,1.65-1.553,3-3.451,3c-0.756,0-1.449-0.221-2.02-0.582
	C7.017,34.354,8.146,35,9.451,35c1.898,0,3.451-1.35,3.451-3C12.902,31.006,12.333,30.128,11.47,29.582z"/>
<path fill="#F59E01" d="M18.496,45.504c-0.172-0.174-0.369-0.309-0.576-0.424c0.664,1.188,0.4,2.842-0.742,3.985
	c-1.145,1.144-2.799,1.407-3.986,0.743c0.117,0.207,0.252,0.403,0.424,0.576c1.166,1.166,3.219,1.023,4.563-0.319
	C19.519,48.723,19.662,46.67,18.496,45.504z"/>
<path fill="#F59E01" d="M50.385,13.615c-0.172-0.173-0.369-0.308-0.576-0.424c0.664,1.188,0.4,2.842-0.742,3.985
	c-1.145,1.143-2.799,1.408-3.984,0.743c0.115,0.207,0.25,0.403,0.422,0.576c1.166,1.167,3.219,1.023,4.563-0.319
	C51.408,16.834,51.551,14.782,50.385,13.615z"/>
<path fill="#F59E01" d="M50.066,45.823c-0.172-0.171-0.355-0.321-0.547-0.454c0.902,1.307,0.883,2.998-0.135,4.016
	s-2.709,1.037-4.016,0.135c0.133,0.191,0.283,0.375,0.455,0.547c1.342,1.342,3.395,1.484,4.561,0.318S51.408,47.166,50.066,45.823z"
	/>
<path fill="#F59E01" d="M18.177,13.935c-0.172-0.171-0.355-0.322-0.547-0.454c0.902,1.306,0.883,2.998-0.135,4.015
	c-1.018,1.017-2.709,1.037-4.016,0.135c0.131,0.191,0.283,0.374,0.453,0.545c1.342,1.342,3.395,1.486,4.563,0.319
	C19.662,17.33,19.519,15.277,18.177,13.935z"/>
<path fill-rule="evenodd" clip-rule="evenodd" fill="#FFE463" d="M13.48,15.139c0.082,0.584,1.176-0.559,2.282-1.541
	C16.476,12.966,13.23,13.382,13.48,15.139z"/>
<path fill-rule="evenodd" clip-rule="evenodd" fill="#FFE463" d="M18.642,26.9c-0.412,1.412,2.201-5.321,9.834-8.75
	C30.644,17.176,21.011,18.785,18.642,26.9z"/>
<path fill-rule="evenodd" clip-rule="evenodd" fill="#FFE463" d="M42.074,36.168c0.287-0.983-1.533,3.709-6.854,6.1
	C33.709,42.946,40.424,41.824,42.074,36.168z"/>
<path fill-rule="evenodd" clip-rule="evenodd" fill="#FFE463" d="M29.905,8.25c0.083,0.584,1.177-0.559,2.282-1.541
	C32.902,6.078,29.656,6.494,29.905,8.25z"/>
<path fill-rule="evenodd" clip-rule="evenodd" fill="#FFE463" d="M45.814,15.3c0.082,0.584,1.176-0.559,2.283-1.541
	C48.811,13.127,45.564,13.543,45.814,15.3z"/>
<path fill-rule="evenodd" clip-rule="evenodd" fill="#FFE463" d="M51.752,31.593c0.082,0.584,1.176-0.559,2.283-1.541
	C54.748,29.42,51.502,29.836,51.752,31.593z"/>
<path fill-rule="evenodd" clip-rule="evenodd" fill="#FFE463" d="M45.383,47.189c0.084,0.584,1.176-0.56,2.283-1.541
	C48.379,45.016,45.133,45.432,45.383,47.189z"/>
<path fill-rule="evenodd" clip-rule="evenodd" fill="#FFE463" d="M29.905,53.502c0.083,0.584,1.177-0.56,2.282-1.541
	C32.902,51.328,29.656,51.744,29.905,53.502z"/>
<path fill-rule="evenodd" clip-rule="evenodd" fill="#FFE463" d="M14.03,47.189c0.083,0.584,1.177-0.56,2.282-1.541
	C17.027,45.016,13.781,45.432,14.03,47.189z"/>
<path fill-rule="evenodd" clip-rule="evenodd" fill="#FFE463" d="M6.874,31.401c0.083,0.584,1.177-0.559,2.282-1.541
	C9.871,29.228,6.625,29.644,6.874,31.401z"/>
</svg>
