<?xml version="1.0" encoding="utf-8"?>
<!-- Generator: Adobe Illustrator 15.0.0, SVG Export Plug-In . SVG Version: 6.00 Build 0)  -->
<!DOCTYPE svg PUBLIC "-//W3C//DTD SVG 1.1//EN" "http://www.w3.org/Graphics/SVG/1.1/DTD/svg11.dtd">
<svg version="1.1" id="Layer_1" xmlns="http://www.w3.org/2000/svg" xmlns:xlink="http://www.w3.org/1999/xlink" x="0px" y="0px"
	 width="64px" height="64px" viewBox="0 0 64 64" enable-background="new 0 0 64 64" xml:space="preserve">
<path fill="#006DAE" d="M62,50c0,6.6-5.4,12-12,12H14C7.4,62,2,56.6,2,50V14C2,7.398,7.4,2,14,2h36c6.6,0,12,5.398,12,12V50z"/>
<path fill="#014D87" d="M56.838,4.162C58.197,6.105,59,8.461,59,11v37c0,6.6-4.398,11-11,11H11c-2.537,0-4.895-0.805-6.838-2.162
	C6.336,59.949,9.938,62,14,62h36c6.602,0,12-5.4,12-12V14C62,9.938,59.951,6.336,56.838,4.162z"/>
<path fill-rule="evenodd" clip-rule="evenodd" fill="#0FB4D4" d="M4.975,12.584c0.338,2.703,4.793-2.586,9.303-7.135
	C17.188,2.523,3.957,4.449,4.975,12.584z"/>
<path fill="#FFFFFF" d="M27.324,20.059c1.529-0.684,3.189-1.041,4.895-1.041c6.588,0,11.949,5.129,11.949,11.982H52
	c0-10.771-8.875-19.813-19.781-19.813c-3.846,0-7.557,1.086-10.764,3.17L18,11v13.146h13.531L27.324,20.059z"/>
<path fill="#FFFFFF" d="M36.5,42.564c-1.465,0.662-3.053,1.016-4.691,1.016c-6.598,0-11.967-5.346-11.967-12.58H12
	c0,11.367,8.887,20.848,19.809,20.848c3.707,0,7.248-1.092,10.33-3.088L46,53V38.234H32.557L36.5,42.564z"/>
</svg>
