<?xml version="1.0" encoding="utf-8"?>
<!-- Generator: Adobe Illustrator 15.0.0, SVG Export Plug-In . SVG Version: 6.00 Build 0)  -->
<!DOCTYPE svg PUBLIC "-//W3C//DTD SVG 1.1//EN" "http://www.w3.org/Graphics/SVG/1.1/DTD/svg11.dtd">
<svg version="1.1" id="Layer_1" xmlns="http://www.w3.org/2000/svg" xmlns:xlink="http://www.w3.org/1999/xlink" x="0px" y="0px"
	 width="64px" height="64px" viewBox="0 0 64 64" enable-background="new 0 0 64 64" xml:space="preserve">
<path fill="#BEC3CF" d="M24,14h-4V3.707c0-2.275,4-2.275,4,0V14z"/>
<path fill="#BEC3CF" d="M12,14H8V3.707c0-2.275,4-2.275,4,0V14z"/>
<path fill="#302C3B" d="M4,20v6c0,3.9,2.811,6.091,6,8v3.248C10,37.842,11.388,38,12,38h8c0.613,0,2-0.158,2-0.752V34
	c3.188-1.909,6-4.101,6-8v-6H4z"/>
<path fill="#302C3B" d="M58,26v36h4V26c0-15.978-26-15.978-26,0v24c0,10.779-18,10.779-18,0V38h-4v12c0,15.965,26,15.965,26,0V26
	C40,15.32,58,15.32,58,26z"/>
<path fill="#4E5E67" d="M15,50.005v-12l-1-0.017v12c0,8.099,6.69,12.081,13.284,11.963C21.031,61.668,15,57.693,15,50.005z"/>
<path fill="#4E5E67" d="M37,50.005v-24c0-7.872,6.313-11.857,12.716-11.972C42.986,13.729,36,17.707,36,25.989v24
	c0,5.278-4.316,7.965-8.722,8.074C32.006,58.366,37,55.683,37,50.005z"/>
<path fill="#4E5E67" d="M59,61.988V26.005c0-5.449-4.687-8.111-9.276-8C53.97,18.277,58,20.936,58,25.989v36H59z"/>
<path fill="#302C3B" d="M30,18c0,1.1-0.9,2-2,2H4c-1.1,0-2-0.9-2-2v-2c0-1.1,0.9-2,2-2h24c1.1,0,2,0.9,2,2V18z"/>
<rect x="4" y="20" fill="#1A1626" width="24" height="2"/>
<polygon fill="#1A1626" points="18,40 14,39 14,38 18,38 "/>
<polygon fill="#1A1626" points="22,35 10,34 22,34 "/>
<rect x="9" y="3" fill="#E6EBEF" width="1" height="11"/>
<rect x="21" y="3" fill="#E6EBEF" width="1" height="11"/>
<rect x="20" y="13" fill="#99A8AE" width="4" height="1"/>
<rect x="8" y="13" fill="#99A8AE" width="4" height="1"/>
<rect x="9" y="13" fill="#BEC3CF" width="1" height="1"/>
<rect x="21" y="13" fill="#BEC3CF" width="1" height="1"/>
</svg>
