<?xml version="1.0" encoding="utf-8"?>
<!-- Generator: Adobe Illustrator 15.0.0, SVG Export Plug-In . SVG Version: 6.00 Build 0)  -->
<!DOCTYPE svg PUBLIC "-//W3C//DTD SVG 1.1//EN" "http://www.w3.org/Graphics/SVG/1.1/DTD/svg11.dtd">
<svg version="1.1" id="Layer_1" xmlns="http://www.w3.org/2000/svg" xmlns:xlink="http://www.w3.org/1999/xlink" x="0px" y="0px"
	 width="64px" height="64px" viewBox="0 0 64 64" enable-background="new 0 0 64 64" xml:space="preserve">
<path fill="#E81C27" d="M32,2C15.432,2,2,15.432,2,32s13.432,30,30,30s30-13.432,30-30S48.568,2,32,2z M32,56
	C18.745,56,8,45.256,8,32C8,18.746,18.745,8,32,8c13.254,0,24,10.746,24,24C56,45.256,45.254,56,32,56z"/>
<path fill="#302C3B" d="M41.475,28.113v-7.234v-7c0-0.484-0.424-0.879-0.945-0.879c-0.523,0-0.945,0.395-0.945,0.879v0.455
	l-14.145,9.947h-6.17c-1.247,0-2.259,0.939-2.259,2.1v2.082v7.074v2.08c0,1.162,1.012,2.102,2.259,2.102h6.17l0,0l14.145,9.947
	v0.455c0,0.484,0.422,0.879,0.945,0.879c0.521,0,0.945-0.395,0.945-0.879v-7v-7.234c2.309,0,4.18-1.74,4.18-3.887
	S43.783,28.113,41.475,28.113z"/>
<rect x="2.815" y="29" transform="matrix(-0.7071 -0.7071 0.7071 -0.7071 32 77.2548)" fill="#E81C27" width="58.369" height="5.999"/>
</svg>
