<?xml version="1.0" encoding="utf-8"?>
<!-- Generator: Adobe Illustrator 15.0.0, SVG Export Plug-In . SVG Version: 6.00 Build 0)  -->
<!DOCTYPE svg PUBLIC "-//W3C//DTD SVG 1.1//EN" "http://www.w3.org/Graphics/SVG/1.1/DTD/svg11.dtd">
<svg version="1.1" id="Layer_1" xmlns="http://www.w3.org/2000/svg" xmlns:xlink="http://www.w3.org/1999/xlink" x="0px" y="0px"
	 width="64px" height="64px" viewBox="0 0 64 64" enable-background="new 0 0 64 64" xml:space="preserve">
<g>
	<g>
		
			<rect x="18.961" y="40.294" transform="matrix(-0.7072 -0.707 0.707 -0.7072 7.0082 87.6104)" fill="#B0BDC6" width="5.369" height="4.12"/>
	</g>
	<g>
		
			<rect x="20.247" y="40.295" transform="matrix(-0.7069 -0.7073 0.7073 -0.7069 6.9895 87.6042)" fill="#DFE9EF" width="2.796" height="4.118"/>
	</g>
	<g>
		
			<rect x="19.815" y="40.647" transform="matrix(-0.707 -0.7072 0.7072 -0.707 9.0575 86.7524)" fill="#B0BDC6" width="5.369" height="1.706"/>
	</g>
	<g>
		<path fill="#DFE9EF" d="M22.465,41.535c9.045,9.046,23.705,9.044,32.752,0c9.043-9.044,9.045-23.708,0-32.752
			c-9.045-9.044-23.709-9.045-32.752,0C13.421,17.828,13.421,32.492,22.465,41.535z M24.622,10.939
			c7.851-7.853,20.587-7.852,28.438,0c7.854,7.854,7.852,20.586,0,28.438c-7.854,7.854-20.586,7.855-28.438,0
			C16.771,31.526,16.77,18.792,24.622,10.939z"/>
	</g>
	<g>
		<path fill="#B0BDC6" d="M24.103,39.897c8.138,8.139,21.337,8.14,29.478,0c8.139-8.14,8.139-21.338,0-29.478
			c-8.141-8.138-21.34-8.139-29.478,0C15.962,18.56,15.964,31.759,24.103,39.897z M25.194,11.512c7.534-7.537,19.757-7.536,27.292,0
			c7.539,7.538,7.537,19.757,0,27.293c-7.537,7.537-19.756,7.539-27.292,0C17.658,31.27,17.657,19.048,25.194,11.512z"/>
	</g>
	<g opacity="0.3">
		<path fill="#A6AEB0" d="M27.935,29.778c6.517,6.518,17.079,6.518,23.595,0.003c1.723-1.725,2.977-3.737,3.787-5.879
			c0.445,4.772-1.158,9.697-4.811,13.349c-6.516,6.514-17.078,6.514-23.592,0c-4.792-4.791-6.046-11.768-3.79-17.716
			C23.472,23.273,25.074,26.917,27.935,29.778z"/>
	</g>
	<g>
		
			<rect x="8.901" y="40.459" transform="matrix(-0.7071 -0.7071 0.7071 -0.7071 -11.9134 95.4423)" fill="#333333" width="9.818" height="19.459"/>
	</g>
	<g>
		
			<rect x="11.126" y="40.458" transform="matrix(-0.707 -0.7072 0.7072 -0.707 -11.918 95.4385)" fill="#575B5E" width="5.369" height="19.459"/>
	</g>
	<g>
		<path fill="#B0BDC6" d="M2.101,52.938c-1.143,1.143,7.817,10.104,8.96,8.961l0.701-0.702c1.144-1.143-7.817-10.104-8.958-8.96
			L2.101,52.938z"/>
	</g>
	<g>
		<path fill="#DFE9EF" d="M3.591,54.429c-1.145,1.143,4.836,7.123,5.979,5.979l0.703-0.702c1.142-1.143-4.838-7.121-5.979-5.979
			L3.591,54.429z"/>
	</g>
</g>
</svg>
