<?xml version="1.0" encoding="utf-8"?>
<!-- Generator: Adobe Illustrator 15.0.0, SVG Export Plug-In . SVG Version: 6.00 Build 0)  -->
<!DOCTYPE svg PUBLIC "-//W3C//DTD SVG 1.1//EN" "http://www.w3.org/Graphics/SVG/1.1/DTD/svg11.dtd">
<svg version="1.1" id="Layer_1" xmlns="http://www.w3.org/2000/svg" xmlns:xlink="http://www.w3.org/1999/xlink" x="0px" y="0px"
	 width="64px" height="64px" viewBox="0 0 64 64" enable-background="new 0 0 64 64" xml:space="preserve">
<path fill="#E81C27" d="M32,2C15.432,2,2,15.432,2,32c0,16.566,13.432,30,30,30s30-13.434,30-30C62,15.432,48.568,2,32,2z M32,56
	C18.746,56,8,45.254,8,32C8,18.744,18.746,8,32,8c13.256,0,24,10.744,24,24C56,45.254,45.256,56,32,56z"/>
<g>
	<g>
		<path fill="#302C3B" d="M42.01,31.967c-1.75-3.139-1.477-5.893-1.477-7.99c0-4.354-2.51-7.102-6.105-8.195
			c0-1.449-0.824-2.596-2.426-2.596c-1.605,0-2.43,1.146-2.43,2.596c-3.594,1.094-6.104,3.842-6.104,8.195
			c0,2.098,0.271,4.852-1.477,7.99c-1.242,2.229-3.93,2.67-3.93,9.096h27.875C45.938,34.637,43.252,34.195,42.01,31.967z"/>
	</g>
</g>
<path fill="#302C3B" d="M32.775,42.938c0,2.42-1.963,4.383-4.383,4.383s-4.383-1.963-4.383-4.383H32.775z"/>
<rect x="2.815" y="29" transform="matrix(-0.7071 -0.7071 0.7071 -0.7071 32 77.2548)" fill="#E81C27" width="58.369" height="5.999"/>
</svg>
