<?xml version="1.0" encoding="utf-8"?>
<!-- Generator: Adobe Illustrator 15.0.0, SVG Export Plug-In . SVG Version: 6.00 Build 0)  -->
<!DOCTYPE svg PUBLIC "-//W3C//DTD SVG 1.1//EN" "http://www.w3.org/Graphics/SVG/1.1/DTD/svg11.dtd">
<svg version="1.1" id="Layer_1" xmlns="http://www.w3.org/2000/svg" xmlns:xlink="http://www.w3.org/1999/xlink" x="0px" y="0px"
	 width="64px" height="64px" viewBox="0 0 64 64" enable-background="new 0 0 64 64" xml:space="preserve">
<path fill="#F59E01" d="M52.398,35.465L32,35.46l-20.399,0.005c0,0-0.856,23.5-0.253,25.924c7.217,0.814,34.086,0.814,41.303,0
	C53.256,58.965,52.398,35.465,52.398,35.465z"/>
<path fill="#EA8800" d="M54.98,32.301c0-0.607-0.551-0.94-0.904-1.03c-6.729-1.694-37.426-1.694-44.153,0
	c-0.353,0.09-0.905,0.423-0.905,1.03C9.018,39.738,9,56.993,9,60.202c0,0.604,1.304,1.02,2.348,1.187
	c0-1.192,0.303-25.804,0.303-25.804L32,35.331l20.35,0.254c0,0,0.301,24.611,0.301,25.804c1.045-0.167,2.35-0.582,2.35-1.187
	C55,56.993,54.98,39.738,54.98,32.301z"/>
<path fill="#FFE463" d="M52.475,35.064c-0.357,0.359-6.672,0-20.475,0c-13.805,0-20.118,0.359-20.477,0
	c-0.65-0.649-2.221-3.407-2.221-3.407s2.044,3.774,2.044,4.686c0,7.438-0.214,23.968,0.001,25.046
	c0.277-1.262,0.557-23.135,0.748-24.72c0.095-0.774,9.736-0.727,19.904-0.727c10.167,0,19.809-0.048,19.902,0.727
	c0.193,1.585,0.473,23.458,0.748,24.72c0.216-1.078,0.002-17.608,0.002-25.046c0-0.911,2.045-4.686,2.045-4.686
	S53.125,34.415,52.475,35.064z"/>
<path fill="#AB5C10" d="M22.269,32.586c0,2.114-9,2.114-9,0S22.269,30.472,22.269,32.586z"/>
<path fill="#AB5C10" d="M50.713,32.586c0,2.114-9,2.114-9,0S50.713,30.472,50.713,32.586z"/>
<path fill="#CFD8DD" d="M32,2c-9.942,0-18,7.937-18,17.727v12.91c0,1.818,7.537,1.818,7.537,0v-12.91
	c0-13.779,20.924-13.779,20.924,0v12.91c0,1.818,7.539,1.818,7.539,0v-12.91C50,9.937,41.938,2,32,2z"/>
<path fill="#99A8AE" d="M19.537,19.731v12.91c0,0.746-1.271,1.181-2.769,1.314c2.151,0.192,4.769-0.242,4.769-1.314v-12.91
	c0-6.45,4.585-9.88,9.463-10.292C25.457,8.973,19.537,12.402,19.537,19.731z"/>
<path fill="#99A8AE" d="M32,2.005c-0.338,0-0.668,0.032-1,0.05c9.471,0.514,17,8.219,17,17.677v12.91
	c0,0.746-1.273,1.181-2.77,1.314c2.151,0.192,4.77-0.242,4.77-1.314v-12.91C50,9.941,41.938,2.005,32,2.005z"/>
<path fill="#E6EBEF" d="M43.804,18.431c-0.309-6.273-5.616-10.036-11.263-9.724c5.646,0.625,10.053,3.644,10.584,9.938
	c0.322,3.813-0.102,13.563,0.289,12.2C43.99,28.826,43.895,20.267,43.804,18.431z"/>
<path fill="#E6EBEF" d="M14.537,19.85c0-9.345,7.7-16.995,15.602-16.995c-8.203,1.594-14.124,7.562-14.762,17.303
	c-0.48,7.356-0.838,14.892-0.838,10.076C14.539,26.313,14.537,22.855,14.537,19.85z"/>
</svg>
