<?xml version="1.0" encoding="utf-8"?>
<!-- Generator: Adobe Illustrator 15.0.0, SVG Export Plug-In . SVG Version: 6.00 Build 0)  -->
<!DOCTYPE svg PUBLIC "-//W3C//DTD SVG 1.1//EN" "http://www.w3.org/Graphics/SVG/1.1/DTD/svg11.dtd">
<svg version="1.1" id="Layer_1" xmlns="http://www.w3.org/2000/svg" xmlns:xlink="http://www.w3.org/1999/xlink" x="0px" y="0px"
	 width="64px" height="64px" viewBox="0 0 64 64" enable-background="new 0 0 64 64" xml:space="preserve">
<path fill="#302C3B" d="M8.434,58.427c1.455,0,2.504-0.799,2.504-1.946c0-1.735-3.174-2.374-5.59-3.653
	C3.63,51.948,2,50.239,2,47.841c0-3.28,2.911-5.709,6.434-5.709c3.58,0,6.492,2.669,6.492,5.949H11.17
	c-0.087-1.361-1.252-2.48-2.736-2.48c-1.485,0-2.475,0.667-2.475,1.998c0,1.495,2.707,2.268,4.948,3.36
	c1.951,0.989,4.019,2.589,4.019,5.281c0,3.228-2.912,5.652-6.492,5.652C4.911,61.893,2,59.227,2,55.975h3.755
	C5.813,57.306,6.978,58.427,8.434,58.427z"/>
<path fill="#302C3B" d="M30.326,47.974v8.133c0,3.228-2.912,5.894-6.492,5.894c-3.522,0-6.434-2.666-6.434-5.894v-8.133
	c0-3.308,2.911-5.974,6.434-5.974C27.414,42,30.326,44.666,30.326,47.974z M26.57,56.106v-8.133
	c-0.029-1.359-1.281-2.507-2.736-2.507c-1.456,0.027-2.679,1.172-2.679,2.507v8.133c0.029,1.574,1.252,2.453,2.679,2.453
	C25.318,58.533,26.57,57.415,26.57,56.106z"/>
<path fill="#302C3B" d="M45.871,47.974v8.133c0,3.228-2.91,5.894-6.492,5.894c-3.521,0-6.433-2.666-6.433-5.894v-8.133
	c0-3.308,2.911-5.974,6.433-5.974C42.961,42,45.871,44.666,45.871,47.974z M42.116,56.106v-8.133
	c-0.029-1.359-1.28-2.507-2.737-2.507c-1.455,0.027-2.678,1.172-2.678,2.507v8.133c0.029,1.574,1.252,2.453,2.678,2.453
	C40.864,58.533,42.116,57.415,42.116,56.106z"/>
<path fill="#302C3B" d="M62,61.893h-3.785l-5.385-11.68v11.68h-3.756V42.132h3.785l5.385,11.681V42.132H62V61.893z"/>
<polygon fill="#302C3B" points="61,18 45,2 45,12 3,12 3,24 45,24 45,34 "/>
<polygon fill="#1A1626" points="47,12 45,12 45,2 47,4 "/>
<polygon fill="#1A1626" points="5,12 5,22 47,22 47,32 45,34 45,24 3,24 3,12 "/>
<polygon fill="#4E5E67" points="53.403,11.537 58.935,17.896 56.919,21.053 60.184,17.911 "/>
</svg>
