<?xml version="1.0" encoding="utf-8"?>
<!-- Generator: Adobe Illustrator 15.0.0, SVG Export Plug-In . SVG Version: 6.00 Build 0)  -->
<!DOCTYPE svg PUBLIC "-//W3C//DTD SVG 1.1//EN" "http://www.w3.org/Graphics/SVG/1.1/DTD/svg11.dtd">
<svg version="1.1" id="Layer_1" xmlns="http://www.w3.org/2000/svg" xmlns:xlink="http://www.w3.org/1999/xlink" x="0px" y="0px"
	 width="64px" height="64px" viewBox="0 0 64 64" enable-background="new 0 0 64 64" xml:space="preserve">
<path fill="#302C3B" d="M14.925,50.259h7.604v3.482h-7.604v4.751h7.604V62H11V42h11.529v3.508h-7.604V50.259z"/>
<path fill="#302C3B" d="M39.537,62h-3.956l-5.627-11.822V62h-3.926V42h3.955l5.629,11.823V42h3.925V62z"/>
<path fill="#302C3B" d="M50.216,42C53.958,42,57,44.699,57,48.019v7.991c0,3.292-3.042,5.99-6.784,5.99h-6.724V42H50.216z
	 M50.216,58.492c1.552-0.027,2.859-1.134,2.859-2.482v-7.991c-0.029-1.401-1.308-2.511-2.859-2.511h-2.768v12.984H50.216z"/>
<polygon fill="#302C3B" points="3,18 19,2 19,12 61,12 61,24 19,24 19,34 "/>
<polygon fill="#1A1626" points="17,12 19,12 19,2 17,4 "/>
<polygon fill="#1A1626" points="59,12 59,22 17,22 17,32 19,34 19,24 61,24 61,12 "/>
<polygon fill="#4E5E67" points="10.597,11.537 5.065,17.896 7.081,21.053 3.815,17.911 "/>
</svg>
