<?xml version="1.0" encoding="utf-8"?>
<!-- Generator: Adobe Illustrator 15.0.0, SVG Export Plug-In . SVG Version: 6.00 Build 0)  -->
<!DOCTYPE svg PUBLIC "-//W3C//DTD SVG 1.1//EN" "http://www.w3.org/Graphics/SVG/1.1/DTD/svg11.dtd">
<svg version="1.1" id="Layer_1" xmlns="http://www.w3.org/2000/svg" xmlns:xlink="http://www.w3.org/1999/xlink" x="0px" y="0px"
	 width="64px" height="64px" viewBox="0 0 64 64" enable-background="new 0 0 64 64" xml:space="preserve">
<path fill="#F59E01" d="M45.337,19.158c0.604,0.611,1.203,1.226,1.795,1.848c5.154-3.543,6.58-6.694,7.73-9.282
	c0.971-2.181,1.612-3.624,4.358-4.772c0.643-0.268,0.948-1.013,0.684-1.664c-0.264-0.654-0.998-0.962-1.64-0.694
	c-3.669,1.533-4.652,3.741-5.692,6.079C51.475,13.14,50.228,15.909,45.337,19.158z"/>
<path fill="#F9B700" d="M44.354,18.168c0.599,0.599,1.192,1.201,1.783,1.806c4.981-4.315,5.984-7.639,6.791-10.357
	c0.662-2.231,1.098-3.708,3.732-5.233c0.604-0.349,0.813-1.127,0.469-1.739c-0.344-0.617-1.111-0.826-1.715-0.476
	c-3.506,2.029-4.179,4.305-4.893,6.712C49.769,11.423,48.909,14.276,44.354,18.168z"/>
<path fill="#E81C27" d="M53.846,29.895c1.675-1.701,1.675-4.46-0.001-6.161L41.687,11.387c-1.676-1.701-4.394-1.701-6.068,0
	L4,43.492l18.216,0.01L22.228,62L53.846,29.895z M38.658,26.808c-1.779-1.808-1.779-4.735,0-6.541c1.778-1.808,4.662-1.808,6.441,0
	c1.778,1.806,1.778,4.734-0.001,6.541C43.32,28.613,40.437,28.613,38.658,26.808z"/>
<path fill="#F46C60" d="M40.751,13.464L40.751,13.464L51.8,24.685c1.16,1.178,1.15,3.104-0.021,4.293L24.42,56.758l0.045-15.539
	L9.162,41.266l27.358-27.781C37.692,12.295,39.59,12.286,40.751,13.464 M41.403,12.801c-1.523-1.544-4.002-1.536-5.535,0.021
	L6.927,42.21l16.613-0.051L23.49,59.028l28.942-29.388c1.533-1.556,1.541-4.073,0.02-5.619c0,0,0,0,0,0L41.403,12.801L41.403,12.801
	z"/>
<path fill="#FDCA47" d="M48.157,14.131c-1.247-0.565-2.164-0.941-3.308-0.551c-1.748,0.595-3.188,2.277-4.278,5.002
	c-0.197,0.491-0.071,1.033,0.275,1.384c0.114,0.118,0.254,0.212,0.414,0.279c0.643,0.266,1.377-0.048,1.639-0.702
	c0.999-2.498,2.046-3.305,2.749-3.545c0.329-0.112,0.414,0.143,0.79,0.214C47.47,15.167,48.157,14.131,48.157,14.131z"/>
<path fill="#FDCA47" d="M51.685,20.52c0.35-1.057,0.117-1.977-0.311-3.124c0,0-0.718,0.752-1.979,1.816
	c-0.012,0.17-0.041,0.337-0.094,0.496c-0.234,0.714-1.031,1.777-3.49,2.793c-0.645,0.265-0.953,1.01-0.691,1.662
	c0.065,0.164,0.16,0.306,0.274,0.421c0.347,0.353,0.881,0.48,1.363,0.28C49.44,23.757,51.101,22.294,51.685,20.52z"/>
</svg>
