<?xml version="1.0" encoding="utf-8"?>
<!-- Generator: Adobe Illustrator 15.0.0, SVG Export Plug-In . SVG Version: 6.00 Build 0)  -->
<!DOCTYPE svg PUBLIC "-//W3C//DTD SVG 1.1//EN" "http://www.w3.org/Graphics/SVG/1.1/DTD/svg11.dtd">
<svg version="1.1" id="Layer_1" xmlns="http://www.w3.org/2000/svg" xmlns:xlink="http://www.w3.org/1999/xlink" x="0px" y="0px"
	 width="64px" height="64px" viewBox="0 0 64 64" enable-background="new 0 0 64 64" xml:space="preserve">
<path fill="#CFD8DD" d="M27.921,36.171c-4.613-4.529-6.14-12.287-0.129-18.346l11.7-11.784c6.013-6.06,13.824-4.641,18.438-0.108
	c4.611,4.531,6.136,12.288,0.126,18.345L46.358,36.063C40.349,42.123,32.535,40.704,27.921,36.171z M54.341,9.551
	c-2.81-2.758-7.366-3.809-11.209,0.063L31.433,21.402c-3.842,3.875-2.73,8.392,0.079,11.15c2.81,2.757,7.365,3.81,11.207-0.063
	l11.699-11.789C58.259,16.829,57.147,12.309,54.341,9.551z"/>
<path fill="#E6EBEF" d="M30.766,34.677c2.994,2.943,7.848,4.063,11.95-0.07l12.479-12.57c2.137-2.156,2.827-4.496,2.581-6.664
	c-0.169,1.711-0.952,3.477-2.594,5.13L42.707,33.071c-4.101,4.135-8.958,3.014-11.955,0.07c-1.432-1.405-2.438-3.244-2.666-5.228
	C27.834,30.474,28.968,32.912,30.766,34.677z"/>
<path fill="#E6EBEF" d="M28.69,19.238l11.014-11.1c5.658-5.702,13.017-4.365,17.36-0.101c2.156,2.117,3.593,4.983,3.803,8.03
	c0.184-3.541-1.341-6.955-3.812-9.385c-4.344-4.267-11.701-5.602-17.361,0.102L28.678,17.883c-2.848,2.874-3.894,6.152-3.682,9.246
	C25.136,24.45,26.251,21.697,28.69,19.238z"/>
<path fill="#99A8AE" d="M53.962,9.208c-0.116-0.128-0.229-0.254-0.351-0.373c-2.81-2.758-7.364-3.807-11.207,0.064L30.704,20.688
	c-3.841,3.873-2.729,8.391,0.08,11.149c0.12,0.12,0.25,0.23,0.379,0.344c-2.541-2.78-3.407-7.072,0.271-10.778L43.132,9.614
	C46.808,5.91,51.134,6.715,53.962,9.208z"/>
<path fill="#99A8AE" d="M57.931,5.933c-0.123-0.121-0.255-0.227-0.379-0.345c4.328,4.577,5.63,12.075-0.223,17.974L45.631,35.348
	c-5.854,5.898-13.407,4.701-18.061,0.45c0.12,0.124,0.228,0.254,0.352,0.373c4.613,4.533,12.427,5.952,18.437-0.107l11.698-11.786
	C64.066,18.221,62.542,10.464,57.931,5.933z"/>
<path opacity="0.3" fill="#302C3B" d="M33.605,34.236l-1.478-1.129c-0.378,3.332-1.474,5.166-1.474,5.166s0.672,0.406,1.525,0.754
	L33.605,34.236z"/>
<path opacity="0.3" fill="#302C3B" d="M38.946,34.784l-1.516,0.319l-2.457,4.789c0.875,0.392,3.631,0.132,3.631,0.132
	C39.728,37.471,38.946,34.784,38.946,34.784z"/>
<path fill="#BEC3CF" d="M7.821,59.55c-5.332-3.667-8.188-11.042-3.327-18.046l9.463-13.634c4.86-7.004,12.802-6.956,18.136-3.291
	c5.333,3.669,8.189,11.045,3.328,18.049l-9.461,13.631C21.096,63.266,13.154,63.215,7.821,59.55z M29.188,28.768
	c-3.246-2.234-7.916-2.48-11.023,1.996L8.704,44.396c-3.109,4.479-1.225,8.735,2.021,10.97c3.25,2.23,7.918,2.479,11.024-1.999
	l9.461-13.632C34.319,35.256,32.433,30.999,29.188,28.768z"/>
<path fill="#CFD8DD" d="M10.36,57.585c3.462,2.382,8.44,2.646,11.758-2.132l10.09-14.539c1.729-2.491,2.002-4.917,1.381-7.008
	c0.135,1.714-0.332,3.587-1.661,5.499L21.839,53.942c-3.319,4.78-8.297,4.515-11.758,2.133c-1.654-1.137-2.97-2.774-3.537-4.688
	C6.741,53.953,8.285,56.158,10.36,57.585z"/>
<path fill="#CFD8DD" d="M5.624,42.74l8.907-12.835c4.576-6.595,12.056-6.552,17.076-3.102c2.494,1.715,4.407,4.291,5.148,7.253
	c-0.438-3.52-2.534-6.619-5.391-8.582c-5.021-3.454-12.5-3.497-17.079,3.099L5.376,41.406c-2.306,3.322-2.763,6.733-2.013,9.741
	C3.035,48.484,3.652,45.579,5.624,42.74z"/>
<path fill="#99A8AE" d="M28.753,28.489c-0.132-0.101-0.266-0.206-0.407-0.303c-3.246-2.231-7.916-2.479-11.025,2L7.862,43.818
	c-3.11,4.479-1.226,8.734,2.021,10.969c0.142,0.097,0.287,0.184,0.431,0.273c-2.985-2.302-4.586-6.377-1.61-10.664l9.461-13.633
	C21.139,26.479,25.538,26.525,28.753,28.489z"/>
<path fill="#99A8AE" d="M32.092,24.579c-0.141-0.098-0.289-0.177-0.435-0.269c5.064,3.756,7.655,10.919,2.92,17.736l-9.461,13.632
	c-4.733,6.821-12.38,6.945-17.704,3.564c0.137,0.101,0.267,0.209,0.408,0.307c5.333,3.665,13.275,3.716,18.138-3.291l9.461-13.631
	C40.376,35.531,37.426,28.248,32.092,24.579z"/>
<path opacity="0.3" fill="#302C3B" d="M25.618,22.207c-1.414-0.179-2.87,0.028-2.87,0.028c-0.765,2.563,0.452,5.076,0.452,5.076
	l1.365-0.143L25.618,22.207z"/>
<path opacity="0.3" fill="#302C3B" d="M31.399,24.133c0,0-1.728-1.077-2.647-1.097l-1.479,4.443l1.974,1.364
	C29.247,28.844,29.167,26.435,31.399,24.133z"/>
<path fill="#CFD8DD" d="M31.433,21.402l9.113-9.182l-5.441-1.764l-7.312,7.368C22.658,23,23.034,29.407,26.124,33.992l3.194-4.922
	C28.542,26.676,28.95,23.907,31.433,21.402z"/>
<path fill="#E6EBEF" d="M28.66,30.091c-0.289-0.694-0.487-1.424-0.573-2.177c-0.092,0.921-0.004,1.829,0.232,2.694L28.66,30.091z"/>
<path fill="#E6EBEF" d="M28.69,19.238l8.155-8.216l-1.025-0.333l-7.141,7.193c-2.848,2.874-3.894,6.152-3.682,9.246
	C25.136,24.45,26.251,21.697,28.69,19.238z"/>
<path fill="#99A8AE" d="M39.457,11.868l-8.753,8.819c-2.881,2.905-2.976,6.172-1.656,8.788l0.272-0.394
	c-0.784-2.394-0.376-5.171,2.113-7.68l9.113-9.182L39.457,11.868z"/>
</svg>
