<?xml version="1.0" encoding="utf-8"?>
<!-- Generator: Adobe Illustrator 15.0.0, SVG Export Plug-In . SVG Version: 6.00 Build 0)  -->
<!DOCTYPE svg PUBLIC "-//W3C//DTD SVG 1.1//EN" "http://www.w3.org/Graphics/SVG/1.1/DTD/svg11.dtd">
<svg version="1.1" id="Layer_1" xmlns="http://www.w3.org/2000/svg" xmlns:xlink="http://www.w3.org/1999/xlink" x="0px" y="0px"
	 width="64px" height="64px" viewBox="0 0 64 64" enable-background="new 0 0 64 64" xml:space="preserve">
<path fill="#F59E01" d="M45.398,35.466L25,35.46L4.602,35.466c0,0-0.857,23.5-0.253,25.924c7.217,0.814,34.086,0.814,41.303,0
	C46.256,58.966,45.398,35.466,45.398,35.466z"/>
<path fill="#EA8800" d="M47.981,32.302c0-0.607-0.552-0.941-0.905-1.031c-6.728-1.693-37.425-1.693-44.152,0
	c-0.354,0.09-0.905,0.424-0.905,1.031C2.019,39.739,2,56.993,2,60.202c0,0.605,1.305,1.02,2.349,1.188
	c0-1.193,0.302-25.805,0.302-25.805L25,35.331l20.35,0.254c0,0,0.302,24.611,0.302,25.805C46.695,61.222,48,60.808,48,60.202
	C48,56.993,47.981,39.739,47.981,32.302z"/>
<path fill="#FFE463" d="M45.476,35.065c-0.358,0.359-6.672,0-20.476,0s-20.117,0.359-20.476,0c-0.65-0.65-2.222-3.408-2.222-3.408
	s2.045,3.775,2.045,4.686c0,7.438-0.215,23.969,0.001,25.047c0.276-1.262,0.556-23.135,0.748-24.721
	c0.095-0.773,9.735-0.727,19.903-0.727s19.809-0.047,19.903,0.727c0.192,1.586,0.472,23.459,0.748,24.721
	c0.216-1.078,0.001-17.609,0.001-25.047c0-0.91,2.045-4.686,2.045-4.686S46.126,34.415,45.476,35.065z"/>
<path fill="#AB5C10" d="M15.27,32.587c0,2.113-9,2.113-9,0C6.27,30.472,15.27,30.472,15.27,32.587z"/>
<path fill="#AB5C10" d="M43.714,32.587c0,2.113-9,2.113-9,0C34.714,30.472,43.714,30.472,43.714,32.587z"/>
<path fill="#CFD8DD" d="M25,2.001c-9.941,0-18,7.936-18,17.727v12.91c0,1.818,7.538,1.818,7.538,0v-12.91
	c0-13.779,20.924-13.779,20.924,0v12.91c0,1.818,7.538,1.818,7.538,0v-12.91C43,9.937,34.939,2.001,25,2.001z"/>
<path fill="#99A8AE" d="M12.538,19.731v12.91c0,0.746-1.272,1.182-2.769,1.314c2.15,0.193,4.769-0.242,4.769-1.314v-12.91
	c0-6.449,4.585-9.879,9.462-10.291C18.458,8.974,12.538,12.403,12.538,19.731z"/>
<path fill="#99A8AE" d="M25,2.005c-0.338,0-0.667,0.033-1,0.051c9.471,0.514,17,8.219,17,17.676v12.91
	c0,0.746-1.272,1.182-2.77,1.314c2.152,0.193,4.77-0.242,4.77-1.314v-12.91C43,9.942,34.939,2.005,25,2.005z"/>
<path fill="#E6EBEF" d="M36.805,18.431c-0.309-6.273-5.617-10.035-11.263-9.723c5.646,0.625,10.052,3.643,10.584,9.938
	c0.322,3.813-0.102,13.563,0.288,12.199C36.99,28.827,36.895,20.267,36.805,18.431z"/>
<path fill="#E6EBEF" d="M7.537,19.851c0-9.346,7.701-16.996,15.603-16.996C14.936,4.448,9.016,10.417,8.377,20.157
	c-0.48,7.357-0.838,14.893-0.838,10.076C7.539,26.313,7.537,22.856,7.537,19.851z"/>
<path opacity="0.5" fill="#302C3B" d="M43,30.661v-4.285l-7.537-10.183v6.677c0,0,1.27,5.413,6.328,7.683l0.139,24.863l2.521,6.088
	l1.2-0.114l3.943-3.194l-2.398-26.772C47.196,31.423,45.353,30.782,43,30.661z"/>
<path fill="#F9B700" d="M48.564,2c-7.398-0.018-13.383,5.966-13.363,13.367c0.015,6.06,4.053,11.183,9.576,12.854
	c-0.002,0.012-0.009,0.021-0.009,0.032l0.161,27.162l2.723,6.572L49.439,62l3.155-3.805l-0.179-29.893
	c0.002-0.014-0.008-0.026-0.01-0.039c5.559-1.616,9.609-6.737,9.594-12.827C61.982,8.034,55.968,2.021,48.564,2z M52.651,11.351
	c0.007,2.243-1.808,4.056-4.051,4.052c-2.243-0.008-4.064-1.829-4.071-4.072c-0.006-2.241,1.809-4.055,4.049-4.049
	C50.822,7.286,52.646,9.109,52.651,11.351z"/>
<polygon fill="#D47706" points="53.652,52.757 53.643,51.107 52.543,50.002 52.595,58.195 54.762,55.478 54.752,53.863 "/>
<polygon fill="#D47706" points="53.581,41.284 53.568,39.635 52.47,38.529 52.532,48.363 53.617,47.275 53.607,45.636 
	54.692,44.552 54.679,42.367 "/>
<path fill="#EA8800" d="M47.5,30.262c-0.002-0.576-1.096-0.584-1.092-0.007l0.153,24.119c0.004,0.576,1.097,0.582,1.093,0.006
	L47.5,30.262z"/>
<path fill="#EA8800" d="M50.778,30.283c-0.003-0.577-1.096-0.583-1.092-0.008l0.151,24.119c0.006,0.576,1.098,0.584,1.094,0.006
	L50.778,30.283z"/>
<path fill="#FFE463" d="M49.812,15.912c5.49-0.291,5.49-8.9,0.001-9.191C54.2,8.078,54.2,14.555,49.812,15.912z"/>
<path fill="#EA8800" d="M47.031,6.676c-5.49,0.294-5.49,8.986-0.001,9.28C42.643,14.586,42.643,8.046,47.031,6.676z"/>
<path fill="#FFE463" d="M45.762,2.923c-12.926,2.56-13.21,21.565-0.861,24.854c0.938,0.25,1.051-0.041,0.125-0.396
	c-11.37-4.356-10.452-21.265,1.029-24.153C46.652,3.077,46.451,2.786,45.762,2.923z"/>
<path fill="#EA8800" d="M50.06,3.021c11.707,1.761,14.263,18.5,3.369,23.939c-0.887,0.442-0.746,0.722,0.163,0.382
	c11.971-4.472,9.843-23.36-3.271-24.652C49.622,2.621,49.45,2.93,50.06,3.021z"/>
<path fill="#FFE463" d="M45.132,29.169c0,0,0.083,25.416,0.271,26.057c0.244,0.832,2.938,7.365,2.429,5.631
	c-0.883-3.001-1.96-5.318-2.038-5.865c-0.077-0.543-0.136-25.828-0.136-25.828C45.655,28.587,45.128,28.592,45.132,29.169z"/>
</svg>
