<?xml version="1.0" encoding="utf-8"?>
<!-- Generator: Adobe Illustrator 15.0.0, SVG Export Plug-In . SVG Version: 6.00 Build 0)  -->
<!DOCTYPE svg PUBLIC "-//W3C//DTD SVG 1.1//EN" "http://www.w3.org/Graphics/SVG/1.1/DTD/svg11.dtd">
<svg version="1.1" id="Layer_1" xmlns="http://www.w3.org/2000/svg" xmlns:xlink="http://www.w3.org/1999/xlink" x="0px" y="0px"
	 width="64px" height="64px" viewBox="0 0 64 64" enable-background="new 0 0 64 64" xml:space="preserve">
<path fill="#E81C27" d="M32,2C15.432,2,2,15.432,2,32s13.432,30,30,30s30-13.432,30-30S48.568,2,32,2z M32,56
	C18.744,56,8,45.256,8,32C8,18.746,18.744,8,32,8c13.254,0,24,10.746,24,24C56,45.256,45.254,56,32,56z"/>
<path fill="#302C3B" d="M16.127,27.057V23.57c1.613-0.072,2.742-0.18,3.389-0.324c1.027-0.227,1.865-0.684,2.51-1.365
	c0.443-0.469,0.777-1.092,1.004-1.871c0.133-0.467,0.197-0.814,0.197-1.041h4.279v26.064h-5.248V27.057H16.127z"/>
<path fill="#302C3B" d="M30.744,33.557c0.66-1.188,1.629-2.08,2.904-2.68c-1.266-0.838-2.086-1.746-2.465-2.723
	s-0.568-1.891-0.568-2.742c0-1.893,0.715-3.508,2.145-4.844c1.428-1.336,3.447-2.004,6.053-2.004c2.607,0,4.625,0.668,6.053,2.004
	c1.43,1.336,2.145,2.951,2.145,4.844c0,0.852-0.189,1.766-0.566,2.742s-1.195,1.824-2.453,2.543
	c1.287,0.719,2.258,1.672,2.908,2.859c0.648,1.186,0.975,2.51,0.975,3.973c0,2.193-0.814,4.059-2.439,5.6
	c-1.625,1.539-3.895,2.309-6.809,2.309c-2.916,0-5.125-0.77-6.623-2.309c-1.5-1.541-2.25-3.406-2.25-5.6
	C29.752,36.066,30.082,34.742,30.744,33.557z M36.072,40.172c0.664,0.707,1.584,1.061,2.758,1.061s2.094-0.354,2.76-1.061
	s0.998-1.703,0.998-2.984c0-1.33-0.338-2.34-1.016-3.029s-1.592-1.033-2.742-1.033s-2.064,0.344-2.74,1.033
	c-0.678,0.689-1.016,1.699-1.016,3.029C35.074,38.469,35.406,39.465,36.072,40.172z M36.398,28.307
	c0.582,0.6,1.389,0.898,2.424,0.898c1.045,0,1.852-0.299,2.424-0.898c0.57-0.6,0.855-1.371,0.855-2.318
	c0-1.031-0.285-1.836-0.855-2.418c-0.572-0.582-1.379-0.873-2.424-0.873c-1.035,0-1.842,0.291-2.424,0.873
	c-0.584,0.582-0.875,1.387-0.875,2.418C35.523,26.936,35.814,27.707,36.398,28.307z"/>
<rect x="2.815" y="29" transform="matrix(-0.7071 -0.7071 0.7071 -0.7071 31.9989 77.2548)" fill="#E81C27" width="58.371" height="6.001"/>
</svg>
