<?xml version="1.0" encoding="utf-8"?>
<!-- Generator: Adobe Illustrator 15.0.0, SVG Export Plug-In . SVG Version: 6.00 Build 0)  -->
<!DOCTYPE svg PUBLIC "-//W3C//DTD SVG 1.1//EN" "http://www.w3.org/Graphics/SVG/1.1/DTD/svg11.dtd">
<svg version="1.1" id="Layer_1" xmlns="http://www.w3.org/2000/svg" xmlns:xlink="http://www.w3.org/1999/xlink" x="0px" y="0px"
	 width="64px" height="64px" viewBox="0 0 64 64" enable-background="new 0 0 64 64" xml:space="preserve">
<path fill="#F59E01" d="M32,2c-3.314,0-6,2.761-6,6.166s2.686,6.167,6,6.167c3.313,0,6-2.762,6-6.167S35.313,2,32,2z M31.979,11.64
	c-1.878,0-3.399-1.564-3.399-3.493c0-1.931,1.521-3.495,3.399-3.495s3.399,1.564,3.399,3.495
	C35.379,10.075,33.857,11.64,31.979,11.64z"/>
<path fill="#EA8800" d="M31.979,4.651c0.888,0,1.694,0.353,2.3,0.926c-0.622-0.693-1.51-1.132-2.5-1.132
	c-1.877,0-3.399,1.565-3.399,3.494c0,1.018,0.426,1.931,1.101,2.569c-0.558-0.623-0.9-1.45-0.9-2.362
	C28.58,6.216,30.102,4.651,31.979,4.651z"/>
<path fill="#F9B700" d="M32.168,2.406c0.469,0,0.353-0.236-0.23-0.236c-3.183,0-5.763,2.651-5.763,5.922
	c0,0.831,0.23,0.947,0.23,0.236C26.405,5.058,28.985,2.406,32.168,2.406z"/>
<path fill="#F9B700" d="M14.791,25.348c0-22.908,34.418-22.908,34.418,0C49.209,36.825,61,55.008,61,55.008L2.307,55.115
	C2.307,55.115,14.791,36.825,14.791,25.348z"/>
<path fill="#F59E01" d="M49.209,25.348c0-8.379-4.604-13.692-10.445-15.94c5.164,3.143,6.275,8.173,6.275,17.507
	c0,11.479,8.98,28.094,8.98,28.094l7.743,0.23C61.763,55.238,49.209,36.825,49.209,25.348z"/>
<path fill="#F59E01" d="M62,56.148c0,7.802-60,7.802-60,0C2,47.566,62,47.566,62,56.148z"/>
<path fill="#302C3B" d="M59.033,56.444c0,6.282-54.066,6.282-54.066,0C4.967,49.534,59.033,49.534,59.033,56.444z"/>
<path fill="#1A1626" d="M24.382,51.449c15.505-0.782,34.651,0.882,34.651,4.995c0,2.022-5.614,3.394-13.221,4.114
	C43.529,55.241,34.441,52.203,24.382,51.449z"/>
<path fill="#F59E01" d="M21.901,51.653c0.822,13.443,19.377,13.448,20.195,0C35.79,51.113,28.208,51.113,21.901,51.653z"/>
<path fill="#D47706" d="M41.171,51.578c-1.727,8.372-13.469,8.298-15.041-0.197c-1.453,0.066-2.87,0.156-4.229,0.272
	c0.822,13.443,19.377,13.448,20.195,0C41.79,51.626,41.481,51.603,41.171,51.578z"/>
<path fill="#AB5C10" d="M21.828,51.603c6.106-0.561,16.153-0.544,20.37,0.002c0,0-0.102,2.069-0.996,4.064
	c-0.984-3.082-9.203-4.42-19.209-3.055C21.877,52.018,21.828,51.603,21.828,51.603z"/>
<path fill-rule="evenodd" clip-rule="evenodd" fill="#FFE463" d="M17.813,22.007c0.425,3.476,6.02-3.325,11.682-9.174
	C33.148,9.07,16.535,11.548,17.813,22.007z"/>
<path fill-rule="evenodd" clip-rule="evenodd" fill="#F59E01" d="M29.353,59.158c1.272-0.37-1.594-2.164-4.11-4.041
	C23.623,53.906,25.522,60.268,29.353,59.158z"/>
<path fill-rule="evenodd" clip-rule="evenodd" fill="#F59E01" d="M31.341,59.832c0,0.662-1.408,0.662-1.408,0
	C29.933,59.169,31.341,59.169,31.341,59.832z"/>
<path fill-rule="evenodd" clip-rule="evenodd" fill="#FFE463" d="M6.706,51.005C3.831,52.07,18.545,47.35,35.84,48.432
	C40.757,48.739,23.229,44.883,6.706,51.005z"/>
</svg>
