<?xml version="1.0" encoding="utf-8"?>
<!-- Generator: Adobe Illustrator 15.0.0, SVG Export Plug-In . SVG Version: 6.00 Build 0)  -->
<!DOCTYPE svg PUBLIC "-//W3C//DTD SVG 1.1//EN" "http://www.w3.org/Graphics/SVG/1.1/DTD/svg11.dtd">
<svg version="1.1" id="Layer_1" xmlns="http://www.w3.org/2000/svg" xmlns:xlink="http://www.w3.org/1999/xlink" x="0px" y="0px"
	 width="64px" height="64px" viewBox="0 0 64 64" enable-background="new 0 0 64 64" xml:space="preserve">
<path fill="#F59E01" d="M52.399,35.465L32,35.46l-20.399,0.005c0,0-0.856,23.5-0.252,25.924c7.217,0.814,34.086,0.814,41.303,0
	C53.256,58.965,52.399,35.465,52.399,35.465z"/>
<path fill="#EA8800" d="M54.981,32.301c0-0.607-0.552-0.94-0.904-1.03c-6.729-1.694-37.426-1.694-44.154,0
	c-0.353,0.09-0.904,0.423-0.904,1.03C9.019,39.738,9,56.993,9,60.202c0,0.604,1.304,1.02,2.349,1.187
	c0-1.192,0.302-25.804,0.302-25.804L32,35.331l20.35,0.254c0,0,0.302,24.611,0.302,25.804C53.696,61.222,55,60.807,55,60.202
	C55,56.993,54.981,39.738,54.981,32.301z"/>
<path fill="#FFE463" d="M52.476,35.064c-0.357,0.359-6.672,0-20.476,0s-20.118,0.359-20.476,0c-0.65-0.649-2.222-3.407-2.222-3.407
	s2.044,3.774,2.044,4.686c0,7.438-0.213,23.968,0.002,25.046c0.276-1.262,0.556-23.135,0.748-24.72
	c0.094-0.774,9.735-0.727,19.903-0.727c10.167,0,19.81-0.048,19.903,0.727c0.193,1.585,0.472,23.458,0.748,24.72
	c0.215-1.078,0.002-17.608,0.002-25.046c0-0.911,2.044-4.686,2.044-4.686S53.126,34.415,52.476,35.064z"/>
<path fill="#AB5C10" d="M22.269,32.586c0,2.114-9,2.114-9,0S22.269,30.472,22.269,32.586z"/>
<path fill="#AB5C10" d="M50.714,32.586c0,2.114-9,2.114-9,0S50.714,30.472,50.714,32.586z"/>
<polygon fill="#99A8AE" points="17.611,20.742 17.611,24.532 18.611,24.532 18.611,20.227 "/>
<path fill="#CFD8DD" d="M32,2c-9.942,0-18,7.937-18,17.727v4.91c0,1.818,7.538,1.818,7.538,0v-0.785H18.02v-2l3.519-2.125
	c0-13.779,20.924-13.779,20.924,0v12.91c0,1.818,7.538,1.818,7.538,0v-12.91C50,9.937,41.938,2,32,2z"/>
<path fill="#99A8AE" d="M19.538,19.731v1.203l2-1.203c0-6.45,4.584-9.88,9.462-10.292C25.458,8.973,19.538,12.402,19.538,19.731z"/>
<path fill="#99A8AE" d="M19.538,23.852v0.79c0,0.746-1.272,1.181-2.77,1.314c2.152,0.192,4.77-0.242,4.77-1.314v-0.79H19.538z"/>
<path fill="#99A8AE" d="M32,2.005c-0.337,0-0.667,0.032-1,0.05c9.472,0.514,17,8.219,17,17.677v12.91
	c0,0.746-1.272,1.181-2.769,1.314C47.382,34.148,50,33.714,50,32.642v-12.91C50,9.941,41.938,2.005,32,2.005z"/>
<path fill="#E6EBEF" d="M43.804,18.431c-0.309-6.273-5.616-10.036-11.262-9.724c5.646,0.625,10.052,3.644,10.584,9.938
	c0.322,3.813-0.102,13.563,0.289,12.2C43.99,28.826,43.895,20.267,43.804,18.431z"/>
<path fill="#E6EBEF" d="M14.538,19.85c0-9.345,7.699-16.995,15.602-16.995c-8.203,1.594-14.125,7.562-14.762,17.303
	C14.896,27.514,14.538,22.855,14.538,19.85z"/>
</svg>
