<?xml version="1.0" encoding="utf-8"?>
<!-- Generator: Adobe Illustrator 15.0.0, SVG Export Plug-In . SVG Version: 6.00 Build 0)  -->
<!DOCTYPE svg PUBLIC "-//W3C//DTD SVG 1.1//EN" "http://www.w3.org/Graphics/SVG/1.1/DTD/svg11.dtd">
<svg version="1.1" id="Layer_1" xmlns="http://www.w3.org/2000/svg" xmlns:xlink="http://www.w3.org/1999/xlink" x="0px" y="0px"
	 width="64px" height="64px" viewBox="0 0 64 64" enable-background="new 0 0 64 64" xml:space="preserve">
<path fill="#006DAE" d="M62,50c0,6.6-5.4,12-12,12H14C7.4,62,2,56.6,2,50V14C2,7.399,7.4,2,14,2h36c6.6,0,12,5.399,12,12V50z"/>
<path fill="#014D87" d="M56.838,4.162C58.197,6.105,59,8.462,59,11v37c0,6.6-4.398,11-11,11H11c-2.537,0-4.895-0.805-6.838-2.162
	C6.336,59.949,9.938,62,14,62h36c6.602,0,12-5.4,12-12V14C62,9.938,59.951,6.336,56.838,4.162z"/>
<path fill-rule="evenodd" clip-rule="evenodd" fill="#0FB4D4" d="M4.975,12.585c0.338,2.703,4.793-2.587,9.303-7.136
	C17.188,2.524,3.957,4.45,4.975,12.585z"/>
<path fill="#FFFFFF" d="M26,48h-6.107V24.977c-2.232,2.088-4.863,3.631-7.893,4.631v-5.543c1.594-0.521,3.326-1.512,5.195-2.967
	c1.871-1.457,3.152-3.156,3.85-5.098H26V48z"/>
<path fill="#FFFFFF" d="M41,16c3.281,0,5.848,1.084,7.695,3.25C50.898,21.814,52,26.066,52,32.012
	c0,5.928-1.109,10.188-3.328,12.779C46.84,46.93,44.281,48,41,48c-3.297,0-5.955-1.174-7.973-3.516
	C31.01,42.139,30,37.959,30,31.947c0-5.9,1.109-10.148,3.328-12.74C35.162,17.068,37.719,16,41,16z M41,20.979
	c-0.785,0-1.486,0.232-2.104,0.695c-0.615,0.465-1.094,1.295-1.432,2.492c-0.447,1.551-0.67,4.168-0.67,7.846
	c0,3.676,0.199,6.201,0.6,7.576s0.906,2.291,1.514,2.746c0.609,0.455,1.307,0.684,2.092,0.684s1.486-0.23,2.104-0.691
	c0.615-0.465,1.094-1.295,1.432-2.494c0.447-1.539,0.672-4.145,0.672-7.82c0-3.678-0.201-6.203-0.602-7.58
	c-0.4-1.375-0.904-2.293-1.514-2.758C42.482,21.211,41.785,20.979,41,20.979z"/>
</svg>
