<?xml version="1.0" encoding="utf-8"?>
<!-- Generator: Adobe Illustrator 15.0.0, SVG Export Plug-In . SVG Version: 6.00 Build 0)  -->
<!DOCTYPE svg PUBLIC "-//W3C//DTD SVG 1.1//EN" "http://www.w3.org/Graphics/SVG/1.1/DTD/svg11.dtd">
<svg version="1.1" id="Layer_1" xmlns="http://www.w3.org/2000/svg" xmlns:xlink="http://www.w3.org/1999/xlink" x="0px" y="0px"
	 width="64px" height="64px" viewBox="0 0 64 64" enable-background="new 0 0 64 64" xml:space="preserve">
<path fill="#302C3B" d="M14.703,55.975c0,3.252-2.86,5.918-6.381,5.918H2V42.134h6.322c3.521,0,6.381,2.668,6.381,5.948
	c0,1.624-0.715,2.986-1.888,3.918C13.988,52.96,14.703,54.32,14.703,55.975z M5.691,50.533h2.631c1.432,0,2.662-1.121,2.662-2.451
	c0-1.362-1.202-2.48-2.662-2.48H5.691V50.533z M8.322,58.428c1.432,0,2.662-1.121,2.662-2.453c0-1.334-1.202-2.48-2.662-2.48H5.691
	v4.934H8.322z"/>
<path fill="#302C3B" d="M20.999,56.961l-1.288,4.932h-3.72l5.179-19.759h5.035l5.179,19.759h-3.719l-1.287-4.932H20.999z
	 M23.688,46.72l-1.831,7.041h3.691L23.688,46.72z"/>
<path fill="#302C3B" d="M41.656,47.974c-0.029-1.359-1.23-2.507-2.661-2.507c-1.431,0.027-2.632,1.173-2.632,2.507v8.134
	c0.028,1.573,1.229,2.453,2.632,2.453c1.459-0.027,2.661-1.146,2.661-2.453v-2h3.719v2c0,3.227-2.861,5.893-6.38,5.893
	c-3.461,0-6.323-2.666-6.323-5.893v-8.134c0-3.308,2.862-5.974,6.323-5.974c3.519,0,6.38,2.666,6.38,5.974v1.946h-3.719V47.974z"/>
<path fill="#302C3B" d="M62,61.893h-4.235l-4.463-8.264l-1.06,1.599v6.665h-3.719V42.134h3.719v7.813l5.522-7.813H62l-6.066,8.508
	L62,61.893z"/>
<polygon fill="#302C3B" points="3,18 19,2 19,12 61,12 61,24 19,24 19,34 "/>
<polygon fill="#1A1626" points="17,12 19,12 19,2 17,4 "/>
<polygon fill="#1A1626" points="59,12 59,22 17,22 17,32 19,34 19,24 61,24 61,12 "/>
<polygon fill="#4E5E67" points="10.596,11.537 5.064,17.896 7.08,21.053 3.815,17.911 "/>
</svg>
