<?xml version="1.0" encoding="utf-8"?>
<!-- Generator: Adobe Illustrator 15.0.0, SVG Export Plug-In . SVG Version: 6.00 Build 0)  -->
<!DOCTYPE svg PUBLIC "-//W3C//DTD SVG 1.1//EN" "http://www.w3.org/Graphics/SVG/1.1/DTD/svg11.dtd">
<svg version="1.1" id="Layer_1" xmlns="http://www.w3.org/2000/svg" xmlns:xlink="http://www.w3.org/1999/xlink" x="0px" y="0px"
	 width="64px" height="64px" viewBox="0 0 64 64" enable-background="new 0 0 64 64" xml:space="preserve">
<path fill="#302C3B" d="M18.372,45.604v16.299h-3.793V45.604H10v-3.467h12.956v3.467H18.372z"/>
<path fill="#302C3B" d="M37.808,47.977v8.135c0,3.223-2.917,5.889-6.508,5.889c-3.53,0-6.448-2.666-6.448-5.889v-8.135
	C24.852,44.676,27.77,42,31.3,42C34.891,42,37.808,44.676,37.808,47.977z M34.041,56.111v-8.135c-0.026-1.357-1.282-2.5-2.741-2.5
	c-1.458,0.02-2.687,1.172-2.687,2.5v8.135c0.032,1.572,1.256,2.451,2.687,2.451C32.785,58.533,34.041,57.42,34.041,56.111z"/>
<path fill="#302C3B" d="M47.493,42.137c3.591,0,6.507,2.666,6.507,5.947v0.752c0,3.223-2.916,5.889-6.507,5.889h-2.683v7.178h-3.792
	V42.137H47.493z M47.493,51.287c1.491-0.029,2.714-1.152,2.714-2.451v-0.752c-0.031-1.387-1.223-2.48-2.714-2.48h-2.683v5.684
	H47.493z"/>
<polygon fill="#302C3B" points="32,2 48,18 38,18 38,34 26,34 26,18 16,18 "/>
<polygon fill="#1A1626" points="38,16 38,18 48,18 46,16 "/>
<polygon fill="#1A1626" points="38,32 28,32 28,16 18,16 16,18 26,18 26,34 38,34 "/>
<polygon fill="#4E5E67" points="38.463,9.596 32.104,4.064 28.947,6.08 32.089,2.816 "/>
</svg>
