<?xml version="1.0" encoding="utf-8"?>
<!-- Generator: Adobe Illustrator 15.0.0, SVG Export Plug-In . SVG Version: 6.00 Build 0)  -->
<!DOCTYPE svg PUBLIC "-//W3C//DTD SVG 1.1//EN" "http://www.w3.org/Graphics/SVG/1.1/DTD/svg11.dtd">
<svg version="1.1" id="Layer_1" xmlns="http://www.w3.org/2000/svg" xmlns:xlink="http://www.w3.org/1999/xlink" x="0px" y="0px"
	 width="64px" height="64px" viewBox="0 0 64 64" enable-background="new 0 0 64 64" xml:space="preserve">
<path fill="#006DAE" d="M62,50c0,6.6-5.4,12-12,12H14C7.4,62,2,56.6,2,50V14C2,7.4,7.4,2,14,2h36c6.6,0,12,5.4,12,12V50z"/>
<path fill="#014D87" d="M56.838,4.162C58.197,6.105,59,8.463,59,11v37c0,6.6-4.398,11-11,11H11c-2.537,0-4.895-0.805-6.838-2.162
	C6.336,59.949,9.938,62,14,62h36c6.602,0,12-5.4,12-12V14C62,9.938,59.951,6.336,56.838,4.162z"/>
<path fill-rule="evenodd" clip-rule="evenodd" fill="#0FB4D4" d="M4.975,12.586c0.338,2.703,4.793-2.588,9.303-7.137
	C17.188,2.525,3.957,4.451,4.975,12.586z"/>
<path fill="#FFFFFF" d="M27.528,29.043h-3.766v-1.092c-0.898,0.78-2.086,1.196-3.215,1.196c-2.665,0-4.547-1.534-4.547-4.162
	c0-2.937,2.23-4.446,6.025-4.446h1.737v-1.145c0-0.987-0.752-1.664-1.883-1.664c-1.1,0-1.853,0.677-1.853,1.664h-3.766
	c0-3.017,2.258-5.044,5.619-5.044s5.591,1.977,5.648,4.94V29.043z M23.762,24.103v-0.755h-0.695c-1.129,0-3.243-0.026-3.243,1.406
	c0,0.831,0.608,1.324,1.534,1.324C22.574,26.078,23.762,25.272,23.762,24.103z"/>
<path fill="#FFFFFF" d="M47.998,24.103c0.086,3.094-2.173,5.045-4.838,5.045c-1.014,0-1.94-0.338-2.664-0.962v0.857H36.73V10h3.766
	v5.313c0.724-0.625,1.65-0.962,2.664-0.962c2.665,0,4.924,1.95,4.838,5.044V24.103z M44.232,24.103v-4.708
	c0-0.936-0.869-1.664-1.854-1.664c-1.042,0-1.882,0.729-1.882,1.664v4.708c0,0.937,0.84,1.69,1.882,1.69
	C43.363,25.793,44.232,25.039,44.232,24.103z"/>
<path fill="#FFFFFF" d="M23.631,42.248c0-0.937-0.81-1.664-1.853-1.664c-1.014,0-1.883,0.728-1.883,1.664v4.707
	c0,0.936,0.84,1.69,1.883,1.69c1.071,0,1.853-0.755,1.853-1.69v-0.521h3.766v0.521c0,2.782-2.519,5.045-5.618,5.045
	c-3.071,0-5.562-2.186-5.649-4.914v-4.941c0.058-2.73,2.549-4.941,5.649-4.941c3.099,0,5.618,2.262,5.618,5.045v0.52h-3.766V42.248z
	"/>
<path fill="#FFFFFF" d="M48,51.896h-3.736V50.96C43.482,51.637,42.497,52,41.453,52c-2.664,0-5.068-1.951-4.981-5.045v-4.707
	c-0.087-3.096,2.462-5.045,5.503-5.045c0.812,0,1.594,0.234,2.289,0.65v-5H48V51.896z M44.264,46.955v-4.707
	c0-0.937-0.955-1.664-2.027-1.664c-1.043,0-1.999,0.728-1.999,1.664v4.707c0,0.936,0.956,1.69,1.999,1.69
	C43.309,48.646,44.264,47.891,44.264,46.955z"/>
</svg>
