<?xml version="1.0" encoding="utf-8"?>
<!-- Generator: Adobe Illustrator 15.0.0, SVG Export Plug-In . SVG Version: 6.00 Build 0)  -->
<!DOCTYPE svg PUBLIC "-//W3C//DTD SVG 1.1//EN" "http://www.w3.org/Graphics/SVG/1.1/DTD/svg11.dtd">
<svg version="1.1" id="Layer_1" xmlns="http://www.w3.org/2000/svg" xmlns:xlink="http://www.w3.org/1999/xlink" x="0px" y="0px"
	 width="64px" height="64px" viewBox="0 0 64 64" enable-background="new 0 0 64 64" xml:space="preserve">
<path fill="#1A1626" d="M25.78,38.072c0,0,18.602,17.364,24.687,23.272c1.55,1.506,5.202,0.332,8.206-2.672s4.178-6.656,2.672-8.206
	C55.437,44.382,38.072,25.78,38.072,25.78L25.78,38.072z"/>
<path fill="#4E5E67" d="M21.365,34.777c0,0,20.297,18.946,26.937,25.394c1.691,1.643,5.676,0.361,8.953-2.916
	s4.559-7.262,2.916-8.953c-6.447-6.641-25.393-26.937-25.393-26.937L21.365,34.777z"/>
<path fill="#302C3B" d="M22.116,33.985c0,0,26.253,25.351,27.377,25.924c1.182,0.602,5.039-0.877,7.9-4.381l-25.902-27.59
	L22.116,33.985z"/>
<path fill="#6E8189" d="M39.164,39.164c-2.53,2.53-5.389,4.119-8.048,4.663l-0.469-0.362c0,0-0.088,0.243-0.007,0.452
	c3.897,3.656,8.286,7.784,11.956,11.263c2.621-0.188,5.703-1.678,8.305-4.279s4.09-5.683,4.279-8.304
	c-3.479-3.67-7.607-8.059-11.264-11.957c-0.217-0.023-0.389,0.075-0.389,0.075l0.297,0.413
	C43.281,33.787,41.694,36.634,39.164,39.164z"/>
<path fill="#4E5E67" d="M41.112,38.042c-4.381,4.981-8.911,6.059-8.911,6.059l11.476,10.932c0,0,4.62-0.494,8.33-5.346
	L41.112,38.042z"/>
<path fill="#1A1626" d="M36.144,33.231c5.498,5.499,2.588,8.41-2.912,2.912C31.291,34.202,34.202,31.292,36.144,33.231z"/>
<path fill="#4E5E67" d="M36.128,33.583c1.696,1.696-0.848,4.241-2.545,2.545C31.888,34.431,34.432,31.887,36.128,33.583z"/>
<path fill="#6E8189" d="M36.411,33.866c1.696,1.695-0.849,4.24-2.545,2.545C32.169,34.714,34.714,32.169,36.411,33.866z"/>
<path fill="#1A1626" d="M15.112,31.509c4.918,4.917,12.576,5.234,17.104,0.707c4.527-4.528,4.211-12.185-0.707-17.104L15.112,31.509
	z"/>
<path fill="#4E5E67" d="M10.58,29.033c6.499,6.499,15.897,7.634,20.992,2.539c5.096-5.094,3.959-14.493-2.54-20.991L10.58,29.033z"
	/>
<path fill="#302C3B" d="M15.112,30.287c9.838,9.194,20.84-0.059,12.643-8.256L15.112,30.287z"/>
<path fill="#1A1626" d="M10.58,29.033c3.196,3.196,9.917,1.656,15.013-3.439s6.636-11.817,3.439-15.013L10.58,29.033z"/>
<path fill="#4E5E67" d="M3.363,22.652l5.786,5.786c3.196,3.196,10.104,1.47,15.431-3.857c5.327-5.326,7.054-12.235,3.858-15.431
	l-5.787-5.787L3.363,22.652z"/>
<path fill="#302C3B" d="M14.579,29.978c3.158-0.362,6.855-2.252,10.001-5.397c0.997-0.997,1.867-2.049,2.604-3.122L15.87,10.146
	L5.308,20.707L14.579,29.978z"/>
<ellipse transform="matrix(0.7071 -0.7071 0.7071 0.7071 -5.4879 13.2488)" fill="#6E8189" cx="13.249" cy="13.249" rx="13.639" ry="8.183"/>
<ellipse transform="matrix(0.7071 -0.7071 0.7071 0.7071 -5.3881 13.0073)" fill="#4E5E67" cx="13.007" cy="13.008" rx="12.571" ry="7.202"/>
<path fill="#302C3B" d="M21.896,4.119c-2.813-2.812-9.071-1.112-13.98,3.797C7.474,8.357,7.06,8.81,6.671,9.27
	c5.17-1.377,10.91-0.456,15.638,2.731C23.646,8.818,23.606,5.83,21.896,4.119z"/>
<path fill="#FFE12C" d="M18.1,18.1c4.304-4.304,6.14-9.645,4.633-12.792C19.585,3.8,14.244,5.637,9.94,9.94
	C5.637,14.245,3.8,19.585,5.308,22.732C8.454,24.24,13.796,22.403,18.1,18.1z"/>
<path fill="#FEEC9A" d="M5.313,17.183c2.824,2.217,5.76,3.698,8.366,4.299c1.509-0.848,3.019-1.982,4.42-3.382
	c1.4-1.401,2.534-2.911,3.382-4.42c-0.601-2.605-2.081-5.542-4.299-8.366C14.798,6.077,12.224,7.657,9.94,9.94
	C7.657,12.224,6.077,14.798,5.313,17.183z"/>
<path fill="#FFFFFF" d="M18.1,18.1c0.61-0.61,1.159-1.243,1.667-1.886c-4.928-4.622-8.176-1.375-3.553,3.553
	C16.856,19.259,17.489,18.71,18.1,18.1z"/>
</svg>
