<?xml version="1.0" encoding="utf-8"?>
<!-- Generator: Adobe Illustrator 15.0.0, SVG Export Plug-In . SVG Version: 6.00 Build 0)  -->
<!DOCTYPE svg PUBLIC "-//W3C//DTD SVG 1.1//EN" "http://www.w3.org/Graphics/SVG/1.1/DTD/svg11.dtd">
<svg version="1.1" id="Layer_1" xmlns="http://www.w3.org/2000/svg" xmlns:xlink="http://www.w3.org/1999/xlink" x="0px" y="0px"
	 width="64px" height="64px" viewBox="0 0 64 64" enable-background="new 0 0 64 64" xml:space="preserve">
<path fill="#CFD8DD" d="M27.094,20.58c0,0,26.646,23.992,34.906,41.418c0,0-22.303,0.695-48.046-24.665
	c0,0,8.486-8.889,6.821-10.529L27.094,20.58z"/>
<path fill="#99A8AE" d="M16.404,34.603c-1.337,1.562-2.45,2.73-2.45,2.73C39.697,62.693,62,61.998,62,61.998
	c-0.52-1.1-1.114-2.224-1.771-3.367C52.816,57.652,35.595,53.346,16.404,34.603z"/>
<path fill="#785647" d="M9.038,4.522c0.733-0.724,1.656-0.997,2.054-0.605l16.436,16.256c0.396,0.391,0.121,1.305-0.611,2.029
	L22.43,26.64c-0.732,0.726-1.656,0.998-2.053,0.605L3.94,10.99c-0.396-0.393-0.122-1.306,0.61-2.031L9.038,4.522z"/>
<path fill="#594640" d="M17.467,18.73c-5.268-5.209-9.133-9.83-8.637-10.32c0.141-0.14,0.623,0.072,1.359,0.564
	C9.169,7.893,8.271,6.88,7.547,5.998L5.854,7.671c1.52,1.236,3.365,2.903,5.291,4.806c4.445,4.396,7.618,8.386,7.086,8.912
	c-0.531,0.526-4.565-2.613-9.012-7.009c-1.918-1.897-3.6-3.719-4.849-5.22c-0.591,0.685-0.792,1.473-0.43,1.83l8.482,8.389
	c0.827-0.683,3.955,1.202,7.053,4.266c1.093,1.082,2.038,2.167,2.774,3.155c0.06-0.052,0.121-0.103,0.18-0.16l1.758-1.738
	C22.338,23.367,19.969,21.206,17.467,18.73z"/>
<path fill="#594640" d="M9.037,4.523L8.9,4.659c1.444,1.16,3.235,2.767,5.105,4.617c4.119,4.074,7.059,7.774,6.564,8.263
	c-0.128,0.127-0.469,0.027-0.975-0.257c2.364,2.354,4.427,4.569,5.909,6.318l1.411-1.396c0.039-0.038,0.072-0.078,0.107-0.118
	c-0.559-0.51-1.16-1.082-1.777-1.694c-2.522-2.494-4.371-4.708-4.131-4.947c0.242-0.239,2.482,1.589,5.004,4.083
	c0.543,0.537,1.053,1.059,1.52,1.554c0.116-0.375,0.09-0.708-0.111-0.908L11.09,3.918C10.693,3.526,9.771,3.798,9.037,4.523z"/>
<path fill="#CFD8DD" d="M23.332,23.096c-0.74,0.732-1.941,0.732-2.682,0s-0.74-1.92,0-2.652c0.741-0.733,1.941-0.732,2.682,0
	S24.072,22.363,23.332,23.096z"/>
<path fill="#4E5E67" d="M20.096,21.77c-0.002-0.5,3.791-0.5,3.791,0C23.888,22.269,20.094,22.271,20.096,21.77z"/>
<path fill-rule="evenodd" clip-rule="evenodd" fill="#E6EBEF" d="M21.23,20.479c-0.248,0.326,0.857,0.302,1.891,0.363
	C23.786,20.882,21.977,19.498,21.23,20.479z"/>
<path fill="#99A8AE" d="M20.11,21.996c0.099,0.155,0.214,0.302,0.351,0.437c0.855,0.845,2.172,0.952,3.145,0.322
	c-0.077,0.122-0.166,0.236-0.273,0.342c-0.74,0.732-1.94,0.732-2.682,0C20.338,22.787,20.16,22.398,20.11,21.996z"/>
<path fill="#CFD8DD" d="M4.201,11.196c-1.228,1.213-3.016-0.555-1.789-1.769l7.1-7.021c1.227-1.213,3.016,0.555,1.787,1.769
	L4.201,11.196z"/>
<path fill="#99A8AE" d="M11.041,2.171c0.572,0.565,0.461,1.221-0.037,1.713l-7.099,7.021c-0.497,0.492-1.159,0.602-1.731,0.036
	c0.375,0.643,1.297,0.977,2.027,0.256l7.098-7.021C12.028,3.454,11.691,2.542,11.041,2.171z"/>
<path fill="#E6EBEF" d="M2.809,9.805l7.084-7.007c0.41-0.406,1.018-0.283,1.385-0.074c-0.31-0.53-1.07-0.806-1.672-0.211L2.52,9.521
	c-0.602,0.594-0.322,1.348,0.215,1.653C2.523,10.811,2.398,10.211,2.809,9.805z"/>
</svg>
