<?xml version="1.0" encoding="utf-8"?>
<!-- Generator: Adobe Illustrator 15.0.0, SVG Export Plug-In . SVG Version: 6.00 Build 0)  -->
<!DOCTYPE svg PUBLIC "-//W3C//DTD SVG 1.1//EN" "http://www.w3.org/Graphics/SVG/1.1/DTD/svg11.dtd">
<svg version="1.1" id="Layer_1" xmlns="http://www.w3.org/2000/svg" xmlns:xlink="http://www.w3.org/1999/xlink" x="0px" y="0px"
	 width="64px" height="64px" viewBox="0 0 64 64" enable-background="new 0 0 64 64" xml:space="preserve">
<path fill="#EF4E16" d="M60,23.913c0,0-8.76-2.903-14.05,1.058C44.256,17.449,45.203,8.674,34.688,2
	c-0.712,9.413-12.856,9.891-15.691,22.005c-1.86-3.319-2.227-7.716-9.28-9.871C11.615,25.513,0.415,31.3,5.199,47.68
	c2.699,9.246,12.72,13.651,21.047,14.217c16.527,1.123,31.896-6.848,32.258-24.148C58.659,30.312,55.529,29.406,60,23.913z"/>
<path fill="#F9B700" d="M53.226,32.962c-6.012-0.063-5.458,2.387-9.883,3.896c-3.212-5.842-0.067-13.682-10.056-19.364
	c0.066,10.625-7.32,7.313-10.414,17.456c-3.758-2.145-1.943-6.888-9.256-8.89c4.042,6.349-0.99,7.542-3.526,13.335
	c-5.093,11.632,7.181,19.813,16.548,20.382c13.019,0.793,25.124-4.834,25.408-17.048C52.169,37.479,49.705,36.841,53.226,32.962z"/>
<path fill="#FFE463" d="M47.616,41.169c-4.47-0.041-4.061,1.522-7.351,2.484c-2.391-3.727-0.051-8.729-7.479-12.354
	c0.049,6.778-5.446,4.666-7.746,11.137c-2.795-1.368-1.447-4.395-6.885-5.672c3.006,4.051-0.735,4.812-2.621,8.508
	c-3.791,7.421,5.339,12.64,12.307,13.003c9.683,0.506,18.686-3.084,18.896-10.876C46.83,44.051,44.996,43.644,47.616,41.169z"/>
<path fill="#FFF7D1" d="M37.182,54.939c0,2.188-12.427,2.188-12.427,0C24.755,49.09,37.182,49.09,37.182,54.939z"/>
</svg>
