<?xml version="1.0" encoding="utf-8"?>
<!-- Generator: Adobe Illustrator 15.0.0, SVG Export Plug-In . SVG Version: 6.00 Build 0)  -->
<!DOCTYPE svg PUBLIC "-//W3C//DTD SVG 1.1//EN" "http://www.w3.org/Graphics/SVG/1.1/DTD/svg11.dtd">
<svg version="1.1" id="Layer_1" xmlns="http://www.w3.org/2000/svg" xmlns:xlink="http://www.w3.org/1999/xlink" x="0px" y="0px"
	 width="64px" height="64px" viewBox="0 0 64 64" enable-background="new 0 0 64 64" xml:space="preserve">
<rect x="27.706" y="14.999" transform="matrix(0.7071 -0.7071 0.7071 0.7071 -15.687 37.8702)" fill="#99A8AE" width="20.331" height="45.746"/>
<polygon fill="#6E8189" points="31.784,17.406 17.407,31.783 20.958,35.335 33.896,19.52 "/>
<polygon fill="#6E8189" points="56.636,42.259 42.259,56.636 45.811,60.187 58.749,44.373 "/>
<path fill="#4E5E67" d="M57.068,41.826c-3.169,3.169-9.154,14.905-12.367,18.118c-0.381,0.381-3.256-2.494-2.875-2.875
	c2.863-2.865,9.453-15.203,12.367-18.119C54.574,38.569,57.449,41.445,57.068,41.826z"/>
<path fill="#6E8189" d="M47.398,32.155c-3.17,3.169-14.845,13.385-2.875-2.875C44.842,28.846,47.779,31.774,47.398,32.155z"/>
<path fill="#6E8189" d="M42.563,27.32c-3.169,3.169-9.154,14.904-12.367,18.118c-0.381,0.381-3.256-2.494-2.875-2.875
	c2.863-2.865,9.452-15.204,12.367-18.119C40.068,24.064,42.943,26.939,42.563,27.32z"/>
<path fill="#6E8189" d="M37.728,22.484c-3.169,3.169-9.154,14.905-12.368,18.118c-0.381,0.381-3.256-2.494-2.875-2.875
	c2.865-2.864,9.453-15.204,12.367-18.118C35.232,19.229,38.107,22.104,37.728,22.484z"/>
<path fill="#4E5E67" d="M32.893,17.649c-3.17,3.169-9.154,14.905-12.368,18.119c-0.381,0.381-3.256-2.494-2.875-2.875
	c2.865-2.865,9.453-15.204,12.368-18.119C30.398,14.393,33.273,17.269,32.893,17.649z"/>
<polygon fill="#CFD8DD" points="36.69,12.25 31.522,19.062 20.021,7.561 26.842,2.402 "/>
<rect x="10.731" y="11.408" transform="matrix(0.7071 -0.7071 0.7071 0.7071 -8.0942 19.5431)" fill="#E6EBEF" width="17.621" height="16.266"/>
<polygon fill="#CFD8DD" points="19.063,31.522 12.25,36.69 2.402,26.843 7.561,20.021 "/>
<path fill="#99A8AE" d="M30.602,16.704c-0.313-0.021-0.656-0.129-1.02-0.305c-1.154-0.887-6.001-5.734-6.889-6.889
	c-0.176-0.363-0.284-0.707-0.305-1.018c-0.152-2.271,4.449-6.094,4.449-6.094s-0.822-0.822-1.541-0.103
	c-1.27,1.27-21.86,21.86-23.002,23.003c-0.719,0.719,0.103,1.541,0.103,1.541s3.824-4.601,6.094-4.449
	c0.312,0.02,0.655,0.129,1.018,0.305c1.155,0.888,6.002,5.735,6.889,6.889c0.176,0.363,0.285,0.707,0.306,1.018
	c0.152,2.271-4.45,6.094-4.45,6.094s0.822,0.823,1.541,0.104c1.271-1.271,21.86-21.86,23.003-23.003
	c0.719-0.719-0.104-1.542-0.104-1.542S32.872,16.856,30.602,16.704z M29.165,18.142c0.242,3.632-7.391,11.265-11.022,11.021
	c-0.313-0.021-0.655-0.129-1.018-0.305c-1.155-0.888-6.002-5.735-6.89-6.89c-0.176-0.363-0.284-0.706-0.304-1.018
	c-0.244-3.633,7.39-11.266,11.022-11.022c0.312,0.021,0.654,0.129,1.018,0.305c1.154,0.888,6.002,5.735,6.89,6.89
	C29.035,17.487,29.143,17.83,29.165,18.142z"/>
<polygon fill="#CFD8DD" points="60.717,36.276 55.548,43.089 44.047,31.587 50.869,26.428 "/>
<rect x="34.757" y="35.435" transform="matrix(0.7071 -0.7071 0.7071 0.7071 -18.0466 43.5649)" fill="#E6EBEF" width="17.62" height="16.265"/>
<polygon fill="#CFD8DD" points="43.088,55.548 36.275,60.717 26.428,50.868 31.586,44.047 "/>
<path fill="#99A8AE" d="M54.627,40.729c-0.313-0.02-0.654-0.129-1.018-0.305c-1.155-0.887-6.002-5.734-6.89-6.889
	c-0.177-0.363-0.284-0.707-0.305-1.019c-0.152-2.27,4.449-6.094,4.449-6.094s-0.823-0.822-1.542-0.104
	c-1.27,1.27-21.859,21.86-23.001,23.003c-0.719,0.719,0.104,1.541,0.104,1.541s3.823-4.602,6.094-4.449
	c0.312,0.021,0.654,0.129,1.017,0.305c1.155,0.888,6.002,5.734,6.89,6.89c0.177,0.363,0.284,0.706,0.306,1.018
	c0.152,2.271-4.45,6.095-4.45,6.095s0.823,0.822,1.542,0.104c1.27-1.271,21.859-21.861,23.002-23.004
	c0.719-0.719-0.104-1.541-0.104-1.541S56.897,40.882,54.627,40.729z M53.189,42.168c0.244,3.632-7.391,11.266-11.021,11.021
	c-0.313-0.021-0.655-0.129-1.019-0.305c-1.155-0.888-6.003-5.734-6.89-6.89c-0.176-0.363-0.284-0.706-0.305-1.018
	c-0.244-3.633,7.39-11.266,11.022-11.022c0.312,0.021,0.654,0.13,1.018,0.306c1.155,0.887,6.003,5.734,6.89,6.889
	C53.061,41.513,53.169,41.855,53.189,42.168z"/>
<path fill="#6E8189" d="M61.945,49.341c-2.051,6.557-6.049,10.555-12.605,12.604c-0.95,0.297-2.482-0.712-2.482-0.712l14.377-14.376
	C61.234,46.857,62.242,48.39,61.945,49.341z"/>
</svg>
