<?xml version="1.0" encoding="utf-8"?>
<!-- Generator: Adobe Illustrator 15.0.0, SVG Export Plug-In . SVG Version: 6.00 Build 0)  -->
<!DOCTYPE svg PUBLIC "-//W3C//DTD SVG 1.1//EN" "http://www.w3.org/Graphics/SVG/1.1/DTD/svg11.dtd">
<svg version="1.1" id="Layer_1" xmlns="http://www.w3.org/2000/svg" xmlns:xlink="http://www.w3.org/1999/xlink" x="0px" y="0px"
	 width="64px" height="64px" viewBox="0 0 64 64" enable-background="new 0 0 64 64" xml:space="preserve">
<path fill="#006DAE" d="M62,50c0,6.6-5.4,12-12,12H14C7.4,62,2,56.6,2,50V14C2,7.399,7.4,2,14,2h36c6.6,0,12,5.399,12,12V50z"/>
<path fill="#014D87" d="M56.838,4.162C58.197,6.105,59,8.462,59,11v37c0,6.6-4.398,11-11,11H11c-2.537,0-4.895-0.805-6.838-2.162
	C6.336,59.949,9.938,62,14,62h36c6.602,0,12-5.4,12-12V14C62,9.938,59.951,6.336,56.838,4.162z"/>
<path fill-rule="evenodd" clip-rule="evenodd" fill="#0FB4D4" d="M4.975,12.585c0.338,2.703,4.793-2.587,9.303-7.136
	C17.188,2.524,3.957,4.45,4.975,12.585z"/>
<path fill="#FFFFFF" d="M19.357,25.377L18.109,30H14l5.357-18h5.205L30,30h-4.266l-1.352-4.623H19.357z M23.809,22.336l-1.094-3.818
	c-0.313-1.07-0.623-2.402-0.885-3.473h-0.051c-0.26,1.07-0.521,2.432-0.809,3.473l-1.041,3.818H23.809z"/>
<path fill="#FFFFFF" d="M36,12.367C36.963,12.156,38.904,12,40.729,12c2.232,0,3.6,0.234,4.773,0.998
	c1.131,0.654,1.943,1.859,1.943,3.461c0,1.576-0.84,3.043-2.662,3.777v0.055C46.633,20.842,48,22.365,48,24.646
	c0,1.602-0.674,2.861-1.682,3.752C45.146,29.422,43.178,30,39.961,30c-1.801,0-3.143-0.131-3.961-0.262V12.367z M39.627,19.137
	h1.195c1.922,0,2.953-0.867,2.953-2.176c0-1.34-0.934-2.049-2.59-2.049c-0.793,0-1.25,0.053-1.559,0.105V19.137z M39.627,26.984
	c0.359,0.051,0.787,0.051,1.412,0.051c1.658,0,3.123-0.684,3.123-2.545c0-1.785-1.465-2.492-3.289-2.492h-1.246V26.984z"/>
<path fill="#FFFFFF" d="M27.307,51.25C26.623,51.609,25.092,52,23.094,52c-5.672,0-8.594-3.756-8.594-8.729
	c0-5.955,3.994-9.271,8.959-9.271c1.926,0,3.383,0.416,4.042,0.777l-0.754,3.135c-0.754-0.338-1.803-0.648-3.115-0.648
	c-2.947,0-5.236,1.891-5.236,5.775c0,3.494,1.949,5.699,5.26,5.699c1.121,0,2.361-0.26,3.092-0.572L27.307,51.25z"/>
<path fill="#FFFFFF" d="M36,34.367C37.318,34.133,39.031,34,40.838,34c3.008,0,4.957,0.604,6.484,1.891
	C48.965,37.254,50,39.432,50,42.551c0,3.385-1.104,5.723-2.633,7.166C45.701,51.264,43.166,52,40.064,52
	c-1.855,0-3.17-0.131-4.064-0.266V34.367z M39.596,48.795c0.307,0.082,0.799,0.082,1.242,0.082c3.242,0.025,5.357-1.969,5.357-6.191
	c0.023-3.674-1.904-5.615-4.98-5.615c-0.797,0-1.313,0.078-1.619,0.158V48.795z"/>
</svg>
