<?xml version="1.0" encoding="utf-8"?>
<!-- Generator: Adobe Illustrator 15.0.0, SVG Export Plug-In . SVG Version: 6.00 Build 0)  -->
<!DOCTYPE svg PUBLIC "-//W3C//DTD SVG 1.1//EN" "http://www.w3.org/Graphics/SVG/1.1/DTD/svg11.dtd">
<svg version="1.1" id="Layer_1" xmlns="http://www.w3.org/2000/svg" xmlns:xlink="http://www.w3.org/1999/xlink" x="0px" y="0px"
	 width="64px" height="64px" viewBox="0 0 64 64" enable-background="new 0 0 64 64" xml:space="preserve">
<path fill="#302C3B" d="M46.957,50c-0.174-2.435-1.043-9.784-5.374-14.768c1.958-1.255,5.849-4.292,7.053-9.195
	c0.68,0.673,1.639,1.35,2.993,1.892c7.989,3.195,9.168,18.189,9.342,22.071H46.957z"/>
<path fill="#4E5E67" d="M49.152,27.754c0.586,0.398,1.281,0.774,2.104,1.103c6.332,2.533,8.3,14.297,8.673,20.143H47.867
	c-0.312-2.813-1.352-9.078-4.822-13.561C44.999,34.02,47.772,31.474,49.152,27.754 M48,23c0,8-8,12-8,12c6,6,6,16,6,16h16
	c0,0,0-20-10-24C48.285,25.515,48,23,48,23L48,23z"/>
<path fill="#302C3B" d="M40,21c0,0,4-4,8-4c0.5,0,0.5-2,0-2c-6,0-8,4-8,4V21z"/>
<path fill="#302C3B" d="M47,23c-3-3-3-7-5-9l-1,5L47,23z"/>
<rect x="2" y="15" fill="#6E8189" width="20" height="5"/>
<polygon fill="#99A8AE" points="4,23 23,23 23,20 2,20 "/>
<path fill="#6E8189" d="M44,54h18v-3c0,0-13,0-16,0C44,51,44,54,44,54z"/>
<polygon fill="#302C3B" points="4,12 12,12 8,10 4,10 "/>
<polygon fill="#4E5E67" points="38,13 42,13 40,10 38,10 "/>
<polygon fill="#302C3B" points="34,12 38,12 38,11 35,11 "/>
<polygon fill="#6E8189" points="6,26 22,26 22,23 4,23 "/>
<rect x="2" y="14" fill="#E6EBEF" width="20" height="2"/>
<rect x="3" y="12" fill="#6E8189" width="18" height="2"/>
<path fill="#4E5E67" d="M57.5,45.504c0,2.662-4,2.662-4,0C53.5,42.833,57.5,42.833,57.5,45.504z"/>
<path fill="#99A8AE" d="M42,13h-4v-1H22v18l4,2c0,0,2,8,6,8c2,0,5.5,0,8,0c2,0,2-2,2-2v-4c7-5,6-11,6-11C42,21,42,13,42,13z M40,38
	c0,0-6,0-8,0c-1.803,0-4-6-2-6c2.5,0,10,0,10,0V38z"/>
<path fill="#302C3B" d="M36,32c0,0,1,2-1,4c-0.354,0.354,0.329,1.2,0.758,0.943C39,35,39,33,39,33h1v-1H36z"/>
<rect x="55" y="43" transform="matrix(0.7071 -0.7071 0.7071 0.7071 -15.9178 52.5711)" fill="#302C3B" width="1" height="4.999"/>
<rect x="24" y="14" fill="#E6EBEF" width="12" height="12"/>
<rect x="24" y="25" fill="#CFD8DD" width="12" height="3"/>
<rect x="24" y="14" fill="#FFFFFF" width="12" height="3"/>
<rect x="21" y="23" fill="#4E5E67" width="1" height="3"/>
<rect x="21" y="20" fill="#6E8189" width="1" height="3"/>
<rect x="21" y="14" fill="#CFD8DD" width="1" height="2"/>
<rect x="21" y="12" fill="#4E5E67" width="1" height="2"/>
<rect x="21" y="16" fill="#4E5E67" width="1" height="4"/>
<rect x="37" y="15" fill="#4E5E67" width="1" height="12"/>
<rect x="36" y="14" fill="#6E8189" width="1" height="14"/>
<path fill="#6E8189" d="M32,14c-2.458,0-8,0-8,0v3c0,0,5.625,0,8,0C34.04,17,34.04,14,32,14z"/>
<path fill="#4E5E67" d="M33.448,15c0.283,0.873-0.197,2-1.448,2c-2.375,0-8,0-8,0v-1c0,0,5.625,0,8,0
	C32.788,16,33.269,15.55,33.448,15z"/>
<path fill="#6E8189" d="M29,30c0,1.333-2,1.333-2,0S29,28.667,29,30z"/>
<path fill="#6E8189" d="M43,30c0,1.333-2,1.333-2,0S43,28.667,43,30z"/>
<path fill="#CFD8DD" d="M38,27V15C40.667,15,40.667,27,38,27z"/>
<path fill="#6E8189" d="M31.999,25c-2.459,0-8,0-8,0v3c0,0,5.625,0,8,0C34.038,28,34.038,25,31.999,25z"/>
<path fill="#4E5E67" d="M33.446,26c0.283,0.873-0.197,2-1.447,2c-2.375,0-8,0-8,0v-1c0,0,5.625,0,8,0
	C32.787,27,33.268,26.55,33.446,26z"/>
<path fill="#6E8189" d="M31.999,19c-2.459,0-8,0-8,0v4c0,0,5.625,0,8,0C34.038,23,34.038,19,31.999,19z"/>
<path fill="#4E5E67" d="M31.999,22c-2.375,0-8,0-8,0v1c0,0,5.625,0,8,0c1.192,0,1.682-1.364,1.48-2.5
	C33.336,21.307,32.846,22,31.999,22z"/>
</svg>
