<?xml version="1.0" encoding="utf-8"?>
<!-- Generator: Adobe Illustrator 15.0.0, SVG Export Plug-In . SVG Version: 6.00 Build 0)  -->
<!DOCTYPE svg PUBLIC "-//W3C//DTD SVG 1.1//EN" "http://www.w3.org/Graphics/SVG/1.1/DTD/svg11.dtd">
<svg version="1.1" id="Layer_1" xmlns="http://www.w3.org/2000/svg" xmlns:xlink="http://www.w3.org/1999/xlink" x="0px" y="0px"
	 width="64px" height="64px" viewBox="0 0 64 64" enable-background="new 0 0 64 64" xml:space="preserve">
<path fill="#006DAE" d="M62,50c0,6.6-5.4,12-12,12H14C7.4,62,2,56.6,2,50V14C2,7.399,7.4,2,14,2h36c6.6,0,12,5.399,12,12V50z"/>
<path fill="#014D87" d="M56.838,4.162C58.197,6.105,59,8.462,59,11v37c0,6.6-4.398,11-11,11H11c-2.537,0-4.895-0.805-6.838-2.162
	C6.336,59.949,9.938,62,14,62h36c6.602,0,12-5.4,12-12V14C62,9.938,59.951,6.336,56.838,4.162z"/>
<path fill-rule="evenodd" clip-rule="evenodd" fill="#0FB4D4" d="M4.975,12.585c0.338,2.703,4.793-2.587,9.303-7.136
	C17.188,2.524,3.957,4.45,4.975,12.585z"/>
<path fill="#FFFFFF" d="M20.885,16.25h-0.061l-3.722,1.421l-0.749-2.746L21.516,13h3.778v15.647h-4.409V16.25z"/>
<path fill="#FFFFFF" d="M35.911,28.647v-2.176l2.039-1.801c3.443-3.006,5.117-4.735,5.163-6.534c0-1.255-0.774-2.25-2.593-2.25
	c-1.358,0-2.546,0.664-3.373,1.281l-1.039-2.58C37.296,13.709,39.138,13,41.271,13c3.564,0,5.529,2.035,5.529,4.829
	c0,2.58-1.916,4.641-4.195,6.629l-1.453,1.181v0.048h5.938v2.96H35.911z"/>
<path fill="#FFFFFF" d="M18.226,47.273c0.655,0.326,2.169,0.93,3.678,0.93c1.921,0,2.896-0.881,2.896-2.023
	c0-1.49-1.559-2.167-3.191-2.167h-1.508v-2.539h1.438c1.24-0.021,2.82-0.462,2.82-1.744c0-0.907-0.777-1.583-2.336-1.583
	c-1.29,0-2.654,0.535-3.311,0.908l-0.753-2.563c0.95-0.58,2.849-1.139,4.892-1.139c3.383,0,5.261,1.7,5.261,3.77
	c0,1.608-0.949,2.866-2.899,3.519v0.044c1.901,0.327,3.434,1.7,3.434,3.68c0,2.677-2.458,4.635-6.475,4.635
	c-2.047,0-3.774-0.513-4.702-1.072L18.226,47.273z"/>
<path fill="#FFFFFF" d="M41.808,51v-3.73h-7.572v-2.384l6.471-9.532H45.6v9.17h2.048v2.746H45.6V51H41.808z M41.808,44.523v-3.462
	c0-0.943,0.053-1.903,0.131-2.917h-0.103c-0.552,1.014-0.999,1.928-1.578,2.917l-2.288,3.416v0.046H41.808z"/>
</svg>
