<?xml version="1.0" encoding="utf-8"?>
<!-- Generator: Adobe Illustrator 15.0.0, SVG Export Plug-In . SVG Version: 6.00 Build 0)  -->
<!DOCTYPE svg PUBLIC "-//W3C//DTD SVG 1.1//EN" "http://www.w3.org/Graphics/SVG/1.1/DTD/svg11.dtd">
<svg version="1.1" id="Layer_1" xmlns="http://www.w3.org/2000/svg" xmlns:xlink="http://www.w3.org/1999/xlink" x="0px" y="0px"
	 width="64px" height="64px" viewBox="0 0 64 64" enable-background="new 0 0 64 64" xml:space="preserve">
<polygon fill="#4E5E67" points="16.764,62 18.582,62 19.52,59.781 17.604,59.781 "/>
<polygon fill="#4E5E67" points="44.488,59.781 45.42,62 47.234,62 46.4,59.781 "/>
<path fill="#BEC3CF" d="M35.602,30.179l-7.156,0.062L17.604,59.781h1.916l11.426-27.878c0.338,0.085,1.813,0.079,2.17-0.015
	l11.373,27.893H46.4L35.602,30.179z"/>
<polygon fill="#BEC3CF" points="33.553,24.287 30.527,24.287 31.217,59.781 32.867,59.781 "/>
<polygon fill="#4E5E67" points="31.217,59.781 31.258,62 32.826,62 32.867,59.781 "/>
<polygon fill="#99A8AE" points="30.656,31.652 30.708,33.573 33.361,34.169 33.422,31.746 "/>
<polygon fill="#99A8AE" points="28.609,29.689 27.488,32.847 30.284,33.517 31.359,31.043 "/>
<polygon fill="#99A8AE" points="32.797,31.121 34.113,34.338 37.314,34.876 35.563,30.059 "/>
<ellipse fill="#302C3B" cx="32" cy="27.625" rx="5.143" ry="5.137"/>
<circle fill="#E6EBEF" cx="32" cy="27.625" r="3.789"/>
<path fill="#302C3B" d="M26.148,5.47c-0.352-0.128-0.711,0.062-0.801,0.424l-1.279,5.148c-0.09,0.362,0.137,0.722,0.5,0.8
	l10.086,2.149c0.363,0.078,0.736-0.155,0.826-0.517l0.877-3.533c0.09-0.361-0.123-0.762-0.473-0.891L26.148,5.47z"/>
<path fill="#1A1626" d="M23.64,24.621l-0.312,1.256c-0.115,0.467,0.174,0.928,0.643,1.028l12.969,2.765
	c0.469,0.101,0.947-0.198,1.064-0.664l0.289-1.167L23.64,24.621z"/>
<polygon fill="#E6EBEF" points="43.09,16.335 40.309,27.536 58.934,32.014 61.295,22.503 "/>
<polygon fill="#FFFFFF" points="43.09,17.027 42.977,18.199 60.953,23.84 60.953,22.869 "/>
<path fill="#302C3B" d="M57.504,16.942c-0.504-0.114-1.016,0.202-1.137,0.702l-1.098,4.475c-0.121,0.5-0.635,0.826-1.141,0.727
	l-3.166-0.633c-0.506-0.101-1.053,0.217-1.215,0.706l-0.48,1.444c-0.162,0.488,0.117,0.98,0.621,1.092l6.57,1.459
	c0.504,0.111,1.01-0.208,1.125-0.711l1.803-7.873c0.115-0.503-0.203-1.007-0.705-1.121L57.504,16.942z"/>
<polygon fill="#E6EBEF" points="11.07,2.886 6.346,21.91 39.928,29.068 43.471,14.802 "/>
<polygon fill="#FFFFFF" points="11.07,4.278 11.433,6.762 42.977,16.577 42.787,15.283 "/>
<path fill="#302C3B" d="M43.471,14.802l-2.164-0.796c1.219,0.353,1.371,3.99,0.393,7.93s-2.799,7.006-4.016,6.654l2.244,0.479
	c1.219,0.352,2.996-2.557,3.975-6.496S44.688,15.154,43.471,14.802z"/>
<path fill="#4E5E67" d="M42.088,15.04c0.111,0.366,0.186,0.814,0.224,1.326l2.175,0.662c-0.046-0.519-0.133-0.966-0.262-1.322
	L42.088,15.04z"/>
<path fill="#302C3B" d="M11.07,2.886L8.133,2.039c-1.623-0.47-3.996,3.408-5.301,8.661c-1.305,5.254-1.047,9.892,0.576,10.36
	l2.938,0.851c1.623,0.468,3.996-3.41,5.301-8.662S12.693,3.357,11.07,2.886z"/>
<path fill="#0FB4D4" d="M8.711,12.385c1.094-4.401,1.086-8.361,0.102-9.809c-1.551,0.559-3.48,4.069-4.609,8.616
	c-1.094,4.402-1.086,8.361-0.104,9.81C5.652,20.442,7.582,16.932,8.711,12.385z"/>
<path fill="#006DAE" d="M5.357,18.796c-0.863-0.781-1.186-3.241-0.707-6.11c0.192-1.151,0.49-2.217,0.847-3.124
	c-0.625,1.094-1.163,2.655-1.456,4.414c-0.479,2.868-0.156,5.328,0.706,6.11c0.694-0.328,1.407-1.361,1.97-2.791
	C6.287,18.046,5.818,18.579,5.357,18.796z"/>
<path fill="#302C3B" d="M61.295,22.503l-1.703-0.577c0.811,0.234,1.057,2.672,0.404,5.299S58,31.83,57.189,31.594l1.744,0.42
	c0.811,0.234,1.998-1.705,2.65-4.33C62.236,25.057,62.107,22.737,61.295,22.503z"/>
<circle fill="#302C3B" cx="46.791" cy="20.483" r="0.859"/>
<path fill="#4E5E67" d="M9.438,3.777C9.781,4.793,9.719,6.34,9.719,6.34l2.76,0.747c0,0,0-1.657-0.23-2.4L9.438,3.777z"/>
<path fill="#4E5E67" d="M60.133,22.601c0.111,0.366,0.17,0.535,0.207,1.047L62,24.174c-0.047-0.519-0.064-0.685-0.193-1.041
	L60.133,22.601z"/>
</svg>
