<?xml version="1.0" encoding="utf-8"?>
<!-- Generator: Adobe Illustrator 15.0.0, SVG Export Plug-In . SVG Version: 6.00 Build 0)  -->
<!DOCTYPE svg PUBLIC "-//W3C//DTD SVG 1.1//EN" "http://www.w3.org/Graphics/SVG/1.1/DTD/svg11.dtd">
<svg version="1.1" id="Layer_1" xmlns="http://www.w3.org/2000/svg" xmlns:xlink="http://www.w3.org/1999/xlink" x="0px" y="0px"
	 width="64px" height="64px" viewBox="0 0 64 64" enable-background="new 0 0 64 64" xml:space="preserve">
<path fill="#006DAE" d="M62,50c0,6.6-5.4,12-12,12H14C7.4,62,2,56.6,2,50V14C2,7.4,7.4,2,14,2h36c6.6,0,12,5.4,12,12V50z"/>
<path fill="#014D87" d="M56.838,4.162C58.197,6.105,59,8.463,59,11v37c0,6.6-4.398,11-11,11H11c-2.537,0-4.895-0.805-6.838-2.162
	C6.336,59.949,9.938,62,14,62h36c6.602,0,12-5.4,12-12V14C62,9.938,59.951,6.336,56.838,4.162z"/>
<path fill-rule="evenodd" clip-rule="evenodd" fill="#0FB4D4" d="M4.975,12.586c0.338,2.703,4.793-2.588,9.303-7.137
	C17.188,2.525,3.957,4.451,4.975,12.586z"/>
<path fill="#FFFFFF" d="M23.487,40.886h-3.752v-1.194C18.841,40.544,17.657,41,16.531,41C13.876,41,12,39.321,12,36.446
	c0-3.216,2.223-4.867,6.004-4.867h1.731v-1.252c0-1.081-0.751-1.821-1.876-1.821c-1.097,0-1.848,0.74-1.848,1.821H12.26
	c0-3.301,2.252-5.521,5.6-5.521s5.57,2.164,5.628,5.407V40.886z M19.735,35.479v-0.826h-0.692c-1.126,0-3.232-0.027-3.232,1.539
	c0,0.91,0.605,1.452,1.529,1.452C18.552,37.644,19.735,36.76,19.735,35.479z"/>
<path fill="#FFFFFF" d="M37.889,35.479C37.975,38.866,35.724,41,33.068,41c-1.011,0-1.934-0.369-2.655-1.052v0.938h-3.752V19h3.752
	v6.859c0.722-0.685,1.645-1.054,2.655-1.054c2.655,0,4.906,2.135,4.82,5.521V35.479z M34.137,35.479v-5.151
	c0-1.024-0.866-1.821-1.849-1.821c-1.038,0-1.875,0.797-1.875,1.821v5.151c0,1.024,0.837,1.851,1.875,1.851
	C33.271,37.329,34.137,36.503,34.137,35.479z"/>
<path fill="#FFFFFF" d="M48.248,30.327c0-1.024-0.808-1.821-1.848-1.821c-1.01,0-1.875,0.797-1.875,1.821v5.151
	c0,1.024,0.837,1.851,1.875,1.851c1.068,0,1.848-0.826,1.848-1.851v-0.569H52v0.569C52,38.525,49.489,41,46.4,41
	c-3.059,0-5.541-2.39-5.627-5.378v-5.409c0.058-2.988,2.54-5.407,5.627-5.407c3.089,0,5.6,2.477,5.6,5.521v0.569h-3.752V30.327z"/>
</svg>
