<?xml version="1.0" encoding="utf-8"?>
<!-- Generator: Adobe Illustrator 15.0.0, SVG Export Plug-In . SVG Version: 6.00 Build 0)  -->
<!DOCTYPE svg PUBLIC "-//W3C//DTD SVG 1.1//EN" "http://www.w3.org/Graphics/SVG/1.1/DTD/svg11.dtd">
<svg version="1.1" id="Layer_1" xmlns="http://www.w3.org/2000/svg" xmlns:xlink="http://www.w3.org/1999/xlink" x="0px" y="0px"
	 width="64px" height="64px" viewBox="0 0 64 64" enable-background="new 0 0 64 64" xml:space="preserve">
<polygon fill="#AB5C10" points="33.695,58.527 32.949,57.924 36,50 28,50 31.051,57.924 30.305,58.527 31,59.207 30,61.396 
	30.44,62 33.559,62 34,61.396 33,59.207 "/>
<path fill="#6919AD" d="M5,29C5,14.093,17.094,2,32,2c14.912,0,27,12.093,27,27c0,14.912-12.088,27-27,27C17.094,56,5,43.912,5,29z"
	/>
<path fill="#7C1DCF" d="M8.092,29C8.092,15.8,18.801,5.092,32,5.092C45.205,5.092,55.908,15.8,55.908,29
	c0,13.205-10.703,23.908-23.908,23.908C18.801,52.908,8.092,42.205,8.092,29z"/>
<path fill="#AA5BEF" d="M8.092,25.959C8.092,14.085,18.803,4.451,32,4.451c13.205,0,23.906,9.634,23.906,21.508
	C55.906,37.842,8.092,37.842,8.092,25.959z"/>
<path fill-rule="evenodd" clip-rule="evenodd" fill="#C28FEF" d="M12.926,21.798c0.64,4.494,9.049-4.298,17.564-11.856
	C35.986,5.081,11.004,8.28,12.926,21.798z"/>
<path fill="#AA5BEF" d="M16.924,42.91c0-3.162,6.753-0.512,15.074-0.512c8.33,0,15.08-2.65,15.08,0.512
	c0,4.932-7.541,8.324-15.078,8.324S16.924,47.842,16.924,42.91z"/>
<g>
	<g>
		<path fill="#7C1DCF" d="M44.463,9.276c0,7.614-4.943,10.935-10.744,10.935c5.801,0,9.914,6.813,9.914,14.43
			c0-7.616,4.121-14.43,9.922-14.43C47.754,20.211,44.463,16.891,44.463,9.276z"/>
	</g>
</g>
<g>
	<g>
		<path fill="#6919AD" d="M38.576,31.084c0,4.129-3.059,5.096-6.199,5.096c3.141,0,5.371,3.691,5.371,7.816
			c0-4.125,2.232-7.816,5.373-7.816C39.98,36.18,38.576,35.213,38.576,31.084z"/>
	</g>
</g>
<g>
	<g>
		<path fill="#6919AD" d="M52.301,28.858c0,3.578-2.705,5.083-5.43,5.083c2.725,0,4.658,3.201,4.658,6.775
			c0-3.574,1.936-6.775,4.664-6.775C53.465,33.941,52.301,32.437,52.301,28.858z"/>
	</g>
</g>
<g>
	<g>
		<path fill="#FFFFFF" d="M44.875,3.641c0,7.614-4.111,14.426-9.912,14.426c5.801,0,9.912,6.813,9.912,14.429
			c0-7.615,4.121-14.429,9.922-14.429C48.996,18.066,44.875,11.255,44.875,3.641z"/>
	</g>
</g>
<g>
	<g>
		<path fill="#FFFFFF" d="M52.748,25.897c0,3.579-1.934,6.778-4.658,6.778c2.725,0,4.658,3.201,4.658,6.775
			c0-3.574,1.936-6.775,4.664-6.775C54.684,32.676,52.748,29.477,52.748,25.897z"/>
	</g>
</g>
<g>
	<g>
		<path fill="#FFFFFF" d="M39.09,27.322c0,4.129-2.229,7.816-5.371,7.816c3.143,0,5.371,3.691,5.371,7.818
			c0-4.127,2.232-7.818,5.373-7.818C41.322,35.139,39.09,31.451,39.09,27.322z"/>
	</g>
</g>
<rect x="16.545" y="46" fill="#6919AD" width="30.91" height="4"/>
<path fill="#F59E01" d="M10.402,48H53.6c2.717,0,2.717-4,0-4H10.402C7.684,44,7.684,48,10.402,48z"/>
<path fill="#FFE12C" d="M10.613,45.383l26.262-0.996H10.613c-1.464,0-2.054,1.275-1.781,2.314
	C9.019,45.986,9.607,45.383,10.613,45.383z"/>
<path fill="#AB5C10" d="M53.6,46.904c0,0-41.173,1.096-39.561,1.096H53.6c1.611,0,2.258-1.402,1.959-2.547
	C55.354,46.238,54.705,46.904,53.6,46.904z"/>
<path fill="#F59E01" d="M54.679,58.606l-0.574-0.588c0,0,1.677-4.813,1.403-7.682l-2.695-4.622l-5.92-0.397l1.476,4.372
	c3.272,2.321,4.273,8.329,4.273,8.329l-0.574,0.588l0.535,0.665l-0.77,2.138L52.172,62h2.402l0.339-0.591l-0.77-2.138L54.679,58.606
	z"/>
<path fill="#FFE12C" d="M50.654,44.192c-6.113-1.424-6.47,5.515-1.998,5.832c1.18,0.083,2.335,1.757,2.455,1.01
	c0.368-2.289-3.634-5.289-3.634-5.289s3.32,1.434,4.837,4.362c0.772,1.494,1.654,1.269,1.805,0.269
	c0.257-1.718-1.516-3.512-1.516-3.512s1.522,0.438,2.075,2.676c0.25,1.012,0.754,0.975,0.829,0.797
	C55.996,49.169,55.25,45.265,50.654,44.192z"/>
<path fill="#FFE12C" d="M53.935,52.011c0.479,2.968-0.224,6.096-0.224,6.096s0.326-2.305-1.38-5.181
	c1.233,3.119,0.866,5.22,0.866,5.22l-0.556-0.127l-0.574,0.588c0,0,1.595,1.033,2.611,0l-0.574-0.588
	C54.104,58.019,54.913,55.138,53.935,52.011z"/>
<polygon fill="#FFE12C" points="54.144,59.271 54.144,60.598 53.878,59.445 53.446,61.015 53.373,59.416 52.603,59.271 
	51.833,61.409 54.913,61.409 "/>
<path fill="#F59E01" d="M9.321,58.606l0.574-0.588c0,0-1.677-4.813-1.403-7.682l2.695-4.622l5.92-0.397l-1.476,4.372
	c-3.272,2.321-4.273,8.329-4.273,8.329l0.574,0.588l-0.535,0.665l0.77,2.138L11.828,62H9.426l-0.339-0.591l0.77-2.138L9.321,58.606z
	"/>
<path fill="#FFE12C" d="M13.346,44.192c6.113-1.424,6.47,5.515,1.998,5.832c-1.18,0.083-2.335,1.757-2.455,1.01
	c-0.368-2.289,3.634-5.289,3.634-5.289s-3.32,1.434-4.837,4.362c-0.772,1.494-1.654,1.269-1.805,0.269
	c-0.257-1.718,1.516-3.512,1.516-3.512s-1.522,0.438-2.075,2.676c-0.25,1.012-0.754,0.975-0.829,0.797
	C8.004,49.169,8.75,45.265,13.346,44.192z"/>
<path fill="#FFE12C" d="M10.065,52.011c-0.479,2.968,0.224,6.096,0.224,6.096s-0.326-2.305,1.38-5.181
	c-1.233,3.119-0.866,5.22-0.866,5.22l0.556-0.127l0.574,0.588c0,0-1.595,1.033-2.611,0l0.574-0.588
	C9.896,58.019,9.087,55.138,10.065,52.011z"/>
<polygon fill="#FFE12C" points="9.856,59.271 9.856,60.598 10.122,59.445 10.554,61.015 10.627,59.416 11.397,59.271 12.167,61.409 
	9.087,61.409 "/>
</svg>
