<?xml version="1.0" encoding="utf-8"?>
<!-- Generator: Adobe Illustrator 15.0.0, SVG Export Plug-In . SVG Version: 6.00 Build 0)  -->
<!DOCTYPE svg PUBLIC "-//W3C//DTD SVG 1.1//EN" "http://www.w3.org/Graphics/SVG/1.1/DTD/svg11.dtd">
<svg version="1.1" id="Layer_1" xmlns="http://www.w3.org/2000/svg" xmlns:xlink="http://www.w3.org/1999/xlink" x="0px" y="0px"
	 width="64px" height="64px" viewBox="0 0 64 64" enable-background="new 0 0 64 64" xml:space="preserve">
<path fill="#006DAE" d="M62,50c0,6.6-5.4,12-12,12H14C7.4,62,2,56.6,2,50V14C2,7.399,7.4,2,14,2h36c6.6,0,12,5.399,12,12V50z"/>
<path fill="#014D87" d="M56.838,4.162C58.197,6.105,59,8.462,59,11v37c0,6.6-4.398,11-11,11H11c-2.537,0-4.895-0.805-6.838-2.162
	C6.336,59.949,9.938,62,14,62h36c6.602,0,12-5.4,12-12V14C62,9.938,59.951,6.336,56.838,4.162z"/>
<path fill-rule="evenodd" clip-rule="evenodd" fill="#0FB4D4" d="M4.975,12.585c0.338,2.703,4.793-2.587,9.303-7.136
	C17.188,2.524,3.957,4.45,4.975,12.585z"/>
<g>
	<rect x="14" y="14" fill="#FFFFFF" width="16" height="4"/>
</g>
<polygon fill="#FFFFFF" points="14,22 14,26 20,26 20,30 24,30 24,26 30,26 30,22 "/>
<g>
	<g>
		<path fill="#FFFFFF" d="M49.521,18.986c-0.322-0.488-0.736-0.883-1.195-1.232c-0.131-0.1-0.197-0.145-0.33-0.238l-0.266-0.213
			c-0.172-0.145-0.332-0.291-0.482-0.439c-0.598-0.594-0.973-1.213-1.146-1.746c-0.154-0.457-0.172-0.84-0.15-1.117h-3.234
			L40.65,24.809c-0.607-0.172-1.283-0.27-2.002-0.27c-2.568,0-4.648,1.223-4.648,2.73S36.08,30,38.648,30
			c2.426,0,4.414-1.092,4.627-2.484l1.916-10.023c0.262,0.213,0.541,0.416,0.838,0.6c0.23,0.143,0.469,0.275,0.713,0.402
			c0.123,0.061,0.248,0.119,0.371,0.18c0.08,0.041,0.236,0.119,0.311,0.164c0.381,0.209,0.754,0.475,1.025,0.773
			c0.275,0.299,0.453,0.643,0.502,1.02c0.053,0.375-0.023,0.779-0.178,1.158c-0.316,0.768-0.885,1.426-1.4,1.949
			c-0.525,0.523-1.021,0.92-1.375,1.188c-0.357,0.268-0.574,0.406-0.574,0.406s0.238-0.109,0.639-0.328
			c0.398-0.221,0.965-0.551,1.592-1.014c0.619-0.467,1.33-1.059,1.859-1.904c0.26-0.424,0.461-0.926,0.484-1.48
			C50.027,20.051,49.844,19.469,49.521,18.986z"/>
	</g>
</g>
<g>
	<g>
		<path fill="#FFFFFF" d="M27.66,46.529l1.32-1.123l-1.956-2.213l-1.4,1.256l-2.705-2.762c1.654-0.607,2.82-2.031,2.82-3.688
			c0-2.205-2.066-4-4.604-4s-4.604,1.795-4.604,4c0,0.902,0.35,1.732,0.934,2.404C15.972,41.377,15,42.922,15,44.668
			C15,47.607,17.751,50,21.136,50c1.623,0,3.17-0.566,4.307-1.535L26.927,50h0.012L29,47.902L27.66,46.529z M19.601,38
			c0-0.736,0.689-1.334,1.535-1.334c0.848,0,1.537,0.598,1.537,1.334s-0.689,1.334-1.537,1.334
			C20.291,39.334,19.601,38.736,19.601,38z M21.136,47.334c-1.691,0-3.068-1.195-3.068-2.666c0-0.971,0.602-1.82,1.494-2.285
			l3.891,4.025C22.875,46.986,22.031,47.334,21.136,47.334z"/>
	</g>
</g>
<g>
	<polygon fill="#FFFFFF" points="50,34 46,34 34,50 38,50 	"/>
</g>
<g>
	<path fill="#FFFFFF" d="M38,42c-2.205,0-4-1.795-4-4c0-2.207,1.795-4,4-4c2.207,0,4,1.793,4,4C42,40.205,40.207,42,38,42z M38,36
		c-1.102,0-2,0.896-2,2c0,1.102,0.898,2,2,2c1.104,0,2-0.898,2-2C40,36.896,39.104,36,38,36z"/>
</g>
<g>
	<path fill="#FFFFFF" d="M46,50c-2.205,0-4-1.793-4-4s1.795-4,4-4c2.207,0,4,1.793,4,4S48.207,50,46,50z M46,44
		c-1.102,0-2,0.898-2,2c0,1.104,0.898,2,2,2c1.104,0,2-0.896,2-2C48,44.898,47.104,44,46,44z"/>
</g>
</svg>
