<?xml version="1.0" encoding="utf-8"?>
<!-- Generator: Adobe Illustrator 15.0.0, SVG Export Plug-In . SVG Version: 6.00 Build 0)  -->
<!DOCTYPE svg PUBLIC "-//W3C//DTD SVG 1.1//EN" "http://www.w3.org/Graphics/SVG/1.1/DTD/svg11.dtd">
<svg version="1.1" id="Layer_1" xmlns="http://www.w3.org/2000/svg" xmlns:xlink="http://www.w3.org/1999/xlink" x="0px" y="0px"
	 width="64px" height="64px" viewBox="0 0 64 64" enable-background="new 0 0 64 64" xml:space="preserve">
<polygon fill="#302C3B" points="29.626,22.571 23.819,28.381 17.571,22.13 23.378,16.321 "/>
<rect x="21.305" y="19.287" transform="matrix(0.707 -0.7072 0.7072 0.707 -10.2484 22.6778)" fill="#4E5E67" width="1.877" height="8.838"/>
<path fill="#302C3B" d="M39.051,5.954c-9.442-9.666-20.18,1.429-20.18,1.429l6.236,6.239c0,0,6.125-8.169,13.59-5.971
	c0.867,0.255,1.639,0.695,1.858,0.469C40.853,7.813,39.716,6.639,39.051,5.954z"/>
<path fill="#4E5E67" d="M38.892,6.417c-9.383-9.27-19.449,1.539-19.449,1.539l1.448,1.448C23.798,6.537,30.483,0.278,38.892,6.417z"
	/>
<path fill="#785647" d="M26.392,25.806l-3.189,3.191c0,0,1.471,2.538,4.474,5.634c3.313,3.42,7.69,5.336,12.063,9.848
	c6.576,6.785,12.048,14.07,14.032,16.805c0.748,1.033,0.822,0.892,1.736-0.054l3.148-3.149L26.392,25.806z"/>
<path fill="#B47D56" d="M26.392,25.806l3.693-3.695c0,0,2.344,1.42,5.346,4.518c3.314,3.417,5.173,7.936,9.545,12.447
	c6.576,6.784,13.638,12.43,16.289,14.476c0.998,0.772,0.95,0.939,0.035,1.884l-2.645,2.645L26.392,25.806z"/>
<path fill="#302C3B" d="M8.349,17.495c-0.401,2.256-2.376,1.554-4.196,3.375l7.964,7.967c1.458-1.458,0.285-3.501,3.262-4.31
	L8.349,17.495z"/>
<path fill="#6E8189" d="M12.116,28.837l-1.809,1.811c-0.457,0.457-1.198,0.457-1.655,0l-6.31-6.312
	c-0.457-0.458-0.457-1.198,0-1.655l1.81-1.811L12.116,28.837z"/>
<path fill="#99A8AE" d="M4.03,21.815l-1.098,1.282c-0.215,0.223-0.215,0.583,0,0.805l4.406,4.547
	C3.392,23.058,3.369,23.31,4.03,21.815z"/>
<path fill="#6E8189" d="M25.673,12.785c0.794,0.794,0.794,2.083,0,2.877l-8.629,8.631c-0.793,0.794-2.081,0.794-2.875,0
	l-5.752-5.754c-0.795-0.794-0.795-2.083,0-2.876l8.627-8.631c0.795-0.794,2.082-0.794,2.877,0L25.673,12.785z"/>
<path fill="#99A8AE" d="M17.217,8.133L9.06,16.548c-0.299,0.309-0.299,0.807,0.001,1.116l6.103,6.298
	C9.694,16.494,9.136,17.932,17.217,8.133z"/>
</svg>
