<?xml version="1.0" encoding="utf-8"?>
<!-- Generator: Adobe Illustrator 15.0.0, SVG Export Plug-In . SVG Version: 6.00 Build 0)  -->
<!DOCTYPE svg PUBLIC "-//W3C//DTD SVG 1.1//EN" "http://www.w3.org/Graphics/SVG/1.1/DTD/svg11.dtd">
<svg version="1.1" id="Layer_1" xmlns="http://www.w3.org/2000/svg" xmlns:xlink="http://www.w3.org/1999/xlink" x="0px" y="0px"
	 width="64px" height="64px" viewBox="0 0 64 64" enable-background="new 0 0 64 64" xml:space="preserve">
<path fill="#99A8AE" d="M26.646,54.318c-1.046-1.045-2.571-2.568-4.795-4.789c-6.094-6.086-2.166-10.355-2.166-10.355l-4.583-4.576
	c0,0-7.605,8.781,1.068,17.443l6.378,6.371L26.646,54.318z"/>
<path fill="#99A8AE" d="M33.664,43.984h7.197c4.828-10.918-0.846-22.281-0.984-22.556l-5.684,5.684
	C34.223,27.167,38.088,35.699,33.664,43.984z"/>
<path fill="#4E5E67" d="M44.582,46.973l-0.006-0.021l0,0c-1.479-4.68-5.865-8.074-11.057-8.113
	c-5.188,0.039-9.579,3.434-11.058,8.113l0,0l-0.006,0.021L17.227,62h32.584L44.582,46.973z"/>
<path fill="#302C3B" d="M40.002,50.419c0,10.555-12.968,10.555-12.968,0H40.002z"/>
<rect x="9.189" y="36.06" transform="matrix(0.7075 0.7067 -0.7067 0.7075 31.1203 -1.4638)" fill="#302C3B" width="16.279" height="1.61"/>
<rect x="10.329" y="34.921" transform="matrix(0.7076 0.7066 -0.7066 0.7076 30.6456 -2.6029)" fill="#0FB4D4" width="16.277" height="1.61"/>
<rect x="29.458" y="14.119" transform="matrix(-0.707 -0.7072 0.7072 -0.707 42.9871 59.9758)" fill="#302C3B" width="8.917" height="13.929"/>
<rect x="30.779" y="12.946" transform="matrix(-0.7071 -0.7071 0.7071 -0.7071 40.5508 55.8758)" fill="#4E5E67" width="2.137" height="13.187"/>
<rect x="36.936" y="12.227" transform="matrix(-0.707 -0.7072 0.7072 -0.707 61.0399 52.4986)" fill="#302C3B" width="8.917" height="2.757"/>
<rect x="38.257" y="11.053" transform="matrix(-0.707 -0.7072 0.7072 -0.707 58.5987 48.4005)" fill="#4E5E67" width="2.137" height="2.016"/>
<rect x="44.413" y="4.748" transform="matrix(-0.707 -0.7072 0.7072 -0.707 79.0907 45.0235)" fill="#302C3B" width="8.918" height="2.759"/>
<rect x="45.996" y="2.943" transform="matrix(-0.7071 -0.7071 0.7071 -0.7071 77.2881 40.6573)" fill="#4E5E67" width="2.137" height="2.758"/>
<polygon fill="#302C3B" points="21.259,28.488 26.514,33.743 30.568,30.737 24.264,24.432 "/>
<polygon fill="#4E5E67" points="21.784,29.014 22.836,30.065 25.84,27.059 24.264,25.482 "/>
<polygon fill="#99A8AE" points="21.001,31.898 23.103,34 26.513,33.742 21.258,28.487 "/>
<polygon fill="#6E8189" points="22.577,33.475 23.103,34 26.513,33.742 24.937,32.166 "/>
<polygon fill="#CFD8DD" points="21.526,32.424 22.052,32.949 22.835,30.064 21.783,29.013 "/>
<rect x="23.003" y="25.682" transform="matrix(-0.707 -0.7072 0.7072 -0.707 29.1929 65.6882)" fill="#99A8AE" width="10.403" height="2.23"/>
<rect x="29.348" y="28.31" transform="matrix(-0.7069 -0.7073 0.7073 -0.7069 31.8168 72.0339)" fill="#6E8189" width="2.969" height="2.23"/>
<rect x="24.835" y="23.055" transform="matrix(-0.7071 -0.7071 0.7071 -0.7071 26.5732 59.3463)" fill="#CFD8DD" width="1.485" height="2.229"/>
<rect x="34.43" y="14.255" transform="matrix(-0.7069 -0.7073 0.7073 -0.7069 56.7783 54.2643)" fill="#99A8AE" width="10.402" height="2.229"/>
<rect x="40.775" y="16.883" transform="matrix(-0.707 -0.7072 0.7072 -0.707 59.4096 60.6084)" fill="#6E8189" width="2.968" height="2.229"/>
<rect x="36.262" y="11.628" transform="matrix(-0.7069 -0.7073 0.7073 -0.7069 54.153 47.9227)" fill="#CFD8DD" width="1.485" height="2.228"/>
<rect x="41.608" y="5.96" transform="matrix(-0.7069 -0.7073 0.7073 -0.7069 70.0598 48.7657)" fill="#99A8AE" width="7.051" height="7.814"/>
<rect x="45.57" y="7.601" transform="matrix(-0.7068 -0.7074 0.7074 -0.7068 71.6936 52.7311)" fill="#6E8189" width="2.41" height="7.814"/>
<rect x="42.949" y="4.518" transform="matrix(-0.7068 -0.7074 0.7074 -0.7068 68.6115 45.2881)" fill="#CFD8DD" width="1.484" height="7.814"/>
<path fill="#6E8189" d="M41.004,24.17c0.871,3.742-2.729,6.657-5.963,5.458l-0.848-2.517L41.004,24.17z"/>
<path fill="#6E8189" d="M19.227,39.898c0,0-0.575,1.003-0.759,2.309c-1.254-2.696-4.4-6.172-4.4-6.172
	c0.24-0.399,0.524-0.766,0.524-0.766L19.227,39.898z"/>
<path fill="#99A8AE" d="M41.004,24.17c0,5.333-8,5.333-8,0S41.004,18.836,41.004,24.17z"/>
<path fill="#302C3B" d="M39.004,24.17c0,2.667-4,2.667-4,0S39.004,21.503,39.004,24.17z"/>
<ellipse fill="#99A8AE" cx="33.52" cy="50.42" rx="6.484" ry="6.434"/>
<path fill="#302C3B" d="M33.52,47.201c-1.788,0-3.243,1.441-3.243,3.219c0,1.775,1.455,3.217,3.243,3.217
	c1.789,0,3.242-1.441,3.242-3.217C36.762,48.643,35.309,47.201,33.52,47.201z"/>
</svg>
