<?xml version="1.0" encoding="utf-8"?>
<!-- Generator: Adobe Illustrator 15.0.0, SVG Export Plug-In . SVG Version: 6.00 Build 0)  -->
<!DOCTYPE svg PUBLIC "-//W3C//DTD SVG 1.1//EN" "http://www.w3.org/Graphics/SVG/1.1/DTD/svg11.dtd">
<svg version="1.1" id="Layer_1" xmlns="http://www.w3.org/2000/svg" xmlns:xlink="http://www.w3.org/1999/xlink" x="0px" y="0px"
	 width="64px" height="64px" viewBox="0 0 64 64" enable-background="new 0 0 64 64" xml:space="preserve">
<path fill="#6E8189" d="M39.847,48.262l12.56-2.892l7.337,7.502l1.925-0.656c0,0-12.231-14.748-16.066-13.799L25.077,17.45
	c0.932-3.922-12.218-15.113-12.218-15.113l-1.926,0.656l7.993,8.171l-3.247,12.51L4.256,11.128l-1.925,0.656
	C1.4,15.705,2.433,20.012,5.43,23.073c2.994,3.062,7.211,4.115,11.046,3.165L37,47.205c-0.932,3.923,0.102,8.23,3.098,11.291
	c2.996,3.063,7.212,4.114,11.045,3.167l1.926-0.656L39.847,48.262z"/>
<path fill="#CFD8DD" d="M46.893,45.905l6.785-1.859l7.99,8.17c0.933-3.921-0.098-8.229-3.096-11.289
	c-2.995-3.062-7.211-4.115-11.046-3.164L27.002,16.794c0.932-3.922-0.102-8.23-3.097-11.291c-2.997-3.064-7.213-4.115-11.046-3.167
	l7.992,8.171l-1.818,6.931l-6.784,1.858l-7.993-8.169c-0.93,3.92,0.102,8.228,3.098,11.289c2.996,3.062,7.213,4.115,11.047,3.166
	L38.926,46.55c-0.933,3.922,0.101,8.23,3.096,11.291c2.996,3.063,7.213,4.114,11.047,3.166l-7.994-8.172L46.893,45.905z"/>
<path fill="#BEC3CF" d="M42.066,37.531c0.931,0.951-2.438,4.394-3.369,3.442L23.859,25.813c-0.929-0.951,2.439-4.393,3.369-3.442
	L42.066,37.531z"/>
<path fill="#99A8AE" d="M26.029,22.456l14.754,15.075c0.672,0.687-0.895,2.663-2.169,3.357l0.083,0.085
	c0.932,0.951,4.3-2.491,3.369-3.442L27.229,22.37C26.97,22.105,26.521,22.188,26.029,22.456z"/>
</svg>
