<?xml version="1.0" encoding="utf-8"?>
<!-- Generator: Adobe Illustrator 15.0.0, SVG Export Plug-In . SVG Version: 6.00 Build 0)  -->
<!DOCTYPE svg PUBLIC "-//W3C//DTD SVG 1.1//EN" "http://www.w3.org/Graphics/SVG/1.1/DTD/svg11.dtd">
<svg version="1.1" id="Layer_1" xmlns="http://www.w3.org/2000/svg" xmlns:xlink="http://www.w3.org/1999/xlink" x="0px" y="0px"
	 width="64px" height="64px" viewBox="0 0 64 64" enable-background="new 0 0 64 64" xml:space="preserve">
<path fill="#006DAE" d="M62,32c0,16.568-13.428,30-29.997,30C15.424,62,2,48.568,2,32C2,15.433,15.424,2,32.003,2
	C48.572,2,62,15.433,62,32z"/>
<path fill="#014D87" d="M50.737,8.591c4.097,5.13,6.563,11.622,6.563,18.701c0,16.568-13.429,30.003-29.995,30.003
	c-7.101,0-13.609-2.478-18.744-6.594C14.055,57.58,22.503,62,32.003,62c16.566,0,29.995-13.432,29.995-30
	C61.998,22.527,57.596,14.09,50.737,8.591z"/>
<path fill-rule="evenodd" clip-rule="evenodd" fill="#0FB4D4" d="M9.734,19.015c0.549,3.865,7.767-3.7,15.08-10.202
	C29.531,4.63,8.083,7.385,9.734,19.015z"/>
</svg>
