<?xml version="1.0" encoding="utf-8"?>
<!-- Generator: Adobe Illustrator 15.0.0, SVG Export Plug-In . SVG Version: 6.00 Build 0)  -->
<!DOCTYPE svg PUBLIC "-//W3C//DTD SVG 1.1//EN" "http://www.w3.org/Graphics/SVG/1.1/DTD/svg11.dtd">
<svg version="1.1" id="Layer_1" xmlns="http://www.w3.org/2000/svg" xmlns:xlink="http://www.w3.org/1999/xlink" x="0px" y="0px"
	 width="64px" height="64px" viewBox="0 0 64 64" enable-background="new 0 0 64 64" xml:space="preserve">
<path fill="#F59E01" d="M57.043,24.592C54.029,17.379,44.76,8.686,44.76,8.686s2.994,8.436,0.826,18.266l3.51-3.037
	c0,0,2.342,0.434,2.717,3.957c0.465,4.355-1.031,9.568-1.031,9.568s-5.506-0.738-13.92-0.617l-3.01-19.584l7.156,4.691L32,2
	l-9.008,19.93l7.156-4.691l-3.01,19.584c-8.416-0.121-13.922,0.617-13.922,0.617s-1.494-5.213-1.027-9.568
	c0.375-3.523,2.715-3.957,2.715-3.957l3.51,3.037c-2.168-9.83,0.826-18.266,0.826-18.266s-9.27,8.693-12.285,15.906
	C3.859,32,2,40.818,2,40.818l6.4,5.914c0,0,5.648-1.664,9.963-1.998c4.129-0.318,8.93-0.398,8.93-0.398l-0.088,8.48L32,62
	l5.326-8.953l-0.619-8.711c0,0,4.801,0.08,8.93,0.398c4.314,0.334,9.963,1.998,9.963,1.998l6.4-5.914
	C62,40.818,60.143,32,57.043,24.592z"/>
<path fill="#FFE12C" d="M50.096,20.914l-1,3c4.5,2.829,1.686,13.525,1.686,13.525l2,2C52.781,39.439,58.934,27.191,50.096,20.914z"
	/>
<path fill="#FFE12C" d="M45.586,26.951l2-3c3.303-8.713-0.826-12.266-0.826-12.266l-2-3C44.76,8.686,47.393,17.129,45.586,26.951z"
	/>
<path fill="#FFE12C" d="M17.24,11.686l2-3c0,0-9.27,8.693-12.285,15.906C3.859,32,2,40.818,2,40.818l6.4,5.914l1-2
	C2,29.004,17.24,11.686,17.24,11.686z"/>
<path fill="#F9B700" d="M56.043,24.592c-3.014-7.213-9.283-12.906-9.283-12.906s1.967,4.131,0.826,12.266l2.51-3.037
	c0,0,7.256,6.037,2.686,18.525c0,0-9.506-1.738-17.92-1.617l-2.01-22.584l4.156,2.691L32,6l-5.008,11.93l4.156-2.691l-2.01,22.584
	c-8.416-0.121-17.922,1.617-17.922,1.617s-1.494-7.213-1.027-11.568c0.375-3.523,3.715-6.957,3.715-6.957l2.51,3.037
	c-1.396-8.713,0.826-12.266,0.826-12.266s-6.27,5.693-9.285,12.906C4.859,32,4,39.818,4,39.818l5.4,4.914
	c0,0,4.648-1.664,8.963-1.998c4.129-0.318,10.93-0.398,10.93-0.398l-1.619,9.711L32,59l3.326-6.953l-0.619-9.711
	c0,0,6.801,0.08,10.93,0.398c4.314,0.334,8.963,1.998,8.963,1.998l5.4-4.914C60,39.818,59.143,32,56.043,24.592z"/>
<polygon fill="#FFE12C" points="22.992,21.93 26.992,17.93 32,6 32,2 "/>
<polygon fill="#FFE12C" points="31.148,15.238 29.979,17.35 26.86,36.818 29.139,37.822 "/>
<polygon fill="#FFE12C" points="29.293,42.336 27.293,44.336 26.674,53.047 32,62 32,59 28.674,52.047 "/>
</svg>
