<?xml version="1.0" encoding="utf-8"?>
<!-- Generator: Adobe Illustrator 15.0.0, SVG Export Plug-In . SVG Version: 6.00 Build 0)  -->
<!DOCTYPE svg PUBLIC "-//W3C//DTD SVG 1.1//EN" "http://www.w3.org/Graphics/SVG/1.1/DTD/svg11.dtd">
<svg version="1.1" id="Layer_1" xmlns="http://www.w3.org/2000/svg" xmlns:xlink="http://www.w3.org/1999/xlink" x="0px" y="0px"
	 width="64px" height="64px" viewBox="0 0 64 64" enable-background="new 0 0 64 64" xml:space="preserve">
<rect x="14" y="36" fill="#FFE8BB" width="36" height="26"/>
<rect x="16" y="34" fill="#EBBB96" width="32" height="2"/>
<rect x="38" y="34" fill="#D6A57C" width="10" height="2"/>
<path fill="#ED9D00" d="M42.26,19.869C35.334,16.59,32,14,32,14s-3.336,2.59-10.258,5.869C17.018,22.107,14,25.637,14,30
	c0,0,0,2,2,4h32c2-2,2-4,2-4C50,25.637,46.98,22.107,42.26,19.869z"/>
<path fill="#D47706" d="M42.26,19.869C35.334,16.59,32,14,32,14c3.123,4.714,16,12.629,6,20h10c2-2,2-4,2-4
	C50,25.637,46.98,22.107,42.26,19.869z"/>
<path fill="#45332C" d="M43,40c-3,2.668-3,2.668-3,5.332V48h6v-2.668C46,42.668,46,42.668,43,40z"/>
<path fill="#EBBB96" d="M32,46c-7,5.334-7,5.334-7,10.666V62h14v-5.334C39,51.334,39,51.334,32,46z"/>
<path fill="#45332C" d="M32,48c-5,3.893-5,3.893-5,7.775V62h10v-6.225C37,51.893,37,51.893,32,48z"/>
<path fill="#45332C" d="M21,40c-3,2.668-3,2.668-3,5.332V48h6v-2.668C24,42.668,24,42.668,21,40z"/>
<path fill="#ED9D00" d="M33.584,11.869c-3.01,0-5.455-2.443-5.455-5.457c0-1.818,0.9-3.42,2.27-4.412
	C27.861,2.756,26,5.078,26,7.859C26,11.252,28.748,14,32.139,14c2.781,0,5.104-1.861,5.861-4.398
	C37.006,10.971,35.408,11.869,33.584,11.869z"/>
<rect x="50" y="18" fill="#EBBB96" width="10" height="44"/>
<rect x="58" y="18" fill="#D6A57C" width="2" height="44"/>
<polygon fill="#EBBB96" points="60,32 50,32 48,30 62,30 "/>
<polygon fill="#D6A57C" points="60,32 58,32 57.972,30 62,30 "/>
<rect x="48" y="28" fill="#FFE1BD" width="14" height="2"/>
<rect x="59" y="28" fill="#EBBB96" width="3" height="2"/>
<polygon fill="#FFE1BD" points="54,8 50,18 60,18 56,8 "/>
<polygon fill="#EBBB96" points="58,18 60,18 56,8 55.002,8 "/>
<polygon fill="#ED9D00" points="55.002,2 54,4 54,8 56,8 56,4 "/>
<polygon fill="#D47706" points="55.002,2 55.002,8 56,8 56,4 "/>
<rect x="48" y="60" fill="#EBBB96" width="14" height="2"/>
<rect x="56.284" y="60" fill="#D6A57C" width="5.716" height="2"/>
<path fill="#45332C" d="M55,20c-3,2.668-3,2.668-3,5.334V28h6v-2.666C58,22.668,58,22.668,55,20z"/>
<rect x="4" y="18" fill="#EBBB96" width="10" height="44"/>
<rect x="12" y="18" fill="#D6A57C" width="2" height="44"/>
<polygon fill="#EBBB96" points="14,32 4,32 2,30 16,30 "/>
<polygon fill="#D6A57C" points="14,32 12,32 11.972,30 16,30 "/>
<rect x="2" y="28" fill="#FFE1BD" width="14" height="2"/>
<rect x="13" y="28" fill="#EBBB96" width="3" height="2"/>
<polygon fill="#FFE1BD" points="8,8 4,18 14,18 10,8 "/>
<polygon fill="#EBBB96" points="12,18 14,18 10,8 9.002,8 "/>
<polygon fill="#ED9D00" points="9.002,2 8,4 8,8 10,8 10,4 "/>
<polygon fill="#D47706" points="9.002,2 9.002,8 10,8 10,4 "/>
<rect x="2" y="60" fill="#EBBB96" width="14" height="2"/>
<rect x="10.284" y="60" fill="#D6A57C" width="5.716" height="2"/>
<path fill="#45332C" d="M9,20c-3,2.668-3,2.668-3,5.334V28h6v-2.666C12,22.668,12,22.668,9,20z"/>
</svg>
