<?xml version="1.0" encoding="utf-8"?>
<!-- Generator: Adobe Illustrator 15.0.0, SVG Export Plug-In . SVG Version: 6.00 Build 0)  -->
<!DOCTYPE svg PUBLIC "-//W3C//DTD SVG 1.1//EN" "http://www.w3.org/Graphics/SVG/1.1/DTD/svg11.dtd">
<svg version="1.1" id="Layer_1" xmlns="http://www.w3.org/2000/svg" xmlns:xlink="http://www.w3.org/1999/xlink" x="0px" y="0px"
	 width="64px" height="64px" viewBox="0 0 64 64" enable-background="new 0 0 64 64" xml:space="preserve">
<polygon fill="#4E5E67" points="14,54 2,42 2,2 14,14 "/>
<rect x="14" y="14" fill="#302C3B" width="48" height="40"/>
<polygon fill="#302C3B" points="62,14 14,14 2,2 50,2 "/>
<path fill="#E6EBEF" d="M16,12h40l-8-8H8L16,12z"/>
<polygon fill="#BEC3CF" points="48,4 8,4 10,6 48,6 54,12 56,12 "/>
<rect x="14" y="28" fill="#F9B700" width="48" height="6"/>
<polygon fill="#FFE12C" points="14,34 2,22 2,16 14,28 "/>
<rect x="42" y="36" fill="#F9B700" width="10" height="6"/>
<rect x="60" y="36" fill="#F9B700" width="2" height="6"/>
<path fill="#F9B700" d="M57.258,37.908c-0.652-0.613-0.26-1.299-0.26-1.299L56,36l-0.998,0.609c0,0,0.393,0.686-0.26,1.299
	C52.52,40,56,42,56,42S59.48,40,57.258,37.908z"/>
<path fill="#F9B700" d="M39.258,37.908c-0.652-0.613-0.26-1.299-0.26-1.299L38,36l-0.998,0.609c0,0,0.393,0.686-0.26,1.299
	C34.52,40,38,42,38,42S41.48,40,39.258,37.908z"/>
<path fill="#F9B700" d="M19.258,37.908c-0.652-0.613-0.26-1.299-0.26-1.299L18,36l-0.998,0.609c0,0,0.393,0.686-0.26,1.299
	C14.52,40,18,42,18,42S21.48,40,19.258,37.908z"/>
<polygon fill="#FFE12C" points="12,34 12,40 14,42 14,36 "/>
<polygon fill="#FFE12C" points="6,28 6,33.5 10,38 10,32 "/>
<polygon fill="#FFE12C" points="2,24 2,30 4,32 4,26 "/>
<polygon fill="#E6EBEF" points="2,42 14,54 14,44 2,32 "/>
<rect x="34" y="44" fill="#BEC3CF" width="28" height="10"/>
<rect x="14" y="44" fill="#BEC3CF" width="8" height="10"/>
<rect x="14" y="54" fill="#C49A45" width="48" height="8"/>
<polygon fill="#FDCA47" points="14,62 2,50 2,42 14,54 "/>
<rect x="22" y="50" fill="#FFE463" width="12" height="8"/>
<polygon fill="#F9B700" points="22,36 22,54 26,54 28,50 30,54 34,54 34,36 "/>
<rect x="24" y="38" fill="#FFE463" width="8" height="2"/>
<rect x="30" y="48" fill="#FFE463" width="2" height="2"/>
<rect x="24" y="48" fill="#FFE463" width="2" height="2"/>
<rect x="32" y="42" fill="#FFE463" width="2" height="2"/>
<rect x="26" y="42" fill="#FFE463" width="4" height="2"/>
<rect x="14" y="56" fill="#FDCA47" width="6" height="2"/>
<polygon fill="#C49A45" points="12,54 8,50 8,48 12,52 "/>
<polygon fill="#C49A45" points="14,60 10,56 10,54 14,58 "/>
<polygon fill="#C49A45" points="8,54 4,50 4,48 8,52 "/>
<polygon fill="#C49A45" points="6,48 2,44 2,42 6,46 "/>
<rect x="20" y="60" fill="#FDCA47" width="6" height="2"/>
<rect x="32" y="60" fill="#FDCA47" width="6" height="2"/>
<rect x="44" y="58" fill="#FDCA47" width="6" height="2"/>
<rect x="54" y="60" fill="#FDCA47" width="6" height="2"/>
<rect x="36" y="56" fill="#FDCA47" width="6" height="2"/>
<rect x="48" y="54" fill="#FDCA47" width="6" height="2"/>
<rect x="56" y="56" fill="#FDCA47" width="6" height="2"/>
<rect x="22" y="42" fill="#FFE463" width="2" height="2"/>
</svg>
