<?xml version="1.0" encoding="utf-8"?>
<!-- Generator: Adobe Illustrator 15.0.0, SVG Export Plug-In . SVG Version: 6.00 Build 0)  -->
<!DOCTYPE svg PUBLIC "-//W3C//DTD SVG 1.1//EN" "http://www.w3.org/Graphics/SVG/1.1/DTD/svg11.dtd">
<svg version="1.1" id="Layer_1" xmlns="http://www.w3.org/2000/svg" xmlns:xlink="http://www.w3.org/1999/xlink" x="0px" y="0px"
	 width="64px" height="64px" viewBox="0 0 64 64" enable-background="new 0 0 64 64" xml:space="preserve">
<path fill="#7AB51D" d="M4.949,14.922c0,0,3.039,0.892,2.963,3.681c-0.074,2.785,1.175,3.941,1.175,3.941s-3.863-1.971-3.876-4.127
	C5.201,16.261,5.205,16.044,4.949,14.922z"/>
<path fill="#7AB51D" d="M16.358,24.332c0,0-1.97,2.095-4.279,0.217c-2.313-1.874-3.204-1.741-3.204-1.741s2.628-1.901,4.443-0.514
	C15.135,23.683,15.313,23.827,16.358,24.332z"/>
<path fill="#7AB51D" d="M2,19.23c0,0,3.022-0.076,3.797,2.728c0.775,2.801,2.26,3.553,2.26,3.553s-4.1-0.738-4.766-2.882
	C2.629,20.483,2.568,20.269,2,19.23z"/>
<path fill="#7AB51D" d="M15.121,29.343c0,0-2.606,1.251-4.322-1.197c-1.717-2.443-2.742-2.635-2.742-2.635s3.303-0.843,4.676,1.002
	C14.107,28.358,14.241,28.549,15.121,29.343z"/>
<path fill="#92C932" d="M11.329,16.811c-2.004,2.968-3.214,6.72-3.679,10.455c-0.516,3.858-0.059,7.939,2.002,11.683
	c0.025-0.01,0.051-0.018,0.076-0.025c-0.998-3.855-1.707-7.718-1.383-11.538c0.145-1.69,0.45-3.339,0.883-4.937
	c0.281-1.126,0.672-2.226,1.102-3.281C10.488,18.779,11.508,17.111,11.329,16.811L11.329,16.811z"/>
<path fill="#7AB51D" d="M14.139,13.657c0,0,1.032,3.076-1.445,3.953c-2.478,0.876-2.739,2.408-2.739,2.408s-0.583-4.199,1.292-4.941
	C13.119,14.334,13.311,14.267,14.139,13.657z"/>
<polygon fill="#EA8800" points="10.451,30.399 5.375,33.896 11.854,33.18 "/>
<path fill="#99A8AE" d="M20.504,29.917c0.338-8.036,12.968-14.561,19.605-24.852c2.861-4.436,5.344-2.086,3.619,5.953
	c11.533,1.873-8.947,24.523-13.071,26.168L20.504,29.917z"/>
<path fill="#CFD8DD" d="M22.624,32.724c0.338-8.035,15.898-14.184,23.836-21.662c17.161-16.169,19.19-6.943,10.573-1.035
	c11.534,1.876-2.686,8.623-2.686,8.623c12.662,0.605-0.967,6.687-0.967,6.687c10.6,1.841-3.367,5.177-3.367,5.177
	c7.025,2.352-2.861,4.814-2.861,4.814c5.007,3.527-4.922,3.891-9.045,5.535L22.624,32.724z"/>
<path fill="#CFD8DD" d="M9.723,31.976c0.035-1.952,2.58-4.406,6.34-4.406c10.152,0,20.338,9.719,27.711,18.475
	c4.319,5.13,11.61,2.767,13.8,5.584c1.57,2.021-1.794,2.881-1.794,2.881s2.803,4.271-2.554,2.68c0,0,1.739,5.115-4.704,2.936
	c0,0-1.453,3.262-4.553,1.183c-4.178-2.804-0.756-11.245-12.816-13.771C10.85,43.278,14.736,36.651,13.426,35.001
	C12.727,34.12,9.703,33.058,9.723,31.976z"/>
<path fill="#302C3B" d="M14.305,31.903c-1.986,0-1.986-3.008,0-3.008S16.291,31.903,14.305,31.903z"/>
<path fill="#FFFFFF" d="M13.647,30.048c-0.53,0-0.53-0.801,0-0.801C14.177,29.247,14.177,30.048,13.647,30.048z"/>
<path fill="#BEC3CF" d="M40.979,22.861C38.307,23.976,56.368,12.951,62,3.563C61.854,9.433,43.758,21.702,40.979,22.861z"/>
<path fill="#BEC3CF" d="M40.003,27.372c-2.435,0.647,14.366-8.271,20.849-13.207C59.459,16.909,42.479,26.714,40.003,27.372z"/>
<path fill="#BEC3CF" d="M39.755,31.007c-2.437,0.25,5.909-1.607,19.015-8.929C55.136,25.71,41.862,30.791,39.755,31.007z"/>
<path fill="#BEC3CF" d="M39.375,33.513c3.243-1.081,7.916-1.817,17.578-5.713C53.271,31.116,37.739,34.058,39.375,33.513z"/>
<path fill="#BEC3CF" d="M38.986,36.907c1.926-0.517,5.201-0.653,12.414-3.213C47.998,36.032,37.313,37.356,38.986,36.907z"/>
<path fill="#BEC3CF" d="M48.521,60.124c0,0-0.985-2.562-3.857-4.66c-1.4-1.023,3.234,4.947,2.594,6.129
	C47.258,61.593,48.335,60.858,48.521,60.124z"/>
<path fill="#BEC3CF" d="M53.226,57.188c0,0-2.31-1.578-4.981-2.916c-1.578-0.789,5.666,4.075,5.024,5.256
	C53.269,59.528,53.775,58.23,53.226,57.188z"/>
<path fill="#BEC3CF" d="M55.779,54.509c0,0-0.434,0-2.178-1.134c-1.463-0.951,2.842,1.269,4.274-0.233
	C57.876,53.142,57.489,54.189,55.779,54.509z"/>
</svg>
