<?xml version="1.0" encoding="utf-8"?>
<!-- Generator: Adobe Illustrator 15.0.0, SVG Export Plug-In . SVG Version: 6.00 Build 0)  -->
<!DOCTYPE svg PUBLIC "-//W3C//DTD SVG 1.1//EN" "http://www.w3.org/Graphics/SVG/1.1/DTD/svg11.dtd">
<svg version="1.1" id="Layer_1" xmlns="http://www.w3.org/2000/svg" xmlns:xlink="http://www.w3.org/1999/xlink" x="0px" y="0px"
	 width="64px" height="64px" viewBox="0 0 64 64" enable-background="new 0 0 64 64" xml:space="preserve">
<path fill="#AA5BEF" d="M62,50c0,6.601-5.4,12-12,12H14C7.4,62,2,56.601,2,50V14C2,7.4,7.4,2,14,2h36c6.6,0,12,5.4,12,12V50z"/>
<path fill="#8D40CF" d="M56.838,4.162C58.197,6.106,59,8.462,59,11v37c0,6.601-4.398,11-11,11H11c-2.537,0-4.893-0.804-6.838-2.162
	C6.336,59.95,9.938,62,14,62h36c6.602,0,12-5.399,12-12V14C62,9.938,59.951,6.336,56.838,4.162z"/>
<path fill-rule="evenodd" clip-rule="evenodd" fill="#C28FEF" d="M4.975,12.585c0.34,2.704,4.793-2.587,9.303-7.135
	C17.188,2.525,3.957,4.45,4.975,12.585z"/>
<path fill-rule="evenodd" clip-rule="evenodd" fill="#FFFFFF" d="M48.829,29.402c-1.244-2.052-3.352-4.239-6.6-4.217
	c-4.57,0.031-6.354,3.665-7.879,6.709c-0.477,0.947-1.236,2.412-2.307,2.619c-1.271,0.248-1.982-0.482-2.818-0.83
	c1.748-1.415,3.316-3.066,3.586-5.687c0.434-4.222-2.174-6.877-5.637-7.156c-3.352-0.271-6.049,0.647-8.201,1.853
	c-0.58,0.325-1.756,1.033-1.795,1.598c-0.027,0.408,1.449,2.392,2.629,5.175c1.527-0.982,3.691-2.777,6.148-3.003
	c4.27-0.391,4.607,3.756,0.387,4.537c-1.752,0.323-3.301-0.13-4.742-0.383c0.811,1.866-0.42,5.377,1.025,6.645
	c1.357,1.191,3.262-0.24,4.805-0.191c2.244,0.07,3.83,2.541,2.756,4.984c-1.383,3.143-6.723,3.932-9.932,1.916
	c-6.133-3.85-5.029-11.117-6.15-11.117c-1.48,0-2.172,18.146,11.02,18.146c5.279,0,9.725-3.969,9.289-9.584
	c-0.125-1.635-0.746-3.084-1.152-4.346c1.086,0.117,2.152,0.023,3.141-0.127c-1.355,2.322-0.471,6.688,0.703,8.434
	c1.762,2.619,5.959,3.521,9.035,1.471c2.551-1.703,4.244-4.5,4.484-8.436C50.843,34.793,50.214,31.682,48.829,29.402z
	 M41.976,41.672c-3.039,0.322-4.965-1.271-5.191-4.793c2.543-1.047,3.383-5.468,6.471-7.285c2.674-1.572,4.182,1.621,4.357,3.898
	C47.942,37.77,45.616,41.283,41.976,41.672z"/>
<path fill-rule="evenodd" clip-rule="evenodd" fill="#FFFFFF" d="M36.817,18.668c0,0,3.689-2.539,3.684-3.866
	C40.495,13.486,36.817,11,36.817,11s-3.678,2.475-3.686,3.802C33.128,16.141,36.817,18.668,36.817,18.668z"/>
<path fill-rule="evenodd" clip-rule="evenodd" fill="#FFFFFF" d="M35.888,23.971c5.248,1.181,11.916-2.908,11.916-4.281
	c0-1.75-3.152-3.414-3.715-4.153c-1.691,2.176-4.74,4.945-8.65,3.897c-3.906-1.047-5.51-6.198-5.51-6.198
	c-0.527,1.665-0.52,3.679,0.064,5.24C30.87,20.814,33.388,23.409,35.888,23.971z"/>
</svg>
