<?xml version="1.0" encoding="utf-8"?>
<!-- Generator: Adobe Illustrator 15.0.0, SVG Export Plug-In . SVG Version: 6.00 Build 0)  -->
<!DOCTYPE svg PUBLIC "-//W3C//DTD SVG 1.1//EN" "http://www.w3.org/Graphics/SVG/1.1/DTD/svg11.dtd">
<svg version="1.1" id="Layer_1" xmlns="http://www.w3.org/2000/svg" xmlns:xlink="http://www.w3.org/1999/xlink" x="0px" y="0px"
	 width="64px" height="64px" viewBox="0 0 64 64" enable-background="new 0 0 64 64" xml:space="preserve">
<path fill="#AA5BEF" d="M62,50c0,6.601-5.4,12-12,12H14C7.4,62,2,56.601,2,50V14C2,7.4,7.4,2,14,2h36c6.6,0,12,5.4,12,12V50z"/>
<path fill="#8D40CF" d="M56.838,4.162C58.196,6.106,59,8.462,59,11v37c0,6.601-4.399,11-11,11H11c-2.537,0-4.894-0.804-6.838-2.162
	C6.336,59.95,9.938,62,14,62h36c6.601,0,12-5.399,12-12V14C62,9.938,59.95,6.336,56.838,4.162z"/>
<path fill-rule="evenodd" clip-rule="evenodd" fill="#C28FEF" d="M4.975,12.585c0.339,2.704,4.793-2.587,9.303-7.135
	C17.188,2.525,3.957,4.45,4.975,12.585z"/>
<path fill="#FFFFFF" d="M50.084,20.773c-0.321,9.313-7.691,16.917-16.881,17.533V35.76c7.848-0.604,13.997-6.948,14.391-14.944
	l0.025-0.524h-2.403l-0.021,0.479c-0.285,6.646-5.4,11.956-11.992,12.554v-2.223c5.494-0.584,9.598-4.843,9.83-10.288l0.022-0.521
	H40.65l-0.041,0.455c-0.363,4.104-3.44,7.35-7.406,7.908v-2.606c2.664-0.516,4.605-2.56,4.889-5.204l0.061-0.553h-2.418l-0.07,0.417
	c-0.225,1.341-1.166,2.402-2.461,2.831v-5.248h-2.409v5.248c-1.296-0.43-2.237-1.49-2.461-2.831l-0.07-0.417h-2.417l0.06,0.553
	c0.284,2.645,2.225,4.688,4.889,5.204v2.606c-3.967-0.559-7.043-3.804-7.406-7.907l-0.041-0.456h-2.406l0.022,0.521
	c0.233,5.445,4.336,9.704,9.83,10.288v2.223c-6.592-0.598-11.707-5.907-11.991-12.554l-0.021-0.479h-2.404l0.026,0.524
	c0.394,7.996,6.543,14.34,14.39,14.944v2.547c-9.189-0.616-16.56-8.22-16.883-17.533l-0.017-0.482h-2.405l0.018,0.517
	c0.357,10.647,8.787,19.313,19.288,19.934v4.691c-0.963,0.321-1.779,0.992-2.031,1.65c-1.82,0.527-2.896,1.465-2.896,2.539
	c0,1.885,4.693,2.031,6.131,2.031c1.438,0,6.13-0.146,6.13-2.031c0-1.074-1.075-2.012-2.895-2.539
	c-0.252-0.658-1.068-1.329-2.031-1.65v-4.691c10.499-0.621,18.93-9.285,19.289-19.934l0.018-0.517h-2.408L50.084,20.773z"/>
<path fill="#FFFFFF" d="M12.775,18.814c0.31,0,0.595-0.125,0.802-0.352c0.147-0.161,0.323-0.45,0.323-0.914
	c0-0.694-0.184-1.113-0.346-1.483c-0.199-0.453-0.356-0.812-0.109-1.79l0.486-1.929l-1.341,1.47
	c-0.055,0.061-1.339,1.499-1.058,3.787C11.629,18.398,12.231,18.814,12.775,18.814z"/>
<path fill="#FFFFFF" d="M17.67,18.814c0.31,0,0.595-0.125,0.802-0.352c0.147-0.161,0.323-0.45,0.323-0.914
	c0-0.694-0.184-1.113-0.346-1.483c-0.199-0.453-0.356-0.812-0.109-1.79l0.486-1.929l-1.34,1.47
	c-0.055,0.061-1.339,1.499-1.058,3.787C16.524,18.398,17.125,18.814,17.67,18.814z"/>
<path fill="#FFFFFF" d="M22.243,18.814c0.31,0,0.595-0.125,0.802-0.352c0.147-0.161,0.323-0.45,0.323-0.914
	c0-0.694-0.184-1.113-0.346-1.483c-0.199-0.453-0.356-0.812-0.109-1.79l0.486-1.929l-1.34,1.47
	c-0.055,0.061-1.339,1.499-1.058,3.788C21.098,18.398,21.699,18.814,22.243,18.814z"/>
<path fill="#FFFFFF" d="M27.188,18.814c0.31,0,0.595-0.125,0.802-0.352c0.147-0.161,0.323-0.45,0.323-0.914
	c0-0.694-0.184-1.113-0.346-1.483c-0.199-0.453-0.356-0.812-0.11-1.79l0.486-1.929l-1.34,1.47c-0.055,0.061-1.339,1.499-1.058,3.788
	C26.042,18.398,26.644,18.814,27.188,18.814z"/>
<path fill="#FFFFFF" d="M32.065,16.814c0.31,0,0.595-0.125,0.802-0.352c0.148-0.161,0.324-0.45,0.324-0.914
	c0-0.694-0.185-1.113-0.347-1.483c-0.199-0.453-0.356-0.812-0.11-1.79l0.486-1.929l-1.34,1.47c-0.055,0.061-1.339,1.499-1.058,3.788
	C30.919,16.398,31.521,16.814,32.065,16.814z"/>
<path fill="#FFFFFF" d="M36.943,18.814c0.309,0,0.594-0.125,0.802-0.352c0.147-0.161,0.323-0.45,0.323-0.914
	c0-0.694-0.184-1.113-0.346-1.483c-0.199-0.453-0.356-0.812-0.109-1.79l0.486-1.929l-1.342,1.47
	c-0.055,0.061-1.339,1.499-1.059,3.788C35.797,18.398,36.398,18.814,36.943,18.814z"/>
<path fill="#FFFFFF" d="M41.887,18.814c0.311,0,0.596-0.125,0.803-0.352c0.147-0.161,0.323-0.45,0.323-0.914
	c0-0.694-0.185-1.113-0.347-1.483c-0.198-0.453-0.355-0.812-0.109-1.79l0.486-1.929l-1.34,1.47c-0.055,0.061-1.34,1.499-1.059,3.787
	C40.741,18.398,41.343,18.814,41.887,18.814z"/>
<path fill="#FFFFFF" d="M46.461,18.814c0.31,0,0.595-0.125,0.803-0.352c0.146-0.161,0.322-0.45,0.322-0.914
	c0-0.694-0.184-1.113-0.346-1.483c-0.199-0.453-0.355-0.812-0.109-1.79l0.486-1.929l-1.341,1.47
	c-0.055,0.061-1.339,1.499-1.058,3.787C45.314,18.398,45.916,18.814,46.461,18.814z"/>
<path fill="#FFFFFF" d="M51.354,18.814c0.31,0,0.595-0.125,0.802-0.352c0.148-0.161,0.324-0.45,0.324-0.914
	c0-0.694-0.185-1.113-0.347-1.483c-0.198-0.453-0.356-0.812-0.109-1.79l0.486-1.929l-1.341,1.47
	c-0.055,0.061-1.34,1.499-1.059,3.787C50.209,18.398,50.811,18.814,51.354,18.814z"/>
</svg>
