<?xml version="1.0" encoding="utf-8"?>
<!-- Generator: Adobe Illustrator 15.0.0, SVG Export Plug-In . SVG Version: 6.00 Build 0)  -->
<!DOCTYPE svg PUBLIC "-//W3C//DTD SVG 1.1//EN" "http://www.w3.org/Graphics/SVG/1.1/DTD/svg11.dtd">
<svg version="1.1" id="Layer_1" xmlns="http://www.w3.org/2000/svg" xmlns:xlink="http://www.w3.org/1999/xlink" x="0px" y="0px"
	 width="64px" height="64px" viewBox="0 0 64 64" enable-background="new 0 0 64 64" xml:space="preserve">
<circle fill="#302C3B" cx="32" cy="32" r="30"/>
<circle fill="#99A8AE" cx="32" cy="32" r="25"/>
<circle fill="#FFFFFF" cx="32" cy="32" r="22"/>
<path fill="#4E5E67" d="M33.666,3.998c2.172,0,4.289,0.234,6.334,0.674C37.119,3.59,34.012,3,30.77,3C17.139,3,5.867,13.432,4,27
	C7.75,13.711,19.609,3.998,33.666,3.998z"/>
<g>
	<path fill="#1A1626" d="M60,30.332c0-2.172-0.232-4.289-0.674-6.332C60.408,26.881,61,29.988,61,33.23
		C61,46.861,50.566,58.133,37,60C50.289,56.25,60,44.391,60,30.332z"/>
</g>
<g>
	<rect x="26.5" y="31.062" transform="matrix(0.866 0.5 -0.5 0.866 22.8506 -9.1506)" fill="#302C3B" width="4" height="14"/>
</g>
<circle fill="#302C3B" cx="32" cy="32" r="4"/>
<rect x="29.999" y="32" fill="#302C3B" width="4" height="20"/>
<path fill="#FFFFFF" d="M29.5,32c0-1.378,1.119-2.5,2.5-2.5c1.379,0,2.5,1.122,2.5,2.5s-1.121,2.5-2.5,2.5
	C30.619,34.5,29.5,33.378,29.5,32z"/>
</svg>
