<?xml version="1.0" encoding="utf-8"?>
<!-- Generator: Adobe Illustrator 15.0.0, SVG Export Plug-In . SVG Version: 6.00 Build 0)  -->
<!DOCTYPE svg PUBLIC "-//W3C//DTD SVG 1.1//EN" "http://www.w3.org/Graphics/SVG/1.1/DTD/svg11.dtd">
<svg version="1.1" id="Layer_1" xmlns="http://www.w3.org/2000/svg" xmlns:xlink="http://www.w3.org/1999/xlink" x="0px" y="0px"
	 width="64px" height="64px" viewBox="0 0 64 64" enable-background="new 0 0 64 64" xml:space="preserve">
<circle fill="#302C3B" cx="32" cy="32" r="30"/>
<circle fill="#99A8AE" cx="32" cy="32" r="25"/>
<circle fill="#FFFFFF" cx="32.001" cy="32" r="22"/>
<path fill="#4E5E67" d="M33.668,3.998c2.172,0,4.289,0.234,6.334,0.674C37.121,3.59,34.014,3,30.771,3
	C17.14,3,5.868,13.432,4.001,27C7.751,13.711,19.61,3.998,33.668,3.998z"/>
<g>
	<path fill="#1A1626" d="M60.002,30.332c0-2.172-0.232-4.289-0.674-6.332c1.082,2.881,1.674,5.988,1.674,9.23
		c0,13.631-10.434,24.902-24,26.77C50.291,56.25,60.002,44.391,60.002,30.332z"/>
</g>
<g>
	
		<rect x="23.938" y="21.5" transform="matrix(-0.4998 0.8661 -0.8661 -0.4998 63.5872 20.2802)" fill="#302C3B" width="3.999" height="14"/>
</g>
<rect x="30" y="32" fill="#302C3B" width="4" height="20"/>
<g>
	<circle fill="#302C3B" cx="32" cy="32" r="4"/>
</g>
<g>
	<path fill="#FFFFFF" d="M29.5,32c0-1.378,1.121-2.5,2.5-2.5c1.381,0,2.5,1.122,2.5,2.5s-1.119,2.5-2.5,2.5
		C30.621,34.5,29.5,33.378,29.5,32z"/>
</g>
</svg>
