<?xml version="1.0" encoding="utf-8"?>
<!-- Generator: Adobe Illustrator 15.0.0, SVG Export Plug-In . SVG Version: 6.00 Build 0)  -->
<!DOCTYPE svg PUBLIC "-//W3C//DTD SVG 1.1//EN" "http://www.w3.org/Graphics/SVG/1.1/DTD/svg11.dtd">
<svg version="1.1" id="Layer_1" xmlns="http://www.w3.org/2000/svg" xmlns:xlink="http://www.w3.org/1999/xlink" x="0px" y="0px"
	 width="64px" height="64px" viewBox="0 0 64 64" enable-background="new 0 0 64 64" xml:space="preserve">
<path fill="#CFD8DD" d="M18.288,17.966v39.528c0,6.008,28.088,6.008,28.088,0V17.966H18.288z"/>
<path fill="#BEC3CF" d="M38.55,26.458c4.218,7.233,1.31,34.909,1.31,34.909c3.772-0.705,6.517-1.996,6.517-3.873V20.927
	C46.376,20.927,37.77,25.121,38.55,26.458z"/>
<path fill="#BEC3CF" d="M46.376,21.468c0.023,3.464-2.723,15.868-6.926,6.292c-3.512-7.998-8.511,19.013-12.703,8.587
	c-7.787-19.37-6.096-2.996-8.459-9.111c-0.746-1.932-1.845-6.456,0-8.269C23.72,13.631,46.362,19.416,46.376,21.468z"/>
<path fill="#E6EBEF" d="M46.376,17.966c2.531,5.966-3.178,17.958-7.382,8.383c-3.511-7.998-9.337,17.317-13.528,6.892
	c-7.788-19.37-5.445-1.103-7.808-7.216c-0.747-1.933-1.216-6.245,0.629-8.058C23.72,12.629,45.567,16.058,46.376,17.966z"/>
<path fill="#CFD8DD" d="M43.608,19.201c-3.422,4.422-18.591,3.985-21.934,0.24c-1.924-2.154,4.863-3.842,10.657-2.588
	C39.647,18.436,44.687,17.805,43.608,19.201z"/>
<path fill="#BEC3CF" d="M21.613,33.385c0,0,1.903,10.986-0.976,9.375C18.497,41.564,20.997,38.107,21.613,33.385z"/>
<path fill="#E6EBEF" d="M40.513,32.608c0,0-2.982,23.757,2.108,20.279C45.812,50.707,41.335,46.219,40.513,32.608z"/>
<path fill="#E81C27" d="M31.507,19.155c-3.549,0-6.871-1.637-3.08-7.829c3.791-6.19,5.002-7.57,5.002-9.326
	C33.429,2,44.707,19.155,31.507,19.155z"/>
<path fill="#FFE12C" d="M31.804,18.844c-2.267,0-4.394-1.048-1.965-5.008c2.421-3.957,3.198-4.837,3.198-5.964
	C33.037,7.872,40.245,18.844,31.804,18.844z"/>
<path fill="#6E8189" d="M33.25,18.952c0,1.729-2.354,1.729-2.354,0c0-1.729,0.526-3.131,1.177-3.131
	C32.722,15.821,33.25,17.223,33.25,18.952z"/>
<path fill="#302C3B" d="M33.25,18.952c0,0.271-2.354,0.271-2.354,0c0-1.729,0.526-3.131,1.177-3.131
	C32.722,15.821,33.25,17.223,33.25,18.952z"/>
<path fill="#FFFFFF" d="M19.255,17.869c-3.224,3.085-1.448,6.64-0.854,2.948C18.735,18.734,20.577,16.604,19.255,17.869z"/>
<path fill="#FFFFFF" d="M24.331,27.315c0.305,6.527,6.199,11.099,2.925,4.938C25.408,28.776,24.206,24.638,24.331,27.315z"/>
<path fill="#FFFFFF" d="M40.591,48.26c-0.981,3.703,2.285,6.213,1.133,2.762C41.074,49.074,40.995,46.742,40.591,48.26z"/>
<path fill="#FFFFFF" d="M40.158,26.459c0.327,2.688,3.161,3.602,1.483,1.574C40.694,26.888,40.025,25.357,40.158,26.459z"/>
<path fill="#E6EBEF" d="M21.54,28.04c0,0,1.883,14.985-1.329,12.792C18.198,39.455,21.021,36.627,21.54,28.04z"/>
<path fill="#FFFFFF" d="M20.313,36.98c-1.375,2.381,0.395,4.643,0.256,2.084C20.491,37.619,20.878,36.004,20.313,36.98z"/>
</svg>
