<?xml version="1.0" encoding="utf-8"?>
<!-- Generator: Adobe Illustrator 15.0.0, SVG Export Plug-In . SVG Version: 6.00 Build 0)  -->
<!DOCTYPE svg PUBLIC "-//W3C//DTD SVG 1.1//EN" "http://www.w3.org/Graphics/SVG/1.1/DTD/svg11.dtd">
<svg version="1.1" id="Layer_1" xmlns="http://www.w3.org/2000/svg" xmlns:xlink="http://www.w3.org/1999/xlink" x="0px" y="0px"
	 width="64px" height="64px" viewBox="0 0 64 64" enable-background="new 0 0 64 64" xml:space="preserve">
<path fill="#302C3B" d="M50.553,52.659c-2.498-1.375-12.877-5.018-12.877-5.018H22.218c0,0-10.368,3.633-12.857,5.016
	c-3.613,2.004-4.372,9.344-4.372,9.344h50C54.988,62.001,54.18,54.655,50.553,52.659z"/>
<rect x="21.801" y="43.735" fill="#E6A400" width="16.382" height="9.078"/>
<polygon fill="#FFFFFF" points="30,50.778 21.277,46.786 23.83,62.001 36.172,62.001 38.725,46.786 "/>
<polygon fill="#E6EBEF" points="30,50.778 22.28,54.159 23.83,62.001 36.172,62.001 37.723,54.159 "/>
<polygon fill="#018BC9" points="34.359,62.001 32.045,54.479 33.125,52.146 30,50.778 26.876,52.146 27.958,54.479 25.642,62.001 
	"/>
<path fill="#4E5E67" d="M18.934,62.001c0,0-3.293-3.262-6.306-9.578l7.616-2.109l-8.533-5.58c0,0,5.327-4.186,10.568-5.443v11.023
	c0,0,0.83,4.924,4.983,11.688H18.934z"/>
<path fill="#4E5E67" d="M41.068,62.001c0,0,3.291-3.262,6.307-9.578l-7.617-2.109l8.533-5.58c0,0-5.328-4.186-10.568-5.443v11.023
	c0,0-0.83,4.924-4.982,11.688H41.068z"/>
<path fill="#EA8800" d="M29.989,5.873c-17.955,0-17.955,10.639-17.955,23.94h35.907C47.941,16.512,47.941,5.873,29.989,5.873z"/>
<path fill="#F5BC2C" d="M15.927,35.093c1.9-1.77,0.175-8.71-2.275-9.128C8.417,25.072,11.828,38.908,15.927,35.093z"/>
<path fill="#F5BC2C" d="M44.049,35.093c-1.9-1.77-0.176-8.71,2.274-9.128C51.559,25.072,48.148,38.907,44.049,35.093z"/>
<path fill="#FDCA47" d="M45.821,26.603c0-14.547-6.218-9.8-15.833-9.8c-9.614,0-15.833-4.748-15.833,9.8
	c0,0,0.034,4.112,1.059,9.515c1.356,7.149,8.967,12.317,14.773,12.317c5.807,0,13.418-5.168,14.774-12.317
	C45.787,30.713,45.821,26.603,45.821,26.603z"/>
<path fill="#D99025" d="M29.988,38.821c-2.835-0.753-7.037,0.355-7.037,0.355c1.601,1.568,2.774,3.604,7.037,3.604
	c4.886,0,5.713-2.311,7.037-3.604C37.024,39.177,32.819,38.065,29.988,38.821z"/>
<path fill="#FFFFFF" d="M23.941,39.233c3.012,2.799,9.1,2.818,12.131,0C32.859,39.386,27.176,39.388,23.941,39.233z"/>
<path fill="#E6A400" d="M33.506,34.442c0,2.29-7.037,2.29-7.037,0C26.469,33.917,33.506,33.917,33.506,34.442z"/>
<path fill="#F5F5F5" d="M44.244,27.977c-2.039,5.313-10.338,4.534-11.859,0.818C33.537,22.822,43.121,22.309,44.244,27.977z"/>
<path fill="#45332C" d="M34.502,27.408c0,4.688,6.777,4.688,6.777,0C41.279,23.059,34.502,23.059,34.502,27.408z"/>
<path fill="#45332C" d="M44.244,27.939c0-5.707-11.859-5.707-11.859,0.9C34.08,23.418,42.549,23.418,44.244,27.939z"/>
<path fill="#F5F5F5" d="M16.868,27.523c1.708,4.448,8.659,3.797,9.93,0.686C25.831,23.207,17.808,22.777,16.868,27.523z"/>
<path fill="#45332C" d="M25.024,27.049c0,3.924-5.674,3.924-5.674,0C19.35,23.408,25.024,23.408,25.024,27.049z"/>
<path fill="#45332C" d="M16.868,27.492c0-4.779,9.93-4.779,9.93,0.754C25.38,23.707,18.286,23.707,16.868,27.492z"/>
<path fill="#F5F5F5" d="M34.904,26.264c0,1.178,1.703,1.178,1.703,0C36.607,25.172,34.904,25.172,34.904,26.264z"/>
<path fill="#F5F5F5" d="M21.292,25.891c0,0.984-1.425,0.984-1.425,0C19.867,24.977,21.292,24.977,21.292,25.891z"/>
<circle opacity="0.5" fill="#F5F5F5" cx="40.535" cy="28.5" r="9.554"/>
<path opacity="0.5" fill="#F5F5F5" d="M41.598,21.519L31.459,31.584c-0.076,2.071,1.459,3.209,2.587,4.864l13.264-13.265
	C46.445,22.592,42.521,21.487,41.598,21.519z"/>
<path opacity="0.5" fill="#F5F5F5" d="M49.367,25.794L37.723,37.438c0.979,0.256,1.96,0.348,2.92,0.295l9.023-9.024
	C49.721,27.712,49.612,26.731,49.367,25.794z"/>
<path fill="#1A1626" d="M52.328,62.001h-6.09c0,0,1.533-6.41,2.152-12.885C52.373,54.888,52.328,62.001,52.328,62.001z"/>
<polygon fill="#302C3B" points="59.143,62.001 48.391,62.001 48.391,43.157 59.143,43.532 "/>
<path fill="#FDCA47" d="M54.316,48.565c-2.721,0.594-6.605-3.291-6.012-6.012C50.936,30.518,66.352,45.938,54.316,48.565z"/>
<rect x="47.338" y="35.187" transform="matrix(-0.7077 0.7065 -0.7065 -0.7077 109.8543 28.5339)" fill="#BEC3CF" width="3.373" height="3.61"/>
<path fill="#BEC3CF" d="M48.041,36.007c4.148-4.147,4.146-10.866,0.002-15.017c-4.148-4.145-10.871-4.146-15.018,0
	c-4.146,4.146-4.146,10.874,0,15.019C37.172,40.155,43.896,40.155,48.041,36.007z M34.361,34.671
	c-3.41-3.405-3.408-8.938,0.002-12.345c3.408-3.41,8.934-3.408,12.342,0c3.412,3.408,3.412,8.938,0,12.347
	C43.297,38.081,37.77,38.081,34.361,34.671z"/>
<rect x="52.155" y="36.244" transform="matrix(-0.7073 0.7069 -0.7069 -0.7073 122.8398 33.8843)" fill="#302C3B" width="4.501" height="12.256"/>
<path fill="#BEC3CF" d="M56.846,48.921c0.521,0.521,4.633-3.584,4.107-4.111l-0.32-0.318c-0.525-0.525-4.635,3.582-4.109,4.105
	L56.846,48.921z"/>
<path fill="#FDCA47" d="M53.551,37.687l-1.877,1.877c-1.193,1.193,0.398,2.783,1.59,1.592l-0.795,0.793
	c-0.477,0.479-0.396,1.193,0,1.592c0.398,0.396,1.193,0.396,1.59,0c-1.113,1.113,0.477,2.703,1.59,1.59l0.797-0.795
	c-1.115,1.113,0.557,2.623,1.59,1.59L60,43.962c0.652-0.598,0.316-2.154-0.49-2.602c-0.336-0.188-0.201-1.586-1.35-1.922
	c-0.316-0.09-0.365-1.332-1.936-1.662C55.93,37.716,54.953,36.286,53.551,37.687z"/>
<path fill="#FDCA47" d="M48.408,42.126c-0.268,1.26,2.73,1.121,2.854,0.58c0,0,0.25-2.668,0.053-3.445
	c-0.469-1.83-2.012-1.439-2.023-0.977C49.26,39.636,48.6,41.216,48.408,42.126z"/>
<path opacity="0.2" d="M49.859,23.418c0,0,0.229,0.443,0.443,0.916C45.355,25.289,38.094,25.957,30,25.957
	c-6.879,0-13.157-0.484-17.925-1.215c0.011-0.424,0.03-0.994,0.03-0.994L49.859,23.418z"/>
<path fill="#4E5E67" d="M57,20.541c0,2.146-12.09,4.416-27,4.416c-14.912,0-27-2.27-27-4.416s12.088-3.887,27-3.887
	C44.91,16.654,57,18.395,57,20.541z"/>
<path fill="#4E5E67" d="M47.482,17.08c0,4.111-34.964,4.111-34.964,0C12.518-4.932,20.345,3.645,30,3.645
	C39.654,3.645,47.482-4.932,47.482,17.08z"/>
<path opacity="0.4" fill="#302C3B" d="M30,5.061c-4.845,0-13.237-3.377-10.403-0.627c3.72,3.607,17.219,3.477,20.805,0
	C43.238,1.684,34.846,5.061,30,5.061z"/>
<path fill="#302C3B" d="M12.518,15.324v3.889c6.832,2.561,28.132,2.561,34.964,0v-3.889C40.658,17.887,19.341,17.887,12.518,15.324z
	"/>
</svg>
