<?xml version="1.0" encoding="utf-8"?>
<!-- Generator: Adobe Illustrator 15.0.0, SVG Export Plug-In . SVG Version: 6.00 Build 0)  -->
<!DOCTYPE svg PUBLIC "-//W3C//DTD SVG 1.1//EN" "http://www.w3.org/Graphics/SVG/1.1/DTD/svg11.dtd">
<svg version="1.1" id="Layer_1" xmlns="http://www.w3.org/2000/svg" xmlns:xlink="http://www.w3.org/1999/xlink" x="0px" y="0px"
	 width="64px" height="64px" viewBox="0 0 64 64" enable-background="new 0 0 64 64" xml:space="preserve">
<ellipse fill="#CFD8DD" cx="32" cy="32" rx="30" ry="15"/>
<path fill="#99A8AE" d="M59.925,35.206C60.62,34.018,61,32.767,61,31.473c0-7.647-12.983-13.848-29-13.848s-29,6.2-29,13.848
	c0,1.294,0.38,2.545,1.076,3.733C7.49,29.373,56.511,29.373,59.925,35.206z"/>
<path fill="#6E8189" d="M7.584,38.939c5.156-3.836,43.676-3.836,48.833,0c1.533-1.141,2.725-2.396,3.508-3.733
	C56.511,29.373,45.306,25.094,32,25.094S7.49,29.373,4.076,35.206C4.858,36.543,6.05,37.799,7.584,38.939z"/>
<path fill="#302C3B" d="M7.584,38.939C12.74,42.774,21.745,45.318,32,45.318c10.256,0,19.26-2.544,24.417-6.379
	C51.26,35.104,42.256,32.559,32,32.559C21.745,32.559,12.74,35.104,7.584,38.939z"/>
</svg>
