<?xml version="1.0" encoding="utf-8"?>
<!-- Generator: Adobe Illustrator 15.0.0, SVG Export Plug-In . SVG Version: 6.00 Build 0)  -->
<!DOCTYPE svg PUBLIC "-//W3C//DTD SVG 1.1//EN" "http://www.w3.org/Graphics/SVG/1.1/DTD/svg11.dtd">
<svg version="1.1" id="Layer_1" xmlns="http://www.w3.org/2000/svg" xmlns:xlink="http://www.w3.org/1999/xlink" x="0px" y="0px"
	 width="64px" height="64px" viewBox="0 0 64 64" enable-background="new 0 0 64 64" xml:space="preserve">
<polygon fill="#4E5E67" points="24.883,33.639 25.619,35.377 19.52,38.357 16.354,50.97 16.109,62 14.297,50.78 18.031,36.637 "/>
<polygon fill="#4E5E67" points="25.127,30.376 25.127,32.398 17.644,29.965 6.583,37.434 2,48.014 5.167,35.983 17.789,28.004 "/>
<polygon fill="#4E5E67" points="26.767,26.899 25.538,28.439 17.355,23.293 11.959,13.404 10.776,5.459 13.583,12.783 
	18.825,21.976 "/>
<polygon fill="#4E5E67" points="29.371,24.36 27.545,25.64 21.739,16.777 21.865,8.539 23.624,2 23.417,8.57 23.733,15.916 "/>
<polygon fill="#4E5E67" points="39.117,33.639 38.381,35.377 44.48,38.357 47.646,50.97 47.891,62 49.703,50.78 45.969,36.637 "/>
<polygon fill="#4E5E67" points="38.873,30.376 38.873,32.398 46.356,29.965 57.417,37.434 62,48.014 58.833,35.983 46.211,28.004 
	"/>
<polygon fill="#4E5E67" points="37.233,26.899 38.462,28.439 46.645,23.293 52.041,13.404 53.224,5.459 50.417,12.783 
	45.175,21.976 "/>
<polygon fill="#4E5E67" points="34.629,24.36 36.455,25.64 42.261,16.777 42.135,8.539 40.376,2 40.583,8.57 40.267,15.916 "/>
<path fill="#6E8189" d="M38.441,28.943c-3.822,2.135-5.396-0.044-1.574-2.181C37.769,26.258,39.342,28.439,38.441,28.943z"/>
<path fill="#6E8189" d="M38.421,35.967c-4.416-0.873-3.775-3.393,0.642-2.522C40.104,33.648,39.466,36.17,38.421,35.967z"/>
<path fill="#6E8189" d="M36.864,25.553c-2.459,3.657-4.985,2.341-2.521-1.319C34.921,23.37,37.447,24.685,36.864,25.553z"/>
<path fill="#6E8189" d="M38.662,32.628c-3.694,0-3.694-2.583,0-2.585C39.536,30.043,39.536,32.626,38.662,32.628z"/>
<path fill="#6E8189" d="M25.559,28.943c3.822,2.135,5.396-0.044,1.574-2.181C26.231,26.258,24.658,28.439,25.559,28.943z"/>
<path fill="#6E8189" d="M25.579,35.967c4.416-0.873,3.776-3.393-0.642-2.522C23.896,33.648,24.533,36.17,25.579,35.967z"/>
<path fill="#6E8189" d="M27.136,25.553c2.459,3.657,4.985,2.341,2.521-1.319C29.079,23.37,26.553,24.685,27.136,25.553z"/>
<path fill="#6E8189" d="M25.338,32.628c3.693,0,3.693-2.583,0-2.585C24.463,30.043,24.463,32.626,25.338,32.628z"/>
<path fill="#302C3B" d="M42.875,44.963c0,12.297-21.752,12.297-21.752,0C21.123,28.82,42.875,28.82,42.875,44.963z"/>
<path fill="#4E5E67" d="M36.741,43.747c0,9.214-14.663,9.214-14.663,0C22.078,31.648,36.741,31.648,36.741,43.747z"/>
<path fill="#4E5E67" d="M37.332,32.472c0,3.013-2.665,1.469-5.33,1.469c-2.666,0.002-5.334,1.545-5.334-1.469
	C26.668,24.558,37.332,24.558,37.332,32.472z"/>
<path fill="#6E8189" d="M32.414,31.351c-1.143,2.61-5.158,2.545-5.158-0.238C27.256,26.159,34.436,26.729,32.414,31.351z"/>
<path fill="#302C3B" d="M33.279,23.521c-0.784-0.254-1.774-0.254-2.56,0c-0.845,0.273-1.568,1.663-1.568,2.435
	c0,0.594,1.667,3.349,2.849,3.349c1.189,0,2.848-2.755,2.848-3.349C34.848,25.185,34.125,23.795,33.279,23.521z"/>
<path fill="#302C3B" d="M33.185,24.397c1.174-2.004,1.104-2.908,0.875-3.126c-0.141-0.134-0.502-0.114-0.948,0.046
	c-0.521,0.191-0.901-0.621-0.381-0.81c1.196-0.429,1.802-0.077,2.063,0.171c0.719,0.688,0.473,2.075-0.728,4.12
	C33.977,24.95,33.057,24.612,33.185,24.397z"/>
<path fill="#302C3B" d="M30.815,24.397c-1.174-2.004-1.104-2.908-0.875-3.126c0.141-0.134,0.501-0.114,0.948,0.046
	c0.521,0.191,0.901-0.621,0.381-0.81c-1.196-0.429-1.803-0.077-2.063,0.171c-0.719,0.688-0.473,2.075,0.727,4.12
	C30.023,24.95,30.943,24.612,30.815,24.397z"/>
</svg>
