<?xml version="1.0" encoding="utf-8"?>
<!-- Generator: Adobe Illustrator 15.0.0, SVG Export Plug-In . SVG Version: 6.00 Build 0)  -->
<!DOCTYPE svg PUBLIC "-//W3C//DTD SVG 1.1//EN" "http://www.w3.org/Graphics/SVG/1.1/DTD/svg11.dtd">
<svg version="1.1" id="Layer_1" xmlns="http://www.w3.org/2000/svg" xmlns:xlink="http://www.w3.org/1999/xlink" x="0px" y="0px"
	 width="64px" height="64px" viewBox="0 0 64 64" enable-background="new 0 0 64 64" xml:space="preserve">
<path fill="#302C3B" d="M20.379,58.699c0,0-1.15,1.574,0,3.301h3.184v-1.2c0,0,0.531,1.2,5.396,1.2c1.68,0,1.855-1.559,0.088-1.648
	c-1.787-0.094-1.523-1.275-3.195-3.301L20.379,58.699z"/>
<path fill="#302C3B" d="M39.482,58.699c0,0-1.146,1.574,0,3.301h3.186v-1.2c0,0,0.531,1.2,5.395,1.2
	c1.682,0,1.859-1.559,0.088-1.648c-1.785-0.094-1.521-1.275-3.191-3.301L39.482,58.699z"/>
<path fill="#8E3ED6" d="M43.023,47.385c-0.527-2.638-4.777-4.471-7.432-9.672c0,0-4.512-1.309-11.145-1.309
	c0,0-2.92,1.398-1.328,7.701c0.969,3.827-1.061,10.284-4.244,14.99c0,0,4.688,1.704,9.553,0c0,0-1.461-3.285,1.035-9.635
	c0.805-2.051-1.061-4.088,0.824-8.619c0,0,0.912,1.926,7.709,7.689c0,0-1.344,5.927,0.25,10.564c0,0,1.018,0.43,4.682,0.43
	c3.43,0,5.135-0.43,5.135-0.43S44.777,56.19,43.023,47.385z"/>
<path fill="#5D1E96" d="M28.807,37.466c-2.348-1.1-3.77-1.19-4.643-0.868c-0.381,0.301-1.033,1.008-1.346,2.412
	c2.006,1.031,5.072,0.896,5.072,0.896C28.809,38.238,28.807,37.466,28.807,37.466z"/>
<path fill="#8E3ED6" d="M33.027,19.133c0,0,8.033-2.301,11.482-8.53c0,0,0.547,2.386,4.615,4.718c0,0-6.016,4.361-10.26,6.16
	c0,0-0.172,7.789,2.975,15.746c0,0-0.287,0.926-7.896,0.926C33.943,38.152,37.869,31.521,33.027,19.133z"/>
<path fill="#8E3ED6" d="M27.455,19.496c0,0-3.732-2.099-5.572-0.716C12,26.211,11.428,28.021,12.596,33.856
	c0,0,2.031-1.407,5.568,0.171c0,0-1.594-5.787,5.518-8.854c0,0,0.215,4.396-2.33,11.835c0,0,1.592,2.063,6.104,2.063
	C27.455,39.07,32.23,29.438,27.455,19.496z"/>
<path fill="#5D1E96" d="M45.434,9.532c0,0,4.293,2.238,4.293,5.698h-2.436c0,0-0.207-1.875-1.279-2.62
	C44.938,11.866,45.434,9.532,45.434,9.532z"/>
<path fill="#F6BEC1" d="M45.434,9.532c0,0-1.846,1.492-3.141,2.83c0,0,0.23,1.262,1.201,2.295l2.744-1.353l-2.006,2.461
	c0,0,0.83,1.188,2.309,1.72c0,0,2.031-1.031,3.186-2.255C49.727,15.23,46.238,13.305,45.434,9.532z"/>
<path fill="#916B50" d="M49.727,9.655c0,0,2.1-1.691,1.547-2.264c-0.553-0.575-1.004-0.604-1.547,0
	C49.51,7.634,49.08,8.06,48.322,8.799c-0.799-0.604-1.113,0.012-1.309,0.256c-0.289,0.361-0.656,1.654-0.656,1.654
	c0.516,1.428,1.57,2.646,2.959,3.495C50.381,13.568,52,12.526,52,12.067C52,11.063,49.727,9.655,49.727,9.655z"/>
<path fill="#664935" d="M47.014,10.319c0,0,0.99-0.186,1.463,0.208l-0.209,0.152C48.268,10.68,47.904,10.393,47.014,10.319z"/>
<path fill="#5D1E96" d="M12.414,34.959c0,0,1.809,1.192,6.357,0.195C18.771,35.154,16.4,33.312,12.414,34.959z"/>
<path fill="#916B50" d="M13.607,33.886c0,0-1.205,2.288,0.775,4.894c0.506,0.667,2.037,1.225,3.648,0.576
	c1.588-0.637,0.215-1.203-0.389-2.432c0.377-0.395,0.746-0.754,0.549-1.174c-0.301-0.634-1.336-1.059-1.336-1.059
	S17.389,33.602,13.607,33.886z"/>
<path fill="#664935" d="M18.191,35.75c-0.025-0.057-0.064-0.107-0.1-0.16c0.141,0.342-0.307,0.899-0.57,0.655
	c-0.408-0.374-0.951-0.862-0.951-0.862c0.695,0.693,1.072,1.541,1.072,1.541C18.02,36.529,18.389,36.17,18.191,35.75z"/>
<path fill="#F6BEC1" d="M12,31.408c0,0,0.508,2.1,0.414,3.551c0,0,2.574-0.95,6.357,0.195c0,0-0.668-2.143,0.104-3.746
	c0,0-0.412-0.912-2.305-1.182l-0.775,3.018l-0.738-2.945C15.057,30.299,13.303,29.807,12,31.408z"/>
<path fill="#664935" d="M50.395,12.875c-0.336,0.287-0.977,0.829-1.939-0.15c-0.963-0.98-0.369-1.611,0.074-2.122
	c0.18-0.21,0.459-0.453,0.459-0.955c0-0.46-0.945-0.879-0.508-0.515c0,0,0.645,0.266-0.277,1.47
	c-0.373,0.488-0.814,1.074-0.324,1.778c0.531,0.765,1.203,1.54,2.307,0.916C51.293,12.676,50.973,12.378,50.395,12.875z"/>
<polygon fill="#664935" points="33.027,18.78 28.178,18.78 32.092,24.771 "/>
<path fill="#F6BEC1" d="M36.385,19.781c-0.6-0.605-1.938-0.287-1.938-0.287l1.592-2.009c-1.248,0.861-3.256,1.035-3.256,1.035
	c-1.129,2.145-0.711,6.135-0.711,6.135s-0.854-4.165-3.859-6.135c0,0-1.523-0.229-3.67,0.229l2.932,1.415l-2.203,0.878
	c0,0,1.42,0.226,3.264,1.164c0.002,0.004,1.814,6.723-0.418,15.228l6.07,0.291c0,0,3.213-5.911-0.244-15.91
	C35.158,20.477,36.385,19.781,36.385,19.781z"/>
<path fill="#5D1E96" d="M33.943,38.152c0,0,6.34-2.213,7.896-0.926C41.84,37.227,41.756,38.152,33.943,38.152z"/>
<path fill="#8E3ED6" d="M32.092,25.173c0,0,1.453,4.972-0.9,11.124C31.191,36.297,34.467,30.77,32.092,25.173z"/>
<path fill="#614036" d="M35.51,4.044c-4.77-3.996-10.574-0.677-11.625-1.32c0,0-0.002,0.008-0.002,0.011
	c-0.01,0.034-0.129,0.455,0.045,0.998c-0.395,0.073-0.766-0.293-0.766-0.293s-0.004,0.007-0.008,0.018
	c-1.516,2.338,0.236,9.175,0.236,9.175l0,0l0,0C23.391,12.632,38.912,6.893,35.51,4.044z"/>
<path fill="#614036" d="M30.332,2c-7.385,0-7.387,4.447-7.387,10.009h14.773C37.719,6.447,37.717,2,30.332,2z"/>
<path fill="#75543D" d="M24.412,14.171c0.799-0.745,0.072-3.67-0.959-3.846C21.248,9.948,22.686,15.779,24.412,14.171z"/>
<path fill="#75543D" d="M36.252,14.171c-0.801-0.745-0.074-3.67,0.957-3.846C39.414,9.948,37.979,15.778,36.252,14.171z"/>
<path fill="#916B50" d="M30.332,4.966c-7.717,0-4.607,0.895-6.668,5.431c0,0,0.016,2.08,0.447,4.312
	c0.557,2.877,3.791,5.086,6.221,5.086s5.664-2.209,6.221-5.086c0.432-2.231,0.445-4.312,0.445-4.312
	C34.938,5.86,38.047,4.966,30.332,4.966z"/>
<path fill="#F5F5F5" d="M35.813,11.052c-0.713,1.86-3.615,1.587-4.148,0.286C32.068,9.247,35.42,9.068,35.813,11.052z"/>
<path fill="#45332C" d="M32.406,10.854c0,1.641,2.369,1.641,2.369,0C34.775,9.33,32.406,9.33,32.406,10.854z"/>
<path fill="#45332C" d="M35.813,11.038c0-1.997-4.148-1.997-4.148,0.315C32.258,9.456,35.221,9.456,35.813,11.038z"/>
<path fill="#F5F5F5" d="M24.85,11.052c0.715,1.86,3.617,1.587,4.148,0.286C28.594,9.247,25.242,9.068,24.85,11.052z"/>
<path fill="#45332C" d="M28.258,10.854c0,1.641-2.371,1.641-2.371,0C25.887,9.33,28.258,9.33,28.258,10.854z"/>
<path fill="#45332C" d="M24.85,11.038c0-1.997,4.148-1.997,4.148,0.314C28.406,9.456,25.443,9.456,24.85,11.038z"/>
<path fill="#734A2E" d="M30.332,15.742c-1.195-0.317-2.963,0.15-2.963,0.15c0.674,0.661,1.168,1.519,2.963,1.519
	c2.057,0,2.406-0.974,2.963-1.519C33.295,15.893,31.523,15.425,30.332,15.742z"/>
<path fill="#FFFFFF" d="M27.785,15.916c1.27,1.18,3.832,1.188,5.107,0C31.541,15.98,29.146,15.981,27.785,15.916z"/>
<path fill="#664935" d="M35.654,9.215c-1.273-0.525-3.016-0.628-3.91-0.277c-0.189,0.073-0.184,0.526-0.016,0.479
	c1.281-0.349,2.76-0.376,3.975,0.047C35.865,9.521,35.846,9.293,35.654,9.215z"/>
<path fill="#664935" d="M25.008,9.215c1.273-0.525,3.016-0.628,3.91-0.277c0.189,0.073,0.184,0.526,0.016,0.479
	c-1.281-0.349-2.758-0.376-3.973,0.047C24.797,9.521,24.816,9.293,25.008,9.215z"/>
<path fill="#614036" d="M36.23,4.284c2.752,3.777-10.021,2.792-12.678,2.241C23.553,6.525,27.455,1.198,36.23,4.284z"/>
<path fill="#4A2E24" d="M23.553,6.525c3.816,0.804,15.482,0.691,11.811-3.291C41.35,8.015,26.783,8.44,23.553,6.525z"/>
<path fill="#664935" d="M31.813,13.897c0,0.964-2.963,0.964-2.963,0C28.85,13.676,31.813,13.676,31.813,13.897z"/>
</svg>
