<?xml version="1.0" encoding="utf-8"?>
<!-- Generator: Adobe Illustrator 15.0.0, SVG Export Plug-In . SVG Version: 6.00 Build 0)  -->
<!DOCTYPE svg PUBLIC "-//W3C//DTD SVG 1.1//EN" "http://www.w3.org/Graphics/SVG/1.1/DTD/svg11.dtd">
<svg version="1.1" id="Layer_1" xmlns="http://www.w3.org/2000/svg" xmlns:xlink="http://www.w3.org/1999/xlink" x="0px" y="0px"
	 width="64px" height="64px" viewBox="0 0 64 64" enable-background="new 0 0 64 64" xml:space="preserve">
<path fill="#614036" d="M41.13,9.439c-5.009-6.621-29.85-3.968-29.85,15.56c0.104,10.49,1.765,34.319,19.959,34.319
	c18.191,0,19.854-23.729,20.063-34.319C51.303,18.494,47.665,10.805,41.13,9.439z"/>
<path fill="#4A2E24" d="M11.567,31.408c0.896,11.574,4.623,27.91,19.688,27.91c15.115,0,18.818-16.372,19.759-27.987
	c-0.495-5.348-3.55-12.255-10.176-20.398C27.257,20.045,12.587,18.626,11.567,31.408z"/>
<path fill="#302C3B" d="M49.92,52.129c-2.301-1.455-11.848-5.303-11.848-5.303H23.851c0,0-9.538,3.84-11.828,5.299
	C8.698,54.244,8,62,8,62h46C54,62,53.256,54.238,49.92,52.129z"/>
<rect x="23.468" y="42.697" fill="#664935" width="15.071" height="9.594"/>
<polygon fill="#C28FEF" points="31.01,50.141 22.985,45.922 25.333,62 36.689,62 39.037,45.922 "/>
<polygon fill="#8E3ED6" points="31.01,50.141 23.907,53.713 25.333,62 36.689,62 38.115,53.713 "/>
<path fill="#4E5E67" d="M20.83,62c0,0-3.03-3.447-5.802-10.121l7.007-2.23l-7.851-5.896c0,0,4.901-4.422,9.723-5.752v11.648
	c0,0,0.763,5.203,4.583,12.352H20.83z"/>
<path fill="#4E5E67" d="M41.193,62c0,0,3.029-3.447,5.801-10.121l-7.008-2.23l7.852-5.896c0,0-4.9-4.422-9.723-5.752v11.648
	c0,0-0.764,5.203-4.584,12.352H41.193z"/>
<path fill="#C28FEF" d="M31.998,54.584c0,1.385-2,1.385-2,0C29.999,53.301,31.998,53.301,31.998,54.584z"/>
<path fill="#C28FEF" d="M31.998,59.115c0,1.385-2,1.385-2,0C29.999,57.832,31.998,57.832,31.998,59.115z"/>
<path fill="#916B50" d="M45.821,23.743c-2.217-5.227-6.28-10.896-6.28-10.896c-14.872,8.937-27.443,4.452-23.952,21.388
	c1.656,8.035,11.597,14.26,15.515,14.26c3.911,0,14.104-6.177,15.509-14.26C47.427,29.551,46.854,26.177,45.821,23.743z"/>
<path fill="#734A2E" d="M38.45,39.061c-1.382,1.564-2.247,4.332-7.35,4.332c-4.452,0-5.678-2.438-7.349-4.332H38.45z"/>
<path fill="#FFFFFF" d="M37.531,39.109c-3.023,3.097-9.798,3.14-12.862,0H37.531z"/>
<path fill="#734A2E" d="M31.102,38.811c-2.88-1.262-2.902-0.05-7.35,0.25c5.617,0.63,9.083,0.63,14.699,0
	C34.004,38.761,33.98,37.549,31.102,38.811z"/>
<path fill="#664935" d="M34.775,34.611c0,2.359-7.251,2.359-7.251,0C27.524,34.068,34.775,34.068,34.775,34.611z"/>
<path fill="#F5F5F5" d="M46.002,28.115c-2.016,5.25-10.215,4.479-11.717,0.811C35.426,23.023,44.893,22.518,46.002,28.115z"/>
<path fill="#45332C" d="M36.379,27.555c0,4.629,6.693,4.629,6.693,0C43.072,23.26,36.379,23.26,36.379,27.555z"/>
<path fill="#45332C" d="M46.002,28.076c0-5.633-11.717-5.633-11.717,0.893C35.961,23.613,44.328,23.613,46.002,28.076z"/>
<path fill="#F5F5F5" d="M17.479,27.59c1.762,4.582,8.919,3.91,10.23,0.705C26.715,23.141,18.449,22.699,17.479,27.59z"/>
<path fill="#45332C" d="M25.885,27.1c0,4.043-5.847,4.043-5.847,0C20.038,23.348,25.885,23.348,25.885,27.1z"/>
<path fill="#45332C" d="M17.479,27.555c0-4.92,10.23-4.92,10.23,0.779C26.25,23.658,18.941,23.658,17.479,27.555z"/>
<path fill="#F5F5F5" d="M36.791,26.432c0,1.156,1.674,1.156,1.674,0C38.465,25.355,36.791,25.355,36.791,26.432z"/>
<path fill="#F5F5F5" d="M22.043,25.912c0,1.012-1.463,1.012-1.463,0C20.58,24.973,22.043,24.973,22.043,25.912z"/>
<circle opacity="0.5" fill="#F5F5F5" cx="41.535" cy="28.499" r="9.553"/>
<path opacity="0.5" fill="#F5F5F5" d="M42.598,21.519L32.459,31.584c-0.076,2.07,1.459,3.209,2.588,4.863l13.264-13.264
	C47.445,22.592,43.521,21.487,42.598,21.519z"/>
<path opacity="0.5" fill="#F5F5F5" d="M50.367,25.794L38.723,37.438c0.979,0.255,1.96,0.347,2.92,0.295l9.023-9.024
	C50.721,27.712,50.612,26.731,50.367,25.794z"/>
<path fill="#1A1626" d="M53.328,62h-6.09c0,0,1.533-6.41,2.152-12.885C53.373,54.887,53.328,62,53.328,62z"/>
<polygon fill="#302C3B" points="60.143,62 49.391,62 49.391,43.156 60.143,43.531 "/>
<path fill="#916B50" d="M55.316,48.564c-2.721,0.594-6.605-3.291-6.012-6.012C51.936,30.518,67.352,45.938,55.316,48.564z"/>
<rect x="48.338" y="35.186" transform="matrix(-0.7077 0.7065 -0.7065 -0.7077 111.5613 27.8257)" fill="#BEC3CF" width="3.373" height="3.61"/>
<path fill="#BEC3CF" d="M49.041,36.006c4.148-4.146,4.146-10.865,0.002-15.016c-4.148-4.145-10.871-4.146-15.018,0
	c-4.146,4.146-4.146,10.873,0,15.018C38.172,40.154,44.896,40.154,49.041,36.006z M35.361,34.67
	c-3.41-3.404-3.408-8.938,0.002-12.344c3.408-3.41,8.934-3.408,12.342,0c3.412,3.408,3.412,8.938,0,12.346
	C44.297,38.08,38.77,38.08,35.361,34.67z"/>
<rect x="53.155" y="36.243" transform="matrix(-0.7073 0.7069 -0.7069 -0.7073 124.5464 33.1758)" fill="#302C3B" width="4.501" height="12.256"/>
<path fill="#BEC3CF" d="M57.846,48.92c0.521,0.521,4.633-3.584,4.107-4.111l-0.32-0.318c-0.525-0.525-4.635,3.582-4.109,4.105
	L57.846,48.92z"/>
<path fill="#916B50" d="M54.551,37.686l-1.877,1.877c-1.193,1.193,0.398,2.783,1.59,1.592l-0.795,0.793
	c-0.477,0.479-0.396,1.193,0,1.592c0.398,0.396,1.193,0.396,1.59,0c-1.113,1.113,0.477,2.703,1.59,1.59l0.797-0.795
	c-1.115,1.113,0.557,2.623,1.59,1.59L61,43.961c0.652-0.598,0.316-2.154-0.49-2.602c-0.336-0.188-0.201-1.586-1.35-1.922
	c-0.316-0.09-0.365-1.332-1.936-1.662C56.93,37.715,55.953,36.285,54.551,37.686z"/>
<path fill="#916B50" d="M49.408,42.125c-0.268,1.26,2.73,1.121,2.854,0.58c0,0,0.25-2.668,0.053-3.445
	c-0.469-1.83-2.012-1.439-2.023-0.977C50.26,39.635,49.6,41.215,49.408,42.125z"/>
<path opacity="0.2" d="M51.248,23.595l0.055,0.738C46.355,25.288,39.094,25.957,31,25.957c-6.878,0-14.95-0.539-19.718-1.27
	c0-0.672,0.036-1.007,0.036-1.007L51.248,23.595z"/>
<path fill="#4E5E67" d="M60,20.541c0,2.146-12.984,4.416-29,4.416c-16.017,0-29-2.27-29-4.416s12.983-3.887,29-3.887
	C47.016,16.654,60,18.395,60,20.541z"/>
<path fill="#4E5E67" d="M50,17.08c0,4.111-38,4.111-38,0C12-4.932,20.507,3.645,31,3.645C41.492,3.645,50-4.932,50,17.08z"/>
<path opacity="0.4" fill="#302C3B" d="M31,5.061c-5.267,0-14.387-3.377-11.307-0.627c4.043,3.607,18.715,3.477,22.613,0
	C45.387,1.684,36.266,5.061,31,5.061z"/>
<path fill="#302C3B" d="M12,15.324v3.889c7.425,2.561,30.574,2.561,38,0v-3.889C42.584,17.887,19.415,17.887,12,15.324z"/>
</svg>
