<?xml version="1.0" encoding="utf-8"?>
<!-- Generator: Adobe Illustrator 15.0.0, SVG Export Plug-In . SVG Version: 6.00 Build 0)  -->
<!DOCTYPE svg PUBLIC "-//W3C//DTD SVG 1.1//EN" "http://www.w3.org/Graphics/SVG/1.1/DTD/svg11.dtd">
<svg version="1.1" id="Layer_1" xmlns="http://www.w3.org/2000/svg" xmlns:xlink="http://www.w3.org/1999/xlink" x="0px" y="0px"
	 width="64px" height="64px" viewBox="0 0 64 64" enable-background="new 0 0 64 64" xml:space="preserve">
<g>
	<g>
		<path fill="#99A8AE" d="M31.081,2v5.261c-4.748,6.813-12.704,11.146-21.336,11.618l-4.826-2.63L4,17.753l4.829,2.629
			c3.881,7.288,3.881,15.95-0.001,23.238L4,46.249l0.919,1.504l4.828-2.63c8.631,0.473,16.586,4.805,21.334,11.62V62h1.839v-5.259
			c4.747-6.815,12.702-11.147,21.333-11.618l4.828,2.63L60,46.249l-4.829-2.631c-3.88-7.286-3.881-15.948,0-23.234L60,17.753
			l-0.919-1.504l-4.826,2.63c-8.632-0.473-16.588-4.805-21.335-11.618V2H31.081z M31.081,10.203v5.158
			c-3.089,4.447-8.271,7.272-13.896,7.569l-4.737-2.58C19.781,19.318,26.469,15.678,31.081,10.203z M30.161,32l-3.946,2.149
			c0.162-0.695,0.252-1.404,0.252-2.114c0-0.734-0.093-1.469-0.266-2.19L30.161,32z M27.135,28.349
			c1.467-0.439,2.815-1.177,3.946-2.164v4.314L27.135,28.349z M31.081,33.503v4.298c-1.138-0.978-2.489-1.712-3.96-2.141
			L31.081,33.503z M32.92,33.503l3.943,2.148c-1.465,0.441-2.813,1.179-3.943,2.164V33.503z M33.839,32l3.945-2.147
			c-0.328,1.417-0.327,2.889,0.015,4.305L33.839,32z M32.92,30.499v-4.298c1.137,0.978,2.488,1.712,3.96,2.141L32.92,30.499z
			 M31.081,23.539c-1.449,2.001-3.788,3.288-6.347,3.504l-4.914-2.677c4.373-0.78,8.355-2.951,11.261-6.132V23.539z M23.771,28.521
			c1.113,2.185,1.127,4.739,0.045,6.937l-4.915,2.677c0.734-1.982,1.11-4.058,1.11-6.134c0-2.074-0.376-4.149-1.11-6.132
			L23.771,28.521z M24.692,36.982c2.563,0.185,4.913,1.452,6.389,3.435v5.351c-2.903-3.181-6.886-5.351-11.259-6.132L24.692,36.982z
			 M32.92,40.461c1.448-2.001,3.787-3.288,6.344-3.503l4.914,2.678c-4.371,0.781-8.354,2.949-11.258,6.13V40.461z M40.228,35.48
			c-1.112-2.185-1.125-4.736-0.044-6.936l4.913-2.675c-1.47,3.962-1.47,8.3,0.001,12.262L40.228,35.48z M39.31,27.018
			c-2.563-0.183-4.913-1.448-6.39-3.432v-5.352c2.903,3.181,6.887,5.352,11.26,6.132L39.31,27.018z M13.581,32
			c0-3.448-0.692-6.894-2.054-10.146l4.741,2.58c2.535,4.744,2.535,10.391-0.002,15.135l-4.739,2.58
			C12.889,38.896,13.581,35.45,13.581,32z M12.449,43.651l4.737-2.58c5.625,0.298,10.812,3.122,13.895,7.567v5.16
			C26.469,48.324,19.783,44.682,12.449,43.651z M32.92,53.797v-5.158c3.086-4.445,8.271-7.27,13.894-7.567l4.737,2.58
			C44.218,44.682,37.531,48.322,32.92,53.797z M52.472,42.149l-4.738-2.582c-2.536-4.742-2.536-10.389-0.001-15.133l4.738-2.58
			C49.749,28.36,49.749,35.642,52.472,42.149z M51.551,20.351l-4.736,2.58c-5.624-0.299-10.81-3.122-13.895-7.567v-5.16
			C37.531,15.678,44.218,19.32,51.551,20.351z"/>
	</g>
</g>
</svg>
