<?xml version="1.0" encoding="utf-8"?>
<!-- Generator: Adobe Illustrator 15.0.0, SVG Export Plug-In . SVG Version: 6.00 Build 0)  -->
<!DOCTYPE svg PUBLIC "-//W3C//DTD SVG 1.1//EN" "http://www.w3.org/Graphics/SVG/1.1/DTD/svg11.dtd">
<svg version="1.1" id="Layer_1" xmlns="http://www.w3.org/2000/svg" xmlns:xlink="http://www.w3.org/1999/xlink" x="0px" y="0px"
	 width="64px" height="64px" viewBox="0 0 64 64" enable-background="new 0 0 64 64" xml:space="preserve">
<path fill="#785647" d="M60,60H4v-6c0-1.1,0.9-2,2-2h52c1.1,0,2,0.9,2,2V60z"/>
<path fill="#8A6859" d="M57,59H7v-3c0-1.1,0.9-2,2-2h46c1.1,0,2,0.9,2,2V59z"/>
<path fill="#785647" d="M62,62H2v-2c0-1.1,0.9-2,2-2h56c1.1,0,2,0.9,2,2V62z"/>
<path fill="#8A6859" d="M59,62H5v-1c0-1.1,0.9-2,2-2h50c1.1,0,2,0.9,2,2V62z"/>
<rect x="6" y="50" fill="#45332C" width="52" height="2"/>
<path fill="#785647" d="M60,44c-5.607-0.553-10-5.74-10-12c0-9.941-8.057-18-18-18c-9.941,0-18,8.059-18,18
	c0,6.26-4.393,11.447-10,12c-1.1,0-2,0.9-2,2v2c0,1.1,0.9,2,2,2h56c1.1,0,2-0.9,2-2v-2C62,44.9,61.1,44,60,44z"/>
<path fill="#AB8A7B" d="M33,15.197c1.305,0,2.572,0.141,3.801,0.408c-1.729-0.65-3.595-1.006-5.539-1.006
	c-8.18,0-14.94,6.262-16.061,14.401C17.451,21.025,24.565,15.197,33,15.197z"/>
<circle fill="#45332C" cx="32" cy="32" r="16"/>
<circle fill="#E6EBEF" cx="32" cy="32" r="15"/>
<path fill="#302C3B" d="M24.815,42.717c0.243-0.422,0.774-0.568,1.188-0.328c0.414,0.24,0.554,0.77,0.311,1.193
	c-0.244,0.418-0.775,0.564-1.189,0.326C24.713,43.672,24.571,43.137,24.815,42.717z"/>
<path fill="#302C3B" d="M37.688,20.419c0.242-0.419,0.773-0.564,1.186-0.325c0.416,0.237,0.555,0.771,0.311,1.191
	c-0.242,0.42-0.771,0.566-1.188,0.327C37.584,21.374,37.445,20.841,37.688,20.419z"/>
<path fill="#302C3B" d="M20.419,37.688c0.421-0.242,0.955-0.104,1.193,0.309c0.238,0.418,0.092,0.947-0.328,1.188
	c-0.419,0.244-0.952,0.105-1.191-0.311C19.854,38.463,19.998,37.93,20.419,37.688z"/>
<path fill="#302C3B" d="M42.713,24.816c0.424-0.243,0.957-0.104,1.193,0.308c0.24,0.414,0.094,0.946-0.324,1.189
	c-0.424,0.243-0.953,0.103-1.195-0.311C42.148,25.59,42.295,25.059,42.713,24.816z"/>
<ellipse fill="#302C3B" cx="19.127" cy="32" rx="0.878" ry="0.864"/>
<path fill="#302C3B" d="M44.873,31.136c0.482,0,0.879,0.388,0.879,0.864c0,0.478-0.396,0.866-0.879,0.864
	c-0.486,0-0.879-0.387-0.879-0.864C43.994,31.523,44.387,31.136,44.873,31.136z"/>
<ellipse transform="matrix(0.5004 -0.8658 0.8658 0.5004 -11.7165 30.8258)" fill="#302C3B" cx="20.852" cy="25.565" rx="0.865" ry="0.878"/>
<path fill="#302C3B" d="M43.582,37.688c0.418,0.242,0.563,0.775,0.324,1.186c-0.236,0.416-0.77,0.555-1.193,0.311
	c-0.418-0.242-0.564-0.77-0.326-1.188C42.623,37.584,43.158,37.445,43.582,37.688z"/>
<ellipse transform="matrix(0.8657 -0.5006 0.5006 0.8657 -7.0045 15.5973)" fill="#302C3B" cx="25.564" cy="20.852" rx="0.865" ry="0.878"/>
<path fill="#302C3B" d="M39.184,42.717c0.244,0.42,0.105,0.955-0.311,1.191c-0.412,0.238-0.943,0.092-1.186-0.326
	c-0.242-0.424-0.104-0.953,0.309-1.193C38.41,42.148,38.941,42.295,39.184,42.717z"/>
<ellipse fill="#302C3B" cx="32" cy="19.127" rx="0.865" ry="0.879"/>
<path fill="#302C3B" d="M32.865,44.873c0,0.482-0.389,0.879-0.865,0.879c-0.478,0-0.865-0.396-0.865-0.879
	c0-0.484,0.388-0.879,0.865-0.879C32.477,43.994,32.865,44.389,32.865,44.873z"/>
<path opacity="0.7" fill-rule="evenodd" clip-rule="evenodd" fill="#FFFFFF" d="M45.666,34.019
	c-0.508,5.06-7.203-4.849-13.99-13.358C27.307,15.184,47.193,18.79,45.666,34.019z"/>
<circle fill="#302C3B" cx="32" cy="32" r="1.5"/>
<path fill="#594640" d="M38.08,33.499c0.553,0,2.17-1.499,2.17-1.499s-1.617-1.5-2.17-1.5c-0.449,0-0.824,0.446-0.953,1.061H31.25
	v0.882h5.877C37.256,33.055,37.631,33.499,38.08,33.499z"/>
<polygon fill="#594640" points="32,21.271 31.25,31.771 32.75,31.771 "/>
<path fill="#8A6859" d="M14.299,38.865c-2.049,3.898-5.762,6.697-10.103,7.125L4.098,46H4v2h17.781
	C18.407,45.84,15.769,42.648,14.299,38.865z"/>
<path fill="#8A6859" d="M59.902,46l-0.099-0.01c-4.341-0.428-8.054-3.227-10.103-7.126c-1.47,3.784-4.108,6.976-7.482,9.136H60v-2
	H59.902z"/>
</svg>
