<?xml version="1.0" encoding="utf-8"?>
<!-- Generator: Adobe Illustrator 15.0.0, SVG Export Plug-In . SVG Version: 6.00 Build 0)  -->
<!DOCTYPE svg PUBLIC "-//W3C//DTD SVG 1.1//EN" "http://www.w3.org/Graphics/SVG/1.1/DTD/svg11.dtd">
<svg version="1.1" id="Layer_1" xmlns="http://www.w3.org/2000/svg" xmlns:xlink="http://www.w3.org/1999/xlink" x="0px" y="0px"
	 width="64px" height="64px" viewBox="0 0 64 64" enable-background="new 0 0 64 64" xml:space="preserve">
<path fill="#302C3B" d="M50.553,52.658c-2.498-1.375-12.877-5.018-12.877-5.018H22.218c0,0-10.368,3.633-12.857,5.016
	C5.747,54.66,4.988,62,4.988,62h50C54.988,62,54.18,54.654,50.553,52.658z"/>
<rect x="21.801" y="43.734" fill="#946346" width="16.383" height="9.078"/>
<polygon fill="#FFFFFF" points="30,50.777 21.276,46.785 23.829,62 36.172,62 38.725,46.785 "/>
<polygon fill="#E6EBEF" points="30,50.777 22.279,54.158 23.829,62 36.172,62 37.723,54.158 "/>
<polygon fill="#018BC9" points="34.359,62 32.045,54.479 33.125,52.145 30,50.777 26.875,52.145 27.958,54.479 25.641,62 "/>
<path fill="#4E5E67" d="M18.934,62c0,0-3.293-3.262-6.306-9.578l7.616-2.109l-8.533-5.58c0,0,5.327-4.186,10.568-5.443v11.023
	c0,0,0.83,4.924,4.983,11.688H18.934z"/>
<path fill="#4E5E67" d="M41.068,62c0,0,3.291-3.262,6.307-9.578l-7.617-2.109l8.533-5.58c0,0-5.328-4.186-10.568-5.443v11.023
	c0,0-0.83,4.924-4.982,11.688H41.068z"/>
<path fill="#875B49" d="M29.989,5.873c-17.955,0-17.955,10.639-17.955,23.939h35.907C47.941,16.512,47.941,5.873,29.989,5.873z"/>
<path fill="#B07E61" d="M15.927,35.092c1.9-1.769,0.175-8.709-2.275-9.127C8.416,25.072,11.827,38.908,15.927,35.092z"/>
<path fill="#B07E61" d="M44.049,35.092c-1.9-1.769-0.176-8.709,2.274-9.127C51.559,25.072,48.148,38.906,44.049,35.092z"/>
<path fill="#B88A6F" d="M45.821,26.603c0-14.547-6.218-9.8-15.833-9.8c-9.614,0-15.833-4.748-15.833,9.8
	c0,0,0.034,4.112,1.059,9.515c1.356,7.148,8.967,12.316,14.773,12.316c5.808,0,13.419-5.168,14.774-12.316
	C45.787,30.713,45.821,26.603,45.821,26.603z"/>
<path fill="#80553C" d="M29.987,38.82c-2.835-0.752-7.037,0.355-7.037,0.355c1.601,1.568,2.774,3.604,7.037,3.604
	c4.887,0,5.714-2.311,7.037-3.604C37.024,39.176,32.818,38.064,29.987,38.82z"/>
<path fill="#FFFFFF" d="M23.941,39.233c3.012,2.799,9.1,2.817,12.131,0C32.858,39.385,27.176,39.387,23.941,39.233z"/>
<path fill="#946346" d="M33.506,34.441c0,2.291-7.037,2.291-7.037,0C26.469,33.917,33.506,33.917,33.506,34.441z"/>
<path fill="#F5F5F5" d="M44.244,27.977c-2.039,5.313-10.338,4.533-11.859,0.818C33.537,22.822,43.121,22.309,44.244,27.977z"/>
<path fill="#45332C" d="M34.502,27.408c0,4.688,6.777,4.688,6.777,0C41.279,23.059,34.502,23.059,34.502,27.408z"/>
<path fill="#45332C" d="M44.244,27.939c0-5.707-11.859-5.707-11.859,0.9C34.08,23.418,42.549,23.418,44.244,27.939z"/>
<path fill="#F5F5F5" d="M16.867,27.523c1.708,4.447,8.659,3.797,9.93,0.686C25.831,23.207,17.808,22.777,16.867,27.523z"/>
<path fill="#45332C" d="M25.024,27.049c0,3.924-5.674,3.924-5.674,0C19.35,23.408,25.024,23.408,25.024,27.049z"/>
<path fill="#45332C" d="M16.867,27.492c0-4.779,9.93-4.779,9.93,0.754C25.379,23.707,18.285,23.707,16.867,27.492z"/>
<path fill="#F5F5F5" d="M34.904,26.264c0,1.178,1.703,1.178,1.703,0C36.607,25.172,34.904,25.172,34.904,26.264z"/>
<path fill="#F5F5F5" d="M21.291,25.891c0,0.984-1.425,0.984-1.425,0C19.866,24.977,21.291,24.977,21.291,25.891z"/>
<circle opacity="0.5" fill="#F5F5F5" cx="40.535" cy="28.499" r="9.553"/>
<path opacity="0.5" fill="#F5F5F5" d="M41.598,21.519L31.459,31.584c-0.076,2.07,1.459,3.209,2.588,4.863l13.264-13.264
	C46.445,22.592,42.521,21.487,41.598,21.519z"/>
<path opacity="0.5" fill="#F5F5F5" d="M49.367,25.794L37.723,37.438c0.979,0.255,1.96,0.347,2.92,0.295l9.023-9.024
	C49.721,27.712,49.612,26.731,49.367,25.794z"/>
<path fill="#1A1626" d="M52.328,62h-6.09c0,0,1.533-6.41,2.152-12.885C52.373,54.887,52.328,62,52.328,62z"/>
<polygon fill="#302C3B" points="59.143,62 48.391,62 48.391,43.156 59.143,43.531 "/>
<path fill="#B88A6F" d="M54.316,48.564c-2.721,0.594-6.605-3.291-6.012-6.012C50.936,30.518,66.352,45.938,54.316,48.564z"/>
<rect x="47.338" y="35.186" transform="matrix(-0.7077 0.7065 -0.7065 -0.7077 109.8536 28.5323)" fill="#BEC3CF" width="3.373" height="3.61"/>
<path fill="#BEC3CF" d="M48.041,36.006c4.148-4.146,4.146-10.865,0.002-15.016c-4.148-4.145-10.871-4.146-15.018,0
	c-4.146,4.146-4.146,10.873,0,15.018C37.172,40.154,43.896,40.154,48.041,36.006z M34.361,34.67
	c-3.41-3.404-3.408-8.938,0.002-12.344c3.408-3.41,8.934-3.408,12.342,0c3.412,3.408,3.412,8.938,0,12.346
	C43.297,38.08,37.77,38.08,34.361,34.67z"/>
<rect x="52.155" y="36.243" transform="matrix(-0.7073 0.7069 -0.7069 -0.7073 122.8391 33.8826)" fill="#302C3B" width="4.501" height="12.256"/>
<path fill="#BEC3CF" d="M56.846,48.92c0.521,0.521,4.633-3.584,4.107-4.111l-0.32-0.318c-0.525-0.525-4.635,3.582-4.109,4.105
	L56.846,48.92z"/>
<path fill="#B88A6F" d="M53.551,37.686l-1.877,1.877c-1.193,1.193,0.398,2.783,1.59,1.592l-0.795,0.793
	c-0.477,0.479-0.396,1.193,0,1.592c0.398,0.396,1.193,0.396,1.59,0c-1.113,1.113,0.477,2.703,1.59,1.59l0.797-0.795
	c-1.115,1.113,0.557,2.623,1.59,1.59L60,43.961c0.652-0.598,0.316-2.154-0.49-2.602c-0.336-0.188-0.201-1.586-1.35-1.922
	c-0.316-0.09-0.365-1.332-1.936-1.662C55.93,37.715,54.953,36.285,53.551,37.686z"/>
<path fill="#B88A6F" d="M48.408,42.125c-0.268,1.26,2.73,1.121,2.854,0.58c0,0,0.25-2.668,0.053-3.445
	c-0.469-1.83-2.012-1.439-2.023-0.977C49.26,39.635,48.6,41.215,48.408,42.125z"/>
<path opacity="0.2" d="M49.859,23.418c0,0,0.229,0.443,0.443,0.916C45.355,25.289,38.094,25.957,30,25.957
	c-6.879,0-13.157-0.484-17.925-1.215c0.011-0.424,0.03-0.994,0.03-0.994L49.859,23.418z"/>
<path fill="#4E5E67" d="M57,20.541c0,2.146-12.09,4.416-27,4.416c-14.912,0-27-2.27-27-4.416s12.088-3.887,27-3.887
	C44.91,16.654,57,18.395,57,20.541z"/>
<path fill="#4E5E67" d="M47.482,17.08c0,4.111-34.965,4.111-34.965,0C12.518-4.932,20.345,3.645,30,3.645
	C39.654,3.645,47.482-4.932,47.482,17.08z"/>
<path opacity="0.4" fill="#302C3B" d="M30,5.061c-4.845,0-13.237-3.377-10.403-0.627c3.72,3.607,17.22,3.477,20.806,0
	C43.238,1.684,34.846,5.061,30,5.061z"/>
<path fill="#302C3B" d="M12.518,15.324v3.889c6.832,2.561,28.133,2.561,34.965,0v-3.889C40.658,17.887,19.341,17.887,12.518,15.324z
	"/>
</svg>
