<?xml version="1.0" encoding="utf-8"?>
<!-- Generator: Adobe Illustrator 15.0.0, SVG Export Plug-In . SVG Version: 6.00 Build 0)  -->
<!DOCTYPE svg PUBLIC "-//W3C//DTD SVG 1.1//EN" "http://www.w3.org/Graphics/SVG/1.1/DTD/svg11.dtd">
<svg version="1.1" id="Layer_1" xmlns="http://www.w3.org/2000/svg" xmlns:xlink="http://www.w3.org/1999/xlink" x="0px" y="0px"
	 width="64px" height="64px" viewBox="0 0 64 64" enable-background="new 0 0 64 64" xml:space="preserve">
<path fill="#302C3B" d="M56.933,48.137c-0.711-3.016-3.234-9.021-4.796-11.799c-2.294-4.084-37.984-4.083-40.277,0
	c-1.562,2.777-4.087,8.783-4.798,11.799c-0.381,1.615,1.109,9.305,1.109,9.305C8.589,59.949,11.016,62,13.564,62h36.841
	c2.548,0,4.975-2.051,5.393-4.559C55.798,57.441,57.337,49.85,56.933,48.137z"/>
<path fill="#6E8189" d="M56.128,46.416c-0.475,0.82-1.234,1.547-2.23,1.98c-0.495,0.217-1.052,0.342-1.616,0.373l-1.563,0.084
	c-2.081,0.094-4.163,0.182-6.244,0.236c-4.163,0.131-8.326,0.166-12.49,0.182c-4.162-0.014-8.325-0.049-12.488-0.18
	c-2.082-0.055-4.163-0.141-6.244-0.234l-1.571-0.086c-0.544-0.031-1.119-0.156-1.608-0.375c-0.997-0.434-1.757-1.16-2.23-1.98
	c0.636,0.727,1.493,1.291,2.424,1.561c0.475,0.129,0.937,0.188,1.436,0.16l1.551-0.084c2.081-0.094,4.162-0.182,6.244-0.236
	c4.163-0.129,8.326-0.164,12.488-0.178c4.164,0.016,8.327,0.051,12.49,0.18c2.081,0.055,4.163,0.143,6.244,0.238l1.56,0.082
	c0.477,0.027,0.959-0.031,1.427-0.16C54.636,47.709,55.493,47.143,56.128,46.416z"/>
<path fill="#4E5E67" d="M7.841,53.428c0.476-0.82,1.234-1.547,2.231-1.98c0.495-0.219,1.051-0.342,1.616-0.373l1.563-0.086
	c2.082-0.094,4.163-0.182,6.245-0.234c4.162-0.131,8.325-0.166,12.488-0.184c4.164,0.016,8.327,0.051,12.489,0.18
	c2.082,0.055,4.163,0.143,6.245,0.236l1.571,0.086c0.543,0.031,1.12,0.156,1.608,0.373c0.996,0.434,1.756,1.162,2.23,1.982
	c-0.636-0.727-1.494-1.293-2.425-1.561c-0.474-0.131-0.937-0.188-1.434-0.162l-1.552,0.084c-2.082,0.096-4.163,0.184-6.245,0.236
	c-4.162,0.131-8.325,0.166-12.489,0.18c-4.163-0.016-8.326-0.051-12.488-0.182c-2.082-0.055-4.163-0.143-6.245-0.236l-1.56-0.082
	c-0.477-0.027-0.958,0.031-1.427,0.16C9.333,52.135,8.476,52.701,7.841,53.428z"/>
<ellipse fill="#4E5E67" cx="36.019" cy="40.896" rx="11.888" ry="4.482"/>
<ellipse fill="#6E8189" cx="36.019" cy="37.906" rx="10.637" ry="3.541"/>
<ellipse fill="#4E5E67" cx="36.018" cy="35.469" rx="9.386" ry="3.068"/>
<path fill="#BEC3CF" d="M39.765,17.13h-7.61v16.948c0,1.855,7.61,1.855,7.61,0V17.13z"/>
<path fill="#B00505" d="M24.13,35.068H13.96v2.246c1.798,2.182,8.373,2.182,10.17,0V35.068z"/>
<path fill="#E81C27" d="M24.13,35.068c0,1.24-2.278,2.246-5.084,2.246c-2.809,0-5.086-1.006-5.086-2.246
	c0-1.244,2.277-2.249,5.086-2.249C21.852,32.82,24.13,33.824,24.13,35.068z"/>
<circle fill="#E81C27" cx="35.961" cy="12.5" r="10.5"/>
<path fill="#F46C60" d="M35.621,3.295c-2.966,0-5.621,1.358-7.367,3.487c1.645-1.354,3.752-2.166,6.049-2.166
	c5.269,0,9.541,4.271,9.541,9.539c-0.002,2.297-0.814,4.409-2.169,6.055c2.128-1.751,3.487-4.403,3.488-7.374
	C45.164,7.567,40.894,3.295,35.621,3.295z"/>
<path fill="#B00505" d="M42.435,20.756c-1.002,0.228-2.036,0.36-3.106,0.36c-6.687,0-12.267-4.734-13.578-11.036
	c-0.184,0.777-0.29,1.584-0.291,2.419c0.001,5.799,4.7,10.498,10.502,10.5C38.407,22.998,40.647,22.154,42.435,20.756z"/>
</svg>
