<?xml version="1.0" encoding="utf-8"?>
<!-- Generator: Adobe Illustrator 15.0.0, SVG Export Plug-In . SVG Version: 6.00 Build 0)  -->
<!DOCTYPE svg PUBLIC "-//W3C//DTD SVG 1.1//EN" "http://www.w3.org/Graphics/SVG/1.1/DTD/svg11.dtd">
<svg version="1.1" id="Layer_1" xmlns="http://www.w3.org/2000/svg" xmlns:xlink="http://www.w3.org/1999/xlink" x="0px" y="0px"
	 width="64px" height="64px" viewBox="0 0 64 64" enable-background="new 0 0 64 64" xml:space="preserve">
<path fill="#302C3B" d="M3.589,32.693C7.573,19.216,11.853,13,13.692,13c0.975,0,1.307,0.678,1.662,2.237
	c0.854,3.734,0.053,4.917-0.455,5.437c-0.699,0.719-1.838,0.13-1.838-3.858c-0.936,2.307-5.33,10.494-7.645,19.124L3.589,32.693z"/>
<path fill="#302C3B" d="M60.407,32.693C56.423,19.216,52.142,13,50.302,13c-0.973,0-1.305,0.678-1.66,2.237
	c-0.854,3.734-0.053,4.917,0.453,5.437c0.701,0.719,1.838,0.13,1.838-3.858c0.938,2.307,5.332,10.494,7.646,19.124L60.407,32.693z"
	/>
<path fill="#302C3B" d="M36.123,33.537c-2.357,1.188-5.893,1.188-8.248,0c-2.518-1.305-5.592-2.141-9.275-2.466
	c-3.593-0.319-11.214-0.308-15.026,1.047c-0.438,0.155-0.867,0.355-1.283,0.57c-0.234,0.12-0.282,0.209-0.282,0.651v0.572
	c0,1.073-0.133,0.656,0.627,1.104c1.48,0.875,2.321,3.148,2.771,6.278c0.641,4.563,2.855,7.421,6.453,8.786
	c3.338,1.265,7.071,1.221,10.384-0.114c1.811-0.731,3.4-1.889,4.664-3.763c2.217-3.291,1.553-5.345,2.695-8.17
	c0.996-2.467,3.795-2.467,4.793,0c1.145,2.825,0.48,4.879,2.695,8.17c1.262,1.874,2.854,3.031,4.666,3.763
	c3.311,1.335,7.044,1.379,10.382,0.114c3.596-1.365,5.812-4.224,6.453-8.786c0.449-3.13,1.291-5.403,2.771-6.278
	c0.76-0.448,0.627-0.031,0.627-1.104V33.34c0-0.442-0.049-0.532-0.282-0.651c-0.415-0.215-0.847-0.415-1.282-0.57
	c-3.813-1.355-11.434-1.368-15.026-1.047C41.715,31.396,38.639,32.232,36.123,33.537"/>
<path opacity="0.3" fill="#4E5E67" d="M37.698,35.541c-1.434,1.257-0.132,10.348,4.22,12.029c2.715,1.05,8.052,1.686,11.742-1.526
	c3.021-2.629,3.674-10.591,1.525-11.829C52.826,32.855,40.764,32.855,37.698,35.541z"/>
<path opacity="0.3" fill="#4E5E67" d="M26.489,35.544c1.434,1.257,0.132,10.349-4.219,12.029c-2.716,1.05-8.053,1.686-11.743-1.525
	c-3.021-2.63-3.673-10.591-1.525-11.83C11.361,32.858,23.423,32.858,26.489,35.544z"/>
<path fill="#4E5E67" d="M45.83,33.413l-8.172,8.055c0.291,1.097,0.715,2.191,1.258,3.163l11.428-11.268
	C48.934,33.296,47.377,33.311,45.83,33.413z"/>
<path fill="#4E5E67" d="M55.183,34.213c-0.088-0.051-0.214-0.095-0.329-0.142L41.426,47.32c0.161,0.087,0.318,0.182,0.49,0.248
	c0.743,0.287,1.688,0.542,2.736,0.695l11.698-11.551C56.188,35.511,55.809,34.572,55.183,34.213z"/>
<path fill="#4E5E67" d="M14.268,33.35L7.836,39.69c0.138,1.203,0.428,2.442,0.865,3.547l9.942-9.804
	C17.156,33.325,15.653,33.3,14.268,33.35z"/>
<path fill="#4E5E67" d="M10.839,46.293c0.835,0.663,1.739,1.152,2.676,1.486l12.632-12.474c-0.711-0.497-1.739-0.892-2.962-1.193
	L10.839,46.293z"/>
</svg>
