<?xml version="1.0" encoding="utf-8"?>
<!-- Generator: Adobe Illustrator 15.0.0, SVG Export Plug-In . SVG Version: 6.00 Build 0)  -->
<!DOCTYPE svg PUBLIC "-//W3C//DTD SVG 1.1//EN" "http://www.w3.org/Graphics/SVG/1.1/DTD/svg11.dtd">
<svg version="1.1" id="Layer_1" xmlns="http://www.w3.org/2000/svg" xmlns:xlink="http://www.w3.org/1999/xlink" x="0px" y="0px"
	 width="64px" height="64px" viewBox="0 0 64 64" enable-background="new 0 0 64 64" xml:space="preserve">
<path fill="#916B50" d="M37.719,38.021c1.434-1.398,0.316,2.672,1.648,1.373c1.238-1.209,0.188-3.268,0.188-3.268l-2.111-0.369
	C37.443,35.758,36.533,39.178,37.719,38.021z"/>
<path fill="#916B50" d="M26.279,38.021c-1.434-1.4-0.318,2.672-1.648,1.373c-1.24-1.209-0.188-3.268-0.188-3.268l2.111-0.369
	C26.555,35.758,27.463,39.176,26.279,38.021z"/>
<path fill="#302C3B" d="M39.029,22.197c-0.85-0.547-4.77-1.98-4.77-1.98h-4.494c0,0-3.924,1.438-4.775,1.982
	c-1.236,0.789-0.965,14.313-0.965,14.313l2.48,0.178c0.889,7.697,1.197,16.297,1.197,16.297h4.295l0,0h4.297
	c0,0,0.309-8.6,1.197-16.297l2.479-0.178C39.971,36.512,40.26,22.99,39.029,22.197z"/>
<path fill="#302C3B" d="M36.086,52.193h-4.088l0,0h-4.086l-0.006,2.213c-0.01,2.789,4.084,2.791,4.092,0l0,0
	c0.01,2.791,4.102,2.789,4.094,0L36.086,52.193z"/>
<polygon fill="#1A1626" points="32.516,40.135 31.998,52.986 31.482,40.135 "/>
<polygon fill="#1A1626" points="37.836,27.473 37.492,36.197 37.146,27.473 "/>
<polygon fill="#1A1626" points="26.85,27.568 26.506,36.295 26.162,27.568 "/>
<rect x="26.506" y="35.209" fill="#1A1626" width="10.986" height="1.086"/>
<rect x="27.906" y="52.986" fill="#1A1626" width="8.186" height="0.543"/>
<rect x="29.443" y="19.793" fill="#664935" width="5.111" height="2.629"/>
<path fill="#E6EBEF" d="M34.08,26.9c0.621-1.467,0.635-6.926,0.635-6.926c-0.908,1.615-2.617,2.352-2.717,2.393
	c-0.1-0.041-1.807-0.777-2.717-2.393c0,0,0.016,5.459,0.637,6.926l2.088,4.039L34.08,26.9z"/>
<polygon fill="#018BC9" points="33.4,28.52 32.656,24.359 33.004,23.646 31.998,22.465 30.994,23.646 31.342,24.359 30.598,28.52 
	31.996,30.939 "/>
<path fill="#FFFFFF" d="M31.998,22.367c-0.1-0.041-1.807-0.777-2.717-2.393c0,0,0.006,1.375,0.117,2.848
	c0.336,0.549,0.898,1.4,1.115,1.4c0.322,0,1.484-1.686,1.484-1.686s1.154,1.686,1.504,1.686c0.252,0,0.779-0.82,1.098-1.379
	c0.111-1.48,0.115-2.869,0.115-2.869C33.807,21.59,32.098,22.326,31.998,22.367"/>
<path fill="#4E5E67" d="M27.389,23.398l1.621-0.549l-1.816-1.451c0,0,1.135-1.09,2.25-1.418v2.869c0,0,1.67,6.33,2.553,8.09
	C31.996,30.939,28.031,25.043,27.389,23.398z"/>
<path fill="#4E5E67" d="M36.607,23.398l-1.619-0.549l1.814-1.451c0,0-1.133-1.09-2.248-1.418v2.869c0,0-1.674,6.33-2.559,8.09
	C31.996,30.939,35.967,25.043,36.607,23.398z"/>
<path fill="#614036" d="M31.996,3.141c-7.385,0-7.387,4.444-7.387,10h14.773C39.383,7.584,39.381,3.141,31.996,3.141z"/>
<path fill="#75543D" d="M26.076,15.3c0.801-0.744,0.074-3.667-0.957-3.842C22.914,11.082,24.35,16.908,26.076,15.3z"/>
<path fill="#75543D" d="M37.916,15.3c-0.799-0.744-0.072-3.667,0.959-3.842C41.078,11.082,39.643,16.907,37.916,15.3z"/>
<path fill="#916B50" d="M31.996,6.104c-7.715,0-4.605,0.893-6.666,5.426c0,0,0.016,2.079,0.445,4.308
	c0.557,2.874,3.791,5.081,6.221,5.081s5.664-2.207,6.221-5.081c0.432-2.229,0.447-4.308,0.447-4.308
	C36.604,6.997,39.713,6.104,31.996,6.104z"/>
<path fill="#734A2E" d="M31.996,16.871c-1.193-0.317-2.963,0.15-2.963,0.15c0.674,0.661,1.168,1.517,2.963,1.517
	c2.057,0,2.406-0.973,2.963-1.517C34.959,17.021,33.189,16.553,31.996,16.871z"/>
<path fill="#FFFFFF" d="M29.451,17.043c1.268,1.179,3.832,1.187,5.107,0C33.205,17.108,30.813,17.109,29.451,17.043z"/>
<path fill="#664935" d="M33.479,15.027c0,0.964-2.963,0.964-2.963,0C30.516,14.806,33.479,14.806,33.479,15.027z"/>
<path fill="#A6AEB0" d="M32,62c-9.93,0-9.93-4.248,0-4.248C41.932,57.752,41.932,62,32,62z"/>
<path fill="#302C3B" d="M33.025,11.049c-0.584,0.285-1.465,0.285-2.049,0c-0.625-0.311-1.389-0.51-2.305-0.588
	c-0.891-0.076-2.787-0.072-3.732,0.25c-0.109,0.037-0.217,0.086-0.32,0.137c-0.059,0.027-0.07,0.049-0.07,0.154v0.137
	c0,0.256-0.033,0.156,0.156,0.264c0.367,0.209,0.574,0.75,0.688,1.496c0.16,1.088,0.711,1.77,1.605,2.094
	c0.828,0.303,1.754,0.291,2.578-0.027c0.451-0.174,0.846-0.449,1.16-0.896c0.551-0.783,0.385-1.273,0.67-1.947
	c0.248-0.588,0.943-0.588,1.189,0c0.285,0.674,0.119,1.164,0.67,1.947c0.314,0.447,0.709,0.723,1.16,0.896
	c0.822,0.318,1.75,0.33,2.58,0.027c0.893-0.324,1.445-1.006,1.602-2.094c0.113-0.746,0.322-1.287,0.689-1.496
	c0.189-0.107,0.158-0.008,0.158-0.264v-0.137c0-0.105-0.014-0.127-0.074-0.154c-0.1-0.051-0.207-0.1-0.316-0.137
	c-0.949-0.322-2.842-0.326-3.734-0.25C34.414,10.539,33.65,10.738,33.025,11.049"/>
<path fill="#4E5E67" d="M30.555,11.463c-0.205-0.146-0.584-0.26-1.037-0.336c-0.262-0.043-0.543-0.076-0.832-0.096
	c-0.68-0.051-1.389-0.037-1.877,0.037c-0.303,0.045-0.521,0.111-0.598,0.199c-0.352,0.418-0.281,1.484,0.078,2.229
	c0.096,0.199,0.211,0.375,0.346,0.508c0.229,0.227,0.529,0.379,0.859,0.475c0.221,0.063,0.453,0.098,0.691,0.111
	c0.396,0.021,0.803-0.021,1.172-0.117c0.064-0.016,0.125-0.039,0.184-0.063c1.07-0.445,1.346-2.141,1.176-2.748
	C30.695,11.59,30.639,11.523,30.555,11.463z"/>
<path fill="#4E5E67" d="M37.879,11.328c-0.016-0.02-0.025-0.041-0.041-0.059c-0.146-0.178-0.859-0.268-1.672-0.268
	c-0.297,0-0.605,0.012-0.904,0.037c-0.332,0.025-0.648,0.068-0.93,0.127c-0.537,0.107-0.938,0.271-1,0.494
	c-0.104,0.369-0.043,1.135,0.258,1.781c0.123,0.264,0.285,0.508,0.492,0.695c0.172,0.156,0.373,0.275,0.611,0.336
	c0.037,0.012,0.078,0.018,0.117,0.027c0.746,0.166,1.617,0.127,2.242-0.232c0.131-0.076,0.256-0.16,0.361-0.264
	C38.029,13.395,38.268,11.906,37.879,11.328z"/>
<path fill="#6E8189" d="M29.729,11.371c-0.254-0.041-0.525-0.07-0.805-0.09c-0.654-0.045-1.334-0.031-1.805,0.035
	c-0.291,0.039-0.504,0.102-0.574,0.184c-0.34,0.385-0.271,1.365,0.076,2.051C26.816,14.01,30.355,11.455,29.729,11.371z"/>
<path fill="#6E8189" d="M36.529,11.227c-0.297,0-0.605,0.01-0.906,0.035c-0.328,0.023-0.646,0.064-0.93,0.117
	c-0.535,0.104-0.934,0.256-0.998,0.465c-0.102,0.344-0.043,1.063,0.258,1.67C34.277,14.031,37.342,11.225,36.529,11.227z"/>
<path fill="#4E5E67" d="M43,9.555c0,0.875-4.924,1.799-10.998,1.799C25.926,11.354,21,10.43,21,9.555s4.926-1.584,11.002-1.584
	C38.076,7.971,43,8.68,43,9.555z"/>
<path fill="#4E5E67" d="M39.123,8.145c0,1.674-14.244,1.674-14.244,0c0-8.967,3.189-5.475,7.123-5.475
	C35.934,2.67,39.123-0.822,39.123,8.145z"/>
<path opacity="0.4" fill="#302C3B" d="M32.002,3.248c-1.975,0-5.395-1.375-4.24-0.256c1.516,1.471,7.018,1.416,8.479,0
	C37.395,1.873,33.975,3.248,32.002,3.248z"/>
<path fill="#302C3B" d="M24.879,7.43v1.584c2.783,1.043,11.461,1.043,14.244,0V7.43C36.344,8.473,27.658,8.473,24.879,7.43z"/>
</svg>
