<?xml version="1.0" encoding="utf-8"?>
<!-- Generator: Adobe Illustrator 15.0.0, SVG Export Plug-In . SVG Version: 6.00 Build 0)  -->
<!DOCTYPE svg PUBLIC "-//W3C//DTD SVG 1.1//EN" "http://www.w3.org/Graphics/SVG/1.1/DTD/svg11.dtd">
<svg version="1.1" id="Layer_1" xmlns="http://www.w3.org/2000/svg" xmlns:xlink="http://www.w3.org/1999/xlink" x="0px" y="0px"
	 width="64px" height="64px" viewBox="0 0 64 64" enable-background="new 0 0 64 64" xml:space="preserve">
<path fill="#BEC3CF" d="M37.633,17.829c-0.914-0.334-1.919,0.059-2.211,0.863c-0.206,0.568-12.761,35.068-12.82,35.221
	c-1.471,4.043-6.406,5.971-11.002,4.299c-4.596-1.674-7.139-6.326-5.667-10.367l14.45-39.703c0.889-2.438,3.865-3.6,6.635-2.59
	c2.686,0.979,4.211,3.645,3.49,6.031L17.852,46.284l-0.001-0.002c-0.296,0.822-1.296,1.213-2.229,0.871
	c-0.907-0.328-1.418-1.23-1.169-2.035c0,0,10.722-29.609,10.897-30.094c0.291-0.801-0.225-1.748-1.139-2.08
	c-0.91-0.332-1.852,0.086-2.141,0.887c-0.242,0.67-10.793,29.592-10.916,29.939c-0.281,0.766-0.339,1.547-0.197,2.371
	c0.158,0.941,0.721,1.932,1.473,2.633c0.932,0.869,2.07,1.416,3.35,1.617c2.38,0.369,4.673-0.895,5.412-2.867l0,0l12.59-34.506
	c1.479-4.063-1.075-8.732-5.693-10.412c-4.614-1.68-9.575,0.256-11.052,4.316L2.584,46.628c-2.061,5.664,1.502,12.182,7.941,14.527
	c6.442,2.344,13.364-0.357,15.423-6.023c0.211-0.57,12.765-35.072,12.821-35.221C39.063,19.108,38.544,18.159,37.633,17.829z"/>
<polygon fill="#99A8AE" points="27.03,21.06 26.202,23.392 28.066,28.685 29.36,25.138 "/>
<path fill="#99A8AE" d="M24.361,13.007c-0.981,0.473-0.065,4.93-0.065,4.93l1.438-3.768C25.733,14.169,24.766,12.812,24.361,13.007z
	"/>
<polygon fill="#99A8AE" points="31.842,28.528 29.784,34.185 31.516,39.841 33.729,33.759 "/>
<polygon fill="#99A8AE" points="34.358,21.575 33.427,24.175 35.169,29.804 36.343,26.577 "/>
<path fill="#CFD8DD" d="M40.536,55.099c0.834-0.305,1.276-1.258,0.971-2.096c-0.218-0.596-13.342-36.65-13.401-36.811
	c-1.537-4.225,0.629-8.906,4.83-10.434c4.2-1.529,8.869,0.664,10.407,4.891l15.1,41.492c0.93,2.549-0.377,5.371-2.91,6.291
	c-2.457,0.895-5.18-0.324-6.186-2.723L36.164,19.427l0.001,0.002c-0.313-0.857,0.125-1.807,0.979-2.113
	c0.829-0.305,1.744,0.109,2.083,0.924c0,0,11.298,30.908,11.483,31.414c0.305,0.836,1.254,1.285,2.091,0.98
	c0.829-0.305,1.214-1.234,0.907-2.072c-0.256-0.699-11.242-30.938-11.376-31.303c-0.29-0.801-0.743-1.473-1.356-2.057
	c-0.702-0.668-1.713-1.123-2.67-1.221c-1.182-0.123-2.306,0.148-3.311,0.789c-1.861,1.197-2.635,3.672-1.898,5.748l0,0L46.2,56.599
	c1.545,4.244,6.233,6.449,10.453,4.912c4.219-1.535,6.395-6.238,4.85-10.482L46.401,9.532C44.245,3.614,37.7,0.54,31.817,2.681
	c-5.889,2.143-8.926,8.705-6.768,14.625c0.215,0.598,13.338,36.652,13.397,36.809C38.751,54.954,39.702,55.401,40.536,55.099z"/>
<path opacity="0.6" fill="#99A8AE" d="M26.78,6.341c2.016,1.016,2.133,2.635,2.133,2.635c0.895-1.299,2.069-2.184,2.069-2.184
	l-2.268-2.391C28.714,4.401,27.639,5.091,26.78,6.341z"/>
<path fill="#BEC3CF" d="M30.397,8.806c1.074-0.381,2.154-0.709,3.252-0.961c-0.907-2.283-2.883-4.266-5.56-5.238
	c-0.8-0.291-1.608-0.467-2.409-0.549c-0.27,1.031-0.465,2.08-0.635,3.133c0.648,0.008,1.316,0.121,1.973,0.361
	C28.667,6.151,29.874,7.388,30.397,8.806z"/>
</svg>
