<?xml version="1.0" encoding="utf-8"?>
<!-- Generator: Adobe Illustrator 15.0.0, SVG Export Plug-In . SVG Version: 6.00 Build 0)  -->
<!DOCTYPE svg PUBLIC "-//W3C//DTD SVG 1.1//EN" "http://www.w3.org/Graphics/SVG/1.1/DTD/svg11.dtd">
<svg version="1.1" id="Layer_1" xmlns="http://www.w3.org/2000/svg" xmlns:xlink="http://www.w3.org/1999/xlink" x="0px" y="0px"
	 width="64px" height="64px" viewBox="0 0 64 64" enable-background="new 0 0 64 64" xml:space="preserve">
<path fill="#785647" d="M24.201,49.361l-7.973-8.25c-4.781,1.199-8.9,4.191-9.322,8.104c-0.519,4.809,6.597,13.431,12.827,9.142
	C23.494,55.769,24.201,49.361,24.201,49.361z"/>
<path fill="#594640" d="M24.201,49.361l-3.176-3.285c-3.51,7.249-12.729,8.9-10.236,11.121c2.493,2.221,5.828,3.303,8.944,1.159
	C23.494,55.769,24.201,49.361,24.201,49.361z"/>
<path fill="#8A6859" d="M17.76,42.695l-0.777-0.804c0,0-6.198,0.798-8.834,5.731C12.659,42.99,17.76,42.695,17.76,42.695z"/>
<path fill="#8A6859" d="M18.658,43.626l-0.776-0.804c0,0-6.413,2.467-9.049,7.4C13.344,45.59,18.658,43.626,18.658,43.626z"/>
<path fill="#8A6859" d="M22.215,43.618l-0.777-0.804c0,0-6.412,2.467-9.048,7.399C16.9,45.581,22.215,43.618,22.215,43.618z"/>
<path fill="#E81C27" d="M2,59.041c0,0,7.587,6.869,17.566-0.326c2.25-1.622-4.84,0.255-3.771-2.645
	c0.456-1.238-4.367,0.068-4.226-3.142c0.094-2.147-3.532,0.706-4.315-3.56C6.568,45.633,6.246,57.568,2,59.041z"/>
<path fill="#C21413" d="M2,59.041c0,0,7.587,6.869,17.566-0.326c2.25-1.622-4.122,0.138-4.126-2.443
	c-0.002-1.178-1.677,0.156-2.805-0.537C10.16,54.211,7.676,61.005,2,59.041z"/>
<path fill="#006DAE" d="M27.768,45.672l-7.975-8.249c0,0,4.174-6.946,14.044-17.649C62.242-11.033,74.596,1.749,44.822,31.141
	C34.479,41.355,27.768,45.672,27.768,45.672z"/>
<path fill="#014D87" d="M61.969,4.846c-8.721,14.093-29.243,32.41-37.377,37.541l3.175,3.286c0,0,6.712-4.317,17.056-14.532
	C57.373,18.75,62.438,9.311,61.969,4.846z"/>
<path fill="#018BC9" d="M59.789,3.549c-13.62,9.023-30.32,29.542-36.921,38.013l-2.536-2.624c0,0,4.174-6.944,14.045-17.647
	C46.352,8.303,55.475,3.063,59.789,3.549z"/>
<polygon fill="#C7D3D8" points="23.322,48.451 16.229,41.111 19.793,37.423 26.887,44.763 "/>
<polygon fill="#E6EBEF" points="18.197,43.154 16.799,41.705 20.364,38.014 21.764,39.463 "/>
<polygon fill="#99A8AE" points="24.2,49.363 21.025,46.076 24.592,42.387 27.768,45.672 "/>
<path fill-rule="evenodd" clip-rule="evenodd" fill="#F46C60" d="M8.192,52.584c-0.985-1.023-1.89,1.611-3.042,3.961
	C4.403,58.057,11.162,55.662,8.192,52.584z"/>
</svg>
