<?xml version="1.0" encoding="utf-8"?>
<!-- Generator: Adobe Illustrator 15.0.0, SVG Export Plug-In . SVG Version: 6.00 Build 0)  -->
<!DOCTYPE svg PUBLIC "-//W3C//DTD SVG 1.1//EN" "http://www.w3.org/Graphics/SVG/1.1/DTD/svg11.dtd">
<svg version="1.1" id="Layer_1" xmlns="http://www.w3.org/2000/svg" xmlns:xlink="http://www.w3.org/1999/xlink" x="0px" y="0px"
	 width="64px" height="64px" viewBox="0 0 64 64" enable-background="new 0 0 64 64" xml:space="preserve">
<path fill="#E81C27" d="M61.49,13.884c3.033-3.033-8.342-14.408-11.375-11.375l-3.413,3.412l11.376,11.376L61.49,13.884z"/>
<path fill="#F46C60" d="M58.078,17.296c3.033-3.032-8.343-14.408-11.376-11.375l-3.413,3.413L54.665,20.71L58.078,17.296z"/>
<path fill="#302C3B" d="M54.665,20.709c3.033-3.032-8.343-14.408-11.376-11.375L31.915,20.71l11.375,11.375L54.665,20.709z"/>
<path fill="#F46C60" d="M51.821,23.554c3.032-3.033-8.343-14.408-11.376-11.376L16.557,36.067l11.376,11.376L51.821,23.554z"/>
<path fill="#302C3B" d="M28.501,46.874c3.034-3.033-8.342-14.41-11.375-11.376l-5.688,5.688l11.376,11.376L28.501,46.874z"/>
<path fill="#F46C60" d="M25.089,50.287c3.033-3.033-8.343-14.409-11.376-11.376l-3.412,3.413l11.375,11.375L25.089,50.287z"/>
<path fill="#E81C27" d="M21.676,53.699c3.033-3.033-8.342-14.408-11.375-11.375l-3.413,3.412l11.376,11.376L21.676,53.699z"/>
<path fill="#B00505" d="M18.264,57.111C15.23,60.146,3.854,48.77,6.888,45.736C9.921,42.703,21.297,54.079,18.264,57.111z"/>
<path fill="#E81C27" d="M7.344,47.557c0,0,0,0-5.233,9.783c-0.81,1.513,3.036,5.359,4.55,4.55c9.783-5.233,9.783-5.233,9.783-5.233
	C18.87,54.23,9.77,45.13,7.344,47.557z"/>
<path fill="#F46C60" d="M52.219,7.23l3.412-3.412c-1.021-0.743-2.038-1.313-2.947-1.603l-3.413,3.413
	C50.18,5.918,51.197,6.488,52.219,7.23z"/>
<path fill="#4E5E67" d="M45.857,9.041l-2.843,2.844c0.909,0.291,1.927,0.859,2.948,1.603l2.844-2.844
	C47.785,9.9,46.768,9.332,45.857,9.041z"/>
<path fill="#4E5E67" d="M16.282,38.617c0.91,0.291,1.928,0.859,2.949,1.603l3.412-3.413c-1.021-0.742-2.039-1.312-2.948-1.602
	L16.282,38.617z"/>
<path fill="#F89987" d="M49.271,5.628l-3.413,3.412c0.91,0.291,1.928,0.859,2.949,1.603l3.412-3.413
	C51.197,6.488,50.18,5.918,49.271,5.628z"/>
<path fill="#F89987" d="M19.695,35.205c0.909,0.29,1.927,0.859,2.948,1.602l23.32-23.32c-1.021-0.743-2.039-1.312-2.948-1.603
	L19.695,35.205z"/>
<path fill="#F89987" d="M12.87,42.03c0.91,0.29,1.927,0.858,2.947,1.603l3.414-3.413c-1.021-0.743-2.039-1.312-2.949-1.603
	L12.87,42.03z"/>
<path fill="#F46C60" d="M12.87,42.03l-3.412,3.413c0.909,0.29,1.926,0.858,2.947,1.602l3.412-3.412
	C14.796,42.889,13.78,42.32,12.87,42.03z"/>
<path fill="#F46C60" d="M11.671,48.541c-1.124-0.805-2.238-1.342-3.12-1.389L2.679,57.908l1.138,1.138L11.671,48.541z"/>
<path fill="#B00505" d="M6.143,61.84c-0.85,0.85-4.832-3.133-3.982-3.982C3.109,56.91,7.09,60.891,6.143,61.84z"/>
<path fill="#302C3B" d="M33.62,41.756c-3.792-3.792,10.997-18.581,14.788-14.79L33.62,41.756z"/>
</svg>
