<?xml version="1.0" encoding="utf-8"?>
<!-- Generator: Adobe Illustrator 15.0.0, SVG Export Plug-In . SVG Version: 6.00 Build 0)  -->
<!DOCTYPE svg PUBLIC "-//W3C//DTD SVG 1.1//EN" "http://www.w3.org/Graphics/SVG/1.1/DTD/svg11.dtd">
<svg version="1.1" id="Layer_1" xmlns="http://www.w3.org/2000/svg" xmlns:xlink="http://www.w3.org/1999/xlink" x="0px" y="0px"
	 width="64px" height="64px" viewBox="0 0 64 64" enable-background="new 0 0 64 64" xml:space="preserve">
<path fill="#CFD8DD" d="M15.289,41.142l7.568,7.568l-7.646,11.431c0,0-5.973-0.776-11.697,1.857l9.152-9.151
	c0.432,0.031,0.868-0.111,1.189-0.431c0.602-0.604,0.581-1.598-0.048-2.228c-0.626-0.625-1.621-0.645-2.226-0.045
	c-0.32,0.323-0.461,0.76-0.428,1.191L2,60.487C4.633,54.761,3.857,48.79,3.857,48.79L15.289,41.142z"/>
<path fill="#99A8AE" d="M19.07,44.927l3.786,3.785l-7.647,11.43c0,0-5.973-0.775-11.697,1.858l9.152-9.151
	c0.432,0.031,0.868-0.111,1.188-0.431c0.603-0.604,0.582-1.598-0.047-2.228L19.07,44.927z"/>
<path fill="#BEC3CF" d="M15.289,41.142l7.568,7.568c0,0-6.293-0.02-6.921-0.65c-2.757-2.75-3.446-4.997-3.446-4.997L15.289,41.142z"
	/>
<path fill="#6E8189" d="M19.07,44.927l3.786,3.785l-1.868,2.793c0,0-2.299-0.682-5.055-3.443L19.07,44.927z"/>
<path fill="#302C3B" d="M24.906,50.444c-3.047,3.048-14.398-8.305-11.351-11.352l3.43-3.431l11.352,11.353L24.906,50.444z"/>
<path fill="#99A8AE" d="M28.336,47.015c-3.047,3.049-14.398-8.305-11.351-11.353l11.431-11.431l11.352,11.353L28.336,47.015z"/>
<path fill="#302C3B" d="M31.194,44.157c-3.048,3.047-14.398-8.305-11.352-11.353L43.847,8.801l11.353,11.352L31.194,44.157z"/>
<path fill="#99A8AE" d="M54.627,20.724c-3.048,3.049-14.4-8.303-11.352-11.352l5.715-5.715l11.352,11.352L54.627,20.724z"/>
<path fill="#302C3B" d="M58.057,17.295c-3.049,3.048-14.4-8.304-11.353-11.352l3.429-3.429l11.352,11.352L58.057,17.295z"/>
<path fill="#CFD8DD" d="M16.683,38.235l2.857-2.856c0.288,0.909,0.854,1.927,1.595,2.946l-2.858,2.857
	C17.536,40.163,16.971,39.146,16.683,38.235z"/>
<path fill="#CFD8DD" d="M46.401,8.517c0.288,0.91,0.854,1.928,1.595,2.947l-3.43,3.43c-0.74-1.021-1.307-2.038-1.594-2.947
	L46.401,8.517z"/>
<path fill="#4E5E67" d="M13.254,41.665l3.429-3.43c0.288,0.91,0.854,1.928,1.594,2.947l-3.43,3.43
	C14.107,43.591,13.541,42.574,13.254,41.665z"/>
<path fill="#4E5E67" d="M42.973,11.946c0.287,0.909,0.854,1.926,1.594,2.947L21.135,38.325c-0.741-1.02-1.307-2.037-1.595-2.946
	L42.973,11.946z"/>
<path fill="#4E5E67" d="M49.83,5.089c0.287,0.909,0.854,1.926,1.596,2.945l-3.43,3.43c-0.74-1.02-1.307-2.037-1.595-2.947
	L49.83,5.089z"/>
<path fill="#99A8AE" d="M61.484,13.866c3.05-3.049-8.303-14.4-11.352-11.352C47.085,5.563,58.438,16.915,61.484,13.866z"/>
<path fill="#CFD8DD" d="M60.994,12.938c2.669-2.667-7.266-12.601-9.932-9.933C48.395,5.672,58.328,15.604,60.994,12.938z"/>
</svg>
