<?xml version="1.0" encoding="utf-8"?>
<!-- Generator: Adobe Illustrator 15.0.0, SVG Export Plug-In . SVG Version: 6.00 Build 0)  -->
<!DOCTYPE svg PUBLIC "-//W3C//DTD SVG 1.1//EN" "http://www.w3.org/Graphics/SVG/1.1/DTD/svg11.dtd">
<svg version="1.1" id="Layer_1" xmlns="http://www.w3.org/2000/svg" xmlns:xlink="http://www.w3.org/1999/xlink" x="0px" y="0px"
	 width="64px" height="64px" viewBox="0 0 64 64" enable-background="new 0 0 64 64" xml:space="preserve">
<path fill="#302C3B" d="M2.011,60.299c0.177,0.507,1.184,1.511,1.692,1.69c0.536,0.189,3.268-2.129,3.268-2.129l-2.821-2.821
	C4.149,57.039,1.823,59.761,2.011,60.299z"/>
<polygon fill="#302C3B" points="29.077,23.638 40.365,34.929 59.178,14.231 49.771,4.823 "/>
<polygon fill="#4E5E67" points="30.018,24.581 32.839,27.402 51.653,8.585 49.771,6.704 "/>
<polygon fill="#302C3B" points="7.441,47.159 16.849,56.568 37.543,37.751 26.255,26.462 "/>
<polygon fill="#4E5E67" points="8.382,48.101 10.264,49.983 29.077,31.166 26.255,28.343 "/>
<polygon fill="#99A8AE" points="2.738,57.509 6.501,61.272 16.849,56.568 7.441,47.159 "/>
<polygon fill="#6E8189" points="5.561,60.332 6.501,61.272 16.849,56.568 14.026,53.746 "/>
<polygon fill="#CFD8DD" points="3.68,58.449 4.62,59.39 10.264,49.983 8.382,48.101 "/>
<polygon fill="#99A8AE" points="28.156,22.717 41.305,35.87 38.483,38.692 25.314,25.521 "/>
<polygon fill="#6E8189" points="37.549,32.111 41.306,35.87 38.483,38.692 34.721,34.929 "/>
<rect x="27.279" y="23.997" transform="matrix(-0.7069 -0.7073 0.7073 -0.7069 30.4475 64.6008)" fill="#CFD8DD" width="2.658" height="3.99"/>
<path fill="#302C3B" d="M51.653,2.94l9.406,9.407C64.822,8.585,55.415-0.819,51.653,2.94z"/>
<path fill="#4E5E67" d="M52.595,3.881l1.881,1.881c1.882-1.881,4.702-0.938,4.702-0.938S54.476,2,52.595,3.881z"/>
<rect x="47.433" y="7.254" transform="matrix(-0.707 -0.7072 0.7072 -0.707 88.5239 53.8444)" fill="#99A8AE" width="15.966" height="2.661"/>
<rect x="50.325" y="3.494" transform="matrix(-0.7069 -0.7073 0.7073 -0.7069 84.7581 44.7683)" fill="#CFD8DD" width="2.658" height="2.66"/>
<polygon fill="#6E8189" points="58.243,9.531 62,13.289 60.119,15.172 56.355,11.407 "/>
<path fill="#99A8AE" d="M44.602,5.297c2.916-0.583,2.349,2.348,2.349,2.348l3.763-1.881l-0.941-0.94
	C48.831,3.881,46.95,2,44.127,2.94c-7.358,2.454-2.821,14.113-16.932,18.816l0.941,0.94C41.306,18.935,39.898,6.237,44.602,5.297z"
	/>
<path fill="#CFD8DD" d="M44.602,3.413c2.328-0.773,3.693,0.055,5.156,1.423l0.014-0.013c-1.881-1.883-3.289-3.291-6.11-2.351
	c-7.358,2.454-2.822,14.114-16.932,18.818l0.94,0.94C41.779,17.527,37.243,5.867,44.602,3.413z"/>
</svg>
