<?xml version="1.0" encoding="utf-8"?>
<!-- Generator: Adobe Illustrator 15.0.0, SVG Export Plug-In . SVG Version: 6.00 Build 0)  -->
<!DOCTYPE svg PUBLIC "-//W3C//DTD SVG 1.1//EN" "http://www.w3.org/Graphics/SVG/1.1/DTD/svg11.dtd">
<svg version="1.1" id="Layer_1" xmlns="http://www.w3.org/2000/svg" xmlns:xlink="http://www.w3.org/1999/xlink" x="0px" y="0px"
	 width="64px" height="64px" viewBox="0 0 64 64" enable-background="new 0 0 64 64" xml:space="preserve">
<path fill="#FDCA47" d="M31.144,43.48l7.658,1.83l7.604-32.688c0.51-2.189-0.777-4.424-2.883-4.928l-0.023-0.006
	c-2.107-0.502-4.24,0.914-4.766,3.17L31.144,43.48z"/>
<path fill="#FDCA47" d="M22.099,41.318l9.045,2.162l8.244-35.434c0.623-2.674-0.896-5.33-3.394-5.926l0,0
	c-2.496-0.598-5.03,1.09-5.652,3.764L22.099,41.318z"/>
<path fill="#FDCA47" d="M20.303,42.781l8.446-2.201L18.937,7.568c-0.685-2.309-3.128-3.684-5.456-3.076l-0.014,0.004
	c-2.329,0.605-3.661,2.967-2.976,5.273L20.303,42.781z"/>
<path fill="#FDCA47" d="M6.87,11.544c-2.167,0.564-3.333,2.738-2.696,4.881l8.43,28.364l7.7-2.008l-8.43-28.364
	C11.238,12.277,9.04,10.978,6.87,11.544L6.87,11.544z"/>
<path fill="#CC9200" d="M43.522,7.695l-0.023-0.006c-0.227-0.053-0.459-0.076-0.686-0.088c1.707,0.768,2.686,2.746,2.23,4.697
	L37.44,44.982l1.361,0.328l7.604-32.688C46.915,10.433,45.628,8.199,43.522,7.695z"/>
<path fill="#CC9200" d="M35.994,2.121c-0.232-0.057-0.466-0.074-0.698-0.09c2.09,0.873,3.293,3.266,2.73,5.689l-4.683,20.129
	l0.862,2.47l5.182-22.272C40.011,5.373,38.491,2.716,35.994,2.121z"/>
<path fill="#CC9200" d="M13.481,4.492l-0.014,0.004C13.22,4.56,12.99,4.652,12.766,4.753c2.085-0.174,4.1,1.133,4.712,3.193
	l5.747,19.341l2.134,1.886L18.937,7.568C18.252,5.259,15.809,3.884,13.481,4.492z"/>
<path fill="#CC9200" d="M6.87,11.544c-0.251,0.064-0.483,0.156-0.706,0.262c1.904-0.129,3.689,1.098,4.251,2.99l4.04,13.596
	l2.067,1.666l-4.648-15.641C11.238,12.277,9.04,10.978,6.87,11.544z"/>
<path fill="#FDCA47" d="M59.685,29.232c-1.537-3.07-6.496-2.918-11.553,2.713c-3.529,3.936-5.062,5.268-8.604,5.264l0.767-4.495
	l-30.926,1.19c0,0-1.848,12.83,1.19,19.818c4.527,10.41,27.775,13.154,35.109-4.563c1.459-3.523,4.414-6.143,7.063-9.439
	C55.919,35.746,61.368,32.599,59.685,29.232z"/>
<path fill="#CC9200" d="M59.685,29.232c-0.291-0.582-0.709-1.047-1.223-1.383c0.082,0.125,0.164,0.248,0.234,0.387
	c1.684,3.367-3.766,6.516-6.955,10.487c-2.648,3.299-5.604,5.92-7.061,9.441C38.321,63.523,20.009,63.5,12.298,56.439
	c7.008,8.027,26.722,8.775,33.369-7.279c1.459-3.523,4.414-6.143,7.063-9.439C55.919,35.746,61.368,32.599,59.685,29.232z"/>
<path fill="#CC9200" d="M40.712,37.097c-6.53-2.402-17.952,2.075-16.351,13.713c0-10.898,10.079-13.604,15.509-13.604
	C40.521,37.205,40.712,37.097,40.712,37.097z"/>
</svg>
