<?xml version="1.0" encoding="utf-8"?>
<!-- Generator: Adobe Illustrator 15.0.0, SVG Export Plug-In . SVG Version: 6.00 Build 0)  -->
<!DOCTYPE svg PUBLIC "-//W3C//DTD SVG 1.1//EN" "http://www.w3.org/Graphics/SVG/1.1/DTD/svg11.dtd">
<svg version="1.1" id="Layer_1" xmlns="http://www.w3.org/2000/svg" xmlns:xlink="http://www.w3.org/1999/xlink" x="0px" y="0px"
	 width="64px" height="64px" viewBox="0 0 64 64" enable-background="new 0 0 64 64" xml:space="preserve">
<path fill="#916B50" d="M34.01,42.252l7.832,1.525l6.436-32.922c0.432-2.207-0.959-4.387-3.115-4.807l-0.021-0.004
	c-2.156-0.42-4.264,1.078-4.707,3.35L34.01,42.252z"/>
<path fill="#664935" d="M45.162,6.049l-0.021-0.004C44.906,6,44.672,5.986,44.441,5.984c1.76,0.697,2.824,2.635,2.441,4.598
	l-6.436,32.924l1.395,0.271l6.436-32.922C48.709,8.648,47.318,6.469,45.162,6.049z"/>
<path fill="#916B50" d="M26.041,43.336h9.428V6.973C35.469,4.229,33.361,2,30.758,2l0,0c-2.604,0-4.717,2.229-4.717,4.973V43.336z"
	/>
<path fill="#664935" d="M30.758,2c-0.242,0-0.479,0.037-0.711,0.076c2.264,0.363,4.002,2.408,4.002,4.896v36.363h1.42V6.973
	C35.469,4.229,33.361,2,30.758,2z"/>
<path fill="#916B50" d="M21.009,43.172l7.952-2.068L20.306,7.98c-0.605-2.313-2.873-3.725-5.064-3.154L15.228,4.83
	c-2.193,0.57-3.479,2.908-2.875,5.221L21.009,43.172z"/>
<path fill="#664935" d="M15.242,4.826L15.228,4.83c-0.232,0.061-0.449,0.148-0.66,0.248c1.955-0.143,3.824,1.193,4.365,3.26
	l8.655,33.121l1.373-0.355L20.306,7.98C19.701,5.668,17.433,4.256,15.242,4.826z"/>
<path fill="#916B50" d="M4.003,13.402c-1.885,0.947-2.537,3.289-1.537,5.271l13.246,26.27l6.695-3.361L9.162,15.313
	C8.162,13.33,5.888,12.455,4.003,13.402L4.003,13.402z"/>
<path fill="#664935" d="M4.003,13.402c-0.221,0.111-0.416,0.242-0.602,0.385c1.729-0.471,3.605,0.408,4.49,2.162l13.246,26.271
	l1.27-0.639L9.162,15.313C8.162,13.33,5.888,12.455,4.003,13.402z"/>
<path fill="#916B50" d="M61.68,29.27c-1.561-3.066-6.59-2.914-11.717,2.711c-3.582,3.93-4.344,5.154-7.936,5.15v-4.117
	c0,0-7.703-5.738-23.042-3.119c0,0-8.732,1.225-8.732,5.754c0,0-1.484,11.104,1.598,18.084c4.592,10.398,28.174,13.139,35.61-4.559
	c1.48-3.518,4.479-6.135,7.164-9.428C57.859,35.777,63.389,32.633,61.68,29.27z"/>
<path fill="#664935" d="M61.68,29.27c-0.295-0.582-0.719-1.045-1.24-1.381c0.084,0.125,0.168,0.248,0.238,0.387
	c1.709,3.363-3.82,6.508-7.055,10.475c-2.686,3.295-5.684,5.912-7.164,9.43c-6.447,15.342-25.022,15.318-32.844,8.266
	c7.109,8.02,27.106,8.766,33.846-7.271c1.48-3.518,4.479-6.135,7.164-9.428C57.859,35.777,63.389,32.633,61.68,29.27z"/>
<path fill="#664935" d="M43.15,37.082c-6.531-2.402-18.052,2.012-16.452,13.65c0-10.898,9.897-13.602,15.329-13.602
	C42.678,37.131,43.15,37.082,43.15,37.082z"/>
</svg>
