<?xml version="1.0" encoding="utf-8"?>
<!-- Generator: Adobe Illustrator 15.0.0, SVG Export Plug-In . SVG Version: 6.00 Build 0)  -->
<!DOCTYPE svg PUBLIC "-//W3C//DTD SVG 1.1//EN" "http://www.w3.org/Graphics/SVG/1.1/DTD/svg11.dtd">
<svg version="1.1" id="Layer_1" xmlns="http://www.w3.org/2000/svg" xmlns:xlink="http://www.w3.org/1999/xlink" x="0px" y="0px"
	 width="64px" height="64px" viewBox="0 0 64 64" enable-background="new 0 0 64 64" xml:space="preserve">
<path fill="#FDCA47" d="M12.746,31.509c0-2.604,2.472-4.717,5.516-4.717h0.102c3.048,0,6.521,2.112,6.521,4.717l-2.688-25.08
	C22.197,3.983,25.403,2,29.355,2h0.067c3.953,0,7.155,1.983,7.155,4.429l-1.113,24.56c0-2.604,2.467-4.717,5.513-4.717h0.103
	c3.046,0,5.514,2.112,5.514,4.717v2.737c0.536-1.859,2.517-3.244,4.764-2.665c4.628,1.194,3.773,4.8,4.22,8.702
	c0.546,4.759,1.787,7.931,1.322,9.608c-1.018,3.666-3.832,3.227-5.319,4.23c-1.478,0.998-1.863,2.59-2.971,3.551
	c-2.313,2.01-6.48,1.625-10.172,2.488c-3.253,0.762-6.125,2.594-8.592,2.334c-2.791-0.297-3.581-2.646-6.664-4.047
	c-3.131-1.422-7.383-0.682-8.594-3.111C12.177,49.973,12.746,31.509,12.746,31.509z"/>
<path fill="#CC9200" d="M12.746,31.509c0-1.408,0.736-2.659,1.882-3.523c-1.94,2.394-0.672,19.362,1.737,24.206
	c1.209,2.43,5.459,1.688,8.592,3.111c3.085,1.4,3.873,3.752,6.664,4.047c2.468,0.26,5.363-1.355,8.616-2.117
	c3.69-0.863,6.3-0.6,8.616-2.609c1.106-0.961,1.703-2.469,3.99-3.154c1.684-0.506,2.823-0.955,4.08-2.232
	c-0.01,0.045-0.01,0.088-0.024,0.135c-1.018,3.666-3.832,3.227-5.319,4.23c-1.478,0.998-1.863,2.59-2.971,3.551
	c-2.313,2.01-6.48,1.625-10.172,2.488c-3.253,0.762-6.125,2.594-8.592,2.334c-2.791-0.297-3.581-2.646-6.664-4.047
	c-3.131-1.422-7.383-0.682-8.594-3.111C12.177,49.973,12.746,31.509,12.746,31.509z"/>
<path fill="#CC9200" d="M22.278,5.286C21.3,9.11,24.884,43.711,24.884,43.711c0,2.486,1.381,1.469,1.381-1.021
	c0,0-3.752-32.473-2.695-37.344c0.44-2.025,1.914-2.628,4.313-3.252C27.883,2.095,23.037,2.323,22.278,5.286z"/>
<path fill="#CC9200" d="M37.188,42.27V29.28c0-0.701,0.146-1.368,0.472-1.968c-1.316,0.861-2.196,2.221-2.196,3.748v12.988
	C35.464,46.654,37.188,44.873,37.188,42.27z"/>
<path fill="#CC9200" d="M47.996,43.576V33.198c0-0.634,0.134-1.235,0.426-1.778c-1.189,0.778-1.987,2.006-1.987,3.386v10.378
	C46.435,47.539,47.996,45.93,47.996,43.576z"/>
<path fill="#FFE8BB" d="M34.62,9.852c0.827-5.603-1.812-5.833-5.109-5.833c-3.295,0-5.932,0.23-5.104,5.833
	c0.308,2.082,2.512,2.792,5.104,2.792C32.107,12.644,34.312,11.934,34.62,9.852z"/>
<path fill="#CC9200" d="M14.611,53.611c-3.727-4.227-8.645-6.395-7.42-9.506c1.055-2.997,3.229-2.935,6.06-6.319L14.611,53.611z"/>
</svg>
