<?xml version="1.0" encoding="utf-8"?>
<!-- Generator: Adobe Illustrator 15.0.0, SVG Export Plug-In . SVG Version: 6.00 Build 0)  -->
<!DOCTYPE svg PUBLIC "-//W3C//DTD SVG 1.1//EN" "http://www.w3.org/Graphics/SVG/1.1/DTD/svg11.dtd">
<svg version="1.1" id="Layer_1" xmlns="http://www.w3.org/2000/svg" xmlns:xlink="http://www.w3.org/1999/xlink" x="0px" y="0px"
	 width="64px" height="64px" viewBox="0 0 64 64" enable-background="new 0 0 64 64" xml:space="preserve">
<path fill="#916B50" d="M12.746,31.51c0-2.605,2.473-4.717,5.516-4.717h0.102c3.049,0,6.521,2.111,6.521,4.717L22.197,6.43
	c0-2.445,3.207-4.43,7.159-4.43h0.068c3.951,0,7.154,1.984,7.154,4.43l-1.113,24.559c0-2.604,2.467-4.717,5.512-4.717h0.104
	c3.045,0,5.514,2.113,5.514,4.717v2.738c0.535-1.859,2.516-3.244,4.764-2.666c4.627,1.195,3.773,4.801,4.219,8.703
	c0.547,4.758,1.787,7.93,1.322,9.607c-1.018,3.666-3.832,3.227-5.318,4.23c-1.479,0.998-1.863,2.59-2.971,3.551
	c-2.314,2.01-6.48,1.625-10.172,2.488c-3.254,0.762-6.125,2.594-8.592,2.334c-2.791-0.297-3.583-2.646-6.665-4.047
	c-3.131-1.422-7.383-0.682-8.594-3.111C12.177,49.973,12.746,31.51,12.746,31.51z"/>
<path fill="#664935" d="M12.746,31.51c0-1.408,0.736-2.66,1.883-3.523c-1.941,2.393-0.672,19.361,1.736,24.205
	c1.209,2.43,5.459,1.688,8.592,3.111c3.086,1.4,3.874,3.752,6.665,4.047c2.469,0.26,5.363-1.355,8.615-2.117
	c3.691-0.863,6.301-0.6,8.617-2.609c1.105-0.961,1.703-2.469,3.99-3.154c1.684-0.506,2.822-0.955,4.08-2.232
	c-0.01,0.045-0.01,0.088-0.025,0.135c-1.018,3.666-3.832,3.227-5.318,4.23c-1.479,0.998-1.863,2.59-2.971,3.551
	c-2.314,2.01-6.48,1.625-10.172,2.488c-3.254,0.762-6.125,2.594-8.592,2.334c-2.791-0.297-3.583-2.646-6.665-4.047
	c-3.131-1.422-7.383-0.682-8.594-3.111C12.177,49.973,12.746,31.51,12.746,31.51z"/>
<path fill="#664935" d="M22.279,5.287c-0.979,3.824,2.605,38.424,2.605,38.424c0,2.486,1.381,1.469,1.381-1.02
	c0,0-3.752-32.473-2.695-37.344c0.441-2.025,1.914-2.629,4.315-3.252C27.885,2.096,23.037,2.324,22.279,5.287z"/>
<path fill="#664935" d="M37.189,42.27V29.281c0-0.701,0.145-1.369,0.471-1.969c-1.316,0.861-2.195,2.221-2.195,3.748v12.988
	C35.465,46.654,37.189,44.873,37.189,42.27z"/>
<path fill="#664935" d="M47.996,43.576V33.199c0-0.635,0.135-1.236,0.426-1.779c-1.189,0.779-1.986,2.006-1.986,3.387v10.377
	C46.436,47.539,47.996,45.93,47.996,43.576z"/>
<path fill="#B08A6F" d="M34.621,9.852c0.826-5.602-1.813-5.832-5.109-5.832c-3.295,0-5.932,0.23-5.104,5.832
	c0.309,2.082,2.512,2.793,5.104,2.793C32.107,12.645,34.313,11.934,34.621,9.852z"/>
<path fill="#664935" d="M14.611,53.611c-3.727-4.227-8.645-6.395-7.42-9.506c1.055-2.996,3.229-2.934,6.061-6.318L14.611,53.611z"/>
</svg>
