<?xml version="1.0" encoding="utf-8"?>
<!-- Generator: Adobe Illustrator 15.0.0, SVG Export Plug-In . SVG Version: 6.00 Build 0)  -->
<!DOCTYPE svg PUBLIC "-//W3C//DTD SVG 1.1//EN" "http://www.w3.org/Graphics/SVG/1.1/DTD/svg11.dtd">
<svg version="1.1" id="Layer_1" xmlns="http://www.w3.org/2000/svg" xmlns:xlink="http://www.w3.org/1999/xlink" x="0px" y="0px"
	 width="64px" height="64px" viewBox="0 0 64 64" enable-background="new 0 0 64 64" xml:space="preserve">
<path fill="#CFD8DD" d="M52,16c-10,0-30,0-40,0C8.32,16,2,21.088,2,26.806c0,5.717,2.24,27.195,2.24,27.195h55.52
	c0,0,2.24-21.478,2.24-27.195C62,21.088,55.682,16,52,16z"/>
<path fill="#6E8189" d="M7,54.001v4c0,1.1,0.9,2,2,2h46c1.1,0,2-0.9,2-2v-4H7z"/>
<path fill="#99A8AE" d="M48.666,16c-8.332,0-24.999,0-33.332,0C12.267,16,7,21.088,7,26.806c0,5.717,1.867,27.195,1.867,27.195
	h46.266c0,0,1.867-21.478,1.867-27.195C57,21.088,51.734,16,48.666,16z"/>
<path fill="#302C3B" d="M52,50.001c0,2.199-0.449,4-1,4H13c-0.549,0-1-1.801-1-4l0,0c0-2.199,0.451-3,1-3h38
	C51.551,47.001,52,47.802,52,50.001L52,50.001z"/>
<path fill="#CFD8DD" d="M51.865,58.048c-3.744-4.842-4.992-8.047-4.992-8.047H17.129c0,0-1.249,3.205-4.994,8.047
	c-3.744,4.843,2.622,3.873,6.865,3.873h26C49.244,61.921,55.609,62.891,51.865,58.048z"/>
<path fill="#99A8AE" d="M19.898,52.323c-0.95,2.449-2.419,4.771-3.829,7.012c-0.313,0.498,0.524,0.945,0.837,0.449
	c1.454-2.309,2.947-4.701,3.928-7.225C21.044,52.019,20.106,51.786,19.898,52.323L19.898,52.323z"/>
<path fill="#99A8AE" d="M25.716,52.323c-0.39,2.412-1.171,4.791-1.938,7.117c-0.183,0.551,0.754,0.785,0.934,0.236
	c0.77-2.326,1.551-4.705,1.939-7.117C26.742,51.999,25.807,51.757,25.716,52.323L25.716,52.323z"/>
<path fill="#99A8AE" d="M37.35,52.56c0.391,2.412,1.172,4.791,1.939,7.117c0.182,0.549,1.117,0.314,0.936-0.236
	c-0.77-2.326-1.551-4.705-1.939-7.117C38.193,51.757,37.26,51.999,37.35,52.56L37.35,52.56z"/>
<path fill="#99A8AE" d="M43.168,52.56c0.979,2.523,2.473,4.916,3.926,7.225c0.313,0.496,1.15,0.049,0.838-0.449
	c-1.41-2.24-2.879-4.563-3.83-7.012C43.895,51.786,42.957,52.019,43.168,52.56L43.168,52.56z"/>
<path fill="#99A8AE" d="M31.516,52.44c0,2.373,0,4.746,0,7.119c0,0.574,0.969,0.574,0.969,0c0-2.373,0-4.746,0-7.119
	C32.484,51.868,31.516,51.868,31.516,52.44L31.516,52.44z"/>
<path fill="#302C3B" d="M16.875,18c-2.072,1.14-2.375,3.761-2.375,4.501c0,0.962,0,1.499,5.836,1.499c5.828,0,17.5,0,23.328,0
	c5.836,0,5.836-0.537,5.836-1.499c0-0.74-0.303-3.361-2.375-4.501H16.875z"/>
<path fill="#6E8189" d="M45,2H19c-1.1,0-2,0.899-2,2v18h30V4C47,2.899,46.1,2,45,2z"/>
<path fill="#CFD8DD" d="M44,4H20c-0.549,0-1,0.45-1,1v17h26V5C45,4.45,44.551,4,44,4z"/>
<path fill="#99A8AE" d="M32,8c-2.654,0-4.998-1.298-6.453-3.287C26.605,7.231,29.096,9,32,9s5.395-1.769,6.455-4.287
	C37,6.702,34.654,8,32,8z"/>
<rect x="21" y="10" fill="#FFFFFF" width="22" height="12"/>
<path fill="#CFD8DD" d="M53,27c0,1.333-42,1.333-42,0S53,25.667,53,27z"/>
<circle fill="#E81C27" cx="50" cy="34.001" r="1"/>
<circle fill="#A6E639" cx="50" cy="38.001" r="1"/>
<path fill="#FFFFFF" d="M41.916,50.001h-19.83c0,0-0.589,4.771-3.086,8h26C42.504,54.772,41.916,50.001,41.916,50.001z"/>
<path fill="#A6E639" d="M21,38.001c0,0.55-0.449,1-1,1h-7c-0.549,0-1-0.45-1-1v-4c0-0.55,0.451-1,1-1h7c0.551,0,1,0.45,1,1V38.001z"
	/>
<path fill="#4E5E67" d="M13,41.501h2c0.365,0,0.671-0.207,0.846-0.5c0.09,0.148,0.154,0.314,0.154,0.5c0,0.549-0.449,1-1,1h-2
	c-0.549,0-1-0.451-1-1c0-0.186,0.066-0.352,0.154-0.5C12.33,41.294,12.637,41.501,13,41.501z"/>
<path fill="#4E5E67" d="M18,41.501h2c0.365,0,0.671-0.207,0.846-0.5c0.09,0.148,0.154,0.314,0.154,0.5c0,0.549-0.449,1-1,1h-2
	c-0.549,0-1-0.451-1-1c0-0.186,0.066-0.352,0.154-0.5C17.33,41.294,17.637,41.501,18,41.501z"/>
</svg>
