<?xml version="1.0" encoding="utf-8"?>
<!-- Generator: Adobe Illustrator 15.0.0, SVG Export Plug-In . SVG Version: 6.00 Build 0)  -->
<!DOCTYPE svg PUBLIC "-//W3C//DTD SVG 1.1//EN" "http://www.w3.org/Graphics/SVG/1.1/DTD/svg11.dtd">
<svg version="1.1" id="Layer_1" xmlns="http://www.w3.org/2000/svg" xmlns:xlink="http://www.w3.org/1999/xlink" x="0px" y="0px"
	 width="64px" height="64px" viewBox="0 0 64 64" enable-background="new 0 0 64 64" xml:space="preserve">
<path fill="#302C3B" d="M32,14.328C24.04,1.394,2,6.448,2,22.697C2,33.606,12.165,40.905,32,57c19.835-16.095,30-23.394,30-34.303
	C62,6.448,39.959,1.394,32,14.328z"/>
<path fill="#1A1626" d="M31.11,15.941C31.422,15.213,32,14.328,32,14.328c-2.172-3.642-5.354-5.217-5.354-5.217
	C30,12.218,31.11,15.941,31.11,15.941z"/>
<path fill="#1A1626" d="M49.439,7.448c4.34,2.578,7.482,7.114,7.482,13.249c0,9.936-11.5,21.474-22.188,31.286
	c-3.345,3.072-2.734,2.688-12.283-2.712C23.669,50.254,30.7,55.944,32,57c19.835-16.095,30-23.394,30-34.303
	C62,14.348,56.178,8.965,49.439,7.448z"/>
<path fill-rule="evenodd" clip-rule="evenodd" fill="#4E5E67" d="M5.581,20.33c0.49,3.445,6.938-3.295,13.467-9.09
	C23.262,7.514,4.108,9.967,5.581,20.33z"/>
<path fill-rule="evenodd" clip-rule="evenodd" fill="#4E5E67" d="M34.547,15.603c0.287,2.015,4.059-1.928,7.877-5.317
	C44.889,8.105,33.686,9.54,34.547,15.603z"/>
</svg>
