<?xml version="1.0" encoding="utf-8"?>
<!-- Generator: Adobe Illustrator 15.0.0, SVG Export Plug-In . SVG Version: 6.00 Build 0)  -->
<!DOCTYPE svg PUBLIC "-//W3C//DTD SVG 1.1//EN" "http://www.w3.org/Graphics/SVG/1.1/DTD/svg11.dtd">
<svg version="1.1" id="Layer_1" xmlns="http://www.w3.org/2000/svg" xmlns:xlink="http://www.w3.org/1999/xlink" x="0px" y="0px"
	 width="64px" height="64px" viewBox="0 0 64 64" enable-background="new 0 0 64 64" xml:space="preserve">
<path fill="#302C3B" d="M62,6c0-1.875-2.125-4-4-4H6C4.125,2,2,4.125,2,6v40h60V6z"/>
<path fill="#CFD8DD" d="M2,46v2c0,1.875,2.125,4,4,4h52c1.875,0,4-2.125,4-4v-2H2z"/>
<path fill="#CFD8DD" d="M24,56c0,2.604-8,2-8,2h32c0,0-8,0.604-8-2v-4H24V56z"/>
<polygon fill="#99A8AE" points="24,56 40,54 40,52 24,52 "/>
<rect x="6" y="6" fill="#4E5E67" width="52" height="36"/>
<polygon fill="#6E8189" points="58,42 52.553,42 24.819,6 58,6 "/>
<circle fill="#99A8AE" cx="32" cy="47.938" r="0.938"/>
<rect x="16" y="58" fill="#99A8AE" width="32" height="4"/>
</svg>
