<?xml version="1.0" encoding="utf-8"?>
<!-- Generator: Adobe Illustrator 15.0.0, SVG Export Plug-In . SVG Version: 6.00 Build 0)  -->
<!DOCTYPE svg PUBLIC "-//W3C//DTD SVG 1.1//EN" "http://www.w3.org/Graphics/SVG/1.1/DTD/svg11.dtd">
<svg version="1.1" id="Layer_1" xmlns="http://www.w3.org/2000/svg" xmlns:xlink="http://www.w3.org/1999/xlink" x="0px" y="0px"
	 width="64px" height="64px" viewBox="0 0 64 64" enable-background="new 0 0 64 64" xml:space="preserve">
<rect x="2" y="4" fill="#FDCA47" width="60" height="56"/>
<polygon fill="#AB5C10" points="3,59 3,5 61,5 "/>
<polygon fill="#D99025" points="61,59 3,59 61,5 "/>
<rect x="4" y="6" fill="#FDCA47" width="56" height="52"/>
<polygon fill="#AB5C10" points="7,55 7,9 57,9 "/>
<polygon fill="#D99025" points="57,55 7,55 57,9 "/>
<rect x="8" y="10" fill="#FDCA47" width="48" height="44"/>
<polygon fill="#AB5C10" points="9,53 9,11 55,11 "/>
<polygon fill="#D99025" points="55,53 9,53 55,11 "/>
<rect x="54.286" y="33.429" fill="#FFD459" width="0" height="0"/>
<rect x="10" y="12.013" fill="#A0D8E9" width="44" height="29.1"/>
<path fill="#FFFFFF" d="M10,45.016V28.571c2.318-3.889,4.589-0.303,4.589-0.303c3.573-3.354,7.011,0.745,7.011,0.745
	c3.248-1.49,5.431,1.083,5.431,1.083c1.719-3.635,6.893-4.951,9.832-3.208c1.237-3.909,6.531-5.069,9.006-2.285
	c0.963-4.177,5.81-5.984,8.132-5.804v26.216H10z"/>
<path fill="#CAE8F0" d="M12.945,44.399c1.758-2.898,5.522-5.4,6.256-4.417c1.695,2.267,4.222,0.191,4.735-3.025
	c0.164-1.035,4.273,5.922,5.941-4.069c0.24-1.444,5.94,7.554,8.532-2.709c0.32-1.27,1.026,3.979,3.913-3.979
	c0.345-0.95,4.919,12.371,8.531,8.55c0.449-0.474,0.526,0.621,3.146,3.979L12.945,44.399z"/>
<path fill="#A0D8E9" d="M10,45.263c8.214-2.852,10.222-5.188,11.265-4.767c4.129,1.67,7.468-2.992,11.489-1.406
	c4.216,1.663,7.03-6.313,10.313-3.532c2.361,2,7.081,3.445,10.934,1.269v4.441L10,45.263z"/>
<path fill="#A3C86B" d="M54,40.6c-9.659,0-34.74,1.439-44,3.8L54,52V40.6z"/>
<path fill="#CAE8F0" d="M54,44.998c-10.661-1.949-34.74-1.094-44,1.268C10,46.266,26.049,53.342,54,44.998z"/>
<path fill="#92C932" d="M54,44.399c-9.659,0-34.74,5.241-44,7.601h44V44.399z"/>
<path fill="#7AB51D" d="M10,44.399c9.659,0,34.74,5.241,44,7.601H10V44.399z"/>
<path fill="#297124" d="M14.084,48.473c-4.95,0,0-16.723,0-16.723S19.034,48.473,14.084,48.473z"/>
<path fill="#529320" d="M18.037,45.859c-2.63,0,0-8.883,0-8.883S20.667,45.859,18.037,45.859z"/>
<path fill="#529320" d="M21.784,46.601c-1.856,0,0-6.271,0-6.271S23.641,46.601,21.784,46.601z"/>
<path fill="#529320" d="M50.556,48.188c-2.526,0,0-8.536,0-8.536S53.083,48.188,50.556,48.188z"/>
<path fill="#529320" d="M46.844,46.039c-1.444,0,0-4.878,0-4.878S48.287,46.039,46.844,46.039z"/>
<polygon opacity="0.3" fill="#1A1626" points="10,12 10,52 11,52 11,13 54,13 54,12 "/>
</svg>
