<?xml version="1.0" encoding="utf-8"?>
<!-- Generator: Adobe Illustrator 15.0.0, SVG Export Plug-In . SVG Version: 6.00 Build 0)  -->
<!DOCTYPE svg PUBLIC "-//W3C//DTD SVG 1.1//EN" "http://www.w3.org/Graphics/SVG/1.1/DTD/svg11.dtd">
<svg version="1.1" id="Layer_1" xmlns="http://www.w3.org/2000/svg" xmlns:xlink="http://www.w3.org/1999/xlink" x="0px" y="0px"
	 width="64px" height="64px" viewBox="0 0 64 64" enable-background="new 0 0 64 64" xml:space="preserve">
<path fill="#6E8189" d="M19.063,59h-2.416c0-3.186-2.881-8.242-5.113-11.874C8.137,41.598,2,33.758,2,23.059
	C2,16.758,3.961,11.78,8.843,9.743c3.853-1.607,8.093,0.073,10.798,2.798l-1.71,1.72c-2.011-2.023-5.216-3.5-8.163-2.271
	c-3.949,1.647-5.35,5.786-5.351,11.068c0,10.007,5.768,17.248,9.171,22.786C16.014,49.791,19.063,55.123,19.063,59z"/>
<path fill="#99A8AE" d="M13.184,14.411c-0.759-0.764-0.945-1.813-0.418-2.348l2.626-2.645c0.528-0.531,1.572-0.343,2.33,0.42
	L13.184,14.411z"/>
<path fill="#99A8AE" d="M19.097,42.907C6.024,29.743,8.32,19.917,15.754,12.429c7.436-7.487,17.193-9.798,30.265,3.366
	c16.454,16.57,18.386,30.654,10.951,38.142S35.55,59.477,19.097,42.907z"/>
<path fill="#CFD8DD" d="M28.131,24.893c-5.069,5.105-9.105,10.66-11.568,16.688c0.697,0.798,1.453,1.609,2.27,2.432
	c16.524,16.642,30.85,18.315,38.661,10.449c7.811-7.865,6.147-22.291-10.377-38.933c-0.816-0.822-1.622-1.584-2.417-2.285
	C38.716,15.723,33.201,19.788,28.131,24.893z"/>
<path fill="#CFD8DD" d="M43.991,12.502c-9.372-8.525-16.975-8.957-23.206-5.4l11.844,11.928
	C36.175,16.182,39.952,13.925,43.991,12.502z"/>
<path fill="#CFD8DD" d="M11.137,16.817l11.845,11.927c1.297-1.639,2.705-3.232,4.235-4.772c1.529-1.539,3.111-2.959,4.74-4.265
	L20.112,7.779c-1.793,1.023-3.471,2.373-5.045,3.958C13.494,13.322,12.153,15.012,11.137,16.817z"/>
<path fill="#CFD8DD" d="M15.828,40.865c1.413-4.068,3.654-7.871,6.481-11.443L10.465,17.495C6.933,23.77,7.362,31.428,15.828,40.865
	z"/>
<path fill="#BEC3CF" d="M17.481,39.518c-0.324,0.682-0.635,1.367-0.918,2.063c0.697,0.798,1.453,1.609,2.27,2.432
	c8.3,8.358,16.044,12.939,22.687,14.433C34.906,55.683,26.792,49.188,17.481,39.518z"/>
<path fill="#BEC3CF" d="M44.699,13.243c-0.818,0.34-1.629,0.715-2.431,1.113c18.858,17.937,20.869,32.587,14.324,40.938
	c0.308-0.265,0.61-0.54,0.9-0.833c7.811-7.865,6.147-22.291-10.377-38.933C46.3,14.707,45.494,13.944,44.699,13.243z"/>
<path fill="#BEC3CF" d="M41.379,13.561c0.859-0.389,1.729-0.747,2.612-1.058c-6.636-6.036-12.379-8.001-17.383-7.38
	C30.944,5.98,35.99,8.767,41.379,13.561z"/>
<path fill="#BEC3CF" d="M9.154,20.466c-1.891,5.684-0.502,12.4,6.674,20.399c0.261-0.748,0.558-1.485,0.872-2.217
	C10.514,31.637,8.488,25.438,9.154,20.466z"/>
<path opacity="0.5" fill-rule="evenodd" clip-rule="evenodd" fill="#E6EBEF" d="M52.012,33.318
	c-8.232,0.549-2.469,7.192,0.033,11.082C59.574,56.104,58.603,32.877,52.012,33.318z"/>
</svg>
