<?xml version="1.0" encoding="utf-8"?>
<!-- Generator: Adobe Illustrator 15.0.0, SVG Export Plug-In . SVG Version: 6.00 Build 0)  -->
<!DOCTYPE svg PUBLIC "-//W3C//DTD SVG 1.1//EN" "http://www.w3.org/Graphics/SVG/1.1/DTD/svg11.dtd">
<svg version="1.1" id="Layer_1" xmlns="http://www.w3.org/2000/svg" xmlns:xlink="http://www.w3.org/1999/xlink" x="0px" y="0px"
	 width="64px" height="64px" viewBox="0 0 64 64" enable-background="new 0 0 64 64" xml:space="preserve">
<path fill="#302C3B" d="M47,29.908C46.999,46.367,38.77,61.999,32.002,62c-6.771-0.002-15-15.632-15.002-32.093
	c0-17.922,6.719-27.152,15-27.154C40.283,2.754,47,11.984,47,29.908z"/>
<ellipse fill="#1A1626" cx="22.793" cy="30.734" rx="3.68" ry="8.326"/>
<path fill="#4E5E67" d="M24.425,25.344c-0.636-1.521-1.532-2.479-2.53-2.479c-1.922-0.001-3.479,3.522-3.479,7.869
	c0,4.346,1.559,7.87,3.479,7.869c0.998,0,1.895-0.956,2.53-2.479c-0.589-1.41-0.949-3.303-0.952-5.391
	C23.477,28.647,23.837,26.751,24.425,25.344z"/>
<path fill="#6E8189" d="M24.991,25.91c-0.526,1.26-0.851,2.955-0.851,4.824c0.001,1.869,0.324,3.564,0.85,4.824
	c0.525-1.261,0.849-2.955,0.85-4.824C25.84,28.865,25.517,27.171,24.991,25.91z"/>
<ellipse fill="#1A1626" cx="41.208" cy="30.735" rx="3.68" ry="8.326"/>
<path fill="#4E5E67" d="M39.576,36.125c0.635,1.523,1.533,2.48,2.53,2.479c1.921-0.001,3.478-3.524,3.478-7.87
	s-1.558-7.869-3.479-7.869c-0.998,0-1.895,0.956-2.528,2.479c0.586,1.409,0.95,3.304,0.948,5.39
	C40.526,32.822,40.164,34.717,39.576,36.125z"/>
<path fill="#6E8189" d="M39.008,35.559c0.527-1.26,0.85-2.957,0.852-4.823c-0.001-1.871-0.326-3.565-0.85-4.825
	c-0.525,1.261-0.848,2.956-0.85,4.824C38.16,32.604,38.484,34.299,39.008,35.559z"/>
<ellipse fill="#1A1626" cx="32" cy="14.64" rx="10.311" ry="9.97"/>
<path fill="#E81C27" d="M32.002,22.898c-4.719-0.002-8.541-3.698-8.542-8.259c0.001-4.559,3.822-8.257,8.54-8.256
	c4.715,0,8.539,3.696,8.537,8.256C40.539,19.2,36.716,22.896,32.002,22.898z"/>
<path fill="#F46C60" d="M31.725,7.401c-2.414,0-4.57,1.069-5.992,2.743c1.338-1.064,3.052-1.703,4.92-1.703
	c4.285-0.001,7.759,3.358,7.759,7.501c-0.002,1.807-0.663,3.466-1.764,4.762c1.73-1.377,2.836-3.462,2.837-5.799
	C39.484,10.761,36.011,7.401,31.725,7.401z"/>
<path fill="#B00505" d="M37.264,21.133c-0.814,0.178-1.656,0.283-2.525,0.283c-5.438,0-9.976-3.723-11.041-8.679
	c-0.15,0.612-0.236,1.246-0.237,1.902c0.001,4.561,3.823,8.256,8.542,8.259C33.989,22.896,35.813,22.232,37.264,21.133z"/>
<path fill="#302C3B" d="M35.686,3.485c0.002,0.884-7.374,0.884-7.374,0C28.313,1.505,35.688,1.504,35.686,3.485z"/>
</svg>
