<?xml version="1.0" encoding="utf-8"?>
<!-- Generator: Adobe Illustrator 15.0.0, SVG Export Plug-In . SVG Version: 6.00 Build 0)  -->
<!DOCTYPE svg PUBLIC "-//W3C//DTD SVG 1.1//EN" "http://www.w3.org/Graphics/SVG/1.1/DTD/svg11.dtd">
<svg version="1.1" id="Layer_1" xmlns="http://www.w3.org/2000/svg" xmlns:xlink="http://www.w3.org/1999/xlink" x="0px" y="0px"
	 width="64px" height="64px" viewBox="0 0 64 64" enable-background="new 0 0 64 64" xml:space="preserve">
<path fill="#6E8189" d="M52,58c0,1.1-0.9,2-2,2H14c-1.1,0-2-0.9-2-2V4c0-1.1,0.9-2,2-2h36c1.1,0,2,0.9,2,2V58z"/>
<rect x="14" y="60" fill="#302C3B" width="10" height="2"/>
<rect x="40" y="60" fill="#302C3B" width="10" height="2"/>
<path fill="#BEC3CF" d="M50,54H14c0,0,0-15,0-20c0-1.1,0.9-2,2-2h32c1.1,0,2,0.9,2,2V54z"/>
<path fill="#99A8AE" d="M50,56c0,1.098-0.9,2-2,2H16c-1.1,0-2-0.902-2-2V36c0-1.102,0.9-2,2-2h32c1.1,0,2,0.898,2,2V56z"/>
<rect x="22" y="52" fill="#CFD8DD" width="20" height="2"/>
<path fill="#4E5E67" d="M39,44.5c0,1.375-1.125,2.5-2.5,2.5h-9c-1.375,0-2.5-1.125-2.5-2.5v-5c0-1.375,1.125-2.5,2.5-2.5h9
	c1.375,0,2.5,1.125,2.5,2.5V44.5z"/>
<path fill="#CFD8DD" d="M38,44H26v-4c0-1.1,0.9-2,2-2h8c1.1,0,2,0.9,2,2V44z"/>
<path fill="#E6EBEF" d="M38,44c0,1.1-0.9,2-2,2h-8c-1.1,0-2-0.9-2-2v-2c0-1.1,0.9-2,2-2h8c1.1,0,2,0.9,2,2V44z"/>
<path fill="#BEC3CF" d="M50,26H14c0,0,0-15,0-20c0-1.1,0.9-2,2-2h32c1.1,0,2,0.9,2,2V26z"/>
<path fill="#99A8AE" d="M50,28c0,1.098-0.9,2-2,2H16c-1.1,0-2-0.902-2-2V8c0-1.102,0.9-2,2-2h32c1.1,0,2,0.898,2,2V28z"/>
<rect x="22" y="24" fill="#CFD8DD" width="20" height="2"/>
<path fill="#4E5E67" d="M39,16.5c0,1.375-1.125,2.5-2.5,2.5h-9c-1.375,0-2.5-1.125-2.5-2.5v-5c0-1.375,1.125-2.5,2.5-2.5h9
	c1.375,0,2.5,1.125,2.5,2.5V16.5z"/>
<path fill="#CFD8DD" d="M38,16H26v-4c0-1.1,0.9-2,2-2h8c1.1,0,2,0.9,2,2V16z"/>
<path fill="#E6EBEF" d="M38,16c0,1.1-0.9,2-2,2h-8c-1.1,0-2-0.9-2-2v-2c0-1.1,0.9-2,2-2h8c1.1,0,2,0.9,2,2V16z"/>
</svg>
