<?xml version="1.0" encoding="utf-8"?>
<!-- Generator: Adobe Illustrator 15.0.0, SVG Export Plug-In . SVG Version: 6.00 Build 0)  -->
<!DOCTYPE svg PUBLIC "-//W3C//DTD SVG 1.1//EN" "http://www.w3.org/Graphics/SVG/1.1/DTD/svg11.dtd">
<svg version="1.1" id="Layer_1" xmlns="http://www.w3.org/2000/svg" xmlns:xlink="http://www.w3.org/1999/xlink" x="0px" y="0px"
	 width="64px" height="64px" viewBox="0 0 64 64" enable-background="new 0 0 64 64" xml:space="preserve">
<rect x="10" y="12" fill="#F59E01" width="52" height="38"/>
<rect x="8" y="15" fill="#D47706" width="52" height="35"/>
<rect x="6" y="16" fill="#F9B700" width="52" height="38"/>
<rect x="4" y="19" fill="#EA8800" width="52" height="35"/>
<rect x="2" y="20" fill="#F9C802" width="52" height="38"/>
<path fill="#E81C27" d="M18,20H2v-4c0-1.1,0.9-2,2-2h12c1.1,0,2,0.9,2,2V20z"/>
<path fill="#7AB51D" d="M40,16H24v-4c0-1.1,0.9-2,2-2h12c1.1,0,2,0.9,2,2V16z"/>
<path fill="#006DAE" d="M62,12H46V8c0-1.1,0.9-2,2-2h12c1.1,0,2,0.9,2,2V12z"/>
<polygon fill="#EA8800" points="18,20 19,20 18,16 "/>
<polygon fill="#D47706" points="40,16 41,16 40,12 "/>
</svg>
