<?xml version="1.0" encoding="utf-8"?>
<!-- Generator: Adobe Illustrator 15.0.0, SVG Export Plug-In . SVG Version: 6.00 Build 0)  -->
<!DOCTYPE svg PUBLIC "-//W3C//DTD SVG 1.1//EN" "http://www.w3.org/Graphics/SVG/1.1/DTD/svg11.dtd">
<svg version="1.1" id="Layer_1" xmlns="http://www.w3.org/2000/svg" xmlns:xlink="http://www.w3.org/1999/xlink" x="0px" y="0px"
	 width="64px" height="64px" viewBox="0 0 64 64" enable-background="new 0 0 64 64" xml:space="preserve">
<polygon fill="#785647" points="60.718,28 11.601,27.819 4.228,13.078 51.348,13.078 "/>
<polygon fill="#9E6C49" points="14.663,30.901 13.059,30.901 2,12 3.538,12 "/>
<rect x="16" y="22" fill="#F59E01" width="42" height="20"/>
<rect x="14" y="25" fill="#D47706" width="42" height="17"/>
<rect x="12" y="26" fill="#F9B700" width="42" height="16"/>
<rect x="10" y="29" fill="#EA8800" width="42" height="13"/>
<rect x="8" y="30" fill="#F9C802" width="42" height="12"/>
<path fill="#E81C27" d="M22,30H8v-4c0-1.1,0.9-2,2-2h10c1.1,0,2,0.9,2,2V30z"/>
<path fill="#7AB51D" d="M40,26H26v-4c0-1.1,0.9-2,2-2h10c1.1,0,2,0.9,2,2V26z"/>
<path fill="#006DAE" d="M58,22H44v-4c0-1.1,0.9-2,2-2h10c1.1,0,2,0.9,2,2V22z"/>
<polygon fill="#EA8800" points="22,30 23,30 22,26 "/>
<polygon fill="#D47706" points="40,26 41,26 40,22 "/>
<rect x="2" y="36" fill="#C4926E" width="50" height="26"/>
<polygon fill="#785647" points="62,50 52,62 52,36 62,28 "/>
<polygon fill="#9E6C49" points="58,28 58,29.6 51.348,34.922 8,34.922 8,33.996 2,36 52,36 62,28 "/>
<rect x="2" y="2" fill="#C4926E" width="50" height="10"/>
<polygon fill="#785647" points="62,24 52,2 52,12 62,32 "/>
<polygon fill="#9E6C49" points="61,32 51.348,13.078 4.228,13.078 2,12 52,12 62,32 "/>
<path fill="#99A8AE" d="M37,52.5c0,1.104-0.896,2-2,2H19c-1.104,0-2-0.896-2-2v-6c0-1.104,0.896-2,2-2h16c1.104,0,2,0.896,2,2V52.5z
	"/>
<rect x="19" y="46.5" fill="#FFFFFF" width="16" height="6"/>
<rect x="19" y="46.5" fill="#CFD8DD" width="16" height="2"/>
</svg>
