<?xml version="1.0" encoding="utf-8"?>
<!-- Generator: Adobe Illustrator 15.0.0, SVG Export Plug-In . SVG Version: 6.00 Build 0)  -->
<!DOCTYPE svg PUBLIC "-//W3C//DTD SVG 1.1//EN" "http://www.w3.org/Graphics/SVG/1.1/DTD/svg11.dtd">
<svg version="1.1" id="Layer_1" xmlns="http://www.w3.org/2000/svg" xmlns:xlink="http://www.w3.org/1999/xlink" x="0px" y="0px"
	 width="64px" height="64px" viewBox="0 0 64 64" enable-background="new 0 0 64 64" xml:space="preserve">
<polygon fill="#4E5E67" points="13.323,56.285 11.559,54.541 15.737,50.414 13.597,48.301 17.696,44.25 19.837,46.365 
	24.016,42.238 25.78,43.982 24.691,45.059 26.272,46.621 27.364,45.545 28.323,46.494 31.646,49.773 28.637,52.748 25.314,49.467 
	23.212,51.543 26.378,54.67 24.146,56.873 20.979,53.746 18.877,55.822 22.121,59.027 19.11,62 15.867,58.797 15.79,58.719 
	14.905,57.848 15.996,56.771 14.414,55.207 "/>
<path fill="#302C3B" d="M55.211,13.855c1.809-1.025,3.026-2.949,3.026-5.156c0-3.285-2.695-5.945-6.02-5.945
	c-2.236,0-4.185,1.203-5.224,2.987C45.707,3.508,43.275,2,40.485,2c-4.137,0-7.487,3.311-7.487,7.395s3.351,7.395,7.488,7.395
	c0.354,0,0.65-0.076,0.992-0.122l-1.052,1.052l-2.226,0.08l-0.068,2.214l-0.646,0.646l-0.149-0.149
	c-1.229-1.209-3.212,0.751-1.985,1.961l0.162,0.161L7.899,50.246l0.382,0.383l-0.742,0.73c-0.78-0.365-1.614-0.328-2.12,0.17
	c-0.7,0.693-0.504,2.014,0.441,2.947c0.947,0.936,2.284,1.129,2.984,0.436c0.508-0.498,0.544-1.322,0.175-2.092l0.731-0.723
	l0.702,0.702l27.631-27.631l0.188,0.185c1.225,1.211,3.211-0.75,1.986-1.961l-0.201-0.197l0.646-0.646l2.298-0.008l-0.005-2.285
	l1.053-1.052c-0.049,0.336-0.024,0.73-0.023,1.082c0,4.084,3.353,7.395,7.488,7.393C55.648,27.68,59,24.369,59,20.285
	C58.999,17.529,57.474,15.127,55.211,13.855z M51.521,25.212c-2.761,0-4.994-2.236-4.994-4.994c-0.001-1.07,0.341-2.057,0.915-2.869
	l-1.249-1.243l0.515-0.508c0.78,0.365,1.613,0.329,2.119-0.169c0.701-0.693,0.507-2.014-0.441-2.949
	c-0.945-0.934-2.28-1.129-2.984-0.436c-0.506,0.5-0.543,1.322-0.171,2.094l-0.517,0.508l-1.25-1.245
	c-0.832,0.62-1.853,0.999-2.97,0.999c-2.759,0-4.995-2.236-4.995-4.994c0.001-2.758,2.236-4.994,4.994-4.994
	c2.757,0,4.988,2.23,4.995,4.982h3.09c-0.036-0.207-0.063-0.417-0.063-0.634c0.001-2.053,1.663-3.715,3.714-3.715
	s3.715,1.662,3.715,3.714c0,2.051-1.665,3.713-3.716,3.713c-0.243,0-0.483-0.028-0.714-0.072l-0.001,2.824c0.003,0,0.004,0,0.009,0
	c2.759,0,4.994,2.236,4.993,4.994C56.515,22.977,54.281,25.213,51.521,25.212z"/>
<path fill="#4E5E67" d="M42.802,17.103c0.519-0.521-0.08-1.122-0.597-0.596L9.109,49.602c-0.517,0.524,0.08,1.121,0.597,0.597
	L42.802,17.103z"/>
<path fill="#4E5E67" d="M37.727,21.192c0.437,0.436-1.016,1.887-1.451,1.451C35.177,21.545,36.628,20.093,37.727,21.192z"/>
<path fill="#4E5E67" d="M7.256,51.952c0.436,0.437-1.016,1.888-1.451,1.452C4.706,52.305,6.157,50.854,7.256,51.952z"/>
<path fill="#4E5E67" d="M47.3,12.506c0.436,0.436-1.017,1.887-1.452,1.451C44.749,12.858,46.2,11.407,47.3,12.506z"/>
<polygon fill="#4E5E67" points="39.052,19.969 38.958,18.313 40.894,18.127 "/>
</svg>
