<?xml version="1.0" encoding="utf-8"?>
<!-- Generator: Adobe Illustrator 15.0.0, SVG Export Plug-In . SVG Version: 6.00 Build 0)  -->
<!DOCTYPE svg PUBLIC "-//W3C//DTD SVG 1.1//EN" "http://www.w3.org/Graphics/SVG/1.1/DTD/svg11.dtd">
<svg version="1.1" id="Layer_1" xmlns="http://www.w3.org/2000/svg" xmlns:xlink="http://www.w3.org/1999/xlink" x="0px" y="0px"
	 width="64px" height="64px" viewBox="0 0 64 64" enable-background="new 0 0 64 64" xml:space="preserve">
<path fill="#6E8189" d="M60,57.941C60,60.016,58.133,62,56,62h-4V10h4c2.133,0,4,1.865,4,3.941V57.941z"/>
<path fill="#E6EBEF" d="M52,10H8c-2.133,0-4,1.929-4,4v44c0,2.07,1.867,4,4,4h44c2.133,0,4-1.93,4-4V14C56,11.929,54.133,10,52,10z"
	/>
<path fill="#302C3B" d="M49,16.501c0,3.331-5,3.331-5,0C44,13.166,49,13.166,49,16.501z"/>
<path fill="#302C3B" d="M37,16.501c0,3.331-5,3.331-5,0C32,13.166,37,13.166,37,16.501z"/>
<path fill="#302C3B" d="M25,16.501c0,3.331-5,3.331-5,0C20,13.166,25,13.166,25,16.501z"/>
<path fill="#302C3B" d="M13,16.501c0,3.331-5,3.331-5,0C8,13.166,13,13.166,13,16.501z"/>
<path fill="#6E8189" d="M51.984,10.009c0-10.724-10-10.655-10,0.068c0,4.825,2.129,8.053,4.793,7.919
	c2.252-0.116,2.023-3.344,0.365-3.611c-1.402-0.224-2.287-1.654-2.287-4.308c0-7.607,5.129-6.172,5.129-0.068H51.984z"/>
<path fill="#6E8189" d="M40,10.009c0-10.724-10-10.655-10,0.068c0,4.825,2.129,8.053,4.793,7.919
	c2.252-0.116,2.023-3.344,0.365-3.611c-1.402-0.224-2.287-1.654-2.287-4.308C32.871,2.47,38,3.905,38,10.009H40z"/>
<path fill="#6E8189" d="M28,10.009c0-10.724-10-10.655-10,0.068c0,4.825,2.129,8.053,4.793,7.919
	c2.252-0.116,2.023-3.344,0.365-3.611c-1.402-0.224-2.287-1.654-2.287-4.308C20.871,2.47,26,3.905,26,10.009H28z"/>
<path fill="#6E8189" d="M16,10.009C16-0.715,6-0.646,6,10.077c0,4.825,2.129,8.053,4.793,7.919c2.252-0.116,2.023-3.344,0.365-3.611
	c-1.402-0.224-2.287-1.654-2.287-4.308C8.871,2.47,14,3.905,14,10.009H16z"/>
<rect x="8" y="24" fill="#6E8189" width="44" height="2"/>
<rect x="8" y="30" fill="#6E8189" width="44" height="2"/>
<rect x="8" y="36" fill="#6E8189" width="44" height="2"/>
<rect x="8" y="42" fill="#6E8189" width="44" height="2"/>
<rect x="8" y="48" fill="#6E8189" width="24" height="2"/>
<path fill="#6E8189" d="M32,62c22-7,24-27,24-27C62,62,32,62,32,62z"/>
<path fill="#CFD8DD" d="M56,35c0,13-11,27-24,27c0,0,6-3,6-14C53,48,56,35,56,35z"/>
</svg>
