<?xml version="1.0" encoding="utf-8"?>
<!-- Generator: Adobe Illustrator 15.0.0, SVG Export Plug-In . SVG Version: 6.00 Build 0)  -->
<!DOCTYPE svg PUBLIC "-//W3C//DTD SVG 1.1//EN" "http://www.w3.org/Graphics/SVG/1.1/DTD/svg11.dtd">
<svg version="1.1" id="Layer_1" xmlns="http://www.w3.org/2000/svg" xmlns:xlink="http://www.w3.org/1999/xlink" x="0px" y="0px"
	 width="64px" height="64px" viewBox="0 0 64 64" enable-background="new 0 0 64 64" xml:space="preserve">
<rect x="8" y="56" fill="#302C3B" width="20" height="2"/>
<rect x="14" y="44" fill="#302C3B" width="8" height="2"/>
<path fill="#6E8189" d="M11.973,10c3.191,0,9.988,0,9.988,0l7.987-8c0,0,23.964,0,24.1,0c2.621,0,2.617,6-0.096,6
	c-2.95,0-22.006,0-22.006,0l-7.989,8c0,0-10.949,0-11.984,0C9.344,16,9.344,10,11.973,10z"/>
<path fill="#6E8189" d="M11.973,44c3.191,0,9.988,0,9.988,0l7.987,8c0,0,23.964,0,24.1,0c2.621,0,2.617-6-0.096-6
	c-2.95,0-22.006,0-22.006,0l-7.989-8c0,0-10.949,0-11.984,0C9.344,38,9.344,44,11.973,44z"/>
<rect x="12" y="16" fill="#CFD8DD" width="12" height="22"/>
<polygon fill="#302C3B" points="12,18 24,20 24,18 12,16 "/>
<polygon fill="#302C3B" points="12,22 24,24 24,22 12,20 "/>
<polygon fill="#302C3B" points="12,26 24,28 24,26 12,24 "/>
<polygon fill="#302C3B" points="12,30 24,32 24,30 12,28 "/>
<polygon fill="#302C3B" points="12,34 24,36 24,34 12,32 "/>
<polygon fill="#302C3B" points="12,38 24,38 12,36 "/>
<path fill="#6E8189" d="M12,60c0,1.1,0.9,2,2,2h8c1.1,0,2-0.9,2-2v-6c0-1.1-0.9-2-2-2h-8c-1.1,0-2,0.9-2,2V60z"/>
<rect x="14" y="52" fill="#CFD8DD" width="2" height="10"/>
<rect x="18" y="52" fill="#CFD8DD" width="4" height="10"/>
<path fill="#6E8189" d="M4,57c0,4,6,4,6,0S4,53,4,57z"/>
<path fill="#6E8189" d="M26,57c0,4,6,4,6,0S26,53,26,57z"/>
<rect x="14" y="46" fill="#6E8189" width="8" height="6"/>
<rect x="40" y="12" fill="#CFD8DD" width="20" height="2"/>
<rect x="40" y="40" fill="#CFD8DD" width="20" height="2"/>
<polygon fill="#6E8189" points="46,46 54,46 60,42 40,42 "/>
<polygon fill="#6E8189" points="54,8 46,8 40,12 60,12 "/>
</svg>
