<?xml version="1.0" encoding="utf-8"?>
<!-- Generator: Adobe Illustrator 15.0.0, SVG Export Plug-In . SVG Version: 6.00 Build 0)  -->
<!DOCTYPE svg PUBLIC "-//W3C//DTD SVG 1.1//EN" "http://www.w3.org/Graphics/SVG/1.1/DTD/svg11.dtd">
<svg version="1.1" id="Layer_1" xmlns="http://www.w3.org/2000/svg" xmlns:xlink="http://www.w3.org/1999/xlink" x="0px" y="0px"
	 width="64px" height="64px" viewBox="0 0 64 64" enable-background="new 0 0 64 64" xml:space="preserve">
<path fill="#6E8189" d="M62,57c0,1.652-0.492,2-2,2h-2V10h2c1.508,0,2,0.35,2,2V57z"/>
<path fill="#E81C27" d="M60,12c0-1.65-0.494-2-2-2H4c-1.506,0-2,0.35-2,2v16h58V12z"/>
<path fill="#E6EBEF" d="M2,28v29c0,1.652,0.494,2,2,2h54c1.506,0,1.961-0.348,1.961-2V28H2z"/>
<rect x="4" y="32" fill="#6E8189" width="6" height="2"/>
<rect x="12" y="32" fill="#6E8189" width="6" height="2"/>
<rect x="20" y="32" fill="#6E8189" width="6" height="2"/>
<rect x="28" y="32" fill="#6E8189" width="6" height="2"/>
<rect x="36" y="32" fill="#6E8189" width="6" height="2"/>
<rect x="44" y="32" fill="#6E8189" width="6" height="2"/>
<rect x="52" y="32" fill="#6E8189" width="6" height="2"/>
<rect x="4" y="40" fill="#6E8189" width="6" height="2"/>
<rect x="12" y="40" fill="#6E8189" width="6" height="2"/>
<rect x="20" y="40" fill="#6E8189" width="6" height="2"/>
<rect x="28" y="40" fill="#6E8189" width="6" height="2"/>
<rect x="36" y="40" fill="#6E8189" width="6" height="2"/>
<rect x="44" y="40" fill="#6E8189" width="6" height="2"/>
<rect x="52" y="40" fill="#6E8189" width="6" height="2"/>
<rect x="4" y="44" fill="#6E8189" width="6" height="2"/>
<rect x="12" y="44" fill="#6E8189" width="6" height="2"/>
<rect x="20" y="44" fill="#6E8189" width="6" height="2"/>
<rect x="28" y="44" fill="#6E8189" width="6" height="2"/>
<rect x="36" y="44" fill="#6E8189" width="6" height="2"/>
<rect x="44" y="44" fill="#6E8189" width="6" height="2"/>
<rect x="52" y="44" fill="#6E8189" width="6" height="2"/>
<rect x="4" y="48" fill="#6E8189" width="6" height="2"/>
<rect x="12" y="48" fill="#6E8189" width="6" height="2"/>
<rect x="20" y="48" fill="#6E8189" width="6" height="2"/>
<rect x="28" y="48" fill="#6E8189" width="6" height="2"/>
<rect x="36" y="48" fill="#6E8189" width="6" height="2"/>
<rect x="44" y="48" fill="#6E8189" width="6" height="2"/>
<rect x="52" y="48" fill="#6E8189" width="6" height="2"/>
<rect x="4" y="52" fill="#6E8189" width="6" height="2"/>
<rect x="12" y="52" fill="#6E8189" width="6" height="2"/>
<rect x="20" y="52" fill="#6E8189" width="6" height="2"/>
<rect x="28" y="52" fill="#6E8189" width="6" height="2"/>
<rect x="36" y="52" fill="#6E8189" width="6" height="2"/>
<rect x="44" y="52" fill="#6E8189" width="6" height="2"/>
<rect x="28" y="36" fill="#6E8189" width="6" height="2"/>
<rect x="36" y="36" fill="#6E8189" width="6" height="2"/>
<rect x="44" y="36" fill="#6E8189" width="6" height="2"/>
<rect x="52" y="36" fill="#6E8189" width="6" height="2"/>
<path fill="#302C3B" d="M11.586,15.237c0,2.351-3.586,2.351-3.586,0C8,12.882,11.586,12.882,11.586,15.237z"/>
<path fill="#6E8189" d="M6,10.691c0,3.404,1.713,5.684,3.855,5.588c1.814-0.081,1.628-2.36,0.295-2.549
	c-1.128-0.157-1.84-1.167-1.84-3.039c0-5.085,3.691-4.442,4.085-0.703H14C13.535,3.104,6,3.353,6,10.691z"/>
<path fill="#302C3B" d="M22.586,15.237c0,2.351-3.586,2.351-3.586,0C19,12.882,22.586,12.882,22.586,15.237z"/>
<path fill="#6E8189" d="M17,10.691c0,3.404,1.713,5.684,3.855,5.588c1.814-0.081,1.628-2.36,0.295-2.549
	c-1.128-0.157-1.84-1.167-1.84-3.039c0-5.085,3.691-4.442,4.085-0.703H25C24.535,3.104,17,3.353,17,10.691z"/>
<path fill="#302C3B" d="M33.586,15.237c0,2.351-3.586,2.351-3.586,0C30,12.882,33.586,12.882,33.586,15.237z"/>
<path fill="#6E8189" d="M28,10.691c0,3.404,1.713,5.684,3.855,5.588c1.814-0.081,1.628-2.36,0.295-2.549
	c-1.128-0.157-1.84-1.167-1.84-3.039c0-5.085,3.691-4.442,4.085-0.703H36C35.535,3.104,28,3.353,28,10.691z"/>
<path fill="#302C3B" d="M44.586,15.237c0,2.351-3.586,2.351-3.586,0C41,12.882,44.586,12.882,44.586,15.237z"/>
<path fill="#6E8189" d="M39,10.691c0,3.404,1.713,5.684,3.855,5.588c1.814-0.081,1.628-2.36,0.295-2.549
	c-1.128-0.157-1.84-1.167-1.84-3.039c0-5.085,3.691-4.442,4.085-0.703H47C46.535,3.104,39,3.353,39,10.691z"/>
<path fill="#302C3B" d="M55.586,15.237c0,2.351-3.586,2.351-3.586,0C52,12.882,55.586,12.882,55.586,15.237z"/>
<path fill="#6E8189" d="M50,10.691c0,3.404,1.713,5.684,3.855,5.588c1.814-0.081,1.628-2.36,0.295-2.549
	c-1.128-0.157-1.84-1.167-1.84-3.039c0-5.085,3.691-4.442,4.085-0.703H58C57.535,3.104,50,3.353,50,10.691z"/>
</svg>
