<?xml version="1.0" encoding="utf-8"?>
<!-- Generator: Adobe Illustrator 15.0.0, SVG Export Plug-In . SVG Version: 6.00 Build 0)  -->
<!DOCTYPE svg PUBLIC "-//W3C//DTD SVG 1.1//EN" "http://www.w3.org/Graphics/SVG/1.1/DTD/svg11.dtd">
<svg version="1.1" id="Layer_1" xmlns="http://www.w3.org/2000/svg" xmlns:xlink="http://www.w3.org/1999/xlink" x="0px" y="0px"
	 width="64px" height="64px" viewBox="0 0 64 64" enable-background="new 0 0 64 64" xml:space="preserve">
<path fill="#4E5E67" d="M48,52.344c0,3.123-32,3.123-32,0C16,47.547,48,47.547,48,52.344z"/>
<path fill="#99A8AE" d="M8,13l8,44c0,2.762,32,2.762,32,0l8-44H8z M17.098,46.201l0.053-0.061l2.475,2.83l-1.668,1.908
	L17.098,46.201z M36.949,40.486l-2.475-2.828l2.475-2.83l2.475,2.828L36.949,40.486z M41.898,40.484l2.473,2.828l-2.473,2.83
	l-2.475-2.828L41.898,40.484z M36.949,46.143l2.475,2.828l-2.475,2.828l-2.475-2.828L36.949,46.143z M32,46.143l-2.475-2.828
	L32,40.486l2.475,2.828L32,46.143z M32,34.828L29.524,32L32,29.172L34.475,32L32,34.828z M29.525,48.971l-2.475,2.828l-2.475-2.828
	l2.475-2.828L29.525,48.971z M27.05,40.486l-2.476-2.83l2.476-2.828l2.475,2.828L27.05,40.486z M22.101,34.828L19.625,32
	l2.476-2.828L24.575,32L22.101,34.828z M22.101,40.484l2.475,2.83l-2.474,2.828l-2.477-2.83L22.101,40.484z M46.043,50.879
	l-1.67-1.908l2.477-2.828l0.052,0.061L46.043,50.879z M41.9,34.828L39.424,32l2.477-2.828L44.373,32L41.9,34.828z M41.898,17.857
	l2.473,2.829l-2.473,2.828l-2.475-2.829L41.898,17.857z M39.424,26.343l-2.475,2.829l-2.475-2.829l2.475-2.829L39.424,26.343z
	 M32,17.857l2.475,2.828L32,23.515l-2.476-2.828L32,17.857z M29.525,26.344l-2.476,2.828l-2.475-2.829l2.475-2.828L29.525,26.344z
	 M22.102,17.858l2.474,2.828l-2.474,2.828l-2.477-2.828L22.102,17.858z M11.945,18.149l0.256-0.292l2.475,2.829l-1.871,2.14
	L11.945,18.149z M17.15,23.516l2.475,2.828l-2.475,2.828l-2.475-2.828L17.15,23.516z M15.756,38.891l-0.375-2.039l1.77-2.023
	l2.475,2.828l-2.475,2.828L15.756,38.891z M48.245,38.891l-1.396,1.594l-2.477-2.828l2.477-2.828l1.77,2.023L48.245,38.891z
	 M46.85,29.172l-2.477-2.829l2.477-2.828l2.475,2.829L46.85,29.172z M49.324,20.686l2.473-2.828l0.257,0.293l-0.858,4.675
	L49.324,20.686z"/>
<polygon fill="#4E5E67" points="39.354,54.627 41.805,57.455 44.254,54.627 41.805,51.799 "/>
<polygon fill="#4E5E67" points="32,51.799 29.549,54.627 32,57.455 34.451,54.627 "/>
<polygon fill="#4E5E67" points="22.195,51.799 19.743,54.627 22.196,57.455 24.646,54.627 "/>
<path fill="#CFD8DD" d="M32,58.125c-7.303,0-13.575-1.361-16.398-3.314L16,57c0,2.762,7.163,5,16,5s16-2.238,16-5l0.398-2.189
	C45.575,56.764,39.303,58.125,32,58.125z"/>
<path fill="#CFD8DD" d="M50.131,9.395l2.119-2.449c-0.939-0.535-2.256-1.021-3.834-1.448l-0.875,0.909l-1.223-1.407
	c-2.061-0.426-4.451-0.761-7.068-0.981l-2.07,2.388L34.893,3.77C33.943,3.738,32.984,3.718,32,3.718s-1.943,0.021-2.895,0.052
	L26.82,6.406l-2.069-2.389c-2.618,0.221-5.009,0.555-7.068,0.981l-1.221,1.407l-0.877-0.909c-1.581,0.428-2.896,0.914-3.835,1.449
	l2.121,2.448l-1.645,1.898c3.553,1.768,11.061,2.99,19.773,2.99s16.219-1.224,19.775-2.99L50.131,9.395z M21.642,12.382
	l-2.591-2.987l2.591-2.989l2.589,2.989L21.642,12.382z M32,12.382l-2.59-2.987L32,6.406l2.59,2.988L32,12.382z M42.361,12.382
	L39.77,9.394l2.592-2.988l2.588,2.988L42.361,12.382z"/>
<path fill="#4E5E67" d="M32,2C17.641,2,6,5.583,6,10s11.641,8,26,8s26-3.583,26-8S46.359,2,32,2z M32,14c-11.487,0-20.8-2.24-20.8-5
	S20.513,4,32,4c11.486,0,20.801,2.24,20.801,5S43.486,14,32,14z"/>
<path fill="#99A8AE" d="M54.861,7.769c0-2.668-9.687-4.834-21.633-4.834c-10.285,0-18.876,1.606-21.07,3.756
	c3.336-1.767,10.952-3.003,19.824-3.003c11.945,0,21.632,2.24,21.632,5c0,0.313-0.141,0.62-0.381,0.918
	C54.278,9.038,54.861,8.419,54.861,7.769z"/>
<path fill="#99A8AE" d="M33.143,16.261c-13.867,0-25.108-3.345-25.108-7.469c0-0.885,0.521-1.734,1.472-2.522
	c-1.68,1.037-2.63,2.205-2.63,3.441c0,4.266,11.241,7.726,25.108,7.726c11.576,0,21.316-2.412,24.221-5.69
	C52.356,14.401,43.48,16.261,33.143,16.261z"/>
</svg>
