<?xml version="1.0" encoding="utf-8"?>
<!-- Generator: Adobe Illustrator 15.0.0, SVG Export Plug-In . SVG Version: 6.00 Build 0)  -->
<!DOCTYPE svg PUBLIC "-//W3C//DTD SVG 1.1//EN" "http://www.w3.org/Graphics/SVG/1.1/DTD/svg11.dtd">
<svg version="1.1" id="Layer_1" xmlns="http://www.w3.org/2000/svg" xmlns:xlink="http://www.w3.org/1999/xlink" x="0px" y="0px"
	 width="64px" height="64px" viewBox="0 0 64 64" enable-background="new 0 0 64 64" xml:space="preserve">
<path fill="#99A8AE" d="M39.478,59.127c0.122,8.345,21.986-2.868,22.516-15.964C62.468,31.487,39.404,54.266,39.478,59.127z"/>
<path fill="#6E8189" d="M39.009,58.058c1.638,7.709,19.637-4.453,21.682-12.908C63.588,33.188,38.93,52.923,39.009,58.058z"/>
<path fill="#4E5E67" d="M42.053,57.925C44,65.135,57.073,51.321,59.011,43.31C61.757,31.974,38.97,46.508,42.053,57.925z"/>
<path fill="#302C3B" d="M39.768,52.687c2.189,8.295,18.968-6.26,16.993-11.064C51.858,36.257,39.691,47.823,39.768,52.687z"/>
<path fill="#6E8189" d="M45.838,48.723c2.983,1.036,6.096,3.149,6.096,3.149s3.418-10.296,7.308-10.947
	C59.241,40.925,56.036,38.962,45.838,48.723z"/>
<path fill="#99A8AE" d="M44.13,49.89c2.983,1.035,3.415,6.15,3.415,6.15s5.216-14.291,12.192-13.961
	C59.737,42.079,54.328,40.128,44.13,49.89z"/>
<path fill="#CFD8DD" d="M41.314,50.073c2.983,1.035,4.092,5.862,4.092,5.862s7.774-13.265,11.515-13.673
	C56.921,42.263,51.513,40.312,41.314,50.073z"/>
<path fill="#99A8AE" d="M42.758,59.301c-4.06-4.813-2.991-16.22,16.54-17.198C46.304,42.438,42.758,59.301,42.758,59.301z"/>
<path fill="#BEC3CF" d="M39.478,57.894c8.439-13.063,18.252-17.944,21.449-14.473C61.104,35.456,37.761,37.456,39.478,57.894z"/>
<path fill="#E6EBEF" d="M60.927,40.135c0,0-25.53-14.34-40.093-37.482C19.689,0.83,3.924,1.847,2,18.712
	C1.892,19.667,21.855,35.904,39.895,60.75C39.331,49.434,50.804,40.48,60.927,40.135z"/>
<path fill="#0FB4D4" d="M9.812,26.488c0,0,2.227-6.809,8.526-10.756c5.679,7.17,13.17,13.242,13.17,13.242s-6.605,4.272-8.63,10.975
	C17.409,34.6,9.812,26.488,9.812,26.488z"/>
<path fill="#99A8AE" d="M4.878,17.922c0,0,1.389-10.996,14.544-14.262c1.774,3.211,4.579,6.199,4.579,6.199
	s-9.854,4.125-14.545,12.887C7.344,19.967,4.878,17.922,4.878,17.922z"/>
<path fill="#99A8AE" d="M25.381,40.983c0,0,1.389-10.997,14.547-14.261c1.466,1.412,2.981,2.453,2.981,2.453
	s-11.665,1.394-15.34,14.391C26.281,41.925,25.381,40.983,25.381,40.983z"/>
<path fill="#99A8AE" d="M29.477,24.004c0,0,4.014-3.178,6.624-2.882c1.97,1.708,3.822,3.554,3.822,3.554s-2.471-0.402-6.941,3.07
	C31.294,26.053,29.477,24.004,29.477,24.004z"/>
<path fill="#99A8AE" d="M23.429,18.119c0,0,4.149-3.299,7.053-2.818c1.955,1.945,3.255,3.467,3.255,3.467s-2.325-0.395-6.804,3.095
	C25.327,20.304,23.429,18.119,23.429,18.119z"/>
<path fill="#99A8AE" d="M29.343,45.304c0,0,2.06-11.483,15.215-14.746c1.469,1.411,2.987,2.45,2.987,2.45
	s-12.339,1.885-16.014,14.879C30.242,46.247,29.343,45.304,29.343,45.304z"/>
<path fill="#99A8AE" d="M33.658,49.969c0,0,2.356-12.415,15.513-15.681c1.465,1.413,3.746,2.66,3.746,2.66
	s-13.396,2.606-17.069,15.605C34.56,50.909,33.658,49.969,33.658,49.969z"/>
<path fill="#EBBB96" d="M21.188,38.278c0,0,3.852-11.996,17.01-15.26c2.958-0.438,2.646,2.482,2.646,2.482
	s-13.74,2.266-17.416,15.262C20.66,41.919,21.188,38.278,21.188,38.278z"/>
<path fill="#C4926E" d="M40.845,25.501c0,0-13.678,3.174-17.416,15.263C24.001,30.06,41.314,21.862,40.845,25.501z"/>
</svg>
