<?xml version="1.0" encoding="utf-8"?>
<!-- Generator: Adobe Illustrator 15.0.0, SVG Export Plug-In . SVG Version: 6.00 Build 0)  -->
<!DOCTYPE svg PUBLIC "-//W3C//DTD SVG 1.1//EN" "http://www.w3.org/Graphics/SVG/1.1/DTD/svg11.dtd">
<svg version="1.1" id="Layer_1" xmlns="http://www.w3.org/2000/svg" xmlns:xlink="http://www.w3.org/1999/xlink" x="0px" y="0px"
	 width="64px" height="64px" viewBox="0 0 64 64" enable-background="new 0 0 64 64" xml:space="preserve">
<polygon fill="#302C3B" points="51.996,6.46 57.54,12.004 46.637,24.756 39.244,17.364 "/>
<path fill="#4E5E67" d="M51.996,6.46l3.141,3.142c-8.45,3.377-14.783,8.871-14.783,8.871l-1.109-1.109L51.996,6.46z"/>
<path fill="#CFD8DD" d="M36.304,19.384l4.171,4.139L2,62c0,0,9.26-16.437,13.143-21.79C22.197,30.486,36.304,19.384,36.304,19.384z"
	/>
<path fill="#B2B6C2" d="M44.616,27.697l-4.142-4.173L2,62c0,0,16.439-9.258,21.79-13.14C33.518,41.805,44.616,27.697,44.616,27.697z
	"/>
<path fill="#6E8189" d="M53.077,3.53c2.041-2.039,5.352-2.042,7.391-0.001c2.043,2.042,2.042,5.353,0,7.394
	c-2.039,2.043-5.345,2.041-7.391,0C51.034,8.878,51.034,5.572,53.077,3.53z"/>
<path fill="#302C3B" d="M54.925,5.377c1.02-1.023,2.675-1.018,3.696,0.002c1.019,1.021,1.019,2.672-0.002,3.697
	c-1.02,1.014-2.676,1.017-3.695-0.002C53.904,8.054,53.904,6.401,54.925,5.377z"/>
<polygon fill="#B2B6C2" points="36.027,19.579 40.225,23.775 39.392,24.609 35.121,20.338 "/>
<polygon fill="#6E8189" points="40.225,23.775 44.422,27.972 43.662,28.881 39.392,24.609 "/>
<path fill="#CFD8DD" d="M34.561,18.606l5.417,5.418l5.416,5.416c2.137,2.138,7.144,1.356,9.911,4.125
	c0.078-3.395-8.539-9.167-12.122-12.751C39.604,17.233,33.83,8.617,30.436,8.695C33.205,11.464,32.425,16.467,34.561,18.606z"/>
</svg>
