<?xml version="1.0" encoding="utf-8"?>
<!-- Generator: Adobe Illustrator 15.0.0, SVG Export Plug-In . SVG Version: 6.00 Build 0)  -->
<!DOCTYPE svg PUBLIC "-//W3C//DTD SVG 1.1//EN" "http://www.w3.org/Graphics/SVG/1.1/DTD/svg11.dtd">
<svg version="1.1" id="Layer_1" xmlns="http://www.w3.org/2000/svg" xmlns:xlink="http://www.w3.org/1999/xlink" x="0px" y="0px"
	 width="64px" height="64px" viewBox="0 0 64 64" enable-background="new 0 0 64 64" xml:space="preserve">
<path fill="#E6EBEF" d="M61.977,17.174c-6.864,0.385-11.792,1.838-11.728,1.521c1.157-5.76,2.49-9.507,2.156-9.37
	c-4.852,1.986-8.051,4.92-8.071,4.661c-0.465-5.84,0.493-12.38,0.165-11.967c-4.6,5.807-6.654,12.566-7.084,10.888
	c-0.886-3.462-2.234-5.965-2.832-6.8c-0.271-0.378-0.557,3.268-2.083,6.384c-0.192,0.394-3.373-4.866-8.432-9.507
	c-0.395-0.361,0.624,4.995,0.687,10.507c0.005,0.404-3.436-3.138-8.244-5.415c-0.406-0.192,0.957,3.215,1.499,8.414
	c0.043,0.411-4.706-1.243-12.076-0.917c-0.535,0.023,4.955,4.819,8.328,9.58c0.305,0.431-6.496,1.778-12.249,4.833
	c-0.391,0.207,7.96,0.443,13.665,3.113c0.454,0.213-4.144,2.184-7.662,4.55c-0.544,0.366,12.015,3.058,11.68,3.704
	C14.511,51.359,6.361,62,6.361,62s17.645-12.474,26.342-14.53c1.018-0.241,7.914,5.488,7.876,5.008
	c-0.229-3.013-1.062-7.021-0.607-6.746c3.96,2.4,7.744,6.668,7.687,6.33c-0.749-4.45-2.713-9.31-1.896-9.148
	c5.416,1.074,12.641,3.698,12.391,3.316c-4.136-6.316-8.011-10.962-7.662-11.08c4.768-1.617,10.091-1.918,9.91-2.051
	c-4.747-3.502-8.462-4.757-8.161-5.113C57.59,21.64,62.379,17.151,61.977,17.174z"/>
<path fill="#BEC3CF" d="M36.949,13.688l0.592-0.546c-0.951-4.032-2.446-6.319-2.958-7.035C34.483,5.967,36.403,11.547,36.949,13.688
	z"/>
<path fill="#BEC3CF" d="M49.309,18.937c-0.026,0.128,1.367-0.226,1.367-0.226c1.08-4.995,2.037-9.513,1.729-9.387
	C51.541,9.678,49.942,15.769,49.309,18.937z"/>
<path fill="#BEC3CF" d="M32.326,12.783c0,0,0.132-0.198,0.175-0.293c-1.313-1.694-4.874-6.243-8.432-9.507
	C24.004,2.924,32.326,12.783,32.326,12.783z"/>
<path fill="#BEC3CF" d="M50.137,26.521c-0.146,0.174,0.631,0.669,2.103,1.464c5.317-6.295,10.138-10.834,9.737-10.812
	C60.687,17.246,53.566,22.438,50.137,26.521z"/>
<path fill="#BEC3CF" d="M43.184,14.563c0.008,0.106,1.078-0.555,1.15-0.577c-0.177-5.287,0.459-12.337,0.165-11.967
	C43.857,2.828,42.936,11.428,43.184,14.563z"/>
<path fill="#BEC3CF" d="M60.4,33.099c-0.968-0.714-1.89-1.331-2.746-1.869c0.072,0.053,0.143,0.102,0.215,0.155
	c0.171,0.126-4.872,0.412-9.39,1.951c-0.331,0.111,3.341,4.53,7.26,10.538c0.237,0.362-6.609-2.133-11.741-3.154
	c-0.772-0.155,1.088,4.468,1.798,8.7c0.054,0.321-3.531-3.737-7.284-6.02c-0.43-0.264,0.359,3.55,0.576,6.415
	c0.035,0.456-6.532-5.099-7.463-4.764C20.292,49.125,6.361,62,6.361,62s17.645-12.474,26.342-14.53
	c1.018-0.241,7.914,5.488,7.876,5.008c-0.229-3.013-1.062-7.021-0.607-6.746c3.96,2.4,7.744,6.668,7.687,6.33
	c-0.749-4.45-2.713-9.31-1.896-9.148c5.416,1.074,12.641,3.698,12.391,3.316c-4.136-6.316-8.011-10.962-7.662-11.08
	C55.258,33.532,60.581,33.231,60.4,33.099z"/>
<polygon fill="#FFFFFF" points="7.542,16.125 11.542,16.375 9.48,17.174 14.105,23.75 "/>
<polygon fill="#FFFFFF" points="3.334,29.771 7.647,27.854 6.063,29.396 11.438,31.021 "/>
<polygon fill="#FFFFFF" points="9.042,37.604 14.917,34.219 11.772,37.229 13.527,38.854 "/>
<polygon fill="#FFFFFF" points="11.645,55.693 20.355,42 19.833,44.959 "/>
<polygon fill="#FFFFFF" points="16.875,8.7 20.042,10.501 18.022,10.084 18.188,14.813 "/>
<polygon fill="#FFFFFF" points="24.292,3.853 25.438,5.236 25.105,10.979 "/>
</svg>
