<?xml version="1.0" encoding="utf-8"?>
<!-- Generator: Adobe Illustrator 15.0.0, SVG Export Plug-In . SVG Version: 6.00 Build 0)  -->
<!DOCTYPE svg PUBLIC "-//W3C//DTD SVG 1.1//EN" "http://www.w3.org/Graphics/SVG/1.1/DTD/svg11.dtd">
<svg version="1.1" id="Layer_1" xmlns="http://www.w3.org/2000/svg" xmlns:xlink="http://www.w3.org/1999/xlink" x="0px" y="0px"
	 width="64px" height="64px" viewBox="0 0 64 64" enable-background="new 0 0 64 64" xml:space="preserve">
<path fill="#4E5E67" d="M38.478,42.632c-4.644-1.466-3.322-2.633,1.11-4.298c2.123-0.799,0.832-2.484,0.89-3.832
	c0.026-0.617,2.452-0.494,2.276-2.874c-0.124-1.676-3.816-4.064-4.822-5.083c-0.581-0.587,1.184-2.197-0.059-3.612
	c-1.697-1.934-1.965-5.299-2.992-7.181c0,0,0.783-1.196,0.183-1.876c-5.176-5.859-24.491-5.322-29.427,3.302
	c-5.541,9.68-5.615,23.059,5.906,30.267C16.667,50.65,10.104,62,10.104,62h20.319c0-1.938-2.266-8.89,1.7-8.578
	c3.446,0.271,7.666,0.122,7.292-3.77c-0.113-1.174-0.246-2.231,0.574-3.204C40.809,45.476,41.996,43.742,38.478,42.632z"/>
<polygon fill="#4E5E67" points="43.129,40.805 62,43.277 62,38.334 "/>
<polygon fill="#4E5E67" points="58.46,57.081 60.484,52.8 43.129,43.432 "/>
<polygon fill="#4E5E67" points="60.484,28.766 58.46,24.485 43.129,38.135 "/>
</svg>
