<?xml version="1.0" encoding="utf-8"?>
<!-- Generator: Adobe Illustrator 16.2.0, SVG Export Plug-In . SVG Version: 6.00 Build 0)  -->
<!DOCTYPE svg PUBLIC "-//W3C//DTD SVG 1.1//EN" "http://www.w3.org/Graphics/SVG/1.1/DTD/svg11.dtd">
<svg version="1.1" id="Layer_1" xmlns="http://www.w3.org/2000/svg" xmlns:xlink="http://www.w3.org/1999/xlink" x="0px" y="0px"
	 width="64px" height="64px" viewBox="0 0 64 64" enable-background="new 0 0 64 64" xml:space="preserve">
<polygon fill="#302C3B" points="62,62 62,43.168 58.029,41.516 37.52,32.961 11.889,37.389 2,42.889 2,62 "/>
<g>
	<path fill="#E6EBEF" d="M37.156,34.32c0,0-3.069-12.32-3.6-12.32c-0.247,0-0.477,0.098-0.941,0.258
		c-1.021,0.354-1.123,0.116-2.063-0.125c-0.769-0.196-1.384,0.284-1.843,0.571c-1.895,1.187-4.698,4.786-6.308,6.337
		c-2.417,2.327-10.514,8.348-10.514,8.348s-1.626,1.471-3.33,4.629c0,0,3.344-2.227,4.673-2.279
		c0.818-0.033,0.156,2.279,0.156,2.279l4.897-3.27l-3.037,3.27c0,0,3.615-1.421,5.957-2.768c1.401-0.804,3.64-3.75,3.942-3.168
		c0.496,0.955-1.947,3.772-1.947,3.772l1.158-0.354L23.2,41.816l3.377-3.117l-1.779,3.318c0,0,2.548-3.065,3.123-3.472
		c4.08-2.866-1.869,4.177-1.869,4.177s6.841-3.574,9.2-3.925c3.066-0.451,6.482,2.665,6.482,2.665L37.156,34.32z"/>
	<path fill="#BEC3CF" d="M59.023,43.578c-0.894-1.107-0.994-2.064-0.994-2.064s-10.866-6.895-14.135-9.656
		c-2.332-1.972-6.356-6.601-8.525-8.752C34.992,22.731,34.125,22,33.557,22c-1.182,0-2.023,3.755-3.116,4.46
		c0,0,0.662,0.805,0.271,2.515c0,0,1.286-1.476,1.286-0.335c0,2.28,1.704,2.144,2.021,3.188c1.285,4.192,3.342,7.076,4.313,7.478
		c1.899,0.793,3.397,2.161,3.397,2.161l-0.789-2.111c2.453-0.103,3.885,1.31,3.885,1.31s0.146-1.962,0.964-1.713
		c2.426,0.748,5.985,3.875,5.985,3.875s-0.106-1.326,0.817-1.407C54.848,41.215,59.023,43.578,59.023,43.578z"/>
	<polygon fill="#BEC3CF" points="18.47,36.484 22.267,30.751 21.117,34.222 	"/>
	<polygon fill="#BEC3CF" points="23.57,33.938 23.57,31.656 27.406,28.236 	"/>
	<path fill="#1A1626" d="M6.733,53.521c0,0-1.267,4.05-2.733,5.479c0,0,1.867-0.977,2.733-2.828C7.6,54.32,10,53,10,53
		s-1.8,0.521-3,1.696C6.778,54.914,6.733,53.521,6.733,53.521z"/>
	<path fill="#1A1626" d="M21,46c0,0-3.048,2.504-3.438,3.704c-0.39,1.198-1.689,1.664-2.859,2.994
		c-1.17,1.327-0.975,3.199-1.3,4.987C13.079,59.475,11.325,61.271,11,62c0,0,2.046-1.981,2.664-3.251
		C14.378,57.283,14.827,55.237,16,54c1.173-1.236,2.605-2.96,3.026-4.092C19.447,48.775,20.798,46.746,21,46z"/>
	<path fill="#1A1626" d="M29,47.001c0,0-1.35,4.031-1.397,4.569c-0.048,0.54,0,5.943-0.603,7.43c0,0,1.422-4.239,1.374-6.238
		C28.325,50.763,29,47.001,29,47.001z"/>
	<path fill="#1A1626" d="M32.5,46c0,0-1.125,3.249,0,6.223c1.125,2.973,1.125,5.778,1.125,5.778s0.844-4.618,0-6.811
		C32.781,49,32.5,46,32.5,46z"/>
	<path fill="#1A1626" d="M37,44.001c0,0,0.127,3.877,1.525,5.784c1.399,1.904,4.328,6.44,4.709,8.216c0,0-1.463-5.409-2.418-7.404
		s1.654-0.531,2.101,1.004C43.363,53.137,45,53.188,45,53.188s-0.62-1.893-2.338-3.468c-1.719-1.579-3.055-4.273-3.055-4.273
		s0.699,3.052-0.381,2.512C38.145,47.418,37,44.001,37,44.001z"/>
	<path fill="#1A1626" d="M47,46c0,0,0.475,3.071,1.695,4.586c1.22,1.521,4,3.381,4.135,4.615c0.136,1.231,1.288,2.381,2.17,2.8
		c0,0-1.491-2.773-1.695-4.192c-0.203-1.418-2.371-2.039-3.187-3.223C49.305,49.409,48.729,47.813,47,46z"/>
	<path fill="#BEC3CF" d="M30.443,31.087c0,0,0.558,1.585,0.974,1.874C31.833,33.251,33,34.5,33,35c0,0.501,1.168,2.334,1.584,2.417
		S33.583,37.584,32,35.168c-1.583-2.418-1.557,1.749-1.557,1.749S29.219,34.759,30.443,31.087z"/>
</g>
<path fill="#1A1626" d="M8.37,48.096C7.998,48.94,6.419,50.64,5.93,50.44c-0.489-0.197-0.061,1.462-1.834,1.622
	C3.424,52.124,2.674,52.705,2,53.402v1.044c1.251-0.826,2.69-1.622,3.38-1.826c1.162-0.347,3.302-2.773,4.891-3.438
	C11.86,48.518,14,44,14,44C12.777,45.461,8.742,47.254,8.37,48.096z"/>
<path fill="#1A1626" d="M62,50.497c-0.818-0.239-2.392-1.756-4.033-3.287C56.264,45.62,52,46.056,52,46.056s1.313,1.154,3.018,1.493
	c1.705,0.338,4.328,3.49,6.031,4.069c0.34,0.117,0.654,0.288,0.951,0.477V50.497z"/>
<path fill="#1A1626" d="M62,56.512C59.964,54.644,58,52,58,52c-1.166,1.423,1.125,3.75,0,4.999c-1.125,1.251,0.5,4.001-3,3.086
	c-3.5-0.916-7-5.66-7-5.66s3.25,7.574-2.375,5.575s-7.5-4.245-7.5-4.245s0,2.87-1.875,3.329c-1.875,0.46-6.25-2.085-6.25-2.085
	c-1.101,1.256-3.667,3.086-6.43,1.46c-1.439-0.848-1.303-3.54-1.303-3.54S19.375,61.999,16,60s-6.875,0.375-8,0.085
	c-1.125-0.291,0.557-3.331,0.557-3.331C7.454,58.061,4.165,59.886,2,61.003V62h60V56.512z"/>
</svg>
