<?xml version="1.0" encoding="utf-8"?>
<!-- Generator: Adobe Illustrator 16.2.0, SVG Export Plug-In . SVG Version: 6.00 Build 0)  -->
<!DOCTYPE svg PUBLIC "-//W3C//DTD SVG 1.1//EN" "http://www.w3.org/Graphics/SVG/1.1/DTD/svg11.dtd">
<svg version="1.1" id="Layer_1" xmlns="http://www.w3.org/2000/svg" xmlns:xlink="http://www.w3.org/1999/xlink" x="0px" y="0px"
	 width="64px" height="64px" viewBox="0 0 64 64" enable-background="new 0 0 64 64" xml:space="preserve">
<path fill="#529320" d="M3.579,55.904c-0.283,0-0.564,0.597-0.564,1.007c0,0.245,0.238,0.431,0.414,0.431
	c0.174,0,0.629-0.308,0.629-0.8C4.056,56.049,3.744,55.904,3.579,55.904z"/>
<path fill="#529320" d="M40.778,21.16c0.394,0,0.882-0.667,0.882-0.903c0-0.236-0.181-0.329-0.474-0.329s-0.438-0.416-0.635-0.416
	C40.239,19.512,40.239,21.16,40.778,21.16z"/>
<path fill="#529320" d="M57.168,6.562c0,0.631-0.875,0.381-1.339,1.062c-0.618,0.908-0.7,2.093-1.288,2.093
	c-0.292,0-0.358-0.292-0.358-0.493c0-0.461,1.174-2.938,2.609-2.938C57.038,6.284,57.168,6.448,57.168,6.562z"/>
<path fill="#529320" d="M58,5.447C58,5.759,58.204,6,58.423,6c0.482,0,0.854-1.728,2.078-2.539C61.52,2.783,62,2.597,62,2.13
	C62,1.337,58,4.373,58,5.447z"/>
<path fill="#529320" d="M5.6,55.311c0,1.752-1.762,2.031-1.762,3.264c0,0.514,0.5,0.982,0.5,1.271c0,0.287-0.522,0.739-0.522,0.965
	c0,0.502,2.102,1.189,1.544,0.063c-0.192-0.39-0.303-0.515,0.043-0.698c0.348-0.185,0.174-0.718,0.436-0.718
	c0.26,0,0.391,0.368,0.108,0.778S5.513,62,5.73,62s1.522-0.344,1.522-0.596c0-0.186-0.217-0.614,0.173-0.614
	c0.391,0,1.064,0.021,1.064-0.78c0-1.06,0.458-2.688,1.262-3.879c0.544-0.808,1.448-1.233,0.803-2.011
	c-0.772-0.931-1.26-0.821-0.956-1.252c0.304-0.431,0.304-1.089-0.565-1.089C7.272,51.779,8.056,51,6.058,51
	c-1.632,0-1.604,1-2.997,1c-0.999,0-1.496,1.499-0.573,1.749c1.195,0.323,1.429,1.106,1.661,1.106c0.34,0,0.145-1.271,0.449-1.271
	C4.903,53.586,5.6,54.652,5.6,55.311z"/>
<path fill="#529320" d="M13.051,55c0,1,1.998,2,1.998,0c0-1,0.479-2.5,1.499-2.5c1.02,0,1.454,1,1.998,1
	c0.999,0,0.302-1.471,0.999-2c0.36-0.273,0.983-0.363,0.983-1.016c0-0.344-0.983-0.984-2.981-0.984c-0.999,0-0.999,1.5-1.998,1.5
	c-0.304,0-0.758-0.259-0.999-0.5c-0.999-1-1.34,1.525-1.929,1.525c-0.28,0-0.62,0.42-0.62,0.975c0,0.556,0.406,0.359,0.406,0.708
	c0,0.351-0.212,0.407-0.131,0.616C12.417,54.688,13.051,54.528,13.051,55z"/>
<path fill="#529320" d="M29.153,36.306c-0.671,0-2.81,0.718-2.224,1.304C27.421,38.102,29.383,36.306,29.153,36.306z"/>
<path fill="#529320" d="M33.256,33c-0.681,0-1.113,2-0.358,2C33.651,35,33.607,33,33.256,33z"/>
<path fill="#529320" d="M41.334,13.063"/>
<path fill="#529320" d="M38.79,44.46c0,0.729-0.723,1.54,0.234,1.54c0.604,0,2.962-2,2.962-3.325C41.986,42,41.022,41,41.022,40
	s0.998-2,0.998-3s-0.33-1.631-0.33-3c0-1.088,0.706-1.822,1.085-1.822c0.525,0,0.739,1.257,0.739-1.178
	c0-1.155,1.351-2.375,1.351-3.602c0-2.929-2.348-3.867-2.348-5.52c0-1.133-0.033-1.621-0.327-1.621
	c-0.236,0-0.356,0.122-0.356,0.903c0,0.375-0.949,0.84-1.822,0.84c-0.197,0-0.55-1.367-1.012-1c-0.195,0.156,0,0.383,0,1
	c0,0.616-1.559,1.088-1.559,1.479c0,0.39,0.658,0.841,0.658,1.272S37.023,25.548,37.023,26c0,0.626,1.425,0.457,1,2
	c-1.83,6.635-5.102,9.236-5.987,9.721c-0.413,0.228-0.871,0.041-1.283,0.574C30.339,38.828,29.882,39,29.034,39
	c-0.436,0-0.434-1-0.999-1c-0.305,0-0.999,0-0.999,1c0,0.939-1.998,2-1.998,3c0,0.391,0.25,1.09,0.25,1.5c0,0.822-1.272,1-1.748,1
	c-0.69,0-0.999-1.016-1.982-1.016c-1.015,0-3.013,1.016-5.01,1.016c-0.999,0-1.57-1.17-3.084,0.346C12.489,45.82,9,48.5,8,48.5
	S7,50,8,50s1-1,3,0c0.418,0.254,0.88-0.298,1.038-0.488C12.49,49.016,13,49,14.043,49c0.957,0,3.5-1.506,6.096-1.506
	c0.51,0,1.843,0.162,1.843,0.57c0,0.42-1.288,0.482-1.288,0.969c0,0.467,1.354,0,1.354,0.539c0,0.506-0.778,1.358,0.74,2.392
	c1.407,0.958,1.946,0.483,2.407-0.174c1.087-1.552,0.736-2.29,2.34-2.29c0.457,0,1.249,0.213,1.249-0.5
	c0-0.521-1.552-0.5-1.552-1.703c0-0.463,0.375-0.895,0.621-0.895c0.246,0,0.182,0.322,0.182,0.598c0,0.848,0.626,1.221,0.766,1.082
	c0.229-0.229-0.295-0.878,0.258-0.878c0.344,0,0.453,0.522,0.975,0.522s2.409-0.123,2.997-0.217
	c0.586-0.093,0.915-1.615,1.377-1.615c0.891,0,0.088,0.855,0.088,1.383c0,0.472,0.857,1.371,1.754-1.769
	C36.354,45.14,36.536,45,37.026,45c0.487,0,1.438-0.123,1.438-0.447C38.464,44.23,38.79,44.137,38.79,44.46z"/>
<path fill="#529320" d="M51.232,13c-0.97,0-2.753,1.63-2.753,2c0,1.602-0.575,2-1.479,2c-1,0-2.619-2-4-2c-1,0-1.34,1-2.5,1
	c-0.686,0-1.179-0.445-1.577-0.445c-0.342,0.002-0.635,0.164-0.635,0.618c0,1.062,3.3,1.749,3.3,2.447
	c0,0.892-1.453-0.095-1.714-0.095C39.308,18.525,39,20,38,20s0-0.708,0-2c0-0.734-0.986-1.229-0.986-2c0-1.223,1.379-1.82,1.379-2.5
	c0-0.461-0.628-1.501,0.617-1.501c1.03,0,1.99,1.691,1.99,0.504V12.5c0-3.75,1.01-2.458,1.01-4.5c0-2-0.993-4.5,0.505-4.5
	c0.624,0,0.949,0.607,1.501,1.5C44.573,5.893,46,8.46,50.015,8.46C51.115,8.46,51.428,9,52.01,9c0.588,0,0.883-1.572,1.342-1.572
	c0.309,0,0.31,0.4,0.31,0.631c-0.002,0.675-0.462,3.294,0.348,3.294c0.569,0,0.958-0.432,1.269-0.432
	C56.152,10.921,53.93,13,51.232,13z"/>
</svg>
