<?xml version="1.0" encoding="utf-8"?>
<!-- Generator: Adobe Illustrator 15.0.0, SVG Export Plug-In . SVG Version: 6.00 Build 0)  -->
<!DOCTYPE svg PUBLIC "-//W3C//DTD SVG 1.1//EN" "http://www.w3.org/Graphics/SVG/1.1/DTD/svg11.dtd">
<svg version="1.1" id="Layer_1" xmlns="http://www.w3.org/2000/svg" xmlns:xlink="http://www.w3.org/1999/xlink" x="0px" y="0px"
	 width="64px" height="64px" viewBox="0 0 64 64" enable-background="new 0 0 64 64" xml:space="preserve">
<polygon fill="#99A8AE" points="11.736,61 7,31.625 13.928,18.043 15.729,8.746 25.016,6.182 31.189,2 38.178,4.803 43.258,5.633 
	47.467,11.027 57,18.188 55.729,31.219 56.883,42.676 55.268,61 "/>
<path fill="#CFD8DD" d="M19.24,41.016V61c0,0,4.623,0,12.906,0c8.746,0,14.115,0,14.115,0V31.625L19.24,41.016z"/>
<path fill="#4E5E67" d="M19.24,43.436l4.1,6.141l9.988-0.311c0,0,6.529-2.031,9.699-6.746c5.023-7.471,4.416-18.779,4.416-18.779
	L19.24,43.436z"/>
<path fill="#CFD8DD" d="M15.738,21.957c0,0-0.537-7.246,6.146-12.152c4.789-3.518,10.52-4.16,14.469-3.25
	c8.773,2.023,10.793,13.328,10.793,13.328c-3.889,1.154-15.434-5.535-15.434-5.535l-2.348,10.93L22.244,25.4l0.113-2.75"/>
<path fill="#CFD8DD" d="M15.738,21.957c0,0-1.156,8.453-0.691,11.236c0.449,2.697,4.193,10.242,4.193,10.242
	s7.613-0.877,10.125-0.553c1.094,0.143,3.072,1.547,4.154,1.35c4.289-0.781,10.127-7.941,11.895-11.539
	c3.1-6.309,1.732-12.811,1.732-12.811l-22.016-1.695L15.738,21.957z"/>
<path fill="#4E5E67" d="M22.357,22.65l1.35-7.715c0,0-7.352-0.242-7.969,7.021L22.357,22.65z"/>
<path fill="#99A8AE" d="M31.713,14.348l-2.348,10.93c0,0,2,2.275,2.695,5.086l1.875-10.932L31.713,14.348z"/>
<path fill="#4E5E67" d="M31.713,14.348c2.078,3.633,1.789,7.609,1.789,7.609c2.695-0.727,12.182,0.52,13.645-2.074
	C40.373,18.395,38.18,12.965,31.713,14.348z"/>
<path fill="#4E5E67" d="M29.365,25.277L22.244,25.4c0,0,0.865,3.785,0.199,4.797c0,0,5.602-0.57,9.703,0.26
	C32.146,30.457,31.713,26.982,29.365,25.277z"/>
<path fill="#4E5E67" d="M20.859,34.342c0,0,0.457-3.043,1.385-3.391c0.643-0.242,2.541,1.037,2.541,1.037s2.645-1.457,3.615-1.35
	c1.906,0.213,6.16,4.115,6.16,4.115s-4.531-1.592-6.119-1.561c-0.832,0.014-3.158,0.939-3.158,0.939s-1.982-0.549-2.654-0.484
	C22.146,33.695,20.859,34.342,20.859,34.342z"/>
<path fill="#4E5E67" d="M21.09,37.973c0,0-0.254-2.203,0.307-2.629c0.715-0.543,2.803,0.283,3.734,0.207
	c1.285-0.107,3.723-1.299,5.004-1.143c1.307,0.16,4.58,2.354,4.58,2.354S31,36.904,28.768,38.01
	C24.736,40.008,21.09,37.973,21.09,37.973z"/>
<rect x="2" y="56" fill="#92C932" width="60" height="6"/>
<rect x="51.473" y="50.166" fill="#92C932" width="0.549" height="7.508"/>
<path fill="#B00505" d="M50.1,45.771v3.297c0,0.607,0.492,1.098,1.098,1.098h1.1v-2.197C52.297,46.365,50.1,45.771,50.1,45.771z"/>
<path fill="#E81C27" d="M53.395,45.771v3.297c0,0.607-0.492,1.098-1.098,1.098h-1.1v-2.197
	C51.197,46.365,53.395,45.771,53.395,45.771z"/>
<rect x="3.721" y="49.264" fill="#92C932" width="0.549" height="7.508"/>
<path fill="#B00505" d="M2.348,44.869v3.297c0,0.607,0.492,1.098,1.098,1.098h1.1v-2.197C4.545,45.463,2.348,44.869,2.348,44.869z"
	/>
<path fill="#E81C27" d="M5.643,44.869v3.297c0,0.607-0.492,1.098-1.098,1.098h-1.1v-2.197C3.445,45.463,5.643,44.869,5.643,44.869z"
	/>
<rect x="58.846" y="52.73" fill="#92C932" width="0.549" height="7.508"/>
<path fill="#B00505" d="M57.473,48.336v3.297c0,0.607,0.492,1.098,1.098,1.098h1.1v-2.197C59.67,48.93,57.473,48.336,57.473,48.336z
	"/>
<path fill="#E81C27" d="M60.768,48.336v3.297c0,0.607-0.492,1.098-1.098,1.098h-1.1v-2.197C58.57,48.93,60.768,48.336,60.768,48.336
	z"/>
<rect x="19.373" y="52.73" fill="#92C932" width="0.549" height="7.508"/>
<path fill="#B00505" d="M18,48.336v3.297c0,0.607,0.492,1.098,1.098,1.098h1.1v-2.197C20.197,48.93,18,48.336,18,48.336z"/>
<path fill="#E81C27" d="M21.295,48.336v3.297c0,0.607-0.492,1.098-1.098,1.098h-1.1v-2.197
	C19.098,48.93,21.295,48.336,21.295,48.336z"/>
<path fill="#F9B700" d="M41.588,45.221v3.297c0,0.607,0.488,1.1,1.094,1.1h1.098V47.42C43.779,45.818,41.588,45.221,41.588,45.221z"
	/>
<path fill="#FFE12C" d="M44.879,45.221v3.297c0,0.607-0.49,1.1-1.1,1.1h-1.098V47.42C42.682,45.818,44.879,45.221,44.879,45.221z"/>
<rect x="42.959" y="49.617" fill="#92C932" width="0.547" height="9.338"/>
<path fill="#F9B700" d="M13.707,46.174v3.295c0,0.609,0.488,1.102,1.094,1.102h1.098v-2.199
	C15.898,46.77,13.707,46.174,13.707,46.174z"/>
<path fill="#FFE12C" d="M16.998,46.174v3.295c0,0.609-0.49,1.102-1.1,1.102h-1.098v-2.199C14.801,46.77,16.998,46.174,16.998,46.174
	z"/>
<rect x="15.078" y="50.57" fill="#92C932" width="0.547" height="9.338"/>
<path fill="#F9B700" d="M30.354,45.863v3.295c0,0.609,0.488,1.102,1.096,1.102h1.098v-2.199
	C32.547,46.459,30.354,45.863,30.354,45.863z"/>
<path fill="#FFE12C" d="M33.645,45.863v3.295c0,0.609-0.49,1.102-1.098,1.102h-1.098v-2.199
	C31.449,46.459,33.645,45.863,33.645,45.863z"/>
<rect x="31.725" y="50.26" fill="#92C932" width="0.547" height="9.338"/>
<path fill-rule="evenodd" clip-rule="evenodd" fill="#E6EBEF" d="M36.592,27.388c2.357,13.714,9.939-3.517,7.961-3.271
	C40.305,24.645,35.937,23.573,36.592,27.388z"/>
<path fill-rule="evenodd" clip-rule="evenodd" fill="#E6EBEF" d="M30.435,40.374c-0.002,3.589,4.283,2.089,3.21-0.286
	C33.082,38.843,30.436,37.774,30.435,40.374z"/>
<path fill-rule="evenodd" clip-rule="evenodd" fill="#E6EBEF" d="M42.359,13.775c-3.375-9.438-9.063-1.36-7.315-1.365
	C38.693,12.4,43.334,16.5,42.359,13.775z"/>
</svg>
