<?xml version="1.0" encoding="utf-8"?>
<!-- Generator: Adobe Illustrator 15.0.0, SVG Export Plug-In . SVG Version: 6.00 Build 0)  -->
<!DOCTYPE svg PUBLIC "-//W3C//DTD SVG 1.1//EN" "http://www.w3.org/Graphics/SVG/1.1/DTD/svg11.dtd">
<svg version="1.1" id="Layer_1" xmlns="http://www.w3.org/2000/svg" xmlns:xlink="http://www.w3.org/1999/xlink" x="0px" y="0px"
	 width="64px" height="64px" viewBox="0 0 64 64" enable-background="new 0 0 64 64" xml:space="preserve">
<polygon fill="#E6EBEF" points="21.615,56.582 2,58.25 8.091,5 27.063,3.75 "/>
<polygon fill="#BEC3CF" points="43.386,62 21.615,56.582 27.063,3.75 40.938,9.75 "/>
<polygon fill="#E6EBEF" points="62,55.25 43.386,62 40.938,9.75 55.909,2 "/>
<polygon fill="#0FB4D4" points="22.113,52.129 6.759,53.332 11.496,8.458 26.672,7.566 "/>
<polygon fill="#006DAE" points="43.197,58.041 22.113,52.129 26.672,7.566 41.119,13.554 "/>
<polygon fill="#0FB4D4" points="57.852,52.51 43.197,58.041 41.119,13.554 53.01,7.916 "/>
<path fill-rule="evenodd" clip-rule="evenodd" fill="#7AB51D" d="M28.57,14.83c-0.284,0.367-1.657-1.593-2.32,1.274
	c0.631,0.274,1.28,0.513,1.769,1.062c0.255,4.174,2.969,2.016,3.978,0.637c0.073-0.78,0.117-1.615,0.222-2.336
	C31.623,14.006,30.463,12.387,28.57,14.83z"/>
<path fill-rule="evenodd" clip-rule="evenodd" fill="#A6E639" d="M50.671,36.918c-0.674-0.617-1.235-2.576-2.32-1.699
	C48.874,36.127,49.698,37.582,50.671,36.918z"/>
<path fill-rule="evenodd" clip-rule="evenodd" fill="#A6E639" d="M49.787,37.344c-0.182,0.357-0.24,0.955-0.442,1.273
	c-0.437-0.363-0.848-0.775-1.326-1.061c-0.512,0.926-1.002,1.896-1.878,2.123c-0.028,1.258,0.169,2.082,0.221,3.186
	c1.589-0.889,2.772-0.385,3.758,1.275C51.827,42.748,50.72,38.742,49.787,37.344z"/>
<path fill="#A6E639" d="M45.698,16.741c-0.642-0.323-1.093-1.257-1.547-1.274c-0.762-0.03-2.026,1.057-2.877,1.414l0.732,15.67
	c2.298-2.102,1.762,3.833,2.255,3.517c0.539-2.176,1.304,0.488,1.547,0c0.064-0.537-0.663-2.086-0.884-2.123
	c0.069-1,0.404-1.488,0.663-2.125c-0.185-0.494-0.289-1.144-0.331-1.911c0.964-0.768,1.872-1.64,1.768-4.46
	c2.242-2.063,3.987-5.081,6.631-6.372C52.003,16.151,48.15,17.975,45.698,16.741z"/>
<path fill="#7AB51D" d="M36.969,18.228c-2.073,3.583-5.388,2.15-5.857,7.009c0.245,0.165,0.431,0.446,0.774,0.425
	c1.463-2.788,1.629,0.159,4.641,0.424c0.017,1.529,0.756,2.792,0.663,3.823c-0.33-0.357-0.774-0.566-0.663-2.124
	c-1.82,0.028-2.725-1.703-4.641-1.487c-1.707,1.425-2.323,5.838-1.548,9.346c0.062-1.439,2.21,0.053,2.763-1.912
	c0.793,2.299,0.398,6.881,1.326,8.922c1.971,0.83,2.52-3.469,2.542-6.373c0.47-1.465,1.811-2.934,1.216-5.097
	c0.294,0,0.589,0,0.883,0c0.086-0.544,0.167-2.575,1.658-1.912c1.16,1.38-0.854,2.584-0.149,4.071
	c0.57-0.037,0.916-1.343,1.431-0.792l-0.732-15.67C39.638,17.567,37.951,16.528,36.969,18.228z"/>
<path fill="#A6E639" d="M22.603,32.247c-0.938-0.496-1.399-2.046-2.32-2.337c0.03-0.719,0.175-1.22,0.109-2.124
	c1.857-1.173,3.355-3.039,4.752-5.098c-0.308-1.533-1.349-1.656-1.215-4.036c-1.637-2.178-3.624-3.392-5.968-2.336
	c-0.446,0.201-0.856,1.55-1.326,1.486c-3.923-0.531-5.083,1.166-4.973,1.699c0.491,2.354,3.854,0.597,4.973,3.399
	c0.927,3.482,1.846,8.033,4.311,7.858c0.432,0.868,0.989,1.495,1.546,2.124c0.276,1.582-0.38,1.867-0.33,3.185
	c0.057,1.533,1.073,2.385,1.215,3.611l0.763-7.347C23.475,31.986,23.209,32.566,22.603,32.247z"/>
<path fill="#7AB51D" d="M24.139,32.333l-0.763,7.347c0.283,2.461-1.32,6.879,0.221,7.646c0.252-0.295,0.042-1.479,0.111-2.125
	c1.423-1.016,1.721-4.197,3.314-4.885c0.103-1.855,0.504-3.139,0.773-4.672C26.438,35.438,25.124,32.845,24.139,32.333z"/>
<polygon fill="#E6EBEF" points="17.622,49.793 8.66,50.51 8.868,47.326 17.84,46.4 "/>
</svg>
