<?xml version="1.0" encoding="utf-8"?>
<!-- Generator: Adobe Illustrator 16.2.0, SVG Export Plug-In . SVG Version: 6.00 Build 0)  -->
<!DOCTYPE svg PUBLIC "-//W3C//DTD SVG 1.1//EN" "http://www.w3.org/Graphics/SVG/1.1/DTD/svg11.dtd">
<svg version="1.1" id="Layer_1" xmlns="http://www.w3.org/2000/svg" xmlns:xlink="http://www.w3.org/1999/xlink" x="0px" y="0px"
	 width="64px" height="64px" viewBox="0 0 64 64" enable-background="new 0 0 64 64" xml:space="preserve">
<rect x="30" y="40" fill="#B00505" width="4" height="22"/>
<rect x="28" y="36" fill="#CFD8DD" width="8" height="4"/>
<polygon fill="#E6EBEF" points="26,36 26,39 27,40 28,40 28,36 "/>
<path fill="#E81C27" d="M26.373,42C22.616,53.682,16,62,16,62h4c0,0,0,0,6-7c2.156-2.516,4.087-5,6-5c1.875,0,3.844,2.484,6,5
	c6,7,6,7,6,7h4c0,0-6.713-7.822-10.409-20H26.373z"/>
<polygon fill="#99A8AE" points="36,36 36,40 37,40 38,39 38,36 "/>
<rect x="31" y="2" fill="#E81C27" width="2" height="4"/>
<polygon fill="#E81C27" points="33,10 33,8 31,8 31,10 30,10 30,12 34,12 34,10 "/>
<rect x="31" y="6" fill="#CFD8DD" width="2" height="2"/>
<rect x="30" y="12" fill="#CFD8DD" width="4" height="2"/>
<polygon fill="#B00505" points="32,46.5 33.5,44.25 32,42 30.5,44.25 "/>
<polygon fill="#B00505" points="35.5,44.25 38,48 36.333,43 "/>
<polygon fill="#B00505" points="33,48 36,48 34.5,45.75 "/>
<polygon fill="#B00505" points="27.667,43 26,48 28.5,44.25 "/>
<polygon fill="#B00505" points="28,48 31,48 29.5,45.75 "/>
<path fill="#CFD8DD" d="M29.449,30h5.102c-0.462-2.278-0.93-5.042-1.229-8h-2.643C30.379,24.958,29.912,27.722,29.449,30z"/>
<path fill="#E81C27" d="M29.449,30C28.716,33.607,28,36,28,36h8c0,0-0.717-2.393-1.449-6H29.449z"/>
<path fill="#E81C27" d="M33.32,22C33.125,20.055,33,18.028,33,16h-2c0,2.028-0.125,4.055-0.321,6H33.32z"/>
<polygon fill="#B00505" points="30,12 34,12 34,10 "/>
<polygon fill="#99A8AE" points="30,14 31,14 31,16 33,16 33,14 34,14 34,12 "/>
<path fill="#B00505" d="M37,40H27c-0.205,0.68-0.416,1.342-0.627,2H29l0.5,0.75L30,42h4l0.5,0.75L35,42h2.591
	C37.393,41.343,37.191,40.682,37,40z"/>
</svg>
