<?xml version="1.0" encoding="utf-8"?>
<!-- Generator: Adobe Illustrator 15.0.0, SVG Export Plug-In . SVG Version: 6.00 Build 0)  -->
<!DOCTYPE svg PUBLIC "-//W3C//DTD SVG 1.1//EN" "http://www.w3.org/Graphics/SVG/1.1/DTD/svg11.dtd">
<svg version="1.1" id="Layer_1" xmlns="http://www.w3.org/2000/svg" xmlns:xlink="http://www.w3.org/1999/xlink" x="0px" y="0px"
	 width="64px" height="64px" viewBox="0 0 64 64" enable-background="new 0 0 64 64" xml:space="preserve">
<circle fill="#FDCA47" cx="32" cy="32" r="30"/>
<path fill="#F9B700" d="M51.654,9.346C56.227,14.611,59,21.48,59,29c0,16.568-13.432,30-30,30c-7.521,0-14.389-2.773-19.654-7.346
	C14.846,57.99,22.952,62,32,62c16.568,0,30-13.432,30-30C62,22.953,57.988,14.848,51.654,9.346z"/>
<path fill-rule="evenodd" clip-rule="evenodd" fill="#FFE8BB" d="M6.418,20.5C5.302,24.242,13,11,25,6.084
	C30.834,3.693,11.168,4.584,6.418,20.5z"/>
<path fill="#302C3B" d="M53.883,30.844c-3.35-3.889-14.006-2.52-17.166,2.793c-0.229,0.395,0.377,0.963,1.115,1.41
	c2.139-1.498,4.641-2.336,7.189-2.516c0.01,2.809,2.229,5.084,4.969,5.084C53.955,37.615,55.85,33.125,53.883,30.844z"/>
<path fill="#302C3B" d="M26.551,30.844c-3.35-3.887-14.006-2.521-17.168,2.795c-0.229,0.393,0.377,0.957,1.117,1.408
	c2.138-1.498,4.641-2.336,7.189-2.516c0.008,2.809,2.227,5.084,4.967,5.084C26.625,37.615,28.516,33.125,26.551,30.844z"/>
<path fill="#302C3B" d="M24.784,52.289c6.753,1.632,16.872,0.216,21.526-6.138c0.834-1.136,0.023-2.334-1.143-1.56
	c-4.455,2.967-13.094,4.799-19.311,3.323C23.48,47.352,22.299,51.661,24.784,52.289z"/>
<path fill="#917524" d="M57.813,26.807c-3.188-4.168-8.717-7.32-12.318-7.269c-0.761,0.012-1.883,2.519-1.248,2.592
	c4.876,0.557,9.777,2.756,12.965,6.412C57.64,29.033,58.291,27.433,57.813,26.807z"/>
<path fill="#917524" d="M6.189,26.81c3.186-4.171,8.715-7.322,12.317-7.271c0.759,0.01,1.882,2.52,1.248,2.591
	c-4.875,0.559-9.778,2.756-12.965,6.412C6.361,29.036,5.708,27.435,6.189,26.81z"/>
</svg>
