<?xml version="1.0" encoding="utf-8"?>
<!-- Generator: Adobe Illustrator 15.0.0, SVG Export Plug-In . SVG Version: 6.00 Build 0)  -->
<!DOCTYPE svg PUBLIC "-//W3C//DTD SVG 1.1//EN" "http://www.w3.org/Graphics/SVG/1.1/DTD/svg11.dtd">
<svg version="1.1" id="Layer_1" xmlns="http://www.w3.org/2000/svg" xmlns:xlink="http://www.w3.org/1999/xlink" x="0px" y="0px"
	 width="64px" height="64px" viewBox="0 0 64 64" enable-background="new 0 0 64 64" xml:space="preserve">
<circle fill="#FDCA47" cx="32" cy="32" r="30"/>
<path fill="#F9B700" d="M51.654,9.346C56.227,14.61,59,21.479,59,29c0,16.568-13.432,30-30,30c-7.521,0-14.389-2.774-19.654-7.346
	C14.847,57.989,22.952,62,32,62c16.568,0,30-13.432,30-30C62,22.952,57.989,14.847,51.654,9.346z"/>
<path fill-rule="evenodd" clip-rule="evenodd" fill="#FFE8BB" d="M6.418,20.5C5.302,24.241,13.001,11,25.001,6.083
	C30.834,3.693,11.168,4.583,6.418,20.5z"/>
<ellipse fill="#302C3B" cx="20.5" cy="22.5" rx="4.5" ry="7"/>
<ellipse fill="#302C3B" cx="43.5" cy="22.5" rx="4.5" ry="7"/>
<path fill="#302C3B" d="M51,37.789c0-0.893-0.529-2.01-2.037-2.297C45.092,34.756,39.373,34,32,34l0,0l0,0h-0.002l0,0
	c-7.369,0-13.091,0.756-16.961,1.492C13.529,35.779,13,36.896,13,37.789C13,45.867,19.271,54,31.998,54l0,0H32l0,0l0,0
	C44.729,54,51,45.867,51,37.789z"/>
<path fill="#1A1626" d="M33.846,42c-0.58-0.011-1.472,0.455-1.145,1.688c0.162,0.622,1.191,1.376,1.191,2.382
	c0,2.044-3.783,2.044-3.783,0c0-1.006,1.026-1.76,1.193-2.382c0.326-1.232-0.568-1.698-1.146-1.688
	c-1.574,0.037-4.157,1.498-4.157,3.969C25.999,48.748,28.688,51,32,51s6-2.252,6-5.031C38,43.498,35.418,42.037,33.846,42z"/>
<path fill="#F46C60" d="M24,50.082c2.313,1.051,4.98,1.668,8,1.668c3.021,0,5.688-0.617,8-1.668c-2.23-1.139-4.887-1.832-8-1.832
	S26.232,48.943,24,50.082z"/>
<path fill="#FFFFFF" d="M46.504,38.037C43.996,37.66,38.688,37,32,37c-6.689,0-11.995,0.66-14.505,1.037
	c-1.479,0.221-1.568,0.76-1.466,1.52c0.062,0.451,0.156,1,0.302,1.588c0.162,0.652,0.291,0.824,1.447,0.836
	c2.221,0.027,26.222,0.027,28.444,0c1.156-0.012,1.281-0.184,1.445-0.836c0.145-0.588,0.242-1.137,0.301-1.588
	C48.074,38.797,47.98,38.258,46.504,38.037z"/>
</svg>
