<?xml version="1.0" encoding="utf-8"?>
<!-- Generator: Adobe Illustrator 15.0.0, SVG Export Plug-In . SVG Version: 6.00 Build 0)  -->
<!DOCTYPE svg PUBLIC "-//W3C//DTD SVG 1.1//EN" "http://www.w3.org/Graphics/SVG/1.1/DTD/svg11.dtd">
<svg version="1.1" id="Layer_1" xmlns="http://www.w3.org/2000/svg" xmlns:xlink="http://www.w3.org/1999/xlink" x="0px" y="0px"
	 width="64px" height="64px" viewBox="0 0 64 64" enable-background="new 0 0 64 64" xml:space="preserve">
<circle fill="#FDCA47" cx="32" cy="32" r="30"/>
<path fill="#F9B700" d="M51.654,9.346C56.226,14.609,59,21.479,59,29c0,16.568-13.432,30-30,30c-7.521,0-14.39-2.775-19.654-7.346
	C14.846,57.988,22.952,62,32,62c16.568,0,30-13.432,30-30C62,22.951,57.988,14.846,51.654,9.346z"/>
<path fill-rule="evenodd" clip-rule="evenodd" fill="#FFE8BB" d="M6.418,20.5C5.302,24.24,13,11,25,6.082
	C30.834,3.693,11.168,4.582,6.418,20.5z"/>
<path fill="#E8A329" d="M55.484,8.145c-4.188,5.5-6.596,10.562-6.596,14.717c0,3.531,2.956,6.396,6.599,6.396
	c2.731,0,4.874-1.597,5.777-3.883c-0.13-0.826-0.464-1.972-0.464-1.972S59.607,13.557,55.484,8.145z"/>
<path fill="#75D6FF" d="M55.414,6c-4.178,5.487-6.58,10.538-6.58,14.684c0,3.523,2.948,6.382,6.582,6.382
	c3.637,0,6.584-2.858,6.584-6.382C62,16.538,59.527,11.4,55.414,6z"/>
<path opacity="0.3" fill="#0FB4D4" d="M60.446,14.29c0.276,1.114,0.426,2.177,0.426,3.185c0,3.522-2.925,6.384-6.532,6.384
	c-2.303,0-4.317-1.173-5.482-2.928c0.137,3.407,3.01,6.135,6.559,6.135c3.637,0,6.584-2.858,6.584-6.382
	C62,18.744,61.439,16.584,60.446,14.29z"/>
<path opacity="0.5" fill="#FFFFFF" d="M51.887,16.944c-2.17-0.65,2.116-7.378,3.043-8.561C55.771,7.314,55.871,18.133,51.887,16.944
	z"/>
<path fill="#302C3B" d="M28.525,26.854c-1.859-5.111-4.66-7.668-7.461-7.668s-5.602,2.557-7.46,7.668
	c-0.184,0.516,0.774,1.443,1.254,0.939c1.802-1.902,3.957-2.658,6.206-2.658c2.25,0,4.405,0.756,6.207,2.658
	C27.75,28.297,28.709,27.369,28.525,26.854z"/>
<path fill="#302C3B" d="M50.395,26.854c-1.859-5.111-4.66-7.668-7.461-7.668s-5.602,2.557-7.461,7.668
	c-0.184,0.516,0.775,1.443,1.254,0.939c1.803-1.902,3.957-2.658,6.207-2.658s4.404,0.756,6.207,2.658
	C49.619,28.297,50.578,27.369,50.395,26.854z"/>
<path fill="#302C3B" d="M51,37.789c0-0.893-0.529-2.01-2.037-2.297C45.092,34.756,39.373,34,32,34l0,0l0,0h-0.002l0,0
	c-7.369,0-13.091,0.756-16.961,1.492C13.529,35.779,13,36.896,13,37.789C13,45.867,19.271,54,31.998,54l0,0H32l0,0l0,0
	C44.729,54,51,45.867,51,37.789z"/>
<path fill="#1A1626" d="M33.844,42c-0.578-0.012-1.471,0.455-1.145,1.688c0.163,0.621,1.191,1.375,1.191,2.381
	c0,2.045-3.783,2.045-3.783,0c0-1.006,1.027-1.76,1.193-2.381c0.327-1.232-0.566-1.699-1.146-1.688
	c-1.574,0.037-4.155,1.498-4.155,3.969C25.999,48.748,28.686,51,32,51c3.311,0,5.998-2.252,5.998-5.031
	C37.998,43.498,35.416,42.037,33.844,42z"/>
<path fill="#F46C60" d="M24,50.082c2.313,1.051,4.979,1.668,8,1.668s5.688-0.617,8-1.668c-2.23-1.139-4.887-1.832-8-1.832
	C28.885,48.25,26.232,48.943,24,50.082z"/>
<path fill="#FFFFFF" d="M46.504,38.037C43.996,37.66,38.688,37,31.998,37c-6.688,0-11.993,0.66-14.503,1.037
	c-1.479,0.221-1.568,0.76-1.466,1.52c0.062,0.451,0.156,1,0.302,1.588c0.162,0.652,0.291,0.824,1.447,0.836
	c2.221,0.027,26.222,0.027,28.444,0c1.156-0.012,1.281-0.184,1.445-0.836c0.145-0.588,0.242-1.137,0.301-1.588
	C48.074,38.797,47.98,38.258,46.504,38.037z"/>
</svg>
