<?xml version="1.0" encoding="utf-8"?>
<!-- Generator: Adobe Illustrator 15.0.0, SVG Export Plug-In . SVG Version: 6.00 Build 0)  -->
<!DOCTYPE svg PUBLIC "-//W3C//DTD SVG 1.1//EN" "http://www.w3.org/Graphics/SVG/1.1/DTD/svg11.dtd">
<svg version="1.1" id="Layer_1" xmlns="http://www.w3.org/2000/svg" xmlns:xlink="http://www.w3.org/1999/xlink" x="0px" y="0px"
	 width="64px" height="64px" viewBox="0 0 64 64" enable-background="new 0 0 64 64" xml:space="preserve">
<circle fill="#FDCA47" cx="32" cy="32" r="30"/>
<path fill="#F9B700" d="M51.654,9.346C56.227,14.611,59,21.479,59,29c0,16.568-13.432,30-30,30c-7.52,0-14.389-2.773-19.654-7.346
	C14.846,57.989,22.952,62,32,62c16.569,0,30-13.432,30-30C62,22.952,57.988,14.847,51.654,9.346z"/>
<path fill-rule="evenodd" clip-rule="evenodd" fill="#FFE8BB" d="M6.418,20.5C5.302,24.241,13,11,25,6.084
	C30.833,3.693,11.168,4.584,6.418,20.5z"/>
<circle fill="#F18D84" cx="51.811" cy="36" r="6"/>
<circle fill="#F18D84" cx="12.189" cy="36" r="6"/>
<path fill="#302C3B" d="M44.584,41.279c-8.109,5.656-17.106,5.623-25.168,0c-0.971-0.677-1.846,0.495-1.188,1.578
	c2.457,4.047,7.418,7.65,13.771,7.65c6.354,0,11.315-3.604,13.772-7.65C46.43,41.774,45.555,40.603,44.584,41.279z"/>
<path fill="#302C3B" d="M28.525,26.854c-1.859-5.111-4.66-7.669-7.46-7.669s-5.602,2.558-7.46,7.669
	c-0.184,0.515,0.774,1.443,1.254,0.938c1.802-1.901,3.957-2.658,6.206-2.658c2.25,0,4.405,0.757,6.207,2.658
	C27.75,28.298,28.708,27.369,28.525,26.854z"/>
<path fill="#302C3B" d="M50.395,26.854c-1.859-5.111-4.66-7.669-7.461-7.669s-5.602,2.558-7.461,7.669
	c-0.184,0.515,0.775,1.443,1.254,0.938c1.803-1.901,3.957-2.658,6.207-2.658s4.404,0.757,6.207,2.658
	C49.619,28.298,50.578,27.369,50.395,26.854z"/>
</svg>
