<?xml version="1.0" encoding="utf-8"?>
<!-- Generator: Adobe Illustrator 15.0.0, SVG Export Plug-In . SVG Version: 6.00 Build 0)  -->
<!DOCTYPE svg PUBLIC "-//W3C//DTD SVG 1.1//EN" "http://www.w3.org/Graphics/SVG/1.1/DTD/svg11.dtd">
<svg version="1.1" id="Layer_1" xmlns="http://www.w3.org/2000/svg" xmlns:xlink="http://www.w3.org/1999/xlink" x="0px" y="0px"
	 width="64px" height="64px" viewBox="0 0 64 64" enable-background="new 0 0 64 64" xml:space="preserve">
<circle fill="#FDCA47" cx="32" cy="32" r="30"/>
<path fill="#F9B700" d="M51.654,9.346C56.226,14.611,59,21.48,59,29c0,16.568-13.432,30-30,30c-7.521,0-14.389-2.773-19.654-7.346
	C14.846,57.99,22.952,62,32,62c16.568,0,30-13.432,30-30C62,22.953,57.989,14.848,51.654,9.346z"/>
<path fill-rule="evenodd" clip-rule="evenodd" fill="#FFE8BB" d="M6.418,20.5C5.302,24.242,13,11,25,6.084
	C30.834,3.693,11.168,4.584,6.418,20.5z"/>
<path fill="#302C3B" d="M51,37.789c0-0.893-0.529-2.01-2.037-2.297C45.092,34.756,39.373,34,32,34l0,0l0,0h-0.002l0,0
	c-7.369,0-13.091,0.756-16.961,1.492C13.529,35.779,13,36.896,13,37.789C13,45.867,19.271,54,31.998,54l0,0H32l0,0l0,0
	C44.729,54,51,45.867,51,37.789z"/>
<path fill="#1A1626" d="M33.845,42c-0.579-0.012-1.471,0.455-1.145,1.688c0.162,0.621,1.191,1.375,1.191,2.381
	c0,2.045-3.783,2.045-3.783,0c0-1.006,1.027-1.76,1.193-2.381c0.326-1.232-0.567-1.699-1.146-1.688
	c-1.574,0.037-4.156,1.498-4.156,3.969C25.999,48.748,28.687,51,32,51c3.312,0,5.999-2.252,5.999-5.031
	C37.999,43.498,35.417,42.037,33.845,42z"/>
<path fill="#F46C60" d="M24,50.082c2.313,1.051,4.979,1.668,8,1.668c3.021,0,5.688-0.617,8-1.668c-2.23-1.139-4.887-1.832-8-1.832
	C28.886,48.25,26.232,48.943,24,50.082z"/>
<path fill="#FFFFFF" d="M46.504,38.037C43.996,37.66,38.688,37,31.999,37s-11.994,0.66-14.504,1.037
	c-1.479,0.221-1.568,0.76-1.466,1.52c0.062,0.451,0.156,1,0.302,1.588c0.162,0.652,0.291,0.824,1.447,0.836
	c2.221,0.027,26.222,0.027,28.444,0c1.156-0.012,1.281-0.184,1.445-0.836c0.145-0.588,0.242-1.137,0.301-1.588
	C48.074,38.797,47.98,38.258,46.504,38.037z"/>
<path fill="#302C3B" d="M49.561,16.486c0.627-0.221,0.991,0.866,0.6,1.158c-4.6,3.41-7.391,6.28-7.391,6.28s3.871,1.438,8.731,4.71
	c0.519,0.349-0.258,1.631-0.704,1.477c-8.057-2.772-12.729-3.422-16.004-3.799c-0.482-0.056-0.674-0.416-0.348-0.772
	C36.99,22.749,42.297,19.038,49.561,16.486z"/>
<path fill="#302C3B" d="M14.439,16.485c-0.628-0.221-0.991,0.867-0.6,1.158c4.6,3.41,7.39,6.281,7.39,6.281s-3.872,1.438-8.73,4.709
	c-0.52,0.349,0.257,1.631,0.705,1.477c8.056-2.773,12.728-3.422,16.003-3.8c0.483-0.056,0.672-0.416,0.348-0.772
	C27.01,22.749,21.702,19.038,14.439,16.485z"/>
</svg>
