<?xml version="1.0" encoding="utf-8"?>
<!-- Generator: Adobe Illustrator 15.0.0, SVG Export Plug-In . SVG Version: 6.00 Build 0)  -->
<!DOCTYPE svg PUBLIC "-//W3C//DTD SVG 1.1//EN" "http://www.w3.org/Graphics/SVG/1.1/DTD/svg11.dtd">
<svg version="1.1" id="Layer_1" xmlns="http://www.w3.org/2000/svg" xmlns:xlink="http://www.w3.org/1999/xlink" x="0px" y="0px"
	 width="64px" height="64px" viewBox="0 0 64 64" enable-background="new 0 0 64 64" xml:space="preserve">
<circle fill="#FDCA47" cx="32" cy="32" r="30"/>
<path fill="#F9B700" d="M51.654,9.346C56.226,14.609,59,21.479,59,29c0,16.568-13.432,30-30,30c-7.521,0-14.389-2.775-19.654-7.346
	C14.846,57.988,22.952,62,32,62c16.568,0,30-13.432,30-30C62,22.951,57.989,14.846,51.654,9.346z"/>
<path fill-rule="evenodd" clip-rule="evenodd" fill="#FFE8BB" d="M6.418,20.5C5.302,24.24,13,11,25.001,6.082
	C30.834,3.693,11.168,4.582,6.418,20.5z"/>
<path fill="#302C3B" d="M22.252,26.592c2.761,0,5,2.24,5,4.998c0,2.764-2.239,5.002-5,5.002c-2.763,0-5-2.238-5-5.002
	C17.252,28.832,19.489,26.592,22.252,26.592z"/>
<path fill="#302C3B" d="M44.131,42.213C37.193,45.857,27.773,45.109,25,45.109c-0.743,0-1.178,0.309-1,0.93
	C26,53,41,53,45.127,43.307C45.588,42.223,44.768,41.879,44.131,42.213z"/>
<path fill="#917524" d="M50.392,25.178c-4.845-2.016-11.209-1.981-14.303-0.134c-0.652,0.39-0.371,3.121,0.217,2.867
	c4.5-1.956,9.844-2.503,14.434-0.93C51.354,27.192,51.119,25.48,50.392,25.178z"/>
<path fill="#917524" d="M9.452,24.448c2.812-4.434,8.043-8.055,11.637-8.316c0.758-0.057,2.096,2.347,1.469,2.473
	c-4.808,0.98-9.5,3.597-12.357,7.516C9.818,26.65,9.029,25.113,9.452,24.448z"/>
<path fill="#302C3B" d="M35.716,33.241c3.207-4.964,11.715-5.012,14.953,0c0.185,0.291-0.776,1.501-1.256,1.216
	c-3.155-1.87-9.338-1.84-12.441,0C36.492,34.742,35.53,33.532,35.716,33.241z"/>
</svg>
