<?xml version="1.0" encoding="utf-8"?>
<!-- Generator: Adobe Illustrator 15.0.0, SVG Export Plug-In . SVG Version: 6.00 Build 0)  -->
<!DOCTYPE svg PUBLIC "-//W3C//DTD SVG 1.1//EN" "http://www.w3.org/Graphics/SVG/1.1/DTD/svg11.dtd">
<svg version="1.1" id="Layer_1" xmlns="http://www.w3.org/2000/svg" xmlns:xlink="http://www.w3.org/1999/xlink" x="0px" y="0px"
	 width="64px" height="64px" viewBox="0 0 64 64" enable-background="new 0 0 64 64" xml:space="preserve">
<circle fill="#FDCA47" cx="32" cy="32" r="30"/>
<path fill="#F9B700" d="M51.654,9.346C56.227,14.61,59,21.479,59,29c0,16.568-13.432,30-30,30c-7.521,0-14.39-2.773-19.654-7.346
	C14.846,57.988,22.952,62,32,62c16.568,0,30-13.432,30-30C62,22.952,57.988,14.846,51.654,9.346z"/>
<path fill-rule="evenodd" clip-rule="evenodd" fill="#FFE8BB" d="M6.418,20.5C5.302,24.241,13,11,25,6.083
	C30.834,3.693,11.168,4.583,6.418,20.5z"/>
<path id="Shape_24_" fill="#302C3B" d="M28.587,27.669C26.729,22.558,23.928,20,21.126,20c-2.801,0-5.604,2.558-7.459,7.669
	c-0.187,0.516,0.771,1.441,1.254,0.938c1.802-1.898,3.957-2.658,6.205-2.658c2.25,0,4.406,0.76,6.207,2.658
	C27.812,29.11,28.771,28.185,28.587,27.669L28.587,27.669z"/>
<path id="Shape_14_" fill="#302C3B" d="M50.457,27.669C48.598,22.558,45.797,20,42.996,20c-2.805,0-5.602,2.558-7.461,7.669
	c-0.188,0.516,0.773,1.441,1.254,0.938c1.805-1.898,3.957-2.658,6.207-2.658s4.402,0.76,6.207,2.658
	C49.684,29.11,50.641,28.185,50.457,27.669L50.457,27.669z"/>
<path id="Shape_13_" fill="#302C3B" d="M12,37c-0.684,0.283-1,1.107-1,2c0,1.77,2.826,15,21,15s21-13.23,21-15
	c0-0.893-0.318-1.717-1-2C42.355,33,21.644,33,12,37z"/>
<path id="Shape_12_" fill="#FFFFFF" d="M48.449,38c-11.266-2.666-21.676-2.666-32.769,0c-0.497,0.119-0.745,0.453-0.554,1.201
	l1.049,3.598c0.196,0.748,0.778,1.314,1.264,1.201c5.71-1.334,23.416-1.332,29.111,0c0.49,0.115,1.072-0.453,1.268-1.201
	l1.178-3.598C49.189,38.453,48.939,38.115,48.449,38z"/>
<path id="Shape_11_" fill="#FFFFFF" d="M45.99,47.314c0.83-0.723,0.572-1.031-0.49-1.314c-5.007-1.335-22.005-1.332-27,0
	c-1.063,0.283-1.321,0.592-0.492,1.314c0,0,5.385,4.686,13.992,4.686S45.99,47.314,45.99,47.314z"/>
</svg>
