<?xml version="1.0" encoding="utf-8"?>
<!-- Generator: Adobe Illustrator 15.0.0, SVG Export Plug-In . SVG Version: 6.00 Build 0)  -->
<!DOCTYPE svg PUBLIC "-//W3C//DTD SVG 1.1//EN" "http://www.w3.org/Graphics/SVG/1.1/DTD/svg11.dtd">
<svg version="1.1" id="Layer_1" xmlns="http://www.w3.org/2000/svg" xmlns:xlink="http://www.w3.org/1999/xlink" x="0px" y="0px"
	 width="64px" height="64px" viewBox="0 0 64 64" enable-background="new 0 0 64 64" xml:space="preserve">
<circle fill="#FDCA47" cx="32" cy="32" r="30"/>
<path fill="#F9B700" d="M51.654,9.346C56.226,14.611,59,21.479,59,29c0,16.568-13.432,30-30,30c-7.521,0-14.39-2.773-19.655-7.346
	C14.846,57.989,22.952,62,32,62c16.568,0,30-13.432,30-30C62,22.952,57.988,14.847,51.654,9.346z"/>
<path fill-rule="evenodd" clip-rule="evenodd" fill="#FFE8BB" d="M6.418,20.5C5.302,24.241,13,11,25,6.084
	C30.834,3.693,11.168,4.584,6.418,20.5z"/>
<path fill="#302C3B" d="M28.086,28.057c-4.213-7.953-12.695-7.951-16.91,0c-0.209,0.4,0.34,0.58,1.01,1.035
	c4.225-3.32,11.059-3.014,14.891-0.002C27.747,28.637,28.293,28.457,28.086,28.057z"/>
<path fill="#302C3B" d="M52.824,28.057c-4.215-7.953-12.697-7.951-16.912,0c-0.207,0.4,0.34,0.58,1.01,1.035
	c4.225-3.32,11.059-3.014,14.891-0.002C52.482,28.637,53.031,28.457,52.824,28.057z"/>
<path fill="#E8A329" d="M9.276,51.552c0,0,0.449,0.605,1.298,1.435c2.667,0.64,5.563-2.145,6.776-4.746
	C17.35,48.24,16.548,42.952,9.276,51.552z"/>
<path fill="#E8A329" d="M54.822,51.442c0,0-0.488,0.665-1.337,1.494c-2.667,0.64-5.624-2.139-6.837-4.74
	C46.648,48.196,47.551,42.843,54.822,51.442z"/>
<path fill="#302C3B" d="M51,37.789c0-0.893-0.529-2.01-2.037-2.297C45.092,34.756,39.373,34,32,34l0,0l0,0h-0.002l0,0
	c-7.37,0-13.091,0.756-16.961,1.492C13.529,35.779,13,36.896,13,37.789C13,45.867,19.271,54,31.999,54l0,0H32l0,0l0,0
	C44.729,54,51,45.867,51,37.789z"/>
<path fill="#1A1626" d="M33.844,42c-0.578-0.012-1.47,0.455-1.144,1.688c0.163,0.621,1.191,1.375,1.191,2.381
	c0,2.045-3.783,2.045-3.783,0c0-1.006,1.027-1.76,1.193-2.381c0.327-1.232-0.566-1.699-1.146-1.688
	c-1.574,0.037-4.156,1.498-4.156,3.969C25.999,48.748,28.686,51,32,51c3.31,0,5.998-2.252,5.998-5.031
	C37.998,43.498,35.416,42.037,33.844,42z"/>
<path fill="#F46C60" d="M24,50.082c2.313,1.051,4.979,1.668,8,1.668c3.021,0,5.687-0.617,8-1.668c-2.23-1.139-4.887-1.832-8-1.832
	C28.885,48.25,26.232,48.943,24,50.082z"/>
<path fill="#FFFFFF" d="M46.504,38.037C43.996,37.66,38.688,37,31.999,37c-6.688,0-11.994,0.66-14.503,1.037
	c-1.479,0.221-1.568,0.76-1.466,1.52c0.062,0.451,0.156,1,0.302,1.588c0.162,0.652,0.291,0.824,1.447,0.836
	c2.221,0.027,26.222,0.027,28.444,0c1.156-0.012,1.281-0.184,1.445-0.836c0.145-0.588,0.242-1.137,0.301-1.588
	C48.074,38.797,47.98,38.258,46.504,38.037z"/>
<path fill="#75D6FF" d="M16.913,28.352C9.831,32.25,4.804,36.536,2.719,41.008c-1.771,3.799-0.157,8.306,3.605,10.06
	c3.765,1.756,8.252,0.094,10.023-3.704C18.433,42.891,18.456,36.16,16.913,28.352z"/>
<path opacity="0.3" fill="#0FB4D4" d="M17.955,39.718c-0.275,1.333-0.655,2.554-1.161,3.641c-1.771,3.798-6.236,5.471-9.971,3.729
	c-2.384-1.111-3.88-3.345-4.203-5.802c-1.572,3.74,0.031,8.068,3.704,9.782c3.765,1.756,8.252,0.094,10.023-3.704
	C17.322,45.272,17.829,42.674,17.955,39.718z"/>
<path opacity="0.5" fill="#FFFFFF" d="M7.761,38.446c-1.919-1.745,5.898-6.931,7.452-7.758C16.622,29.94,11.287,41.654,7.761,38.446
	z"/>
<path fill="#75D6FF" d="M47.093,28.318c-1.565,7.926-1.513,14.525,0.57,18.993c1.771,3.796,6.257,5.455,10.016,3.702
	c3.761-1.754,5.372-6.256,3.603-10.052C59.197,36.494,54.061,32.153,47.093,28.318z"/>
<path opacity="0.3" fill="#0FB4D4" d="M56.461,34.82c0.846,1.067,1.535,2.143,2.041,3.229c1.771,3.795,0.182,8.286-3.549,10.026
	c-2.383,1.111-5.053,0.821-7.141-0.509c1.854,3.605,6.195,5.158,9.866,3.447c3.761-1.754,5.372-6.256,3.603-10.052
	C60.307,38.873,58.643,36.816,56.461,34.82z"/>
<path opacity="0.5" fill="#FFFFFF" d="M48.941,41.809c-2.569,0.348-1.518-8.967-1.152-10.688
	C48.121,29.563,53.661,41.17,48.941,41.809z"/>
<path fill="#917524" d="M57.813,22.036c-3.188-4.168-8.718-7.32-12.319-7.269c-0.761,0.012-1.883,2.519-1.247,2.592
	c4.875,0.557,9.777,2.756,12.965,6.412C57.639,24.263,58.291,22.662,57.813,22.036z"/>
<path fill="#917524" d="M6.188,22.039c3.186-4.171,8.715-7.322,12.317-7.271c0.76,0.01,1.883,2.52,1.247,2.591
	c-4.875,0.559-9.778,2.756-12.964,6.412C6.361,24.266,5.708,22.664,6.188,22.039z"/>
</svg>
