<?xml version="1.0" encoding="utf-8"?>
<!-- Generator: Adobe Illustrator 15.0.0, SVG Export Plug-In . SVG Version: 6.00 Build 0)  -->
<!DOCTYPE svg PUBLIC "-//W3C//DTD SVG 1.1//EN" "http://www.w3.org/Graphics/SVG/1.1/DTD/svg11.dtd">
<svg version="1.1" id="Layer_1" xmlns="http://www.w3.org/2000/svg" xmlns:xlink="http://www.w3.org/1999/xlink" x="0px" y="0px"
	 width="64px" height="64px" viewBox="0 0 64 64" enable-background="new 0 0 64 64" xml:space="preserve">
<circle fill="#FDCA47" cx="32" cy="32" r="30"/>
<path fill="#F9B700" d="M51.654,9.346C56.227,14.611,59,21.48,59,29c0,16.568-13.432,30-30,30c-7.521,0-14.389-2.773-19.654-7.346
	C14.846,57.99,22.952,62,32,62c16.568,0,30-13.432,30-30C62,22.953,57.988,14.848,51.654,9.346z"/>
<path fill-rule="evenodd" clip-rule="evenodd" fill="#FFE8BB" d="M6.418,20.5C5.302,24.242,13,11,25,6.084
	C30.834,3.693,11.168,4.584,6.418,20.5z"/>
<path fill="#E8A329" d="M4.02,21.156c0,0-0.125,0.328-0.254,0.613c2.252,3.445,7.191,5.827,15.692,10.55
	c8.07-9.301,11.949-13.398,11.035-18.578C29.133,6.026,4.02,21.156,4.02,21.156z"/>
<path fill="#E81C27" d="M15.668,10.742c-4.862-5.475-14.903-1.23-13.542,6.484C3.039,22.404,8.475,25.02,19.24,31
	c8.07-9.301,12.285-13.617,11.371-18.797C29.252,4.488,18.364,3.934,15.668,10.742z"/>
<path fill="#C21413" d="M15.381,11.582c0.087-0.373,0.287-0.84,0.287-0.84c-1.335-1.547-2.978-2.029-2.978-2.029
	C14.542,9.906,15.381,11.582,15.381,11.582z"/>
<path fill="#C21413" d="M23.372,6.016c2.276,0.859,4.148,2.75,4.662,5.664c0.832,4.717-3.662,11.156-7.914,16.711
	c-1.332,1.738-1.074,1.504-6.059-0.26c0.66,0.363,4.474,2.477,5.18,2.869c8.07-9.301,12.285-13.617,11.371-18.797
	C29.912,8.238,26.697,6.172,23.372,6.016z"/>
<path fill-rule="evenodd" clip-rule="evenodd" fill="#F46C60" d="M3.627,15.803c0.521,1.594,3.018-2.145,5.633-5.443
	C10.949,8.238,2.061,11.006,3.627,15.803z"/>
<path fill-rule="evenodd" clip-rule="evenodd" fill="#F46C60" d="M16.984,11.133c0.305,0.934,1.765-1.254,3.295-3.184
	C21.267,6.709,16.067,8.328,16.984,11.133z"/>
<path fill="#E8A329" d="M59.98,21.156c0,0,0.111,0.302,0.239,0.648c-2.252,3.445-7.176,5.792-15.677,10.515
	c-8.07-9.301-11.949-13.398-11.035-18.578C34.867,6.026,59.98,21.156,59.98,21.156z"/>
<path fill="#E81C27" d="M48.332,10.742c4.861-5.475,14.902-1.23,13.543,6.484C60.961,22.404,55.525,25.02,44.76,31
	c-8.07-9.301-12.285-13.617-11.371-18.797C34.748,4.488,45.636,3.934,48.332,10.742z"/>
<path fill="#C21413" d="M48.619,11.582c-0.087-0.373-0.287-0.84-0.287-0.84c1.336-1.547,2.979-2.029,2.979-2.029
	C49.458,9.906,48.619,11.582,48.619,11.582z"/>
<path fill="#C21413" d="M40.629,6.016c-2.277,0.859-4.148,2.75-4.662,5.664c-0.832,4.717,3.662,11.156,7.914,16.711
	c1.332,1.738,1.074,1.504,6.059-0.26c-0.66,0.363-4.474,2.477-5.18,2.869c-8.07-9.301-12.285-13.617-11.371-18.797
	C34.088,8.238,37.303,6.172,40.629,6.016z"/>
<path fill-rule="evenodd" clip-rule="evenodd" fill="#F46C60" d="M60.373,15.803c-0.521,1.594-3.019-2.145-5.633-5.443
	C53.051,8.238,61.939,11.006,60.373,15.803z"/>
<path fill-rule="evenodd" clip-rule="evenodd" fill="#F46C60" d="M47.016,11.133c-0.305,0.934-1.765-1.254-3.295-3.184
	C42.733,6.709,47.933,8.328,47.016,11.133z"/>
<path fill="#302C3B" d="M51,37.789c0-0.893-0.529-2.01-2.037-2.297C45.092,34.756,39.373,34,32,34l0,0l0,0h-0.002l0,0
	c-7.369,0-13.091,0.756-16.961,1.492C13.529,35.779,13,36.896,13,37.789C13,45.867,19.271,54,31.998,54l0,0H32l0,0l0,0
	C44.729,54,51,45.867,51,37.789z"/>
<path fill="#1A1626" d="M33.845,42c-0.579-0.012-1.472,0.455-1.145,1.688c0.163,0.621,1.191,1.375,1.191,2.381
	c0,2.045-3.783,2.045-3.783,0c0-1.006,1.026-1.76,1.193-2.381c0.327-1.232-0.567-1.699-1.146-1.688
	c-1.574,0.037-4.156,1.498-4.156,3.969C25.999,48.748,28.687,51,32,51c3.312,0,5.999-2.252,5.999-5.031
	C37.999,43.498,35.417,42.037,33.845,42z"/>
<path fill="#F46C60" d="M24,50.082c2.313,1.051,4.979,1.668,8,1.668c3.021,0,5.688-0.617,8-1.668c-2.23-1.139-4.887-1.832-8-1.832
	C28.886,48.25,26.232,48.943,24,50.082z"/>
<path fill="#FFFFFF" d="M46.504,38.037C43.996,37.66,38.688,37,31.999,37s-11.994,0.66-14.504,1.037
	c-1.479,0.221-1.568,0.76-1.466,1.52c0.062,0.451,0.156,1,0.302,1.588c0.162,0.652,0.291,0.824,1.447,0.836
	c2.221,0.027,26.222,0.027,28.444,0c1.156-0.012,1.281-0.184,1.445-0.836c0.145-0.588,0.242-1.137,0.301-1.588
	C48.074,38.797,47.98,38.258,46.504,38.037z"/>
</svg>
