<?xml version="1.0" encoding="utf-8"?>
<!-- Generator: Adobe Illustrator 15.0.0, SVG Export Plug-In . SVG Version: 6.00 Build 0)  -->
<!DOCTYPE svg PUBLIC "-//W3C//DTD SVG 1.1//EN" "http://www.w3.org/Graphics/SVG/1.1/DTD/svg11.dtd">
<svg version="1.1" id="Layer_1" xmlns="http://www.w3.org/2000/svg" xmlns:xlink="http://www.w3.org/1999/xlink" x="0px" y="0px"
	 width="64px" height="64px" viewBox="0 0 64 64" enable-background="new 0 0 64 64" xml:space="preserve">
<circle fill="#FDCA47" cx="32" cy="32" r="30"/>
<path fill="#F9B700" d="M51.654,9.346C56.226,14.611,59,21.48,59,29c0,16.568-13.432,30-30,30c-7.521,0-14.39-2.773-19.654-7.346
	C14.846,57.99,22.951,62,32,62c16.568,0,30-13.432,30-30C62,22.953,57.988,14.848,51.654,9.346z"/>
<path fill-rule="evenodd" clip-rule="evenodd" fill="#FFE8BB" d="M6.418,20.5C5.302,24.242,13,11,25,6.084
	C30.834,3.693,11.168,4.584,6.418,20.5z"/>
<path fill="#302C3B" d="M44.584,40.279c-8.11,5.656-17.107,5.623-25.168,0c-0.971-0.676-1.846,0.496-1.188,1.578
	c2.457,4.047,7.418,7.65,13.771,7.65s11.313-3.604,13.771-7.65C46.429,40.775,45.554,39.604,44.584,40.279z"/>
<path fill="#302C3B" d="M35.912,27.209c4.215,7.953,12.697,7.951,16.912,0c0.207-0.4-0.34-0.58-1.01-1.035
	c-4.225,3.32-11.059,3.014-14.893,0.002C36.254,26.629,35.707,26.809,35.912,27.209z"/>
<path fill="#302C3B" d="M11.175,27.209c4.215,7.953,12.698,7.951,16.911,0c0.207-0.4-0.34-0.58-1.01-1.035
	c-4.224,3.32-11.059,3.014-14.891,0.002C11.516,26.629,10.969,26.809,11.175,27.209z"/>
<path fill="#917524" d="M54.344,21.025c-4.158-3.201-10.314-4.814-13.78-3.832c-0.731,0.208-1.167,2.92-0.534,2.826
	c4.854-0.725,10.157,0.131,14.183,2.838C54.752,23.221,54.969,21.506,54.344,21.025z"/>
<path fill="#917524" d="M9.655,21.028c4.157-3.204,10.313-4.816,13.779-3.834c0.731,0.206,1.167,2.921,0.534,2.825
	c-4.854-0.723-10.157,0.131-14.182,2.838C9.246,23.224,9.03,21.508,9.655,21.028z"/>
</svg>
