<?xml version="1.0" encoding="utf-8"?>
<!-- Generator: Adobe Illustrator 15.0.0, SVG Export Plug-In . SVG Version: 6.00 Build 0)  -->
<!DOCTYPE svg PUBLIC "-//W3C//DTD SVG 1.1//EN" "http://www.w3.org/Graphics/SVG/1.1/DTD/svg11.dtd">
<svg version="1.1" id="Layer_1" xmlns="http://www.w3.org/2000/svg" xmlns:xlink="http://www.w3.org/1999/xlink" x="0px" y="0px"
	 width="64px" height="64px" viewBox="0 0 64 64" enable-background="new 0 0 64 64" xml:space="preserve">
<circle fill="#FDCA47" cx="32" cy="32" r="30"/>
<path fill="#F9B700" d="M51.654,9.346C56.227,14.609,59,21.479,59,29c0,16.568-13.432,30-30,30c-7.521,0-14.389-2.775-19.654-7.346
	C14.847,57.988,22.952,62,32,62c16.568,0,30-13.432,30-30C62,22.951,57.989,14.846,51.654,9.346z"/>
<path fill-rule="evenodd" clip-rule="evenodd" fill="#FFE8BB" d="M6.418,20.5C5.302,24.24,13.001,11,25.001,6.082
	C30.834,3.693,11.168,4.582,6.418,20.5z"/>
<path fill="#E8A329" d="M35.848,21.314c-2.199,1.123-5.498,1.123-7.697,0c-2.35-1.234-5.22-2.023-8.656-2.332
	c-3.355-0.303-10.467-0.291-14.025,0.99c-0.408,0.146-0.811,0.338-1.197,0.541c-0.219,0.113-0.263,0.195-0.263,0.615v0.539
	c0,1.016-0.124,0.621,0.585,1.045c1.381,0.828,2.166,2.977,2.587,5.934c0.598,4.313,2.665,7.014,6.022,8.305
	c3.115,1.195,6.601,1.154,9.691-0.107c1.69-0.691,3.175-1.785,4.354-3.559c2.068-3.107,1.449-5.049,2.516-7.721
	c0.93-2.33,3.543-2.33,4.475,0c1.066,2.672,0.447,4.613,2.514,7.721c1.179,1.773,2.664,2.867,4.355,3.559
	c3.09,1.262,6.576,1.303,9.691,0.107c3.355-1.291,5.424-3.992,6.022-8.305c0.419-2.957,1.205-5.105,2.586-5.934
	c0.709-0.424,0.585-0.029,0.585-1.045v-0.539c0-0.42-0.045-0.502-0.263-0.615c-0.388-0.203-0.79-0.395-1.196-0.541
	c-3.56-1.281-10.672-1.293-14.025-0.99C41.068,19.291,38.197,20.08,35.848,21.314"/>
<path fill="#302C3B" d="M44.584,42.279c-8.109,5.656-17.104,5.623-25.168,0c-0.97-0.678-1.845,0.494-1.187,1.578
	c2.457,4.047,7.417,7.648,13.771,7.648s11.314-3.604,13.771-7.648C46.43,42.773,45.555,41.604,44.584,42.279z"/>
<path fill="#302C3B" d="M35.849,20.314c-2.2,1.124-5.499,1.124-7.698,0c-2.35-1.233-5.219-2.024-8.657-2.332
	c-3.354-0.301-10.466-0.291-14.024,0.991c-0.408,0.146-0.81,0.335-1.197,0.539c-0.219,0.114-0.263,0.198-0.263,0.616v0.54
	c0,1.016-0.124,0.621,0.585,1.044c1.382,0.828,2.166,2.977,2.587,5.935c0.598,4.312,2.665,7.014,6.022,8.305
	c3.115,1.195,6.6,1.154,9.691-0.107c1.69-0.691,3.174-1.785,4.354-3.558c2.069-3.11,1.449-5.051,2.516-7.722
	c0.93-2.332,3.542-2.332,4.474,0c1.068,2.671,0.448,4.611,2.516,7.722c1.177,1.772,2.663,2.866,4.354,3.558
	c3.09,1.262,6.574,1.303,9.689,0.107c3.356-1.291,5.426-3.993,6.023-8.305c0.42-2.958,1.205-5.106,2.587-5.935
	c0.709-0.423,0.585-0.028,0.585-1.044v-0.54c0-0.418-0.045-0.502-0.263-0.616c-0.388-0.203-0.791-0.393-1.197-0.539
	c-3.559-1.282-10.671-1.293-14.024-0.991C41.068,18.29,38.197,19.081,35.849,20.314"/>
<path opacity="0.3" fill="#4E5E67" d="M37.318,22.208c-1.338,1.188-0.123,9.781,3.938,11.37c2.534,0.992,7.516,1.593,10.96-1.443
	c2.819-2.485,3.428-10.01,1.424-11.181C51.438,19.669,40.18,19.669,37.318,22.208z"/>
<path opacity="0.3" fill="#4E5E67" d="M26.857,22.211c1.338,1.188,0.123,9.781-3.938,11.37c-2.535,0.992-7.516,1.593-10.96-1.442
	c-2.819-2.485-3.429-10.01-1.424-11.181C12.737,19.672,23.995,19.672,26.857,22.211z"/>
<path fill="#4E5E67" d="M44.908,20.197l-7.627,7.614c0.272,1.036,0.667,2.069,1.175,2.988l10.665-10.649
	C47.806,20.086,46.353,20.099,44.908,20.197z"/>
<path fill="#4E5E67" d="M53.638,20.953c-0.082-0.048-0.2-0.09-0.307-0.134L40.798,33.341c0.15,0.083,0.298,0.173,0.457,0.235
	c0.694,0.271,1.575,0.512,2.555,0.657l10.918-10.917C54.576,22.18,54.222,21.293,53.638,20.953z"/>
<path fill="#4E5E67" d="M15.45,20.137L9.447,26.13c0.129,1.137,0.399,2.309,0.808,3.353l9.279-9.266
	C18.146,20.113,16.743,20.09,15.45,20.137z"/>
<path fill="#4E5E67" d="M12.25,32.371c0.779,0.626,1.623,1.089,2.498,1.405l11.79-11.79c-0.664-0.47-1.623-0.843-2.765-1.128
	L12.25,32.371z"/>
</svg>
