<?xml version="1.0" encoding="utf-8"?>
<!-- Generator: Adobe Illustrator 15.0.0, SVG Export Plug-In . SVG Version: 6.00 Build 0)  -->
<!DOCTYPE svg PUBLIC "-//W3C//DTD SVG 1.1//EN" "http://www.w3.org/Graphics/SVG/1.1/DTD/svg11.dtd">
<svg version="1.1" id="Layer_1" xmlns="http://www.w3.org/2000/svg" xmlns:xlink="http://www.w3.org/1999/xlink" x="0px" y="0px"
	 width="64px" height="64px" viewBox="0 0 64 64" enable-background="new 0 0 64 64" xml:space="preserve">
<circle fill="#FDCA47" cx="32" cy="32" r="30"/>
<path fill="#F9B700" d="M51.654,9.346C56.226,14.611,59,21.479,59,29c0,16.568-13.432,30-30,30c-7.521,0-14.39-2.773-19.654-7.346
	C14.846,57.989,22.952,62,32,62c16.568,0,30-13.432,30-30C62,22.952,57.988,14.847,51.654,9.346z"/>
<path fill-rule="evenodd" clip-rule="evenodd" fill="#FFE8BB" d="M6.418,20.5C5.302,24.241,13,11,25,6.084
	C30.834,3.693,11.168,4.584,6.418,20.5z"/>
<path fill="#E8A329" d="M36.464,50.112c6.152,8.08,7.59,8.955,10.488,7.958C50.275,56.248,41.335,45.099,36.464,50.112z"/>
<path fill="#302C3B" d="M28.525,28.855c-1.858-5.111-4.659-7.67-7.461-7.67c-2.801,0-5.602,2.559-7.461,7.67
	c-0.184,0.514,0.775,1.441,1.254,0.938c1.804-1.9,3.957-2.658,6.207-2.658s4.404,0.758,6.207,2.658
	C27.751,30.299,28.71,29.369,28.525,28.855z"/>
<path fill="#302C3B" d="M50.396,28.855c-1.859-5.111-4.66-7.67-7.461-7.67c-2.802,0-5.603,2.559-7.461,7.67
	c-0.185,0.514,0.774,1.441,1.254,0.938c1.803-1.9,3.957-2.658,6.207-2.658s4.403,0.758,6.207,2.658
	C49.62,30.299,50.579,29.369,50.396,28.855z"/>
<path fill="#F46C60" d="M35.504,49.173c0,0,3.463,3.385,4.517,4.438c5.737,5.739,11.258,5.976,14.518,2.722
	c3.253-3.258,3.014-8.777-2.725-14.517c-1.052-1.052-2.617-2.618-2.617-2.618L35.504,49.173z"/>
<polygon fill="#E03636" points="43.626,43.655 51.778,53.575 41.857,45.427 "/>
<path fill="#302C3B" d="M48.109,37.02c-4.327,6.107-9.45,7.645-16.109,7.645s-11.782-1.535-16.11-7.645
	c-0.604-0.85-2.189-0.314-1.84,0.92c2.273,8.004,10,12.668,17.95,12.668s15.677-4.664,17.95-12.668
	C50.301,36.705,48.714,36.17,48.109,37.02z"/>
</svg>
