<?xml version="1.0" encoding="utf-8"?>
<!-- Generator: Adobe Illustrator 15.0.0, SVG Export Plug-In . SVG Version: 6.00 Build 0)  -->
<!DOCTYPE svg PUBLIC "-//W3C//DTD SVG 1.1//EN" "http://www.w3.org/Graphics/SVG/1.1/DTD/svg11.dtd">
<svg version="1.1" id="Layer_1" xmlns="http://www.w3.org/2000/svg" xmlns:xlink="http://www.w3.org/1999/xlink" x="0px" y="0px"
	 width="64px" height="64px" viewBox="0 0 64 64" enable-background="new 0 0 64 64" xml:space="preserve">
<circle fill="#AA5BEF" cx="32" cy="32" r="30"/>
<path fill="#8D40CF" d="M51.654,9.346C56.226,14.611,59,21.48,59,29c0,16.568-13.432,30-30,30c-7.521,0-14.39-2.773-19.654-7.346
	C14.846,57.99,22.951,62,32,62c16.568,0,30-13.432,30-30C62,22.953,57.988,14.848,51.654,9.346z"/>
<path fill-rule="evenodd" clip-rule="evenodd" fill="#C28FEF" d="M6.418,20.5C5.301,24.242,13,11,25,6.084
	C30.834,3.693,11.168,4.584,6.418,20.5z"/>
<path fill="#1A1626" d="M17.316,43.326c2.475,1.455,4.865,2.338,7.314,2.924c2.439,0.586,4.9,0.836,7.369,0.84
	c2.471-0.01,4.93-0.26,7.367-0.846c2.449-0.586,4.838-1.467,7.316-2.918c-1.061,2.717-3.416,4.854-6.043,6.221
	c-2.654,1.379-5.662,2.043-8.641,2.041c-2.979-0.004-5.984-0.668-8.637-2.047C20.736,48.174,18.381,46.039,17.316,43.326z"/>
<path fill="#FFFFFF" d="M52.291,26.758c2.012,4.313,0.146,9.439-4.168,11.449c-4.313,2.012-9.439,0.145-11.449-4.166
	C35.16,30.793,50.777,23.51,52.291,26.758z"/>
<path fill="#1A1626" d="M49.762,27.938c1.359,2.916,0.098,6.381-2.816,7.742c-2.916,1.359-6.381,0.098-7.742-2.818
	C38.34,31.01,48.898,26.086,49.762,27.938z"/>
<path fill="#1A1626" d="M53.895,27.086c-1.871,0.18-3.539,0.459-5.154,0.889c-1.609,0.424-3.145,0.982-4.621,1.668
	c-1.484,0.689-2.891,1.49-4.25,2.449c-1.365,0.955-2.645,2.057-3.975,3.387c0.203-1.885,1.127-3.656,2.369-5.117
	c1.248-1.459,2.852-2.639,4.596-3.439c1.75-0.811,3.67-1.262,5.59-1.279C50.363,25.635,52.309,26.051,53.895,27.086z"/>
<path fill="#FFFFFF" d="M11.709,26.758c-2.012,4.313-0.146,9.439,4.168,11.449c4.311,2.012,9.438,0.145,11.447-4.166
	C28.84,30.793,13.221,23.51,11.709,26.758z"/>
<path fill="#1A1626" d="M14.238,27.938c-1.361,2.916-0.1,6.381,2.814,7.742c2.918,1.359,6.383,0.098,7.744-2.818
	C25.658,31.01,15.102,26.086,14.238,27.938z"/>
<path fill="#1A1626" d="M10.105,27.086c1.586-1.035,3.531-1.451,5.443-1.443c1.922,0.018,3.842,0.469,5.592,1.279
	c1.744,0.801,3.346,1.98,4.594,3.441c1.242,1.459,2.168,3.23,2.371,5.115c-1.33-1.33-2.611-2.43-3.975-3.387
	c-1.361-0.959-2.768-1.76-4.25-2.449c-1.479-0.686-3.014-1.244-4.623-1.668C13.645,27.545,11.975,27.266,10.105,27.086z"/>
<path fill="#302C3B" d="M44.054,10.252C45.224,8.267,50.767,9.688,58.392,2c2.313,12.75-2.59,19.338-4.324,19.901
	C46.079,24.5,40.767,15.823,44.054,10.252z"/>
<path fill="#1A1626" d="M58.392,2c0.244,9.622-3.381,14.764-6.506,17.456c-1.483,1.278-4.563,1.349,0-3.609
	c-6.229,5.688-8.541-0.208-7.872-5.52c-3.197,5.573,2.101,14.161,10.054,11.574C55.802,21.338,60.704,14.75,58.392,2z"/>
<path fill="#302C3B" d="M19.946,10.252C18.776,8.267,13.233,9.688,5.608,2c-2.313,12.75,2.59,19.338,4.324,19.901
	C17.921,24.5,23.233,15.823,19.946,10.252z"/>
<path fill="#1A1626" d="M5.608,2c-0.244,9.622,3.381,14.764,6.506,17.456c1.483,1.278,4.563,1.349,0-3.609
	c6.229,5.688,8.541-0.208,7.872-5.52c3.197,5.573-2.101,14.161-10.054,11.574C8.198,21.338,3.296,14.75,5.608,2z"/>
</svg>
