<?xml version="1.0" encoding="utf-8"?>
<!-- Generator: Adobe Illustrator 15.0.0, SVG Export Plug-In . SVG Version: 6.00 Build 0)  -->
<!DOCTYPE svg PUBLIC "-//W3C//DTD SVG 1.1//EN" "http://www.w3.org/Graphics/SVG/1.1/DTD/svg11.dtd">
<svg version="1.1" id="Layer_1" xmlns="http://www.w3.org/2000/svg" xmlns:xlink="http://www.w3.org/1999/xlink" x="0px" y="0px"
	 width="64px" height="64px" viewBox="0 0 64 64" enable-background="new 0 0 64 64" xml:space="preserve">
<circle fill="#FDCA47" cx="32" cy="33" r="29"/>
<path fill="#F9B700" d="M51,11.101c4.419,5.09,7.101,11.729,7.101,18.999c0,16.017-12.983,29-29,29
	c-7.271,0-13.909-2.682-18.999-7.101C15.418,58.123,23.254,62,32,62c16.017,0,29-12.984,29-29C61,24.254,57.123,16.419,51,11.101z"
	/>
<path fill-rule="evenodd" clip-rule="evenodd" fill="#FFE8BB" d="M7.271,21.884C6.192,25.5,13.635,12.7,25.234,7.947
	C30.873,5.637,11.863,6.497,7.271,21.884z"/>
<path fill="#302C3B" d="M28.643,34.414C26.844,29.473,24.137,27,21.43,27s-5.414,2.473-7.211,7.414
	c-0.178,0.498,0.748,1.395,1.213,0.906c1.74-1.838,3.824-2.568,5.998-2.568c2.176,0,4.258,0.73,6,2.568
	C27.893,35.809,28.818,34.912,28.643,34.414z"/>
<path fill="#302C3B" d="M49.781,34.414C47.984,29.473,45.277,27,42.568,27c-2.705,0-5.414,2.473-7.211,7.414
	c-0.178,0.498,0.75,1.395,1.211,0.906c1.744-1.838,3.826-2.568,6-2.568c2.176,0,4.26,0.73,6.002,2.568
	C49.031,35.809,49.959,34.912,49.781,34.414z"/>
<path fill="#302C3B" d="M44.166,42.248c-7.84,5.467-16.537,5.434-24.33,0c-0.938-0.656-1.783,0.477-1.148,1.523
	c2.377,3.914,7.17,7.395,13.313,7.395s10.938-3.48,13.313-7.395C45.949,42.725,45.104,41.592,44.166,42.248z"/>
<path fill="#E8A329" d="M10.288,13.34c0,0-0.589,0.546-1.22,1.47c3.232,2.288,10.93,3.88,22.932,3.88
	c11.996,0,19.691-1.59,22.926-3.877c-0.601-0.896-1.214-1.473-1.214-1.473H10.288z"/>
<path fill="#4AA9FF" d="M32,2C12.159,2,2,5.419,2,9.639s10.159,7.639,30,7.639s30-3.419,30-7.639S51.841,2,32,2z M12.625,7.836
	c0-3.396,38.75-3.396,38.75,0C51.375,11.23,12.625,11.23,12.625,7.836z"/>
<path fill="#98DFFD" d="M51.896,6.537c0-3.857-39.791-3.857-39.791,0C18.551,4.34,39.999,3.07,51.896,6.537z"/>
<path fill="#98DFFD" d="M59.392,6.615c0.325,0.496,0.498,1.011,0.498,1.539c0,4.092-9.852,7.408-29.091,7.408
	c-14.622,0-23.808-1.918-27.381-4.635c2.209,3.354,11.837,5.868,28.593,5.868c19.239,0,29.091-3.315,29.091-7.407
	C61.102,8.406,60.519,7.472,59.392,6.615z"/>
<path fill="#FDCA47" d="M47.5,8.584c0-0.033-0.007-0.063-0.008-0.095C43.012,5.647,37.699,4,32,4S20.988,5.647,16.508,8.489
	C16.507,8.521,16.5,8.552,16.5,8.584C16.5,11.251,47.5,11.251,47.5,8.584z"/>
<path fill-rule="evenodd" clip-rule="evenodd" fill="#FFE8BB" d="M25.234,7.945c3.291-1.349-1.817-1.611-7.553,1.46
	c0.521,0.513,1.861,0.753,3.417,0.646C22.406,9.256,23.788,8.538,25.234,7.945z"/>
</svg>
