<?xml version="1.0" encoding="utf-8"?>
<!-- Generator: Adobe Illustrator 15.0.0, SVG Export Plug-In . SVG Version: 6.00 Build 0)  -->
<!DOCTYPE svg PUBLIC "-//W3C//DTD SVG 1.1//EN" "http://www.w3.org/Graphics/SVG/1.1/DTD/svg11.dtd">
<svg version="1.1" id="Layer_1" xmlns="http://www.w3.org/2000/svg" xmlns:xlink="http://www.w3.org/1999/xlink" x="0px" y="0px"
	 width="64px" height="64px" viewBox="0 0 64 64" enable-background="new 0 0 64 64" xml:space="preserve">
<circle fill="#FDCA47" cx="32" cy="32" r="30"/>
<path fill="#F9B700" d="M51.654,9.346C56.227,14.611,59,21.48,59,29c0,16.568-13.432,30-30,30c-7.521,0-14.389-2.773-19.654-7.346
	C14.846,57.99,22.952,62,32,62c16.568,0,30-13.432,30-30C62,22.953,57.988,14.848,51.654,9.346z"/>
<path fill-rule="evenodd" clip-rule="evenodd" fill="#FFE8BB" d="M6.418,20.5C5.302,24.242,13,11,25,6.084
	C30.834,3.693,11.168,4.584,6.418,20.5z"/>
<path fill="#302C3B" d="M35.56,30.328c2.079,9.071,10.554,11.338,16.892,4.526c0.314-0.346-0.185-0.67-0.731-1.305
	c-5.11,2.186-11.854,0.051-14.875-3.982C36.055,29.839,35.459,29.871,35.56,30.328z"/>
<path fill="#302C3B" d="M11.55,34.854c6.337,6.816,14.81,4.545,16.892-4.525c0.099-0.457-0.495-0.489-1.286-0.764
	c-3.331,4.445-10.239,5.968-14.872,3.986C11.735,34.184,11.234,34.508,11.55,34.854z"/>
<path fill="#E8A329" d="M13.789,9.807c2.615,4.438,5.529,8.32,5.529,11.871c0,4.316-3.667,7.906-8.119,7.906
	c-3.381,0-7.604-3.198-7.604-7.259C6.173,11.822,13.789,9.807,13.789,9.807z"/>
<path fill="#75D6FF" d="M11.945,2c5.041,6.62,7.939,12.714,7.939,17.715c0,4.251-3.557,7.701-7.941,7.701
	C7.555,27.416,4,23.966,4,19.715C4,14.714,6.982,8.516,11.945,2z"/>
<path opacity="0.3" fill="#0FB4D4" d="M5.874,12.002c-0.333,1.344-0.514,2.625-0.514,3.841c0,4.251,3.528,7.704,7.882,7.704
	c2.778,0,5.208-1.414,6.613-3.534c-0.164,4.11-3.631,7.403-7.912,7.403C7.555,27.416,4,23.966,4,19.715
	C4,17.376,4.676,14.77,5.874,12.002z"/>
<path opacity="0.5" fill="#FFFFFF" d="M16.201,15.204c2.617-0.785-2.553-8.901-3.67-10.329
	C11.516,3.584,11.394,16.637,16.201,15.204z"/>
<path fill="#302C3B" d="M40.988,52.756c-5.793-4.799-12.219-4.771-17.977,0c-0.693,0.574-1.318-1.137-0.848-2.055
	c1.754-3.436,5.299-6.492,9.836-6.492c4.539,0,8.082,3.057,9.836,6.492C42.307,51.619,41.682,53.33,40.988,52.756z"/>
</svg>
