<?xml version="1.0" encoding="utf-8"?>
<!-- Generator: Adobe Illustrator 15.0.0, SVG Export Plug-In . SVG Version: 6.00 Build 0)  -->
<!DOCTYPE svg PUBLIC "-//W3C//DTD SVG 1.1//EN" "http://www.w3.org/Graphics/SVG/1.1/DTD/svg11.dtd">
<svg version="1.1" id="Layer_1" xmlns="http://www.w3.org/2000/svg" xmlns:xlink="http://www.w3.org/1999/xlink" x="0px" y="0px"
	 width="64px" height="64px" viewBox="0 0 64 64" enable-background="new 0 0 64 64" xml:space="preserve">
<circle fill="#FDCA47" cx="32" cy="32" r="30"/>
<path fill="#F9B700" d="M51.654,9.346C56.227,14.611,59,21.48,59,29c0,16.568-13.432,30-30,30c-7.521,0-14.389-2.773-19.654-7.346
	C14.846,57.99,22.952,62,32,62c16.568,0,30-13.432,30-30C62,22.953,57.988,14.848,51.654,9.346z"/>
<path fill-rule="evenodd" clip-rule="evenodd" fill="#FFE8BB" d="M6.418,20.5C5.302,24.242,13,11,25,6.084
	C30.834,3.693,11.168,4.584,6.418,20.5z"/>
<path fill="#302C3B" d="M47.877,37c-0.32,0-6.65,2-15.875,2c-9.227,0-15.556-2-15.876-2C15.393,37,15,37.508,15,38
	c0,7.271,5.96,15,17.001,15s17-7.729,17-15C49.002,37.508,48.61,37,47.877,37z"/>
<path fill="#F46C60" d="M22.002,44.85c0,0.893,0,2.389,0,3.994c0,8.758,4.479,13.152,10,13.156c5.521-0.004,10-4.398,10-13.156
	c0-1.605,0-3.102,0-3.994c0-5.233-10-2.847-10-2.847S22.002,39.616,22.002,44.85z"/>
<path fill="#E03636" d="M30.58,41.734l1.422,13.055l1.418-13.055c-0.855,0.135-1.418,0.269-1.418,0.269S31.436,41.869,30.58,41.734z
	"/>
<ellipse fill="#302C3B" cx="20.5" cy="25.592" rx="4.5" ry="6.5"/>
<ellipse fill="#302C3B" cx="43.5" cy="25.592" rx="4.5" ry="6.5"/>
</svg>
