<?xml version="1.0" encoding="utf-8"?>
<!-- Generator: Adobe Illustrator 15.0.0, SVG Export Plug-In . SVG Version: 6.00 Build 0)  -->
<!DOCTYPE svg PUBLIC "-//W3C//DTD SVG 1.1//EN" "http://www.w3.org/Graphics/SVG/1.1/DTD/svg11.dtd">
<svg version="1.1" id="Layer_1" xmlns="http://www.w3.org/2000/svg" xmlns:xlink="http://www.w3.org/1999/xlink" x="0px" y="0px"
	 width="64px" height="64px" viewBox="0 0 64 64" enable-background="new 0 0 64 64" xml:space="preserve">
<circle fill="#FDCA47" cx="32" cy="32" r="30"/>
<path fill="#F9B700" d="M51.654,9.346C56.227,14.612,59,21.481,59,29c0,16.568-13.432,30-30,30c-7.52,0-14.389-2.773-19.654-7.346
	C14.846,57.99,22.953,62,32,62c16.568,0,30-13.432,30-30C62,22.954,57.988,14.848,51.654,9.346z"/>
<path fill-rule="evenodd" clip-rule="evenodd" fill="#FFE8BB" d="M6.418,20.5C5.303,24.243,13,11,25,6.084
	C30.834,3.694,11.168,4.584,6.418,20.5z"/>
<path fill="#302C3B" d="M38.014,52H25.986c-1.314,0-1.314-4,0-4h12.027C39.33,48,39.33,52,38.014,52z"/>
<path fill="#302C3B" d="M35.914,34.568c4.213,7.953,12.695,7.951,16.91,0c0.209-0.4-0.34-0.58-1.01-1.035
	c-4.225,3.32-11.059,3.014-14.891,0.002C36.254,33.988,35.707,34.168,35.914,34.568z"/>
<path fill="#302C3B" d="M11.176,34.568c4.215,7.953,12.697,7.951,16.912,0c0.207-0.4-0.34-0.58-1.01-1.035
	c-4.225,3.32-11.061,3.014-14.893,0.002C11.516,33.988,10.969,34.168,11.176,34.568z"/>
<path fill="#917524" d="M8.453,28.362c5.242,0.237,11.211-1.973,13.486-4.765c0.479-0.591-0.719-3.061-1.184-2.622
	c-3.561,3.379-8.395,5.719-13.246,5.811C6.859,26.798,7.666,28.327,8.453,28.362z"/>
<path fill="#917524" d="M55.541,28.36c-5.242,0.238-11.211-1.971-13.486-4.764c-0.48-0.588,0.721-3.062,1.184-2.621
	c3.561,3.376,8.396,5.719,13.246,5.81C57.137,26.796,56.328,28.326,55.541,28.36z"/>
</svg>
