<?xml version="1.0" encoding="utf-8"?>
<!-- Generator: Adobe Illustrator 15.0.0, SVG Export Plug-In . SVG Version: 6.00 Build 0)  -->
<!DOCTYPE svg PUBLIC "-//W3C//DTD SVG 1.1//EN" "http://www.w3.org/Graphics/SVG/1.1/DTD/svg11.dtd">
<svg version="1.1" id="Layer_1" xmlns="http://www.w3.org/2000/svg" xmlns:xlink="http://www.w3.org/1999/xlink" x="0px" y="0px"
	 width="64px" height="64px" viewBox="0 0 64 64" enable-background="new 0 0 64 64" xml:space="preserve">
<circle fill="#FDCA47" cx="32" cy="32" r="30"/>
<path fill="#F9B700" d="M51.654,9.346C56.227,14.611,59,21.48,59,29c0,16.568-13.432,30-30,30c-7.521,0-14.389-2.773-19.654-7.346
	C14.846,57.99,22.952,62,32,62c16.568,0,30-13.432,30-30C62,22.953,57.988,14.848,51.654,9.346z"/>
<path fill-rule="evenodd" clip-rule="evenodd" fill="#FFE8BB" d="M6.418,20.5C5.302,24.242,13,11,25,6.084
	C30.834,3.693,11.168,4.584,6.418,20.5z"/>
<path fill="#302C3B" d="M45.176,45.986c-0.483-0.522-1.387-0.637-2.007-0.256l-3.842,2.356c-0.62,0.38-1.591,0.324-2.155-0.122
	l-4.146-3.273c-0.565-0.446-1.49-0.446-2.057,0.002l-4.127,3.265c-0.565,0.445-1.535,0.501-2.155,0.122l-3.854-2.361
	c-0.62-0.38-1.524-0.264-2.007,0.258l-4.037,4.353c-0.484,0.522-0.345,0.677,0.31,0.348l3.415-1.728
	c0.653-0.33,1.625-0.208,2.159,0.269l4.185,3.745c0.533,0.479,1.455,0.528,2.048,0.111l4.038-2.835c0.593-0.417,1.562-0.417,2.155,0
	l4.02,2.821c0.592,0.416,1.514,0.365,2.047-0.113l4.161-3.728c0.533-0.477,1.505-0.599,2.158-0.269l3.419,1.727
	c0.653,0.328,0.792,0.174,0.308-0.349L45.176,45.986z"/>
<path fill="#917524" d="M9.456,25.569c5.242,0.237,11.211-1.973,13.488-4.765c0.477-0.591-0.721-3.061-1.184-2.622
	c-3.561,3.379-8.396,5.719-13.248,5.811C7.862,24.006,8.669,25.534,9.456,25.569z"/>
<path fill="#917524" d="M54.544,25.567c-5.242,0.238-11.209-1.971-13.486-4.764c-0.48-0.588,0.721-3.062,1.184-2.621
	c3.561,3.376,8.396,5.719,13.246,5.81C56.14,24.004,55.333,25.533,54.544,25.567z"/>
<path fill="#302C3B" d="M49.561,28.196c0.627-0.221,0.991,0.867,0.6,1.158c-4.6,3.41-7.391,6.281-7.391,6.281
	s3.871,1.438,8.731,4.709c0.519,0.35-0.258,1.631-0.704,1.477c-8.057-2.771-12.729-3.422-16.004-3.799
	c-0.482-0.055-0.674-0.416-0.348-0.771C36.99,34.46,42.297,30.749,49.561,28.196z"/>
<path fill="#302C3B" d="M14.439,28.196c-0.628-0.221-0.991,0.867-0.6,1.158c4.6,3.41,7.39,6.281,7.39,6.281s-3.872,1.438-8.73,4.709
	c-0.52,0.348,0.257,1.631,0.705,1.477c8.056-2.773,12.728-3.422,16.003-3.801c0.483-0.055,0.672-0.416,0.348-0.771
	C27.01,34.46,21.702,30.749,14.439,28.196z"/>
</svg>
