<?xml version="1.0" encoding="utf-8"?>
<!-- Generator: Adobe Illustrator 15.0.0, SVG Export Plug-In . SVG Version: 6.00 Build 0)  -->
<!DOCTYPE svg PUBLIC "-//W3C//DTD SVG 1.1//EN" "http://www.w3.org/Graphics/SVG/1.1/DTD/svg11.dtd">
<svg version="1.1" id="Layer_1" xmlns="http://www.w3.org/2000/svg" xmlns:xlink="http://www.w3.org/1999/xlink" x="0px" y="0px"
	 width="64px" height="64px" viewBox="0 0 64 64" enable-background="new 0 0 64 64" xml:space="preserve">
<polygon fill="#F46C60" points="50.854,57.996 50.861,57.998 50.855,57.994 50.85,57.998 "/>
<circle fill="#FDCA47" cx="32" cy="32" r="30"/>
<path fill="#F9B700" d="M51.654,9.345C56.227,14.611,59,21.48,59,29c0,16.569-13.432,30-30,30c-7.52,0-14.389-2.773-19.654-7.346
	C14.846,57.988,22.952,62,32,62c16.569,0,30-13.432,30-30C62,22.953,57.988,14.847,51.654,9.345z"/>
<path fill-rule="evenodd" clip-rule="evenodd" fill="#FFE8BB" d="M6.418,20.5C5.302,24.242,13,11,25,6.083
	C30.833,3.693,11.168,4.583,6.418,20.5z"/>
<path fill="#E8A329" d="M51.541,46.916c-2.518-4.092-9.486-2.494-9.486,2.645c0,2.67,1.936,4.842,5.715,7.967
	c1.52-0.854,2.707-1.9,2.707-1.9L51.541,46.916z"/>
<path fill="#E81C27" d="M52.025,43.834c-2.646-4.301-9.971-2.621-9.971,2.779c0,3.627,3.379,6.051,9.971,11.402
	c6.592-5.352,9.969-7.775,9.969-11.402C61.994,41.213,54.67,39.533,52.025,43.834z"/>
<path fill="#C21413" d="M51.729,44.367c0.105-0.24,0.297-0.533,0.297-0.533c-0.723-1.211-1.779-1.736-1.779-1.736
	C51.361,43.131,51.729,44.367,51.729,44.367z"/>
<path fill="#C21413" d="M57.82,41.547c1.441,0.855,2.486,2.363,2.486,4.402c0,3.303-3.82,7.137-7.373,10.396
	c-1.111,1.023-0.908,0.895-4.082-0.9c0.404,0.326,2.74,2.217,3.174,2.57c6.592-5.352,9.969-7.775,9.969-11.402
	C61.994,43.838,60.061,42.051,57.82,41.547z"/>
<path fill-rule="evenodd" clip-rule="evenodd" fill="#F46C60" d="M43.246,45.826c0.162,1.145,2.305-1.094,4.475-3.02
	C49.121,41.566,42.756,42.383,43.246,45.826z"/>
<path fill-rule="evenodd" clip-rule="evenodd" fill="#F46C60" d="M52.871,44.256c0.096,0.67,1.35-0.641,2.617-1.766
	C56.309,41.764,52.586,42.242,52.871,44.256z"/>
<path fill="#302C3B" d="M39.09,49.717c1.406-1.455-1.625-2.635-1.625-5.217c0-2.584,3.031-3.762,1.625-5.219
	c-1.684-1.744-5.354-0.426-7.628-2.781c0,1.91,1.605,4,4.605,4c0,0-2.041,0.82-2.041,4c0,3.178,2.041,4,2.041,4
	c-3,0-4.605,2.086-4.605,4C33.736,50.143,37.406,51.461,39.09,49.717z"/>
<path fill="#302C3B" d="M22.115,23.73c2.761,0,5,2.24,5,4.998c0,2.764-2.239,5.002-5,5.002c-2.763,0-5-2.239-5-5.002
	C17.115,25.97,19.353,23.73,22.115,23.73z"/>
<path fill="#917524" d="M50.256,22.316c-4.846-2.016-11.209-1.981-14.303-0.134c-0.652,0.39-0.371,3.121,0.215,2.867
	c4.502-1.956,9.846-2.503,14.434-0.93C51.219,24.331,50.982,22.619,50.256,22.316z"/>
<path fill="#917524" d="M9.315,21.586c2.812-4.434,8.043-8.055,11.637-8.316c0.758-0.057,2.096,2.347,1.469,2.473
	c-4.808,0.98-9.501,3.597-12.357,7.516C9.682,23.789,8.892,22.251,9.315,21.586z"/>
<path fill="#302C3B" d="M35.58,30.379c3.207-4.964,11.713-5.012,14.953,0c0.184,0.291-0.777,1.501-1.256,1.216
	c-3.156-1.87-9.338-1.84-12.443,0C36.355,31.88,35.395,30.67,35.58,30.379z"/>
</svg>
