<?xml version="1.0" encoding="utf-8"?>
<!-- Generator: Adobe Illustrator 15.0.0, SVG Export Plug-In . SVG Version: 6.00 Build 0)  -->
<!DOCTYPE svg PUBLIC "-//W3C//DTD SVG 1.1//EN" "http://www.w3.org/Graphics/SVG/1.1/DTD/svg11.dtd">
<svg version="1.1" id="Layer_1" xmlns="http://www.w3.org/2000/svg" xmlns:xlink="http://www.w3.org/1999/xlink" x="0px" y="0px"
	 width="64px" height="64px" viewBox="0 0 64 64" enable-background="new 0 0 64 64" xml:space="preserve">
<circle fill="#FDCA47" cx="32" cy="32" r="30"/>
<path fill="#F9B700" d="M51.654,9.346C56.226,14.611,59,21.48,59,29c0,16.568-13.432,30-30,30c-7.521,0-14.39-2.773-19.654-7.346
	C14.847,57.99,22.952,62,32,62c16.568,0,30-13.432,30-30C62,22.953,57.989,14.848,51.654,9.346z"/>
<path fill-rule="evenodd" clip-rule="evenodd" fill="#FFE8BB" d="M6.418,20.5C5.302,24.242,13.001,11,25.001,6.084
	C30.834,3.693,11.168,4.584,6.418,20.5z"/>
<path fill="#302C3B" d="M25.541,28.352c1.359,2.916-0.403,6.615-3.936,8.264c-3.533,1.648-7.5,0.619-8.861-2.297
	C11.881,32.467,24.678,26.5,25.541,28.352z"/>
<path fill="#302C3B" d="M38.459,28.352c-1.359,2.916,0.404,6.613,3.936,8.264c3.533,1.646,7.5,0.619,8.861-2.297
	C52.119,32.467,39.322,26.5,38.459,28.352z"/>
<path fill="#917524" d="M11.456,27.545c5.242,0.237,11.211-1.973,13.487-4.765c0.478-0.591-0.72-3.061-1.184-2.622
	c-3.561,3.379-8.396,5.719-13.247,5.811C9.862,25.981,10.669,27.51,11.456,27.545z"/>
<path fill="#917524" d="M52.544,27.543c-5.243,0.238-11.21-1.971-13.486-4.764c-0.48-0.588,0.721-3.062,1.184-2.621
	c3.561,3.376,8.396,5.719,13.245,5.81C54.139,25.979,53.332,27.509,52.544,27.543z"/>
<path fill="#302C3B" d="M40.988,50.478c-5.793-4.799-12.219-4.771-17.977,0c-0.693,0.574-1.318-1.137-0.848-2.055
	c1.754-3.436,5.299-6.492,9.836-6.492c4.539,0,8.082,3.057,9.836,6.492C42.307,49.341,41.682,51.052,40.988,50.478z"/>
</svg>
