<?xml version="1.0" encoding="utf-8"?>
<!-- Generator: Adobe Illustrator 15.0.0, SVG Export Plug-In . SVG Version: 6.00 Build 0)  -->
<!DOCTYPE svg PUBLIC "-//W3C//DTD SVG 1.1//EN" "http://www.w3.org/Graphics/SVG/1.1/DTD/svg11.dtd">
<svg version="1.1" id="Layer_1" xmlns="http://www.w3.org/2000/svg" xmlns:xlink="http://www.w3.org/1999/xlink" x="0px" y="0px"
	 width="64px" height="64px" viewBox="0 0 64 64" enable-background="new 0 0 64 64" xml:space="preserve">
<circle fill="#FDCA47" cx="32" cy="32" r="30"/>
<path fill="#F9B700" d="M51.654,9.346C56.226,14.611,59,21.48,59,29c0,16.568-13.432,30-30,30c-7.521,0-14.39-2.773-19.654-7.346
	C14.846,57.99,22.952,62,32,62c16.568,0,30-13.432,30-30C62,22.953,57.988,14.848,51.654,9.346z"/>
<path fill-rule="evenodd" clip-rule="evenodd" fill="#FFE8BB" d="M6.418,20.5C5.302,24.242,13,11,25,6.084
	C30.834,3.693,11.168,4.584,6.418,20.5z"/>
<path fill="#302C3B" d="M47.875,37c-0.32,0-6.65,2-15.875,2c-9.226,0-15.556-2-15.876-2c-0.732,0-1.125,0.508-1.125,1
	c0,7.271,5.961,15,17.001,15c11.041,0,17-7.729,17-15C49,37.508,48.609,37,47.875,37z"/>
<path fill="#F46C60" d="M22.001,44.85c0,0.893,0,2.389,0,3.994c0,8.758,4.479,13.152,9.999,13.156c5.521-0.004,10-4.398,10-13.156
	c0-1.605,0-3.102,0-3.994c0-5.233-10-2.847-10-2.847S22.001,39.616,22.001,44.85z"/>
<path fill="#E03636" d="M30.578,41.734L32,54.789l1.418-13.055C32.563,41.869,32,42.003,32,42.003S31.434,41.869,30.578,41.734z"/>
<path fill="#302C3B" d="M49.561,18.479c0.627-0.221,0.991,0.866,0.6,1.158c-4.6,3.41-7.391,6.28-7.391,6.28s3.871,1.438,8.731,4.71
	c0.519,0.349-0.258,1.631-0.704,1.477c-8.057-2.772-12.729-3.422-16.004-3.799c-0.482-0.056-0.674-0.416-0.348-0.772
	C36.99,24.741,42.297,21.03,49.561,18.479z"/>
<path fill="#302C3B" d="M14.439,18.478c-0.628-0.221-0.991,0.867-0.6,1.158c4.6,3.41,7.39,6.281,7.39,6.281s-3.872,1.438-8.73,4.709
	c-0.52,0.349,0.257,1.631,0.705,1.477c8.056-2.773,12.728-3.422,16.003-3.8c0.483-0.056,0.672-0.416,0.348-0.772
	C27.01,24.741,21.702,21.03,14.439,18.478z"/>
</svg>
