<?xml version="1.0" encoding="utf-8"?>
<!-- Generator: Adobe Illustrator 15.0.0, SVG Export Plug-In . SVG Version: 6.00 Build 0)  -->
<!DOCTYPE svg PUBLIC "-//W3C//DTD SVG 1.1//EN" "http://www.w3.org/Graphics/SVG/1.1/DTD/svg11.dtd">
<svg version="1.1" id="Layer_1" xmlns="http://www.w3.org/2000/svg" xmlns:xlink="http://www.w3.org/1999/xlink" x="0px" y="0px"
	 width="64px" height="64px" viewBox="0 0 64 64" enable-background="new 0 0 64 64" xml:space="preserve">
<circle fill="#FDCA47" cx="32" cy="32" r="30"/>
<path fill="#F9B700" d="M51.654,9.346C56.227,14.611,59,21.48,59,29c0,16.568-13.432,30-30,30c-7.52,0-14.389-2.773-19.654-7.346
	C14.846,57.99,22.953,62,32,62c16.568,0,30-13.432,30-30C62,22.953,57.988,14.848,51.654,9.346z"/>
<path fill-rule="evenodd" clip-rule="evenodd" fill="#FFE8BB" d="M6.418,20.5C5.302,24.242,13,11,25,6.084
	C30.834,3.693,11.168,4.584,6.418,20.5z"/>
<path fill="#302C3B" d="M53.883,30.843c-3.35-3.889-14.006-2.52-17.166,2.793c-0.229,0.396,0.377,0.963,1.115,1.411
	c2.139-1.499,4.641-2.336,7.189-2.517c0.01,2.809,2.229,5.084,4.969,5.084C53.955,37.614,55.85,33.124,53.883,30.843z"/>
<path fill="#302C3B" d="M26.549,30.843c-3.348-3.887-14.004-2.52-17.166,2.795c-0.229,0.395,0.377,0.959,1.116,1.409
	c2.138-1.499,4.64-2.336,7.188-2.517c0.01,2.809,2.229,5.085,4.969,5.085C26.625,37.615,28.516,33.124,26.549,30.843z"/>
<rect x="32" y="49.825" fill="#302C3B" width="0" height="0"/>
<path fill="#302C3B" d="M40.802,46.68c-5.803-1.402-14.496-0.185-18.496,5.273c-0.717,0.978-0.02,2.007,0.982,1.34
	c3.828-2.548,11.249-4.123,16.592-2.854C41.922,50.923,42.938,47.219,40.802,46.68z"/>
<path fill="#917524" d="M57.813,26.807c-3.188-4.168-8.717-7.32-12.318-7.269c-0.761,0.012-1.883,2.519-1.248,2.592
	c4.876,0.557,9.777,2.756,12.965,6.412C57.64,29.033,58.291,27.433,57.813,26.807z"/>
<path fill="#917524" d="M6.189,26.81c3.186-4.171,8.715-7.322,12.316-7.271c0.76,0.01,1.883,2.52,1.248,2.591
	c-4.875,0.559-9.778,2.756-12.965,6.412C6.361,29.036,5.709,27.435,6.189,26.81z"/>
</svg>
