<?xml version="1.0" encoding="utf-8"?>
<!-- Generator: Adobe Illustrator 15.0.0, SVG Export Plug-In . SVG Version: 6.00 Build 0)  -->
<!DOCTYPE svg PUBLIC "-//W3C//DTD SVG 1.1//EN" "http://www.w3.org/Graphics/SVG/1.1/DTD/svg11.dtd">
<svg version="1.1" id="Layer_1" xmlns="http://www.w3.org/2000/svg" xmlns:xlink="http://www.w3.org/1999/xlink" x="0px" y="0px"
	 width="64px" height="64px" viewBox="0 0 64 64" enable-background="new 0 0 64 64" xml:space="preserve">
<circle fill="#FDCA47" cx="32" cy="32" r="30"/>
<path fill="#F9B700" d="M51.654,9.346C56.227,14.611,59,21.48,59,29c0,16.569-13.432,30-30,30c-7.521,0-14.389-2.773-19.654-7.345
	C14.846,57.99,22.952,62,32,62c16.568,0,30-13.431,30-30C62,22.953,57.988,14.848,51.654,9.346z"/>
<path fill-rule="evenodd" clip-rule="evenodd" fill="#FFE8BB" d="M6.418,20.5C5.302,24.242,13,11,25,6.084
	C30.834,3.693,11.168,4.584,6.418,20.5z"/>
<g>
	<g>
		<circle fill="#302C3B" cx="42.387" cy="24.677" r="4.999"/>
	</g>
</g>
<g>
	<g>
		<path fill="#302C3B" d="M18.867,23.748c-2.721,0.479-4.535,3.074-4.057,5.79c0.48,2.722,3.076,4.535,5.793,4.056
			c2.719-0.479,4.535-3.07,4.055-5.791C24.178,25.086,21.584,23.269,18.867,23.748z"/>
	</g>
</g>
<path fill="#302C3B" d="M44.256,40.984c-6.754-1.632-16.871-0.215-21.526,6.138c-0.834,1.137-0.022,2.335,1.144,1.559
	c4.455-2.965,13.092-4.799,19.311-3.322C45.56,45.923,46.742,41.611,44.256,40.984z"/>
</svg>
