<?xml version="1.0" encoding="utf-8"?>
<!-- Generator: Adobe Illustrator 15.0.0, SVG Export Plug-In . SVG Version: 6.00 Build 0)  -->
<!DOCTYPE svg PUBLIC "-//W3C//DTD SVG 1.1//EN" "http://www.w3.org/Graphics/SVG/1.1/DTD/svg11.dtd">
<svg version="1.1" id="Layer_1" xmlns="http://www.w3.org/2000/svg" xmlns:xlink="http://www.w3.org/1999/xlink" x="0px" y="0px"
	 width="64px" height="64px" viewBox="0 0 64 64" enable-background="new 0 0 64 64" xml:space="preserve">
<circle fill="#FDCA47" cx="32" cy="32" r="30"/>
<path fill="#F9B700" d="M51.654,9.346C56.226,14.611,59,21.48,59,29c0,16.568-13.432,30-30,30c-7.521,0-14.39-2.773-19.654-7.346
	C14.846,57.99,22.952,62,32,62c16.568,0,30-13.432,30-30C62,22.953,57.988,14.848,51.654,9.346z"/>
<path fill-rule="evenodd" clip-rule="evenodd" fill="#FFE8BB" d="M6.418,20.5C5.302,24.242,13,11,25,6.084
	C30.834,3.693,11.168,4.584,6.418,20.5z"/>
<path fill="#302C3B" d="M28.525,26.854c-1.859-5.111-4.66-7.668-7.461-7.668s-5.602,2.557-7.46,7.668
	c-0.184,0.516,0.774,1.443,1.254,0.939c1.802-1.902,3.957-2.658,6.206-2.658c2.25,0,4.405,0.756,6.207,2.658
	C27.75,28.298,28.709,27.37,28.525,26.854z"/>
<path fill="#302C3B" d="M50.395,26.854c-1.859-5.111-4.66-7.668-7.461-7.668s-5.602,2.557-7.461,7.668
	c-0.184,0.516,0.775,1.443,1.254,0.939c1.803-1.902,3.957-2.658,6.207-2.658s4.404,0.756,6.207,2.658
	C49.619,28.298,50.578,27.37,50.395,26.854z"/>
<path fill="#302C3B" d="M39.543,50.37c1.582-1.637-1.828-2.965-1.828-5.869c0-2.906,3.41-4.232,1.828-5.871
	c-1.893-1.961-6.021-0.479-8.581-3.129c0,2.15,1.805,4.5,5.181,4.5c0,0-2.295,0.924-2.295,4.5c0,3.574,2.295,4.5,2.295,4.5
	c-3.376,0-5.181,2.348-5.181,4.5C33.521,50.849,37.65,52.333,39.543,50.37z"/>
</svg>
