<?xml version="1.0" encoding="utf-8"?>
<!-- Generator: Adobe Illustrator 15.0.0, SVG Export Plug-In . SVG Version: 6.00 Build 0)  -->
<!DOCTYPE svg PUBLIC "-//W3C//DTD SVG 1.1//EN" "http://www.w3.org/Graphics/SVG/1.1/DTD/svg11.dtd">
<svg version="1.1" id="Layer_1" xmlns="http://www.w3.org/2000/svg" xmlns:xlink="http://www.w3.org/1999/xlink" x="0px" y="0px"
	 width="64px" height="64px" viewBox="0 0 64 64" enable-background="new 0 0 64 64" xml:space="preserve">
<circle fill="#FDCA47" cx="32" cy="32" r="30"/>
<path fill="#F9B700" d="M51.654,9.346C56.226,14.611,59,21.48,59,29c0,16.568-13.432,30-30,30c-7.521,0-14.39-2.773-19.654-7.346
	C14.846,57.99,22.952,62,32,62c16.568,0,30-13.432,30-30C62,22.953,57.988,14.848,51.654,9.346z"/>
<path fill-rule="evenodd" clip-rule="evenodd" fill="#FFE8BB" d="M6.418,20.5C5.302,24.242,13,11,25,6.084
	C30.834,3.693,11.168,4.584,6.418,20.5z"/>
<path fill="#302C3B" d="M41.542,50.371c1.582-1.639-1.828-2.965-1.828-5.871c0-2.904,3.41-4.232,1.828-5.869
	c-1.894-1.963-6.021-0.479-8.581-3.131c0,2.152,1.805,4.5,5.18,4.5c0,0-2.294,0.926-2.294,4.5c0,3.576,2.294,4.5,2.294,4.5
	c-3.375,0-5.18,2.35-5.18,4.5C35.521,50.85,39.648,52.332,41.542,50.371z"/>
<circle fill="#302C3B" cx="20.498" cy="25.592" r="5"/>
<circle fill="#302C3B" cx="43.498" cy="25.592" r="5"/>
</svg>
