<?xml version="1.0" encoding="utf-8"?>
<!-- Generator: Adobe Illustrator 15.0.0, SVG Export Plug-In . SVG Version: 6.00 Build 0)  -->
<!DOCTYPE svg PUBLIC "-//W3C//DTD SVG 1.1//EN" "http://www.w3.org/Graphics/SVG/1.1/DTD/svg11.dtd">
<svg version="1.1" id="Layer_1" xmlns="http://www.w3.org/2000/svg" xmlns:xlink="http://www.w3.org/1999/xlink" x="0px" y="0px"
	 width="64px" height="64px" viewBox="0 0 64 64" enable-background="new 0 0 64 64" xml:space="preserve">
<circle fill="#FDCA47" cx="32" cy="32" r="30"/>
<path fill="#F9B700" d="M51.654,9.346C56.227,14.611,59,21.48,59,29c0,16.568-13.432,30-30,30c-7.521,0-14.389-2.773-19.654-7.346
	C14.847,57.99,22.952,62,32,62c16.568,0,30-13.432,30-30C62,22.953,57.989,14.848,51.654,9.346z"/>
<path fill-rule="evenodd" clip-rule="evenodd" fill="#FFE8BB" d="M6.418,20.5C5.302,24.242,13.001,11,25.001,6.084
	C30.834,3.693,11.168,4.584,6.418,20.5z"/>
<path fill="#302C3B" d="M28.526,28.855c-1.859-5.111-4.66-7.668-7.461-7.668s-5.602,2.557-7.46,7.668
	c-0.184,0.516,0.774,1.443,1.254,0.939c1.802-1.902,3.957-2.658,6.206-2.658c2.25,0,4.405,0.756,6.207,2.658
	C27.751,30.299,28.71,29.371,28.526,28.855z"/>
<path fill="#302C3B" d="M50.395,28.855c-1.859-5.111-4.66-7.668-7.461-7.668s-5.602,2.557-7.461,7.668
	c-0.184,0.516,0.775,1.443,1.254,0.939c1.803-1.902,3.957-2.658,6.207-2.658s4.404,0.756,6.207,2.658
	C49.619,30.299,50.578,29.371,50.395,28.855z"/>
<path fill="#302C3B" d="M39.543,50.371c1.582-1.637-1.828-2.965-1.828-5.869c0-2.906,3.41-4.232,1.828-5.871
	c-1.893-1.961-6.021-0.479-8.58-3.129c0,2.15,1.805,4.5,5.18,4.5c0,0-2.295,0.924-2.295,4.5c0,3.574,2.295,4.5,2.295,4.5
	c-3.375,0-5.18,2.348-5.18,4.5C33.521,50.85,37.65,52.334,39.543,50.371z"/>
<path fill="#917524" d="M10.422,20.077c3.538-3.878,9.32-6.535,12.904-6.169c0.757,0.076,1.657,2.674,1.018,2.69
	c-4.906,0.13-9.981,1.891-13.475,5.255C10.4,22.309,9.89,20.658,10.422,20.077z"/>
<path fill="#917524" d="M53.579,20.077c-3.538-3.878-9.32-6.535-12.904-6.169c-0.757,0.076-1.657,2.674-1.019,2.69
	c4.906,0.13,9.981,1.891,13.476,5.255C53.601,22.309,54.111,20.658,53.579,20.077z"/>
</svg>
