<?xml version="1.0" encoding="utf-8"?>
<!-- Generator: Adobe Illustrator 15.0.0, SVG Export Plug-In . SVG Version: 6.00 Build 0)  -->
<!DOCTYPE svg PUBLIC "-//W3C//DTD SVG 1.1//EN" "http://www.w3.org/Graphics/SVG/1.1/DTD/svg11.dtd">
<svg version="1.1" id="Layer_1" xmlns="http://www.w3.org/2000/svg" xmlns:xlink="http://www.w3.org/1999/xlink" x="0px" y="0px"
	 width="64px" height="64px" viewBox="0 0 64 64" enable-background="new 0 0 64 64" xml:space="preserve">
<circle fill="#FDCA47" cx="32" cy="32" r="30"/>
<path fill="#F9B700" d="M51.654,9.346C56.226,14.611,59,21.48,59,29c0,16.568-13.432,30-30,30c-7.521,0-14.389-2.773-19.654-7.346
	C14.846,57.99,22.952,62,32,62c16.568,0,30-13.432,30-30C62,22.953,57.989,14.848,51.654,9.346z"/>
<path fill-rule="evenodd" clip-rule="evenodd" fill="#FFE8BB" d="M6.418,20.5C5.302,24.242,13,11,25,6.084
	C30.834,3.693,11.168,4.584,6.418,20.5z"/>
<path fill="#302C3B" d="M12.525,28.085c3.421-5.299,12.496-5.35,15.95,0c0.197,0.311-0.828,1.602-1.34,1.298
	c-3.366-1.997-9.96-1.964-13.271,0C13.354,29.687,12.328,28.396,12.525,28.085z"/>
<path fill="#302C3B" d="M47.876,37c-0.32,0-6.65,2-15.875,2c-9.227,0-15.557-2-15.877-2c-0.732,0-1.125,0.508-1.125,1
	c0,7.271,5.961,15,17.002,15s17-7.729,17-15C49.001,37.508,48.609,37,47.876,37z"/>
<path fill="#F46C60" d="M22.001,44.85c0,0.893,0,2.389,0,3.994c0,8.758,4.479,13.152,10,13.156c5.521-0.004,10-4.398,10-13.156
	c0-1.605,0-3.102,0-3.994c0-5.233-10-2.847-10-2.847S22.001,39.616,22.001,44.85z"/>
<path fill="#E03636" d="M30.579,41.734l1.422,13.055l1.418-13.055c-0.855,0.135-1.418,0.269-1.418,0.269
	S31.435,41.869,30.579,41.734z"/>
<path fill="#E8A329" d="M54.251,24.925c0,6.351-5.152,11.5-11.5,11.5c-6.353,0-11.5-5.149-11.5-11.5c0-6.35,5.147-11.5,11.5-11.5
	C49.099,13.425,54.251,18.575,54.251,24.925z"/>
<path fill="#FFFFFF" d="M52.751,24.925c0,5.523-4.48,10-10,10c-5.523,0-10-4.477-10-10c0-5.522,4.477-10,10-10
	C48.271,14.925,52.751,19.402,52.751,24.925z"/>
<circle fill="#302C3B" cx="42.751" cy="24.925" r="4.5"/>
</svg>
