<?xml version="1.0" encoding="utf-8"?>
<!-- Generator: Adobe Illustrator 15.0.0, SVG Export Plug-In . SVG Version: 6.00 Build 0)  -->
<!DOCTYPE svg PUBLIC "-//W3C//DTD SVG 1.1//EN" "http://www.w3.org/Graphics/SVG/1.1/DTD/svg11.dtd">
<svg version="1.1" id="Layer_1" xmlns="http://www.w3.org/2000/svg" xmlns:xlink="http://www.w3.org/1999/xlink" x="0px" y="0px"
	 width="64px" height="64px" viewBox="0 0 64 64" enable-background="new 0 0 64 64" xml:space="preserve">
<circle fill="#FDCA47" cx="32" cy="32" r="30"/>
<path fill="#F9B700" d="M51.654,9.346C56.226,14.611,59,21.48,59,29c0,16.568-13.432,30-30,30c-8.84,0-15.562-3.791-19.654-7.346
	C14.847,57.99,22.952,62,32,62c16.568,0,30-13.432,30-30C62,22.953,57.989,14.848,51.654,9.346z"/>
<path fill-rule="evenodd" clip-rule="evenodd" fill="#FFE8BB" d="M6.418,20.5C5.302,24.242,13.001,11,25.001,6.084
	C30.834,3.693,11.168,4.584,6.418,20.5z"/>
<ellipse fill="#302C3B" cx="20.499" cy="28.59" rx="4.5" ry="6.5"/>
<ellipse fill="#302C3B" cx="43.501" cy="28.59" rx="4.5" ry="6.5"/>
<path fill="#302C3B" d="M40.989,49.092c-5.793-4.801-12.219-4.771-17.977,0c-0.693,0.572-1.318-0.422-0.85-1.34
	c1.756-3.434,5.299-6.492,9.838-6.492s8.082,3.059,9.836,6.492C42.308,48.67,41.683,49.664,40.989,49.092z"/>
<path fill="#917524" d="M14.456,19.889c5.243,0.237,11.211-1.973,13.488-4.765c0.478-0.591-0.721-3.061-1.184-2.622
	c-3.561,3.379-8.396,5.719-13.247,5.811C12.863,18.325,13.669,19.854,14.456,19.889z"/>
<path fill="#917524" d="M49.544,19.887c-5.242,0.238-11.209-1.971-13.486-4.764c-0.48-0.588,0.722-3.062,1.185-2.621
	c3.56,3.376,8.396,5.719,13.245,5.81C51.14,18.323,50.333,19.853,49.544,19.887z"/>
</svg>
