<?xml version="1.0" encoding="utf-8"?>
<!-- Generator: Adobe Illustrator 15.0.0, SVG Export Plug-In . SVG Version: 6.00 Build 0)  -->
<!DOCTYPE svg PUBLIC "-//W3C//DTD SVG 1.1//EN" "http://www.w3.org/Graphics/SVG/1.1/DTD/svg11.dtd">
<svg version="1.1" id="Layer_1" xmlns="http://www.w3.org/2000/svg" xmlns:xlink="http://www.w3.org/1999/xlink" x="0px" y="0px"
	 width="64px" height="64px" viewBox="0 0 64 64" enable-background="new 0 0 64 64" xml:space="preserve">
<circle fill="#FDCA47" cx="32" cy="32" r="30"/>
<path fill="#F9B700" d="M51.654,9.346C56.226,14.611,59,21.48,59,29c0,16.568-13.432,30-30,30c-7.521,0-14.389-2.773-19.654-7.346
	C14.846,57.99,22.952,62,32,62c16.568,0,30-13.432,30-30C62,22.953,57.989,14.848,51.654,9.346z"/>
<path fill-rule="evenodd" clip-rule="evenodd" fill="#FFE8BB" d="M6.418,20.5C5.302,24.242,13,11,25,6.084
	C30.834,3.693,11.168,4.584,6.418,20.5z"/>
<path fill="#302C3B" d="M28.086,29.533c-4.213,7.953-12.695,7.951-16.91,0c-0.209-0.4,0.34-0.58,1.01-1.035
	c4.225,3.32,11.059,3.014,14.891,0.002C27.746,28.953,28.293,29.133,28.086,29.533z"/>
<path fill="#302C3B" d="M52.824,29.533c-4.215,7.953-12.697,7.951-16.912,0c-0.207-0.4,0.34-0.58,1.01-1.035
	c4.225,3.32,11.059,3.014,14.891,0.002C52.482,28.953,53.031,29.133,52.824,29.533z"/>
<path fill="#302C3B" d="M41.659,48.564c-1.057-2.051-3.624-3.425-9.66-3.425c-6.035,0-8.601,1.374-9.659,3.425
	c-0.564,1.096-0.388,2.025,0.243,2.283c2.106,0.86,4.19-0.456,9.417-0.456c5.216,0,7.31,1.316,9.415,0.456
	C42.047,50.591,42.224,49.66,41.659,48.564z"/>
<path fill="#E8A329" d="M34.739,38.796c-1.77,0.63,6.922,2.611,9.832,15.374c0.391,1.713,0.986,3.106,1.721,4.212
	c8.021-4.121,8.582-8.411,8.582-8.411S35.64,38.475,34.739,38.796z"/>
<path fill="#75D6FF" d="M56.894,42.863c-7.369-5.684-21.193-4.73-22.461-4.064c-1.664,0.871,7.219,1.617,11.885,13.848
	C52.052,67.674,70.985,53.73,56.894,42.863z"/>
<path opacity="0.3" fill="#0FB4D4" d="M61.64,49.081c-1.002,6.433-10.207,10.574-15.345,1.161
	c-3.987-7.309-9.035-9.783-11.791-10.896c1.42,0.998,8.015,3.342,11.813,13.301C50.979,64.86,64.357,57.938,61.64,49.081z"/>
<path opacity="0.5" fill="#FFFFFF" d="M59.647,49.51c-0.751,5.098-4.188-5.124-10.533-8.57C44.89,38.646,60.544,43.428,59.647,49.51
	z"/>
<path fill="#917524" d="M56.812,24.599c-3.188-4.168-8.717-7.32-12.318-7.269c-0.761,0.012-1.883,2.519-1.248,2.592
	c4.877,0.557,9.777,2.756,12.965,6.412C56.64,26.825,57.29,25.225,56.812,24.599z"/>
<path fill="#917524" d="M7.189,24.602c3.186-4.171,8.715-7.322,12.316-7.271c0.76,0.01,1.883,2.52,1.248,2.591
	c-4.875,0.559-9.778,2.756-12.965,6.412C7.361,26.828,6.708,25.227,7.189,24.602z"/>
</svg>
