<?xml version="1.0" encoding="utf-8"?>
<!-- Generator: Adobe Illustrator 15.0.0, SVG Export Plug-In . SVG Version: 6.00 Build 0)  -->
<!DOCTYPE svg PUBLIC "-//W3C//DTD SVG 1.1//EN" "http://www.w3.org/Graphics/SVG/1.1/DTD/svg11.dtd">
<svg version="1.1" id="Layer_1" xmlns="http://www.w3.org/2000/svg" xmlns:xlink="http://www.w3.org/1999/xlink" x="0px" y="0px"
	 width="64px" height="64px" viewBox="0 0 64 64" enable-background="new 0 0 64 64" xml:space="preserve">
<circle fill="#FDCA47" cx="32" cy="32" r="30"/>
<path fill="#F9B700" d="M51.654,9.346C56.226,14.612,59,21.481,59,29c0,16.568-13.432,30-30,30c-7.521,0-14.39-2.773-19.654-7.346
	C14.847,57.99,22.952,62,32,62c16.568,0,30-13.432,30-30C62,22.954,57.989,14.848,51.654,9.346z"/>
<path fill-rule="evenodd" clip-rule="evenodd" fill="#FFE8BB" d="M6.418,20.5C5.302,24.243,13.001,11,25.001,6.084
	C30.834,3.694,11.168,4.584,6.418,20.5z"/>
<circle fill="#302C3B" cx="20.5" cy="26" r="5"/>
<circle fill="#302C3B" cx="43.5" cy="26" r="5"/>
<path fill="#302C3B" d="M42.927,46.771C43.614,42.62,38.828,38,31.999,38c-6.826,0-11.698,4.651-10.926,8.771
	c0.732,3.906,5.732,1.458,10.928,1.464C37.384,48.238,42.277,50.701,42.927,46.771z"/>
</svg>
