<?xml version="1.0" encoding="utf-8"?>
<!-- Generator: Adobe Illustrator 15.0.0, SVG Export Plug-In . SVG Version: 6.00 Build 0)  -->
<!DOCTYPE svg PUBLIC "-//W3C//DTD SVG 1.1//EN" "http://www.w3.org/Graphics/SVG/1.1/DTD/svg11.dtd">
<svg version="1.1" id="Layer_1" xmlns="http://www.w3.org/2000/svg" xmlns:xlink="http://www.w3.org/1999/xlink" x="0px" y="0px"
	 width="64px" height="64px" viewBox="0 0 64 64" enable-background="new 0 0 64 64" xml:space="preserve">
<circle fill="#FDCA47" cx="32" cy="32" r="30"/>
<path fill="#F9B700" d="M51.654,9.346C56.225,14.611,59,21.48,59,29c0,16.568-13.432,30-30,30c-7.521,0-14.391-2.773-19.654-7.346
	C14.846,57.99,22.951,62,32,62c16.568,0,30-13.432,30-30C62,22.953,57.988,14.848,51.654,9.346z"/>
<path fill-rule="evenodd" clip-rule="evenodd" fill="#FFE8BB" d="M6.418,20.5C5.301,24.242,13,11,25,6.084
	C30.834,3.693,11.168,4.584,6.418,20.5z"/>
<path fill="#E8A329" d="M28.361,27.774c1.158,4.723,0.35,14.473-3.584,20.865c7.557,0.565,7.932,10.482,3.814,13.169
	C9.752,59.58,18.793,51.913,28.361,27.774z"/>
<path fill="#E8A329" d="M35.637,27.774c-1.158,4.723-0.348,14.473,3.584,20.865c-7.557,0.565-7.932,10.482-3.813,13.169
	C54.248,59.58,45.205,51.913,35.637,27.774z"/>
<path fill="#302C3B" d="M21.213,44.91c6.949-4.799,14.662-4.771,21.57,0c0.834,0.575,1.584-0.42,1.02-1.339
	c-2.105-3.434-6.359-6.491-11.805-6.491s-9.697,3.058-11.805,6.491C19.631,44.49,20.381,45.485,21.213,44.91z"/>
<path fill="#FFFFFF" d="M12.963,43.04c9.998-4.691,15.221-14.255,15.221-14.255s-1.113,11.188-6.975,19.616
	c14.293,3.253,6.268,18.086-3.332,9.964c-5.871,4.519-12.916-1.019-12.693-7.724C-1.061,41.489,8.836,37.542,12.963,43.04z"/>
<path fill="#CFD8DD" d="M22.707,47.921c0,0,5.223-7.424,5.654-20.146c-7.275,10.473-15.311,14.229-15.311,14.229
	c-3.643-3.759-9.539-3.117-10.826,1.864c-0.574,2.223-0.127,4.616,2.242,6.904c-0.998,2.904,0.494,7.995,5.807,9.938
	c2.623,0.961,5.381,0.6,7.311-0.929c2.465,2.712,7.254,3.397,10.293-0.579C30.984,55.134,29.906,49.073,22.707,47.921z
	 M26.336,56.995c-3.285,5.5-11.273,0.59-11.465-4.945c-0.002,0.01-0.008,0.02-0.008,0.03c-0.486,3.79,1.574,5.922,1.574,5.922
	c-4.352,3.37-11.182-1.614-9.904-6.884c1.344,0.389,2.67,0.34,3.807-0.073c-5.92-1.053-7.055-4.993-5.389-7.397
	c1.912-2.756,6.301-2.23,7.988,1.028c0,0,8.678-4.897,13.76-12.314c-1.375,8-7.1,16.931-7.1,16.931
	C24.945,49.397,28.777,52.911,26.336,56.995z"/>
<path fill="#FFFFFF" d="M51.035,43.04c-9.998-4.691-15.221-14.255-15.221-14.255s1.113,11.188,6.977,19.616
	c-14.293,3.253-6.27,18.086,3.33,9.964c5.871,4.519,12.918-1.019,12.693-7.724C65.059,41.489,55.162,37.542,51.035,43.04z"/>
<path fill="#CFD8DD" d="M36.121,59.202c3.041,3.977,7.83,3.291,10.295,0.579c1.928,1.528,4.686,1.89,7.311,0.929
	c5.311-1.942,6.805-7.033,5.805-9.938c2.369-2.288,2.818-4.682,2.242-6.904c-1.287-4.981-7.184-5.623-10.826-1.864
	c0,0-8.033-3.757-15.311-14.229c0.434,12.723,5.654,20.146,5.654,20.146C34.092,49.073,33.014,55.134,36.121,59.202z M44.398,49.292
	c0,0-5.725-8.931-7.1-16.931c5.084,7.417,13.76,12.314,13.76,12.314c1.689-3.259,6.078-3.784,7.99-1.028
	c1.666,2.404,0.529,6.345-5.389,7.397c1.137,0.413,2.463,0.462,3.807,0.073c1.277,5.27-5.553,10.254-9.904,6.884
	c0,0,2.059-2.132,1.574-5.922c-0.002-0.011-0.006-0.021-0.008-0.03c-0.193,5.535-8.182,10.445-11.467,4.945
	C35.223,52.911,39.053,49.397,44.398,49.292z"/>
<ellipse transform="matrix(-0.1737 -0.9848 0.9848 -0.1737 -11.3807 50.4508)" opacity="0.5" fill="#EA8800" cx="15.476" cy="30" rx="7.962" ry="9.099"/>
<ellipse transform="matrix(-0.1736 -0.9848 0.9848 -0.1736 -10.3977 49.2751)" opacity="0.5" fill="#EA8800" cx="15.475" cy="29" rx="5.251" ry="6.001"/>
<ellipse transform="matrix(0.1737 -0.9848 0.9848 0.1737 10.5526 72.5765)" opacity="0.5" fill="#EA8800" cx="48.524" cy="30" rx="7.962" ry="9.099"/>
<ellipse transform="matrix(0.1736 -0.9848 0.9848 0.1736 11.5404 71.7529)" opacity="0.5" fill="#EA8800" cx="48.525" cy="29" rx="5.251" ry="6.001"/>
<path fill="#302C3B" d="M35.912,21.034c4.213,7.953,12.697,7.951,16.912,0c0.207-0.4-0.34-0.58-1.012-1.035
	c-4.225,3.32-11.057,3.014-14.891,0.002C36.252,20.454,35.705,20.634,35.912,21.034z"/>
<path fill="#302C3B" d="M11.174,21.034c4.215,7.953,12.697,7.951,16.912,0c0.207-0.4-0.34-0.58-1.01-1.035
	c-4.225,3.32-11.061,3.014-14.893,0.002C11.514,20.454,10.967,20.634,11.174,21.034z"/>
<path fill="#917524" d="M48.696,11.74c-5.243-0.237-11.21,1.972-13.486,4.765c-0.479,0.591,0.72,3.061,1.184,2.621
	c3.56-3.377,8.396-5.719,13.245-5.81C50.291,13.304,49.484,11.774,48.696,11.74z"/>
<path fill="#917524" d="M15.299,11.743c5.244-0.241,11.211,1.971,13.486,4.763c0.482,0.588-0.719,3.062-1.182,2.62
	c-3.562-3.376-8.396-5.719-13.245-5.81C13.705,13.307,14.513,11.776,15.299,11.743z"/>
</svg>
