<?xml version="1.0" encoding="utf-8"?>
<!-- Generator: Adobe Illustrator 15.0.0, SVG Export Plug-In . SVG Version: 6.00 Build 0)  -->
<!DOCTYPE svg PUBLIC "-//W3C//DTD SVG 1.1//EN" "http://www.w3.org/Graphics/SVG/1.1/DTD/svg11.dtd">
<svg version="1.1" id="Layer_1" xmlns="http://www.w3.org/2000/svg" xmlns:xlink="http://www.w3.org/1999/xlink" x="0px" y="0px"
	 width="64px" height="64px" viewBox="0 0 64 64" enable-background="new 0 0 64 64" xml:space="preserve">
<circle fill="#FDCA47" cx="32" cy="32" r="30"/>
<path fill="#F9B700" d="M51.654,9.346C56.227,14.611,59,21.48,59,29c0,16.568-13.432,30-30,30c-7.521,0-14.389-2.773-19.654-7.346
	C14.846,57.99,22.952,62,32,62c16.568,0,30-13.432,30-30C62,22.953,57.988,14.848,51.654,9.346z"/>
<path fill-rule="evenodd" clip-rule="evenodd" fill="#FFE8BB" d="M6.418,20.5C5.302,24.242,13,11,25,6.084
	C30.834,3.693,11.168,4.584,6.418,20.5z"/>
<path fill="#302C3B" d="M37.497,35c0,5.333,12,5.333,12,0C49.497,29.666,37.497,29.666,37.497,35z"/>
<path fill="#302C3B" d="M14.497,35c0,5.333,12,5.333,12,0S14.497,29.667,14.497,35z"/>
<path fill="#302C3B" d="M40.989,52.299c-4.453-2.307-14.075-2.021-17.977,0c-0.693,0.357-1.318-1.037-0.85-1.609
	c1.756-2.148,5.298-3.703,9.837-3.703s8.083,1.555,9.837,3.703C42.308,51.262,41.683,52.656,40.989,52.299z"/>
<path fill="#E8A329" d="M9.627,37.635c3.57,4.689,5.623,9.004,5.623,12.547c0,1.97-1.079,3.696-2.694,4.654
	c-1.297-1.018-2.592-2.479-2.592-2.479S6.112,42.249,9.627,37.635z"/>
<path fill="#75D6FF" d="M8.54,32.635c4.15,5.45,6.536,10.465,6.536,14.583c0,3.498-2.929,6.338-6.538,6.338
	C4.926,53.556,2,50.716,2,47.218C2,43.1,4.455,37.998,8.54,32.635z"/>
<path opacity="0.3" fill="#0FB4D4" d="M3.542,40.868C3.269,41.974,3.12,43.029,3.12,44.03c0,3.498,2.905,6.341,6.487,6.341
	c2.287,0,4.288-1.165,5.444-2.908c-0.135,3.384-2.989,6.093-6.514,6.093C4.926,53.556,2,50.716,2,47.218
	C2,45.291,2.556,43.146,3.542,40.868z"/>
<path opacity="0.5" fill="#FFFFFF" d="M12.043,43.504c2.154-0.646-2.102-7.326-3.021-8.502C8.187,33.94,8.086,44.685,12.043,43.504z
	"/>
<path fill="#917524" d="M11.456,26.284c5.243,0.237,11.211-1.973,13.487-4.765c0.478-0.591-0.72-3.061-1.184-2.622
	c-3.561,3.379-8.396,5.719-13.247,5.811C9.862,24.721,10.668,26.249,11.456,26.284z"/>
<path fill="#917524" d="M52.544,26.282c-5.243,0.238-11.211-1.971-13.487-4.764c-0.48-0.588,0.722-3.062,1.185-2.621
	c3.561,3.376,8.396,5.719,13.245,5.81C54.139,24.719,53.331,26.248,52.544,26.282z"/>
</svg>
