<?xml version="1.0" encoding="utf-8"?>
<!-- Generator: Adobe Illustrator 15.0.0, SVG Export Plug-In . SVG Version: 6.00 Build 0)  -->
<!DOCTYPE svg PUBLIC "-//W3C//DTD SVG 1.1//EN" "http://www.w3.org/Graphics/SVG/1.1/DTD/svg11.dtd">
<svg version="1.1" id="Layer_1" xmlns="http://www.w3.org/2000/svg" xmlns:xlink="http://www.w3.org/1999/xlink" x="0px" y="0px"
	 width="64px" height="64px" viewBox="0 0 64 64" enable-background="new 0 0 64 64" xml:space="preserve">
<circle fill="#FDCA47" cx="32" cy="31.999" r="30"/>
<path fill="#F9B700" d="M51.654,9.345C56.225,14.61,59,21.48,59,29c0,16.567-13.432,29.999-30,29.999
	c-7.521,0-14.391-2.773-19.654-7.346c5.5,6.336,13.605,10.346,22.654,10.346c16.569,0,30-13.432,30-29.999
	C62,22.953,57.988,14.848,51.654,9.345z"/>
<path fill-rule="evenodd" clip-rule="evenodd" fill="#FFE8BB" d="M6.417,20.5C5.3,24.242,13,10.999,25,6.083
	C30.833,3.692,11.167,4.583,6.417,20.5z"/>
<path fill="#FFFFFF" d="M54,30.998c0,4.972-4.031,9.001-9,9.001c-4.971,0-9-4.029-9-9.001c0-4.967,4.029-9,9-9
	C49.969,21.998,54,26.031,54,30.998z"/>
<circle fill="#302C3B" cx="45" cy="30.998" r="6"/>
<ellipse fill="#FFFFFF" cx="46.552" cy="35.468" rx="2.812" ry="3.25"/>
<ellipse fill="#FFFFFF" cx="42.779" cy="30.998" rx="1.645" ry="1.902"/>
<path fill="#FFFFFF" d="M28,30.998c0,4.972-4.031,9.001-9,9.001c-4.971,0-9-4.029-9-9.001c0-4.967,4.029-9,9-9
	C23.968,21.998,28,26.031,28,30.998z"/>
<circle fill="#302C3B" cx="19" cy="30.998" r="6"/>
<ellipse fill="#FFFFFF" cx="20.55" cy="35.468" rx="2.811" ry="3.25"/>
<ellipse fill="#FFFFFF" cx="16.778" cy="30.998" rx="1.644" ry="1.902"/>
<path fill="#302C3B" d="M40.988,49.888c-4.453-2.307-14.075-2.021-17.977,0c-0.693,0.357-1.318-1.037-0.85-1.609
	c1.756-2.148,5.299-3.703,9.838-3.703c4.54,0,8.083,1.555,9.836,3.703C42.307,48.851,41.682,50.245,40.988,49.888z"/>
<path fill="#75D6FF" d="M46.996,36.001C41.92,42.772,39,49.007,39,54.124c0,4.348,3.582,7.877,8,7.877c4.42,0,8-3.529,8-7.877
	C55,49.007,51.996,42.665,46.996,36.001z"/>
<path opacity="0.3" fill="#0FB4D4" d="M53.111,46.233c0.336,1.373,0.518,2.684,0.518,3.928c0,4.35-3.555,7.883-7.938,7.883
	c-2.799,0-5.246-1.447-6.662-3.615c0.166,4.205,3.658,7.572,7.971,7.572c4.42,0,8-3.529,8-7.877
	C55,51.729,54.318,49.063,53.111,46.233z"/>
<path opacity="0.5" fill="#FFFFFF" d="M42.709,49.509c-2.635-0.803,2.572-9.105,3.697-10.566
	C47.43,37.622,47.553,50.974,42.709,49.509z"/>
<path fill="#917524" d="M54.344,18.995c-4.158-3.201-10.314-4.814-13.781-3.832c-0.73,0.207-1.166,2.92-0.533,2.826
	c4.854-0.725,10.156,0.131,14.182,2.838C54.752,21.19,54.969,19.476,54.344,18.995z"/>
<path fill="#917524" d="M9.655,18.997c4.157-3.203,10.313-4.816,13.779-3.834c0.731,0.207,1.167,2.922,0.534,2.826
	c-4.854-0.723-10.158,0.131-14.182,2.838C9.246,21.192,9.029,19.478,9.655,18.997z"/>
</svg>
