<?xml version="1.0" encoding="utf-8"?>
<!-- Generator: Adobe Illustrator 15.0.0, SVG Export Plug-In . SVG Version: 6.00 Build 0)  -->
<!DOCTYPE svg PUBLIC "-//W3C//DTD SVG 1.1//EN" "http://www.w3.org/Graphics/SVG/1.1/DTD/svg11.dtd">
<svg version="1.1" id="Layer_1" xmlns="http://www.w3.org/2000/svg" xmlns:xlink="http://www.w3.org/1999/xlink" x="0px" y="0px"
	 width="64px" height="64px" viewBox="0 0 64 64" enable-background="new 0 0 64 64" xml:space="preserve">
<circle fill="#FDCA47" cx="32" cy="32" r="30"/>
<path fill="#F9B700" d="M51.654,9.346C56.227,14.611,59,21.48,59,29c0,16.568-13.432,30-30,30c-7.521,0-14.389-2.773-19.654-7.346
	C14.846,57.99,22.952,62,32,62c16.568,0,30-13.432,30-30C62,22.953,57.988,14.848,51.654,9.346z"/>
<path fill-rule="evenodd" clip-rule="evenodd" fill="#FFE8BB" d="M6.418,20.5C5.302,24.242,13,11,25,6.084
	C30.834,3.693,11.168,4.584,6.418,20.5z"/>
<path fill="#302C3B" d="M40.988,51.809c-5.793-4.799-12.219-4.771-17.977,0c-0.693,0.574-1.318-1.137-0.848-2.055
	c1.754-3.436,5.299-6.492,9.836-6.492c4.539,0,8.082,3.057,9.836,6.492C42.307,50.672,41.682,52.383,40.988,51.809z"/>
<path fill="#917524" d="M9.456,22.181c5.242,0.237,11.211-1.973,13.487-4.765c0.478-0.591-0.72-3.061-1.184-2.622
	c-3.561,3.379-8.396,5.719-13.247,5.811C7.862,20.617,8.669,22.146,9.456,22.181z"/>
<path fill="#917524" d="M54.543,22.179c-5.242,0.238-11.209-1.971-13.486-4.764c-0.48-0.588,0.721-3.062,1.184-2.621
	c3.561,3.376,8.396,5.719,13.246,5.81C56.139,20.615,55.332,22.145,54.543,22.179z"/>
<path fill="#302C3B" d="M49.561,26.123c0.627-0.221,0.99,0.866,0.6,1.158c-4.6,3.41-7.391,6.28-7.391,6.28s3.871,1.438,8.73,4.71
	c0.52,0.349-0.258,1.631-0.703,1.477c-8.057-2.772-12.729-3.422-16.004-3.799c-0.482-0.056-0.674-0.416-0.348-0.772
	C36.99,32.386,42.297,28.675,49.561,26.123z"/>
<path fill="#302C3B" d="M14.439,26.122c-0.628-0.221-0.991,0.867-0.6,1.158c4.6,3.41,7.39,6.281,7.39,6.281s-3.872,1.438-8.73,4.709
	c-0.52,0.349,0.257,1.631,0.705,1.477c8.056-2.773,12.728-3.422,16.003-3.8c0.482-0.056,0.672-0.416,0.348-0.772
	C27.01,32.386,21.702,28.675,14.439,26.122z"/>
</svg>
