<?xml version="1.0" encoding="utf-8"?>
<!-- Generator: Adobe Illustrator 15.0.0, SVG Export Plug-In . SVG Version: 6.00 Build 0)  -->
<!DOCTYPE svg PUBLIC "-//W3C//DTD SVG 1.1//EN" "http://www.w3.org/Graphics/SVG/1.1/DTD/svg11.dtd">
<svg version="1.1" id="Layer_1" xmlns="http://www.w3.org/2000/svg" xmlns:xlink="http://www.w3.org/1999/xlink" x="0px" y="0px"
	 width="64px" height="64px" viewBox="0 0 64 64" enable-background="new 0 0 64 64" xml:space="preserve">
<ellipse fill="#0FB4D4" cx="17.472" cy="59.895" rx="12.472" ry="1.5"/>
<ellipse fill="#0FB4D4" cx="43.952" cy="60.197" rx="18.048" ry="1.803"/>
<circle fill="#FDCA47" cx="32" cy="32" r="30"/>
<path fill="#F9B700" d="M51.654,9.346C56.225,14.612,59,21.481,59,29c0,16.568-13.432,30-30,30c-7.521,0-14.391-2.773-19.654-7.346
	C14.846,57.99,22.952,62,32,62c16.568,0,30-13.432,30-30C62,22.954,57.988,14.848,51.654,9.346z"/>
<path fill-rule="evenodd" clip-rule="evenodd" fill="#FFE8BB" d="M6.418,20.5C5.301,24.243,13,11,25,6.084
	C30.834,3.694,11.168,4.584,6.418,20.5z"/>
<path fill="#302C3B" d="M44.736,46c-1.395-3.594-4.779-6-12.738-6c-7.955,0-11.342,2.406-12.734,6c-0.744,1.92,0.32,5,0.32,5
	c3.156,9.219,7.316,0,12.416,0c5.083,0,9.259,9.219,12.414,0C44.414,51,45.48,47.92,44.736,46z"/>
<path fill="#FFFFFF" d="M40.973,44.965c0.072-0.26-0.004-0.619-0.17-0.797c0,0-2.012-2.168-8.804-2.168
	c-6.791,0-8.801,2.168-8.801,2.168c-0.164,0.178-0.242,0.537-0.172,0.797l0.154,0.563C23.252,45.787,23.487,46,23.704,46h16.591
	c0.217,0,0.453-0.213,0.523-0.473L40.973,44.965z"/>
<path fill="#0FB4D4" d="M44.432,60.469c2.279,0,4.557,0,6.834,0c8.201-9.916-1.543-20.025,0.898-29.799l-6.834,2.545
	C42.18,42.705,52.633,50.553,44.432,60.469z"/>
<path fill="#75D6FF" d="M50.221,46.508c2.854,4.219-1.563-7.625-0.01-14.188l-3.188,1.207
	C45.908,39.133,48.666,44.207,50.221,46.508z"/>
<path fill="#0FB4D4" d="M53.414,60.602c-2.943,0-2.943-4.416,0-4.416S56.357,60.602,53.414,60.602z"/>
<path fill="#0FB4D4" d="M45.83,60.936c-2.943,0-2.943-4.416,0-4.416C48.775,56.52,48.775,60.936,45.83,60.936z"/>
<path fill="#75D6FF" d="M51.205,58.07c0.791-3.604-1.047-3.75-2.609-0.33c-1.959-0.768-2.855,2.605-0.627,2.605
	c0.689,0,2.416,0,3.104,0C53.377,60.346,52.627,57.414,51.205,58.07z"/>
<path fill="#0FB4D4" d="M19.567,60.469c-2.279,0-4.557,0-6.834,0c-8.201-9.916,1.543-20.025-0.898-29.799l6.834,2.545
	C21.819,42.705,11.366,50.553,19.567,60.469z"/>
<path fill="#75D6FF" d="M12.793,48.445c-2.854,4.219,2.547-9.563,0.994-16.125l3.189,1.207C18.09,39.133,14.35,46.145,12.793,48.445
	z"/>
<path fill="#0FB4D4" d="M10.584,60.602c2.945,0,2.945-4.416,0-4.416C7.641,56.186,7.641,60.602,10.584,60.602z"/>
<path fill="#0FB4D4" d="M18.168,60.936c2.943,0,2.943-4.416,0-4.416S15.225,60.936,18.168,60.936z"/>
<path fill="#75D6FF" d="M12.793,58.07c-0.791-3.604,1.047-3.75,2.609-0.33c1.959-0.768,2.855,2.605,0.627,2.605
	c-0.688,0-2.414,0-3.104,0C10.622,60.346,11.372,57.414,12.793,58.07z"/>
<path fill="#0FB4D4" d="M59.885,50.594c-2.77,0.996-4.766-4.555-1.996-5.551C60.66,44.047,62.656,49.596,59.885,50.594z"/>
<path fill-rule="evenodd" clip-rule="evenodd" fill="#75D6FF" d="M57.338,48.758c0.467,0.662,0.563-1.213,0.781-2.904
	C58.26,44.766,55.928,46.764,57.338,48.758z"/>
<path fill="#0FB4D4" d="M3.567,44.863c-2.859-0.701-1.455-6.43,1.404-5.729S6.426,45.564,3.567,44.863z"/>
<path fill-rule="evenodd" clip-rule="evenodd" fill="#75D6FF" d="M2.458,41.926c0.023,0.811,1.141-0.699,2.256-1.988
	C5.432,39.109,2.385,39.484,2.458,41.926z"/>
<path fill="#302C3B" d="M35.914,30.275c4.213,7.953,12.695,7.951,16.91,0c0.209-0.4-0.34-0.58-1.01-1.035
	c-4.225,3.32-11.059,3.013-14.891,0.002C36.254,29.696,35.707,29.875,35.914,30.275z"/>
<path fill="#302C3B" d="M11.176,30.275c4.215,7.953,12.697,7.951,16.912,0c0.207-0.4-0.34-0.58-1.01-1.035
	c-4.225,3.32-11.061,3.013-14.893,0.002C11.516,29.696,10.969,29.875,11.176,30.275z"/>
<path fill="#917524" d="M11.454,25.169c5.242,0.237,11.211-1.973,13.488-4.765c0.477-0.591-0.721-3.061-1.184-2.622
	c-3.561,3.379-8.396,5.719-13.248,5.811C9.86,23.606,10.667,25.134,11.454,25.169z"/>
<path fill="#917524" d="M52.541,25.167c-5.242,0.238-11.209-1.971-13.486-4.764c-0.48-0.588,0.721-3.062,1.184-2.621
	c3.561,3.376,8.396,5.719,13.246,5.81C54.137,23.604,53.33,25.133,52.541,25.167z"/>
</svg>
