<?xml version="1.0" encoding="utf-8"?>
<!-- Generator: Adobe Illustrator 15.0.0, SVG Export Plug-In . SVG Version: 6.00 Build 0)  -->
<!DOCTYPE svg PUBLIC "-//W3C//DTD SVG 1.1//EN" "http://www.w3.org/Graphics/SVG/1.1/DTD/svg11.dtd">
<svg version="1.1" id="Layer_1" xmlns="http://www.w3.org/2000/svg" xmlns:xlink="http://www.w3.org/1999/xlink" x="0px" y="0px"
	 width="64px" height="64px" viewBox="0 0 64 64" enable-background="new 0 0 64 64" xml:space="preserve">
<circle fill="#FDCA47" cx="32" cy="32" r="30"/>
<path fill="#F9B700" d="M51.654,9.346C56.226,14.611,59,21.48,59,29c0,16.568-13.432,30-30,30c-7.521,0-14.39-2.773-19.654-7.346
	C14.847,57.99,22.952,62,32,62c16.568,0,30-13.432,30-30C62,22.953,57.989,14.848,51.654,9.346z"/>
<path fill-rule="evenodd" clip-rule="evenodd" fill="#FFE8BB" d="M6.418,20.5C5.302,24.242,13.001,11,25.001,6.084
	C30.834,3.693,11.168,4.584,6.418,20.5z"/>
<path fill="#302C3B" d="M35.84,20.789c2.01,8.771,10.205,10.965,16.334,4.377c0.305-0.334-0.178-0.648-0.707-1.262
	c-4.941,2.113-11.463,0.049-14.385-3.852C36.318,20.316,35.742,20.348,35.84,20.789z"/>
<path fill="#302C3B" d="M11.826,25.166c6.129,6.592,14.322,4.395,16.336-4.377c0.096-0.441-0.479-0.473-1.244-0.738
	c-3.221,4.299-9.902,5.771-14.383,3.855C12.006,24.518,11.521,24.832,11.826,25.166z"/>
<path fill="#302C3B" d="M32,32c-8.838-0.064-15.945,5.437-16,12.284c-0.033,3.789,1.33,9.467,5.57,9.498
	c3.076,0.023,6.484-3.809,10.43-3.783c3.9,0.029,7.121,3.982,10.172,4c3.75,0.027,5.799-5.654,5.828-9.482
	C48.059,37.673,40.834,32.066,32,32z"/>
<path fill="#1A1626" d="M39,43.196c0-3.082-3.012-4.9-4.848-4.947c-0.676-0.016-1.717,0.564-1.334,2.105
	c0.189,0.775,1.389,1.715,1.389,2.967c0,2.547-4.41,2.547-4.41,0c0-1.252,1.197-2.191,1.389-2.967
	c0.379-1.541-0.66-2.121-1.338-2.105C28.014,38.296,25,40.114,25,43.196c0,1.92,0.967,3.402,2.482,4.553h9.037
	C38.035,46.599,39,45.116,39,43.196z"/>
<path fill="#F46C60" d="M32,45.999c-6,0-8,5-8,5s4-3,8-3s8,3,8,3S38,45.999,32,45.999z"/>
<path fill="#FFFFFF" d="M41.75,37.038c-2.467-1.883-5.65-3.039-9.75-3.039c-4.098,0-7.283,1.156-9.75,3.039
	c-0.396,0.303-0.352,0.961,0.348,0.961c2.352,0,9.402,0,9.402,0s7.051,0,9.402,0C42.102,37.999,42.146,37.341,41.75,37.038z"/>
<path fill="#917524" d="M15.194,17.461c5.204-0.677,10.698-3.89,12.455-7.034c0.368-0.665-1.24-2.89-1.621-2.377
	c-2.92,3.945-7.275,7.09-12.036,8.022C13.354,16.197,14.413,17.563,15.194,17.461z"/>
<path fill="#917524" d="M48.805,17.458c-5.204-0.675-10.697-3.887-12.454-7.032c-0.371-0.663,1.242-2.891,1.621-2.376
	c2.92,3.942,7.275,7.09,12.035,8.021C50.647,16.196,49.587,17.562,48.805,17.458z"/>
</svg>
