<?xml version="1.0" encoding="utf-8"?>
<!-- Generator: Adobe Illustrator 15.0.0, SVG Export Plug-In . SVG Version: 6.00 Build 0)  -->
<!DOCTYPE svg PUBLIC "-//W3C//DTD SVG 1.1//EN" "http://www.w3.org/Graphics/SVG/1.1/DTD/svg11.dtd">
<svg version="1.1" id="Layer_1" xmlns="http://www.w3.org/2000/svg" xmlns:xlink="http://www.w3.org/1999/xlink" x="0px" y="0px"
	 width="64px" height="64px" viewBox="0 0 64 64" enable-background="new 0 0 64 64" xml:space="preserve">
<circle fill="#FDCA47" cx="32" cy="32" r="30"/>
<path fill="#F9B700" d="M51.654,9.346C56.226,14.611,59,21.479,59,29c0,16.568-13.432,30-30,30c-7.521,0-14.39-2.773-19.654-7.346
	C14.847,57.988,22.952,62,32,62c16.568,0,30-13.432,30-30C62,22.951,57.989,14.846,51.654,9.346z"/>
<path fill-rule="evenodd" clip-rule="evenodd" fill="#FFE8BB" d="M6.418,20.5C5.302,24.24,13.001,11,25.001,6.084
	C30.834,3.693,11.168,4.584,6.418,20.5z"/>
<path fill="#302C3B" d="M52.516,40c-2.244-3.594-7.696-6-20.516-6s-18.271,2.406-20.515,6C10.285,41.92,12,45,12,45
	c2.143,3.883,1.842,5,20.002,5C50.139,50,49.857,48.883,52,45C52,45,53.715,41.92,52.516,40z"/>
<path fill="#FFFFFF" d="M47.979,39.979c0.102-0.537-0.173-1.207-0.609-1.486c0,0-3.9-2.492-15.369-2.492s-15.369,2.492-15.369,2.492
	c-0.438,0.279-0.712,0.949-0.609,1.486l0.197,1.041C16.321,41.559,16.82,42,17.328,42h29.343c0.509,0,1.008-0.441,1.109-0.98
	L47.979,39.979z"/>
<path fill="#FFFFFF" d="M32,48c6.28,0,15.236,0,14.995-2.053c-0.041-0.367-0.146-0.803-0.284-1.277
	C46.56,44.145,46.436,44,45.354,44c-2.361,0-24.896,0-26.708,0c-1.082,0-1.203,0.145-1.356,0.67
	c-0.135,0.475-0.242,0.91-0.285,1.277C16.765,48,25.72,48,32,48z"/>
<path fill="#302C3B" d="M20.5,18c2.484,0,4.5,2.912,4.5,6.5c0,3.593-2.016,6.5-4.5,6.5c-2.487,0-4.5-2.907-4.5-6.5
	C16,20.912,18.013,18,20.5,18z"/>
<path fill="#302C3B" d="M43.5,18c2.484,0,4.5,2.912,4.5,6.5c0,3.593-2.016,6.5-4.5,6.5c-2.487,0-4.5-2.907-4.5-6.5
	C39,20.912,41.013,18,43.5,18z"/>
</svg>
