<?xml version="1.0" encoding="utf-8"?>
<!-- Generator: Adobe Illustrator 15.0.0, SVG Export Plug-In . SVG Version: 6.00 Build 0)  -->
<!DOCTYPE svg PUBLIC "-//W3C//DTD SVG 1.1//EN" "http://www.w3.org/Graphics/SVG/1.1/DTD/svg11.dtd">
<svg version="1.1" id="Layer_1" xmlns="http://www.w3.org/2000/svg" xmlns:xlink="http://www.w3.org/1999/xlink" x="0px" y="0px"
	 width="64px" height="64px" viewBox="0 0 64 64" enable-background="new 0 0 64 64" xml:space="preserve">
<circle fill="#FDCA47" cx="32" cy="32" r="30"/>
<path fill="#F9B700" d="M51.654,9.345C56.227,14.61,59,21.479,59,28.999C59,45.568,45.568,59,29,59
	c-7.52,0-14.389-2.773-19.654-7.346C14.847,57.99,22.953,62,32,62c16.568,0,30-13.432,30-30.001
	C62,22.952,57.988,14.847,51.654,9.345z"/>
<path fill-rule="evenodd" clip-rule="evenodd" fill="#FFE8BB" d="M6.418,20.499c-1.116,3.742,6.583-9.5,18.583-14.416
	C30.834,3.692,11.168,4.583,6.418,20.499z"/>
<path fill="#302C3B" d="M32,35c-7.633-0.057-13.771,4.695-13.817,10.609c-0.029,3.273,1.148,8.176,4.811,8.203
	c2.656,0.02,5.6-3.289,9.007-3.268c3.367,0.025,6.15,3.439,8.783,3.455c3.24,0.023,5.01-4.883,5.035-8.189
	C45.867,39.9,39.629,35.057,32,35z"/>
<path fill="#1A1626" d="M38.045,44.67c0-2.662-2.602-4.232-4.187-4.271c-0.583-0.014-1.482,0.486-1.152,1.816
	c0.164,0.67,1.2,1.482,1.2,2.563c0,2.201-3.809,2.201-3.809,0c0-1.08,1.034-1.893,1.199-2.563c0.327-1.33-0.57-1.83-1.155-1.816
	c-1.584,0.039-4.187,1.609-4.187,4.271c0,1.658,0.835,2.938,2.144,3.932h7.804C37.211,47.607,38.045,46.328,38.045,44.67z"/>
<path fill="#F46C60" d="M32,47.09c-5.182,0-6.909,4.318-6.909,4.318s3.455-2.59,6.909-2.59c3.453,0,6.908,2.59,6.908,2.59
	S37.182,47.09,32,47.09z"/>
<path fill="#FFFFFF" d="M40.42,39.17c-2.131-1.625-4.881-2.625-8.419-2.625c-3.539,0-6.29,1-8.42,2.625
	c-0.343,0.262-0.304,0.83,0.3,0.83c2.031,0,8.12,0,8.12,0s6.087,0,8.118,0C40.723,40,40.762,39.432,40.42,39.17z"/>
<path fill="#917524" d="M14.457,19.438c5.242,0.237,11.211-1.973,13.488-4.765c0.477-0.591-0.721-3.061-1.184-2.622
	c-3.561,3.379-8.397,5.719-13.248,5.811C12.863,17.875,13.67,19.403,14.457,19.438z"/>
<path fill="#917524" d="M49.545,19.437c-5.242,0.238-11.209-1.971-13.486-4.764c-0.48-0.588,0.721-3.062,1.184-2.621
	c3.561,3.376,8.396,5.719,13.246,5.81C51.141,17.873,50.334,19.402,49.545,19.437z"/>
<path fill="#302C3B" d="M49.561,21.696c0.627-0.221,0.991,0.866,0.6,1.158c-4.6,3.41-7.391,6.28-7.391,6.28s3.871,1.438,8.731,4.71
	c0.519,0.349-0.258,1.631-0.704,1.477c-8.057-2.772-12.729-3.422-16.004-3.799c-0.482-0.056-0.674-0.416-0.348-0.772
	C36.99,27.959,42.297,24.248,49.561,21.696z"/>
<path fill="#302C3B" d="M14.439,21.695c-0.628-0.221-0.991,0.867-0.6,1.158c4.6,3.41,7.39,6.281,7.39,6.281s-3.872,1.438-8.73,4.709
	c-0.52,0.349,0.257,1.631,0.705,1.477c8.056-2.773,12.728-3.422,16.003-3.8c0.483-0.056,0.672-0.416,0.348-0.772
	C27.01,27.959,21.702,24.248,14.439,21.695z"/>
</svg>
