<?xml version="1.0" encoding="utf-8"?>
<!-- Generator: Adobe Illustrator 15.0.0, SVG Export Plug-In . SVG Version: 6.00 Build 0)  -->
<!DOCTYPE svg PUBLIC "-//W3C//DTD SVG 1.1//EN" "http://www.w3.org/Graphics/SVG/1.1/DTD/svg11.dtd">
<svg version="1.1" id="Layer_1" xmlns="http://www.w3.org/2000/svg" xmlns:xlink="http://www.w3.org/1999/xlink" x="0px" y="0px"
	 width="64px" height="64px" viewBox="0 0 64 64" enable-background="new 0 0 64 64" xml:space="preserve">
<circle fill="#FDCA47" cx="32" cy="32" r="30"/>
<path fill="#F9B700" d="M51.654,9.346C56.227,14.611,59,21.48,59,29c0,16.568-13.432,30-30,30c-7.521,0-14.389-2.773-19.654-7.346
	C14.847,57.99,22.952,62,32,62c16.568,0,30-13.432,30-30C62,22.953,57.989,14.848,51.654,9.346z"/>
<path fill-rule="evenodd" clip-rule="evenodd" fill="#FFE8BB" d="M6.418,20.5C5.302,24.242,13.001,11,25.001,6.084
	C30.834,3.693,11.168,4.584,6.418,20.5z"/>
<path fill="#302C3B" d="M40.988,49.665c-5.793-4.8-12.219-4.771-17.977,0c-0.693,0.573-1.318-0.421-0.849-1.339
	c1.755-3.435,5.3-6.492,9.837-6.492c4.539,0,8.082,3.058,9.836,6.492C42.307,49.244,41.682,50.238,40.988,49.665z"/>
<path fill="#FFFFFF" d="M10.166,24.935c-1.548,4.728,0.646,9.975,5.27,12.128c4.615,2.154,10.039,0.467,12.668-3.746l-6.895-7.721
	L10.166,24.935z"/>
<path fill="#302C3B" d="M14.24,25.775c-1.361,2.916-0.1,6.381,2.814,7.742c2.918,1.359,6.383,0.098,7.744-2.818
	C25.66,28.848,15.104,23.924,14.24,25.775z"/>
<g>
	<path fill="#302C3B" d="M10.166,24.936c1.586-1.035,3.473-1.463,5.387-1.455c1.92,0.018,3.84,0.469,5.59,1.279
		c1.744,0.801,3.346,1.98,4.596,3.441c1.24,1.461,2.162,3.23,2.365,5.115c-1.33-1.33-2.605-2.43-3.971-3.387
		c-1.359-0.959-2.766-1.758-4.25-2.449c-1.477-0.684-3.012-1.244-4.621-1.666C13.646,25.383,12.037,25.117,10.166,24.936z"/>
</g>
<path fill="#FFFFFF" d="M53.834,24.935c1.547,4.728-0.646,9.975-5.27,12.128c-4.615,2.154-10.039,0.467-12.668-3.746l6.895-7.721
	L53.834,24.935z"/>
<path fill="#302C3B" d="M49.76,25.775c1.361,2.916,0.1,6.381-2.814,7.742c-2.918,1.359-6.383,0.098-7.744-2.818
	C38.34,28.848,48.896,23.924,49.76,25.775z"/>
<g>
	<path fill="#302C3B" d="M53.834,24.936c-1.586-1.035-3.473-1.463-5.387-1.455c-1.92,0.018-3.84,0.469-5.59,1.279
		c-1.744,0.801-3.346,1.98-4.596,3.441c-1.24,1.461-2.162,3.23-2.365,5.115c1.33-1.33,2.605-2.43,3.971-3.387
		c1.359-0.959,2.766-1.758,4.25-2.449c1.477-0.684,3.012-1.244,4.621-1.666C50.354,25.383,51.963,25.117,53.834,24.936z"/>
</g>
</svg>
