<?xml version="1.0" encoding="utf-8"?>
<!-- Generator: Adobe Illustrator 15.0.0, SVG Export Plug-In . SVG Version: 6.00 Build 0)  -->
<!DOCTYPE svg PUBLIC "-//W3C//DTD SVG 1.1//EN" "http://www.w3.org/Graphics/SVG/1.1/DTD/svg11.dtd">
<svg version="1.1" id="Layer_1" xmlns="http://www.w3.org/2000/svg" xmlns:xlink="http://www.w3.org/1999/xlink" x="0px" y="0px"
	 width="64px" height="64px" viewBox="0 0 64 64" enable-background="new 0 0 64 64" xml:space="preserve">
<circle fill="#FDCA47" cx="32" cy="32" r="30"/>
<path fill="#F9B700" d="M51.654,9.346C56.226,14.611,59,21.48,59,29c0,16.568-13.432,30-30,30c-7.521,0-14.39-2.773-19.654-7.346
	C14.846,57.99,22.951,62,32,62c16.568,0,30-13.432,30-30C62,22.953,57.988,14.848,51.654,9.346z"/>
<path fill-rule="evenodd" clip-rule="evenodd" fill="#FFE8BB" d="M6.418,20.5C5.302,24.242,13,11,25,6.084
	C30.834,3.693,11.168,4.584,6.418,20.5z"/>
<path fill="#302C3B" d="M20,21.5c2.483,0,4.5,2.91,4.5,6.5c0,3.593-2.017,6.5-4.5,6.5c-2.487,0-4.5-2.907-4.5-6.5
	C15.5,24.41,17.513,21.5,20,21.5z"/>
<path fill="#302C3B" d="M44,21.5c2.483,0,4.5,2.911,4.5,6.5c0,3.592-2.017,6.5-4.5,6.5c-2.488,0-4.5-2.908-4.5-6.5
	C39.5,24.411,41.512,21.5,44,21.5z"/>
<circle fill="#302C3B" cx="32" cy="48" r="5"/>
<path fill="#917524" d="M51.344,15.346c-4.158-3.201-10.314-4.814-13.779-3.832c-0.732,0.208-1.167,2.92-0.535,2.826
	c4.854-0.725,10.158,0.131,14.184,2.838C51.753,17.541,51.969,15.826,51.344,15.346z"/>
<path fill="#917524" d="M12.656,15.349c4.157-3.204,10.313-4.816,13.779-3.834c0.73,0.206,1.166,2.921,0.533,2.825
	c-4.854-0.723-10.157,0.131-14.182,2.838C12.246,17.544,12.03,15.828,12.656,15.349z"/>
</svg>
