<?xml version="1.0" encoding="utf-8"?>
<!-- Generator: Adobe Illustrator 15.0.0, SVG Export Plug-In . SVG Version: 6.00 Build 0)  -->
<!DOCTYPE svg PUBLIC "-//W3C//DTD SVG 1.1//EN" "http://www.w3.org/Graphics/SVG/1.1/DTD/svg11.dtd">
<svg version="1.1" id="Layer_1" xmlns="http://www.w3.org/2000/svg" xmlns:xlink="http://www.w3.org/1999/xlink" x="0px" y="0px"
	 width="64px" height="64px" viewBox="0 0 64 64" enable-background="new 0 0 64 64" xml:space="preserve">
<circle fill="#FDCA47" cx="32" cy="32" r="29.999"/>
<path fill="#F9B700" d="M51.654,9.347C56.225,14.612,59,21.481,59,29.001c0,16.566-13.432,29.998-30,29.998
	c-7.521,0-14.391-2.773-19.654-7.346c5.5,6.336,13.605,10.346,22.654,10.346c16.568,0,30-13.432,30-29.998
	C62,22.954,57.988,14.849,51.654,9.347z"/>
<path fill-rule="evenodd" clip-rule="evenodd" fill="#FFE8BB" d="M6.418,20.501C5.301,24.243,13,11.001,25,6.085
	C30.834,3.694,11.168,4.585,6.418,20.501z"/>
<path fill="#302C3B" d="M20.5,19.5c2.484,0,4.5,2.912,4.5,6.5c0,3.593-2.016,6.5-4.5,6.5c-2.487,0-4.5-2.907-4.5-6.5
	C16,22.412,18.013,19.5,20.5,19.5z"/>
<path fill="#302C3B" d="M43.5,19.5c2.484,0,4.5,2.912,4.5,6.5c0,3.593-2.016,6.5-4.5,6.5c-2.487,0-4.5-2.907-4.5-6.5
	C39,22.412,41.013,19.5,43.5,19.5z"/>
<path fill="#302C3B" d="M47.674,42c-1.715-3.592-5.881-6-15.676-6c-9.793,0-13.959,2.408-15.674,6c-0.916,1.92,0.395,5,0.395,5
	c1.637,3.883,1.406,5,15.281,5c13.857,0,13.643-1.117,15.279-5C47.279,47,48.59,43.92,47.674,42z"/>
<path fill="#FFFFFF" d="M43.361,40.965c0.09-0.26-0.006-0.617-0.217-0.797c0,0-2.545-2.168-11.146-2.168
	c-8.6,0-11.145,2.168-11.145,2.168c-0.209,0.18-0.307,0.537-0.217,0.797l0.195,0.563c0.09,0.26,0.389,0.473,0.662,0.473h21.008
	c0.275,0,0.574-0.213,0.664-0.473L43.361,40.965z"/>
<path fill="#917524" d="M53.344,14.996c-4.158-3.201-10.314-4.814-13.781-3.832c-0.73,0.208-1.166,2.92-0.533,2.826
	c4.854-0.725,10.156,0.131,14.182,2.838C53.752,17.191,53.968,15.477,53.344,14.996z"/>
<path fill="#917524" d="M10.654,14.999c4.158-3.204,10.313-4.816,13.779-3.834c0.732,0.206,1.167,2.921,0.535,2.825
	c-4.854-0.723-10.158,0.131-14.183,2.838C10.245,17.194,10.029,15.479,10.654,14.999z"/>
</svg>
