<?xml version="1.0" encoding="utf-8"?>
<!-- Generator: Adobe Illustrator 15.0.0, SVG Export Plug-In . SVG Version: 6.00 Build 0)  -->
<!DOCTYPE svg PUBLIC "-//W3C//DTD SVG 1.1//EN" "http://www.w3.org/Graphics/SVG/1.1/DTD/svg11.dtd">
<svg version="1.1" id="Layer_1" xmlns="http://www.w3.org/2000/svg" xmlns:xlink="http://www.w3.org/1999/xlink" x="0px" y="0px"
	 width="64px" height="64px" viewBox="0 0 64 64" enable-background="new 0 0 64 64" xml:space="preserve">
<circle fill="#FDCA47" cx="32" cy="32" r="30"/>
<path fill="#F9B700" d="M51.654,9.346C56.226,14.612,59,21.481,59,29c0,16.568-13.432,30-30,30c-7.521,0-14.39-2.773-19.654-7.346
	C14.847,57.99,22.952,62,32,62c16.568,0,30-13.432,30-30C62,22.954,57.989,14.848,51.654,9.346z"/>
<path fill-rule="evenodd" clip-rule="evenodd" fill="#FFE8BB" d="M6.418,20.5C5.302,24.243,13.001,11,25.001,6.084
	C30.834,3.694,11.168,4.584,6.418,20.5z"/>
<path fill="#302C3B" d="M47.676,44c-1.715-3.594-5.881-6-15.676-6c-9.793,0-13.959,2.406-15.674,6c-0.918,1.92,0.393,5,0.393,5
	c1.637,3.883,1.408,5,15.283,5c13.857,0,13.643-1.117,15.279-5C47.281,49,48.59,45.92,47.676,44z"/>
<path fill="#FFFFFF" d="M43.363,42.965c0.09-0.26-0.008-0.619-0.217-0.797c0,0-2.545-2.168-11.146-2.168s-11.146,2.168-11.146,2.168
	c-0.209,0.178-0.307,0.537-0.217,0.797l0.195,0.563c0.09,0.26,0.389,0.473,0.664,0.473h21.008c0.275,0,0.574-0.213,0.664-0.473
	L43.363,42.965z"/>
<path fill="#917524" d="M52.345,11.753c-4.158-3.201-10.314-4.814-13.78-3.832c-0.731,0.208-1.167,2.92-0.534,2.826
	c4.854-0.725,10.157,0.131,14.183,2.838C52.753,13.949,52.97,12.234,52.345,11.753z"/>
<path fill="#917524" d="M11.656,11.756C15.813,8.552,21.97,6.94,25.436,7.922c0.731,0.206,1.167,2.921,0.534,2.825
	c-4.854-0.723-10.158,0.131-14.182,2.838C11.247,13.952,11.03,12.236,11.656,11.756z"/>
<path fill="#E8A329" d="M30.999,26.083c0,6.353-5.168,11.499-11.537,11.499S7.999,32.436,7.999,26.083
	c0-6.35,5.094-11.501,11.463-11.501S30.999,19.734,30.999,26.083z"/>
<path fill="#FFFFFF" d="M29.499,26.083c0,5.523-4.494,10-10.029,10c-5.541,0-9.971-4.476-9.971-10c0-5.521,4.43-9.999,9.971-9.999
	C25.005,16.083,29.499,20.561,29.499,26.083z"/>
<path fill="#302C3B" d="M22.999,26.083c0,1.935-1.545,3.502-3.501,3.502c-1.875,0-3.499-1.567-3.499-3.502
	c0-1.933,1.624-3.502,3.499-3.502C21.454,22.581,22.999,24.15,22.999,26.083z"/>
<path fill="#E8A329" d="M56.001,26.083c0,6.353-5.168,11.499-11.461,11.499c-6.369,0-11.539-5.146-11.539-11.499
	c0-6.35,5.17-11.501,11.539-11.501C50.833,14.583,56.001,19.734,56.001,26.083z"/>
<path fill="#FFFFFF" d="M54.501,26.083c0,5.523-4.496,10-9.969,10c-5.537,0-10.031-4.476-10.031-10
	c0-5.521,4.494-9.999,10.031-9.999C50.005,16.083,54.501,20.561,54.501,26.083z"/>
<path fill="#302C3B" d="M48.001,26.083c0,1.934-1.565,3.5-3.457,3.5c-1.979,0-3.543-1.566-3.543-3.5s1.564-3.5,3.543-3.5
	C46.436,22.583,48.001,24.149,48.001,26.083z"/>
</svg>
