<?xml version="1.0" encoding="utf-8"?>
<!-- Generator: Adobe Illustrator 15.0.0, SVG Export Plug-In . SVG Version: 6.00 Build 0)  -->
<!DOCTYPE svg PUBLIC "-//W3C//DTD SVG 1.1//EN" "http://www.w3.org/Graphics/SVG/1.1/DTD/svg11.dtd">
<svg version="1.1" id="Layer_1" xmlns="http://www.w3.org/2000/svg" xmlns:xlink="http://www.w3.org/1999/xlink" x="0px" y="0px"
	 width="64px" height="64px" viewBox="0 0 64 64" enable-background="new 0 0 64 64" xml:space="preserve">
<circle fill="#FDCA47" cx="32" cy="32" r="30"/>
<path fill="#F9B700" d="M51.654,9.346C56.227,14.611,59,21.48,59,29c0,16.568-13.432,30-30,30c-7.52,0-14.389-2.773-19.654-7.346
	C14.847,57.99,22.953,62,32,62c16.568,0,30-13.432,30-30C62,22.953,57.989,14.848,51.654,9.346z"/>
<path fill-rule="evenodd" clip-rule="evenodd" fill="#FFE8BB" d="M6.418,20.5C5.303,24.242,13.001,11,25.001,6.084
	C30.834,3.693,11.168,4.584,6.418,20.5z"/>
<path fill="#302C3B" d="M32,32L32,32L32,32L32,32z"/>
<path fill="#302C3B" d="M38.014,50H25.985c-1.314,0-1.314-4,0-4h12.028C39.33,46,39.33,50,38.014,50z"/>
<circle fill="#F18D84" cx="50.811" cy="41" r="6"/>
<circle fill="#F18D84" cx="13.19" cy="41" r="6"/>
<path fill="#E8A329" d="M31,29.137c0,6.352-5.15,11.5-11.5,11.5c-6.353,0-11.5-5.148-11.5-11.5c0-6.346,5.147-11.5,11.5-11.5
	C25.85,17.637,31,22.791,31,29.137z"/>
<path fill="#FFFFFF" d="M29.5,29.137c0,5.523-4.479,10-10,10c-5.523,0-10-4.477-10-10c0-5.519,4.477-10,10-10
	C25.021,19.137,29.5,23.618,29.5,29.137z"/>
<circle fill="#302C3B" cx="19.5" cy="29.137" r="4.5"/>
<path fill="#E8A329" d="M56,29.137c0,6.355-5.149,11.5-11.5,11.5c-6.353,0-11.5-5.145-11.5-11.5c0-6.345,5.147-11.5,11.5-11.5
	C50.851,17.637,56,22.792,56,29.137z"/>
<path fill="#FFFFFF" d="M54.5,29.137c0,5.527-4.478,10-10,10c-5.524,0-10-4.473-10-10c0-5.518,4.476-10,10-10
	C50.022,19.137,54.5,23.619,54.5,29.137z"/>
<circle fill="#302C3B" cx="44.5" cy="29.137" r="4.5"/>
<path fill="#917524" d="M54.345,16.063c-4.158-3.201-10.314-4.814-13.779-3.832c-0.732,0.208-1.167,2.92-0.535,2.826
	c4.854-0.725,10.158,0.131,14.184,2.838C54.754,18.259,54.97,16.544,54.345,16.063z"/>
<path fill="#917524" d="M9.657,16.066c4.156-3.204,10.313-4.816,13.779-3.834c0.73,0.206,1.166,2.921,0.533,2.825
	c-4.854-0.723-10.157,0.131-14.182,2.838C9.247,18.262,9.031,16.546,9.657,16.066z"/>
</svg>
