<?xml version="1.0" encoding="utf-8"?>
<!-- Generator: Adobe Illustrator 15.0.0, SVG Export Plug-In . SVG Version: 6.00 Build 0)  -->
<!DOCTYPE svg PUBLIC "-//W3C//DTD SVG 1.1//EN" "http://www.w3.org/Graphics/SVG/1.1/DTD/svg11.dtd">
<svg version="1.1" id="Layer_1" xmlns="http://www.w3.org/2000/svg" xmlns:xlink="http://www.w3.org/1999/xlink" x="0px" y="0px"
	 width="64px" height="64px" viewBox="0 0 64 64" enable-background="new 0 0 64 64" xml:space="preserve">
<path fill="#F9C802" d="M4.949,2c-1.682,13.432-1.414,24.234,1.09,31.133L29.248,16C24.635,10.908,15.277,3.459,4.949,2z"/>
<path fill="#AB5C10" d="M7.869,32.178L19.816,17c0,0-4.166-5.361-13.221-10.514C3.883,18.143,7.869,32.178,7.869,32.178z"/>
<path fill="#82450D" d="M12.232,23.635L18.879,16c0,0-3.229-4.361-12.283-9.514C13.867,14.658,12.232,23.635,12.232,23.635z"/>
<path fill="#F9C802" d="M59.053,2c1.68,13.432,1.41,24.234-1.092,31.133L34.754,16C39.365,10.908,48.723,3.459,59.053,2z"/>
<path fill="#AB5C10" d="M56.131,32.178L44.184,17c0,0,4.168-5.361,13.221-10.514C60.117,18.143,56.131,32.178,56.131,32.178z"/>
<path fill="#82450D" d="M51.768,23.635L45.121,16c0,0,3.23-4.361,12.283-9.514C50.133,14.658,51.768,23.635,51.768,23.635z"/>
<path fill="#F9C802" d="M57.797,40.126c0,0,0.508-1.586,4.203-0.691c0,0-1.779-4.035-4.299-4.769c0,0,1.822-0.945,3.395-0.515
	c0,0-1.533-5.26-6.221-10.885c0.26-0.078,0.533-0.14,0.832-0.153c0,0-0.906-1.637-2.631-2.499c0,0,1.156-1.406,3.078-2.334
	c0,0-3.102-1.32-5.479-0.449c0,0,0.166-1.3,0.775-2.467c0,0-1.674-0.372-3.438,0.197c-3.99-2.667-9.201-4.2-16.012-4.2
	c-6.814,0-12.023,1.534-16.016,4.2c-1.764-0.569-3.438-0.197-3.438-0.197c0.611,1.168,0.775,2.467,0.775,2.467
	c-2.375-0.871-5.479,0.449-5.479,0.449c1.922,0.928,3.078,2.334,3.078,2.334c-1.725,0.862-2.629,2.499-2.629,2.499
	c0.297,0.014,0.57,0.075,0.83,0.153c-4.688,5.625-6.221,10.885-6.221,10.885c1.572-0.431,3.395,0.515,3.395,0.515
	C3.779,35.399,2,39.435,2,39.435c3.695-0.895,4.201,0.691,4.201,0.691c-2.465,0.539-3.131,2.115-3.131,2.115S9.955,62,32,62
	c22.043,0,28.93-19.759,28.93-19.759S60.262,40.665,57.797,40.126z"/>
<path fill="#D47706" d="M37.688,11.764c-1.762-0.258-3.65-0.498-5.686-0.498s-3.926,0.24-5.689,0.498
	C27.049,15.619,32,23.348,32,23.348S36.965,15.592,37.688,11.764z"/>
<path fill="#D47706" d="M46.814,14.785c-1.908-1.092-4.072-1.943-6.523-2.523c0.59,2.291,3.627,6.936,3.627,6.936
	S46.135,16.535,46.814,14.785z"/>
<path fill="#D47706" d="M23.711,12.264c-2.451,0.578-4.615,1.43-6.521,2.521c0.686,1.766,2.891,4.412,2.891,4.412
	S23.129,14.533,23.711,12.264z"/>
<path fill="#D47706" d="M21.783,41.841C10.146,39.969,7.65,42.187,7.719,42.655C7.742,42.808,12.828,41.229,21.783,41.841z"/>
<path fill="#D47706" d="M22.195,43.446c-14.27-0.068-16.855,3.09-16.688,3.648C5.563,47.272,11.363,44.399,22.195,43.446z"/>
<path fill="#D47706" d="M42.217,41.841c11.639-1.872,14.133,0.346,14.064,0.814C56.26,42.808,51.174,41.229,42.217,41.841z"/>
<path fill="#D47706" d="M41.807,43.446c14.268-0.068,16.854,3.09,16.686,3.648C58.439,47.272,52.639,44.399,41.807,43.446z"/>
<ellipse fill="#302C3B" cx="44.702" cy="31.5" rx="5" ry="6.5"/>
<ellipse fill="#302C3B" cx="18.702" cy="31.5" rx="5" ry="6.5"/>
<ellipse fill="#FFFFFF" cx="18.693" cy="35.999" rx="1.5" ry="2.001"/>
<ellipse fill="#FFFFFF" cx="15.156" cy="32.5" rx="1" ry="1.5"/>
<ellipse fill="#FFFFFF" cx="44.693" cy="35.999" rx="1.5" ry="2.001"/>
<ellipse fill="#FFFFFF" cx="41.156" cy="32.5" rx="1" ry="1.5"/>
<path fill="#302C3B" d="M40.282,49.291c-5.402-2.537-11.785-2.539-17.195-0.012c-1.338,0.645,0.33,4.15,1.662,3.5
	c3.572-1.664,8.895-2.305,13.875,0.01C39.958,53.408,41.7,49.977,40.282,49.291z"/>
<path fill="#302C3B" d="M35.742,38.612c-0.811-0.945-7.275-0.945-8.086,0c-1.24,1.451,2.439,4.982,4.043,4.982
	S36.986,40.063,35.742,38.612z"/>
<path fill="#75D6FF" d="M46.682,36c-5.076,6.773-7.996,13.006-7.996,18.123c0,4.349,3.582,7.877,8,7.877c4.42,0,8-3.528,8-7.877
	C54.686,49.006,51.682,42.666,46.682,36z"/>
<path opacity="0.3" fill="#0FB4D4" d="M52.797,46.232c0.336,1.375,0.518,2.686,0.518,3.93c0,4.348-3.555,7.881-7.938,7.881
	c-2.799,0-5.246-1.447-6.662-3.615C38.881,58.633,42.373,62,46.686,62c4.42,0,8-3.528,8-7.877
	C54.686,51.73,54.004,49.064,52.797,46.232z"/>
<path opacity="0.5" fill="#FFFFFF" d="M42.395,49.508c-2.635-0.803,2.572-9.105,3.697-10.565
	C47.115,37.622,47.238,50.975,42.395,49.508z"/>
</svg>
