<?xml version="1.0" encoding="utf-8"?>
<!-- Generator: Adobe Illustrator 15.0.0, SVG Export Plug-In . SVG Version: 6.00 Build 0)  -->
<!DOCTYPE svg PUBLIC "-//W3C//DTD SVG 1.1//EN" "http://www.w3.org/Graphics/SVG/1.1/DTD/svg11.dtd">
<svg version="1.1" id="Layer_1" xmlns="http://www.w3.org/2000/svg" xmlns:xlink="http://www.w3.org/1999/xlink" x="0px" y="0px"
	 width="64px" height="64px" viewBox="0 0 64 64" enable-background="new 0 0 64 64" xml:space="preserve">
<circle fill="#FDCA47" cx="32" cy="32" r="30"/>
<path fill="#F9B700" d="M51.654,9.346C56.227,14.611,59,21.48,59,29c0,16.568-13.432,30-30,30c-7.52,0-14.389-2.773-19.654-7.346
	C14.847,57.99,22.953,62,32,62c16.568,0,30-13.432,30-30C62,22.953,57.989,14.848,51.654,9.346z"/>
<path opacity="0.2" fill="#0FB4D4" d="M2.757,25.314C6.978,32.156,18.473,37.068,32,37.068s25.022-4.912,29.243-11.754
	C58.203,11.965,46.269,2,32,2S5.797,11.965,2.757,25.314z"/>
<path opacity="0.25" fill="#0FB4D4" d="M8.126,13.84c0,0.006-0.001,0.014-0.001,0.021c0,6.551,10.69,11.861,23.875,11.861
	c13.186,0,23.875-5.311,23.875-11.861c0-0.008-0.001-0.016-0.001-0.021C50.394,6.646,41.741,2,32,2S13.606,6.646,8.126,13.84z"/>
<ellipse opacity="0.3" fill="#0FB4D4" cx="32" cy="9.923" rx="15.948" ry="7.923"/>
<path opacity="0.5" fill-rule="evenodd" clip-rule="evenodd" fill="#FFFFFF" d="M6.418,20.5C5.303,24.242,13.001,11,25.001,6.084
	C30.834,3.693,11.168,4.584,6.418,20.5z"/>
<path fill="#302C3B" d="M37.5,32.999c0,5.336,12,5.336,12,0C49.5,27.668,37.5,27.668,37.5,32.999z"/>
<path fill="#302C3B" d="M14.5,32.999c0,5.336,12,5.336,12,0C26.5,27.668,14.5,27.668,14.5,32.999z"/>
<path fill="#302C3B" d="M45.717,48c-1.5-3.592-5.146-6-13.717-6c-8.568,0-12.213,2.408-13.715,6
	c-0.801,1.919,0.346,3.999,0.346,3.999C19.08,53.217,20.846,54,32.002,54c11.143,0,12.922-0.783,13.369-2.001
	C45.371,51.999,46.518,49.919,45.717,48z"/>
<path fill="#FFFFFF" d="M41.973,46.965c0.08-0.26-0.008-0.616-0.193-0.797c0,0-2.232-2.168-9.779-2.168
	c-7.545,0-9.777,2.168-9.777,2.168c-0.184,0.181-0.27,0.537-0.191,0.797l0.174,0.563c0.078,0.258,0.34,0.472,0.58,0.472h18.43
	c0.244,0,0.506-0.214,0.586-0.472L41.973,46.965z"/>
<path fill="#E8A329" d="M10.003,38.022C13.811,43.233,16,48.028,16,51.964c0,1.65-0.654,3.148-1.715,4.241
	C7.754,52.158,7.75,41.104,10.003,38.022z"/>
<path fill="#75D6FF" d="M9.035,33c4.461,6.105,7.027,11.725,7.027,16.337c0,3.919-3.148,7.101-7.031,7.101
	C5.146,56.438,2,53.256,2,49.337C2,44.725,4.641,39.009,9.035,33z"/>
<path opacity="0.3" fill="#0FB4D4" d="M3.659,42.224c-0.294,1.239-0.454,2.421-0.454,3.543c0,3.919,3.123,7.104,6.977,7.104
	c2.46,0,4.611-1.305,5.855-3.259c-0.146,3.79-3.215,6.826-7.006,6.826C5.146,56.438,2,53.256,2,49.337
	C2,47.179,2.599,44.776,3.659,42.224z"/>
<path opacity="0.5" fill="#FFFFFF" d="M12.802,45.177c2.317-0.725-2.26-8.209-3.249-9.525C8.654,34.462,8.546,46.499,12.802,45.177z
	"/>
<path fill="#917524" d="M9.456,26.284c5.242,0.237,11.211-1.973,13.488-4.765c0.477-0.591-0.721-3.061-1.184-2.622
	c-3.561,3.379-8.396,5.719-13.248,5.811C7.862,24.721,8.669,26.249,9.456,26.284z"/>
<path fill="#917524" d="M54.544,26.282c-5.242,0.238-11.209-1.971-13.486-4.764c-0.48-0.588,0.721-3.062,1.184-2.621
	c3.561,3.376,8.396,5.719,13.246,5.81C56.14,24.719,55.333,26.248,54.544,26.282z"/>
</svg>
