<?xml version="1.0" encoding="utf-8"?>
<!-- Generator: Adobe Illustrator 15.0.0, SVG Export Plug-In . SVG Version: 6.00 Build 0)  -->
<!DOCTYPE svg PUBLIC "-//W3C//DTD SVG 1.1//EN" "http://www.w3.org/Graphics/SVG/1.1/DTD/svg11.dtd">
<svg version="1.1" id="Layer_1" xmlns="http://www.w3.org/2000/svg" xmlns:xlink="http://www.w3.org/1999/xlink" x="0px" y="0px"
	 width="64px" height="64px" viewBox="0 0 64 64" enable-background="new 0 0 64 64" xml:space="preserve">
<path fill="#F9C802" d="M4.949,2c-1.682,13.432-1.414,24.234,1.09,31.133L29.248,16C24.635,10.908,15.277,3.459,4.949,2z"/>
<path fill="#AB5C10" d="M7.869,32.178L19.816,17c0,0-4.166-5.361-13.221-10.514C3.883,18.143,7.869,32.178,7.869,32.178z"/>
<path fill="#82450D" d="M12.232,23.635L18.879,16c0,0-3.229-4.361-12.283-9.514C13.867,14.658,12.232,23.635,12.232,23.635z"/>
<path fill="#F9C802" d="M59.053,2c1.68,13.432,1.41,24.234-1.092,31.133L34.754,16C39.365,10.908,48.723,3.459,59.053,2z"/>
<path fill="#AB5C10" d="M56.131,32.178L44.184,17c0,0,4.168-5.361,13.221-10.514C60.117,18.143,56.131,32.178,56.131,32.178z"/>
<path fill="#82450D" d="M51.768,23.635L45.121,16c0,0,3.23-4.361,12.283-9.514C50.133,14.658,51.768,23.635,51.768,23.635z"/>
<path fill="#F9C802" d="M57.797,40.126c0,0,0.508-1.586,4.203-0.691c0,0-1.779-4.035-4.299-4.769c0,0,1.822-0.945,3.395-0.515
	c0,0-1.533-5.26-6.221-10.885c0.26-0.078,0.533-0.14,0.832-0.153c0,0-0.906-1.637-2.631-2.499c0,0,1.156-1.406,3.078-2.334
	c0,0-3.102-1.32-5.479-0.449c0,0,0.166-1.3,0.775-2.467c0,0-1.674-0.372-3.438,0.197c-3.99-2.667-9.201-4.2-16.012-4.2
	c-6.814,0-12.023,1.534-16.016,4.2c-1.764-0.569-3.438-0.197-3.438-0.197c0.611,1.168,0.775,2.467,0.775,2.467
	c-2.375-0.871-5.479,0.449-5.479,0.449c1.922,0.928,3.078,2.334,3.078,2.334c-1.725,0.862-2.629,2.499-2.629,2.499
	c0.297,0.014,0.57,0.075,0.83,0.153c-4.688,5.625-6.221,10.885-6.221,10.885c1.572-0.431,3.395,0.515,3.395,0.515
	C3.779,35.399,2,39.435,2,39.435c3.695-0.895,4.201,0.691,4.201,0.691c-2.465,0.539-3.131,2.115-3.131,2.115S9.955,62,32,62
	c22.043,0,28.93-19.759,28.93-19.759S60.262,40.665,57.797,40.126z"/>
<path fill="#D47706" d="M37.688,11.764c-1.762-0.258-3.65-0.498-5.686-0.498s-3.926,0.24-5.689,0.498
	C27.049,15.619,32,23.348,32,23.348S36.965,15.592,37.688,11.764z"/>
<path fill="#D47706" d="M46.814,14.785c-1.908-1.092-4.072-1.943-6.523-2.523c0.59,2.291,3.627,6.936,3.627,6.936
	S46.135,16.535,46.814,14.785z"/>
<path fill="#D47706" d="M23.711,12.264c-2.451,0.578-4.615,1.43-6.521,2.521c0.686,1.766,2.891,4.412,2.891,4.412
	S23.129,14.533,23.711,12.264z"/>
<path fill="#D47706" d="M21.783,36.841C10.146,34.969,7.65,37.187,7.719,37.655C7.742,37.808,12.828,36.229,21.783,36.841z"/>
<path fill="#D47706" d="M22.195,38.446c-14.27-0.068-16.855,3.09-16.688,3.648C5.563,42.272,11.363,39.399,22.195,38.446z"/>
<path fill="#D47706" d="M42.217,36.841c11.639-1.872,14.133,0.346,14.064,0.814C56.26,37.808,51.174,36.229,42.217,36.841z"/>
<path fill="#D47706" d="M41.807,38.446c14.268-0.068,16.854,3.09,16.686,3.648C58.439,42.272,52.639,39.399,41.807,38.446z"/>
<path fill="#302C3B" d="M25.996,30.484c-1.615-4.44-4.048-6.661-6.481-6.661c-2.432,0-4.865,2.222-6.479,6.661
	c-0.161,0.448,0.672,1.252,1.089,0.814c1.564-1.651,3.437-2.309,5.389-2.309c1.955,0,3.828,0.658,5.393,2.309
	C25.322,31.736,26.155,30.932,25.996,30.484z"/>
<path fill="#302C3B" d="M50.964,30.484c-1.615-4.439-4.048-6.66-6.48-6.66c-2.434,0-4.867,2.222-6.48,6.66
	c-0.16,0.448,0.672,1.252,1.09,0.814c1.565-1.65,3.437-2.309,5.391-2.309s3.823,0.658,5.391,2.309
	C50.288,31.736,51.121,30.932,50.964,30.484z"/>
<path fill="#302C3B" d="M48.999,43.41c0-0.803-0.473-1.809-1.822-2.066C43.714,40.682,38.595,40,31.999,40l0,0l0,0h-0.002l0,0
	c-6.594,0-11.713,0.682-15.176,1.344c-1.35,0.258-1.822,1.264-1.822,2.066c0,7.271,5.612,14.59,16.999,14.59l0,0h0.002l0,0l0,0
	C43.388,58,48.999,50.682,48.999,43.41z"/>
<path fill="#FFFFFF" d="M44.69,43.643c-2.195-0.367-6.838-1.012-12.691-1.012s-10.496,0.645-12.691,1.012
	c-1.293,0.219-1.373,0.744-1.283,1.486c0.054,0.443,0.138,0.975,0.265,1.553c0.143,0.641,0.262,0.936,1.266,0.816
	c1.92-0.229,22.967-0.229,24.887,0c1.004,0.119,1.125-0.176,1.266-0.816c0.129-0.578,0.211-1.109,0.266-1.553
	C46.063,44.387,45.983,43.861,44.69,43.643z"/>
<g>
	<path fill="#F26887" d="M24.999,54.57c2.025,0.902,4.358,1.43,7.002,1.43c2.643,0,4.977-0.527,6.998-1.43
		C37.05,53.596,34.726,53,32.001,53C29.275,53,26.953,53.596,24.999,54.57z"/>
</g>
<path fill="#302C3B" d="M36.041,33.863c-0.811-0.945-7.275-0.945-8.086,0c-1.24,1.451,2.439,4.982,4.043,4.982
	S37.285,35.314,36.041,33.863z"/>
</svg>
