<?xml version="1.0" encoding="utf-8"?>
<!-- Generator: Adobe Illustrator 15.0.0, SVG Export Plug-In . SVG Version: 6.00 Build 0)  -->
<!DOCTYPE svg PUBLIC "-//W3C//DTD SVG 1.1//EN" "http://www.w3.org/Graphics/SVG/1.1/DTD/svg11.dtd">
<svg version="1.1" id="Layer_1" xmlns="http://www.w3.org/2000/svg" xmlns:xlink="http://www.w3.org/1999/xlink" x="0px" y="0px"
	 width="64px" height="64px" viewBox="0 0 64 64" enable-background="new 0 0 64 64" xml:space="preserve">
<path fill="#F9C802" d="M4.949,2c-1.682,13.432-1.414,24.234,1.09,31.133L29.248,16C24.635,10.908,15.277,3.459,4.949,2z"/>
<path fill="#AB5C10" d="M7.869,32.178L19.816,17c0,0-4.166-5.361-13.221-10.514C3.883,18.143,7.869,32.178,7.869,32.178z"/>
<path fill="#82450D" d="M12.232,23.635L18.879,16c0,0-3.229-4.361-12.283-9.514C13.867,14.658,12.232,23.635,12.232,23.635z"/>
<path fill="#F9C802" d="M59.053,2c1.68,13.432,1.41,24.234-1.092,31.133L34.754,16C39.365,10.908,48.723,3.459,59.053,2z"/>
<path fill="#AB5C10" d="M56.131,32.178L44.184,17c0,0,4.168-5.361,13.221-10.514C60.117,18.143,56.131,32.178,56.131,32.178z"/>
<path fill="#82450D" d="M51.768,23.635L45.121,16c0,0,3.23-4.361,12.283-9.514C50.133,14.658,51.768,23.635,51.768,23.635z"/>
<path fill="#F9C802" d="M57.797,40.126c0,0,0.508-1.586,4.203-0.691c0,0-1.779-4.035-4.299-4.769c0,0,1.822-0.945,3.395-0.515
	c0,0-1.533-5.26-6.221-10.885c0.26-0.078,0.533-0.14,0.832-0.153c0,0-0.906-1.637-2.631-2.499c0,0,1.156-1.406,3.078-2.334
	c0,0-3.102-1.32-5.479-0.449c0,0,0.166-1.3,0.775-2.467c0,0-1.674-0.372-3.438,0.197c-3.99-2.667-9.201-4.2-16.012-4.2
	c-6.814,0-12.023,1.534-16.016,4.2c-1.764-0.569-3.438-0.197-3.438-0.197c0.611,1.168,0.775,2.467,0.775,2.467
	c-2.375-0.871-5.479,0.449-5.479,0.449c1.922,0.928,3.078,2.334,3.078,2.334c-1.725,0.862-2.629,2.499-2.629,2.499
	c0.297,0.014,0.57,0.075,0.83,0.153c-4.688,5.625-6.221,10.885-6.221,10.885c1.572-0.431,3.395,0.515,3.395,0.515
	C3.779,35.399,2,39.435,2,39.435c3.695-0.895,4.201,0.691,4.201,0.691c-2.465,0.539-3.131,2.115-3.131,2.115S9.955,62,32,62
	c22.043,0,28.93-19.759,28.93-19.759S60.262,40.665,57.797,40.126z"/>
<path fill="#D47706" d="M37.688,11.764c-1.762-0.258-3.65-0.498-5.686-0.498s-3.926,0.24-5.689,0.498
	C27.049,15.619,32,23.348,32,23.348S36.965,15.592,37.688,11.764z"/>
<path fill="#D47706" d="M46.814,14.785c-1.908-1.092-4.072-1.943-6.523-2.523c0.59,2.291,3.627,6.936,3.627,6.936
	S46.135,16.535,46.814,14.785z"/>
<path fill="#D47706" d="M23.711,12.264c-2.451,0.578-4.615,1.43-6.521,2.521c0.686,1.766,2.891,4.412,2.891,4.412
	S23.129,14.533,23.711,12.264z"/>
<path fill="#D47706" d="M21.783,38.841C10.146,36.969,7.65,39.187,7.719,39.655C7.742,39.808,12.828,38.229,21.783,38.841z"/>
<path fill="#D47706" d="M22.195,40.446c-14.27-0.068-16.855,3.09-16.688,3.648C5.563,44.272,11.363,41.399,22.195,40.446z"/>
<path fill="#D47706" d="M42.217,38.841c11.639-1.872,14.133,0.346,14.064,0.814C56.26,39.808,51.174,38.229,42.217,38.841z"/>
<path fill="#D47706" d="M41.807,40.446c14.268-0.068,16.854,3.09,16.686,3.648C58.439,44.272,52.639,41.399,41.807,40.446z"/>
<path fill="#302C3B" d="M50.396,25.506c0.472,0.281,0.249,0.86-0.142,0.918c-2.262,0.338-4.658,0.723-6.933,1.983
	c3.377,0.56,6.089,2.292,7.56,4.056c0.333,0.397-0.082,0.938-0.454,0.802c-4.009-1.455-8.129-2.242-13.309-1.71
	c-0.407,0.042-0.758-0.194-0.673-0.569C37.828,24.936,45.609,22.652,50.396,25.506z"/>
<path fill="#302C3B" d="M13.604,25.506c-0.474,0.281-0.251,0.86,0.139,0.918c2.262,0.338,4.66,0.723,6.933,1.983
	c-3.375,0.56-6.088,2.292-7.56,4.056c-0.331,0.397,0.083,0.938,0.456,0.802c4.007-1.455,8.127-2.242,13.307-1.71
	c0.408,0.042,0.759-0.194,0.673-0.569C26.169,24.936,18.388,22.652,13.604,25.506z"/>
<path fill="#302C3B" d="M45,46.651c0-0.624-0.362-1.405-1.394-1.607C40.957,44.529,37.044,44,31.999,44l0,0l0,0l0,0l0,0
	c-5.044,0-8.958,0.529-11.606,1.044C19.361,45.246,19,46.027,19,46.651C19,52.308,23.291,58,31.999,58l0,0l0,0l0,0l0,0
	C40.707,58,45,52.308,45,46.651z"/>
<path fill="#F26887" d="M25.498,54.569C27.378,55.472,29.545,56,31.999,56c2.455,0,4.621-0.528,6.499-1.431
	C36.687,53.596,34.528,53,31.999,53C29.469,53,27.313,53.596,25.498,54.569z"/>
<path fill="#302C3B" d="M36.041,37.863c-0.811-0.945-7.275-0.945-8.086,0c-1.24,1.451,2.439,4.982,4.043,4.982
	S37.285,39.314,36.041,37.863z"/>
<path fill="#75D6FF" d="M15.375,32.558c-6.352,3.496-10.86,7.341-12.73,11.351c-1.588,3.408-0.141,7.449,3.233,9.023
	c3.376,1.574,7.401,0.084,8.989-3.322C16.738,45.598,16.759,39.561,15.375,32.558z"/>
<path opacity="0.3" fill="#0FB4D4" d="M16.31,42.752c-0.247,1.195-0.587,2.291-1.042,3.266c-1.589,3.406-5.593,4.906-8.943,3.344
	c-2.138-0.998-3.48-3-3.77-5.203c-1.41,3.354,0.028,7.236,3.322,8.773c3.376,1.574,7.401,0.084,8.989-3.322
	C15.742,47.734,16.196,45.402,16.31,42.752z"/>
<path opacity="0.5" fill="#FFFFFF" d="M7.167,41.611c-1.722-1.564,5.29-6.216,6.683-6.958C15.113,33.983,10.329,44.488,7.167,41.611
	z"/>
<path fill="#75D6FF" d="M48.617,32.515c-1.406,7.114-1.359,13.038,0.512,17.05c1.59,3.406,5.617,4.896,8.99,3.322
	c3.377-1.574,4.822-5.615,3.234-9.023C59.482,39.854,54.871,35.956,48.617,32.515z"/>
<path opacity="0.3" fill="#0FB4D4" d="M57.027,38.352c0.758,0.957,1.377,1.922,1.832,2.896c1.588,3.408,0.162,7.439-3.188,9.002
	c-2.137,0.996-4.535,0.736-6.408-0.457c1.662,3.236,5.561,4.631,8.855,3.094c3.377-1.574,4.822-5.615,3.234-9.023
	C60.479,41.988,58.984,40.143,57.027,38.352z"/>
<path opacity="0.5" fill="#FFFFFF" d="M50.277,44.623c-2.307,0.313-1.363-8.048-1.035-9.593
	C49.541,33.632,54.514,44.051,50.277,44.623z"/>
</svg>
