<?xml version="1.0" encoding="utf-8"?>
<!-- Generator: Adobe Illustrator 15.0.0, SVG Export Plug-In . SVG Version: 6.00 Build 0)  -->
<!DOCTYPE svg PUBLIC "-//W3C//DTD SVG 1.1//EN" "http://www.w3.org/Graphics/SVG/1.1/DTD/svg11.dtd">
<svg version="1.1" id="Layer_1" xmlns="http://www.w3.org/2000/svg" xmlns:xlink="http://www.w3.org/1999/xlink" x="0px" y="0px"
	 width="64px" height="64px" viewBox="0 0 64 64" enable-background="new 0 0 64 64" xml:space="preserve">
<path fill="#FDCA47" d="M32,2c16.57,0,30,13.432,30,30c0,10.854-19.148,30-30,30S2,42.854,2,32C2,15.432,15.43,2,32,2z"/>
<path fill="#F9B700" d="M51.534,9.247c4.512,5.249,7.255,12.073,7.255,19.539c0,10.854-19.149,30-30,30
	c-4.956,0-11.636-3.992-17.426-9.356C17.75,56.337,26.094,62,32,62c10.852,0,30-19.146,30-30C62,22.898,57.945,14.748,51.534,9.247z
	"/>
<path fill-rule="evenodd" clip-rule="evenodd" fill="#FFE8BB" d="M6.417,20.5C5.304,24.242,13.004,11,25.005,6.085
	C30.828,3.694,11.163,4.584,6.417,20.5z"/>
<path fill="#E8A329" d="M31,22.795c0,6.353-5.168,11.5-11.537,11.5S8,29.147,8,22.795c0-6.35,5.094-11.501,11.463-11.501
	S31,16.445,31,22.795z"/>
<path fill="#FFFFFF" d="M29.5,22.796c0,5.522-4.494,9.999-10.029,9.999c-5.541,0-9.971-4.477-9.971-9.999s4.43-10.001,9.971-10.001
	C25.006,12.795,29.5,17.273,29.5,22.796z"/>
<path fill="#302C3B" d="M23,22.795c0,1.935-1.545,3.501-3.501,3.501c-1.875,0-3.499-1.566-3.499-3.501
	c0-1.934,1.624-3.501,3.499-3.501C21.455,19.294,23,20.861,23,22.795z"/>
<path fill="#E8A329" d="M56,22.795c0,6.353-5.168,11.5-11.461,11.5C38.17,34.295,33,29.147,33,22.795
	c0-6.35,5.17-11.501,11.539-11.501C50.832,11.294,56,16.445,56,22.795z"/>
<path fill="#FFFFFF" d="M54.5,22.796c0,5.522-4.496,9.999-9.969,9.999c-5.537,0-10.031-4.477-10.031-9.999
	s4.494-10.001,10.031-10.001C50.004,12.795,54.5,17.273,54.5,22.796z"/>
<path fill="#302C3B" d="M48,22.795c0,1.933-1.565,3.5-3.457,3.5c-1.979,0-3.543-1.567-3.543-3.5c0-1.934,1.564-3.501,3.543-3.501
	C46.435,19.294,48,20.861,48,22.795z"/>
<path fill="#302C3B" d="M40.57,44.51c0,6.507-3.85,11.785-8.601,11.785c-4.69,0-8.542-5.278-8.542-11.785
	c0-6.511,3.852-11.786,8.542-11.786C36.721,32.724,40.57,37.999,40.57,44.51z"/>
<path fill="#1A1626" d="M34.014,39.898c-0.66-0.017-1.622,0.594-1.262,2.208c0.181,0.813,1.322,1.802,1.322,3.117
	c0,2.674-4.15,2.674-4.15,0c0-1.315,1.144-2.304,1.324-3.117c0.36-1.614-0.663-2.225-1.264-2.208
	c-1.744,0.047-4.571,1.959-4.571,5.193c0,3.639,2.948,6.586,6.557,6.586c3.669,0,6.617-2.947,6.617-6.586
	C38.587,41.857,35.76,39.945,34.014,39.898z"/>
<path fill="#F46C60" d="M31.97,50.191c-3.969,0-5.053,1.11-5.053,1.11c1.024,2.098,2.887,3.511,5.053,3.511
	c2.225,0,4.089-1.413,5.113-3.511C37.083,51.302,35.938,50.191,31.97,50.191z"/>
<path fill="#FFFFFF" d="M57.742,35.215c-2.091,0.472-6.789,9.146-11.19,12.932c-6.972,5.997-7.515,8.493-7.869,13.058h10.176
	c0,0-0.446-3.42-0.41-3.739C63.102,39.898,60.611,34.564,57.742,35.215z"/>
<path fill="#99A8AE" d="M60.579,39.738c1.047-6.713-3.212-7.77-6.464-2.173c-2.681,4.614-6.868,9.458-11.394,12.996
	C36.196,55.663,38.343,62,38.343,62h11.521c0,0-0.597-3.759-0.626-4.083C53.591,53.93,59.716,45.273,60.579,39.738z M47.896,56.866
	c-0.419,0.433-0.041,3.541-0.041,3.541h-7.956c0,0-1.129-4.981,3.746-8.559c7.259-5.325,10.357-10.915,12.08-13.732
	c2.044-3.342,4.042-2.178,3.215,1.267C57.435,45.648,49.938,54.742,47.896,56.866z"/>
<path fill="#FFFFFF" d="M6.263,35.215c2.091,0.472,6.789,9.146,11.19,12.932c6.972,5.997,7.515,8.493,7.869,13.058H15.146
	c0,0,0.446-3.42,0.41-3.739C0.903,39.898,3.394,34.564,6.263,35.215z"/>
<path fill="#99A8AE" d="M14.768,57.917C14.738,58.241,14.142,62,14.142,62h11.521c0,0,2.146-6.337-4.379-11.438
	C16.758,47.023,12.57,42.18,9.89,37.565c-3.252-5.597-7.511-4.54-6.464,2.173C4.289,45.273,10.414,53.93,14.768,57.917z
	 M5.065,39.383c-0.827-3.444,1.171-4.608,3.215-1.267c1.723,2.817,4.821,8.407,12.08,13.732c4.875,3.577,3.746,8.559,3.746,8.559
	H16.15c0,0,0.378-3.108-0.041-3.541C14.067,54.742,6.57,45.648,5.065,39.383z"/>
</svg>
