<?xml version="1.0" encoding="utf-8"?>
<!-- Generator: Adobe Illustrator 15.0.0, SVG Export Plug-In . SVG Version: 6.00 Build 0)  -->
<!DOCTYPE svg PUBLIC "-//W3C//DTD SVG 1.1//EN" "http://www.w3.org/Graphics/SVG/1.1/DTD/svg11.dtd">
<svg version="1.1" id="Layer_1" xmlns="http://www.w3.org/2000/svg" xmlns:xlink="http://www.w3.org/1999/xlink" x="0px" y="0px"
	 width="64px" height="64px" viewBox="0 0 64 64" enable-background="new 0 0 64 64" xml:space="preserve">
<path fill="#F26887" d="M25.498,54.57c1.879,0.902,4.047,1.43,6.5,1.43c2.455,0,4.621-0.527,6.498-1.43
	C36.686,53.596,34.527,53,31.998,53S27.313,53.596,25.498,54.57z"/>
<path fill="#F9C802" d="M4.949,2c-1.682,13.432-1.414,24.234,1.09,31.133L29.248,16C24.635,10.908,15.277,3.459,4.949,2z"/>
<path fill="#AB5C10" d="M7.869,32.178L19.816,17c0,0-4.166-5.361-13.221-10.514C3.883,18.143,7.869,32.178,7.869,32.178z"/>
<path fill="#82450D" d="M12.232,23.635L18.879,16c0,0-3.229-4.361-12.283-9.514C13.867,14.658,12.232,23.635,12.232,23.635z"/>
<path fill="#F9C802" d="M59.053,2c1.68,13.432,1.41,24.234-1.092,31.133L34.754,16C39.365,10.908,48.723,3.459,59.053,2z"/>
<path fill="#AB5C10" d="M56.131,32.178L44.184,17c0,0,4.168-5.361,13.221-10.514C60.117,18.143,56.131,32.178,56.131,32.178z"/>
<path fill="#82450D" d="M51.768,23.635L45.121,16c0,0,3.23-4.361,12.283-9.514C50.133,14.658,51.768,23.635,51.768,23.635z"/>
<path fill="#F9C802" d="M57.797,40.127c0,0,0.508-1.586,4.203-0.691c0,0-1.779-4.035-4.299-4.77c0,0,1.822-0.945,3.395-0.514
	c0,0-1.533-5.26-6.221-10.885c0.26-0.078,0.533-0.141,0.832-0.154c0,0-0.906-1.637-2.631-2.498c0,0,1.156-1.406,3.078-2.334
	c0,0-3.102-1.32-5.479-0.449c0,0,0.166-1.301,0.775-2.467c0,0-1.674-0.373-3.438,0.197c-3.99-2.668-9.201-4.201-16.012-4.201
	c-6.814,0-12.023,1.535-16.016,4.201c-1.764-0.57-3.438-0.197-3.438-0.197c0.611,1.168,0.775,2.467,0.775,2.467
	c-2.375-0.871-5.479,0.449-5.479,0.449c1.922,0.928,3.078,2.334,3.078,2.334c-1.725,0.861-2.629,2.498-2.629,2.498
	c0.297,0.014,0.57,0.076,0.83,0.154c-4.688,5.625-6.221,10.885-6.221,10.885c1.572-0.432,3.395,0.514,3.395,0.514
	C3.779,35.4,2,39.436,2,39.436c3.695-0.895,4.201,0.691,4.201,0.691c-2.465,0.539-3.131,2.115-3.131,2.115S9.955,62,32,62
	c22.043,0,28.93-19.758,28.93-19.758S60.262,40.666,57.797,40.127z"/>
<path fill="#D47706" d="M37.688,11.764c-1.762-0.258-3.65-0.498-5.686-0.498s-3.926,0.24-5.689,0.498
	C27.049,15.619,32,23.348,32,23.348S36.965,15.592,37.688,11.764z"/>
<path fill="#D47706" d="M46.814,14.785c-1.908-1.092-4.072-1.943-6.523-2.523c0.59,2.291,3.627,6.936,3.627,6.936
	S46.135,16.535,46.814,14.785z"/>
<path fill="#D47706" d="M23.711,12.264c-2.451,0.578-4.615,1.43-6.521,2.521c0.686,1.766,2.891,4.412,2.891,4.412
	S23.129,14.533,23.711,12.264z"/>
<path fill="#302C3B" d="M44.998,46.652c0-0.625-0.361-1.406-1.393-1.607C40.955,44.529,37.043,44,31.998,44l0,0l0,0l0,0l0,0
	c-5.043,0-8.957,0.529-11.605,1.045C19.361,45.246,19,46.027,19,46.652C19,52.307,23.291,58,31.998,58l0,0l0,0l0,0l0,0
	C40.705,58,44.998,52.307,44.998,46.652z"/>
<path fill="#302C3B" d="M36.039,37.863c-0.811-0.945-7.273-0.945-8.084,0c-1.24,1.451,2.439,4.982,4.043,4.982
	C33.6,42.846,37.283,39.314,36.039,37.863z"/>
<path fill="#D47706" d="M21.783,40.842C10.146,38.969,7.65,41.188,7.719,41.656C7.742,41.809,12.828,40.23,21.783,40.842z"/>
<path fill="#D47706" d="M22.195,42.447c-14.27-0.068-16.855,3.09-16.688,3.648C5.563,46.273,11.363,43.4,22.195,42.447z"/>
<path fill="#D47706" d="M42.217,40.842c11.639-1.873,14.133,0.346,14.064,0.814C56.26,41.809,51.174,40.23,42.217,40.842z"/>
<path fill="#D47706" d="M41.807,42.447c14.268-0.068,16.854,3.09,16.686,3.648C58.439,46.273,52.639,43.4,41.807,42.447z"/>
<path fill="#F59E01" d="M29.022,24.942c-2.393-5.131-16.939,9.036-17.104,10.501c2.955,2.074,7.522,3.721,12.76,5.032
	C28.57,32.474,30.629,28.388,29.022,24.942z"/>
<path fill="#E81C27" d="M18.131,26.02c-4.416-2.912-10.632,1.929-8.239,7.059c1.606,3.444,5.89,4.254,14.522,6.414
	c3.894-8.002,6.028-11.803,4.421-15.247C26.443,19.113,18.741,20.763,18.131,26.02z"/>
<path fill="#C21413" d="M18.089,26.66c-0.009-0.276,0.042-0.641,0.042-0.641c-1.221-0.829-2.458-0.859-2.458-0.859
	C17.19,25.647,18.089,26.66,18.089,26.66z"/>
<path fill="#C21413" d="M22.625,21.28c1.75,0.174,3.41,1.143,4.313,3.081c1.462,3.137-0.47,8.472-2.398,13.146
	c-0.604,1.463-0.469,1.251-4.277,0.952c0.527,0.129,3.586,0.892,4.151,1.033c3.894-8.002,6.028-11.803,4.421-15.247
	C27.606,21.607,24.976,20.767,22.625,21.28z"/>
<path fill-rule="evenodd" clip-rule="evenodd" fill="#F46C60" d="M10.673,31.805c0.663,1.016,1.707-2.062,2.914-4.854
	C14.369,25.154,8.683,28.749,10.673,31.805z"/>
<path fill-rule="evenodd" clip-rule="evenodd" fill="#F46C60" d="M19.124,26.046c0.387,0.595,0.998-1.205,1.703-2.838
	C21.286,22.156,17.96,24.26,19.124,26.046z"/>
<path fill="#F59E01" d="M34.976,24.942c-1.605,3.445,0.451,7.531,4.347,15.533c5.236-1.312,9.93-3.087,12.759-5.032
	C51.916,33.979,37.369,19.812,34.976,24.942z"/>
<path fill="#E81C27" d="M45.866,26.02c-0.606-5.256-8.311-6.905-10.703-1.775c-1.605,3.445,0.527,7.246,4.422,15.249
	c8.633-2.161,12.917-2.97,14.522-6.415C56.5,27.949,50.286,23.108,45.866,26.02z"/>
<path fill="#C21413" d="M45.349,26.398c0.206-0.185,0.518-0.379,0.518-0.379c-0.147-1.469-0.921-2.436-0.921-2.436
	C45.548,25.06,45.349,26.398,45.349,26.398z"/>
<path fill="#C21413" d="M52.387,26.416c0.991,1.451,1.315,3.347,0.412,5.284c-1.462,3.138-6.792,5.087-11.611,6.611
	c-1.51,0.478-1.259,0.446-3.479-2.666c0.239,0.491,1.621,3.323,1.876,3.848c8.633-2.161,12.917-2.97,14.522-6.415
	C55.337,30.441,54.29,27.886,52.387,26.416z"/>
<path fill-rule="evenodd" clip-rule="evenodd" fill="#F46C60" d="M36.643,24.024c-0.352,1.161,2.675-0.019,5.59-0.887
	C44.111,22.582,37.702,20.536,36.643,24.024z"/>
<path fill-rule="evenodd" clip-rule="evenodd" fill="#F46C60" d="M46.484,26.798c-0.207,0.679,1.565-0.012,3.271-0.521
	C50.853,25.953,47.104,24.756,46.484,26.798z"/>
<path fill="#F26887" d="M25.495,54.569C27.375,55.472,29.542,56,31.996,56c2.455,0,4.621-0.528,6.499-1.431
	C36.684,53.596,34.525,53,31.996,53C29.466,53,27.31,53.596,25.495,54.569z"/>
</svg>
