<?xml version="1.0" encoding="utf-8"?>
<!-- Generator: Adobe Illustrator 15.0.0, SVG Export Plug-In . SVG Version: 6.00 Build 0)  -->
<!DOCTYPE svg PUBLIC "-//W3C//DTD SVG 1.1//EN" "http://www.w3.org/Graphics/SVG/1.1/DTD/svg11.dtd">
<svg version="1.1" id="Layer_1" xmlns="http://www.w3.org/2000/svg" xmlns:xlink="http://www.w3.org/1999/xlink" x="0px" y="0px"
	 width="64px" height="64px" viewBox="0 0 64 64" enable-background="new 0 0 64 64" xml:space="preserve">
<circle fill="#FDCA47" cx="32" cy="32" r="30"/>
<path fill="#F9B700" d="M51.654,9.346C56.227,14.611,59,21.48,59,29c0,16.568-13.432,30-30,30c-7.521,0-14.389-2.773-19.654-7.346
	C14.846,57.99,22.951,62,32,62c16.568,0,30-13.432,30-30C62,22.953,57.988,14.848,51.654,9.346z"/>
<path fill-rule="evenodd" clip-rule="evenodd" fill="#FFE8BB" d="M6.418,20.5C5.301,24.242,13,11,25,6.084
	C30.834,3.693,11.168,4.584,6.418,20.5z"/>
<circle fill="#302C3B" cx="32" cy="49" r="9"/>
<path fill="#FFFFFF" d="M26,46c1.197-2.391,3.436-4,5.998-4c2.566,0,4.803,1.607,6.002,4H26z"/>
<path fill="#917524" d="M52.344,14.076c-4.158-3.201-10.314-4.814-13.779-3.832c-0.732,0.208-1.167,2.92-0.535,2.826
	c4.854-0.725,10.158,0.131,14.184,2.838C52.753,16.271,52.969,14.557,52.344,14.076z"/>
<path fill="#917524" d="M11.656,14.079c4.156-3.204,10.313-4.816,13.779-3.834c0.73,0.206,1.166,2.921,0.533,2.825
	c-4.854-0.723-10.157,0.131-14.182,2.838C11.246,16.274,11.03,14.559,11.656,14.079z"/>
<path fill="#E8A329" d="M31,29c0,6.353-5.152,11.5-11.5,11.5C13.147,40.5,8,35.353,8,29c0-6.348,5.147-11.5,11.5-11.5
	C25.848,17.5,31,22.652,31,29z"/>
<circle fill="#E8A329" cx="44.5" cy="29" r="11.5"/>
<circle fill="#FFFFFF" cx="19.5" cy="29" r="10"/>
<circle fill="#FFFFFF" cx="44.5" cy="29" r="10"/>
<path fill="#302C3B" d="M24,29c0,2.487-2.018,4.5-4.5,4.5c-2.487,0-4.5-2.013-4.5-4.5c0-2.485,2.013-4.5,4.5-4.5
	C21.982,24.5,24,26.515,24,29z"/>
<path fill="#302C3B" d="M49,29c0,2.487-2.018,4.5-4.5,4.5c-2.487,0-4.5-2.013-4.5-4.5c0-2.485,2.013-4.5,4.5-4.5
	C46.982,24.5,49,26.515,49,29z"/>
</svg>
