<?xml version="1.0" encoding="utf-8"?>
<!-- Generator: Adobe Illustrator 15.0.0, SVG Export Plug-In . SVG Version: 6.00 Build 0)  -->
<!DOCTYPE svg PUBLIC "-//W3C//DTD SVG 1.1//EN" "http://www.w3.org/Graphics/SVG/1.1/DTD/svg11.dtd">
<svg version="1.1" id="Layer_1" xmlns="http://www.w3.org/2000/svg" xmlns:xlink="http://www.w3.org/1999/xlink" x="0px" y="0px"
	 width="64px" height="64px" viewBox="0 0 64 64" enable-background="new 0 0 64 64" xml:space="preserve">
<ellipse fill="#FDCA47" cx="31.994" cy="32" rx="29.967" ry="30"/>
<path fill="#F9B700" d="M51.627,9.345C56.193,14.611,58.965,21.48,58.965,29c0,16.569-13.418,30-29.967,30
	c-7.514,0-14.375-2.773-19.635-7.346C14.859,57.99,22.955,62,31.994,62c16.551,0,29.967-13.432,29.967-30
	C61.961,22.953,57.955,14.847,51.627,9.345z"/>
<path fill-rule="evenodd" clip-rule="evenodd" fill="#FFE8BB" d="M6.439,20.5C5.324,24.242,13.016,11,25.002,6.083
	C30.83,3.693,11.184,4.583,6.439,20.5z"/>
<path fill="#E8A329" d="M49.838,39.873C49.838,50.436,41.848,59,31.994,59c-9.855,0-17.842-8.564-17.842-19.127
	c0-10.573,10.365-8.54,17.842-8.54C39.473,31.333,49.838,29.3,49.838,39.873z"/>
<path fill="#302C3B" d="M35.83,20.789c2.008,8.773,10.193,10.967,16.316,4.377c0.305-0.332-0.178-0.648-0.707-1.262
	c-4.936,2.115-11.449,0.049-14.369-3.852C36.309,20.316,35.732,20.349,35.83,20.789z"/>
<path fill="#302C3B" d="M11.842,25.166c6.123,6.592,14.307,4.395,16.318-4.377c0.096-0.439-0.479-0.473-1.242-0.738
	c-3.219,4.301-9.893,5.773-14.367,3.855C12.021,24.517,11.537,24.833,11.842,25.166z"/>
<path fill="#FFFFFF" d="M18.207,47.434L9.26,51.535c0.76,1.029,1.744,2.045,2.646,2.725l7.572-3.564L18.207,47.434z"/>
<path fill="#FFFFFF" d="M17.131,35.121L2.033,31.664c-0.082,0.65-0.008,2.542,0.176,3.631l14.141,3.238L17.131,35.121z"/>
<path fill="#FFFFFF" d="M54.727,51.535l-8.947-4.102l-1.27,3.262l7.574,3.564C53.006,53.611,54.066,52.596,54.727,51.535z"/>
<path fill="#FFFFFF" d="M47.637,38.533l14.143-3.238c0.264-1.262,0.248-3.2,0.174-3.631l-15.096,3.458L47.637,38.533z"/>
<path fill="#FFFFFF" d="M49.477,39.07c0,9.967-7.826,18.047-17.482,18.047S14.51,49.037,14.51,39.07
	c0-9.975,10.158-8.057,17.484-8.057S49.477,29.095,49.477,39.07z"/>
<path fill="#917524" d="M53.338,17.296c-4.158-3.201-10.314-4.814-13.779-3.832c-0.732,0.207-1.167,2.92-0.535,2.826
	c4.854-0.725,10.158,0.131,14.184,2.838C53.747,19.492,53.963,17.777,53.338,17.296z"/>
<path fill="#917524" d="M10.65,17.298c4.156-3.203,10.313-4.816,13.779-3.834c0.73,0.207,1.166,2.922,0.533,2.826
	c-4.854-0.723-10.157,0.131-14.182,2.838C10.24,19.494,10.024,17.779,10.65,17.298z"/>
</svg>
