<?xml version="1.0" encoding="utf-8"?>
<!-- Generator: Adobe Illustrator 15.0.0, SVG Export Plug-In . SVG Version: 6.00 Build 0)  -->
<!DOCTYPE svg PUBLIC "-//W3C//DTD SVG 1.1//EN" "http://www.w3.org/Graphics/SVG/1.1/DTD/svg11.dtd">
<svg version="1.1" id="Layer_1" xmlns="http://www.w3.org/2000/svg" xmlns:xlink="http://www.w3.org/1999/xlink" x="0px" y="0px"
	 width="64px" height="64px" viewBox="0 0 64 64" enable-background="new 0 0 64 64" xml:space="preserve">
<circle fill="#FDCA47" cx="32" cy="32" r="30"/>
<path fill="#F9B700" d="M51.654,9.346C56.227,14.611,59,21.48,59,29c0,16.568-13.432,30-30,30c-7.521,0-14.389-2.773-19.654-7.346
	C14.847,57.99,22.952,62,32,62c16.568,0,30-13.432,30-30C62,22.953,57.989,14.848,51.654,9.346z"/>
<path fill-rule="evenodd" clip-rule="evenodd" fill="#FFE8BB" d="M6.418,20.5C5.302,24.242,13.001,11,25.001,6.084
	C30.834,3.693,11.168,4.584,6.418,20.5z"/>
<circle fill="#302C3B" cx="32" cy="46.999" r="9"/>
<path fill="#FFFFFF" d="M26,43.999c1.197-2.391,3.436-4,5.998-4c2.566,0,4.803,1.608,6.002,4H26z"/>
<path fill="#302C3B" d="M45.813,35.377c-2.113,0-4.332-0.82-6.354-2.842c-3.576-3.574-2.816-8.192-0.287-10.724
	c2.197-2.198,6.018-3.104,9.217,0.092c2.297,2.298,1.859,5.213,0.281,6.789c-1.404,1.405-3.844,1.808-5.793-0.141
	c-0.586-0.586-0.586-1.536,0-2.121c0.586-0.586,1.535-0.586,2.121,0c0.699,0.698,1.23,0.462,1.551,0.141
	c0.547-0.545,0.689-1.574-0.281-2.546c-1.867-1.867-3.795-1.273-4.975-0.094c-1.492,1.493-2.037,4.158,0.287,6.482
	c3.205,3.205,6.707,1.979,8.73-0.045c2.713-2.713,3.512-7.407-0.213-11.132c-4.32-4.317-9.895-2.609-13.502,1
	c-0.586,0.586-1.535,0.586-2.121,0c-0.586-0.585-0.586-1.535,0-2.121c5.516-5.518,12.814-5.93,17.744-1
	c5.063,5.063,3.889,11.7,0.213,15.374C50.725,34.199,48.344,35.377,45.813,35.377z"/>
<path fill="#302C3B" d="M21.955,36.395C14.153,36.396,8.702,31.527,8.7,24.556c0.001-7.16,5.524-11.022,10.72-11.022
	c0.001,0,0.001,0,0.001,0c4.434,0,9.206,2.861,9.206,9.142c0,5.056-3.802,7.785-7.381,7.786c-0.001,0-0.001,0-0.002,0
	c-3.105,0.001-6.448-2.06-6.45-6.582c0.001-3.248,2.371-5,4.601-5c0.001,0,0,0,0.001,0c1.986,0,3.997,1.441,3.997,4.196
	c0,0.828-0.672,1.5-1.5,1.5s-1.5-0.672-1.5-1.5c0-0.989-0.543-1.196-0.998-1.196l0,0c-0.771,0-1.601,0.625-1.601,2
	c0.001,2.641,1.782,3.582,3.45,3.582h0.001c2.11,0,4.382-1.498,4.381-4.786c0-4.533-3.343-6.142-6.205-6.142
	c-3.836,0-7.72,2.755-7.721,8.022c0.002,6.105,5.151,8.839,10.254,8.839c0,0,0,0,0.001,0c0.828,0,1.5,0.672,1.5,1.5
	S22.783,36.395,21.955,36.395z"/>
</svg>
