<?xml version="1.0" encoding="utf-8"?>
<!-- Generator: Adobe Illustrator 15.0.0, SVG Export Plug-In . SVG Version: 6.00 Build 0)  -->
<!DOCTYPE svg PUBLIC "-//W3C//DTD SVG 1.1//EN" "http://www.w3.org/Graphics/SVG/1.1/DTD/svg11.dtd">
<svg version="1.1" id="Layer_1" xmlns="http://www.w3.org/2000/svg" xmlns:xlink="http://www.w3.org/1999/xlink" x="0px" y="0px"
	 width="64px" height="64px" viewBox="0 0 64 64" enable-background="new 0 0 64 64" xml:space="preserve">
<circle fill="#FDCA47" cx="32" cy="32" r="30"/>
<path fill="#F9B700" d="M51.654,9.346C56.227,14.611,59,21.48,59,29c0,16.568-13.432,30-30,30c-7.521,0-14.389-2.773-19.654-7.346
	C14.846,57.99,22.952,62,32,62c16.568,0,30-13.432,30-30C62,22.953,57.988,14.848,51.654,9.346z"/>
<path fill-rule="evenodd" clip-rule="evenodd" fill="#FFE8BB" d="M6.418,20.5C5.302,24.242,13,11,25,6.084
	C30.834,3.693,11.168,4.584,6.418,20.5z"/>
<path fill="#E6A400" d="M27.494,23.804c-0.213-0.403-0.686-0.556-1.059-0.348l-2.002,1.162l0.668-4.975
	c0.025-0.184-0.012-0.373-0.098-0.539l-0.637-1.207c-0.104-0.193-0.271-0.34-0.471-0.406c-0.199-0.068-0.41-0.045-0.588,0.061
	l-4.941,2.865c-0.176,0.104-0.307,0.275-0.359,0.489c-0.051,0.213-0.021,0.44,0.079,0.636l0.673,1.27
	c0.215,0.406,0.686,0.56,1.057,0.349l1.867-1.083l-0.66,4.881c-0.023,0.184,0.01,0.373,0.098,0.541l0.67,1.268
	c0.181,0.342,0.547,0.509,0.882,0.42c0.06-0.018,0.118-0.039,0.175-0.074l5.036-2.914c0.177-0.107,0.306-0.281,0.358-0.49
	c0.055-0.215,0.025-0.439-0.078-0.635L27.494,23.804z"/>
<path fill="#E6A400" d="M41.17,10.587c-0.113-0.188-0.287-0.32-0.488-0.371l-7.869-1.978c-0.416-0.106-0.824,0.168-0.91,0.61
	l-0.379,1.948c-0.043,0.213-0.002,0.435,0.109,0.618c0.113,0.189,0.29,0.32,0.49,0.371l3.613,0.91l-5.471,4.732
	c-0.133,0.115-0.225,0.275-0.26,0.454l-0.379,1.946c-0.041,0.212,0,0.434,0.113,0.623c0.112,0.186,0.287,0.317,0.488,0.367
	l8.016,2.018c0.111,0.027,0.221,0.027,0.328,0.004c0.088-0.017,0.174-0.052,0.253-0.105c0.171-0.114,0.288-0.297,0.329-0.512
	l0.378-1.943c0.085-0.441-0.185-0.887-0.601-0.992l-3.831-0.963l5.562-4.82c0.133-0.111,0.223-0.275,0.258-0.454l0.361-1.843
	C41.322,10.995,41.283,10.772,41.17,10.587z"/>
<path fill="#E6A400" d="M55.498,24.976c0.189-0.068,0.342-0.209,0.428-0.389l1.154-2.461c0.178-0.377,0.018-0.829-0.365-1.008
	l-5.834-2.756l6.074-3.019c0,0-2.142-3.282-3.213-3.691c-2.6-0.992-8.467,4.381-8.467,4.381c-0.152,0.075-0.275,0.2-0.346,0.353
	l-1.156,2.457c-0.084,0.182-0.094,0.392-0.024,0.58c0.036,0.105,0.099,0.201,0.177,0.279c0.061,0.061,0.133,0.111,0.213,0.148
	l10.781,5.094C55.102,25.032,55.311,25.043,55.498,24.976z"/>
<path fill="#006DAE" d="M26.973,21.244c-0.213-0.403-0.686-0.556-1.059-0.348l-2.002,1.162l0.668-4.975
	c0.025-0.184-0.012-0.373-0.098-0.539l-0.637-1.207c-0.104-0.193-0.271-0.34-0.471-0.406c-0.199-0.068-0.41-0.045-0.588,0.061
	l-4.941,2.865c-0.176,0.104-0.307,0.275-0.359,0.489c-0.051,0.213-0.021,0.44,0.079,0.636l0.673,1.27
	c0.215,0.406,0.686,0.56,1.057,0.349l1.867-1.083l-0.66,4.881c-0.023,0.184,0.01,0.373,0.098,0.541l0.67,1.268
	c0.181,0.342,0.547,0.509,0.882,0.42c0.06-0.018,0.118-0.039,0.175-0.074l5.036-2.914c0.177-0.107,0.306-0.281,0.358-0.49
	c0.055-0.215,0.025-0.439-0.078-0.635L26.973,21.244z"/>
<path fill="#006DAE" d="M40.648,8.027c-0.113-0.188-0.287-0.32-0.488-0.371l-7.869-1.978c-0.416-0.106-0.824,0.168-0.91,0.61
	l-0.379,1.948C30.959,8.45,31,8.672,31.111,8.855c0.113,0.189,0.29,0.32,0.49,0.371l3.613,0.91l-5.471,4.732
	c-0.133,0.115-0.225,0.275-0.26,0.454l-0.379,1.946c-0.041,0.212,0,0.434,0.113,0.623c0.112,0.186,0.287,0.317,0.488,0.367
	l8.016,2.018c0.111,0.027,0.221,0.027,0.328,0.004c0.088-0.017,0.174-0.052,0.253-0.105c0.171-0.114,0.288-0.297,0.329-0.512
	l0.378-1.943c0.085-0.441-0.185-0.887-0.601-0.992l-3.831-0.963l5.562-4.82c0.133-0.111,0.223-0.275,0.258-0.454l0.361-1.843
	C40.801,8.436,40.762,8.213,40.648,8.027z"/>
<path fill="#006DAE" d="M54.977,22.416c0.189-0.068,0.342-0.209,0.428-0.389l1.154-2.461c0.178-0.377,0.018-0.829-0.365-1.008
	l-5.834-2.756l10.125-5.032c0.152-0.074,0.275-0.2,0.348-0.354l1.096-2.338c0.178-0.377,0.018-0.828-0.363-1.006l-10.582-5
	c-0.379-0.178-0.83-0.016-1.006,0.361L48.819,4.9c-0.179,0.379-0.019,0.83,0.362,1.008l5.543,2.619l-9.971,4.946
	c-0.152,0.075-0.275,0.2-0.346,0.353l-1.156,2.457c-0.084,0.182-0.094,0.392-0.024,0.58c0.036,0.105,0.099,0.201,0.177,0.279
	c0.061,0.061,0.133,0.111,0.213,0.148l10.781,5.094C54.58,22.473,54.789,22.483,54.977,22.416z"/>
<path fill="#302C3B" d="M28.235,35.878c-4.213,7.953-12.695,7.951-16.91,0c-0.209-0.4,0.34-0.58,1.01-1.035
	c4.225,3.32,11.059,3.014,14.891,0.002C27.896,35.298,28.442,35.478,28.235,35.878z"/>
<path fill="#302C3B" d="M52.974,35.878c-4.215,7.953-12.696,7.951-16.912,0c-0.207-0.4,0.34-0.58,1.01-1.035
	c4.225,3.321,11.059,3.014,14.891,0.002C52.632,35.299,53.181,35.478,52.974,35.878z"/>
<path fill="#302C3B" d="M27.148,52.961c0,2.764,2.238,4,5,4c2.761,0,5-1.236,5-4c0-2.761-2.24-6-5-6
	C29.387,46.961,27.148,50.2,27.148,52.961z"/>
</svg>
