<?xml version="1.0" encoding="utf-8"?>
<!-- Generator: Adobe Illustrator 15.0.0, SVG Export Plug-In . SVG Version: 6.00 Build 0)  -->
<!DOCTYPE svg PUBLIC "-//W3C//DTD SVG 1.1//EN" "http://www.w3.org/Graphics/SVG/1.1/DTD/svg11.dtd">
<svg version="1.1" id="Layer_1" xmlns="http://www.w3.org/2000/svg" xmlns:xlink="http://www.w3.org/1999/xlink" x="0px" y="0px"
	 width="64px" height="64px" viewBox="0 0 64 64" enable-background="new 0 0 64 64" xml:space="preserve">
<path fill="#594640" d="M31.999,2C12.96,2,12.956,13.458,12.956,27.781h38.088C51.044,13.458,51.038,2,31.999,2z"/>
<path fill="#F2C198" d="M16.736,33.352c2.063-1.92,0.19-9.454-2.47-9.908C8.583,22.475,12.286,37.494,16.736,33.352z"/>
<path fill="#F2C198" d="M47.264,33.352c-2.063-1.92-0.19-9.454,2.47-9.908C55.416,22.475,51.716,37.493,47.264,33.352z"/>
<path fill="#FCD5B2" d="M32.001,9.639c-19.892,0-11.878,2.305-17.188,13.989c0,0,0.037,5.358,1.148,11.106
	c1.435,7.41,9.774,13.1,16.039,13.1s14.603-5.689,16.037-13.1c1.111-5.748,1.15-11.106,1.15-11.106
	C43.877,11.943,51.893,9.639,32.001,9.639z"/>
<path fill="#F5F5F5" d="M46.132,25.315c-1.839,4.792-9.323,4.089-10.693,0.738C36.479,20.667,45.121,20.206,46.132,25.315z"/>
<path fill="#45332C" d="M37.348,24.805c0,4.226,6.11,4.226,6.11,0C43.458,20.881,37.348,20.881,37.348,24.805z"/>
<path fill="#45332C" d="M46.132,25.28c0-5.145-10.693-5.145-10.693,0.813C36.966,21.206,44.604,21.206,46.132,25.28z"/>
<path fill="#F5F5F5" d="M17.868,25.315c1.839,4.792,9.325,4.089,10.693,0.738C27.521,20.667,18.881,20.206,17.868,25.315z"/>
<path fill="#45332C" d="M26.652,24.805c0,4.226-6.111,4.226-6.111,0C20.541,20.882,26.652,20.882,26.652,24.805z"/>
<path fill="#45332C" d="M17.868,25.28c0-5.144,10.693-5.144,10.693,0.813C27.036,21.206,19.396,21.206,17.868,25.28z"/>
<path fill="#F5F5F5" d="M37.723,23.777c0,1.058,1.527,1.058,1.527,0C39.25,22.797,37.723,22.797,37.723,23.777z"/>
<path fill="#F5F5F5" d="M22.637,23.563c0,1.056-1.529,1.056-1.529,0C21.107,22.582,22.637,22.582,22.637,23.563z"/>
<path fill="#DBA97F" d="M45.726,20.584c-3.283-1.353-7.777-1.618-10.084-0.715c-0.487,0.189-0.472,1.356-0.041,1.238
	c3.307-0.9,7.114-0.97,10.248,0.12C46.268,21.374,46.218,20.786,45.726,20.584z"/>
<path fill="#DBA97F" d="M18.274,20.584c3.283-1.353,7.775-1.618,10.084-0.715c0.485,0.189,0.471,1.356,0.039,1.238
	c-3.307-0.9-7.114-0.971-10.244,0.12C17.732,21.374,17.782,20.786,18.274,20.584z"/>
<path fill="#594640" d="M47.21,7.885c7.094,9.729-25.836,7.191-32.686,5.771C14.524,13.656,24.584-0.063,47.21,7.885z"/>
<path fill="#422F2A" d="M14.524,13.656c9.836,2.07,39.914,1.784,30.447-8.477C60.404,17.493,22.854,18.59,14.524,13.656z"/>
<path fill="#DBA97F" d="M35.818,32.645c0,2.486-7.639,2.486-7.639,0C28.18,32.075,35.818,32.075,35.818,32.645z"/>
<path fill="#006DAE" d="M40.363,41.441l-16.728,0.012C11.017,41.768,8.999,52.506,8.999,58.168h46
	C54.999,49.658,52.978,41.756,40.363,41.441z"/>
<path fill="#006DAE" d="M52.399,61.973c0-14.996-1.389-15.168-20.401-15.168c-19.018,0-20.395,0.172-20.395,15.168H52.399z"/>
<path fill="#FFE3C9" d="M4.222,20.201c0.821,0.65,13.87,11.207,13.87,11.207l-3.2,6.135c-4.308-2.57-6.225-7.23-12.492-14.381
	C1.239,21.84,2.836,19.109,4.222,20.201z"/>
<path fill="#FFE3C9" d="M59.778,20.201c-0.821,0.65-13.871,11.207-13.871,11.207l3.201,6.135c4.308-2.57,6.224-7.23,12.492-14.381
	C62.761,21.84,61.163,19.109,59.778,20.201z"/>
<path fill="#018BC9" d="M42.808,44.377c4.414-3.541,7.43-6.205,7.43-6.205l-3.484-7.885c-2.979,2.748-8.629,5.662-14.753,8.686
	c-6.125-3.023-11.774-5.938-14.752-8.686l-3.484,7.885c0,0,3.016,2.664,7.429,6.205C10.896,49.803,3.037,55.439,9.107,60.961
	c3.719,3.387,13.696-2.047,22.893-8.453c9.197,6.406,19.175,11.84,22.896,8.453C60.963,55.439,53.104,49.805,42.808,44.377z"/>
<polygon fill="#006DAE" points="23.119,58.125 42.808,44.377 28.36,57.973 "/>
<polygon fill="#006DAE" points="21.192,44.377 32,38.973 20.217,43.59 "/>
</svg>
