<?xml version="1.0" encoding="utf-8"?>
<!-- Generator: Adobe Illustrator 15.0.0, SVG Export Plug-In . SVG Version: 6.00 Build 0)  -->
<!DOCTYPE svg PUBLIC "-//W3C//DTD SVG 1.1//EN" "http://www.w3.org/Graphics/SVG/1.1/DTD/svg11.dtd">
<svg version="1.1" id="Layer_1" xmlns="http://www.w3.org/2000/svg" xmlns:xlink="http://www.w3.org/1999/xlink" x="0px" y="0px"
	 width="64px" height="64px" viewBox="0 0 64 64" enable-background="new 0 0 64 64" xml:space="preserve">
<circle fill="#FDCA47" cx="32" cy="32" r="30"/>
<path fill="#F9B700" d="M51.654,9.346C56.227,14.611,59,21.48,59,29c0,16.568-13.432,30-30,30c-7.521,0-14.389-2.773-19.654-7.346
	C14.846,57.99,22.952,62,32,62c16.568,0,30-13.432,30-30C62,22.953,57.988,14.848,51.654,9.346z"/>
<path fill-rule="evenodd" clip-rule="evenodd" fill="#FFE8BB" d="M6.418,20.5C5.302,24.242,13,11,25,6.084
	C30.834,3.693,11.168,4.584,6.418,20.5z"/>
<g>
	<circle fill="#302C3B" cx="20.5" cy="26.592" r="5"/>
</g>
<g>
	<circle fill="#302C3B" cx="43.5" cy="26.592" r="5"/>
</g>
<path fill="#302C3B" d="M23.012,47.623c5.793-4.799,12.219-4.771,17.977,0c0.693,0.574,1.318-0.42,0.848-1.338
	c-1.754-3.434-5.299-6.492-9.836-6.492c-4.539,0-8.082,3.059-9.836,6.492C21.693,47.203,22.318,48.197,23.012,47.623z"/>
</svg>
