<?xml version="1.0" encoding="utf-8"?>
<!-- Generator: Adobe Illustrator 15.0.0, SVG Export Plug-In . SVG Version: 6.00 Build 0)  -->
<!DOCTYPE svg PUBLIC "-//W3C//DTD SVG 1.1//EN" "http://www.w3.org/Graphics/SVG/1.1/DTD/svg11.dtd">
<svg version="1.1" id="Layer_1" xmlns="http://www.w3.org/2000/svg" xmlns:xlink="http://www.w3.org/1999/xlink" x="0px" y="0px"
	 width="64px" height="64px" viewBox="0 0 64 64" enable-background="new 0 0 64 64" xml:space="preserve">
<circle fill="#FDCA47" cx="32" cy="32" r="30"/>
<path fill="#F9B700" d="M51.654,9.346C56.227,14.612,59,21.481,59,29c0,16.568-13.432,30-30,30c-7.521,0-14.389-2.773-19.654-7.346
	C14.846,57.99,22.952,62,32,62c16.568,0,30-13.432,30-30C62,22.954,57.988,14.848,51.654,9.346z"/>
<path fill-rule="evenodd" clip-rule="evenodd" fill="#FFE8BB" d="M6.418,20.5C5.302,24.243,13,11,25,6.084
	C30.834,3.694,11.168,4.584,6.418,20.5z"/>
<circle fill="#E8A329" cx="19.5" cy="28" r="11.5"/>
<path fill="#FFFFFF" d="M29.5,28c0,5.524-4.48,10-10,10c-5.524,0-10-4.477-10-10c0-5.521,4.476-10,10-10
	C25.02,18,29.5,22.479,29.5,28z"/>
<path fill="#302C3B" d="M24,21.6c0,2.487-2.019,4.5-4.5,4.5c-2.488,0-4.5-2.013-4.5-4.5S17.012,18,19.5,18
	C21.982,18,24,19.113,24,21.6z"/>
<circle fill="#E8A329" cx="44.5" cy="28" r="11.5"/>
<path fill="#FFFFFF" d="M54.5,28c0,5.524-4.48,10-10,10c-5.523,0-10-4.477-10-10c0-5.521,4.477-10,10-10
	C50.02,18,54.5,22.479,54.5,28z"/>
<path fill="#302C3B" d="M49,21.6c0,2.486-2.019,4.499-4.5,4.499c-2.487,0-4.5-2.013-4.5-4.499s2.013-3.6,4.5-3.6
	C46.981,18,49,19.113,49,21.6z"/>
<path fill="#302C3B" d="M40.924,46.477c-5.465-1.029-12.434-1.316-18.375,1.988c-1.071,0.61-0.827,1.844,0.42,1.611
	c4.769-0.768,11.806-0.848,17.146,0.186C42.254,50.686,42.941,46.896,40.924,46.477z"/>
</svg>
