<?xml version="1.0" encoding="utf-8"?>
<!-- Generator: Adobe Illustrator 15.0.0, SVG Export Plug-In . SVG Version: 6.00 Build 0)  -->
<!DOCTYPE svg PUBLIC "-//W3C//DTD SVG 1.1//EN" "http://www.w3.org/Graphics/SVG/1.1/DTD/svg11.dtd">
<svg version="1.1" id="Layer_1" xmlns="http://www.w3.org/2000/svg" xmlns:xlink="http://www.w3.org/1999/xlink" x="0px" y="0px"
	 width="64px" height="64px" viewBox="0 0 64 64" enable-background="new 0 0 64 64" xml:space="preserve">
<path fill="#594640" d="M43.479,5.58c-5.844-7.274-34.83-4.359-34.83,17.092c0.122,11.525,2.061,37.703,23.29,37.703
	c21.226,0,23.167-26.067,23.41-37.703C55.35,15.527,51.104,7.079,43.479,5.58z"/>
<path fill="#422F2A" d="M8.986,29.713c1.045,12.717,5.393,30.662,22.972,30.662c17.636,0,21.957-17.986,23.056-30.746
	c-0.578-5.875-4.143-13.463-11.873-22.409C27.293,17.231,10.176,15.672,8.986,29.713z"/>
<path fill="#FCD5B2" d="M48.181,21.885c-2.419-5.706-6.856-11.895-6.856-11.895c-16.235,9.755-29.961,4.86-26.149,23.349
	c1.81,8.771,12.662,15.568,16.939,15.568c4.27,0,15.397-6.744,16.931-15.568C49.933,28.227,49.308,24.543,48.181,21.885z"/>
<path fill="#F5F5F5" d="M46.955,25.701c-1.933,5.034-9.794,4.294-11.234,0.775C36.815,20.818,45.893,20.334,46.955,25.701z"/>
<path fill="#45332C" d="M37.728,25.165c0,4.44,6.419,4.44,6.419,0C44.146,21.044,37.728,21.044,37.728,25.165z"/>
<path fill="#45332C" d="M46.955,25.665c0-5.404-11.234-5.404-11.234,0.855C37.326,21.384,45.349,21.384,46.955,25.665z"/>
<path fill="#F5F5F5" d="M17.266,25.701c1.933,5.034,9.796,4.294,11.234,0.775C27.407,20.818,18.33,20.334,17.266,25.701z"/>
<path fill="#45332C" d="M26.493,25.165c0,4.44-6.419,4.44-6.419,0C20.074,21.044,26.493,21.044,26.493,25.165z"/>
<path fill="#45332C" d="M17.266,25.665c0-5.402,11.234-5.402,11.234,0.853C26.896,21.384,18.871,21.384,17.266,25.665z"/>
<path fill="#F5F5F5" d="M38.122,24.085c0,1.111,1.606,1.111,1.606,0C39.729,23.057,38.122,23.057,38.122,24.085z"/>
<path fill="#F5F5F5" d="M22.274,23.86c0,1.108-1.604,1.108-1.604,0C20.671,22.83,22.274,22.83,22.274,23.86z"/>
<path fill="#DBA97F" d="M46.272,20.85c-3.401-1.401-8.059-1.675-10.449-0.739c-0.504,0.198-0.488,1.404-0.044,1.284
	c3.429-0.933,7.375-1.006,10.622,0.123C46.837,21.671,46.784,21.062,46.272,20.85z"/>
<path fill="#DBA97F" d="M17.824,20.853c3.401-1.402,8.057-1.676,10.449-0.742c0.506,0.198,0.488,1.406,0.042,1.284
	c-3.428-0.933-7.373-1.006-10.618,0.125C17.26,21.671,17.313,21.062,17.824,20.853z"/>
<path fill="#DBA97F" d="M36.122,33.751c0,2.575-7.917,2.575-7.917,0C28.205,33.159,36.122,33.159,36.122,33.751z"/>
<path fill="#5D1E96" d="M52.399,61.973c0-14.996-1.389-15.168-20.401-15.168c-19.018,0-20.395,0.172-20.395,15.168H52.399z"/>
<path fill="#FFE3C9" d="M4.222,20.201c0.821,0.65,13.87,11.207,13.87,11.207l-3.2,6.135c-4.308-2.57-6.225-7.23-12.492-14.381
	C1.239,21.84,2.836,19.109,4.222,20.201z"/>
<path fill="#FFE3C9" d="M59.778,20.201c-0.821,0.65-13.871,11.207-13.871,11.207l3.201,6.135c4.308-2.57,6.224-7.23,12.492-14.381
	C62.761,21.84,61.163,19.109,59.778,20.201z"/>
<path fill="#8E3ED6" d="M42.808,44.377c4.414-3.541,7.43-6.205,7.43-6.205l-3.484-7.885c-2.979,2.748-8.629,5.662-14.753,8.686
	c-6.125-3.023-11.774-5.938-14.752-8.686l-3.484,7.885c0,0,3.016,2.664,7.429,6.205C10.896,49.803,3.037,55.439,9.107,60.961
	c3.719,3.387,13.696-2.047,22.893-8.453c9.197,6.406,19.175,11.84,22.896,8.453C60.963,55.439,53.104,49.805,42.808,44.377z"/>
<polygon fill="#5D1E96" points="23.119,58.125 42.808,44.377 28.36,57.973 "/>
<polygon fill="#5D1E96" points="21.192,44.377 32,38.973 20.217,43.59 "/>
</svg>
