<?xml version="1.0" encoding="utf-8"?>
<!-- Generator: Adobe Illustrator 15.0.0, SVG Export Plug-In . SVG Version: 6.00 Build 0)  -->
<!DOCTYPE svg PUBLIC "-//W3C//DTD SVG 1.1//EN" "http://www.w3.org/Graphics/SVG/1.1/DTD/svg11.dtd">
<svg version="1.1" id="Layer_1" xmlns="http://www.w3.org/2000/svg" xmlns:xlink="http://www.w3.org/1999/xlink" x="0px" y="0px"
	 width="64px" height="64px" viewBox="0 0 64 64" enable-background="new 0 0 64 64" xml:space="preserve">
<path fill="#F9C802" d="M4.949,2c-1.682,13.432-1.414,24.234,1.09,31.133L29.248,16C24.635,10.908,15.277,3.459,4.949,2z"/>
<path fill="#AB5C10" d="M7.869,32.178L19.816,17c0,0-4.166-5.361-13.221-10.514C3.883,18.143,7.869,32.178,7.869,32.178z"/>
<path fill="#82450D" d="M12.232,23.635L18.879,16c0,0-3.229-4.361-12.283-9.514C13.867,14.658,12.232,23.635,12.232,23.635z"/>
<path fill="#F9C802" d="M59.053,2c1.68,13.432,1.41,24.234-1.092,31.133L34.754,16C39.365,10.908,48.723,3.459,59.053,2z"/>
<path fill="#AB5C10" d="M56.131,32.178L44.184,17c0,0,4.168-5.361,13.221-10.514C60.117,18.143,56.131,32.178,56.131,32.178z"/>
<path fill="#82450D" d="M51.768,23.635L45.121,16c0,0,3.23-4.361,12.283-9.514C50.133,14.658,51.768,23.635,51.768,23.635z"/>
<path fill="#F9C802" d="M57.797,39.126c0,0,0.508-1.586,4.203-0.691c0,0-1.779-4.035-4.299-4.769c0,0,1.822-0.945,3.395-0.515
	c0,0-1.533-4.26-6.221-9.885c0.26-0.078,0.533-0.14,0.832-0.153c0,0-0.906-1.637-2.631-2.499c0,0,1.156-1.406,3.078-2.334
	c0,0-3.102-1.32-5.479-0.449c0,0,0.166-1.3,0.775-2.467c0,0-1.674-0.372-3.438,0.197c-3.99-2.667-9.201-4.2-16.012-4.2
	c-6.814,0-12.023,1.534-16.016,4.2c-1.764-0.569-3.438-0.197-3.438-0.197c0.611,1.168,0.775,2.467,0.775,2.467
	c-2.375-0.871-5.479,0.449-5.479,0.449c1.922,0.928,3.078,2.334,3.078,2.334c-1.725,0.862-2.629,2.499-2.629,2.499
	c0.297,0.014,0.57,0.075,0.83,0.153c-4.688,5.625-6.221,8.885-6.221,8.885c1.572-0.431,3.395,1.515,3.395,1.515
	C3.779,34.399,2,37.435,2,37.435c3.695-0.895,4.201,1.691,4.201,1.691c-2.465,0.539-3.131,1.115-3.131,1.115
	C3.071,40.242,17.952,62,32,62c14.043,0,28.929-20.758,28.93-20.759C60.93,41.241,60.262,39.665,57.797,39.126z"/>
<path fill="#D47706" d="M37.688,11.764c-1.762-0.258-3.65-0.498-5.686-0.498s-3.926,0.24-5.689,0.498
	C27.049,15.619,32,23.348,32,23.348S36.965,15.592,37.688,11.764z"/>
<path fill="#D47706" d="M46.814,14.785c-1.908-1.092-4.072-1.943-6.523-2.523c0.59,2.291,3.627,6.936,3.627,6.936
	S46.135,16.535,46.814,14.785z"/>
<path fill="#D47706" d="M23.711,12.264c-2.451,0.578-4.615,1.43-6.521,2.521c0.686,1.766,2.891,4.412,2.891,4.412
	S23.129,14.533,23.711,12.264z"/>
<ellipse fill="#302C3B" cx="44.357" cy="27.185" rx="3" ry="5.5"/>
<path id="Shape_18_" fill="#FFFFFF" d="M43.81,24.819c0,1.333-1.5,1.333-1.5,0C42.31,23.485,43.81,23.485,43.81,24.819L43.81,24.819
	z"/>
<ellipse fill="#302C3B" cx="19.643" cy="27.185" rx="3" ry="5.5"/>
<path id="Shape_17_" fill="#FFFFFF" d="M19.095,24.819c0,1.333-1.5,1.333-1.5,0C17.595,23.485,19.095,23.485,19.095,24.819
	L19.095,24.819z"/>
<path fill="#D47706" d="M50.342,37.381c12.518-6.336,3.648,10.721,7.498,19.104C58.967,58.945,53.871,62,51.441,62
	C41.898,62,39.48,42.879,50.342,37.381z"/>
<path fill="#D47706" d="M13.657,37.381C1.14,31.045,10.011,48.102,6.161,56.484C5.032,58.945,10.13,62,12.56,62
	C22.103,62,24.521,42.879,13.657,37.381z"/>
<path fill="#302C3B" d="M40,49.001C40,55.074,36.407,60,31.973,60C27.594,60,24,55.074,24,49.001C24,42.924,27.594,38,31.973,38
	C36.407,38,40,42.924,40,49.001z"/>
<path fill="#1A1626" d="M33.881,44.697c-0.616-0.016-1.515,0.554-1.178,2.061c0.168,0.76,1.233,1.682,1.233,2.91
	c0,2.495-3.873,2.495-3.873,0c0-1.229,1.067-2.15,1.235-2.91c0.337-1.507-0.617-2.076-1.18-2.061
	c-1.626,0.043-4.266,1.828-4.266,4.848c0,3.396,2.752,6.146,6.119,6.146c3.424,0,6.176-2.751,6.176-6.146
	C38.148,46.525,35.509,44.74,33.881,44.697z"/>
<path fill="#F26887" d="M31.973,54.304c-3.704,0-4.716,1.037-4.716,1.037c0.955,1.957,2.694,3.276,4.716,3.276
	c2.076,0,3.817-1.319,4.771-3.276C36.744,55.341,35.678,54.304,31.973,54.304z"/>
<path fill="#D47706" d="M22.025,35.33c-9.214-4.957-12.203-3.561-12.324-3.101C9.661,32.379,14.613,32.294,22.025,35.33z"/>
<path fill="#D47706" d="M21.756,36.952c-12.159-3.987-15.588-1.73-15.66-1.159C6.073,35.975,12.139,34.87,21.756,36.952z"/>
<path fill="#D47706" d="M41.975,35.331c9.216-4.959,12.203-3.562,12.324-3.103C54.341,32.378,49.387,32.294,41.975,35.331z"/>
<path fill="#D47706" d="M42.246,36.952c12.157-3.987,15.586-1.73,15.658-1.159C57.927,35.975,51.864,34.869,42.246,36.952z"/>
<path fill="#302C3B" d="M36.042,30.451c-0.811-0.945-7.275-0.945-8.086,0c-1.24,1.451,2.439,4.982,4.043,4.982
	S37.286,31.902,36.042,30.451z"/>
</svg>
