<?xml version="1.0" encoding="utf-8"?>
<!-- Generator: Adobe Illustrator 24.0.3, SVG Export Plug-In . SVG Version: 6.00 Build 0)  -->
<svg version="1.1" id="Succeed" xmlns="http://www.w3.org/2000/svg" xmlns:xlink="http://www.w3.org/1999/xlink" x="0px" y="0px"
	 viewBox="0 0 154 60" style="enable-background:new 0 0 154 60;" xml:space="preserve">
<style type="text/css">
	.st0{enable-background:new    ;}
	.st1{fill:#FBB615;}
	.st2{fill:#FFFFFF;}
	.st3{fill:none;stroke:#1C88C4;stroke-width:0.9412;stroke-miterlimit:10;}
	.st4{fill:#1C88C4;}
</style>
<g>
	<g class="st0">
		<path class="st1" d="M60.764,39.034c0,0.566,0.505,0.801,1.108,0.801s1.121-0.234,1.121-0.801v-5.64
			c0-0.259,0.098-0.369,0.357-0.369h1.33c0.258,0,0.345,0.11,0.345,0.369v5.997c0,1.059-0.837,2.105-3.152,2.105
			s-3.14-1.047-3.14-2.105v-5.997c0-0.259,0.099-0.369,0.357-0.369h1.33c0.259,0,0.345,0.11,0.345,0.369V39.034z"/>
		<path class="st1" d="M72.734,41.029c0,0.259-0.086,0.369-0.345,0.369h-1.207c-0.185,0-0.258-0.049-0.333-0.173l-1.97-3.275
			c-0.209-0.332-0.394-0.763-0.529-1.107v4.187c0,0.259-0.086,0.369-0.345,0.369h-1.207c-0.258,0-0.357-0.11-0.357-0.369v-7.635
			c0-0.259,0.099-0.369,0.357-0.369h1.207c0.16,0,0.258,0.049,0.308,0.147l2.081,3.484c0.148,0.259,0.308,0.628,0.431,0.924v-4.187
			c0-0.259,0.099-0.369,0.357-0.369h1.207c0.258,0,0.345,0.11,0.345,0.369V41.029z"/>
		<path class="st1" d="M74.521,41.398c-0.222,0-0.308-0.123-0.308-0.369v-7.635c0-0.259,0.099-0.369,0.357-0.369h2.783
			c2.315,0,3.152,1.046,3.152,2.105v4.162c0,1.059-0.837,2.105-3.152,2.105H74.521z M76.244,34.688v5.049h1.108
			c0.604,0,1.12-0.234,1.12-0.801v-3.448c0-0.566-0.517-0.8-1.12-0.8H76.244z"/>
		<path class="st1" d="M82.217,41.398c-0.259,0-0.356-0.11-0.356-0.369v-7.635c0-0.259,0.098-0.369,0.356-0.369h4.212
			c0.258,0,0.369,0.086,0.369,0.345v0.96c0,0.259-0.111,0.357-0.369,0.357h-2.537v1.601h2.34c0.259,0,0.369,0.086,0.369,0.345v0.899
			c0,0.258-0.11,0.356-0.369,0.356h-2.34v1.848h2.66c0.259,0,0.369,0.086,0.369,0.345v0.96c0,0.259-0.11,0.357-0.369,0.357H82.217z"
			/>
		<path class="st1" d="M92.956,38l1.207,3.029c0.086,0.222-0.074,0.369-0.345,0.369h-1.33c-0.233,0-0.283-0.197-0.357-0.369
			l-1.083-2.722h-0.924v2.722c0,0.259-0.086,0.369-0.345,0.369h-1.33c-0.259,0-0.356-0.11-0.356-0.369v-7.635
			c0-0.259,0.098-0.369,0.356-0.369h2.66c2.314,0,3.128,1.046,3.128,2.105v1.071C94.237,36.904,93.88,37.605,92.956,38z
			 M90.124,34.688v1.958h0.985c0.604,0,1.12-0.234,1.12-0.801v-0.357c0-0.566-0.517-0.8-1.12-0.8H90.124z"/>
		<path class="st1" d="M101.048,35.783c0-0.332-0.333-0.394-0.678-0.394s-0.665,0.062-0.665,0.394v0.062
			c0,0.185,0.136,0.283,0.259,0.333l1.725,0.615c0.824,0.296,1.231,0.739,1.231,1.33v0.591c0,0.641-0.432,1.293-1.515,1.564v0.751
			c0,0.259-0.087,0.369-0.346,0.369h-1.268c-0.259,0-0.357-0.11-0.357-0.369v-0.715c-1.219-0.222-1.687-0.923-1.687-1.601v-0.259
			c0-0.233,0.086-0.332,0.332-0.332h1.133c0.246,0,0.333,0.099,0.333,0.332v0.173c0,0.332,0.406,0.394,0.775,0.394
			s0.788-0.062,0.788-0.394v-0.111c0-0.16-0.099-0.233-0.48-0.381l-1.736-0.665c-0.455-0.173-0.973-0.739-0.973-1.343v-0.345
			c0-0.652,0.382-1.392,1.515-1.65v-0.738c0-0.259,0.099-0.369,0.357-0.369h1.268c0.259,0,0.346,0.11,0.346,0.369v0.764
			c1.071,0.271,1.44,0.984,1.44,1.625v0.173c0,0.246-0.086,0.345-0.345,0.345h-1.121c-0.246,0-0.332-0.099-0.332-0.345V35.783z"/>
		<path class="st1" d="M109.558,33.025c0.259,0,0.369,0.086,0.369,0.345v0.96c0,0.259-0.11,0.357-0.369,0.357h-3.005v1.207h0.604
			c2.315,0,3.042,1.034,3.042,2.093v1.416c0,1.06-0.715,2.105-3.029,2.105c-2.315,0-3.029-1.046-3.029-2.105V38.96
			c0-0.258,0.086-0.369,0.345-0.369h1.269c0.258,0,0.356,0.111,0.356,0.369v0.148c0,0.566,0.432,0.8,1.034,0.8
			c0.604,0,1.022-0.233,1.022-0.8v-0.825c0-0.566-0.419-0.788-1.022-0.788h-2.277c-0.259,0-0.345-0.111-0.345-0.369v-3.731
			c0-0.259,0.086-0.369,0.345-0.369H109.558z"/>
		<path class="st1" d="M111.184,35.032c0-1.059,0.801-2.105,3.018-2.105c2.216,0,3.029,1.047,3.029,2.105v4.359
			c0,1.059-0.813,2.105-3.029,2.105c-2.217,0-3.018-1.047-3.018-2.105V35.032z M115.198,35.39c0-0.566-0.419-0.801-0.997-0.801
			c-0.579,0-0.985,0.234-0.985,0.801v3.645c0,0.566,0.406,0.801,0.985,0.801c0.578,0,0.997-0.234,0.997-0.801V35.39z"/>
		<path class="st1" d="M124.977,41.029c0.123,0.185,0.074,0.369-0.185,0.369h-1.699c-0.259,0-0.395-0.185-0.518-0.369l-1.945-3.018
			h-0.136v3.018c0,0.259-0.086,0.369-0.345,0.369h-1.33c-0.259,0-0.356-0.11-0.356-0.369v-7.635c0-0.259,0.098-0.369,0.356-0.369
			h1.33c0.259,0,0.345,0.11,0.345,0.369v3.14h0.123l1.884-3.14c0.124-0.197,0.32-0.369,0.579-0.369h1.416
			c0.259,0,0.296,0.172,0.173,0.369l-2.34,3.743L124.977,41.029z"/>
	</g>
	<g class="st0">
		<path class="st1" d="M63.141,20.255c0.259,0,0.37,0.086,0.37,0.345v0.96c0,0.259-0.111,0.357-0.37,0.357h-1.576v6.341
			c0,0.259-0.086,0.37-0.345,0.37h-1.33c-0.259,0-0.357-0.111-0.357-0.37v-6.341h-1.576c-0.258,0-0.369-0.099-0.369-0.357V20.6
			c0-0.258,0.111-0.345,0.369-0.345H63.141z"/>
		<path class="st1" d="M64.164,22.263c0-1.059,0.825-2.106,3.14-2.106s3.152,1.047,3.152,2.106v4.359
			c0,1.059-0.837,2.106-3.152,2.106s-3.14-1.047-3.14-2.106V22.263z M68.425,22.62c0-0.566-0.518-0.8-1.121-0.8
			c-0.604,0-1.108,0.234-1.108,0.8v3.645c0,0.566,0.505,0.8,1.108,0.8c0.603,0,1.121-0.234,1.121-0.8V22.62z"/>
		<path class="st1" d="M73.843,25.784v2.475c0,0.259-0.086,0.37-0.345,0.37h-1.33c-0.258,0-0.357-0.111-0.357-0.37v-7.634
			c0-0.259,0.099-0.37,0.357-0.37h2.66c2.315,0,3.127,1.047,3.127,2.106v1.317c0,1.059-0.812,2.105-3.127,2.105H73.843z
			 M73.843,21.918v2.204h0.985c0.603,0,1.121-0.234,1.121-0.8v-0.604c0-0.566-0.518-0.8-1.121-0.8H73.843z"/>
		<path class="st1" d="M86.467,20.6v0.96c0,0.259-0.111,0.357-0.369,0.357h-2.82v1.601H85.9c0.259,0,0.369,0.086,0.369,0.345v0.96
			c0,0.259-0.11,0.357-0.369,0.357h-2.623v3.078c0,0.259-0.086,0.37-0.345,0.37h-1.33c-0.259,0-0.356-0.111-0.356-0.37v-7.634
			c0-0.259,0.098-0.37,0.356-0.37h4.495C86.355,20.255,86.467,20.342,86.467,20.6z"/>
		<path class="st1" d="M92.439,25.23l1.207,3.029c0.086,0.222-0.074,0.37-0.345,0.37h-1.33c-0.233,0-0.283-0.197-0.357-0.37
			l-1.083-2.721h-0.924v2.721c0,0.259-0.086,0.37-0.345,0.37h-1.33c-0.259,0-0.356-0.111-0.356-0.37v-7.634
			c0-0.259,0.098-0.37,0.356-0.37h2.66c2.314,0,3.128,1.047,3.128,2.106v1.071C93.721,24.134,93.363,24.836,92.439,25.23z
			 M89.607,21.918v1.958h0.985c0.604,0,1.12-0.234,1.12-0.801v-0.357c0-0.566-0.517-0.8-1.12-0.8H89.607z"/>
		<path class="st1" d="M98.881,20.625l2.229,7.634c0.074,0.234-0.012,0.37-0.271,0.37h-1.367c-0.259,0-0.369-0.135-0.431-0.37
			l-0.32-1.182h-2.044l-0.32,1.182c-0.062,0.234-0.173,0.37-0.431,0.37h-1.244c-0.259,0-0.345-0.135-0.271-0.37l2.229-7.634
			c0.074-0.247,0.197-0.37,0.456-0.37h1.329C98.684,20.255,98.807,20.378,98.881,20.625z M98.105,24.812
			c-0.197-0.751-0.37-2.463-0.382-2.574c-0.025,0.173-0.222,1.859-0.419,2.574l-0.185,0.665h1.157L98.105,24.812z"/>
		<path class="st1" d="M108.277,28.259c0,0.259-0.086,0.37-0.345,0.37h-1.207c-0.185,0-0.259-0.049-0.332-0.172l-1.971-3.275
			c-0.209-0.333-0.394-0.764-0.529-1.108v4.187c0,0.259-0.086,0.37-0.345,0.37h-1.207c-0.259,0-0.356-0.111-0.356-0.37v-7.634
			c0-0.259,0.098-0.37,0.356-0.37h1.207c0.16,0,0.259,0.049,0.308,0.148l2.081,3.485c0.147,0.258,0.308,0.628,0.432,0.923v-4.187
			c0-0.259,0.098-0.37,0.356-0.37h1.207c0.259,0,0.345,0.111,0.345,0.37V28.259z"/>
		<path class="st1" d="M115.69,26.622c0,1.059-0.714,2.106-3.029,2.106c-2.314,0-3.029-1.047-3.029-2.106v-4.359
			c0-1.059,0.715-2.106,3.029-2.106c2.315,0,3.029,1.047,3.029,2.106v0.566c0,0.259-0.086,0.37-0.345,0.37h-1.269
			c-0.258,0-0.356-0.111-0.356-0.37V22.62c0-0.566-0.432-0.8-1.034-0.8c-0.604,0-1.022,0.234-1.022,0.8v3.645
			c0,0.566,0.419,0.8,1.022,0.8c0.603,0,1.034-0.234,1.034-0.8v-0.394c0-0.259,0.099-0.37,0.356-0.37h1.269
			c0.259,0,0.345,0.111,0.345,0.37V26.622z"/>
		<path class="st1" d="M118.894,23.556h2.229v-2.931c0-0.259,0.099-0.37,0.357-0.37h1.33c0.259,0,0.345,0.111,0.345,0.37v7.634
			c0,0.259-0.086,0.37-0.345,0.37h-1.33c-0.259,0-0.357-0.111-0.357-0.37v-3.042h-2.229v3.042c0,0.259-0.086,0.37-0.345,0.37h-1.33
			c-0.259,0-0.356-0.111-0.356-0.37v-7.634c0-0.259,0.098-0.37,0.356-0.37h1.33c0.259,0,0.345,0.111,0.345,0.37V23.556z"/>
		<path class="st1" d="M126.665,28.259c0,0.259-0.086,0.37-0.345,0.37h-1.33c-0.259,0-0.356-0.111-0.356-0.37v-7.634
			c0-0.259,0.098-0.37,0.356-0.37h1.33c0.259,0,0.345,0.111,0.345,0.37V28.259z"/>
		<path class="st1" d="M131.985,22.534c0-0.566-0.395-0.776-0.961-0.776s-0.973,0.209-0.973,0.776v0.123
			c0,0.333,0.259,0.48,0.395,0.529l2.068,0.702c0.911,0.308,1.539,0.948,1.539,1.859v0.874c0,1.059-0.751,2.106-3.066,2.106
			c-2.314,0-3.091-1.047-3.091-2.106v-0.825c0-0.259,0.099-0.37,0.357-0.37h1.28c0.259,0,0.345,0.111,0.345,0.37v0.554
			c0,0.566,0.48,0.775,1.084,0.775s1.096-0.209,1.096-0.775v-0.247c0-0.443-0.591-0.652-1.059-0.825l-1.773-0.665
			c-0.628-0.234-1.145-0.924-1.145-1.638v-0.714c0-1.059,0.64-2.106,2.918-2.106s2.968,1.047,2.968,2.106v0.456
			c0,0.259-0.099,0.37-0.357,0.37h-1.28c-0.259,0-0.345-0.111-0.345-0.37V22.534z"/>
		<path class="st1" d="M135.581,28.629c-0.259,0-0.356-0.111-0.356-0.37v-7.634c0-0.259,0.098-0.37,0.356-0.37h4.212
			c0.258,0,0.369,0.086,0.369,0.345v0.96c0,0.259-0.111,0.357-0.369,0.357h-2.537v1.601h2.34c0.259,0,0.369,0.086,0.369,0.345v0.899
			c0,0.259-0.11,0.357-0.369,0.357h-2.34v1.847h2.66c0.259,0,0.369,0.086,0.369,0.345v0.96c0,0.258-0.11,0.357-0.369,0.357H135.581z
			"/>
		<path class="st1" d="M145.298,22.534c0-0.566-0.395-0.776-0.961-0.776s-0.973,0.209-0.973,0.776v0.123
			c0,0.333,0.259,0.48,0.395,0.529l2.068,0.702c0.911,0.308,1.539,0.948,1.539,1.859v0.874c0,1.059-0.751,2.106-3.066,2.106
			c-2.314,0-3.091-1.047-3.091-2.106v-0.825c0-0.259,0.099-0.37,0.357-0.37h1.28c0.259,0,0.345,0.111,0.345,0.37v0.554
			c0,0.566,0.48,0.775,1.084,0.775s1.096-0.209,1.096-0.775v-0.247c0-0.443-0.591-0.652-1.059-0.825l-1.773-0.665
			c-0.628-0.234-1.145-0.924-1.145-1.638v-0.714c0-1.059,0.64-2.106,2.918-2.106s2.968,1.047,2.968,2.106v0.456
			c0,0.259-0.099,0.37-0.357,0.37h-1.28c-0.259,0-0.345-0.111-0.345-0.37V22.534z"/>
	</g>
</g>
<g>
	<g>
		<path class="st2" d="M135.692,39.89l1.283-1.176h-5.042v-2.559h5.042l-1.283-1.2v-1.796h1.754l3.299,3.384v1.759l-3.299,3.397
			h-1.754L135.692,39.89L135.692,39.89z"/>
	</g>
</g>
<g>
	<g>
		<polygon class="st3" points="4.974,6.481 4.974,48.139 4.974,50.171 4.974,50.235 26.975,56.055 48.973,50.171 48.973,48.139 
			48.973,6.481 		"/>
	</g>
	<g>
		<rect x="4.974" y="6.481" class="st4" width="43.999" height="10.222"/>
	</g>
</g>
<g>
	<g>
		<g>
			<path class="st2" d="M14.231,47.793c-3.509,0.006-5.073-1.017-5.439-3.795c-0.069-0.569-0.048-1.321-0.048-1.936l3.418-0.005
				c0,0.228-0.044,0.888,0.048,1.435c0.182,1.002,0.817,1.388,1.836,1.386c1.155-0.002,1.788-0.572,1.854-1.461
				c0.066-0.866,0.086-2.733-0.029-3.69c-0.115-1.047-0.704-1.502-1.723-1.5c-0.883,0.001-1.697,0.435-1.809,1.506l-3.305,0.005
				L9.018,29.512l9.916-0.016l0.005,3.12l-6.769,0.011l-0.016,4.145c0.542-1.162,1.922-1.597,3.506-1.6
				c2.264-0.004,3.692,1.315,3.945,3.479c0.115,1.07,0.119,4.008,0.008,5.307C19.436,46.168,17.65,47.788,14.231,47.793z"/>
		</g>
		<g>
			<path class="st2" d="M32.069,33.279c0.251,1.389,0.3,3.416,0.302,5.215c0.002,1.367-0.13,3.826-0.331,5.102
				c-0.516,2.734-2.189,4.172-5.223,4.176c-3.124,0.005-4.689-1.336-5.259-4.182c-0.229-1.23-0.323-3.666-0.326-5.078
				c-0.003-1.89-0.006-3.735,0.241-5.193c0.427-2.324,1.895-4.034,5.313-4.04C30.025,29.274,31.681,31.071,32.069,33.279z
				 M28.674,34.082c-0.07-1.093-0.704-1.775-1.882-1.773c-1.223,0.002-1.833,0.686-1.922,1.802c-0.111,1.458-0.13,3.325-0.129,4.419
				c0.002,1.594,0.096,3.781,0.165,4.578c0.138,1.161,0.772,1.753,1.904,1.751c1.155-0.002,1.765-0.663,1.899-1.757
				c0.067-0.706,0.108-3.348,0.106-4.646C28.815,36.952,28.791,35.79,28.674,34.082z"/>
		</g>
		<g>
			<path class="st2" d="M44.904,33.259c0.251,1.389,0.3,3.416,0.302,5.215c0.002,1.367-0.13,3.826-0.331,5.102
				c-0.516,2.734-2.189,4.172-5.223,4.176c-3.124,0.005-4.689-1.336-5.259-4.182c-0.229-1.23-0.323-3.666-0.326-5.078
				c-0.003-1.89-0.006-3.735,0.241-5.193c0.427-2.324,1.895-4.034,5.313-4.04C42.86,29.254,44.515,31.05,44.904,33.259z
				 M41.509,34.061c-0.07-1.093-0.704-1.775-1.882-1.774c-1.223,0.002-1.833,0.686-1.922,1.802c-0.111,1.458-0.13,3.325-0.129,4.419
				c0.002,1.594,0.096,3.781,0.165,4.578c0.138,1.161,0.772,1.752,1.904,1.751c1.155-0.002,1.765-0.663,1.899-1.757
				c0.067-0.706,0.108-3.348,0.106-4.646C41.649,36.931,41.625,35.769,41.509,34.061z"/>
		</g>
	</g>
	<g>
		<g>
			<g>
				<path class="st2" d="M44.627,30.344c-0.013,0.029-0.036,0.051-0.06,0.057l0.109,0.335h-0.08l-0.106-0.319h-0.123l0.001,0.319
					h-0.077l-0.001-0.713h0.213c0.069,0,0.106,0.03,0.125,0.079c0.011,0.025,0.017,0.065,0.017,0.119
					C44.645,30.277,44.638,30.319,44.627,30.344z M44.556,30.145c-0.008-0.029-0.029-0.047-0.067-0.047h-0.121c0,0,0,0.238,0,0.249
					c0,0,0.126-0.001,0.13-0.001c0.029-0.002,0.047-0.014,0.054-0.033c0.006-0.016,0.009-0.056,0.009-0.082
					C44.562,30.199,44.56,30.155,44.556,30.145z"/>
			</g>
		</g>
		<g>
			<g>
				<path class="st2" d="M44.435,30.962c-0.331,0-0.599-0.271-0.599-0.603c0-0.333,0.269-0.603,0.599-0.603
					c0.331,0,0.599,0.271,0.599,0.603C45.034,30.692,44.765,30.962,44.435,30.962z M44.435,29.859c-0.274,0-0.497,0.224-0.497,0.5
					s0.223,0.5,0.497,0.5c0.274,0,0.497-0.224,0.497-0.5C44.932,30.083,44.709,29.859,44.435,29.859z"/>
			</g>
		</g>
	</g>
</g>
<g>
	<path class="st2" d="M11.816,20.618v0.548c0,0.148-0.063,0.204-0.209,0.204h-1.598v0.913h1.486c0.147,0,0.21,0.05,0.21,0.197v0.548
		c0,0.148-0.063,0.204-0.21,0.204h-1.486v1.756c0,0.147-0.05,0.21-0.196,0.21H9.059c-0.147,0-0.202-0.063-0.202-0.21v-4.354
		c0-0.148,0.055-0.211,0.202-0.211h2.548C11.754,20.422,11.816,20.471,11.816,20.618z"/>
	<path class="st2" d="M15.548,23.259l0.684,1.728c0.05,0.126-0.041,0.21-0.195,0.21h-0.754c-0.133,0-0.161-0.112-0.203-0.21
		l-0.614-1.552h-0.523v1.552c0,0.147-0.05,0.21-0.196,0.21h-0.754c-0.147,0-0.202-0.063-0.202-0.21v-4.354
		c0-0.148,0.055-0.211,0.202-0.211H14.5c1.313,0,1.773,0.597,1.773,1.201v0.611C16.274,22.634,16.072,23.035,15.548,23.259z
		 M13.943,21.37v1.117h0.558c0.342,0,0.635-0.133,0.635-0.457v-0.204c0-0.323-0.293-0.456-0.635-0.456H13.943z"/>
	<path class="st2" d="M19.545,20.633l1.264,4.354c0.041,0.133-0.007,0.21-0.154,0.21h-0.774c-0.147,0-0.21-0.077-0.244-0.21
		l-0.182-0.675h-1.16l-0.182,0.675c-0.035,0.133-0.097,0.21-0.244,0.21h-0.704c-0.147,0-0.196-0.077-0.153-0.21l1.263-4.354
		c0.042-0.141,0.112-0.211,0.258-0.211h0.754C19.433,20.422,19.502,20.492,19.545,20.633z M19.105,23.02
		c-0.112-0.428-0.21-1.404-0.217-1.467c-0.014,0.097-0.125,1.06-0.237,1.467l-0.105,0.38h0.656L19.105,23.02z"/>
	<path class="st2" d="M25.217,24.987c0,0.147-0.049,0.21-0.196,0.21h-0.684c-0.105,0-0.146-0.028-0.188-0.098l-1.117-1.868
		c-0.119-0.19-0.223-0.436-0.3-0.632v2.388c0,0.147-0.05,0.21-0.196,0.21h-0.684c-0.147,0-0.202-0.063-0.202-0.21v-4.354
		c0-0.148,0.055-0.211,0.202-0.211h0.684c0.091,0,0.146,0.028,0.175,0.085l1.179,1.987c0.084,0.148,0.175,0.358,0.244,0.527v-2.387
		c0-0.148,0.056-0.211,0.202-0.211h0.684c0.147,0,0.196,0.063,0.196,0.211L25.217,24.987L25.217,24.987z"/>
	<path class="st2" d="M29.764,24.053c0,0.604-0.405,1.2-1.717,1.2c-1.313,0-1.717-0.597-1.717-1.2v-2.486
		c0-0.604,0.404-1.201,1.717-1.201c1.312,0,1.717,0.597,1.717,1.201v0.323c0,0.148-0.049,0.21-0.196,0.21h-0.719
		c-0.146,0-0.202-0.063-0.202-0.21v-0.12c0-0.323-0.244-0.456-0.586-0.456s-0.579,0.133-0.579,0.456v2.079
		c0,0.323,0.237,0.457,0.579,0.457s0.586-0.134,0.586-0.457v-0.225c0-0.147,0.056-0.21,0.202-0.21h0.719
		c0.147,0,0.196,0.063,0.196,0.21L29.764,24.053z"/>
	<path class="st2" d="M31.925,22.304h1.263v-1.671c0-0.148,0.056-0.211,0.202-0.211h0.754c0.147,0,0.196,0.063,0.196,0.211v4.354
		c0,0.147-0.049,0.21-0.196,0.21H33.39c-0.146,0-0.202-0.063-0.202-0.21v-1.734h-1.263v1.734c0,0.147-0.05,0.21-0.196,0.21h-0.754
		c-0.147,0-0.202-0.063-0.202-0.21v-4.354c0-0.148,0.055-0.211,0.202-0.211h0.754c0.146,0,0.196,0.063,0.196,0.211V22.304z"/>
	<path class="st2" d="M36.676,24.987c0,0.147-0.05,0.21-0.196,0.21h-0.754c-0.147,0-0.202-0.063-0.202-0.21v-4.354
		c0-0.148,0.055-0.211,0.202-0.211h0.754c0.146,0,0.196,0.063,0.196,0.211V24.987z"/>
	<path class="st2" d="M40.039,21.721c0-0.324-0.223-0.442-0.544-0.442c-0.322,0-0.551,0.119-0.551,0.442v0.07
		c0,0.19,0.146,0.274,0.223,0.302l1.172,0.4c0.517,0.176,0.873,0.541,0.873,1.061v0.499c0,0.604-0.426,1.2-1.738,1.2
		c-1.313,0-1.752-0.597-1.752-1.2v-0.471c0-0.148,0.055-0.211,0.202-0.211h0.726c0.146,0,0.195,0.063,0.195,0.211v0.315
		c0,0.324,0.272,0.443,0.615,0.443c0.342,0,0.62-0.119,0.62-0.443v-0.14c0-0.253-0.335-0.372-0.6-0.471l-1.005-0.38
		c-0.356-0.133-0.649-0.527-0.649-0.934v-0.407c0-0.604,0.363-1.201,1.654-1.201s1.682,0.597,1.682,1.201v0.259
		c0,0.148-0.055,0.211-0.202,0.211h-0.725c-0.147,0-0.196-0.063-0.196-0.211L40.039,21.721L40.039,21.721z"/>
	<path class="st2" d="M42.423,25.198c-0.147,0-0.202-0.063-0.202-0.21v-4.354c0-0.148,0.055-0.211,0.202-0.211h2.387
		c0.146,0,0.21,0.05,0.21,0.197v0.548c0,0.148-0.063,0.204-0.21,0.204h-1.438v0.913h1.325c0.147,0,0.21,0.05,0.21,0.197v0.513
		c0,0.147-0.063,0.203-0.21,0.203h-1.325v1.054h1.507c0.146,0,0.21,0.049,0.21,0.196v0.548c0,0.148-0.063,0.204-0.21,0.204h-2.456
		V25.198z"/>
</g>
<g>
	<g>
		<g>
			<path class="st2" d="M8.819,12.733l0.476-0.075V8.252L8.761,8.183L8.79,7.71h3.327l-0.081,1.333l-0.664-0.017l-0.04-0.837h-1.029
				v1.981h0.448l0.104-0.456l0.466,0.011v1.368h-0.46l-0.11-0.468h-0.448v2.102h1.035l0.098-0.912l0.698,0.023l0.052,1.391h-3.39
				L8.819,12.733z"/>
		</g>
		<g>
			<path class="st2" d="M12.49,13.23l0.017-0.41l0.374-0.075V9.967l-0.437-0.04V9.511l1.094-0.156l0.082,0.237v0.156
				c0.266-0.277,0.583-0.439,0.987-0.439c0.595,0,1.033,0.358,1.033,1.074v2.362l0.397,0.075l-0.023,0.41h-1.29v-2.648
				c0-0.381-0.14-0.595-0.481-0.595c-0.115,0-0.198,0.023-0.29,0.052c-0.058,0.046-0.11,0.115-0.156,0.179v2.527l0.393,0.075
				l-0.029,0.41L12.49,13.23z"/>
		</g>
		<g>
			<path class="st2" d="M33.36,13.23l0.017-0.41l0.374-0.075V9.967l-0.437-0.04V9.511l1.094-0.156l0.082,0.237v0.156
				c0.266-0.277,0.583-0.439,0.987-0.439c0.595,0,1.033,0.358,1.033,1.074v2.362l0.397,0.075l-0.023,0.41h-1.29v-2.648
				c0-0.381-0.14-0.595-0.481-0.595c-0.115,0-0.198,0.023-0.29,0.052c-0.058,0.046-0.11,0.115-0.156,0.179v2.527l0.392,0.075
				l-0.029,0.41L33.36,13.23z"/>
		</g>
		<g>
			<path class="st2" d="M18.1,13.153c-0.15,0.064-0.421,0.133-0.774,0.133c-0.462,0-0.892-0.208-0.892-0.883V9.965l-0.439-0.069
				l0.017-0.485l0.496-0.023l0.214-0.739l0.633-0.029v0.791h0.687l-0.047,0.485l-0.626,0.069v2.432c0,0.202,0.11,0.335,0.317,0.335
				h0.374L18.1,13.153z"/>
		</g>
		<g>
			<path class="st2" d="M43.955,13.23l0.017-0.398l0.352-0.081V9.967l-0.416-0.04V9.511l1.13-0.156l0.075,0.271v0.087
				c0.294-0.219,0.699-0.364,1.178-0.364l0.167,0.144l-0.115,1.045l-0.624-0.023l-0.063-0.56c-0.144,0.023-0.283,0.064-0.398,0.144
				v2.651l0.393,0.081l-0.029,0.398h-1.667V13.23z"/>
		</g>
		<g>
			<path class="st2" d="M27.684,13.23l0.017-0.398l0.352-0.081V9.967l-0.416-0.04V9.511l1.13-0.156l0.075,0.271v0.087
				c0.294-0.219,0.699-0.364,1.178-0.364l0.167,0.144l-0.115,1.045l-0.624-0.023l-0.063-0.56c-0.144,0.023-0.283,0.064-0.398,0.144
				v2.651l0.393,0.081l-0.029,0.398h-1.667V13.23z"/>
		</g>
		<g>
			<path class="st2" d="M18.375,13.23l0.017-0.398l0.352-0.081V9.967l-0.416-0.04V9.511l1.13-0.156l0.075,0.271v0.087
				c0.294-0.219,0.699-0.364,1.178-0.364l0.167,0.144l-0.115,1.045l-0.623-0.023l-0.064-0.56c-0.144,0.023-0.283,0.064-0.398,0.144
				v2.651l0.393,0.081l-0.029,0.398h-1.667V13.23z"/>
		</g>
		<g>
			<path class="st2" d="M21.957,11.537c0,0.664,0.287,1.177,0.862,1.177c0.294,0,0.531-0.063,0.808-0.19l0.156,0.364
				c-0.283,0.225-0.694,0.398-1.214,0.398c-1.006,0-1.587-0.872-1.587-1.991c0-0.952,0.418-1.995,1.576-1.995
				c1.005,0,1.387,0.933,1.387,1.972l-0.098,0.248L21.957,11.537z M21.939,11.092l1.162-0.052c-0.023-0.462-0.119-1.198-0.573-1.198
				c-0.108,0-0.186,0.017-0.324,0.092C22.017,10.252,21.937,10.826,21.939,11.092z"/>
		</g>
		<g>
			<path class="st2" d="M38.008,11.537c0,0.664,0.287,1.177,0.862,1.177c0.294,0,0.531-0.063,0.808-0.19l0.156,0.364
				c-0.283,0.225-0.694,0.398-1.214,0.398c-1.006,0-1.587-0.872-1.587-1.991c0-0.952,0.418-1.995,1.576-1.995
				c1.005,0,1.387,0.933,1.387,1.972l-0.098,0.248L38.008,11.537z M37.991,11.092l1.162-0.052c-0.023-0.462-0.119-1.198-0.573-1.198
				c-0.108,0-0.186,0.017-0.324,0.092C38.068,10.252,37.989,10.826,37.991,11.092z"/>
		</g>
		<g>
			<path class="st2" d="M31.265,11.537c0,0.664,0.287,1.177,0.862,1.177c0.294,0,0.531-0.063,0.808-0.19l0.156,0.364
				c-0.283,0.225-0.694,0.398-1.214,0.398c-1.006,0-1.587-0.872-1.587-1.991c0-0.952,0.418-1.995,1.576-1.995
				c1.005,0,1.387,0.933,1.387,1.972l-0.098,0.248L31.265,11.537z M31.247,11.092l1.162-0.052c-0.023-0.462-0.119-1.198-0.573-1.198
				c-0.108,0-0.186,0.017-0.324,0.092C31.325,10.252,31.245,10.826,31.247,11.092z"/>
		</g>
		<g>
			<path class="st2" d="M42.608,13.23l-0.098-0.329c-0.254,0.242-0.502,0.387-0.889,0.387c-0.595,0-1.127-0.3-1.127-1.12v-2.3
				l-0.437-0.04V9.464l1.255-0.144l0.098,0.329v2.404c0,0.421,0.17,0.641,0.511,0.641c0.097,0,0.219-0.012,0.329-0.058
				c0.063-0.064,0.121-0.139,0.173-0.214V9.868l-0.45-0.04V9.464l1.268-0.144l0.098,0.329v3.096l0.391,0.075l-0.046,0.41H42.608z"/>
		</g>
	</g>
	<g>
		<path class="st2" d="M25.825,12.733c-0.202,0-0.358-0.035-0.485-0.104v-2.442c0.052-0.081,0.115-0.156,0.179-0.225
			c0.115-0.04,0.224-0.058,0.345-0.058c0.519,0,0.605,0.526,0.605,1.467c0,0.906-0.135,1.156-0.171,1.258
			C26.16,12.699,26.01,12.733,25.825,12.733z M27.374,11.201c0-1.166-0.346-1.898-1.205-1.898c-0.571,0-0.843,0.33-0.955,0.469
			V9.645l-0.099-0.329l-1.128,0.156V9.87l0.437,0.058v4.708l-0.37,0.075l-0.017,0.393h1.667l0.029-0.393l-0.393-0.075v-1.493
			c0.156,0.087,0.379,0.144,0.622,0.144C27.361,13.288,27.374,11.857,27.374,11.201z"/>
	</g>
</g>
</svg>
