<?xml version="1.0" encoding="utf-8"?>
<!-- Generator: Adobe Illustrator 25.0.1, SVG Export Plug-In . SVG Version: 6.00 Build 0)  -->
<svg version="1.1" id="Layer_1" xmlns="http://www.w3.org/2000/svg" xmlns:xlink="http://www.w3.org/1999/xlink" x="0px" y="0px"
	 viewBox="0 0 154 60" style="enable-background:new 0 0 154 60;" xml:space="preserve">
<style type="text/css">
	.st0{fill:none;stroke:#FFFFFF;stroke-width:0.25;stroke-miterlimit:22.836;}
	.st1{fill:#FFFFFF;}
	.st2{fill:none;stroke:#FFFFFF;stroke-width:0.2;stroke-miterlimit:22.836;}
	.st3{fill:none;stroke:#FFFFFF;stroke-width:0.15;stroke-miterlimit:22.836;}
	.st4{fill:none;}
	.st5{fill:#EC1A3B;}
</style>
<g id="Layer_1_1_">
</g>
<g>
	<path class="st0" d="M15.149,42.551h2.233V25.533h0.447l1.452,17.018h2.011V39.74l-1.416-14.623
		c0.558-0.313,1.081-1.145,1.267-1.822V8.255c-0.485-1.457-1.639-2.134-2.458-2.134h-3.536V42.551z"/>
	<path class="st1" d="M19.876,25.116c0.558-0.313,1.081-1.145,1.267-1.822V8.255c-0.485-1.457-1.639-2.134-2.458-2.134h-3.536v36.43
		h2.233V25.533h0.447l1.452,17.018h2.011V39.74L19.876,25.116z M18.795,22.098c-0.026,0.177-0.126,0.408-0.444,0.408h-0.855V9.149
		h0.855c0.284,0,0.418,0.228,0.445,0.423L18.795,22.098z"/>
	<path class="st2" d="M17.496,22.506V9.149h0.855c0.284,0,0.418,0.228,0.446,0.423l-0.001,12.525
		c-0.026,0.177-0.126,0.408-0.444,0.408H17.496z"/>
	<polygon class="st0" points="27.656,6.121 23.548,6.121 22.331,39.74 22.331,42.551 24.46,42.551 24.803,30.425 26.325,30.425 
		26.628,42.551 28.834,42.551 28.834,39.74 	"/>
	<path class="st1" d="M27.656,6.121h-4.108l-1.217,33.62v2.811h2.13l0.343-12.126h1.522l0.303,12.126h2.206V39.74L27.656,6.121z
		 M25.006,27.425c0.175-6.129,0.351-12.257,0.526-18.386h0.139c0.164,6.129,0.326,12.258,0.49,18.386H25.006z"/>
	<path class="st3" d="M25.006,27.425c0.175-6.129,0.351-12.257,0.526-18.386h0.139c0.164,6.129,0.326,12.258,0.49,18.386H25.006z"/>
	<polygon class="st1" points="30.013,42.551 31.838,42.551 31.838,18.559 32.13,18.559 34.21,42.551 36.509,42.551 36.509,6.12 
		34.684,6.12 34.684,30.009 34.393,30.009 32.312,6.12 30.013,6.12 	"/>
	<polygon class="st0" points="30.013,42.551 31.838,42.551 31.838,18.559 32.13,18.559 34.21,42.551 36.509,42.551 36.509,6.12 
		34.684,6.12 34.684,30.009 34.393,30.009 32.312,6.12 30.013,6.12 	"/>
	<path class="st1" d="M41.122,42.967c1.861,0,2.735-1.457,3.039-2.081V25.949h-2.203v13.27c-0.038,0.417-0.342,0.832-0.836,0.832
		c-0.494,0-0.797-0.416-0.836-0.832V9.451c0.038-0.364,0.342-0.832,0.836-0.832c0.494,0,0.797,0.417,0.836,0.832v12.751h2.203V7.787
		c-0.266-0.624-1.216-2.082-3.039-2.082c-2.127,0-3,1.874-3.114,2.342v32.578C38.121,41.042,38.994,42.967,41.122,42.967"/>
	<path class="st0" d="M41.122,42.967c1.861,0,2.735-1.457,3.039-2.081V25.949h-2.203v13.27c-0.038,0.417-0.342,0.832-0.836,0.832
		c-0.494,0-0.797-0.416-0.836-0.832V9.451c0.038-0.364,0.342-0.832,0.836-0.832c0.494,0,0.797,0.417,0.836,0.832v12.751h2.203V7.787
		c-0.266-0.624-1.216-2.082-3.039-2.082c-2.127,0-3,1.874-3.114,2.342v32.578C38.121,41.042,38.994,42.967,41.122,42.967z"/>
	<polygon class="st1" points="45.662,42.551 47.843,42.551 47.843,25.533 49.479,25.533 49.479,42.551 51.66,42.551 51.66,6.12 
		49.479,6.12 49.479,22.618 47.843,22.618 47.843,6.12 45.662,6.12 	"/>
	<polygon class="st0" points="45.662,42.551 47.843,42.551 47.843,25.533 49.479,25.533 49.479,42.551 51.66,42.551 51.66,6.12 
		49.479,6.12 49.479,22.618 47.843,22.618 47.843,6.12 45.662,6.12 	"/>
	<rect x="53.202" y="6.12" class="st1" width="1.874" height="36.43"/>
	<rect x="53.202" y="6.12" class="st0" width="1.874" height="36.43"/>
	<path class="st1" d="M59.446,42.967c1.584,0,2.52-1.249,2.88-2.081V25.585c-0.288-0.989-0.792-1.822-2.303-2.915
		c-0.9-0.624-1.26-1.092-1.332-1.457V9.399c0.036-0.364,0.288-0.78,0.756-0.78s0.72,0.417,0.756,0.78v11.397h2.124V7.787
		c-0.288-0.833-1.26-2.082-2.88-2.082c-1.656,0-2.592,1.249-2.88,2.082v14.779c0.215,0.989,0.684,1.822,2.232,2.915
		c0.971,0.676,1.331,1.145,1.403,1.509v12.282c-0.036,0.365-0.288,0.78-0.756,0.78s-0.72-0.416-0.756-0.78v-11.71h-2.124v13.324
		C56.89,41.718,57.863,42.967,59.446,42.967"/>
	<path class="st0" d="M59.446,42.967c1.584,0,2.52-1.249,2.88-2.081V25.585c-0.288-0.989-0.792-1.822-2.303-2.915
		c-0.9-0.624-1.26-1.092-1.332-1.457V9.399c0.036-0.364,0.288-0.78,0.756-0.78s0.72,0.417,0.756,0.78v11.397h2.124V7.787
		c-0.288-0.833-1.26-2.082-2.88-2.082c-1.656,0-2.592,1.249-2.88,2.082v14.779c0.215,0.989,0.684,1.822,2.232,2.915
		c0.971,0.676,1.331,1.145,1.403,1.509v12.282c-0.036,0.365-0.288,0.78-0.756,0.78s-0.72-0.416-0.756-0.78v-11.71h-2.124v13.324
		C56.89,41.718,57.863,42.967,59.446,42.967z"/>
	<polygon class="st1" points="63.817,42.551 68.456,42.551 68.456,39.636 65.975,39.636 65.975,25.533 68.421,25.533 68.421,22.618 
		65.975,22.618 65.975,9.035 68.421,9.035 68.421,6.12 63.817,6.12 	"/>
	<polygon class="st0" points="63.817,42.551 68.456,42.551 68.456,39.636 65.975,39.636 65.975,25.533 68.421,25.533 68.421,22.618 
		65.975,22.618 65.975,9.035 68.421,9.035 68.421,6.12 63.817,6.12 	"/>
	<polygon class="st1" points="9.417,42.551 11.411,42.551 11.411,25.533 13.405,25.533 13.405,22.618 11.411,22.618 11.411,9.035 
		13.571,9.035 13.571,6.12 9.417,6.12 	"/>
	<polygon class="st0" points="9.417,42.551 11.411,42.551 11.411,25.533 13.405,25.533 13.405,22.618 11.411,22.618 11.411,9.035 
		13.571,9.035 13.571,6.12 9.417,6.12 	"/>
	<path class="st1" d="M19.024,54.296c5.261,0,8.405-0.684,10.059-1.452v-4.022c-1.29-0.768-3.871-1.27-6.485-1.27
		c-2.351,0-3.53,0.247-4.795,0.573l-0.1-1.033h11.281v-2.806H8.865l0.1,6.255h8.837v-0.335c0.33-0.195,0.261-0.321,1.22-0.321
		c0.993,0,1.056,0.125,1.354,0.321v1.145c-0.298,0.182-0.394,0.294-1.354,0.294c-0.926,0-0.923-0.112-1.22-0.294v-0.293H9.031v1.675
		C9.892,53.165,12.207,54.296,19.024,54.296"/>
	<path class="st4" d="M19.024,54.296c5.261,0,8.405-0.684,10.059-1.452v-4.022c-1.29-0.768-3.871-1.27-6.485-1.27
		c-2.351,0-3.53,0.247-4.795,0.573l-0.1-1.033h11.281v-2.806H8.865l0.1,6.255h8.837v-0.335c0.33-0.195,0.261-0.321,1.22-0.321
		c0.993,0,1.056,0.125,1.354,0.321v1.145c-0.298,0.182-0.394,0.294-1.354,0.294c-0.926,0-0.923-0.112-1.22-0.294v-0.293H9.031v1.675
		C9.892,53.165,12.207,54.296,19.024,54.296z"/>
	<path class="st4" d="M59.194,54.296c5.882,0,8.736-1.121,9.814-2.314v-5.776c-1.078-1.193-3.932-2.314-9.814-2.314
		c-5.941,0-8.736,1.121-9.844,2.314v5.776C50.458,53.174,53.253,54.296,59.194,54.296z"/>
	<path class="st4" d="M39.232,54.296c5.882,0,8.736-1.121,9.814-2.314v-5.776c-1.078-1.193-3.932-2.314-9.814-2.314
		c-5.941,0-8.736,1.121-9.844,2.314v5.776C30.496,53.174,33.291,54.296,39.232,54.296z"/>
	<path class="st1" d="M39.232,43.891c-5.941,0-8.736,1.121-9.843,2.314v5.776c1.108,1.193,3.903,2.314,9.843,2.314
		c5.882,0,8.736-1.121,9.814-2.314v-5.776C47.968,45.013,45.114,43.891,39.232,43.891z M40.115,51.256
		c-0.138,0.185-0.46,0.298-0.89,0.298c-0.446,0-0.767-0.113-0.906-0.298v-4.311c0.139-0.185,0.46-0.313,0.906-0.313
		c0.43,0,0.752,0.114,0.89,0.313V51.256z"/>
	<path class="st1" d="M59.194,43.891c-5.941,0-8.736,1.121-9.843,2.314v5.776c1.108,1.193,3.903,2.314,9.843,2.314
		c5.882,0,8.736-1.121,9.814-2.314v-5.776C67.93,45.013,65.076,43.891,59.194,43.891z M60.077,51.256
		c-0.138,0.185-0.46,0.298-0.89,0.298c-0.446,0-0.767-0.113-0.906-0.298v-4.311c0.139-0.185,0.46-0.313,0.906-0.313
		c0.43,0,0.752,0.114,0.89,0.313V51.256z"/>
</g>
<rect x="81.308" y="19.509" class="st5" width="64.846" height="22.655"/>
<g>
	<path class="st1" d="M86.704,32.322h1.3v0.669c0.147,0.295,0.541,0.63,1.171,0.63c0.64,0,1.023-0.345,1.171-0.63v-0.777
		c-0.128-0.246-0.334-0.453-0.944-0.591l-0.591-0.138c-1.427-0.335-1.851-0.787-2.106-1.22v-1.466
		c0.256-0.472,0.955-1.319,2.471-1.319s2.225,0.856,2.471,1.319v0.935h-1.3v-0.581c-0.138-0.295-0.531-0.63-1.171-0.63
		c-0.63,0-1.023,0.354-1.171,0.63v0.629c0.138,0.246,0.345,0.434,0.975,0.581l0.58,0.138c1.407,0.335,1.841,0.787,2.087,1.23v1.614
		c-0.266,0.472-0.955,1.309-2.471,1.309s-2.215-0.847-2.471-1.309V32.322z"/>
	<path class="st1" d="M92.715,27.628h4.173v1.014h-2.824v1.84h2.627v1.013h-2.627v2.008h2.894v1.014h-4.242V27.628z"/>
	<path class="st1" d="M97.987,27.628h4.173v1.014h-2.824v1.84h2.627v1.013h-2.627v2.008h2.894v1.014h-4.242V27.628z"/>
	<path class="st1" d="M106.319,28.642h-1.723v-1.014h4.783v1.014h-1.713v5.875h-1.348V28.642z"/>
	<path class="st1" d="M110.233,27.628h1.349v2.834h2.479v-2.834h1.349v6.889h-1.349v-3.041h-2.479v3.041h-1.349V27.628z"/>
	<path class="st1" d="M116.646,27.628h4.173v1.014h-2.824v1.84h2.627v1.013h-2.627v2.008h2.894v1.014h-4.242V27.628z"/>
	<path class="st1" d="M123.936,27.628h1.349v5.875h2.312v1.014h-3.661V27.628z"/>
	<path class="st1" d="M128.431,27.628h1.349v6.889h-1.349V27.628z"/>
	<path class="st1" d="M130.841,32.322h1.299v0.669c0.147,0.295,0.541,0.63,1.171,0.63c0.64,0,1.023-0.345,1.171-0.63v-0.777
		c-0.128-0.246-0.334-0.453-0.944-0.591l-0.591-0.138c-1.427-0.335-1.85-0.787-2.105-1.22v-1.466
		c0.256-0.472,0.954-1.319,2.47-1.319s2.225,0.856,2.471,1.319v0.935h-1.3v-0.581c-0.138-0.295-0.531-0.63-1.171-0.63
		c-0.63,0-1.023,0.354-1.171,0.63v0.629c0.138,0.246,0.345,0.434,0.975,0.581l0.58,0.138c1.407,0.335,1.841,0.787,2.087,1.23v1.614
		c-0.266,0.472-0.955,1.309-2.471,1.309s-2.214-0.847-2.47-1.309V32.322z"/>
	<path class="st1" d="M138.11,28.642h-1.723v-1.014h4.783v1.014h-1.713v5.875h-1.348V28.642z"/>
</g>
</svg>
