<?xml version="1.0" encoding="utf-8"?>
<!-- Generator: Adobe Illustrator 15.0.0, SVG Export Plug-In . SVG Version: 6.00 Build 0)  -->
<!DOCTYPE svg PUBLIC "-//W3C//DTD SVG 1.1//EN" "http://www.w3.org/Graphics/SVG/1.1/DTD/svg11.dtd">
<svg version="1.1" id="Layer_1" xmlns="http://www.w3.org/2000/svg" xmlns:xlink="http://www.w3.org/1999/xlink" x="0px" y="0px"
	 width="64px" height="64px" viewBox="0 0 64 64" enable-background="new 0 0 64 64" xml:space="preserve">
<polygon fill="#E81C27" points="23.656,40.699 15.342,40.699 12,7 27,7 "/>
<polygon fill="#F46C60" points="13.985,8.909 25.668,8 13,8 15.822,36.461 "/>
<ellipse fill="#E81C27" cx="19.499" cy="50.628" rx="6.386" ry="6.372"/>
<polygon fill="#C21413" points="25.9,7 22.656,39.699 15.242,39.699 15.341,40.699 23.656,40.699 27,7 "/>
<path fill="#C21413" d="M23.488,45.656c0.871,1.09,1.396,2.469,1.396,3.972c0,3.519-2.858,6.372-6.385,6.372
	c-1.512,0-2.896-0.525-3.99-1.4c1.17,1.461,2.969,2.4,4.99,2.4c3.526,0,6.385-2.854,6.385-6.372
	C25.885,48.615,24.947,46.824,23.488,45.656z"/>
<path fill-rule="evenodd" clip-rule="evenodd" fill="#F46C60" d="M14.76,47.869c0.117,0.822,1.653-0.785,3.21-2.166
	C18.975,44.814,14.408,45.399,14.76,47.869z"/>
<polygon fill="#E81C27" points="48.656,40.699 40.342,40.699 37,7 52,7 "/>
<polygon fill="#F46C60" points="38.985,8.909 50.668,8 38,8 40.822,36.461 "/>
<ellipse fill="#E81C27" cx="44.499" cy="50.628" rx="6.386" ry="6.372"/>
<polygon fill="#C21413" points="50.9,7 47.656,39.699 40.242,39.699 40.341,40.699 48.656,40.699 52,7 "/>
<path fill="#C21413" d="M48.488,45.656c0.871,1.09,1.396,2.469,1.396,3.972c0,3.519-2.858,6.372-6.385,6.372
	c-1.512,0-2.896-0.525-3.99-1.4c1.17,1.461,2.969,2.4,4.99,2.4c3.526,0,6.385-2.854,6.385-6.372
	C50.885,48.615,49.947,46.824,48.488,45.656z"/>
<path fill-rule="evenodd" clip-rule="evenodd" fill="#F46C60" d="M39.76,47.869c0.117,0.822,1.653-0.785,3.21-2.166
	C43.975,44.814,39.408,45.399,39.76,47.869z"/>
</svg>
