<?xml version="1.0" encoding="utf-8"?>
<!-- Generator: Adobe Illustrator 15.0.0, SVG Export Plug-In . SVG Version: 6.00 Build 0)  -->
<!DOCTYPE svg PUBLIC "-//W3C//DTD SVG 1.1//EN" "http://www.w3.org/Graphics/SVG/1.1/DTD/svg11.dtd">
<svg version="1.1" id="Layer_1" xmlns="http://www.w3.org/2000/svg" xmlns:xlink="http://www.w3.org/1999/xlink" x="0px" y="0px"
	 width="64px" height="64px" viewBox="0 0 64 64" enable-background="new 0 0 64 64" xml:space="preserve">
<polygon fill="#E81C27" points="16.657,42.732 8.341,42.732 5,7 20,7 "/>
<polygon fill="#F46C60" points="6.985,8.909 18.668,8 6,8 8.822,36.461 "/>
<polygon fill="#C21413" points="18.901,7 15.656,41.7 8.242,41.7 8.341,42.732 16.656,42.732 20,7 "/>
<path fill-rule="evenodd" clip-rule="evenodd" fill="#E81C27" d="M40.512,7.054C30.621,7.657,25.452,13.149,25,23.08h9.979
	c0.125-3.439,2.084-6.012,5.73-6.391c3.579-0.373,6.975,0.463,8.002,2.862c1.111,2.592-1.383,5.603-2.568,6.867
	c-2.195,2.344-5.76,4.055-7.607,6.584c-1.811,2.478-2.133,5.739-2.271,9.729h8.793c0.123-2.551,0.297-4.996,1.48-6.582
	c1.926-2.576,4.804-3.785,7.214-5.82c2.303-1.945,4.725-4.289,5.136-7.917C60.123,11.554,51.08,6.407,40.512,7.054z"/>
<path fill-rule="evenodd" clip-rule="evenodd" fill="#F46C60" d="M40.534,8.066c1.126-0.063,1.468-0.333-0.179-0.253
	c-7.738,0.378-13.879,4.835-14.281,13.045h0.958C27.701,13.175,33.134,8.477,40.534,8.066z"/>
<path fill-rule="evenodd" clip-rule="evenodd" fill="#F46C60" d="M40.326,32.983c1.666-2.282,10.125-6.542,9.479-12.125
	c-0.075-0.652-0.436-0.377-0.41-0.151c0.619,5.484-8.09,9.536-9.756,11.818C38.829,33.632,39.654,33.901,40.326,32.983z"/>
<path fill-rule="evenodd" clip-rule="evenodd" fill="#C21413" d="M40.709,16.689c2.582-0.269,5.051,0.103,6.623,1.224
	c-1.324-1.898-4.389-2.561-7.623-2.224c-3.646,0.379-5.605,2.951-5.73,6.391h-8.9c-0.027,0.332-0.063,0.657-0.078,1h9.979
	C35.104,19.64,37.063,17.068,40.709,16.689z"/>
<path fill-rule="evenodd" clip-rule="evenodd" fill="#C21413" d="M55.004,11.144c2.229,2.51,3.377,5.933,2.883,10.27
	c-0.41,3.628-2.832,5.972-5.135,7.917c-2.41,2.035-5.289,3.243-7.215,5.82c-1.184,1.586-1.357,4.031-1.48,6.582h-7.75
	c-0.016,0.331-0.031,0.659-0.043,1h8.793c0.123-2.551,0.297-4.996,1.48-6.582c1.926-2.576,4.805-3.785,7.215-5.82
	c2.303-1.945,4.725-4.289,5.135-7.917C59.449,17.469,57.877,13.712,55.004,11.144z"/>
<ellipse fill="#E81C27" cx="40.738" cy="51.513" rx="5.5" ry="5.487"/>
<path fill="#C21413" d="M44.174,47.23c0.751,0.938,1.203,2.126,1.203,3.421c0,3.03-2.462,5.488-5.499,5.488
	c-1.302,0-2.495-0.453-3.437-1.206C37.449,56.191,38.998,57,40.739,57c3.037,0,5.499-2.457,5.499-5.487
	C46.238,49.779,45.432,48.236,44.174,47.23z"/>
<path fill-rule="evenodd" clip-rule="evenodd" fill="#F46C60" d="M36.656,49.137c0.102,0.707,1.424-0.677,2.766-1.866
	C40.286,46.506,36.354,47.01,36.656,49.137z"/>
<ellipse fill="#E81C27" cx="12.5" cy="51.513" rx="5.5" ry="5.487"/>
<path fill="#C21413" d="M15.935,47.23c0.751,0.938,1.203,2.126,1.203,3.421c0,3.03-2.462,5.488-5.5,5.488
	c-1.302,0-2.495-0.453-3.437-1.206C9.209,56.191,10.758,57,12.5,57c3.038,0,5.5-2.457,5.5-5.487
	C17.999,49.779,17.192,48.236,15.935,47.23z"/>
<path fill-rule="evenodd" clip-rule="evenodd" fill="#F46C60" d="M8.417,49.137c0.101,0.707,1.424-0.677,2.765-1.866
	C12.046,46.506,8.115,47.01,8.417,49.137z"/>
</svg>
