<?xml version="1.0" encoding="utf-8"?>
<!-- Generator: Adobe Illustrator 15.0.0, SVG Export Plug-In . SVG Version: 6.00 Build 0)  -->
<!DOCTYPE svg PUBLIC "-//W3C//DTD SVG 1.1//EN" "http://www.w3.org/Graphics/SVG/1.1/DTD/svg11.dtd">
<svg version="1.1" id="Layer_1" xmlns="http://www.w3.org/2000/svg" xmlns:xlink="http://www.w3.org/1999/xlink" x="0px" y="0px"
	 width="64px" height="64px" viewBox="0 0 64 64" enable-background="new 0 0 64 64" xml:space="preserve">
<path fill="#99A8AE" d="M15.332,8h29.336C50,8,50,20,50,20H10C10,20,10,8,15.332,8z"/>
<path fill="#99A8AE" d="M44.668,56H15.332C10,56,10,44,10,44h40C50,44,50,56,44.668,56z"/>
<path fill="#302C3B" d="M46,58c0,3.313-1.645,4-4,4H18c-2.354,0-4-0.688-4-4V6c0-3.314,1.646-4,4-4h24c2.355,0,4,0.686,4,4V58z"/>
<path fill="#4E5E67" d="M58,35c0,1.1-0.9,2-2,2h-4v-8h4c1.1,0,2,0.9,2,2V35z"/>
<path fill="#1A1626" d="M55.801,30h-3.316v-1h3.316C56.712,29,56.712,30,55.801,30z"/>
<path fill="#1A1626" d="M55.801,31.75h-3.316v-1h3.316C56.712,30.75,56.712,31.75,55.801,31.75z"/>
<path fill="#1A1626" d="M55.801,33.5h-3.316v-1h3.316C56.712,32.5,56.712,33.5,55.801,33.5z"/>
<path fill="#1A1626" d="M55.801,35.25h-3.316v-1h3.316C56.712,34.25,56.712,35.25,55.801,35.25z"/>
<path fill="#1A1626" d="M55.801,37h-3.316v-1h3.316C56.712,36,56.712,37,55.801,37z"/>
<circle fill="#CFD8DD" cx="30" cy="32" r="24"/>
<circle fill="#6E8189" cx="30" cy="32" r="20"/>
<circle fill="#E6EBEF" cx="30" cy="32" r="19"/>
<polygon fill="#1A1626" points="45.473,24.799 43.973,22.2 29.999,30.269 19.491,24.201 17.992,26.798 27.001,31.999 33,32 "/>
<circle fill="#1A1626" cx="30" cy="32" r="4"/>
<circle fill="#6E8189" cx="30" cy="32" r="3"/>
<path opacity="0.85" fill-rule="evenodd" clip-rule="evenodd" fill="#FFFFFF" d="M47.31,34.558
	c-0.645,6.411-9.121-6.143-17.721-16.92C24.055,10.7,49.247,15.268,47.31,34.558z"/>
</svg>
