<?xml version="1.0" encoding="utf-8"?>
<!-- Generator: Adobe Illustrator 15.0.0, SVG Export Plug-In . SVG Version: 6.00 Build 0)  -->
<!DOCTYPE svg PUBLIC "-//W3C//DTD SVG 1.1//EN" "http://www.w3.org/Graphics/SVG/1.1/DTD/svg11.dtd">
<svg version="1.1" id="Layer_1" xmlns="http://www.w3.org/2000/svg" xmlns:xlink="http://www.w3.org/1999/xlink" x="0px" y="0px"
	 width="64px" height="64px" viewBox="0 0 64 64" enable-background="new 0 0 64 64" xml:space="preserve">
<path fill="#4E5E67" d="M52,55.399V59c0,1.656-8.953,3-20,3c-11.045,0-20-1.344-20-3v-3.601H52z"/>
<path fill="#6E8189" d="M25.234,61.82c-2.689-0.146-5.111-0.373-7.125-0.665v-5.756h7.125V61.82z"/>
<ellipse fill="#302C3B" cx="32" cy="55.399" rx="20" ry="3"/>
<path fill="#4E5E67" d="M48.5,51.555v2.97C48.5,55.892,41.113,57,32,57s-16.5-1.108-16.5-2.476v-2.97H48.5z"/>
<path fill="#6E8189" d="M26.432,56.853c-2.504-0.135-4.723-0.357-6.5-0.644v-4.654h6.5V56.853z"/>
<ellipse fill="#302C3B" cx="32" cy="51.555" rx="16.5" ry="2.476"/>
<path fill="#CFD8DD" d="M27.445,32.28c1.506-0.483,2.418-0.667,2.418-1.469s-0.912-0.988-2.418-1.469C19.309,27.011,17,21.052,17,11
	h30c0,10.052-2.307,16.009-10.443,18.341c-1.506,0.482-2.418,0.669-2.418,1.471s0.912,0.985,2.418,1.469
	C44.693,34.614,47,40.57,47,50.622C47,51.935,40.283,53,32,53c-8.285,0-15-1.065-15-2.378C17,40.57,19.309,34.612,27.445,32.28z"/>
<path fill="#E6EBEF" d="M28.355,32.28c1.205-0.483,1.936-0.667,1.936-1.469s-0.73-0.988-1.936-1.469C21.846,27.011,20,21.052,20,11
	h24c0,10.052-1.844,16.009-8.354,18.341c-1.205,0.482-1.936,0.669-1.936,1.471s0.73,0.985,1.934,1.469
	C42.156,34.614,44,40.57,44,50.622C44,51.935,38.627,53,32,53s-12-1.065-12-2.378C20,40.57,21.846,34.612,28.355,32.28z"/>
<path fill="#302C3B" d="M48.668,8.5v3.001C48.668,12.881,41.205,14,32,14c-9.203,0-16.666-1.119-16.666-2.499V8.5H48.668z"/>
<path opacity="0.7" fill-rule="evenodd" clip-rule="evenodd" fill="#FFFFFF" d="M19.475,44.115c0.328,3.269,4.652-3.131,9.037-8.628
	C31.332,31.95,18.488,34.28,19.475,44.115z"/>
<path fill="#4E5E67" d="M26.432,8.5v5.354c-2.494-0.133-4.713-0.351-6.5-0.633V8.5H26.432z"/>
<path fill="#4E5E67" d="M52,5v3.601c0,1.656-8.953,3-20,3c-11.045,0-20-1.344-20-3V5H52z"/>
<path fill="#6E8189" d="M18.109,5h7.125v6.421c-2.689-0.146-5.111-0.373-7.125-0.665V5z"/>
<ellipse fill="#302C3B" cx="32" cy="5" rx="20" ry="3"/>
<path fill="#E5BC5E" d="M32,37.28c-6.514,2.334-12,8.621-12,13.342C20,51.935,25.373,53,32,53s12-1.065,12-2.378
	C44,45.904,38.51,39.612,32,37.28z"/>
</svg>
