<?xml version="1.0" encoding="utf-8"?>
<!-- Generator: Adobe Illustrator 15.0.0, SVG Export Plug-In . SVG Version: 6.00 Build 0)  -->
<!DOCTYPE svg PUBLIC "-//W3C//DTD SVG 1.1//EN" "http://www.w3.org/Graphics/SVG/1.1/DTD/svg11.dtd">
<svg version="1.1" id="Layer_1" xmlns="http://www.w3.org/2000/svg" xmlns:xlink="http://www.w3.org/1999/xlink" x="0px" y="0px"
	 width="64px" height="64px" viewBox="0 0 64 64" enable-background="new 0 0 64 64" xml:space="preserve">
<path fill="#99A8AE" d="M33.001,32h-1.04c0-14.482-5.811-14.482-11.963-14.482C13.611,17.518,7,17.518,7,2h1.04
	c0,14.482,5.811,14.482,11.958,14.482C26.39,16.482,33.001,16.482,33.001,32z"/>
<path fill="#CFD8DD" d="M62,59.002C62,60.662,60.74,62,59.188,62H4.813C3.26,62,2,60.662,2,59.002V34.998C2,33.348,3.26,32,4.813,32
	h54.375C60.74,32,62,33.348,62,34.998V59.002z"/>
<rect x="4" y="44" fill="#FFFFFF" width="6" height="4"/>
<rect x="4" y="56" fill="#FFFFFF" width="6" height="4"/>
<rect x="4" y="38" fill="#FFFFFF" width="4" height="4"/>
<rect x="10" y="38" fill="#FFFFFF" width="4" height="4"/>
<rect x="12" y="44" fill="#FFFFFF" width="4" height="4"/>
<rect x="12" y="56" fill="#FFFFFF" width="4" height="4"/>
<rect x="18" y="56" fill="#FFFFFF" width="4" height="4"/>
<rect x="24" y="56" fill="#FFFFFF" width="20" height="4"/>
<rect x="18" y="44" fill="#FFFFFF" width="4" height="4"/>
<rect x="24" y="44" fill="#FFFFFF" width="4" height="4"/>
<rect x="30" y="44" fill="#FFFFFF" width="4" height="4"/>
<rect x="36" y="44" fill="#FFFFFF" width="4" height="4"/>
<rect x="42" y="44" fill="#FFFFFF" width="4" height="4"/>
<rect x="48" y="44" fill="#FFFFFF" width="4" height="4"/>
<rect x="44" y="50" fill="#FFFFFF" width="4" height="4"/>
<rect x="46" y="56" fill="#FFFFFF" width="4" height="4"/>
<rect x="38" y="50" fill="#FFFFFF" width="4" height="4"/>
<rect x="32" y="50" fill="#FFFFFF" width="4" height="4"/>
<rect x="26" y="50" fill="#FFFFFF" width="4" height="4"/>
<rect x="20" y="50" fill="#FFFFFF" width="4" height="4"/>
<rect x="14" y="50" fill="#FFFFFF" width="4" height="4"/>
<rect x="4" y="50" fill="#FFFFFF" width="8" height="4"/>
<rect x="54" y="44" fill="#FFFFFF" width="6" height="4"/>
<rect x="50" y="50" fill="#FFFFFF" width="10" height="4"/>
<rect x="16" y="38" fill="#FFFFFF" width="4" height="4"/>
<rect x="22" y="38" fill="#FFFFFF" width="4" height="4"/>
<rect x="28" y="38" fill="#FFFFFF" width="4" height="4"/>
<rect x="34" y="38" fill="#FFFFFF" width="4" height="4"/>
<rect x="40" y="38" fill="#FFFFFF" width="4" height="4"/>
<rect x="46" y="38" fill="#FFFFFF" width="4" height="4"/>
<rect x="52" y="38" fill="#FFFFFF" width="8" height="4"/>
<rect x="52" y="56" fill="#FFFFFF" width="8" height="4"/>
<rect x="54" y="34" fill="#FFFFFF" width="4" height="2"/>
<rect x="48" y="34" fill="#FFFFFF" width="4" height="2"/>
<rect x="42" y="34" fill="#FFFFFF" width="4" height="2"/>
<rect x="36" y="34" fill="#FFFFFF" width="4" height="2"/>
<rect x="30" y="34" fill="#FFFFFF" width="4" height="2"/>
<rect x="24" y="34" fill="#FFFFFF" width="4" height="2"/>
<rect x="18" y="34" fill="#FFFFFF" width="4" height="2"/>
<rect x="12" y="34" fill="#FFFFFF" width="4" height="2"/>
<rect x="6" y="34" fill="#FFFFFF" width="4" height="2"/>
</svg>
