<svg id="ICON" xmlns="http://www.w3.org/2000/svg" viewBox="0 0 168 128"><title>webhosting</title><g id="webhosting"><path d="M136,0H8A8,8,0,0,0,0,8v92a8,8,0,0,0,8,8H50v12a4,4,0,0,1-4,4H32a2,2,0,0,0,0,4H66a2,2,0,0,0,0-4H52.92A8,8,0,0,0,54,120V108h8a2,2,0,0,0,0-4H8a4,4,0,0,1-4-4V8A4,4,0,0,1,8,4H136a4,4,0,0,1,4,4V58a2,2,0,0,0,4,0V8A8,8,0,0,0,136,0Z" style="fill:#001b41"/><path d="M94,118a6,6,0,1,1,6-6A6,6,0,0,1,94,118Zm0-8a2,2,0,1,0,2,2A2,2,0,0,0,94,110Zm26,8V106a2,2,0,0,0-4,0v12a2,2,0,0,0,4,0Zm12,0V106a2,2,0,0,0-4,0v12a2,2,0,0,0,4,0Zm12,0V106a2,2,0,0,0-4,0v12a2,2,0,0,0,4,0Zm12,0V106a2,2,0,0,0-4,0v12a2,2,0,0,0,4,0Zm12-26V76a8,8,0,0,0-8-8H80a8,8,0,0,0-8,8V92a8,8,0,0,0,2.73,6A8,8,0,0,0,72,104v16a8,8,0,0,0,8,8h80a8,8,0,0,0,8-8V104a8,8,0,0,0-2.73-6A8,8,0,0,0,168,92Zm-4,12v16a4,4,0,0,1-4,4H80a4,4,0,0,1-4-4V104a4,4,0,0,1,4-4h80A4,4,0,0,1,164,104ZM80,96a4,4,0,0,1-4-4V76a4,4,0,0,1,4-4h80a4,4,0,0,1,4,4V92a4,4,0,0,1-4,4Zm14-6a6,6,0,1,1,6-6A6,6,0,0,1,94,90Zm0-8a2,2,0,1,0,2,2A2,2,0,0,0,94,82Zm26,8V78a2,2,0,0,0-4,0V90a2,2,0,0,0,4,0Zm12,0V78a2,2,0,0,0-4,0V90a2,2,0,0,0,4,0Zm12,0V78a2,2,0,0,0-4,0V90a2,2,0,0,0,4,0Zm12,0V78a2,2,0,0,0-4,0V90a2,2,0,0,0,4,0Z" style="fill:#0b9dcc"/></g></svg>