<?xml version="1.0" encoding="utf-8"?>
<!-- Generator: Adobe Illustrator 15.0.0, SVG Export Plug-In . SVG Version: 6.00 Build 0)  -->
<!DOCTYPE svg PUBLIC "-//W3C//DTD SVG 1.1//EN" "http://www.w3.org/Graphics/SVG/1.1/DTD/svg11.dtd">
<svg version="1.1" id="Layer_1" xmlns="http://www.w3.org/2000/svg" xmlns:xlink="http://www.w3.org/1999/xlink" x="0px" y="0px"
	 width="64px" height="64px" viewBox="0 0 64 64" enable-background="new 0 0 64 64" xml:space="preserve">
<path fill="#F9C802" d="M50.186,36.872L62,31.999l-11.814-4.873l7.795-10.127l-12.668,1.688L47,6.019l-10.127,7.797L32,2
	l-4.871,11.815L17,6.02l1.689,12.668L6.019,17.001l7.798,10.126L2,32.001l11.816,4.871L6.02,47.001l12.67-1.689l-1.688,12.67
	l10.127-7.798L32.002,62l4.871-11.816l10.129,7.797l-1.689-12.669l12.67,1.688L50.186,36.872z"/>
<path fill="#F9B700" d="M13.002,32c0,10.493,8.504,19,18.998,19c10.492,0,19-8.507,19-19c0-10.492-8.508-19-19-19
	C21.506,13,13.002,21.508,13.002,32z"/>
<path fill="#F59E01" d="M43.27,16.729C45.604,19.886,47,23.775,47,28c0,10.493-8.508,19-19,19c-4.225,0-8.115-1.396-11.27-3.729
	C20.191,47.952,25.732,51,32,51c10.492,0,19-8.507,19-19C51,25.732,47.951,20.19,43.27,16.729z"/>
<path fill="#F9C802" d="M16.533,34.014c0-9.254,7.5-16.759,16.758-16.759c3.387,0,6.539,1.007,9.174,2.737
	c1.451,0.951,1.705,0.215,0.271-1.079c-2.969-2.676-6.898-4.305-11.211-4.305c-9.256,0-16.756,7.504-16.756,16.759
	c0,2.162,0.41,4.228,1.156,6.124c0.637,1.614,1.287,1.529,0.957-0.062C16.654,36.326,16.533,35.185,16.533,34.014z"/>
<path fill="#FFE12C" d="M38.408,13.497l7.926-6.298C46.334,7.199,40.646,14.789,38.408,13.497z"/>
<path fill="#FFE12C" d="M46.816,19.182l10.012-1.491C56.828,17.69,48.107,21.419,46.816,19.182z"/>
<path fill="#FFE12C" d="M12.754,28.309l-9.416,3.715C3.338,32.023,12.754,30.892,12.754,28.309z"/>
<path fill="#FFE12C" d="M13.475,25.623l-6.299-7.926C7.176,17.697,14.766,23.386,13.475,25.623z"/>
<path fill="#FFE12C" d="M13.479,38.432L7.18,46.357C7.18,46.357,14.77,40.669,13.479,38.432z"/>
<path fill="#FFE12C" d="M19.158,17.216l-1.49-10.013C17.668,7.203,21.396,15.924,19.158,17.216z"/>
<path fill="#FFE12C" d="M19.166,46.839l-1.492,10.013C17.674,56.852,21.402,48.131,19.166,46.839z"/>
<path fill="#FFE12C" d="M28.285,12.777L32,3.36C32,3.36,30.869,12.777,28.285,12.777z"/>
<path fill="#F9B700" d="M38.414,50.558l7.926,6.298C46.34,56.855,40.652,49.266,38.414,50.558z"/>
<path fill="#F9B700" d="M46.82,44.873l10.012,1.491C56.832,46.364,48.111,42.636,46.82,44.873z"/>
<path fill="#F9B700" d="M51.254,35.746l9.418-3.715C60.672,32.031,51.254,33.163,51.254,35.746z"/>
<path fill="#F9B700" d="M35.723,51.277l-3.715,9.417C32.008,60.694,33.141,51.277,35.723,51.277z"/>
</svg>
