<?xml version="1.0" encoding="utf-8"?>
<!-- Generator: Adobe Illustrator 15.0.0, SVG Export Plug-In . SVG Version: 6.00 Build 0)  -->
<!DOCTYPE svg PUBLIC "-//W3C//DTD SVG 1.1//EN" "http://www.w3.org/Graphics/SVG/1.1/DTD/svg11.dtd">
<svg version="1.1" id="Layer_1" xmlns="http://www.w3.org/2000/svg" xmlns:xlink="http://www.w3.org/1999/xlink" x="0px" y="0px"
	 width="64px" height="64px" viewBox="0 0 64 64" enable-background="new 0 0 64 64" xml:space="preserve">
<path fill="#FFFFFF" d="M13.994,51c-1.066,0-2.123-0.172-3.139-0.51C6.756,49.136,4,45.321,4,41c0-2.885,1.25-5.629,3.428-7.531
	c0.563-0.492,1.174-0.917,1.828-1.27l-0.033-0.003l0.664-2.313c1.654-5.774,7-9.807,12.998-9.807c0.598,0,1.211,0.048,1.932,0.151
	c0.553,0.079,1.094,0.191,1.625,0.334l0.264-0.478C29.129,15.714,33.73,13,38.715,13c7.566,0,13.725,6.162,13.725,13.736
	c0,0.37-0.025,0.73-0.055,1.091l-0.021,0.27c0.584,0.223,1.154,0.493,1.703,0.812C57.727,31.019,60,34.947,60,39.16
	c0,5.548-3.773,10.289-9.176,11.53C49.943,50.896,49.049,51,48.17,51H13.994z"/>
<path fill="#75D6FF" d="M38.715,15c6.475,0,11.725,5.255,11.725,11.736c0,0.315-0.023,0.622-0.047,0.93
	c-2.711,0.207-5.174,1.288-7.109,2.969c1.441-0.828,3.105-1.31,4.887-1.31c0.658,0,1.301,0.067,1.924,0.192
	c1.064,0.21,2.063,0.597,2.973,1.122C56.012,32.339,58,35.513,58,39.16c0,4.67-3.258,8.578-7.623,9.581
	C49.668,48.906,48.932,49,48.17,49l0,0H13.994l0,0c-0.877,0-1.717-0.145-2.506-0.407C8.301,47.54,6,44.539,6,41
	c0-2.407,1.064-4.56,2.744-6.024c0.76-0.666,1.645-1.186,2.617-1.525c0.826-0.288,1.709-0.453,2.633-0.453
	c2.578,0,4.863,1.227,6.326,3.122l0.072-0.001c-1.697-3.126-4.871-5.331-8.584-5.685c1.381-4.82,5.814-8.357,11.076-8.357
	c0.563,0,1.109,0.054,1.648,0.131c1.068,0.154,2.09,0.447,3.041,0.872c3.547,1.584,6.137,4.902,6.713,8.877
	c0-0.022,0.002-0.047,0.002-0.068c0-4.527-2.32-8.512-5.834-10.834C30.455,17.446,34.299,15,38.715,15 M38.715,11
	c-5.395,0-10.396,2.774-13.275,7.3c-0.109-0.019-0.223-0.035-0.334-0.052c-0.822-0.117-1.527-0.172-2.221-0.172
	c-6.885,0-13.021,4.628-14.922,11.255l-0.451,1.577c-0.492,0.316-0.961,0.67-1.404,1.059C3.498,34.244,2,37.538,2,41
	c0,5.187,3.309,9.764,8.232,11.391C11.443,52.794,12.713,53,13.994,53H48.17c1.031,0,2.078-0.122,3.113-0.362
	C57.588,51.188,62,45.646,62,39.16c0-4.926-2.658-9.519-6.936-11.985c-0.207-0.119-0.416-0.233-0.627-0.341
	c0.002-0.032,0.002-0.064,0.002-0.098C54.439,18.06,47.385,11,38.715,11L38.715,11z"/>
</svg>
