<?xml version="1.0" encoding="utf-8"?>
<!-- Generator: Adobe Illustrator 15.0.0, SVG Export Plug-In . SVG Version: 6.00 Build 0)  -->
<!DOCTYPE svg PUBLIC "-//W3C//DTD SVG 1.1//EN" "http://www.w3.org/Graphics/SVG/1.1/DTD/svg11.dtd">
<svg version="1.1" id="Layer_1" xmlns="http://www.w3.org/2000/svg" xmlns:xlink="http://www.w3.org/1999/xlink" x="0px" y="0px"
	 width="64px" height="64px" viewBox="0 0 64 64" enable-background="new 0 0 64 64" xml:space="preserve">
<path fill="#302C3B" d="M31.063,3.036v4.68h1.875v-4.68C32.938,1.655,31.063,1.655,31.063,3.036z"/>
<rect x="31.063" y="24.563" fill="#BEC3CF" width="1.875" height="24.334"/>
<polygon fill="#99A8AE" points="32.938,34.047 31.063,36.044 31.063,26.685 32.938,26.685 "/>
<path fill="#F9C802" d="M32,6.779v24.336c1.75-2.278,4.533-3.756,7.68-3.756s5.928,1.478,7.678,3.756
	C45.895,17.411,39.723,6.779,32,6.779z"/>
<path fill="#F9B700" d="M32,6.779c5.803,0.534,15,15.225,7.68,20.58c3.146,0,5.928,1.478,7.678,3.756
	C45.895,17.411,39.679,6.779,32,6.779z"/>
<path fill="#F26887" d="M32,6.779v24.336c-1.752-2.278-4.535-3.756-7.68-3.756c-3.146,0-5.928,1.478-7.68,3.756
	C18.104,17.411,24.277,6.779,32,6.779z"/>
<path fill="#D74189" d="M32,6.779v24.336c-1.752-2.278-4.535-3.756-7.68-3.756C32,24.957,30.065,17.703,32,6.779z"/>
<path fill="#92C932" d="M32,6.779c7.723,0,13.895,10.632,15.357,24.336c1.752-2.278,4.535-3.756,7.68-3.756
	c2.746,0,5.213,1.125,6.963,2.923C58.979,16.842,46.699,6.779,32,6.779z"/>
<path fill="#7AB51D" d="M32,6.779c10.328,0,24.994,10.566,23.037,20.58c2.746,0,5.213,1.125,6.963,2.923
	C58.979,16.842,46.699,6.779,32,6.779z"/>
<path fill="#0FB4D4" d="M32,6.779c-7.723,0-13.896,10.632-15.359,24.336c-1.75-2.278-4.533-3.756-7.68-3.756
	c-2.744,0-5.213,1.125-6.961,2.923C5.02,16.842,17.299,6.779,32,6.779z"/>
<path fill="#018BC9" d="M32,6.779c-7.723,0-13.896,10.632-15.359,24.336c-1.75-2.278-4.533-3.756-7.68-3.756
	C17.87,25.997,19.245,6.987,32,6.779z"/>
<path fill="#302C3B" d="M30.125,48.897v5.615c0,2.065-1.684,3.744-3.75,3.744c-2.068,0-3.75-1.679-3.75-3.744
	c0-1.033-0.84-1.872-1.875-1.872c-1.037,0-1.875,0.839-1.875,1.872c0,4.13,3.363,7.487,7.5,7.487c4.135,0,7.5-3.357,7.5-7.487
	v-5.615H30.125z"/>
</svg>
