<?xml version="1.0" encoding="utf-8"?>
<!-- Generator: Adobe Illustrator 15.0.0, SVG Export Plug-In . SVG Version: 6.00 Build 0)  -->
<!DOCTYPE svg PUBLIC "-//W3C//DTD SVG 1.1//EN" "http://www.w3.org/Graphics/SVG/1.1/DTD/svg11.dtd">
<svg version="1.1" id="Layer_1" xmlns="http://www.w3.org/2000/svg" xmlns:xlink="http://www.w3.org/1999/xlink" x="0px" y="0px"
	 width="64px" height="64px" viewBox="0 0 64 64" enable-background="new 0 0 64 64" xml:space="preserve">
<circle fill="#F5F5F5" cx="32" cy="43.601" r="18.4"/>
<path fill="#CFD8DD" d="M34.641,59.411c-10.162,0-18.4-8.238-18.4-18.4c0-4.468,1.596-8.563,4.244-11.75
	C16.291,32.634,13.6,37.8,13.6,43.601C13.6,53.761,21.838,62,32,62c5.693,0,10.779-2.587,14.156-6.648
	C43.002,57.887,39.002,59.411,34.641,59.411z"/>
<path fill="#302C3B" d="M32,44.255c-3.271,0-3.271-4.906,0-4.906S35.271,44.255,32,44.255z"/>
<path fill="#302C3B" d="M32,54.913c-3.271,0-3.271-4.906,0-4.906S35.271,54.913,32,54.913z"/>
<circle fill="#F5F5F5" cx="32" cy="23.223" r="12.715"/>
<path fill="#CFD8DD" d="M33.824,34.149c-7.021,0-12.715-5.693-12.715-12.715c0-3.088,1.104-5.918,2.934-8.119
	c-2.898,2.33-4.758,5.899-4.758,9.907c0,7.022,5.693,12.715,12.715,12.715c3.934,0,7.449-1.788,9.781-4.595
	C39.602,33.095,36.838,34.149,33.824,34.149z"/>
<path fill="#302C3B" d="M29.002,21.563c0,3.391-5.086,3.391-5.086,0C23.916,18.172,29.002,18.172,29.002,21.563z"/>
<path fill="#302C3B" d="M40.084,21.563c0,3.391-5.084,3.391-5.084,0C35,18.172,40.084,18.172,40.084,21.563z"/>
<line fill="#9E6C49" x1="54.299" y1="31.04" x2="51.908" y2="31.04"/>
<path fill="#9E6C49" d="M55.908,26.456c0,0-9.23,9.229-11.129,11.126c-0.516,0.517,1.176,2.208,1.693,1.69
	C48.369,37.376,57.6,28.146,57.6,28.146L55.908,26.456z"/>
<path fill="#014D87" d="M54.662,33.19c-1.33-0.101-3.904-2.715-3.762-4.01C51.445,24.095,59.412,33.558,54.662,33.19z"/>
<path fill="#006DAE" d="M60.879,24.001c-4.076-3.455-6.076,3.879-6.289,1.04c-0.137-1.854-1.516-2.436-2.268,0.329
	c-0.736,2.715,1.172,6.08,4.051,6.173C59.195,31.634,64.256,26.862,60.879,24.001z"/>
<line fill="#9E6C49" x1="9.701" y1="31.04" x2="12.092" y2="31.04"/>
<path fill="#9E6C49" d="M8.094,26.456c0,0,9.229,9.229,11.127,11.126c0.516,0.517-1.176,2.208-1.693,1.69
	C15.631,37.376,6.402,28.146,6.402,28.146L8.094,26.456z"/>
<path fill="#014D87" d="M9.338,33.19c1.33-0.101,3.904-2.715,3.762-4.01C12.555,24.095,4.588,33.558,9.338,33.19z"/>
<path fill="#006DAE" d="M3.122,24.001c4.076-3.455,6.076,3.879,6.289,1.04c0.137-1.854,1.518-2.436,2.268,0.329
	c0.736,2.715-1.172,6.08-4.051,6.173C4.805,31.634-0.255,26.862,3.122,24.001z"/>
<path fill="#B00505" d="M20.375,28.2c-1.533-1.055-4.195,4.465-3.445,4.855c11.398,5.953,21.57,3.77,29.732-0.57
	c0.889,0.029-1.49-5.37-2.842-4.57C35.666,32.742,25.449,31.692,20.375,28.2z"/>
<path fill="#E81C27" d="M46.041,45.214c-2.566-1.018-7.031,1.32-6.375,0c1.668-3.379,1.465-12.326-1.256-14.984
	c-1.086-1.061,4.283-3.342,5.41-2.314C46.969,30.776,47.748,45.892,46.041,45.214z"/>
<path fill="#E81C27" d="M19.912,16.528c0,0,0-5.473,4.816-6.416c0,0-0.332-4.797,12.676-7.553c5.719-1.213,6.85-1.342,8.203,9.076
	c0.521,4.023,5.502,7.193,1.686,8.436C46.035,20.479,19.912,16.528,19.912,16.528z"/>
<ellipse fill="#CFD8DD" cx="48.639" cy="19.654" rx="3.703" ry="3.64"/>
<ellipse fill="#F5F5F5" cx="48.639" cy="18.96" rx="2.998" ry="2.947"/>
<path fill="#F5F5F5" d="M34.453,13.315c-12.174-2.322-18.912,1.302-14.936,7.481c4.148-8.513,28.189,0.112,24.529,6.503
	C53.854,24.794,43.559,15.052,34.453,13.315z"/>
<path fill="#CFD8DD" d="M19.518,20.797c3.742-6.433,25.197,0.32,24.529,6.503C52.832,20.102,18.5,9.784,19.518,20.797z"/>
<path fill="#F59E01" d="M34.227,27.628c-1.18,2.915-7.254,5.014-7.953,4.315c-0.697-0.698,1.729-1.837,3.525-5.771
	C30.842,23.895,35.219,25.18,34.227,27.628z"/>
<path fill="#CFD8DD" d="M14.375,12.607c0,4-6,4-6,0S14.375,8.607,14.375,12.607z"/>
<path fill="#CFD8DD" d="M9.402,44.36c0,4-6,4-6,0S9.402,40.36,9.402,44.36z"/>
<path fill="#CFD8DD" d="M51.998,50.007c0,4-6,4-6,0S51.998,46.007,51.998,50.007z"/>
<path fill="#CFD8DD" d="M59.082,39.37c0,2.667-4,2.667-4,0S59.082,36.703,59.082,39.37z"/>
<path fill="#CFD8DD" d="M12.47,52.46c0,2.667-4,2.667-4,0S12.47,49.793,12.47,52.46z"/>
<path fill="#CFD8DD" d="M53.998,10.509c0,2.667-4,2.667-4,0S53.998,7.842,53.998,10.509z"/>
</svg>
