<?xml version="1.0" encoding="utf-8"?>
<!-- Generator: Adobe Illustrator 15.0.0, SVG Export Plug-In . SVG Version: 6.00 Build 0)  -->
<!DOCTYPE svg PUBLIC "-//W3C//DTD SVG 1.1//EN" "http://www.w3.org/Graphics/SVG/1.1/DTD/svg11.dtd">
<svg version="1.1" id="Layer_1" xmlns="http://www.w3.org/2000/svg" xmlns:xlink="http://www.w3.org/1999/xlink" x="0px" y="0px"
	 width="64px" height="64px" viewBox="0 0 64 64" enable-background="new 0 0 64 64" xml:space="preserve">
<polygon fill="#018BC9" points="25.496,8.306 4.919,48.377 4.919,59.077 15.622,59.077 "/>
<polygon fill="#018BC9" points="55.693,38.504 4.919,48.377 4.919,59.077 15.622,59.077 "/>
<polygon fill="#0FB4D4" points="39.768,8.306 4.919,48.377 4.919,59.077 15.622,59.077 "/>
<polygon fill="#0FB4D4" points="55.693,24.232 15.622,59.077 4.919,59.077 4.919,48.377 "/>
<polygon fill="#75D6FF" points="62,2 4.919,48.377 4.919,59.077 15.622,59.077 "/>
<polygon fill="#C2F8FF" points="33.46,30.539 4.919,48.377 4.919,59.077 15.622,59.077 "/>
<circle fill="#75D6FF" cx="9.64" cy="54.358" r="7.64"/>
<path fill="#C2F8FF" d="M14.916,32.56c0,2.664-3.995,2.664-3.995,0C10.92,29.896,14.916,29.896,14.916,32.56z"/>
<path fill="#C2F8FF" d="M20.188,24.233c0,1.331-1.998,1.331-1.998,0C18.191,22.901,20.188,22.901,20.188,24.233z"/>
<path fill="#C2F8FF" d="M22.209,29.927c0,1.331-1.998,1.331-1.998,0C20.211,28.595,22.209,28.595,22.209,29.927z"/>
<path fill="#C2F8FF" d="M35.92,8.306c0,1.332-1.998,1.332-1.998,0C33.922,6.975,35.92,6.975,35.92,8.306z"/>
<path fill="#C2F8FF" d="M47.161,3.625c0,1.332-1.997,1.332-1.997,0C45.164,2.294,47.161,2.294,47.161,3.625z"/>
<path fill="#C2F8FF" d="M44.354,10.99c0,1.33-1.997,1.33-1.997,0C42.356,9.659,44.354,9.659,44.354,10.99z"/>
<path fill="#C2F8FF" d="M48.16,24.858c0,1.331-1.998,1.331-1.998,0S48.16,23.527,48.16,24.858z"/>
<path fill="#C2F8FF" d="M55.318,29.927c0,1.331-1.998,1.331-1.998,0C53.32,28.595,55.318,28.595,55.318,29.927z"/>
<path fill="#C2F8FF" d="M36.918,38.504c0,1.331-1.998,1.331-1.998,0S36.918,37.173,36.918,38.504z"/>
<path fill="#C2F8FF" d="M33.012,47.314c0,1.331-1.998,1.331-1.998,0C31.014,45.982,33.012,45.982,33.012,47.314z"/>
<path fill="#C2F8FF" d="M42.356,43.252c0,1.331-1.997,1.331-1.997,0S42.356,41.921,42.356,43.252z"/>
<path fill="#C2F8FF" d="M33.437,24.233c0,2.663-3.995,2.663-3.995,0C29.441,21.569,33.437,21.569,33.437,24.233z"/>
<path fill="#C2F8FF" d="M32.013,12.911c0,2.663-3.995,2.663-3.995,0C28.018,10.247,32.013,10.247,32.013,12.911z"/>
<path fill="#C2F8FF" d="M54.319,20.099c0,2.664-3.995,2.664-3.995,0C50.324,17.436,54.319,17.436,54.319,20.099z"/>
<path fill="#C2F8FF" d="M48.16,36.903c0,2.664-3.996,2.664-3.996,0S48.16,34.239,48.16,36.903z"/>
<circle fill="#0FB4D4" cx="9.64" cy="54.358" r="6.687"/>
<path fill="#018BC9" d="M7.924,58.715c-3.33,0-3.33-4.993,0-4.993S11.253,58.715,7.924,58.715z"/>
<path fill="#0FB4D4" d="M7.768,57.642c-2.663,0-2.663-3.994,0-3.994C10.431,53.647,10.431,57.642,7.768,57.642z"/>
<path fill="#018BC9" d="M9.389,51.363c-1.968,0-1.968-2.951,0-2.951S11.357,51.363,9.389,51.363z"/>
<path fill="#0FB4D4" d="M9.296,50.729c-1.575,0-1.575-2.361,0-2.361S10.871,50.729,9.296,50.729z"/>
<path fill="#018BC9" d="M11.795,60.167c-1.968,0-1.968-2.951,0-2.951S13.764,60.167,11.795,60.167z"/>
<path fill="#0FB4D4" d="M11.703,59.533c-1.575,0-1.575-2.361,0-2.361C13.277,57.172,13.277,59.533,11.703,59.533z"/>
<path fill="#018BC9" d="M14.157,53.409c-1.312,0-1.312-1.966,0-1.966C15.47,51.443,15.47,53.409,14.157,53.409z"/>
<path fill="#0FB4D4" d="M14.096,52.987c-1.05,0-1.05-1.573,0-1.573S15.146,52.987,14.096,52.987z"/>
<path fill="#018BC9" d="M4.748,53.726c-1.313,0-1.313-1.969,0-1.969C6.06,51.757,6.06,53.726,4.748,53.726z"/>
<path fill="#0FB4D4" d="M4.687,53.305c-1.05,0-1.05-1.577,0-1.577C5.736,51.728,5.736,53.305,4.687,53.305z"/>
</svg>
