<?xml version="1.0" encoding="utf-8"?>
<!-- Generator: Adobe Illustrator 15.0.0, SVG Export Plug-In . SVG Version: 6.00 Build 0)  -->
<!DOCTYPE svg PUBLIC "-//W3C//DTD SVG 1.1//EN" "http://www.w3.org/Graphics/SVG/1.1/DTD/svg11.dtd">
<svg version="1.1" id="Layer_1" xmlns="http://www.w3.org/2000/svg" xmlns:xlink="http://www.w3.org/1999/xlink" x="0px" y="0px"
	 width="64px" height="64px" viewBox="0 0 64 64" enable-background="new 0 0 64 64" xml:space="preserve">
<path fill="#870505" d="M24.231,60.317c0,2.244-13.604,2.244-13.604,0v-2.599h13.604V60.317z"/>
<path fill="#870505" d="M53.372,60.317c0,2.244-13.604,2.244-13.604,0v-2.599h13.604V60.317z"/>
<path fill="#E81C27" d="M43.267,23.989H20.733c-5.139,0-14.285,15.997-14.285,22.703v7.332c0,2.246,2.625,3.766,4.023,4.066
	c10.522,2.27,32.533,2.269,43.056,0c1.398-0.301,4.025-1.82,4.025-4.066v-7.332C57.553,39.985,48.405,23.989,43.267,23.989z"/>
<path fill="#E81C27" d="M56.133,9.127C51.537,6.077,42.445,3.999,31.976,4C19.928,3.999,9.707,6.751,6.062,10.569
	C3.589,13.015,2,16.772,2,20.995c0,3.696,21.563,3.696,21.563,0c0-2.838-0.721-5.463-1.941-7.625
	c3.195-0.463,6.687-0.721,10.354-0.723c3.685,0,7.191,0.263,10.397,0.729c-1.218,2.162-1.936,4.785-1.936,7.619
	C40.438,24.691,62,24.69,62,20.993C62,15.817,59.613,11.34,56.133,9.127z"/>
<path fill="#6E8189" d="M59.189,16.396c-0.007-0.023-0.018-0.045-0.025-0.069C59.245,16.583,59.354,16.924,59.189,16.396z"/>
<path fill="#F46C60" d="M56.451,10.915c1.178,1.67,2.082,3.463,2.713,5.412c-0.066-0.21-0.111-0.361,0.025,0.069
	c0.555,1.788,1.635,4.063-0.034,5.438C64.237,21.124,59.045,11.973,56.451,10.915z"/>
<path fill="#F46C60" d="M7.869,10.97c-0.601,0.854-1.156,1.744-1.622,2.682c-0.989,1.976-3.263,6.439-1.081,8.238
	C0.083,21.18,5.276,12.027,7.869,10.97z"/>
<path fill="#B00505" d="M40.761,10.106c-1.093,0.968-1.92,4.168-3.164,4.926c-2.397,1.458-8.797,1.458-11.194,0
	c-1.243-0.758-2.071-3.959-3.164-4.926c-0.755-0.67-3.473-0.854-4.019,0c-1.53,2.387,3.043,8.742,5.636,9.852
	c3.29,1.406,10.999,1.406,14.289,0c2.593-1.109,7.166-7.465,5.637-9.852C44.234,9.253,41.516,9.437,40.761,10.106z"/>
<path fill="#F46C60" d="M57.553,46.692c0,0-12.547,2.791-25.553,2.994c-12.992,0.201-25.552-2.994-25.552-2.994
	S19.195,48.191,32,48.191C44.806,48.191,57.553,46.692,57.553,46.692z"/>
<path fill="#99A8AE" d="M49.419,28.967c2.153,7.813-5.576,15.784-17.82,15.784S11.835,36.78,14.194,28.967
	c1.878-6.218,9.68-10.398,17.748-10.398C40.012,18.568,47.704,22.749,49.419,28.967z"/>
<path fill="#E6EBEF" d="M48.606,28.204c1.932,7.268-5.463,14.588-16.982,14.588s-18.72-7.32-16.598-14.588
	c1.709-5.854,9.159-9.827,16.92-9.827C39.706,18.377,47.051,22.351,48.606,28.204z"/>
<path fill="#E81C27" d="M38.809,28.225c0.284,6.962-14.345,6.962-13.989,0C25.146,21.853,38.552,21.853,38.809,28.225z"/>
<path fill="#B00505" d="M29.946,19.903c-1.144,0.678-1.227,1.814-0.131,2.539c1.125,0.748,3.008,0.748,4.154,0
	c1.112-0.725,1.06-1.861-0.063-2.539C32.81,19.244,31.059,19.244,29.946,19.903z"/>
<path fill="#B00505" d="M36.331,23.065c0.072,1.088,1.51,1.999,3.215,1.999c1.697,0,2.918-0.912,2.726-1.999
	c-0.182-1.042-1.612-1.861-3.195-1.861C37.486,21.204,36.261,22.023,36.331,23.065z"/>
<path fill="#B00505" d="M37.118,34.729c0.107,1.603,1.88,2.956,3.961,2.956c2.074,0,3.521-1.354,3.24-2.956
	c-0.269-1.527-2.025-2.715-3.93-2.715C38.478,32.015,37.017,33.202,37.118,34.729z"/>
<path fill="#B00505" d="M28.912,40.05c1.478,1.314,3.983,1.314,5.497,0c1.461-1.268,1.369-3.226-0.11-4.382
	c-1.431-1.118-3.703-1.118-5.162,0C27.626,36.824,27.483,38.782,28.912,40.05z"/>
<path fill="#B00505" d="M19.14,34.729c-0.322,1.6,1.088,2.956,3.167,2.956c2.076,0,3.886-1.356,4.037-2.956
	c0.142-1.529-1.292-2.715-3.199-2.715S19.45,33.2,19.14,34.729z"/>
<path fill="#B00505" d="M17.612,30.022c1.095,0.97,3.243,0.97,4.732,0c1.443-0.941,1.655-2.406,0.543-3.275
	c-1.083-0.845-3.059-0.845-4.483,0C16.937,27.616,16.553,29.081,17.612,30.022z"/>
<path fill="#B00505" d="M27.437,23.067c0.099-1.046-1.109-1.863-2.694-1.863c-1.587,0-3.037,0.817-3.247,1.863
	c-0.219,1.084,0.976,1.998,2.677,1.998C25.872,25.065,27.336,24.151,27.437,23.067z"/>
<path fill="#BEC3CF" d="M49.777,31.311c0.396,1.167,0.23,2.464,0.23,2.464s-5.906-0.406-8.977-5.022c0,0,0.102-0.74,0.42-0.534
	C45.291,30.696,49.777,31.311,49.777,31.311z"/>
<path fill="#99A8AE" d="M50.008,33.774c-0.23,1-0.967,1.563-0.967,1.563s-4.518-0.798-7.763-5.798
	c-0.206-0.317-0.247-0.788-0.247-0.788C44.758,32.79,50.008,33.774,50.008,33.774z"/>
<path fill-rule="evenodd" clip-rule="evenodd" fill="#F46C60" d="M37.956,28.767c-0.249,1.534-3.521-1.469-6.842-4.047
	C28.977,23.06,38.704,24.152,37.956,28.767z"/>
</svg>
