<?xml version="1.0" encoding="utf-8"?>
<!-- Generator: Adobe Illustrator 15.0.0, SVG Export Plug-In . SVG Version: 6.00 Build 0)  -->
<!DOCTYPE svg PUBLIC "-//W3C//DTD SVG 1.1//EN" "http://www.w3.org/Graphics/SVG/1.1/DTD/svg11.dtd">
<svg version="1.1" id="Layer_1" xmlns="http://www.w3.org/2000/svg" xmlns:xlink="http://www.w3.org/1999/xlink" x="0px" y="0px"
	 width="64px" height="64px" viewBox="0 0 64 64" enable-background="new 0 0 64 64" xml:space="preserve">
<path fill="#302C3B" d="M50,55c0,0.553-0.447,1-1,1H9c-0.553,0-1-0.447-1-1V15c0-0.553,0.447-1,1-1h27.354l5.457-6H4
	c-1.104,0-2,0.896-2,2v50c0,1.105,0.896,2,2,2h50c1.105,0,2-0.895,2-2V21.146l-6,8.334V55z"/>
<path fill="#1A1626" d="M35.354,13H8c-0.553,0-1,0.447-1,1c0,0,0.447,41,1,41V15c0-0.553,0.447-1,1-1h27.354l5.457-6h-1.909
	L35.354,13z"/>
<path fill="#1A1626" d="M55,22.535V59c0,1.105-0.895,2-2,2H3c-0.293,0-0.569-0.066-0.82-0.18C2.494,61.515,3.189,62,4,62h50
	c1.105,0,2-0.895,2-2V21.146L55,22.535z"/>
<polygon fill="#7AB51D" points="56.999,2 25.999,36.091 17,29.273 12,29.273 25.999,52 62,2 "/>
<polygon fill="#529320" points="26.057,36.026 17,29.273 24.979,37.213 "/>
<polygon fill="#A6E639" points="32.11,30.76 24.979,38.435 23.603,37.218 24.979,39.719 "/>
<polygon fill="#529320" points="23.102,47.296 25.999,52 62,2 25.417,49.293 "/>
<path fill-rule="evenodd" clip-rule="evenodd" fill="#4E5E67" d="M4.799,8.964c0.628-0.632-2.692-0.679-2.098,1.452
	C2.898,11.125,3.827,9.948,4.799,8.964z"/>
<path fill-rule="evenodd" clip-rule="evenodd" fill="#4E5E67" d="M48.999,56.856c-0.862,0.223,2.693,0.679,2.098-1.452
	C50.899,54.695,50.933,56.356,48.999,56.856z"/>
</svg>
