<?xml version="1.0" encoding="utf-8"?>
<!-- Generator: Adobe Illustrator 15.0.0, SVG Export Plug-In . SVG Version: 6.00 Build 0)  -->
<!DOCTYPE svg PUBLIC "-//W3C//DTD SVG 1.1//EN" "http://www.w3.org/Graphics/SVG/1.1/DTD/svg11.dtd">
<svg version="1.1" id="Layer_1" xmlns="http://www.w3.org/2000/svg" xmlns:xlink="http://www.w3.org/1999/xlink" x="0px" y="0px"
	 width="64px" height="64px" viewBox="0 0 64 64" enable-background="new 0 0 64 64" xml:space="preserve">
<path fill="#302C3B" d="M31.063,8.035v4.68h1.875v-4.68C32.938,6.654,31.063,6.654,31.063,8.035z"/>
<rect x="31.063" y="34.5" fill="#BEC3CF" width="1.875" height="14.375"/>
<path fill="#302C3B" d="M30.125,48.875v5.623c0,2.07-1.684,3.752-3.75,3.752c-2.068,0-3.75-1.682-3.75-3.752
	c0-1.035-0.84-1.875-1.875-1.875c-1.037,0-1.875,0.84-1.875,1.875c0,4.137,3.363,7.502,7.5,7.502c4.135,0,7.5-3.365,7.5-7.502
	v-5.623H30.125z"/>
<polygon fill="#99A8AE" points="32.938,39.045 31.063,41.043 31.063,31.684 32.938,31.684 "/>
<path fill="#4E5E67" d="M32,11.777v24.336c1.75-2.277,4.533-3.756,7.68-3.756s5.928,1.479,7.678,3.756
	C45.895,22.41,39.723,11.777,32,11.777z"/>
<path fill="#302C3B" d="M32,11.777c5.803,0.535,15,15.225,7.68,20.58c3.146,0,5.928,1.479,7.678,3.756
	C45.895,22.41,39.68,11.777,32,11.777z"/>
<path fill="#4E5E67" d="M32,11.777v24.336c-1.752-2.277-4.535-3.756-7.68-3.756c-3.146,0-5.928,1.479-7.68,3.756
	C18.104,22.41,24.277,11.777,32,11.777z"/>
<path fill="#302C3B" d="M32,11.777v24.336c-1.752-2.277-4.535-3.756-7.68-3.756C32,29.955,30.065,22.701,32,11.777z"/>
<path fill="#4E5E67" d="M32,11.777c7.723,0,13.895,10.633,15.357,24.336c1.752-2.277,4.535-3.756,7.68-3.756
	c2.746,0,5.213,1.125,6.963,2.924C58.979,21.84,46.699,11.777,32,11.777z"/>
<path fill="#302C3B" d="M32,11.777c10.328,0,24.994,10.564,23.037,20.58c2.746,0,5.213,1.125,6.963,2.924
	C58.979,21.84,46.699,11.777,32,11.777z"/>
<path fill="#4E5E67" d="M32,11.777c-7.723,0-13.896,10.633-15.359,24.336c-1.75-2.277-4.533-3.756-7.68-3.756
	c-2.744,0-5.213,1.125-6.961,2.924C5.02,21.84,17.299,11.777,32,11.777z"/>
<path fill="#302C3B" d="M32,11.777c-7.723,0-13.896,10.633-15.359,24.336c-1.75-2.277-4.533-3.756-7.68-3.756
	C17.87,30.996,19.245,11.986,32,11.777z"/>
<path fill="#302C3B" d="M19.045,14.563c0,0-0.333,2.682,1.802,4.818l2.688-3.656L19.045,14.563z"/>
<path fill="#302C3B" d="M4.07,29.248c2.829,4.58,11.079-1.086,6.953-9.309C10.261,19.932,6.086,24.553,4.07,29.248z"/>
<path fill="#302C3B" d="M21.431,19.729c3.155,2.266,8.468,0.121,6.988-7.164C28.419,12.564,25.19,12.715,21.431,19.729z"/>
<path fill="#302C3B" d="M43.533,29.225c-2.968,3.313-9.968,0.656-7.588-8.635C35.945,20.59,39.775,22.209,43.533,29.225z"/>
<path fill="#302C3B" d="M45.734,27.586c1.623-3.549-1.506-8.66-1.506-8.66S43.33,20.711,45.734,27.586z"/>
<path fill="#75D6FF" d="M57.197,2c-3.047,4.166-4.799,8.002-4.799,11.152c0,2.677,2.15,4.848,4.801,4.848
	C59.852,18,62,15.829,62,13.152C62,10.002,60.197,6.102,57.197,2z"/>
<path opacity="0.3" fill="#0FB4D4" d="M60.867,8.296c0.201,0.845,0.311,1.654,0.311,2.419c0,2.677-2.133,4.848-4.764,4.848
	c-1.678,0-3.148-0.888-3.998-2.223c0.102,2.588,2.195,4.66,4.783,4.66C59.852,18,62,15.829,62,13.152
	C62,11.68,61.592,10.039,60.867,8.296z"/>
<path opacity="0.5" fill="#FFFFFF" d="M54.625,10.311c-1.582-0.492,1.543-5.602,2.219-6.5C57.457,2.998,57.531,11.215,54.625,10.311
	z"/>
<path fill="#75D6FF" d="M40.36,12.162c-3.047,4.166-4.799,8.002-4.799,11.152c0,2.677,2.15,4.848,4.802,4.848
	c2.65,0,4.799-2.171,4.799-4.848C45.162,20.164,43.361,16.264,40.36,12.162z"/>
<path opacity="0.3" fill="#0FB4D4" d="M44.029,18.458c0.203,0.845,0.313,1.654,0.313,2.419c0,2.677-2.133,4.848-4.764,4.848
	c-1.68,0-3.148-0.888-3.998-2.223c0.1,2.588,2.195,4.66,4.783,4.66c2.65,0,4.799-2.171,4.799-4.848
	C45.162,21.842,44.756,20.201,44.029,18.458z"/>
<path opacity="0.5" fill="#FFFFFF" d="M37.789,20.473c-1.582-0.492,1.542-5.602,2.219-6.5C40.62,13.16,40.695,21.377,37.789,20.473z
	"/>
<path fill="#75D6FF" d="M23.637,2c-3.047,4.166-4.799,8.002-4.799,11.152c0,2.677,2.15,4.848,4.802,4.848s4.8-2.171,4.8-4.848
	C28.44,10.002,26.638,6.102,23.637,2z"/>
<path opacity="0.3" fill="#0FB4D4" d="M27.307,8.296c0.202,0.845,0.312,1.654,0.312,2.419c0,2.677-2.133,4.848-4.764,4.848
	c-1.679,0-3.148-0.888-3.998-2.223C18.958,15.928,21.052,18,23.64,18c2.651,0,4.8-2.171,4.8-4.848
	C28.44,11.68,28.033,10.039,27.307,8.296z"/>
<path opacity="0.5" fill="#FFFFFF" d="M21.066,10.311c-1.582-0.492,1.542-5.602,2.219-6.5C23.897,2.998,23.972,11.215,21.066,10.311
	z"/>
<path fill="#75D6FF" d="M6.798,12.162C3.751,16.328,2,20.164,2,23.314c0,2.677,2.15,4.848,4.802,4.848s4.8-2.171,4.8-4.848
	C11.601,20.164,9.799,16.264,6.798,12.162z"/>
<path opacity="0.3" fill="#0FB4D4" d="M10.468,18.458c0.202,0.845,0.312,1.654,0.312,2.419c0,2.677-2.133,4.848-4.764,4.848
	c-1.679,0-3.148-0.888-3.998-2.223c0.101,2.588,2.195,4.66,4.783,4.66c2.651,0,4.8-2.171,4.8-4.848
	C11.601,21.842,11.194,20.201,10.468,18.458z"/>
<path opacity="0.5" fill="#FFFFFF" d="M4.227,20.473c-1.582-0.492,1.542-5.602,2.219-6.5C7.058,13.16,7.133,21.377,4.227,20.473z"/>
</svg>
