<?xml version="1.0" encoding="utf-8"?>
<!-- Generator: Adobe Illustrator 16.2.0, SVG Export Plug-In . SVG Version: 6.00 Build 0)  -->
<!DOCTYPE svg PUBLIC "-//W3C//DTD SVG 1.1//EN" "http://www.w3.org/Graphics/SVG/1.1/DTD/svg11.dtd">
<svg version="1.1" id="Layer_1" xmlns="http://www.w3.org/2000/svg" xmlns:xlink="http://www.w3.org/1999/xlink" x="0px" y="0px"
	 width="64px" height="64px" viewBox="0 0 64 64" enable-background="new 0 0 64 64" xml:space="preserve">
<path fill="#E7F1F7" d="M62,39.868c0-4.97-3.333-8.048-9.966-6.126c-0.421,0.122-1.741,0.193-1.741,0.193l-1.107,4.392
	C49.186,38.327,55.833,31.319,62,39.868"/>
<path fill="#99A8AE" d="M59.616,39c0,4.646-10.931,6.498-14.261,8.833c-1.397,0.979-3.767,5.356-3.767,5.356l19.179-10.521
	L59.616,39z"/>
<path fill="#C9D6DE" d="M49.186,40.009l1.627-0.378c0,0,0.271-1.542,1.566-2.699c1.66-1.479,7.262-1.156,7.262,2.453
	c0,5.952-11.244,7.78-14.576,10.116c-1.396,0.979-2.996,4.017-2.996,4.017s1.211,0.227,1.482,0C48.65,49.307,62,47.555,62,39.686
	c0-2.824-4.104-6.362-9.966-4.262c-0.407,0.146-1.741,0.195-1.741,0.195L49.186,40.009z"/>
<path fill="#C9D6DE" d="M39.9,54.986H13.18c0,0,0.349,2.764,3.917,5.002C18.416,60.813,21.556,62,26.54,62
	c4.986,0,8.127-1.188,9.444-2.012C39.552,57.75,39.9,54.986,39.9,54.986z"/>
<path fill="#6E8189" d="M39.9,53.986H13.18c0,0,0.349,2.764,3.917,5.002C18.416,59.813,21.556,61,26.54,61
	c4.986,0,8.127-1.188,9.444-2.012C39.552,56.75,39.9,53.986,39.9,53.986z"/>
<path fill="#E7F1F7" d="M51.083,30.364H2c0,0,0.639,11.693,7.193,21.154c2.423,3.5,8.191,8.522,17.348,8.522
	c9.161,0,14.927-5.022,17.35-8.522C50.443,42.058,51.083,30.364,51.083,30.364z"/>
<path fill="#FFFFFF" d="M4,33c0,4.972,9.402,9,21,9c11.597,0,21-4.028,21-9H4z"/>
<ellipse fill="#E7F1F7" cx="26.54" cy="30.219" rx="24.54" ry="10.22"/>
<path fill="#D6E4EA" d="M26.541,24c11.295,0,20.717,3.403,22.925,7.693c0.323-0.623,0.493-1.268,0.493-1.931
	c0-5.217-10.484-9.446-23.418-9.446c-12.936,0-23.418,4.229-23.418,9.446c0,0.663,0.172,1.308,0.49,1.931
	C5.825,27.402,15.247,24,26.541,24z"/>
<path fill="#C9D6DE" d="M3.123,29.762c0,0.663,0.172,1.308,0.49,1.931c0.723-1.402,2.228-2.688,4.305-3.787
	c0.346-1.494,1.132-3.282,2.758-5.091C6.033,24.542,3.123,27.015,3.123,29.762z"/>
<path fill="#785647" d="M26.541,39c11.295,0,20.717-3.016,22.925-7.308C47.258,27.402,37.836,24,26.541,24
	c-11.294,0-20.716,3.402-22.928,7.692C5.825,35.984,15.247,39,26.541,39z"/>
<path fill="#8A6859" d="M42.045,28.541c-3.408-4.229-14.482-2.333-15.506-0.219c-1.409-2.251-12.207-3.931-15.505,0.22
	c-2.066,2.608,2.71,5.063,7.503,6.833c3.021,1.229,0,2.626,0,2.626c12.003,0,20.438-4.547,20.438-4.547l0,0
	C41.717,31.975,43.439,30.27,42.045,28.541z"/>
<path fill="#C4926E" d="M36.538,30.561c-2.031-3.206-9.534-1.892-10.339-0.317c-0.812-1.703-7.925-3.069-10.368,0.017
	c-1.528,1.934,1.52,3.821,4.617,5.195c1.946,0.954-0.153,1.971-0.153,1.971c8.013,0.117,13.91-3.211,13.91-3.211h-0.002
	C36.12,33.135,37.37,31.873,36.538,30.561z"/>
<path fill="#FFE8BB" d="M32.828,31.425c-1.331-2.136-6.243-1.26-6.772-0.211c-0.529-1.134-5.189-2.044-6.789,0.009
	c-1.003,1.288,0.994,2.548,3.023,3.462c1.274,0.633-0.102,1.313-0.102,1.313c5.248,0.078,9.109-2.141,9.109-2.141l0,0
	C32.557,33.137,33.374,32.299,32.828,31.425z"/>
<path opacity="0.6" fill="#99A8AE" enable-background="new    " d="M27.881,11.409C24.19,7.579,26.646,2,26.646,2
	s-7.752,7.374-2.856,12.458C29.455,20.341,26.646,24,26.646,24S33.668,17.417,27.881,11.409z"/>
<path opacity="0.6" fill="#99A8AE" enable-background="new    " d="M16.827,14.843C14.059,12.058,15.9,8,15.9,8
	s-5.814,5.363-2.143,9.061C18.007,21.339,15.9,24,15.9,24S21.166,19.212,16.827,14.843z"/>
<path opacity="0.6" fill="#99A8AE" enable-background="new    " d="M38.827,14.842C36.059,12.057,37.9,8,37.9,8
	s-5.814,5.363-2.145,9.061C40.007,21.338,37.9,24,37.9,24S43.166,19.211,38.827,14.842z"/>
<path fill="#C9D6DE" d="M13.483,55.893c0,0,5.059,4.148,13.059,4.148c9.161,0,14.892-4.999,17.351-8.475
	c2.816-3.985,4.482-8.694,5.334-11.402C49.227,40.164,39.9,63.25,13.483,55.893z"/>
</svg>
