<?xml version="1.0" encoding="utf-8"?>
<!-- Generator: Adobe Illustrator 15.0.0, SVG Export Plug-In . SVG Version: 6.00 Build 0)  -->
<!DOCTYPE svg PUBLIC "-//W3C//DTD SVG 1.1//EN" "http://www.w3.org/Graphics/SVG/1.1/DTD/svg11.dtd">
<svg version="1.1" id="Layer_1" xmlns="http://www.w3.org/2000/svg" xmlns:xlink="http://www.w3.org/1999/xlink" x="0px" y="0px"
	 width="64px" height="64px" viewBox="0 0 64 64" enable-background="new 0 0 64 64" xml:space="preserve">
<path fill="#529320" d="M31.179,58.959c0.752,2.83-3.554,4.372-4.261,1.528c-4.139-16.703,5.516-33.899,5.516-33.899l1.72-0.618
	C34.154,25.97,26.522,41.439,31.179,58.959z"/>
<path fill="#92C932" d="M31.736,28.449c-5.655,13.247,7.575,41.188,22.33,23.579C74.768,40.887,50.544,28.536,31.736,28.449z"/>
<path fill="#7AB51D" d="M60.789,39.271c0,0-6.242-9.977-28.442-10.823C32.638,33.035,50.488,29.761,60.789,39.271z"/>
<path fill="#7AB51D" d="M36.863,33.313c12.856,9.339,14.265,16.429,15.14,15.765C53.123,48.222,47.82,38.728,36.863,33.313z"/>
<path fill="#92C932" d="M32.36,29.009C51.454,27.243,75.659,4.583,48.688,4.105C28.917-4.888,23.583,17.117,32.36,29.009z"/>
<path fill="#7AB51D" d="M32.365,28.879c2.293-3.537-7.335-10.373-1.381-22.196C30.984,6.683,23.587,16.985,32.365,28.879z"/>
<path fill="#7AB51D" d="M35.65,23.113C40.775,9.511,47.509,6.853,46.53,6.177C45.28,5.313,37.43,12.011,35.65,23.113z"/>
<path fill="#92C932" d="M32.479,28.817c-6.244,16.612-29.007,31.866-29.84,8.582C-2.235,17.595,22.038,18.125,32.479,28.817z"/>
<path fill="#7AB51D" d="M32.479,28.817c-1.33,0.402-1.646,2.01-1.912,4.158c-6.152,12-14.688,14.93-14.688,14.93
	C23.991,42.241,26.622,28.817,32.479,28.817z"/>
<path fill="#7AB51D" d="M25.262,28.566C9.951,30.372,5.746,35.957,5.246,34.925C4.607,33.597,13.27,27.843,25.262,28.566z"/>
</svg>
