<?xml version="1.0" encoding="utf-8"?>
<!-- Generator: Adobe Illustrator 15.0.0, SVG Export Plug-In . SVG Version: 6.00 Build 0)  -->
<!DOCTYPE svg PUBLIC "-//W3C//DTD SVG 1.1//EN" "http://www.w3.org/Graphics/SVG/1.1/DTD/svg11.dtd">
<svg version="1.1" id="Layer_1" xmlns="http://www.w3.org/2000/svg" xmlns:xlink="http://www.w3.org/1999/xlink" x="0px" y="0px"
	 width="64px" height="64px" viewBox="0 0 64 64" enable-background="new 0 0 64 64" xml:space="preserve">
<path fill="#EBBEA0" d="M44.837,34.508c0.145,0.01-31.951-3.096-31.387,2.135c0,0-1.65,11.215,2.283,17.967
	c5.851,10.057,28.645,11.74,34.319-7.02C51.181,43.861,50.302,33.859,44.837,34.508z"/>
<path fill="#EBBEA0" d="M38.675,39.107c0,2.303,1.896,4.172,4.236,4.172h0.037c2.34,0,4.238-1.869,4.238-4.172V6.172
	C47.187,3.869,45.288,2,42.948,2h-0.037c-2.34,0-4.236,1.869-4.236,4.172V39.107z"/>
<path fill="#BF8D69" d="M41.005,42.367h0.043c2.338,0,4.219-1.898,4.219-4.205V5.227c0-1.25-0.561-2.373-1.445-3.137
	c1.92,0.395,3.365,2.072,3.365,4.084v32.936c0,2.305-1.885,4.201-4.225,4.201h-0.039c-1.068,0-2.045-0.389-2.787-1.033
	C40.413,42.336,40.706,42.367,41.005,42.367z"/>
<path fill="#EBBEA0" d="M13.45,30.049c0-2.357,1.889-4.266,4.219-4.266h0.07c2.33,0,4.217,1.908,4.217,4.266v6.594
	c0,2.355-1.887,4.266-4.217,4.266h-0.07c-2.33,0-4.219-1.91-4.219-4.266V30.049z"/>
<path fill="#EBBEA0" d="M21.858,26.225c0-2.354,1.889-4.264,4.221-4.264h0.066c2.333,0,4.223,1.91,4.223,4.264v6.594
	c0,2.355-1.891,4.268-4.223,4.268h-0.066c-2.332,0-4.221-1.912-4.221-4.268V26.225z"/>
<path fill="#EBBEA0" d="M30.368,25.748c0-2.354,1.887-4.264,4.219-4.264h0.07c2.328,0,4.219,1.91,4.219,4.264v6.594
	c0,2.355-1.891,4.268-4.219,4.268h-0.07c-2.332,0-4.219-1.912-4.219-4.268V25.748z"/>
<path fill="#BF8D69" d="M16.471,39.275h0.057c2.328,0,4.158-1.883,4.158-4.238v-6.598c0-0.637-0.141-1.24-0.387-1.781
	c1.008,0.779,1.656,2.006,1.656,3.391v6.598c0,2.355-1.824,4.211-4.156,4.211h-0.051c-1.703,0-3.168-1.006-3.836-2.473
	C14.625,38.934,15.508,39.275,16.471,39.275z"/>
<path fill="#BF8D69" d="M24.86,35.424h0.053c2.333,0,4.182-1.852,4.182-4.209v-6.598c0-0.635-0.137-1.238-0.385-1.781
	c1.008,0.779,1.658,2.008,1.658,3.391v6.598c0,2.355-1.852,4.184-4.18,4.184h-0.055c-1.701,0-3.166-1.006-3.834-2.473
	C23.008,35.084,23.897,35.424,24.86,35.424z"/>
<path fill="#BF8D69" d="M33.353,34.947h0.051c2.332,0,4.199-1.852,4.199-4.209v-6.598c0-0.635-0.141-1.238-0.383-1.781
	c1.006,0.779,1.656,2.008,1.656,3.391v6.598c0,2.355-1.867,4.184-4.195,4.184h-0.055c-1.701,0-3.168-1.006-3.836-2.473
	C31.503,34.607,32.39,34.947,33.353,34.947z"/>
<path fill="#BF8D69" d="M41.007,40.822c-4.803-2.338-15.659,1.65-13.537,11.674C27.47,42.08,36.86,40.328,41.007,40.822z"/>
<path fill="#BF8D69" d="M39.181,30.51c-3.451-2.055-4.141,1.186-10.008,1.359c-2.569,0.076-3.712,5.396,0.178,7.324
	c5.416,2.682,5.84-1.115,7.156,0.365c1.404,1.572,2.727,1.879,3.91,3.703c0.859,1.322,7.576-0.719,8.285-3.434
	C50.067,34.617,44.657,33.773,39.181,30.51z"/>
<path fill="#EBBEA0" d="M39.624,31.418c-3.586-2.139-4.303,1.232-10.41,1.414c-2.673,0.078-3.862,5.613,0.189,7.617
	c5.633,2.791,6.072-1.16,7.443,0.381c1.463,1.637,2.836,1.955,4.064,3.852c0.895,1.377-1.486,6.58-1.486,6.58
	s6.904,4.867,8.313,2.094c2.617-5.152,1.875-9.213,1.793-12.242C49.339,34.129,45.325,34.811,39.624,31.418z"/>
<path fill="#BF8D69" d="M46.558,34.879c3.834,1.76,3.65,11.699,0.795,16.486c-7.107,11.91-22.665,11.715-30.043,5.338
	c6.84,7.314,23.409,8.037,31.129-4.305C51.532,47.455,52.497,36.131,46.558,34.879z"/>
<path fill="#BF8D69" d="M40.126,44.82c0.275,0.424,0.24,1.217,0.059,2.109c0.41-1.357,0.684-2.771,0.279-3.396
	c-1.23-1.896-1.93-2.287-3.385-3.922c-1.377-1.541-1.814,2.408-7.449-0.379c-2.08-1.031-2.772-2.994-2.594-4.672
	c-0.789,1.814-0.396,4.643,2.26,5.959c5.631,2.787,6.072-1.162,7.443,0.379C38.2,42.533,38.897,42.924,40.126,44.82z"/>
</svg>
