<?xml version="1.0" encoding="utf-8"?>
<!-- Generator: Adobe Illustrator 15.0.0, SVG Export Plug-In . SVG Version: 6.00 Build 0)  -->
<!DOCTYPE svg PUBLIC "-//W3C//DTD SVG 1.1//EN" "http://www.w3.org/Graphics/SVG/1.1/DTD/svg11.dtd">
<svg version="1.1" id="Layer_1" xmlns="http://www.w3.org/2000/svg" xmlns:xlink="http://www.w3.org/1999/xlink" x="0px" y="0px"
	 width="64px" height="64px" viewBox="0 0 64 64" enable-background="new 0 0 64 64" xml:space="preserve">
<path fill-rule="evenodd" clip-rule="evenodd" fill="#BEC3CF" d="M50.3,18.247c-1.494-0.56-32.896,30.328-32.515,31.508
	c3.618,11.21-7.508,15.802-8.946,8.278c-10.325,2.16-7.527-18.095,4.239-12.945c1.394,0.609,34.231-30.841,33.305-32.279
	C41.854,5.78,50.009-4.186,55.29,7.1C68.61,5.918,59.509,21.691,50.3,18.247z"/>
<path fill-rule="evenodd" clip-rule="evenodd" fill="#CFD8DD" d="M4.393,55.313c1.259,1.473,2.159-3.729,3.38-8.509
	C8.565,43.723,0.607,50.883,4.393,55.313z"/>
<path fill-rule="evenodd" clip-rule="evenodd" fill="#CFD8DD" d="M47.349,11.643c1.201,1.513,1.343-3.166,1.792-7.414
	C49.438,1.493,43.739,7.093,47.349,11.643z"/>
<path fill-rule="evenodd" clip-rule="evenodd" fill="#CFD8DD" d="M12.071,55.797c0.034,2.006,0.33,4.084-0.665,3.877
	C8.42,59.049,12.052,54.503,12.071,55.797z"/>
<path fill-rule="evenodd" clip-rule="evenodd" fill="#CFD8DD" d="M54.646,9.547c1.927,0.139,3.905,0.551,3.755-0.491
	C57.958,5.919,53.407,9.46,54.646,9.547z"/>
<path fill-rule="evenodd" clip-rule="evenodd" fill="#BEC3CF" d="M13.007,18.246c1.496-0.559,33.902,31.329,33.521,32.509
	c-3.619,11.21,7.506,14.802,8.944,7.278c10.326,2.16,7.107-17.761-4.659-12.611c-1.394,0.609-33.811-30.175-32.885-31.614
	C22.458,6.78,14.304-4.186,9.022,7.1C-4.299,5.918,3.797,21.691,13.007,18.246z"/>
<path fill-rule="evenodd" clip-rule="evenodd" fill="#CFD8DD" d="M59.614,55.313c-1.258,1.473-2.16-3.729-3.38-8.509
	C55.442,43.723,63.399,50.882,59.614,55.313z"/>
<path fill-rule="evenodd" clip-rule="evenodd" fill="#CFD8DD" d="M16.928,11.643c-1.2,1.513-1.341-3.166-1.792-7.414
	C14.841,1.492,20.539,7.093,16.928,11.643z"/>
<path fill-rule="evenodd" clip-rule="evenodd" fill="#CFD8DD" d="M52.24,55.797c-0.034,2.006-0.329,4.084,0.665,3.877
	C55.892,59.049,52.261,54.503,52.24,55.797z"/>
<path fill-rule="evenodd" clip-rule="evenodd" fill="#CFD8DD" d="M9.665,9.547C7.739,9.686,5.762,10.098,5.91,9.057
	C6.354,5.919,10.905,9.46,9.665,9.547z"/>
<path fill-rule="evenodd" clip-rule="evenodd" fill="#99A8AE" d="M16.836,42.385c1.036,1.891,3.046,1.941,3.046,1.941
	c-0.291,2.193,0.373,2.318,0.373,2.318l3.816-3.953l-3.959-3.229L16.836,42.385z"/>
<path fill-rule="evenodd" clip-rule="evenodd" fill="#99A8AE" d="M47.132,42.813c-1.008,2.113-2.957,1.484-2.957,1.484
	c0.607,2.188-0.531,2.906-0.531,2.906l-3.891-3.909l3.689-3.692L47.132,42.813z"/>
<path fill-rule="evenodd" clip-rule="evenodd" fill="#99A8AE" d="M43.774,16.373c2.641,1.695,3.562,3.94,3.562,3.94l-2.239,2.109
	l-3.352-3.938L43.774,16.373z"/>
<path fill-rule="evenodd" clip-rule="evenodd" fill="#99A8AE" d="M20.005,16.757c-3.313,2.026-3.159,4.316-3.159,4.316l2.08,1.847
	l3.197-3.958L20.005,16.757z"/>
<rect x="18.926" y="25.466" fill-rule="evenodd" clip-rule="evenodd" fill="#302C3B" width="26.458" height="17"/>
<path fill-rule="evenodd" clip-rule="evenodd" fill="#4E5E67" d="M35.166,34.191c0.403,1.225,3.364,4.021,6.038-0.044
	C43.882,30.079,34.335,31.672,35.166,34.191z"/>
<path fill-rule="evenodd" clip-rule="evenodd" fill="#4E5E67" d="M29.144,34.191c-0.403,1.225-3.365,4.021-6.039-0.044
	C20.428,30.079,29.974,31.672,29.144,34.191z"/>
<path fill-rule="evenodd" clip-rule="evenodd" fill="#4E5E67" d="M30.585,40.151c1.443-2.563,1.946-2.522,3.25-0.313
	C35.259,42.25,29.431,42.203,30.585,40.151z"/>
<path fill="#CFD8DD" d="M46.077,35.127c1.162-2.104,1.818-4.505,1.818-7.054c0-8.343-7.047-15.107-15.741-15.107
	c-8.695,0-15.741,6.764-15.741,15.107c0,2.549,0.656,4.949,1.817,7.054c-1.106,0.824-1.817,2.108-1.817,3.557
	c0,2.485,2.098,4.498,4.686,4.498c0.246,0,0.485-0.017,0.719-0.052c-0.294,0.702-0.637,1.575-0.719,2.013
	c-0.346,1.845,1.584,3.395,3.539,3.395c0,0,0.943,0.082,1.147-0.113c0.729-0.7,0-3.852,0-3.852c0-0.531,0.449-0.961,1.003-0.961
	c0.553,0,1,0.43,1,0.961c0,0-0.729,3.264,0,3.965c0.597,0.571,2.771,0.571,3.364,0c0.73-0.701,0-3.965,0-3.965
	c0-0.531,0.45-0.961,1.002-0.961c0.551,0,1.001,0.43,1.001,0.961c0,0-0.73,3.264,0,3.965c0.594,0.571,2.768,0.571,3.363,0
	c0.73-0.701,0-3.965,0-3.965c0-0.531,0.449-0.961,1.002-0.961c0.554,0,1,0.43,1,0.961c0,0-0.73,3.151,0,3.852
	c0.203,0.195,1.15,0.113,1.15,0.113c1.953,0,3.883-1.55,3.537-3.395c-0.081-0.438-0.425-1.311-0.721-2.013
	c0.233,0.035,0.477,0.052,0.721,0.052c2.588,0,4.688-2.013,4.688-4.498C47.896,37.235,47.185,35.951,46.077,35.127z M23.66,35.976
	c-1.769-1.245-6.355-6.46-2.562-6.677c2.336-0.135,7.973,1.876,8.333,4.094C29.681,34.902,25.428,37.221,23.66,35.976z
	 M34.806,40.692c-0.903,0.866-4.204,0.866-5.105,0c-0.846-0.812,0.546-1.435,1.028-2.31c0.559-1.015,0.839-1.934,1.524-1.934
	c0.688,0,0.967,0.919,1.527,1.934C34.261,39.258,35.631,39.9,34.806,40.692z M40.847,35.976c-1.768,1.245-6.018-1.073-5.771-2.583
	c0.363-2.218,5.997-4.229,8.334-4.094C47.202,29.515,42.618,34.73,40.847,35.976z"/>
<path fill-rule="evenodd" clip-rule="evenodd" fill="#E6EBEF" d="M44.354,23.298c-0.51,2.221-4.145-2.584-7.881-6.774
	C34.061,13.827,45.891,16.618,44.354,23.298z"/>
</svg>
