<?xml version="1.0" encoding="utf-8"?>
<!-- Generator: Adobe Illustrator 15.0.0, SVG Export Plug-In . SVG Version: 6.00 Build 0)  -->
<!DOCTYPE svg PUBLIC "-//W3C//DTD SVG 1.1//EN" "http://www.w3.org/Graphics/SVG/1.1/DTD/svg11.dtd">
<svg version="1.1" id="Layer_1" xmlns="http://www.w3.org/2000/svg" xmlns:xlink="http://www.w3.org/1999/xlink" x="0px" y="0px"
	 width="64px" height="64px" viewBox="0 0 64 64" enable-background="new 0 0 64 64" xml:space="preserve">
<path fill="#ED7612" d="M2,32C2,15.436,15.438,2,32,2c16.572,0,30,13.436,30,30c0,16.57-13.428,30-30,30C15.438,62,2,48.57,2,32z"/>
<path fill="#E64C18" d="M45.778,5.354C53.172,10.61,58,19.24,58,29c0,16.02-12.98,29-29,29c-9.759,0-18.39-4.828-23.646-12.223
	C10.347,55.412,20.404,62,32,62c16.571,0,30-13.43,30-30C62,20.402,55.413,10.347,45.778,5.354z"/>
<path fill-rule="evenodd" clip-rule="evenodd" fill="#F59E01" d="M10.218,17.397c0.446,3.134,6.31-2.997,12.248-8.267
	C26.298,5.741,8.878,7.973,10.218,17.397z"/>
<path fill-rule="evenodd" clip-rule="evenodd" fill="#FFFFFF" d="M34.612,36.596c-0.767,0.453-1.657,0.719-2.612,0.719
	c-0.943,0-1.825-0.258-2.584-0.703c-2.493,4.256-4.986,8.51-7.38,12.865c2.604,1.391,6.041,2.711,9.964,2.711
	s7.358-1.322,9.965-2.711C39.602,45.094,37.046,40.906,34.612,36.596z"/>
<path fill-rule="evenodd" clip-rule="evenodd" fill="#FFFFFF" d="M29.436,27.75c-2.478-4.297-4.921-8.63-7.473-12.854
	C16.352,18.369,12.27,23.371,12,32.188c4.957,0,9.915,0,14.872,0C26.872,30.29,27.904,28.638,29.436,27.75z"/>
<path fill-rule="evenodd" clip-rule="evenodd" fill="#FFFFFF" d="M42.037,14.896c-2.537,4.235-5.008,8.538-7.451,12.866
	c1.519,0.89,2.542,2.536,2.542,4.425c4.958,0,9.915,0,14.872,0C51.73,23.371,47.649,18.369,42.037,14.896z"/>
<circle fill-rule="evenodd" clip-rule="evenodd" fill="#FFFFFF" cx="32" cy="32.188" r="3.077"/>
</svg>
