<?xml version="1.0" encoding="utf-8"?>
<!-- Generator: Adobe Illustrator 15.0.0, SVG Export Plug-In . SVG Version: 6.00 Build 0)  -->
<!DOCTYPE svg PUBLIC "-//W3C//DTD SVG 1.1//EN" "http://www.w3.org/Graphics/SVG/1.1/DTD/svg11.dtd">
<svg version="1.1" id="Layer_1" xmlns="http://www.w3.org/2000/svg" xmlns:xlink="http://www.w3.org/1999/xlink" x="0px" y="0px"
	 width="64px" height="64px" viewBox="0 0 64 64" enable-background="new 0 0 64 64" xml:space="preserve">
<path fill="#ED7612" d="M2,32C2,15.436,15.438,2,32,2c16.572,0,30,13.436,30,30c0,16.571-13.428,30-30,30C15.438,62,2,48.57,2,32z"
	/>
<path fill="#E64C18" d="M45.778,5.354C53.172,10.61,58,19.24,58,29c0,16.02-12.98,29-29,29c-9.759,0-18.39-4.828-23.646-12.223
	C10.347,55.412,20.404,62,32,62c16.571,0,30-13.43,30-30C62,20.402,55.413,10.347,45.778,5.354z"/>
<path fill-rule="evenodd" clip-rule="evenodd" fill="#F59E01" d="M10.218,17.397c0.446,3.134,6.31-2.997,12.248-8.267
	C26.298,5.741,8.878,7.973,10.218,17.397z"/>
<path fill="#FFFFFF" d="M36.287,26.5c0.835-0.628,1.532-1.433,2.037-2.362c-1.792-1.259-3.973-1.997-6.324-1.997
	c-2.353,0-4.533,0.738-6.326,1.997c0.506,0.93,1.203,1.734,2.038,2.362c1.238-0.796,2.709-1.259,4.288-1.259
	C33.578,25.241,35.049,25.704,36.287,26.5z"/>
<path fill="#FFFFFF" d="M43.023,32.406c-1.059-0.006-2.104,0.219-3.059,0.653c0.002,0.064,0.005,0.129,0.005,0.193
	c0,3.045-1.69,5.693-4.179,7.049c0.1,1.047,0.426,2.07,0.957,2.988c3.729-1.785,6.307-5.609,6.307-10.037
	C43.055,32.966,43.044,32.685,43.023,32.406z"/>
<path fill="#FFFFFF" d="M24.029,33.252c0-0.074,0.004-0.148,0.006-0.221c-0.958-0.426-2.003-0.641-3.06-0.625
	c-0.021,0.279-0.031,0.563-0.031,0.846c0,4.447,2.601,8.283,6.356,10.059c0.533-0.916,0.862-1.934,0.967-2.98
	C25.747,38.984,24.029,36.32,24.029,33.252z"/>
<path fill="#FFFFFF" d="M16.543,32.353c3.945-2.289,8.92-1.132,11.418,2.547l1.54-0.893c-0.071-0.238-0.11-0.492-0.11-0.756
	c0-1.249,0.868-2.292,2.03-2.558v-1.762c-4.45-0.302-7.968-4.066-7.969-8.667c0.001-3.531,2.073-6.57,5.05-7.93
	c-0.008,0.003-0.016,0.005-0.023,0.008c0.008-0.004,0.016-0.007,0.023-0.011c-4.468,1.477-7.693,5.702-7.693,10.687
	c0,0,0,0.001,0,0.003l0,0c0,1.505,0.294,2.939,0.827,4.251c-1.384,0.195-2.755,0.655-4.039,1.4
	c-4.295,2.492-6.323,7.412-5.362,12.039C11.918,37.443,13.5,34.119,16.543,32.353z"/>
<path fill="#FFFFFF" d="M51.999,38.535c0.038-3.926-1.973-7.759-5.597-9.861c-1.284-0.745-2.654-1.205-4.039-1.4
	c0.533-1.312,0.828-2.746,0.828-4.251l0,0c0-0.002,0-0.002,0-0.002c0-4.985-3.227-9.211-7.693-10.688
	c0.007,0.004,0.015,0.008,0.022,0.011c-0.008-0.003-0.016-0.005-0.022-0.008c2.976,1.359,5.049,4.398,5.049,7.93
	c-0.001,4.601-3.519,8.365-7.969,8.667v1.762c1.162,0.266,2.03,1.309,2.03,2.558c0,0.277-0.043,0.543-0.122,0.795l1.531,0.887
	c2.491-3.703,7.482-4.873,11.438-2.579c2.758,1.602,4.315,4.481,4.348,7.442c0.003,0.305-0.01,0.611-0.039,0.916v-0.002
	c0,0.002,0,0.004,0,0.006C51.915,39.992,51.992,39.262,51.999,38.535z"/>
<path fill="#FFFFFF" d="M38.908,47.232c-2.777-1.611-4.339-4.521-4.349-7.504c-0.004-1.283,0.279-2.578,0.876-3.789l-1.536-0.893
	c-0.476,0.51-1.15,0.828-1.899,0.828c-0.764,0-1.451-0.33-1.928-0.855l-1.525,0.883c2.008,4.037,0.527,9.02-3.457,11.33
	c-3.043,1.766-6.698,1.482-9.357-0.43c3.506,3.15,8.761,3.846,13.056,1.354c1.276-0.742,2.353-1.697,3.21-2.797
	c0.858,1.102,1.936,2.059,3.213,2.799c4.295,2.492,9.55,1.799,13.056-1.354c-0.006,0.004-0.012,0.008-0.017,0.012
	c0.005-0.004,0.011-0.008,0.017-0.014C45.607,48.715,41.952,48.998,38.908,47.232z"/>
</svg>
