<?xml version="1.0" encoding="utf-8"?>
<!-- Generator: Adobe Illustrator 15.0.0, SVG Export Plug-In . SVG Version: 6.00 Build 0)  -->
<!DOCTYPE svg PUBLIC "-//W3C//DTD SVG 1.1//EN" "http://www.w3.org/Graphics/SVG/1.1/DTD/svg11.dtd">
<svg version="1.1" id="Layer_1" xmlns="http://www.w3.org/2000/svg" xmlns:xlink="http://www.w3.org/1999/xlink" x="0px" y="0px"
	 width="64px" height="64px" viewBox="0 0 64 64" enable-background="new 0 0 64 64" xml:space="preserve">
<path fill="#AA5BEF" d="M62,50c0,6.601-5.4,12-12,12H14C7.4,62,2,56.601,2,50V14C2,7.399,7.4,2,14,2h36c6.6,0,12,5.399,12,12V50z"/>
<path fill="#8D40CF" d="M56.838,4.162C58.197,6.105,59,8.462,59,11v37c0,6.601-4.398,11-11,11H11c-2.537,0-4.893-0.804-6.838-2.162
	C6.336,59.95,9.938,62,14,62h36c6.602,0,12-5.399,12-12V14C62,9.938,59.951,6.336,56.838,4.162z"/>
<path fill-rule="evenodd" clip-rule="evenodd" fill="#C28FEF" d="M4.975,12.585c0.34,2.703,4.793-2.587,9.303-7.136
	C17.188,2.524,3.957,4.45,4.975,12.585z"/>
<path fill="#FFFFFF" d="M39.202,46c-8.284,0-15-6.716-15-15s6.716-15,15-15c4.673,0,8.845,2.137,11.596,5.486
	C47.414,15.242,40.804,11,33.202,11c-11.046,0-20,8.955-20,20s8.954,20,20,20c7.602,0,14.212-4.242,17.596-10.486
	C48.047,43.863,43.875,46,39.202,46z"/>
<polygon fill="#FFFFFF" points="42.077,33.716 46.766,37 44.994,31.658 49.66,28.348 43.88,28.331 42.077,23 40.276,28.331 
	34.494,28.348 39.162,31.658 37.391,37 "/>
</svg>
