<?xml version="1.0" encoding="utf-8"?>
<!-- Generator: Adobe Illustrator 15.0.0, SVG Export Plug-In . SVG Version: 6.00 Build 0)  -->
<!DOCTYPE svg PUBLIC "-//W3C//DTD SVG 1.1//EN" "http://www.w3.org/Graphics/SVG/1.1/DTD/svg11.dtd">
<svg version="1.1" id="Layer_1" xmlns="http://www.w3.org/2000/svg" xmlns:xlink="http://www.w3.org/1999/xlink" x="0px" y="0px"
	 width="64px" height="64px" viewBox="0 0 64 64" enable-background="new 0 0 64 64" xml:space="preserve">
<path fill="#AA5BEF" d="M62,50c0,6.601-5.4,12-12,12H14C7.4,62,2,56.601,2,50V14C2,7.4,7.4,2,14,2h36c6.6,0,12,5.4,12,12V50z"/>
<path fill="#8D40CF" d="M56.838,4.162C58.196,6.106,59,8.462,59,11v37c0,6.601-4.399,11-11,11H11c-2.537,0-4.894-0.804-6.838-2.162
	C6.336,59.95,9.938,62,14,62h36c6.601,0,12-5.399,12-12V14C62,9.938,59.95,6.336,56.838,4.162z"/>
<path fill-rule="evenodd" clip-rule="evenodd" fill="#C28FEF" d="M4.975,12.585c0.339,2.704,4.793-2.587,9.303-7.135
	C17.188,2.525,3.957,4.45,4.975,12.585z"/>
<path fill="#FFFFFF" d="M32,12c-11.045,0-20,8.954-20,20c0,11.045,8.955,20,20,20s20-8.955,20-20C52,20.954,43.045,12,32,12z
	 M34,35.678l8.435,8.435c-2.326,2.006-5.231,3.349-8.435,3.749V35.678z M30,47.861c-3.203-0.4-6.108-1.743-8.435-3.749L30,35.677
	V47.861z M16,32c0-8.158,6.11-14.875,14-15.862v13.882l-11.12,11.12C17.069,38.549,16,35.401,16,32z M45.12,41.141L34,30.021V16.138
	C41.89,17.125,48,23.842,48,32C48,35.401,46.931,38.549,45.12,41.141z"/>
</svg>
