<?xml version="1.0" encoding="utf-8"?>
<!-- Generator: Adobe Illustrator 15.0.0, SVG Export Plug-In . SVG Version: 6.00 Build 0)  -->
<!DOCTYPE svg PUBLIC "-//W3C//DTD SVG 1.1//EN" "http://www.w3.org/Graphics/SVG/1.1/DTD/svg11.dtd">
<svg version="1.1" id="Layer_1" xmlns="http://www.w3.org/2000/svg" xmlns:xlink="http://www.w3.org/1999/xlink" x="0px" y="0px"
	 width="64px" height="64px" viewBox="0 0 64 64" enable-background="new 0 0 64 64" xml:space="preserve">
<path fill="#AA5BEF" d="M62,50c0,6.6-5.4,12-12,12H14C7.4,62,2,56.6,2,50V14C2,7.4,7.4,2,14,2h36c6.6,0,12,5.4,12,12V50z"/>
<path fill="#8D40CF" d="M56.838,4.162C58.196,6.106,59,8.462,59,11v37c0,6.6-4.399,11-11,11H11c-2.537,0-4.894-0.805-6.838-2.162
	C6.336,59.949,9.938,62,14,62h36c6.601,0,12-5.4,12-12V14C62,9.938,59.95,6.336,56.838,4.162z"/>
<path fill-rule="evenodd" clip-rule="evenodd" fill="#C28FEF" d="M4.975,12.585c0.339,2.704,4.793-2.587,9.303-7.135
	C17.188,2.525,3.957,4.45,4.975,12.585z"/>
<circle fill="#FFFFFF" cx="32.784" cy="40.965" r="3.374"/>
<path fill="#FFFFFF" d="M32,12c-11.046,0-20,8.954-20,20c0,11.044,8.954,20,20,20s20-8.955,20-20C52,20.954,43.046,12,32,12z
	 M32.541,48.328c-4.126-0.082-7.611-3.262-7.979-7.463C24.168,36.363,27.499,32.393,32,32c4.5-0.395,7.83-4.363,7.438-8.864
	c-0.391-4.465-4.284-7.425-8.757-7.434c4.142-0.335,8.411,0.887,11.838,3.763c6.912,5.799,7.815,16.141,2.017,23.053
	C41.432,46.217,37.025,48.18,32.541,48.328z M31.019,20.793c1.688-0.147,3.176,1.101,3.324,2.79
	c0.147,1.688-1.101,3.176-2.789,3.323c-1.689,0.147-3.176-1.101-3.324-2.789C28.083,22.428,29.331,20.941,31.019,20.793z"/>
</svg>
