<?xml version="1.0" encoding="utf-8"?>
<!-- Generator: Adobe Illustrator 15.0.0, SVG Export Plug-In . SVG Version: 6.00 Build 0)  -->
<!DOCTYPE svg PUBLIC "-//W3C//DTD SVG 1.1//EN" "http://www.w3.org/Graphics/SVG/1.1/DTD/svg11.dtd">
<svg version="1.1" id="Layer_1" xmlns="http://www.w3.org/2000/svg" xmlns:xlink="http://www.w3.org/1999/xlink" x="0px" y="0px"
	 width="64px" height="64px" viewBox="0 0 64 64" enable-background="new 0 0 64 64" xml:space="preserve">
<circle fill="#FDCA47" cx="32" cy="32" r="30"/>
<path fill="#F9B700" d="M51.654,9.346C56.226,14.611,59,21.48,59,29c0,16.568-13.432,30-30,30c-7.521,0-14.389-2.773-19.654-7.346
	C14.846,57.99,22.952,62,32,62c16.568,0,30-13.432,30-30C62,22.953,57.989,14.848,51.654,9.346z"/>
<path fill-rule="evenodd" clip-rule="evenodd" fill="#FFE8BB" d="M6.418,20.5C5.302,24.242,13,11,25.001,6.084
	C30.834,3.693,11.168,4.584,6.418,20.5z"/>
<path fill="#302C3B" d="M44.584,41.279c-8.109,5.656-17.104,5.623-25.168,0c-0.97-0.678-1.845,0.494-1.187,1.578
	c2.458,4.047,7.417,7.648,13.771,7.648c6.354,0,11.314-3.604,13.771-7.648C46.43,41.773,45.555,40.604,44.584,41.279z"/>
<path fill="#302C3B" d="M28.087,28.057c-4.214-7.953-12.696-7.951-16.911,0c-0.208,0.4,0.34,0.58,1.01,1.035
	c4.225-3.32,11.059-3.014,14.892-0.002C27.746,28.637,28.293,28.457,28.087,28.057z"/>
<path fill="#302C3B" d="M52.825,28.057c-4.215-7.953-12.698-7.951-16.912,0c-0.207,0.4,0.34,0.58,1.01,1.035
	c4.225-3.32,11.059-3.014,14.891-0.002C52.483,28.637,53.031,28.457,52.825,28.057z"/>
<circle fill="#F18D84" cx="51.811" cy="36" r="6"/>
<circle fill="#F18D84" cx="12.189" cy="36" r="6"/>
<path fill="#917524" d="M52.345,18.215c-4.158-3.201-10.314-4.814-13.78-3.832c-0.731,0.208-1.167,2.92-0.534,2.826
	c4.854-0.725,10.157,0.131,14.183,2.838C52.753,20.41,52.97,18.695,52.345,18.215z"/>
<path fill="#917524" d="M11.656,18.218c4.157-3.204,10.313-4.816,13.779-3.834c0.731,0.206,1.167,2.921,0.534,2.825
	c-4.854-0.723-10.158,0.131-14.182,2.838C11.247,20.413,11.031,18.697,11.656,18.218z"/>
</svg>
