<?xml version="1.0" encoding="utf-8"?>
<!-- Generator: Adobe Illustrator 15.0.0, SVG Export Plug-In . SVG Version: 6.00 Build 0)  -->
<!DOCTYPE svg PUBLIC "-//W3C//DTD SVG 1.1//EN" "http://www.w3.org/Graphics/SVG/1.1/DTD/svg11.dtd">
<svg version="1.1" id="Layer_1" xmlns="http://www.w3.org/2000/svg" xmlns:xlink="http://www.w3.org/1999/xlink" x="0px" y="0px"
	 width="64px" height="64px" viewBox="0 0 64 64" enable-background="new 0 0 64 64" xml:space="preserve">
<path fill="#302C3B" d="M32,2c-11.045,0-20,8.955-20,20c0,11.046,8.955,20,20,20s20-8.954,20-20C52,10.955,43.045,2,32,2z M32,35.6
	c-7.511,0-13.6-6.089-13.6-13.6S24.489,8.4,32,8.4S45.6,14.489,45.6,22S39.511,35.6,32,35.6z"/>
<path fill="#1A1626" d="M32,8.4c3.552,0,6.775,1.372,9.197,3.602C38.712,9.303,35.159,7.6,31.2,7.6
	C23.689,7.6,17.6,13.689,17.6,21.2c0,3.959,1.703,7.512,4.402,9.997C19.772,28.775,18.4,25.552,18.4,22
	C18.4,14.489,24.489,8.4,32,8.4z"/>
<path fill="#1A1626" d="M45.732,7.468C49.119,11.051,51.2,15.881,51.2,21.2c0,11.046-8.955,20-20,20
	c-5.319,0-10.15-2.081-13.733-5.468C21.113,39.59,26.273,42,32,42c11.045,0,20-8.954,20-20C52,16.274,49.59,11.113,45.732,7.468z"/>
<path fill="#4E5E67" d="M32.561,3.318c1.563,0,1.176-0.77-0.768-0.77c-10.608,0-19.209,8.601-19.209,19.209
	c0,2.697,0.769,3.076,0.769,0.768C13.353,11.918,21.952,3.318,32.561,3.318z"/>
<path fill="#4E5E67" d="M32.524,37.093c7.963,0,14.419-6.455,14.419-14.419c0-1.915-0.848-2.342-0.848-0.848
	c0,7.964-6.456,14.419-14.42,14.419C30.1,36.245,30.516,37.093,32.524,37.093z"/>
<rect x="28.8" y="40" fill="#302C3B" width="6.4" height="22"/>
<polygon fill="#1A1626" points="34.2,41 34.2,61 28.8,61 28.8,62 35.2,62 35.2,40.8 "/>
<rect x="21" y="47.8" fill="#302C3B" width="22" height="6.4"/>
<rect x="21" y="53.2" fill="#1A1626" width="7.8" height="1"/>
<polygon fill="#1A1626" points="42,47.8 42,53.2 34.2,53.2 34.2,54.2 43,54.2 43,47.8 "/>
<polygon fill="#4E5E67" points="22,48.8 22,51.963 22.639,49.438 26.789,48.8 "/>
<polygon fill="#4E5E67" points="29.8,59.978 32.962,59.978 30.438,59.339 29.8,55.188 "/>
</svg>
