<?xml version="1.0" encoding="utf-8"?>
<!-- Generator: Adobe Illustrator 15.0.0, SVG Export Plug-In . SVG Version: 6.00 Build 0)  -->
<!DOCTYPE svg PUBLIC "-//W3C//DTD SVG 1.1//EN" "http://www.w3.org/Graphics/SVG/1.1/DTD/svg11.dtd">
<svg version="1.1" id="Layer_1" xmlns="http://www.w3.org/2000/svg" xmlns:xlink="http://www.w3.org/1999/xlink" x="0px" y="0px"
	 width="64px" height="64px" viewBox="0 0 64 64" enable-background="new 0 0 64 64" xml:space="preserve">
<rect x="43.713" y="4.488" transform="matrix(0.7071 0.7071 -0.7071 0.7071 25.8552 -28.0849)" fill="#302C3B" width="6.231" height="25.358"/>
<polygon fill="#1A1626" points="40.068,26.959 56.621,10.406 52.903,6.688 53.592,5.999 57.998,10.405 40.619,27.788 "/>
<polygon fill="#302C3B" points="51.768,12.23 51.768,25.373 57.998,25.371 58,5.999 38.627,5.999 38.625,12.229 "/>
<polygon fill="#1A1626" points="48.333,11.258 38.624,11.256 38.624,12.229 47.361,12.23 "/>
<polygon fill="#1A1626" points="57.026,5.999 57.024,24.397 51.768,24.4 51.768,25.373 57.998,25.371 58,5.999 "/>
<path fill="#302C3B" d="M25.473,19.054C14.719,19.052,6,27.772,6,38.528C6,49.282,14.719,58,25.473,58.001
	c10.754-0.002,19.475-8.719,19.475-19.473C44.947,27.772,36.228,19.053,25.473,19.054z M25.473,51.768
	c-7.313,0-13.242-5.927-13.242-13.24c0-7.313,5.93-13.243,13.242-13.241c7.313,0,13.242,5.929,13.242,13.241
	S32.785,51.77,25.473,51.768z"/>
<path fill="#1A1626" d="M25.473,25.286c3.458,0,6.597,1.335,8.956,3.506c-2.421-2.629-5.88-4.286-9.734-4.286
	c-7.313,0-13.243,5.931-13.242,13.242c0,3.854,1.656,7.313,4.285,9.733c-2.171-2.356-3.507-5.496-3.507-8.954
	C12.23,31.215,18.16,25.284,25.473,25.286z"/>
<path fill="#1A1626" d="M40.561,26.462c2.271,3.185,3.607,7.077,3.605,11.286c0.002,10.756-8.718,19.473-19.473,19.474
	c-5.18-0.001-9.883-2.026-13.372-5.322c3.55,3.755,8.576,6.102,14.151,6.102c10.754-0.002,19.475-8.719,19.475-19.473
	c0-4.607-1.544-8.896-4.219-12.229L40.561,26.462z"/>
<path fill="#4E5E67" d="M26.018,20.336c1.523,0,1.145-0.748-0.745-0.749c-10.331,0-18.705,8.375-18.706,18.703
	c0,2.629,0.75,2.997,0.75,0.749C7.316,28.71,15.689,20.336,26.018,20.336z"/>
<path fill="#4E5E67" d="M25.982,53.223c7.756,0,14.041-6.285,14.039-14.04c0.002-1.864-0.824-2.279-0.824-0.825
	c0,7.755-6.285,14.039-14.041,14.038C23.623,52.396,24.027,53.223,25.982,53.223z"/>
<polygon fill="#4E5E67" points="39.599,6.98 39.599,10.06 40.22,7.602 44.263,6.979 "/>
</svg>
