<?xml version="1.0" encoding="utf-8"?>
<!-- Generator: Adobe Illustrator 15.0.0, SVG Export Plug-In . SVG Version: 6.00 Build 0)  -->
<!DOCTYPE svg PUBLIC "-//W3C//DTD SVG 1.1//EN" "http://www.w3.org/Graphics/SVG/1.1/DTD/svg11.dtd">
<svg version="1.1" id="Layer_1" xmlns="http://www.w3.org/2000/svg" xmlns:xlink="http://www.w3.org/1999/xlink" x="0px" y="0px"
	 width="64px" height="64px" viewBox="0 0 64 64" enable-background="new 0 0 64 64" xml:space="preserve">
<path fill="#AA5BEF" d="M62,50c0,6.601-5.4,12-12,12H14C7.4,62,2,56.601,2,50V14C2,7.399,7.4,2,14,2h36c6.6,0,12,5.399,12,12V50z"/>
<path fill="#8D40CF" d="M56.838,4.162C58.196,6.105,59,8.462,59,11v37c0,6.601-4.399,11-11,11H11c-2.537,0-4.894-0.804-6.838-2.162
	C6.336,59.95,9.938,62,14,62h36c6.601,0,12-5.399,12-12V14C62,9.938,59.95,6.336,56.838,4.162z"/>
<path fill-rule="evenodd" clip-rule="evenodd" fill="#C28FEF" d="M4.975,12.585c0.339,2.703,4.793-2.587,9.303-7.136
	C17.188,2.524,3.957,4.45,4.975,12.585z"/>
<path fill="#FFFFFF" d="M49.67,13.221c-3.884,0.044-6.695,0.831-8.596,2.408c-1.181,0.979-2.177,2.346-3.142,3.669
	c-1.738,2.384-3.424,4.313-5.933,4.496c-2.597-0.184-4.195-2.113-5.933-4.498c-0.964-1.321-1.961-2.688-3.14-3.667
	c-1.901-1.577-4.714-2.364-8.633-2.408c-1.496,0-2.288,1.199-2.295,2.384c-0.007,1.209,0.784,2.443,2.315,2.463
	c4.534,0.054,6.872,2.142,9.174,5.494c0.593,0.863,1.179,1.59,1.772,2.218c-3.988,2.325-6.676,6.637-6.676,11.585
	c0,7.408,6.006,13.413,13.414,13.413s13.413-6.005,13.413-13.413c0-4.951-2.689-9.265-6.681-11.589
	c0.581-0.614,1.16-1.333,1.774-2.209c2.415-3.442,4.691-5.446,9.178-5.499c1.529-0.02,2.322-1.254,2.315-2.463
	C51.991,14.42,51.201,13.221,49.67,13.221z M32,45.784c-4.65,0-8.42-3.77-8.42-8.419c0-4.65,3.77-8.419,8.42-8.419
	c4.649,0,8.419,3.77,8.419,8.419C40.419,42.015,36.649,45.784,32,45.784z"/>
</svg>
