<?xml version="1.0" encoding="utf-8"?>
<!-- Generator: Adobe Illustrator 15.0.0, SVG Export Plug-In . SVG Version: 6.00 Build 0)  -->
<!DOCTYPE svg PUBLIC "-//W3C//DTD SVG 1.1//EN" "http://www.w3.org/Graphics/SVG/1.1/DTD/svg11.dtd">
<svg version="1.1" id="Layer_1" xmlns="http://www.w3.org/2000/svg" xmlns:xlink="http://www.w3.org/1999/xlink" x="0px" y="0px"
	 width="64px" height="64px" viewBox="0 0 64 64" enable-background="new 0 0 64 64" xml:space="preserve">
<path fill="#AA5BEF" d="M62,50c0,6.601-5.4,12-12.001,12H14C7.4,62,2,56.601,2,50V14C2,7.399,7.4,2,14,2h35.999
	C56.6,2,62,7.399,62,14V50z"/>
<path fill="#8D40CF" d="M56.838,4.162C58.197,6.105,59,8.462,59,11v37c0,6.601-4.399,11-11,11H11c-2.537,0-4.894-0.804-6.838-2.162
	C6.336,59.95,9.938,62,14,62h35.999C56.602,62,62,56.601,62,50V14C62,9.938,59.951,6.336,56.838,4.162z"/>
<path fill-rule="evenodd" clip-rule="evenodd" fill="#C28FEF" d="M4.975,12.585c0.339,2.703,4.793-2.587,9.303-7.136
	C17.188,2.524,3.957,4.45,4.975,12.585z"/>
<path fill="#FFFFFF" d="M13.447,18.115c12.915,3.592,24.588,3.496,37.11-0.032c1.149-0.326,1.542-1.361,1.422-2.244
	C51.854,14.925,51.148,14,50.045,14c-0.187,0-0.379,0.027-0.571,0.081c-11.318,3.191-23.548,3.202-34.949,0.035
	c-0.19-0.054-0.38-0.081-0.564-0.081c-1.108,0-1.815,0.929-1.939,1.846C11.902,16.763,12.297,17.796,13.447,18.115z"/>
<path fill="#FFFFFF" d="M50.553,45.885c-12.915-3.593-24.588-3.495-37.11,0.032c-1.149,0.325-1.542,1.361-1.422,2.244
	C12.146,49.075,12.852,50,13.955,50c0.187,0,0.379-0.026,0.571-0.081c11.318-3.191,23.548-3.201,34.949-0.035
	c0.19,0.055,0.38,0.081,0.564,0.081c1.108,0,1.815-0.929,1.939-1.847C52.098,47.237,51.703,46.204,50.553,45.885z"/>
<rect x="24" y="19" fill="#FFFFFF" width="4" height="26"/>
<rect x="36" y="19" fill="#FFFFFF" width="4" height="26"/>
</svg>
