<?xml version="1.0" encoding="utf-8"?>
<!-- Generator: Adobe Illustrator 15.0.0, SVG Export Plug-In . SVG Version: 6.00 Build 0)  -->
<!DOCTYPE svg PUBLIC "-//W3C//DTD SVG 1.1//EN" "http://www.w3.org/Graphics/SVG/1.1/DTD/svg11.dtd">
<svg version="1.1" id="Layer_1" xmlns="http://www.w3.org/2000/svg" xmlns:xlink="http://www.w3.org/1999/xlink" x="0px" y="0px"
	 width="64px" height="64px" viewBox="0 0 64 64" enable-background="new 0 0 64 64" xml:space="preserve">
<path fill="#AA5BEF" d="M62,50c0,6.601-5.4,12-12,12H14C7.4,62,2,56.601,2,50V14C2,7.399,7.4,2,14,2h36c6.6,0,12,5.399,12,12V50z"/>
<path fill="#8D40CF" d="M56.838,4.162C58.197,6.105,59,8.462,59,11v37c0,6.601-4.398,11-11,11H11c-2.537,0-4.895-0.804-6.838-2.162
	C6.336,59.95,9.938,62,14,62h36c6.602,0,12-5.399,12-12V14C62,9.938,59.951,6.336,56.838,4.162z"/>
<path fill-rule="evenodd" clip-rule="evenodd" fill="#C28FEF" d="M4.975,12.585c0.338,2.703,4.793-2.587,9.303-7.136
	C17.188,2.524,3.957,4.45,4.975,12.585z"/>
<path fill="#FFFFFF" d="M28.279,32.445c2.449-4.043,1.033-9.658-3.154-12.518c2.242-0.794,4.594-1.198,7-1.198
	c3.357,0,6.631,0.772,9.732,2.295c1.34,0.653,2.979-0.206,3.311-1.63c0.223-0.959-0.205-1.833-1.115-2.282
	c-3.83-1.879-7.84-2.831-11.922-2.831c-6.08,0-11.836,2.125-16.654,6.146c-0.195,0.167-0.361,0.359-0.488,0.572
	c-0.619,0.545-1.158,1.159-1.578,1.781c-0.141,0.165-0.248,0.325-0.309,0.458c-0.105,0.172-0.184,0.353-0.217,0.482
	c-1.955,4.491-0.6,9.328,3.371,12.037c1.262,0.86,2.674,1.297,4.193,1.297C23.51,37.056,26.582,35.246,28.279,32.445z M20.48,23.25
	c1.42,0,2.881,0.865,3.719,2.205c0.895,1.429,0.963,3.164,0.186,4.759c-0.686,1.413-2.047,2.257-3.643,2.257
	c-0.758,0-1.52-0.198-2.199-0.57c-2.209-1.21-2.584-4.302-1.574-6.385C18.1,23.644,19.502,23.25,20.48,23.25z"/>
<path fill="#FFFFFF" d="M47.742,28.242c-1.262-0.86-2.67-1.296-4.189-1.296c-3.063,0-6.135,1.81-7.828,4.609
	c-2.451,4.046-1.035,9.661,3.152,12.519c-5.33,1.887-11.455,1.494-16.732-1.097c-1.346-0.667-2.98,0.203-3.313,1.628
	c-0.223,0.959,0.203,1.834,1.117,2.282c3.826,1.879,7.836,2.831,11.92,2.831c6.078,0,11.84-2.125,16.65-6.143
	c0.199-0.167,0.363-0.361,0.492-0.578c0.617-0.545,1.16-1.158,1.572-1.775c0.141-0.16,0.252-0.326,0.313-0.457
	c0.1-0.162,0.174-0.332,0.217-0.48C53.072,35.793,51.717,30.954,47.742,28.242z M43.518,40.751c-1.42,0-2.879-0.867-3.717-2.206
	c-0.895-1.429-0.963-3.163-0.186-4.759c0.686-1.412,2.047-2.255,3.643-2.255c0.758,0,1.52,0.197,2.201,0.57
	c2.207,1.208,2.582,4.299,1.574,6.383C45.898,40.357,44.496,40.751,43.518,40.751z"/>
</svg>
