<?xml version="1.0" encoding="utf-8"?>
<!-- Generator: Adobe Illustrator 15.0.0, SVG Export Plug-In . SVG Version: 6.00 Build 0)  -->
<!DOCTYPE svg PUBLIC "-//W3C//DTD SVG 1.1//EN" "http://www.w3.org/Graphics/SVG/1.1/DTD/svg11.dtd">
<svg version="1.1" id="Layer_1" xmlns="http://www.w3.org/2000/svg" xmlns:xlink="http://www.w3.org/1999/xlink" x="0px" y="0px"
	 width="64px" height="64px" viewBox="0 0 64 64" enable-background="new 0 0 64 64" xml:space="preserve">
<path fill="#AA5BEF" d="M62,50c0,6.601-5.4,12-12,12H14c-6.6,0-12-5.399-12-12V14c0-6.601,5.4-12,12-12h36c6.6,0,12,5.399,12,12V50z
	"/>
<path fill="#8D40CF" d="M56.838,4.162C58.197,6.105,59,8.462,59,11v37c0,6.601-4.398,11-11,11H11c-2.537,0-4.895-0.804-6.838-2.162
	C6.336,59.95,9.938,62,14,62h36c6.602,0,12-5.399,12-12V14C62,9.938,59.951,6.336,56.838,4.162z"/>
<path fill-rule="evenodd" clip-rule="evenodd" fill="#C28FEF" d="M4.975,12.585c0.338,2.703,4.793-2.587,9.303-7.136
	C17.188,2.524,3.958,4.45,4.975,12.585z"/>
<path fill="#FFFFFF" d="M47.805,40.865c-1.211,0-2.195,0.994-2.195,2.222c0,3.088-1.871,4.47-3.727,4.47
	c-0.961,0-1.85-0.363-2.502-1.022c-0.783-0.788-1.195-1.98-1.195-3.447c0-2.32,1.129-4.509,2.436-7.043
	c1.66-3.221,3.543-6.871,3.648-11.805c0.096-4.531-1.908-8.36-5.498-10.505c-3.816-2.282-8.743-2.313-12.547-0.079
	c-3.586,2.105-5.607,5.958-5.545,10.567c0.037,2.658,0.617,4.556,1.414,6.018C17.566,30.642,14,34.509,14,39.211
	c0,4.97,3.98,9.013,8.873,9.013s8.873-4.043,8.873-9.013c0-4.81-2.131-6.976-3.844-8.715c-1.555-1.582-2.785-2.831-2.832-6.336
	c-0.053-3.847,1.797-5.747,3.357-6.663c2.416-1.418,5.676-1.394,8.114,0.062c1.568,0.937,3.42,2.84,3.34,6.584
	c-0.084,3.896-1.643,6.92-3.152,9.844c-1.443,2.797-2.934,5.689-2.934,9.1c0,3.377,1.352,5.45,2.484,6.595
	C37.764,51.177,39.752,52,41.883,52C45.916,52,50,48.938,50,43.087C50,41.859,49.018,40.865,47.805,40.865z M22.873,43.78
	c-2.471,0-4.482-2.05-4.482-4.569c0-2.519,2.012-4.569,4.482-4.569s4.482,2.051,4.482,4.569C27.355,41.73,25.343,43.78,22.873,43.78
	z"/>
</svg>
