<?xml version="1.0" encoding="utf-8"?>
<!-- Generator: Adobe Illustrator 15.0.0, SVG Export Plug-In . SVG Version: 6.00 Build 0)  -->
<!DOCTYPE svg PUBLIC "-//W3C//DTD SVG 1.1//EN" "http://www.w3.org/Graphics/SVG/1.1/DTD/svg11.dtd">
<svg version="1.1" id="Layer_1" xmlns="http://www.w3.org/2000/svg" xmlns:xlink="http://www.w3.org/1999/xlink" x="0px" y="0px"
	 width="64px" height="64px" viewBox="0 0 64 64" enable-background="new 0 0 64 64" xml:space="preserve">
<path fill="#AA5BEF" d="M62,50c0,6.601-5.4,12-12,12H14c-6.6,0-12-5.399-12-12V14c0-6.601,5.4-12,12-12h36c6.6,0,12,5.399,12,12V50z
	"/>
<path fill="#8D40CF" d="M56.838,4.162C58.197,6.105,59,8.462,59,11v37c0,6.601-4.398,11-11,11H11c-2.537,0-4.895-0.804-6.838-2.162
	C6.336,59.95,9.938,62,14,62h36c6.602,0,12-5.399,12-12V14C62,9.938,59.951,6.336,56.838,4.162z"/>
<path fill-rule="evenodd" clip-rule="evenodd" fill="#C28FEF" d="M4.975,12.585c0.338,2.703,4.793-2.587,9.303-7.136
	C17.188,2.524,3.958,4.45,4.975,12.585z"/>
<path fill="#FFFFFF" d="M49.227,44.308c-1.209,0-2.326-0.295-3.342-0.813c3.145-3.576,4.773-8.65,4.773-12.806
	c0-2.57-0.592-4.799-1.713-6.446c-1.338-1.969-3.332-3.01-5.762-3.01c-1.518,0-2.863,0.398-3.99,1.161v-1.474
	c0-2.047-0.799-3.83-2.246-5.019c-1.215-0.998-2.848-1.547-4.595-1.547c-1.964,0-3.994,0.715-5.41,2.083
	c-0.177-0.188-0.364-0.369-0.566-0.536c-1.216-0.997-2.848-1.546-4.598-1.546c-1.899,0-3.859,0.672-5.268,1.954
	c-0.841-1.093-1.974-1.908-3.306-2.254c-0.947-0.245-1.913,0.354-2.151,1.344c-0.237,0.989,0.34,1.991,1.29,2.238
	c1.071,0.278,2.153,1.496,2.153,3.284v19.061c0,1.02,0.795,1.846,1.774,1.846s1.773-0.826,1.773-1.846V20.921
	c0-2.093,2.29-2.874,3.733-2.874c0.942,0,1.817,0.275,2.4,0.753c0.604,0.495,0.896,1.188,0.896,2.12v19.061
	c0,1.02,0.795,1.846,1.774,1.846s1.773-0.826,1.773-1.846V20.921c0-2.093,2.287-2.874,3.729-2.874c0.941,0,1.814,0.275,2.398,0.753
	c0.602,0.495,0.895,1.188,0.895,2.121l-0.041,9.849c0,4.489,1.697,9.261,4.564,12.642c-1.137,0.569-2.408,0.896-3.803,0.896
	c-0.98,0-1.773,0.827-1.773,1.846c0,1.021,0.793,1.847,1.773,1.847c2.547,0,4.77-0.749,6.652-1.987C44.84,47.26,46.934,48,49.227,48
	C50.205,48,51,47.174,51,46.153C51,45.135,50.205,44.308,49.227,44.308z M39.193,31.593v-1.577c0.092-1.473,0.439-2.745,1.029-3.611
	c0.68-0.996,1.648-1.479,2.961-1.479c1.264,0,2.203,0.475,2.865,1.451c0.686,1.004,1.061,2.537,1.061,4.313
	c0,3.383-1.414,7.685-4.076,10.539C40.744,38.635,39.393,34.846,39.193,31.593z"/>
</svg>
