<?xml version="1.0" encoding="utf-8"?>
<!-- Generator: Adobe Illustrator 15.0.0, SVG Export Plug-In . SVG Version: 6.00 Build 0)  -->
<!DOCTYPE svg PUBLIC "-//W3C//DTD SVG 1.1//EN" "http://www.w3.org/Graphics/SVG/1.1/DTD/svg11.dtd">
<svg version="1.1" id="Layer_1" xmlns="http://www.w3.org/2000/svg" xmlns:xlink="http://www.w3.org/1999/xlink" x="0px" y="0px"
	 width="64px" height="64px" viewBox="0 0 64 64" enable-background="new 0 0 64 64" xml:space="preserve">
<path fill="#AA5BEF" d="M62,50c0,6.601-5.4,12-12,12H14c-6.6,0-12-5.399-12-12V14c0-6.601,5.4-12,12-12h36c6.6,0,12,5.399,12,12V50z
	"/>
<path fill="#8D40CF" d="M56.838,4.162C58.197,6.105,59,8.462,59,11v37c0,6.601-4.398,11-11,11H11c-2.537,0-4.895-0.804-6.838-2.162
	C6.336,59.95,9.938,62,14,62h36c6.602,0,12-5.399,12-12V14C62,9.938,59.951,6.336,56.838,4.162z"/>
<path fill-rule="evenodd" clip-rule="evenodd" fill="#C28FEF" d="M4.975,12.585c0.338,2.703,4.793-2.587,9.303-7.136
	C17.188,2.524,3.958,4.45,4.975,12.585z"/>
<path fill="#FFFFFF" d="M48.789,45.36H13.21C11.759,45.36,11,46.527,11,47.68c0,1.153,0.76,2.32,2.211,2.32h35.579
	C50.24,50,51,48.833,51,47.68C51,46.527,50.24,45.36,48.789,45.36z"/>
<path fill="#FFFFFF" d="M13.187,41.501h13.701c1.236,0,2.24-1.03,2.24-2.357c0-0.723-0.395-1.643-1.152-2.005
	c-5.293-2.518-6.631-8.479-5.637-12.954c0.813-3.647,3.512-7.545,8.66-7.545c4.727,0,7.586,4.096,8.684,7.928
	c1.521,5.31-1.738,10.245-5.744,12.379c-0.674,0.361-1.131,1.161-1.131,1.993v0.204c0,1.265,1.008,2.292,2.243,2.292h13.76
	c1.436,0,2.188-1.154,2.188-2.293s-0.752-2.293-2.188-2.293h-8.094c1.014-1.158,1.906-2.295,2.111-2.673
	c1.395-2.577,1.961-6.201,1.449-9.233C42.949,17.081,37.738,12,31,12c-6.76,0-11.928,5.703-13.541,11.335
	c-0.834,2.912-0.58,6.671,0.65,9.577c0.576,1.367,1.219,2.791,2.201,4.001h-7.123c-1.436,0-2.186,1.153-2.186,2.294
	S11.751,41.501,13.187,41.501z"/>
</svg>
