<?xml version="1.0" encoding="utf-8"?>
<!-- Generator: Adobe Illustrator 15.0.0, SVG Export Plug-In . SVG Version: 6.00 Build 0)  -->
<!DOCTYPE svg PUBLIC "-//W3C//DTD SVG 1.1//EN" "http://www.w3.org/Graphics/SVG/1.1/DTD/svg11.dtd">
<svg version="1.1" id="Layer_1" xmlns="http://www.w3.org/2000/svg" xmlns:xlink="http://www.w3.org/1999/xlink" x="0px" y="0px"
	 width="64px" height="64px" viewBox="0 0 64 64" enable-background="new 0 0 64 64" xml:space="preserve">
<path fill="#AA5BEF" d="M62,50c0,6.602-5.4,12-12,12H14C7.4,62,2,56.602,2,50V14C2,7.399,7.4,2,14,2h36c6.6,0,12,5.399,12,12V50z"/>
<path fill="#8D40CF" d="M56.838,4.162C58.197,6.105,59,8.462,59,11v37c0,6.602-4.398,11-10.998,11H11
	c-2.538,0-4.895-0.803-6.838-2.162C6.336,59.951,9.938,62,14,62h36c6.602,0,12-5.398,12-12V14C62,9.938,59.951,6.336,56.838,4.162z"
	/>
<path fill-rule="evenodd" clip-rule="evenodd" fill="#C28FEF" d="M4.975,12.585c0.338,2.703,4.793-2.587,9.303-7.136
	C17.188,2.524,3.957,4.45,4.975,12.585z"/>
<path fill="#FFFFFF" d="M51.212,41.881c0,0-3.176-3.268-4.243-4.363c-1.912-1.969-4.464,0.656-2.551,2.625
	c0.344,0.354,0.906,0.932,1.51,1.555c-2.552,0.006-4.93,0.178-5.256-3.537V20.961c0-2.059-0.811-3.852-2.284-5.048
	c-1.234-1.003-2.895-1.555-4.673-1.555c-1.997,0-4.062,0.719-5.502,2.094c-0.18-0.189-0.37-0.372-0.576-0.539
	c-1.236-1.003-2.896-1.555-4.676-1.555c-1.933,0-3.925,0.676-5.357,1.964c-0.855-1.1-2.007-1.918-3.362-2.267
	c-0.964-0.247-1.945,0.355-2.188,1.351s0.347,2.003,1.313,2.251c1.089,0.28,2.189,1.505,2.189,3.304v19.168
	c0,1.025,0.808,1.857,1.804,1.857s1.805-0.832,1.805-1.857V20.961c0-2.105,2.329-2.891,3.797-2.891c0.958,0,1.848,0.276,2.442,0.759
	c0.614,0.497,0.912,1.195,0.912,2.132v19.168c0,1.025,0.808,1.857,1.804,1.857s1.805-0.832,1.805-1.857V20.961
	c0-2.105,2.326-2.891,3.792-2.891c0.957,0,1.846,0.276,2.438,0.758c0.613,0.497,0.91,1.195,0.91,2.133l-0.041,16.281
	c0,7.141,2.808,8.121,8.633,8.162c-0.497,0.512-0.947,0.975-1.237,1.275c-1.914,1.967,0.639,4.594,2.551,2.623
	c1.067-1.096,4.243-4.363,4.243-4.363C52.263,43.857,52.263,42.963,51.212,41.881z"/>
</svg>
