<?xml version="1.0" encoding="utf-8"?>
<!-- Generator: Adobe Illustrator 15.0.0, SVG Export Plug-In . SVG Version: 6.00 Build 0)  -->
<!DOCTYPE svg PUBLIC "-//W3C//DTD SVG 1.1//EN" "http://www.w3.org/Graphics/SVG/1.1/DTD/svg11.dtd">
<svg version="1.1" id="Layer_1" xmlns="http://www.w3.org/2000/svg" xmlns:xlink="http://www.w3.org/1999/xlink" x="0px" y="0px"
	 width="64px" height="64px" viewBox="0 0 64 64" enable-background="new 0 0 64 64" xml:space="preserve">
<path fill="#AA5BEF" d="M62,50c0,6.601-5.4,12-12,12H14c-6.6,0-12-5.399-12-12V14c0-6.601,5.4-12,12-12h36c6.6,0,12,5.399,12,12V50z
	"/>
<path fill="#8D40CF" d="M56.838,4.162C58.197,6.105,59,8.462,59,11v37c0,6.601-4.398,11-11,11H11c-2.537,0-4.895-0.804-6.838-2.162
	C6.336,59.95,9.938,62,14,62h36c6.602,0,12-5.399,12-12V14C62,9.938,59.951,6.336,56.838,4.162z"/>
<path fill-rule="evenodd" clip-rule="evenodd" fill="#C28FEF" d="M4.975,12.585c0.338,2.703,4.793-2.587,9.303-7.136
	C17.188,2.524,3.958,4.45,4.975,12.585z"/>
<path fill="#FFFFFF" d="M50.988,13.226c-0.072-1.185-1.025-2.138-2.223-2.211L31.005,11c-1.518,0-2.311,1.192-2.311,2.369
	c0,1.176,0.793,2.368,2.311,2.368h11.909L22.193,36.464l-7.14-7.14c-0.454-0.458-1.011-0.699-1.604-0.699
	c-0.952,0-1.882,0.646-2.266,1.57c-0.357,0.867-0.163,1.793,0.521,2.479l7.14,7.141l-7.215,7.227
	c-0.668,0.729-0.808,1.682-0.398,2.488c0.324,0.867,1.08,1.411,2.006,1.457l0.177,0.009c0.163,0,0.327-0.018,0.394-0.045
	l0.175-0.026c0.102-0.028,0.204-0.059,0.298-0.098c0.121-0.048,0.228-0.104,0.377-0.199c0.13-0.084,0.239-0.172,0.341-0.271
	l7.196-7.194l7.137,7.14C29.787,50.758,30.342,51,30.937,51c0.949,0,1.882-0.646,2.262-1.57c0.359-0.867,0.166-1.793-0.52-2.479
	l-7.137-7.137l20.721-20.727v11.911c0,3.035,4.736,3.035,4.736,0V13.365L50.988,13.226z"/>
</svg>
