<?xml version="1.0" encoding="utf-8"?>
<!-- Generator: Adobe Illustrator 15.0.0, SVG Export Plug-In . SVG Version: 6.00 Build 0)  -->
<!DOCTYPE svg PUBLIC "-//W3C//DTD SVG 1.1//EN" "http://www.w3.org/Graphics/SVG/1.1/DTD/svg11.dtd">
<svg version="1.1" id="Layer_1" xmlns="http://www.w3.org/2000/svg" xmlns:xlink="http://www.w3.org/1999/xlink" x="0px" y="0px"
	 width="64px" height="64px" viewBox="0 0 64 64" enable-background="new 0 0 64 64" xml:space="preserve">
<path fill="#AA5BEF" d="M62,50c0,6.601-5.4,12-12,12H14c-6.6,0-12-5.399-12-12V14c0-6.601,5.4-12,12-12h36c6.6,0,12,5.399,12,12V50z
	"/>
<path fill="#8D40CF" d="M56.838,4.162C58.197,6.105,59,8.462,59,11v37c0,6.601-4.398,11-11,11H11c-2.537,0-4.895-0.804-6.838-2.162
	C6.336,59.95,9.938,62,14,62h36c6.602,0,12-5.399,12-12V14C62,9.938,59.951,6.336,56.838,4.162z"/>
<path fill-rule="evenodd" clip-rule="evenodd" fill="#C28FEF" d="M4.975,12.585c0.338,2.703,4.793-2.587,9.303-7.136
	C17.188,2.524,3.958,4.45,4.975,12.585z"/>
<path fill="#FFFFFF" d="M41.801,33.259c-2.107,0-4.043,0.686-5.594,1.827V19.975c0-3.505-2.643-7.565-8.239-7.565
	c-2.285,0-4.643,0.774-6.338,2.251c-1.012-1.26-2.375-2.198-3.979-2.598c-1.141-0.282-2.303,0.408-2.588,1.548
	c-0.285,1.14,0.408,2.294,1.551,2.579c1.291,0.321,2.592,1.723,2.592,3.784v21.962c0,1.176,0.957,2.127,2.135,2.127
	c1.18,0,2.135-0.951,2.135-2.127V19.975c0-2.412,2.756-3.311,4.492-3.311c1.74,0,3.969,1.195,3.969,3.311v23.86
	c0,2.823-1.713,4.102-3.484,4.102c-2.852,0-2.852,4.063,0,4.063c2.637,0,5.297-1.304,6.711-3.843
	c1.676,1.672,4.025,2.719,6.637,2.719c5.082,0,9.199-3.944,9.199-8.809C51,37.202,46.883,33.259,41.801,33.259z M41.801,47.179
	c-2.947,0-5.338-2.289-5.338-5.111c0-2.824,2.391-5.113,5.338-5.113c2.949,0,5.34,2.289,5.34,5.113
	C47.141,44.89,44.75,47.179,41.801,47.179z"/>
</svg>
