<?xml version="1.0" encoding="utf-8"?>
<!-- Generator: Adobe Illustrator 15.0.0, SVG Export Plug-In . SVG Version: 6.00 Build 0)  -->
<!DOCTYPE svg PUBLIC "-//W3C//DTD SVG 1.1//EN" "http://www.w3.org/Graphics/SVG/1.1/DTD/svg11.dtd">
<svg version="1.1" id="Layer_1" xmlns="http://www.w3.org/2000/svg" xmlns:xlink="http://www.w3.org/1999/xlink" x="0px" y="0px"
	 width="64px" height="64px" viewBox="0 0 64 64" enable-background="new 0 0 64 64" xml:space="preserve">
<path fill="#AA5BEF" d="M62,50c0,6.601-5.4,12-12,12H14C7.4,62,2,56.601,2,50V14C2,7.399,7.4,2,14,2h36c6.6,0,12,5.399,12,12V50z"/>
<path fill="#8D40CF" d="M56.838,4.162C58.197,6.105,59,8.462,59,11v37c0,6.601-4.398,11-11,11H11c-2.537,0-4.895-0.804-6.838-2.162
	C6.336,59.95,9.938,62,14,62h36c6.602,0,12-5.399,12-12V14C62,9.938,59.951,6.336,56.838,4.162z"/>
<path fill-rule="evenodd" clip-rule="evenodd" fill="#C28FEF" d="M4.975,12.585c0.338,2.703,4.793-2.587,9.303-7.136
	C17.188,2.524,3.957,4.45,4.975,12.585z"/>
<path fill="#FFFFFF" d="M48.947,16c-0.37,0-0.726,0.123-1.026,0.353l-8.941,6.797v-5.02c0-1.114-0.977-2.129-2.052-2.129
	c-0.37,0-0.727,0.123-1.029,0.353l-8.938,6.797v-5.02c0-1.114-0.978-2.129-2.054-2.129c-0.368,0-0.725,0.123-1.027,0.353
	l-12.019,9.141c-0.762,0.578-1.05,1.563-0.735,2.509c0.288,0.865,0.996,1.446,1.767,1.446c0.382,0,0.753-0.135,1.102-0.4
	l8.937-6.797v5.02c0,1.114,0.979,2.129,2.055,2.129c0.369,0,0.726-0.122,1.027-0.353l8.937-6.797v5.02
	c0,1.114,0.979,2.129,2.057,2.129c0.367,0,0.724-0.122,1.026-0.353l8.938-6.797v5.02c0,2.685,4.03,2.685,4.03,0v-9.143
	C51,17.016,50.021,16,48.947,16z"/>
<path fill="#FFFFFF" d="M48.947,32.551c-0.37,0-0.726,0.123-1.026,0.354L38.979,39.7v-5.02c0-1.114-0.977-2.13-2.052-2.13
	c-0.37,0-0.727,0.123-1.029,0.354L26.961,39.7v-5.02c0-1.114-0.978-2.13-2.054-2.13c-0.368,0-0.725,0.123-1.027,0.354l-12.019,9.14
	c-0.762,0.577-1.05,1.563-0.735,2.509C11.414,45.418,12.122,46,12.893,46c0.382,0,0.753-0.135,1.102-0.4l8.937-6.797v5.02
	c0,1.115,0.979,2.13,2.055,2.13c0.369,0,0.726-0.122,1.027-0.353l8.937-6.797v5.02c0,1.115,0.979,2.13,2.057,2.13
	c0.367,0,0.724-0.122,1.026-0.353l8.938-6.797v5.02c0,2.686,4.03,2.686,4.03,0v-9.142C51,33.566,50.021,32.551,48.947,32.551z"/>
</svg>
