<?xml version="1.0" encoding="utf-8"?>
<!-- Generator: Adobe Illustrator 15.0.0, SVG Export Plug-In . SVG Version: 6.00 Build 0)  -->
<!DOCTYPE svg PUBLIC "-//W3C//DTD SVG 1.1//EN" "http://www.w3.org/Graphics/SVG/1.1/DTD/svg11.dtd">
<svg version="1.1" id="Layer_1" xmlns="http://www.w3.org/2000/svg" xmlns:xlink="http://www.w3.org/1999/xlink" x="0px" y="0px"
	 width="64px" height="64px" viewBox="0 0 64 64" enable-background="new 0 0 64 64" xml:space="preserve">
<path fill="#AA5BEF" d="M62,50c0,6.601-5.4,12-12,12H14c-6.6,0-12-5.399-12-12V14c0-6.601,5.4-12,12-12h36c6.6,0,12,5.399,12,12V50z
	"/>
<path fill="#8D40CF" d="M56.838,4.162C58.197,6.105,59,8.462,59,11v37c0,6.601-4.398,11-11,11H11c-2.537,0-4.895-0.804-6.838-2.162
	C6.336,59.95,9.938,62,14,62h36c6.602,0,12-5.399,12-12V14C62,9.938,59.951,6.336,56.838,4.162z"/>
<path fill-rule="evenodd" clip-rule="evenodd" fill="#C28FEF" d="M4.975,12.585c0.338,2.703,4.793-2.587,9.303-7.136
	C17.188,2.524,3.958,4.45,4.975,12.585z"/>
<path fill="#FFFFFF" d="M40.064,34.327h6.578c1.547,0,2.357-1.172,2.357-2.331c0-1.158-0.811-2.331-2.357-2.331h-6.578
	c0.662-5.165,3.434-9.778,7.855-13.045c0.893-0.66,1.223-1.728,0.857-2.787c-0.506-1.466-2.164-2.091-3.412-1.163
	c-5.832,4.306-9.398,10.324-10.088,16.995h-6.219c-0.707-6.846-4.41-12.954-10.467-17.249c-1.281-0.907-2.947-0.259-3.438,1.213
	c-0.35,1.054-0.006,2.107,0.9,2.75c4.631,3.283,7.527,7.982,8.203,13.287h-6.898c-1.551,0-2.359,1.172-2.359,2.331
	c0,1.159,0.809,2.331,2.359,2.331h6.902c-0.678,5.291-3.561,9.982-8.172,13.264c-0.904,0.645-1.248,1.697-0.895,2.752
	c0.33,0.99,1.18,1.657,2.117,1.657c0.455,0,0.898-0.151,1.314-0.448c6.037-4.292,9.725-10.393,10.43-17.225h6.219
	c0.691,6.67,4.258,12.688,10.09,16.992c0.418,0.311,0.863,0.467,1.324,0.467c0.914,0,1.754-0.655,2.088-1.631
	c0.365-1.057,0.035-2.125-0.857-2.783C43.498,44.106,40.727,39.493,40.064,34.327z"/>
</svg>
