<?xml version="1.0" encoding="utf-8"?>
<!-- Generator: Adobe Illustrator 15.0.0, SVG Export Plug-In . SVG Version: 6.00 Build 0)  -->
<!DOCTYPE svg PUBLIC "-//W3C//DTD SVG 1.1//EN" "http://www.w3.org/Graphics/SVG/1.1/DTD/svg11.dtd">
<svg version="1.1" id="Layer_1" xmlns="http://www.w3.org/2000/svg" xmlns:xlink="http://www.w3.org/1999/xlink" x="0px" y="0px"
	 width="64px" height="64px" viewBox="0 0 64 64" enable-background="new 0 0 64 64" xml:space="preserve">
<path fill="#302C3B" d="M57,32.781C57,20.726,32,7,32,7S7,20.726,7,32.781c0,7.146,6.021,13.281,13.281,13.281
	c3.495,0,6.604-1.348,8.917-3.535l-0.323,2.754c-0.421,2.991-2.495,5.727-5.469,6.25L19.5,52.313V57h25v-4.688l-3.906-0.781
	c-2.976-0.523-5.049-3.258-5.469-6.25L34.8,42.527c2.313,2.188,5.424,3.535,8.919,3.535C50.978,46.063,57,39.928,57,32.781z"/>
<polygon fill="#1A1626" points="42.5,56 19.5,56 19.5,57 44.5,57 44.5,52.313 42.5,51.912 "/>
<path fill="#1A1626" d="M13.515,44.132c5.827,3.681,12.306,1.743,15.684-1.604v-1.674C26.092,44.958,17.779,46.135,13.515,44.132z"
	/>
<path fill="#1A1626" d="M33.125,44.281c0.392,2.793,2.235,5.337,4.897,6.092c-1.563-1.184-2.613-3.069-2.897-5.092L34.8,42.527
	c0,0-1.118-1.076-1.75-1.674L33.125,44.281z"/>
<path fill="#1A1626" d="M32,7c0,0-0.058,0.032-0.14,0.078C37.645,10.533,55,21.733,55,31.781c0,7.146-6.022,13.281-13.281,13.281
	c-1.694,0-3.296-0.322-4.763-0.898c1.957,1.197,4.258,1.898,6.763,1.898C50.978,46.063,57,39.928,57,32.781C57,20.726,32,7,32,7z"/>
<path fill-rule="evenodd" clip-rule="evenodd" fill="#4E5E67" d="M9.951,28.059c-1.27,2.873,7.724-5.074,19.554-17.023
	C33.066,7.438,13.671,19.642,9.951,28.059z"/>
</svg>
