<?xml version="1.0" encoding="utf-8"?>
<!-- Generator: Adobe Illustrator 15.0.0, SVG Export Plug-In . SVG Version: 6.00 Build 0)  -->
<!DOCTYPE svg PUBLIC "-//W3C//DTD SVG 1.1//EN" "http://www.w3.org/Graphics/SVG/1.1/DTD/svg11.dtd">
<svg version="1.1" id="Layer_1" xmlns="http://www.w3.org/2000/svg" xmlns:xlink="http://www.w3.org/1999/xlink" x="0px" y="0px"
	 width="64px" height="64px" viewBox="0 0 64 64" enable-background="new 0 0 64 64" xml:space="preserve">
<path fill="#302C3B" d="M44.5,21.063c-0.036,0-0.071,0.006-0.107,0.006c0.063-0.516,0.107-1.035,0.107-1.568
	C44.5,12.597,38.904,7,32,7c-6.902,0-12.5,5.597-12.5,12.5c0,0.533,0.046,1.053,0.109,1.568c-0.038,0-0.072-0.006-0.109-0.006
	c-6.902,0-12.5,5.597-12.5,12.5s5.598,12.5,12.5,12.5c4.007,0,7.563-1.893,9.851-4.823l-0.476,4.042
	c-0.42,2.99-2.493,5.727-5.469,6.25L19.5,52.313V57h25v-4.688l-3.906-0.781c-2.974-0.523-5.047-3.258-5.469-6.25l-0.476-4.042
	c2.289,2.931,5.845,4.823,9.851,4.823c6.904,0,12.5-5.597,12.5-12.5S51.404,21.063,44.5,21.063z"/>
<path fill="#1A1626" d="M43.289,21.26c0.469-0.141,1.104-0.191,1.104-0.191c1.037-6.184-3.194-11.384-7.848-13.203
	C40.113,10.065,44.133,15.729,43.289,21.26z"/>
<path fill="#1A1626" d="M33.125,39.354v4.928c0.394,2.793,2.409,5.489,5.07,6.244c-1.562-1.184-2.785-3.222-3.07-5.244l-0.476-4.042
	C34.649,41.239,33.633,40.15,33.125,39.354z"/>
<polygon fill="#1A1626" points="42.5,56 19.5,56 19.5,57 44.5,57 44.5,52.313 42.5,51.912 "/>
<path fill="#1A1626" d="M29.351,41.239c0,0,0.11-0.933,0-1.886c-2.796,4.938-10.28,7.953-16.395,4.844
	C17.086,47.025,24.617,47.338,29.351,41.239z"/>
<path fill="#1A1626" d="M49.045,21.928C52.613,24.128,55,28.062,55,32.563c0,6.903-5.596,12.5-12.5,12.5
	c-1.603,0-3.127-0.314-4.533-0.865c1.901,1.175,4.133,1.865,6.533,1.865c6.904,0,12.5-5.597,12.5-12.5
	C57,28.265,53.698,23.747,49.045,21.928z"/>
<path fill-rule="evenodd" clip-rule="evenodd" fill="#4E5E67" d="M9.419,30.254c-0.363,2.309,0.615-3.22,9.1-6.748
	C21.822,22.132,10.836,21.26,9.419,30.254z"/>
<path fill-rule="evenodd" clip-rule="evenodd" fill="#4E5E67" d="M21.752,16.087c-0.363,2.309,0.615-3.22,9.1-6.748
	C34.155,7.965,23.169,7.093,21.752,16.087z"/>
</svg>
