<?xml version="1.0" encoding="utf-8"?>
<!-- Generator: Adobe Illustrator 15.0.0, SVG Export Plug-In . SVG Version: 6.00 Build 0)  -->
<!DOCTYPE svg PUBLIC "-//W3C//DTD SVG 1.1//EN" "http://www.w3.org/Graphics/SVG/1.1/DTD/svg11.dtd">
<svg version="1.1" id="Layer_1" xmlns="http://www.w3.org/2000/svg" xmlns:xlink="http://www.w3.org/1999/xlink" x="0px" y="0px"
	 width="64px" height="64px" viewBox="0 0 64 64" enable-background="new 0 0 64 64" xml:space="preserve">
<path fill="#E81C27" d="M32,14.327C24.837,1.394,5,6.448,5,22.697C5,33.607,14.147,40.904,32,57c17.853-16.096,27-23.393,27-34.303
	C59,6.448,39.165,1.394,32,14.327z"/>
<path fill="#C21413" d="M31.2,15.942c0.28-0.729,0.8-1.615,0.8-1.615c-1.953-3.641-4.816-5.217-4.816-5.217
	C30.202,12.218,31.2,15.942,31.2,15.942z"/>
<path fill="#C21413" d="M47.695,7.448c3.906,2.578,6.735,7.114,6.735,13.249c0,9.936-10.35,21.474-19.968,31.287
	c-3.012,3.071-2.463,2.687-11.055-2.713C24.503,50.254,30.83,55.944,32,57c17.853-16.096,27-23.393,27-34.303
	C59,14.348,53.76,8.964,47.695,7.448z"/>
<path fill-rule="evenodd" clip-rule="evenodd" fill="#F46C60" d="M8.225,20.33c0.44,3.445,6.244-3.295,12.119-9.091
	C24.136,7.514,6.898,9.966,8.225,20.33z"/>
<path fill-rule="evenodd" clip-rule="evenodd" fill="#F46C60" d="M34.293,15.602c0.257,2.016,3.652-1.926,7.09-5.316
	C43.602,8.105,33.517,9.539,34.293,15.602z"/>
</svg>
