<?xml version="1.0" encoding="utf-8"?>
<!-- Generator: Adobe Illustrator 15.0.0, SVG Export Plug-In . SVG Version: 6.00 Build 0)  -->
<!DOCTYPE svg PUBLIC "-//W3C//DTD SVG 1.1//EN" "http://www.w3.org/Graphics/SVG/1.1/DTD/svg11.dtd">
<svg version="1.1" id="Layer_1" xmlns="http://www.w3.org/2000/svg" xmlns:xlink="http://www.w3.org/1999/xlink" x="0px" y="0px"
	 width="64px" height="64px" viewBox="0 0 64 64" enable-background="new 0 0 64 64" xml:space="preserve">
<path fill="#E81C27" d="M51.381,32c3.332,2.416,5.336,5.462,5.336,8.78c0,7.828-11.066,14.175-24.717,14.175
	c-13.648,0-24.715-6.347-24.715-14.175c0-3.318,2.004-6.364,5.334-8.778C6.131,35.123,2,39.775,2,44.98C2,54.381,15.432,62,32,62
	c16.57,0,30-7.619,30-17.02C62,39.775,57.869,35.123,51.381,32z"/>
<path fill="#F46C60" d="M28.832,59.703C14.473,58.877,3.271,51.695,3.271,43.002c0-0.881-0.732,0.266-0.732,1.788
	c0,8.515,11.707,15.417,26.147,15.417C30.975,60.207,30.357,59.791,28.832,59.703z"/>
<path fill="#C21413" d="M12.619,32.002c-2.663,1.281-4.921,2.823-6.667,4.553c-0.424,1.037-0.667,2.114-0.667,3.226
	c0,4.536,3.721,8.571,9.501,11.166c-4.624-2.575-7.501-6.177-7.501-10.166C7.285,37.462,9.289,34.416,12.619,32.002z"/>
<path fill="#C21413" d="M51.381,32c0.096,0.069,0.179,0.144,0.271,0.214C56.817,35.271,60,39.412,60,43.98C60,53.381,46.57,61,30,61
	c-7.114,0-13.646-1.407-18.789-3.755C16.604,60.188,23.927,62,32,62c16.57,0,30-7.619,30-17.02C62,39.775,57.869,35.123,51.381,32z"
	/>
<path fill="#E81C27" d="M32.761,2c-7.404,20.301,13.21,22-3.465,44C36.108,25.843,16.221,20.952,32.761,2z"/>
<path fill="#E81C27" d="M18.761,2c-7.404,20.301,13.21,22-3.465,44C22.108,25.843,2.221,20.952,18.761,2z"/>
<path fill="#E81C27" d="M46.761,2c-7.404,20.301,13.21,22-3.465,44C50.108,25.843,30.221,20.952,46.761,2z"/>
<path fill="#C21413" d="M46.761,2c-9.028,17.11,7.391,23.038-2.307,39.336c-0.234,1.466-0.599,3.009-1.158,4.664
	C59.971,24,39.356,22.301,46.761,2z"/>
<path fill="#C21413" d="M18.761,2c-9.028,17.11,7.391,23.038-2.307,39.336c-0.234,1.466-0.599,3.009-1.158,4.664
	C31.971,24,11.356,22.301,18.761,2z"/>
<path fill="#C21413" d="M32.761,2c-9.028,17.11,7.391,23.038-2.307,39.336c-0.234,1.466-0.599,3.009-1.158,4.664
	C45.971,24,25.356,22.301,32.761,2z"/>
<path fill="#F46C60" d="M14.334,9.344c-4.094,7,0.136,15.052,0.136,15.052S11.857,16.344,14.334,9.344z"/>
<path fill="#F46C60" d="M28.334,9.344c-4.094,7,0.136,15.052,0.136,15.052S25.857,16.344,28.334,9.344z"/>
<path fill="#F46C60" d="M42.334,9.344c-4.094,7,0.136,15.052,0.136,15.052S39.857,16.344,42.334,9.344z"/>
</svg>
