<?xml version="1.0" encoding="utf-8"?>
<!-- Generator: Adobe Illustrator 15.0.0, SVG Export Plug-In . SVG Version: 6.00 Build 0)  -->
<!DOCTYPE svg PUBLIC "-//W3C//DTD SVG 1.1//EN" "http://www.w3.org/Graphics/SVG/1.1/DTD/svg11.dtd">
<svg version="1.1" id="Layer_1" xmlns="http://www.w3.org/2000/svg" xmlns:xlink="http://www.w3.org/1999/xlink" x="0px" y="0px"
	 width="64px" height="64px" viewBox="0 0 64 64" enable-background="new 0 0 64 64" xml:space="preserve">
<path fill="#529320" d="M17.176,56.474h13.277V41.055H11.626c0,0-0.641,5.389-0.685,7.194
	C10.743,56.369,17.176,56.474,17.176,56.474z"/>
<path fill="#92C932" d="M20.285,34.582l6.096,3.52L18.35,23.863L2,24.027l6.098,3.518L3.205,36.02
	c-0.496,0.858-1.019,2.248-0.295,3.504l8.308,14.387c1.488,2.578,4.079,2.563,5.958,2.563c0,0-8.52-1.75-3.074-11.184L20.285,34.582
	z"/>
<path fill="#529320" d="M60.568,32.635l-6.64-11.499l-13.352,7.709L49.99,45.15c0,0,4.985-2.139,6.571-3.003
	C63.693,38.259,60.568,32.635,60.568,32.635z"/>
<path fill="#92C932" d="M40.055,40.887v-7.035L31.74,47.925L40.057,62v-7.039h9.781c0.992,0,2.459-0.243,3.183-1.497l8.306-14.387
	c1.488-2.58,0.181-4.815-0.758-6.442c0,0,2.742,8.252-8.148,8.252L40.055,40.887z"/>
<path fill="#529320" d="M18.898,5.878l-6.641,11.499l13.354,7.709L35.026,8.78c0,0-4.347-3.248-5.887-4.188
	C22.204,0.361,18.898,5.878,18.898,5.878z"/>
<path fill="#92C932" d="M36.3,19.518l-6.094,3.52l16.347,0.161l8.031-14.24l-6.096,3.521l-4.891-8.472
	C43.102,3.148,42.157,2,40.71,2H24.097c-2.979,0-4.261,2.252-5.198,3.878c0,0,5.773-6.502,11.221,2.93L36.3,19.518z"/>
</svg>
