<?xml version="1.0" encoding="utf-8"?>
<!-- Generator: Adobe Illustrator 15.0.0, SVG Export Plug-In . SVG Version: 6.00 Build 0)  -->
<!DOCTYPE svg PUBLIC "-//W3C//DTD SVG 1.1//EN" "http://www.w3.org/Graphics/SVG/1.1/DTD/svg11.dtd">
<svg version="1.1" id="Layer_1" xmlns="http://www.w3.org/2000/svg" xmlns:xlink="http://www.w3.org/1999/xlink" x="0px" y="0px"
	 width="64px" height="64px" viewBox="0 0 64 64" enable-background="new 0 0 64 64" xml:space="preserve">
<path fill="#006DAE" d="M62,50c0,6.6-5.4,12-12,12H14C7.4,62,2,56.6,2,50V14C2,7.399,7.4,2,14,2h36c6.6,0,12,5.399,12,12V50z"/>
<path fill="#014D87" d="M56.838,4.162C58.197,6.105,59,8.462,59,11v37c0,6.6-4.398,11-11,11H11c-2.537,0-4.895-0.805-6.838-2.162
	C6.336,59.949,9.938,62,14,62h36c6.602,0,12-5.4,12-12V14C62,9.938,59.951,6.336,56.838,4.162z"/>
<path fill-rule="evenodd" clip-rule="evenodd" fill="#0FB4D4" d="M4.975,12.585c0.338,2.703,4.793-2.587,9.303-7.136
	C17.188,2.524,3.957,4.45,4.975,12.585z"/>
<path fill="#FFFFFF" d="M46.023,44.453c-0.397,0.082-1.59,0.307-1.59,0.307l-2.909-7.566c-0.354-0.934-1.461-1.699-2.455-1.699
	h-5.202l-0.745-4.657h4.886c2.608,0,2.607-3.772,0.002-3.695l-5.426,0.014c0,0,0,0-0.332-2.161c-0.612-3.983-6.791-3.17-6.2,0.739
	c0.763,5.054,1.304,8.219,1.941,12.599c0.145,0.991,0.814,1.82,1.81,1.82h8.758l2.821,6.871c0.335,0.942,1.39,1.485,2.344,1.204
	l2.973-0.875C48.848,46.721,48.134,44.018,46.023,44.453z"/>
<ellipse fill="#FFFFFF" cx="28.737" cy="16.55" rx="4.522" ry="4.55"/>
<path fill="#FFFFFF" d="M30.824,47.707c-4.714,0-8.547-3.854-8.547-8.59c0-2.313,0.915-4.416,2.4-5.961
	c0.935-0.972-0.486-5.251-2.073-3.917C19.794,31.604,18,35.154,18,39.117C18,46.222,23.755,52,30.824,52
	c2.979,0,5.721-1.025,7.899-2.744c1.977-1.559-0.251-5.611-2.002-3.932C35.188,46.799,33.11,47.707,30.824,47.707z"/>
</svg>
