<?xml version="1.0" encoding="utf-8"?>
<!-- Generator: Adobe Illustrator 15.0.0, SVG Export Plug-In . SVG Version: 6.00 Build 0)  -->
<!DOCTYPE svg PUBLIC "-//W3C//DTD SVG 1.1//EN" "http://www.w3.org/Graphics/SVG/1.1/DTD/svg11.dtd">
<svg version="1.1" id="Layer_1" xmlns="http://www.w3.org/2000/svg" xmlns:xlink="http://www.w3.org/1999/xlink" x="0px" y="0px"
	 width="64px" height="64px" viewBox="0 0 64 64" enable-background="new 0 0 64 64" xml:space="preserve">
<path fill="#B47D56" d="M7.347,11.154C6.52,11.977,6.526,13.32,7.35,14.143l47.234,47.244c0.829,0.82,2.18,0.816,3-0.002l2.995-3
	c0.829-0.822,0.829-2.174,0.002-2.995L13.347,8.149c-0.824-0.826-2.179-0.818-3.005,0.007L7.347,11.154z"/>
<path fill="#785647" d="M7.347,11.154C6.52,11.977,6.526,13.32,7.35,14.143l47.234,47.244c0.829,0.82,2.18,0.816,3-0.002
	l1.644-1.645L8.995,9.502L7.347,11.154z"/>
<rect x="17.165" y="20.056" transform="matrix(0.7067 -0.7075 0.7075 0.7067 -10.6183 20.4781)" fill="#45332C" width="4.452" height="5.982"/>
<rect x="20.375" y="17.057" transform="matrix(0.7075 -0.7067 0.7067 0.7075 -7.6178 21.6894)" fill="#785647" width="4.033" height="5.981"/>
<rect x="29.007" y="29.024" transform="matrix(0.707 -0.7072 0.7072 0.707 -15.5198 32.3078)" fill="#45332C" width="4.446" height="11.719"/>
<rect x="32.211" y="26.026" transform="matrix(0.7071 -0.7071 0.7071 0.7071 -12.5214 33.5422)" fill="#785647" width="4.035" height="11.719"/>
<path fill="#302C3B" d="M30.729,9.873c0.836,0.832,0.816,2.213-0.038,3.066L12.126,31.5c-0.855,0.852-2.229,0.869-3.062,0.035
	l-6.449-6.446c-0.834-0.835-0.817-2.212,0.034-3.067l18.567-18.56c0.854-0.853,2.233-0.868,3.068-0.034L30.729,9.873z"/>
<rect x="5.857" y="11.062" transform="matrix(0.7071 -0.7071 0.7071 0.7071 -6.801 17.1868)" fill="#4E5E67" width="22.98" height="11.484"/>
<polygon fill="#6E8189" points="30.211,12.065 28.854,13.414 20.731,5.292 22.086,3.942 "/>
<path fill="#B47D56" d="M54.586,7.922c-0.824-0.825-2.17-0.822-2.994,0.004L4.358,55.166c-0.822,0.83-0.818,2.178,0.002,2.999
	l2.998,2.999c0.822,0.828,2.173,0.826,2.996,0l47.237-47.239c0.822-0.823,0.817-2.179-0.005-3.007L54.586,7.922z"/>
<path fill="#785647" d="M54.586,7.922c-0.824-0.825-2.17-0.822-2.994,0.004L4.358,55.166c-0.822,0.83-0.818,2.178,0.002,2.999
	l1.646,1.647l50.23-50.241L54.586,7.922z"/>
<rect x="40.465" y="16.981" transform="matrix(0.7072 0.707 -0.707 0.7072 26.6192 -24.3357)" fill="#45332C" width="4.453" height="5.98"/>
<rect x="43.676" y="19.98" transform="matrix(0.7071 0.7071 -0.7071 0.7071 29.6251 -25.5809)" fill="#785647" width="4.031" height="5.981"/>
<path fill="#302C3B" d="M59.773,36.879c-0.834,0.834-2.396-1.038-3.463-2.107L33.958,12.409c-1.065-1.069-1.26-2.618-0.428-3.45
	l6.438-6.443c0.834-0.83,2.385-0.639,3.451,0.428l17.274,17.281c1.066,1.069,1.438,1.356,1.266,2.616
	C58.078,29.729,59.773,36.879,59.773,36.879z"/>
<polygon fill="#4E5E67" points="58.925,36.033 35.232,12.331 43.342,4.219 61.112,21.996 "/>
<polygon fill="#6E8189" points="59.773,36.879 56.389,33.492 58.575,19.453 61.96,22.842 "/>
</svg>
