<?xml version="1.0" encoding="utf-8"?>
<!-- Generator: Adobe Illustrator 16.2.0, SVG Export Plug-In . SVG Version: 6.00 Build 0)  -->
<!DOCTYPE svg PUBLIC "-//W3C//DTD SVG 1.1//EN" "http://www.w3.org/Graphics/SVG/1.1/DTD/svg11.dtd">
<svg version="1.1" id="Layer_1" xmlns="http://www.w3.org/2000/svg" xmlns:xlink="http://www.w3.org/1999/xlink" x="0px" y="0px"
	 width="64px" height="64px" viewBox="0 0 64 64" enable-background="new 0 0 64 64" xml:space="preserve">
<path fill="#99A8AE" d="M51.04,34c0,0,5.96,8,0.967,16c0,0-0.13-2.654-2.592-3.822C46.533,44.813,46,43,46,43S51.04,41.385,51.04,34
	z"/>
<path fill="#99A8AE" d="M12.962,34c0,0-5.962,8-0.969,16c0,0,0.13-2.654,2.594-3.822C17.468,44.813,18,43,18,43
	S12.962,41.385,12.962,34z"/>
<path fill="#99A8AE" d="M51.111,38c0,7.23-7.674,13-11.961,13c-2.258,0-4.377,0.472-4.15-4c-1-27-1-35-1-35h-4.058
	c0,0-0.814,25.248-0.942,35c-0.026,2-1.921,4-4.174,4c-5.053,0-11.962-5.77-11.962-13c0,0-2.362,9.88,5.803,16
	c5.999,4.497,8.062,3.08,13.322,8c5.26-4.92,7.322-3.503,13.322-8C53.475,47.88,51.111,38,51.111,38z"/>
<path fill="#CFD8DD" d="M52.137,38c0,6.584-9.131,12-13.137,12c-2.156,0-4.682-0.915-4.939-2.74l-0.56,0.865
	c0,0,0.853,5.875,5.649,5.875c7.93,0,12.445-4.948,13.649-9.688C52.936,41.794,52.137,38,52.137,38z"/>
<path fill="#99A8AE" d="M19,17v4c0,0,7,1,13,1s13-1,13-1v-4c0,0-7-1-13-1S19,17,19,17z"/>
<path fill="#99A8AE" d="M32,2c-3.313,0-6,2.687-6,6s2.687,6,6,6c3.313,0,6-2.687,6-6S35.313,2,32,2z M32,10c-1.104,0-2-0.896-2-2
	s0.896-2,2-2c1.104,0,2,0.896,2,2S33.104,10,32,10z"/>
<path fill="#6E8189" d="M52.137,38c0,0,0.28,8.938-8.893,14c-3.988,2.2-11.256,3.875-11.256,10c5.26-4.92,8.45-3.875,13.323-7
	C55.438,48.505,52.137,38,52.137,38z"/>
<path fill="#6E8189" d="M35.71,3.291C36.516,4.312,37,5.598,37,7c0,3.313-2.688,6-6,6c-1.402,0-2.688-0.485-3.709-1.291
	C28.389,13.103,30.088,14,32,14c3.313,0,6-2.687,6-6C38,6.088,37.104,4.389,35.71,3.291z"/>
<circle fill="#99A8AE" cx="45" cy="19" r="3"/>
<path fill="#6E8189" d="M45,20c-1.305,0-2.402-0.837-2.816-2C42.072,18.314,42,18.647,42,19c0,1.657,1.344,3,3,3s3-1.343,3-3
	c0-0.609-0.184-1-0.184-1C47.402,19.163,46.305,20,45,20z"/>
<circle fill="#99A8AE" cx="19" cy="19" r="3"/>
<path fill="#CFD8DD" d="M29.693,20c-0.25,8.256-0.611,20.778-0.693,27c-0.026,2-1.921,4-4.174,4c-1.133,0-2.359-0.304-3.58-0.836
	L20.732,52c0,0,11.268,5.583,11.268-5C32,22,29.693,20.002,29.693,20z"/>
<path fill="#6E8189" d="M19,20c-1.304,0-2.402-0.837-2.816-2C16.072,18.314,16,18.647,16,19c0,1.657,1.344,3,3,3s3-1.343,3-3
	c0-0.353-0.072-0.686-0.184-1C21.402,19.163,20.304,20,19,20z"/>
<path fill="#6E8189" d="M12.863,38c0,3.625,1.753,10.986,7.869,14C26.854,55.016,29,49.063,29,47c0,0-0.728,3-4,3
	C14.854,50,12.863,38,12.863,38z"/>
<path fill="#6E8189" d="M12.863,38c0,0,0.805,5,5.137,5c0,0,0,2-2.384,3.157C15.616,46.157,13.862,43.416,12.863,38z"/>
<path fill="#6E8189" d="M52.137,38c0,0,1.955,7.418-0.131,12c0,0-0.521-2.518-2.006-3.594C50,46.406,52.137,43.25,52.137,38z"/>
<path fill="#CFD8DD" d="M31.5,5L29,7.5C29,8,29.188,11,32,11C35.5,11,36.063,5,31.5,5z M32,10c-1.104,0-2-0.896-2-2s0.896-2,2-2
	c1.104,0,2,0.896,2,2S33.104,10,32,10z"/>
<path fill="#6E8189" d="M30,8c0-1.104,0.896-2,2-2c1.104,0,2,0.896,2,2c0-1.479-0.75-3-2.5-3C30,5,29,6.354,29,7.5
	c0,1.688,1,2.5,3,2.5C30.896,10,30,9.104,30,8z"/>
<path fill="#6E8189" d="M35.061,50L34.14,20c0,0-2.14,2-2.14,27c0,7.125,4.047,7,7,7C36.741,54,35.087,52,35.061,50z"/>
<path fill="#6E8189" d="M42.727,20c-3.979,0.82-8.587,0-8.587,0L34,22c3.688,0,7.945-0.643,9.727-0.869
	C43.2,20.441,42.727,20,42.727,20z"/>
<path fill="#6E8189" d="M21,20c0,0-0.474,0.441-1,1.131C21.781,21.357,25.944,22,29.632,22l0.061-2C29.693,20,24.978,20.82,21,20z"
	/>
<path fill="#CFD8DD" d="M32,16.5c-5.02-0.007-9.007,0.638-9,0.881c-0.007,0.257,3.979,0.017,9,0.024
	c5.022-0.007,9.007,0.233,9-0.024C41.007,17.138,37.021,16.493,32,16.5z"/>
</svg>
