<?xml version="1.0" encoding="utf-8"?>
<!-- Generator: Adobe Illustrator 15.0.0, SVG Export Plug-In . SVG Version: 6.00 Build 0)  -->
<!DOCTYPE svg PUBLIC "-//W3C//DTD SVG 1.1//EN" "http://www.w3.org/Graphics/SVG/1.1/DTD/svg11.dtd">
<svg version="1.1" id="Layer_1" xmlns="http://www.w3.org/2000/svg" xmlns:xlink="http://www.w3.org/1999/xlink" x="0px" y="0px"
	 width="64px" height="64px" viewBox="0 0 64 64" enable-background="new 0 0 64 64" xml:space="preserve">
<polygon fill="#CFD8DD" points="54.953,4.781 13.458,44.898 15.559,48.439 62,2 "/>
<polygon fill="#B2B6C2" points="19.102,50.542 15.559,48.439 62,2 59.221,9.048 "/>
<rect x="38.553" y="-3.699" transform="matrix(-0.7063 -0.7079 0.7079 -0.7063 48.4719 70.4219)" fill="#99A8AE" width="0.584" height="57.709"/>
<polygon fill="#99A8AE" points="30.705,38.541 32,37.201 26.888,31.914 "/>
<path fill="#E6EBEF" d="M15.445,46.488c-0.911,0.91,1.156,2.977,2.066,2.066C18.422,47.643,16.355,45.578,15.445,46.488z"/>
<path fill="#302C3B" d="M12.63,47.998l3.373,3.373c0,0-4.775,5.498-9.756,7.688l-1.308-1.307
	C7.917,52.625,12.63,47.998,12.63,47.998z"/>
<path fill="#4E5E67" d="M12.63,47.998c0,0-5.588,4.684-7.78,9.664l1.397,1.396C7.345,54.242,12.63,47.998,12.63,47.998z"/>
<circle fill="#BEC3CF" cx="4.484" cy="59.515" r="2.484"/>
<circle fill="#E81C27" cx="4.484" cy="59.515" r="1.242"/>
<rect x="14.752" y="42.743" transform="matrix(0.7073 -0.7069 0.7069 0.7073 -29.4838 25.259)" fill="#FFE12C" width="2.023" height="10.987"/>
<polygon fill="#FEEC9A" points="19.942,50.983 19.6,51.326 16.136,47.864 15.049,48.951 11.522,45.426 12.953,43.994 "/>
<path fill="#F9C802" d="M11.158,45.061l3.891,3.891l3.891,3.891c1.813,1.813,1.733,4.061,4.082,6.408
	c-2.879,0.065-6.363-5.832-9.403-8.87c-3.038-3.036-8.935-6.522-8.868-9.4C7.098,43.327,9.345,43.25,11.158,45.061z"/>
<polygon fill="#CFD8DD" points="50.542,44.898 48.441,48.439 2,2 9.047,4.781 "/>
<polygon fill="#B2B6C2" points="44.898,50.542 48.441,48.439 2,2 4.779,9.048 "/>
<rect x="24.863" y="-3.699" transform="matrix(0.7063 -0.7079 0.7079 0.7063 -10.4198 25.197)" fill="#99A8AE" width="0.584" height="57.709"/>
<path fill="#E6EBEF" d="M48.555,46.488c0.911,0.91-1.156,2.977-2.066,2.066C45.578,47.643,47.644,45.578,48.555,46.488z"/>
<path fill="#302C3B" d="M51.37,47.998l-3.373,3.373c0,0,4.775,5.498,9.756,7.688l1.308-1.307
	C56.083,52.625,51.37,47.998,51.37,47.998z"/>
<path fill="#4E5E67" d="M51.37,47.998c0,0,5.588,4.684,7.78,9.664l-1.397,1.396C56.655,54.242,51.37,47.998,51.37,47.998z"/>
<circle fill="#BEC3CF" cx="59.516" cy="59.515" r="2.484"/>
<circle fill="#E81C27" cx="59.516" cy="59.515" r="1.242"/>
<rect x="47.226" y="42.743" transform="matrix(-0.7073 -0.7069 0.7069 -0.7073 48.2601 116.454)" fill="#FFE12C" width="2.023" height="10.987"/>
<polygon fill="#FEEC9A" points="44.058,50.983 44.4,51.326 47.864,47.864 48.951,48.951 52.478,45.426 51.047,43.994 "/>
<path fill="#F9C802" d="M52.842,45.061l-3.891,3.891l-3.891,3.891c-1.813,1.813-1.733,4.061-4.082,6.408
	c2.879,0.065,6.363-5.832,9.403-8.87c3.038-3.036,8.935-6.522,8.868-9.4C56.901,43.327,54.655,43.25,52.842,45.061z"/>
</svg>
