<?xml version="1.0" encoding="utf-8"?>
<!-- Generator: Adobe Illustrator 15.0.0, SVG Export Plug-In . SVG Version: 6.00 Build 0)  -->
<!DOCTYPE svg PUBLIC "-//W3C//DTD SVG 1.1//EN" "http://www.w3.org/Graphics/SVG/1.1/DTD/svg11.dtd">
<svg version="1.1" id="Layer_1" xmlns="http://www.w3.org/2000/svg" xmlns:xlink="http://www.w3.org/1999/xlink" x="0px" y="0px"
	 width="64px" height="64px" viewBox="0 0 64 64" enable-background="new 0 0 64 64" xml:space="preserve">
<path fill="#302C3B" d="M36.015,14.843c0,0,0.198-5.588,0.408-11.837c0.046-1.325-5.206-1.356-5.145,0
	C31.536,8.8,31.77,14.288,31.77,14.288L36.015,14.843z"/>
<path fill="#302C3B" d="M46.301,19.327c-2.672-1.881-7.305-2.73-11.838-3.365c-4.658-0.656-9.989-0.869-12.818-2.526
	c-0.98-0.575-2.428-1.69-2.017-3.153c0.81-2.876,5.313-4.277,21.33-0.579c0.915,1.379,5.468,2.663,5.96,1.822
	c-0.902-0.604-2.371-0.996-2.858-1.682c1.603-0.096,3.542,1.26,3.869,1.332c1.398,0.312,0.437-1.767-0.26-2.735
	c-1.48-2.064-4.636-3.451-6.47-2.478C18.663,0.755,14.596,6.659,15.03,11.121c0.514,5.286,6.747,7.228,12.575,7.913
	c3.523,0.416,7.221,0.785,9.227,1.205c2.803,0.586,6.985,1.416,7.104,4.137c0.163,3.719-5.331,4.422-8.41,5.541
	c-0.021-3.01,0.244-8.566,0.244-8.566l-3.911-0.643c0,0,0.26,6.439,0.358,10.133c-5.212,1.666-6.636,3.293-7.226,3.916
	c-0.968,1.02-1.389,2.084-1.389,3.297c0,2.758,2.24,4.461,6.043,5.961c4.176,1.645,9.635,2.441,9.635,4.629
	c0,1.291-2.339,1.783-4.49,2.525l0.24-4.342l-2.332-0.727l0.207,5.543c-4.064,1.149-4.205,2.178-4.32,2.82
	c-0.072,0.391,0.008,0.75,0.162,1.123c0.594,1.438,2.516,1.973,4.446,2.622c0.048,1.62,0.105,2.835,0.135,3.321
	c0.029,0.579,1.035,0.646,1.059,0.07c0.021-0.455,0.045-1.477,0.075-2.932c0.278,0.109,0.557,0.225,0.817,0.354
	c1.446,0.715,2.031,1.591,2.776,2.456c-0.418-1.243-1.124-2.389-2.613-3.295c-0.223-0.138-0.561-0.282-0.96-0.437
	c0.008-0.356,0.253-4.78,0.253-4.78c7.605-1.507,8.547-4.07,6.34-6.849c-1.162-1.465-3.861-2.473-6.521-3.43
	c-2.338-0.846-6.342-2.082-6.95-3.514c-1.167-2.734,2.677-3.904,4.735-4.629l0.26,6.408l2.521,0.896l0.299-8.041
	c3.668-1.027,7.243-2.469,7.782-2.699c2.983-1.289,5.778-3.035,5.798-6.805C49.01,21.979,47.771,20.356,46.301,19.327z
	 M44.585,8.158c0.211-0.719,1.583,0.405,1.423,0.798C45.811,9.433,44.377,8.861,44.585,8.158z M30.219,55.097
	c0-1.037,1.585-1.465,2.775-1.824c0,0,0.162,3.611,0.172,3.975C31.727,56.692,30.219,56.007,30.219,55.097z"/>
<path fill="#4E5E67" d="M33.061,14.458c0,0-0.135-6.387-0.308-11.18c-0.021-0.561,0.897-0.871,1.949-0.941
	c-1.367-0.095-2.933,0.214-2.9,0.941c0.246,5.504,0.457,11.074,0.457,11.074L33.061,14.458z"/>
<polygon fill="#4E5E67" points="32.95,41.079 33.466,41.263 33.466,34.165 32.732,34.401 "/>
<polygon fill="#4E5E67" points="33.716,53.103 33.327,53.174 33.373,57.339 33.646,57.417 "/>
<path fill="#4E5E67" d="M16.529,11.134c-0.398-4,3.207-6.724,10.373-6.847c-8.334-0.04-11.801,2.541-11.373,6.847
	c0.514,5.158,6.741,7.053,12.567,7.725C23.686,17.962,17.023,16.093,16.529,11.134z"/>
<path fill="#4E5E67" d="M38.566,20.005c1.759,0.623,5.986,1.484,6.104,4.338c0.146,3.506-5.488,5.092-7.409,5.809
	c2.018-0.459,8.57-1.91,8.408-5.809C45.552,21.489,41.371,20.62,38.566,20.005z"/>
<path fill="#4E5E67" d="M33.646,58.199c-1.931-0.649-4.253-1.743-4.351-3.142c-0.078-1.108,0.288-2.045,4.421-3.375l-0.07-5.287
	l-0.543-0.17l0.146,5.38c-4.11,1.391-4.594,2.306-4.313,3.614c0.345,1.604,2.514,2.322,4.446,2.971
	c0.048,1.621,0.093,2.898,0.131,3.383c0.027,0.318,0.424,0.219,0.424,0.219C33.588,61.808,33.773,61.659,33.646,58.199z"/>
<path fill="#4E5E67" d="M34.467,58.308c-0.006,0.162,0.002,0.068,0,0.219c2.688,0.969,3.59,2.952,3.59,2.952
	S37.294,59.324,34.467,58.308z"/>
<path fill="#4E5E67" d="M24.893,37.97c0-1.168,0.693-2.318,1.661-3.299c0.593-0.599,1.7-2.068,6.912-3.672
	c-0.087-3.236-0.151-9.113-0.192-10.061L32.497,20.8c0,0,0.187,6.545,0.282,10.102c-5.213,1.604-6.633,3.171-7.225,3.77
	c-0.967,0.98-1.389,2.006-1.389,3.174c0,2.656,2.068,4.457,5.874,5.9C27.07,42.214,24.893,40.626,24.893,37.97z"/>
<path fill="#4E5E67" d="M35.892,45.741c2.045,0.879,3.701,1.41,3.701,3.029c0,1.396-3.61,2.334-3.61,2.334
	c2.172-0.359,4.124-1.041,4.124-2.344C40.106,47.39,38.488,46.571,35.892,45.741z"/>
</svg>
