<?xml version="1.0" encoding="utf-8"?>
<!-- Generator: Adobe Illustrator 15.0.0, SVG Export Plug-In . SVG Version: 6.00 Build 0)  -->
<!DOCTYPE svg PUBLIC "-//W3C//DTD SVG 1.1//EN" "http://www.w3.org/Graphics/SVG/1.1/DTD/svg11.dtd">
<svg version="1.1" id="Layer_1" xmlns="http://www.w3.org/2000/svg" xmlns:xlink="http://www.w3.org/1999/xlink" x="0px" y="0px"
	 width="64px" height="64px" viewBox="0 0 64 64" enable-background="new 0 0 64 64" xml:space="preserve">
<path fill="#99A8AE" d="M58.672,13.888c-6.574,6.081-14.111-5.5-26.672-5.5c-12.559,0-20.096,11.581-26.672,5.5
	c-0.887-0.821-0.184,4.626,4.738,5.409c6.123,0.974,13.229-6.238,21.934-6.238c8.708,0,15.813,7.212,21.934,6.238
	C58.855,18.514,59.561,13.066,58.672,13.888z"/>
<path fill="#6E8189" d="M58.672,13.888c-6.574,6.081-15.322-3.5-26.672-3.5c-9.883,0-15.9,8.473-21.934,8.909
	c6.123,0.974,13.229-6.238,21.934-6.238c8.708,0,15.813,7.212,21.934,6.238C58.855,18.514,59.561,13.066,58.672,13.888z"/>
<rect x="30" y="11" fill="#4E5E67" width="4" height="30"/>
<rect x="31" y="11" fill="#99A8AE" width="1" height="30"/>
<rect x="32" y="48" fill="#302C3B" width="5" height="4.717"/>
<rect x="27" y="48" fill="#4E5E67" width="5" height="4.717"/>
<path fill="#4E5E67" d="M32,51.955c-6.863,0-12.43,2.103-12.441,4.748C17.335,57.258,16,58.003,16,58.771V62h32v-3.229
	C48,57.899,32,51.955,32,51.955z"/>
<path fill-rule="evenodd" clip-rule="evenodd" fill="#99A8AE" d="M16.929,60.1c0.156,0.977,2.197-0.934,4.266-2.576
	C22.527,56.468,16.464,57.164,16.929,60.1z"/>
<path fill-rule="evenodd" clip-rule="evenodd" fill="#99A8AE" d="M22.65,55.33c0.193,0.779,2.736-0.746,5.314-2.057
	C29.626,52.43,22.068,52.985,22.65,55.33z"/>
<path fill="#302C3B" d="M44.443,56.713c0-2.649-5.572-4.758-12.444-4.758c0,0,4.372,1.768,5.19,4.071H19.699
	c-0.143,0.364-0.143,0.688-0.143,0.688h16.602c1.439,0.552,2.699,1.293,2.699,2.058V62H48v-3.229
	C48,58.006,46.654,57.266,44.443,56.713z"/>
<circle fill="#4E5E67" cx="32" cy="45" r="6"/>
<path fill-rule="evenodd" clip-rule="evenodd" fill="#99A8AE" d="M27.376,43.781c0.184,1.292,2.602-1.235,5.049-3.408
	C34.006,38.976,26.824,39.896,27.376,43.781z"/>
<path fill="#302C3B" d="M28.3,49.718c0.572,0.13,1.164,0.206,1.775,0.206c3.821,0,7.01-2.705,7.758-6.307
	C37.939,44.062,38,44.523,38,45c0,3.313-2,6-6,6C30.601,51,29.322,50.517,28.3,49.718z"/>
<circle fill="#4E5E67" cx="32" cy="13" r="6"/>
<path fill-rule="evenodd" clip-rule="evenodd" fill="#99A8AE" d="M27.376,11.781c0.184,1.292,2.602-1.235,5.049-3.408
	C34.006,6.976,26.824,7.896,27.376,11.781z"/>
<path fill="#302C3B" d="M28.3,17.718c0.572,0.13,1.164,0.205,1.775,0.205c3.821,0,7.01-2.705,7.758-6.306
	C37.939,12.062,38,12.522,38,12.999c0,3.314-2.686,5.999-6,6.001C30.601,18.998,29.322,18.517,28.3,17.718z"/>
<circle fill="#4E5E67" cx="32" cy="5" r="3"/>
<path fill-rule="evenodd" clip-rule="evenodd" fill="#99A8AE" d="M29.687,4.391c0.092,0.646,1.301-0.618,2.525-1.704
	C33.004,1.987,29.412,2.447,29.687,4.391z"/>
<path fill="#302C3B" d="M30.15,7.358c0.287,0.065,0.582,0.104,0.887,0.104c1.912,0,3.506-1.353,3.881-3.153
	C34.971,4.53,35,4.762,35,5c0,1.656-1.342,2.999-3,3C31.3,7.999,30.66,7.758,30.15,7.358z"/>
<path fill="#99A8AE" d="M22,45.375H4l9-28L22,45.375z M6.316,43.424h13.367L13,22.629L6.316,43.424z"/>
<path fill="#99A8AE" d="M60,45.375H42l9-28L60,45.375z M44.314,43.424h13.367L51,22.629L44.314,43.424z"/>
<circle fill="#4E5E67" cx="51" cy="20.375" r="3"/>
<path fill-rule="evenodd" clip-rule="evenodd" fill="#99A8AE" d="M48.688,19.766c0.092,0.646,1.301-0.618,2.525-1.704
	C52.004,17.362,48.412,17.822,48.688,19.766z"/>
<path fill="#302C3B" d="M49.15,22.733c0.287,0.065,0.582,0.104,0.887,0.104c1.912,0,3.506-1.353,3.881-3.153
	C53.971,19.905,54,20.137,54,20.375c0,1.656-1.342,2.999-3,3C50.301,23.374,49.66,23.133,49.15,22.733z"/>
<circle fill="#4E5E67" cx="13" cy="20.375" r="3"/>
<path fill-rule="evenodd" clip-rule="evenodd" fill="#99A8AE" d="M10.687,19.766c0.092,0.646,1.301-0.618,2.525-1.704
	C14.003,17.362,10.412,17.822,10.687,19.766z"/>
<path fill="#302C3B" d="M11.15,22.733c0.287,0.065,0.582,0.104,0.887,0.104c1.912,0,3.506-1.353,3.881-3.153
	C15.97,19.905,16,20.137,16,20.375c0,1.656-1.342,2.999-3,3C12.3,23.374,11.66,23.133,11.15,22.733z"/>
<path fill="#CFD8DD" d="M13,49.375c-6.074,0-11-2.686-11-6h22C24,46.689,19.074,49.375,13,49.375z"/>
<path fill-rule="evenodd" clip-rule="evenodd" fill="#E6EBEF" d="M4.24,44.5c0.188-0.999,2.672,0.954,5.188,2.631
	C11.046,48.211,3.673,47.5,4.24,44.5z"/>
<path fill="#BEC3CF" d="M21,43.375c0,3.035-4.137,5.537-9.5,5.938c0.492,0.037,0.99,0.063,1.5,0.063c6.074,0,11-2.688,11-6H21z"/>
<path fill="#CFD8DD" d="M51,49.375c-6.074,0-11-2.686-11-6h22C62,46.689,57.074,49.375,51,49.375z"/>
<path fill-rule="evenodd" clip-rule="evenodd" fill="#E6EBEF" d="M42.24,44.5c0.188-0.999,2.672,0.954,5.188,2.631
	C49.047,48.211,41.674,47.5,42.24,44.5z"/>
<path fill="#BEC3CF" d="M59,43.375c0,3.035-4.137,5.537-9.5,5.938c0.492,0.037,0.99,0.063,1.5,0.063c6.074,0,11-2.688,11-6H59z"/>
</svg>
