<?xml version="1.0" encoding="utf-8"?>
<!-- Generator: Adobe Illustrator 15.0.0, SVG Export Plug-In . SVG Version: 6.00 Build 0)  -->
<!DOCTYPE svg PUBLIC "-//W3C//DTD SVG 1.1//EN" "http://www.w3.org/Graphics/SVG/1.1/DTD/svg11.dtd">
<svg version="1.1" id="Layer_1" xmlns="http://www.w3.org/2000/svg" xmlns:xlink="http://www.w3.org/1999/xlink" x="0px" y="0px"
	 width="64px" height="64px" viewBox="0 0 64 64" enable-background="new 0 0 64 64" xml:space="preserve">
<polygon fill="#6E8189" points="31.611,62 29.816,62 28.92,34.632 32.508,34.632 "/>
<polygon fill="#4E5E67" points="31.967,51.134 29.428,50.136 28.92,34.632 32.508,34.632 "/>
<path opacity="0.5" fill="#A1D8F2" d="M60.484,26.884L62,24.217c0,0-19.801-12.132-26.754-13.659l0.035,0.032
	c-1.465-0.371-2.99-0.59-4.568-0.59c-10.406,0-18.844,8.577-18.844,19.158c0,10.58,8.438,19.157,18.844,19.157
	c10.408,0,18.844-8.577,18.844-19.157c0-2.1-0.344-4.114-0.957-6.005l0.016,0.015L60.484,26.884z"/>
<path fill="#E635DE" d="M14.714,29c0,9.067,7.165,16.579,15.999,16.579c8.836,0,16.001-7.512,16.001-16.579H14.714z"/>
<path fill="#B30BAD" d="M40.989,29c0,8.279-6.542,15.139-14.61,15.139c-0.914,0-1.805-0.099-2.674-0.268
	c2.118,1.081,4.49,1.708,7.008,1.708c8.836,0,16.001-7.512,16.001-16.579H40.989z"/>
<path opacity="0.5" fill-rule="evenodd" clip-rule="evenodd" fill="#FFFFFF" d="M16.189,25.455
	c0.578,4.091,8.17-3.913,15.857-10.794C37.009,10.235,14.454,13.148,16.189,25.455z"/>
<path opacity="0.5" fill="#A1D8F2" d="M19.092,44.254c1.799,0.411,3.654,0.652,5.573,0.652c11.999,0,22.014-8.566,24.363-19.971
	c0.331,1.405,0.52,2.869,0.522,4.379c-0.003,10.493-8.434,18.995-18.844,19C26.318,48.31,22.299,46.784,19.092,44.254z"/>
<polygon fill="#6E8189" points="15.459,35.449 11.871,35.449 2,62 3.795,62 "/>
<polygon fill="#6E8189" points="45.969,35.449 49.557,35.449 59.428,62 57.633,62 "/>
<polygon fill="#4E5E67" points="11.87,35.449 10.387,39.441 13.344,40.262 15.458,35.449 "/>
<polygon fill="#4E5E67" points="49.556,35.449 45.968,35.449 48.082,40.262 51.949,41.886 "/>
<path fill="#CFD8DD" d="M10.973,38.28h39.482c2.986,0,2.986-3.648,0-3.648H10.973C7.984,34.632,7.984,38.28,10.973,38.28z"/>
<path fill="#E6EBEF" d="M11.204,35.893l24.866-0.908H11.204c-1.609,0-2.257,1.162-1.958,2.111
	C9.451,36.443,10.099,35.893,11.204,35.893z"/>
<path fill="#99A8AE" d="M50.455,37.28c0,0-41.254,1-39.482,1h39.482c1.771,0,2.482-1.28,2.154-2.324
	C52.383,36.674,51.671,37.28,50.455,37.28z"/>
<path fill="#C28FEF" d="M46.713,29c0,2-32,2-32,0C14.713,27,46.713,27,46.713,29z"/>
</svg>
