<?xml version="1.0" encoding="utf-8"?>
<!-- Generator: Adobe Illustrator 15.0.0, SVG Export Plug-In . SVG Version: 6.00 Build 0)  -->
<!DOCTYPE svg PUBLIC "-//W3C//DTD SVG 1.1//EN" "http://www.w3.org/Graphics/SVG/1.1/DTD/svg11.dtd">
<svg version="1.1" id="Layer_1" xmlns="http://www.w3.org/2000/svg" xmlns:xlink="http://www.w3.org/1999/xlink" x="0px" y="0px"
	 width="64px" height="64px" viewBox="0 0 64 64" enable-background="new 0 0 64 64" xml:space="preserve">
<path fill="#99A8AE" d="M18.327,49.688c0.232-1.057,11.417,3.574,10.834,4.486l-4.309,6.777c-0.582,0.912-1.916,1.303-2.968,0.867
	l-3.821-1.582c-1.049-0.436-1.717-1.656-1.48-2.711L18.327,49.688z"/>
<path fill="#99A8AE" d="M34.841,54.177c-0.582-0.912,10.601-5.543,10.835-4.486l1.742,7.838c0.235,1.057-0.432,2.275-1.48,2.711
	l-3.82,1.582c-1.051,0.436-2.387,0.045-2.967-0.867L34.841,54.177z"/>
<path fill="#99A8AE" d="M49.688,45.676c-1.057-0.234,3.574-11.418,4.488-10.836l6.774,4.311c0.913,0.58,1.304,1.912,0.87,2.965
	l-1.584,3.82c-0.434,1.051-1.656,1.718-2.711,1.481L49.688,45.676z"/>
<path fill="#99A8AE" d="M54.179,29.163c-0.912,0.581-5.543-10.601-4.488-10.835l7.838-1.743c1.056-0.235,2.277,0.431,2.713,1.483
	l1.582,3.82c0.434,1.051,0.043,2.385-0.87,2.965L54.179,29.163z"/>
<path fill="#99A8AE" d="M45.675,14.312c-0.233,1.055-11.416-3.577-10.835-4.49l4.311-6.775c0.578-0.913,1.912-1.305,2.965-0.869
	l3.82,1.583c1.049,0.434,1.718,1.655,1.48,2.712L45.675,14.312z"/>
<path fill="#99A8AE" d="M29.162,9.824c0.581,0.913-10.601,5.544-10.835,4.489l-1.744-7.838c-0.234-1.056,0.433-2.277,1.482-2.711
	l3.822-1.583c1.049-0.437,2.385-0.043,2.965,0.869L29.162,9.824z"/>
<path fill="#99A8AE" d="M14.311,18.326c1.057,0.234-3.574,11.414-4.487,10.835l-6.775-4.311c-0.914-0.581-1.305-1.915-0.867-2.966
	l1.582-3.821c0.434-1.05,1.654-1.716,2.709-1.481L14.311,18.326z"/>
<path fill="#99A8AE" d="M9.823,34.84c0.913-0.58,5.543,10.6,4.487,10.836l-7.836,1.741c-1.057,0.234-2.277-0.433-2.711-1.481
	l-1.584-3.82c-0.437-1.053-0.045-2.385,0.869-2.965L9.823,34.84z"/>
<path fill="#99A8AE" d="M20.002,10.219C8.525,16.845,4.593,31.521,11.218,42.998c6.626,11.476,21.303,15.408,32.779,8.782
	c11.478-6.626,15.409-21.302,8.784-32.778C46.155,7.526,31.479,3.593,20.002,10.219z M39.555,44.084
	c-7.226,4.172-16.468,1.697-20.64-5.529c-4.172-7.227-1.695-16.467,5.53-20.639c7.226-4.171,16.467-1.696,20.639,5.531
	C49.256,30.672,46.78,39.913,39.555,44.084z"/>
<path fill="#6E8189" d="M23.502,16.282c-8.127,4.693-10.913,15.086-6.221,23.214c4.693,8.128,15.088,10.913,23.215,6.222
	c8.128-4.692,10.913-15.087,6.221-23.214C42.025,14.375,31.631,11.59,23.502,16.282z M36.779,39.277
	c-4.572,2.639-10.418,1.072-13.056-3.498c-2.641-4.571-1.074-10.417,3.497-13.057c4.571-2.64,10.418-1.072,13.056,3.499
	C42.917,30.792,41.351,36.639,36.779,39.277z"/>
<path fill="#99A8AE" d="M25.5,19.744c-6.217,3.589-8.346,11.539-4.758,17.754c3.59,6.217,11.539,8.348,17.756,4.759
	c6.217-3.589,8.346-11.54,4.758-17.756C39.668,18.285,31.717,16.154,25.5,19.744z M35.999,37.928
	c-3.825,2.207-8.717,0.898-10.926-2.929c-2.209-3.826-0.898-8.717,2.928-10.925c3.824-2.208,8.718-0.899,10.926,2.927
	C41.136,30.827,39.825,35.719,35.999,37.928z"/>
<path fill="#CFD8DD" d="M27.668,37.668c5.105,3.892,13.09-0.717,12.272-7.084C40.337,36.654,32.727,41.048,27.668,37.668z"/>
<path fill="#CFD8DD" d="M39.038,20.164c-8.297-6.323-21.27,1.167-19.942,11.512C18.45,21.813,30.817,14.672,39.038,20.164z"/>
<path fill="#4E5E67" d="M24.962,41.837c8.296,6.322,21.269-1.167,19.941-11.513C45.55,40.188,33.183,47.327,24.962,41.837z"/>
<path fill="#CFD8DD" d="M45.021,11.252C29.67-0.447,5.671,13.411,8.127,32.553C6.932,14.303,29.811,1.091,45.021,11.252z"/>
<path fill="#6E8189" d="M18.98,51.351c15.349,11.698,39.349-2.16,36.893-21.3C57.068,48.301,34.188,61.509,18.98,51.351z"/>
</svg>
