<?xml version="1.0" encoding="utf-8"?>
<!-- Generator: Adobe Illustrator 15.0.0, SVG Export Plug-In . SVG Version: 6.00 Build 0)  -->
<!DOCTYPE svg PUBLIC "-//W3C//DTD SVG 1.1//EN" "http://www.w3.org/Graphics/SVG/1.1/DTD/svg11.dtd">
<svg version="1.1" id="Layer_1" xmlns="http://www.w3.org/2000/svg" xmlns:xlink="http://www.w3.org/1999/xlink" x="0px" y="0px"
	 width="64px" height="64px" viewBox="0 0 64 64" enable-background="new 0 0 64 64" xml:space="preserve">
<path fill="#AA5BEF" d="M62,50c0,6.601-5.4,12-12,12H14C7.4,62,2,56.601,2,50V14C2,7.4,7.4,2,14,2h36c6.6,0,12,5.4,12,12V50z"/>
<path fill="#8D40CF" d="M56.838,4.162C58.197,6.106,59,8.462,59,11v37c0,6.601-4.398,11-11,11H11c-2.537,0-4.894-0.804-6.838-2.162
	C6.336,59.95,9.938,62,14,62h36c6.602,0,12-5.399,12-12V14C62,9.938,59.951,6.336,56.838,4.162z"/>
<path fill-rule="evenodd" clip-rule="evenodd" fill="#C28FEF" d="M4.975,12.585c0.339,2.704,4.793-2.587,9.303-7.135
	C17.188,2.525,3.957,4.45,4.975,12.585z"/>
<path fill="#FFFFFF" d="M49.97,32.139c-0.032-0.045-0.063-0.091-0.1-0.139c0.034-0.047,0.067-0.093,0.101-0.14
	c2.716-3.879,3.268-7.514,1.554-10.236c-1.573-2.498-4.899-3.874-9.368-3.874c-0.633,0-1.298,0.03-2.023,0.093
	C38.045,13.749,35.166,11.5,32,11.5c-3.164,0-6.044,2.249-8.133,6.343c-0.725-0.063-1.39-0.093-2.023-0.093
	c-4.468,0-7.794,1.376-9.366,3.874c-1.715,2.721-1.163,6.356,1.554,10.237l0.101,0.137c-0.034,0.047-0.068,0.094-0.102,0.141
	c-2.716,3.881-3.268,7.518-1.553,10.238c1.573,2.498,4.899,3.873,9.368,3.873c0.627,0,1.307-0.031,2.021-0.092
	C25.956,50.251,28.836,52.5,32,52.5c3.166,0,6.045-2.249,8.133-6.342c0.717,0.061,1.396,0.092,2.023,0.092
	c4.469,0,7.795-1.375,9.367-3.873C53.238,39.654,52.688,36.02,49.97,32.139z M42.156,44.104c-0.351,0-0.717-0.01-1.096-0.03
	c0.598-1.54,1.073-3.229,1.418-5.032c2.341-1.629,4.338-3.383,5.947-5.224c1.928,2.953,2.346,5.585,1.17,7.454
	C48.446,43.098,45.805,44.104,42.156,44.104z M31.999,44.359c1.954,0.676,3.88,1.176,5.737,1.492
	C36.117,48.694,34.098,50.25,32,50.25c-2.097,0-4.117-1.556-5.735-4.399C28.121,45.533,30.046,45.033,31.999,44.359z M21.844,19.896
	c0.349,0,0.715,0.01,1.096,0.031c-0.597,1.541-1.072,3.229-1.418,5.031c-2.336,1.626-4.333,3.38-5.947,5.224
	c-1.928-2.954-2.345-5.586-1.169-7.453C15.556,20.902,18.197,19.896,21.844,19.896z M32,19.641c-1.95-0.674-3.876-1.174-5.736-1.491
	c1.619-2.844,3.641-4.399,5.736-4.399c2.099,0,4.119,1.556,5.737,4.4C35.882,18.466,33.956,18.966,32,19.641z M42.156,19.896
	c3.646,0,6.289,1.006,7.439,2.833c1.17,1.858,0.763,4.473-1.172,7.45c-1.611-1.842-3.609-3.595-5.945-5.221
	c-0.345-1.802-0.82-3.491-1.418-5.031C41.442,19.907,41.809,19.896,42.156,19.896z M42.924,28.002
	c1.601,1.268,2.99,2.608,4.143,3.998c-1.15,1.388-2.539,2.729-4.143,3.998c0.134-1.307,0.201-2.646,0.201-3.998
	C43.125,30.648,43.058,29.308,42.924,28.002z M40.875,32c0,1.981-0.158,3.937-0.471,5.814c-1.105,0.731-2.256,1.414-3.42,2.031
	c-1.57,0.83-3.246,1.574-4.983,2.215c-1.737-0.64-3.413-1.385-4.983-2.215c-1.168-0.618-2.317-1.301-3.421-2.031
	c-0.313-1.883-0.472-3.838-0.472-5.814s0.158-3.931,0.472-5.814c1.107-0.733,2.257-1.416,3.421-2.03
	c1.569-0.831,3.245-1.575,4.982-2.215c1.738,0.64,3.414,1.385,4.984,2.215c1.166,0.616,2.314,1.299,3.42,2.03
	C40.717,28.063,40.875,30.018,40.875,32z M38.076,22.28c-0.926-0.49-1.874-0.949-2.833-1.371c1.196-0.321,2.362-0.566,3.483-0.731
	c0.395,0.941,0.741,1.959,1.035,3.042C39.207,22.894,38.644,22.58,38.076,22.28z M28.759,20.908
	c-0.96,0.422-1.909,0.881-2.835,1.372c-0.573,0.304-1.137,0.619-1.685,0.94c0.293-1.082,0.64-2.1,1.034-3.042
	C26.397,20.343,27.564,20.588,28.759,20.908z M21.077,35.998c-1.601-1.269-2.99-2.609-4.143-3.998
	c1.151-1.389,2.541-2.729,4.143-3.998c-0.134,1.309-0.202,2.649-0.202,3.998C20.875,33.35,20.943,34.689,21.077,35.998z
	 M15.575,33.818c1.61,1.84,3.607,3.596,5.946,5.224c0.345,1.803,0.821,3.491,1.418,5.031c-0.377,0.021-0.744,0.03-1.096,0.03
	c-3.646,0-6.288-1.006-7.438-2.833C13.229,39.403,13.646,36.772,15.575,33.818z M25.925,41.721c0.929,0.492,1.878,0.951,2.833,1.371
	c-1.193,0.32-2.359,0.565-3.484,0.732c-0.395-0.943-0.74-1.962-1.034-3.043C24.793,41.106,25.356,41.421,25.925,41.721z
	 M35.242,43.092c0.957-0.422,1.906-0.88,2.835-1.371c0.573-0.304,1.137-0.618,1.685-0.939c-0.294,1.082-0.641,2.101-1.035,3.043
	C37.602,43.656,36.436,43.412,35.242,43.092z"/>
<circle fill="#FFFFFF" cx="32" cy="32" r="3.75"/>
</svg>
