<?xml version="1.0" encoding="utf-8"?>
<!-- Generator: Adobe Illustrator 15.0.0, SVG Export Plug-In . SVG Version: 6.00 Build 0)  -->
<!DOCTYPE svg PUBLIC "-//W3C//DTD SVG 1.1//EN" "http://www.w3.org/Graphics/SVG/1.1/DTD/svg11.dtd">
<svg version="1.1" id="Layer_1" xmlns="http://www.w3.org/2000/svg" xmlns:xlink="http://www.w3.org/1999/xlink" x="0px" y="0px"
	 width="64px" height="64px" viewBox="0 0 64 64" enable-background="new 0 0 64 64" xml:space="preserve">
<path fill="#F9B700" d="M29.191,35.963v10.131c0,0,2.298,0.018,2.81,1.521c0.511-1.504,2.809-1.521,2.809-1.521V35.963H29.191z"/>
<path fill="#F59E01" d="M32,35.963v11.652c0.511-1.504,2.809-1.521,2.809-1.521V35.963H32z"/>
<path fill="#F9B700" d="M35.856,52.168c-0.214-0.973,0.895-3.438-1.279-4.035C32.855,47.658,32,49.447,32,49.447
	s-0.854-1.789-2.578-1.314c-2.174,0.598-1.063,3.063-1.277,4.035c-0.543,2.469-2.522,2.469-2.522,2.469s0.951,1.619,2.511,1.619
	c1.13,0,1.439-0.695,1.439-0.695C29.33,58.256,32,62,32,62s2.669-3.744,2.428-6.439c0,0,0.31,0.695,1.44,0.695
	c1.559,0,2.511-1.619,2.511-1.619S36.398,54.637,35.856,52.168z"/>
<path fill="#F59E01" d="M35.856,52.168c-0.214-0.973,0.895-3.438-1.279-4.035C32.855,47.658,32,49.447,32,49.447V62
	c0,0,2.669-3.744,2.428-6.439c0,0,0.31,0.695,1.44,0.695c1.559,0,2.511-1.619,2.511-1.619S36.398,54.637,35.856,52.168z"/>
<path fill="#F9B700" d="M44.597,25.817c-12.52,6.973-9.953,26.325-1.575,29.55c11.995,4.619,11.575-14.906,3.787-12.813
	c4.946,8.6-8.943,10.143-6.526-2.791c2.063-11.023,18.732-9.762,14.832,5.529C68.695,42.67,60.603,16.906,44.597,25.817z"/>
<path fill="#F59E01" d="M35.968,42.611c0.288,5.873,2.986,11.348,7.034,12.906c8.688,3.346,10.856-6.127,8.436-10.725
	C53.292,55.084,39.71,59.232,35.968,42.611z"/>
<path fill="#F59E01" d="M44.78,30.068c-4.034,2.217-4.986,7.449-4.498,9.695c2.007-10.726,18.659-9.476,14.832,5.529
	C61.374,38.813,55.914,23.952,44.78,30.068z"/>
<path fill="#F9B700" d="M19.404,25.817c12.521,6.973,9.952,26.325,1.575,29.55C8.984,59.986,9.404,40.461,17.192,42.555
	c-4.947,8.6,8.943,10.143,6.526-2.791c-2.062-11.023-18.732-9.762-14.834,5.529C-4.696,42.67,3.398,16.906,19.404,25.817z"/>
<path fill="#F59E01" d="M28.033,42.611c-0.288,5.873-2.987,11.348-7.034,12.906c-8.688,3.346-10.857-6.127-8.436-10.725
	C10.708,55.084,24.291,59.232,28.033,42.611z"/>
<path fill="#F59E01" d="M19.22,30.068c4.034,2.217,4.985,7.449,4.498,9.695C21.71,29.038,5.059,30.288,8.884,45.293
	C2.626,38.813,8.086,23.952,19.22,30.068z"/>
<path fill="#F9B700" d="M32,2c0,0-8.949,10.055-8.019,19.962c0.764,8.146,5.902,14.384,5.902,19.374c0,0,1.492,0.014,2.116,1.262
	c0.624-1.248,2.116-1.262,2.116-1.262c0-4.99,5.14-11.229,5.902-19.374C40.948,12.053,32,2,32,2z"/>
<path fill="#F59E01" d="M32,2c-2.06,16.713,6.378,18.758,0,40.598c0.624-1.248,2.116-1.262,2.116-1.262
	c0-4.99,5.14-11.229,5.902-19.374C40.948,12.053,32,2,32,2z"/>
<path fill="#F9B700" d="M41.606,42c0,0-14.411,0-19.214,0c-1.683,0,0-3.637,0-3.637h19.214C43.291,38.363,43.291,42,41.606,42z"/>
<path fill="#F59E01" d="M41.606,42H29.639c13.232,0,11.967-3.637,11.967-3.637C43.291,38.363,43.291,42,41.606,42z"/>
<path fill="#F9B700" d="M42.25,38.363H21.752c-0.83,0,0-1.818,0-1.818H42.25C43.078,36.545,43.078,38.363,42.25,38.363z"/>
<path fill="#F9B700" d="M42.25,43.818H21.752c-0.83,0,0-1.818,0-1.818H42.25C43.078,42,43.078,43.818,42.25,43.818z"/>
<path fill="#F59E01" d="M42.25,43.818H27.187C44.49,43.818,42.25,42,42.25,42C43.078,42,43.078,43.818,42.25,43.818z"/>
<path fill="#F59E01" d="M42.25,38.363H27.187c17.303,0,15.063-1.818,15.063-1.818C43.078,36.545,43.078,38.363,42.25,38.363z"/>
<path fill="#FFE12C" d="M22.394,38.363h19.214C19.65,38.553,22.394,42,22.394,42C20.71,42,20.71,38.363,22.394,38.363z"/>
<path fill="#FFE12C" d="M21.752,42h20.496c-24.083,0-20.496,1.818-20.496,1.818C20.924,43.818,20.924,42,21.752,42z"/>
<path fill="#FFE12C" d="M21.752,36.545h20.496c-23.92,0-20.496,1.818-20.496,1.818C20.924,38.363,20.924,36.545,21.752,36.545z"/>
<path fill-rule="evenodd" clip-rule="evenodd" fill="#FFE463" d="M25.531,26.683c0.609,1.587-1.808-6.485,1.734-15.479
	C28.272,8.648,22.026,17.557,25.531,26.683z"/>
<path fill-rule="evenodd" clip-rule="evenodd" fill="#FFE463" d="M2.691,36.863c0.243,1.316-0.339-5.183,4.987-10.638
	C9.192,24.675,1.293,29.295,2.691,36.863z"/>
<path fill-rule="evenodd" clip-rule="evenodd" fill="#FFE463" d="M40.552,30.56c-0.585,1.204,2.802-4.373,10.325-5.606
	C53.016,24.604,43.916,23.639,40.552,30.56z"/>
<path fill-rule="evenodd" clip-rule="evenodd" fill="#FFE463" d="M28.394,50.002c0.054,0.502,0.763-0.48,1.482-1.324
	C30.34,48.135,28.231,48.492,28.394,50.002z"/>
<path fill-rule="evenodd" clip-rule="evenodd" fill="#FFE463" d="M23.424,47.07c0.139-0.715-0.846,2.533-4.452,2.635
	C17.948,49.734,22.624,51.18,23.424,47.07z"/>
<path fill-rule="evenodd" clip-rule="evenodd" fill="#FFE463" d="M48.193,46.756c-0.104-0.658,0.061,2.381-2.988,2.902
	C44.339,49.805,48.779,50.547,48.193,46.756z"/>
</svg>
