<?xml version="1.0" encoding="utf-8"?>
<!-- Generator: Adobe Illustrator 15.0.0, SVG Export Plug-In . SVG Version: 6.00 Build 0)  -->
<!DOCTYPE svg PUBLIC "-//W3C//DTD SVG 1.1//EN" "http://www.w3.org/Graphics/SVG/1.1/DTD/svg11.dtd">
<svg version="1.1" id="Layer_1" xmlns="http://www.w3.org/2000/svg" xmlns:xlink="http://www.w3.org/1999/xlink" x="0px" y="0px"
	 width="64px" height="64px" viewBox="0 0 64 64" enable-background="new 0 0 64 64" xml:space="preserve">
<path fill="none" d="M48.971,15.56c-2.113-1.811-2.359-4.99-0.547-7.101c1.814-2.112,4.996-2.356,7.111-0.546
	c2.111,1.812,2.357,4.99,0.543,7.104C54.268,17.127,51.084,17.371,48.971,15.56z"/>
<path fill="#BEC3CF" d="M10.803,62c-7.658-4.235,8.488-27.851,17.416-41.933c1.66-2.616,4.156-3.683,6.72-1.184
	c0,0,0.24-0.09,0.697-0.437l2.381,5.295L10.803,62z"/>
<polygon fill="#99A8AE" points="30.19,34.746 25.92,23.667 32.696,31.253 "/>
<path fill="#E81C27" d="M59.648,18.075c3.508-4.083,3.037-10.228-1.053-13.729C54.51,0.845,48.357,1.317,44.852,5.4
	c-0.381,0.443-1.162,1.695-1.209,1.781c-4.15,7.7-6.828,10.369-8.006,11.266l2.381,5.295l1.494-1.744c0,0,2.639-5.773,3.824-6.346
	c0.57,1.297,1.424,2.492,2.57,3.477C49.994,22.629,56.146,22.158,59.648,18.075z M56.078,15.017
	c-1.811,2.11-4.994,2.354-7.107,0.543s-2.359-4.99-0.547-7.101c1.814-2.112,4.996-2.356,7.111-0.546
	C57.646,9.725,57.893,12.904,56.078,15.017z"/>
<path fill="none" d="M15.03,15.56c2.115-1.811,2.359-4.99,0.547-7.101c-1.813-2.112-4.996-2.356-7.111-0.546
	c-2.113,1.812-2.357,4.99-0.543,7.104C9.733,17.127,12.917,17.371,15.03,15.56z"/>
<path fill="#CFD8DD" d="M53.199,62c7.654-4.235-8.49-27.851-17.418-41.933c-1.658-2.616-4.158-3.683-6.72-1.184
	c0,0-0.238-0.09-0.697-0.437l-2.381,5.295L53.199,62z"/>
<path fill="#E6EBEF" d="M53.199,62c-1.142-4.703-6.206-12.106-18.699-30.287c-1.753-2.553-4.31-2.059-4.31-2.059L53.199,62z"/>
<path fill="#E81C27" d="M18.094,19.128c1.148-0.984,2-2.18,2.57-3.479c1.186,0.574,3.824,6.348,3.824,6.348l1.494,1.744l2.381-5.295
	c-1.18-0.896-3.855-3.565-8.006-11.266C20.309,7.095,19.53,5.843,19.147,5.4C15.641,1.317,9.489,0.845,5.403,4.345
	c-4.09,3.502-4.559,9.646-1.053,13.729C7.854,22.158,14.004,22.629,18.094,19.128z M8.465,7.914
	c2.115-1.811,5.299-1.566,7.111,0.546c1.813,2.11,1.568,5.29-0.547,7.101c-2.113,1.811-5.297,1.567-7.107-0.543
	C6.108,12.904,6.352,9.725,8.465,7.914z"/>
<circle fill="#6E8189" cx="32" cy="22.574" r="2.5"/>
<path fill="#302C3B" d="M30.233,24.341c-0.473-0.471,3.064-4.006,3.535-3.535S30.704,24.814,30.233,24.341z"/>
<path fill-rule="evenodd" clip-rule="evenodd" fill="#99A8AE" d="M30.075,22.066c0.076,0.538,1.084-0.515,2.104-1.42
	C32.836,20.064,29.844,20.447,30.075,22.066z"/>
<path fill="#4E5E67" d="M30.459,24.54c0.238,0.054,0.484,0.085,0.738,0.085c1.594,0,2.921-1.127,3.234-2.627
	c0.043,0.186,0.068,0.377,0.068,0.576c0,1.381-1.119,2.499-2.5,2.5C31.418,25.073,30.885,24.873,30.459,24.54z"/>
<path fill="#F46C60" d="M11.733,2.699c2.807,0,5.316,1.242,6.969,3.188c-1.557-1.237-3.549-1.98-5.723-1.98
	c-4.982,0-9.023,3.907-9.023,8.726c0.002,2.102,0.77,4.032,2.051,5.539c-2.012-1.602-3.299-4.028-3.299-6.746
	C2.708,6.605,6.747,2.699,11.733,2.699z"/>
<path fill="#F46C60" d="M52.441,2.699c2.807,0,5.316,1.242,6.969,3.188c-1.557-1.237-3.549-1.98-5.723-1.98
	c-7.879,0-6.16,3.878-14.43,11.722C45.34,8.003,44.871,2.699,52.441,2.699z"/>
<path fill="#B00505" d="M46.361,19.496c7.104,3.237,14.916-1.68,15.639-7.45c-0.002,5.312-4.305,9.579-9.619,9.583
	C50.143,21.625,47.998,20.777,46.361,19.496z"/>
<path fill="#B00505" d="M5.745,19.409c7.104,3.237,14.971-1.593,15.693-7.363c-0.002,5.312-4.305,9.579-9.619,9.583
	C9.581,21.625,7.381,20.689,5.745,19.409z"/>
</svg>
