<?xml version="1.0" encoding="utf-8"?>
<!-- Generator: Adobe Illustrator 16.2.0, SVG Export Plug-In . SVG Version: 6.00 Build 0)  -->
<!DOCTYPE svg PUBLIC "-//W3C//DTD SVG 1.1//EN" "http://www.w3.org/Graphics/SVG/1.1/DTD/svg11.dtd">
<svg version="1.1" id="Layer_1" xmlns="http://www.w3.org/2000/svg" xmlns:xlink="http://www.w3.org/1999/xlink" x="0px" y="0px"
	 width="64px" height="64px" viewBox="0 0 64 64" enable-background="new 0 0 64 64" xml:space="preserve">
<polygon fill="#006DAE" points="2,16 2,17 3,17 7,13 6,12 "/>
<polygon fill="#006DAE" points="51,57 47,61 47,62 48,62 52,58 "/>
<path fill="#6E8189" d="M48,38.95l5.655-5.655c0.394-0.393,1.038-0.393,1.432,0l2.618,2.618c0.394,0.394,0.394,1.038,0,1.432
	L52.05,43L48,38.95z"/>
<rect x="54.162" y="33.259" transform="matrix(0.7074 -0.7068 0.7068 0.7074 -9.4757 49.3532)" fill="#99A8AE" width="1.431" height="5.727"/>
<path fill="#6E8189" d="M21,11.95l5.655-5.655c0.394-0.393,1.038-0.393,1.432,0l2.618,2.618c0.394,0.394,0.394,1.038,0,1.432
	L25.05,16L21,11.95z"/>
<rect x="27.161" y="6.259" transform="matrix(0.7071 -0.7071 0.7071 0.7071 1.7144 22.3841)" fill="#99A8AE" width="1.431" height="5.726"/>
<path fill="#018BC9" d="M32,28c0,0,0,0-27-11.647C3.436,15.678,2,14.755,2,13s0.954-3,3-3c2.047,0,41,4,41,4L32,28z"/>
<polyline fill="#006DAE" points="5,16.353 35,25 28.553,26.513 "/>
<path fill="#018BC9" d="M50,18c0,0,4,38.952,4,41c0,2.046-1.245,3-3,3s-2.678-1.437-3.354-3C36,32,36,32,36,32L50,18z"/>
<polyline fill="#006DAE" points="47.646,59 39,29 37.486,35.447 "/>
<path fill="#018BC9" d="M14,51c0,0,0,0-10-5c-1.475-0.736-2-1.625-2-3c0-0.975,0.977-2,2-2s20,0,20,0L14,51z"/>
<path fill="#018BC9" d="M13,50c0,0,0,0,5,10c0.737,1.475,1.625,2,3,2c0.975,0,2-0.977,2-2s0-20,0-20L13,50z"/>
<polygon fill="#006DAE" points="4,46 13,48 14,51 "/>
<polygon fill="#006DAE" points="16,51 13,50 18,60 "/>
<path fill="#E6EBEF" d="M61.755,2.245c-0.953-0.954-9.854,0.92-13.899,4.966C37.243,17.821,20.952,34.116,17.085,37.982
	c-3.233,3.234-7.958,14.867-6.946,15.879c1.011,1.011,12.646-3.714,15.879-6.945c3.993-3.992,20.09-20.09,30.77-30.772
	C60.836,12.1,62.71,3.198,61.755,2.245z"/>
<path fill="#0FB4D4" d="M55.521,8.478c-1.666-1.665-3.916-1.64-4.273-1.28c-0.348,0.348-0.311,0.801,0,1.11
	c0.502,0.504,1.637,0.585,2.747,1.697c1.11,1.112,1.251,2.302,1.694,2.747c0.313,0.313,0.766,0.348,1.113,0
	C57.161,12.392,57.188,10.146,55.521,8.478z"/>
<path fill="#6E8189" d="M21.874,42.126c-0.995-0.995-6.517,4.145-9.466,7.093c-2.947,2.949-4.937,6.003-4.283,6.656
	c0.656,0.654,3.706-1.333,6.654-4.283C17.728,48.643,22.87,43.121,21.874,42.126z"/>
<path fill="#006DAE" d="M14,22v1h1l5-5L8,15l-1.85,1.85c0.469,0.202,0.945,0.408,1.397,0.603L8.6,16.4l8.8,2.2L14,22z"/>
<path fill="#006DAE" d="M41,49v1h1l3.4-3.4L47.6,55.4l-1.052,1.052c0.194,0.452,0.4,0.929,0.603,1.397L49,56l-3-12L41,49z"/>
</svg>
