<?xml version="1.0" encoding="utf-8"?>
<!-- Generator: Adobe Illustrator 15.0.0, SVG Export Plug-In . SVG Version: 6.00 Build 0)  -->
<!DOCTYPE svg PUBLIC "-//W3C//DTD SVG 1.1//EN" "http://www.w3.org/Graphics/SVG/1.1/DTD/svg11.dtd">
<svg version="1.1" id="Layer_1" xmlns="http://www.w3.org/2000/svg" xmlns:xlink="http://www.w3.org/1999/xlink" x="0px" y="0px"
	 width="64px" height="64px" viewBox="0 0 64 64" enable-background="new 0 0 64 64" xml:space="preserve">
<path fill="#FDCA47" d="M51.38,22.207L28.252,12.003L2.794,20.041c0,0-3.864,17.877,5.45,28.684c5.639,6.543,2.394,7.52,5.181,9.606
	c6.312,4.725,33.216,5.585,36.593-1.615c3.203-6.829,6.499-9.628,8.911-15.109C61.191,36.463,59.536,22.103,51.38,22.207z"/>
<path fill="#FDCA47" d="M29.542,8.294c0-8.393,13.444-8.393,13.444,0v18.812c0,3.71-2.987,6.721-6.667,6.721h-0.109
	c-3.684,0-6.667-3.011-6.667-6.721V8.294z"/>
<path fill="#FDCA47" d="M2.806,15.067c0-8.395,13.443-8.395,13.443,0V25.45c0,3.708-2.984,6.718-6.663,6.718H9.475
	c-3.686,0-6.669-3.01-6.669-6.718V15.067z"/>
<path fill="#CC9200" d="M7.582,29.675h0.089c3.68,0,6.571-2.965,6.571-6.673V12.611c0-1.003-0.363-1.89-0.751-2.743
	c2.092,1.05,2.759,3.097,2.759,5.275v10.392c0,3.708-2.883,6.632-6.567,6.632H9.6c-2.693,0-5.007-1.585-6.063-3.894
	C4.664,29.136,6.061,29.675,7.582,29.675z"/>
<path fill="#FDCA47" d="M16.092,9.045c0-8.39,13.45-8.39,13.45,0v18.811c0,3.712-2.988,6.719-6.675,6.719h-0.101
	c-3.687,0-6.674-3.007-6.674-6.719V9.045z"/>
<path fill="#CC9200" d="M20.838,32.083h0.081c3.686,0,6.61-2.918,6.61-6.628V6.634c0-0.998-0.217-1.844-0.61-2.696
	c1.945,1.2,2.623,3.055,2.623,5.232v18.82c0,3.71-2.926,6.586-6.607,6.586H22.85c-2.689,0-5.001-1.584-6.059-3.894
	C17.912,31.547,19.317,32.083,20.838,32.083z"/>
<path fill="#CC9200" d="M29.14,25.861l11.854-1.077V5.962c0-0.998-0.343-1.993-0.736-2.846c2.302,1.539,2.749,3.204,2.749,5.381
	v18.82l-10.382,5.473c0,0-2.548-0.198-3.485-3.301V25.861z"/>
<path fill="#FDCA47" d="M42.677,11.719c0-8.393,13.444-8.393,13.444,0v10.386c0,3.705-2.985,6.717-6.668,6.717h-0.107
	c-3.684,0-6.669-3.012-6.669-6.717V11.719z"/>
<path fill="#CC9200" d="M47.508,26.331h0.086c3.683,0,6.516-2.966,6.516-6.674V9.266c0-1.003-0.215-1.797-0.603-2.65
	c2.043,1.424,2.614,3.005,2.614,5.184V22.19c0,3.708-2.834,6.632-6.516,6.632h-0.087c-2.684,0-5-1.587-6.059-3.895
	C44.584,25.79,45.985,26.331,47.508,26.331z"/>
<path fill="#CC9200" d="M43.46,30.104c-7.996-5.369-18.137,1.858-15.679,13.136C29.592,31.158,43.46,30.104,43.46,30.104z"/>
<path fill="#CC9200" d="M46.999,17.595c-2.998-0.977-8.054,1.107-14.869,0.436c-4.111-0.405,25.136,13.176,25.136,13.176
	C60.354,23.995,54.324,19.981,46.999,17.595z"/>
<path fill="#FDCA47" d="M48.063,18.454c-3.086-1.311-5.387,0-17.33-0.145c-5.729-0.07-1.752,12.377,11.273,12.215l-2.712,14.715
	c0,0,17.762,0.557,19.635-3.633C64.129,29.977,64.063,25.251,48.063,18.454z"/>
<path fill="#CC9200" d="M46.604,29.49c-5.746,0.61-10.108-0.019-14.645-2.836c-3.07-1.907-5.155-7.086-1.704-8.319
	c-3.941-0.099-3.078,7.83,0.94,10.101C39.723,33.245,46.604,29.49,46.604,29.49z"/>
<path fill="#CC9200" d="M37.506,22.615c-4.364,0.767-6.808-1.238-7.392-3.655c-0.585-2.414,5.729-0.798,8.946-0.799
	C39.521,20.061,39.265,22.307,37.506,22.615z"/>
<path fill="#FFE8BB" d="M36.754,22.383c-4.365,0.766-6.808-1.238-7.392-3.654c-0.585-2.414,6.512-0.82,9.046-0.545
	C38.868,20.087,38.512,22.074,36.754,22.383z"/>
</svg>
