<?xml version="1.0" encoding="utf-8"?>
<!-- Generator: Adobe Illustrator 15.0.0, SVG Export Plug-In . SVG Version: 6.00 Build 0)  -->
<!DOCTYPE svg PUBLIC "-//W3C//DTD SVG 1.1//EN" "http://www.w3.org/Graphics/SVG/1.1/DTD/svg11.dtd">
<svg version="1.1" id="Layer_1" xmlns="http://www.w3.org/2000/svg" xmlns:xlink="http://www.w3.org/1999/xlink" x="0px" y="0px"
	 width="64px" height="64px" viewBox="0 0 64 64" enable-background="new 0 0 64 64" xml:space="preserve">
<path fill="#FCD5B2" d="M51.38,22.207L28.252,12.003L2.794,20.041c0,0-3.863,17.877,5.45,28.685c5.64,6.543,2.394,7.52,5.182,9.606
	c6.312,4.725,33.216,5.584,36.593-1.615c3.203-6.83,6.499-9.628,8.911-15.109C61.191,36.464,59.536,22.103,51.38,22.207z"/>
<path fill="#FCD5B2" d="M29.541,8.294c0-8.393,13.444-8.393,13.444,0v18.812c0,3.71-2.987,6.722-6.667,6.722h-0.109
	c-3.685,0-6.668-3.012-6.668-6.722V8.294z"/>
<path fill="#FCD5B2" d="M2.806,15.067c0-8.395,13.443-8.395,13.443,0V25.45c0,3.708-2.984,6.718-6.663,6.718H9.475
	c-3.686,0-6.669-3.01-6.669-6.718V15.067z"/>
<path fill="#DBA97F" d="M7.582,29.675h0.089c3.68,0,6.57-2.965,6.57-6.673V12.611c0-1.003-0.362-1.89-0.751-2.742
	c2.092,1.05,2.759,3.097,2.759,5.275v10.392c0,3.708-2.884,6.632-6.567,6.632H9.6c-2.693,0-5.007-1.586-6.063-3.895
	C4.664,29.136,6.061,29.675,7.582,29.675z"/>
<path fill="#FCD5B2" d="M16.092,9.044c0-8.39,13.449-8.39,13.449,0v18.812c0,3.712-2.987,6.72-6.675,6.72h-0.101
	c-3.688,0-6.674-3.008-6.674-6.72V9.044z"/>
<path fill="#DBA97F" d="M20.838,32.083h0.081c3.686,0,6.609-2.918,6.609-6.628V6.633c0-0.997-0.217-1.844-0.609-2.696
	c1.945,1.2,2.622,3.055,2.622,5.232v18.819c0,3.71-2.926,6.587-6.606,6.587H22.85c-2.689,0-5.002-1.585-6.06-3.895
	C17.911,31.546,19.317,32.083,20.838,32.083z"/>
<path fill="#DBA97F" d="M29.14,25.861l11.854-1.077V5.961c0-0.997-0.343-1.993-0.736-2.846c2.302,1.539,2.749,3.204,2.749,5.382
	v18.819l-10.382,5.474c0,0-2.548-0.198-3.485-3.301V25.861z"/>
<path fill="#FCD5B2" d="M42.677,11.719c0-8.393,13.444-8.393,13.444,0v10.386c0,3.705-2.985,6.717-6.668,6.717h-0.107
	c-3.684,0-6.669-3.012-6.669-6.717V11.719z"/>
<path fill="#DBA97F" d="M47.508,26.331h0.086c3.683,0,6.516-2.966,6.516-6.674V9.265c0-1.003-0.215-1.797-0.603-2.65
	c2.043,1.425,2.614,3.005,2.614,5.184V22.19c0,3.708-2.834,6.632-6.516,6.632h-0.087c-2.684,0-5-1.587-6.059-3.895
	C44.584,25.79,45.985,26.331,47.508,26.331z"/>
<path fill="#DBA97F" d="M43.46,30.104c-7.996-5.369-18.138,1.858-15.679,13.137C29.592,31.158,43.46,30.104,43.46,30.104z"/>
<path fill="#DBA97F" d="M46.999,17.595c-2.998-0.977-8.054,1.107-14.869,0.436c-4.111-0.405,25.136,13.176,25.136,13.176
	C60.354,23.995,54.324,19.981,46.999,17.595z"/>
<path fill="#FCD5B2" d="M48.063,18.454c-3.086-1.312-5.387,0-17.33-0.145c-5.729-0.07-1.753,12.377,11.273,12.215L39.295,45.24
	c0,0,17.762,0.556,19.635-3.633C64.129,29.977,64.063,25.25,48.063,18.454z"/>
<path fill="#DBA97F" d="M46.604,29.49c-5.746,0.609-10.108-0.02-14.646-2.836c-3.069-1.907-5.154-7.087-1.703-8.319
	c-3.941-0.099-3.078,7.83,0.94,10.102C39.723,33.246,46.604,29.49,46.604,29.49z"/>
<path fill="#DBA97F" d="M37.506,22.615c-4.364,0.768-6.809-1.238-7.393-3.654c-0.585-2.414,5.729-0.798,8.946-0.8
	C39.521,20.061,39.265,22.307,37.506,22.615z"/>
<path fill="#FFE6CF" d="M36.754,22.382c-4.365,0.767-6.808-1.237-7.392-3.653c-0.585-2.414,6.512-0.82,9.046-0.546
	C38.868,20.086,38.512,22.074,36.754,22.382z"/>
</svg>
