<?xml version="1.0" encoding="utf-8"?>
<!-- Generator: Adobe Illustrator 15.0.0, SVG Export Plug-In . SVG Version: 6.00 Build 0)  -->
<!DOCTYPE svg PUBLIC "-//W3C//DTD SVG 1.1//EN" "http://www.w3.org/Graphics/SVG/1.1/DTD/svg11.dtd">
<svg version="1.1" id="Layer_1" xmlns="http://www.w3.org/2000/svg" xmlns:xlink="http://www.w3.org/1999/xlink" x="0px" y="0px"
	 width="64px" height="64px" viewBox="0 0 64 64" enable-background="new 0 0 64 64" xml:space="preserve">
<path fill="#614A36" d="M51.395,32c-7.891,0-7.449,6-11.395,6v-4H8v10c0,9.188,3.947,18,15.78,18l0,0l0,0
	c19.724,0,17.751-18,31.56-26C57.051,35.008,55.332,32,51.395,32z"/>
<path fill="#3B2B1C" d="M51.395,32c-0.473,0-0.91,0.023-1.326,0.064c3.436,0.33,4.877,3.004,3.271,3.936
	c-13.508,7.826-11.928,25.213-30.316,25.965C23.279,61.973,23.518,62,23.781,62c19.723,0,17.75-18,31.559-26
	C57.051,35.008,55.332,32,51.395,32z"/>
<path fill="#614A36" d="M32,10.043L31,38h9V10.043C40,4.652,32,4.652,32,10.043z"/>
<path fill="#614A36" d="M24,6.045V38h8V6.045C32,0.652,24,0.652,24,6.045z"/>
<path fill="#614A36" d="M16,8.045V38h9L24,8.045C24,2.654,16,2.654,16,8.045z"/>
<path fill="#614A36" d="M8,16.045V40h9l-1-23.955C16,10.652,8,10.652,8,16.045z"/>
<path fill="#3B2B1C" d="M35.004,6.129c1.613,0.379,3,1.674,3,3.914V38H40V10.043C40,6.893,37.273,5.6,35.004,6.129z"/>
<path fill="#3B2B1C" d="M27,2.115c1.617,0.379,3.002,1.674,3.002,3.916V30H32V6.031C32,2.879,29.273,1.586,27,2.115z"/>
<path fill="#3B2B1C" d="M19,4.119c1.617,0.377,3.002,1.67,3.002,3.912V30H24V8.031C24,4.881,21.273,3.584,19,4.119z"/>
<path fill="#3B2B1C" d="M11.002,12.117c1.615,0.379,3.002,1.672,3.002,3.914V32H16V16.031C16,12.881,13.273,11.584,11.002,12.117z"
	/>
<path fill="#3B2B1C" d="M40,36h-2c-3.824,1.178-10,6-10,13.676C30.043,42.814,36,38,40,38V36z"/>
<path fill="#3B2B1C" d="M17.5,32c0,0-2,0-5.5,2c0,0,3-2.5,3-6C15.5,32,17.5,32,17.5,32z"/>
<path fill="#3B2B1C" d="M25.5,31.5c0,0-3-0.5-5.5,0.5c0,0,2.5-1.5,3-5.5C23.5,30.5,25.5,31.5,25.5,31.5z"/>
<path fill="#3B2B1C" d="M34,32c0,0-2-1.5-5.5-0.5c0,0,2.5-1.5,2.5-5.5C31,30,34,32,34,32z"/>
</svg>
