<?xml version="1.0" encoding="utf-8"?>
<!-- Generator: Adobe Illustrator 15.0.0, SVG Export Plug-In . SVG Version: 6.00 Build 0)  -->
<!DOCTYPE svg PUBLIC "-//W3C//DTD SVG 1.1//EN" "http://www.w3.org/Graphics/SVG/1.1/DTD/svg11.dtd">
<svg version="1.1" id="Layer_1" xmlns="http://www.w3.org/2000/svg" xmlns:xlink="http://www.w3.org/1999/xlink" x="0px" y="0px"
	 width="64px" height="64px" viewBox="0 0 64 64" enable-background="new 0 0 64 64" xml:space="preserve">
<path fill="#916B50" d="M37.329,31.896c-0.524,2.238,0.927,4.477,3.237,4.995l0.038,0.009c2.313,0.52,4.613-0.875,5.137-3.113
	l6.125-26.191c0.523-2.238-0.93-4.477-3.241-4.996L48.588,2.59c-2.312-0.519-4.61,0.876-5.136,3.114L37.329,31.896z"/>
<path fill="#664935" d="M38.897,35.551l0.045,0.011c2.309,0.518,4.601-0.909,5.126-3.151l6.121-26.189
	c0.283-1.216,0.009-2.388-0.691-3.327c2.059,0.938,2.832,2.717,2.375,4.674L45.75,33.757c-0.522,2.241-2.818,3.665-5.131,3.146
	l-0.037-0.01c-1.057-0.236-1.933-0.831-2.522-1.623C38.321,35.39,38.603,35.484,38.897,35.551z"/>
<path fill="#916B50" d="M45.229,34.508c0,0-8.671-8.585-24.108-4.274c0,0-9.129,1.602-8.634,6.195c0,0-0.296,11.43,3.638,18.182
	c5.851,10.055,28.645,11.74,34.319-7.021C51.571,43.861,50.692,33.86,45.229,34.508z"/>
<path fill="#916B50" d="M29.704,33.356c0.429,2.259,2.67,3.745,5,3.318l0.036-0.007c2.333-0.427,3.88-2.604,3.451-4.862L33.17,5.392
	c-0.429-2.258-2.669-3.744-5.003-3.319L28.13,2.081c-2.332,0.425-3.874,2.603-3.444,4.861L29.704,33.356z"/>
<path fill="#664935" d="M32.628,36.097l0.043-0.008c2.331-0.427,3.853-2.63,3.423-4.891L31.073,4.784
	C30.84,3.558,29.998,2.587,28.972,2c2.214,0,3.818,1.389,4.192,3.361l5.019,26.413c0.43,2.262-1.096,4.465-3.43,4.891l-0.034,0.006
	c-1.068,0.196-2.114-0.007-2.974-0.504C32.033,36.175,32.331,36.15,32.628,36.097z"/>
<path fill="#916B50" d="M12.025,32.099c-0.255-2.338,1.442-4.432,3.796-4.678l0.071-0.008c2.349-0.246,4.458,1.446,4.712,3.784
	l0.71,6.538c0.255,2.336-1.44,4.432-3.793,4.678l-0.069,0.008c-2.354,0.248-4.464-1.448-4.717-3.782L12.025,32.099z"/>
<path fill="#916B50" d="M20.092,27.413c-0.252-2.334,1.445-4.43,3.795-4.676l0.069-0.008c2.35-0.247,4.464,1.445,4.72,3.781
	l0.708,6.541c0.256,2.336-1.445,4.434-3.796,4.68l-0.068,0.006c-2.351,0.248-4.463-1.446-4.719-3.784L20.092,27.413z"/>
<path fill="#664935" d="M16.073,40.979l0.058-0.006c2.348-0.247,3.991-2.308,3.735-4.644l-0.71-6.545
	c-0.071-0.631-0.426-1.345-0.729-1.855c1.467,0.73,2.031,1.944,2.181,3.318l0.715,6.543c0.251,2.334-1.387,4.371-3.738,4.617
	l-0.05,0.006c-1.721,0.182-3.305-0.663-4.138-2.046C14.174,40.835,15.101,41.081,16.073,40.979z"/>
<path fill="#664935" d="M24.121,36.297l0.055-0.006c2.349-0.247,4.015-2.28,3.761-4.618l-0.712-6.545
	c-0.067-0.629-0.432-1.377-0.739-1.889c1.439,0.75,2.048,1.98,2.198,3.352l0.71,6.543c0.255,2.336-1.415,4.346-3.764,4.592
	l-0.053,0.006c-1.717,0.182-3.303-0.661-4.134-2.046C22.216,36.155,23.147,36.399,24.121,36.297z"/>
<path fill="#664935" d="M41.398,40.822c-4.804-2.338-15.659,1.651-13.538,11.674C27.86,42.081,37.251,40.327,41.398,40.822z"/>
<path fill="#664935" d="M39.571,30.511c-3.451-2.057-4.14,1.186-10.007,1.359c-2.569,0.074-3.713,5.396,0.177,7.323
	c5.416,2.681,5.841-1.114,7.157,0.364c1.403,1.573,2.726,1.881,3.909,3.703c0.86,1.322,7.576-0.717,8.285-3.432
	C50.458,34.618,45.048,33.773,39.571,30.511z"/>
<path fill="#916B50" d="M40.015,31.418c-3.586-2.139-4.302,1.233-10.409,1.415c-2.674,0.076-3.862,5.612,0.189,7.617
	c5.632,2.789,6.071-1.16,7.442,0.381c1.463,1.635,2.836,1.955,4.064,3.852c0.895,1.377-1.486,6.579-1.486,6.579
	s6.904,4.867,8.313,2.093c2.617-5.15,1.874-9.211,1.793-12.242C49.73,34.129,45.716,34.812,40.015,31.418z"/>
<path fill="#664935" d="M46.949,34.878c3.833,1.76,3.649,11.7,0.794,16.488C40.636,63.274,25.079,63.079,17.7,56.703
	c6.84,7.315,23.408,8.038,31.129-4.306C51.923,47.456,52.889,36.132,46.949,34.878z"/>
<path fill="#664935" d="M40.517,44.819c0.276,0.425,0.241,1.218,0.06,2.109c0.41-1.357,0.684-2.77,0.278-3.395
	c-1.23-1.896-1.929-2.287-3.385-3.923c-1.376-1.54-1.814,2.409-7.448-0.378c-2.081-1.033-2.772-2.996-2.594-4.672
	c-0.789,1.814-0.396,4.642,2.259,5.957c5.632,2.788,6.072-1.162,7.444,0.379C38.592,42.533,39.289,42.924,40.517,44.819z"/>
</svg>
