<?xml version="1.0" encoding="utf-8"?>
<!-- Generator: Adobe Illustrator 15.0.0, SVG Export Plug-In . SVG Version: 6.00 Build 0)  -->
<!DOCTYPE svg PUBLIC "-//W3C//DTD SVG 1.1//EN" "http://www.w3.org/Graphics/SVG/1.1/DTD/svg11.dtd">
<svg version="1.1" id="Layer_1" xmlns="http://www.w3.org/2000/svg" xmlns:xlink="http://www.w3.org/1999/xlink" x="0px" y="0px"
	 width="64px" height="64px" viewBox="0 0 64 64" enable-background="new 0 0 64 64" xml:space="preserve">
<path fill="#FDCA47" d="M37.328,31.896c-0.523,2.238,0.928,4.477,3.238,4.995l0.037,0.009c2.314,0.52,4.613-0.875,5.137-3.113
	l6.125-26.191c0.523-2.238-0.93-4.477-3.24-4.996L48.588,2.59c-2.313-0.519-4.611,0.876-5.137,3.114L37.328,31.896z"/>
<path fill="#CC9200" d="M38.896,35.551l0.045,0.011c2.309,0.518,4.602-0.909,5.127-3.151l6.121-26.189
	c0.283-1.216,0.008-2.388-0.691-3.327c2.059,0.938,2.832,2.717,2.375,4.674L45.75,33.757c-0.523,2.241-2.818,3.665-5.131,3.146
	l-0.037-0.01c-1.057-0.236-1.934-0.831-2.523-1.623C38.32,35.39,38.602,35.484,38.896,35.551z"/>
<path fill="#FDCA47" d="M45.229,34.508c0,0-8.672-8.585-24.109-4.274c0,0-9.129,1.602-8.633,6.195c0,0-0.297,11.43,3.637,18.182
	c5.852,10.055,28.644,11.74,34.32-7.021C51.57,43.861,50.691,33.86,45.229,34.508z"/>
<path fill="#FDCA47" d="M29.704,33.356c0.43,2.259,2.67,3.745,5,3.318l0.037-0.007c2.332-0.427,3.879-2.604,3.451-4.862L33.17,5.392
	c-0.429-2.258-2.669-3.744-5.003-3.319l-0.037,0.009c-2.332,0.425-3.873,2.603-3.443,4.861L29.704,33.356z"/>
<path fill="#CC9200" d="M32.627,36.097l0.043-0.008c2.332-0.427,3.853-2.63,3.423-4.891L31.073,4.784
	C30.84,3.558,29.999,2.587,28.971,2c2.215,0,3.818,1.389,4.193,3.361l5.018,26.413c0.43,2.262-1.096,4.465-3.43,4.891l-0.033,0.006
	c-1.068,0.196-2.115-0.007-2.974-0.504C32.034,36.175,32.331,36.15,32.627,36.097z"/>
<path fill="#FDCA47" d="M12.026,32.099c-0.256-2.338,1.441-4.432,3.795-4.678l0.072-0.008c2.348-0.246,4.457,1.446,4.711,3.784
	l0.711,6.538c0.254,2.336-1.441,4.432-3.793,4.678l-0.07,0.008c-2.354,0.248-4.463-1.448-4.717-3.782L12.026,32.099z"/>
<path fill="#FDCA47" d="M20.092,27.413c-0.252-2.334,1.445-4.43,3.795-4.676l0.068-0.008c2.35-0.247,4.465,1.445,4.721,3.781
	l0.707,6.541c0.256,2.336-1.445,4.434-3.795,4.68l-0.068,0.006c-2.352,0.248-4.463-1.446-4.719-3.784L20.092,27.413z"/>
<path fill="#CC9200" d="M16.073,40.979l0.059-0.006c2.348-0.247,3.99-2.308,3.734-4.644l-0.709-6.545
	c-0.072-0.631-0.426-1.345-0.73-1.855c1.467,0.73,2.031,1.944,2.182,3.318l0.715,6.543c0.25,2.334-1.387,4.371-3.738,4.617
	l-0.051,0.006c-1.721,0.182-3.305-0.663-4.137-2.046C14.174,40.835,15.1,41.081,16.073,40.979z"/>
<path fill="#CC9200" d="M24.122,36.297l0.055-0.006c2.348-0.247,4.014-2.28,3.76-4.618l-0.711-6.545
	c-0.068-0.629-0.432-1.377-0.74-1.889c1.439,0.75,2.049,1.98,2.199,3.352l0.709,6.543c0.256,2.336-1.414,4.346-3.764,4.592
	l-0.053,0.006c-1.717,0.182-3.303-0.661-4.133-2.046C22.215,36.155,23.147,36.399,24.122,36.297z"/>
<path fill="#CC9200" d="M41.398,40.822c-4.805-2.338-15.66,1.651-13.539,11.674C27.86,42.081,37.25,40.327,41.398,40.822z"/>
<path fill="#CC9200" d="M39.57,30.511c-3.451-2.057-4.139,1.186-10.005,1.359c-2.57,0.074-3.713,5.396,0.176,7.323
	c5.416,2.681,5.841-1.114,7.158,0.364c1.402,1.573,2.725,1.881,3.908,3.703c0.861,1.322,7.576-0.717,8.285-3.432
	C50.457,34.618,45.047,33.773,39.57,30.511z"/>
<path fill="#FDCA47" d="M40.014,31.418c-3.586-2.139-4.301,1.233-10.408,1.415c-2.674,0.076-3.863,5.612,0.189,7.617
	c5.63,2.789,6.07-1.16,7.441,0.381c1.463,1.635,2.836,1.955,4.064,3.852c0.895,1.377-1.486,6.579-1.486,6.579
	s6.904,4.867,8.314,2.093c2.617-5.15,1.873-9.211,1.793-12.242C49.73,34.129,45.715,34.812,40.014,31.418z"/>
<path fill="#CC9200" d="M46.949,34.878c3.832,1.76,3.648,11.7,0.793,16.488C40.635,63.274,25.079,63.079,17.7,56.703
	c6.84,7.315,23.408,8.038,31.128-4.306C51.922,47.456,52.889,36.132,46.949,34.878z"/>
<path fill="#CC9200" d="M40.516,44.819c0.277,0.425,0.242,1.218,0.061,2.109c0.41-1.357,0.684-2.77,0.277-3.395
	c-1.23-1.896-1.928-2.287-3.385-3.923c-1.375-1.54-1.814,2.409-7.447-0.378c-2.082-1.033-2.773-2.996-2.594-4.672
	c-0.789,1.814-0.396,4.642,2.258,5.957c5.632,2.788,6.072-1.162,7.445,0.379C38.592,42.533,39.289,42.924,40.516,44.819z"/>
</svg>
