<?xml version="1.0" encoding="utf-8"?>
<!-- Generator: Adobe Illustrator 15.0.0, SVG Export Plug-In . SVG Version: 6.00 Build 0)  -->
<!DOCTYPE svg PUBLIC "-//W3C//DTD SVG 1.1//EN" "http://www.w3.org/Graphics/SVG/1.1/DTD/svg11.dtd">
<svg version="1.1" id="Layer_1" xmlns="http://www.w3.org/2000/svg" xmlns:xlink="http://www.w3.org/1999/xlink" x="0px" y="0px"
	 width="64px" height="64px" viewBox="0 0 64 64" enable-background="new 0 0 64 64" xml:space="preserve">
<path fill="#3B2B1C" d="M10.8,55.83c0.386,3.889,4.456,3.563,5.172,2.3c0.451-0.795,0.845-1.576,1.204-2.347
	c0.962,4.802,5.07,3.412,5.417,2.095C26.466,43.172,9.818,45.978,10.8,55.83z"/>
<path fill="#614A36" d="M55.515,35.99c0,0-29.569-11.165-33.22-11.12c-3.341,0.04-6.635,3.216-15.909,8.025
	c-3.063,1.589-1.459,8.619-4.198,18.131c-1.081,3.754,2.815,4.975,3.949,4.069c13.781-10.996,16.85,5.072,26.39,5.308
	c14.859,0.366,6.31-1.911,24.828-2.02C64.991,58.342,62.386,38.414,55.515,35.99z"/>
<path fill="#3B2B1C" d="M57.542,55.733c-4.316,0.013-9.45,0.551-13.22,1.102c-9.443,1.38-24.217-15.387-37.998-4.389
	c-0.88,0.7-3.412,0.117-4.004-1.929c-0.046,0.171-0.083,0.337-0.133,0.509c-1.081,3.754,2.815,4.975,3.949,4.069
	c13.781-10.996,16.58,5.677,26.123,5.677c15.766,0,6.576-2.28,25.095-2.389c3.228-0.019,4.62-2.711,4.639-7.231
	C61.516,54.402,60.11,55.726,57.542,55.733z"/>
<path fill="#3B2B1C" d="M22.295,38.449c0,0,9.208-10.2,11.917-10.147l-5.594-1.986L22.295,38.449z"/>
<path fill="#3B2B1C" d="M7.664,49.311c0,0,5.269-7.947,9.304-10.654c0,0-5.646,1.054-5.646,2.42
	C11.321,42.305,7.664,49.311,7.664,49.311z"/>
<polygon fill="#302C3B" points="43.991,4.419 40.399,2 37.194,6.739 36.284,6.128 6.978,49.453 3.881,58.902 3.881,58.902 
	2.188,61.405 3.068,62 4.762,59.496 12.39,53.095 41.695,9.77 40.786,9.158 "/>
<path fill="#614A36" d="M46.702,56.424c11.287-2.238-10.141-23.937-24.407-17.975c-2.656,1.109-8.274,7.092-14.637,10.911
	c-2.331,1.398-0.167,9.139,4.481,7.226c8.598-3.54,10.547-5.345,12.974-5.478C32,50.731,29.326,59.868,46.702,56.424z"/>
<path fill="#3B2B1C" d="M10.503,47.58c-3.35,1.577-2.631,2.987-1.575,4.646c1.056,1.66,2.026,2.909,4.859,0.516
	c1.057-0.892,0.741-2.264-0.093-3.575C12.859,47.853,11.754,46.99,10.503,47.58z"/>
<path fill="#8A7059" d="M9.933,47.855c-3.53,1.664-2.795,3.116-1.708,4.824c1.085,1.707,2.088,2.987,5.073,0.467
	c1.109-0.939,0.796-2.345-0.058-3.688C12.384,48.115,11.245,47.238,9.933,47.855z"/>
</svg>
