<?xml version="1.0" encoding="utf-8"?>
<!-- Generator: Adobe Illustrator 15.0.0, SVG Export Plug-In . SVG Version: 6.00 Build 0)  -->
<!DOCTYPE svg PUBLIC "-//W3C//DTD SVG 1.1//EN" "http://www.w3.org/Graphics/SVG/1.1/DTD/svg11.dtd">
<svg version="1.1" id="Layer_1" xmlns="http://www.w3.org/2000/svg" xmlns:xlink="http://www.w3.org/1999/xlink" x="0px" y="0px"
	 width="64px" height="64px" viewBox="0 0 64 64" enable-background="new 0 0 64 64" xml:space="preserve">
<rect x="10.232" y="22.69" transform="matrix(0.7072 -0.707 0.707 0.7072 -13.8761 31.7418)" fill="#F9C802" width="42.299" height="19.865"/>
<path fill="#E81C27" d="M59.459,6.329l-1.787-1.787c-3.387-3.385-8.863-3.389-12.245-0.013l-6.111,6.116l14.042,14.043l6.113-6.113
	C62.85,15.198,62.842,9.714,59.459,6.329z"/>
<path fill="#B00505" d="M59.459,6.329c0,0,2.332,4.088-1.549,7.969c-2.039,2.039-7.473,7.473-7.473,7.473l2.92,2.918l6.113-6.113
	C62.85,15.198,62.842,9.714,59.459,6.329z"/>
<rect x="43.661" y="14.337" transform="matrix(0.707 -0.7072 0.7072 0.707 -1.6351 39.0953)" fill="#6E8189" width="5.41" height="14.368"/>
<rect x="41.012" y="12.068" transform="matrix(0.7073 -0.7069 0.7069 0.7073 -0.5457 36.4291)" fill="#CFD8DD" width="5.41" height="13.61"/>
<rect x="36.118" y="11.967" transform="matrix(0.7073 -0.7069 0.7069 0.7073 1.4828 31.5362)" fill="#E6EBEF" width="5.41" height="4.022"/>
<polygon fill="#FED0AC" points="9.403,40.553 3.343,56.456 7.531,60.668 23.449,54.601 "/>
<polygon fill="#EBBB96" points="18.768,49.917 6.176,59.29 7.531,60.668 23.449,54.601 "/>
<polygon fill="#FFE1BD" points="9.403,40.553 5.228,51.517 7.226,53.517 14.086,45.238 "/>
<path fill="#302C3B" d="M2.278,59.233c-0.838,2.209,0.284,3.328,2.488,2.487l7.721-2.94l-7.259-7.264L2.278,59.233z"/>
<path fill="#4E5E67" d="M2.187,59.5c-0.517,1.366,5.039-5.983,5.039-5.983l-1.998-2C5.228,51.517,3.162,56.923,2.187,59.5z"/>
<rect x="21.479" y="11.41" transform="matrix(0.7069 0.7073 -0.7073 0.7069 28.3831 -8.783)" fill="#FFE463" width="6.619" height="36.889"/>
<rect x="30.84" y="20.771" transform="matrix(0.7069 0.7073 -0.7073 0.7069 37.7488 -12.6612)" fill="#EA8800" width="6.622" height="36.89"/>
<path fill-rule="evenodd" clip-rule="evenodd" fill="#F46C60" d="M45.385,7.317c-0.57,2.211,5.035-0.244,10.455-2.105
	C59.331,4.018,47.098,0.665,45.385,7.317z"/>
</svg>
