<?xml version="1.0" encoding="utf-8"?>
<!-- Generator: Adobe Illustrator 15.0.0, SVG Export Plug-In . SVG Version: 6.00 Build 0)  -->
<!DOCTYPE svg PUBLIC "-//W3C//DTD SVG 1.1//EN" "http://www.w3.org/Graphics/SVG/1.1/DTD/svg11.dtd">
<svg version="1.1" id="Layer_1" xmlns="http://www.w3.org/2000/svg" xmlns:xlink="http://www.w3.org/1999/xlink" x="0px" y="0px"
	 width="64px" height="64px" viewBox="0 0 64 64" enable-background="new 0 0 64 64" xml:space="preserve">
<path fill="#CFD8DD" d="M48.711,41.142l-7.568,7.568l7.646,11.431c0,0,5.973-0.776,11.697,1.857l-9.152-9.151
	c-0.432,0.031-0.868-0.111-1.189-0.431c-0.602-0.604-0.581-1.598,0.048-2.228c0.626-0.625,1.621-0.645,2.226-0.045
	c0.32,0.323,0.461,0.76,0.428,1.191L62,60.487c-2.633-5.727-1.857-11.697-1.857-11.697L48.711,41.142z"/>
<path fill="#99A8AE" d="M44.93,44.927l-3.786,3.785l7.647,11.43c0,0,5.973-0.775,11.697,1.858l-9.152-9.151
	c-0.432,0.031-0.868-0.111-1.188-0.431c-0.603-0.604-0.582-1.598,0.047-2.228L44.93,44.927z"/>
<path fill="#BEC3CF" d="M48.711,41.142l-7.568,7.568c0,0,6.293-0.02,6.921-0.65c2.757-2.75,3.446-4.997,3.446-4.997L48.711,41.142z"
	/>
<path fill="#6E8189" d="M44.93,44.927l-3.786,3.785l1.868,2.793c0,0,2.299-0.682,5.055-3.443L44.93,44.927z"/>
<path fill="#302C3B" d="M39.094,50.444c3.047,3.048,14.398-8.305,11.351-11.352l-3.43-3.431L35.663,47.015L39.094,50.444z"/>
<path fill="#99A8AE" d="M35.664,47.015c3.047,3.049,14.398-8.305,11.351-11.353L35.584,24.231L24.232,35.584L35.664,47.015z"/>
<path fill="#302C3B" d="M32.806,44.157c3.048,3.047,14.398-8.305,11.352-11.353L20.153,8.801L8.801,20.152L32.806,44.157z"/>
<path fill="#99A8AE" d="M9.373,20.724c3.048,3.049,14.4-8.303,11.352-11.352L15.01,3.657L3.658,15.009L9.373,20.724z"/>
<path fill="#302C3B" d="M5.943,17.295c3.049,3.048,14.4-8.304,11.353-11.352l-3.429-3.429L2.516,13.866L5.943,17.295z"/>
<path fill="#CFD8DD" d="M47.317,38.235l-2.857-2.856c-0.288,0.909-0.854,1.927-1.595,2.946l2.858,2.857
	C46.464,40.163,47.029,39.146,47.317,38.235z"/>
<path fill="#CFD8DD" d="M17.599,8.517c-0.288,0.91-0.854,1.928-1.595,2.947l3.43,3.43c0.74-1.021,1.307-2.038,1.594-2.947
	L17.599,8.517z"/>
<path fill="#4E5E67" d="M50.746,41.665l-3.429-3.43c-0.288,0.91-0.854,1.928-1.594,2.947l3.43,3.43
	C49.893,43.591,50.459,42.574,50.746,41.665z"/>
<path fill="#4E5E67" d="M21.027,11.946c-0.287,0.909-0.854,1.926-1.594,2.947l23.432,23.432c0.741-1.02,1.307-2.037,1.595-2.946
	L21.027,11.946z"/>
<path fill="#4E5E67" d="M14.17,5.089c-0.287,0.909-0.854,1.926-1.596,2.945l3.43,3.43c0.74-1.02,1.307-2.037,1.595-2.947
	L14.17,5.089z"/>
<path fill="#99A8AE" d="M2.516,13.866c-3.05-3.049,8.303-14.4,11.352-11.352C16.915,5.563,5.563,16.915,2.516,13.866z"/>
<path fill="#CFD8DD" d="M3.006,12.938c-2.669-2.667,7.266-12.601,9.932-9.933C15.605,5.672,5.672,15.604,3.006,12.938z"/>
</svg>
