<?xml version="1.0" encoding="utf-8"?>
<!-- Generator: Adobe Illustrator 15.0.0, SVG Export Plug-In . SVG Version: 6.00 Build 0)  -->
<!DOCTYPE svg PUBLIC "-//W3C//DTD SVG 1.1//EN" "http://www.w3.org/Graphics/SVG/1.1/DTD/svg11.dtd">
<svg version="1.1" id="Layer_1" xmlns="http://www.w3.org/2000/svg" xmlns:xlink="http://www.w3.org/1999/xlink" x="0px" y="0px"
	 width="64px" height="64px" viewBox="0 0 64 64" enable-background="new 0 0 64 64" xml:space="preserve">
<polygon fill="#302C3B" points="40.334,32.001 57,15.333 48.667,7 32,23.667 15.334,7.001 7,15.333 23.667,32 7,48.667 15.335,57 
	32.001,40.334 48.667,57 57,48.667 "/>
<rect x="11.048" y="14.988" transform="matrix(0.7071 0.7071 -0.7071 0.7071 18.1201 -11.41)" fill="#1A1626" width="23.57" height="2.357"/>
<rect x="46.655" y="11.048" transform="matrix(-0.7071 -0.7071 0.7071 -0.7071 65.5112 72.8026)" fill="#1A1626" width="2.357" height="23.571"/>
<polygon fill="#1A1626" points="55.333,47 48.668,53.667 32.001,37 15.334,53.667 8.667,47 7,48.667 15.335,57 32.001,40.334 
	48.667,57 57,48.667 "/>
<polygon fill="#4E5E67" points="16.149,23.067 10.089,15.415 11.299,12.448 8.415,15.334 "/>
<polygon fill="#4E5E67" points="53.069,13.067 48.749,10.34 45.782,11.552 48.668,8.666 "/>
</svg>
