<?xml version="1.0" encoding="utf-8"?>
<!-- Generator: Adobe Illustrator 15.0.0, SVG Export Plug-In . SVG Version: 6.00 Build 0)  -->
<!DOCTYPE svg PUBLIC "-//W3C//DTD SVG 1.1//EN" "http://www.w3.org/Graphics/SVG/1.1/DTD/svg11.dtd">
<svg version="1.1" id="Layer_1" xmlns="http://www.w3.org/2000/svg" xmlns:xlink="http://www.w3.org/1999/xlink" x="0px" y="0px"
	 width="64px" height="64px" viewBox="0 0 64 64" enable-background="new 0 0 64 64" xml:space="preserve">
<path fill="#AA5BEF" d="M62,50c0,6.601-5.4,12-12,12H14C7.4,62,2,56.601,2,50V14C2,7.399,7.4,2,14,2h36c6.6,0,12,5.399,12,12V50z"/>
<path fill="#8D40CF" d="M56.838,4.162C58.195,6.105,59,8.462,59,11v37c0,6.601-4.4,11-11,11H11c-2.537,0-4.894-0.804-6.838-2.162
	C6.336,59.95,9.938,62,14,62h36c6.6,0,12-5.399,12-12V14C62,9.938,59.949,6.336,56.838,4.162z"/>
<path fill-rule="evenodd" clip-rule="evenodd" fill="#C28FEF" d="M4.975,12.585c0.339,2.703,4.793-2.587,9.303-7.136
	C17.188,2.524,3.957,4.45,4.975,12.585z"/>
<path fill="#FFFFFF" d="M44.173,32l6.493-10.667H37.681L31.999,12l-5.681,9.333H13.333L19.825,32l-6.492,10.666h12.985L31.999,52
	l5.682-9.334h12.985L44.173,32z M44.479,24.666l-2.363,3.952l-2.406-3.952H44.479z M40.094,32l-4.387,7.333h-7.415L23.907,32
	l4.385-7.334h7.415L40.094,32z M31.999,18.467l1.714,2.866h-3.428L31.999,18.467z M19.521,24.666h4.768l-2.405,3.951L19.521,24.666z
	 M19.521,39.333l2.362-3.952l2.405,3.952H19.521z M31.999,45.532l-1.714-2.866h3.428L31.999,45.532z M42.115,35.38l2.363,3.953
	h-4.77L42.115,35.38z"/>
</svg>
