<?xml version="1.0" encoding="utf-8"?>
<!-- Generator: Adobe Illustrator 15.0.0, SVG Export Plug-In . SVG Version: 6.00 Build 0)  -->
<!DOCTYPE svg PUBLIC "-//W3C//DTD SVG 1.1//EN" "http://www.w3.org/Graphics/SVG/1.1/DTD/svg11.dtd">
<svg version="1.1" id="Layer_1" xmlns="http://www.w3.org/2000/svg" xmlns:xlink="http://www.w3.org/1999/xlink" x="0px" y="0px"
	 width="64px" height="64px" viewBox="0 0 64 64" enable-background="new 0 0 64 64" xml:space="preserve">
<path fill="#F9C802" d="M22.625,2c0,0-1.758,20.625-20.625,30c18.867,9.375,20.625,30,20.625,30s1.758-20.625,20.625-30
	C24.383,22.625,22.625,2,22.625,2z"/>
<path fill="#F59E01" d="M29.148,22.789C30.042,28.765,32,32,32,32c-5.533,6.056-8.15,15.061-9.375,21.6
	c2.187-6.539,6.866-15.544,16.753-21.6C35.043,29.344,31.709,26.122,29.148,22.789z"/>
<path fill="#E635DE" d="M47,32c0,0-0.879,10.313-10.313,15C46.121,51.688,47,62,47,62s0.879-10.313,10.313-15
	C47.879,42.313,47,32,47,32z"/>
<path fill="#B30BAD" d="M50.261,42.395C50.709,45.381,51.688,47,51.688,47c-2.767,3.026-4.076,7.531-4.688,10.8
	c1.094-3.268,3.434-7.771,8.377-10.8C53.209,45.673,51.543,44.062,50.261,42.395z"/>
<path fill="#A6E639" d="M51.688,2c0,0-0.879,10.313-10.313,15c9.434,4.688,10.313,15,10.313,15S52.566,21.688,62,17
	C52.566,12.313,51.688,2,51.688,2z"/>
<path fill="#92C932" d="M54.948,12.395C55.396,15.382,56.375,17,56.375,17c-2.767,3.027-4.076,7.531-4.688,10.8
	c1.094-3.268,3.434-7.771,8.377-10.8C57.896,15.672,56.23,14.061,54.948,12.395z"/>
</svg>
