<?xml version="1.0" encoding="utf-8"?>
<!-- Generator: Adobe Illustrator 15.0.0, SVG Export Plug-In . SVG Version: 6.00 Build 0)  -->
<!DOCTYPE svg PUBLIC "-//W3C//DTD SVG 1.1//EN" "http://www.w3.org/Graphics/SVG/1.1/DTD/svg11.dtd">
<svg version="1.1" id="Layer_1" xmlns="http://www.w3.org/2000/svg" xmlns:xlink="http://www.w3.org/1999/xlink" x="0px" y="0px"
	 width="64px" height="64px" viewBox="0 0 64 64" enable-background="new 0 0 64 64" xml:space="preserve">
<path fill="#75D6FF" d="M34,45.319V18.681l8.401-8.254c0.788-0.774,0.8-2.04,0.025-2.829c-0.774-0.787-2.041-0.798-2.828-0.024
	L34,13.073V4c0-1.104-0.896-2-2-2s-2,0.896-2,2v9.074l-5.599-5.501c-0.788-0.773-2.054-0.763-2.828,0.024
	c-0.773,0.789-0.763,2.055,0.025,2.829L30,18.682v26.638l-8.401,8.254c-0.788,0.774-0.799,2.04-0.025,2.828
	C21.965,56.8,22.482,57,23,57c0.506,0,1.013-0.19,1.401-0.573l5.599-5.5V60c0,1.104,0.896,2,2,2s2-0.896,2-2v-9.073l5.599,5.5
	C39.987,56.81,40.494,57,41,57c0.518,0,1.035-0.2,1.427-0.599c0.774-0.788,0.763-2.054-0.025-2.828L34,45.319z"/>
<path fill="#0FB4D4" d="M33,4v10.056l1-0.982V4c0-1.104-0.896-2-2-2c-0.174,0-0.339,0.029-0.5,0.071C32.361,2.294,33,3.069,33,4z"/>
<path fill="#0FB4D4" d="M23.401,7.573L30,14.057v-0.982l-5.599-5.501c-0.52-0.511-1.246-0.672-1.904-0.502
	C22.827,7.156,23.142,7.317,23.401,7.573z"/>
<path fill="#0FB4D4" d="M34,45.319V18.681l8.401-8.254c0.788-0.774,0.8-2.04,0.025-2.829C41.908,7.07,41.171,6.9,40.503,7.071
	c0.338,0.088,0.66,0.259,0.924,0.526c0.774,0.789,0.763,2.055-0.025,2.829L33,18.681v26.639l8.401,8.254
	c0.788,0.774,0.8,2.04,0.025,2.828c-0.264,0.269-0.587,0.439-0.927,0.527C40.664,56.971,40.831,57,41,57
	c0.518,0,1.035-0.2,1.427-0.599c0.774-0.788,0.763-2.054-0.025-2.828L34,45.319z"/>
<path fill="#0FB4D4" d="M33,49.944V60c0,0.931-0.639,1.706-1.5,1.929C31.661,61.971,31.826,62,32,62c1.104,0,2-0.896,2-2v-9.073
	L33,49.944z"/>
<path fill="#0FB4D4" d="M30,49.944l-6.599,6.482c-0.26,0.255-0.572,0.417-0.901,0.502C22.665,56.971,22.831,57,23,57
	c0.506,0,1.013-0.19,1.401-0.573l5.599-5.5V49.944z"/>
<path fill="#75D6FF" d="M57.502,26.367l-7.728-2.099l8.029-4.536c0.979-0.553,1.313-1.775,0.748-2.732
	c-0.563-0.957-1.815-1.287-2.792-0.732l-8.03,4.537l2.007-7.599c0.283-1.069-0.374-2.161-1.468-2.437
	c-1.09-0.279-2.207,0.367-2.49,1.436l-3.012,11.403L19.188,36.928L7.591,33.779c-1.088-0.296-2.214,0.328-2.516,1.392
	c-0.302,1.064,0.335,2.167,1.423,2.462l7.729,2.099l-8.03,4.536C5.219,44.82,4.884,46.043,5.448,47c0.378,0.642,1.066,1,1.772,1
	c0.347,0,0.698-0.086,1.02-0.268l8.03-4.536l-2.006,7.597c-0.284,1.07,0.375,2.161,1.467,2.438c0.172,0.043,0.343,0.063,0.513,0.063
	c0.909,0,1.739-0.598,1.978-1.499l3.012-11.403l23.576-13.319l11.599,3.148c0.183,0.051,0.367,0.074,0.548,0.074
	c0.895,0,1.718-0.581,1.968-1.467C59.228,27.764,58.59,26.662,57.502,26.367z"/>
<path fill="#0FB4D4" d="M6.569,33.774l12.288,3.341l0.331-0.188L7.591,33.774c-0.355-0.097-0.711-0.087-1.045-0.004
	C6.554,33.772,6.562,33.772,6.569,33.774z"/>
<path fill="#0FB4D4" d="M48.715,13.201l-2.187,8.282l1.201-0.679l2.007-7.604c0.283-1.069-0.374-2.161-1.468-2.437
	c-0.343-0.088-0.687-0.075-1.008,0.005C48.346,11.051,48.996,12.137,48.715,13.201z"/>
<path fill="#0FB4D4" d="M32.32,34.126l12.49-7.054l-0.689-0.188L32.406,33.5C32.37,33.708,32.35,33.917,32.32,34.126z"/>
<path fill="#0FB4D4" d="M29.956,34.909l-9.743,5.478L17.2,51.79c-0.197,0.74-0.796,1.254-1.507,1.422
	c0.014,0.004,0.025,0.011,0.038,0.014c0.172,0.043,0.343,0.063,0.513,0.063c0.909,0,1.739-0.598,1.978-1.499l3.012-11.403
	l8.721-4.923V34.909z"/>
<path fill="#0FB4D4" d="M16.45,42.518l-9.231,5.21c-0.163,0.093-0.334,0.159-0.508,0.203c0.167,0.042,0.337,0.064,0.511,0.064
	c0.347,0,0.698-0.086,1.02-0.268l8.03-4.531L16.45,42.518z"/>
<path fill="#0FB4D4" d="M57.502,26.362l-7.728-2.099l8.029-4.536c0.979-0.553,1.313-1.775,0.748-2.732
	c-0.467-0.791-1.401-1.145-2.264-0.933c0.506,0.133,0.96,0.454,1.242,0.933c0.564,0.957,0.229,2.18-0.748,2.732l-8.03,4.536
	l7.729,2.099c1.087,0.295,1.725,1.396,1.422,2.461c-0.204,0.726-0.799,1.227-1.498,1.392l0.005,0.001
	c0.183,0.051,0.367,0.074,0.548,0.074c0.895,0,1.718-0.581,1.968-1.467C59.228,27.759,58.59,26.657,57.502,26.362z"/>
<path fill="#75D6FF" d="M57.804,44.268l-8.029-4.536l7.728-2.099c1.088-0.295,1.726-1.397,1.423-2.462
	c-0.3-1.063-1.422-1.688-2.516-1.392l-11.598,3.148L21.234,23.608l-3.012-11.403c-0.283-1.068-1.399-1.714-2.491-1.436
	c-1.092,0.276-1.75,1.367-1.467,2.438l2.006,7.598l-8.03-4.536C7.262,15.716,6.013,16.044,5.448,17
	c-0.564,0.957-0.229,2.18,0.749,2.732l8.03,4.537l-7.729,2.098c-1.088,0.295-1.725,1.397-1.423,2.462
	c0.251,0.886,1.073,1.466,1.969,1.466c0.181,0,0.365-0.023,0.547-0.073l11.599-3.149l23.577,13.32l3.012,11.402
	c0.239,0.902,1.068,1.5,1.979,1.5c0.169,0,0.341-0.021,0.512-0.063c1.094-0.276,1.751-1.367,1.468-2.437l-2.007-7.599l8.03,4.536
	C56.082,47.914,56.434,48,56.78,48c0.706,0,1.393-0.358,1.771-1C59.116,46.043,58.782,44.82,57.804,44.268z"/>
<path fill="#0FB4D4" d="M7.218,16.269l9.231,5.215l-0.179-0.679l-8.03-4.536c-0.489-0.276-1.045-0.332-1.551-0.2
	C6.87,16.112,7.049,16.173,7.218,16.269z"/>
<path fill="#0FB4D4" d="M29.956,28.52l-8.721-4.911l-3.012-11.403c-0.283-1.068-1.399-1.714-2.491-1.436
	c-0.005,0.001-0.009,0.004-0.014,0.005c0.7,0.174,1.289,0.698,1.483,1.431l3.012,11.403l9.743,5.488V28.52z"/>
<polygon fill="#0FB4D4" points="35.636,31.677 35.072,32.004 44.121,37.115 44.812,36.928 "/>
<path fill="#0FB4D4" d="M18.858,26.885L6.576,30.22c0.153,0.036,0.307,0.075,0.468,0.075c0.181,0,0.365-0.023,0.547-0.073
	l11.599-3.149L18.858,26.885z"/>
<path fill="#0FB4D4" d="M57.804,44.268l-8.029-4.536l7.728-2.099c1.088-0.295,1.726-1.397,1.423-2.462
	c-0.298-1.056-1.404-1.676-2.491-1.396c0.688,0.17,1.267,0.679,1.469,1.396c0.303,1.064-0.335,2.167-1.422,2.462l-7.729,2.099
	l8.03,4.536C57.76,44.82,58.095,46.043,57.53,47c-0.287,0.484-0.748,0.806-1.262,0.936C56.438,47.979,56.608,48,56.78,48
	c0.706,0,1.393-0.358,1.771-1C59.116,46.043,58.782,44.82,57.804,44.268z"/>
<path fill="#0FB4D4" d="M47.729,43.196l-1.201-0.679l2.187,8.277c0.278,1.057-0.36,2.131-1.43,2.423
	c0.154,0.037,0.31,0.077,0.472,0.077c0.169,0,0.341-0.021,0.512-0.063c1.094-0.276,1.751-1.367,1.468-2.437L47.729,43.196z"/>
</svg>
