<?xml version="1.0" encoding="utf-8"?>
<!-- Generator: Adobe Illustrator 15.0.0, SVG Export Plug-In . SVG Version: 6.00 Build 0)  -->
<!DOCTYPE svg PUBLIC "-//W3C//DTD SVG 1.1//EN" "http://www.w3.org/Graphics/SVG/1.1/DTD/svg11.dtd">
<svg version="1.1" id="Layer_1" xmlns="http://www.w3.org/2000/svg" xmlns:xlink="http://www.w3.org/1999/xlink" x="0px" y="0px"
	 width="64px" height="64px" viewBox="0 0 64 64" enable-background="new 0 0 64 64" xml:space="preserve">
<path fill="#7AB51D" d="M62,50c0,6.6-5.4,12-12,12H14C7.4,62,2,56.6,2,50V14C2,7.399,7.4,2,14,2h36c6.6,0,12,5.399,12,12V50z"/>
<path fill="#529320" d="M56.838,4.162C58.197,6.105,59,8.462,59,11v37c0,6.6-4.398,11-11,11H11c-2.537,0-4.893-0.805-6.838-2.162
	C6.336,59.949,9.938,62,14,62h36c6.602,0,12-5.4,12-12V14C62,9.938,59.951,6.336,56.838,4.162z"/>
<path fill-rule="evenodd" clip-rule="evenodd" fill="#A6E639" d="M4.975,12.585c0.34,2.703,4.793-2.587,9.303-7.136
	C17.188,2.524,3.957,4.45,4.975,12.585z"/>
<path fill="#FFFFFF" d="M32,26.957c0.857,0,3.336-11.887,3.447-15.152C35.504,10.255,33.904,9,32,9
	c-1.902,0-3.502,1.254-3.447,2.805C28.668,15.07,31.141,26.957,32,26.957z"/>
<path fill="#FFFFFF" d="M26.955,32c0-0.857-11.881-3.336-15.15-3.449C10.256,28.497,9,30.096,9,32s1.256,3.502,2.805,3.449
	C15.074,35.333,26.955,32.857,26.955,32z"/>
<path fill="#FFFFFF" d="M28.469,26.438L15.338,15.34l11.1,13.129C27.033,27.725,27.721,27.037,28.469,26.438z"/>
<path fill="#FFFFFF" d="M35.531,37.563L48.66,48.661l-11.096-13.13C36.967,36.273,36.279,36.968,35.531,37.563z"/>
<path fill="#FFFFFF" d="M52.195,28.551C48.928,28.664,37.044,31.143,37.044,32c0,0.856,11.884,3.333,15.151,3.449
	C53.744,35.502,55,33.904,55,32C55.002,30.096,53.744,28.497,52.195,28.551z"/>
<path fill="#FFFFFF" d="M32,37.045c-0.857,0-3.332,11.882-3.447,15.149C28.498,53.742,30.096,55,32.002,55
	c1.902,0,3.502-1.258,3.445-2.806C35.336,48.927,32.855,37.045,32,37.045z"/>
<path fill="#FFFFFF" d="M37.563,28.469l11.1-13.13L35.533,26.436C36.28,27.036,36.965,27.725,37.563,28.469z"/>
<path fill="#FFFFFF" d="M26.439,35.531l-11.102,13.13l13.131-11.099C27.725,36.968,27.031,36.272,26.439,35.531z"/>
<circle fill="#FFFFFF" cx="32" cy="32" r="3.45"/>
</svg>
