<?xml version="1.0" encoding="utf-8"?>
<!-- Generator: Adobe Illustrator 15.0.0, SVG Export Plug-In . SVG Version: 6.00 Build 0)  -->
<!DOCTYPE svg PUBLIC "-//W3C//DTD SVG 1.1//EN" "http://www.w3.org/Graphics/SVG/1.1/DTD/svg11.dtd">
<svg version="1.1" id="Layer_1" xmlns="http://www.w3.org/2000/svg" xmlns:xlink="http://www.w3.org/1999/xlink" x="0px" y="0px"
	 width="64px" height="64px" viewBox="0 0 64 64" enable-background="new 0 0 64 64" xml:space="preserve">
<polygon fill="#E81C27" points="40.334,32.002 57,15.334 48.667,7 32,23.668 15.334,7.002 7,15.334 23.667,32 7,48.668 15.335,57 
	32.001,40.334 48.667,57 57,48.668 "/>
<rect x="11.047" y="14.989" transform="matrix(0.7071 0.7071 -0.7071 0.7071 18.1216 -11.4098)" fill="#C21413" width="23.571" height="2.358"/>
<rect x="46.654" y="11.049" transform="matrix(-0.7069 -0.7073 0.7073 -0.7069 65.4962 72.8086)" fill="#C21413" width="2.358" height="23.571"/>
<polygon fill="#C21413" points="55.333,47 48.668,53.668 32.001,37 15.334,53.668 8.667,47 7,48.668 15.335,57 32.001,40.334 
	48.667,57 57,48.668 "/>
<polygon fill="#F46C60" points="16.149,23.068 10.089,15.416 11.299,12.449 8.415,15.334 "/>
<polygon fill="#F46C60" points="53.069,13.068 48.749,10.34 45.782,11.553 48.668,8.666 "/>
</svg>
