<?xml version="1.0" encoding="utf-8"?>
<!-- Generator: Adobe Illustrator 15.0.0, SVG Export Plug-In . SVG Version: 6.00 Build 0)  -->
<!DOCTYPE svg PUBLIC "-//W3C//DTD SVG 1.1//EN" "http://www.w3.org/Graphics/SVG/1.1/DTD/svg11.dtd">
<svg version="1.1" id="Layer_1" xmlns="http://www.w3.org/2000/svg" xmlns:xlink="http://www.w3.org/1999/xlink" x="0px" y="0px"
	 width="64px" height="64px" viewBox="0 0 64 64" enable-background="new 0 0 64 64" xml:space="preserve">
<path fill-rule="evenodd" clip-rule="evenodd" fill="#BEC3CF" d="M30.512,7.054C20.621,7.657,15.452,13.149,15,23.08h9.979
	c0.125-3.44,2.083-6.012,5.729-6.391c3.58-0.373,6.975,0.463,8.003,2.862c1.11,2.592-1.383,5.603-2.569,6.868
	c-2.194,2.344-5.759,4.054-7.606,6.583c-1.812,2.479-2.133,5.739-2.272,9.73h8.794c0.122-2.552,0.296-4.996,1.48-6.582
	c1.926-2.577,4.804-3.784,7.214-5.819c2.303-1.945,4.725-4.29,5.136-7.917C50.122,11.555,41.08,6.407,30.512,7.054z"/>
<path fill-rule="evenodd" clip-rule="evenodd" fill="#CFD8DD" d="M30.534,8.066c1.125-0.063,1.467-0.333-0.18-0.253
	c-7.738,0.378-13.879,4.834-14.28,13.044h0.958C17.7,13.176,23.134,8.478,30.534,8.066z"/>
<path fill-rule="evenodd" clip-rule="evenodd" fill="#CFD8DD" d="M30.325,32.983c1.666-2.282,10.125-6.542,9.479-12.125
	c-0.075-0.652-0.437-0.377-0.411-0.151c0.619,5.484-8.09,9.536-9.756,11.818C28.829,33.632,29.653,33.901,30.325,32.983z"/>
<path fill-rule="evenodd" clip-rule="evenodd" fill="#99A8AE" d="M30.709,16.689c2.581-0.269,5.051,0.103,6.622,1.224
	c-1.323-1.898-4.388-2.561-7.622-2.224c-3.646,0.379-5.605,2.951-5.73,6.391h-8.901c-0.026,0.332-0.062,0.657-0.077,1h9.979
	C25.104,19.64,27.063,17.068,30.709,16.689z"/>
<path fill-rule="evenodd" clip-rule="evenodd" fill="#99A8AE" d="M45.004,11.145c2.228,2.51,3.376,5.933,2.883,10.269
	c-0.411,3.628-2.833,5.972-5.136,7.917c-2.41,2.035-5.288,3.243-7.214,5.819c-1.185,1.586-1.358,4.03-1.48,6.582h-7.75
	c-0.016,0.33-0.032,0.659-0.044,1h8.794c0.122-2.552,0.296-4.996,1.48-6.582c1.926-2.577,4.804-3.784,7.214-5.819
	c2.303-1.945,4.725-4.29,5.136-7.917C49.449,17.469,47.877,13.713,45.004,11.145z"/>
<ellipse fill="#BEC3CF" cx="30.738" cy="51.512" rx="5.5" ry="5.488"/>
<path fill="#99A8AE" d="M34.173,47.229c0.752,0.938,1.203,2.126,1.203,3.421c0,3.031-2.461,5.488-5.498,5.488
	c-1.303,0-2.496-0.453-3.438-1.206C27.448,56.191,28.997,57,30.739,57c3.037,0,5.498-2.457,5.498-5.488
	C36.237,49.779,35.431,48.235,34.173,47.229z"/>
<path fill-rule="evenodd" clip-rule="evenodd" fill="#CFD8DD" d="M26.656,49.137c0.101,0.707,1.424-0.677,2.765-1.866
	C30.286,46.505,26.354,47.009,26.656,49.137z"/>
</svg>
