<?xml version="1.0" encoding="utf-8"?>
<!-- Generator: Adobe Illustrator 15.0.0, SVG Export Plug-In . SVG Version: 6.00 Build 0)  -->
<!DOCTYPE svg PUBLIC "-//W3C//DTD SVG 1.1//EN" "http://www.w3.org/Graphics/SVG/1.1/DTD/svg11.dtd">
<svg version="1.1" id="Layer_1" xmlns="http://www.w3.org/2000/svg" xmlns:xlink="http://www.w3.org/1999/xlink" x="0px" y="0px"
	 width="64px" height="64px" viewBox="0 0 64 64" enable-background="new 0 0 64 64" xml:space="preserve">
<polygon fill="#E81C27" points="36.156,40.699 27.841,40.699 24.5,7 39.5,7 "/>
<polygon fill="#F46C60" points="26.484,8.909 38.168,8 25.5,8 28.321,36.461 "/>
<ellipse fill="#E81C27" cx="31.999" cy="50.628" rx="6.386" ry="6.372"/>
<polygon fill="#C21413" points="38.4,7 35.156,39.699 27.741,39.699 27.84,40.699 36.156,40.699 39.5,7 "/>
<path fill="#C21413" d="M35.987,45.656c0.872,1.09,1.397,2.469,1.397,3.972C37.385,53.146,34.525,56,31,56
	c-1.512,0-2.897-0.525-3.99-1.4C28.18,56.061,29.978,57,32,57c3.525,0,6.385-2.854,6.385-6.372
	C38.385,48.615,37.447,46.824,35.987,45.656z"/>
<path fill-rule="evenodd" clip-rule="evenodd" fill="#F46C60" d="M27.26,47.869c0.116,0.822,1.652-0.785,3.209-2.166
	C31.474,44.814,26.908,45.399,27.26,47.869z"/>
</svg>
