<?xml version="1.0" encoding="utf-8"?>
<!-- Generator: Adobe Illustrator 15.0.0, SVG Export Plug-In . SVG Version: 6.00 Build 0)  -->
<!DOCTYPE svg PUBLIC "-//W3C//DTD SVG 1.1//EN" "http://www.w3.org/Graphics/SVG/1.1/DTD/svg11.dtd">
<svg version="1.1" id="Layer_1" xmlns="http://www.w3.org/2000/svg" xmlns:xlink="http://www.w3.org/1999/xlink" x="0px" y="0px"
	 width="64px" height="64px" viewBox="0 0 64 64" enable-background="new 0 0 64 64" xml:space="preserve">
<path fill="#E81C27" d="M32,7.569c-6.634-9.83-25-5.989-25,6.36C7,22.221,15.47,27.768,32,40c16.529-12.232,25-17.779,25-26.07
	C57,1.581,38.633-2.261,32,7.569z"/>
<path fill="#C21413" d="M31.258,8.796C31.519,8.241,32,7.569,32,7.569c-1.81-2.768-4.461-3.965-4.461-3.965
	C30.334,5.966,31.258,8.796,31.258,8.796z"/>
<path fill="#C21413" d="M46.532,2.341c3.616,1.959,6.236,5.407,6.236,10.069c0,7.55-9.583,16.32-18.489,23.777
	C31.49,38.522,32,38.229,24.043,34.126C25.058,34.873,30.916,39.197,32,40c16.529-12.232,25-17.779,25-26.07
	C57,7.584,52.147,3.493,46.532,2.341z"/>
<path fill-rule="evenodd" clip-rule="evenodd" fill="#F46C60" d="M9.984,12.13c0.408,2.619,5.781-2.504,11.222-6.908
	C24.718,2.39,8.756,4.254,9.984,12.13z"/>
<path fill-rule="evenodd" clip-rule="evenodd" fill="#F46C60" d="M34.122,8.538c0.239,1.532,3.382-1.465,6.564-4.041
	C42.74,2.84,33.404,3.931,34.122,8.538z"/>
<path fill="#E81C27" d="M21.999,52c0-5.521,4.479-10,9.999-10c5.524,0,10,4.479,10,10c0,5.523-4.476,10-10,10
	C26.479,62,21.999,57.523,21.999,52z"/>
<path fill-rule="evenodd" clip-rule="evenodd" fill="#F46C60" d="M24.292,49.969c0.307,2.153,4.335-2.06,8.417-5.681
	C35.342,41.958,23.371,43.491,24.292,49.969z"/>
<path fill="#B00505" d="M25.832,59.862c0.955,0.217,1.939,0.344,2.958,0.344c6.369,0,11.684-4.509,12.932-10.511
	c0.176,0.739,0.275,1.51,0.276,2.305c-0.001,5.522-4.476,9.996-10.002,10C29.668,61.996,27.533,61.194,25.832,59.862z"/>
</svg>
