<?xml version="1.0" encoding="utf-8"?>
<!-- Generator: Adobe Illustrator 15.0.0, SVG Export Plug-In . SVG Version: 6.00 Build 0)  -->
<!DOCTYPE svg PUBLIC "-//W3C//DTD SVG 1.1//EN" "http://www.w3.org/Graphics/SVG/1.1/DTD/svg11.dtd">
<svg version="1.1" id="Layer_1" xmlns="http://www.w3.org/2000/svg" xmlns:xlink="http://www.w3.org/1999/xlink" x="0px" y="0px"
	 width="64px" height="64px" viewBox="0 0 64 64" enable-background="new 0 0 64 64" xml:space="preserve">
<path fill="#E81C27" d="M32,14.328C24.04,1.394,2,6.448,2,22.697C2,33.606,12.164,40.905,32,57c19.836-16.095,30-23.394,30-34.303
	C62,6.448,39.96,1.394,32,14.328z"/>
<path fill="#C21413" d="M31.11,15.942c0.313-0.729,0.89-1.614,0.89-1.614c-2.171-3.642-5.353-5.217-5.353-5.217
	C30.001,12.218,31.11,15.942,31.11,15.942z"/>
<path fill="#C21413" d="M49.439,7.448c4.34,2.578,7.483,7.114,7.483,13.249c0,9.935-11.5,21.474-22.188,31.286
	C31.39,55.056,32,54.671,22.452,49.271C23.669,50.255,30.699,55.944,32,57c19.836-16.095,30-23.394,30-34.303
	C62,14.348,56.178,8.964,49.439,7.448z"/>
<path fill-rule="evenodd" clip-rule="evenodd" fill="#F46C60" d="M5.581,20.33c0.49,3.445,6.938-3.295,13.467-9.09
	C23.262,7.513,4.108,9.966,5.581,20.33z"/>
<path fill-rule="evenodd" clip-rule="evenodd" fill="#F46C60" d="M34.548,15.603c0.286,2.015,4.058-1.928,7.877-5.317
	C44.89,8.105,33.686,9.54,34.548,15.603z"/>
</svg>
