<?xml version="1.0" encoding="utf-8"?>
<!-- Generator: Adobe Illustrator 15.0.0, SVG Export Plug-In . SVG Version: 6.00 Build 0)  -->
<!DOCTYPE svg PUBLIC "-//W3C//DTD SVG 1.1//EN" "http://www.w3.org/Graphics/SVG/1.1/DTD/svg11.dtd">
<svg version="1.1" id="Layer_1" xmlns="http://www.w3.org/2000/svg" xmlns:xlink="http://www.w3.org/1999/xlink" x="0px" y="0px"
	 width="64px" height="64px" viewBox="0 0 64 64" enable-background="new 0 0 64 64" xml:space="preserve">
<polygon fill="#302C3B" points="37,27 37,7 27,7 27,27 7,27 7,37 27,37 27,57 37,57 37,37 57,37 57,27 "/>
<rect x="7" y="35" fill="#1A1626" width="20" height="2"/>
<rect x="35" y="7" fill="#1A1626" width="2" height="20"/>
<polygon fill="#1A1626" points="55,27 55,35 35,35 35,55 27,55 27,57 37,57 37,37 57,37 57,27 "/>
<polygon fill="#4E5E67" points="17.281,28 9.054,28.955 8,31.462 8,28 "/>
<polygon fill="#4E5E67" points="33.281,8 29.054,8.955 28,11.462 28,8 "/>
</svg>
