<?xml version="1.0" encoding="utf-8"?>
<!-- Generator: Adobe Illustrator 15.0.0, SVG Export Plug-In . SVG Version: 6.00 Build 0)  -->
<!DOCTYPE svg PUBLIC "-//W3C//DTD SVG 1.1//EN" "http://www.w3.org/Graphics/SVG/1.1/DTD/svg11.dtd">
<svg version="1.1" id="Layer_1" xmlns="http://www.w3.org/2000/svg" xmlns:xlink="http://www.w3.org/1999/xlink" x="0px" y="0px"
	 width="64px" height="64px" viewBox="0 0 64 64" enable-background="new 0 0 64 64" xml:space="preserve">
<path fill="#302C3B" d="M3.869,39c4.131,0,6.245-2.868,7.789-4.963c1.46-1.98,2.093-2.673,3.468-2.673
	c1.374,0,2.008,0.692,3.468,2.673C20.136,36.132,22.25,39,26.381,39c4.13,0,6.243-2.868,7.786-4.964
	c1.459-1.979,2.092-2.672,3.463-2.672c1.373,0,2.007,0.692,3.466,2.673C42.64,36.132,44.753,39,48.883,39s6.243-2.868,7.785-4.964
	c1.459-1.979,2.091-2.672,3.464-2.672c2.491,0,2.491-6.364,0-6.364c-4.131,0-6.243,2.869-7.786,4.964
	c-1.458,1.979-2.091,2.672-3.463,2.672c-1.373,0-2.007-0.692-3.465-2.673C43.874,27.868,41.761,25,37.63,25
	c-4.129,0-6.242,2.868-7.785,4.964c-1.458,1.979-2.091,2.672-3.463,2.672c-1.374,0-2.008-0.692-3.467-2.673
	C21.371,27.868,19.256,25,15.125,25s-6.246,2.868-7.789,4.963c-1.46,1.98-2.093,2.673-3.467,2.673C1.377,32.636,1.377,39,3.869,39z"
	/>
</svg>
