<?xml version="1.0" encoding="utf-8"?>
<!-- Generator: Adobe Illustrator 15.0.0, SVG Export Plug-In . SVG Version: 6.00 Build 0)  -->
<!DOCTYPE svg PUBLIC "-//W3C//DTD SVG 1.1//EN" "http://www.w3.org/Graphics/SVG/1.1/DTD/svg11.dtd">
<svg version="1.1" id="Layer_1" xmlns="http://www.w3.org/2000/svg" xmlns:xlink="http://www.w3.org/1999/xlink" x="0px" y="0px"
	 width="64px" height="64px" viewBox="0 0 64 64" enable-background="new 0 0 64 64" xml:space="preserve">
<path fill="#E81C27" d="M2,32C2,15.436,15.438,2,32,2c16.572,0,30,13.436,30,30c0,16.57-13.428,30-30,30C15.438,62,2,48.57,2,32z"/>
<path fill="#C21413" d="M45.777,5.354C53.172,10.61,58,19.24,58,29c0,16.02-12.98,29-29,29c-9.76,0-18.39-4.828-23.646-12.223
	C10.347,55.412,20.404,62,32,62c16.571,0,30-13.43,30-30C62,20.402,55.413,10.347,45.777,5.354z"/>
<path fill-rule="evenodd" clip-rule="evenodd" fill="#F46C60" d="M10.217,17.397c0.447,3.134,6.311-2.997,12.248-8.267
	C26.297,5.741,8.878,7.973,10.217,17.397z"/>
<path fill="#FFFFFF" d="M26.361,39.193c-0.715-0.967-1.918-2.469-3.18-3.865V49.5h-4.822V37.207
	c-1.371,1.236-2.742,2.309-4.113,3.223c-0.383-1.344-1.533-3.76-2.246-4.617c3.783-2.148,7.455-5.799,9.813-9.932H13.59v-4.564
	h4.824V14.5h4.877v6.816h1.26l0.877-0.16l2.686,1.717c-0.988,2.686-2.301,5.209-3.891,7.57c1.809,1.449,4.492,3.918,5.316,4.725
	L26.361,39.193z"/>
<path fill="#FFFFFF" d="M46.324,39.199c-0.102,4.65-0.256,5.371-0.869,5.371H44.23c-0.561,0-0.611-0.111-0.611-1.439V31.336h4.084
	V15H30.139v16.336h2.963c-0.357,6.811-1.381,11.131-6.486,13.787c0.973,0.887,2.248,2.713,2.758,3.877
	c6.281-3.377,7.709-9.137,8.17-17.664h1.787v11.85c0,4.098,0.766,5.371,4.135,5.371h2.502c2.654,0,3.676-1.551,4.033-7.697
	C48.877,40.582,47.143,39.918,46.324,39.199z M43.057,26.74H34.58v-7.145h8.477V26.74z"/>
</svg>
