
<svg width="135px" height="15px" viewBox="0 0 135 15" version="1.1" xmlns="http://www.w3.org/2000/svg" xmlns:xlink="http://www.w3.org/1999/xlink">
    <g id="Footer" stroke="none" stroke-width="1" fill="none" fill-rule="evenodd" opacity="0.9">
        <g id="Footer-UI-Kit" transform="translate(-1996.000000, -433.000000)" fill="#677B8C" fill-rule="nonzero">
            <g id="Interacting-with-links" transform="translate(1875.000000, 248.000000)">
                <g id="Desktop-/-Interacting-with-links" transform="translate(1.000000, 139.000000)">
                    <g id="footer-Interactive-with-links">
                        <g id="logo/facebook" transform="translate(120.000000, 46.000000)">
                            <path d="M10.6482854,0.469868039 L10.6482854,2.34096815 C10.6508573,2.39488481 10.6305631,2.44738445 10.5923949,2.48555264 C10.5542267,2.52372083 10.5017271,2.54401507 10.4478104,2.54144316 L2.42880994,2.54144316 L2.42880994,6.36383338 L9.04448532,6.36383338 C9.09840199,6.36126147 9.15090163,6.3815557 9.18906982,6.41972389 C9.22723801,6.45789208 9.24753224,6.51039172 9.24496033,6.56430839 L9.24496033,8.4354085 C9.24884979,8.49007438 9.22913973,8.54378839 9.19081555,8.58296421 C9.15249138,8.62214003 9.09922348,8.64302573 9.04448532,8.64033851 L2.41989994,8.64033851 L2.41989994,14.2892788 C2.42258716,14.344017 2.40170147,14.3972849 2.36252565,14.4356091 C2.32334983,14.4739332 2.26963581,14.4936433 2.21496993,14.4897538 L0.205764814,14.4897538 C0.151098929,14.4936433 0.0973849161,14.4739332 0.0582090969,14.4356091 C0.0190332778,14.3972849 -0.00185241659,14.344017 0.000834802598,14.2892788 L0.000834802598,0.47877804 C-0.00440165396,0.422191585 0.0151769695,0.366117719 0.0544967238,0.325088411 C0.0938164782,0.284059102 0.149006843,0.262113154 0.205764814,0.264938027 L10.4522654,0.264938027 C10.5062436,0.263549479 10.5583012,0.285005775 10.5956245,0.324025613 C10.6329479,0.363045451 10.6520704,0.41600477 10.6482854,0.469868039 Z" id="Path"></path>
                            <path d="M27.0248664,14.4897538 L24.7973662,14.4897538 C24.6844645,14.4981532 24.5838781,14.4188446 24.5657062,14.3070988 C24.2716762,13.1398888 23.9152762,11.9103087 23.5098712,10.6718186 L16.7249058,10.6718186 C16.3195007,11.9103087 15.9631007,13.1398888 15.6779807,14.3070988 C15.6598088,14.4188446 15.5592224,14.4981532 15.4463207,14.4897538 L13.3123756,14.4897538 C13.1698156,14.4897538 13.0851706,14.4095638 13.1297206,14.2670038 C14.5042693,9.56097133 16.2424986,4.96888826 18.3287059,0.532238043 C18.3835896,0.368468115 18.5391872,0.259911654 18.7118359,0.264938027 L21.598676,0.264938027 C21.776171,0.253791379 21.9389338,0.363519093 21.9951711,0.532238043 C24.0922516,4.9632597 25.8365951,9.55277495 27.2119764,14.2580938 C27.2520714,14.4095638 27.1763364,14.4897538 27.0248664,14.4897538 Z M22.7703411,8.4665935 C22.0263561,6.42174838 21.206636,4.37244826 20.360186,2.50134816 L19.8835009,2.50134816 C19.0415059,4.37244826 18.2084208,6.42174838 17.4644358,8.4755035 L22.7703411,8.4665935 Z" id="Shape"></path>
                            <path d="M30.6646016,7.49985844 C30.6646016,3.08940819 33.5692617,0.00209301217 37.716867,0.00209301217 L38.019807,0.00209301217 C40.3656904,-0.0581308125 42.5521657,1.18515903 43.6999323,3.2319682 C43.7368314,3.27668808 43.7503081,3.33627017 43.7362465,3.39251675 C43.7221848,3.44876333 43.6822549,3.49499376 43.6286523,3.51708821 L41.8466522,4.40808827 C41.7877893,4.44616 41.7156245,4.45770983 41.6478196,4.43991104 C41.5800147,4.42211225 41.5228268,4.37660736 41.4902522,4.31453326 C40.7932642,3.01151747 39.4012597,2.23373494 37.926252,2.32314815 L37.618857,2.32314815 C35.0082268,2.32314815 33.2128617,4.39472326 33.2128617,7.40184844 C33.2128617,10.4089736 34.9948618,12.4449087 37.618857,12.4449087 L37.926252,12.4449087 C39.6325171,12.4449087 40.6259821,11.8657587 41.3922422,10.9792136 C41.4685963,10.8728841 41.6132681,10.8420208 41.7263672,10.9079336 L43.5662823,11.7989337 C43.6239785,11.8232489 43.6622499,11.8789164 43.6642923,11.9414937 C43.6608527,11.9967012 43.6406479,12.0495445 43.6063773,12.0929637 C42.4792622,13.7368588 40.4433271,14.7659639 37.966347,14.7659639 L37.663407,14.7659639 C33.4578867,14.7570539 30.6646016,11.8613037 30.6646016,7.49985844 Z" id="Path"></path>
                            <path d="M59.8849482,12.4181787 L59.8849482,14.2892788 C59.8876355,14.344017 59.8667498,14.3972849 59.8275739,14.4356091 C59.7883981,14.4739332 59.7346841,14.4936433 59.6800182,14.4897538 L49.0058376,14.4897538 C48.9511717,14.4936433 48.8974577,14.4739332 48.8582819,14.4356091 C48.8191061,14.3972849 48.7982204,14.344017 48.8009076,14.2892788 L48.8009076,0.47877804 C48.7956711,0.422191585 48.8152498,0.366117719 48.8545695,0.325088411 C48.8938893,0.284059102 48.9490796,0.262113154 49.0058376,0.264938027 L59.4884532,0.264938027 C59.5435509,0.262371107 59.5971805,0.283136354 59.6361827,0.322138575 C59.6751849,0.361140797 59.6959501,0.414770331 59.6933832,0.469868039 L59.6933832,2.34096815 C59.6960704,2.3957063 59.6751848,2.44897421 59.6360089,2.48729838 C59.5968331,2.52562255 59.5431191,2.54533262 59.4884532,2.54144316 L51.2333377,2.54144316 L51.2333377,6.23909337 L57.9603881,6.23909337 C58.0151263,6.23640615 58.0683942,6.25729185 58.1067184,6.29646766 C58.1450425,6.33564348 58.1647526,6.3893575 58.1608631,6.44402338 L58.1608631,8.29284849 C58.1647526,8.34751437 58.1450425,8.40122839 58.1067184,8.44040421 C58.0683942,8.47958002 58.0151263,8.50046572 57.9603881,8.4977785 L51.2333377,8.4977785 L51.2333377,12.2132487 L59.6978382,12.2132487 C59.7498449,12.2155588 59.7987966,12.2384613 59.8338976,12.2769053 C59.8689987,12.3153494 59.8873658,12.366177 59.8849482,12.4181787 Z" id="Path"></path>
                            <path d="M78.2529143,10.5871736 C78.2529143,13.0775188 76.3417192,14.4897538 72.969284,14.4897538 L65.9793886,14.4897538 C65.9254719,14.4923258 65.8729723,14.4720315 65.8348041,14.4338633 C65.7966359,14.3956951 65.7763417,14.3431955 65.7789136,14.2892788 L65.7789136,0.47877804 C65.7750241,0.424112155 65.7947342,0.370398141 65.8330584,0.331222322 C65.8713825,0.292046503 65.9246504,0.271160809 65.9793886,0.273848028 L72.350039,0.273848028 C75.6333741,0.273848028 77.4198292,1.5747081 77.4198292,3.95367824 C77.4198292,5.51738333 76.6268392,6.54203339 75.0230391,7.02317342 C77.2772692,7.49094844 78.2529143,8.84081352 78.2529143,10.5871736 Z M72.301034,2.47907315 L68.1935237,2.47907315 L68.1935237,6.30146337 L72.301034,6.30146337 C74.1409491,6.30146337 74.9740341,5.70003834 74.9740341,4.39026826 C74.9740341,3.08049819 74.1409491,2.47907315 72.301034,2.47907315 Z M75.7759342,10.3777886 C75.7759342,9.04128853 74.8849341,8.4532285 72.982649,8.4532285 L68.1935237,8.4532285 L68.1935237,12.2756187 L72.982649,12.2756187 C74.9339391,12.2756187 75.7759342,11.7053787 75.7759342,10.3777886 Z" id="Shape"></path>
                            <path d="M82.5118945,7.37957344 C82.5118945,3.08940819 85.3541847,0.00209301217 89.827005,0.00209301217 L90.129945,0.00209301217 C94.5849452,0.00209301217 97.4450554,3.08940819 97.4450554,7.37957344 C97.4450554,11.6697387 94.6027652,14.7570539 90.129945,14.7570539 L89.827005,14.7570539 C85.3541847,14.7570539 82.5118945,11.6652837 82.5118945,7.37957344 Z M90.129945,12.4404537 C93.0479701,12.4404537 94.8878852,10.4357036 94.8878852,7.37957344 C94.8878852,4.32344326 93.0479701,2.31869315 90.129945,2.31869315 L89.827005,2.31869315 C86.9089798,2.31869315 85.0913397,4.31898826 85.0913397,7.37957344 C85.0913397,10.4401586 86.9312548,12.4404537 89.84928,12.4404537 L90.129945,12.4404537 Z" id="Shape"></path>
                            <path d="M101.574841,7.37957344 C101.574841,3.08940819 104.417131,0.00209301217 108.885496,0.00209301217 L109.192891,0.00209301217 C113.647891,0.00209301217 116.508001,3.08940819 116.508001,7.37957344 C116.508001,11.6697387 113.661256,14.7570539 109.192891,14.7570539 L108.885496,14.7570539 C104.417131,14.7570539 101.574841,11.6652837 101.574841,7.37957344 Z M109.192891,12.4404537 C112.106461,12.4404537 113.946376,10.4357036 113.946376,7.37957344 C113.946376,4.32344326 112.106461,2.31869315 109.192891,2.31869315 L108.885496,2.31869315 C105.971926,2.31869315 104.132011,4.31898826 104.132011,7.37957344 C104.132011,10.4401586 105.971926,12.4404537 108.885496,12.4404537 L109.192891,12.4404537 Z" id="Shape"></path>
                            <path d="M134.033972,14.4897538 L131.423342,14.4897538 C131.282825,14.5019007 131.147201,14.4349471 131.071397,14.3160088 C129.258811,12.2051643 127.291697,10.232094 125.186342,8.41313349 L124.005767,8.41313349 L124.005767,14.2892788 C124.008454,14.344017 123.987568,14.3972849 123.948393,14.4356091 C123.909217,14.4739332 123.855503,14.4936433 123.800837,14.4897538 L121.800542,14.4897538 C121.745876,14.4936433 121.692162,14.4739332 121.652986,14.4356091 C121.61381,14.3972849 121.592925,14.344017 121.595612,14.2892788 L121.595612,0.47877804 C121.593045,0.423680331 121.61381,0.370050797 121.652812,0.331048576 C121.691815,0.292046355 121.745444,0.271281108 121.800542,0.273848028 L123.809747,0.273848028 C123.864845,0.271281108 123.918474,0.292046355 123.957476,0.331048576 C123.996479,0.370050797 124.017244,0.423680331 124.014677,0.47877804 L124.014677,6.07871336 L125.213072,6.07871336 C127.150016,4.35218801 128.930075,2.45733485 130.532342,0.416408036 C130.596988,0.313169731 130.713904,0.254711385 130.835282,0.264938027 L133.316717,0.264938027 C133.437002,0.264938027 133.499372,0.327308031 133.499372,0.407498035 C133.493416,0.464593525 133.46829,0.517986327 133.428092,0.558968044 C131.515432,2.94950694 129.38904,5.16089446 127.075262,7.16573342 C129.62234,9.33210387 131.987,11.7042138 134.145348,14.2580938 C134.256723,14.3694688 134.194353,14.4897538 134.033972,14.4897538 Z" id="Path"></path>
                        </g>
                    </g>
                </g>
            </g>
        </g>
    </g>
</svg>
