<svg width="72" height="73" viewBox="0 0 72 73" fill="none" xmlns="http://www.w3.org/2000/svg">
<g filter="url(#filter0_d)">
<path d="M15.0356 24.4685C13.395 24.4685 11.8569 24.7732 10.4214 25.3826C8.98584 25.992 7.72461 26.8146 6.6377 27.8506C5.55079 28.8865 4.69971 30.1256 4.08448 31.5677C3.46924 33.0099 3.15137 34.5435 3.13086 36.1685C3.13086 37.7935 3.43848 39.3068 4.05371 40.7084C4.66895 42.1099 5.50977 43.349 6.57618 44.4256C7.64258 45.5021 8.90381 46.3451 10.3599 46.9545C11.8159 47.5638 13.3438 47.8685 14.9434 47.8685H50.3809C52.5547 47.8685 54.5952 47.4623 56.5024 46.6498C58.4097 45.8373 60.0811 44.7302 61.5166 43.3287C62.9521 41.9271 64.0801 40.2717 64.9004 38.3623C65.7207 36.4529 66.1309 34.4217 66.1309 32.2685C66.1309 30.1154 65.7207 28.0943 64.9004 26.2052C64.0801 24.3162 62.9624 22.6607 61.5474 21.2388C60.1323 19.817 58.4609 18.6998 56.5332 17.8873C54.6055 17.0748 52.5547 16.6685 50.3809 16.6685C49.4375 16.6685 48.4839 16.7599 47.52 16.9427C46.6997 15.6834 45.7563 14.556 44.6899 13.5607C43.6235 12.5654 42.4443 11.7123 41.1523 11.0013C39.8604 10.2904 38.5068 9.76228 37.0918 9.41697C35.6768 9.07166 34.2002 8.88884 32.6621 8.86853C30.3857 8.86853 28.2427 9.26462 26.2329 10.0568C24.2231 10.849 22.4287 11.9357 20.8496 13.317C19.2705 14.6982 17.9888 16.3537 17.0044 18.2834C16.02 20.2131 15.3638 22.2748 15.0356 24.4685Z" fill="url(#paint0_linear)"/>
<path d="M15.0434 24.4697L15.0879 24.4763H15.0356C13.396 24.4763 11.859 24.7808 10.4244 25.3898C8.98973 25.9988 7.7293 26.821 6.64309 27.8562C5.55698 28.8914 4.7065 30.1296 4.09166 31.5708C3.47684 33.012 3.15917 34.5446 3.13868 36.1686C3.13869 37.7926 3.44611 39.3048 4.06087 40.7052C4.67572 42.1059 5.516 43.3442 6.58173 44.4201C7.64738 45.4959 8.90774 46.3383 10.3629 46.9473C11.818 47.5562 13.3448 47.8607 14.9434 47.8607H50.3809C52.5537 47.8607 54.5932 47.4547 56.4994 46.6426C58.4057 45.8305 60.0763 44.724 61.5111 43.3231C62.9459 41.9223 64.0733 40.2677 64.8932 38.3592C65.7131 36.4508 66.123 34.4206 66.123 32.2685C66.123 30.1164 65.7131 28.0964 64.8932 26.2084C64.0733 24.3202 62.9562 22.6655 61.5418 21.2444C60.1275 19.8232 58.457 18.7066 56.5302 17.8945C54.6034 17.0824 52.5537 16.6763 50.3809 16.6763C49.438 16.6763 48.4849 16.7677 47.5215 16.9504L47.5239 16.9629L47.5135 16.947C46.6935 15.6882 45.7505 14.5613 44.6846 13.5664C43.6187 12.5716 42.44 11.7188 41.1486 11.0082C39.8572 10.2976 38.5043 9.7697 37.0899 9.42456C35.6755 9.0794 34.1996 8.89665 32.6621 8.87634C30.3866 8.87635 28.2446 9.27228 26.2358 10.0641C24.2268 10.8559 22.4332 11.9422 20.8548 13.3228C19.2764 14.7034 17.9953 16.3581 17.0114 18.2869C16.0274 20.2158 15.3714 22.2768 15.0434 24.4697Z" stroke="#C6E5FF" stroke-width="0.015625"/>
</g>
<path d="M65.9142 30.9179C65.9142 37.9587 58.4137 42.2669 50.9875 42.2669C43.5612 42.2669 37.541 36.5592 37.541 29.5184C37.541 22.4776 43.5612 16.7699 50.9875 16.7699C58.4137 16.7699 65.9142 23.8771 65.9142 30.9179Z" fill="url(#paint1_linear)"/>
<path d="M46.5584 21.2315C43.4888 21.2315 40.7527 22.309 38.6173 24.0204C38.6173 24.0204 38.5506 24.0204 38.5506 24.0838C39.8185 21.5484 42.0207 19.4568 44.6899 18.2525C42.421 15.7805 39.1512 14.2593 35.4142 14.2593C28.6742 14.2593 23.2689 19.4568 23.2689 25.7317C23.2689 26.7459 23.4024 27.76 23.6693 28.7108C22.7351 28.3939 21.7341 28.2037 20.6664 28.2037C15.9951 28.2037 12.1914 31.8166 12.1914 36.1901C12.1914 40.5636 15.9951 44.1764 20.6664 44.1764C20.7331 44.1764 20.7998 44.1764 20.7998 44.1764H46.2915C46.3582 44.1764 46.425 44.1764 46.4917 44.1764C53.2317 44.1764 58.6369 38.979 58.6369 32.704C58.6369 26.429 53.2316 21.2315 46.5584 21.2315Z" fill="url(#paint2_linear)"/>
<g filter="url(#filter1_d)">
<path d="M49.17 43.3843L44.4629 52.5538C44.2159 53.1494 44.0703 53.7995 44.0703 54.4824C44.0703 55.1653 44.2159 55.8154 44.4629 56.411C44.7232 57.0262 45.096 57.5847 45.5636 58.0494C46.0334 58.5141 46.5981 58.8806 47.2201 59.1381C47.8223 59.3846 48.4796 59.5264 49.17 59.5264C49.8626 59.5264 50.5199 59.3846 51.1199 59.1381C51.7441 58.8806 52.3066 58.5141 52.7764 58.0494C53.2462 57.5847 53.619 57.0262 53.8771 56.411C54.1263 55.8154 54.2697 55.1653 54.2697 54.4824C54.2697 53.7995 54.1263 53.1494 53.8771 52.5538L49.17 43.3843Z" fill="#A4D4FF"/>
<path d="M50.0428 45.0695L45.8528 53.2619C45.6308 53.7971 45.5 54.3812 45.5 54.9948C45.5 55.6083 45.6308 56.1925 45.8528 56.7276C46.0866 57.2804 46.4216 57.7822 46.8417 58.1998C47.2639 58.6173 47.7712 58.9466 48.3301 59.1779C48.8712 59.3995 49.4618 59.5269 50.0821 59.5269C50.7044 59.5269 51.295 59.3995 51.8341 59.1779C52.395 58.9466 52.9004 58.6173 53.3225 58.1998C53.7447 57.7822 54.0796 57.2804 54.3115 56.7276C54.5354 56.1925 54.6643 55.6083 54.6643 54.9948C54.6643 54.3812 54.5354 53.7971 54.3115 53.2619L50.0428 45.0695Z" fill="url(#paint3_linear)"/>
<path d="M33.8926 35.705L29.1856 44.8745C28.9385 45.4701 28.793 46.1202 28.793 46.8031C28.793 47.4859 28.9385 48.1361 29.1856 48.7317C29.4459 49.3469 29.8186 49.9054 30.2863 50.3701C30.7561 50.8348 31.3207 51.2013 31.9428 51.4587C32.5449 51.7053 33.2022 51.8471 33.8926 51.8471C34.5852 51.8471 35.2426 51.7053 35.8425 51.4587C36.4667 51.2013 37.0292 50.8348 37.499 50.3701C37.9688 49.9054 38.3416 49.3469 38.5997 48.7317C38.8489 48.1361 38.9923 47.4859 38.9923 46.8031C38.9923 46.1202 38.8489 45.4701 38.5997 44.8745L33.8926 35.705Z" fill="#A4D4FF"/>
<path d="M34.7626 37.3901L30.5754 45.5824C30.3535 46.1176 30.2227 46.7017 30.2227 47.3153C30.2227 47.9288 30.3535 48.513 30.5754 49.0482C30.8093 49.6009 31.1442 50.1028 31.5644 50.5203C31.9865 50.9378 32.4939 51.2672 33.0528 51.4985C33.5938 51.72 34.1844 51.8474 34.8048 51.8474C35.4271 51.8474 36.0177 51.72 36.5568 51.4985C37.1176 51.2672 37.623 50.9378 38.0452 50.5203C38.4673 50.1028 38.8022 49.6009 39.0341 49.0482C39.2581 48.513 39.3869 47.9288 39.3869 47.3153C39.3869 46.7017 39.2581 46.1176 39.0341 45.5824L34.7626 37.3901Z" fill="url(#paint4_linear)"/>
<path d="M20.6915 51.0625L15.9844 60.232C15.7374 60.8276 15.5918 61.4778 15.5918 62.1606C15.5918 62.8435 15.7374 63.4936 15.9844 64.0892C16.2447 64.7044 16.6175 65.2629 17.0851 65.7276C17.5549 66.1923 18.1196 66.5589 18.7416 66.8163C19.3438 67.0628 20.0011 67.2046 20.6915 67.2046C21.3841 67.2046 22.0414 67.0628 22.6414 66.8163C23.2656 66.5589 23.828 66.1923 24.2979 65.7276C24.7677 65.2629 25.1405 64.7044 25.3985 64.0892C25.6478 63.4936 25.7912 62.8435 25.7912 62.1606C25.7912 61.4778 25.6478 60.8276 25.3985 60.232L20.6915 51.0625Z" fill="#A4D4FF"/>
<path d="M21.5556 52.7469L17.3684 60.9392C17.1464 61.4744 17.0156 62.0585 17.0156 62.6721C17.0156 63.2856 17.1464 63.8698 17.3684 64.4049C17.6023 64.9577 17.9372 65.4596 18.3574 65.8771C18.7795 66.2946 19.2869 66.6239 19.8458 66.8553C20.3868 67.0768 20.9774 67.2042 21.5977 67.2042C22.2201 67.2042 22.8107 67.0768 23.3497 66.8553C23.9106 66.6239 24.416 66.2946 24.8381 65.8771C25.2603 65.4596 25.5952 64.9577 25.8271 64.4049C26.051 63.8698 26.1799 63.2856 26.1799 62.6721C26.1799 62.0585 26.051 61.4744 25.8271 60.9392L21.5556 52.7469Z" fill="url(#paint5_linear)"/>
</g>
<defs>
<filter id="filter0_d" x="1.13086" y="8.86853" width="67" height="43" filterUnits="userSpaceOnUse" color-interpolation-filters="sRGB">
<feFlood flood-opacity="0" result="BackgroundImageFix"/>
<feColorMatrix in="SourceAlpha" type="matrix" values="0 0 0 0 0 0 0 0 0 0 0 0 0 0 0 0 0 0 127 0"/>
<feOffset dy="2"/>
<feGaussianBlur stdDeviation="1"/>
<feColorMatrix type="matrix" values="0 0 0 0 0 0 0 0 0 0 0 0 0 0 0 0 0 0 0.2 0"/>
<feBlend mode="normal" in2="BackgroundImageFix" result="effect1_dropShadow"/>
<feBlend mode="normal" in="SourceGraphic" in2="effect1_dropShadow" result="shape"/>
</filter>
<filter id="filter1_d" x="14.5918" y="35.705" width="41.0725" height="33.4997" filterUnits="userSpaceOnUse" color-interpolation-filters="sRGB">
<feFlood flood-opacity="0" result="BackgroundImageFix"/>
<feColorMatrix in="SourceAlpha" type="matrix" values="0 0 0 0 0 0 0 0 0 0 0 0 0 0 0 0 0 0 127 0"/>
<feOffset dy="1"/>
<feGaussianBlur stdDeviation="0.5"/>
<feColorMatrix type="matrix" values="0 0 0 0 0 0 0 0 0 0 0 0 0 0 0 0 0 0 0.2 0"/>
<feBlend mode="normal" in2="BackgroundImageFix" result="effect1_dropShadow"/>
<feBlend mode="normal" in="SourceGraphic" in2="effect1_dropShadow" result="shape"/>
</filter>
<linearGradient id="paint0_linear" x1="6.2613" y1="11.999" x2="64.38" y2="48.3685" gradientUnits="userSpaceOnUse">
<stop stop-color="white"/>
<stop offset="0.387304" stop-color="#C6EBFF"/>
<stop offset="0.96875" stop-color="#96C6E0"/>
</linearGradient>
<linearGradient id="paint1_linear" x1="46.3772" y1="17.1341" x2="49.5005" y2="31.7752" gradientUnits="userSpaceOnUse">
<stop offset="0.265243" stop-color="#F4F8FA"/>
<stop offset="0.899425" stop-color="#F4F8FA" stop-opacity="0"/>
</linearGradient>
<linearGradient id="paint2_linear" x1="17.5451" y1="24.6137" x2="50.919" y2="47.5828" gradientUnits="userSpaceOnUse">
<stop offset="0.0589154" stop-color="#96D6F9"/>
<stop offset="0.464316" stop-color="#DEEBF2"/>
<stop offset="0.6583" stop-color="#DEEBF2"/>
<stop offset="1" stop-color="#BDE1F6"/>
</linearGradient>
<linearGradient id="paint3_linear" x1="48.7818" y1="57.0588" x2="56.2806" y2="53.1511" gradientUnits="userSpaceOnUse">
<stop offset="0.325476" stop-color="#83BDF3"/>
<stop offset="0.786155" stop-color="#62B2EF"/>
</linearGradient>
<linearGradient id="paint4_linear" x1="29.2122" y1="47.5497" x2="39.9208" y2="42.5781" gradientUnits="userSpaceOnUse">
<stop offset="0.395833" stop-color="#6BB5F8"/>
<stop offset="1" stop-color="#2696EF"/>
</linearGradient>
<linearGradient id="paint5_linear" x1="16.0052" y1="62.9065" x2="26.7138" y2="57.9349" gradientUnits="userSpaceOnUse">
<stop offset="0.395833" stop-color="#6BB5F8"/>
<stop offset="1" stop-color="#2696EF"/>
</linearGradient>
</defs>
</svg>
