<svg width="72" height="73" viewBox="0 0 72 73" fill="none" xmlns="http://www.w3.org/2000/svg">
<g filter="url(#filter0_dd)">
<path fill-rule="evenodd" clip-rule="evenodd" d="M2.79681 29.0579C3.34295 29.1954 3.89961 29.3112 4.46596 29.4042C15.1309 31.1549 25.1921 24.1467 26.9382 13.751C27.5403 10.166 27.075 6.64641 25.7696 3.50156C35.5079 5.95336 41.9028 15.3048 40.2494 25.1485C38.5033 35.5443 28.4421 42.5525 17.7772 40.8018C10.7899 39.6548 5.27705 35.0327 2.79681 29.0579Z" fill="url(#paint0_linear)"/>
</g>
<mask id="mask0" mask-type="alpha" maskUnits="userSpaceOnUse" x="2" y="3" width="39" height="39">
<path fill-rule="evenodd" clip-rule="evenodd" d="M2.79877 29.0579C3.34491 29.1954 3.90157 29.3112 4.46792 29.4042C15.1329 31.1549 25.194 24.1467 26.9402 13.751C27.5423 10.166 27.077 6.64641 25.7715 3.50156C35.5099 5.95336 41.9047 15.3048 40.2513 25.1485C38.5052 35.5443 28.4441 42.5525 17.7791 40.8018C10.7919 39.6548 5.27901 35.0327 2.79877 29.0579Z" fill="url(#paint1_linear)"/>
</mask>
<g mask="url(#mask0)">
<path d="M18.4238 33.5501C16.7703 33.5501 15.2201 33.8446 13.7733 34.4336C12.3265 35.0225 11.0554 35.8176 9.95995 36.8189C8.86451 37.8201 8.00676 39.0177 7.3867 40.4116C6.76664 41.8054 6.44627 43.2877 6.4256 44.8582C6.4256 46.4288 6.73563 47.8914 7.35569 49.246C7.97576 50.6006 8.82317 51.7982 9.89794 52.8387C10.9727 53.8792 12.2438 54.6939 13.7113 55.2829C15.1788 55.8719 16.7186 56.1663 18.3308 56.1663H54.0463C56.2372 56.1663 58.2938 55.7737 60.216 54.9884C62.1381 54.2031 63.8226 53.1332 65.2695 51.7786C66.7163 50.4239 67.853 48.8239 68.6798 46.9785C69.5065 45.1331 69.9199 43.1699 69.9199 41.0889C69.9199 39.0079 69.5065 37.0545 68.6798 35.2287C67.853 33.4029 66.7266 31.8029 65.3005 30.4286C63.8743 29.0544 62.1898 27.9746 60.247 27.1893C58.3041 26.404 56.2372 26.0114 54.0463 26.0114C53.0956 26.0114 52.1345 26.0997 51.1631 26.2764C50.3363 25.0592 49.3855 23.9697 48.3108 23.0077C47.236 22.0457 46.0475 21.2212 44.7454 20.534C43.4433 19.8469 42.0791 19.3365 40.653 19.0027C39.2269 18.669 37.7387 18.4923 36.1886 18.4727C33.8943 18.4727 31.7345 18.8555 29.7089 19.6211C27.6834 20.3868 25.8749 21.4371 24.2834 22.7721C22.6919 24.1071 21.4001 25.7071 20.408 27.5721C19.4159 29.4372 18.7545 31.4299 18.4238 33.5501Z" fill="black" fill-opacity="0.1"/>
</g>
<g filter="url(#filter1_d)">
<path d="M20.25 35.8417C18.6875 35.8417 17.2227 36.1464 15.8555 36.7558C14.4883 37.3651 13.2871 38.1878 12.252 39.2237C11.2168 40.2597 10.4063 41.4987 9.82031 42.9409C9.23438 44.3831 8.93164 45.9167 8.91211 47.5417C8.91211 49.1667 9.20508 50.68 9.79102 52.0815C10.377 53.4831 11.1777 54.7222 12.1934 55.7987C13.209 56.8753 14.4102 57.7183 15.7969 58.3276C17.1836 58.937 18.6387 59.2417 20.1621 59.2417H53.9121C55.9824 59.2417 57.9258 58.8354 59.7422 58.0229C61.5586 57.2104 63.1504 56.1034 64.5176 54.7019C65.8848 53.3003 66.959 51.6448 67.7402 49.7354C68.5215 47.8261 68.9121 45.7948 68.9121 43.6417C68.9121 41.4886 68.5215 39.4675 67.7402 37.5784C66.959 35.6894 65.8945 34.0339 64.5469 32.612C63.1992 31.1901 61.6074 30.0729 59.7715 29.2604C57.9355 28.4479 55.9824 28.0417 53.9121 28.0417C53.0137 28.0417 52.1055 28.1331 51.1875 28.3159C50.4063 27.0565 49.5078 25.9292 48.4922 24.9339C47.4766 23.9386 46.3535 23.0854 45.123 22.3745C43.8926 21.6636 42.6035 21.1354 41.2559 20.7901C39.9082 20.4448 38.502 20.262 37.0371 20.2417C34.8691 20.2417 32.8281 20.6378 30.9141 21.43C29 22.2222 27.291 23.3089 25.7871 24.6901C24.2832 26.0714 23.0625 27.7269 22.125 29.6565C21.1875 31.5862 20.5625 33.6479 20.25 35.8417Z" fill="url(#paint2_linear)"/>
</g>
<path d="M68.7057 42.291C68.7057 49.3319 61.5624 53.6401 54.4897 53.6401C47.4171 53.6401 41.6836 47.9324 41.6836 40.8916C41.6836 33.8508 47.4171 28.1431 54.4897 28.1431C61.5624 28.1431 68.7057 35.2502 68.7057 42.291Z" fill="url(#paint3_linear)"/>
<path d="M50.2676 32.6045C47.3441 32.6045 44.7384 33.6821 42.7046 35.3934C42.7046 35.3934 42.6411 35.3934 42.6411 35.4568C43.8486 32.9215 45.9459 30.8298 48.4881 29.6255C46.3273 27.1535 43.2131 25.6323 39.654 25.6323C33.235 25.6323 28.0871 30.8298 28.0871 37.1048C28.0871 38.1189 28.2142 39.1331 28.4685 40.0838C27.5787 39.7669 26.6254 39.5768 25.6085 39.5768C21.1597 39.5768 17.5371 43.1896 17.5371 47.5631C17.5371 51.9366 21.1597 55.5495 25.6085 55.5495C25.6721 55.5495 25.7356 55.5495 25.7356 55.5495H50.0134C50.077 55.5495 50.1405 55.5495 50.2041 55.5495C56.6231 55.5495 61.771 50.352 61.771 44.077C61.771 37.802 56.6231 32.6045 50.2676 32.6045Z" fill="url(#paint4_linear)"/>
<g filter="url(#filter2_dd)">
<path d="M30.5768 45.6641L24.2359 57.5929C23.9031 58.3677 23.707 59.2134 23.707 60.1018C23.707 60.9901 23.9031 61.8359 24.2359 62.6107C24.5865 63.4111 25.0887 64.1377 25.7186 64.7422C26.3515 65.3467 27.1122 65.8235 27.9501 66.1584C28.7613 66.4791 29.6467 66.6636 30.5768 66.6636C31.5098 66.6636 32.3952 66.4791 33.2034 66.1584C34.0443 65.8235 34.802 65.3467 35.4349 64.7422C36.0678 64.1377 36.5699 63.4111 36.9176 62.6107C37.2534 61.8359 37.4465 60.9901 37.4465 60.1018C37.4465 59.2134 37.2534 58.3677 36.9176 57.5929L30.5768 45.6641Z" fill="#A4D4FF"/>
<path d="M31.7447 47.8555L26.1041 58.5129C25.8051 59.2091 25.6289 59.9691 25.6289 60.7673C25.6289 61.5654 25.8051 62.3254 26.1041 63.0216C26.4192 63.7407 26.8704 64.3935 27.4363 64.9367C28.005 65.4799 28.6885 65.9083 29.4414 66.2092C30.1702 66.4974 30.9658 66.6631 31.8014 66.6631C32.6398 66.6631 33.4354 66.4974 34.1615 66.2092C34.9171 65.9083 35.5979 65.4799 36.1665 64.9367C36.7352 64.3935 37.1864 63.7407 37.4988 63.0216C37.8004 62.3254 37.974 61.5654 37.974 60.7673C37.974 59.9691 37.8004 59.2091 37.4988 58.5129L31.7447 47.8555Z" fill="url(#paint5_linear)"/>
</g>
<path d="M47.4265 39.6641L42.1474 49.886C41.8703 50.5499 41.707 51.2747 41.707 52.0359C41.707 52.7972 41.8703 53.5219 42.1474 54.1859C42.4393 54.8717 42.8574 55.4943 43.3818 56.0123C43.9087 56.5304 44.542 56.939 45.2396 57.2259C45.915 57.5008 46.6522 57.6589 47.4265 57.6589C48.2032 57.6589 48.9404 57.5008 49.6133 57.2259C50.3134 56.939 50.9442 56.5304 51.4711 56.0123C51.9981 55.4943 52.4161 54.8717 52.7056 54.1859C52.9851 53.5219 53.1459 52.7972 53.1459 52.0359C53.1459 51.2747 52.9851 50.5499 52.7056 49.886L47.4265 39.6641Z" fill="#A4D4FF"/>
<path d="M48.3956 41.542L43.6964 50.6747C43.4475 51.2713 43.3008 51.9225 43.3008 52.6065C43.3008 53.2904 43.4475 53.9416 43.6964 54.5382C43.9587 55.1544 44.3344 55.7139 44.8056 56.1793C45.279 56.6448 45.848 57.0119 46.4749 57.2698C47.0817 57.5167 47.7441 57.6587 48.4398 57.6587C49.1377 57.6587 49.8001 57.5167 50.4047 57.2698C51.0337 57.0119 51.6005 56.6448 52.074 56.1793C52.5474 55.7139 52.923 55.1544 53.1831 54.5382C53.4343 53.9416 53.5788 53.2904 53.5788 52.6065C53.5788 51.9225 53.4343 51.2713 53.1831 50.6747L48.3956 41.542Z" fill="url(#paint6_linear)"/>
<defs>
<filter id="filter0_dd" x="0.796875" y="1.50146" width="41.7127" height="42.5683" filterUnits="userSpaceOnUse" color-interpolation-filters="sRGB">
<feFlood flood-opacity="0" result="BackgroundImageFix"/>
<feColorMatrix in="SourceAlpha" type="matrix" values="0 0 0 0 0 0 0 0 0 0 0 0 0 0 0 0 0 0 127 0"/>
<feOffset/>
<feGaussianBlur stdDeviation="1"/>
<feColorMatrix type="matrix" values="0 0 0 0 0.996078 0 0 0 0 0.878431 0 0 0 0 0.411765 0 0 0 1 0"/>
<feBlend mode="normal" in2="BackgroundImageFix" result="effect1_dropShadow"/>
<feColorMatrix in="SourceAlpha" type="matrix" values="0 0 0 0 0 0 0 0 0 0 0 0 0 0 0 0 0 0 127 0"/>
<feOffset dy="1"/>
<feGaussianBlur stdDeviation="1"/>
<feColorMatrix type="matrix" values="0 0 0 0 0 0 0 0 0 0 0 0 0 0 0 0 0 0 0.25 0"/>
<feBlend mode="normal" in2="effect1_dropShadow" result="effect2_dropShadow"/>
<feBlend mode="normal" in="SourceGraphic" in2="effect2_dropShadow" result="shape"/>
</filter>
<filter id="filter1_d" x="6.91211" y="20.2417" width="64" height="43" filterUnits="userSpaceOnUse" color-interpolation-filters="sRGB">
<feFlood flood-opacity="0" result="BackgroundImageFix"/>
<feColorMatrix in="SourceAlpha" type="matrix" values="0 0 0 0 0 0 0 0 0 0 0 0 0 0 0 0 0 0 127 0"/>
<feOffset dy="2"/>
<feGaussianBlur stdDeviation="1"/>
<feColorMatrix type="matrix" values="0 0 0 0 0 0 0 0 0 0 0 0 0 0 0 0 0 0 0.25 0"/>
<feBlend mode="normal" in2="BackgroundImageFix" result="effect1_dropShadow"/>
<feBlend mode="normal" in="SourceGraphic" in2="effect1_dropShadow" result="shape"/>
</filter>
<filter id="filter2_dd" x="21.707" y="43.6641" width="18.267" height="24.9996" filterUnits="userSpaceOnUse" color-interpolation-filters="sRGB">
<feFlood flood-opacity="0" result="BackgroundImageFix"/>
<feColorMatrix in="SourceAlpha" type="matrix" values="0 0 0 0 0 0 0 0 0 0 0 0 0 0 0 0 0 0 127 0"/>
<feOffset/>
<feGaussianBlur stdDeviation="1"/>
<feColorMatrix type="matrix" values="0 0 0 0 0 0 0 0 0 0 0 0 0 0 0 0 0 0 0.2 0"/>
<feBlend mode="normal" in2="BackgroundImageFix" result="effect1_dropShadow"/>
<feColorMatrix in="SourceAlpha" type="matrix" values="0 0 0 0 0 0 0 0 0 0 0 0 0 0 0 0 0 0 127 0"/>
<feOffset dx="1" dy="1"/>
<feGaussianBlur stdDeviation="0.5"/>
<feColorMatrix type="matrix" values="0 0 0 0 0 0 0 0 0 0 0 0 0 0 0 0 0 0 0.15 0"/>
<feBlend mode="normal" in2="effect1_dropShadow" result="effect2_dropShadow"/>
<feBlend mode="normal" in="SourceGraphic" in2="effect2_dropShadow" result="shape"/>
</filter>
<linearGradient id="paint0_linear" x1="30.6956" y1="42.497" x2="7.13967" y2="11.9504" gradientUnits="userSpaceOnUse">
<stop offset="0.230136" stop-color="#FF9900"/>
<stop offset="0.590632" stop-color="#FBE000"/>
</linearGradient>
<linearGradient id="paint1_linear" x1="30.6976" y1="42.497" x2="7.14162" y2="11.9504" gradientUnits="userSpaceOnUse">
<stop offset="0.230136" stop-color="#FF9900"/>
<stop offset="0.590632" stop-color="#FBE000"/>
</linearGradient>
<linearGradient id="paint2_linear" x1="11.8935" y1="23.3721" x2="68.7317" y2="57.2466" gradientUnits="userSpaceOnUse">
<stop stop-color="white"/>
<stop offset="0.387304" stop-color="#C6EBFF"/>
<stop offset="0.96875" stop-color="#96C6E0"/>
</linearGradient>
<linearGradient id="paint3_linear" x1="50.0991" y1="28.5073" x2="53.3639" y2="43.0834" gradientUnits="userSpaceOnUse">
<stop offset="0.265243" stop-color="#F4F8FA"/>
<stop offset="0.899425" stop-color="#F4F8FA" stop-opacity="0"/>
</linearGradient>
<linearGradient id="paint4_linear" x1="21.6405" y1="32.5895" x2="46.9923" y2="58.0822" gradientUnits="userSpaceOnUse">
<stop offset="0.0589154" stop-color="#98DAFE"/>
<stop offset="0.751885" stop-color="#E7F6FF"/>
<stop offset="1" stop-color="#BCE6FF"/>
</linearGradient>
<linearGradient id="paint5_linear" x1="24.2678" y1="61.0721" x2="38.5107" y2="54.225" gradientUnits="userSpaceOnUse">
<stop offset="0.395833" stop-color="#6BB5F8"/>
<stop offset="1" stop-color="#2696EF"/>
</linearGradient>
<linearGradient id="paint6_linear" x1="42.1676" y1="52.8677" x2="54.1517" y2="47.2702" gradientUnits="userSpaceOnUse">
<stop offset="0.395833" stop-color="#6BB5F8"/>
<stop offset="1" stop-color="#2696EF"/>
</linearGradient>
</defs>
</svg>
