<svg width="72" height="72" viewBox="0 0 72 72" fill="none" xmlns="http://www.w3.org/2000/svg">
<g filter="url(#filter0_dd)">
<path d="M29.0703 23.2C27.8203 23.2 26.6484 23.4187 25.5547 23.8562C24.4609 24.2937 23.5 24.8844 22.6719 25.6281C21.8438 26.3719 21.1953 27.2615 20.7266 28.2969C20.2578 29.3323 20.0156 30.4333 20 31.6C20 32.7667 20.2344 33.8531 20.7031 34.8594C21.1719 35.8656 21.8125 36.7552 22.625 37.5281C23.4375 38.301 24.3984 38.9062 25.5078 39.3438C26.6172 39.7812 27.7813 40 29 40H56C57.6563 40 59.2109 39.7083 60.6641 39.125C62.1172 38.5417 63.3906 37.7469 64.4844 36.7406C65.5781 35.7344 66.4375 34.5458 67.0625 33.175C67.6875 31.8042 68 30.3458 68 28.8C68 27.2542 67.6875 25.8031 67.0625 24.4469C66.4375 23.0906 65.5859 21.9021 64.5078 20.8813C63.4297 19.8604 62.1563 19.0583 60.6875 18.475C59.2188 17.8917 57.6563 17.6 56 17.6C55.2813 17.6 54.5547 17.6656 53.8203 17.7969C53.1953 16.8927 52.4766 16.0833 51.6641 15.3688C50.8516 14.6542 49.9531 14.0417 48.9688 13.5312C47.9844 13.0208 46.9531 12.6417 45.875 12.3938C44.7969 12.1458 43.6719 12.0146 42.5 12C40.7656 12 39.1328 12.2844 37.6016 12.8531C36.0703 13.4219 34.7031 14.2021 33.5 15.1937C32.2969 16.1854 31.3203 17.374 30.5703 18.7594C29.8203 20.1448 29.3203 21.625 29.0703 23.2Z" fill="url(#paint0_linear)"/>
</g>
<g filter="url(#filter1_d)">
<path d="M16.0937 29.6C14.4271 29.6 12.8646 29.9437 11.4062 30.6312C9.94791 31.3187 8.66666 32.2469 7.5625 33.4156C6.45833 34.5844 5.59375 35.9823 4.96875 37.6094C4.34375 39.2365 4.02083 40.9667 4 42.8C4 44.6333 4.3125 46.3406 4.9375 47.9219C5.5625 49.5031 6.41666 50.901 7.5 52.1156C8.58333 53.3302 9.86458 54.2812 11.3437 54.9688C12.8229 55.6562 14.375 56 16 56H52C54.2083 56 56.2812 55.5417 58.2187 54.625C60.1562 53.7083 61.8542 52.4594 63.3125 50.8781C64.7708 49.2969 65.9167 47.4292 66.75 45.275C67.5833 43.1208 68 40.8292 68 38.4C68 35.9708 67.5833 33.6906 66.75 31.5594C65.9167 29.4281 64.4375 27.6042 63 26C61.5 24.5 59.9583 23.4167 58 22.5C56.0417 21.5833 54.4062 21.1094 52 21C51.0417 21 50 21 49.0937 21.1094C48.2604 19.6885 47.3021 18.4167 46.2187 17.2937C45.1354 16.1708 43.9375 15.2083 42.625 14.4063C41.3125 13.6042 39.9375 13.0083 38.5 12.6187C37.0625 12.2292 35.5625 12.0229 34 12C31.6875 12 29.5104 12.4469 27.4687 13.3406C25.4271 14.2344 23.6042 15.4604 22 17.0187C20.3958 18.5771 19.0937 20.4448 18.0937 22.6219C17.0937 24.799 16.4271 27.125 16.0937 29.6Z" fill="url(#paint1_linear)"/>
<path d="M16.1383 29.606L16.1331 29.645H16.0937C14.4335 29.645 12.8776 29.9874 11.4254 30.672C9.97217 31.3571 8.69551 32.2819 7.59521 33.4465C6.4954 34.6107 5.63383 36.0034 5.01075 37.6255C4.38777 39.2473 4.06577 40.9722 4.045 42.8005C4.04506 44.6284 4.35664 46.3299 4.97935 47.9053C5.60249 49.4819 6.45393 50.8752 7.53358 52.0857C8.61282 53.2957 9.88909 54.243 11.3627 54.9279C12.836 55.6127 14.3816 55.955 16 55.955H52C54.2019 55.955 56.2682 55.4981 58.1995 54.5843C60.1318 53.6701 61.825 52.4246 63.2794 50.8476C64.7336 49.2708 65.8766 47.4081 66.708 45.2588C67.5393 43.11 67.955 40.8239 67.955 38.4C67.955 35.9761 67.5393 33.7015 66.7081 31.5758C65.8781 29.4529 64.404 27.6343 62.9673 26.0309C61.4713 24.5351 59.9342 23.455 57.9809 22.5408C56.0276 21.6264 54.3981 21.1542 51.999 21.045C51.0403 21.045 50.0019 21.0451 49.0991 21.1541L49.0699 21.1576L49.0549 21.1321C48.2233 19.7142 47.2671 18.4452 46.1864 17.325C45.1056 16.2048 43.9107 15.2447 42.6015 14.4446C41.2926 13.6447 39.9215 13.0506 38.4882 12.6622C37.0546 12.2737 35.5585 12.0679 33.9997 12.045C31.6933 12.045 29.5225 12.4907 27.4868 13.3818C25.4501 14.2734 23.6317 15.4964 22.0314 17.051C20.4314 18.6052 19.1325 20.4683 18.1346 22.6407C17.1366 24.8135 16.4711 27.1352 16.1383 29.606Z" stroke="#C6E5FF" stroke-width="0.09"/>
</g>
<path d="M68 36.5368C68 44.2688 59.3755 50.5 51 50.5C42.6245 50.5 37.5 43.732 37.5 36C37.5 28.268 42.7897 21 51.1652 21C59.5407 21 68 28.8049 68 36.5368Z" fill="url(#paint2_linear)"/>
<path d="M47.5172 25.4576C44.3448 25.4576 41.5172 26.6102 39.3103 28.4407C39.3103 28.4407 39.2414 28.4407 39.2414 28.5085C40.5517 25.7966 42.8276 23.5593 45.5862 22.2712C43.2414 19.6271 39.8621 18 36 18C29.0345 18 23.4483 23.5593 23.4483 30.2712C23.4483 31.3559 23.5862 32.4407 23.8621 33.4576C22.8966 33.1186 21.8621 32.9153 20.7586 32.9153C15.931 32.9153 12 36.7797 12 41.4576C12 46.1356 15.931 50 20.7586 50C20.8276 50 20.8966 50 20.8966 50H47.2414C47.3103 50 47.3793 50 47.4483 50C54.4138 50 60 44.4407 60 37.7288C60 31.0169 54.4138 25.4576 47.5172 25.4576Z" fill="url(#paint3_linear)"/>
<defs>
<filter id="filter0_dd" x="18" y="10" width="53" height="33" filterUnits="userSpaceOnUse" color-interpolation-filters="sRGB">
<feFlood flood-opacity="0" result="BackgroundImageFix"/>
<feColorMatrix in="SourceAlpha" type="matrix" values="0 0 0 0 0 0 0 0 0 0 0 0 0 0 0 0 0 0 127 0"/>
<feOffset/>
<feGaussianBlur stdDeviation="1"/>
<feColorMatrix type="matrix" values="0 0 0 0 0 0 0 0 0 0 0 0 0 0 0 0 0 0 0.2 0"/>
<feBlend mode="normal" in2="BackgroundImageFix" result="effect1_dropShadow"/>
<feColorMatrix in="SourceAlpha" type="matrix" values="0 0 0 0 0 0 0 0 0 0 0 0 0 0 0 0 0 0 127 0"/>
<feOffset dx="1" dy="1"/>
<feGaussianBlur stdDeviation="1"/>
<feColorMatrix type="matrix" values="0 0 0 0 0 0 0 0 0 0 0 0 0 0 0 0 0 0 0.25 0"/>
<feBlend mode="normal" in2="effect1_dropShadow" result="effect2_dropShadow"/>
<feBlend mode="normal" in="SourceGraphic" in2="effect2_dropShadow" result="shape"/>
</filter>
<filter id="filter1_d" x="2" y="12" width="68" height="48" filterUnits="userSpaceOnUse" color-interpolation-filters="sRGB">
<feFlood flood-opacity="0" result="BackgroundImageFix"/>
<feColorMatrix in="SourceAlpha" type="matrix" values="0 0 0 0 0 0 0 0 0 0 0 0 0 0 0 0 0 0 127 0"/>
<feOffset dy="2"/>
<feGaussianBlur stdDeviation="1"/>
<feColorMatrix type="matrix" values="0 0 0 0 0 0 0 0 0 0 0 0 0 0 0 0 0 0 0.25 0"/>
<feBlend mode="normal" in2="BackgroundImageFix" result="effect1_dropShadow"/>
<feBlend mode="normal" in="SourceGraphic" in2="effect1_dropShadow" result="shape"/>
</filter>
<linearGradient id="paint0_linear" x1="42" y1="38.5" x2="64.3781" y2="31.8849" gradientUnits="userSpaceOnUse">
<stop offset="0.419959" stop-color="#77ACDC"/>
<stop offset="1" stop-color="#3C88C4"/>
</linearGradient>
<linearGradient id="paint1_linear" x1="7.18013" y1="15.5318" x2="69.542" y2="50.6709" gradientUnits="userSpaceOnUse">
<stop stop-color="white"/>
<stop offset="0.387304" stop-color="#C6EBFF"/>
<stop offset="0.96875" stop-color="#96C6E0"/>
</linearGradient>
<linearGradient id="paint2_linear" x1="45.9657" y1="21.4" x2="49.3129" y2="37.5147" gradientUnits="userSpaceOnUse">
<stop offset="0.265243" stop-color="#F4F8FA"/>
<stop offset="0.899425" stop-color="#F4F8FA" stop-opacity="0"/>
</linearGradient>
<linearGradient id="paint3_linear" x1="16.4528" y1="25.4415" x2="43.5646" y2="53.0997" gradientUnits="userSpaceOnUse">
<stop offset="0.0589154" stop-color="#98DAFE"/>
<stop offset="0.751885" stop-color="#E7F6FF"/>
<stop offset="1" stop-color="#BCE6FF"/>
</linearGradient>
</defs>
</svg>
