<?xml version="1.0" encoding="utf-8"?>
<!-- Generator: Adobe Illustrator 17.1.0, SVG Export Plug-In . SVG Version: 6.00 Build 0)  -->
<!DOCTYPE svg PUBLIC "-//W3C//DTD SVG 1.1//EN" "http://www.w3.org/Graphics/SVG/1.1/DTD/svg11.dtd">
<svg version="1.1" id="Layer_1" xmlns="http://www.w3.org/2000/svg" xmlns:xlink="http://www.w3.org/1999/xlink" x="0px" y="0px"
	 viewBox="0 0 300 300" enable-background="new 0 0 300 300" xml:space="preserve">
<path fill="#D8D8D8" d="M31.9,297.6c-16.3,0-29.5-13.2-29.5-29.5V31.9c0-16.3,13.2-29.5,29.5-29.5h236.1c16.3,0,29.5,13.2,29.5,29.5
	v236.1c0,16.3-13.2,29.5-29.5,29.5H31.9z"/>
<g>
	<g>
		<g>
			<path fill="#565757" d="M250.5,45.6H49.5C39.3,45.6,31,53.9,31,64.1v122h238v-122C269,53.9,260.7,45.6,250.5,45.6z"/>
			<path fill="#565757" d="M31,203.2c0,10.2,8.3,18.5,18.5,18.5h65.7l0,18.2c0,1.8-0.8,3.5-2.2,4.6l-10,7.8h44.9h4.4h44.9l-10-7.8
				c-1.4-1.1-2.2-2.8-2.2-4.6l0-18.2h65.7c10.2,0,18.5-8.3,18.5-18.5v-10.4H31V203.2z"/>
		</g>
		<rect x="93.2" y="251.3" fill="#4B4B4C" width="113.7" height="3.1"/>
	</g>
	<polygon fill="#DAD9D9" points="224.6,146.9 205.3,131.9 211.4,124.1 171.7,115.8 189.3,152.4 196.4,143.3 215.8,158.3 	"/>
	<path fill="#DAD9D9" d="M153.2,125.8c-0.6-0.8-1.4-1.2-2.3-1.2c-4.3,0-8.7,0-13,0c-8.7,0-17.3,0-26,0c-7,0-14,0-21,0
		c-1,0-1.8-0.4-2.4-1.1c-0.6-0.9-0.9-1.8-0.5-2.8l60.4-10.5c0,0,0.1,0,0.1,0l0.2,0l0,0c0.8-0.2,1.4-0.9,1.5-1.8l1.5-20.9
		c0.1-1.5-1-2.8-2.5-2.9l-3-0.2l-73.7-5.2c-0.4,0-0.8,0-1.2,0.2c-0.4-1-0.8-2-1.2-2.9l0,0c0-0.1-0.1-0.1-0.1-0.2c0,0,0-0.1,0-0.1
		l0,0c-0.4-0.9-1.1-1.5-2.2-1.7c-2.4-0.5-4.7-1-7.1-1.5c-2-0.4-4-0.8-6-1.2c-0.7-0.1-1.4-0.3-2.1-0.4c-1.6-0.3-3.4,1-3.2,2.9
		c0.1,1.2,0.9,2.1,2.3,2.4c2,0.4,4.1,0.9,6.2,1.3c1.8,0.4,3.6,0.7,5.4,1.1c0.6,0.1,1.2,0.2,1.7,0.3c0.2,0,0.4,0.2,0.4,0.4l0,0
		c0.5,1.3,1,2.6,1.6,3.9c0.4,1,0.8,2.1,1.2,3.1c0.3,0.7,0.5,1.3,0.8,2c0.5,1.2,0.9,2.5,1.4,3.7c0.1,0.4,0.3,0.8,0.5,1.2
		c0.5,1.2,1,2.5,1.5,3.7c0.4,1.2,0.9,2.3,1.3,3.5c0.1,0.3,0.3,0.6,0.4,0.9c0.5,1.3,1.1,2.7,1.6,4c0.4,1.2,0.8,2.3,1.3,3.5
		c0.6,1.5,1.2,2.9,1.7,4.4c0.7,1.7,1.3,3.5,2,5.2l2.2,5.5c0.6,1.8,1.6,3.1,3.1,4.2c0.5,0.3,0.9,0.6,1.5,0.9l10.7,0.1
		c-3.4,1.1-5.9,4.3-5.9,8.1c0,4.7,3.8,8.5,8.5,8.5s8.5-3.8,8.5-8.5c0-3.7-2.4-6.9-5.7-8l30.7,0.3c-2.9,1.3-4.9,4.3-4.9,7.7
		c0,4.7,3.8,8.5,8.5,8.5s8.5-3.8,8.5-8.5c0-3.3-1.9-6.2-4.7-7.6l5.3,0.1c0.3,0,0.6,0,0.8,0c1.2,0,2.5,0.1,3.7-0.1
		C153.2,129.8,154.4,127.5,153.2,125.8z M144.8,103.2c-0.1,1.2-1,2.3-2.2,2.5l-8.4,1.5l-1.3-5.6c-0.2-0.9,0.4-1.7,1.3-1.8l10.9-0.5
		L144.8,103.2z M143,89.6c1.5,0.1,2.6,1.4,2.5,2.9l-0.2,2.5l-12.8,0.6c-0.7,0-1.3-0.4-1.5-1.1l-1.4-5.9L143,89.6z M128.4,101.2
		l1.6,6.6l-12.8,2.2l-1.8-7.7c-0.2-0.9,0.4-1.7,1.3-1.8l10.2-0.5C127.6,100.1,128.2,100.6,128.4,101.2z M125.3,88.3l1.4,5.9
		c0.2,0.9-0.4,1.7-1.3,1.8l-10.2,0.5c-0.7,0-1.3-0.4-1.5-1.1l-1.9-8L125.3,88.3z M110.9,102.1l2.1,8.7l-12.1,2.1l-2.3-9.7
		c-0.2-0.9,0.4-1.7,1.3-1.8l9.5-0.5C110.1,101,110.7,101.4,110.9,102.1z M107.3,87l1.9,8c0.2,0.9-0.4,1.7-1.3,1.8l-9.5,0.5
		c-0.7,0-1.3-0.4-1.5-1.1l-2.4-10.1L107.3,87z M78.8,98.4l-5.4-13.7L90,85.8l2.4,10.1c0.2,0.9-0.4,1.7-1.3,1.8l-11.7,0.6
		C79.1,98.2,78.9,98.3,78.8,98.4z M85.5,115.6l-5.2-13.2l12.3-0.6c0.7,0,1.3,0.4,1.5,1.1l2.5,10.7L85.5,115.6z"/>
	<circle fill="#DAD9D9" cx="150" cy="206.7" r="4.9"/>
</g>
</svg>
