<svg xmlns="http://www.w3.org/2000/svg" viewBox="1634 692 16 16">  <g id="balloonBlack" transform="translate(1442 612)">    <path id="Fill1" fill="white" d="M3.5.5a3.97,3.97,0,0,1,4,5.226c-.732,2.9-2.067,4.774-4,4.774S.139,8.455-.5,5.726A4.069,4.069,0,0,1,3.5.5Z" transform="translate(200 81)"/>    <path id="Fill2" fill="white" d="M3.5.5a3.97,3.97,0,0,1,4,5.226c-.732,2.9-2.067,4.774-4,4.774S.139,8.455-.5,5.726A4.069,4.069,0,0,1,3.5.5Z" transform="translate(193 80)"/>    <path fill="black" d="M13.5-11a.481.481,0,0,1-.352-.148A.481.481,0,0,1,13-11.5a1.472,1.472,0,0,0-.117-.586,1.5,1.5,0,0,0-.32-.477,1.5,1.5,0,0,0-.477-.32A1.472,1.472,0,0,0,11.5-13a.481.481,0,0,1-.352-.148A.481.481,0,0,1,11-13.5a.481.481,0,0,1,.148-.352A.481.481,0,0,1,11.5-14a2.449,2.449,0,0,1,.973.2,2.509,2.509,0,0,1,.8.535,2.509,2.509,0,0,1,.535.8,2.449,2.449,0,0,1,.2.973.481.481,0,0,1-.148.352A.481.481,0,0,1,13.5-11Zm-9-4a2.449,2.449,0,0,1,.973.2,2.509,2.509,0,0,1,.8.535,2.509,2.509,0,0,1,.535.8A2.449,2.449,0,0,1,7-12.5a.481.481,0,0,1-.148.352A.481.481,0,0,1,6.5-12a.481.481,0,0,1-.352-.148A.481.481,0,0,1,6-12.5a1.472,1.472,0,0,0-.117-.586,1.5,1.5,0,0,0-.32-.477,1.5,1.5,0,0,0-.477-.32A1.472,1.472,0,0,0,4.5-14a.481.481,0,0,1-.352-.148A.481.481,0,0,1,4-14.5a.481.481,0,0,1,.148-.352A.481.481,0,0,1,4.5-15ZM12-5.18q0,.156-.012.359a1.53,1.53,0,0,0,.023.383.665.665,0,0,0,.145.309A.426.426,0,0,0,12.5-4a2.449,2.449,0,0,1,.973.2,2.509,2.509,0,0,1,.8.535,2.509,2.509,0,0,1,.535.8A2.449,2.449,0,0,1,15-1.5a.481.481,0,0,1-.148.352A.481.481,0,0,1,14.5-1a.481.481,0,0,1-.352-.148A.481.481,0,0,1,14-1.5a1.472,1.472,0,0,0-.117-.586,1.5,1.5,0,0,0-.32-.477,1.5,1.5,0,0,0-.477-.32A1.472,1.472,0,0,0,12.5-3a1.472,1.472,0,0,1-.586-.117,1.5,1.5,0,0,1-.477-.32,1.5,1.5,0,0,1-.32-.477A1.472,1.472,0,0,1,11-4.5v-.68A6.966,6.966,0,0,1,9.07-6.531,6.772,6.772,0,0,1,7.711-8.453a6.853,6.853,0,0,1-1.2,1.313A6.8,6.8,0,0,1,5-6.18v.68a1.472,1.472,0,0,0,.117.586,1.5,1.5,0,0,0,.32.477,1.5,1.5,0,0,0,.477.32A1.472,1.472,0,0,0,6.5-4q.414,0,.781,0a3.848,3.848,0,0,1,.7.055,2.344,2.344,0,0,1,.648.215,2.57,2.57,0,0,1,.633.469,2.5,2.5,0,0,1,.547.809A2.459,2.459,0,0,1,10-1.5a.481.481,0,0,1-.148.352A.481.481,0,0,1,9.5-1a.481.481,0,0,1-.352-.148A.481.481,0,0,1,9-1.5a1.472,1.472,0,0,0-.117-.586,1.5,1.5,0,0,0-.32-.477,1.5,1.5,0,0,0-.477-.32A1.472,1.472,0,0,0,7.5-3h-1a2.449,2.449,0,0,1-.973-.2,2.509,2.509,0,0,1-.8-.535,2.509,2.509,0,0,1-.535-.8A2.449,2.449,0,0,1,4-5.5v-.68A6.822,6.822,0,0,1,2.344-7.273,7,7,0,0,1,1.082-8.762a7.081,7.081,0,0,1-.8-1.773A6.88,6.88,0,0,1,0-12.5a4.354,4.354,0,0,1,.355-1.75,4.569,4.569,0,0,1,.965-1.43,4.569,4.569,0,0,1,1.43-.965A4.354,4.354,0,0,1,4.5-17a4.415,4.415,0,0,1,1.172.156,4.559,4.559,0,0,1,1.078.449,4.54,4.54,0,0,1,.93.711,4.314,4.314,0,0,1,.719.941,4.379,4.379,0,0,1,1.426-.934A4.424,4.424,0,0,1,11.5-16a4.354,4.354,0,0,1,1.75.355,4.569,4.569,0,0,1,1.43.965,4.569,4.569,0,0,1,.965,1.43A4.354,4.354,0,0,1,16-11.5a6.88,6.88,0,0,1-.281,1.965,7.081,7.081,0,0,1-.8,1.773,7,7,0,0,1-1.262,1.488A6.822,6.822,0,0,1,12-5.18ZM4.5-7.047A5.877,5.877,0,0,0,5.949-7.98a6.047,6.047,0,0,0,1.1-1.277,6,6,0,0,0,.7-1.535A5.935,5.935,0,0,0,8-12.5a3.376,3.376,0,0,0-.277-1.363,3.566,3.566,0,0,0-.75-1.109,3.566,3.566,0,0,0-1.109-.75A3.376,3.376,0,0,0,4.5-16a3.376,3.376,0,0,0-1.363.277,3.566,3.566,0,0,0-1.109.75,3.566,3.566,0,0,0-.75,1.109A3.376,3.376,0,0,0,1-12.5a5.935,5.935,0,0,0,.246,1.707,6,6,0,0,0,.7,1.535,6.047,6.047,0,0,0,1.1,1.277A5.877,5.877,0,0,0,4.5-7.047ZM8.344-9.539a5.7,5.7,0,0,0,.508,1.1,6.122,6.122,0,0,0,.715.969,5.95,5.95,0,0,0,.891.8,6.073,6.073,0,0,0,1.043.617,5.877,5.877,0,0,0,1.449-.934,6.047,6.047,0,0,0,1.1-1.277,6,6,0,0,0,.7-1.535A5.935,5.935,0,0,0,15-11.5a3.376,3.376,0,0,0-.277-1.363,3.566,3.566,0,0,0-.75-1.109,3.566,3.566,0,0,0-1.109-.75A3.376,3.376,0,0,0,11.5-15a3.384,3.384,0,0,0-1.477.332,3.5,3.5,0,0,0-1.2.934,4.29,4.29,0,0,1,.129.609A4.583,4.583,0,0,1,9-12.5a7.054,7.054,0,0,1-.164,1.52A6.778,6.778,0,0,1,8.344-9.539Z" transform="translate(192 97)"/>  </g></svg>