<svg xmlns="http://www.w3.org/2000/svg" viewBox="0 0 148 30"><defs><style>.cls-1{fill:#fff;}.cls-2{fill:#f9bb21;}</style></defs><g id="Layer_2" data-name="Layer 2"><g id="Layer_1-2" data-name="Layer 1"><g id="bf_pro_white_logo" data-name="bf pro white logo"><path class="cls-1" d="M8.27,12.5a8,8,0,0,0-5.4,2.14V1A.61.61,0,0,0,2.28.42H.59A.61.61,0,0,0,0,1V21.46H0v.42A8.18,8.18,0,0,0,8.27,30a8.56,8.56,0,0,0,8.27-8.79A8.53,8.53,0,0,0,8.27,12.5Zm0,14.79c-3,0-5.29-2.57-5.4-5.83v-.25a5.67,5.67,0,0,1,5.4-6,5.67,5.67,0,0,1,5.4,6C13.67,24.58,11.3,27.29,8.27,27.29Z"/><path class="cls-1" d="M39.84,4.69a2,2,0,1,0,2,2A2,2,0,0,0,39.84,4.69Z"/><path class="cls-1" d="M79.13,0c-3.58,0-6.36,2.25-6.36,7.08V29a.61.61,0,0,0,.59.59H75a.61.61,0,0,0,.6-.59V15.42h5a.61.61,0,0,0,.59-.59V13.51a.62.62,0,0,0-.59-.6h-5V7.08c0-3.21,1.54-4.5,3.45-4.5a5.52,5.52,0,0,1,3,1.21c.42.33.83.38,1.08,0l.67-1.08a.79.79,0,0,0-.17-1A6.63,6.63,0,0,0,79.13,0Z"/><path class="cls-1" d="M100.54,12.5a6.15,6.15,0,0,0-5,2.21l-.33-1.21a.73.73,0,0,0-.71-.59h-1a.62.62,0,0,0-.59.6V29a.61.61,0,0,0,.59.59h1.69A.61.61,0,0,0,95.8,29V17.66a5.34,5.34,0,0,1,4.53-2.33,4.24,4.24,0,0,1,1.62.34c.41.16.79.16,1-.38l.49-1.42C103.86,12.71,101.78,12.5,100.54,12.5Z"/><path class="cls-1" d="M113.21,12.5c-5,0-8.14,4-8.14,8.75S108.18,30,113.21,30a10.32,10.32,0,0,0,6.11-1.92c.62-.45.46-.71.17-1.08l-.71-1c-.33-.46-.58-.25-1.16.08a7.85,7.85,0,0,1-4.12,1.25A5.84,5.84,0,0,1,107.93,22h12a.77.77,0,0,0,.75-.71,10.54,10.54,0,0,0,.08-1.13A7.34,7.34,0,0,0,113.21,12.5ZM108,19.63A5.19,5.19,0,0,1,113.21,15a4.82,4.82,0,0,1,4.66,4.59Z"/><path class="cls-1" d="M87,4.69a2,2,0,1,0,2,2A2,2,0,0,0,87,4.69Z"/><path class="cls-1" d="M34.21,13.51a.62.62,0,0,0-.59-.6H31.93a.62.62,0,0,0-.59.6v6.56h0v4.76a6.58,6.58,0,0,1-5,2.38c-2.33,0-3.74-1.55-3.74-4.71V13.71s0,0,0,0v-.17a.62.62,0,0,0-.59-.6H20.34a.62.62,0,0,0-.59.6v9c0,4.41,1.62,7.54,6.44,7.54a7.56,7.56,0,0,0,5.4-2.21l.3,1.08c.12.42.29.71.74.71h1a.61.61,0,0,0,.59-.59v-.2h0V13.71h0Z"/><path class="cls-1" d="M40.71,12.91H39a.62.62,0,0,0-.59.6V29a.61.61,0,0,0,.59.59h1.69A.61.61,0,0,0,41.3,29V13.51A.62.62,0,0,0,40.71,12.91Z"/><path class="cls-1" d="M88.41,13.51a.62.62,0,0,0-.6-.6H86.13a.62.62,0,0,0-.59.6v6.56h0v2.32h0V29a.61.61,0,0,0,.59.59h1.68a.61.61,0,0,0,.6-.59v-.2h0V13.71h0Z"/><path class="cls-1" d="M47.83.42H46.14a.61.61,0,0,0-.59.59V7.57h0V22.39h0V29a.61.61,0,0,0,.59.59h1.68a.61.61,0,0,0,.6-.59V22.43h0V7.6h0V1A.61.61,0,0,0,47.83.42Z"/><path class="cls-1" d="M67.9.42H66.21a.61.61,0,0,0-.59.59V7.57h0v7.07a8,8,0,0,0-5.4-2.14,8.54,8.54,0,0,0-8.28,8.71A8.56,8.56,0,0,0,60.22,30a8.16,8.16,0,0,0,8.26-8.12c0-.05,0-.25,0-.42h0V7.6h0V1A.61.61,0,0,0,67.9.42Zm-2.28,21c-.12,3.26-2.44,5.83-5.4,5.83s-5.41-2.71-5.41-6.08a5.43,5.43,0,1,1,10.81,0Z"/><path class="cls-2" d="M126.79,15.76a.31.31,0,0,1-.34.3h-.93a.27.27,0,0,1-.24-.3l1.45-10.31a.32.32,0,0,1,.31-.3h.48a.23.23,0,0,1,.22.21l.09.4A2.88,2.88,0,0,1,129.68,5C131.07,5,132,6.28,132,7.8a3.5,3.5,0,0,1-3.25,3.74,2.26,2.26,0,0,1-1.26-.37Zm1.91-5.56a2.08,2.08,0,0,0,1.79-2.26c0-.85-.4-1.59-1.16-1.59a1.93,1.93,0,0,0-1.39.78l-.34,2.6A1.44,1.44,0,0,0,128.7,10.2Z"/><path class="cls-2" d="M134.55.77a.34.34,0,0,1,.31-.29h.95a.24.24,0,0,1,.21.29l-1.44,10.32a.34.34,0,0,1-.3.3h-1c-.14,0-.23-.14-.22-.3Z"/><path class="cls-2" d="M136.83,8.6l.44-3.15a.36.36,0,0,1,.31-.3h.95a.25.25,0,0,1,.23.3l-.45,3.18c-.14,1,.2,1.57.89,1.57a2,2,0,0,0,1.41-1l.51-3.77c0-.25.14-.3.36-.3h.85a.27.27,0,0,1,.24.3l-.79,5.64a.34.34,0,0,1-.32.3H141c-.14,0-.18-.11-.21-.25l-.1-.46a2.76,2.76,0,0,1-2,.86C137,11.54,136.61,10.22,136.83,8.6Z"/><path class="cls-2" d="M143.53,10.58l.36-.6a.23.23,0,0,1,.34-.07,2,2,0,0,0,1.21.37.68.68,0,0,0,.76-.62c0-.35-.24-.56-.85-.92S144,7.77,144,6.91,144.62,5,146.24,5a2.77,2.77,0,0,1,1.63.48.31.31,0,0,1,.06.45l-.3.53a.3.3,0,0,1-.37.13,2.23,2.23,0,0,0-1.13-.3c-.49,0-.7.25-.7.53s.28.53.73.8c.88.51,1.58.93,1.58,1.9,0,1.12-.82,2-2.37,2a2.78,2.78,0,0,1-1.81-.64A.23.23,0,0,1,143.53,10.58Z"/></g></g></g></svg>