<?xml version="1.0" encoding="UTF-8"?>
<svg width="27px" height="30px" viewBox="0 0 27 30" version="1.1" xmlns="http://www.w3.org/2000/svg" xmlns:xlink="http://www.w3.org/1999/xlink">
    <!-- Generator: Sketch 55.2 (78181) - https://sketchapp.com -->
    <title>bf plus overview</title>
    <desc>Created with Sketch.</desc>
    <g id="Page-1" stroke="none" stroke-width="1" fill="none" fill-rule="evenodd">
        <g id="bf-plus-overview" fill-rule="nonzero">
            <path d="M5.4,9.82 C5.4230604,8.70227428 4.61492975,7.74021399 3.51,7.57 C1.86,7.15 1.62,6.47 1.62,6.47 C1.62,6.47 1.49,8.3 4.17,9.07 C5.2,9.36 5.4,9.82 5.4,9.82 Z" id="Path" fill="#2080FB"></path>
            <path d="M6.59,12.55 C4.16,9.37 0,10.61 0,10.61 C1.84743274,10.7054146 3.50108924,11.7862108 4.33,13.44 C5.15983826,15.086917 6.80837914,16.1630478 8.65,16.26 C7.18,15 8.33,12.52 6,11.38 C6.29332886,11.7132336 6.49644602,12.1160252 6.59,12.55 L6.59,12.55 Z" id="Path" fill="#2080FB"></path>
            <path d="M17.72,13.37 L14.49,13.37 L14.49,13.37 C14.49,13.37 13.57,7.19 9.12,3.66 C8.58255808,3.25210024 7.99427646,2.91593931 7.37,2.66 C3.61,1.5 3.35,1.11 2.59,0 C2.79306508,1.38156951 3.8067102,2.50565068 5.16,2.85 C7.62,3.7 8.71,4.74 7.94,6 C7.43,6.85 5.4,7.18 4.79,5 C4.79,5 4.86,8.42 7.79,8.07 C8.94,7.93 10.25,8.45 9.95,9.64 C9.65,10.83 7.35,10.3 6.77,9.99 C7.93,10.92 9.61,10.57 9.47,17.73 L9.47,21.73 C9.49206618,26.2976457 13.2088625,29.9846502 17.7765379,29.9700009 C22.3442133,29.9552641 26.0372126,26.2444242 26.0299036,21.676731 C26.0225729,17.1090379 22.317699,13.4100533 17.75,13.41 L17.72,13.37 Z M17.72,24.93 C15.9359704,24.9079733 14.5054697,23.4477677 14.5201091,21.6636622 C14.5347485,19.8795567 15.9890182,18.4430219 17.773169,18.4502464 C19.5573199,18.4575255 20.999864,19.9058344 21.0000167,21.69 C21.0027886,22.5571157 20.6568135,23.3889375 20.0399169,23.9983109 C19.4230203,24.6076844 18.5870162,24.9434274 17.72,24.93 L17.72,24.93 Z" id="Shape" fill="#0C2043"></path>
            <rect id="Rectangle" fill="#2080FB" transform="translate(22.250000, 4.660000) rotate(90.000000) translate(-22.250000, -4.660000) " x="21.54" y="1.13" width="1.42" height="7.06" rx="0.71"></rect>
            <rect id="Rectangle" fill="#2080FB" x="21.55" y="1.12" width="1.41" height="7.08" rx="0.705"></rect>
        </g>
    </g>
</svg>