<svg xmlns="http://www.w3.org/2000/svg" viewBox="0 0 372.87 92.42"><defs><style>.cls-1{fill:#2080fb;}.cls-2{fill:#0c2043;}</style></defs><title>Layer 1</title><g id="Layer_2" data-name="Layer 2"><g id="Layer_1-2" data-name="Layer 1"><path class="cls-1" d="M25.54,38.5A24.62,24.62,0,0,0,8.85,45.1v-42A1.89,1.89,0,0,0,7,1.28H1.83A1.9,1.9,0,0,0,0,3.11v63H0c0,.53,0,1.15,0,1.31a25.18,25.18,0,0,0,25.53,25c14.25,0,25.55-12.32,25.55-27.09C51.09,50.82,39.79,38.5,25.54,38.5Zm0,45.57c-9.14,0-16.32-7.93-16.67-18,0-.25,0-.51,0-.77C8.85,55.19,16.17,47,25.54,47s16.69,8.21,16.69,18.35C42.23,75.73,34.91,84.07,25.54,84.07Z"/><path class="cls-1" d="M123.05,14.44a6.1,6.1,0,1,0,6.16,6.16A6,6,0,0,0,123.05,14.44Z"/><path class="cls-2" d="M244.37,0c-11,0-19.64,6.93-19.64,21.82V89.3a1.9,1.9,0,0,0,1.83,1.83h5.2a1.89,1.89,0,0,0,1.83-1.83V47.49h15.52a1.9,1.9,0,0,0,1.83-1.83v-4a1.89,1.89,0,0,0-1.83-1.83H233.59v-18c0-9.88,4.75-13.87,10.65-13.87,3.85,0,7.7,2.44,9.38,3.73,1.28,1,2.56,1.15,3.33-.13L259,8.21a2.37,2.37,0,0,0-.51-3A20.5,20.5,0,0,0,244.37,0Z"/><path class="cls-2" d="M310.49,38.5c-10.66,0-15.41,6.8-15.41,6.8l-1-3.72a2.19,2.19,0,0,0-2.19-1.79h-3A1.89,1.89,0,0,0,287,41.62V89.3a1.89,1.89,0,0,0,1.82,1.83H294a1.89,1.89,0,0,0,1.83-1.83V54.42a16.5,16.5,0,0,1,14-7.18,13.34,13.34,0,0,1,5,1c1.28.51,2.44.51,3.08-1.16l1.54-4.36C320.75,39.15,314.34,38.5,310.49,38.5Z"/><path class="cls-2" d="M349.63,38.5c-15.53,0-25.15,12.46-25.15,27,0,14.75,9.62,27,25.15,27,8.86,0,15.79-3.47,18.87-5.91,1.93-1.41,1.41-2.18.51-3.34s-1.41-1.92-2.18-3c-1-1.41-1.8-.77-3.59.25a24.4,24.4,0,0,1-12.71,3.86c-9.11,0-16.68-8.09-17.2-16.69h37a2.36,2.36,0,0,0,2.31-2.17,31.34,31.34,0,0,0,.26-3.47C372.87,48.51,363.11,38.5,349.63,38.5Zm-16.17,22a16,16,0,0,1,16.17-14.12c7.83,0,14,6.67,14.38,14.12Z"/><path class="cls-2" d="M268.53,14.44a6.1,6.1,0,1,0,6.16,6.16A6,6,0,0,0,268.53,14.44Z"/><path class="cls-1" d="M105.66,41.62a1.89,1.89,0,0,0-1.82-1.83H98.62a1.89,1.89,0,0,0-1.83,1.83V61.84h0V76.5a20.28,20.28,0,0,1-15.27,7.32C74.34,83.82,70,79.06,70,69.31V42.23s0-.06,0-.09v-.52a1.9,1.9,0,0,0-1.83-1.83H62.82A1.9,1.9,0,0,0,61,41.62V69.19c0,13.59,5,23.23,19.9,23.23a23.41,23.41,0,0,0,16.68-6.8l.9,3.33c.39,1.29.9,2.18,2.32,2.18h3a1.89,1.89,0,0,0,1.83-1.83v-.61h0V42.23h0Z"/><path class="cls-1" d="M125.72,39.79h-5.2a1.89,1.89,0,0,0-1.83,1.83V89.3a1.89,1.89,0,0,0,1.82,1.83h5.2a1.89,1.89,0,0,0,1.83-1.83V41.62A1.89,1.89,0,0,0,125.72,39.79Z"/><path class="cls-2" d="M273,41.62a1.89,1.89,0,0,0-1.82-1.83H266a1.89,1.89,0,0,0-1.83,1.83V61.84h0V69h0V89.3A1.89,1.89,0,0,0,266,91.13h5.2A1.89,1.89,0,0,0,273,89.3v-.61h0V42.23h0Z"/><path class="cls-1" d="M147.7,1.28h-5.2a1.9,1.9,0,0,0-1.83,1.84V23.33h0V69h0V89.3a1.9,1.9,0,0,0,1.83,1.83h5.2a1.9,1.9,0,0,0,1.83-1.83V69.08h0V23.43h0V3.12A1.9,1.9,0,0,0,147.7,1.28Z"/><path class="cls-1" d="M209.68,1.28h-5.2a1.9,1.9,0,0,0-1.83,1.84V23.33h0V45.1A24.59,24.59,0,0,0,186,38.5c-14.24,0-25.54,12.32-25.54,26.83,0,14.77,11.3,27.09,25.54,27.09a25.19,25.19,0,0,0,25.54-25c0-.16,0-.78,0-1.31h0V23.43h0V3.12A1.9,1.9,0,0,0,209.68,1.28Zm-7,64.82c-.35,10-7.53,18-16.68,18-9.37,0-16.68-8.34-16.68-18.74C169.28,55.19,176.59,47,186,47s16.69,8.21,16.69,18.35C202.65,65.59,202.65,65.85,202.64,66.1Z"/></g></g></svg>