<svg xmlns="http://www.w3.org/2000/svg" viewBox="1634 2132 16 16">  <g id="bikeBlack" transform="translate(1442 2051)">    <path id="Fill1" fill="black" d="M201.493,84.743l-3.742,3.742V89.58l1.343,1.343v2.926l.906.906.906-.906V90.086L200,89.18l1.493-1.493L202.8,89h3.1l.823-.823-1.033-1.033H204Z"/>    <circle id="Fill2" fill="black" cx="1.5" cy="1.5" r="1.5" transform="translate(201.5 82.5)"/>    <path fill="white" d="M3-7.937A2.924,2.924,0,0,1,4.164-7.7a3.024,3.024,0,0,1,.957.645,3.024,3.024,0,0,1,.645.957A2.924,2.924,0,0,1,6-4.937,2.915,2.915,0,0,1,5.766-3.77a3.036,3.036,0,0,1-.645.953,3.024,3.024,0,0,1-.957.645A2.924,2.924,0,0,1,3-1.937a2.915,2.915,0,0,1-1.168-.234,3.036,3.036,0,0,1-.953-.645A3.036,3.036,0,0,1,.234-3.77,2.915,2.915,0,0,1,0-4.937,2.924,2.924,0,0,1,.234-6.1a3.024,3.024,0,0,1,.645-.957A3.036,3.036,0,0,1,1.832-7.7,2.915,2.915,0,0,1,3-7.937Zm0,5a1.946,1.946,0,0,0,.777-.156,2.02,2.02,0,0,0,.637-.43,2.02,2.02,0,0,0,.43-.637A1.946,1.946,0,0,0,5-4.937a1.946,1.946,0,0,0-.156-.777,2.02,2.02,0,0,0-.43-.637,2.02,2.02,0,0,0-.637-.43A1.946,1.946,0,0,0,3-6.937a1.946,1.946,0,0,0-.777.156,2.02,2.02,0,0,0-.637.43,2.02,2.02,0,0,0-.43.637A1.946,1.946,0,0,0,1-4.937a1.946,1.946,0,0,0,.156.777,2.02,2.02,0,0,0,.43.637,2.02,2.02,0,0,0,.637.43A1.946,1.946,0,0,0,3-2.937Zm10-5a2.924,2.924,0,0,1,1.164.234,3.024,3.024,0,0,1,.957.645,3.024,3.024,0,0,1,.645.957A2.924,2.924,0,0,1,16-4.937a2.915,2.915,0,0,1-.234,1.168,3.036,3.036,0,0,1-.645.953,3.024,3.024,0,0,1-.957.645A2.924,2.924,0,0,1,13-1.937a2.915,2.915,0,0,1-1.168-.234,3.036,3.036,0,0,1-.953-.645,3.036,3.036,0,0,1-.645-.953A2.915,2.915,0,0,1,10-4.937,2.924,2.924,0,0,1,10.234-6.1a3.024,3.024,0,0,1,.645-.957,3.036,3.036,0,0,1,.953-.645A2.915,2.915,0,0,1,13-7.937Zm0,5a1.946,1.946,0,0,0,.777-.156,2.02,2.02,0,0,0,.637-.43,2.02,2.02,0,0,0,.43-.637A1.946,1.946,0,0,0,15-4.937a1.946,1.946,0,0,0-.156-.777,2.02,2.02,0,0,0-.43-.637,2.02,2.02,0,0,0-.637-.43A1.946,1.946,0,0,0,13-6.937a1.946,1.946,0,0,0-.777.156,2.02,2.02,0,0,0-.637.43,2.02,2.02,0,0,0-.43.637A1.946,1.946,0,0,0,11-4.937a1.946,1.946,0,0,0,.156.777,2.02,2.02,0,0,0,.43.637,2.02,2.02,0,0,0,.637.43A1.946,1.946,0,0,0,13-2.937Zm-2-5.5a.481.481,0,0,1-.352-.148l-.9-.891-.8.789q.07.07.168.156a1.95,1.95,0,0,1,.18.18,1.231,1.231,0,0,1,.141.2.43.43,0,0,1,.059.219v3.5a1.472,1.472,0,0,1-.117.586,1.5,1.5,0,0,1-.32.477,1.5,1.5,0,0,1-.477.32A1.472,1.472,0,0,1,8-2.937a1.472,1.472,0,0,1-.586-.117,1.5,1.5,0,0,1-.477-.32,1.5,1.5,0,0,1-.32-.477A1.472,1.472,0,0,1,6.5-4.437v-2.3q-.211-.211-.422-.426t-.43-.426a2.755,2.755,0,0,1-.477-.6A1.485,1.485,0,0,1,5-8.93a1.743,1.743,0,0,1,.047-.422A1.581,1.581,0,0,1,5.18-9.7a1.63,1.63,0,0,1,.215-.312q.129-.148.285-.3l3.352-3.352a1.006,1.006,0,0,1-.023-.133A1.205,1.205,0,0,1,9-13.937a1.946,1.946,0,0,1,.156-.777,2.02,2.02,0,0,1,.43-.637,2.02,2.02,0,0,1,.637-.43A1.946,1.946,0,0,1,11-15.937a1.946,1.946,0,0,1,.777.156,2.02,2.02,0,0,1,.637.43,2.02,2.02,0,0,1,.43.637,1.946,1.946,0,0,1,.156.777,1.952,1.952,0,0,1-.1.629,2.011,2.011,0,0,1-.285.551,1.938,1.938,0,0,1-.441.434,2.09,2.09,0,0,1-.57.285l.6.6h1.3a1.472,1.472,0,0,1,.586.117,1.5,1.5,0,0,1,.477.32,1.5,1.5,0,0,1,.32.477A1.472,1.472,0,0,1,15-9.937a1.472,1.472,0,0,1-.117.586,1.5,1.5,0,0,1-.32.477,1.5,1.5,0,0,1-.477.32,1.472,1.472,0,0,1-.586.117Zm0-6.5a.969.969,0,0,0-.391.078,1.016,1.016,0,0,0-.316.215,1.016,1.016,0,0,0-.215.316.969.969,0,0,0-.078.391.969.969,0,0,0,.078.391,1.016,1.016,0,0,0,.215.316,1.016,1.016,0,0,0,.316.215.969.969,0,0,0,.391.078.969.969,0,0,0,.391-.078,1.016,1.016,0,0,0,.316-.215,1.016,1.016,0,0,0,.215-.316A.969.969,0,0,0,12-13.937a.969.969,0,0,0-.078-.391,1.016,1.016,0,0,0-.215-.316,1.016,1.016,0,0,0-.316-.215A.969.969,0,0,0,11-14.937ZM7.75-8.687A.481.481,0,0,1,7.9-9.039l1.5-1.5a.481.481,0,0,1,.352-.148.481.481,0,0,1,.352.148l1.1,1.1h2.3a.481.481,0,0,0,.352-.148A.481.481,0,0,0,14-9.937a.481.481,0,0,0-.148-.352.481.481,0,0,0-.352-.148H12a.481.481,0,0,1-.352-.148L9.5-12.734,6.352-9.586a2.434,2.434,0,0,0-.246.285A.6.6,0,0,0,6-8.937a.606.606,0,0,0,.094.344,1.8,1.8,0,0,0,.227.273L7.352-7.289a.481.481,0,0,1,.148.352v2.5a.481.481,0,0,0,.148.352A.481.481,0,0,0,8-3.937a.481.481,0,0,0,.352-.148A.481.481,0,0,0,8.5-4.437v-3.3l-.6-.6A.481.481,0,0,1,7.75-8.687Z" transform="translate(192 98)"/>  </g></svg>