<svg xmlns="http://www.w3.org/2000/svg" width="100%" height="100%" viewBox="0 0 17 17">
  <g id="birthdayWhite" transform="translate(0 17)">
      <path id="Fill1" fill="#d47300" d="M5.863,1.939,8,2.864l2.136-.925L12,2.864l2.435-1.175V7.115H1.627V2.232l2.155.632Z" transform="translate(0 -7.5)"/>
      <path id="Fill2" fill="#fff" d="M194.238,85.294l1.762-.55h8.514l1.423.69.476,1.763-2.413.7-1.88-.935-2.12.935-2.139-.935-2.1.935-2.187-1.368Z" transform="translate(-192 -92.5)"/>
      <path id="Contour" fill="#fff" d="M16-1.01V.057H0V-1.01H1.067v-4.8a2.582,2.582,0,0,1,.208-1.033,2.689,2.689,0,0,1,.571-.846,2.734,2.734,0,0,1,.85-.575,2.568,2.568,0,0,1,1.038-.212H7.467V-11.41a.166.166,0,0,1,.063-.129.437.437,0,0,1,.15-.083.987.987,0,0,1,.179-.042A1.126,1.126,0,0,1,8-11.677a1.126,1.126,0,0,1,.142.012.987.987,0,0,1,.179.042.437.437,0,0,1,.15.083.166.166,0,0,1,.063.129v2.933h3.733a2.539,2.539,0,0,1,1.033.212,2.748,2.748,0,0,1,.846.575,2.748,2.748,0,0,1,.575.846,2.539,2.539,0,0,1,.213,1.033v4.8ZM3.733-7.41A1.577,1.577,0,0,0,3.15-7.3a1.592,1.592,0,0,0-.487.3,1.614,1.614,0,0,0-.35.454,1.577,1.577,0,0,0-.171.563,2.124,2.124,0,0,0,.721.525,2.12,2.12,0,0,0,.871.183A1.96,1.96,0,0,0,4.688-5.5a2.717,2.717,0,0,0,.754-.629.875.875,0,0,1,.188-.158.449.449,0,0,1,.237-.058.449.449,0,0,1,.238.058.875.875,0,0,1,.188.158,2.717,2.717,0,0,0,.754.629A1.96,1.96,0,0,0,8-5.277,1.96,1.96,0,0,0,8.954-5.5a2.717,2.717,0,0,0,.754-.629A.875.875,0,0,1,9.9-6.285a.449.449,0,0,1,.238-.058.449.449,0,0,1,.238.058.875.875,0,0,1,.188.158,2.717,2.717,0,0,0,.754.629,1.96,1.96,0,0,0,.954.221,2.12,2.12,0,0,0,.871-.183,2.124,2.124,0,0,0,.721-.525,1.577,1.577,0,0,0-.171-.562A1.614,1.614,0,0,0,13.338-7a1.592,1.592,0,0,0-.488-.3,1.577,1.577,0,0,0-.583-.108Zm-1.6,6.4H13.867V-4.635a4.866,4.866,0,0,1-.775.313,2.862,2.862,0,0,1-.825.113,3.21,3.21,0,0,1-1.142-.2,3.163,3.163,0,0,1-.992-.6,3.163,3.163,0,0,1-.992.6A3.21,3.21,0,0,1,8-4.21a3.21,3.21,0,0,1-1.142-.2,3.163,3.163,0,0,1-.992-.6,3.163,3.163,0,0,1-.992.6,3.21,3.21,0,0,1-1.142.2,2.862,2.862,0,0,1-.825-.113,4.866,4.866,0,0,1-.775-.312ZM8-12.743a.513.513,0,0,1-.375-.158.513.513,0,0,1-.158-.375.705.705,0,0,1,.067-.258q.067-.158.154-.333t.175-.333L8-14.452l.138.25q.088.158.175.333t.154.333a.705.705,0,0,1,.067.258.513.513,0,0,1-.158.375A.513.513,0,0,1,8-12.743Z" transform="translate(0 0)"/>
  </g>
</svg>