<svg xmlns="http://www.w3.org/2000/svg" viewBox="1754 1988 16 16">
  <g id="boatWhite" transform="translate(1562 1907)">
    <path id="Fill1" fill="#0078d7" d="M200,88.694l-7.077,2.248v.625L195,95.442h1l1.468-.942h.736l1.454,1.128h.9l1.66-1.128.615.144,1.172.8.819.186,2.225-4.062v-.625Z"/>
    <path id="Fill2" fill="#ccc" d="M204.988,86.634H194.95v3.543l5.05-1.7,4.988,1.7Z"/>
    <path id="Fill3" fill="#e81123" d="M200.964,82.654H198.9v1.955h-1.936L196,86.642h8l-.977-2.033h-2.059Z"/>
    <path id="Contour" fill="#fff" d="M13.757-2.923H14.94v1H13.259a2.126,2.126,0,0,1-.58.743,1.171,1.171,0,0,1-.728.253,2,2,0,0,1-.805-.167,2.017,2.017,0,0,1-.681-.486,1.154,1.154,0,0,0-.346-.253.949.949,0,0,0-.409-.089,1,1,0,0,0-.755.342,2.016,2.016,0,0,1-.681.486,2,2,0,0,1-.805.167A2,2,0,0,1,6.665-1.1a2.017,2.017,0,0,1-.681-.486,1.138,1.138,0,0,0-.35-.253.958.958,0,0,0-.4-.089,1,1,0,0,0-.755.342,2.017,2.017,0,0,1-.681.486,2,2,0,0,1-.805.167,1.171,1.171,0,0,1-.728-.253,2.126,2.126,0,0,1-.58-.743H0v-1H1.183L0-5.3V-6.518l1.992-.661v-3.712H3.175l1-1.992H5.976v-1.992H8.964v1.992h1.805l1,1.992h1.183v3.712l1.992.661V-5.3Zm-6.785-9.96h1v-1h-1ZM4.3-10.891h6.35l-.5-1H4.793ZM2.988-7.514,7.47-9.008l4.482,1.494V-9.895H2.988ZM6.715-2.269a.973.973,0,0,0,.257.21V-7.794L1-5.8v.272L2.568-2.394A1.261,1.261,0,0,0,2.8-2.04a.322.322,0,0,0,.187.113.958.958,0,0,0,.4-.089,1.138,1.138,0,0,0,.35-.253,2.017,2.017,0,0,1,.681-.486,2,2,0,0,1,.805-.167,2,2,0,0,1,.805.167A2.017,2.017,0,0,1,6.715-2.269Zm7.229-3.26V-5.8L7.968-7.794v5.735a.973.973,0,0,0,.257-.21,2.017,2.017,0,0,1,.681-.486,2,2,0,0,1,.805-.167,2,2,0,0,1,.805.167,2.016,2.016,0,0,1,.681.486,1,1,0,0,0,.755.342.322.322,0,0,0,.187-.113,1.261,1.261,0,0,0,.233-.354Z" transform="translate(192.53 97)"/>
  </g>
</svg>
