<svg xmlns="http://www.w3.org/2000/svg" viewBox="1754 908 16 16">
  <g id="booksWhite" transform="translate(1562 828)">
    <rect id="Fill1" fill="#0078d7" width="14" height="12" transform="translate(193 82.5)"/>
    <path id="Fill2" fill="#e6e6e6" d="M195.055,81.614V92.552h3.035l1.91.788,2.214-.788h2.828V81.614h-3.292l-1.751.86-1.91-.86Z"/>
    <path id="Contour" fill="#fff" d="M14.94-14.942V-1.993H0V-14.942H1.992v-1H4.98a4.167,4.167,0,0,1,1.319.21,3.855,3.855,0,0,1,1.171.63,3.855,3.855,0,0,1,1.171-.63,4.167,4.167,0,0,1,1.319-.21h2.988v1Zm-4.98,0a3.132,3.132,0,0,0-1.058.183,3.041,3.041,0,0,0-.934.533v9.758a3.969,3.969,0,0,1,.965-.385A4.159,4.159,0,0,1,9.96-4.982h1.992v-9.96ZM2.988-4.982H4.98a4.159,4.159,0,0,1,1.027.128,3.969,3.969,0,0,1,.965.385v-9.758a3.041,3.041,0,0,0-.934-.533,3.132,3.132,0,0,0-1.058-.183H2.988ZM1-2.99H7.268a4.385,4.385,0,0,0-.506-.424,3.358,3.358,0,0,0-.533-.311,2.755,2.755,0,0,0-.584-.195,3.161,3.161,0,0,0-.665-.066H1.992v-9.96H1ZM13.944-13.946h-1v9.96H9.96a3.161,3.161,0,0,0-.665.066,2.755,2.755,0,0,0-.584.195,3.358,3.358,0,0,0-.533.311,4.385,4.385,0,0,0-.506.424h6.272Z" transform="translate(192.54 97)"/>
    <path id="Fill3" fill="#767676" d="M0,.26.5.631,1,.26v9.76l-.5.327L0,10.02Z" transform="translate(199.5 82.5)"/>
  </g>
</svg>
