<svg viewBox="-369.00369003690037 0 738.0073800738007 100" xmlns="http://www.w3.org/2000/svg" xmlns:xlink="http://www.w3.org/1999/xlink" version="1.1" class="jsx-2263963463 artboard-inner" style="width: 340px; height: 46.07px; max-height: 100%;"><g transform="translate(-374.0467404674047 88.5608856088561) scale(1.7083504168375017)" fill="#232323"><g id="line1"><path d="M5.220 4.788C6.684 5.772 8.904 6.264 11.880 6.264C16.104 6.264 20.772 5.436 25.884 3.780C30.996 2.124 35.364-0.312 38.988-3.528C42.612-6.744 44.424-10.536 44.424-14.904C44.424-17.496 43.200-19.896 40.752-22.104C38.304-24.312 34.368-25.776 28.944-26.496C33.168-27.504 36.732-29.100 39.636-31.284C42.540-33.468 43.992-36.408 43.992-40.104C43.992-44.664 42.168-47.760 38.520-49.392C34.872-51.024 30.672-51.840 25.920-51.840C22.368-51.840 19.284-51.504 16.668-50.832C14.052-50.160 11.088-49.152 7.776-47.808C7.776-47.328 8.136-46.740 8.856-46.044C9.576-45.348 10.176-45.000 10.656-45.000C10.848-45.000 11.160-45.108 11.592-45.324C12.024-45.540 12.360-45.696 12.600-45.792C15.144-47.184 17.616-48.144 20.016-48.672C16.224-41.328 11.664-29.352 6.336-12.744L5.400-9.864L5.112-9.000C4.632-7.656 4.392-6.552 4.392-5.688C4.392-4.584 4.920-3.648 5.976-2.880C7.032-2.112 8.280-1.728 9.720-1.728C10.248-3.552 11.208-7.080 12.600-12.312C13.032-13.848 13.524-15.648 14.076-17.712C14.628-19.776 15.264-22.032 15.984-24.480L21.312-24.552C26.736-24.552 31.200-23.964 34.704-22.788C38.208-21.612 39.960-19.344 39.960-15.984C39.960-13.248 38.688-10.656 36.144-8.208C33.600-5.760 30.108-3.780 25.668-2.268C21.228-0.756 16.272 0 10.800 0C8.448 0 6.756-0.108 5.724-0.324C4.692-0.540 4.032-0.648 3.744-0.648C3.216-0.648 2.952-0.408 2.952 0.072C3.000 2.232 3.756 3.804 5.220 4.788ZM32.292-30.780C28.140-28.644 22.944-27.456 16.704-27.216C19.536-36.768 22.296-44.136 24.984-49.320C34.008-49.320 38.520-46.440 38.520-40.680C38.520-36.216 36.444-32.916 32.292-30.780Z"></path><path d="M55.800 0.468C56.904 1.404 58.344 1.872 60.120 1.872C62.184 1.872 64.284 1.248 66.420 0C68.556-1.248 70.488-2.856 72.216-4.824C73.944-6.792 75.288-8.856 76.248-11.016L74.520-12.312C73.848-10.872 72.804-9.324 71.388-7.668C69.972-6.012 68.412-4.608 66.708-3.456C65.004-2.304 63.432-1.728 61.992-1.728C60.792-1.728 60.192-2.280 60.192-3.384C60.192-4.296 60.720-5.808 61.776-7.920C62.496-9.408 63.036-10.680 63.396-11.736C63.756-12.792 63.936-13.848 63.936-14.904C63.936-16.632 63.468-18.012 62.532-19.044C61.596-20.076 60.288-21.144 58.608-22.248C57.696-22.824 57.072-23.268 56.736-23.580C56.400-23.892 56.208-24.216 56.160-24.552L56.628-25.956C56.844-26.604 56.952-27.024 56.952-27.216C56.952-27.600 56.796-28.080 56.484-28.656C56.172-29.232 55.776-29.520 55.296-29.520C54.576-29.520 53.832-28.968 53.064-27.864C52.296-26.760 51.912-25.584 51.912-24.336C51.912-23.520 52.152-22.872 52.632-22.392C50.952-17.640 49.008-13.296 46.800-9.360L47.880-7.272C48.888-8.952 50.028-11.016 51.300-13.464C52.572-15.912 53.688-18.336 54.648-20.736C57.048-19.488 58.248-17.952 58.248-16.128C58.248-15.408 58.080-14.580 57.744-13.644C57.408-12.708 56.928-11.568 56.304-10.224C55.584-8.688 55.044-7.380 54.684-6.300C54.324-5.220 54.144-4.224 54.144-3.312C54.144-1.728 54.696-0.468 55.800 0.468Z"></path><path d="M72.756 1.728C73.884 2.832 75.288 3.384 76.968 3.384C78.696 3.384 80.328 2.784 81.864 1.584C83.400 0.384 85.248-1.512 87.408-4.104C87.408-2.472 87.924-1.020 88.956 0.252C89.988 1.524 91.464 2.160 93.384 2.160C96.072 2.160 98.736 0.948 101.376-1.476C104.016-3.900 106.224-7.104 108.000-11.088L106.632-12.456C104.664-8.712 102.636-5.904 100.548-4.032C98.460-2.160 96.744-1.224 95.400-1.224C94.680-1.224 94.140-1.476 93.780-1.980C93.420-2.484 93.240-3.096 93.240-3.816C93.240-4.632 93.456-5.508 93.888-6.444C94.320-7.380 94.920-8.472 95.688-9.720C96.120-10.440 96.504-11.136 96.840-11.808C97.176-12.480 97.344-12.984 97.344-13.320C97.344-14.232 96.480-14.952 94.752-15.480C97.488-15.576 98.856-16.728 98.856-18.936C98.856-20.616 98.148-21.996 96.732-23.076C95.316-24.156 93.552-24.696 91.440-24.696C88.272-24.696 85.104-23.496 81.936-21.096C78.768-18.696 76.164-15.768 74.124-12.312C72.084-8.856 71.064-5.736 71.064-2.952C71.064-0.936 71.628 0.624 72.756 1.728ZM84.348-3.924C82.116-1.500 80.160-0.288 78.480-0.288C77.904-0.288 77.484-0.468 77.220-0.828C76.956-1.188 76.824-1.776 76.824-2.592C76.824-4.800 77.604-7.464 79.164-10.584C80.724-13.704 82.656-16.392 84.960-18.648C87.264-20.904 89.472-22.032 91.584-22.032C93.600-22.032 94.608-20.784 94.608-18.288C94.608-17.280 94.488-16.392 94.248-15.624L93.960-15.696C93.720-15.696 93.528-15.576 93.384-15.336L91.944-13.392C89.112-9.504 86.580-6.348 84.348-3.924Z"></path><path d="M124.920 0.072C125.928 0.984 127.344 1.440 129.168 1.440C131.856 1.440 134.244 0.288 136.332-2.016C138.420-4.320 140.328-7.464 142.056-11.448L140.832-12.456C139.344-9.480 137.676-6.900 135.828-4.716C133.980-2.532 132.264-1.440 130.680-1.440C130.200-1.440 129.792-1.608 129.456-1.944C129.120-2.280 128.952-2.808 128.952-3.528C128.952-4.536 129.360-6.048 130.176-8.064C130.704-9.264 131.100-10.344 131.364-11.304C131.628-12.264 131.760-13.272 131.760-14.328C131.760-16.152 131.232-17.724 130.176-19.044C129.120-20.364 127.632-21.024 125.712-21.024C123.456-21.024 121.164-20.112 118.836-18.288C116.508-16.464 114.264-14.112 112.104-11.232C112.920-14.208 113.328-16.344 113.328-17.640C113.328-18.312 113.112-18.840 112.680-19.224C112.248-19.608 111.624-19.800 110.808-19.800C110.136-19.800 109.440-19.620 108.720-19.260C108.000-18.900 107.448-18.504 107.064-18.072C107.064-14.760 105.648-9.672 102.816-2.808L102.168-1.008C103.224 0.384 104.784 1.080 106.848 1.080C109.824-3.816 112.608-7.860 115.200-11.052C117.792-14.244 120.360-15.840 122.904-15.840C123.624-15.840 124.224-15.612 124.704-15.156C125.184-14.700 125.424-13.992 125.424-13.032C125.424-11.976 125.088-10.344 124.416-8.136C124.176-7.320 123.948-6.504 123.732-5.688C123.516-4.872 123.408-4.152 123.408-3.528C123.408-2.040 123.912-0.840 124.920 0.072Z"></path><path d="M139.680 0.504C140.928 1.608 142.344 2.160 143.928 2.160C145.992 2.160 148.272 1.140 150.768-0.900C153.264-2.940 155.688-5.664 158.040-9.072C157.656-7.056 157.464-5.496 157.464-4.392C157.464-2.520 157.872-1.008 158.688 0.144C159.504 1.296 160.848 1.872 162.720 1.872C165.456 1.872 168.216 0.624 171-1.872C173.784-4.368 175.968-7.584 177.552-11.520L176.184-12.672C174.600-9.408 172.752-6.816 170.640-4.896C168.528-2.976 166.656-2.016 165.024-2.016C164.496-2.016 164.124-2.220 163.908-2.628C163.692-3.036 163.584-3.816 163.584-4.968C163.584-9.288 164.616-14.100 166.680-19.404C168.744-24.708 171.528-30.912 175.032-38.016C176.808-41.616 178.068-44.256 178.812-45.936C179.556-47.616 179.928-48.864 179.928-49.680C179.928-50.304 179.724-50.820 179.316-51.228C178.908-51.636 178.440-51.840 177.912-51.840C175.992-51.840 173.736-49.164 171.144-43.812C168.552-38.460 165.384-30.984 161.640-21.384C160.152-17.544 158.460-14.184 156.564-11.304C154.668-8.424 152.820-6.204 151.020-4.644C149.220-3.084 147.648-2.304 146.304-2.304C145.536-2.304 144.960-2.568 144.576-3.096C144.192-3.624 144-4.368 144-5.328C144-7.248 144.684-9.648 146.052-12.528C147.420-15.408 149.208-17.916 151.416-20.052C153.624-22.188 155.952-23.256 158.400-23.256C159.696-23.256 160.536-22.992 160.920-22.464C161.496-22.800 161.784-23.352 161.784-24.120C161.784-25.656 160.608-26.424 158.256-26.424C155.088-26.424 151.920-25.176 148.752-22.680C145.584-20.184 142.968-17.172 140.904-13.644C138.840-10.116 137.808-7.008 137.808-4.320C137.808-2.208 138.432-0.600 139.680 0.504Z"></path><path d="M205.524 4.680C206.172 5.784 207.480 6.456 209.448 6.696C209.448 5.784 209.400 4.656 209.304 3.312L209.232-0.072C209.232-2.280 209.508-4.476 210.060-6.660C210.612-8.844 211.944-13.200 214.056-19.728C212.616-20.016 210.888-20.544 208.872-21.312C207.048-21.936 205.536-22.404 204.336-22.716C203.136-23.028 201.960-23.184 200.808-23.184C199.272-23.184 198.036-22.788 197.100-21.996C196.164-21.204 195.480-19.968 195.048-18.288C197.352-18.384 198.936-18.432 199.800-18.432C202.584-18.432 205.152-18.192 207.504-17.712C207.216-14.544 206.424-11.376 205.128-8.208C203.832-5.040 202.140-2.412 200.052-0.324C197.964 1.764 195.672 2.808 193.176 2.808C191.400 2.808 189.780 2.256 188.316 1.152C186.852 0.048 185.688-1.548 184.824-3.636C183.960-5.724 183.528-8.184 183.528-11.016C183.528-16.008 184.788-21.468 187.308-27.396C189.828-33.324 192.972-38.340 196.740-42.444C200.508-46.548 204.144-48.600 207.648-48.600C208.944-48.600 209.916-48.288 210.564-47.664C211.212-47.040 211.536-46.224 211.536-45.216C211.536-44.112 211.212-42.840 210.564-41.400C209.916-39.960 209.136-38.616 208.224-37.368C207.312-36.120 206.496-35.256 205.776-34.776C206.208-33.912 206.664-33.300 207.144-32.940C207.624-32.580 208.176-32.400 208.800-32.400C210.000-32.400 211.116-32.940 212.148-34.020C213.180-35.100 214.008-36.480 214.632-38.160C215.256-39.840 215.568-41.544 215.568-43.272C215.568-45.720 214.872-47.748 213.480-49.356C212.088-50.964 209.928-51.768 207-51.768C202.296-51.768 197.580-49.740 192.852-45.684C188.124-41.628 184.236-36.480 181.188-30.240C178.140-24.000 176.616-17.856 176.616-11.808C176.616-8.112 177.276-4.896 178.596-2.160C179.916 0.576 181.704 2.664 183.960 4.104C186.216 5.544 188.712 6.264 191.448 6.264C196.344 6.264 200.736 3.912 204.624-0.792C204.576-0.456 204.552 0.024 204.552 0.648C204.552 2.232 204.876 3.576 205.524 4.680Z"></path><path d="M225.432 0.468C226.536 1.404 227.976 1.872 229.752 1.872C231.816 1.872 233.916 1.248 236.052 0C238.188-1.248 240.120-2.856 241.848-4.824C243.576-6.792 244.920-8.856 245.880-11.016L244.152-12.312C243.480-10.872 242.436-9.324 241.020-7.668C239.604-6.012 238.044-4.608 236.340-3.456C234.636-2.304 233.064-1.728 231.624-1.728C230.424-1.728 229.824-2.280 229.824-3.384C229.824-4.296 230.352-5.808 231.408-7.920C232.128-9.408 232.668-10.680 233.028-11.736C233.388-12.792 233.568-13.848 233.568-14.904C233.568-16.632 233.100-18.012 232.164-19.044C231.228-20.076 229.920-21.144 228.240-22.248C227.328-22.824 226.704-23.268 226.368-23.580C226.032-23.892 225.840-24.216 225.792-24.552L226.260-25.956C226.476-26.604 226.584-27.024 226.584-27.216C226.584-27.600 226.428-28.080 226.116-28.656C225.804-29.232 225.408-29.520 224.928-29.520C224.208-29.520 223.464-28.968 222.696-27.864C221.928-26.760 221.544-25.584 221.544-24.336C221.544-23.520 221.784-22.872 222.264-22.392C220.584-17.640 218.640-13.296 216.432-9.360L217.512-7.272C218.520-8.952 219.660-11.016 220.932-13.464C222.204-15.912 223.320-18.336 224.280-20.736C226.680-19.488 227.880-17.952 227.880-16.128C227.880-15.408 227.712-14.580 227.376-13.644C227.040-12.708 226.560-11.568 225.936-10.224C225.216-8.688 224.676-7.380 224.316-6.300C223.956-5.220 223.776-4.224 223.776-3.312C223.776-1.728 224.328-0.468 225.432 0.468Z"></path><path d="M242.388 1.728C243.516 2.832 244.920 3.384 246.600 3.384C248.328 3.384 249.960 2.784 251.496 1.584C253.032 0.384 254.880-1.512 257.040-4.104C257.040-2.472 257.556-1.020 258.588 0.252C259.620 1.524 261.096 2.160 263.016 2.160C265.704 2.160 268.368 0.948 271.008-1.476C273.648-3.900 275.856-7.104 277.632-11.088L276.264-12.456C274.296-8.712 272.268-5.904 270.180-4.032C268.092-2.160 266.376-1.224 265.032-1.224C264.312-1.224 263.772-1.476 263.412-1.980C263.052-2.484 262.872-3.096 262.872-3.816C262.872-4.632 263.088-5.508 263.520-6.444C263.952-7.380 264.552-8.472 265.320-9.720C265.752-10.440 266.136-11.136 266.472-11.808C266.808-12.480 266.976-12.984 266.976-13.320C266.976-14.232 266.112-14.952 264.384-15.480C267.120-15.576 268.488-16.728 268.488-18.936C268.488-20.616 267.780-21.996 266.364-23.076C264.948-24.156 263.184-24.696 261.072-24.696C257.904-24.696 254.736-23.496 251.568-21.096C248.400-18.696 245.796-15.768 243.756-12.312C241.716-8.856 240.696-5.736 240.696-2.952C240.696-0.936 241.260 0.624 242.388 1.728ZM253.980-3.924C251.748-1.500 249.792-0.288 248.112-0.288C247.536-0.288 247.116-0.468 246.852-0.828C246.588-1.188 246.456-1.776 246.456-2.592C246.456-4.800 247.236-7.464 248.796-10.584C250.356-13.704 252.288-16.392 254.592-18.648C256.896-20.904 259.104-22.032 261.216-22.032C263.232-22.032 264.240-20.784 264.240-18.288C264.240-17.280 264.120-16.392 263.880-15.624L263.592-15.696C263.352-15.696 263.160-15.576 263.016-15.336L261.576-13.392C258.744-9.504 256.212-6.348 253.980-3.924Z"></path><path d="M275.256 0.504C276.504 1.608 277.920 2.160 279.504 2.160C281.568 2.160 283.848 1.140 286.344-0.900C288.840-2.940 291.264-5.664 293.616-9.072C293.232-7.056 293.040-5.496 293.040-4.392C293.040-2.520 293.448-1.008 294.264 0.144C295.080 1.296 296.424 1.872 298.296 1.872C301.032 1.872 303.792 0.624 306.576-1.872C309.360-4.368 311.544-7.584 313.128-11.520L311.760-12.672C310.176-9.408 308.328-6.816 306.216-4.896C304.104-2.976 302.232-2.016 300.600-2.016C300.072-2.016 299.700-2.220 299.484-2.628C299.268-3.036 299.160-3.816 299.160-4.968C299.160-9.288 300.192-14.100 302.256-19.404C304.320-24.708 307.104-30.912 310.608-38.016C312.384-41.616 313.644-44.256 314.388-45.936C315.132-47.616 315.504-48.864 315.504-49.680C315.504-50.304 315.300-50.820 314.892-51.228C314.484-51.636 314.016-51.840 313.488-51.840C311.568-51.840 309.312-49.164 306.720-43.812C304.128-38.460 300.960-30.984 297.216-21.384C295.728-17.544 294.036-14.184 292.140-11.304C290.244-8.424 288.396-6.204 286.596-4.644C284.796-3.084 283.224-2.304 281.880-2.304C281.112-2.304 280.536-2.568 280.152-3.096C279.768-3.624 279.576-4.368 279.576-5.328C279.576-7.248 280.260-9.648 281.628-12.528C282.996-15.408 284.784-17.916 286.992-20.052C289.200-22.188 291.528-23.256 293.976-23.256C295.272-23.256 296.112-22.992 296.496-22.464C297.072-22.800 297.360-23.352 297.360-24.120C297.360-25.656 296.184-26.424 293.832-26.424C290.664-26.424 287.496-25.176 284.328-22.680C281.160-20.184 278.544-17.172 276.480-13.644C274.416-10.116 273.384-7.008 273.384-4.320C273.384-2.208 274.008-0.600 275.256 0.504Z"></path><path d="M321.588-31.032C322.284-30.552 323.136-30.312 324.144-30.312C325.440-30.312 326.640-30.780 327.744-31.716C328.848-32.652 329.400-33.624 329.400-34.632C329.400-36.408 328.368-37.296 326.304-37.296C324.912-37.296 323.604-36.876 322.380-36.036C321.156-35.196 320.544-34.224 320.544-33.120C320.544-32.208 320.892-31.512 321.588-31.032ZM310.968 0.360C312.072 1.560 313.632 2.160 315.648 2.160C318.624 2.160 321.408 0.984 324.000-1.368C326.592-3.720 328.728-7.008 330.408-11.232L329.328-12.384C325.584-5.040 321.816-1.368 318.024-1.368C316.920-1.368 316.104-1.632 315.576-2.160C315.048-2.688 314.784-3.696 314.784-5.184C314.784-6.912 315.228-8.748 316.116-10.692C317.004-12.636 318.216-14.880 319.752-17.424C320.616-18.816 321.240-19.884 321.624-20.628C322.008-21.372 322.200-21.960 322.200-22.392C322.200-23.064 321.996-23.580 321.588-23.940C321.180-24.300 320.664-24.480 320.040-24.480C318.360-24.480 316.692-23.232 315.036-20.736C313.380-18.240 312.012-15.348 310.932-12.060C309.852-8.772 309.312-6.168 309.312-4.248C309.312-2.376 309.864-0.840 310.968 0.360Z"></path><path d="M328.752 0.720C330.432 2.352 332.784 3.168 335.808 3.168C339.648 3.168 343.356 1.848 346.932-0.792C350.508-3.432 353.256-6.912 355.176-11.232L353.736-12.384C351.864-8.832 349.404-5.868 346.356-3.492C343.308-1.116 340.320 0.072 337.392 0.072C335.088 0.072 333.588-0.552 332.892-1.800C332.196-3.048 331.848-4.296 331.848-5.544C331.848-6.168 331.896-6.720 331.992-7.200C334.920-7.536 337.788-8.352 340.596-9.648C343.404-10.944 345.696-12.612 347.472-14.652C349.248-16.692 350.136-18.864 350.136-21.168C350.136-22.896 349.632-24.132 348.624-24.876C347.616-25.620 346.368-25.992 344.880-25.992C342.048-25.992 339.168-24.900 336.240-22.716C333.312-20.532 330.912-17.820 329.040-14.580C327.168-11.340 326.232-8.328 326.232-5.544C326.232-3.000 327.072-0.912 328.752 0.720ZM338.580-11.952C336.444-10.752 334.512-10.056 332.784-9.864C333.456-11.880 334.488-13.896 335.880-15.912C337.272-17.928 338.796-19.596 340.452-20.916C342.108-22.236 343.632-22.896 345.024-22.896C345.456-22.896 345.768-22.800 345.960-22.608C346.152-22.416 346.248-22.056 346.248-21.528C346.248-19.848 345.504-18.132 344.016-16.380C342.528-14.628 340.716-13.152 338.580-11.952Z"></path><path d="M372.024 0.072C373.032 0.984 374.448 1.440 376.272 1.440C378.960 1.440 381.348 0.288 383.436-2.016C385.524-4.320 387.432-7.464 389.160-11.448L387.936-12.456C386.448-9.480 384.780-6.900 382.932-4.716C381.084-2.532 379.368-1.440 377.784-1.440C377.304-1.440 376.896-1.608 376.560-1.944C376.224-2.280 376.056-2.808 376.056-3.528C376.056-4.536 376.464-6.048 377.280-8.064C377.808-9.264 378.204-10.344 378.468-11.304C378.732-12.264 378.864-13.272 378.864-14.328C378.864-16.152 378.336-17.724 377.280-19.044C376.224-20.364 374.736-21.024 372.816-21.024C370.560-21.024 368.268-20.112 365.940-18.288C363.612-16.464 361.368-14.112 359.208-11.232C360.024-14.208 360.432-16.344 360.432-17.640C360.432-18.312 360.216-18.840 359.784-19.224C359.352-19.608 358.728-19.800 357.912-19.800C357.240-19.800 356.544-19.620 355.824-19.260C355.104-18.900 354.552-18.504 354.168-18.072C354.168-14.760 352.752-9.672 349.920-2.808L349.272-1.008C350.328 0.384 351.888 1.080 353.952 1.080C356.928-3.816 359.712-7.860 362.304-11.052C364.896-14.244 367.464-15.840 370.008-15.840C370.728-15.840 371.328-15.612 371.808-15.156C372.288-14.700 372.528-13.992 372.528-13.032C372.528-11.976 372.192-10.344 371.520-8.136C371.280-7.320 371.052-6.504 370.836-5.688C370.620-4.872 370.512-4.152 370.512-3.528C370.512-2.040 371.016-0.840 372.024 0.072Z"></path><path d="M387.432 1.404C388.680 2.676 390.408 3.312 392.616 3.312C395.976 3.312 399.216 1.908 402.336-0.900C405.456-3.708 408.000-7.344 409.968-11.808L408.960-12.528C407.088-8.784 404.892-5.820 402.372-3.636C399.852-1.452 397.392-0.360 394.992-0.360C393.648-0.360 392.664-0.768 392.040-1.584C391.416-2.400 391.104-3.792 391.104-5.760C391.104-9.504 392.352-14.328 394.848-20.232C398.832-20.232 403.656-20.520 409.320-21.096L409.320-23.472C406.056-23.136 401.664-22.968 396.144-22.968C397.344-25.368 399.000-28.344 401.112-31.896C402.648-34.536 403.752-36.504 404.424-37.800C405.096-39.096 405.432-40.128 405.432-40.896C405.432-41.520 405.228-42.024 404.820-42.408C404.412-42.792 403.944-42.984 403.416-42.984C401.880-42.984 399.876-41.040 397.404-37.152C394.932-33.264 392.616-28.608 390.456-23.184C389.304-23.280 388.152-23.400 387-23.544L387-21.312C387.432-21.120 388.272-20.904 389.520-20.664C388.320-17.400 387.360-14.316 386.640-11.412C385.920-8.508 385.560-6.120 385.560-4.248C385.560-1.752 386.184 0.132 387.432 1.404Z"></path><path d="M407.772 0.756C409.380 2.700 411.864 3.672 415.224 3.672C417.480 3.672 419.472 3.180 421.200 2.196C422.928 1.212 424.176-0.240 424.944-2.160C427.248-2.496 429.252-3.504 430.956-5.184C432.660-6.864 433.992-9.072 434.952-11.808L434.088-12.456C431.688-7.848 428.856-5.136 425.592-4.320C425.784-5.472 425.880-6.456 425.880-7.272C425.880-8.856 425.676-10.416 425.268-11.952C424.860-13.488 424.272-15.312 423.504-17.424C422.880-19.152 422.424-20.520 422.136-21.528C421.848-22.536 421.704-23.496 421.704-24.408C421.704-24.936 421.764-25.440 421.884-25.920C422.004-26.400 422.064-26.760 422.064-27.000C421.968-27.960 421.392-28.440 420.336-28.440C419.376-28.440 418.596-28.008 417.996-27.144C417.396-26.280 417.096-24.960 417.096-23.184L417.096-22.464C415.512-19.056 413.184-15.768 410.112-12.600C409.968-12.456 409.476-12.192 408.636-11.808C407.796-11.424 407.040-10.860 406.368-10.116C405.696-9.372 405.360-8.064 405.360-6.192C405.360-3.504 406.164-1.188 407.772 0.756ZM420.120-6.696C420.120-5.640 420.048-4.896 419.904-4.464C418.032-4.896 416.352-5.676 414.864-6.804C413.376-7.932 412.224-9.192 411.408-10.584C413.232-12.504 415.320-15.504 417.672-19.584L418.320-16.992C418.896-14.640 419.328-12.720 419.616-11.232C419.904-9.744 420.072-8.232 420.120-6.696ZM417.420-0.216C416.580 0.264 415.680 0.504 414.720 0.504C413.040 0.504 411.720-0.156 410.760-1.476C409.800-2.796 409.320-4.320 409.320-6.048C409.320-7.200 409.656-7.848 410.328-7.992C411.288-6.744 412.560-5.580 414.144-4.500C415.728-3.420 417.456-2.688 419.328-2.304C418.896-1.392 418.260-0.696 417.420-0.216Z"></path></g></g></svg>