<svg xmlns="http://www.w3.org/2000/svg" viewBox="1634 1448 16 16">
  <g id="breakfastBlack" transform="translate(1442 1367)">
    <path id="Fill1" fill="#69eaff" d="M198.45,85.74V93l.605,1.181L200,94.7h4l.928-.519L205.5,93V85.74Z"/>
    <path id="Fill2" fill="#fff" d="M198.45,91.64h-6.021l.616,1.36,1.244.9h4.332Z"/>
    <path id="Fill3" fill="#ffb900" d="M194.541,91.64V90.333L195.874,89l1.209-.405,1.376.405v2.64Z"/>
    <path id="Contour" d="M11.082-12.295a.484.484,0,0,1-.354-.149.484.484,0,0,1-.149-.354,1.992,1.992,0,0,1,.153-.771,2,2,0,0,1,.437-.653l.621-.629a.977.977,0,0,0,.3-.716.484.484,0,0,1,.149-.354.484.484,0,0,1,.354-.149.484.484,0,0,1,.354.149.484.484,0,0,1,.149.354,1.992,1.992,0,0,1-.153.771,2,2,0,0,1-.437.653l-.621.629a.977.977,0,0,0-.3.716.484.484,0,0,1-.149.354A.484.484,0,0,1,11.082-12.295Zm-3.021,0a.484.484,0,0,1-.354-.149.484.484,0,0,1-.149-.354,1.992,1.992,0,0,1,.153-.771,2,2,0,0,1,.437-.653l.621-.629a.977.977,0,0,0,.3-.716.484.484,0,0,1,.149-.354.484.484,0,0,1,.354-.149.484.484,0,0,1,.354.149.484.484,0,0,1,.149.354,1.992,1.992,0,0,1-.153.771,2,2,0,0,1-.437.653l-.621.629a.977.977,0,0,0-.3.716.484.484,0,0,1-.149.354A.484.484,0,0,1,8.061-12.295Zm6.545,1.384a1.482,1.482,0,0,1,.59.118,1.515,1.515,0,0,1,.48.323A1.515,1.515,0,0,1,16-9.99a1.482,1.482,0,0,1,.118.59v3.021a1.482,1.482,0,0,1-.118.59,1.515,1.515,0,0,1-.323.48,1.515,1.515,0,0,1-.48.323,1.482,1.482,0,0,1-.59.118h-.448q-.016.055-.028.1t-.028.094v.307a2.424,2.424,0,0,1-.2.979,2.581,2.581,0,0,1-.543.8,2.538,2.538,0,0,1-.8.539,2.438,2.438,0,0,1-.975.2H8.565a2.38,2.38,0,0,1-1.133-.275,2.6,2.6,0,0,1-.865-.732H2.633a2.466,2.466,0,0,1-.979-.2,2.526,2.526,0,0,1-.8-.539,2.526,2.526,0,0,1-.539-.8,2.466,2.466,0,0,1-.2-.979v-.5H2.13a2.9,2.9,0,0,1,.24-1.172,3.134,3.134,0,0,1,.649-.964,3,3,0,0,1,.96-.649A2.944,2.944,0,0,1,5.151-8.9a2.423,2.423,0,0,1,.46.043q.224.043.437.106v-3.17H14.1v1.007ZM5.151-7.889a1.96,1.96,0,0,0-.783.157,2.034,2.034,0,0,0-.641.433,2.034,2.034,0,0,0-.433.641,1.96,1.96,0,0,0-.157.783H6.047V-7.669a2.218,2.218,0,0,0-.429-.161A1.832,1.832,0,0,0,5.151-7.889ZM2.633-3.862H6.1a2.146,2.146,0,0,1-.055-.5v-.5H1.21a1.482,1.482,0,0,0,.22.405,1.565,1.565,0,0,0,.326.319,1.505,1.505,0,0,0,.409.208A1.47,1.47,0,0,0,2.633-3.862Zm3.642.527a.016.016,0,0,0,0,.012.016.016,0,0,1,0,.012.016.016,0,0,0,0-.012A.016.016,0,0,1,6.276-3.335Zm6.82-1.03V-10.91H7.054v6.545a1.482,1.482,0,0,0,.118.59,1.515,1.515,0,0,0,.323.48,1.515,1.515,0,0,0,.48.323,1.482,1.482,0,0,0,.59.118h3.021a1.482,1.482,0,0,0,.59-.118,1.515,1.515,0,0,0,.48-.323,1.515,1.515,0,0,0,.323-.48A1.482,1.482,0,0,0,13.1-4.365Zm2.014-2.014V-9.4a.484.484,0,0,0-.149-.354.484.484,0,0,0-.354-.149h-.5v4.028h.5a.484.484,0,0,0,.354-.149A.484.484,0,0,0,15.109-6.379Z" transform="translate(191.884 97.07)"/>
  </g>
</svg>
