<svg xmlns="http://www.w3.org/2000/svg" viewBox="1634 1484 16 16">  <g id="brunchBlack" transform="translate(1442 1403)">    <path id="Fill1" fill="white" d="M192.526,93.536l.631,1.554,1.134.483H204l.971-.674.613-1.364Z"/>    <path id="Fill2" fill="white" d="M198.789,85.555l-.324,2.455.669,2.919.67,1.934-.349,3.724H203.7L203.177,93,204,90.835l.511-2.634-.183-2.645Z"/>    <path id="Fill3" fill="white" d="M196.992,90.543l-1.784.679-.765,1.214v1.123h5.282l-.2-1.636L198.468,90.9Z"/>    <path id="Fill4" fill="white" d="M205.1,82.5l-1.482.368-.891,1.046-.213,1.645h1.935l.111,2.04,1.765-.352.874-1.042L207.6,85l-.4-1.531-1.2-.8Z"/>    <path fill="black" d="M12.984-9.961a10.491,10.491,0,0,1-.117,1.094q-.086.531-.223,1.047t-.312,1.027q-.176.512-.379,1.027a2.3,2.3,0,0,0-.113.4q-.043.223-.066.4H14v.5a2.432,2.432,0,0,1-.145.836,2.5,2.5,0,0,1-.406.723,2.586,2.586,0,0,1-.621.555,2.4,2.4,0,0,1-.781.324l.172,1.063H6.859l.125-1H2.5a2.449,2.449,0,0,1-.973-.2,2.509,2.509,0,0,1-.8-.535,2.509,2.509,0,0,1-.535-.8A2.449,2.449,0,0,1,0-4.461v-.5H2a2.924,2.924,0,0,1,.234-1.164,3.024,3.024,0,0,1,.645-.957,3.036,3.036,0,0,1,.953-.645A2.915,2.915,0,0,1,5-7.961a2.829,2.829,0,0,1,.758.1,2.969,2.969,0,0,1,.7.3A14.156,14.156,0,0,1,6.125-9.09,9.705,9.705,0,0,1,6-10.649a6.707,6.707,0,0,1,.1-1.164,9.184,9.184,0,0,1,.277-1.133H7.492L6.7-16.1l.977-.242.852,3.4H10a2.952,2.952,0,0,1,.234-1.168,3.045,3.045,0,0,1,.641-.961,3.031,3.031,0,0,1,.953-.648A2.9,2.9,0,0,1,13-15.961a2.924,2.924,0,0,1,1.164.234,3.024,3.024,0,0,1,.957.645,3.024,3.024,0,0,1,.645.957A2.924,2.924,0,0,1,16-12.961a2.9,2.9,0,0,1-.238,1.172,3.031,3.031,0,0,1-.648.953,3.057,3.057,0,0,1-.957.641A2.943,2.943,0,0,1,12.984-9.961Zm.016-5a1.933,1.933,0,0,0-.781.16,2.015,2.015,0,0,0-.637.434,2.041,2.041,0,0,0-.426.641,1.974,1.974,0,0,0-.156.781h1.625a8.027,8.027,0,0,1,.242.98,7.641,7.641,0,0,1,.109,1,1.994,1.994,0,0,0,.789-.156,2.055,2.055,0,0,0,.645-.43,1.988,1.988,0,0,0,.434-.637A1.946,1.946,0,0,0,15-12.961a1.946,1.946,0,0,0-.156-.777,2.02,2.02,0,0,0-.43-.637,2.02,2.02,0,0,0-.637-.43A1.946,1.946,0,0,0,13-14.961Zm-8,8a1.946,1.946,0,0,0-.777.156,2.02,2.02,0,0,0-.637.43,2.02,2.02,0,0,0-.43.637A1.946,1.946,0,0,0,3-4.961H7a1.946,1.946,0,0,0-.156-.777,2.02,2.02,0,0,0-.43-.637,2.02,2.02,0,0,0-.637-.43A1.946,1.946,0,0,0,5-6.961Zm2.234,3H1.086a1.443,1.443,0,0,0,.219.41,1.512,1.512,0,0,0,.328.316,1.472,1.472,0,0,0,.41.2,1.509,1.509,0,0,0,.457.07H7.117q.031-.25.074-.5A2.947,2.947,0,0,0,7.234-3.961Zm4.508,0a3.972,3.972,0,0,0,.059.473q.043.23.074.465a1.527,1.527,0,0,0,.637-.34,1.424,1.424,0,0,0,.4-.6ZM12-10.6q0-.344-.027-.68a4.406,4.406,0,0,0-.105-.664H7.133a5.74,5.74,0,0,0-.1.652Q7-10.969,7-10.641a8.663,8.663,0,0,0,.063.992q.063.539.176,1.086T7.508-7.5a7.134,7.134,0,0,0,.352.941,3.963,3.963,0,0,1,.313,1A6.335,6.335,0,0,1,8.258-4.5a9.048,9.048,0,0,1-.09,1.273q-.09.633-.176,1.266h3.047q-.094-.586-.207-1.168a6.181,6.181,0,0,1-.113-1.184q0-.211.016-.449t.055-.484q.039-.246.1-.48a2.68,2.68,0,0,1,.145-.43q.234-.547.414-1.086t.3-1.082a9.666,9.666,0,0,0,.188-1.109A10.646,10.646,0,0,0,12-10.6Z" transform="translate(192 97.964)"/>  </g></svg>