<svg xmlns="http://www.w3.org/2000/svg" viewBox="1634 1628 16 16">
  <g id="busBlack" transform="translate(1442 1547)">
    <path id="Fill1" fill="#ff8c00" d="M205.952,83.557l-.78-.933H195.027l-1.015.624V95.485h11.94Z"/>
    <rect id="Fill2" fill="#99ecff" width="12" height="5" transform="translate(194 85.5)"/>
    <path id="Contour" d="M14.94-11.954v1.992h-1v7.47a5.278,5.278,0,0,1-.027.533,1.533,1.533,0,0,1-.124.482.814.814,0,0,1-.3.346A.98.98,0,0,1,12.948-1q-.195,0-.416.008A4.218,4.218,0,0,1,12.088-1a2.54,2.54,0,0,1-.428-.066,1.068,1.068,0,0,1-.362-.16.776.776,0,0,1-.249-.3,1.059,1.059,0,0,1-.093-.475H3.984a.965.965,0,0,1-.078.389,1.012,1.012,0,0,1-.214.315,1.012,1.012,0,0,1-.315.214A.965.965,0,0,1,2.988-1q-.537,0-.918-.008a1.357,1.357,0,0,1-.619-.136A.756.756,0,0,1,1.1-1.578,2.9,2.9,0,0,1,1-2.492v-7.47H0v-1.992H1v-2.49a1.466,1.466,0,0,1,.117-.584,1.5,1.5,0,0,1,.319-.475,1.5,1.5,0,0,1,.475-.319,1.466,1.466,0,0,1,.584-.117h9.96a1.466,1.466,0,0,1,.584.117,1.5,1.5,0,0,1,.475.319,1.5,1.5,0,0,1,.319.475,1.466,1.466,0,0,1,.117.584v2.49Zm-1.992,4.98H1.992v1.992h1q0-.14,0-.315a1.2,1.2,0,0,1,.035-.327.523.523,0,0,1,.144-.253.45.45,0,0,1,.323-.1.45.45,0,0,1,.323.1.523.523,0,0,1,.144.253,1.2,1.2,0,0,1,.035.327q0,.175,0,.315h6.972q0-.14,0-.315a1.2,1.2,0,0,1,.035-.327.523.523,0,0,1,.144-.253.45.45,0,0,1,.323-.1.45.45,0,0,1,.323.1.523.523,0,0,1,.144.253,1.2,1.2,0,0,1,.035.327q0,.175,0,.315h1Zm-5.976-1v-3.984H1.992V-7.97Zm5.976-3.984H7.968V-7.97h4.98ZM2.49-14.942a.479.479,0,0,0-.35.148.479.479,0,0,0-.148.35v1.494H12.948v-1.494a.479.479,0,0,0-.148-.35.479.479,0,0,0-.35-.148ZM12.948-2.99v-1H1.992v1Z" transform="translate(192.53 97.978)"/>
  </g>
</svg>
