<svg xmlns="http://www.w3.org/2000/svg" viewBox="1754 2168 16 16">
  <g id="callWhite" transform="translate(1562 2087)">
    <path id="Fill1" fill="#e81123" d="M192.58,85l1.086,4L196,92.2l3.219,2.676,3.368,1.141h2.54l1.913-1.141.288-1.122-2.521-2.968-.807.3L202.125,93l-4.185-4L196,86.827l1.94-2.361L196,81.8l-2,.3Z"/>
    <path id="Contour" fill="#fff" d="M12.476-7.583a1.723,1.723,0,0,1,.656.128,1.667,1.667,0,0,1,.555.369L15.4-5.378a1.667,1.667,0,0,1,.369.555,1.723,1.723,0,0,1,.128.656,1.723,1.723,0,0,1-.128.656,1.667,1.667,0,0,1-.369.555l-.109.109q-.419.419-.769.745a4.071,4.071,0,0,1-.73.547,3.232,3.232,0,0,1-.846.338,4.626,4.626,0,0,1-1.11.116,7.025,7.025,0,0,1-2-.3A11.07,11.07,0,0,1,7.8-2.241,14.612,14.612,0,0,1,5.811-3.515a17.226,17.226,0,0,1-1.84-1.611,17.674,17.674,0,0,1-1.6-1.848A14.477,14.477,0,0,1,1.118-8.961,11.147,11.147,0,0,1,.3-10.983,6.96,6.96,0,0,1,0-12.94a4.678,4.678,0,0,1,.113-1.1,3.155,3.155,0,0,1,.334-.838,4.053,4.053,0,0,1,.543-.726q.322-.345.741-.765l.124-.124a1.73,1.73,0,0,1,.551-.373A1.67,1.67,0,0,1,3.067-17a1.678,1.678,0,0,1,.656.132,1.718,1.718,0,0,1,.555.373l1.708,1.708a1.667,1.667,0,0,1,.369.555,1.723,1.723,0,0,1,.128.656,1.515,1.515,0,0,1-.116.609,2.2,2.2,0,0,1-.287.485,2.873,2.873,0,0,1-.377.4q-.206.179-.377.349a2.283,2.283,0,0,0-.287.345.666.666,0,0,0-.116.377.688.688,0,0,0,.21.5L9.41-6.232a.688.688,0,0,0,.5.21.666.666,0,0,0,.377-.116,2.283,2.283,0,0,0,.345-.287q.171-.171.349-.377a2.873,2.873,0,0,1,.4-.377,2.2,2.2,0,0,1,.485-.287A1.515,1.515,0,0,1,12.476-7.583Zm-.644,5.489a3.547,3.547,0,0,0,.936-.1,2.416,2.416,0,0,0,.679-.3,3.508,3.508,0,0,0,.59-.493q.287-.3.66-.668a.688.688,0,0,0,.21-.5.675.675,0,0,0-.113-.33,2.914,2.914,0,0,0-.291-.4q-.179-.21-.4-.431t-.435-.419l-.4-.365q-.182-.167-.283-.268a.7.7,0,0,0-.512-.21.648.648,0,0,0-.373.116,2.4,2.4,0,0,0-.342.287q-.171.171-.353.377a3.06,3.06,0,0,1-.4.377,2.2,2.2,0,0,1-.485.287,1.515,1.515,0,0,1-.609.116,1.723,1.723,0,0,1-.656-.128A1.667,1.667,0,0,1,8.7-5.525L4.425-9.8a1.667,1.667,0,0,1-.369-.555,1.723,1.723,0,0,1-.128-.656,1.515,1.515,0,0,1,.116-.609,2.2,2.2,0,0,1,.287-.485,3.06,3.06,0,0,1,.377-.4q.206-.182.377-.353a2.4,2.4,0,0,0,.287-.342.648.648,0,0,0,.116-.373.7.7,0,0,0-.21-.512q-.1-.1-.268-.283l-.365-.4q-.2-.214-.419-.435T3.8-15.6a2.914,2.914,0,0,0-.4-.291.675.675,0,0,0-.33-.113.688.688,0,0,0-.5.21q-.373.373-.664.66a3.956,3.956,0,0,0-.5.59,2.293,2.293,0,0,0-.311.679,3.511,3.511,0,0,0-.1.928,6.1,6.1,0,0,0,.283,1.793A10.088,10.088,0,0,0,2.053-9.3,14.073,14.073,0,0,0,3.237-7.478a16.222,16.222,0,0,0,1.491,1.7,16.691,16.691,0,0,0,1.7,1.475A14.065,14.065,0,0,0,8.249-3.138a10.016,10.016,0,0,0,1.832.769A6.048,6.048,0,0,0,11.832-2.094Z" transform="translate(192.05 98.05)"/>
  </g>
</svg>
