<svg xmlns="http://www.w3.org/2000/svg" viewBox="1634 1736 16 16">  <g id="campingBlack" transform="translate(1442 1655)">    <path id="Fill1" fill="white" d="M192.878,96.38h10.489l-3.718-7.075L198,91.06l-1.694-1.755Z"/>    <path id="Fill2" fill="white" d="M205.7,93.537l-2.251-.011-1.173,1.129.919,1.96h4Z"/>    <path id="Fill3" fill="white" d="M197.989,86.262l-1.641,3.148,1.641,1.55L199.738,89Z"/>    <path id="Fill4" fill="white" d="M203.5,89.305,201.606,93l.855,1.818,1.038-1.343h2.314Z"/>    <path fill="black" d="M11.511-11.872,16-2.863H0L6.006-14.875,9.5-7.86Zm0,2.244L10.065-6.742,10.432-6l.868-.868h1.587ZM7.022-10.6,6.006-12.631,4.989-10.6,6.006-9.581Zm-5.4,6.733h8.766L7.492-9.651,6.006-8.158,4.512-9.651Zm9.877,0h2.886l-.993-2H11.722l-.813.813Z" transform="translate(192 99.863)"/>  </g></svg>