<svg xmlns="http://www.w3.org/2000/svg" viewBox="1634 548 16 16">  <g id="carBlack" transform="translate(1442 468)">    <path id="Fill1" fill="white" d="M206.576,85.781h-13.4L192.62,88v4.7h14.862V88Z"/>    <path id="Fill2" fill="white" d="M196,81.726h8c1.5,0,1.979,1.643,2.172,2.274s.478,1.857.478,1.857H193.256l1.191-3.243C195.108,81.469,196,81.726,196,81.726Z"/>    <path fill="black" d="M3-7.812a.969.969,0,0,1,.391.078,1.016,1.016,0,0,1,.316.215,1.016,1.016,0,0,1,.215.316A.969.969,0,0,1,4-6.812a.969.969,0,0,1-.078.391,1.016,1.016,0,0,1-.215.316,1.016,1.016,0,0,1-.316.215A.969.969,0,0,1,3-5.812a.969.969,0,0,1-.391-.078,1.016,1.016,0,0,1-.316-.215,1.016,1.016,0,0,1-.215-.316A.969.969,0,0,1,2-6.812.969.969,0,0,1,2.078-7.2a1.016,1.016,0,0,1,.215-.316,1.016,1.016,0,0,1,.316-.215A.969.969,0,0,1,3-7.812Zm10,0a.969.969,0,0,1,.391.078,1.016,1.016,0,0,1,.316.215,1.016,1.016,0,0,1,.215.316A.969.969,0,0,1,14-6.812a.969.969,0,0,1-.078.391,1.016,1.016,0,0,1-.215.316,1.016,1.016,0,0,1-.316.215A.969.969,0,0,1,13-5.812a.969.969,0,0,1-.391-.078,1.016,1.016,0,0,1-.316-.215,1.016,1.016,0,0,1-.215-.316A.969.969,0,0,1,12-6.812a.969.969,0,0,1,.078-.391,1.016,1.016,0,0,1,.215-.316,1.016,1.016,0,0,1,.316-.215A.969.969,0,0,1,13-7.812Zm2.711-2L15.2-9.3q.016.039.078.234t.152.461q.09.266.191.57t.188.559q.086.254.141.422L16-6.891v5.078a.969.969,0,0,1-.078.391,1.016,1.016,0,0,1-.215.316,1.016,1.016,0,0,1-.316.215A.969.969,0,0,1,15-.812H14a.969.969,0,0,1-.391-.078,1.016,1.016,0,0,1-.316-.215,1.016,1.016,0,0,1-.215-.316A.969.969,0,0,1,13-1.812H3a.969.969,0,0,1-.078.391,1.016,1.016,0,0,1-.215.316,1.016,1.016,0,0,1-.316.215A.969.969,0,0,1,2-.812H1A.969.969,0,0,1,.609-.891a1.016,1.016,0,0,1-.316-.215,1.016,1.016,0,0,1-.215-.316A.969.969,0,0,1,0-1.812V-6.891l.055-.168Q.109-7.227.2-7.48t.188-.559q.1-.3.191-.57T.727-9.07Q.789-9.266.8-9.3L.289-9.812H0v-1H.711l.445.453L1.734-12.1a2.384,2.384,0,0,1,.363-.7,2.512,2.512,0,0,1,.551-.539,2.6,2.6,0,0,1,.684-.348,2.419,2.419,0,0,1,.777-.125h7.781a2.419,2.419,0,0,1,.777.125,2.6,2.6,0,0,1,.684.348,2.439,2.439,0,0,1,.547.539,2.6,2.6,0,0,1,.367.7l.578,1.742.445-.453H16v1Zm-11.6-3a1.457,1.457,0,0,0-.879.281,1.484,1.484,0,0,0-.543.742L2.023-9.812H13.977l-.664-1.977a1.484,1.484,0,0,0-.543-.742,1.457,1.457,0,0,0-.879-.281ZM11-3.2l-.812-1.617H5.813L5-3.2v.383h6Zm4,.383V-6.734l-.047-.145q-.047-.145-.121-.363t-.16-.48q-.086-.262-.164-.492t-.137-.395q-.059-.164-.066-.2H1.7q-.016.039-.07.2t-.133.395q-.078.23-.164.492t-.16.48q-.074.219-.121.363L1-6.734v3.922H4V-3.43L5.188-5.812h5.625L12-3.43v.617Z" transform="translate(192 95)"/>  </g></svg>