<svg xmlns="http://www.w3.org/2000/svg" viewBox="0 0 260 360"><defs><style>.cls-2{fill:#005280}.cls-3{fill:#004767}.cls-4{fill:#c1b49a}.cls-5{fill:#f0e0bf}.cls-6{fill:#005f88}.cls-8{fill:#0085b4}.cls-9{fill:#0093bb}.cls-10{fill:#02918a;opacity:.3;mix-blend-mode:multiply}.cls-11{fill:#007592}.cls-12{fill:#b7ffff}.cls-14{fill:#eb9858}.cls-15{fill:#fff}.cls-16{fill:#e63d31}.cls-18{fill:#e53e31}.cls-19{fill:#58595b}.cls-24{fill:#404041}</style></defs><g style="isolation:isolate"><g id="Layer_1" data-name="Layer 1"><path class="cls-2" d="M38.805 62.158h11.572v109.135H38.805z"/><ellipse class="cls-3" cx="44.591" cy="28.213" rx="10.065" ry="9.155"/><path class="cls-3" d="M32.051 46.122H57.13v6.043H32.051z"/><path class="cls-2" d="M41.487 55.384h6.209v9.502h-6.209z"/><path class="cls-3" d="M38.1 51.057h12.983v6.209H38.1z"/><circle class="cls-2" cx="22.263" cy="78.482" r="5.535"/><circle class="cls-2" cx="22.263" cy="69.96" r="2.045"/><circle class="cls-2" cx="22.263" cy="64.929" r="2.045"/><circle class="cls-2" cx="22.263" cy="59.897" r="2.045"/><circle class="cls-2" cx="22.263" cy="54.866" r="2.045"/><circle class="cls-2" cx="19.521" cy="50.744" r="1.422"/><circle class="cls-2" cx="19.521" cy="47.244" r="1.422"/><path class="cls-2" d="M81.636 52.166c-.512-14.949-16.367-26.948-35.864-26.948s-35.352 12-35.865 26.948zM49.766 94.657H56v4.188h-6.234z"/><rect class="cls-2" x="54.188" y="90.918" width="3.906" height="11.168" rx="1.113"/><path class="cls-4" d="M60.376 360h8.6l2.108-62.063H58.269L60.376 360z"/><path class="cls-5" d="M69.33 349.602L68.976 360h-8.6l-.353-10.398h9.307z"/><path class="cls-4" d="M141.177 360h8.6l2.107-62.063h-12.815L141.177 360z"/><path class="cls-5" d="M150.13 349.602L149.777 360h-8.6l-.353-10.398h9.306z"/><path class="cls-4" d="M185.359 360h8.6l2.107-62.063h-12.815L185.359 360z"/><path class="cls-5" d="M194.312 349.602L193.959 360h-8.6l-.353-10.398h9.306z"/><path class="cls-4" d="M100.777 360h8.6l2.107-62.063H98.669L100.777 360z"/><path class="cls-5" d="M109.73 349.602L109.377 360h-8.6l-.354-10.398h9.307z"/><path class="cls-6" d="M194.975 309.437h-41.292l11.093-102.404h55.508v77.095a25.309 25.309 0 01-25.309 25.309z"/><path fill="#006663" d="M41.685 207.033h80.773v48.738H41.685z"/><path class="cls-8" d="M41.685 207.033h-5.07a19.3 19.3 0 00-19.3 19.3 19.3 19.3 0 0019.3 19.3 5.07 5.07 0 015.07 5.068v46.962a11.774 11.774 0 0011.773 11.774h11.265v-83.105a19.3 19.3 0 00-19.3-19.3z"/><path class="cls-9" d="M64.723 286.437h94.425v23H64.723z"/><path class="cls-10" d="M59.595 258.235h106.006V288.9H59.595a1.326 1.326 0 01-1.326-1.326v-28.014a1.326 1.326 0 011.326-1.326z"/><path class="cls-11" d="M133.521 122.915h102.704l-77.077 136.074-71.331 12.115 1.975-18.649 32.666-102.754 11.063-26.786z"/><path class="cls-2" d="M233.831 122.915h5.07c10.658 0 16.902 8.641 13.944 19.3-2.957 10.659-13.995 19.3-24.654 19.3a7.178 7.178 0 00-6.476 5.069l-13.029 46.962c-1.804 6.502-8.538 11.773-15.04 11.773h-11.264l17.702-63.804 5.355-19.3c2.957-10.659 13.995-19.3 24.654-19.3z"/><path class="cls-11" d="M133.52 122.915h5.07c10.659 0 16.902 8.641 13.945 19.3-2.957 10.659-13.995 19.3-24.654 19.3a7.178 7.178 0 00-6.476 5.069L95.548 260.87a13.405 13.405 0 01-13.477 10.234l-10.987-6.183 28.69-103.406 5.354-19.3c2.958-10.659 13.996-19.3 24.654-19.3z"/><path class="cls-11" d="M56.975 255.77H162.98v30.667H56.975a1.326 1.326 0 01-1.326-1.326v-28.014a1.326 1.326 0 011.326-1.326z"/><path class="cls-10" d="M55.649 259.044v-1.947a1.326 1.326 0 011.326-1.326h106.006v3.273z"/><path class="cls-9" d="M56.975 229.008H162.98v26.763H56.975a1.326 1.326 0 01-1.326-1.326v-24.11a1.326 1.326 0 011.326-1.327z"/><path class="cls-12" d="M137.015 245.331a2.942 2.942 0 112.942-2.941 2.945 2.945 0 01-2.942 2.941zm0-5.357a2.415 2.415 0 102.415 2.416 2.418 2.418 0 00-2.415-2.416zM100.898 245.331a2.942 2.942 0 112.942-2.941 2.945 2.945 0 01-2.942 2.941zm0-5.357a2.415 2.415 0 102.415 2.416 2.418 2.418 0 00-2.415-2.416zM64.781 245.331a2.942 2.942 0 112.942-2.941 2.946 2.946 0 01-2.942 2.941zm0-5.357a2.415 2.415 0 102.415 2.416 2.418 2.418 0 00-2.415-2.416zM137.015 275.682a2.942 2.942 0 112.942-2.941 2.945 2.945 0 01-2.942 2.941zm0-5.357a2.415 2.415 0 102.415 2.416 2.418 2.418 0 00-2.415-2.416zM100.898 275.682a2.942 2.942 0 112.942-2.941 2.945 2.945 0 01-2.942 2.941zm0-5.357a2.415 2.415 0 102.415 2.416 2.418 2.418 0 00-2.415-2.416zM64.781 275.682a2.942 2.942 0 112.942-2.941 2.946 2.946 0 01-2.942 2.941zm0-5.357a2.415 2.415 0 102.415 2.416 2.418 2.418 0 00-2.415-2.416z"/><path class="cls-6" d="M168.515 207.033h57.523v22.04h-57.523z"/><path class="cls-8" d="M168.515 207.033h5.069a19.3 19.3 0 0119.3 19.3 19.3 19.3 0 01-19.3 19.3 5.07 5.07 0 00-5.07 5.068v46.962a11.774 11.774 0 01-11.773 11.774h-11.264v-83.105a19.3 19.3 0 0119.3-19.3z"/><path class="cls-6" d="M220.284 207.033h5.069a19.3 19.3 0 0119.3 19.3 19.3 19.3 0 01-19.3 19.3 5.07 5.07 0 00-5.07 5.068v46.962a11.774 11.774 0 01-11.773 11.774h-11.264v-83.104a19.3 19.3 0 0119.3-19.3z"/><path class="cls-12" d="M159.852 233.988a8.669 8.669 0 118.668-8.669 8.679 8.679 0 01-8.668 8.669zm0-16.81a8.142 8.142 0 108.141 8.141 8.15 8.15 0 00-8.141-8.141z"/><path class="cls-12" d="M159.588 233.724h.527v64.212h-.527zM49.54 233.988a8.669 8.669 0 118.67-8.669 8.678 8.678 0 01-8.67 8.669zm0-16.81a8.142 8.142 0 108.142 8.141 8.15 8.15 0 00-8.141-8.141z"/><path class="cls-12" d="M49.277 233.724h.527v64.212h-.527zM71.084 297.673h67.985v.527H71.084z"/><path d="M48.203 199.971h33.04a2.431 2.431 0 012.43 2.431v4.63H45.772v-4.63a2.431 2.431 0 012.43-2.43z" transform="rotate(180 64.723 203.502)" fill="#02514d"/><path class="cls-14" d="M104.581 225.537l7.262-48.42 20.338-.435 2.156 49.385-29.756-.53z"/><path class="cls-14" d="M62.469 187.14l1.995-1.664a10.395 10.395 0 001.169-1.528c18.117 8.426 40.38 5.433 58.912-8.517l3.695 4.91c-12.407 9.34-26.383 14.197-39.966 14.458a56.713 56.713 0 01-27.927-6.639 10.287 10.287 0 002.122-1.02z"/><path class="cls-14" d="M123.91 179.496c17.103 19.15 41.317 26.039 62.276 17.936-.47 2.301-.897 4.611-1.302 6.931a55.971 55.971 0 01-19.934 2.482c-16.501-.94-32.891-9-45.624-23.256z"/><path class="cls-15" d="M135.177 179.791l33.292-12.651 9.034-39.97 2.665-12.732 14.092-23.433-7.027-6.2-22.285 3.386-24.715 9.951-29.066-25.082-14.721-12.681-.59 33.162-16.086 24.931 3.229 26.395 22.404 28.338 29.774 6.586z"/><path class="cls-16" d="M65.322 127.96c-9.98 15.48 1.313 22.773 1.313 22.773-.411-.938.178-5.544.178-5.544 1.648 13.336 11.508 24.369 11.508 24.369-.523-1.626-.78-9.65-.78-9.65 1.17 9.045 10.434 17.018 10.434 17.018-1.052-1.336-1.738-9.285-1.738-9.285a34.17 34.17 0 0010.343 13.716 18.007 18.007 0 003.511 2.183c.476.22.946.43 1.412.636l-.003.003-.09.049a32.41 32.41 0 016.909 2.847c-8.32-4.612-5.23-2.121.114-1.261 3.917.63 6.445 1.712 10.013 1.158a396.686 396.686 0 0122.24-2.798c8.169-.802 13.093-2.615 20.565-4.613q2.33-.268 4.664-.52a106.911 106.911 0 018.712-5.283c.492-.266 1-.48 1.503-.707a83.012 83.012 0 004.202-8.835c.57 1.938-.157 4.943-1.136 7.683a23.555 23.555 0 013.908-.756c.033-.042.056-.083.09-.125a8.798 8.798 0 011.295-1.316q-.248.105-.494.214c3.339-7.354 3.53-16.368 3.53-16.368 2.403 3.228.891 12.701.891 12.701 10.32-13.792-4.446-36.632-4.446-36.632 4.183 2.988 10.092 14.22 10.092 14.22-1.482-11.595-13.772-23.24-13.772-23.24 17.611-22.597 17.52-33 17.52-33-19.02-9.47-42.485 1.36-42.485 1.36a30.792 30.792 0 00-23.181-11.894c4.974 1.576 8.922 6.55 8.922 6.55A100.14 100.14 0 00122 77.798c-1.287-3.83-7.131-16.291-28.973-17.752 0 0-5.13 15.79-1.98 25.371-7.125 2.475-7.977 5.032-7.977 5.032l7.114-.974-5.122 15.731a28.297 28.297 0 00-14.982 7.253c1.688-.823 6.937.1 6.937.1-13.82 6.081-17.12 18.106-17.12 18.106a7.72 7.72 0 015.426-2.705zm99.548-32.85s15.332-7.898 24.926-2.981c0 0-5.235 13.436-13.093 18.467 0 0-4.825-9.656-11.833-15.486zm-58.376 24.36c2.858-11 14.368-24.994 23.467-22.63 9.099 2.363 12.34 20.19 9.483 31.19-2.858 11-12.863 15.906-21.962 13.541-9.098-2.363-13.845-11.1-10.988-22.101zM98.01 66.707c12.114 2.255 18.331 12.3 16.392 12.773-4.495 1.096-16.55 8.409-16.55 8.409-4.783-6.43.158-21.182.158-21.182z"/><path d="M135.866 190.148s-18.091 6.835-31.817-4.233z" style="mix-blend-mode:multiply" fill="#606161" opacity=".2"/><path class="cls-16" d="M188.009 153.961s-1.828 23.628-14.238 32.818c0 0 4.565-9.49 5.157-14.005 0 0-6.366 18.16-34.153 20.712a32.827 32.827 0 0013.456-9.065s-36.6 15.492-61.077-2.628l51.147-9.097s24.376-19.95 24.923-19.972c.547-.021 14.785 1.237 14.785 1.237z"/><path class="cls-15" d="M100.895 133.85c7.09 3.853-10.56 7.166-10.56 7.166s-3.309-5.648-3.877-10.392c-.568-4.746 7.347-.626 14.437 3.227z"/><path class="cls-18" d="M182.888 202.817c.825 2.06 2.316 5.62 4.864 5.922 4.913.597.463-6.408-.727-8.485a59.202 59.202 0 006.513 6.396 17.669 17.669 0 004.084 2.707c1.095.462 3.82 1.28 4.467-.292.643-1.562-1.827-3.773-2.839-4.683a16.255 16.255 0 00-10.764-4.06c2.892-.046 5.785-.161 8.665-.445a41.947 41.947 0 005.446-.834c1.38-.323 3.455-.725 4.292-2.04 2.36-3.709-7.087-3.057-8.566-2.96-5.797.383-9.98 2.027-15.242 4.374l-.373.166c-1.166-2.627-4.64-11.056-8.53-9.952-5.009 1.604 4.274 11.04 7.354 11.734zM63.562 188.297c-.668 2.116-1.889 5.777-4.407 6.27-4.855.961-.94-6.357.09-8.517a59.204 59.204 0 01-6.017 6.865 17.669 17.669 0 01-3.87 3.005c-1.057.542-3.713 1.562-4.476.041-.758-1.51 1.54-3.898 2.48-4.881a16.255 16.255 0 0110.432-4.852c-2.888.169-5.781.27-8.674.202a41.947 41.947 0 01-5.493-.424c-1.401-.22-3.5-.465-4.432-1.713-2.632-3.523 6.838-3.579 8.32-3.592 5.81-.051 10.103 1.276 15.527 3.222l.384.138c.966-2.706 3.8-11.371 7.762-10.56 5.115 1.225-3.437 11.327-6.456 12.25z"/><path class="cls-15" d="M149.672 141.753c13.071-14.057 14.929 7.07 14.929 7.07-5.542-16.632-14.93-7.07-14.93-7.07z"/><path class="cls-15" d="M130.416 167.915c-9.224 1.722-19.952-.337-32.006-6.158a.702.702 0 11.611-1.265c14.804 7.15 27.497 8.504 37.725 4.023 13.064-5.722 18.105-19.407 19.338-23.465a.702.702 0 111.344.409 45.352 45.352 0 01-6.418 12.99 33.44 33.44 0 01-13.7 11.352 31.566 31.566 0 01-6.894 2.114z"/><path class="cls-19" d="M58.468 316.544l-3.628-.069c.82-42.706 17.245-65.204 30.88-76.558 14.852-12.368 29.356-14.507 29.966-14.592l.5 3.594-.25-1.797.252 1.796c-.14.02-14.235 2.132-28.301 13.916-18.62 15.597-28.793 41.086-29.42 73.71z"/><path class="cls-19" d="M54.443 316.634s-4.116 5.396-12.806 4.603l-.382 1.58s11.037 2.06 14.875-2.965l-.585 3.908 3.725.246-.487-7.615zM79.933 319.947c-2.656-29.314 2.877-53.374 16.446-71.513a73.903 73.903 0 0131.623-24.396l1.328 3.375c-12.264 4.824-51.809 25.73-45.784 92.206z"/><path class="cls-19" d="M79.377 318.629s-3.501 5.813-12.226 5.975l-.206 1.614s11.195.84 14.46-4.575l-.153 3.949 3.73-.163-1.318-7.516z"/><path fill="#929497" d="M136.467 225.213v4.288H38.983L6.107 172.326l65.18-8.862 27.676 60.32 37.504 1.429z"/><path class="cls-15" d="M136.435 226.048l-38.017-1.449-27.633-60.224-64.565 8.779-.225-1.657 65.794-8.945.258.563 27.462 59.853 36.99 1.41-.064 1.67z"/><path style="mix-blend-mode:multiply" opacity=".5" fill="#231f20" d="M38.27 228.261h98.197v1.24H39.065l-.795-1.24z"/><ellipse class="cls-15" cx="51.943" cy="199.99" rx="4.514" ry="8.472" transform="rotate(-22.391 51.943 199.99)"/><ellipse class="cls-16" cx="128.032" cy="132.729" rx="5.891" ry="2.804" transform="rotate(-67.775 128.032 132.729)"/><ellipse class="cls-15" cx="99.154" cy="120.085" rx="5.891" ry="2.804" transform="rotate(-67.775 99.154 120.085)"/><path d="M184.596 180.946c1.26-1.105 3.217-1.683 4.688-2.466a14.42 14.42 0 005.912-6.626c.09-.18.978-2.102 1.425-3.336a2.04 2.04 0 01-.773-2.516 2.122 2.122 0 012.9-.63l6.903 3.615a2.121 2.121 0 011.133 2.743 2.02 2.02 0 01-2.423.823q-.172.225-.34.454a20.635 20.635 0 00-3.428 6.83 13.562 13.562 0 00-.336 4.54c.132 1.56.821 3.299.765 4.84a27.074 27.074 0 01-2.273 8.762 126.48 126.48 0 01-10.27 19.304s-4.546 1.703-10.281-1.301h-.007c-5.736-3.005-7.298-7.093-7.298-7.093.249-.821.545-1.628.823-2.44a155.932 155.932 0 014.714-12.07c2.03-4.633 4.261-10.009 8.166-13.433z" fill="#26a9e0" opacity=".5"/><path class="cls-15" d="M185.132 217.897a15.016 15.016 0 01-6.98-1.778l-.027-.012c-5.718-2.994-7.349-7.126-7.364-7.167l-.018-.045.015-.047c.178-.593.386-1.188.587-1.763.079-.228.159-.454.236-.682a155.323 155.323 0 014.72-12.08l.28-.644c1.956-4.477 4.172-9.551 7.92-12.84a12.08 12.08 0 013.13-1.745c.565-.247 1.098-.48 1.587-.74 2.37-1.262 4.23-3.348 5.851-6.564.092-.184.934-2.009 1.383-3.223a2.154 2.154 0 01-.73-2.63 2.26 2.26 0 013.092-.692l6.904 3.616a2.64 2.64 0 011.23 1.313 1.889 1.889 0 01-.038 1.622 2.148 2.148 0 01-2.495.92q-.14.186-.278.375a20.443 20.443 0 00-3.407 6.782 13.322 13.322 0 00-.332 4.493 15.68 15.68 0 00.368 2.036 11.475 11.475 0 01.399 2.82 27.52 27.52 0 01-2.285 8.812 126.813 126.813 0 01-10.28 19.325l-.026.04-.045.017a10.728 10.728 0 01-3.397.481zm-6.895-2.053l.027.012a13.48 13.48 0 0010.122 1.309 126.584 126.584 0 0010.232-19.24 27.254 27.254 0 002.262-8.712 11.204 11.204 0 00-.392-2.748 15.756 15.756 0 01-.373-2.076 13.577 13.577 0 01.34-4.587 20.71 20.71 0 013.451-6.878q.169-.231.341-.457l.06-.079.094.029a1.888 1.888 0 002.257-.753 1.612 1.612 0 00.026-1.382 2.357 2.357 0 00-1.1-1.17l-6.902-3.615a1.976 1.976 0 00-2.707.571 1.893 1.893 0 00.731 2.336l.085.063-.036.1c-.443 1.222-1.336 3.16-1.432 3.35-1.65 3.272-3.547 5.397-5.972 6.688-.498.265-1.036.5-1.605.75a11.895 11.895 0 00-3.057 1.698c-3.7 3.247-5.904 8.29-7.847 12.74l-.282.643a155.304 155.304 0 00-4.71 12.059l-.237.684a45.84 45.84 0 00-.57 1.704c.19.445 1.908 4.187 7.194 6.961z"/><path class="cls-15" d="M196.906 198.5s-6.82 14.722-9.353 17.48a17.435 17.435 0 01-15.127-7.65l7.128-18.146z"/><path d="M179.554 190.184c-.36.75 3.232 3.22 8.024 5.517 4.792 2.297 8.968 3.55 9.328 2.8.36-.752-3.233-3.223-8.024-5.52-4.792-2.296-8.968-3.549-9.328-2.797z" fill="#e4e4e3"/><path class="cls-15" d="M205.913 159.626c-.62.712-1.154 3.927-1.154 3.927s3.112-.97 3.732-1.681a1.71 1.71 0 00-2.578-2.246zM198.065 157.745c.479 1.477 4.56 4.953 4.56 4.953s1.269-5.209.79-6.686a2.812 2.812 0 10-5.35 1.733z"/><path class="cls-18" d="M141.573 26.293a100.23 100.23 0 005.948-1.548c.278-2.56.767-9.832-6.473-7.852-6.875 1.82-1.69 7.316.525 9.4z"/><path class="cls-24" d="M137.111 29.074a5.412 5.412 0 117.484-1.605 5.419 5.419 0 01-7.484 1.605zm5.31-8.209a4.364 4.364 0 101.294 6.035 4.37 4.37 0 00-1.294-6.035z"/><path class="cls-18" d="M200.54 62.41a.087.087 0 00-.011-.125c-.627-2.037-4.813-9.84-4.813-9.84a26.761 26.761 0 012.591 3.445c-1.113-5.353-6.502-11.717-6.502-11.717.914.298 4.386 3.664 4.386 3.664-2.255-7.47-12.39-12.33-12.39-12.33 1.634-.147 6.332 1.334 6.332 1.334a24.1 24.1 0 00-12.422-5.608 20.348 20.348 0 014.7.086 36.273 36.273 0 00-11.717-2.69 40.225 40.225 0 00-20.509-3.869s-22.399 7.587-28.313 1.016c0 0 8.202 15.115 24.45 14.61-2.892.26-10.006 1.531-13.022 8.205 0 0 40.413-11.737 67.81 15.227a5.806 5.806 0 01-.57-1.408z"/><path class="cls-18" d="M135.203 35.867a14.146 14.146 0 00-5.798 9.586s8-6.233 16.63-4.027l1.033-2.628zM142.532 27.095l2.288-.65a13.054 13.054 0 01-2.299.524zM119.985 25.945a1.855 1.855 0 012.197-1.655 2.183 2.183 0 012.033 2.163 1.855 1.855 0 01-2.197 1.656 2.296 2.296 0 01-2.033-2.164zM188.007 54.15c-3.438-2.989-9.826-6.347-21.531-8.912l-10.461-1.409s2.183 1.01 5.565 2.672a67.217 67.217 0 0113.01 2.258 56.481 56.481 0 0113.417 5.391z"/><path class="cls-18" d="M174.269 49.421a66.98 66.98 0 00-10.517-2.037l.205.172a31.254 31.254 0 007.951 5.944 27.627 27.627 0 01-2.466-2.759s6.569 4.674 10.191 6.188a25.275 25.275 0 01-2.58-2.622l-.206-.171.205.171c.138.115 8.717 6.003 13.049 7.644l.205.172a5.287 5.287 0 00-2.961.202c.993 1.179 2.206.563 3.373.141l.068.058a16.919 16.919 0 00-1.82.924c-.697.696-2.05 2.593.33 2.253.754-.068 1.557-1.725 1.97-2.777l.068.058s1.205-2.835-1.455-6.337a49.362 49.362 0 00-15.61-7.224zM200.882 63.394c-1.315.181-2.735 1.323-3.876-.096a7.602 7.602 0 013.876.096z"/><path class="cls-18" d="M198.89 64.524a3.827 3.827 0 012.06-1.073c.069.058.149.24.217.298-.356.983-1.204 2.834-2.085 2.913-2.173.512-1.015-1.43-.191-2.138z"/><path class="cls-15" d="M152.802 26.364l-.759-5.638 5.05-5.905 5.853.934 3.176 2.188 2.214 3.479-.234 4.459-.646 4.116-3.602.132-11.052-3.765z"/><path class="cls-18" d="M149.327 25.09a21.422 21.422 0 00.934 2.643c.24.55.662 1.019.97 1.625a5.82 5.82 0 00.925 1.122 2.472 2.472 0 01.56.584 13.163 13.163 0 005.404 3.003c5.395 1.482 10.578-.821 12.596-5.187a4.277 4.277 0 00.586-1.954c1.208-5.625-2.73-11.358-8.72-13.104-6.103-1.609-12.099 1.528-13.307 7.152a10.882 10.882 0 00.052 4.117zm3.69-1.168c-.08-.88-.257-9.347 8.613-7.288 8.482 1.966 6.026 9.224 5.44 10.48a.9.9 0 00-.102.264 59.191 59.191 0 00-6.401-2.09c-2.39-.483-5.046-1.717-7.104-1.342l-.212.058c-.183.08-.166-.024-.234-.082z"/><path class="cls-15" d="M146.657 29.958a3.295 3.295 0 002.316 3.914 3.178 3.178 0 003.787-2.305 3.295 3.295 0 00-2.316-3.913 3.079 3.079 0 00-3.787 2.304z"/><ellipse class="cls-18" cx="147.817" cy="30.821" rx=".893" ry="1.161" transform="rotate(-5.732 147.817 30.821)"/><path class="cls-18" d="M131.378 49.08a6.446 6.446 0 012.334-.843c.011.126.148.24.217.298-.676.948-2.05 2.593-2.736 2.718-2.516.225-.787-1.705.185-2.173zM188.897 46.399a1.477 1.477 0 01-1.302-1.088 7.752 7.752 0 01.968-5.476 10.661 10.661 0 018.137-5.421c4.643-.543 7.201 1.827 9.497 4.094 1.724 1.557 3.323 3.126 5.575 3.495a3.408 3.408 0 004.052-2.9 4.723 4.723 0 00-3.057-5.812 1.443 1.443 0 01.895-2.743c4.31 1.389 5.653 5.77 4.882 9.2a6.111 6.111 0 01-7.221 5.021c-3.202-.347-5.291-2.442-7.153-4.114-2.09-2.095-3.952-3.767-7.142-3.29a8.378 8.378 0 00-6.043 4.028 5.576 5.576 0 00-.76 3.555 1.448 1.448 0 01-1.11 1.748c.045-.194-.15-.24-.218-.297z"/><path class="cls-18" d="M133.918 48.409c-1.464-.06-3.18.602-3.807-.737a5.76 5.76 0 013.807.737zM127.094 45.85a6.445 6.445 0 012.334-.843c.011.126.149.24.217.298-.676.948-2.05 2.593-2.736 2.717-2.402.089-.787-1.704.185-2.172zM129.611 44.927c-1.463-.059-3.18.602-3.806-.737a7.008 7.008 0 013.806.737z"/><path class="cls-24" d="M148.12 38.608a8.42 8.42 0 1111.643-2.496 8.43 8.43 0 01-11.643 2.496zm8.577-13.259a7.372 7.372 0 102.186 10.193 7.38 7.38 0 00-2.186-10.193z"/><path class="cls-24" d="M144.863 26.282l-.169-1.034a1.849 1.849 0 012.181 1.433l-1.026.214a.805.805 0 00-.986-.613z"/><path class="cls-18" d="M205.888 66.604a1.503 1.503 0 01-1.5-1.5 1.42 1.42 0 01.12-.58.954.954 0 01.14-.26.978.978 0 01.18-.22 1.355 1.355 0 01.23-.19 1.307 1.307 0 01.26-.14 1.333 1.333 0 01.28-.09 1.541 1.541 0 011.35.42 1.484 1.484 0 01.44 1.06 1.501 1.501 0 01-1.5 1.5zM235.067 115.255a1.494 1.494 0 011.28-1.69 1.486 1.486 0 011.691 1.27 1.508 1.508 0 01-1.28 1.7 1.51 1.51 0 01-.21.01 1.503 1.503 0 01-1.48-1.29zm-.829-4.89a1.498 1.498 0 011.18-1.77 1.493 1.493 0 011.76 1.18 1.493 1.493 0 01-1.18 1.76 1.434 1.434 0 01-.29.03 1.496 1.496 0 01-1.47-1.2zm-1.12-4.83a1.505 1.505 0 011.07-1.84 1.5 1.5 0 011.83 1.07 1.492 1.492 0 01-1.07 1.83 1.204 1.204 0 01-.38.05 1.503 1.503 0 01-1.45-1.11zm-1.42-4.75a1.498 1.498 0 01.95-1.9 1.508 1.508 0 011.9.95 1.508 1.508 0 01-.95 1.9 1.584 1.584 0 01-.47.07 1.5 1.5 0 01-1.43-1.02zm-1.72-4.64a1.493 1.493 0 01.81-1.96 1.506 1.506 0 011.96.82 1.51 1.51 0 01-.82 1.96 1.606 1.606 0 01-.57.11 1.481 1.481 0 01-1.38-.93zm-2.05-4.5a1.493 1.493 0 01.68-2.01 1.499 1.499 0 012.01.67 1.499 1.499 0 01-.68 2.01 1.421 1.421 0 01-.66.16 1.5 1.5 0 01-1.35-.83zm-2.36-4.35a1.5 1.5 0 01.53-2.05 1.506 1.506 0 012.06.53 1.5 1.5 0 01-.53 2.05 1.502 1.502 0 01-.76.21 1.492 1.492 0 01-1.3-.74zm-2.67-4.15a1.515 1.515 0 01.37-2.09 1.512 1.512 0 012.09.37 1.494 1.494 0 01-.37 2.09 1.44 1.44 0 01-.86.27 1.493 1.493 0 01-1.23-.64zm-2.97-3.94a1.487 1.487 0 01.21-2.11 1.506 1.506 0 012.11.21 1.504 1.504 0 01-.21 2.11 1.498 1.498 0 01-.95.34 1.452 1.452 0 01-1.16-.55zm-3.28-3.69a1.492 1.492 0 01.04-2.12 1.5 1.5 0 012.12.05 1.499 1.499 0 01-.04 2.12 1.473 1.473 0 01-1.04.41 1.477 1.477 0 01-1.08-.46zm-3.56-3.4a1.503 1.503 0 01-.13-2.12 1.5 1.5 0 012.11-.14 1.494 1.494 0 01.14 2.12 1.493 1.493 0 01-1.13.51 1.506 1.506 0 01-.99-.37zm-3.83-3.09v.01a1.503 1.503 0 01-.33-2.1 1.503 1.503 0 012.1-.33 1.511 1.511 0 01.33 2.1 1.51 1.51 0 01-1.22.61 1.472 1.472 0 01-.88-.29zM237.118 121.584a1.516 1.516 0 01-1.06-.44 1.018 1.018 0 01-.18-.23.79.79 0 01-.14-.26 1.344 1.344 0 01-.09-.28 1.388 1.388 0 01-.03-.29 1.499 1.499 0 011.79-1.47 1.15 1.15 0 01.28.09 1.067 1.067 0 01.26.13 1.458 1.458 0 01.23.19 1.515 1.515 0 01.44 1.06 1.387 1.387 0 01-.03.29 2.348 2.348 0 01-.08.28 1.604 1.604 0 01-.14.26 1.445 1.445 0 01-.19.23 1.43 1.43 0 01-.23.19 1.56 1.56 0 01-.26.14 1.846 1.846 0 01-.28.08 1.365 1.365 0 01-.29.03z"/></g></g></svg>