<svg xmlns="http://www.w3.org/2000/svg" viewBox="1754 44 16 16">
  <g id="catWhite" transform="translate(1562)">
    <path id="Fill1" fill="#767676" d="M196.959,59.5h10.613l-.3-1.58-1.312-.476-.464-1.833V49.471h1.776l.3-2.261L205.1,45.8l-.54-.68-.142-.674-1.517.271-1.236,1.267L201.3,49.7l-.955,2.3-1.911,2.314-.984,3.125Z"/>
    <path id="Contour" fill="#fff" d="M15.9-12.529a1.462,1.462,0,0,1-.116.582,1.5,1.5,0,0,1-.318.473,1.5,1.5,0,0,1-.473.318,1.462,1.462,0,0,1-.582.116h-.5v4.967a6.152,6.152,0,0,0,.085,1.021,5.614,5.614,0,0,0,.264,1,1.9,1.9,0,0,1,.656.241,2.011,2.011,0,0,1,.516.439,2.024,2.024,0,0,1,.342.59A1.934,1.934,0,0,1,15.9-2.1q0,.14,0,.314a1.2,1.2,0,0,1-.035.326.522.522,0,0,1-.144.252.449.449,0,0,1-.322.1H3.974a3.826,3.826,0,0,1-1.545-.314,4.054,4.054,0,0,1-1.261-.854A4.054,4.054,0,0,1,.314-3.534,3.826,3.826,0,0,1,0-5.078,2.9,2.9,0,0,1,.233-6.235a3,3,0,0,1,.64-.951,3.016,3.016,0,0,1,.947-.64,2.9,2.9,0,0,1,1.16-.233.971.971,0,0,0,.384-.078,1,1,0,0,0,.318-.213A1,1,0,0,0,3.9-8.668a.971.971,0,0,0,.078-.384A.963.963,0,0,0,3.9-9.44a1.01,1.01,0,0,0-.213-.314,1.01,1.01,0,0,0-.314-.213.963.963,0,0,0-.388-.078v-.993a1.934,1.934,0,0,1,.772.155,2.007,2.007,0,0,1,.633.427,2.007,2.007,0,0,1,.427.633,1.934,1.934,0,0,1,.155.772,1.934,1.934,0,0,1-.155.772,2.007,2.007,0,0,1-.427.633,2.007,2.007,0,0,1-.633.427,1.934,1.934,0,0,1-.772.155,1.934,1.934,0,0,0-.772.155,2.007,2.007,0,0,0-.633.427,2.007,2.007,0,0,0-.427.633,1.934,1.934,0,0,0-.155.772,2.9,2.9,0,0,0,.233,1.16,3.016,3.016,0,0,0,.64.947,3.016,3.016,0,0,0,.947.64,2.9,2.9,0,0,0,1.16.233.971.971,0,0,0,.384-.078,1,1,0,0,0,.318-.213,1,1,0,0,0,.213-.318.971.971,0,0,0,.078-.384,7.563,7.563,0,0,1,.539-2.868A7.819,7.819,0,0,1,7.094-8.4a6.765,6.765,0,0,0,1.378-2.131,6.627,6.627,0,0,0,.47-2.5v-.993a2.9,2.9,0,0,1,.233-1.156,3,3,0,0,1,.64-.951,3.016,3.016,0,0,1,.947-.64A2.9,2.9,0,0,1,11.922-17h.993v.877a.5.5,0,0,0,.074.256.473.473,0,0,0,.2.186l.943.466q.47.233.943.473a1.49,1.49,0,0,1,.6.551,1.46,1.46,0,0,1,.221.784ZM14.9-2.1a.971.971,0,0,0-.078-.384,1,1,0,0,0-.213-.318,1,1,0,0,0-.318-.213.971.971,0,0,0-.384-.078.457.457,0,0,1-.276-.081.6.6,0,0,1-.182-.221A3.28,3.28,0,0,1,13.21-4a6.78,6.78,0,0,1-.167-.7q-.066-.361-.1-.718t-.031-.652v-4.967a.963.963,0,0,1,.078-.388,1.01,1.01,0,0,1,.213-.314,1.01,1.01,0,0,1,.314-.213.963.963,0,0,1,.388-.078q.14,0,.314,0a1.2,1.2,0,0,0,.326-.035.522.522,0,0,0,.252-.144.449.449,0,0,0,.1-.322v-.877a.5.5,0,0,0-.074-.256.473.473,0,0,0-.2-.186l-.943-.466q-.47-.233-.943-.473a1.46,1.46,0,0,1-.563-.5,1.489,1.489,0,0,1-.244-.718,1.961,1.961,0,0,0-.776.155,2.028,2.028,0,0,0-.636.423,2.014,2.014,0,0,0-.431.629,1.912,1.912,0,0,0-.159.78v.993A7.572,7.572,0,0,1,9.4-10.162,7.806,7.806,0,0,1,7.808-7.717,6.765,6.765,0,0,0,6.43-5.587a6.627,6.627,0,0,0-.47,2.5,1.83,1.83,0,0,1-.074.516,2.112,2.112,0,0,1-.206.477h6.24a.971.971,0,0,0-.078-.384,1,1,0,0,0-.213-.318,1,1,0,0,0-.318-.213.971.971,0,0,0-.384-.078H8.941v-.993h1.987a.91.91,0,0,1,.12.008l.12.016-.722-2.88.962-.248L12.333-3.5a1.97,1.97,0,0,1,.431.644,1.966,1.966,0,0,1,.151.761ZM12.419-14.02a.477.477,0,0,1,.349.147.477.477,0,0,1,.147.349.477.477,0,0,1-.147.349.477.477,0,0,1-.349.147.477.477,0,0,1-.349-.147.477.477,0,0,1-.147-.349.477.477,0,0,1,.147-.349A.477.477,0,0,1,12.419-14.02Z" transform="translate(192 61)"/>
  </g>
</svg>
