<svg xmlns="http://www.w3.org/2000/svg" xmlns:xlink="http://www.w3.org/1999/xlink" viewBox="0 0 270 240"><defs><style>.cls-1{isolation:isolate;}.cls-11,.cls-12,.cls-14,.cls-16,.cls-17,.cls-18,.cls-19,.cls-2,.cls-20,.cls-21,.cls-22,.cls-23,.cls-4,.cls-6{fill:none;}.cls-2{stroke:#5495bc;stroke-width:4.73px;}.cls-11,.cls-12,.cls-14,.cls-17,.cls-18,.cls-19,.cls-2,.cls-20,.cls-21,.cls-22,.cls-23,.cls-4,.cls-6{stroke-miterlimit:10;}.cls-3{fill:#515252;}.cls-11,.cls-12,.cls-14,.cls-4{stroke:#3c3b3a;}.cls-4{stroke-width:2.03px;}.cls-5{fill:#6b6b6b;}.cls-19,.cls-20,.cls-21,.cls-22,.cls-23,.cls-6{stroke:#6b6b6b;}.cls-6{stroke-width:3.25px;}.cls-7,.cls-9{fill:#3c3b3a;}.cls-7{opacity:0.1;mix-blend-mode:multiply;}.cls-8{fill:#919395;}.cls-10{fill:#fff;}.cls-11,.cls-12,.cls-16,.cls-22,.cls-23{stroke-linecap:round;}.cls-11,.cls-12,.cls-23{stroke-width:2.44px;}.cls-12{stroke-dasharray:2.42 4.83;}.cls-13{fill:#e83d31;}.cls-14{stroke-width:0.81px;}.cls-15{fill:#fcfdfc;}.cls-16,.cls-18{stroke:#e83d31;}.cls-16{stroke-linejoin:round;}.cls-16,.cls-18,.cls-22{stroke-width:4.06px;}.cls-17{stroke:#919395;stroke-width:2.12px;}.cls-19{stroke-width:1.35px;}.cls-20{stroke-width:0.43px;}.cls-21{stroke-width:0.4px;}.cls-24{fill:#5495bc;}.cls-25{fill:#a6a8ab;}.cls-26{fill:url(#radial-gradient);}.cls-27,.cls-28{fill:#cb9876;}.cls-28{opacity:0.4;}.cls-29{fill:#e0b895;}.cls-30{fill:#f0eff0;}.cls-31{fill:#876439;}.cls-32{fill:#e1b996;}.cls-33{fill:#ad8166;}.cls-34{fill:#f0f0f1;}</style><radialGradient id="radial-gradient" cx="-1889.99" cy="1837.23" r="18.62" gradientTransform="translate(2503.02 -1094.2) rotate(18.01)" gradientUnits="userSpaceOnUse"><stop offset="0.01" stop-color="#dc8263"/><stop offset="1" stop-color="#e1b996"/></radialGradient></defs><title>Artboard 29 copy 6</title><g class="cls-1"><g id="Layer_1" data-name="Layer 1"><path class="cls-2" d="M107.75,96.67c.93,1.9,77.47-12,8.65,56.75"/><path class="cls-3" d="M118.48,152.29s2,6.81,10.76,9.25L129,163.4s-11.45-2.23-13.33-8.58l-.92,4.19-3.62-1.43,3.25-7.14Z"/><path class="cls-4" d="M135.44,70.31s36.09,38.62,64.15,33.5"/><path class="cls-5" d="M193,104.68a3.36,3.36,0,0,0-3.5-3.53,4,4,0,0,0-4,3.53,3.36,3.36,0,0,0,3.5,3.53A4,4,0,0,0,193,104.68Z"/><line class="cls-6" x1="148.79" y1="146.8" x2="129.07" y2="153.42"/><path class="cls-7" d="M230.95,223.64c.16-2.35-44.6-4.25-100-4.25s-100.41,1.9-100.57,4.25,44.6,4.25,100,4.25S230.79,226,230.95,223.64Z"/><path class="cls-8" d="M119.72,163.84a2,2,0,0,1,2,.77L134.66,183a2,2,0,0,1-.65,2.74,2.11,2.11,0,0,1-2.88-.43l-12.91-18.36a2,2,0,0,1,.65-2.74A2.29,2.29,0,0,1,119.72,163.84Z"/><polygon class="cls-8" points="108.23 161.02 131.03 161.02 130.54 168.07 107.75 168.07 108.23 161.02"/><path class="cls-9" d="M190.76,220.52a35.57,35.57,0,0,1-19.06-5.32,29.92,29.92,0,0,1-14-21.8c-1.2-9.23,1.59-18.82,7.87-27a44.88,44.88,0,0,1,25.27-16.26c10.37-2.44,20.58-1,28.73,4.17a29.92,29.92,0,0,1,14,21.8c1.2,9.23-1.59,18.82-7.87,27a44.88,44.88,0,0,1-25.27,16.26A42.34,42.34,0,0,1,190.76,220.52Zm9.14-62.88a32.32,32.32,0,0,0-7.39.88c-16.07,3.77-27.6,18.71-25.71,33.29a22.11,22.11,0,0,0,10.32,16.12c6.09,3.83,13.77,4.92,21.63,3.08,16.07-3.77,27.6-18.71,25.71-33.29a22.11,22.11,0,0,0-10.32-16.12A26.59,26.59,0,0,0,199.9,157.65Z"/><path class="cls-10" d="M191.62,212.81a27.77,27.77,0,0,1-14.88-4.14,23.27,23.27,0,0,1-10.88-17c-1.95-14.95,9.8-30.24,26.19-34.09,8.13-1.91,16.12-.76,22.48,3.24a23.27,23.27,0,0,1,10.88,17c1.95,14.95-9.8,30.24-26.19,34.09A33.28,33.28,0,0,1,191.62,212.81Zm7.93-54.52a31.45,31.45,0,0,0-7.19.85c-15.54,3.65-26.68,18.13-24.84,32.28a21.85,21.85,0,0,0,10.21,15.93c6,3.77,13.52,4.85,21.19,3h0c15.54-3.65,26.68-18.13,24.84-32.28a21.85,21.85,0,0,0-10.21-15.93A26.14,26.14,0,0,0,199.55,158.29Z"/><path class="cls-11" d="M233.65,183.86q-.07.6-.15,1.21l-1.22-.08"/><polyline class="cls-11" points="230.17 184.85 228.96 184.77 230.17 184.85"/><path class="cls-11" d="M232.29,185l1.22.08q-.09.6-.19,1.2"/><path class="cls-12" d="M232.15,191a41.52,41.52,0,0,1-13.22,19.18,44.14,44.14,0,0,1-28.08,10.37c-10.17,0-19.21-3.75-25.47-10.55a30.53,30.53,0,0,1-7.6-25.49c1.36-9.48,6.53-18.39,14.57-25.07A44.14,44.14,0,0,1,200.43,149c10.17,0,19.21,3.75,25.47,10.55a30.15,30.15,0,0,1,7.93,21.86"/><path class="cls-11" d="M110.23,183.92q-.07.6-.15,1.21l-1.22-.08"/><polyline class="cls-11" points="106.75 184.91 105.54 184.83 106.75 184.91"/><path class="cls-11" d="M108.87,185.05l1.22.08q-.09.6-.19,1.2"/><path class="cls-12" d="M108.73,191A41.52,41.52,0,0,1,95.51,210.2a44.14,44.14,0,0,1-28.08,10.37c-10.17,0-19.21-3.75-25.47-10.55a30.53,30.53,0,0,1-7.6-25.49c1.36-9.48,6.53-18.39,14.57-25.07A44.15,44.15,0,0,1,77,149.09c10.17,0,19.21,3.75,25.47,10.55a30.15,30.15,0,0,1,7.93,21.86"/><path class="cls-9" d="M67.44,220.42c-10.17,0-19.21-3.75-25.47-10.55a30.53,30.53,0,0,1-7.6-25.49c1.36-9.48,6.53-18.39,14.57-25.07A44.14,44.14,0,0,1,77,148.95c10.17,0,19.21,3.75,25.47,10.55a30.53,30.53,0,0,1,7.6,25.49l-4.54-.3,4.54.3c-1.36,9.48-6.53,18.39-14.57,25.07A44.14,44.14,0,0,1,67.44,220.42Zm9-62.84c-16,0-30.81,12.29-33,27.41a22.74,22.74,0,0,0,5.61,19c4.63,5,11.36,7.8,19,7.8,16,0,30.81-12.29,33-27.41a22.74,22.74,0,0,0-5.61-19C90.77,160.35,84,157.58,76.43,157.58Z"/><path class="cls-10" d="M68.28,212.72c-7.94,0-15-2.91-19.86-8.21a23.81,23.81,0,0,1-5.91-19.88c2.21-15.43,17.31-28,33.67-28,7.94,0,15,2.91,19.86,8.21A23.81,23.81,0,0,1,102,184.74l-.83-.05.83.05C99.74,200.17,84.64,212.72,68.28,212.72Zm7.79-54.5c-15.5,0-29.82,11.9-31.91,26.52a22.39,22.39,0,0,0,5.55,18.7c4.57,5,11.2,7.71,18.67,7.71,15.5,0,29.82-11.9,31.91-26.52a22.39,22.39,0,0,0-5.55-18.7C90.18,161,83.55,158.22,76.08,158.22Z"/><polygon class="cls-13" points="193.85 183.05 175.76 120.28 179.79 119.03 197.88 181.8 193.85 183.05"/><path class="cls-9" d="M76.57,181.08c-1.83-2-5.25-2-7.65,0s-2.86,5.22-1,7.21,5.25,2,7.65,0S78.4,183.07,76.57,181.08Z"/><path class="cls-14" d="M78.27,194.92s3.84-8.18-6.31-10.24"/><path class="cls-9" d="M81,194.77a2.13,2.13,0,0,0-2.19-2.3,2.57,2.57,0,0,0-2.74,2,2.13,2.13,0,0,0,2.19,2.3A2.57,2.57,0,0,0,81,194.77Z"/><path class="cls-9" d="M201,184.77a4.45,4.45,0,0,0-4.68-5.1,6.27,6.27,0,0,0-6.14,5.1,4.45,4.45,0,0,0,4.68,5.1A6.27,6.27,0,0,0,201,184.77Z"/><path class="cls-9" d="M200,181.16c-1.83-2-5.25-2-7.65,0s-2.86,5.22-1,7.21,5.25,2,7.65,0S201.81,183.15,200,181.16Z"/><path class="cls-13" d="M197.86,184.77a1.83,1.83,0,0,0-1.92-2.09,2.57,2.57,0,0,0-2.52,2.09,1.83,1.83,0,0,0,1.92,2.09A2.57,2.57,0,0,0,197.86,184.77Z"/><path class="cls-5" d="M127.66,124l-15.07,3.35a3.63,3.63,0,0,1-4.44-3.34h0a4.85,4.85,0,0,1,4.11-4.74l22.27-3.64h0C134.68,119.47,131.67,123.13,127.66,124Z"/><polygon class="cls-5" points="122.71 131.78 121.11 122 123.3 121.55 124.91 131.34 122.71 131.78"/><polygon class="cls-13" points="132.2 185.76 121.34 129.33 125.44 128.39 136.3 184.82 132.2 185.76"/><polygon class="cls-13" points="182.29 149.48 190.07 146.59 186.07 133.44 178.28 136.21 182.29 149.48"/><polygon class="cls-15" points="181.58 138.15 183.87 145.84 189.28 144.01 186.9 136.17 181.58 138.15"/><polygon class="cls-7" points="187.27 137.4 183.66 138.75 185.33 143.62 188.81 142.44 187.27 137.4"/><polyline class="cls-16" points="179.05 125.11 134.01 185.71 136.3 184.82 72.23 184.69 109.38 153.32 127.95 153.32"/><path class="cls-8" d="M143.73,128.21l-1-4a2.89,2.89,0,0,1,2.16-3.37L162.27,116a2.71,2.71,0,0,1,3.45,1.82l1,4a2.89,2.89,0,0,1-2.16,3.37L147.18,130A2.71,2.71,0,0,1,143.73,128.21Z"/><path class="cls-8" d="M155.24,124.24l-.61-2.47a1.77,1.77,0,0,1,1.33-2.07l10.67-3a1.66,1.66,0,0,1,2.12,1.12l.61,2.47A1.77,1.77,0,0,1,168,122.4l-10.67,3A1.66,1.66,0,0,1,155.24,124.24Z"/><line class="cls-17" x1="149.45" y1="124.38" x2="151.68" y2="134.51"/><line class="cls-17" x1="158.92" y1="121.49" x2="161.14" y2="131.62"/><line class="cls-18" x1="125.53" y1="144.65" x2="179.05" y2="125.11"/><path class="cls-19" d="M66.8,185.19h0a5.31,5.31,0,0,0,4.77,5.31l61.55,5.32a12.35,12.35,0,0,0,13.29-11.41h0A10.52,10.52,0,0,0,134.56,173l-62.26,5.92A6.31,6.31,0,0,0,66.8,185.19Z"/><path class="cls-5" d="M132.93,196.11A10.79,10.79,0,0,1,125,192.9a9.64,9.64,0,0,1-2.56-8c.76-6.15,6.7-11.24,13.24-11.35a10.83,10.83,0,0,1,8.15,3.21,9.64,9.64,0,0,1,2.56,8c-.76,6.15-6.7,11.24-13.24,11.35Zm.41-3.81-.1,1.9.1-1.9c4.46-.07,8.51-3.55,9-7.74a6.21,6.21,0,0,0-1.63-5.16,7,7,0,0,0-5.26-2c-4.46.07-8.51,3.55-9,7.74a6.21,6.21,0,0,0,1.63,5.16A7,7,0,0,0,133.34,192.31Z"/><polygon class="cls-5" points="124.35 186.39 124.54 182.73 143.61 182.41 143.43 186.07 124.35 186.39"/><polygon class="cls-5" points="134.8 193.47 130.93 193.28 133.17 175.33 137.03 175.52 134.8 193.47"/><polygon class="cls-5" points="173.28 123.71 183.46 120.17 182.19 115.66 171.82 119.39 173.28 123.71"/><path class="cls-13" d="M153.16,133.81l-6.56,10.44-9.26,3.11a1.59,1.59,0,0,0-1.09,1.94l1,3.09a1.53,1.53,0,0,0,2,.9l10.5-3.52a3.63,3.63,0,0,0,1.92-1.49l9.67-15.41-1.89-1A24.06,24.06,0,0,1,153.16,133.81Z"/><path class="cls-3" d="M193.74,163.88l-6.05,1.86a1.39,1.39,0,0,1-1.79-.87h0a1.46,1.46,0,0,1,1-1.75l6.05-1.86a1.39,1.39,0,0,1,1.79.87h0A1.46,1.46,0,0,1,193.74,163.88Z"/><path class="cls-3" d="M194.48,166.5l-6.05,1.86a1.39,1.39,0,0,1-1.79-.87h0a1.46,1.46,0,0,1,1-1.75l6.05-1.86a1.39,1.39,0,0,1,1.79.87h0A1.46,1.46,0,0,1,194.48,166.5Z"/><path class="cls-3" d="M195.23,169.12,189.18,171a1.39,1.39,0,0,1-1.79-.87h0a1.46,1.46,0,0,1,1-1.75l6.05-1.86a1.39,1.39,0,0,1,1.79.87h0A1.46,1.46,0,0,1,195.23,169.12Z"/><path class="cls-3" d="M196,171.74l-6.05,1.86a1.39,1.39,0,0,1-1.79-.87h0a1.46,1.46,0,0,1,1-1.75l6.05-1.86A1.39,1.39,0,0,1,197,170h0A1.46,1.46,0,0,1,196,171.74Z"/><path class="cls-3" d="M196.71,174.36l-6.05,1.86a1.39,1.39,0,0,1-1.79-.87h0a1.46,1.46,0,0,1,1-1.75l6.05-1.86a1.39,1.39,0,0,1,1.79.87h0A1.46,1.46,0,0,1,196.71,174.36Z"/><path class="cls-3" d="M197.46,177l-6.05,1.86a1.39,1.39,0,0,1-1.79-.87h0a1.46,1.46,0,0,1,1-1.75l6.05-1.86a1.39,1.39,0,0,1,1.79.87h0A1.46,1.46,0,0,1,197.46,177Z"/><path class="cls-3" d="M99.13,166.15l-4-4.46a1.38,1.38,0,0,1,.24-2h0a1.55,1.55,0,0,1,2.11.1l4,4.46a1.38,1.38,0,0,1-.24,2h0A1.55,1.55,0,0,1,99.13,166.15Z"/><path class="cls-3" d="M96.78,168.05l-4-4.46a1.38,1.38,0,0,1,.24-2h0a1.55,1.55,0,0,1,2.11.1l4,4.46a1.38,1.38,0,0,1-.24,2h0A1.55,1.55,0,0,1,96.78,168.05Z"/><path class="cls-3" d="M94.43,170l-4-4.46a1.38,1.38,0,0,1,.24-2h0a1.55,1.55,0,0,1,2.11.1l4,4.46a1.38,1.38,0,0,1-.24,2h0A1.55,1.55,0,0,1,94.43,170Z"/><path class="cls-3" d="M92.08,171.85l-4-4.46a1.38,1.38,0,0,1,.24-2h0a1.55,1.55,0,0,1,2.11.1l4,4.46a1.38,1.38,0,0,1-.24,2h0A1.55,1.55,0,0,1,92.08,171.85Z"/><path class="cls-3" d="M89.73,173.75l-4-4.46a1.38,1.38,0,0,1,.24-2h0a1.55,1.55,0,0,1,2.11.1l4,4.46a1.38,1.38,0,0,1-.24,2h0A1.55,1.55,0,0,1,89.73,173.75Z"/><path class="cls-3" d="M87.39,175.65l-4-4.46a1.38,1.38,0,0,1,.24-2h0a1.55,1.55,0,0,1,2.11.1l4,4.46a1.38,1.38,0,0,1-.24,2h0A1.55,1.55,0,0,1,87.39,175.65Z"/><polygon class="cls-5" points="120.75 132.12 127.04 130.84 127.87 136.73 121.71 138.32 120.75 132.12"/><path class="cls-8" d="M149.08,203.68A2,2,0,0,1,147,203l-13.78-17.77a1.93,1.93,0,0,1,.52-2.76,2.13,2.13,0,0,1,2.9.31l13.78,17.77a1.93,1.93,0,0,1-.52,2.76A2.3,2.3,0,0,1,149.08,203.68Z"/><polygon class="cls-8" points="157.68 204.01 134.88 204.12 135.32 197.06 158.13 196.96 157.68 204.01"/><polyline class="cls-20" points="135.11 200.16 154.57 199.94 154.67 197.06"/><polyline class="cls-21" points="145.34 120.69 147 127.44 164.14 123.01 164.56 125.21"/><path class="cls-9" d="M74.11,183.28a2,2,0,0,0-2.73,0,1.78,1.78,0,0,0-.37,2.57,2,2,0,0,0,2.73,0A1.78,1.78,0,0,0,74.11,183.28Z"/><path class="cls-5" d="M175.86,119.7l-3.77-11.81a1.33,1.33,0,0,1,.91-1.62l1.45-.49a1.28,1.28,0,0,1,1.66.75l3.77,11.81Z"/><line class="cls-22" x1="171.34" y1="111.58" x2="189.21" y2="104.68"/><line class="cls-23" x1="189.21" y1="104.68" x2="200.12" y2="106.47"/><path class="cls-3" d="M203.14,109.8l-8.65-1.55,1.27-4.75,8.65,1.55a2.25,2.25,0,0,1,1.85,2.82h0A2.76,2.76,0,0,1,203.14,109.8Z"/><path class="cls-24" d="M120.11,98.7c-2.32,4.06-7.93,6.18-13.25,4.14s-7.81-9-4.49-14.71,10.29-6.7,14.63-3S122.43,94.64,120.11,98.7Z"/><path class="cls-9" d="M133.2,60.89a69.39,69.39,0,0,0-30.25,26.25c7,4.46,10.48,6.63,17.57,10.86a50.14,50.14,0,0,1,18.25-22.69C136.38,69.62,135.26,66.73,133.2,60.89Z"/><path class="cls-3" d="M146.43,188.86s4.35,5.61,13.39,4.69l.43,1.84s-11.48,2.1-15.54-3.14l.67,4.24h-3.9l.43-7.83Z"/><path class="cls-2" d="M112.32,99.62c.93,1.9,56.12,27.82,32,89"/><path class="cls-25" d="M49,179.1s2.24-13,17.63-14.85C66.63,164.24,52.07,170.73,49,179.1Z"/><path class="cls-25" d="M91.32,196.82S86,208.9,70.62,207C70.62,207,86.31,204.19,91.32,196.82Z"/><path class="cls-25" d="M212,166.93s11.18,7,7,22C219,188.88,218.57,173,212,166.93Z"/><path class="cls-25" d="M178.08,201.27s-10.89-7.46-6.15-22.22C171.94,179.06,171.76,195,178.08,201.27Z"/><path class="cls-4" d="M133.22,79.06S173.77,113,201,104.46"/><path class="cls-26" d="M170.52,85.11l0,0c.08-.2.15-.4.22-.6l-1.34-1.83c0-.06,0-.12,0-.19-.45-4.18.24-8.38-.2-12.54a6,6,0,0,1,4.74-6.82,5.73,5.73,0,0,1,2.33.08,7.18,7.18,0,0,0,1.74-4s2.37-7.53,1.7-12.62c.2-7-1.92-19.23-17.58-25.59-22.79-9.26-30.41,17.89-30.41,17.89l.43,12-3.89-6.47,2.71,8.85a69.89,69.89,0,0,0-4.11,11.23c-1.38,3.73-5.46,18.61,13,27.82,0,0,6.92,11.49,16.15,4.63,0,0,11-2.82,14.5-11.81Z"/><polygon class="cls-27" points="171.76 82.41 159.06 74.36 170.72 84.48 171.76 82.41"/><ellipse class="cls-28" cx="159.45" cy="56.8" rx="6.56" ry="8.2" transform="translate(45.04 181.53) rotate(-67.08)"/><path class="cls-29" d="M182,64.86c-1,2.38-4,3.47-6.88,2.44s-4.34-3.8-3.38-6.17,4-3.47,6.87-2.44S183,62.48,182,64.86Z"/><ellipse class="cls-10" cx="176.93" cy="62.92" rx="4.32" ry="4.44" transform="translate(54.62 205.41) rotate(-68.94)"/><path class="cls-27" d="M172.46,64.2A4.49,4.49,0,0,1,175,58.71a4.76,4.76,0,0,1,6.39,2.93,4.46,4.46,0,0,1-.09,3,4.64,4.64,0,0,1-6,2.58A4.7,4.7,0,0,1,172.46,64.2Zm8.45-2.41a4.26,4.26,0,0,0-5.72-2.62,4,4,0,0,0-2.26,4.88,4.2,4.2,0,0,0,2.52,2.67,4.14,4.14,0,0,0,5.37-2.3A4,4,0,0,0,180.92,61.79Z"/><path class="cls-27" d="M151.21,50.3l-.06-.49c6.36-.77,10.83.17,13.3,2.79a7.74,7.74,0,0,1,1.92,6.3l-.49-.09a7.37,7.37,0,0,0-1.8-5.87C161.73,50.44,157.4,49.55,151.21,50.3Z"/><path class="cls-27" d="M128.62,59a7.36,7.36,0,0,0,3.83-1.08,5.83,5.83,0,0,1-4.31,2.61Z"/><ellipse class="cls-10" cx="160.22" cy="56.9" rx="5.72" ry="6.2" transform="translate(45.42 182.32) rotate(-67.08)"/><path class="cls-30" d="M158,62.17a6.45,6.45,0,0,1-3.3-3.08,5.38,5.38,0,0,1,.28-3.33,6,6,0,0,1,7.94-2.86,6.45,6.45,0,0,1,3.3,3.08,5.38,5.38,0,0,1-.28,3.33A6,6,0,0,1,158,62.17Z"/><path class="cls-27" d="M154.11,58.32h0a5.64,5.64,0,0,1,.17-3.93,5.72,5.72,0,0,1,3.39-3.16,6.8,6.8,0,0,1,8.66,4.25,5.64,5.64,0,0,1-.17,3.93,6.23,6.23,0,0,1-8.27,3A6.61,6.61,0,0,1,154.11,58.32Zm11.75-2.69a6.3,6.3,0,0,0-8-3.93,5.23,5.23,0,0,0-3.1,2.88,5.15,5.15,0,0,0-.15,3.59h0a6.12,6.12,0,0,0,3.5,3.77,5.74,5.74,0,0,0,7.61-2.72A5.15,5.15,0,0,0,165.86,55.63Z"/><circle cx="164.12" cy="57.88" r="1.48" transform="translate(49.01 188.4) rotate(-68.02)"/><circle cx="179.05" cy="62.7" r="0.98" transform="translate(53.93 205.31) rotate(-68.04)"/><path class="cls-29" d="M166.2,62.22s17.77-5.62,7,21.24c-.11.27-15.89-10.34-15.89-10.34"/><path class="cls-31" d="M151.62,42.79S172,34.46,167.89,56.37C167.89,56.37,166.66,41.9,151.62,42.79Z"/><path class="cls-31" d="M173.05,58.22s9.14-10,13.45,3C186.5,61.2,181.39,53.68,173.05,58.22Z"/><path class="cls-31" d="M131.79,53.58l6.6,2.49a27.74,27.74,0,0,1-.07-8.8c.56-3.26,2.68-5.79,4.6-8.37a29.84,29.84,0,0,0,4.69-9.17c.94-3.09,1.76-8-2.65-8.57-6.5-.91-10.5,9-12.94,13.51-.11.2-1,1.43-.87,1.69C131.15,36.37,131.79,53.58,131.79,53.58Z"/><path class="cls-32" d="M136.49,42.79s0-7.38-7.92-6.9c-9.81.6-.17,11.12-.17,11.12s3,3.37-.57,5.78-4.41,3.6-3.29,4.88,4.72,2,6.17.11C137,49.65,136.49,42.79,136.49,42.79Z"/><path class="cls-27" d="M133.07,48.9s1.34-14.13-4.22-5.7C128.85,43.2,133.05,39.17,133.07,48.9Z"/><path class="cls-27" d="M133.09,49s-.51-7.73-3.46.07C129.64,49,132.06,44.34,133.09,49Z"/><path class="cls-27" d="M148.57,56.93l.33-.37c5.3,4.81,9.07,5.9,11.3,6a5.25,5.25,0,0,0,3.57-1l.34.36C163.92,62.07,159,66.44,148.57,56.93Z"/><path class="cls-27" d="M169.19,53.76v0a.12.12,0,0,1,.11-.13,2.07,2.07,0,0,0,1.72-.85A3.58,3.58,0,0,0,171,50a.12.12,0,0,1,.07-.16.12.12,0,0,1,.16.07,3.75,3.75,0,0,1,0,2.94,2.29,2.29,0,0,1-1.91,1A.12.12,0,0,1,169.19,53.76Z"/><path class="cls-27" d="M173,55.18a3.73,3.73,0,0,1,.23-2.93,2.29,2.29,0,0,1,2-.83.12.12,0,0,1,0,.24,2.07,2.07,0,0,0-1.78.73,3.57,3.57,0,0,0-.19,2.71h0a.12.12,0,0,1-.23.07Z"/><path class="cls-33" d="M141.23,63.53s-10.51,1.61-6.13,11.62c3,6.76,13.94,9,13.94,9S135.83,76.78,141.23,63.53Z"/><path class="cls-34" d="M149,84.14s-11.72-6.53-8.57-18.38c-1.37.11-6.19.85-3.25,5.7,0,0-2.23-.18-2.9,1.44a14.52,14.52,0,0,0,.77,2.25C138.06,81.91,149,84.14,149,84.14Z"/><path class="cls-33" d="M138.73,62.18s4.64-2.32,4.84,4.08A4.35,4.35,0,0,0,138.73,62.18Z"/><path class="cls-33" d="M146.51,82.51a17.07,17.07,0,0,1-6.25-8.14,14.84,14.84,0,0,1,1.2-11.7L142,63a14.46,14.46,0,0,0-1.14,11.18c1.71,5.09,6.54,9.24,14.37,12.33l-.23.58A36.09,36.09,0,0,1,146.51,82.51Z"/><path class="cls-29" d="M200.28,105.34c-1.58-.51-6-5.91-3.29-6.52,2.1-.4,3.51,4.2,4,5.64l.2-.07A13.73,13.73,0,0,1,204,103.3c1.51-.38,9-1.41,9.84.56,1.2,2.61-8.33,1.89-9.87,1.78,2.5.24,6.57,2.47,6.77,5.23-2.36,1.63-6.3-3.7-7.54-5.34.52,1.15,2.52,5,0,4.5-1.32-.28-1.93-2.22-2.27-3.34"/><path class="cls-31" d="M159.17,21.9s-7.47-11.53-21.2-7C138,14.85,155.06,16.53,159.17,21.9Z"/><path class="cls-31" d="M165,25.18s-3.23-13.36-17.67-13.67C147.34,11.51,162.91,18.75,165,25.18Z"/></g></g></svg>