<svg width="32" height="32" viewBox="0 0 32 32" xmlns="http://www.w3.org/2000/svg" xmlns:xlink="http://www.w3.org/1999/xlink"><title>Compress 2</title><defs><path d="M12.927 5.522l-4.855 5.294c-.015.022-.01.051-.03.071a.418.418 0 0 1-.318.12.419.419 0 0 1-.315-.12c-.02-.02-.014-.048-.03-.07L2.525 5.523a.423.423 0 0 1 .598-.599l4.603 5.02 4.604-5.02a.422.422 0 1 1 .598.598z" id="a"/></defs><g fill="none" fill-rule="evenodd"><circle fill="#E5E5E5" fill-rule="nonzero" cx="16" cy="16" r="16"/><use fill="#000" transform="matrix(1 0 0 -1 8 23.808)" xlink:href="#a"/></g></svg>