<svg xmlns="http://www.w3.org/2000/svg" viewBox="1754 1520 16 16">
  <g id="chopsticksWhite" transform="translate(1562 1439)">
    <path id="Fill1" fill="#ccc" d="M205.007,90.242H192.491l.823,3.3,2.3,2.084,2.855.942,3.752-.942,2.032-2.084Z"/>
    <path id="Fill2" fill="#767676" d="M201.338,90.242c-.315,3.877-3.035,5.681-4.732,5.836.143.06,2.141.384,2.141.384l3.238-.65L204,93.848l1.077-2.289.13-1.316Z"/>
    <path id="Contour" fill="#fff" d="M15.77-11.168a.505.505,0,0,1-.156.37.505.505,0,0,1-.37.156H6.308v3.113h6.834a.505.505,0,0,1,.37.156.505.505,0,0,1,.156.37,6.784,6.784,0,0,1-.242,1.819,6.758,6.758,0,0,1-.69,1.634,6.888,6.888,0,0,1-1.068,1.38A6.888,6.888,0,0,1,10.287-1.1a6.758,6.758,0,0,1-1.634.69A6.784,6.784,0,0,1,6.834-.17,6.784,6.784,0,0,1,5.014-.412,6.758,6.758,0,0,1,3.38-1.1,6.888,6.888,0,0,1,2-2.17,6.888,6.888,0,0,1,.932-3.55a6.758,6.758,0,0,1-.69-1.634A6.784,6.784,0,0,1,0-7a.505.505,0,0,1,.156-.37.505.505,0,0,1,.37-.156H5.257v-3.113H4.205v1.536a.505.505,0,0,1-.156.37.505.505,0,0,1-.37.156.505.505,0,0,1-.37-.156.505.505,0,0,1-.156-.37v-1.536H1.577a.505.505,0,0,1-.37-.156.505.505,0,0,1-.156-.37.505.505,0,0,1,.156-.37.505.505,0,0,1,.37-.156H3.154v-1.281l-.329.066q-.205.041-.427.082t-.423.074a2.069,2.069,0,0,1-.308.033.505.505,0,0,1-.37-.156.505.505,0,0,1-.156-.37.511.511,0,0,1,.123-.337.508.508,0,0,1,.312-.181l13.626-2.4a.39.39,0,0,1,.09-.008.505.505,0,0,1,.37.156.505.505,0,0,1,.156.37.511.511,0,0,1-.123.337.508.508,0,0,1-.312.181l-9.076,1.6v1.832h8.936a.505.505,0,0,1,.37.156A.505.505,0,0,1,15.77-11.168ZM6.834-1.221a5.632,5.632,0,0,0,2.119-.4,5.865,5.865,0,0,0,1.778-1.109A5.829,5.829,0,0,0,12-4.4a5.584,5.584,0,0,0,.591-2.078H1.076A5.584,5.584,0,0,0,1.667-4.4,5.829,5.829,0,0,0,2.936-2.733,5.865,5.865,0,0,0,4.715-1.624,5.632,5.632,0,0,0,6.834-1.221ZM4.205-11.694H5.257v-1.651l-1.051.189Z" transform="translate(192 97.17)"/>
  </g>
</svg>
