<svg xmlns="http://www.w3.org/2000/svg" viewBox="1634 1592 16 16">
  <g id="classBlack" transform="translate(1442 1511)">
    <path id="Fill1" fill="#767676" d="M195.558,91.419,200,93.691l4.7-2.416-.228-1.459-.822-1.611L200,90.024l-4-1.818-.442,2.021Z"/>
    <path id="Fill2" fill="#767676" d="M193.269,86.69,200,90.153l6.911-3.463L200,83.255Z"/>
    <path id="Fill3" fill="#ffb900" d="M192.493,95.64h2.09V93.264l-1.132-.818-.958.958Z"/>
    <path id="Contour" d="M12.359-8.523a4.838,4.838,0,0,1,.48,1.176A4.942,4.942,0,0,1,13-6.094v.8L8-2.781,3-5.289q0-.469.012-.875a6.55,6.55,0,0,1,.07-.793,4.437,4.437,0,0,1,.188-.766,4.6,4.6,0,0,1,.371-.8L2-9.344v4.586a1.443,1.443,0,0,1,.41.219,1.512,1.512,0,0,1,.316.328,1.472,1.472,0,0,1,.2.41A1.509,1.509,0,0,1,3-3.344v2.5H0v-2.5A1.509,1.509,0,0,1,.07-3.8a1.472,1.472,0,0,1,.2-.41A1.512,1.512,0,0,1,.59-4.539,1.443,1.443,0,0,1,1-4.758V-9.844l-1-.5,8-4,8,4ZM2-3.344A.481.481,0,0,0,1.852-3.7.481.481,0,0,0,1.5-3.844a.481.481,0,0,0-.352.148A.481.481,0,0,0,1-3.344v1.5H2Zm.234-7L8-7.461l5.766-2.883L8-13.227ZM12-5.906a5.09,5.09,0,0,0-.117-1.121,3.932,3.932,0,0,0-.414-1.051L8-6.344,4.531-8.078a4.1,4.1,0,0,0-.395.957A3.906,3.906,0,0,0,4-6.094v.188l4,2Z" transform="translate(192 97)"/>
  </g>
</svg>
