<?xml version="1.0" encoding="utf-8"?>
<!-- Generator: Adobe Illustrator 21.0.0, SVG Export Plug-In . SVG Version: 6.00 Build 0)  -->
<svg version="1.1" id="Layer_1" xmlns="http://www.w3.org/2000/svg" xmlns:xlink="http://www.w3.org/1999/xlink" x="0px" y="0px"
	 width="231.1px" height="36px" viewBox="0 0 231.1 36" style="enable-background:new 0 0 231.1 36;" xml:space="preserve">
<style type="text/css">
	.st0{fill:#2E39BF;}
	.st1{fill:#FFFFFF;}
	.st2{fill:none;stroke:#2E39BF;stroke-miterlimit:10;}
</style>
<path class="st0" d="M69.2,14.1c-3,0-4.4,2.2-4.4,4.3s1.3,4.3,4.4,4.3c1.1,0,2.3-0.5,3.2-1.3l1.3,1.3c-1.2,1.2-2.8,1.7-4.5,1.7
	c-4.3,0-6.3-2.9-6.3-6s2-6.1,6.3-6.1c1.6,0,3.1,0.6,4.4,1.8l-1.3,1.2C71.4,14.4,70.3,14.1,69.2,14.1L69.2,14.1z"/>
<polygon class="st0" points="74.8,24.1 74.8,12.4 76.7,12.4 76.7,22.4 83,22.4 83,24.1 "/>
<path class="st0" d="M90.3,24.4c-4.1,0-6.1-3-6.1-6c0-3.6,2.6-6.1,6.1-6.1c4.1,0,6.1,2.9,6.1,6.1C96.4,21.5,94.4,24.4,90.3,24.4
	L90.3,24.4z"/>
<path class="st1" d="M90.3,14c-2.7,0-4.3,1.9-4.3,4.4c0,2.1,1.3,4.3,4.2,4.3c3,0,4.2-2.1,4.2-4.3C94.5,16.2,93.2,14,90.3,14L90.3,14
	z"/>
<path class="st0" d="M102.6,24.4c-2.7-0.1-4.9-1.7-4.9-5.1v-6.8h1.9v6.8c0,2.1,1.3,3.3,3,3.3c1.9,0.1,3.3-1.1,3.3-3.3v-6.8h1.9v6.8
	C107.8,22.8,105.5,24.5,102.6,24.4L102.6,24.4z"/>
<path class="st0" d="M114.1,24.1c-1.4,0-3.1,0-4.5,0V12.4h4.5c4.1,0,5.9,2.9,6,5.7C120.1,21.1,118.2,24.1,114.1,24.1L114.1,24.1z"/>
<path class="st1" d="M114.1,14.2h-2.6v8.1h2.6c2.9,0,4.1-2.1,4.1-4.2C118.2,16.2,116.9,14.2,114.1,14.2L114.1,14.2z"/>
<polygon class="st0" points="134,24.2 132.3,24.2 130.7,20 129.4,16.1 128.1,20.1 126.6,24.2 124.9,24.2 120.6,12.5 122.7,12.5 
	125.7,21.5 128.8,12.5 130,12.5 133.2,21.5 136.2,12.5 138.3,12.5 "/>
<polygon class="st0" points="148.6,24.2 147.5,21.7 141,21.7 139.9,24.2 137.9,24.2 143.2,12.5 145.3,12.5 150.6,24.2 "/>
<polygon class="st1" points="144.2,14.4 141.7,20 146.8,20 "/>
<polygon class="st0" points="155.9,19.4 155.9,24.1 154,24.1 154,19.4 149.4,12.5 149.4,12.4 151.7,12.4 154.9,17.6 158.3,12.4 
	160.6,12.4 160.6,12.5 "/>
<path class="st0" d="M166.3,13.8c-1.6,0-2.7,0.6-2.7,1.8c0,1.1,1.3,1.4,2.9,1.7c2.4,0.3,4.8,1,4.8,3.6s-2.4,3.6-5,3.6
	c-2.3,0-4-0.7-5.1-2.7l1.4-1c0.8,1.4,2.3,1.9,3.7,1.9s3-0.5,3-1.9c0-1.3-1.4-1.7-3.1-1.9c-2.4-0.3-4.6-0.9-4.6-3.4
	c0-2.4,2.4-3.3,4.6-3.3c1.7,0,3.4,0.4,4.4,2l-1.5,1C168.7,14.3,167.6,13.8,166.3,13.8L166.3,13.8z"/>
<path class="st0" d="M39.6,27.2c-6.8,0-12.2-5.4-12.2-12s5.5-12,12.2-12c6.8,0,12.2,5.4,12.2,12S46.3,27.2,39.6,27.2L39.6,27.2z"/>
<path class="st0" d="M48.5,33.3c-5.9,0-10.6-4.7-10.6-10.5s4.8-10.5,10.6-10.5c5.9,0,10.6,4.7,10.6,10.5
	C59.2,28.7,54.4,33.3,48.5,33.3L48.5,33.3z"/>
<path class="st0" d="M30.7,33.3c-5.9,0-10.6-4.7-10.6-10.5s4.8-10.5,10.6-10.5c5.9,0,10.6,4.7,10.6,10.5
	C41.4,28.7,36.6,33.3,30.7,33.3L30.7,33.3z"/>
<polygon class="st0" points="30.7,33.4 30.7,25 48.5,25 48.5,33.4 "/>
<path class="st0" d="M15.7,26.8h-10c-0.5,0-0.8-0.3-0.8-0.8v-1.1c0-0.4,0.3-0.8,0.8-0.8h10c0.5,0,0.8,0.3,0.8,0.8V26
	C16.5,26.4,16.2,26.8,15.7,26.8L15.7,26.8z"/>
<path class="st0" d="M29,27H18.7c-0.5,0-0.8-0.3-0.8-0.8V25c0-0.5,0.3-0.8,0.8-0.8H29c0.5,0,0.8,0.3,0.8,0.8v1.2
	C29.8,26.6,29.4,27,29,27L29,27z"/>
<path class="st0" d="M40,33.4H11.4c-0.8,0-1.4-0.6-1.4-1.4c0-0.8,0.7-1.4,1.4-1.4H40c0.8,0,1.4,0.6,1.4,1.4
	C41.4,32.7,40.8,33.4,40,33.4L40,33.4z"/>
<path class="st0" d="M31.2,20.6H2.6c-0.8,0-1.4-0.6-1.4-1.4s0.7-1.4,1.4-1.4h28.6c0.8,0,1.4,0.6,1.4,1.4
	C32.6,20,31.9,20.6,31.2,20.6L31.2,20.6z"/>
<path class="st0" d="M38.8,14.2H10.3c-0.8,0-1.4-0.6-1.4-1.4c0-0.8,0.7-1.4,1.4-1.4h28.6c0.8,0,1.4,0.6,1.4,1.4
	C40.3,13.6,39.6,14.2,38.8,14.2L38.8,14.2z"/>
<path class="st0" d="M41.6,7.8H13c-0.8,0-1.4-0.6-1.4-1.4C11.6,5.7,12.2,5,13,5h28.6C42.3,5,43,5.7,43,6.4C43,7.2,42.3,7.8,41.6,7.8
	L41.6,7.8z"/>
<line class="st2" x1="183.1" y1="8.8" x2="183.1" y2="29.1"/>
<g>
	<path class="st0" d="M193.6,22.7v-10h4.9c1.9,0,2.8,1.2,2.8,2.6c0,1.3-0.8,2.1-1.7,2.3c1,0.1,2,1.3,2,2.4c0,1.5-1,2.7-2.9,2.7
		C198.6,22.7,193.6,22.7,193.6,22.7z M199.5,15.6c0-0.7-0.5-1.3-1.4-1.3h-2.8v2.6h2.8C199.1,16.9,199.5,16.3,199.5,15.6z
		 M199.8,19.8c0-0.7-0.6-1.4-1.5-1.4h-2.9v2.8h2.9C199.2,21.2,199.8,20.6,199.8,19.8z"/>
	<path class="st0" d="M203.2,22.7v-10h1.6v10H203.2z"/>
	<path class="st0" d="M206.4,19.1c0-2.1,1.4-3.8,3.7-3.8s3.7,1.7,3.7,3.8s-1.4,3.8-3.7,3.8S206.4,21.2,206.4,19.1z M212.2,19.1
		c0-1.3-0.7-2.4-2.1-2.4c-1.3,0-2.1,1.2-2.1,2.4c0,1.3,0.7,2.4,2.1,2.4S212.2,20.4,212.2,19.1z"/>
	<path class="st0" d="M215.4,24.6l0.7-1.2c0.6,0.7,1.4,0.9,2.3,0.9c1,0,2.1-0.5,2.1-2v-0.8c-0.6,0.7-1.4,1.2-2.3,1.2
		c-1.9,0-3.3-1.3-3.3-3.7c0-2.3,1.3-3.7,3.3-3.7c0.9,0,1.7,0.3,2.3,1.2v-0.9h1.6v6.9c0,2.6-2,3.3-3.7,3.3
		C217.2,25.7,216.3,25.4,215.4,24.6z M220.6,20.4v-2.7c-0.3-0.6-1.2-0.9-1.9-0.9c-1.3,0-2.1,0.9-2.1,2.3c0,1.4,0.8,2.3,2.1,2.3
		C219.4,21.3,220.3,21,220.6,20.4z"/>
</g>
</svg>
