<?xml version="1.0" encoding="utf-8"?>
<!-- Generator: Adobe Illustrator 13.0.2, SVG Export Plug-In . SVG Version: 6.00 Build 14948)  -->
<!DOCTYPE svg PUBLIC "-//W3C//DTD SVG 1.1//EN" "http://www.w3.org/Graphics/SVG/1.1/DTD/svg11.dtd">
<svg version="1.1" id="Layer_1" xmlns="http://www.w3.org/2000/svg" xmlns:xlink="http://www.w3.org/1999/xlink" x="0px" y="0px"
	 width="40px" height="30.381px" viewBox="0 0 40 30.381" enable-background="new 0 0 40 30.381" xml:space="preserve">
<path fill="#404041" d="M35.252,0H4.748C2.129,0,0,2.045,0,4.559v21.265c0,2.513,2.129,4.558,4.748,4.558h30.504
	c2.619,0,4.748-2.045,4.748-4.558V4.559C40,2.045,37.871,0,35.252,0z M35.252,26.355H4.748c-0.385,0-0.723-0.249-0.723-0.532V7.371
	l13.796,11.647c1.263,1.264,3.031,1.326,4.356,0L35.975,7.37v18.453C35.975,26.106,35.637,26.355,35.252,26.355z M20,15.393
	L6.581,4.025h26.837L20,15.393z"/>
</svg>
