<?xml version="1.0" encoding="utf-8"?>
<!-- Generator: Adobe Illustrator 13.0.2, SVG Export Plug-In . SVG Version: 6.00 Build 14948)  -->
<!DOCTYPE svg PUBLIC "-//W3C//DTD SVG 1.1//EN" "http://www.w3.org/Graphics/SVG/1.1/DTD/svg11.dtd">
<svg version="1.1" id="Layer_1" xmlns="http://www.w3.org/2000/svg" xmlns:xlink="http://www.w3.org/1999/xlink" x="0px" y="0px"
	 width="18.664px" height="40px" viewBox="0 0 18.664 40" enable-background="new 0 0 18.664 40" xml:space="preserve">
<g>
	<path id="Facebook" fill="#404041" d="M4.034,7.748c0,1.007,0,5.508,0,5.508H0v6.731h4.034V40h8.287V19.988h5.562
		c0,0,0.523-3.228,0.773-6.76c-0.723,0-6.303,0-6.303,0s0-3.915,0-4.604c0-0.687,0.904-1.612,1.797-1.612c0.891,0,2.773,0,4.514,0
		c0-0.917,0-4.086,0-7.012c-2.323,0-4.974,0-6.141,0C3.828,0,4.034,6.739,4.034,7.748z"/>
</g>
</svg>
