<?xml version="1.0" encoding="utf-8"?>
<!-- Generator: Adobe Illustrator 13.0.2, SVG Export Plug-In . SVG Version: 6.00 Build 14948)  -->
<!DOCTYPE svg PUBLIC "-//W3C//DTD SVG 1.1//EN" "http://www.w3.org/Graphics/SVG/1.1/DTD/svg11.dtd">
<svg version="1.1" id="Layer_1" xmlns="http://www.w3.org/2000/svg" xmlns:xlink="http://www.w3.org/1999/xlink" x="0px" y="0px"
	 width="41.857px" height="40px" viewBox="0 0 41.857 40" enable-background="new 0 0 41.857 40" xml:space="preserve">
<g>
	<path id="LinkedIn" fill="#404041" d="M41.857,24.522V40h-8.97V25.563c0-3.629-1.3-6.105-4.549-6.105
		c-2.474,0-3.952,1.666-4.602,3.283c-0.237,0.574-0.294,1.381-0.294,2.188V40h-8.979c0,0,0.118-24.457,0-26.99h8.978v3.826
		c-0.022,0.025-0.043,0.059-0.064,0.088h0.064v-0.088c1.188-1.837,3.322-4.462,8.088-4.462
		C37.434,12.374,41.857,16.231,41.857,24.522z M5.079,0C2.003,0,0,2.012,0,4.665c0,2.584,1.95,4.66,4.96,4.66h0.055
		c3.131,0,5.076-2.075,5.076-4.66C10.036,2.012,8.146,0,5.079,0z M0.53,40h8.972v-26.99H0.53V40z"/>
</g>
</svg>
