<?xml version="1.0" encoding="UTF-8"?>
<svg width="56px" height="56px" viewBox="0 0 56 56" version="1.1" xmlns="http://www.w3.org/2000/svg" xmlns:xlink="http://www.w3.org/1999/xlink">
    <!-- Generator: Sketch 64 (93537) - https://sketch.com -->
    <title>编组 2</title>
    <desc>Created with Sketch.</desc>
    <defs>
        <rect id="path-1" x="0" y="0" width="32.4153846" height="38.9583333" rx="4"></rect>
    </defs>
    <g id="李思琪--pdf新建页面-新增编辑入口" stroke="none" stroke-width="1" fill="none" fill-rule="evenodd">
        <g id="924优化" transform="translate(-791.000000, -248.000000)">
            <g id="编组-2备份-6" transform="translate(703.000000, 229.000000)">
                <g id="编组-2" transform="translate(88.000000, 19.000000)">
                    <g>
                        <rect id="矩形" fill-opacity="0" fill="#FFFFFF" x="0" y="0" width="56" height="56"></rect>
                        <g id="pdf_new_blank_file" transform="translate(4.000000, 0.000000)">
                            <g id="分组-2">
                                <path d="M2.64615385,0 L31.7538462,0 L43,12.0487596 L43,48.1666667 C43,49.7314735 41.8152766,51 40.3538462,51 L2.64615385,51 C1.18472343,51 0,49.7314735 0,48.1666667 L0,2.83333333 C0,1.26852654 1.18472343,0 2.64615385,0 Z" id="矩形" fill="#FFF3F3" fill-rule="nonzero"></path>
                                <path d="M31.4797139,0.708333333 L2.64615385,0.708333333 C1.55008103,0.708333333 0.661538462,1.65972824 0.661538462,2.83333333 L0.661538462,48.1666667 C0.661538462,49.3402717 1.55008103,50.2916667 2.64615385,50.2916667 L40.3538462,50.2916667 C41.4499189,50.2916667 42.3384615,49.3402717 42.3384615,48.1666667 L42.3384615,12.3420387 L31.4797139,0.708333333 Z M2.64615385,0 L31.7538462,0 L43,12.0487596 L43,48.1666667 C43,49.7314735 41.8152766,51 40.3538462,51 L2.64615385,51 C1.18472343,51 0,49.7314735 0,48.1666667 L0,2.83333333 C0,1.26852654 1.18472343,0 2.64615385,0 Z" id="矩形" fill="#EB5E5E" fill-rule="nonzero"></path>
                                <g id="矩形" opacity="0.774925595" stroke-dasharray="3" transform="translate(5.292308, 6.375000)">
                                    <g id="path-1-Clipped">
                                        <mask id="mask-2" fill="white">
                                            <use xlink:href="#path-1"></use>
                                        </mask>
                                        <g id="path-1"></g>
                                        <path d="M4,0 L28.4153846,0 C30.6245236,1.55629733e-15 32.4153846,1.790861 32.4153846,4 L32.4153846,34.9583333 C32.4153846,37.1674723 30.6245236,38.9583333 28.4153846,38.9583333 L4,38.9583333 C1.790861,38.9583333 4.19476067e-15,37.1674723 0,34.9583333 L0,4 C-2.705415e-16,1.790861 1.790861,2.18216909e-15 4,0 Z" id="path-1" stroke="#FBADAD" stroke-width="2" fill="#FFFFFF" fill-rule="nonzero" mask="url(#mask-2)"></path>
                                    </g>
                                </g>
                                <path d="M31.7538462,0 L43,12.0416667 L34.4,12.0416667 C32.9385696,12.0416667 31.7538462,10.7731401 31.7538462,9.20833333 L31.7538462,0 Z" id="矩形" fill="#FFFFFF" fill-rule="nonzero"></path>
                                <path d="M32.4153846,9.20833333 C32.4153846,10.3819384 33.3039272,11.3333333 34.4,11.3333333 L41.4029048,11.3333333 L32.4153846,1.71006794 L32.4153846,9.20833333 Z M31.7538462,0 L43,12.0416667 L34.4,12.0416667 C32.9385696,12.0416667 31.7538462,10.7731401 31.7538462,9.20833333 L31.7538462,0 Z" id="矩形" fill="#EB5E5E" fill-rule="nonzero"></path>
                            </g>
                            <g id="分组-3" transform="translate(29.000000, 35.000000)" fill-rule="nonzero">
                                <path d="M9.5,20 C4.25329487,20 0,15.5228475 0,10 C0,4.4771525 4.25329487,0 9.5,0 C14.7467051,0 19,4.4771525 19,10 C19,15.5228475 14.7467051,20 9.5,20 Z" id="路径" fill="#FFFFFF"></path>
                                <path d="M9.5,19.2857143 C14.3719404,19.2857143 18.3214286,15.1283584 18.3214286,10 C18.3214286,4.87164161 14.3719404,0.714285714 9.5,0.714285714 C4.62805953,0.714285714 0.678571429,4.87164161 0.678571429,10 C0.678571429,15.1283584 4.62805953,19.2857143 9.5,19.2857143 Z M9.5,20 C4.25329487,20 0,15.5228475 0,10 C0,4.4771525 4.25329487,0 9.5,0 C14.7467051,0 19,4.4771525 19,10 C19,15.5228475 14.7467051,20 9.5,20 Z" id="椭圆形" fill="#EB5E5E"></path>
                                <path d="M8.81824166,9.28975129 L8.81824166,4.99443719 C8.81824166,4.60302034 9.11968243,4.28571429 9.49152844,4.28571429 C9.86337439,4.28571429 10.1648152,4.60302034 10.1648152,4.99443719 L10.1648152,9.28975129 L14.2552846,9.28975129 C14.6271307,9.28975129 14.9285714,9.60705736 14.9285714,9.99847414 C14.9285714,10.389891 14.6271307,10.7071971 14.2552846,10.7071971 L10.1648152,10.7071971 L10.1648152,15.0055628 C10.1648152,15.3969796 9.86337439,15.7142857 9.49152844,15.7142857 C9.11968243,15.7142857 8.81824166,15.3969796 8.81824166,15.0055628 L8.81824166,10.7071971 L4.74471533,10.7071971 C4.37286932,10.7071971 4.07142857,10.389891 4.07142857,9.99847414 C4.07142857,9.60705736 4.37286932,9.28975129 4.74471533,9.28975129 L8.81824166,9.28975129 Z" id="合并形状" fill="#EB5E5E"></path>
                            </g>
                        </g>
                    </g>
                </g>
            </g>
        </g>
    </g>
</svg>