<?xml version="1.0" encoding="UTF-8"?>
<svg width="56px" height="56px" viewBox="0 0 56 56" version="1.1" xmlns="http://www.w3.org/2000/svg" xmlns:xlink="http://www.w3.org/1999/xlink">
    <!-- Generator: Sketch 64 (93537) - https://sketch.com -->
    <title>创建pdf</title>
    <desc>Created with Sketch.</desc>
    <g id="李思琪--pdf新建页面-新增编辑入口" stroke="none" stroke-width="1" fill="none" fill-rule="evenodd">
        <g id="924优化" transform="translate(-288.000000, -249.000000)">
            <g id="编组-2备份-4" transform="translate(201.000000, 229.000000)">
                <g id="创建pdf" transform="translate(87.000000, 20.000000)">
                    <g id="编组-2">
                        <rect id="矩形" fill-opacity="0" fill="#FFFFFF" x="0" y="0" width="56" height="56"></rect>
                        <g id="pdf_new_file" transform="translate(4.000000, 1.000000)" fill-rule="nonzero">
                            <g id="底">
                                <path d="M2.77777778,-7.81597009e-14 L33.3333333,-7.81597009e-14 L45.1388889,11.8125094 L45.1388889,47.2222222 C45.1388889,48.7563465 43.8952354,50 42.3611111,50 L2.77777778,50 C1.24365347,50 -9.9475983e-14,48.7563465 -9.9475983e-14,47.2222222 L-9.9475983e-14,2.77777778 C-9.9475983e-14,1.24365347 1.24365347,-7.81597009e-14 2.77777778,-7.81597009e-14 Z" id="矩形" fill="#FFF3F3"></path>
                                <path d="M44.4444444,12.1000379 L33.0455653,0.694444444 L2.77777778,0.694444444 C1.62718455,0.694444444 0.694444444,1.62718455 0.694444444,2.77777778 L0.694444444,47.2222222 C0.694444444,48.3728154 1.62718455,49.3055556 2.77777778,49.3055556 L42.3611111,49.3055556 C43.5117043,49.3055556 44.4444444,48.3728154 44.4444444,47.2222222 L44.4444444,12.1000379 Z M2.77777778,-8.52651283e-14 L33.3333333,-8.52651283e-14 L45.1388889,11.8125094 L45.1388889,47.2222222 C45.1388889,48.7563465 43.8952354,50 42.3611111,50 L2.77777778,50 C1.24365347,50 -9.9475983e-14,48.7563465 -9.9475983e-14,47.2222222 L-9.9475983e-14,2.77777778 C-9.9475983e-14,1.24365347 1.24365347,-8.52651283e-14 2.77777778,-8.52651283e-14 Z" id="矩形" fill="#EB5E5E"></path>
                                <path d="M33.3333333,0 L45.1388889,11.8055556 L36.1111111,11.8055556 C34.5769868,11.8055556 33.3333333,10.5619021 33.3333333,9.02777778 L33.3333333,0 Z" id="矩形" fill="#FFFFFF"></path>
                                <path d="M34.0277778,9.02777778 C34.0277778,10.178371 34.9605179,11.1111111 36.1111111,11.1111111 L43.4623517,11.1111111 L34.0277778,1.67653719 L34.0277778,9.02777778 Z M33.3333333,0 L45.1388889,11.8055556 L36.1111111,11.8055556 C34.5769868,11.8055556 33.3333333,10.5619021 33.3333333,9.02777778 L33.3333333,0 Z" id="矩形" fill="#EB5E5E"></path>
                                <path d="M11.1111111,16.6666667 L34.7222222,16.6666667 L34.7222222,18.0555556 L11.1111111,18.0555556 L11.1111111,16.6666667 Z M11.1111111,23.6111111 L34.7222222,23.6111111 L34.7222222,25 L11.1111111,25 L11.1111111,23.6111111 Z M11.1111111,30.5555556 L25.0289577,30.5555556 L25.0289577,31.9444444 L11.1111111,31.9444444 L11.1111111,30.5555556 Z" id="合并形状" fill="#EB5E5E" opacity="0.795224144"></path>
                            </g>
                            <g id="➕" transform="translate(30.555556, 34.722222)">
                                <path d="M9.72222222,19.4444444 C4.35278715,19.4444444 0,15.0916573 0,9.72222222 C0,4.35278715 4.35278715,0 9.72222222,0 C15.0916573,0 19.4444444,4.35278715 19.4444444,9.72222222 C19.4444444,15.0916573 15.0916573,19.4444444 9.72222222,19.4444444 Z" id="路径" fill="#FFFFFF"></path>
                                <path d="M9.72222222,18.75 C14.7081262,18.75 18.75,14.7081262 18.75,9.72222222 C18.75,4.73631823 14.7081262,0.694444444 9.72222222,0.694444444 C4.73631823,0.694444444 0.694444444,4.73631823 0.694444444,9.72222222 C0.694444444,14.7081262 4.73631823,18.75 9.72222222,18.75 Z M9.72222222,19.4444444 C4.35278715,19.4444444 0,15.0916573 0,9.72222222 C0,4.35278715 4.35278715,0 9.72222222,0 C15.0916573,0 19.4444444,4.35278715 19.4444444,9.72222222 C19.4444444,15.0916573 15.0916573,19.4444444 9.72222222,19.4444444 Z" id="椭圆形" fill="#EB5E5E"></path>
                                <path d="M9.02451632,9.03170264 L9.02451632,4.85570282 C9.02451632,4.47515866 9.33300833,4.16666667 9.7135525,4.16666667 C10.0940966,4.16666667 10.4025886,4.47515866 10.4025886,4.85570282 L10.4025886,9.03170264 L14.5887416,9.03170264 C14.9692858,9.03170264 15.2777778,9.34019465 15.2777778,9.72073875 C15.2777778,10.1012829 14.9692858,10.4097749 14.5887416,10.4097749 L10.4025886,10.4097749 L10.4025886,14.5887416 C10.4025886,14.9692858 10.0940966,15.2777778 9.7135525,15.2777778 C9.33300833,15.2777778 9.02451632,14.9692858 9.02451632,14.5887416 L9.02451632,10.4097749 L4.85570282,10.4097749 C4.47515866,10.4097749 4.16666667,10.1012829 4.16666667,9.72073875 C4.16666667,9.34019465 4.47515866,9.03170264 4.85570282,9.03170264 L9.02451632,9.03170264 Z" id="合并形状" fill="#EB5E5E"></path>
                            </g>
                        </g>
                    </g>
                </g>
            </g>
        </g>
    </g>
</svg>