<svg xmlns="http://www.w3.org/2000/svg" viewBox="1634 1196 16 16">
  <g id="creditcardBlack" transform="translate(1442 1116)">
    <rect id="Fill1" fill="#ffb900" width="14" height="6" transform="translate(193 87)"/>
    <rect id="Fill2" fill="#767676" width="14" height="2" transform="translate(193 84)"/>
    <path id="Contour" d="M14.75-14.875a1.211,1.211,0,0,1,.484.1,1.267,1.267,0,0,1,.4.27,1.268,1.268,0,0,1,.27.4,1.211,1.211,0,0,1,.1.484v8.5a1.211,1.211,0,0,1-.1.484,1.268,1.268,0,0,1-.27.4,1.268,1.268,0,0,1-.4.27,1.211,1.211,0,0,1-.484.1H1.25a1.211,1.211,0,0,1-.484-.1,1.268,1.268,0,0,1-.4-.27,1.268,1.268,0,0,1-.27-.4A1.211,1.211,0,0,1,0-5.125v-8.5a1.211,1.211,0,0,1,.1-.484,1.268,1.268,0,0,1,.27-.4,1.267,1.267,0,0,1,.4-.27,1.211,1.211,0,0,1,.484-.1Zm-13.5,1a.243.243,0,0,0-.18.07.243.243,0,0,0-.07.18v1.75H15v-1.75a.243.243,0,0,0-.07-.18.243.243,0,0,0-.18-.07Zm13.5,9a.243.243,0,0,0,.18-.07.243.243,0,0,0,.07-.18v-5.75H1v5.75a.243.243,0,0,0,.07.18.243.243,0,0,0,.18.07Zm-3.75-3h2v1H11Z" transform="translate(192 97.875)"/>
  </g>
</svg>
