<svg xmlns="http://www.w3.org/2000/svg" viewBox="1754 368 16 16">
  <g id="cupWhite" transform="translate(1562 288)">
    <path id="Fill1" fill="#038387" d="M193.547,85.566h11.008l-.172,3.785-1.4,2.255-2.158.964h-4.361l-1.711-1.356-1.2-2.278Z"/>
    <path id="Fill2" fill="#038387" d="M192.5,92.569h13.581l-.347,1.585-.779.531H193.444l-.726-.7Z"/>
    <path id="Contour" fill="#fff" d="M4.5-12.7a.481.481,0,0,1-.352-.148A.481.481,0,0,1,4-13.2a.5.5,0,0,0-.113-.32,1.133,1.133,0,0,0-.254-.234q-.273-.187-.559-.375a4.129,4.129,0,0,1-.527-.41,1.93,1.93,0,0,1-.395-.5A1.357,1.357,0,0,1,2-15.7a.481.481,0,0,1,.148-.352A.481.481,0,0,1,2.5-16.2a.481.481,0,0,1,.352.148A.481.481,0,0,1,3-15.7a.5.5,0,0,0,.113.32,1.133,1.133,0,0,0,.254.234q.266.188.555.375a4,4,0,0,1,.531.41,1.93,1.93,0,0,1,.395.5A1.357,1.357,0,0,1,5-13.2a.481.481,0,0,1-.148.352A.481.481,0,0,1,4.5-12.7Zm3.5,0a.481.481,0,0,1-.352-.148A.481.481,0,0,1,7.5-13.2a.5.5,0,0,0-.113-.32,1.133,1.133,0,0,0-.254-.234q-.273-.187-.559-.375a4.129,4.129,0,0,1-.527-.41,1.93,1.93,0,0,1-.395-.5A1.357,1.357,0,0,1,5.5-15.7a.481.481,0,0,1,.148-.352A.481.481,0,0,1,6-16.2a.481.481,0,0,1,.352.148A.481.481,0,0,1,6.5-15.7a.5.5,0,0,0,.113.32,1.133,1.133,0,0,0,.254.234q.266.188.555.375a4,4,0,0,1,.531.41,1.93,1.93,0,0,1,.395.5A1.357,1.357,0,0,1,8.5-13.2a.481.481,0,0,1-.148.352A.481.481,0,0,1,8-12.7Zm3.5,0a.481.481,0,0,1-.352-.148A.481.481,0,0,1,11-13.2a.5.5,0,0,0-.113-.32,1.133,1.133,0,0,0-.254-.234q-.273-.187-.559-.375a4.129,4.129,0,0,1-.527-.41,1.93,1.93,0,0,1-.395-.5A1.357,1.357,0,0,1,9-15.7a.481.481,0,0,1,.148-.352A.481.481,0,0,1,9.5-16.2a.481.481,0,0,1,.352.148A.481.481,0,0,1,10-15.7a.5.5,0,0,0,.113.32,1.133,1.133,0,0,0,.254.234q.266.188.555.375a4,4,0,0,1,.531.41,1.93,1.93,0,0,1,.395.5A1.357,1.357,0,0,1,12-13.2a.481.481,0,0,1-.148.352A.481.481,0,0,1,11.5-12.7Zm1.039,5.75A5.175,5.175,0,0,1,11.9-5.871a6.649,6.649,0,0,1-.859.918H14.5v1a2.394,2.394,0,0,1-.109.707,2.165,2.165,0,0,1-.316.641,1.745,1.745,0,0,1-.508.469,1.3,1.3,0,0,1-.691.184H1.625a1.3,1.3,0,0,1-.691-.184,1.745,1.745,0,0,1-.508-.469,2.165,2.165,0,0,1-.316-.641A2.394,2.394,0,0,1,0-3.953v-1H2.961A5.9,5.9,0,0,1,1.52-6.82,5.158,5.158,0,0,1,1-9.117v-2.836H13.539a2.353,2.353,0,0,1,.965.2,2.494,2.494,0,0,1,.781.539,2.521,2.521,0,0,1,.523.8A2.473,2.473,0,0,1,16-9.453a2.473,2.473,0,0,1-.191.965,2.521,2.521,0,0,1-.523.8,2.494,2.494,0,0,1-.781.539,2.353,2.353,0,0,1-.965.2Zm.461-4q0,.328.008.656t.008.664q0,.43-.027.852a5.161,5.161,0,0,1-.121.828h.672a1.385,1.385,0,0,0,.574-.121,1.477,1.477,0,0,0,.465-.324,1.518,1.518,0,0,0,.309-.477A1.5,1.5,0,0,0,15-9.453a1.5,1.5,0,0,0-.113-.578,1.518,1.518,0,0,0-.309-.477,1.477,1.477,0,0,0-.465-.324,1.385,1.385,0,0,0-.574-.121ZM2-9.117A4.219,4.219,0,0,0,2.207-7.8a4.479,4.479,0,0,0,.582,1.172,4.807,4.807,0,0,0,.891.965,5.077,5.077,0,0,0,1.133.707H9.188A5.077,5.077,0,0,0,10.32-5.66a4.807,4.807,0,0,0,.891-.965A4.479,4.479,0,0,0,11.793-7.8,4.219,4.219,0,0,0,12-9.117v-1.836H2ZM12.875-2.953a.4.4,0,0,0,.281-.109.942.942,0,0,0,.2-.262,1.26,1.26,0,0,0,.113-.324,1.541,1.541,0,0,0,.035-.3H1a1.541,1.541,0,0,0,.035.3,1.26,1.26,0,0,0,.113.324.942.942,0,0,0,.2.262.4.4,0,0,0,.281.109Z" transform="translate(192 97)"/>
  </g>
</svg>
