<svg xmlns="http://www.w3.org/2000/svg" viewBox="1754 1412 16 16">
  <defs>
    <style>
      .cls-1 {
        fill: none;
      }

      .cls-2 {
        fill: #fff;
      }

      .cls-3 {
        fill: #ccc;
      }

      .cls-4 {
        fill: #767676;
      }
    </style>
  </defs>
  <g id="dentistWhite" transform="translate(1562 1333)">
    <path id="Fill1" fill="#fff" d="M203.147,91.659l.9-1.418.994-4.169.584-4.224-.584-2.092-1.8-1.038h-1.291l-1.7.721h-1.959l-2.129-.721h-1.011l-1.779,1.038-.866,1.795.248,3.335,1.469,4.871.928,1.9H196.5l.484-1.9.775-2.567h2.485l1.7,4.469Z" transform="translate(0.853 1.633)"/>
    <path id="Fill2" fill="#ccc" d="M193.355,84.906a13.3,13.3,0,0,0,9.741,1.441,6.308,6.308,0,0,0,3.719-2.215c.051-.03-1.569,6.868-1.569,6.868L204,93.541h-1.219l-1.457-4.332h-2.6l-1.455,4.332H196l-1.98-5.271Z"/>
    <path id="Fill3" fill="#767676" d="M7-13.5a2.954,2.954,0,0,0,.906-.137q.427-.137.844-.3t.841-.3a2.945,2.945,0,0,1,.909-.137v.875a2.478,2.478,0,0,0-.574.065,4.845,4.845,0,0,0-.537.161q-.263.1-.53.212t-.554.212a5.149,5.149,0,0,1-.608.161,3.521,3.521,0,0,1-.7.065,3.521,3.521,0,0,1-.7-.065,5.149,5.149,0,0,1-.608-.161q-.287-.1-.55-.212t-.53-.212a5.053,5.053,0,0,0-.54-.161A2.478,2.478,0,0,0,3.5-13.5v-.875a2.964,2.964,0,0,1,.9.137q.431.137.848.3t.848.3A2.964,2.964,0,0,0,7-13.5Z" transform="translate(193 97)"/>
    <path id="Contour" fill="#fff" d="M14-13.042a17.554,17.554,0,0,1-.178,2.464A18.99,18.99,0,0,1,13.3-8.1a17.805,17.805,0,0,1-.858,2.386,14.994,14.994,0,0,1-1.183,2.177,1.218,1.218,0,0,1-.417.39A1.1,1.1,0,0,1,10.288-3a1.135,1.135,0,0,1-.677-.215,1.107,1.107,0,0,1-.417-.571L7.978-7.423q-.239.027-.485.038T7-7.375q-.246,0-.492-.01t-.485-.038L4.806-3.786a1.107,1.107,0,0,1-.417.571A1.135,1.135,0,0,1,3.712-3a1.1,1.1,0,0,1-.554-.144,1.218,1.218,0,0,1-.417-.39A14.994,14.994,0,0,1,1.559-5.71,17.805,17.805,0,0,1,.7-8.1a18.99,18.99,0,0,1-.523-2.481A17.554,17.554,0,0,1,0-13.042a4.753,4.753,0,0,1,.232-1.48,3.925,3.925,0,0,1,.677-1.265A3.338,3.338,0,0,1,2-16.668,3.217,3.217,0,0,1,3.486-17a2.977,2.977,0,0,1,.913.137q.427.137.844.3t.844.3A2.977,2.977,0,0,0,7-16.125a2.977,2.977,0,0,0,.913-.137q.427-.137.844-.3t.844-.3A2.977,2.977,0,0,1,10.514-17,3.217,3.217,0,0,1,12-16.668a3.338,3.338,0,0,1,1.094.882,3.925,3.925,0,0,1,.677,1.265A4.753,4.753,0,0,1,14-13.042Zm-.875.014a4.116,4.116,0,0,0-.171-1.2,2.821,2.821,0,0,0-.516-.984,2.484,2.484,0,0,0-.858-.667,2.736,2.736,0,0,0-1.2-.246,2.159,2.159,0,0,0-.762.137q-.366.137-.762.3t-.848.3A3.483,3.483,0,0,1,7-15.25a3.474,3.474,0,0,1-1.015-.137q-.448-.137-.844-.3t-.783-.3a2.471,2.471,0,0,0-.831-.137,2.482,2.482,0,0,0-1.162.26,2.475,2.475,0,0,0-.831.69,2.984,2.984,0,0,0-.5.988,4.08,4.08,0,0,0-.164,1.159,14.4,14.4,0,0,0,.079,1.446q.079.776.232,1.6t.376,1.651q.222.831.513,1.61a14.068,14.068,0,0,0,.646,1.477A8.515,8.515,0,0,0,3.486-4a.317.317,0,0,0,.26.13q.082,0,.212-.25a6.01,6.01,0,0,0,.277-.639q.147-.39.3-.861t.3-.913q.14-.441.25-.8t.164-.526a.668.668,0,0,1,.208-.311.522.522,0,0,1,.352-.133,5.71,5.71,0,0,1,.595.031A5.71,5.71,0,0,0,7-8.25a5.71,5.71,0,0,0,.595-.031,5.71,5.71,0,0,1,.595-.031.522.522,0,0,1,.352.133.668.668,0,0,1,.208.311q.055.164.164.526t.25.8q.14.441.3.913t.3.861a6.009,6.009,0,0,0,.277.639q.13.25.212.25a.317.317,0,0,0,.26-.13,8.515,8.515,0,0,0,.766-1.244,14.067,14.067,0,0,0,.646-1.477q.291-.779.513-1.61t.376-1.647q.154-.817.232-1.6A14.5,14.5,0,0,0,13.125-13.028Z" transform="translate(193 97)"/>
  </g>
</svg>
