<?xml version="1.0" encoding="UTF-8" standalone="no"?>
<svg width="36px" height="36px" viewBox="0 0 36 36" version="1.1" xmlns="http://www.w3.org/2000/svg" xmlns:xlink="http://www.w3.org/1999/xlink" xmlns:sketch="http://www.bohemiancoding.com/sketch/ns">
    <!-- Generator: Sketch 3.4.4 (17249) - http://www.bohemiancoding.com/sketch -->
    <title>design and illustration</title>
    <desc>Created with Sketch.</desc>
    <defs></defs>
    <g id="-Assets" stroke="none" stroke-width="1" fill="none" fill-rule="evenodd" sketch:type="MSPage">
        <g id="Desktop-HD" sketch:type="MSArtboardGroup" transform="translate(-261.000000, -784.000000)">
            <g id="CATEGORY-ICONS" sketch:type="MSLayerGroup" transform="translate(206.000000, 711.000000)">
                <g id="design-and-illustration" transform="translate(55.000000, 73.000000)" sketch:type="MSShapeGroup">
                    <g id="Oval-175-+-Icon/Code-Copy" fill="#CA504C">
                        <circle id="Oval-175" cx="18" cy="18" r="18"></circle>
                    </g>
                    <g id="Page-1" transform="translate(8.000000, 8.000000)" fill="#FFFFFF">
                        <path d="M3.75756164,16.3431781 C3.75756164,17.3367945 2.95323288,18.1411233 1.95961644,18.1411233 C0.966287671,18.1411233 0.161671233,17.3367945 0.161671233,16.3431781 C0.161671233,15.3498493 0.966287671,14.5452329 1.95961644,14.5452329 C2.95323288,14.5452329 3.75756164,15.3498493 3.75756164,16.3431781" id="Fill-1"></path>
                        <path d="M18.1411233,1.95961644 C18.1411233,2.95323288 17.3367945,3.75756164 16.3431781,3.75756164 C15.3498493,3.75756164 14.5452329,2.95323288 14.5452329,1.95961644 C14.5452329,0.966287671 15.3498493,0.161671233 16.3431781,0.161671233 C17.3367945,0.161671233 18.1411233,0.966287671 18.1411233,1.95961644" id="Fill-2"></path>
                        <path d="M3.30821918,15.4444932 C3.19372603,15.4444932 3.07779452,15.4004795 2.99034247,15.3127397 C2.81486301,15.1375479 2.81486301,14.8521781 2.99034247,14.6769863 L14.6769863,2.99034247 C14.8521781,2.81486301 15.1375479,2.81486301 15.3127397,2.99034247 C15.4882192,3.16553425 15.4882192,3.45090411 15.3127397,3.62609589 L3.62609589,15.3127397 C3.53864384,15.4004795 3.42271233,15.4444932 3.30821918,15.4444932 L3.30821918,15.4444932 Z" id="Fill-3"></path>
                        <path d="M10.0506575,9.15139726 C10.0506575,10.350411 8.25271233,10.350411 8.25271233,9.15139726 C8.25271233,7.95267123 10.0506575,7.95267123 10.0506575,9.15139726" id="Fill-4"></path>
                        <path d="M7.80308219,18.1411233 L6.00513699,18.1411233 C5.75687671,18.1411233 5.55550685,18.3424932 5.55550685,18.5907534 L5.55550685,20.3886986 C5.55550685,20.6369589 5.75687671,20.8383288 6.00513699,20.8383288 L7.80308219,20.8383288 C8.05134247,20.8383288 8.25271233,20.6369589 8.25271233,20.3886986 L8.25271233,18.5907534 C8.25271233,18.3424932 8.05134247,18.1411233 7.80308219,18.1411233 L7.80308219,18.1411233 Z" id="Fill-5"></path>
                        <path d="M20.3886986,5.55550685 L18.5907534,5.55550685 C18.3424932,5.55550685 18.1411233,5.75687671 18.1411233,6.00513699 L18.1411233,7.80308219 C18.1411233,8.05134247 18.3424932,8.25271233 18.5907534,8.25271233 L20.3886986,8.25271233 C20.6369589,8.25271233 20.8383288,8.05134247 20.8383288,7.80308219 L20.8383288,6.00513699 C20.8383288,5.75687671 20.6369589,5.55550685 20.3886986,5.55550685 L20.3886986,5.55550685 Z" id="Fill-6"></path>
                        <path d="M6.90410959,19.0403836 C6.65584932,19.0403836 6.45476712,18.8390137 6.45476712,18.5907534 L6.45246575,17.829863 C6.44009589,14.4396575 6.42887671,11.2381644 8.83236986,8.83352055 C11.2361507,6.42887671 14.4330411,6.44239726 17.829,6.45361644 L18.5907534,6.45476712 C18.8390137,6.45476712 19.0403836,6.65584932 19.0403836,6.90410959 C19.0403836,7.15236986 18.8390137,7.35345205 18.5907534,7.35345205 L17.8266986,7.35143836 C14.489137,7.34021918 11.6081096,7.329 9.46841096,9.46841096 C7.329,11.6081096 7.33906849,14.489137 7.35143836,17.8266986 L7.35345205,18.5907534 C7.35345205,18.8390137 7.15236986,19.0403836 6.90410959,19.0403836 L6.90410959,19.0403836 Z" id="Fill-7"></path>
                    </g>
                </g>
            </g>
        </g>
    </g>
</svg>