<svg width="60" height="60" viewBox="0 0 60 60" xmlns="http://www.w3.org/2000/svg"><g fill-rule="nonzero"><path d="M28.95 6.15c-1.95 0-3.75.15-5.25.45-4.65.9-5.55 2.55-5.55 5.7v3.15h11.1V18h-15.3c-3.15 0-6 1.95-6.9 5.55-1.05 4.2-1.05 6.9 0 11.25.75 3.3 2.7 5.55 5.85 5.55h3.75v-5.1c0-3.6 3.15-6.9 6.9-6.9h11.1c3.15 0 5.55-2.55 5.55-5.55V12.3c0-3-2.55-5.25-5.55-5.7-1.8-.3-3.75-.45-5.7-.45zm-6 3.45c1.2 0 2.1.9 2.1 2.1 0 1.2-.9 2.1-2.1 2.1-1.2 0-2.1-.9-2.1-2.1.15-1.2 1.05-2.1 2.1-2.1z"/><path d="M43.2 19.35v4.95c0 3.75-3.3 7.05-6.9 7.05H25.2c-3 0-5.55 2.55-5.55 5.55v10.5c0 3 2.55 4.8 5.55 5.55 3.45 1.05 6.9 1.2 11.1 0 2.85-.75 5.55-2.4 5.55-5.55v-3.15h-11.1V41.7H47.4c3.15 0 4.35-2.25 5.55-5.55 1.2-3.45 1.05-6.75 0-11.25-.75-3.15-2.25-5.55-5.55-5.55h-4.2zm-6.3 26.7c1.2 0 2.1.9 2.1 2.1 0 1.2-.9 2.1-2.1 2.1-1.2 0-2.1-.9-2.1-2.1 0-1.2 1.05-2.1 2.1-2.1z"/></g></svg>
