<svg xmlns="http://www.w3.org/2000/svg" viewBox="1754 80 16 16">
  <g id="dogWhite" transform="translate(1562)">
    <path id="Fill1" fill="#d47300" d="M196.155,94.479l11.458.008-.411-1.661-1.451-.516-.563-2.452.151-6.5,1.6-.178.67-.833-.411-1.718-1.451-.248L204.7,79.6h-2.578l-.717.451-.44,1.049v2.253l-.7,2.19-1.236,1.877-1.677,2.283-.672,2.866Z" transform="translate(0 1)"/>
    <path id="Contour" fill="#fff" d="M14.186-3.154a2.035,2.035,0,0,1,.7.257,2.151,2.151,0,0,1,.552.469A2.164,2.164,0,0,1,15.8-1.8a2.068,2.068,0,0,1,.133.735V0H3.188A3.127,3.127,0,0,1,1.942-.249,3.2,3.2,0,0,1,.93-.93,3.2,3.2,0,0,1,.249-1.942,3.127,3.127,0,0,1,0-3.187,3.106,3.106,0,0,1,.249-4.424,3.213,3.213,0,0,1,.934-5.441a3.226,3.226,0,0,1,1.013-.685,3.1,3.1,0,0,1,1.241-.249v1.063a2.068,2.068,0,0,0-.826.166,2.146,2.146,0,0,0-.677.457,2.146,2.146,0,0,0-.457.677,2.068,2.068,0,0,0-.166.826,2.068,2.068,0,0,0,.166.826,2.146,2.146,0,0,0,.457.677,2.146,2.146,0,0,0,.677.457,2.068,2.068,0,0,0,.826.166,1.1,1.1,0,0,0,.407-.079,1.017,1.017,0,0,0,.349-.228,1.017,1.017,0,0,0,.228-.349,1.1,1.1,0,0,0,.079-.407,8.29,8.29,0,0,1,.606-3.129,7.255,7.255,0,0,1,.71-1.357A8.819,8.819,0,0,1,6.524-7.8,7.113,7.113,0,0,0,8-10.081a7.129,7.129,0,0,0,.5-2.669v-1.062a2.068,2.068,0,0,1,.166-.826,2.146,2.146,0,0,1,.457-.677,2.146,2.146,0,0,1,.677-.457,2.068,2.068,0,0,1,.826-.166h1.594a2.258,2.258,0,0,1,.913.174,3.074,3.074,0,0,1,.78.506,1.614,1.614,0,0,0,.444.286,1.334,1.334,0,0,0,.519.1,1.03,1.03,0,0,1,.415.083,1.08,1.08,0,0,1,.336.228,1.08,1.08,0,0,1,.228.336,1.03,1.03,0,0,1,.083.415v1.063a1.564,1.564,0,0,1-.125.623,1.6,1.6,0,0,1-.34.506,1.6,1.6,0,0,1-.506.34,1.564,1.564,0,0,1-.623.125h-.531v5.844A6.58,6.58,0,0,0,13.9-4.221,6,6,0,0,0,14.186-3.154Zm.689,2.092a1.039,1.039,0,0,0-.083-.411,1.067,1.067,0,0,0-.228-.34,1.067,1.067,0,0,0-.34-.228,1.039,1.039,0,0,0-.411-.083h-.357q-.166-.407-.295-.789t-.22-.768A7.335,7.335,0,0,1,12.8-4.47a6.863,6.863,0,0,1-.05-.843v-5.844a1.03,1.03,0,0,1,.083-.415,1.08,1.08,0,0,1,.228-.336,1.08,1.08,0,0,1,.336-.228,1.03,1.03,0,0,1,.415-.083q.149,0,.336,0a1.284,1.284,0,0,0,.349-.037.558.558,0,0,0,.27-.154.481.481,0,0,0,.108-.344v-1.062a2.355,2.355,0,0,1-.647-.079,2.268,2.268,0,0,1-.481-.2,2.514,2.514,0,0,1-.378-.257q-.17-.141-.34-.257a1.976,1.976,0,0,0-.361-.2,1.169,1.169,0,0,0-.448-.079H10.625a1.039,1.039,0,0,0-.411.083,1.067,1.067,0,0,0-.34.228,1.067,1.067,0,0,0-.228.34,1.039,1.039,0,0,0-.083.411v1.594a.511.511,0,0,0,.158.374.511.511,0,0,0,.374.158.481.481,0,0,0,.344-.108.558.558,0,0,0,.154-.27,1.284,1.284,0,0,0,.037-.349q0-.187,0-.336h1.063v.531a1.564,1.564,0,0,1-.125.623,1.6,1.6,0,0,1-.34.506,1.6,1.6,0,0,1-.506.34,1.564,1.564,0,0,1-.623.125,1.579,1.579,0,0,1-.755-.191A8.151,8.151,0,0,1,8.562-8.8,8.424,8.424,0,0,1,7.288-7.072,7.113,7.113,0,0,0,5.815-4.794a7.129,7.129,0,0,0-.5,2.669A2.121,2.121,0,0,1,5.03-1.062h6.657a1.03,1.03,0,0,0-.083-.415,1.08,1.08,0,0,0-.228-.336,1.08,1.08,0,0,0-.336-.228,1.03,1.03,0,0,0-.415-.083H9.563A2.068,2.068,0,0,0,9.4-2.951a2.146,2.146,0,0,0-.457-.677,2.146,2.146,0,0,0-.677-.457,2.068,2.068,0,0,0-.826-.166V-5.312a3.141,3.141,0,0,1,.984.154,3.17,3.17,0,0,1,.859.432,3.216,3.216,0,0,1,.689.668,3.233,3.233,0,0,1,.473.872h.183v-4.25h1.063v4.532a2.111,2.111,0,0,1,.78.78,2.092,2.092,0,0,1,.282,1.063Z" transform="translate(192 96)"/>
  </g>
</svg>
