<svg xmlns="http://www.w3.org/2000/svg" viewBox="1634 1268 16 16">  <g id="dotBlack" transform="translate(1304)">    <path id="Dot" fill="black" d="M9.313-11.687a3.843,3.843,0,0,1,1.552.318,4.086,4.086,0,0,1,1.271.859,4.086,4.086,0,0,1,.859,1.271,3.843,3.843,0,0,1,.318,1.552,3.843,3.843,0,0,1-.318,1.552,4.086,4.086,0,0,1-.859,1.271,4.086,4.086,0,0,1-1.271.859,3.843,3.843,0,0,1-1.552.318A3.843,3.843,0,0,1,7.76-4.005,4.086,4.086,0,0,1,6.49-4.865,4.086,4.086,0,0,1,5.63-6.135a3.843,3.843,0,0,1-.318-1.552A3.843,3.843,0,0,1,5.63-9.24,4.086,4.086,0,0,1,6.49-10.51,4.086,4.086,0,0,1,7.76-11.37,3.843,3.843,0,0,1,9.313-11.687Z" transform="translate(328.688 1283.688)"/>  </g></svg>