<svg xmlns="http://www.w3.org/2000/svg" width="196" height="32" viewBox="0 0 196 32">
  <g fill="none">
    <path fill="#231F20" d="M133.93,22.66 C132.35,22.66 130.683,22.222 130.137,22.222 C129.534,22.222 128.959,22.659 128.959,24.23 C128.959,24.23 131.028,25.162 134.131,25.162 C139.388,25.162 140.71,23.008 140.71,20.302 C140.71,17.042 139.043,16.257 136.027,15.209 C133.212,14.219 132.005,13.899 132.005,12.328 C132.005,10.96 132.924,10.348 134.275,10.348 C136.257,10.348 138.383,11.018 138.728,11.018 C139.245,11.018 139.877,10.32 139.877,9.185 C139.877,9.185 137.693,7.934 134.792,7.934 C130.195,7.934 129.017,10.32 129.017,12.415 C129.017,15.121 130.109,16.14 131.947,16.868 C135.194,18.148 137.435,18.41 137.435,20.331 C137.435,21.816 136.774,22.659 133.93,22.659 L133.93,22.66 Z M46.878,8.544 C45.872,8.194 44.665,7.933 43.114,7.933 C38.029,7.933 35.501,11.104 35.501,16.838 C35.501,21.96 37.311,25.161 42.022,25.161 C44.464,25.161 46.073,23.793 46.849,22.862 L46.878,23.648 C46.936,24.171 47.137,24.841 48.198,24.841 L49.952,24.841 L49.952,2.986 L48.199,2.986 C47.108,2.986 46.878,3.626 46.878,4.208 L46.878,8.545 L46.878,8.544 Z M46.878,19.602 C46.878,19.602 45.039,22.688 42.195,22.688 C39.379,22.688 38.661,20.505 38.661,16.576 C38.661,12.908 39.437,10.377 43.516,10.377 C44.608,10.377 45.757,10.697 46.878,11.163 L46.878,19.602 L46.878,19.602 Z M88.393,24.841 L91.438,24.841 L91.438,13.317 C91.438,9.127 89.255,7.934 84.858,7.934 C80.722,7.934 77.418,10.116 77.418,10.116 L77.418,24.842 L80.463,24.842 L80.463,11.338 C80.463,11.338 82.589,10.378 84.198,10.378 C87.618,10.378 88.393,11.222 88.393,12.997 L88.393,24.842 L88.393,24.841 Z M152.433,24.317 C152.433,23.793 152.374,23.182 152.001,22.397 C152.001,22.397 150.679,22.658 149.013,22.658 C147.347,22.658 146.886,22.163 146.886,20.825 L146.886,10.61 L149.731,10.61 C150.364,10.61 151.024,10.436 151.024,9.388 L151.024,8.224 L146.829,8.224 L146.829,3.102 L145.135,3.102 C144.042,3.102 143.841,3.684 143.841,4.267 L143.841,21.175 C143.841,23.911 145.393,25.162 148.611,25.162 C151.081,25.162 152.288,24.492 152.288,24.492 L152.432,24.318 L152.433,24.317 Z M172.4,8.398 L172.4,24.842 L175.445,24.842 L175.445,12.852 L181.133,10.756 C181.708,10.553 181.966,10.233 181.966,9.708 C181.966,9.243 181.766,8.545 181.392,7.729 C181.392,7.729 177.513,9.069 175.445,10.29 L175.445,9.505 C175.445,8.923 175.243,8.399 174.152,8.399 L172.4,8.399 L172.4,8.398 Z M165.36,19.603 C165.36,19.603 163.55,22.689 160.649,22.689 C157.919,22.689 157.201,20.506 157.201,16.577 C157.201,12.909 157.976,10.378 162.056,10.378 C163.148,10.378 164.268,10.698 165.361,11.164 L165.361,19.603 L165.36,19.603 Z M126.403,16.577 C126.403,11.105 124.075,7.934 118.789,7.934 C113.589,7.934 111.204,11.105 111.204,16.577 C111.204,21.961 113.589,25.162 118.789,25.162 C124.018,25.162 126.403,21.961 126.403,16.577 Z M123.243,16.577 C123.243,20.767 122.007,22.746 118.789,22.746 C115.657,22.746 114.364,20.767 114.364,16.576 C114.364,12.328 115.686,10.348 118.789,10.348 C121.892,10.348 123.242,12.328 123.242,16.577 L123.243,16.577 Z M109.969,8.195 L104.281,8.195 C103.533,8.021 102.154,7.934 101.408,7.934 C97.385,7.934 95,9.854 95,13.172 C95,14.539 95.316,15.995 96.667,17.159 C95.517,17.887 95.317,18.759 95.317,19.779 C95.317,20.709 95.547,21.611 96.552,22.281 C95.461,22.834 94.225,24.29 94.225,26.471 C94.225,29.935 96.725,31.711 101.465,31.711 C106.292,31.711 108.705,29.935 108.705,26.471 C108.705,23.067 106.176,21.291 101.235,21.291 C98.563,21.291 98.045,20.826 98.045,19.778 C98.045,18.672 98.879,18.352 101.408,18.352 C106.894,18.352 107.842,15.471 107.842,13.172 C107.842,12.212 107.584,11.338 107.153,10.552 L108.676,10.552 C109.336,10.552 109.969,10.378 109.969,9.33 L109.969,8.195 Z M101.465,23.649 C104.568,23.649 105.659,24.172 105.659,26.472 C105.659,28.829 104.482,29.352 101.465,29.352 C98.563,29.352 97.27,28.829 97.27,26.472 C97.27,24.172 98.305,23.649 101.465,23.649 L101.465,23.649 Z M104.769,13.172 C104.769,15.005 104.223,16.14 101.349,16.14 C98.506,16.111 98.046,15.005 98.046,13.172 C98.046,11.396 98.563,10.29 101.408,10.29 C104.281,10.29 104.769,11.396 104.769,13.172 Z M73.941,24.842 L73.941,10.116 C73.941,10.116 71.298,7.934 67.104,7.934 C62.047,7.934 59.519,11.105 59.519,16.839 C59.519,21.961 61.329,25.162 66.041,25.162 C68.454,25.162 70.063,23.794 70.838,22.863 L70.896,23.649 C70.925,24.172 71.155,24.842 72.189,24.842 L73.941,24.842 L73.941,24.842 Z M70.896,19.602 C70.896,19.602 69.029,22.689 66.184,22.689 C63.455,22.689 62.679,20.506 62.679,16.577 C62.679,12.909 63.455,10.378 67.535,10.378 C68.684,10.378 69.747,10.698 70.896,11.164 L70.896,19.603 L70.896,19.602 Z M53.572,6.625 L54.865,6.625 C56.215,6.625 56.732,5.839 56.732,4.675 C56.732,3.54 56.302,2.841 54.922,2.841 C53.831,2.841 53.572,3.481 53.572,4.063 L53.572,6.625 L53.572,6.625 Z M53.514,23.969 C53.514,26.734 50.239,30.081 50.239,30.081 C50.412,30.838 51.331,31.508 52.049,31.77 C52.049,31.77 56.559,28.045 56.559,24.813 L56.559,10.058 C56.559,9.505 56.301,8.923 55.21,8.923 L53.514,8.923 L53.514,23.968 L53.514,23.969 Z M168.406,24.843 L168.406,10.116 C168.406,10.116 165.819,7.934 161.626,7.934 C156.511,7.934 154.04,11.105 154.04,16.839 C154.04,21.961 155.85,25.162 160.563,25.162 C163.005,25.162 164.585,23.736 165.361,22.775 L165.361,23.649 C165.361,24.23 165.619,24.842 166.711,24.842 L168.406,24.842 L168.406,24.843 Z M188.488,22.66 C186.908,22.66 185.241,22.223 184.696,22.223 C184.093,22.223 183.517,22.66 183.517,24.231 C183.517,24.231 185.587,25.163 188.689,25.163 C193.946,25.163 195.269,23.009 195.269,20.303 C195.269,17.043 193.602,16.258 190.585,15.21 C187.77,14.22 186.563,13.9 186.563,12.329 C186.563,10.961 187.483,10.349 188.833,10.349 C190.815,10.349 192.941,11.019 193.286,11.019 C193.803,11.019 194.436,10.321 194.436,9.186 C194.436,9.186 192.252,7.935 189.349,7.935 C184.753,7.935 183.576,10.321 183.576,12.416 C183.576,15.122 184.667,16.141 186.506,16.869 C189.752,18.149 191.993,18.411 191.993,20.332 C191.993,21.817 191.333,22.66 188.488,22.66 L188.488,22.66 Z"/>
    <path fill="#77BC43" d="M12.762,0.377 C12.858,0.231 12.81,0.085 12.618,0.085 L3.348,0.085 C2.148,0.085 1.908,0.475 1.908,1.447 L9.928,4.998 C10.168,5.144 10.408,5.048 10.505,4.852 L12.762,0.377 Z M26.257,27.425 C27.17,27.425 29.715,25.285 29.715,17.695 C29.715,17.403 29.523,17.307 29.187,17.403 L24.047,19.3 C23.807,19.399 23.856,19.545 23.904,19.738 L26.257,27.425 L26.257,27.425 Z M24.095,2.663 C24.095,1.593 20.445,0.085 14.971,0.085 C14.779,0.085 14.731,0.231 14.827,0.377 L17.229,4.901 C17.324,5.096 17.42,5.144 17.661,5.047 L24.095,2.663 Z M5.51,11.809 C5.703,11.712 5.75,11.615 5.654,11.469 L1.38,4.171 C0.467,4.171 0.084,4.318 0.084,5.631 L0.084,14.534 C0.084,14.68 0.179,14.826 0.372,14.728 L5.51,11.809 Z M0.372,16.87 C0.179,16.773 0.084,16.918 0.084,17.064 L0.084,25.967 C0.084,27.28 0.467,27.427 1.38,27.427 L5.654,20.129 C5.75,19.984 5.703,19.885 5.51,19.789 L0.372,16.869 L0.372,16.87 Z M10.505,26.89 C10.408,26.697 10.169,26.599 9.928,26.745 L1.908,30.297 C1.908,31.269 2.148,31.659 3.348,31.659 L12.618,31.659 C12.81,31.659 12.858,31.513 12.762,31.366 L10.505,26.891 L10.505,26.89 Z M14.971,31.659 C20.446,31.659 24.095,30.151 24.095,29.08 L17.612,26.697 C17.372,26.599 17.276,26.648 17.18,26.843 L14.827,31.366 C14.731,31.513 14.779,31.659 14.971,31.659 Z M23.856,11.859 C23.807,12.054 23.76,12.199 24,12.296 L29.282,14.243 C29.522,14.34 29.666,14.193 29.666,13.902 C29.956,9.767 28.466,3.735 26.209,4.172 L23.856,11.858 L23.856,11.859 Z"/>
  </g>
</svg>
