<?xml version="1.0" encoding="UTF-8"?>
<svg width="64px" height="64px" viewBox="0 0 64 64" version="1.1" xmlns="http://www.w3.org/2000/svg" xmlns:xlink="http://www.w3.org/1999/xlink">
    <!-- Generator: Sketch 55 (78076) - https://sketchapp.com -->
    <title>编组 5</title>
    <desc>Created with Sketch.</desc>
    <defs>
        <rect id="path-1" x="0" y="0" width="64" height="64" rx="6"></rect>
    </defs>
    <g id="李思琪--pdf新建页面-新增编辑入口" stroke="none" stroke-width="1" fill="none" fill-rule="evenodd">
        <g id="9.9-新增编辑入口" transform="translate(-674.000000, -458.000000)">
            <g id="编组-5" transform="translate(674.000000, 458.000000)">
                <g id="pdf_combine备份-3">
                    <g id="Mask" fill="#FF5F5F" fill-rule="nonzero">
                        <rect id="path-1" x="0" y="0" width="64" height="64" rx="6"></rect>
                    </g>
                    <g id="分组-Clipped">
                        <mask id="mask-2" fill="white">
                            <use xlink:href="#path-1"></use>
                        </mask>
                        <g id="path-1"></g>
                        <g id="分组" mask="url(#mask-2)">
                            <g transform="translate(3.000000, 5.000000)" id="编组">
                                <g>
                                    <path d="M49.5,54 L4.5,54 C2.016,54 0,51.984 0,49.5 L0,4.5 C0,2.016 2.016,0 4.5,0 L49.5,0 C51.984,0 54,2.016 54,4.5 L54,49.5 C54,51.984 51.984,54 49.5,54" id="Fill-1" fill="#FF5F5F"></path>
                                    <path d="M23.850225,31.5 L22.500225,31.5 C21.150225,31.5 20.250225,32.4 20.250225,33.75 C20.250225,35.1 21.150225,36 22.500225,36 L23.850225,36 C24.300225,36 24.750225,35.55 24.750225,35.1 L24.750225,32.4 C24.750225,31.95 24.300225,31.5 23.850225,31.5" id="Fill-3" fill="#FFFFFF"></path>
                                    <path d="M28.125,18 L27.9,18 C27.45,18 27,18.45 27,18.675 L27,28.35 C27,28.8 27.45,29.25 27.9,29.25 L28.125,29.25 C31.275,29.25 33.75,26.775 33.75,23.625 C33.75,20.475 31.275,18 28.125,18" id="Fill-5" fill="#FFFFFF"></path>
                                    <path d="M28.125,31.5 L27,31.5 L27,36 C27,37.35 26.1,38.25 24.75,38.25 L22.5,38.25 C20.025,38.25 18,36.225 18,33.75 C18,31.275 20.025,29.25 22.5,29.25 L24.75,29.25 L24.75,18 C24.75,16.875 25.65,15.75 27,15.75 L28.125,15.75 C32.4,15.75 36,19.35 36,23.625 C36,27.9 32.4,31.5 28.125,31.5 Z M38.25,15.75 C35.766,15.75 33.75,13.734 33.75,11.25 L33.75,6.75 L18,6.75 C15.516,6.75 13.5,8.766 13.5,11.25 L13.5,38.25 C13.5,40.734 15.516,42.75 18,42.75 L38.25,42.75 C40.734,42.75 42.75,40.734 42.75,38.25 L42.75,15.75 L38.25,15.75 Z" id="Fill-7" fill="#FFFFFF"></path>
                                    <path d="M42.75,13.5 L38.25,13.5 C37.008,13.5 36,12.492 36,11.25 L36,6.75 L42.75,13.5 Z" id="Fill-9" fill="#FFFFFF"></path>
                                </g>
                            </g>
                        </g>
                    </g>
                </g>
                <g id="edit_active" transform="translate(36.000000, 33.000000)" fill-rule="nonzero">
                    <rect id="矩形" fill="#000000" opacity="0" x="0" y="0" width="16" height="16"></rect>
                    <path d="M7.5,2 C3.91014919,2 1,4.91014919 1,8.5 C1,12.0898508 3.91014919,15 7.5,15 C11.0898508,15 14,12.0898508 14,8.5 C14,4.91014919 11.0898508,2 7.5,2 Z" id="形状" stroke="#FFFFFF" fill="#FF5F5F"></path>
                    <g id="编组-2" transform="translate(4.000000, 5.000000)" fill="#FFFFFF">
                        <path d="M2.91472763,6.18498611 C2.69422763,6.43686111 2.59781096,6.49729167 2.29011652,6.61077778 C1.81635263,6.788375 0.947241517,7.11452778 0.382144295,7.32626389 C0.275116517,7.36870833 -0.128064038,7.34702778 0.0407831839,6.95076389 C0.232227628,6.39858333 0.513630406,5.58390278 0.674616517,5.11890278 C0.791783184,4.79091667 0.837922073,4.70556944 1.07364429,4.48552778 L3.50796374,2.05120833 L5.23094985,3.77465278 C5.23096374,3.77465278 3.59285263,5.48011111 2.91472763,6.18498611 Z" id="路径"></path>
                        <polygon id="路径" points="5.60139429 3.40515278 3.87794985 1.68170833 4.24746374 1.31219444 5.97090818 3.03609722"></polygon>
                        <path d="M7.07896374,1.92758333 L6.34040818,2.66659722 L4.61696374,0.942680556 L5.35597763,0.204125 C5.62814429,-0.0680416667 6.06869985,-0.0680416667 6.34086652,0.204125 L7.07988041,0.942680556 C7.35113041,1.21486111 7.35113041,1.655875 7.07896374,1.92758333 Z" id="路径"></path>
                    </g>
                </g>
            </g>
        </g>
    </g>
</svg>