<?xml version="1.0" encoding="UTF-8"?>
<svg viewBox="0 0 159 86" version="1.1" xmlns="http://www.w3.org/2000/svg" xmlns:xlink="http://www.w3.org/1999/xlink">
    <!-- Generator: Sketch 51.2 (57519) - http://www.bohemiancoding.com/sketch -->
    <title>backgroud</title>
    <desc>Created with Sketch.</desc>
    <defs>
        <linearGradient x1="50%" y1="100%" x2="50%" y2="3.061617e-15%" id="linearGradient-1">
            <stop stop-color="#F2F2F2" offset="0%"></stop>
            <stop stop-color="#E8E8E8" offset="100%"></stop>
        </linearGradient>
        <radialGradient cx="51.7265916%" cy="0%" fx="51.7265916%" fy="0%" r="84.7010827%" gradientTransform="translate(0.517266,0.000000),scale(0.152019,1.000000),rotate(90.000000),scale(1.000000,5.017284),translate(-0.517266,-0.000000)" id="radialGradient-2">
            <stop stop-color="#FFFFFF" offset="0%"></stop>
            <stop stop-color="#E3E4E6" stop-opacity="0.92" offset="0%"></stop>
            <stop stop-color="#F2F3F5" stop-opacity="0.85" offset="63.8881138%"></stop>
            <stop stop-color="#FFFFFF" stop-opacity="0" offset="100%"></stop>
        </radialGradient>
        <path d="M4.97816292,16.6975881 L23.231427,16.6975881 L23.231427,22.5987854 C23.231427,27.6392851 19.1452946,31.7254174 14.1047949,31.7254174 L14.1047949,31.7254174 C9.06429526,31.7254174 4.97816292,27.6392851 4.97816292,22.5987854 L4.97816292,16.6975881 Z" id="path-3"></path>
        <linearGradient x1="50%" y1="100%" x2="50%" y2="-2.48949813e-15%" id="linearGradient-5">
            <stop stop-color="#F0F0F0" offset="0%"></stop>
            <stop stop-color="#ECECEC" stop-opacity="0.116111866" offset="100%"></stop>
        </linearGradient>
        <path d="M4.97816292,2.50463822 L23.231427,2.50463822 L23.231427,8.40583551 C23.231427,13.4463352 19.1452946,17.5324675 14.1047949,17.5324675 L14.1047949,17.5324675 C9.06429526,17.5324675 4.97816292,13.4463352 4.97816292,8.40583551 L4.97816292,2.50463822 Z" id="path-6"></path>
        <linearGradient x1="50%" y1="0%" x2="50%" y2="100%" id="linearGradient-8">
            <stop stop-color="#F0F0F0" offset="0%"></stop>
            <stop stop-color="#ECECEC" stop-opacity="0.425441576" offset="100%"></stop>
        </linearGradient>
        <linearGradient x1="50%" y1="0%" x2="50%" y2="100%" id="linearGradient-9">
            <stop stop-color="#F7F7F7" offset="0%"></stop>
            <stop stop-color="#ECECEC" stop-opacity="0.472090127" offset="100%"></stop>
        </linearGradient>
    </defs>
    <g id="Page-1" stroke="none" stroke-width="1" fill="none" fill-rule="evenodd">
        <g id="最近使用-暂无记录" transform="translate(-641.000000, -470.000000)">
            <g id="对话框" transform="translate(352.000000, 234.000000)">
                <g id="网络中断260" transform="translate(248.000000, 166.000000)">
                    <g id="backgroud" transform="translate(35.000000, 45.000000)">
                        <rect id="Rectangle" x="0" y="0" width="170" height="126"></rect>
                        <path d="M16.4134938,74.0814529 C16.6870069,72.4916895 17.6047537,71.6968078 19.1667341,71.6968078 C20.7287146,71.6968078 21.7370928,72.0437616 22.1918687,72.7376694 C22.0904187,69.5792231 23.1943436,68 25.5036433,68 C27.8129431,68 29.4927717,69.5792231 30.5431292,72.7376694 C33.0002311,70.875955 34.8263315,70.875955 36.0214302,72.7376694 C37.2165289,74.5993838 38.5691635,75.9495677 40.0793341,76.7882211 L43.7702344,77.6911674 C29.1435032,77.6911674 20.6918859,77.6911674 18.4153825,77.6911674 C16.1388791,77.6911674 15.4715828,76.4879292 16.4134938,74.0814529 Z" id="Path-6" fill="url(#linearGradient-1)"></path>
                        <path d="M81.4151164,115.104353 C136.586993,115.104353 164.302461,107.069568 164.561519,91 C146.526567,91 119.816256,91 84.4305889,91 C49.0449213,91 23.1396959,91 6.71491271,91 C1.34317174,107.069568 26.2432396,115.104353 81.4151164,115.104353 Z" id="Oval-10" fill="url(#radialGradient-2)"></path>
                        <path d="M126.413494,49.0814529 C126.687007,47.4916895 127.604754,46.6968078 129.166734,46.6968078 C130.728715,46.6968078 131.737093,47.0437616 132.191869,47.7376694 C132.090419,44.5792231 133.194344,43 135.503643,43 C137.812943,43 139.492772,44.5792231 140.543129,47.7376694 C143.000231,45.875955 144.826331,45.875955 146.02143,47.7376694 C147.216529,49.5993838 148.569164,50.9495677 150.079334,51.7882211 L153.770234,52.6911674 C139.143503,52.6911674 130.691886,52.6911674 128.415382,52.6911674 C126.138879,52.6911674 125.471583,51.4879292 126.413494,49.0814529 Z" id="Path-6" fill="url(#linearGradient-1)"></path>
                        <g id="file" transform="translate(52.000000, 25.000000)">
                            <rect id="Rectangle-22" fill="#D9DBDE" x="0" y="0" width="66.9286348" height="73.2397959" rx="4"></rect>
                            <rect id="Rectangle-23" fill="#FDFDFD" x="6.69286348" y="8.41836735" width="53.5429078" height="58.9285714"></rect>
                            <path d="M20.9151984,3.36734694 L46.8500444,3.36734694 L46.8500444,8.62755102 C46.8500444,10.83669 45.0591834,12.627551 42.8500444,12.627551 L24.9151984,12.627551 C22.7060594,12.627551 20.9151984,10.83669 20.9151984,8.62755102 L20.9151984,3.36734694 Z M22.5884142,5.89285714 L22.5884142,8.94387755 C22.5884142,10.0484471 23.4838447,10.9438776 24.5884142,10.9438776 L43.1768285,10.9438776 C44.281398,10.9438776 45.1768285,10.0484471 45.1768285,8.94387755 L45.1768285,5.89285714 L22.5884142,5.89285714 Z" id="Combined-Shape" fill="#BBBDBF"></path>
                        </g>
                        <g id="time" transform="translate(101.000000, 67.000000)">
                            <rect id="Rectangle-26" fill="#D9DBDE" x="0" y="0" width="27.3798961" height="2.50463822" rx="1.25231911"></rect>
                            <rect id="Rectangle-26" fill="#D4D6D9" x="0" y="31.7254174" width="27.3798961" height="2.50463822" rx="1.25231911"></rect>
                            <mask id="mask-4" fill="white">
                                <use xlink:href="#path-3"></use>
                            </mask>
                            <use id="Rectangle-27" fill="#D9DBDE" transform="translate(14.104795, 24.211503) scale(1, -1) translate(-14.104795, -24.211503) " xlink:href="#path-3"></use>
                            <path d="M5.1724163,28.2290611 C6.9960824,28.9458209 9.57619913,29.3042008 12.9127665,29.3042008 C16.2493338,29.3042008 19.8589344,28.9458209 23.7415681,28.2290611 L23.7415681,32.1718672 L5.1724163,32.1718672 L5.1724163,28.2290611 Z" id="Path-31" fill="#CCCED0" mask="url(#mask-4)"></path>
                            <path d="M14.1047949,30.0556586 C19.1452946,30.0556586 23.231427,29.3080821 23.231427,28.3858998 C23.231427,27.4637175 18.0102389,26.2438738 14.1047949,26.2438738 C10.199351,26.2438738 4.97816292,27.4637175 4.97816292,28.3858998 C4.97816292,29.3080821 9.06429526,30.0556586 14.1047949,30.0556586 Z" id="Oval-6" fill="#D8D8D8" mask="url(#mask-4)"></path>
                            <path d="M5.78234092,16.8109438 L10.338878,16.8109438 C9.22626173,25.0997697 10.1018169,29.9675971 12.9655436,31.4144261 C10.0751814,31.4144261 5.78234092,29.4686058 5.78234092,23.7277891 C5.78234092,19.9005781 5.78234092,17.594963 5.78234092,16.8109438 Z" id="Path-20" fill="url(#linearGradient-5)" mask="url(#mask-4)" transform="translate(9.373942, 24.112685) scale(1, -1) translate(-9.373942, -24.112685) "></path>
                            <path d="M13.496791,16.0953538 C13.496791,17.6093915 13.496791,18.739899 13.496791,19.4868762 C13.496791,20.2338535 13.496791,22.6120061 13.496791,26.6213342 L13.888979,26.6213342 L13.888979,16.0953538 L13.496791,16.0953538 Z" id="Path-32" fill="#CCCED0" mask="url(#mask-4)"></path>
                            <mask id="mask-7" fill="white">
                                <use xlink:href="#path-6"></use>
                            </mask>
                            <use id="Rectangle-27" fill="#DFE2E4" xlink:href="#path-6"></use>
                            <path d="M5.92772727,11.4656213 C6.33549399,10.8003152 9.46682443,13.1436465 13.7701014,13.1436465 C16.6389527,13.1436465 19.6724645,12.5843048 22.8706369,11.4656213 C20.4907944,15.1563872 18.4839246,17.0017701 16.8500276,17.0017701 C15.2161306,17.0017701 13.4012727,17.0017701 11.405454,17.0017701 C9.68042787,16.2351676 8.55384274,15.613941 8.02569864,15.1380904 C6.13149187,13.431436 5.73604871,11.7783612 5.92772727,11.4656213 Z" id="Path-30" fill="#CCCED0" mask="url(#mask-7)"></path>
                            <ellipse id="Oval-6" fill="#D8D8D8" mask="url(#mask-7)" cx="14.1047949" cy="11.6883117" rx="8.2969382" ry="1.66975881"></ellipse>
                            <path d="M5.78234092,2.61799391 L10.338878,2.61799391 C9.22626173,10.9068198 10.1018169,15.7746472 12.9655436,17.2214762 C10.0751814,17.2214762 5.78234092,15.2756559 5.78234092,9.53483924 C5.78234092,5.70762816 5.78234092,3.40201305 5.78234092,2.61799391 Z" id="Path-20" fill="url(#linearGradient-8)" mask="url(#mask-7)"></path>
                            <path d="M20.1397913,2.51215063 C21.3398973,2.51215063 22.1234852,2.51215063 22.4905549,2.51215063 C22.744046,4.60599288 22.744046,6.63578064 22.4905549,8.60151393 C21.7123355,14.6363296 18.9897964,16.5056278 17.3156145,16.8754334 C19.8564965,14.3624811 20.649575,10.5765502 20.8360257,8.60151393 C21.2165758,4.57041929 20.1397913,3.02924105 20.1397913,2.51215063 Z" id="Path-25" fill="url(#linearGradient-9)" mask="url(#mask-7)"></path>
                        </g>
                        <g id="Group" transform="translate(99.000000, 48.000000)">
                            <g id="人" transform="translate(13.689948, 4.591837) scale(-1, 1) translate(-13.689948, -4.591837) "></g>
                        </g>
                        <g id="man" transform="translate(106.000000, 46.000000)">
                            <path d="M6.65994889,6.01926448 C6.87121983,6.01926448 6.49436802,5.75339965 6.49436802,5.32821687 C6.49436802,4.9030341 6.26937586,4.55835536 6.05810492,4.55835536 C5.84683397,4.55835536 5.83282559,4.86362715 5.83282559,5.28880992 C5.83282559,5.7139927 6.44867794,6.01926448 6.65994889,6.01926448 Z" id="Oval-7" fill="#F9C7C7"></path>
                            <path d="M11.1930052,5.9619122 C10.9817343,5.9619122 11.3585861,5.69604736 11.3585861,5.27086459 C11.3585861,4.84568181 11.5835783,4.50100307 11.7948492,4.50100307 C12.0061201,4.50100307 12.0201285,4.80627486 12.0201285,5.23145763 C12.0201285,5.65664041 11.4042762,5.9619122 11.1930052,5.9619122 Z" id="Oval-7" fill="#F9C7C7"></path>
                            <path d="M1.41245496,22.0845481 C2.19253229,22.0845481 2.82490991,21.9254656 2.82490991,21.7292274 C2.82490991,21.6726666 2.76824675,21.2711642 2.67478393,21.2236962 C2.44397653,21.1064733 1.96769442,21.3739067 1.41245496,21.3739067 C0.632377624,21.3739067 0,21.5329892 0,21.7292274 C0,21.9254656 0.632377624,22.0845481 1.41245496,22.0845481 Z" id="Oval-12" fill="#F9C7C7"></path>
                            <path d="M8.43106037,1.5483178 C10.1786446,1.4224723 11.2645026,2.19987149 11.6886342,3.88051536 C11.6872428,5.24490496 11.3796385,6.29241048 10.7658214,7.02303195 C9.84509571,8.11896414 7.43659604,8.05739477 6.89331292,7.02303195 C6.53112418,6.33345673 6.23770232,5.1855203 6.01304733,3.57922265 C5.87747176,2.35113159 6.68347611,1.67416331 8.43106037,1.5483178 Z" id="Path-14" fill="#F9C7C7"></path>
                            <path d="M6.02437066,4.20249243 C5.91484102,3.02001546 6.15184847,2.13841953 6.735393,1.55770462 C7.61070981,0.686632258 8.47106004,0.64714531 9.83901209,0.902506713 C11.2069641,1.15786812 12.018029,1.80043839 12.2263789,2.58273021 C12.4347289,3.36502204 12.2550484,4.45668928 11.7626922,4.72841647 C11.7134784,4.76823392 11.578571,5.15119106 11.35797,5.87728789 C11.5341081,4.59963629 11.5341081,3.96081049 11.35797,3.96081049 C10.20267,3.96081049 10.2304939,4.23864349 9.24725103,3.96081049 C8.26400816,3.68297748 7.4458708,3.09384713 7.30675228,2.94594414 C7.16763377,2.79804114 6.10317132,3.85410652 6.4227112,5.32439276 C6.4694774,5.69458743 6.33669722,5.32062065 6.02437066,4.20249243 Z" id="Path-34" fill="#7D8085"></path>
                            <path d="M12.0568408,23.2625797 L7.17912297,23.2625797 C6.36764008,23.2625797 5.70414501,22.5936722 5.70414501,21.7755697 L5.70414501,21.4406219 C5.70414501,20.6225194 6.36764008,19.9526239 7.17912297,19.9526239 L12.0568408,19.9526239 C12.8683237,19.9526239 13.5318187,20.6225194 13.5318187,21.4406219 L13.5318187,21.7755697 C13.5318187,22.5936722 12.8683237,23.2625797 12.0568408,23.2625797" id="Fill-53" fill="#4074C6"></path>
                            <path d="M8.7975189,9.28792873 C9.92928611,9.28792873 10.4951697,9.28792873 10.4951697,9.28792873 C10.4951697,9.28792873 12.0517837,9.12305875 13.0344537,8.27938533 C13.6920948,7.66338755 14.6816798,5.75260257 16.0032086,2.5470304 L17.4927114,3.14740162 C16.3502573,6.15073157 15.5969711,8.06244207 15.2328529,8.88253314 C14.6492047,9.91903 13.8256382,10.8076413 12.7621535,11.5483669 L13.5130799,21.8260324 C12.7050859,22.2893318 11.1332322,22.5209815 8.7975189,22.5209815 C6.46180556,22.5209815 4.79058908,22.2893318 3.78386946,21.8260324 L5.39971147,13.2820307 L4.69959939,15.8152253 L3.33425924,21.8260324 L1.52110534,21.4880068 C2.49300472,17.266973 3.09738936,14.6116626 3.33425924,13.5220757 C3.72896,11.7064764 4.03128231,11.3976441 4.20441195,11.0016853 C4.6978802,9.873091 5.66763094,9.56740639 6.05295141,9.56740639 C6.30983173,9.56740639 7.22468756,9.47424717 8.7975189,9.28792873 Z" id="Path-52" fill="#B6BBBF"></path>
                            <path d="M9.61987791,7.69405977 L9.82720231,9.3266596 C9.82720231,9.81719696 9.4485261,10.0624656 8.69117366,10.0624656 C7.93382122,10.0624656 7.61539347,9.81719696 7.7358904,9.3266596 L7.86472524,7.52146488 L9.61987791,7.69405977 Z" id="Path-15" fill="#F9C7C7"></path>
                            <path d="M8.60796078,21.5097731 C8.16105716,20.4298383 7.10064111,19.7727873 6.03826496,19.9960858 C4.8641629,20.2430975 4.12716395,21.4771675 4.32317431,22.7942335 C4.32611447,22.8169586 4.32121421,22.8377076 4.32513441,22.8594446 L4.33395488,22.8861218 C4.33787509,22.9088469 4.33689504,22.9305839 4.34179529,22.954297 C4.38295747,23.1568466 4.45058104,23.3445754 4.52996524,23.5243999 L8.25710224,35.6220412 C8.38156881,36.2217854 8.8882556,36.6268844 9.38318175,36.5221515 L9.72325973,36.4510122 C10.2181859,36.3462792 10.4396776,35.788033 10.315211,35.1882887 L8.77162943,21.9237646 C8.74026777,21.7716054 8.68244472,21.6322908 8.60796078,21.5097731" id="Fill-54" fill="#5789D9"></path>
                            <path d="M6.60553559,39.2084514 L8.80869204,37.5040712 C8.97963283,36.9889696 9.06118302,36.6790524 9.05334261,36.5743194 L9.8383641,36.3134752 C10.0294742,36.2541924 10.233325,36.3638655 10.291148,36.5565346 L10.8491599,38.3824445 C10.9069829,38.5751136 10.7981972,38.7806273 10.6070871,38.838922 L6.92405243,39.9712233 C6.7721444,40.0176615 6.61533611,39.9564026 6.52713145,39.8328968 C6.48400917,39.7874466 6.44774725,39.7340921 6.42814622,39.6688811 C6.37228327,39.4841164 6.45264751,39.2953995 6.60553559,39.1946187 L6.60553559,39.2084514 Z" id="Fill-55" fill="#72787D"></path>
                            <path d="M12.0132826,37.7502775 L14.2164391,36.0458973 C14.3873799,35.5307957 14.4689301,35.2208784 14.4610896,35.1161455 L15.2461111,34.8553012 C15.4372212,34.7960185 15.641072,34.9056916 15.6988951,35.0983607 L16.2569069,36.9242706 C16.31473,37.1169397 16.2059442,37.3224533 16.0148341,37.3807481 L12.3317995,38.5130494 C12.1798914,38.5594875 12.0230831,38.4982287 11.9348785,38.3747229 C11.8917562,38.3292727 11.8554943,38.2759182 11.8358932,38.2107071 C11.7800303,38.0259424 11.8603945,37.8372256 12.0132826,37.7364448 L12.0132826,37.7502775 Z" id="Fill-55" fill="#72787D" transform="translate(14.045275, 36.683880) scale(-1, 1) translate(-14.045275, -36.683880) "></path>
                            <path d="M15.1167736,20.5430038 C14.898222,19.3939057 13.9936342,18.5313411 12.9087169,18.5313411 C11.7081534,18.5313411 10.7369221,19.5875628 10.6624381,20.9174734 C10.660478,20.9401985 10.6506775,20.9589713 10.6506775,20.9826845 L10.6536177,21.0093617 C10.6536177,21.0330748 10.6477374,21.0548119 10.6477374,21.0775369 C10.6477374,21.2840386 10.6751788,21.482636 10.717321,21.6753051 L11.9129842,34.2847544 C11.9129842,34.8973432 12.3265661,35.3982828 12.8322728,35.3982828 L13.1792112,35.3982828 C13.6858979,35.3982828 14.0151953,34.8973432 14.0151953,34.2847544 L15.1932176,20.9826845 C15.1932176,20.8265731 15.1647961,20.6783661 15.1167736,20.5430038" id="Fill-58" fill="#5789D9"></path>
                            <path d="M16.2183314,2.5954782 C16.6170312,1.36112866 17.0498298,0.743953892 17.516727,0.743953892 C17.8438118,0.743953892 17.9417574,1.10483169 17.8105637,1.82658728 C17.7875574,1.95315537 18.3687979,1.86156304 18.2999252,2.11595711 C18.2712271,2.22195886 17.9389697,2.61813513 17.303153,3.3044859 L16.2183314,2.5954782 Z" id="Path-78" fill="#F9C7C7" transform="translate(17.261966, 2.024220) scale(-1, 1) rotate(-53.000000) translate(-17.261966, -2.024220) "></path>
                        </g>
                    </g>
                </g>
            </g>
        </g>
    </g>
</svg>