<?xml version="1.0" encoding="UTF-8"?>
<svg viewBox="0 0 170 114" version="1.1" xmlns="http://www.w3.org/2000/svg" xmlns:xlink="http://www.w3.org/1999/xlink">
    <!-- Generator: Sketch 51.2 (57519) - http://www.bohemiancoding.com/sketch -->
    <title>wps运行环境异常</title>
    <desc>Created with Sketch.</desc>
    <defs>
        <linearGradient x1="50%" y1="100%" x2="50%" y2="-50.2749319%" id="linearGradient-1">
            <stop stop-color="#E7E7E7" stop-opacity="0" offset="0%"></stop>
            <stop stop-color="#B9B9B9" offset="100%"></stop>
        </linearGradient>
        <filter x="0.0%" y="0.0%" width="100.0%" height="100.0%" filterUnits="objectBoundingBox" id="filter-2">
            <feGaussianBlur stdDeviation="0" in="SourceGraphic"></feGaussianBlur>
        </filter>
        <path d="M51,86.9905978 L36.9871045,86.9905978 C35.9715577,86.9441991 34.9995179,86.9741005 34.4522447,86.9998776 C34.2839409,87.006064 34.0068695,86.7761328 34,86.6957085 C34.0091594,86.3513272 34.0343477,85.767735 34.1053329,85.0665994 C34.1053329,85.0665994 37.9236517,83.2921079 37.1462489,78.330543 C37.8125942,78.8584568 35.9200362,74 38.1595059,74 L51,74 L60.9506294,74 C63.120771,74.0237149 61.2894702,78.8563946 61.9370574,78.330543 C61.179124,83.2921079 64.8974561,85.0665994 64.8974561,85.0665994 C64.9665618,85.767735 64.9910831,86.3513272 65,86.6957085 C64.9933124,86.7761328 64.7235772,87.006064 64.5608445,86.9998776 C64.0269473,86.9741005 63.0806452,86.9441991 62.0908733,86.9905978 L51,86.9905978 Z" id="path-3"></path>
        <linearGradient x1="50%" y1="100%" x2="50%" y2="3.061617e-15%" id="linearGradient-5">
            <stop stop-color="#F2F2F2" offset="0%"></stop>
            <stop stop-color="#E8E8E8" offset="100%"></stop>
        </linearGradient>
    </defs>
    <g id="Page-1" stroke="none" stroke-width="1" fill="none" fill-rule="evenodd">
        <g id="皮肤-加载失败" transform="translate(-635.000000, -449.000000)">
            <g id="网络中断260" transform="translate(600.000000, 400.000000)">
                <g id="wps运行环境异常" transform="translate(35.000000, 43.000000)">
                    <rect id="Rectangle" x="0" y="2" width="170" height="126"></rect>
                    <g id="ground" opacity="0.900000036" transform="translate(0.000000, 97.000000)" fill="url(#linearGradient-1)">
                        <rect id="Rectangle-822" filter="url(#filter-2)" x="-15" y="-1" width="243" height="24"></rect>
                    </g>
                    <g id="man" transform="translate(135.000000, 44.000000)">
                        <path d="M7.70197783,60 L10,60 L10,63.3585277 C9.40429764,63.7861759 8.90429764,64 8.5,64 C8.09570236,64 7.82969497,63.7861759 7.70197783,63.3585277 L7.70197783,60 Z" id="Rectangle-28" fill="#F9C7C7"></path>
                        <path d="M15,60 L17.1730777,60 L17.1730777,61.7657702 C17.7243592,62.5885901 17.5,63 16.5,63 C15.5,63 15,62.5885901 15,61.7657702 L15,60 Z" id="Rectangle-28" fill="#F9C7C7"></path>
                        <polygon id="Path" fill="#5789D9" points="5.11913391 32 12 32 11.2619288 44.8029394 10.3858399 60 6.90693386 60"></polygon>
                        <polygon id="Path" fill="#5789D9" points="11 32 18.3955324 32 17.5468835 60 13.8497885 60"></polygon>
                        <path d="M14.1900026,3.29900958 C13.9366658,2.35904282 13.9366658,1.88905944 14.1900026,1.88905944 C14.4137287,2.05835563 14.5255917,2.29334732 14.5255917,2.59403451 C14.7713678,1.73136062 15.0427014,1.23123701 15.3395925,1.09366366 C15.7849292,0.887303645 17,0.968147449 17,1.88905944 C17,2.50300077 16.6969612,3.20664762 16.0908835,4 L14.1900026,3.29900958 Z" id="Combined-Shape" fill="#F9C7C7" transform="translate(15.500000, 2.500000) rotate(264.000000) translate(-15.500000, -2.500000) "></path>
                        <path d="M12.7217801,12.8798339 C13.9943064,13.0799031 14.8704429,13.2659139 15.3501897,13.4378664 C16.0698099,13.6957952 20.2472578,8.69644424 20.2472578,6.71236236 C20.7043292,5.28499308 18.6725285,5.0564618 16.1554062,4.42757102 C16.378875,2.24162378 16.6717847,2 16.6717847,2 C19.067221,2.4252661 22.3307824,2.51557736 22.9446838,5.88826184 C23.3539514,8.13671816 21.4921845,12.2399363 17.3593832,18.1979164 L19.0299961,33.5546796 C16.4257966,33.8515599 13.984491,34 11.7060793,34 C9.4276676,34 7.06585859,33.8515599 4.62065229,33.5546796 L5.8788083,17.4874568 C3.4936597,18.7097078 2.30108541,20.0694906 2.30108541,21.5668053 C2.30108541,23.06412 3.07427437,24.2924193 4.62065229,25.2517032 L4.62065229,27.5160137 C1.54021743,25.9605303 0,23.9055245 0,21.3509965 C0.48036276,16.8145006 3.82087182,13.9907797 10.0215272,12.8798339 L12.7217801,12.8798339 Z" id="Path-41" fill="#BAC0C4"></path>
                        <path d="M6.45590908,25.979852 C7.48612541,26.1005497 7.97096482,26.2190043 7.91042732,26.335216 C7.81962107,26.5095334 7.53085969,26.5458566 7.084396,26.5194044 C7.06206305,26.5746804 7.94341329,26.8236415 7.99051109,27.5210219 C8.03760889,28.2184022 7.03333401,28.0613364 6.59411597,28.0262909 C6.02401013,27.9808018 5.5307035,27.7963079 5.08768359,27.6525281 C5.06114616,27.2595866 5.02150773,26.6726578 4.96876831,25.8917415 L6.45590908,25.979852 Z" id="Path-54" fill="#F9C7C7"></path>
                        <path d="M14.9359805,8 C15.1462654,8 14.7711724,7.68432566 14.7711724,7.17948533 C14.7711724,6.674645 14.5864076,6 14.3761227,6 C14.1658377,6 13.8813331,6.33331638 14.0524563,7 C14.2235796,7.66668362 14.7256955,8 14.9359805,8 Z" id="Oval-7" fill="#F9C7C7" transform="translate(14.500000, 7.000000) scale(-1, 1) translate(-14.500000, -7.000000) "></path>
                        <path d="M7.9065021,8 C8.11687238,8 7.9065021,7.49742699 7.9065021,6.94649276 C7.9065021,6.39555854 7.5175941,6 7.30722382,6 C7.09685353,6 6.87580292,6.35052006 7.08290487,6.94649276 C7.29000682,7.54246547 7.69613181,8 7.9065021,8 Z" id="Oval-7" fill="#F9C7C7"></path>
                        <path d="M14.9278476,8 C15.1648465,8 14.7421029,7.63602824 14.7421029,7.05394853 C14.7421029,6.47186883 14.4897119,6 14.2527131,6 C14.0157143,6 14,6.4179203 14,7 C14,7.5820797 14.6908488,8 14.9278476,8 Z" id="Oval-7" fill="#F9C7C7" transform="translate(14.500000, 7.000000) scale(-1, 1) translate(-14.500000, -7.000000) "></path>
                        <path d="M13.4542853,3.30983767 C11.7381225,1.70680536 10.3829258,1.57516487 9.38869534,2.91491623 C8.13165102,4.71402012 7.355077,6.13102186 7.05897329,7.16592145 C6.61481773,8.71827083 8.76598052,11.1582941 10.607881,10.9919172 C11.8358146,10.8809993 13.0717239,10.1564131 14.315609,8.81815855 C15.4575561,6.74897695 15.1704482,4.91286999 13.4542853,3.30983767 Z" id="Path-14" fill="#F9C7C7" transform="translate(11.000000, 6.500000) rotate(-45.000000) translate(-11.000000, -6.500000) "></path>
                        <path d="M7.03701301,5.70664906 C6.88087407,4.08744556 7.2187378,2.88024806 8.05060418,2.08505658 C9.29840375,0.892269364 10.5248679,0.838198623 12.4749389,1.18787315 C14.42501,1.53754768 15.5812158,2.41743969 15.8782271,3.48865689 C16.1752384,4.55987408 15.9190966,6.05472892 15.2172228,6.42681365 C15.1470666,6.48133695 14.9547506,7.0057324 14.6402749,8 C14.8913669,6.25047083 14.8913669,5.37570624 14.6402749,5.37570624 C12.9933481,5.37570624 13.0330121,5.75615185 11.6313596,5.37570624 C10.229707,4.99526063 9.06341906,4.18854561 8.86509998,3.98601732 C8.66678091,3.78348902 7.14934655,5.22959309 7.6048636,7.24290302 C7.67153071,7.74982241 7.48224718,7.23773776 7.03701301,5.70664906 Z" id="Path-34" fill="#7D8085"></path>
                        <path d="M12.8252464,10 L13,13.3986384 C12.8834976,13.7995461 12.4420226,14 11.6755751,14 C10.9091276,14 10.4088538,13.7995461 10.1747536,13.3986384 L10,10 L12.8252464,10 Z" id="Path-15" fill="#F9C7C7"></path>
                        <path d="M7.18773049,62 C7.57713441,62.2736365 8.02731133,62.4164433 8.53826123,62.4284205 C9.04921114,62.4403976 9.51610891,62.2975908 9.93895454,62 L10.515575,63.4696751 C10.5939252,63.9776954 10.5939252,64.3024161 10.515575,64.4438372 C10.4372247,64.5852583 10.1370176,64.6736427 9.61495361,64.7089905 L6.71150486,64.9075046 C4.23716829,64.8719403 3,64.697476 3,64.3841117 C3,64.0707475 3.97641096,63.6364395 5.92923287,63.0811878 L7.18773049,62 Z M17.8429065,62 L18.7440244,63.1518003 C20.577521,63.8019144 21.2934158,64.3209778 20.8917089,64.7089905 C20.490002,65.0970032 18.8338112,65.0970032 15.9231366,64.7089905 C15.4010726,64.6736427 15.1008655,64.5852583 15.0225153,64.4438372 C14.944165,64.3024161 14.944165,63.9776954 15.0225153,63.4696751 L15.1734584,62 C15.8800889,62.2975908 16.4888791,62.4403976 16.999829,62.4284205 C17.5107789,62.4164433 17.7918048,62.2736365 17.8429065,62 Z" id="Combined-Shape" fill="#72787D"></path>
                    </g>
                    <g id="computer" transform="translate(36.000000, 19.000000)">
                        <mask id="mask-4" fill="white">
                            <use xlink:href="#path-3"></use>
                        </mask>
                        <use id="Combined-Shape" fill="#E3E3E3" xlink:href="#path-3"></use>
                        <rect id="Rectangle-46" fill="#E8EAEB" x="0" y="0" width="100" height="74" rx="6"></rect>
                        <rect id="Rectangle-46" fill="#D2D3D4" x="5" y="5" width="90" height="62" rx="4"></rect>
                    </g>
                    <g id="zzz" transform="translate(94.000000, 0.000000)" fill="#000000" font-family="PingFangSC-Semibold, PingFang SC" font-weight="500" opacity="0.300000012">
                        <text id="Z" font-size="12">
                            <tspan x="0" y="52">Z</tspan>
                        </text>
                        <text id="Z" font-size="16">
                            <tspan x="15" y="37">Z</tspan>
                        </text>
                        <text id="Z" font-size="20">
                            <tspan x="35" y="21">Z</tspan>
                        </text>
                    </g>
                    <g id="cloud" transform="translate(2.000000, 24.000000)" fill="url(#linearGradient-5)" opacity="0.800000012">
                        <path d="M0.372245492,42.2406768 C0.618474167,40.3478786 1.44467063,39.4014795 2.85083489,39.4014795 C4.25699915,39.4014795 5.16478604,39.8145684 5.57419557,40.6407462 C5.48286575,36.8802487 6.47666801,35 8.55560235,35 C10.6345367,35 12.1467931,36.8802487 13.0923717,40.6407462 C15.3043641,38.4241588 16.9483008,38.4241588 18.0241818,40.6407462 C19.1000628,42.8573337 20.3177647,44.4648846 21.6772874,45.463399 L25,46.5384615 C11.8323661,46.5384615 4.22384435,46.5384615 2.17443474,46.5384615 C0.125025124,46.5384615 -0.475704623,45.1058666 0.372245492,42.2406768 Z" id="Path-6" transform="translate(12.500000, 40.769231) scale(-1, 1) translate(-12.500000, -40.769231) "></path>
                        <path d="M137.446695,8.68881212 C137.742169,6.41745428 138.733605,5.28177537 140.421002,5.28177537 C142.108399,5.28177537 143.197743,5.77748207 143.689035,6.76889548 C143.579439,2.25629849 144.772002,3.32476709e-16 147.266723,0 C149.761444,0 151.576152,2.25629849 152.710846,6.76889548 C155.365237,4.10899051 157.337961,4.10899051 158.629018,6.76889548 C159.920075,9.42880044 161.381318,11.3578616 163.012745,12.5560788 L167,13.8461538 C151.198839,13.8461538 142.068613,13.8461538 139.609322,13.8461538 C137.15003,13.8461538 136.429154,12.1270399 137.446695,8.68881212 Z" id="Path-6"></path>
                    </g>
                </g>
            </g>
        </g>
    </g>
</svg>