<svg xmlns="http://www.w3.org/2000/svg" viewBox="1754 1124 16 16">
  <g id="eventWhite" transform="translate(1562 1044)">
    <path id="Fill1" fill="#ffb900" d="M192.5,83.612v3.138L193.752,88,192.5,89.249v3.231h15.048V89.456L206.095,88l1.456-1.456V83.612Z"/>
    <rect id="Fill2" fill="#8e562e" width="6" height="2" transform="translate(196 86)"/>
    <path id="Contour" fill="#fff" d="M16-9.812a.969.969,0,0,0-.391.078,1.016,1.016,0,0,0-.316.215,1.016,1.016,0,0,0-.215.316A.969.969,0,0,0,15-8.812a.969.969,0,0,0,.078.391,1.016,1.016,0,0,0,.215.316,1.016,1.016,0,0,0,.316.215A.969.969,0,0,0,16-7.812v4H0v-4a.969.969,0,0,0,.391-.078,1.016,1.016,0,0,0,.316-.215,1.016,1.016,0,0,0,.215-.316A.969.969,0,0,0,1-8.812.969.969,0,0,0,.922-9.2,1.016,1.016,0,0,0,.707-9.52a1.016,1.016,0,0,0-.316-.215A.969.969,0,0,0,0-9.812v-4H16Zm-1-3H1v2.266a1.987,1.987,0,0,1,.734.734,1.969,1.969,0,0,1,.266,1,1.969,1.969,0,0,1-.266,1A1.987,1.987,0,0,1,1-7.078v2.266H15V-7.078a1.987,1.987,0,0,1-.734-.734,1.969,1.969,0,0,1-.266-1,1.969,1.969,0,0,1,.266-1A1.987,1.987,0,0,1,15-10.547Z" transform="translate(192 96.813)"/>
  </g>
</svg>
