<svg xmlns="http://www.w3.org/2000/svg" viewBox="330 2352 16 16">
  <g id="examWhite" transform="translate(138 2273)">
    <path id="Path_148" fill="#00bcf2" data-name="Path 148" d="M0,0H10V14H0Z" transform="translate(194 80)"/>
    <path id="Path_145" fill="#ffffff" data-name="Path 145" d="M15.879,3.938a1.548,1.548,0,0,0-.332-.492,1.512,1.512,0,0,0-.5-.328A1.6,1.6,0,0,0,14.438,3a1.627,1.627,0,0,0-.594.113,1.5,1.5,0,0,0-.508.332L13,3.782V0H1V1H0V2H1V4H0V5H1V7H0V8H1v2H0v1H1v2H0v1H1v2H13V8.2l2.547-2.554a1.5,1.5,0,0,0,.336-.508A1.563,1.563,0,0,0,16,4.547,1.515,1.515,0,0,0,15.879,3.938ZM12,15H2V1H12V4.783L7.734,9.055,7,12l2.945-.734L12,9.2Zm0-8.8V7.785L9.43,10.359l-1.055.266L8.641,9.57Zm2.836-1.256L13,6.784V5.2l1.047-1.05a.461.461,0,0,1,.18-.113A.649.649,0,0,1,14.438,4a.561.561,0,0,1,.4.152.524.524,0,0,1,.16.395A.543.543,0,0,1,14.836,4.945Z" transform="translate(192 79)"/>
    <path id="Path_135" fill="#ffffff" data-name="Path 135" d="M0,0H6V1H0Z" transform="translate(196 82)"/>
    <path id="Path_146" fill="#ffffff" data-name="Path 146" d="M6.938,8H4V7H8Z" transform="translate(192 79)"/>
    <path id="Path_134" fill="#ffffff" data-name="Path 134" d="M0,0H2.012V1H0Z" transform="translate(196 90)"/>
    <path id="Path_147" fill="#ff8c00" data-name="Path 147" d="M14.836,4.945a.543.543,0,0,0,.164-.4.525.525,0,0,0-.16-.395.557.557,0,0,0-.4-.152.649.649,0,0,0-.211.035.481.481,0,0,0-.18.113L8.641,9.57l-.266,1.055,1.055-.266Z" transform="translate(192 79)"/>
  </g>
</svg>
