<?xml version="1.0" encoding="UTF-8"?>
<svg width="398px" height="133px" viewBox="0 0 398 133" version="1.1" xmlns="http://www.w3.org/2000/svg" xmlns:xlink="http://www.w3.org/1999/xlink">
    <!-- Generator: Sketch 59.1 (86144) - https://sketch.com -->
    <title>示范</title>
    <desc>Created with Sketch.</desc>
    <g id="示范" stroke="none" stroke-width="1" fill="none" fill-rule="evenodd">
        <g>
            <path d="M4,0 L394,0 C396.209139,-4.05812251e-16 398,1.790861 398,4 L398,129 C398,131.209139 396.209139,133 394,133 L4,133 C1.790861,133 2.705415e-16,131.209139 0,129 L0,4 C-2.705415e-16,1.790861 1.790861,4.05812251e-16 4,0 Z" id="矩形" fill="#E0E9F2"></path>
            <path d="M61.03,97.46 L61.24,98.23 L62.3583296,98.0012149 C72.6242806,95.8251962 78.122069,92.4948276 82.38,86.75 C87.07,80.45 88.68,71.07 88.68,58.68 C89.94,58.47 90.5,57.98 90.57,56.93 L96.52,56.93 L96.52,69.74 L96.24,86.68 L96.2418198,87.20843 C96.2989745,95.1632497 97.7637729,96.3611123 109.199938,96.4084841 L109.96,96.41 C119.06,96.41 123.05,95.64 124.45,94.8 C126.2,93.75 127.04,92.28 127.04,90.39 C127.04,88.85 126.41,88.01 125.71,87.38 C124.725625,86.46125 124.418008,85.5425 124.383401,84.4507153 L124.38,84.23 C124.38,82.48 124.52,79.19 124.94,74.92 L124.17,74.78 L123.841926,75.7577783 C122.20207,80.5478906 120.57375,83.85375 119.13,85.56 L118.9527,85.7692925 C117.679565,87.2308395 116.294222,87.87 111.01,87.87 L109.391492,87.8640593 C105.381607,87.82125 105.27,87.4775 105.27,84.79 L105.27,58.68 C106.67,58.4 107.09,57.91 107.16,56.93 L123.68,56.93 C125.64,56.93 126.06,56.72 126.06,56.02 L126.052602,55.8293878 C125.984286,55.0182143 125.39,54.345 122.14,51.68 L121.376506,51.0592718 C118.822514,49.0096 117.932,48.6 117.1,48.6 L117.039122,48.6042969 C116.462265,48.6845429 115.337719,49.9287719 111.15,55.67 L80.9612504,55.6680919 C73.1418667,55.6500889 66.8306667,55.502 61.8,55.11 L62.43,57.49 L63.3824235,57.4181633 C67.6064286,57.1203571 73.085,56.995 79.65,56.93 L79.6445669,58.7641578 C79.5646396,71.8755427 78.5975106,77.6235096 76.3911441,82.4033778 L76.29,82.62 C73.42,88.85 68.94,93.96 61.03,97.46 Z M105.06,38.94 L86.79,38.94 L84.5445869,38.9353504 C78.2203686,38.908038 73.2775862,38.7565517 69.01,38.38 L69.64,40.76 C73.98,40.34 79.58,40.2 86.79,40.2 L117.17,40.2 C118.29,40.2 118.64,39.99 118.64,39.36 L118.636578,39.2581198 C118.594595,38.6635281 118.131081,38.03 115.35,35.58 L114.391115,34.7424221 C112.184256,32.8349827 111.355882,32.29 110.8,32.29 L110.713161,32.2950536 C109.948285,32.3840055 108.834815,33.6822222 105.06,38.94 Z M153.08,79.19 L173.8,79.19 L173.8,83.25 C173.8,85.49 174.22,85.7 176.67,85.7 C181.08,85.7 183.18,84.37 183.18,80.94 L182.55,54.69 L182.55,43.84 L183.023846,43.6496905 C184.813195,42.9018343 185.35,42.3053846 185.35,41.53 C185.35,40.62 184.65,39.99 181.36,37.4 L180.643591,36.8522014 C178.40843,35.1692562 177.656364,34.88 177.02,34.88 C176.39,34.88 175.48,35.72 172.68,38.73 L154.48,38.73 L154.3421,38.6374817 C153.25586,37.9499433 150.496087,37.0591304 144.47,35.72 L143.98,36.21 C144.61,37.54 144.82,38.94 144.82,41.6 L144.82,54.27 L144.33,84.93 L144.333729,85.316449 C144.3764,87.3255429 144.812,87.45 146.99,87.45 L147.510782,87.4448563 C151.162519,87.3699407 153.08,86.4513333 153.08,83.04 L153.08,79.19 Z M153.08,58.05 L153.08,41.11 C153.99,40.76 154.48,40.34 154.76,39.99 L173.8,39.99 L173.8,58.05 L153.08,58.05 Z M153.08,59.31 L173.8,59.31 L173.8,77.93 L153.08,77.93 L153.08,59.31 Z M183.67,93.26 L148.67,93.26 L147.273767,93.2570023 C142.048194,93.2347222 135.749167,93.085 131.45,92.7 L132.08,95.08 C136.13,94.675 142.718482,94.5303571 148.079566,94.5205421 L194.94,94.52 C196.2,94.52 196.62,94.31 196.62,93.47 L196.616375,93.3419907 C196.575662,92.6592747 196.160079,91.9489043 193.796403,89.8834722 L192.648051,88.8951044 C190.666398,87.2125238 189.947548,86.7793475 189.272243,86.751474 L189.2,86.75 C188.43,86.75 187.73,87.59 183.67,93.26 Z M266.41,67.99 C267.39,67.99 267.74,67.71 267.74,67.01 L267.735004,66.8574831 C267.699171,66.3788956 267.429689,65.8178437 265.68654,63.9343087 L264.243632,62.385635 C263.249231,61.3342012 262.764615,60.92 262.28,60.92 C261.79,60.92 261.16,62.11 258.71,66.73 L258.08,66.73 L258.08,53.29 L258.549363,53.0724575 C260.109735,52.3166163 260.81,51.6191304 260.81,50.98 C260.81,50.2566667 260.192277,49.5951056 257.796262,47.7186899 L257.31,47.34 C254.86,45.45 253.74,44.89 253.11,44.89 C252.55,44.89 251.5,45.73 249.05,49.02 L243.8,49.02 L243.8,37.61 C246.18,36.84 246.88,36.28 246.88,35.37 L246.874608,35.258637 C246.756124,34.0678971 244.631642,33.3786567 235.26,32.36 L234.77,32.85 C235.4,34.32 235.61,36.07 235.61,39.22 L235.61,49.02 L234.007755,48.9853061 C230.891429,48.9057143 228.26,48.76 225.32,48.46 L225.95,50.84 C229.03,50.49 231.9,50.35 235.61,50.28 L235.61,52.45 C235.61,57.77 235.4,62.53 234.91,66.73 C229.03,66.73 225.18,66.59 220.21,66.17 L220.84,68.55 C225.46,68.13 229.17,67.99 234.77,67.99 C233.93,74.15 232.6,79.12 230.5,83.11 C227.14,89.55 222.73,94.24 216.85,97.6 L217.27,98.23 C225.18,96.27 231.41,91.65 236.03,85.77 C239.67,81.15 241.77,75.48 242.89,67.99 L243.1,67.99 C244.15,81.71 248.56,89.83 258.92,96.9 C259.69,97.39 260.04,97.53 260.53,97.53 C261.09,97.53 261.51,96.97 261.79,96.34 C263.33,92.84 265.22,90.32 267.81,89.2 L267.81,88.43 C257.17,85.63 248.14,79.12 244.36,67.99 L266.41,67.99 Z M243.03,66.73 C243.558889,62.6972222 243.775586,58.1025 243.798032,52.8868639 L243.8,50.28 L249.96,50.28 L249.96,66.73 L243.03,66.73 Z M217.62,46.36 L217.62,37.12 L218.065222,36.9414182 C219.676768,36.278768 220.21,35.846 220.21,34.88 L220.204748,34.7874976 C220.096208,33.8553439 218.252222,33.1711111 209.78,32.29 L209.29,32.85 L209.414004,33.1067749 C209.959512,34.2822485 210.049473,35.193103 210.059043,38.1371704 L210.06,54.34 L209.5,95.85 L209.504924,96.2240774 C209.557337,98.0529109 210.051515,98.3 212.09,98.3 C216.01,98.3 218.25,96.34 218.25,93.26 L217.62,53.71 L217.62,47.76 C219.23,49.65 219.65,52.03 219.51,55.6 C219.37,58.12 220.84,59.24 222.59,59.24 C224.83,59.24 226.37,57.91 226.37,54.83 C226.37,50.7 223.43,48.04 217.62,46.36 Z M205.16,46.01 L204.46,46.22 L204.574829,46.8158125 C204.759882,47.823787 204.81,48.4115385 204.81,49.3 C204.81,52.135 204.289286,54.514375 202.180858,56.8774777 L201.94,57.14 C200.61,58.54 200.05,59.94 200.05,61.55 C200.05,64.28 201.45,65.75 203.76,65.75 C206.63,65.75 209.01,63.65 209.01,57.77 C209.01,52.94 207.47,49.3 205.16,46.01 Z M294.13,42.65 C305.283389,40.783324 314.84996,37.7966872 322.83,33.69 C324.463341,35.3700084 326.073325,37.1316574 327.66,38.975 L328.690162,40.1785749 C329.678946,41.3417505 330.315554,42.1188869 330.6,42.51 C330.973335,43.0233359 331.16,43.4316651 331.16,43.735 C331.16,44.0383348 330.938336,44.19 330.495,44.19 C330.140332,44.19 329.748334,44.152667 329.319001,44.0780002 L328.99,44.015 C328.499998,43.9129162 327.170375,43.8554947 325.001098,43.8427344 L323.248676,43.8415949 C316.55771,43.8687075 306.431577,44.2415058 292.87,44.96 C292.169997,45.3800021 290.653345,51.423275 288.32,63.09 L303.16,63.09 L303.16,54.48 C303.16,52.146655 303.113334,50.0700091 303.02,48.25 C304.742009,48.4180008 306.662442,48.6710486 308.781347,49.0091495 L309.495,49.125 C311.898345,49.5216686 313.391664,49.8599986 313.975,50.14 C314.558336,50.4200014 314.85,50.6999986 314.85,50.98 C314.85,51.5866697 314.033342,52.0766648 312.4,52.45 L312.4,63.09 L323.53,63.09 C324.183337,61.7833268 324.894996,60.4883397 325.665,59.205 L326.308263,58.1488451 C326.722339,57.4821135 327.009583,57.052501 327.17,56.86 C327.403334,56.5799986 327.659999,56.44 327.94,56.44 C328.500003,56.44 330.214986,57.6649877 333.085,60.115 L334.124297,61.015607 C336.301442,62.9344572 337.39,64.1275783 337.39,64.595 C337.39,65.1316693 336.900005,65.4 335.92,65.4 L312.4,65.4 L312.4,90.25 C312.4,92.9566802 311.991671,94.8699944 311.175,95.99 C310.358329,97.1100056 308.958343,97.9149976 306.975,98.405 C304.991657,98.8950024 303.136675,99.14 301.41,99.14 C300.429995,99.14 299.870001,98.5566725 299.73,97.39 C299.543332,95.5699909 298.925005,94.2166711 297.875,93.33 C296.824995,92.4433289 295.553341,91.8600014 294.06,91.58 L293.589875,91.4883947 C292.409953,91.2487234 291.82,91.0459268 291.82,90.88 C291.82,90.7018173 292.670405,90.6086776 294.371239,90.6005785 L294.62,90.6 C297.513348,90.6 299.659993,90.3783356 301.06,89.935 C302.460007,89.4916645 303.16,88.5000077 303.16,86.96 L303.16,65.4 L288.39,65.4 L286.57,67.43 C286.149998,67.8500021 285.706669,68.06 285.24,68.06 C284.794543,68.06 283.658139,67.5497572 281.830755,66.5292569 L280.1245,65.5573532 C279.006042,64.9094191 278.319547,64.4836374 278.065,64.28 C277.714998,63.9999986 277.54,63.7083348 277.54,63.405 C277.54,63.1249986 277.858103,62.7654752 278.494319,62.3264206 L278.66,62.215 C279.40667,61.7249975 279.954998,61.0950038 280.305,60.325 L280.383393,60.1382138 C280.737799,59.2344038 281.28333,57.1033501 282.02,53.745 L282.34729,52.213085 C283.077987,48.7092461 283.948884,44.0049184 284.96,38.1 C288.040015,39.4533401 291.096652,40.9699916 294.13,42.65 Z M290,70.02 C292.10001,70.953338 294.188323,71.9799944 296.265,73.1 L297.493643,73.7708906 C298.817161,74.504502 299.597608,74.9808685 299.835,75.2 C300.138335,75.4800014 300.29,75.7599986 300.29,76.04 C300.29,76.4276942 299.991778,76.6762129 299.395326,76.7855621 L299.24,76.81 C298.539997,76.9033338 297.828337,77.1949976 297.105,77.685 L296.934821,77.8048217 C296.131606,78.3882743 294.473346,79.8066554 291.96,82.06 L291.231945,82.7025732 C288.731877,84.8762392 285.49964,87.3674604 281.535163,90.176293 L280.269726,91.0663912 C276.038019,94.0221445 273.611467,95.5 272.99,95.5 C272.849999,95.5 272.78,95.4300007 272.78,95.29 C272.78,95.1639994 272.968998,94.9246016 273.346999,94.5718005 L273.48,94.45 C276.746683,91.5099853 279.873318,87.8700217 282.86,83.53 C285.846682,79.1899783 288.226658,74.68669 290,70.02 Z M314.71,71.42 C315.596671,71.42 318.06998,72.3066578 322.13,74.08 C326.19002,75.8533422 329.363322,77.8599888 331.65,80.1 C333.936678,82.3400112 335.08,84.5799888 335.08,86.82 C335.08,88.686676 334.590005,90.1916609 333.61,91.335 C332.629995,92.4783391 331.416674,93.05 329.97,93.05 C328.523326,93.05 327.415004,92.688337 326.645,91.965 C325.929996,91.29333 325.506726,90.3701837 325.375179,89.1955369 L325.35,88.92 C324.836664,82.4333009 321.523364,77.0200217 315.41,72.68 L315.111774,72.4745555 C314.610589,72.1161327 314.36,71.8579495 314.36,71.7 C314.36,71.5133324 314.476666,71.42 314.71,71.42 Z" id="元旦快乐" fill="#6E9AB2" fill-rule="nonzero"></path>
        </g>
    </g>
</svg>