<?xml version="1.0" encoding="UTF-8"?>
<svg width="160px" height="120px" viewBox="0 0 160 120" version="1.1" xmlns="http://www.w3.org/2000/svg" xmlns:xlink="http://www.w3.org/1999/xlink">
    <!-- Generator: Sketch 59.1 (86144) - https://sketch.com -->
    <title>搜索为空</title>
    <desc>Created with Sketch.</desc>
    <defs>
        <linearGradient x1="32.3852539%" y1="100%" x2="32.3852539%" y2="0%" id="linearGradient-1">
            <stop stop-color="#E2E8F2" offset="0%"></stop>
            <stop stop-color="#CAD6E3" offset="100%"></stop>
        </linearGradient>
        <linearGradient x1="32.3852539%" y1="100%" x2="32.3852539%" y2="0%" id="linearGradient-2">
            <stop stop-color="#E2E8F2" offset="0%"></stop>
            <stop stop-color="#CAD6E3" offset="100%"></stop>
        </linearGradient>
        <linearGradient x1="32.3852539%" y1="100%" x2="32.3852539%" y2="0%" id="linearGradient-3">
            <stop stop-color="#E2E8F2" offset="0%"></stop>
            <stop stop-color="#CAD6E3" offset="100%"></stop>
        </linearGradient>
        <linearGradient x1="32.3852539%" y1="100%" x2="32.3852539%" y2="0%" id="linearGradient-4">
            <stop stop-color="#E2E8F2" offset="0%"></stop>
            <stop stop-color="#CAD6E3" offset="100%"></stop>
        </linearGradient>
        <linearGradient x1="32.3852539%" y1="100%" x2="32.3852539%" y2="0%" id="linearGradient-5">
            <stop stop-color="#E2E8F2" offset="0%"></stop>
            <stop stop-color="#CAD6E3" offset="100%"></stop>
        </linearGradient>
        <linearGradient x1="32.3852539%" y1="100%" x2="32.3852539%" y2="0%" id="linearGradient-6">
            <stop stop-color="#E2E8F2" offset="0%"></stop>
            <stop stop-color="#CAD6E3" offset="100%"></stop>
        </linearGradient>
        <linearGradient x1="32.3852539%" y1="100%" x2="32.3852539%" y2="3.71621622%" id="linearGradient-7">
            <stop stop-color="#D7DDE8" offset="0%"></stop>
            <stop stop-color="#E1E6F0" offset="100%"></stop>
        </linearGradient>
        <linearGradient x1="32.3852539%" y1="100%" x2="32.3852539%" y2="3.71621622%" id="linearGradient-8">
            <stop stop-color="#FEFEFE" offset="0%"></stop>
            <stop stop-color="#FFFFFF" offset="100%"></stop>
        </linearGradient>
        <polygon id="path-9" points="31.3043478 36.8878662 20.6276688 42.2824212 22.6869437 30.8933773 14.0291184 22.8383518 25.9784992 21.1940906 31.3043478 10.821256 36.6301965 21.1940906 48.5795773 22.8383518 39.921752 30.8933773 41.9810268 42.2824212"></polygon>
        <filter x="2.4%" y="0.0%" width="95.1%" height="90.5%" filterUnits="objectBoundingBox" id="filter-10">
            <feOffset dx="0" dy="0" in="SourceAlpha" result="shadowOffsetOuter1"></feOffset>
            <feColorMatrix values="0 0 0 0 0.843137255   0 0 0 0 0.866666667   0 0 0 0 0.909803922  0 0 0 1 0" type="matrix" in="shadowOffsetOuter1"></feColorMatrix>
        </filter>
    </defs>
    <g id="4期" stroke="none" stroke-width="1" fill="none" fill-rule="evenodd">
        <g id="D-002-缺省图替换" transform="translate(-1200.000000, -426.000000)">
            <g id="对话框" transform="translate(912.000000, 234.000000)">
                <g id="搜索为空" transform="translate(248.000000, 168.000000)">
                    <g id="暂无收藏" transform="translate(40.000000, 24.000000)">
                        <g id="编组-14" transform="translate(0.000000, 12.000000)">
                            <g id="无标签">
                                <g id="shadows" transform="translate(18.164251, 93.913043)" fill="#4C649A">
                                    <ellipse id="shadow" opacity="0.0591517857" cx="62.0289855" cy="1.54589372" rx="22.2222222" ry="1.15942029"></ellipse>
                                    <ellipse id="shadow" opacity="0.102585565" cx="15.8454106" cy="1.15942029" rx="15.8454106" ry="1.15942029"></ellipse>
                                </g>
                                <g id="trees" transform="translate(0.000000, 54.492754)" opacity="0.503882999">
                                    <g id="tree/white-" transform="translate(0.000000, 12.367150)">
                                        <g id="tree">
                                            <rect id="矩形复制-10" fill="url(#linearGradient-1)" x="3.01449275" y="9.49297123" width="1" height="8.10375593"></rect>
                                            <path d="M3.34806222,-4.26325641e-14 C3.87740905,-4.27298036e-14 4.34184283,0.352857399 4.48373097,0.862833697 L6.83236961,9.30434324 C7.34093844,11.1322484 6.27140505,13.0263347 4.44349993,13.5349036 C4.1436629,13.6183257 3.83388041,13.6606171 3.52265461,13.6606171 C1.57786168,13.6606171 0.0012955082,12.084051 0.0012955082,10.139258 C0.0012955082,9.84839352 0.0373331281,9.55864951 0.108584856,9.2766471 L2.23306268,0.868319386 C2.36207168,0.357723369 2.82142039,-4.25358216e-14 3.34806222,-4.26325641e-14 Z" id="矩形复制-11" fill="url(#linearGradient-2)"></path>
                                        </g>
                                    </g>
                                    <g id="tree/white-" transform="translate(135.652174, 0.000000)">
                                        <g id="tree">
                                            <rect id="矩形复制-10" fill="url(#linearGradient-3)" x="6.02898551" y="18.9859425" width="1.85507246" height="16.2075119"></rect>
                                            <path d="M6.69612443,-4.26325641e-14 C7.75481809,-4.2827043e-14 8.68368567,0.705714797 8.96746194,1.72566739 L13.6647392,18.6086865 C14.6818769,22.2644967 12.5428101,26.0526695 8.88699985,27.0698071 C8.28732579,27.2366514 7.66776081,27.3212343 7.04530921,27.3212343 C3.15572336,27.3212343 0.0025910164,24.1681019 0.0025910164,20.2785161 C0.0025910164,19.696787 0.0746662562,19.117299 0.217169712,18.5532942 L4.46612537,1.73663877 C4.72414336,0.715446738 5.64284078,-4.24390791e-14 6.69612443,-4.26325641e-14 Z" id="矩形复制-11" fill="url(#linearGradient-4)"></path>
                                        </g>
                                    </g>
                                    <g id="tree/white-" transform="translate(151.497585, 19.710145)">
                                        <g id="tree">
                                            <rect id="矩形复制-10" fill="url(#linearGradient-5)" x="3.58480219" y="11.2889388" width="1.10301606" height="9.63689894"></rect>
                                            <path d="M3.98147939,-4.26325641e-14 C4.61097292,-4.27482002e-14 5.16327256,0.419614204 5.3320044,1.02607251 L8.12498008,11.0646244 C8.72976463,13.2383494 7.45788709,15.4907764 5.28416207,16.095561 C4.92759912,16.1947657 4.55920913,16.2450582 4.18910278,16.2450582 C1.87637605,16.2450582 0.00154060435,14.3702228 0.00154060435,12.057496 C0.00154060435,11.7116031 0.0443961523,11.3670427 0.129127937,11.0316884 L2.655534,1.03259603 C2.8089501,0.425400763 3.35520262,-4.2517519e-14 3.98147939,-4.26325641e-14 Z" id="矩形复制-11" fill="url(#linearGradient-6)"></path>
                                        </g>
                                    </g>
                                </g>
                                <g id="ic" transform="translate(48.695652, 0.000000)">
                                    <path d="M3.8647343,0.139040753 L58.7439614,0.139040753 C60.8783952,0.139040753 62.6086957,1.86934124 62.6086957,4.00377505 L62.6086957,76.4785777 C62.6086957,77.759238 61.5705154,78.7974183 60.2898551,78.7974183 C59.8289071,78.7974183 59.3784178,78.6600398 58.9959087,78.4028242 L31.3043478,59.7818239 L31.3043478,59.7818239 L3.61278693,78.4028242 C2.55005494,79.117451 1.10922094,78.835256 0.394594107,77.772524 C0.137378515,77.390015 9.44628266e-16,76.9395257 0,76.4785777 L0,4.00377505 C-2.61392754e-16,1.86934124 1.73030048,0.139040753 3.8647343,0.139040753 Z" id="矩形" fill="url(#linearGradient-7)"></path>
                                    <g id="Star-Copy">
                                        <use fill="black" fill-opacity="1" filter="url(#filter-10)" xlink:href="#path-9"></use>
                                        <use fill="url(#linearGradient-8)" fill-rule="evenodd" xlink:href="#path-9"></use>
                                    </g>
                                </g>
                                <g id="female_15" transform="translate(22.028986, 66.859903)">
                                    <g>
                                        <path d="M12.1706966,0.77294686 C10.1673104,0.77294686 8.88888889,2.2990715 8.88888889,4.27210062 C8.88888889,6.24512974 9.7987356,6.72507171 12.1708731,6.72507171 C14.5430105,6.72507171 15.4525043,6.12668373 15.4525043,4.27210062 C15.4525043,2.41751751 14.1740828,0.77294686 12.1706966,0.77294686 Z" id="Path" fill="#1C1D1F"></path>
                                        <path d="M12.1708731,8.46172535 C14.5868996,8.46172535 18.3035437,10.7723272 18.3035437,13.52657 C18.3035437,14.6859903 16.4167776,18.3052159 16.4167776,19.7101449 C16.4167776,21.115074 16.5277793,22.9095477 15.1696498,23.909793 C14.7930303,24.1871685 12.2760843,24.8502126 11.3844558,24.9039053 C10.6710511,24.9468657 9.18205274,24.7250397 6.91746074,24.2384275 C7.17140519,21.6679898 7.2226892,19.6432644 7.07131277,18.1642512 C6.9572895,17.0501945 6.36902906,14.3140606 6.18370779,13.1400966 C6.36523181,9.68145158 9.7548465,8.46172535 12.1708731,8.46172535 Z" id="路径-108-copy" fill="#417FF9"></path>
                                        <path d="M13.8393408,4.36194315 L14.058992,4.2656164 C14.5780216,4.01090817 14.7366888,4.30135792 14.7787056,4.65051108 L14.7935617,4.64606189 L14.7935617,4.64606189 L14.8792271,4.63768116 C15.1993921,4.63768116 15.4589372,4.98374126 15.4589372,5.41062802 C15.4589372,5.83751478 15.1993921,6.18357488 14.8792271,6.18357488 C14.8058953,6.18357488 14.7357437,6.16542022 14.6711625,6.1322979 C14.4510686,6.97000318 13.9087384,7.72895222 13.1869727,8.0977255 L13.1869727,8.90170687 C13.1869727,9.54203701 12.6678826,10.0611272 12.0275525,10.0611272 C11.3872223,10.0611272 10.8681322,9.54203701 10.8681322,8.90170687 L10.8681322,8.00937524 C10.2325016,7.63954522 9.83274989,6.93513688 9.65793866,6.14007247 C9.59903722,6.16863283 9.53512684,6.18357488 9.46859903,6.18357488 C9.14843396,6.18357488 8.88888889,5.83751478 8.88888889,5.41062802 C8.88888889,4.98374126 9.14843396,4.63768116 9.46859903,4.63768116 C9.52610096,4.63768116 9.58164751,4.64884384 9.63408623,4.66963262 C9.74326582,4.44717043 9.99139116,4.24005778 10.5378218,4.11958881 C11.5845756,3.88881602 12.4738644,4.88907642 13.8393408,4.36194315 Z" id="形状结合" fill="#FBD1C9"></path>
                                        <path d="M6.18370779,13.1400966 L8.5668414,13.7757782 C8.67547577,16.8933426 8.81543482,18.6138159 8.98671853,18.9371981 C9.15800225,19.2605802 9.8824116,19.9792264 11.1599466,21.0931367 C11.8603982,21.4443532 12.3277801,21.6199615 12.5620922,21.6199615 C12.649865,21.6199615 13.6151521,21.1200863 13.6151521,21.3650409 C13.6151521,21.6099956 12.9523465,22.0404356 13.0585115,22.0791582 C13.2284159,22.1411291 13.397807,22.2703858 13.5553082,22.2948983 C13.7241339,22.3211733 13.9154097,22.1856934 13.9154097,22.3840863 C13.9154097,22.767564 13.555945,23.1884058 12.840554,23.1884058 C12.3636267,23.1884058 12.0239921,23.0371801 11.8216502,22.7347288 L10.8000338,22.5285185 C8.13179665,20.9864461 6.69426834,19.7893393 6.48744886,18.9371981 C6.28062937,18.0850569 6.17938235,16.1526897 6.18370779,13.1400966 Z" id="路径-110" fill="#FBD1C9"></path>
                                        <path d="M10.0483092,13.52657 L12.3493735,14.0670026 C12.4705598,16.6693887 12.6167948,18.1322729 12.7880785,18.4556551 C12.9593622,18.7790372 13.8793629,19.3056733 15.5480806,20.0355634 C16.2485322,20.3867799 16.7159141,20.5623882 16.9502262,20.5623882 C17.037999,20.5623882 18.0032861,20.062513 18.0032861,20.3074676 C18.0032861,20.5524222 17.3404805,20.9828623 17.4466455,21.0215848 C17.6165499,21.0835557 17.785941,21.2128124 17.9434421,21.2373249 C18.1122679,21.2635999 18.3035437,21.1281201 18.3035437,21.3265129 C18.3035437,21.7099906 17.944079,22.1308324 17.228688,22.1308324 C16.7517607,22.1308324 16.4121261,21.9796068 16.2097842,21.6771555 L15.1881678,21.4709451 C12.3152771,20.8093201 10.775422,20.052437 10.5686026,19.2002958 C10.3617831,18.3481546 10.1883519,16.4569127 10.0483092,13.52657 Z" id="路径-110" fill="#FBD1C9" transform="translate(14.175926, 17.828701) scale(-1, 1) translate(-14.175926, -17.828701) "></path>
                                        <path d="M7.34303775,17.0048309 L16.8283399,17.0048309 C17.6821135,17.0048309 18.3742336,17.6969511 18.3742336,18.5507246 C18.3742336,18.5793247 18.37344,18.6079193 18.3718535,18.6364754 L18.076027,23.9613527 L18.076027,23.9613527 L6.09535068,23.9613527 L5.79952416,18.6364754 C5.75216533,17.7840164 6.40482798,17.0545699 7.25728699,17.007211 C7.28584306,17.0056246 7.31443765,17.0048309 7.34303775,17.0048309 Z" id="矩形" fill="#1C1D1F"></path>
                                        <circle id="椭圆形" fill="#D8D8D8" opacity="0.38437035" cx="11.9806763" cy="20.4830918" r="1"></circle>
                                        <path d="M3.92862313,26.6336428 C4.61698621,27.8550701 4.78907698,28.5253453 4.44489544,28.6444682 C3.92862313,28.8231527 3.14039768,28.9237543 2.73641569,29.1376407 C2.3324337,29.3515271 0.670624621,29.613227 0.43560448,28.6444682 C0.200584339,27.6757094 0.586933238,27.3341445 1.17426427,27.2102474 C1.5658183,27.1276493 2.48393791,26.9354478 3.92862313,26.6336428 Z" id="路径-149" fill="#1C1D1F"></path>
                                        <path d="M20.7290928,26.6666667 C20.224964,27.438605 20.0222061,27.8979042 20.1208191,28.0445643 C20.2687387,28.2645544 20.8339702,28.1832837 21.3152392,28.4124249 C21.7965083,28.6415661 22.567251,29.4332835 22.9764547,28.6415661 C23.3856584,27.8498487 24.0888826,27.2457294 22.9764547,27.0812997 C22.2348362,26.9716799 21.4857155,26.8334689 20.7290928,26.6666667 Z" id="路径-148" fill="#1C1D1F"></path>
                                        <path d="M20.1449516,28.11289 L20.8469203,25.9168365 C14.1371025,23.5321998 10.4168239,22.2581396 9.68608469,22.0946558 C8.58997585,21.8494301 3.95842769,19.457654 2.89958862,20.0273626 C1.84074955,20.5970713 1.00100015,20.412232 1.00100015,22.6840844 C1.00100015,24.9559367 3.78321256,25.4971505 6.26424743,25.9168365 C7.91827068,26.1966272 12.5451721,26.928645 20.1449516,28.11289 Z" id="路径-99" fill="#374460"></path>
                                        <path d="M4.05797101,26.2850053 C4.05797101,26.3720624 4.19069545,27.2212787 4.45614432,28.832654 C15.8403784,26.7864961 21.6152438,25.7634171 21.7807405,25.7634171 C22.0289855,25.7634171 23.4675989,23.4159873 22.9078918,22.1534383 C22.3481846,20.8908892 20.1018078,20.4250642 18.9426706,20.7781363 C18.1699124,21.0135178 16.2333937,21.7525601 13.1331144,22.9952634 C7.08301882,25.1013675 4.05797101,26.1979481 4.05797101,26.2850053 Z" id="路径-129" fill="#526284"></path>
                                    </g>
                                </g>
                            </g>
                        </g>
                    </g>
                </g>
            </g>
        </g>
    </g>
</svg>