<?xml version="1.0" encoding="UTF-8"?>
<svg width="16px" height="16px" viewBox="0 0 16 16" version="1.1" xmlns="http://www.w3.org/2000/svg" xmlns:xlink="http://www.w3.org/1999/xlink">
    <!-- Generator: Sketch 55.2 (78181) - https://sketchapp.com -->
    <title>icon_love</title>
    <desc>Created with Sketch.</desc>
    <g id="icon_love" stroke="none" stroke-width="1" fill="none" fill-rule="evenodd">
        <path d="M11.7184,3.3996923 C12.1127333,3.66638461 12.4246667,4.02746153 12.6546,4.48376923 C12.8846,4.94 12.9996,5.43838461 13,5.97907692 C13,6.36715385 12.9354,6.744 12.8073333,7.10976923 C12.6786,7.47515385 12.4916667,7.80053846 12.2456667,8.0853077 L8.00006667,13 L3.75406667,8.0853077 C3.50846666,7.80092308 3.32133333,7.47538462 3.19266667,7.10976923 C3.06446667,6.74361538 3,6.36692308 3,5.979 C3,5.4386923 3.115,4.9403077 3.3454,4.48376923 C3.57533333,4.02692308 3.88753333,3.66592308 4.2816,3.3996923 C4.6762,3.13346154 5.10646666,3.0003077 5.57373333,3 C5.91106666,3 6.23653333,3.07384615 6.5504,3.22138462 C6.86406666,3.36861539 7.14533333,3.586 7.39293333,3.87315385 L7.99953333,4.57492308 L8.60606666,3.87315385 C8.85193332,3.58838462 9.13273332,3.372 9.449,3.2233077 C9.76486666,3.07461538 10.0904667,3 10.4256,3 C10.8931333,3 11.3238,3.13346154 11.7184,3.3996923 Z" id="路径" fill="#A4A4A4" fill-rule="nonzero"></path>
    </g>
</svg>