<?xml version="1.0" encoding="utf-8"?>
<!-- Generator: Adobe Illustrator 19.1.1, SVG Export Plug-In . SVG Version: 6.00 Build 0)  -->
<svg version="1.1" id="Layer_1" xmlns="http://www.w3.org/2000/svg" xmlns:xlink="http://www.w3.org/1999/xlink" x="0px" y="0px"
	 viewBox="0 0 24 24" style="enable-background:new 0 0 24 24;" xml:space="preserve">
<style type="text/css">
	.st0{fill:#FFFFFF;}
</style>
<path class="st0" d="M0,0v24h24V0H0z M16.1,6.3c-0.8,0-1.6,0-2,0c-0.4,0-0.8,0.4-0.8,0.7c0,0.3,0,2,0,2s2.5,0,2.8,0
	c-0.1,1.6-0.3,3-0.3,3h-2.5v8.9H9.7V12H7.9V9h1.8c0,0,0-2,0-2.4c0-0.4-0.1-3.4,3.8-3.4c0.5,0,1.7,0,2.7,0
	C16.1,4.4,16.1,5.8,16.1,6.3z"/>
</svg>
