<svg xmlns="http://www.w3.org/2000/svg" viewBox="1634 188 16 16">  <g id="firstaidBlack" transform="translate(1442 108)">    <rect id="Fill1" fill="white" width="15" height="10.5" transform="translate(192.5 83.8)"/>    <path id="Fill2" fill="white" d="M198.536,85.627h3.1v1.953h1.9v3.006h-1.9v1.993h-3.1V90.585h-1.985V87.579h1.985Z"/>    <path fill="black" d="M7-10.937v2H5v2H7v2H9v-2h2v-2H9v-2Zm3,1h2v4H10v2H6v-2H4v-4H6v-2h4Zm4.5-4a1.472,1.472,0,0,1,.586.117,1.5,1.5,0,0,1,.477.32,1.5,1.5,0,0,1,.32.477,1.472,1.472,0,0,1,.117.586v9a1.472,1.472,0,0,1-.117.586,1.5,1.5,0,0,1-.32.477,1.5,1.5,0,0,1-.477.32,1.472,1.472,0,0,1-.586.117H1.5a1.472,1.472,0,0,1-.586-.117,1.5,1.5,0,0,1-.477-.32,1.5,1.5,0,0,1-.32-.477A1.472,1.472,0,0,1,0-3.437v-9a1.472,1.472,0,0,1,.117-.586,1.5,1.5,0,0,1,.32-.477,1.5,1.5,0,0,1,.477-.32,1.472,1.472,0,0,1,.586-.117H4q0-.289-.008-.641a2.278,2.278,0,0,1,.074-.652,1.094,1.094,0,0,1,.289-.5.89.89,0,0,1,.645-.2h6a1.064,1.064,0,0,1,.477.094.779.779,0,0,1,.3.25,1.072,1.072,0,0,1,.16.363A2.55,2.55,0,0,1,12-14.8a4.235,4.235,0,0,1,.008.445q-.008.223-.008.418Zm-9.5,0h6v-1H5Zm10,1.5a.481.481,0,0,0-.148-.352.481.481,0,0,0-.352-.148H1.5a.481.481,0,0,0-.352.148A.481.481,0,0,0,1-12.437v9a.481.481,0,0,0,.148.352.481.481,0,0,0,.352.148h13a.481.481,0,0,0,.352-.148A.481.481,0,0,0,15-3.437Z" transform="translate(192 97)"/>  </g></svg>