<svg xmlns="http://www.w3.org/2000/svg" width="100%" height="100%" viewBox="0 0 17 17">
  <g id="fitness_HC_White" transform="translate(0 0)">
    <g id="Group_156" data-name="Group 156" transform="translate(0 0)">
      <path id="Path_151" fill="black" data-name="Path 151" d="M12.079,10.013a.5.5,0,0,0,.445-.489.5.5,0,0,0-.5-.5h-.253c-.039-.157-.083-.341-.132-.547H11.7a.5.5,0,0,0,0-1h-.287q-.054-.243-.109-.5h.067a.5.5,0,0,0,0-1H11.1c-.149-.785-.28-1.278-.775-1.474V2.508a.5.5,0,0,0-.838-.369L7.382,4.066A1.944,1.944,0,0,1,6.007,2.194C6.007,1.975,6,1.131,6,1.131A1.706,1.706,0,0,0,5.922.61,1.02,1.02,0,0,0,5.391.078.972.972,0,0,0,5,0a1.122,1.122,0,0,0-.82.352L.43,4.094V4.1A1.538,1.538,0,0,0,0,5.164a1.577,1.577,0,0,0,.109.578,1.419,1.419,0,0,0,.32.492L2.266,8.07,5.594,11.4,7.93,13.734a8.134,8.134,0,0,0,1.133.949,7.172,7.172,0,0,0,1.3.707,7.478,7.478,0,0,0,1.457.457A7.607,7.607,0,0,0,13.336,16H15a.955.955,0,0,0,.391-.078.984.984,0,0,0,.316-.215,1.012,1.012,0,0,0,.215-.316A.972.972,0,0,0,16,15v-.534C16,12.6,13.083,12.158,12.079,10.013Z"/>
      <path id="Path_152" fill="#ffffff" data-name="Path 152" d="M4.887,1.059c.052-.053.077-.058.1-.059A1.211,1.211,0,0,1,5,1.138s.006.838.006,1.055c0,1.988,1.715,3.223,4.476,3.223.17,0,.3-.005.385-.01.028,0,.05.007.065.01a3.025,3.025,0,0,1,.148.56H9.168a.5.5,0,0,0,0,1h1.108a.155.155,0,0,1,0,.021c.034.163.069.322.1.479H9.5a.5.5,0,0,0,0,1h1.115c.047.2.09.383.13.547H9.825a.5.5,0,0,0,0,1h1.184a6.379,6.379,0,0,0,2.654,3.012,3.654,3.654,0,0,1,1.266,1.175,5.569,5.569,0,0,1-3.677-1.317c-.292-.253-5.5-5.4-9.172-9.034Z"/>
      <path id="Path_153" fill="#ffffff" data-name="Path 153" d="M10.747,14.469a6.188,6.188,0,0,1-1.116-.608,7.2,7.2,0,0,1-.994-.834L6.3,10.691,2.973,7.363,1.137,5.527a.421.421,0,0,1-.1-.149A.565.565,0,0,1,1,5.164a.524.524,0,0,1,.039-.2.529.529,0,0,1,.11-.171l.115-.122.108-.108C3.1,6.281,10.208,13.312,10.6,13.65A6.06,6.06,0,0,0,13.287,15a6.453,6.453,0,0,1-2.54-.529Z"/>
      <path id="Path_154" fill="#ffffff" data-name="Path 154" d="M9.325,3.643V4.2L8.772,4.15Z"/>
    </g>
  </g>
</svg>
