<?xml version="1.0" encoding="iso-8859-1"?>
<!-- Generator: Adobe Illustrator 22.1.0, SVG Export Plug-In . SVG Version: 6.00 Build 0)  -->
<svg version="1.1" xmlns="http://www.w3.org/2000/svg" xmlns:xlink="http://www.w3.org/1999/xlink" x="0px" y="0px" width="31.99px"
	 height="24px" viewBox="0 0 31.99 24" style="enable-background:new 0 0 31.99 24;" xml:space="preserve">
<g id="you">
	<path style="fill:#9DA7AA;" d="M31.67,5.179c0,0-0.312-2.353-1.271-3.389c-1.217-1.358-2.58-1.366-3.205-1.443
		C22.717,0,16.002,0,16.002,0h-0.015c0,0-6.715,0-11.191,0.347C4.171,0.424,2.809,0.432,1.591,1.79
		C0.633,2.826,0.32,5.179,0.32,5.179S0,7.94,0,10.701v2.588c0,2.763,0.32,5.523,0.32,5.523s0.312,2.352,1.271,3.386
		c1.218,1.358,2.815,1.317,3.527,1.459C7.677,23.919,15.995,24,15.995,24s6.722-0.012,11.199-0.355
		c0.625-0.08,1.988-0.088,3.205-1.446c0.958-1.034,1.271-3.386,1.271-3.386s0.32-2.761,0.32-5.523v-2.588
		C31.99,7.94,31.67,5.179,31.67,5.179z M12,18V6l10,6L12,18z"/>
</g>
<g id="Layer_1">
</g>
</svg>
