<?xml version="1.0" encoding="iso-8859-1"?>
<!-- Generator: Adobe Illustrator 22.1.0, SVG Export Plug-In . SVG Version: 6.00 Build 0)  -->
<svg version="1.1" xmlns="http://www.w3.org/2000/svg" xmlns:xlink="http://www.w3.org/1999/xlink" x="0px" y="0px" width="19.2px"
	 height="24px" viewBox="0 0 19.2 24" style="enable-background:new 0 0 19.2 24;" xml:space="preserve">
<g id="pin">
	<path id="Pinterest_1_" style="fill:#9DA7AA;" d="M11.513,18.299c4.58,0,7.687-4.262,7.687-9.967C19.2,4.018,15.62,0,10.182,0
		C3.413,0,0,4.954,0,9.085c0,2.501,0.927,4.727,2.917,5.556c0.326,0.136,0.618,0.004,0.713-0.364
		c0.065-0.255,0.222-0.899,0.29-1.167c0.096-0.365,0.059-0.493-0.205-0.811c-0.573-0.692-0.939-1.585-0.939-2.852
		c0-3.675,2.692-6.965,7.014-6.965c3.825,0,5.928,2.386,5.928,5.573c0,4.193-1.818,7.732-4.517,7.732
		c-1.491,0-2.606-1.258-2.249-2.801c0.427-1.842,1.258-3.831,1.258-5.161c0-1.19-0.626-2.184-1.922-2.184
		c-1.524,0-2.748,1.61-2.748,3.765c0,1.373,0.455,2.301,0.455,2.301s-1.559,6.744-1.833,7.925c-0.248,1.075-0.285,2.257-0.251,3.256
		c0.104,0.896,0.972,1.625,1.725,0.643c0.529-0.864,1.098-1.954,1.393-3.047c0.176-0.647,1.003-3.997,1.003-3.997
		C8.529,17.45,9.975,18.299,11.513,18.299z"/>
</g>
<g id="Layer_1">
</g>
</svg>
