<?xml version="1.0" encoding="iso-8859-1"?>
<!-- Generator: Adobe Illustrator 22.1.0, SVG Export Plug-In . SVG Version: 6.00 Build 0)  -->
<svg version="1.1" xmlns="http://www.w3.org/2000/svg" xmlns:xlink="http://www.w3.org/1999/xlink" x="0px" y="0px" width="28px"
	 height="24px" viewBox="0 0 28 24" style="enable-background:new 0 0 28 24;" xml:space="preserve">
<g id="tw">
	<path id="_x31_" style="fill:#9DA7AA;" d="M23.579,1.978c-1.048-1.191-2.541-1.95-4.193-1.978
		c-3.172-0.053-5.745,2.628-5.745,5.987c0,0.477,0.051,0.942,0.149,1.388C9.015,7.066,4.783,4.58,1.949,0.833
		C1.455,1.731,1.172,2.78,1.172,3.905c0,2.128,1.014,4.017,2.556,5.133C2.785,8.996,1.9,8.711,1.125,8.243
		C1.125,8.269,1.125,8.294,1.125,8.32c0,2.972,1.98,5.466,4.608,6.047c-0.482,0.137-0.99,0.208-1.513,0.205
		c-0.37-0.002-0.73-0.044-1.081-0.117c0.731,2.438,2.852,4.216,5.366,4.275c-1.966,1.632-4.443,2.604-7.134,2.598
		C0.907,21.327,0.449,21.297,0,21.239c2.542,1.744,5.562,2.76,8.806,2.761C19.372,24.003,25.15,14.808,25.15,6.832
		c0-0.262-0.006-0.522-0.017-0.781C26.256,5.215,27.23,4.166,28,2.969c-1.03,0.464-2.137,0.773-3.299,0.902
		c1.186-0.73,2.097-1.898,2.526-3.299C26.116,1.245,24.887,1.728,23.579,1.978z"/>
</g>
<g id="Layer_1">
</g>
</svg>
