<?xml version="1.0" encoding="utf-8"?>
<!-- Generator: Adobe Illustrator 22.1.0, SVG Export Plug-In . SVG Version: 6.00 Build 0)  -->
<svg version="1.1" id="Layer_1" xmlns="http://www.w3.org/2000/svg" xmlns:xlink="http://www.w3.org/1999/xlink" x="0px" y="0px"
	 width="28px" height="24px" viewBox="0 0 28 24" style="enable-background:new 0 0 28 24;" xml:space="preserve">
<g id="black">
	<g id="slice" transform="translate(-600.000000, 0.000000)">
	</g>
	<g id="linkedin" transform="translate(16.000000, 17.000000)">
		<path style="fill:#9DA7AA;" d="M-8.3,7V-8.9h-4.9V7H-8.3z M-8.3-14.5c0-1.4-1-2.5-2.5-2.5c-1.5,0-2.5,1.1-2.5,2.5
			c0,1.4,1,2.5,2.5,2.5h0C-9.3-12-8.3-13.1-8.3-14.5z M-0.3,7v-9c0-0.5,0-1,0.2-1.3c0.4-1,1.3-2,2.8-2c1.9,0,3.2,1.1,3.2,3.3v9h4.9
			v-9.3c0-5-2.7-7.3-6.2-7.3C1.7-9.6,0.4-8-0.3-6.8l0-2.1h-4.9c0.1,1.5,0,16,0,16H-0.3z"/>
	</g>
</g>
</svg>
