<svg xmlns="http://www.w3.org/2000/svg" viewBox="1634 728 16 16">  <g id="forkknifeBlack" transform="translate(1442 648)">    <path id="Fill1" fill="black" d="M204.814,90.547V80.436l-1.911.423-1.162,1.854V90.2l.829.347Z"/>    <path fill="white" d="M7.688-17a.481.481,0,0,1,.352.148.481.481,0,0,1,.148.352V-11a1.905,1.905,0,0,1-.16.777,2.061,2.061,0,0,1-.43.633,2.048,2.048,0,0,1-.637.43A1.914,1.914,0,0,1,6.188-9v7.5a.481.481,0,0,1-.148.352A.481.481,0,0,1,5.688-1a.481.481,0,0,1-.352-.148A.481.481,0,0,1,5.188-1.5V-9a1.905,1.905,0,0,1-.777-.16,2.061,2.061,0,0,1-.633-.43,2.061,2.061,0,0,1-.43-.633A1.905,1.905,0,0,1,3.188-11v-5.5a.481.481,0,0,1,.148-.352A.481.481,0,0,1,3.688-17a.481.481,0,0,1,.352.148.481.481,0,0,1,.148.352V-11a.969.969,0,0,0,.078.391,1.016,1.016,0,0,0,.215.316,1.016,1.016,0,0,0,.316.215A.969.969,0,0,0,5.188-10v-6.5a.481.481,0,0,1,.148-.352A.481.481,0,0,1,5.688-17a.481.481,0,0,1,.352.148.481.481,0,0,1,.148.352V-10a.969.969,0,0,0,.391-.078,1.016,1.016,0,0,0,.316-.215,1.016,1.016,0,0,0,.215-.316A.969.969,0,0,0,7.188-11v-5.5a.481.481,0,0,1,.148-.352A.481.481,0,0,1,7.688-17Zm5.5,0V-1.5a.481.481,0,0,1-.148.352A.481.481,0,0,1,12.688-1a.481.481,0,0,1-.352-.148.481.481,0,0,1-.148-.352V-6q-.289,0-.625.008T10.895-6a3.651,3.651,0,0,1-.641-.094,1.58,1.58,0,0,1-.547-.242,1.2,1.2,0,0,1-.379-.445A1.58,1.58,0,0,1,9.188-7.5v-6a3.376,3.376,0,0,1,.277-1.363,3.566,3.566,0,0,1,.75-1.109,3.566,3.566,0,0,1,1.109-.75A3.376,3.376,0,0,1,12.688-17Zm-1,1.047a2.313,2.313,0,0,0-.8.316,2.651,2.651,0,0,0-.633.559,2.512,2.512,0,0,0-.418.73,2.429,2.429,0,0,0-.148.848v6a.481.481,0,0,0,.148.352A.481.481,0,0,0,10.688-7h1.5Z" transform="translate(192 97)"/>  </g></svg>