<svg xmlns="http://www.w3.org/2000/svg" width="100%" height="100%" viewBox="0 0 17 17">

  <g id="goal_HC_White" transform="translate(0 0)">
    <g id="Group_147" data-name="Group 147" transform="translate(0 0)">
      <path id="Path_163" fill="#ffffff"  data-name="Path 163" d="M7.468,0A7.468,7.468,0,1,1,0,7.468,7.468,7.468,0,0,1,7.468,0Z" transform="translate(0.009 1.037)"/>
      <circle id="Ellipse_7" fill="#ffffff" data-name="Ellipse 7" cx="4.269" cy="4.269" r="4.269" transform="translate(3.253 4.238)"/>
      <path id="Path_141" fill="black" data-name="Path 141" d="M16,3.161H12.847V0L10.968,1.884a7.513,7.513,0,1,0,3.14,3.173ZM6.523,8.93a1.079,1.079,0,0,0,.229.339,1.061,1.061,0,0,0,.338.23,1.077,1.077,0,0,0,.834,0,1.085,1.085,0,0,0,.567-.569,1.05,1.05,0,0,0,.083-.418,1.088,1.088,0,0,0-.033-.276l1.584-1.587a3.213,3.213,0,1,1-.76-.76L7.783,7.475a1.088,1.088,0,0,0-.276-.033,1.029,1.029,0,0,0-.417.084,1.1,1.1,0,0,0-.338.23,1.075,1.075,0,0,0-.229.338,1.082,1.082,0,0,0,0,.836Zm7.361-.423A6.408,6.408,0,1,1,7.476,2.084a6.337,6.337,0,0,1,2.691.6l-.524.525v1.6a3.327,3.327,0,0,0-2.121-.585A4.283,4.283,0,1,0,11.8,8.509a3.563,3.563,0,0,0-.59-2.137H12.8l.511-.512A6.4,6.4,0,0,1,13.884,8.507Z"/>
      <path id="Path_142" fill="#ffffff" data-name="Path 142" class="cls-4" d="M10.708,5.31h1.641l1.067-1.066H11.774V2.6L10.708,3.669Z"/>
    </g>
  </g>
</svg>
