<svg xmlns="http://www.w3.org/2000/svg" viewBox="1754 2276 16 16">
  <g id="groupWhite" transform="translate(1562 2195)">
    <path id="Fill1" fill="#13a10e" d="M193.537,97h7.01L200,95.383l-.861-1.237-1.276-.552H196l-1.326.7-.9,1.392Z"/>
    <path id="Fill2" fill="#ef6950" d="M193.537,97h7.01L200,95.383l-.861-1.237-1.276-.552H196l-1.326.7-.9,1.392Z" transform="translate(6 -6)"/>
    <circle id="Fill3" fill="#bb9167" cx="2.5" cy="2.5" r="2.5" transform="translate(194.5 88.5)"/>
    <circle id="Fill4" fill="#bb9167" cx="2.5" cy="2.5" r="2.5" transform="translate(200.5 82.5)"/>
    <path id="Contour" fill="#fff" d="M12.844-11.586a4.041,4.041,0,0,1,.918.637,4.073,4.073,0,0,1,.7.844,4.015,4.015,0,0,1,.445,1A3.924,3.924,0,0,1,15.063-8h-1a2.882,2.882,0,0,0-.238-1.164,3.065,3.065,0,0,0-.645-.953,3.065,3.065,0,0,0-.953-.645A2.882,2.882,0,0,0,11.063-11a2.882,2.882,0,0,0-1.164.238,3.065,3.065,0,0,0-.953.645,3.065,3.065,0,0,0-.645.953A2.882,2.882,0,0,0,8.063-8a2.954,2.954,0,0,1-.324,1.352,2.972,2.972,0,0,1-.895,1.063,4.041,4.041,0,0,1,.918.637,4.073,4.073,0,0,1,.7.844,4.015,4.015,0,0,1,.445,1A3.924,3.924,0,0,1,9.063-2h-1a2.882,2.882,0,0,0-.238-1.164,3.065,3.065,0,0,0-.645-.953,3.065,3.065,0,0,0-.953-.645A2.882,2.882,0,0,0,5.063-5,2.882,2.882,0,0,0,3.9-4.762a3.065,3.065,0,0,0-.953.645,3.065,3.065,0,0,0-.645.953A2.882,2.882,0,0,0,2.063-2h-1a3.924,3.924,0,0,1,.156-1.105,4.015,4.015,0,0,1,.445-1,4.073,4.073,0,0,1,.7-.844,4.041,4.041,0,0,1,.918-.637,2.972,2.972,0,0,1-.895-1.062A2.954,2.954,0,0,1,2.063-8,2.882,2.882,0,0,1,2.3-9.164a3.065,3.065,0,0,1,.645-.953,3.065,3.065,0,0,1,.953-.645A2.882,2.882,0,0,1,5.063-11a2.954,2.954,0,0,1,1.352.324,2.972,2.972,0,0,1,1.062.895,4.076,4.076,0,0,1,.758-1.047,4.076,4.076,0,0,1,1.047-.758,2.972,2.972,0,0,1-.895-1.062A2.954,2.954,0,0,1,8.063-14,2.882,2.882,0,0,1,8.3-15.164a3.065,3.065,0,0,1,.645-.953,3.065,3.065,0,0,1,.953-.645A2.882,2.882,0,0,1,11.063-17a2.882,2.882,0,0,1,1.164.238,3.065,3.065,0,0,1,.953.645,3.065,3.065,0,0,1,.645.953A2.882,2.882,0,0,1,14.063-14a2.954,2.954,0,0,1-.324,1.352A2.972,2.972,0,0,1,12.844-11.586ZM5.063-6a1.914,1.914,0,0,0,.773-.16,2.048,2.048,0,0,0,.637-.43,2.061,2.061,0,0,0,.43-.633A1.905,1.905,0,0,0,7.063-8a1.914,1.914,0,0,0-.16-.773,2.048,2.048,0,0,0-.43-.637,2.048,2.048,0,0,0-.637-.43A1.914,1.914,0,0,0,5.063-10a1.905,1.905,0,0,0-.777.16,2.061,2.061,0,0,0-.633.43,2.048,2.048,0,0,0-.43.637A1.914,1.914,0,0,0,3.063-8a1.905,1.905,0,0,0,.16.777,2.061,2.061,0,0,0,.43.633,2.061,2.061,0,0,0,.633.43A1.905,1.905,0,0,0,5.063-6Zm4-8a1.905,1.905,0,0,0,.16.777,2.061,2.061,0,0,0,.43.633,2.061,2.061,0,0,0,.633.43,1.905,1.905,0,0,0,.777.16,1.914,1.914,0,0,0,.773-.16,2.048,2.048,0,0,0,.637-.43,2.061,2.061,0,0,0,.43-.633,1.905,1.905,0,0,0,.16-.777,1.914,1.914,0,0,0-.16-.773,2.048,2.048,0,0,0-.43-.637,2.048,2.048,0,0,0-.637-.43,1.914,1.914,0,0,0-.773-.16,1.905,1.905,0,0,0-.777.16,2.061,2.061,0,0,0-.633.43,2.048,2.048,0,0,0-.43.637A1.914,1.914,0,0,0,9.063-14Z" transform="translate(191.938 99)"/>
  </g>
</svg>
