<svg width="166" height="187" viewBox="0 0 166 187" xmlns="http://www.w3.org/2000/svg" xmlns:xlink="http://www.w3.org/1999/xlink"><title>编组 12</title><defs><path id="a" d="M0 0h166v187H0z"/><linearGradient x1="53.219%" y1="-31.648%" x2="51.522%" y2="135.802%" id="c"><stop stop-color="#131313" offset="0%"/><stop offset="100%"/></linearGradient><linearGradient x1="100%" y1="100%" x2="0%" y2="0%" id="d"><stop stop-color="#2E3235" offset="0%"/><stop stop-color="#232426" offset="39.306%"/><stop stop-color="#1A1A1A" offset="100%"/></linearGradient><linearGradient x1="13.294%" y1="12.102%" x2="110.579%" y2="100%" id="f"><stop stop-opacity=".2" offset="0%"/><stop stop-opacity="0" offset="27.556%"/><stop stop-color="#B4B4B4" stop-opacity=".5" offset="100%"/></linearGradient><linearGradient x1="0%" y1="0%" x2="38.76%" y2="39.44%" id="g"><stop offset="0%"/><stop stop-opacity="0" offset="100%"/></linearGradient><circle id="e" cx="4" cy="4" r="4"/><radialGradient cx="54.891%" fx="54.891%" fy="50%" r="37.536%" gradientTransform="rotate(119.459 .865 1.041) scale(1 3.16499)" id="j"><stop stop-color="#011205" offset="0%"/><stop stop-color="#010D1E" stop-opacity=".139" offset="85.663%"/><stop stop-color="#010B17" stop-opacity="0" offset="100%"/></radialGradient><radialGradient cx="76.343%" cy="43.206%" fx="76.343%" fy="43.206%" r="20.038%" gradientTransform="rotate(150.511 .804 .586) scale(1 1.71381)" id="k"><stop stop-color="#2A7621" offset="0%"/><stop stop-color="#1E4221" stop-opacity="0" offset="100%"/></radialGradient><radialGradient cx="34.752%" cy="30.833%" fx="34.752%" fy="30.833%" r="21.163%" id="l"><stop stop-color="#FFF" stop-opacity=".5" offset="0%"/><stop stop-color="#FFF" stop-opacity="0" offset="100%"/></radialGradient><linearGradient x1="50%" y1="0%" x2="50%" y2="100%" id="m"><stop stop-color="#00FF32" stop-opacity="0" offset="0%"/><stop stop-color="#13FF00" stop-opacity=".3" offset="100%"/></linearGradient><circle id="i" cx="4" cy="4" r="2.667"/><filter x="-65.6%" y="-46.9%" width="231.2%" height="231.2%" filterUnits="objectBoundingBox" id="h"><feOffset dy="1" in="SourceAlpha" result="shadowOffsetOuter1"/><feGaussianBlur stdDeviation="1" in="shadowOffsetOuter1" result="shadowBlurOuter1"/><feComposite in="shadowBlurOuter1" in2="SourceAlpha" operator="out" result="shadowBlurOuter1"/><feColorMatrix values="0 0 0 0 0.38153699 0 0 0 0 0.38153699 0 0 0 0 0.38153699 0 0 0 0.5 0" in="shadowBlurOuter1"/></filter><filter x="-93.8%" y="-75%" width="287.5%" height="287.5%" filterUnits="objectBoundingBox" id="n"><feGaussianBlur stdDeviation="2.5" in="SourceAlpha" result="shadowBlurInner1"/><feOffset dy="1" in="shadowBlurInner1" result="shadowOffsetInner1"/><feComposite in="shadowOffsetInner1" in2="SourceAlpha" operator="arithmetic" k2="-1" k3="1" result="shadowInnerInner1"/><feColorMatrix values="0 0 0 0 1 0 0 0 0 1 0 0 0 0 1 0 0 0 0.355525362 0" in="shadowInnerInner1" result="shadowMatrixInner1"/><feMorphology radius="1" in="SourceAlpha" result="shadowSpreadInner2"/><feGaussianBlur stdDeviation="1.5" in="shadowSpreadInner2" result="shadowBlurInner2"/><feOffset in="shadowBlurInner2" result="shadowOffsetInner2"/><feComposite in="shadowOffsetInner2" in2="SourceAlpha" operator="arithmetic" k2="-1" k3="1" result="shadowInnerInner2"/><feColorMatrix values="0 0 0 0 0 0 0 0 0 0 0 0 0 0 0 0 0 0 0.6 0" in="shadowInnerInner2" result="shadowMatrixInner2"/><feMerge><feMergeNode in="shadowMatrixInner1"/><feMergeNode in="shadowMatrixInner2"/></feMerge></filter><rect id="o" x="71" y="15" width="23" height="3" rx="1.5"/><filter x="-8.7%" y="-66.7%" width="117.4%" height="233.3%" filterUnits="objectBoundingBox" id="p"><feGaussianBlur stdDeviation="1.5" in="SourceAlpha" result="shadowBlurInner1"/><feOffset dy="1" in="shadowBlurInner1" result="shadowOffsetInner1"/><feComposite in="shadowOffsetInner1" in2="SourceAlpha" operator="arithmetic" k2="-1" k3="1" result="shadowInnerInner1"/><feColorMatrix values="0 0 0 0 0.215098505 0 0 0 0 0.214819795 0 0 0 0 0.214819795 0 0 0 0.428294362 0" in="shadowInnerInner1"/></filter><rect id="r" width="73" height="106" rx="2"/><filter x="-26.7%" y="-15.6%" width="153.4%" height="136.8%" filterUnits="objectBoundingBox" id="q"><feOffset dy="3" in="SourceAlpha" result="shadowOffsetOuter1"/><feGaussianBlur stdDeviation="6" in="shadowOffsetOuter1" result="shadowBlurOuter1"/><feColorMatrix values="0 0 0 0 0 0 0 0 0 0 0 0 0 0 0 0 0 0 0.2 0" in="shadowBlurOuter1"/></filter></defs><g fill="none" fill-rule="evenodd"><mask id="b" fill="#fff"><use xlink:href="#a"/></mask><use fill="#FFF" xlink:href="#a"/><g transform="translate(5 7)" mask="url(#b)"><path d="M17 0h118c9.389 0 17 7.611 17 17v163H0V17C0 7.611 7.611 0 17 0z" fill="url(#c)"/><path d="M23 16h106c9.389 0 17 7.611 17 17v163H6V33c0-9.389 7.611-17 17-17z" fill="#FFF"/><g transform="translate(23 5)"><use fill="url(#d)" xlink:href="#e"/><circle stroke="#181818" fill="url(#f)" cx="4" cy="4" r="4.5"/><circle stroke="url(#g)" cx="4" cy="4" r="4.5"/><g><use fill="#000" filter="url(#h)" xlink:href="#i"/><use fill="url(#j)" xlink:href="#i"/><use fill-opacity=".6" fill="url(#k)" xlink:href="#i"/><use fill="url(#l)" xlink:href="#i"/><use fill-opacity=".4" fill="url(#m)" xlink:href="#i"/><use fill="#000" filter="url(#n)" xlink:href="#i"/><circle stroke-opacity=".3" stroke="#FFF" stroke-width=".5" stroke-linejoin="square" cx="4" cy="4" r="2.417"/></g><circle fill="#FFF" style="mix-blend-mode:overlay" opacity=".5" cx="4" cy="4" r="1"/></g><rect fill="#FFF" x="34" y="152" width="64" height="7" rx="1"/><rect fill="#FFF" x="15" y="141" width="128" height="64" rx="1"/><g opacity=".46" transform="translate(17 143)" fill="#EDEDED"><rect opacity=".99" x="17" width="64" height="7" rx="1"/><rect opacity=".99" x="17" y="9" width="41" height="3" rx="1"/><rect x="17" y="32" width="41" height="3" rx="1"/><rect x="17" y="23" width="64" height="7" rx="1"/><rect opacity=".99" width="13" height="13" rx="2"/><rect y="23" width="13" height="13" rx="2"/></g><path fill="#FFF" d="M20 58h112v23H20z"/><g transform="translate(24 60)" fill="#EDEDED"><rect opacity=".457" width="13" height="13" rx="2"/><rect opacity=".46" x="32" width="13" height="13" rx="2"/><rect opacity=".46" x="64" width="13" height="13" rx="2"/><rect opacity=".46" x="95" width="13" height="13" rx="2"/></g><path d="M16 95h127v30H16a1 1 0 0 1-1-1V96a1 1 0 0 1 1-1z" fill="#FFF"/><rect fill="#EDEDED" opacity=".457" x="15" y="97" width="33" height="23" rx="2"/><rect fill="#EDEDED" opacity=".457" x="53" y="97" width="33" height="23" rx="2"/><rect fill="#EDEDED" opacity=".457" x="91" y="97" width="33" height="23" rx="2"/><rect fill="#EDEDED" opacity=".457" x="129" y="97" width="14" height="23" rx="2"/></g><use fill="#0E0E0E" xlink:href="#o"/><use fill="#000" filter="url(#p)" xlink:href="#o"/><path fill="#FFF" d="M19 40h45v11H19z"/><text font-family="ArialMT, Arial" font-size="8" fill="#08080D"><tspan x="20.402" y="49">WPS Office</tspan></text><text font-family="ArialMT, Arial" font-size="6" fill="#BDBDBD"><tspan x="20.327" y="98">Template</tspan></text><text font-family="ArialMT, Arial" font-size="4" fill="#7E7E7E"><tspan x="20.052" y="31">PM 9:30</tspan></text><text font-family="ArialMT, Arial" font-size="6" fill="#BDBDBD"><tspan x="20.995" y="144">Recent</tspan></text><path stroke="#F9F9F9" stroke-linecap="square" d="M11.5 57.5h139"/><g transform="matrix(-1 0 0 1 145 55)"><use fill="#000" filter="url(#q)" xlink:href="#r"/><use fill="#FFF" xlink:href="#r"/></g><text font-family="PingFangSC-Regular, PingFang SC" font-size="5" fill="#000" transform="translate(72 55)"><tspan x="21" y="17">Retrieve documents</tspan></text><path d="M80.293 65.05c-.77 0-1.393.624-1.393 1.393v3.807a1.7 1.7 0 0 0 1.7 1.7h3.8a1.7 1.7 0 0 0 1.7-1.7v-2.535a1.51 1.51 0 0 0-1.51-1.511h-1.112c-.537 0-1.039-.265-1.343-.707a1.029 1.029 0 0 0-.848-.447h-.994z" stroke="#535252" stroke-width=".6"/><path d="M82.5 70.45a1.5 1.5 0 1 0-1.5-1.5v.001l.001.001-.001.006v.674l1.09-.818h-.535a.955.955 0 1 1 .305.844l-.367.404c.266.241.62.388 1.007.388z" fill="#535252" fill-rule="nonzero"/><text font-family="PingFangSC-Regular, PingFang SC" font-size="5" fill="#000" transform="translate(72 55)"><tspan x="21" y="32">Scan QR Code</tspan></text><text font-family="PingFangSC-Regular, PingFang SC" font-size="5" fill="#000" transform="translate(72 55)"><tspan x="21" y="49">Tags</tspan></text><text font-family="PingFangSC-Regular, PingFang SC" font-size="5" fill="#000" transform="translate(72 55)"><tspan x="21" y="64">Help &amp; Feedback</tspan></text><g transform="translate(78 112)"><ellipse stroke="#545353" stroke-width=".6" cx="4" cy="3" rx="2.233" ry="2.167"/><path d="M.221 7.529c0-1.046.918-1.894 2.05-1.894h3.458c1.132 0 2.05.848 2.05 1.894" stroke="#545353" stroke-width=".6"/></g><text font-family="PingFangSC-Regular, PingFang SC" font-size="5" fill="#000" transform="translate(72 55)"><tspan x="21" y="80">Go premium</tspan></text><path d="M84.407 133.75H80.59a.845.845 0 0 1-.812-.612l-.746-2.603a.553.553 0 0 1 .783-.646l.416.212a.845.845 0 0 0 1.117-.334l.454-.796a.845.845 0 0 1 1.483.027l.381.728c.215.41.72.571 1.132.361l.39-.198a.553.553 0 0 1 .781.645l-.749 2.604a.845.845 0 0 1-.812.612z" stroke="#535252" stroke-width=".6"/><path d="M79.988 135.15a.426.426 0 0 1 .42-.5h4.182a.43.43 0 0 1 .424.5.598.598 0 0 1-.59.5h-3.84a.605.605 0 0 1-.596-.5z" fill="#535252" fill-rule="nonzero"/><text font-family="PingFangSC-Regular, PingFang SC" font-size="5" fill="#000" transform="translate(72 55)"><tspan x="21" y="94">Font</tspan></text><g transform="translate(78 142)"><path fill="#545353" d="M4.8 6h.6v.6H3.6V6h.6V3h.6z"/><path d="M6 3.6V3H3v.6h-.6v-.771c0-.237.187-.429.418-.429h3.364c.23 0 .418.192.418.429V3.6H6z" fill="#545353"/><rect stroke="#545353" stroke-width=".6" x=".9" y=".9" width="7.2" height="7.2" rx="1"/></g><g fill-rule="nonzero"><path d="M79.186 86.26h-.613v1.758c0 .164.122.327.327.327h2.005v-.613h-1.719v-1.473zm0-4.992h1.719v-.613H78.9a.323.323 0 0 0-.327.327v1.84h.613v-1.554zm6.628 6.464h-1.719v.613H86.1a.323.323 0 0 0 .327-.327V86.26h-.613v1.473zm0-4.95h.613v-1.8a.323.323 0 0 0-.327-.327h-2.005v.613h1.719v1.514zm-7.405 1.39h8.182v.614h-8.182v-.613z" fill="#535252"/></g><g fill-rule="nonzero" fill="#535252"><path d="M83.625 105.588c.18 0 .35-.07.477-.197l2.29-2.289a.67.67 0 0 0 .196-.477c0-.18-.07-.35-.197-.477l-3.864-3.864a1.46 1.46 0 0 0-.927-.384h-2.025a.676.676 0 0 0-.675.675v2.025c0 .31.165.708.384.927l3.864 3.864a.67.67 0 0 0 .477.197zM81.6 98.35c.187 0 .477.12.609.252l3.864 3.864a.223.223 0 0 1 .065.16c0 .06-.024.116-.065.158l-2.29 2.289a.223.223 0 0 1-.158.065.225.225 0 0 1-.16-.065l-3.863-3.864a1.042 1.042 0 0 1-.253-.609v-2.025c0-.124.1-.225.225-.225H81.6z"/><path d="M80.475 100.15a.676.676 0 1 0-.002-1.352.676.676 0 0 0 .002 1.352zm0-.9a.225.225 0 1 1 0 .45.225.225 0 0 1 0-.45z"/></g><g transform="translate(123 27)"><path d="M.333 2.4c.184 0 .334.15.334.333v.4a.333.333 0 1 1-.667 0v-.4C0 2.55.15 2.4.333 2.4zM1.4 2c.184 0 .333.15.333.333v.8a.333.333 0 1 1-.666 0v-.8c0-.184.149-.333.333-.333zm1.067-.533c.184 0 .333.149.333.333v1.333a.333.333 0 1 1-.667 0V1.8c0-.184.15-.333.334-.333zM3.533.8c.184 0 .334.15.334.333v2a.333.333 0 0 1-.667 0v-2C3.2.95 3.35.8 3.533.8zM4.6 0c.184 0 .333.15.333.333v2.8a.333.333 0 1 1-.666 0v-2.8C4.267.15 4.416 0 4.6 0z" fill="#000"/><rect stroke="#000" stroke-width="2" x="7.933" y="1" width="7.067" height="1.467" rx=".733"/><rect fill="#000" x="7.467" y=".533" width="8" height="2.4" rx="1.2"/></g><g fill="#9DA3A9"><g transform="translate(138.333 44.667)"><circle cx=".6" cy=".6" r="1"/><circle cx=".6" cy="3.267" r="1"/><circle cx=".6" cy="5.933" r="1"/></g></g><g fill="#9DA3A9" fill-rule="nonzero"><path d="M129.373 49.903l1.117 1.118a.288.288 0 0 1-.345.454l-.061-.047-1.117-1.119a.288.288 0 0 1 .406-.406zm-2.973-5.636a3.133 3.133 0 1 1 0 6.266 3.133 3.133 0 0 1 0-6.266zm0 .533a2.6 2.6 0 1 0 0 5.2 2.6 2.6 0 0 0 0-5.2z"/></g><g stroke="#9DA3A9" stroke-width=".6"><path d="M115.077 49.4h-4.157a.845.845 0 0 1-.813-.612l-.807-2.818a.59.59 0 0 1 .835-.688l.491.25a.845.845 0 0 0 1.118-.334l.562-.985a.845.845 0 0 1 1.482.027l.48.918c.215.41.72.57 1.133.36l.464-.236a.59.59 0 0 1 .834.688l-.81 2.818a.845.845 0 0 1-.812.612zM110.615 50.805a.313.313 0 0 0 .308.255h4.162a.306.306 0 0 0 .303-.274.126.126 0 0 0-.125-.126h-4.528a.122.122 0 0 0-.12.145z"/></g><rect stroke="#067CE3" stroke-width="2" x="75" y="77" width="67" height="15" rx="4"/></g></svg>