<svg xmlns="http://www.w3.org/2000/svg" viewBox="1634 1772 16 16">  <g id="guitarBlack" transform="translate(1442 1691)">    <path id="Fill1" fill="white" d="M205.494,81.656l-2.255,2.171.445.453-4.258,3.983-.943-1.18-1.333.128-.665,1.052-.147.738-.988.6-1.664.483-1.159,1.691v1.781l1.159,1.822,1.664.965,1.8.2,1.59-.977.825-1.834.151-.73.781-.665.941-.176V90.448H200l4.882-5.116.443.311,2.287-2.259Z"/>    <path id="Fill2" fill="white" d="M203.5,84.267l-5.084,5.146L200,90.655,205.018,85Z"/>    <path fill="black" d="M16-14.5a.481.481,0,0,1-.148.352L13.6-11.9a.481.481,0,0,1-.352.148.474.474,0,0,1-.375-.172L8.953-8H9.5a.481.481,0,0,1,.352.148A.481.481,0,0,1,10-7.5v1a1.472,1.472,0,0,1-.117.586,1.5,1.5,0,0,1-.32.477,1.5,1.5,0,0,1-.477.32A1.472,1.472,0,0,1,8.5-5a.481.481,0,0,0-.352.148A.481.481,0,0,0,8-4.5a3.418,3.418,0,0,1-.273,1.363,3.525,3.525,0,0,1-.75,1.113,3.525,3.525,0,0,1-1.113.75A3.418,3.418,0,0,1,4.5-1a4.354,4.354,0,0,1-1.75-.355A4.569,4.569,0,0,1,1.32-2.32,4.569,4.569,0,0,1,.355-3.75,4.354,4.354,0,0,1,0-5.5,3.418,3.418,0,0,1,.273-6.863a3.525,3.525,0,0,1,.75-1.113,3.525,3.525,0,0,1,1.113-.75A3.418,3.418,0,0,1,3.5-9a.481.481,0,0,0,.352-.148A.481.481,0,0,0,4-9.5a1.946,1.946,0,0,1,.156-.777,2.02,2.02,0,0,1,.43-.637,2.02,2.02,0,0,1,.637-.43A1.946,1.946,0,0,1,6-11.5a1.92,1.92,0,0,1,.941.234,2.07,2.07,0,0,1,.715.656l3.266-3.266a.474.474,0,0,1-.172-.375A.481.481,0,0,1,10.9-14.6l2.25-2.25A.481.481,0,0,1,13.5-17a.481.481,0,0,1,.352.148l2,2A.481.481,0,0,1,16-14.5ZM9-7H7.75A.481.481,0,0,1,7.4-7.148L6.148-8.4A.481.481,0,0,1,6-8.75.481.481,0,0,1,6.148-9.1l.773-.773a.953.953,0,0,0-.363-.453A.975.975,0,0,0,6-10.5a.969.969,0,0,0-.391.078,1.016,1.016,0,0,0-.316.215,1.016,1.016,0,0,0-.215.316A.969.969,0,0,0,5-9.5a1.472,1.472,0,0,1-.117.586,1.5,1.5,0,0,1-.32.477,1.5,1.5,0,0,1-.477.32A1.472,1.472,0,0,1,3.5-8a2.408,2.408,0,0,0-.973.2,2.563,2.563,0,0,0-.8.539,2.521,2.521,0,0,0-.535.793A2.421,2.421,0,0,0,1-5.5a3.376,3.376,0,0,0,.277,1.363,3.566,3.566,0,0,0,.75,1.109,3.566,3.566,0,0,0,1.109.75A3.376,3.376,0,0,0,4.5-2a2.421,2.421,0,0,0,.969-.2,2.521,2.521,0,0,0,.793-.535,2.563,2.563,0,0,0,.539-.8A2.408,2.408,0,0,0,7-4.5a1.472,1.472,0,0,1,.117-.586,1.5,1.5,0,0,1,.32-.477,1.5,1.5,0,0,1,.477-.32A1.472,1.472,0,0,1,8.5-6a.481.481,0,0,0,.352-.148A.481.481,0,0,0,9-6.5ZM7.75-8.2l4.422-4.422-.547-.547L7.2-8.75Zm5.5-4.75L14.8-14.5l-1.3-1.3L11.953-14.25ZM2.773-5.523l.7-.7,1.75,1.75-.7.7Zm1.5-1.5.7-.7,1.75,1.75-.7.7Z" transform="translate(192 98)"/>  </g></svg>