<svg xmlns="http://www.w3.org/2000/svg" viewBox="1634 1880 16 16">  <g id="gymBlack" transform="translate(1442 1799)">    <path id="Fill1" fill="black" d="M194.5,89.53l-1.582,1.582,1.121,1.121-1.121,1.121,2.81,2.81,1.213-1.213,1.086,1.086,1.524-1.524Z"/>    <path id="Fill2" fill="black" d="M204.29,81.744l-1.2,1.2-1.02-1.02L200.5,83.5l5.068,5.068L207.134,87l-1.072-1.072,1.2-1.2Z"/>    <path fill="white" d="M14.8-11.968l1.006,1.006L13.582-8.746l-2.515-2.507-5.32,5.32L8.254-3.418,6.038-1.194,5.032-2.2,3.775-.95l-1.509-1.5a1.945,1.945,0,0,0-.161.165,2.208,2.208,0,0,1-.173.177,1.038,1.038,0,0,1-.2.141.454.454,0,0,1-.224.059.483.483,0,0,1-.354-.149.483.483,0,0,1-.149-.354.454.454,0,0,1,.059-.224,1.038,1.038,0,0,1,.141-.2,2.208,2.208,0,0,1,.177-.173,1.945,1.945,0,0,0,.165-.161L.05-4.675,1.3-5.933.293-6.938,2.517-9.155,5.032-6.648l5.32-5.32L7.845-14.483l2.216-2.224L11.067-15.7l1.257-1.25,1.509,1.5a1.945,1.945,0,0,0,.161-.165,2.208,2.208,0,0,1,.173-.177,1.038,1.038,0,0,1,.2-.141.454.454,0,0,1,.224-.059.483.483,0,0,1,.354.149.483.483,0,0,1,.149.354.454.454,0,0,1-.059.224,1.038,1.038,0,0,1-.141.2,2.208,2.208,0,0,1-.177.173,1.945,1.945,0,0,0-.165.161l1.5,1.509ZM4.317-2.915l-2.3-2.3-.542.542,2.3,2.3Zm2.523-.5L2.517-7.74l-.794.8L6.038-2.624Zm4.943-11.568,2.3,2.3.542-.542-2.3-2.3Zm2.593,4.024-4.314-4.314-.8.794,4.322,4.322Z" transform="translate(191.95 97.95)"/>  </g></svg>