<?xml version="1.0" encoding="UTF-8"?>
<svg width="20px" height="20px" viewBox="0 0 20 20" version="1.1" xmlns="http://www.w3.org/2000/svg" xmlns:xlink="http://www.w3.org/1999/xlink">
    <!-- Generator: Sketch 53.2 (72643) - https://sketchapp.com -->
    <title>Icon/Menu</title>
    <desc>Created with Sketch.</desc>
    <g id="Icon/Menu" stroke="none" stroke-width="1" fill="none" fill-rule="evenodd">
        <g id="Icons/Menu">
            <rect id="Rectangle" fill-rule="nonzero" x="0" y="0" width="20" height="20"></rect>
            <path d="M12.6666667,10.9696354 L0.666666667,10.9696354 C0.298,10.9696354 0,10.5720833 0,10.0842188 C0,9.59458333 0.298,9.19791667 0.666666667,9.19791667 L12.6666667,9.19791667 C13.0346667,9.19791667 13.3333333,9.59458333 13.3333333,10.0842188 C13.3333333,10.5720833 13.0346667,10.9696354 12.6666667,10.9696354 L12.6666667,10.9696354 Z M19,4.77083333 L1,4.77083333 C0.447,4.77083333 0,4.37416667 0,3.88630208 C0,3.39578125 0.447,3 1,3 L19,3 C19.552,3 20,3.39578125 20,3.88630208 C20,4.37416667 19.552,4.77083333 19,4.77083333 L19,4.77083333 Z M1,15.3967188 L19,15.3967188 C19.552,15.3967188 20,15.7916146 20,16.28125 C20,16.7708854 19.552,17.1675521 19,17.1675521 L1,17.1675521 C0.447,17.1675521 0,16.7708854 0,16.28125 C0,15.7916146 0.447,15.3967188 1,15.3967188 L1,15.3967188 Z" id="Shape" fill="#FFFFFF" transform="translate(10.000000, 10.083776) scale(-1, 1) translate(-10.000000, -10.083776) "></path>
        </g>
    </g>
</svg>