<svg xmlns="http://www.w3.org/2000/svg" viewBox="1634 1160 16 16">  <g id="hotelBlack" transform="translate(1442 1080)">    <rect id="Fill1" fill="white" width="15" height="3" transform="translate(192.5 90.5)"/>    <path id="Fill2" fill="white" d="M195.51,82.572v3.953h5.021v-1.95h4.087v-2Z"/>    <path id="Fill3" fill="white" d="M195.51,86.525l-2.139,4.013h13.422l-1.656-3.214.432-.368V84.589h-5.093v1.935Z"/>    <path fill="black" d="M16-7.937v6H15v-1H1v1H0v-6H1v.883l2-4v-4.883H4v1h8v-1h1v3a.969.969,0,0,1,.391.078,1.016,1.016,0,0,1,.316.215,1.016,1.016,0,0,1,.215.316.969.969,0,0,1,.078.391v2a.953.953,0,0,1-.164.547L15-7.055v-.883Zm-7-4v2h4v-2Zm-5-2v3H8v-1a.969.969,0,0,1,.078-.391,1.016,1.016,0,0,1,.215-.316,1.016,1.016,0,0,1,.316-.215A.969.969,0,0,1,9-12.937h3v-1Zm-1.937,7H13.938l-1-2H9a.969.969,0,0,1-.391-.078,1.016,1.016,0,0,1-.316-.215,1.016,1.016,0,0,1-.215-.316A.969.969,0,0,1,8-9.937H3.555ZM15-3.937v-2H1v2Z" transform="translate(192 96.938)"/>  </g></svg>