<?xml version="1.0" encoding="UTF-8"?>
<svg width="24px" height="24px" viewBox="0 0 24 24" version="1.1" xmlns="http://www.w3.org/2000/svg" xmlns:xlink="http://www.w3.org/1999/xlink">
    <!-- Generator: Sketch 55.2 (78181) - https://sketchapp.com -->
    <title>icon-关闭</title>
    <desc>Created with Sketch.</desc>
    <g id="icon-关闭" stroke="none" stroke-width="1" fill="none" fill-rule="evenodd">
        <path d="M13,11 L25,11 C25.5522847,11 26,11.4477153 26,12 C26,12.5522847 25.5522847,13 25,13 L13,13 L13,25 C13,25.5522847 12.5522847,26 12,26 C11.4477153,26 11,25.5522847 11,25 L11,13 L-1,13 C-1.55228475,13 -2,12.5522847 -2,12 C-2,11.4477153 -1.55228475,11 -1,11 L11,11 L11,-1 C11,-1.55228475 11.4477153,-2 12,-2 C12.5522847,-2 13,-1.55228475 13,-1 L13,11 Z" id="形状结合" fill="#aaaaaa" transform="translate(12.000000, 12.000000) rotate(-315.000000) translate(-12.000000, -12.000000) "></path>
    </g>
</svg>