<?xml version="1.0" encoding="UTF-8"?>
<svg width="24px" height="24px" viewBox="0 0 24 24" version="1.1" xmlns="http://www.w3.org/2000/svg" xmlns:xlink="http://www.w3.org/1999/xlink">
    <!-- Generator: Sketch 55.2 (78181) - https://sketchapp.com -->
    <title>icon/right-arrow/ppt</title>
    <desc>Created with Sketch.</desc>
    <g id="icon/right-arrow/ppt" stroke="none" stroke-width="1" fill="none" fill-rule="evenodd">
        <rect id="矩形" x="0" y="0" width="24" height="24"></rect>
        <rect id="矩形" fill="#F2733D" x="4" y="11" width="14" height="2" rx="1"></rect>
        <path d="M13,14 L18,14 C18.5522847,14 19,14.4477153 19,15 C19,15.5522847 18.5522847,16 18,16 L12,16 C11.7238576,16 11.4738576,15.8880712 11.2928932,15.7071068 C11.1119288,15.5261424 11,15.2761424 11,15 L11,9 C11,8.44771525 11.4477153,8 12,8 C12.5522847,8 13,8.44771525 13,9 L13,14 Z" id="形状结合" fill="#F2733D" transform="translate(15.000000, 12.000000) rotate(-135.000000) translate(-15.000000, -12.000000) "></path>
    </g>
</svg>