<?xml version="1.0" encoding="UTF-8"?>
<svg width="24px" height="24px" viewBox="0 0 24 24" version="1.1" xmlns="http://www.w3.org/2000/svg" xmlns:xlink="http://www.w3.org/1999/xlink">
    <!-- Generator: Sketch 64 (93537) - https://sketch.com -->
    <title>icon/24PX/反馈</title>
    <desc>Created with Sketch.</desc>
    <g id="icon/24PX/反馈" stroke="none" stroke-width="1" fill="none" fill-rule="evenodd" opacity="0.6">
        <path d="M21,4 C21.5522847,4 22,4.44771525 22,5 L22,18 C22,18.5522847 21.5522847,19 21,19 L15.3333333,19 L12,22 L8.66666667,19 L3,19 C2.44771525,19 2,18.5522847 2,18 L2,5 C2,4.44771525 2.44771525,4 3,4 L21,4 Z M20,6 L4,6 L4,17 L9.43413868,17 L12,19.309 L14.5658613,17 L20,17 L20,6 Z M17,13 C17.5522847,13 18,13.4477153 18,14 C18,14.5522847 17.5522847,15 17,15 L7,15 C6.44771525,15 6,14.5522847 6,14 C6,13.4477153 6.44771525,13 7,13 L17,13 Z M13,9 C13.5522847,9 14,9.44771525 14,10 C14,10.5522847 13.5522847,11 13,11 L7,11 C6.44771525,11 6,10.5522847 6,10 C6,9.44771525 6.44771525,9 7,9 L13,9 Z" id="形状结合" fill="#4F5D79" fill-rule="nonzero"></path>
    </g>
</svg>