<svg xmlns="http://www.w3.org/2000/svg" xmlns:xlink="http://www.w3.org/1999/xlink" width="0" height="0" style="position:absolute">
	
		<symbol id="arrow-up" viewBox="0 0 24 24">
			<path d="M12 22A10 10 0 0 1 2 12 10 10 0 0 1 12 2a10 10 0 0 1 10 10 10 10 0 0 1-10 10m0-15l-5 5h3v4h4v-4h3l-5-5z"></path>
		</symbol>
	
		<symbol id="article-circle-outline" viewBox="0 0 24 24">
			<path d="M11 15h2v2h-2v-2m0-8h2v6h-2V7m1-5C6.47 2 2 6.5 2 12a10 10 0 0 0 10 10 10 10 0 0 0 10-10A10 10 0 0 0 12 2m0 18a8 8 0 0 1-8-8 8 8 0 0 1 8-8 8 8 0 0 1 8 8 8 8 0 0 1-8 8z"></path>
		</symbol>
	
		<symbol id="close-circle-outline" viewBox="0 0 24 24">
			<path d="M12 20c-4.41 0-8-3.59-8-8s3.59-8 8-8 8 3.59 8 8-3.59 8-8 8m0-18C6.47 2 2 6.47 2 12s4.47 10 10 10 10-4.47 10-10S17.53 2 12 2m2.59 6L12 10.59 9.41 8 8 9.41 10.59 12 8 14.59 9.41 16 12 13.41 14.59 16 16 14.59 13.41 12 16 9.41 14.59 8z"></path>
		</symbol>
	
		<symbol id="cog-outline" viewBox="0 0 24 24">
			<path d="M12 8a4 4 0 0 1 4 4 4 4 0 0 1-4 4 4 4 0 0 1-4-4 4 4 0 0 1 4-4m0 2a2 2 0 0 0-2 2 2 2 0 0 0 2 2 2 2 0 0 0 2-2 2 2 0 0 0-2-2m-2 12c-.25 0-.46-.18-.5-.42l-.37-2.65c-.63-.25-1.17-.59-1.69-.99l-2.49 1.01c-.22.08-.49 0-.61-.22l-2-3.46a.493.493 0 0 1 .12-.64l2.11-1.66L4.5 12l.07-1-2.11-1.63a.493.493 0 0 1-.12-.64l2-3.46c.12-.22.39-.31.61-.22l2.49 1c.52-.39 1.06-.73 1.69-.98l.37-2.65c.04-.24.25-.42.5-.42h4c.25 0 .46.18.5.42l.37 2.65c.63.25 1.17.59 1.69.98l2.49-1c.22-.09.49 0 .61.22l2 3.46c.13.22.07.49-.12.64L19.43 11l.07 1-.07 1 2.11 1.63c.19.15.25.42.12.64l-2 3.46c-.12.22-.39.31-.61.22l-2.49-1c-.52.39-1.06.73-1.69.98l-.37 2.65c-.04.24-.25.42-.5.42h-4m1.25-18l-.37 2.61c-1.2.25-2.26.89-3.03 1.78L5.44 7.35l-.75 1.3L6.8 10.2a5.55 5.55 0 0 0 0 3.6l-2.12 1.56.75 1.3 2.43-1.04c.77.88 1.82 1.52 3.01 1.76l.37 2.62h1.52l.37-2.61c1.19-.25 2.24-.89 3.01-1.77l2.43 1.04.75-1.3-2.12-1.55c.4-1.17.4-2.44 0-3.61l2.11-1.55-.75-1.3-2.41 1.04a5.42 5.42 0 0 0-3.03-1.77L12.75 4h-1.5z"></path>
		</symbol>
	
		<symbol id="content-copy" viewBox="0 0 24 24">
			<path d="M19 21H8V7h11m0-2H8a2 2 0 0 0-2 2v14a2 2 0 0 0 2 2h11a2 2 0 0 0 2-2V7a2 2 0 0 0-2-2m-3-4H4a2 2 0 0 0-2 2v14h2V3h12V1z"></path>
		</symbol>
	
		<symbol id="facebook" viewBox="0 0 24 24">
			<path d="M5 3h14a2 2 0 0 1 2 2v14a2 2 0 0 1-2 2H5a2 2 0 0 1-2-2V5a2 2 0 0 1 2-2m13 2h-2.5A3.5 3.5 0 0 0 12 8.5V11h-2v3h2v7h3v-7h3v-3h-3V9a1 1 0 0 1 1-1h2V5z"></path>
		</symbol>
	
		<symbol id="file-document-outline" viewBox="0 0 24 24">
			<path d="M6 2a2 2 0 0 0-2 2v16a2 2 0 0 0 2 2h12a2 2 0 0 0 2-2V8l-6-6H6m0 2h7v5h5v11H6V4m2 8v2h8v-2H8m0 4v2h5v-2H8z"></path>
		</symbol>
	
		<symbol id="forwardburger" viewBox="0 0 24 24">
			<path d="M19 13H3v-2h16l-4-4 1.4-1.4 6.4 6.4-6.4 6.4L15 17l4-4M3 6h10v2H3V6m10 10v2H3v-2h10z"></path>
		</symbol>
	
		<symbol id="help-circle-outline" viewBox="0 0 24 24">
			<path d="M11 18h2v-2h-2v2m1-16A10 10 0 0 0 2 12a10 10 0 0 0 10 10 10 10 0 0 0 10-10A10 10 0 0 0 12 2m0 18c-4.41 0-8-3.59-8-8s3.59-8 8-8 8 3.59 8 8-3.59 8-8 8m0-14a4 4 0 0 0-4 4h2a2 2 0 0 1 2-2 2 2 0 0 1 2 2c0 2-3 1.75-3 5h2c0-2.25 3-2.5 3-5a4 4 0 0 0-4-4z"></path>
		</symbol>
	
		<symbol id="linkedin" viewBox="0 0 24 24">
			<path d="M19 3a2 2 0 0 1 2 2v14a2 2 0 0 1-2 2H5a2 2 0 0 1-2-2V5a2 2 0 0 1 2-2h14m-.5 15.5v-5.3a3.26 3.26 0 0 0-3.26-3.26c-.85 0-1.84.52-2.32 1.3v-1.11h-2.79v8.37h2.79v-4.93c0-.77.62-1.4 1.39-1.4a1.4 1.4 0 0 1 1.4 1.4v4.93h2.79M6.88 8.56a1.68 1.68 0 0 0 1.68-1.68c0-.93-.75-1.69-1.68-1.69a1.69 1.69 0 0 0-1.69 1.69c0 .93.76 1.68 1.69 1.68m1.39 9.94v-8.37H5.5v8.37h2.77z"></path>
		</symbol>
	
		<symbol id="menu" viewBox="0 0 24 24">
			<path d="M3 6h18v2H3V6m0 5h18v2H3v-2m0 5h18v2H3v-2z"></path>
		</symbol>
	
		<symbol id="open-in-new" viewBox="0 0 24 24">
			<path d="M14 3v2h3.59l-9.83 9.83 1.41 1.41L19 6.41V10h2V3m-2 16H5V5h7V3H5a2 2 0 0 0-2 2v14a2 2 0 0 0 2 2h14a2 2 0 0 0 2-2v-7h-2v7z"></path>
		</symbol>
	
		<symbol id="reload" viewBox="0 0 24 24">
			<path d="M2 12a9 9 0 0 0 9 9c2.39 0 4.68-.94 6.4-2.6l-1.5-1.5A6.706 6.706 0 0 1 11 19c-6.24 0-9.36-7.54-4.95-11.95C10.46 2.64 18 5.77 18 12h-3l4 4h.1l3.9-4h-3a9 9 0 0 0-18 0z"></path>
		</symbol>
	
		<symbol id="share-variant" viewBox="0 0 24 24">
			<path d="M18 16.08c-.76 0-1.44.3-1.96.77L8.91 12.7c.05-.23.09-.46.09-.7 0-.24-.04-.47-.09-.7l7.05-4.11c.54.5 1.25.81 2.04.81a3 3 0 0 0 3-3 3 3 0 0 0-3-3 3 3 0 0 0-3 3c0 .24.04.47.09.7L8.04 9.81C7.5 9.31 6.79 9 6 9a3 3 0 0 0-3 3 3 3 0 0 0 3 3c.79 0 1.5-.31 2.04-.81l7.12 4.15c-.05.21-.08.43-.08.66 0 1.61 1.31 2.91 2.92 2.91 1.61 0 2.92-1.3 2.92-2.91A2.92 2.92 0 0 0 18 16.08z"></path>
		</symbol>
	
		<symbol id="twitter" viewBox="0 0 24 24">
			<path d="M5 3h14a2 2 0 0 1 2 2v14a2 2 0 0 1-2 2H5a2 2 0 0 1-2-2V5a2 2 0 0 1 2-2m12.71 6.33c.48-.4 1.04-.88 1.29-1.41-.41.21-.9.34-1.44.41.5-.36.91-.83 1.12-1.47-.52.28-1.05.52-1.71.64-1.55-1.87-5.26-.35-4.6 2.45-2.61-.16-4.2-1.34-5.52-2.79-.75 1.22-.1 3.07.79 3.58-.46-.03-.81-.17-1.14-.33.04 1.54.89 2.28 2.08 2.68-.36.07-.76.09-1.14.03.37 1.07 1.14 1.74 2.46 1.88-.9.76-2.56 1.29-3.9 1.08 1.15.73 2.46 1.31 4.28 1.23 4.41-.2 7.36-3.36 7.43-7.98z"></path>
		</symbol>
	
		<symbol id="web" viewBox="0 0 24 24">
			<path d="M16.36 14c.08-.66.14-1.32.14-2 0-.68-.06-1.34-.14-2h3.38c.16.64.26 1.31.26 2s-.1 1.36-.26 2m-5.15 5.56c.6-1.11 1.06-2.31 1.38-3.56h2.95a8.03 8.03 0 0 1-4.33 3.56M14.34 14H9.66c-.1-.66-.16-1.32-.16-2 0-.68.06-1.35.16-2h4.68c.09.65.16 1.32.16 2 0 .68-.07 1.34-.16 2M12 19.96c-.83-1.2-1.5-2.53-1.91-3.96h3.82c-.41 1.43-1.08 2.76-1.91 3.96M8 8H5.08A7.923 7.923 0 0 1 9.4 4.44C8.8 5.55 8.35 6.75 8 8m-2.92 8H8c.35 1.25.8 2.45 1.4 3.56A8.008 8.008 0 0 1 5.08 16m-.82-2C4.1 13.36 4 12.69 4 12s.1-1.36.26-2h3.38c-.08.66-.14 1.32-.14 2 0 .68.06 1.34.14 2M12 4.03c.83 1.2 1.5 2.54 1.91 3.97h-3.82c.41-1.43 1.08-2.77 1.91-3.97M18.92 8h-2.95a15.65 15.65 0 0 0-1.38-3.56c1.84.63 3.37 1.9 4.33 3.56M12 2C6.47 2 2 6.5 2 12a10 10 0 0 0 10 10 10 10 0 0 0 10-10A10 10 0 0 0 12 2z"></path>
		</symbol>
	
</svg>
