<?xml version="1.0" encoding="UTF-8"?>
<svg width="24px" height="24px" viewBox="0 0 24 24" version="1.1" xmlns="http://www.w3.org/2000/svg" xmlns:xlink="http://www.w3.org/1999/xlink">
    <!-- Generator: Sketch 64 (93537) - https://sketch.com -->
    <title>icon/24PX/置顶</title>
    <desc>Created with Sketch.</desc>
    <g id="icon/24PX/置顶" stroke="none" stroke-width="1" fill="none" fill-rule="evenodd" opacity="0.6">
        <path d="M12.7071068,5.63603897 L18.363961,11.2928932 C18.7544853,11.6834175 18.7544853,12.3165825 18.363961,12.7071068 C17.9734367,13.0976311 17.3402718,13.0976311 16.9497475,12.7071068 L12.9585309,8.71409147 C12.9855111,8.80467845 13,8.90064719 13,9 L13,21 C13,21.5522847 12.5522847,22 12,22 C11.4477153,22 11,21.5522847 11,21 L11,9 C11,8.90028192 11.0145957,8.80397284 11.0417672,8.71309257 L7.05025253,12.7071068 C6.65972824,13.0976311 6.02656326,13.0976311 5.63603897,12.7071068 C5.24551468,12.3165825 5.24551468,11.6834175 5.63603897,11.2928932 L11.2928932,5.63603897 C11.6834175,5.24551468 12.3165825,5.24551468 12.7071068,5.63603897 Z M19,2 C19.5522847,2 20,2.44771525 20,3 C20,3.55228475 19.5522847,4 19,4 L5,4 C4.44771525,4 4,3.55228475 4,3 C4,2.44771525 4.44771525,2 5,2 L19,2 Z" id="形状结合" fill="#4F5D79" fill-rule="nonzero"></path>
    </g>
</svg>