<?xml version="1.0" encoding="utf-8"?>
<!-- Generator: Adobe Illustrator 21.1.0, SVG Export Plug-In . SVG Version: 6.00 Build 0)  -->
<svg version="1.1" id="Layer_1" xmlns="http://www.w3.org/2000/svg" xmlns:xlink="http://www.w3.org/1999/xlink" x="0px" y="0px"
	 viewBox="0 0 800 249" style="enable-background:new 0 0 800 249;" xml:space="preserve">
<style type="text/css">
	.st0{fill:#FFFFFF;}
</style>
<path class="st0" d="M601.2,43.6c17.6,0,32.8,8.2,42.7,22.6l23.8-17.9c-17.4-21.8-41.7-32-66.5-32c-46.7,0-83.7,35.5-83.7,81.2
	c0,45.7,37,81.2,83.7,81.2c24.8,0,49.1-10.2,66.5-32l-23.3-16.9c-9.9,13.4-25.6,21.6-43.2,21.6c-28,0-53.4-23.6-53.4-53.9
	C547.8,67.2,573.1,43.6,601.2,43.6z"/>
<polygon class="st0" points="678.9,19.5 678.9,46.8 724.5,46.8 724.5,175.4 753.3,175.4 753.3,46.8 799,46.8 799,19.5 "/>
<path class="st0" d="M445,19.5l-67.9,155.9h30.8l11.9-29.3h66l11.9,29.3h31l-66-155.9C462.8,19.5,445,19.5,445,19.5z M430.3,120.3
	l22.8-55.9l22.6,55.9C475.7,120.3,430.3,120.3,430.3,120.3z"/>
<path class="st0" d="M401.1,72.9c0-30.5-21.4-53.4-56.1-53.4h-74.2v155.9h28.8v-49.2H345C379.7,126.3,401.1,103.4,401.1,72.9z
	 M299.5,98.9V46.8h43.2c20.4,0,29.5,12.2,29.5,26.1s-9.2,26.1-29.5,26.1C342.7,98.9,299.5,98.9,299.5,98.9z"/>
<path class="st0" d="M0,0.2v248.7h248.6V0.2C248.6,0.2,0,0.2,0,0.2z M45.3,18.6c7.8,0,14.2,6.3,14.2,14.2S53.1,47,45.3,47
	c-7.8,0-14.2-6.3-14.2-14.2C31.1,25,37.5,18.6,45.3,18.6z M32.6,57H58v118.3H32.6V57z M124.7,234.4l-85.6-41.8h171.2L124.7,234.4z
	 M216.6,175.7h-28.3V80.9l-39.8,41.3l-39.8-41.3v94.8H80.2V19l68.2,68.9L216.6,19L216.6,175.7L216.6,175.7z"/>
<g>
	<path class="st0" d="M549.4,216c0-0.1,0-0.2,0-0.3c0-1.3-0.1-2.5-0.1-3.5h0C549.3,213.2,549.4,214.5,549.4,216z"/>
</g>
</svg>
