<svg xmlns="http://www.w3.org/2000/svg" viewBox="1634 1376 16 16">  <g id="islandBlack" transform="translate(1442 1295)">    <path id="Fill1" fill="black" d="M199.086,92.466h6.872l-.64-1.729L204,89.893l-1.649-.328-1.645.328-.706.844Z"/>    <path id="Fill2" fill="black" d="M193.512,97H196l-.515-3.391L196,91.853V90.338l.931-1.936H196V87.236L194.711,89l-.8,2.853-.4,1.756Z"/>    <path id="Fill3" fill="black" d="M200,83.162l-.974-1.1-2.144-.538-2.06.282-1.854,1.357,2.163,1.13h3.244L196,86.721v1.447h1.186l2.125-.583,1.276-1.8.475-.785,1.289,1.721,2.166.863L204,85l-1.649-1.408Z"/>    <path fill="white" d="M13.5-4a.481.481,0,0,1,.352.148A.481.481,0,0,1,14-3.5a.481.481,0,0,1-.148.352A.481.481,0,0,1,13.5-3h-6a.481.481,0,0,1-.352-.148A.481.481,0,0,1,7-3.5a.481.481,0,0,1,.148-.352A.481.481,0,0,1,7.5-4Zm-1,2a.481.481,0,0,1,.352.148A.481.481,0,0,1,13-1.5a.481.481,0,0,1-.148.352A.481.481,0,0,1,12.5-1h-4a.481.481,0,0,1-.352-.148A.481.481,0,0,1,8-1.5a.481.481,0,0,1,.148-.352A.481.481,0,0,1,8.5-2Zm1.859-4H16v1H4.2q-.078.5-.113,1T4.027-3q-.02.5-.02,1T4-1H1V-2.507q0-.633.047-1.25T1.18-5H0V-6H1.344a17.631,17.631,0,0,1,1.18-3.68,17.745,17.745,0,0,1,1.953-3.336,5.367,5.367,0,0,1-2.094-.48A5.915,5.915,0,0,1,.641-14.742L.289-15.1l.367-.344A5.819,5.819,0,0,1,2.438-16.6a5.477,5.477,0,0,1,2.086-.395,5.382,5.382,0,0,1,2.234.457,6.28,6.28,0,0,1,1.867,1.309,4.351,4.351,0,0,1,1.164.188,4.523,4.523,0,0,1,1.047.469,4.6,4.6,0,0,1,.883.7,4.5,4.5,0,0,1,.684.9,4.493,4.493,0,0,1,.441,1.055A4.358,4.358,0,0,1,13-10.742v.5h-.5a4.342,4.342,0,0,1-1.934-.441,4.569,4.569,0,0,1-1.551-1.238,5.658,5.658,0,0,1-1.492,1.773,5.389,5.389,0,0,1-2.1.977q-.336.773-.6,1.563A15.947,15.947,0,0,0,4.383-6H6.641A3.975,3.975,0,0,1,7.18-7.207a4.019,4.019,0,0,1,.879-.949A4.048,4.048,0,0,1,9.2-8.777,3.859,3.859,0,0,1,10.5-9a3.859,3.859,0,0,1,1.3.223,4.048,4.048,0,0,1,1.137.621,4.019,4.019,0,0,1,.879.949A3.975,3.975,0,0,1,14.359-6ZM9.672-14.031A5.308,5.308,0,0,1,9.469-13a3.523,3.523,0,0,0,1.051,1.141,3.437,3.437,0,0,0,1.441.578,3.519,3.519,0,0,0-.273-.9,3.476,3.476,0,0,0-.5-.785,3.561,3.561,0,0,0-.684-.629A3.535,3.535,0,0,0,9.672-14.031Zm-.984.055a4.3,4.3,0,0,0-1.5.395,4.683,4.683,0,0,0-1.258.859A4.678,4.678,0,0,0,5.012-11.5a4.518,4.518,0,0,0-.473,1.477A4.471,4.471,0,0,0,5.8-10.308a4.421,4.421,0,0,0,1.086-.605,4.586,4.586,0,0,0,.875-.879,4.857,4.857,0,0,0,.633-1.121,4.307,4.307,0,0,0,.184-.523A4.217,4.217,0,0,0,8.688-13.976ZM1.75-15.07a4.624,4.624,0,0,0,1.383.789,4.592,4.592,0,0,0,1.57.273,4.625,4.625,0,0,0,1.465-.234,4.532,4.532,0,0,0,1.309-.687,4.624,4.624,0,0,0-1.383-.789,4.592,4.592,0,0,0-1.57-.273,4.625,4.625,0,0,0-1.465.234A4.532,4.532,0,0,0,1.75-15.07ZM4.234-9.015A.514.514,0,0,1,4.109-9H3.984q-.125,0-.25,0t-.25-.012v-.367a17.316,17.316,0,0,0-.7,1.813,15.68,15.68,0,0,0-.461,1.8,16.537,16.537,0,0,0-.25,1.84Q2-3,2-2H3q0-.945.066-1.828T3.277-5.57a17.184,17.184,0,0,1,.379-1.711A17.807,17.807,0,0,1,4.234-9.015ZM7.688-6h5.625a2.972,2.972,0,0,0-.437-.816,2.945,2.945,0,0,0-.652-.633,3.06,3.06,0,0,0-.809-.406A2.9,2.9,0,0,0,10.5-8a2.9,2.9,0,0,0-.914.145,3.06,3.06,0,0,0-.809.406,2.945,2.945,0,0,0-.652.633A2.972,2.972,0,0,0,7.688-6Z" transform="translate(192 98)"/>  </g></svg>