<svg width="40" height="40" viewBox="0 0 40 40" xmlns="http://www.w3.org/2000/svg"><title>Group 9</title><g fill="none" fill-rule="evenodd"><circle cx="20" cy="20" r="19.5" fill="#FFF" fill-rule="nonzero" stroke="#000" stroke-opacity=".2"/><path d="M25.631 25.635h-2.369v-3.713c0-.885-.018-2.025-1.235-2.025-1.235 0-1.424.964-1.424 1.96v3.778h-2.369V18h2.276v1.04h.03c.319-.6 1.092-1.233 2.247-1.233 2.401 0 2.845 1.58 2.845 3.637v4.19zm-10.073-8.68a1.375 1.375 0 0 1-1.375-1.376 1.376 1.376 0 1 1 1.375 1.377zm1.188 8.68H14.37V18h2.376v7.635zM26.816 12H13.182c-.653 0-1.181.516-1.181 1.153v13.694c0 .638.528 1.153 1.18 1.153h13.635c.652 0 1.185-.515 1.185-1.153V13.153c0-.637-.533-1.153-1.185-1.153h.002z" opacity=".5" fill="#000"/></g></svg>