<?xml version="1.0" encoding="utf-8"?>
<!-- Generator: Adobe Illustrator 19.1.1, SVG Export Plug-In . SVG Version: 6.00 Build 0)  -->
<svg version="1.1" id="Layer_1" xmlns="http://www.w3.org/2000/svg" xmlns:xlink="http://www.w3.org/1999/xlink" x="0px" y="0px"
	 viewBox="0 0 165 50" style="enable-background:new 0 0 165 50;" xml:space="preserve">
<style type="text/css">
	.st0{fill:#FFFFFF;}
	.st1{fill-rule:evenodd;clip-rule:evenodd;fill:#FFFFFF;}
</style>
<g>
	<g>
		<path class="st0" d="M6.4,49.5v-7.1H5.6v3H1.4v-3H0.5v7.1h0.9v-3.2h4.1v3.2H6.4z"/>
		<path class="st0" d="M11.3,49.6c2.1,0,3.5-1.6,3.5-3.7s-1.4-3.7-3.5-3.7s-3.5,1.6-3.5,3.7S9.2,49.6,11.3,49.6z M11.3,48.8
			c-1.6,0-2.6-1.2-2.6-2.9c0-1.7,1-2.9,2.6-2.9c1.6,0,2.6,1.2,2.6,2.9C13.9,47.6,12.9,48.8,11.3,48.8z"/>
		<path class="st0" d="M22.3,49.5l2-7.1h-1l-1.6,5.9l-1.6-5.9h-0.7l-1.6,5.9l-1.6-5.9h-1l2,7.1h1l1.6-5.7l1.6,5.7H22.3z"/>
		<path class="st0" d="M29,49.5v-2.8h2c1.4,0,2.2-1,2.2-2.1c0-1.2-0.8-2.1-2.2-2.1h-2.8v7.1H29z M30.8,45.9H29v-2.7h1.9
			c0.8,0,1.4,0.6,1.4,1.3C32.2,45.3,31.6,45.9,30.8,45.9z"/>
		<path class="st0" d="M39.4,49.5l-1.9-2.9c1-0.1,1.8-0.8,1.8-2.1c0-1.3-0.9-2.1-2.2-2.1h-2.8v7.1h0.9v-2.8h1.4l1.8,2.8H39.4z
			 M37,45.9h-1.9v-2.7H37c0.8,0,1.4,0.5,1.4,1.3C38.4,45.3,37.9,45.9,37,45.9z"/>
		<path class="st0" d="M44,49.6c2.1,0,3.5-1.6,3.5-3.7s-1.4-3.7-3.5-3.7c-2.1,0-3.5,1.6-3.5,3.7S41.9,49.6,44,49.6z M44,48.8
			c-1.6,0-2.6-1.2-2.6-2.9c0-1.7,1-2.9,2.6-2.9c1.6,0,2.6,1.2,2.6,2.9C46.6,47.6,45.5,48.8,44,48.8z"/>
		<path class="st0" d="M51.1,49.6c1.9,0,2.6-1.1,2.6-2.1c0-2.6-4.2-1.7-4.2-3.3c0-0.7,0.6-1.1,1.5-1.1c0.8,0,1.5,0.3,2,0.8l0.5-0.6
			c-0.6-0.6-1.4-1-2.5-1c-1.4,0-2.4,0.8-2.4,2c0,2.5,4.2,1.5,4.2,3.3c0,0.6-0.4,1.2-1.7,1.2c-1,0-1.8-0.5-2.2-1l-0.5,0.7
			C49,49.1,49.9,49.6,51.1,49.6z"/>
		<path class="st0" d="M64.7,49.5v-7.1h-1.3l-2.2,5.4l-2.2-5.4h-1.3v7.1h0.9v-5.9l2.4,5.9h0.4l2.4-5.9v5.9H64.7z"/>
		<path class="st0" d="M72.4,49.5l-2.8-7.1h-1.1l-2.8,7.1h1l0.6-1.6h3.5l0.6,1.6H72.4z M70.5,47.1h-3l1.5-3.8L70.5,47.1z"/>
		<path class="st0" d="M78.7,49.5l-3.2-3.7l2.9-3.3h-1.1L74.2,46v-3.6h-0.9v7.1h0.9v-2.4l0.7-0.8l2.7,3.2H78.7z"/>
		<path class="st0" d="M84.3,49.5v-0.8h-3.7v-2.4h3.7v-0.8h-3.7v-2.3h3.7v-0.8h-4.6v7.1H84.3z"/>
		<path class="st0" d="M95.4,49.5v-7.1h-1.3l-2.2,5.4l-2.2-5.4h-1.3v7.1h0.9v-5.9l2.4,5.9h0.4l2.4-5.9v5.9H95.4z"/>
		<path class="st0" d="M100.3,49.6c2.1,0,3.5-1.6,3.5-3.7s-1.4-3.7-3.5-3.7c-2.1,0-3.5,1.6-3.5,3.7S98.2,49.6,100.3,49.6z
			 M100.3,48.8c-1.6,0-2.6-1.2-2.6-2.9c0-1.7,1-2.9,2.6-2.9c1.6,0,2.6,1.2,2.6,2.9C102.9,47.6,101.8,48.8,100.3,48.8z"/>
		<path class="st0" d="M111,49.5v-7.1h-0.9v5.5l-4.1-5.5h-0.9v7.1h0.9v-5.6l4.1,5.6H111z"/>
		<path class="st0" d="M117.3,49.5v-0.8h-3.8v-2.4h3.7v-0.8h-3.7v-2.3h3.8v-0.8h-4.6v7.1H117.3z"/>
		<path class="st0" d="M121.6,49.5v-3l2.8-4.1h-1l-2.2,3.3l-2.2-3.3h-1l2.8,4.1v3H121.6z"/>
		<path class="st0" d="M131.3,49.6c2.1,0,3.5-1.6,3.5-3.7s-1.4-3.7-3.5-3.7s-3.5,1.6-3.5,3.7S129.2,49.6,131.3,49.6z M131.3,48.8
			c-1.6,0-2.6-1.2-2.6-2.9c0-1.7,1-2.9,2.6-2.9c1.6,0,2.6,1.2,2.6,2.9C133.9,47.6,132.9,48.8,131.3,48.8z"/>
		<path class="st0" d="M142,49.5v-7.1h-0.9v5.5l-4.1-5.5h-0.9v7.1h0.9v-5.6l4.1,5.6H142z"/>
		<path class="st0" d="M147.7,49.5v-0.8h-3.3v-6.3h-0.9v7.1H147.7z"/>
		<path class="st0" d="M149.8,49.5v-7.1h-0.9v7.1H149.8z"/>
		<path class="st0" d="M157.3,49.5v-7.1h-0.9v5.5l-4.1-5.5h-0.9v7.1h0.9v-5.6l4.1,5.6H157.3z"/>
		<path class="st0" d="M163.5,49.5v-0.8h-3.7v-2.4h3.7v-0.8h-3.7v-2.3h3.7v-0.8h-4.6v7.1H163.5z"/>
	</g>
	<g>
		<path class="st1" d="M101.8,11V3.2c0,0-7.8-0.5-14.1,2.1c-6.4,2.7-12,7.8-12,7.8s-5.6-5.1-12-7.8c-6.3-2.6-14.1-2.1-14.1-2.1V11
			h-2.1V0.4c0,0,8.3-0.1,15.5,2.1c6.6,2,12.7,7.1,12.7,7.1s6.2-5,12.7-7.1c7.2-2.2,15.5-2.1,15.5-2.1V11H101.8z"/>
		<path class="st0" d="M28.4,34.3V12.4h-4.2v21.9H28.4z"/>
		<path class="st0" d="M49.6,34.3V12.4h-4.2v13.4l-8.5-13.4h-4.2v21.9h4.2V20.9l8.5,13.4H49.6z"/>
		<path class="st0" d="M64.4,34.3c4.8,0,8.1-2.1,9.2-7.1h-4.2c-0.9,1.8-2.9,2.9-5.1,2.9c-4,0-6.9-3-6.9-7.1c0-4.1,2.9-7.1,6.9-7.1
			c2.2,0,4.2,1.1,5.1,2.9h4.2c-0.3-4.1-4.5-7-9.3-7c-6.6,0-11.7,4.5-11.7,11.2C52.5,29.7,57.8,34.3,64.4,34.3z"/>
		<path class="st0" d="M87.3,34.2c6.6,0,11.4-4.7,11.4-11.2s-4.8-11.2-11.4-11.2c-6.6,0-11.5,4.7-11.5,11.2S80.6,34.2,87.3,34.2z
			 M87.3,30.1c-4.1,0-6.7-3.1-6.7-7.1c0-4.1,2.6-7.1,6.7-7.1c4,0,6.6,3.1,6.6,7.1C93.9,27.1,91.3,30.1,87.3,30.1z"/>
		<path class="st0" d="M124.4,34.3V12.4h-6.4l-4.9,14.8l-5.6-14.8h-5.6v21.9h4.2V20.9l4.9,13.4h4.2l4.9-13.4v13.4H124.4z"/>
		<path class="st0" d="M140,34.3v-4.2h-7.8v-4.9h7.8v-4.2h-7.8v-4.2h7.8v-4.2h-12v21.9H140z"/>
	</g>
</g>
</svg>
