<?xml version="1.0" encoding="utf-8"?>
<!-- Generator: Adobe Illustrator 22.0.1, SVG Export Plug-In . SVG Version: 6.00 Build 0)  -->
<svg version="1.1" id="Layer_1" xmlns="http://www.w3.org/2000/svg" xmlns:xlink="http://www.w3.org/1999/xlink" x="0px" y="0px"
	 width="140px" height="79px" viewBox="0 0 140 79" style="enable-background:new 0 0 140 79;" xml:space="preserve">
<style type="text/css">
	.st0{fill:#F05E4E;}
	.st1{fill:#B23232;}
	.st2{fill:#6CC294;}
	.st3{fill:#4B9F71;}
	.st4{fill:#F3DE3C;}
	.st5{fill:#CDAF31;}
	.st6{fill:#19ABD6;}
	.st7{fill:#314152;}
</style>
<g>
	<path id="XMLID_708_" class="st0" d="M61,32C61,32,61,32,61,32l11.7-6c-3.5-2.3-21.7-11-28.8-3.6c-0.5,0.5-0.9,1-1.4,1.5
		C50,25,56.5,27.9,61,32z"/>
	<path id="XMLID_509_" class="st1" d="M55.5,28.1l10.1-5.6c-9.1-3.7-14.3-2.6-20.2,1c-0.4,0.2-0.7,0.5-1,0.7
		C48.5,25,52.3,26.3,55.5,28.1z"/>
	<path id="XMLID_506_" class="st2" d="M33.5,23.5c7.4-0.4,14.2,0.9,19.9,3.5c0,0,0,0,0.1,0c0,0,3.4-2.7,8.4-6.1
		c5-3.4,8.2-5.9,8.2-5.9c-2.6-1.8-8.9-3.4-12.8-4C45.5,9.4,35.9,15.2,32,23.6C32.5,23.5,33,23.5,33.5,23.5z"/>
	<path id="XMLID_503_" class="st3" d="M33.5,23.5c5.6-0.3,11,0.4,15.7,1.9l4.6-14.6c-11.3-0.4-21,5.2-24.4,12.8
		c0,0.1-0.1,0.2-0.1,0.2C30.7,23.7,32.1,23.6,33.5,23.5z"/>
	<path id="XMLID_500_" class="st4" d="M33.5,23.5c4.5-0.2,8.8,0.3,12.7,1.1l6.5-23.8c-5.1-0.4-10.5,0.1-15.8,1.7
		C22.3,6.9,13.6,17.9,16.1,28C21.1,25.5,27,23.8,33.5,23.5z"/>
	<path id="XMLID_497_" class="st5" d="M33.5,23.5c2-0.1,3.9-0.1,5.7,0.1l-8-18.9C20.1,9.9,14,19.3,16.1,28
		C21.1,25.5,27,23.8,33.5,23.5z"/>
	<path id="XMLID_485_" class="st6" d="M33.5,23.5c0.8,0,1.5-0.1,2.2-0.1c-0.6-1.5-2.5-6-5.6-11.3C26.4,5.6,24,1.5,24,1.5
		c-5.6,2-12.4,5.6-16.3,9.5c-8.7,8.6-9.4,19.1-3.1,27C9.6,30.1,20.5,24.2,33.5,23.5z"/>
	<path id="XMLID_483_" class="st7" d="M28.2,53.2l-9.2,24c-0.3,0.7-0.8,1.1-1.5,1.1h-4c-0.8,0-1.3-0.4-1.5-1.1l-9.2-24h4.7l6.2,17.6
		c0.3,1,0.8,2.4,1.5,4.4h0.7l1.5-4.4l6.2-17.6H28.2z"/>
	<path id="XMLID_481_" class="st7" d="M37.8,78.3h-4.3V53.2h4.3V78.3z"/>
	<path id="XMLID_479_" class="st7" d="M57.5,68.2l-7.2-1.6c-2.1-0.5-3.5-1.3-4.4-2.3c-0.9-1.1-1.3-2.6-1.3-4.7
		c0-2.8,0.8-4.5,2.2-5.4c1.5-0.9,4-0.9,7.6-0.9c4.3,0,10.5,0,10.5,0v3.2c0,0-8.8,0-9.9,0c-2.5,0-4.2,0.1-5,0.5
		c-0.8,0.3-1.2,1.1-1.2,2.6c0,1.2,0.3,2,0.8,2.5c0.5,0.4,1.5,0.8,2.9,1.1l7.3,1.7c2.1,0.5,3.5,1.3,4.5,2.3c0.9,1,1.4,2.6,1.4,4.6
		c0,2.9-0.7,4.4-2.3,5.4c-1.6,0.9-3.8,1.3-8.4,1.3c-3.5,0-9.6,0-9.6,0V75c0,0,5.8,0,8.7,0c2.9,0,4.9-0.2,5.9-0.7
		c1-0.4,1.5-1.2,1.5-2.6c0-1.1-0.3-1.9-0.9-2.3C59.9,68.9,58.9,68.5,57.5,68.2z"/>
	<path id="XMLID_477_" class="st7" d="M76.6,53.2v3.5c3.4-2.8,6.6-4.1,9.7-4.1c3.5,0,5.6,1.5,6.3,4.4c3.4-3,6.8-4.4,10.1-4.4
		c2.2,0,3.8,0.6,5,1.8c1.2,1.2,1.7,2.9,1.7,5.2v18.8h-4.3V60.7c0-1.5-0.4-2.7-1-3.4c-0.6-0.7-1.6-1.1-3-1.1c-1.2,0-2.4,0.3-3.5,0.8
		s-2.7,1.6-4.8,3.1v18.1h-4.2V60.7c0-1.6-0.3-2.7-1-3.4c-0.6-0.7-1.6-1-3-1c-1.2,0-2.4,0.3-3.5,0.8c-1.1,0.6-2.7,1.6-4.8,3v18.2
		h-4.4V53.2H76.6z"/>
	<path id="XMLID_474_" class="st7" d="M132.5,67.9h-11.7c0.2,2.9,0.9,4.8,2.1,5.8c1.2,1,3.1,1.2,5.8,1.2c2.9,0,8.7,0,8.7,0v3.4
		c0,0-5,0-9.3,0c-4.3,0-7.4-0.4-9.3-2.4c-1.8-2-2.8-5.4-2.8-10.2c0-4.8,0.9-8.2,2.7-10.2c1.8-1.9,4.7-2.9,8.9-2.9
		c3.7,0,6.5,0.7,8.2,2c1.7,1.4,2.6,3.4,2.6,6.2C138.6,65.5,136.6,67.9,132.5,67.9z M120.8,64.5h10.6c1.8,0,2.7-1.2,2.7-3.7
		c0-1.6-0.5-2.8-1.4-3.5c-0.9-0.7-2.5-1-4.7-1c-2.6,0-4.5,0.6-5.5,1.7C121.4,59.2,120.8,61.3,120.8,64.5z"/>
	<path id="XMLID_330_" class="st7" d="M42.9,34.5l-7.2,5.1l2.6-7.7c-0.8-0.2-1.7-0.3-2.6-0.3c-5.2,0-9.3,3.6-9.3,8.1
		c0,4.5,4.2,8.1,9.3,8.1c5.2,0,9.3-3.6,9.3-8.1C45,37.7,44.2,35.9,42.9,34.5z"/>
</g>
</svg>
