<svg width="271" height="35" xmlns="http://www.w3.org/2000/svg" xmlns:xlink="http://www.w3.org/1999/xlink"><defs><path id="a" d="M.604.06h27.359v26.743H.604z"/><path id="c" d="M.14.097h182.42V27H.14z"/></defs><g fill="none" fill-rule="evenodd"><g transform="translate(56)"><mask id="b" fill="#fff"><use xlink:href="#a"/></mask><path fill="#FFF" mask="url(#b)" d="M20.942 8.304l-7.934 18.499H8.54L.604 8.304H5.11l5.75 13.72 5.924-13.72h4.158M23.009 26.803h4.33V8.304h-4.33v18.499zm-.588-24.145c0-1.454 1.178-2.6 2.772-2.6 1.594 0 2.77 1.076 2.77 2.497 0 1.524-1.141 2.7-2.77 2.7-1.594 0-2.772-1.141-2.772-2.597z"/></g><path fill="#FFF" d="M87.885 26.805h4.33V1.1h-4.33zM127.685 16.203v10.6h-4.331V16.758c0-3.29-1.524-4.886-4.158-4.886-2.84 0-4.814 1.871-4.814 5.544v9.387h-4.33V16.758c0-3.29-1.526-4.886-4.158-4.886-2.875 0-4.816 1.871-4.816 5.544v9.387h-4.331V8.304h4.123v2.357c1.386-1.664 3.535-2.564 6.062-2.564 2.702 0 4.956 1.005 6.237 3.084 1.489-1.906 3.985-3.084 6.928-3.084 4.47 0 7.588 2.529 7.588 8.106M143.379 21.019v-2.147h-4.469c-2.942 0-3.74 1.108-3.74 2.46 0 1.558 1.316 2.561 3.533 2.561 2.114 0 3.95-.968 4.676-2.874zm4.333-5.059v10.843h-4.088v-2.25c-1.043 1.594-3.05 2.495-5.822 2.495-4.226 0-6.893-2.322-6.893-5.544 0-3.082 2.077-5.509 7.691-5.509h4.779v-.275c0-2.53-1.524-4.02-4.606-4.02-2.08 0-4.228.692-5.614 1.836l-1.697-3.153c1.974-1.523 4.851-2.286 7.829-2.286 5.336 0 8.42 2.529 8.42 7.863zM163.17 25.802c-1.04.828-2.6 1.246-4.16 1.246-4.053 0-6.373-2.149-6.373-6.237v-8.902h-3.05V8.444h3.05V4.216h4.331v4.228h4.954v3.465h-4.954v8.8c0 1.8.9 2.771 2.562 2.771.903 0 1.769-.242 2.427-.765l1.213 3.087"/><g transform="translate(0 8)"><mask id="d" fill="#fff"><use xlink:href="#c"/></mask><path d="M167.942 8.065h10.495c-.348-2.667-2.392-4.503-5.234-4.503-2.804 0-4.848 1.801-5.261 4.503zm14.548 2.875h-14.516c.52 2.702 2.772 4.435 5.995 4.435 2.076 0 3.707-.66 5.023-2.009l2.32 2.667c-1.664 1.977-4.261 3.015-7.448 3.015-6.202 0-10.22-3.985-10.22-9.494 0-5.507 4.053-9.457 9.56-9.457 5.406 0 9.356 3.775 9.356 9.562 0 .345-.035.865-.07 1.28zM35.072 4.481v8.267l-14.501 9.87v-8.267l14.501-9.87zM31.666 3.13l-12.612 8.584L6.44 3.13h25.226zM17.537 14.351v8.267l-14.504-9.87V4.481l14.504 9.87zm20.566-12.77a1.694 1.694 0 0 0-.063-.409 1.684 1.684 0 0 0-.17-.366 1.604 1.604 0 0 0-.457-.464l-.117-.07a1.582 1.582 0 0 0-.707-.175H1.517a1.685 1.685 0 0 0-.514.09L.843.19.685.349a2.1 2.1 0 0 0-.22.172 1.571 1.571 0 0 0-.415.712c-.032.124-.049.231-.037.229L0 13.548c0 .504.25.971.663 1.253l17.53 11.917-.002.004.168.11c.049.023.1.042.284.11.138.037.276.058.411.058.133 0 .266-.019.541-.107a.907.907 0 0 0 .175-.08l17.673-12.012a1.51 1.51 0 0 0 .663-1.253l-.003-11.967z" fill="#FFF" mask="url(#d)"/></g><path d="M202.986 13.158c-.714 0-1.465-.238-1.932-.572l-.418.791c.46.364 1.363.644 2.28.644 1.465 0 2.38-.635 2.38-1.631 0-2.142-3.495-1.083-3.495-2.382 0-.437.427-.759 1.302-.759.539 0 1.092.115 1.591.437l.425-.791c-.479-.31-1.29-.5-2.007-.5-1.414 0-2.298.665-2.298 1.655 0 2.193 3.486 1.122 3.486 2.359 0 .469-.385.749-1.314.749M207.046 11.202c0-1.173.798-1.932 1.86-1.932 1.059 0 1.85.759 1.85 1.932 0 1.176-.791 1.946-1.85 1.946-1.062 0-1.86-.77-1.86-1.946zm4.72 0c0-1.642-1.206-2.807-2.86-2.807-1.655 0-2.87 1.165-2.87 2.807 0 1.643 1.215 2.819 2.87 2.819 1.654 0 2.86-1.176 2.86-2.819zM213.297 13.958h.999V9.27h2.671v3.027c0 1.11.635 1.724 1.748 1.724.448 0 .905-.124 1.206-.385l-.312-.716a1.258 1.258 0 0 1-.78.259c-.55 0-.863-.334-.863-.927V9.27h1.582V8.45h-1.582V7.243h-.999v1.206h-2.692v-.478c0-.635.3-.969.893-.969.292 0 .56.105.77.26l.301-.759c-.28-.217-.697-.322-1.124-.322-1.176 0-1.818.707-1.818 1.778v.49h-.936v.821h.936v4.688M229.364 8.449h-.893l-1.643 4.408-1.633-4.408h-.843l-1.661 4.387-1.603-4.387h-.945l2.049 5.509h.954l1.612-4.179 1.592 4.179h.956l2.058-5.509M233.569 12.273c-.25.635-.845.978-1.591.978-.759 0-1.216-.343-1.216-.894 0-.466.28-.851 1.267-.851h1.54v.767zm-1.58-1.484c-1.642 0-2.214.726-2.214 1.61 0 .957.789 1.622 2.037 1.622.863 0 1.475-.292 1.808-.791v.728h.945v-3.327c0-1.508-.851-2.236-2.359-2.236-.884 0-1.705.25-2.277.707l.418.75c.424-.365 1.092-.593 1.745-.593.99 0 1.477.49 1.477 1.332v.198h-1.58zM237.419 11.214c0-1.206.665-1.862 1.736-1.862.072 0 .145 0 .229.012v-.969c-.966 0-1.655.334-2.01.978v-.924h-.954v5.509h.999v-2.744M242.818 9.238c.966 0 1.662.655 1.764 1.582h-3.532c.102-.936.81-1.582 1.768-1.582zm1.818 3.245c-.406.446-.945.665-1.591.665-1.092 0-1.872-.646-1.995-1.612h4.47c.012-.093.021-.217.021-.301 0-1.696-1.134-2.84-2.723-2.84-1.593 0-2.767 1.176-2.767 2.807 0 1.643 1.185 2.819 2.963 2.819.915 0 1.673-.31 2.173-.894l-.551-.644zM203.695 25.63c-1.059 0-1.862-.77-1.862-1.944 0-1.176.803-1.935 1.862-1.935 1.05 0 1.85.759 1.85 1.935 0 1.173-.8 1.943-1.85 1.943zm1.841-3.87c-.457-.59-1.145-.881-1.925-.881-1.612 0-2.788 1.122-2.788 2.807 0 1.684 1.176 2.816 2.788 2.816.81 0 1.517-.31 1.967-.933v.872h.957v-7.716h-.999v3.036zM208.917 23.3c.103-.935.81-1.579 1.767-1.579.968 0 1.666.656 1.768 1.58h-3.535zm1.767-2.421c-1.592 0-2.763 1.173-2.763 2.807 0 1.645 1.183 2.816 2.961 2.816.917 0 1.675-.31 2.175-.891l-.553-.647c-.406.448-.945.665-1.59.665-1.091 0-1.87-.644-1.997-1.61h4.471c.01-.093.021-.219.021-.303 0-1.692-1.132-2.837-2.725-2.837zM216.657 25.35l-1.895-4.42h-1.038l2.413 5.511h1.017l2.413-5.511h-.976l-1.934 4.42M220.838 23.3c.103-.935.81-1.579 1.767-1.579.966 0 1.663.656 1.768 1.58h-3.535zm1.767-2.421c-1.59 0-2.765 1.173-2.765 2.807 0 1.645 1.185 2.816 2.963 2.816.915 0 1.673-.31 2.172-.891l-.55-.647c-.406.448-.948.665-1.592.665-1.092 0-1.871-.644-1.995-1.61h4.471c.012-.093.019-.219.019-.303 0-1.692-1.132-2.837-2.723-2.837zM226.714 26.441h1v-7.716h-1zM231.978 25.63c-1.062 0-1.862-.77-1.862-1.944 0-1.176.8-1.935 1.862-1.935 1.059 0 1.85.759 1.85 1.935 0 1.173-.791 1.943-1.85 1.943zm0-4.751c-1.655 0-2.87 1.164-2.87 2.807 0 1.645 1.215 2.816 2.87 2.816 1.652 0 2.86-1.171 2.86-2.816 0-1.643-1.208-2.807-2.86-2.807zM239.062 25.63c-1.05 0-1.853-.77-1.853-1.944 0-1.165.803-1.935 1.853-1.935 1.059 0 1.862.77 1.862 1.935 0 1.173-.803 1.943-1.862 1.943zm.081-4.751c-.81 0-1.516.312-1.962.926v-.875h-.959v7.527h.999v-2.846c.457.592 1.143.891 1.922.891 1.613 0 2.789-1.122 2.789-2.816 0-1.685-1.176-2.807-2.789-2.807zM250.208 20.879c-.933 0-1.703.394-2.119 1.02-.364-.689-1.07-1.02-1.913-1.02-.83 0-1.51.312-1.902.872v-.821h-.959v5.511h.999v-2.84c0-1.194.656-1.829 1.654-1.829.906 0 1.424.532 1.424 1.613v3.056h.998v-2.84c0-1.194.654-1.829 1.652-1.829.906 0 1.428.532 1.428 1.613v3.056h.997v-3.17c0-1.625-.915-2.392-2.259-2.392M254.83 23.3c.105-.935.812-1.579 1.769-1.579.966 0 1.664.656 1.769 1.58h-3.538zm1.769-2.421c-1.591 0-2.767 1.173-2.767 2.807 0 1.645 1.187 2.816 2.965 2.816.915 0 1.676-.31 2.173-.891l-.551-.647c-.406.448-.945.665-1.591.665-1.092 0-1.872-.644-1.998-1.61h4.473c.01-.093.021-.219.021-.303 0-1.692-1.136-2.837-2.725-2.837zM263.65 20.879c-.872 0-1.582.322-1.983.882v-.831h-.959v5.511h.999v-2.84c0-1.194.686-1.829 1.745-1.829.95 0 1.489.532 1.489 1.613v3.056h.998v-3.17c0-1.625-.947-2.392-2.289-2.392M270.578 25.403a1.258 1.258 0 0 1-.78.259c-.55 0-.863-.331-.863-.926V21.75h1.582v-.821h-1.582v-1.206h-.998v1.206h-.934v.821h.934v3.027c0 1.113.637 1.724 1.747 1.724.448 0 .906-.124 1.207-.385l-.313-.714" fill="#FFF"/></g></svg>