<?xml version="1.0" encoding="utf-8"?>
<!-- Generator: Adobe Illustrator 23.0.2, SVG Export Plug-In . SVG Version: 6.00 Build 0)  -->
<svg version="1.1" id="Layer_1" xmlns="http://www.w3.org/2000/svg" xmlns:xlink="http://www.w3.org/1999/xlink" x="0px" y="0px"
	 viewBox="0 0 267.3 70" style="enable-background:new 0 0 267.3 70;" xml:space="preserve">
<style type="text/css">
	.st0{fill:#1E1E21;}
	.st1{fill:#F4A421;}
	.st2{fill:#2B2628;stroke:#000000;stroke-miterlimit:10;}
	.st3{fill:#151515;}
	.st4{fill:#010101;}
	.st5{fill:#080808;}
	.st6{fill:#202020;}
	.st7{fill:#FFFFFF;}
	.st8{fill:#F8B02B;}
	.st9{opacity:0.3;}
	.st10{fill:#F8B850;}
	.st11{fill:#EF9C21;}
</style>
<g>
	<g>
		<path class="st0" d="M94.6,49.4c0,5-4.1,9.1-9.1,9.1c-4.3,0-7.7-3.1-8.9-6.6c-0.5-1.6,0.7-3.2,2.3-3.6c1.6-0.3,2.8,0.8,3.6,2.4
			c0.8,1.6,1.6,1.8,3,1.8c1.7,0,3.1-1.4,3.1-3.1c0-1.7-1.4-3.1-3.1-3.1c-2.4,0-4.7-1-6.4-2.7c-1.8-1.7-2.7-4-2.7-6.4
			c0-5,4.1-9.1,9.1-9.1c4.2,0,8.1,2.9,8.7,6.3c0.3,1.6-0.7,3.3-2.3,3.6c-1.6,0.4-3-0.7-3.6-2.2c-0.4-1-1.4-1.6-2.8-1.6
			c-1.7,0-3.1,1.4-3.1,3.1s1.4,3.1,3.1,3.1c2.4,0,4.7,1,6.4,2.7C93.7,44.8,94.6,47,94.6,49.4z"/>
		<path class="st0" d="M97.6,43.3c0-8.4,6.8-15.2,15.2-15.2c8.4,0,15.2,6.8,15.2,15.2c0,8.3-6.8,15.2-15.2,15.2
			C104.4,58.5,97.6,51.7,97.6,43.3z M103.6,43.3c0,5,4.1,9.2,9.2,9.2s9.2-4.2,9.2-9.2c0-5.1-4.1-9.2-9.2-9.2S103.6,38.2,103.6,43.3z
			"/>
		<path class="st0" d="M148.5,31.1c0,1.7-1.3,3-3,3h-5.3v21.4c0,1.7-1.3,3-3,3c-1.6,0-3-1.3-3-3V34.1h-3.3c-1.6,0-3-1.3-3-3
			c0-1.6,1.3-3,3-3h3.3c-0.1-4.3,1.5-8.2,4.4-11.1c1.6-1.6,3.5-2.8,5.7-3.6c1.5-0.6,3.3,0.2,3.8,1.8c0.5,1.5-0.2,3.3-1.8,3.8
			c-1.3,0.4-2.4,1.1-3.4,2.2c-1.8,1.8-2.7,4.2-2.7,6.9h5.3C147.2,28.1,148.5,29.5,148.5,31.1z"/>
		<path class="st0" d="M172.6,31.1c0,1.6-1.3,3-3,3h-4.3v21.4c0,1.6-1.3,3-3,3c-1.6,0-3-1.4-3-3V34.2H155c-1.6,0-3-1.4-3-3
			c0-1.6,1.3-3,3-3h4.4V16.1c0-1.6,1.3-3,3-3c1.7,0,3,1.3,3,3v12.1h4.3C171.3,28.2,172.6,29.5,172.6,31.1z"/>
		<path class="st1" d="M202.5,43.5v11.9c0,1.8-1.3,3-3,3c-1.2,0-2.9-1.3-2.9-3c-2.6,2.2-5.5,3-9,3c-8.5,0-15.3-6.4-15.3-14.9
			s6.8-15.3,15.3-15.3S202.5,35,202.5,43.5z M196.6,43.5c0-5.1-3.9-9.4-9-9.4s-9.4,4.3-9.4,9.4s4.3,9,9.4,9S196.6,48.6,196.6,43.5z"
			/>
		<path class="st1" d="M206.1,43.3c0-8.4,6.8-15.2,15.2-15.2c8.4,0,15.2,6.8,15.2,15.2c0,8.3-6.8,15.2-15.2,15.2
			C213,58.5,206.1,51.7,206.1,43.3z M212.1,43.3c0,5,4.1,9.2,9.2,9.2s9.2-4.2,9.2-9.2c0-5.1-4.1-9.2-9.2-9.2
			C216.2,34.1,212.1,38.2,212.1,43.3z"/>
		<path class="st1" d="M263.6,53.7c1,1.3,0.8,3.2-0.5,4.2c-0.5,0.4-1.1,0.7-1.8,0.7c-0.9,0-1.8-0.4-2.4-1.1l-7.1-9.1l-7.1,9.1
			c-0.6,0.7-1.5,1.1-2.4,1.1c-0.7,0-1.3-0.2-1.8-0.7c-1.3-1-1.6-2.8-0.5-4.2l8-10.3L240,33c-1-1.3-0.8-3.2,0.5-4.2
			c1.3-1,3.1-0.8,4.2,0.5l7.1,9.1l7.1-9.1c1-1.3,2.9-1.6,4.2-0.5c1.3,1,1.6,2.9,0.5,4.2l-8,10.3L263.6,53.7z"/>
	</g>
</g>
<path class="st2" d="M68.8,56.7c0,5.7-4.6,10.4-10.3,10.4H15.6C9.9,67,5.3,62.4,5.3,56.7V13.4c0-5.7,4.6-10.4,10.3-10.4h42.9
	c5.7,0,10.3,4.6,10.3,10.4V56.7z"/>
<g>
	<polygon class="st3" points="63.1,4.4 63.6,7.7 66,6.3 64.6,4.9 	"/>
	<polygon class="st4" points="68.8,10.7 63.6,7.7 66,6.3 67.4,7.7 	"/>
	<polygon class="st5" points="63.6,7.7 68.8,10.7 63.6,13.7 	"/>
	<polygon class="st4" points="68.8,16.7 63.6,13.7 68.8,10.7 	"/>
	<polygon class="st3" points="63.6,13.7 68.8,16.7 63.6,19.7 	"/>
	<polygon class="st6" points="68.8,22.7 63.6,19.7 68.8,16.7 	"/>
	<polygon class="st3" points="63.6,19.7 68.8,22.7 63.6,25.7 	"/>
	<polygon class="st3" points="68.8,28.7 63.6,25.7 68.8,22.7 	"/>
	<polygon class="st3" points="63.6,25.7 68.8,28.7 63.6,31.6 	"/>
	<polygon class="st6" points="68.8,34.6 63.6,31.6 68.8,28.7 	"/>
	<polygon class="st3" points="63.6,31.6 68.8,34.6 63.6,37.6 	"/>
	<polygon class="st4" points="68.8,40.6 63.6,37.6 68.8,34.6 	"/>
	<polygon class="st3" points="63.6,37.6 68.8,40.6 63.6,43.6 	"/>
	<polygon class="st5" points="68.8,46.6 63.6,43.6 68.8,40.6 	"/>
	<polygon class="st3" points="63.6,43.6 68.8,46.6 63.6,49.6 	"/>
	<polygon class="st5" points="68.8,52.6 63.6,49.6 68.8,46.6 	"/>
	<polygon class="st3" points="63.6,49.6 68.8,52.6 63.6,55.6 	"/>
	<polygon class="st3" points="68.8,58.5 63.6,55.6 68.8,52.6 	"/>
	<polygon class="st4" points="63.6,55.6 68.8,58.5 63.6,61.5 	"/>
	<path class="st6" d="M66.6,63.2l-3-1.7l5.3-3c0,0-0.6,2.1-1,2.8C67.6,61.8,66.6,63.2,66.6,63.2z"/>
	<polygon class="st5" points="63.6,65.5 65.1,64.7 66.6,63.2 63.6,61.5 	"/>
	<path class="st3" d="M59.7,3.5l-3.8-0.1l7.7,4.3l-0.4-3.3c0,0-0.8-0.4-1.4-0.7C61.3,3.5,59.7,3.5,59.7,3.5z"/>
	<polygon class="st6" points="58.3,4.8 63.6,7.7 58.3,10.7 	"/>
	<polygon class="st6" points="63.6,13.7 58.3,10.7 63.6,7.7 	"/>
	<polygon class="st5" points="58.3,10.7 63.6,13.7 58.3,16.7 	"/>
	<polygon class="st3" points="63.6,19.7 58.3,16.7 63.6,13.7 	"/>
	<polygon class="st5" points="58.3,16.7 63.6,19.7 58.3,22.7 	"/>
	<polygon class="st5" points="63.6,25.7 58.3,22.7 63.6,19.7 	"/>
	<polygon class="st5" points="58.3,22.7 63.6,25.7 58.3,28.7 	"/>
	<polygon class="st4" points="63.6,31.6 58.3,28.7 63.6,25.7 	"/>
	<polygon class="st4" points="58.3,28.7 63.6,31.6 58.3,34.6 	"/>
	<polygon class="st3" points="63.6,37.6 58.3,34.6 63.6,31.6 	"/>
	<polygon class="st4" points="58.3,34.6 63.6,37.6 58.3,40.6 	"/>
	<polygon class="st3" points="63.6,43.6 58.3,40.6 63.6,37.6 	"/>
	<polygon class="st4" points="58.3,40.6 63.6,43.6 58.3,46.6 	"/>
	<polygon class="st3" points="63.6,49.6 58.3,46.6 63.6,43.6 	"/>
	<polygon class="st3" points="58.3,46.6 63.6,49.6 58.3,52.6 	"/>
	<polygon class="st3" points="63.6,55.6 58.3,52.6 63.6,49.6 	"/>
	<polygon class="st3" points="58.3,52.6 63.6,55.6 58.3,58.5 	"/>
	<polygon class="st3" points="63.6,61.5 58.3,58.5 63.6,55.6 	"/>
	<polygon class="st5" points="58.3,58.5 63.6,61.5 58.3,64.5 	"/>
	<polygon class="st3" points="63.6,65.5 63.6,61.5 58.3,64.5 	"/>
	<polygon class="st4" points="63.6,65.5 58.3,64.5 58.3,66.6 60.9,66.4 	"/>
	<polygon class="st4" points="53,3.1 53,7.7 58.3,4.8 55.3,3.1 	"/>
	<polygon class="st4" points="58.3,10.7 53,7.7 58.3,4.8 	"/>
	<polygon class="st3" points="53,7.7 58.3,10.7 53,13.7 	"/>
	<polygon class="st4" points="58.3,16.7 53,13.7 58.3,10.7 	"/>
	<polygon class="st5" points="53,13.7 58.3,16.7 53,19.7 	"/>
	<polygon class="st5" points="58.3,22.7 53,19.7 58.3,16.7 	"/>
	<polygon class="st5" points="53,19.7 58.3,22.7 53,25.7 	"/>
	<polygon class="st4" points="58.3,28.7 53,25.7 58.3,22.7 	"/>
	<polygon class="st3" points="53,25.7 58.3,28.7 53,31.6 	"/>
	<polygon class="st6" points="58.3,34.6 53,31.6 58.3,28.7 	"/>
	<polygon class="st3" points="53,31.6 58.3,34.6 53,37.6 	"/>
	<polygon class="st3" points="58.3,40.6 53,37.6 58.3,34.6 	"/>
	<polygon class="st3" points="53,37.6 58.3,40.6 53,43.6 	"/>
	<polygon class="st3" points="58.3,46.6 53,43.6 58.3,40.6 	"/>
	<polygon class="st3" points="53,43.6 58.3,46.6 53,49.6 	"/>
	<polygon class="st3" points="58.3,52.6 53,49.6 58.3,46.6 	"/>
	<polygon class="st3" points="53,49.6 58.3,52.6 53,55.6 	"/>
	<polygon class="st6" points="58.3,58.5 53,55.6 58.3,52.6 	"/>
	<polygon class="st3" points="53,55.6 58.3,58.5 53,61.5 	"/>
	<polygon class="st3" points="58.3,64.5 53,61.5 58.3,58.5 	"/>
	<polygon class="st3" points="53.1,67.5 58.3,64.5 53,61.5 53,67.5 	"/>
	<polygon class="st4" points="58.3,67.5 58.3,64.5 53.1,67.5 	"/>
	<polygon class="st3" points="47.8,3.1 47.8,4.8 50.7,3.1 	"/>
	<polygon class="st5" points="50.7,3.1 47.8,4.8 53,7.7 53,3.1 	"/>
	<polygon class="st5" points="47.8,4.8 53,7.7 47.8,10.7 	"/>
	<polygon class="st3" points="53,13.7 47.8,10.7 53,7.7 	"/>
	<polygon class="st3" points="47.8,10.7 53,13.7 47.8,16.7 	"/>
	<polygon class="st3" points="53,19.7 47.8,16.7 53,13.7 	"/>
	<polygon class="st3" points="47.8,16.7 53,19.7 47.8,22.7 	"/>
	<polygon class="st3" points="53,25.7 47.8,22.7 53,19.7 	"/>
	<polygon class="st3" points="47.8,22.7 53,25.7 47.8,28.7 	"/>
	<polygon class="st3" points="53,31.6 47.8,28.7 53,25.7 	"/>
	<polygon class="st5" points="47.8,28.7 53,31.6 47.8,34.6 	"/>
	<polygon class="st4" points="53,37.6 47.8,34.6 53,31.6 	"/>
	<polygon class="st5" points="47.8,34.6 53,37.6 47.8,40.6 	"/>
	<polygon class="st3" points="53,43.6 47.8,40.6 53,37.6 	"/>
	<polygon class="st5" points="47.8,40.6 53,43.6 47.8,46.6 	"/>
	<polygon class="st5" points="53,49.6 47.8,46.6 53,43.6 	"/>
	<polygon class="st6" points="47.8,46.6 53,49.6 47.8,52.6 	"/>
	<polygon class="st5" points="53,55.6 47.8,52.6 53,49.6 	"/>
	<polygon class="st3" points="47.8,52.6 53,55.6 47.8,58.5 	"/>
	<polygon class="st4" points="53,61.5 47.8,58.5 53,55.6 	"/>
	<polygon class="st4" points="47.8,58.5 53,61.5 47.8,64.5 	"/>
	<polygon class="st3" points="53,67.5 53,61.5 47.8,64.5 53,67.5 	"/>
	<polygon class="st6" points="53,67.5 47.8,64.5 47.8,67.5 	"/>
	<polygon class="st3" points="44.8,3.1 47.8,4.8 47.8,3.1 	"/>
	<polygon class="st6" points="42.5,3.1 42.5,7.7 47.8,4.8 44.8,3.1 	"/>
	<polygon class="st3" points="47.8,10.7 42.5,7.7 47.8,4.8 	"/>
	<polygon class="st6" points="42.5,7.7 47.8,10.7 42.5,13.7 	"/>
	<polygon class="st6" points="47.8,16.7 42.5,13.7 47.8,10.7 	"/>
	<polygon class="st6" points="42.5,13.7 47.8,16.7 42.5,19.7 	"/>
	<polygon class="st5" points="47.8,22.7 42.5,19.7 47.8,16.7 	"/>
	<polygon class="st5" points="42.5,19.7 47.8,22.7 42.5,25.7 	"/>
	<polygon class="st3" points="47.8,28.7 42.5,25.7 47.8,22.7 	"/>
	<polygon class="st6" points="42.5,25.7 47.8,28.7 42.5,31.6 	"/>
	<polygon class="st4" points="47.8,34.6 42.5,31.6 47.8,28.7 	"/>
	<polygon class="st3" points="42.5,31.6 47.8,34.6 42.5,37.6 	"/>
	<polygon class="st3" points="47.8,40.6 42.5,37.6 47.8,34.6 	"/>
	<polygon class="st3" points="42.5,37.6 47.8,40.6 42.5,43.6 	"/>
	<polygon class="st5" points="47.8,46.6 42.5,43.6 47.8,40.6 	"/>
	<polygon class="st5" points="42.5,43.6 47.8,46.6 42.5,49.6 	"/>
	<polygon class="st5" points="47.8,52.6 42.5,49.6 47.8,46.6 	"/>
	<polygon class="st6" points="42.5,49.6 47.8,52.6 42.5,55.6 	"/>
	<polygon class="st3" points="47.8,58.5 42.5,55.6 47.8,52.6 	"/>
	<polygon class="st4" points="42.5,55.6 47.8,58.5 42.5,61.5 	"/>
	<polygon class="st3" points="47.8,64.5 42.5,61.5 47.8,58.5 	"/>
	<polygon class="st3" points="42.5,67.5 47.8,64.5 42.5,61.5 42.5,67.5 	"/>
	<polygon class="st3" points="47.8,67.5 47.8,64.5 42.5,67.5 	"/>
	<polygon class="st4" points="37.2,3.1 37.2,4.8 40.2,3.1 	"/>
	<polygon class="st4" points="40.2,3.1 37.2,4.8 42.5,7.7 42.5,3.1 	"/>
	<polygon class="st3" points="37.2,4.8 42.5,7.7 37.2,10.7 	"/>
	<polygon class="st4" points="42.5,13.7 37.2,10.7 42.5,7.7 	"/>
	<polygon class="st4" points="37.2,10.7 42.5,13.7 37.2,16.7 	"/>
	<polygon class="st5" points="42.5,19.7 37.2,16.7 42.5,13.7 	"/>
	<polygon class="st5" points="37.2,16.7 42.5,19.7 37.2,22.7 	"/>
	<polygon class="st4" points="42.5,25.7 37.2,22.7 42.5,19.7 	"/>
	<polygon class="st3" points="37.2,22.7 42.5,25.7 37.2,28.7 	"/>
	<polygon class="st6" points="42.5,31.6 37.2,28.7 42.5,25.7 	"/>
	<polygon class="st5" points="37.2,28.7 42.5,31.6 37.2,34.6 	"/>
	<polygon class="st4" points="42.5,37.6 37.2,34.6 42.5,31.6 	"/>
	<polygon class="st3" points="37.2,34.6 42.5,37.6 37.2,40.6 	"/>
	<polygon class="st5" points="42.5,43.6 37.2,40.6 42.5,37.6 	"/>
	<polygon class="st5" points="37.2,40.6 42.5,43.6 37.2,46.6 	"/>
	<polygon class="st3" points="42.5,49.6 37.2,46.6 42.5,43.6 	"/>
	<polygon class="st6" points="37.2,46.6 42.5,49.6 37.2,52.6 	"/>
	<polygon class="st5" points="42.5,55.6 37.2,52.6 42.5,49.6 	"/>
	<polygon class="st6" points="37.2,52.6 42.5,55.6 37.2,58.5 	"/>
	<polygon class="st4" points="42.5,61.5 37.2,58.5 42.5,55.6 	"/>
	<polygon class="st3" points="37.2,58.5 42.5,61.5 37.2,64.5 	"/>
	<polygon class="st4" points="42.5,67.5 42.5,61.5 37.2,64.5 42.4,67.5 	"/>
	<polygon class="st5" points="42.4,67.5 37.2,64.5 37.2,67.5 	"/>
	<polygon class="st3" points="34.2,3.1 37.2,4.8 37.2,3.1 	"/>
	<polygon class="st3" points="31.9,3.1 31.9,7.7 37.2,4.8 34.2,3.1 	"/>
	<polygon class="st4" points="37.2,10.7 31.9,7.7 37.2,4.8 	"/>
	<polygon class="st5" points="31.9,7.7 37.2,10.7 31.9,13.7 	"/>
	<polygon class="st3" points="37.2,16.7 31.9,13.7 37.2,10.7 	"/>
	<polygon class="st3" points="31.9,13.7 37.2,16.7 31.9,19.7 	"/>
	<polygon class="st3" points="37.2,22.7 31.9,19.7 37.2,16.7 	"/>
	<polygon class="st3" points="31.9,19.7 37.2,22.7 31.9,25.7 	"/>
	<polygon class="st3" points="37.2,28.7 31.9,25.7 37.2,22.7 	"/>
	<polygon class="st3" points="31.9,25.7 37.2,28.7 31.9,31.6 	"/>
	<polygon class="st5" points="37.2,34.6 31.9,31.6 37.2,28.7 	"/>
	<polygon class="st4" points="31.9,31.6 37.2,34.6 31.9,37.6 	"/>
	<polygon class="st3" points="37.2,40.6 31.9,37.6 37.2,34.6 	"/>
	<polygon class="st4" points="31.9,37.6 37.2,40.6 31.9,43.6 	"/>
	<polygon class="st4" points="37.2,46.6 31.9,43.6 37.2,40.6 	"/>
	<polygon class="st3" points="31.9,43.6 37.2,46.6 31.9,49.6 	"/>
	<polygon class="st3" points="37.2,52.6 31.9,49.6 37.2,46.6 	"/>
	<polygon class="st4" points="31.9,49.6 37.2,52.6 31.9,55.6 	"/>
	<polygon class="st3" points="37.2,58.5 31.9,55.6 37.2,52.6 	"/>
	<polygon class="st3" points="31.9,55.6 37.2,58.5 31.9,61.5 	"/>
	<polygon class="st6" points="37.2,64.5 31.9,61.5 37.2,58.5 	"/>
	<polygon class="st3" points="32,67.5 37.2,64.5 31.9,61.5 31.9,67.5 	"/>
	<polygon class="st5" points="37.2,67.5 37.2,64.5 32,67.5 	"/>
	<polygon class="st3" points="26.7,3.1 26.7,4.8 29.6,3.1 	"/>
	<polygon class="st5" points="29.6,3.1 26.7,4.8 31.9,7.7 31.9,3.1 	"/>
	<polygon class="st5" points="26.7,4.8 31.9,7.7 26.7,10.7 	"/>
	<polygon class="st6" points="31.9,13.7 26.7,10.7 31.9,7.7 	"/>
	<polygon class="st6" points="26.7,10.7 31.9,13.7 26.7,16.7 	"/>
	<polygon class="st3" points="31.9,19.7 26.7,16.7 31.9,13.7 	"/>
	<polygon class="st5" points="26.7,16.7 31.9,19.7 26.7,22.7 	"/>
	<polygon class="st6" points="31.9,25.7 26.7,22.7 31.9,19.7 	"/>
	<polygon class="st3" points="26.7,22.7 31.9,25.7 26.7,28.7 	"/>
	<polygon class="st3" points="31.9,31.6 26.7,28.7 31.9,25.7 	"/>
	<polygon class="st5" points="26.7,28.7 31.9,31.6 26.7,34.6 	"/>
	<polygon class="st5" points="31.9,37.6 26.7,34.6 31.9,31.6 	"/>
	<polygon class="st3" points="26.7,34.6 31.9,37.6 26.7,40.6 	"/>
	<polygon class="st4" points="31.9,43.6 26.7,40.6 31.9,37.6 	"/>
	<polygon class="st5" points="26.7,40.6 31.9,43.6 26.7,46.6 	"/>
	<polygon class="st3" points="31.9,49.6 26.7,46.6 31.9,43.6 	"/>
	<polygon class="st5" points="26.7,46.6 31.9,49.6 26.7,52.6 	"/>
	<polygon class="st3" points="31.9,55.6 26.7,52.6 31.9,49.6 	"/>
	<polygon class="st3" points="26.7,52.6 31.9,55.6 26.7,58.5 	"/>
	<polygon class="st3" points="31.9,61.5 26.7,58.5 31.9,55.6 	"/>
	<polygon class="st4" points="26.7,58.5 31.9,61.5 26.7,64.5 	"/>
	<polygon class="st3" points="31.9,67.5 31.9,61.5 26.7,64.5 31.9,67.5 	"/>
	<polygon class="st3" points="31.9,67.5 26.7,64.5 26.7,67.5 	"/>
	<polygon class="st3" points="23.7,3.1 26.7,4.8 26.7,3.1 	"/>
	<polygon class="st5" points="21.4,3.1 21.4,7.7 26.7,4.8 23.7,3.1 	"/>
	<polygon class="st3" points="26.7,10.7 21.4,7.7 26.7,4.8 	"/>
	<polygon class="st5" points="21.4,7.7 26.7,10.7 21.4,13.7 	"/>
	<polygon class="st3" points="26.7,16.7 21.4,13.7 26.7,10.7 	"/>
	<polygon class="st3" points="21.4,13.7 26.7,16.7 21.4,19.7 	"/>
	<polygon class="st3" points="26.7,22.7 21.4,19.7 26.7,16.7 	"/>
	<polygon class="st6" points="21.4,19.7 26.7,22.7 21.4,25.7 	"/>
	<polygon class="st6" points="26.7,28.7 21.4,25.7 26.7,22.7 	"/>
	<polygon class="st3" points="21.4,25.7 26.7,28.7 21.4,31.6 	"/>
	<polygon class="st6" points="26.7,34.6 21.4,31.6 26.7,28.7 	"/>
	<polygon class="st6" points="21.4,31.6 26.7,34.6 21.4,37.6 	"/>
	<polygon class="st4" points="26.7,40.6 21.4,37.6 26.7,34.6 	"/>
	<polygon class="st5" points="21.4,37.6 26.7,40.6 21.4,43.6 	"/>
	<polygon class="st6" points="26.7,46.6 21.4,43.6 26.7,40.6 	"/>
	<polygon class="st4" points="21.4,43.6 26.7,46.6 21.4,49.6 	"/>
	<polygon class="st4" points="26.7,52.6 21.4,49.6 26.7,46.6 	"/>
	<polygon class="st3" points="21.4,49.6 26.7,52.6 21.4,55.6 	"/>
	<polygon class="st3" points="26.7,58.5 21.4,55.6 26.7,52.6 	"/>
	<polygon class="st3" points="21.4,55.6 26.7,58.5 21.4,61.5 	"/>
	<polygon class="st4" points="26.7,64.5 21.4,61.5 26.7,58.5 	"/>
	<polygon class="st4" points="21.4,67.5 26.7,64.5 21.4,61.5 21.4,67.5 	"/>
	<polygon class="st4" points="26.7,67.5 26.7,64.5 21.4,67.5 	"/>
	<polygon class="st5" points="16.1,3.1 16.1,4.8 19.1,3.1 	"/>
	<polygon class="st5" points="19.1,3.1 16.1,4.8 21.4,7.7 21.4,3.1 	"/>
	<polygon class="st3" points="16.1,4.8 21.4,7.7 16.1,10.7 	"/>
	<polygon class="st5" points="21.4,13.7 16.1,10.7 21.4,7.7 	"/>
	<polygon class="st5" points="16.1,10.7 21.4,13.7 16.1,16.7 	"/>
	<polygon class="st3" points="21.4,19.7 16.1,16.7 21.4,13.7 	"/>
	<polygon class="st6" points="16.1,16.7 21.4,19.7 16.1,22.7 	"/>
	<polygon class="st4" points="21.4,25.7 16.1,22.7 21.4,19.7 	"/>
	<polygon class="st5" points="16.1,22.7 21.4,25.7 16.1,28.7 	"/>
	<polygon class="st6" points="21.4,31.6 16.1,28.7 21.4,25.7 	"/>
	<polygon class="st3" points="16.1,28.7 21.4,31.6 16.1,34.6 	"/>
	<polygon class="st6" points="21.4,37.6 16.1,34.6 21.4,31.6 	"/>
	<polygon class="st3" points="16.1,34.6 21.4,37.6 16.1,40.6 	"/>
	<polygon class="st3" points="21.4,43.6 16.1,40.6 21.4,37.6 	"/>
	<polygon class="st3" points="16.1,40.6 21.4,43.6 16.1,46.6 	"/>
	<polygon class="st3" points="21.4,49.6 16.1,46.6 21.4,43.6 	"/>
	<polygon class="st4" points="16.1,46.6 21.4,49.6 16.1,52.6 	"/>
	<polygon class="st3" points="21.4,55.6 16.1,52.6 21.4,49.6 	"/>
	<polygon class="st3" points="16.1,52.6 21.4,55.6 16.1,58.5 	"/>
	<polygon class="st3" points="21.4,61.5 16.1,58.5 21.4,55.6 	"/>
	<polygon class="st3" points="16.1,58.5 21.4,61.5 16.1,64.5 	"/>
	<polygon class="st5" points="21.4,67.5 21.4,61.5 16.1,64.5 21.4,67.5 	"/>
	<polygon class="st3" points="21.4,66.6 16.1,64.5 16.1,66.6 	"/>
	<polygon class="st5" points="13.8,3.4 16.1,4.8 16.1,3.1 	"/>
	<polygon class="st5" points="11.2,4.5 10.8,7.7 16.1,4.8 14,3.4 	"/>
	<polygon class="st3" points="16.1,10.7 10.8,7.7 16.1,4.8 	"/>
	<polygon class="st5" points="10.8,7.7 16.1,10.7 10.8,13.7 	"/>
	<polygon class="st3" points="16.1,16.7 10.8,13.7 16.1,10.7 	"/>
	<polygon class="st3" points="10.8,13.7 16.1,16.7 10.8,19.7 	"/>
	<polygon class="st3" points="16.1,22.7 10.8,19.7 16.1,16.7 	"/>
	<polygon class="st3" points="10.8,19.7 16.1,22.7 10.8,25.7 	"/>
	<polygon class="st6" points="16.1,28.7 10.8,25.7 16.1,22.7 	"/>
	<polygon class="st4" points="10.8,25.7 16.1,28.7 10.8,31.6 	"/>
	<polygon class="st5" points="16.1,34.6 10.8,31.6 16.1,28.7 	"/>
	<polygon class="st3" points="10.8,31.6 16.1,34.6 10.8,37.6 	"/>
	<polygon class="st3" points="16.1,40.6 10.8,37.6 16.1,34.6 	"/>
	<polygon class="st5" points="10.8,37.6 16.1,40.6 10.8,43.6 	"/>
	<polygon class="st5" points="16.1,46.6 10.8,43.6 16.1,40.6 	"/>
	<polygon class="st4" points="10.8,43.6 16.1,46.6 10.8,49.6 	"/>
	<polygon class="st5" points="16.1,52.6 10.8,49.6 16.1,46.6 	"/>
	<polygon class="st5" points="10.8,49.6 16.1,52.6 10.8,55.6 	"/>
	<polygon class="st3" points="16.1,58.5 10.8,55.6 16.1,52.6 	"/>
	<polygon class="st3" points="10.8,55.6 16.1,58.5 10.8,61.5 	"/>
	<polygon class="st6" points="16.1,64.5 10.8,61.5 16.1,58.5 	"/>
	<polygon class="st6" points="11.2,65.5 16.1,64.5 10.8,61.5 10.7,65.2 	"/>
	<path class="st5" d="M16.1,66.6v-2.1l-3.2,1.7c0,0,1.2,0.3,1.5,0.3C14.9,66.6,16.1,66.6,16.1,66.6z"/>
	<path class="st4" d="M10.8,13.7L6,10.9c0,0,0.6-2,1-2.5c0.4-0.6,1.2-1.5,1.7-2.1c0.5-0.6,2.6-1.9,2.6-1.9L10.8,13.7z"/>
	<polygon class="st3" points="5.7,10.7 10.8,13.7 5.6,16.7 	"/>
	<polygon class="st3" points="10.8,19.7 5.6,16.7 10.8,13.7 	"/>
	<polygon class="st5" points="5.6,16.7 10.8,19.7 5.6,22.7 	"/>
	<polygon class="st5" points="10.8,25.7 5.6,22.7 10.8,19.7 	"/>
	<polygon class="st3" points="5.6,22.7 10.8,25.7 5.6,28.7 	"/>
	<polygon class="st3" points="10.8,31.6 5.6,28.7 10.8,25.7 	"/>
	<polygon class="st5" points="5.6,28.7 10.8,31.6 5.6,34.6 	"/>
	<polygon class="st3" points="10.8,37.6 5.6,34.6 10.8,31.6 	"/>
	<polygon class="st6" points="5.6,34.6 10.8,37.6 5.6,40.6 	"/>
	<polygon class="st4" points="10.8,43.6 5.6,40.6 10.8,37.6 	"/>
	<polygon class="st3" points="5.6,40.6 10.8,43.6 5.6,46.6 	"/>
	<polygon class="st6" points="10.8,49.6 5.6,46.6 10.8,43.6 	"/>
	<polygon class="st3" points="5.6,46.6 10.8,49.6 5.6,52.6 	"/>
	<polygon class="st5" points="10.8,55.6 5.6,52.6 10.8,49.6 	"/>
	<polygon class="st5" points="5.6,52.6 10.8,55.6 5.6,58.5 	"/>
	<polygon class="st5" points="10.8,61.5 5.6,58.5 10.8,55.6 	"/>
	<polygon class="st5" points="5.6,58.5 10.8,61.5 7.1,62.2 	"/>
	<path class="st4" d="M10.7,65.2l0.2-3.7l-3.4,0.7c0,0,0.6,0.8,0.9,1.2C9,64.3,10.7,65.2,10.7,65.2z"/>
</g>
<g>
	<polygon class="st3" points="62.8,4.4 63.2,7.7 65.6,6.3 64.2,4.9 	"/>
	<polygon class="st4" points="68.5,10.7 63.2,7.7 65.6,6.3 67.1,7.7 	"/>
	<polygon class="st5" points="63.2,7.7 68.5,10.7 63.2,13.7 	"/>
	<polygon class="st4" points="68.5,16.7 63.2,13.7 68.5,10.7 	"/>
	<polygon class="st3" points="63.2,13.7 68.5,16.7 63.2,19.7 	"/>
	<polygon class="st6" points="68.5,22.7 63.2,19.7 68.5,16.7 	"/>
	<polygon class="st3" points="63.2,19.7 68.5,22.7 63.2,25.7 	"/>
	<polygon class="st3" points="68.5,28.7 63.2,25.7 68.5,22.7 	"/>
	<polygon class="st3" points="63.2,25.7 68.5,28.7 63.2,31.6 	"/>
	<polygon class="st6" points="68.5,34.6 63.2,31.6 68.5,28.7 	"/>
	<polygon class="st3" points="63.2,31.6 68.5,34.6 63.2,37.6 	"/>
	<polygon class="st4" points="68.5,40.6 63.2,37.6 68.5,34.6 	"/>
	<polygon class="st3" points="63.2,37.6 68.5,40.6 63.2,43.6 	"/>
	<polygon class="st5" points="68.5,46.6 63.2,43.6 68.5,40.6 	"/>
	<polygon class="st3" points="63.2,43.6 68.5,46.6 63.2,49.6 	"/>
	<polygon class="st5" points="68.5,52.6 63.2,49.6 68.5,46.6 	"/>
	<polygon class="st3" points="63.2,49.6 68.5,52.6 63.2,55.6 	"/>
	<polygon class="st3" points="68.5,58.5 63.2,55.6 68.5,52.6 	"/>
	<polygon class="st4" points="63.2,55.6 68.5,58.5 63.2,61.5 	"/>
	<path class="st6" d="M66.2,63.2l-3-1.7l5.2-3c0,0-0.6,2.1-0.9,2.8C67.3,61.8,66.2,63.2,66.2,63.2z"/>
	<polygon class="st5" points="63.2,65.5 64.7,64.7 66.2,63.2 63.2,61.5 	"/>
	<path class="st3" d="M59.4,3.5l-3.8-0.1l7.6,4.3l-0.4-3.3c0,0-0.8-0.4-1.4-0.7C61,3.5,59.4,3.5,59.4,3.5z"/>
	<polygon class="st6" points="58,4.8 63.2,7.7 58,10.7 	"/>
	<polygon class="st6" points="63.2,13.7 58,10.7 63.2,7.7 	"/>
	<polygon class="st5" points="58,10.7 63.2,13.7 58,16.7 	"/>
	<polygon class="st3" points="63.2,19.7 58,16.7 63.2,13.7 	"/>
	<polygon class="st5" points="58,16.7 63.2,19.7 58,22.7 	"/>
	<polygon class="st5" points="63.2,25.7 58,22.7 63.2,19.7 	"/>
	<polygon class="st5" points="58,22.7 63.2,25.7 58,28.7 	"/>
	<polygon class="st4" points="63.2,31.6 58,28.7 63.2,25.7 	"/>
	<polygon class="st4" points="58,28.7 63.2,31.6 58,34.6 	"/>
	<polygon class="st3" points="63.2,37.6 58,34.6 63.2,31.6 	"/>
	<polygon class="st4" points="58,34.6 63.2,37.6 58,40.6 	"/>
	<polygon class="st3" points="63.2,43.6 58,40.6 63.2,37.6 	"/>
	<polygon class="st4" points="58,40.6 63.2,43.6 58,46.6 	"/>
	<polygon class="st3" points="63.2,49.6 58,46.6 63.2,43.6 	"/>
	<polygon class="st3" points="58,46.6 63.2,49.6 58,52.6 	"/>
	<polygon class="st3" points="63.2,55.6 58,52.6 63.2,49.6 	"/>
	<polygon class="st3" points="58,52.6 63.2,55.6 58,58.5 	"/>
	<polygon class="st3" points="63.2,61.5 58,58.5 63.2,55.6 	"/>
	<polygon class="st5" points="58,58.5 63.2,61.5 58,64.5 	"/>
	<polygon class="st3" points="63.2,65.5 63.2,61.5 58,64.5 	"/>
	<polygon class="st4" points="63.2,65.5 58,64.5 58,66.6 60.6,66.4 	"/>
	<polygon class="st4" points="52.8,3.1 52.8,7.7 58,4.8 55,3.1 	"/>
	<polygon class="st4" points="58,10.7 52.8,7.7 58,4.8 	"/>
	<polygon class="st3" points="52.8,7.7 58,10.7 52.8,13.7 	"/>
	<polygon class="st4" points="58,16.7 52.8,13.7 58,10.7 	"/>
	<polygon class="st5" points="52.8,13.7 58,16.7 52.8,19.7 	"/>
	<polygon class="st5" points="58,22.7 52.8,19.7 58,16.7 	"/>
	<polygon class="st5" points="52.8,19.7 58,22.7 52.8,25.7 	"/>
	<polygon class="st4" points="58,28.7 52.8,25.7 58,22.7 	"/>
	<polygon class="st3" points="52.8,25.7 58,28.7 52.8,31.6 	"/>
	<polygon class="st6" points="58,34.6 52.8,31.6 58,28.7 	"/>
	<polygon class="st3" points="52.8,31.6 58,34.6 52.8,37.6 	"/>
	<polygon class="st3" points="58,40.6 52.8,37.6 58,34.6 	"/>
	<polygon class="st3" points="52.8,37.6 58,40.6 52.8,43.6 	"/>
	<polygon class="st3" points="58,46.6 52.8,43.6 58,40.6 	"/>
	<polygon class="st3" points="52.8,43.6 58,46.6 52.8,49.6 	"/>
	<polygon class="st3" points="58,52.6 52.8,49.6 58,46.6 	"/>
	<polygon class="st3" points="52.8,49.6 58,52.6 52.8,55.6 	"/>
	<polygon class="st6" points="58,58.5 52.8,55.6 58,52.6 	"/>
	<polygon class="st3" points="52.8,55.6 58,58.5 52.8,61.5 	"/>
	<polygon class="st3" points="58,64.5 52.8,61.5 58,58.5 	"/>
	<polygon class="st3" points="52.8,67.5 58,64.5 52.8,61.5 52.8,67.5 	"/>
	<polygon class="st4" points="58,67.5 58,64.5 52.8,67.5 	"/>
	<polygon class="st3" points="47.5,3.1 47.5,4.8 50.5,3.1 	"/>
	<polygon class="st5" points="50.5,3.1 47.5,4.8 52.8,7.7 52.8,3.1 	"/>
	<polygon class="st5" points="47.5,4.8 52.8,7.7 47.5,10.7 	"/>
	<polygon class="st3" points="52.8,13.7 47.5,10.7 52.8,7.7 	"/>
	<polygon class="st3" points="47.5,10.7 52.8,13.7 47.5,16.7 	"/>
	<polygon class="st3" points="52.8,19.7 47.5,16.7 52.8,13.7 	"/>
	<polygon class="st3" points="47.5,16.7 52.8,19.7 47.5,22.7 	"/>
	<polygon class="st3" points="52.8,25.7 47.5,22.7 52.8,19.7 	"/>
	<polygon class="st3" points="47.5,22.7 52.8,25.7 47.5,28.7 	"/>
	<polygon class="st3" points="52.8,31.6 47.5,28.7 52.8,25.7 	"/>
	<polygon class="st5" points="47.5,28.7 52.8,31.6 47.5,34.6 	"/>
	<polygon class="st4" points="52.8,37.6 47.5,34.6 52.8,31.6 	"/>
	<polygon class="st5" points="47.5,34.6 52.8,37.6 47.5,40.6 	"/>
	<polygon class="st3" points="52.8,43.6 47.5,40.6 52.8,37.6 	"/>
	<polygon class="st5" points="47.5,40.6 52.8,43.6 47.5,46.6 	"/>
	<polygon class="st5" points="52.8,49.6 47.5,46.6 52.8,43.6 	"/>
	<polygon class="st6" points="47.5,46.6 52.8,49.6 47.5,52.6 	"/>
	<polygon class="st5" points="52.8,55.6 47.5,52.6 52.8,49.6 	"/>
	<polygon class="st3" points="47.5,52.6 52.8,55.6 47.5,58.5 	"/>
	<polygon class="st4" points="52.8,61.5 47.5,58.5 52.8,55.6 	"/>
	<polygon class="st4" points="47.5,58.5 52.8,61.5 47.5,64.5 	"/>
	<polygon class="st3" points="52.8,67.5 52.8,61.5 47.5,64.5 52.7,67.5 	"/>
	<polygon class="st6" points="52.7,67.5 47.5,64.5 47.5,67.5 	"/>
	<polygon class="st3" points="44.6,3.1 47.5,4.8 47.5,3.1 	"/>
	<polygon class="st6" points="42.3,3.1 42.3,7.7 47.5,4.8 44.6,3.1 	"/>
	<polygon class="st3" points="47.5,10.7 42.3,7.7 47.5,4.8 	"/>
	<polygon class="st6" points="42.3,7.7 47.5,10.7 42.3,13.7 	"/>
	<polygon class="st6" points="47.5,16.7 42.3,13.7 47.5,10.7 	"/>
	<polygon class="st6" points="42.3,13.7 47.5,16.7 42.3,19.7 	"/>
	<polygon class="st5" points="47.5,22.7 42.3,19.7 47.5,16.7 	"/>
	<polygon class="st5" points="42.3,19.7 47.5,22.7 42.3,25.7 	"/>
	<polygon class="st3" points="47.5,28.7 42.3,25.7 47.5,22.7 	"/>
	<polygon class="st6" points="42.3,25.7 47.5,28.7 42.3,31.6 	"/>
	<polygon class="st4" points="47.5,34.6 42.3,31.6 47.5,28.7 	"/>
	<polygon class="st3" points="42.3,31.6 47.5,34.6 42.3,37.6 	"/>
	<polygon class="st3" points="47.5,40.6 42.3,37.6 47.5,34.6 	"/>
	<polygon class="st3" points="42.3,37.6 47.5,40.6 42.3,43.6 	"/>
	<polygon class="st5" points="47.5,46.6 42.3,43.6 47.5,40.6 	"/>
	<polygon class="st5" points="42.3,43.6 47.5,46.6 42.3,49.6 	"/>
	<polygon class="st5" points="47.5,52.6 42.3,49.6 47.5,46.6 	"/>
	<polygon class="st6" points="42.3,49.6 47.5,52.6 42.3,55.6 	"/>
	<polygon class="st3" points="47.5,58.5 42.3,55.6 47.5,52.6 	"/>
	<polygon class="st4" points="42.3,55.6 47.5,58.5 42.3,61.5 	"/>
	<polygon class="st3" points="47.5,64.5 42.3,61.5 47.5,58.5 	"/>
	<polygon class="st3" points="42.3,67.5 47.5,64.5 42.3,61.5 42.3,67.5 	"/>
	<polygon class="st3" points="47.5,67.5 47.5,64.5 42.3,67.5 	"/>
	<polygon class="st4" points="37,3.1 37,4.8 40,3.1 	"/>
	<polygon class="st4" points="40,3.1 37,4.8 42.3,7.7 42.3,3.1 	"/>
	<polygon class="st3" points="37,4.8 42.3,7.7 37,10.7 	"/>
	<polygon class="st4" points="42.3,13.7 37,10.7 42.3,7.7 	"/>
	<polygon class="st4" points="37,10.7 42.3,13.7 37,16.7 	"/>
	<polygon class="st5" points="42.3,19.7 37,16.7 42.3,13.7 	"/>
	<polygon class="st5" points="37,16.7 42.3,19.7 37,22.7 	"/>
	<polygon class="st4" points="42.3,25.7 37,22.7 42.3,19.7 	"/>
	<polygon class="st3" points="37,22.7 42.3,25.7 37,28.7 	"/>
	<polygon class="st6" points="42.3,31.6 37,28.7 42.3,25.7 	"/>
	<polygon class="st5" points="37,28.7 42.3,31.6 37,34.6 	"/>
	<polygon class="st4" points="42.3,37.6 37,34.6 42.3,31.6 	"/>
	<polygon class="st3" points="37,34.6 42.3,37.6 37,40.6 	"/>
	<polygon class="st5" points="42.3,43.6 37,40.6 42.3,37.6 	"/>
	<polygon class="st5" points="37,40.6 42.3,43.6 37,46.6 	"/>
	<polygon class="st3" points="42.3,49.6 37,46.6 42.3,43.6 	"/>
	<polygon class="st6" points="37,46.6 42.3,49.6 37,52.6 	"/>
	<polygon class="st5" points="42.3,55.6 37,52.6 42.3,49.6 	"/>
	<polygon class="st6" points="37,52.6 42.3,55.6 37,58.5 	"/>
	<polygon class="st4" points="42.3,61.5 37,58.5 42.3,55.6 	"/>
	<polygon class="st3" points="37,58.5 42.3,61.5 37,64.5 	"/>
	<polygon class="st4" points="42.3,67.5 42.3,61.5 37,64.5 42.2,67.5 	"/>
	<polygon class="st5" points="42.2,67.5 37,64.5 37,67.5 	"/>
	<polygon class="st3" points="34.1,3.1 37,4.8 37,3.1 	"/>
	<polygon class="st3" points="31.8,3.1 31.8,7.7 37,4.8 34.1,3.1 	"/>
	<polygon class="st4" points="37,10.7 31.8,7.7 37,4.8 	"/>
	<polygon class="st5" points="31.8,7.7 37,10.7 31.8,13.7 	"/>
	<polygon class="st3" points="37,16.7 31.8,13.7 37,10.7 	"/>
	<polygon class="st3" points="31.8,13.7 37,16.7 31.8,19.7 	"/>
	<polygon class="st3" points="37,22.7 31.8,19.7 37,16.7 	"/>
	<polygon class="st3" points="31.8,19.7 37,22.7 31.8,25.7 	"/>
	<polygon class="st3" points="37,28.7 31.8,25.7 37,22.7 	"/>
	<polygon class="st3" points="31.8,25.7 37,28.7 31.8,31.6 	"/>
	<polygon class="st5" points="37,34.6 31.8,31.6 37,28.7 	"/>
	<polygon class="st4" points="31.8,31.6 37,34.6 31.8,37.6 	"/>
	<polygon class="st3" points="37,40.6 31.8,37.6 37,34.6 	"/>
	<polygon class="st4" points="31.8,37.6 37,40.6 31.8,43.6 	"/>
	<polygon class="st4" points="37,46.6 31.8,43.6 37,40.6 	"/>
	<polygon class="st3" points="31.8,43.6 37,46.6 31.8,49.6 	"/>
	<polygon class="st3" points="37,52.6 31.8,49.6 37,46.6 	"/>
	<polygon class="st4" points="31.8,49.6 37,52.6 31.8,55.6 	"/>
	<polygon class="st3" points="37,58.5 31.8,55.6 37,52.6 	"/>
	<polygon class="st3" points="31.8,55.6 37,58.5 31.8,61.5 	"/>
	<polygon class="st6" points="37,64.5 31.8,61.5 37,58.5 	"/>
	<polygon class="st3" points="31.8,67.5 37,64.5 31.8,61.5 31.8,67.5 	"/>
	<polygon class="st5" points="37,67.5 37,64.5 31.8,67.5 	"/>
	<polygon class="st3" points="26.5,3.1 26.5,4.8 29.5,3.1 	"/>
	<polygon class="st5" points="29.5,3.1 26.5,4.8 31.8,7.7 31.8,3.1 	"/>
	<polygon class="st5" points="26.5,4.8 31.8,7.7 26.5,10.7 	"/>
	<polygon class="st6" points="31.8,13.7 26.5,10.7 31.8,7.7 	"/>
	<polygon class="st6" points="26.5,10.7 31.8,13.7 26.5,16.7 	"/>
	<polygon class="st3" points="31.8,19.7 26.5,16.7 31.8,13.7 	"/>
	<polygon class="st5" points="26.5,16.7 31.8,19.7 26.5,22.7 	"/>
	<polygon class="st6" points="31.8,25.7 26.5,22.7 31.8,19.7 	"/>
	<polygon class="st3" points="26.5,22.7 31.8,25.7 26.5,28.7 	"/>
	<polygon class="st3" points="31.8,31.6 26.5,28.7 31.8,25.7 	"/>
	<polygon class="st5" points="26.5,28.7 31.8,31.6 26.5,34.6 	"/>
	<polygon class="st5" points="31.8,37.6 26.5,34.6 31.8,31.6 	"/>
	<polygon class="st3" points="26.5,34.6 31.8,37.6 26.5,40.6 	"/>
	<polygon class="st4" points="31.8,43.6 26.5,40.6 31.8,37.6 	"/>
	<polygon class="st5" points="26.5,40.6 31.8,43.6 26.5,46.6 	"/>
	<polygon class="st3" points="31.8,49.6 26.5,46.6 31.8,43.6 	"/>
	<polygon class="st5" points="26.5,46.6 31.8,49.6 26.5,52.6 	"/>
	<polygon class="st3" points="31.8,55.6 26.5,52.6 31.8,49.6 	"/>
	<polygon class="st3" points="26.5,52.6 31.8,55.6 26.5,58.5 	"/>
	<polygon class="st3" points="31.8,61.5 26.5,58.5 31.8,55.6 	"/>
	<polygon class="st4" points="26.5,58.5 31.8,61.5 26.5,64.5 	"/>
	<polygon class="st3" points="31.8,67.5 31.8,61.5 26.5,64.5 31.8,67.5 	"/>
	<polygon class="st3" points="31.8,67.5 26.5,64.5 26.5,67.5 	"/>
	<polygon class="st3" points="23.6,3.1 26.5,4.8 26.5,3.1 	"/>
	<polygon class="st5" points="21.3,3.1 21.3,7.7 26.5,4.8 23.6,3.1 	"/>
	<polygon class="st3" points="26.5,10.7 21.3,7.7 26.5,4.8 	"/>
	<polygon class="st5" points="21.3,7.7 26.5,10.7 21.3,13.7 	"/>
	<polygon class="st3" points="26.5,16.7 21.3,13.7 26.5,10.7 	"/>
	<polygon class="st3" points="21.3,13.7 26.5,16.7 21.3,19.7 	"/>
	<polygon class="st3" points="26.5,22.7 21.3,19.7 26.5,16.7 	"/>
	<polygon class="st6" points="21.3,19.7 26.5,22.7 21.3,25.7 	"/>
	<polygon class="st6" points="26.5,28.7 21.3,25.7 26.5,22.7 	"/>
	<polygon class="st3" points="21.3,25.7 26.5,28.7 21.3,31.6 	"/>
	<polygon class="st6" points="26.5,34.6 21.3,31.6 26.5,28.7 	"/>
	<polygon class="st6" points="21.3,31.6 26.5,34.6 21.3,37.6 	"/>
	<polygon class="st4" points="26.5,40.6 21.3,37.6 26.5,34.6 	"/>
	<polygon class="st5" points="21.3,37.6 26.5,40.6 21.3,43.6 	"/>
	<polygon class="st6" points="26.5,46.6 21.3,43.6 26.5,40.6 	"/>
	<polygon class="st4" points="21.3,43.6 26.5,46.6 21.3,49.6 	"/>
	<polygon class="st4" points="26.5,52.6 21.3,49.6 26.5,46.6 	"/>
	<polygon class="st3" points="21.3,49.6 26.5,52.6 21.3,55.6 	"/>
	<polygon class="st3" points="26.5,58.5 21.3,55.6 26.5,52.6 	"/>
	<polygon class="st3" points="21.3,55.6 26.5,58.5 21.3,61.5 	"/>
	<polygon class="st4" points="26.5,64.5 21.3,61.5 26.5,58.5 	"/>
	<polygon class="st4" points="21.3,67.5 26.5,64.5 21.3,61.5 21.3,67.5 	"/>
	<polygon class="st4" points="26.5,67.5 26.5,64.5 21.3,67.5 	"/>
	<polygon class="st5" points="16.1,3.1 16.1,4.8 19,3.1 	"/>
	<polygon class="st5" points="19,3.1 16.1,4.8 21.3,7.7 21.3,3.1 	"/>
	<polygon class="st3" points="16.1,4.8 21.3,7.7 16.1,10.7 	"/>
	<polygon class="st5" points="21.3,13.7 16.1,10.7 21.3,7.7 	"/>
	<polygon class="st5" points="16.1,10.7 21.3,13.7 16.1,16.7 	"/>
	<polygon class="st3" points="21.3,19.7 16.1,16.7 21.3,13.7 	"/>
	<polygon class="st6" points="16.1,16.7 21.3,19.7 16.1,22.7 	"/>
	<polygon class="st4" points="21.3,25.7 16.1,22.7 21.3,19.7 	"/>
	<polygon class="st5" points="16.1,22.7 21.3,25.7 16.1,28.7 	"/>
	<polygon class="st6" points="21.3,31.6 16.1,28.7 21.3,25.7 	"/>
	<polygon class="st3" points="16.1,28.7 21.3,31.6 16.1,34.6 	"/>
	<polygon class="st6" points="21.3,37.6 16.1,34.6 21.3,31.6 	"/>
	<polygon class="st3" points="16.1,34.6 21.3,37.6 16.1,40.6 	"/>
	<polygon class="st3" points="21.3,43.6 16.1,40.6 21.3,37.6 	"/>
	<polygon class="st3" points="16.1,40.6 21.3,43.6 16.1,46.6 	"/>
	<polygon class="st3" points="21.3,49.6 16.1,46.6 21.3,43.6 	"/>
	<polygon class="st4" points="16.1,46.6 21.3,49.6 16.1,52.6 	"/>
	<polygon class="st3" points="21.3,55.6 16.1,52.6 21.3,49.6 	"/>
	<polygon class="st3" points="16.1,52.6 21.3,55.6 16.1,58.5 	"/>
	<polygon class="st3" points="21.3,61.5 16.1,58.5 21.3,55.6 	"/>
	<polygon class="st3" points="16.1,58.5 21.3,61.5 16.1,64.5 	"/>
	<polygon class="st5" points="21.3,67.5 21.3,61.5 16.1,64.5 21.3,67.5 	"/>
	<polygon class="st3" points="21.3,66.6 16.1,64.5 16.1,66.6 	"/>
	<polygon class="st5" points="13.8,3.4 16.1,4.8 16.1,3.1 	"/>
	<polygon class="st5" points="11.2,4.5 10.8,7.7 16.1,4.8 13.9,3.4 	"/>
	<polygon class="st3" points="16.1,10.7 10.8,7.7 16.1,4.8 	"/>
	<polygon class="st5" points="10.8,7.7 16.1,10.7 10.8,13.7 	"/>
	<polygon class="st3" points="16.1,16.7 10.8,13.7 16.1,10.7 	"/>
	<polygon class="st3" points="10.8,13.7 16.1,16.7 10.8,19.7 	"/>
	<polygon class="st3" points="16.1,22.7 10.8,19.7 16.1,16.7 	"/>
	<polygon class="st3" points="10.8,19.7 16.1,22.7 10.8,25.7 	"/>
	<polygon class="st6" points="16.1,28.7 10.8,25.7 16.1,22.7 	"/>
	<polygon class="st4" points="10.8,25.7 16.1,28.7 10.8,31.6 	"/>
	<polygon class="st5" points="16.1,34.6 10.8,31.6 16.1,28.7 	"/>
	<polygon class="st3" points="10.8,31.6 16.1,34.6 10.8,37.6 	"/>
	<polygon class="st3" points="16.1,40.6 10.8,37.6 16.1,34.6 	"/>
	<polygon class="st5" points="10.8,37.6 16.1,40.6 10.8,43.6 	"/>
	<polygon class="st5" points="16.1,46.6 10.8,43.6 16.1,40.6 	"/>
	<polygon class="st4" points="10.8,43.6 16.1,46.6 10.8,49.6 	"/>
	<polygon class="st5" points="16.1,52.6 10.8,49.6 16.1,46.6 	"/>
	<polygon class="st5" points="10.8,49.6 16.1,52.6 10.8,55.6 	"/>
	<polygon class="st3" points="16.1,58.5 10.8,55.6 16.1,52.6 	"/>
	<polygon class="st3" points="10.8,55.6 16.1,58.5 10.8,61.5 	"/>
	<polygon class="st6" points="16.1,64.5 10.8,61.5 16.1,58.5 	"/>
	<polygon class="st6" points="11.2,65.5 16.1,64.5 10.8,61.5 10.6,65.2 	"/>
	<path class="st5" d="M16.1,66.6v-2.1l-3.2,1.7c0,0,1.2,0.3,1.5,0.3C14.8,66.6,16.1,66.6,16.1,66.6z"/>
	<path class="st4" d="M10.8,13.7L6,10.9c0,0,0.6-2,1-2.5c0.4-0.6,1.2-1.5,1.7-2.1c0.5-0.6,2.6-1.9,2.6-1.9L10.8,13.7z"/>
	<polygon class="st3" points="5.7,10.7 10.8,13.7 5.6,16.7 	"/>
	<polygon class="st3" points="10.8,19.7 5.6,16.7 10.8,13.7 	"/>
	<polygon class="st5" points="5.6,16.7 10.8,19.7 5.6,22.7 	"/>
	<polygon class="st5" points="10.8,25.7 5.6,22.7 10.8,19.7 	"/>
	<polygon class="st3" points="5.6,22.7 10.8,25.7 5.6,28.7 	"/>
	<polygon class="st3" points="10.8,31.6 5.6,28.7 10.8,25.7 	"/>
	<polygon class="st5" points="5.6,28.7 10.8,31.6 5.6,34.6 	"/>
	<polygon class="st3" points="10.8,37.6 5.6,34.6 10.8,31.6 	"/>
	<polygon class="st6" points="5.6,34.6 10.8,37.6 5.6,40.6 	"/>
	<polygon class="st4" points="10.8,43.6 5.6,40.6 10.8,37.6 	"/>
	<polygon class="st3" points="5.6,40.6 10.8,43.6 5.6,46.6 	"/>
	<polygon class="st6" points="10.8,49.6 5.6,46.6 10.8,43.6 	"/>
	<polygon class="st3" points="5.6,46.6 10.8,49.6 5.6,52.6 	"/>
	<polygon class="st5" points="10.8,55.6 5.6,52.6 10.8,49.6 	"/>
	<polygon class="st5" points="5.6,52.6 10.8,55.6 5.6,58.5 	"/>
	<polygon class="st5" points="10.8,61.5 5.6,58.5 10.8,55.6 	"/>
	<polygon class="st5" points="5.6,58.5 10.8,61.5 7.1,62.2 	"/>
	<path class="st4" d="M10.6,65.2l0.2-3.7l-3.4,0.7c0,0,0.6,0.8,0.9,1.2C9,64.3,10.6,65.2,10.6,65.2z"/>
</g>
<g>
	<path class="st7" d="M26.4,58.2c0,6.3-3.8,9.9-10.1,9.9c-5.4,0-11.1-2.3-12.5-6.7c-0.7-2,0.9-4,2.9-4.5c2.1-0.4,3.5,1.1,4.5,3
		c1.1,2,2,2.3,3.8,2.3c2.1,0,3.9-1.7,3.9-4c0-2.1-1.7-3.9-3.9-3.9c-3,0-5.9-1.2-8.1-3.3c-2.2-2.1-3.3-5-3.3-8.1
		c0-6.3,5.1-11.4,11.4-11.4c5.3,0,10.2,3.7,11,7.9c0.4,2.1-0.8,4.1-2.9,4.5c-2.1,0.5-3.8-0.9-4.5-2.8C18.1,39.9,16.8,39,15,39
		c-2.1,0-3.9,1.7-3.9,3.9s1.7,3.9,3.9,3.9c3,0,5.9,1.2,8.1,3.3C25.3,52.4,26.4,55.2,26.4,58.2z"/>
</g>
<g>
	<g>
		<path class="st8" d="M69.6,45.2v16.6c0,2.5-1.8,4.2-4.2,4.2c-1.7,0-4.1-1.8-4.1-4.2c-3.6,3-7.7,4.2-12.5,4.2
			c-11.9,0-21.4-8.9-21.4-20.8c0-11.9,9.5-21.4,21.4-21.4C60.7,23.8,69.6,33.3,69.6,45.2z M61.3,45.2c0-7.1-5.4-13.1-12.5-13.1
			c-7.1,0-13.1,6-13.1,13.1c0,7.1,6,12.5,13.1,12.5C55.8,57.8,61.3,52.4,61.3,45.2z"/>
	</g>
</g>
<g class="st9">
	<polygon class="st1" points="61.6,32.8 66.9,35.8 61.6,38.8 	"/>
	<polygon class="st1" points="67.4,42.1 62.1,39.2 67.4,36.2 	"/>
	<polygon class="st10" points="66.2,38.8 69.2,41.2 66.2,44.8 	"/>
	<polygon class="st10" points="68,47.2 62.7,44.2 68,41.2 	"/>
	<polygon class="st10" points="63.9,44.8 69.2,47.8 63.9,50.8 	"/>
	<polygon class="st8" points="68.8,52.6 63.6,49.6 68.8,46.6 	"/>
	<polygon class="st1" points="63.9,50.5 69.2,53.5 63.9,56.5 	"/>
	<polygon class="st10" points="69.2,59.2 63.9,56.2 69.2,53.2 	"/>
	<polygon class="st8" points="63.4,54.9 68.7,57.9 63.4,60.9 	"/>
	<path class="st8" d="M66.9,62.6l-3-1.7l5.3-3c0,0-0.6,2.1-1,2.8C68,61.2,66.9,62.6,66.9,62.6z"/>
	<polygon class="st10" points="65.9,65.7 67.4,65 68.9,63.5 65.9,61.8 	"/>
	<polygon class="st1" points="59.9,28.4 62.1,29.9 60.9,29.9 	"/>
	<polygon class="st1" points="65.1,32.5 60.9,29.9 62.1,29.4 	"/>
	<polygon class="st10" points="59.5,29.9 64.8,32.8 59.5,35.8 	"/>
	<polygon class="st1" points="66.2,38.8 60.9,35.8 65.4,33.3 	"/>
	<polygon class="st10" points="60.9,35.8 66.2,38.8 60.9,41.8 	"/>
	<polygon class="st10" points="66.2,44.8 60.9,41.8 66.2,38.8 	"/>
	<polygon class="st1" points="62.5,43 66.2,44.8 61.6,46.6 	"/>
	<polygon class="st8" points="66.2,50.8 60.9,47.8 66.2,44.8 	"/>
	<polygon class="st1" points="60.9,47.8 66.2,50.8 60.9,53.8 	"/>
	<polygon class="st10" points="66.2,56.7 60.9,53.8 66.2,50.8 	"/>
	<polygon class="st11" points="60.9,53.8 66.2,56.7 60.9,59.7 	"/>
	<polygon class="st1" points="66.2,62.7 60.9,59.7 66.2,56.7 	"/>
	<polygon class="st10" points="60.9,59.7 66.2,62.7 62.1,62.2 	"/>
	<polygon class="st1" points="65.7,64.2 66.2,62.7 63,64.5 66,65.2 	"/>
	<polygon class="st1" points="55.3,25.2 58,26.4 55.6,26.9 	"/>
	<polygon class="st10" points="60.9,29.9 55.6,26.9 59.9,27.2 	"/>
	<polygon class="st8" points="55.6,26.9 60.9,29.9 55.6,32.8 	"/>
	<polygon class="st1" points="60.9,35.8 55.6,32.8 60.9,29.9 	"/>
	<polygon class="st1" points="55.6,32.8 60.9,35.8 57,35.3 	"/>
	<polygon class="st10" points="60.9,41.8 59.9,38.8 60.9,35.8 	"/>
	<polygon class="st1" points="60.9,53.8 59.9,52 60.9,48.1 	"/>
	<polygon class="st1" points="58,54.3 60.9,53.8 55.6,56.7 	"/>
	<polygon class="st8" points="60.9,59.7 55.6,56.7 60.9,53.8 	"/>
	<polygon class="st11" points="55.6,56.7 60.9,59.7 55.6,62.7 	"/>
	<polygon class="st8" points="59.9,62.7 55.6,62.7 60.9,59.7 	"/>
	<polygon class="st10" points="55.3,64.5 58,63.4 55.6,62.7 	"/>
	<polygon class="st1" points="55.6,26.9 50.3,23.9 54.4,24.9 	"/>
	<polygon class="st8" points="50.3,23.9 55.6,26.9 50.3,29.9 	"/>
	<polygon class="st1" points="55.6,32.8 50.3,29.9 55.6,26.9 	"/>
	<polygon class="st8" points="50.3,29.9 55.6,32.8 51.3,32.2 	"/>
	<polygon class="st1" points="56.3,34.6 54.4,33.5 55.6,32.8 	"/>
	<polygon class="st1" points="52.3,57.6 55.6,56.7 50.3,59.7 	"/>
	<polygon class="st10" points="55.6,62.7 50.3,59.7 55.6,56.7 	"/>
	<polygon class="st1" points="50.3,59.7 55.6,62.7 50.3,65.7 	"/>
	<polygon class="st8" points="55,64.5 55.6,62.7 50.3,65.7 54.4,64.9 	"/>
	<polygon class="st1" points="44.9,24.7 50.3,23.9 45.1,26.9 	"/>
	<polygon class="st10" points="50.3,29.9 45.1,26.9 50.3,23.9 	"/>
	<polygon class="st10" points="45.1,26.9 50.3,29.9 45.1,32.8 	"/>
	<polygon class="st1" points="48.2,31.6 45.1,32.2 50.3,29.9 	"/>
	<polygon class="st1" points="50.3,59.7 45.1,57.7 49.5,58.2 	"/>
	<polygon class="st11" points="45.1,57.7 50.3,59.7 45.1,62.7 	"/>
	<polygon class="st10" points="50.3,65.7 45.1,62.7 50.3,59.7 	"/>
	<polygon class="st8" points="46.5,65.2 50.3,65.7 45.1,62.7 45.8,65.2 	"/>
	<polygon class="st1" points="45.1,26.9 41.5,25.7 45.1,25.2 	"/>
	<polygon class="st8" points="40.7,25.7 45.1,26.9 39.8,29.9 	"/>
	<polygon class="st1" points="45.1,32.8 39.8,29.9 45.1,26.9 	"/>
	<polygon class="st1" points="39.8,29.9 43.1,32.8 39.8,35.8 	"/>
	<polygon class="st1" points="39.5,55.3 44,57.7 39.8,59.7 	"/>
	<polygon class="st10" points="45.1,62.7 39.8,59.7 44.7,57.7 	"/>
	<polygon class="st1" points="39.5,58.2 44.8,61.2 39.8,63.5 	"/>
	<polygon class="st8" points="44.8,65.2 44.8,59.3 39.5,62.3 44.8,65.2 	"/>
	<polygon class="st1" points="39.8,29.9 37.3,29.5 43.1,29.1 	"/>
	<polygon class="st1" points="34.5,30.8 39.8,33.7 34.5,36.7 	"/>
	<polygon class="st10" points="39.8,35.8 34.5,32.8 39.8,29.9 	"/>
	<polygon class="st8" points="34.5,32.8 39.8,35.8 34.5,38.8 	"/>
	<polygon class="st1" points="36.6,39.2 34.5,38.8 39.8,35.8 	"/>
	<polygon class="st1" points="34.5,38.8 36,41.8 34.5,44.8 	"/>
	<polygon class="st1" points="35.6,45.7 34.5,44.8 35.6,44.2 	"/>
	<polygon class="st10" points="34.5,44.8 35.6,47.5 34.5,50.8 	"/>
	<polygon class="st1" points="38.6,54.5 34.5,50.8 35.6,50.1 	"/>
	<polygon class="st8" points="34.5,50.8 38.6,53.8 34.5,56.7 	"/>
	<polygon class="st8" points="39.8,59.7 34.5,56.7 39.5,54.7 	"/>
	<polygon class="st1" points="34.5,56.7 39.8,59.7 35.6,61.2 	"/>
	<polygon class="st8" points="42.2,63.9 36.9,60.9 42.2,57.9 	"/>
	<polygon class="st1" points="37.2,36.9 31.9,33.9 37.2,30.9 	"/>
	<polygon class="st1" points="31.9,32.8 37.2,35.8 31.9,38.8 	"/>
	<polygon class="st1" points="34.5,38.8 29.3,35.8 34.5,32.8 	"/>
	<polygon class="st8" points="29.3,35.8 34.5,38.8 29.3,41.8 	"/>
	<polygon class="st10" points="34.5,44.8 29.3,41.8 34.5,38.8 	"/>
	<polygon class="st10" points="29.3,41.8 34.5,44.8 29.3,47.8 	"/>
	<polygon class="st8" points="34.5,50.8 29.3,47.8 34.5,44.8 	"/>
	<polygon class="st1" points="29.3,47.8 34.5,50.8 29.3,53.8 	"/>
	<polygon class="st10" points="34.5,56.7 29.3,53.8 34.5,50.8 	"/>
	<polygon class="st1" points="31.3,51.5 36.5,54.5 31.3,57.4 	"/>
	<polygon class="st10" points="38.3,62.3 33,59.3 38.3,56.3 	"/>
	<polygon class="st1" points="33.6,42.1 28.3,39.2 33.6,36.2 	"/>
	<polygon class="st1" points="28.3,40.1 33.6,43 28.3,46 	"/>
	<polygon class="st1" points="33,48.7 27.7,45.7 33,42.7 	"/>
	<polygon class="st1" points="28,43.3 33.3,46.3 28,49.3 	"/>
	<polygon class="st1" points="33,52.3 27.7,49.3 33,46.3 	"/>
	<polygon class="st1" points="29.3,47.5 34.5,50.5 29.3,53.5 	"/>
	<polygon class="st1" points="33,56.5 28.9,53.2 33,50.5 	"/>
</g>
</svg>
