<?xml version="1.0" encoding="UTF-8"?>
<svg width="41px" height="21px" viewBox="0 0 41 21" version="1.1" xmlns="http://www.w3.org/2000/svg" xmlns:xlink="http://www.w3.org/1999/xlink">
    <!-- Generator: Sketch 53.2 (72643) - https://sketchapp.com -->
    <title>Blog Logo</title>
    <desc>Created with Sketch.</desc>
    <g id="Symbols" stroke="none" stroke-width="1" fill="none" fill-rule="evenodd">
        <g id="Header-/-Main---Dark" transform="translate(-145.000000, -31.000000)">
            <g id="Header-/-Main---Light">
                <g id="Dev" transform="translate(24.000000, 24.000000)">
                    <g id="Catagories">
                        <g id="Group-2">
                            <g id="Auth0-Blog-Logo_Dark">
                                <g id="Blog-Logo" transform="translate(120.000000, 0.000000)">
                                    <rect id="Rectangle" x="0" y="0" width="42" height="32"></rect>
                                    <path d="M1.15736218,8.37100569 L7.23777962,8.37100569 C8.83525715,8.37100569 10.0192524,8.708463 10.7897655,9.38337761 C11.5602785,10.0582922 11.9450398,10.9996205 11.9440495,12.2073624 C11.9505057,12.8838141 11.7488308,13.546004 11.3661647,14.1048197 C10.9818985,14.6731689 10.404509,15.077723 9.63399592,15.318482 C10.461276,15.4365407 11.2175781,15.8493135 11.7628105,16.4803416 C12.2788589,17.0969112 12.5537495,17.8785849 12.5367899,18.6812144 C12.5427593,19.2740091 12.4379772,19.8627363 12.2277924,20.4173435 C12.0271144,20.9407036 11.7084346,21.4111337 11.2963431,21.792334 C10.8524158,22.1963612 10.3308751,22.5065182 9.76324007,22.7040607 C9.08529803,22.9358536 8.37184779,23.0475601 7.65522338,23.0341176 L1.15736218,23.0341176 L1.15736218,8.37100569 Z M3.12425021,10.0760531 L3.12425021,14.5947249 L7.23777962,14.5947249 C8.13605124,14.5947249 8.81693519,14.363833 9.28043146,13.9020493 C9.73974085,13.4502622 9.99132876,12.8295079 9.97567587,12.1866414 C10.0011585,11.6078644 9.77098403,11.0469941 9.34579632,10.6518027 C8.92389586,10.2679696 8.22122363,10.0760531 7.23777962,10.0760531 L3.12425021,10.0760531 Z M3.12425021,16.2997723 L3.12425021,21.3320304 L7.65968007,21.3320304 C8.64510484,21.3320304 9.3760028,21.085351 9.85237397,20.5919924 C10.3372527,20.085741 10.5960455,19.4056505 10.5699019,18.7063757 C10.5844871,18.0592985 10.3238659,17.4362263 9.85237397,16.9909677 C9.37402205,16.5291841 8.64312408,16.2982922 7.65968007,16.2982922 L3.12425021,16.2997723 Z M15.2969696,7.43263757 L17.1791804,7.43263757 L17.1791804,23.0341176 L15.2969696,23.0341176 L15.2969696,7.43263757 Z M19.7239532,17.834611 C19.7141634,17.0675322 19.8450596,16.3051206 20.1102001,15.5848956 C20.3476015,14.9412201 20.7111983,14.3510491 21.1798069,13.8487666 C21.6288538,13.3742316 22.1763813,13.0029855 22.7842171,12.7609108 C23.4456965,12.4990207 24.1522683,12.3687879 24.864008,12.3775712 C25.5897689,12.3684121 26.3105118,12.4985609 26.9868804,12.7609108 C27.602069,13.0054625 28.1588073,13.3760904 28.6210018,13.8487666 C29.074977,14.3523995 29.4207711,14.9432149 29.6371283,15.5848956 C29.8798311,16.3099337 29.9988395,17.070374 29.9892072,17.834611 C30.0012712,18.6046301 29.8708405,19.3702744 29.6044459,20.0932068 C29.3700682,20.7240609 29.0143036,21.3032474 28.5571226,21.7982543 C28.0999148,22.2818983 27.5422167,22.6602369 26.9230011,22.9068311 C26.2661882,23.1669353 25.5648269,23.2971378 24.8580658,23.2901708 C24.1271996,23.3027181 23.4009458,23.1724855 22.7203378,22.9068311 C22.1084212,22.6626644 21.5599133,22.2836696 21.1159276,21.7982543 C20.6479622,21.3127803 20.2929379,20.7306707 20.0760321,20.0932068 C19.8317615,19.3654881 19.7127248,18.6018642 19.7239532,17.834611 Z M21.6923268,17.834611 C21.6858626,18.3683683 21.7615137,18.8999619 21.9166471,19.4108918 C22.0500691,19.8494547 22.2725568,20.2560096 22.5702957,20.6053131 C22.8350267,20.9417867 23.1754727,21.2115147 23.5641387,21.3927135 C23.969153,21.5806495 24.4113039,21.6757325 24.8580658,21.6709677 C25.302044,21.6765372 25.7414741,21.5813839 26.1430795,21.3927135 C26.5301186,21.2055653 26.871748,20.9369076 27.1443503,20.6053131 C27.4306608,20.2501997 27.6482733,19.8451897 27.7861143,19.4108918 C27.949749,18.9016158 28.0295166,18.3692973 28.0223192,17.834611 C28.0223192,16.6268691 27.7296629,15.6855408 27.1443503,15.0106262 C26.5764261,14.3426432 25.7332965,13.9697881 24.8550946,13.9982543 C24.4084411,13.992976 23.9662845,14.0875544 23.5611675,14.2750285 C23.1769948,14.4541199 22.8375408,14.7159846 22.5673246,15.0417078 C22.2710767,15.4036758 22.0489984,15.8200427 21.913676,16.2672106 C21.7610093,16.7755732 21.6863825,17.3040145 21.6923268,17.834611 Z M33.9081276,24.3129032 C33.8904257,24.9196814 34.1953688,25.4907437 34.7103327,25.8151803 C35.2451361,26.1782922 35.9185922,26.3598482 36.730701,26.3598482 C37.1698376,26.3620493 37.6067172,26.2971588 38.0261137,26.1674383 C38.4259609,26.043906 38.7891943,25.8243315 39.083836,25.5280455 C39.4075653,25.1907828 39.6525712,24.7864753 39.8013638,24.3439848 C39.9937949,23.7587659 40.0842354,23.1450417 40.0687655,22.5294118 L40.0687655,21.4208349 L39.9826028,21.4208349 C39.6825464,22.0618076 39.163307,22.5754558 38.5178357,22.8698292 C37.8753223,23.1556318 37.1788098,23.3009804 36.4751839,23.2960911 C35.8397528,23.3029173 35.2097004,23.1794884 34.6241699,22.9334725 C34.0700066,22.6986277 33.5763591,22.3419039 33.1802008,21.890019 C32.7455537,21.3994197 32.4146157,20.826571 32.2071557,20.2056926 C31.9605059,19.4708623 31.8409501,18.6996242 31.8535912,17.9248956 C31.8421085,17.1417985 31.9688225,16.3627817 32.2279536,15.6233776 C32.4559695,14.9783196 32.8093324,14.3843488 33.2678491,13.875408 C33.6827094,13.3992564 34.1967638,13.0189283 34.774212,12.7609108 C35.3659586,12.5025227 36.0059074,12.3718785 36.6519661,12.3775712 C37.3285027,12.3663794 37.9983588,12.5123215 38.6084552,12.803833 C39.217557,13.1203023 39.7032397,13.630234 39.988545,14.2528273 L40.0687655,14.2528273 L40.0687655,12.6336243 L41.8648136,12.6336243 L41.8648136,22.5294118 C41.8871104,23.3781753 41.7495495,24.2235843 41.4592543,25.0218596 C41.2201066,25.6500225 40.8394379,26.2151182 40.3465662,26.6736243 C39.8771457,27.0988076 39.3190948,27.4152158 38.7124447,27.6001518 C38.0712778,27.7952514 37.4040591,27.8920698 36.7336722,27.8872865 C36.116247,27.8927343 35.5009728,27.8140551 34.9049417,27.6534345 C34.3797268,27.5149142 33.8836454,27.2838305 33.4401746,26.9711195 C33.0315447,26.6800872 32.6980615,26.2966036 32.4671296,25.8521822 C32.2238054,25.3738207 32.1023802,24.8431502 32.1135651,24.3069829 L33.9081276,24.3129032 Z M33.8219648,17.9189753 C33.8116471,18.470725 33.890909,19.0205091 34.0566841,19.5470588 C34.194984,19.9759397 34.4210992,20.3715651 34.7207316,20.7089184 C34.9795915,21.0270682 35.3140424,21.2758349 35.6937767,21.4326755 C36.0771493,21.5904318 36.4882488,21.6704358 36.9030266,21.6680076 C37.3161471,21.6709886 37.7248882,21.5835805 38.1003919,21.4119545 C38.4776178,21.2382902 38.812998,20.9859178 39.083836,20.6719165 C39.3757583,20.3225368 39.5976557,19.9205778 39.7374845,19.4878558 C40.0643065,18.4142793 40.0643065,17.2682634 39.7374845,16.1946869 C39.5955875,15.7534054 39.3740784,15.3416168 39.083836,14.9795446 C38.8083639,14.6743076 38.4738648,14.4276325 38.1003919,14.2543074 C37.334337,13.9107544 36.4563887,13.9150739 35.6937767,14.266148 C35.3168789,14.4428087 34.9844145,14.7012233 34.7207316,15.0224668 C34.4204487,15.3910984 34.1949202,15.8143497 34.0566841,16.2686907 C33.8966012,16.8039557 33.8199445,17.3605333 33.8293926,17.9189753 L33.8219648,17.9189753 Z" id="Blog" fill="#FFFFFF" fill-rule="nonzero"></path>
                                </g>
                            </g>
                        </g>
                    </g>
                </g>
            </g>
        </g>
    </g>
</svg>