<svg xmlns="http://www.w3.org/2000/svg" viewBox="1754 332 16 16">
  <g id="luggageWhite" transform="translate(1562 252)">
    <path id="Fill1" fill="#8e562e" d="M207.493,84V94.462h-14.7V84Z"/>
    <path id="Contour" fill="#fff" d="M14.5-13.937a1.472,1.472,0,0,1,.586.117,1.5,1.5,0,0,1,.477.32,1.5,1.5,0,0,1,.32.477,1.472,1.472,0,0,1,.117.586v9a1.472,1.472,0,0,1-.117.586,1.5,1.5,0,0,1-.32.477,1.5,1.5,0,0,1-.477.32,1.472,1.472,0,0,1-.586.117H1.5a1.472,1.472,0,0,1-.586-.117,1.5,1.5,0,0,1-.477-.32,1.5,1.5,0,0,1-.32-.477A1.472,1.472,0,0,1,0-3.437v-9a1.472,1.472,0,0,1,.117-.586,1.5,1.5,0,0,1,.32-.477,1.5,1.5,0,0,1,.477-.32,1.472,1.472,0,0,1,.586-.117H5v-1a.969.969,0,0,1,.078-.391,1.016,1.016,0,0,1,.215-.316,1.016,1.016,0,0,1,.316-.215A.969.969,0,0,1,6-15.937h4a.969.969,0,0,1,.391.078,1.016,1.016,0,0,1,.316.215,1.016,1.016,0,0,1,.215.316.969.969,0,0,1,.078.391v1Zm-8.5,0h4v-1H6Zm-2,1v10h8v-10Zm-3,9.5a.481.481,0,0,0,.148.352.481.481,0,0,0,.352.148H3v-10H1.5a.481.481,0,0,0-.352.148A.481.481,0,0,0,1-12.437Zm14-9a.481.481,0,0,0-.148-.352.481.481,0,0,0-.352-.148H13v10h1.5a.481.481,0,0,0,.352-.148A.481.481,0,0,0,15-3.437Z" transform="translate(192 97)"/>
  </g>
</svg>
