<?xml version="1.0" encoding="utf-8"?>
<!-- Generator: Adobe Illustrator 16.0.0, SVG Export Plug-In . SVG Version: 6.00 Build 0)  -->
<!DOCTYPE svg PUBLIC "-//W3C//DTD SVG 1.1//EN" "http://www.w3.org/Graphics/SVG/1.1/DTD/svg11.dtd">
<svg version="1.1" id="Layer_1" xmlns="http://www.w3.org/2000/svg" xmlns:xlink="http://www.w3.org/1999/xlink" x="0px" y="0px"
	 width="254px" height="56px" viewBox="26 5.5 254 56" enable-background="new 26 5.5 254 56" xml:space="preserve">
<g>
	<g>
		<g>
			<defs>
				<polygon id="SVGID_2_" points="38.225,7.186 37.245,7.186 36.626,6.651 36.199,6.918 35.807,7.186 34.862,6.918 34.275,6.918 
					33.426,7.186 32.773,7.421 32.347,7.722 32.052,8.058 31.89,8.626 31.89,9.095 31.89,9.396 31.563,9.865 31.398,10.131 
					31.14,10.401 30.813,10.735 30.454,11.171 30.258,11.839 30.126,12.208 30.126,12.577 30.126,13.045 30.126,13.414 
					30.126,13.849 30.126,14.52 29.833,14.82 29.833,15.255 29.833,15.523 29.833,15.823 30.422,16.393 30.486,16.928 
					30.779,17.298 30.811,18.134 30.649,18.435 30.323,18.435 30.063,18.803 30.095,19.374 30.257,19.607 30.323,20.042 
					30.126,20.377 29.833,20.511 29.506,20.511 29.377,20.812 29.377,21.282 29.246,21.449 29.048,21.583 29.048,21.918 
					28.887,22.184 28.887,22.62 28.756,22.889 28.592,23.19 28.299,23.356 27.808,23.356 27.416,23.625 27.416,24.294 
					27.253,24.294 27.253,25.131 27.253,25.398 27.253,26.069 27.253,26.706 27.026,27.442 27.026,27.977 27.157,28.447 
					27.221,29.382 27.221,30.121 27.026,30.891 27.221,31.424 27.221,32.298 27.221,32.898 27.319,33.201 28.201,33.201 
					29.539,33.033 30.063,33.201 30.682,33.201 31.334,33.201 32.411,33.201 33.16,32.998 33.686,33.201 34.632,33.838 
					35.252,34.439 35.285,34.674 35.511,35.275 35.741,35.678 36.005,35.879 36.199,36.348 36.199,36.781 36.622,37.551 
					37.112,38.457 37.438,39.16 37.962,39.561 38.419,39.828 39.626,40.062 40.345,39.695 40.446,39.35 40.539,39.492 
					40.932,39.629 41.716,39.629 42.468,39.527 43.609,39.359 44.034,39.023 45.275,39.059 45.731,38.791 46.027,38.557 
					46.385,38.49 46.743,38.119 47.2,37.551 47.559,37.15 47.853,36.516 48.05,35.777 48.05,34.742 48.244,34.203 48.931,33.334 
					49.844,32.744 50.234,32.129 50.954,32.062 50.954,30.99 51.543,30.957 51.901,30.723 52.327,30.321 52.816,30.556 
					52.816,30.824 53.207,30.789 53.567,30.521 53.893,29.919 54.219,30.321 54.546,30.59 54.71,30.957 55.132,31.258 
					55.428,31.459 55.59,31.793 55.817,31.995 56.733,31.828 56.894,31.123 57.189,30.254 57.745,29.986 58.038,29.116 
					58.495,28.447 58.722,27.676 59.182,27.309 59.182,25.969 60.029,25.031 60.876,24.261 61.139,23.659 61.53,23.221 
					61.53,21.883 62.251,21.448 62.513,21.047 62.676,19.775 63.36,19.406 63.913,17.833 64.373,16.494 64.667,15.755 65.122,15.59 
					65.776,15.456 66.232,14.919 66.919,14.585 67.114,13.815 67.114,12.208 66.692,11.605 65.808,11.07 65.514,10.903 65.45,9.53 
					64.99,8.726 64.436,7.822 63.816,6.953 63.001,6.417 62.218,6.65 61.824,7.052 61.336,7.252 60.945,7.319 60.357,7.957 
					59.836,8.458 59.474,8.794 59.119,8.794 58.169,8.559 57.222,8.257 56.763,8.091 56.44,8.056 54.87,8.091 53.728,8.192 
					52.913,8.492 52.226,8.66 51.542,8.894 50.987,9.73 50.726,10.266 48.377,10.299 47.526,10.131 46.449,9.53 45.34,8.726 
					44.719,8.559 43.935,8.559 43.184,9.229 42.661,9.229 41.91,9.831 40.671,8.759 39.954,7.822 39.235,7.454 				"/>
			</defs>
			<clipPath id="SVGID_3_">
				<use xlink:href="#SVGID_2_"  overflow="visible"/>
			</clipPath>
			
				<rect x="37.865" y="3.068" clip-path="url(#SVGID_3_)" fill="#FFFFFF" stroke="#009444" stroke-width="0.25" stroke-miterlimit="10" width="16.264" height="37.824"/>
		</g>
		<g>
			<defs>
				<polygon id="SVGID_4_" points="38.225,7.186 37.245,7.186 36.626,6.651 36.199,6.918 35.807,7.186 34.862,6.918 34.275,6.918 
					33.426,7.186 32.773,7.421 32.347,7.722 32.052,8.058 31.89,8.626 31.89,9.095 31.89,9.396 31.563,9.865 31.398,10.131 
					31.14,10.401 30.813,10.735 30.454,11.171 30.258,11.839 30.126,12.208 30.126,12.577 30.126,13.045 30.126,13.414 
					30.126,13.849 30.126,14.52 29.833,14.82 29.833,15.255 29.833,15.523 29.833,15.823 30.422,16.393 30.486,16.928 
					30.779,17.298 30.811,18.134 30.649,18.435 30.323,18.435 30.063,18.803 30.095,19.374 30.257,19.607 30.323,20.042 
					30.126,20.377 29.833,20.511 29.506,20.511 29.377,20.812 29.377,21.282 29.246,21.449 29.048,21.583 29.048,21.918 
					28.887,22.184 28.887,22.62 28.756,22.889 28.592,23.19 28.299,23.356 27.808,23.356 27.416,23.625 27.416,24.294 
					27.253,24.294 27.253,25.131 27.253,25.398 27.253,26.069 27.253,26.706 27.026,27.442 27.026,27.977 27.157,28.447 
					27.221,29.382 27.221,30.121 27.026,30.891 27.221,31.424 27.221,32.298 27.221,32.898 27.319,33.201 28.201,33.201 
					29.539,33.033 30.063,33.201 30.682,33.201 31.334,33.201 32.411,33.201 33.16,32.998 33.686,33.201 34.632,33.838 
					35.252,34.439 35.285,34.674 35.511,35.275 35.741,35.678 36.005,35.879 36.199,36.348 36.199,36.781 36.622,37.551 
					37.112,38.457 37.438,39.16 37.962,39.561 38.419,39.828 39.626,40.062 40.345,39.695 40.446,39.35 40.539,39.492 
					40.932,39.629 41.716,39.629 42.468,39.527 43.609,39.359 44.034,39.023 45.275,39.059 45.731,38.791 46.027,38.557 
					46.385,38.49 46.743,38.119 47.2,37.551 47.559,37.15 47.853,36.516 48.05,35.777 48.05,34.742 48.244,34.203 48.931,33.334 
					49.844,32.744 50.234,32.129 50.954,32.062 50.954,30.99 51.543,30.957 51.901,30.723 52.327,30.321 52.816,30.556 
					52.816,30.824 53.207,30.789 53.567,30.521 53.893,29.919 54.219,30.321 54.546,30.59 54.71,30.957 55.132,31.258 
					55.428,31.459 55.59,31.793 55.817,31.995 56.733,31.828 56.894,31.123 57.189,30.254 57.745,29.986 58.038,29.116 
					58.495,28.447 58.722,27.676 59.182,27.309 59.182,25.969 60.029,25.031 60.876,24.261 61.139,23.659 61.53,23.221 
					61.53,21.883 62.251,21.448 62.513,21.047 62.676,19.775 63.36,19.406 63.913,17.833 64.373,16.494 64.667,15.755 65.122,15.59 
					65.776,15.456 66.232,14.919 66.919,14.585 67.114,13.815 67.114,12.208 66.692,11.605 65.808,11.07 65.514,10.903 65.45,9.53 
					64.99,8.726 64.436,7.822 63.816,6.953 63.001,6.417 62.218,6.65 61.824,7.052 61.336,7.252 60.945,7.319 60.357,7.957 
					59.836,8.458 59.474,8.794 59.119,8.794 58.169,8.559 57.222,8.257 56.763,8.091 56.44,8.056 54.87,8.091 53.728,8.192 
					52.913,8.492 52.226,8.66 51.542,8.894 50.987,9.73 50.726,10.266 48.377,10.299 47.526,10.131 46.449,9.53 45.34,8.726 
					44.719,8.559 43.935,8.559 43.184,9.229 42.661,9.229 41.91,9.831 40.671,8.759 39.954,7.822 39.235,7.454 				"/>
			</defs>
			<clipPath id="SVGID_5_">
				<use xlink:href="#SVGID_4_"  overflow="visible"/>
			</clipPath>
			
				<rect x="22.226" y="3.068" clip-path="url(#SVGID_5_)" fill="#009444" stroke="#009444" stroke-width="0.25" stroke-miterlimit="10" width="16.845" height="37.824"/>
		</g>
		<g>
			<defs>
				<polygon id="SVGID_6_" points="38.225,7.186 37.245,7.186 36.626,6.651 36.199,6.918 35.807,7.186 34.862,6.918 34.275,6.918 
					33.426,7.186 32.773,7.421 32.347,7.722 32.052,8.058 31.89,8.626 31.89,9.095 31.89,9.396 31.563,9.865 31.398,10.131 
					31.14,10.401 30.813,10.735 30.454,11.171 30.258,11.839 30.126,12.208 30.126,12.577 30.126,13.045 30.126,13.414 
					30.126,13.849 30.126,14.52 29.833,14.82 29.833,15.255 29.833,15.523 29.833,15.823 30.422,16.393 30.486,16.928 
					30.779,17.298 30.811,18.134 30.649,18.435 30.323,18.435 30.063,18.803 30.095,19.374 30.257,19.607 30.323,20.042 
					30.126,20.377 29.833,20.511 29.506,20.511 29.377,20.812 29.377,21.282 29.246,21.449 29.048,21.583 29.048,21.918 
					28.887,22.184 28.887,22.62 28.756,22.889 28.592,23.19 28.299,23.356 27.808,23.356 27.416,23.625 27.416,24.294 
					27.253,24.294 27.253,25.131 27.253,25.398 27.253,26.069 27.253,26.706 27.026,27.442 27.026,27.977 27.157,28.447 
					27.221,29.382 27.221,30.121 27.026,30.891 27.221,31.424 27.221,32.298 27.221,32.898 27.319,33.201 28.201,33.201 
					29.539,33.033 30.063,33.201 30.682,33.201 31.334,33.201 32.411,33.201 33.16,32.998 33.686,33.201 34.632,33.838 
					35.252,34.439 35.285,34.674 35.511,35.275 35.741,35.678 36.005,35.879 36.199,36.348 36.199,36.781 36.622,37.551 
					37.112,38.457 37.438,39.16 37.962,39.561 38.419,39.828 39.626,40.062 40.345,39.695 40.446,39.35 40.539,39.492 
					40.932,39.629 41.716,39.629 42.468,39.527 43.609,39.359 44.034,39.023 45.275,39.059 45.731,38.791 46.027,38.557 
					46.385,38.49 46.743,38.119 47.2,37.551 47.559,37.15 47.853,36.516 48.05,35.777 48.05,34.742 48.244,34.203 48.931,33.334 
					49.844,32.744 50.234,32.129 50.954,32.062 50.954,30.99 51.543,30.957 51.901,30.723 52.327,30.321 52.816,30.556 
					52.816,30.824 53.207,30.789 53.567,30.521 53.893,29.919 54.219,30.321 54.546,30.59 54.71,30.957 55.132,31.258 
					55.428,31.459 55.59,31.793 55.817,31.995 56.733,31.828 56.894,31.123 57.189,30.254 57.745,29.986 58.038,29.116 
					58.495,28.447 58.722,27.676 59.182,27.309 59.182,25.969 60.029,25.031 60.876,24.261 61.139,23.659 61.53,23.221 
					61.53,21.883 62.251,21.448 62.513,21.047 62.676,19.775 63.36,19.406 63.913,17.833 64.373,16.494 64.667,15.755 65.122,15.59 
					65.776,15.456 66.232,14.919 66.919,14.585 67.114,13.815 67.114,12.208 66.692,11.605 65.808,11.07 65.514,10.903 65.45,9.53 
					64.99,8.726 64.436,7.822 63.816,6.953 63.001,6.417 62.218,6.65 61.824,7.052 61.336,7.252 60.945,7.319 60.357,7.957 
					59.836,8.458 59.474,8.794 59.119,8.794 58.169,8.559 57.222,8.257 56.763,8.091 56.44,8.056 54.87,8.091 53.728,8.192 
					52.913,8.492 52.226,8.66 51.542,8.894 50.987,9.73 50.726,10.266 48.377,10.299 47.526,10.131 46.449,9.53 45.34,8.726 
					44.719,8.559 43.935,8.559 43.184,9.229 42.661,9.229 41.91,9.831 40.671,8.759 39.954,7.822 39.235,7.454 				"/>
			</defs>
			<clipPath id="SVGID_7_">
				<use xlink:href="#SVGID_6_"  overflow="visible"/>
			</clipPath>
			
				<rect x="52.881" y="3.068" clip-path="url(#SVGID_7_)" fill="#009444" stroke="#009444" stroke-width="0.25" stroke-miterlimit="10" width="16.847" height="37.824"/>
		</g>
		<g>
			<polygon id="SVGID_1_" fill="none" stroke="#009444" stroke-width="0.25" stroke-miterlimit="10" points="38.225,7.186 
				37.245,7.186 36.626,6.651 36.199,6.918 35.807,7.186 34.862,6.918 34.275,6.918 33.426,7.186 32.773,7.421 32.347,7.722 
				32.052,8.058 31.89,8.626 31.89,9.095 31.89,9.396 31.563,9.865 31.398,10.131 31.14,10.401 30.813,10.735 30.454,11.171 
				30.258,11.839 30.126,12.208 30.126,12.577 30.126,13.045 30.126,13.414 30.126,13.849 30.126,14.52 29.833,14.82 29.833,15.255 
				29.833,15.523 29.833,15.823 30.422,16.393 30.486,16.928 30.779,17.298 30.811,18.134 30.649,18.435 30.323,18.435 
				30.063,18.803 30.095,19.374 30.257,19.607 30.323,20.042 30.126,20.377 29.833,20.511 29.506,20.511 29.377,20.812 
				29.377,21.282 29.246,21.449 29.048,21.583 29.048,21.918 28.887,22.184 28.887,22.62 28.756,22.889 28.592,23.19 28.299,23.356 
				27.808,23.356 27.416,23.625 27.416,24.294 27.253,24.294 27.253,25.131 27.253,25.398 27.253,26.069 27.253,26.706 
				27.026,27.442 27.026,27.977 27.157,28.447 27.221,29.382 27.221,30.121 27.026,30.891 27.221,31.424 27.221,32.298 
				27.221,32.898 27.319,33.201 28.201,33.201 29.539,33.033 30.063,33.201 30.682,33.201 31.334,33.201 32.411,33.201 
				33.16,32.998 33.686,33.201 34.632,33.838 35.252,34.439 35.285,34.674 35.511,35.275 35.741,35.678 36.005,35.879 
				36.199,36.348 36.199,36.781 36.622,37.551 37.112,38.457 37.438,39.16 37.962,39.561 38.419,39.828 39.626,40.062 
				40.345,39.695 40.446,39.35 40.539,39.492 40.932,39.629 41.716,39.629 42.468,39.527 43.609,39.359 44.034,39.023 
				45.275,39.059 45.731,38.791 46.027,38.557 46.385,38.49 46.743,38.119 47.2,37.551 47.559,37.15 47.853,36.516 48.05,35.777 
				48.05,34.742 48.244,34.203 48.931,33.334 49.844,32.744 50.234,32.129 50.954,32.062 50.954,30.99 51.543,30.957 51.901,30.723 
				52.327,30.321 52.816,30.556 52.816,30.824 53.207,30.789 53.567,30.521 53.893,29.919 54.219,30.321 54.546,30.59 54.71,30.957 
				55.132,31.258 55.428,31.459 55.59,31.793 55.817,31.995 56.733,31.828 56.894,31.123 57.189,30.254 57.745,29.986 
				58.038,29.116 58.495,28.447 58.722,27.676 59.182,27.309 59.182,25.969 60.029,25.031 60.876,24.261 61.139,23.659 
				61.53,23.221 61.53,21.883 62.251,21.448 62.513,21.047 62.676,19.775 63.36,19.406 63.913,17.833 64.373,16.494 64.667,15.755 
				65.122,15.59 65.776,15.456 66.232,14.919 66.919,14.585 67.114,13.815 67.114,12.208 66.692,11.605 65.808,11.07 65.514,10.903 
				65.45,9.53 64.99,8.726 64.436,7.822 63.816,6.953 63.001,6.417 62.218,6.65 61.824,7.052 61.336,7.252 60.945,7.319 
				60.357,7.957 59.836,8.458 59.474,8.794 59.119,8.794 58.169,8.559 57.222,8.257 56.763,8.091 56.44,8.056 54.87,8.091 
				53.728,8.192 52.913,8.492 52.226,8.66 51.542,8.894 50.987,9.73 50.726,10.266 48.377,10.299 47.526,10.131 46.449,9.53 
				45.34,8.726 44.719,8.559 43.935,8.559 43.184,9.229 42.661,9.229 41.91,9.831 40.671,8.759 39.954,7.822 39.235,7.454 			"/>
		</g>
	</g>
	<g>
		<path fill="#404041" d="M33.843,36.354c-0.063,1.217-0.875,2.164-1.809,2.113c-0.936-0.051-1.644-1.078-1.583-2.299
			c0.062-1.217,0.874-2.164,1.809-2.115C33.197,34.105,33.905,35.135,33.843,36.354z"/>
		<path fill="#009444" d="M27.734,34.945c2.714,5.949,4.184,9.523,1.059,17.986c-0.095,0.258,1.191-2.393,3.431-2.461
			c1.126-0.037,2.725,1.072,2.725,1.072s-2.512-1.797-2.298-6.348c0.187-4.016,2.12-6.375,2.12-6.375s-1.264,1.201-2.622,1.201
			C30.787,40.023,27.734,34.945,27.734,34.945z"/>
		<path fill="#009444" d="M37.183,43.861c0,0,3.316,3.996,3.413,7.408c0.098,3.418-2.021,7.9-2.021,7.9s1.336-1.303,3.067-1.338
			c1.73-0.033,3.689,1.668,3.689,1.668s-2.349-3.107-2.384-6.422c-0.033-3.312,2.854-8.684,2.854-8.684s-1.94,2.189-3.703,2.189
			C40.336,46.584,37.183,43.861,37.183,43.861z"/>
		<path fill="#009444" d="M48.598,38.467c0,0,2.344,2.795,2.474,6.207c0.129,3.414-1.946,7.273-1.946,7.273s1.752-0.715,3.22-0.578
			s4.717,2.881,4.717,2.881s-3.283-5.822-3.312-8.268c-0.035-2.447,4.069-8.736,4.069-8.736s-3.417,2.943-5.311,2.943
			C50.615,40.189,48.598,38.467,48.598,38.467z"/>
		<ellipse fill="#404041" cx="42.05" cy="43.044" rx="2.008" ry="2.151"/>
		<path fill="#404041" d="M54.892,36.939c0,1.312-0.847,2.379-1.894,2.379c-1.043,0-1.891-1.066-1.891-2.379
			c0-1.311,0.848-2.373,1.891-2.373C54.046,34.564,54.892,35.629,54.892,36.939z"/>
	</g>
</g>
<g>
	<g>
		<path fill="#009347" d="M92.334,36.26v-1.082c2.67-0.305,2.839-0.541,2.805-3.92l-0.101-13.482h-0.135l-8.044,18.279h-0.844
			l-7.399-17.907h-0.103l-0.472,9.325c-0.135,2.806-0.135,4.393-0.034,5.609c0.1,1.555,0.844,1.824,3.143,2.061v1.117h-8.28v-1.117
			c1.994-0.201,2.669-0.742,2.94-2.025c0.168-1.15,0.405-2.806,0.675-6.42l0.507-6.86c0.306-4.156,0.069-4.494-2.972-4.764v-1.149
			h6.554l7.231,15.95l7.366-15.95h6.52v1.149c-2.87,0.27-3.04,0.438-2.971,3.582l0.338,12.603c0.069,3.379,0.202,3.615,3.04,3.92
			v1.082H92.334z"/>
		<path fill="#009347" d="M117.473,36.26v-1.082c2.132-0.338,2.335-0.709,1.859-2.096c-0.405-1.182-0.979-2.804-1.656-4.494h-6.992
			c-0.44,1.284-0.914,2.636-1.353,3.986c-0.61,1.861-0.407,2.266,2.162,2.604v1.082h-7.74l0.035-1.082
			c2.267-0.338,2.707-0.639,3.921-3.615l7.13-17.773l1.52-0.372c2.196,6.014,4.392,12.13,6.655,18.076
			c1.116,3.011,1.588,3.38,3.818,3.685v1.082H117.473L117.473,36.26z M114.334,18.891h-0.069c-1.046,2.704-2.026,5.406-2.973,8.009
			h5.846L114.334,18.891z"/>
		<path fill="#009347" d="M149.813,36.564c-0.27,0-0.708-0.035-1.114-0.068c-3.615-0.137-5.001-1.014-6.487-3.211
			c-1.015-1.554-2.062-3.513-3.075-5.271c-0.607-0.98-1.215-1.419-2.634-1.419h-0.812v5.169c0,2.874,0.305,3.142,3.01,3.413v1.082
			h-9.902v-1.082c2.669-0.271,3.041-0.539,3.041-3.413V18.352c0-2.805-0.304-3.075-2.906-3.278v-1.149h9.26
			c2.837,0,4.562,0.304,5.913,1.251c1.385,0.913,2.296,2.432,2.296,4.561c0,2.973-1.924,4.698-4.359,5.677
			c0.575,1.081,1.928,3.379,2.974,4.9c1.217,1.892,1.994,2.907,2.704,3.714c0.811,0.848,1.486,1.252,2.262,1.525L149.813,36.564z
			 M136.872,25.311c1.623,0,2.772-0.237,3.616-0.913c1.215-1.013,1.723-2.365,1.723-4.155c0-3.717-2.263-5.036-4.495-5.036
			c-0.946,0-1.452,0.135-1.689,0.339c-0.236,0.203-0.338,0.574-0.338,1.384v8.38L136.872,25.311L136.872,25.311z"/>
		<path fill="#009347" d="M170.257,15.074c-2.297,0.235-2.905,0.743-4.189,2.804c-1.42,2.195-2.432,3.886-4.123,7.028
			c-0.472,0.88-0.573,1.318-0.573,2.264v4.528c0,3.008,0.235,3.244,3.379,3.48v1.082h-10.645v-1.082
			c3.007-0.236,3.312-0.473,3.312-3.48v-4.123c0-0.777-0.135-1.116-0.572-1.959c-1.083-1.959-2.333-4.19-4.328-7.636
			c-1.35-2.332-1.855-2.67-3.852-2.905v-1.149h9.259v1.149c-2.365,0.303-2.332,0.709-1.656,1.926c1.284,2.5,2.839,5.17,4.259,7.738
			c1.113-2.128,2.939-5.407,3.818-7.467c0.64-1.521,0.607-1.927-2.027-2.196v-1.15h7.939V15.074z"/>
		<path fill="#009347" d="M177.896,29.568h-8.279l0.507-2.229h8.312L177.896,29.568z"/>
		<path fill="#009347" d="M199.557,30.65c-0.237,1.385-0.948,4.562-1.219,5.609H180.97v-1.082c3.075-0.271,3.381-0.506,3.381-3.379
			V18.451c0-3.041-0.306-3.176-2.876-3.412v-1.116h16.02c0.034,0.743,0.17,3.109,0.304,5.103l-1.147,0.169
			c-0.34-1.318-0.744-2.265-1.287-2.974c-0.573-0.675-1.486-0.913-3.646-0.913h-2.132c-1.182,0-1.282,0.101-1.282,1.149v7.534h2.736
			c3.008,0,3.345-0.234,3.784-2.635h1.15v6.826h-1.149c-0.439-2.466-0.812-2.636-3.784-2.636h-2.737v6.15
			c0,1.621,0.17,2.434,0.845,2.807c0.607,0.336,1.859,0.369,3.312,0.369c2.128,0,3.278-0.236,4.09-1.115
			c0.607-0.709,1.282-1.857,1.857-3.346L199.557,30.65z"/>
		<path fill="#009347" d="M218.75,30.582c-0.238,1.318-0.947,4.697-1.251,5.678h-16.455v-1.082c3.007-0.271,3.343-0.473,3.343-3.414
			V18.417c0-2.94-0.304-3.143-3.04-3.344v-1.149h9.97v1.149c-2.673,0.203-3.01,0.371-3.01,3.344v13.45
			c0,1.723,0.168,2.332,0.845,2.672c0.609,0.301,1.656,0.334,2.873,0.334c1.688,0,2.941-0.201,3.716-1.08
			c0.643-0.709,1.25-1.825,1.892-3.515L218.75,30.582z"/>
		<path fill="#009347" d="M220.305,36.26v-1.082c2.704-0.271,3.008-0.473,3.008-3.38v-13.38c0-2.94-0.304-3.143-3.008-3.344v-1.149
			h9.901v1.149c-2.671,0.203-2.975,0.404-2.975,3.344v13.381c0,2.906,0.304,3.107,2.975,3.379v1.082H220.305L220.305,36.26z"/>
		<path fill="#009347" d="M249.163,36.26c-2.028-2.467-4.866-6.151-7.638-9.732c-0.776-1.047-1.217-1.217-1.758-1.115v6.285
			c0,2.973,0.305,3.209,3.074,3.48v1.082h-9.798v-1.082c2.534-0.271,2.872-0.506,2.872-3.48V18.484c0-3.007-0.304-3.209-2.973-3.412
			v-1.149h9.663v1.149c-2.534,0.202-2.839,0.438-2.839,3.412v5.913c0.743-0.202,1.521-0.743,2.568-1.756
			c2.196-2.163,3.954-4.124,5.271-5.711c0.881-1.148,0.846-1.588-0.744-1.79l-0.74-0.068v-1.15h8.782v1.15
			c-2.331,0.202-3.512,0.607-5.539,2.432c-1.792,1.623-3.683,3.547-5.576,5.474c2.399,3.312,5.541,7.062,7.703,9.631
			c1.59,1.859,2.468,2.332,3.953,2.568v1.082H249.163z"/>
		<path fill="#009347" d="M269.643,36.26v-1.082c2.126-0.338,2.33-0.709,1.855-2.096c-0.404-1.182-0.979-2.804-1.653-4.494h-6.997
			c-0.438,1.284-0.912,2.636-1.352,3.986c-0.606,1.861-0.403,2.266,2.162,2.604v1.082h-7.737l0.035-1.082
			c2.262-0.338,2.7-0.639,3.919-3.615l7.13-17.773l1.521-0.372c2.195,6.014,4.394,12.13,6.656,18.076
			c1.114,3.011,1.587,3.38,3.818,3.685v1.082H269.643L269.643,36.26z M266.498,18.891h-0.067c-1.047,2.704-2.027,5.406-2.975,8.009
			h5.847L266.498,18.891z"/>
	</g>
	<g>
		<path fill="#404041" d="M79.1,42.738c-0.138-0.553-0.263-0.912-0.485-1.189c-0.292-0.348-0.622-0.457-1.55-0.457h-0.873
			c-0.456,0-0.497,0.041-0.497,0.471v3.211h1.273c1.287,0,1.386-0.123,1.565-1.039h0.458v2.783h-0.458
			c-0.166-0.953-0.277-1.107-1.565-1.107h-1.273v2.34c0,1.289,0.109,1.369,1.37,1.482v0.441h-4.196v-0.441
			c1.08-0.113,1.204-0.193,1.204-1.469V42.42c0-1.26-0.124-1.342-1.189-1.424v-0.473h6.548c0,0.375,0.067,1.371,0.139,2.133
			L79.1,42.738z"/>
		<path fill="#404041" d="M85.6,40.318c2.535,0,4.706,1.883,4.706,4.68c0,3.029-2.214,4.887-4.889,4.887
			c-2.755,0-4.789-2.021-4.789-4.734c0-2.465,1.815-4.832,4.957-4.832H85.6L85.6,40.318z M85.309,40.883
			c-1.511,0-2.797,1.414-2.797,3.961c0,2.506,1.259,4.486,3.186,4.486c1.469,0,2.728-1.314,2.728-3.959
			c0-2.865-1.343-4.488-3.1-4.488H85.309z"/>
		<path fill="#404041" d="M101.046,40.996c-0.805,0.039-1.15,0.289-1.22,0.83c-0.056,0.4-0.109,0.967-0.109,2.078v1.342
			c0,1.578-0.254,2.77-1.068,3.627c-0.637,0.68-1.605,1.01-2.589,1.01c-0.898,0-1.772-0.193-2.422-0.717
			c-0.832-0.625-1.232-1.678-1.232-3.34v-3.363c0-1.301-0.123-1.371-1.218-1.467v-0.473h4.043v0.473
			c-1.066,0.082-1.219,0.164-1.219,1.467v3.088c0,2.188,0.846,3.447,2.493,3.447c1.856,0,2.562-1.453,2.562-3.807v-1.287
			c0-1.111-0.056-1.678-0.124-2.107c-0.084-0.512-0.415-0.746-1.4-0.801v-0.473h3.505V40.996L101.046,40.996z"/>
		<path fill="#404041" d="M111.516,40.98c-0.775,0.043-1.08,0.223-1.15,0.873c-0.053,0.43-0.109,1.078-0.109,2.354v5.609h-0.582
			l-6.037-7.188h-0.027v3.324c0,1.26,0.057,1.896,0.098,2.326c0.066,0.664,0.346,0.887,1.357,0.955v0.441h-3.436v-0.441
			c0.805-0.068,1.15-0.275,1.222-0.914c0.054-0.471,0.122-1.107,0.122-2.367v-2.99c0-0.957-0.026-1.135-0.291-1.467
			c-0.291-0.348-0.594-0.459-1.229-0.514v-0.457h2.409l5.701,6.562h0.043v-2.881c0-1.275-0.057-1.924-0.096-2.324
			c-0.071-0.625-0.39-0.848-1.414-0.902v-0.457h3.42V40.98L111.516,40.98z"/>
		<path fill="#404041" d="M116.579,40.523c1.798,0,3.154,0.375,4.067,1.221c0.708,0.648,1.248,1.662,1.248,3.002
			c0,1.705-0.692,2.938-1.786,3.768c-1.055,0.805-2.52,1.162-4.293,1.162h-3.572v-0.441c1.174-0.113,1.315-0.193,1.315-1.387v-5.48
			c0-1.205-0.142-1.289-1.177-1.371v-0.471h4.197V40.523z M115.165,47.738c0,1.053,0.332,1.357,1.355,1.357
			c2.257,0,3.545-1.717,3.545-4.098c0-1.385-0.471-2.535-1.33-3.17c-0.607-0.514-1.412-0.766-2.395-0.766
			c-0.566,0-0.899,0.1-1.01,0.195c-0.126,0.111-0.166,0.318-0.166,0.803V47.738L115.165,47.738z"/>
		<path fill="#404041" d="M127.714,49.676v-0.441c0.873-0.139,0.956-0.293,0.762-0.859c-0.165-0.486-0.4-1.148-0.679-1.842h-2.865
			c-0.18,0.525-0.373,1.08-0.554,1.633c-0.249,0.764-0.165,0.93,0.887,1.068v0.441h-3.172l0.017-0.441
			c0.928-0.139,1.107-0.264,1.604-1.482l2.922-7.281l0.623-0.152c0.899,2.463,1.801,4.969,2.729,7.406
			c0.455,1.232,0.649,1.385,1.562,1.51v0.441H127.714z M126.427,42.561h-0.028c-0.43,1.107-0.83,2.215-1.219,3.279h2.396
			L126.427,42.561z"/>
		<path fill="#404041" d="M139.02,42.865c-0.154-0.721-0.346-1.135-0.554-1.398c-0.249-0.277-0.54-0.375-1.495-0.375h-0.802v6.756
			c0,1.162,0.121,1.271,1.426,1.387v0.441h-4.406v-0.441c1.235-0.115,1.36-0.225,1.36-1.387v-6.756h-0.652
			c-1.191,0-1.467,0.15-1.646,0.402c-0.223,0.262-0.373,0.705-0.554,1.381h-0.485c0.069-0.965,0.153-1.951,0.18-2.697h0.319
			c0.207,0.318,0.402,0.346,0.803,0.346h5.72c0.386,0,0.541-0.084,0.788-0.346h0.318c0,0.623,0.07,1.785,0.152,2.645L139.02,42.865z
			"/>
		<path fill="#404041" d="M140.385,49.676v-0.441c1.107-0.113,1.229-0.193,1.229-1.387v-5.48c0-1.205-0.122-1.289-1.229-1.371
			v-0.471h4.057v0.471c-1.096,0.084-1.221,0.166-1.221,1.371v5.48c0,1.193,0.124,1.273,1.221,1.387v0.441H140.385z"/>
		<path fill="#404041" d="M150.431,40.318c2.534,0,4.708,1.883,4.708,4.68c0,3.029-2.214,4.887-4.889,4.887
			c-2.755,0-4.789-2.021-4.789-4.734c0-2.465,1.814-4.832,4.957-4.832H150.431L150.431,40.318z M150.14,40.883
			c-1.51,0-2.796,1.414-2.796,3.961c0,2.506,1.26,4.486,3.184,4.486c1.47,0,2.728-1.314,2.728-3.959c0-2.865-1.342-4.488-3.1-4.488
			H150.14z"/>
		<path fill="#404041" d="M165.903,40.98c-0.773,0.043-1.078,0.223-1.15,0.873c-0.055,0.43-0.107,1.078-0.107,2.354v5.609h-0.582
			l-6.037-7.188h-0.029v3.324c0,1.26,0.057,1.896,0.1,2.326c0.066,0.664,0.346,0.887,1.355,0.955v0.441h-3.434v-0.441
			c0.803-0.068,1.148-0.275,1.219-0.914c0.057-0.471,0.125-1.107,0.125-2.367v-2.99c0-0.957-0.027-1.135-0.293-1.467
			c-0.289-0.348-0.594-0.459-1.23-0.514v-0.457h2.41l5.703,6.562h0.043v-2.881c0-1.275-0.057-1.924-0.098-2.324
			c-0.07-0.625-0.389-0.848-1.414-0.902v-0.457h3.42V40.98z"/>
	</g>
	<rect x="169.615" y="45.006" fill="#404041" width="109.318" height="0.744"/>
</g>
</svg>
