<?xml version="1.0" encoding="UTF-8"?>
<svg width="64px" height="64px" viewBox="0 0 64 64" version="1.1" xmlns="http://www.w3.org/2000/svg" xmlns:xlink="http://www.w3.org/1999/xlink">
    <!-- Generator: Sketch 55 (78076) - https://sketchapp.com -->
    <title>pdf_combine备份 2</title>
    <desc>Created with Sketch.</desc>
    <defs>
        <rect id="path-1" x="0" y="0" width="64" height="64" rx="6"></rect>
    </defs>
    <g id="李思琪--pdf新建页面-新增编辑入口" stroke="none" stroke-width="1" fill="none" fill-rule="evenodd">
        <g id="9.9-新增编辑入口" transform="translate(-674.000000, -615.000000)">
            <g id="编组-12" transform="translate(674.000000, 615.000000)">
                <g id="pdf_combine备份-2">
                    <g id="Mask" fill="#FF5F5F" fill-rule="nonzero">
                        <rect id="path-1" x="0" y="0" width="64" height="64" rx="6"></rect>
                    </g>
                    <g id="分组-Clipped">
                        <mask id="mask-2" fill="white">
                            <use xlink:href="#path-1"></use>
                        </mask>
                        <g id="path-1"></g>
                        <g id="分组" mask="url(#mask-2)">
                            <g transform="translate(8.000000, 8.000000)" id="编组">
                                <g>
                                    <path d="M43.0833333,47 L3.91666667,47 C1.75466667,47 0,45.2453333 0,43.0833333 L0,3.91666667 C0,1.75466667 1.75466667,0 3.91666667,0 L43.0833333,0 C45.2453333,0 47,1.75466667 47,3.91666667 L47,43.0833333 C47,45.2453333 45.2453333,47 43.0833333,47" id="Fill-1" fill="#FF5F5F"></path>
                                    <path d="M20.7585292,27.4166667 L19.5835292,27.4166667 C18.4085292,27.4166667 17.6251958,28.2 17.6251958,29.375 C17.6251958,30.55 18.4085292,31.3333333 19.5835292,31.3333333 L20.7585292,31.3333333 C21.1501958,31.3333333 21.5418625,30.9416667 21.5418625,30.55 L21.5418625,28.2 C21.5418625,27.8083333 21.1501958,27.4166667 20.7585292,27.4166667" id="Fill-3" fill="#FFFFFF"></path>
                                    <path d="M24.4791667,15.6666667 L24.2833333,15.6666667 C23.8916667,15.6666667 23.5,16.0583333 23.5,16.2541667 L23.5,24.675 C23.5,25.0666667 23.8916667,25.4583333 24.2833333,25.4583333 L24.4791667,25.4583333 C27.2208333,25.4583333 29.375,23.3041667 29.375,20.5625 C29.375,17.8208333 27.2208333,15.6666667 24.4791667,15.6666667" id="Fill-5" fill="#FFFFFF"></path>
                                    <path d="M24.4791667,27.4166667 L23.5,27.4166667 L23.5,31.3333333 C23.5,32.5083333 22.7166667,33.2916667 21.5416667,33.2916667 L19.5833333,33.2916667 C17.4291667,33.2916667 15.6666667,31.5291667 15.6666667,29.375 C15.6666667,27.2208333 17.4291667,25.4583333 19.5833333,25.4583333 L21.5416667,25.4583333 L21.5416667,15.6666667 C21.5416667,14.6875 22.325,13.7083333 23.5,13.7083333 L24.4791667,13.7083333 C28.2,13.7083333 31.3333333,16.8416667 31.3333333,20.5625 C31.3333333,24.2833333 28.2,27.4166667 24.4791667,27.4166667 Z M33.2916667,13.7083333 C31.1296667,13.7083333 29.375,11.9536667 29.375,9.79166667 L29.375,5.875 L15.6666667,5.875 C13.5046667,5.875 11.75,7.62966667 11.75,9.79166667 L11.75,33.2916667 C11.75,35.4536667 13.5046667,37.2083333 15.6666667,37.2083333 L33.2916667,37.2083333 C35.4536667,37.2083333 37.2083333,35.4536667 37.2083333,33.2916667 L37.2083333,13.7083333 L33.2916667,13.7083333 Z" id="Fill-7" fill="#FFFFFF"></path>
                                    <path d="M37.2083333,11.75 L33.2916667,11.75 C32.2106667,11.75 31.3333333,10.8726667 31.3333333,9.79166667 L31.3333333,5.875 L37.2083333,11.75 Z" id="Fill-9" fill="#FFFFFF"></path>
                                    <path d="M8.8125,10.7708333 L8.8125,34.2708333 C8.8125,37.5157917 11.4425417,40.1458333 14.6875,40.1458333 L32.3125,40.1458333" id="Stroke-11" stroke="#FFFFFF" stroke-width="2" stroke-linecap="round" stroke-linejoin="round"></path>
                                </g>
                            </g>
                        </g>
                    </g>
                </g>
            </g>
        </g>
    </g>
</svg>