<svg width="72" height="72" viewBox="0 0 72 72" fill="none" xmlns="http://www.w3.org/2000/svg">
<g filter="url(#filter0_dd)">
<circle cx="24" cy="29.6294" r="18" fill="url(#paint0_linear)"/>
</g>
<mask id="mask0" mask-type="alpha" maskUnits="userSpaceOnUse" x="6" y="11" width="36" height="37">
<circle cx="24" cy="29.6294" r="18" fill="url(#paint1_linear)"/>
</mask>
<g mask="url(#mask0)">
<path d="M15.6346 30.7296C14.0761 30.7296 12.615 31.0154 11.2513 31.5868C9.88763 32.1583 8.68954 32.9297 7.65704 33.9012C6.62453 34.8726 5.81607 36.0346 5.23163 37.387C4.6472 38.7394 4.34524 40.1776 4.32576 41.7014C4.32576 43.2253 4.61798 44.6444 5.20241 45.9587C5.78685 47.273 6.58557 48.435 7.59859 49.4445C8.61161 50.4541 9.8097 51.2446 11.1929 51.816C12.576 52.3875 14.0274 52.6732 15.5469 52.6732H49.2103C51.2753 52.6732 53.2137 52.2922 55.0255 51.5303C56.8372 50.7684 58.4249 49.7303 59.7886 48.4159C61.1523 47.1016 62.2238 45.5492 63.003 43.7586C63.7823 41.9681 64.1719 40.0633 64.1719 38.0442C64.1719 36.025 63.7823 34.1297 63.003 32.3583C62.2238 30.5868 61.162 29.0343 59.8178 27.701C58.4736 26.3676 56.8859 25.3199 55.0547 24.558C53.2235 23.7961 51.2753 23.4151 49.2103 23.4151C48.3142 23.4151 47.4083 23.5008 46.4927 23.6723C45.7135 22.4913 44.8173 21.4341 43.8043 20.5007C42.7913 19.5674 41.6711 18.7673 40.4438 18.1007C39.2165 17.434 37.9308 16.9387 36.5866 16.6149C35.2424 16.2911 33.8397 16.1196 32.3786 16.1006C30.2162 16.1006 28.1804 16.472 26.2713 17.2149C24.3621 17.9578 22.6575 18.9769 21.1575 20.2722C19.6574 21.5674 18.4399 23.1199 17.5048 24.9294C16.5697 26.739 15.9463 28.6724 15.6346 30.7296Z" fill="black" fill-opacity="0.1"/>
</g>
<g filter="url(#filter1_d)">
<path d="M17.3379 33.6C15.7754 33.6 14.3105 33.9047 12.9434 34.5141C11.5762 35.1234 10.375 35.9461 9.33984 36.982C8.30469 38.018 7.49414 39.257 6.9082 40.6992C6.32227 42.1414 6.01953 43.675 6 45.3C6 46.925 6.29297 48.4383 6.87891 49.8398C7.46484 51.2414 8.26562 52.4805 9.28125 53.557C10.2969 54.6336 11.498 55.4766 12.8848 56.0859C14.2715 56.6953 15.7266 57 17.25 57H51C53.0703 57 55.0137 56.5938 56.8301 55.7812C58.6465 54.9688 60.2383 53.8617 61.6055 52.4602C62.9727 51.0586 64.0469 49.4031 64.8281 47.4937C65.6094 45.5844 66 43.5531 66 41.4C66 39.2469 65.6094 37.2258 64.8281 35.3367C64.0469 33.4477 62.9824 31.7922 61.6348 30.3703C60.2871 28.9484 58.6953 27.8313 56.8594 27.0188C55.0234 26.2063 53.0703 25.8 51 25.8C50.1016 25.8 49.1934 25.8914 48.2754 26.0742C47.4941 24.8148 46.5957 23.6875 45.5801 22.6922C44.5645 21.6969 43.4414 20.8438 42.2109 20.1328C40.9805 19.4219 39.6914 18.8937 38.3438 18.5484C36.9961 18.2031 35.5898 18.0203 34.125 18C31.957 18 29.916 18.3961 28.002 19.1883C26.0879 19.9805 24.3789 21.0672 22.875 22.4484C21.3711 23.8297 20.1504 25.4852 19.2129 27.4148C18.2754 29.3445 17.6504 31.4062 17.3379 33.6Z" fill="url(#paint2_linear)"/>
</g>
<path d="M65.7936 40.0493C65.7936 47.0902 58.6503 51.3984 51.5776 51.3984C44.505 51.3984 38.7715 45.6907 38.7715 38.6499C38.7715 31.6091 44.505 25.9014 51.5776 25.9014C58.6503 25.9014 65.7936 33.0085 65.7936 40.0493Z" fill="url(#paint3_linear)"/>
<path d="M47.3555 30.3628C44.432 30.3628 41.8263 31.4404 39.7925 33.1517C39.7925 33.1517 39.729 33.1517 39.729 33.2151C40.9365 30.6798 43.0338 28.5881 45.576 27.3838C43.4151 24.9118 40.301 23.3906 36.7419 23.3906C30.3229 23.3906 25.175 28.5881 25.175 34.8631C25.175 35.8772 25.3021 36.8914 25.5564 37.8421C24.6666 37.5252 23.7133 37.3351 22.6964 37.3351C18.2476 37.3351 14.625 40.9479 14.625 45.3214C14.625 49.6949 18.2476 53.3078 22.6964 53.3078C22.76 53.3078 22.8235 53.3078 22.8235 53.3078H47.1013C47.1648 53.3078 47.2284 53.3078 47.292 53.3078C53.711 53.3078 58.8589 48.1103 58.8589 41.8353C58.8589 35.5603 53.711 30.3628 47.3555 30.3628Z" fill="url(#paint4_linear)"/>
<defs>
<filter id="filter0_dd" x="4" y="9.62939" width="40" height="42" filterUnits="userSpaceOnUse" color-interpolation-filters="sRGB">
<feFlood flood-opacity="0" result="BackgroundImageFix"/>
<feColorMatrix in="SourceAlpha" type="matrix" values="0 0 0 0 0 0 0 0 0 0 0 0 0 0 0 0 0 0 127 0"/>
<feOffset/>
<feGaussianBlur stdDeviation="1"/>
<feColorMatrix type="matrix" values="0 0 0 0 0.996078 0 0 0 0 0.878431 0 0 0 0 0.411765 0 0 0 1 0"/>
<feBlend mode="normal" in2="BackgroundImageFix" result="effect1_dropShadow"/>
<feColorMatrix in="SourceAlpha" type="matrix" values="0 0 0 0 0 0 0 0 0 0 0 0 0 0 0 0 0 0 127 0"/>
<feOffset dy="2"/>
<feGaussianBlur stdDeviation="1"/>
<feColorMatrix type="matrix" values="0 0 0 0 0 0 0 0 0 0 0 0 0 0 0 0 0 0 0.25 0"/>
<feBlend mode="normal" in2="effect1_dropShadow" result="effect2_dropShadow"/>
<feBlend mode="normal" in="SourceGraphic" in2="effect2_dropShadow" result="shape"/>
</filter>
<filter id="filter1_d" x="4" y="18" width="64" height="43" filterUnits="userSpaceOnUse" color-interpolation-filters="sRGB">
<feFlood flood-opacity="0" result="BackgroundImageFix"/>
<feColorMatrix in="SourceAlpha" type="matrix" values="0 0 0 0 0 0 0 0 0 0 0 0 0 0 0 0 0 0 127 0"/>
<feOffset dy="2"/>
<feGaussianBlur stdDeviation="1"/>
<feColorMatrix type="matrix" values="0 0 0 0 0 0 0 0 0 0 0 0 0 0 0 0 0 0 0.25 0"/>
<feBlend mode="normal" in2="BackgroundImageFix" result="effect1_dropShadow"/>
<feBlend mode="normal" in="SourceGraphic" in2="effect1_dropShadow" result="shape"/>
</filter>
<linearGradient id="paint0_linear" x1="11.0625" y1="16.6919" x2="41.9979" y2="44.5894" gradientUnits="userSpaceOnUse">
<stop offset="0.0653907" stop-color="#FFE975"/>
<stop offset="0.364583" stop-color="#FFB729"/>
<stop offset="0.595906" stop-color="#FF9900"/>
</linearGradient>
<linearGradient id="paint1_linear" x1="11.0625" y1="16.6919" x2="41.9979" y2="44.5894" gradientUnits="userSpaceOnUse">
<stop offset="0.0653907" stop-color="#FFE975"/>
<stop offset="0.364583" stop-color="#FFB729"/>
<stop offset="0.595906" stop-color="#FF9900"/>
</linearGradient>
<linearGradient id="paint2_linear" x1="8.98137" y1="21.1304" x2="65.8196" y2="55.0049" gradientUnits="userSpaceOnUse">
<stop stop-color="white"/>
<stop offset="0.387304" stop-color="#C6EBFF"/>
<stop offset="0.96875" stop-color="#96C6E0"/>
</linearGradient>
<linearGradient id="paint3_linear" x1="47.1869" y1="26.2656" x2="50.4518" y2="40.8417" gradientUnits="userSpaceOnUse">
<stop offset="0.265243" stop-color="#F4F8FA"/>
<stop offset="0.899425" stop-color="#F4F8FA" stop-opacity="0"/>
</linearGradient>
<linearGradient id="paint4_linear" x1="18.7284" y1="30.3478" x2="44.0802" y2="55.8405" gradientUnits="userSpaceOnUse">
<stop offset="0.0589154" stop-color="#98DAFE"/>
<stop offset="0.751885" stop-color="#E7F6FF"/>
<stop offset="1" stop-color="#BCE6FF"/>
</linearGradient>
</defs>
</svg>
