<svg width="72" height="72" viewBox="0 0 72 72" fill="none" xmlns="http://www.w3.org/2000/svg">
<g filter="url(#filter0_dd)">
<path d="M8.83008 45.7452C9.63448 45.9513 10.4547 46.1246 11.2895 46.2635C26.6648 48.8209 41.1499 38.7022 43.6428 23.6628C44.5024 18.4771 43.8239 13.3835 41.9356 8.83008C55.9474 12.4204 65.1595 25.9508 62.8019 40.1737C60.309 55.2131 45.8239 65.3318 30.4486 62.7744C20.3748 61.0988 12.4182 54.3973 8.83008 45.7452Z" fill="url(#paint0_linear)"/>
</g>
<g filter="url(#filter1_d)">
<path d="M11.1021 19.2C10.3989 19.2 9.73975 19.3406 9.12451 19.6219C8.50928 19.9031 7.96875 20.2828 7.50293 20.7609C7.03711 21.2391 6.67236 21.8109 6.40869 22.4766C6.14502 23.1422 6.00879 23.85 6 24.6C6 25.35 6.13184 26.0484 6.39551 26.6953C6.65918 27.3422 7.01953 27.9141 7.47656 28.4109C7.93359 28.9078 8.47412 29.2969 9.09814 29.5781C9.72217 29.8594 10.377 30 11.0625 30H26.25C27.1816 30 28.0562 29.8125 28.8735 29.4375C29.6909 29.0625 30.4072 28.5516 31.0225 27.9047C31.6377 27.2578 32.1211 26.4938 32.4727 25.6125C32.8242 24.7312 33 23.7937 33 22.8C33 21.8063 32.8242 20.8734 32.4727 20.0016C32.1211 19.1297 31.6421 18.3656 31.0356 17.7094C30.4292 17.0531 29.7129 16.5375 28.8867 16.1625C28.0605 15.7875 27.1816 15.6 26.25 15.6C25.8457 15.6 25.437 15.6422 25.0239 15.7266C24.6724 15.1453 24.2681 14.625 23.811 14.1656C23.354 13.7063 22.8486 13.3125 22.2949 12.9844C21.7412 12.6562 21.1611 12.4125 20.5547 12.2531C19.9482 12.0938 19.3154 12.0094 18.6562 12C17.6807 12 16.7622 12.1828 15.9009 12.5484C15.0396 12.9141 14.2705 13.4156 13.5938 14.0531C12.917 14.6906 12.3677 15.4547 11.9458 16.3453C11.5239 17.2359 11.2427 18.1875 11.1021 19.2Z" fill="url(#paint1_linear)"/>
</g>
<path d="M32.908 22.1758C32.908 25.4254 29.6935 27.4139 26.5108 27.4139C23.3281 27.4139 20.748 24.7795 20.748 21.5299C20.748 18.2803 23.3281 15.646 26.5108 15.646C29.6935 15.646 32.908 18.9262 32.908 22.1758Z" fill="url(#paint2_linear)"/>
<path d="M24.6135 17.7067C23.2979 17.7067 22.1253 18.204 21.2102 18.9939C21.2102 18.9939 21.1816 18.9939 21.1816 19.0231C21.7249 17.853 22.6687 16.8876 23.8127 16.3318C22.8403 15.1909 21.439 14.4888 19.8374 14.4888C16.9488 14.4888 14.6323 16.8876 14.6323 19.7838C14.6323 20.2518 14.6895 20.7199 14.8039 21.1587C14.4035 21.0124 13.9745 20.9247 13.5169 20.9247C11.5149 20.9247 9.88477 22.5921 9.88477 24.6107C9.88477 26.6292 11.5149 28.2967 13.5169 28.2967C13.5455 28.2967 13.5741 28.2967 13.5741 28.2967H24.4991C24.5277 28.2967 24.5563 28.2967 24.5849 28.2967C27.4734 28.2967 29.79 25.8979 29.79 23.0017C29.79 20.1056 27.4734 17.7067 24.6135 17.7067Z" fill="url(#paint3_linear)"/>
<defs>
<filter id="filter0_dd" x="6.83008" y="6.83008" width="58.3396" height="60.3396" filterUnits="userSpaceOnUse" color-interpolation-filters="sRGB">
<feFlood flood-opacity="0" result="BackgroundImageFix"/>
<feColorMatrix in="SourceAlpha" type="matrix" values="0 0 0 0 0 0 0 0 0 0 0 0 0 0 0 0 0 0 127 0"/>
<feOffset/>
<feGaussianBlur stdDeviation="1"/>
<feColorMatrix type="matrix" values="0 0 0 0 0.996078 0 0 0 0 0.878431 0 0 0 0 0.411765 0 0 0 1 0"/>
<feBlend mode="normal" in2="BackgroundImageFix" result="effect1_dropShadow"/>
<feColorMatrix in="SourceAlpha" type="matrix" values="0 0 0 0 0 0 0 0 0 0 0 0 0 0 0 0 0 0 127 0"/>
<feOffset dy="2"/>
<feGaussianBlur stdDeviation="1"/>
<feColorMatrix type="matrix" values="0 0 0 0 0 0 0 0 0 0 0 0 0 0 0 0 0 0 0.25 0"/>
<feBlend mode="normal" in2="effect1_dropShadow" result="effect2_dropShadow"/>
<feBlend mode="normal" in="SourceGraphic" in2="effect2_dropShadow" result="shape"/>
</filter>
<filter id="filter1_d" x="4" y="12" width="31" height="22" filterUnits="userSpaceOnUse" color-interpolation-filters="sRGB">
<feFlood flood-opacity="0" result="BackgroundImageFix"/>
<feColorMatrix in="SourceAlpha" type="matrix" values="0 0 0 0 0 0 0 0 0 0 0 0 0 0 0 0 0 0 127 0"/>
<feOffset dy="2"/>
<feGaussianBlur stdDeviation="1"/>
<feColorMatrix type="matrix" values="0 0 0 0 0 0 0 0 0 0 0 0 0 0 0 0 0 0 0.25 0"/>
<feBlend mode="normal" in2="BackgroundImageFix" result="effect1_dropShadow"/>
<feBlend mode="normal" in="SourceGraphic" in2="effect1_dropShadow" result="shape"/>
</filter>
<linearGradient id="paint0_linear" x1="43.8112" y1="73.0188" x2="14.8358" y2="21.0721" gradientUnits="userSpaceOnUse">
<stop offset="0.0851237" stop-color="#FF9900"/>
<stop offset="0.50451" stop-color="#FBE000"/>
</linearGradient>
<linearGradient id="paint1_linear" x1="7.34162" y1="13.4448" x2="33.2541" y2="28.5021" gradientUnits="userSpaceOnUse">
<stop stop-color="white"/>
<stop offset="0.387304" stop-color="#C6EBFF"/>
<stop offset="0.96875" stop-color="#96C6E0"/>
</linearGradient>
<linearGradient id="paint2_linear" x1="24.535" y1="15.8141" x2="26.0767" y2="22.5249" gradientUnits="userSpaceOnUse">
<stop offset="0.265243" stop-color="#F4F8FA"/>
<stop offset="0.899425" stop-color="#F4F8FA" stop-opacity="0"/>
</linearGradient>
<linearGradient id="paint3_linear" x1="11.7313" y1="17.6998" x2="23.43" y2="29.1694" gradientUnits="userSpaceOnUse">
<stop offset="0.0589154" stop-color="#98DAFE"/>
<stop offset="0.751885" stop-color="#E7F6FF"/>
<stop offset="1" stop-color="#BCE6FF"/>
</linearGradient>
</defs>
</svg>
