<svg xmlns="http://www.w3.org/2000/svg" viewBox="1754 836 16 16">
  <g id="movieWhite" transform="translate(1562 756)">
    <path id="Fill1" fill="#393939" d="M193.678,88h12.846v6.1l-1.08.453H194.506l-.828-.844Z"/>
    <path id="Fill2" d="M193.056,84.726l12.5-3.184.679,3.184L193.542,87.38Z"/>
    <path id="Contour" fill="#fff" d="M14.891-10V-3.55a1.46,1.46,0,0,1-.116.581,1.493,1.493,0,0,1-.318.473,1.493,1.493,0,0,1-.473.318,1.46,1.46,0,0,1-.581.116H2.492a1.46,1.46,0,0,1-.581-.116A1.493,1.493,0,0,1,1.438-2.5a1.493,1.493,0,0,1-.318-.473A1.46,1.46,0,0,1,1-3.55V-7.479Q1-7.766,1.016-8t.015-.461q0-.229,0-.461T1-9.439a2.338,2.338,0,0,0-.046-.3Q.927-9.873.892-10t-.077-.252q-.043-.128-.081-.291l-.55-2.209,13.469-3.363.961,3.852L5.538-10ZM5.29-13l-2.488.62L5.53-11.02l2.488-.62ZM9.5-12l2.5-.628L9.265-13.988l-2.5.62Zm-8.106.031.473,1.868,2.185-.542Zm11.539-2.937-2.185.55,2.65,1.325ZM13.9-9.005H2V-3.55a.477.477,0,0,0,.147.349.477.477,0,0,0,.349.147H13.4a.477.477,0,0,0,.349-.147A.477.477,0,0,0,13.9-3.55Z" transform="translate(192.117 97)"/>
  </g>
</svg>
