<?xml version="1.0" encoding="UTF-8"?>
<svg width="50px" height="50px" viewBox="0 0 50 50" version="1.1" xmlns="http://www.w3.org/2000/svg" xmlns:xlink="http://www.w3.org/1999/xlink">
    <!-- Generator: Sketch 62 (91390) - https://sketch.com -->
    <title>mBadge_50</title>
    <desc>Created with Sketch.</desc>
    <g id="video-banner-v2" stroke="none" stroke-width="1" fill="none" fill-rule="evenodd">
        <g id="mBadge_50" transform="translate(1.000000, 1.000000)">
            <g id="Group-41">
                <g id="Oval-2" fill="#A4A8B4" stroke="#A3A8B6" stroke-width="1.79830694">
                    <circle id="Oval" cx="23.7468737" cy="23.7468737" r="23.7468737"></circle>
                </g>
                <path d="M10.7941414,18.5856274 L10.7941414,32.5136055 C10.7941414,32.6451724 10.900189,32.7519514 11.0308548,32.7519514 L12.8987603,32.7519514 C13.0296628,32.7519514 13.1354737,32.6451724 13.1354737,32.5136055 L13.1354737,24.5266361 C13.1354737,23.7176903 13.2038839,22.9261437 13.4088777,22.2034791 C14.1438728,19.5535499 16.2288445,17.0928674 19.0485746,17.0928674 C22.3128525,17.0928674 22.6887534,19.6395928 22.6887534,22.272361 L22.6887534,32.5136055 C22.6887534,32.6451724 22.794801,32.7519514 22.9254668,32.7519514 L24.7933723,32.7519514 C24.9240381,32.7519514 25.0300857,32.6451724 25.0300857,32.5136055 L25.0300857,24.5266361 C25.0300857,23.5801647 25.0984958,22.7542963 25.3378131,21.9970716 C26.0384848,19.4503462 28.1916299,17.0928674 30.8063662,17.0928674 C33.9681472,17.0928674 34.5492786,19.4331853 34.5492786,22.272361 L34.5492786,30.6352019 C34.5492786,32.1324905 34.4713999,32.7519514 35.9411534,32.7519514 L36.6709408,32.7519514 C36.8016066,32.7519514 36.9076543,32.6451724 36.9076543,32.5136055 L36.9076543,21.687222 C36.9076543,17.4024786 35.3524472,14.9417961 31.1654604,14.9417961 C28.2429967,14.9417961 25.7307574,16.9379426 24.8078118,19.2954214 L24.7396383,19.2954214 C24.2098737,16.4216855 22.5692131,14.9417961 19.3733454,14.9417961 C16.6901989,14.9417961 13.9729658,16.9722644 13.1184304,19.3297432 L13.0500202,19.3297432 C13.0500202,19.3297432 13.1184304,18.7791643 13.1184304,18.0908214 L13.1184304,17.2992749 C13.1184304,15.9743103 13.1619856,15.3548494 11.7265555,15.3548494 L10.7860932,15.3548494 L10.7941414,18.5856274" id="Fill-7" stroke="#F7F9F9" stroke-width="1.60291398" fill="#F7F9F9" fill-rule="nonzero"></path>
            </g>
        </g>
    </g>
</svg>