<svg xmlns="http://www.w3.org/2000/svg" viewBox="1634 476 16 16">
  <g id="musicBlack" transform="translate(1442 396)">
    <ellipse id="Fill1" fill="#ffb900" cx="2" cy="1.5" rx="2" ry="1.5" transform="translate(193.5 92.5)"/>
    <ellipse id="Fill2" fill="#ef6950" cx="2" cy="1.5" rx="2" ry="1.5" transform="translate(202.5 90.5)"/>
    <path id="Contour" d="M14.875-5.312a1.687,1.687,0,0,1-.245.909A2.254,2.254,0,0,1,14-3.74a2.97,2.97,0,0,1-.859.411,3.216,3.216,0,0,1-.921.141,3.216,3.216,0,0,1-.921-.141,2.97,2.97,0,0,1-.859-.411A2.254,2.254,0,0,1,9.807-4.4a1.687,1.687,0,0,1-.245-.909,1.693,1.693,0,0,1,.245-.9,2.235,2.235,0,0,1,.631-.668A2.97,2.97,0,0,1,11.3-7.3a3.216,3.216,0,0,1,.921-.141,3.345,3.345,0,0,1,.83.1,2.81,2.81,0,0,1,.764.32v-8.11L6.375-13.265V-3.187a1.687,1.687,0,0,1-.245.909,2.254,2.254,0,0,1-.631.664A2.97,2.97,0,0,1,4.64-1.2a3.216,3.216,0,0,1-.921.141A3.216,3.216,0,0,1,2.8-1.2a2.97,2.97,0,0,1-.859-.411,2.254,2.254,0,0,1-.631-.664,1.687,1.687,0,0,1-.245-.909,1.693,1.693,0,0,1,.245-.9,2.235,2.235,0,0,1,.631-.668A2.97,2.97,0,0,1,2.8-5.171a3.216,3.216,0,0,1,.921-.141,3.345,3.345,0,0,1,.83.1,2.81,2.81,0,0,1,.764.32v-9.206l9.563-2.391ZM3.719-2.125a2.131,2.131,0,0,0,.5-.066,2.251,2.251,0,0,0,.519-.2,1.337,1.337,0,0,0,.411-.328.716.716,0,0,0,.166-.473.716.716,0,0,0-.166-.473,1.337,1.337,0,0,0-.411-.328,2.251,2.251,0,0,0-.519-.2,2.131,2.131,0,0,0-.5-.066,2.131,2.131,0,0,0-.5.066,2.251,2.251,0,0,0-.519.2,1.337,1.337,0,0,0-.411.328.716.716,0,0,0-.166.473.716.716,0,0,0,.166.473,1.337,1.337,0,0,0,.411.328,2.251,2.251,0,0,0,.519.2A2.131,2.131,0,0,0,3.719-2.125Zm8.5-2.125a2.131,2.131,0,0,0,.5-.066,2.251,2.251,0,0,0,.519-.2,1.337,1.337,0,0,0,.411-.328.716.716,0,0,0,.166-.473.716.716,0,0,0-.166-.473,1.337,1.337,0,0,0-.411-.328,2.251,2.251,0,0,0-.519-.2,2.131,2.131,0,0,0-.5-.066,2.131,2.131,0,0,0-.5.066,2.251,2.251,0,0,0-.519.2,1.337,1.337,0,0,0-.411.328.716.716,0,0,0-.166.473.716.716,0,0,0,.166.473,1.337,1.337,0,0,0,.411.328,2.251,2.251,0,0,0,.519.2A2.131,2.131,0,0,0,12.219-4.25Z" transform="translate(192 97)"/>
  </g>
</svg>
