<?xml version="1.0" encoding="utf-8"?>
<!-- Generator: Adobe Illustrator 22.1.0, SVG Export Plug-In . SVG Version: 6.00 Build 0)  -->
<svg version="1.1" id="Layer_1" xmlns="http://www.w3.org/2000/svg" xmlns:xlink="http://www.w3.org/1999/xlink" x="0px" y="0px"
	 viewBox="0 0 90.1 90.1" style="enable-background:new 0 0 90.1 90.1;" xml:space="preserve">
<style type="text/css">
	.st0{fill:#FFFFFF;}
</style>
<path class="st0" d="M55.8,45l32.1,32.1c3,3,3,7.7,0,10.7s-7.7,3-10.7,0L45,55.8L12.9,87.9c-3,3-7.7,3-10.7,0s-3-7.7,0-10.7
	l32.1-32.1L2.2,12.9c-3-3-3-7.7,0-10.7s7.7-3,10.7,0L45,34.3L77.2,2.2c3-3,7.7-3,10.7,0s3,7.7,0,10.7L55.8,45z"/>
</svg>
