<?xml version="1.0" encoding="UTF-8"?>
<svg width="42px" height="42px" viewBox="0 0 42 42" version="1.1" xmlns="http://www.w3.org/2000/svg" xmlns:xlink="http://www.w3.org/1999/xlink">
    <!-- Generator: Sketch 55.2 (78181) - https://sketchapp.com -->
    <title>icon/新建/表格</title>
    <desc>Created with Sketch.</desc>
    <g id="icon/新建/表格" stroke="none" stroke-width="1" fill="none" fill-rule="evenodd">
        <path d="M23,19 L37,19 C38.1045695,19 39,19.8954305 39,21 C39,22.1045695 38.1045695,23 37,23 L23,23 L23,37 C23,38.1045695 22.1045695,39 21,39 C19.8954305,39 19,38.1045695 19,37 L19,23 L5,23 C3.8954305,23 3,22.1045695 3,21 C3,19.8954305 3.8954305,19 5,19 L19,19 L19,5 C19,3.8954305 19.8954305,3 21,3 C22.1045695,3 23,3.8954305 23,5 L23,19 Z" id="形状结合" fill="#47B347"></path>
    </g>
</svg>