<?xml version="1.0" encoding="UTF-8"?>
<svg width="388px" height="265px" viewBox="0 0 388 265" version="1.1" xmlns="http://www.w3.org/2000/svg" xmlns:xlink="http://www.w3.org/1999/xlink">
    <!-- Generator: Sketch 55.2 (78181) - https://sketchapp.com -->
    <title>编组 9</title>
    <desc>Created with Sketch.</desc>
    <defs>
        <rect id="path-1" x="0" y="0" width="98" height="73" rx="2"></rect>
        <filter x="-31.6%" y="-39.7%" width="163.3%" height="184.9%" filterUnits="objectBoundingBox" id="filter-3">
            <feOffset dx="0" dy="2" in="SourceAlpha" result="shadowOffsetOuter1"></feOffset>
            <feGaussianBlur stdDeviation="10" in="shadowOffsetOuter1" result="shadowBlurOuter1"></feGaussianBlur>
            <feColorMatrix values="0 0 0 0 0.824733232   0 0 0 0 0.905063834   0 0 0 0 1  0 0 0 1 0" type="matrix" in="shadowBlurOuter1"></feColorMatrix>
        </filter>
        <rect id="path-4" x="0" y="0" width="47" height="87" rx="4"></rect>
        <filter x="-66.0%" y="-33.3%" width="231.9%" height="171.3%" filterUnits="objectBoundingBox" id="filter-6">
            <feOffset dx="0" dy="2" in="SourceAlpha" result="shadowOffsetOuter1"></feOffset>
            <feGaussianBlur stdDeviation="10" in="shadowOffsetOuter1" result="shadowBlurOuter1"></feGaussianBlur>
            <feColorMatrix values="0 0 0 0 0.824733232   0 0 0 0 0.905063834   0 0 0 0 1  0 0 0 1 0" type="matrix" in="shadowBlurOuter1"></feColorMatrix>
        </filter>
    </defs>
    <g id="3.2.3下载管理" stroke="none" stroke-width="1" fill="none" fill-rule="evenodd">
        <g id="3.2.3下载管理-我的未登录" transform="translate(-761.000000, -396.000000)">
            <g id="编组-9" transform="translate(761.000000, 373.000000)">
                <path d="M88.3439405,275.126029 C69.6738929,278.501434 47.5308478,262.689136 21.9148054,227.689136 C-16.5092583,175.189136 -4.77243436,92.2447297 60.0253159,102.423394 C124.823066,112.602058 93.4950197,28.5557958 147.49502,28.5557958 C201.49502,28.5557958 195.624191,50.33954 246.99502,71.9233938 C298.365849,93.5072476 314.486794,62.7183447 333.99502,70.9233938 C368.252866,85.3320497 320.67782,129.382426 374.752866,170.923394 C409.468126,197.591988 371.47199,272.923394 304.365849,275.126029 C259.628421,276.594452 187.621118,276.594452 88.3439405,275.126029 Z" id="路径-2" fill="#E7F2FF"></path>
                <g id="花备份" transform="translate(83.298114, 220.787578) scale(-1, 1) rotate(-392.000000) translate(-83.298114, -220.787578) translate(31.298114, 207.287578)" stroke="#659CEE" stroke-dasharray="2,6" stroke-linecap="round" stroke-width="3">
                    <path d="M38.7718387,-37.623571 C51.0378196,-26.2036641 56.8239218,-12.5407785 56.1301454,3.36508593 C55.0894807,27.2238826 65.7634747,17.5794945 64.6565943,30.2474186 C63.549714,42.9153427 56.188731,53.4941327 58.4734853,65.1714947" id="路径-17" transform="translate(51.754528, 13.773962) scale(-1, 1) rotate(-90.000000) translate(-51.754528, -13.773962) "></path>
                </g>
                <g id="花备份-2" transform="translate(299.725805, 206.930046) scale(-1, 1) rotate(-411.000000) translate(-299.725805, -206.930046) translate(282.225805, 159.430046)">
                    <path d="M27.9884604,1.50824878 C12.8240435,9.76135917 5.69897233,18.3924986 6.613247,27.4016672 C7.98465901,40.91542 19.6080615,49.7236086 18.5011811,61.3780988 C17.3943008,73.0325889 10.0333178,82.7650757 12.3180721,93.5082488" id="路径-17" stroke="#659CEE" stroke-width="3" stroke-linecap="round" stroke-dasharray="2,6" transform="translate(17.261863, 47.508249) rotate(-8.000000) translate(-17.261863, -47.508249) "></path>
                    <path d="M16.7569691,39.469606 C21.3473368,39.4608391 25.073634,36.803088 25.0798947,33.5333398 C25.0861396,30.2635916 21.3699802,27.6200334 16.7796126,27.6287657 C13.7193674,27.6346161 10.9450615,29.6133744 8.4566949,33.5650406 C10.9299659,37.5072448 13.696724,39.4754333 16.7569691,39.469606 Z" id="椭圆形备份-5" fill="#C2DEFF" transform="translate(16.768295, 33.549186) rotate(117.000000) translate(-16.768295, -33.549186) "></path>
                </g>
                <g id="编组-8备份" opacity="0" transform="translate(306.000000, 238.500000) scale(-1, 1) rotate(-76.000000) translate(-306.000000, -238.500000) translate(240.000000, 162.000000)">
                    <g id="编组-7" transform="translate(59.374320, 59.576205) rotate(26.000000) translate(-59.374320, -59.576205) translate(14.874320, 15.576205)">
                        <path d="M10.3296378,65.6265906 C10.3296378,65.6265906 45.7160469,18.3535973 69.4977543,16.3837452 C82.1078375,15.339245 83.6609631,26.784938 56.6008504,49.5995559 C50.5996921,54.659185 36.7048148,62.175294 14.9162186,72.1478827 C11.8584981,67.8003546 10.3296378,65.6265906 10.3296378,65.6265906 Z" id="路径-13备份-2" fill="#3691FF" transform="translate(44.283054, 44.233018) rotate(-43.000000) translate(-44.283054, -44.233018) "></path>
                        <path d="M48.0026294,12.0707443 C43.9020293,32.6716201 41.9123247,48.6260633 42.0335154,59.9340741 C43.3446301,47.7094923 44.391643,39.2943883 45.1745539,34.6887619 C45.9574649,30.0831356 46.9001567,22.5437964 48.0026294,12.0707443 Z" id="路径-16" fill="#0072FB" transform="translate(45.015463, 36.002409) rotate(2.000000) translate(-45.015463, -36.002409) "></path>
                    </g>
                    <g id="编组-6" transform="translate(47.602305, 61.161773) rotate(-366.000000) translate(-47.602305, -61.161773) translate(14.102305, 28.161773)">
                        <path d="M7.67149868,47.0710661 C7.67149868,47.0710661 30.969612,6.27089152 53.7283371,12.9666329 C68.9008205,17.4304606 54.4864826,31.0368884 10.4853234,53.7859165 C8.60944024,49.3093496 7.67149868,47.0710661 7.67149868,47.0710661 Z" id="路径-13备份" fill="#57B3FF" transform="translate(33.617656, 33.005083) rotate(-43.000000) translate(-33.617656, -33.005083) "></path>
                        <path d="M35.9353566,11.3835412 C30.5546826,24.5361188 27.4547352,40.2014526 26.6355145,58.3795424 C28.2322774,45.0400308 29.6577382,36.1760834 30.9118969,31.7877002 C32.1660555,27.3993169 33.8405421,20.5979306 35.9353566,11.3835412 Z" id="路径-15" fill="#2C9AF5" transform="translate(31.285436, 34.881542) rotate(2.000000) translate(-31.285436, -34.881542) "></path>
                    </g>
                    <g id="编组-3" transform="translate(70.709103, 90.958729) rotate(-328.000000) translate(-70.709103, -90.958729) translate(26.709103, 46.958729)">
                        <path d="M10.1929744,65.6630706 C10.1929744,65.6630706 45.6049935,18.413959 69.3220755,16.3838429 C81.8978917,15.3073881 83.4150117,26.7195053 56.3719357,49.5500102 C50.3745556,54.6131626 36.4999569,62.1481816 14.7481396,72.1550672 C11.7113628,67.8270694 10.1929744,65.6630706 10.1929744,65.6630706 Z" id="路径-13备份-2" fill="#3691FF" transform="translate(44.106640, 44.234618) rotate(-43.000000) translate(-44.106640, -44.234618) "></path>
                        <path d="M47.7976334,12.0714751 C43.7235387,32.6714252 41.7478392,48.6253794 41.870535,59.9333376 C43.1720923,47.7090896 44.2117317,39.2942431 44.9894529,34.688798 C45.7671742,30.0833528 46.7032344,22.5442452 47.7976334,12.0714751 Z" id="路径-16" fill="#0072FB" transform="translate(44.831394, 36.002406) rotate(2.000000) translate(-44.831394, -36.002406) "></path>
                    </g>
                    <g id="编组-4" transform="translate(72.169435, 117.444224) rotate(17.000000) translate(-72.169435, -117.444224) translate(45.669435, 88.944224)">
                        <path d="M1.35426772,45.1322317 C1.35426772,45.1322317 19.6002756,-11.3058512 44.2859781,3.49440176 C60.7431132,13.3612371 47.7391674,30.7983856 5.27414072,55.8058474 C2.66089206,48.6901036 1.35426772,45.1322317 1.35426772,45.1322317 Z" id="路径-13" fill="#1A77FF" transform="translate(26.267518, 28.413110) rotate(2.000000) translate(-26.267518, -28.413110) "></path>
                        <path d="M10.7330678,45.3078922 C21.6282995,23.5068118 32.1997997,12.1645002 42.4475684,11.2809573 C34.1064816,15.0642665 28.0232462,19.9554647 24.1978621,25.954552 C20.372478,31.9536394 15.6611546,39.6264553 10.0638917,48.9729999 L10.7330678,45.3078922 Z" id="路径-14" fill="#0E6CF6" transform="translate(26.255730, 30.126979) rotate(2.000000) translate(-26.255730, -30.126979) "></path>
                    </g>
                    <g id="编组-2" transform="translate(59.696334, 83.042497) rotate(-17.000000) translate(-59.696334, -83.042497) translate(33.196334, 54.542497)">
                        <path d="M1.35426772,45.1322317 C1.35426772,45.1322317 19.6002756,-11.3058512 44.2859781,3.49440176 C60.7431132,13.3612371 47.7391674,30.7983856 5.27414072,55.8058474 C2.66089206,48.6901036 1.35426772,45.1322317 1.35426772,45.1322317 Z" id="路径-13" fill="#1A77FF" transform="translate(26.267518, 28.413110) rotate(2.000000) translate(-26.267518, -28.413110) "></path>
                        <path d="M10.7330678,45.3078922 C21.6282995,23.5068118 32.1997997,12.1645002 42.4475684,11.2809573 C34.1064816,15.0642665 28.0232462,19.9554647 24.1978621,25.954552 C20.372478,31.9536394 15.6611546,39.6264553 10.0638917,48.9729999 L10.7330678,45.3078922 Z" id="路径-14" fill="#0E6CF6" transform="translate(26.255730, 30.126979) rotate(2.000000) translate(-26.255730, -30.126979) "></path>
                    </g>
                    <g id="编组-5" transform="translate(58.342119, 116.933799) rotate(21.000000) translate(-58.342119, -116.933799) translate(31.842119, 90.433799)">
                        <path d="M5.90365012,36.6556657 C5.90365012,36.6556657 23.297257,4.41780357 42.2379104,10.821736 C54.8650127,15.0910243 43.616372,25.563709 8.49198812,42.2397902 C6.76642945,38.5170405 5.90365012,36.6556657 5.90365012,36.6556657 Z" id="路径-13备份" fill="#57B3FF" transform="translate(26.575054, 26.109888) rotate(-43.000000) translate(-26.575054, -26.109888) "></path>
                        <path d="M28.7679281,9.46133307 C24.1081106,19.6716847 21.3997802,31.8229996 20.6429369,45.9152777 C22.0534163,35.5711154 23.3036616,28.6964747 24.3936727,25.2913557 C25.4836839,21.8862367 26.941769,16.6095625 28.7679281,9.46133307 Z" id="路径-15" fill="#2C9AF5" transform="translate(24.705432, 27.688305) rotate(2.000000) translate(-24.705432, -27.688305) "></path>
                    </g>
                </g>
                <g id="花" transform="translate(104.000000, 152.500000) scale(-1, 1) rotate(-315.000000) translate(-104.000000, -152.500000) translate(68.000000, 58.000000)">
                    <path d="M53.1906999,14.5193155 C38.026283,30.1029885 30.9012118,46.4004629 31.8154865,63.4117387 C33.1868985,88.9286524 44.810301,105.560434 43.7034207,127.566654 C42.5965403,149.572874 35.2355573,167.949933 37.5203116,188.235387" id="路径-17" stroke="#659CEE" stroke-width="3" stroke-linecap="round" stroke-dasharray="2,6" transform="translate(42.464102, 101.377351) rotate(-12.000000) translate(-42.464102, -101.377351) "></path>
                    <path d="M21.7974939,17.8348012 C27.4370884,17.8455233 32.0038143,15.2035872 31.9975679,11.933839 C31.9913087,8.66409081 27.414445,6.00471766 21.7748504,5.9939433 C18.0151207,5.98678643 14.6150982,7.95376944 11.5747828,11.8948923 C14.6301938,15.8476399 18.0377641,17.8276095 21.7974939,17.8348012 Z" id="椭圆形" fill="#F72F2F" transform="translate(21.786175, 11.914372) rotate(63.000000) translate(-21.786175, -11.914372) "></path>
                    <path d="M11.8382622,78.7016641 C17.3291246,78.7099907 21.7763207,76.0576197 21.7713568,72.7774079 C21.7663846,69.4971961 17.3111338,66.831293 11.8202714,66.8229349 C8.15969647,66.8173786 4.84866635,68.792128 1.88718101,72.7471832 C4.86066025,76.7112598 8.17768733,78.6960868 11.8382622,78.7016641 Z" id="椭圆形备份-4" fill="#1976FF" transform="translate(11.829269, 72.762300) rotate(20.000000) translate(-11.829269, -72.762300) "></path>
                    <path d="M37.6239085,128.620479 C41.9381575,128.627021 45.4324865,126.611393 45.4287139,124.118432 C45.4249351,121.625471 41.9244845,119.59921 37.6102355,119.592643 C34.7340695,119.588278 32.1324687,121.088958 29.8054331,124.094684 C32.141584,127.107498 34.7477425,128.616096 37.6239085,128.620479 Z" id="椭圆形备份-6" fill="#4D70B4" transform="translate(37.617074, 124.106561) rotate(20.000000) translate(-37.617074, -124.106561) "></path>
                    <path d="M43.7569691,92.469606 C48.3473368,92.4608391 52.073634,89.803088 52.0798947,86.5333398 C52.0861396,83.2635916 48.3699802,80.6200334 43.7796126,80.6287657 C40.7193674,80.6346161 37.9450615,82.6133744 35.4566949,86.5650406 C37.9299659,90.5072448 40.696724,92.4754333 43.7569691,92.469606 Z" id="椭圆形备份-5" fill="#C2DEFF" transform="translate(43.768295, 86.549186) rotate(117.000000) translate(-43.768295, -86.549186) "></path>
                    <path d="M37.1464899,47.4397607 C42.6408067,47.4284945 47.1002566,44.7619085 47.1069576,41.4837529 C47.1136434,38.2055973 42.6650457,35.557243 37.1707289,35.5684522 C33.507851,35.5759727 30.1876976,37.5613134 27.2102687,41.5244744 C30.1715382,45.4754811 33.483612,47.4472431 37.1464899,47.4397607 Z" id="椭圆形备份-3" fill="#FFBB1F" transform="translate(37.158613, 41.504106) rotate(-210.000000) translate(-37.158613, -41.504106) "></path>
                </g>
                <g id="花备份-3" transform="translate(281.137325, 89.500000) rotate(-30.000000) translate(-281.137325, -89.500000) translate(244.137325, 8.000000)">
                    <path d="M60.7598223,26.5575497 C30.3098723,27.9185054 14.3825197,41.8714312 12.9777645,68.416327 C10.8706318,108.233671 55.7796036,121.757236 21.8921837,154.35823" id="路径-17" stroke="#659CEE" stroke-width="3" stroke-linecap="round" stroke-dasharray="2,6" transform="translate(36.832638, 90.457890) rotate(-12.000000) translate(-36.832638, -90.457890) "></path>
                    <path d="M28.9591846,18.5053094 C34.5987792,18.5160315 39.165505,15.8740954 39.1592586,12.6043472 C39.1529994,9.33459898 34.5761357,6.67522583 28.9365411,6.66445147 C25.1768114,6.65729461 21.7767889,8.62427762 18.7364735,12.5654005 C21.7918845,16.5181481 25.1994548,18.4981177 28.9591846,18.5053094 Z" id="椭圆形" fill="#FFBB1F" transform="translate(28.947866, 12.584880) rotate(110.000000) translate(-28.947866, -12.584880) "></path>
                    <path d="M19.4218478,116.173394 C23.5639826,116.179703 26.9188081,114.170116 26.9150635,111.684841 C26.9113126,109.199566 23.5504108,107.179726 19.4082761,107.173394 C16.6468529,107.169184 14.1491154,108.665366 11.9150635,111.661941 C14.1581632,114.66535 16.6604246,116.169168 19.4218478,116.173394 Z" id="椭圆形备份-4" fill="#338DFF" transform="translate(19.415064, 111.673394) rotate(20.000000) translate(-19.415064, -111.673394) "></path>
                    <path d="M33.6239085,159.620479 C37.9381575,159.627021 41.4324865,157.611393 41.4287139,155.118432 C41.4249351,152.625471 37.9244845,150.59921 33.6102355,150.592643 C30.7340695,150.588278 28.1324687,152.088958 25.8054331,155.094684 C28.141584,158.107498 30.7477425,159.616096 33.6239085,159.620479 Z" id="椭圆形备份-6" fill="#4D70B4" transform="translate(33.617074, 155.106561) rotate(20.000000) translate(-33.617074, -155.106561) "></path>
                    <path d="M44.9271121,113.588813 C49.5174798,113.582149 53.2437769,111.562042 53.2500376,109.076768 C53.2562825,106.591494 49.5401232,104.582175 44.9497555,104.588813 C41.8895104,104.593259 39.1152045,106.097276 36.6268378,109.100864 C39.1001089,112.097259 41.8668669,113.593242 44.9271121,113.588813 Z" id="椭圆形备份-5" fill="#1976FF" transform="translate(44.938438, 109.088813) rotate(117.000000) translate(-44.938438, -109.088813) "></path>
                    <path d="M39.1189081,46.3566788 C44.6132249,46.3454125 49.0726749,43.6788265 49.0793758,40.400671 C49.0860617,37.1225154 44.637464,34.474161 39.1431471,34.4853703 C35.4802692,34.4928907 32.1601158,36.4782315 29.182687,40.4413925 C32.1439565,44.3923991 35.4560302,46.3641612 39.1189081,46.3566788 Z" id="椭圆形备份-3" fill="#55B2FF" transform="translate(39.131031, 40.421025) rotate(-168.000000) translate(-39.131031, -40.421025) "></path>
                </g>
                <g id="花备份-4" transform="translate(165.343335, 120.943370) scale(-1, 1) rotate(7.000000) translate(-165.343335, -120.943370) translate(118.343335, 38.443370)">
                    <path d="M79.5556989,13.5319989 C75.4134905,60.8776567 19.3198022,30.819223 15.2438764,77.407268 C11.1679506,123.995313 68.2003546,124.334928 34.3129347,156.935922" id="路径-17" stroke="#659CEE" stroke-width="3" stroke-linecap="round" stroke-dasharray="2,6" transform="translate(47.294827, 85.233960) rotate(-12.000000) translate(-47.294827, -85.233960) "></path>
                    <path d="M51.1329311,18.2958855 C56.7725256,18.3066076 61.3392515,15.6646715 61.3330051,12.3949233 C61.3267459,9.12517511 56.7498822,6.46580196 51.1102876,6.4550276 C47.3505579,6.44787073 43.9505354,8.41485374 40.91022,12.3559766 C43.965631,16.3087242 47.3732013,18.2886938 51.1329311,18.2958855 Z" id="椭圆形" fill="#328BFF" transform="translate(51.121613, 12.375457) rotate(54.000000) translate(-51.121613, -12.375457) "></path>
                    <path d="M19.3056069,121.1102 C23.4477416,121.116509 26.8025672,119.106922 26.7988226,116.621647 C26.7950717,114.136372 23.4341699,112.116533 19.2920351,112.1102 C16.530612,112.10599 14.0328744,113.602173 11.7988226,116.598747 C14.0419223,119.602157 16.5441837,121.105974 19.3056069,121.1102 Z" id="椭圆形备份-4" fill="#54B1FF" transform="translate(19.298823, 116.610200) rotate(20.000000) translate(-19.298823, -116.610200) "></path>
                    <path d="M47.6239085,161.620479 C51.9381575,161.627021 55.4324865,159.611393 55.4287139,157.118432 C55.4249351,154.625471 51.9244845,152.59921 47.6102355,152.592643 C44.7340695,152.588278 42.1324687,154.088958 39.8054331,157.094684 C42.141584,160.107498 44.7477425,161.616096 47.6239085,161.620479 Z" id="椭圆形备份-6" fill="#4D70B4" transform="translate(47.617074, 157.106561) rotate(20.000000) translate(-47.617074, -157.106561) "></path>
                    <path d="M49.0071386,115.446067 C53.5975063,115.439404 57.3238034,113.419297 57.3300641,110.934023 C57.3363091,108.448749 53.6201497,106.43943 49.029782,106.446067 C45.9695369,106.450514 43.195231,107.954531 40.7068643,110.958118 C43.1801354,113.954513 45.9468935,115.450497 49.0071386,115.446067 Z" id="椭圆形备份-5" fill="#C2DEFF" transform="translate(49.018464, 110.946067) rotate(117.000000) translate(-49.018464, -110.946067) "></path>
                    <path d="M67.8097431,45.493702 C73.3040599,45.4824358 77.7635098,42.8158498 77.7702108,39.5376942 C77.7768967,36.2595386 73.3282989,33.6111843 67.8339821,33.6223935 C64.1711042,33.629914 60.8509508,35.6152547 57.8735219,39.5784157 C60.8347915,43.5294224 64.1468652,45.5011845 67.8097431,45.493702 Z" id="椭圆形备份-3" fill="#F72F2F" transform="translate(67.821866, 39.558048) rotate(-185.000000) translate(-67.821866, -39.558048) "></path>
                </g>
                <ellipse id="椭圆形" fill="#C2DEFF" cx="196.99502" cy="274.423394" rx="132" ry="13.5"></ellipse>
                <g id="编组-8" transform="translate(98.500000, 203.500000) scale(-1, 1) translate(-98.500000, -203.500000) translate(19.000000, 111.000000)">
                    <g id="编组-6" transform="translate(74.990357, 76.761883) rotate(-369.000000) translate(-74.990357, -76.761883) translate(38.490357, 39.261883)">
                        <path d="M10.1510552,57.592465 C10.1510552,57.592465 36.0833491,1.4607708 57.7014832,8.95888774 C72.1135726,13.9576324 56.9978132,33.1053256 12.354205,66.4019675 C10.8854385,60.5289659 10.1510552,57.592465 10.1510552,57.592465 Z" id="路径-13备份" fill="#57B3FF" transform="translate(36.564139, 37.335690) rotate(-23.000000) translate(-36.564139, -37.335690) "></path>
                        <path d="M39.4418284,10.0047699 C34.7704887,24.5911627 32.3626503,42.0806724 32.2183131,62.4732991 C33.27387,47.5437441 34.3228822,37.6360562 35.3653499,32.7502354 C36.4078176,27.8644147 37.7666438,20.2825929 39.4418284,10.0047699 Z" id="路径-15" fill="#2C9AF5" transform="translate(35.830071, 36.239035) rotate(11.000000) translate(-35.830071, -36.239035) "></path>
                    </g>
                    <g id="编组-3" transform="translate(79.390904, 105.674213) rotate(-328.000000) translate(-79.390904, -105.674213) translate(21.890904, 48.174213)">
                        <path d="M13.7296553,86.9945675 C13.7296553,86.9945675 61.384171,25.3522987 90.5655021,20.6538576 C106.038698,18.1625422 106.839374,32.1210004 71.6710053,62.8235004 C63.8716678,69.632436 46.2142358,80.2226379 18.6987095,94.5941061 C15.3860067,89.527747 13.7296553,86.9945675 13.7296553,86.9945675 Z" id="路径-13备份-2" fill="#3691FF" transform="translate(57.230336, 57.482555) rotate(-43.000000) translate(-57.230336, -57.482555) "></path>
                        <path d="M61.1616126,14.977199 C56.6640793,42.1696483 54.5215545,63.2368844 54.7340383,78.1789074 C56.1344276,62.0353867 57.2617257,50.9235452 58.1159324,44.8433829 C58.970139,38.7632206 59.9853658,28.807826 61.1616126,14.977199 Z" id="路径-16" fill="#0072FB" transform="translate(57.940636, 46.578053) rotate(2.000000) translate(-57.940636, -46.578053) "></path>
                    </g>
                    <g id="编组-4" transform="translate(85.963002, 135.311299) rotate(17.000000) translate(-85.963002, -135.311299) translate(55.963002, 97.811299)">
                        <path d="M1.64256902,59.4790654 C1.64256902,59.4790654 22.0162954,-14.9748643 50.1693804,4.74016841 C68.9381037,17.8835236 54.2705724,40.8392851 6.16678652,73.6074531 C3.15064152,64.1885279 1.64256902,59.4790654 1.64256902,59.4790654 Z" id="路径-13" fill="#1A77FF" transform="translate(29.856757, 37.512406) rotate(2.000000) translate(-29.856757, -37.512406) "></path>
                        <path d="M12.2912085,59.7719659 C24.5338151,31.0365129 36.4760168,16.1181639 48.1178135,15.0169189 C38.661858,19.9619453 31.7793069,26.3854098 27.4701601,34.2873124 C23.1610134,42.1892149 17.8557267,52.2968972 11.5543002,64.6103594 L12.2912085,59.7719659 Z" id="路径-14" fill="#0E6CF6" transform="translate(29.836057, 39.813639) rotate(2.000000) translate(-29.836057, -39.813639) "></path>
                    </g>
                    <g id="编组-2" transform="translate(66.823367, 104.725973) rotate(-29.000000) translate(-66.823367, -104.725973) translate(45.823367, 78.225973)">
                        <path d="M1.15548776,42.0851147 C1.15548776,42.0851147 15.3973116,-10.599195 35.1100242,3.36035067 C48.2518327,12.6667144 37.9905823,28.90818 4.32627295,52.0847475 C2.21241616,45.4183256 1.15548776,42.0851147 1.15548776,42.0851147 Z" id="路径-13" fill="#1A77FF" transform="translate(20.900137, 26.545522) rotate(2.000000) translate(-20.900137, -26.545522) "></path>
                        <path d="M8.60903629,42.2952663 C17.1712661,21.9629611 25.5269166,11.4087041 33.6759879,10.6324952 C27.0580572,14.1294691 22.2419303,18.6733988 19.2276072,24.2642842 C16.2132842,29.8551697 12.5022456,37.0067807 8.09449168,45.7191172 L8.60903629,42.2952663 Z" id="路径-14" fill="#0E6CF6" transform="translate(20.885240, 28.175806) rotate(2.000000) translate(-20.885240, -28.175806) "></path>
                    </g>
                    <g id="编组-5" transform="translate(70.638374, 134.943485) rotate(21.000000) translate(-70.638374, -134.943485) translate(36.138374, 100.943485)">
                        <path d="M8.1697989,48.3507375 C8.1697989,48.3507375 32.4106436,6.91754327 54.9739107,13.0796931 C70.0160889,17.187793 55.297545,31.1646742 10.8182793,55.0103367 C9.05262571,50.5706039 8.1697989,48.3507375 8.1697989,48.3507375 Z" id="路径-13备份" fill="#57B3FF" transform="translate(34.422934, 33.732508) rotate(-43.000000) translate(-34.422934, -33.732508) "></path>
                        <path d="M36.5740302,11.5337615 C31.3436726,24.9946281 28.3438892,41.0326969 27.57468,59.6479679 C29.111011,45.9893121 30.4876284,36.9139082 31.7045324,32.4217563 C32.9214363,27.9296044 34.5446022,20.9669394 36.5740302,11.5337615 Z" id="路径-15" fill="#2C9AF5" transform="translate(32.074355, 35.590865) rotate(2.000000) translate(-32.074355, -35.590865) "></path>
                    </g>
                </g>
                <g id="web" transform="translate(170.495020, 65.923394)">
                    <mask id="mask-2" fill="white">
                        <use xlink:href="#path-1"></use>
                    </mask>
                    <g id="蒙版">
                        <use fill="black" fill-opacity="1" filter="url(#filter-3)" xlink:href="#path-1"></use>
                        <use fill="#FFFFFF" fill-rule="evenodd" xlink:href="#path-1"></use>
                    </g>
                    <rect id="矩形" fill="#385FBE" mask="url(#mask-2)" x="0" y="0" width="98" height="6"></rect>
                    <rect id="矩形" fill="#E0E9FF" mask="url(#mask-2)" x="9" y="42" width="25" height="17" rx="2"></rect>
                    <rect id="矩形备份-2" fill="#E0E9FF" mask="url(#mask-2)" x="37" y="42" width="25" height="17" rx="2"></rect>
                    <rect id="矩形备份-3" fill="#E0E9FF" mask="url(#mask-2)" x="64" y="42" width="25" height="17" rx="2"></rect>
                    <circle id="椭圆形" fill="#C3D4FF" mask="url(#mask-2)" cx="16.5" cy="25.5" r="7.5"></circle>
                    <rect id="矩形" fill="#C3D4FF" mask="url(#mask-2)" x="31" y="20" width="22" height="4" rx="2"></rect>
                    <rect id="矩形备份" fill="#C3D4FF" mask="url(#mask-2)" x="31" y="28" width="58" height="4" rx="2"></rect>
                    <circle id="椭圆形" fill="#B1B3F1" mask="url(#mask-2)" cx="82.5" cy="3.5" r="1.5"></circle>
                    <circle id="椭圆形备份" fill="#B1B3F1" mask="url(#mask-2)" cx="87.5" cy="3.5" r="1.5"></circle>
                    <circle id="椭圆形备份-2" fill="#B1B3F1" mask="url(#mask-2)" cx="92.5" cy="3.5" r="1.5"></circle>
                </g>
                <g id="laptop" stroke-linecap="round" stroke-dasharray="2,6" transform="translate(98.495020, 161.923394)">
                    <rect id="矩形" fill="#5C87F0" x="15" y="1.13686838e-13" width="167" height="111" rx="8"></rect>
                    <path d="M54.9718076,-2.84217094e-14 L174,-2.84217094e-14 C178.418278,-2.13848956e-14 182,3.581722 182,8 L182,75.7831226 C182.000002,77.9125226 180.651358,79.8082872 178.639719,80.5066106 C149.057109,90.7759665 120.514547,86.7705871 93.0120319,68.4904723 C66.4238573,50.8180928 52.0832295,29.797229 49.9901488,5.42788119 C49.7538331,2.67658377 51.7926348,0.254649993 54.5439328,0.0183412945 C54.6862303,0.00611937668 54.8289861,-2.83954736e-14 54.9718076,-2.84217094e-14 Z" id="矩形备份-4" fill="#385FBE"></path>
                    <rect id="矩形" fill="#F6FAFF" x="21" y="7" width="154" height="101"></rect>
                    <rect id="矩形" fill="#E0E9FF" x="37" y="64" width="39" height="26" rx="2"></rect>
                    <rect id="矩形备份-2" fill="#E0E9FF" x="80" y="64" width="39" height="26" rx="2"></rect>
                    <rect id="矩形备份-3" fill="#E0E9FF" x="123" y="64" width="39" height="26" rx="2"></rect>
                    <circle id="椭圆形" fill="#C3D4FF" cx="49" cy="38" r="12"></circle>
                    <rect id="矩形" fill="#C3D4FF" x="72" y="29" width="34" height="6" rx="3"></rect>
                    <rect id="矩形备份" fill="#C3D4FF" x="72" y="42" width="90" height="6" rx="3"></rect>
                    <path d="M8,97 L188,97 L8,97 Z M196,105 C196,109.418278 192.418278,113 188,113 L8,113 C3.581722,113 5.41083001e-16,109.418278 0,105 L196,105 Z" id="形状结合" fill="#385FBE"></path>
                </g>
                <g id="mobile" transform="translate(303.495020, 143.923394)">
                    <mask id="mask-5" fill="white">
                        <use xlink:href="#path-4"></use>
                    </mask>
                    <g id="蒙版">
                        <use fill="black" fill-opacity="1" filter="url(#filter-6)" xlink:href="#path-4"></use>
                        <use fill="#FFFFFF" fill-rule="evenodd" xlink:href="#path-4"></use>
                    </g>
                    <rect id="矩形" fill="#385FBE" mask="url(#mask-5)" x="0" y="80" width="47" height="7"></rect>
                    <rect id="矩形备份-9" fill="#385FBE" mask="url(#mask-5)" x="0" y="0" width="47" height="7"></rect>
                    <rect id="矩形" fill="#022E98" mask="url(#mask-5)" x="20" y="3" width="13" height="1" rx="0.5"></rect>
                    <rect id="矩形备份-6" fill="#022E98" mask="url(#mask-5)" x="18" y="3" width="1" height="1" rx="0.5"></rect>
                    <rect id="矩形" fill="#E0E9FF" mask="url(#mask-5)" x="6" y="34" width="16" height="10" rx="1"></rect>
                    <rect id="矩形备份-5" fill="#E0E9FF" mask="url(#mask-5)" x="25" y="34" width="16" height="10" rx="1"></rect>
                    <rect id="矩形备份-3" fill="#E0E9FF" mask="url(#mask-5)" x="6" y="47" width="16" height="10" rx="1"></rect>
                    <rect id="矩形备份-8" fill="#E0E9FF" mask="url(#mask-5)" x="6" y="61" width="16" height="10" rx="1"></rect>
                    <rect id="矩形备份-7" fill="#E0E9FF" mask="url(#mask-5)" x="25" y="47" width="16" height="10" rx="1"></rect>
                    <circle id="椭圆形" fill="#C3D4FF" mask="url(#mask-5)" cx="12" cy="22" r="6"></circle>
                    <rect id="矩形" fill="#C3D4FF" mask="url(#mask-5)" x="20" y="18" width="13" height="2" rx="1"></rect>
                    <rect id="矩形备份" fill="#C3D4FF" mask="url(#mask-5)" x="20" y="24" width="21" height="2" rx="1"></rect>
                </g>
            </g>
        </g>
    </g>
</svg>