<svg xmlns="http://www.w3.org/2000/svg" width="480" height="176" viewBox="0 0 480 176"><g opacity="0"><rect width="480" height="176"/></g><ellipse cx="236.53" cy="158.71" rx="169.47" ry="16.73" fill="#002050" opacity="0.3"/><rect x="209" y="150" width="99" height="7" fill="#a8a8a8"/><path d="M363,118.32a6.68,6.68,0,0,1-6.61,6.68H160.5a6.5,6.5,0,0,1-6.5-6.5V6.5A6.5,6.5,0,0,1,160.5,0H356.39A6.63,6.63,0,0,1,363,6.62Z" fill="#c1c1c1"/><path d="M160.5,122a3.5,3.5,0,0,1-3.5-3.5V6.5A3.5,3.5,0,0,1,160.5,3H356.39A3.62,3.62,0,0,1,360,6.62v111.7a3.7,3.7,0,0,1-3.61,3.68Z"/><rect x="254" y="125" width="8" height="25" fill="#a8a8a8"/><rect x="164" y="10" width="189" height="105" fill="#d04727"/><rect x="219" y="24" width="73" height="73" fill="#d04727"/><path d="M280.48,41H260V79h20.48A1.53,1.53,0,0,0,282,77.48v-35A1.53,1.53,0,0,0,280.48,41Z" fill="#fff"/><rect x="260" y="71" width="17" height="3" fill="#d04727"/><rect x="260" y="65" width="17" height="3" fill="#d04727"/><path d="M265,47.16a6.84,6.84,0,0,0-6.84,6.94,6.94,6.94,0,0,0,6.75,6.75A6.84,6.84,0,0,0,271.84,54H265Z" fill="#d04727"/><path d="M266,45.16V52h6.84A6.84,6.84,0,0,0,266,45.16Z" fill="#d04727"/><polygon points="259 33.6 259 86.39 228 81.17 228 38.83 259 33.6" fill="#fff"/><path d="M241,59.3V53.22l1.54-.16a4.26,4.26,0,0,1,1.39.15,2.41,2.41,0,0,1,1,.58,2.49,2.49,0,0,1,.61,1,4.57,4.57,0,0,1,.2,1.44,4.86,4.86,0,0,1-.2,1.48,2.7,2.7,0,0,1-.61,1.06,2.53,2.53,0,0,1-1,.63,4.26,4.26,0,0,1-1.39.21l-1.26-.14Zm2.35-10.47-6.35.37V70.57l4,.3v-7.6l2,.13a9.58,9.58,0,0,0,1.64-.11,7.68,7.68,0,0,0,1.49-.38,6.68,6.68,0,0,0,1.33-.67,6.76,6.76,0,0,0,1.16-1,7,7,0,0,0,1.54-2.44,7.94,7.94,0,0,0,.39-1.46,10.76,10.76,0,0,0-.34-4.82,5.17,5.17,0,0,0-3.7-3.46,9.71,9.71,0,0,0-3.13-.27" fill="#d04727"/><path d="M340.4,158a3.38,3.38,0,0,1-3.4-3.34V103.34a3.38,3.38,0,0,1,3.4-3.34h25.2a3.38,3.38,0,0,1,3.4,3.34v51.32a3.38,3.38,0,0,1-3.4,3.34Z" fill="#a8a8a8"/><path d="M339.88,101h26.25a1.84,1.84,0,0,1,1.88,1.81v52.39a1.84,1.84,0,0,1-1.87,1.81H339.88a1.84,1.84,0,0,1-1.87-1.81V102.81A1.84,1.84,0,0,1,339.88,101Z" fill="#1f1f1f"/><rect x="340" y="106" width="26" height="44" transform="translate(706 256) rotate(-180)" fill="#f8f8f8"/><rect x="340" y="106" width="26" height="44" transform="translate(706 256) rotate(-180)" fill="#2b579a"/><rect x="338" y="113" width="30" height="30" fill="none"/><path d="M356,119h6.75a1.25,1.25,0,0,1,1.25,1.25v14.5a1.25,1.25,0,0,1-1.25,1.25H356a0,0,0,0,1,0,0V119A0,0,0,0,1,356,119Z" fill="#fff"/><rect x="355" y="121" width="7" height="1" fill="#2c5898"/><rect x="355" y="124" width="7" height="1" fill="#2c5898"/><rect x="355" y="127" width="7" height="1" fill="#2c5898"/><rect x="355" y="130" width="7" height="1" fill="#2c5898"/><rect x="355" y="133" width="7" height="1" fill="#2c5898"/><polygon points="342 119.87 355 116.82 355 139.18 342 136.13 342 119.87" fill="#fff"/><path d="M353,124h-1.3l-1,5.25c0,.07,0,.14,0,.21s0,.14,0,.22,0,.15,0,.22,0,.15,0,.22h0l0-.26c0-.08,0-.16,0-.23s0-.13,0-.19l0-.16L349.21,124h-1.42l-1.07,5.14,0,.23,0,.22c0,.07,0,.14,0,.21s0,.14,0,.2h0c0-.09,0-.18,0-.26s0-.16,0-.23l0-.2,0-.17L345.3,124H344l1.9,8h1.22l1.26-5.12,0-.19c0-.06,0-.13,0-.2s0-.14,0-.22,0-.16,0-.24h0c0,.08,0,.16,0,.24s0,.15,0,.22,0,.14,0,.21l0,.19,1.19,5.13h1.41l1.8-8" fill="#2c5898"/><path d="M107,156a4,4,0,0,1-4-4V100a4,4,0,0,1,4-4H186a4,4,0,0,1,4,4v52a4,4,0,0,1-4,4Z" fill="#a8a8a8"/><rect x="122.5" y="88.5" width="47" height="74" transform="translate(271.5 -20.5) rotate(90)" fill="#3a96dd"/><rect x="104" y="97" width="85" height="58" rx="3" ry="3" fill="#1f1f1f"/><rect x="109" y="102" width="75" height="48" fill="#217346"/><rect x="131" y="110" width="32" height="32" fill="#207347"/><path d="M150,117h7.75a1.25,1.25,0,0,1,1.25,1.25v15.5a1.25,1.25,0,0,1-1.25,1.25H150a0,0,0,0,1,0,0V117A0,0,0,0,1,150,117Z" fill="#fff"/><rect x="153" y="122" width="4" height="2" fill="#207347"/><rect x="153" y="125" width="4" height="2" fill="#207347"/><rect x="153" y="128" width="4" height="2" fill="#207347"/><rect x="149" y="122" width="3" height="2" fill="#207347"/><rect x="153" y="119" width="4" height="2" fill="#207347"/><rect x="149" y="119" width="3" height="2" fill="#207347"/><rect x="149" y="125" width="3" height="2" fill="#207347"/><rect x="149" y="128" width="3" height="2" fill="#207347"/><rect x="153" y="131" width="4" height="2" fill="#207347"/><rect x="149" y="131" width="3" height="2" fill="#207347"/><polygon points="149 114 135 117.27 135 134.73 149 138 149 114" fill="#fff"/><path d="M146,121h-2l-1.74,3.05-.09.26-.07.23-.06.19,0,.16h0l-.05-.22-.06-.21-.06-.19-.07-.18L140,121h-2l3,5-3,5h2l1.81-3.31.06-.21.05-.18,0-.15,0-.12h0l0,.22,0,.18,0,.14,0,.1L144,131h2l-3-5,3-5" fill="#207347"/></svg>