<svg xmlns="http://www.w3.org/2000/svg" viewBox="0 0 511.34 288.3"><defs><style>.cls-1{fill:#1f1f1f;}.cls-2{fill:#ccc;}.cls-3{fill:#00bcf2;}.cls-4{fill:#0099bc;}.cls-5{fill:#f2f2f2;}.cls-6{fill:#006f94;}.cls-7{fill:#fff;}.cls-8{fill:none;}</style></defs><title>featureUpdate</title><g id="Layer_2" data-name="Layer 2"><g id="Layer_1-2" data-name="Layer 1"><rect class="cls-1" x="288.15" y="242.72" width="47.31" height="40.29"/><rect class="cls-1" x="232.95" y="277.43" width="157.7" height="7.89"/><path d="M119,245.71c-3.46,0-5.27-3.28-5.27-6.52V6.77A5.72,5.72,0,0,1,119,1.5H504.57a5.08,5.08,0,0,1,3.74,1.37c1.54,1.55,1.53,3.9,1.53,5.16V240.44a5.72,5.72,0,0,1-5.27,5.27Z"/><path class="cls-2" d="M504.57,3c3.77,0,3.77,3.25,3.77,5V240.44a4.26,4.26,0,0,1-3.77,3.77H119c-2.51,0-3.77-2.51-3.77-5V6.77A4.26,4.26,0,0,1,119,3H504.57m0-3H119a7.24,7.24,0,0,0-6.77,6.76V239.19c0,4.65,2.85,8,6.77,8H504.57a7.24,7.24,0,0,0,6.77-6.76V8c0-1.47,0-4.22-2-6.21A6.55,6.55,0,0,0,504.57,0Z"/><rect class="cls-3" x="122.8" y="10.15" width="378.01" height="226.52"/><polygon class="cls-4" points="122.86 226.63 122.86 236.68 500.72 236.68 500.81 226.63 122.86 226.63"/><rect class="cls-1" x="1.5" y="157.64" width="204.86" height="129.16" rx="7.81" ry="7.81"/><path class="cls-5" d="M198.55,159.14a6.3,6.3,0,0,1,6.31,6.31V279a6.3,6.3,0,0,1-6.31,6.3H9.31A6.3,6.3,0,0,1,3,279V165.45a6.3,6.3,0,0,1,6.31-6.31H198.55m0-3H9.31A9.33,9.33,0,0,0,0,165.45V279a9.32,9.32,0,0,0,9.31,9.3H198.55a9.32,9.32,0,0,0,9.31-9.3V165.45a9.33,9.33,0,0,0-9.31-9.31Z"/><rect class="cls-3" x="47.16" y="127.6" width="113.55" height="189.24" transform="translate(326.15 118.29) rotate(90)"/><rect class="cls-4" x="9.31" y="272.69" width="189.24" height="6.31"/><rect class="cls-4" x="9.31" y="165.45" width="1.58" height="107.24"/><rect class="cls-6" x="9.31" y="272.69" width="1.58" height="6.31"/><polygon class="cls-7" points="336.83 117.84 314.59 117.84 314.59 111 329.99 111 329.99 95.6 336.83 95.6 336.83 117.84"/><polygon class="cls-7" points="290.83 149.89 283.99 149.89 283.99 127.66 306.23 127.66 306.23 134.5 290.83 134.5 290.83 149.89"/><path class="cls-7" d="M291.23,118.83l-6.87-1.16a26.34,26.34,0,0,1,51.53-2.21l-6.74,1.75a19.38,19.38,0,0,0-37.92,1.62Z"/><path class="cls-7" d="M310.76,149.89A26.39,26.39,0,0,1,285.27,130l6.75-1.75a19.37,19.37,0,0,0,37.91-1.62l6.88,1.16A26.37,26.37,0,0,1,310.76,149.89Z"/><path class="cls-7" d="M366.17,70.1V176.73L257.44,161.56V85.27L366.17,70.1m7-8L250.47,79.21v88.41l122.67,17.12V62.09Z"/><polygon class="cls-7" points="116.42 218.65 105.71 218.65 105.71 215.09 112.85 215.09 112.85 207.95 116.42 207.95 116.42 218.65"/><polygon class="cls-7" points="93.22 233.82 89.66 233.82 89.66 223.12 100.36 223.12 100.36 226.68 93.22 226.68 93.22 233.82"/><path class="cls-7" d="M93.89,219.23l-3.52-.59a12.75,12.75,0,0,1,24.95-1.07l-3.45.89a9.19,9.19,0,0,0-18,.77Z"/><path class="cls-7" d="M103,233.82a12.49,12.49,0,0,1-12.34-9.34l3.46-.89a9.27,9.27,0,0,0,18-.77l3.51.59A12.63,12.63,0,0,1,103,233.82Z"/><path class="cls-7" d="M129.8,196.89v50.67l-51.74-7.22V204.11l51.74-7.22m3.57-4.1L74.49,201v42.44l58.88,8.22V192.79Z"/><rect class="cls-8" x="74.49" y="192.78" width="58.88" height="58.88"/></g></g></svg>