<?xml version="1.0" encoding="UTF-8"?>
<svg width="56px" height="56px" viewBox="0 0 56 56" version="1.1" xmlns="http://www.w3.org/2000/svg" xmlns:xlink="http://www.w3.org/1999/xlink">
    <!-- Generator: Sketch 64 (93537) - https://sketch.com -->
    <title>pdf</title>
    <desc>Created with Sketch.</desc>
    <g id="李思琪--pdf新建页面-新增编辑入口" stroke="none" stroke-width="1" fill="none" fill-rule="evenodd">
        <g id="924优化" transform="translate(-538.000000, -249.000000)">
            <g id="编组-2备份-5" transform="translate(451.000000, 229.000000)">
                <g id="pdf" transform="translate(87.000000, 20.000000)">
                    <g id="编组-2">
                        <rect id="矩形" fill-opacity="0" fill="#FFFFFF" x="0" y="0" width="56" height="56"></rect>
                        <g id="pdf_open_file" transform="translate(0.000000, 2.000000)" fill-rule="nonzero">
                            <path d="M19.3356754,18.7147644 L43.3333333,18.7147644 C44.8060927,18.7147644 46,19.9846476 46,21.551128 L46,48.4965826 C46,50.0630629 44.8060927,51.3329462 43.3333333,51.3329462 L2.66666667,51.3329462 C1.19390733,51.3329462 0,50.0630629 0,48.4965826 L0,21.551128 L0,15.1693098 C0,13.6028294 1.19390733,12.3329462 2.66666667,12.3329462 L15.7965128,12.3329462 L19.3356754,18.7147644 Z" id="合并形状" fill="#FFDBDB"></path>
                            <path d="M15.4157489,13.0420371 L2.66666667,13.0420371 C1.56209717,13.0420371 0.666666667,13.9944496 0.666666667,15.1693098 L0.666666667,48.4965826 C0.666666667,49.6714428 1.56209717,50.6238553 2.66666667,50.6238553 L43.3333333,50.6238553 C44.4379028,50.6238553 45.3333333,49.6714428 45.3333333,48.4965826 L45.3333333,21.551128 C45.3333333,20.3762678 44.4379028,19.4238553 43.3333333,19.4238553 L18.9549116,19.4238553 L15.4157489,13.0420371 Z M43.3333333,18.7147644 C44.8060927,18.7147644 46,19.9846476 46,21.551128 L46,48.4965826 C46,50.0630629 44.8060927,51.3329462 43.3333333,51.3329462 L2.66666667,51.3329462 C1.19390733,51.3329462 0,50.0630629 0,48.4965826 L0,15.1693098 C0,13.6028294 1.19390733,12.3329462 2.66666667,12.3329462 L15.7965128,12.3329462 L19.3356754,18.7147644 L43.3333333,18.7147644 Z" id="合并形状" fill="#EB5E5E"></path>
                            <path d="M8.66666667,0.332946187 L32.2857041,0.332946187 C33.0318079,0.332946187 33.7437895,0.666707871 34.2487674,1.25318811 L41.2963967,9.43829056 C41.7488817,9.9638058 42,10.6516352 42,11.3655062 L42,39.4854886 C42,41.058096 40.8060927,42.3329462 39.3333333,42.3329462 L8.66666667,42.3329462 C7.19390733,42.3329462 6,41.058096 6,39.4854886 L6,3.18040381 C6,1.60779639 7.19390733,0.332946187 8.66666667,0.332946187 Z" id="矩形" fill="#FFFFFF"></path>
                            <path d="M8.66666667,1.04481059 C7.5620972,1.04481059 6.66666667,2.00094828 6.66666667,3.18040381 L6.66666667,39.4854886 C6.66666667,40.6649441 7.5620972,41.6210818 8.66666667,41.6210818 L39.3333333,41.6210818 C40.4379028,41.6210818 41.3333333,40.6649441 41.3333333,39.4854886 L41.3333333,11.3655062 C41.3333333,10.8301029 41.1449947,10.3142309 40.8056308,9.92009448 L33.7580015,1.73499204 C33.3792681,1.29513187 32.845282,1.04481059 32.2857041,1.04481059 L8.66666667,1.04481059 Z M8.66666667,0.332946187 L32.2857041,0.332946187 C33.0318079,0.332946187 33.7437895,0.666707871 34.2487674,1.25318811 L41.2963967,9.43829056 C41.7488817,9.9638058 42,10.6516352 42,11.3655062 L42,39.4854886 C42,41.058096 40.8060927,42.3329462 39.3333333,42.3329462 L8.66666667,42.3329462 C7.19390733,42.3329462 6,41.058096 6,39.4854886 L6,3.18040381 C6,1.60779639 7.19390733,0.332946187 8.66666667,0.332946187 Z" id="矩形" fill="#EB5E5E"></path>
                            <path d="M13.7754085,10.090209 L13.7754085,12.3329462 L13,12.3329462 L13,6.33294619 L14.7058986,6.33294619 C15.3546603,6.33294619 15.8580246,6.48917447 16.2160067,6.80163568 C16.5739887,7.11409688 16.752977,7.56083225 16.752977,8.14185514 C16.752977,8.73062506 16.5436188,9.20770229 16.1248961,9.57310112 C15.7061735,9.93850002 15.182778,10.1108675 14.554694,10.090209 L13.7754085,10.090209 Z M13.7754085,7.01467633 L13.7754085,9.40847881 L14.4926613,9.40847881 C14.9656628,9.40847881 15.3249318,9.30195954 15.5704791,9.08891777 C15.8160263,8.87587605 15.9387981,8.57052084 15.9387981,8.17284287 C15.9387981,7.40072803 15.4813117,7.01467633 14.5663251,7.01467633 L13.7754085,7.01467633 Z M17.8579341,12.3329462 L17.8579341,6.33294619 L19.5715868,6.33294619 C20.481404,6.33294619 21.2380659,6.59763042 21.8415951,7.12700689 C22.4451244,7.65638335 22.7468846,8.36651181 22.7468846,9.25741356 C22.7468846,10.1870503 22.4451244,10.9320396 21.8415951,11.4924039 C21.2380659,12.0527682 20.4607266,12.3329462 19.5095541,12.3329462 L17.8579341,12.3329462 Z M18.6333426,7.0224233 L18.6333426,11.6473426 L19.5056771,11.6473426 C20.2681659,11.6473426 20.863286,11.4394686 21.2910551,11.0237144 C21.7188242,10.6079603 21.9327056,10.0256549 21.9327056,9.27678091 C21.9327056,8.52790697 21.7130088,7.96496876 21.2736084,7.58794941 C20.8342081,7.21093013 20.2565346,7.0224233 19.5405705,7.0224233 L18.6333426,7.0224233 Z M27,7.0224233 L24.6815287,7.0224233 L24.6815287,9.02887904 L26.8294101,9.02887904 L26.8294101,9.71060919 L24.6815287,9.71060919 L24.6815287,12.3329462 L23.9061202,12.3329462 L23.9061202,6.33294619 L27,6.33294619 L27,7.0224233 Z" id="PDF" fill="#F48F8F"></path>
                            <rect id="合并形状" fill="#EB5E5E" opacity="0.101074219" x="12" y="16.3329462" width="23" height="15"></rect>
                            <g id="前" transform="translate(2.000000, 23.332946)">
                                <path d="M13.7062197,-9.32587341e-15 L51.1655751,-9.32587341e-15 C52.6383345,-9.32587341e-15 53.8322418,1.23982685 53.8322418,2.76923077 C53.8322418,3.16993852 53.7485008,3.5658732 53.5868002,3.92969957 L44.0483387,25.391238 C43.6124612,26.3719623 42.6672495,27 41.6271136,27 L2.27373675e-13,27 L11.2849947,1.60876197 C11.7208721,0.628037728 12.6660839,-9.32587341e-15 13.7062197,-9.32587341e-15 Z" id="矩形" fill="#FFF3F3"></path>
                                <path d="M41.6271136,26.3076923 C42.4072155,26.3076923 43.1161243,25.836664 43.4430324,25.1011208 L52.9814939,3.63958237 C53.1027694,3.3667126 53.1655751,3.06976158 53.1655751,2.76923077 C53.1655751,1.62217783 52.2701447,0.692307692 51.1655751,0.692307692 L13.7062197,0.692307692 C12.9261178,0.692307692 12.217209,1.16333599 11.8903009,1.89887917 L1.04193954,26.3076923 L41.6271136,26.3076923 Z M13.7062197,-4.88498131e-15 L51.1655751,-4.88498131e-15 C52.6383345,-4.88498131e-15 53.8322418,1.23982685 53.8322418,2.76923077 C53.8322418,3.16993852 53.7485008,3.5658732 53.5868002,3.92969957 L44.0483387,25.391238 C43.6124612,26.3719623 42.6672495,27 41.6271136,27 L2.27373675e-13,27 L11.2849947,1.60876197 C11.7208721,0.628037728 12.6660839,-4.88498131e-15 13.7062197,-4.88498131e-15 Z" id="矩形" fill="#EB5E5E"></path>
                            </g>
                        </g>
                    </g>
                </g>
            </g>
        </g>
    </g>
</svg>