<svg xmlns="http://www.w3.org/2000/svg" viewBox="1634 1052 16 16">
  <g id="packagedeliveryBlack" transform="translate(1442 972)">
    <path id="Fill1" fill="#16c60c" d="M192.533,83.813v7.9h2.054l1.016-1.016,1.016,1.016h4.937l1.016-1.016V83.813Z"/>
    <path id="Fill2" fill="#ccc" d="M202.57,84.75h3l2.021,4.046V91.7h-4.066l-.953-.953Z"/>
    <path id="Contour" d="M16-4.812H11.906a1.443,1.443,0,0,1-.219.41,1.474,1.474,0,0,1-.324.313,1.562,1.562,0,0,1-.406.2,1.436,1.436,0,0,1-.457.074,1.436,1.436,0,0,1-.457-.074,1.562,1.562,0,0,1-.406-.2A1.474,1.474,0,0,1,9.313-4.4a1.443,1.443,0,0,1-.219-.41H4.906a1.443,1.443,0,0,1-.219.41,1.474,1.474,0,0,1-.324.313,1.562,1.562,0,0,1-.406.2,1.436,1.436,0,0,1-.457.074,1.436,1.436,0,0,1-.457-.074,1.562,1.562,0,0,1-.406-.2A1.474,1.474,0,0,1,2.313-4.4a1.443,1.443,0,0,1-.219-.41H0v-9H11v1h2.813L16-8.43Zm-15-1H2.094a1.533,1.533,0,0,1,.219-.406,1.435,1.435,0,0,1,.324-.316,1.562,1.562,0,0,1,.406-.2A1.436,1.436,0,0,1,3.5-6.812a1.436,1.436,0,0,1,.457.074,1.562,1.562,0,0,1,.406.2,1.435,1.435,0,0,1,.324.316,1.533,1.533,0,0,1,.219.406H9.094a1.436,1.436,0,0,1,.348-.559A1.436,1.436,0,0,1,10-6.719v-6.094H1Zm2.5,1a.481.481,0,0,0,.352-.148A.481.481,0,0,0,4-5.312a.481.481,0,0,0-.148-.352A.481.481,0,0,0,3.5-5.812a.481.481,0,0,0-.352.148A.481.481,0,0,0,3-5.312a.481.481,0,0,0,.148.352A.481.481,0,0,0,3.5-4.812Zm7,0a.481.481,0,0,0,.352-.148A.481.481,0,0,0,11-5.312a.481.481,0,0,0-.148-.352.481.481,0,0,0-.352-.148.481.481,0,0,0-.352.148A.481.481,0,0,0,10-5.312a.481.481,0,0,0,.148.352A.481.481,0,0,0,10.5-4.812ZM15-8.2l-1.812-3.617H11v5.094a1.436,1.436,0,0,1,.559.348,1.436,1.436,0,0,1,.348.559H15Z" transform="translate(192 97)"/>
  </g>
</svg>
