<?xml version="1.0" encoding="UTF-8"?>
<svg width="64px" height="64px" viewBox="0 0 64 64" version="1.1" xmlns="http://www.w3.org/2000/svg" xmlns:xlink="http://www.w3.org/1999/xlink">
    <!-- Generator: Sketch 59 (86127) - https://sketch.com -->
    <title>Compressor备份</title>
    <desc>Created with Sketch.</desc>
    <defs>
        <rect id="path-1" x="0" y="0" width="64" height="64" rx="6"></rect>
    </defs>
    <g id="windows端功能付费路径优化" stroke="none" stroke-width="1" fill="none" fill-rule="evenodd">
        <g id="1213优化" transform="translate(-580.000000, -615.000000)">
            <g id="Compressor备份" transform="translate(580.000000, 615.000000)">
                <g id="编组-20">
                    <g id="编组-17">
                        <g id="编组-16">
                            <g id="分组-Clipped-2">
                                <g id="分组-Clipped">
                                    <mask id="mask-2" fill="white">
                                        <use xlink:href="#path-1"></use>
                                    </mask>
                                    <use id="path-1" fill="#4DBD99" xlink:href="#path-1"></use>
                                </g>
                            </g>
                        </g>
                    </g>
                    <g id="编组-19" transform="translate(20.000000, 17.000000)">
                        <g id="编组-6">
                            <g id="编组-4" fill="#FFFFFF">
                                <path d="M21.0919322,7.66979354 C18.9750692,7.66979354 17.2570355,5.95175979 17.2570355,3.83489677 L17.2570355,0 L3.83489677,0 C1.71803375,0 0,1.71803375 0,3.83489677 L0,26.8442774 C0,28.9611404 1.71803375,30.6791742 3.83489677,30.6791742 L21.0919322,30.6791742 C23.2087952,30.6791742 24.926829,28.9611404 24.926829,26.8442774 L24.926829,7.66979354 L21.0919322,7.66979354 Z" id="Fill-7"></path>
                                <path d="M24.926829,5.75234515 L21.0919322,5.75234515 C20.0335007,5.75234515 19.1744838,4.89332828 19.1744838,3.83489677 L19.1744838,0 L24.926829,5.75234515 Z" id="Fill-9"></path>
                            </g>
                            <path d="M10.3984375,19.90625 L9.68750002,19.90625 L9.68750002,21.328125 C9.68750002,22.1134049 9.0509049,22.75 8.26562502,22.75 C7.48034514,22.75 6.84375002,22.1134049 6.84375002,21.328125 L6.84375002,19.90625 L6.13281252,19.90625 C5.56713004,19.906333 5.02459262,19.6816532 4.6245947,19.2816553 C4.22459678,18.8816574 4,18.33912 4,17.7734375 L4,13.5078125 C4.00193163,12.5970498 4.58382769,11.7887083 5.44690002,11.49785 C5.43637739,11.4573747 5.42802382,11.4163663 5.42187502,11.375 L5.42187502,0 L6.84375002,0 L6.84375002,1.421875 L8.26562502,1.421875 L8.26562502,2.84375 L6.84375002,2.84375 L6.84375002,4.265625 L8.26562502,4.265625 L8.26562502,5.6875 L6.84375002,5.6875 L6.84375002,7.109375 L8.26562502,7.109375 L8.26562502,8.53125 L6.84375002,8.53125 L6.84375002,9.953125 L8.26562502,9.953125 L8.26562502,11.375 L9.40284065,11.375 C9.55997573,11.374812 9.68731199,11.2474757 9.68750002,11.0903406 L9.68750002,9.953125 L8.26562502,9.953125 L8.26562502,8.53125 L9.68750002,8.53125 L9.68750002,7.109375 L8.26562502,7.109375 L8.26562502,5.6875 L9.68750002,5.6875 L9.68750002,4.265625 L8.26562502,4.265625 L8.26562502,2.84375 L9.68750002,2.84375 L9.68750002,1.421875 L8.26562502,1.421875 L8.26562502,0 L11.109375,0 L11.109375,11.375 C11.1032262,11.4163663 11.0948727,11.4573747 11.08435,11.49785 C11.9474224,11.7887083 12.5293184,12.5970498 12.53125,13.5078125 L12.53125,17.7734375 C12.53125,18.33912 12.3066533,18.8816574 11.9066553,19.2816553 C11.5066574,19.6816532 10.96412,19.906333 10.3984375,19.90625 Z M11.109375,13.5078125 C11.109375,13.1151726 10.7910775,12.7968748 10.3984375,12.7968748 L6.13281252,12.7968748 C5.94422201,12.7967504 5.76331987,12.8716125 5.62996621,13.0049662 C5.49661255,13.1383198 5.42175043,13.319222 5.42187487,13.5078125 L5.42187487,17.7734375 C5.42175043,17.962028 5.49661255,18.1429302 5.62996621,18.2762838 C5.76331987,18.4096375 5.94422201,18.4844996 6.13281252,18.4843752 L6.84375002,18.4843752 L6.84375002,15.9252844 C6.84363658,15.8497533 6.87359097,15.7772831 6.92699957,15.7238745 C6.98040816,15.6704659 7.05287832,15.6405116 7.1284094,15.640625 L9.40284065,15.640625 C9.47834163,15.6406099 9.55075463,15.6705959 9.60414189,15.7239831 C9.65752915,15.7773704 9.68751511,15.8497834 9.68750002,15.9252844 L9.68750002,18.4843752 L10.3984375,18.4843752 C10.7910775,18.4843752 11.109375,18.1660774 11.109375,17.7734375 L11.109375,13.5078125 Z" id="形状" fill="#4DBD99"></path>
                        </g>
                    </g>
                </g>
            </g>
        </g>
    </g>
</svg>