<?xml version="1.0" encoding="UTF-8"?>
<svg width="160px" height="160px" viewBox="0 0 160 160" version="1.1" xmlns="http://www.w3.org/2000/svg" xmlns:xlink="http://www.w3.org/1999/xlink">
    <!-- Generator: Sketch 59 (86127) - https://sketch.com -->
    <title>会员配图-PDF</title>
    <desc>Created with Sketch.</desc>
    <defs>
        <radialGradient cx="50%" cy="50%" fx="50%" fy="50%" r="39.859375%" id="radialGradient-1">
            <stop stop-color="#FA4444" offset="0%"></stop>
            <stop stop-color="#FFFFFF" stop-opacity="0" offset="100%"></stop>
        </radialGradient>
        <path d="M109.683,0 L125.682,125.021 L140.29,0 L109.683,0 Z M125.605,125.333 L200.896,24.482 L174.079,8.999 L125.605,125.333 Z M49.08,24.495 L125.59,124.643 L75.896,9.012 L49.08,24.495 Z M125.357,125.591 L240.988,75.897 L225.505,49.079 L125.357,125.591 Z M8.998,75.92 L125.333,124.395 L24.482,49.103 L8.998,75.92 Z M125.014,125.69 L250,140.469 L250,109.504 L125.014,125.69 Z M0,140.496 L124.986,124.311 L0,109.531 L0,140.496 Z M9.013,174.104 L24.495,200.92 L124.643,124.41 L9.013,174.104 Z M49.103,225.518 L75.92,241.002 L124.395,124.667 L49.103,225.518 Z M109.531,250 L140.496,250 L124.31,125.014 L109.531,250 Z M174.103,240.988 L200.92,225.505 L124.409,125.357 L174.103,240.988 Z M225.518,200.897 L241.002,174.079 L124.667,125.605 L225.518,200.897 Z" id="path-2"></path>
        <path d="M159.6526,138.6763 C159.6456,138.9453 159.6606,139.2183 159.6606,139.4943 C159.6606,142.7313 157.8596,145.5383 155.2206,146.9503 L131.0116,160.9523 C129.4576,162.0293 127.7196,162.6773 125.8306,162.6773 C123.9406,162.6773 122.2036,162.0293 120.8076,160.9523 L97.3416,147.4693 C94.2196,146.1383 91.9996,143.0773 91.9996,139.4843 C91.9996,139.3903 92.0106,139.2973 92.0136,139.2023 L92.0136,110.4693 C92.0106,110.3753 91.9996,110.2823 91.9996,110.1873 C91.9996,110.0913 92.0106,109.9993 92.0136,109.9043 L92.0136,109.1763 C92.4126,106.2313 94.2566,103.7593 96.8026,102.5533 L120.6526,88.7063 C122.2246,87.6403 123.9516,87.0003 125.8306,87.0003 C127.7096,87.0003 129.4356,87.6403 130.8276,88.7063 L155.2926,102.7473 C155.307267,102.7553 155.575933,102.910967 156.0986,103.2143 C158.2506,104.7803 159.6606,107.3053 159.6606,110.1683 C159.6606,110.6513 159.6116,111.1233 159.5346,111.5843 L159.6526,138.6763 Z" id="path-4"></path>
        <filter x="-3.0%" y="-2.6%" width="105.9%" height="105.3%" filterUnits="objectBoundingBox" id="filter-5">
            <feGaussianBlur stdDeviation="1.5" in="SourceAlpha" result="shadowBlurInner1"></feGaussianBlur>
            <feOffset dx="0" dy="1" in="shadowBlurInner1" result="shadowOffsetInner1"></feOffset>
            <feComposite in="shadowOffsetInner1" in2="SourceAlpha" operator="arithmetic" k2="-1" k3="1" result="shadowInnerInner1"></feComposite>
            <feColorMatrix values="0 0 0 0 0.925490196   0 0 0 0 0.0470588235   0 0 0 0 0.0470588235  0 0 0 0.1971524 0" type="matrix" in="shadowInnerInner1"></feColorMatrix>
        </filter>
        <path d="M129.625188,107 C128.974187,107 128.580875,107.040895 128.580875,107.040895 L120.689437,107.040895 C120.689437,107.044789 120.689437,116.888737 120.689437,124.068684 L124.734938,124.068684 L124.734938,118.738737 L124.734938,111.144 L128.580875,111.144 C128.580875,111.144 129.262875,111.103105 129.625188,111.103105 C130.58425,111.103105 133.029375,111.233579 134.982375,112.437053 C136.299875,113.249105 138.053313,114.851789 138.053313,119.350211 C138.053313,123.842789 136.2805,125.445474 134.9475,126.259474 C132.984813,127.455158 130.557125,127.587579 129.605813,127.587579 C129.284188,127.587579 128.658375,127.554474 128.658375,127.554474 L125.719188,127.554474 L124.533437,127.554474 C124.455938,127.554474 119.538562,127.519421 119.0445,127.519421 C116.859,127.519421 111,128.218526 111,135.754842 C111,143.304789 117.05275,144 119.275063,144 C119.776875,144 120.096563,143.964947 120.096563,143.964947 L124.537312,143.964947 L124.537312,139.898842 L124.537312,135.145316 L120.590625,135.145316 L120.590625,139.861842 L120.096563,139.861842 L119.885375,139.861842 L119.6955,139.883263 C119.662562,139.887158 119.515312,139.898842 119.288625,139.898842 C118.746125,139.898842 117.372438,139.830684 116.35525,139.193895 C115.940625,138.934895 114.969938,138.327316 114.969938,135.754842 C114.969938,133.160947 115.942562,132.537789 116.30875,132.304105 C117.271687,131.686789 118.575625,131.620579 119.092938,131.620579 C119.28475,131.620579 119.418437,131.630316 119.468812,131.634211 L119.6335,131.657579 L119.898938,131.657579 L120.393,131.657579 L120.590625,131.657579 L124.537312,131.657579 L128.658375,131.657579 C128.658375,131.657579 129.012937,131.690684 129.605813,131.690684 C132.6535,131.690684 142,130.759842 142,119.350211 C142,107.973684 132.779438,107 129.625188,107" id="path-6"></path>
        <filter x="-22.6%" y="-13.5%" width="145.2%" height="137.8%" filterUnits="objectBoundingBox" id="filter-7">
            <feOffset dx="0" dy="2" in="SourceAlpha" result="shadowOffsetOuter1"></feOffset>
            <feGaussianBlur stdDeviation="2" in="shadowOffsetOuter1" result="shadowBlurOuter1"></feGaussianBlur>
            <feColorMatrix values="0 0 0 0 0.756218112   0 0 0 0 0.35663027   0 0 0 0 0.0406544815  0 0 0 0.200832201 0" type="matrix" in="shadowBlurOuter1"></feColorMatrix>
        </filter>
    </defs>
    <g id="会员配图-PDF" stroke="none" stroke-width="1" fill="none" fill-rule="evenodd">
        <g id="会员配图" transform="translate(-45.000000, -45.000000)">
            <g id="Page-1">
                <mask id="mask-3" fill="white">
                    <use xlink:href="#path-2"></use>
                </mask>
                <use id="Clip-2" fill-opacity="0.2" fill="url(#radialGradient-1)" xlink:href="#path-2"></use>
            </g>
            <path d="M163.8268,109.9367 L163.8268,140.7227 L163.7888,140.7227 C163.8178,141.0287 163.8348,141.3387 163.8348,141.6537 C163.8348,145.3317 161.7898,148.5207 158.7938,150.1247 L131.3018,166.0367 L131.1218,166.0367 C129.5358,167.2607 127.5638,167.9977 125.4178,167.9977 C123.2708,167.9977 121.2988,167.2607 119.7138,166.0367 L119.5408,166.0367 L93.0658,150.7137 L93.0658,150.5807 C89.5208,149.2027 86.9998,145.7247 86.9998,141.6417 C86.9998,141.5337 87.0128,141.4287 87.0158,141.3217 L87.0158,108.6697 C87.0128,108.5627 86.9998,108.4577 86.9998,108.3487 C86.9998,108.2407 87.0128,108.1357 87.0158,108.0277 L87.0158,107.1997 L87.0748,107.1997 C87.4688,103.8537 89.5618,101.0447 92.4538,99.6747 L92.3478,99.6747 L119.5378,83.9387 L119.7428,83.9387 C121.3228,82.7277 123.2838,81.9997 125.4178,81.9997 C127.5508,81.9997 129.5128,82.7277 131.0928,83.9387 L131.3048,83.9387 L158.8738,99.8947 C158.8998,99.9087 158.9248,99.9237 158.9508,99.9387 L159.7908,100.4247 L159.7908,100.4737 C162.2338,102.2047 163.8348,105.0747 163.8348,108.3277 C163.8348,108.8767 163.7788,109.4127 163.6908,109.9367 L163.8268,109.9367 Z" id="Fill-1" fill="#F88585"></path>
            <g id="Fill-1">
                <use fill="#E35353" fill-rule="evenodd" xlink:href="#path-4"></use>
                <use fill="black" fill-opacity="1" filter="url(#filter-5)" xlink:href="#path-4"></use>
            </g>
            <g id="Page-1" transform="translate(107.000000, 102.000000)"></g>
            <path d="M95.734,96.9996 L94.3,101.3006 L90,102.7336 L94.3,104.1676 L95.734,108.4676 L97.168,104.1676 L101.468,102.7336 L97.168,101.3006 L95.734,96.9996 Z M156.796,143.1566 L154.216,144.0176 L156.796,144.8766 L157.656,147.4576 L158.515,144.8766 L161.097,144.0176 L158.515,143.1566 L157.656,140.5766 L156.796,143.1566 Z" id="Page-1" fill="#FFFFFF"></path>
            <path d="M170.231,77.0007 L168.386,82.1167 L163.185,83.7107 L168.302,85.5567 L169.896,90.7577 L171.742,85.6407 L176.943,84.0467 L171.825,82.2017 L170.232,77.0007 L170.231,77.0007 Z M76.767,86.8607 L73.733,87.7907 L76.718,88.8677 L77.647,91.9007 L78.725,88.9157 L81.759,87.9867 L78.773,86.9097 L77.844,83.8757 L76.767,86.8607 Z M71.901,158.8167 L68,160.0117 L71.838,161.3967 L73.033,165.2967 L74.418,161.4587 L78.319,160.2637 L74.481,158.8797 L73.285,154.9797 L71.901,158.8167 Z M178.119,159.5357 L174.652,160.5977 L178.063,161.8287 L179.125,165.2967 L180.355,161.8837 L183.822,160.8227 L180.411,159.5917 L179.349,156.1247 L178.119,159.5357 Z" id="Page-1" fill-opacity="0.294582201" fill="#E35353"></path>
            <g id="Fill-1">
                <use fill="black" fill-opacity="1" filter="url(#filter-7)" xlink:href="#path-6"></use>
                <use fill="#FFFFFF" fill-rule="evenodd" xlink:href="#path-6"></use>
            </g>
        </g>
    </g>
</svg>