<svg xmlns="http://www.w3.org/2000/svg" viewBox="1634 656 16 16">  <g id="personBlack" transform="translate(1442 576)">    <path id="Fill1" fill="white" d="M193.528,96h13.061l-.5-2.55-1.171-1.8-1.763-1.417-2.091-.673H198.66l-2.308.987L194.829,92l-1.076,2.059Z"/>    <circle id="Fill2" fill="white" cx="4.5" cy="4.5" r="4.5" transform="translate(195.5 80.5)"/>    <path fill="black" d="M10.453-7.6a6.693,6.693,0,0,1,1.918,1.027,6.785,6.785,0,0,1,1.453,1.527,6.964,6.964,0,0,1,.918,1.9A7.2,7.2,0,0,1,15.063-1h-1a6.127,6.127,0,0,0-.457-2.379,5.824,5.824,0,0,0-1.262-1.9,5.824,5.824,0,0,0-1.9-1.262A6.127,6.127,0,0,0,8.063-7a6.089,6.089,0,0,0-1.609.211,6.029,6.029,0,0,0-1.441.6,5.85,5.85,0,0,0-1.211.93,5.85,5.85,0,0,0-.93,1.211,6.029,6.029,0,0,0-.6,1.441A6.089,6.089,0,0,0,2.063-1h-1a7.031,7.031,0,0,1,.328-2.152,6.963,6.963,0,0,1,.93-1.887A6.865,6.865,0,0,1,3.777-6.555a7.09,7.09,0,0,1,1.91-1.039,4.913,4.913,0,0,1-1.094-.8A4.964,4.964,0,0,1,3.77-9.434a5.121,5.121,0,0,1-.523-1.227A4.922,4.922,0,0,1,3.063-12a4.889,4.889,0,0,1,.391-1.949,5.03,5.03,0,0,1,1.07-1.59,5.03,5.03,0,0,1,1.59-1.07A4.889,4.889,0,0,1,8.063-17a4.889,4.889,0,0,1,1.949.391,5.03,5.03,0,0,1,1.59,1.07,5.03,5.03,0,0,1,1.07,1.59A4.889,4.889,0,0,1,13.063-12a4.88,4.88,0,0,1-.184,1.336,5.066,5.066,0,0,1-.523,1.219,5.172,5.172,0,0,1-.82,1.043A4.837,4.837,0,0,1,10.453-7.6ZM4.063-12a3.851,3.851,0,0,0,.316,1.555,4.081,4.081,0,0,0,.859,1.27,4.081,4.081,0,0,0,1.27.859A3.851,3.851,0,0,0,8.063-8a3.851,3.851,0,0,0,1.555-.316,4.081,4.081,0,0,0,1.27-.859,4.081,4.081,0,0,0,.859-1.27A3.851,3.851,0,0,0,12.063-12a3.851,3.851,0,0,0-.316-1.555,4.081,4.081,0,0,0-.859-1.27,4.081,4.081,0,0,0-1.27-.859A3.851,3.851,0,0,0,8.063-16a3.851,3.851,0,0,0-1.555.316,4.081,4.081,0,0,0-1.27.859,4.081,4.081,0,0,0-.859,1.27A3.851,3.851,0,0,0,4.063-12Z" transform="translate(191.938 97)"/>  </g></svg>