<?xml version="1.0" encoding="UTF-8"?>
<svg width="64px" height="64px" viewBox="0 0 64 64" version="1.1" xmlns="http://www.w3.org/2000/svg" xmlns:xlink="http://www.w3.org/1999/xlink">
    <!-- Generator: Sketch 55 (78076) - https://sketchapp.com -->
    <title>图片转pdf</title>
    <desc>Created with Sketch.</desc>
    <g id="李思琪--pdf新建页面-新增编辑入口" stroke="none" stroke-width="1" fill="none" fill-rule="evenodd">
        <g id="9.9-新增编辑入口" transform="translate(-338.000000, -615.000000)">
            <g id="编组-10" transform="translate(325.000000, 615.000000)">
                <g id="图片转pdf" transform="translate(13.000000, 0.000000)">
                    <rect id="矩形备份-2" fill="#FF5F5F" x="0" y="0" width="64" height="64" rx="6"></rect>
                    <g id="编组-7" transform="translate(16.000000, 16.000000)">
                        <g id="编组-5">
                            <path d="M10.0353134,26.5624982 C10.0283043,26.5693799 10.0173445,26.5663213 10.0102079,26.5728207 L7.47194116,29.1111512 C7.31122175,29.2719389 7.07693166,29.3347701 6.85732571,29.2759769 C6.63771976,29.2171837 6.46616132,29.0456981 6.40727478,28.8261171 C6.34838825,28.6065362 6.4111199,28.3722194 6.57183933,28.2114317 L8.0206936,26.7623226 L2.54903537,26.7623226 C1.87308537,26.7623395 1.22481567,26.4938269 0.746846848,26.015858 C0.268878022,25.5378892 0.000365416845,24.8896195 0.000382317073,24.2136695 L0.000382317073,21.0276939 C0.000382317073,20.6758511 0.285607234,20.3906262 0.63745,20.3906262 C0.989292766,20.3906262 1.27451768,20.6758511 1.27451768,21.0276939 L1.27451768,24.2136695 C1.2744974,24.5516871 1.40877411,24.8758644 1.6478006,25.114867 C1.88682709,25.3538696 2.21101776,25.4881138 2.54903537,25.4880598 L8.06090061,25.4880598 L6.57177561,23.9989348 C6.32325454,23.7503785 6.32328307,23.3474177 6.57183933,23.0988966 C6.82039559,22.8503756 7.22335637,22.8504041 7.47187744,23.0989604 L10.0098256,25.6371634 C10.0170896,25.6437902 10.0283043,25.6406043 10.0353134,25.6477409 C10.2798297,25.9036402 10.2798297,26.3065988 10.0353134,26.5624982 L10.0353134,26.5624982 Z" id="路径" fill="#FFFFFF" fill-rule="nonzero"></path>
                            <path d="M21.0278213,5.64672378 C20.6758114,5.64673786 20.3904276,5.3614112 20.3903713,5.00940122 L20.3903713,6.37214238 L20.389989,2.54897165 C20.3900805,1.84511598 19.8195819,1.27444617 19.1157262,1.27432652 L2.54878049,1.27432652 C2.21075634,1.27435694 1.88658925,1.40866743 1.64759398,1.64771049 C1.40859872,1.88675355 1.27435306,2.2109475 1.27439024,2.54897165 L1.27439024,16.5670095 C1.27446062,17.270786 1.84500396,17.8412723 2.54878049,17.8412723 L10.1953768,17.8412723 L10.5608184,17.8614483 C10.912802,17.8614483 11.198141,18.1467874 11.198141,18.4987709 C11.198141,18.8507544 10.912802,19.1360934 10.5608184,19.1360934 L9.55830915,19.1162997 L2.54878049,19.1156625 C1.87281774,19.1156828 1.22453298,18.8471753 0.746543182,18.3692094 C0.268553387,17.8912435 1.35193564e-05,17.2429722 0,16.5670095 L0,2.54852561 C1.6898116e-05,1.87257561 0.268561918,1.22431934 0.746554644,0.746374416 C1.22454737,0.26842949 1.87283049,-5.07002635e-05 2.54878049,0 L19.1158537,0 C19.7917836,-2.36596367e-05 20.440038,0.268469281 20.9180046,0.74641201 C21.3959712,1.22435474 21.6644966,1.87259562 21.6645067,2.54852561 L21.6645067,5.73348171 L21.6647616,5.00940122 C21.664832,5.36126462 21.3796847,5.64658304 21.0278213,5.64672378 Z" id="路径" fill="#FFFFFF" fill-rule="nonzero"></path>
                            <polygon id="矩形" fill="#FF5F5F" points="20 5 22 5 22 6 20 6"></polygon>
                            <path d="M11.173185,18.4786585 L9.68510551,18.4786585 C7.6246809,18.5054228 6.17165276,18.5054228 5.32602109,18.4786585 C3.66755539,18.4261681 1.76795822,18.8424208 1.25588268,17.4640458 C0.648503172,15.8291373 0.648503172,13.0960123 0.874636766,8.92060231 C0.953721489,7.46035425 1.08080346,4.92593981 1.25588268,1.31735899 C2.44418552,1.19821241 4.36186705,1.07041968 7.00892727,0.933980802 C10.9795176,0.72932248 20.1856493,0.550602611 20.3903076,0.933980802 C20.5267465,1.18956626 20.7686329,2.544906 21.1159668,5 C19.476447,4.87231266 17.0340066,4.90488167 13.7886457,5.09770701 C10.5432847,5.29053236 9.67146453,9.75084953 11.173185,18.4786585 Z" id="路径-2" fill="#FFFFFF"></path>
                            <path d="M11.8709005,10.8489423 C11.9556115,11.0625985 12,11.3020815 12,11.5454546 C12,12.3487778 11.5266364,13 10.9427128,13 L2.0573816,13 C1.8418601,13 1.63148583,12.9093877 1.45444388,12.740303 C0.974775035,12.282193 0.855870989,11.3758696 1.1888642,10.715973 L4.07322614,5 L7.53343875,10.0909091 L10.4169493,7.18181822 L11.8709005,10.8489423 Z M9,7 C7.8954305,7 7,6.1045695 7,5 C7,3.8954305 7.8954305,3 9,3 C10.1045695,3 11,3.8954305 11,5 C11,6.1045695 10.1045695,7 9,7 Z" id="合并形状" fill="#FF5F5F" fill-rule="nonzero"></path>
                            <path d="M30.5854933,10.599486 L30.5854933,28.0364579 C30.5853948,29.4440903 29.4443452,30.585197 28.0367128,30.5853659 L12.743775,30.5853659 C11.3361486,30.5852321 10.1951149,29.4440843 10.195122,28.0364579 L10.195122,8.92073171 C10.1950577,8.24475549 10.4635511,7.59644519 10.9415265,7.11844587 C11.4195019,6.64044655 12.0677988,6.37192079 12.743775,6.37195122 L26.3295396,6.37195122 L30.5854933,10.599486 Z" id="路径" opacity="0.1" fill-rule="nonzero"></path>
                        </g>
                        <g id="编组-6" transform="translate(12.073171, 6.439024)" fill="#FFFFFF">
                            <path d="M7.40503902,17.7073171 L6.43918537,17.7073171 C5.47333171,17.7073171 4.82942927,18.3512195 4.82942927,19.3170732 C4.82942927,20.2829268 5.47333171,20.9268293 6.43918537,20.9268293 L7.40503902,20.9268293 C7.72699024,20.9268293 8.04894146,20.604878 8.04894146,20.2829268 L8.04894146,18.3512195 C8.04894146,18.0292683 7.72699024,17.7073171 7.40503902,17.7073171" id="Fill-3"></path>
                            <path d="M10.4634146,8.04878049 L10.302439,8.04878049 C9.9804878,8.04878049 9.65853659,8.37073171 9.65853659,8.53170732 L9.65853659,15.4536585 C9.65853659,15.7756098 9.9804878,16.097561 10.302439,16.097561 L10.4634146,16.097561 C12.7170732,16.097561 14.4878049,14.3268293 14.4878049,12.0731707 C14.4878049,9.8195122 12.7170732,8.04878049 10.4634146,8.04878049" id="Fill-5"></path>
                            <g id="编组-4">
                                <path d="M10.4634146,17.7073171 L9.65853659,17.7073171 L9.65853659,20.9268293 C9.65853659,21.8926829 9.01463415,22.5365854 8.04878049,22.5365854 L6.43902439,22.5365854 C4.66829268,22.5365854 3.2195122,21.0878049 3.2195122,19.3170732 C3.2195122,17.5463415 4.66829268,16.097561 6.43902439,16.097561 L8.04878049,16.097561 L8.04878049,8.04878049 C8.04878049,7.24390244 8.69268293,6.43902439 9.65853659,6.43902439 L10.4634146,6.43902439 C13.5219512,6.43902439 16.097561,9.01463415 16.097561,12.0731707 C16.097561,15.1317073 13.5219512,17.7073171 10.4634146,17.7073171 Z M17.7073171,6.43902439 C15.9301463,6.43902439 14.4878049,4.99668293 14.4878049,3.2195122 L14.4878049,0 L3.2195122,0 C1.44234146,0 0,1.44234146 0,3.2195122 L0,22.5365854 C0,24.3137561 1.44234146,25.7560976 3.2195122,25.7560976 L17.7073171,25.7560976 C19.4844878,25.7560976 20.9268293,24.3137561 20.9268293,22.5365854 L20.9268293,6.43902439 L17.7073171,6.43902439 Z" id="Fill-7"></path>
                                <path d="M20.9268293,4.82926829 L17.7073171,4.82926829 C16.8187317,4.82926829 16.097561,4.10809756 16.097561,3.2195122 L16.097561,0 L20.9268293,4.82926829 Z" id="Fill-9"></path>
                            </g>
                        </g>
                    </g>
                </g>
            </g>
        </g>
    </g>
</svg>