<svg xmlns="http://www.w3.org/2000/svg" viewBox="1634 296 16 16">
  <g id="pillBlack" transform="translate(1442 216)">
    <path id="Fill1" fill="#f03a17" d="M197.592,85.507l4.995,4.995,4.261-4.261.773-1.9-.467-2-.866-1.031-1.337-.683h-1.778l-1.417.683Z"/>
    <path id="Fill2" fill="#fce100" d="M202.606,90.5l-4.389,4.389-1.667.682h-1.68l-1.191-.843-.953-1.354-.294-1.756.468-1.376.779-.867,3.938-3.938Z"/>
    <path id="Contour" d="M12-11.5a.481.481,0,0,1,.352.148A.481.481,0,0,1,12.5-11a.481.481,0,0,1-.148.352A.481.481,0,0,1,12-10.5a.481.481,0,0,1-.352-.148A.481.481,0,0,1,11.5-11a.481.481,0,0,1,.148-.352A.481.481,0,0,1,12-11.5ZM10.5-10a.481.481,0,0,1,.352.148A.481.481,0,0,1,11-9.5a.481.481,0,0,1-.148.352A.481.481,0,0,1,10.5-9a.481.481,0,0,1-.352-.148A.481.481,0,0,1,10-9.5a.483.483,0,0,1,.145-.355A.483.483,0,0,1,10.5-10ZM9-11.5a.481.481,0,0,1,.352.148A.481.481,0,0,1,9.5-11a.481.481,0,0,1-.148.352A.481.481,0,0,1,9-10.5a.481.481,0,0,1-.352-.148A.481.481,0,0,1,8.5-11a.481.481,0,0,1,.148-.352A.481.481,0,0,1,9-11.5ZM11.961-17a3.954,3.954,0,0,1,1.574.316,4.058,4.058,0,0,1,1.285.863,4.058,4.058,0,0,1,.863,1.285A3.954,3.954,0,0,1,16-12.961a4.006,4.006,0,0,1-.3,1.543,3.983,3.983,0,0,1-.875,1.309L6.891-2.18A3.983,3.983,0,0,1,5.582-1.3,4.006,4.006,0,0,1,4.039-1a3.954,3.954,0,0,1-1.574-.316A4.058,4.058,0,0,1,1.18-2.18,4.058,4.058,0,0,1,.316-3.465,3.954,3.954,0,0,1,0-5.039,4.006,4.006,0,0,1,.3-6.582,3.983,3.983,0,0,1,1.18-7.891l7.93-7.93a3.983,3.983,0,0,1,1.309-.875A4.006,4.006,0,0,1,11.961-17ZM4.039-2A2.991,2.991,0,0,0,5.2-2.227a3.016,3.016,0,0,0,.984-.664L9.8-6.516,5.516-10.8,1.891-7.18a3.017,3.017,0,0,0-.66.984A3,3,0,0,0,1-5.031a2.949,2.949,0,0,0,.238,1.184,3.033,3.033,0,0,0,.652.961,3.114,3.114,0,0,0,.965.648A2.949,2.949,0,0,0,4.039-2Zm10.07-8.82a3.029,3.029,0,0,0,.66-.98,2.975,2.975,0,0,0,.23-1.16,2.949,2.949,0,0,0-.238-1.184,3.08,3.08,0,0,0-.652-.965,3.08,3.08,0,0,0-.965-.652A2.949,2.949,0,0,0,11.961-16a2.975,2.975,0,0,0-1.16.23,3.029,3.029,0,0,0-.98.66l-3.6,3.594,4.3,4.3Z" transform="translate(192 97)"/>
  </g>
</svg>
