<?xml version="1.0" encoding="UTF-8"?>
<svg width="24px" height="30px" viewBox="0 0 24 30" version="1.1" xmlns="http://www.w3.org/2000/svg" xmlns:xlink="http://www.w3.org/1999/xlink">
    <!-- Generator: Sketch 55.2 (78181) - https://sketchapp.com -->
    <title>planning and design</title>
    <desc>Created with Sketch.</desc>
    <g id="Page-1" stroke="none" stroke-width="1" fill="none" fill-rule="evenodd">
        <g id="planning-and-design" transform="translate(-1.000000, 0.000000)" fill-rule="nonzero">
            <path d="M22.88,30 L3.12,30 C1.91424406,29.9619101 0.966347631,28.9558879 1,27.75 L1,6.75 C0.966347631,5.54411206 1.91424406,4.5380899 3.12,4.5 L4.53,4.5 C4.94421356,4.5 5.28,4.83578644 5.28,5.25 C5.28,5.66421356 4.94421356,6 4.53,6 L3.12,6 C2.9263677,6.00523227 2.74275362,6.08720766 2.60958746,6.22787613 C2.47642131,6.3685446 2.40462239,6.55637168 2.41,6.75 L2.41,27.75 C2.40462239,27.9436283 2.47642131,28.1314554 2.60958746,28.2721239 C2.74275362,28.4127923 2.9263677,28.4947677 3.12,28.5 L22.88,28.5 C23.0736323,28.4947677 23.2572464,28.4127923 23.3904125,28.2721239 C23.5235787,28.1314554 23.5953776,27.9436283 23.59,27.75 L23.59,6.75 C23.5953776,6.55637168 23.5235787,6.3685446 23.3904125,6.22787613 C23.2572464,6.08720766 23.0736323,6.00523227 22.88,6 L21.47,6 C21.0557864,6 20.72,5.66421356 20.72,5.25 C20.72,4.83578644 21.0557864,4.5 21.47,4.5 L22.88,4.5 C24.0857559,4.5380899 25.0336524,5.54411206 25,6.75 L25,27.75 C25.0336524,28.9558879 24.0857559,29.9619101 22.88,30 L22.88,30 Z" id="Path" fill="#004680"></path>
            <path d="M18.65,7.5 L7.35,7.5 C6.95071624,7.48373669 6.63872057,7.14945562 6.65,6.75 C6.56573594,5.39543882 7.26551261,4.11251493 8.45,3.45 C8.79061194,3.27380677 9.15410375,3.1459115 9.53,3.07 C9.7870138,1.33943443 11.2510117,0.0441970479 13,-4.4408921e-16 C14.7489883,0.0441970479 16.2129862,1.33943443 16.47,3.07 C16.8458962,3.1459115 17.2093881,3.27380677 17.55,3.45 C18.7227476,4.10433095 19.4209973,5.36893873 19.35,6.71 L19.35,6.71 C19.3612794,7.10945562 19.0492838,7.44373669 18.65,7.46 L18.65,7.5 Z M8.14,6 L17.86,6 C17.7497484,5.50168971 17.438538,5.0710613 17,4.81 C16.6471815,4.62469792 16.2580717,4.51888735 15.86,4.5 C15.4607162,4.48373669 15.1487206,4.14945562 15.16,3.75 C15.1761123,3.16401944 14.9566292,2.5960397 14.5506656,2.17316099 C14.1447021,1.75028227 13.58615,1.50780869 13,1.5 C11.7942441,1.5380899 10.8463476,2.54411206 10.88,3.75 C10.8912794,4.14945562 10.5792838,4.48373669 10.18,4.5 C9.76846647,4.51401581 9.36528376,4.61993669 9,4.81 C8.55979911,5.06923935 8.24799981,5.50068256 8.14,6 Z" id="Shape" fill="#004680"></path>
            <path d="M13,4.5 C12.8099095,4.49977642 12.6285906,4.41999609 12.5,4.28 C12.2180928,3.98289662 12.2180928,3.51710338 12.5,3.22 C12.6287436,3.08032507 12.8100421,3.00086874 13,3.00086874 C13.1899579,3.00086874 13.3712564,3.08032507 13.5,3.22 C13.7819072,3.51710338 13.7819072,3.98289662 13.5,4.28 C13.3700057,4.41802167 13.1895832,4.49740756 13,4.5 L13,4.5 Z" id="Path" fill="#004680"></path>
            <path d="M20.06,12 L5.94,12 C5.52578644,12 5.19,11.6642136 5.19,11.25 C5.19,10.8357864 5.52578644,10.5 5.94,10.5 L20.06,10.5 C20.4742136,10.5 20.81,10.8357864 20.81,11.25 C20.81,11.6642136 20.4742136,12 20.06,12 Z" id="Path" fill="#2080FB"></path>
            <path d="M17.24,16.5 L5.94,16.5 C5.52578644,16.5 5.19,16.1642136 5.19,15.75 C5.19,15.3357864 5.52578644,15 5.94,15 L17.24,15 C17.6542136,15 17.99,15.3357864 17.99,15.75 C17.99,16.1642136 17.6542136,16.5 17.24,16.5 L17.24,16.5 Z" id="Path" fill="#2080FB"></path>
            <path d="M20.06,19.5 L5.94,19.5 C5.52578644,19.5 5.19,19.1642136 5.19,18.75 C5.19,18.3357864 5.52578644,18 5.94,18 L20.06,18 C20.4742136,18 20.81,18.3357864 20.81,18.75 C20.81,19.1642136 20.4742136,19.5 20.06,19.5 Z" id="Path" fill="#2080FB"></path>
            <path d="M20.06,22.5 L5.94,22.5 C5.52578644,22.5 5.19,22.1642136 5.19,21.75 C5.19,21.3357864 5.52578644,21 5.94,21 L20.06,21 C20.4742136,21 20.81,21.3357864 20.81,21.75 C20.81,22.1642136 20.4742136,22.5 20.06,22.5 Z" id="Path" fill="#2080FB"></path>
            <path d="M13,25.5 L5.94,25.5 C5.52578644,25.5 5.19,25.1642136 5.19,24.75 C5.19,24.3357864 5.52578644,24 5.94,24 L13,24 C13.4142136,24 13.75,24.3357864 13.75,24.75 C13.75,25.1642136 13.4142136,25.5 13,25.5 Z" id="Path" fill="#2080FB"></path>
        </g>
    </g>
</svg>