<svg xmlns="http://www.w3.org/2000/svg" viewBox="1754 116 16 16">
  <g id="planeWhite" transform="translate(1562 36)">
    <path id="Fill1" fill="#038387" d="M196.727,80.765l2.258,6.021H196l-.881-1.35H192.78L193.534,88l-.861,2.528h2.447L196,89.171h2.984L196.727,96h2.258l3.24-6.829h4.288L208,88l-1.488-1.591h-4.288l-3.24-5.644Z"/>
    <path id="Contour" fill="#fff" d="M14-11a1.914,1.914,0,0,1,.773.16,2.048,2.048,0,0,1,.637.43,2.048,2.048,0,0,1,.43.637A1.914,1.914,0,0,1,16-9a1.905,1.905,0,0,1-.16.777,2.061,2.061,0,0,1-.43.633,2.048,2.048,0,0,1-.637.43A1.914,1.914,0,0,1,14-7H10.5l-3,6H4L6-7H4L3.5-6H0L1-9,0-12H3.5L4-11H6L4-17H7.5l3,6Zm0,3a.969.969,0,0,0,.391-.078,1.016,1.016,0,0,0,.316-.215,1.016,1.016,0,0,0,.215-.316A.969.969,0,0,0,15-9a.969.969,0,0,0-.078-.391,1.016,1.016,0,0,0-.215-.316,1.016,1.016,0,0,0-.316-.215A.969.969,0,0,0,14-10H9.883q-.773-1.5-1.508-3T6.883-16H5.391q.5,1.508.992,3t1.008,3H3.383l-.5-1H1.391q.164.5.324,1t.34,1q-.18.5-.34,1T1.391-7H2.883l.5-1H7.391Q6.875-6.5,6.383-5T5.391-2H6.883q.758-1.508,1.492-3T9.883-8Z" transform="translate(192 97)"/>
  </g>
</svg>
