<?xml version="1.0" encoding="UTF-8"?>
<svg width="64px" height="20px" viewBox="0 0 64 20" version="1.1" xmlns="http://www.w3.org/2000/svg" xmlns:xlink="http://www.w3.org/1999/xlink">
    <!-- Generator: Sketch 55.2 (78181) - https://sketchapp.com -->
    <title>Tp角标/贴边</title>
    <desc>Created with Sketch.</desc>
    <g id="Tp角标/贴边" stroke="none" stroke-width="1" fill="none" fill-rule="evenodd">
        <path d="M4,0 L64,0 L64,20 L4,20 C1.790861,20 2.705415e-16,18.209139 0,16 L0,4 C-2.705415e-16,1.790861 1.790861,4.05812251e-16 4,0 Z" id="矩形" fill="#905DFF" fill-rule="nonzero"></path>
        <g id="会员icon/方形" transform="translate(1.000000, 1.000000)">
            <g id="编组" transform="translate(1.062500, 2.833333)">
                <polygon id="路径-3" fill="#FFFFFF" opacity="0.5" points="-1.18733002e-13 3.54345004 7.43973731 12.3973827 14.875 3.54345004 12.0461413 0 2.83333333 -3.3422339e-16"></polygon>
                <path d="M10.62577,3.54345004 C10.62577,3.54345004 12.0424366,3.54345004 14.87577,3.54345004 L12.0461413,0 C11.0992271,2.36230003 10.62577,3.54345004 10.62577,3.54345004 Z" id="路径-17备份-2" fill="#F0E7FF" opacity="0.800000012"></path>
                <path d="M0,3.54345004 C0,3.54345004 1.41666667,3.54345004 4.25,3.54345004 L1.42037133,0 C0.473457111,2.36230003 0,3.54345004 0,3.54345004 Z" id="路径-17备份-4" fill="#F0E7FF" opacity="0.800000012" transform="translate(2.125000, 1.771725) scale(-1, 1) translate(-2.125000, -1.771725) "></path>
                <path d="M4.25076996,3.54345004 C4.25076996,3.54345004 6.37576996,3.54345004 10.62577,3.54345004 L8.49985575,-4.4408921e-16 L6.37736702,-4.4408921e-16 C4.95963565,2.36230003 4.25076996,3.54345004 4.25076996,3.54345004 Z" id="路径-17备份-3" fill="#FFFFFF" opacity="0.800000012"></path>
                <polygon id="路径-18" fill="#FFFFFF" opacity="0.400000006" points="4.25076996 3.54345004 7.4375 12.3973827 10.62577 3.54345004"></polygon>
                <polygon id="路径-19" fill="#FFFFFF" opacity="0.600000024" points="2.83333333 0 6.37736702 0 4.25076996 3.54345004"></polygon>
                <polygon id="路径-19备份" fill="#FFFFFF" opacity="0.600000024" points="8.5 0 12.0440337 0 10.62577 3.54345004"></polygon>
            </g>
        </g>
        <path d="M22.3493652,13 L22.3493652,7.64746094 L20.4377441,7.64746094 L20.4377441,6.55761719 L25.557373,6.55761719 L25.557373,7.64746094 L23.6501465,7.64746094 L23.6501465,13 L22.3493652,13 Z M29.0905762,11.5146484 L30.3210449,11.7211914 C30.162841,12.1723655 29.9130876,12.515868 29.5717773,12.751709 C29.230467,12.98755 28.8034694,13.1054688 28.2907715,13.1054688 C27.479244,13.1054688 26.8786641,12.8403347 26.4890137,12.3100586 C26.1813949,11.8852518 26.0275879,11.3491243 26.0275879,10.7016602 C26.0275879,9.92821879 26.2297343,9.32251196 26.6340332,8.88452148 C27.0383321,8.44653101 27.5495575,8.22753906 28.1677246,8.22753906 C28.862064,8.22753906 29.4099101,8.45678482 29.8112793,8.9152832 C30.2126485,9.37378159 30.4045411,10.0761671 30.3869629,11.0224609 L27.2932129,11.0224609 C27.302002,11.3886737 27.4016104,11.673583 27.592041,11.8771973 C27.7824717,12.0808116 28.019774,12.1826172 28.3039551,12.1826172 C28.4973154,12.1826172 28.6599115,12.1298833 28.791748,12.0244141 C28.9235846,11.9189448 29.023193,11.7490246 29.0905762,11.5146484 Z M29.1608887,10.2666016 C29.1520996,9.9091779 29.0598153,9.6374521 28.8840332,9.45141602 C28.7082511,9.26537993 28.494386,9.17236328 28.2424316,9.17236328 C27.972899,9.17236328 27.750245,9.27050683 27.5744629,9.46679688 C27.3986808,9.66308692 27.3122558,9.92968582 27.3151855,10.2666016 L29.1608887,10.2666016 Z M31.3010254,8.33300781 L32.439209,8.33300781 L32.439209,8.97021484 C32.8464376,8.47509518 33.331296,8.22753906 33.8937988,8.22753906 C34.1926284,8.22753906 34.4519032,8.28906188 34.6716309,8.41210938 C34.8913585,8.53515687 35.0715325,8.72119016 35.2121582,8.97021484 C35.4172374,8.72119016 35.6384265,8.53515687 35.8757324,8.41210938 C36.1130383,8.28906188 36.3664537,8.22753906 36.6359863,8.22753906 C36.9787615,8.22753906 37.2687976,8.29711844 37.5061035,8.4362793 C37.7434094,8.57544015 37.9206537,8.77978381 38.0378418,9.04931641 C38.1228032,9.24853615 38.1652832,9.57079855 38.1652832,10.0161133 L38.1652832,13 L36.9304199,13 L36.9304199,10.3325195 C36.9304199,9.86962659 36.8879399,9.57080146 36.8029785,9.43603516 C36.6887201,9.26025303 36.5129406,9.17236328 36.2756348,9.17236328 C36.1027823,9.17236328 35.9401863,9.22509713 35.7878418,9.33056641 C35.6354973,9.43603568 35.5256351,9.59057515 35.458252,9.79418945 C35.3908688,9.99780375 35.3571777,10.3193337 35.3571777,10.7587891 L35.3571777,13 L34.1223145,13 L34.1223145,10.4423828 C34.1223145,9.98827898 34.100342,9.69531316 34.0563965,9.56347656 C34.012451,9.43163997 33.9443364,9.33349642 33.8520508,9.26904297 C33.7597652,9.20458952 33.6345223,9.17236328 33.4763184,9.17236328 C33.2858877,9.17236328 33.1145027,9.2236323 32.9621582,9.32617188 C32.8098137,9.42871145 32.7006839,9.57665919 32.6347656,9.77001953 C32.5688473,9.96337987 32.5358887,10.2841774 32.5358887,10.7324219 L32.5358887,13 L31.3010254,13 L31.3010254,8.33300781 Z M39.3605957,8.33300781 L40.5119629,8.33300781 L40.5119629,9.01855469 C40.6613777,8.78417852 40.8635241,8.59375073 41.1184082,8.44726562 C41.3732923,8.30078052 41.6560043,8.22753906 41.9665527,8.22753906 C42.5085476,8.22753906 42.968504,8.43993928 43.3464355,8.86474609 C43.7243671,9.28955291 43.9133301,9.88134386 43.9133301,10.6401367 C43.9133301,11.4194375 43.7229023,12.0251443 43.342041,12.4572754 C42.9611797,12.8894065 42.4997586,13.1054688 41.9577637,13.1054688 C41.6999499,13.1054688 41.4663096,13.0541997 41.2568359,12.9516602 C41.0473622,12.8491206 40.8269055,12.6733411 40.595459,12.4243164 L40.595459,14.7753906 L39.3605957,14.7753906 L39.3605957,8.33300781 Z M40.5822754,10.5874023 C40.5822754,11.111819 40.6862783,11.4992663 40.8942871,11.7497559 C41.102296,12.0002454 41.3557114,12.1254883 41.654541,12.1254883 C41.9416518,12.1254883 42.180419,12.0104992 42.3708496,11.7805176 C42.5612802,11.550536 42.6564941,11.1733425 42.6564941,10.6489258 C42.6564941,10.1596655 42.5583506,9.79638791 42.3620605,9.55908203 C42.1657705,9.32177616 41.9226089,9.203125 41.6325684,9.203125 C41.330809,9.203125 41.0803233,9.31957891 40.8811035,9.55249023 C40.6818838,9.78540156 40.5822754,10.1303688 40.5822754,10.5874023 Z M44.8933105,13 L44.8933105,6.55761719 L46.1281738,6.55761719 L46.1281738,13 L44.8933105,13 Z M48.3166504,9.75683594 L47.1960449,9.5546875 C47.3220221,9.10351337 47.5388168,8.76953233 47.8464355,8.55273438 C48.1540543,8.33593642 48.611081,8.22753906 49.2175293,8.22753906 C49.7683133,8.22753906 50.1784654,8.29272396 50.447998,8.4230957 C50.7175306,8.55346745 50.907226,8.71899314 51.0170898,8.91967773 C51.1269537,9.12036233 51.1818848,9.48876685 51.1818848,10.0249023 L51.1687012,11.4663086 C51.1687012,11.8764669 51.1884764,12.1789541 51.2280273,12.3737793 C51.2675783,12.5686045 51.3415522,12.7773426 51.4499512,13 L50.2282715,13 C50.1960448,12.9179683 50.1564944,12.7963875 50.1096191,12.6352539 C50.0891112,12.5620114 50.0744629,12.513672 50.0656738,12.4902344 C49.8547353,12.6953135 49.6291516,12.8491206 49.388916,12.9516602 C49.1486804,13.0541997 48.8923353,13.1054688 48.619873,13.1054688 C48.1394019,13.1054688 47.7607436,12.975099 47.4838867,12.7143555 C47.2070299,12.453612 47.0686035,12.1240254 47.0686035,11.7255859 C47.0686035,11.4619127 47.1315912,11.2268077 47.2575684,11.0202637 C47.3835456,10.8137197 47.5600575,10.6555181 47.7871094,10.5456543 C48.0141613,10.4357905 48.3415506,10.3398442 48.7692871,10.2578125 C49.3464384,10.1494135 49.7463368,10.0483403 49.9689941,9.95458984 L49.9689941,9.83154297 C49.9689941,9.59423709 49.910401,9.42504933 49.7932129,9.32397461 C49.6760248,9.22289989 49.4548356,9.17236328 49.1296387,9.17236328 C48.909911,9.17236328 48.738526,9.21557574 48.6154785,9.30200195 C48.492431,9.38842817 48.3928226,9.54003798 48.3166504,9.75683594 Z M49.9689941,10.7587891 C49.8107902,10.8115237 49.5603044,10.8745114 49.2175293,10.9477539 C48.8747541,11.0209965 48.6506353,11.0927731 48.545166,11.1630859 C48.3840324,11.2773443 48.3034668,11.4223624 48.3034668,11.5981445 C48.3034668,11.770997 48.3679193,11.9204095 48.4968262,12.0463867 C48.6257331,12.1723639 48.7897939,12.2353516 48.9890137,12.2353516 C49.211671,12.2353516 49.4240713,12.1621101 49.6262207,12.015625 C49.7756355,11.9042963 49.8737791,11.7680672 49.9206543,11.6069336 C49.952881,11.5014643 49.9689941,11.3007827 49.9689941,11.0048828 L49.9689941,10.7587891 Z M54.5393066,8.33300781 L54.5393066,9.31738281 L53.6955566,9.31738281 L53.6955566,11.1982422 C53.6955566,11.5791035 53.7036132,11.8010251 53.7197266,11.8640137 C53.7358399,11.9270023 53.7724607,11.9790037 53.8295898,12.0200195 C53.886719,12.0610354 53.9562984,12.081543 54.0383301,12.081543 C54.1525885,12.081543 54.3181142,12.0419926 54.5349121,11.9628906 L54.6403809,12.9208984 C54.35327,13.0439459 54.028078,13.1054688 53.6647949,13.1054688 C53.4421376,13.1054688 53.241456,13.0681156 53.0627441,12.9934082 C52.8840323,12.9187008 52.7529301,12.8220221 52.6694336,12.7033691 C52.5859371,12.5847162 52.5280763,12.4243174 52.4958496,12.222168 C52.4694823,12.0786126 52.4562988,11.7885764 52.4562988,11.3520508 L52.4562988,9.31738281 L51.8894043,9.31738281 L51.8894043,8.33300781 L52.4562988,8.33300781 L52.4562988,7.40576172 L53.6955566,6.68505859 L53.6955566,8.33300781 L54.5393066,8.33300781 Z M58.098877,11.5146484 L59.3293457,11.7211914 C59.1711418,12.1723655 58.9213884,12.515868 58.5800781,12.751709 C58.2387678,12.98755 57.8117701,13.1054688 57.2990723,13.1054688 C56.4875448,13.1054688 55.8869648,12.8403347 55.4973145,12.3100586 C55.1896957,11.8852518 55.0358887,11.3491243 55.0358887,10.7016602 C55.0358887,9.92821879 55.2380351,9.32251196 55.642334,8.88452148 C56.0466329,8.44653101 56.5578582,8.22753906 57.1760254,8.22753906 C57.8703648,8.22753906 58.4182109,8.45678482 58.8195801,8.9152832 C59.2209493,9.37378159 59.4128419,10.0761671 59.3952637,11.0224609 L56.3015137,11.0224609 C56.3103028,11.3886737 56.4099112,11.673583 56.6003418,11.8771973 C56.7907724,12.0808116 57.0280748,12.1826172 57.3122559,12.1826172 C57.5056162,12.1826172 57.6682122,12.1298833 57.8000488,12.0244141 C57.9318854,11.9189448 58.0314938,11.7490246 58.098877,11.5146484 Z M58.1691895,10.2666016 C58.1604003,9.9091779 58.0681161,9.6374521 57.892334,9.45141602 C57.7165519,9.26537993 57.5026868,9.17236328 57.2507324,9.17236328 C56.9811998,9.17236328 56.7585458,9.27050683 56.5827637,9.46679688 C56.4069815,9.66308692 56.3205566,9.92968582 56.3234863,10.2666016 L58.1691895,10.2666016 Z" id="Template" fill="#FFFFFF" fill-rule="nonzero" opacity="0.9"></path>
    </g>
</svg>