<?xml version="1.0" encoding="UTF-8"?>
<svg width="20px" height="16px" viewBox="0 0 20 16" version="1.1" xmlns="http://www.w3.org/2000/svg" xmlns:xlink="http://www.w3.org/1999/xlink">
    <!-- Generator: Sketch 55.2 (78181) - https://sketchapp.com -->
    <title>会员/小卡片</title>
    <desc>Created with Sketch.</desc>
    <defs>
        <linearGradient x1="50.3473279%" y1="79.2113161%" x2="77.8186793%" y2="-4.28139221%" id="linearGradient-1">
            <stop stop-color="#905DFF" offset="0%"></stop>
            <stop stop-color="#F2BEFF" offset="100%"></stop>
        </linearGradient>
        <filter x="-35.3%" y="-50.0%" width="170.6%" height="200.0%" filterUnits="objectBoundingBox" id="filter-2">
            <feGaussianBlur stdDeviation="2" in="SourceGraphic"></feGaussianBlur>
        </filter>
    </defs>
    <g id="会员/小卡片" stroke="none" stroke-width="1" fill="none" fill-rule="evenodd">
        <g id="编组-5">
            <path d="M3,1 L18,1 C19.1045695,1 20,1.8954305 20,3 L20,11 C20,12.1045695 19.1045695,13 18,13 L3,13 L3,1 Z" id="矩形备份-7" fill="url(#linearGradient-1)" fill-rule="nonzero" opacity="0.492792039" filter="url(#filter-2)" transform="translate(11.500000, 7.000000) scale(-1, 1) translate(-11.500000, -7.000000) "></path>
            <path d="M0,0 L18,0 C19.1045695,-2.02906125e-16 20,0.8954305 20,2 L20,14 C20,15.1045695 19.1045695,16 18,16 L0,16 L0,0 Z" id="矩形" fill="#905DFF" fill-rule="nonzero" transform="translate(10.000000, 8.000000) scale(-1, 1) translate(-10.000000, -8.000000) "></path>
            <g id="会员icon/方形" transform="translate(2.000000, 0.000000)">
                <g id="编组" transform="translate(1.000000, 2.666667)">
                    <polygon id="路径-3" fill="#FFFFFF" opacity="0.5" points="-1.11748708e-13 3.3350118 7.00210571 11.6681249 14 3.3350118 11.3375447 0 2.66666667 -3.1456319e-16"></polygon>
                    <path d="M10.0007247,3.3350118 C10.0007247,3.3350118 11.334058,3.3350118 14.0007247,3.3350118 L11.3375447,0 C10.4463314,2.2233412 10.0007247,3.3350118 10.0007247,3.3350118 Z" id="路径-17备份-2" fill="#F0E7FF" opacity="0.800000012"></path>
                    <path d="M0,3.3350118 C0,3.3350118 1.33333333,3.3350118 4,3.3350118 L1.33682008,0 C0.445606693,2.2233412 0,3.3350118 0,3.3350118 Z" id="路径-17备份-4" fill="#F0E7FF" opacity="0.800000012" transform="translate(2.000000, 1.667506) scale(-1, 1) translate(-2.000000, -1.667506) "></path>
                    <path d="M4.00072467,3.3350118 C4.00072467,3.3350118 6.00072467,3.3350118 10.0007247,3.3350118 L7.99986424,-4.4408921e-16 L6.00222778,-4.4408921e-16 C4.66789237,2.2233412 4.00072467,3.3350118 4.00072467,3.3350118 Z" id="路径-17备份-3" fill="#FFFFFF" opacity="0.800000012"></path>
                    <polygon id="路径-18" fill="#FFFFFF" opacity="0.400000006" points="4.00072467 3.3350118 7 11.6681249 10.0007247 3.3350118"></polygon>
                    <polygon id="路径-19" fill="#FFFFFF" opacity="0.600000024" points="2.66666667 0 6.00222778 0 4.00072467 3.3350118"></polygon>
                    <polygon id="路径-19备份" fill="#FFFFFF" opacity="0.600000024" points="8 0 11.3355611 0 10.0007247 3.3350118"></polygon>
                </g>
            </g>
        </g>
    </g>
</svg>