<svg xmlns="http://www.w3.org/2000/svg" viewBox="1634 1664 16 16">
  <g id="professionalBlack" transform="translate(1442 1583)">
    <rect id="Fill1" fill="#ccc" width="7" height="11" transform="translate(194 86)"/>
    <path id="Fill2" fill="#ccc" d="M202.486,82.727V97h4.166V86.515Z"/>
    <rect id="Fill3" fill="#fff" width="6" height="9" transform="translate(197.5 88)"/>
    <path id="Contour" d="M10.051-16.693,15.044-11.7V-1h-1V-11.278l-3-3v3.285h1V-1h-3V-4h-1v3h-3V-10.99h3v-1H2.061V-1h-1V-12.987H9.052v2h1ZM11.049-2V-9.991H6.056V-2h1V-5h3v3ZM3.06-9.991v-1h1v1Zm0,2v-1h1v1Zm0,2v-1h1v1Zm0,2V-5h1v1Zm0,2V-3h1v1Zm6.991-6.991v1h-1v-1Zm0,2v1h-1v-1Zm-2-2v1h-1v-1Zm0,2v1h-1v-1Z" transform="translate(192 98)"/>
  </g>
</svg>
