<svg xmlns="http://www.w3.org/2000/svg" viewBox="1754 1088 16 16">
  <g id="promotionWhite" transform="translate(1562 1008)">
    <path id="Fill1" fill="#ffb900" d="M192.763,89.05l5.323,5.323L204.459,88V82.517h-5.29Z"/>
    <path id="Contour" fill="#fff" d="M13-12.461a5.071,5.071,0,0,1,1.242.777,4.982,4.982,0,0,1,.945,1.07,5.007,5.007,0,0,1,.6,1.293A4.951,4.951,0,0,1,16-7.875a4.889,4.889,0,0,1-.391,1.949,5.03,5.03,0,0,1-1.07,1.59,5.03,5.03,0,0,1-1.59,1.07A4.889,4.889,0,0,1,11-2.875a5.017,5.017,0,0,1-1.582-.254A4.836,4.836,0,0,1,8-3.875l-2,2-6-6,7-7h6ZM6-3.289l6-6V-11.75a2.2,2.2,0,0,0-.344-.043l-.426-.023q-.223-.012-.441-.035a1.883,1.883,0,0,1-.395-.082.771.771,0,0,1-.285-.16A.365.365,0,0,1,10-12.375a.481.481,0,0,1,.148-.352.481.481,0,0,1,.352-.148q.383,0,.754.008a3.68,3.68,0,0,1,.746.094v-1.1H7.414l-6,6Zm5-.586a3.851,3.851,0,0,0,1.555-.316,4.081,4.081,0,0,0,1.27-.859,4.081,4.081,0,0,0,.859-1.27A3.851,3.851,0,0,0,15-7.875a3.875,3.875,0,0,0-.141-1.039,4.127,4.127,0,0,0-.4-.957,4,4,0,0,0-.629-.824A3.915,3.915,0,0,0,13-11.336v2.461L8.719-4.594A3.908,3.908,0,0,0,9.8-4.059,3.975,3.975,0,0,0,11-3.875Z" transform="translate(192 96.875)"/>
  </g>
</svg>
