<svg xmlns="http://www.w3.org/2000/svg" viewBox="1754 2024 16 16">
  <g id="repairWhite" transform="translate(1562 1943)">
    <path id="Fill1" fill="#bb9167" d="M205.406,82.026l-1.743-.551-2.02.551-1.921,1.71-.362,1.7.216,1.051L193.061,93l-.705,1.585.705,1.43,1.611.508L196,96.014l6.693-6.693h2.082l1.823-1.112.891-2.008V84.6l-.618-.869L204,86.607,202.393,85Z"/>
    <path id="Contour" fill="#fff" d="M15.078-15.281q.2.352.371.672a5.979,5.979,0,0,1,.293.648,3.957,3.957,0,0,1,.191.684A4.24,4.24,0,0,1,16-12.5a4.414,4.414,0,0,1-.16,1.191,4.513,4.513,0,0,1-.453,1.074,4.519,4.519,0,0,1-.707.914,4.519,4.519,0,0,1-.914.707,4.513,4.513,0,0,1-1.074.453A4.414,4.414,0,0,1,11.5-8q-.18,0-.363-.016t-.363-.047l-6.3,6.3a2.567,2.567,0,0,1-.855.57,2.641,2.641,0,0,1-1,.2A2.521,2.521,0,0,1,1.6-1.207,2.667,2.667,0,0,1,.77-1.77,2.667,2.667,0,0,1,.207-2.6,2.521,2.521,0,0,1,0-3.617a2.641,2.641,0,0,1,.2-1,2.567,2.567,0,0,1,.57-.855l6.3-6.3q-.031-.18-.047-.363T7-12.5a4.414,4.414,0,0,1,.16-1.191,4.513,4.513,0,0,1,.453-1.074,4.519,4.519,0,0,1,.707-.914,4.519,4.519,0,0,1,.914-.707,4.513,4.513,0,0,1,1.074-.453A4.414,4.414,0,0,1,11.5-17a4.24,4.24,0,0,1,.777.066,3.957,3.957,0,0,1,.684.191,5.979,5.979,0,0,1,.648.293q.32.168.672.371L11.2-13l.8.8ZM11.5-9a3.376,3.376,0,0,0,1.363-.277,3.566,3.566,0,0,0,1.109-.75,3.566,3.566,0,0,0,.75-1.109A3.376,3.376,0,0,0,15-12.5a3.286,3.286,0,0,0-.187-1.1L12-10.8,9.8-13l2.8-2.812A3.286,3.286,0,0,0,11.5-16a3.376,3.376,0,0,0-1.363.277,3.566,3.566,0,0,0-1.109.75,3.566,3.566,0,0,0-.75,1.109A3.376,3.376,0,0,0,8-12.5a2.964,2.964,0,0,0,.047.531q.047.258.109.516L1.477-4.766a1.625,1.625,0,0,0-.352.523A1.594,1.594,0,0,0,1-3.617a1.553,1.553,0,0,0,.129.625,1.651,1.651,0,0,0,.348.516,1.651,1.651,0,0,0,.516.348A1.553,1.553,0,0,0,2.617-2a1.594,1.594,0,0,0,.625-.125,1.625,1.625,0,0,0,.523-.352l6.688-6.68q.258.062.516.109A2.964,2.964,0,0,0,11.5-9Z" transform="translate(192 98)"/>
  </g>
</svg>
