<svg fill="none" height="20" viewBox="0 0 20 20" width="20" xmlns="http://www.w3.org/2000/svg"><path clip-rule="evenodd" d="m5.90169 4.96338h-1.52678v1.625h1.0676v4.50362c0 .641.51396 1.1607 1.14796 1.1607h3.44383v-1.625h-2.98465v-4.50361c0-.64104-.51396-1.16071-1.14796-1.16071zm10.14801 2.36786v-1.20715c0-.64104-.514-1.16071-1.148-1.16071h-5.05103c-.634 0-1.14796.51967-1.14796 1.16071v1.20715h1.60719v-.74286h1.2627v5.66432h1.6072v-5.66432h1.2627v.74286zm-13.91445 8.20046 1.49462 1.0794c.32622-.4618.63857-.7934.9273-.9977.23561-.1668.43803-.2384.62131-.2384.20574 0 .34749.0401.48174.1216.12376.075.22716.1673.47602.4189.16417.166.24135.2416.34939.338.15668.1398.31168.2579.4804.3603.4182.2537.8863.3862 1.42673.3862.54024 0 1.00843-.1324 1.42694-.3859.16888-.1022.3241-.2202.481-.3599.1084-.0964.1865-.1728.3502-.3381l.0023-.0023c.2482-.2504.3521-.343.4758-.4179.1337-.0811.2744-.1209.478-.1209.2037 0 .3444.0398.4781.1209.1237.0749.2276.1675.4758.4179l.0023.0023c.1637.1653.2418.2417.3502.3381.1569.1397.3121.2577.481.3599.4185.2535.8867.3859 1.4269.3859.5821 0 1.1449-.1992 1.6746-.5741.4766-.3373.9296-.8182 1.3687-1.4398l-1.4947-1.0794c-.3262.4618-.6385.7934-.9273.9977-.2356.1668-.438.2384-.6213.2384-.2059 0-.3483-.0402-.4832-.1219-.1244-.0753-.2286-.1681-.4774-.4192l-.0023-.0023c-.1634-.1649-.2413-.2411-.3494-.3373-.1564-.1394-.3112-.257-.4795-.3591-.4174-.2529-.8841-.3852-1.4225-.3852-.5383 0-1.005.1323-1.4224.3852-.1683.1021-.32306.2197-.47953.3591-.10806.0962-.186.1724-.34938.3373l-.00229.0023c-.24878.2511-.35304.3439-.47739.4192-.13495.0817-.27729.1219-.48325.1219-.20574 0-.34749-.0401-.48174-.1215-.12376-.0751-.22716-.1674-.47601-.419-.16418-.166-.24136-.2416-.34939-.338-.15669-.1398-.31168-.2579-.4804-.3602-.41821-.2537-.88631-.3863-1.42674-.3863-.58203 0-1.14491.1992-1.67461.5741-.47658.3374-.92954.8183-1.36862 1.4398z" fill="#fff" fill-rule="evenodd"/></svg>