<svg fill="none" height="20" viewBox="0 0 20 20" width="20" xmlns="http://www.w3.org/2000/svg"><path clip-rule="evenodd" d="m8.01653 13.5513c-.01096.1481-.01653.2978-.01653.4487 0 .1883.00867.3746.02564.5584l-3.2465-.3607c-1.01287-.1125-1.77914-.9687-1.77914-1.9878v-4.4198c0-1.0191.76627-1.87523 1.77914-1.98777l7.22086-.80232 3.4855-2.0913c.4736-.28415 1.0878-.13058 1.372.343.0932.15541.1425.33325.1425.51449v5.03651c-.3162-.18293-.6507-.33782-1-.46129v-4.57522l-3 1.8v2.51677c-.3442.05774-.6784.14477-1 .25845v-2.33525l-5 .55555v6.87658zm-2.01653-.2241v-6.65437l-1.11043.12339c-.50643.05627-.88957.48433-.88957.99388v4.4198c0 .5096.38314.9376.88957.9939zm12 .6728c0 2.2092-1.7909 4-4 4s-4-1.7908-4-4c0-2.2091 1.7909-4 4-4s4 1.7909 4 4zm-4 5c-2.7614 0-5-2.2386-5-5s2.2386-4.99999 5-4.99999 5 2.23859 5 4.99999-2.2386 5-5 5zm2.1213-2.8787c.1953-.1952.1953-.5118 0-.7071l-1.4142-1.4142 1.4142-1.4142c.1953-.1953.1953-.5118 0-.7071-.1952-.1953-.5118-.1953-.7071 0l-1.4142 1.4142-1.4142-1.4142c-.1953-.1953-.5119-.1953-.7071 0-.1953.1953-.1953.5118 0 .7071l1.4142 1.4142-1.4142 1.4142c-.1953.1953-.1953.5119 0 .7071.1952.1953.5118.1953.7071 0l1.4142-1.4142 1.4142 1.4142c.1953.1953.5119.1953.7071 0z" fill="#fff" fill-rule="evenodd"/></svg>