<svg fill="none" height="20" viewBox="0 0 20 20" width="20" xmlns="http://www.w3.org/2000/svg"><path clip-rule="evenodd" d="m10 18c4.4183 0 8-3.5817 8-8 0-4.41828-3.5817-8-8-8-4.41828 0-8 3.58172-8 8 0 4.4183 3.58172 8 8 8zm0 1c4.9706 0 9-4.0294 9-9 0-4.97056-4.0294-9-9-9-4.97056 0-9 4.02944-9 9 0 4.9706 4.02944 9 9 9zm-1.44166-12.67468c-.37195.3783-.55834.83327-.55834 1.17472 0 .27614-.22386.5-.5.5s-.5-.22386-.5-.5c0-.65957.33269-1.35449.84528-1.87582.5211-.53 1.26954-.92395 2.15472-.92395 1.1629 0 1.9389.44544 2.4107 1.05614.4536.58707.5893 1.27813.5893 1.74363 0 .71776-.1823 1.25516-.4774 1.68834-.2771.40679-.64.6974-.9403.93782l-.0197.0158c-.3213.2573-.5734.4634-.7589.7355-.1736.2544-.3037.5916-.3037 1.1225 0 .2762-.2239.5-.5.5-.27614 0-.5-.2238-.5-.5 0-.7168.18244-1.2535.47759-1.6861.27661-.40551.63901-.69557.93871-.93557l.0211-.01689c.3211-.25711.5732-.46356.7587-.73601.1737-.25502.3039-.59317.3039-1.12539 0-.30267-.0942-.76151-.3806-1.13228-.2682-.34714-.7422-.66749-1.6194-.66749-.57666 0-1.07823.25542-1.44166.62505zm1.44166 8.67468c.4142 0 .75-.3358.75-.75s-.3358-.75-.75-.75c-.41421 0-.75.3358-.75.75s.33579.75.75.75z" fill="#2f3237" fill-rule="evenodd"/></svg>