<svg width="20" height="20" viewBox="0 0 20 20" fill="none" xmlns="http://www.w3.org/2000/svg">
<path fill-rule="evenodd" clip-rule="evenodd" d="M9.92837 2.97489C9.59311 2.13675 8.40667 2.13675 8.07141 2.97489L2.53565 16.8143C2.43309 17.0707 2.5578 17.3617 2.81419 17.4642C3.07059 17.5668 3.36157 17.4421 3.46413 17.1857L5.73841 11.5H8.54405C8.70611 11.1469 8.90145 10.8122 9.12605 10.5H6.13841L8.99989 3.34628L11.1491 8.71927C11.4409 8.56137 11.7474 8.42696 12.0658 8.31857L9.92837 2.97489ZM14 10.5C13.2138 10.5 12.4882 10.7592 11.9039 11.1968L16.8032 16.0961C17.2408 15.5118 17.5 14.7862 17.5 14C17.5 12.067 15.933 10.5 14 10.5ZM10.5 14C10.5 13.2138 10.7592 12.4882 11.1968 11.9039L16.0961 16.8032C15.5118 17.2408 14.7862 17.5 14 17.5C12.067 17.5 10.5 15.933 10.5 14ZM14 18.5C15.2403 18.5 16.3633 17.9982 17.1773 17.1867L17.182 17.182L17.1867 17.1772C17.9983 16.3633 18.5 15.2402 18.5 14C18.5 11.5147 16.4853 9.5 14 9.5C11.5147 9.5 9.5 11.5147 9.5 14C9.5 16.4853 11.5147 18.5 14 18.5Z" fill="white"/>
</svg>