<svg width="20" height="20" viewBox="0 0 20 20" fill="none" xmlns="http://www.w3.org/2000/svg">
<path fill-rule="evenodd" clip-rule="evenodd" d="M15 3H5C4.44772 3 4 3.44772 4 4V16C4 16.5523 4.44772 17 5 17H8.02182C8.25163 17.359 8.51576 17.6938 8.80957 18H5C3.89543 18 3 17.1046 3 16V4C3 2.89543 3.89543 2 5 2H15C16.1046 2 17 2.89543 17 4V8.02182C16.6842 7.81967 16.3499 7.64406 16 7.49816V4C16 3.44772 15.5523 3 15 3ZM10.0343 8H6.5C6.22386 8 6 8.22386 6 8.5C6 8.77614 6.22386 9 6.5 9H8.80957C9.17489 8.61932 9.5861 8.28302 10.0343 8ZM7.49816 11H6.5C6.22386 11 6 11.2239 6 11.5C6 11.7761 6.22386 12 6.5 12H7.17393C7.25537 11.6552 7.36426 11.3211 7.49816 11ZM6 5.5C6 5.22386 6.22386 5 6.5 5H13.5C13.7761 5 14 5.22386 14 5.5C14 5.77614 13.7761 6 13.5 6H6.5C6.22386 6 6 5.77614 6 5.5ZM13.5 17C15.433 17 17 15.433 17 13.5C17 11.567 15.433 10 13.5 10C11.567 10 10 11.567 10 13.5C10 15.433 11.567 17 13.5 17ZM17.016 16.3088C17.6318 15.539 18 14.5625 18 13.5C18 11.0147 15.9853 9 13.5 9C11.0147 9 9 11.0147 9 13.5C9 15.9853 11.0147 18 13.5 18C14.5625 18 15.539 17.6318 16.3088 17.016L18.1464 18.8536C18.3417 19.0488 18.6583 19.0488 18.8536 18.8536C19.0488 18.6583 19.0488 18.3417 18.8536 18.1464L17.016 16.3088Z" fill="white"/>
</svg>