<svg fill="none" height="20" viewBox="0 0 20 20" width="20" xmlns="http://www.w3.org/2000/svg"><path clip-rule="evenodd" d="m2 10c0 4.4183 3.58172 8 8 8 4.4183 0 8-3.5817 8-8 0-4.41828-3.5817-8-8-8-4.41828 0-8 3.58172-8 8zm12.5836-5.29074-9.87434 9.87434c-1.06485-1.228-1.70926-2.8306-1.70926-4.5836 0-3.86599 3.13401-7 7-7 1.753 0 3.3556.64441 4.5836 1.70926zm-4.5836 12.29074c-1.75304 0-3.35557-.6444-4.58363-1.7093l9.87433-9.87433c1.0649 1.22806 1.7093 2.83059 1.7093 4.58363 0 3.866-3.134 7-7 7zm4.9497-11.94975.341.36612c-.1093-.12607-.223-.24819-.341-.36612z" fill="#2f3237" fill-rule="evenodd"/></svg>