<svg width="20" height="20" viewBox="0 0 20 20" fill="none" xmlns="http://www.w3.org/2000/svg">
<path fill-rule="evenodd" clip-rule="evenodd" d="M7 5.97222C7 4.33446 8.33938 3 10 3C11.6606 3 13 4.33446 13 5.97222V8H7V5.97222ZM6 8V5.97222C6 3.77468 7.79462 2 10 2C12.2054 2 14 3.77468 14 5.97222V8C15.1046 8 16 8.89543 16 10V16C16 17.1046 15.1046 18 14 18H6C4.89543 18 4 17.1046 4 16V10C4 8.89543 4.89543 8 6 8ZM5 10C5 9.44772 5.44772 9 6 9H14C14.5523 9 15 9.44772 15 10V16C15 16.5523 14.5523 17 14 17H6C5.44772 17 5 16.5523 5 16V10ZM10.5 12.8662C10.7989 12.6933 11 12.3701 11 12C11 11.4477 10.5523 11 10 11C9.44772 11 9 11.4477 9 12C9 12.3701 9.2011 12.6933 9.5 12.8662V14.5C9.5 14.7761 9.72386 15 10 15C10.2761 15 10.5 14.7761 10.5 14.5V12.8662Z" fill="#2F3237"/>
</svg>