<svg fill="none" height="20" viewBox="0 0 20 20" width="20" xmlns="http://www.w3.org/2000/svg"><path clip-rule="evenodd" d="m18 4h-16c-.55228 0-1 .44772-1 1v10c0 .5523.44772 1 1 1h16c.5523 0 1-.4477 1-1v-10c0-.55228-.4477-1-1-1zm-16-1c-1.104569 0-2 .89543-2 2v10c0 1.1046.895431 2 2 2h16c1.1046 0 2-.8954 2-2v-10c0-1.10457-.8954-2-2-2zm11 4.5c0-.27614.2239-.5.5-.5h2c.2761 0 .5.22386.5.5s-.2239.5-.5.5h-2c-.2761 0-.5-.22386-.5-.5zm.5 1.5c-.2761 0-.5.22386-.5.5s.2239.5.5.5h2c.2761 0 .5-.22386.5-.5s-.2239-.5-.5-.5zm-.5 2.5c0-.2761.2239-.5.5-.5h2c.2761 0 .5.2239.5.5s-.2239.5-.5.5h-2c-.2761 0-.5-.2239-.5-.5zm-1-5.5h5v8h-5zm-1 0c0-.55228.4477-1 1-1h5c.5523 0 1 .44772 1 1v8c0 .5523-.4477 1-1 1h-5c-.5523 0-1-.4477-1-1z" fill="#2f3237" fill-rule="evenodd"/></svg>