<svg fill="none" height="20" viewBox="0 0 20 20" width="20" xmlns="http://www.w3.org/2000/svg"><g fill="#2f3237"><path d="m9.5 6.49982c0-.27615.22386-.5.5-.5.2761 0 .5.22385.5.5v3.00018h2.998c.2765 0 .5007.22415.5007.5007 0 .2765-.2242.5006-.5007.5006h-2.998v2.9989c0 .2761-.2239.5-.5.5-.27614 0-.5-.2239-.5-.5v-2.9989h-3.00065c-.2765 0-.50065-.2241-.50065-.5006 0-.27655.22415-.5007.50065-.5007h3.00065z"/><path clip-rule="evenodd" d="m10 3c3.866 0 7 3.13401 7 7 0 3.866-3.134 7-7 7-3.86599 0-7-3.134-7-7 0-3.86599 3.13401-7 7-7zm0 1c-3.31371 0-6 2.68629-6 6 0 3.3137 2.68629 6 6 6 3.3137 0 6-2.6863 6-6 0-3.31371-2.6863-6-6-6z" fill-rule="evenodd"/></g></svg>