<svg fill="none" height="20" viewBox="0 0 20 20" width="20" xmlns="http://www.w3.org/2000/svg"><g clip-rule="evenodd" fill="#fff" fill-rule="evenodd"><path d="m10 14c2.2091 0 4-1.7909 4-4 0-2.20914-1.7909-4-4-4-2.20914 0-4 1.79086-4 4 0 2.2091 1.79086 4 4 4zm0-1c-1.65685 0-3-1.3431-3-3 0-1.65685 1.34315-3 3-3 1.6569 0 3 1.34315 3 3 0 1.6569-1.3431 3-3 3z"/><path d="m11 1c.5523 0 1 .44772 1 1l.001 1.29019c.4649.13844.9096.32388 1.3285.55081l.9131-.91207c.3906-.39052 1.0237-.39052 1.4143 0l1.4142 1.41422c.3905.39052.3905 1.02369 0 1.41421l-.912.91329c.2271.41924.4126.86428.5511 1.32959l1.2898-.00024c.5523 0 1 .44772 1 1v2c0 .5523-.4477 1-1 1l-1.2901.0008c-.1384.4648-.3238.9094-.5507 1.3283l.9119.9135c.3905.3906.3905 1.0237 0 1.4143l-1.4142 1.4142c-.3906.3905-1.0237.3905-1.4143 0l-.9133-.912c-.4188.2269-.8634.4123-1.3283.5507l-.001 1.2902c0 .5523-.4477 1-1 1h-2c-.55228 0-1-.4477-1-1l-.00005-1.2899c-.46498-.1384-.90972-.3238-1.3287-.5507l-.91389.9117c-.39052.3905-1.02369.3905-1.41421 0l-1.41422-1.4142c-.39052-.3906-.39052-1.0237 0-1.4143l.91163-.9139c-.2269-.419-.4123-.8637-.55069-1.3287h-1.28987c-.55228 0-1-.4477-1-1v-2c0-.55228.44772-1 1-1l1.29017-.00097c.13843-.4649.32386-.90954.55078-1.32843l-.91202-.91324c-.39052-.39052-.39052-1.02369 0-1.41421l1.41422-1.41422c.39052-.39052 1.02369-.39052 1.41421 0l.91307.91211c.41922-.22711.86423-.41267 1.32952-.55115l.00005-1.28989c0-.55228.44772-1 1-1zm4.9645 8.00038-.2128-.71492c-.1176-.39542-.2759-.77668-.4719-1.1385l-.355-.65544 1.4392-1.44127-1.4143-1.41421-1.441 1.43935-.6555-.35512c-.3616-.19585-.7425-.35403-1.1376-.47167l-.714-.21262-.0016-2.03598h-2l-.00007 2.03563-.71472.21271c-.39539.11768-.77664.27596-1.13844.47196l-.65557.35516-1.44095-1.43942-1.41421 1.41421 1.43926 1.4412-.35508.65546c-.19583.36152-.354.74245-.47164 1.13751l-.21262.71404-2.03596.00154v2h2.0356l.21273.7147c.11759.3952.27574.7762.47156 1.1378l.35474.655-1.43859 1.4422 1.41421 1.4143 1.44216-1.4387.65506.3548c.3616.1958.7426.354 1.13774.4716l.71472.2127.00007 2.0356h2l.0016-2.036.714-.2126c.3951-.1176.7759-.2758 1.1374-.4716l.6554-.355 1.4413 1.4392 1.4143-1.4143-1.439-1.4417.3549-.6552c.1958-.3615.354-.7424.4716-1.1374l.2126-.7142 2.0359-.0012v-2z"/></g></svg>