<svg xmlns="http://www.w3.org/2000/svg" width="24" height="24" fill="none" viewBox="0 0 24 24"><filter id="a" width="24.375" height="24.375" x="-.188" y="-.188" color-interpolation-filters="sRGB" filterUnits="userSpaceOnUse"><feFlood flood-opacity="0" result="BackgroundImageFix"/><feBlend in="SourceGraphic" in2="BackgroundImageFix" result="shape"/><feColorMatrix in="SourceAlpha" result="hardAlpha" values="0 0 0 0 0 0 0 0 0 0 0 0 0 0 0 0 0 0 127 0"/><feOffset dx=".188" dy=".188"/><feGaussianBlur stdDeviation=".094"/><feComposite in2="hardAlpha" k2="-1" k3="1" operator="arithmetic"/><feColorMatrix values="0 0 0 0 1 0 0 0 0 1 0 0 0 0 1 0 0 0 0.2 0"/><feBlend in2="shape" result="effect1_innerShadow"/><feColorMatrix in="SourceAlpha" result="hardAlpha" values="0 0 0 0 0 0 0 0 0 0 0 0 0 0 0 0 0 0 127 0"/><feOffset dx="-.188" dy="-.188"/><feGaussianBlur stdDeviation=".094"/><feComposite in2="hardAlpha" k2="-1" k3="1" operator="arithmetic"/><feColorMatrix values="0 0 0 0 0 0 0 0 0 0 0 0 0 0 0 0 0 0 0.05 0"/><feBlend in2="effect1_innerShadow" result="effect2_innerShadow"/></filter><filter id="d" width="21.469" height="19.445" x="1.635" y="3.598" color-interpolation-filters="sRGB" filterUnits="userSpaceOnUse"><feFlood flood-opacity="0" result="BackgroundImageFix"/><feColorMatrix in="SourceAlpha" values="0 0 0 0 0 0 0 0 0 0 0 0 0 0 0 0 0 0 127 0"/><feOffset dy=".469"/><feGaussianBlur stdDeviation=".375"/><feColorMatrix values="0 0 0 0 0 0 0 0 0 0 0 0 0 0 0 0 0 0 0.4 0"/><feBlend in2="BackgroundImageFix" result="effect1_dropShadow"/><feColorMatrix in="SourceAlpha" values="0 0 0 0 0 0 0 0 0 0 0 0 0 0 0 0 0 0 127 0"/><feOffset dy="1.594"/><feGaussianBlur stdDeviation="1.031"/><feColorMatrix values="0 0 0 0 0 0 0 0 0 0 0 0 0 0 0 0 0 0 0.2 0"/><feBlend in2="effect1_dropShadow" result="effect2_dropShadow"/><feBlend in="SourceGraphic" in2="effect2_dropShadow" result="shape"/></filter><filter id="e" width="8.163" height="11.969" x="12.878" y="7.418" color-interpolation-filters="sRGB" filterUnits="userSpaceOnUse"><feFlood flood-opacity="0" result="BackgroundImageFix"/><feBlend in="SourceGraphic" in2="BackgroundImageFix" result="shape"/><feColorMatrix in="SourceAlpha" result="hardAlpha" values="0 0 0 0 0 0 0 0 0 0 0 0 0 0 0 0 0 0 127 0"/><feOffset dy="-.75"/><feGaussianBlur stdDeviation=".469"/><feComposite in2="hardAlpha" k2="-1" k3="1" operator="arithmetic"/><feColorMatrix values="0 0 0 0 0 0 0 0 0 0 0 0 0 0 0 0 0 0 0.25 0"/><feBlend in2="shape" result="effect1_innerShadow"/></filter><filter id="f" width="8.03" height="12.474" x="6.88" y="3.316" color-interpolation-filters="sRGB" filterUnits="userSpaceOnUse"><feFlood flood-opacity="0" result="BackgroundImageFix"/><feBlend in="SourceGraphic" in2="BackgroundImageFix" result="shape"/><feColorMatrix in="SourceAlpha" result="hardAlpha" values="0 0 0 0 0 0 0 0 0 0 0 0 0 0 0 0 0 0 127 0"/><feOffset dy="-.75"/><feGaussianBlur stdDeviation=".469"/><feComposite in2="hardAlpha" k2="-1" k3="1" operator="arithmetic"/><feColorMatrix values="0 0 0 0 0 0 0 0 0 0 0 0 0 0 0 0 0 0 0.25 0"/><feBlend in2="shape" result="effect1_innerShadow"/></filter><filter id="g" width="11.315" height="3.273" x="3.697" y="12.555" color-interpolation-filters="sRGB" filterUnits="userSpaceOnUse"><feFlood flood-opacity="0" result="BackgroundImageFix"/><feBlend in="SourceGraphic" in2="BackgroundImageFix" result="shape"/><feColorMatrix in="SourceAlpha" result="hardAlpha" values="0 0 0 0 0 0 0 0 0 0 0 0 0 0 0 0 0 0 127 0"/><feOffset dy="-.75"/><feGaussianBlur stdDeviation=".469"/><feComposite in2="hardAlpha" k2="-1" k3="1" operator="arithmetic"/><feColorMatrix values="0 0 0 0 0 0 0 0 0 0 0 0 0 0 0 0 0 0 0.25 0"/><feBlend in2="shape" result="effect1_innerShadow"/></filter><filter id="h" width="3.478" height="4.082" x="4.792" y="15.302" color-interpolation-filters="sRGB" filterUnits="userSpaceOnUse"><feFlood flood-opacity="0" result="BackgroundImageFix"/><feBlend in="SourceGraphic" in2="BackgroundImageFix" result="shape"/><feColorMatrix in="SourceAlpha" result="hardAlpha" values="0 0 0 0 0 0 0 0 0 0 0 0 0 0 0 0 0 0 127 0"/><feOffset dy="-.75"/><feGaussianBlur stdDeviation=".469"/><feComposite in2="hardAlpha" k2="-1" k3="1" operator="arithmetic"/><feColorMatrix values="0 0 0 0 0 0 0 0 0 0 0 0 0 0 0 0 0 0 0.25 0"/><feBlend in2="shape" result="effect1_innerShadow"/></filter><linearGradient id="b" x1="12" x2="12" y1="0" y2="24" gradientUnits="userSpaceOnUse"><stop offset="0" stop-color="#1bb3f3"/><stop offset="1" stop-color="#186ce6"/></linearGradient><linearGradient id="c" x1="12" x2="12" y1="0" y2="24" gradientUnits="userSpaceOnUse"><stop offset=".328" stop-color="#fff"/><stop offset="1" stop-opacity=".1"/></linearGradient><g filter="url(#a)"><rect width="24" height="24" fill="url(#b)" rx="5.156"/><rect width="24" height="24" fill="url(#c)" fill-opacity=".2" rx="5.156"/></g><g filter="url(#d)"><g filter="url(#e)"><path fill="#fff" fill-rule="evenodd" d="M13.181 9.22a2.366 2.366 0 0 0 .004 2.327l4.077 7.2a1.259 1.259 0 1 0 2.189-1.244l-.957-1.675h1.285a1.261 1.261 0 1 0 0-2.523h-2.725l-2.848-4.988a.297.297 0 0 0-.517.002z" clip-rule="evenodd"/></g><g filter="url(#f)"><path fill="#fff" d="M14.279 4.236a1.261 1.261 0 0 0-1.723.461l-.253.438-.222-.385A1.261 1.261 0 0 0 9.896 6.01l.946 1.639.014-.008-3.976 6.887 2.185 1.261 5.676-9.831a1.261 1.261 0 0 0-.462-1.723z"/></g><g filter="url(#g)"><path fill="#fff" d="M13.1 13.305c.425 0 .817.229 1.025.599l.85 1.512a.276.276 0 0 1-.24.411H4.958a1.261 1.261 0 1 1 0-2.522z"/></g><g filter="url(#h)"><path fill="#fff" d="M8.27 16.85l-1.1 1.898a1.275 1.275 0 0 1-2.21-1.271l.559-.978a.496.496 0 0 1 .191-.195c.796-.427 2.26-.353 2.56.545z"/></g></g></svg>