<svg fill="none" height="20" viewBox="0 0 20 20" width="20" xmlns="http://www.w3.org/2000/svg"><path clip-rule="evenodd" d="m10 20c5.5228 0 10-4.4772 10-10 0-5.52285-4.4772-10-10-10-5.52285 0-10 4.47715-10 10 0 5.5228 4.47715 10 10 10z" fill="#ef2850" fill-rule="evenodd"/><g fill="#fff"><path d="m9.5 3c-.27759 0-.54269.11539-.73186.31855s-.28537.47581-.2656.7527l.5 6.99995c.03738.5234.47282.9288.99746.9288.5246 0 .9601-.4054.9975-.9288l.5-6.99995c.0197-.27689-.0765-.54954-.2656-.7527-.1892-.20316-.4543-.31855-.7319-.31855z"/><path d="m10 16.5c.8284 0 1.5-.6716 1.5-1.5s-.6716-1.5-1.5-1.5c-.82842 0-1.5.6716-1.5 1.5s.67158 1.5 1.5 1.5z"/></g></svg>