<svg fill="none" height="20" viewBox="0 0 20 20" width="20" xmlns="http://www.w3.org/2000/svg"><path clip-rule="evenodd" d="m10 0c-5.52285 0-10 4.47715-10 10 0 5.5228 4.47715 10 10 10 5.5228 0 10-4.4772 10-10 0-5.52285-4.4772-10-10-10zm4.7625 7.64698c.3573-.42112.3056-1.05217-.1155-1.40949-.4211-.35731-1.0522-.30559-1.4095.11553l-4.37781 5.15958-2.14179-2.20875c-.38447-.39648-1.01756-.40622-1.41405-.02175-.39648.38447-.40622 1.0176-.02175 1.414l2.90909 3c.19638.2026.46916.3127.7511.3033.28193-.0093.5468-.1373.72931-.3524z" fill="#1976f0" fill-rule="evenodd"/></svg>