<svg fill="none" height="20" viewBox="0 0 20 20" width="20" xmlns="http://www.w3.org/2000/svg"><path clip-rule="evenodd" d="m8.70083 8.47938c-.59848-1.45498-2.03002-2.47938-3.70083-2.47938-1.86384 0-3.42994 1.27477-3.87398 3h-.62602c-.276142 0-.5.22386-.5.5s.223858.5.5.5h.5c0 2.2091 1.79086 4 4 4s4-1.7909 4-4c0-.55228.44772-1 1-1 .5523 0 1 .44772 1 1 0 2.2091 1.7909 4 4 4s4-1.7909 4-4h.5c.2761 0 .5-.22386.5-.5s-.2239-.5-.5-.5h-.626c-.4441-1.72523-2.0102-3-3.874-3-1.6708 0-3.1024 1.0244-3.7008 2.47938-.3495-.29888-.8033-.47938-1.2992-.47938-.49592 0-.94968.1805-1.29917.47938zm-.70083 1.52062c0 1.6569-1.34315 3-3 3s-3-1.3431-3-3c0-1.65685 1.34315-3 3-3s3 1.34315 3 3zm4 0c0 1.6569 1.3431 3 3 3s3-1.3431 3-3c0-1.65685-1.3431-3-3-3s-3 1.34315-3 3z" fill="#fff" fill-rule="evenodd"/></svg>