<svg fill="none" height="20" viewBox="0 0 20 20" width="20" xmlns="http://www.w3.org/2000/svg"><path d="m3.62987 16.6111-1.49462-1.0794c.43908-.6215.89204-1.1024 1.36862-1.4397.5297-.3749 1.09258-.5741 1.67461-.5741.54043 0 1.00853.1325 1.42674.3862.16872.1023.32371.2204.4804.3602.10803.0964.18521.172.34939.338.24885.2516.35225.3439.47601.419.13425.0814.276.1216.48174.1216.20596 0 .3483-.0403.48325-.122.12435-.0753.22861-.1681.47739-.4192l.00229-.0023c.16338-.1649.24132-.2411.34938-.3373.15647-.1393.31123-.257.47953-.3591.4174-.2529.8841-.3851 1.4224-.3851.5384 0 1.0051.1322 1.4225.3851.1683.1021.3231.2198.4795.3591.1081.0962.186.1724.3494.3373l.0023.0023c.2488.2511.353.3439.4774.4192.1349.0817.2773.122.4832.122.1833 0 .3857-.0717.6213-.2384.2888-.2044.6011-.536.9273-.9978l1.4947 1.0794c-.4391.6216-.8921 1.1025-1.3687 1.4398-.5297.3749-1.0925.5741-1.6746.5741-.5402 0-1.0084-.1324-1.4269-.3858-.1689-.1023-.3241-.2203-.481-.36-.1084-.0964-.1865-.1728-.3502-.3381l-.0023-.0023c-.2482-.2504-.3521-.343-.4758-.4179-.1337-.0811-.2744-.1209-.4781-.1209-.2036 0-.3443.0398-.478.1209-.1237.0749-.2276.1675-.4758.4179l-.0023.0023c-.1637.1653-.2418.2417-.3502.3381-.1569.1397-.31212.2577-.481.36-.41851.2534-.8867.3858-1.42694.3858-.54043 0-1.00853-.1325-1.42673-.3862-.16872-.1024-.32372-.2205-.4804-.3603-.10804-.0963-.18522-.172-.34939-.338-.24886-.2516-.35226-.3438-.47602-.4189-.13425-.0815-.276-.1216-.48174-.1216-.18328 0-.3857.0716-.62131.2384-.28873.2043-.60108.536-.9273.9977z" fill="#45a1fc"/><path clip-rule="evenodd" d="m4.375 4.96338h1.52679c.634 0 1.14795.51967 1.14795 1.16071v4.50361h2.98466v1.625h-3.44384c-.634 0-1.14796-.5197-1.14796-1.1607v-4.50362h-1.0676zm11.6747 1.16071v1.20715h-1.6071v-.74286h-1.2628v5.66432h-1.6071v-5.66432h-1.2628v.74286h-1.60709v-1.20715c0-.64104.51395-1.16071 1.14796-1.16071h5.05103c.634 0 1.1479.51967 1.1479 1.16071z" fill="#1d1e20" fill-rule="evenodd"/></svg>