<svg fill="none" height="20" viewBox="0 0 20 20" width="20" xmlns="http://www.w3.org/2000/svg"><path d="m13.8664 6.34023c.1879-.20236.1762-.51873-.0262-.70663-.2023-.1879-.5187-.17618-.7066.02617zm-11.89937 3.09195.23855.43943zm.14075 1.82062-.16816.4709zm12.03852 6.3713-.2716.4198zm-5.22084-1.3377-.11243-.4872zm8.35634-13.37721-.4968-.05678zm-1.4706-.9924.2385.43942zm-9.08283 11.50301 7.14633 4.6241.5432-.8396-7.14627-4.6241zm9.45143 3.535 1.5988-13.98884-.9936-.11355-1.5987 13.98889zm-.6072-15.47744-13.84412 7.5154.4771.87885 13.84412-7.5154zm-13.63298 10.24634 4.89221 1.7472.33634-.9418-4.89222-1.7472zm9.19798 3.5391-2.32457.5364.22486.9744 2.32451-.5364zm-2.91776.1866-.73908-2.5868-.96152.2748.73907 2.5867zm4.91376-9.78963-6.5 7.00003.7328.6804 6.5-6.99997zm-11.40512 3.33299c-1.139833.61877-1.01027 2.29464.21114 2.73094l.33633-.9418c-.40713-.1454-.45032-.704-.07037-.91029zm12.14622 9.05114c.9344.6046 2.1788.0167 2.3051-1.0891l-.9935-.1135c-.0421.3686-.4569.5645-.7684.363zm-5.06167-2.2447c-.25932.0599-.52008-.0939-.59319-.3498l-.96153.2747c.21934.7677 1.00161 1.2291 1.77958 1.0495zm8.96557-12.83324c.1378-1.20596-1.1392-2.067702-2.206-1.4886l.4771.87885c.3556-.19303.7813.09422.7353.4962z" fill="#fff"/></svg>