<svg width="20" height="20" viewBox="0 0 20 20" fill="none" xmlns="http://www.w3.org/2000/svg">
<path fill-rule="evenodd" clip-rule="evenodd" d="M10 2C14.4183 2 18 5.58172 18 10C18 14.4183 14.4183 18 10 18C5.58172 18 2 14.4183 2 10C2 5.58172 5.58172 2 10 2ZM16.9824 10.5004L14.2551 10.5011C14.1502 13.1213 13.2136 15.2464 11.4556 16.8492C14.4641 16.2128 16.7604 13.643 16.9824 10.5004ZM8.22628 16.7733C5.37439 16.0286 3.23118 13.5303 3.01754 10.4994L5.50987 10.5001C5.61286 13.0791 6.52164 15.1785 8.22628 16.7733ZM6.51074 10.5014C6.62295 13.0829 7.61474 15.0853 9.49998 16.5442L9.5 10.5L6.51074 10.5014ZM10.5015 16.3544L10.5 10.5L13.2543 10.5014C13.1469 12.9724 12.2336 14.9127 10.5015 16.3544ZM11.4545 3.15131L11.5516 3.23956C13.2479 4.83198 14.1524 6.92735 14.2551 9.4999L16.9825 9.50061C16.7609 6.35762 14.4645 3.78739 11.4545 3.15131ZM8.00984 3.28696L8.22814 3.22575C6.52256 4.81966 5.61313 6.91937 5.50991 9.4989L3.01761 9.49961C3.2262 6.54632 5.26681 4.09891 8.00984 3.28696ZM10.5006 3.64481L10.5 9.499L13.2543 9.49965C13.1471 7.02732 12.2332 5.08619 10.5006 3.64481ZM6.51074 9.49865C6.62295 6.91705 7.61474 4.91471 9.49998 3.4558L9.5 9.499L6.51074 9.49865Z" fill="white"/>
</svg>