<svg fill="none" height="20" viewBox="0 0 20 20" width="20" xmlns="http://www.w3.org/2000/svg"><path clip-rule="evenodd" d="m10.1 16c.0706.3478.1773.6825.316 1h-6.416c-1.10457 0-2-.8954-2-2v-10c0-1.10457.89543-2 2-2h12c1.1046 0 2 .89543 2 2v5.9996c-.3077-.2311-.643-.4276-1-.5836v-3.416h-14v8c0 .5523.44772 1 1 1zm-7.1-10h14v-1c0-.55228-.4477-1-1-1h-12c-.55228 0-1 .44772-1 1zm10.2617 11.4454 4.1837-4.1837c.3492.4904.5546 1.0904.5546 1.7383 0 1.6569-1.3431 3-3 3-.6479 0-1.2479-.2054-1.7383-.5546zm3.4766-4.8908c-.4904-.3492-1.0904-.5546-1.7383-.5546-1.6569 0-3 1.3431-3 3 0 .6479.2054 1.2479.5546 1.7383zm-5.7383 2.4454c0 2.2091 1.7909 4 4 4s4-1.7909 4-4-1.7909-4-4-4-4 1.7909-4 4z" fill="#2f3237" fill-rule="evenodd"/></svg>