<svg fill="none" height="20" viewBox="0 0 20 20" width="20" xmlns="http://www.w3.org/2000/svg"><path clip-rule="evenodd" d="m10 2c4.4183 0 8 3.58172 8 8 0 4.4183-3.5817 8-8 8-4.41828 0-8-3.5817-8-8 0-4.41828 3.58172-8 8-8zm6.9824 8.5004-2.7273.0007c-.1049 2.6202-1.0415 4.7453-2.7995 6.3481 3.0085-.6364 5.3048-3.2062 5.5268-6.3488zm-8.75612 6.2729c-2.85189-.7447-4.9951-3.243-5.20874-6.2739l2.49233.0007c.10299 2.579 1.01177 4.6784 2.71641 6.2732zm-1.71554-6.2719c.11221 2.5815 1.104 4.5839 2.98924 6.0428l.00002-6.0442zm3.99076 5.853-.0015-5.8544 2.7543.0014c-.1074 2.471-1.0207 4.4113-2.7528 5.853zm.953-13.20309.0971.08825c1.6963 1.59242 2.6008 3.68779 2.7035 6.26034l2.7274.00071c-.2216-3.14299-2.518-5.71322-5.528-6.3493zm-3.44466.13565.2183-.06121c-1.70558 1.59391-2.61501 3.69362-2.71823 6.27315l-2.4923.00071c.20859-2.95329 2.2492-5.4007 4.99223-6.21265zm2.49076.35785-.0006 5.85419 2.7543.00065c-.1072-2.47233-1.0211-4.41346-2.7537-5.85484zm-3.98986 5.85384c.11221-2.5816 1.104-4.58394 2.98924-6.04285l.00002 6.0432z" fill="#2f3237" fill-rule="evenodd"/></svg>