<svg width="20" height="20" viewBox="0 0 20 20" fill="none" xmlns="http://www.w3.org/2000/svg">
<path fill-rule="evenodd" clip-rule="evenodd" d="M6.46456 6.46454L5.75745 5.75743C6.84428 4.66371 8.34983 3.98657 10.0135 3.98657C13.2765 3.98657 15.931 6.59114 16.0117 9.83464L16.341 9.44215C16.5185 9.23062 16.8339 9.20302 17.0454 9.38052C17.2569 9.55803 17.2845 9.8734 17.107 10.0849L15.5001 12.0001L13.8931 10.0849C13.7156 9.8734 13.7432 9.55802 13.9547 9.38052C14.1663 9.20302 14.4816 9.23062 14.6591 9.44215L15.012 9.86272C14.9463 7.15852 12.7336 4.98657 10.0135 4.98657C8.62598 4.98657 7.37042 5.55179 6.46456 6.46454ZM13.5356 13.5356L14.2427 14.2427C13.1559 15.3364 11.6503 16.0135 9.9866 16.0135C6.72369 16.0135 4.0691 13.409 3.98849 10.1655L3.65916 10.558C3.48166 10.7695 3.16628 10.7971 2.95474 10.6196C2.7432 10.4421 2.71561 10.1267 2.89311 9.91517L4.50008 8.00006L6.10705 9.91517C6.28455 10.1267 6.25696 10.4421 6.04542 10.6196C5.83388 10.7971 5.51851 10.7695 5.34101 10.558L4.98811 10.1374C5.05385 12.8416 7.26658 15.0135 9.9866 15.0135C11.3742 15.0135 12.6297 14.4483 13.5356 13.5356ZM8.50012 8.50006H11.5001C11.7763 8.50006 12.0001 8.72392 12.0001 9.00006C12.0001 9.2762 11.7763 9.50006 11.5001 9.50006H8.50012C8.22398 9.50006 8.00012 9.2762 8.00012 9.00006C8.00012 8.72392 8.22398 8.50006 8.50012 8.50006ZM8.50012 10.5001H11.5001C11.7763 10.5001 12.0001 10.7239 12.0001 11.0001C12.0001 11.2762 11.7763 11.5001 11.5001 11.5001H8.50012C8.22398 11.5001 8.00012 11.2762 8.00012 11.0001C8.00012 10.7239 8.22398 10.5001 8.50012 10.5001Z" fill="#2F3237"/>
</svg>