<svg fill="none" height="20" viewBox="0 0 20 20" width="20" xmlns="http://www.w3.org/2000/svg"><g stroke="#2f3237"><path d="m7.31235 13.6096-.13696-.1096h-.17539-3c-.82843 0-1.5-.6716-1.5-1.5v-4c0-.82843.67157-1.5 1.5-1.5h3 .17539l.13696-.10957 3.37535-2.70024c.3273-.2619.8123-.02882.8123.39043v11.83878c0 .4192-.485.6523-.8123.3904z"/><g stroke-linecap="round"><path d="m15.6841 5.26398c1.4093 1.09791 2.3158 2.81111 2.3158 4.73602 0 1.9249-.9065 3.6381-2.3158 4.736"/><path d="m13.8584 7.64471c.6954.54942 1.1416 1.40023 1.1416 2.35526s-.4462 1.80583-1.1416 2.35523"/></g></g></svg>