<svg height="20" viewBox="0 0 20 20" width="20" xmlns="http://www.w3.org/2000/svg"><path d="m2 9v7h2.39473341c.67466893 0 1.28866833.3895871 1.57602581 1 .28735748.6104129.90135688 1 1.57602581 1h4.45321497c2.6517862 0 4-.6270839 4-3l-.0005245-1.0010495c0-.5522847.4477153-1 1-1 .0001749 0 .0003498.0000001.0005246.0000002l.7899398.0009388c.1233569-.3248081.2100601-.9158811.2100601-1.748794 0-.9802462-.1194045-1.68180756-.3097219-2.08633636-.0386416-.08213454-.0657229-.13264382-.0892717-.16475914h-7.6010064v-6c0-.44194444-.45986391-.79142243-1.99998866-.93641263l-.00000474 1.2284519c-.00000518 1.34130066-.26984634 2.66889322-.79346398 3.90376649l-.76502418 1.80419424zm10 11h-6.27924078c-.43043041 0-.81256925-.2754301-.9486833-.6837722l-.19248623-.3281488c-.35903249-.6120752-1.01550753-.988079-1.72511333-.988079h-2.85447636v-11h5c.65762893-1.31525786 1.00000296-2.76556499 1.00000864-4.23606798l.0000068-1.76060897c0-.55227622.44770834-.99998456.99998456-.99998456.01020977 0 .02041893.00015636.03062391.00046903 3.31291739.10150366 4.96937609 1.10023449 4.96937609 2.99619248v4h2 4c1.3333333.3340945 2 1.75112632 2 4.2510955 0 2.4985706-.665921 3.7482054-1.997763 3.7489045-.0074806 4.9999384-4.7529271 5-6.002237 5z" fill="#45a8fc" fill-rule="evenodd"/></svg>